<svg width="275" height="260" viewBox="0 0 275 260" fill="none" xmlns="http://www.w3.org/2000/svg">
<g clip-path="url(#clip0_188_8870)">
<mask id="mask0_188_8870" style="mask-type:luminance" maskUnits="userSpaceOnUse" x="0" y="0" width="275" height="260">
<path d="M207.952 0.51752L0.497559 76.2215L67.035 259.507L274.49 183.803L207.952 0.51752Z" fill="white"/>
</mask>
<g mask="url(#mask0_188_8870)">
<path d="M123.847 227.196C187.22 213.834 235.379 215.796 247.343 157.019C259.307 98.2424 222.741 41.1324 165.579 29.4553C108.416 17.7783 75.6396 60.9677 47.7207 113.921C9.58848 186.157 66.488 239.565 123.847 227.196Z" fill="#EDE3FF"/>
</g>
<path d="M164.935 217.475C164.796 217.428 164.662 217.368 164.534 217.296C163.869 216.845 163.69 215.946 164.131 215.279L164.348 214.952C164.797 214.29 165.698 214.115 166.368 214.557C167.033 215.007 167.212 215.907 166.771 216.573L166.554 216.901C166.192 217.415 165.543 217.646 164.935 217.475ZM169.995 209.944C169.857 209.898 169.722 209.837 169.595 209.765C168.93 209.315 168.751 208.415 169.192 207.749L171.122 204.888C171.572 204.226 172.478 204.054 173.144 204.505C173.805 204.953 173.984 205.846 173.545 206.509L171.615 209.369C171.26 209.894 170.604 210.126 169.995 209.943V209.944ZM176.769 199.88C176.631 199.834 176.496 199.774 176.369 199.701C175.704 199.251 175.525 198.352 175.966 197.685L177.896 194.825C178.346 194.162 179.252 193.99 179.918 194.441C180.579 194.889 180.758 195.782 180.319 196.445L178.389 199.305C178.034 199.83 177.378 200.063 176.769 199.879V199.88ZM183.535 189.844C183.397 189.797 183.262 189.737 183.135 189.665C182.47 189.214 182.291 188.315 182.732 187.648L184.662 184.788C185.109 184.123 186.013 183.945 186.682 184.393C187.351 184.841 187.531 185.744 187.085 186.41L185.155 189.27C184.793 189.784 184.143 190.015 183.535 189.844ZM190.31 179.78C190.171 179.734 190.036 179.673 189.909 179.601C189.244 179.151 189.065 178.251 189.506 177.585L191.437 174.725C191.884 174.059 192.788 173.882 193.456 174.33C194.125 174.777 194.305 175.68 193.859 176.346L191.929 179.206C191.567 179.721 190.917 179.951 190.31 179.78ZM197.668 170.191C197.444 170.125 197.24 170.002 197.079 169.835C196.51 169.282 196.494 168.377 197.042 167.807C197.864 166.967 198.75 166.115 199.611 165.347C200.209 164.817 201.126 164.873 201.659 165.472C202.192 166.07 202.138 166.984 201.54 167.514C200.716 168.263 199.882 169.04 199.105 169.832C198.726 170.2 198.178 170.336 197.67 170.19L197.668 170.191ZM207.116 162.636C206.348 162.413 205.903 161.612 206.123 160.846C206.224 160.493 206.457 160.193 206.774 160.005C207.796 159.405 208.847 158.814 209.881 158.277C210.597 157.916 211.472 158.203 211.838 158.917C212.203 159.632 211.918 160.504 211.203 160.865C210.205 161.382 209.226 161.935 208.275 162.496C207.93 162.712 207.505 162.764 207.117 162.634L207.116 162.636ZM218.199 157.732C217.729 157.588 217.362 157.22 217.22 156.749C216.986 155.99 217.412 155.186 218.172 154.955C219.304 154.598 220.476 154.313 221.64 154.055C222.417 153.878 223.193 154.365 223.373 155.141C223.553 155.918 223.068 156.69 222.29 156.867C221.191 157.113 220.111 157.395 219.05 157.713C218.775 157.806 218.478 157.813 218.198 157.731L218.199 157.732ZM230.147 155.734C229.384 155.503 228.95 154.698 229.18 153.938C229.356 153.353 229.883 152.945 230.495 152.917C231.684 152.879 232.893 152.876 234.059 152.92C234.859 152.95 235.486 153.621 235.46 154.419C235.433 155.218 234.763 155.841 233.962 155.812C232.852 155.784 231.707 155.775 230.609 155.812C230.454 155.803 230.299 155.777 230.148 155.735L230.147 155.734ZM242.236 156.848C241.511 156.634 241.07 155.9 241.222 155.163C241.389 154.393 242.151 153.904 242.924 154.073C242.927 154.073 242.93 154.074 242.933 154.075C244.096 154.329 245.244 154.639 246.383 154.977C247.145 155.194 247.588 155.986 247.373 156.745C247.37 156.754 247.368 156.763 247.365 156.773C247.149 157.532 246.356 157.971 245.595 157.753C245.586 157.75 245.577 157.748 245.568 157.745C244.484 157.424 243.392 157.131 242.312 156.901C242.296 156.873 242.269 156.854 242.237 156.849L242.236 156.848Z" fill="#6F46BE"/>
<path d="M191.705 40.4264C191.562 40.3942 191.415 40.3761 191.268 40.372C190.464 40.4133 189.844 41.0911 189.878 41.8937L189.895 42.2875C189.94 43.0891 190.623 43.7085 191.427 43.6773C192.232 43.636 192.851 42.9582 192.817 42.1556L192.8 41.7618C192.756 41.1314 192.317 40.5956 191.705 40.4264ZM192.157 49.5273C192.014 49.4951 191.867 49.477 191.72 49.473C190.916 49.5142 190.296 50.192 190.33 50.9946L190.51 54.4549C190.554 55.2586 191.243 55.8769 192.05 55.8366C192.85 55.7964 193.466 55.1216 193.432 54.324L193.252 50.8637C193.219 50.2283 192.775 49.6875 192.157 49.5283V49.5273ZM192.771 61.6948C192.628 61.6626 192.481 61.6444 192.334 61.6404C191.53 61.6817 190.91 62.3595 190.944 63.1621L191.124 66.6224C191.168 67.426 191.857 68.0444 192.664 68.0041C193.464 67.9638 194.08 67.2891 194.046 66.4915L193.866 63.0312C193.833 62.3957 193.389 61.8549 192.771 61.6958V61.6948ZM193.392 73.834C193.248 73.8018 193.102 73.7837 192.955 73.7797C192.15 73.821 191.531 74.4987 191.565 75.3014L191.745 78.7617C191.784 79.5653 192.47 80.1877 193.276 80.1514C194.083 80.1152 194.706 79.4334 194.667 78.6297L194.487 75.1694C194.443 74.539 194.004 74.0032 193.392 73.834ZM194.006 86.0015C193.862 85.9693 193.715 85.9511 193.569 85.9471C192.764 85.9884 192.144 86.6662 192.179 87.4688L192.358 90.9291C192.397 91.7327 193.084 92.3551 193.89 92.3189C194.697 92.2826 195.319 91.6008 195.28 90.7972L195.1 87.3369C195.056 86.7065 194.617 86.1707 194.006 86.0015ZM195.369 98.0662C195.142 98.0058 194.904 98.0048 194.678 98.0642C193.902 98.2435 193.42 99.0119 193.597 99.7863C193.868 100.935 194.188 102.128 194.531 103.236C194.771 104.001 195.589 104.43 196.356 104.193C197.123 103.957 197.551 103.144 197.311 102.378C196.99 101.305 196.675 100.204 196.417 99.1186C196.283 98.606 195.882 98.2042 195.369 98.0652V98.0662ZM199.58 109.471C198.804 109.262 198.007 109.719 197.8 110.491C197.705 110.848 197.749 111.227 197.925 111.552C198.494 112.599 199.091 113.655 199.702 114.653C200.13 115.336 201.032 115.545 201.715 115.121C202.399 114.697 202.606 113.8 202.178 113.117C201.587 112.153 201.032 111.169 200.504 110.192C200.32 109.827 199.98 109.562 199.58 109.47V109.471ZM206.571 119.449C206.092 119.328 205.585 119.453 205.22 119.784C204.626 120.314 204.577 121.226 205.11 121.821C205.898 122.716 206.758 123.571 207.626 124.397C208.204 124.954 209.123 124.94 209.679 124.367C210.236 123.794 210.219 122.877 209.642 122.322C208.823 121.538 208.041 120.733 207.294 119.909C207.106 119.686 206.854 119.526 206.571 119.449ZM215.81 127.383C215.034 127.185 214.244 127.65 214.048 128.422C213.897 129.016 214.138 129.641 214.65 129.982C215.653 130.635 216.691 131.266 217.716 131.834C218.419 132.226 219.306 131.975 219.697 131.276C220.087 130.577 219.833 129.692 219.129 129.302C218.161 128.748 217.171 128.16 216.245 127.557C216.107 127.485 215.96 127.426 215.809 127.383H215.81ZM226.781 132.717C226.047 132.523 225.287 132.923 225.037 133.636C224.781 134.384 225.183 135.2 225.935 135.458C225.938 135.459 225.941 135.46 225.944 135.461C227.076 135.848 228.223 136.179 229.378 136.482C230.145 136.691 230.937 136.242 231.143 135.478C231.145 135.469 231.148 135.46 231.15 135.451C231.358 134.686 230.904 133.897 230.136 133.687C230.127 133.685 230.118 133.682 230.108 133.68C229.01 133.392 227.919 133.076 226.871 132.712C226.843 132.728 226.809 132.73 226.78 132.718L226.781 132.717Z" fill="#6F46BE"/>
<path d="M220.858 52.9383C220.858 64.6103 213.269 74.4997 202.776 77.9308C200.208 78.7657 197.472 79.2178 194.635 79.2178C180.156 79.2178 168.413 67.4552 168.413 52.9272C168.413 38.3992 179.143 27.6749 192.744 26.704C193.364 26.6587 193.994 26.6366 194.624 26.6366C209.115 26.6476 220.858 38.4213 220.858 52.9383Z" fill="white"/>
<path d="M194.635 79.7818C187.486 79.7818 180.753 76.9932 175.697 71.9136C170.631 66.845 167.85 60.1056 167.85 52.9262C167.85 45.7468 170.417 39.5724 175.067 34.5824C179.694 29.6155 185.965 26.6124 192.699 26.1391C193.33 26.0937 193.972 26.0716 194.624 26.0716C201.785 26.0716 208.518 28.8713 213.574 33.9509C218.629 39.0195 221.421 45.7699 221.421 52.9383C221.421 58.7179 219.62 64.2266 216.208 68.8551C212.864 73.3929 208.282 76.7233 202.956 78.4615C200.265 79.3417 197.473 79.7818 194.635 79.7818ZM194.624 27.2005C194.005 27.2005 193.386 27.2227 192.789 27.268C186.327 27.7312 180.325 30.5984 175.889 35.3618C171.431 40.1364 168.977 46.3792 168.977 52.9272C168.977 59.8015 171.645 66.2588 176.498 71.124C181.339 75.9781 187.791 78.6539 194.636 78.6539C197.35 78.6539 200.029 78.2249 202.608 77.39C207.709 75.7193 212.099 72.5359 215.308 68.1904C218.574 63.7542 220.307 58.4711 220.307 52.9393C220.307 46.065 217.639 39.6077 212.786 34.7425C207.934 29.8884 201.482 27.2015 194.625 27.2015L194.624 27.2005Z" fill="#6F46BE"/>
<path d="M205.235 46.2926C205.235 53.9333 194.775 69.978 194.775 69.978C194.775 69.978 184.314 53.9333 184.314 46.2926C184.314 43.4557 185.416 40.7346 187.378 38.7295C189.34 36.7234 192.001 35.5965 194.775 35.5965C197.549 35.5965 200.21 36.7234 202.172 38.7295C204.133 40.7356 205.235 43.4557 205.235 46.2926Z" fill="#EDE3FF"/>
<path d="M194.775 70.551C194.682 70.551 194.592 70.5278 194.511 70.4835C194.429 70.4392 194.36 70.3747 194.309 70.2962C193.879 69.6345 183.754 54.0189 183.754 46.2936C183.754 43.3046 184.915 40.4385 186.982 38.3247C189.049 36.2108 191.853 35.0235 194.776 35.0235C197.699 35.0235 200.502 36.2108 202.569 38.3247C204.637 40.4385 205.798 43.3046 205.798 46.2936C205.798 54.0189 195.673 69.6345 195.243 70.2962C195.192 70.3747 195.122 70.4392 195.041 70.4835C194.96 70.5278 194.869 70.551 194.777 70.551H194.775ZM194.775 36.1695C192.15 36.1725 189.634 37.24 187.778 39.1384C185.922 41.0367 184.878 43.6098 184.875 46.2936C184.875 52.76 192.756 65.714 194.775 68.9276C196.795 65.714 204.675 52.76 204.675 46.2936C204.672 43.6098 203.628 41.0367 201.772 39.1384C199.916 37.241 197.399 36.1725 194.775 36.1695Z" fill="#6F46BE"/>
<path d="M194.774 52.4045C198.076 52.4045 200.752 49.6683 200.752 46.2926C200.752 42.9169 198.076 40.1807 194.774 40.1807C191.473 40.1807 188.797 42.9169 188.797 46.2926C188.797 49.6683 191.473 52.4045 194.774 52.4045Z" fill="white"/>
<path d="M194.775 52.9776C193.482 52.9776 192.217 52.5858 191.143 51.8507C190.068 51.1165 189.229 50.0722 188.735 48.8506C188.241 47.629 188.11 46.2846 188.363 44.9885C188.615 43.6914 189.238 42.5 190.152 41.5654C191.066 40.6309 192.231 39.9934 193.5 39.7356C194.769 39.4778 196.083 39.6097 197.278 40.1162C198.472 40.6218 199.494 41.4788 200.212 42.5785C200.93 43.6783 201.314 44.9703 201.314 46.2926C201.312 48.0651 200.623 49.764 199.396 51.0178C198.171 52.2706 196.508 52.9766 194.776 52.9786L194.775 52.9776ZM194.775 40.7527C193.703 40.7527 192.656 41.078 191.765 41.6863C190.874 42.2945 190.18 43.1596 189.771 44.1717C189.361 45.1838 189.253 46.2977 189.462 47.3722C189.671 48.4468 190.187 49.4337 190.945 50.2081C191.702 50.9826 192.667 51.5103 193.718 51.7238C194.769 51.9373 195.859 51.8275 196.848 51.4086C197.837 50.9896 198.684 50.2796 199.279 49.3682C199.873 48.4568 200.192 47.3863 200.192 46.2906C200.19 44.8223 199.619 43.4144 198.604 42.3761C197.588 41.3378 196.211 40.7537 194.775 40.7517V40.7527Z" fill="#6F46BE"/>
<path d="M189.972 211.97C189.972 221.88 183.529 230.275 174.621 233.188C172.441 233.897 170.119 234.281 167.71 234.281C155.417 234.281 145.448 224.295 145.448 211.961C145.448 199.628 154.558 190.523 166.104 189.699C166.629 189.661 167.165 189.641 167.7 189.641C180.002 189.651 189.972 199.647 189.972 211.971V211.97Z" fill="white"/>
<path d="M167.71 234.759C161.64 234.759 155.924 232.393 151.632 228.079C147.331 223.776 144.97 218.055 144.97 211.96C144.97 205.865 147.149 200.622 151.097 196.387C155.025 192.17 160.35 189.621 166.065 189.218C166.601 189.18 167.145 189.161 167.7 189.161C173.779 189.161 179.495 191.538 183.787 195.85C188.079 200.153 190.45 205.883 190.45 211.969C190.45 216.876 188.92 221.552 186.024 225.482C183.185 229.334 179.295 232.162 174.774 233.637C172.49 234.385 170.119 234.758 167.711 234.758L167.71 234.759ZM167.7 190.12C167.174 190.12 166.648 190.139 166.142 190.177C160.655 190.57 155.561 193.004 151.794 197.048C148.009 201.102 145.925 206.402 145.925 211.96C145.925 217.796 148.19 223.279 152.31 227.409C156.421 231.53 161.898 233.801 167.709 233.801C170.012 233.801 172.287 233.436 174.476 232.727C178.806 231.309 182.533 228.606 185.258 224.916C188.03 221.15 189.501 216.665 189.501 211.969C189.501 206.133 187.236 200.651 183.116 196.521C178.997 192.4 173.519 190.119 167.698 190.119L167.7 190.12Z" fill="#6F46BE"/>
<mask id="mask1_188_8870" style="mask-type:luminance" maskUnits="userSpaceOnUse" x="153" y="204" width="30" height="17">
<path d="M182.237 204.827H153.062V220.666H182.237V204.827Z" fill="white"/>
</mask>
<g mask="url(#mask1_188_8870)">
<path d="M182.208 212.783C182.035 211.431 181.378 210.183 180.353 209.26C179.864 208.862 179.069 208.842 178.152 208.842C177.554 208.881 176.953 208.814 176.378 208.643C175.965 208.348 175.595 208 175.277 207.608C174.442 206.692 173.382 205.537 172.036 205.318C170.448 205.061 164.861 204.562 163.719 205C163.069 205.311 162.448 205.678 161.864 206.095C160.927 206.711 159.519 207.647 158.99 207.687C158.806 207.707 158.602 207.707 158.378 207.727C156.646 207.847 155.138 208.006 154.505 208.822C153.749 209.768 153.27 210.896 153.119 212.087C153.065 212.815 153.051 213.546 153.078 214.276C153.037 215.172 153.179 216.028 153.649 216.425C153.853 216.625 154.261 216.983 159.418 217.281C162.353 217.461 165.574 217.54 167.449 217.54C168.101 217.54 168.937 217.56 169.916 217.56C171.424 217.581 172.769 217.6 173.972 217.6C177.622 217.6 179.904 217.481 180.943 217.084C181.106 217.034 181.259 216.952 181.392 216.845C182.064 216.308 182.166 215.333 182.186 214.795V214.774C182.243 214.111 182.25 213.447 182.207 212.783H182.208ZM169.917 216.366C168.938 216.346 168.103 216.346 167.45 216.346C164.8 216.346 161.457 216.226 158.807 216.047C158.991 216.007 159.194 215.967 159.378 215.927C162.19 215.389 165.392 214.793 167.43 214.793C168.877 214.793 171.527 215.429 174.075 216.027C174.603 216.146 175.115 216.266 175.584 216.385C173.525 216.405 171.303 216.385 169.917 216.365V216.366Z" fill="#6F46BE"/>
<path d="M178.499 212.763C177.439 212.743 176.461 212.743 175.829 212.445C175.212 212.04 174.691 211.51 174.3 210.892C173.607 209.996 172.73 208.881 171.855 208.742C170.019 208.443 164.904 208.562 164.149 208.841C163.595 209.137 163.058 209.463 162.539 209.816C161.01 210.831 159.869 211.548 159.094 211.608C158.89 211.628 158.625 211.648 158.298 211.667C157.504 211.707 155.118 211.846 154.772 212.284C154.283 212.921 154.12 215.13 154.425 215.549C155.363 215.967 162.578 216.365 167.431 216.365C168.083 216.365 168.94 216.385 169.897 216.385C172.853 216.425 179.784 216.526 180.598 215.948C180.848 215.622 180.971 215.22 180.945 214.813C180.985 214.13 180.752 213.46 180.295 212.942C180.089 212.783 179.131 212.783 178.499 212.763Z" fill="#EDE3FF"/>
<path d="M165.045 217.42C165.021 217.898 164.887 218.363 164.654 218.783C164.421 219.203 164.096 219.568 163.7 219.849C162.982 220.373 162.11 220.659 161.213 220.665C160.296 220.671 159.411 220.342 158.731 219.741C158.052 219.14 157.628 218.312 157.544 217.42C157.496 216.937 157.552 216.45 157.706 215.988C157.869 215.517 158.118 215.079 158.442 214.694C158.79 214.308 159.215 213.995 159.692 213.777C160.169 213.557 160.687 213.436 161.214 213.42C161.753 213.4 162.291 213.502 162.784 213.719C163.274 213.922 163.713 214.228 164.069 214.615C164.413 214.996 164.677 215.441 164.845 215.922C165.013 216.403 165.081 216.913 165.046 217.42H165.045ZM163.353 217.42C163.324 217.159 163.241 216.905 163.107 216.675C162.974 216.446 162.794 216.245 162.579 216.087C162.192 215.777 161.713 215.596 161.214 215.571C160.694 215.547 160.181 215.702 159.767 216.01C159.309 216.358 159.002 216.863 158.911 217.422C158.871 217.729 158.892 218.04 158.972 218.338C159.059 218.644 159.212 218.929 159.421 219.174C159.645 219.427 159.919 219.632 160.229 219.775C160.537 219.919 160.873 219.999 161.215 220.01C161.558 220.015 161.896 219.935 162.199 219.779C162.502 219.623 162.76 219.393 162.948 219.114C163.296 218.62 163.442 218.015 163.355 217.42H163.353Z" fill="#6F46BE"/>
<path d="M162.211 219.79C162.505 219.631 162.757 219.406 162.944 219.133C163.28 218.634 163.424 218.035 163.352 217.442C163.323 217.18 163.24 216.926 163.106 216.696C162.973 216.467 162.793 216.266 162.578 216.107C162.191 215.796 161.713 215.616 161.213 215.592C160.692 215.567 160.18 215.723 159.765 216.029C159.307 216.377 159.001 216.882 158.909 217.442C158.869 217.748 158.89 218.059 158.971 218.357C159.058 218.663 159.211 218.948 159.42 219.193C159.644 219.446 159.918 219.651 160.227 219.794C160.537 219.937 160.872 220.018 161.214 220.028C161.562 220.028 161.905 219.946 162.213 219.788L162.211 219.79Z" fill="#EDE3FF"/>
<path d="M176.685 217.42C176.655 217.909 176.516 218.384 176.277 218.814C176.043 219.22 175.723 219.573 175.34 219.85C174.621 220.374 173.749 220.66 172.852 220.666C171.935 220.672 171.051 220.343 170.37 219.742C169.691 219.141 169.268 218.313 169.183 217.421C169.136 216.938 169.192 216.45 169.347 215.988C169.51 215.518 169.758 215.079 170.08 214.695C170.429 214.309 170.855 213.996 171.331 213.778C171.808 213.558 172.325 213.437 172.852 213.421C173.392 213.401 173.929 213.503 174.422 213.72C174.913 213.923 175.352 214.229 175.707 214.616C176.387 215.395 176.737 216.399 176.686 217.422L176.685 217.42ZM174.972 217.42C174.943 217.159 174.858 216.905 174.726 216.675C174.592 216.446 174.412 216.245 174.197 216.087C173.811 215.777 173.332 215.596 172.831 215.571C172.311 215.547 171.799 215.702 171.384 216.01C170.925 216.357 170.62 216.863 170.527 217.422C170.487 217.729 170.508 218.04 170.588 218.338C170.676 218.644 170.829 218.929 171.037 219.174C171.261 219.427 171.536 219.632 171.845 219.775C172.153 219.919 172.49 219.999 172.831 220.01C173.174 220.015 173.512 219.935 173.816 219.779C174.119 219.623 174.376 219.393 174.564 219.114C174.913 218.62 175.058 218.015 174.972 217.42Z" fill="#6F46BE"/>
<path d="M176.685 217.42C176.655 217.909 176.516 218.384 176.277 218.814C176.043 219.22 175.723 219.573 175.34 219.85C174.621 220.374 173.749 220.66 172.852 220.666C171.935 220.672 171.051 220.343 170.37 219.742C169.691 219.141 169.268 218.313 169.183 217.421C169.136 216.938 169.192 216.45 169.347 215.988C169.51 215.518 169.758 215.079 170.08 214.695C170.429 214.309 170.855 213.996 171.331 213.778C171.808 213.558 172.325 213.437 172.852 213.421C173.392 213.401 173.929 213.503 174.422 213.72C174.913 213.923 175.352 214.229 175.707 214.616C176.387 215.395 176.737 216.399 176.686 217.422L176.685 217.42ZM174.972 217.42C174.943 217.159 174.858 216.905 174.726 216.675C174.592 216.446 174.412 216.245 174.197 216.087C173.811 215.777 173.332 215.596 172.831 215.571C172.311 215.547 171.799 215.702 171.384 216.01C170.925 216.357 170.62 216.863 170.527 217.422C170.487 217.729 170.508 218.04 170.588 218.338C170.676 218.644 170.829 218.929 171.037 219.174C171.261 219.427 171.536 219.632 171.845 219.775C172.153 219.919 172.49 219.999 172.831 220.01C173.174 220.015 173.512 219.935 173.816 219.779C174.119 219.623 174.376 219.393 174.564 219.114C174.913 218.62 175.058 218.015 174.972 217.42Z" fill="#6F46BE"/>
<path d="M174.972 217.421C174.943 217.16 174.859 216.906 174.726 216.676C174.593 216.447 174.413 216.246 174.198 216.088C173.811 215.778 173.332 215.597 172.832 215.572C172.312 215.548 171.799 215.703 171.384 216.011C170.925 216.358 170.62 216.864 170.528 217.423C170.487 217.73 170.509 218.041 170.589 218.339C170.676 218.645 170.829 218.93 171.038 219.175C171.262 219.428 171.536 219.633 171.845 219.776C172.154 219.92 172.49 220 172.832 220.011C173.174 220.016 173.513 219.936 173.816 219.78C174.12 219.624 174.377 219.394 174.565 219.115C174.913 218.621 175.059 218.016 174.972 217.421Z" fill="#EDE3FF"/>
</g>
<path d="M238.812 146.789C238.812 156.455 232.528 164.645 223.837 167.487C221.712 168.179 219.446 168.552 217.096 168.552C205.106 168.552 195.381 158.812 195.381 146.78C195.381 134.749 204.266 125.868 215.53 125.064C216.044 125.027 216.565 125.007 217.087 125.007C229.087 125.016 238.812 134.767 238.812 146.788V146.789Z" fill="white"/>
<path d="M217.096 169.02C211.176 169.02 205.6 166.71 201.414 162.504C197.218 158.306 194.915 152.725 194.915 146.78C194.915 140.836 197.04 135.722 200.892 131.59C204.724 127.477 209.918 124.989 215.493 124.598C216.016 124.56 216.547 124.541 217.087 124.541C223.018 124.541 228.593 126.859 232.78 131.066C236.967 135.263 239.279 140.854 239.279 146.789C239.279 151.576 237.787 156.138 234.962 159.97C232.192 163.728 228.398 166.486 223.987 167.926C221.758 168.655 219.446 169.02 217.096 169.02ZM217.087 125.476C216.574 125.476 216.062 125.495 215.568 125.532C210.216 125.916 205.246 128.289 201.573 132.235C197.88 136.19 195.847 141.359 195.847 146.781C195.847 152.474 198.057 157.822 202.076 161.851C206.086 165.871 211.427 168.087 217.096 168.087C219.343 168.087 221.562 167.731 223.698 167.04C227.922 165.656 231.558 163.019 234.215 159.421C236.919 155.747 238.355 151.373 238.355 146.791C238.355 141.098 236.145 135.751 232.126 131.722C228.107 127.701 222.765 125.477 217.086 125.477L217.087 125.476Z" fill="#6F46BE"/>
<path d="M205.94 136.67V146.965H213.358L217.235 140.861L221.111 146.965H228.529V136.67H205.939H205.94ZM217.235 142.774L213.924 147.994H207.48V158.288H215.181V152.626C215.181 151.488 216.101 150.568 217.235 150.568C218.369 150.568 219.288 151.489 219.288 152.626V158.288H226.989V147.994H220.545L217.235 142.774ZM210.047 150.568H213.127V154.171H210.047V150.568ZM221.341 150.568H224.421V154.171H221.341V150.568Z" fill="#EDE3FF"/>
<path d="M205.94 136.67V147.994H207.48V158.288H226.989V147.994H228.529V136.67H205.939H205.94ZM206.967 137.7H227.502V146.965H226.562C226.507 146.956 226.449 146.956 226.394 146.965H221.11L217.235 140.859L213.359 146.965H208.073C208.044 146.96 208.015 146.958 207.986 146.958C207.96 146.958 207.936 146.961 207.911 146.965H206.967V137.7ZM217.235 142.776L220.546 147.994H225.962V157.259H219.802V152.626C219.802 151.211 218.647 150.052 217.235 150.052C215.822 150.052 214.667 151.21 214.667 152.626V157.259H208.507V147.994H213.923L217.235 142.776ZM209.533 150.052V154.685H213.641V150.052H209.533ZM220.828 150.052V154.685H224.935V150.052H220.828ZM210.56 151.082H212.613V153.656H210.56V151.082ZM217.234 151.082C218.09 151.082 218.773 151.767 218.773 152.625V157.258H215.693V152.625C215.693 151.766 216.377 151.082 217.233 151.082H217.234ZM221.854 151.082H223.907V153.656H221.854V151.082Z" fill="#6F46BE"/>
<mask id="mask2_188_8870" style="mask-type:luminance" maskUnits="userSpaceOnUse" x="8" y="21" width="169" height="176">
<path d="M176.557 21.9235H8.68018V196.918H176.557V21.9235Z" fill="white"/>
</mask>
<g mask="url(#mask2_188_8870)">
<path d="M90.8154 128.8C96.7658 128.489 114.515 130.823 114.515 130.823C114.515 130.823 137.696 135.648 145.407 139.902C153.117 144.156 155.238 153.651 152.547 161.9C149.856 170.148 137.076 174.144 126.313 172.95C115.55 171.757 109.548 165.635 109.548 165.635L81.4498 148.098L68.9795 133.104C68.9795 133.053 85.2788 129.111 90.8154 128.799V128.8Z" fill="#EDE3FF"/>
<path d="M67.2712 143.015C67.2712 143.015 65.3045 151.886 59.9748 153.497C54.6452 155.107 36.586 145.299 36.586 145.299C36.586 145.299 31.2041 153.393 33.5335 162.419C35.8618 171.393 42.9523 171.342 42.9523 171.342C42.9523 171.342 39.6396 179.59 39.5351 188.15L64.2176 191.055C64.2176 191.055 96.9208 196.245 106.598 196.399C116.222 196.554 125.485 194.738 126.934 180.783C128.383 166.828 114.257 155.621 104.735 149.862C95.2654 144.155 93.7136 144.518 93.7136 144.518C93.7136 144.518 85.2279 146.387 79.9495 144.518L79.2253 146.334C79.2775 146.438 70.377 144 67.2722 143.014L67.2712 143.015Z" fill="#EDE3FF"/>
<path d="M34.2573 143.793C34.2573 143.793 42.0188 148.929 47.918 151.369C53.7649 153.807 58.06 154.481 61.891 152.666C65.72 150.902 67.2206 142.965 67.2206 142.965L73.2765 144.469C73.2765 144.469 75.9152 134.352 79.1757 133.004L71.2023 128.332C71.2023 128.332 74.7209 115.05 75.5486 105.193C76.325 95.336 76.8423 78.3195 73.168 69.6033C73.168 69.6033 55.7296 67.8913 40.7763 80.5502C25.8229 93.2604 23.8039 101.924 23.131 106.594C22.458 111.264 23.0275 123.092 38.1888 131.808L34.2573 143.793Z" fill="#EDE3FF"/>
<path d="M88.9521 75.7273C88.9521 75.7273 97.8004 80.241 104.373 87.2442C110.944 94.198 118.137 109.708 125.07 107.737C128.279 106.804 131.59 104.677 140.542 98.3986C140.542 98.3986 145.199 107.374 150.27 109.708C150.27 109.708 139.559 124.754 130.97 129.215C122.432 133.677 108.357 129.941 108.357 129.941C108.357 129.941 94.8513 124.183 91.9545 119.824C91.9545 119.824 91.0233 98.1377 90.4016 91.8606C89.7808 85.4788 88.9532 75.7253 88.9532 75.7253L88.9521 75.7273Z" fill="#EDE3FF"/>
<path d="M140.904 98.3462L148.562 92.8466C148.562 92.8466 153.219 101.563 155.082 102.963L150.27 109.603C150.27 109.656 142.973 105.453 140.904 98.3452V98.3462Z" fill="white"/>
<path d="M148.563 92.8476L155.498 87.0891L159.741 84.3388L164.295 76.816C164.659 76.8714 165.003 77.0194 165.293 77.247C165.583 77.4736 165.809 77.7727 165.951 78.1131L168.279 75.675C168.279 75.675 169.469 76.0899 168.642 77.9056L172.367 76.4011C172.367 76.4011 173.144 78.1644 172.367 78.8915L175.835 78.1131C175.835 78.1131 176.3 79.6177 172.989 81.2259C169.728 82.8342 164.916 85.4285 166.572 89.4749C168.228 93.5213 175.11 91.7579 175.11 94.4559L170.556 95.1306L161.345 96.6875L155.083 102.965C155.081 103.017 149.235 96.2203 148.562 92.8486L148.563 92.8476Z" fill="#EDE3FF"/>
<path d="M79.2239 133.054L83.8805 135.026C83.8805 135.026 80.1028 141.355 79.5855 145.92L73.2725 144.572C73.3247 144.572 75.653 136.219 79.2229 133.054H79.2239Z" fill="white"/>
<path d="M83.8817 135.026C83.8817 135.026 89.6774 135.026 93.6611 137.256C97.6448 139.487 100.957 144.416 101.629 148.1L93.7646 144.572C89.2174 145.445 84.5467 145.445 80.0005 144.572C80.0005 144.572 82.0707 137.775 83.8817 135.026Z" fill="#EDE3FF"/>
<path d="M90.8157 128.281C90.8157 128.281 92.1617 112.509 91.1783 101.252C90.1949 89.9945 89.5209 81.1222 89.5209 81.1222L86.1058 83.0417L83.4168 75.6226L80.3121 82.7819L75.344 78.9943C75.344 78.9943 76.8959 96.3743 75.4997 105.92C74.1025 115.466 70.8943 127.867 71.2569 128.384C71.6195 128.902 75.7076 131.29 75.7076 131.29L90.8167 128.28L90.8157 128.281Z" fill="white"/>
<path d="M83.4155 75.5712L88.6417 73.1844L89.5216 81.1222L86.1587 83.0417L83.4165 75.5712H83.4155Z" fill="white"/>
<path d="M83.4154 75.5712L80.3629 82.7829L75.3948 78.9953L73.2212 69.708L75.653 66.4401L83.4144 75.5712H83.4154Z" fill="white"/>
<path d="M88.642 73.1845L90.4008 67.8933C90.4008 67.8933 96.1965 69.8128 98.8875 63.9506C98.8875 63.9506 102.147 64.1067 102.303 62.1872C102.406 60.2677 101.165 59.9566 101.165 59.9566C101.165 59.9566 102.562 55.0279 102.303 50.7217C102.096 46.4134 90.7122 43.2512 90.6077 43.3026C90.452 43.4043 86.8299 49.4246 86.8299 49.4246L79.4301 49.0097C79.4301 49.0097 75.2385 53.3159 80.8785 56.2727L75.6523 66.3897L83.4138 75.5722L88.64 73.1855L88.642 73.1845Z" fill="#EDE3FF"/>
<path d="M42.9512 171.342L40.209 181.614L29.6532 179.746L27.5317 173.935L34.2586 171.081L39.2779 170.044L42.9512 171.341V171.342Z" fill="#EDE3FF"/>
<path d="M90.7121 23.3797C89.5741 22.3937 87.9177 21.8751 85.952 21.9265C84.1299 21.9959 82.352 22.5126 80.776 23.431C78.3442 24.9356 77.3097 27.27 77.9816 29.8118C79.5345 35.4665 84.8642 37.5935 85.0711 37.6972C85.1233 37.6972 85.2268 37.7496 85.278 37.7496H85.4337L91.126 36.0899C91.2134 36.0668 91.2917 36.0204 91.356 35.957C91.4193 35.8935 91.4655 35.814 91.4886 35.7264C91.6453 35.3115 94.5954 26.8551 90.7141 23.3787L90.7121 23.3797Z" fill="#6F46BE"/>
<path d="M88.642 73.7534H88.4863C88.417 73.7343 88.3527 73.7021 88.2965 73.6578C88.2402 73.6135 88.194 73.5581 88.1599 73.4946C88.1257 73.4312 88.1046 73.3617 88.0986 73.2902C88.0926 73.2187 88.1006 73.1472 88.1237 73.0787L89.8825 67.3716C89.9016 67.3021 89.9338 67.2377 89.9779 67.1813C90.0221 67.1249 90.0774 67.0786 90.1407 67.0443C90.204 67.0101 90.2733 66.9889 90.3446 66.9829C90.4159 66.9768 90.4872 66.9849 90.5555 67.0081C90.6891 67.0554 90.7996 67.1501 90.8669 67.2749C90.9342 67.3998 90.9523 67.5448 90.9181 67.6828L89.1593 73.3899C89.1262 73.4997 89.0569 73.5943 88.9624 73.6608C88.869 73.7262 88.7555 73.7585 88.641 73.7534H88.642Z" fill="#6F46BE"/>
<path d="M96.5589 56.5406C96.8693 55.8014 95.8618 54.6694 94.3079 54.0128C92.754 53.3562 91.2423 53.4237 90.9319 54.1629C90.6205 54.9021 91.629 56.034 93.1829 56.6906C94.7368 57.3472 96.2485 57.2798 96.5589 56.5406Z" fill="white"/>
<path d="M94.541 53.469C93.7916 53.1346 92.981 52.9584 92.1604 52.9503C91.2805 53.0027 90.712 53.3139 90.4528 53.8839C90.2459 54.4549 90.4006 55.1286 90.9701 55.752C91.5407 56.3522 92.2277 56.8286 92.9881 57.1529C93.6922 57.461 94.4466 57.6373 95.213 57.6715C96.1441 57.6715 96.8171 57.3603 97.1274 56.7379C97.5413 55.7007 96.4032 54.2998 94.54 53.469H94.541ZM91.7988 55.0259C91.4884 54.7147 91.4362 54.4549 91.4884 54.3512C91.5407 54.2475 91.7988 54.1437 92.2126 54.1437H92.3161C92.9399 54.1689 93.5546 54.3089 94.1271 54.5586C94.2517 54.6009 94.3732 54.6533 94.4887 54.7147C94.3029 54.7127 94.1201 54.7661 93.9634 54.8678C93.8067 54.9695 93.6842 55.1145 93.6088 55.2857C93.5566 55.463 93.5486 55.6493 93.5847 55.8306C93.6209 56.0118 93.7002 56.181 93.8158 56.324C93.6912 56.2817 93.5697 56.2294 93.4531 56.1679C92.8254 55.9132 92.2598 55.5244 91.7978 55.0279L91.7988 55.0259Z" fill="#6F46BE"/>
<path d="M90.4528 61.2003L93.5576 63.8459C93.5576 63.8459 91.9023 64.8832 90.6085 63.8982C89.5217 63.1198 90.4528 61.2003 90.4528 61.2003Z" fill="white"/>
<path d="M91.8499 64.8832C91.2753 64.8791 90.7149 64.6979 90.2458 64.3645C89.1077 63.5347 89.5728 61.8227 89.9866 60.9405C90.0198 60.8649 90.07 60.7975 90.1323 60.7431C90.1945 60.6887 90.2689 60.6504 90.3492 60.6293C90.4296 60.6061 90.514 60.6031 90.5953 60.6212C90.6767 60.6394 90.752 60.6776 90.8143 60.733L93.9191 63.3786C93.9884 63.435 94.0426 63.5065 94.0788 63.5871C94.1149 63.6676 94.131 63.7562 94.126 63.8449C94.126 63.9315 94.1019 64.0161 94.0557 64.0896C94.0105 64.1631 93.9452 64.2215 93.8668 64.2598C93.2692 64.6596 92.5681 64.8761 91.8489 64.8822L91.8499 64.8832ZM90.7118 62.1852C90.6084 62.6525 90.5562 63.2225 90.9188 63.4823C91.1518 63.6394 91.418 63.7391 91.6962 63.7754C91.9744 63.8116 92.2577 63.7814 92.5229 63.6898L90.7118 62.1852Z" fill="#6F46BE"/>
<path d="M104.32 52.6915C102.457 52.0168 100.336 52.8476 98.9394 54.611C98.8831 53.8013 98.6229 53.0188 98.185 52.335C97.7471 51.6522 97.1444 51.0913 96.4322 50.7036C95.7211 50.3159 94.9225 50.1144 94.1129 50.1175C93.3033 50.1205 92.5068 50.3279 91.7977 50.7217C90.528 51.4357 89.5537 52.5798 89.0515 53.9494C88.5482 55.319 88.5502 56.8236 89.0555 58.1922C89.2895 58.8498 89.6662 59.447 90.1584 59.9405C90.6506 60.4339 91.2462 60.8116 91.9011 61.0462C92.4124 61.2497 92.9558 61.3554 93.5052 61.3574C95.6789 61.3574 97.7481 59.8528 98.628 57.5184C98.6802 57.3623 98.7314 57.2586 98.7837 57.1035C98.857 57.0814 98.9233 57.0411 98.9775 56.9867C99.0318 56.9323 99.0719 56.8659 99.094 56.7923C99.9739 54.4579 102.147 53.0571 103.958 53.7319C105.769 54.4066 106.545 56.8447 105.716 59.2305C105.043 60.9939 103.595 62.291 102.094 62.4471C101.945 62.4632 101.806 62.5367 101.71 62.6535C101.613 62.7693 101.566 62.9194 101.577 63.0694C101.579 63.1419 101.595 63.2124 101.625 63.2779C101.655 63.3434 101.698 63.4028 101.751 63.4511C101.804 63.4995 101.866 63.5367 101.935 63.5609C102.003 63.584 102.074 63.5941 102.147 63.5891H102.199C104.166 63.3816 105.977 61.8771 106.753 59.6464C107.788 56.74 106.701 53.5747 104.321 52.6936L104.32 52.6915ZM97.5411 57.1529C96.6612 59.4873 94.2817 60.7844 92.2115 60.0583C91.7163 59.87 91.2663 59.5779 90.8916 59.2023C90.517 58.8266 90.2257 58.3755 90.0378 57.879C89.624 56.7752 89.624 55.5587 90.0378 54.4549C90.4507 53.3401 91.2372 52.4045 92.2627 51.8093C92.8222 51.5153 93.442 51.3562 94.0738 51.3421C94.4966 51.335 94.9175 51.4055 95.3153 51.5495C97.4367 52.2766 98.42 54.7671 97.5401 57.1529H97.5411Z" fill="#6F46BE"/>
<path d="M82.2774 36.4021C82.1117 36.4001 81.949 36.3558 81.8043 36.2743C81.6597 36.1927 81.5381 36.0759 81.4497 35.9349C81.3272 35.7194 81.291 35.4656 81.3483 35.2249C81.4056 34.9842 81.5532 34.7737 81.7601 34.6378C81.967 34.536 86.6237 31.7847 91.9544 32.0435C92.2015 32.0576 92.4325 32.1684 92.5982 32.3537C92.763 32.539 92.8483 32.7817 92.8343 33.0295C92.8212 33.2772 92.7097 33.5088 92.5249 33.675C92.3401 33.8412 92.098 33.9258 91.8509 33.9117C87.0386 33.7042 82.6923 36.2461 82.6923 36.2984C82.5888 36.2984 82.4341 36.4021 82.2784 36.4021H82.2774Z" fill="white"/>
<path d="M102.51 37.7506C100.388 35.6237 96.4034 33.2369 89.6254 34.0154C84.7095 34.5864 81.2432 36.5059 79.3287 39.7225C77.0516 43.6138 77.828 48.0238 78.6045 49.8395C77.9214 50.7086 77.5729 51.7953 77.6211 52.9C77.6211 54.8719 79.0183 56.0129 80.1563 56.5839L74.9301 66.1299C74.8588 66.2619 74.8408 66.4159 74.8789 66.56C74.9171 66.704 75.0095 66.8288 75.1371 66.9074C75.2144 66.9547 75.3058 66.9729 75.3962 66.9598C75.5017 66.9557 75.6041 66.9245 75.6945 66.8701C75.7849 66.8157 75.8603 66.7392 75.9135 66.6486L81.4501 56.5315C81.4882 56.46 81.5083 56.3795 81.5083 56.2979C81.5083 56.2163 81.4882 56.1357 81.4501 56.0642C81.4169 55.9887 81.3667 55.9212 81.3044 55.8669C81.2412 55.8125 81.1678 55.7742 81.0875 55.7531C80.984 55.7531 78.7069 55.027 78.7069 52.9C78.6808 51.9393 79.0344 51.0067 79.6893 50.3058C79.9474 50.05 80.2558 49.8486 80.5933 49.7157C80.9308 49.5817 81.2924 49.5183 81.656 49.5283C83.1567 49.5807 84.0878 51.1366 84.2435 51.4478C84.813 54.0934 86.1068 54.3532 86.3649 54.4046H86.4684C87.2448 54.4046 87.7621 53.3149 88.641 51.3441C89.5209 49.4246 90.8659 46.5192 92.0562 46.5192C93.2464 46.5192 94.3845 47.8163 95.4713 49.1134C96.6616 50.4619 97.9031 51.8627 99.456 52.1739C100.238 52.3461 101.047 52.3643 101.837 52.2263C101.842 54.8114 101.386 57.3765 100.491 59.8015C98.8865 58.5567 99.0934 57.5184 99.1446 57.4671C99.1727 57.3996 99.1858 57.3261 99.1828 57.2526C99.1798 57.1791 99.1597 57.1076 99.1245 57.0431C99.0894 56.9787 99.0412 56.9223 98.9819 56.879C98.9226 56.8357 98.8543 56.8064 98.783 56.7924C98.6394 56.7521 98.4847 56.7662 98.3511 56.8336C98.2175 56.9011 98.113 57.0159 98.0588 57.1549C98.0066 57.2586 97.2301 59.6968 101.37 61.6686C101.63 61.8247 101.784 61.9798 101.784 62.1872C101.784 62.3947 101.629 62.5508 101.37 62.7059C100.439 63.1722 98.6283 62.9133 97.5927 61.5125C97.5104 61.3886 97.3818 61.303 97.2371 61.2738C97.0915 61.2446 96.9408 61.2738 96.8173 61.3574C96.6937 61.441 96.6084 61.5689 96.5792 61.7139C96.5501 61.8599 96.5802 62.011 96.6626 62.1349C97.1367 62.7421 97.7374 63.2376 98.4214 63.5881C97.8519 64.7815 96.1965 67.272 92.7814 67.272C92.0762 67.2659 91.3771 67.143 90.7112 66.9084C90.6589 66.9084 90.6077 66.856 90.5555 66.856C90.5163 66.852 90.4792 66.8339 90.452 66.8047C89.0629 66.28 87.8706 65.3374 87.0369 64.1067C87.0369 64.0997 87.0359 64.0936 87.0329 64.0866C87.0308 64.0805 87.0268 64.0745 87.0218 64.0695C87.0168 64.0644 87.0118 64.0604 87.0047 64.0584C86.9987 64.0554 86.9917 64.0544 86.9846 64.0544L86.9324 64.002C86.9254 64.002 86.9194 64.001 86.9123 63.998C86.9063 63.9959 86.9003 63.9919 86.8952 63.9869C86.8902 63.9818 86.8862 63.9768 86.8842 63.9698C86.8812 63.9637 86.8802 63.9567 86.8802 63.9496H86.4141C86.0093 64.149 85.6819 64.4773 85.483 64.8832C85.268 65.4552 85.2871 66.0886 85.5352 66.6466C85.7421 67.2176 86.3137 67.7362 86.8812 68.3062C88.0715 69.4472 88.8479 70.3818 88.64 71.6265L88.4843 72.1452C88.4562 72.2127 88.4431 72.2862 88.4461 72.3597C88.4491 72.4332 88.4692 72.5047 88.5044 72.5692C88.5395 72.6336 88.5878 72.69 88.647 72.7333C88.7063 72.7766 88.7746 72.8058 88.8469 72.8199C88.8991 72.8199 88.9504 72.8723 89.0538 72.8723C89.1663 72.8703 89.2758 72.835 89.3682 72.7706C89.4606 72.7061 89.5309 72.6145 89.5711 72.5097C89.6234 72.3023 89.7268 72.0948 89.778 71.8874L90.9161 68.2035C91.575 68.3727 92.253 68.4603 92.934 68.4633C97.1256 68.4633 99.0401 65.3505 99.6609 64.001C99.9341 64.0443 100.211 64.0614 100.489 64.0533C101.006 64.0664 101.519 63.9597 101.989 63.7422C102.294 63.6263 102.556 63.4199 102.741 63.152C102.925 62.8831 103.025 62.5649 103.025 62.2386C103.025 61.9123 102.926 61.5931 102.741 61.3242C102.556 61.0553 102.294 60.8498 101.989 60.734C101.847 60.6756 101.708 60.6061 101.575 60.5266C102.559 58.1398 103.076 55.3371 103.076 51.9665C103.397 51.8134 103.709 51.6402 104.007 51.4478C105.353 50.4619 106.129 48.906 106.388 46.8828C106.44 44.496 105.404 40.657 102.507 37.7516L102.51 37.7506Z" fill="#6F46BE"/>
<path d="M104.201 59.7572C104.512 59.018 103.504 57.886 101.95 57.2294C100.396 56.5728 98.8841 56.6403 98.5737 57.3795C98.2634 58.1187 99.2708 59.2506 100.825 59.9072C102.379 60.5638 103.89 60.4963 104.201 59.7572Z" fill="white"/>
<path d="M102.148 56.7379C101.398 56.4036 100.588 56.2274 99.767 56.2193C98.8871 56.2717 98.3186 56.5828 98.0594 57.1529C97.5934 58.1901 98.7324 59.591 100.595 60.4218C101.299 60.73 102.053 60.9062 102.82 60.9405H102.975C103.855 60.8891 104.425 60.5779 104.683 60.0069C105.148 58.9172 104.062 57.5164 102.148 56.7389V56.7379ZM99.095 57.5678C99.1473 57.464 99.4054 57.3603 99.8193 57.3603H99.9227C100.546 57.3855 101.161 57.5255 101.734 57.7752C101.858 57.8175 101.98 57.8699 102.095 57.9303C101.91 57.9293 101.727 57.9827 101.57 58.0834C101.413 58.1841 101.29 58.3301 101.215 58.5013C101.163 58.6786 101.155 58.8649 101.191 59.0461C101.228 59.2264 101.307 59.3956 101.422 59.5386C101.298 59.4963 101.176 59.4439 101.061 59.3825C99.6636 58.7591 98.9906 57.8769 99.094 57.5668L99.095 57.5678Z" fill="#6F46BE"/>
<path d="M82.6913 50.617C82.0706 50.5304 81.4378 50.6391 80.8803 50.9282C80.7226 51.0017 80.581 51.1074 80.4664 51.2393C79.9491 51.759 79.7422 52.4861 79.8457 53.4186C79.8577 53.5617 79.923 53.6946 80.0285 53.7903C80.134 53.8869 80.2726 53.9393 80.4152 53.9373H80.4674C80.5398 53.9292 80.6091 53.9061 80.6724 53.8698C80.7356 53.8336 80.7909 53.7852 80.8341 53.7268C80.8773 53.6684 80.9084 53.6019 80.9255 53.5314C80.9426 53.461 80.9456 53.3874 80.9325 53.3149C80.8953 53.0027 80.9124 52.6865 80.9847 52.3814L81.6055 53.5224C81.6537 53.6181 81.728 53.6976 81.8195 53.753C81.9109 53.8084 82.0163 53.8366 82.1228 53.8346C82.2122 53.8426 82.3026 53.8245 82.3819 53.7822C82.5115 53.7057 82.6059 53.5818 82.6451 53.4358C82.6843 53.2897 82.6642 53.1347 82.5889 53.0037L81.9159 51.759C82.1047 51.7318 82.2966 51.7318 82.4854 51.759C82.5577 51.7751 82.6321 51.7751 82.7044 51.759C82.7767 51.7439 82.844 51.7127 82.9033 51.6684C82.9625 51.624 83.0107 51.5677 83.0459 51.5022C83.081 51.4367 83.1021 51.3652 83.1062 51.2917C83.1283 51.2202 83.1343 51.1447 83.1242 51.0702C83.1152 50.9956 83.0891 50.9251 83.0509 50.8607C83.0117 50.7972 82.9595 50.7419 82.8972 50.7006C82.836 50.6583 82.7657 50.6301 82.6923 50.617H82.6913Z" fill="#6F46BE"/>
<path d="M176.04 77.8543C175.833 77.5944 175.678 77.388 173.452 78.1655C173.601 77.7485 173.619 77.2963 173.505 76.8683C173.464 76.6297 173.354 76.4091 173.188 76.2329C173.022 76.0577 172.809 75.9358 172.572 75.8824C172.366 75.8301 172.159 75.8301 169.415 77.5421C169.415 77.535 169.416 77.529 169.419 77.5219C169.422 77.5149 169.426 77.5099 169.431 77.5048C169.436 77.4998 169.441 77.4968 169.448 77.4937C169.455 77.4907 169.461 77.4897 169.468 77.4897C169.564 77.2853 169.619 77.0647 169.629 76.8391C169.639 76.6136 169.605 76.388 169.529 76.1755C169.452 75.963 169.334 75.7686 169.181 75.6025C169.029 75.4363 168.845 75.3023 168.64 75.2077C168.53 75.1593 168.408 75.1432 168.288 75.1614C168.169 75.1795 168.057 75.2318 167.967 75.3114L166.156 77.2309C165.761 76.7243 165.187 76.39 164.552 76.2973C164.449 76.2853 164.347 76.3034 164.255 76.3497C164.162 76.396 164.086 76.4685 164.035 76.5572C162.378 79.2551 159.688 83.6127 159.378 83.9763C159.326 84.0286 159.326 84.08 159.274 84.1324C158.55 84.4435 158.033 84.7547 157.67 84.9108C155.394 86.1556 148.977 91.8113 148.305 92.3813C147.063 93.0037 144.837 94.612 141.992 96.6352C137.852 99.5919 132.316 103.536 128.019 105.663C127.708 105.818 127.449 105.921 127.139 106.077C125.638 106.752 124.344 107.167 123.413 107.167H123.259C120.154 107.011 116.014 101.305 111.978 95.8033C109.08 91.8083 106.027 87.7095 103.077 84.9602C96.5059 78.9943 90.8136 75.8814 89.5711 75.259C89.4154 73.8582 89.3642 73.0797 89.3642 73.0284V72.7706C89.3642 72.7635 89.3632 72.7575 89.3602 72.7504C89.3582 72.7444 89.3541 72.7383 89.3491 72.7333C89.3441 72.7283 89.3391 72.7252 89.3321 72.7222C89.326 72.7202 89.319 72.7182 89.312 72.7182L89.2597 72.6658L89.2075 72.6135H89.1553C89.1482 72.6135 89.1422 72.6125 89.1352 72.6094C89.1292 72.6074 89.1231 72.6034 89.1181 72.5984C89.1131 72.5933 89.1101 72.5883 89.1071 72.5812C89.105 72.5752 89.103 72.5681 89.103 72.5611H88.637L83.7734 74.7918L76.0632 65.9728C76.0069 65.9043 75.9366 65.849 75.8552 65.8127C75.7739 65.7764 75.6865 65.7603 75.5971 65.7654C75.5127 65.7724 75.4304 65.7986 75.358 65.8439C75.2857 65.8892 75.2254 65.9507 75.1833 66.0242L73.2165 68.9809C71.1463 68.9286 59.7106 68.8249 50.0347 73.9619C39.1182 79.7717 22.8189 94.0389 22.6632 109.603C22.5597 120.446 30.9942 127.969 38.1871 132.378L33.9955 143.533C33.9493 143.652 33.9442 143.783 33.9814 143.906C34.0186 144.029 34.0969 144.135 34.2024 144.207C34.2024 144.207 34.9788 144.726 36.1169 145.452C35.4961 146.697 34.9266 147.89 34.4093 149.031C33.1678 151.78 32.546 155.723 32.754 159.252C32.8484 161.227 33.2682 163.172 33.9955 165.01C29.1319 168.434 18.11 171.132 13.9184 172.17C13.6562 172.226 13.3971 172.296 13.1419 172.377C10.6579 172.999 9.20948 173.882 8.79564 175.023C8.6751 175.354 8.64497 175.712 8.70926 176.058C8.77254 176.404 8.92823 176.728 9.15825 176.995C10.0894 178.239 14.1775 178.707 20.8532 179.329C21.8877 179.433 22.9233 179.536 23.9057 179.64C30.2187 180.261 37.7732 181.612 39.8434 181.975C39.3784 185.295 39.2227 187.837 39.2227 188.044C39.2207 188.187 39.2729 188.326 39.3693 188.432C39.4657 188.538 39.5973 188.603 39.74 188.615C40.0503 188.668 68.2003 191.728 79.9464 193.647L80.7741 193.804C88.7947 195.153 99.454 196.916 108.043 196.916C112.907 196.916 117.098 196.345 119.789 194.841C123.67 192.662 126.62 187.733 127.499 182.027C127.922 179.127 127.817 176.174 127.189 173.311H129C142.195 173.311 149.75 170.043 152.803 163.142C154.432 159.223 154.847 154.902 153.993 150.742C153.217 146.851 150.836 141.56 144.109 138.447C138.52 135.853 129.414 133.466 121.807 131.806C125.843 131.65 129.362 130.82 132.053 129.212C136.295 126.67 141.574 121.534 147.731 113.907C152.13 108.46 155.389 103.688 155.7 103.272C158.391 100.366 161.185 97.7722 161.65 97.3572C162.478 97.0461 169.308 96.0601 175.414 95.334C175.486 95.326 175.556 95.3028 175.619 95.2666C175.682 95.2303 175.738 95.181 175.781 95.1236C175.824 95.0651 175.855 94.9987 175.872 94.9282C175.889 94.8577 175.892 94.7842 175.879 94.7117C175.621 92.481 173.706 92.2212 171.998 92.0137C169.98 91.7539 167.911 91.4427 167.082 88.7448C165.944 85.4244 170.239 83.2975 173.395 81.6892C174.068 81.3256 174.741 81.0145 175.258 80.7033C176.035 80.237 176.449 79.7174 176.552 79.095C176.47 78.6478 176.294 78.2239 176.036 77.8492L176.04 77.8543ZM172.314 77.0244C172.38 77.1342 172.415 77.2601 172.418 77.388C172.428 77.4645 172.418 77.5421 172.392 77.6146C172.365 77.6871 172.32 77.7515 172.263 77.8029L171.125 78.8926L171.022 78.9963C169.987 79.4112 168.744 79.9298 167.193 80.5522C166.623 80.7597 166.055 81.0195 165.485 81.2783C168.59 79.3588 171.488 77.4907 172.315 77.0244H172.314ZM168.382 76.4001C168.434 76.5551 168.538 76.7112 168.382 76.9187C168.02 77.6448 166.415 79.2017 165.743 79.7717C165.122 80.1353 164.553 80.5502 163.984 80.9127L168.383 76.399L168.382 76.4001ZM164.708 77.4897C164.828 77.5129 164.94 77.5693 165.031 77.6518C165.122 77.7344 165.19 77.8402 165.225 77.957C165.225 77.9919 165.242 78.0265 165.277 78.0607L162.69 80.7587C163.517 79.4112 164.294 78.1141 164.708 77.4917V77.4897ZM92.2641 92.483C92.4188 93.2615 93.1952 93.7277 93.9194 94.1427C95.0575 94.8174 95.5748 95.1799 95.3166 95.9584C95.0444 96.7258 94.7159 97.471 94.3332 98.1891C93.2203 100.423 92.3022 102.748 91.5911 105.141C91.126 94.6613 90.2461 84.2854 89.6766 78.3185C92.5744 83.7134 95.2132 89.1093 95.2654 90.0952C95.0585 90.3541 94.4889 90.5102 94.0239 90.6662C93.2997 90.9281 92.0571 91.2906 92.2651 92.484V92.482L92.2641 92.483ZM91.9015 120.446C95.1619 123.87 99.9221 126.88 105.355 128.955C100.752 128.446 96.1162 128.272 91.4876 128.437C91.6433 126 91.798 123.303 91.9015 120.449V120.447V120.446ZM88.1759 74.0163C88.2794 75.1573 88.5375 77.4917 88.8489 80.657L86.4171 82.1615L84.14 75.8834L88.1759 74.0153V74.0163ZM83.2601 86.5191C83.2601 85.3781 83.3123 84.2371 83.4158 83.0437C83.468 81.9027 83.5715 80.7093 83.6739 79.5673C83.7262 79.101 83.7262 78.5814 83.7774 78.1151L85.6407 83.2512C85.6718 83.3338 85.721 83.4093 85.7833 83.4717C85.8456 83.5342 85.9209 83.5825 86.0033 83.6137C86.0555 83.6137 86.1067 83.6661 86.159 83.6661C86.2624 83.6661 86.3659 83.6137 86.4693 83.6137L89.0046 82.0054C90.0914 93.9896 91.6433 115.624 90.3506 128.542C86.4814 128.741 82.6283 129.174 78.8114 129.839C78.6065 128.902 78.502 127.946 78.501 126.986C78.5422 125.862 78.7169 124.749 79.0183 123.666C79.3206 122.568 79.7003 121.493 80.1563 120.449C80.6224 119.36 81.1397 118.374 81.657 117.337L83.3133 114.224C83.8758 113.164 84.3761 112.073 84.814 110.955C85.2911 109.822 85.6377 108.638 85.8486 107.427C86.0726 106.195 86.1419 104.941 86.0555 103.692C85.949 102.475 85.706 101.274 85.3313 100.112C84.9687 98.9706 84.6071 97.8296 84.2445 96.7399C84.0888 96.1689 83.8819 95.6503 83.7784 95.0782C83.7262 94.8194 83.6227 94.5072 83.5715 94.2484C83.5193 93.9372 83.468 93.6774 83.4158 93.4186C83.2521 92.2846 83.1657 91.1406 83.1566 89.9945C83.2089 88.8032 83.2089 87.6611 83.2601 86.5201V86.5191ZM84.1912 135.65L87.7611 136.013C89.6244 136.324 91.7458 136.844 93.4011 137.725C96.4024 139.384 99.8176 143.794 100.852 147.115C98.6022 145.945 96.2869 144.906 93.9184 144.002H93.6593C93.6244 144.002 93.59 144.019 93.5558 144.054C91.2275 145.195 85.484 144.78 82.2215 144.418H82.1693L80.5139 144.21C81.5505 140.631 83.5685 136.74 84.1892 135.65H84.1912ZM78.9138 145.715L73.9458 144.418C74.5665 142.55 76.7402 136.376 79.3277 133.731L83.1054 135.287C82.2255 136.946 79.7937 141.72 78.9138 145.715ZM84.3992 103.795C84.4594 104.889 84.3901 105.987 84.1922 107.064C84.0024 108.162 83.7081 109.24 83.3123 110.281C82.8985 111.318 82.4847 112.408 82.0186 113.446C81.5525 114.485 81.0352 115.521 80.5179 116.61C79.4833 118.737 78.4477 120.919 77.8792 123.251C77.5518 124.417 77.378 125.621 77.3619 126.831C77.3368 127.878 77.4413 128.924 77.6723 129.944L75.344 130.41C74.3094 129.839 73.1191 129.166 71.9288 128.491C73.3783 122.525 74.5163 116.558 75.3962 111.007V110.851C76.1767 106.077 76.6779 101.262 76.8969 96.4287C77.1751 90.9704 76.933 85.499 76.1727 80.087L80.2608 83.4073C80.3703 83.4727 80.4958 83.508 80.6234 83.511H80.7781C80.8655 83.4878 80.9438 83.4425 81.0081 83.3781C81.0724 83.3136 81.1176 83.2351 81.1407 83.1474L82.4867 79.5673C82.2798 80.6569 82.1241 81.7466 81.9694 82.8363C81.8137 84.0296 81.7102 85.223 81.659 86.364C81.6078 87.5594 81.659 88.7578 81.8147 89.9442L81.9182 90.8264L82.0738 91.7086C82.1261 92.0198 82.1773 92.2796 82.2295 92.5908C82.2818 92.9019 82.333 93.1618 82.3852 93.473C82.5921 94.6663 82.9025 95.8074 83.1617 96.9484C83.7302 99.3351 84.2997 101.618 84.4032 103.796L84.3992 103.795ZM75.4474 67.3243L82.795 75.677L80.4145 82.0588L75.9637 78.4787C75.5147 75.5038 74.8227 72.5722 73.8935 69.7111L75.4464 67.3243H75.4474ZM73.4807 72.3567C74.5675 76.248 76.3263 84.6017 75.7578 96.4287C75.6544 99.2818 75.344 102.447 74.9291 105.819C73.998 102.498 72.187 99.3341 70.9967 97.3109C70.622 96.7147 70.2936 96.0903 70.0133 95.4428C70.0133 95.183 70.7898 94.5606 71.2548 94.1457C72.0825 93.4709 73.0136 92.6935 73.1181 91.7589C73.1462 91.5857 73.1382 91.4085 73.093 91.2383C73.0478 91.0681 72.9684 90.91 72.8589 90.773C72.3417 90.1506 71.3583 90.0983 70.3217 90.0983C69.9571 90.1003 69.5924 90.065 69.2349 89.9945C69.1826 89.631 69.5975 88.3862 69.9591 87.2442C70.3729 86.0508 70.839 84.5986 71.305 82.8342C72.2804 79.3981 73.0076 75.8955 73.4797 72.3546L73.4807 72.3567ZM32.9127 127.505C26.6509 122.214 23.4949 116.196 23.5461 109.71C23.5983 101.254 28.7221 93.7308 33.0151 88.8545C37.7763 83.4073 44.244 78.2712 50.2978 75.0546C59.353 70.2297 70.0645 70.1784 72.652 70.2297C72.1689 74.4171 71.3734 78.5612 70.2715 82.6288C69.8064 84.3408 69.3403 85.794 68.9265 86.935C68.6211 87.7447 68.3781 88.5776 68.2023 89.4255C68.0466 90.3077 68.2545 90.8787 68.823 91.0852C69.3122 91.2201 69.8164 91.2896 70.3237 91.2926C70.8932 91.2926 71.8244 91.345 72.0313 91.6038V91.7076C71.979 92.1738 71.2036 92.8486 70.5828 93.3159C69.7029 94.042 68.8753 94.7167 68.9787 95.5465C69.031 95.9614 69.3413 96.5324 70.1168 97.8809C71.8244 100.838 74.9804 106.285 74.3084 110.747C73.4807 116.195 72.3417 122.058 70.9445 127.971C69.4016 127.066 67.9321 126.043 66.5459 124.911C65.8217 124.34 64.9418 123.614 63.9072 122.784C59.5087 119.205 53.6095 114.327 50.0397 112.77C50.7127 111.629 52.3168 109.035 53.9209 106.337C58.216 98.9706 57.9568 98.4519 57.8021 98.036C57.6504 97.7409 57.4204 97.4922 57.1372 97.319C56.8549 97.1458 56.5295 97.0521 56.198 97.0511C55.4648 97.0229 54.7365 97.185 54.0836 97.5204C53.4307 97.8567 52.8763 98.3563 52.4715 98.9706C51.9512 99.8648 51.5514 100.825 51.2812 101.824C50.6082 103.898 49.9874 105.87 47.4522 106.337C47.0896 106.39 46.728 106.493 46.3141 106.545C42.7433 107.167 38.3458 107.946 36.9486 109.916C36.7527 110.191 36.6151 110.504 36.5438 110.834C36.4725 111.164 36.4695 111.505 36.5347 111.836C36.9998 114.638 41.3983 115.053 45.5899 115.416C46.7872 115.483 47.9795 115.62 49.1598 115.831C51.8768 116.377 54.4834 117.376 56.87 118.788L58.4741 119.825C60.1315 121.122 61.7346 122.471 63.1308 123.613C64.1654 124.442 65.0453 125.17 65.7695 125.74C67.3857 127.029 69.0983 128.191 70.8922 129.216C70.8992 129.216 70.9053 129.217 70.9123 129.22C70.9183 129.222 70.9244 129.226 70.9294 129.231C70.9344 129.236 70.9374 129.241 70.9404 129.248C70.9434 129.254 70.9445 129.261 70.9445 129.268C72.4973 130.203 74.0492 131.084 75.343 131.759C75.35 131.759 75.356 131.76 75.3631 131.763C75.3701 131.766 75.3751 131.769 75.3801 131.774C75.3852 131.779 75.3892 131.784 75.3912 131.791C75.3942 131.797 75.3952 131.804 75.3952 131.811H75.4474C76.5855 132.434 77.5688 132.901 78.1896 133.212C75.4987 136.221 73.3772 142.239 72.7565 144.107C69.7039 143.173 54.386 138.607 47.6079 136.014C45.1771 135.079 38.6049 132.33 32.9137 127.505H32.9127ZM34.9306 143.588L38.8631 133.056C41.559 134.636 44.3796 135.989 47.2975 137.102C51.9542 138.866 60.5443 141.565 66.4947 143.38C65.8217 145.352 65.201 146.96 64.6837 148.205C63.6491 150.54 62.2519 152.044 60.3374 152.77C58.8367 153.341 57.0779 153.393 55.2146 153.082C53.955 152.845 52.7115 152.533 51.4891 152.148C49.3858 151.43 47.3286 150.581 45.3318 149.604C41.6062 147.894 36.3791 144.521 34.9306 143.588ZM41.7097 171.551C40.881 172.589 38.9665 175.443 37.9842 180.579C36.2766 180.268 33.7413 179.853 30.9992 179.438C30.958 178.748 30.725 178.082 30.3262 177.518C29.8611 176.688 29.6532 176.221 30.0158 175.495C30.6366 174.25 35.9662 171.864 39.2779 170.619C40.0594 171.001 40.874 171.314 41.7097 171.552V171.551ZM126.157 181.98C125.33 187.271 122.535 191.993 119.017 193.964C111.876 198.01 92.4198 194.742 80.7771 192.823L79.9494 192.667C69.0832 190.851 44.1937 188.102 40.209 187.634C40.3647 185.56 40.9855 177.726 43.3138 172.019C45.6452 172.661 48.0117 173.164 50.4033 173.523C53.1455 176.272 57.1301 177.726 62.7179 177.984C67.1165 178.192 72.4973 177.622 79.1207 176.221C86.2614 174.769 94.1786 175.91 101.475 179.49C102.303 179.853 105.407 181.306 108.046 181.306C109.184 181.306 110.168 181.046 110.944 180.372C111.254 180.112 111.502 179.786 111.673 179.419C111.843 179.051 111.93 178.65 111.927 178.245C111.89 177.834 111.759 177.439 111.544 177.087C111.328 176.736 111.034 176.44 110.686 176.221C104.632 172.071 83.4168 172.486 71.7731 173.419C63.9594 174.042 51.1787 173.108 43.2616 170.825C43.2268 170.825 43.1923 170.808 43.1581 170.773C41.9779 170.43 40.8198 170.016 39.6918 169.528C39.6847 169.528 39.6777 169.527 39.6717 169.524C39.6656 169.522 39.6596 169.518 39.6546 169.513C39.6496 169.508 39.6455 169.503 39.6435 169.496C39.6405 169.49 39.6395 169.483 39.6395 169.476C38.8872 169.121 38.176 168.687 37.5181 168.179C32.9649 164.391 33.0171 155.312 35.1375 150.072C41.5671 152.826 48.4818 154.255 55.4738 154.275H55.526C56.194 154.378 56.869 154.43 57.544 154.43C58.7081 154.452 59.8653 154.259 60.9591 153.859C63.1328 153.029 64.8404 151.265 65.9784 148.67C66.6825 147.042 67.3043 145.38 67.8417 143.689C70.9977 144.675 73.2226 145.297 73.2748 145.349L79.3307 146.905C79.625 147.035 79.9414 147.106 80.2618 147.113C80.527 147.102 80.7891 147.049 81.0382 146.957C81.7132 146.702 82.2677 146.202 82.5911 145.556C84.1953 145.711 86.3167 145.918 88.3869 145.918C90.5595 145.918 92.6297 145.711 94.0269 145.14C95.6822 145.762 106.911 150.172 116.796 159.251L120.056 162.468C122.845 165.407 124.871 168.988 125.956 172.896C125.953 172.924 125.956 172.952 125.964 172.979C125.973 173.007 125.988 173.031 126.007 173.051C126.517 176.001 126.568 179.012 126.159 181.977L126.157 181.98ZM123.62 133.576C123.694 133.584 123.767 133.566 123.827 133.523C135.677 136.273 141.319 138.556 143.49 139.542C149.751 142.498 151.976 147.427 152.701 151.058C153.632 155.676 152.754 160.137 151.563 162.784C148.562 169.58 140.645 172.59 126.622 172.277C125.623 168.803 123.893 165.583 121.55 162.835C122.789 162.953 124.032 163.004 125.276 162.991C127.144 162.985 129.01 162.863 130.864 162.628C135.521 162.005 138.264 159.462 138.833 157.336C139.012 156.722 139.003 156.069 138.81 155.458C138.616 154.848 138.246 154.31 137.746 153.912C135.314 151.941 132.261 153.756 129.57 155.366C128.742 155.832 127.966 156.299 127.189 156.663C124.291 158.064 118.289 158.167 117.047 158.22C112.503 154.148 107.482 150.646 102.094 147.791C101.421 144.108 97.437 138.713 93.8662 136.689C92.3263 135.921 90.6901 135.362 89.0026 135.029C88.6922 134.199 88.6922 133.473 89.106 132.798C89.779 131.657 91.5901 130.723 94.28 130.153C95.6099 129.866 96.9589 129.675 98.3159 129.582H98.5228C99.8166 129.478 101.214 129.738 103.076 130.515C103.593 130.723 104.059 130.93 104.577 131.137C105.593 131.637 106.65 132.053 107.734 132.382C109.275 132.793 110.852 133.054 112.443 133.161C115.702 133.472 118.549 133.576 121.187 133.576C122.068 133.627 122.844 133.576 123.62 133.576ZM131.331 128.335C126.778 131.085 119.275 131.551 111.358 129.632C103.493 127.712 96.3 123.77 92.1606 119.049C92.1084 118.996 92.0049 118.945 91.9537 118.892C92.0059 116.143 91.9537 113.289 91.9015 110.332C92.3153 105.404 94.2298 101.409 95.4713 98.7107C95.859 97.9343 96.2046 97.1377 96.5059 96.324C97.0232 94.612 95.5748 93.7298 94.5914 93.2111C94.1263 92.9523 93.5046 92.5888 93.4533 92.3289C93.4011 92.1215 93.7637 91.9664 94.5402 91.7579C95.2644 91.5505 96.0931 91.2906 96.4547 90.6169C96.6616 90.2533 96.9207 89.6833 93.1952 82.4193C92.2118 80.4475 91.125 78.528 90.452 77.1795C94.6959 79.6791 98.6675 82.6177 102.302 85.9471C105.251 88.645 108.201 92.6915 111.098 96.6342C111.305 96.9453 111.564 97.2565 111.771 97.5677C112.805 99.4872 115.341 104.883 114.875 107.165C114.514 108.825 113.685 110.122 112.961 111.212C111.978 112.716 111.046 114.117 112.34 115.622C112.487 115.792 112.671 115.927 112.877 116.017C113.082 116.108 113.306 116.149 113.53 116.141C115.031 116.141 117.412 114.378 120.361 112.146C122.299 110.618 124.321 109.198 126.416 107.893C127.221 107.592 127.986 107.19 128.693 106.7C132.263 104.884 136.61 101.979 140.388 99.2294C140.854 100.059 141.837 101.668 143.13 103.483C145.355 106.596 147.476 108.723 149.495 109.864C144.578 116.09 137.334 124.754 131.331 128.332V128.335ZM150.065 108.985C146.029 106.806 142.2 100.321 141.216 98.5567C141.682 98.2455 142.147 97.9343 142.562 97.6231C144.943 95.9111 147.064 94.4065 148.306 93.6804C149.133 95.2887 151.876 100.217 154.36 103.07C153.788 103.9 152.236 106.131 150.065 108.985ZM175.264 79.0497C175.212 79.3095 174.954 79.5683 174.488 79.8795C173.919 80.2229 173.332 80.5341 172.729 80.813C169.417 82.4727 164.449 84.9632 165.847 89.2171C166.933 92.5898 169.676 93.0047 171.694 93.2635C173.194 93.4709 174.125 93.627 174.488 94.4569C173.35 94.613 170.814 94.9242 168.331 95.2353C161.293 96.1689 161.034 96.4287 160.776 96.6362C160.466 96.896 157.775 99.3341 155.084 102.24C152.652 99.3865 150.012 94.5092 149.237 93.057C150.634 91.8123 156.173 87.0388 158.137 85.9501C160.673 84.4969 173.143 79.2058 175.213 78.7908C175.259 78.8684 175.277 78.961 175.263 79.0507H175.265L175.264 79.0497Z" fill="#6F46BE"/>
</g>
<mask id="mask3_188_8870" style="mask-type:luminance" maskUnits="userSpaceOnUse" x="61" y="94" width="122" height="55">
<path d="M182.236 94.6341H61.7158V148.613H182.236V94.6341Z" fill="white"/>
</mask>
<g mask="url(#mask3_188_8870)">
<path d="M136.052 143.982H64.1143C63.0546 143.982 62.1958 144.84 62.1958 145.898V146.217C62.1958 147.276 63.0546 148.134 64.1143 148.134H136.052C137.111 148.134 137.97 147.276 137.97 146.217V145.898C137.97 144.84 137.111 143.982 136.052 143.982Z" fill="white"/>
<path d="M136.052 148.613H64.1144C63.4786 148.613 62.8689 148.359 62.4199 147.911C61.9699 147.462 61.7178 146.853 61.7168 146.218V145.899C61.7168 145.264 61.9699 144.655 62.4199 144.206C62.8699 143.757 63.4786 143.504 64.1144 143.504H136.052C136.688 143.504 137.297 143.758 137.746 144.206C138.195 144.654 138.448 145.265 138.449 145.899V146.218C138.449 146.854 138.196 147.462 137.746 147.911C137.296 148.36 136.687 148.613 136.052 148.613ZM64.1144 144.461C63.7327 144.461 63.3671 144.613 63.0979 144.882C62.8277 145.152 62.6761 145.517 62.6761 145.898V146.217C62.6761 146.598 62.8277 146.964 63.0979 147.234C63.3681 147.502 63.7337 147.654 64.1144 147.654H136.052C136.433 147.654 136.799 147.502 137.069 147.234C137.338 146.964 137.491 146.598 137.491 146.217V145.898C137.491 145.517 137.338 145.152 137.069 144.882C136.799 144.613 136.433 144.461 136.052 144.461H64.1144Z" fill="#6F46BE"/>
<path d="M180.205 95.1125H108.3C107.755 95.1367 107.233 95.3391 106.814 95.6865C106.394 96.034 106.101 96.5093 105.976 97.04L95.568 146.142C95.5017 146.371 95.4907 146.613 95.5369 146.848C95.5821 147.082 95.6825 147.303 95.8302 147.49C95.9778 147.678 96.1667 147.829 96.3836 147.929C96.6006 148.03 96.8377 148.077 97.0767 148.069H168.983C169.527 148.045 170.05 147.843 170.468 147.495C170.887 147.148 171.182 146.673 171.306 146.142L181.714 97.04C181.781 96.8104 181.792 96.5687 181.745 96.3341C181.7 96.0994 181.6 95.8789 181.452 95.6915C181.305 95.5042 181.116 95.3532 180.899 95.2525C180.682 95.1518 180.444 95.1044 180.206 95.1125H180.205Z" fill="white"/>
<path d="M168.983 148.549H97.0759C96.7735 148.557 96.4722 148.496 96.197 148.371C95.9218 148.245 95.6777 148.059 95.4838 147.827C95.29 147.577 95.1554 147.287 95.0891 146.979C95.0228 146.671 95.0258 146.35 95.0981 146.043L105.506 96.9413C105.651 96.3018 106.003 95.7288 106.51 95.3109C107.015 94.8929 107.645 94.6553 108.301 94.6331H180.206C180.508 94.625 180.809 94.6865 181.086 94.8114C181.362 94.9362 181.605 95.1225 181.799 95.3562C181.993 95.6059 182.127 95.896 182.194 96.2041C182.26 96.5123 182.257 96.8326 182.184 97.1397L171.775 146.242C171.631 146.88 171.278 147.453 170.773 147.871C170.268 148.289 169.638 148.527 168.983 148.549ZM108.3 95.5918C107.866 95.618 107.451 95.7822 107.117 96.0601C106.784 96.3391 106.548 96.7167 106.445 97.1387L96.0353 146.241C95.9911 146.409 95.986 146.583 96.0182 146.753C96.0513 146.923 96.1227 147.083 96.2271 147.222C96.3316 147.344 96.4622 147.44 96.6088 147.503C96.7555 147.567 96.9152 147.597 97.0749 147.59H168.983C169.417 147.565 169.832 147.401 170.165 147.122C170.5 146.843 170.735 146.465 170.837 146.043L181.245 96.9413C181.29 96.7741 181.295 96.5989 181.261 96.4287C181.228 96.2585 181.157 96.0984 181.054 95.9594C180.949 95.8386 180.819 95.7419 180.672 95.6784C180.525 95.615 180.366 95.5848 180.206 95.5918H108.301H108.3Z" fill="#6F46BE"/>
<path d="M129.679 122.046L130.463 119.441C130.541 119.066 130.746 118.728 131.043 118.487C131.341 118.244 131.712 118.111 132.096 118.11H146.876C147.026 118.11 147.174 118.145 147.309 118.21C147.445 118.275 147.564 118.369 147.657 118.486C147.75 118.602 147.818 118.738 147.852 118.884C147.887 119.03 147.888 119.182 147.857 119.329L147.073 121.933C146.995 122.308 146.79 122.646 146.493 122.888C146.195 123.13 145.823 123.263 145.439 123.264H130.659C130.509 123.264 130.361 123.23 130.226 123.164C130.091 123.099 129.971 123.005 129.878 122.889C129.784 122.772 129.717 122.636 129.683 122.49C129.649 122.344 129.647 122.193 129.679 122.046Z" fill="white"/>
<path d="M145.44 123.743H130.66C130.44 123.743 130.222 123.694 130.023 123.599C129.824 123.504 129.649 123.366 129.511 123.195C129.37 123.022 129.271 122.821 129.218 122.605C129.166 122.388 129.163 122.163 129.209 121.946C129.212 121.933 129.215 121.92 129.219 121.907L129.998 119.319C130.104 118.842 130.37 118.415 130.751 118.108C131.133 117.801 131.607 117.633 132.096 117.63H146.877C147.097 117.63 147.315 117.678 147.514 117.774C147.712 117.869 147.887 118.006 148.026 118.177C148.166 118.35 148.266 118.551 148.318 118.768C148.37 118.984 148.373 119.209 148.327 119.426C148.324 119.439 148.321 119.452 148.317 119.466L147.539 122.053C147.432 122.53 147.166 122.957 146.784 123.264C146.404 123.571 145.929 123.74 145.439 123.743H145.44ZM130.144 122.161C130.13 122.237 130.133 122.315 130.152 122.389C130.172 122.464 130.207 122.532 130.255 122.591C130.303 122.652 130.364 122.7 130.435 122.733C130.505 122.767 130.581 122.784 130.659 122.784H145.439C145.713 122.782 145.978 122.686 146.19 122.513C146.402 122.34 146.547 122.1 146.604 121.832C146.608 121.819 146.611 121.806 146.615 121.793L147.392 119.211C147.406 119.135 147.403 119.058 147.384 118.983C147.365 118.909 147.33 118.84 147.281 118.781C147.233 118.72 147.172 118.672 147.102 118.639C147.031 118.605 146.955 118.588 146.878 118.588H132.097C131.824 118.59 131.559 118.686 131.347 118.859C131.135 119.032 130.988 119.272 130.932 119.54C130.929 119.553 130.926 119.566 130.922 119.579L130.144 122.161Z" fill="#6F46BE"/>
</g>
</g>
<defs>
<clipPath id="clip0_188_8870">
<rect width="274" height="259" fill="white" transform="translate(0.5 0.5)"/>
</clipPath>
</defs>
</svg>
