<svg width="270" height="210" viewBox="0 0 270 210" fill="none" xmlns="http://www.w3.org/2000/svg">
<path d="M253.077 171.071L250.146 174.026L250.793 174.677L253.724 171.723L253.077 171.071Z" fill="#6F46BE"/>
<path d="M257.374 166.74L254.443 169.694L255.09 170.346L258.021 167.391L257.374 166.74Z" fill="#6F46BE"/>
<path d="M250.791 166.739L250.145 167.39L253.075 170.345L253.722 169.693L250.791 166.739Z" fill="#6F46BE"/>
<path d="M255.088 171.07L254.441 171.722L257.372 174.676L258.019 174.024L255.088 171.07Z" fill="#6F46BE"/>
<path d="M168.098 13.8155C166.147 13.8155 164.562 12.218 164.562 10.2518C164.562 8.28566 166.147 6.68814 168.098 6.68814C170.048 6.68814 171.633 8.28566 171.633 10.2518C171.633 12.218 170.048 13.8155 168.098 13.8155ZM168.098 7.60978C166.665 7.60978 165.477 8.7772 165.477 10.2518C165.477 11.6957 166.635 12.8939 168.098 12.8939C169.56 12.8939 170.719 11.7265 170.719 10.2518C170.719 8.80793 169.56 7.60978 168.098 7.60978Z" fill="#6F46BE"/>
<path d="M232.143 153.271C203.911 204.823 140.071 201.453 112.291 169.933C93.3019 148.392 79.6591 152.358 43.429 134.172C7.62975 116.204 -7.45292 63.3443 30.8737 35.4357C69.2004 7.52717 114.255 0.315384 161.747 15.0258C222.1 33.7213 260.379 101.72 232.143 153.271Z" fill="#EDE3FF"/>
<path d="M170.422 203.168L170.422 203.168L170.417 203.173C167.693 205.538 164.361 207.193 160.949 208.089C159.824 208.381 158.079 208.497 156.317 208.384C154.546 208.271 152.846 207.931 151.782 207.371L151.782 207.371L151.772 207.366C150.801 206.883 149.995 205.886 149.332 204.506C148.672 203.133 148.183 201.439 147.811 199.653C147.235 196.888 146.954 193.972 146.74 191.761C146.678 191.109 146.621 190.519 146.564 190.011L146.564 190.011C146.203 186.819 146.299 182.847 147.202 179.193C148.106 175.533 149.803 172.26 152.588 170.364C154.734 168.912 157.032 168.352 159.444 168.036C160.347 167.918 161.254 167.835 162.176 167.751C162.492 167.722 162.81 167.693 163.131 167.662C164.377 167.543 165.643 167.399 166.908 167.144L166.908 167.144L166.913 167.143C167.88 166.937 169.039 166.226 170.183 165.437C170.693 165.085 171.218 164.705 171.737 164.329C171.811 164.276 171.884 164.222 171.958 164.169C172.552 163.739 173.137 163.319 173.7 162.943C174.264 162.568 174.795 162.244 175.279 162.006C175.769 161.766 176.179 161.628 176.507 161.595C176.823 161.563 177.023 161.63 177.168 161.76C177.325 161.902 177.492 162.188 177.585 162.748C178.028 166.034 177.821 170.352 177.333 174.446C176.844 178.537 176.08 182.361 175.43 184.641C174.974 186.223 174.762 187.919 174.614 189.621C174.561 190.234 174.516 190.843 174.471 191.449C174.39 192.547 174.31 193.633 174.182 194.711C173.787 198.037 172.958 201.032 170.422 203.168Z" fill="#EDE3FF" stroke="#6F46BE"/>
<path d="M71.0963 77.7484L71.0961 77.7486L71.0937 77.7509L71.0829 77.761C71.0781 77.7656 71.0719 77.7715 71.0645 77.7785C71.057 77.7857 71.0482 77.7942 71.0381 77.8039C70.9984 77.8423 70.9394 77.9 70.8649 77.9751C70.7156 78.1254 70.504 78.3453 70.2578 78.6205C69.764 79.1725 69.1376 79.9399 68.5953 80.8101C68.0504 81.6846 67.6079 82.6353 67.4527 83.557C67.2996 84.4662 67.4272 85.3284 67.9975 86.088C68.6211 86.9186 69.5134 87.7272 70.8474 88.2705C72.1849 88.8151 73.9954 89.1047 76.4706 88.8497C81.4046 88.3413 88.9102 85.6762 100.385 78.7C101.294 65.6372 101.889 58.0818 102.257 53.7876C102.442 51.6264 102.571 50.2904 102.652 49.4936C102.693 49.0952 102.723 48.8313 102.742 48.666C102.69 48.6102 102.626 48.5409 102.549 48.459C102.319 48.2152 101.977 47.8597 101.535 47.4159C100.65 46.5282 99.3605 45.2876 97.7457 43.8799C94.5135 41.0624 89.9901 37.5859 84.8087 34.9269C79.6239 32.2661 73.8163 30.4423 68.0021 30.8801C62.2083 31.3164 56.3534 34.002 51.0532 40.465L51.0531 40.4652C49.4778 42.3844 49.351 44.2114 50.0012 45.9107C50.6689 47.6555 52.1741 49.3052 53.9469 50.7455C55.7103 52.1782 57.6886 53.364 59.2328 54.1937C60.0034 54.6079 60.6627 54.9316 61.1285 55.1514C61.3614 55.2613 61.5457 55.3452 61.6712 55.4013C61.734 55.4294 61.782 55.4505 61.814 55.4645L61.8499 55.48L61.8586 55.4837L61.8605 55.4846L61.8608 55.4847L61.8609 55.4847L61.8608 55.4849L61.6654 56.4431C61.6655 56.4447 61.6655 56.4447 61.6655 56.4447L61.6651 56.4447L61.6627 56.4447L61.6472 56.4449C61.6327 56.4452 61.6099 56.4457 61.5791 56.4468C61.5177 56.449 61.4249 56.4535 61.3052 56.4627C61.0654 56.481 60.7184 56.5178 60.2976 56.5917C59.4544 56.74 58.3256 57.0357 57.1749 57.6234C54.8976 58.7865 52.4941 61.1082 52.0763 65.843C51.8767 68.1059 52.866 69.916 54.5386 71.3892C56.2241 72.8737 58.577 73.9878 61.0018 74.811C63.4196 75.6318 65.8702 76.1509 67.7206 76.4646C68.6448 76.6214 69.4166 76.7265 69.9566 76.7923C70.2265 76.8252 70.4383 76.8483 70.582 76.8631C70.6539 76.8705 70.7087 76.8758 70.7453 76.8793L70.7862 76.8831L70.7961 76.884L70.7984 76.8842L70.7988 76.8842L71.9209 76.9812L71.0963 77.7484ZM71.0963 77.7484L71.0965 77.7483L71.0963 77.7484Z" fill="#EDE3FF" stroke="#6F46BE"/>
<path d="M85.9223 73.4981C85.9091 73.4909 85.8957 73.4835 85.8821 73.4759C85.5339 73.2832 85.04 72.995 84.4626 72.6159C83.3056 71.8562 81.8243 70.7387 80.5083 69.3014C79.1914 67.8632 78.0571 66.1237 77.5613 64.1194C77.0683 62.1265 77.1974 59.8375 78.4605 57.2669C79.7353 54.6724 81.2652 53.2262 82.8097 52.4793C84.3573 51.7308 85.9734 51.6586 87.463 51.9095C88.9558 52.161 90.3023 52.7342 91.2819 53.2509C91.77 53.5083 92.1628 53.7495 92.4323 53.9254C92.4731 53.952 92.511 53.9771 92.546 54.0005L85.9223 73.4981Z" fill="white" stroke="#6F46BE"/>
<path d="M187.637 85.4794C180.574 84.4086 176.196 79.186 174.31 72.3739C173.397 69.0628 172.582 64.7877 172.432 60.5795C172.282 56.3853 172.795 52.3241 174.464 49.3437C174.579 49.2175 174.654 49.0766 174.686 49.0162C174.69 49.0098 174.693 49.0042 174.695 48.9997C176.538 46.0026 179.62 43.9863 182.776 42.1217C189.139 38.4066 195.835 35.1329 203.009 33.781L203.009 33.781C206.648 33.095 210.813 32.7986 214.773 33.3572C218.733 33.9158 222.455 35.3245 225.254 38.0194C227.191 39.889 228.38 42.6144 227.839 45.1423C227.298 47.6179 225.241 49.5066 223.024 51.0618C220.845 52.5798 218.543 53.6657 216.163 54.7885C215.494 55.1044 214.818 55.4232 214.137 55.7554L213.063 56.2793L214.19 56.6763C215.348 57.0843 216.492 57.5344 217.602 58.0944L217.603 58.0949C219.42 59.0067 221.168 59.9974 222.387 61.4923L222.388 61.4937C225.664 65.4795 224.003 71.2763 219.775 73.8129L219.775 73.8129C217.162 75.3812 214.65 75.59 212.071 75.3204C210.773 75.1848 209.466 74.9291 208.113 74.6637L208.09 74.659C206.752 74.3964 205.371 74.1253 203.952 73.9679L203.165 73.8807L203.424 74.6286C203.656 75.2979 203.984 75.9401 204.296 76.5496C204.329 76.6154 204.363 76.6807 204.396 76.7457C204.742 77.427 205.058 78.0762 205.25 78.7578L205.25 78.7598C205.68 80.2671 205.66 81.8867 204.909 83.1548L204.907 83.1576C203.551 85.4802 200.533 86.2996 197.066 86.3868C193.972 86.4647 190.706 85.9562 188.366 85.5922C188.112 85.5526 187.869 85.5147 187.638 85.4795L187.637 85.4794Z" fill="#EDE3FF" stroke="#6F46BE"/>
<path d="M198.841 58.8089L198.841 58.8094C200.27 61.2979 200.548 63.5753 200.185 65.5952C199.82 67.6266 198.801 69.4333 197.58 70.9505C196.359 72.4668 194.953 73.6741 193.847 74.5042C193.296 74.9184 192.821 75.2367 192.486 75.4507C192.473 75.4591 192.46 75.4674 192.447 75.4755L184.577 56.416C184.61 56.3904 184.646 56.363 184.685 56.3338C184.943 56.1411 185.319 55.8754 185.789 55.5874C186.732 55.0095 188.037 54.3521 189.51 54.0076C190.979 53.6638 192.595 53.6353 194.188 54.2879C195.778 54.9392 197.399 56.2915 198.841 58.8089Z" fill="white" stroke="#6F46BE"/>
<path d="M113.324 128.673L113.321 128.673C109.702 129.362 105.853 130.239 101.912 131.136C99.8059 131.615 97.6738 132.101 95.537 132.567C89.3873 133.907 83.1772 135.092 77.3352 135.539C65.628 136.436 55.5908 134.365 50.4075 124.904L50.407 124.903C48.2939 121.067 49.9168 117.526 52.7864 116.014C55.6399 114.509 59.8228 114.983 62.8623 119.519L62.863 119.52C65.2666 123.087 67.9367 125.489 70.8493 127.026C73.7607 128.562 76.8863 129.217 80.1801 129.332C85.3514 129.511 91.0078 128.35 96.9553 127.13C98.5388 126.805 100.143 126.476 101.764 126.167C106.318 125.374 111.483 125.817 114.338 126.655C115.052 126.864 115.59 127.089 115.931 127.307C116.102 127.416 116.199 127.507 116.248 127.573C116.267 127.598 116.275 127.614 116.279 127.623C116.272 127.637 116.254 127.665 116.209 127.709C116.125 127.789 115.976 127.891 115.731 128.005C115.242 128.232 114.462 128.462 113.324 128.673ZM116.282 127.633C116.282 127.633 116.281 127.632 116.281 127.63C116.282 127.632 116.282 127.633 116.282 127.633Z" fill="#EDE3FF" stroke="#6F46BE"/>
<path d="M213.149 158.752L213.149 158.751C211.811 147.919 204.775 137.13 195.268 128.498C185.767 119.869 173.861 113.453 162.892 111.326L213.149 158.752ZM213.149 158.752C213.695 163.122 210.894 165.811 207.68 166.152M213.149 158.752L207.68 166.152M207.68 166.152C204.482 166.491 200.763 164.494 199.566 159.145M207.68 166.152L199.566 159.145M199.566 159.145C197.757 150.862 195.408 143.87 191.536 138.578C187.649 133.264 182.248 129.692 174.414 128.213C172.213 127.781 169.843 126.385 167.654 124.512C165.471 122.644 163.509 120.337 162.12 118.146C161.426 117.051 160.88 115.994 160.521 115.044C160.16 114.086 160.001 113.271 160.043 112.648C160.084 112.041 160.306 111.662 160.682 111.447C161.089 111.214 161.783 111.112 162.891 111.326L199.566 159.145Z" fill="#EDE3FF" stroke="#6F46BE"/>
<path d="M109.256 201.604L109.256 201.604L109.25 201.597C106.75 199.18 106.122 196.021 105.978 192.56C105.932 191.439 105.936 190.311 105.941 189.173C105.943 188.544 105.945 187.912 105.939 187.276C105.922 185.508 105.838 183.74 105.487 182.068C104.992 179.669 104.496 175.662 104.305 171.395C104.115 167.125 104.233 162.639 104.949 159.263C105.088 158.686 105.285 158.396 105.465 158.255C105.63 158.126 105.849 158.071 106.176 158.128C106.515 158.186 106.931 158.36 107.419 158.646C107.901 158.928 108.426 159.303 108.98 159.734C109.619 160.231 110.257 160.771 110.902 161.317C111.403 161.74 111.908 162.167 112.42 162.58C113.54 163.483 114.679 164.306 115.655 164.594L115.655 164.594L115.662 164.596C116.947 164.955 118.243 165.199 119.52 165.417C119.848 165.473 120.174 165.528 120.498 165.581C121.444 165.738 122.375 165.893 123.298 166.084C125.766 166.594 128.099 167.348 130.206 169.015C132.936 171.194 134.434 174.712 135.087 178.567C135.738 182.414 135.534 186.526 134.925 189.796C134.828 190.315 134.725 190.92 134.611 191.586C134.221 193.864 133.708 196.866 132.901 199.684C132.381 201.503 131.746 203.215 130.96 204.583C130.17 205.958 129.259 206.928 128.216 207.353L128.216 207.353L128.205 207.358C127.06 207.857 125.271 208.079 123.431 208.063C121.599 208.047 119.804 207.795 118.67 207.405C115.205 206.214 111.901 204.254 109.256 201.604Z" fill="#EDE3FF" stroke="#6F46BE"/>
<path d="M177.596 172.569L177.595 172.569C156.28 184.662 130.568 185.648 108.401 175.206C101.961 172.167 98.0173 165.56 98.2796 158.419C98.2796 158.418 98.2796 158.418 98.2796 158.417L100.612 103.178L179.725 100.172L186.228 155.07L186.228 155.07L186.229 155.08C187.217 162.165 183.792 169.061 177.596 172.569Z" fill="#A78ED7" stroke="#6F46BE"/>
<path d="M113.653 123.077L113.653 123.077C116.998 129.461 122.21 135.124 127.194 140.195L127.197 140.198C127.327 140.329 127.357 140.455 127.349 140.564C127.339 140.687 127.276 140.824 127.166 140.937C127.055 141.049 126.923 141.109 126.81 141.118C126.711 141.125 126.589 141.098 126.456 140.961L126.454 140.958C125.963 140.459 125.433 139.928 124.874 139.369C122.15 136.64 118.752 133.237 115.959 129.558C112.579 125.104 110.195 120.381 110.844 116.071C111.167 113.945 112.439 111.346 114.356 108.742C116.266 106.147 118.785 103.589 121.546 101.542C124.311 99.4925 127.291 97.9757 130.121 97.4278C132.939 96.8821 135.583 97.2994 137.757 99.0793L137.757 99.0794L137.765 99.086C137.918 99.2059 137.941 99.3089 137.939 99.3768C137.938 99.4635 137.893 99.5813 137.783 99.6929C137.558 99.922 137.225 99.9815 136.957 99.7685C133.983 97.3373 130.17 98.1537 126.785 99.8938C123.373 101.648 120.193 104.435 118.284 106.321C115.856 108.719 113.819 111.223 112.83 113.975C111.831 116.757 111.916 119.753 113.653 123.077Z" fill="#6F46BE" stroke="#6F46BE"/>
<path d="M132.624 146.274C130.996 147.937 128.302 147.946 126.632 146.31C124.969 144.682 124.96 141.988 126.596 140.317C128.224 138.654 130.917 138.645 132.588 140.28C134.251 141.909 134.259 144.603 132.624 146.274Z" fill="#6F46BE" stroke="#6F46BE"/>
<path d="M127.962 144.956L127.962 144.956L127.958 144.952C127.035 144.066 127.026 142.567 127.947 141.626C128.863 140.712 130.344 140.695 131.278 141.609C132.192 142.525 132.209 144.006 131.295 144.94C130.379 145.855 128.896 145.871 127.962 144.956Z" fill="white" stroke="#6F46BE"/>
<mask id="path-19-inside-1_188_16076" fill="white">
<path d="M152.922 137.543C143.936 145.565 142.769 148.211 142.846 149.849C142.919 151.58 143.864 153.123 143.907 153.195L144.631 152.744L144.269 152.958L144.631 152.744C144.632 152.72 143.749 151.32 143.689 149.8C143.635 148.607 144.608 146.091 153.497 138.157L152.922 137.543Z"/>
</mask>
<path d="M152.922 137.543C143.936 145.565 142.769 148.211 142.846 149.849C142.919 151.58 143.864 153.123 143.907 153.195L144.631 152.744L144.269 152.958L144.631 152.744C144.632 152.72 143.749 151.32 143.689 149.8C143.635 148.607 144.608 146.091 153.497 138.157L152.922 137.543Z" fill="#AC94DF"/>
<path d="M152.922 137.543L153.652 136.86L152.985 136.147L152.256 136.797L152.922 137.543ZM142.846 149.849L143.846 149.807L143.845 149.802L142.846 149.849ZM143.907 153.195L143.047 153.706L143.568 154.586L144.436 154.044L143.907 153.195ZM144.631 152.744L145.16 153.592L144.12 151.883L144.631 152.744ZM144.631 152.744L145.141 153.604L145.601 153.331L145.629 152.796L144.631 152.744ZM143.689 149.8L144.688 149.76L144.688 149.755L143.689 149.8ZM153.497 138.157L154.162 138.903L154.926 138.221L154.227 137.474L153.497 138.157ZM152.256 136.797C147.75 140.82 145.152 143.539 143.686 145.489C142.214 147.446 141.793 148.746 141.847 149.896L143.845 149.802C143.822 149.314 143.946 148.472 145.285 146.691C146.629 144.903 149.108 142.289 153.588 138.289L152.256 136.797ZM141.847 149.89C141.89 150.914 142.187 151.853 142.462 152.524C142.602 152.864 142.74 153.147 142.848 153.351C142.902 153.454 142.949 153.537 142.984 153.599C143.002 153.63 143.017 153.655 143.028 153.675C143.034 153.684 143.039 153.692 143.042 153.698C143.047 153.706 143.047 153.706 143.047 153.706L144.767 152.685C144.724 152.613 143.906 151.262 143.846 149.807L141.847 149.89ZM144.436 154.044L145.16 153.592L144.101 151.895L143.377 152.347L144.436 154.044ZM144.12 151.883L143.759 152.098L144.78 153.818L145.141 153.604L144.12 151.883ZM144.78 153.818L145.141 153.604L144.12 151.883L143.759 152.098L144.78 153.818ZM145.629 152.796C145.638 152.626 145.6 152.495 145.594 152.474C145.581 152.428 145.567 152.392 145.56 152.375C145.546 152.339 145.533 152.312 145.528 152.301C145.517 152.278 145.506 152.257 145.501 152.249C145.491 152.23 145.477 152.205 145.467 152.187C145.444 152.146 145.414 152.09 145.377 152.021C145.303 151.881 145.205 151.684 145.105 151.446C144.9 150.958 144.712 150.353 144.688 149.76L142.69 149.839C142.726 150.767 143.009 151.622 143.261 152.22C143.389 152.525 143.515 152.777 143.608 152.954C143.655 153.043 143.694 153.113 143.719 153.158C143.733 153.184 143.738 153.193 143.741 153.198C143.743 153.201 143.736 153.19 143.728 153.173C143.725 153.166 143.713 153.142 143.7 153.108C143.693 153.092 143.68 153.057 143.667 153.012C143.662 152.991 143.623 152.861 143.632 152.691L145.629 152.796ZM144.688 149.755C144.677 149.51 144.736 148.818 146.035 147.112C147.324 145.418 149.734 142.856 154.162 138.903L152.831 137.411C148.371 141.392 145.849 144.054 144.444 145.9C143.048 147.734 142.647 148.896 142.69 149.845L144.688 149.755ZM154.227 137.474L153.652 136.86L152.192 138.227L152.766 138.84L154.227 137.474Z" fill="#6F46BE" mask="url(#path-19-inside-1_188_16076)"/>
<path d="M143.548 152.43L144.244 152.064L145.14 153.768L144.444 154.134L143.548 152.43Z" fill="#6F46BE" stroke="#6F46BE"/>
<mask id="path-22-inside-2_188_16076" fill="white">
<path d="M159.105 141.969C156.202 150.568 154.014 154.888 152.228 155.564C150.8 156.095 149.18 155.846 149.157 155.845L149.019 156.678C149.089 156.682 150.894 156.964 152.514 156.349C154.632 155.55 156.761 151.461 159.884 142.244L159.105 141.969Z"/>
</mask>
<path d="M159.105 141.969C156.202 150.568 154.014 154.888 152.228 155.564C150.8 156.095 149.18 155.846 149.157 155.845L149.019 156.678C149.089 156.682 150.894 156.964 152.514 156.349C154.632 155.55 156.761 151.461 159.884 142.244L159.105 141.969Z" fill="#AC94DF"/>
<path d="M159.105 141.969L159.437 141.026L158.482 140.689L158.158 141.649L159.105 141.969ZM152.228 155.564L152.577 156.501L152.582 156.499L152.228 155.564ZM149.157 155.845L149.209 154.847L148.315 154.799L148.17 155.683L149.157 155.845ZM149.019 156.678L148.033 156.516L147.851 157.618L148.967 157.677L149.019 156.678ZM152.514 156.349L152.161 155.413L152.159 155.414L152.514 156.349ZM159.884 142.244L160.831 142.565L161.148 141.629L160.216 141.3L159.884 142.244ZM158.158 141.649C156.711 145.934 155.456 149.111 154.355 151.286C153.805 152.374 153.308 153.182 152.863 153.743C152.407 154.32 152.073 154.553 151.874 154.628L152.582 156.499C153.277 156.236 153.885 155.675 154.432 154.984C154.991 154.277 155.558 153.34 156.14 152.189C157.305 149.886 158.596 146.603 160.053 142.289L158.158 141.649ZM151.879 154.626C150.699 155.066 149.361 154.855 149.209 154.847L149.104 156.844C148.999 156.838 150.901 157.125 152.577 156.501L151.879 154.626ZM148.17 155.683L148.033 156.516L150.006 156.841L150.143 156.008L148.17 155.683ZM148.967 157.677C148.908 157.674 150.998 157.994 152.869 157.284L152.159 155.414C150.791 155.933 149.27 155.69 149.072 155.68L148.967 157.677ZM152.866 157.285C154.307 156.742 155.516 155.201 156.709 152.916C157.934 150.571 159.266 147.184 160.831 142.565L158.937 141.923C157.379 146.521 156.086 149.788 154.936 151.991C153.754 154.254 152.839 155.157 152.161 155.413L152.866 157.285ZM160.216 141.3L159.437 141.026L158.773 142.912L159.552 143.187L160.216 141.3Z" fill="#6F46BE" mask="url(#path-22-inside-2_188_16076)"/>
<path d="M149.876 156.708L147.968 156.551L148.025 155.759L149.932 155.915L149.876 156.708Z" fill="#6F46BE" stroke="#6F46BE"/>
<path d="M161.755 136.364L161.755 136.363C161.883 135.815 161.831 135.226 161.737 134.754C161.69 134.521 161.635 134.326 161.592 134.19C161.57 134.122 161.552 134.069 161.539 134.035C161.539 134.034 161.538 134.032 161.538 134.031C161.491 133.943 161.476 133.855 161.473 133.798C161.468 133.704 161.487 133.625 161.5 133.579C161.527 133.483 161.573 133.388 161.615 133.308C161.704 133.142 161.837 132.935 161.986 132.717C162.287 132.275 162.696 131.727 163.059 131.245L163.061 131.242C163.122 131.163 163.183 131.084 163.244 131.005C163.516 130.649 163.785 130.3 163.999 129.985C164.13 129.793 164.229 129.629 164.293 129.498C164.345 129.39 164.356 129.339 164.359 129.33C164.353 129.306 164.327 129.245 164.24 129.184L161.755 136.364ZM161.755 136.364C161.402 137.89 160.329 140.764 159.871 141.909C159.652 142.458 159.496 142.574 159.461 142.593C159.461 142.593 159.46 142.593 159.46 142.593C159.458 142.595 159.446 142.61 159.282 142.56C159.207 142.532 159.174 142.512 159.161 142.502C159.16 142.5 159.16 142.498 159.159 142.496C159.153 142.456 159.152 142.364 159.192 142.181C159.232 142.003 159.305 141.766 159.423 141.451C159.523 141.186 159.641 140.89 159.766 140.573C160.117 139.686 160.531 138.64 160.805 137.68C160.992 137.026 161.128 136.371 161.129 135.797C161.13 135.235 161.001 134.641 160.532 134.256L160.511 134.239L160.488 134.224C159.982 133.894 159.392 133.945 158.868 134.118C158.339 134.294 157.782 134.623 157.244 135.003C156.444 135.566 155.605 136.3 154.881 136.932C154.635 137.147 154.402 137.351 154.189 137.532L154.189 137.532L154.186 137.534C153.635 138.008 153.318 138.202 153.137 138.257C153.101 138.269 153.08 138.271 153.07 138.271C153.063 138.266 153.05 138.255 153.032 138.232C152.922 138.085 152.924 138.062 152.927 138.034C152.931 137.98 152.985 137.775 153.415 137.356C153.762 137.023 154.638 136.304 155.597 135.568C156.558 134.83 157.56 134.109 158.155 133.763L158.155 133.763L158.161 133.759C158.635 133.475 159.199 133.335 159.665 133.27C159.895 133.238 160.092 133.225 160.231 133.22C160.3 133.218 160.353 133.217 160.389 133.217L161.755 136.364ZM164.034 129.115C164.034 129.115 164.034 129.115 164.033 129.115L162.176 130.638L162.582 130.93C162.582 130.93 162.583 130.929 162.583 130.929C162.666 130.814 162.748 130.697 162.83 130.582C163.067 130.249 163.296 129.925 163.514 129.652C163.659 129.469 163.786 129.325 163.893 129.226C163.989 129.137 164.034 129.117 164.034 129.115ZM153.062 138.271C153.062 138.271 153.063 138.271 153.065 138.271C153.063 138.271 153.062 138.271 153.062 138.271ZM153.074 138.275C153.075 138.275 153.076 138.275 153.076 138.275L153.074 138.275Z" fill="#6F46BE" stroke="#6F46BE"/>
<path d="M145.531 99.3461L145.532 99.3454C147.827 96.6947 151.373 96.8446 154.658 97.875C157.971 98.9142 161.236 100.908 163.232 102.283L163.235 102.285C165.762 104.051 167.966 105.972 169.274 108.278C170.597 110.611 170.982 113.303 169.936 116.541L169.936 116.541C167.932 122.745 164.157 128.599 160.495 133.869M145.531 99.3461L171.25 109.897C172.479 113.608 171.092 118.155 168.769 122.633C166.849 126.332 164.348 129.879 162.34 132.728C161.929 133.31 161.539 133.863 161.179 134.383L161.178 134.384C161.087 134.516 160.995 134.551 160.922 134.558C160.834 134.567 160.722 134.539 160.617 134.463C160.512 134.388 160.444 134.287 160.42 134.191C160.4 134.107 160.404 134.001 160.495 133.869M145.531 99.3461C145.358 99.5461 145.089 99.5568 144.86 99.3935C144.751 99.3151 144.699 99.2247 144.685 99.16C144.676 99.1147 144.674 99.0375 144.777 98.9221L144.777 98.9222M145.531 99.3461L144.777 98.9222M160.495 133.869C160.495 133.869 160.494 133.87 160.494 133.87L160.084 133.585L160.495 133.868C160.495 133.868 160.495 133.869 160.495 133.869ZM144.777 98.9222L144.781 98.9172M144.777 98.9222L144.781 98.9172M144.781 98.9172C146.432 97.0132 148.705 96.2414 151.286 96.2963M144.781 98.9172L151.286 96.2963M151.286 96.2963C153.879 96.3514 156.756 97.2434 159.527 98.6429M151.286 96.2963L159.527 98.6429M159.527 98.6429C162.293 100.04 164.923 101.929 167.017 103.941M159.527 98.6429L167.017 103.941M167.017 103.941C169.118 105.961 170.641 108.069 171.25 109.896L167.017 103.941Z" fill="#6F46BE" stroke="#6F46BE"/>
<path d="M112.324 108.099L116.334 183.647C110.465 185.479 104.08 185.245 97.3194 183.58L97.3658 137.65L97.3658 137.638L97.3652 137.626C97.3406 137.103 96.7751 136.61 96.1825 136.89L83.0815 142.68L83.0801 142.681L78.3717 142.964L57.5293 133.277L65.8543 122.668L75.9628 127.626L75.9627 127.626L75.9731 127.631C76.2525 127.76 76.578 127.722 76.813 127.564L76.8197 127.56L76.8262 127.555L101.552 109.795L110.767 106.814L110.829 106.8L115.368 105.799C115.441 106.087 115.46 106.349 115.436 106.541L113.414 106.897C113.117 106.934 112.8 107.019 112.575 107.25C112.328 107.506 112.294 107.827 112.324 108.099ZM101.637 109.729C101.637 109.73 101.635 109.731 101.632 109.734C101.635 109.731 101.637 109.729 101.637 109.729Z" fill="white" stroke="#6F46BE"/>
<path d="M107.753 137.147C107.287 135.697 106.851 134.344 106.571 133.68C106.696 133.525 106.846 133.341 107.014 133.135C107.653 132.352 108.554 131.249 109.359 130.194C109.887 129.504 110.382 128.823 110.742 128.258C110.921 127.976 111.073 127.712 111.18 127.482C111.233 127.368 111.279 127.252 111.311 127.14C111.34 127.035 111.368 126.897 111.351 126.752L110.854 126.81L111.351 126.754C111.333 126.597 111.262 126.438 111.202 126.318C111.133 126.181 111.042 126.024 110.935 125.854C110.721 125.512 110.427 125.086 110.083 124.609C109.43 123.702 108.581 122.585 107.729 121.465C107.683 121.405 107.638 121.345 107.592 121.285C106.692 120.102 105.801 118.926 105.132 117.986C104.797 117.515 104.523 117.111 104.334 116.799C104.239 116.643 104.171 116.518 104.127 116.425C104.12 116.41 104.114 116.397 104.109 116.385C104.138 116.328 104.18 116.252 104.237 116.155C104.373 115.925 104.575 115.612 104.83 115.233C105.34 114.477 106.044 113.484 106.816 112.424C108.338 110.335 110.106 108.004 111.13 106.734L115.363 105.8C115.429 106.084 115.456 106.342 115.434 106.541L113.402 106.898C113.402 106.898 113.402 106.898 113.402 106.898C113.123 106.947 112.814 107.033 112.593 107.25C112.341 107.496 112.292 107.812 112.324 108.098L115.037 159.425C114.538 157.772 114.099 156.081 113.655 154.371C113.409 153.422 113.161 152.467 112.901 151.51C112.061 148.421 111.096 145.338 109.646 142.485C109.224 141.64 108.612 139.809 108.015 137.962C107.927 137.69 107.84 137.417 107.753 137.147Z" fill="white" stroke="#6F46BE"/>
<mask id="path-29-inside-3_188_16076" fill="white">
<path d="M110.108 154.712L98.3005 155.163C98.2307 155.16 98.1633 155.11 98.167 155.04L98.1413 154.642C98.145 154.572 98.1952 154.504 98.265 154.508L110.073 154.057C110.143 154.06 110.21 154.111 110.206 154.181L110.232 154.579C110.228 154.648 110.179 154.693 110.108 154.712Z"/>
</mask>
<path d="M110.108 154.712L98.3005 155.163C98.2307 155.16 98.1633 155.11 98.167 155.04L98.1413 154.642C98.145 154.572 98.1952 154.504 98.265 154.508L110.073 154.057C110.143 154.06 110.21 154.111 110.206 154.181L110.232 154.579C110.228 154.648 110.179 154.693 110.108 154.712Z" fill="#EDE8FC"/>
<path d="M110.108 154.712L110.147 155.711L110.262 155.707L110.374 155.676L110.108 154.712ZM98.3005 155.163L98.2478 156.162L98.2932 156.164L98.3387 156.163L98.3005 155.163ZM98.167 155.04L99.1656 155.092L99.1687 155.034L99.1649 154.975L98.167 155.04ZM98.1413 154.642L97.1427 154.589L97.1396 154.648L97.1434 154.706L98.1413 154.642ZM98.265 154.508L98.2124 155.507L98.2578 155.509L98.3032 155.507L98.265 154.508ZM110.073 154.057L110.126 153.058L110.08 153.056L110.035 153.058L110.073 154.057ZM110.206 154.181L109.208 154.128L109.205 154.186L109.208 154.245L110.206 154.181ZM110.232 154.579L111.231 154.631L111.234 154.573L111.23 154.514L110.232 154.579ZM110.07 153.713L98.2623 154.164L98.3387 156.163L110.147 155.711L110.07 153.713ZM98.3531 154.165C98.5278 154.174 98.7086 154.239 98.8609 154.371C99.0235 154.511 99.1829 154.764 99.1656 155.092L97.1684 154.987C97.1474 155.386 97.3387 155.698 97.5515 155.882C97.7539 156.058 98.0033 156.149 98.2478 156.162L98.3531 154.165ZM99.1649 154.975L99.1392 154.577L97.1434 154.706L97.1691 155.104L99.1649 154.975ZM99.1399 154.694C99.1307 154.869 99.0662 155.05 98.9344 155.202C98.7936 155.364 98.5413 155.524 98.2124 155.507L98.3176 153.509C97.9189 153.488 97.6066 153.68 97.4223 153.893C97.2471 154.095 97.1556 154.345 97.1427 154.589L99.1399 154.694ZM98.3032 155.507L110.111 155.056L110.035 153.058L98.2268 153.509L98.3032 155.507ZM110.02 155.055C109.846 155.046 109.665 154.982 109.512 154.85C109.35 154.709 109.19 154.457 109.208 154.128L111.205 154.233C111.226 153.835 111.035 153.522 110.822 153.338C110.619 153.163 110.37 153.071 110.126 153.058L110.02 155.055ZM109.208 154.245L109.234 154.643L111.23 154.514L111.204 154.116L109.208 154.245ZM109.233 154.526C109.244 154.32 109.331 154.119 109.479 153.967C109.613 153.829 109.756 153.772 109.842 153.748L110.374 155.676C110.701 155.586 111.197 155.275 111.231 154.631L109.233 154.526Z" fill="#6F46BE" mask="url(#path-29-inside-3_188_16076)"/>
<path d="M175.999 181.698L175.994 181.697C175.861 181.674 175.731 181.534 175.73 181.357L175.73 181.35L174.295 113.384C174.295 113.384 174.295 113.383 174.295 113.382C174.287 112.851 173.966 112.353 173.456 112.158C173.373 112.116 173.281 112.084 173.194 112.057L173.16 112.047L173.125 112.041L171.343 111.76L171.331 111.759L171.319 111.757C171.158 111.74 171.043 111.616 171.038 111.455L171.038 111.455L171.038 111.455L171.038 111.455L171.038 111.455L171.038 111.455L171.038 111.455L171.038 111.455L171.038 111.455L171.038 111.455L171.038 111.455L171.038 111.455L171.038 111.455L171.038 111.455L171.038 111.454L171.038 111.454L171.038 111.454L171.038 111.454L171.038 111.454L171.038 111.454L171.038 111.454L171.038 111.454L171.038 111.454L171.038 111.454L171.038 111.454L171.038 111.454L171.038 111.454L171.038 111.454L171.038 111.454L171.038 111.454L171.038 111.454L171.038 111.454L171.038 111.454L171.038 111.454L171.038 111.453L171.038 111.453L171.038 111.453L171.038 111.453L171.038 111.453L171.038 111.453L171.038 111.453L171.038 111.453L171.038 111.453L171.038 111.453L171.038 111.453L171.038 111.453L171.038 111.453L171.038 111.453L171.038 111.453L171.038 111.453L171.038 111.453L171.038 111.453L171.038 111.453L171.038 111.453L171.038 111.453L171.038 111.453L171.038 111.453L171.038 111.452L171.038 111.452L171.038 111.452L171.038 111.452L171.038 111.452L171.038 111.452L171.038 111.452L171.038 111.452L171.038 111.452L171.038 111.452L171.038 111.452L171.038 111.452L171.038 111.452L171.038 111.452L171.038 111.452L171.038 111.452L171.038 111.452L171.038 111.452L171.038 111.452L171.038 111.452L171.038 111.452L171.038 111.452L171.038 111.452L171.038 111.452L171.038 111.452L171.038 111.452L171.038 111.452L171.038 111.452L171.038 111.451L171.038 111.451L171.038 111.451L171.038 111.451L171.038 111.451L171.038 111.451L171.038 111.451L171.038 111.451L171.038 111.451L171.038 111.451L171.038 111.451L171.038 111.451L171.038 111.451L171.038 111.451L171.038 111.451L171.038 111.451L171.038 111.451L171.038 111.451L171.038 111.451L171.038 111.451L171.038 111.451L171.038 111.451L171.038 111.451L171.038 111.451L171.038 111.451L171.038 111.451L171.038 111.451L171.038 111.451L171.038 111.451L171.038 111.451L171.038 111.451L171.038 111.451L171.038 111.451L171.038 111.451L171.038 111.451L171.038 111.451L171.038 111.45L171.038 111.45L171.038 111.45L171.038 111.45L171.038 111.45L171.038 111.45L171.038 111.45L171.038 111.45L171.038 111.45L171.038 111.45L171.038 111.45L171.038 111.45L171.038 111.45L171.038 111.45L171.038 111.45L171.038 111.45L171.038 111.45L171.038 111.45L171.038 111.45L171.038 111.45L171.038 111.45L171.038 111.45L171.038 111.45L171.038 111.45L171.038 111.45L171.038 111.45L171.038 111.45L171.038 111.45L171.038 111.45L171.038 111.45L171.038 111.45L171.038 111.45L171.038 111.45L171.038 111.45L171.038 111.45L171.038 111.45L171.038 111.45L171.038 111.45L171.038 111.45L171.038 111.45L171.038 111.45L171.038 111.45L171.038 111.45L171.038 111.45L171.038 111.45L171.038 111.45L171.038 111.45L171.038 111.45L171.038 111.45L171.038 111.45L171.038 111.45L171.038 111.45L171.038 111.45L171.038 111.45L171.038 111.45L171.038 111.45L171.038 111.449L171.038 111.449L171.038 111.449L171.038 111.449L171.038 111.449L171.038 111.449L171.038 111.449L171.038 111.449L171.038 111.449L171.038 111.449L171.038 111.449L171.038 111.449L171.038 111.449L171.038 111.449L171.038 111.449L171.038 111.449L171.038 111.449L171.038 111.449L171.038 111.449L171.038 111.449L171.038 111.449L171.038 111.449L171.038 111.449L171.038 111.449L171.038 111.449L171.038 111.449L171.038 111.449L171.038 111.449L171.038 111.449L171.038 111.449L171.038 111.449L171.038 111.449L171.038 111.449L171.038 111.449L171.038 111.449L171.038 111.449L171.038 111.449L171.038 111.449L171.038 111.449L171.038 111.449L171.038 111.449L171.038 111.449L171.038 111.449L171.038 111.449L171.038 111.449L171.038 111.449L171.038 111.449L171.038 111.449L171.038 111.449L171.038 111.449L171.038 111.449L171.038 111.449L171.038 111.449L171.038 111.449L171.038 111.449L171.038 111.449L171.038 111.449L171.038 111.449L171.038 111.449L171.038 111.449L171.038 111.449L171.038 111.449L171.038 111.449L171.038 111.449L171.038 111.449L171.038 111.449L171.038 111.449L171.038 111.449L171.038 111.449L171.038 111.449L171.038 111.449L171.038 111.449L171.038 111.449L171.038 111.449L171.038 111.449L171.038 111.449L171.038 111.449L171.038 111.449L171.038 111.449L171.038 111.449L171.038 111.449L171.038 111.449L171.038 111.449L171.038 111.449L171.038 111.449L171.038 111.449L171.038 111.449L171.038 111.449L171.038 111.449L171.038 111.449L171.038 111.449L171.038 111.449L171.038 111.449L171.038 111.449L171.038 111.449L171.038 111.449L171.038 111.449L171.038 111.449L171.038 111.449L171.038 111.449L171.038 111.449L171.038 111.449L171.038 111.449L171.038 111.449L171.038 111.449L171.038 111.449L171.038 111.449L171.038 111.449L171.038 111.449L171.038 111.449L171.038 111.449L171.038 111.449L171.038 111.449L171.038 111.449L171.038 111.449L171.038 111.449L171.038 111.449L171.038 111.449L171.038 111.449L171.038 111.449L171.038 111.449L171.038 111.449L171.038 111.449L171.038 111.449L171.038 111.449L171.038 111.449L171.038 111.449L171.038 111.449L171.038 111.449L171.038 111.449L171.038 111.449L171.038 111.449L171.038 111.449L171.038 111.449L171.038 111.449L171.039 111.437L171.039 111.425C171.039 111.346 171.074 111.273 171.146 111.215C171.221 111.155 171.326 111.12 171.436 111.13L175.671 111.656L175.689 111.658L175.707 111.659L175.707 111.659L175.707 111.659L175.707 111.659L175.707 111.659L175.707 111.659L175.707 111.659L175.708 111.659L175.708 111.659L175.708 111.659L175.708 111.659L175.708 111.659L175.708 111.659L175.708 111.659L175.708 111.659L175.709 111.659L175.709 111.659L175.709 111.659L175.709 111.659L175.709 111.659L175.709 111.659L175.709 111.659L175.71 111.659L175.71 111.659L175.71 111.659L175.71 111.659L175.71 111.659L175.71 111.659L175.71 111.659L175.711 111.659L175.711 111.659L175.711 111.659L175.711 111.659L175.711 111.659L175.711 111.659L175.711 111.659L175.711 111.659L175.712 111.659L175.712 111.659L175.712 111.659L175.712 111.659L175.712 111.659L175.712 111.659L175.712 111.659L175.713 111.659L175.713 111.659L175.713 111.659L175.713 111.659L175.713 111.659L175.713 111.659L175.713 111.659L175.714 111.659L175.714 111.659L175.714 111.659L175.714 111.659L175.714 111.659L175.714 111.659L175.714 111.659L175.714 111.659L175.715 111.659L175.715 111.659L175.715 111.659L175.715 111.659L175.715 111.659L175.715 111.659L175.715 111.659L175.716 111.659L175.716 111.659L175.716 111.659L175.716 111.659L175.716 111.659L175.716 111.659L175.716 111.659L175.717 111.659L175.717 111.659L175.717 111.659L175.717 111.659L175.717 111.659L175.717 111.659L175.717 111.659L175.717 111.659L175.718 111.659L175.718 111.659L175.718 111.659L175.718 111.659L175.718 111.659L175.718 111.659L175.718 111.659L175.719 111.659L175.719 111.659L175.719 111.659L175.719 111.659L175.719 111.659L175.719 111.659L175.719 111.659L175.72 111.659L175.72 111.659L175.72 111.659L175.72 111.659L175.72 111.659L175.72 111.659L175.72 111.659L175.72 111.66L175.721 111.66L175.721 111.66L175.721 111.66L175.721 111.66L175.721 111.66L175.721 111.66L175.721 111.66L175.722 111.66L175.722 111.66L175.722 111.66L175.722 111.66L175.722 111.66L175.722 111.66L175.722 111.66L175.723 111.66L175.723 111.66L175.723 111.66L175.723 111.66L175.723 111.66L175.723 111.66L175.723 111.66L175.723 111.66L175.724 111.66L175.724 111.66L175.724 111.66L175.724 111.66L175.724 111.66L175.724 111.66L175.724 111.66L175.725 111.66L175.725 111.66L175.725 111.66L175.725 111.66L175.725 111.66L175.725 111.66L175.725 111.66L175.726 111.66L175.726 111.66L175.726 111.66L175.726 111.66L175.726 111.66L175.726 111.66L175.726 111.66L175.726 111.66L175.727 111.66L175.727 111.66L175.727 111.66L175.727 111.66L175.727 111.66L175.727 111.66L175.727 111.66L175.728 111.66L175.728 111.66L175.728 111.66L175.728 111.66L175.728 111.66L175.728 111.66L175.728 111.66L175.729 111.66L175.729 111.66L175.729 111.66L175.729 111.66L175.729 111.66L175.729 111.66L175.729 111.66L175.729 111.66L175.73 111.66L175.73 111.66L175.73 111.66L175.73 111.66L175.73 111.66L175.73 111.66L175.73 111.66L175.731 111.66L175.731 111.66L175.731 111.66L175.731 111.66L175.731 111.66L175.731 111.66L175.731 111.66L175.732 111.66L175.732 111.66L175.732 111.66L175.732 111.66L175.732 111.66L175.732 111.66L175.732 111.66L175.732 111.66L175.733 111.66L175.733 111.66L175.733 111.66L175.733 111.66L175.733 111.66L175.733 111.66L175.733 111.66L175.734 111.66L175.734 111.66L175.734 111.66L175.734 111.66L175.734 111.66L175.734 111.66L175.734 111.66L175.735 111.66L175.735 111.66L175.735 111.66L175.735 111.66L175.735 111.66L175.735 111.66L175.735 111.66L175.735 111.66L175.736 111.66L175.736 111.66L175.736 111.66L175.736 111.66L175.736 111.66L175.736 111.66L175.736 111.66L175.736 111.66L185.105 113.68C185.138 113.693 185.164 113.701 185.178 113.705L185.179 113.705L185.206 113.717L190.229 115.825L190.229 115.826L190.239 115.83C190.239 115.83 190.245 115.832 190.256 115.839C190.266 115.846 190.279 115.855 190.294 115.868C190.323 115.893 190.351 115.923 190.372 115.952C190.372 115.953 190.373 115.954 190.373 115.955L205.399 137.606L205.401 137.609C205.401 137.609 205.401 137.61 205.402 137.611L205.415 137.64L205.415 137.64L205.42 137.652L212.17 152.125C212.17 152.125 212.17 152.126 212.17 152.126C212.256 152.315 212.151 152.554 211.906 152.607L197.54 155.232C197.54 155.232 197.54 155.232 197.539 155.232C197.384 155.26 197.214 155.17 197.152 154.998L193.611 144.291L193.604 144.269L193.595 144.248C193.541 144.124 193.485 144.029 193.442 143.958L193.439 143.953L193.427 143.932L193.413 143.913L191.475 141.266L191.475 141.266L191.471 141.261C190.581 140.079 188.708 140.962 189.08 142.401L189.08 142.402L198.688 179.271L198.69 179.278C198.741 179.465 198.629 179.642 198.479 179.681L198.479 179.681L198.467 179.684C191.776 181.606 182.042 182.796 175.999 181.698ZM185.196 113.711C185.196 113.711 185.196 113.711 185.195 113.71L185.196 113.711Z" fill="white" stroke="#6F46BE"/>
<path d="M179.449 143.867L179.448 143.869C178.052 146.898 177.291 150.158 176.625 153.378C176.522 153.877 176.421 154.374 176.32 154.87C175.992 156.489 175.668 158.088 175.28 159.646L174.296 112.954C174.306 112.677 174.227 112.375 173.954 112.16C173.718 111.973 173.408 111.915 173.115 111.898L171.055 111.709C171.041 111.637 171.034 111.549 171.036 111.443C171.038 111.333 171.052 111.215 171.074 111.095L175.388 111.629C176.48 112.701 178.38 114.661 180.035 116.433C180.893 117.352 181.682 118.216 182.257 118.876C182.544 119.206 182.774 119.481 182.93 119.682C182.982 119.75 183.023 119.805 183.054 119.85C183.018 119.934 182.96 120.048 182.88 120.191C182.714 120.486 182.471 120.87 182.171 121.321C181.571 122.221 180.768 123.351 179.955 124.49C179.918 124.543 179.88 124.595 179.843 124.648C179.071 125.73 178.299 126.812 177.71 127.687C177.401 128.145 177.137 128.554 176.947 128.881C176.852 129.044 176.771 129.195 176.711 129.327C176.66 129.44 176.595 129.6 176.586 129.76C176.578 129.916 176.623 130.058 176.664 130.159C176.708 130.267 176.769 130.377 176.836 130.484C176.97 130.698 177.156 130.941 177.37 131.197C177.8 131.711 178.382 132.323 178.99 132.935C179.599 133.55 180.243 134.172 180.801 134.706C180.94 134.839 181.072 134.966 181.198 135.086C181.453 135.331 181.678 135.546 181.86 135.722C181.746 136.036 181.62 136.464 181.487 136.936C181.334 137.482 181.162 138.127 180.983 138.802C180.93 139 180.877 139.2 180.823 139.402C180.341 141.207 179.834 143.04 179.449 143.867Z" fill="white" stroke="#6F46BE"/>
<mask id="path-33-inside-4_188_16076" fill="white">
<path d="M179.71 154.992L191.795 154.533L191.772 153.927L179.687 154.386L179.71 154.992Z"/>
</mask>
<path d="M179.71 154.992L191.795 154.533L191.772 153.927L179.687 154.386L179.71 154.992Z" fill="#EDE8FC"/>
<path d="M191.795 154.533L191.833 155.532L192.832 155.494L192.794 154.495L191.795 154.533ZM179.71 154.992L178.71 155.029L178.748 156.029L179.748 155.991L179.71 154.992ZM179.687 154.386L179.649 153.387L178.65 153.425L178.687 154.424L179.687 154.386ZM191.772 153.927L192.771 153.889L192.733 152.89L191.734 152.928L191.772 153.927ZM191.757 153.534L179.672 153.992L179.748 155.991L191.833 155.532L191.757 153.534ZM180.709 154.954L180.686 154.348L178.687 154.424L178.71 155.029L180.709 154.954ZM179.725 155.385L191.81 154.927L191.734 152.928L179.649 153.387L179.725 155.385ZM190.773 153.965L190.796 154.571L192.794 154.495L192.771 153.889L190.773 153.965Z" fill="#6F46BE" mask="url(#path-33-inside-4_188_16076)"/>
<path d="M90.3403 111.023L90.339 111.02C87.7674 106.404 86.3461 100.15 85.9204 93.1195C85.4951 86.0963 86.0656 78.3355 87.4478 70.7336C88.8301 63.1318 91.0217 55.7027 93.8305 49.3418C96.6425 42.9736 100.057 37.7116 103.867 34.4074C110.5 28.6552 123.01 25.2985 135.971 24.6314C148.924 23.9648 162.145 25.9937 170.162 30.8399C174.512 33.4916 178.767 38.5676 182.537 45.0018C186.3 51.4255 189.553 59.1554 191.92 67.0556C194.286 74.9566 195.762 83.0096 195.983 90.078C196.205 97.1641 195.163 103.183 192.575 107.084C191.26 109.062 188.848 110.905 185.544 112.569C182.249 114.23 178.113 115.69 173.41 116.927C164.006 119.402 152.387 120.972 140.809 121.488C129.23 122.005 117.717 121.466 108.525 119.736C103.928 118.871 99.9292 117.711 96.798 116.247C93.6581 114.779 91.446 113.031 90.3403 111.023Z" fill="#EDE3FF" stroke="#6F46BE"/>
<path d="M141.562 84.9986L141.562 84.9986L141.565 85.0017C142.553 86.1233 143.17 87.5712 143.693 89.0802C145.104 93.3225 145.668 97.2862 145.027 101.66C144.789 103.225 144.065 104.877 142.991 106.216C141.917 107.555 140.521 108.548 138.956 108.861C136.049 109.421 133.076 107.136 131.843 104.181C131.447 103.223 131.164 102.148 130.95 100.992C130.125 96.2858 130.875 91.2692 133.063 87.5378C134.105 85.7635 135.495 84.2148 136.978 83.5747C137.707 83.2602 138.448 83.1685 139.193 83.362C139.941 83.5565 140.742 84.0519 141.562 84.9986Z" fill="#6F46BE" stroke="#6F46BE"/>
<path d="M242.92 78.3475C228.502 78.3475 216.801 90.049 216.801 104.467C216.801 118.885 228.502 130.586 242.92 130.586C257.338 130.586 269.039 118.885 269.039 104.467C269.039 90.049 257.338 78.3475 242.92 78.3475ZM242.92 125.362C231.401 125.362 222.025 115.985 222.025 104.467C222.025 92.9482 231.401 83.5714 242.92 83.5714C254.439 83.5714 263.816 92.9482 263.816 104.467C263.816 115.985 254.439 125.362 242.92 125.362ZM254.909 92.9221L237.696 110.135L230.931 103.396L227.249 107.079L237.696 117.526L258.592 96.631L254.909 92.9221Z" fill="#6F46BE"/>
<path d="M64.2337 94.9279C64.1512 94.9978 64.0512 95.0438 63.9447 95.061C63.8383 95.0781 63.7294 95.0657 63.6301 95.0251C61.2904 94.0776 60.5327 95.0062 59.2626 96.5423C58.1223 97.9308 56.7022 99.6544 53.6794 100.053L53.6119 100.064C50.4417 100.114 48.8428 98.748 48.0122 97.443C46.3653 97.9363 44.604 97.8484 43.0262 97.1943C41.4751 96.5568 40.1113 95.5423 39.0578 94.2422C36.711 95.0903 34.1533 95.1204 31.8037 94.3275C30.6277 93.8614 29.588 93.1117 28.7768 92.1447C28.0751 92.5828 27.294 92.8768 26.4797 93.0095C25.6653 93.1422 24.8343 93.1108 24.0356 92.9172C22.621 92.7142 21.301 92.1016 20.2386 91.155C18.1778 92.6487 15.4723 92.5738 12.771 90.9324C12.7443 90.9094 12.7215 90.8823 12.7033 90.8522C10.3763 88.7502 9.24318 86.6481 9.22652 84.4356C9.22583 84.3586 9.24033 84.2821 9.26921 84.2104C9.2981 84.1386 9.34079 84.0732 9.39486 84.0177C9.44892 83.9622 9.5133 83.9177 9.58432 83.8869C9.65534 83.8561 9.73161 83.8394 9.80877 83.838C9.88592 83.8365 9.96246 83.8502 10.034 83.8783C10.1056 83.9064 10.1707 83.9484 10.2258 84.0018C10.2808 84.0552 10.3247 84.119 10.3549 84.1896C10.385 84.2602 10.4009 84.3361 10.4016 84.4132C10.4218 86.2643 11.4098 88.0847 13.455 89.9438C15.6688 91.272 17.7624 91.3977 19.4037 90.3111C18.0826 88.8631 17.2508 87.0635 17.2903 85.5662C17.2791 85.2306 17.3361 84.8954 17.458 84.581C17.5798 84.2667 17.764 83.9795 17.9993 83.7369C18.2346 83.4944 18.5162 83.3014 18.8271 83.1696C19.138 83.0378 19.4718 82.97 19.8083 82.9703C20.4295 82.9373 21.0425 83.1071 21.5546 83.454C22.0667 83.8008 22.45 84.3059 22.6465 84.8928C23.2207 86.5513 22.5443 88.7915 21.127 90.3449C21.99 91.1019 23.0573 91.59 24.1992 91.7499L24.2728 91.7641C24.9076 91.9255 25.5697 91.9582 26.2201 91.8602C26.8704 91.7623 27.4959 91.5358 28.0598 91.1939C26.7976 89.2768 26.2966 86.9467 26.7714 85.2348C27.2461 83.523 28.6031 82.7295 30.4325 83.017C30.8829 83.0862 31.3036 83.2804 31.6466 83.5774C31.9897 83.8745 32.2415 84.2625 32.3732 84.6974C32.9279 86.3876 32.1023 88.9442 30.3744 90.8053C30.168 91.0273 29.949 91.2374 29.7186 91.4345C30.379 92.2073 31.2181 92.8076 32.1648 93.1843C34.1647 93.8581 36.3352 93.8698 38.3558 93.2177C37.8479 92.3877 37.5285 91.4553 37.4199 90.4855C37.3113 89.5157 37.4161 88.5318 37.7269 87.6023C38.48 85.5719 40.2626 84.5796 42.1635 85.1347C43.9187 85.6905 44.6258 87.3513 43.9815 89.3738C43.3084 91.255 41.9483 92.8188 40.1755 93.7496C41.0917 94.7908 42.2359 95.6071 43.5209 96.1366C44.7778 96.6534 46.1739 96.743 47.4955 96.3918C46.607 94.0224 47.204 91.0485 48.8549 89.626C49.3625 89.1895 49.9952 88.9253 50.6602 88.8722C51.3253 88.8191 51.9877 88.98 52.5505 89.3311C54.0633 90.1295 54.4977 91.5856 53.6924 93.2253C52.9637 94.709 51.2468 96.2177 49.1817 97.0668C50.0897 98.299 51.6122 98.9443 53.5825 98.9147C56.118 98.5686 57.2628 97.1764 58.3738 95.8354C59.6447 94.2911 60.9575 92.6961 64.0956 93.9692C64.2393 94.027 64.3536 94.1397 64.4132 94.2824C64.4729 94.4251 64.4731 94.5862 64.4138 94.7303C64.3679 94.8077 64.3066 94.875 64.2337 94.9279ZM48.6028 96.0148C50.4487 95.2894 51.999 93.967 52.6258 92.6912C53.1499 91.6317 52.9263 90.8366 51.9693 90.3321C51.6174 90.0887 51.1926 89.9713 50.7631 89.9988C50.3336 90.0263 49.9243 90.1971 49.6011 90.4836C48.471 91.4366 47.824 93.8578 48.5644 95.9327C48.5831 95.9569 48.5962 95.9849 48.6028 96.0148ZM39.4825 92.809C41.0594 92.0512 42.2855 90.7138 42.9015 89.0797C43.0648 88.5608 43.4833 86.8278 41.849 86.3148C40.2928 85.858 39.2965 86.9421 38.8753 88.0598C38.6149 88.8501 38.5342 89.6867 38.6393 90.5085C38.7443 91.3302 39.0325 92.1162 39.4825 92.809ZM28.5076 84.5257C28.2089 84.7949 27.9986 85.1478 27.9046 85.5373C27.5797 86.8331 27.9551 88.804 29.0549 90.492C29.244 90.3326 29.4241 90.1807 29.5434 90.0115C30.9389 88.5146 31.7054 86.3356 31.2915 85.0681C31.2265 84.8334 31.0941 84.6234 30.9104 84.464C30.7267 84.3046 30.4998 84.2027 30.2576 84.1709C29.9593 84.0952 29.647 84.0878 29.3441 84.1492C29.0411 84.2106 28.7552 84.3393 28.5076 84.5257ZM18.8979 84.4852C18.7473 84.631 18.6304 84.8077 18.5553 85.0027C18.4802 85.1978 18.4487 85.4066 18.4632 85.6142C18.437 86.7343 19.171 88.2809 20.311 89.5689C21.5497 88.2423 21.9433 86.416 21.5648 85.3093C21.4514 84.9506 21.2183 84.6425 20.9041 84.436C20.5899 84.2295 20.2135 84.137 19.837 84.1737C19.4998 84.1762 19.1711 84.2852 18.8979 84.4852Z" fill="#6F46BE"/>
</svg>
