<svg width="235" height="205" viewBox="0 0 235 205" fill="none" xmlns="http://www.w3.org/2000/svg">
<g clip-path="url(#clip0_270_36153)">
<mask id="mask0_270_36153" style="mask-type:luminance" maskUnits="userSpaceOnUse" x="5" y="0" width="230" height="205">
<path d="M234.981 0H5.2832V205H234.981V0Z" fill="white"/>
</mask>
<g mask="url(#mask0_270_36153)">
<path d="M73.433 199.701C4.50397 188.45 -14.7443 116.99 27.7024 74.0143C66.3578 34.873 46.295 4.34717 109.755 0.341149C165.931 -3.20695 222.625 64.8772 233.368 122.689C248.06 201.616 159.895 213.819 73.433 199.699V199.701Z" fill="#EDE3FF"/>
</g>
<mask id="mask1_270_36153" style="mask-type:luminance" maskUnits="userSpaceOnUse" x="0" y="18" width="235" height="163">
<path d="M234.982 18.1909H0V180.888H234.982V18.1909Z" fill="white"/>
</mask>
<g mask="url(#mask1_270_36153)">
<path d="M116.538 77.4245C127.89 77.4245 137.093 71.5964 137.093 64.4072C137.093 57.2179 127.89 51.3899 116.538 51.3899C105.186 51.3899 95.9834 57.2179 95.9834 64.4072C95.9834 71.5964 105.186 77.4245 116.538 77.4245Z" fill="#6F46BE"/>
<path d="M116.538 77.7565C105.021 77.7565 95.6504 71.7748 95.6504 64.4072C95.6504 57.0395 105.038 51.0578 116.538 51.0578C128.039 51.0578 137.429 57.0395 137.429 64.4072C137.429 71.7748 128.059 77.7565 116.538 77.7565ZM116.538 51.7204C105.386 51.7204 96.3151 57.4141 96.3151 64.4056C96.3151 71.3972 105.386 77.0909 116.538 77.0909C127.691 77.0909 136.765 71.4018 136.765 64.4056C136.765 57.4095 127.691 51.7204 116.538 51.7204Z" fill="#6F46BE"/>
<path d="M118.396 180.556C163.957 180.556 200.891 173.905 200.891 165.701C200.891 157.497 163.957 150.846 118.396 150.846C72.8356 150.846 35.9014 157.497 35.9014 165.701C35.9014 173.905 72.8356 180.556 118.396 180.556Z" fill="#6F46BE"/>
<path d="M118.396 180.888C96.3403 180.888 75.6022 179.34 60.0029 176.532C50.8792 174.887 35.5645 171.295 35.5645 165.701C35.5645 160.107 50.8746 156.512 59.9983 154.867C75.5977 152.059 96.3357 150.511 118.391 150.511C140.446 150.511 161.18 152.059 176.784 154.867C185.907 156.512 201.218 160.104 201.218 165.701C201.218 171.298 185.907 174.887 176.784 176.532C161.184 179.34 140.449 180.888 118.394 180.888H118.396ZM118.396 151.173C96.3781 151.173 75.6825 152.719 60.1194 155.521C44.9395 158.256 36.2306 161.965 36.2306 165.701C36.2306 169.437 44.9365 173.141 60.1164 175.877C75.6794 178.679 96.3751 180.224 118.393 180.224C140.41 180.224 161.103 178.679 176.666 175.877C191.846 173.141 200.554 169.433 200.554 165.701C200.554 161.969 191.846 158.256 176.666 155.521C161.106 152.719 140.411 151.173 118.396 151.173Z" fill="#6F46BE"/>
<path d="M232.459 69.9901C228.122 44.9518 220.676 66.9454 220.676 66.9454C218.579 84.9923 192.235 112.576 159.671 88.9103C135.187 71.1061 115.323 77.0727 115.323 77.0727C115.323 77.0727 96.4395 74.5542 71.942 90.0506C55.2026 100.639 33.1882 111.912 26.926 65.1289C24.8745 53.6871 16.8969 71.0015 16.8969 71.0015C16.8969 71.0015 10.1684 156.537 76.2101 133.425C71.7421 147.248 69.4423 165.616 68.3385 177.51C82.2194 179.42 99.5842 180.558 118.398 180.558C139.007 180.558 157.83 179.199 172.286 176.949C170.595 165.055 167.131 146.808 160.413 130.693C196.395 141.85 227.495 107.535 232.459 69.9917V69.9901Z" fill="white"/>
<path d="M79.2437 124.152C79.2437 124.152 86.004 124.244 83.6738 134.69C81.3437 145.136 77.8901 143.92 76.694 151.566C75.4979 159.213 83.2226 173.574 80.4262 178.794C76.6001 178.702 68.0215 177.302 68.0215 177.302C68.0215 177.302 72.7953 139.255 77.3314 128.528C78.4609 125.87 79.2422 124.15 79.2422 124.15L79.2437 124.152Z" fill="#EDE3FF"/>
<path d="M127.085 89.7109C127.085 89.7109 121.491 86.2144 119.811 87.9626C118.132 89.7109 117.993 95.2514 119.11 100.352C119.503 102.134 121.071 108.514 119.811 114.928C118.552 121.342 119.615 142.22 120.509 151.366C121.908 165.657 123.168 167.69 123.727 180.515C120.791 180.661 117.715 180.515 117.715 180.515L116.733 81.2576C116.733 81.2576 119.811 82.9953 127.085 89.7094V89.7109Z" fill="#EDE3FF"/>
<path d="M118.396 180.888C100.114 180.888 82.7871 179.831 68.29 177.837C68.1128 177.813 67.9856 177.652 68.0038 177.475C69.1575 165.038 71.4241 147.481 75.6892 133.955C58.7362 139.747 45.1082 138.796 35.1366 131.127C23.7888 122.376 19.3677 106.32 17.6598 94.3962C16.541 86.4539 16.2063 78.4222 16.6621 70.4147C16.6651 70.3722 16.6757 70.3328 16.6954 70.2949C17.1708 69.3245 21.4314 60.8363 24.673 61.2821C25.9493 61.461 26.8063 62.8803 27.2983 65.6263C29.7375 83.849 34.6112 94.4296 42.2557 97.9898C51.0236 102.084 62.0869 95.8928 71.7693 89.767C95.3325 74.865 113.984 76.589 115.314 76.733C115.959 76.5496 120.775 75.288 128.366 75.9825C135.732 76.6466 147.18 79.4017 159.887 88.6419C176.248 100.54 189.737 98.6282 198.173 94.933C211.137 89.253 219.281 76.2554 220.368 66.906C220.371 66.8818 220.376 66.859 220.385 66.8363C220.518 66.4511 223.708 57.4308 227.386 57.7461C229.805 57.9463 231.66 61.9599 233.056 70.0129C233.062 70.0508 233.062 70.0887 233.056 70.1266C228.562 95.1711 215.88 116.232 199.105 126.422C187.471 133.504 174.298 135.155 160.982 131.215C167.467 147.034 170.881 164.752 172.616 176.902C172.642 177.082 172.518 177.251 172.338 177.278C157.356 179.607 138.2 180.89 118.396 180.89V180.888ZM68.6957 177.232C83.099 179.196 100.273 180.224 118.396 180.224C138.024 180.224 157.011 178.961 171.912 176.668C170.15 164.402 166.684 146.599 160.108 130.805C160.06 130.687 160.083 130.552 160.169 130.456C160.252 130.364 160.381 130.328 160.502 130.359C173.858 134.503 187.094 132.939 198.755 125.839C215.355 115.739 227.913 94.8845 232.361 70.0553C230.723 60.6301 228.704 58.5104 227.298 58.3936C224.685 58.1783 221.876 64.5027 220.983 67.0076C220.377 72.1357 217.932 77.7747 214.089 82.8907C209.871 88.507 204.449 92.8769 198.401 95.5198C189.828 99.3044 176.094 101.276 159.48 89.1787C135.405 71.6747 115.604 77.3305 115.421 77.3866C115.376 77.3987 115.327 77.3987 115.282 77.3866C115.093 77.3593 96.2183 75.0606 72.1205 90.3144C64.5245 95.1195 56.0851 99.9519 48.4573 99.9519C46.2195 99.9762 44.0045 99.5046 41.9726 98.569C34.1283 94.9133 29.1122 84.1583 26.6458 65.7066C26.2234 63.3807 25.5087 62.0509 24.5821 61.9174C22.255 61.5854 18.5986 67.9523 17.3222 70.5087C16.8771 78.451 17.2117 86.4176 18.32 94.2946C20.0112 106.093 24.3762 121.965 35.5545 130.579C45.4428 138.197 59.0815 139.04 76.107 133.089C76.2812 133.028 76.4704 133.121 76.5295 133.293C76.5537 133.362 76.5537 133.436 76.5325 133.504C72.1887 146.961 69.8782 164.638 68.7018 177.22V177.231L68.6957 177.232Z" fill="#6F46BE"/>
<path d="M76.4805 133.77C78.0657 129.116 79.7417 127.002 80.9212 124.537C78.0626 123.507 75.41 122.836 71.9958 126.936C68.5816 131.036 66.0728 132.399 57.1913 131.489C51.4243 130.898 49.6922 134.337 49.1865 136.807C56.4298 138.059 65.3143 137.219 76.2064 133.407C76.1761 133.513 76.5092 133.673 76.4789 133.77H76.4805Z" fill="#6F46BE"/>
<path d="M187.471 101.306C191.573 104.038 200.682 104.264 204.553 98.7995C208.424 93.3348 211.61 91.5153 218.214 87.6427C223.283 84.6723 222.449 76.8756 219.727 72.4844C215.634 84.7481 202.423 98.5903 184.716 98.4068C185.444 99.5364 186.38 100.52 187.471 101.304V101.306Z" fill="#EDE3FF"/>
<path d="M226.762 81.3531C226.386 86.1188 226.473 93.118 222.363 95.9762C218.254 98.8344 211.93 100.865 210.43 108.273C209.836 110.977 209.96 113.788 210.788 116.429C221.561 104.96 228.485 90.4599 231.517 75.4487C230.072 75.4791 227.027 77.9476 226.76 81.3547L226.762 81.3531Z" fill="#6F46BE"/>
<path d="M51.1327 103.221C58.6485 104.358 61.8356 97.0725 67.0879 96.3886C72.3401 95.7048 83.7077 90.6995 88.9494 86.3721C91.1039 84.5525 92.9783 82.4252 94.5105 80.0583C87.9622 81.9627 80.2178 85.156 71.8117 90.4736C62.8001 96.1733 52.5332 102.169 44 99.1847C45.2824 100.877 47.4808 102.668 51.1327 103.223V103.221Z" fill="#EDE3FF"/>
<path d="M168.269 126.764C164.34 122.325 154.857 119.048 153.807 123.733C156.264 127.397 158.927 130.917 161.784 134.279H161.848C161.389 133.077 160.912 131.88 160.419 130.693C169.102 133.389 178.381 133.504 187.13 131.025C186.186 130.523 185.189 130.127 184.157 129.845C177.662 127.961 172.181 131.204 168.269 126.764Z" fill="#6F46BE"/>
<path d="M117.712 180.706C117.529 180.706 117.379 180.558 117.379 180.374L116.402 80.924C116.402 80.7406 116.551 80.592 116.735 80.592C116.919 80.592 117.069 80.7406 117.069 80.924L118.045 180.374C118.045 180.558 117.897 180.706 117.712 180.706Z" fill="#6F46BE"/>
<path d="M232.19 53.8614C233.852 55.0274 233.852 54.4558 234.898 56.9228C234.898 56.9228 233.639 63.9022 232.904 69.7445C228.939 71.981 224.474 71.3199 220.5 69.0803C220.686 66.8908 217.652 61.2002 212.047 57.2655C208.649 54.8758 211.276 51.9479 215.164 54.8667C217.428 56.5619 218.073 57.5248 218.073 57.5248C219.269 57.0198 220.12 58.3784 221.107 58.4648C223.39 55.4732 225.219 50.5317 221.226 42.9775C220.465 41.3597 220.195 38.2755 224.121 42.1163C226.218 44.8683 227.478 48.098 228.017 51.7083C229.14 48.4543 229.227 44.8759 228.682 41.0928C228.406 38.6561 230.178 36.4605 231.596 40.5803C232.676 45.3035 233.028 49.7796 232.188 53.8599L232.19 53.8614Z" fill="#EDE3FF"/>
<path d="M223.54 65.0516C223.54 65.0516 224.767 57.3049 218.618 57.7401C216.93 58.2526 216.866 59.4019 219.043 59.1154C221.221 58.8288 223.165 61.6839 223.54 65.0516Z" fill="white"/>
<path d="M230.018 53.2337C230.018 53.2337 225.847 52.7545 225.364 58.4042C225.131 61.781 226.896 59.9068 226.957 58.4573C227.017 57.0077 226.607 55.5688 230.018 53.2322V53.2337Z" fill="white"/>
<path d="M231.698 54.6817C231.698 54.6817 228.161 54.9243 228.494 60.0418C228.641 61.8538 229.711 60.9091 229.879 59.7795C230.047 58.6498 229.022 57.0244 231.698 54.6817Z" fill="white"/>
<path d="M226.781 60.8636H226.622C225.838 60.7802 225.034 60.0661 225.113 58.7029C225.192 57.3398 225.446 53.2291 229.331 52.9168C231.944 52.7045 232.951 54.3588 232.987 54.4315C233.063 54.5983 232.987 54.7955 232.821 54.8713C232.677 54.9365 232.507 54.891 232.415 54.7636C232.379 54.7045 231.551 53.4005 229.376 53.5733C226.404 53.8129 225.896 56.6347 225.77 58.7378C225.714 59.6688 226.206 60.1464 226.684 60.1965C227.235 60.2556 227.861 59.8144 228.038 58.6938C228.067 58.5103 228.238 58.3845 228.423 58.4133C228.606 58.4421 228.731 58.6135 228.704 58.7969C228.479 60.2359 227.581 60.8606 226.783 60.8606L226.781 60.8636Z" fill="#6F46BE"/>
<path d="M221.284 58.3254C221.196 58.3254 221.111 58.2905 221.048 58.2283C220.918 58.0994 220.916 57.8887 221.046 57.7583C221.046 57.7583 221.046 57.7583 221.048 57.7567C221.228 57.5778 225.416 53.2701 221.849 45.6159C220.333 42.3619 220.053 40.5469 220.995 40.0587C222.174 39.4507 224.426 41.6068 225.396 43.305C227.148 46.3695 228.388 50.659 228.026 52.4907C227.991 52.6742 227.814 52.7955 227.631 52.7606C227.448 52.7257 227.327 52.5483 227.361 52.3648C227.651 50.8592 226.62 46.8046 224.809 43.6341C223.719 41.7236 221.817 40.3771 221.292 40.6425C221.258 40.6425 220.485 41.1216 222.442 45.3247C226.215 53.4202 221.555 58.1737 221.508 58.2192C221.449 58.2814 221.37 58.3178 221.285 58.3223L221.284 58.3254Z" fill="#6F46BE"/>
<path d="M227.788 71.3654C225.101 71.3229 222.468 70.5936 220.144 69.2456C220.026 69.1789 219.961 69.047 219.977 68.9136C220.194 67.3412 217.352 61.4186 211.847 57.5536C210.677 56.7333 210.059 55.7462 210.148 54.8485C210.204 54.2526 210.59 53.7401 211.146 53.5187C212.236 53.0396 213.805 53.446 215.364 54.6059C216.448 55.3913 217.463 56.2662 218.398 57.2215C219.585 56.8121 221.301 57.411 222.589 58.7135C224.433 60.574 224.813 63.1107 223.607 65.4959C223.523 65.6596 223.323 65.7263 223.16 65.6445C222.995 65.5626 222.93 65.3624 223.012 65.1972C224.085 63.0774 223.749 60.8303 222.117 59.1821C220.954 58.0054 219.378 57.4611 218.46 57.916C218.323 57.9842 218.156 57.9478 218.058 57.8295C217.12 56.8318 216.086 55.9296 214.969 55.1381C213.37 53.9448 212.088 53.8326 211.415 54.1404C211.088 54.2663 210.858 54.5635 210.82 54.9107C210.757 55.5551 211.29 56.339 212.239 57.0107C217.631 60.7954 220.672 66.6482 220.662 68.7695C224.65 70.9499 229.165 71.2926 232.502 69.6732C234.098 62.9697 234.297 58.9592 234.3 58.9182C234.437 57.0638 234.091 55.8038 233.303 55.2625C232.441 54.6681 231.309 55.0926 230.867 55.3019C228.812 56.2693 228.782 58.0403 228.759 59.2109V59.6536C228.683 60.1874 229.056 60.6817 229.59 60.7575C229.596 60.7575 229.602 60.759 229.607 60.759C230.046 60.806 230.605 60.5558 230.744 59.6961C231.077 57.596 232.309 57.3989 232.362 57.3928C232.546 57.3656 232.717 57.4929 232.742 57.6764C232.77 57.8599 232.643 58.0297 232.458 58.057C232.414 58.057 231.643 58.2359 231.398 59.8053C231.206 61.035 230.297 61.5096 229.537 61.4277C228.641 61.3246 227.997 60.5164 228.097 59.6203V59.2078C228.12 58.0342 228.158 55.8508 230.586 54.7075C231.746 54.1632 232.877 54.1662 233.684 54.7075C234.682 55.402 235.12 56.8273 234.964 58.9516C234.964 58.9849 234.758 63.1092 233.112 69.9719C233.089 70.0675 233.026 70.1478 232.939 70.1918C231.337 70.9848 229.57 71.3866 227.784 71.3654H227.788Z" fill="#6F46BE"/>
<path d="M232.193 54.2238H232.153C231.972 54.2011 231.841 54.0358 231.864 53.8538C232.465 49.0366 232.429 46.2982 231.708 42.1239C231.322 39.8873 230.273 38.5742 229.714 38.6576C229.355 38.7077 228.777 39.6053 229.136 42.6151C229.622 46.4786 229.092 50.4013 227.598 53.9979C227.516 54.1631 227.317 54.2299 227.152 54.1495C226.992 54.0707 226.922 53.8796 226.996 53.7158C228.418 50.2284 228.928 46.4347 228.479 42.6955C228.014 38.8199 228.994 38.089 229.619 37.9996C230.742 37.8328 231.946 39.5947 232.374 42.0117C233.109 46.2588 233.15 49.0472 232.533 53.9357C232.511 54.1055 232.365 54.2299 232.194 54.2253L232.193 54.2238Z" fill="#6F46BE"/>
<path d="M18.9834 57.7401C19.7208 56.0145 19.851 56.5634 19.851 56.5634C19.851 56.5634 17.6178 53.819 17.4012 50.5317C17.1847 47.2444 19.9434 45.0078 20.8684 49.8963C21.7935 54.7848 22.9124 53.1139 25.0094 57.2943C26.2691 59.7962 27.1563 65.8719 27.1563 65.8719C26.5916 68.7074 20.2431 70.7013 16.885 70.8969C16.885 69.8233 14.6881 66.5103 10.2367 69.2881C10.2367 69.2881 5.87624 71.3184 1.94725 68.5542C-1.16111 66.3647 0.899526 65.1138 2.39239 65.8416C3.88525 66.5694 6.32137 67.5398 8.84379 65.1077C7.15259 63.925 6.54999 61.3124 6.9921 58.847C4.00032 56.6696 2.75425 53.6264 3.40832 49.2095C3.89433 47.4946 5.96102 46.5908 6.13665 49.2459C5.84747 51.6719 6.91488 53.5294 8.62274 55.1184L10.3548 53.7219C9.71589 51.6401 9.66441 49.4233 10.208 47.3141C10.1156 45.8555 13.283 44.9351 13.1331 47.813C13.0726 52.6787 14.6426 56.2814 18.9804 57.7401H18.9834Z" fill="#EDE3FF"/>
<path d="M3.68654 48.794C3.68654 48.794 2.04833 54.3042 6.72071 58.4315C5.52763 56.7696 3.98178 52.236 5.05827 49.4157C6.13477 46.5954 4.04385 47.7402 3.68502 48.794H3.68654Z" fill="white"/>
<path d="M11.2778 53.3959C11.2778 53.3959 4.58266 55.9024 7.56535 63.6384C7.51842 62.0372 7.15353 57.3246 11.2218 55.3095C15.2901 53.2943 11.6336 53.1427 11.2778 53.3959Z" fill="white"/>
<path d="M18.2822 47.3914C16.9165 50.3831 17.4374 53.8978 19.6116 56.3648C18.6441 58.8182 16.3942 62.3466 21.3966 65.0061C22.3944 65.8097 23.916 64.9667 21.7858 63.5702C19.4586 62.0387 19.1271 59.1502 21.5026 56.1525C19.9734 54.0828 18.8439 52.7591 19.0332 49.073C19.1028 47.4385 18.2822 47.3914 18.2822 47.3914Z" fill="white"/>
<path d="M16.9193 71.3321C16.839 71.3321 16.7603 71.3017 16.6997 71.2487C16.6301 71.1865 16.5892 71.0985 16.5862 71.0061C16.6165 70.2327 16.2198 69.5049 15.5521 69.1122C14.2227 68.3207 11.832 68.6907 9.2097 70.1099C9.05678 70.1827 5.80307 71.6747 1.76053 68.8302C-0.333409 67.3412 -0.066935 66.3238 0.148061 65.9553C0.54323 65.2912 1.63789 65.1047 2.54179 65.5459C4.22693 66.3708 6.22549 66.9485 8.33609 65.1274C6.95981 63.9371 6.29514 61.7537 6.59038 59.311C6.85988 57.0775 8.07567 54.3254 10.6723 53.3292C12.5134 52.6151 13.2053 53.2261 13.4551 53.6613C13.9108 54.4422 13.5248 55.731 12.6148 56.4831C11.6473 57.3246 11.0417 58.5073 10.9236 59.7825C10.8676 60.3678 11.0553 60.9516 11.4414 61.3943C11.5701 61.5262 11.5671 61.7355 11.4369 61.8644C11.3067 61.9933 11.0947 61.9902 10.966 61.8598C10.4391 61.2836 10.1817 60.5103 10.2574 59.7325C10.3907 58.2708 11.0841 56.9183 12.1924 55.9569C12.8313 55.4293 13.1659 54.471 12.8843 53.9827C12.6421 53.5673 11.9244 53.5536 10.913 53.9433C8.58591 54.844 7.49881 57.3459 7.25656 59.3868C6.98101 61.7264 7.66839 63.8735 9.04164 64.8333C9.12188 64.8909 9.17336 64.9803 9.18093 65.0789C9.1885 65.1775 9.15216 65.276 9.081 65.3443C6.23306 68.0857 3.43054 66.7241 2.24957 66.1388C1.61064 65.8264 0.920231 65.9629 0.720375 66.2919C0.52052 66.621 0.790022 67.326 2.14359 68.2858C5.86969 70.912 8.87812 69.5322 8.9084 69.5155C11.7669 67.9765 14.3166 67.6172 15.8882 68.5451C16.6437 68.9879 17.1388 69.7673 17.2176 70.6391C20.9073 70.213 26.0763 68.1964 26.6471 65.6536C26.5911 65.0789 26.0415 59.7279 24.8893 57.4308C24.3624 56.2905 23.6175 55.2655 22.6954 54.4134C21.8051 53.5491 21.0966 52.8652 20.5409 49.9434C20.1624 47.9494 19.5098 47.3172 19.0314 47.3778C18.344 47.4642 17.6248 48.8471 17.7323 50.4953C17.9352 53.6325 20.0852 56.3117 20.1094 56.3375C20.2139 56.4619 20.2139 56.6423 20.1094 56.7666C19.5992 57.4626 19.1843 58.2238 18.877 59.0304C18.4288 59.9614 18.3864 61.035 18.7573 61.9978C19.5159 63.8689 21.7491 64.8196 21.7718 64.8287C21.9414 64.9 22.0217 65.0941 21.952 65.2639C21.8809 65.4337 21.6871 65.5141 21.516 65.4428C21.413 65.4004 19.0102 64.3799 18.1426 62.2525C17.7005 61.1229 17.7444 59.8614 18.2653 58.7666C18.5787 57.9872 18.9739 57.2443 19.4417 56.5468C18.9103 55.8326 17.2645 53.4065 17.0783 50.5377C16.9526 48.6272 17.8065 46.8759 18.9466 46.7319C19.4281 46.6682 20.609 46.8486 21.1904 49.8296C21.7082 52.5483 22.3169 53.1336 23.1542 53.9479C24.1292 54.8516 24.9196 55.9372 25.4813 57.1412C26.7516 59.6703 27.2891 65.4095 27.3087 65.6521C27.3133 65.6839 27.3133 65.7173 27.3087 65.7491C26.7001 68.7908 20.7938 70.9803 16.9511 71.329H16.9178L16.9193 71.3321Z" fill="#6F46BE"/>
<path d="M7.00059 59.1654C6.93397 59.1654 6.86887 59.1457 6.81436 59.1093C4.09966 57.0517 2.63405 53.7416 2.93535 50.3482C3.1246 47.9616 4.15568 47.1837 4.9657 47.2307C5.83325 47.2899 6.70686 48.3149 6.62813 50.0995C6.48581 52.8015 8.79172 54.7848 8.81595 54.8061C8.95373 54.9243 8.97189 55.1321 8.85531 55.2716C8.73873 55.4126 8.52828 55.4323 8.38747 55.3155C8.28148 55.2261 5.80449 53.1048 5.96498 50.0647C6.03462 48.7546 5.50016 47.9343 4.94147 47.8979C4.38278 47.8615 3.75748 48.6318 3.61213 50.4043C3.35625 53.5536 4.70679 56.6211 7.20196 58.5604C7.35337 58.6635 7.39273 58.8712 7.28826 59.0229C7.22467 59.1169 7.11717 59.173 7.00211 59.1684L7.00059 59.1654Z" fill="#6F46BE"/>
<path d="M19.0395 58.1555C18.9971 58.1555 18.9547 58.1449 18.9168 58.1282C13.336 55.8811 12.4987 51.4808 12.7743 48.1875C12.8742 47.0139 12.6441 46.2633 12.149 46.1208C11.6539 45.9783 10.9059 46.4165 10.5865 47.0184C10.4941 47.3975 9.73254 50.7879 10.6834 53.6658C10.7409 53.8387 10.647 54.0267 10.4744 54.0843C10.3003 54.1434 10.1126 54.0509 10.0535 53.8766C10.0535 53.8766 10.0535 53.8766 10.0535 53.8751C8.98611 50.6575 9.91423 46.979 9.95359 46.8259C9.95813 46.8031 9.9657 46.7804 9.9763 46.7591C10.3881 45.9419 11.4359 45.2368 12.3291 45.49C12.8182 45.6265 13.6116 46.1541 13.4359 48.2512C13.18 51.3156 13.9613 55.4126 19.1666 57.5141C19.3362 57.5839 19.418 57.7765 19.3498 57.9463C19.2999 58.0721 19.1772 58.1555 19.041 58.1555H19.0395Z" fill="#6F46BE"/>
<path d="M10.7193 63.6915C10.5361 63.6915 10.3877 63.5429 10.3877 63.3594C10.3877 63.3154 10.3968 63.2715 10.4134 63.2305C11.3779 60.9045 14.2728 58.3223 14.4015 58.2116C14.5453 58.0964 14.7542 58.1191 14.8693 58.2632C14.9753 58.3951 14.9647 58.5877 14.8436 58.7075C14.8133 58.7347 11.9381 61.3124 11.0312 63.4868C10.9797 63.6126 10.8555 63.6945 10.7193 63.693V63.6915Z" fill="#6F46BE"/>
<path d="M18.3571 74.8286C17.8636 74.8316 17.3715 74.8089 16.8809 74.7588C16.6977 74.7376 16.566 74.5723 16.5872 74.3889C16.6084 74.2054 16.7749 74.0735 16.9581 74.0947C17.0278 74.0947 24.1514 74.8559 27.3552 70.5223C27.4642 70.3768 27.6701 70.3449 27.817 70.4526C27.9653 70.5602 27.9987 70.768 27.8912 70.9166C25.3551 74.357 20.7281 74.8286 18.3586 74.8286H18.3571Z" fill="#6F46BE"/>
<path d="M228.975 74.5435C225.646 74.5466 222.359 73.8021 219.355 72.3631C219.185 72.2934 219.104 72.0993 219.173 71.9295C219.243 71.7596 219.437 71.6777 219.606 71.7475C219.626 71.7551 219.646 71.7657 219.664 71.7778C223.452 73.5564 227.669 74.219 231.82 73.6914C232.003 73.6656 232.173 73.793 232.199 73.9764C232.224 74.1599 232.096 74.3297 231.913 74.3555C230.939 74.4874 229.956 74.5496 228.974 74.542L228.975 74.5435Z" fill="#6F46BE"/>
<path d="M166.678 150.027C162.69 142.403 161.08 143.454 159.053 140.306C155.998 135.566 158.634 134.221 156.394 131.706C154.155 129.19 151.887 123.065 155.487 122.543C159.088 122.021 166.679 150.027 166.679 150.027H166.678Z" fill="#6F46BE"/>
<path d="M108.538 65.6763C107.062 69.1425 93.9892 74.4101 89.8104 64.4132C86.154 55.6764 93.703 51.1397 97.0597 51.5112C97.0597 51.5112 93.9877 41.8737 104.845 39.8798C102.203 45.9585 105.062 53.728 105.062 53.728C105.062 53.728 103.06 60.9 108.538 65.6763Z" fill="#6F46BE"/>
<path d="M98.5388 70.5314H98.4994C95.5349 70.5314 91.565 69.4746 89.5014 64.5497C87.5437 59.8644 88.8064 56.6438 90.213 54.7651C92.0041 52.3724 94.7309 51.1791 96.622 51.1655C96.3434 49.9888 95.818 46.7682 97.5228 43.9267C98.8794 41.6705 101.322 40.2042 104.789 39.5735C104.969 39.5416 105.142 39.6629 105.173 39.8434C105.184 39.907 105.176 39.9723 105.151 40.0314C102.595 45.9146 105.343 53.5536 105.373 53.6309C105.394 53.6976 105.394 53.7704 105.373 53.8371C105.354 53.9069 103.499 60.856 108.751 65.4291C108.86 65.5247 108.895 65.6793 108.837 65.8112C107.93 67.9522 103.137 70.5299 98.5403 70.5299L98.5388 70.5314ZM96.6477 51.8235C94.9126 51.8235 92.3599 53.0002 90.7444 55.1472C89.4453 56.8849 88.278 59.8795 90.1161 64.2768C92.0374 68.8726 95.7363 69.8461 98.5024 69.8567H98.5418C102.916 69.8567 107.142 67.4807 108.124 65.746C103.138 61.2123 104.495 54.662 104.715 53.7492C104.382 52.8182 102.159 46.0525 104.306 40.3331C101.358 40.9806 99.2701 42.2967 98.0936 44.2512C96.1617 47.4718 97.3654 51.3732 97.3926 51.4263C97.4275 51.5339 97.4047 51.6522 97.3321 51.7386C97.2609 51.825 97.1504 51.8705 97.0399 51.8584C96.9096 51.8402 96.7794 51.8281 96.6477 51.825V51.8235Z" fill="#6F46BE"/>
<path d="M124.171 65.6763C125.647 69.1425 138.719 74.4101 142.898 64.4132C146.555 55.6764 139.006 51.1397 135.649 51.5112C135.649 51.5112 138.721 41.8737 127.864 39.8798C130.506 45.9722 127.641 53.7522 127.641 53.7522C127.641 53.7522 129.635 60.9015 124.171 65.6763Z" fill="#6F46BE"/>
<path d="M134.168 70.5314C129.571 70.5314 124.777 67.9522 123.863 65.8052C123.807 65.6717 123.843 65.5171 123.952 65.4231C129.202 60.85 127.347 53.9008 127.326 53.8311C127.304 53.7644 127.304 53.6916 127.326 53.6249C127.356 53.5491 130.104 45.9085 127.548 40.0253C127.476 39.857 127.553 39.6614 127.721 39.5886C127.781 39.5629 127.848 39.5553 127.913 39.5674C131.377 40.1982 133.819 41.6644 135.176 43.9207C136.881 46.7591 136.355 49.9828 136.077 51.1594C137.968 51.1594 140.693 52.3664 142.486 54.7591C143.892 56.6362 145.145 59.8568 143.197 64.5436C141.134 69.4761 137.164 70.5254 134.199 70.5254L134.166 70.5314H134.168ZM124.581 65.7551C125.578 67.4898 129.789 69.8658 134.163 69.8658H134.202C136.969 69.8658 140.668 68.8681 142.589 64.2859C144.427 59.8886 143.254 56.894 141.961 55.1563C140.225 52.8303 137.403 51.6507 135.682 51.8326C135.499 51.8523 135.335 51.7204 135.315 51.5385C135.311 51.4915 135.315 51.446 135.329 51.4005C135.329 51.3611 136.542 47.4597 134.611 44.2482C133.435 42.2937 131.347 40.9776 128.399 40.3301C130.546 46.0495 128.319 52.8167 127.993 53.7462C128.21 54.6696 129.556 61.2199 124.579 65.7536L124.581 65.7551Z" fill="#6F46BE"/>
<path d="M104.27 52.1162C104.27 53.8948 103.11 55.0775 102.046 55.0047C100.407 54.8849 99.5488 52.8409 99.5488 51.0639C99.5488 49.2868 100.606 48.6075 101.673 48.6075C102.74 48.6075 104.27 50.3421 104.27 52.1177V52.1162Z" fill="#EDE3FF"/>
<path d="M102.143 55.3398H102.023C100.199 55.2109 99.2178 53.0426 99.2178 51.0699C99.2178 49.0973 100.547 48.2815 101.674 48.2815C102.923 48.2815 104.602 50.1829 104.602 52.1238C104.631 53.1002 104.254 54.0464 103.562 54.7363C103.183 55.1108 102.674 55.3261 102.143 55.3413V55.3398ZM101.674 48.9396C101.254 48.9396 99.8824 49.0927 99.8824 51.0639C99.8824 52.7621 100.7 54.5741 102.07 54.6726C102.461 54.6802 102.838 54.5255 103.11 54.2435C103.668 53.6779 103.966 52.9092 103.939 52.1162C103.939 50.4771 102.526 48.9396 101.675 48.9396H101.674Z" fill="#6F46BE"/>
<path d="M127.75 52.1162C127.75 53.8948 128.91 55.0775 129.974 55.0047C131.612 54.8849 132.471 52.8409 132.471 51.0639C132.471 49.2868 131.411 48.6075 130.344 48.6075C129.276 48.6075 127.752 50.3421 127.752 52.1177L127.75 52.1162Z" fill="#EDE3FF"/>
<path d="M129.874 55.3398C129.341 55.3231 128.834 55.1048 128.456 54.7287C127.765 54.0373 127.39 53.0927 127.419 52.1162C127.419 50.1753 129.081 48.2739 130.344 48.2739C131.481 48.2739 132.804 49.0048 132.804 51.0624C132.804 53.12 131.806 55.2033 129.998 55.3322L129.876 55.3383L129.874 55.3398ZM130.344 48.9396C129.493 48.9396 128.083 50.4786 128.083 52.1162C128.056 52.9077 128.354 53.6764 128.907 54.2435C129.181 54.524 129.558 54.6787 129.95 54.6726C131.32 54.5726 132.138 52.7621 132.138 51.0639C132.138 49.1003 130.765 48.9396 130.342 48.9396H130.344Z" fill="#6F46BE"/>
<path d="M102.396 77.2258C101.448 80.1204 103.822 87.3197 106.584 89.0331C109.728 84.6526 116.888 80.6511 116.888 80.6511L107.744 71.7945C107.744 71.7945 103.917 72.5587 102.396 77.2243V77.2258Z" fill="white"/>
<path d="M130.3 77.2258C131.204 80.1204 128.937 87.3197 126.312 89.0331C123.32 84.6526 116.493 80.6511 116.493 80.6511L125.222 71.7945C125.222 71.7945 128.834 72.5587 130.301 77.2243L130.3 77.2258Z" fill="white"/>
<path d="M126.312 72.4359C126.312 72.4359 131.381 75.4002 130.054 78.4419C128.728 81.4836 117.729 80.4722 117.729 80.4722C117.729 80.4722 126.076 77.5079 125.918 72.2797C126.463 72.4359 126.31 72.4359 126.31 72.4359H126.312Z" fill="#EDE3FF"/>
<path d="M106.583 89.3652C106.523 89.3652 106.462 89.347 106.411 89.3151C103.419 87.4638 101.122 80.0522 102.089 77.1212C103.655 72.3252 107.511 71.5018 107.673 71.4715C107.781 71.4503 107.891 71.4852 107.969 71.561L117.113 80.4176C117.188 80.4904 117.222 80.5935 117.21 80.6966C117.198 80.8012 117.136 80.8937 117.044 80.9453C116.974 80.9847 109.928 84.9604 106.866 89.2272C106.801 89.3167 106.695 89.3682 106.583 89.3637V89.3652ZM107.631 72.163C106.9 72.3661 103.991 73.4033 102.712 77.3274C101.861 79.9263 103.899 86.6328 106.508 88.5767C109.336 84.8239 114.818 81.4684 116.323 80.6011L107.631 72.163Z" fill="#6F46BE"/>
<path d="M126.29 89.3652C126.18 89.3652 126.077 89.3106 126.015 89.2196C123.09 84.9528 116.375 80.9816 116.302 80.9407C116.213 80.8892 116.152 80.7982 116.139 80.6951C116.125 80.5935 116.16 80.4919 116.231 80.4191L124.96 71.5625C125.04 71.4821 125.155 71.4488 125.265 71.473C125.421 71.5034 129.108 72.3297 130.604 77.1227C131.518 80.0537 129.317 87.4592 126.469 89.3091C126.416 89.3455 126.354 89.3652 126.289 89.3652H126.29ZM117.003 80.5844C118.443 81.4653 123.651 84.8178 126.371 88.56C128.854 86.5858 130.786 79.9187 129.974 77.3168C128.761 73.4184 126.022 72.3722 125.303 72.1584L117.003 80.5829V80.5844Z" fill="#6F46BE"/>
<path d="M107.988 62.5816C108.035 62.7211 107.482 68.3738 107.09 72.3586C107.043 72.8241 106.998 73.2653 106.957 73.6883C106.795 75.3487 107.599 76.9559 109.025 77.8232C110.766 78.8771 113.28 80.1234 115.836 80.4388C118.494 80.7709 121.609 79.4714 123.777 78.3085C125.412 77.4351 126.313 75.6186 126.018 73.7884L124.124 62.0099L107.988 62.5816Z" fill="#EDE3FF"/>
<path d="M116.714 80.821C116.411 80.821 116.108 80.8043 115.807 80.7679C113.148 80.4358 110.572 79.1424 108.864 78.1098C107.324 77.1743 106.456 75.4397 106.63 73.6459L106.761 72.3328C107.575 64.1403 107.662 62.8075 107.662 62.6286C107.651 62.5467 107.671 62.4633 107.718 62.3966C107.778 62.3102 107.875 62.2571 107.979 62.2541L124.124 61.6824C124.289 61.6809 124.43 61.7992 124.457 61.9614L126.351 73.7399C126.666 75.7111 125.697 77.6656 123.938 78.6087C121.989 79.6519 119.241 80.8225 116.714 80.8225V80.821ZM108.308 62.9045C108.264 63.6521 108.072 65.8219 107.421 72.3934L107.291 73.7065C107.141 75.2456 107.887 76.7346 109.209 77.5382C110.871 78.5359 113.36 79.7975 115.887 80.1098C118.47 80.4419 121.538 79.1455 123.632 78.0158C125.141 77.2076 125.973 75.5322 125.703 73.8415L123.851 62.3526L108.308 62.9045Z" fill="#6F46BE"/>
<path d="M127.282 37.6766C133.162 58.1055 127.009 63.878 127.009 63.878C125.115 68.1327 114.471 73.7945 105.938 64.0903C97.9999 55.0608 105.204 37.6387 105.204 37.6387C110.1 34.9564 117.274 35.6751 127.282 37.6751V37.6766Z" fill="#EDE3FF"/>
<path d="M116.604 69.7703C113.467 69.7703 109.488 68.63 105.688 64.3101C97.7106 55.2306 104.598 38.2346 104.896 37.5129C104.925 37.4431 104.977 37.3855 105.043 37.3506C110.006 34.6289 117.256 35.334 127.344 37.3506C127.466 37.3749 127.566 37.4659 127.6 37.5872C133.25 57.2352 127.911 63.4307 127.283 64.0721C126.263 66.2859 122.892 68.9636 118.597 69.6187C117.937 69.7202 117.271 69.7703 116.603 69.7718L116.604 69.7703ZM105.469 37.8662C104.887 39.3445 98.8007 55.4596 106.186 63.8613C110.65 68.9363 115.343 69.4306 118.485 68.95C122.584 68.3253 125.771 65.7961 126.691 63.7324C126.708 63.6915 126.735 63.6551 126.767 63.6263C126.823 63.5702 132.643 57.728 127 37.9526C117.248 36.0178 110.221 35.334 105.467 37.8768V37.8662H105.469Z" fill="#6F46BE"/>
<path d="M104.579 39.5614C104.579 39.5614 99.8219 52.3133 103.645 60.1904C104.27 59.2169 105.204 58.0069 105.204 58.0069C105.204 58.0069 102.319 52.6893 106.726 39.1307L104.579 39.5629V39.5614Z" fill="white"/>
<path d="M116.604 69.7703C113.467 69.7703 109.488 68.63 105.688 64.3101C97.7106 55.2306 104.598 38.2346 104.896 37.5129C104.925 37.4431 104.977 37.3855 105.043 37.3506C110.006 34.6289 117.256 35.334 127.344 37.3506C127.466 37.3749 127.566 37.4659 127.6 37.5872C133.25 57.2352 127.911 63.4307 127.283 64.0721C126.263 66.2859 122.892 68.9636 118.597 69.6187C117.937 69.7202 117.271 69.7703 116.603 69.7718L116.604 69.7703ZM105.469 37.8662C104.887 39.3445 98.8007 55.4596 106.186 63.8613C110.65 68.9363 115.343 69.4306 118.485 68.95C122.584 68.3253 125.771 65.7961 126.691 63.7324C126.708 63.6915 126.735 63.6551 126.767 63.6263C126.823 63.5702 132.643 57.728 127 37.9526C117.248 36.0178 110.221 35.334 105.467 37.8768V37.8662H105.469Z" fill="#6F46BE"/>
<path d="M101.361 40.8472C101.361 40.8472 112.756 34.9412 130.438 40.8472C131.628 37.6069 126.31 27.513 126.902 26.3697C127.494 25.2264 130.631 22.1787 127.491 20.0847C124.35 17.9907 109.811 17.6086 104.309 21.4145C98.8067 25.2203 104.109 28.8428 103.521 31.1293C102.934 33.4159 101.164 38.9427 101.361 40.8472Z" fill="white"/>
<path d="M116.085 51.8978C116.085 51.8978 109.56 53.2003 103.417 59.7537C105.272 65.6323 109.131 69.5504 116.491 69.5504C123.851 69.5504 128.125 64.5027 129.491 59.3003C126.774 56.286 119.661 52.5544 116.085 51.8963V51.8978Z" fill="white"/>
<path d="M116.491 69.884C109.611 69.884 105.232 66.6043 103.099 59.8538C103.061 59.737 103.092 59.6097 103.175 59.5217C109.32 52.9653 115.749 51.6219 116.022 51.5658C116.062 51.5597 116.103 51.5597 116.144 51.5658C119.717 52.2299 126.95 55.9797 129.736 59.0729C129.812 59.1563 129.84 59.273 129.812 59.3822C128.988 62.5421 126.039 69.884 116.489 69.884H116.491ZM103.794 59.8401C105.849 66.1539 110.003 69.2183 116.491 69.2183C125.406 69.2183 128.275 62.4845 129.123 59.3943C126.347 56.43 119.536 52.8971 116.093 52.236C115.428 52.3891 109.438 53.8948 103.794 59.8401Z" fill="#6F46BE"/>
<path d="M128.265 51.0927H126.424C126.241 51.0927 126.091 50.9441 126.091 50.7606C126.091 50.5772 126.239 50.4286 126.424 50.4286H128.086L129.696 47.5507C129.788 47.3914 129.991 47.3353 130.152 47.4278C130.312 47.5203 130.367 47.7235 130.274 47.8827L128.572 50.9305C128.509 51.0381 128.391 51.1003 128.267 51.0927H128.265Z" fill="#6F46BE"/>
<path d="M105.536 51.0927H103.631C103.513 51.0927 103.404 51.029 103.345 50.9259L101.58 47.8782C101.487 47.719 101.543 47.5143 101.702 47.4233C101.861 47.3323 102.066 47.3869 102.158 47.5461L103.821 50.427H105.533C105.716 50.427 105.866 50.5756 105.866 50.7591C105.866 50.9426 105.718 51.0912 105.533 51.0912H105.536V51.0927Z" fill="#6F46BE"/>
<path d="M110.402 46.465C112.012 46.465 113.316 45.9022 113.316 45.208C113.316 44.5138 112.012 43.951 110.402 43.951C108.792 43.951 107.487 44.5138 107.487 45.208C107.487 45.9022 108.792 46.465 110.402 46.465Z" fill="white"/>
<path d="M110.402 46.7955C108.55 46.7955 107.154 46.1102 107.154 45.2065C107.154 44.3028 108.55 43.6174 110.402 43.6174C112.254 43.6174 113.65 44.2815 113.65 45.2065C113.65 46.1314 112.254 46.7955 110.402 46.7955ZM110.402 44.283C108.823 44.283 107.819 44.8274 107.819 45.2065C107.819 45.5855 108.817 46.1299 110.402 46.1299C111.987 46.1299 112.985 45.581 112.985 45.2065C112.985 44.8319 111.978 44.283 110.402 44.283Z" fill="#6F46BE"/>
<path d="M110.426 46.3679C111.132 46.3679 111.705 45.8052 111.705 45.1109C111.705 44.4167 111.132 43.8539 110.426 43.8539C109.719 43.8539 109.146 44.4167 109.146 45.1109C109.146 45.8052 109.719 46.3679 110.426 46.3679Z" fill="#6F46BE"/>
<path d="M120.759 46.465C122.369 46.465 123.674 45.9022 123.674 45.208C123.674 44.5138 122.369 43.951 120.759 43.951C119.15 43.951 117.845 44.5138 117.845 45.208C117.845 45.9022 119.15 46.465 120.759 46.465Z" fill="white"/>
<path d="M120.759 46.7955C118.905 46.7955 117.509 46.1102 117.509 45.2065C117.509 44.3028 118.905 43.6174 120.759 43.6174C122.614 43.6174 124.007 44.2815 124.007 45.2065C124.007 46.1314 122.611 46.7955 120.759 46.7955ZM120.759 44.283C119.18 44.283 118.173 44.8274 118.173 45.2065C118.173 45.5855 119.171 46.1299 120.759 46.1299C122.348 46.1299 123.342 45.581 123.342 45.2065C123.342 44.8319 122.322 44.283 120.759 44.283Z" fill="#6F46BE"/>
<path d="M120.783 46.3679C121.49 46.3679 122.063 45.8052 122.063 45.1109C122.063 44.4167 121.49 43.8539 120.783 43.8539C120.077 43.8539 119.504 44.4167 119.504 45.1109C119.504 45.8052 120.077 46.3679 120.783 46.3679Z" fill="#6F46BE"/>
<path d="M107.271 42.4529C107.179 42.4529 107.091 42.4135 107.029 42.3468C106.905 42.2133 106.912 42.0026 107.045 41.8782C108.759 40.4347 111.136 40.0678 113.205 40.9306C113.379 40.9897 113.471 41.1792 113.411 41.3521C113.352 41.5249 113.162 41.6174 112.988 41.5583C112.979 41.5553 112.97 41.5522 112.961 41.5477C111.132 40.7804 109.027 41.0898 107.497 42.3513C107.438 42.412 107.356 42.4484 107.271 42.4514V42.4529Z" fill="#6F46BE"/>
<path d="M123.887 42.4529C123.804 42.4529 123.725 42.4196 123.665 42.3635C122.134 41.0989 120.029 40.785 118.197 41.5492C118.023 41.6083 117.834 41.5158 117.775 41.343C117.719 41.1792 117.798 41.0018 117.955 40.9306C120.023 40.0678 122.4 40.4332 124.114 41.8782C124.249 42.0026 124.258 42.2118 124.134 42.3468C124.07 42.415 123.981 42.4544 123.889 42.4529H123.887Z" fill="#6F46BE"/>
<path d="M128.431 23.8405L126.902 26.3697L130.422 38.4075C130.422 38.4075 128.843 34.2559 126.619 32.967C124.395 31.6782 123.049 31.1551 123.811 29.6433C124.572 28.1316 121.235 29.058 122.172 27.0111C123.11 24.9641 128.431 23.8405 128.431 23.8405Z" fill="#6F46BE"/>
<path d="M102.338 26.9413C102.338 26.9413 103.392 28.5228 107.194 29.1081C110.996 29.6934 108.89 31.4341 107.486 31.4341C106.083 31.4341 103.332 32.6607 102.57 34.5349C103.74 31.4341 103.624 30.497 103.624 30.497L102.337 26.9413H102.338Z" fill="#6F46BE"/>
<path d="M114.831 46.5696C114.822 47.6128 114.507 48.6287 113.924 49.4945C114.009 49.9024 114.189 50.283 114.449 50.6075L115.503 50.1647C115.503 50.1647 116.334 49.2838 115.739 46.4817C115.533 45.5143 114.861 45.8069 114.832 46.5681L114.831 46.5696Z" fill="white"/>
<path d="M109.906 53.9221C112.331 53.9221 114.297 52.6187 114.297 51.0108C114.297 49.403 112.331 48.0995 109.906 48.0995C107.481 48.0995 105.516 49.403 105.516 51.0108C105.516 52.6187 107.481 53.9221 109.906 53.9221Z" fill="#EDE3FF"/>
<path d="M109.906 54.2541C107.304 54.2541 105.183 52.8015 105.183 51.0108C105.183 49.2201 107.304 47.7705 109.906 47.7705C112.509 47.7705 114.63 49.2231 114.63 51.0108C114.63 52.7985 112.514 54.2541 109.906 54.2541ZM109.906 48.4346C107.669 48.4346 105.847 49.5916 105.847 51.0108C105.847 52.4301 107.669 53.59 109.906 53.59C112.144 53.59 113.966 52.4331 113.966 51.0108C113.966 49.5885 112.147 48.4346 109.906 48.4346Z" fill="#6F46BE"/>
<path d="M122.032 53.9221C124.457 53.9221 126.423 52.6187 126.423 51.0108C126.423 49.403 124.457 48.0995 122.032 48.0995C119.607 48.0995 117.642 49.403 117.642 51.0108C117.642 52.6187 119.607 53.9221 122.032 53.9221Z" fill="#EDE3FF"/>
<path d="M122.032 54.2541C119.427 54.2541 117.309 52.8015 117.309 51.0108C117.309 49.2201 119.425 47.7705 122.032 47.7705C124.64 47.7705 126.756 49.2231 126.756 51.0108C126.756 52.7985 124.649 54.2541 122.032 54.2541ZM122.032 48.4346C119.795 48.4346 117.973 49.5916 117.973 51.0108C117.973 52.4301 119.795 53.59 122.032 53.59C124.27 53.59 126.092 52.4331 126.092 51.0108C126.092 49.5885 124.27 48.4346 122.032 48.4346Z" fill="#6F46BE"/>
<path d="M114.298 50.7909C114.298 50.7909 116.016 49.1594 117.642 50.8334L114.298 50.7909Z" fill="#EDE3FF"/>
<path d="M117.642 51.167C117.553 51.167 117.466 51.1321 117.403 51.0669C116.032 49.6507 114.587 50.9775 114.527 51.0336C114.385 51.1503 114.176 51.1291 114.06 50.9866C113.955 50.8592 113.96 50.6727 114.072 50.5514C114.736 49.907 116.416 49.0927 117.881 50.6045C118.01 50.7333 118.01 50.9441 117.881 51.073C117.818 51.1352 117.731 51.1685 117.642 51.1655V51.167Z" fill="#6F46BE"/>
<path d="M107.312 58.3345C109.764 56.6681 112.656 55.7674 115.622 55.7416C120.694 55.6521 125.218 58.3997 125.218 58.3997C122.092 57.7204 118.902 57.3792 115.702 57.3822C112.88 57.3928 110.066 57.7113 107.313 58.3329L107.312 58.3345Z" fill="#EDE3FF"/>
<path d="M124.16 64.0539C122.116 65.8006 119.535 66.7953 116.847 66.8726C112.373 66.9727 108.381 63.9917 108.381 63.9917C108.381 63.9917 112.476 65.7127 116.847 65.6535C119.37 65.6399 121.862 65.0956 124.16 64.0554V64.0539Z" fill="#EDE3FF"/>
<path d="M125.213 60.847C125.213 60.847 121.976 62.1767 116.903 62.2889C113.643 62.3117 110.4 61.7992 107.307 60.7696C107.307 60.7696 111.961 60.9258 116.903 60.8454C121.845 60.7651 125.213 60.8454 125.213 60.8454V60.847Z" fill="#EDE3FF"/>
<path d="M110.781 68.4587C110.781 68.4587 117.336 74.1554 125.371 70.0371C125.254 69.0061 125.045 67.9871 124.745 66.9924C124.745 66.9924 117.881 71.3457 110.781 68.4587Z" fill="#6F46BE"/>
<path d="M130.439 41.1792C130.404 41.1838 130.368 41.1838 130.333 41.1792C113.004 35.3901 101.626 41.0989 101.514 41.1595C101.417 41.2111 101.302 41.2111 101.205 41.1595C101.108 41.1064 101.043 41.0094 101.033 40.9002C100.869 39.3476 101.917 35.6493 102.695 32.9504C102.904 32.2059 103.087 31.5645 103.213 31.0686C103.376 30.4439 102.977 29.6297 102.518 28.6851C101.52 26.6638 100.191 23.8997 104.133 21.1643C109.841 17.2098 124.576 17.7542 127.691 19.8345C128.442 20.2727 128.976 21.002 129.17 21.8481C129.445 23.3265 128.392 24.8398 127.694 25.8132C127.518 26.0482 127.358 26.2939 127.212 26.5471C127.065 26.9231 127.877 29.099 128.525 30.8473C129.854 34.4393 131.517 38.9094 130.766 40.9836C130.708 41.1095 130.578 41.1868 130.44 41.1762L130.439 41.1792ZM115.098 37.9086C120.237 37.9404 125.339 38.788 130.213 40.4211C130.622 38.4272 129.05 34.1861 127.886 31.052C126.819 28.1801 126.32 26.7745 126.607 26.2165C126.767 25.936 126.944 25.6661 127.135 25.4053C127.769 24.5077 128.728 23.1491 128.501 21.9452C128.34 21.2735 127.909 20.6988 127.308 20.3607C124.379 18.4092 109.904 17.9482 104.498 21.6904C101.018 24.0998 102.124 26.3727 103.102 28.3772C103.597 29.3947 104.067 30.3712 103.844 31.2157C103.714 31.7176 103.532 32.3651 103.319 33.1141C102.68 35.3673 101.75 38.6683 101.681 40.3362C103.146 39.7008 107.926 37.9101 115.1 37.9101L115.098 37.9086Z" fill="#6F46BE"/>
<path d="M91.1339 60.7575C90.9507 60.7575 90.8008 60.6089 90.8008 60.4254C90.8735 55.4975 95.8063 53.8478 95.8562 53.8311C96.0319 53.7735 96.2196 53.8705 96.2771 54.0449C96.3347 54.2208 96.2378 54.4088 96.0621 54.4649C95.8759 54.524 91.5275 55.9872 91.4655 60.4466C91.4533 60.621 91.308 60.756 91.1324 60.756L91.1339 60.7575Z" fill="#EDE3FF"/>
<path d="M28.4625 75.197C28.4625 75.197 24.8227 94.2203 37.135 103.602C45.5986 110.046 50.2119 101.368 43.9861 99.1907C36.9957 96.7343 31.9433 90.0354 28.4625 75.1955V75.197Z" fill="#6F46BE"/>
<path d="M110.872 104.514C112.265 104.191 113.169 102.953 112.891 101.75C112.613 100.547 111.258 99.8328 109.865 100.156C108.472 100.479 107.568 101.716 107.846 102.919C108.124 104.123 109.479 104.836 110.872 104.514Z" fill="#EDE3FF"/>
<path d="M110.199 104.933C109.71 104.939 109.227 104.825 108.792 104.601C107.619 104.029 107.131 102.614 107.704 101.441C107.775 101.295 107.86 101.159 107.958 101.031C108.405 100.431 109.053 100.011 109.782 99.8488C111.351 99.4803 112.888 100.304 113.213 101.683C113.368 102.379 113.21 103.109 112.782 103.677C112.332 104.276 111.684 104.696 110.954 104.86C110.706 104.912 110.453 104.937 110.2 104.933H110.199ZM110.532 100.416C110.329 100.416 110.128 100.44 109.931 100.486C109.355 100.613 108.845 100.942 108.491 101.414C107.908 102.149 108.031 103.216 108.766 103.8C108.869 103.882 108.981 103.95 109.1 104.006C110.188 104.539 111.501 104.232 112.241 103.273C112.559 102.865 112.68 102.337 112.574 101.831C112.368 100.969 111.518 100.408 110.536 100.408L110.533 100.419L110.532 100.416Z" fill="#6F46BE"/>
<path d="M109.891 132.068C111.284 131.745 112.188 130.508 111.91 129.304C111.632 128.101 110.277 127.387 108.884 127.71C107.491 128.033 106.587 129.27 106.865 130.473C107.143 131.677 108.498 132.391 109.891 132.068Z" fill="#EDE3FF"/>
<path d="M109.226 132.476C107.946 132.476 106.82 131.709 106.547 130.552C106.387 129.856 106.547 129.125 106.979 128.558C107.424 127.956 108.072 127.536 108.803 127.375C110.372 127.007 111.912 127.83 112.234 129.21C112.393 129.906 112.234 130.637 111.803 131.204C111.356 131.804 110.708 132.224 109.978 132.387C109.731 132.444 109.48 132.475 109.227 132.476H109.226ZM109.559 127.959C109.356 127.959 109.155 127.983 108.958 128.029C108.382 128.155 107.872 128.484 107.518 128.957C107.198 129.365 107.077 129.892 107.185 130.399C107.424 131.422 108.603 132.024 109.815 131.729C110.39 131.603 110.9 131.274 111.255 130.801C111.574 130.393 111.695 129.865 111.588 129.359C111.388 128.528 110.537 127.959 109.56 127.959H109.559Z" fill="#6F46BE"/>
<path d="M110.177 164.377C111.57 164.054 112.474 162.817 112.196 161.613C111.918 160.41 110.563 159.696 109.17 160.019C107.777 160.342 106.873 161.579 107.151 162.783C107.429 163.986 108.784 164.7 110.177 164.377Z" fill="#EDE3FF"/>
<path d="M109.498 164.787C109.01 164.791 108.529 164.677 108.096 164.455C107.46 164.139 106.995 163.558 106.826 162.87C106.492 161.49 107.517 160.068 109.083 159.703C110.649 159.337 112.191 160.157 112.514 161.537C112.673 162.233 112.514 162.964 112.082 163.531C111.636 164.132 110.988 164.552 110.258 164.714C110.008 164.765 109.755 164.791 109.499 164.787H109.498ZM109.831 160.27C109.628 160.27 109.427 160.294 109.23 160.339C108.02 160.624 107.236 161.669 107.468 162.709C107.593 163.211 107.934 163.631 108.399 163.859C109.486 164.391 110.798 164.085 111.536 163.125C111.855 162.717 111.976 162.189 111.869 161.683C111.666 160.832 110.815 160.27 109.839 160.27H109.832H109.831Z" fill="#6F46BE"/>
<path d="M148.279 116.372C148.233 116.372 148.188 116.361 148.145 116.341C141.723 113.473 128.298 114.61 128.164 114.623C127.981 114.64 127.819 114.505 127.803 114.323C127.803 114.319 127.803 114.316 127.803 114.311L127.547 110.187C127.535 110.011 127.663 109.855 127.839 109.835C128.361 109.776 140.693 108.369 148.332 111.347C148.453 111.395 148.535 111.509 148.541 111.639C148.541 111.662 148.68 114.172 148.61 116.053C148.61 116.237 148.462 116.385 148.277 116.385V116.372H148.279ZM134.487 113.714C138.761 113.714 144.256 114.046 147.959 115.545C147.99 114.106 147.915 112.467 147.89 111.89C141.055 109.321 130.205 110.261 128.231 110.461L128.445 113.931C129.301 113.867 131.629 113.715 134.487 113.715V113.714Z" fill="#6F46BE"/>
</g>
<mask id="mask2_270_36153" style="mask-type:luminance" maskUnits="userSpaceOnUse" x="167" y="33" width="37" height="37">
<path d="M203.429 33.4326H167.849V69.0652H203.429V33.4326Z" fill="white"/>
</mask>
<g mask="url(#mask2_270_36153)">
<path d="M185.639 68.721C195.274 68.721 203.085 60.8985 203.085 51.2489C203.085 41.5993 195.274 33.7768 185.639 33.7768C176.003 33.7768 168.192 41.5993 168.192 51.2489C168.192 60.8985 176.003 68.721 185.639 68.721Z" fill="white" stroke="#6F46BE" stroke-width="0.881064" stroke-miterlimit="15.11"/>
</g>
<mask id="mask3_270_36153" style="mask-type:luminance" maskUnits="userSpaceOnUse" x="172" y="37" width="27" height="27">
<path d="M198.282 37.9814H172.694V63.6066H198.282V37.9814Z" fill="white"/>
</mask>
<g mask="url(#mask3_270_36153)">
<path d="M198.024 46.0359H190.239V38.2392H180.736V46.0359H172.951V55.5521H180.736V63.3473H190.239V55.5521H198.024V46.0359Z" fill="#EDE3FF" stroke="#6F46BE" stroke-width="0.661284" stroke-miterlimit="11.34"/>
</g>
<mask id="mask4_270_36153" style="mask-type:luminance" maskUnits="userSpaceOnUse" x="28" y="12" width="24" height="25">
<path d="M51.685 12.9779H28.6895V36.0072H51.685V12.9779Z" fill="white"/>
</mask>
<g mask="url(#mask4_270_36153)">
<path d="M40.1869 35.7858C46.4148 35.7858 51.4636 30.7296 51.4636 24.4925C51.4636 18.2554 46.4148 13.1992 40.1869 13.1992C33.9589 13.1992 28.9102 18.2554 28.9102 24.4925C28.9102 30.7296 33.9589 35.7858 40.1869 35.7858Z" fill="white" stroke="#6F46BE" stroke-width="0.881064" stroke-miterlimit="15.11"/>
</g>
<mask id="mask5_270_36153" style="mask-type:luminance" maskUnits="userSpaceOnUse" x="31" y="15" width="18" height="18">
<path d="M48.3569 15.9179H31.8203V32.4788H48.3569V15.9179Z" fill="white"/>
</mask>
<g mask="url(#mask5_270_36153)">
<path d="M48.1923 21.1233H43.1611V16.0847H37.0185V21.1233H31.9873V27.2749H37.0185V32.3135H43.1611V27.2749H48.1923V21.1233Z" fill="#EDE3FF" stroke="#6F46BE" stroke-width="0.661284" stroke-miterlimit="11.34"/>
</g>
</g>
<defs>
<clipPath id="clip0_270_36153">
<rect width="235" height="205" fill="white"/>
</clipPath>
</defs>
</svg>
