<svg width="270" height="201" viewBox="0 0 270 201" fill="none" xmlns="http://www.w3.org/2000/svg">
<path d="M262.255 151.321C235.152 210.167 164.481 211.439 131.378 178.97C108.75 156.782 94.0143 162.202 52.6346 145.043C11.7472 128.09 -9.02212 71.1839 31.0638 37.5309C71.1497 3.8779 120.274 -7.55791 173.803 4.9042C241.827 20.7429 289.363 92.4766 262.255 151.321Z" fill="#EDE3FF"/>
<mask id="mask0_183_8380" style="mask-type:luminance" maskUnits="userSpaceOnUse" x="75" y="0" width="177" height="139">
<path d="M251.624 0H75.3262V138.87H251.624V0Z" fill="white"/>
</mask>
<g mask="url(#mask0_183_8380)">
<path d="M248.486 138.565H78.4648C78.1325 138.567 77.8041 138.504 77.4966 138.378C77.1892 138.253 76.9103 138.067 76.6751 137.833C76.44 137.599 76.2534 137.321 76.1259 137.015C75.9983 136.709 75.9326 136.381 75.9326 136.049V3.12394C75.9326 2.79199 75.9983 2.46384 76.1249 2.15756C76.2515 1.85129 76.439 1.5726 76.6742 1.33861C76.9093 1.10463 77.1892 0.919153 77.4957 0.7936C77.8032 0.668047 78.1316 0.604315 78.4638 0.605266H248.485C248.817 0.603364 249.146 0.667095 249.453 0.7936C249.761 0.919153 250.039 1.10463 250.275 1.33861C250.51 1.5726 250.696 1.85129 250.824 2.15756C250.951 2.46384 251.016 2.79199 251.016 3.12394V136.079C251.009 136.744 250.739 137.379 250.265 137.845C249.791 138.311 249.15 138.57 248.485 138.565H248.486Z" fill="white"/>
<path d="M250.927 9.23079V3.31837C250.927 2.98737 250.863 2.66017 250.736 2.3539C250.61 2.04762 250.424 1.77084 250.191 1.53685C249.956 1.30287 249.679 1.11739 249.373 0.991833C249.066 0.865328 248.739 0.800649 248.408 0.8016H78.5123C78.181 0.8016 77.8535 0.865328 77.548 0.991833C77.2424 1.11834 76.9644 1.30382 76.7302 1.53685C76.4961 1.77084 76.3104 2.04857 76.1848 2.3539C76.0591 2.65922 75.9934 2.98737 75.9944 3.31837V9.23079H250.927Z" fill="#EDE3FF"/>
<path d="M247.262 5.00137L248.761 3.50424C248.847 3.41863 248.894 3.30354 248.894 3.18275C248.894 3.06195 248.847 2.94591 248.761 2.86125C248.675 2.77565 248.56 2.72809 248.439 2.72809C248.318 2.72809 248.202 2.77565 248.117 2.86125L246.619 4.35933L245.121 2.86125C245.035 2.77565 244.92 2.72809 244.799 2.72809C244.678 2.72809 244.562 2.77565 244.477 2.86125C244.392 2.94686 244.344 3.06195 244.344 3.18275C244.344 3.30354 244.392 3.41959 244.477 3.50424L245.977 5.00137L244.477 6.49849C244.392 6.5841 244.344 6.69919 244.344 6.81998C244.344 6.94078 244.392 7.05682 244.477 7.14148C244.563 7.22613 244.678 7.27464 244.799 7.27464C244.92 7.27464 245.036 7.22708 245.121 7.14148L246.619 5.6434L248.117 7.14148C248.203 7.22708 248.318 7.27464 248.439 7.27464C248.56 7.27464 248.676 7.22708 248.761 7.14148C248.846 7.05587 248.894 6.94078 248.894 6.81998C248.894 6.69919 248.847 6.58314 248.761 6.49849L247.262 5.00137Z" fill="#6F46BE"/>
<path d="M248.611 -0.000941824H78.339C77.5451 -0.00474647 76.7826 0.305335 76.2172 0.863666C75.6527 1.42105 75.3319 2.17912 75.3262 2.97239V135.895C75.3319 136.689 75.6527 137.448 76.2172 138.004C76.7817 138.561 77.5451 138.872 78.339 138.869H248.612C249.402 138.877 250.162 138.572 250.727 138.02C251.291 137.468 251.614 136.716 251.624 135.928V2.97144C251.619 2.17817 251.298 1.42009 250.733 0.862714C250.168 0.305334 249.405 -0.00569275 248.611 -0.00188811V-0.000941824ZM78.3381 0.908368H248.611C249.164 0.903612 249.696 1.11858 250.09 1.5057C250.484 1.89282 250.709 2.41976 250.714 2.97144V9.09406H76.2362V2.97144C76.2419 2.41976 76.4666 1.89187 76.8607 1.5057C77.2548 1.11858 77.786 0.903612 78.339 0.908368H78.3381ZM250.713 10.0043V26.681H76.2362V10.0043H250.713ZM248.611 137.958H78.339C77.7869 137.962 77.2548 137.748 76.8607 137.361C76.4666 136.974 76.2419 136.447 76.2362 135.894V27.5903H250.713V135.927C250.703 136.474 250.476 136.996 250.082 137.376C249.688 137.757 249.159 137.966 248.611 137.957V137.958Z" fill="#6F46BE"/>
<path d="M240.548 7.27659H238.727C238.366 7.27659 238.018 7.13201 237.762 6.87615C237.506 6.62029 237.362 6.27311 237.362 5.91167V4.0921C237.362 3.73066 237.507 3.38349 237.762 3.12762C238.018 2.87176 238.366 2.72814 238.727 2.72719H240.548C240.91 2.72719 241.258 2.87176 241.514 3.12762C241.77 3.38349 241.914 3.73066 241.914 4.0921V5.91167C241.914 6.27311 241.769 6.62029 241.514 6.87615C241.258 7.13201 240.91 7.27564 240.548 7.27659ZM238.727 3.6384C238.606 3.6384 238.491 3.68596 238.406 3.77156C238.32 3.85717 238.272 3.97226 238.272 4.09305V5.91263C238.272 6.03342 238.32 6.14851 238.406 6.23412C238.491 6.31972 238.606 6.36728 238.727 6.36728H240.548C240.669 6.36728 240.784 6.31972 240.87 6.23412C240.956 6.14851 241.003 6.03342 241.003 5.91263V4.09305C241.003 3.97226 240.956 3.85717 240.87 3.77156C240.784 3.68596 240.669 3.6384 240.548 3.6384H238.727Z" fill="#6F46BE"/>
<path d="M234.48 7.27685H230.839C230.718 7.27685 230.603 7.22929 230.517 7.14369C230.431 7.05808 230.384 6.94299 230.384 6.8222C230.384 6.7014 230.431 6.58631 230.517 6.5007C230.603 6.4151 230.718 6.36754 230.839 6.36754H234.48C234.601 6.36754 234.716 6.4151 234.802 6.5007C234.887 6.58631 234.935 6.7014 234.935 6.8222C234.935 6.94299 234.887 7.05808 234.802 7.14369C234.716 7.22929 234.601 7.27685 234.48 7.27685Z" fill="#6F46BE"/>
<path d="M230.839 23.0435H119.781C119.338 23.0435 118.914 22.8676 118.601 22.5546C118.288 22.2417 118.112 21.8184 118.112 21.3762V15.3116C118.112 14.8693 118.289 14.446 118.601 14.1331C118.914 13.8201 119.338 13.6442 119.781 13.6442H230.839C231.282 13.6442 231.705 13.8201 232.018 14.1331C232.332 14.446 232.508 14.8693 232.508 15.3116V21.3762C232.508 21.8184 232.331 22.2417 232.018 22.5546C231.705 22.8676 231.282 23.0435 230.839 23.0435ZM119.781 14.5535C119.58 14.5535 119.386 14.6334 119.244 14.7751C119.102 14.9168 119.022 15.1099 119.022 15.3116V21.3762C119.022 21.5769 119.102 21.7699 119.244 21.9126C119.386 22.0543 119.579 22.1342 119.781 22.1342H230.839C231.04 22.1342 231.233 22.0543 231.376 21.9126C231.518 21.7709 231.598 21.5778 231.598 21.3762V15.3116C231.598 15.1109 231.518 14.9178 231.376 14.7751C231.234 14.6334 231.041 14.5535 230.839 14.5535H119.781Z" fill="#6F46BE"/>
<path d="M92.7743 22.4366C92.681 22.4366 92.5906 22.4081 92.5144 22.3557C92.4383 22.3025 92.3792 22.2273 92.3469 22.1408C92.3145 22.0533 92.3097 21.9582 92.3335 21.8687C92.3573 21.7784 92.4068 21.6985 92.4782 21.6376L96.324 18.3447L92.4792 15.0518C92.3878 14.9728 92.3307 14.8615 92.3212 14.7407C92.3117 14.62 92.3507 14.5011 92.4297 14.4097C92.5087 14.3184 92.6201 14.2614 92.741 14.2518C92.8619 14.2423 92.9809 14.2813 93.0722 14.3603L97.3207 17.9985C97.3702 18.0413 97.4102 18.0945 97.4378 18.1535C97.4654 18.2134 97.4797 18.2781 97.4797 18.3437C97.4797 18.4094 97.4654 18.4741 97.4378 18.534C97.4102 18.5939 97.3702 18.6462 97.3207 18.689L93.0722 22.3272C92.9894 22.3976 92.8847 22.4366 92.7762 22.4366H92.7743Z" fill="#6F46BE"/>
<path d="M85.4918 22.4367C85.3833 22.4367 85.2777 22.3977 85.1958 22.3273L80.9473 18.6891C80.8978 18.6463 80.8578 18.593 80.8302 18.534C80.8026 18.4741 80.7883 18.4094 80.7883 18.3438C80.7883 18.2782 80.8026 18.2135 80.8302 18.1536C80.8578 18.0937 80.8978 18.0413 80.9473 17.9985L85.1958 14.3604C85.2415 14.3214 85.2938 14.2919 85.351 14.2728C85.4081 14.2538 85.468 14.2472 85.5271 14.2519C85.587 14.2567 85.6451 14.2728 85.6984 14.2995C85.7517 14.3261 85.7993 14.3642 85.8383 14.4089C85.8774 14.4536 85.9069 14.5068 85.9259 14.5639C85.945 14.621 85.9516 14.6809 85.9469 14.7399C85.9421 14.7998 85.9259 14.8578 85.8993 14.9111C85.8726 14.9643 85.8345 15.0119 85.7898 15.0509L81.944 18.3438L85.7888 21.6367C85.8593 21.6976 85.9097 21.7775 85.9335 21.8679C85.9573 21.9582 85.9526 22.0524 85.9202 22.1399C85.8878 22.2274 85.8298 22.3025 85.7536 22.3558C85.6775 22.4091 85.5861 22.4376 85.4937 22.4376L85.4918 22.4367Z" fill="#6F46BE"/>
<path d="M111.132 17.8882C111.011 17.8882 110.896 17.9358 110.81 18.0214C110.725 18.107 110.677 18.2221 110.677 18.3429C110.682 18.9934 110.478 19.6288 110.096 20.1558C109.715 20.6827 109.174 21.0736 108.554 21.2724C107.934 21.4712 107.266 21.4665 106.649 21.2591C106.033 21.0518 105.498 20.6532 105.123 20.1215C104.748 19.5898 104.553 18.9516 104.567 18.301C104.58 17.6504 104.802 17.0217 105.198 16.5052C105.595 15.9887 106.146 15.613 106.77 15.4323C107.395 15.2516 108.063 15.2744 108.674 15.4989L107.8 15.7899C107.686 15.828 107.591 15.9098 107.538 16.0182C107.483 16.1257 107.475 16.2512 107.513 16.3654C107.551 16.4795 107.634 16.5746 107.741 16.6279C107.849 16.6812 107.975 16.6907 108.089 16.6526L109.91 16.0458C109.972 16.0249 110.029 15.9916 110.076 15.9469C110.124 15.9022 110.162 15.848 110.187 15.788C110.212 15.7281 110.224 15.6634 110.221 15.5978C110.218 15.5331 110.202 15.4684 110.174 15.4104L109.263 13.5909C109.209 13.4834 109.115 13.4006 109.001 13.3626C108.887 13.3245 108.761 13.3331 108.653 13.3873C108.546 13.4415 108.463 13.5357 108.425 13.6508C108.387 13.7659 108.395 13.8905 108.45 13.998L108.729 14.5572C107.935 14.3299 107.088 14.3584 106.311 14.639C105.533 14.9187 104.863 15.4361 104.395 16.1171C103.928 16.7982 103.686 17.6095 103.705 18.4351C103.724 19.2607 104.002 20.0597 104.5 20.7189C104.998 21.378 105.691 21.864 106.48 22.1085C107.27 22.3529 108.116 22.3425 108.9 22.08C109.683 21.8174 110.365 21.3152 110.848 20.6447C111.33 19.9741 111.589 19.1685 111.588 18.3429C111.588 18.2221 111.541 18.107 111.455 18.0214C111.369 17.9358 111.254 17.8882 111.133 17.8882H111.132Z" fill="#6F46BE"/>
<path d="M246.485 21.8115L243.92 19.2501C244.462 18.5452 244.715 17.6607 244.629 16.777C244.542 15.8925 244.121 15.0745 243.453 14.4885C242.785 13.9026 241.918 13.5926 241.029 13.6211C240.141 13.6496 239.296 14.0158 238.667 14.6445C238.038 15.2733 237.672 16.1169 237.642 17.0053C237.614 17.8937 237.923 18.7593 238.511 19.427C239.097 20.0947 239.917 20.5151 240.801 20.6017C241.685 20.6882 242.571 20.4352 243.276 19.894L245.84 22.4564C245.925 22.542 246.04 22.5896 246.161 22.5896C246.282 22.5896 246.398 22.542 246.483 22.4564C246.568 22.3708 246.616 22.2557 246.616 22.1349C246.616 22.0141 246.569 21.8981 246.483 21.8134L246.485 21.8115ZM238.577 17.1299C238.577 16.6201 238.729 16.1217 239.011 15.6984C239.295 15.2742 239.698 14.9441 240.169 14.7492C240.64 14.5542 241.159 14.5028 241.659 14.6027C242.158 14.7026 242.619 14.948 242.979 15.3084C243.34 15.6689 243.585 16.1283 243.685 16.6277C243.785 17.128 243.734 17.6454 243.539 18.1172C243.344 18.589 243.013 18.9904 242.589 19.2738C242.164 19.5573 241.666 19.7085 241.156 19.7085C240.473 19.7085 239.817 19.4355 239.333 18.9523C238.849 18.4692 238.578 17.8138 238.577 17.1309V17.1299Z" fill="#6F46BE"/>
</g>
<path d="M232.313 117.536H183.928C180.323 117.536 177.4 114.608 177.4 110.997V45.946C177.4 42.3345 180.323 39.4068 183.928 39.4068H232.313C235.918 39.4068 238.841 42.3345 238.841 45.946V110.997C238.841 114.608 235.918 117.536 232.313 117.536Z" fill="white"/>
<path d="M232.314 117.945H183.928C180.104 117.945 176.992 114.828 176.992 110.997V45.9465C176.992 42.1152 180.103 38.9992 183.928 38.9992H232.314C236.138 38.9992 239.249 42.1161 239.249 45.9465V110.997C239.249 114.829 236.138 117.945 232.314 117.945ZM183.928 39.8153C180.553 39.8153 177.808 42.5651 177.808 45.9455V110.996C177.808 114.377 180.553 117.127 183.928 117.127H232.314C235.688 117.127 238.434 114.377 238.434 110.996V45.9455C238.434 42.5651 235.688 39.8153 232.314 39.8153H183.928Z" fill="#6F46BE"/>
<path d="M208.121 78.5064C216.627 78.5064 223.522 71.5992 223.522 63.0786C223.522 54.558 216.627 47.6508 208.121 47.6508C199.615 47.6508 192.72 54.558 192.72 63.0786C192.72 71.5992 199.615 78.5064 208.121 78.5064Z" fill="#EDE3FF"/>
<path d="M208.121 78.9154C199.404 78.9154 192.312 71.8112 192.312 63.0786C192.312 54.346 199.404 47.2418 208.121 47.2418C216.838 47.2418 223.93 54.346 223.93 63.0786C223.93 71.8112 216.838 78.9154 208.121 78.9154ZM208.121 48.0598C199.853 48.0598 193.128 54.7978 193.128 63.0786C193.128 71.3594 199.853 78.0974 208.121 78.0974C216.389 78.0974 223.114 71.3594 223.114 63.0786C223.114 54.7978 216.389 48.0598 208.121 48.0598Z" fill="#6F46BE"/>
<path d="M208.101 62.5809C210.149 62.5809 211.81 60.9176 211.81 58.8657C211.81 56.8138 210.149 55.1505 208.101 55.1505C206.053 55.1505 204.392 56.8138 204.392 58.8657C204.392 60.9176 206.053 62.5809 208.101 62.5809Z" fill="white"/>
<path d="M208.101 62.9876C205.832 62.9876 203.985 61.1376 203.985 58.8643C203.985 56.591 205.832 54.741 208.101 54.741C210.37 54.741 212.217 56.591 212.217 58.8643C212.217 61.1376 210.37 62.9876 208.101 62.9876ZM208.101 55.558C206.281 55.558 204.801 57.0409 204.801 58.8643C204.801 60.6877 206.281 62.1705 208.101 62.1705C209.921 62.1705 211.401 60.6877 211.401 58.8643C211.401 57.0409 209.921 55.558 208.101 55.558Z" fill="#6F46BE"/>
<path d="M208.101 62.5791C204.647 62.5791 201.845 65.385 201.845 68.8454V69.944H214.356V68.8454C214.356 65.3841 211.556 62.5791 208.1 62.5791H208.101Z" fill="white"/>
<path d="M214.356 70.3529H201.845C201.619 70.3529 201.437 70.1703 201.437 69.944V68.8454C201.437 65.1644 204.426 62.1701 208.1 62.1701C211.775 62.1701 214.764 65.1644 214.764 68.8454V69.944C214.764 70.1694 214.581 70.3529 214.355 70.3529H214.356ZM202.252 69.5359H213.948V68.8463C213.948 65.6162 211.324 62.9881 208.1 62.9881C204.876 62.9881 202.252 65.6162 202.252 68.8463V69.5359Z" fill="#6F46BE"/>
<path d="M230.457 86.5364H185.744C185.518 86.5364 185.335 86.3538 185.335 86.1274C185.335 85.901 185.518 85.7184 185.744 85.7184H230.457C230.683 85.7184 230.866 85.901 230.866 86.1274C230.866 86.3538 230.683 86.5364 230.457 86.5364Z" fill="#6F46BE"/>
<path d="M230.457 94.3835H185.744C185.518 94.3835 185.335 94.2009 185.335 93.9746C185.335 93.7482 185.518 93.5656 185.744 93.5656H230.457C230.683 93.5656 230.866 93.7482 230.866 93.9746C230.866 94.2009 230.683 94.3835 230.457 94.3835Z" fill="#6F46BE"/>
<path d="M230.457 102.23H185.744C185.518 102.23 185.335 102.047 185.335 101.821C185.335 101.594 185.518 101.412 185.744 101.412H230.457C230.683 101.412 230.866 101.594 230.866 101.821C230.866 102.047 230.683 102.23 230.457 102.23Z" fill="#6F46BE"/>
<path d="M230.457 110.077H185.744C185.518 110.077 185.335 109.894 185.335 109.668C185.335 109.442 185.518 109.259 185.744 109.259H230.457C230.683 109.259 230.866 109.442 230.866 109.668C230.866 109.894 230.683 110.077 230.457 110.077Z" fill="#6F46BE"/>
<mask id="mask1_183_8380" style="mask-type:luminance" maskUnits="userSpaceOnUse" x="136" y="50" width="39" height="55">
<path d="M148.762 50.1523L136.05 97.9541L162.179 104.891L174.89 57.0891L148.762 50.1523Z" fill="white"/>
</mask>
<g mask="url(#mask1_183_8380)">
<path d="M150.64 101.391L148.104 100.718C147.704 100.611 147.362 100.348 147.155 99.9861C146.948 99.6237 146.893 99.1928 147 98.7876L151.081 83.4454L155.581 77.7166L156.64 84.9216L152.56 100.264C152.452 100.669 152.189 101.016 151.829 101.227C151.47 101.439 151.042 101.497 150.641 101.391H150.64Z" fill="#EDE3FF"/>
<path d="M156.641 84.9212L151.081 83.445L155.581 77.7161L156.641 84.9212Z" fill="#6F46BE"/>
<path d="M156.528 85.3434L150.969 83.8672C150.899 83.8491 150.836 83.813 150.784 83.7635C150.732 83.714 150.693 83.6522 150.671 83.5837C150.648 83.5153 150.643 83.442 150.657 83.3707C150.669 83.2993 150.699 83.2318 150.744 83.1757L155.244 77.4468C155.296 77.3803 155.367 77.3308 155.447 77.3032C155.527 77.2766 155.612 77.2737 155.693 77.2947C155.774 77.3156 155.847 77.3612 155.904 77.424C155.96 77.4868 155.996 77.5648 156.008 77.6494L157.068 84.8545C157.078 84.9258 157.072 84.9991 157.047 85.0675C157.022 85.136 156.982 85.1969 156.928 85.2454C156.875 85.2939 156.81 85.3282 156.74 85.3453C156.671 85.3624 156.598 85.3615 156.528 85.3434ZM151.829 83.1928L156.117 84.3313L155.3 78.7747L151.829 83.1928Z" fill="#6F46BE"/>
<path d="M153.354 84.501L150.969 83.8675L146.968 98.9092C146.968 98.9092 146.437 99.9726 147.896 100.36L149.054 100.667L153.355 84.501H153.354Z" fill="white"/>
<path d="M150.529 101.812L147.993 101.139C147.482 101.003 147.047 100.666 146.782 100.205C146.518 99.7426 146.446 99.1928 146.583 98.6764L150.664 83.3341C150.679 83.2761 150.707 83.2219 150.744 83.1743L155.244 77.4455C155.296 77.3789 155.367 77.3295 155.447 77.3019C155.527 77.2752 155.612 77.2724 155.693 77.2933C155.774 77.3142 155.848 77.3599 155.904 77.4227C155.96 77.4854 155.996 77.5634 156.008 77.6481L157.068 84.8531C157.076 84.9121 157.074 84.973 157.057 85.031L152.976 100.373C152.838 100.89 152.503 101.332 152.045 101.601C151.586 101.871 151.041 101.946 150.53 101.811L150.529 101.812ZM151.474 83.6433L147.416 98.898C147.338 99.1909 147.379 99.5039 147.53 99.7654C147.68 100.027 147.926 100.218 148.217 100.295L150.753 100.969C151.043 101.045 151.352 101.002 151.612 100.849C151.873 100.696 152.063 100.445 152.142 100.152L156.2 84.8969L155.299 78.7724L151.474 83.6423V83.6433Z" fill="#6F46BE"/>
<path d="M170.631 62.2614L168.85 63.3087L150.059 74.3545L148.278 75.4017C147.03 73.9036 146.129 72.1411 145.642 70.2436L147.47 69.1697L165.696 58.4549L167.524 57.381C168.907 58.7526 169.969 60.42 170.633 62.2614H170.631Z" fill="white"/>
<path d="M171.358 68.0404L169.104 69.3654L155.117 77.5872L152.863 78.9122C151.867 78.4613 150.935 77.883 150.086 77.1906L171.262 64.7427C171.435 65.8328 171.467 66.9409 171.358 68.0404Z" fill="white"/>
<path d="M165.745 55.9069L163.769 57.0711L145.26 67.9515C145.219 67.3979 145.212 66.8424 145.238 66.2869L147.401 65.0162L162.17 56.334L164.333 55.0632C164.821 55.3134 165.294 55.5959 165.745 55.9078V55.9069Z" fill="white"/>
<path d="M171.358 68.0395C171.545 66.0801 171.296 64.1065 170.63 62.2622C169.967 60.4198 168.904 58.7533 167.521 57.3818C166.974 56.8377 166.379 56.344 165.744 55.9075C165.292 55.5955 164.82 55.313 164.332 55.0628C162.384 54.0603 160.214 53.5695 158.022 53.6342C155.83 53.6989 153.686 54.319 151.786 55.4357C149.886 56.5523 148.291 58.1313 147.147 60.0269C146.003 61.9226 145.346 64.0751 145.237 66.2875C145.211 66.842 145.217 67.3984 145.259 67.952C145.318 68.7263 145.446 69.4938 145.64 70.2453C146.127 72.1438 147.028 73.9053 148.276 75.4034C149.526 76.9043 151.093 78.1038 152.862 78.9122C153.525 79.2157 154.212 79.462 154.917 79.6475C156.578 80.0888 158.31 80.1944 160.015 79.9585C161.72 79.7226 163.365 79.151 164.856 78.275C166.346 77.3989 167.653 76.2357 168.702 74.8527C169.751 73.4697 170.52 71.8927 170.966 70.212C171.157 69.4996 171.287 68.7729 171.356 68.0395H171.358ZM155.441 77.6786C155.333 77.65 155.225 77.6187 155.117 77.5863C153.164 77.0052 151.413 75.8866 150.058 74.3552C148.757 72.8895 147.863 71.1013 147.468 69.1695C147.306 68.3867 147.229 67.5877 147.238 66.7878C147.246 66.1943 147.3 65.6017 147.4 65.0158C147.456 64.6819 147.531 64.3462 147.62 64.0113C148.386 61.1417 150.247 58.6896 152.793 57.1934C155.339 55.6963 158.363 55.2778 161.2 56.0283C161.531 56.1158 161.855 56.2175 162.169 56.3336C162.721 56.5362 163.256 56.7825 163.768 57.0707C164.458 57.4598 165.104 57.9239 165.693 58.4556C167.151 59.7625 168.24 61.4366 168.848 63.3094C169.487 65.2612 169.575 67.3585 169.103 69.3645C169.077 69.4748 169.051 69.5851 169.021 69.6945C168.255 72.5642 166.394 75.0163 163.849 76.5125C161.302 78.0096 158.279 78.4281 155.441 77.6776V77.6786Z" fill="#EDE3FF"/>
<path d="M154.806 80.0689C154.078 79.8767 153.368 79.6218 152.683 79.3089C150.855 78.4728 149.236 77.2344 147.946 75.684C146.659 74.1346 145.73 72.315 145.224 70.3556C145.023 69.5804 144.892 68.7872 144.83 67.9872C144.787 67.4156 144.78 66.8411 144.808 66.2675C144.92 63.9829 145.599 61.759 146.78 59.8006C147.963 57.8422 149.61 56.2119 151.572 55.0581C153.535 53.9043 155.75 53.2652 158.013 53.1976C160.277 53.1301 162.519 53.638 164.531 54.6738C165.036 54.9326 165.523 55.2236 165.99 55.546C166.645 55.9978 167.26 56.5077 167.826 57.0698C169.254 58.488 170.35 60.2096 171.038 62.111C171.724 64.0161 171.98 66.0554 171.788 68.0795C171.598 70.0579 170.985 71.9726 169.99 73.6923C168.995 75.411 167.641 76.893 166.025 78.0343C164.408 79.1757 162.567 79.949 160.629 80.3C158.691 80.651 156.704 80.572 154.804 80.0689H154.806ZM161.613 54.4817C159.786 53.9985 157.873 53.9348 156.014 54.2953C154.155 54.6558 152.397 55.431 150.868 56.5647C149.339 57.6985 148.079 59.1614 147.18 60.8469C146.281 62.5323 145.766 64.3975 145.671 66.3056C145.646 66.843 145.652 67.3804 145.692 67.9159C145.75 68.6645 145.872 69.4054 146.061 70.1312C146.534 71.9659 147.404 73.6695 148.609 75.12C149.817 76.5715 151.332 77.7309 153.043 78.5128C153.685 78.8057 154.349 79.0445 155.031 79.2243C156.809 79.696 158.669 79.7693 160.484 79.4402C162.298 79.1111 164.021 78.3872 165.535 77.3191C167.048 76.2509 168.314 74.8641 169.246 73.2538C170.178 71.6444 170.752 69.8515 170.93 67.9996V67.9977C171.11 66.1039 170.87 64.1959 170.227 62.4125C169.583 60.6319 168.556 59.0197 167.219 57.6909C166.69 57.1649 166.115 56.6865 165.501 56.2642C165.064 55.9636 164.609 55.6916 164.137 55.45C163.334 55.0353 162.487 54.71 161.614 54.4788L161.613 54.4817ZM155.33 78.1009C155.218 78.0714 155.106 78.0381 154.996 78.0058C152.965 77.4028 151.144 76.2395 149.736 74.6473C148.384 73.1254 147.456 71.2668 147.046 69.2608C146.878 68.4476 146.798 67.6172 146.808 66.7859C146.816 66.1686 146.872 65.5532 146.977 64.9445C147.033 64.6097 147.11 64.2587 147.205 63.9011C148.002 60.9201 149.934 58.3729 152.58 56.8177C155.225 55.2626 158.366 54.827 161.315 55.6069C161.668 55.7011 162.008 55.8076 162.323 55.9246C162.895 56.1348 163.45 56.3907 163.982 56.6903C164.7 57.0945 165.371 57.5777 165.984 58.1294C167.498 59.4867 168.628 61.2264 169.26 63.1715C169.924 65.2003 170.015 67.3785 169.525 69.4634C169.497 69.5804 169.47 69.6936 169.44 69.8059C168.644 72.7868 166.711 75.334 164.066 76.8891C161.42 78.4443 158.279 78.8799 155.331 78.1L155.33 78.1009ZM161.089 56.4496C158.362 55.7287 155.455 56.132 153.009 57.5701C150.563 59.0083 148.774 61.3653 148.037 64.1227C147.949 64.4537 147.878 64.778 147.826 65.0871C147.73 65.6502 147.677 66.2209 147.67 66.7916C147.66 67.5602 147.734 68.3277 147.889 69.0792C148.269 70.9358 149.128 72.6546 150.38 74.0633C151.681 75.5356 153.365 76.6105 155.242 77.1688C155.345 77.1992 155.449 77.2297 155.553 77.2572C158.281 77.9782 161.187 77.5749 163.634 76.1368C166.08 74.6986 167.869 72.3417 168.605 69.5842C168.634 69.4787 168.659 69.3721 168.684 69.2656C169.138 67.3376 169.053 65.324 168.44 63.4483C167.855 61.6477 166.809 60.0384 165.409 58.7819C164.842 58.2711 164.222 57.825 163.558 57.4512C163.065 57.1735 162.551 56.9366 162.021 56.7417C161.73 56.6342 161.416 56.5353 161.089 56.4478V56.4496Z" fill="#6F46BE"/>
</g>
<path d="M151.402 142.65C151.402 142.65 159.859 139.081 168.117 127.599C176.375 116.116 179.816 94.1882 179.816 94.1882L181.636 82.8142L184.189 78.8935C184.189 78.8935 184.565 76.5147 183.068 78.5549C181.572 80.5951 181.014 81.7955 180.194 81.5967C179.375 81.3979 181.723 75.5587 181.723 75.5587C181.723 75.5587 182.179 73.3996 180.802 74.4012C180.121 73.996 180.019 72.9431 179.241 74.2233C178.464 75.5036 175.675 81.5026 175.675 81.5026C175.675 81.5026 174.646 76.6478 173.467 76.8295C173.467 76.8295 173.113 79.9474 173.76 84.4435C172.687 88.3224 168.669 100.498 165.297 104.22C161.924 107.942 159.426 108.605 155.406 107.831C151.386 107.056 149.424 105.781 149.424 105.781C149.424 105.781 146.437 112.6 146.522 115.558C146.606 118.516 146.262 127.11 147.649 131.584C149.036 136.058 151.4 142.65 151.4 142.65H151.402Z" fill="#EDE3FF"/>
<path d="M81.3636 161.514C82.6753 163.776 93.0524 168.952 101.051 169.02C108.507 168.291 113.825 167.844 122.37 161.237C130.916 154.63 137.465 137.794 137.465 137.794L140.533 131.194L143.499 123.636C143.499 123.636 149.503 103.264 151.819 101.422L156.778 101.356C156.778 101.356 158.836 100.853 156.896 100.316C154.956 99.7785 152.216 99.7833 152.216 99.7833L158.831 98.1149C158.831 98.1149 161.367 96.1927 158.049 96.6568C157.888 96.2174 159.266 95.2158 156.886 94.8401C154.088 95.3632 149.751 96.4485 149.751 96.4485L153.022 91.7679C153.022 91.7679 153.998 89.6677 151.902 91.4292C149.806 93.1908 147.57 95.252 147.57 95.252C147.57 95.252 147.844 91.9143 146.204 91.5167C145.705 92.1968 145.211 95.6153 145.634 97.4529C144.498 99.1137 136.337 108.817 135.42 110.397C134.503 111.977 128.6 120.359 125.286 123.561C121.972 126.764 118.996 128.846 116.499 129.509C114.001 130.172 109.698 131.974 104.774 127.056C100.621 128.331 92.5698 131.521 88.2423 138.082C83.9148 144.643 80.3574 157.398 81.3645 161.514H81.3636Z" fill="#EDE3FF"/>
<path d="M118.046 88.0989C115.671 90.4607 113.097 93.6414 106.221 93.9105C99.3437 94.1797 92.4355 88.234 92.4355 88.234C92.4355 88.234 99.7502 85.7686 101.629 86.1224L101.065 71.6343C101.065 71.6343 97.2057 71.2995 98.2195 67.941C99.2333 64.5824 101.956 66.577 102.877 67.7346C103.799 68.8921 105.794 66.1718 106.926 61.7737C108.058 57.3755 107.271 53.1799 107.271 53.1799C107.271 53.1799 112.395 56.2902 114.64 59.7049C116.441 60.5419 116.061 60.1824 117.379 59.7011C118.698 59.2198 119.001 60.8663 118.541 61.5178C118.082 62.1693 116.483 62.02 116.483 62.02C116.483 62.02 118.991 66.8329 118.015 68.9321C117.039 71.0313 116.262 72.3116 112.804 73.0763C109.347 73.841 112.995 79.7306 112.995 79.7306L113.686 85.7049L118.048 88.097L118.046 88.0989Z" fill="#EDE3FF"/>
<path d="M146.49 114.372C146.49 114.372 145.87 122.939 147.689 130.834C149.512 138.738 151.402 142.649 151.402 142.649C151.402 142.649 144.518 146.138 141.201 146.201C141.201 146.201 141.767 135.853 140.508 131.219L142.721 126.223L146.49 114.373V114.372Z" fill="white"/>
<path d="M117.877 87.785C117.734 88.2387 117.489 88.6534 117.161 88.9987C115.333 90.745 112.941 92.5817 110.494 93.3607C107.145 94.4336 103.993 93.8182 100.653 92.8461C98.8819 92.3334 97.2656 91.7418 95.713 90.7602C94.6868 90.1305 93.7805 89.323 93.039 88.3747C90.2317 89.2964 86.8838 90.53 83.1998 92.1622C72.7266 96.7896 61.1387 112.492 63.134 132.071C65.1292 151.65 79.729 160.661 79.729 160.661C79.0827 156.539 79.9061 148.435 85.4911 139.856C91.0761 131.278 104.774 127.056 104.774 127.056C109.748 132.56 115.27 130.085 120.464 127.845C125.658 125.605 134.937 111.088 134.937 111.088L142.367 101.435C139.431 98.9621 123.461 90.6584 117.877 87.7869V87.785Z" fill="white"/>
<path d="M111.71 62.1367C112.889 61.527 113.626 60.6082 113.354 60.0851C113.083 59.5619 111.907 59.6323 110.729 60.242C109.55 60.8526 108.815 61.7715 109.086 62.2946C109.357 62.8177 110.533 62.7474 111.711 62.1377L111.71 62.1367Z" fill="white"/>
<path d="M111.466 66.2383L115.336 68.095C115.336 68.095 114.01 69.5541 112.44 68.8084C110.871 68.0626 111.466 66.2383 111.466 66.2383Z" fill="white"/>
<path d="M114.271 69.1727C113.954 69.2963 113.615 69.3543 113.275 69.342C112.935 69.3296 112.601 69.2487 112.294 69.1023C110.849 68.4136 110.923 66.8604 111.152 66.1347C111.164 66.0899 111.187 66.05 111.219 66.0158C111.251 65.9825 111.291 65.9568 111.333 65.9416C111.375 65.9225 111.421 65.913 111.468 65.914C111.513 65.914 111.559 65.9263 111.6 65.9473L115.47 67.8039C115.517 67.8249 115.558 67.8572 115.589 67.8981C115.621 67.939 115.641 67.9875 115.648 68.0379C115.656 68.0883 115.652 68.1397 115.639 68.1882C115.626 68.2367 115.601 68.2814 115.568 68.3204C115.206 68.698 114.763 68.9891 114.272 69.1717L114.271 69.1727ZM111.693 66.7063C111.626 67.2133 111.667 68.0807 112.574 68.5192C112.847 68.6476 113.147 68.7085 113.449 68.698C113.75 68.6876 114.044 68.6058 114.308 68.4583C114.465 68.3784 114.616 68.2852 114.757 68.1796L111.694 66.7063H111.693Z" fill="#6F46BE"/>
<path d="M143.602 110.46C145.123 109.904 145.9 108.208 145.338 106.671C144.777 105.134 143.087 104.338 141.567 104.894C140.047 105.449 139.269 107.145 139.831 108.682C140.392 110.219 142.082 111.015 143.602 110.46Z" fill="white"/>
<path d="M142.832 108.355C143.206 108.218 143.399 107.803 143.262 107.429C143.125 107.056 142.71 106.862 142.336 106.998C141.962 107.135 141.769 107.55 141.906 107.924C142.043 108.298 142.457 108.491 142.832 108.355Z" fill="#6F46BE"/>
<path d="M142.943 108.659C142.749 108.73 142.538 108.742 142.337 108.693C142.136 108.644 141.954 108.537 141.813 108.385C141.673 108.233 141.582 108.042 141.55 107.838C141.518 107.633 141.548 107.424 141.634 107.237C141.721 107.049 141.862 106.891 142.039 106.784C142.216 106.677 142.421 106.624 142.627 106.633C142.834 106.641 143.033 106.712 143.2 106.833C143.368 106.955 143.494 107.125 143.565 107.319C143.658 107.579 143.645 107.865 143.529 108.117C143.412 108.368 143.201 108.563 142.942 108.659H142.943ZM142.443 107.292C142.345 107.329 142.265 107.403 142.221 107.499C142.176 107.594 142.171 107.704 142.205 107.803C142.224 107.852 142.251 107.897 142.286 107.936C142.322 107.974 142.364 108.005 142.412 108.027C142.46 108.049 142.511 108.061 142.563 108.063C142.616 108.065 142.668 108.058 142.717 108.04C142.816 108.003 142.897 107.929 142.941 107.833C142.986 107.737 142.991 107.628 142.955 107.529C142.918 107.43 142.844 107.348 142.748 107.304C142.652 107.26 142.542 107.255 142.443 107.291V107.293V107.292Z" fill="#6F46BE"/>
<path d="M142.469 107.236C142.386 107.264 142.297 107.257 142.219 107.22C142.141 107.182 142.081 107.115 142.05 107.033L141.694 105.936C141.68 105.895 141.674 105.853 141.677 105.81C141.68 105.767 141.692 105.727 141.711 105.688C141.73 105.649 141.757 105.615 141.79 105.588C141.822 105.56 141.86 105.539 141.901 105.527C141.983 105.502 142.07 105.51 142.147 105.549C142.223 105.587 142.281 105.653 142.309 105.734L142.665 106.832C142.69 106.912 142.683 106.997 142.647 107.072C142.611 107.148 142.547 107.206 142.469 107.236Z" fill="#6F46BE"/>
<path d="M131.413 171.817C131.348 171.84 131.276 171.842 131.209 171.822C126 170.103 120.888 168.101 115.898 165.825C115.858 165.809 115.822 165.785 115.792 165.755C115.762 165.724 115.738 165.688 115.722 165.649C115.705 165.609 115.698 165.567 115.698 165.525C115.698 165.482 115.707 165.44 115.724 165.401C115.742 165.362 115.766 165.327 115.797 165.297C115.827 165.268 115.864 165.245 115.904 165.23C115.944 165.214 115.987 165.208 116.029 165.209C116.072 165.211 116.114 165.22 116.153 165.238C121.123 167.504 126.212 169.499 131.399 171.213C131.48 171.24 131.547 171.298 131.586 171.374C131.624 171.45 131.631 171.539 131.606 171.62C131.591 171.665 131.567 171.706 131.532 171.74C131.498 171.775 131.458 171.8 131.413 171.816V171.817Z" fill="#6F46BE"/>
<path d="M63.7692 135.911C46.2802 124.146 33.6109 113.605 36.2602 109.677C41.3825 102.094 64.5783 115.905 64.5783 115.905C64.5783 115.905 62.7725 123.678 62.7125 125.868C62.6344 128.386 63.7682 135.911 63.7682 135.911H63.7692Z" fill="#6F46BE"/>
<path d="M63.8794 136.217C63.8327 136.235 63.7813 136.242 63.7318 136.237C63.6823 136.231 63.6338 136.213 63.5919 136.185C55.4509 130.713 48.9521 125.904 44.2876 121.904C39.0215 117.39 36.1143 113.897 35.6583 111.551C35.5727 111.203 35.5593 110.843 35.6174 110.49C35.6755 110.137 35.8049 109.8 35.9982 109.499C37.2347 107.671 39.547 106.873 42.8768 107.125C45.4642 107.327 48.6912 108.18 52.4609 109.638C58.855 112.122 64.6914 115.59 64.7466 115.616C64.8046 115.651 64.8503 115.703 64.877 115.765C64.9036 115.827 64.9103 115.896 64.896 115.963C64.8779 116.038 63.1007 123.732 63.0321 125.867C62.9598 128.338 64.0745 135.778 64.0897 135.853C64.1021 135.915 64.0945 135.978 64.0678 136.035C64.0412 136.092 63.9974 136.14 63.9422 136.17C63.927 136.192 63.9051 136.208 63.8784 136.216L63.8794 136.217ZM38.754 108.183C37.8506 108.488 37.071 109.078 36.5341 109.865C36.3913 110.097 36.2961 110.355 36.2552 110.625C36.2133 110.894 36.2266 111.169 36.2933 111.434C36.8682 114.355 42.0344 120.857 63.3501 135.239C63.0683 133.277 62.3258 127.949 62.3877 125.862C62.4457 123.856 63.9079 117.402 64.2106 116.064C60.3534 113.844 56.3438 111.899 52.2125 110.245C47.6908 108.489 42.1458 106.945 38.754 108.183Z" fill="#6F46BE"/>
<path d="M110.073 62.9615C110.457 62.9311 110.836 62.8474 111.198 62.7114C111.421 62.6277 111.639 62.5297 111.848 62.4165C111.879 62.4051 111.915 62.3804 111.945 62.3699L111.986 62.3547C112.007 62.349 112.027 62.3376 112.043 62.3223C112.143 62.2672 112.239 62.2054 112.331 62.1369C113.221 61.5595 113.74 60.8423 113.709 60.2574L113.705 60.2469C113.706 60.225 113.703 60.2032 113.693 60.1822C113.681 60.1109 113.663 60.0415 113.64 59.972C113.585 59.8455 113.499 59.7342 113.389 59.6496C113.28 59.5649 113.151 59.5098 113.014 59.4888C112.526 59.3462 111.823 59.4308 111.06 59.7314C110.889 59.7989 110.721 59.875 110.558 59.9606C109.998 60.2384 109.5 60.6274 109.094 61.103C108.7 61.5909 108.587 62.0684 108.781 62.445C108.975 62.8217 109.443 62.9948 110.072 62.9606L110.073 62.9615ZM109.612 61.512C109.951 61.1201 110.364 60.7976 110.826 60.5636C110.849 61.0706 111.028 61.5576 111.337 61.96C110.925 62.1587 110.481 62.2824 110.025 62.3242C109.688 62.3442 109.434 62.2757 109.365 62.1521C109.307 62.0246 109.399 61.7726 109.612 61.511V61.512Z" fill="#6F46BE"/>
<path d="M101.715 68.8236L100.036 67.9675C100.118 67.7992 100.229 67.646 100.364 67.5148C100.397 67.4862 100.423 67.4529 100.441 67.414C100.46 67.3759 100.472 67.3341 100.474 67.2913C100.476 67.2485 100.47 67.2056 100.456 67.1657C100.442 67.1257 100.42 67.0887 100.392 67.0563C100.334 66.9935 100.254 66.9555 100.168 66.9498C100.082 66.9441 99.9986 66.9726 99.9329 67.0287C99.4474 67.4587 98.7563 68.6742 99.6645 70.1552C99.7016 70.2189 99.7606 70.2684 99.8311 70.2931C99.9015 70.3178 99.9777 70.3169 100.047 70.2912C100.065 70.2874 100.082 70.277 100.094 70.2627C100.131 70.2408 100.163 70.2132 100.189 70.179C100.215 70.1447 100.234 70.1067 100.244 70.0648C100.255 70.0239 100.257 69.9811 100.251 69.9383C100.244 69.8965 100.23 69.8556 100.208 69.8194C99.9672 69.4599 99.8482 69.0338 99.8663 68.6019L101.417 69.3895C101.456 69.4114 101.5 69.4247 101.545 69.4285C101.589 69.4323 101.635 69.4257 101.677 69.4095C101.751 69.379 101.812 69.3248 101.85 69.2544C101.87 69.2173 101.883 69.1764 101.887 69.1346C101.891 69.0927 101.887 69.0499 101.875 69.01C101.862 68.9701 101.842 68.932 101.814 68.9006C101.786 68.8683 101.753 68.8426 101.716 68.8236H101.715Z" fill="#6F46BE"/>
<path d="M105.891 53.474C105.826 53.4988 105.755 53.5016 105.688 53.4826C105.622 53.4636 105.563 53.4236 105.52 53.3685C102.537 49.3517 95.1477 51.5565 95.0734 51.5717C95.0325 51.5831 94.9896 51.5879 94.9477 51.5831C94.9059 51.5784 94.8649 51.5651 94.8269 51.5451C94.7897 51.5251 94.7564 51.4975 94.7298 51.4642C94.7031 51.4309 94.6831 51.3929 94.6717 51.352C94.6593 51.3111 94.6565 51.2683 94.6603 51.2264C94.665 51.1846 94.6784 51.1437 94.6983 51.1056C94.7393 51.0305 94.8097 50.9744 94.8916 50.9506C96.2938 50.5549 97.7407 50.3352 99.1972 50.2962C102.326 50.2211 104.685 51.1494 106.05 52.968C106.076 53.0013 106.096 53.0394 106.106 53.0803C106.118 53.1212 106.12 53.164 106.114 53.2058C106.108 53.2477 106.093 53.2876 106.071 53.3237C106.049 53.3599 106.02 53.3913 105.985 53.4151C105.96 53.4426 105.927 53.4626 105.892 53.4731L105.891 53.474Z" fill="#EDE3FF"/>
<path d="M11.4601 86.9304C11.3963 86.9542 11.3258 86.957 11.2611 86.9371C11.1964 86.9171 11.1383 86.8762 11.0993 86.821C8.66424 83.7402 6.94124 80.5034 5.96932 77.1877C5.20111 74.5786 4.9041 71.8545 5.09258 69.1427C5.42862 64.5686 7.06118 61.6894 7.12877 61.562C7.14971 61.5258 7.17827 61.4935 7.21254 61.4678C7.24586 61.4421 7.28489 61.4241 7.32582 61.4126C7.36676 61.4022 7.40959 61.3993 7.45148 61.405C7.49336 61.4108 7.53334 61.425 7.57047 61.4459C7.60664 61.4669 7.63901 61.4954 7.66471 61.5296C7.69041 61.5629 7.7085 61.6019 7.71992 61.6428C7.73135 61.6837 7.73325 61.7265 7.72754 61.7684C7.72183 61.8102 7.70755 61.8502 7.6866 61.8873C7.34772 62.5255 7.06118 63.1904 6.82986 63.8752C6.22824 65.6006 5.85889 67.3983 5.73228 69.2207C5.54856 71.8507 5.83795 74.4921 6.58712 77.0202C7.5362 80.2418 9.22017 83.4016 11.5943 86.413C11.6209 86.4463 11.6409 86.4843 11.6524 86.5252C11.6647 86.5661 11.6676 86.6089 11.6628 86.6517C11.6581 86.6936 11.6447 86.7354 11.6238 86.7716C11.6029 86.8086 11.5753 86.841 11.5419 86.8676C11.5324 86.9057 11.4924 86.9199 11.462 86.9314L11.4601 86.9304Z" fill="#EDE3FF"/>
<path d="M93.3208 77.5679L93.2399 77.5974C88.0509 79.4455 82.9961 78.4582 78.1051 77.5127C70.9027 76.1155 63.4605 74.6564 54.9559 81.811C54.9245 81.8396 54.8874 81.8614 54.8464 81.8747C54.8065 81.8881 54.7636 81.8928 54.7208 81.889C54.6789 81.8852 54.637 81.8728 54.5999 81.8519C54.5628 81.831 54.5304 81.8034 54.5038 81.7692C54.4761 81.7368 54.4552 81.6997 54.4428 81.6598C54.4305 81.6198 54.4257 81.577 54.4295 81.5352C54.4333 81.4933 54.4457 81.4524 54.4657 81.4153C54.4857 81.3782 54.5123 81.345 54.5456 81.3183C63.2806 73.9763 70.8799 75.4582 78.2298 76.8821C83.2579 77.857 88.0042 78.7863 93.0209 77L93.0913 76.9744C97.2427 75.4592 98.1566 71.9009 98.1699 71.8733C98.1794 71.8305 98.1975 71.7905 98.2223 71.7544C98.248 71.7192 98.2794 71.6888 98.3165 71.6659C98.3536 71.6431 98.3946 71.6279 98.4384 71.6212C98.4812 71.6146 98.5259 71.6165 98.5678 71.6279C98.6097 71.6393 98.6497 71.6574 98.6849 71.684C98.7201 71.7106 98.7487 71.743 98.7706 71.781C98.7925 71.8191 98.8068 71.8609 98.8115 71.9037C98.8172 71.9475 98.8134 71.9912 98.801 72.0331C98.762 72.1739 97.8053 75.93 93.3198 77.5679H93.3208Z" fill="#EDE3FF"/>
<path d="M184.427 77.6682C184.368 77.6082 184.296 77.5616 184.218 77.5312C184.14 77.5008 184.056 77.4865 183.972 77.4903C183.454 77.5188 182.895 78.2503 182.022 79.4411C181.592 80.0213 180.736 81.196 180.385 81.3006C180.322 80.9107 180.808 79.5401 181.126 78.6203C181.911 76.3717 182.387 74.8442 181.918 74.1317C181.856 74.0147 181.763 73.9168 181.649 73.8493C181.536 73.7817 181.405 73.7465 181.272 73.7475C181.084 73.7608 180.905 73.834 180.763 73.9567C180.755 73.8844 180.737 73.8141 180.708 73.7465C180.65 73.5953 180.535 73.4726 180.389 73.4051C179.425 72.9989 178.829 74.2269 177.745 76.4697C177.523 76.9291 177.279 77.4541 176.998 78.0049C176.704 78.5822 176.109 79.8102 175.722 80.6044C175.317 78.4576 174.718 77.1051 173.982 76.6618C173.87 76.5857 173.742 76.5363 173.608 76.5173C173.474 76.4982 173.337 76.5106 173.208 76.5543C172.803 76.7018 172.796 77.1536 173.131 80.5178C173.279 82.0235 173.441 83.5939 173.401 84.4576C173.369 85.3412 172.026 89.9847 169.937 94.9127C168.459 98.4016 165.508 104.55 162.433 106.498C160.755 107.558 158.741 107.984 156.459 107.738C154.492 107.538 152.272 106.835 149.858 105.662C151.363 102.026 151.978 101.698 152.103 101.664C152.561 101.566 153.405 101.648 154.222 101.716C155.884 101.867 157.613 102.015 157.953 101.031C157.99 100.932 158.001 100.824 157.985 100.72C157.969 100.615 157.926 100.516 157.861 100.432C157.463 99.8778 155.885 99.6742 154.441 99.6162C155.953 99.2015 157.746 98.7078 158.172 98.5861C158.383 98.5319 158.568 98.4758 158.741 98.413C159.409 98.1695 159.823 97.8575 159.945 97.4685C159.995 97.3467 160.015 97.2136 160.006 97.0823C159.996 96.9511 159.954 96.8236 159.886 96.7104C159.85 96.6648 159.805 96.6258 159.753 96.5982C159.331 96.4175 158.875 96.3261 158.416 96.329C158.508 96.1987 158.571 96.0503 158.602 95.8943C158.613 95.7241 158.582 95.5547 158.508 95.4007C158.436 95.2466 158.326 95.1134 158.188 95.0135C157.118 94.0957 152.731 95.2161 150.613 95.8287C150.995 95.3341 151.497 94.6683 151.972 93.9901C153.9 91.2897 153.841 90.876 153.553 90.6249C153.47 90.5526 153.372 90.4984 153.265 90.4689C153.158 90.4384 153.047 90.4318 152.938 90.4489C152.068 90.5488 150.379 91.9565 147.898 94.6179C147.772 92.3921 147.224 91.2384 146.261 91.1766C146.19 91.1709 146.119 91.1794 146.053 91.2041C145.987 91.2289 145.927 91.2669 145.876 91.3173C145.637 91.5428 145.334 92.1582 145.189 94.9308C145.129 96.1797 145.119 97.3772 145.12 97.7557C144.668 98.277 144.213 98.821 143.725 99.4012C143.27 99.9463 142.808 100.505 142.367 101.055C140.818 99.9577 138.568 98.5756 136.041 97.1242C136.016 97.089 135.983 97.0614 135.943 97.0452C135.856 96.9967 135.499 96.8055 134.952 96.5012C131.852 94.7415 128.468 92.9257 125.552 91.3858C119.995 88.4591 115.036 85.9785 113.957 85.443C113.943 85.4363 113.925 85.4201 113.912 85.4135L112.779 75.3169L112.597 73.6276C113.052 73.5392 113.497 73.4155 113.931 73.2557C115.29 72.7668 116.487 71.9089 117.385 70.7789C118.974 68.7539 118.778 65.8643 116.851 62.4153C117.167 62.4553 117.489 62.421 117.789 62.3136C117.892 62.2774 117.99 62.2299 118.082 62.1728C118.33 62.0282 118.544 61.8323 118.71 61.5973C118.875 61.3624 118.989 61.0951 119.042 60.8126C119.064 60.5796 119.023 60.3447 118.923 60.1335C118.823 59.9214 118.669 59.7407 118.476 59.6085C118.215 59.4287 117.652 59.209 116.841 59.6893C116.528 59.8881 116.155 59.9709 115.786 59.9233C115.419 59.8757 115.079 59.6988 114.828 59.4258C114.82 59.4059 114.803 59.3888 114.792 59.3583C112.764 56.794 110.138 54.4142 107.743 52.9484C107.561 52.4529 107.332 51.9754 107.06 51.5226C105.854 49.5423 103.281 47.464 97.8596 48.8356C85.6501 51.9164 78.6344 46.7916 74.0041 43.3874C73.6624 43.1448 73.3359 42.9089 73.0227 42.6788C68.4372 39.3972 60.7694 33.9014 44.9568 40.844C38.399 43.7203 34.2761 43.3664 30.277 43.0373C27.6002 42.81 25.0633 42.5884 22.0209 43.4016C18.6235 44.31 15.0699 46.3626 10.8376 49.8828C6.68621 53.3175 3.53436 57.8051 1.71236 62.8748C0.0493299 67.4964 -0.412358 72.4653 0.371084 77.3153C0.963187 81.0838 2.42916 84.6621 4.65193 87.7647C6.8509 90.8123 9.88947 93.155 13.3964 94.5075C19.1385 96.7133 25.129 96.9016 31.6964 95.0887C37.4727 93.4964 42.9282 90.6211 48.2086 87.8323C50.6808 86.5282 53.0092 85.2993 55.3415 84.2074C62.5505 80.8536 67.7185 81.6164 73.2007 82.4249C77.2283 83.0194 81.4035 83.6405 86.7658 82.8301C88.4069 82.5904 90.0204 82.1852 91.5807 81.6231C95.3675 80.2401 97.713 78.1799 99.0962 76.4697C99.9044 75.4938 100.575 74.4114 101.087 73.2519L101.443 85.7426C97.4227 86.4065 93.4817 87.4841 89.6835 88.9575C86.0785 90.3291 82.6363 92.0973 79.4226 94.2298C75.6386 96.7817 72.5248 99.7541 70.1688 103.07C64.9113 110.474 62.1792 120.293 62.6895 130.009C62.9341 135.044 64.0945 139.994 66.1136 144.614C68.2678 149.514 71.413 153.917 75.3511 157.544C79.3169 161.202 83.4607 164.059 87.6711 166.033C91.4045 167.809 95.4293 168.894 99.5493 169.234C103.863 169.57 108.197 168.974 112.258 167.485C113.595 166.996 114.898 166.417 116.158 165.751L125.814 169.844C125.87 169.872 125.934 169.88 125.996 169.87C126.104 169.844 126.212 169.813 126.317 169.776C127.167 169.466 129.442 168.153 129.909 163.06C130.228 159.571 131.48 158.974 132.913 158.28C133.878 157.813 134.961 157.291 135.838 155.892C137.057 153.955 136.072 152.294 135.273 150.958C134.496 149.648 134.06 148.797 134.842 147.926C136.868 145.683 139.932 142.293 138.38 137.042C139.145 135.432 139.854 133.854 140.496 132.347C140.514 132.397 140.519 132.442 140.538 132.492C140.615 133.141 140.681 133.793 140.747 134.447C140.875 135.8 140.96 137.134 140.999 138.463C141.021 139.716 141.024 140.977 141.012 142.106C140.918 146.997 140.144 151.852 138.713 156.53C137.074 161.845 134.482 166.819 131.066 171.208C131.031 171.242 131.007 171.287 130.998 171.336C130.971 171.374 130.953 171.418 130.946 171.464C130.939 171.51 130.943 171.558 130.958 171.603C130.976 171.653 131.004 171.7 131.041 171.738C131.078 171.776 131.125 171.805 131.176 171.822C140.253 174.738 146.894 175.446 151.014 173.941C152.502 173.442 153.787 172.474 154.676 171.182C155.316 170.202 155.47 169.021 155.124 167.668C154.034 163.431 147.904 157.684 140.189 153.628C140.737 151.359 141.133 149.057 141.375 146.736C143.05 146.35 144.7 145.859 146.312 145.266C149.465 144.105 152.476 142.59 155.288 140.75C161.178 136.867 166.193 131.56 170.16 124.96C177.682 112.45 180.57 92.0412 181.527 85.3355C181.683 84.2569 181.806 83.398 181.855 83.2534C181.971 82.8786 182.439 82.1805 182.939 81.4471C184.262 79.5087 185.011 78.295 184.428 77.6701L184.427 77.6682ZM146.292 91.8319C146.869 91.9651 147.236 93.2539 147.272 95.2951C146.796 95.8135 146.293 96.3861 145.769 96.991C145.804 94.167 146.05 92.2067 146.292 91.8319ZM144.22 99.8179C148.737 94.4058 151.943 91.2155 153.014 91.1005L153.024 91.0967C152.795 91.7881 151.088 94.2127 149.494 96.2291C149.468 96.2615 149.447 96.2995 149.435 96.3404C149.423 96.3813 149.419 96.4241 149.424 96.466C149.429 96.5078 149.442 96.5487 149.463 96.5858C149.484 96.6229 149.512 96.6552 149.545 96.6809C149.579 96.7085 149.618 96.7294 149.66 96.7418C149.702 96.7542 149.746 96.758 149.79 96.7532C149.815 96.7532 149.841 96.7485 149.864 96.737C149.884 96.7294 151.625 96.1854 153.492 95.7678C156.782 95.0373 157.586 95.3512 157.782 95.5091C157.88 95.588 157.992 95.7079 157.975 95.8173C157.885 96.0189 157.723 96.1797 157.521 96.27C157.475 96.2986 157.435 96.3328 157.398 96.3728C154.626 96.6391 150.978 98.0858 150.78 98.1695C150.74 98.1847 150.703 98.2075 150.672 98.238C150.641 98.2684 150.617 98.3027 150.6 98.3426C150.582 98.3816 150.574 98.4244 150.574 98.4672C150.574 98.51 150.582 98.5519 150.6 98.5918C150.633 98.6698 150.696 98.7326 150.774 98.7659C150.852 98.7992 150.94 98.8011 151.02 98.7706C152.763 98.0772 157.587 96.4536 159.363 97.1356C159.367 97.1727 159.361 97.2107 159.346 97.245C159.298 97.3658 159.072 97.6892 158.003 97.965C157.244 98.1505 152.226 99.5572 152.017 99.6114C151.934 99.6352 151.866 99.6913 151.824 99.7665C151.783 99.8416 151.773 99.9301 151.797 100.013C151.823 100.079 151.865 100.139 151.918 100.187C151.977 100.233 152.05 100.255 152.125 100.25C152.145 100.242 153.406 100.205 154.707 100.282C156.993 100.411 157.316 100.763 157.345 100.81C157.176 101.32 155.432 101.165 154.28 101.057C153.381 100.984 152.526 100.906 151.969 101.017C151.416 101.139 150.541 101.975 148.523 107.221C147.538 107.163 146.568 106.956 145.647 106.607L145.629 106.557C145.381 105.869 144.91 105.284 144.291 104.895C143.672 104.506 142.941 104.334 142.214 104.407C141.878 104.092 141.571 103.747 141.297 103.376C142.248 102.213 143.221 101.009 144.221 99.8188L144.22 99.8179ZM145.034 106.783C145.272 107.433 145.241 108.15 144.949 108.778C144.657 109.406 144.128 109.891 143.478 110.128C142.828 110.366 142.11 110.335 141.483 110.044C140.856 109.753 140.369 109.223 140.131 108.573C140.049 108.351 139.999 108.119 139.982 107.882C140.001 107.811 139.998 107.736 139.972 107.668C139.966 107.05 140.179 106.452 140.573 105.978C140.968 105.503 141.518 105.184 142.126 105.079C142.733 104.973 143.359 105.086 143.891 105.398C144.423 105.71 144.828 106.202 145.031 106.785L145.034 106.783ZM127.64 95.9704C127.668 95.8762 127.716 95.7897 127.779 95.7155C127.843 95.6413 127.921 95.5804 128.009 95.5367C129.046 95.044 133.15 96.505 135.561 97.576C138.145 99.0541 140.407 100.442 141.967 101.536C139.088 105.087 136.515 108.471 135.035 110.514C133.209 106.564 130.989 102.808 128.411 99.3023C128.054 98.6061 127.336 96.8616 127.64 95.9704ZM101.468 86.3865L101.492 87.3301C101.492 87.3729 101.503 87.4147 101.52 87.4537C101.537 87.4927 101.562 87.5279 101.593 87.5574C101.625 87.5869 101.661 87.6097 101.701 87.6249C101.741 87.6401 101.783 87.6468 101.825 87.6449C101.859 87.6516 101.893 87.6468 101.923 87.6316C101.987 87.6078 102.041 87.564 102.078 87.507C102.115 87.4499 102.133 87.3833 102.129 87.3158L101.684 71.4733C101.684 71.4305 101.673 71.3886 101.656 71.3496C101.639 71.3106 101.614 71.2754 101.583 71.2459C101.552 71.2164 101.515 71.1936 101.475 71.1793C101.435 71.1641 101.392 71.1575 101.35 71.1584C101.321 71.1594 101.292 71.166 101.266 71.1784C100.387 71.3496 99.6683 71.1422 99.1952 70.5687C98.6088 69.8763 98.4527 68.6949 98.8211 67.7571C98.9639 67.3956 99.3075 66.765 100.021 66.6765C101.302 66.5082 102.08 67.3471 102.496 68.0786C102.584 68.2326 102.708 68.3639 102.857 68.4609C103.007 68.5579 103.177 68.6179 103.354 68.6369C103.529 68.6569 103.707 68.634 103.872 68.5703C104.037 68.5056 104.183 68.4029 104.298 68.2697C106.147 66.1724 107.541 63.1392 108.111 59.9594C108.511 57.7252 108.475 55.6507 108.029 53.8977C110.366 55.5204 112.454 57.475 114.225 59.7007C114.233 59.7207 114.25 59.7378 114.261 59.7683C114.606 60.1849 115.091 60.4636 115.626 60.5511C116.161 60.6386 116.708 60.5301 117.168 60.2448C117.553 60.0118 117.873 59.9756 118.116 60.1392C118.207 60.2029 118.281 60.2895 118.33 60.3903C118.379 60.4911 118.401 60.6024 118.395 60.7137C118.356 60.9001 118.278 61.0771 118.167 61.2321C118.056 61.3871 117.913 61.5174 117.749 61.6145C117.364 61.8465 116.894 61.8465 116.335 61.6373C116.296 61.6211 116.253 61.6135 116.211 61.6145C116.168 61.6145 116.126 61.6249 116.088 61.6421C116.05 61.6592 116.015 61.6839 115.985 61.7153C115.957 61.7467 115.935 61.7828 115.921 61.8228C115.898 61.8751 115.891 61.934 115.902 61.9902C115.901 62.0567 115.917 62.1214 115.948 62.1794C118.591 66.55 117.904 69.0364 116.866 70.369C113.796 74.2773 108.476 72.939 108.423 72.9238C108.382 72.9114 108.339 72.9067 108.297 72.9114C108.254 72.9162 108.213 72.9295 108.175 72.9504C108.137 72.9713 108.104 72.9999 108.079 73.0341C108.053 73.0683 108.034 73.1073 108.023 73.1492C108.003 73.2186 108.006 73.2928 108.033 73.3594C108.06 73.426 108.108 73.4821 108.17 73.5192C110.398 75.3435 111.986 77.8299 112.705 80.6177L112.709 80.6282L113.27 85.6436L113.273 85.6541C113.281 85.6741 113.274 85.6883 113.282 85.7083L113.29 85.7283C113.295 85.7502 113.307 85.7692 113.322 85.7854L113.326 85.7958C113.358 85.8424 113.4 85.8824 113.448 85.9119L113.546 85.9566C114.812 86.7318 116.025 87.5878 117.181 88.52C114.408 91.7006 111.136 93.4574 107.464 93.7085C100.816 94.1737 94.7106 89.6224 93.2085 88.403C95.9072 87.5241 98.6688 86.8497 101.468 86.3865ZM92.4888 88.6322C93.8796 89.7983 95.3836 90.8218 96.98 91.6864C99.5065 93.0703 103.392 94.6578 107.521 94.3667C108.788 94.2811 110.036 94.0186 111.23 93.5858C113.599 92.7212 115.765 91.1727 117.695 88.9194C118.25 89.3703 118.848 89.8754 119.478 90.4366C118.466 91.7634 117.235 92.9077 115.838 93.8189C113.539 95.3464 109.646 97.0661 104.113 96.562C98.9153 96.096 95.316 94.129 93.2037 92.5595C92.0176 91.6921 90.9552 90.6667 90.0471 89.513C90.8934 89.1924 91.7035 88.8966 92.4907 88.6322H92.4888ZM75.7938 157.061C71.9213 153.496 68.8294 149.167 66.7142 144.347C64.7285 139.795 63.5881 134.92 63.3472 129.961C62.9046 121.564 64.9198 113.107 68.9094 106.224C71.8033 108.299 72.7267 116.005 75.4606 114.628C78.463 113.108 73.8766 109.7 73.4092 102.276C73.334 101.442 73.6881 100.465 73.7233 99.8083C75.5568 97.9184 77.5853 96.2272 79.7757 94.7653C82.8038 92.7517 86.0404 91.07 89.4293 89.7489C90.3907 91.0092 91.5293 92.1239 92.8096 93.0598C94.9781 94.6892 98.7059 96.7237 104.071 97.2088C106.963 97.5008 109.883 97.1479 112.622 96.1749C113.899 95.7183 115.111 95.0982 116.229 94.3306C117.666 93.4032 118.932 92.2352 119.97 90.8769C120.3 91.1804 120.643 91.4914 120.979 91.8167C123.481 94.2174 125.771 96.8274 127.826 99.6191C127.85 99.6514 127.871 99.6866 127.887 99.7227C127.909 99.7589 127.936 99.7922 127.968 99.8198C130.557 103.355 132.778 107.147 134.597 111.133C134.488 111.276 134.39 111.414 134.308 111.537C133.984 111.999 133.611 112.549 133.214 113.129C131.297 115.952 128.391 120.214 124.829 123.718C122.092 126.403 119.359 128.25 116.666 129.233C115.287 129.751 113.831 130.034 112.359 130.071C108.118 130.15 104.943 127.903 102.938 123.391C101.995 121.183 101.402 118.841 101.18 116.45C101.174 116.365 101.135 116.287 101.071 116.231C101.008 116.175 100.925 116.146 100.841 116.152C100.756 116.157 100.677 116.195 100.621 116.259C100.565 116.321 100.535 116.404 100.539 116.489C100.756 118.95 101.367 121.362 102.347 123.63C102.845 124.778 103.487 125.859 104.258 126.845C101.504 127.715 98.8392 128.846 96.2994 130.221C92.1956 132.43 86.6953 136.251 83.732 141.957C79.5568 149.998 79.3531 157.977 79.3807 160.124C78.1736 159.176 76.9742 158.156 75.7938 157.061ZM133.307 145.425C132.624 146.604 131.886 147.849 131.097 149.112C127.843 154.304 124.612 158.398 121.553 161.27C120.869 161.888 120.149 162.465 119.396 162.998C113.476 167.178 106.623 169.118 99.5988 168.585C95.5569 168.248 91.6092 167.182 87.9471 165.439C85.9452 164.498 84.0213 163.402 82.1917 162.16C82.0166 160.502 82.0128 158.832 82.1813 157.173C82.4373 154.2 83.2303 149.401 85.5968 143.477C87.9443 137.595 93.0257 133.537 96.8629 131.161C99.337 129.627 101.968 128.363 104.711 127.388C105.564 128.36 106.599 129.155 107.759 129.729C106.332 132.981 99.2237 135.14 100.751 137.806C102.467 140.461 105.657 137.414 111.486 132.797C113.012 131.605 114.709 130.649 116.519 129.961C116.652 129.913 116.776 129.878 116.908 129.831C119.682 128.818 122.499 126.917 125.281 124.169C128.893 120.614 131.811 116.324 133.745 113.483C134.141 112.903 134.507 112.367 134.832 111.905C135.559 110.882 136.869 109.096 138.509 106.96C138.697 107.19 138.969 107.527 139.328 107.912C139.354 108.213 139.42 108.51 139.524 108.793C139.805 109.562 140.362 110.197 141.087 110.577C141.811 110.957 142.652 111.054 143.444 110.848C144.588 111.323 145.842 111.47 147.064 111.27C145.629 115.443 144.318 119.799 143.574 122.284C142.146 127.11 138.303 136.591 133.305 145.425H133.307ZM145.964 140.242C143.406 139.398 141.882 134.918 141.257 132.645C141.229 132.472 141.197 132.323 141.172 132.16C141.124 131.81 141.087 131.457 141.043 131.118C142.25 128.295 143.311 125.411 144.219 122.477C144.698 120.868 145.407 118.476 146.248 115.851C146.109 117.681 146.072 119.518 146.137 121.352C146.385 127.403 147.565 133.381 149.634 139.074C148.32 140.218 147.086 140.611 145.965 140.24L145.964 140.242ZM183.645 79.113C183.268 79.7997 182.852 80.4655 182.4 81.1047C181.857 81.9113 181.389 82.6094 181.236 83.067C181.17 83.2629 181.084 83.845 180.88 85.2622C179.933 91.9299 177.055 112.244 169.594 124.639C165.665 131.157 160.73 136.4 154.919 140.219C153.829 140.939 152.704 141.6 151.573 142.21L150.575 139.764C148.325 133.874 147.04 127.659 146.772 121.362C146.579 116.063 147.278 112.767 147.288 112.73C147.296 112.698 147.299 112.666 147.298 112.634C147.738 111.326 148.192 110.025 148.643 108.781C149.001 107.812 149.314 106.975 149.614 106.257C151.327 107.113 153.141 107.751 155.013 108.153C152.796 110.03 149.446 111.539 150.456 113.328C151.958 115.648 154.746 112.978 159.849 108.947C160.6 108.354 161.404 107.829 162.25 107.381C162.206 107.397 162.161 107.409 162.115 107.42C162.346 107.301 162.565 107.175 162.78 107.039C165.848 105.104 168.692 99.5116 170.531 95.1572C172.582 90.3129 174.01 85.5238 174.051 84.4756C174.082 83.5577 173.928 81.9731 173.768 80.437C173.644 79.1872 173.487 77.6596 173.534 77.1602C173.572 77.1736 173.609 77.1907 173.644 77.2116C173.956 77.4075 174.772 78.2569 175.283 81.9141C175.297 81.9988 175.341 82.0739 175.41 82.1253C175.478 82.1767 175.564 82.1985 175.649 82.1871C175.734 82.1757 175.81 82.132 175.862 82.0644C175.914 81.9969 175.938 81.9122 175.929 81.8276C175.92 81.7734 175.915 81.7287 175.911 81.6849C175.933 81.664 175.952 81.6374 175.963 81.6079C175.966 81.5841 177.138 79.171 177.576 78.2997C177.857 77.749 178.111 77.2211 178.334 76.7608C179.081 75.2265 179.722 73.9025 180.124 73.9967C180.15 74.068 180.208 74.4142 179.816 75.6346C179.281 77.2135 178.665 78.7639 177.969 80.2791C177.951 80.3181 177.94 80.3599 177.939 80.4018C177.938 80.4446 177.945 80.4874 177.96 80.5273C177.975 80.5673 177.998 80.6034 178.028 80.6348C178.057 80.6653 178.092 80.69 178.131 80.7071C178.17 80.7242 178.212 80.7328 178.255 80.7338C178.298 80.7338 178.341 80.7261 178.38 80.71C178.42 80.6938 178.455 80.67 178.486 80.6396C178.516 80.6101 178.54 80.574 178.556 80.534C179.478 78.4424 180.323 76.3898 180.636 75.0477C180.679 75.0192 180.716 74.9821 180.745 74.9393C180.885 74.6929 181.156 74.399 181.282 74.399C181.293 74.3952 181.324 74.418 181.37 74.4818C181.705 74.9906 180.986 77.0423 180.511 78.4091C179.894 80.1716 179.565 81.1875 179.82 81.6678C179.854 81.7344 179.902 81.7924 179.96 81.8381C180.018 81.8837 180.086 81.917 180.158 81.9341C180.824 82.092 181.489 81.2417 182.529 79.8178C182.949 79.2414 183.655 78.2826 183.952 78.1513C183.97 78.236 183.971 78.4881 183.647 79.1111L183.645 79.113Z" fill="#6F46BE"/>
<path d="M138.736 156.532C140.163 151.853 140.936 146.999 141.035 142.109C141.045 140.981 141.044 139.718 141.022 138.465C140.974 137.14 140.897 135.802 140.77 134.449C140.703 133.796 140.637 133.144 140.561 132.494C140.542 132.444 140.534 132.39 140.519 132.349C139.876 133.857 139.164 135.425 138.402 137.045C139.955 142.295 136.891 145.685 134.865 147.928C134.082 148.799 134.519 149.648 135.296 150.96C136.095 152.297 137.081 153.957 135.861 155.894C134.984 157.293 133.901 157.814 132.936 158.282C131.503 158.977 130.251 159.572 129.932 163.062C129.53 167.487 127.751 169.055 126.744 169.595C128.272 170.162 129.755 170.676 131.164 171.137C134.54 166.76 137.104 161.814 138.735 156.532H138.736Z" fill="white"/>
<mask id="mask2_183_8380" style="mask-type:luminance" maskUnits="userSpaceOnUse" x="225" y="33" width="20" height="19">
<path d="M244.14 33.4812H225.732V51.8748H244.14V33.4812Z" fill="white"/>
</mask>
<g mask="url(#mask2_183_8380)">
<path d="M234.936 51.696C239.921 51.696 243.962 47.6583 243.962 42.6771C243.962 37.6959 239.921 33.6582 234.936 33.6582C229.951 33.6582 225.91 37.6959 225.91 42.6771C225.91 47.6583 229.951 51.696 234.936 51.696Z" fill="#EDE3FF" stroke="#EDE3FF" stroke-width="4.5506" stroke-miterlimit="12.44"/>
</g>
<path d="M234.509 37.2853H235.613V48.3188H234.509V37.2853Z" fill="white"/>
<path d="M229.54 42.2504H240.582V43.3538H229.54V42.2504Z" fill="white"/>
</svg>
