<svg width="203" height="220" viewBox="0 0 203 220" fill="none" xmlns="http://www.w3.org/2000/svg">
<mask id="mask0_183_9878" style="mask-type:luminance" maskUnits="userSpaceOnUse" x="14" y="0" width="172" height="220">
<path d="M185.751 0.000183105H14.6172V219.294H185.751V0.000183105Z" fill="white"/>
</mask>
<g mask="url(#mask0_183_9878)">
<path d="M185.683 113.35C187.143 46.3017 164.963 50.9546 160.696 25.1295C155.118 -8.62685 116.022 1.3902 100.726 1.3902C53.8061 1.3902 14.6151 14.596 14.6172 106.614C14.6214 199.028 56.2945 217.357 103.181 219.216C160.233 221.476 184.337 175.169 185.683 113.35Z" fill="white"/>
</g>
<mask id="mask1_183_9878" style="mask-type:luminance" maskUnits="userSpaceOnUse" x="0" y="18" width="95" height="187">
<path d="M94.5285 18.4932H0.687988V204.521H94.5285V18.4932Z" fill="white"/>
</mask>
<g mask="url(#mask1_183_9878)">
<mask id="mask2_183_9878" style="mask-type:luminance" maskUnits="userSpaceOnUse" x="0" y="18" width="95" height="187">
<path d="M94.738 18.4932H0.687988V204.959H94.738V18.4932Z" fill="white"/>
</mask>
<g mask="url(#mask2_183_9878)">
<path d="M18.8276 183.751L13.8172 197.493L12.2734 201.128L16.7078 201.33L18.2474 199.914L24.9943 184.76L18.8276 183.751Z" fill="white"/>
<path d="M16.7078 201.726L12.2735 201.525C12.1478 201.518 12.0326 201.448 11.9676 201.334C11.9027 201.223 11.8943 201.085 11.9446 200.966L13.4737 197.323L18.4736 183.602C18.5365 183.427 18.7082 183.324 18.8842 183.353L25.0508 184.366C25.1681 184.384 25.2687 184.458 25.3273 184.568C25.3818 184.679 25.3818 184.813 25.3273 184.924L18.5909 200.093C18.5679 200.144 18.5365 200.187 18.4967 200.225L16.9571 201.636C16.888 201.697 16.7979 201.73 16.7078 201.728V201.726ZM12.8474 200.756L16.5717 200.927L17.9416 199.673L24.4392 185.058L19.0685 184.18L14.1628 197.631L12.8453 200.756H12.8474Z" fill="#6F46BE"/>
<path d="M52.5475 181.937L52.1621 198.502L57.3631 197.896L59.4829 182.34L52.5475 181.937Z" fill="white"/>
<path d="M52.1622 198.905C51.9548 198.905 51.7852 198.727 51.7852 198.508L52.1622 181.943C52.1643 181.836 52.2083 181.735 52.2837 181.663C52.3591 181.591 52.4575 181.554 52.5602 181.56L59.4998 181.956C59.6045 181.961 59.703 182.013 59.7721 182.099C59.8391 182.186 59.8684 182.298 59.8517 182.407L57.7319 197.963C57.7067 198.141 57.5706 198.281 57.3988 198.3L52.2062 198.907H52.1643L52.1622 198.905ZM52.9163 182.359L52.5392 198.066L57.0218 197.543L59.0452 182.718L52.9163 182.357V182.359Z" fill="#6F46BE"/>
<path d="M40.1596 101.312C40.1596 101.312 17.5457 183.76 14.2026 189.308C18.9387 193.98 23.6705 191.934 23.6705 191.934C23.6705 191.934 51.8541 118.245 53.247 115.619C52.6877 129.048 52.5495 180.606 52.5495 190.822C55.0547 192.282 61.4539 190.608 61.4539 190.608C61.4539 190.608 69.8157 113.853 70.3708 103.645C70.9259 93.4377 40.1596 101.31 40.1596 101.31V101.312Z" fill="#EDE3FF"/>
<path d="M19.0203 204.159V197.896L14.3723 195.622C14.3723 195.622 10.7276 199.183 4.29696 200.397C0.459556 201.122 1.1089 204.564 1.1089 204.564L19.0224 204.162L19.0203 204.159Z" fill="#6F46BE"/>
<path d="M1.10695 204.959C0.922619 204.963 0.763425 204.827 0.729911 204.639C0.579096 203.641 0.784372 202.619 1.30804 201.77C1.90501 200.853 2.88531 200.258 4.2217 200.01C10.4554 198.824 14.0708 195.368 14.1085 195.333C14.2216 195.224 14.385 195.198 14.5232 195.266L19.1796 197.537C19.3137 197.603 19.3996 197.743 19.3975 197.898V204.162C19.3975 204.381 19.2278 204.558 19.0204 204.558L1.10695 204.954V204.963V204.959ZM14.4352 196.088C13.589 196.844 10.0763 199.708 4.35995 200.785C3.22883 201 2.41611 201.481 1.93643 202.216C1.57825 202.792 1.40648 203.473 1.44209 204.16L18.6371 203.764V198.146L14.4331 196.088H14.4352Z" fill="#6F46BE"/>
<path d="M51.7785 196.681L51.0244 202.945H64.6879C64.6879 202.945 64.4951 200.319 63.5337 199.511C62.5722 198.704 58.3787 196.743 57.9452 194.663C57.5116 192.584 51.7785 196.681 51.7785 196.681Z" fill="#6F46BE"/>
<path d="M64.686 203.341H51.0037C50.8948 203.341 50.7921 203.293 50.7209 203.208C50.6497 203.123 50.6162 203.009 50.6308 202.895L51.3849 196.631C51.3996 196.52 51.4582 196.421 51.5462 196.358C52.3003 195.813 56.1167 193.125 57.6479 193.758C57.9852 193.893 58.2302 194.204 58.2931 194.576C58.5842 195.968 61.0015 197.452 62.4447 198.343C62.895 198.601 63.3307 198.888 63.7476 199.201C64.8074 200.091 65.0232 202.628 65.0462 202.915C65.0525 203.024 65.0169 203.131 64.9436 203.212C64.8766 203.289 64.7844 203.333 64.6881 203.339L64.686 203.341ZM51.4331 202.549H64.2628C64.1539 201.702 63.8628 200.297 63.293 199.82C63.0668 199.634 62.6102 199.354 62.0823 199.028C60.3312 197.951 57.9307 196.48 57.5725 194.751C57.562 194.635 57.4908 194.537 57.3882 194.497C56.5587 194.154 53.8671 195.684 52.1285 196.911L51.4352 202.549H51.4331Z" fill="#6F46BE"/>
<path d="M52.4489 175.065C52.4489 175.065 54.1162 169.21 55.1468 166.68C57.4593 161.027 54.1874 161.793 54.5687 158.399C54.9499 155.004 56.3114 153.556 58.1338 151.831C61.1186 149.001 59.001 142.335 56.2046 145.874C53.4082 149.413 52.7358 153.348 52.6395 158.399C52.5431 163.45 52.4468 175.063 52.4468 175.063L52.4489 175.065Z" fill="white"/>
<path d="M35.0279 120.014C35.0279 120.014 30.0175 140.619 29.9232 142.641C29.8289 144.664 30.8847 150.017 29.5462 150.621C28.2077 151.225 27.5227 153.549 28.1951 156.884C28.8675 160.22 27.1038 161.126 26.3497 160.723C25.5957 160.321 23.4591 164.054 23.2664 166.884C23.0737 169.714 17.1919 181.736 17.1919 181.736L35.03 120.016L35.0279 120.014Z" fill="white"/>
<path d="M66.6151 141.985C66.6151 141.985 64.7278 153.652 61.2674 157.288C57.8071 160.923 60.9763 162.895 61.988 162.588C62.9997 162.282 65.1698 160.923 66.6151 141.983V141.985Z" fill="#6F46BE"/>
<path d="M42.9143 141.829C42.9143 141.829 42.0472 142.589 40.3107 142.589C38.5742 142.589 42.0472 140.013 43.7794 135.771C45.5117 131.53 39.4477 131.07 43.9261 127.284C48.4044 123.498 48.4044 122.283 46.9445 120.163C45.4845 118.042 53.2305 115.617 53.2305 115.617L42.9143 141.827V141.829Z" fill="#6F46BE"/>
<path d="M37.7109 109.491C37.7109 109.491 56.1146 115.453 60.4463 115.956C64.7781 116.459 69.1245 116.665 69.1245 116.665L69.5015 112.927C71.1647 112.877 53.5402 113.844 37.7109 109.493V109.491Z" fill="#6F46BE"/>
<path d="M62.5746 177.286C62.5746 177.286 60.7438 184.765 59.397 185.99C58.0501 187.216 59.6839 187.605 59.1058 188.616C58.5277 189.628 56.5063 191.343 56.5063 191.343L61.4414 190.595L62.5725 177.286H62.5746Z" fill="#6F46BE"/>
<path d="M40.8908 146.883C40.8908 146.883 36.2637 156.773 33.7585 158.701C31.2532 160.629 33.9512 161.634 32.6043 164.26C31.2574 166.886 24.896 175.369 26.6303 178.199C28.3647 181.029 34.5272 164.054 34.5272 164.054L40.8887 146.883H40.8908Z" fill="#6F46BE"/>
<path d="M21.0398 192.788C19.1525 192.788 16.5615 192.175 13.9452 189.595C13.8154 189.461 13.7944 189.251 13.8971 189.091C17.1689 183.655 39.5838 102.026 39.81 101.199C39.8477 101.063 39.9504 100.96 40.0823 100.925C41.0333 100.68 63.4356 95.0181 69.3195 100.133C70.3312 100.978 70.8717 102.295 70.7607 103.645C70.1993 113.778 61.9149 189.883 61.8207 190.652C61.8018 190.816 61.6866 190.949 61.5337 190.989C61.2698 191.061 54.9607 192.687 52.3528 191.166C52.2334 191.096 52.1601 190.962 52.1601 190.818C52.1601 182.149 52.2774 133.869 52.7864 117.624C48.0211 129.335 24.2824 191.383 24.0205 192.076C23.9828 192.175 23.9074 192.254 23.8132 192.293C22.925 192.634 21.9845 192.801 21.0398 192.783V192.788ZM14.6825 189.227C18.6938 193.013 22.5794 191.91 23.3837 191.626C25.2187 186.839 51.5485 118.009 52.9184 115.424C53.021 115.234 53.2514 115.166 53.4316 115.273C53.5552 115.345 53.6285 115.485 53.6222 115.632C53.0566 129.247 52.9247 180.853 52.9247 190.579C55.1094 191.619 59.948 190.579 61.1085 190.286C61.6594 185.213 69.4599 113.404 69.9919 103.641C70.0925 102.542 69.6526 101.466 68.8252 100.781C63.5194 96.1517 42.7886 101.085 40.4594 101.658C38.9198 107.246 18.4215 181.812 14.6784 189.225L14.6825 189.227Z" fill="#6F46BE"/>
<path d="M67.9852 53.0395C65.5847 52.1926 63.1193 51.5579 60.6162 51.1442C60.2622 46.1937 60.2392 41.1929 60.2392 41.1929C60.2392 41.1929 54.7868 40.5866 53.3896 40.6895C52.5979 43.191 51.4395 47.9424 50.5702 50.6868C44.8393 51.3281 43.1279 53.7027 43.1279 53.7027L58.1571 61.8091C58.1571 61.8091 85.4693 58.7933 67.9831 53.0373L67.9852 53.0395Z" fill="#EDE3FF"/>
<path d="M58.1588 62.2226C58.0981 62.2226 58.0394 62.2072 57.985 62.1788L42.9516 54.0724C42.8553 54.0198 42.7841 53.9235 42.7589 53.8119C42.7338 53.6981 42.7568 53.5777 42.8239 53.4836C42.8951 53.3852 44.6462 51.0237 50.285 50.319C50.7081 48.9621 51.1899 47.1543 51.6633 45.4166C52.1618 43.5563 52.6373 41.8011 53.029 40.558C53.0772 40.407 53.2092 40.2997 53.3621 40.2888C54.7739 40.1903 60.0524 40.7725 60.2744 40.7944C60.4671 40.8141 60.6159 40.987 60.6138 41.1905C60.6138 41.2386 60.641 46.0206 60.9678 50.7961C63.3871 51.2185 65.7708 51.8422 68.0959 52.6585C72.4004 54.0745 74.34 55.4271 74.2018 56.8803C73.8771 60.3076 60.8128 61.9249 58.1986 62.2182L58.1609 62.2226H58.1588ZM43.7602 53.6171L58.2322 61.4237C64.0574 60.7672 73.2508 58.9463 73.454 56.8059C73.4959 56.3507 73.0393 55.1163 67.8738 53.4158C65.4922 52.5776 63.0478 51.9473 60.5656 51.5358C60.3896 51.5096 60.2556 51.3607 60.2409 51.1747C59.9456 47.0164 59.8639 42.7838 59.8639 41.5538C58.7328 41.4312 55.0567 41.0482 53.6679 41.0745C53.2909 42.2804 52.8531 43.9152 52.3881 45.6355C51.8895 47.4914 51.3701 49.4129 50.9281 50.8136C50.882 50.9602 50.7584 51.0653 50.6118 51.0828C46.4581 51.5489 44.464 52.9584 43.7623 53.6149L43.7602 53.6171Z" fill="#6F46BE"/>
<path d="M50.6834 36.3802C50.6834 36.3802 51.5673 28.2782 50.7693 20.7167C50.6708 19.815 51.2887 19.003 52.1476 18.9002C52.2041 18.8936 52.2607 18.8892 52.3151 18.8892C56.8438 18.8892 63.6619 19.8347 66.9149 20.3402C67.7674 20.4716 68.356 21.301 68.2303 22.194C68.2157 22.2924 68.1947 22.3909 68.1633 22.485C66.9966 26.1005 64.5249 34.0932 64.2798 37.7262C62.4826 37.457 50.6792 36.3802 50.6792 36.3802H50.6834Z" fill="#6F46BE"/>
<path d="M64.2836 38.1202H64.2312C62.4654 37.8554 50.7668 36.7873 50.6474 36.7742C50.5468 36.7655 50.4526 36.7151 50.3876 36.632C50.3227 36.5488 50.2934 36.4415 50.3038 36.3343C50.3038 36.2555 51.1752 28.1885 50.3939 20.7627C50.3353 20.1871 50.5112 19.6137 50.8778 19.1804C51.2422 18.747 51.7638 18.4953 52.3147 18.491H52.409C56.8915 18.491 63.4499 19.4014 66.971 19.9464C68.0288 20.1083 68.7619 21.1369 68.609 22.2465C68.5923 22.3691 68.565 22.4917 68.5252 22.6098C67.4465 25.954 64.9057 34.1261 64.6606 37.7503C64.6459 37.9582 64.4826 38.118 64.2836 38.118V38.1202ZM51.0998 36.0192C53.0436 36.1964 61.5479 36.9799 63.9296 37.2776C64.3066 33.5548 66.4913 26.3895 67.7984 22.3538C68.0058 21.7016 67.6685 20.9947 67.0464 20.778C66.9815 20.7561 66.9145 20.7386 66.8474 20.7277C63.3598 20.1893 56.8475 19.2832 52.4111 19.2832H52.321C51.9879 19.2767 51.6696 19.4211 51.4454 19.6794C51.2213 19.9464 51.1145 20.3009 51.1501 20.6576C51.8371 27.2365 51.2548 34.2792 51.1019 36.0213L51.0998 36.0192Z" fill="#6F46BE"/>
<path d="M83.5694 59.5042C78.161 55.4532 68.203 51.9865 62.472 51.3233C62.472 51.3233 60.9408 53.7614 55.7021 53.7964C52.1956 53.6848 50.4654 52.5468 49.1626 50.8047C41.6155 51.9077 34.5335 53.6739 28.1699 56.3724C28.3626 57.0814 31.0605 68.0921 35.5892 72.942C37.4451 72.1563 39.3868 71.6135 41.3704 71.3246C40.2393 84.2503 38.3185 100.84 36.2658 108.804C36.2658 108.804 61.6991 115.47 71.2381 112.761C71.0496 98.9136 71.3596 84.2109 70.7543 72.7603L74.2251 73.8677C74.2251 73.8677 83.473 62.8374 83.5673 59.5064L83.5694 59.5042Z" fill="white"/>
<path d="M65.1594 113.794C53.9258 113.794 37.0366 109.406 36.1757 109.18C36.0772 109.154 35.9934 109.088 35.9411 108.999C35.8887 108.907 35.8741 108.797 35.8992 108.694C38.3478 99.1982 40.3336 78.6563 40.9515 71.7842C39.1606 72.0885 37.4094 72.6006 35.7253 73.3075C35.585 73.3644 35.4279 73.3272 35.3211 73.2156C31.3705 68.9851 28.7816 60.2221 27.8578 56.6503L27.8096 56.4731C27.7573 56.2783 27.8536 56.0726 28.0317 55.9982C34.1041 53.4178 41.0018 51.586 49.1102 50.4042C49.2442 50.3845 49.3783 50.4392 49.4621 50.5508C50.5115 51.9559 51.9945 53.2734 55.7146 53.3916C60.6203 53.3566 62.1306 51.1177 62.1599 51.0936C62.2374 50.971 62.3756 50.9032 62.5139 50.9185C68.3622 51.5904 78.3097 55.068 83.7893 59.1759C83.8919 59.2525 83.9506 59.3773 83.9485 59.5086C83.85 62.9468 74.8912 73.6489 74.5142 74.1041C74.4178 74.2136 74.2733 74.2573 74.1371 74.2179L71.1857 73.2725C71.5628 80.5691 71.5628 89.006 71.5628 97.9288C71.5628 102.798 71.5628 107.819 71.6382 112.726C71.6445 112.91 71.5293 113.074 71.3596 113.122C69.3278 113.623 67.2457 113.848 65.1594 113.794ZM36.7308 108.513C39.8707 109.305 61.9525 114.733 70.859 112.432C70.794 107.637 70.792 102.709 70.7878 97.9354C70.7878 88.7916 70.7878 80.1599 70.3835 72.756C70.3772 72.6268 70.4296 72.5043 70.5259 72.4233C70.6223 72.3423 70.7522 72.3183 70.8695 72.3555L74.1036 73.3928C76.6926 70.2916 82.7818 62.461 83.1609 59.6924C77.897 55.8231 68.2365 52.4374 62.6416 51.7239C62.1326 52.3367 60.2642 54.1423 55.7104 54.1729C52.5705 54.0744 50.5555 53.1837 49.0096 51.2096C41.1882 52.3651 34.5167 54.1247 28.6328 56.5913C29.5691 60.152 32.0283 68.357 35.7002 72.4605C37.5121 71.712 39.4035 71.1933 41.3348 70.9132C41.4479 70.8979 41.561 70.9373 41.6448 71.0204C41.7265 71.1036 41.7684 71.2218 41.7579 71.34C41.1987 77.608 39.2108 98.5525 36.735 108.51L36.7308 108.513Z" fill="#6F46BE"/>
<path d="M41.3702 71.7184H41.3221C41.1168 71.69 40.9702 71.4908 40.9974 71.2763C41.3032 68.4509 41.4289 65.6058 41.3744 62.7628C41.3744 62.544 41.5441 62.3667 41.7515 62.3667C41.9588 62.3667 42.1285 62.544 42.1285 62.7628C42.1851 65.6495 42.0594 68.5363 41.7515 71.4033C41.7159 71.5915 41.5546 71.725 41.3702 71.7206V71.7184Z" fill="#6F46BE"/>
<path d="M70.754 72.7385L70.377 68.2082C70.377 68.2082 71.196 70.4317 72.5428 70.6331C73.8897 70.8344 74.2102 73.8459 74.2102 73.8459L70.754 72.7385Z" fill="#6F46BE"/>
<path d="M74.2273 74.2423C74.1896 74.2489 74.1519 74.2489 74.1142 74.2423L70.6454 73.1305C70.4988 73.0824 70.3941 72.9467 70.3815 72.7869L70.0044 68.2566C69.9877 68.0596 70.1113 67.8824 70.2956 67.8364C70.4799 67.7926 70.6664 67.8977 70.7334 68.0815C70.9408 68.6396 71.6802 70.1191 72.6018 70.2569C74.1979 70.4933 74.5519 73.4807 74.5896 73.8177C74.6022 73.9512 74.5519 74.0804 74.4535 74.1657C74.3886 74.2161 74.309 74.2423 74.2273 74.2401V74.2423ZM71.1104 72.4389L73.7518 73.2859C73.5737 72.3995 73.1778 71.1258 72.5034 71.0273C71.8582 70.8807 71.2885 70.4867 70.9072 69.9243L71.1104 72.4411V72.4389Z" fill="#6F46BE"/>
<path d="M64.0829 35.6996C64.0221 35.6843 63.9593 35.6756 63.8986 35.669C63.9467 34.358 63.9216 33.0471 63.8232 31.7405C63.7373 30.2129 61.5065 31.2744 57.9183 30.9483C54.1458 30.5915 52.8723 29.2915 52.5288 30.9964C52.2397 32.0841 52.0198 33.1893 51.8752 34.3077C51.7056 34.2267 51.5191 34.183 51.3327 34.1808C50.4572 34.1808 49.7471 35.1153 49.7471 36.2665C49.7471 37.4177 50.4572 38.3522 51.3327 38.3522C51.4605 38.3522 51.5883 38.3281 51.7098 38.2843C51.9276 41.4052 53.0608 45.1323 56.8417 45.5482C60.6225 45.964 62.5014 42.7556 63.3058 39.7988C64.0976 39.882 64.8914 39.1816 65.1365 38.1421C65.4004 37.0062 64.9249 35.9229 64.0829 35.7018V35.6996Z" fill="#EDE3FF"/>
<path d="M57.5204 45.9617C57.2795 45.9617 57.0386 45.9464 56.7998 45.9179C53.6976 45.5787 51.781 43.0268 51.3704 38.7241C50.2729 38.7547 49.3638 37.6276 49.3638 36.2445C49.3638 34.8613 50.2435 33.7648 51.3265 33.7648C51.404 33.7583 51.4836 33.7583 51.5611 33.7648C51.7035 32.78 51.9046 31.8039 52.1601 30.8453C52.2083 30.4623 52.4052 30.1165 52.7027 29.8911C53.1886 29.5628 53.8338 29.7247 54.8455 29.9633C55.8635 30.2281 56.8982 30.4141 57.9435 30.5214C59.0746 30.6133 60.2099 30.6133 61.3389 30.5214C62.8973 30.4295 64.1269 30.3551 64.2023 31.7076V31.9374C64.284 33.0689 64.3091 34.2047 64.2777 35.3406C64.7679 35.5179 65.1617 35.9052 65.3648 36.4042C65.6015 36.9733 65.6497 37.6079 65.501 38.2076C65.3146 39.2143 64.5521 39.9935 63.5886 40.1664C62.9099 42.5081 61.2677 45.9617 57.5204 45.9617ZM51.7098 37.8793C51.7852 37.8793 51.8606 37.9034 51.9213 37.9515C52.0177 38.0194 52.0784 38.1288 52.0868 38.2492C52.2942 41.1775 53.2912 44.7492 56.8794 45.1497C60.7545 45.5765 62.3443 41.9085 62.9434 39.6849C62.9937 39.5032 63.1592 39.3829 63.3393 39.4004C63.9468 39.4551 64.5731 38.8664 64.77 38.0391C64.8768 37.6123 64.8454 37.1593 64.6799 36.7522C64.5584 36.4327 64.3008 36.1898 63.9866 36.0956C63.9426 36.0847 63.8986 36.0781 63.8546 36.0759C63.6619 36.0563 63.5132 35.8834 63.5153 35.6798C63.5613 34.463 63.5425 33.2461 63.4545 32.0315V31.7907C63.4273 31.3202 63.1194 31.2567 61.3829 31.3596C60.2204 31.4537 59.0536 31.4537 57.8932 31.3596C56.8082 31.2392 55.7357 31.0401 54.6779 30.7577C53.9238 30.5761 53.331 30.4338 53.1111 30.5805C52.9854 30.7074 52.9079 30.8803 52.8933 31.0641C52.6063 32.1431 52.3905 33.2418 52.2439 34.3514C52.2146 34.568 52.024 34.719 51.8187 34.6884C51.781 34.684 51.7454 34.6731 51.7119 34.6556C51.5946 34.5965 51.4647 34.5658 51.3348 34.5637C50.6708 34.5637 50.1283 35.3187 50.1283 36.2532C50.1283 37.1877 50.6708 37.9428 51.3348 37.9428C51.427 37.9428 51.5192 37.9253 51.6071 37.8946C51.6407 37.8837 51.6763 37.8793 51.7119 37.8793H51.7098Z" fill="#6F46BE"/>
<path d="M55.0757 40.0088C56.5357 40.5056 58.0795 40.6719 59.6044 40.4925C59.6044 40.4925 59.2085 42.7204 57.0342 42.5497C54.86 42.379 55.0757 40.0088 55.0757 40.0088Z" fill="white"/>
<path d="M57.2605 42.9546H57.0008C56.3452 42.9371 55.7273 42.6307 55.2958 42.112C54.8559 41.5036 54.6443 40.7442 54.703 39.9825C54.7134 39.8622 54.7763 39.7527 54.8726 39.6849C54.9711 39.6192 55.0905 39.6039 55.2015 39.6455C56.607 40.116 58.09 40.2692 59.5563 40.0963C59.6778 40.0766 59.7993 40.1204 59.8851 40.2101C59.9689 40.3021 60.0066 40.4334 59.9836 40.5581C59.7532 41.9435 58.6053 42.9546 57.2626 42.9524L57.2605 42.9546ZM55.4717 40.5494C55.5052 40.9302 55.6456 41.2935 55.8718 41.5933C56.1755 41.9435 56.6049 42.1448 57.0574 42.1514C57.9015 42.2652 58.7142 41.7815 59.0536 40.9652C57.847 41.0199 56.6384 40.8798 55.4717 40.5494Z" fill="#6F46BE"/>
<path d="M56.0374 35.3188C55.4258 35.2925 54.8204 35.1874 54.2339 35.0058C54.0328 34.9445 53.9197 34.7257 53.9784 34.5155C54.037 34.3054 54.2465 34.1851 54.4455 34.2464C55.0383 34.4389 55.6562 34.5287 56.2762 34.5112C56.4815 34.4805 56.6742 34.6315 56.7035 34.8482C56.7328 35.0649 56.5883 35.264 56.383 35.2947C56.2699 35.31 56.1547 35.3188 56.0395 35.3188H56.0374Z" fill="#6F46BE"/>
<path d="M61.2049 36.0231C60.5932 35.9969 59.9879 35.894 59.4014 35.7146C59.2003 35.6533 59.0872 35.4344 59.1458 35.2243C59.2045 35.0164 59.4119 34.896 59.6109 34.9551C60.2036 35.1455 60.8216 35.2331 61.4416 35.2156C61.649 35.1849 61.8438 35.3359 61.8731 35.5548C61.9024 35.7736 61.7579 35.9772 61.5505 36.0078C61.4374 36.021 61.3222 36.0275 61.207 36.0231H61.2049Z" fill="#6F46BE"/>
<path d="M57.1703 38.8246H57.1222C56.9148 38.8246 56.7451 38.6473 56.7451 38.4285C56.7451 38.2096 56.9148 38.0323 57.1222 38.0323H57.1599C57.4552 38.0542 57.7506 37.9754 58.0019 37.8113C58.0019 37.8113 58.0291 37.7763 58.0019 37.6931V37.6493C57.9077 36.9884 57.7485 36.0911 57.7485 36.067C57.7108 35.8481 57.849 35.6402 58.0585 35.6008C58.2658 35.5614 58.4669 35.7059 58.5046 35.9247C58.5046 35.9247 58.6659 36.8308 58.7602 37.5071C58.8356 37.7806 58.7811 38.0739 58.6177 38.2993C58.2449 38.7852 57.4322 38.8246 57.1724 38.8246H57.1703Z" fill="#6F46BE"/>
<path d="M51.7243 37.0254C51.517 37.0254 51.3473 36.8481 51.3473 36.6293C51.3473 36.3688 51.23 35.9333 51.0457 35.837C50.8572 35.7407 50.7797 35.5044 50.8718 35.3074C50.964 35.1104 51.1902 35.0294 51.3766 35.1257C52.0323 35.4628 52.0972 36.4739 52.1014 36.5899C52.1014 36.8087 51.9317 36.986 51.7243 36.986V37.0254Z" fill="#6F46BE"/>
<path d="M63.4332 38.3543H63.4038C63.1965 38.3367 63.0415 38.1463 63.0561 37.9297C63.0561 37.9297 63.0561 37.9297 63.0561 37.9275C63.0561 37.7721 63.1504 36.9777 63.5924 36.634C63.7599 36.5027 63.9966 36.5399 64.1202 36.715C64.2438 36.8901 64.2103 37.1374 64.0448 37.2687C63.8982 37.4788 63.8165 37.7327 63.8102 37.9931C63.7935 38.1989 63.6301 38.3586 63.4332 38.3564V38.3543Z" fill="#6F46BE"/>
<path d="M41.6048 67.7464C41.6048 67.7464 36.2656 70.0093 36.1943 72.7385C37.7465 72.1607 39.3384 71.7077 40.9555 71.3816L41.6048 67.7464Z" fill="#6F46BE"/>
<path d="M56.0726 57.495C54.8871 57.4906 53.7078 57.3112 52.5704 56.961C48.9508 55.8536 46.3472 53.3083 45.7376 51.4546C45.6685 51.2489 45.7732 51.0212 45.9701 50.9512C46.167 50.8812 46.3828 50.9884 46.4519 51.1941C47.0112 52.8706 49.531 55.2058 52.784 56.2038C55.4254 56.996 59.4555 57.2368 63.6846 53.7438C63.848 53.6081 64.0826 53.6366 64.2125 53.8073C64.3423 53.978 64.3172 54.2275 64.1538 54.3632C61.2632 56.7487 58.4605 57.4972 56.0747 57.4972L56.0726 57.495Z" fill="#6F46BE"/>
<path d="M35.4788 72.9576C36.1468 72.6238 35.007 68.6804 32.9331 64.1497C30.8593 59.619 28.6366 56.2168 27.9687 56.5505C27.3007 56.8843 28.4405 60.8277 30.5144 65.3584C32.5882 69.8891 34.8109 73.2913 35.4788 72.9576Z" fill="#6F46BE"/>
<path d="M35.3672 73.3885C34.9672 73.3885 34.3555 72.9661 33.2118 71.213C32.0765 69.4009 31.0669 67.5034 30.1934 65.5403C29.276 63.5903 28.4968 61.5724 27.8579 59.502C27.1038 56.9414 27.4201 56.3965 27.8118 56.1995C28.2035 56.0025 28.7963 56.0966 30.2374 58.3049C31.3727 60.1192 32.3824 62.0167 33.2558 63.982C33.9115 65.4112 37.1016 72.5787 35.6249 73.3184C35.5453 73.3622 35.4552 73.3885 35.3651 73.3906L35.3672 73.3885ZM28.1553 56.9655C28.0276 57.6965 28.8571 60.8305 30.8533 65.1945C32.8495 69.5585 34.6634 72.1979 35.2876 72.5524C35.4154 71.8215 34.5859 68.6831 32.5897 64.3191C30.5935 59.9595 28.7796 57.3157 28.1553 56.9633V56.9655Z" fill="#6F46BE"/>
<path d="M80.0597 67.6224C82.6123 63.6668 84.2073 60.126 83.6222 59.7138C83.0371 59.3016 80.4935 62.1741 77.9408 66.1297C75.3882 70.0853 73.7932 73.6261 74.3783 74.0383C74.9634 74.4505 77.507 71.578 80.0597 67.6224Z" fill="#6F46BE"/>
<path d="M74.4767 74.4676C74.3677 74.4676 74.2609 74.437 74.1708 74.3735C72.868 73.4521 76.8311 67.1644 77.6396 65.9147C78.4481 64.665 82.5453 58.4692 83.8398 59.395C84.1875 59.6445 84.4053 60.207 83.3601 62.5203C82.4908 64.3718 81.4917 66.1555 80.371 67.8538C79.6211 69.0203 76.0204 74.4698 74.4767 74.4698V74.4676ZM83.3789 60.1107C82.7191 60.3995 80.681 62.6122 78.2617 66.3568C75.8424 70.1014 74.6505 72.9094 74.6505 73.6557C75.3103 73.3668 77.3442 71.1541 79.7678 67.4095C82.1682 63.6627 83.3685 60.857 83.3789 60.1107Z" fill="#6F46BE"/>
<path d="M44.4053 92.1841C44.376 91.788 47.4237 92.0725 47.8008 92.0922C49.2838 92.1666 49.7174 90.9695 48.2721 90.059C47.6185 89.6629 42.009 87.6844 40.3145 86.6536C27.1412 80.3637 27.2627 76.4965 29.4139 74.1C30.7649 72.7628 32.3338 71.6904 34.0473 70.9354C33.2932 66.7859 31.4059 62.4175 29.2254 60.0123C23.2703 63.665 18.0483 68.134 17.2942 72.8394C15.7127 82.8762 35.0297 89.4572 35.0297 89.4331C39.2211 91.0483 43.0333 96.3686 44.464 97.2857C47.5704 99.3079 50.6306 98.1676 52.4111 97.3601C46.4078 96.1979 44.5541 93.9262 44.4074 92.1841H44.4053Z" fill="#EDE3FF"/>
<path d="M48.1736 98.8085C46.7786 98.8129 45.4108 98.4015 44.2294 97.6223C43.4984 97.038 42.8197 96.3836 42.2039 95.6679C40.4046 93.7639 37.6752 90.8837 34.8831 89.8048C33.6221 89.4087 15.3253 82.8495 16.913 72.7931C17.5665 68.6261 21.6406 64.2227 29.018 59.6967C29.1688 59.6026 29.3615 59.6311 29.483 59.7646C31.6678 62.1632 33.5969 66.5251 34.3887 70.8869C34.4222 71.0663 34.3322 71.2458 34.173 71.3224C32.4993 72.0556 30.966 73.0973 29.6443 74.3995C28.8442 75.2902 28.5383 76.1919 28.7206 77.168C29.2065 79.768 33.1508 82.8495 40.4192 86.3272C41.454 86.9553 43.9822 87.9445 45.8234 88.6689C46.7053 88.9819 47.5704 89.3452 48.4166 89.7566C49.244 90.2753 49.6273 90.9669 49.443 91.5994C49.2587 92.2319 48.6135 92.5646 47.7338 92.5208H47.474C46.5796 92.4223 45.681 92.4004 44.7845 92.4486C44.996 93.4575 46.1691 95.8036 52.4111 97.0183C52.5745 97.0489 52.7023 97.189 52.7211 97.3619C52.7337 97.5304 52.6436 97.6902 52.4949 97.758C51.1376 98.408 49.6692 98.7648 48.1778 98.8063L48.1736 98.8085ZM35.0946 89.0432H35.1407C38.1067 90.1856 40.8947 93.138 42.7401 95.0967C43.3182 95.7642 43.9487 96.377 44.6274 96.9329C46.9294 98.4277 49.1812 98.1191 51.0433 97.4582C45.0065 95.9831 44.1121 93.3284 44.0178 92.1991C44.0053 92.0634 44.0535 91.9277 44.1456 91.8314C44.3865 91.5731 44.9793 91.4747 47.5411 91.6651H47.7861C48.3643 91.6935 48.6805 91.4987 48.7371 91.3039C48.7937 91.1092 48.6093 90.7218 48.0438 90.3672C47.8176 90.225 46.7304 89.7982 45.5763 89.3474C43.6031 88.5551 41.1461 87.6075 40.0925 86.9728C32.5224 83.377 28.5488 80.2123 28.0063 77.2884C27.7801 76.0737 28.1571 74.9138 29.1374 73.8305C30.4424 72.5283 31.9547 71.4734 33.6053 70.7161C32.8198 66.7352 31.1001 62.8023 29.1416 60.524C22.1308 64.8771 18.2703 69.031 17.6587 72.9025C16.161 82.5081 34.6505 88.914 35.0967 89.041L35.0946 89.0432Z" fill="#6F46BE"/>
<path d="M94.0718 73.8834C92.8087 68.1581 88.324 63.8094 83.3366 60.5769C81.8264 61.9054 78.2655 66.6699 76.4662 71.0842C90.9863 76.1288 87.8087 83.3686 77.8884 87.3408C76.2504 88.1331 74.1935 88.492 72.9828 89.4616C71.8433 90.2888 70.8609 91.335 70.0921 92.5431C69.5496 93.3353 70.6388 94.3464 71.5835 93.552C72.2287 93.0136 73.3682 92.6941 74.2815 92.1907C73.8479 94.7141 71.8244 96.6094 66.6255 97.5155C75.4398 100.017 77.8256 92.5934 80.7874 90.8491C84.8972 88.9451 96.3151 84.0252 94.0738 73.879L94.0718 73.8834Z" fill="#EDE3FF"/>
<path d="M69.9896 98.4123C68.8145 98.3991 67.6456 98.2241 66.5145 97.8892C66.347 97.8389 66.2318 97.6769 66.238 97.4931C66.2485 97.3092 66.3784 97.156 66.5522 97.1254C70.6431 96.4097 72.9409 95.0594 73.6992 92.9037L73.2719 93.0853C72.7566 93.2779 72.2665 93.5362 71.8119 93.8579C71.2778 94.37 70.4588 94.37 69.9246 93.8579C69.5015 93.4596 69.4345 92.792 69.7696 92.3106C70.5635 91.0718 71.571 89.9994 72.7398 89.1459C73.5253 88.52 74.5706 88.161 75.6828 87.778C76.3762 87.557 77.0569 87.2922 77.7209 86.9858C82.9555 84.8935 86.0221 81.9937 85.9697 79.2273C85.9089 76.3581 82.4905 73.6005 76.3427 71.4645C76.1437 71.3967 76.0368 71.1734 76.1018 70.9655C76.106 70.9546 76.1081 70.9436 76.1122 70.9349C77.8676 66.6344 81.4138 61.7517 83.0895 60.2766C83.2131 60.165 83.3912 60.1518 83.5315 60.2416C89.6605 64.2182 93.3429 68.7748 94.4363 73.7953C96.7006 83.9984 85.4816 89.1306 81.263 91.0609L80.9237 91.2185C80.2178 91.6343 79.4972 92.4725 78.6593 93.442C76.7993 95.5978 74.3758 98.4123 69.9875 98.4123H69.9896ZM68.4793 97.5106C73.5065 98.235 76.0264 95.2979 78.098 92.8971C78.9735 91.8772 79.7318 90.993 80.5801 90.4962L80.9572 90.3212C85.402 88.288 95.8062 83.5235 93.6969 73.9573C92.6475 69.2103 89.1682 64.8572 83.3681 61.0557C81.9123 62.4651 78.7578 66.6584 76.9522 70.8364C84.914 73.6881 86.6609 76.9447 86.707 79.1923C86.774 82.357 83.6006 85.4604 77.9974 87.6993C77.3146 88.0188 76.615 88.2946 75.8986 88.5222C74.8492 88.8833 73.8605 89.2225 73.1776 89.7675C72.0696 90.5728 71.1165 91.5883 70.3666 92.7614C70.2493 92.919 70.2744 93.1466 70.4232 93.2713C70.6871 93.5033 71.0746 93.4858 71.3176 93.2319C71.8245 92.8599 72.3796 92.5622 72.9619 92.3456C73.3389 92.1836 73.716 92.0173 74.0741 91.8269C74.2019 91.7569 74.3548 91.77 74.47 91.8575C74.5894 91.9473 74.6481 92.1026 74.6208 92.2537C74.1914 94.8493 72.2246 96.5454 68.4856 97.5128L68.4751 97.5084L68.4793 97.5106Z" fill="#6F46BE"/>
<path d="M32.8681 66.8274C32.8681 66.8274 23.4337 70.8193 26.1484 75.1592C28.8631 79.4992 25.9557 77.7855 26.6323 79.7049C27.3088 81.6243 33.6661 83.0402 33.6661 83.0402C33.6661 83.0402 24.3198 76.8773 29.8936 73.4412L34.0222 70.9397L32.8722 66.8252L32.8681 66.8274Z" fill="#6F46BE"/>
<path d="M85.3999 89.028C85.3999 89.028 93.9272 81.8276 91.9059 76.2993C89.8846 70.771 92.5552 70.3136 93.7094 73.0384C94.8636 75.7631 95.9507 83.1145 85.3999 89.0258V89.028Z" fill="#6F46BE"/>
<path d="M43.329 93.3987C43.2683 93.3987 43.2097 93.3833 43.1552 93.3549C42.9709 93.2542 42.8975 93.0157 42.9918 92.8231C43.4715 91.9104 44.4476 91.4158 45.4258 91.5887C45.6332 91.6106 45.7861 91.8076 45.763 92.0264C45.7421 92.2453 45.5536 92.4029 45.3462 92.381C44.6822 92.2409 44.0056 92.5583 43.6642 93.1732C43.6034 93.3111 43.4736 93.4008 43.329 93.403V93.3987Z" fill="#6F46BE"/>
</g>
</g>
<mask id="mask3_183_9878" style="mask-type:luminance" maskUnits="userSpaceOnUse" x="99" y="17" width="104" height="187">
<path d="M202.613 17.618H99.5557V203.865H202.613V17.618Z" fill="white"/>
</mask>
<g mask="url(#mask3_183_9878)">
<path d="M182.957 203.366H112.407C105.57 203.366 100.036 197.474 100.036 190.344V31.0274C100.036 23.8971 105.576 18.1171 112.413 18.1171H182.95L182.957 203.366Z" fill="#EDE3FF"/>
<path d="M189.454 203.044L119.221 203.254C112.384 203.254 106.843 197.474 106.843 190.344V31.0274C106.843 23.8971 112.384 18.1171 119.221 18.1171H189.758C196.595 18.1171 202.135 23.8971 202.135 31.0274V190.346C202.135 197.476 196.289 203.044 189.454 203.044Z" fill="#EDE3FF"/>
<path d="M201.953 39.1537H107.023V180.268H201.953V39.1537Z" fill="white"/>
<path d="M107.145 33.2865C114.861 34.8995 121.202 30.9732 125.504 27.1542C133.137 20.3762 139.696 25.2173 148.12 25.5412C156.545 25.8651 160.887 24.0377 168.342 21.0218C174.727 18.4393 175.772 18.5728 180.173 18.3452C170.349 17.89 116.636 18.1176 116.636 18.1176C116.636 18.1176 109.378 19.0784 107.553 28.2441C107.262 29.706 107.109 31.3759 107.147 33.2843L107.145 33.2865Z" fill="white"/>
<path d="M202.449 180.277H107.145V181.275H202.449V180.277Z" fill="#6F46BE"/>
<path d="M189.764 203.865H119.214C112.13 203.865 106.365 197.8 106.365 190.346V31.0255C106.365 23.6325 112.132 17.6183 119.22 17.6183H189.758C196.846 17.6183 202.613 23.6325 202.613 31.0255V190.344C202.613 197.798 196.848 203.865 189.762 203.865H189.764ZM119.22 18.6163C112.66 18.6163 107.32 24.184 107.32 31.0277V190.346C107.32 197.251 112.655 202.869 119.214 202.869H189.764C196.322 202.869 201.657 197.251 201.657 190.346V31.0255C201.657 24.1818 196.32 18.6141 189.758 18.6141H119.22V18.6163Z" fill="#6F46BE"/>
<path d="M110.704 199.655C110.704 199.655 126.95 200.462 133.755 198.525C140.561 196.588 145.515 191.426 152.94 194.006C160.366 196.588 171.505 201.106 180.789 195.943C190.072 190.78 196.247 187.552 202.133 188.519C202.146 193.039 201.212 203.043 188.214 203.043C172.123 203.043 117.603 203.253 117.603 203.253C117.603 203.253 113.642 202.719 110.704 199.652V199.655Z" fill="white"/>
<path d="M164.39 31.9955H144.587C143.391 31.9955 142.421 30.9844 142.421 29.7369C142.421 28.4894 143.391 27.4783 144.587 27.4783H164.39C165.586 27.4783 166.556 28.4894 166.556 29.7369C166.556 30.9844 165.586 31.9955 164.39 31.9955Z" fill="#6F46BE"/>
<path d="M176.149 31.9955C177.345 31.9955 178.315 30.9843 178.315 29.7369C178.315 28.4895 177.345 27.4783 176.149 27.4783C174.953 27.4783 173.983 28.4895 173.983 29.7369C173.983 30.9843 174.953 31.9955 176.149 31.9955Z" fill="#6F46BE"/>
<path d="M189.764 203.865H119.214C112.13 203.865 106.365 197.801 106.365 190.347V180.975C106.365 180.7 106.579 180.476 106.843 180.476H202.135C202.399 180.476 202.613 180.7 202.613 180.975V190.347C202.613 197.801 196.848 203.865 189.764 203.865ZM107.32 181.474V190.347C107.32 197.252 112.655 202.867 119.214 202.867H189.764C196.322 202.867 201.657 197.252 201.657 190.347V181.472H107.322L107.32 181.474Z" fill="#6F46BE"/>
<path d="M202.449 38.92H107.145V39.9179H202.449V38.92Z" fill="#6F46BE"/>
<path d="M182.957 203.865H112.407C105.323 203.865 99.5581 197.8 99.5581 190.346V31.0254C99.5581 23.6324 105.325 17.6182 112.413 17.6182H182.951V18.6162H112.413C105.853 18.6162 100.513 24.1839 100.513 31.0275V190.346C100.513 197.251 105.848 202.869 112.407 202.869H182.957V203.867V203.865Z" fill="#6F46BE"/>
</g>
<mask id="mask4_183_9878" style="mask-type:luminance" maskUnits="userSpaceOnUse" x="106" y="50" width="96" height="131">
<path d="M201.985 50.0089H106.887V180.885H201.985V50.0089Z" fill="white"/>
</mask>
<g mask="url(#mask4_183_9878)">
<mask id="mask5_183_9878" style="mask-type:luminance" maskUnits="userSpaceOnUse" x="74" y="50" width="140" height="277">
<path d="M213.924 50.0089H74.001V326.643H213.924V50.0089Z" fill="white"/>
</mask>
<g mask="url(#mask5_183_9878)">
<path d="M132.725 172.876C132.725 172.876 99.0803 295.193 94.1055 303.422C101.152 310.353 108.19 307.32 108.19 307.32C108.19 307.32 150.121 197.999 152.192 194.101C151.361 214.024 151.153 290.516 151.153 305.67C154.882 307.836 164.402 305.352 164.402 305.352C164.402 305.352 176.842 191.481 177.668 176.339C178.493 161.196 132.723 172.876 132.723 172.876H132.725Z" fill="#EDE3FF"/>
<path d="M104.277 308.587C101.47 308.587 97.614 307.677 93.7222 303.851C93.5295 303.654 93.498 303.341 93.6489 303.105C98.5168 295.04 131.864 173.938 132.201 172.712C132.258 172.511 132.41 172.358 132.605 172.308C134.019 171.944 167.349 163.545 176.103 171.135C177.607 172.386 178.413 174.343 178.248 176.348C177.412 191.379 165.089 304.287 164.949 305.427C164.919 305.67 164.75 305.869 164.522 305.926C164.128 306.031 154.742 308.445 150.862 306.191C150.684 306.086 150.575 305.889 150.575 305.674C150.575 292.814 150.749 221.187 151.507 197.086C144.417 214.461 109.099 306.512 108.712 307.541C108.655 307.688 108.544 307.804 108.404 307.865C107.084 308.373 105.685 308.62 104.277 308.594V308.587ZM94.8177 303.304C100.785 308.922 106.569 307.283 107.763 306.86C110.492 299.758 149.666 197.645 151.704 193.812C151.857 193.53 152.199 193.432 152.469 193.589C152.651 193.696 152.762 193.902 152.754 194.123C151.912 214.321 151.715 290.884 151.715 305.311C154.966 306.854 162.163 305.311 163.891 304.878C164.71 297.353 176.314 190.818 177.106 176.332C177.255 174.702 176.601 173.104 175.372 172.089C167.479 165.221 136.635 172.542 133.171 173.391C130.879 181.679 100.385 292.302 94.8156 303.302L94.8177 303.304Z" fill="#6F46BE"/>
<path d="M174.121 101.262C170.548 100.004 166.88 99.0627 163.158 98.45C162.63 91.1073 162.597 83.6881 162.597 83.6881C162.597 83.6881 154.484 82.7908 152.408 82.9418C151.229 86.6514 149.505 93.7008 148.215 97.7737C139.687 98.7235 137.145 102.247 137.145 102.247L159.505 114.273C159.505 114.273 200.139 109.8 174.124 101.26L174.121 101.262Z" fill="#EDE3FF"/>
<path d="M159.503 114.886C159.413 114.886 159.325 114.862 159.245 114.821L136.879 102.794C136.734 102.716 136.629 102.573 136.592 102.407C136.552 102.239 136.587 102.059 136.688 101.919C136.795 101.772 139.401 98.2685 147.788 97.2224C148.416 95.2089 149.134 92.5257 149.836 89.9498C150.578 87.19 151.284 84.5856 151.868 82.7429C151.939 82.5175 152.136 82.3599 152.362 82.3446C154.461 82.1979 162.316 83.0602 162.647 83.0952C162.934 83.1259 163.154 83.3797 163.152 83.6818C163.152 83.7518 163.192 90.8493 163.68 97.9337C167.278 98.5596 170.825 99.4854 174.285 100.698C180.69 102.799 183.577 104.806 183.367 106.962C182.886 112.046 163.449 114.444 159.557 114.88L159.501 114.886H159.503ZM138.081 102.12L159.61 113.7C168.277 112.726 181.953 110.025 182.257 106.85C182.318 106.176 181.639 104.344 173.954 101.821C170.41 100.575 166.771 99.6429 163.081 99.0323C162.819 98.9951 162.62 98.7719 162.599 98.4983C162.161 92.3288 162.038 86.0498 162.038 84.2245C160.353 84.0429 154.884 83.4739 152.819 83.5132C152.258 85.3035 151.606 87.7284 150.915 90.2803C150.173 93.0335 149.398 95.8852 148.743 97.9643C148.674 98.1832 148.489 98.3386 148.271 98.3626C142.09 99.0542 139.126 101.144 138.083 102.118L138.081 102.12Z" fill="#6F46BE"/>
<path d="M148.382 76.5451C148.382 76.5451 149.696 64.5234 148.512 53.307C148.366 51.9698 149.285 50.7639 150.563 50.6107C150.647 50.5997 150.73 50.5954 150.814 50.5954C157.551 50.5954 167.695 51.9982 172.534 52.7489C173.801 52.9437 174.677 54.1737 174.492 55.4999C174.471 55.6466 174.438 55.791 174.392 55.9311C172.657 61.2952 168.979 73.1529 168.615 78.5411C165.942 78.1428 148.382 76.5451 148.382 76.5451Z" fill="#6F46BE"/>
<path d="M168.615 79.1275H168.535C165.908 78.7336 148.504 77.1491 148.324 77.1316C148.173 77.1184 148.033 77.0418 147.936 76.9193C147.84 76.7967 147.796 76.6369 147.813 76.4794C147.813 76.3612 149.109 64.3941 147.947 53.3769C147.861 52.5234 148.12 51.672 148.665 51.0286C149.206 50.3852 149.985 50.0131 150.804 50.0065H150.944C157.613 50.0065 167.37 51.3569 172.609 52.1666C174.182 52.4052 175.274 53.9328 175.045 55.5786C175.02 55.7624 174.978 55.9419 174.922 56.117C173.315 61.0763 169.538 73.2031 169.174 78.5804C169.153 78.889 168.908 79.1275 168.613 79.1253L168.615 79.1275ZM149 76.011C151.891 76.2758 164.545 77.438 168.089 77.8779C168.65 72.3539 171.901 61.7241 173.843 55.7384C174.151 54.7688 173.65 53.7227 172.724 53.401C172.628 53.3682 172.53 53.3419 172.429 53.3266C167.243 52.5278 157.553 51.184 150.95 51.184H150.816C150.322 51.1752 149.846 51.3897 149.513 51.7705C149.178 52.1688 149.021 52.6941 149.076 53.2193C150.098 62.9803 149.233 73.4285 149.002 76.011H149Z" fill="#6F46BE"/>
<path d="M197.307 110.853C189.262 104.843 174.446 99.7001 165.919 98.7152C165.919 98.7152 163.64 102.331 155.848 102.383C150.632 102.219 148.056 100.53 146.118 97.9449C134.891 99.5819 124.352 102.199 114.887 106.202C115.174 107.253 119.187 123.588 125.923 130.784C128.686 129.62 131.575 128.812 134.524 128.383C132.84 147.56 129.983 172.17 126.929 183.986C126.929 183.986 164.767 193.876 178.96 189.856C178.679 169.312 179.14 147.5 178.242 130.515L183.407 132.159C183.407 132.159 197.167 115.795 197.307 110.853Z" fill="white"/>
<path d="M169.917 191.396C153.204 191.396 128.077 184.887 126.797 184.553C126.65 184.515 126.525 184.417 126.449 184.283C126.372 184.148 126.349 183.984 126.388 183.83C130.031 169.743 132.985 139.269 133.906 129.073C131.244 129.526 128.636 130.283 126.131 131.333C125.923 131.417 125.687 131.364 125.53 131.198C119.652 124.923 115.8 111.923 114.426 106.622L114.353 106.357C114.275 106.069 114.418 105.764 114.684 105.653C123.716 101.825 133.98 99.109 146.043 97.3537C146.242 97.3231 146.441 97.4063 146.564 97.5704C148.125 99.6539 150.33 101.608 155.867 101.786C163.164 101.733 165.41 98.4108 165.456 98.3758C165.571 98.1942 165.776 98.0935 165.984 98.1176C174.685 99.1155 189.484 104.274 197.636 110.367C197.789 110.481 197.877 110.665 197.873 110.859C197.726 115.961 184.4 131.837 183.839 132.513C183.696 132.675 183.48 132.741 183.277 132.684L178.887 131.281C179.448 142.105 179.448 154.624 179.448 167.86C179.448 175.085 179.448 182.535 179.561 189.812C179.57 190.085 179.398 190.328 179.147 190.398C176.126 191.14 173.026 191.475 169.924 191.396H169.917ZM127.622 183.561C132.293 184.734 165.146 192.788 178.395 189.378C178.298 182.263 178.294 174.951 178.288 167.871C178.288 154.307 178.288 141.499 177.687 130.517C177.676 130.327 177.756 130.143 177.9 130.025C178.045 129.906 178.235 129.869 178.411 129.924L183.223 131.462C187.075 126.86 196.134 115.245 196.696 111.135C188.864 105.395 174.492 100.37 166.166 99.3147C165.408 100.225 162.63 102.902 155.854 102.948C151.183 102.801 148.185 101.481 145.883 98.5509C134.246 100.265 124.321 102.878 115.567 106.533C116.96 111.816 120.62 123.989 126.083 130.075C128.778 128.965 131.594 128.195 134.463 127.779C134.631 127.757 134.801 127.814 134.924 127.937C135.046 128.059 135.109 128.234 135.092 128.412C134.26 137.709 131.303 168.782 127.62 183.557L127.622 183.561Z" fill="#6F46BE"/>
<path d="M134.526 128.972H134.453C134.147 128.93 133.929 128.635 133.971 128.315C134.426 124.122 134.612 119.902 134.532 115.683C134.532 115.359 134.784 115.096 135.094 115.096C135.404 115.096 135.655 115.359 135.655 115.683C135.739 119.963 135.552 124.247 135.094 128.501C135.039 128.781 134.8 128.978 134.526 128.972Z" fill="#6F46BE"/>
<path d="M178.242 130.486L177.68 123.765C177.68 123.765 178.899 127.063 180.902 127.363C182.904 127.663 183.384 132.13 183.384 132.13L178.242 130.486Z" fill="#6F46BE"/>
<path d="M183.407 132.717C183.35 132.726 183.294 132.726 183.239 132.717L178.08 131.067C177.862 130.997 177.707 130.793 177.686 130.557L177.125 123.836C177.102 123.545 177.284 123.28 177.557 123.214C177.831 123.148 178.107 123.304 178.208 123.577C178.516 124.405 179.618 126.6 180.988 126.806C183.363 127.158 183.891 131.59 183.945 132.089C183.966 132.286 183.889 132.48 183.744 132.605C183.646 132.68 183.528 132.719 183.407 132.717ZM178.769 130.04L182.699 131.296C182.435 129.981 181.846 128.092 180.841 127.946C179.882 127.729 179.035 127.145 178.466 126.309L178.769 130.042V130.04Z" fill="#6F46BE"/>
<path d="M168.317 75.536C168.227 75.5141 168.135 75.4988 168.043 75.4901C168.114 73.5466 168.076 71.601 167.93 69.6619C167.8 67.3968 164.482 68.9703 159.145 68.4889C153.531 67.9614 151.639 66.0289 151.128 68.5589C150.697 70.1719 150.372 71.8133 150.156 73.4722C149.903 73.3496 149.626 73.2862 149.348 73.284C148.045 73.284 146.989 74.6694 146.989 76.3764C146.989 78.0835 148.045 79.4689 149.348 79.4689C149.538 79.4689 149.729 79.4338 149.909 79.3682C150.234 83.9992 151.918 89.5275 157.544 90.1447C163.17 90.7618 165.965 86.0017 167.161 81.6158C168.34 81.7384 169.519 80.701 169.884 79.1559C170.278 77.4707 169.57 75.8621 168.317 75.5338V75.536Z" fill="#EDE3FF"/>
<path d="M158.554 90.7617C158.196 90.7617 157.838 90.7376 157.482 90.696C152.867 90.1905 150.014 86.4043 149.403 80.0246C147.769 80.0706 146.416 78.3985 146.416 76.3435C146.416 74.2884 147.723 72.6623 149.335 72.6623C149.451 72.6535 149.568 72.6535 149.683 72.6623C149.895 71.2003 150.192 69.7537 150.576 68.3311C150.647 67.7621 150.94 67.25 151.384 66.9173C152.109 66.4293 153.068 66.67 154.572 67.0224C156.087 67.4163 157.628 67.6921 159.18 67.8497C160.862 67.9875 162.551 67.9875 164.233 67.8497C166.551 67.714 168.382 67.6023 168.493 69.6114V69.9529C168.617 71.6315 168.654 73.3167 168.606 74.9997C169.335 75.2623 169.924 75.8357 170.223 76.5776C170.575 77.4202 170.646 78.3635 170.424 79.2542C170.146 80.7468 169.013 81.9046 167.578 82.1607C166.568 85.6361 164.126 90.7595 158.55 90.7595L158.554 90.7617ZM149.909 78.7706C150.023 78.7706 150.134 78.8078 150.224 78.8756C150.366 78.9763 150.456 79.1383 150.471 79.3155C150.779 83.6598 152.262 88.9583 157.601 89.5514C163.368 90.1861 165.73 84.7432 166.623 81.445C166.696 81.1736 166.943 80.9963 167.211 81.0226C168.116 81.1058 169.046 80.2303 169.339 79.0026C169.499 78.3679 169.453 77.6982 169.205 77.0941C169.023 76.6192 168.642 76.2603 168.173 76.1202C168.108 76.1049 168.043 76.094 167.976 76.0918C167.689 76.0611 167.469 75.8073 167.471 75.5052C167.54 73.7019 167.511 71.8941 167.381 70.0929V69.734C167.341 69.0359 166.88 68.9417 164.3 69.0949C162.572 69.2328 160.835 69.2328 159.107 69.0949C157.494 68.9177 155.896 68.62 154.325 68.202C153.202 67.9328 152.32 67.7205 151.996 67.9372C151.807 68.1276 151.692 68.3815 151.671 68.6529C151.244 70.2549 150.921 71.8832 150.705 73.5312C150.663 73.8529 150.379 74.0761 150.073 74.0323C150.018 74.0236 149.964 74.0083 149.914 73.9842C149.738 73.8966 149.547 73.8507 149.352 73.8485C148.364 73.8485 147.555 74.969 147.555 76.3544C147.555 77.7398 148.364 78.8603 149.352 78.8603C149.49 78.8603 149.627 78.834 149.757 78.7903C149.807 78.775 149.861 78.7662 149.914 78.7662L149.909 78.7706Z" fill="#6F46BE"/>
<path d="M154.916 81.9267C157.086 82.6642 159.383 82.9094 161.652 82.6424C161.652 82.6424 161.063 85.9471 157.829 85.6954C154.595 85.4437 154.916 81.9267 154.916 81.9267Z" fill="white"/>
<path d="M158.167 86.2991H157.779C156.803 86.2707 155.883 85.8176 155.242 85.0494C154.589 84.1456 154.275 83.0206 154.361 81.8913C154.375 81.7119 154.47 81.5499 154.614 81.4514C154.759 81.3551 154.939 81.3333 155.102 81.3923C157.193 82.0883 159.4 82.3181 161.581 82.062C161.761 82.0336 161.943 82.0971 162.069 82.2328C162.195 82.3706 162.249 82.5632 162.216 82.7493C161.874 84.8065 160.165 86.3057 158.169 86.3013L158.167 86.2991ZM155.506 82.7296C155.557 83.2964 155.764 83.8348 156.101 84.2791C156.554 84.7977 157.193 85.0976 157.865 85.1063C159.12 85.277 160.33 84.5592 160.835 83.3445C159.04 83.4255 157.243 83.2176 155.508 82.7274L155.506 82.7296Z" fill="#6F46BE"/>
<path d="M156.348 74.9714C155.439 74.932 154.538 74.7745 153.665 74.5075C153.368 74.4177 153.196 74.0916 153.284 73.7787C153.37 73.4679 153.682 73.2884 153.979 73.3803C154.861 73.6649 155.781 73.7984 156.702 73.7743C157.01 73.7283 157.293 73.9516 157.337 74.2733C157.381 74.595 157.167 74.8904 156.859 74.9364C156.69 74.9605 156.52 74.9714 156.348 74.9714Z" fill="#6F46BE"/>
<path d="M164.033 76.0171C163.124 75.9777 162.224 75.8245 161.35 75.5597C161.053 75.4699 160.881 75.1438 160.969 74.8309C161.055 74.5223 161.363 74.345 161.66 74.4326C162.542 74.7149 163.461 74.8462 164.383 74.8199C164.693 74.774 164.98 74.9972 165.026 75.3211C165.07 75.645 164.857 75.9471 164.547 75.993C164.377 76.0127 164.207 76.0215 164.035 76.0171H164.033Z" fill="#6F46BE"/>
<path d="M158.032 80.1734H157.959C157.649 80.1734 157.397 79.9107 157.397 79.5868C157.397 79.2629 157.649 79.0003 157.959 79.0003H158.015C158.455 79.0309 158.893 78.9171 159.268 78.672C159.268 78.672 159.308 78.6195 159.268 78.4969V78.4313C159.128 77.4508 158.891 76.118 158.891 76.083C158.834 75.759 159.042 75.4483 159.352 75.3914C159.662 75.3323 159.959 75.5489 160.014 75.8728C160.014 75.8728 160.255 77.2166 160.395 78.2212C160.506 78.6261 160.426 79.0616 160.181 79.3942C159.626 80.1165 158.418 80.1756 158.032 80.1756V80.1734Z" fill="#6F46BE"/>
<path d="M149.93 77.5012C149.62 77.5012 149.369 77.2385 149.369 76.9146C149.369 76.5272 149.195 75.8816 148.921 75.7415C148.642 75.5993 148.527 75.2469 148.663 74.9559C148.799 74.6648 149.137 74.5422 149.415 74.6867C150.391 75.1857 150.488 76.6892 150.494 76.8577C150.494 77.1816 150.243 77.4442 149.933 77.4442V77.5033L149.93 77.5012Z" fill="#6F46BE"/>
<path d="M167.352 79.4735H167.308C166.998 79.4495 166.767 79.1671 166.79 78.8432C166.79 78.8432 166.79 78.8411 166.79 78.8389C166.79 78.6091 166.931 77.4294 167.588 76.9195C167.837 76.7247 168.189 76.7794 168.374 77.0377C168.558 77.2959 168.508 77.6636 168.261 77.8584C168.043 78.1714 167.921 78.5456 167.913 78.933C167.89 79.2394 167.645 79.4735 167.352 79.4735Z" fill="#6F46BE"/>
<path d="M134.874 123.081C134.874 123.081 126.931 126.438 126.824 130.489C129.135 129.633 131.502 128.959 133.908 128.475L134.874 123.081Z" fill="#6F46BE"/>
<path d="M156.399 107.872C154.635 107.866 152.882 107.599 151.189 107.08C145.806 105.436 141.931 101.663 141.022 98.9099C140.919 98.6035 141.074 98.2687 141.368 98.1614C141.661 98.0542 141.981 98.2161 142.084 98.5225C142.915 101.011 146.665 104.473 151.504 105.953C155.433 107.126 161.43 107.485 167.722 102.302C167.965 102.103 168.315 102.145 168.508 102.396C168.703 102.65 168.663 103.018 168.422 103.221C168.422 103.221 168.422 103.221 168.42 103.224C164.12 106.762 159.949 107.872 156.401 107.872H156.399Z" fill="#6F46BE"/>
<path d="M125.757 130.826C126.75 130.328 125.054 124.475 121.969 117.753C118.883 111.031 115.577 105.984 114.584 106.482C113.591 106.98 115.287 112.832 118.373 119.555C121.458 126.277 124.764 131.323 125.757 130.826Z" fill="#6F46BE"/>
<path d="M125.594 131.449C125 131.449 124.09 130.821 122.39 128.221C120.701 125.531 119.199 122.719 117.899 119.804C116.535 116.911 115.372 113.917 114.424 110.846C113.301 107.049 113.772 106.239 114.357 105.946C114.941 105.653 115.823 105.793 117.966 109.069C119.656 111.759 121.156 114.575 122.457 117.493C123.433 119.611 128.177 130.248 125.982 131.344C125.863 131.41 125.731 131.447 125.594 131.449ZM114.866 107.084C114.675 108.17 115.911 112.818 118.879 119.292C121.847 125.766 124.549 129.681 125.475 130.208C125.666 129.123 124.43 124.468 121.462 117.994C118.491 111.525 115.791 107.605 114.866 107.082V107.084Z" fill="#6F46BE"/>
<path d="M192.082 122.904C195.88 117.036 198.255 111.782 197.387 111.168C196.519 110.555 192.736 114.815 188.938 120.683C185.139 126.551 182.764 131.806 183.632 132.419C184.5 133.032 188.283 128.773 192.082 122.904Z" fill="#6F46BE"/>
<path d="M183.778 133.052C183.616 133.054 183.457 133.006 183.323 132.912C181.386 131.544 187.282 122.216 188.482 120.362C189.682 118.509 195.78 109.317 197.705 110.689C198.222 111.059 198.547 111.893 196.993 115.327C195.698 118.075 194.211 120.719 192.546 123.238C191.429 124.969 186.073 133.052 183.778 133.052ZM197.02 111.75C196.038 112.179 193.007 115.46 189.408 121.019C185.809 126.578 184.035 130.738 184.035 131.848C185.018 131.419 188.044 128.138 191.647 122.579C195.219 117.02 197.003 112.86 197.02 111.75Z" fill="#6F46BE"/>
<path d="M139.04 159.336C138.996 158.749 143.531 159.172 144.092 159.2C146.298 159.312 146.945 157.532 144.794 156.182C143.822 155.595 135.475 152.661 132.955 151.129C113.358 141.797 113.536 136.06 116.736 132.504C118.745 130.519 121.081 128.928 123.63 127.807C122.507 121.651 119.7 115.171 116.456 111.601C107.597 117.018 99.826 123.651 98.7033 130.631C96.351 145.522 125.09 155.283 125.09 155.247C131.328 157.642 136.998 165.536 139.124 166.899C143.745 169.898 148.296 168.208 150.946 167.011C142.014 165.286 139.258 161.916 139.038 159.334L139.04 159.336Z" fill="#EDE3FF"/>
<path d="M144.647 169.16C142.572 169.167 140.538 168.556 138.78 167.399C137.691 166.532 136.683 165.56 135.766 164.499C133.089 161.676 129.03 157.403 124.876 155.799C123.001 155.213 95.779 145.48 98.1418 130.561C99.1137 124.38 105.176 117.847 116.152 111.133C116.376 110.995 116.663 111.037 116.843 111.234C120.094 114.79 122.961 121.264 124.141 127.733C124.189 128 124.057 128.267 123.82 128.379C121.33 129.466 119.049 131.012 117.084 132.946C115.894 134.266 115.439 135.605 115.708 137.054C116.432 140.91 122.297 145.482 133.11 150.643C134.647 151.575 138.409 153.044 141.149 154.118C142.463 154.582 143.749 155.121 145.006 155.734C146.235 156.502 146.807 157.53 146.533 158.469C146.258 159.408 145.297 159.901 143.99 159.837H143.602C142.272 159.693 140.934 159.658 139.599 159.732C139.913 161.229 141.66 164.709 150.946 166.512C151.191 166.558 151.377 166.764 151.407 167.022C151.426 167.274 151.292 167.51 151.07 167.609C149.05 168.574 146.866 169.101 144.647 169.165V169.16ZM125.19 154.674H125.257C129.671 156.37 133.818 160.75 136.564 163.654C137.425 164.643 138.363 165.554 139.371 166.377C142.796 168.596 146.147 168.138 148.914 167.158C139.932 164.969 138.602 161.03 138.462 159.358C138.445 159.154 138.514 158.955 138.652 158.813C139.013 158.432 139.892 158.285 143.705 158.566H144.069C144.928 158.607 145.399 158.318 145.483 158.032C145.567 157.745 145.292 157.169 144.45 156.64C144.113 156.427 142.496 155.795 140.779 155.125C137.842 153.952 134.189 152.543 132.622 151.604C121.361 146.268 115.448 141.574 114.639 137.236C114.302 135.435 114.863 133.714 116.323 132.106C118.265 130.173 120.515 128.611 122.97 127.486C121.803 121.581 119.241 115.746 116.328 112.365C105.896 118.821 100.153 124.984 99.2436 130.731C97.0149 144.983 124.524 154.486 125.186 154.674H125.19Z" fill="#6F46BE"/>
<path d="M212.931 132.183C211.05 123.689 204.381 117.239 196.959 112.444C194.714 114.416 189.414 121.483 186.735 128.033C208.338 135.516 203.612 146.257 188.851 152.151C186.415 153.324 183.355 153.858 181.553 155.298C179.857 156.526 178.399 158.078 177.253 159.87C176.444 161.043 178.068 162.547 179.471 161.367C180.43 160.568 182.127 160.093 183.484 159.347C182.839 163.092 179.829 165.904 172.094 167.248C185.208 170.957 188.757 159.947 193.164 157.358C199.278 154.534 216.266 147.233 212.931 132.183Z" fill="#EDE3FF"/>
<path d="M177.102 168.574C175.353 168.557 173.614 168.296 171.932 167.799C171.683 167.727 171.513 167.484 171.522 167.213C171.536 166.939 171.729 166.714 171.987 166.668C178.072 165.606 181.49 163.604 182.619 160.404L181.985 160.673C181.218 160.958 180.487 161.343 179.812 161.818C179.016 162.575 177.802 162.575 177.006 161.818C176.377 161.229 176.277 160.236 176.775 159.522C177.957 157.684 179.456 156.093 181.193 154.826C182.36 153.898 183.916 153.364 185.573 152.795C186.605 152.466 187.617 152.075 188.604 151.621C196.39 148.516 200.954 144.213 200.876 140.112C200.786 135.857 195.7 131.765 186.555 128.596C186.26 128.495 186.101 128.162 186.197 127.856C186.201 127.841 186.207 127.825 186.214 127.81C188.824 121.43 194.102 114.186 196.595 111.998C196.779 111.833 197.045 111.812 197.253 111.945C206.371 117.843 211.848 124.606 213.478 132.054C216.846 147.192 200.156 154.804 193.88 157.668L193.375 157.903C192.326 158.52 191.253 159.763 190.007 161.201C187.24 164.401 183.635 168.574 177.106 168.574H177.102ZM174.856 167.237C182.334 168.311 186.084 163.956 189.167 160.393C190.47 158.879 191.599 157.57 192.862 156.83L193.423 156.572C200.036 153.554 215.514 146.487 212.376 132.294C210.815 125.252 205.64 118.795 197.01 113.153C194.842 115.243 190.15 121.465 187.466 127.663C199.312 131.896 201.911 136.726 201.978 140.059C202.079 144.756 197.357 149.356 189.021 152.679C188.005 153.153 186.964 153.561 185.899 153.9C184.339 154.434 182.869 154.939 181.853 155.749C180.204 156.942 178.786 158.45 177.67 160.192C177.496 160.426 177.533 160.763 177.753 160.949C178.145 161.293 178.721 161.266 179.083 160.89C179.84 160.339 180.663 159.896 181.532 159.575C182.094 159.334 182.655 159.087 183.189 158.807C183.378 158.704 183.606 158.721 183.778 158.853C183.956 158.986 184.044 159.216 184.002 159.439C183.361 163.289 180.437 165.808 174.873 167.239L174.856 167.233V167.237Z" fill="#6F46BE"/>
<path d="M121.878 121.717C121.878 121.717 107.844 127.639 111.881 134.078C115.917 140.516 111.594 137.975 112.599 140.823C113.605 143.67 123.064 145.771 123.064 145.771C123.064 145.771 109.158 136.627 117.45 131.532L123.592 127.823L121.881 121.719L121.878 121.717Z" fill="#6F46BE"/>
<path d="M200.03 154.653C200.03 154.653 212.718 143.97 209.71 135.77C206.702 127.569 210.675 126.889 212.393 130.933C214.111 134.978 215.728 145.883 200.03 154.653Z" fill="#6F46BE"/>
<path d="M137.44 161.137C137.35 161.137 137.262 161.113 137.182 161.071C136.906 160.923 136.799 160.57 136.939 160.281C137.651 158.929 139.103 158.194 140.561 158.45C140.871 158.485 141.095 158.773 141.063 159.097C141.03 159.421 140.753 159.658 140.443 159.623C139.455 159.415 138.449 159.887 137.94 160.796C137.85 160.999 137.655 161.133 137.44 161.137Z" fill="#6F46BE"/>
</g>
</g>
<mask id="mask6_183_9878" style="mask-type:luminance" maskUnits="userSpaceOnUse" x="17" y="202" width="152" height="3">
<path d="M168.679 202.989H17.0264V204.083H168.679V202.989Z" fill="white"/>
</mask>
<g mask="url(#mask6_183_9878)">
<mask id="mask7_183_9878" style="mask-type:luminance" maskUnits="userSpaceOnUse" x="1" y="202" width="198" height="3">
<path d="M198.005 202.989H1.73535V204.083H198.005V202.989Z" fill="white"/>
</mask>
<g mask="url(#mask7_183_9878)">
<path d="M175.571 204.083H2.28834C1.95738 204.083 1.73535 203.864 1.73535 203.536C1.73535 203.208 1.95738 202.989 2.28834 202.989H175.571C175.902 202.989 176.124 203.208 176.124 203.536C176.124 203.864 175.847 204.083 175.571 204.083Z" fill="#6F46BE"/>
</g>
</g>
<mask id="mask8_183_9878" style="mask-type:luminance" maskUnits="userSpaceOnUse" x="134" y="47" width="49" height="47">
<path d="M182.818 47.2729H134.222V93.8892H182.818V47.2729Z" fill="white"/>
</mask>
<g mask="url(#mask8_183_9878)">
<path d="M141.871 47.7675C141.871 48.041 141.658 48.2621 141.392 48.2621H135.179V54.6724C135.179 54.946 134.965 55.167 134.699 55.167C134.433 55.167 134.22 54.946 134.22 54.6724V47.7675C134.22 47.4939 134.433 47.2729 134.699 47.2729H141.392C141.656 47.2729 141.871 47.4939 141.871 47.7675Z" fill="#6F46BE"/>
<path d="M141.871 93.3948C141.871 93.6683 141.658 93.8894 141.392 93.8894H134.699C134.435 93.8894 134.22 93.6683 134.22 93.3948V86.4899C134.22 86.2163 134.433 85.9952 134.699 85.9952C134.965 85.9952 135.179 86.2163 135.179 86.4899V92.9002H141.392C141.656 92.9002 141.871 93.1212 141.871 93.3948Z" fill="#6F46BE"/>
<path d="M182.818 47.7677V54.6726C182.818 54.9462 182.605 55.1672 182.339 55.1672C182.073 55.1672 181.859 54.9462 181.859 54.6726V48.2623H175.646C175.382 48.2623 175.167 48.0413 175.167 47.7677C175.167 47.4941 175.38 47.2731 175.646 47.2731H182.339C182.603 47.2731 182.818 47.4941 182.818 47.7677Z" fill="#6F46BE"/>
<path d="M182.818 86.4899V93.3948C182.818 93.6683 182.605 93.8894 182.339 93.8894H175.646C175.382 93.8894 175.167 93.6683 175.167 93.3948C175.167 93.1212 175.38 92.9002 175.646 92.9002H181.859V86.4899C181.859 86.2163 182.073 85.9952 182.339 85.9952C182.605 85.9952 182.818 86.2163 182.818 86.4899Z" fill="#6F46BE"/>
</g>
</svg>
