<svg width="272" height="240" viewBox="0 0 272 240" fill="none" xmlns="http://www.w3.org/2000/svg">
<g clip-path="url(#clip0_270_35240)">
<mask id="mask0_270_35240" style="mask-type:luminance" maskUnits="userSpaceOnUse" x="0" y="-16" width="273" height="273">
<path d="M138.884 -15.9945L0 124.597L133.117 256.006L272.001 115.415L138.884 -15.9945Z" fill="white"/>
</mask>
<g mask="url(#mask0_270_35240)">
<path d="M115.03 223.263C62.532 210.721 49.9522 153.254 71.0708 120.954C85.5018 98.8771 78.6671 87.7329 85.9283 51.1693C93.1016 15.0427 136.197 -11.1705 170.236 16.0673C204.275 43.3051 221.64 81.533 220.199 127.247C218.368 185.339 167.529 235.809 115.03 223.263Z" fill="#EDE3FF"/>
</g>
<mask id="mask1_270_35240" style="mask-type:luminance" maskUnits="userSpaceOnUse" x="146" y="103" width="57" height="54">
<path d="M202.394 103.162H146.305V156.187H202.394V103.162Z" fill="white"/>
</mask>
<g mask="url(#mask1_270_35240)">
<path d="M149.311 113.332C141.376 126.418 150.476 140.403 161.211 142.579C168.548 144.066 169.437 147.665 178.269 153.485C186.996 159.236 200.884 155.766 202.169 143.475C203.454 131.184 199.195 120.067 189.674 111.25C177.574 100.047 157.244 100.246 149.311 113.332Z" fill="#EDE3FF"/>
</g>
<mask id="mask2_270_35240" style="mask-type:luminance" maskUnits="userSpaceOnUse" x="139" y="15" width="81" height="138">
<path d="M219.06 15.0266H139.854V152.066H219.06V15.0266Z" fill="white"/>
</mask>
<g mask="url(#mask2_270_35240)">
<path d="M154.961 151.699H209.183C214.437 151.699 218.692 147.364 218.692 142.119V24.8916C218.692 19.6447 214.432 15.3938 209.18 15.3938H154.966L154.963 151.699H154.961Z" fill="#EDE3FF"/>
<path d="M149.968 151.461L203.948 151.617C209.202 151.617 213.46 147.364 213.46 142.119V24.8916C213.46 19.6447 209.2 15.3938 203.948 15.3938H149.735C144.48 15.3938 140.223 19.6465 140.223 24.8916V142.117C140.223 147.362 144.715 151.461 149.969 151.461H149.968Z" fill="#EDE3FF"/>
<path d="M213.323 30.8712H140.363V134.703H213.323V30.8712Z" fill="white"/>
<path d="M213.229 26.554C207.299 27.7417 202.425 24.8522 199.119 22.0416C193.252 17.0544 188.212 20.6174 181.736 20.8539C175.26 21.0903 171.923 19.7468 166.194 17.5291C161.286 15.6284 160.483 15.727 157.102 15.5604C164.653 15.2254 205.933 15.392 205.933 15.392C205.933 15.392 211.51 16.0978 212.913 22.8441C213.137 23.9207 213.254 25.1496 213.227 26.554H213.229Z" fill="white"/>
<path d="M213.226 134.708H139.979V135.443H213.226V134.708Z" fill="#6F46BE"/>
<path d="M149.731 152.066H203.953C209.399 152.066 213.829 147.604 213.829 142.119V24.8916C213.829 19.4512 209.396 15.0266 203.948 15.0266H149.735C144.287 15.0266 139.854 19.453 139.854 24.8916V142.117C139.854 147.602 144.283 152.065 149.729 152.065L149.731 152.066ZM203.948 15.761C208.991 15.761 213.092 19.8579 213.092 24.8916V142.117C213.092 147.197 208.992 151.33 203.951 151.33H149.729C144.688 151.33 140.588 147.197 140.588 142.117V24.8916C140.588 19.8561 144.69 15.761 149.735 15.761H203.948Z" fill="#6F46BE"/>
<path d="M210.492 148.967C210.492 148.967 198.007 149.56 192.775 148.136C187.542 146.712 183.738 142.913 178.03 144.811C172.323 146.712 163.761 150.035 156.627 146.236C149.493 142.436 144.746 140.061 140.223 140.774C140.214 144.098 140.931 151.459 150.919 151.459C163.286 151.459 205.188 151.615 205.188 151.615C205.188 151.615 208.233 151.223 210.492 148.966V148.967Z" fill="white"/>
<path d="M169.231 25.6046H184.452C185.372 25.6046 186.117 24.8612 186.117 23.9422C186.117 23.0232 185.372 22.2798 184.452 22.2798H169.231C168.312 22.2798 167.566 23.0232 167.566 23.9422C167.566 24.8612 168.312 25.6046 169.231 25.6046Z" fill="#6F46BE"/>
<path d="M160.194 25.6046C161.113 25.6046 161.859 24.8603 161.859 23.9422C161.859 23.0241 161.113 22.2798 160.194 22.2798C159.275 22.2798 158.529 23.0241 158.529 23.9422C158.529 24.8603 159.275 25.6046 160.194 25.6046Z" fill="#6F46BE"/>
<path d="M149.729 152.066H203.951C209.397 152.066 213.827 147.604 213.827 142.121V135.224C213.827 135.022 213.662 134.857 213.46 134.857H140.221C140.018 134.857 139.854 135.022 139.854 135.224V142.121C139.854 147.606 144.283 152.066 149.729 152.066ZM213.092 135.591V142.121C213.092 147.201 208.992 151.334 203.951 151.334H149.729C144.688 151.334 140.588 147.201 140.588 142.121V135.591H213.092Z" fill="#6F46BE"/>
<path d="M213.226 30.6992H139.979V31.4337H213.226V30.6992Z" fill="#6F46BE"/>
<path d="M154.961 152.066H209.183C214.629 152.066 219.059 147.604 219.059 142.119V24.8916C219.059 19.4512 214.627 15.0266 209.18 15.0266H154.966V15.761H209.18C214.222 15.761 218.324 19.8579 218.324 24.8916V142.117C218.324 147.197 214.224 151.33 209.183 151.33H154.961V152.065V152.066Z" fill="#6F46BE"/>
</g>
<mask id="mask3_270_35240" style="mask-type:luminance" maskUnits="userSpaceOnUse" x="61" y="49" width="133" height="186">
<path d="M193.076 49.0626H61.543V234.828H193.076V49.0626Z" fill="white"/>
</mask>
<g mask="url(#mask3_270_35240)">
<path d="M117.857 71.0821C117.857 71.0821 113.649 68.4219 113.228 64.789C112.807 61.1561 115.665 61.2314 115.384 58.3759C115.128 55.7355 116.319 53.009 119.511 51.9413C124.132 50.3918 125.618 52.2297 128.596 51.1746C131.574 50.1195 136.264 47.3626 137.743 52.1151C138.696 55.1837 137.26 59.0943 133.125 60.5453C129.818 61.7061 125.552 68.5312 123.441 69.3445C121.616 70.0342 119.753 70.6146 117.859 71.0839L117.857 71.0821Z" fill="#6F46BE"/>
<path d="M117.856 71.4332C117.883 71.4368 117.91 71.4368 117.937 71.4332C119.846 70.9585 121.725 70.371 123.566 69.6741C124.567 69.2836 125.908 67.7735 127.456 66.0233C129.338 63.9113 131.47 61.4929 133.239 60.8731C137.685 59.3146 139.05 55.1389 138.079 52.004C137.678 50.7125 137.024 49.8365 136.085 49.3958C134.262 48.5306 131.891 49.4836 129.798 50.3291C129.331 50.5154 128.892 50.6802 128.483 50.8396C127.216 51.2911 126.236 51.1908 125.103 51.0618C123.184 50.7716 121.224 50.9579 119.394 51.6081C115.799 52.8048 114.783 55.9056 115.029 58.4046C115.145 59.5977 114.656 60.2067 114.093 60.9107C113.389 61.7688 112.622 62.7415 112.873 64.8285C113.323 68.5903 117.498 71.2667 117.674 71.3795C117.727 71.4153 117.792 71.435 117.856 71.435V71.4332ZM134.438 49.7648C134.898 49.7541 135.355 49.849 135.775 50.0389C136.524 50.39 137.056 51.094 137.4 52.2172C138.273 55.0332 137.027 58.7987 132.999 60.2139C131.053 60.8964 128.859 63.381 126.92 65.5647C125.496 67.1734 124.148 68.6978 123.3 69.0239C121.541 69.6849 119.745 70.2474 117.923 70.706C117.24 70.2384 113.93 67.8308 113.579 64.7443C113.364 62.9529 113.987 62.1754 114.634 61.3514C115.24 60.5955 115.865 59.8126 115.722 58.3383C115.5 56.1063 116.408 53.344 119.591 52.2745C121.326 51.6637 123.184 51.4881 125.001 51.764C126.173 51.8912 127.277 52.0076 128.694 51.5042C129.117 51.3556 129.564 51.1728 130.038 50.983C131.499 50.4026 133.085 49.7648 134.44 49.7648H134.438Z" fill="#6F46BE"/>
<path d="M109.041 87.1149C110.898 84.9474 112.442 83.9478 115.499 82.8425L118.261 67.0766C115.068 67.2844 114.933 61.4034 119.316 62.4585C120.288 62.6734 120.196 64.9216 120.196 64.9216C120.248 67.0587 121.888 66.7237 122.399 63.6515C123.198 58.8327 130.011 62.2184 132.846 60.445C133.486 66.9208 133.197 71.2613 132.233 73.7387C130.875 77.2337 126.974 77.8356 124.079 76.1034C124.128 78.0774 124.122 82.0095 124.112 84.1986C125.775 85.8986 128.361 88.96 128.361 88.96C122.8 90.2695 116.144 89.1857 109.043 87.1113L109.041 87.1149Z" fill="#EDE3FF"/>
<path d="M131.584 60.8176C131.584 60.8176 133.02 69.8031 130.765 73.9071C128.796 77.4863 124.939 76.4097 124.939 76.4097C124.939 76.4097 128.629 79.0358 131.869 74.4804C134.127 70.5411 132.731 60.282 132.731 60.282L131.584 60.8176Z" fill="white"/>
<path d="M126.492 66.1792C127.418 66.1792 128.169 65.7693 128.169 65.2638C128.169 64.7582 127.418 64.3484 126.492 64.3484C125.565 64.3484 124.814 64.7582 124.814 65.2638C124.814 65.7693 125.565 66.1792 126.492 66.1792Z" fill="white"/>
<path d="M126.491 66.5303C127.649 66.5303 128.522 65.9839 128.522 65.2638C128.522 64.5436 127.649 64.0009 126.491 64.0009C125.334 64.0009 124.461 64.5508 124.461 65.253C124.461 65.9552 125.334 66.5303 126.491 66.5303ZM126.491 64.7031C127.287 64.7031 127.817 65.0542 127.817 65.262C127.817 65.4698 127.287 65.8245 126.491 65.8245C125.696 65.8245 125.165 65.4734 125.165 65.262C125.165 65.0506 125.692 64.7031 126.491 64.7031Z" fill="#6F46BE"/>
<path d="M127.406 66.0412C127.741 66.0412 128.012 65.7701 128.012 65.4357C128.012 65.1013 127.741 64.8303 127.406 64.8303C127.072 64.8303 126.801 65.1013 126.801 65.4357C126.801 65.7701 127.072 66.0412 127.406 66.0412Z" fill="#6F46BE"/>
<path d="M131.597 66.1792C132.467 66.1792 133.172 65.7693 133.172 65.2638C133.172 64.7582 132.467 64.3484 131.597 64.3484C130.727 64.3484 130.021 64.7582 130.021 65.2638C130.021 65.7693 130.727 66.1792 131.597 66.1792Z" fill="white"/>
<path d="M131.596 66.5303C132.677 66.5303 133.524 65.9749 133.524 65.2638C133.524 64.5526 132.677 64.0009 131.596 64.0009C130.516 64.0009 129.668 64.5508 129.668 65.253C129.668 65.9552 130.516 66.5303 131.596 66.5303ZM131.596 64.7031C132.342 64.7031 132.82 65.0345 132.82 65.262C132.82 65.4895 132.342 65.8245 131.596 65.8245C130.851 65.8245 130.372 65.4734 130.372 65.262C130.372 65.0506 130.851 64.7031 131.596 64.7031Z" fill="#6F46BE"/>
<path d="M132.365 66.0412C132.7 66.0412 132.971 65.7701 132.971 65.4357C132.971 65.1013 132.7 64.8303 132.365 64.8303C132.031 64.8303 131.76 65.1013 131.76 65.4357C131.76 65.7701 132.031 66.0412 132.365 66.0412Z" fill="#6F46BE"/>
<path d="M129.272 70.4372H129.318C129.505 70.4157 130.437 70.2688 130.704 69.7117C130.82 69.4591 130.793 69.1636 130.634 68.9379C130.313 68.3395 130.048 67.7126 129.842 67.0659C129.783 66.8814 129.585 66.7775 129.401 66.8366C129.216 66.8957 129.112 67.0927 129.172 67.2791C129.394 67.9795 129.682 68.6566 130.033 69.3033C130.059 69.3427 130.08 69.3875 130.069 69.409C129.831 69.6025 129.539 69.7171 129.232 69.7404C129.039 69.7529 128.89 69.9195 128.901 70.113C128.912 70.3065 129.08 70.4552 129.274 70.4444V70.4372H129.272Z" fill="#6F46BE"/>
<path d="M128.61 73.3482C129.15 73.3482 129.675 73.178 130.112 72.8627C130.27 72.7481 130.304 72.5278 130.189 72.3701C130.075 72.2125 129.854 72.1784 129.696 72.2931C128.539 73.092 127.354 72.2716 127.304 72.2376C127.152 72.1175 126.93 72.1444 126.809 72.2967C126.689 72.4489 126.716 72.6711 126.869 72.7911C126.876 72.7965 126.885 72.8018 126.892 72.8072C127.399 73.1512 127.996 73.3393 128.609 73.35L128.61 73.3482Z" fill="#6F46BE"/>
<path d="M124.163 76.1643C123.099 75.5785 122.153 74.7992 121.373 73.8659C121.907 75.6716 123.054 77.6386 124.12 78.09C124.1 77.4487 124.115 76.8056 124.163 76.1643Z" fill="#6F46BE"/>
<path d="M124.132 78.4447C124.204 78.4447 124.273 78.4196 124.333 78.3784C124.431 78.3103 124.488 78.1957 124.483 78.0757C124.444 77.2839 124.523 76.2001 124.523 76.1893C124.539 76.0442 124.463 75.9045 124.333 75.8382C123.315 75.2704 122.41 74.5234 121.659 73.6313C121.537 73.479 121.317 73.4539 121.164 73.5757C121.051 73.6653 121.005 73.814 121.046 73.9519C121.584 75.772 122.77 77.884 123.994 78.4053C124.037 78.4286 124.083 78.4429 124.132 78.4483V78.4447ZM123.808 76.3649C123.808 76.6049 123.772 77.0098 123.768 77.42C123.157 76.8127 122.662 76.0962 122.311 75.308C122.77 75.7003 123.261 76.0532 123.779 76.3631H123.808V76.3649Z" fill="#6F46BE"/>
<path d="M123.128 89.8915C124.916 89.9077 126.699 89.7142 128.443 89.3183C128.561 89.2914 128.656 89.2037 128.696 89.089C128.74 88.969 128.715 88.8346 128.633 88.7379C128.604 88.7057 126.121 85.7678 124.468 84.057C124.468 82.0615 124.468 78.7421 124.447 76.6963C125.95 77.4523 127.69 77.5902 129.294 77.0797C130.819 76.5655 132.025 75.3832 132.572 73.8695C133.609 71.195 133.824 66.6682 133.208 60.4127C133.197 60.2909 133.124 60.1852 133.014 60.1315C132.903 60.0742 132.769 60.0813 132.663 60.1494C131.665 60.7764 129.997 60.6922 128.386 60.6134C125.671 60.479 122.599 60.3285 122.055 63.5978C121.777 65.2871 121.164 65.9696 120.904 65.9391C120.766 65.9391 120.571 65.588 120.553 64.918C120.553 64.678 120.619 62.3832 119.399 62.102C117.496 61.6452 116.549 62.4531 116.152 62.9511C115.483 63.879 115.399 65.1079 115.937 66.1183C116.304 66.8527 117.026 67.3453 117.843 67.417L115.191 82.5738C112.184 83.6791 110.618 84.7414 108.776 86.882C108.699 86.9716 108.672 87.0952 108.706 87.2099C108.74 87.3245 108.83 87.4159 108.944 87.4499C114.548 89.0836 119.184 89.8933 123.128 89.8933V89.8915ZM127.701 88.7576C123.065 89.6945 117.3 89.1087 109.656 86.934C111.303 85.114 112.776 84.195 115.603 83.1775C115.723 83.1345 115.809 83.0306 115.833 82.907L118.591 67.1411C118.608 67.0354 118.578 66.9262 118.506 66.8456C118.435 66.7649 118.329 66.7219 118.221 66.7291C117.521 66.799 116.852 66.4282 116.541 65.7958C116.139 65.0291 116.198 64.1048 116.691 63.3954C117.198 62.7433 118.098 62.5337 119.223 62.8042C119.691 62.9099 119.863 64.128 119.832 64.9162C119.872 66.4586 120.614 66.6306 120.838 66.6449C121.678 66.704 122.427 65.554 122.734 63.716C123.173 61.0648 125.682 61.1884 128.334 61.3228C129.832 61.3962 131.376 61.4714 132.534 60.9985C133.075 66.876 132.862 71.1216 131.891 73.6205C131.423 74.9426 130.377 75.9798 129.052 76.4366C127.441 76.9292 125.696 76.7017 124.264 75.8096C124.155 75.7469 124.02 75.7469 123.913 75.8096C123.802 75.8741 123.734 75.9941 123.737 76.1231C123.786 78.0864 123.78 82.0364 123.769 84.2183C123.769 84.3114 123.807 84.3992 123.872 84.4655C125.121 85.7356 126.947 87.8368 127.715 88.7486L127.701 88.7558V88.7576Z" fill="#6F46BE"/>
<path d="M107.968 179.664H102.621V214.422H107.968V179.664Z" fill="#EDE3FF"/>
<path d="M102.617 214.775H107.95C108.144 214.775 108.301 214.618 108.301 214.424V179.666C108.301 179.471 108.144 179.315 107.95 179.315H102.599C102.406 179.315 102.248 179.473 102.248 179.666V214.424C102.248 214.619 102.406 214.777 102.599 214.777C102.605 214.777 102.612 214.777 102.617 214.777V214.775ZM107.615 214.071H102.968V180.017H107.597L107.615 214.071Z" fill="#6F46BE"/>
<path d="M102.195 212.701H108.404L141.687 225.192C147.185 226.6 126.453 231.003 105.596 231.24C84.1642 231.487 62.6011 227.508 69.235 225.192L102.195 212.701Z" fill="#EDE3FF"/>
<path d="M109.418 213.047C109.418 213.047 129.429 222.236 128.705 224.782C127.981 227.327 125.834 229.459 120.505 230.444C130.594 229.787 142.975 227.08 142.649 225.516C140.256 224.699 109.418 213.045 109.418 213.045V213.047Z" fill="white"/>
<path d="M103.729 231.603H105.607C114.107 231.49 122.588 230.776 130.987 229.463C135.374 228.759 142.761 227.351 142.947 225.844C143.024 225.192 142.132 224.95 141.807 224.87L108.528 212.382C108.489 212.368 108.448 212.36 108.405 212.36H102.195C102.154 212.36 102.111 212.368 102.072 212.382L69.1115 224.877C68.7245 225.011 67.5256 225.428 67.6726 226.285C67.9862 228.069 75.5018 229.396 79.9603 230.031C87.8379 231.091 95.78 231.616 103.729 231.603ZM142.214 225.781C141.392 227.164 124.782 230.684 105.593 230.889C85.7323 231.118 68.6582 227.89 68.3661 226.147C68.3661 226.077 68.5076 225.823 69.3517 225.527L102.258 213.052H108.337L141.564 225.523H141.6C141.82 225.566 142.03 225.652 142.216 225.78L142.214 225.781Z" fill="#6F46BE"/>
<path d="M108.067 182.027C108.067 182.027 104.356 182.643 102.766 188.302C102.661 185.486 102.449 181.78 102.449 181.78L108.067 182.027Z" fill="#6F46BE"/>
<path d="M102.981 212.882L78.6239 229.375L70.748 227.612L101.834 212.719L102.981 212.882Z" fill="#6F46BE"/>
<path d="M103.563 212.842L82.5605 229.787L88.4634 230.484L104.548 212.842H103.563Z" fill="#6F46BE"/>
<path d="M150.126 166.48C150.126 166.48 127.694 186.31 88.7126 180.648C54.7112 175.72 55.2148 129.445 78.0394 116.359C107.113 99.685 181.488 142.293 150.124 166.482L150.126 166.48Z" fill="#EDE3FF"/>
<path d="M62.2775 142.062C62.2775 142.062 59.654 157.324 68.4294 168.977C77.2048 180.63 91.8006 181.053 97.044 181.452C87.4066 180.044 84.9122 175.378 82.8604 172.588C80.8085 169.799 78.6778 169.633 76.7084 170.371C74.739 171.109 73.757 168.072 72.0331 161.262C70.3092 154.451 68.0155 154.698 66.1303 154.616C64.2451 154.533 61.7829 152.563 62.2757 142.06L62.2775 142.062Z" fill="#6F46BE"/>
<path d="M102.438 182.006C116.072 182.006 126.876 178.971 134.171 176.022C144.373 171.879 150.084 166.994 150.351 166.757C159.11 159.999 160.411 150.995 154.019 141.415C147.627 131.835 134.099 122.468 118.681 116.92C102.148 110.974 87.276 110.664 77.877 116.062C71.9043 119.458 67.0748 125.441 64.2596 132.834C61.5483 140.019 60.8512 147.808 62.2436 155.361C63.4855 161.89 66.3312 167.637 70.4778 171.988C75.1496 176.884 81.2621 179.912 88.6559 180.985C93.2183 181.656 97.8237 181.998 102.435 182.006H102.438ZM94.5336 112.916C101.671 112.916 109.825 114.471 118.453 117.574C133.737 123.071 147.147 132.356 153.442 141.797C157.789 148.322 160.712 157.869 149.91 166.202H149.892C149.836 166.252 144.19 171.182 133.873 175.354C124.376 179.209 108.807 183.19 88.7598 180.282C74.9955 178.28 65.5821 169.145 62.9335 155.217C59.9714 139.641 66.3975 123.419 78.2139 116.647C82.572 114.181 88.1434 112.916 94.5318 112.916H94.5336Z" fill="#6F46BE"/>
<path d="M96.4395 181.368C96.4395 181.368 108.828 181.821 121.744 174.557C132.202 168.68 145.123 169.883 138.843 173.448C129.74 178.618 110.544 183.338 96.4395 181.368Z" fill="#6F46BE"/>
<path d="M174.923 198.561L177.138 219.734L170.842 220.536L166.201 201.512L174.923 198.561Z" fill="#EDE3FF"/>
<path d="M170.843 220.889H170.886L177.183 220.087C177.371 220.063 177.507 219.893 177.489 219.703L175.273 198.527C175.251 198.334 175.077 198.194 174.886 198.216C174.86 198.219 174.837 198.223 174.812 198.232L166.092 201.182C165.92 201.241 165.822 201.421 165.863 201.598L170.502 220.622C170.542 220.78 170.682 220.889 170.843 220.889ZM176.753 219.422L171.124 220.126L166.635 201.721L174.635 199.018L176.753 219.422Z" fill="#6F46BE"/>
<path d="M95.0029 150.225C95.0029 150.225 96.4759 155.153 99.4309 158.229C102.386 161.305 100.658 161.797 98.0762 160.319C95.4939 158.841 92.9081 155.642 91.8006 151.703C90.6932 147.764 93.8793 147.642 95.0011 150.225H95.0029Z" fill="white"/>
<path d="M103.796 162.227C103.149 161.779 101.461 162.413 102.627 163.581C103.794 164.749 104.903 164.989 106.38 165.303C107.856 165.616 107.917 164.751 107.055 164.248C106.193 163.744 104.597 162.784 103.794 162.227H103.796Z" fill="white"/>
<path d="M113.002 99.6348C111.83 113.256 115.636 124.696 119.112 131.433C124.632 142.14 151.418 142.88 156.047 142.724C160.676 142.569 168.803 146.164 170.034 147.3C171.265 148.435 172.587 147.839 171.385 145.655C168.761 140.895 162.201 138.929 157.445 138.264C152.003 137.513 137.043 134.805 135.67 129.235C134.298 123.666 132.35 116.518 131.692 101.252" fill="#EDE3FF"/>
<path d="M171.223 148.251C171.445 148.256 171.664 148.183 171.839 148.047C172.106 147.839 172.628 147.174 171.705 145.501C168.687 140.028 160.768 138.388 157.505 137.936C154.167 137.476 137.455 134.887 136.023 129.171L135.847 128.467C134.51 123.141 132.681 115.852 132.055 101.252C132.048 101.057 131.883 100.907 131.69 100.914C131.496 100.921 131.344 101.086 131.353 101.279C131.982 115.951 133.815 123.284 135.166 128.639L135.342 129.343C136.84 135.326 152.61 137.97 157.407 138.631C160.573 139.068 168.223 140.645 171.09 145.84C171.628 146.811 171.576 147.36 171.411 147.491C171.246 147.622 170.813 147.547 170.286 147.054C169.019 145.868 160.847 142.207 156.047 142.373C149.635 142.585 124.613 141.318 119.429 131.272C114.544 121.493 112.442 110.555 113.358 99.6599C113.374 99.4664 113.23 99.2962 113.037 99.2801C112.843 99.264 112.673 99.4073 112.657 99.6008C111.731 110.627 113.858 121.696 118.802 131.593C121.19 136.229 127.595 139.561 137.852 141.497C143.861 142.604 149.961 143.133 156.07 143.074C160.614 142.923 168.625 146.467 169.788 147.568C170.166 147.964 170.676 148.206 171.223 148.247V148.251Z" fill="#6F46BE"/>
<path d="M126.207 114.242C126.207 114.242 133.013 114.157 135.475 113.502C134.069 108.742 131.497 96.4838 131.497 96.4838" fill="white"/>
<path d="M126.208 114.595C126.489 114.595 133.087 114.503 135.56 113.844C135.653 113.819 135.732 113.758 135.779 113.676C135.825 113.593 135.836 113.495 135.811 113.405C134.435 108.713 131.865 96.534 131.84 96.4121C131.799 96.2169 131.609 96.0933 131.413 96.1345C131.22 96.1757 131.094 96.3656 131.136 96.5608C131.161 96.6808 133.598 108.303 135.005 113.247C132.374 113.81 126.238 113.892 126.175 113.892C125.982 113.892 125.824 114.05 125.824 114.243C125.824 114.437 125.982 114.595 126.175 114.595H126.208Z" fill="#6F46BE"/>
<path d="M109.119 143.185C109.119 143.185 153.792 139.76 164.506 143.74C172.129 146.578 173.117 152.726 173.117 152.726L180.089 201.718L166.558 204.344L157.198 162.209L113.3 162.829L109.121 143.185H109.119Z" fill="#6F46BE"/>
<path d="M142.763 200.509L139.861 223.137L146.06 224.943L152.654 200.871L142.763 200.509Z" fill="#EDE3FF"/>
<path d="M146.062 225.299C146.123 225.299 146.182 225.283 146.234 225.253C146.316 225.206 146.375 225.129 146.399 225.038L152.997 200.966C153.025 200.862 153.004 200.751 152.941 200.663C152.878 200.575 152.778 200.523 152.671 200.518L142.779 200.167C142.601 200.167 142.451 200.297 142.427 200.473L139.526 223.105C139.505 223.275 139.61 223.436 139.775 223.485L145.974 225.294C146.002 225.298 146.033 225.299 146.062 225.298V225.299ZM152.199 201.209L145.814 224.506L140.25 222.883L143.064 200.871L152.199 201.209Z" fill="#6F46BE"/>
<path d="M175.625 170.989L179.931 201.394L170.828 203.119C170.828 203.119 170.828 202.379 173.29 197.333C175.753 192.286 175.507 191.546 174.521 189.209C173.536 186.871 173.783 185.762 174.767 183.299C175.753 180.836 175.625 170.99 175.625 170.99V170.989Z" fill="#EDE3FF"/>
<path d="M166.558 204.697H166.624L180.156 202.067C180.34 202.031 180.466 201.856 180.437 201.669L173.465 152.677C173.422 152.414 172.354 146.286 164.628 143.412C153.973 139.45 110.918 142.69 109.089 142.832C108.989 142.841 108.895 142.891 108.836 142.973C108.775 143.054 108.752 143.158 108.773 143.258L112.949 162.902C112.985 163.067 113.132 163.184 113.3 163.18L156.917 162.564L166.211 204.421C166.246 204.582 166.39 204.697 166.555 204.695L166.558 204.697ZM179.694 201.438L166.827 203.934L157.552 162.132C157.514 161.969 157.367 161.853 157.2 161.858L113.583 162.474L109.555 143.505C114.037 143.178 154.417 140.362 164.39 144.072C171.717 146.8 172.769 152.727 172.776 152.783L179.695 201.437L179.694 201.438Z" fill="#6F46BE"/>
<path d="M105.256 165.769C105.256 165.769 134.494 162.822 145.321 168.232C142.538 196.541 141.66 205.342 141.66 205.342L156.634 204.197C156.634 204.197 162.516 178.502 164.834 165.955C167.153 153.408 167.051 147.652 154.986 146.015C142.92 144.378 95.2889 145.815 95.2889 145.815C95.2889 145.815 93.6635 166.465 105.258 165.769H105.256Z" fill="#6F46BE"/>
<path d="M141.66 205.693H141.685L156.659 204.548C156.813 204.536 156.942 204.425 156.976 204.274C157.035 204.018 162.89 178.41 165.183 166.018C166.678 157.922 167.017 153.227 164.687 150.01C163.021 147.708 159.956 146.329 155.043 145.662C143.083 144.054 95.7544 145.462 95.2759 145.476C95.0913 145.476 94.939 145.616 94.9247 145.8C94.8852 146.322 93.9821 158.612 99.1251 163.854C100.724 165.502 102.98 166.34 105.266 166.134H105.284C105.573 166.105 134.16 163.3 144.941 168.465C142.208 196.254 141.311 205.222 141.3 205.31C141.289 205.413 141.325 205.517 141.398 205.591C141.468 205.661 141.563 205.697 141.662 205.693H141.66ZM156.349 203.866L142.051 204.957C142.255 202.904 143.242 192.989 145.674 168.287C145.69 168.14 145.611 168.001 145.48 167.936C134.709 162.544 106.526 165.296 105.229 165.426C103.148 165.618 101.091 164.857 99.6358 163.357C95.1576 158.782 95.5089 148.138 95.6146 146.167C99.815 146.047 143.574 144.826 154.946 146.361C159.655 146.995 162.569 148.283 164.115 150.418C166.282 153.414 165.916 158.162 164.488 165.889C162.322 177.595 156.964 201.15 156.349 203.853V203.868V203.866Z" fill="#6F46BE"/>
<path d="M131.687 98.4059C131.497 94.6369 130.101 91.0273 127.709 88.1109C127.645 88.2363 127.551 88.3456 127.438 88.428C126.032 89.4347 119.471 89.2663 115.778 87.4678C113.633 86.4127 113.133 85.2537 112.791 84.0391C109.079 85.9541 104.393 90.8678 102.671 95.5308C94.3241 118.115 97.6805 156.255 97.6805 156.255C102.781 146.974 121.951 142.488 128.442 141.87C130.178 134.95 130.702 127.781 129.99 120.68C129.213 113.475 131.999 105.519 131.689 98.4059H131.687Z" fill="white"/>
<path d="M97.6738 122.53C97.6738 122.53 97.0198 129.75 99.3977 133.442C101.776 137.134 102.021 139.187 100.38 139.516C98.7383 139.846 98.9067 141.483 100.625 143.289C102.344 145.094 102.595 148.786 101.037 149.034C99.4802 149.281 97.0198 145.163 97.0198 145.163C97.0198 145.163 96.6076 125.483 97.6738 122.53Z" fill="#6F46BE"/>
<path d="M97.6785 156.606C97.8075 156.606 97.9258 156.536 97.9885 156.423C102.986 147.328 122.084 142.83 128.476 142.221C128.619 142.207 128.739 142.106 128.779 141.968C130.517 135.002 131.044 127.788 130.338 120.642C130.042 117.91 130.115 115.075 130.194 112.069C130.216 111.241 130.237 110.408 130.25 109.573C130.271 108.37 130.228 105.951 130.126 102.182C130.126 101.987 129.968 101.831 129.775 101.831C129.581 101.831 129.424 101.989 129.424 102.182C129.526 105.951 129.567 108.362 129.547 109.552C129.547 110.387 129.512 111.216 129.492 112.044C129.415 115.075 129.341 117.932 129.639 120.71C130.323 127.688 129.827 134.73 128.168 141.54C123.098 142.087 104.108 145.911 97.9473 155.133C97.4868 148.756 95.5586 115.779 102.999 95.649C104.701 91.0452 109.126 86.4969 112.584 84.5443C113.077 85.8824 114.115 86.9232 115.751 87.7114C119.441 89.5064 125.091 89.9919 127.601 88.7325L127.714 88.6627C129.3 90.6744 130.406 93.0246 130.943 95.529C131.035 95.9697 131.123 96.353 131.218 96.7794C131.372 97.4547 131.545 98.2196 131.802 99.4682C131.836 99.6599 132.019 99.7871 132.21 99.753C132.216 99.753 132.219 99.753 132.225 99.7494C132.415 99.71 132.536 99.5219 132.495 99.3321C132.235 98.0799 132.063 97.3078 131.907 96.6325C131.812 96.2097 131.728 95.8263 131.633 95.3928C131.042 92.6323 129.791 90.0563 127.988 87.8852C127.865 87.7347 127.642 87.715 127.494 87.8386C127.458 87.8691 127.427 87.9067 127.406 87.9497C127.381 88.0124 127.34 88.0679 127.289 88.1109C124.94 89.2896 119.589 88.8149 116.064 87.0862C113.927 86.0311 113.369 84.7951 113.138 83.9424C113.109 83.8403 113.038 83.7561 112.941 83.7131C112.846 83.6683 112.735 83.6683 112.638 83.7131C109.008 85.5994 104.164 90.4809 102.325 95.4089C94.0443 117.808 97.2807 155.904 97.3165 156.301C97.3309 156.455 97.4437 156.582 97.5943 156.615L97.6821 156.608L97.6785 156.606Z" fill="#6F46BE"/>
<path d="M133.342 165.079C126.774 166.002 106.792 165.607 101.127 149.919C95.4625 134.23 81.0764 136.191 75.428 130.957C75.428 130.957 65.4376 149.562 84.1335 162.037C102.829 174.512 133.34 165.079 133.34 165.079H133.342Z" fill="#EDE3FF"/>
<path d="M128.582 165.684C130.163 165.693 131.743 165.593 133.31 165.389C136.284 164.946 139.193 164.131 141.963 162.96C142.142 162.885 142.228 162.68 142.153 162.499C142.078 162.32 141.872 162.238 141.693 162.313C138.976 163.458 136.127 164.259 133.211 164.692C126.229 165.667 106.91 164.903 101.459 149.8C97.6148 139.145 90.3322 136.806 84.4831 134.925C81.5066 133.972 78.9351 133.144 77.118 131.462C75.5733 130.054 74.7991 128.471 74.8099 126.805C74.8314 123.77 77.4692 121.362 77.4979 121.339C77.643 121.208 77.6538 120.986 77.5248 120.841C77.3939 120.696 77.1717 120.685 77.0266 120.814C76.9101 120.92 74.1325 123.448 74.1074 126.797C74.1074 128.669 74.9443 130.412 76.6395 131.978C78.5749 133.766 81.3381 134.653 84.2663 135.597C90.2712 137.526 97.0701 139.711 100.799 150.028C103.261 156.814 108.766 161.643 116.755 164.033C120.601 165.138 124.584 165.693 128.584 165.684H128.582Z" fill="#6F46BE"/>
<path d="M101.439 104.323C100.264 117.944 103.17 128.644 106.645 135.385C112.164 146.089 143.229 147.405 147.847 147.251C152.465 147.097 155.959 148.613 157.626 149.068C159.81 149.662 159.258 147.798 159.258 147.798C160.152 148.228 162.188 148.308 161.677 147.038C162.485 147.425 163.471 147.626 163.953 147.017C164.26 146.626 163.752 145.865 161.512 144.781C158.464 143.305 154.733 142.477 150.32 142.3C144.833 142.071 122.411 137.241 121.022 131.673C119.633 126.106 119.401 119.913 120.219 104.978" fill="#EDE3FF"/>
<path d="M154.281 142.798C154.281 142.798 149.174 143.086 146.778 143.6C144.192 144.152 129 139.905 124.695 135.353C127.588 136.705 141.429 141.506 146.102 141.875C150.776 142.244 154.281 142.798 154.281 142.798Z" fill="white"/>
<path d="M158.38 149.524C159.023 149.585 159.595 149.112 159.655 148.468C159.661 148.419 159.661 148.369 159.661 148.321C160.406 148.511 161.353 148.507 161.813 148.073C161.953 147.946 162.046 147.776 162.08 147.592C163.026 147.905 163.786 147.785 164.216 147.24C164.358 147.061 164.408 146.825 164.354 146.603C164.211 145.976 163.327 145.275 161.652 144.469C158.591 142.988 154.778 142.142 150.325 141.952C144.75 141.719 122.676 136.897 121.35 131.593C119.943 125.93 119.75 119.718 120.558 105.004C120.568 104.808 120.42 104.643 120.226 104.633C120.033 104.622 119.866 104.771 119.855 104.966C119.043 119.748 119.233 126.022 120.667 131.763C122.131 137.621 145.033 142.434 150.292 142.674C154.65 142.861 158.383 143.681 161.349 145.121C163.42 146.124 163.643 146.68 163.668 146.778V146.821C163.317 147.251 162.489 147.065 161.82 146.744C161.645 146.66 161.435 146.734 161.351 146.909C161.308 146.999 161.304 147.103 161.342 147.196C161.455 147.47 161.37 147.547 161.342 147.579C161.057 147.842 160.026 147.805 159.403 147.506C159.227 147.421 159.018 147.497 158.933 147.672C158.896 147.749 158.889 147.839 158.914 147.921C158.957 148.066 159.03 148.52 158.829 148.72C158.629 148.921 158.263 148.903 157.711 148.756C157.405 148.672 157.032 148.548 156.6 148.405C154.749 147.803 151.654 146.796 147.83 146.923C143.327 147.072 112.327 145.677 106.953 135.249C104.448 130.389 100.446 119.92 101.785 104.377C101.801 104.183 101.658 104.013 101.464 103.997C101.464 103.997 101.464 103.997 101.462 103.997C101.269 103.981 101.098 104.124 101.082 104.317C99.7276 120.037 103.786 130.645 106.327 135.57C111.884 146.347 142.467 147.808 147.855 147.629C151.556 147.509 154.46 148.45 156.382 149.077C156.821 149.222 157.204 149.347 157.528 149.428C157.806 149.499 158.093 149.533 158.38 149.53V149.524Z" fill="#6F46BE"/>
<path d="M100.867 101.109C100.867 101.109 99.7166 105.541 98.3242 114.242C103.818 116.375 115.628 117.276 122.025 115.227C121.86 111.356 121.945 102.094 121.945 102.094" fill="white"/>
<path d="M112.718 116.73C116.218 116.73 119.592 116.379 122.135 115.562C122.285 115.514 122.386 115.368 122.377 115.211C122.215 111.409 122.292 102.188 122.296 102.1C122.296 101.904 122.138 101.749 121.945 101.749C121.751 101.749 121.594 101.906 121.594 102.1C121.594 102.191 121.516 111.008 121.663 114.978C115.359 116.882 104.181 116.033 98.7187 114.021C100.073 105.627 101.181 101.251 101.206 101.206C101.24 101.014 101.111 100.831 100.921 100.797C100.751 100.767 100.584 100.865 100.527 101.028C100.527 101.075 99.3584 105.577 97.9768 114.193C97.9517 114.358 98.0431 114.518 98.199 114.577C101.566 115.875 107.292 116.732 112.72 116.732L112.718 116.73Z" fill="#6F46BE"/>
<path d="M165.36 144.301C165.93 144.321 166.459 144.009 166.718 143.502C166.96 142.972 166.779 142.345 166.292 142.024C165.367 141.338 162.83 140.568 162.722 140.535C162.538 140.48 162.344 140.584 162.287 140.768C162.229 140.955 162.333 141.152 162.52 141.209C162.548 141.209 165.048 141.979 165.876 142.592C166.093 142.714 166.181 142.981 166.08 143.208C165.871 143.547 165.453 143.694 165.079 143.559C163.822 143.271 160.738 142.95 160.608 142.936C160.414 142.916 160.24 143.058 160.221 143.253C160.201 143.448 160.342 143.62 160.538 143.64C160.57 143.64 163.704 143.968 164.921 144.249C165.066 144.283 165.215 144.301 165.364 144.301H165.36Z" fill="#6F46BE"/>
<path d="M154.828 145.96C156.375 146.221 157.846 146.823 159.134 147.719L154.828 145.96Z" fill="#EDE3FF"/>
<path d="M159.135 148.073C159.328 148.072 159.484 147.912 159.482 147.717C159.482 147.604 159.425 147.498 159.332 147.432C158 146.497 156.475 145.875 154.871 145.609C154.678 145.585 154.5 145.723 154.477 145.918C154.454 146.114 154.592 146.289 154.787 146.313C156.276 146.574 157.692 147.156 158.934 148.02C158.993 148.057 159.063 148.075 159.135 148.072V148.073Z" fill="#6F46BE"/>
<path d="M156.494 144.768C156.494 144.768 159.446 145.472 161.662 146.983L156.494 144.768Z" fill="#EDE3FF"/>
<path d="M161.678 147.335C161.871 147.334 162.027 147.174 162.025 146.979C162.025 146.866 161.968 146.76 161.875 146.694C159.635 145.155 156.714 144.455 156.599 144.428C156.407 144.398 156.228 144.53 156.198 144.722C156.171 144.892 156.273 145.059 156.438 145.111C156.466 145.111 159.353 145.815 161.486 147.275C161.543 147.312 161.609 147.334 161.679 147.334L161.678 147.335Z" fill="#6F46BE"/>
<path d="M162.215 152.812C162.215 152.812 165.166 155.275 164.019 163.15C162.872 171.025 161.229 181.207 161.229 181.207C161.229 181.207 162.869 169.387 161.557 165.941C160.245 162.494 163.2 161.675 161.889 159.049C160.577 156.423 162.216 152.812 162.216 152.812H162.215Z" fill="#EDE3FF"/>
<path d="M143.764 188.591L145.857 167.911C146.102 163.85 150.975 162.906 150.285 168.035C150.011 170.063 147.203 170.351 147.577 172.963C147.823 174.684 148.439 174.93 146.961 176.531C145.482 178.133 147.946 179.854 146.102 182.437C144.258 185.021 143.764 188.591 143.764 188.591Z" fill="#EDE3FF"/>
<path d="M167.793 207.137C167.793 207.137 169.352 211.406 170.993 212.226C172.635 213.047 173.533 215.999 171.972 217.887C170.409 219.773 169.51 215.592 169.51 215.592L167.793 207.137Z" fill="#6F46BE"/>
<path d="M142.039 207.71C142.039 207.71 143.598 213.693 143.189 215.506C142.781 217.319 141.783 220.434 143.517 223.302C145.252 226.17 139.648 224.042 139.648 224.042L142.041 207.71H142.039Z" fill="#6F46BE"/>
<path d="M137.899 221.079C138.166 218.594 139.813 217.179 140.766 221.156C141.625 224.721 145.811 223.028 146.501 222.342C145.01 220.504 149.022 218.096 149.022 218.096C149.022 218.096 153.595 227.044 160.262 228.766C166.928 230.487 162.858 233.778 159.878 234.084C149.325 235.165 140.082 233.778 135.958 232.676C132.719 231.804 136.419 228.773 136.419 228.773L137.899 221.079Z" fill="white"/>
<path d="M152.065 234.828C154.686 234.831 157.304 234.699 159.912 234.434C161.843 234.237 164.091 232.895 164.204 231.399C164.27 230.516 163.655 229.287 160.335 228.425C153.916 226.768 149.368 218.025 149.321 217.937C149.276 217.851 149.199 217.788 149.106 217.761C149.013 217.735 148.912 217.747 148.828 217.797C148.715 217.864 146.126 219.435 145.832 221.127C145.758 221.516 145.821 221.919 146.011 222.268C145.389 222.666 143.9 223.239 142.669 222.899C141.861 222.67 141.329 222.057 141.094 221.079C140.531 218.734 139.728 218.288 139.173 218.324C138.245 218.383 137.682 219.732 137.537 221.031L136.091 228.578C135.634 228.972 134.033 230.457 134.304 231.718C134.435 232.334 134.958 232.773 135.863 233.01C139.395 233.963 145.259 234.833 152.065 234.833V234.828ZM148.898 218.598C149.826 220.291 154.118 227.542 160.179 229.108C162.392 229.681 163.573 230.477 163.506 231.347C163.422 232.47 161.435 233.572 159.849 233.733C149.93 234.754 140.829 233.613 136.049 232.325C135.424 232.157 135.067 231.902 134.994 231.566C134.818 230.749 136.159 229.432 136.641 229.038C136.704 228.984 136.747 228.911 136.764 228.83L138.252 221.144V221.115C138.395 219.78 138.913 219.039 139.234 219.003C139.479 219.003 139.994 219.467 140.417 221.221C140.789 222.774 141.746 223.333 142.481 223.555C144.169 224.029 146.23 223.084 146.74 222.577C146.868 222.449 146.878 222.245 146.766 222.105C146.558 221.865 146.47 221.545 146.529 221.233C146.712 220.255 148.095 219.143 148.893 218.6H148.9L148.898 218.598Z" fill="#6F46BE"/>
<path d="M167.07 215.502C167.337 213.011 168.983 211.595 169.944 215.58C170.802 219.152 174.827 217.494 175.515 216.805C174.503 214.309 175.752 213.686 176.874 213.113C177.316 212.887 177.805 212.821 178.02 213.27C178.499 214.259 179.08 215.196 179.752 216.065C181.475 218.335 184.472 221.219 189.509 223.435C195.81 226.208 191.419 229.009 188.418 229.092C176.567 229.402 170.453 228.096 166.317 226.98C163.07 226.107 166.437 222.182 166.437 222.182L167.07 215.502Z" fill="white"/>
<path d="M184.947 229.491C186.05 229.491 187.208 229.491 188.425 229.445C190.409 229.393 192.724 228.296 193.043 226.756C193.218 225.855 192.772 224.49 189.649 223.112C184.552 220.869 181.604 217.928 180.028 215.854C179.373 215.001 178.807 214.085 178.336 213.118C178.234 212.892 178.046 212.719 177.813 212.636C177.44 212.541 177.044 212.599 176.716 212.797C175.619 213.356 174.152 214.107 175.098 216.694C174.528 217.077 173.044 217.679 171.854 217.346C171.051 217.116 170.525 216.497 170.286 215.497C169.72 213.145 168.924 212.681 168.362 212.735C167.423 212.797 166.864 214.143 166.718 215.467L166.097 222.041C165.745 222.492 164.183 224.504 164.64 225.995C164.84 226.647 165.374 227.093 166.226 227.322C170.274 228.413 175.646 229.49 184.947 229.49V229.491ZM177.49 213.301C177.522 213.297 177.553 213.297 177.585 213.301C177.621 213.301 177.662 213.337 177.705 213.421C178.193 214.431 178.782 215.388 179.463 216.278C181.088 218.419 184.124 221.452 189.362 223.754C191.473 224.683 192.528 225.701 192.346 226.614C192.123 227.759 190.041 228.691 188.403 228.726C177.003 229.026 170.887 227.836 166.405 226.614C165.792 226.45 165.433 226.166 165.308 225.76C164.98 224.705 166.202 222.969 166.715 222.389C166.763 222.333 166.792 222.265 166.799 222.191L167.432 215.504C167.575 214.166 168.096 213.428 168.417 213.392C168.663 213.392 169.177 213.856 169.6 215.614C169.98 217.19 170.933 217.769 171.664 217.975C173.243 218.422 175.203 217.57 175.766 217.007C175.847 216.918 175.875 216.792 175.843 216.676C174.953 214.49 175.91 214.001 177.022 213.433C177.167 213.351 177.327 213.303 177.494 213.288V213.299L177.49 213.301Z" fill="#6F46BE"/>
<path d="M115.799 116.291C115.799 116.291 104.807 116.452 101.447 115.236C101.609 119.829 103.909 129.431 104.725 130.91C104.725 130.91 107.268 126.887 105.463 124.1C103.659 121.312 103.331 120.649 104.478 119.422C105.624 118.195 115.798 116.293 115.798 116.293L115.799 116.291Z" fill="#6F46BE"/>
<path d="M130.464 126.058C130.464 126.058 130.956 134.346 133.415 135.659C135.874 136.972 136.933 139.844 136.933 139.844L129.408 137.298L130.464 126.056V126.058Z" fill="#6F46BE"/>
<path d="M123.235 92.4371C127.269 92.4371 129.475 91.0846 129.598 91.0076C129.77 90.9162 129.835 90.703 129.743 90.5311C129.652 90.3591 129.439 90.2946 129.269 90.386C129.254 90.3931 129.24 90.4021 129.226 90.4129C129.186 90.4379 125.262 92.8169 118.321 91.1169C112.578 89.6909 111.071 87.7276 110.302 85.8162C110.23 85.6353 110.026 85.5475 109.845 85.6191C109.664 85.6908 109.576 85.8968 109.648 86.0759C110.784 88.892 113.327 90.6027 118.153 91.7994C119.816 92.2168 121.522 92.4299 123.235 92.4371Z" fill="#6F46BE"/>
<path d="M151.699 227.675C149.765 228.778 148.333 230.588 147.699 232.723C146.161 232.413 142.654 231.797 142.654 231.797C142.654 231.797 145.156 226.383 148.068 224.166C149.482 225.704 151.699 227.675 151.699 227.675Z" fill="#EDE3FF"/>
<path d="M180.975 221.846C179.043 222.951 177.613 224.759 176.979 226.894C175.438 226.587 172.096 225.559 172.096 225.559C172.096 225.559 174.431 220.554 177.344 218.34C178.762 219.879 180.975 221.846 180.975 221.846Z" fill="#EDE3FF"/>
<path d="M154.562 229.276C155.75 229.219 156.897 228.827 157.872 228.146C158.03 228.031 158.064 227.811 157.949 227.653C157.834 227.496 157.614 227.462 157.456 227.576C157.431 227.576 154.994 229.319 153.043 228.175C150.485 226.686 146.81 222.17 146.774 222.123C146.652 221.971 146.43 221.948 146.278 222.071C146.126 222.195 146.102 222.415 146.226 222.568C146.38 222.758 150.021 227.227 152.691 228.78C153.259 229.112 153.906 229.283 154.562 229.276Z" fill="#6F46BE"/>
<path d="M158.792 234.242C159.544 234.255 160.297 234.213 161.042 234.115C161.236 234.084 161.369 233.902 161.338 233.706C161.308 233.511 161.125 233.38 160.929 233.411C157.218 234.009 140.024 232.331 136.775 228.544C136.648 228.397 136.426 228.379 136.277 228.506C136.13 228.633 136.112 228.857 136.239 229.004C139.232 232.495 152.688 234.242 158.79 234.242H158.792Z" fill="#6F46BE"/>
<path d="M189.269 228.977C189.785 228.984 190.299 228.952 190.81 228.882C191.004 228.852 191.136 228.669 191.106 228.474C191.075 228.279 190.892 228.148 190.697 228.178C186.88 228.794 170.066 226.066 166.778 222.265C166.652 222.118 166.43 222.1 166.281 222.226C166.134 222.353 166.116 222.575 166.242 222.722C169.394 226.389 183.576 228.977 189.267 228.977H189.269Z" fill="#6F46BE"/>
<path d="M184.129 223.997C185.41 223.997 186.591 223.187 187.197 222.571C187.333 222.432 187.331 222.209 187.191 222.073C187.051 221.937 186.829 221.939 186.693 222.079C186.605 222.17 184.548 224.23 182.736 222.783C180.563 221.058 176.321 217.355 175.81 216.61C175.703 216.448 175.484 216.404 175.323 216.513C175.161 216.62 175.117 216.839 175.226 217.002C175.226 217.004 175.23 217.007 175.231 217.009C175.841 217.896 180.301 221.747 182.299 223.345C182.817 223.768 183.464 223.999 184.132 223.999L184.129 223.997Z" fill="#6F46BE"/>
<path d="M93.205 150.47C93.205 150.47 91.0277 145.813 87.6606 143.203C84.2934 140.593 85.9223 139.848 88.6946 140.933C91.4668 142.019 94.4845 144.804 96.1546 148.546C97.8248 152.289 94.678 152.869 93.2032 150.472L93.205 150.47Z" fill="white"/>
<path d="M82.7585 139.873C83.4628 140.224 85.0451 139.348 83.7191 138.362C82.393 137.377 81.2569 137.307 79.7552 137.205C78.2535 137.103 78.3126 137.976 79.2373 138.339C80.1619 138.703 81.8858 139.448 82.7585 139.874V139.873Z" fill="white"/>
<path d="M183.641 222.116C183.753 222.116 183.857 222.062 183.923 221.971C184.288 221.432 184.871 221.081 185.516 221.007C185.709 221.007 185.867 220.85 185.867 220.656C185.867 220.463 185.709 220.305 185.516 220.305C184.652 220.386 183.867 220.844 183.374 221.557C183.26 221.715 183.294 221.935 183.452 222.05C183.507 222.091 183.573 222.113 183.641 222.116Z" fill="#6F46BE"/>
<path d="M154.475 227.594C154.572 227.594 154.665 227.553 154.731 227.481C155.152 226.983 155.769 226.695 156.419 226.693C156.613 226.708 156.781 226.562 156.796 226.369C156.81 226.179 156.67 226.011 156.478 225.993C155.611 225.973 154.78 226.344 154.213 227.003C154.081 227.146 154.09 227.369 154.231 227.501C154.297 227.562 154.383 227.596 154.473 227.594H154.475Z" fill="#6F46BE"/>
<path d="M152.728 225.869C152.821 225.866 152.911 225.826 152.974 225.756C153.393 225.26 154.009 224.972 154.658 224.968C154.852 224.984 155.024 224.841 155.04 224.646C155.056 224.45 154.912 224.28 154.717 224.264C153.85 224.25 153.022 224.621 152.456 225.278C152.325 225.421 152.334 225.643 152.477 225.774C152.545 225.837 152.635 225.871 152.726 225.869H152.728Z" fill="#6F46BE"/>
<path d="M150.989 224.148C151.087 224.148 151.182 224.105 151.249 224.031C151.666 223.531 152.283 223.245 152.933 223.247C153.127 223.261 153.295 223.116 153.309 222.922C153.326 222.731 153.184 222.56 152.992 222.543C152.125 222.528 151.295 222.899 150.727 223.556C150.596 223.7 150.605 223.922 150.749 224.053C150.813 224.114 150.899 224.148 150.987 224.148H150.989Z" fill="#6F46BE"/>
<path d="M149.264 221.973C149.362 221.973 149.457 221.93 149.524 221.856C149.943 221.362 150.56 221.074 151.208 221.072C151.402 221.088 151.572 220.945 151.588 220.749C151.588 220.749 151.588 220.749 151.588 220.748C151.602 220.556 151.459 220.388 151.267 220.371C150.4 220.352 149.569 220.723 149.002 221.382C148.87 221.525 148.879 221.747 149.02 221.88C149.087 221.941 149.173 221.975 149.262 221.973H149.264Z" fill="#6F46BE"/>
<path d="M181.795 220.477C181.908 220.477 182.014 220.423 182.08 220.332C182.444 219.793 183.025 219.44 183.67 219.368C183.863 219.368 184.021 219.211 184.021 219.017C184.021 218.824 183.863 218.666 183.67 218.666C182.804 218.743 182.019 219.202 181.528 219.918C181.415 220.074 181.448 220.293 181.602 220.407C181.657 220.45 181.725 220.474 181.795 220.477Z" fill="#6F46BE"/>
<path d="M179.786 218.548C179.899 218.548 180.004 218.494 180.071 218.403C180.434 217.864 181.015 217.511 181.66 217.439C181.854 217.439 182.011 217.281 182.011 217.088C182.011 216.894 181.854 216.737 181.66 216.737C180.795 216.814 180.008 217.272 179.515 217.989C179.4 218.147 179.434 218.367 179.592 218.482C179.653 218.526 179.727 218.55 179.8 218.55H179.786V218.548Z" fill="#6F46BE"/>
<path d="M183.577 216.771C184.043 216.803 184.507 216.679 184.896 216.42C185.256 216.117 185.459 215.669 185.448 215.198C185.504 214.682 185.281 214.175 184.864 213.867C183.457 212.846 179.939 214.127 179.559 214.275C178.819 214.532 178.14 214.938 177.565 215.468C177.459 215.58 177.436 215.746 177.509 215.88C177.583 216.017 177.735 216.088 177.886 216.06C178.723 215.895 179.92 216.151 181.079 216.411C181.898 216.611 182.735 216.731 183.577 216.769V216.771ZM183.341 214.173C183.731 214.146 184.12 214.238 184.459 214.433C184.685 214.603 184.796 214.886 184.751 215.166C184.769 215.433 184.665 215.691 184.466 215.87C183.918 216.292 182.552 216.004 181.23 215.721C180.479 215.544 179.717 215.413 178.95 215.334C179.223 215.184 179.508 215.056 179.801 214.954C180.932 214.515 182.122 214.252 183.333 214.173H183.341Z" fill="#6F46BE"/>
<path d="M117.272 142.798C117.272 142.798 113.301 139.661 112.348 137.465C110.788 133.854 106.853 133.689 107.423 136.233C107.993 138.776 115.141 142.47 117.272 142.796V142.798Z" fill="#6F46BE"/>
<path d="M177.816 216.067C177.929 216.067 178.035 216.013 178.101 215.922C178.805 214.978 180.166 214.564 182.02 214.232C183.73 213.93 183.843 213.211 183.814 212.919C183.744 212.215 182.759 211.775 181.397 211.81H181.348C179.515 212.124 178.298 212.866 177.479 215.605C177.431 215.768 177.506 215.943 177.659 216.02C177.707 216.047 177.761 216.063 177.816 216.067ZM181.556 212.514C182.612 212.514 183.101 212.849 183.115 212.989C183.115 213.041 182.932 213.34 181.898 213.539C180.576 213.779 179.469 214.06 178.626 214.549C179.288 213.163 180.157 212.74 181.44 212.514H181.556Z" fill="#6F46BE"/>
<path d="M155.369 224.939C155.526 224.939 155.682 224.918 155.833 224.873C156.184 224.753 156.797 224.381 156.663 223.202C156.424 221.115 152.717 220.452 151.475 220.287C151.448 220.223 151.405 220.167 151.347 220.126C151.045 219.9 150.745 220.21 150.43 220.538C150.322 220.649 150.301 220.817 150.378 220.954C151.747 223.41 153.973 224.941 155.369 224.941V224.939ZM151.197 220.963C152.604 221.124 155.795 221.805 155.964 223.282C156.023 223.8 155.908 224.11 155.612 224.201C154.761 224.479 152.605 223.241 151.199 220.963H151.197Z" fill="#6F46BE"/>
<path d="M155.026 221.747C155.424 221.762 155.808 221.604 156.082 221.314C156.447 220.871 156.514 220.255 156.254 219.744C155.901 219.055 155.173 218.639 154.401 218.689H154.345C152.872 218.591 150.776 219.608 149.842 220.86C149.727 221.016 149.76 221.237 149.916 221.353C150.041 221.446 150.213 221.444 150.338 221.35C150.978 220.853 152.175 220.937 154.207 221.62C154.471 221.708 154.749 221.751 155.026 221.747ZM154.408 219.379C154.91 219.338 155.386 219.598 155.625 220.04C155.761 220.296 155.738 220.61 155.566 220.843C155.361 221.072 154.956 221.106 154.455 220.938C153.494 220.568 152.48 220.359 151.451 220.318C152.342 219.716 153.474 219.315 154.322 219.377H154.41L154.408 219.379Z" fill="#6F46BE"/>
</g>
<mask id="mask4_270_35240" style="mask-type:luminance" maskUnits="userSpaceOnUse" x="143" y="135" width="18" height="6">
<path d="M160.103 135.586H143.975V140.423H160.103V135.586Z" fill="white"/>
</mask>
<g mask="url(#mask4_270_35240)">
<mask id="mask5_270_35240" style="mask-type:luminance" maskUnits="userSpaceOnUse" x="131" y="116" width="43" height="28">
<path d="M173.184 116.418H131.072V143.11H173.184V116.418Z" fill="white"/>
</mask>
<g mask="url(#mask5_270_35240)">
<path d="M148.818 117.684C144.273 118.19 141.465 117.595 136.962 119.807C131.34 122.571 128.448 134.656 134.233 140.635C140.017 146.615 151.834 139.729 155.461 140.8C159.088 141.873 168.537 143.623 171.515 139.686C174.979 135.107 172.898 123.847 166.625 119.021C160.55 114.349 152.16 117.312 148.818 117.683V117.684Z" fill="#EDE3FF"/>
</g>
</g>
<mask id="mask6_270_35240" style="mask-type:luminance" maskUnits="userSpaceOnUse" x="159" y="44" width="36" height="1">
<path d="M194.33 44.0468H159.744V44.7633H194.33V44.0468Z" fill="white"/>
</mask>
<g mask="url(#mask6_270_35240)">
<mask id="mask7_270_35240" style="mask-type:luminance" maskUnits="userSpaceOnUse" x="79" y="44" width="116" height="1">
<path d="M194.33 44.0468H79.6426V44.7633H194.33V44.0468Z" fill="white"/>
</mask>
<g mask="url(#mask7_270_35240)">
<path d="M181.222 44.7633H79.9651C79.7716 44.7633 79.6426 44.62 79.6426 44.405C79.6426 44.1901 79.7716 44.0468 79.9651 44.0468H181.222C181.415 44.0468 181.544 44.1901 181.544 44.405C181.544 44.62 181.383 44.7633 181.222 44.7633Z" fill="#6F46BE"/>
<path d="M194.009 44.7633H186.26C186.067 44.7633 185.938 44.62 185.938 44.405C185.938 44.1901 186.067 44.0468 186.26 44.0468H194.009C194.202 44.0468 194.331 44.1901 194.331 44.405C194.331 44.62 194.17 44.7633 194.009 44.7633Z" fill="#6F46BE"/>
</g>
</g>
<mask id="mask8_270_35240" style="mask-type:luminance" maskUnits="userSpaceOnUse" x="154" y="37" width="51" height="32">
<path d="M204.185 37.0604H154.547V68.7677H204.185V37.0604Z" fill="white"/>
</mask>
<g mask="url(#mask8_270_35240)">
<path d="M159.278 37.3255H199.457C201.922 37.3255 203.92 39.3229 203.92 41.786V54.8595C203.92 57.3226 201.922 59.32 199.457 59.32H194.518C195.941 62.7325 199.311 67.3776 203.105 68.499C196.071 67.3382 188.063 64.7246 185.613 59.32H159.276C156.811 59.32 154.812 57.3226 154.812 54.8595V41.786C154.812 39.3229 156.811 37.3255 159.276 37.3255H159.278Z" fill="white" stroke="#6F46BE" stroke-width="2.97" stroke-linecap="round" stroke-linejoin="round"/>
</g>
<mask id="mask9_270_35240" style="mask-type:luminance" maskUnits="userSpaceOnUse" x="157" y="135" width="19" height="15">
<path d="M161.814 135.375L157.99 142.063L171.526 149.797L175.349 143.109L161.814 135.375Z" fill="white"/>
</mask>
<g mask="url(#mask9_270_35240)">
<mask id="mask10_270_35240" style="mask-type:luminance" maskUnits="userSpaceOnUse" x="144" y="109" width="55" height="49">
<path d="M159.082 109.469L144.588 134.82L184.417 157.576L198.911 132.226L159.082 109.469Z" fill="white"/>
</mask>
<g mask="url(#mask10_270_35240)">
<path d="M175.179 120.264C170.606 118.288 168.273 116.205 162.815 115.874C155.998 115.462 146.699 125.375 148.921 134.181C151.145 142.986 166.062 142.832 168.909 145.809C171.757 148.786 179.742 155.556 184.698 153.426C190.461 150.949 194.608 139.131 191.295 131.158C188.087 123.437 178.541 121.717 175.179 120.264Z" fill="#EDE3FF"/>
</g>
</g>
<mask id="mask11_270_35240" style="mask-type:luminance" maskUnits="userSpaceOnUse" x="136" y="112" width="38" height="28">
<path d="M173.543 112.477H136.27V139.885H173.543V112.477Z" fill="white"/>
</mask>
<g mask="url(#mask11_270_35240)">
<mask id="mask12_270_35240" style="mask-type:luminance" maskUnits="userSpaceOnUse" x="134" y="112" width="40" height="30">
<path d="M173.543 112.477H134.836V141.497H173.543V112.477Z" fill="white"/>
</mask>
<g mask="url(#mask12_270_35240)">
<path d="M138.596 139.631C137.969 140.525 134.281 141.092 134.91 137.596C135.528 134.162 135.566 131.973 136.187 131.643C136.809 131.312 149.617 124.68 152.566 120.463C154.557 118.254 158.514 114.163 160.014 114.062C161.514 113.964 160.138 116.146 160.138 116.146L158.761 118.131L162.154 122.373C162.154 122.373 169.479 123.116 171.617 124.257C173.755 125.398 173.707 126.068 172.035 126.142C170.363 126.217 166.725 124.976 166.725 124.976L165.005 125.968C165.005 125.968 167.365 126.391 167.046 127.482C166.727 128.573 163.433 128.225 163.433 128.225C163.433 128.225 164.662 128.87 164.417 129.714C164.171 130.557 162.524 131.003 161.541 130.631C161.639 131.077 161.27 132.318 159.378 132.094C157.263 131.672 156.55 131.127 156.55 131.127L154.018 131.45L138.598 139.627L138.596 139.631Z" fill="#EDE3FF"/>
<path d="M135.433 132.517C135.338 132.517 135.245 132.467 135.195 132.377C135.119 132.245 135.164 132.075 135.297 131.998L147.292 125.035C147.301 125.026 150.38 122.838 153.512 119.141C156.709 115.368 159.077 114.222 159.177 114.175C159.335 114.091 160.207 113.654 160.768 113.869C160.924 113.928 161.035 114.055 161.084 114.227C161.315 115.069 159.879 117.081 159.003 118.204C158.91 118.326 158.736 118.346 158.616 118.251C158.496 118.156 158.476 117.982 158.569 117.86C160.419 115.488 160.623 114.521 160.55 114.369C160.326 114.295 159.75 114.498 159.422 114.673C159.388 114.689 157.043 115.832 153.932 119.503C150.751 123.258 147.619 125.481 147.588 125.504L135.573 132.48C135.53 132.505 135.483 132.517 135.437 132.517H135.433Z" fill="#6F46BE"/>
<path d="M172.688 121.541L158.82 129.622C158.678 129.705 158.499 129.656 158.418 129.513L153.707 121.276C153.626 121.135 153.675 120.952 153.815 120.871L167.683 112.791C167.824 112.708 168.004 112.757 168.084 112.9L172.795 121.137C172.876 121.278 172.828 121.461 172.688 121.541Z" fill="#EDE3FF"/>
<path d="M170.312 121.708L160.25 127.569C160.108 127.652 159.929 127.603 159.848 127.46L156.096 120.9C156.015 120.759 156.063 120.576 156.203 120.495L166.265 114.632C166.407 114.55 166.586 114.598 166.667 114.741L170.419 121.301C170.5 121.443 170.451 121.626 170.312 121.708Z" fill="white"/>
<path d="M158.105 130.271C157.906 130.271 157.713 130.167 157.605 129.981L152.899 121.755C152.822 121.62 152.803 121.464 152.842 121.314C152.881 121.163 152.976 121.04 153.111 120.961L167.54 112.554C167.673 112.477 167.827 112.457 167.975 112.497C168.124 112.536 168.248 112.633 168.325 112.767L173.031 120.993C173.188 121.271 173.093 121.626 172.821 121.787L158.392 130.194C158.302 130.246 158.202 130.271 158.105 130.271ZM167.848 113.045L153.385 121.443L158.082 129.703L172.545 121.305C172.558 121.298 172.561 121.282 172.554 121.271L167.848 113.045Z" fill="#6F46BE"/>
<path d="M160.106 127.888C160.056 127.888 160.005 127.881 159.957 127.869C159.81 127.829 159.686 127.732 159.611 127.6L155.859 121.042C155.703 120.768 155.796 120.415 156.067 120.257L166.129 114.394C166.399 114.236 166.749 114.329 166.906 114.603L170.659 121.163C170.815 121.438 170.722 121.79 170.451 121.948L160.389 127.811C160.301 127.863 160.204 127.888 160.106 127.888ZM166.43 114.881L156.343 120.737L160.088 127.322L170.175 121.466C170.184 121.461 170.188 121.448 170.182 121.439L166.43 114.879V114.881Z" fill="#6F46BE"/>
<path d="M169.957 118.785L168.414 116.089C168.333 115.947 168.382 115.764 168.522 115.684C168.663 115.601 168.842 115.65 168.923 115.793L170.466 118.489C170.547 118.63 170.498 118.813 170.358 118.894C170.217 118.976 170.038 118.928 169.957 118.785Z" fill="#6F46BE"/>
<path d="M156.793 125.977C156.289 125.977 155.879 125.563 155.879 125.054C155.879 124.546 156.289 124.132 156.793 124.132C157.296 124.132 157.707 124.546 157.707 125.054C157.707 125.563 157.296 125.977 156.793 125.977ZM156.793 124.687C156.592 124.687 156.429 124.852 156.429 125.054C156.429 125.257 156.592 125.422 156.793 125.422C156.994 125.422 157.157 125.257 157.157 125.054C157.157 124.852 156.994 124.687 156.793 124.687Z" fill="#6F46BE"/>
<path d="M164.057 127.596C164.057 127.596 161.77 127.349 161.562 126.468C161.562 125.984 162.226 125.687 163.442 125.86C164.659 126.034 165.741 126.269 165.741 126.269L164.279 127.621L164.059 127.596H164.057Z" fill="#EDE3FF"/>
<path d="M161.907 129.556C161.907 129.556 159.62 129.309 159.412 128.428C159.412 127.944 160.075 127.646 161.292 127.82C162.509 127.994 163.591 128.229 163.591 128.229L162.129 129.581L161.908 129.556H161.907Z" fill="#EDE3FF"/>
<path d="M153.77 129.076C153.678 129.076 153.587 129.029 153.535 128.945C151.895 126.276 152.298 123.388 152.316 123.267C152.34 123.114 152.477 123.012 152.628 123.032C152.779 123.055 152.882 123.197 152.859 123.347C152.856 123.376 152.47 126.16 154.001 128.65C154.081 128.78 154.042 128.951 153.911 129.033C153.866 129.062 153.816 129.074 153.766 129.074L153.77 129.076Z" fill="#6F46BE"/>
<path d="M172.09 126.423C171.409 126.423 170.655 126.283 170.23 126.192C169.316 125.995 166.816 125.323 166.711 125.296C166.564 125.257 166.476 125.104 166.515 124.956C166.555 124.807 166.703 124.721 166.852 124.759C166.877 124.766 169.445 125.454 170.347 125.649C171.615 125.923 172.741 125.939 172.966 125.69C172.981 125.674 173.017 125.635 172.975 125.508C172.782 124.884 170.716 124.159 169.311 123.843C169.162 123.809 169.069 123.662 169.101 123.512C169.135 123.361 169.284 123.272 169.429 123.301C170.046 123.439 173.142 124.187 173.499 125.341C173.61 125.699 173.49 125.932 173.37 126.065C173.124 126.333 172.63 126.423 172.088 126.423H172.09Z" fill="#6F46BE"/>
<path d="M165.232 128.608C164.4 128.608 163.291 128.451 161.812 128.205C161.662 128.18 161.562 128.039 161.585 127.887C161.61 127.736 161.753 127.63 161.9 127.657C165.201 128.202 166.366 128.241 166.76 127.392C166.825 127.254 166.796 127.166 166.766 127.105C166.559 126.706 165.57 126.396 164.997 126.294C163.925 126.09 162.252 125.945 161.881 126.256C161.845 126.285 161.845 126.303 161.845 126.319C161.845 126.805 163.185 127.191 164.092 127.301C164.242 127.319 164.35 127.457 164.332 127.609C164.314 127.761 164.178 127.867 164.026 127.852C163.569 127.797 161.291 127.467 161.291 126.319C161.291 126.127 161.372 125.957 161.526 125.828C162.23 125.241 164.621 125.658 165.092 125.748C165.267 125.778 166.853 126.075 167.251 126.848C167.377 127.093 167.378 127.362 167.257 127.627C166.927 128.334 166.319 128.608 165.228 128.608H165.232Z" fill="#6F46BE"/>
<path d="M162.585 130.969C162.399 130.969 162.196 130.957 161.976 130.928C160.317 130.708 158.885 129.87 158.824 129.834C158.693 129.757 158.648 129.586 158.725 129.454C158.802 129.321 158.971 129.277 159.102 129.354C159.116 129.363 160.501 130.172 162.046 130.376C162.838 130.482 163.521 130.355 163.922 130.031C164.091 129.895 164.198 129.728 164.211 129.585C164.248 129.169 163.752 128.408 161.655 128.2C160.094 128.046 159.748 128.279 159.693 128.331C159.693 128.334 159.693 128.338 159.693 128.34C159.731 128.415 160.024 128.84 162.001 129.375C162.148 129.415 162.236 129.567 162.195 129.715C162.155 129.864 162.006 129.954 161.858 129.911C160.274 129.481 159.401 129.04 159.188 128.562C159.127 128.424 159.132 128.311 159.148 128.239C159.157 128.164 159.189 128.053 159.297 127.944C159.619 127.614 160.408 127.517 161.709 127.646C164.755 127.949 164.784 129.355 164.759 129.635C164.732 129.936 164.556 130.23 164.266 130.464C164.013 130.668 163.487 130.969 162.583 130.969H162.585Z" fill="#6F46BE"/>
<path d="M159.836 132.408C159.308 132.408 158.874 132.302 158.84 132.293C157.949 132.028 155.896 131.335 155.801 130.581C155.785 130.45 155.806 130.199 156.136 129.999C157.367 129.255 159.399 130.393 159.485 130.441C159.618 130.516 159.664 130.685 159.591 130.819C159.517 130.953 159.349 131 159.216 130.925C158.707 130.636 157.211 129.993 156.421 130.475C156.36 130.513 156.345 130.536 156.345 130.536C156.414 130.772 157.646 131.356 158.987 131.756C159.347 131.845 160.429 131.987 160.958 131.544C161.205 131.337 161.313 131.02 161.288 130.575C161.279 130.421 161.395 130.291 161.548 130.282C161.705 130.282 161.831 130.389 161.838 130.543C161.874 131.168 161.696 131.648 161.308 131.973C160.897 132.315 160.325 132.406 159.836 132.406V132.408Z" fill="#6F46BE"/>
<path d="M136.22 141.497C136.123 141.497 136.028 141.445 135.978 141.354C135.904 141.22 135.953 141.051 136.085 140.976C136.772 140.594 152.88 131.618 154.098 131.152C155.376 130.663 157.01 131.059 157.08 131.075C157.227 131.111 157.319 131.261 157.283 131.41C157.247 131.559 157.096 131.65 156.949 131.614C156.935 131.611 155.41 131.245 154.294 131.67C153.113 132.119 136.521 141.367 136.352 141.46C136.311 141.483 136.264 141.494 136.22 141.494V141.497Z" fill="#6F46BE"/>
</g>
</g>
<mask id="mask13_270_35240" style="mask-type:luminance" maskUnits="userSpaceOnUse" x="126" y="70" width="5" height="6">
<path d="M130.535 70.9173H126.234V75.2166H130.535V70.9173Z" fill="white"/>
</mask>
<g mask="url(#mask13_270_35240)">
<path d="M128.385 75.2166C129.572 75.2166 130.535 74.2542 130.535 73.067C130.535 71.8798 129.572 70.9173 128.385 70.9173C127.197 70.9173 126.234 71.8798 126.234 73.067C126.234 74.2542 127.197 75.2166 128.385 75.2166Z" fill="#EDE3FF"/>
</g>
<mask id="mask14_270_35240" style="mask-type:luminance" maskUnits="userSpaceOnUse" x="154" y="72" width="45" height="37">
<path d="M198.989 72.5296H154.906V108.894H198.989V72.5296Z" fill="white"/>
</mask>
<g mask="url(#mask14_270_35240)">
<path d="M193.141 72.7481H160.757C157.648 72.7481 155.127 75.265 155.127 78.3712V95.7511C155.127 98.8573 157.648 101.374 160.757 101.374H162.766C161.535 104.156 158.831 107.78 155.799 108.676C161.483 107.737 167.94 105.652 170.096 101.374H193.141C196.25 101.374 198.771 98.8573 198.771 95.7511V78.3712C198.771 75.265 196.25 72.7481 193.141 72.7481Z" fill="white" stroke="#6F46BE" stroke-width="2.45" stroke-linecap="round" stroke-linejoin="round"/>
</g>
</g>
<defs>
<clipPath id="clip0_270_35240">
<rect width="272" height="272" fill="white" transform="translate(0 -16)"/>
</clipPath>
</defs>
</svg>
