<svg width="47" height="52" viewBox="0 0 47 52" fill="none" xmlns="http://www.w3.org/2000/svg">
<path d="M10.9704 40.34H6.35913V32.2341H8.66475H34.0174H35.1201H43.2308V40.34H20.1837H15.5816H10.9704Z" fill="#EDE3FF"/>
<path d="M7.46182 33.4272H9.76744H35.1201H36.2319H43.2308V32.2341H35.1201H34.0174H8.66475H6.35913V40.34H7.46182V33.4272Z" fill="#EDE3FF"/>
<path d="M23.3186 6.89651C24.1479 5.60322 25.6242 4.77441 27.2828 4.77441C36.1316 4.77441 30.2355 20.7129 25.442 20.7129C24.6127 20.7129 23.9656 20.5308 23.3186 20.1573H23.1364C22.4893 20.4306 21.7512 20.7129 21.013 20.7129C16.1284 20.7129 10.3233 4.77441 19.1722 4.77441C20.9219 4.77441 22.4893 5.78537 23.3186 7.26082C23.1364 7.07866 23.2275 6.98759 23.3186 6.89651Z" fill="#EDE3FF"/>
<path d="M20.1837 5.60323C21.013 5.60323 21.7511 5.78538 22.3981 6.1588C21.5689 5.23892 20.3659 4.68335 18.9898 4.68335C10.9703 4.68335 15.0256 17.8622 19.5457 20.2575C15.5815 16.5689 12.8203 5.61234 20.1928 5.61234L20.1837 5.60323Z" fill="#EDE3FF"/>
<path d="M24.7949 25.3213H22.4893V27.6255H24.7949V25.3213Z" fill="#6F46BE"/>
<path d="M21.2954 25.3213H18.9898V27.6255H21.2954V25.3213Z" fill="#6F46BE"/>
<path d="M17.8873 25.3213H15.5817V27.6255H17.8873V25.3213Z" fill="#6F46BE"/>
<path d="M14.3787 25.3213H12.0731V27.6255H14.3787V25.3213Z" fill="#6F46BE"/>
<path d="M45.5382 51.2055H5.80505C2.67014 51.2055 0 48.628 0 45.4039C0 43.8374 0.647031 42.453 1.65859 41.351C2.76127 40.2489 4.14647 39.6934 5.71392 39.6934H6.26982C6.54321 39.6934 6.82572 39.9666 6.82572 40.2489C6.82572 40.5313 6.55233 40.8045 6.26982 40.8045H5.71392C4.5201 40.8045 3.31717 41.269 2.48788 42.1889C1.65859 43.1087 1.10269 44.2108 1.10269 45.413C1.10269 47.9905 3.13491 50.0215 5.71392 50.0215H44.8912V40.8045H43.1415C42.8681 40.8045 42.5856 40.5313 42.5856 40.2489C42.5856 39.9666 42.859 39.6934 43.1415 39.6934H45.4471C45.7205 39.6934 46.003 39.9666 46.003 40.2489V50.659C46.0941 50.9323 45.8207 51.2146 45.5382 51.2146V51.2055Z" fill="#6F46BE"/>
<path d="M35.1201 32.7807C34.8467 32.7807 34.5642 32.5074 34.5642 32.2251C34.5642 31.9428 34.8376 31.6695 35.1201 31.6695C37.9816 31.6695 40.2781 29.3653 40.2781 26.5054C40.2781 25.1211 39.7222 23.8369 38.8018 22.8168C37.7902 21.8059 36.4962 21.3414 35.111 21.3414H9.22063V32.3071C9.22063 32.5803 8.94723 32.8626 8.66473 32.8626C8.38222 32.8626 8.10883 32.5894 8.10883 32.3071V20.6947C8.10883 20.4215 8.38222 20.1392 8.66473 20.1392H35.2112C36.8698 20.1392 38.5284 20.7858 39.7313 21.9789C40.9251 23.1811 41.5722 24.7477 41.5722 26.4963C41.481 29.9026 38.6195 32.7624 35.1201 32.7624V32.7807Z" fill="#6F46BE"/>
<path d="M43.2307 40.8864H6.35906C6.08567 40.8864 5.80316 40.6132 5.80316 40.3309V32.225C5.80316 31.9518 6.07656 31.6694 6.35906 31.6694H43.2307C43.5041 31.6694 43.7866 31.9427 43.7866 32.225V40.3309C43.7866 40.6041 43.5132 40.8864 43.2307 40.8864ZM6.90585 39.6933H42.6748V32.7806H6.91496V39.6933H6.90585Z" fill="#6F46BE"/>
<path d="M10.9704 40.8866C10.697 40.8866 10.4145 40.6134 10.4145 40.3311V35.7226C10.4145 35.4493 10.6879 35.167 10.9704 35.167C11.2529 35.167 11.5263 35.4402 11.5263 35.7226V40.3311C11.5263 40.6043 11.2529 40.8866 10.9704 40.8866Z" fill="#6F46BE"/>
<path d="M15.5817 40.8866C15.3083 40.8866 15.0258 40.6134 15.0258 40.3311V35.7226C15.0258 35.4493 15.2992 35.167 15.5817 35.167C15.8642 35.167 16.1376 35.4402 16.1376 35.7226V40.3311C16.1376 40.6043 15.8642 40.8866 15.5817 40.8866Z" fill="#6F46BE"/>
<path d="M20.1837 40.8866C19.9103 40.8866 19.6278 40.6134 19.6278 40.3311V35.7226C19.6278 35.4493 19.9012 35.167 20.1837 35.167C20.4662 35.167 20.7396 35.4402 20.7396 35.7226V40.3311C20.7396 40.6043 20.4662 40.8866 20.1837 40.8866Z" fill="#6F46BE"/>
<path d="M45.5364 47.7991H8.66473C8.39133 47.7991 8.10883 47.5259 8.10883 47.2436C8.10883 46.9612 8.38222 46.688 8.66473 46.688H45.5364C45.8098 46.688 46.0923 46.9612 46.0923 47.2436C46.0923 47.5259 45.8189 47.7991 45.5364 47.7991Z" fill="#6F46BE"/>
<path d="M45.5364 44.3018H8.66473C8.39133 44.3018 8.10883 44.0286 8.10883 43.7462C8.10883 43.4639 8.38222 43.1907 8.66473 43.1907H45.5364C45.8098 43.1907 46.0923 43.4639 46.0923 43.7462C46.0923 44.0286 45.8189 44.3018 45.5364 44.3018Z" fill="#6F46BE"/>
<path d="M34.0173 32.7807C33.7439 32.7807 33.4614 32.5075 33.4614 32.2252V24.1193C33.4614 23.8461 33.7348 23.5637 34.0173 23.5637C34.2998 23.5637 34.5732 23.837 34.5732 24.1193V32.2252C34.5732 32.4984 34.2998 32.7807 34.0173 32.7807Z" fill="#6F46BE"/>
<path d="M25.3508 21.2686C24.6127 21.2686 23.7834 21.0864 23.1363 20.713C22.3982 21.0773 21.66 21.2686 20.9219 21.2686C19.2633 21.2686 17.5136 19.7931 16.0372 17.3067C14.652 14.9114 13.9139 12.1426 13.9139 9.84749C13.9139 8.18988 14.2784 6.89659 15.1168 5.88563C16.0372 4.7836 17.3313 4.22803 19.081 4.22803C20.7396 4.22803 22.2159 4.96575 23.2275 6.25905C24.239 4.96575 25.7154 4.22803 27.3739 4.22803C29.1237 4.22803 30.4177 4.7836 31.3381 5.88563C32.0763 6.89659 32.532 8.18988 32.532 9.84749C32.532 12.1517 31.7027 15.0024 30.4086 17.3067C28.75 19.8842 27.0003 21.2686 25.3417 21.2686H25.3508ZM22.9541 19.611H23.1363C23.2275 19.611 23.3186 19.611 23.4097 19.702C24.0568 19.9753 24.7038 20.1665 25.2506 20.1665C26.4444 20.1665 27.9207 18.8732 29.1237 16.7602C30.3175 14.6381 31.1559 11.9696 31.1559 9.84749C31.1559 8.46311 30.8825 7.36108 30.2355 6.62336C29.5884 5.79455 28.5769 5.33006 27.1917 5.33006C25.8065 5.33006 24.5215 6.06778 23.7834 7.16982C23.6922 7.2609 23.6922 7.35197 23.6011 7.44305C23.51 7.6252 23.3277 7.71628 23.0452 7.71628C22.863 7.71628 22.6807 7.6252 22.4893 7.44305C21.7512 6.14975 20.366 5.32095 18.8987 5.32095C17.5136 5.32095 16.502 5.78545 15.855 6.61425C15.2991 7.35197 14.9345 8.45401 14.9345 9.83838C14.9345 14.3558 18.2517 20.1574 20.8307 20.1574C21.4778 20.1574 22.1248 19.9753 22.6716 19.6929C22.7627 19.6018 22.8538 19.6018 22.945 19.6018L22.9541 19.611Z" fill="#6F46BE"/>
<path d="M23.3186 7.443C23.0452 7.443 22.8539 7.26085 22.7627 6.97851C21.5689 2.18785 23.7743 0.803479 23.8654 0.712402L24.5124 1.72336C24.5124 1.72336 22.945 2.82539 23.9565 6.78725C24.0477 7.06048 23.8654 7.43389 23.4918 7.52497C23.4006 7.43389 23.3095 7.43389 23.3095 7.43389L23.3186 7.443Z" fill="#6F46BE"/>
<path d="M24.8861 17.8622C24.7038 17.8622 24.5215 17.7711 24.4213 17.5889C24.239 17.3157 24.3302 16.9423 24.6036 16.7601C26.171 15.6581 26.6358 13.6271 26.7269 13.6271C26.818 13.3539 27.0914 13.1626 27.4651 13.1626C27.7385 13.2537 27.9298 13.5269 27.9298 13.9003C27.9298 13.9914 27.2828 16.3867 25.442 17.68C25.0774 17.7711 24.9772 17.8622 24.8861 17.8622Z" fill="#6F46BE"/>
</svg>
