<svg width="277" height="221" viewBox="0 0 277 221" fill="none" xmlns="http://www.w3.org/2000/svg">
<path d="M213.047 12.9923C158.926 -0.731017 195.788 75.1193 155.202 91.3851C114.614 107.649 102.401 48.3385 54.2451 68.6197C16.404 84.5585 27.4173 149.367 33.8716 176.397C36.5271 187.517 43.4117 197.229 53.194 203.149C99.6575 231.266 141.802 135.971 194.643 133.123C253.533 129.947 267.168 26.7157 213.047 12.9923Z" fill="#F3F5F7"/>
<g clip-path="url(#clip0_609_1040)">
<path d="M216.829 143.056C171.769 136.673 141.293 169.287 130.97 182.481C127.365 187.092 125.447 192.847 125.826 198.687C127.935 231.397 194.876 213.367 225.718 207.919C259.52 201.952 273.041 151.021 216.826 143.056H216.829Z" fill="#F3F5F7"/>
<path d="M179.663 157.97C183.503 154.412 186.163 148.216 186.163 148.216C186.902 147.688 187.502 146.987 187.909 146.175C188.831 144.482 189.588 142.637 188.739 141.899C187.638 140.947 186.854 141.443 186.854 141.443C186.854 141.443 187.543 139.8 186.263 138.809C184.984 137.818 184.059 138.662 184.059 138.662C184.214 138.244 184.227 137.786 184.097 137.361C183.965 136.934 183.698 136.563 183.336 136.304C181.858 135.186 180.889 135.994 180.889 135.994C180.889 135.994 180.838 134.95 180.105 134.381C179.311 133.767 178.696 133.314 176.918 135.465C175.139 137.618 174.205 140.959 171.83 140.703C170.228 140.532 166.871 134.056 164.443 136.958C163.974 137.518 166.248 140.007 167.238 142.487C168.591 145.865 167.185 147.305 166.647 151.675C165.888 157.867 143.359 179.268 143.359 179.268L133.375 161.945L119.136 168.904L130.893 197.918L150.297 198.721C150.297 198.721 158.056 189.055 165.121 179.104C172.186 169.152 177.176 160.273 179.664 157.97H179.663Z" fill="white"/>
<path d="M150.296 199.099H150.279L130.879 198.3C130.807 198.296 130.74 198.271 130.68 198.231C130.622 198.189 130.577 198.133 130.55 198.066L118.797 169.043C118.762 168.957 118.761 168.861 118.793 168.774C118.826 168.686 118.89 168.615 118.974 168.574L133.212 161.609C133.296 161.569 133.393 161.561 133.482 161.588C133.572 161.615 133.647 161.676 133.694 161.757L143.444 178.688C146.263 175.978 165.605 157.227 166.281 151.639C166.438 150.436 166.667 149.242 166.966 148.065C167.442 146.096 167.758 144.792 166.892 142.631C166.407 141.528 165.82 140.471 165.143 139.474C164.257 138.078 163.722 137.235 164.16 136.728C164.364 136.465 164.624 136.25 164.92 136.097C165.217 135.944 165.543 135.858 165.876 135.843C167.333 135.823 168.739 137.348 169.975 138.689C170.675 139.453 171.467 140.313 171.877 140.358C173.299 140.509 174.17 139.084 175.171 137.436C175.611 136.674 176.105 135.945 176.648 135.254C178.52 132.987 179.361 133.352 180.346 134.113C180.766 134.458 181.06 134.933 181.185 135.463C181.69 135.294 182.535 135.239 183.575 136.03C183.893 136.258 184.15 136.562 184.323 136.912C184.496 137.264 184.58 137.651 184.568 138.044C184.906 137.971 185.256 137.978 185.591 138.062C185.927 138.147 186.238 138.307 186.503 138.529C186.86 138.813 187.131 139.191 187.288 139.619C187.444 140.046 187.48 140.51 187.389 140.956C187.993 140.971 188.569 141.212 189.003 141.631C190.119 142.599 189.109 144.796 188.255 146.35C187.83 147.176 187.224 147.897 186.482 148.457C186.11 149.305 183.56 154.872 179.923 158.239C178.56 159.498 176.329 162.933 173.508 167.286C171.292 170.7 168.536 174.952 165.43 179.325C158.44 189.173 150.657 198.863 150.592 198.96C150.556 199.004 150.512 199.04 150.46 199.063C150.408 199.088 150.353 199.1 150.296 199.099ZM131.147 197.568L150.125 198.353C151.12 197.106 158.309 188.07 164.819 178.891C167.915 174.528 170.668 170.285 172.879 166.875C175.834 162.311 177.981 159.011 179.412 157.687C183.156 154.226 185.812 148.119 185.838 148.057C185.869 147.987 185.92 147.929 185.986 147.889C186.667 147.391 187.22 146.74 187.6 145.987C189.011 143.398 188.876 142.481 188.513 142.154C187.653 141.41 187.082 141.72 187.059 141.735C186.991 141.773 186.913 141.789 186.836 141.781C186.758 141.774 186.685 141.742 186.628 141.69C186.568 141.64 186.528 141.573 186.511 141.498C186.492 141.425 186.498 141.346 186.527 141.275C186.55 141.219 187.085 139.88 186.042 139.081C184.999 138.282 184.308 138.913 184.299 138.919C184.236 138.972 184.156 139.003 184.075 139.006C183.992 139.009 183.911 138.985 183.843 138.936C183.777 138.887 183.729 138.818 183.707 138.738C183.683 138.658 183.688 138.574 183.72 138.497C183.842 138.156 183.849 137.783 183.74 137.437C183.631 137.091 183.411 136.79 183.114 136.581C181.914 135.669 181.155 136.241 181.125 136.265C181.073 136.305 181.01 136.33 180.943 136.337C180.878 136.344 180.81 136.333 180.75 136.306C180.689 136.279 180.638 136.235 180.599 136.181C180.561 136.127 180.539 136.063 180.534 135.997C180.534 135.997 180.475 135.113 179.89 134.658C179.173 134.103 178.776 133.797 177.216 135.687C176.698 136.351 176.226 137.05 175.807 137.781C174.77 139.491 173.694 141.26 171.801 141.057C171.112 140.983 170.37 140.172 169.436 139.151C168.361 137.972 167.017 136.53 165.891 136.545C165.666 136.558 165.448 136.621 165.25 136.727C165.053 136.833 164.88 136.98 164.745 137.158C164.745 137.436 165.335 138.367 165.772 139.054C166.472 140.093 167.077 141.191 167.581 142.337C168.532 144.714 168.172 146.169 167.691 148.216C167.392 149.364 167.168 150.529 167.017 151.704C166.248 157.965 144.54 178.644 143.619 179.523C143.578 179.561 143.529 179.589 143.475 179.607C143.42 179.624 143.364 179.627 143.308 179.62C143.253 179.611 143.2 179.592 143.154 179.561C143.107 179.529 143.069 179.489 143.042 179.439L133.233 162.4L119.618 169.06L131.147 197.568Z" fill="#553597"/>
<path d="M184.872 149.094C184.661 149.102 184.454 149.04 184.28 148.921C183.504 148.372 183.986 146.603 184.739 144.819C183.775 145.916 182.715 146.909 181.926 147.054C181.794 147.083 181.658 147.085 181.525 147.059C181.391 147.034 181.266 146.981 181.155 146.903C180.333 146.314 180.673 144.716 181.358 143.02C179.934 144.712 178.374 146.078 177.4 145.5C176.853 145.176 176.468 144.273 178.366 140.125L178.383 140.086C177.278 141.437 176.082 142.639 175.264 142.757C175.134 142.779 175.004 142.773 174.878 142.739C174.752 142.703 174.635 142.642 174.537 142.557C173.556 141.707 174.625 138.635 174.976 137.713C174.994 137.667 175.02 137.625 175.053 137.591C175.086 137.555 175.127 137.527 175.171 137.507C175.215 137.487 175.264 137.477 175.312 137.474C175.36 137.473 175.409 137.482 175.453 137.499C175.499 137.516 175.541 137.542 175.576 137.575C175.611 137.608 175.639 137.649 175.66 137.693C175.68 137.737 175.691 137.784 175.692 137.833C175.692 137.881 175.685 137.929 175.668 137.975C175.033 139.641 174.622 141.654 175.021 142.002C175.041 142.017 175.064 142.027 175.087 142.031C175.112 142.036 175.137 142.033 175.16 142.027C176.28 141.867 179.075 138.122 180.572 135.802C180.625 135.721 180.706 135.664 180.8 135.642C180.894 135.621 180.991 135.637 181.074 135.687C181.156 135.736 181.215 135.816 181.24 135.908C181.265 136 181.252 136.098 181.205 136.182C181.205 136.203 180.023 138.282 179.036 140.434C177.195 144.463 177.768 144.857 177.774 144.857C178.605 145.347 181.527 141.941 183.74 138.455C183.794 138.378 183.876 138.323 183.969 138.304C184.062 138.284 184.158 138.302 184.24 138.352C184.32 138.401 184.379 138.481 184.402 138.573C184.426 138.664 184.414 138.761 184.367 138.845C182.423 142 180.804 145.745 181.58 146.293C181.612 146.313 181.648 146.325 181.683 146.329C181.72 146.334 181.757 146.33 181.793 146.319C182.892 146.116 185.297 143.076 186.553 141.228C186.608 141.153 186.689 141.101 186.78 141.084C186.871 141.066 186.966 141.084 187.045 141.132C187.124 141.181 187.182 141.257 187.206 141.346C187.231 141.436 187.221 141.532 187.179 141.614C185.36 144.843 184.216 147.956 184.718 148.322C184.931 148.472 185.634 148.166 186.131 147.797C186.209 147.738 186.307 147.713 186.404 147.727C186.502 147.74 186.589 147.792 186.647 147.871C186.706 147.949 186.732 148.048 186.717 148.144C186.704 148.241 186.652 148.328 186.573 148.387C186.382 148.529 185.581 149.094 184.872 149.094Z" fill="#553597"/>
<path d="M181.347 151.162C181.31 151.162 181.275 151.156 181.24 151.144C177.276 149.965 175.139 146.34 175.051 146.188C175.022 146.146 175.004 146.098 174.995 146.049C174.987 146 174.988 145.949 174.999 145.9C175.011 145.851 175.032 145.805 175.062 145.765C175.092 145.724 175.131 145.69 175.174 145.665C175.217 145.641 175.266 145.625 175.315 145.618C175.366 145.612 175.417 145.618 175.465 145.631C175.513 145.645 175.557 145.67 175.596 145.702C175.635 145.734 175.667 145.773 175.689 145.819C175.71 145.854 177.775 149.34 181.453 150.439C181.539 150.464 181.612 150.519 181.661 150.594C181.71 150.669 181.728 150.759 181.716 150.846C181.702 150.935 181.658 151.015 181.59 151.074C181.522 151.131 181.436 151.162 181.347 151.162Z" fill="#553597"/>
<path d="M174.117 152.898C174.057 152.899 174 152.885 173.948 152.858C173.905 152.836 173.867 152.805 173.834 152.769C173.804 152.732 173.779 152.689 173.764 152.643C173.749 152.597 173.745 152.548 173.748 152.5C173.752 152.452 173.765 152.405 173.789 152.362C175.816 148.44 173.318 143.949 173.292 143.906C173.268 143.863 173.253 143.816 173.247 143.768C173.241 143.72 173.244 143.671 173.257 143.624C173.27 143.577 173.291 143.533 173.322 143.495C173.352 143.457 173.389 143.425 173.43 143.4C173.474 143.377 173.52 143.361 173.568 143.355C173.616 143.349 173.666 143.352 173.713 143.366C173.759 143.378 173.804 143.4 173.842 143.43C173.88 143.461 173.912 143.498 173.937 143.539C174.049 143.737 176.657 148.419 174.444 152.698C174.414 152.758 174.367 152.808 174.309 152.844C174.251 152.88 174.184 152.898 174.117 152.898Z" fill="#553597"/>
<path d="M106.521 194.221L155.082 198.282L155.381 194.735L106.819 190.674L106.521 194.221Z" fill="#6F46BE"/>
<path d="M155.091 198.648H155.061L106.507 194.584C106.41 194.575 106.319 194.53 106.256 194.455C106.193 194.38 106.162 194.284 106.17 194.186L106.465 190.647C106.469 190.599 106.481 190.553 106.504 190.51C106.526 190.467 106.555 190.428 106.592 190.398C106.669 190.335 106.766 190.304 106.865 190.312L155.42 194.381C155.517 194.389 155.607 194.435 155.67 194.51C155.734 194.585 155.765 194.681 155.756 194.778L155.461 198.317C155.453 198.409 155.411 198.495 155.342 198.558C155.274 198.621 155.185 198.655 155.091 198.654V198.648ZM106.93 193.88L154.757 197.88L154.994 195.071L107.164 191.069L106.93 193.88Z" fill="#553597"/>
<path d="M195.053 164.728L146.922 160.704L133.2 196.398L181.332 200.426L195.053 164.728Z" fill="#6F46BE"/>
<path opacity="0.15" d="M149.669 160.934L146.922 160.704L133.2 196.398L136.016 196.634L149.67 160.934H149.669Z" fill="white"/>
<path d="M181.332 200.794H181.303L133.168 196.766C133.111 196.761 133.056 196.743 133.007 196.714C132.958 196.684 132.918 196.643 132.887 196.594C132.856 196.546 132.837 196.492 132.833 196.436C132.826 196.378 132.835 196.321 132.855 196.267L146.577 160.571C146.606 160.496 146.658 160.434 146.726 160.392C146.793 160.349 146.872 160.329 146.952 160.335L195.087 164.363C195.144 164.368 195.2 164.387 195.248 164.416C195.297 164.446 195.338 164.486 195.368 164.534C195.398 164.582 195.418 164.637 195.423 164.694C195.429 164.75 195.42 164.808 195.4 164.861L181.679 200.573C181.65 200.641 181.602 200.697 181.541 200.736C181.478 200.776 181.406 200.795 181.334 200.794H181.332ZM133.72 196.077L181.087 200.039L194.533 165.059L147.167 161.093L133.72 196.077Z" fill="#553597"/>
<path d="M136.016 197.002H135.986L133.168 196.766C133.111 196.761 133.056 196.743 133.007 196.714C132.958 196.684 132.918 196.643 132.887 196.594C132.856 196.546 132.837 196.492 132.833 196.436C132.826 196.378 132.835 196.321 132.855 196.267L146.577 160.571C146.606 160.496 146.658 160.434 146.726 160.392C146.793 160.349 146.872 160.329 146.952 160.335L149.703 160.565C149.76 160.57 149.816 160.587 149.864 160.618C149.913 160.648 149.954 160.688 149.984 160.736C150.015 160.784 150.034 160.839 150.039 160.896C150.043 160.953 150.036 161.01 150.016 161.063L136.351 196.766C136.325 196.834 136.28 196.893 136.219 196.935C136.16 196.977 136.09 197 136.016 197.002ZM133.72 196.073L135.77 196.244L149.148 161.257L147.166 161.093L133.718 196.073H133.72Z" fill="#553597"/>
<path d="M170.709 182.568C172.209 179.875 171.756 176.765 169.696 175.623C167.636 174.481 164.751 175.737 163.25 178.43C161.751 181.124 162.204 184.233 164.263 185.375C166.323 186.518 169.208 185.261 170.709 182.568Z" fill="white"/>
<path d="M165.935 186.174C165.288 186.179 164.651 186.016 164.086 185.702C162.987 185.092 162.265 183.972 162.059 182.541C161.879 181.056 162.19 179.552 162.942 178.258C164.54 175.392 167.67 174.068 169.891 175.308C172.113 176.55 172.646 179.888 171.046 182.754C170.339 184.073 169.219 185.126 167.858 185.753C167.253 186.026 166.599 186.17 165.935 186.174ZM163.571 178.617C162.898 179.775 162.622 181.121 162.786 182.45C162.96 183.629 163.547 184.576 164.44 185.072C165.332 185.567 166.438 185.573 167.545 185.09C168.759 184.526 169.755 183.584 170.385 182.406C171.782 179.897 171.393 177.007 169.513 175.964C167.634 174.92 164.971 176.099 163.574 178.617H163.571Z" fill="#553597"/>
<path d="M59.8877 186.041C61.6605 193.234 66.2817 220.789 80.0443 220.028C93.8069 219.267 127.142 206.016 134.777 204.99C142.411 203.964 160.716 202.669 160.793 198.706L159.056 198.561L139.894 196.961C139.894 196.961 145.304 193.989 143.576 192.346C142.834 191.641 132.469 195.124 126.734 195.908C120.999 196.693 89.745 198.966 89.745 198.966L86.102 181.274L72.693 177.366L59.8877 186.041Z" fill="white"/>
<path d="M79.4874 220.412C67.1724 220.412 62.2493 198.279 60.1279 188.743C59.8975 187.714 59.6991 186.824 59.5365 186.128C59.5193 186.054 59.5242 185.978 59.5501 185.908C59.5772 185.838 59.6252 185.777 59.6868 185.735L72.5069 177.063C72.5525 177.032 72.6042 177.012 72.6584 177.004C72.7126 176.996 72.7681 177 72.8198 177.016L86.2313 180.923C86.2953 180.942 86.3532 180.979 86.3988 181.028C86.4444 181.077 86.4752 181.137 86.4888 181.202L90.064 198.574C93.4027 198.329 121.369 196.277 126.702 195.542C129.362 195.177 133.058 194.221 136.314 193.376C141.591 192.007 143.34 191.606 143.84 192.077C144.007 192.226 144.135 192.413 144.211 192.623C144.289 192.832 144.313 193.057 144.283 193.278C144.12 194.537 142.277 195.914 141.073 196.687L160.826 198.34C160.92 198.348 161.008 198.391 161.071 198.459C161.135 198.53 161.17 198.621 161.168 198.715C161.103 202.094 151.299 203.475 139.459 204.807C137.74 205.002 136.115 205.185 134.83 205.356C131.922 205.745 125.099 207.977 117.199 210.56C104.438 214.727 88.5647 219.925 80.0615 220.397C79.8693 220.406 79.6746 220.412 79.4849 220.412H79.4874ZM60.3077 186.206C60.4642 186.864 60.6441 187.682 60.8486 188.587C62.9171 197.946 67.765 219.678 79.4898 219.678H80.0245C88.4304 219.212 104.253 214.037 116.958 209.879C124.891 207.284 131.747 205.043 134.722 204.643C136.014 204.468 137.645 204.285 139.367 204.091C146.919 203.241 159.359 201.841 160.345 199.057L139.868 197.33C139.79 197.322 139.714 197.289 139.655 197.236C139.596 197.183 139.556 197.112 139.541 197.035C139.524 196.957 139.532 196.876 139.565 196.803C139.599 196.731 139.654 196.672 139.724 196.634C140.735 196.077 143.394 194.371 143.547 193.178C143.562 193.078 143.551 192.976 143.518 192.881C143.483 192.785 143.426 192.701 143.353 192.632C142.788 192.455 139.446 193.323 136.495 194.086C133.222 194.935 129.51 195.9 126.801 196.271C121.131 197.049 90.1034 199.308 89.7905 199.329C89.7006 199.335 89.6119 199.309 89.5392 199.255C89.4677 199.201 89.4184 199.122 89.4 199.034L85.8038 181.563L72.773 177.765L60.3077 186.206Z" fill="#553597"/>
<path d="M65.2331 115.83C68.4104 115.83 70.9865 113.26 70.9865 110.089C70.9865 106.918 68.4104 104.347 65.2331 104.347C62.0558 104.347 59.4797 106.918 59.4797 110.089C59.4797 113.26 62.0558 115.83 65.2331 115.83Z" fill="#553597"/>
<path d="M82.4378 109.573C85.1494 109.573 87.3485 107.379 87.3485 104.673C87.3485 101.967 85.1494 99.772 82.4378 99.772C79.7262 99.772 77.5271 101.967 77.5271 104.673C77.5271 107.379 79.7262 109.573 82.4378 109.573Z" fill="#553597"/>
<path d="M65.2393 116.205C64.1527 116.206 63.0846 115.92 62.1458 115.373C61.207 114.827 60.4309 114.04 59.8962 113.096C59.3615 112.152 59.0892 111.082 59.1065 109.997C59.1237 108.913 59.4293 107.852 59.9923 106.925C60.5553 105.997 61.3561 105.236 62.3109 104.719C63.2669 104.202 64.3424 103.948 65.4291 103.984C66.5157 104.02 67.5727 104.342 68.493 104.92C69.4133 105.498 70.1624 106.309 70.6638 107.272C71.148 108.202 71.3833 109.243 71.3488 110.291C71.3143 111.34 71.0087 112.362 70.4642 113.259C69.9197 114.157 69.1534 114.898 68.238 115.415C67.3226 115.931 66.2902 116.204 65.2393 116.206V116.205ZM65.2246 104.719C64.0492 104.722 62.9084 105.107 61.9733 105.817C61.0382 106.527 60.3619 107.522 60.0477 108.652C59.7336 109.782 59.7964 110.984 60.2301 112.073C60.6637 113.162 61.4411 114.081 62.4464 114.688C63.4517 115.295 64.6283 115.557 65.7962 115.436C66.9641 115.313 68.0606 114.812 68.9168 114.011C69.7731 113.209 70.3435 112.149 70.5406 110.993C70.7377 109.838 70.5504 108.649 70.0071 107.61C69.5513 106.737 68.8639 106.007 68.0199 105.498C67.176 104.989 66.2089 104.719 65.2233 104.72L65.2246 104.719Z" fill="#553597"/>
<path d="M82.4442 109.945C81.6828 109.945 80.9313 109.781 80.2401 109.464C79.549 109.147 78.9342 108.684 78.4377 108.108C77.9425 107.531 77.5766 106.855 77.3671 106.125C77.1577 105.394 77.1084 104.628 77.2242 103.877C77.3388 103.126 77.616 102.409 78.0349 101.776C78.4538 101.142 79.0045 100.605 79.6513 100.203C80.2968 99.8014 81.0225 99.5444 81.7777 99.4485C82.5329 99.3526 83.2992 99.4202 84.026 99.6477C84.6889 99.853 85.3036 100.187 85.8358 100.633C86.3681 101.078 86.8054 101.623 87.1233 102.239C87.5422 103.042 87.7454 103.939 87.7159 104.844C87.6863 105.748 87.4239 106.63 86.9545 107.403C86.4851 108.178 85.8235 108.817 85.0338 109.262C84.2441 109.707 83.3534 109.942 82.4466 109.943L82.4442 109.945ZM82.4442 100.137C81.4524 100.137 80.4878 100.462 79.6981 101.06C78.9084 101.659 78.3367 102.499 78.0694 103.452C77.802 104.405 77.855 105.419 78.2197 106.34C78.5843 107.261 79.241 108.037 80.0886 108.549C80.9362 109.062 81.9292 109.284 82.916 109.182C83.9029 109.08 84.8281 108.659 85.5525 107.981C86.2769 107.305 86.7586 106.41 86.9249 105.435C87.0925 104.459 86.9348 103.455 86.4765 102.578C86.0921 101.842 85.5118 101.226 84.801 100.795C84.0901 100.364 83.2745 100.137 82.4429 100.136L82.4442 100.137Z" fill="#553597"/>
<path d="M92.751 140.903L112.459 184.287L77.8599 145.247L71.9895 126.068L86.3225 121.404L92.7522 140.903H92.751Z" fill="white"/>
<path d="M112.458 184.65C112.405 184.65 112.353 184.639 112.305 184.617C112.257 184.594 112.215 184.562 112.179 184.523L77.5826 145.492C77.5481 145.451 77.521 145.404 77.5062 145.353L71.6407 126.178C71.6124 126.085 71.6222 125.985 71.6666 125.899C71.7109 125.812 71.7873 125.747 71.8797 125.717L86.2127 121.052C86.3063 121.022 86.4074 121.03 86.4948 121.074C86.5823 121.118 86.6488 121.195 86.6796 121.288L93.1032 140.77L112.803 184.133C112.838 184.215 112.845 184.304 112.82 184.389C112.795 184.474 112.741 184.547 112.667 184.594C112.604 184.634 112.532 184.653 112.458 184.65ZM78.1838 145.055L111.101 182.208L92.4133 141.057C92.4133 141.057 92.4133 141.03 92.3985 141.018L86.0846 121.869L72.4452 126.307L78.1838 145.055Z" fill="#553597"/>
<path d="M72.8235 128.565L75.1877 135.705C75.1877 135.705 77.6455 134.632 84.0284 130.212L72.8247 128.567L72.8235 128.565Z" fill="#553597"/>
<path d="M75.1582 136.073C75.1064 136.073 75.0547 136.062 75.0079 136.041C74.9611 136.02 74.9192 135.989 74.8859 135.951C74.8514 135.913 74.8268 135.869 74.8108 135.819L72.7422 129.524C72.7238 129.467 72.7201 129.405 72.7299 129.346C72.741 129.287 72.7657 129.231 72.8026 129.183C72.8396 129.135 72.8889 129.097 72.9431 129.072C72.9985 129.047 73.0589 129.036 73.1192 129.04L84.031 129.842C84.1074 129.847 84.1813 129.876 84.2404 129.924C84.2996 129.973 84.3427 130.038 84.3624 130.112C84.3821 130.186 84.3796 130.265 84.3525 130.337C84.3254 130.41 84.2774 130.471 84.2145 130.514C77.8772 134.901 75.4157 135.995 75.3122 136.039C75.2641 136.062 75.2112 136.073 75.1582 136.071V136.073ZM73.6096 129.805L75.3824 135.176C76.2239 134.746 78.5671 133.47 82.932 130.491L73.6096 129.804V129.805Z" fill="#553597"/>
<path d="M88.7532 116.338C90.6382 122.781 90.1121 128.428 82.4504 130.831C77.1171 132.5 71.2072 128.442 69.3223 121.985C67.4373 115.528 70.2623 109.055 75.6276 107.492C80.9929 105.929 86.8708 109.898 88.752 116.338H88.7532Z" fill="white"/>
<path d="M80.0159 131.574C78.3909 131.56 76.7942 131.142 75.3713 130.359C72.3603 128.74 70.0294 125.735 68.9686 122.103C67.0307 115.477 69.9702 108.772 75.5253 107.154C81.0803 105.534 87.1701 109.61 89.1166 116.236C91.4562 124.233 89.315 129.122 82.5686 131.185C81.7419 131.442 80.882 131.574 80.0159 131.575V131.574ZM78.0176 107.547C77.2439 107.546 76.4739 107.655 75.731 107.872C70.569 109.375 67.8537 115.674 69.677 121.908C70.6811 125.34 72.8864 128.185 75.72 129.71C76.7154 130.276 77.8143 130.636 78.9515 130.77C80.0886 130.904 81.2417 130.809 82.3419 130.492C88.7064 128.543 90.6332 124.085 88.3996 116.454C86.8424 111.119 82.475 107.537 78.0201 107.537V107.55L78.0176 107.547Z" fill="#553597"/>
<path d="M88.0669 114.47C88.0669 114.47 86.5158 109.587 83.2215 107.054C80.0011 104.58 75.8345 104.302 72.2001 106.497C67.8955 109.101 64.3905 114.279 67.4077 122.064C68.9821 126.159 72.9245 128.919 72.9245 128.919L71.1135 125.897C71.1135 125.897 72.6732 125.307 72.4847 124.518C72.4847 124.518 68.0286 121.348 69.778 119.195C71.3857 117.222 73.0046 120.079 73.0046 120.079C74.7232 118.726 76.3618 117.276 77.9153 115.736C79.5588 114.019 81.0643 112.176 82.4182 110.224L88.0681 114.47H88.0669Z" fill="#553597"/>
<path d="M72.9245 129.28C72.8482 129.28 72.7742 129.258 72.7114 129.215C72.5463 129.099 68.6693 126.349 67.0615 122.194C64.5027 115.586 66.3519 109.601 72.0104 106.18C75.6978 103.951 80.08 104.175 83.4445 106.77C86.8103 109.364 88.3528 114.162 88.4168 114.368C88.4402 114.443 88.439 114.523 88.4144 114.597C88.3897 114.671 88.3405 114.735 88.2764 114.78C88.2123 114.826 88.1347 114.849 88.0571 114.847C87.9782 114.846 87.9031 114.818 87.8403 114.772L82.4984 110.738C81.1912 112.592 79.7461 114.345 78.1753 115.984C76.6094 117.533 74.9586 118.994 73.2289 120.36C73.187 120.392 73.1389 120.414 73.0884 120.426C73.0379 120.437 72.9849 120.438 72.9332 120.429C72.8814 120.419 72.8334 120.397 72.7903 120.367C72.7471 120.336 72.7114 120.297 72.6855 120.253C72.4786 119.888 71.7813 118.929 71.0667 118.873C70.7205 118.844 70.3965 119.027 70.0676 119.43C69.9419 119.584 69.8495 119.763 69.799 119.955C69.7485 120.147 69.7386 120.349 69.7719 120.544C70.0084 122.269 72.688 124.198 72.7262 124.218C72.8001 124.268 72.8519 124.346 72.8716 124.433C73.0601 125.218 72.21 125.787 71.6716 126.063L73.2695 128.731C73.304 128.787 73.3225 128.851 73.3237 128.917C73.3237 128.982 73.3089 129.047 73.2757 129.104C73.2436 129.16 73.1968 129.208 73.1401 129.24C73.0835 129.272 73.0182 129.29 72.9529 129.29L72.9209 129.281L72.9245 129.28ZM77.356 105.365C75.5955 105.381 73.8744 105.881 72.38 106.81C69.8249 108.357 64.2513 112.923 67.7379 121.927C68.6064 124.171 70.2203 126.017 71.4548 127.197L70.7846 126.077C70.7575 126.03 70.739 125.98 70.7341 125.926C70.7291 125.872 70.7341 125.819 70.7513 125.767C70.7686 125.715 70.7969 125.67 70.8351 125.631C70.8721 125.591 70.9176 125.562 70.9681 125.542C71.4264 125.365 72.0314 124.991 72.109 124.699C71.5004 124.235 69.2581 122.434 69.013 120.633C68.9662 120.335 68.9846 120.032 69.0647 119.743C69.1448 119.452 69.2865 119.183 69.4799 118.952C69.9678 118.362 70.5172 118.067 71.1135 118.126C72.0006 118.2 72.7274 119.026 73.0785 119.518C74.6715 118.246 76.1943 116.891 77.6406 115.458C79.2681 113.755 80.76 111.928 82.1016 109.994C82.13 109.952 82.1657 109.918 82.2088 109.891C82.2507 109.864 82.2988 109.846 82.348 109.838C82.3973 109.829 82.4478 109.832 82.4971 109.844C82.5452 109.856 82.5907 109.878 82.6314 109.908L87.2526 113.4C86.5849 111.819 85.1841 109.024 82.9825 107.343C81.3846 106.078 79.4085 105.382 77.3683 105.365H77.356Z" fill="#553597"/>
<path d="M84.584 121.073C84.4941 121.074 84.4066 121.042 84.3376 120.983C84.2698 120.924 84.2255 120.843 84.2132 120.753C84.2008 120.663 84.2218 120.574 84.2723 120.499C84.3228 120.424 84.3992 120.371 84.4867 120.347C84.8908 120.242 85.285 120.105 85.6681 119.94C85.5437 119.419 84.9647 117.791 84.4127 116.345C84.3918 116.3 84.3795 116.25 84.3782 116.199C84.3782 116.149 84.3869 116.098 84.4054 116.052C84.4238 116.005 84.4534 115.963 84.4891 115.927C84.5249 115.892 84.568 115.865 84.616 115.846C84.6628 115.828 84.7134 115.82 84.7639 115.822C84.8144 115.824 84.8637 115.836 84.9092 115.859C84.9548 115.881 84.9955 115.911 85.0275 115.951C85.0608 115.989 85.0854 116.034 85.1002 116.082C86.5539 119.874 86.4628 120.087 86.3975 120.24C86.3322 120.394 86.2324 120.639 84.6776 121.057C84.6468 121.065 84.6148 121.07 84.5828 121.072L84.584 121.073Z" fill="#553597"/>
<path d="M79.6352 118.717C79.6044 118.721 79.5723 118.721 79.5403 118.717C79.4454 118.691 79.3653 118.63 79.3161 118.545C79.2668 118.46 79.2532 118.361 79.2779 118.266C79.2779 118.243 79.9924 115.666 82.693 115.421C82.7903 115.414 82.8851 115.446 82.9591 115.508C83.033 115.571 83.0786 115.659 83.0872 115.757C83.0958 115.853 83.0662 115.948 83.0046 116.023C82.943 116.098 82.8543 116.145 82.7582 116.156C80.5838 116.354 80.0158 118.371 79.9924 118.457C79.969 118.533 79.9222 118.6 79.8581 118.647C79.7941 118.695 79.7152 118.72 79.6352 118.718V118.717Z" fill="#553597"/>
<path d="M85.2839 115.029C85.2075 115.029 85.1336 115.005 85.072 114.962C85.0104 114.919 84.9623 114.858 84.9365 114.786C84.9106 114.715 84.9069 114.638 84.9266 114.565C84.9463 114.492 84.9882 114.427 85.0461 114.378C85.497 114.009 86.0576 113.798 86.6403 113.777C87.223 113.757 87.7971 113.928 88.2727 114.265C88.3515 114.322 88.4057 114.408 88.4218 114.504C88.4378 114.599 88.4156 114.698 88.3589 114.778C88.301 114.858 88.2148 114.911 88.1175 114.926C88.0201 114.942 87.9216 114.92 87.8415 114.863C86.66 114.028 85.5598 114.907 85.5155 114.945C85.449 114.998 85.3664 115.027 85.2814 115.027L85.2839 115.029Z" fill="#553597"/>
<path d="M71.2341 121.963C71.1491 121.963 71.0654 121.932 71.0001 121.878C70.9335 121.824 70.8892 121.748 70.8732 121.664C70.8572 121.581 70.8707 121.493 70.9114 121.418C70.952 121.343 71.0186 121.284 71.0974 121.254L70.4592 120.663C70.421 120.631 70.3902 120.592 70.3681 120.548C70.3459 120.504 70.3323 120.456 70.3299 120.405C70.3274 120.356 70.3336 120.307 70.3508 120.26C70.3681 120.213 70.3939 120.17 70.4272 120.134C70.4605 120.097 70.5011 120.068 70.5467 120.047C70.5923 120.027 70.6403 120.016 70.6908 120.014C70.7401 120.013 70.7894 120.022 70.8362 120.04C70.8818 120.059 70.9237 120.086 70.9594 120.12L72.0436 121.117C72.0904 121.16 72.1249 121.214 72.1434 121.275C72.1631 121.335 72.1668 121.399 72.1544 121.46C72.1421 121.522 72.1138 121.579 72.0731 121.627C72.0325 121.675 71.9795 121.712 71.9204 121.733L71.3623 121.936C71.3216 121.952 71.2785 121.962 71.2354 121.963H71.2341Z" fill="#553597"/>
<path d="M82.7485 119.121C82.9838 119.121 83.1736 118.93 83.1736 118.696C83.1736 118.463 82.9826 118.272 82.7485 118.272C82.5144 118.272 82.3235 118.463 82.3235 118.696C82.3235 118.93 82.5144 119.121 82.7485 119.121Z" fill="#553597"/>
<path d="M87.133 117.431C87.3684 117.431 87.5581 117.241 87.5581 117.007C87.5581 116.773 87.3671 116.583 87.133 116.583C86.899 116.583 86.708 116.773 86.708 117.007C86.708 117.241 86.899 117.431 87.133 117.431Z" fill="#553597"/>
<path d="M82.9887 123.977C81.7062 123.977 80.9202 122.865 80.6455 122.169C80.6147 122.08 80.6209 121.981 80.6603 121.895C80.7009 121.809 80.7724 121.741 80.8623 121.708C80.9523 121.675 81.0496 121.675 81.1383 121.712C81.2258 121.749 81.296 121.818 81.3342 121.905C81.3638 121.985 82.034 123.636 83.5382 123.149C83.585 123.13 83.6355 123.12 83.6873 123.121C83.7378 123.121 83.7883 123.133 83.8351 123.154C83.8819 123.175 83.9226 123.206 83.9571 123.244C83.9904 123.282 84.0162 123.326 84.0322 123.375C84.0483 123.423 84.0532 123.475 84.0483 123.525C84.0433 123.576 84.0273 123.625 84.0027 123.669C83.978 123.714 83.9435 123.753 83.9029 123.784C83.8622 123.814 83.8154 123.837 83.7661 123.848C83.516 123.932 83.2536 123.977 82.9887 123.977Z" fill="#553597"/>
<path d="M72.502 126.357C73.3705 126.357 74.074 125.655 74.074 124.789C74.074 123.922 73.3705 123.22 72.502 123.22C71.6334 123.22 70.9299 123.922 70.9299 124.789C70.9299 125.655 71.6334 126.357 72.502 126.357Z" fill="#A78ED7"/>
<path d="M72.5058 126.726H72.3407C71.9576 126.694 71.5917 126.55 71.291 126.311C70.9904 126.072 70.7662 125.749 70.6492 125.383C70.5321 125.018 70.526 124.626 70.6332 124.256C70.7391 123.887 70.9535 123.558 71.2467 123.311C71.5411 123.062 71.9009 122.907 72.284 122.864C72.666 122.821 73.0528 122.893 73.3941 123.068C73.7353 123.244 74.0174 123.518 74.2035 123.854C74.3895 124.19 74.4708 124.573 74.4388 124.957C74.3969 125.44 74.1751 125.889 73.8166 126.216C73.4594 126.543 72.9912 126.725 72.5058 126.726ZM72.5058 123.586C72.2717 123.586 72.0426 123.654 71.8454 123.781C71.6496 123.909 71.4943 124.091 71.4007 124.305C71.3058 124.519 71.2763 124.756 71.3145 124.986C71.3526 125.218 71.4574 125.431 71.6163 125.604C71.7752 125.776 71.9797 125.899 72.2064 125.955C72.4331 126.013 72.6721 126.003 72.8939 125.928C73.1156 125.852 73.3103 125.714 73.4544 125.53C73.5986 125.345 73.686 125.123 73.7045 124.89C73.7181 124.733 73.6996 124.574 73.6515 124.424C73.6035 124.274 73.5259 124.134 73.4236 124.014C73.3214 123.893 73.1969 123.794 73.0565 123.721C72.916 123.649 72.762 123.604 72.6044 123.592L72.5033 123.586H72.5058Z" fill="#553597"/>
<path d="M139.37 163.956C134.938 162.638 133.729 168.444 131.889 169.558C129.256 171.148 127.456 169.756 124.768 170.57C123.976 170.805 123.239 171.196 122.6 171.718C121.96 172.241 121.432 172.885 121.045 173.613L128.694 192.484L106.83 190.656L106.535 194.194L126.577 195.873C126.171 195.934 125.738 195.999 125.264 196.064C122.292 196.486 89.7671 198.945 89.7671 198.945L86.644 183.777C80.9497 183.715 79.3494 188.69 75.7618 189.787C72.1743 190.883 68.8417 188.783 63.7425 188.834C58.6433 188.884 54.5359 196.899 54.5359 196.899C54.5359 196.899 52.5092 157.749 57.2191 152.89C61.929 148.029 77.5297 144.132 77.5297 144.132C77.5297 144.132 86.3409 150.964 90.7133 149.059C95.0856 147.154 92.7584 140.882 92.7584 140.882C92.7584 140.882 109.895 139.358 114.244 140.313C118.593 141.269 139.371 163.956 139.371 163.956H139.37Z" fill="white"/>
<path d="M89.7633 199.335C89.6783 199.335 89.5958 199.305 89.5293 199.251C89.4627 199.197 89.4171 199.123 89.3999 199.04L86.3384 184.167C83.2153 184.234 81.4215 185.909 79.6869 187.528C78.4869 188.646 77.356 189.704 75.8665 190.158C73.7536 190.807 71.78 190.403 69.4934 189.934C67.8216 189.589 65.9305 189.2 63.7412 189.221C58.9254 189.268 54.9005 197.008 54.8598 197.087C54.8228 197.16 54.7637 197.218 54.6898 197.252C54.6171 197.287 54.5333 197.296 54.4545 197.279C54.3744 197.263 54.3017 197.22 54.2487 197.159C54.1958 197.096 54.1637 197.019 54.1588 196.937C54.0763 195.333 52.179 157.573 56.9456 152.654C61.7109 147.736 76.7917 143.955 77.4336 143.807C77.4878 143.794 77.5444 143.793 77.5987 143.804C77.6529 143.815 77.7046 143.838 77.749 143.873C77.8352 143.94 86.4333 150.549 90.558 148.752C94.5619 147.01 92.4257 141.087 92.4023 141.042C92.3825 140.988 92.3764 140.932 92.3825 140.875C92.3887 140.82 92.4072 140.766 92.438 140.718C92.4688 140.67 92.5094 140.63 92.5575 140.601C92.6055 140.57 92.6597 140.552 92.7164 140.547C93.4199 140.484 109.966 139.031 114.318 139.986C118.724 140.95 138.789 162.792 139.639 163.72C139.689 163.781 139.717 163.854 139.722 163.932C139.727 164.009 139.706 164.087 139.664 164.152C139.622 164.217 139.56 164.267 139.488 164.296C139.415 164.324 139.336 164.329 139.261 164.31C136.508 163.49 135.124 165.702 133.883 167.651C133.269 168.63 132.736 169.473 132.079 169.874C130.471 170.844 129.124 170.759 127.842 170.7C126.851 170.592 125.85 170.667 124.887 170.921C123.443 171.36 122.221 172.329 121.466 173.634L129.05 192.361C129.074 192.419 129.081 192.483 129.074 192.546C129.065 192.608 129.042 192.667 129.003 192.718C128.967 192.769 128.916 192.81 128.858 192.836C128.8 192.862 128.737 192.873 128.675 192.868L107.176 191.069L106.94 193.88L126.6 195.528C126.69 195.536 126.774 195.576 126.835 195.642C126.897 195.708 126.932 195.793 126.936 195.883C126.939 195.974 126.909 196.061 126.851 196.13C126.793 196.2 126.713 196.245 126.623 196.259C126.222 196.321 125.784 196.385 125.311 196.451C122.357 196.87 91.1161 199.232 89.7867 199.331L89.7633 199.335ZM86.5368 183.427H86.6427C86.7277 183.427 86.809 183.456 86.8743 183.509C86.9396 183.563 86.984 183.638 87 183.722L90.0578 198.574C93.0121 198.346 115.33 196.655 122.911 195.959L106.507 194.584C106.41 194.576 106.32 194.529 106.256 194.455C106.193 194.38 106.162 194.283 106.17 194.186L106.465 190.647C106.475 190.55 106.522 190.46 106.595 190.397C106.671 190.336 106.766 190.306 106.863 190.312L128.137 192.081L120.689 173.739C120.668 173.694 120.658 173.643 120.658 173.593C120.658 173.543 120.669 173.491 120.689 173.446C121.097 172.667 121.656 171.98 122.336 171.423C123.015 170.865 123.8 170.451 124.642 170.201C125.692 169.917 126.785 169.831 127.865 169.948C129.154 170.019 130.267 170.08 131.677 169.228C132.188 168.933 132.699 168.105 133.243 167.244C134.327 165.521 135.76 163.242 138.34 163.387C130.952 155.397 117.376 141.387 114.141 140.682C110.299 139.836 95.9812 140.977 93.224 141.219C93.67 142.749 94.7603 147.706 90.8364 149.404C90.2278 149.657 89.5724 149.782 88.9133 149.77C84.5348 149.77 78.4684 145.347 77.4225 144.541C75.7112 144.984 61.7799 148.697 57.4605 153.155C53.3863 157.356 54.5259 188.834 54.8216 195.616C56.1867 193.357 59.5931 188.515 63.7154 188.477C65.9662 188.454 67.914 188.855 69.6252 189.206C71.812 189.654 73.7031 190.04 75.6324 189.447C76.9617 189.044 78.0311 188.041 79.1781 186.982C80.9718 185.32 82.9985 183.427 86.5355 183.427H86.5368Z" fill="#553597"/>
<path d="M153.643 95.4367C153.643 95.4367 157.278 107.467 169.489 108.464C181.701 109.461 189.861 98.0494 189.861 98.0494C189.861 98.0494 196.832 112.587 212.185 109.272C227.537 105.957 227.059 94.4703 227.059 94.4703C227.059 94.4703 241.796 98.1735 242.039 85.329C242.286 72.2694 228.272 75.6456 228.272 75.6456C228.272 75.6456 229.661 70.3378 224.568 67.4485C219.473 64.5592 214.867 69.61 214.867 69.61C214.867 69.61 221.417 52.3836 204.762 47.9992C187.33 43.4108 181.195 57.1934 181.195 57.1934C181.195 57.1934 178.9 42.3706 160.53 46.3246C145.479 49.568 147.181 62.7605 147.181 62.7605C147.181 62.7605 118.081 58.2015 122.696 86.2856C125.792 105.116 153.643 95.4379 153.643 95.4379V95.4367Z" fill="white"/>
<path d="M207.767 110.128C202.009 110.128 197.757 107.587 195.021 105.181C192.934 103.336 191.17 101.156 189.802 98.7319C188.16 100.796 181.031 108.894 170.985 108.894C170.482 108.894 169.973 108.876 169.46 108.832C158.345 107.927 154.151 97.9401 153.413 95.9053C150.958 96.7044 136.97 100.918 128.46 95.8671C125.122 93.8766 123.053 90.6713 122.332 86.346C120.976 78.0899 122.377 71.8146 126.499 67.6749C133.077 61.0639 144.318 62.0315 146.774 62.3352C146.66 60.0459 147.034 57.7591 147.867 55.6234C149.229 52.1612 152.517 47.6625 160.454 45.967C166.688 44.6256 171.782 45.2687 175.588 47.8838C179.393 50.4989 180.841 54.3325 181.335 56.1398C182.59 53.9956 184.247 52.1108 186.216 50.5899C189.669 47.9182 195.706 45.2404 204.857 47.6416C209.676 48.9129 213.056 51.3694 214.903 54.946C217.506 60.0004 216.357 65.8565 215.636 68.4249C217.341 67.0712 220.921 64.954 224.751 67.1278C229.037 69.5609 228.935 73.6797 228.733 75.1748C230.436 74.8625 235.683 74.1986 239.196 77.0117C241.401 78.7809 242.482 81.5792 242.411 85.3353C242.345 88.8738 241.187 91.527 238.969 93.2262C235.059 96.2077 229.118 95.2758 227.425 94.9278C227.305 96.9897 226.723 98.9974 225.717 100.802C224.042 103.866 220.348 107.879 212.264 109.634C210.787 109.96 209.28 110.127 207.767 110.132V110.128ZM189.861 97.6806H189.895C189.958 97.688 190.018 97.7102 190.07 97.747C190.121 97.7839 190.162 97.8331 190.19 97.8897C191.542 100.442 193.343 102.73 195.509 104.646C200.272 108.824 205.85 110.249 212.084 108.912C218.25 107.579 222.721 104.663 225.026 100.481C226.062 98.6483 226.626 96.5876 226.668 94.484C226.667 94.4274 226.678 94.3721 226.702 94.3204C226.725 94.2688 226.761 94.2245 226.804 94.1889C226.848 94.1532 226.901 94.1274 226.957 94.1151C227.012 94.1028 227.071 94.1028 227.127 94.1151C227.197 94.1323 234.282 95.861 238.499 92.641C240.526 91.093 241.587 88.6304 241.648 85.323C241.717 81.8116 240.727 79.2075 238.712 77.592C234.844 74.49 228.405 75.9912 228.34 76.0059C228.279 76.0207 228.213 76.0195 228.152 76.0023C228.09 75.985 228.033 75.9518 227.989 75.9051C227.945 75.8596 227.913 75.8031 227.897 75.7416C227.879 75.6801 227.879 75.6162 227.894 75.5535C227.948 75.3469 229.145 70.4843 224.363 67.7684C219.583 65.0524 215.302 69.6618 215.121 69.8585C215.063 69.92 214.984 69.9593 214.9 69.9704C214.815 69.9814 214.729 69.963 214.656 69.9187C214.584 69.8745 214.53 69.8068 214.501 69.7257C214.473 69.6458 214.473 69.5585 214.501 69.4773C214.531 69.4011 217.456 61.5397 214.206 55.2792C212.462 51.8968 209.238 49.5682 204.632 48.3559C195.769 46.0236 189.956 48.5981 186.632 51.1665C184.481 52.8177 182.727 54.9263 181.497 57.341C181.465 57.4148 181.41 57.4751 181.341 57.5144C181.271 57.5537 181.191 57.5697 181.111 57.5587C181.032 57.5488 180.958 57.5132 180.901 57.4566C180.843 57.4013 180.806 57.3275 180.794 57.2488C180.794 57.1923 179.884 51.7432 175.127 48.4826C171.492 45.9941 166.597 45.3867 160.575 46.6838C154.459 47.9994 150.404 51.1063 148.52 55.8927C147.669 58.0603 147.324 60.3926 147.512 62.7127C147.517 62.7668 147.509 62.8209 147.491 62.8725C147.472 62.9229 147.442 62.9696 147.403 63.0078C147.363 63.0483 147.312 63.0791 147.258 63.0963C147.203 63.1135 147.145 63.1172 147.088 63.1074C146.959 63.0864 133.972 61.1525 126.997 68.179C123.052 72.1417 121.72 78.2043 123.037 86.2107C123.711 90.3098 125.655 93.3405 128.814 95.2155C137.678 100.473 153.338 95.127 153.494 95.0741C153.542 95.0569 153.593 95.0495 153.643 95.052C153.694 95.0545 153.744 95.0692 153.789 95.0926C153.833 95.1159 153.873 95.1467 153.905 95.186C153.937 95.2241 153.96 95.2696 153.975 95.3176C154.01 95.4356 157.689 107.112 169.503 108.082C181.315 109.052 189.461 97.9327 189.541 97.8208C189.579 97.7729 189.629 97.7347 189.684 97.7102C189.741 97.6856 189.802 97.6745 189.863 97.6794L189.861 97.6806Z" fill="#553597"/>
<path d="M113.134 165.702C113.038 165.702 112.947 165.665 112.878 165.599C112.809 165.533 112.768 165.443 112.765 165.348C111.926 147.494 114.358 131.193 119.995 116.898C124.408 105.61 131.039 95.3164 139.496 86.6239C153.85 71.8982 168.866 66.6754 169.017 66.6262C169.063 66.6065 169.113 66.5979 169.164 66.5979C169.214 66.5979 169.264 66.6102 169.31 66.6299C169.356 66.6508 169.397 66.6803 169.431 66.7172C169.466 66.754 169.492 66.7983 169.508 66.8463C169.524 66.8942 169.53 66.9446 169.526 66.995C169.522 67.0454 169.509 67.0946 169.484 67.1389C169.461 67.1831 169.429 67.2225 169.389 67.2544C169.35 67.2864 169.304 67.3098 169.256 67.3221C169.108 67.3725 154.231 72.5536 140.005 87.1636C126.875 100.645 111.62 125.146 113.507 165.304C113.51 165.352 113.503 165.4 113.487 165.445C113.47 165.491 113.445 165.533 113.413 165.568C113.379 165.604 113.34 165.633 113.297 165.653C113.252 165.674 113.206 165.685 113.158 165.688L113.137 165.702H113.134Z" fill="#553597"/>
<path d="M123.862 165.138H123.83C123.733 165.13 123.643 165.084 123.579 165.009C123.515 164.934 123.485 164.838 123.493 164.741C124.97 147.776 128.888 132.538 135.155 119.455C140.178 108.978 146.699 99.8494 154.546 92.3274C167.916 79.5001 180.689 75.7268 180.816 75.6874C180.864 75.6715 180.913 75.6653 180.964 75.669C181.013 75.6727 181.061 75.6862 181.106 75.7096C181.15 75.7329 181.189 75.7649 181.221 75.803C181.252 75.8424 181.276 75.8866 181.29 75.9346C181.304 75.9825 181.308 76.0329 181.302 76.0821C181.295 76.1313 181.279 76.1792 181.253 76.2223C181.229 76.2653 181.194 76.3022 181.155 76.3329C181.114 76.3624 181.069 76.3833 181.021 76.3956C180.896 76.4338 168.268 80.1726 155.019 92.888C142.798 104.624 127.54 126.627 124.222 164.806C124.214 164.897 124.173 164.98 124.106 165.042C124.04 165.103 123.952 165.139 123.862 165.139V165.138Z" fill="#553597"/>
<path d="M134.949 162.957C134.918 162.959 134.887 162.959 134.858 162.957C134.763 162.932 134.683 162.871 134.632 162.787C134.583 162.704 134.568 162.603 134.592 162.508C138.155 148.39 143.521 135.628 150.547 124.577C155.986 115.936 162.679 108.149 170.406 101.465C183.285 90.407 194.421 86.8685 194.534 86.8366C194.624 86.8157 194.719 86.8304 194.8 86.8771C194.88 86.9238 194.941 86.9988 194.968 87.0874C194.996 87.1759 194.989 87.2718 194.949 87.3554C194.909 87.439 194.838 87.5054 194.752 87.5386C194.643 87.5742 183.625 91.0771 170.855 102.052C159.071 112.174 143.34 130.916 135.316 162.689C135.294 162.767 135.246 162.836 135.179 162.886C135.113 162.933 135.033 162.959 134.95 162.957H134.949Z" fill="#553597"/>
<path d="M129.781 103.797L122.423 119.227L113.515 114.999L116.496 108.748L115.509 105.472L118.798 98.5806L129.78 103.797H129.781Z" fill="#A78ED7"/>
<path d="M122.424 119.596C122.368 119.596 122.314 119.584 122.265 119.561L113.356 115.332C113.269 115.289 113.201 115.214 113.168 115.122C113.134 115.03 113.141 114.929 113.181 114.841L116.101 108.719L115.159 105.579C115.131 105.492 115.138 105.397 115.176 105.313L118.464 98.422C118.484 98.3778 118.513 98.3384 118.549 98.3065C118.585 98.2745 118.628 98.2487 118.673 98.2339C118.766 98.2019 118.866 98.2069 118.954 98.2487L129.94 103.465C129.984 103.486 130.023 103.516 130.056 103.551C130.088 103.587 130.114 103.629 130.13 103.676C130.147 103.724 130.154 103.774 130.152 103.824C130.149 103.875 130.137 103.925 130.115 103.971L122.757 119.39C122.727 119.452 122.68 119.505 122.621 119.542C122.562 119.579 122.494 119.599 122.424 119.599V119.596ZM114.009 114.825L122.25 118.738L129.288 103.971L118.974 99.07L115.908 105.501L116.853 108.642C116.877 108.729 116.87 108.822 116.832 108.903L114.01 114.825H114.009Z" fill="#553597"/>
<path d="M149.379 106.315C153.891 106.315 157.55 102.665 157.55 98.1625C157.55 93.6601 153.892 90.0098 149.379 90.0098C144.867 90.0098 141.21 93.6601 141.21 98.1625C141.21 102.665 144.868 106.315 149.379 106.315Z" fill="white"/>
<path d="M149.388 106.68C147.952 106.682 146.538 106.323 145.278 105.634C144.018 104.946 142.952 103.952 142.18 102.744C141.407 101.535 140.953 100.152 140.858 98.7219C140.763 97.292 141.031 95.8609 141.638 94.5613C142.244 93.2617 143.169 92.1367 144.327 91.2884C145.485 90.44 146.839 89.8978 148.263 89.7109C149.687 89.5241 151.136 89.6987 152.474 90.2175C153.813 90.7376 154.999 91.5859 155.921 92.6839C156.966 93.9256 157.635 95.4391 157.847 97.0473C158.06 98.6555 157.809 100.289 157.122 101.76C156.436 103.23 155.345 104.473 153.975 105.346C152.605 106.218 151.014 106.682 149.389 106.683L149.388 106.68ZM149.373 90.3773C147.599 90.3798 145.878 90.9859 144.496 92.0962C143.114 93.2064 142.151 94.7543 141.771 96.483C141.389 98.2129 141.609 100.02 142.395 101.608C143.181 103.195 144.487 104.467 146.096 105.214C147.705 105.96 149.521 106.137 151.245 105.715C152.968 105.294 154.496 104.296 155.575 102.891C156.654 101.486 157.221 99.7547 157.182 97.9842C157.141 96.2137 156.498 94.5097 155.357 93.1535C154.624 92.2818 153.709 91.5822 152.675 91.1015C151.641 90.622 150.514 90.3736 149.374 90.3761L149.373 90.3773Z" fill="#553597"/>
<path d="M150.651 102.391L145.43 96.178L152.371 95.6567L150.651 102.392V102.391Z" fill="#6F46BE"/>
<path d="M150.651 102.76C150.597 102.76 150.544 102.747 150.496 102.725C150.448 102.702 150.404 102.669 150.37 102.627L145.146 96.4142C145.102 96.3625 145.074 96.3011 145.064 96.2334C145.054 96.167 145.061 96.0982 145.087 96.0367C145.114 95.974 145.157 95.9199 145.213 95.8806C145.268 95.84 145.332 95.8166 145.401 95.8105L152.345 95.2916C152.403 95.2867 152.462 95.2966 152.516 95.3187C152.57 95.3408 152.618 95.3765 152.655 95.4207C152.692 95.465 152.719 95.5179 152.732 95.5757C152.744 95.6334 152.743 95.6925 152.728 95.7478L151.008 102.479C150.992 102.546 150.959 102.606 150.91 102.653C150.862 102.701 150.8 102.733 150.733 102.747C150.706 102.756 150.679 102.76 150.651 102.76ZM146.174 96.4843L150.47 101.598L151.885 96.0576L146.174 96.4855V96.4843Z" fill="#553597"/>
<path d="M138.926 135.5L133.614 149.083L142.876 152.692L148.188 139.108L138.926 135.5Z" fill="#A78ED7"/>
<path d="M142.88 153.069C142.834 153.069 142.79 153.062 142.746 153.046L133.483 149.437C133.438 149.419 133.397 149.393 133.361 149.36C133.327 149.326 133.298 149.286 133.279 149.242C133.259 149.198 133.249 149.15 133.248 149.101C133.248 149.053 133.255 149.005 133.274 148.959L138.592 135.374C138.629 135.285 138.699 135.212 138.787 135.172C138.834 135.152 138.884 135.141 138.935 135.141C138.985 135.141 139.036 135.152 139.083 135.172L148.346 138.78C148.437 138.817 148.51 138.887 148.549 138.977C148.589 139.065 148.591 139.167 148.557 139.258L143.238 152.843C143.212 152.912 143.165 152.972 143.104 153.014C143.042 153.055 142.969 153.077 142.896 153.075L142.881 153.069H142.88ZM134.095 148.885L142.664 152.223L147.708 139.329L139.139 135.988L134.095 148.885Z" fill="#553597"/>
<path d="M133.617 149.463C133.536 149.462 133.457 149.434 133.393 149.385C133.329 149.334 133.283 149.264 133.262 149.185C133.242 149.107 133.248 149.024 133.28 148.949C133.312 148.874 133.366 148.812 133.436 148.771L141.461 144.324L138.581 135.625C138.562 135.579 138.554 135.528 138.555 135.478C138.556 135.427 138.569 135.378 138.59 135.333C138.611 135.287 138.641 135.247 138.68 135.212C138.718 135.179 138.761 135.154 138.809 135.138C138.857 135.123 138.907 135.116 138.958 135.121C139.008 135.126 139.057 135.141 139.101 135.164C139.145 135.189 139.183 135.222 139.215 135.261C139.246 135.301 139.268 135.346 139.282 135.395L142.26 144.381C142.286 144.462 142.283 144.55 142.252 144.63C142.221 144.71 142.164 144.776 142.088 144.82L133.797 149.417C133.742 149.446 133.68 149.462 133.617 149.463Z" fill="#553597"/>
<path d="M116.405 114.236C116.346 114.236 116.288 114.222 116.236 114.194C116.149 114.15 116.083 114.072 116.054 113.979C116.024 113.885 116.032 113.784 116.076 113.698L117.477 110.985C117.521 110.898 117.599 110.832 117.692 110.802C117.786 110.771 117.887 110.78 117.975 110.824C118.062 110.868 118.127 110.946 118.158 111.039C118.189 111.132 118.18 111.233 118.136 111.321L116.733 114.036C116.702 114.097 116.654 114.147 116.597 114.182C116.539 114.216 116.473 114.234 116.405 114.234V114.236Z" fill="#553597"/>
<path d="M117.969 114.972C117.911 114.972 117.853 114.957 117.8 114.93C117.757 114.908 117.717 114.877 117.687 114.841C117.654 114.804 117.631 114.761 117.616 114.714C117.602 114.667 117.597 114.619 117.6 114.57C117.604 114.522 117.619 114.474 117.641 114.431L119.042 111.718C119.061 111.672 119.091 111.63 119.128 111.596C119.165 111.562 119.208 111.536 119.256 111.518C119.304 111.501 119.353 111.495 119.404 111.498C119.454 111.501 119.502 111.515 119.548 111.537C119.592 111.56 119.632 111.592 119.665 111.63C119.697 111.67 119.721 111.714 119.735 111.762C119.749 111.81 119.754 111.86 119.746 111.911C119.74 111.961 119.724 112.009 119.698 112.052L118.298 114.762C118.268 114.823 118.221 114.875 118.163 114.912C118.105 114.949 118.039 114.968 117.97 114.968L117.969 114.972Z" fill="#553597"/>
<path d="M142.932 201.796C142.834 201.8 142.739 201.764 142.667 201.698C142.596 201.632 142.553 201.539 142.55 201.441C142.547 201.344 142.582 201.248 142.649 201.177C142.715 201.105 142.808 201.064 142.906 201.06C143.394 201.024 144.062 200.992 144.836 200.953C148.278 200.78 156.335 200.379 157.186 198.945C157.22 198.892 157.237 198.832 157.237 198.769C157.237 198.707 157.22 198.646 157.186 198.595C157.165 198.551 157.153 198.504 157.149 198.456C157.147 198.407 157.154 198.359 157.169 198.313C157.185 198.268 157.211 198.225 157.243 198.189C157.275 198.152 157.314 198.123 157.358 198.102C157.401 198.081 157.449 198.069 157.497 198.066C157.545 198.062 157.594 198.07 157.64 198.086C157.685 198.102 157.728 198.126 157.764 198.158C157.8 198.19 157.829 198.23 157.852 198.273C157.938 198.435 157.981 198.617 157.976 198.8C157.972 198.983 157.919 199.163 157.825 199.32C156.852 200.957 150.896 201.385 144.874 201.678C144.105 201.718 143.441 201.75 142.962 201.782L142.932 201.796Z" fill="#553597"/>
<path d="M137.567 198.424C137.498 198.424 137.43 198.404 137.371 198.366C137.312 198.329 137.265 198.276 137.236 198.214C137.215 198.171 137.202 198.123 137.2 198.075C137.198 198.026 137.204 197.978 137.221 197.932C137.237 197.885 137.263 197.844 137.295 197.808C137.327 197.772 137.366 197.743 137.411 197.722L139.748 196.625C139.836 196.583 139.939 196.578 140.031 196.613C140.123 196.646 140.199 196.715 140.241 196.803C140.282 196.892 140.286 196.994 140.253 197.085C140.22 197.177 140.151 197.252 140.062 197.294L137.727 198.391C137.677 198.414 137.623 198.425 137.568 198.424H137.567Z" fill="#553597"/>
<path d="M86.6611 199.689C86.5675 199.688 86.4775 199.652 86.4098 199.587C86.342 199.523 86.3001 199.436 86.2952 199.342C86.289 199.249 86.3198 199.157 86.379 199.085C86.4381 199.013 86.5231 198.966 86.6168 198.954L89.7189 198.589C89.7682 198.58 89.8187 198.583 89.868 198.594C89.916 198.606 89.9628 198.628 90.0023 198.658C90.0429 198.687 90.0762 198.725 90.1008 198.768C90.1255 198.812 90.1415 198.86 90.1476 198.91C90.1538 198.959 90.1489 199.009 90.1353 199.057C90.1218 199.105 90.0971 199.149 90.0651 199.187C90.0331 199.227 89.9936 199.258 89.9493 199.281C89.9049 199.303 89.8557 199.317 89.8064 199.32L86.7129 199.689H86.6623H86.6611Z" fill="#553597"/>
<path d="M86.6405 184.167C86.5555 184.167 86.4729 184.137 86.4076 184.083C86.3423 184.029 86.2967 183.954 86.2795 183.871L84.1408 173.604C84.126 173.555 84.1223 173.504 84.1297 173.454C84.1358 173.404 84.1531 173.354 84.179 173.311C84.2048 173.268 84.2406 173.23 84.2812 173.201C84.3231 173.171 84.3699 173.151 84.4192 173.14C84.4685 173.131 84.5202 173.131 84.5707 173.14C84.62 173.151 84.6681 173.171 84.7087 173.201C84.7494 173.23 84.7851 173.268 84.811 173.311C84.8368 173.354 84.8541 173.404 84.8602 173.454L87.0051 183.721C87.015 183.769 87.015 183.819 87.0051 183.867C86.9953 183.914 86.9768 183.96 86.9485 184.002C86.9214 184.042 86.8856 184.077 86.845 184.104C86.8043 184.13 86.7575 184.148 86.7095 184.158C86.6861 184.163 86.6626 184.167 86.638 184.167H86.6405Z" fill="#553597"/>
<path d="M121.043 173.982C120.972 173.983 120.902 173.962 120.841 173.923C120.781 173.885 120.734 173.829 120.706 173.764L116.436 164.033C116.416 163.988 116.405 163.94 116.404 163.892C116.404 163.843 116.411 163.795 116.428 163.75C116.446 163.706 116.473 163.664 116.506 163.629C116.539 163.594 116.58 163.565 116.624 163.546C116.669 163.527 116.717 163.516 116.765 163.515C116.813 163.514 116.861 163.522 116.906 163.54C116.952 163.558 116.993 163.584 117.027 163.617C117.062 163.65 117.09 163.691 117.11 163.735L121.382 173.465C121.42 173.555 121.423 173.657 121.386 173.748C121.349 173.839 121.28 173.913 121.19 173.952C121.143 173.972 121.093 173.982 121.042 173.982H121.043Z" fill="#553597"/>
<path d="M84.5005 173.53L92.6969 198.751L89.7623 198.966L84.5005 173.53Z" fill="#553597"/>
<path d="M116.775 163.9L122.022 172.218L121.044 173.613L116.774 163.9H116.775Z" fill="#553597"/>
<path d="M254.242 114.035V134.166C254.242 137.26 253.01 140.229 250.817 142.418C248.624 144.606 245.649 145.836 242.548 145.836H212.409L195.423 155.458L202.996 145.836L203.046 145.789C200.136 145.531 197.428 144.194 195.456 142.043C193.485 139.891 192.391 137.081 192.392 134.166V114.035C192.392 110.94 193.624 107.971 195.818 105.784C198.011 103.595 200.985 102.366 204.086 102.365H242.55C245.651 102.366 248.625 103.597 250.817 105.785C253.01 107.974 254.242 110.942 254.242 114.036V114.035Z" fill="white"/>
<path d="M195.423 155.827C195.37 155.827 195.317 155.816 195.269 155.794C195.219 155.772 195.176 155.74 195.142 155.7C195.088 155.634 195.058 155.55 195.058 155.465C195.058 155.381 195.088 155.297 195.142 155.231L202.349 146.091C199.489 145.657 196.879 144.218 194.988 142.033C193.097 139.85 192.049 137.064 192.033 134.177V114.035C192.037 110.844 193.309 107.783 195.571 105.526C197.832 103.269 200.899 102 204.097 101.996H242.55C245.748 102 248.815 103.27 251.077 105.527C253.337 107.785 254.61 110.844 254.614 114.037V134.167C254.611 137.359 253.339 140.419 251.077 142.676C248.815 144.934 245.748 146.204 242.55 146.206H212.519L195.603 155.78C195.548 155.812 195.485 155.828 195.423 155.828V155.827ZM203.267 146.095L196.87 154.226L212.234 145.527C212.29 145.494 212.354 145.477 212.418 145.477H242.556C245.559 145.473 248.438 144.282 250.56 142.162C252.684 140.044 253.878 137.171 253.881 134.174V114.035C253.877 111.039 252.683 108.167 250.559 106.047C248.436 103.929 245.559 102.736 242.556 102.733H204.086C201.084 102.736 198.205 103.928 196.081 106.046C193.958 108.164 192.764 111.038 192.76 114.034V134.165C192.774 136.985 193.837 139.7 195.743 141.782C197.65 143.864 200.264 145.165 203.078 145.432C203.148 145.438 203.216 145.464 203.273 145.507C203.328 145.551 203.371 145.609 203.395 145.676C203.417 145.743 203.421 145.815 203.403 145.884C203.387 145.953 203.351 146.016 203.3 146.065L203.267 146.094V146.095Z" fill="#553597"/>
<path opacity="0.15" d="M248.658 109.977H197.977V115.154H248.658V109.977Z" fill="white"/>
<path opacity="0.15" d="M248.658 117.293H197.977V122.471H248.658V117.293Z" fill="white"/>
<path opacity="0.15" d="M248.658 124.605H197.977V129.783H248.658V124.605Z" fill="white"/>
<path opacity="0.15" d="M248.658 131.922H197.977V137.099H248.658V131.922Z" fill="white"/>
<path opacity="0.35" d="M248.658 109.977H197.977V115.154H248.658V109.977Z" fill="white"/>
<path d="M248.658 115.524H197.977C197.878 115.524 197.784 115.485 197.715 115.416C197.645 115.347 197.607 115.254 197.607 115.155V109.978C197.607 109.88 197.645 109.786 197.715 109.717C197.784 109.648 197.878 109.609 197.977 109.609H248.658C248.755 109.609 248.849 109.648 248.919 109.717C248.988 109.786 249.027 109.88 249.027 109.978V115.155C249.027 115.252 248.988 115.347 248.919 115.416C248.849 115.485 248.755 115.524 248.658 115.524ZM198.345 114.787H248.28V110.343H198.345V114.787Z" fill="#553597"/>
<path opacity="0.35" d="M248.658 117.293H197.977V122.471H248.658V117.293Z" fill="white"/>
<path d="M248.658 122.84H197.977C197.878 122.84 197.784 122.8 197.715 122.731C197.645 122.663 197.607 122.569 197.607 122.471V117.293C197.607 117.196 197.645 117.102 197.715 117.033C197.784 116.964 197.878 116.925 197.977 116.925H248.658C248.755 116.925 248.849 116.964 248.919 117.033C248.988 117.102 249.027 117.195 249.027 117.293V122.471C249.027 122.568 248.988 122.663 248.919 122.731C248.849 122.8 248.755 122.84 248.658 122.84ZM198.345 122.102H248.28V117.661H198.345V122.102Z" fill="#553597"/>
<path opacity="0.35" d="M248.658 124.605H197.977V129.783H248.658V124.605Z" fill="white"/>
<path d="M248.658 130.153H197.977C197.878 130.153 197.784 130.113 197.715 130.044C197.645 129.976 197.607 129.881 197.607 129.784V124.606C197.607 124.508 197.645 124.415 197.715 124.346C197.784 124.277 197.878 124.238 197.977 124.238H248.658C248.755 124.238 248.849 124.277 248.919 124.346C248.988 124.415 249.027 124.508 249.027 124.606V129.784C249.027 129.881 248.988 129.976 248.919 130.044C248.849 130.113 248.755 130.153 248.658 130.153ZM198.345 129.415H248.28V124.974H198.345V129.415Z" fill="#553597"/>
<path opacity="0.35" d="M248.658 131.922H197.977V137.099H248.658V131.922Z" fill="white"/>
<path d="M248.658 137.471H197.977C197.878 137.471 197.784 137.433 197.715 137.363C197.645 137.294 197.607 137.2 197.607 137.102V131.922C197.607 131.824 197.645 131.73 197.715 131.661C197.784 131.593 197.878 131.553 197.977 131.553H248.658C248.755 131.553 248.849 131.593 248.919 131.661C248.988 131.73 249.027 131.824 249.027 131.922V137.099C249.027 137.149 249.018 137.197 248.999 137.241C248.981 137.286 248.954 137.327 248.919 137.363C248.886 137.397 248.844 137.424 248.8 137.442C248.754 137.461 248.706 137.471 248.658 137.471ZM198.345 136.734H248.28V132.29H198.345V136.734Z" fill="#553597"/>
<path d="M227.363 109.977H197.977V115.154H227.363V109.977Z" fill="#6F46BE"/>
<path d="M227.355 115.524H197.977C197.878 115.524 197.784 115.485 197.715 115.416C197.645 115.347 197.607 115.254 197.607 115.155V109.978C197.607 109.88 197.645 109.786 197.715 109.717C197.784 109.648 197.878 109.609 197.977 109.609H227.355C227.452 109.609 227.547 109.648 227.616 109.717C227.685 109.786 227.724 109.88 227.724 109.978V115.155C227.724 115.252 227.685 115.347 227.616 115.416C227.547 115.485 227.452 115.524 227.355 115.524ZM198.334 114.787H226.994V110.343H198.334V114.787Z" fill="#553597"/>
<path d="M242.636 117.293H197.977V122.471H242.636V117.293Z" fill="#A78ED7"/>
<path d="M242.636 122.84H197.977C197.878 122.84 197.784 122.8 197.715 122.731C197.645 122.663 197.607 122.569 197.607 122.471V117.293C197.607 117.196 197.645 117.102 197.715 117.033C197.784 116.964 197.878 116.925 197.977 116.925H242.636C242.734 116.925 242.828 116.964 242.897 117.033C242.966 117.102 243.006 117.195 243.006 117.293V122.471C243.006 122.568 242.966 122.663 242.897 122.731C242.828 122.8 242.734 122.84 242.636 122.84ZM198.345 122.102H242.267V117.661H198.345V122.102Z" fill="#553597"/>
<path d="M220.305 124.605H197.977V129.783H220.305V124.605Z" fill="#6F46BE"/>
<path d="M220.308 130.153H197.977C197.878 130.153 197.784 130.113 197.715 130.044C197.645 129.976 197.607 129.881 197.607 129.784V124.606C197.607 124.508 197.645 124.415 197.715 124.346C197.784 124.277 197.878 124.238 197.977 124.238H220.308C220.405 124.238 220.5 124.277 220.569 124.346C220.638 124.415 220.677 124.508 220.677 124.606V129.784C220.677 129.881 220.638 129.976 220.569 130.044C220.5 130.113 220.405 130.153 220.308 130.153ZM198.345 129.415H219.938V124.974H198.345V129.415Z" fill="#553597"/>
<path d="M235.223 131.922H197.977V137.099H235.223V131.922Z" fill="#A78ED7"/>
<path d="M235.226 137.471H197.977C197.878 137.471 197.784 137.433 197.715 137.363C197.645 137.294 197.607 137.2 197.607 137.102V131.922C197.607 131.824 197.645 131.73 197.715 131.661C197.784 131.593 197.878 131.553 197.977 131.553H235.226C235.323 131.553 235.418 131.593 235.487 131.661C235.556 131.73 235.595 131.824 235.595 131.922V137.099C235.595 137.149 235.587 137.197 235.568 137.241C235.55 137.286 235.523 137.327 235.488 137.363C235.454 137.397 235.413 137.424 235.367 137.442C235.323 137.461 235.275 137.471 235.226 137.471ZM198.345 136.734H234.856V132.29H198.345V136.734Z" fill="#553597"/>
</g>
<defs>
<clipPath id="clip0_609_1040">
<rect width="200.896" height="175.129" fill="white" transform="translate(53.7178 45.2833)"/>
</clipPath>
</defs>
</svg>
