<svg width="59" height="59" viewBox="0 0 59 59" fill="none" xmlns="http://www.w3.org/2000/svg">
<path d="M50.2199 53.4075V52.2997H54.3617C54.5583 52.2997 54.7477 52.2175 54.8799 52.071C55.0121 51.928 55.08 51.7315 55.0622 51.5349L53.6649 35.4966C53.3433 31.7872 50.4201 28.8354 46.7142 28.4744L46.2532 28.4316V13.3438C46.2532 7.48305 41.486 2.71228 35.6217 2.71228C29.7574 2.71228 24.9903 7.48305 24.9903 13.3438V28.4816C21.3059 28.8568 18.4005 31.8015 18.0789 35.4966L16.6816 51.5349C16.6637 51.7315 16.7281 51.928 16.8603 52.071C16.9961 52.2175 17.1819 52.2997 17.3785 52.2997H21.7812V53.4075H15.7096V42.2293C15.7096 41.8433 15.3951 41.5288 15.0056 41.5288H4.9566C4.56707 41.5288 4.2526 41.8433 4.2526 42.2293V43.8052H3.36991C1.82254 43.8052 0.561057 45.0667 0.561057 46.6177V49.7231C0.561057 51.2741 1.82254 52.532 3.36991 52.532H4.2526V53.4075H0V54.8119H58.2498V53.4075H50.2199ZM4.2526 51.1275H3.36991C2.59444 51.1275 1.96549 50.4986 1.96549 49.7231V46.6177C1.96549 45.8422 2.59444 45.2132 3.36991 45.2132H4.2526V51.1275ZM14.3052 53.4075H5.65702V42.9333H14.3052V53.4075ZM26.3983 13.3438C26.3983 8.25495 30.5365 4.11671 35.6217 4.11671C40.707 4.11671 44.8488 8.25495 44.8488 13.3438V28.2922L41.1358 27.9312L40.3746 24.5649C41.9149 22.2671 42.8762 18.8507 42.8762 14.9662C42.8762 14.7768 42.7976 14.591 42.6582 14.4587C42.5188 14.3265 42.3294 14.2515 42.14 14.2658C42.1114 14.2658 39.2168 14.3801 37.6373 13.4831C36.0184 12.5647 34.0529 9.6558 34.0315 9.62364C33.8528 9.35919 33.5169 9.24841 33.2131 9.35919C32.9094 9.46998 32.72 9.77373 32.7486 10.0954C32.7557 10.1382 32.8486 11.2282 31.8158 12.3932C30.683 13.6761 28.8676 14.2943 28.8498 14.3015C28.5639 14.398 28.3709 14.666 28.3709 14.9662C28.3709 19.158 29.493 22.7995 31.2476 25.0831L30.608 27.9312L26.3983 28.3422V13.3438ZM31.9266 28.478L32.4126 26.3124C33.3775 27.1236 34.4603 27.5882 35.6217 27.5882C36.9511 27.5882 38.184 26.9842 39.2454 25.9407L39.8172 28.478L35.9326 35.5859H35.8076L31.9266 28.478ZM34.2066 35.5859H32.845L28.2387 32.1302L30.9868 29.693L34.2066 35.5859ZM33.2953 12.7756C33.4811 12.504 33.6277 12.2395 33.742 11.9858C33.7813 11.9036 33.8135 11.8214 33.8457 11.7392C34.6497 12.7506 35.8254 14.0728 36.9404 14.7053C38.3341 15.4951 40.3711 15.6487 41.4574 15.6738C41.2609 21.438 38.67 26.1838 35.6217 26.1838C35.5395 26.1838 35.4574 26.1802 35.3752 26.173C35.3573 26.1695 35.3394 26.1695 35.318 26.1659C35.2394 26.1587 35.1607 26.148 35.0857 26.1337C35.0249 26.123 34.9678 26.1087 34.9106 26.0944H34.907C32.141 25.4154 29.9075 20.8519 29.7825 15.4451C30.5008 15.1413 31.8695 14.4552 32.8665 13.3259C33.0309 13.1401 33.1738 12.9578 33.2953 12.7756ZM40.7534 29.693L43.5051 32.1302L38.8952 35.5859H37.5372L40.7534 29.693ZM21.7812 38.3983V50.8953H18.1468L19.4762 35.6181C19.7406 32.5841 22.1349 30.1683 25.1654 29.8753L29.0963 29.4893L26.6627 31.6514C26.5055 31.7907 26.4161 31.9944 26.4268 32.2053C26.434 32.4161 26.5376 32.6127 26.7056 32.7413L30.5043 35.5859H24.59C23.0391 35.5859 21.7812 36.8474 21.7812 38.3983ZM48.8155 53.4075H23.1856V38.3983C23.1856 37.6229 23.8145 36.9939 24.59 36.9939H47.4111C48.183 36.9939 48.8155 37.6229 48.8155 38.3983V53.4075ZM47.4111 35.5859H41.2395L45.0346 32.7413C45.2062 32.6127 45.3062 32.4161 45.3169 32.2053C45.3241 31.9944 45.2383 31.7907 45.0811 31.6514L42.6439 29.4893L46.5784 29.8753C49.6088 30.1683 51.9996 32.5841 52.264 35.6181L53.597 50.8953H50.2199V38.3983C50.2199 36.8474 48.9585 35.5859 47.4111 35.5859ZM11.1104 36.8867L10.6208 36.2149C10.4993 36.0469 10.4564 35.8325 10.51 35.6324L10.9781 33.7562L9.61301 33.4132L9.14487 35.2893C8.99478 35.8968 9.11628 36.5365 9.48436 37.0439L9.95965 37.6908L9.87746 38.6771L9.19132 39.6491L10.3385 40.4603L11.1282 39.3418C11.65 38.602 11.6428 37.6157 11.1104 36.8867ZM13.9192 36.8867L13.4332 36.2149C13.3081 36.0469 13.2688 35.8325 13.3188 35.6324L13.787 33.7562L12.4254 33.4132L11.9573 35.2893C11.8036 35.8968 11.9287 36.5365 12.2968 37.0439L12.7685 37.6908L12.6899 38.6771L12.0002 39.6491L13.1473 40.4603L13.9406 39.3418C14.4588 38.602 14.4517 37.6157 13.9192 36.8867ZM8.30149 36.8867L7.81191 36.2149C7.69041 36.0469 7.64752 35.8325 7.69756 35.6324L8.1657 33.7562L6.80415 33.4132L6.33601 35.2893C6.18234 35.8968 6.30742 36.5365 6.6755 37.0439L7.14722 37.6908L7.0686 38.6771L6.37889 39.6491L7.5296 40.4603L8.31936 39.3418C8.83754 38.602 8.83039 37.6157 8.30149 36.8867Z" fill="#6F46BE"/>
<path d="M14.3051 42.9333H5.65692V53.4076H14.3051V42.9333Z" fill="#EDE3FF"/>
<path d="M41.4573 15.6738C41.2608 21.438 38.6699 26.1838 35.6216 26.1838C32.5733 26.1838 29.9181 21.313 29.7823 15.4451C30.5006 15.1413 31.8693 14.4552 32.8664 13.3259C33.3524 12.7756 33.6561 12.2288 33.8455 11.7393C34.6496 12.7506 35.8253 14.0728 36.9403 14.7054C38.334 15.4951 40.3709 15.6488 41.4573 15.6738ZM26.7055 32.7414C26.5375 32.6127 26.4339 32.4162 26.4267 32.2053C26.416 31.9945 26.5053 31.7908 26.6626 31.6514L29.0962 29.4894L25.1652 29.8753C22.1348 30.1684 19.7405 32.5841 19.4761 35.6181L18.1467 50.8953H21.781V38.3984C21.781 36.8474 23.0389 35.586 24.5899 35.586H30.5042L26.7055 32.7414ZM53.5969 50.8953L52.2639 35.6181C51.9995 32.5841 49.6087 30.1684 46.5783 29.8753L42.6438 29.4894L45.081 31.6514C45.2382 31.7908 45.324 31.9945 45.3168 32.2053C45.3061 32.4162 45.206 32.6127 45.0345 32.7414L41.2393 35.586H47.411C48.9583 35.586 50.2198 36.8474 50.2198 38.3984V50.8953H53.5969Z" fill="#EDE3FF"/>
</svg>
