<svg width="48" height="44" viewBox="0 0 48 44" fill="none" xmlns="http://www.w3.org/2000/svg">
<path d="M43.5858 24.7799L38.8627 29.503L38.7485 29.6172L37.7052 28.5714L38.9042 27.3724L42.5426 23.7367C47.5771 18.6995 47.5771 10.5041 42.5426 5.46698C37.7494 0.676377 30.0211 0.453195 24.9606 4.82858C24.7659 4.99726 24.5739 5.17373 24.387 5.35539L23.3542 4.29917C23.5307 4.1279 23.7097 3.96181 23.8914 3.80091C29.5332 -1.16876 38.2165 -0.948173 43.5858 4.42374C49.1991 10.0344 49.1991 19.1667 43.5858 24.7799Z" fill="#6F46BE"/>
<path d="M34.9052 14.7706L24.9607 4.82862L24.5507 4.41859C24.3353 4.20319 24.1173 3.99818 23.8915 3.80095C18.2471 -1.18689 9.59236 -0.979275 4.19449 4.41859C-1.30458 9.91507 -1.40319 18.889 3.93758 24.5127C3.90384 24.6969 3.88567 24.8864 3.88048 25.0758C3.86232 26.0334 4.21266 26.9183 4.86663 27.5723C5.50244 28.2081 6.34585 28.5662 7.25155 28.5844C7.27231 28.587 7.29567 28.587 7.31643 28.587C8.04047 28.587 8.81122 28.1926 8.89686 28.1484L8.21175 26.8405C8.1858 26.8535 8.15725 26.8664 8.12611 26.882C7.90553 26.9832 7.55518 27.1078 7.31643 27.1078C6.78443 27.1078 6.28357 26.9002 5.90987 26.5265C5.53617 26.1528 5.34673 25.6571 5.35711 25.1069C5.37009 24.5594 5.59067 24.03 5.96697 23.6537L19.8198 9.7931L26.6657 16.7454C28.9235 19.0032 32.5255 19.0681 34.8637 16.896C35.1621 16.6209 35.3282 16.2472 35.336 15.8423C35.3438 15.4375 35.1907 15.056 34.9052 14.7706ZM27.7141 15.7048L19.8249 7.69364L4.92372 22.6104C4.79656 22.735 4.67978 22.8699 4.57598 23.0153C0.223949 17.9522 0.457511 10.2421 5.23773 5.46183C7.7576 2.94456 11.0664 1.68333 14.3726 1.68333C17.6788 1.68333 20.9902 2.94456 23.5074 5.46183L33.8594 15.8138C32.1051 17.4435 29.4036 17.3916 27.7141 15.7048Z" fill="#6F46BE"/>
<path d="M16.3501 34.1301L17.3726 35.1552L16.5318 35.996C16.4565 36.0713 16.3761 36.1439 16.2956 36.2114C15.6754 36.7278 14.8994 37.0107 14.082 37.0133C13.2178 37.0133 12.39 36.6941 11.7516 36.1128C11.069 35.4951 10.6824 34.631 10.659 33.6786C10.6512 33.3542 10.6876 33.0298 10.7628 32.7158C9.81559 32.7495 8.91249 32.3914 8.23775 31.7322L8.20402 31.7011C7.35801 30.8551 7.0414 29.6769 7.25161 28.5843C7.37358 27.9641 7.66423 27.3724 8.12616 26.8819C8.14952 26.8534 8.17807 26.8248 8.20402 26.7989L18.5171 16.4858L18.5248 16.4962L19.5603 17.5317L16.2463 20.8457L9.24985 27.8421C8.4791 28.6129 8.47391 29.8637 9.23428 30.6397L9.25245 30.6578C10.0024 31.4078 11.313 31.4078 12.0656 30.6578L12.0734 30.6656L13.1088 31.7011C13.1088 31.7011 13.1062 31.7037 13.1062 31.7063L12.7766 32.0332C12.7221 32.0877 12.6728 32.1448 12.6235 32.2045C12.2991 32.6068 12.1227 33.1206 12.1356 33.6448C12.1486 34.1872 12.364 34.6751 12.7455 35.0202C13.1114 35.3524 13.5837 35.5341 14.0794 35.5341C14.6114 35.5341 15.1122 35.3265 15.4859 34.9528L16.3294 34.1094L16.3501 34.1301Z" fill="#6F46BE"/>
<path d="M19.1358 15.888L15.2125 19.8113L16.2566 20.8554L20.1799 16.9321L19.1358 15.888Z" fill="#6F46BE"/>
<path d="M24.1483 20.6796L12.6234 32.2046L12.4132 32.4148L11.3699 31.369L12.0732 30.6657L23.1025 19.6338L24.1483 20.6796Z" fill="#6F46BE"/>
<path d="M38.9043 27.3725C38.7408 26.8405 38.4502 26.3526 38.0453 25.9478L33.4727 21.3752C32.1336 20.0361 29.9563 20.0361 28.612 21.3752C27.9633 22.0239 27.6077 22.8855 27.6077 23.8042C27.6077 23.9391 27.6155 24.0767 27.6311 24.209C27.7193 24.972 28.0593 25.6779 28.612 26.2306L33.1847 30.8033C33.7426 31.3171 34.4537 31.6441 35.2063 31.7375C35.3568 31.7557 35.5073 31.7661 35.6604 31.7661H35.7486C36.6907 31.7427 37.5471 31.3586 38.1621 30.6813C38.4761 30.3361 38.7123 29.9339 38.8628 29.5005C38.9874 29.1424 39.0522 28.7609 39.0522 28.3716C39.0522 28.0265 39.0003 27.6917 38.9043 27.3699V27.3725ZM37.067 29.6925C36.7296 30.0662 36.2469 30.279 35.7123 30.292C35.1025 30.2998 34.5419 30.074 34.1267 29.6588L29.6579 25.19C29.2868 24.8189 29.0844 24.3284 29.0844 23.8068C29.0844 23.2852 29.2868 22.7921 29.6605 22.4184C30.4234 21.6554 31.6639 21.6554 32.4269 22.4184L36.9995 26.991C37.3706 27.3595 37.573 27.8526 37.5756 28.3768C37.5756 28.8647 37.394 29.3318 37.067 29.6925Z" fill="#6F46BE"/>
<path d="M35.2062 31.7402C35.1076 30.9928 34.7702 30.3025 34.2304 29.7627L34.1266 29.6589L29.6578 25.1901C29.0895 24.6217 28.3732 24.2947 27.631 24.2117C26.6241 24.0923 25.5705 24.4193 24.7971 25.1926C24.0264 25.9634 23.6994 27.0144 23.8188 28.0239C23.9018 28.7661 24.2288 29.4824 24.7971 30.0507L29.3697 34.6207C29.9277 35.132 30.6387 35.459 31.3887 35.555C31.5393 35.5732 31.6924 35.5835 31.8455 35.5835H31.9337C32.8757 35.5602 33.7321 35.1761 34.3446 34.5014C34.9207 33.8682 35.2373 33.0481 35.2373 32.1917C35.2373 32.0386 35.2269 31.8881 35.2062 31.7402ZM33.252 33.5074C32.9121 33.8811 32.432 34.0939 31.8974 34.1069C31.2927 34.1069 30.727 33.8915 30.3118 33.4737L25.8404 29.0049C25.08 28.2419 25.08 27.0015 25.8455 26.2333C26.227 25.8518 26.7279 25.6624 27.2287 25.6624C27.7296 25.6624 28.2305 25.8518 28.612 26.2333L33.1846 30.8059C33.5531 31.177 33.7581 31.6701 33.7607 32.1917C33.7607 32.6796 33.579 33.1467 33.252 33.5074Z" fill="#6F46BE"/>
<path d="M31.3887 35.5549C31.2927 34.8075 30.9553 34.1198 30.4129 33.5774L25.8403 29.0048C25.2901 28.452 24.5817 28.1121 23.8187 28.0238C23.6863 28.0083 23.5488 28.0005 23.4139 28.0005C22.4952 28.0005 21.6336 28.356 20.9822 29.0074C20.2089 29.7807 19.8819 30.8344 20.0039 31.8439C20.0895 32.5835 20.4165 33.2997 20.9822 33.8655L25.451 38.3343C26.022 38.9052 26.7745 39.2711 27.5738 39.3723C27.7244 39.3905 27.8775 39.4009 28.0306 39.4009C28.0591 39.4009 28.0877 39.3983 28.1162 39.3983C29.0609 39.3749 29.9172 38.9909 30.5297 38.3161C31.1058 37.6829 31.4198 36.8629 31.4198 36.0065C31.4198 35.8533 31.4094 35.7028 31.3887 35.5549ZM29.4372 37.3222C29.0972 37.6959 28.6171 37.9087 28.0825 37.9217C27.5219 37.9294 26.9822 37.7322 26.5721 37.3663L22.0255 32.8196C21.2625 32.0567 21.2625 30.8162 22.0281 30.0506C22.3992 29.6795 22.8896 29.4771 23.4139 29.4771C23.9381 29.4771 24.4286 29.6795 24.7971 30.0506L29.3697 34.6207C29.7382 34.9918 29.9432 35.4848 29.9432 36.0065C29.9432 36.4943 29.7641 36.9615 29.4372 37.3222Z" fill="#6F46BE"/>
<path d="M27.574 39.3724C27.4805 38.625 27.1406 37.9347 26.5982 37.3923L26.5722 37.3664L22.0256 32.8197C21.4598 32.2566 20.7436 31.9296 20.004 31.8439C18.9945 31.722 17.9408 32.049 17.1649 32.8249C16.7912 33.1986 16.5135 33.645 16.35 34.1303C16.2229 34.4858 16.1606 34.8647 16.1606 35.2513C16.1606 35.5809 16.2073 35.9027 16.2955 36.2115C16.4538 36.7617 16.7497 37.2652 17.1649 37.6804L21.6363 42.1518C22.3162 42.8291 23.2505 43.2158 24.2133 43.2158C24.2444 43.2158 24.273 43.2158 24.3015 43.2132C25.2435 43.1924 26.1025 42.8058 26.715 42.131C27.2885 41.4978 27.6051 40.6778 27.6051 39.8214C27.6051 39.6708 27.5947 39.5203 27.574 39.3724ZM25.6198 41.1397C25.2825 41.5108 24.7998 41.7236 24.2652 41.7366C23.6527 41.7495 23.0948 41.5212 22.6795 41.106L18.2107 36.6371C17.8396 36.266 17.6372 35.7756 17.6372 35.2513C17.6372 34.7271 17.8396 34.2392 18.2133 33.8655C18.9763 33.1026 20.2194 33.1026 20.9823 33.8655L25.4511 38.3344L25.5549 38.4382C25.9235 38.8067 26.1285 39.2997 26.1285 39.824C26.1285 40.3118 25.9468 40.779 25.6198 41.1397Z" fill="#6F46BE"/>
<path d="M42.5426 23.7367L38.9042 27.3725C38.7407 26.8405 38.45 26.3526 38.0452 25.9478L33.4726 21.3752C32.1335 20.0361 29.9562 20.0361 28.6119 21.3752C27.9631 22.024 27.6076 22.8855 27.6076 23.8042C27.6076 23.9392 27.6154 24.0767 27.631 24.2091C26.624 24.0897 25.5704 24.4167 24.7971 25.19C24.0263 25.9608 23.6993 27.0118 23.8187 28.0213C23.6864 28.0057 23.5488 27.9979 23.4139 27.9979C22.4952 27.9979 21.6336 28.3535 20.9822 29.0049C20.2089 29.7782 19.8819 30.8318 20.0039 31.8413C18.9944 31.7194 17.9407 32.0463 17.1648 32.8223C16.7911 33.196 16.5134 33.6423 16.3499 34.1276L16.3292 34.1069L15.4858 34.9503C15.1121 35.324 14.6112 35.5316 14.0792 35.5316C13.5835 35.5316 13.1112 35.3499 12.7453 35.0178C12.3638 34.6726 12.1484 34.1847 12.1354 33.6423C12.1225 33.1181 12.2989 32.6043 12.6233 32.2021L24.1483 20.6771L23.1025 19.6313L12.0732 30.6631L12.0654 30.6554C11.3128 31.4053 10.0023 31.4053 9.25226 30.6554L9.23409 30.6372C8.47372 29.8612 8.47891 28.6104 9.24966 27.8396L16.2461 20.8432L16.2539 20.851L20.1777 16.9271L19.1345 15.8839L18.5246 16.4937L18.5169 16.4834L8.20383 26.7964C8.17788 26.8224 8.14933 26.8509 8.12597 26.8794C7.90539 26.9807 7.55505 27.1052 7.31629 27.1052C6.78429 27.1052 6.28343 26.8976 5.90973 26.5239C5.53604 26.1502 5.34659 25.6545 5.35697 25.1044C5.36995 24.5568 5.59053 24.0274 5.96683 23.6511L19.8196 9.79053L26.6656 16.7429C28.9233 19.0006 32.5254 19.0655 34.8636 16.8934C35.162 16.6183 35.3281 16.2446 35.3359 15.8398C35.3437 15.4349 35.1906 15.0534 34.9051 14.768L24.9606 4.82605C30.0211 0.453262 37.7494 0.676443 42.5426 5.46705C47.5771 10.5042 47.5771 18.6996 42.5426 23.7367Z" fill="#EDE3FF"/>
</svg>
