<svg width="40" height="40" viewBox="0 0 40 40" fill="none" xmlns="http://www.w3.org/2000/svg">
<path d="M19.8396 39.6945C30.7968 39.6945 39.6793 30.8086 39.6793 19.8473C39.6793 8.88593 30.7968 0 19.8396 0C8.88251 0 0 8.88593 0 19.8473C0 30.8086 8.88251 39.6945 19.8396 39.6945Z" fill="#FEC601"/>
<path d="M12.4146 19.2992C14.3976 19.2992 16.0052 17.691 16.0052 15.7072C16.0052 13.7234 14.3976 12.1152 12.4146 12.1152C10.4315 12.1152 8.82397 13.7234 8.82397 15.7072C8.82397 17.691 10.4315 19.2992 12.4146 19.2992Z" fill="#C4A305"/>
<path d="M27.2644 19.2992C29.2475 19.2992 30.855 17.691 30.855 15.7072C30.855 13.7234 29.2475 12.1152 27.2644 12.1152C25.2814 12.1152 23.6738 13.7234 23.6738 15.7072C23.6738 17.691 25.2814 19.2992 27.2644 19.2992Z" fill="#C4A305"/>
<path d="M25.4384 27.9438H14.2405C13.3277 27.9438 12.5974 27.2133 12.5974 26.3C12.5974 25.3868 13.3277 24.6562 14.2405 24.6562H25.4384C26.3512 24.6562 27.0815 25.3868 27.0815 26.3C27.0815 27.2133 26.3512 27.9438 25.4384 27.9438Z" fill="#C4A305"/>
</svg>
