<svg width="40" height="40" viewBox="0 0 40 40" fill="none" xmlns="http://www.w3.org/2000/svg">
<path d="M19.6405 39.2962C30.4877 39.2962 39.2811 30.4995 39.2811 19.6481C39.2811 8.79676 30.4877 0 19.6405 0C8.79337 0 0 8.79676 0 19.6481C0 30.4995 8.79337 39.2962 19.6405 39.2962Z" fill="#7BCCB1"/>
<path d="M12.2301 19.106C14.1932 19.106 15.7847 17.514 15.7847 15.5501C15.7847 13.5862 14.1932 11.9941 12.2301 11.9941C10.267 11.9941 8.67554 13.5862 8.67554 15.5501C8.67554 17.514 10.267 19.106 12.2301 19.106Z" fill="#3D9974"/>
<path d="M26.9906 19.106C28.9538 19.106 30.5452 17.514 30.5452 15.5501C30.5452 13.5862 28.9538 11.9941 26.9906 11.9941C25.0275 11.9941 23.4361 13.5862 23.4361 15.5501C23.4361 17.514 25.0275 19.106 26.9906 19.106Z" fill="#3D9974"/>
<path d="M19.64 30.0147C14.2178 30.0147 12.6514 25.8561 12.5911 25.6753C12.2899 24.8315 12.7116 23.8672 13.5551 23.5658C14.3985 23.2645 15.3022 23.6864 15.6637 24.5302C15.7842 24.7713 16.6277 26.7602 19.64 26.7602C22.7729 26.7602 23.6163 24.5904 23.6163 24.5904C23.9176 23.7466 24.8815 23.3248 25.725 23.6261C26.5684 23.9275 26.9902 24.8918 26.6889 25.7356C26.6287 25.8561 25.0623 30.0147 19.64 30.0147Z" fill="#3D9974"/>
</svg>
