<svg width="437" height="175" viewBox="0 0 437 175" fill="none" xmlns="http://www.w3.org/2000/svg">
<rect width="221.903" height="88.1553" rx="44.0776" transform="matrix(-0.903615 0.428345 0.428345 0.903615 398.515 0)" fill="#EEE8FF"/>
<path d="M4.496 70V54.468H7.95V70H4.496ZM7.136 70V67.008H15.65V70H7.136ZM7.136 63.51V60.628H14.88V63.51H7.136ZM7.136 57.438V54.468H15.54V57.438H7.136ZM21.6172 70.264C20.9865 70.264 20.3632 70.1833 19.7472 70.022C19.1458 69.8607 18.5812 69.6333 18.0532 69.34C17.5398 69.032 17.0998 68.68 16.7332 68.284L18.6472 66.348C18.9992 66.7293 19.4172 67.03 19.9012 67.25C20.3852 67.4553 20.9132 67.558 21.4852 67.558C21.8812 67.558 22.1818 67.4993 22.3872 67.382C22.6072 67.2647 22.7172 67.1033 22.7172 66.898C22.7172 66.634 22.5852 66.436 22.3212 66.304C22.0718 66.1573 21.7492 66.0327 21.3532 65.93C20.9572 65.8127 20.5392 65.688 20.0992 65.556C19.6592 65.424 19.2412 65.2407 18.8452 65.006C18.4492 64.7713 18.1265 64.4487 17.8772 64.038C17.6278 63.6127 17.5032 63.0773 17.5032 62.432C17.5032 61.7427 17.6792 61.1487 18.0312 60.65C18.3832 60.1367 18.8818 59.7333 19.5272 59.44C20.1725 59.1467 20.9278 59 21.7932 59C22.7025 59 23.5385 59.1613 24.3012 59.484C25.0785 59.792 25.7092 60.254 26.1932 60.87L24.2792 62.806C23.9418 62.41 23.5605 62.1313 23.1352 61.97C22.7245 61.8087 22.3212 61.728 21.9252 61.728C21.5438 61.728 21.2578 61.7867 21.0672 61.904C20.8765 62.0067 20.7812 62.1607 20.7812 62.366C20.7812 62.586 20.9058 62.762 21.1552 62.894C21.4045 63.026 21.7272 63.1433 22.1232 63.246C22.5192 63.3487 22.9372 63.4733 23.3772 63.62C23.8172 63.7667 24.2352 63.9647 24.6312 64.214C25.0272 64.4633 25.3498 64.8007 25.5992 65.226C25.8485 65.6367 25.9732 66.1793 25.9732 66.854C25.9732 67.8953 25.5772 68.724 24.7852 69.34C24.0078 69.956 22.9518 70.264 21.6172 70.264ZM31.6933 70.264C31.0627 70.264 30.4393 70.1833 29.8233 70.022C29.222 69.8607 28.6573 69.6333 28.1293 69.34C27.616 69.032 27.176 68.68 26.8093 68.284L28.7233 66.348C29.0753 66.7293 29.4933 67.03 29.9773 67.25C30.4613 67.4553 30.9893 67.558 31.5613 67.558C31.9573 67.558 32.258 67.4993 32.4633 67.382C32.6833 67.2647 32.7933 67.1033 32.7933 66.898C32.7933 66.634 32.6613 66.436 32.3973 66.304C32.148 66.1573 31.8253 66.0327 31.4293 65.93C31.0333 65.8127 30.6153 65.688 30.1753 65.556C29.7353 65.424 29.3173 65.2407 28.9213 65.006C28.5253 64.7713 28.2027 64.4487 27.9533 64.038C27.704 63.6127 27.5793 63.0773 27.5793 62.432C27.5793 61.7427 27.7553 61.1487 28.1073 60.65C28.4593 60.1367 28.958 59.7333 29.6033 59.44C30.2487 59.1467 31.004 59 31.8693 59C32.7787 59 33.6147 59.1613 34.3773 59.484C35.1547 59.792 35.7853 60.254 36.2693 60.87L34.3553 62.806C34.018 62.41 33.6367 62.1313 33.2113 61.97C32.8007 61.8087 32.3973 61.728 32.0013 61.728C31.62 61.728 31.334 61.7867 31.1433 61.904C30.9527 62.0067 30.8573 62.1607 30.8573 62.366C30.8573 62.586 30.982 62.762 31.2313 62.894C31.4807 63.026 31.8033 63.1433 32.1993 63.246C32.5953 63.3487 33.0133 63.4733 33.4533 63.62C33.8933 63.7667 34.3113 63.9647 34.7073 64.214C35.1033 64.4633 35.426 64.8007 35.6753 65.226C35.9247 65.6367 36.0493 66.1793 36.0493 66.854C36.0493 67.8953 35.6533 68.724 34.8613 69.34C34.084 69.956 33.028 70.264 31.6933 70.264ZM42.3415 70.22C41.3588 70.22 40.4788 69.978 39.7015 69.494C38.9388 69.01 38.3302 68.35 37.8755 67.514C37.4355 66.678 37.2155 65.7247 37.2155 64.654C37.2155 63.5833 37.4355 62.63 37.8755 61.794C38.3302 60.958 38.9388 60.298 39.7015 59.814C40.4788 59.33 41.3588 59.088 42.3415 59.088C43.0602 59.088 43.7055 59.2273 44.2775 59.506C44.8642 59.7847 45.3408 60.1733 45.7075 60.672C46.0742 61.156 46.2795 61.7133 46.3235 62.344V66.964C46.2795 67.5947 46.0742 68.1593 45.7075 68.658C45.3555 69.142 44.8862 69.5233 44.2995 69.802C43.7128 70.0807 43.0602 70.22 42.3415 70.22ZM43.0235 67.184C43.7422 67.184 44.3215 66.9493 44.7615 66.48C45.2015 65.996 45.4215 65.3873 45.4215 64.654C45.4215 64.1553 45.3188 63.7153 45.1135 63.334C44.9228 62.9527 44.6442 62.6593 44.2775 62.454C43.9255 62.234 43.5148 62.124 43.0455 62.124C42.5762 62.124 42.1582 62.234 41.7915 62.454C41.4395 62.6593 41.1535 62.9527 40.9335 63.334C40.7282 63.7153 40.6255 64.1553 40.6255 64.654C40.6255 65.138 40.7282 65.5707 40.9335 65.952C41.1388 66.3333 41.4248 66.634 41.7915 66.854C42.1582 67.074 42.5688 67.184 43.0235 67.184ZM45.2895 70V67.118L45.7955 64.522L45.2895 61.926V59.308H48.5895V70H45.2895ZM61.3089 70.22C60.5903 70.22 59.9303 70.0807 59.3289 69.802C58.7276 69.5233 58.2363 69.142 57.8549 68.658C57.4736 68.1593 57.2536 67.5947 57.1949 66.964V62.454C57.2536 61.8233 57.4736 61.2513 57.8549 60.738C58.2363 60.2247 58.7276 59.8213 59.3289 59.528C59.9303 59.2347 60.5903 59.088 61.3089 59.088C62.3209 59.088 63.2156 59.33 63.9929 59.814C64.7849 60.298 65.4009 60.958 65.8409 61.794C66.2956 62.63 66.5229 63.5833 66.5229 64.654C66.5229 65.7247 66.2956 66.678 65.8409 67.514C65.4009 68.35 64.7849 69.01 63.9929 69.494C63.2156 69.978 62.3209 70.22 61.3089 70.22ZM60.6929 67.184C61.1769 67.184 61.5949 67.074 61.9469 66.854C62.3136 66.634 62.5996 66.3333 62.8049 65.952C63.0103 65.5707 63.1129 65.138 63.1129 64.654C63.1129 64.1553 63.0103 63.7153 62.8049 63.334C62.5996 62.9527 62.3136 62.6593 61.9469 62.454C61.5949 62.234 61.1843 62.124 60.7149 62.124C60.2456 62.124 59.8276 62.234 59.4609 62.454C59.1089 62.6593 58.8303 62.9527 58.6249 63.334C58.4196 63.7153 58.3169 64.1553 58.3169 64.654C58.3169 65.138 58.4123 65.5707 58.6029 65.952C58.8083 66.3333 59.0943 66.634 59.4609 66.854C59.8276 67.074 60.2383 67.184 60.6929 67.184ZM55.1489 74.51V59.308H58.5149V62.058L57.9649 64.654L58.4709 67.25V74.51H55.1489ZM73.5129 70.242C72.3543 70.242 71.3203 70.0073 70.4109 69.538C69.5163 69.054 68.8123 68.3867 68.2989 67.536C67.7856 66.6853 67.5289 65.7247 67.5289 64.654C67.5289 63.5833 67.7783 62.63 68.2769 61.794C68.7903 60.9433 69.4796 60.276 70.3449 59.792C71.2103 59.308 72.1856 59.066 73.2709 59.066C74.3269 59.066 75.2583 59.2933 76.0649 59.748C76.8716 60.2027 77.5023 60.8333 77.9569 61.64C78.4263 62.4467 78.6609 63.3707 78.6609 64.412C78.6609 64.6027 78.6463 64.808 78.6169 65.028C78.6023 65.2333 78.5656 65.4753 78.5069 65.754L69.2889 65.776V63.466L77.0769 63.444L75.6249 64.412C75.6103 63.796 75.5149 63.29 75.3389 62.894C75.1629 62.4833 74.8989 62.1753 74.5469 61.97C74.2096 61.75 73.7916 61.64 73.2929 61.64C72.7649 61.64 72.3029 61.7647 71.9069 62.014C71.5256 62.2487 71.2249 62.586 71.0049 63.026C70.7996 63.466 70.6969 64.0013 70.6969 64.632C70.6969 65.2627 70.8069 65.8053 71.0269 66.26C71.2616 66.7 71.5843 67.0447 71.9949 67.294C72.4203 67.5287 72.9189 67.646 73.4909 67.646C74.0189 67.646 74.4956 67.558 74.9209 67.382C75.3463 67.1913 75.7203 66.9127 76.0429 66.546L77.8909 68.394C77.3629 69.01 76.7249 69.472 75.9769 69.78C75.2289 70.088 74.4076 70.242 73.5129 70.242ZM84.1797 70.264C83.549 70.264 82.9257 70.1833 82.3097 70.022C81.7083 69.8607 81.1437 69.6333 80.6157 69.34C80.1023 69.032 79.6623 68.68 79.2957 68.284L81.2097 66.348C81.5617 66.7293 81.9797 67.03 82.4637 67.25C82.9477 67.4553 83.4757 67.558 84.0477 67.558C84.4437 67.558 84.7443 67.4993 84.9497 67.382C85.1697 67.2647 85.2797 67.1033 85.2797 66.898C85.2797 66.634 85.1477 66.436 84.8837 66.304C84.6343 66.1573 84.3117 66.0327 83.9157 65.93C83.5197 65.8127 83.1017 65.688 82.6617 65.556C82.2217 65.424 81.8037 65.2407 81.4077 65.006C81.0117 64.7713 80.689 64.4487 80.4397 64.038C80.1903 63.6127 80.0657 63.0773 80.0657 62.432C80.0657 61.7427 80.2417 61.1487 80.5937 60.65C80.9457 60.1367 81.4443 59.7333 82.0897 59.44C82.735 59.1467 83.4903 59 84.3557 59C85.265 59 86.101 59.1613 86.8637 59.484C87.641 59.792 88.2717 60.254 88.7557 60.87L86.8417 62.806C86.5043 62.41 86.123 62.1313 85.6977 61.97C85.287 61.8087 84.8837 61.728 84.4877 61.728C84.1063 61.728 83.8203 61.7867 83.6297 61.904C83.439 62.0067 83.3437 62.1607 83.3437 62.366C83.3437 62.586 83.4683 62.762 83.7177 62.894C83.967 63.026 84.2897 63.1433 84.6857 63.246C85.0817 63.3487 85.4997 63.4733 85.9397 63.62C86.3797 63.7667 86.7977 63.9647 87.1937 64.214C87.5897 64.4633 87.9123 64.8007 88.1617 65.226C88.411 65.6367 88.5357 66.1793 88.5357 66.854C88.5357 67.8953 88.1397 68.724 87.3477 69.34C86.5703 69.956 85.5143 70.264 84.1797 70.264ZM94.8278 70.22C93.8452 70.22 92.9652 69.978 92.1878 69.494C91.4252 69.01 90.8165 68.35 90.3618 67.514C89.9218 66.678 89.7018 65.7247 89.7018 64.654C89.7018 63.5833 89.9218 62.63 90.3618 61.794C90.8165 60.958 91.4252 60.298 92.1878 59.814C92.9652 59.33 93.8452 59.088 94.8278 59.088C95.5465 59.088 96.1918 59.2273 96.7638 59.506C97.3505 59.7847 97.8272 60.1733 98.1938 60.672C98.5605 61.156 98.7658 61.7133 98.8098 62.344V66.964C98.7658 67.5947 98.5605 68.1593 98.1938 68.658C97.8418 69.142 97.3725 69.5233 96.7858 69.802C96.1992 70.0807 95.5465 70.22 94.8278 70.22ZM95.5098 67.184C96.2285 67.184 96.8078 66.9493 97.2478 66.48C97.6878 65.996 97.9078 65.3873 97.9078 64.654C97.9078 64.1553 97.8052 63.7153 97.5998 63.334C97.4092 62.9527 97.1305 62.6593 96.7638 62.454C96.4118 62.234 96.0012 62.124 95.5318 62.124C95.0625 62.124 94.6445 62.234 94.2778 62.454C93.9258 62.6593 93.6398 62.9527 93.4198 63.334C93.2145 63.7153 93.1118 64.1553 93.1118 64.654C93.1118 65.138 93.2145 65.5707 93.4198 65.952C93.6252 66.3333 93.9112 66.634 94.2778 66.854C94.6445 67.074 95.0552 67.184 95.5098 67.184ZM97.7758 74.51V67.25L98.2818 64.654L97.7758 62.058V59.308H101.076V74.51H97.7758ZM108.198 70.242C107.215 70.242 106.342 70.044 105.58 69.648C104.832 69.2373 104.245 68.68 103.82 67.976C103.394 67.2573 103.182 66.436 103.182 65.512V59.308H106.548V65.468C106.548 65.8347 106.606 66.15 106.724 66.414C106.856 66.678 107.046 66.8833 107.296 67.03C107.545 67.1767 107.846 67.25 108.198 67.25C108.696 67.25 109.092 67.096 109.386 66.788C109.679 66.4653 109.826 66.0253 109.826 65.468V59.308H113.192V65.49C113.192 66.4287 112.979 67.2573 112.554 67.976C112.128 68.68 111.542 69.2373 110.794 69.648C110.046 70.044 109.18 70.242 108.198 70.242ZM115.305 70V59.308H118.671V70H115.305ZM116.999 57.834C116.471 57.834 116.031 57.658 115.679 57.306C115.342 56.9393 115.173 56.4993 115.173 55.986C115.173 55.458 115.342 55.018 115.679 54.666C116.031 54.314 116.471 54.138 116.999 54.138C117.527 54.138 117.96 54.314 118.297 54.666C118.635 55.018 118.803 55.458 118.803 55.986C118.803 56.4993 118.635 56.9393 118.297 57.306C117.96 57.658 117.527 57.834 116.999 57.834ZM124.936 70.264C124.305 70.264 123.682 70.1833 123.066 70.022C122.464 69.8607 121.9 69.6333 121.372 69.34C120.858 69.032 120.418 68.68 120.052 68.284L121.966 66.348C122.318 66.7293 122.736 67.03 123.22 67.25C123.704 67.4553 124.232 67.558 124.804 67.558C125.2 67.558 125.5 67.4993 125.706 67.382C125.926 67.2647 126.036 67.1033 126.036 66.898C126.036 66.634 125.904 66.436 125.64 66.304C125.39 66.1573 125.068 66.0327 124.672 65.93C124.276 65.8127 123.858 65.688 123.418 65.556C122.978 65.424 122.56 65.2407 122.164 65.006C121.768 64.7713 121.445 64.4487 121.196 64.038C120.946 63.6127 120.822 63.0773 120.822 62.432C120.822 61.7427 120.998 61.1487 121.35 60.65C121.702 60.1367 122.2 59.7333 122.846 59.44C123.491 59.1467 124.246 59 125.112 59C126.021 59 126.857 59.1613 127.62 59.484C128.397 59.792 129.028 60.254 129.512 60.87L127.598 62.806C127.26 62.41 126.879 62.1313 126.454 61.97C126.043 61.8087 125.64 61.728 125.244 61.728C124.862 61.728 124.576 61.7867 124.386 61.904C124.195 62.0067 124.1 62.1607 124.1 62.366C124.1 62.586 124.224 62.762 124.474 62.894C124.723 63.026 125.046 63.1433 125.442 63.246C125.838 63.3487 126.256 63.4733 126.696 63.62C127.136 63.7667 127.554 63.9647 127.95 64.214C128.346 64.4633 128.668 64.8007 128.918 65.226C129.167 65.6367 129.292 66.1793 129.292 66.854C129.292 67.8953 128.896 68.724 128.104 69.34C127.326 69.956 126.27 70.264 124.936 70.264ZM135.584 70.22C134.601 70.22 133.721 69.978 132.944 69.494C132.181 69.01 131.572 68.35 131.118 67.514C130.678 66.678 130.458 65.7247 130.458 64.654C130.458 63.5833 130.678 62.63 131.118 61.794C131.572 60.958 132.181 60.298 132.944 59.814C133.721 59.33 134.601 59.088 135.584 59.088C136.302 59.088 136.948 59.2273 137.52 59.506C138.106 59.7847 138.583 60.1733 138.95 60.672C139.316 61.156 139.522 61.7133 139.566 62.344V66.964C139.522 67.5947 139.316 68.1593 138.95 68.658C138.598 69.142 138.128 69.5233 137.542 69.802C136.955 70.0807 136.302 70.22 135.584 70.22ZM136.266 67.184C136.984 67.184 137.564 66.9493 138.004 66.48C138.444 65.996 138.664 65.3873 138.664 64.654C138.664 64.1553 138.561 63.7153 138.356 63.334C138.165 62.9527 137.886 62.6593 137.52 62.454C137.168 62.234 136.757 62.124 136.288 62.124C135.818 62.124 135.4 62.234 135.034 62.454C134.682 62.6593 134.396 62.9527 134.176 63.334C133.97 63.7153 133.868 64.1553 133.868 64.654C133.868 65.138 133.97 65.5707 134.176 65.952C134.381 66.3333 134.667 66.634 135.034 66.854C135.4 67.074 135.811 67.184 136.266 67.184ZM138.532 70V67.118L139.038 64.522L138.532 61.926V59.308H141.832V70H138.532ZM173.743 100.64L175.349 97.648L176.339 97.362C176.236 97.582 176.111 97.7653 175.965 97.912C175.818 98.044 175.649 98.11 175.459 98.11C175.033 98.11 174.645 97.934 174.293 97.582C173.941 97.23 173.765 96.79 173.765 96.262C173.765 95.69 173.955 95.1987 174.337 94.788C174.733 94.3773 175.217 94.172 175.789 94.172C176.331 94.172 176.801 94.3773 177.197 94.788C177.607 95.184 177.813 95.6753 177.813 96.262C177.813 96.4967 177.769 96.768 177.681 97.076C177.593 97.384 177.417 97.7873 177.153 98.286L175.371 101.542L173.743 100.64ZM9.336 126.242C8.236 126.242 7.23867 126 6.344 125.516C5.464 125.017 4.76733 124.343 4.254 123.492C3.74067 122.641 3.484 121.688 3.484 120.632C3.484 119.576 3.74067 118.63 4.254 117.794C4.76733 116.958 5.464 116.298 6.344 115.814C7.224 115.315 8.22133 115.066 9.336 115.066C10.4507 115.066 11.448 115.308 12.328 115.792C13.208 116.276 13.9047 116.943 14.418 117.794C14.9313 118.63 15.188 119.576 15.188 120.632C15.188 121.688 14.9313 122.641 14.418 123.492C13.9047 124.343 13.208 125.017 12.328 125.516C11.448 126 10.4507 126.242 9.336 126.242ZM9.336 123.184C9.82 123.184 10.2453 123.081 10.612 122.876C10.9787 122.656 11.2573 122.355 11.448 121.974C11.6533 121.578 11.756 121.131 11.756 120.632C11.756 120.133 11.6533 119.701 11.448 119.334C11.2427 118.953 10.9567 118.659 10.59 118.454C10.238 118.234 9.82 118.124 9.336 118.124C8.86667 118.124 8.44867 118.234 8.082 118.454C7.71533 118.659 7.42933 118.953 7.224 119.334C7.01867 119.715 6.916 120.155 6.916 120.654C6.916 121.138 7.01867 121.578 7.224 121.974C7.42933 122.355 7.71533 122.656 8.082 122.876C8.44867 123.081 8.86667 123.184 9.336 123.184ZM23.0238 126.22C22.3051 126.22 21.6451 126.073 21.0438 125.78C20.4424 125.472 19.9511 125.069 19.5698 124.57C19.1884 124.057 18.9684 123.485 18.9098 122.854V118.344C18.9684 117.713 19.1884 117.156 19.5698 116.672C19.9511 116.173 20.4424 115.785 21.0438 115.506C21.6451 115.227 22.3051 115.088 23.0238 115.088C24.0358 115.088 24.9304 115.33 25.7078 115.814C26.4998 116.298 27.1158 116.958 27.5558 117.794C28.0104 118.63 28.2378 119.583 28.2378 120.654C28.2378 121.725 28.0104 122.678 27.5558 123.514C27.1158 124.35 26.4998 125.01 25.7078 125.494C24.9304 125.978 24.0358 126.22 23.0238 126.22ZM22.4298 123.184C22.8991 123.184 23.3098 123.074 23.6618 122.854C24.0284 122.634 24.3144 122.333 24.5198 121.952C24.7251 121.571 24.8278 121.138 24.8278 120.654C24.8278 120.155 24.7251 119.715 24.5198 119.334C24.3144 118.953 24.0284 118.659 23.6618 118.454C23.3098 118.234 22.8991 118.124 22.4298 118.124C21.9604 118.124 21.5424 118.234 21.1758 118.454C20.8091 118.659 20.5231 118.953 20.3178 119.334C20.1271 119.715 20.0318 120.155 20.0318 120.654C20.0318 121.153 20.1344 121.593 20.3398 121.974C20.5451 122.355 20.8238 122.656 21.1758 122.876C21.5424 123.081 21.9604 123.184 22.4298 123.184ZM16.8638 126V110.028H20.2298V117.926L19.6798 120.522L20.1858 123.118V126H16.8638ZM29.9478 126V115.308H33.3138V126H29.9478ZM33.3138 120.126L31.9058 119.026C32.1844 117.779 32.6538 116.811 33.3138 116.122C33.9738 115.433 34.8904 115.088 36.0638 115.088C36.5771 115.088 37.0244 115.169 37.4058 115.33C37.8018 115.477 38.1464 115.711 38.4398 116.034L36.4378 118.564C36.2911 118.403 36.1078 118.278 35.8878 118.19C35.6678 118.102 35.4184 118.058 35.1398 118.058C34.5824 118.058 34.1351 118.234 33.7978 118.586C33.4751 118.923 33.3138 119.437 33.3138 120.126ZM39.3364 126V115.308H42.7024V126H39.3364ZM41.0304 113.834C40.5024 113.834 40.0624 113.658 39.7104 113.306C39.3731 112.939 39.2044 112.499 39.2044 111.986C39.2044 111.458 39.3731 111.018 39.7104 110.666C40.0624 110.314 40.5024 110.138 41.0304 110.138C41.5584 110.138 41.9911 110.314 42.3284 110.666C42.6658 111.018 42.8344 111.458 42.8344 111.986C42.8344 112.499 42.6658 112.939 42.3284 113.306C41.9911 113.658 41.5584 113.834 41.0304 113.834ZM49.6048 130.796C48.4314 130.796 47.3974 130.591 46.5028 130.18C45.6228 129.784 44.9261 129.219 44.4128 128.486L46.4808 126.418C46.8621 126.873 47.2874 127.217 47.7568 127.452C48.2408 127.687 48.8201 127.804 49.4948 127.804C50.3308 127.804 50.9834 127.599 51.4528 127.188C51.9368 126.777 52.1788 126.198 52.1788 125.45V122.722L52.7508 120.39L52.2448 118.058V115.308H55.5448V125.362C55.5448 126.462 55.2881 127.415 54.7748 128.222C54.2614 129.029 53.5574 129.659 52.6628 130.114C51.7681 130.569 50.7488 130.796 49.6048 130.796ZM49.4508 125.67C48.4681 125.67 47.5954 125.435 46.8328 124.966C46.0701 124.497 45.4688 123.859 45.0288 123.052C44.5888 122.245 44.3688 121.351 44.3688 120.368C44.3688 119.371 44.5888 118.476 45.0288 117.684C45.4688 116.877 46.0701 116.247 46.8328 115.792C47.5954 115.323 48.4681 115.088 49.4508 115.088C50.1841 115.088 50.8368 115.227 51.4088 115.506C51.9954 115.77 52.4648 116.151 52.8168 116.65C53.1834 117.134 53.3888 117.699 53.4328 118.344V122.414C53.3888 123.045 53.1834 123.609 52.8168 124.108C52.4648 124.592 51.9954 124.973 51.4088 125.252C50.8221 125.531 50.1694 125.67 49.4508 125.67ZM50.0888 122.678C50.5581 122.678 50.9614 122.575 51.2988 122.37C51.6508 122.165 51.9148 121.893 52.0908 121.556C52.2814 121.204 52.3768 120.808 52.3768 120.368C52.3768 119.928 52.2814 119.532 52.0908 119.18C51.9148 118.828 51.6508 118.549 51.2988 118.344C50.9614 118.139 50.5581 118.036 50.0888 118.036C49.6341 118.036 49.2308 118.139 48.8788 118.344C48.5268 118.549 48.2554 118.828 48.0648 119.18C47.8741 119.532 47.7788 119.928 47.7788 120.368C47.7788 120.779 47.8741 121.167 48.0648 121.534C48.2554 121.886 48.5194 122.165 48.8568 122.37C49.2088 122.575 49.6194 122.678 50.0888 122.678ZM62.3864 126.22C61.4038 126.22 60.5238 125.978 59.7464 125.494C58.9838 125.01 58.3751 124.35 57.9204 123.514C57.4804 122.678 57.2604 121.725 57.2604 120.654C57.2604 119.583 57.4804 118.63 57.9204 117.794C58.3751 116.958 58.9838 116.298 59.7464 115.814C60.5238 115.33 61.4038 115.088 62.3864 115.088C63.1051 115.088 63.7504 115.227 64.3224 115.506C64.9091 115.785 65.3858 116.173 65.7524 116.672C66.1191 117.156 66.3244 117.713 66.3684 118.344V122.964C66.3244 123.595 66.1191 124.159 65.7524 124.658C65.4004 125.142 64.9311 125.523 64.3444 125.802C63.7578 126.081 63.1051 126.22 62.3864 126.22ZM63.0684 123.184C63.7871 123.184 64.3664 122.949 64.8064 122.48C65.2464 121.996 65.4664 121.387 65.4664 120.654C65.4664 120.155 65.3638 119.715 65.1584 119.334C64.9678 118.953 64.6891 118.659 64.3224 118.454C63.9704 118.234 63.5598 118.124 63.0904 118.124C62.6211 118.124 62.2031 118.234 61.8364 118.454C61.4844 118.659 61.1984 118.953 60.9784 119.334C60.7731 119.715 60.6704 120.155 60.6704 120.654C60.6704 121.138 60.7731 121.571 60.9784 121.952C61.1838 122.333 61.4698 122.634 61.8364 122.854C62.2031 123.074 62.6138 123.184 63.0684 123.184ZM65.3344 126V123.118L65.8404 120.522L65.3344 117.926V115.308H68.6344V126H65.3344ZM75.5584 126.22C74.5464 126.22 73.6444 125.978 72.8524 125.494C72.0751 125.01 71.4591 124.35 71.0044 123.514C70.5644 122.678 70.3444 121.725 70.3444 120.654C70.3444 119.583 70.5644 118.63 71.0044 117.794C71.4591 116.958 72.0751 116.298 72.8524 115.814C73.6444 115.33 74.5464 115.088 75.5584 115.088C76.2917 115.088 76.9517 115.227 77.5384 115.506C78.1397 115.785 78.6311 116.173 79.0124 116.672C79.4084 117.156 79.6284 117.713 79.6724 118.344V122.854C79.6284 123.485 79.4157 124.057 79.0344 124.57C78.6531 125.069 78.1617 125.472 77.5604 125.78C76.9591 126.073 76.2917 126.22 75.5584 126.22ZM76.1524 123.184C76.6364 123.184 77.0544 123.081 77.4064 122.876C77.7584 122.656 78.0371 122.355 78.2424 121.974C78.4477 121.593 78.5504 121.153 78.5504 120.654C78.5504 120.155 78.4477 119.723 78.2424 119.356C78.0517 118.975 77.7731 118.674 77.4064 118.454C77.0544 118.234 76.6437 118.124 76.1744 118.124C75.7051 118.124 75.2871 118.234 74.9204 118.454C74.5684 118.674 74.2824 118.975 74.0624 119.356C73.8571 119.737 73.7544 120.17 73.7544 120.654C73.7544 121.138 73.8571 121.571 74.0624 121.952C74.2677 122.333 74.5537 122.634 74.9204 122.854C75.2871 123.074 75.6977 123.184 76.1524 123.184ZM81.7184 126H78.4184V123.118L78.9244 120.522L78.3524 117.926V110.028H81.7184V126ZM89.2364 126.242C88.1364 126.242 87.1391 126 86.2444 125.516C85.3644 125.017 84.6677 124.343 84.1544 123.492C83.6411 122.641 83.3844 121.688 83.3844 120.632C83.3844 119.576 83.6411 118.63 84.1544 117.794C84.6677 116.958 85.3644 116.298 86.2444 115.814C87.1244 115.315 88.1217 115.066 89.2364 115.066C90.3511 115.066 91.3484 115.308 92.2284 115.792C93.1084 116.276 93.8051 116.943 94.3184 117.794C94.8317 118.63 95.0884 119.576 95.0884 120.632C95.0884 121.688 94.8317 122.641 94.3184 123.492C93.8051 124.343 93.1084 125.017 92.2284 125.516C91.3484 126 90.3511 126.242 89.2364 126.242ZM89.2364 123.184C89.7204 123.184 90.1457 123.081 90.5124 122.876C90.8791 122.656 91.1577 122.355 91.3484 121.974C91.5537 121.578 91.6564 121.131 91.6564 120.632C91.6564 120.133 91.5537 119.701 91.3484 119.334C91.1431 118.953 90.8571 118.659 90.4904 118.454C90.1384 118.234 89.7204 118.124 89.2364 118.124C88.7671 118.124 88.3491 118.234 87.9824 118.454C87.6157 118.659 87.3297 118.953 87.1244 119.334C86.9191 119.715 86.8164 120.155 86.8164 120.654C86.8164 121.138 86.9191 121.578 87.1244 121.974C87.3297 122.355 87.6157 122.656 87.9824 122.876C88.3491 123.081 88.7671 123.184 89.2364 123.184ZM97.4242 120.324L96.8742 110.028H100.504L99.9542 120.324H97.4242ZM98.6782 126.242C98.1062 126.242 97.6295 126.044 97.2482 125.648C96.8668 125.252 96.6762 124.775 96.6762 124.218C96.6762 123.631 96.8668 123.147 97.2482 122.766C97.6295 122.37 98.1062 122.172 98.6782 122.172C99.2648 122.172 99.7415 122.37 100.108 122.766C100.49 123.147 100.68 123.631 100.68 124.218C100.68 124.775 100.49 125.252 100.108 125.648C99.7415 126.044 99.2648 126.242 98.6782 126.242Z" fill="#6F46BE"/>
<path d="M3.572 102.796C2.79467 102.796 2.13467 102.664 1.592 102.4C1.04933 102.151 0.572667 101.791 0.162 101.322L2.252 99.232C2.41333 99.4227 2.582 99.5547 2.758 99.628C2.91933 99.716 3.11 99.76 3.33 99.76C3.65267 99.76 3.91667 99.6647 4.122 99.474C4.342 99.2833 4.452 98.99 4.452 98.594V87.308H7.818V98.55C7.818 99.4153 7.63467 100.163 7.268 100.794C6.90133 101.425 6.39533 101.916 5.75 102.268C5.11933 102.62 4.39333 102.796 3.572 102.796ZM6.168 85.834C5.64 85.834 5.2 85.658 4.848 85.306C4.51067 84.9393 4.342 84.4993 4.342 83.986C4.342 83.458 4.51067 83.018 4.848 82.666C5.2 82.314 5.64 82.138 6.168 82.138C6.696 82.138 7.12867 82.314 7.466 82.666C7.80333 83.018 7.972 83.458 7.972 83.986C7.972 84.4993 7.80333 84.9393 7.466 85.306C7.12867 85.658 6.696 85.834 6.168 85.834ZM14.6696 98.22C13.687 98.22 12.807 97.978 12.0296 97.494C11.267 97.01 10.6583 96.35 10.2036 95.514C9.76363 94.678 9.54363 93.7247 9.54363 92.654C9.54363 91.5833 9.76363 90.63 10.2036 89.794C10.6583 88.958 11.267 88.298 12.0296 87.814C12.807 87.33 13.687 87.088 14.6696 87.088C15.3883 87.088 16.0336 87.2273 16.6056 87.506C17.1923 87.7847 17.669 88.1733 18.0356 88.672C18.4023 89.156 18.6076 89.7133 18.6516 90.344V94.964C18.6076 95.5947 18.4023 96.1593 18.0356 96.658C17.6836 97.142 17.2143 97.5233 16.6276 97.802C16.041 98.0807 15.3883 98.22 14.6696 98.22ZM15.3516 95.184C16.0703 95.184 16.6496 94.9493 17.0896 94.48C17.5296 93.996 17.7496 93.3873 17.7496 92.654C17.7496 92.1553 17.647 91.7153 17.4416 91.334C17.251 90.9527 16.9723 90.6593 16.6056 90.454C16.2536 90.234 15.843 90.124 15.3736 90.124C14.9043 90.124 14.4863 90.234 14.1196 90.454C13.7676 90.6593 13.4816 90.9527 13.2616 91.334C13.0563 91.7153 12.9536 92.1553 12.9536 92.654C12.9536 93.138 13.0563 93.5707 13.2616 93.952C13.467 94.3333 13.753 94.634 14.1196 94.854C14.4863 95.074 14.897 95.184 15.3516 95.184ZM17.6176 98V95.118L18.1236 92.522L17.6176 89.926V87.308H20.9176V98H17.6176ZM13.7676 86.098L12.6676 84.492L16.1656 81.214L18.0136 83.81L13.7676 86.098ZM28.8411 98V86.384C28.8411 85.5187 29.0317 84.7413 29.4131 84.052C29.8091 83.348 30.3591 82.798 31.0631 82.402C31.7671 81.9913 32.6031 81.786 33.5711 81.786C34.3044 81.786 34.9424 81.9107 35.4851 82.16C36.0424 82.3947 36.5264 82.7247 36.9371 83.15L34.8251 85.262C34.6784 85.1153 34.5097 85.0053 34.3191 84.932C34.1431 84.844 33.9304 84.8 33.6811 84.8C33.2264 84.8 32.8671 84.932 32.6031 85.196C32.3391 85.46 32.2071 85.8193 32.2071 86.274V98H28.8411ZM26.4871 90.168V87.308H35.2871V90.168H26.4871ZM41.7344 98.242C40.6344 98.242 39.6371 98 38.7424 97.516C37.8624 97.0173 37.1658 96.3427 36.6524 95.492C36.1391 94.6413 35.8824 93.688 35.8824 92.632C35.8824 91.576 36.1391 90.63 36.6524 89.794C37.1658 88.958 37.8624 88.298 38.7424 87.814C39.6224 87.3153 40.6198 87.066 41.7344 87.066C42.8491 87.066 43.8464 87.308 44.7264 87.792C45.6064 88.276 46.3031 88.9433 46.8164 89.794C47.3298 90.63 47.5864 91.576 47.5864 92.632C47.5864 93.688 47.3298 94.6413 46.8164 95.492C46.3031 96.3427 45.6064 97.0173 44.7264 97.516C43.8464 98 42.8491 98.242 41.7344 98.242ZM41.7344 95.184C42.2184 95.184 42.6438 95.0813 43.0104 94.876C43.3771 94.656 43.6558 94.3553 43.8464 93.974C44.0518 93.578 44.1544 93.1307 44.1544 92.632C44.1544 92.1333 44.0518 91.7007 43.8464 91.334C43.6411 90.9527 43.3551 90.6593 42.9884 90.454C42.6364 90.234 42.2184 90.124 41.7344 90.124C41.2651 90.124 40.8471 90.234 40.4804 90.454C40.1138 90.6593 39.8278 90.9527 39.6224 91.334C39.4171 91.7153 39.3144 92.1553 39.3144 92.654C39.3144 93.138 39.4171 93.578 39.6224 93.974C39.8278 94.3553 40.1138 94.656 40.4804 94.876C40.8471 95.0813 41.2651 95.184 41.7344 95.184ZM49.2622 98V87.308H52.6282V98H49.2622ZM50.9562 85.834C50.4282 85.834 49.9882 85.658 49.6362 85.306C49.2989 84.9393 49.1302 84.4993 49.1302 83.986C49.1302 83.458 49.2989 83.018 49.6362 82.666C49.9882 82.314 50.4282 82.138 50.9562 82.138C51.4842 82.138 51.9169 82.314 52.2542 82.666C52.5916 83.018 52.7602 83.458 52.7602 83.986C52.7602 84.4993 52.5916 84.9393 52.2542 85.306C51.9169 85.658 51.4842 85.834 50.9562 85.834ZM59.188 98V87.308H62.554V98H59.188ZM62.554 92.126L61.146 91.026C61.4247 89.7793 61.894 88.8113 62.554 88.122C63.214 87.4327 64.1307 87.088 65.304 87.088C65.8173 87.088 66.2647 87.1687 66.646 87.33C67.042 87.4767 67.3867 87.7113 67.68 88.034L65.678 90.564C65.5313 90.4027 65.348 90.278 65.128 90.19C64.908 90.102 64.6587 90.058 64.38 90.058C63.8227 90.058 63.3753 90.234 63.038 90.586C62.7153 90.9233 62.554 91.4367 62.554 92.126ZM73.5559 98.242C72.3972 98.242 71.3632 98.0073 70.4539 97.538C69.5592 97.054 68.8552 96.3867 68.3419 95.536C67.8286 94.6853 67.5719 93.7247 67.5719 92.654C67.5719 91.5833 67.8212 90.63 68.3199 89.794C68.8332 88.9433 69.5226 88.276 70.3879 87.792C71.2532 87.308 72.2286 87.066 73.3139 87.066C74.3699 87.066 75.3012 87.2933 76.1079 87.748C76.9146 88.2027 77.5452 88.8333 77.9999 89.64C78.4692 90.4467 78.7039 91.3707 78.7039 92.412C78.7039 92.6027 78.6892 92.808 78.6599 93.028C78.6452 93.2333 78.6086 93.4753 78.5499 93.754L69.3319 93.776V91.466L77.1199 91.444L75.6679 92.412C75.6532 91.796 75.5579 91.29 75.3819 90.894C75.2059 90.4833 74.9419 90.1753 74.5899 89.97C74.2526 89.75 73.8346 89.64 73.3359 89.64C72.8079 89.64 72.3459 89.7647 71.9499 90.014C71.5686 90.2487 71.2679 90.586 71.0479 91.026C70.8426 91.466 70.7399 92.0013 70.7399 92.632C70.7399 93.2627 70.8499 93.8053 71.0699 94.26C71.3046 94.7 71.6272 95.0447 72.0379 95.294C72.4632 95.5287 72.9619 95.646 73.5339 95.646C74.0619 95.646 74.5386 95.558 74.9639 95.382C75.3892 95.1913 75.7632 94.9127 76.0859 94.546L77.9339 96.394C77.4059 97.01 76.7679 97.472 76.0199 97.78C75.2719 98.088 74.4506 98.242 73.5559 98.242ZM84.2226 98.264C83.592 98.264 82.9686 98.1833 82.3526 98.022C81.7513 97.8607 81.1866 97.6333 80.6586 97.34C80.1453 97.032 79.7053 96.68 79.3386 96.284L81.2526 94.348C81.6046 94.7293 82.0226 95.03 82.5066 95.25C82.9906 95.4553 83.5186 95.558 84.0906 95.558C84.4866 95.558 84.7873 95.4993 84.9926 95.382C85.2126 95.2647 85.3226 95.1033 85.3226 94.898C85.3226 94.634 85.1906 94.436 84.9266 94.304C84.6773 94.1573 84.3546 94.0327 83.9586 93.93C83.5626 93.8127 83.1446 93.688 82.7046 93.556C82.2646 93.424 81.8466 93.2407 81.4506 93.006C81.0546 92.7713 80.732 92.4487 80.4826 92.038C80.2333 91.6127 80.1086 91.0773 80.1086 90.432C80.1086 89.7427 80.2846 89.1487 80.6366 88.65C80.9886 88.1367 81.4873 87.7333 82.1326 87.44C82.778 87.1467 83.5333 87 84.3986 87C85.308 87 86.144 87.1613 86.9066 87.484C87.684 87.792 88.3146 88.254 88.7986 88.87L86.8846 90.806C86.5473 90.41 86.166 90.1313 85.7406 89.97C85.33 89.8087 84.9266 89.728 84.5306 89.728C84.1493 89.728 83.8633 89.7867 83.6726 89.904C83.482 90.0067 83.3866 90.1607 83.3866 90.366C83.3866 90.586 83.5113 90.762 83.7606 90.894C84.01 91.026 84.3326 91.1433 84.7286 91.246C85.1246 91.3487 85.5426 91.4733 85.9826 91.62C86.4226 91.7667 86.8406 91.9647 87.2366 92.214C87.6326 92.4633 87.9553 92.8007 88.2046 93.226C88.454 93.6367 88.5786 94.1793 88.5786 94.854C88.5786 95.8953 88.1826 96.724 87.3906 97.34C86.6133 97.956 85.5573 98.264 84.2226 98.264ZM96.5648 98.22C95.8461 98.22 95.1861 98.0807 94.5848 97.802C93.9835 97.5233 93.4921 97.142 93.1108 96.658C92.7295 96.1593 92.5095 95.5947 92.4508 94.964V90.454C92.5095 89.8233 92.7295 89.2513 93.1108 88.738C93.4921 88.2247 93.9835 87.8213 94.5848 87.528C95.1861 87.2347 95.8461 87.088 96.5648 87.088C97.5768 87.088 98.4715 87.33 99.2488 87.814C100.041 88.298 100.657 88.958 101.097 89.794C101.551 90.63 101.779 91.5833 101.779 92.654C101.779 93.7247 101.551 94.678 101.097 95.514C100.657 96.35 100.041 97.01 99.2488 97.494C98.4715 97.978 97.5768 98.22 96.5648 98.22ZM95.9488 95.184C96.4328 95.184 96.8508 95.074 97.2028 94.854C97.5695 94.634 97.8555 94.3333 98.0608 93.952C98.2661 93.5707 98.3688 93.138 98.3688 92.654C98.3688 92.1553 98.2661 91.7153 98.0608 91.334C97.8555 90.9527 97.5695 90.6593 97.2028 90.454C96.8508 90.234 96.4401 90.124 95.9708 90.124C95.5015 90.124 95.0835 90.234 94.7168 90.454C94.3648 90.6593 94.0861 90.9527 93.8808 91.334C93.6755 91.7153 93.5728 92.1553 93.5728 92.654C93.5728 93.138 93.6681 93.5707 93.8588 93.952C94.0641 94.3333 94.3501 94.634 94.7168 94.854C95.0835 95.074 95.4941 95.184 95.9488 95.184ZM90.4048 102.51V87.308H93.7708V90.058L93.2208 92.654L93.7268 95.25V102.51H90.4048ZM108.637 98.242C107.537 98.242 106.539 98 105.645 97.516C104.765 97.0173 104.068 96.3427 103.555 95.492C103.041 94.6413 102.785 93.688 102.785 92.632C102.785 91.576 103.041 90.63 103.555 89.794C104.068 88.958 104.765 88.298 105.645 87.814C106.525 87.3153 107.522 87.066 108.637 87.066C109.751 87.066 110.749 87.308 111.629 87.792C112.509 88.276 113.205 88.9433 113.719 89.794C114.232 90.63 114.489 91.576 114.489 92.632C114.489 93.688 114.232 94.6413 113.719 95.492C113.205 96.3427 112.509 97.0173 111.629 97.516C110.749 98 109.751 98.242 108.637 98.242ZM108.637 95.184C109.121 95.184 109.546 95.0813 109.913 94.876C110.279 94.656 110.558 94.3553 110.749 93.974C110.954 93.578 111.057 93.1307 111.057 92.632C111.057 92.1333 110.954 91.7007 110.749 91.334C110.543 90.9527 110.257 90.6593 109.891 90.454C109.539 90.234 109.121 90.124 108.637 90.124C108.167 90.124 107.749 90.234 107.383 90.454C107.016 90.6593 106.73 90.9527 106.525 91.334C106.319 91.7153 106.217 92.1553 106.217 92.654C106.217 93.138 106.319 93.578 106.525 93.974C106.73 94.3553 107.016 94.656 107.383 94.876C107.749 95.0813 108.167 95.184 108.637 95.184ZM123.227 98V91.906C123.227 91.3487 123.051 90.9013 122.699 90.564C122.361 90.212 121.929 90.036 121.401 90.036C121.034 90.036 120.711 90.1167 120.433 90.278C120.154 90.4247 119.934 90.6447 119.773 90.938C119.611 91.2167 119.531 91.5393 119.531 91.906L118.233 91.268C118.233 90.432 118.416 89.6987 118.783 89.068C119.149 88.4373 119.655 87.9533 120.301 87.616C120.961 87.264 121.701 87.088 122.523 87.088C123.315 87.088 124.011 87.2787 124.613 87.66C125.229 88.0267 125.713 88.518 126.065 89.134C126.417 89.75 126.593 90.4247 126.593 91.158V98H123.227ZM116.165 98V87.308H119.531V98H116.165ZM133.308 98.22C132.296 98.22 131.394 97.978 130.602 97.494C129.825 97.01 129.209 96.35 128.754 95.514C128.314 94.678 128.094 93.7247 128.094 92.654C128.094 91.5833 128.314 90.63 128.754 89.794C129.209 88.958 129.825 88.298 130.602 87.814C131.394 87.33 132.296 87.088 133.308 87.088C134.042 87.088 134.702 87.2273 135.288 87.506C135.89 87.7847 136.381 88.1733 136.762 88.672C137.158 89.156 137.378 89.7133 137.422 90.344V94.854C137.378 95.4847 137.166 96.0567 136.784 96.57C136.403 97.0687 135.912 97.472 135.31 97.78C134.709 98.0733 134.042 98.22 133.308 98.22ZM133.902 95.184C134.386 95.184 134.804 95.0813 135.156 94.876C135.508 94.656 135.787 94.3553 135.992 93.974C136.198 93.5927 136.3 93.1527 136.3 92.654C136.3 92.1553 136.198 91.7227 135.992 91.356C135.802 90.9747 135.523 90.674 135.156 90.454C134.804 90.234 134.394 90.124 133.924 90.124C133.455 90.124 133.037 90.234 132.67 90.454C132.318 90.674 132.032 90.9747 131.812 91.356C131.607 91.7373 131.504 92.17 131.504 92.654C131.504 93.138 131.607 93.5707 131.812 93.952C132.018 94.3333 132.304 94.634 132.67 94.854C133.037 95.074 133.448 95.184 133.902 95.184ZM139.468 98H136.168V95.118L136.674 92.522L136.102 89.926V82.028H139.468V98ZM141.838 98V87.308H145.204V98H141.838ZM143.532 85.834C143.004 85.834 142.564 85.658 142.212 85.306C141.875 84.9393 141.706 84.4993 141.706 83.986C141.706 83.458 141.875 83.018 142.212 82.666C142.564 82.314 143.004 82.138 143.532 82.138C144.06 82.138 144.493 82.314 144.83 82.666C145.168 83.018 145.336 83.458 145.336 83.986C145.336 84.4993 145.168 84.9393 144.83 85.306C144.493 85.658 144.06 85.834 143.532 85.834ZM152.129 98.22C151.117 98.22 150.215 97.978 149.423 97.494C148.645 97.01 148.029 96.35 147.575 95.514C147.135 94.678 146.915 93.7247 146.915 92.654C146.915 91.5833 147.135 90.63 147.575 89.794C148.029 88.958 148.645 88.298 149.423 87.814C150.215 87.33 151.117 87.088 152.129 87.088C152.862 87.088 153.522 87.2273 154.109 87.506C154.71 87.7847 155.201 88.1733 155.583 88.672C155.979 89.156 156.199 89.7133 156.243 90.344V94.854C156.199 95.4847 155.986 96.0567 155.605 96.57C155.223 97.0687 154.732 97.472 154.131 97.78C153.529 98.0733 152.862 98.22 152.129 98.22ZM152.723 95.184C153.207 95.184 153.625 95.0813 153.977 94.876C154.329 94.656 154.607 94.3553 154.813 93.974C155.018 93.5927 155.121 93.1527 155.121 92.654C155.121 92.1553 155.018 91.7227 154.813 91.356C154.622 90.9747 154.343 90.674 153.977 90.454C153.625 90.234 153.214 90.124 152.745 90.124C152.275 90.124 151.857 90.234 151.491 90.454C151.139 90.674 150.853 90.9747 150.633 91.356C150.427 91.7373 150.325 92.17 150.325 92.654C150.325 93.138 150.427 93.5707 150.633 93.952C150.838 94.3333 151.124 94.634 151.491 94.854C151.857 95.074 152.268 95.184 152.723 95.184ZM158.289 98H154.989V95.118L155.495 92.522L154.923 89.926V82.028H158.289V98ZM165.125 98.22C164.142 98.22 163.262 97.978 162.485 97.494C161.722 97.01 161.113 96.35 160.659 95.514C160.219 94.678 159.999 93.7247 159.999 92.654C159.999 91.5833 160.219 90.63 160.659 89.794C161.113 88.958 161.722 88.298 162.485 87.814C163.262 87.33 164.142 87.088 165.125 87.088C165.843 87.088 166.489 87.2273 167.061 87.506C167.647 87.7847 168.124 88.1733 168.491 88.672C168.857 89.156 169.063 89.7133 169.107 90.344V94.964C169.063 95.5947 168.857 96.1593 168.491 96.658C168.139 97.142 167.669 97.5233 167.083 97.802C166.496 98.0807 165.843 98.22 165.125 98.22ZM165.807 95.184C166.525 95.184 167.105 94.9493 167.545 94.48C167.985 93.996 168.205 93.3873 168.205 92.654C168.205 92.1553 168.102 91.7153 167.897 91.334C167.706 90.9527 167.427 90.6593 167.061 90.454C166.709 90.234 166.298 90.124 165.829 90.124C165.359 90.124 164.941 90.234 164.575 90.454C164.223 90.6593 163.937 90.9527 163.717 91.334C163.511 91.7153 163.409 92.1553 163.409 92.654C163.409 93.138 163.511 93.5707 163.717 93.952C163.922 94.3333 164.208 94.634 164.575 94.854C164.941 95.074 165.352 95.184 165.807 95.184ZM168.073 98V95.118L168.579 92.522L168.073 89.926V87.308H171.373V98H168.073Z" fill="#F4679D"/>
<g clip-path="url(#clip0_1176_2570)">
<path d="M362.423 95.2095C367.162 95.2095 371 91.3077 371 86.4901C371 81.6726 367.162 77.7708 362.423 77.7708H359.994V77.731C364.733 77.731 368.572 73.8291 368.572 69.0116C368.572 64.194 364.733 60.2922 359.994 60.2922V60.2524L325.959 60.6904C332.539 48.9451 332.499 35.6869 331.559 27.5647C331.089 23.2648 327.486 20 323.217 20C319.026 20 315.462 23.1852 314.914 27.4055C313.034 41.3405 306.532 47.0738 300.657 55.5543C293.803 65.4283 293.176 76.7356 293.176 76.7356V107.512C293.176 116.072 299.991 123 308.412 123H359.994C363.323 123 365.987 120.253 365.987 116.908C365.987 113.564 363.284 110.817 359.994 110.817C364.224 110.817 367.632 107.353 367.632 103.053C367.632 98.753 364.224 95.2891 359.994 95.2891V95.2095H362.423Z" fill="#6F46BE"/>
<path d="M280.996 123H267.562C264.467 123 262 120.452 262 117.346V66.304C262 63.1587 264.507 60.6504 267.562 60.6504H280.996C284.09 60.6504 286.557 63.1985 286.557 66.304V117.306C286.596 120.452 284.09 123 280.996 123Z" fill="#6F46BE"/>
</g>
<path opacity="0.16" d="M315.519 157.439C334.031 157.439 349.038 155.326 349.038 152.72C349.038 150.113 334.031 148 315.519 148C297.007 148 282 150.113 282 152.72C282 155.326 297.007 157.439 315.519 157.439Z" fill="#553597"/>
<defs>
<clipPath id="clip0_1176_2570">
<rect width="109" height="103" fill="white" transform="translate(262 20)"/>
</clipPath>
</defs>
</svg>
