<svg width="384" height="234" viewBox="0 0 384 234" fill="none" xmlns="http://www.w3.org/2000/svg">
<path d="M5.632 87V70.056H9.4V87H5.632ZM8.512 87V83.736H17.8V87H8.512ZM8.512 79.92V76.776H16.96V79.92H8.512ZM8.512 73.296V70.056H17.68V73.296H8.512ZM24.3096 87.288C23.6216 87.288 22.9416 87.2 22.2696 87.024C21.6136 86.848 20.9976 86.6 20.4216 86.28C19.8616 85.944 19.3816 85.56 18.9816 85.128L21.0696 83.016C21.4536 83.432 21.9096 83.76 22.4376 84C22.9656 84.224 23.5416 84.336 24.1656 84.336C24.5976 84.336 24.9256 84.272 25.1496 84.144C25.3896 84.016 25.5096 83.84 25.5096 83.616C25.5096 83.328 25.3656 83.112 25.0776 82.968C24.8056 82.808 24.4536 82.672 24.0216 82.56C23.5896 82.432 23.1336 82.296 22.6536 82.152C22.1736 82.008 21.7176 81.808 21.2856 81.552C20.8536 81.296 20.5016 80.944 20.2296 80.496C19.9576 80.032 19.8216 79.448 19.8216 78.744C19.8216 77.992 20.0136 77.344 20.3976 76.8C20.7816 76.24 21.3256 75.8 22.0296 75.48C22.7336 75.16 23.5576 75 24.5016 75C25.4936 75 26.4056 75.176 27.2376 75.528C28.0856 75.864 28.7736 76.368 29.3016 77.04L27.2136 79.152C26.8456 78.72 26.4296 78.416 25.9656 78.24C25.5176 78.064 25.0776 77.976 24.6456 77.976C24.2296 77.976 23.9176 78.04 23.7096 78.168C23.5016 78.28 23.3976 78.448 23.3976 78.672C23.3976 78.912 23.5336 79.104 23.8056 79.248C24.0776 79.392 24.4296 79.52 24.8616 79.632C25.2936 79.744 25.7496 79.88 26.2296 80.04C26.7096 80.2 27.1656 80.416 27.5976 80.688C28.0296 80.96 28.3816 81.328 28.6536 81.792C28.9256 82.24 29.0616 82.832 29.0616 83.568C29.0616 84.704 28.6296 85.608 27.7656 86.28C26.9176 86.952 25.7656 87.288 24.3096 87.288ZM35.3018 87.288C34.6138 87.288 33.9338 87.2 33.2618 87.024C32.6058 86.848 31.9898 86.6 31.4138 86.28C30.8538 85.944 30.3738 85.56 29.9738 85.128L32.0618 83.016C32.4458 83.432 32.9018 83.76 33.4298 84C33.9578 84.224 34.5338 84.336 35.1578 84.336C35.5898 84.336 35.9178 84.272 36.1418 84.144C36.3818 84.016 36.5018 83.84 36.5018 83.616C36.5018 83.328 36.3578 83.112 36.0698 82.968C35.7978 82.808 35.4458 82.672 35.0138 82.56C34.5818 82.432 34.1258 82.296 33.6458 82.152C33.1658 82.008 32.7098 81.808 32.2778 81.552C31.8458 81.296 31.4938 80.944 31.2218 80.496C30.9498 80.032 30.8138 79.448 30.8138 78.744C30.8138 77.992 31.0058 77.344 31.3898 76.8C31.7738 76.24 32.3178 75.8 33.0218 75.48C33.7258 75.16 34.5498 75 35.4938 75C36.4858 75 37.3978 75.176 38.2298 75.528C39.0778 75.864 39.7658 76.368 40.2938 77.04L38.2058 79.152C37.8378 78.72 37.4218 78.416 36.9578 78.24C36.5098 78.064 36.0698 77.976 35.6378 77.976C35.2218 77.976 34.9098 78.04 34.7018 78.168C34.4938 78.28 34.3898 78.448 34.3898 78.672C34.3898 78.912 34.5258 79.104 34.7978 79.248C35.0698 79.392 35.4218 79.52 35.8538 79.632C36.2858 79.744 36.7418 79.88 37.2218 80.04C37.7018 80.2 38.1578 80.416 38.5898 80.688C39.0218 80.96 39.3738 81.328 39.6458 81.792C39.9178 82.24 40.0538 82.832 40.0538 83.568C40.0538 84.704 39.6218 85.608 38.7578 86.28C37.9098 86.952 36.7578 87.288 35.3018 87.288ZM46.918 87.24C45.846 87.24 44.886 86.976 44.038 86.448C43.206 85.92 42.542 85.2 42.046 84.288C41.566 83.376 41.326 82.336 41.326 81.168C41.326 80 41.566 78.96 42.046 78.048C42.542 77.136 43.206 76.416 44.038 75.888C44.886 75.36 45.846 75.096 46.918 75.096C47.702 75.096 48.406 75.248 49.03 75.552C49.67 75.856 50.19 76.28 50.59 76.824C50.99 77.352 51.214 77.96 51.262 78.648V83.688C51.214 84.376 50.99 84.992 50.59 85.536C50.206 86.064 49.694 86.48 49.054 86.784C48.414 87.088 47.702 87.24 46.918 87.24ZM47.662 83.928C48.446 83.928 49.078 83.672 49.558 83.16C50.038 82.632 50.278 81.968 50.278 81.168C50.278 80.624 50.166 80.144 49.942 79.728C49.734 79.312 49.43 78.992 49.03 78.768C48.646 78.528 48.198 78.408 47.686 78.408C47.174 78.408 46.718 78.528 46.318 78.768C45.934 78.992 45.622 79.312 45.382 79.728C45.158 80.144 45.046 80.624 45.046 81.168C45.046 81.696 45.158 82.168 45.382 82.584C45.606 83 45.918 83.328 46.318 83.568C46.718 83.808 47.166 83.928 47.662 83.928ZM50.134 87V83.856L50.686 81.024L50.134 78.192V75.336H53.734V87H50.134ZM67.6098 87.24C66.8258 87.24 66.1058 87.088 65.4498 86.784C64.7938 86.48 64.2578 86.064 63.8418 85.536C63.4258 84.992 63.1858 84.376 63.1217 83.688V78.768C63.1858 78.08 63.4258 77.456 63.8418 76.896C64.2578 76.336 64.7938 75.896 65.4498 75.576C66.1058 75.256 66.8258 75.096 67.6098 75.096C68.7138 75.096 69.6898 75.36 70.5378 75.888C71.4018 76.416 72.0738 77.136 72.5538 78.048C73.0498 78.96 73.2978 80 73.2978 81.168C73.2978 82.336 73.0498 83.376 72.5538 84.288C72.0738 85.2 71.4018 85.92 70.5378 86.448C69.6898 86.976 68.7138 87.24 67.6098 87.24ZM66.9378 83.928C67.4658 83.928 67.9218 83.808 68.3058 83.568C68.7058 83.328 69.0178 83 69.2418 82.584C69.4658 82.168 69.5778 81.696 69.5778 81.168C69.5778 80.624 69.4658 80.144 69.2418 79.728C69.0178 79.312 68.7058 78.992 68.3058 78.768C67.9218 78.528 67.4738 78.408 66.9618 78.408C66.4498 78.408 65.9938 78.528 65.5938 78.768C65.2098 78.992 64.9058 79.312 64.6818 79.728C64.4578 80.144 64.3458 80.624 64.3458 81.168C64.3458 81.696 64.4498 82.168 64.6578 82.584C64.8818 83 65.1938 83.328 65.5938 83.568C65.9938 83.808 66.4418 83.928 66.9378 83.928ZM60.8898 91.92V75.336H64.5618V78.336L63.9618 81.168L64.5138 84V91.92H60.8898ZM80.9232 87.264C79.6592 87.264 78.5312 87.008 77.5392 86.496C76.5632 85.968 75.7952 85.24 75.2352 84.312C74.6752 83.384 74.3952 82.336 74.3952 81.168C74.3952 80 74.6672 78.96 75.2112 78.048C75.7712 77.12 76.5232 76.392 77.4672 75.864C78.4112 75.336 79.4752 75.072 80.6592 75.072C81.8112 75.072 82.8272 75.32 83.7072 75.816C84.5872 76.312 85.2752 77 85.7712 77.88C86.2832 78.76 86.5392 79.768 86.5392 80.904C86.5392 81.112 86.5232 81.336 86.4912 81.576C86.4752 81.8 86.4352 82.064 86.3712 82.368L76.3152 82.392V79.872L84.8112 79.848L83.2272 80.904C83.2112 80.232 83.1072 79.68 82.9152 79.248C82.7232 78.8 82.4352 78.464 82.0512 78.24C81.6832 78 81.2272 77.88 80.6832 77.88C80.1072 77.88 79.6032 78.016 79.1712 78.288C78.7552 78.544 78.4272 78.912 78.1872 79.392C77.9632 79.872 77.8512 80.456 77.8512 81.144C77.8512 81.832 77.9712 82.424 78.2112 82.92C78.4672 83.4 78.8192 83.776 79.2672 84.048C79.7312 84.304 80.2752 84.432 80.8992 84.432C81.4752 84.432 81.9952 84.336 82.4592 84.144C82.9232 83.936 83.3312 83.632 83.6832 83.232L85.6992 85.248C85.1232 85.92 84.4272 86.424 83.6112 86.76C82.7952 87.096 81.8992 87.264 80.9232 87.264ZM92.5596 87.288C91.8716 87.288 91.1916 87.2 90.5196 87.024C89.8636 86.848 89.2476 86.6 88.6716 86.28C88.1116 85.944 87.6316 85.56 87.2316 85.128L89.3196 83.016C89.7036 83.432 90.1596 83.76 90.6876 84C91.2156 84.224 91.7916 84.336 92.4156 84.336C92.8476 84.336 93.1756 84.272 93.3996 84.144C93.6396 84.016 93.7596 83.84 93.7596 83.616C93.7596 83.328 93.6156 83.112 93.3276 82.968C93.0556 82.808 92.7036 82.672 92.2716 82.56C91.8396 82.432 91.3836 82.296 90.9036 82.152C90.4236 82.008 89.9676 81.808 89.5356 81.552C89.1036 81.296 88.7516 80.944 88.4796 80.496C88.2076 80.032 88.0716 79.448 88.0716 78.744C88.0716 77.992 88.2636 77.344 88.6476 76.8C89.0316 76.24 89.5756 75.8 90.2796 75.48C90.9836 75.16 91.8076 75 92.7516 75C93.7436 75 94.6556 75.176 95.4876 75.528C96.3356 75.864 97.0236 76.368 97.5516 77.04L95.4636 79.152C95.0956 78.72 94.6796 78.416 94.2156 78.24C93.7676 78.064 93.3276 77.976 92.8956 77.976C92.4796 77.976 92.1676 78.04 91.9596 78.168C91.7516 78.28 91.6476 78.448 91.6476 78.672C91.6476 78.912 91.7836 79.104 92.0556 79.248C92.3276 79.392 92.6796 79.52 93.1116 79.632C93.5436 79.744 93.9996 79.88 94.4796 80.04C94.9596 80.2 95.4156 80.416 95.8476 80.688C96.2796 80.96 96.6316 81.328 96.9036 81.792C97.1756 82.24 97.3116 82.832 97.3116 83.568C97.3116 84.704 96.8796 85.608 96.0156 86.28C95.1676 86.952 94.0156 87.288 92.5596 87.288ZM104.176 87.24C103.104 87.24 102.144 86.976 101.296 86.448C100.464 85.92 99.7998 85.2 99.3038 84.288C98.8238 83.376 98.5838 82.336 98.5838 81.168C98.5838 80 98.8238 78.96 99.3038 78.048C99.7998 77.136 100.464 76.416 101.296 75.888C102.144 75.36 103.104 75.096 104.176 75.096C104.96 75.096 105.664 75.248 106.288 75.552C106.928 75.856 107.448 76.28 107.848 76.824C108.248 77.352 108.472 77.96 108.52 78.648V83.688C108.472 84.376 108.248 84.992 107.848 85.536C107.464 86.064 106.952 86.48 106.312 86.784C105.672 87.088 104.96 87.24 104.176 87.24ZM104.92 83.928C105.704 83.928 106.336 83.672 106.816 83.16C107.296 82.632 107.536 81.968 107.536 81.168C107.536 80.624 107.424 80.144 107.2 79.728C106.992 79.312 106.688 78.992 106.288 78.768C105.904 78.528 105.456 78.408 104.944 78.408C104.432 78.408 103.976 78.528 103.576 78.768C103.192 78.992 102.88 79.312 102.64 79.728C102.416 80.144 102.304 80.624 102.304 81.168C102.304 81.696 102.416 82.168 102.64 82.584C102.864 83 103.176 83.328 103.576 83.568C103.976 83.808 104.424 83.928 104.92 83.928ZM107.392 91.92V84L107.944 81.168L107.392 78.336V75.336H110.992V91.92H107.392ZM118.761 87.264C117.689 87.264 116.737 87.048 115.905 86.616C115.089 86.168 114.449 85.56 113.985 84.792C113.521 84.008 113.289 83.112 113.289 82.104V75.336H116.961V82.056C116.961 82.456 117.025 82.8 117.153 83.088C117.297 83.376 117.505 83.6 117.777 83.76C118.049 83.92 118.377 84 118.761 84C119.305 84 119.737 83.832 120.057 83.496C120.377 83.144 120.537 82.664 120.537 82.056V75.336H124.209V82.08C124.209 83.104 123.977 84.008 123.513 84.792C123.049 85.56 122.409 86.168 121.593 86.616C120.777 87.048 119.833 87.264 118.761 87.264ZM126.515 87V75.336H130.187V87H126.515ZM128.363 73.728C127.787 73.728 127.307 73.536 126.923 73.152C126.555 72.752 126.371 72.272 126.371 71.712C126.371 71.136 126.555 70.656 126.923 70.272C127.307 69.888 127.787 69.696 128.363 69.696C128.939 69.696 129.411 69.888 129.779 70.272C130.147 70.656 130.331 71.136 130.331 71.712C130.331 72.272 130.147 72.752 129.779 73.152C129.411 73.536 128.939 73.728 128.363 73.728ZM137.021 87.288C136.333 87.288 135.653 87.2 134.981 87.024C134.325 86.848 133.709 86.6 133.133 86.28C132.573 85.944 132.093 85.56 131.693 85.128L133.781 83.016C134.165 83.432 134.621 83.76 135.149 84C135.677 84.224 136.253 84.336 136.877 84.336C137.309 84.336 137.637 84.272 137.861 84.144C138.101 84.016 138.221 83.84 138.221 83.616C138.221 83.328 138.077 83.112 137.789 82.968C137.517 82.808 137.165 82.672 136.733 82.56C136.301 82.432 135.845 82.296 135.365 82.152C134.885 82.008 134.429 81.808 133.997 81.552C133.565 81.296 133.213 80.944 132.941 80.496C132.669 80.032 132.533 79.448 132.533 78.744C132.533 77.992 132.725 77.344 133.109 76.8C133.493 76.24 134.037 75.8 134.741 75.48C135.445 75.16 136.269 75 137.213 75C138.205 75 139.117 75.176 139.949 75.528C140.797 75.864 141.485 76.368 142.013 77.04L139.925 79.152C139.557 78.72 139.141 78.416 138.677 78.24C138.229 78.064 137.789 77.976 137.357 77.976C136.941 77.976 136.629 78.04 136.421 78.168C136.213 78.28 136.109 78.448 136.109 78.672C136.109 78.912 136.245 79.104 136.517 79.248C136.789 79.392 137.141 79.52 137.573 79.632C138.005 79.744 138.461 79.88 138.941 80.04C139.421 80.2 139.877 80.416 140.309 80.688C140.741 80.96 141.093 81.328 141.365 81.792C141.637 82.24 141.773 82.832 141.773 83.568C141.773 84.704 141.341 85.608 140.477 86.28C139.629 86.952 138.477 87.288 137.021 87.288ZM148.637 87.24C147.565 87.24 146.605 86.976 145.757 86.448C144.925 85.92 144.261 85.2 143.765 84.288C143.285 83.376 143.045 82.336 143.045 81.168C143.045 80 143.285 78.96 143.765 78.048C144.261 77.136 144.925 76.416 145.757 75.888C146.605 75.36 147.565 75.096 148.637 75.096C149.421 75.096 150.125 75.248 150.749 75.552C151.389 75.856 151.909 76.28 152.309 76.824C152.709 77.352 152.933 77.96 152.981 78.648V83.688C152.933 84.376 152.709 84.992 152.309 85.536C151.925 86.064 151.413 86.48 150.773 86.784C150.133 87.088 149.421 87.24 148.637 87.24ZM149.381 83.928C150.165 83.928 150.797 83.672 151.277 83.16C151.757 82.632 151.997 81.968 151.997 81.168C151.997 80.624 151.885 80.144 151.661 79.728C151.453 79.312 151.149 78.992 150.749 78.768C150.365 78.528 149.917 78.408 149.405 78.408C148.893 78.408 148.437 78.528 148.037 78.768C147.653 78.992 147.341 79.312 147.101 79.728C146.877 80.144 146.765 80.624 146.765 81.168C146.765 81.696 146.877 82.168 147.101 82.584C147.325 83 147.637 83.328 148.037 83.568C148.437 83.808 148.885 83.928 149.381 83.928ZM151.853 87V83.856L152.405 81.024L151.853 78.192V75.336H155.453V87H151.853ZM190.265 119.88L192.017 116.616L193.097 116.304C192.985 116.544 192.849 116.744 192.689 116.904C192.529 117.048 192.345 117.12 192.137 117.12C191.673 117.12 191.249 116.928 190.865 116.544C190.481 116.16 190.289 115.68 190.289 115.104C190.289 114.48 190.497 113.944 190.913 113.496C191.345 113.048 191.873 112.824 192.497 112.824C193.089 112.824 193.601 113.048 194.033 113.496C194.481 113.928 194.705 114.464 194.705 115.104C194.705 115.36 194.657 115.656 194.561 115.992C194.465 116.328 194.273 116.768 193.985 117.312L192.041 120.864L190.265 119.88ZM10.912 147.264C9.712 147.264 8.624 147 7.648 146.472C6.688 145.928 5.928 145.192 5.368 144.264C4.808 143.336 4.528 142.296 4.528 141.144C4.528 139.992 4.808 138.96 5.368 138.048C5.928 137.136 6.688 136.416 7.648 135.888C8.608 135.344 9.696 135.072 10.912 135.072C12.128 135.072 13.216 135.336 14.176 135.864C15.136 136.392 15.896 137.12 16.456 138.048C17.016 138.96 17.296 139.992 17.296 141.144C17.296 142.296 17.016 143.336 16.456 144.264C15.896 145.192 15.136 145.928 14.176 146.472C13.216 147 12.128 147.264 10.912 147.264ZM10.912 143.928C11.44 143.928 11.904 143.816 12.304 143.592C12.704 143.352 13.008 143.024 13.216 142.608C13.44 142.176 13.552 141.688 13.552 141.144C13.552 140.6 13.44 140.128 13.216 139.728C12.992 139.312 12.68 138.992 12.28 138.768C11.896 138.528 11.44 138.408 10.912 138.408C10.4 138.408 9.944 138.528 9.544 138.768C9.144 138.992 8.832 139.312 8.608 139.728C8.384 140.144 8.272 140.624 8.272 141.168C8.272 141.696 8.384 142.176 8.608 142.608C8.832 143.024 9.144 143.352 9.544 143.592C9.944 143.816 10.4 143.928 10.912 143.928ZM25.8441 147.24C25.0601 147.24 24.3401 147.08 23.6841 146.76C23.0281 146.424 22.4921 145.984 22.0761 145.44C21.6601 144.88 21.4201 144.256 21.3561 143.568V138.648C21.4201 137.96 21.6601 137.352 22.0761 136.824C22.4921 136.28 23.0281 135.856 23.6841 135.552C24.3401 135.248 25.0601 135.096 25.8441 135.096C26.9481 135.096 27.9241 135.36 28.7721 135.888C29.6361 136.416 30.3081 137.136 30.7881 138.048C31.2841 138.96 31.5321 140 31.5321 141.168C31.5321 142.336 31.2841 143.376 30.7881 144.288C30.3081 145.2 29.6361 145.92 28.7721 146.448C27.9241 146.976 26.9481 147.24 25.8441 147.24ZM25.1961 143.928C25.7081 143.928 26.1561 143.808 26.5401 143.568C26.9401 143.328 27.2521 143 27.4761 142.584C27.7001 142.168 27.8121 141.696 27.8121 141.168C27.8121 140.624 27.7001 140.144 27.4761 139.728C27.2521 139.312 26.9401 138.992 26.5401 138.768C26.1561 138.528 25.7081 138.408 25.1961 138.408C24.6841 138.408 24.2281 138.528 23.8281 138.768C23.4281 138.992 23.1161 139.312 22.8921 139.728C22.6841 140.144 22.5801 140.624 22.5801 141.168C22.5801 141.712 22.6921 142.192 22.9161 142.608C23.1401 143.024 23.4441 143.352 23.8281 143.592C24.2281 143.816 24.6841 143.928 25.1961 143.928ZM19.1241 147V129.576H22.7961V138.192L22.1961 141.024L22.7481 143.856V147H19.1241ZM33.3976 147V135.336H37.0696V147H33.3976ZM37.0696 140.592L35.5336 139.392C35.8376 138.032 36.3496 136.976 37.0696 136.224C37.7896 135.472 38.7896 135.096 40.0696 135.096C40.6296 135.096 41.1176 135.184 41.5336 135.36C41.9656 135.52 42.3416 135.776 42.6616 136.128L40.4776 138.888C40.3176 138.712 40.1176 138.576 39.8776 138.48C39.6376 138.384 39.3656 138.336 39.0616 138.336C38.4536 138.336 37.9656 138.528 37.5976 138.912C37.2456 139.28 37.0696 139.84 37.0696 140.592ZM43.6398 147V135.336H47.3118V147H43.6398ZM45.4878 133.728C44.9118 133.728 44.4318 133.536 44.0478 133.152C43.6798 132.752 43.4958 132.272 43.4958 131.712C43.4958 131.136 43.6798 130.656 44.0478 130.272C44.4318 129.888 44.9118 129.696 45.4878 129.696C46.0638 129.696 46.5358 129.888 46.9038 130.272C47.2718 130.656 47.4558 131.136 47.4558 131.712C47.4558 132.272 47.2718 132.752 46.9038 133.152C46.5358 133.536 46.0638 133.728 45.4878 133.728ZM54.8416 152.232C53.5616 152.232 52.4336 152.008 51.4576 151.56C50.4976 151.128 49.7376 150.512 49.1776 149.712L51.4336 147.456C51.8496 147.952 52.3136 148.328 52.8256 148.584C53.3536 148.84 53.9856 148.968 54.7216 148.968C55.6336 148.968 56.3456 148.744 56.8576 148.296C57.3856 147.848 57.6496 147.216 57.6496 146.4V143.424L58.2736 140.88L57.7216 138.336V135.336H61.3216V146.304C61.3216 147.504 61.0416 148.544 60.4816 149.424C59.9216 150.304 59.1536 150.992 58.1776 151.488C57.2016 151.984 56.0896 152.232 54.8416 152.232ZM54.6736 146.64C53.6016 146.64 52.6496 146.384 51.8176 145.872C50.9856 145.36 50.3296 144.664 49.8496 143.784C49.3696 142.904 49.1296 141.928 49.1296 140.856C49.1296 139.768 49.3696 138.792 49.8496 137.928C50.3296 137.048 50.9856 136.36 51.8176 135.864C52.6496 135.352 53.6016 135.096 54.6736 135.096C55.4736 135.096 56.1856 135.248 56.8096 135.552C57.4496 135.84 57.9616 136.256 58.3456 136.8C58.7456 137.328 58.9696 137.944 59.0176 138.648V143.088C58.9696 143.776 58.7456 144.392 58.3456 144.936C57.9616 145.464 57.4496 145.88 56.8096 146.184C56.1696 146.488 55.4576 146.64 54.6736 146.64ZM55.3696 143.376C55.8816 143.376 56.3216 143.264 56.6896 143.04C57.0736 142.816 57.3616 142.52 57.5536 142.152C57.7616 141.768 57.8656 141.336 57.8656 140.856C57.8656 140.376 57.7616 139.944 57.5536 139.56C57.3616 139.176 57.0736 138.872 56.6896 138.648C56.3216 138.424 55.8816 138.312 55.3696 138.312C54.8736 138.312 54.4336 138.424 54.0496 138.648C53.6656 138.872 53.3696 139.176 53.1616 139.56C52.9536 139.944 52.8496 140.376 52.8496 140.856C52.8496 141.304 52.9536 141.728 53.1616 142.128C53.3696 142.512 53.6576 142.816 54.0256 143.04C54.4096 143.264 54.8576 143.376 55.3696 143.376ZM68.7852 147.24C67.7132 147.24 66.7532 146.976 65.9052 146.448C65.0732 145.92 64.4092 145.2 63.9132 144.288C63.4332 143.376 63.1932 142.336 63.1932 141.168C63.1932 140 63.4332 138.96 63.9132 138.048C64.4092 137.136 65.0732 136.416 65.9052 135.888C66.7532 135.36 67.7132 135.096 68.7852 135.096C69.5692 135.096 70.2732 135.248 70.8972 135.552C71.5372 135.856 72.0572 136.28 72.4572 136.824C72.8572 137.352 73.0812 137.96 73.1292 138.648V143.688C73.0812 144.376 72.8572 144.992 72.4572 145.536C72.0732 146.064 71.5612 146.48 70.9212 146.784C70.2812 147.088 69.5692 147.24 68.7852 147.24ZM69.5292 143.928C70.3132 143.928 70.9452 143.672 71.4252 143.16C71.9052 142.632 72.1452 141.968 72.1452 141.168C72.1452 140.624 72.0332 140.144 71.8092 139.728C71.6012 139.312 71.2972 138.992 70.8972 138.768C70.5132 138.528 70.0652 138.408 69.5532 138.408C69.0412 138.408 68.5852 138.528 68.1852 138.768C67.8012 138.992 67.4892 139.312 67.2492 139.728C67.0252 140.144 66.9132 140.624 66.9132 141.168C66.9132 141.696 67.0252 142.168 67.2492 142.584C67.4732 143 67.7852 143.328 68.1852 143.568C68.5852 143.808 69.0332 143.928 69.5292 143.928ZM72.0012 147V143.856L72.5532 141.024L72.0012 138.192V135.336H75.6012V147H72.0012ZM83.1546 147.24C82.0506 147.24 81.0666 146.976 80.2026 146.448C79.3546 145.92 78.6826 145.2 78.1866 144.288C77.7066 143.376 77.4666 142.336 77.4666 141.168C77.4666 140 77.7066 138.96 78.1866 138.048C78.6826 137.136 79.3546 136.416 80.2026 135.888C81.0666 135.36 82.0506 135.096 83.1546 135.096C83.9546 135.096 84.6746 135.248 85.3146 135.552C85.9706 135.856 86.5066 136.28 86.9226 136.824C87.3546 137.352 87.5946 137.96 87.6426 138.648V143.568C87.5946 144.256 87.3626 144.88 86.9466 145.44C86.5306 145.984 85.9946 146.424 85.3386 146.76C84.6826 147.08 83.9546 147.24 83.1546 147.24ZM83.8026 143.928C84.3306 143.928 84.7866 143.816 85.1706 143.592C85.5546 143.352 85.8586 143.024 86.0826 142.608C86.3066 142.192 86.4186 141.712 86.4186 141.168C86.4186 140.624 86.3066 140.152 86.0826 139.752C85.8746 139.336 85.5706 139.008 85.1706 138.768C84.7866 138.528 84.3386 138.408 83.8266 138.408C83.3146 138.408 82.8586 138.528 82.4586 138.768C82.0746 139.008 81.7626 139.336 81.5226 139.752C81.2986 140.168 81.1866 140.64 81.1866 141.168C81.1866 141.696 81.2986 142.168 81.5226 142.584C81.7466 143 82.0586 143.328 82.4586 143.568C82.8586 143.808 83.3066 143.928 83.8026 143.928ZM89.8746 147H86.2746V143.856L86.8266 141.024L86.2026 138.192V129.576H89.8746V147ZM98.0761 147.264C96.8761 147.264 95.7881 147 94.8121 146.472C93.8521 145.928 93.0921 145.192 92.5321 144.264C91.9721 143.336 91.6921 142.296 91.6921 141.144C91.6921 139.992 91.9721 138.96 92.5321 138.048C93.0921 137.136 93.8521 136.416 94.8121 135.888C95.7721 135.344 96.8601 135.072 98.0761 135.072C99.2921 135.072 100.38 135.336 101.34 135.864C102.3 136.392 103.06 137.12 103.62 138.048C104.18 138.96 104.46 139.992 104.46 141.144C104.46 142.296 104.18 143.336 103.62 144.264C103.06 145.192 102.3 145.928 101.34 146.472C100.38 147 99.2921 147.264 98.0761 147.264ZM98.0761 143.928C98.6041 143.928 99.0681 143.816 99.4681 143.592C99.8681 143.352 100.172 143.024 100.38 142.608C100.604 142.176 100.716 141.688 100.716 141.144C100.716 140.6 100.604 140.128 100.38 139.728C100.156 139.312 99.8441 138.992 99.4441 138.768C99.0601 138.528 98.6041 138.408 98.0761 138.408C97.5641 138.408 97.1081 138.528 96.7081 138.768C96.3081 138.992 95.9961 139.312 95.7721 139.728C95.5481 140.144 95.4361 140.624 95.4361 141.168C95.4361 141.696 95.5481 142.176 95.7721 142.608C95.9961 143.024 96.3081 143.352 96.7081 143.592C97.1081 143.816 97.5641 143.928 98.0761 143.928ZM107.008 140.808L106.408 129.576H110.368L109.768 140.808H107.008ZM108.376 147.264C107.752 147.264 107.232 147.048 106.816 146.616C106.4 146.184 106.192 145.664 106.192 145.056C106.192 144.416 106.4 143.888 106.816 143.472C107.232 143.04 107.752 142.824 108.376 142.824C109.016 142.824 109.536 143.04 109.936 143.472C110.352 143.888 110.56 144.416 110.56 145.056C110.56 145.664 110.352 146.184 109.936 146.616C109.536 147.048 109.016 147.264 108.376 147.264Z" fill="#6F46BE"/>
<path d="M4.624 122.232C3.776 122.232 3.056 122.088 2.464 121.8C1.872 121.528 1.352 121.136 0.904 120.624L3.184 118.344C3.36 118.552 3.544 118.696 3.736 118.776C3.912 118.872 4.12 118.92 4.36 118.92C4.712 118.92 5 118.816 5.224 118.608C5.464 118.4 5.584 118.08 5.584 117.648V105.336H9.256V117.6C9.256 118.544 9.056 119.36 8.656 120.048C8.256 120.736 7.704 121.272 7 121.656C6.312 122.04 5.52 122.232 4.624 122.232ZM7.456 103.728C6.88 103.728 6.4 103.536 6.016 103.152C5.648 102.752 5.464 102.272 5.464 101.712C5.464 101.136 5.648 100.656 6.016 100.272C6.4 99.888 6.88 99.696 7.456 99.696C8.032 99.696 8.504 99.888 8.872 100.272C9.24 100.656 9.424 101.136 9.424 101.712C9.424 102.272 9.24 102.752 8.872 103.152C8.504 103.536 8.032 103.728 7.456 103.728ZM16.7305 117.24C15.6585 117.24 14.6985 116.976 13.8505 116.448C13.0185 115.92 12.3545 115.2 11.8585 114.288C11.3785 113.376 11.1385 112.336 11.1385 111.168C11.1385 110 11.3785 108.96 11.8585 108.048C12.3545 107.136 13.0185 106.416 13.8505 105.888C14.6985 105.36 15.6585 105.096 16.7305 105.096C17.5145 105.096 18.2185 105.248 18.8425 105.552C19.4825 105.856 20.0025 106.28 20.4025 106.824C20.8025 107.352 21.0265 107.96 21.0745 108.648V113.688C21.0265 114.376 20.8025 114.992 20.4025 115.536C20.0185 116.064 19.5065 116.48 18.8665 116.784C18.2265 117.088 17.5145 117.24 16.7305 117.24ZM17.4745 113.928C18.2585 113.928 18.8905 113.672 19.3705 113.16C19.8505 112.632 20.0905 111.968 20.0905 111.168C20.0905 110.624 19.9785 110.144 19.7545 109.728C19.5465 109.312 19.2425 108.992 18.8425 108.768C18.4585 108.528 18.0105 108.408 17.4985 108.408C16.9865 108.408 16.5305 108.528 16.1305 108.768C15.7465 108.992 15.4345 109.312 15.1945 109.728C14.9705 110.144 14.8585 110.624 14.8585 111.168C14.8585 111.696 14.9705 112.168 15.1945 112.584C15.4185 113 15.7305 113.328 16.1305 113.568C16.5305 113.808 16.9785 113.928 17.4745 113.928ZM19.9465 117V113.856L20.4985 111.024L19.9465 108.192V105.336H23.5465V117H19.9465ZM15.7465 104.016L14.5465 102.264L18.3625 98.688L20.3785 101.52L15.7465 104.016ZM32.1903 117V104.328C32.1903 103.384 32.3983 102.536 32.8143 101.784C33.2463 101.016 33.8463 100.416 34.6143 99.984C35.3823 99.536 36.2943 99.312 37.3503 99.312C38.1503 99.312 38.8463 99.448 39.4383 99.72C40.0463 99.976 40.5743 100.336 41.0223 100.8L38.7183 103.104C38.5583 102.944 38.3743 102.824 38.1663 102.744C37.9743 102.648 37.7423 102.6 37.4703 102.6C36.9743 102.6 36.5823 102.744 36.2943 103.032C36.0063 103.32 35.8623 103.712 35.8623 104.208V117H32.1903ZM29.6223 108.456V105.336H39.2223V108.456H29.6223ZM46.2558 117.264C45.0558 117.264 43.9678 117 42.9918 116.472C42.0318 115.928 41.2718 115.192 40.7118 114.264C40.1518 113.336 39.8718 112.296 39.8718 111.144C39.8718 109.992 40.1518 108.96 40.7118 108.048C41.2718 107.136 42.0318 106.416 42.9918 105.888C43.9518 105.344 45.0398 105.072 46.2558 105.072C47.4718 105.072 48.5598 105.336 49.5198 105.864C50.4798 106.392 51.2398 107.12 51.7998 108.048C52.3598 108.96 52.6398 109.992 52.6398 111.144C52.6398 112.296 52.3598 113.336 51.7998 114.264C51.2398 115.192 50.4798 115.928 49.5198 116.472C48.5598 117 47.4718 117.264 46.2558 117.264ZM46.2558 113.928C46.7838 113.928 47.2478 113.816 47.6478 113.592C48.0478 113.352 48.3518 113.024 48.5598 112.608C48.7838 112.176 48.8958 111.688 48.8958 111.144C48.8958 110.6 48.7838 110.128 48.5598 109.728C48.3358 109.312 48.0238 108.992 47.6238 108.768C47.2398 108.528 46.7838 108.408 46.2558 108.408C45.7438 108.408 45.2878 108.528 44.8878 108.768C44.4878 108.992 44.1758 109.312 43.9518 109.728C43.7278 110.144 43.6158 110.624 43.6158 111.168C43.6158 111.696 43.7278 112.176 43.9518 112.608C44.1758 113.024 44.4878 113.352 44.8878 113.592C45.2878 113.816 45.7438 113.928 46.2558 113.928ZM54.4679 117V105.336H58.1399V117H54.4679ZM56.3159 103.728C55.7399 103.728 55.2599 103.536 54.8759 103.152C54.5079 102.752 54.3239 102.272 54.3239 101.712C54.3239 101.136 54.5079 100.656 54.8759 100.272C55.2599 99.888 55.7399 99.696 56.3159 99.696C56.8919 99.696 57.3639 99.888 57.7319 100.272C58.0999 100.656 58.2839 101.136 58.2839 101.712C58.2839 102.272 58.0999 102.752 57.7319 103.152C57.3639 103.536 56.8919 103.728 56.3159 103.728ZM65.296 117V105.336H68.968V117H65.296ZM68.968 110.592L67.432 109.392C67.736 108.032 68.248 106.976 68.968 106.224C69.688 105.472 70.688 105.096 71.968 105.096C72.528 105.096 73.016 105.184 73.432 105.36C73.864 105.52 74.24 105.776 74.56 106.128L72.376 108.888C72.216 108.712 72.016 108.576 71.776 108.48C71.536 108.384 71.264 108.336 70.96 108.336C70.352 108.336 69.864 108.528 69.496 108.912C69.144 109.28 68.968 109.84 68.968 110.592ZM80.9701 117.264C79.7061 117.264 78.5781 117.008 77.5861 116.496C76.6101 115.968 75.8421 115.24 75.2821 114.312C74.7221 113.384 74.4421 112.336 74.4421 111.168C74.4421 110 74.7141 108.96 75.2581 108.048C75.8181 107.12 76.5701 106.392 77.5141 105.864C78.4581 105.336 79.5221 105.072 80.7061 105.072C81.8581 105.072 82.8741 105.32 83.7541 105.816C84.6341 106.312 85.3221 107 85.8181 107.88C86.3301 108.76 86.5861 109.768 86.5861 110.904C86.5861 111.112 86.5701 111.336 86.5381 111.576C86.5221 111.8 86.4821 112.064 86.4181 112.368L76.3621 112.392V109.872L84.8581 109.848L83.2741 110.904C83.2581 110.232 83.1541 109.68 82.9621 109.248C82.7701 108.8 82.4821 108.464 82.0981 108.24C81.7301 108 81.2741 107.88 80.7301 107.88C80.1541 107.88 79.6501 108.016 79.2181 108.288C78.8021 108.544 78.4741 108.912 78.2341 109.392C78.0101 109.872 77.8981 110.456 77.8981 111.144C77.8981 111.832 78.0181 112.424 78.2581 112.92C78.5141 113.4 78.8661 113.776 79.3141 114.048C79.7781 114.304 80.3221 114.432 80.9461 114.432C81.5221 114.432 82.0421 114.336 82.5061 114.144C82.9701 113.936 83.3781 113.632 83.7301 113.232L85.7461 115.248C85.1701 115.92 84.4741 116.424 83.6581 116.76C82.8421 117.096 81.9461 117.264 80.9701 117.264ZM92.6065 117.288C91.9185 117.288 91.2385 117.2 90.5665 117.024C89.9105 116.848 89.2945 116.6 88.7185 116.28C88.1585 115.944 87.6785 115.56 87.2785 115.128L89.3665 113.016C89.7505 113.432 90.2065 113.76 90.7345 114C91.2625 114.224 91.8385 114.336 92.4625 114.336C92.8945 114.336 93.2225 114.272 93.4465 114.144C93.6865 114.016 93.8065 113.84 93.8065 113.616C93.8065 113.328 93.6625 113.112 93.3745 112.968C93.1025 112.808 92.7505 112.672 92.3185 112.56C91.8865 112.432 91.4305 112.296 90.9505 112.152C90.4705 112.008 90.0145 111.808 89.5825 111.552C89.1505 111.296 88.7985 110.944 88.5265 110.496C88.2545 110.032 88.1185 109.448 88.1185 108.744C88.1185 107.992 88.3105 107.344 88.6945 106.8C89.0785 106.24 89.6225 105.8 90.3265 105.48C91.0305 105.16 91.8545 105 92.7985 105C93.7905 105 94.7025 105.176 95.5345 105.528C96.3825 105.864 97.0705 106.368 97.5985 107.04L95.5105 109.152C95.1425 108.72 94.7265 108.416 94.2625 108.24C93.8145 108.064 93.3745 107.976 92.9425 107.976C92.5265 107.976 92.2145 108.04 92.0065 108.168C91.7985 108.28 91.6945 108.448 91.6945 108.672C91.6945 108.912 91.8305 109.104 92.1025 109.248C92.3745 109.392 92.7265 109.52 93.1585 109.632C93.5905 109.744 94.0465 109.88 94.5265 110.04C95.0065 110.2 95.4625 110.416 95.8945 110.688C96.3265 110.96 96.6785 111.328 96.9505 111.792C97.2225 112.24 97.3585 112.832 97.3585 113.568C97.3585 114.704 96.9265 115.608 96.0625 116.28C95.2145 116.952 94.0625 117.288 92.6065 117.288ZM106.071 117.24C105.287 117.24 104.567 117.088 103.911 116.784C103.255 116.48 102.719 116.064 102.303 115.536C101.887 114.992 101.647 114.376 101.583 113.688V108.768C101.647 108.08 101.887 107.456 102.303 106.896C102.719 106.336 103.255 105.896 103.911 105.576C104.567 105.256 105.287 105.096 106.071 105.096C107.175 105.096 108.151 105.36 108.999 105.888C109.863 106.416 110.535 107.136 111.015 108.048C111.511 108.96 111.759 110 111.759 111.168C111.759 112.336 111.511 113.376 111.015 114.288C110.535 115.2 109.863 115.92 108.999 116.448C108.151 116.976 107.175 117.24 106.071 117.24ZM105.399 113.928C105.927 113.928 106.383 113.808 106.767 113.568C107.167 113.328 107.479 113 107.703 112.584C107.927 112.168 108.039 111.696 108.039 111.168C108.039 110.624 107.927 110.144 107.703 109.728C107.479 109.312 107.167 108.992 106.767 108.768C106.383 108.528 105.935 108.408 105.423 108.408C104.911 108.408 104.455 108.528 104.055 108.768C103.671 108.992 103.367 109.312 103.143 109.728C102.919 110.144 102.807 110.624 102.807 111.168C102.807 111.696 102.911 112.168 103.119 112.584C103.343 113 103.655 113.328 104.055 113.568C104.455 113.808 104.903 113.928 105.399 113.928ZM99.3507 121.92V105.336H103.023V108.336L102.423 111.168L102.975 114V121.92H99.3507ZM119.24 117.264C118.04 117.264 116.952 117 115.976 116.472C115.016 115.928 114.256 115.192 113.696 114.264C113.136 113.336 112.856 112.296 112.856 111.144C112.856 109.992 113.136 108.96 113.696 108.048C114.256 107.136 115.016 106.416 115.976 105.888C116.936 105.344 118.024 105.072 119.24 105.072C120.456 105.072 121.544 105.336 122.504 105.864C123.464 106.392 124.224 107.12 124.784 108.048C125.344 108.96 125.624 109.992 125.624 111.144C125.624 112.296 125.344 113.336 124.784 114.264C124.224 115.192 123.464 115.928 122.504 116.472C121.544 117 120.456 117.264 119.24 117.264ZM119.24 113.928C119.768 113.928 120.232 113.816 120.632 113.592C121.032 113.352 121.336 113.024 121.544 112.608C121.768 112.176 121.88 111.688 121.88 111.144C121.88 110.6 121.768 110.128 121.544 109.728C121.32 109.312 121.008 108.992 120.608 108.768C120.224 108.528 119.768 108.408 119.24 108.408C118.728 108.408 118.272 108.528 117.872 108.768C117.472 108.992 117.16 109.312 116.936 109.728C116.712 110.144 116.6 110.624 116.6 111.168C116.6 111.696 116.712 112.176 116.936 112.608C117.16 113.024 117.472 113.352 117.872 113.592C118.272 113.816 118.728 113.928 119.24 113.928ZM135.156 117V110.352C135.156 109.744 134.964 109.256 134.58 108.888C134.212 108.504 133.74 108.312 133.164 108.312C132.764 108.312 132.412 108.4 132.108 108.576C131.804 108.736 131.564 108.976 131.388 109.296C131.212 109.6 131.124 109.952 131.124 110.352L129.708 109.656C129.708 108.744 129.908 107.944 130.308 107.256C130.708 106.568 131.26 106.04 131.964 105.672C132.684 105.288 133.492 105.096 134.388 105.096C135.252 105.096 136.012 105.304 136.668 105.72C137.34 106.12 137.868 106.656 138.252 107.328C138.636 108 138.828 108.736 138.828 109.536V117H135.156ZM127.452 117V105.336H131.124V117H127.452ZM146.155 117.24C145.051 117.24 144.067 116.976 143.203 116.448C142.355 115.92 141.683 115.2 141.187 114.288C140.707 113.376 140.467 112.336 140.467 111.168C140.467 110 140.707 108.96 141.187 108.048C141.683 107.136 142.355 106.416 143.203 105.888C144.067 105.36 145.051 105.096 146.155 105.096C146.955 105.096 147.675 105.248 148.315 105.552C148.971 105.856 149.507 106.28 149.923 106.824C150.355 107.352 150.595 107.96 150.643 108.648V113.568C150.595 114.256 150.363 114.88 149.947 115.44C149.531 115.984 148.995 116.424 148.339 116.76C147.683 117.08 146.955 117.24 146.155 117.24ZM146.803 113.928C147.331 113.928 147.787 113.816 148.171 113.592C148.555 113.352 148.859 113.024 149.083 112.608C149.307 112.192 149.419 111.712 149.419 111.168C149.419 110.624 149.307 110.152 149.083 109.752C148.875 109.336 148.571 109.008 148.171 108.768C147.787 108.528 147.339 108.408 146.827 108.408C146.315 108.408 145.859 108.528 145.459 108.768C145.075 109.008 144.763 109.336 144.523 109.752C144.299 110.168 144.187 110.64 144.187 111.168C144.187 111.696 144.299 112.168 144.523 112.584C144.747 113 145.059 113.328 145.459 113.568C145.859 113.808 146.307 113.928 146.803 113.928ZM152.875 117H149.275V113.856L149.827 111.024L149.203 108.192V99.576H152.875V117ZM155.46 117V105.336H159.132V117H155.46ZM157.308 103.728C156.732 103.728 156.252 103.536 155.868 103.152C155.5 102.752 155.316 102.272 155.316 101.712C155.316 101.136 155.5 100.656 155.868 100.272C156.252 99.888 156.732 99.696 157.308 99.696C157.884 99.696 158.356 99.888 158.724 100.272C159.092 100.656 159.276 101.136 159.276 101.712C159.276 102.272 159.092 102.752 158.724 103.152C158.356 103.536 157.884 103.728 157.308 103.728ZM166.686 117.24C165.582 117.24 164.598 116.976 163.734 116.448C162.886 115.92 162.214 115.2 161.718 114.288C161.238 113.376 160.998 112.336 160.998 111.168C160.998 110 161.238 108.96 161.718 108.048C162.214 107.136 162.886 106.416 163.734 105.888C164.598 105.36 165.582 105.096 166.686 105.096C167.486 105.096 168.206 105.248 168.846 105.552C169.502 105.856 170.038 106.28 170.454 106.824C170.886 107.352 171.126 107.96 171.174 108.648V113.568C171.126 114.256 170.894 114.88 170.478 115.44C170.062 115.984 169.526 116.424 168.87 116.76C168.214 117.08 167.486 117.24 166.686 117.24ZM167.334 113.928C167.862 113.928 168.318 113.816 168.702 113.592C169.086 113.352 169.39 113.024 169.614 112.608C169.838 112.192 169.95 111.712 169.95 111.168C169.95 110.624 169.838 110.152 169.614 109.752C169.406 109.336 169.102 109.008 168.702 108.768C168.318 108.528 167.87 108.408 167.358 108.408C166.846 108.408 166.39 108.528 165.99 108.768C165.606 109.008 165.294 109.336 165.054 109.752C164.83 110.168 164.718 110.64 164.718 111.168C164.718 111.696 164.83 112.168 165.054 112.584C165.278 113 165.59 113.328 165.99 113.568C166.39 113.808 166.838 113.928 167.334 113.928ZM173.406 117H169.806V113.856L170.358 111.024L169.734 108.192V99.576H173.406V117ZM180.863 117.24C179.791 117.24 178.831 116.976 177.983 116.448C177.151 115.92 176.487 115.2 175.991 114.288C175.511 113.376 175.271 112.336 175.271 111.168C175.271 110 175.511 108.96 175.991 108.048C176.487 107.136 177.151 106.416 177.983 105.888C178.831 105.36 179.791 105.096 180.863 105.096C181.647 105.096 182.351 105.248 182.975 105.552C183.615 105.856 184.135 106.28 184.535 106.824C184.935 107.352 185.159 107.96 185.207 108.648V113.688C185.159 114.376 184.935 114.992 184.535 115.536C184.151 116.064 183.639 116.48 182.999 116.784C182.359 117.088 181.647 117.24 180.863 117.24ZM181.607 113.928C182.391 113.928 183.023 113.672 183.503 113.16C183.983 112.632 184.223 111.968 184.223 111.168C184.223 110.624 184.111 110.144 183.887 109.728C183.679 109.312 183.375 108.992 182.975 108.768C182.591 108.528 182.143 108.408 181.631 108.408C181.119 108.408 180.663 108.528 180.263 108.768C179.879 108.992 179.567 109.312 179.327 109.728C179.103 110.144 178.991 110.624 178.991 111.168C178.991 111.696 179.103 112.168 179.327 112.584C179.551 113 179.863 113.328 180.263 113.568C180.663 113.808 181.111 113.928 181.607 113.928ZM184.079 117V113.856L184.631 111.024L184.079 108.192V105.336H187.679V117H184.079Z" fill="#F4679D"/>
<rect width="295.265" height="117.3" rx="58.6499" transform="matrix(-0.900554 0.434744 0.434744 0.900554 447.902 0)" fill="#EEE8FF"/>
<g clip-path="url(#clip0_1176_2568)">
<path d="M336.423 114.21C341.162 114.21 345 110.308 345 105.49C345 100.673 341.162 96.7708 336.423 96.7708H333.994V96.731C338.733 96.731 342.572 92.8291 342.572 88.0116C342.572 83.194 338.733 79.2922 333.994 79.2922V79.2524L299.959 79.6904C306.539 67.9451 306.499 54.6869 305.559 46.5647C305.089 42.2648 301.486 39 297.217 39C293.026 39 289.462 42.1852 288.914 46.4055C287.034 60.3405 280.532 66.0738 274.657 74.5543C267.803 84.4283 267.176 95.7356 267.176 95.7356V126.512C267.176 135.072 273.991 142 282.412 142H333.994C337.323 142 339.987 139.253 339.987 135.908C339.987 132.564 337.284 129.817 333.994 129.817C338.224 129.817 341.632 126.353 341.632 122.053C341.632 117.753 338.224 114.289 333.994 114.289V114.21H336.423Z" fill="#6F46BE"/>
<path d="M254.996 142H241.562C238.467 142 236 139.452 236 136.346V85.304C236 82.1587 238.507 79.6504 241.562 79.6504H254.996C258.09 79.6504 260.557 82.1985 260.557 85.304V136.306C260.596 139.452 258.09 142 254.996 142Z" fill="#6F46BE"/>
</g>
<path opacity="0.16" d="M289.519 176.439C308.031 176.439 323.038 174.326 323.038 171.72C323.038 169.113 308.031 167 289.519 167C271.007 167 256 169.113 256 171.72C256 174.326 271.007 176.439 289.519 176.439Z" fill="#553597"/>
<defs>
<clipPath id="clip0_1176_2568">
<rect width="109" height="103" fill="white" transform="translate(236 39)"/>
</clipPath>
</defs>
</svg>
