<svg width="566" height="175" viewBox="0 0 566 175" fill="none" xmlns="http://www.w3.org/2000/svg">
<rect width="221.903" height="88.1553" rx="44.0776" transform="matrix(-0.903615 0.428345 0.428345 0.903615 527.515 0)" fill="#EEE8FF"/>
<path d="M8.91 82.264C7.73667 82.264 6.65133 82.0587 5.654 81.648C4.67133 81.2373 3.806 80.6653 3.058 79.932C2.31 79.1987 1.73067 78.348 1.32 77.38C0.909333 76.3973 0.704 75.3413 0.704 74.212C0.704 73.068 0.909333 72.012 1.32 71.044C1.73067 70.076 2.30267 69.2327 3.036 68.514C3.76933 67.7807 4.62733 67.216 5.61 66.82C6.60733 66.4093 7.69267 66.204 8.866 66.204C10.0247 66.204 11.0953 66.4093 12.078 66.82C13.0753 67.216 13.9407 67.7807 14.674 68.514C15.422 69.2327 16.0013 70.0833 16.412 71.066C16.8227 72.034 17.028 73.09 17.028 74.234C17.028 75.3633 16.8227 76.4193 16.412 77.402C16.0013 78.37 15.4293 79.2207 14.696 79.954C13.9627 80.6727 13.0973 81.2373 12.1 81.648C11.1173 82.0587 10.054 82.264 8.91 82.264ZM8.866 79.118C9.79 79.118 10.5967 78.9127 11.286 78.502C11.99 78.0913 12.5327 77.5193 12.914 76.786C13.2953 76.038 13.486 75.18 13.486 74.212C13.486 73.4787 13.376 72.8187 13.156 72.232C12.936 71.6307 12.6207 71.1173 12.21 70.692C11.7993 70.252 11.308 69.922 10.736 69.702C10.1787 69.4673 9.55533 69.35 8.866 69.35C7.942 69.35 7.128 69.5553 6.424 69.966C5.73467 70.362 5.19933 70.9267 4.818 71.66C4.43667 72.3787 4.246 73.2293 4.246 74.212C4.246 74.9453 4.356 75.6127 4.576 76.214C4.796 76.8153 5.104 77.336 5.5 77.776C5.91067 78.2013 6.402 78.5313 6.974 78.766C7.546 79.0007 8.17667 79.118 8.866 79.118ZM25.0726 82.22C24.3539 82.22 23.6939 82.0733 23.0926 81.78C22.4913 81.472 21.9999 81.0687 21.6186 80.57C21.2373 80.0567 21.0173 79.4847 20.9586 78.854V74.344C21.0173 73.7133 21.2373 73.156 21.6186 72.672C21.9999 72.1733 22.4913 71.7847 23.0926 71.506C23.6939 71.2273 24.3539 71.088 25.0726 71.088C26.0846 71.088 26.9793 71.33 27.7566 71.814C28.5486 72.298 29.1646 72.958 29.6046 73.794C30.0593 74.63 30.2866 75.5833 30.2866 76.654C30.2866 77.7247 30.0593 78.678 29.6046 79.514C29.1646 80.35 28.5486 81.01 27.7566 81.494C26.9793 81.978 26.0846 82.22 25.0726 82.22ZM24.4786 79.184C24.9479 79.184 25.3586 79.074 25.7106 78.854C26.0773 78.634 26.3633 78.3333 26.5686 77.952C26.7739 77.5707 26.8766 77.138 26.8766 76.654C26.8766 76.1553 26.7739 75.7153 26.5686 75.334C26.3633 74.9527 26.0773 74.6593 25.7106 74.454C25.3586 74.234 24.9479 74.124 24.4786 74.124C24.0093 74.124 23.5913 74.234 23.2246 74.454C22.8579 74.6593 22.5719 74.9527 22.3666 75.334C22.1759 75.7153 22.0806 76.1553 22.0806 76.654C22.0806 77.1527 22.1833 77.5927 22.3886 77.974C22.5939 78.3553 22.8726 78.656 23.2246 78.876C23.5913 79.0813 24.0093 79.184 24.4786 79.184ZM18.9126 82V66.028H22.2786V73.926L21.7286 76.522L22.2346 79.118V82H18.9126ZM31.9966 82V71.308H35.3626V82H31.9966ZM35.3626 76.126L33.9546 75.026C34.2333 73.7793 34.7026 72.8113 35.3626 72.122C36.0226 71.4327 36.9393 71.088 38.1126 71.088C38.6259 71.088 39.0733 71.1687 39.4546 71.33C39.8506 71.4767 40.1953 71.7113 40.4886 72.034L38.4866 74.564C38.3399 74.4027 38.1566 74.278 37.9366 74.19C37.7166 74.102 37.4673 74.058 37.1886 74.058C36.6313 74.058 36.1839 74.234 35.8466 74.586C35.5239 74.9233 35.3626 75.4367 35.3626 76.126ZM41.3853 82V71.308H44.7513V82H41.3853ZM43.0793 69.834C42.5513 69.834 42.1113 69.658 41.7593 69.306C41.4219 68.9393 41.2533 68.4993 41.2533 67.986C41.2533 67.458 41.4219 67.018 41.7593 66.666C42.1113 66.314 42.5513 66.138 43.0793 66.138C43.6073 66.138 44.0399 66.314 44.3773 66.666C44.7146 67.018 44.8833 67.458 44.8833 67.986C44.8833 68.4993 44.7146 68.9393 44.3773 69.306C44.0399 69.658 43.6073 69.834 43.0793 69.834ZM51.6536 86.796C50.4803 86.796 49.4463 86.5907 48.5516 86.18C47.6716 85.784 46.9749 85.2193 46.4616 84.486L48.5296 82.418C48.9109 82.8727 49.3363 83.2173 49.8056 83.452C50.2896 83.6867 50.8689 83.804 51.5436 83.804C52.3796 83.804 53.0323 83.5987 53.5016 83.188C53.9856 82.7773 54.2276 82.198 54.2276 81.45V78.722L54.7996 76.39L54.2936 74.058V71.308H57.5936V81.362C57.5936 82.462 57.3369 83.4153 56.8236 84.222C56.3103 85.0287 55.6063 85.6593 54.7116 86.114C53.8169 86.5687 52.7976 86.796 51.6536 86.796ZM51.4996 81.67C50.5169 81.67 49.6443 81.4353 48.8816 80.966C48.1189 80.4967 47.5176 79.8587 47.0776 79.052C46.6376 78.2453 46.4176 77.3507 46.4176 76.368C46.4176 75.3707 46.6376 74.476 47.0776 73.684C47.5176 72.8773 48.1189 72.2467 48.8816 71.792C49.6443 71.3227 50.5169 71.088 51.4996 71.088C52.2329 71.088 52.8856 71.2273 53.4576 71.506C54.0443 71.77 54.5136 72.1513 54.8656 72.65C55.2323 73.134 55.4376 73.6987 55.4816 74.344V78.414C55.4376 79.0447 55.2323 79.6093 54.8656 80.108C54.5136 80.592 54.0443 80.9733 53.4576 81.252C52.8709 81.5307 52.2183 81.67 51.4996 81.67ZM52.1376 78.678C52.6069 78.678 53.0103 78.5753 53.3476 78.37C53.6996 78.1647 53.9636 77.8933 54.1396 77.556C54.3303 77.204 54.4256 76.808 54.4256 76.368C54.4256 75.928 54.3303 75.532 54.1396 75.18C53.9636 74.828 53.6996 74.5493 53.3476 74.344C53.0103 74.1387 52.6069 74.036 52.1376 74.036C51.6829 74.036 51.2796 74.1387 50.9276 74.344C50.5756 74.5493 50.3043 74.828 50.1136 75.18C49.9229 75.532 49.8276 75.928 49.8276 76.368C49.8276 76.7787 49.9229 77.1673 50.1136 77.534C50.3043 77.886 50.5683 78.1647 50.9056 78.37C51.2576 78.5753 51.6683 78.678 52.1376 78.678ZM64.4352 82.22C63.4526 82.22 62.5726 81.978 61.7953 81.494C61.0326 81.01 60.4239 80.35 59.9693 79.514C59.5293 78.678 59.3093 77.7247 59.3093 76.654C59.3093 75.5833 59.5293 74.63 59.9693 73.794C60.4239 72.958 61.0326 72.298 61.7953 71.814C62.5726 71.33 63.4526 71.088 64.4352 71.088C65.1539 71.088 65.7993 71.2273 66.3713 71.506C66.9579 71.7847 67.4346 72.1733 67.8013 72.672C68.1679 73.156 68.3733 73.7133 68.4173 74.344V78.964C68.3733 79.5947 68.1679 80.1593 67.8013 80.658C67.4493 81.142 66.9799 81.5233 66.3933 81.802C65.8066 82.0807 65.1539 82.22 64.4352 82.22ZM65.1173 79.184C65.8359 79.184 66.4153 78.9493 66.8553 78.48C67.2953 77.996 67.5153 77.3873 67.5153 76.654C67.5153 76.1553 67.4126 75.7153 67.2073 75.334C67.0166 74.9527 66.7379 74.6593 66.3713 74.454C66.0193 74.234 65.6086 74.124 65.1393 74.124C64.6699 74.124 64.2519 74.234 63.8853 74.454C63.5333 74.6593 63.2473 74.9527 63.0273 75.334C62.8219 75.7153 62.7193 76.1553 62.7193 76.654C62.7193 77.138 62.8219 77.5707 63.0273 77.952C63.2326 78.3333 63.5186 78.634 63.8853 78.854C64.2519 79.074 64.6626 79.184 65.1173 79.184ZM67.3833 82V79.118L67.8893 76.522L67.3833 73.926V71.308H70.6833V82H67.3833ZM77.6072 82.22C76.5952 82.22 75.6932 81.978 74.9012 81.494C74.1239 81.01 73.5079 80.35 73.0532 79.514C72.6132 78.678 72.3932 77.7247 72.3932 76.654C72.3932 75.5833 72.6132 74.63 73.0532 73.794C73.5079 72.958 74.1239 72.298 74.9012 71.814C75.6932 71.33 76.5952 71.088 77.6072 71.088C78.3406 71.088 79.0006 71.2273 79.5872 71.506C80.1886 71.7847 80.6799 72.1733 81.0612 72.672C81.4572 73.156 81.6772 73.7133 81.7212 74.344V78.854C81.6772 79.4847 81.4646 80.0567 81.0832 80.57C80.7019 81.0687 80.2106 81.472 79.6092 81.78C79.0079 82.0733 78.3406 82.22 77.6072 82.22ZM78.2012 79.184C78.6852 79.184 79.1032 79.0813 79.4552 78.876C79.8072 78.656 80.0859 78.3553 80.2912 77.974C80.4966 77.5927 80.5992 77.1527 80.5992 76.654C80.5992 76.1553 80.4966 75.7227 80.2912 75.356C80.1006 74.9747 79.8219 74.674 79.4552 74.454C79.1032 74.234 78.6926 74.124 78.2232 74.124C77.7539 74.124 77.3359 74.234 76.9692 74.454C76.6172 74.674 76.3312 74.9747 76.1112 75.356C75.9059 75.7373 75.8032 76.17 75.8032 76.654C75.8032 77.138 75.9059 77.5707 76.1112 77.952C76.3166 78.3333 76.6026 78.634 76.9692 78.854C77.3359 79.074 77.7466 79.184 78.2012 79.184ZM83.7672 82H80.4672V79.118L80.9732 76.522L80.4012 73.926V66.028H83.7672V82ZM91.2852 82.242C90.1852 82.242 89.1879 82 88.2932 81.516C87.4132 81.0173 86.7166 80.3427 86.2032 79.492C85.6899 78.6413 85.4332 77.688 85.4332 76.632C85.4332 75.576 85.6899 74.63 86.2032 73.794C86.7166 72.958 87.4132 72.298 88.2932 71.814C89.1732 71.3153 90.1706 71.066 91.2852 71.066C92.3999 71.066 93.3972 71.308 94.2772 71.792C95.1572 72.276 95.8539 72.9433 96.3672 73.794C96.8806 74.63 97.1372 75.576 97.1372 76.632C97.1372 77.688 96.8806 78.6413 96.3672 79.492C95.8539 80.3427 95.1572 81.0173 94.2772 81.516C93.3972 82 92.3999 82.242 91.2852 82.242ZM91.2852 79.184C91.7692 79.184 92.1946 79.0813 92.5612 78.876C92.9279 78.656 93.2066 78.3553 93.3972 77.974C93.6026 77.578 93.7052 77.1307 93.7052 76.632C93.7052 76.1333 93.6026 75.7007 93.3972 75.334C93.1919 74.9527 92.9059 74.6593 92.5392 74.454C92.1872 74.234 91.7692 74.124 91.2852 74.124C90.8159 74.124 90.3979 74.234 90.0312 74.454C89.6646 74.6593 89.3786 74.9527 89.1732 75.334C88.9679 75.7153 88.8652 76.1553 88.8652 76.654C88.8652 77.138 88.9679 77.578 89.1732 77.974C89.3786 78.3553 89.6646 78.656 90.0312 78.876C90.3979 79.0813 90.8159 79.184 91.2852 79.184ZM109.162 82.22C108.444 82.22 107.784 82.0807 107.182 81.802C106.581 81.5233 106.09 81.142 105.708 80.658C105.327 80.1593 105.107 79.5947 105.048 78.964V74.454C105.107 73.8233 105.327 73.2513 105.708 72.738C106.09 72.2247 106.581 71.8213 107.182 71.528C107.784 71.2347 108.444 71.088 109.162 71.088C110.174 71.088 111.069 71.33 111.846 71.814C112.638 72.298 113.254 72.958 113.694 73.794C114.149 74.63 114.376 75.5833 114.376 76.654C114.376 77.7247 114.149 78.678 113.694 79.514C113.254 80.35 112.638 81.01 111.846 81.494C111.069 81.978 110.174 82.22 109.162 82.22ZM108.546 79.184C109.03 79.184 109.448 79.074 109.8 78.854C110.167 78.634 110.453 78.3333 110.658 77.952C110.864 77.5707 110.966 77.138 110.966 76.654C110.966 76.1553 110.864 75.7153 110.658 75.334C110.453 74.9527 110.167 74.6593 109.8 74.454C109.448 74.234 109.038 74.124 108.568 74.124C108.099 74.124 107.681 74.234 107.314 74.454C106.962 74.6593 106.684 74.9527 106.478 75.334C106.273 75.7153 106.17 76.1553 106.17 76.654C106.17 77.138 106.266 77.5707 106.456 77.952C106.662 78.3333 106.948 78.634 107.314 78.854C107.681 79.074 108.092 79.184 108.546 79.184ZM103.002 86.51V71.308H106.368V74.058L105.818 76.654L106.324 79.25V86.51H103.002ZM121.234 82.242C120.134 82.242 119.137 82 118.242 81.516C117.362 81.0173 116.666 80.3427 116.152 79.492C115.639 78.6413 115.382 77.688 115.382 76.632C115.382 75.576 115.639 74.63 116.152 73.794C116.666 72.958 117.362 72.298 118.242 71.814C119.122 71.3153 120.12 71.066 121.234 71.066C122.349 71.066 123.346 71.308 124.226 71.792C125.106 72.276 125.803 72.9433 126.316 73.794C126.83 74.63 127.086 75.576 127.086 76.632C127.086 77.688 126.83 78.6413 126.316 79.492C125.803 80.3427 125.106 81.0173 124.226 81.516C123.346 82 122.349 82.242 121.234 82.242ZM121.234 79.184C121.718 79.184 122.144 79.0813 122.51 78.876C122.877 78.656 123.156 78.3553 123.346 77.974C123.552 77.578 123.654 77.1307 123.654 76.632C123.654 76.1333 123.552 75.7007 123.346 75.334C123.141 74.9527 122.855 74.6593 122.488 74.454C122.136 74.234 121.718 74.124 121.234 74.124C120.765 74.124 120.347 74.234 119.98 74.454C119.614 74.6593 119.328 74.9527 119.122 75.334C118.917 75.7153 118.814 76.1553 118.814 76.654C118.814 77.138 118.917 77.578 119.122 77.974C119.328 78.3553 119.614 78.656 119.98 78.876C120.347 79.0813 120.765 79.184 121.234 79.184ZM128.762 82V71.308H132.128V82H128.762ZM132.128 76.126L130.72 75.026C130.999 73.7793 131.468 72.8113 132.128 72.122C132.788 71.4327 133.705 71.088 134.878 71.088C135.392 71.088 135.839 71.1687 136.22 71.33C136.616 71.4767 136.961 71.7113 137.254 72.034L135.252 74.564C135.106 74.4027 134.922 74.278 134.702 74.19C134.482 74.102 134.233 74.058 133.954 74.058C133.397 74.058 132.95 74.234 132.612 74.586C132.29 74.9233 132.128 75.4367 132.128 76.126ZM147.897 82.242C146.797 82.242 145.8 82 144.905 81.516C144.01 81.032 143.306 80.3647 142.793 79.514C142.28 78.6633 142.023 77.71 142.023 76.654C142.023 75.5833 142.28 74.63 142.793 73.794C143.321 72.9433 144.032 72.276 144.927 71.792C145.822 71.308 146.826 71.066 147.941 71.066C148.777 71.066 149.54 71.2127 150.229 71.506C150.933 71.7847 151.556 72.21 152.099 72.782L149.943 74.938C149.694 74.6593 149.4 74.454 149.063 74.322C148.74 74.19 148.366 74.124 147.941 74.124C147.457 74.124 147.024 74.234 146.643 74.454C146.276 74.6593 145.983 74.9527 145.763 75.334C145.558 75.7007 145.455 76.1333 145.455 76.632C145.455 77.1307 145.558 77.5707 145.763 77.952C145.983 78.3333 146.284 78.634 146.665 78.854C147.046 79.074 147.472 79.184 147.941 79.184C148.381 79.184 148.77 79.1107 149.107 78.964C149.459 78.8027 149.76 78.5827 150.009 78.304L152.143 80.46C151.586 81.0467 150.955 81.494 150.251 81.802C149.547 82.0953 148.762 82.242 147.897 82.242ZM158.531 82.242C157.431 82.242 156.434 82 155.539 81.516C154.659 81.0173 153.963 80.3427 153.449 79.492C152.936 78.6413 152.679 77.688 152.679 76.632C152.679 75.576 152.936 74.63 153.449 73.794C153.963 72.958 154.659 72.298 155.539 71.814C156.419 71.3153 157.417 71.066 158.531 71.066C159.646 71.066 160.643 71.308 161.523 71.792C162.403 72.276 163.1 72.9433 163.613 73.794C164.127 74.63 164.383 75.576 164.383 76.632C164.383 77.688 164.127 78.6413 163.613 79.492C163.1 80.3427 162.403 81.0173 161.523 81.516C160.643 82 159.646 82.242 158.531 82.242ZM158.531 79.184C159.015 79.184 159.441 79.0813 159.807 78.876C160.174 78.656 160.453 78.3553 160.643 77.974C160.849 77.578 160.951 77.1307 160.951 76.632C160.951 76.1333 160.849 75.7007 160.643 75.334C160.438 74.9527 160.152 74.6593 159.785 74.454C159.433 74.234 159.015 74.124 158.531 74.124C158.062 74.124 157.644 74.234 157.277 74.454C156.911 74.6593 156.625 74.9527 156.419 75.334C156.214 75.7153 156.111 76.1553 156.111 76.654C156.111 77.138 156.214 77.578 156.419 77.974C156.625 78.3553 156.911 78.656 157.277 78.876C157.644 79.0813 158.062 79.184 158.531 79.184ZM166.059 82V71.308H169.425V82H166.059ZM172.901 82V75.752C172.901 75.2093 172.732 74.7913 172.395 74.498C172.072 74.19 171.669 74.036 171.185 74.036C170.848 74.036 170.547 74.1093 170.283 74.256C170.019 74.388 169.806 74.5787 169.645 74.828C169.498 75.0773 169.425 75.3853 169.425 75.752L168.127 75.18C168.127 74.3293 168.31 73.6033 168.677 73.002C169.044 72.386 169.542 71.9167 170.173 71.594C170.804 71.2567 171.515 71.088 172.307 71.088C173.055 71.088 173.722 71.2567 174.309 71.594C174.91 71.9313 175.387 72.4007 175.739 73.002C176.091 73.6033 176.267 74.322 176.267 75.158V82H172.901ZM179.743 82V75.752C179.743 75.2093 179.574 74.7913 179.237 74.498C178.914 74.19 178.511 74.036 178.027 74.036C177.69 74.036 177.389 74.1093 177.125 74.256C176.861 74.388 176.648 74.5787 176.487 74.828C176.34 75.0773 176.267 75.3853 176.267 75.752L174.331 75.488C174.36 74.5787 174.573 73.8013 174.969 73.156C175.38 72.496 175.915 71.99 176.575 71.638C177.25 71.2713 178.005 71.088 178.841 71.088C179.662 71.088 180.388 71.264 181.019 71.616C181.664 71.9533 182.17 72.4447 182.537 73.09C182.918 73.7207 183.109 74.4833 183.109 75.378V82H179.743ZM191.426 82.22C190.707 82.22 190.047 82.0807 189.446 81.802C188.845 81.5233 188.353 81.142 187.972 80.658C187.591 80.1593 187.371 79.5947 187.312 78.964V74.454C187.371 73.8233 187.591 73.2513 187.972 72.738C188.353 72.2247 188.845 71.8213 189.446 71.528C190.047 71.2347 190.707 71.088 191.426 71.088C192.438 71.088 193.333 71.33 194.11 71.814C194.902 72.298 195.518 72.958 195.958 73.794C196.413 74.63 196.64 75.5833 196.64 76.654C196.64 77.7247 196.413 78.678 195.958 79.514C195.518 80.35 194.902 81.01 194.11 81.494C193.333 81.978 192.438 82.22 191.426 82.22ZM190.81 79.184C191.294 79.184 191.712 79.074 192.064 78.854C192.431 78.634 192.717 78.3333 192.922 77.952C193.127 77.5707 193.23 77.138 193.23 76.654C193.23 76.1553 193.127 75.7153 192.922 75.334C192.717 74.9527 192.431 74.6593 192.064 74.454C191.712 74.234 191.301 74.124 190.832 74.124C190.363 74.124 189.945 74.234 189.578 74.454C189.226 74.6593 188.947 74.9527 188.742 75.334C188.537 75.7153 188.434 76.1553 188.434 76.654C188.434 77.138 188.529 77.5707 188.72 77.952C188.925 78.3333 189.211 78.634 189.578 78.854C189.945 79.074 190.355 79.184 190.81 79.184ZM185.266 86.51V71.308H188.632V74.058L188.082 76.654L188.588 79.25V86.51H185.266ZM202.816 82.22C201.833 82.22 200.953 81.978 200.176 81.494C199.413 81.01 198.805 80.35 198.35 79.514C197.91 78.678 197.69 77.7247 197.69 76.654C197.69 75.5833 197.91 74.63 198.35 73.794C198.805 72.958 199.413 72.298 200.176 71.814C200.953 71.33 201.833 71.088 202.816 71.088C203.535 71.088 204.18 71.2273 204.752 71.506C205.339 71.7847 205.815 72.1733 206.182 72.672C206.549 73.156 206.754 73.7133 206.798 74.344V78.964C206.754 79.5947 206.549 80.1593 206.182 80.658C205.83 81.142 205.361 81.5233 204.774 81.802C204.187 82.0807 203.535 82.22 202.816 82.22ZM203.498 79.184C204.217 79.184 204.796 78.9493 205.236 78.48C205.676 77.996 205.896 77.3873 205.896 76.654C205.896 76.1553 205.793 75.7153 205.588 75.334C205.397 74.9527 205.119 74.6593 204.752 74.454C204.4 74.234 203.989 74.124 203.52 74.124C203.051 74.124 202.633 74.234 202.266 74.454C201.914 74.6593 201.628 74.9527 201.408 75.334C201.203 75.7153 201.1 76.1553 201.1 76.654C201.1 77.138 201.203 77.5707 201.408 77.952C201.613 78.3333 201.899 78.634 202.266 78.854C202.633 79.074 203.043 79.184 203.498 79.184ZM205.764 82V79.118L206.27 76.522L205.764 73.926V71.308H209.064V82H205.764ZM211.434 82V71.308H214.8V82H211.434ZM214.8 76.126L213.392 75.026C213.671 73.7793 214.14 72.8113 214.8 72.122C215.46 71.4327 216.377 71.088 217.55 71.088C218.063 71.088 218.511 71.1687 218.892 71.33C219.288 71.4767 219.633 71.7113 219.926 72.034L217.924 74.564C217.777 74.4027 217.594 74.278 217.374 74.19C217.154 74.102 216.905 74.058 216.626 74.058C216.069 74.058 215.621 74.234 215.284 74.586C214.961 74.9233 214.8 75.4367 214.8 76.126ZM222.448 82V66.886H225.814V82H222.448ZM220.028 74.168V71.308H228.234V74.168H220.028ZM229.717 82V71.308H233.083V82H229.717ZM231.411 69.834C230.883 69.834 230.443 69.658 230.091 69.306C229.754 68.9393 229.585 68.4993 229.585 67.986C229.585 67.458 229.754 67.018 230.091 66.666C230.443 66.314 230.883 66.138 231.411 66.138C231.939 66.138 232.372 66.314 232.709 66.666C233.047 67.018 233.215 67.458 233.215 67.986C233.215 68.4993 233.047 68.9393 232.709 69.306C232.372 69.658 231.939 69.834 231.411 69.834ZM235.454 82V66.028H238.82V82H235.454ZM248.252 82V75.906C248.252 75.3487 248.076 74.9013 247.724 74.564C247.387 74.212 246.954 74.036 246.426 74.036C246.059 74.036 245.737 74.1167 245.458 74.278C245.179 74.4247 244.959 74.6447 244.798 74.938C244.637 75.2167 244.556 75.5393 244.556 75.906L243.258 75.268C243.258 74.432 243.434 73.6987 243.786 73.068C244.138 72.4373 244.629 71.9533 245.26 71.616C245.891 71.264 246.617 71.088 247.438 71.088C248.274 71.088 249.007 71.264 249.638 71.616C250.269 71.9533 250.753 72.43 251.09 73.046C251.442 73.6473 251.618 74.3513 251.618 75.158V82H248.252ZM241.19 82V66.028H244.556V82H241.19ZM258.246 82.22C257.263 82.22 256.383 81.978 255.606 81.494C254.843 81.01 254.234 80.35 253.78 79.514C253.34 78.678 253.12 77.7247 253.12 76.654C253.12 75.5833 253.34 74.63 253.78 73.794C254.234 72.958 254.843 72.298 255.606 71.814C256.383 71.33 257.263 71.088 258.246 71.088C258.964 71.088 259.61 71.2273 260.182 71.506C260.768 71.7847 261.245 72.1733 261.612 72.672C261.978 73.156 262.184 73.7133 262.228 74.344V78.964C262.184 79.5947 261.978 80.1593 261.612 80.658C261.26 81.142 260.79 81.5233 260.204 81.802C259.617 82.0807 258.964 82.22 258.246 82.22ZM258.928 79.184C259.646 79.184 260.226 78.9493 260.666 78.48C261.106 77.996 261.326 77.3873 261.326 76.654C261.326 76.1553 261.223 75.7153 261.018 75.334C260.827 74.9527 260.548 74.6593 260.182 74.454C259.83 74.234 259.419 74.124 258.95 74.124C258.48 74.124 258.062 74.234 257.696 74.454C257.344 74.6593 257.058 74.9527 256.838 75.334C256.632 75.7153 256.53 76.1553 256.53 76.654C256.53 77.138 256.632 77.5707 256.838 77.952C257.043 78.3333 257.329 78.634 257.696 78.854C258.062 79.074 258.473 79.184 258.928 79.184ZM261.194 82V79.118L261.7 76.522L261.194 73.926V71.308H264.494V82H261.194ZM266.864 82V71.308H270.23V82H266.864ZM270.23 76.126L268.822 75.026C269.1 73.7793 269.57 72.8113 270.23 72.122C270.89 71.4327 271.806 71.088 272.98 71.088C273.493 71.088 273.94 71.1687 274.322 71.33C274.718 71.4767 275.062 71.7113 275.356 72.034L273.354 74.564C273.207 74.4027 273.024 74.278 272.804 74.19C272.584 74.102 272.334 74.058 272.056 74.058C271.498 74.058 271.051 74.234 270.714 74.586C270.391 74.9233 270.23 75.4367 270.23 76.126ZM5.082 108.264C4.45133 108.264 3.828 108.183 3.212 108.022C2.61067 107.861 2.046 107.633 1.518 107.34C1.00467 107.032 0.564667 106.68 0.198 106.284L2.112 104.348C2.464 104.729 2.882 105.03 3.366 105.25C3.85 105.455 4.378 105.558 4.95 105.558C5.346 105.558 5.64667 105.499 5.852 105.382C6.072 105.265 6.182 105.103 6.182 104.898C6.182 104.634 6.05 104.436 5.786 104.304C5.53667 104.157 5.214 104.033 4.818 103.93C4.422 103.813 4.004 103.688 3.564 103.556C3.124 103.424 2.706 103.241 2.31 103.006C1.914 102.771 1.59133 102.449 1.342 102.038C1.09267 101.613 0.968 101.077 0.968 100.432C0.968 99.7427 1.144 99.1487 1.496 98.65C1.848 98.1367 2.34667 97.7333 2.992 97.44C3.63733 97.1467 4.39267 97 5.258 97C6.16733 97 7.00333 97.1613 7.766 97.484C8.54333 97.792 9.174 98.254 9.658 98.87L7.744 100.806C7.40667 100.41 7.02533 100.131 6.6 99.97C6.18933 99.8087 5.786 99.728 5.39 99.728C5.00867 99.728 4.72267 99.7867 4.532 99.904C4.34133 100.007 4.246 100.161 4.246 100.366C4.246 100.586 4.37067 100.762 4.62 100.894C4.86933 101.026 5.192 101.143 5.588 101.246C5.984 101.349 6.402 101.473 6.842 101.62C7.282 101.767 7.7 101.965 8.096 102.214C8.492 102.463 8.81467 102.801 9.064 103.226C9.31333 103.637 9.438 104.179 9.438 104.854C9.438 105.895 9.042 106.724 8.25 107.34C7.47267 107.956 6.41667 108.264 5.082 108.264ZM16.0162 108.242C15.0335 108.242 14.1608 108.044 13.3982 107.648C12.6502 107.237 12.0635 106.68 11.6382 105.976C11.2128 105.257 11.0002 104.436 11.0002 103.512V97.308H14.3662V103.468C14.3662 103.835 14.4248 104.15 14.5422 104.414C14.6742 104.678 14.8648 104.883 15.1142 105.03C15.3635 105.177 15.6642 105.25 16.0162 105.25C16.5148 105.25 16.9108 105.096 17.2042 104.788C17.4975 104.465 17.6442 104.025 17.6442 103.468V97.308H21.0102V103.49C21.0102 104.429 20.7975 105.257 20.3722 105.976C19.9468 106.68 19.3602 107.237 18.6122 107.648C17.8642 108.044 16.9988 108.242 16.0162 108.242ZM27.5895 108.22C26.6069 108.22 25.7269 107.978 24.9495 107.494C24.1869 107.01 23.5782 106.35 23.1235 105.514C22.6835 104.678 22.4635 103.725 22.4635 102.654C22.4635 101.583 22.6835 100.63 23.1235 99.794C23.5782 98.958 24.1869 98.298 24.9495 97.814C25.7269 97.33 26.6069 97.088 27.5895 97.088C28.3082 97.088 28.9535 97.2273 29.5255 97.506C30.1122 97.7847 30.5889 98.1733 30.9555 98.672C31.3222 99.156 31.5275 99.7133 31.5715 100.344V104.964C31.5275 105.595 31.3222 106.159 30.9555 106.658C30.6035 107.142 30.1342 107.523 29.5475 107.802C28.9609 108.081 28.3082 108.22 27.5895 108.22ZM28.2715 105.184C28.9902 105.184 29.5695 104.949 30.0095 104.48C30.4495 103.996 30.6695 103.387 30.6695 102.654C30.6695 102.155 30.5669 101.715 30.3615 101.334C30.1709 100.953 29.8922 100.659 29.5255 100.454C29.1735 100.234 28.7629 100.124 28.2935 100.124C27.8242 100.124 27.4062 100.234 27.0395 100.454C26.6875 100.659 26.4015 100.953 26.1815 101.334C25.9762 101.715 25.8735 102.155 25.8735 102.654C25.8735 103.138 25.9762 103.571 26.1815 103.952C26.3869 104.333 26.6729 104.634 27.0395 104.854C27.4062 105.074 27.8169 105.184 28.2715 105.184ZM30.5375 108V105.118L31.0435 102.522L30.5375 99.926V97.308H33.8375V108H30.5375ZM45.545 108.242C44.445 108.242 43.4477 108 42.553 107.516C41.673 107.017 40.9763 106.343 40.463 105.492C39.9497 104.641 39.693 103.688 39.693 102.632C39.693 101.576 39.9497 100.63 40.463 99.794C40.9763 98.958 41.673 98.298 42.553 97.814C43.433 97.3153 44.4303 97.066 45.545 97.066C46.6597 97.066 47.657 97.308 48.537 97.792C49.417 98.276 50.1137 98.9433 50.627 99.794C51.1403 100.63 51.397 101.576 51.397 102.632C51.397 103.688 51.1403 104.641 50.627 105.492C50.1137 106.343 49.417 107.017 48.537 107.516C47.657 108 46.6597 108.242 45.545 108.242ZM45.545 105.184C46.029 105.184 46.4543 105.081 46.821 104.876C47.1877 104.656 47.4663 104.355 47.657 103.974C47.8623 103.578 47.965 103.131 47.965 102.632C47.965 102.133 47.8623 101.701 47.657 101.334C47.4517 100.953 47.1657 100.659 46.799 100.454C46.447 100.234 46.029 100.124 45.545 100.124C45.0757 100.124 44.6577 100.234 44.291 100.454C43.9243 100.659 43.6383 100.953 43.433 101.334C43.2277 101.715 43.125 102.155 43.125 102.654C43.125 103.138 43.2277 103.578 43.433 103.974C43.6383 104.355 43.9243 104.656 44.291 104.876C44.6577 105.081 45.0757 105.184 45.545 105.184ZM59.2328 108.22C58.5141 108.22 57.8541 108.081 57.2528 107.802C56.6514 107.523 56.1601 107.142 55.7788 106.658C55.3974 106.159 55.1774 105.595 55.1188 104.964V100.454C55.1774 99.8233 55.3974 99.2513 55.7788 98.738C56.1601 98.2247 56.6514 97.8213 57.2528 97.528C57.8541 97.2347 58.5141 97.088 59.2328 97.088C60.2448 97.088 61.1394 97.33 61.9168 97.814C62.7088 98.298 63.3248 98.958 63.7648 99.794C64.2194 100.63 64.4468 101.583 64.4468 102.654C64.4468 103.725 64.2194 104.678 63.7648 105.514C63.3248 106.35 62.7088 107.01 61.9168 107.494C61.1394 107.978 60.2448 108.22 59.2328 108.22ZM58.6168 105.184C59.1008 105.184 59.5188 105.074 59.8708 104.854C60.2374 104.634 60.5234 104.333 60.7288 103.952C60.9341 103.571 61.0368 103.138 61.0368 102.654C61.0368 102.155 60.9341 101.715 60.7288 101.334C60.5234 100.953 60.2374 100.659 59.8708 100.454C59.5188 100.234 59.1081 100.124 58.6388 100.124C58.1694 100.124 57.7514 100.234 57.3848 100.454C57.0328 100.659 56.7541 100.953 56.5488 101.334C56.3434 101.715 56.2408 102.155 56.2408 102.654C56.2408 103.138 56.3361 103.571 56.5268 103.952C56.7321 104.333 57.0181 104.634 57.3848 104.854C57.7514 105.074 58.1621 105.184 58.6168 105.184ZM53.0728 112.51V97.308H56.4388V100.058L55.8888 102.654L56.3948 105.25V112.51H53.0728ZM66.1568 108V97.308H69.5228V108H66.1568ZM67.8508 95.834C67.3228 95.834 66.8828 95.658 66.5308 95.306C66.1934 94.9393 66.0248 94.4993 66.0248 93.986C66.0248 93.458 66.1934 93.018 66.5308 92.666C66.8828 92.314 67.3228 92.138 67.8508 92.138C68.3788 92.138 68.8114 92.314 69.1488 92.666C69.4861 93.018 69.6548 93.458 69.6548 93.986C69.6548 94.4993 69.4861 94.9393 69.1488 95.306C68.8114 95.658 68.3788 95.834 67.8508 95.834ZM78.9551 108V101.906C78.9551 101.349 78.7791 100.901 78.4271 100.564C78.0897 100.212 77.6571 100.036 77.1291 100.036C76.7624 100.036 76.4397 100.117 76.1611 100.278C75.8824 100.425 75.6624 100.645 75.5011 100.938C75.3397 101.217 75.2591 101.539 75.2591 101.906L73.9611 101.268C73.9611 100.432 74.1444 99.6987 74.5111 99.068C74.8777 98.4373 75.3837 97.9533 76.0291 97.616C76.6891 97.264 77.4297 97.088 78.2511 97.088C79.0431 97.088 79.7397 97.2787 80.3411 97.66C80.9571 98.0267 81.4411 98.518 81.7931 99.134C82.1451 99.75 82.3211 100.425 82.3211 101.158V108H78.9551ZM71.8931 108V97.308H75.2591V108H71.8931ZM84.4829 108V97.308H87.8489V108H84.4829ZM86.1769 95.834C85.6489 95.834 85.2089 95.658 84.8569 95.306C84.5196 94.9393 84.3509 94.4993 84.3509 93.986C84.3509 93.458 84.5196 93.018 84.8569 92.666C85.2089 92.314 85.6489 92.138 86.1769 92.138C86.7049 92.138 87.1376 92.314 87.4749 92.666C87.8123 93.018 87.9809 93.458 87.9809 93.986C87.9809 94.4993 87.8123 94.9393 87.4749 95.306C87.1376 95.658 86.7049 95.834 86.1769 95.834ZM94.6852 108.22C93.7026 108.22 92.8226 107.978 92.0453 107.494C91.2826 107.01 90.6739 106.35 90.2193 105.514C89.7793 104.678 89.5593 103.725 89.5593 102.654C89.5593 101.583 89.7793 100.63 90.2193 99.794C90.6739 98.958 91.2826 98.298 92.0453 97.814C92.8226 97.33 93.7026 97.088 94.6852 97.088C95.4039 97.088 96.0493 97.2273 96.6213 97.506C97.2079 97.7847 97.6846 98.1733 98.0513 98.672C98.4179 99.156 98.6233 99.7133 98.6673 100.344V104.964C98.6233 105.595 98.4179 106.159 98.0513 106.658C97.6993 107.142 97.2299 107.523 96.6433 107.802C96.0566 108.081 95.4039 108.22 94.6852 108.22ZM95.3673 105.184C96.0859 105.184 96.6653 104.949 97.1053 104.48C97.5453 103.996 97.7653 103.387 97.7653 102.654C97.7653 102.155 97.6626 101.715 97.4573 101.334C97.2666 100.953 96.9879 100.659 96.6213 100.454C96.2693 100.234 95.8586 100.124 95.3893 100.124C94.9199 100.124 94.5019 100.234 94.1353 100.454C93.7833 100.659 93.4973 100.953 93.2773 101.334C93.0719 101.715 92.9693 102.155 92.9693 102.654C92.9693 103.138 93.0719 103.571 93.2773 103.952C93.4826 104.333 93.7686 104.634 94.1353 104.854C94.5019 105.074 94.9126 105.184 95.3673 105.184ZM97.6333 108V105.118L98.1393 102.522L97.6333 99.926V97.308H100.933V108H97.6333ZM96.9733 96.076C96.5039 96.076 96.0933 95.9953 95.7413 95.834C95.4039 95.6727 95.0886 95.5113 94.7953 95.35C94.5166 95.1887 94.2086 95.108 93.8713 95.108C93.5339 95.108 93.2479 95.1813 93.0133 95.328C92.7786 95.46 92.5586 95.6653 92.3533 95.944L90.7473 94.36C91.1726 93.7293 91.6199 93.26 92.0893 92.952C92.5733 92.644 93.1306 92.49 93.7613 92.49C94.2306 92.49 94.6339 92.5707 94.9713 92.732C95.3233 92.8933 95.6459 93.062 95.9393 93.238C96.2326 93.3993 96.5406 93.48 96.8633 93.48C97.2153 93.48 97.5086 93.414 97.7433 93.282C97.9779 93.1353 98.1906 92.9153 98.3813 92.622L99.9873 94.228C99.5619 94.844 99.1073 95.306 98.6233 95.614C98.1539 95.922 97.6039 96.076 96.9733 96.076ZM108.451 108.242C107.351 108.242 106.354 108 105.459 107.516C104.579 107.017 103.883 106.343 103.369 105.492C102.856 104.641 102.599 103.688 102.599 102.632C102.599 101.576 102.856 100.63 103.369 99.794C103.883 98.958 104.579 98.298 105.459 97.814C106.339 97.3153 107.337 97.066 108.451 97.066C109.566 97.066 110.563 97.308 111.443 97.792C112.323 98.276 113.02 98.9433 113.533 99.794C114.047 100.63 114.303 101.576 114.303 102.632C114.303 103.688 114.047 104.641 113.533 105.492C113.02 106.343 112.323 107.017 111.443 107.516C110.563 108 109.566 108.242 108.451 108.242ZM108.451 105.184C108.935 105.184 109.361 105.081 109.727 104.876C110.094 104.656 110.373 104.355 110.563 103.974C110.769 103.578 110.871 103.131 110.871 102.632C110.871 102.133 110.769 101.701 110.563 101.334C110.358 100.953 110.072 100.659 109.705 100.454C109.353 100.234 108.935 100.124 108.451 100.124C107.982 100.124 107.564 100.234 107.197 100.454C106.831 100.659 106.545 100.953 106.339 101.334C106.134 101.715 106.031 102.155 106.031 102.654C106.031 103.138 106.134 103.578 106.339 103.974C106.545 104.355 106.831 104.656 107.197 104.876C107.564 105.081 107.982 105.184 108.451 105.184ZM125.338 108.242C124.238 108.242 123.241 108 122.346 107.516C121.452 107.032 120.748 106.365 120.234 105.514C119.721 104.663 119.464 103.71 119.464 102.654C119.464 101.583 119.721 100.63 120.234 99.794C120.762 98.9433 121.474 98.276 122.368 97.792C123.263 97.308 124.268 97.066 125.382 97.066C126.218 97.066 126.981 97.2127 127.67 97.506C128.374 97.7847 128.998 98.21 129.54 98.782L127.384 100.938C127.135 100.659 126.842 100.454 126.504 100.322C126.182 100.19 125.808 100.124 125.382 100.124C124.898 100.124 124.466 100.234 124.084 100.454C123.718 100.659 123.424 100.953 123.204 101.334C122.999 101.701 122.896 102.133 122.896 102.632C122.896 103.131 122.999 103.571 123.204 103.952C123.424 104.333 123.725 104.634 124.106 104.854C124.488 105.074 124.913 105.184 125.382 105.184C125.822 105.184 126.211 105.111 126.548 104.964C126.9 104.803 127.201 104.583 127.45 104.304L129.584 106.46C129.027 107.047 128.396 107.494 127.692 107.802C126.988 108.095 126.204 108.242 125.338 108.242ZM135.973 108.242C134.873 108.242 133.875 108 132.981 107.516C132.101 107.017 131.404 106.343 130.891 105.492C130.377 104.641 130.121 103.688 130.121 102.632C130.121 101.576 130.377 100.63 130.891 99.794C131.404 98.958 132.101 98.298 132.981 97.814C133.861 97.3153 134.858 97.066 135.973 97.066C137.087 97.066 138.085 97.308 138.965 97.792C139.845 98.276 140.541 98.9433 141.055 99.794C141.568 100.63 141.825 101.576 141.825 102.632C141.825 103.688 141.568 104.641 141.055 105.492C140.541 106.343 139.845 107.017 138.965 107.516C138.085 108 137.087 108.242 135.973 108.242ZM135.973 105.184C136.457 105.184 136.882 105.081 137.249 104.876C137.615 104.656 137.894 104.355 138.085 103.974C138.29 103.578 138.393 103.131 138.393 102.632C138.393 102.133 138.29 101.701 138.085 101.334C137.879 100.953 137.593 100.659 137.227 100.454C136.875 100.234 136.457 100.124 135.973 100.124C135.503 100.124 135.085 100.234 134.719 100.454C134.352 100.659 134.066 100.953 133.861 101.334C133.655 101.715 133.553 102.155 133.553 102.654C133.553 103.138 133.655 103.578 133.861 103.974C134.066 104.355 134.352 104.656 134.719 104.876C135.085 105.081 135.503 105.184 135.973 105.184ZM143.501 108V97.308H146.867V108H143.501ZM150.343 108V101.752C150.343 101.209 150.174 100.791 149.837 100.498C149.514 100.19 149.111 100.036 148.627 100.036C148.289 100.036 147.989 100.109 147.725 100.256C147.461 100.388 147.248 100.579 147.087 100.828C146.94 101.077 146.867 101.385 146.867 101.752L145.569 101.18C145.569 100.329 145.752 99.6033 146.119 99.002C146.485 98.386 146.984 97.9167 147.615 97.594C148.245 97.2567 148.957 97.088 149.749 97.088C150.497 97.088 151.164 97.2567 151.751 97.594C152.352 97.9313 152.829 98.4007 153.181 99.002C153.533 99.6033 153.709 100.322 153.709 101.158V108H150.343ZM157.185 108V101.752C157.185 101.209 157.016 100.791 156.679 100.498C156.356 100.19 155.953 100.036 155.469 100.036C155.131 100.036 154.831 100.109 154.567 100.256C154.303 100.388 154.09 100.579 153.928 100.828C153.782 101.077 153.709 101.385 153.709 101.752L151.773 101.488C151.802 100.579 152.015 99.8013 152.411 99.156C152.821 98.496 153.357 97.99 154.017 97.638C154.691 97.2713 155.447 97.088 156.283 97.088C157.104 97.088 157.83 97.264 158.461 97.616C159.106 97.9533 159.612 98.4447 159.979 99.09C160.36 99.7207 160.551 100.483 160.551 101.378V108H157.185ZM171.363 108.22C170.38 108.22 169.5 107.978 168.723 107.494C167.96 107.01 167.352 106.35 166.897 105.514C166.457 104.678 166.237 103.725 166.237 102.654C166.237 101.583 166.457 100.63 166.897 99.794C167.352 98.958 167.96 98.298 168.723 97.814C169.5 97.33 170.38 97.088 171.363 97.088C172.082 97.088 172.727 97.2273 173.299 97.506C173.886 97.7847 174.362 98.1733 174.729 98.672C175.096 99.156 175.301 99.7133 175.345 100.344V104.964C175.301 105.595 175.096 106.159 174.729 106.658C174.377 107.142 173.908 107.523 173.321 107.802C172.734 108.081 172.082 108.22 171.363 108.22ZM172.045 105.184C172.764 105.184 173.343 104.949 173.783 104.48C174.223 103.996 174.443 103.387 174.443 102.654C174.443 102.155 174.34 101.715 174.135 101.334C173.944 100.953 173.666 100.659 173.299 100.454C172.947 100.234 172.536 100.124 172.067 100.124C171.598 100.124 171.18 100.234 170.813 100.454C170.461 100.659 170.175 100.953 169.955 101.334C169.75 101.715 169.647 102.155 169.647 102.654C169.647 103.138 169.75 103.571 169.955 103.952C170.16 104.333 170.446 104.634 170.813 104.854C171.18 105.074 171.59 105.184 172.045 105.184ZM174.311 108V105.118L174.817 102.522L174.311 99.926V97.308H177.611V108H174.311ZM188.702 112.796C187.529 112.796 186.495 112.591 185.6 112.18C184.72 111.784 184.024 111.219 183.51 110.486L185.578 108.418C185.96 108.873 186.385 109.217 186.854 109.452C187.338 109.687 187.918 109.804 188.592 109.804C189.428 109.804 190.081 109.599 190.55 109.188C191.034 108.777 191.276 108.198 191.276 107.45V104.722L191.848 102.39L191.342 100.058V97.308H194.642V107.362C194.642 108.462 194.386 109.415 193.872 110.222C193.359 111.029 192.655 111.659 191.76 112.114C190.866 112.569 189.846 112.796 188.702 112.796ZM188.548 107.67C187.566 107.67 186.693 107.435 185.93 106.966C185.168 106.497 184.566 105.859 184.126 105.052C183.686 104.245 183.466 103.351 183.466 102.368C183.466 101.371 183.686 100.476 184.126 99.684C184.566 98.8773 185.168 98.2467 185.93 97.792C186.693 97.3227 187.566 97.088 188.548 97.088C189.282 97.088 189.934 97.2273 190.506 97.506C191.093 97.77 191.562 98.1513 191.914 98.65C192.281 99.134 192.486 99.6987 192.53 100.344V104.414C192.486 105.045 192.281 105.609 191.914 106.108C191.562 106.592 191.093 106.973 190.506 107.252C189.92 107.531 189.267 107.67 188.548 107.67ZM189.186 104.678C189.656 104.678 190.059 104.575 190.396 104.37C190.748 104.165 191.012 103.893 191.188 103.556C191.379 103.204 191.474 102.808 191.474 102.368C191.474 101.928 191.379 101.532 191.188 101.18C191.012 100.828 190.748 100.549 190.396 100.344C190.059 100.139 189.656 100.036 189.186 100.036C188.732 100.036 188.328 100.139 187.976 100.344C187.624 100.549 187.353 100.828 187.162 101.18C186.972 101.532 186.876 101.928 186.876 102.368C186.876 102.779 186.972 103.167 187.162 103.534C187.353 103.886 187.617 104.165 187.954 104.37C188.306 104.575 188.717 104.678 189.186 104.678ZM202.298 108.242C201.139 108.242 200.105 108.007 199.196 107.538C198.301 107.054 197.597 106.387 197.084 105.536C196.571 104.685 196.314 103.725 196.314 102.654C196.314 101.583 196.563 100.63 197.062 99.794C197.575 98.9433 198.265 98.276 199.13 97.792C199.995 97.308 200.971 97.066 202.056 97.066C203.112 97.066 204.043 97.2933 204.85 97.748C205.657 98.2027 206.287 98.8333 206.742 99.64C207.211 100.447 207.446 101.371 207.446 102.412C207.446 102.603 207.431 102.808 207.402 103.028C207.387 103.233 207.351 103.475 207.292 103.754L198.074 103.776V101.466L205.862 101.444L204.41 102.412C204.395 101.796 204.3 101.29 204.124 100.894C203.948 100.483 203.684 100.175 203.332 99.97C202.995 99.75 202.577 99.64 202.078 99.64C201.55 99.64 201.088 99.7647 200.692 100.014C200.311 100.249 200.01 100.586 199.79 101.026C199.585 101.466 199.482 102.001 199.482 102.632C199.482 103.263 199.592 103.805 199.812 104.26C200.047 104.7 200.369 105.045 200.78 105.294C201.205 105.529 201.704 105.646 202.276 105.646C202.804 105.646 203.281 105.558 203.706 105.382C204.131 105.191 204.505 104.913 204.828 104.546L206.676 106.394C206.148 107.01 205.51 107.472 204.762 107.78C204.014 108.088 203.193 108.242 202.298 108.242ZM216.133 108V101.906C216.133 101.349 215.957 100.901 215.605 100.564C215.267 100.212 214.835 100.036 214.307 100.036C213.94 100.036 213.617 100.117 213.339 100.278C213.06 100.425 212.84 100.645 212.679 100.938C212.517 101.217 212.437 101.539 212.437 101.906L211.139 101.268C211.139 100.432 211.322 99.6987 211.689 99.068C212.055 98.4373 212.561 97.9533 213.207 97.616C213.867 97.264 214.607 97.088 215.429 97.088C216.221 97.088 216.917 97.2787 217.519 97.66C218.135 98.0267 218.619 98.518 218.971 99.134C219.323 99.75 219.499 100.425 219.499 101.158V108H216.133ZM209.071 108V97.308H212.437V108H209.071ZM223.05 108V92.886H226.416V108H223.05ZM220.63 100.168V97.308H228.836V100.168H220.63ZM235.384 108.242C234.225 108.242 233.191 108.007 232.282 107.538C231.387 107.054 230.683 106.387 230.17 105.536C229.657 104.685 229.4 103.725 229.4 102.654C229.4 101.583 229.649 100.63 230.148 99.794C230.661 98.9433 231.351 98.276 232.216 97.792C233.081 97.308 234.057 97.066 235.142 97.066C236.198 97.066 237.129 97.2933 237.936 97.748C238.743 98.2027 239.373 98.8333 239.828 99.64C240.297 100.447 240.532 101.371 240.532 102.412C240.532 102.603 240.517 102.808 240.488 103.028C240.473 103.233 240.437 103.475 240.378 103.754L231.16 103.776V101.466L238.948 101.444L237.496 102.412C237.481 101.796 237.386 101.29 237.21 100.894C237.034 100.483 236.77 100.175 236.418 99.97C236.081 99.75 235.663 99.64 235.164 99.64C234.636 99.64 234.174 99.7647 233.778 100.014C233.397 100.249 233.096 100.586 232.876 101.026C232.671 101.466 232.568 102.001 232.568 102.632C232.568 103.263 232.678 103.805 232.898 104.26C233.133 104.7 233.455 105.045 233.866 105.294C234.291 105.529 234.79 105.646 235.362 105.646C235.89 105.646 236.367 105.558 236.792 105.382C237.217 105.191 237.591 104.913 237.914 104.546L239.762 106.394C239.234 107.01 238.596 107.472 237.848 107.78C237.1 108.088 236.279 108.242 235.384 108.242ZM242.817 102.324L242.267 92.028H245.897L245.347 102.324H242.817ZM244.071 108.242C243.499 108.242 243.022 108.044 242.641 107.648C242.259 107.252 242.069 106.775 242.069 106.218C242.069 105.631 242.259 105.147 242.641 104.766C243.022 104.37 243.499 104.172 244.071 104.172C244.657 104.172 245.134 104.37 245.501 104.766C245.882 105.147 246.073 105.631 246.073 106.218C246.073 106.775 245.882 107.252 245.501 107.648C245.134 108.044 244.657 108.242 244.071 108.242Z" fill="#6F46BE"/>
<g clip-path="url(#clip0_1551_3057)">
<path d="M489.441 97.6568H462.625L449.236 113.915C447.207 116.373 443.435 116.311 441.486 113.78L429.097 97.6568H402.559C390.653 97.6568 381 87.9665 381 76.0062V30.4888C381 18.5375 390.653 8.84717 402.559 8.84717H489.441C501.347 8.84717 511 18.5375 511 30.4888V76.0062C511 87.9665 501.347 97.6568 489.441 97.6568Z" fill="#6F46BE"/>
<path d="M470.75 60.6629L450.112 79.0206C448.395 80.5459 445.821 80.5459 444.105 79.0206L423.466 60.6629C402.783 42.3052 428.543 15.3428 447.108 36.9306C463.242 13.988 489.539 42.4846 470.75 60.6629Z" fill="white"/>
<path opacity="0.16" d="M448.038 143.847C466.55 143.847 481.557 141.734 481.557 139.128C481.557 136.521 466.55 134.408 448.038 134.408C429.526 134.408 414.519 136.521 414.519 139.128C414.519 141.734 429.526 143.847 448.038 143.847Z" fill="#553597"/>
</g>
<defs>
<clipPath id="clip0_1551_3057">
<rect width="130" height="135" fill="white" transform="translate(381 8.84717)"/>
</clipPath>
</defs>
</svg>
