<svg width="384" height="234" viewBox="0 0 384 234" fill="none" xmlns="http://www.w3.org/2000/svg">
<path d="M9.72 98.288C8.44 98.288 7.256 98.064 6.168 97.616C5.096 97.168 4.152 96.544 3.336 95.744C2.52 94.944 1.888 94.016 1.44 92.96C0.992 91.888 0.768 90.736 0.768 89.504C0.768 88.256 0.992 87.104 1.44 86.048C1.888 84.992 2.512 84.072 3.312 83.288C4.112 82.488 5.048 81.872 6.12 81.44C7.208 80.992 8.392 80.768 9.672 80.768C10.936 80.768 12.104 80.992 13.176 81.44C14.264 81.872 15.208 82.488 16.008 83.288C16.824 84.072 17.456 85 17.904 86.072C18.352 87.128 18.576 88.28 18.576 89.528C18.576 90.76 18.352 91.912 17.904 92.984C17.456 94.04 16.832 94.968 16.032 95.768C15.232 96.552 14.288 97.168 13.2 97.616C12.128 98.064 10.968 98.288 9.72 98.288ZM9.672 94.856C10.68 94.856 11.56 94.632 12.312 94.184C13.08 93.736 13.672 93.112 14.088 92.312C14.504 91.496 14.712 90.56 14.712 89.504C14.712 88.704 14.592 87.984 14.352 87.344C14.112 86.688 13.768 86.128 13.32 85.664C12.872 85.184 12.336 84.824 11.712 84.584C11.104 84.328 10.424 84.2 9.672 84.2C8.664 84.2 7.776 84.424 7.008 84.872C6.256 85.304 5.672 85.92 5.256 86.72C4.84 87.504 4.632 88.432 4.632 89.504C4.632 90.304 4.752 91.032 4.992 91.688C5.232 92.344 5.568 92.912 6 93.392C6.448 93.856 6.984 94.216 7.608 94.472C8.232 94.728 8.92 94.856 9.672 94.856ZM27.3519 98.24C26.5679 98.24 25.8479 98.08 25.1919 97.76C24.5359 97.424 23.9999 96.984 23.5839 96.44C23.1679 95.88 22.9279 95.256 22.8639 94.568V89.648C22.9279 88.96 23.1679 88.352 23.5839 87.824C23.9999 87.28 24.5359 86.856 25.1919 86.552C25.8479 86.248 26.5679 86.096 27.3519 86.096C28.4559 86.096 29.4319 86.36 30.2799 86.888C31.1439 87.416 31.8159 88.136 32.2959 89.048C32.7919 89.96 33.0399 91 33.0399 92.168C33.0399 93.336 32.7919 94.376 32.2959 95.288C31.8159 96.2 31.1439 96.92 30.2799 97.448C29.4319 97.976 28.4559 98.24 27.3519 98.24ZM26.7039 94.928C27.2159 94.928 27.6639 94.808 28.0479 94.568C28.4479 94.328 28.7599 94 28.9839 93.584C29.2079 93.168 29.3199 92.696 29.3199 92.168C29.3199 91.624 29.2079 91.144 28.9839 90.728C28.7599 90.312 28.4479 89.992 28.0479 89.768C27.6639 89.528 27.2159 89.408 26.7039 89.408C26.1919 89.408 25.7359 89.528 25.3359 89.768C24.9359 89.992 24.6239 90.312 24.3999 90.728C24.1919 91.144 24.0879 91.624 24.0879 92.168C24.0879 92.712 24.1999 93.192 24.4239 93.608C24.6479 94.024 24.9519 94.352 25.3359 94.592C25.7359 94.816 26.1919 94.928 26.7039 94.928ZM20.6319 98V80.576H24.3039V89.192L23.7039 92.024L24.2559 94.856V98H20.6319ZM34.9054 98V86.336H38.5774V98H34.9054ZM38.5774 91.592L37.0414 90.392C37.3454 89.032 37.8574 87.976 38.5774 87.224C39.2974 86.472 40.2974 86.096 41.5774 86.096C42.1374 86.096 42.6254 86.184 43.0414 86.36C43.4734 86.52 43.8494 86.776 44.1694 87.128L41.9854 89.888C41.8254 89.712 41.6254 89.576 41.3854 89.48C41.1454 89.384 40.8734 89.336 40.5694 89.336C39.9614 89.336 39.4734 89.528 39.1054 89.912C38.7534 90.28 38.5774 90.84 38.5774 91.592ZM45.1476 98V86.336H48.8196V98H45.1476ZM46.9956 84.728C46.4196 84.728 45.9396 84.536 45.5556 84.152C45.1876 83.752 45.0036 83.272 45.0036 82.712C45.0036 82.136 45.1876 81.656 45.5556 81.272C45.9396 80.888 46.4196 80.696 46.9956 80.696C47.5716 80.696 48.0436 80.888 48.4116 81.272C48.7796 81.656 48.9636 82.136 48.9636 82.712C48.9636 83.272 48.7796 83.752 48.4116 84.152C48.0436 84.536 47.5716 84.728 46.9956 84.728ZM56.3494 103.232C55.0694 103.232 53.9414 103.008 52.9654 102.56C52.0054 102.128 51.2454 101.512 50.6854 100.712L52.9414 98.456C53.3574 98.952 53.8214 99.328 54.3334 99.584C54.8614 99.84 55.4934 99.968 56.2294 99.968C57.1414 99.968 57.8534 99.744 58.3654 99.296C58.8934 98.848 59.1574 98.216 59.1574 97.4V94.424L59.7814 91.88L59.2294 89.336V86.336H62.8294V97.304C62.8294 98.504 62.5494 99.544 61.9894 100.424C61.4294 101.304 60.6614 101.992 59.6854 102.488C58.7094 102.984 57.5974 103.232 56.3494 103.232ZM56.1814 97.64C55.1094 97.64 54.1574 97.384 53.3254 96.872C52.4934 96.36 51.8374 95.664 51.3574 94.784C50.8774 93.904 50.6374 92.928 50.6374 91.856C50.6374 90.768 50.8774 89.792 51.3574 88.928C51.8374 88.048 52.4934 87.36 53.3254 86.864C54.1574 86.352 55.1094 86.096 56.1814 86.096C56.9814 86.096 57.6934 86.248 58.3174 86.552C58.9574 86.84 59.4694 87.256 59.8534 87.8C60.2534 88.328 60.4774 88.944 60.5254 89.648V94.088C60.4774 94.776 60.2534 95.392 59.8534 95.936C59.4694 96.464 58.9574 96.88 58.3174 97.184C57.6774 97.488 56.9654 97.64 56.1814 97.64ZM56.8774 94.376C57.3894 94.376 57.8294 94.264 58.1974 94.04C58.5814 93.816 58.8694 93.52 59.0614 93.152C59.2694 92.768 59.3734 92.336 59.3734 91.856C59.3734 91.376 59.2694 90.944 59.0614 90.56C58.8694 90.176 58.5814 89.872 58.1974 89.648C57.8294 89.424 57.3894 89.312 56.8774 89.312C56.3814 89.312 55.9414 89.424 55.5574 89.648C55.1734 89.872 54.8774 90.176 54.6694 90.56C54.4614 90.944 54.3574 91.376 54.3574 91.856C54.3574 92.304 54.4614 92.728 54.6694 93.128C54.8774 93.512 55.1654 93.816 55.5334 94.04C55.9174 94.264 56.3654 94.376 56.8774 94.376ZM70.293 98.24C69.221 98.24 68.261 97.976 67.413 97.448C66.581 96.92 65.917 96.2 65.421 95.288C64.941 94.376 64.701 93.336 64.701 92.168C64.701 91 64.941 89.96 65.421 89.048C65.917 88.136 66.581 87.416 67.413 86.888C68.261 86.36 69.221 86.096 70.293 86.096C71.077 86.096 71.781 86.248 72.405 86.552C73.045 86.856 73.565 87.28 73.965 87.824C74.365 88.352 74.589 88.96 74.637 89.648V94.688C74.589 95.376 74.365 95.992 73.965 96.536C73.581 97.064 73.069 97.48 72.429 97.784C71.789 98.088 71.077 98.24 70.293 98.24ZM71.037 94.928C71.821 94.928 72.453 94.672 72.933 94.16C73.413 93.632 73.653 92.968 73.653 92.168C73.653 91.624 73.541 91.144 73.317 90.728C73.109 90.312 72.805 89.992 72.405 89.768C72.021 89.528 71.573 89.408 71.061 89.408C70.549 89.408 70.093 89.528 69.693 89.768C69.309 89.992 68.997 90.312 68.757 90.728C68.533 91.144 68.421 91.624 68.421 92.168C68.421 92.696 68.533 93.168 68.757 93.584C68.981 94 69.293 94.328 69.693 94.568C70.093 94.808 70.541 94.928 71.037 94.928ZM73.509 98V94.856L74.061 92.024L73.509 89.192V86.336H77.109V98H73.509ZM84.6624 98.24C83.5584 98.24 82.5744 97.976 81.7104 97.448C80.8624 96.92 80.1904 96.2 79.6944 95.288C79.2144 94.376 78.9744 93.336 78.9744 92.168C78.9744 91 79.2144 89.96 79.6944 89.048C80.1904 88.136 80.8624 87.416 81.7104 86.888C82.5744 86.36 83.5584 86.096 84.6624 86.096C85.4624 86.096 86.1824 86.248 86.8224 86.552C87.4784 86.856 88.0144 87.28 88.4304 87.824C88.8624 88.352 89.1024 88.96 89.1504 89.648V94.568C89.1024 95.256 88.8704 95.88 88.4544 96.44C88.0384 96.984 87.5024 97.424 86.8464 97.76C86.1904 98.08 85.4624 98.24 84.6624 98.24ZM85.3104 94.928C85.8384 94.928 86.2944 94.816 86.6784 94.592C87.0624 94.352 87.3664 94.024 87.5904 93.608C87.8144 93.192 87.9264 92.712 87.9264 92.168C87.9264 91.624 87.8144 91.152 87.5904 90.752C87.3824 90.336 87.0784 90.008 86.6784 89.768C86.2944 89.528 85.8464 89.408 85.3344 89.408C84.8224 89.408 84.3664 89.528 83.9664 89.768C83.5824 90.008 83.2704 90.336 83.0304 90.752C82.8064 91.168 82.6944 91.64 82.6944 92.168C82.6944 92.696 82.8064 93.168 83.0304 93.584C83.2544 94 83.5664 94.328 83.9664 94.568C84.3664 94.808 84.8144 94.928 85.3104 94.928ZM91.3824 98H87.7824V94.856L88.3344 92.024L87.7104 89.192V80.576H91.3824V98ZM99.5839 98.264C98.3839 98.264 97.2959 98 96.3199 97.472C95.3599 96.928 94.5999 96.192 94.0399 95.264C93.4799 94.336 93.1999 93.296 93.1999 92.144C93.1999 90.992 93.4799 89.96 94.0399 89.048C94.5999 88.136 95.3599 87.416 96.3199 86.888C97.2799 86.344 98.3679 86.072 99.5839 86.072C100.8 86.072 101.888 86.336 102.848 86.864C103.808 87.392 104.568 88.12 105.128 89.048C105.688 89.96 105.968 90.992 105.968 92.144C105.968 93.296 105.688 94.336 105.128 95.264C104.568 96.192 103.808 96.928 102.848 97.472C101.888 98 100.8 98.264 99.5839 98.264ZM99.5839 94.928C100.112 94.928 100.576 94.816 100.976 94.592C101.376 94.352 101.68 94.024 101.888 93.608C102.112 93.176 102.224 92.688 102.224 92.144C102.224 91.6 102.112 91.128 101.888 90.728C101.664 90.312 101.352 89.992 100.952 89.768C100.568 89.528 100.112 89.408 99.5839 89.408C99.0719 89.408 98.6159 89.528 98.2159 89.768C97.8159 89.992 97.5039 90.312 97.2799 90.728C97.0559 91.144 96.9439 91.624 96.9439 92.168C96.9439 92.696 97.0559 93.176 97.2799 93.608C97.5039 94.024 97.8159 94.352 98.2159 94.592C98.6159 94.816 99.0719 94.928 99.5839 94.928ZM119.086 98.24C118.302 98.24 117.582 98.088 116.926 97.784C116.27 97.48 115.734 97.064 115.318 96.536C114.902 95.992 114.662 95.376 114.598 94.688V89.768C114.662 89.08 114.902 88.456 115.318 87.896C115.734 87.336 116.27 86.896 116.926 86.576C117.582 86.256 118.302 86.096 119.086 86.096C120.19 86.096 121.166 86.36 122.014 86.888C122.878 87.416 123.55 88.136 124.03 89.048C124.526 89.96 124.774 91 124.774 92.168C124.774 93.336 124.526 94.376 124.03 95.288C123.55 96.2 122.878 96.92 122.014 97.448C121.166 97.976 120.19 98.24 119.086 98.24ZM118.414 94.928C118.942 94.928 119.398 94.808 119.782 94.568C120.182 94.328 120.494 94 120.718 93.584C120.942 93.168 121.054 92.696 121.054 92.168C121.054 91.624 120.942 91.144 120.718 90.728C120.494 90.312 120.182 89.992 119.782 89.768C119.398 89.528 118.95 89.408 118.438 89.408C117.926 89.408 117.47 89.528 117.07 89.768C116.686 89.992 116.382 90.312 116.158 90.728C115.934 91.144 115.822 91.624 115.822 92.168C115.822 92.696 115.926 93.168 116.134 93.584C116.358 94 116.67 94.328 117.07 94.568C117.47 94.808 117.918 94.928 118.414 94.928ZM112.366 102.92V86.336H116.038V89.336L115.438 92.168L115.99 95V102.92H112.366ZM132.256 98.264C131.056 98.264 129.968 98 128.992 97.472C128.032 96.928 127.272 96.192 126.712 95.264C126.152 94.336 125.872 93.296 125.872 92.144C125.872 90.992 126.152 89.96 126.712 89.048C127.272 88.136 128.032 87.416 128.992 86.888C129.952 86.344 131.04 86.072 132.256 86.072C133.472 86.072 134.56 86.336 135.52 86.864C136.48 87.392 137.24 88.12 137.8 89.048C138.36 89.96 138.64 90.992 138.64 92.144C138.64 93.296 138.36 94.336 137.8 95.264C137.24 96.192 136.48 96.928 135.52 97.472C134.56 98 133.472 98.264 132.256 98.264ZM132.256 94.928C132.784 94.928 133.248 94.816 133.648 94.592C134.048 94.352 134.352 94.024 134.56 93.608C134.784 93.176 134.896 92.688 134.896 92.144C134.896 91.6 134.784 91.128 134.56 90.728C134.336 90.312 134.024 89.992 133.624 89.768C133.24 89.528 132.784 89.408 132.256 89.408C131.744 89.408 131.288 89.528 130.888 89.768C130.488 89.992 130.176 90.312 129.952 90.728C129.728 91.144 129.616 91.624 129.616 92.168C129.616 92.696 129.728 93.176 129.952 93.608C130.176 94.024 130.488 94.352 130.888 94.592C131.288 94.816 131.744 94.928 132.256 94.928ZM140.468 98V86.336H144.14V98H140.468ZM144.14 91.592L142.604 90.392C142.908 89.032 143.42 87.976 144.14 87.224C144.86 86.472 145.86 86.096 147.14 86.096C147.7 86.096 148.188 86.184 148.604 86.36C149.036 86.52 149.412 86.776 149.732 87.128L147.548 89.888C147.388 89.712 147.188 89.576 146.948 89.48C146.708 89.384 146.436 89.336 146.132 89.336C145.524 89.336 145.036 89.528 144.668 89.912C144.316 90.28 144.14 90.84 144.14 91.592ZM6.936 127.264C5.736 127.264 4.648 127 3.672 126.472C2.696 125.944 1.928 125.216 1.368 124.288C0.808 123.36 0.528 122.32 0.528 121.168C0.528 120 0.808 118.96 1.368 118.048C1.944 117.12 2.72 116.392 3.696 115.864C4.672 115.336 5.768 115.072 6.984 115.072C7.896 115.072 8.728 115.232 9.48 115.552C10.248 115.856 10.928 116.32 11.52 116.944L9.168 119.296C8.896 118.992 8.576 118.768 8.208 118.624C7.856 118.48 7.448 118.408 6.984 118.408C6.456 118.408 5.984 118.528 5.568 118.768C5.168 118.992 4.848 119.312 4.608 119.728C4.384 120.128 4.272 120.6 4.272 121.144C4.272 121.688 4.384 122.168 4.608 122.584C4.848 123 5.176 123.328 5.592 123.568C6.008 123.808 6.472 123.928 6.984 123.928C7.464 123.928 7.888 123.848 8.256 123.688C8.64 123.512 8.968 123.272 9.24 122.968L11.568 125.32C10.96 125.96 10.272 126.448 9.504 126.784C8.736 127.104 7.88 127.264 6.936 127.264ZM18.537 127.264C17.337 127.264 16.249 127 15.273 126.472C14.313 125.928 13.553 125.192 12.993 124.264C12.433 123.336 12.153 122.296 12.153 121.144C12.153 119.992 12.433 118.96 12.993 118.048C13.553 117.136 14.313 116.416 15.273 115.888C16.233 115.344 17.321 115.072 18.537 115.072C19.753 115.072 20.841 115.336 21.801 115.864C22.761 116.392 23.521 117.12 24.081 118.048C24.641 118.96 24.921 119.992 24.921 121.144C24.921 122.296 24.641 123.336 24.081 124.264C23.521 125.192 22.761 125.928 21.801 126.472C20.841 127 19.753 127.264 18.537 127.264ZM18.537 123.928C19.065 123.928 19.529 123.816 19.929 123.592C20.329 123.352 20.633 123.024 20.841 122.608C21.065 122.176 21.177 121.688 21.177 121.144C21.177 120.6 21.065 120.128 20.841 119.728C20.617 119.312 20.305 118.992 19.905 118.768C19.521 118.528 19.065 118.408 18.537 118.408C18.025 118.408 17.569 118.528 17.169 118.768C16.769 118.992 16.457 119.312 16.233 119.728C16.009 120.144 15.897 120.624 15.897 121.168C15.897 121.696 16.009 122.176 16.233 122.608C16.457 123.024 16.769 123.352 17.169 123.592C17.569 123.816 18.025 123.928 18.537 123.928ZM26.7491 127V115.336H30.4211V127H26.7491ZM34.2131 127V120.184C34.2131 119.592 34.0291 119.136 33.6611 118.816C33.3091 118.48 32.8691 118.312 32.3411 118.312C31.9731 118.312 31.6451 118.392 31.3571 118.552C31.0691 118.696 30.8371 118.904 30.6611 119.176C30.5011 119.448 30.4211 119.784 30.4211 120.184L29.0051 119.56C29.0051 118.632 29.2051 117.84 29.6051 117.184C30.0051 116.512 30.5491 116 31.2371 115.648C31.9251 115.28 32.7011 115.096 33.5651 115.096C34.3811 115.096 35.1091 115.28 35.7491 115.648C36.4051 116.016 36.9251 116.528 37.3091 117.184C37.6931 117.84 37.8851 118.624 37.8851 119.536V127H34.2131ZM41.6771 127V120.184C41.6771 119.592 41.4931 119.136 41.1251 118.816C40.7731 118.48 40.3331 118.312 39.8051 118.312C39.4371 118.312 39.1091 118.392 38.8211 118.552C38.5331 118.696 38.3011 118.904 38.1251 119.176C37.9651 119.448 37.8851 119.784 37.8851 120.184L35.7731 119.896C35.8051 118.904 36.0371 118.056 36.4691 117.352C36.9171 116.632 37.5011 116.08 38.2211 115.696C38.9571 115.296 39.7811 115.096 40.6931 115.096C41.5891 115.096 42.3811 115.288 43.0691 115.672C43.7731 116.04 44.3251 116.576 44.7251 117.28C45.1411 117.968 45.3491 118.8 45.3491 119.776V127H41.6771ZM54.4223 127.24C53.6383 127.24 52.9183 127.088 52.2623 126.784C51.6063 126.48 51.0703 126.064 50.6543 125.536C50.2383 124.992 49.9983 124.376 49.9342 123.688V118.768C49.9983 118.08 50.2383 117.456 50.6543 116.896C51.0703 116.336 51.6063 115.896 52.2623 115.576C52.9183 115.256 53.6383 115.096 54.4223 115.096C55.5263 115.096 56.5023 115.36 57.3503 115.888C58.2143 116.416 58.8863 117.136 59.3663 118.048C59.8623 118.96 60.1103 120 60.1103 121.168C60.1103 122.336 59.8623 123.376 59.3663 124.288C58.8863 125.2 58.2143 125.92 57.3503 126.448C56.5023 126.976 55.5263 127.24 54.4223 127.24ZM53.7503 123.928C54.2783 123.928 54.7343 123.808 55.1183 123.568C55.5183 123.328 55.8303 123 56.0543 122.584C56.2783 122.168 56.3903 121.696 56.3903 121.168C56.3903 120.624 56.2783 120.144 56.0543 119.728C55.8303 119.312 55.5183 118.992 55.1183 118.768C54.7343 118.528 54.2863 118.408 53.7743 118.408C53.2623 118.408 52.8063 118.528 52.4062 118.768C52.0223 118.992 51.7183 119.312 51.4943 119.728C51.2703 120.144 51.1583 120.624 51.1583 121.168C51.1583 121.696 51.2623 122.168 51.4703 122.584C51.6943 123 52.0063 123.328 52.4062 123.568C52.8063 123.808 53.2543 123.928 53.7503 123.928ZM47.7023 131.92V115.336H51.3743V118.336L50.7743 121.168L51.3263 124V131.92H47.7023ZM66.8477 127.24C65.7757 127.24 64.8157 126.976 63.9677 126.448C63.1357 125.92 62.4717 125.2 61.9757 124.288C61.4957 123.376 61.2557 122.336 61.2557 121.168C61.2557 120 61.4957 118.96 61.9757 118.048C62.4717 117.136 63.1357 116.416 63.9677 115.888C64.8157 115.36 65.7757 115.096 66.8477 115.096C67.6317 115.096 68.3357 115.248 68.9597 115.552C69.5997 115.856 70.1197 116.28 70.5197 116.824C70.9197 117.352 71.1437 117.96 71.1917 118.648V123.688C71.1437 124.376 70.9197 124.992 70.5197 125.536C70.1357 126.064 69.6237 126.48 68.9837 126.784C68.3437 127.088 67.6317 127.24 66.8477 127.24ZM67.5917 123.928C68.3757 123.928 69.0077 123.672 69.4877 123.16C69.9677 122.632 70.2077 121.968 70.2077 121.168C70.2077 120.624 70.0957 120.144 69.8717 119.728C69.6637 119.312 69.3597 118.992 68.9597 118.768C68.5757 118.528 68.1277 118.408 67.6157 118.408C67.1037 118.408 66.6477 118.528 66.2477 118.768C65.8637 118.992 65.5517 119.312 65.3117 119.728C65.0877 120.144 64.9757 120.624 64.9757 121.168C64.9757 121.696 65.0877 122.168 65.3117 122.584C65.5357 123 65.8477 123.328 66.2477 123.568C66.6477 123.808 67.0957 123.928 67.5917 123.928ZM70.0637 127V123.856L70.6157 121.024L70.0637 118.192V115.336H73.6637V127H70.0637ZM76.2491 127V115.336H79.9211V127H76.2491ZM79.9211 120.592L78.3851 119.392C78.6891 118.032 79.2011 116.976 79.9211 116.224C80.6411 115.472 81.6411 115.096 82.9211 115.096C83.4811 115.096 83.9691 115.184 84.3851 115.36C84.8171 115.52 85.1931 115.776 85.5131 116.128L83.3291 118.888C83.1691 118.712 82.9691 118.576 82.7291 118.48C82.4891 118.384 82.2171 118.336 81.9131 118.336C81.3051 118.336 80.8171 118.528 80.4491 118.912C80.0971 119.28 79.9211 119.84 79.9211 120.592ZM88.2645 127V110.512H91.9365V127H88.2645ZM85.6245 118.456V115.336H94.5765V118.456H85.6245ZM96.1944 127V115.336H99.8664V127H96.1944ZM98.0424 113.728C97.4664 113.728 96.9864 113.536 96.6024 113.152C96.2344 112.752 96.0504 112.272 96.0504 111.712C96.0504 111.136 96.2344 110.656 96.6024 110.272C96.9864 109.888 97.4664 109.696 98.0424 109.696C98.6184 109.696 99.0904 109.888 99.4584 110.272C99.8264 110.656 100.01 111.136 100.01 111.712C100.01 112.272 99.8264 112.752 99.4584 113.152C99.0904 113.536 98.6184 113.728 98.0424 113.728ZM102.452 127V109.576H106.124V127H102.452ZM116.414 127V120.352C116.414 119.744 116.222 119.256 115.838 118.888C115.47 118.504 114.998 118.312 114.422 118.312C114.022 118.312 113.67 118.4 113.366 118.576C113.062 118.736 112.822 118.976 112.646 119.296C112.47 119.6 112.382 119.952 112.382 120.352L110.966 119.656C110.966 118.744 111.158 117.944 111.542 117.256C111.926 116.568 112.462 116.04 113.15 115.672C113.838 115.288 114.63 115.096 115.526 115.096C116.438 115.096 117.238 115.288 117.926 115.672C118.614 116.04 119.142 116.56 119.51 117.232C119.894 117.888 120.086 118.656 120.086 119.536V127H116.414ZM108.71 127V109.576H112.382V127H108.71ZM127.316 127.24C126.244 127.24 125.284 126.976 124.436 126.448C123.604 125.92 122.94 125.2 122.444 124.288C121.964 123.376 121.724 122.336 121.724 121.168C121.724 120 121.964 118.96 122.444 118.048C122.94 117.136 123.604 116.416 124.436 115.888C125.284 115.36 126.244 115.096 127.316 115.096C128.1 115.096 128.804 115.248 129.428 115.552C130.068 115.856 130.588 116.28 130.988 116.824C131.388 117.352 131.612 117.96 131.66 118.648V123.688C131.612 124.376 131.388 124.992 130.988 125.536C130.604 126.064 130.092 126.48 129.452 126.784C128.812 127.088 128.1 127.24 127.316 127.24ZM128.06 123.928C128.844 123.928 129.476 123.672 129.956 123.16C130.436 122.632 130.676 121.968 130.676 121.168C130.676 120.624 130.564 120.144 130.34 119.728C130.132 119.312 129.828 118.992 129.428 118.768C129.044 118.528 128.596 118.408 128.084 118.408C127.572 118.408 127.116 118.528 126.716 118.768C126.332 118.992 126.02 119.312 125.78 119.728C125.556 120.144 125.444 120.624 125.444 121.168C125.444 121.696 125.556 122.168 125.78 122.584C126.004 123 126.316 123.328 126.716 123.568C127.116 123.808 127.564 123.928 128.06 123.928ZM130.532 127V123.856L131.084 121.024L130.532 118.192V115.336H134.132V127H130.532ZM136.718 127V115.336H140.39V127H136.718ZM140.39 120.592L138.854 119.392C139.158 118.032 139.67 116.976 140.39 116.224C141.11 115.472 142.11 115.096 143.39 115.096C143.95 115.096 144.438 115.184 144.854 115.36C145.286 115.52 145.662 115.776 145.982 116.128L143.798 118.888C143.638 118.712 143.438 118.576 143.198 118.48C142.958 118.384 142.686 118.336 142.382 118.336C141.774 118.336 141.286 118.528 140.918 118.912C140.566 119.28 140.39 119.84 140.39 120.592ZM5.544 156.288C4.856 156.288 4.176 156.2 3.504 156.024C2.848 155.848 2.232 155.6 1.656 155.28C1.096 154.944 0.616 154.56 0.216 154.128L2.304 152.016C2.688 152.432 3.144 152.76 3.672 153C4.2 153.224 4.776 153.336 5.4 153.336C5.832 153.336 6.16 153.272 6.384 153.144C6.624 153.016 6.744 152.84 6.744 152.616C6.744 152.328 6.6 152.112 6.312 151.968C6.04 151.808 5.688 151.672 5.256 151.56C4.824 151.432 4.368 151.296 3.888 151.152C3.408 151.008 2.952 150.808 2.52 150.552C2.088 150.296 1.736 149.944 1.464 149.496C1.192 149.032 1.056 148.448 1.056 147.744C1.056 146.992 1.248 146.344 1.632 145.8C2.016 145.24 2.56 144.8 3.264 144.48C3.968 144.16 4.792 144 5.736 144C6.728 144 7.64 144.176 8.472 144.528C9.32 144.864 10.008 145.368 10.536 146.04L8.448 148.152C8.08 147.72 7.664 147.416 7.2 147.24C6.752 147.064 6.312 146.976 5.88 146.976C5.464 146.976 5.152 147.04 4.944 147.168C4.736 147.28 4.632 147.448 4.632 147.672C4.632 147.912 4.768 148.104 5.04 148.248C5.312 148.392 5.664 148.52 6.096 148.632C6.528 148.744 6.984 148.88 7.464 149.04C7.944 149.2 8.4 149.416 8.832 149.688C9.264 149.96 9.616 150.328 9.888 150.792C10.16 151.24 10.296 151.832 10.296 152.568C10.296 153.704 9.864 154.608 9 155.28C8.152 155.952 7 156.288 5.544 156.288ZM17.4722 156.264C16.4002 156.264 15.4482 156.048 14.6162 155.616C13.8002 155.168 13.1602 154.56 12.6962 153.792C12.2322 153.008 12.0002 152.112 12.0002 151.104V144.336H15.6722V151.056C15.6722 151.456 15.7362 151.8 15.8642 152.088C16.0082 152.376 16.2162 152.6 16.4882 152.76C16.7602 152.92 17.0882 153 17.4722 153C18.0162 153 18.4482 152.832 18.7682 152.496C19.0882 152.144 19.2482 151.664 19.2482 151.056V144.336H22.9202V151.08C22.9202 152.104 22.6882 153.008 22.2242 153.792C21.7602 154.56 21.1202 155.168 20.3042 155.616C19.4882 156.048 18.5442 156.264 17.4722 156.264ZM30.0977 156.24C29.0257 156.24 28.0657 155.976 27.2177 155.448C26.3857 154.92 25.7217 154.2 25.2257 153.288C24.7457 152.376 24.5057 151.336 24.5057 150.168C24.5057 149 24.7457 147.96 25.2257 147.048C25.7217 146.136 26.3857 145.416 27.2177 144.888C28.0657 144.36 29.0257 144.096 30.0977 144.096C30.8817 144.096 31.5857 144.248 32.2097 144.552C32.8497 144.856 33.3697 145.28 33.7697 145.824C34.1697 146.352 34.3937 146.96 34.4417 147.648V152.688C34.3937 153.376 34.1697 153.992 33.7697 154.536C33.3857 155.064 32.8737 155.48 32.2337 155.784C31.5937 156.088 30.8817 156.24 30.0977 156.24ZM30.8417 152.928C31.6257 152.928 32.2577 152.672 32.7377 152.16C33.2177 151.632 33.4577 150.968 33.4577 150.168C33.4577 149.624 33.3457 149.144 33.1217 148.728C32.9137 148.312 32.6097 147.992 32.2097 147.768C31.8257 147.528 31.3777 147.408 30.8657 147.408C30.3537 147.408 29.8977 147.528 29.4977 147.768C29.1137 147.992 28.8017 148.312 28.5617 148.728C28.3377 149.144 28.2257 149.624 28.2257 150.168C28.2257 150.696 28.3377 151.168 28.5617 151.584C28.7857 152 29.0977 152.328 29.4977 152.568C29.8977 152.808 30.3457 152.928 30.8417 152.928ZM33.3137 156V152.856L33.8657 150.024L33.3137 147.192V144.336H36.9137V156H33.3137ZM49.6854 156.264C48.4854 156.264 47.3974 156 46.4214 155.472C45.4614 154.928 44.7014 154.192 44.1414 153.264C43.5814 152.336 43.3014 151.296 43.3014 150.144C43.3014 148.992 43.5814 147.96 44.1414 147.048C44.7014 146.136 45.4614 145.416 46.4214 144.888C47.3814 144.344 48.4694 144.072 49.6854 144.072C50.9014 144.072 51.9894 144.336 52.9494 144.864C53.9094 145.392 54.6694 146.12 55.2294 147.048C55.7894 147.96 56.0694 148.992 56.0694 150.144C56.0694 151.296 55.7894 152.336 55.2294 153.264C54.6694 154.192 53.9094 154.928 52.9494 155.472C51.9894 156 50.9014 156.264 49.6854 156.264ZM49.6854 152.928C50.2134 152.928 50.6774 152.816 51.0774 152.592C51.4774 152.352 51.7814 152.024 51.9894 151.608C52.2134 151.176 52.3254 150.688 52.3254 150.144C52.3254 149.6 52.2134 149.128 51.9894 148.728C51.7654 148.312 51.4534 147.992 51.0534 147.768C50.6694 147.528 50.2134 147.408 49.6854 147.408C49.1734 147.408 48.7174 147.528 48.3174 147.768C47.9174 147.992 47.6054 148.312 47.3814 148.728C47.1574 149.144 47.0454 149.624 47.0454 150.168C47.0454 150.696 47.1574 151.176 47.3814 151.608C47.6054 152.024 47.9174 152.352 48.3174 152.592C48.7174 152.816 49.1734 152.928 49.6854 152.928ZM64.6176 156.24C63.8336 156.24 63.1136 156.088 62.4576 155.784C61.8016 155.48 61.2656 155.064 60.8496 154.536C60.4336 153.992 60.1936 153.376 60.1296 152.688V147.768C60.1936 147.08 60.4336 146.456 60.8496 145.896C61.2656 145.336 61.8016 144.896 62.4576 144.576C63.1136 144.256 63.8336 144.096 64.6176 144.096C65.7216 144.096 66.6976 144.36 67.5456 144.888C68.4096 145.416 69.0816 146.136 69.5616 147.048C70.0576 147.96 70.3056 149 70.3056 150.168C70.3056 151.336 70.0576 152.376 69.5616 153.288C69.0816 154.2 68.4096 154.92 67.5456 155.448C66.6976 155.976 65.7216 156.24 64.6176 156.24ZM63.9456 152.928C64.4736 152.928 64.9296 152.808 65.3136 152.568C65.7136 152.328 66.0256 152 66.2496 151.584C66.4736 151.168 66.5856 150.696 66.5856 150.168C66.5856 149.624 66.4736 149.144 66.2496 148.728C66.0256 148.312 65.7136 147.992 65.3136 147.768C64.9296 147.528 64.4816 147.408 63.9696 147.408C63.4576 147.408 63.0016 147.528 62.6016 147.768C62.2176 147.992 61.9136 148.312 61.6896 148.728C61.4656 149.144 61.3536 149.624 61.3536 150.168C61.3536 150.696 61.4576 151.168 61.6656 151.584C61.8896 152 62.2016 152.328 62.6016 152.568C63.0016 152.808 63.4496 152.928 63.9456 152.928ZM57.8976 160.92V144.336H61.5696V147.336L60.9696 150.168L61.5216 153V160.92H57.8976ZM72.171 156V144.336H75.843V156H72.171ZM74.019 142.728C73.443 142.728 72.963 142.536 72.579 142.152C72.211 141.752 72.027 141.272 72.027 140.712C72.027 140.136 72.211 139.656 72.579 139.272C72.963 138.888 73.443 138.696 74.019 138.696C74.595 138.696 75.067 138.888 75.435 139.272C75.803 139.656 75.987 140.136 75.987 140.712C75.987 141.272 75.803 141.752 75.435 142.152C75.067 142.536 74.595 142.728 74.019 142.728ZM86.1328 156V149.352C86.1328 148.744 85.9408 148.256 85.5568 147.888C85.1888 147.504 84.7168 147.312 84.1408 147.312C83.7408 147.312 83.3888 147.4 83.0848 147.576C82.7808 147.736 82.5408 147.976 82.3648 148.296C82.1888 148.6 82.1008 148.952 82.1008 149.352L80.6848 148.656C80.6848 147.744 80.8848 146.944 81.2848 146.256C81.6848 145.568 82.2368 145.04 82.9408 144.672C83.6608 144.288 84.4688 144.096 85.3648 144.096C86.2288 144.096 86.9888 144.304 87.6448 144.72C88.3168 145.12 88.8448 145.656 89.2288 146.328C89.6128 147 89.8048 147.736 89.8048 148.536V156H86.1328ZM78.4288 156V144.336H82.1008V156H78.4288ZM92.1632 156V144.336H95.8352V156H92.1632ZM94.0112 142.728C93.4352 142.728 92.9552 142.536 92.5712 142.152C92.2032 141.752 92.0192 141.272 92.0192 140.712C92.0192 140.136 92.2032 139.656 92.5712 139.272C92.9552 138.888 93.4352 138.696 94.0112 138.696C94.5872 138.696 95.0592 138.888 95.4272 139.272C95.7952 139.656 95.9792 140.136 95.9792 140.712C95.9792 141.272 95.7952 141.752 95.4272 142.152C95.0592 142.536 94.5872 142.728 94.0112 142.728ZM103.293 156.24C102.221 156.24 101.261 155.976 100.413 155.448C99.581 154.92 98.917 154.2 98.421 153.288C97.941 152.376 97.701 151.336 97.701 150.168C97.701 149 97.941 147.96 98.421 147.048C98.917 146.136 99.581 145.416 100.413 144.888C101.261 144.36 102.221 144.096 103.293 144.096C104.077 144.096 104.781 144.248 105.405 144.552C106.045 144.856 106.565 145.28 106.965 145.824C107.365 146.352 107.589 146.96 107.637 147.648V152.688C107.589 153.376 107.365 153.992 106.965 154.536C106.581 155.064 106.069 155.48 105.429 155.784C104.789 156.088 104.077 156.24 103.293 156.24ZM104.037 152.928C104.821 152.928 105.453 152.672 105.933 152.16C106.413 151.632 106.653 150.968 106.653 150.168C106.653 149.624 106.541 149.144 106.317 148.728C106.109 148.312 105.805 147.992 105.405 147.768C105.021 147.528 104.573 147.408 104.061 147.408C103.549 147.408 103.093 147.528 102.693 147.768C102.309 147.992 101.997 148.312 101.757 148.728C101.533 149.144 101.421 149.624 101.421 150.168C101.421 150.696 101.533 151.168 101.757 151.584C101.981 152 102.293 152.328 102.693 152.568C103.093 152.808 103.541 152.928 104.037 152.928ZM106.509 156V152.856L107.061 150.024L106.509 147.192V144.336H110.109V156H106.509ZM105.789 142.992C105.277 142.992 104.829 142.904 104.445 142.728C104.077 142.552 103.733 142.376 103.413 142.2C103.109 142.024 102.773 141.936 102.405 141.936C102.037 141.936 101.725 142.016 101.469 142.176C101.213 142.32 100.973 142.544 100.749 142.848L98.997 141.12C99.461 140.432 99.949 139.92 100.461 139.584C100.989 139.248 101.597 139.08 102.285 139.08C102.797 139.08 103.237 139.168 103.605 139.344C103.989 139.52 104.341 139.704 104.661 139.896C104.981 140.072 105.317 140.16 105.669 140.16C106.053 140.16 106.373 140.088 106.629 139.944C106.885 139.784 107.117 139.544 107.325 139.224L109.077 140.976C108.613 141.648 108.117 142.152 107.589 142.488C107.077 142.824 106.477 142.992 105.789 142.992ZM118.31 156.264C117.11 156.264 116.022 156 115.046 155.472C114.086 154.928 113.326 154.192 112.766 153.264C112.206 152.336 111.926 151.296 111.926 150.144C111.926 148.992 112.206 147.96 112.766 147.048C113.326 146.136 114.086 145.416 115.046 144.888C116.006 144.344 117.094 144.072 118.31 144.072C119.526 144.072 120.614 144.336 121.574 144.864C122.534 145.392 123.294 146.12 123.854 147.048C124.414 147.96 124.694 148.992 124.694 150.144C124.694 151.296 124.414 152.336 123.854 153.264C123.294 154.192 122.534 154.928 121.574 155.472C120.614 156 119.526 156.264 118.31 156.264ZM118.31 152.928C118.838 152.928 119.302 152.816 119.702 152.592C120.102 152.352 120.406 152.024 120.614 151.608C120.838 151.176 120.95 150.688 120.95 150.144C120.95 149.6 120.838 149.128 120.614 148.728C120.39 148.312 120.078 147.992 119.678 147.768C119.294 147.528 118.838 147.408 118.31 147.408C117.798 147.408 117.342 147.528 116.942 147.768C116.542 147.992 116.23 148.312 116.006 148.728C115.782 149.144 115.67 149.624 115.67 150.168C115.67 150.696 115.782 151.176 116.006 151.608C116.23 152.024 116.542 152.352 116.942 152.592C117.342 152.816 117.798 152.928 118.31 152.928ZM6.936 185.264C5.736 185.264 4.648 185 3.672 184.472C2.696 183.944 1.928 183.216 1.368 182.288C0.808 181.36 0.528 180.32 0.528 179.168C0.528 178 0.808 176.96 1.368 176.048C1.944 175.12 2.72 174.392 3.696 173.864C4.672 173.336 5.768 173.072 6.984 173.072C7.896 173.072 8.728 173.232 9.48 173.552C10.248 173.856 10.928 174.32 11.52 174.944L9.168 177.296C8.896 176.992 8.576 176.768 8.208 176.624C7.856 176.48 7.448 176.408 6.984 176.408C6.456 176.408 5.984 176.528 5.568 176.768C5.168 176.992 4.848 177.312 4.608 177.728C4.384 178.128 4.272 178.6 4.272 179.144C4.272 179.688 4.384 180.168 4.608 180.584C4.848 181 5.176 181.328 5.592 181.568C6.008 181.808 6.472 181.928 6.984 181.928C7.464 181.928 7.888 181.848 8.256 181.688C8.64 181.512 8.968 181.272 9.24 180.968L11.568 183.32C10.96 183.96 10.272 184.448 9.504 184.784C8.736 185.104 7.88 185.264 6.936 185.264ZM18.537 185.264C17.337 185.264 16.249 185 15.273 184.472C14.313 183.928 13.553 183.192 12.993 182.264C12.433 181.336 12.153 180.296 12.153 179.144C12.153 177.992 12.433 176.96 12.993 176.048C13.553 175.136 14.313 174.416 15.273 173.888C16.233 173.344 17.321 173.072 18.537 173.072C19.753 173.072 20.841 173.336 21.801 173.864C22.761 174.392 23.521 175.12 24.081 176.048C24.641 176.96 24.921 177.992 24.921 179.144C24.921 180.296 24.641 181.336 24.081 182.264C23.521 183.192 22.761 183.928 21.801 184.472C20.841 185 19.753 185.264 18.537 185.264ZM18.537 181.928C19.065 181.928 19.529 181.816 19.929 181.592C20.329 181.352 20.633 181.024 20.841 180.608C21.065 180.176 21.177 179.688 21.177 179.144C21.177 178.6 21.065 178.128 20.841 177.728C20.617 177.312 20.305 176.992 19.905 176.768C19.521 176.528 19.065 176.408 18.537 176.408C18.025 176.408 17.569 176.528 17.169 176.768C16.769 176.992 16.457 177.312 16.233 177.728C16.009 178.144 15.897 178.624 15.897 179.168C15.897 179.696 16.009 180.176 16.233 180.608C16.457 181.024 16.769 181.352 17.169 181.592C17.569 181.816 18.025 181.928 18.537 181.928ZM26.7491 185V173.336H30.4211V185H26.7491ZM34.2131 185V178.184C34.2131 177.592 34.0291 177.136 33.6611 176.816C33.3091 176.48 32.8691 176.312 32.3411 176.312C31.9731 176.312 31.6451 176.392 31.3571 176.552C31.0691 176.696 30.8371 176.904 30.6611 177.176C30.5011 177.448 30.4211 177.784 30.4211 178.184L29.0051 177.56C29.0051 176.632 29.2051 175.84 29.6051 175.184C30.0051 174.512 30.5491 174 31.2371 173.648C31.9251 173.28 32.7011 173.096 33.5651 173.096C34.3811 173.096 35.1091 173.28 35.7491 173.648C36.4051 174.016 36.9251 174.528 37.3091 175.184C37.6931 175.84 37.8851 176.624 37.8851 177.536V185H34.2131ZM41.6771 185V178.184C41.6771 177.592 41.4931 177.136 41.1251 176.816C40.7731 176.48 40.3331 176.312 39.8051 176.312C39.4371 176.312 39.1091 176.392 38.8211 176.552C38.5331 176.696 38.3011 176.904 38.1251 177.176C37.9651 177.448 37.8851 177.784 37.8851 178.184L35.7731 177.896C35.8051 176.904 36.0371 176.056 36.4691 175.352C36.9171 174.632 37.5011 174.08 38.2211 173.696C38.9571 173.296 39.7811 173.096 40.6931 173.096C41.5891 173.096 42.3811 173.288 43.0691 173.672C43.7731 174.04 44.3251 174.576 44.7251 175.28C45.1411 175.968 45.3491 176.8 45.3491 177.776V185H41.6771ZM57.1446 185.24C56.0726 185.24 55.1126 184.976 54.2646 184.448C53.4326 183.92 52.7686 183.2 52.2726 182.288C51.7926 181.376 51.5526 180.336 51.5526 179.168C51.5526 178 51.7926 176.96 52.2726 176.048C52.7686 175.136 53.4326 174.416 54.2646 173.888C55.1126 173.36 56.0726 173.096 57.1446 173.096C57.9286 173.096 58.6326 173.248 59.2566 173.552C59.8966 173.856 60.4166 174.28 60.8166 174.824C61.2166 175.352 61.4406 175.96 61.4886 176.648V181.688C61.4406 182.376 61.2166 182.992 60.8166 183.536C60.4326 184.064 59.9206 184.48 59.2806 184.784C58.6406 185.088 57.9286 185.24 57.1446 185.24ZM57.8886 181.928C58.6726 181.928 59.3046 181.672 59.7846 181.16C60.2646 180.632 60.5046 179.968 60.5046 179.168C60.5046 178.624 60.3926 178.144 60.1686 177.728C59.9606 177.312 59.6566 176.992 59.2566 176.768C58.8726 176.528 58.4246 176.408 57.9126 176.408C57.4006 176.408 56.9446 176.528 56.5446 176.768C56.1606 176.992 55.8486 177.312 55.6086 177.728C55.3846 178.144 55.2726 178.624 55.2726 179.168C55.2726 179.696 55.3846 180.168 55.6086 180.584C55.8326 181 56.1446 181.328 56.5446 181.568C56.9446 181.808 57.3926 181.928 57.8886 181.928ZM60.3606 185V181.856L60.9126 179.024L60.3606 176.192V173.336H63.9606V185H60.3606ZM76.0603 190.232C74.7803 190.232 73.6523 190.008 72.6763 189.56C71.7163 189.128 70.9563 188.512 70.3963 187.712L72.6523 185.456C73.0683 185.952 73.5323 186.328 74.0443 186.584C74.5723 186.84 75.2043 186.968 75.9403 186.968C76.8523 186.968 77.5643 186.744 78.0763 186.296C78.6043 185.848 78.8683 185.216 78.8683 184.4V181.424L79.4923 178.88L78.9403 176.336V173.336H82.5403V184.304C82.5403 185.504 82.2603 186.544 81.7003 187.424C81.1403 188.304 80.3723 188.992 79.3963 189.488C78.4203 189.984 77.3083 190.232 76.0603 190.232ZM75.8923 184.64C74.8203 184.64 73.8683 184.384 73.0363 183.872C72.2043 183.36 71.5483 182.664 71.0683 181.784C70.5883 180.904 70.3483 179.928 70.3483 178.856C70.3483 177.768 70.5883 176.792 71.0683 175.928C71.5483 175.048 72.2043 174.36 73.0363 173.864C73.8683 173.352 74.8203 173.096 75.8923 173.096C76.6923 173.096 77.4043 173.248 78.0283 173.552C78.6683 173.84 79.1803 174.256 79.5643 174.8C79.9643 175.328 80.1883 175.944 80.2363 176.648V181.088C80.1883 181.776 79.9643 182.392 79.5643 182.936C79.1803 183.464 78.6683 183.88 78.0283 184.184C77.3883 184.488 76.6763 184.64 75.8923 184.64ZM76.5883 181.376C77.1003 181.376 77.5403 181.264 77.9083 181.04C78.2923 180.816 78.5803 180.52 78.7723 180.152C78.9803 179.768 79.0843 179.336 79.0843 178.856C79.0843 178.376 78.9803 177.944 78.7723 177.56C78.5803 177.176 78.2923 176.872 77.9083 176.648C77.5403 176.424 77.1003 176.312 76.5883 176.312C76.0923 176.312 75.6523 176.424 75.2683 176.648C74.8843 176.872 74.5883 177.176 74.3803 177.56C74.1723 177.944 74.0683 178.376 74.0683 178.856C74.0683 179.304 74.1723 179.728 74.3803 180.128C74.5883 180.512 74.8763 180.816 75.2443 181.04C75.6283 181.264 76.0763 181.376 76.5883 181.376ZM90.8919 185.264C89.6279 185.264 88.4999 185.008 87.5079 184.496C86.5319 183.968 85.7639 183.24 85.2039 182.312C84.6439 181.384 84.3639 180.336 84.3639 179.168C84.3639 178 84.6359 176.96 85.1799 176.048C85.7399 175.12 86.4919 174.392 87.4359 173.864C88.3799 173.336 89.4439 173.072 90.6279 173.072C91.7799 173.072 92.7959 173.32 93.6759 173.816C94.5559 174.312 95.2439 175 95.7399 175.88C96.2519 176.76 96.5079 177.768 96.5079 178.904C96.5079 179.112 96.4919 179.336 96.4599 179.576C96.4439 179.8 96.4039 180.064 96.3399 180.368L86.2839 180.392V177.872L94.7799 177.848L93.1959 178.904C93.1799 178.232 93.0759 177.68 92.8839 177.248C92.6919 176.8 92.4039 176.464 92.0199 176.24C91.6519 176 91.1959 175.88 90.6519 175.88C90.0759 175.88 89.5719 176.016 89.1399 176.288C88.7239 176.544 88.3959 176.912 88.1559 177.392C87.9319 177.872 87.8199 178.456 87.8199 179.144C87.8199 179.832 87.9399 180.424 88.1799 180.92C88.4359 181.4 88.7879 181.776 89.2359 182.048C89.6999 182.304 90.2439 182.432 90.8679 182.432C91.4439 182.432 91.9639 182.336 92.4279 182.144C92.8919 181.936 93.2999 181.632 93.6519 181.232L95.6679 183.248C95.0919 183.92 94.3959 184.424 93.5799 184.76C92.7639 185.096 91.8679 185.264 90.8919 185.264ZM105.984 185V178.352C105.984 177.744 105.792 177.256 105.408 176.888C105.04 176.504 104.568 176.312 103.992 176.312C103.592 176.312 103.24 176.4 102.936 176.576C102.632 176.736 102.392 176.976 102.216 177.296C102.04 177.6 101.952 177.952 101.952 178.352L100.536 177.656C100.536 176.744 100.736 175.944 101.136 175.256C101.536 174.568 102.088 174.04 102.792 173.672C103.512 173.288 104.32 173.096 105.216 173.096C106.08 173.096 106.84 173.304 107.496 173.72C108.168 174.12 108.696 174.656 109.08 175.328C109.464 176 109.656 176.736 109.656 177.536V185H105.984ZM98.2804 185V173.336H101.952V185H98.2804ZM113.53 185V168.512H117.202V185H113.53ZM110.89 176.456V173.336H119.842V176.456H110.89ZM126.986 185.264C125.722 185.264 124.594 185.008 123.602 184.496C122.626 183.968 121.858 183.24 121.298 182.312C120.738 181.384 120.458 180.336 120.458 179.168C120.458 178 120.73 176.96 121.274 176.048C121.834 175.12 122.586 174.392 123.53 173.864C124.474 173.336 125.538 173.072 126.722 173.072C127.874 173.072 128.89 173.32 129.77 173.816C130.65 174.312 131.338 175 131.834 175.88C132.346 176.76 132.602 177.768 132.602 178.904C132.602 179.112 132.586 179.336 132.554 179.576C132.538 179.8 132.498 180.064 132.434 180.368L122.378 180.392V177.872L130.874 177.848L129.29 178.904C129.274 178.232 129.17 177.68 128.978 177.248C128.786 176.8 128.498 176.464 128.114 176.24C127.746 176 127.29 175.88 126.746 175.88C126.17 175.88 125.666 176.016 125.234 176.288C124.818 176.544 124.49 176.912 124.25 177.392C124.026 177.872 123.914 178.456 123.914 179.144C123.914 179.832 124.034 180.424 124.274 180.92C124.53 181.4 124.882 181.776 125.33 182.048C125.794 182.304 126.338 182.432 126.962 182.432C127.538 182.432 128.058 182.336 128.522 182.144C128.986 181.936 129.394 181.632 129.746 181.232L131.762 183.248C131.186 183.92 130.49 184.424 129.674 184.76C128.858 185.096 127.962 185.264 126.986 185.264ZM135.094 178.808L134.494 167.576H138.454L137.854 178.808H135.094ZM136.462 185.264C135.838 185.264 135.318 185.048 134.902 184.616C134.486 184.184 134.278 183.664 134.278 183.056C134.278 182.416 134.486 181.888 134.902 181.472C135.318 181.04 135.838 180.824 136.462 180.824C137.102 180.824 137.622 181.04 138.022 181.472C138.438 181.888 138.646 182.416 138.646 183.056C138.646 183.664 138.438 184.184 138.022 184.616C137.622 185.048 137.102 185.264 136.462 185.264Z" fill="#6F46BE"/>
<rect width="295.265" height="117.3" rx="58.6499" transform="matrix(-0.900554 0.434744 0.434744 0.900554 447.902 0)" fill="#EEE8FF"/>
<g clip-path="url(#clip0_1176_2567)">
<path d="M323.084 138.39H302.045L291.539 151.276C289.947 153.225 286.987 153.175 285.458 151.169L275.738 138.39H254.916C245.574 138.39 238 130.709 238 121.23V85.153C238 75.6804 245.574 68 254.916 68H323.084C332.426 68 340 75.6804 340 85.153V121.23C340 130.709 332.426 138.39 323.084 138.39Z" fill="#6F46BE"/>
<path d="M308.42 109.068L292.226 123.619C290.88 124.828 288.86 124.828 287.513 123.619L271.32 109.068C255.091 94.5183 275.303 73.1482 289.87 90.2585C302.528 72.0743 323.161 94.6605 308.42 109.068Z" fill="white"/>
<path opacity="0.16" d="M290.599 175.001C305.124 175.001 316.899 173.326 316.899 171.26C316.899 169.194 305.124 167.52 290.599 167.52C276.074 167.52 264.299 169.194 264.299 171.26C264.299 173.326 276.074 175.001 290.599 175.001Z" fill="#553597"/>
</g>
<defs>
<clipPath id="clip0_1176_2567">
<rect width="102" height="107" fill="white" transform="translate(238 68)"/>
</clipPath>
</defs>
</svg>
