<svg width="40" height="40" viewBox="0 0 40 40" fill="none" xmlns="http://www.w3.org/2000/svg">
<path d="M19.6405 39.2962C30.4877 39.2962 39.2811 30.4995 39.2811 19.6481C39.2811 8.79676 30.4877 0 19.6405 0C8.79337 0 0 8.79676 0 19.6481C0 30.4995 8.79337 39.2962 19.6405 39.2962Z" fill="#13A876"/>
<path d="M19.6399 30.0147C14.2177 30.0147 12.6513 25.8561 12.591 25.6753C12.2898 24.8315 12.7115 23.8672 13.555 23.5658C14.3984 23.2645 15.3021 23.6864 15.6636 24.5302C15.7841 24.7713 16.6276 26.7602 19.6399 26.7602C22.7728 26.7602 23.6162 24.5904 23.6162 24.5904C23.9174 23.7466 24.8814 23.3248 25.7249 23.6261C26.5683 23.9275 26.99 24.8918 26.6888 25.7356C26.6286 25.8561 25.0621 30.0147 19.6399 30.0147Z" fill="#5ED6A5"/>
<path d="M14.7867 15.4439C14.7006 15.5258 14.6601 15.6448 14.6785 15.7622L15.1285 18.6351C15.175 18.932 14.8604 19.153 14.5969 19.0086L12.0785 17.6286C11.9737 17.5713 11.8474 17.5692 11.7409 17.6232L9.13964 18.9412C8.87257 19.0765 8.56603 18.8476 8.6199 18.5531L9.1389 15.7159C9.1603 15.5989 9.12287 15.4788 9.03877 15.3947L6.9992 13.3552C6.78706 13.143 6.91021 12.7797 7.20763 12.7403L10.0792 12.3597C10.1975 12.344 10.3006 12.271 10.3545 12.1645L11.6685 9.57108C11.8045 9.30258 12.1898 9.3077 12.3186 9.57972L13.5621 12.2048C13.614 12.3144 13.7174 12.3907 13.8374 12.4081L16.6947 12.8212C16.9938 12.8644 17.1114 13.2336 16.8923 13.4418L14.7867 15.4439Z" fill="#5ED6A5"/>
<path d="M14.9773 18.5076C15.0737 18.8184 14.7429 19.0887 14.4575 18.9323L12.0783 17.6286C11.9736 17.5713 11.8473 17.5692 11.7408 17.6232L9.27991 18.87C8.99055 19.0166 8.66925 18.738 8.77345 18.4308L11.6439 9.96842C11.7566 9.63619 12.2287 9.64242 12.3326 9.9775L14.9773 18.5076Z" fill="#5ED6A5"/>
<path d="M30.1783 15.4439C30.0921 15.5258 30.0517 15.6448 30.0701 15.7622L30.52 18.6351C30.5665 18.932 30.2519 19.153 29.9884 19.0086L27.47 17.6286C27.3653 17.5713 27.239 17.5692 27.1324 17.6232L24.5312 18.9412C24.2641 19.0765 23.9576 18.8476 24.0114 18.5531L24.5304 15.7159C24.5518 15.5989 24.5144 15.4788 24.4303 15.3947L22.3907 13.3552C22.1786 13.143 22.3017 12.7797 22.5992 12.7403L25.4707 12.3597C25.5891 12.344 25.6921 12.271 25.7461 12.1645L27.06 9.57108C27.1961 9.30258 27.5813 9.3077 27.7102 9.57972L28.9536 12.2048C29.0055 12.3144 29.1089 12.3907 29.229 12.4081L32.0862 12.8212C32.3853 12.8644 32.5029 13.2336 32.2838 13.4418L30.1783 15.4439Z" fill="#5ED6A5"/>
<path d="M30.3691 18.5076C30.4654 18.8184 30.1347 19.0887 29.8493 18.9323L27.4701 17.6286C27.3654 17.5713 27.2391 17.5692 27.1325 17.6232L24.6717 18.87C24.3823 19.0166 24.061 18.738 24.1652 18.4308L27.0357 9.96842C27.1484 9.63619 27.6205 9.64242 27.7244 9.9775L30.3691 18.5076Z" fill="#5ED6A5"/>
</svg>
