<svg width="40" height="40" viewBox="0 0 40 40" fill="none" xmlns="http://www.w3.org/2000/svg">
<path d="M19.8396 39.6946C30.7968 39.6946 39.6793 30.8086 39.6793 19.8473C39.6793 8.88593 30.7968 0 19.8396 0C8.8825 0 0 8.88593 0 19.8473C0 30.8086 8.8825 39.6946 19.8396 39.6946Z" fill="#BF0000"/>
<path d="M12.4146 19.2992C14.3977 19.2992 16.0052 17.691 16.0052 15.7072C16.0052 13.7234 14.3977 12.1152 12.4146 12.1152C10.4316 12.1152 8.82404 13.7234 8.82404 15.7072C8.82404 17.691 10.4316 19.2992 12.4146 19.2992Z" fill="#870A0A"/>
<path d="M27.3243 19.2992C29.3074 19.2992 30.9149 17.691 30.9149 15.7072C30.9149 13.7234 29.3074 12.1152 27.3243 12.1152C25.3413 12.1152 23.7337 13.7234 23.7337 15.7072C23.7337 17.691 25.3413 19.2992 27.3243 19.2992Z" fill="#870A0A"/>
<path d="M25.4379 30.3196C24.7685 30.3196 24.0991 29.8935 23.8556 29.2238C23.7948 29.0411 22.8819 27.0321 19.839 27.0321C16.6744 27.0321 15.8224 29.2238 15.8224 29.2238C15.5181 30.0761 14.5444 30.5023 13.6924 30.1979C12.8404 29.8935 12.4144 28.9194 12.7187 28.067C12.7795 27.8844 14.3618 23.6836 19.839 23.6836C25.3162 23.6836 26.8985 27.8844 26.9594 28.067C27.2637 28.9194 26.8377 29.8935 25.9857 30.1979C25.8031 30.3197 25.6205 30.3196 25.4379 30.3196Z" fill="#870A0A"/>
</svg>
