<svg width="18" height="30" viewBox="0 0 18 30" fill="none" xmlns="http://www.w3.org/2000/svg">
<g clip-path="url(#clip0_57_1047)">
<path d="M16.1929 0.167114H1.80718C0.809357 0.167114 6.10352e-05 0.978709 6.10352e-05 1.97653V28.0257C6.10352e-05 29.0213 0.809357 29.8329 1.80718 29.8329H16.1929C17.1907 29.8329 18 29.0213 18 28.0257V1.97653C18 0.978709 17.1907 0.167114 16.1929 0.167114ZM17.0964 28.0257C17.0964 28.5224 16.6918 28.9293 16.1929 28.9293H9.23339C10.1301 28.8258 10.8313 28.0717 10.8313 27.1475C10.8313 26.2232 10.1622 25.5036 9.29547 25.3725H16.094C16.3423 25.3725 16.5446 25.1702 16.5446 24.9219V3.76066C16.5446 3.51006 16.3423 3.30773 16.094 3.30773H1.96352C1.71292 3.30773 1.51059 3.51006 1.51059 3.76066V24.9219C1.51059 25.1702 1.71292 25.3725 1.96352 25.3725H8.76207C7.89529 25.5036 7.22625 26.2462 7.22625 27.1475C7.22625 28.0487 7.92748 28.8258 8.82185 28.9293H1.80718C1.30827 28.9293 0.903621 28.5224 0.903621 28.0257V1.97653C0.903621 1.47762 1.30827 1.07067 1.80718 1.07067H16.1929C16.6918 1.07067 17.0964 1.47762 17.0964 1.97653V28.0257ZM9.02877 28.0464C8.53215 28.0464 8.12981 27.6441 8.12981 27.1475C8.12981 26.6509 8.53215 26.2508 9.02877 26.2508C9.52538 26.2508 9.92543 26.6532 9.92543 27.1475C9.92543 27.6418 9.52308 28.0464 9.02877 28.0464ZM2.41645 24.469V4.21359H15.6411V24.469H2.41645Z" fill="#6F46BE"/>
<path d="M16.1929 1.07068H1.80719C1.30827 1.07068 0.903625 1.47763 0.903625 1.97654V28.0257C0.903625 28.5224 1.30827 28.9293 1.80719 28.9293H8.82185C7.92749 28.8258 7.22625 28.0717 7.22625 27.1475C7.22625 26.2232 7.8953 25.5036 8.76207 25.3725H1.96353C1.71292 25.3725 1.5106 25.1702 1.5106 24.9219V3.76067C1.5106 3.51006 1.71292 3.30774 1.96353 3.30774H16.094C16.3423 3.30774 16.5446 3.51006 16.5446 3.76067V24.9219C16.5446 25.1702 16.3423 25.3725 16.094 25.3725H9.29547C10.1622 25.5036 10.8313 26.2462 10.8313 27.1475C10.8313 28.0487 10.1301 28.8258 9.23339 28.9293H16.1929C16.6918 28.9293 17.0964 28.5224 17.0964 28.0257V1.97654C17.0964 1.47763 16.6918 1.07068 16.1929 1.07068ZM10.8566 2.64789H7.23774V1.74203H10.8566V2.64789Z" fill="#EDE3FF"/>
<path d="M10.8566 1.74436V2.64793H7.23779V1.74207L10.8566 1.74436Z" fill="#6F46BE"/>
<path d="M13.5098 20.0845H4.4903V20.988H13.5098V20.0845Z" fill="#6F46BE"/>
<path d="M14.9307 21.6041H3.07178V22.5077H14.9307V21.6041Z" fill="#6F46BE"/>
<path d="M14.0777 15.6817C13.7259 15.4955 13.3098 15.3138 12.8706 15.1184C12.3533 14.8908 11.7831 14.6402 11.229 14.3413C11.413 14.0493 11.5578 13.7182 11.6544 13.3642C12.0774 12.9043 12.4775 12.1525 12.4775 11.4053C12.4775 11.0765 12.4568 10.7064 12.2223 10.4742C12.2131 10.465 12.2039 10.4558 12.1924 10.4466L12.1786 9.46024C12.1786 9.41196 12.1855 8.28539 11.3624 7.4508C10.7991 6.87831 10.0036 6.58862 8.99658 6.58862C7.98956 6.58862 7.19406 6.87831 6.63077 7.4508C5.80768 8.28539 5.81457 9.41196 5.81457 9.44645L5.80078 10.4443C5.80078 10.4443 5.78009 10.4627 5.77319 10.4719C5.56167 10.6811 5.51799 10.9846 5.51799 11.403C5.51799 12.1502 5.91804 12.902 6.34108 13.3619C6.43764 13.7159 6.58249 14.047 6.76642 14.339C6.22612 14.631 5.64904 14.8862 5.12483 15.1161C4.6834 15.3092 4.26726 15.4932 3.91549 15.6794C3.6074 15.8426 3.30622 16.1116 3.06711 16.4381C2.91766 16.645 2.78201 16.8727 2.66936 17.1049C2.66476 17.1118 2.65096 17.1394 2.64866 17.1463L2.60498 17.2405L3.42807 17.6153L3.47635 17.5118C3.57292 17.3141 3.68098 17.1302 3.80053 16.9669C3.95687 16.7531 4.1523 16.5738 4.34083 16.4749C4.66271 16.3048 5.06506 16.1277 5.4904 15.9415C6.17094 15.6426 6.94345 15.3046 7.66308 14.8655C7.78263 14.7965 7.8631 14.6793 7.8838 14.5436C7.90449 14.408 7.8631 14.27 7.77114 14.1689C7.49754 13.87 7.29522 13.4745 7.18946 13.0262C7.16877 12.9434 7.12738 12.8676 7.0653 12.8078C6.75262 12.5043 6.42155 11.9065 6.42155 11.4007C6.42155 11.2789 6.42614 11.2007 6.43074 11.1478C6.58708 11.0788 6.69744 10.9225 6.69974 10.7409L6.71813 9.44645C6.71813 9.44645 6.72273 8.64405 7.27453 8.08306C7.66078 7.68991 8.24016 7.49218 8.99658 7.49218C9.75299 7.49218 10.3255 7.68991 10.7117 8.07846C11.2704 8.63945 11.275 9.44185 11.275 9.45794L11.2911 10.7409C11.2911 10.8604 11.3417 10.9754 11.4291 11.0581C11.4681 11.0972 11.5141 11.1271 11.5624 11.1478C11.567 11.2007 11.5739 11.2789 11.5739 11.4007C11.5739 11.9065 11.2428 12.502 10.9302 12.8078C10.8681 12.8676 10.8267 12.9434 10.806 13.0262C10.6979 13.4745 10.4979 13.87 10.2243 14.1689C10.1324 14.2677 10.1094 14.4126 10.1278 14.5482C10.1461 14.6839 10.2427 14.8103 10.3577 14.8816C11.0543 15.3069 11.8245 15.6449 12.5074 15.9438C12.9327 16.13 13.3327 16.3071 13.6546 16.4772C13.8432 16.5761 14.0409 16.7577 14.1949 16.9669C14.3053 17.121 14.4087 17.2934 14.4961 17.4658L14.5099 17.4934L15.31 17.0727C15.195 16.8428 15.0663 16.6289 14.926 16.4335C14.6892 16.1093 14.3881 15.8403 14.0777 15.6748V15.6817Z" fill="#6F46BE"/>
</g>
<defs>
<clipPath id="clip0_57_1047">
<rect width="17.9999" height="29.6657" fill="white" transform="translate(6.10352e-05 0.167114)"/>
</clipPath>
</defs>
</svg>
