<svg width="22" height="32" viewBox="0 0 22 32" fill="none" xmlns="http://www.w3.org/2000/svg">
<g clip-path="url(#clip0_37_13469)">
<path d="M21.7127 4.69885V30.7554H0.330566V4.69885H4.46323V7.44127H17.5788V4.69885H21.7115H21.7127Z" fill="#EDE3FF"/>
<path d="M1.10229 5.46702H4.46443V4.69885H0.330566V30.7554H1.10229V5.46702Z" fill="#EDE3FF"/>
<path d="M17.5801 4.69883V7.44126H4.46448V3.32762H8.59714C8.76182 2.17537 9.75472 1.24329 10.9664 1.24329C12.1781 1.24329 13.171 2.12153 13.3368 3.32762H17.4695V4.69883H17.5801Z" fill="white"/>
<path d="M5.01502 5.3031V3.93189H9.14768C9.31236 2.77964 10.3053 1.84755 11.5169 1.84755C12.0687 1.84755 12.6192 2.01267 13.0051 2.34171C12.5639 1.68363 11.8475 1.24451 10.9664 1.24451C9.75472 1.24451 8.76182 2.12275 8.59714 3.32884H4.46448V7.44248H5.01622V5.3031H5.01502Z" fill="white"/>
<path d="M13.9426 3.9319H17.5248V3.32886H13.7227C13.8873 3.49278 13.9426 3.71294 13.9426 3.9319Z" fill="white"/>
<path d="M18.9576 10.1849H8.59711V14.2986H18.9576V10.1849Z" fill="white"/>
<path d="M9.25824 10.843H18.9576V10.1849H8.59711V14.2986H9.25824V10.843Z" fill="white"/>
<path d="M3.36213 16.7682C3.41742 16.8232 3.47271 16.9333 3.47271 16.9871C3.47271 17.0972 3.41742 17.151 3.36213 17.2061C3.30683 17.2611 3.19744 17.3162 3.14215 17.3162C3.08685 17.3162 2.97627 17.2611 2.92217 17.2061C2.86688 17.151 2.81158 17.041 2.81158 16.9871C2.81158 16.877 2.86688 16.8232 2.92217 16.7682C2.97747 16.7131 3.08685 16.6581 3.14215 16.6581C3.19744 16.7131 3.30683 16.7131 3.36213 16.7682Z" fill="#553597"/>
<path d="M3.36213 19.5106C3.41742 19.5656 3.47271 19.6745 3.47271 19.7296C3.47271 19.7846 3.41742 19.8935 3.36213 19.9485C3.30683 20.0036 3.19744 20.0586 3.14215 20.0586C3.08685 20.0586 2.97627 20.0036 2.92217 19.9485C2.86688 19.8935 2.81158 19.7846 2.81158 19.7296C2.81158 19.6195 2.86688 19.5644 2.92217 19.5106C2.97747 19.4567 3.08685 19.4005 3.14215 19.4005C3.19744 19.4005 3.30683 19.4556 3.36213 19.5106Z" fill="#553597"/>
<path d="M3.36213 24.9967C3.41742 25.0517 3.47271 25.1618 3.47271 25.2156C3.47271 25.3257 3.41742 25.3796 3.36213 25.4346C3.30683 25.4896 3.19744 25.5447 3.14215 25.5447C3.08685 25.5447 2.97627 25.4896 2.92217 25.4346C2.86688 25.3796 2.81158 25.2695 2.81158 25.2156C2.81158 25.1056 2.86688 25.0505 2.92217 24.9967C2.97747 24.9428 3.08685 24.8866 3.14215 24.8866C3.19744 24.8866 3.30683 24.9416 3.36213 24.9967Z" fill="#553597"/>
<path d="M3.36213 27.739C3.41742 27.794 3.47271 27.9041 3.47271 27.9579C3.47271 28.068 3.41742 28.1219 3.36213 28.1769C3.30683 28.232 3.19744 28.287 3.14215 28.287C3.08685 28.287 2.97627 28.232 2.92217 28.1769C2.86808 28.1219 2.81158 28.013 2.81158 27.9579C2.81158 27.8479 2.86688 27.7928 2.92217 27.739C2.97747 27.6851 3.08685 27.6289 3.14215 27.6289C3.19744 27.6289 3.30683 27.6839 3.36213 27.739Z" fill="#553597"/>
<path d="M3.36213 22.253C3.41742 22.3081 3.47271 22.4169 3.47271 22.472C3.47271 22.5821 3.41742 22.6371 3.36213 22.691C3.30683 22.746 3.19744 22.801 3.14215 22.801C3.03156 22.801 2.97627 22.746 2.92217 22.691C2.86688 22.6359 2.81158 22.527 2.81158 22.472C2.81158 22.3619 2.86688 22.3081 2.92217 22.253C2.97747 22.198 3.08685 22.1429 3.14215 22.1429C3.19744 22.1429 3.30683 22.198 3.36213 22.253Z" fill="#553597"/>
<path d="M21.7127 31.0858H0.330565C0.164681 31.0858 0 30.9206 0 30.7567V4.69892C0 4.53499 0.164681 4.36987 0.330565 4.36987H4.46323C4.62791 4.36987 4.79379 4.53499 4.79379 4.69892C4.79379 4.86284 4.62791 5.02796 4.46323 5.02796H0.66113V30.4265H21.3268V5.02796H17.5247C17.3589 5.02796 17.1942 4.86404 17.1942 4.69892C17.1942 4.5338 17.3589 4.36987 17.5247 4.36987H21.6574C21.8233 4.36987 21.988 4.53499 21.988 4.69892V30.7555C22.0433 30.9206 21.8774 31.0846 21.7127 31.0846V31.0858Z" fill="#553597"/>
<path d="M17.5801 7.77156H4.46448C4.29859 7.77156 4.13391 7.60644 4.13391 7.44252V3.32769C4.13391 3.16257 4.29859 2.99864 4.46448 2.99864H8.32187C8.65243 1.79255 9.75472 0.914307 10.9664 0.914307C12.1781 0.914307 13.3368 1.79255 13.6121 2.99864H17.4695C17.6342 2.99864 17.8001 3.16257 17.8001 3.32769V7.44132C17.9107 7.60524 17.7448 7.77036 17.5801 7.77036V7.77156ZM4.84913 7.11347H17.2483V3.65793H13.4462C13.2815 3.65793 13.1157 3.54785 13.1157 3.38392C12.951 2.39679 12.0687 1.62863 11.077 1.62863C10.0853 1.62863 9.20297 2.39679 9.03829 3.38392C9.03829 3.54785 8.87361 3.65793 8.70773 3.65793H4.90563V7.11347H4.85034H4.84913Z" fill="#553597"/>
<path d="M18.9576 14.6288H8.59704C8.43116 14.6288 8.26648 14.4649 8.26648 14.2997V10.1861C8.26648 10.0222 8.43116 9.85706 8.59704 9.85706H18.9576C19.1234 9.85706 19.2881 10.0222 19.2881 10.1861V14.2997C19.2881 14.4649 19.1222 14.6288 18.9576 14.6288ZM8.9829 13.9707H18.627V10.5151H8.9829V13.9707Z" fill="#553597"/>
<path d="M4.46448 13.9695C4.29859 13.9695 4.13391 13.8056 4.13391 13.6404V10.898C4.13391 10.7329 4.29859 10.569 4.46448 10.569C4.63036 10.569 4.79504 10.7329 4.79504 10.898V13.6404C4.85034 13.8056 4.68445 13.9695 4.46448 13.9695Z" fill="#553597"/>
<path d="M5.84196 12.5983H3.08685C2.92097 12.5983 2.75629 12.4332 2.75629 12.2692C2.75629 12.1053 2.92217 11.9402 3.08685 11.9402H5.84196C6.00784 11.9402 6.17252 12.1053 6.17252 12.2692C6.22782 12.4332 6.06194 12.5983 5.84196 12.5983Z" fill="#553597"/>
<path d="M18.9576 17.3712H5.84198C5.6773 17.3712 5.51141 17.2073 5.51141 17.0422C5.51141 16.8771 5.6773 16.7131 5.84198 16.7131H18.9576C19.1235 16.7131 19.2882 16.8783 19.2882 17.0422C19.2882 17.2061 19.1223 17.3712 18.9576 17.3712Z" fill="#553597"/>
<path d="M18.9576 20.1137H5.84198C5.6773 20.1137 5.51141 19.9485 5.51141 19.7846C5.51141 19.6207 5.6773 19.4556 5.84198 19.4556H18.9576C19.1235 19.4556 19.2882 19.6195 19.2882 19.7846C19.2882 19.9497 19.1223 20.1137 18.9576 20.1137Z" fill="#553597"/>
<path d="M18.9576 22.8573H5.84198C5.6773 22.8573 5.51141 22.6934 5.51141 22.5283C5.51141 22.3631 5.6773 22.1992 5.84198 22.1992H18.9576C19.1235 22.1992 19.2882 22.3643 19.2882 22.5283C19.2882 22.6922 19.1223 22.8573 18.9576 22.8573Z" fill="#553597"/>
<path d="M18.9576 25.5996H5.84198C5.6773 25.5996 5.51141 25.4357 5.51141 25.2706C5.51141 25.1055 5.6773 24.9415 5.84198 24.9415H18.9576C19.1235 24.9415 19.2882 25.1066 19.2882 25.2706C19.2882 25.4345 19.1223 25.5996 18.9576 25.5996Z" fill="#553597"/>
<path d="M18.9576 28.342H5.84198C5.6773 28.342 5.51141 28.1769 5.51141 28.013C5.51141 27.8491 5.6773 27.684 5.84198 27.684H18.9576C19.1235 27.684 19.2882 27.8479 19.2882 28.013C19.2882 28.1781 19.1223 28.342 18.9576 28.342Z" fill="#553597"/>
</g>
<defs>
<clipPath id="clip0_37_13469">
<rect width="22" height="30.1714" fill="white" transform="translate(0 0.914307)"/>
</clipPath>
</defs>
</svg>
