<svg width="20" height="32" viewBox="0 0 20 32" fill="none" xmlns="http://www.w3.org/2000/svg">
<g clip-path="url(#clip0_37_13495)">
<path d="M19.6959 3.15844V28.8427C19.6959 29.9251 18.8194 30.854 17.6846 30.854H2.31548C1.23181 30.854 0.304138 29.9775 0.304138 28.8427V3.15844C0.304138 2.07477 1.1806 1.14709 2.31548 1.14709H17.6846C18.7682 1.1983 19.6959 2.07596 19.6959 3.15844Z" fill="white"/>
<path d="M1.077 29.5643V3.88009C1.077 2.79761 1.95346 1.86875 3.08834 1.86875H18.4574C18.8183 1.86875 19.1279 1.97235 19.4375 2.12716C19.0767 1.56032 18.4574 1.14709 17.7358 1.14709H2.31548C1.23181 1.14709 0.304138 2.02356 0.304138 3.15844V28.8427C0.304138 29.6167 0.716172 30.2348 1.33541 30.5968C1.1806 30.2872 1.077 29.9263 1.077 29.5655V29.5643Z" fill="white"/>
<path d="M17.2714 5.68555V25.6442H2.72754V5.68555H17.2714Z" fill="#EDE3FF"/>
<path d="M3.5528 6.56201H17.2714V5.68555H2.72754V25.6454H3.5528V6.56201Z" fill="#EDE3FF"/>
<path d="M10.0001 10.2238C12.115 10.2238 13.868 11.9767 13.868 14.0916C13.868 16.2066 12.1138 17.9595 10.0001 17.9595C7.88632 17.9595 6.1322 16.2066 6.1322 14.0916C6.1322 11.9767 7.88513 10.2238 10.0001 10.2238Z" fill="white"/>
<path d="M6.64784 14.9681C6.64784 12.8532 8.40196 11.1002 10.5157 11.1002C11.753 11.1002 12.8879 11.7195 13.6107 12.6472C13.0439 11.2027 11.6506 10.1714 10.0001 10.1714C7.88513 10.1714 6.1322 11.9255 6.1322 14.0393C6.1322 14.9157 6.44182 15.741 6.90625 16.3602C6.75144 15.947 6.64784 15.4838 6.64784 14.9681Z" fill="white"/>
<path d="M9.99999 26.8826C10.6704 26.8826 11.1861 27.3982 11.1861 28.0687C11.1861 28.7391 10.6704 29.2547 9.99999 29.2547C9.32954 29.2547 8.8139 28.7391 8.8139 28.0687C8.8139 27.3982 9.32954 26.8826 9.99999 26.8826Z" fill="#553597"/>
<path d="M9.38075 6.9751H8.09106V8.26479H9.38075V6.9751Z" fill="#553597"/>
<path d="M7.42189 6.9751H6.1322V8.26479H7.42189V6.9751Z" fill="#553597"/>
<path d="M5.51296 6.9751H4.22327V8.26479H5.51296V6.9751Z" fill="#553597"/>
<path d="M17.6846 31.1625H2.31547C1.02578 31.1625 -0.00549316 30.1312 -0.00549316 28.8415V3.15849C-0.00549316 1.8688 1.02578 0.837524 2.31547 0.837524H17.6846C18.9742 0.837524 20.0055 1.8688 20.0055 3.15849V28.8427C20.0055 30.1324 18.9742 31.1637 17.6846 31.1637V31.1625ZM2.31547 1.50797C1.38661 1.50797 0.613748 2.28202 0.613748 3.20969V28.8939C0.613748 29.8216 1.3878 30.5956 2.31547 30.5956H17.6846C18.6134 30.5956 19.3863 29.8216 19.3863 28.8939V3.15849C19.3863 2.22963 18.6122 1.45677 17.6846 1.45677H2.31547V1.50797Z" fill="#553597"/>
<path d="M17.2714 25.9536H2.72759C2.57278 25.9536 2.41797 25.7988 2.41797 25.644V5.68535C2.41797 5.53054 2.57278 5.37573 2.72759 5.37573H17.2202C17.375 5.37573 17.5298 5.53054 17.5298 5.68535V25.644C17.581 25.85 17.4262 25.9536 17.2714 25.9536ZM3.08842 25.3344H16.9618V6.04618H3.08842V25.3344Z" fill="#553597"/>
<path d="M11.4434 3.41575H8.03991C7.8851 3.41575 7.73029 3.26094 7.73029 3.10613C7.73029 2.95132 7.8851 2.79651 8.03991 2.79651H11.4434C11.5982 2.79651 11.753 2.95132 11.753 3.10613C11.753 3.26094 11.6494 3.41575 11.4434 3.41575Z" fill="#553597"/>
<path d="M14.5383 20.8485H5.51287C5.35806 20.8485 5.20325 20.6937 5.20325 20.5389C5.20325 20.3841 5.35806 20.2292 5.51287 20.2292H14.5383C14.6931 20.2292 14.8479 20.3841 14.8479 20.5389C14.8479 20.6937 14.6931 20.8485 14.5383 20.8485Z" fill="#553597"/>
<path d="M14.5383 23.4267H5.51287C5.35806 23.4267 5.20325 23.2719 5.20325 23.1171C5.20325 22.9623 5.35806 22.8075 5.51287 22.8075H14.5383C14.6931 22.8075 14.8479 22.9623 14.8479 23.1171C14.8479 23.2719 14.6931 23.4267 14.5383 23.4267Z" fill="#553597"/>
<path d="M9.99994 18.2692C7.67898 18.2692 5.82245 16.4126 5.82245 14.0917C5.82245 11.7707 7.67898 9.91418 9.99994 9.91418C12.3209 9.91418 14.1774 11.7707 14.1774 14.0917C14.1774 16.4126 12.3209 18.2692 9.99994 18.2692ZM9.99994 10.5334C8.03981 10.5334 6.44169 12.1327 6.44169 14.0917C6.44169 16.0506 8.03981 17.6511 9.99994 17.6511C11.9601 17.6511 13.5582 16.0518 13.5582 14.0917C13.5582 12.1315 11.9589 10.5334 9.99994 10.5334Z" fill="#553597"/>
<path d="M11.2896 14.4013H8.71026C8.55545 14.4013 8.40063 14.2465 8.40063 14.0917C8.40063 13.9369 8.55545 13.7821 8.71026 13.7821H11.2896C11.4444 13.7821 11.5993 13.9369 11.5993 14.0917C11.5993 14.2465 11.4444 14.4013 11.2896 14.4013Z" fill="#553597"/>
<path d="M9.99999 15.6911C9.84518 15.6911 9.69037 15.5363 9.69037 15.3815V12.8033C9.69037 12.6485 9.84518 12.4937 9.99999 12.4937C10.1548 12.4937 10.3096 12.6485 10.3096 12.8033V15.3815C10.3096 15.5363 10.1548 15.6911 9.99999 15.6911Z" fill="#553597"/>
</g>
<defs>
<clipPath id="clip0_37_13495">
<rect width="20.011" height="30.325" fill="white" transform="translate(-0.00549316 0.837524)"/>
</clipPath>
</defs>
</svg>
