<svg width="34" height="28" viewBox="0 0 34 28" fill="none" xmlns="http://www.w3.org/2000/svg">
<g clip-path="url(#clip0_57_1056)">
<path d="M26.4901 27V26.4156H28.6748C28.7785 26.4156 28.8784 26.3723 28.9482 26.295C29.0179 26.2196 29.0537 26.1159 29.0443 26.0122L28.3073 17.5523C28.1376 15.5956 26.5957 14.0386 24.6409 13.8482L24.3977 13.8256V5.86707C24.3977 2.77565 21.8831 0.259155 18.7898 0.259155C15.6965 0.259155 13.1819 2.77565 13.1819 5.86707V13.852C11.2385 14.0499 9.70594 15.6032 9.53629 17.5523L8.79925 26.0122C8.78982 26.1159 8.82375 26.2196 8.8935 26.295C8.96513 26.3723 9.06315 26.4156 9.16682 26.4156H11.4892V27H8.28652V21.1036C8.28652 20.9001 8.12064 20.7342 7.91517 20.7342H2.61451C2.40905 20.7342 2.24317 20.9001 2.24317 21.1036V21.9349H1.77757C0.961357 21.9349 0.295947 22.6003 0.295947 23.4184V25.0565C0.295947 25.8746 0.961357 26.5381 1.77757 26.5381H2.24317V27H0V27.7408H34V27H26.4901ZM2.24317 25.7973H1.77757C1.36852 25.7973 1.03676 25.4656 1.03676 25.0565V23.4184C1.03676 23.0094 1.36852 22.6776 1.77757 22.6776H2.24317V25.7973ZM7.54571 27H2.98398V21.475H7.54571V27ZM13.9246 5.86707C13.9246 3.18281 16.1074 0.999966 18.7898 0.999966C21.4722 0.999966 23.6569 3.18281 23.6569 5.86707V13.7521L21.6984 13.5617L21.2969 11.786C22.1093 10.574 22.6164 8.77188 22.6164 6.72287C22.6164 6.62296 22.5749 6.52494 22.5014 6.4552C22.4279 6.38545 22.328 6.34587 22.2281 6.35341C22.213 6.35341 20.6861 6.41373 19.853 5.94059C18.9991 5.45614 17.9623 3.92174 17.951 3.90477C17.8567 3.76528 17.6795 3.70685 17.5193 3.76528C17.3591 3.82372 17.2592 3.98394 17.2743 4.15359C17.278 4.17621 17.327 4.75114 16.7823 5.36566C16.1847 6.04238 15.2271 6.36849 15.2177 6.37226C15.0669 6.42315 14.9651 6.56453 14.9651 6.72287C14.9651 8.93399 15.557 10.8548 16.4826 12.0593L16.1451 13.5617L13.9246 13.7785V5.86707ZM16.8407 13.8501L17.0971 12.7078C17.606 13.1357 18.1772 13.3807 18.7898 13.3807C19.491 13.3807 20.1414 13.0622 20.7012 12.5117L21.0028 13.8501L18.9538 17.5994H18.8878L16.8407 13.8501ZM18.0434 17.5994H17.3252L14.8954 15.7766L16.345 14.491L18.0434 17.5994ZM17.5627 5.56736C17.6607 5.42409 17.738 5.2846 17.7983 5.15077C17.819 5.10741 17.836 5.06406 17.853 5.0207C18.2771 5.55416 18.8973 6.25162 19.4854 6.58526C20.2205 7.00185 21.295 7.08291 21.868 7.0961C21.7644 10.1366 20.3977 12.6399 18.7898 12.6399C18.7465 12.6399 18.7031 12.638 18.6598 12.6343C18.6503 12.6324 18.6409 12.6324 18.6296 12.6305C18.5881 12.6267 18.5467 12.6211 18.5071 12.6135C18.475 12.6079 18.4449 12.6003 18.4147 12.5928H18.4128C16.9538 12.2347 15.7757 9.82749 15.7097 6.97546C16.0886 6.81523 16.8106 6.45331 17.3365 5.85765C17.4232 5.75963 17.4986 5.66349 17.5627 5.56736ZM21.4967 14.491L22.9482 15.7766L20.5165 17.5994H19.8002L21.4967 14.491ZM11.4892 19.0829V25.6748H9.5721L10.2733 17.6164C10.4128 16.016 11.6758 14.7417 13.2743 14.5871L15.3478 14.3836L14.0641 15.524C13.9812 15.5975 13.934 15.705 13.9397 15.8162C13.9434 15.9274 13.9981 16.0311 14.0867 16.0989L16.0905 17.5994H12.9708C12.1527 17.5994 11.4892 18.2648 11.4892 19.0829ZM25.7493 27H12.23V19.0829C12.23 18.6739 12.5617 18.3421 12.9708 18.3421H25.0085C25.4156 18.3421 25.7493 18.6739 25.7493 19.0829V27ZM25.0085 17.5994H21.7531L23.7549 16.0989C23.8454 16.0311 23.8982 15.9274 23.9039 15.8162C23.9076 15.705 23.8624 15.5975 23.7795 15.524L22.4939 14.3836L24.5693 14.5871C26.1678 14.7417 27.4288 16.016 27.5683 17.6164L28.2714 25.6748H26.4901V19.0829C26.4901 18.2648 25.8247 17.5994 25.0085 17.5994Z" fill="#6F46BE"/>
<path d="M7.54574 21.475H2.98401V27H7.54574V21.475Z" fill="#EDE3FF"/>
<path d="M21.868 7.09615C21.7644 10.1367 20.3977 12.64 18.7898 12.64C17.1819 12.64 15.7813 10.0707 15.7097 6.97551C16.0886 6.81529 16.8105 6.45336 17.3365 5.8577C17.5928 5.56741 17.753 5.279 17.853 5.02075C18.2771 5.55421 18.8972 6.25167 19.4854 6.58531C20.2205 7.0019 21.295 7.08296 21.868 7.09615ZM14.0867 16.099C13.9981 16.0311 13.9434 15.9274 13.9397 15.8162C13.934 15.705 13.9811 15.5976 14.0641 15.5241L15.3478 14.3836L13.2743 14.5872C11.6758 14.7418 10.4128 16.016 10.2733 17.6164L9.57208 25.6749H11.4891V19.083C11.4891 18.2649 12.1527 17.5995 12.9708 17.5995H16.0905L14.0867 16.099ZM28.2714 25.6749L27.5683 17.6164C27.4288 16.016 26.1677 14.7418 24.5693 14.5872L22.4939 14.3836L23.7794 15.5241C23.8624 15.5976 23.9076 15.705 23.9038 15.8162C23.8982 15.9274 23.8454 16.0311 23.7549 16.099L21.753 17.5995H25.0085C25.8247 17.5995 26.4901 18.2649 26.4901 19.083V25.6749H28.2714Z" fill="#EDE3FF"/>
</g>
<defs>
<clipPath id="clip0_57_1056">
<rect width="34" height="27.4816" fill="white" transform="translate(0 0.259155)"/>
</clipPath>
</defs>
</svg>
