<svg width="30" height="22" viewBox="0 0 30 22" fill="none" xmlns="http://www.w3.org/2000/svg">
<path d="M19.3881 0.499023C17.5988 0.499023 15.9239 1.24808 14.7295 2.56711C13.5319 1.24808 11.8559 0.499023 10.0666 0.499023C6.58714 0.499023 3.75604 3.33581 3.75604 6.82229C3.75604 8.26798 4.16795 9.78901 4.99178 11.3876H5.86574C5.04518 9.90367 4.51885 8.35205 4.51885 6.82229C4.51885 3.7562 7.00669 1.26336 10.0666 1.26336C11.7764 1.26336 13.3674 2.04299 14.4277 3.39696C14.5726 3.5804 14.8821 3.5804 15.027 3.39696C16.0917 2.04299 17.6794 1.26336 19.3881 1.26336C22.448 1.26336 24.9359 3.7562 24.9359 6.82229C24.9359 7.73622 24.7484 8.65342 24.4204 9.56407H25.2334C25.2377 9.54879 25.241 9.53677 25.2453 9.52149C25.5472 8.59227 25.6998 7.69363 25.6998 6.82229C25.6998 3.33581 22.8687 0.499023 19.3892 0.499023H19.3881ZM23.3187 11.8582C20.7241 16.1974 15.8138 19.8717 14.7295 20.6513C13.8065 19.9896 10.1353 17.2489 7.45673 13.781C7.42949 13.7461 7.40661 13.7155 7.38046 13.6817H6.41932C7.17449 14.7212 8.09095 15.7923 9.16324 16.8821C11.8036 19.5704 14.4865 21.4168 14.5127 21.4353C14.5781 21.4779 14.6543 21.5009 14.7306 21.5009C14.8069 21.5009 14.8799 21.4779 14.9442 21.4353C14.9715 21.4157 17.6533 19.5693 20.298 16.8821C22.0078 15.1427 23.3165 13.4644 24.2123 11.8582H23.3198H23.3187Z" fill="#6F46BE"/>
<path d="M14.7285 15.6611C14.7045 15.6611 14.6795 15.659 14.6555 15.6546C14.504 15.6251 14.3852 15.5061 14.3547 15.3543L12.7746 7.47072L10.6911 12.678C10.6333 12.8233 10.4927 12.9183 10.3369 12.9183H0.5V12.1539H10.0787L12.5425 5.99664C12.6057 5.8394 12.7626 5.74112 12.9315 5.75859C13.0994 5.77388 13.2377 5.89836 13.2704 6.06434L14.9203 14.2963L17.4288 10.4986C17.4997 10.3916 17.6195 10.3271 17.747 10.3271H29.5V11.0915H17.9519L15.0467 15.4908C14.9748 15.5989 14.8549 15.6622 14.7285 15.6622V15.6611Z" fill="#6F46BE"/>
<path d="M24.9359 6.82223C24.9359 7.73616 24.7485 8.65337 24.4205 9.56402L17.3656 9.39914L15.3169 11.0468L13.6115 3.40018H12.7419L9.20903 11.3875H5.86685C5.04629 9.90361 4.51996 8.352 4.51996 6.82223C4.51996 3.75614 7.0078 1.26331 10.0677 1.26331C11.7775 1.26331 13.3685 2.04293 14.4288 3.39691C14.5737 3.58035 14.8832 3.58035 15.0281 3.39691C16.0928 2.04293 17.6805 1.26331 19.3892 1.26331C22.4491 1.26331 24.937 3.75614 24.937 6.82223H24.9359Z" fill="#EDE3FF"/>
<path d="M23.3176 11.8581C20.723 16.1974 15.8127 19.8716 14.7284 20.6513C13.8054 19.9896 10.1342 17.2489 7.45563 13.781L10.7564 14.0911L12.5577 10.3633L14.0463 17.3253H14.7295L18.5752 11.8581H23.3176Z" fill="#EDE3FF"/>
</svg>
