<svg width="28" height="34" viewBox="0 0 28 34" fill="none" xmlns="http://www.w3.org/2000/svg">
<g clip-path="url(#clip0_57_1279)">
<path d="M15.2569 27.0561C15.2569 27.7518 14.6928 28.3155 13.9989 28.3155C13.3051 28.3155 12.7429 27.7518 12.7429 27.0561C12.7429 26.3604 13.307 25.7968 13.9989 25.7968C14.6908 25.7968 15.2569 26.3624 15.2569 27.0561Z" fill="#EDE3FF"/>
<path d="M18.5926 8.20304C18.2073 7.94684 17.6275 7.29449 17.4112 5.6646C17.3916 5.52862 17.3051 5.41234 17.1813 5.35912C17.1321 5.33744 17.0791 5.32759 17.0279 5.32759C16.9474 5.32759 16.8687 5.35321 16.8019 5.40051C15.652 6.23221 12.8117 5.27241 11.8152 4.83094C11.6442 4.75605 11.4437 4.8132 11.3395 4.9689L9.22254 8.09859L9.10657 8.15969C8.96701 7.12105 8.81173 4.71466 10.0245 3.09857C10.7675 2.10724 11.9292 1.5554 13.4722 1.45883C15.2314 1.34847 16.566 1.79387 17.4329 2.78324C18.8579 4.41115 18.7184 7.11711 18.5926 8.20304Z" fill="#EDE3FF"/>
<path d="M26.5809 29.8173C25.9912 30.5564 25.1126 30.9564 24.1887 30.921L23.66 30.8697V26.7822H24.7568V26.0057H23.66V22.3301C23.66 21.4747 22.9681 20.779 22.115 20.779H5.88505C5.03198 20.779 4.33812 21.4747 4.33812 22.3301V26.0057H3.47719V26.7822H4.33812V30.8421L3.8133 30.919C2.87178 30.9564 2.00495 30.5524 1.4192 29.8173C0.829519 29.0782 0.630994 28.1303 0.876694 27.2158L3.00348 19.2871C3.34352 18.0159 4.22608 16.9792 5.42313 16.4412L10.0187 14.3718C10.0934 16.5082 11.8506 18.2228 13.9991 18.2228C16.1475 18.2228 17.9067 16.5082 17.9814 14.3718L22.5769 16.4412C23.774 16.9792 24.6546 18.0159 24.9946 19.2871L27.1234 27.2158C27.3691 28.1303 27.1706 29.0782 26.5809 29.8173Z" fill="#EDE3FF"/>
<path d="M13.9991 25.0202C12.8806 25.0202 11.9706 25.9347 11.9706 27.0561C11.9706 28.1775 12.8806 29.092 13.9991 29.092C15.1175 29.092 16.0295 28.1775 16.0295 27.0561C16.0295 25.9347 15.1195 25.0202 13.9991 25.0202ZM13.9991 28.3155C13.3072 28.3155 12.743 27.7518 12.743 27.0561C12.743 26.3604 13.3072 25.7967 13.9991 25.7967C14.6909 25.7967 15.257 26.3624 15.257 27.0561C15.257 27.7498 14.6929 28.3155 13.9991 28.3155ZM13.9991 25.0202C12.8806 25.0202 11.9706 25.9347 11.9706 27.0561C11.9706 28.1775 12.8806 29.092 13.9991 29.092C15.1175 29.092 16.0295 28.1775 16.0295 27.0561C16.0295 25.9347 15.1195 25.0202 13.9991 25.0202ZM13.9991 28.3155C13.3072 28.3155 12.743 27.7518 12.743 27.0561C12.743 26.3604 13.3072 25.7967 13.9991 25.7967C14.6909 25.7967 15.257 26.3624 15.257 27.0561C15.257 27.7498 14.6929 28.3155 13.9991 28.3155ZM13.9991 25.0202C12.8806 25.0202 11.9706 25.9347 11.9706 27.0561C11.9706 28.1775 12.8806 29.092 13.9991 29.092C15.1175 29.092 16.0295 28.1775 16.0295 27.0561C16.0295 25.9347 15.1195 25.0202 13.9991 25.0202ZM13.9991 28.3155C13.3072 28.3155 12.743 27.7518 12.743 27.0561C12.743 26.3604 13.3072 25.7967 13.9991 25.7967C14.6909 25.7967 15.257 26.3624 15.257 27.0561C15.257 27.7498 14.6929 28.3155 13.9991 28.3155ZM13.9991 25.0202C12.8806 25.0202 11.9706 25.9347 11.9706 27.0561C11.9706 28.1775 12.8806 29.092 13.9991 29.092C15.1175 29.092 16.0295 28.1775 16.0295 27.0561C16.0295 25.9347 15.1195 25.0202 13.9991 25.0202ZM13.9991 28.3155C13.3072 28.3155 12.743 27.7518 12.743 27.0561C12.743 26.3604 13.3072 25.7967 13.9991 25.7967C14.6909 25.7967 15.257 26.3624 15.257 27.0561C15.257 27.7498 14.6929 28.3155 13.9991 28.3155ZM27.8703 27.0147L25.7416 19.086C25.3406 17.5902 24.3027 16.3682 22.8934 15.7336L17.8556 13.4672C18.7362 12.2374 19.2826 10.5956 19.2905 8.78839C19.371 8.33903 19.9902 4.53334 18.0148 2.27476C16.9828 1.09423 15.4379 0.55816 13.4251 0.684294C11.6423 0.796632 10.29 1.45292 9.40544 2.63543C7.61478 5.02605 8.40299 8.68196 8.4364 8.83569C8.46196 8.95394 8.54255 9.05248 8.65065 9.10372C8.66441 9.10963 8.67621 9.11357 8.688 9.11752C8.7568 10.8006 9.29144 12.3221 10.1209 13.477L5.10667 15.7336C3.69734 16.3682 2.6595 17.5902 2.25655 19.086L0.129769 27.0147C-0.180796 28.1696 0.0688356 29.3679 0.815764 30.3021C1.56073 31.2362 2.67129 31.7428 3.86441 31.6935C3.87817 31.6935 3.89193 31.6915 3.90569 31.6895L4.33812 31.6245V31.7822C4.33812 32.6375 5.03198 33.3332 5.88505 33.3332H22.115C22.9681 33.3332 23.66 32.6375 23.66 31.7822V31.6462L24.1337 31.6935C24.1887 31.6935 24.2418 31.6974 24.2968 31.6974C25.4271 31.6974 26.4728 31.1949 27.1843 30.3021C27.9293 29.3679 28.1789 28.1696 27.8703 27.0147ZM9.10667 8.15969C8.96712 7.12106 8.81183 4.71466 10.0246 3.09857C10.7676 2.10724 11.9293 1.55541 13.4723 1.45883C15.2315 1.34847 16.5661 1.79388 17.433 2.78324C18.858 4.41115 18.7185 7.11711 18.5927 8.20305C18.2074 7.94684 17.6276 7.29449 17.4113 5.66461C17.3917 5.52862 17.3052 5.41234 17.1814 5.35913C17.1322 5.33745 17.0792 5.32759 17.028 5.32759C16.9475 5.32759 16.8688 5.35321 16.802 5.40051C15.6521 6.23221 12.8118 5.27241 11.8153 4.83094C11.6443 4.75605 11.4438 4.8132 11.3396 4.9689L9.22264 8.09859L9.10667 8.15969ZM9.45459 8.85145L9.66884 8.73911C9.72387 8.70955 9.77301 8.66619 9.80839 8.61298L11.8015 5.66658C12.6919 6.02527 15.1529 6.90032 16.7352 6.30513C17.1165 8.18531 18.0148 8.82189 18.5121 9.03277C18.404 12.2906 16.4148 14.894 13.9853 14.894C11.5558 14.894 9.4939 12.192 9.45459 8.85145ZM17.2109 14.2318C17.2089 16.0056 15.7701 17.4483 13.9991 17.4483C12.2281 17.4483 10.8089 16.0233 10.7892 14.2634C11.6796 15.1424 12.7863 15.6706 13.9853 15.6706C15.1843 15.6706 16.3165 15.1305 17.2109 14.2318ZM22.8875 31.7822C22.8875 32.2098 22.5416 32.5587 22.115 32.5587H5.88505C5.45852 32.5587 5.1106 32.2098 5.1106 31.7822V22.33C5.1106 21.9024 5.45852 21.5535 5.88505 21.5535H22.115C22.5416 21.5535 22.8875 21.9024 22.8875 22.33V31.7822ZM26.5809 29.8172C25.9912 30.5563 25.1126 30.9564 24.1887 30.9209L23.66 30.8697V26.7822H24.7568V26.0056H23.66V22.33C23.66 21.4747 22.9681 20.779 22.115 20.779H5.88505C5.03198 20.779 4.33812 21.4747 4.33812 22.33V26.0056H3.47719V26.7822H4.33812V30.8421L3.81331 30.9189C2.87178 30.9564 2.00495 30.5524 1.4192 29.8172C0.829524 29.0782 0.630998 28.1302 0.876698 27.2157L3.00348 19.287C3.34353 18.0159 4.22608 16.9792 5.42314 16.4412L10.0187 14.3718C10.0934 16.5082 11.8507 18.2228 13.9991 18.2228C16.1475 18.2228 17.9067 16.5082 17.9814 14.3718L22.5769 16.4412C23.774 16.9792 24.6546 18.0159 24.9946 19.287L27.1234 27.2157C27.3691 28.1302 27.1706 29.0782 26.5809 29.8172ZM13.9991 25.0202C12.8806 25.0202 11.9706 25.9347 11.9706 27.0561C11.9706 28.1775 12.8806 29.092 13.9991 29.092C15.1175 29.092 16.0295 28.1775 16.0295 27.0561C16.0295 25.9347 15.1195 25.0202 13.9991 25.0202ZM13.9991 28.3155C13.3072 28.3155 12.743 27.7518 12.743 27.0561C12.743 26.3604 13.3072 25.7967 13.9991 25.7967C14.6909 25.7967 15.257 26.3624 15.257 27.0561C15.257 27.7498 14.6929 28.3155 13.9991 28.3155ZM13.9991 25.0202C12.8806 25.0202 11.9706 25.9347 11.9706 27.0561C11.9706 28.1775 12.8806 29.092 13.9991 29.092C15.1175 29.092 16.0295 28.1775 16.0295 27.0561C16.0295 25.9347 15.1195 25.0202 13.9991 25.0202ZM13.9991 28.3155C13.3072 28.3155 12.743 27.7518 12.743 27.0561C12.743 26.3604 13.3072 25.7967 13.9991 25.7967C14.6909 25.7967 15.257 26.3624 15.257 27.0561C15.257 27.7498 14.6929 28.3155 13.9991 28.3155ZM13.9991 25.0202C12.8806 25.0202 11.9706 25.9347 11.9706 27.0561C11.9706 28.1775 12.8806 29.092 13.9991 29.092C15.1175 29.092 16.0295 28.1775 16.0295 27.0561C16.0295 25.9347 15.1195 25.0202 13.9991 25.0202ZM13.9991 28.3155C13.3072 28.3155 12.743 27.7518 12.743 27.0561C12.743 26.3604 13.3072 25.7967 13.9991 25.7967C14.6909 25.7967 15.257 26.3624 15.257 27.0561C15.257 27.7498 14.6929 28.3155 13.9991 28.3155Z" fill="#6F46BE"/>
</g>
<defs>
<clipPath id="clip0_57_1279">
<rect width="28" height="32.6667" fill="white" transform="translate(0 0.666626)"/>
</clipPath>
</defs>
</svg>
