<svg width="16" height="16" viewBox="0 0 16 16" fill="none" xmlns="http://www.w3.org/2000/svg">
<path d="M6.6 8.8C6.6 9.352 6.152 9.8 5.6 9.8C5.048 9.8 4.6 9.352 4.6 8.8C4.6 8.248 5.048 7.8 5.6 7.8C6.152 7.8 6.6 8.248 6.6 8.8ZM10.4 7.8C9.848 7.8 9.4 8.248 9.4 8.8C9.4 9.352 9.848 9.8 10.4 9.8C10.952 9.8 11.4 9.352 11.4 8.8C11.4 8.248 10.952 7.8 10.4 7.8ZM16 8C16 12.416 12.416 16 8 16C3.584 16 0 12.416 0 8C0 3.584 3.584 0 8 0C12.416 0 16 3.584 16 8ZM6.928 1.696C8.048 3.552 10.08 4.8 12.4 4.8C12.768 4.8 13.128 4.76 13.472 4.704C12.352 2.848 10.32 1.6 8 1.6C7.632 1.6 7.272 1.64 6.928 1.696ZM1.936 5.976C3.304 5.2 4.36 3.936 4.864 2.424C3.496 3.2 2.44 4.464 1.936 5.976ZM14.4 8C14.4 7.376 14.304 6.776 14.136 6.208C13.576 6.328 13 6.4 12.4 6.4C9.896 6.4 7.664 5.248 6.192 3.448C5.352 5.496 3.68 7.104 1.6 7.888C1.608 7.92 1.6 7.96 1.6 8C1.6 11.528 4.472 14.4 8 14.4C11.528 14.4 14.4 11.528 14.4 8Z" fill="#64748B"/>
</svg>
