<svg width="56" height="56" viewBox="0 0 56 56" fill="none" xmlns="http://www.w3.org/2000/svg">
<path d="M32.6666 4.66602H13.9999C12.7622 4.66602 11.5753 5.15768 10.7001 6.03285C9.82492 6.90802 9.33325 8.09501 9.33325 9.33268V46.666C9.33325 47.9037 9.82492 49.0907 10.7001 49.9658C11.5753 50.841 12.7622 51.3327 13.9999 51.3327H41.9999C43.2376 51.3327 44.4246 50.841 45.2997 49.9658C46.1749 49.0907 46.6666 47.9037 46.6666 46.666V18.666L32.6666 4.66602Z" stroke="#6F46BE" stroke-width="4.83333" stroke-linecap="round" stroke-linejoin="round"/>
<path d="M32.6666 4.66602V18.666H46.6666" stroke="#6F46BE" stroke-width="4.83333" stroke-linecap="round" stroke-linejoin="round"/>
<path d="M37.3333 30.333H18.6666" stroke="#6F46BE" stroke-width="4.83333" stroke-linecap="round" stroke-linejoin="round"/>
<path d="M37.3333 39.667H18.6666" stroke="#6F46BE" stroke-width="4.83333" stroke-linecap="round" stroke-linejoin="round"/>
<path d="M23.3333 21H21H18.6666" stroke="#6F46BE" stroke-width="4.83333" stroke-linecap="round" stroke-linejoin="round"/>
</svg>
