<svg width="58" height="52" viewBox="0 0 58 52" fill="none" xmlns="http://www.w3.org/2000/svg">
<path d="M9.7315 25.0459H12.5888C13.173 25.0459 13.6465 25.5194 13.6465 26.1036V38.8352C13.6465 39.3938 13.1937 39.8466 12.6351 39.8466H9.89929C5.76583 39.8466 2.415 36.4958 2.415 32.3624C2.415 28.3216 5.69071 25.0459 9.7315 25.0459Z" stroke="#6F46BE" stroke-width="4.83"/>
<path d="M48.2685 39.8467L45.4112 39.8467C44.827 39.8467 44.3535 39.3731 44.3535 38.789L44.3535 26.0574C44.3535 25.4988 44.8063 25.046 45.3649 25.046L48.1007 25.046C52.2342 25.046 55.585 28.3968 55.585 32.5302C55.585 36.571 52.3093 39.8467 48.2685 39.8467Z" stroke="#6F46BE" stroke-width="4.83"/>
<path d="M51.7538 25.3077C51.7538 22.3782 51.1768 19.4774 50.0557 16.7709C48.9347 14.0644 47.2915 11.6052 45.22 9.53377C43.1486 7.46231 40.6894 5.81914 37.9829 4.69807C35.2764 3.57701 32.3756 3 29.4461 3C26.5166 3 23.6158 3.57701 20.9093 4.69807C18.2028 5.81914 15.7437 7.46231 13.6722 9.53377C11.6007 11.6052 9.95757 14.0644 8.8365 16.7709C7.71543 19.4774 7.13843 22.3782 7.13843 25.3077" stroke="#6F46BE" stroke-width="4.83"/>
<path d="M50.8616 42.2617C50.8026 45.3383 47.6347 50.8964 35.5467 49.0232C35.1184 48.9568 34.8 48.5836 34.8 48.1502V45.658" stroke="#6F46BE" stroke-width="4.83" stroke-linecap="round"/>
</svg>
