<svg width="45" height="36" viewBox="0 0 45 36" fill="none" xmlns="http://www.w3.org/2000/svg">
<g clip-path="url(#clip0_2740_15625)">
<path d="M38.285 0H6.71513C3.39496 0 0.710571 2.68499 0.710571 6.00589V24.2779C0.710571 27.5918 3.39496 30.2838 6.71513 30.2838H14.0689C15.291 30.2838 16.4637 30.7713 17.3255 31.6334L21.1331 35.4418C21.889 36.1978 23.1182 36.1978 23.874 35.4418L27.6816 31.6334C28.5435 30.7713 29.7161 30.2838 30.9382 30.2838H38.292C41.6051 30.2838 44.2966 27.5988 44.2966 24.2779V6.00589C44.2895 2.68499 41.5981 0 38.285 0Z" fill="#F4679D"/>
<path d="M31.0371 12.3367H31.0159C31.0442 12.1389 31.0724 11.9481 31.0724 11.7432C31.0724 9.39739 29.1722 7.4967 26.8269 7.4967C24.8842 7.4967 23.2665 8.80387 22.7579 10.5844C22.2493 8.80387 20.6316 7.4967 18.6889 7.4967C16.3436 7.4967 14.4434 9.39739 14.4434 11.7432C14.4434 11.9481 14.4787 12.1389 14.4999 12.3367H14.4434C14.4434 12.3367 15.0085 16.8659 22.7579 23.3311C22.7579 23.3311 29.9634 17.4877 30.9524 12.7042C30.9665 12.6406 30.9806 12.584 30.9947 12.5205C31.0089 12.4639 31.0301 12.4003 31.0371 12.3367Z" fill="#FEF592"/>
</g>
<defs>
<clipPath id="clip0_2740_15625">
<rect width="43.5789" height="36" fill="white" transform="translate(0.710571)"/>
</clipPath>
</defs>
</svg>
