<svg width="55" height="55" viewBox="0 0 55 55" fill="none" xmlns="http://www.w3.org/2000/svg">
<g clip-path="url(#clip0_479_11290)">
<path d="M38.9583 48.125V43.5417C38.9583 41.1105 37.9925 38.7789 36.2734 37.0599C34.5544 35.3408 32.2228 34.375 29.7916 34.375H11.4583C9.02714 34.375 6.69556 35.3408 4.97648 37.0599C3.2574 38.7789 2.29163 41.1105 2.29163 43.5417V48.125" stroke="#6F46BE" stroke-width="4.75" stroke-linecap="round" stroke-linejoin="round"/>
<path d="M20.625 25.2083C25.6877 25.2083 29.7917 21.1043 29.7917 16.0417C29.7917 10.9791 25.6877 6.875 20.625 6.875C15.5624 6.875 11.4584 10.9791 11.4584 16.0417C11.4584 21.1043 15.5624 25.2083 20.625 25.2083Z" stroke="#6F46BE" stroke-width="4.75" stroke-linecap="round" stroke-linejoin="round"/>
<path d="M52.7083 48.1259V43.5426C52.7067 41.5115 52.0307 39.5385 50.7864 37.9333C49.542 36.3281 47.7998 35.1816 45.8333 34.6738" stroke="#6F46BE" stroke-width="4.75" stroke-linecap="round" stroke-linejoin="round"/>
<path d="M36.6666 7.17383C38.6384 7.67868 40.3861 8.82543 41.6341 10.4333C42.8822 12.0411 43.5596 14.0186 43.5596 16.054C43.5596 18.0894 42.8822 20.0669 41.6341 21.6748C40.3861 23.2826 38.6384 24.4294 36.6666 24.9342" stroke="#6F46BE" stroke-width="4.75" stroke-linecap="round" stroke-linejoin="round"/>
</g>
<defs>
<clipPath id="clip0_479_11290">
<rect width="55" height="55" fill="white"/>
</clipPath>
</defs>
</svg>
