<svg width="55" height="55" viewBox="0 0 55 55" fill="none" xmlns="http://www.w3.org/2000/svg">
<path d="M36.6666 48.125V43.5417C36.6666 41.1105 35.7009 38.7789 33.9818 37.0599C32.2627 35.3408 29.9311 34.375 27.5 34.375H11.4583C9.02714 34.375 6.69556 35.3408 4.97648 37.0599C3.2574 38.7789 2.29163 41.1105 2.29163 43.5417V48.125" stroke="#6F46BE" stroke-width="4.58333" stroke-linecap="round" stroke-linejoin="round"/>
<path d="M19.4792 25.2083C24.5418 25.2083 28.6458 21.1043 28.6458 16.0417C28.6458 10.9791 24.5418 6.875 19.4792 6.875C14.4166 6.875 10.3125 10.9791 10.3125 16.0417C10.3125 21.1043 14.4166 25.2083 19.4792 25.2083Z" stroke="#6F46BE" stroke-width="4.58333" stroke-linecap="round" stroke-linejoin="round"/>
<path d="M38.9584 25.2083L43.5417 29.7917L52.7084 20.625" stroke="#6F46BE" stroke-width="4.58333" stroke-linecap="round" stroke-linejoin="round"/>
</svg>
