<svg width="60" height="60" viewBox="0 0 60 60" fill="none" xmlns="http://www.w3.org/2000/svg">
<path d="M39.5795 9.89551H44.527C45.8391 9.89551 47.0975 10.4168 48.0254 11.3446C48.9532 12.2724 49.4744 13.5308 49.4744 14.843V49.4752C49.4744 50.7873 48.9532 52.0457 48.0254 52.9736C47.0975 53.9014 45.8391 54.4226 44.527 54.4226H14.8422C13.5301 54.4226 12.2717 53.9014 11.3439 52.9736C10.416 52.0457 9.89478 50.7873 9.89478 49.4752V14.843C9.89478 13.5308 10.416 12.2724 11.3439 11.3446C12.2717 10.4168 13.5301 9.89551 14.8422 9.89551H19.7897" stroke="#6F46BE" stroke-width="5.46263" stroke-linecap="round" stroke-linejoin="round"/>
<path d="M37.1059 4.94824H22.2635C20.8973 4.94824 19.7898 6.05577 19.7898 7.42197V12.3694C19.7898 13.7356 20.8973 14.8432 22.2635 14.8432H37.1059C38.4721 14.8432 39.5796 13.7356 39.5796 12.3694V7.42197C39.5796 6.05577 38.4721 4.94824 37.1059 4.94824Z" stroke="#6F46BE" stroke-width="5.46263" stroke-linecap="round" stroke-linejoin="round"/>
</svg>
