<svg width="22" height="22" viewBox="0 0 22 22" fill="none" xmlns="http://www.w3.org/2000/svg">
<path d="M9.9335 17.3999H12.0668V15.2666H9.9335V17.3999ZM11.0002 0.333252C5.11216 0.333252 0.333496 5.11192 0.333496 10.9999C0.333496 16.8879 5.11216 21.6666 11.0002 21.6666C16.8882 21.6666 21.6668 16.8879 21.6668 10.9999C21.6668 5.11192 16.8882 0.333252 11.0002 0.333252ZM11.0002 19.5333C6.29616 19.5333 2.46683 15.7039 2.46683 10.9999C2.46683 6.29592 6.29616 2.46659 11.0002 2.46659C15.7042 2.46659 19.5335 6.29592 19.5335 10.9999C19.5335 15.7039 15.7042 19.5333 11.0002 19.5333ZM11.0002 4.59992C8.64283 4.59992 6.7335 6.50925 6.7335 8.86658H8.86683C8.86683 7.69325 9.82683 6.73325 11.0002 6.73325C12.1735 6.73325 13.1335 7.69325 13.1335 8.86658C13.1335 10.9999 9.9335 10.7333 9.9335 14.1999H12.0668C12.0668 11.7999 15.2668 11.5333 15.2668 8.86658C15.2668 6.50925 13.3575 4.59992 11.0002 4.59992Z" fill="white"/>
</svg>
