<svg width="17" height="16" viewBox="0 0 17 16" fill="none" xmlns="http://www.w3.org/2000/svg">
<path d="M7.40013 12.8H9.00012V11.2H7.40013V12.8ZM8.20012 0C3.78412 0 0.200125 3.584 0.200125 8C0.200125 12.416 3.78412 16 8.20012 16C12.6161 16 16.2001 12.416 16.2001 8C16.2001 3.584 12.6161 0 8.20012 0ZM8.20012 14.4C4.67212 14.4 1.80012 11.528 1.80012 8C1.80012 4.472 4.67212 1.6 8.20012 1.6C11.7281 1.6 14.6001 4.472 14.6001 8C14.6001 11.528 11.7281 14.4 8.20012 14.4ZM8.20012 3.2C6.43212 3.2 5.00012 4.632 5.00012 6.4H6.60012C6.60012 5.52 7.32012 4.8 8.20012 4.8C9.08012 4.8 9.80013 5.52 9.80013 6.4C9.80013 8 7.40013 7.8 7.40013 10.4H9.00012C9.00012 8.6 11.4001 8.4 11.4001 6.4C11.4001 4.632 9.96813 3.2 8.20012 3.2Z" fill="#64748B"/>
</svg>
