<svg width="116" height="118" viewBox="0 0 116 118" fill="none" xmlns="http://www.w3.org/2000/svg">
<path d="M90.7572 11.8634L88.3813 8.84706L90.7572 5.83069L93.1331 8.84706L90.7572 11.8634ZM89.0551 8.84706L90.7572 11.0067L92.4593 8.84706L90.7572 6.68741L89.0551 8.84706Z" fill="#A78ED7"/>
<path d="M80.8223 7.27952L79.1173 8.99591L79.4934 9.37453L81.1984 7.65813L80.8223 7.27952Z" fill="#6F46BE"/>
<path d="M83.3222 4.76288L81.6172 6.47928L81.9933 6.8579L83.6984 5.14149L83.3222 4.76288Z" fill="#6F46BE"/>
<path d="M79.4923 4.76237L79.1162 5.14099L80.8213 6.85739L81.1974 6.47877L79.4923 4.76237Z" fill="#6F46BE"/>
<path d="M81.9923 7.27888L81.6162 7.6575L83.3212 9.3739L83.6973 8.99528L81.9923 7.27888Z" fill="#6F46BE"/>
<path d="M59.5823 0.425812H12.613C11.2903 0.425812 10.0853 1.49848 9.92404 2.82302L0.445742 80.0174C0.282667 81.342 1.22489 82.4128 2.54761 82.4128H49.5169C50.8414 82.4128 52.0446 81.342 52.2077 80.0174L61.686 2.82302C61.849 1.49848 60.9068 0.425812 59.5841 0.425812H59.5823Z" fill="white"/>
<path d="M61.5047 0.838932C61.0264 0.297159 60.3433 0 59.5823 0H12.613C11.0837 0 9.68668 1.243 9.50005 2.77228L0.0217541 79.9685C-0.0724672 80.735 0.141335 81.4579 0.625125 82.0033C1.10348 82.5451 1.78659 82.8423 2.54761 82.8423H49.5169C51.0462 82.8423 52.445 81.5993 52.6316 80.0718L62.1099 2.87556C62.2042 2.10911 61.9904 1.38614 61.5066 0.838932H61.5047ZM43.9053 81.987H2.54761C2.03483 81.987 1.58003 81.7913 1.26475 81.4362C0.945845 81.0756 0.806326 80.5918 0.869744 80.0718L10.348 2.87556C10.4857 1.76121 11.5004 0.853427 12.613 0.853427H53.9707C54.4835 0.853427 54.9401 1.04912 55.2535 1.40426C55.5724 1.76484 55.712 2.25044 55.6485 2.77047L46.1702 79.9667C46.0343 81.081 45.016 81.987 43.9035 81.987H43.9053ZM61.2601 2.77047L51.7818 79.9667C51.6459 81.081 50.6276 81.987 49.5151 81.987H46.0126C46.0416 81.9598 46.0688 81.9308 46.096 81.9037C46.1268 81.8729 46.1576 81.8439 46.1865 81.8131C46.221 81.7768 46.2536 81.737 46.2862 81.6989C46.3134 81.6663 46.3424 81.6355 46.3677 81.6011C46.3985 81.5612 46.4293 81.5195 46.4583 81.4779C46.4819 81.4434 46.5073 81.4108 46.5308 81.3764C46.5598 81.3329 46.5852 81.2876 46.6124 81.2423C46.6323 81.2079 46.6558 81.1735 46.674 81.1372C46.6993 81.0901 46.7229 81.0394 46.7446 80.9904C46.7609 80.956 46.7791 80.9216 46.7954 80.8854C46.8189 80.8328 46.837 80.7785 46.857 80.7241C46.8697 80.6915 46.8823 80.6589 46.895 80.6244C46.915 80.5628 46.9313 80.5012 46.9458 80.4378C46.953 80.4088 46.9621 80.3816 46.9693 80.3526C46.9892 80.2602 47.0056 80.1678 47.0182 80.0736L56.4965 2.87737C56.5074 2.78134 56.5147 2.68712 56.5183 2.5929C56.5183 2.56209 56.5165 2.53129 56.5165 2.50049C56.5165 2.43888 56.5165 2.37546 56.511 2.31386C56.5092 2.27943 56.502 2.245 56.4983 2.21058C56.4911 2.15441 56.4857 2.09824 56.4766 2.04388C56.4693 2.00764 56.4585 1.9714 56.4512 1.93516C56.4404 1.88443 56.4295 1.83188 56.415 1.78114C56.4041 1.74309 56.3896 1.70867 56.3769 1.67243C56.3606 1.62532 56.3461 1.57639 56.3262 1.52928C56.3099 1.49123 56.2918 1.45681 56.2737 1.42057C56.2537 1.37708 56.2338 1.33178 56.2102 1.29011C56.1903 1.25206 56.1649 1.21763 56.1432 1.18139C56.1196 1.14153 56.0961 1.10166 56.0689 1.06361C56.0417 1.02556 56.0127 0.991136 55.9837 0.954897C55.9584 0.922282 55.9348 0.889666 55.9076 0.858863H59.5823C60.0951 0.858863 60.5517 1.05455 60.8651 1.4097C61.184 1.77027 61.3236 2.25588 61.2601 2.7759V2.77047Z" fill="#6F46BE"/>
<path d="M58.2523 9.40222C57.4659 9.40222 56.7756 10.0165 56.6777 10.801L55.77 18.1938C55.721 18.5924 55.8334 18.9693 56.087 19.2556C56.3389 19.5401 56.6959 19.6977 57.0927 19.6977C57.8791 19.6977 58.5712 19.0835 58.6673 18.2989L59.575 10.9061C59.624 10.5075 59.5116 10.1306 59.258 9.84434C59.0061 9.55986 58.6491 9.40222 58.2523 9.40222ZM58.7271 10.801L57.8193 18.1938C57.7758 18.5453 57.4442 18.8425 57.0927 18.8425C56.9441 18.8425 56.8154 18.7881 56.7267 18.6885C56.6379 18.587 56.598 18.4493 56.6179 18.2971L57.5257 10.9043C57.5692 10.5528 57.9008 10.2556 58.2523 10.2556C58.4009 10.2556 58.5295 10.31 58.6183 10.4097C58.7071 10.5111 58.747 10.6488 58.7271 10.801Z" fill="#6F46BE"/>
<path d="M56.7538 21.6183C55.9674 21.6183 55.2753 22.2326 55.1792 23.0172L52.7603 42.713C52.7114 43.1117 52.8237 43.4886 53.0774 43.7748C53.3292 44.0593 53.6862 44.217 54.083 44.217C54.8694 44.217 55.5616 43.6027 55.6576 42.8181L58.0765 23.1223C58.1255 22.7236 58.0131 22.3468 57.7594 22.0605C57.5076 21.776 57.1506 21.6183 56.7538 21.6183ZM57.2285 23.0172L54.8096 42.713C54.7661 43.0646 54.4345 43.3617 54.083 43.3617C53.9344 43.3617 53.8058 43.3074 53.717 43.2077C53.6282 43.1062 53.5883 42.9685 53.6083 42.8163L56.0272 23.1205C56.0707 22.7689 56.4023 22.4718 56.7538 22.4718C56.9024 22.4718 57.031 22.5261 57.1198 22.6258C57.2086 22.7273 57.2485 22.865 57.2285 23.0172Z" fill="#6F46BE"/>
<path d="M41.8016 76.6979H6.59185C5.36879 76.6979 4.49906 75.7068 4.64945 74.4837L13.0478 6.0809C13.1982 4.85783 14.3108 3.8667 15.5338 3.8667H50.7436C51.9667 3.8667 52.8364 4.85783 52.686 6.0809L44.2876 74.4837C44.1372 75.7068 43.0247 76.6979 41.8016 76.6979Z" fill="#A78ED7"/>
<path d="M37.3732 5.90332H22.3721C21.5495 5.90332 20.8809 6.57012 20.8809 7.39455C20.8809 8.21899 21.5477 8.88579 22.3721 8.88579H37.3732C38.1958 8.88579 38.8645 8.21899 38.8645 7.39455C38.8645 6.57012 38.1977 5.90332 37.3732 5.90332Z" fill="#6F46BE"/>
<path d="M35.3058 49.5622H16.6808C15.3019 49.5622 14.3198 48.4442 14.4901 47.0635L16.7768 28.4385C16.9453 27.0596 18.201 25.9398 19.5817 25.9398H38.2067C39.5856 25.9398 40.5677 27.0578 40.3974 28.4385L38.1107 47.0635C37.9422 48.4424 36.6865 49.5622 35.3058 49.5622Z" fill="white"/>
<path d="M36.089 73.4528C36.0358 73.2922 34.7237 66.01 34.5642 64.368C34.5642 64.368 36.0358 62.6188 44.1918 60.3164L46.2662 72.0785L36.089 73.4528Z" fill="#6F46BE"/>
<path d="M116 100.993C115.982 100.993 115.965 100.993 115.947 100.993C109.28 104.455 103.926 106.222 100.344 107.151L97.5781 81.9486L98.2696 81.6988L108.855 77.9149L113.34 76.3086C113.34 76.3086 113.606 78.7895 113.961 82.1807C114.688 89.0166 115.823 99.5828 115.982 100.993C116 100.975 116 100.993 116 100.993Z" fill="white"/>
<path d="M99.4398 83.0017C99.4398 83.0017 102.543 109.007 102.986 111.952C91.5852 118.591 67.0108 119.27 59.4576 114.718C59.5286 114.468 60.0782 83.2872 60.0782 83.2872L48.3407 77.0046C48.1456 75.1127 47.8442 72.8816 47.5073 71.2931C47.5605 71.1325 47.6137 70.9897 47.6669 70.8291C50.4506 62.601 58.4825 47.1086 79.7058 45.3238C97.188 43.8424 113.376 59.2098 114.688 77.7542L99.4398 83.0017Z" fill="#6F46BE"/>
<path d="M88.2165 33.6331C87.8619 35.5607 85.3619 35.5786 85.3619 35.5786C84.6526 39.5766 84.6704 46.716 84.6704 46.716C83.9257 50.1607 75.3619 49.6609 74.1562 46.716C74.1208 46.6446 74.1208 46.002 74.1208 45.3238C74.1208 44.5206 74.1562 43.646 74.1562 43.646C74.1562 43.646 67.7378 43.182 67.3123 39.0947C67.064 36.7744 67.6669 28.7784 68.0038 25.1016C70.9116 25.7263 74.369 24.3163 74.369 24.3163C73.252 26.8151 79.0676 28.8855 81.6207 25.2622C81.6207 25.2622 78.3051 31.7412 82.9151 34.0079C83.6775 31.17 85.3973 30.4561 86.6916 30.9023C87.72 31.2593 88.4647 32.3302 88.2165 33.6331Z" fill="white"/>
<path d="M86.7094 30.9023C85.4328 30.4561 83.7129 31.1522 82.9328 34.0079C78.3229 31.7412 81.6384 25.2623 81.6384 25.2623C79.103 28.9033 73.2697 26.8329 74.3867 24.3163C74.3867 24.3163 70.9293 25.7085 68.0215 25.1016C66.4967 24.7803 65.1137 23.9058 64.4577 21.996C62.6492 16.7843 67.8087 15.6955 69.5995 18.4263C70.0959 19.176 71.1243 20.4789 71.1243 20.4789C71.1243 20.4789 70.7342 18.4799 72.5073 18.7119C73.9434 18.8904 72.9328 20.6038 76.5675 21.2285C77.7909 21.4427 80.4682 20.6395 83.2165 21.1393C84.2803 21.3356 84.9718 22.7635 84.7235 23.9415C88.2519 23.9593 86.9221 29.9921 86.7094 30.9023Z" fill="#6F46BE"/>
<path d="M60.096 83.2872C60.096 83.2872 59.8832 84.965 59.5818 87.2496C59.1563 90.5694 58.5534 95.1564 58.1988 97.673C57.4541 103.01 49.9364 108.9 44.9719 104.42C41.2485 101.064 39.1563 95.6204 37.0996 85.0185C38.6244 84.8579 41.0535 84.4652 43.1102 83.5907C46.3194 82.2342 48.5535 81.0383 48.6421 80.6814C48.6776 80.5386 48.5712 78.9501 48.3584 77.0046L60.096 83.2872Z" fill="white"/>
<path d="M48.3584 77.0046C48.1634 75.1127 47.8619 72.8817 47.5251 71.2931C47.2768 70.1152 47.1527 69.2227 46.6917 69.2227C45.7875 69.2227 40.4506 71.2753 40.1315 71.4002C40.1137 71.4002 40.1137 71.4002 40.1137 71.4002C40.3088 71.0968 44.5463 67.4201 45.9825 66.0279C47.4364 64.6357 46.674 62.0834 46.674 62.0834C37.7556 66.6169 34.9542 72.489 34.9542 72.489C35.096 73.4528 35.2379 74.3809 35.3797 75.2733C35.9648 78.9322 36.5145 82.1449 37.0641 85.0007C38.5889 84.84 41.018 84.4474 43.0747 83.5728C46.2839 82.2163 48.518 81.0205 48.6066 80.6635C48.6775 80.5564 48.5712 78.9501 48.3584 77.0046Z" fill="white"/>
<path d="M42.0996 74.8985L41.9754 74.5594C42.1705 74.488 46.5854 72.7924 47.8088 72.6496L47.8442 73.0066C46.6563 73.1315 42.135 74.8807 42.0996 74.8985Z" fill="#6F46BE"/>
<path d="M41.3549 84.376L41.2485 84.0368C43.1102 83.3943 48.0748 81.0383 48.4648 80.61C48.4826 80.3779 48.3762 78.9144 48.1811 77.0046L48.1634 76.7904C46.5854 76.844 42.9684 78.5396 42.9329 78.5574L42.7911 78.2361C42.9507 78.1647 46.7627 76.3978 48.3407 76.4513H48.5003L48.5535 76.9689C48.7308 78.6109 48.8726 80.5029 48.8194 80.717C48.6776 81.2525 42.7556 83.8941 41.3549 84.376Z" fill="#6F46BE"/>
<path d="M52.0463 92.0507C51.0002 90.8371 47.2237 82.1092 47.0641 81.7344L47.3832 81.5916C47.4187 81.6809 51.3017 90.6407 52.3123 91.8187L52.0463 92.0507Z" fill="#6F46BE"/>
<path d="M106.952 38.0196H106.42V40.447H106.952V38.0196Z" fill="#6F46BE"/>
<path d="M106.952 34.4677H106.42V36.8951H106.952V34.4677Z" fill="#6F46BE"/>
<path d="M106.137 37.1985H103.725V37.734H106.137V37.1985Z" fill="#6F46BE"/>
<path d="M109.665 37.1985H107.254V37.734H109.665V37.1985Z" fill="#6F46BE"/>
<path d="M27.6505 106.079L26.3917 101.368L31.0725 102.635L27.6505 106.079ZM27.1541 102.135L27.9342 105.044L30.0619 102.902L27.1541 102.135Z" fill="#A78ED7"/>
<path d="M40.0673 71.2428L37.6753 72.1916L37.8053 72.5237L40.1973 71.5749L40.0673 71.2428Z" fill="#6F46BE"/>
<path d="M76.9167 34.1518C78.8164 34.1385 80.3518 33.4565 80.3461 32.6285C80.3404 31.8005 78.7957 31.14 76.896 31.1533C74.9963 31.1665 73.461 31.8485 73.4667 32.6766C73.4724 33.5046 75.017 34.1651 76.9167 34.1518Z" fill="white"/>
<path d="M73.3051 32.6693C73.3051 31.7412 74.8654 31.0094 76.8867 30.9916C77.8264 30.9916 78.7129 31.1344 79.3867 31.4199C80.0959 31.7234 80.486 32.1517 80.486 32.6158C80.486 33.0798 80.0959 33.5082 79.4044 33.8116C78.7306 34.115 77.8619 34.2757 76.9221 34.2757C76.1243 34.2935 75.3441 34.1686 74.5817 33.9009C73.8016 33.6331 73.3051 33.1869 73.3051 32.6693ZM79.1207 31.6341C78.4115 31.3842 77.6491 31.2593 76.8867 31.2772C75.0959 31.295 73.5888 31.9197 73.6066 32.6515C73.6243 33.3833 75.1314 33.9901 76.9044 33.9901C77.8087 33.9901 78.642 33.8295 79.2803 33.5439C79.8654 33.294 80.2023 32.937 80.2023 32.6158C80.2023 32.2767 79.8654 31.9554 79.2803 31.6877C79.2271 31.6877 79.1739 31.6698 79.1207 31.6341Z" fill="#6F46BE"/>
<path d="M77.1045 33.2574C77.1852 32.7512 76.5295 32.2244 75.64 32.0807C74.7504 31.9369 73.9639 32.2307 73.8832 32.7368C73.8025 33.243 74.4582 33.7698 75.3477 33.9135C76.2372 34.0573 77.0238 33.7635 77.1045 33.2574Z" fill="#6F46BE"/>
<path d="M74.7413 33.9009C74.0675 33.651 73.6597 33.1869 73.7307 32.7229C73.8193 32.1339 74.6704 31.7948 75.6633 31.9554C76.6562 32.116 77.3477 32.705 77.2413 33.294C77.1526 33.883 76.3016 34.2221 75.3087 34.0615C75.1136 34.0258 74.9186 33.9722 74.7413 33.9009ZM76.9576 33.2405C77.0285 32.83 76.408 32.3659 75.6101 32.241C74.8122 32.116 74.0853 32.3481 74.0144 32.7586C73.9434 33.1691 74.564 33.6331 75.3619 33.7581C76.1597 33.883 76.8867 33.651 76.9576 33.2405Z" fill="#6F46BE"/>
<path d="M68.7781 33.6699C70.6778 33.6567 72.2132 32.9747 72.2075 32.1466C72.2018 31.3186 70.6571 30.6581 68.7574 30.6714C66.8577 30.6847 65.3224 31.3667 65.3281 32.1947C65.3338 33.0227 66.8784 33.6832 68.7781 33.6699Z" fill="white"/>
<path d="M65.1846 32.2053C65.1846 31.2772 66.7449 30.5454 68.7661 30.5275C69.7058 30.5275 70.5924 30.6703 71.2661 30.9559C71.9753 31.2593 72.3654 31.6877 72.3654 32.1517C72.3654 32.6158 71.9753 33.0441 71.2839 33.3476C70.6101 33.651 69.7413 33.8116 68.8016 33.8116C68.0037 33.8295 67.2236 33.7045 66.4612 33.4368C65.6633 33.1691 65.1846 32.7229 65.1846 32.2053ZM71.0002 31.1701C70.291 30.9202 69.5285 30.7953 68.7661 30.8131C66.9754 30.8309 65.4683 31.4556 65.486 32.1874C65.486 32.9192 67.0108 33.5261 68.7839 33.5261C69.6881 33.5261 70.5214 33.3654 71.1597 33.0798C71.7448 32.83 72.0817 32.473 72.0817 32.1517C72.0817 31.8305 71.7448 31.4913 71.1597 31.2236C71.0888 31.2236 71.0356 31.1879 71.0002 31.1701Z" fill="#6F46BE"/>
<path d="M68.9745 32.8016C69.0552 32.2955 68.3995 31.7686 67.5099 31.6249C66.6204 31.4812 65.8339 31.7749 65.7532 32.2811C65.6725 32.7872 66.3281 33.314 67.2177 33.4577C68.1072 33.6015 68.8937 33.3077 68.9745 32.8016Z" fill="#6F46BE"/>
<path d="M66.603 33.4368C65.9293 33.1869 65.5215 32.7229 65.5924 32.2588C65.681 31.6698 66.5321 31.3307 67.525 31.4913C68.5179 31.652 69.2094 32.241 69.103 32.83C69.0144 33.419 68.1633 33.7581 67.1704 33.5974C66.9931 33.5617 66.7981 33.5082 66.603 33.4368ZM68.8193 32.7764C68.8902 32.3659 68.2697 31.9018 67.4718 31.7769C66.6739 31.652 65.947 31.884 65.8761 32.2945C65.8052 32.705 66.4257 33.1691 67.2236 33.294C68.0215 33.419 68.7484 33.1869 68.8193 32.7764Z" fill="#6F46BE"/>
<path d="M27.3123 30.3811C23.2468 30.3811 19.9472 33.6806 19.9472 37.7462C19.9472 41.8117 23.2468 45.1113 27.3123 45.1113C31.3778 45.1113 34.6774 41.8117 34.6774 37.7462C34.6774 33.6806 31.3778 30.3811 27.3123 30.3811ZM27.3123 43.6383C24.0643 43.6383 21.4202 40.9942 21.4202 37.7462C21.4202 34.4982 24.0643 31.8541 27.3123 31.8541C30.5603 31.8541 33.2044 34.4982 33.2044 37.7462C33.2044 40.9942 30.5603 43.6383 27.3123 43.6383ZM30.6929 34.4908L25.8393 39.3444L23.9317 37.4442L22.8932 38.4827L25.8393 41.4287L31.7314 35.5367L30.6929 34.4908Z" fill="#6F46BE"/>
</svg>
