<svg width="36" height="46" viewBox="0 0 36 46" fill="none" xmlns="http://www.w3.org/2000/svg">
<path d="M14.5727 9.39782L14.5243 5.90598L20.8623 5.8301L20.9107 9.32195L14.5727 9.39782Z" fill="white" stroke="#6F46BE" stroke-width="0.875"/>
<path d="M13.3568 6.27992L13.3568 6.27705L13.3341 4.3882C13.3341 4.35184 13.3471 4.32615 13.3626 4.30979C13.3781 4.29352 13.3993 4.28265 13.4277 4.28256L13.4277 4.28258L13.4314 4.28253L21.904 4.18172C21.9601 4.18219 22.0171 4.23134 22.0176 4.3079L22.0176 4.31076L22.0401 6.18576C22.0379 6.20618 22.0275 6.23321 22.0027 6.25939C21.9784 6.28503 21.9488 6.30047 21.9205 6.30555L13.4703 6.40609C13.4143 6.40561 13.3573 6.35647 13.3568 6.27992Z" fill="white" stroke="#6F46BE" stroke-width="0.875"/>
<path d="M22.9249 18.8L22.7577 18.701C22.244 18.3792 22.0378 17.7081 22.3442 17.1723L26.3842 9.64623C26.6907 9.11038 27.3323 8.89692 27.846 9.21876L28.0132 9.31776C28.5269 9.63961 28.7332 10.3107 28.4267 10.8466L24.3867 18.3726C24.0803 18.9084 23.4266 19.097 22.9249 18.8Z" fill="#6F46BE"/>
<path d="M12.8786 18.918L13.0448 18.8304C13.5429 18.5055 13.7176 17.8208 13.4288 17.2867L9.19592 9.8485C8.88342 9.327 8.22764 9.14243 7.71748 9.44256L7.55132 9.53015C7.05321 9.85512 6.87857 10.5398 7.16733 11.0739L11.4002 18.5121C11.701 19.071 12.3685 19.2182 12.8786 18.918Z" fill="#6F46BE"/>
<path d="M17.7532 9.30666C27.014 9.19579 34.673 17.055 34.8097 26.9138C34.9463 36.7727 27.5077 44.8126 18.2469 44.9234C8.98608 45.0343 1.32708 37.1751 1.19043 27.3163C1.05378 17.4574 8.49241 9.41752 17.7532 9.30666Z" fill="white" stroke="#6F46BE" stroke-width="0.875"/>
<path d="M17.8005 12.2787C25.4882 12.1867 31.8538 18.716 31.9674 26.9161C32.0811 35.1162 25.8986 41.7957 18.2109 41.8877C10.5232 41.9798 4.15762 35.4504 4.04396 27.2504C3.9303 19.0503 10.1128 12.3707 17.8005 12.2787Z" fill="#EDE3FF" stroke="#6F46BE" stroke-width="0.875"/>
<path d="M18.0266 26.0924L17.9313 26.0803C17.61 26.0937 17.3226 25.8085 17.3325 25.4601L17.2256 17.1881C17.2118 16.8523 17.4839 16.5529 17.8173 16.5643L17.9126 16.5764C18.2339 16.563 18.5212 16.8482 18.5113 17.1966L18.6182 25.4686C18.6083 25.8169 18.3479 26.079 18.0266 26.0924Z" fill="#6F46BE"/>
<path d="M19.9368 27.0815C19.9432 28.2011 19.1153 29.1366 18.0439 29.1399C16.9725 29.1432 16.0985 28.2627 16.08 27.1184C16.0736 25.9988 16.9016 25.0633 17.9729 25.06C19.0443 25.0566 19.8946 25.9497 19.9368 27.0815Z" fill="#6F46BE"/>
</svg>
