<svg width="129" height="122" viewBox="0 0 129 122" fill="none" xmlns="http://www.w3.org/2000/svg">
<g clip-path="url(#clip0_90_10424)">
<path d="M48.8011 0.354675H81.9084C90.0668 0.354675 96.6955 6.98678 96.6955 15.1494V106.541C96.6955 114.704 90.0668 121.336 81.9084 121.336H48.8011C40.6427 121.336 34.014 114.704 34.014 106.541V15.1494C34.014 6.98678 40.6427 0.354675 48.8011 0.354675Z" fill="#6F46BE"/>
<path d="M81.9081 121.7H48.8009C40.4239 121.7 33.6495 114.922 33.6495 106.541V15.1493C33.6495 6.76807 40.4239 -0.00979614 48.8009 -0.00979614H81.9081C90.2851 -0.00979614 97.0595 6.76807 97.0595 15.1493V106.541C97.0595 114.922 90.2487 121.7 81.9081 121.7ZM48.8009 0.719007C40.8245 0.719007 34.3779 7.16891 34.3779 15.1493V106.541C34.3779 114.485 40.8245 120.971 48.8009 120.971H81.9081C89.8844 120.971 96.3311 114.522 96.3311 106.541V15.1493C96.2947 7.16891 89.848 0.719007 81.9081 0.719007H48.8009Z" fill="#6F46BE"/>
<path d="M92.8711 11.2867H37.8017V103.699H92.8711V11.2867Z" fill="#EDE3FF"/>
<path d="M37.8017 103.699H43.5927L85.9875 11.2867H72.0744L37.8017 85.9162V103.699Z" fill="white"/>
<path d="M63.916 11.2867H59.254L37.8017 58.0394V68.1698L63.916 11.2867Z" fill="white"/>
<path d="M58.2342 5.38339H72.475C73.0213 5.38339 73.4584 5.82067 73.4584 6.36728C73.4584 6.91388 73.0213 7.35116 72.475 7.35116H58.2342C57.6878 7.35116 57.2508 6.91388 57.2508 6.36728C57.2508 5.82067 57.6878 5.38339 58.2342 5.38339Z" fill="#EDE3FF"/>
<path d="M72.4746 7.67918H58.2337C57.5053 7.67918 56.8861 7.09613 56.8861 6.33089C56.8861 5.56565 57.4689 4.9826 58.2337 4.9826H72.4746C73.203 4.9826 73.8222 5.56565 73.8222 6.33089C73.8222 7.09613 73.203 7.67918 72.4746 7.67918ZM58.2337 5.74785C57.9059 5.74785 57.6145 6.03937 57.6145 6.36733C57.6145 6.69529 57.9059 6.98681 58.2337 6.98681H72.4746C72.8024 6.98681 73.0937 6.69529 73.0937 6.36733C73.0937 6.03937 72.8024 5.74785 72.4746 5.74785H58.2337Z" fill="#6F46BE"/>
<path d="M50.476 31.4017H48.2543C45.7777 31.4017 43.8109 29.3975 43.8109 26.956V24.7332C43.8109 22.2552 45.8141 20.2875 48.2543 20.2875H50.476C52.9163 20.2875 54.9195 22.2917 54.9195 24.7332V26.956C54.9195 29.3975 52.9527 31.3653 50.476 31.4017ZM48.2543 20.9798C46.2147 20.9798 44.5393 22.6561 44.5393 24.6967V26.9196C44.5393 28.9602 46.2147 30.6365 48.2543 30.6365H50.476C52.5157 30.6365 54.191 28.9602 54.191 26.9196V24.6967C54.191 22.6561 52.5157 20.9798 50.476 20.9798H48.2543Z" fill="#6F46BE"/>
<path d="M66.9023 31.4017H64.6806C62.2039 31.4017 60.2371 29.3975 60.2371 26.956V24.7332C60.2371 22.2552 62.2403 20.2875 64.6806 20.2875H66.9023C69.3425 20.2875 71.3457 22.2917 71.3457 24.7332V26.956C71.3457 29.3975 69.3425 31.3653 66.9023 31.4017ZM64.6441 20.9798C62.5681 20.9798 60.9291 22.6561 60.9291 24.6967V26.9196C60.9291 28.9967 62.6045 30.6365 64.6441 30.6365H66.8659C68.9055 30.6365 70.5809 28.9602 70.5809 26.9196V24.6967C70.5809 22.6561 68.9055 20.9798 66.8659 20.9798H64.6441Z" fill="#6F46BE"/>
<path d="M83.2916 31.4017H81.0698C78.6296 31.4017 76.6264 29.3975 76.6264 26.956V24.7332C76.6264 22.2917 78.6296 20.2875 81.0698 20.2875H83.2916C85.7682 20.2875 87.735 22.2917 87.735 24.7332V26.956C87.735 29.3975 85.7318 31.4017 83.2916 31.4017ZM81.0698 20.9798C79.0302 20.9798 77.3548 22.6561 77.3548 24.6967V26.9196C77.3548 28.9602 79.0302 30.6365 81.0698 30.6365H83.2916C85.3676 30.6365 87.0066 28.9602 87.0066 26.9196V24.6967C87.0066 22.6196 85.3312 20.9798 83.2916 20.9798H81.0698Z" fill="#6F46BE"/>
<path d="M50.476 46.8888H48.2543C45.7777 46.8888 43.8109 44.8845 43.8109 42.4431V40.2202C43.8109 37.7423 45.8141 35.7745 48.2543 35.7745H50.476C52.9527 35.7745 54.9195 37.7787 54.9195 40.2202V42.4431C54.9559 44.8845 52.9527 46.8888 50.476 46.8888ZM48.2543 36.4669C46.2147 36.4669 44.5393 38.1431 44.5393 40.1838V42.4066C44.5393 44.4473 46.2147 46.1235 48.2543 46.1235H50.476C52.5157 46.1235 54.191 44.4473 54.191 42.4066V40.1838C54.191 38.1431 52.5157 36.4669 50.476 36.4669H48.2543Z" fill="#6F46BE"/>
<path d="M66.9023 46.8888H64.6806C62.2039 46.8888 60.2371 44.8845 60.2371 42.4431V40.2202C60.2371 37.7423 62.2403 35.7745 64.6806 35.7745H66.9023C69.379 35.7745 71.3457 37.7787 71.3457 40.2202V42.4431C71.3457 44.8845 69.3425 46.8888 66.9023 46.8888ZM64.6441 36.4669C62.5681 36.4669 60.9291 38.1431 60.9291 40.1838V42.4066C60.9291 44.4837 62.6045 46.1235 64.6441 46.1235H66.8659C68.9055 46.1235 70.5809 44.4473 70.5809 42.4066V40.1838C70.5809 38.1431 68.9055 36.4669 66.8659 36.4669H64.6441Z" fill="#6F46BE"/>
<path d="M83.2916 46.8888H81.0698C78.5932 46.8888 76.6264 44.8845 76.6264 42.4431V40.2202C76.6264 37.7423 78.6296 35.7745 81.0698 35.7745H83.2916C85.7682 35.7745 87.735 37.7787 87.735 40.2202V42.4431C87.735 44.8845 85.7318 46.8888 83.2916 46.8888ZM81.0698 36.4669C79.0302 36.4669 77.3548 38.1431 77.3548 40.1838V42.4066C77.3548 44.4473 79.0302 46.1235 81.0698 46.1235H83.2916C85.3676 46.1235 87.0066 44.4473 87.0066 42.4066V40.1838C87.0066 38.1067 85.3312 36.4669 83.2916 36.4669H81.0698Z" fill="#6F46BE"/>
<path d="M50.476 62.3758H48.2543C45.8141 62.3758 43.8109 60.3716 43.8109 57.9301V55.7073C43.8109 53.2294 45.8141 51.2616 48.2543 51.2616H50.476C52.9527 51.2616 54.9195 53.2658 54.9195 55.7073V57.9301C54.9195 60.3716 52.9527 62.3758 50.476 62.3758ZM48.2543 51.954C46.1783 51.954 44.5393 53.6302 44.5393 55.6709V57.8937C44.5393 59.9344 46.2147 61.6106 48.2543 61.6106H50.476C52.5157 61.6106 54.191 59.9344 54.191 57.8937V55.6709C54.191 53.5938 52.5157 51.954 50.476 51.954H48.2543Z" fill="#6F46BE"/>
<path d="M66.9023 62.3758H64.6806C62.2403 62.3758 60.2371 60.3716 60.2371 57.9301V55.7073C60.2371 53.2294 62.2403 51.2616 64.6806 51.2616H66.9023C69.379 51.2616 71.3457 53.2658 71.3457 55.7073V57.9301C71.3457 60.3716 69.3425 62.3758 66.9023 62.3758ZM64.6441 51.954C62.5681 51.954 60.9291 53.6302 60.9291 55.6709V57.8937C60.9291 59.9708 62.6045 61.6106 64.6441 61.6106H66.8659C68.9055 61.6106 70.5809 59.9344 70.5809 57.8937V55.6709C70.5809 53.5938 68.9055 51.954 66.8659 51.954H64.6441Z" fill="#6F46BE"/>
<path d="M83.2916 62.3758H81.0698C78.6296 62.3758 76.6264 60.3716 76.6264 57.9301V55.7073C76.6264 53.2294 78.6296 51.2616 81.0698 51.2616H83.2916C85.7682 51.2616 87.735 53.2658 87.735 55.7073V57.9301C87.735 60.3716 85.7318 62.3758 83.2916 62.3758ZM81.0698 51.954C78.9938 51.954 77.3548 53.6302 77.3548 55.6709V57.8937C77.3548 59.9344 79.0302 61.6106 81.0698 61.6106H83.2916C85.3676 61.6106 87.0066 59.9344 87.0066 57.8937V55.6709C87.0066 53.5938 85.3312 51.954 83.2916 51.954H81.0698Z" fill="#6F46BE"/>
<path d="M50.476 77.3163H48.2543C45.7777 77.3163 43.8109 75.3121 43.8109 72.8706V70.6477C43.8109 68.1698 45.8141 66.202 48.2543 66.202H50.476C52.9163 66.202 54.9195 68.2062 54.9195 70.6477V72.8706C54.9559 75.3485 52.9527 77.3163 50.476 77.3163ZM48.2543 66.9308C46.2147 66.9308 44.5393 68.6071 44.5393 70.6477V72.8706C44.5393 74.9477 46.2147 76.5875 48.2543 76.5875H50.476C52.5521 76.5875 54.191 74.9112 54.191 72.8706V70.6477C54.191 68.6071 52.5157 66.9308 50.476 66.9308H48.2543Z" fill="#6F46BE"/>
<path d="M66.9023 77.3163H64.6806C62.2039 77.3163 60.2371 75.3121 60.2371 72.8706V70.6477C60.2371 68.1698 62.2403 66.202 64.6806 66.202H66.9023C69.3425 66.202 71.3457 68.2062 71.3457 70.6477V72.8706C71.3457 75.3485 69.3425 77.3163 66.9023 77.3163ZM64.6441 66.9308C62.5681 66.9308 60.9291 68.6071 60.9291 70.6477V72.8706C60.9291 74.9477 62.6045 76.5875 64.6441 76.5875H66.8659C68.9419 76.5875 70.5809 74.9112 70.5809 72.8706V70.6477C70.5809 68.6071 68.9055 66.9308 66.8659 66.9308H64.6441Z" fill="#6F46BE"/>
<path d="M83.2916 77.3163H81.0698C78.5932 77.3163 76.6264 75.3121 76.6264 72.8706V70.6477C76.6264 68.2062 78.6296 66.202 81.0698 66.202H83.2916C85.7682 66.202 87.735 68.2062 87.735 70.6477V72.8706C87.735 75.3485 85.7318 77.3163 83.2916 77.3163ZM81.0698 66.9308C79.0302 66.9308 77.3548 68.6071 77.3548 70.6477V72.8706C77.3548 74.9477 79.0302 76.5875 81.0698 76.5875H83.2916C85.3676 76.5875 87.0066 74.9112 87.0066 72.8706V70.6477C87.0066 68.5706 85.3312 66.9308 83.2916 66.9308H81.0698Z" fill="#6F46BE"/>
<path d="M65.3361 116.016C63.0415 116.016 61.2204 114.157 61.2204 111.861C61.2204 109.566 63.0779 107.744 65.3725 107.744C67.6671 107.744 69.4881 109.602 69.4881 111.898C69.4881 114.194 67.6306 116.016 65.3361 116.016ZM65.3361 108.472C63.4421 108.472 61.9124 110.003 61.9124 111.898C61.9124 113.793 63.4421 115.323 65.3361 115.323C67.23 115.323 68.7597 113.793 68.7597 111.898C68.7597 110.003 67.23 108.472 65.3361 108.472Z" fill="#EDE3FF"/>
<path d="M92.8709 104.063H37.8014C37.5829 104.063 37.4372 103.918 37.4372 103.699V11.2867C37.4372 11.0681 37.5829 10.9223 37.8014 10.9223H92.8709C93.0894 10.9223 93.2351 11.0681 93.2351 11.2867V103.699C93.2351 103.881 93.0894 104.063 92.8709 104.063ZM38.1656 103.335H92.5067V11.6511H38.1656V103.335Z" fill="#6F46BE"/>
<path d="M92.6615 103.369L92.6615 8.08759L38.0724 8.08759L38.0724 103.369L92.6615 103.369Z" fill="#EDE3FF"/>
<path d="M64.9529 66.4833C70.5084 66.4833 74.9918 63.6383 74.9918 60.1105C74.9918 56.5827 70.4921 53.7378 64.9529 53.7378C59.3974 53.7378 54.914 56.5827 54.914 60.1105C54.914 63.6383 59.3974 66.4833 64.9529 66.4833Z" fill="#6F46BE"/>
<path d="M64.9529 66.6458C59.3162 66.6458 54.7516 63.7196 54.7516 60.1105C54.7516 56.5015 59.3324 53.5752 64.9529 53.5752C70.5734 53.5752 75.1705 56.5015 75.1705 60.1105C75.1705 63.7196 70.5734 66.6458 64.9529 66.6458ZM64.9529 53.9166C59.4949 53.9166 55.0765 56.6965 55.0765 60.1268C55.0765 63.557 59.5111 66.337 64.9529 66.337C70.3947 66.337 74.8456 63.557 74.8456 60.1268C74.8456 56.6965 70.3947 53.9166 64.9529 53.9166Z" fill="#6F46BE"/>
<path d="M65.8465 116.929C88.1172 116.929 106.165 113.677 106.165 109.662C106.165 105.646 88.1172 102.395 65.8465 102.395C43.5757 102.395 25.5446 105.646 25.5446 109.662C25.5446 113.677 43.5919 116.929 65.8465 116.929Z" fill="#6F46BE"/>
<path d="M65.846 117.091C55.0599 117.091 44.9397 116.327 37.3049 114.962C32.854 114.165 25.3817 112.409 25.3817 109.662C25.3817 106.915 32.8703 105.175 37.3212 104.362C44.9397 102.98 55.0761 102.232 65.8622 102.232C76.6484 102.232 86.7685 102.997 94.4033 104.362C98.8704 105.175 106.343 106.931 106.343 109.662C106.343 112.393 98.8542 114.149 94.4033 114.962C86.7685 116.344 76.6321 117.091 65.846 117.091ZM65.846 102.558C55.0923 102.558 44.9722 103.305 37.3699 104.687C29.9626 106.02 25.7066 107.841 25.7066 109.662C25.7066 111.483 29.9626 113.304 37.3862 114.637C44.9885 116.002 55.1086 116.766 65.8622 116.766C76.6159 116.766 86.736 116.018 94.3383 114.637C101.762 113.304 106.018 111.483 106.018 109.662C106.018 107.841 101.762 106.02 94.3383 104.687C86.7198 103.322 76.6159 102.558 65.846 102.558Z" fill="#6F46BE"/>
<path d="M121.597 62.8417C119.485 50.6002 115.83 61.3461 115.83 61.3461C114.806 70.1736 101.925 83.667 86.0217 72.092C74.0498 63.3782 64.352 66.3045 64.352 66.3045C64.352 66.3045 55.1253 65.0689 43.1533 72.6447C34.9662 77.847 24.2126 83.3581 21.1586 60.4682C20.1515 54.8758 16.2529 63.3457 16.2529 63.3457C16.2529 63.3457 12.9553 105.191 45.2325 93.8764C43.0558 100.639 41.9187 109.629 41.3827 115.433C48.1727 116.376 56.6522 116.929 65.8464 116.929C75.9178 116.929 85.1121 116.262 92.1783 115.157C91.3498 109.337 89.6604 100.412 86.3791 92.5271C103.972 98.0057 119.176 81.2122 121.597 62.8417Z" fill="white"/>
<path d="M46.7268 89.3406C46.7268 89.3406 50.0244 89.3893 48.8873 94.494C47.7502 99.5988 46.0608 99.0135 45.476 102.753C44.8912 106.492 48.6599 113.515 47.2954 116.067C45.4273 116.018 41.2363 115.336 41.2363 115.336C41.2363 115.336 43.5754 96.7213 45.7847 91.4702C46.337 90.1859 46.7268 89.3406 46.7268 89.3406Z" fill="#EDE3FF"/>
<path d="M70.1023 72.4984C70.1023 72.4984 67.3732 70.7914 66.5448 71.6368C65.7163 72.4984 65.6513 75.197 66.2037 77.7006C66.3986 78.5785 67.1621 81.6999 66.5448 84.8375C65.9275 87.9751 66.4473 98.1845 66.8859 102.655C67.5682 109.646 68.1854 110.637 68.4616 116.913C67.0321 116.978 65.5214 116.913 65.5214 116.913L65.0341 68.3528C65.0341 68.3691 66.5448 69.2145 70.1023 72.4984Z" fill="#EDE3FF"/>
<path d="M65.8466 117.091C56.9123 117.091 48.449 116.571 41.3666 115.596C41.3178 115.596 41.2853 115.563 41.2691 115.531C41.2366 115.498 41.2366 115.449 41.2366 115.417C41.8052 109.337 42.9098 100.753 44.989 94.1364C36.7045 96.9652 30.0444 96.51 25.1711 92.7546C19.6156 88.479 17.4551 80.6269 16.6267 74.7906C16.0744 70.9052 15.9119 66.971 16.1393 63.053C16.1393 63.0368 16.1393 63.0205 16.1556 62.988C16.383 62.5165 18.4785 58.3547 20.0542 58.5823C20.6715 58.6636 21.0938 59.3627 21.3375 60.712C22.5233 69.6209 24.9112 74.8068 28.6474 76.5464C32.9358 78.546 38.3451 75.5222 43.0722 72.5309C54.5893 65.2477 63.7023 66.0931 64.3521 66.1581C64.6607 66.0768 67.0162 65.4591 70.7361 65.7842C74.3423 66.1093 79.9303 67.4587 86.1356 71.9781C94.1277 77.7981 100.723 76.8715 104.849 75.0507C111.184 72.2708 115.164 65.9143 115.7 61.346C115.7 61.3298 115.7 61.3298 115.7 61.3135C115.765 61.1184 117.324 56.7128 119.128 56.8754C120.313 56.9729 121.223 58.94 121.905 62.8742C121.905 62.8905 121.905 62.9067 121.905 62.923C119.712 75.1808 113.507 85.4715 105.32 90.4624C99.6345 93.9251 93.2018 94.7379 86.6879 92.8034C89.8555 100.542 91.5286 109.207 92.3733 115.157C92.3733 115.206 92.3733 115.238 92.3408 115.271C92.3084 115.303 92.2759 115.336 92.2271 115.336C84.901 116.474 75.5281 117.091 65.8466 117.091ZM41.5615 115.303C48.5952 116.262 56.9935 116.766 65.8466 116.766C75.4306 116.766 84.7223 116.148 91.9997 115.027C91.1388 109.028 89.4494 100.314 86.233 92.592C86.2168 92.5595 86.2168 92.527 86.2168 92.4945C86.2168 92.462 86.233 92.4295 86.2493 92.4132C86.2655 92.3969 86.298 92.3807 86.3305 92.3644C86.363 92.3482 86.3955 92.3482 86.4117 92.3644C92.9419 94.3966 99.4071 93.6325 105.109 90.1535C113.215 85.2113 119.355 75.0182 121.532 62.8742C120.736 58.2572 119.745 57.233 119.063 57.168C117.779 57.0542 116.415 60.1593 115.976 61.3786C115.684 63.8821 114.482 66.6458 112.614 69.1494C110.551 71.8968 107.903 74.0265 104.946 75.3271C100.755 77.1804 94.0465 78.1395 85.9244 72.222C74.1636 63.6545 64.4821 66.4182 64.3846 66.4507C64.3683 66.4507 64.3359 66.4507 64.3196 66.4507C64.2221 66.4345 54.9954 65.3128 43.2184 72.7747C39.4985 75.132 35.3887 77.4893 31.6525 77.4893C30.5642 77.5055 29.4758 77.2779 28.4849 76.8065C24.6513 75.0182 22.1984 69.7509 20.9963 60.7283C20.7852 59.5903 20.444 58.94 19.9892 58.875C18.8521 58.7124 17.0653 61.8338 16.448 63.0855C16.2368 66.971 16.3992 70.8727 16.9353 74.7256C17.7638 80.4968 19.8917 88.2677 25.3498 92.4782C30.1906 96.2011 36.8507 96.6238 45.1677 93.6975C45.2002 93.6812 45.2327 93.6812 45.2489 93.6975C45.2814 93.6975 45.2977 93.7138 45.3302 93.7463C45.3464 93.7625 45.3626 93.795 45.3789 93.8276C45.3789 93.8601 45.3789 93.8926 45.3789 93.9088C43.2671 100.493 42.1463 109.142 41.5615 115.303Z" fill="#6F46BE"/>
<path d="M45.3625 94.0551C46.1422 91.7791 46.9544 90.7387 47.5392 89.5357C46.1422 89.0317 44.8426 88.7066 43.1695 90.7062C41.4963 92.7058 40.278 93.3723 35.9408 92.9334C33.1143 92.6408 32.2696 94.3315 32.026 95.5345C35.5672 96.1523 39.9044 95.7296 45.2325 93.8763C45.2163 93.9251 45.3787 94.0064 45.3625 94.0551Z" fill="#6F46BE"/>
<path d="M99.6183 78.1721C101.616 79.5051 106.067 79.6189 107.968 76.9528C109.868 74.2866 111.412 73.3925 114.644 71.4904C117.113 70.0436 116.707 66.2232 115.375 64.0772C113.377 70.0761 106.912 76.839 98.2701 76.7577C98.6274 77.2942 99.0823 77.7819 99.6183 78.1721Z" fill="#EDE3FF"/>
<path d="M118.819 68.4016C118.64 70.7263 118.672 74.1565 116.674 75.5547C114.676 76.9528 111.574 77.9444 110.843 81.5697C110.55 82.8866 110.615 84.2684 111.021 85.5527C116.285 79.944 119.663 72.856 121.158 65.5078C120.427 65.5241 118.949 66.7433 118.819 68.4016Z" fill="#6F46BE"/>
<path d="M32.9844 79.0987C36.6556 79.6514 38.215 76.0911 40.7816 75.7497C43.3482 75.4083 48.9037 72.9698 51.4703 70.8564C52.5262 69.9622 53.4358 68.9218 54.1831 67.7675C50.983 68.6942 47.1981 70.2548 43.0883 72.856C38.6861 75.6359 33.6666 78.5784 29.4919 77.1153C30.1254 77.9607 31.1975 78.8385 32.9844 79.0987Z" fill="#EDE3FF"/>
<path d="M90.2292 90.625C88.3124 88.4466 83.6665 86.8534 83.163 89.1456C84.365 90.9339 85.6646 92.6571 87.0616 94.2991H87.094C86.8666 93.7138 86.6392 93.1286 86.3956 92.5433C90.6353 93.8602 95.1674 93.9252 99.4559 92.7059C99.001 92.4621 98.5137 92.267 98.0102 92.1369C94.81 91.2103 92.146 92.7872 90.2292 90.625Z" fill="#6F46BE"/>
<path d="M65.5215 117.01C65.4727 117.01 65.4402 116.994 65.4078 116.961C65.3753 116.929 65.359 116.896 65.359 116.847L64.8717 68.1902C64.8717 68.1414 64.8879 68.1089 64.9204 68.0764C64.9529 68.0439 64.9854 68.0276 65.0341 68.0276C65.0829 68.0276 65.1154 68.0439 65.1479 68.0764C65.1803 68.1089 65.1966 68.1414 65.1966 68.1902L65.6677 116.831C65.6677 116.88 65.6514 116.913 65.6189 116.945C65.6027 116.994 65.554 117.01 65.5215 117.01Z" fill="#6F46BE"/>
<path d="M121.466 54.957C122.279 55.526 122.279 55.2496 122.798 56.4527C122.798 56.4527 122.181 59.8666 121.824 62.7279C119.891 63.8171 117.698 63.492 115.765 62.4027C115.862 61.3298 114.368 58.5498 111.639 56.6315C109.982 55.461 111.265 54.0304 113.166 55.461C114.27 56.2901 114.595 56.7615 114.595 56.7615C115.18 56.5177 115.602 57.1842 116.073 57.2167C117.194 55.7536 118.088 53.3313 116.138 49.641C115.765 48.8444 115.635 47.3325 117.551 49.2183C118.575 50.5676 119.192 52.1445 119.452 53.9166C120.004 52.3234 120.037 50.5676 119.777 48.7306C119.647 47.5438 120.508 46.4708 121.206 48.4867C121.71 50.779 121.872 52.9574 121.466 54.957Z" fill="#EDE3FF"/>
<path d="M117.243 60.4357C117.243 60.4357 117.844 56.6478 114.839 56.8591C114.01 57.103 113.978 57.672 115.05 57.5257C116.122 57.3794 117.048 58.7937 117.243 60.4357Z" fill="white"/>
<path d="M120.411 54.6481C120.411 54.6481 118.38 54.4205 118.136 57.1842C118.023 58.8424 118.884 57.9158 118.916 57.2167C118.949 56.5177 118.738 55.8024 120.411 54.6481Z" fill="white"/>
<path d="M121.223 55.3635C121.223 55.3635 119.501 55.4773 119.663 57.9808C119.728 58.8587 120.264 58.4035 120.346 57.8508C120.411 57.298 119.923 56.5015 121.223 55.3635Z" fill="white"/>
<path d="M118.819 58.3872H118.738C118.348 58.3547 117.958 57.9971 118.007 57.3305C118.055 56.664 118.169 54.6481 120.07 54.5018C121.353 54.4043 121.84 55.2009 121.856 55.2496C121.873 55.2821 121.873 55.3309 121.856 55.3634C121.84 55.3959 121.824 55.4284 121.791 55.461C121.759 55.4772 121.71 55.4935 121.678 55.4772C121.645 55.461 121.597 55.4447 121.58 55.4122C121.564 55.3797 121.158 54.7457 120.102 54.8269C118.656 54.9407 118.396 56.3226 118.348 57.3468C118.315 57.802 118.559 58.0296 118.803 58.0621C119.079 58.0946 119.371 57.867 119.469 57.3305C119.469 57.2817 119.501 57.2492 119.534 57.2167C119.566 57.1842 119.615 57.1842 119.663 57.1842C119.712 57.1842 119.745 57.2167 119.777 57.2492C119.81 57.2817 119.81 57.3305 119.81 57.3793C119.647 58.0783 119.209 58.3872 118.819 58.3872Z" fill="#6F46BE"/>
<path d="M116.138 57.1354C116.122 57.1354 116.09 57.1354 116.073 57.1192C116.057 57.1192 116.041 57.1029 116.025 57.0867C116.008 57.0704 115.992 57.0541 115.992 57.0379C115.992 57.0216 115.976 56.9891 115.976 56.9729C115.976 56.9566 115.976 56.9241 115.992 56.9078C116.008 56.8916 116.008 56.8753 116.025 56.8591C116.106 56.7778 118.153 54.6644 116.414 50.9252C115.667 49.3321 115.537 48.4542 115.992 48.2103C116.561 47.9177 117.665 48.9744 118.136 49.8035C118.997 51.2992 119.598 53.3963 119.42 54.2904C119.403 54.3392 119.387 54.3717 119.355 54.4042C119.322 54.4368 119.273 54.4368 119.225 54.4368C119.176 54.4205 119.144 54.4042 119.111 54.3717C119.079 54.3392 119.079 54.2904 119.079 54.2417C119.225 53.5101 118.721 51.5267 117.828 49.9661C117.292 49.0394 116.366 48.3729 116.106 48.5029C116.09 48.5029 115.716 48.7305 116.674 50.7952C118.51 54.7619 116.236 57.0867 116.22 57.1029C116.22 57.1192 116.171 57.1354 116.138 57.1354Z" fill="#6F46BE"/>
<path d="M119.306 63.5244C117.99 63.5082 116.707 63.1505 115.57 62.484C115.537 62.4677 115.521 62.4515 115.505 62.4189C115.488 62.3864 115.488 62.3539 115.488 62.3214C115.602 61.5573 114.205 58.6473 111.509 56.7615C110.94 56.3551 110.631 55.8836 110.68 55.4447C110.696 55.2984 110.745 55.1683 110.826 55.0545C110.908 54.9407 111.021 54.8432 111.167 54.7944C111.703 54.5668 112.467 54.7619 113.23 55.3309C113.766 55.721 114.254 56.1437 114.709 56.6152C115.293 56.4201 116.122 56.7127 116.755 57.3467C117.649 58.2571 117.844 59.4927 117.259 60.6632C117.243 60.6957 117.21 60.7282 117.162 60.7445C117.113 60.7607 117.08 60.7607 117.032 60.7282C116.999 60.712 116.967 60.6794 116.95 60.6307C116.934 60.5819 116.934 60.5494 116.967 60.5006C117.486 59.4602 117.324 58.3709 116.528 57.5581C115.959 56.9891 115.196 56.7127 114.741 56.9403C114.709 56.9566 114.676 56.9566 114.627 56.9566C114.595 56.9566 114.562 56.9241 114.53 56.9078C114.075 56.4201 113.572 55.9812 113.019 55.591C112.24 55.0057 111.606 54.957 111.281 55.1033C111.2 55.1358 111.135 55.1846 111.086 55.2496C111.037 55.3146 111.005 55.3959 110.989 55.4772C110.956 55.7861 111.216 56.1762 111.687 56.5014C114.319 58.3547 115.813 61.2159 115.797 62.2564C117.746 63.3293 119.956 63.4919 121.58 62.6953C122.36 59.4114 122.457 57.4605 122.457 57.428C122.522 56.5176 122.36 55.8999 121.97 55.6398C121.547 55.3471 120.995 55.5585 120.784 55.656C119.777 56.1275 119.761 56.9891 119.761 57.5743V57.7857C119.744 57.8507 119.761 57.9157 119.777 57.9808C119.793 58.0458 119.826 58.0946 119.858 58.1433C119.891 58.1921 119.939 58.2409 120.004 58.2734C120.069 58.3059 120.118 58.3222 120.183 58.3384C120.394 58.3547 120.67 58.2409 120.735 57.8182C120.898 56.794 121.499 56.6965 121.531 56.6965C121.58 56.6965 121.612 56.6965 121.661 56.729C121.694 56.7615 121.726 56.794 121.726 56.8428C121.726 56.8916 121.726 56.9241 121.694 56.9566C121.661 56.9891 121.629 57.0216 121.58 57.0216C121.564 57.0216 121.174 57.1029 121.06 57.8832C120.963 58.4847 120.524 58.7123 120.15 58.6798C119.939 58.6636 119.744 58.5498 119.614 58.3872C119.484 58.2246 119.419 58.0133 119.452 57.8019C119.452 57.7369 119.452 57.6719 119.452 57.6069C119.468 57.0379 119.484 55.9649 120.67 55.4122C121.239 55.1521 121.791 55.1521 122.181 55.4122C122.668 55.7536 122.879 56.4526 122.798 57.4931C122.798 57.5093 122.701 59.5252 121.889 62.8904C121.889 62.9066 121.872 62.9392 121.856 62.9554C121.84 62.9717 121.824 62.9879 121.807 63.0042C121.044 63.3293 120.183 63.5244 119.306 63.5244Z" fill="#6F46BE"/>
<path d="M121.466 55.1358H121.45C121.434 55.1358 121.401 55.1196 121.385 55.1196C121.369 55.1033 121.353 55.0871 121.336 55.0708C121.32 55.0546 121.32 55.0383 121.304 55.022C121.304 55.0058 121.304 54.9733 121.304 54.957C121.596 52.5997 121.58 51.2667 121.223 49.2183C121.028 48.1291 120.524 47.4788 120.248 47.5276C120.069 47.5601 119.793 47.9827 119.972 49.4621C120.216 51.348 119.956 53.2663 119.225 55.022C119.208 55.0546 119.176 55.0871 119.127 55.1033C119.095 55.1196 119.046 55.1196 118.997 55.1033C118.965 55.0871 118.932 55.0546 118.916 55.0058C118.9 54.9733 118.9 54.9245 118.916 54.8757C119.615 53.1687 119.858 51.3154 119.647 49.4784C119.42 47.5763 119.891 47.2187 120.199 47.1862C120.752 47.1049 121.336 47.9665 121.548 49.1533C121.905 51.2342 121.921 52.5997 121.629 54.9895C121.629 55.022 121.596 55.0708 121.58 55.0871C121.548 55.1196 121.499 55.1358 121.466 55.1358Z" fill="#6F46BE"/>
<path d="M17.2763 56.8591C17.6337 56.0138 17.6986 56.2901 17.6986 56.2901C17.6986 56.2901 16.6103 54.9408 16.4966 53.3314C16.3991 51.7219 17.7474 50.6327 18.186 53.0225C18.6408 55.4123 19.1769 54.5994 20.2165 56.6478C20.8338 57.8671 21.2724 60.8421 21.2724 60.8421C20.9962 62.2239 17.8936 63.1994 16.2529 63.2969C16.2529 62.7767 15.1808 61.151 13.0041 62.5166C13.0041 62.5166 10.8761 63.5083 8.95927 62.1589C7.43232 61.086 8.43946 60.4682 9.17045 60.8258C9.90144 61.1835 11.0873 61.655 12.3218 60.4682C11.4934 59.8829 11.201 58.6149 11.4121 57.4119C9.95017 56.3389 9.34913 54.8595 9.65777 52.6973C9.90144 51.852 10.9086 51.413 10.9898 52.7136C10.8436 53.9004 11.3634 54.8107 12.2081 55.5911L13.0528 54.9083C12.7442 53.8841 12.7117 52.8111 12.9878 51.7707C12.9391 51.0554 14.4823 50.6002 14.4173 52.0145C14.3848 54.3881 15.1483 56.1438 17.2763 56.8591Z" fill="#EDE3FF"/>
<path d="M9.78804 52.486C9.78804 52.486 8.99207 55.1846 11.2663 57.2005C10.6815 56.3877 9.93424 54.1767 10.4541 52.7949C10.9901 51.3968 9.96673 51.9658 9.78804 52.486Z" fill="white"/>
<path d="M13.5075 54.7294C13.5075 54.7294 10.2424 55.9487 11.6881 59.7366C11.6719 58.9563 11.4932 56.6478 13.475 55.6561C15.4568 54.6644 13.6862 54.6156 13.5075 54.7294Z" fill="white"/>
<path d="M16.935 51.7869C16.6101 52.5022 16.4964 53.2988 16.6101 54.0791C16.7238 54.8595 17.065 55.591 17.5848 56.1763C17.1137 57.3793 16.0091 59.1026 18.462 60.4031C18.9493 60.7933 19.6965 60.3869 18.6569 59.7041C17.5198 58.9562 17.3574 57.5419 18.5269 56.0787C17.7797 55.0708 17.2274 54.4205 17.3249 52.616C17.3249 51.8194 16.935 51.7869 16.935 51.7869Z" fill="white"/>
<path d="M16.2693 63.5082C16.2368 63.5082 16.188 63.492 16.1555 63.4757C16.1393 63.4595 16.1231 63.4432 16.1231 63.4269C16.1068 63.4107 16.1068 63.3782 16.1068 63.3619C16.1068 63.1831 16.0743 62.988 15.9769 62.8254C15.8956 62.6629 15.7494 62.5328 15.6032 62.4353C14.9535 62.0451 13.7839 62.2239 12.5006 62.923C12.4194 62.9555 10.8437 63.687 8.8619 62.2889C7.83852 61.5574 7.96847 61.0697 8.08218 60.8908C8.27711 60.5657 8.81317 60.4682 9.25176 60.6958C10.0802 61.1022 11.0549 61.3786 12.0783 60.4844C11.4122 59.8992 11.0874 58.8425 11.2336 57.6394C11.3635 56.5502 11.9645 55.2009 13.2316 54.7132C14.125 54.3718 14.4661 54.6644 14.5961 54.8757C14.8235 55.2497 14.6286 55.8837 14.19 56.2576C13.7189 56.664 13.4265 57.2493 13.3615 57.867C13.3453 58.0134 13.3615 58.1597 13.4103 58.2897C13.459 58.4198 13.524 58.5498 13.6214 58.6636C13.6377 58.6799 13.6539 58.6961 13.6539 58.7124C13.6539 58.7287 13.6702 58.7612 13.6702 58.7774C13.6702 58.7937 13.6702 58.8262 13.6539 58.8425C13.6377 58.8587 13.6377 58.875 13.6214 58.8912C13.6052 58.9075 13.589 58.9237 13.5727 58.9237C13.5565 58.9237 13.524 58.94 13.5077 58.94C13.4915 58.94 13.459 58.94 13.4428 58.9237C13.4265 58.9075 13.4103 58.9075 13.394 58.8912C13.2641 58.7449 13.1666 58.5823 13.1179 58.4035C13.0529 58.2247 13.0367 58.0296 13.0529 57.8508C13.1179 57.1355 13.459 56.4689 13.9951 55.9975C14.3037 55.7374 14.4661 55.2659 14.3362 55.0383C14.2225 54.8432 13.8651 54.827 13.3778 55.0221C12.2407 55.461 11.7046 56.6803 11.5909 57.6882C11.461 58.8262 11.7859 59.8829 12.4681 60.3544C12.4844 60.3706 12.5006 60.3869 12.5168 60.4031C12.5331 60.4194 12.5331 60.4519 12.5331 60.4682C12.5331 60.4844 12.5331 60.5169 12.5168 60.5332C12.5006 60.5494 12.5006 60.582 12.4844 60.5982C11.0874 61.9313 9.72284 61.2648 9.13805 60.9884C8.82941 60.8421 8.48828 60.9071 8.39082 61.0697C8.29335 61.2322 8.42331 61.5736 9.08932 62.0451C10.9087 63.3294 12.3869 62.6629 12.4031 62.6466C13.8001 61.8988 15.0509 61.72 15.8144 62.1751C15.9931 62.2889 16.1555 62.4353 16.2693 62.6141C16.383 62.7929 16.4479 62.988 16.4642 63.1993C18.2673 62.988 20.8014 61.9963 21.0775 60.7608C21.045 60.4844 20.7851 57.867 20.2166 56.7453C19.9567 56.1926 19.5993 55.6886 19.1445 55.2659C18.7059 54.8432 18.3648 54.5018 18.0886 53.0875C17.9099 52.1121 17.585 51.8032 17.3576 51.8357C17.0165 51.8845 16.6754 52.551 16.7241 53.3638C16.8216 54.892 17.8774 56.2088 17.8937 56.2251C17.9262 56.2576 17.9262 56.2901 17.9262 56.3226C17.9262 56.3551 17.9099 56.4039 17.8937 56.4202C17.65 56.7616 17.4388 57.1355 17.2926 57.5256C17.1789 57.7532 17.1302 57.9971 17.114 58.2409C17.0977 58.4848 17.1464 58.7449 17.2277 58.9725C17.6013 59.8829 18.6896 60.3544 18.7059 60.3544C18.7384 60.3706 18.7709 60.4031 18.7871 60.4356C18.8033 60.4682 18.8033 60.5169 18.7871 60.5657C18.7709 60.5982 18.7384 60.6307 18.7059 60.647C18.6734 60.6632 18.6247 60.6632 18.5759 60.647C18.5272 60.6307 17.3576 60.1268 16.919 59.0863C16.8053 58.8099 16.7566 58.5173 16.7728 58.2247C16.7891 57.9321 16.854 57.6394 16.984 57.3793C17.0652 56.9729 17.2601 56.6152 17.4876 56.2739C17.2277 55.9162 16.4155 54.7457 16.3342 53.3313C16.2855 52.4047 16.6916 51.5431 17.2601 51.478C17.4876 51.4455 18.0724 51.5268 18.3485 52.9899C18.6084 54.323 18.9008 54.5994 19.3069 55.0058C19.778 55.4447 20.1679 55.9812 20.444 56.5665C21.0613 57.802 21.3212 60.6145 21.3374 60.7283C21.3374 60.7445 21.3374 60.7608 21.3374 60.777C21.045 62.2564 18.1536 63.3294 16.2693 63.5082Z" fill="#6F46BE"/>
<path d="M11.4121 57.5581C11.3796 57.5581 11.3472 57.5419 11.3147 57.5256C10.6649 57.0379 10.1451 56.3714 9.8202 55.6236C9.49531 54.8757 9.34912 54.0466 9.43034 53.2338C9.5278 52.0633 10.0314 51.6894 10.4212 51.7056C10.8436 51.7381 11.2659 52.2421 11.2334 53.1037C11.1685 54.4205 12.2893 55.396 12.3056 55.4122C12.338 55.4447 12.3543 55.4772 12.3543 55.526C12.3543 55.5748 12.338 55.6073 12.3218 55.6398C12.3056 55.6561 12.2893 55.6723 12.2731 55.6723C12.2568 55.6886 12.2406 55.6886 12.2081 55.6886C12.1918 55.6886 12.1594 55.6886 12.1431 55.6886C12.1269 55.6886 12.1106 55.6723 12.0944 55.6561C12.0457 55.6073 10.8273 54.5668 10.9086 53.0875C10.941 52.4534 10.6811 52.047 10.405 52.0308C10.1288 52.0145 9.8202 52.3884 9.75522 53.25C9.69024 54.0141 9.8202 54.7782 10.1288 55.461C10.4375 56.16 10.9086 56.7615 11.5096 57.233C11.5421 57.2655 11.5746 57.298 11.5746 57.3305C11.5746 57.3793 11.5746 57.4118 11.5421 57.4443C11.5258 57.4606 11.5096 57.4931 11.4771 57.4931C11.4609 57.5419 11.4446 57.5581 11.4121 57.5581Z" fill="#6F46BE"/>
<path d="M17.2926 57.0542C17.2764 57.0542 17.2439 57.0542 17.2277 57.0379C14.4986 55.9325 14.0925 53.7865 14.2225 52.1771C14.2712 51.6081 14.1575 51.2342 13.9138 51.1692C13.6702 51.1041 13.3128 51.3155 13.1504 51.6081C13.1016 51.7869 12.728 53.4451 13.1991 54.8595C13.2153 54.9083 13.2153 54.9408 13.1829 54.9895C13.1666 55.0221 13.1341 55.0546 13.0854 55.0708C13.0691 55.0708 13.0367 55.0871 13.0204 55.0871C13.0042 55.0871 12.9717 55.0871 12.9554 55.0708C12.9392 55.0546 12.923 55.0546 12.9067 55.0383C12.8905 55.0221 12.8742 55.0058 12.8742 54.9895C12.3869 53.3964 12.8417 51.5918 12.858 51.5105C12.858 51.4943 12.858 51.4943 12.8742 51.478C13.0691 51.0716 13.589 50.7302 14.0276 50.8603C14.2712 50.9253 14.6611 51.1854 14.5636 52.2096C14.4337 53.7052 14.8235 55.7049 17.3576 56.7453C17.3901 56.7616 17.4226 56.7941 17.4388 56.8266C17.4551 56.8591 17.4551 56.9079 17.4388 56.9566C17.4226 56.9892 17.4063 57.0054 17.3739 57.0379C17.3414 57.0704 17.3251 57.0542 17.2926 57.0542Z" fill="#6F46BE"/>
<path d="M13.2313 59.7692C13.1989 59.7692 13.1826 59.7692 13.1501 59.7529C13.1176 59.7366 13.1014 59.7204 13.0852 59.7041C13.0689 59.6879 13.0689 59.6554 13.0527 59.6228C13.0527 59.5903 13.0527 59.5741 13.0689 59.5416C13.54 58.4036 14.9532 57.1355 15.0182 57.0867C15.0507 57.0542 15.0994 57.0542 15.1319 57.0542C15.1807 57.0542 15.2131 57.0705 15.2456 57.103C15.2781 57.1355 15.2944 57.168 15.2944 57.2168C15.2944 57.2656 15.2781 57.2981 15.2456 57.3306C15.2294 57.3469 13.8324 58.5986 13.3775 59.6716C13.3613 59.7041 13.3451 59.7204 13.3126 59.7529C13.2963 59.7529 13.2638 59.7692 13.2313 59.7692Z" fill="#6F46BE"/>
<path d="M16.9678 65.2152C16.7242 65.2152 16.4805 65.199 16.2531 65.1827C16.2368 65.1827 16.2044 65.1665 16.1881 65.1665C16.1719 65.1665 16.1556 65.1502 16.1394 65.1177C16.1231 65.1014 16.1069 65.0852 16.1069 65.0689C16.1069 65.0527 16.1069 65.0202 16.1069 65.0039C16.1069 64.9876 16.1231 64.9551 16.1231 64.9389C16.1394 64.9226 16.1556 64.9064 16.1719 64.8901C16.1881 64.8738 16.2044 64.8738 16.2206 64.8576C16.2368 64.8576 16.2693 64.8576 16.2856 64.8576C16.3181 64.8576 19.7943 65.2315 21.37 63.1018C21.4025 63.0693 21.435 63.0368 21.4837 63.0368C21.5325 63.0368 21.5649 63.0368 21.5974 63.0693C21.6137 63.0856 21.6299 63.1018 21.6462 63.1181C21.6624 63.1343 21.6624 63.1506 21.6624 63.1831C21.6624 63.1994 21.6624 63.2319 21.6624 63.2481C21.6624 63.2644 21.6462 63.2807 21.6299 63.3132C20.3791 64.9876 18.1212 65.2152 16.9678 65.2152Z" fill="#6F46BE"/>
<path d="M119.891 65.0689C118.267 65.0689 116.659 64.7113 115.197 63.996C115.181 63.9797 115.164 63.9797 115.148 63.9634C115.132 63.9472 115.116 63.9309 115.116 63.8984C115.116 63.8822 115.099 63.8496 115.099 63.8334C115.099 63.8171 115.099 63.7846 115.116 63.7684C115.132 63.7521 115.148 63.7358 115.164 63.7196C115.18 63.7033 115.197 63.7033 115.229 63.6871C115.245 63.6871 115.278 63.6871 115.294 63.6871C115.31 63.6871 115.343 63.7033 115.359 63.7196C117.211 64.5975 119.274 64.9063 121.305 64.6625C121.321 64.6625 121.353 64.6625 121.37 64.6625C121.386 64.6625 121.402 64.6788 121.435 64.695C121.451 64.7113 121.467 64.7275 121.483 64.7438C121.499 64.76 121.499 64.7763 121.499 64.8088C121.499 64.8251 121.499 64.8576 121.499 64.8738C121.499 64.8901 121.483 64.9063 121.467 64.9389C121.451 64.9551 121.435 64.9714 121.418 64.9876C121.402 65.0039 121.386 65.0039 121.353 65.0039C120.85 65.0527 120.379 65.0852 119.891 65.0689Z" fill="#6F46BE"/>
<path d="M89.4493 102.005C87.5 98.282 86.7202 98.786 85.7293 97.2578C84.2349 94.933 85.5182 94.2828 84.4298 93.0472C83.3414 91.8117 82.2206 88.8204 83.9912 88.5603C85.7618 88.3002 89.4493 102.005 89.4493 102.005Z" fill="#6F46BE"/>
<path d="M61.0379 60.7445C60.3231 62.4352 53.9229 65.0201 51.8924 60.1267C50.1055 55.8511 53.7929 53.6402 55.4336 53.819C55.4336 53.819 53.9391 49.1044 59.2347 48.129C57.9515 51.1041 59.3322 54.9082 59.3322 54.9082C59.3322 54.9082 58.3576 58.4035 61.0379 60.7445Z" fill="#6F46BE"/>
<path d="M56.1486 63.1181H56.1324C54.6867 63.1181 52.7374 62.5978 51.7302 60.1918C50.7718 57.8996 51.3891 56.3226 52.0713 55.4122C52.9485 54.2417 54.2806 53.6565 55.2065 53.6565C55.0765 53.0875 54.8166 51.5106 55.6451 50.1125C56.3111 49.007 57.4969 48.2917 59.2025 47.9828C59.235 47.9828 59.2675 47.9828 59.2838 47.999C59.3163 48.0153 59.3325 48.0316 59.3487 48.0478C59.365 48.0641 59.3812 48.0966 59.3812 48.1291C59.3812 48.1616 59.3812 48.1941 59.365 48.2104C58.1142 51.0879 59.4624 54.827 59.4787 54.8595C59.4949 54.892 59.4949 54.9245 59.4787 54.957C59.4624 54.9896 58.569 58.3873 61.1356 60.6307C61.1681 60.647 61.1843 60.6795 61.1843 60.712C61.1843 60.7445 61.1843 60.7771 61.1681 60.8096C60.7457 61.85 58.3903 63.1181 56.1486 63.1181ZM55.2227 53.9654C54.378 53.9654 53.1272 54.5344 52.3312 55.5911C51.6977 56.4364 51.1292 57.8996 52.0226 60.0618C52.9648 62.3052 54.7679 62.7929 56.1161 62.7929H56.1324C58.2766 62.7929 60.3396 61.6387 60.8107 60.7771C58.3741 58.5661 59.0401 55.3635 59.1376 54.9083C58.9751 54.4531 57.8868 51.1366 58.9426 48.3404C57.4969 48.6493 56.4898 49.2996 55.905 50.2588C54.9628 51.8357 55.5476 53.7378 55.5638 53.7703C55.5801 53.8028 55.5801 53.8191 55.5638 53.8516C55.5638 53.8841 55.5476 53.9003 55.5314 53.9166C55.5151 53.9329 55.4989 53.9491 55.4664 53.9654C55.4339 53.9816 55.4176 53.9816 55.3852 53.9816C55.3527 53.9654 55.2877 53.9654 55.2227 53.9654Z" fill="#6F46BE"/>
<path d="M68.6733 60.7445C69.388 62.4352 75.7882 65.0201 77.8188 60.1267C79.6056 55.8511 75.9182 53.6402 74.2775 53.819C74.2775 53.819 75.772 49.1044 70.4764 48.129C71.7759 51.1041 70.3627 54.9082 70.3627 54.9082C70.3627 54.9082 71.3536 58.4035 68.6733 60.7445Z" fill="#6F46BE"/>
<path d="M73.5629 63.118C71.3212 63.118 68.982 61.85 68.5272 60.8095C68.5109 60.777 68.5109 60.7445 68.5109 60.712C68.5109 60.6795 68.5434 60.647 68.5596 60.6307C71.1262 58.3872 70.2165 54.9895 70.2003 54.957C70.1841 54.9245 70.1841 54.892 70.2003 54.8595C70.2165 54.827 71.5648 51.0878 70.314 48.2104C70.2978 48.1778 70.2978 48.1616 70.2978 48.1291C70.2978 48.0966 70.314 48.0803 70.3303 48.0478C70.3465 48.0315 70.379 47.999 70.3952 47.999C70.4115 47.999 70.4602 47.9828 70.4765 47.999C72.1659 48.3079 73.3679 49.0232 74.0339 50.1287C74.8624 51.5105 74.6025 53.0875 74.4725 53.6727C75.3985 53.6727 76.7305 54.258 77.6077 55.4285C78.2899 56.3551 78.9072 57.9158 77.9488 60.208C76.9416 62.6141 75.0086 63.1343 73.5466 63.1343L73.5629 63.118ZM68.8845 60.777C69.3719 61.6224 71.4349 62.7929 73.5629 62.7929H73.5791C74.9274 62.7929 76.7467 62.3052 77.6726 60.0617C78.5661 57.9158 77.9975 56.4527 77.364 55.591C76.5193 54.4531 75.1385 53.8678 74.2938 53.9653C74.2614 53.9653 74.2451 53.9653 74.2126 53.9491C74.1801 53.9328 74.1639 53.9166 74.1476 53.9003C74.1314 53.8841 74.1152 53.8515 74.1152 53.8353C74.1152 53.819 74.1152 53.7865 74.1152 53.754C74.1152 53.7377 74.6999 51.8194 73.7578 50.2587C73.1892 49.2996 72.1659 48.6656 70.7201 48.3404C71.776 51.1366 70.6876 54.4531 70.5252 54.9082C70.6551 55.3472 71.3049 58.5661 68.8845 60.777Z" fill="#6F46BE"/>
<path d="M58.9423 54.1117C58.9423 54.9733 58.3737 55.5585 57.8539 55.526C57.058 55.461 56.6356 54.4693 56.6356 53.5914C56.6356 52.7298 57.1554 52.3884 57.6752 52.3884C58.1951 52.3884 58.9423 53.2338 58.9423 54.1117Z" fill="#EDE3FF"/>
<path d="M57.9028 55.6886H57.8378C56.9444 55.6236 56.4733 54.5668 56.4733 53.6077C56.4733 52.5998 57.1231 52.2421 57.6754 52.2421C58.2926 52.2421 59.1048 53.1687 59.1048 54.1279C59.1048 54.3718 59.0724 54.5994 58.9749 54.827C58.8937 55.0546 58.7637 55.2496 58.585 55.4122C58.4226 55.5748 58.1627 55.6723 57.9028 55.6886ZM57.6754 52.551C57.4642 52.551 56.7982 52.6323 56.7982 53.5914C56.7982 54.4205 57.2043 55.3147 57.8703 55.3634C57.9677 55.3634 58.0652 55.3472 58.1464 55.3147C58.2277 55.2822 58.3089 55.2171 58.3739 55.1521C58.5038 55.022 58.6175 54.8595 58.6825 54.6806C58.7475 54.5018 58.78 54.3067 58.78 54.1117C58.78 53.2988 58.0977 52.551 57.6754 52.551Z" fill="#6F46BE"/>
<path d="M70.4276 54.1117C70.4276 54.9733 70.9961 55.5585 71.5159 55.526C72.3119 55.461 72.7342 54.4693 72.7342 53.5914C72.7342 52.7298 72.2144 52.3884 71.6946 52.3884C71.1748 52.3884 70.4276 53.2338 70.4276 54.1117Z" fill="#EDE3FF"/>
<path d="M71.467 55.6886C71.2071 55.6723 70.9634 55.5748 70.7685 55.3959C70.6061 55.2334 70.4761 55.022 70.3786 54.8107C70.2974 54.5831 70.2487 54.3555 70.2649 54.1116C70.2649 53.1687 71.0772 52.2258 71.6944 52.2258C72.2467 52.2258 72.8965 52.5835 72.8965 53.5914C72.8965 54.5506 72.4092 55.6235 71.532 55.6886H71.467ZM71.6944 52.551C71.2721 52.551 70.5898 53.2988 70.5898 54.1116C70.5898 54.3067 70.6223 54.5018 70.6873 54.6806C70.7523 54.8595 70.866 55.022 70.9959 55.1521C71.0609 55.2171 71.1421 55.2659 71.2233 55.3147C71.3046 55.3472 71.402 55.3634 71.4995 55.3634C72.1655 55.3147 72.5716 54.4368 72.5716 53.5914C72.5716 52.6323 71.9056 52.551 71.6944 52.551Z" fill="#6F46BE"/>
<path d="M58.033 66.3857C57.5619 67.8001 58.7315 71.3278 60.0798 72.1569C61.623 70.011 65.1155 68.0602 65.1155 68.0602L60.6483 63.7358C60.6483 63.7358 58.7802 64.1097 58.033 66.3857Z" fill="white"/>
<path d="M71.678 66.3857C72.1165 67.8001 71.0119 71.3278 69.7287 72.1569C68.2667 70.011 64.9366 68.0602 64.9366 68.0602L69.2088 63.7358C69.1926 63.7358 70.947 64.1097 71.678 66.3857Z" fill="white"/>
<path d="M69.729 64.0447C69.729 64.0447 72.1981 65.4915 71.5646 66.9872C70.9311 68.4828 65.538 67.9789 65.538 67.9789C65.538 67.9789 69.6153 66.532 69.5341 63.9796C69.794 64.0447 69.729 64.0447 69.729 64.0447Z" fill="#EDE3FF"/>
<path d="M60.0798 72.3195C60.0473 72.3195 60.0148 72.3032 59.9986 72.3032C58.5366 71.3928 57.4157 67.7675 57.8868 66.3369C58.6503 63.9959 60.5346 63.5895 60.6158 63.5732C60.6483 63.5732 60.6646 63.5732 60.697 63.5732C60.7295 63.5732 60.7458 63.5895 60.762 63.6057L65.2292 67.9301C65.2454 67.9463 65.2617 67.9626 65.2617 67.9951C65.2779 68.0114 65.2779 68.0439 65.2617 68.0764C65.2617 68.1089 65.2454 68.1252 65.2292 68.1414C65.2129 68.1577 65.1967 68.1739 65.1804 68.1902C65.148 68.2065 61.7042 70.1573 60.2097 72.2382C60.1935 72.2545 60.1772 72.2707 60.1447 72.287C60.1285 72.3195 60.1123 72.3195 60.0798 72.3195ZM60.5996 63.9146C60.2422 64.0122 58.8127 64.5161 58.1954 66.4344C57.7731 67.7025 58.7802 70.9864 60.0473 71.9293C61.428 70.0923 64.1083 68.4503 64.8393 68.0276L60.5996 63.9146Z" fill="#6F46BE"/>
<path d="M69.7125 72.3195C69.68 72.3195 69.6638 72.3195 69.6313 72.3032C69.6151 72.287 69.5826 72.2707 69.5663 72.2545C68.1368 70.1736 64.8555 68.2227 64.823 68.2065C64.8068 68.1902 64.7905 68.174 64.7743 68.1577C64.7581 68.1414 64.7581 68.1089 64.7418 68.0927C64.7418 68.0602 64.7418 68.0439 64.7418 68.0276C64.7418 68.0114 64.7581 67.9789 64.7743 67.9626L69.0465 63.6382C69.0628 63.622 69.0953 63.6057 69.1115 63.5895C69.144 63.5895 69.1602 63.5732 69.1927 63.5895C69.2739 63.6057 71.077 64.0122 71.808 66.3532C72.2629 67.7838 71.1745 71.4091 69.7938 72.3195C69.7775 72.3195 69.745 72.3195 69.7125 72.3195ZM65.1804 68.0276C65.8789 68.4503 68.4292 70.0923 69.7613 71.9293C70.9796 70.9702 71.9217 67.7025 71.5156 66.4344C70.9308 64.5324 69.5826 64.0122 69.2414 63.9146L65.1804 68.0276Z" fill="#6F46BE"/>
<path d="M60.762 59.2326C60.7782 59.2976 60.5183 62.0613 60.3234 64.0122C60.3071 64.2398 60.2746 64.4511 60.2584 64.6625C60.2259 65.0526 60.2909 65.459 60.4696 65.8167C60.6482 66.1744 60.9244 66.467 61.2655 66.6783C62.1102 67.1985 63.3448 67.8001 64.5956 67.9626C65.8951 68.1252 67.4221 67.4912 68.4779 66.9222C68.8678 66.7108 69.1764 66.3857 69.3714 65.9955C69.5663 65.6054 69.6313 65.1502 69.5663 64.7112L68.6404 58.9562L60.762 59.2326Z" fill="#EDE3FF"/>
<path d="M65.0338 68.1415C64.8876 68.1415 64.7414 68.1252 64.5953 68.109C63.2957 67.9464 62.0287 67.3124 61.2002 66.8084C60.8266 66.5808 60.5342 66.2557 60.3393 65.8818C60.1443 65.4916 60.0631 65.0689 60.1119 64.63L60.1768 63.9959C60.5829 59.9967 60.6154 59.3302 60.6154 59.2489C60.6154 59.2164 60.6154 59.1676 60.6479 59.1351C60.6642 59.1188 60.6804 59.1026 60.6966 59.0863C60.7129 59.0701 60.7454 59.0701 60.7616 59.0701L68.6563 58.7937C68.6888 58.7937 68.7375 58.81 68.77 58.8262C68.8025 58.8587 68.8187 58.8912 68.8187 58.9238L69.7447 64.6787C69.8259 65.1502 69.7447 65.6379 69.5335 66.0606C69.3223 66.4833 68.9812 66.8409 68.5588 67.0685C67.6167 67.5725 66.2684 68.1415 65.0338 68.1415ZM60.9241 59.379C60.9078 59.7366 60.8104 60.8096 60.4855 64.0285L60.4205 64.6625C60.388 65.0364 60.453 65.4103 60.6154 65.7354C60.7779 66.0606 61.0378 66.337 61.3464 66.532C62.1586 67.0198 63.3769 67.6375 64.6115 67.7838C65.8785 67.9464 67.373 67.3124 68.3964 66.7596C68.7538 66.5646 69.0462 66.2719 69.2248 65.898C69.4035 65.5241 69.4685 65.1177 69.4035 64.7113L68.4939 59.0863L60.9241 59.379Z" fill="#6F46BE"/>
<path d="M70.1995 47.0399C73.0748 57.0379 70.0696 59.8504 70.0696 59.8504C69.1437 61.9313 63.9455 64.695 59.7708 59.9479C55.8884 55.526 59.4134 47.0073 59.4134 47.0073C61.8013 45.7068 65.31 46.0644 70.1995 47.0399Z" fill="#EDE3FF"/>
<path d="M64.9851 62.7441C63.4581 62.7441 61.5088 62.1914 59.657 60.078C55.7584 55.6398 59.1209 47.3162 59.2671 46.9748C59.2834 46.9423 59.2996 46.9098 59.3321 46.8936C61.7525 45.5605 65.2937 45.9019 70.232 46.8936C70.2644 46.8936 70.2969 46.9098 70.3132 46.9261C70.3294 46.9423 70.3457 46.9748 70.3619 47.0074C73.1234 56.6152 70.5081 59.6553 70.1995 59.9642C69.6959 61.0534 68.0552 62.354 65.9597 62.6791C65.6348 62.7116 65.31 62.7441 64.9851 62.7441ZM59.5433 47.1374C59.2509 47.869 56.2782 55.7374 59.9006 59.8504C62.0611 62.3377 64.3678 62.5816 65.8948 62.3377C67.8928 62.0288 69.4522 60.7933 69.9071 59.7854C69.9233 59.7691 69.9233 59.7529 69.9396 59.7366C69.972 59.7041 72.8148 56.8591 70.0533 47.1862C65.2937 46.227 61.8662 45.9019 59.5433 47.1374Z" fill="#6F46BE"/>
<path d="M59.105 47.9665C59.105 47.9665 56.7821 54.2092 58.6502 58.0621C58.9588 57.5907 59.4137 56.9891 59.4137 56.9891C59.4137 56.9891 58.0004 54.388 60.1609 47.7552L59.105 47.9665Z" fill="white"/>
<path d="M64.9851 62.7441C63.4581 62.7441 61.5088 62.1914 59.657 60.078C55.7584 55.6398 59.1209 47.3162 59.2671 46.9748C59.2834 46.9423 59.2996 46.9098 59.3321 46.8936C61.7525 45.5605 65.2937 45.9019 70.232 46.8936C70.2644 46.8936 70.2969 46.9098 70.3132 46.9261C70.3294 46.9423 70.3457 46.9748 70.3619 47.0074C73.1234 56.6152 70.5081 59.6553 70.1995 59.9642C69.6959 61.0534 68.0552 62.354 65.9597 62.6791C65.6348 62.7116 65.31 62.7441 64.9851 62.7441ZM59.5433 47.1374C59.2509 47.869 56.2782 55.7374 59.9006 59.8504C62.0611 62.3377 64.3678 62.5816 65.8948 62.3377C67.8928 62.0288 69.4522 60.7933 69.9071 59.7854C69.9233 59.7691 69.9233 59.7529 69.9396 59.7366C69.972 59.7041 72.8148 56.8591 70.0533 47.1862C65.2937 46.227 61.8662 45.9019 59.5433 47.1374Z" fill="#6F46BE"/>
<path d="M57.5296 48.5843C57.5296 48.5843 63.1013 45.6905 71.7433 48.5843C72.3281 46.9911 69.729 42.0652 70.0214 41.4962C70.3138 40.9272 71.8407 39.4641 70.2975 38.4399C68.7543 37.4157 61.6556 37.2206 58.9753 39.0902C56.295 40.9435 58.8779 42.7155 58.5855 43.8372C58.2931 44.959 57.4321 47.6576 57.5296 48.5843Z" fill="white"/>
<path d="M64.7255 53.9979C64.7255 53.9979 61.5416 54.6319 58.5365 57.8346C59.4461 60.712 61.3305 62.6304 64.9204 62.6304C68.6891 62.6304 70.6059 60.1593 71.2719 57.6232C69.9561 56.1438 66.4799 54.323 64.7255 53.9979Z" fill="white"/>
<path d="M64.9204 62.7929C61.5579 62.7929 59.4136 61.1835 58.374 57.8833C58.3578 57.8508 58.3578 57.8183 58.374 57.802C58.374 57.7695 58.3902 57.7533 58.4227 57.7208C61.4279 54.5181 64.563 53.8516 64.7092 53.8353C64.7255 53.8353 64.7417 53.8353 64.7742 53.8353C66.5286 54.1605 70.0536 55.9975 71.4181 57.5094C71.4343 57.5257 71.4506 57.5582 71.4506 57.5744C71.4506 57.607 71.4506 57.6232 71.4506 57.6557C71.0282 59.2001 69.5825 62.7929 64.9204 62.7929ZM58.7151 57.8833C59.7223 60.9722 61.7528 62.4678 64.9204 62.4678C69.2739 62.4678 70.6871 59.1676 71.0932 57.6557C69.7287 56.2089 66.4149 54.4694 64.7255 54.1605C64.4006 54.2418 61.4766 54.9733 58.7151 57.8833Z" fill="#6F46BE"/>
<path d="M70.671 53.6077H69.7776C69.7288 53.6077 69.6963 53.5914 69.6638 53.5589C69.6314 53.5264 69.6151 53.4939 69.6151 53.4451C69.6151 53.3963 69.6314 53.3638 69.6638 53.3313C69.6963 53.2988 69.7288 53.2825 69.7776 53.2825H70.5898L71.3695 51.8682C71.3857 51.8519 71.402 51.8357 71.4182 51.8194C71.4345 51.8032 71.4507 51.8032 71.4832 51.7869C71.4994 51.7869 71.5319 51.7869 71.5482 51.7869C71.5644 51.7869 71.5969 51.8032 71.6132 51.8032C71.6294 51.8194 71.6456 51.8357 71.6619 51.8519C71.6781 51.8682 71.6781 51.8844 71.6944 51.917C71.6944 51.9332 71.6944 51.9657 71.6944 51.982C71.6944 51.9982 71.6781 52.0308 71.6781 52.047L70.8497 53.5427C70.8334 53.5752 70.8172 53.5914 70.7847 53.6077C70.736 53.6077 70.7035 53.6077 70.671 53.6077Z" fill="#6F46BE"/>
<path d="M59.576 53.6077H58.6501C58.6176 53.6077 58.6013 53.6077 58.5688 53.5914C58.5363 53.5752 58.5201 53.5589 58.5039 53.5264L57.6429 52.0308C57.6267 51.9983 57.6104 51.9495 57.6267 51.9007C57.6429 51.8519 57.6592 51.8194 57.7079 51.8032C57.7404 51.7869 57.7891 51.7707 57.8378 51.7869C57.8866 51.8032 57.9191 51.8194 57.9353 51.8682L58.7475 53.2826H59.576C59.6247 53.2826 59.6572 53.2988 59.6897 53.3313C59.7222 53.3638 59.7384 53.3964 59.7384 53.4451C59.7384 53.4939 59.7222 53.5264 59.6897 53.5589C59.6572 53.5914 59.6085 53.6077 59.576 53.6077Z" fill="#6F46BE"/>
<path d="M61.948 51.3317C62.7277 51.3317 63.3775 51.0553 63.3775 50.7139C63.3775 50.3725 62.744 50.0962 61.948 50.0962C61.1683 50.0962 60.5185 50.3725 60.5185 50.7139C60.5185 51.0716 61.1521 51.3317 61.948 51.3317Z" fill="white"/>
<path d="M61.9475 51.4942C61.0378 51.4942 60.3556 51.1528 60.3556 50.7139C60.3556 50.275 61.0378 49.9336 61.9475 49.9336C62.8572 49.9336 63.5394 50.2587 63.5394 50.7139C63.5394 51.1691 62.8572 51.4942 61.9475 51.4942ZM61.9475 50.275C61.1678 50.275 60.6805 50.5351 60.6805 50.7302C60.6805 50.9252 61.1678 51.1854 61.9475 51.1854C62.7272 51.1854 63.2146 50.909 63.2146 50.7302C63.2146 50.5513 62.711 50.275 61.9475 50.275Z" fill="#6F46BE"/>
<path d="M61.9639 51.2992C62.305 51.2992 62.5974 51.0229 62.5974 50.6815C62.5974 50.3401 62.3213 50.0637 61.9639 50.0637C61.6228 50.0637 61.3304 50.3401 61.3304 50.6815C61.3304 51.0229 61.6065 51.2992 61.9639 51.2992Z" fill="#6F46BE"/>
<path d="M67.0162 51.3317C67.7959 51.3317 68.4457 51.0553 68.4457 50.7139C68.4457 50.3725 67.8121 50.0962 67.0162 50.0962C66.2365 50.0962 65.5867 50.3725 65.5867 50.7139C65.5867 51.0716 66.2202 51.3317 67.0162 51.3317Z" fill="white"/>
<path d="M67.0157 51.4942C66.106 51.4942 65.4238 51.1528 65.4238 50.7139C65.4238 50.275 66.106 49.9336 67.0157 49.9336C67.9254 49.9336 68.6076 50.2587 68.6076 50.7139C68.6076 51.1691 67.9091 51.4942 67.0157 51.4942ZM67.0157 50.275C66.236 50.275 65.7487 50.5351 65.7487 50.7302C65.7487 50.9252 66.236 51.1854 67.0157 51.1854C67.7954 51.1854 68.2828 50.909 68.2828 50.7302C68.2828 50.5513 67.7792 50.275 67.0157 50.275Z" fill="#6F46BE"/>
<path d="M67.0158 51.2992C67.357 51.2992 67.6494 51.0229 67.6494 50.6815C67.6494 50.3401 67.3732 50.0637 67.0158 50.0637C66.6585 50.0637 66.3823 50.3401 66.3823 50.6815C66.3823 51.0229 66.6747 51.2992 67.0158 51.2992Z" fill="#6F46BE"/>
<path d="M60.4206 49.3809C60.4044 49.3809 60.3719 49.3809 60.3556 49.3646C60.3394 49.3484 60.3232 49.3484 60.3069 49.3321C60.2744 49.2996 60.2582 49.2508 60.2582 49.2183C60.2582 49.1696 60.2744 49.137 60.3069 49.1045C60.713 48.7631 61.2166 48.5355 61.7526 48.4542C62.2887 48.373 62.8248 48.438 63.3283 48.6493C63.3446 48.6493 63.3608 48.6656 63.3771 48.6818C63.3933 48.6981 63.4096 48.7144 63.4096 48.7306C63.4258 48.7469 63.4258 48.7794 63.4258 48.7956C63.4258 48.8119 63.4258 48.8444 63.4096 48.8607C63.4096 48.8769 63.3933 48.8932 63.3771 48.9094C63.3608 48.9257 63.3446 48.942 63.3283 48.942C63.3121 48.9582 63.2796 48.9582 63.2634 48.9582C63.2471 48.9582 63.2146 48.9582 63.1984 48.942C62.7598 48.7631 62.2725 48.6981 61.8014 48.7631C61.3303 48.8282 60.8917 49.0232 60.5181 49.3321C60.5018 49.3646 60.4531 49.3809 60.4206 49.3809Z" fill="#6F46BE"/>
<path d="M68.543 49.3809C68.5105 49.3809 68.4618 49.3646 68.4293 49.3321C68.0557 49.0232 67.6171 48.8281 67.146 48.7631C66.6749 48.6981 66.1876 48.7469 65.749 48.9419C65.7165 48.9582 65.6678 48.9582 65.6353 48.9419C65.6028 48.9257 65.5703 48.8932 65.5541 48.8607C65.5378 48.8281 65.5378 48.7794 65.5541 48.7469C65.5703 48.7143 65.6028 48.6818 65.6353 48.6656C66.1389 48.4542 66.6749 48.3892 67.211 48.4705C67.7471 48.5518 68.2344 48.7794 68.6567 49.1208C68.6892 49.1533 68.7055 49.1858 68.7055 49.2346C68.7055 49.2833 68.6892 49.3158 68.6567 49.3484C68.6405 49.3646 68.6242 49.3809 68.608 49.3809C68.5755 49.3809 68.5593 49.3809 68.543 49.3809Z" fill="#6F46BE"/>
<path d="M70.7522 40.2769L70.005 41.5125L71.7268 47.3975C71.7268 47.3975 70.9471 45.3654 69.875 44.7314C68.8029 44.0973 68.1369 43.8372 68.4942 43.1057C68.8516 42.3741 67.2272 42.813 67.6983 41.8214C68.1694 40.8297 70.7522 40.2769 70.7522 40.2769Z" fill="#6F46BE"/>
<path d="M58.0007 41.7888C58.0007 41.7888 58.5205 42.5692 60.3723 42.8455C62.2242 43.1382 61.2008 43.9835 60.5185 43.9835C59.8363 43.9835 58.488 44.585 58.1144 45.4954C58.6829 43.9835 58.6342 43.5121 58.6342 43.5121L58.0007 41.7888Z" fill="#6F46BE"/>
<path d="M64.1082 51.3968C64.1082 51.9007 63.9458 52.4047 63.6696 52.8274C63.7184 53.0225 63.7996 53.2175 63.9295 53.3639L64.4494 53.1525C64.4494 53.1525 64.8555 52.7136 64.5631 51.348C64.4494 50.8765 64.1245 51.0228 64.1082 51.3968Z" fill="white"/>
<path d="M61.7042 54.9896C62.89 54.9896 63.8484 54.3555 63.8484 53.5589C63.8484 52.7786 62.89 52.1283 61.7042 52.1283C60.5184 52.1283 59.56 52.7624 59.56 53.5589C59.56 54.3555 60.5184 54.9896 61.7042 54.9896Z" fill="#EDE3FF"/>
<path d="M61.7043 55.1521C60.4373 55.1521 59.3976 54.4368 59.3976 53.5589C59.3976 52.681 60.4373 51.982 61.7043 51.982C62.9714 51.982 64.011 52.6973 64.011 53.5589C64.011 54.4205 62.9714 55.1521 61.7043 55.1521ZM61.7043 52.3071C60.6159 52.3071 59.7225 52.8761 59.7225 53.5589C59.7225 54.2417 60.6159 54.827 61.7043 54.827C62.7927 54.827 63.6861 54.258 63.6861 53.5589C63.6861 52.8599 62.7927 52.3071 61.7043 52.3071Z" fill="#6F46BE"/>
<path d="M67.633 54.9896C68.8188 54.9896 69.7772 54.3555 69.7772 53.5589C69.7772 52.7786 68.8188 52.1283 67.633 52.1283C66.4471 52.1283 65.4887 52.7624 65.4887 53.5589C65.4887 54.3555 66.4471 54.9896 67.633 54.9896Z" fill="#EDE3FF"/>
<path d="M67.633 55.1521C66.3659 55.1521 65.3263 54.4368 65.3263 53.5589C65.3263 52.681 66.3659 51.982 67.633 51.982C68.9 51.982 69.9397 52.6973 69.9397 53.5589C69.9397 54.4205 68.9163 55.1521 67.633 55.1521ZM67.633 52.3071C66.5446 52.3071 65.6512 52.8761 65.6512 53.5589C65.6512 54.2417 66.5446 54.827 67.633 54.827C68.7214 54.827 69.6148 54.258 69.6148 53.5589C69.6148 52.8599 68.7214 52.3071 67.633 52.3071Z" fill="#6F46BE"/>
<path d="M63.8482 53.4614C63.8482 53.4614 64.6929 52.6648 65.4889 53.4777L63.8482 53.4614Z" fill="#EDE3FF"/>
<path d="M65.4889 53.6402C65.4727 53.6402 65.4402 53.6402 65.424 53.624C65.4077 53.6077 65.3915 53.6077 65.3752 53.5915C64.7092 52.8924 63.9945 53.5427 63.9782 53.5752C63.9457 53.6077 63.9132 53.6077 63.8645 53.6077C63.8158 53.6077 63.7833 53.5915 63.7508 53.559C63.7183 53.5264 63.7021 53.4939 63.7021 53.4452C63.7021 53.3964 63.7183 53.3639 63.7508 53.3314C64.0757 53.0225 64.8879 52.616 65.6189 53.3639C65.6514 53.3964 65.6676 53.4289 65.6676 53.4777C65.6676 53.5264 65.6514 53.559 65.6189 53.5915C65.6026 53.6077 65.5864 53.624 65.5702 53.624C65.5214 53.6402 65.5052 53.6402 65.4889 53.6402Z" fill="#6F46BE"/>
<path d="M60.4373 57.1517C61.6394 56.3389 63.0526 55.8999 64.4984 55.8837C66.9837 55.8349 69.1929 57.1842 69.1929 57.1842C67.666 56.8591 66.1065 56.6803 64.5471 56.6803C63.1501 56.6803 61.7856 56.8428 60.4373 57.1517Z" fill="#EDE3FF"/>
<path d="M68.6729 59.9479C67.682 60.8096 66.415 61.281 65.0992 61.3298C62.9062 61.3786 60.9569 59.9154 60.9569 59.9154C60.9569 59.9154 62.9549 60.7608 65.0992 60.7283C66.3337 60.712 67.5521 60.4519 68.6729 59.9479Z" fill="#EDE3FF"/>
<path d="M69.1929 58.371C69.1929 58.371 67.6173 59.0213 65.1319 59.07C63.54 59.0863 61.948 58.8262 60.4373 58.3222C60.4373 58.3222 62.7115 58.4035 65.1319 58.3547C67.536 58.3385 69.1929 58.371 69.1929 58.371Z" fill="#EDE3FF"/>
<path d="M62.1265 62.0938C62.1265 62.0938 65.3266 64.8738 69.2577 62.8742C69.209 62.3702 69.0953 61.8662 68.9491 61.3785C68.9491 61.3785 65.6028 63.5082 62.1265 62.0938Z" fill="#6F46BE"/>
<path d="M71.7431 48.7631C71.7268 48.7631 71.7106 48.7631 71.6943 48.7631C63.2311 45.9344 57.6593 48.7306 57.6106 48.7469C57.5944 48.7631 57.5619 48.7631 57.5294 48.7631C57.4969 48.7631 57.4807 48.7631 57.4482 48.7469C57.4319 48.7306 57.3994 48.7143 57.3832 48.6981C57.3669 48.6818 57.3669 48.6493 57.3507 48.6168C57.2695 47.8527 57.7893 46.0482 58.1629 44.7314C58.2604 44.3737 58.3578 44.0486 58.4228 43.8047C58.504 43.4958 58.3091 43.1057 58.0817 42.6342C57.5944 41.6425 56.9446 40.2932 58.8777 38.9601C61.6717 37.0255 68.8678 37.2857 70.3948 38.3098C70.5735 38.4236 70.7359 38.5537 70.8659 38.7325C70.9958 38.8951 71.077 39.0902 71.1258 39.3015C71.2557 40.0331 70.7522 40.7647 70.411 41.2361C70.3298 41.3499 70.2486 41.4637 70.1674 41.5938C70.1024 41.7726 70.4923 42.8456 70.8171 43.6909C71.4669 45.4467 72.2791 47.6414 71.9055 48.6493C71.8893 48.6818 71.873 48.6981 71.8405 48.7143C71.808 48.7469 71.7755 48.7631 71.7431 48.7631ZM64.2382 47.1537C66.7561 47.1699 69.2415 47.5763 71.6294 48.3892C71.8243 47.4138 71.0608 45.3329 70.4923 43.8047C69.9724 42.4066 69.7288 41.7076 69.8587 41.4475C69.94 41.3174 70.0212 41.1711 70.1186 41.0573C70.4273 40.6183 70.8984 39.9518 70.7847 39.3666C70.7522 39.204 70.6709 39.0577 70.5735 38.9114C70.476 38.7813 70.3461 38.6675 70.1999 38.5862C68.7704 37.6271 61.6879 37.3995 59.0563 39.2365C57.3507 40.407 57.903 41.5287 58.3741 42.5042C58.6178 43.0081 58.8452 43.4796 58.7315 43.886C58.6665 44.1299 58.5853 44.455 58.4716 44.8127C58.1629 45.9181 57.7081 47.5276 57.6756 48.3404C58.4066 48.0315 60.7295 47.1537 64.2382 47.1537Z" fill="#6F46BE"/>
<path d="M52.5261 58.3385C52.4773 58.3385 52.4448 58.3223 52.4123 58.2898C52.3799 58.2573 52.3636 58.2248 52.3636 58.176C52.3961 55.7699 54.8165 54.9571 54.8327 54.9571C54.8815 54.9408 54.914 54.9408 54.9627 54.9733C55.0114 55.0059 55.0277 55.0221 55.0439 55.0709C55.0602 55.1197 55.0602 55.1522 55.0277 55.2009C55.0114 55.2335 54.9789 55.266 54.9302 55.2822C54.8327 55.3147 52.721 56.0301 52.6885 58.2085C52.6885 58.2573 52.6723 58.2898 52.6398 58.3223C52.6073 58.3223 52.5748 58.3385 52.5261 58.3385Z" fill="#EDE3FF"/>
<path d="M21.9057 65.394C21.9057 65.394 20.1351 74.693 26.1454 79.2937C30.2877 82.4476 32.5294 78.2045 29.4917 77.1315C26.0804 75.9285 23.6113 72.6609 21.9057 65.394Z" fill="#6F46BE"/>
<path d="M62.1752 79.7328C62.8574 79.5702 63.296 78.9687 63.1661 78.3835C63.0361 77.7982 62.3701 77.4406 61.6878 77.6031C61.0056 77.7657 60.567 78.3672 60.6969 78.9525C60.8269 79.554 61.4929 79.8954 62.1752 79.7328Z" fill="#EDE3FF"/>
<path d="M61.8502 79.9441C61.6066 79.9441 61.3792 79.8953 61.168 79.7815C61.0218 79.7002 60.8756 79.6027 60.7781 79.4564C60.6644 79.3263 60.5994 79.1638 60.5507 79.0012C60.5182 78.8386 60.5182 78.6598 60.5507 78.4972C60.5832 78.3347 60.6644 78.1721 60.7619 78.042C60.9731 77.7494 61.2979 77.5381 61.6553 77.4568C62.4188 77.2779 63.166 77.6844 63.3285 78.3509C63.3609 78.5135 63.3609 78.6923 63.3285 78.8549C63.296 79.0174 63.2147 79.18 63.1173 79.3263C62.8899 79.619 62.5812 79.8303 62.2239 79.9116C62.0939 79.9278 61.9639 79.9441 61.8502 79.9441ZM62.0127 77.7331C61.9152 77.7331 61.8178 77.7494 61.7203 77.7657C61.4441 77.8307 61.1842 77.9933 61.0218 78.2209C60.9406 78.3184 60.8918 78.4322 60.8593 78.5622C60.8269 78.6923 60.8269 78.8061 60.8593 78.9362C60.8918 79.0662 60.9406 79.18 61.0218 79.2776C61.103 79.3751 61.2005 79.4564 61.3142 79.5052C61.5741 79.6352 61.8665 79.6677 62.1426 79.6027C62.4188 79.5377 62.6787 79.3751 62.8411 79.1475C62.9224 79.05 62.9711 78.9362 63.0036 78.8061C63.0361 78.676 63.0361 78.5622 63.0036 78.4322C62.9061 78.0095 62.4838 77.7331 62.0127 77.7331Z" fill="#6F46BE"/>
<path d="M61.7043 93.2097C62.3866 93.0472 62.8252 92.4457 62.6952 91.8604C62.5652 91.2752 61.8992 90.9175 61.217 91.0801C60.5347 91.2426 60.0961 91.8442 60.2261 92.4294C60.356 93.0147 61.022 93.3723 61.7043 93.2097Z" fill="#EDE3FF"/>
<path d="M61.3794 93.421C60.7459 93.421 60.2098 93.0471 60.0636 92.4781C60.0311 92.3156 60.0311 92.1367 60.0636 91.9742C60.0961 91.8116 60.1773 91.649 60.2748 91.5027C60.486 91.2101 60.8108 90.9988 61.1682 90.9175C61.9317 90.7386 62.6952 91.1451 62.8414 91.8116C62.8739 91.9742 62.8739 92.153 62.8414 92.3156C62.8089 92.4781 62.7277 92.6407 62.6302 92.787C62.419 93.0796 62.0941 93.291 61.7368 93.3723C61.623 93.4048 61.4931 93.421 61.3794 93.421ZM61.5418 91.2101C61.4444 91.2101 61.3469 91.2263 61.2494 91.2426C60.9733 91.3076 60.7134 91.4702 60.5509 91.6978C60.4697 91.7953 60.421 91.9091 60.3885 92.0392C60.356 92.153 60.356 92.2831 60.3885 92.4131C60.5022 92.9171 61.087 93.2097 61.6718 93.0634C61.9479 92.9984 62.2078 92.8358 62.3703 92.6082C62.4515 92.5107 62.5002 92.3969 62.5327 92.2668C62.5652 92.1367 62.5652 92.0229 62.5327 91.8929C62.4353 91.4865 62.0129 91.2101 61.5418 91.2101Z" fill="#6F46BE"/>
<path d="M61.8342 109.028C62.5165 108.865 62.9551 108.264 62.8251 107.678C62.6951 107.093 62.0291 106.735 61.3469 106.898C60.6646 107.061 60.226 107.662 60.356 108.247C60.4859 108.833 61.1519 109.174 61.8342 109.028Z" fill="#EDE3FF"/>
<path d="M61.5092 109.223C61.2656 109.223 61.0382 109.174 60.827 109.06C60.6808 108.979 60.5346 108.882 60.4371 108.735C60.3397 108.589 60.2584 108.443 60.2097 108.28C60.0473 107.613 60.5508 106.914 61.3143 106.736C62.0778 106.557 62.8413 106.963 62.9875 107.63C63.02 107.792 63.02 107.971 62.9875 108.134C62.955 108.296 62.8738 108.459 62.7763 108.605C62.5651 108.898 62.2402 109.109 61.8829 109.19C61.7529 109.207 61.623 109.223 61.5092 109.223ZM61.6717 107.012C61.5742 107.012 61.4768 107.028 61.3793 107.044C60.7945 107.191 60.4046 107.695 60.5183 108.199C60.5508 108.313 60.5996 108.426 60.6808 108.524C60.762 108.621 60.8595 108.703 60.9732 108.751C61.2331 108.882 61.5255 108.914 61.8016 108.849C62.0778 108.784 62.3215 108.621 62.5001 108.394C62.5814 108.296 62.6301 108.182 62.6626 108.052C62.6951 107.922 62.6951 107.809 62.6626 107.678C62.5651 107.288 62.1428 107.012 61.6717 107.012Z" fill="#6F46BE"/>
<path d="M80.4503 85.5365C80.434 85.5365 80.4015 85.5365 80.3853 85.5202C77.2501 84.1221 70.6875 84.6749 70.6225 84.6749C70.6063 84.6749 70.5738 84.6749 70.5575 84.6749C70.5413 84.6749 70.5251 84.6586 70.5088 84.6424C70.4926 84.6261 70.4763 84.6098 70.4763 84.5936C70.4601 84.5773 70.4601 84.5448 70.4601 84.5286L70.3301 82.5127C70.3301 82.4639 70.3464 82.4314 70.3626 82.3989C70.3951 82.3664 70.4276 82.3501 70.4763 82.3339C70.7362 82.3013 76.7628 81.6185 80.4827 83.0654C80.5152 83.0817 80.5315 83.0979 80.5477 83.1142C80.564 83.1467 80.5802 83.163 80.5802 83.1955C80.5802 83.2117 80.6452 84.431 80.6127 85.3577C80.6127 85.4064 80.5965 85.4389 80.564 85.4715C80.5477 85.5202 80.499 85.5365 80.4503 85.5365ZM73.7252 84.2359C75.8207 84.2359 78.501 84.3985 80.3041 85.1301C80.3203 84.431 80.2878 83.6182 80.2716 83.3418C76.9253 82.09 71.6297 82.5452 70.6712 82.6427L70.7687 84.3335C71.1911 84.3172 72.3282 84.2359 73.7252 84.2359Z" fill="#6F46BE"/>
<mask id="mask0_90_10424" style="mask-type:luminance" maskUnits="userSpaceOnUse" x="88" y="10" width="55" height="77">
<path d="M142.833 10.2043H88.9406V86.9911H142.833V10.2043Z" fill="white"/>
</mask>
<g mask="url(#mask0_90_10424)">
<path d="M110.076 58.1939C110.04 58.1939 110.004 58.1758 109.986 58.1578C109.95 58.1397 109.914 58.0855 109.914 58.0494C109.896 57.9953 109.914 57.9592 109.932 57.923L122.945 38.1892C122.963 38.1712 122.981 38.1531 122.999 38.135C123.017 38.117 123.035 38.117 123.071 38.0989C123.089 38.0989 123.125 38.0989 123.143 38.0989C123.161 38.0989 123.197 38.117 123.215 38.117C123.233 38.135 123.252 38.1531 123.27 38.1712C123.288 38.1892 123.288 38.2073 123.306 38.2434C123.324 38.2795 123.306 38.2975 123.306 38.3156C123.306 38.3336 123.288 38.3698 123.27 38.3878L110.239 58.1036C110.22 58.1217 110.202 58.1578 110.166 58.1578C110.13 58.1758 110.112 58.1939 110.076 58.1939Z" fill="#6F46BE"/>
<path d="M119.858 47.2707L116.104 44.8153L111.285 52.1455L115.039 54.6009L119.858 47.2707Z" fill="white"/>
<path d="M115.058 54.7815C115.022 54.7815 114.985 54.7634 114.967 54.7454L111.195 52.2899C111.159 52.2719 111.123 52.2177 111.123 52.1816C111.105 52.1274 111.123 52.0913 111.141 52.0552L115.942 44.7069C115.96 44.6889 115.978 44.6708 115.996 44.6528C116.014 44.6347 116.032 44.6347 116.068 44.6167C116.086 44.6167 116.122 44.6167 116.141 44.6167C116.159 44.6167 116.195 44.6347 116.213 44.6347L119.967 47.0902C120.003 47.1263 120.039 47.1624 120.039 47.1985C120.057 47.2527 120.039 47.2888 120.021 47.3429L115.202 54.7093C115.184 54.7273 115.166 54.7454 115.13 54.7634C115.094 54.7815 115.076 54.7815 115.058 54.7815ZM111.538 52.0913L115.003 54.3482L119.606 47.3068L116.159 45.05L111.538 52.0913Z" fill="#6F46BE"/>
<path d="M115.4 54.4565L111.285 51.7664L110.166 53.4635L114.299 56.1537L115.4 54.4565Z" fill="#EDE3FF"/>
<path d="M114.281 56.3342C114.245 56.3342 114.209 56.3162 114.191 56.2981L110.076 53.5899C110.04 53.5719 110.004 53.5177 110.004 53.4816C109.986 53.4274 110.004 53.3913 110.022 53.3371L111.141 51.64C111.159 51.6039 111.213 51.5678 111.249 51.5678C111.303 51.5497 111.339 51.5678 111.375 51.5858L115.509 54.3121C115.545 54.3302 115.581 54.3843 115.581 54.4204C115.599 54.4746 115.581 54.5107 115.563 54.5468L114.444 56.244C114.426 56.2801 114.372 56.3162 114.335 56.3162C114.317 56.3342 114.299 56.3342 114.281 56.3342ZM110.419 53.4094L114.245 55.9009L115.166 54.5107L111.339 52.0011L110.419 53.4094Z" fill="#6F46BE"/>
<path d="M121.085 45.7722L116.97 43.082L115.869 44.7792L119.984 47.4693L121.085 45.7722Z" fill="#EDE3FF"/>
<path d="M119.967 47.6499C119.931 47.6499 119.895 47.6319 119.876 47.6138L115.761 44.9237C115.725 44.9056 115.689 44.8695 115.689 44.8153C115.671 44.7612 115.689 44.7251 115.707 44.6709L116.826 42.9737C116.844 42.9376 116.898 42.9015 116.935 42.9015C116.989 42.8835 117.025 42.9015 117.061 42.9196L121.176 45.6097C121.194 45.6278 121.212 45.6458 121.23 45.6639C121.248 45.682 121.248 45.7 121.266 45.7361C121.266 45.7542 121.266 45.7903 121.266 45.8083C121.266 45.8264 121.248 45.8625 121.248 45.8806L120.129 47.5777C120.111 47.5958 120.093 47.6319 120.057 47.6319C120.039 47.6499 120.003 47.6499 119.967 47.6499ZM116.122 44.7251L119.931 47.2166L120.851 45.8264L117.025 43.3348L116.122 44.7251Z" fill="#6F46BE"/>
<path d="M116.953 47.343C116.917 47.343 116.88 47.325 116.862 47.3069L115.22 46.2236C115.202 46.2056 115.184 46.1875 115.166 46.1695C115.148 46.1514 115.148 46.1334 115.13 46.0972C115.13 46.0792 115.13 46.0431 115.13 46.025C115.13 46.007 115.148 45.9709 115.148 45.9528C115.166 45.9167 115.22 45.8806 115.256 45.8806C115.31 45.8625 115.346 45.8806 115.382 45.8986L117.025 46.9819C117.061 47 117.079 47.0361 117.097 47.0722C117.115 47.1083 117.115 47.1444 117.097 47.1805C117.079 47.2166 117.061 47.2527 117.025 47.2708C117.025 47.325 116.989 47.343 116.953 47.343Z" fill="#6F46BE"/>
<path d="M115.49 48.0833C115.454 48.0833 115.418 48.0652 115.4 48.0472L114.426 47.3972C114.389 47.3791 114.353 47.325 114.353 47.2889C114.335 47.2347 114.353 47.1986 114.371 47.1625C114.389 47.1444 114.407 47.1264 114.426 47.1083C114.444 47.0903 114.462 47.0903 114.498 47.0722C114.534 47.0541 114.552 47.0722 114.57 47.0722C114.588 47.0722 114.624 47.0903 114.642 47.0903L115.617 47.7402C115.653 47.7583 115.689 47.8124 115.689 47.8486C115.707 47.9027 115.689 47.9388 115.671 47.9749C115.653 47.993 115.635 48.0291 115.599 48.0291C115.563 48.0291 115.526 48.0833 115.49 48.0833Z" fill="#6F46BE"/>
<path d="M115.383 49.7081C115.347 49.7081 115.31 49.6901 115.292 49.672L113.65 48.5888C113.632 48.5707 113.614 48.5526 113.596 48.5346C113.578 48.5165 113.578 48.4985 113.56 48.4624C113.56 48.4443 113.56 48.4082 113.56 48.3902C113.56 48.3721 113.578 48.336 113.578 48.3179C113.596 48.2999 113.614 48.2818 113.632 48.2638C113.65 48.2457 113.668 48.2457 113.704 48.2277C113.74 48.2096 113.758 48.2277 113.776 48.2277C113.794 48.2277 113.83 48.2457 113.849 48.2638L115.491 49.3471C115.527 49.3651 115.563 49.4193 115.563 49.4554C115.581 49.5095 115.563 49.5457 115.545 49.5818C115.509 49.654 115.491 49.672 115.455 49.6901C115.419 49.7081 115.401 49.7081 115.383 49.7081Z" fill="#6F46BE"/>
<path d="M113.92 50.4664C113.884 50.4664 113.848 50.4484 113.83 50.4303L112.855 49.7804C112.819 49.7804 112.801 49.7623 112.801 49.7442C112.801 49.7262 112.783 49.7081 112.765 49.672C112.765 49.654 112.765 49.6179 112.765 49.5998C112.765 49.5818 112.783 49.5456 112.783 49.5276C112.801 49.5095 112.819 49.4915 112.837 49.4734C112.855 49.4554 112.874 49.4554 112.91 49.4373C112.928 49.4373 112.964 49.4373 112.982 49.4373C113 49.4373 113.036 49.4554 113.054 49.4734L114.029 50.1234C114.065 50.1415 114.101 50.1956 114.101 50.2317C114.119 50.2859 114.101 50.322 114.083 50.3581C114.065 50.3762 114.047 50.4123 114.011 50.4123C113.993 50.4484 113.956 50.4664 113.92 50.4664Z" fill="#6F46BE"/>
<path d="M113.812 52.0914C113.776 52.0914 113.74 52.0733 113.722 52.0552L112.08 50.972C112.043 50.9539 112.007 50.8997 112.007 50.8636C111.989 50.8095 112.007 50.7734 112.025 50.7372C112.043 50.7192 112.061 50.7011 112.08 50.6831C112.098 50.665 112.116 50.665 112.152 50.647C112.17 50.647 112.206 50.647 112.224 50.647C112.242 50.647 112.278 50.665 112.296 50.665L113.939 51.7483C113.975 51.7664 113.993 51.8025 114.011 51.8386C114.029 51.8747 114.029 51.9108 114.011 51.9469C113.993 51.983 113.975 52.0191 113.939 52.0372C113.884 52.0733 113.848 52.0914 113.812 52.0914Z" fill="#6F46BE"/>
<path d="M120.238 44.0931L118.848 43.1723L118.324 43.9667L119.714 44.8875L120.238 44.0931Z" fill="#6F46BE"/>
<path d="M119.732 45.0681C119.696 45.0681 119.66 45.05 119.642 45.032L118.252 44.1112C118.234 44.0931 118.216 44.0751 118.198 44.057C118.18 44.039 118.18 44.0209 118.162 43.9848C118.144 43.9306 118.162 43.8945 118.198 43.8404L118.721 43.046C118.739 43.0279 118.757 43.0099 118.776 42.9918C118.794 42.9737 118.812 42.9737 118.848 42.9557C118.866 42.9557 118.902 42.9557 118.92 42.9557C118.938 42.9557 118.974 42.9737 118.992 42.9737L120.382 43.8945C120.418 43.9126 120.454 43.9668 120.454 44.0029C120.472 44.057 120.454 44.0931 120.436 44.1292L119.913 44.9237C119.895 44.9417 119.876 44.9598 119.858 44.9778C119.84 44.9959 119.822 44.9959 119.786 45.0139C119.75 45.0681 119.732 45.0681 119.732 45.0681ZM118.577 43.9126L119.678 44.6348L120.003 44.1473L118.902 43.4251L118.577 43.9126Z" fill="#6F46BE"/>
<path d="M111.755 58.3383L109.083 56.587L108.704 57.1648L111.375 58.9161L111.755 58.3383Z" fill="#6F46BE"/>
<path d="M111.376 59.0965C111.34 59.0965 111.304 59.0785 111.285 59.0604L108.614 57.3091C108.596 57.2911 108.578 57.273 108.56 57.255C108.542 57.2369 108.542 57.2189 108.524 57.1827C108.524 57.1466 108.524 57.0925 108.56 57.0564L108.939 56.4786C108.957 56.4606 108.975 56.4425 108.993 56.4244C109.011 56.4064 109.029 56.4064 109.065 56.3883C109.084 56.3883 109.12 56.3883 109.138 56.3883C109.156 56.3883 109.192 56.4064 109.21 56.4064L111.881 58.1577C111.917 58.1758 111.953 58.2299 111.953 58.266C111.971 58.3202 111.953 58.3563 111.935 58.4105L111.556 58.9882C111.538 59.0063 111.52 59.0243 111.484 59.0424C111.43 59.0785 111.412 59.0965 111.376 59.0965ZM108.957 57.1105L111.322 58.6632L111.502 58.3924L109.138 56.8217L108.957 57.1105Z" fill="#6F46BE"/>
</g>
<mask id="mask1_90_10424" style="mask-type:luminance" maskUnits="userSpaceOnUse" x="-22" y="3" width="69" height="96">
<path d="M3.28198 98.7301L46.2838 86.4221L21.9411 3.38164L-21.0607 15.6897L3.28198 98.7301Z" fill="white"/>
</mask>
<g mask="url(#mask1_90_10424)">
<path d="M17.0803 60.3876C17.4009 60.2157 17.6917 59.985 17.9132 59.722C18.1347 59.459 18.3262 59.1372 18.4274 58.7861C18.5315 58.4556 18.5664 58.0929 18.5378 57.7391C18.5092 57.3854 18.3961 57.0437 18.2225 56.7316L12.6655 46.4298C12.4051 45.9617 12.0055 45.5765 11.536 45.3065C11.0482 45.0601 10.4935 44.9495 9.96214 45.0039L8.42082 42.1923C8.35808 42.0539 8.27712 41.9391 8.17503 41.8273C8.07294 41.7156 7.93442 41.651 7.7959 41.5865C7.6603 41.5427 7.50649 41.5224 7.3556 41.5228C7.20472 41.5232 7.05968 41.5649 6.92049 41.6478C6.77837 41.7101 6.66325 41.8106 6.57218 41.9288C6.48111 42.0469 6.4141 42.1827 6.36823 42.3155C6.32529 42.469 6.32462 42.6164 6.34509 42.7608C6.36555 42.9052 6.42829 43.0436 6.50925 43.1584L8.05349 45.9907C7.70158 46.3985 7.49405 46.912 7.41918 47.4488C7.36545 47.9826 7.46261 48.516 7.72594 49.0047L13.3223 59.2799C13.4959 59.592 13.73 59.8744 13.9976 60.0889C14.2892 60.3211 14.5933 60.4883 14.9519 60.5847C15.3106 60.6811 15.6845 60.7332 16.0439 60.6821C16.4061 60.6517 16.7567 60.5388 17.0803 60.3876Z" fill="white"/>
<path d="M12.6207 48.2461C12.6629 48.2401 12.7293 48.2517 12.7562 48.2899C12.8044 48.3252 12.8313 48.3634 12.8372 48.4047C12.843 48.4459 12.8518 48.5078 12.8365 48.552C12.8212 48.5963 12.7848 48.6436 12.7425 48.6496L9.54888 50.3027C9.50954 50.3293 9.44614 50.3383 9.37689 50.3061C9.30764 50.2738 9.28359 50.2562 9.25368 50.1973C9.2267 50.1591 9.21794 50.0972 9.2303 50.0323C9.24559 49.9881 9.28201 49.9408 9.32135 49.9142L12.515 48.2611C12.5784 48.2521 12.5995 48.2491 12.6207 48.2461Z" fill="#6F46BE"/>
<path d="M13.4083 49.6918C13.4294 49.6888 13.4717 49.6828 13.4928 49.6798C13.514 49.6768 13.5592 49.6914 13.5832 49.7091C13.6313 49.7443 13.6794 49.7796 13.6882 49.8414C13.6911 49.8621 13.697 49.9033 13.6999 49.9239C13.7028 49.9446 13.6875 49.9888 13.6693 50.0124C13.6329 50.0597 13.5965 50.107 13.5331 50.116L10.3394 51.7691C10.3183 51.7721 10.279 51.7987 10.2578 51.8017C10.2367 51.8047 10.1944 51.8107 10.1704 51.7931C10.1463 51.7755 10.1252 51.7785 10.1011 51.7609C10.0771 51.7432 10.053 51.7256 10.0501 51.705C10.0472 51.6844 10.0202 51.6461 10.0173 51.6255C10.0143 51.6049 10.0085 51.5636 10.0267 51.54C10.0449 51.5164 10.042 51.4957 10.0602 51.4721C10.0784 51.4485 10.0966 51.4248 10.1177 51.4218L13.3114 49.7687C13.369 49.7185 13.3901 49.7155 13.4083 49.6918Z" fill="#6F46BE"/>
<path d="M14.2011 51.1789C14.2434 51.1729 14.3097 51.1845 14.3338 51.2021C14.3819 51.2374 14.4089 51.2756 14.4147 51.3169C14.4205 51.3581 14.4293 51.42 14.414 51.4643C14.3987 51.5085 14.3623 51.5558 14.3201 51.5618L11.1264 53.2149C11.0659 53.2445 11.0237 53.2505 10.9573 53.2389C10.9121 53.2243 10.864 53.189 10.8341 53.1302C10.8042 53.0713 10.7984 53.03 10.8107 52.9652C10.826 52.9209 10.8625 52.8736 10.9229 52.844L14.1166 51.1909C14.1588 51.1849 14.18 51.1819 14.2011 51.1789Z" fill="#6F46BE"/>
<path d="M14.9881 52.6247C15.0304 52.6187 15.0967 52.6303 15.1208 52.6479C15.1689 52.6831 15.1959 52.7214 15.2017 52.7626C15.2076 52.8039 15.2163 52.8658 15.2011 52.91C15.1858 52.9543 15.1493 53.0015 15.1071 53.0075L11.9134 54.6607C11.8923 54.6637 11.853 54.6903 11.8318 54.6933C11.8107 54.6963 11.7684 54.7023 11.7444 54.6847C11.7203 54.667 11.6992 54.6701 11.6751 54.6524C11.6511 54.6348 11.627 54.6172 11.6241 54.5966C11.6212 54.5759 11.5942 54.5377 11.5913 54.5171C11.5883 54.4964 11.5825 54.4552 11.6007 54.4316C11.6189 54.4079 11.616 54.3873 11.6342 54.3637C11.6524 54.34 11.6706 54.3164 11.6917 54.3134L14.8854 52.6603C14.9488 52.6513 14.9699 52.6483 14.9881 52.6247Z" fill="#6F46BE"/>
<path d="M15.7779 54.0911C15.8202 54.0851 15.8865 54.0967 15.9317 54.1113C15.9798 54.1466 16.0068 54.1848 16.0338 54.2231C16.0396 54.2643 16.0484 54.3262 16.0331 54.3704C16.0178 54.4147 15.9814 54.462 15.9391 54.468L12.7455 56.1211C12.7243 56.1241 12.685 56.1507 12.6638 56.1537C12.6427 56.1567 12.6004 56.1627 12.5764 56.1451C12.5523 56.1275 12.5312 56.1305 12.5071 56.1128C12.4831 56.0952 12.459 56.0776 12.4561 56.057C12.4532 56.0363 12.4262 55.9981 12.4233 55.9775C12.4204 55.9568 12.4145 55.9156 12.4327 55.892C12.4509 55.8683 12.448 55.8477 12.4662 55.8241C12.4844 55.8005 12.5026 55.7768 12.5238 55.7738L15.7174 54.1207C15.7386 54.1177 15.7568 54.0941 15.7779 54.0911Z" fill="#6F46BE"/>
<path d="M16.5682 55.5574C16.6104 55.5514 16.6768 55.563 16.7008 55.5806C16.7489 55.6159 16.7759 55.6541 16.7818 55.6954C16.7876 55.7366 16.7964 55.7985 16.7811 55.8428C16.7658 55.887 16.7294 55.9343 16.6871 55.9403L13.4935 57.5934C13.4723 57.5964 13.433 57.623 13.4119 57.626C13.3907 57.629 13.3484 57.635 13.3244 57.6174C13.3003 57.5998 13.2792 57.6028 13.2551 57.5852C13.2311 57.5675 13.207 57.5499 13.2041 57.5293C13.2012 57.5087 13.1742 57.4704 13.1713 57.4498C13.1684 57.4292 13.1625 57.3879 13.1807 57.3643C13.1989 57.3407 13.196 57.32 13.2142 57.2964C13.2324 57.2728 13.2506 57.2492 13.2718 57.2461L16.5048 55.5664C16.5259 55.5634 16.547 55.5604 16.5682 55.5574Z" fill="#6F46BE"/>
<path d="M11.8606 46.8385C11.9028 46.8325 11.9692 46.8441 11.9932 46.8618C12.0413 46.897 12.0683 46.9353 12.0742 46.9765C12.08 47.0178 12.0888 47.0796 12.0735 47.1239C12.0582 47.1681 12.0218 47.2154 11.9795 47.2214L8.78586 48.8745C8.76473 48.8775 8.72538 48.9042 8.70425 48.9072C8.68311 48.9102 8.64085 48.9162 8.61679 48.8985C8.59273 48.8809 8.5716 48.8839 8.54754 48.8663C8.52349 48.8487 8.49943 48.831 8.49651 48.8104C8.49358 48.7898 8.4666 48.7516 8.46368 48.7309C8.46076 48.7103 8.45491 48.669 8.47312 48.6454C8.49133 48.6218 8.48841 48.6012 8.50662 48.5775C8.52483 48.5539 8.54304 48.5303 8.56418 48.5273L11.7578 46.8742C11.7972 46.8475 11.8394 46.8415 11.8606 46.8385Z" fill="#6F46BE"/>
<path d="M15.8033 58.5274L16.1451 58.3526C16.4657 58.1808 16.6034 57.7824 16.4297 57.4703L8.07147 42.0102C7.89786 41.6981 7.49106 41.5665 7.17039 41.7383L6.84973 41.9102C6.52906 42.082 6.39145 42.4804 6.56507 42.7924L14.9022 58.2556C15.0758 58.5677 15.4797 58.6786 15.8033 58.5274Z" fill="#EDE3FF"/>
<path d="M7.3439 41.4401C7.513 41.416 7.71201 41.4509 7.8746 41.533C8.03718 41.6152 8.16334 41.7446 8.25014 41.9006L16.6084 57.3607C16.6653 57.4578 16.6828 57.5816 16.6974 57.6848C16.712 57.7879 16.6873 57.9177 16.6597 58.0269C16.632 58.1361 16.5591 58.2306 16.4863 58.3251C16.4134 58.4197 16.3136 58.4759 16.2137 58.5322L15.8931 58.704C15.6934 58.8166 15.4368 58.832 15.2108 58.7589C14.9848 58.6858 14.7923 58.5447 14.6997 58.3474L6.34146 42.8873C6.22767 42.693 6.21372 42.4425 6.26904 42.2241C6.34549 42.0028 6.4912 41.8138 6.6938 41.7218L7.01447 41.55C7.15658 41.4877 7.23821 41.4551 7.3439 41.4401ZM15.5657 58.3717C15.6079 58.3657 15.6714 58.3567 15.7107 58.3301L16.0314 58.1582C16.0919 58.1286 16.1312 58.102 16.1676 58.0547C16.2041 58.0074 16.2405 57.9602 16.2529 57.8953C16.2652 57.8304 16.2805 57.7861 16.2717 57.7242C16.263 57.6623 16.2542 57.6004 16.2272 57.5622L7.88721 42.0784C7.8573 42.0195 7.83031 41.9813 7.78219 41.946C7.73406 41.9108 7.68594 41.8755 7.6196 41.8639C7.55327 41.8523 7.50807 41.8377 7.44465 41.8467C7.38124 41.8557 7.31783 41.8647 7.27847 41.8913L6.95781 42.0632C6.89732 42.0928 6.85797 42.1194 6.82154 42.1667C6.78512 42.214 6.74869 42.2612 6.73632 42.3261C6.72396 42.391 6.70866 42.4353 6.71744 42.4972C6.72621 42.5591 6.73498 42.621 6.76197 42.6592L15.102 58.143C15.1589 58.2401 15.258 58.3313 15.3696 58.3575C15.4177 58.3928 15.4811 58.3837 15.5657 58.3717Z" fill="#6F46BE"/>
<path d="M11.788 48.9109L8.24795 42.3424C7.9817 41.833 7.40941 41.5986 7.01005 41.8237C6.6107 42.0488 6.47534 42.6153 6.7416 43.1246L10.2816 49.6932L11.788 48.9109Z" fill="#6F46BE"/>
<path d="M7.30142 41.4463C7.55507 41.4103 7.82041 41.4568 8.05225 41.5712C8.28409 41.6856 8.48243 41.8678 8.60206 42.1034L10.0653 44.8209C10.6208 44.7841 11.1996 44.9123 11.6932 45.2C12.1838 45.467 12.5864 45.8728 12.8497 46.3616L18.419 56.5984C18.5955 56.9311 18.7145 57.3141 18.746 57.6885C18.7775 58.0628 18.7456 58.4462 18.6262 58.8209C18.5068 59.1957 18.3181 59.5382 18.0784 59.8248C17.8176 60.1144 17.5086 60.3688 17.1668 60.5436C16.825 60.7184 16.4322 60.8374 16.0488 60.8708C15.6654 60.9042 15.2521 60.8788 14.8905 60.7618C14.5078 60.6478 14.1586 60.4659 13.8669 60.2337C13.5723 59.9809 13.3142 59.6809 13.1376 59.3482L7.58653 49.0877C7.3232 48.5989 7.20198 48.0479 7.25279 47.4935C7.30359 46.9391 7.50821 46.4049 7.85426 45.9558L6.39098 43.2383C6.24144 42.9439 6.19466 42.6138 6.29876 42.2833C6.40579 41.9735 6.60321 41.6929 6.90565 41.5447C7.00842 41.509 7.15346 41.4674 7.30142 41.4463ZM16.1412 60.4578C16.4371 60.4158 16.7243 60.3118 16.9874 60.1903C17.2898 60.0421 17.5383 59.8173 17.7627 59.575C17.9842 59.312 18.1393 59.0374 18.2434 58.707C18.3505 58.3971 18.3671 58.058 18.3415 57.7249C18.3158 57.3918 18.2056 57.0707 18.059 56.7969L12.4868 46.5394C12.2533 46.1095 11.8778 45.742 11.4352 45.5102C10.9927 45.2784 10.4832 45.1825 9.97294 45.2339C9.93066 45.2399 9.88546 45.2253 9.8614 45.2077C9.8162 45.193 9.78922 45.1548 9.78337 45.1135L8.23913 42.2812C8.20045 42.1604 8.12242 42.0663 8.04731 41.9928C7.96928 41.8986 7.85483 41.8518 7.74037 41.8049C7.62591 41.758 7.5173 41.7524 7.38755 41.7498C7.2578 41.7472 7.15504 41.7828 7.03406 41.8421C6.93422 41.8984 6.83731 41.9753 6.76445 42.0698C6.6916 42.1644 6.64281 42.2765 6.61515 42.3857C6.5875 42.4948 6.5839 42.6216 6.60144 42.7454C6.61899 42.8692 6.67588 42.9663 6.73278 43.0635L8.27701 45.8958C8.304 45.934 8.30984 45.9753 8.29455 46.0196C8.3004 46.0608 8.28511 46.1051 8.24576 46.1317C7.91207 46.5159 7.71982 46.9852 7.66025 47.4777C7.60067 47.9702 7.71312 48.4593 7.94946 48.9098L13.5217 59.1673C13.7581 59.6178 14.1547 59.9824 14.6213 60.2318C15.085 60.4605 15.6157 60.5535 16.1412 60.4578Z" fill="#6F46BE"/>
</g>
<mask id="mask2_90_10424" style="mask-type:luminance" maskUnits="userSpaceOnUse" x="65" y="-6" width="69" height="75">
<path d="M95.7063 -5.38558L65.7911 47.2388L103.356 68.6931L133.271 16.0687L95.7063 -5.38558Z" fill="white"/>
</mask>
<g mask="url(#mask2_90_10424)">
<path d="M102.067 42.8821L91.7664 40.1511C91.4488 40.0669 91.167 39.9032 90.9174 39.674C90.6815 39.4484 90.5054 39.1645 90.4131 38.8436C90.317 38.5364 90.3047 38.1922 90.3752 37.8699C90.4457 37.5477 90.5991 37.2474 90.8105 37.0069L95.1166 32.0706L103.153 34.2012L104.453 40.6238C104.514 40.9513 104.502 41.2744 104.404 41.5893C104.306 41.9043 104.129 42.1834 103.89 42.4165C103.655 42.6358 103.357 42.809 103.041 42.8882C102.724 42.9674 102.385 42.9663 102.067 42.8821Z" fill="#EDE3FF"/>
<path d="M101.156 22.9956L99.6093 28.7832C99.492 29.2265 99.2642 29.6406 98.9681 29.9773L92.4684 37.4467C92.2533 37.701 92.1035 37.9875 92.033 38.3098C91.9625 38.6322 91.9785 38.9626 92.0709 39.2836C92.167 39.5908 92.3394 39.8886 92.5753 40.1142C92.8112 40.3398 93.1068 40.5072 93.4245 40.5914L91.7671 40.152C91.4495 40.0678 91.1676 39.9041 90.9179 39.6748C90.6821 39.4492 90.5059 39.1653 90.4135 38.8442C90.3175 38.5371 90.3051 38.1928 90.3757 37.8705C90.4462 37.5482 90.5996 37.2478 90.811 37.0073L97.3108 29.5379C97.6105 29.1874 97.8346 28.7872 97.952 28.3438L99.4986 22.5563L101.156 22.9956Z" fill="white"/>
<path d="M102.014 43.0898L91.7117 40.3586C91.3665 40.267 91.0294 40.0887 90.7733 39.8281C90.5135 39.5813 90.3171 39.2624 90.2182 38.91C90.1193 38.5576 90.0969 38.1958 90.1784 37.832C90.2562 37.482 90.4206 37.1401 90.6568 36.8617L97.1557 29.3927C97.4342 29.0663 97.6372 28.6901 97.7472 28.2745L99.3486 22.2795L104.32 23.5976L102.746 29.5999C102.636 30.0155 102.627 30.4429 102.707 30.8645L104.66 40.5742C104.727 40.9331 104.718 41.3014 104.595 41.6543C104.49 41.9969 104.288 42.314 104.028 42.5712C103.767 42.8284 103.443 42.9943 103.091 43.0939C102.74 43.1934 102.373 43.185 102.014 43.0898ZM99.6492 22.8188L98.1578 28.3982C98.0332 28.8692 97.7981 29.311 97.4773 29.6855L90.9784 37.1545C90.7881 37.3709 90.6559 37.6472 90.5963 37.9279C90.5368 38.2087 90.5463 38.5077 90.6359 38.7835C90.7255 39.0593 90.8776 39.322 91.0932 39.5126C91.3051 39.717 91.563 39.8595 91.8392 39.9328L102.141 42.664C102.417 42.7372 102.712 42.7412 102.997 42.6686C103.282 42.5959 103.541 42.4569 103.755 42.2616C103.969 42.0664 104.125 41.8113 104.212 41.5379C104.3 41.2645 104.321 40.9589 104.263 40.6766L102.311 30.967C102.217 30.4826 102.231 29.9823 102.356 29.5112L103.82 23.9245L99.6492 22.8188Z" fill="#6F46BE"/>
<path d="M99.4006 20.9725C99.2211 20.9249 99.0232 20.9466 98.8623 21.0522C98.705 21.1439 98.5745 21.302 98.5269 21.4821C98.4792 21.6622 98.5006 21.8606 98.6057 22.0219C98.697 22.1795 98.8545 22.3102 99.034 22.3578L100.553 22.7605L100.919 21.3752L99.4006 20.9725Z" fill="white"/>
<path d="M104.691 24.1535L98.8915 22.6162C98.6568 22.554 98.4477 22.3948 98.326 22.1847C98.2043 21.9745 98.17 21.7135 98.2323 21.478C98.2946 21.2426 98.4536 21.0328 98.6633 20.9105C98.873 20.7882 99.1334 20.7535 99.3681 20.8157L105.167 22.353C105.402 22.4152 105.611 22.5744 105.733 22.7845C105.854 22.9947 105.889 23.2557 105.826 23.4912C105.764 23.7266 105.605 23.9364 105.395 24.0587C105.186 24.181 104.925 24.2157 104.691 24.1535ZM99.2581 21.2312C99.1338 21.1983 98.9949 21.2207 98.8763 21.2782C98.7539 21.3495 98.6832 21.4493 98.6465 21.5878C98.6099 21.7263 98.6358 21.8518 98.693 21.9707C98.764 22.0933 98.8634 22.1641 99.0015 22.2007L104.801 23.738C104.925 23.7709 105.064 23.7485 105.182 23.691C105.305 23.6197 105.376 23.5199 105.412 23.3814C105.445 23.2567 105.423 23.1174 105.366 22.9985C105.295 22.8759 105.195 22.8051 105.057 22.7685L99.2581 21.2312Z" fill="#6F46BE"/>
<path d="M103.23 26.8802L101.297 26.3678C101.242 26.3532 101.194 26.3109 101.16 26.2722C101.126 26.2335 101.13 26.1606 101.145 26.1052C101.16 26.0498 101.202 26.0017 101.241 25.9675C101.279 25.9333 101.352 25.9377 101.407 25.9524L103.34 26.4648C103.395 26.4794 103.443 26.5217 103.477 26.5604C103.512 26.5991 103.507 26.672 103.492 26.7274C103.478 26.7828 103.435 26.8309 103.397 26.8651C103.358 26.8993 103.285 26.8949 103.23 26.8802Z" fill="#6F46BE"/>
<path d="M102.607 29.2357L100.674 28.7232C100.618 28.7086 100.57 28.6663 100.536 28.6276C100.502 28.5889 100.507 28.516 100.521 28.4606C100.536 28.4052 100.578 28.3571 100.617 28.3229C100.669 28.2923 100.728 28.2931 100.783 28.3078L102.716 28.8202C102.772 28.8348 102.82 28.8772 102.854 28.9158C102.888 28.9545 102.883 29.0274 102.869 29.0828C102.854 29.1382 102.812 29.1863 102.773 29.2205C102.734 29.2547 102.662 29.2503 102.607 29.2357Z" fill="#6F46BE"/>
<path d="M102.535 31.7375L100.05 31.0787C99.9946 31.0641 99.9467 31.0217 99.9126 30.983C99.8785 30.9444 99.883 30.8715 99.8977 30.8161C99.9123 30.7607 99.9546 30.7126 99.9932 30.6784C100.032 30.6441 100.105 30.6486 100.16 30.6632L102.645 31.322C102.7 31.3367 102.748 31.379 102.782 31.4177C102.813 31.4702 102.812 31.5293 102.797 31.5846C102.783 31.64 102.754 31.6918 102.705 31.7085C102.653 31.7391 102.59 31.7521 102.535 31.7375Z" fill="#6F46BE"/>
<path d="M103.016 34.3856L95.1456 32.2998C95.0904 32.2851 95.0425 32.2428 95.0084 32.2041C94.9743 32.1655 94.9789 32.0926 94.9935 32.0372C95.0082 31.9818 95.0505 31.9337 95.0891 31.8995C95.1277 31.8653 95.2004 31.8698 95.2556 31.8844L103.126 33.9702C103.181 33.9849 103.229 34.0272 103.263 34.0659C103.297 34.1045 103.292 34.1774 103.278 34.2328C103.263 34.2882 103.221 34.3363 103.182 34.3705C103.144 34.4047 103.071 34.4003 103.016 34.3856Z" fill="#6F46BE"/>
<path d="M103.635 37.0703L100.735 36.3018C100.68 36.2871 100.632 36.2448 100.598 36.2061C100.567 36.1536 100.568 36.0945 100.583 36.0391C100.598 35.9838 100.64 35.9357 100.679 35.9015C100.717 35.8672 100.79 35.8717 100.845 35.8863L103.745 36.6549C103.8 36.6695 103.848 36.7119 103.882 36.7505C103.916 36.7892 103.911 36.8621 103.897 36.9175C103.882 36.9729 103.854 37.0246 103.805 37.0413C103.752 37.0719 103.69 37.085 103.635 37.0703Z" fill="#6F46BE"/>
<path d="M104.116 39.7185L101.216 38.9499C101.161 38.9353 101.113 38.893 101.079 38.8543C101.048 38.8018 101.049 38.7427 101.064 38.6873C101.079 38.6319 101.121 38.5838 101.159 38.5496C101.212 38.5191 101.271 38.5198 101.326 38.5345L104.226 39.303C104.281 39.3177 104.329 39.36 104.363 39.3987C104.393 39.4512 104.392 39.5103 104.378 39.5657C104.363 39.6211 104.321 39.6691 104.282 39.7034C104.233 39.7201 104.171 39.7331 104.116 39.7185Z" fill="#6F46BE"/>
</g>
<path d="M60.7616 16.6115C59.8908 16.31 59.4131 15.3627 59.6867 14.4937L60.3395 12.459L60.9923 10.4242C61.2742 9.55599 62.2075 9.09624 63.079 9.38952C63.9497 9.69104 64.4275 10.6383 64.1538 11.5074L62.8438 15.5805C62.5663 16.4451 61.6368 16.9093 60.7616 16.6115Z" fill="white"/>
<path d="M59.8818 16.2095C59.787 16.0965 59.7055 15.9723 59.6411 15.8415C59.418 15.4047 59.3744 14.8943 59.5254 14.4363L60.8311 10.3668C61.1407 9.40591 62.1733 8.89372 63.137 9.22513C63.6008 9.38285 63.9888 9.71976 64.2074 10.1603C64.4305 10.5971 64.4741 11.1075 64.323 11.5655L63.013 15.6386C62.7033 16.5996 61.6708 17.1118 60.7071 16.7804C60.3886 16.6701 60.1017 16.4718 59.8818 16.2095ZM63.7013 10.015C63.2539 9.4814 62.5088 9.32087 61.8978 9.62571C61.5451 9.79837 61.2816 10.1043 61.1616 10.4824L59.8515 14.5555C59.6057 15.3319 60.0411 16.1837 60.8196 16.4471C61.5981 16.7105 62.424 16.3024 62.6781 15.5268L63.9925 11.45C64.1164 11.0764 64.0817 10.6664 63.8978 10.3123C63.8396 10.207 63.7771 10.1054 63.7013 10.015Z" fill="#6F46BE"/>
<path d="M63.4869 13.5075L62.8233 15.5743C62.5415 16.4426 61.6081 16.9023 60.7367 16.6091C59.8659 16.3075 59.3882 15.3603 59.6618 14.4912L60.3146 12.4565L63.4869 13.5075Z" fill="#EDE3FF"/>
<path d="M59.8608 16.2655C59.4476 15.7726 59.313 15.0998 59.5045 14.4923L60.8145 10.4191C61.1242 9.45821 62.1567 8.94602 63.1242 9.28195C64.0879 9.61337 64.6162 10.6569 64.3103 11.6223L63.0002 15.6955C62.6906 16.6564 61.658 17.1686 60.6943 16.8372C60.3676 16.7262 60.0808 16.5278 59.8608 16.2655ZM63.6841 10.0755C63.1451 9.44164 62.2086 9.34936 61.5886 9.87733C61.3807 10.0518 61.231 10.2777 61.1488 10.5392L59.8388 14.6123C59.5885 15.3924 60.0201 16.2397 60.8024 16.5077C61.5809 16.771 62.4195 16.36 62.6698 15.5799L63.9798 11.5068C64.1289 11.0195 64.0215 10.478 63.6841 10.0755Z" fill="#6F46BE"/>
<path d="M63.3878 13.506L60.4158 12.4872L63.3878 13.506Z" fill="white"/>
<path d="M60.2831 12.5985C60.2187 12.5217 60.2269 12.4146 60.3021 12.3515C60.3463 12.3144 60.4095 12.2999 60.4702 12.3183L63.4421 13.3371C63.535 13.367 63.5849 13.4715 63.5533 13.5596C63.5255 13.6523 63.4225 13.7002 63.3341 13.6666L60.3621 12.6478C60.3337 12.6409 60.3021 12.6212 60.2831 12.5985Z" fill="#6F46BE"/>
<path d="M86.9646 21.1275C87.2517 22.1644 86.6523 23.2445 85.6289 23.549L83.2269 24.2437L80.8229 24.9449C79.7949 25.241 78.7293 24.6416 78.4338 23.6096C78.1467 22.5727 78.7462 21.4925 79.7695 21.188L84.5839 19.7874C85.61 19.4979 86.6776 20.0906 86.9646 21.1275Z" fill="#6F46BE"/>
<path d="M87.1671 22.2404C87.1207 22.4058 87.0547 22.5656 86.9709 22.7133C86.6963 23.2141 86.2312 23.5899 85.6873 23.7438L80.8729 25.1444C79.7367 25.4743 78.5543 24.8136 78.2344 23.6676C78.0787 23.1172 78.1469 22.5228 78.428 22.0238C78.7026 21.5231 79.1677 21.1472 79.7116 20.9933L84.526 19.5927C85.6622 19.2628 86.8446 19.9235 87.1645 21.0695C87.2696 21.4487 87.2683 21.855 87.1671 22.2404ZM78.6239 22.6069C78.4048 23.3873 78.7447 24.2107 79.4461 24.6006C79.8478 24.8277 80.3191 24.8817 80.765 24.7502L85.5794 23.3496C86.4945 23.0788 87.0297 22.1019 86.7671 21.179C86.5045 20.256 85.5602 19.7265 84.6404 19.9888L79.826 21.3894C79.3819 21.5143 79.0082 21.8159 78.7876 22.2248C78.7196 22.3413 78.661 22.4747 78.6239 22.6069Z" fill="#6F46BE"/>
<path d="M82.1489 20.5226L84.5911 19.8107C85.6191 19.5146 86.6848 20.1139 86.9803 21.146C87.2674 22.1829 86.6679 23.2631 85.6446 23.5676L83.2406 24.2688L82.1489 20.5226Z" fill="#EDE3FF"/>
<path d="M87.2284 22.222C87.026 22.9429 86.4641 23.5127 85.7486 23.7254L80.9426 25.1212C79.8064 25.4511 78.624 24.7904 78.3059 23.6378C77.9861 22.4918 78.6451 21.3 79.7831 20.9635L84.5975 19.5629C85.7337 19.233 86.9162 19.8937 87.2361 21.0397C87.3374 21.4321 87.3361 21.8384 87.2284 22.222ZM78.6936 22.5837C78.4383 23.518 78.9716 24.4814 79.895 24.7339C80.2021 24.8203 80.5204 24.817 80.8282 24.7251L85.6426 23.3245C86.5642 23.0556 87.0976 22.0853 86.8433 21.1576C86.5807 20.2346 85.6252 19.6948 84.7036 19.9637L79.8892 21.3644C79.3117 21.5374 78.8589 21.9951 78.6936 22.5837Z" fill="#6F46BE"/>
<path d="M82.2121 20.6259L83.2018 24.1581L82.2121 20.6259Z" fill="#6F46BE"/>
<path d="M83.3977 24.2132C83.3662 24.3256 83.2571 24.3877 83.146 24.3565C83.0806 24.3381 83.0245 24.2866 83.002 24.2161L82.0123 20.684C81.9795 20.5748 82.0475 20.4584 82.1538 20.4312C82.262 20.3974 82.3769 20.4654 82.4032 20.5727L83.3929 24.1048C83.4051 24.1368 83.407 24.1801 83.3977 24.2132Z" fill="#6F46BE"/>
<path d="M71.2191 23.6624L72.4143 25.139C73.5386 26.5281 76.2396 25.8431 78.6729 23.8717C81.1062 21.9004 82.3376 19.3996 81.2132 18.0105L80.018 16.5338" fill="#EDE3FF"/>
<path d="M78.8058 24.0358C76.1662 26.1744 73.4024 26.693 72.2514 25.2711L71.0563 23.7944C71.0208 23.7507 71.0072 23.6893 71.0023 23.6389C71.0084 23.5797 71.043 23.5336 71.0864 23.4984C71.1299 23.4632 71.191 23.4498 71.2413 23.4453C71.3005 23.4517 71.3467 23.4867 71.3821 23.5304L72.5773 25.007C73.5777 26.243 76.0852 25.6966 78.5403 23.7077C80.9953 21.7187 82.0508 19.3785 81.0504 18.1425L79.8552 16.6659C79.8198 16.6221 79.8061 16.5608 79.8013 16.5104C79.8073 16.4512 79.8419 16.405 79.8854 16.3698C79.9288 16.3346 79.99 16.3213 80.0403 16.3168C80.0994 16.3232 80.1457 16.3581 80.1811 16.4019L81.3763 17.8785C82.5272 19.3004 81.4564 21.8885 78.8058 24.0358Z" fill="#6F46BE"/>
<path d="M77.1684 22.0122C79.6017 20.0408 80.8951 17.6166 80.0629 16.5885C79.2307 15.5603 76.5916 16.3219 74.1584 18.2933C71.7251 20.2646 70.4317 22.6888 71.2639 23.717C72.0961 24.7452 74.746 23.9747 77.1684 22.0122Z" fill="#EDE3FF"/>
<path d="M77.3009 22.1762C74.6177 24.35 72.0656 25.0412 71.1006 23.849C70.1356 22.6567 71.342 20.3029 74.0252 18.1292C76.7083 15.9554 79.2605 15.2642 80.2255 16.4564C81.1905 17.6486 79.9949 19.9936 77.3009 22.1762ZM74.2908 18.4573C71.8792 20.411 70.6474 22.6224 71.4265 23.5849C72.2056 24.5475 74.6237 23.8018 77.0353 21.8481C79.4468 19.8943 80.6787 17.683 79.8996 16.7204C79.1205 15.7579 76.7132 16.4947 74.2908 18.4573Z" fill="#6F46BE"/>
<path d="M56.174 26.2534C55.2559 26.5498 54.2555 26.0633 53.9316 25.1698L53.1835 23.0704L52.4354 20.9709C52.1189 20.073 52.6055 19.1051 53.5188 18.8014C54.4369 18.505 55.4373 18.9915 55.7612 19.885L57.2561 24.0897C57.574 24.9818 57.0934 25.9511 56.174 26.2534Z" fill="white"/>
<path d="M55.1845 26.472C55.0336 26.4376 54.8867 26.3857 54.7498 26.3176C54.2862 26.0949 53.9256 25.6985 53.7606 25.2233L52.2656 21.0186C51.9135 20.0262 52.4495 18.9525 53.4641 18.6226C53.9513 18.4623 54.489 18.4984 54.9513 18.7268C55.415 18.9495 55.7756 19.3459 55.9406 19.8211L57.4355 24.0258C57.7877 25.0182 57.2517 26.0919 56.2371 26.4218C55.894 26.5348 55.5346 26.5517 55.1845 26.472ZM54.4354 18.9299C53.7231 18.7678 52.9995 19.1024 52.6834 19.7392C52.4989 20.104 52.4734 20.5235 52.6134 20.9129L54.1084 25.1176C54.3966 25.9167 55.301 26.3506 56.1179 26.0804C56.9348 25.8102 57.3646 24.9527 57.0837 24.1491L55.5888 19.9444C55.4548 19.5564 55.1653 19.2378 54.7869 19.0592C54.6729 19.0025 54.5561 18.9574 54.4354 18.9299Z" fill="#6F46BE"/>
<path d="M56.4753 21.9645L57.2349 24.0974C57.5514 24.9953 57.0648 25.9632 56.1514 26.2669C55.2333 26.5633 54.2329 26.0767 53.909 25.1833L53.1609 23.0839L56.4753 21.9645Z" fill="#6F46BE"/>
<path d="M55.2031 26.5316C54.5451 26.3819 54.0053 25.9077 53.7791 25.283L52.2842 21.0782C51.932 20.0859 52.4681 19.0122 53.4887 18.6836C54.5033 18.3536 55.607 18.8883 55.9652 19.8821L57.4601 24.0868C57.8123 25.0792 57.2763 26.1529 56.2617 26.4829C55.9186 26.5958 55.5532 26.6113 55.2031 26.5316ZM54.46 18.9909C53.6075 18.8031 52.7676 19.3145 52.5858 20.1422C52.5232 20.4177 52.5417 20.6992 52.6394 20.968L54.1343 25.1728C54.4211 25.9777 55.3196 26.4102 56.1425 26.1414C56.9594 25.8712 57.3979 25.0033 57.111 24.1984L55.6161 19.9937C55.4309 19.4954 54.9972 19.1132 54.46 18.9909Z" fill="#6F46BE"/>
<path d="M56.3855 22.0242L53.2588 23.0444L56.3855 22.0242Z" fill="white"/>
<path d="M53.2249 23.2216C53.1222 23.1983 53.0611 23.1042 53.0837 23.0046C53.0971 22.946 53.1406 22.8943 53.2029 22.8715L56.3296 21.8512C56.4261 21.8177 56.5341 21.8731 56.5637 21.9662C56.5934 22.0592 56.5439 22.165 56.4488 22.1927L53.3221 23.2129C53.2879 23.2236 53.255 23.2285 53.2249 23.2216Z" fill="#6F46BE"/>
<mask id="mask3_90_10424" style="mask-type:luminance" maskUnits="userSpaceOnUse" x="-22" y="-28" width="115" height="119">
<path d="M39.2048 -27.3545L-21.5487 44.4339L32.225 90.0288L92.9786 18.2403L39.2048 -27.3545Z" fill="white"/>
</mask>
<g mask="url(#mask3_90_10424)">
<path d="M40.9141 23.9123L39.8437 26.8338C39.6402 27.3891 39.9305 28.0161 40.4853 28.2196L43.4043 29.2906L40.9141 23.9123Z" fill="white"/>
<path d="M41.805 15.9858L28.5366 11.0675C27.5182 10.6938 26.3683 11.2272 25.9948 12.2466L16.2119 38.6737C15.8384 39.6931 16.3712 40.8439 17.3897 41.2176L36.0162 48.1018C37.0346 48.4755 38.1845 47.942 38.558 46.9227L46.3318 25.8421L41.805 15.9858Z" fill="white"/>
<path d="M35.8532 48.545L17.2266 41.6606C16.6066 41.4332 16.1122 41.0004 15.8317 40.3947C15.5513 39.789 15.541 39.1316 15.7683 38.5111L25.5067 12.0679C25.734 11.4474 26.1665 10.9525 26.7717 10.6717C27.3769 10.391 28.0338 10.3806 28.6537 10.6081L41.9222 15.5265C42.055 15.5753 42.1273 15.6521 42.1834 15.7732L46.7989 25.662C46.855 25.7831 46.8668 25.888 46.8181 26.021L39.0002 47.0851C38.7729 47.7056 38.3404 48.2006 37.7352 48.4813C37.13 48.762 36.4731 48.7724 35.8532 48.545ZM28.329 11.4945C27.9304 11.3483 27.5275 11.3513 27.1643 11.5197C26.8012 11.6881 26.5385 11.994 26.3923 12.3928L16.6539 38.8361C16.5078 39.2349 16.5107 39.6382 16.679 40.0017C16.8473 40.3651 17.1528 40.628 17.5513 40.7742L36.1779 47.6586C36.5765 47.8048 36.9794 47.8018 37.3425 47.6334C37.7057 47.4649 37.9684 47.1591 38.1146 46.7602L45.8232 25.8571L41.4646 16.3642L28.329 11.4945Z" fill="#6F46BE"/>
<path d="M40.152 29.406L26.7088 24.4243C26.4431 24.3269 26.3472 24.0404 26.4284 23.8188C26.5258 23.553 26.7678 23.4408 27.0335 23.5382L40.4767 28.5199C40.7424 28.6173 40.8383 28.9038 40.7571 29.1253C40.676 29.3469 40.3734 29.4872 40.152 29.406Z" fill="#6F46BE"/>
<path d="M38.722 33.3067L25.2788 28.325C25.0131 28.2276 24.9172 27.9411 24.9984 27.7196C25.0958 27.4537 25.3378 27.3415 25.6035 27.4389L39.0467 32.4206C39.3124 32.5181 39.4083 32.8045 39.3271 33.0261C39.2017 33.2314 38.9434 33.3879 38.722 33.3067Z" fill="#6F46BE"/>
<path d="M37.2652 37.1468L23.8219 32.1651C23.5563 32.0676 23.4604 31.7812 23.5415 31.5596C23.6389 31.2938 23.881 31.1815 24.1466 31.279L37.5899 36.2607C37.8556 36.3581 37.9515 36.6446 37.8703 36.8661C37.7729 37.132 37.5308 37.2442 37.2652 37.1468Z" fill="#6F46BE"/>
<path d="M31.8063 39.5696L22.3757 36.1102C22.1101 36.0127 22.0141 35.7262 22.0953 35.5047C22.1927 35.2388 22.4348 35.1266 22.7004 35.224L32.131 38.6835C32.3966 38.781 32.4925 39.0675 32.4114 39.289C32.3302 39.5105 32.0276 39.6508 31.8063 39.5696Z" fill="#6F46BE"/>
<path d="M46.1972 26.3432L40.8393 24.3774C40.2194 24.15 39.7249 23.7172 39.4445 23.1115C39.1641 22.5058 39.1537 21.8484 39.3811 21.228L41.3459 15.8653C41.4108 15.688 41.5643 15.5432 41.7577 15.5639C41.9673 15.5402 42.1282 15.6495 42.2123 15.8312L46.7832 25.7035C46.8673 25.8852 46.8467 26.0787 46.6932 26.2235C46.5559 26.324 46.3743 26.4082 46.1972 26.3432ZM41.8137 17.1933L40.2386 21.4923C40.0925 21.8912 40.0954 22.2945 40.2637 22.6579C40.4319 23.0213 40.7375 23.2842 41.136 23.4304L45.4312 25.0063L41.8137 17.1933Z" fill="#6F46BE"/>
</g>
<path d="M72.62 33.0699C71.5992 33.5276 70.3906 33.0855 69.9118 32.0871L68.8025 29.7324L67.6923 27.3848C67.2215 26.3802 67.6661 25.1954 68.6806 24.7298C69.7014 24.2721 70.91 24.7142 71.3888 25.7126L73.6083 30.4149C74.0791 31.4195 73.6345 32.6043 72.62 33.0699Z" fill="white"/>
<path d="M71.5011 33.4451C71.3234 33.4238 71.1482 33.3816 70.9827 33.3193C70.4229 33.1177 69.9609 32.7015 69.7146 32.1696L67.4951 27.4673C66.972 26.3574 67.461 25.0435 68.5888 24.5349C69.1301 24.2885 69.7529 24.2642 70.3119 24.4727C70.8716 24.6743 71.3336 25.0905 71.5799 25.6224L73.7994 30.3247C74.3225 31.4345 73.8336 32.7485 72.7058 33.2571C72.3317 33.4315 71.9132 33.4945 71.5011 33.4451ZM69.7497 24.7732C68.9111 24.6726 68.1186 25.1506 67.8306 25.9298C67.6618 26.3765 67.6823 26.8671 67.8897 27.3024L70.1092 32.0047C70.5358 32.8977 71.6277 33.2905 72.5352 32.8758C73.4427 32.461 73.8351 31.4115 73.4165 30.5122L71.197 25.8099C70.9967 25.3756 70.6259 25.041 70.1694 24.8801C70.0323 24.8212 69.8918 24.7902 69.7497 24.7732Z" fill="#6F46BE"/>
<path d="M72.4575 28.0413L73.5848 30.4264C74.0556 31.431 73.611 32.6158 72.5965 33.0813C71.5757 33.5391 70.3671 33.097 69.8884 32.0986L68.7782 29.7509L72.4575 28.0413Z" fill="#EDE3FF"/>
<path d="M71.529 33.5121C70.7543 33.4192 70.0771 32.9347 69.7426 32.2366L67.5231 27.5343C67 26.4244 67.4889 25.1105 68.6238 24.6028C69.7516 24.0942 71.0847 24.5795 71.6149 25.6903L73.8344 30.3926C74.3575 31.5024 73.8686 32.8164 72.7408 33.3249C72.3596 33.4985 71.9412 33.5616 71.529 33.5121ZM69.7847 24.8411C68.7818 24.7279 67.8764 25.4258 67.7658 26.4102C67.7265 26.738 67.7813 27.0629 67.9256 27.3632L70.1451 32.0655C70.5708 32.9656 71.6556 33.3575 72.5694 32.9506C73.4769 32.5359 73.8781 31.4732 73.4524 30.5731L71.2329 25.8708C70.9623 25.3007 70.4109 24.9091 69.7847 24.8411Z" fill="#6F46BE"/>
<path d="M72.3611 28.1287L68.8859 29.7L72.3611 28.1287Z" fill="white"/>
<path d="M68.8615 29.9022C68.7407 29.8877 68.6592 29.786 68.6734 29.6674C68.6817 29.5977 68.7256 29.5322 68.7946 29.498L72.2698 27.9267C72.3768 27.8759 72.5077 27.927 72.5528 28.0314C72.6051 28.1368 72.5537 28.265 72.4475 28.3089L68.9723 29.8801C68.9405 29.9046 68.9042 29.9073 68.8615 29.9022Z" fill="#6F46BE"/>
</g>
<defs>
<clipPath id="clip0_90_10424">
<rect width="129" height="121.71" fill="white"/>
</clipPath>
</defs>
</svg>
