<svg width="42" height="53" viewBox="0 0 42 53" fill="none" xmlns="http://www.w3.org/2000/svg">
<path d="M9.40709 11.6413L32.2137 11.3368C32.1582 16.6537 29.8751 21.7481 25.8481 25.4915L25.848 25.4916L24.8135 26.4538L25.0486 26.8444L24.8533 27.0606L25.8979 27.9787C25.8981 27.9789 25.8984 27.9791 25.8986 27.9793C30.0146 31.6384 32.4154 36.6729 32.5929 41.9931L9.78633 42.2976C9.84177 36.9808 12.1249 31.8864 16.1519 28.1429L16.152 28.1428L17.1865 27.1807L16.9514 26.79L17.1467 26.5738L16.1021 25.6558C16.1018 25.6555 16.1016 25.6553 16.1013 25.655C11.9854 21.996 9.58458 16.9614 9.40709 11.6413Z" fill="white" stroke="#6F46BE" stroke-width="0.84"/>
<path d="M22.1764 26.7919L19.7942 26.8281C18.9576 26.2477 18.1911 25.5762 17.5246 24.8283C14.7362 21.6132 12.1975 17.4767 12.1428 13.1564L29.5028 12.9382C29.5646 17.28 26.9098 21.473 24.1351 24.7583C23.544 25.4731 22.8934 26.1581 22.1764 26.7919Z" fill="#A78ED7"/>
<path opacity="0.5" d="M14.0798 13.1321L29.5026 12.9379C29.5632 16.7381 27.0748 20.906 24.8733 23.8824C22.2419 27.4558 13.7149 20.0024 14.0798 13.1321Z" fill="#A78ED7"/>
<path d="M22.1835 26.8062L19.8013 26.8375L19.945 38.6884L22.3272 38.6571L22.1835 26.8062Z" fill="#A78ED7"/>
<path d="M27.5979 38.9708L22.1429 36.2992L19.9342 36.3319L14.6307 39.2015C13.3163 39.9155 12.4986 41.2385 12.5373 42.6648L29.8745 42.4533C29.8446 40.9773 28.9826 39.6266 27.5979 38.9708Z" fill="#A78ED7"/>
<path d="M34.5106 11.306L34.5106 11.306L34.5053 11.3061L7.09637 11.6799L7.09637 11.6798L7.09346 11.6799C7.02609 11.6813 6.97792 11.6583 6.94896 11.6324C6.92133 11.6077 6.90359 11.5743 6.90247 11.53L6.86516 8.87949L6.86517 8.87949L6.86512 8.87696C6.86325 8.78484 6.93631 8.6943 7.06275 8.69113C7.06317 8.69112 7.06358 8.69111 7.064 8.69111L34.4767 8.3389L34.4799 8.33883C34.5473 8.33746 34.5955 8.3604 34.6244 8.38631C34.6521 8.41104 34.6698 8.44443 34.6709 8.48879C34.6709 8.48907 34.671 8.48935 34.671 8.48964L34.7082 11.1348C34.7066 11.2025 34.618 11.3059 34.5106 11.306Z" fill="white" stroke="#6F46BE" stroke-width="0.84"/>
<path d="M7.4823 42.3073L7.4823 42.3073L7.48726 42.3072L34.9032 41.955L34.9065 41.9549C34.9738 41.9535 35.022 41.9765 35.051 42.0024C35.0786 42.0271 35.0963 42.0605 35.0975 42.1049C35.0975 42.1052 35.0975 42.1054 35.0975 42.1057L35.1348 44.7553L35.1348 44.7579C35.1367 44.85 35.0636 44.9405 34.9372 44.9437C34.9368 44.9437 34.9363 44.9437 34.9359 44.9437L7.52323 45.2959L7.52323 45.2959L7.51998 45.296C7.4526 45.2974 7.40443 45.2744 7.37547 45.2485C7.34784 45.2238 7.33011 45.1904 7.32898 45.1461L7.29167 42.4956L7.29168 42.4956L7.29163 42.493C7.28981 42.4033 7.38175 42.3074 7.4823 42.3073Z" fill="white" stroke="#6F46BE" stroke-width="0.84"/>
</svg>
