<svg width="42" height="62" viewBox="0 0 42 62" fill="none" xmlns="http://www.w3.org/2000/svg">
<path d="M40.5428 4.67764V56.4457C40.5428 58.6275 38.7762 60.4997 36.4888 60.4997H5.5115C3.3273 60.4997 1.45752 58.7331 1.45752 56.4457V4.67764C1.45752 2.49343 3.22409 0.623657 5.5115 0.623657H36.4888C38.673 0.726867 40.5428 2.49583 40.5428 4.67764Z" fill="white"/>
<path d="M3.01528 57.9002V6.13217C3.01528 3.95037 4.78183 2.07819 7.06925 2.07819H38.0465C38.7738 2.07819 39.3979 2.28701 40.0219 2.59904C39.2947 1.45654 38.0465 0.623657 36.592 0.623657H5.5115C3.3273 0.623657 1.45752 2.39022 1.45752 4.67764V56.4457C1.45752 58.0058 2.28801 59.2515 3.53612 59.9812C3.22409 59.3572 3.01528 58.6299 3.01528 57.9026V57.9002Z" fill="white"/>
<path d="M35.656 9.77106V49.9988H6.34204V9.77106H35.656Z" fill="#EDE3FF"/>
<path d="M8.00539 11.5376H35.656V9.77106H6.34204V49.9988H8.00539V11.5376Z" fill="#EDE3FF"/>
<path d="M21.0002 18.9185C25.263 18.9185 28.7961 22.4516 28.7961 26.7144C28.7961 30.9772 25.2606 34.5103 21.0002 34.5103C16.7398 34.5103 13.2042 30.9772 13.2042 26.7144C13.2042 22.4516 16.7374 18.9185 21.0002 18.9185Z" fill="white"/>
<path d="M14.2435 28.4807C14.2435 24.2179 17.7791 20.6848 22.0394 20.6848C24.5333 20.6848 26.8207 21.9329 28.2776 23.8027C27.1351 20.8912 24.3269 18.8126 21.0002 18.8126C16.7374 18.8126 13.2042 22.3482 13.2042 26.6086C13.2042 28.3751 13.8283 30.0385 14.7644 31.2866C14.4523 30.4537 14.2435 29.52 14.2435 28.4807Z" fill="white"/>
<path d="M21.0004 52.4951C22.3517 52.4951 23.391 53.5344 23.391 54.8857C23.391 56.237 22.3517 57.2763 21.0004 57.2763C19.649 57.2763 18.6097 56.237 18.6097 54.8857C18.6097 53.5344 19.649 52.4951 21.0004 52.4951Z" fill="#6F46BE"/>
<path d="M19.7522 12.3682H17.1527V14.9676H19.7522V12.3682Z" fill="#6F46BE"/>
<path d="M15.8037 12.3682H13.2042V14.9676H15.8037V12.3682Z" fill="#6F46BE"/>
<path d="M11.9559 12.3682H9.35645V14.9676H11.9559V12.3682Z" fill="#6F46BE"/>
<path d="M36.4886 61.1217H5.51129C2.91184 61.1217 0.833252 59.0431 0.833252 56.4437V4.67804C0.833252 2.07859 2.91184 0 5.51129 0H36.4886C39.088 0 41.1666 2.07859 41.1666 4.67804V56.4461C41.1666 59.0455 39.088 61.1241 36.4886 61.1241V61.1217ZM5.51129 1.35133C3.63911 1.35133 2.08137 2.91147 2.08137 4.78125V56.5493C2.08137 58.4191 3.64151 59.9792 5.51129 59.9792H36.4886C38.3608 59.9792 39.9185 58.4191 39.9185 56.5493V4.67804C39.9185 2.80586 38.3584 1.24812 36.4886 1.24812H5.51129V1.35133Z" fill="#6F46BE"/>
<path d="M35.6559 50.6229H6.34196C6.02993 50.6229 5.7179 50.3108 5.7179 49.9988V9.77103C5.7179 9.459 6.02993 9.14697 6.34196 9.14697H35.5527C35.8647 9.14697 36.1768 9.459 36.1768 9.77103V49.9988C36.28 50.414 35.9679 50.6229 35.6559 50.6229ZM7.06922 49.3747H35.0318V10.4983H7.06922V49.3747Z" fill="#6F46BE"/>
<path d="M23.9091 5.19642H17.0492C16.7372 5.19642 16.4252 4.88439 16.4252 4.57236C16.4252 4.26033 16.7372 3.9483 17.0492 3.9483H23.9091C24.2211 3.9483 24.5331 4.26033 24.5331 4.57236C24.5331 4.88439 24.3243 5.19642 23.9091 5.19642Z" fill="#6F46BE"/>
<path d="M30.1474 40.3306H11.9561C11.6441 40.3306 11.332 40.0186 11.332 39.7066C11.332 39.3946 11.6441 39.0825 11.9561 39.0825H30.1474C30.4594 39.0825 30.7715 39.3946 30.7715 39.7066C30.7715 40.0186 30.4594 40.3306 30.1474 40.3306Z" fill="#6F46BE"/>
<path d="M30.1474 45.5298H11.9561C11.6441 45.5298 11.332 45.2178 11.332 44.9057C11.332 44.5937 11.6441 44.2817 11.9561 44.2817H30.1474C30.4594 44.2817 30.7715 44.5937 30.7715 44.9057C30.7715 45.2178 30.4594 45.5298 30.1474 45.5298Z" fill="#6F46BE"/>
<path d="M20.9999 35.1344C16.3219 35.1344 12.58 31.3924 12.58 26.7144C12.58 22.0363 16.3219 18.2944 20.9999 18.2944C25.678 18.2944 29.4199 22.0363 29.4199 26.7144C29.4199 31.3924 25.678 35.1344 20.9999 35.1344ZM20.9999 19.5425C17.0492 19.5425 13.8281 22.766 13.8281 26.7144C13.8281 30.6627 17.0492 33.8886 20.9999 33.8886C24.9507 33.8886 28.1718 30.6651 28.1718 26.7144C28.1718 22.7636 24.9483 19.5425 20.9999 19.5425Z" fill="#6F46BE"/>
<path d="M23.5995 27.3382H18.4007C18.0886 27.3382 17.7766 27.0262 17.7766 26.7141C17.7766 26.4021 18.0886 26.0901 18.4007 26.0901H23.5995C23.9116 26.0901 24.2236 26.4021 24.2236 26.7141C24.2236 27.0262 23.9116 27.3382 23.5995 27.3382Z" fill="#6F46BE"/>
<path d="M21 29.9357C20.688 29.9357 20.376 29.6237 20.376 29.3116V24.1151C20.376 23.8031 20.688 23.4911 21 23.4911C21.3121 23.4911 21.6241 23.8031 21.6241 24.1151V29.3116C21.6241 29.6237 21.3121 29.9357 21 29.9357Z" fill="#6F46BE"/>
</svg>
