<svg width="55" height="55" viewBox="0 0 55 55" fill="none" xmlns="http://www.w3.org/2000/svg">
<path d="M54.3062 5.52569C53.5881 3.52291 52.1974 1.95038 50.3945 1.102C49.2068 0.541463 47.8767 0.244507 46.5465 0.244507C44.2317 0.244507 42.0138 1.13837 40.52 2.62303C39.0262 1.15654 36.8174 0.274836 34.5238 0.274836C33.1936 0.274836 31.8665 0.571755 30.6818 1.13229C28.876 1.98067 27.4852 3.55017 26.7672 5.55598C25.9551 7.81328 26.0824 10.4554 27.1065 12.6188C28.2367 15.0094 31.6332 18.5726 34.2844 21.1359C35.9206 22.7205 39.8049 26.408 40.5261 26.408C41.2472 26.408 45.1376 22.7084 46.7768 21.1207C49.431 18.5453 52.8336 14.976 53.9668 12.5824C54.5425 11.3674 54.8334 9.99786 54.8334 8.62833C54.8334 7.57089 54.6607 6.51344 54.3062 5.52569ZM52.4064 11.8461C50.7066 15.4396 42.547 22.7872 40.523 24.4658C38.5051 22.7932 30.3607 15.4669 28.6639 11.8794C27.8337 10.1221 27.7307 7.97388 28.3912 6.13774C28.9548 4.56824 30.0274 3.34414 31.4151 2.68968C32.3725 2.23822 33.4482 2.00188 34.5238 2.00188C36.672 2.00188 38.7081 2.93811 39.8322 4.45005L40.5291 5.38632L41.2199 4.44398C42.338 2.9169 44.3801 1.96856 46.5465 1.96856C47.6252 1.96856 48.7008 2.20789 49.6583 2.66238C51.046 3.31382 52.1186 4.53794 52.6821 6.10745C53.3396 7.94661 53.2397 10.0918 52.4064 11.8461Z" fill="#6F46BE"/>
<path d="M54.663 30.3435C54.3509 29.3861 53.6419 28.6104 52.7148 28.2165C51.7876 27.8256 50.7362 27.8529 49.8303 28.2953L40.2709 32.9765L37.7015 33.1735C37.9045 32.816 38.053 32.4372 38.1348 32.0615C38.5135 30.2799 37.3803 28.5135 35.6108 28.1196C33.9777 27.756 29.4146 27.5712 22.0428 27.5712H22.0398C18.0918 27.5712 14.3377 29.277 11.738 32.2524L7.08105 37.5911L4.93282 36.0307L0.166748 42.5239L16.8132 54.8799L21.6095 48.1292L19.5219 46.6143L21.7277 44.1994C22.158 43.7297 22.7397 43.4298 23.3699 43.3601L38.4105 41.63C39.0801 41.5543 39.7224 41.3573 40.3193 41.0483L52.9572 34.5006C54.4691 33.7159 55.1872 31.9676 54.663 30.3435ZM16.4284 52.4469L2.57251 42.1602L5.30853 38.4335L19.2129 48.5231L16.4284 52.4469ZM52.1633 32.9674L39.5255 39.5182C39.1165 39.7302 38.6741 39.8636 38.2136 39.9181L23.173 41.6452C22.1307 41.7664 21.1641 42.2572 20.4551 43.0359L18.116 45.5962L8.4839 38.6061L13.0379 33.3886C15.3073 30.7859 18.5887 29.2952 22.0398 29.2952H22.0428C29.0844 29.2982 33.7686 29.477 35.2351 29.8042C36.0865 29.9921 36.6289 30.8435 36.4471 31.7009C36.2986 32.3978 35.6381 33.2008 34.9291 33.3825L34.4898 33.4159L26.2302 33.328L26.212 35.052L34.4261 35.1369C34.72 35.1702 35.0109 35.149 35.2897 35.0854L40.7314 34.6733L50.5878 29.8436C51.0453 29.6224 51.5725 29.6073 52.0421 29.8042C52.5087 30.0012 52.8663 30.392 53.0208 30.8768C53.2874 31.6918 52.9238 32.5736 52.1633 32.9674Z" fill="#6F46BE"/>
<path d="M52.5089 11.9003C50.8091 15.5106 42.6495 22.8926 40.6255 24.579C38.6076 22.8986 30.4631 15.538 28.7664 11.9338C27.9362 10.1683 27.8332 8.01001 28.4937 6.16529C29.0572 4.58845 30.1298 3.35864 31.5175 2.70112C32.475 2.24755 33.5506 2.0101 34.6263 2.0101C36.7745 2.0101 38.8106 2.95071 39.9347 4.46971L40.6316 5.41036L41.3224 4.46362C42.4404 2.9294 44.4826 1.97662 46.649 1.97662C47.7277 1.97662 48.8033 2.21708 49.7607 2.67369C51.1485 3.32817 52.221 4.55802 52.7846 6.13486C53.4421 7.98262 53.3421 10.1378 52.5089 11.9003Z" fill="#EDE3FF"/>
<path d="M19.2129 48.4935L16.4284 52.4357L2.57251 42.101L5.30852 38.3568L19.2129 48.4935Z" fill="#EDE3FF"/>
</svg>
