<svg width="106" height="134" viewBox="0 0 106 134" fill="none" xmlns="http://www.w3.org/2000/svg">
<path d="M85.1829 125.005L72.0683 117.376L71.1672 116.851L70.6653 117.765L63.7941 130.277L55.5162 87.0118L69.9582 82.7914L85.1829 125.005Z" fill="#EDE3FF" stroke="#6F46BE" stroke-width="2.03424"/>
<path d="M55.0266 85.7759L46.7502 129.034L39.9141 116.531L39.4135 115.616L38.5111 116.14L25.361 123.772L40.6195 81.5563L55.0266 85.7759Z" fill="#EDE3FF" stroke="#6F46BE" stroke-width="2.03424"/>
<path d="M92.8093 78.859C92.2441 79.6988 91.9227 80.6739 91.7055 81.6323C91.5241 82.4327 91.4032 83.2836 91.2894 84.0842C91.2677 84.2373 91.2462 84.3885 91.2246 84.5372C91.0859 85.4916 90.9409 86.3581 90.701 87.1167C90.4629 87.8699 90.1511 88.4493 89.7227 88.867L89.7172 88.8724C89.2848 89.3005 88.6885 89.6118 87.9194 89.849C87.1458 90.0875 86.2657 90.2314 85.3017 90.3687C85.1539 90.3898 85.0037 90.4107 84.8519 90.4319C84.0414 90.5449 83.1821 90.6647 82.3756 90.8447C81.4134 91.0596 80.4356 91.3777 79.5967 91.9386C78.7597 92.4982 78.0936 93.2738 77.5279 94.0735C77.062 94.7321 76.6294 95.4594 76.2211 96.146C76.1365 96.2881 76.053 96.4285 75.9705 96.5662C74.9469 98.2736 74.0651 99.5372 72.8713 100.027C72.3161 100.253 71.6528 100.313 70.8552 100.24C70.0531 100.167 69.187 99.9672 68.2423 99.73C68.1037 99.6952 67.9631 99.6595 67.8209 99.6235C67.021 99.4204 66.171 99.2046 65.343 99.0643C64.3627 98.8983 63.3298 98.8214 62.3278 99.0134L62.3217 99.0146C61.3407 99.2088 60.4312 99.6694 59.6038 100.19C58.9277 100.616 58.2532 101.117 57.6146 101.592C57.4763 101.695 57.3397 101.796 57.2051 101.896C55.598 103.081 54.2777 103.92 52.9642 103.92C51.6529 103.92 50.3344 103.075 48.7249 101.883C48.5976 101.789 48.4685 101.693 48.3379 101.595C47.692 101.114 47.009 100.604 46.3233 100.174C45.4955 99.6551 44.5838 99.1979 43.5994 99.0131M92.8093 78.859C93.3673 78.0255 94.1486 77.3645 94.9536 76.8049C95.6228 76.3398 96.3639 75.9087 97.0638 75.5015C97.2024 75.4208 97.3394 75.3411 97.474 75.2623C98.3121 74.771 99.0705 74.3041 99.694 73.7889C100.314 73.2769 100.746 72.7602 100.982 72.1955C101.208 71.6511 101.268 71.0001 101.194 70.2141C101.121 69.4225 100.92 68.5669 100.68 67.6314C100.645 67.4944 100.609 67.3553 100.573 67.2147C100.367 66.4227 100.149 65.5798 100.007 64.7587C99.8394 63.7875 99.7611 62.7617 99.9553 61.7656C100.143 60.7856 100.606 59.8798 101.131 59.0596C101.566 58.3803 102.081 57.7036 102.567 57.0641C102.665 56.9349 102.763 56.8071 102.858 56.6811C104.064 55.0848 104.911 53.7851 104.911 52.4975C104.911 51.208 104.07 49.9066 102.866 48.3084C102.764 48.1731 102.66 48.0357 102.554 47.8966C102.074 47.2638 101.566 46.5948 101.133 45.9232C100.602 45.0993 100.13 44.1923 99.9231 43.2115L99.9215 43.2042L99.9201 43.1968C99.7252 42.1998 99.8034 41.173 99.9714 40.2009C100.113 39.3798 100.332 38.5369 100.537 37.745C100.573 37.6043 100.609 37.4652 100.644 37.3282C100.884 36.3927 101.085 35.5371 101.159 34.7455C101.232 33.9595 101.172 33.3085 100.946 32.7641C100.454 31.5859 99.1785 30.7122 97.4506 29.6967C97.3114 29.615 97.1696 29.5323 97.026 29.4485C96.3325 29.0442 95.5985 28.6163 94.9338 28.1553C94.1271 27.5959 93.3436 26.9364 92.7776 26.1066C92.2096 25.2739 91.8874 24.3029 91.67 23.3483C91.4878 22.5486 91.3667 21.6966 91.2525 20.8942C91.2312 20.7438 91.21 20.5952 91.1888 20.449C90.9018 18.4739 90.5809 16.9777 89.6814 16.0872L89.6759 16.0817C89.2535 15.657 88.6662 15.3469 87.9023 15.1102C87.1339 14.872 86.2567 14.7282 85.2927 14.5909C85.1423 14.5695 84.9895 14.5482 84.8348 14.5266C84.0262 14.414 83.1681 14.2944 82.361 14.1151C81.3952 13.9005 80.4132 13.5832 79.5673 13.0252C78.7266 12.4736 78.0587 11.7002 77.4927 10.9019C77.0226 10.2389 76.5868 9.50457 76.1755 8.81153C76.0941 8.67435 76.0137 8.53878 75.9341 8.40571C74.9088 6.69094 74.027 5.42063 72.8339 4.9318C72.279 4.70602 71.6163 4.64654 70.8194 4.71948C70.0173 4.79291 69.1512 4.99242 68.2065 5.22957C68.0679 5.26436 67.9274 5.30005 67.7852 5.33613C66.9853 5.53922 66.1352 5.75503 65.3072 5.89531C64.3277 6.06124 63.2954 6.13812 62.2942 5.94664C61.3104 5.76221 60.4012 5.30774 59.5759 4.79142C58.8932 4.36424 58.2138 3.85859 57.5718 3.38075C57.4418 3.28392 57.3132 3.18823 57.1865 3.09456C55.5874 1.91286 54.2768 1.07474 52.9642 1.07474C51.6507 1.07474 50.3305 1.91411 48.7234 3.09954C48.5888 3.19883 48.4521 3.30041 48.3138 3.40325C47.6752 3.878 47.0008 4.37939 46.3246 4.80493C45.4973 5.32561 44.5878 5.7862 43.6068 5.98046L43.6006 5.98168C42.5987 6.17366 41.5657 6.09679 40.5855 5.93074C39.7574 5.79046 38.9074 5.57465 38.1075 5.37157C37.9653 5.33548 37.8248 5.2998 37.6862 5.26501C36.7415 5.02785 35.8754 4.82834 35.0732 4.75492C34.2756 4.6819 33.6123 4.74156 33.0572 4.9679L33.0496 4.97099L33.0496 4.97096C31.8633 5.44349 30.9837 6.70004 29.9586 8.41457C29.8743 8.55545 29.7891 8.69923 29.7027 8.84484C29.2961 9.53066 28.8653 10.2573 28.4016 10.9151C27.8362 11.7173 27.1697 12.4961 26.3317 13.0564C25.4929 13.6173 24.515 13.9355 23.5529 14.1503C22.7464 14.3304 21.8873 14.4501 21.0768 14.5631C20.9249 14.5843 20.7746 14.6053 20.6268 14.6263C19.6628 14.7636 18.7826 14.9075 18.009 15.1461C17.2399 15.3832 16.6436 15.6945 16.2112 16.1226L16.2057 16.1281L16.2057 16.1281C15.7774 16.5457 15.4656 17.1251 15.2274 17.8783C14.9876 18.6369 14.8426 19.5035 14.7039 20.4579C14.6823 20.6066 14.6608 20.7578 14.639 20.9109C14.5253 21.7115 14.4043 22.5624 14.223 23.3628C14.0058 24.3211 13.6844 25.2962 13.1192 26.136C12.5612 26.9695 11.7799 27.6306 10.9748 28.1901C10.3056 28.6553 9.56452 29.0864 8.86457 29.4936C8.72597 29.5742 8.58899 29.6539 8.45449 29.7328C7.61634 30.224 6.858 30.691 6.23451 31.2061C5.6151 31.7179 5.18289 32.2345 4.94682 32.799C4.72066 33.3434 4.66055 33.9947 4.73397 34.7809C4.80789 35.5725 5.00885 36.4282 5.24841 37.3636C5.28351 37.5007 5.31953 37.6397 5.35597 37.7804C5.56107 38.5724 5.77936 39.4153 5.92125 40.2363C6.08912 41.2077 6.16735 42.2339 5.97297 43.2301C5.78558 44.2099 5.32187 45.1154 4.7972 45.9354C4.36255 46.6147 3.84782 47.2914 3.36135 47.9309C3.263 48.0602 3.1658 48.1879 3.07065 48.3139C1.86486 49.9103 1.01712 51.2099 1.01712 52.4975C1.01712 53.7873 1.85901 55.0887 3.05836 56.6826C3.1586 56.8159 3.26118 56.9511 3.36503 57.0881C3.84452 57.7203 4.3512 58.3884 4.78126 59.0583C5.30726 59.8776 5.77419 60.7807 5.97133 61.7566L5.97259 61.7628C6.16746 62.7598 6.08923 63.7866 5.92125 64.7587C5.77936 65.5798 5.56107 66.4227 5.35597 67.2146C5.31953 67.3553 5.28351 67.4944 5.24841 67.6314C5.00885 68.5669 4.80789 69.4225 4.73397 70.2141C4.66055 71.0004 4.72066 71.6516 4.94682 72.1961C5.43943 73.374 6.71452 74.2476 8.4421 75.2629C8.58123 75.3446 8.72307 75.4273 8.86665 75.511C9.56012 75.9154 10.2941 76.3433 10.9589 76.8043C11.7655 77.3637 12.5491 78.0232 13.1151 78.853C13.6831 79.6857 14.0053 80.6567 14.2227 81.6113C14.4049 82.411 14.526 83.263 14.6401 84.0654C14.6615 84.2158 14.6826 84.3644 14.7039 84.5106C14.9909 86.4857 15.3118 87.9819 16.2112 88.8724L16.2168 88.8779C16.6392 89.3026 17.2265 89.6127 17.9903 89.8494C18.7587 90.0876 19.6359 90.2314 20.6 90.3687C20.7503 90.3902 20.9032 90.4115 21.0579 90.433C21.8665 90.5457 22.7246 90.6652 23.5317 90.8445C24.4975 91.0591 25.4794 91.3764 26.3253 91.9343C27.166 92.486 27.834 93.2594 28.4 94.0577C28.87 94.7207 29.3058 95.455 29.7171 96.148C29.7985 96.2852 29.879 96.4208 29.9586 96.5539C30.9835 98.2681 31.865 99.5381 33.0576 100.027C33.6126 100.254 34.2758 100.313 35.0732 100.24C35.8754 100.167 36.7415 99.9672 37.6862 99.73C37.8248 99.6952 37.9654 99.6596 38.1075 99.6235C38.9074 99.4204 39.7575 99.2046 40.5855 99.0643C41.5653 98.8983 42.5978 98.8214 43.5994 99.0131M92.8093 78.859C92.8095 78.8587 92.8097 78.8583 92.81 78.858L93.6536 79.4261L92.8082 78.8606C92.8086 78.86 92.809 78.8595 92.8093 78.859ZM43.5994 99.0131C43.5998 99.0132 43.6002 99.0133 43.6006 99.0134L43.4092 100.012L43.5962 99.0125C43.5972 99.0127 43.5983 99.0129 43.5994 99.0131Z" fill="#EDE3FF" stroke="#6F46BE" stroke-width="2.03424"/>
<path d="M84.4056 52.4976C84.4056 69.6948 70.3224 83.6531 52.9285 83.6531C35.5346 83.6531 21.4513 69.6948 21.4513 52.4976C21.4513 35.3004 35.5346 21.3421 52.9285 21.3421C70.3224 21.3421 84.4056 35.3004 84.4056 52.4976Z" fill="#A78ED7" stroke="#6F46BE" stroke-width="2.03424"/>
<path d="M66.8228 76.9674C66.8228 76.9674 71.5119 76.7365 77.4951 72.6723C83.4783 68.6082 88.9834 58.6857 88.9834 58.6857L91.8557 53.5456L93.7703 52.1112C93.7703 52.1112 94.3688 51.0353 93.2914 51.7528C92.2141 52.4704 91.736 52.9482 91.3769 52.7093C91.0177 52.4704 93.1717 50.0795 93.1717 50.0795C93.1717 50.0795 93.7703 49.123 92.9323 49.362C92.6767 49.0483 92.8126 48.525 92.2141 49.0036C91.6155 49.4822 89.2221 51.8723 89.2221 51.8723C89.2221 51.8723 89.5812 49.362 88.9827 49.2425C88.9827 49.2425 88.2644 50.6769 87.7863 52.9482C86.59 54.6215 82.5207 59.7624 80.2477 60.9578C77.9747 62.1532 76.6579 62.0337 74.863 60.9578C73.0681 59.8818 72.3499 58.9254 72.3499 58.9254C72.3499 58.9254 69.717 61.6746 69.2382 63.109C68.7594 64.5433 67.0842 68.6082 66.9645 70.999C66.8448 73.3899 66.8228 76.9681 66.8228 76.9681V76.9674Z" fill="#EDE3FF"/>
<path d="M29.8674 73.7483C30.1002 75.0646 34.1755 79.367 38.0046 80.8013C41.7141 81.7578 44.347 82.4746 49.6126 80.8013C54.8783 79.128 60.9812 72.1944 60.9812 72.1944L63.6141 69.5647L66.3666 66.4563C66.3666 66.4563 72.8287 57.7299 74.2644 57.2513L76.6579 58.0883C76.6579 58.0883 77.7345 58.2078 76.8973 57.6104C76.0601 57.0131 74.7433 56.5345 74.7433 56.5345L78.2133 56.8929C78.2133 56.8929 79.7688 56.415 78.0936 56.0559C78.0936 55.8169 78.9316 55.578 77.8542 54.9799C76.4184 54.741 74.1447 54.502 74.1447 54.502L76.5381 52.8287C76.5381 52.8287 77.3761 51.9917 76.0593 52.4703C74.7425 52.949 73.3068 53.5463 73.3068 53.5463C73.3068 53.5463 74.025 51.9925 73.3068 51.5139C72.9476 51.7528 72.1104 53.3066 71.9907 54.2631C71.1528 54.8605 65.5287 58.0883 64.8104 58.6864C64.0922 59.2845 59.7842 62.2727 57.6302 63.2291C55.4761 64.1856 53.6813 64.6635 52.3645 64.544C51.0477 64.4246 48.6653 64.5352 47.1641 61.3125C44.9455 61.1974 40.5178 61.3169 37.2864 63.7077C34.055 66.0986 30.1061 71.5978 29.8667 73.749L29.8674 73.7483Z" fill="#EDE3FF"/>
<path d="M60.3829 44.9386C58.8274 45.6562 57.0325 46.7314 53.6814 45.6562C50.3304 44.5809 48.0574 40.5161 48.0574 40.5161C48.0574 40.5161 52.0033 40.6143 52.8442 41.1134L55.1179 34.0603C55.1179 34.0603 53.3231 33.2233 54.3997 31.789C55.4763 30.3546 56.434 31.789 56.6734 32.5065C56.9128 33.2241 58.3486 32.2676 59.6654 30.3546C60.9822 28.4416 61.3406 26.2905 61.3406 26.2905C61.3406 26.2905 63.2552 28.6813 63.734 30.7137C64.4522 31.4313 64.3325 31.1916 65.05 31.1916C65.7676 31.1916 65.6243 32.0345 65.2895 32.2676C64.9546 32.5007 64.2128 32.1481 64.2128 32.1481C64.2128 32.1481 64.5719 34.8974 63.734 35.7344C62.896 36.5714 62.2982 37.0493 60.5033 36.8103C58.7085 36.5714 59.4267 40.0382 59.4267 40.0382L58.7085 43.0264L60.3836 44.9393L60.3829 44.9386Z" fill="#EDE3FF"/>
<path d="M69.4298 62.5343C69.4298 62.5343 67.6268 66.5376 67.1142 70.6457C66.6016 74.759 66.8219 76.9673 66.8219 76.9673C66.8219 76.9673 62.9024 77.4357 61.2985 76.8845C61.2985 76.8845 63.3878 72.0163 63.5972 69.5712L65.5375 67.5615L69.4291 62.5336L69.4298 62.5343Z" fill="white"/>
<path d="M60.3563 44.7582C60.208 44.9509 60.0178 45.107 59.7997 45.2155C58.6151 45.733 57.1433 46.1955 55.8309 46.1405C54.0338 46.0687 52.6282 45.2206 51.1946 44.1689C50.4338 43.6126 49.7611 43.0453 49.1882 42.3021C48.8056 41.8198 48.5126 41.2738 48.3231 40.6882C46.8124 40.6383 44.9882 40.6442 42.9318 40.782C37.0882 41.1675 28.7644 46.6741 26.2836 56.4214C23.8028 66.1687 29.233 73.0518 29.233 73.0518C29.6464 70.96 31.4656 67.2146 35.6553 64.0755C39.8451 60.9363 47.1657 61.3108 47.1657 61.3108C48.5882 64.8238 51.6749 64.6039 54.5633 64.4383C57.4518 64.2726 64.4587 58.9317 64.4587 58.9317L69.7229 55.5998C68.7476 53.8986 62.5346 47.1138 60.3571 44.7574L60.3563 44.7582Z" fill="white"/>
<path d="M61.8997 31.3658C62.5732 31.2795 63.088 30.9674 63.0495 30.6686C63.0111 30.3699 62.434 30.1978 61.7605 30.2841C61.0871 30.3704 60.5723 30.6826 60.6108 30.9813C60.6492 31.28 61.2263 31.4522 61.8997 31.3658Z" fill="white"/>
<path d="M61.062 33.2928L62.594 34.8613C62.594 34.8613 61.7014 35.3295 61.0789 34.6965C60.4564 34.0635 61.0627 33.2928 61.0627 33.2928H61.062Z" fill="white"/>
<path d="M61.8937 35.1917C61.542 35.1997 61.2036 35.062 60.957 34.8122C60.3837 34.2291 60.6927 33.4965 60.9298 33.1888C60.9577 33.1499 61.0032 33.1272 61.0509 33.128C61.0987 33.1243 61.1456 33.1426 61.1779 33.1778L62.7099 34.7463C62.7488 34.7829 62.7657 34.8371 62.754 34.8899C62.7437 34.9411 62.7114 34.9858 62.6659 35.0107C62.4258 35.1287 62.1623 35.191 61.8944 35.1917H61.8937ZM61.0891 33.5565C60.968 33.788 60.8359 34.2115 61.1941 34.5807C61.4143 34.8027 61.7285 34.9045 62.0368 34.8554C62.1263 34.8444 62.2152 34.8261 62.3011 34.8005L61.0891 33.5565Z" fill="#553597"/>
<path d="M68.73 60.15C69.5582 60.15 70.2297 59.472 70.2297 58.6357C70.2297 57.7994 69.5582 57.1215 68.73 57.1215C67.9018 57.1215 67.2303 57.7994 67.2303 58.6357C67.2303 59.472 67.9018 60.15 68.73 60.15Z" fill="white"/>
<path d="M68.7299 59.0037C68.9339 59.0037 69.0992 58.8387 69.0992 58.6352C69.0992 58.4316 68.9339 58.2667 68.7299 58.2667C68.526 58.2667 68.3607 58.4316 68.3607 58.6352C68.3607 58.8387 68.526 59.0037 68.7299 59.0037Z" fill="#553597"/>
<path d="M68.73 59.1687C68.4349 59.1687 68.1956 58.9299 68.1956 58.6347C68.1956 58.3394 68.4349 58.1006 68.73 58.1006C69.025 58.1006 69.2644 58.3394 69.2644 58.6347C69.2621 58.9292 69.0243 59.1665 68.73 59.1687ZM68.73 58.4259C68.6184 58.4273 68.5281 58.5174 68.5259 58.6288C68.5259 58.7409 68.6169 58.8317 68.7292 58.8317C68.8415 58.8317 68.9333 58.7409 68.9333 58.6281C68.9333 58.5152 68.8423 58.4244 68.7292 58.4244L68.73 58.4259Z" fill="#553597"/>
<path d="M68.752 58.4039C68.6595 58.401 68.5861 58.3255 68.5868 58.2332L68.6088 57.6442C68.6103 57.5548 68.6837 57.4831 68.7732 57.4845C68.7755 57.4845 68.7777 57.4845 68.7791 57.4845C68.8694 57.4896 68.9399 57.5651 68.9391 57.6552L68.9171 58.2442C68.9127 58.3329 68.84 58.4025 68.752 58.4039Z" fill="#553597"/>
<path d="M60.968 31.4759C61.1582 31.5287 61.355 31.555 61.5526 31.5528C61.6745 31.5521 61.7957 31.5426 61.9168 31.525C61.933 31.525 61.955 31.5191 61.9719 31.5191H61.9939C62.005 31.5199 62.0167 31.5184 62.027 31.5133C62.085 31.5045 62.1416 31.4913 62.1981 31.4744C62.7276 31.3535 63.1022 31.0999 63.1903 30.814V30.8082C63.1947 30.7979 63.1969 30.7862 63.1954 30.7752C63.202 30.7385 63.2057 30.7019 63.2064 30.6652C63.1984 30.5223 63.1168 30.3933 62.9913 30.3237C62.782 30.1698 62.4287 30.087 62.0101 30.098C61.9161 30.1002 61.8221 30.1075 61.7288 30.1199C61.4108 30.1551 61.1031 30.2541 60.8248 30.4117C60.5494 30.5766 60.4113 30.7862 60.4392 31.0009C60.4671 31.2157 60.6603 31.3806 60.9687 31.4744L60.968 31.4759ZM61.001 30.6997C61.2331 30.5707 61.4872 30.4886 61.7509 30.4571C61.673 30.7041 61.673 30.9694 61.7509 31.2172C61.518 31.2399 61.283 31.2215 61.0568 31.1622C60.8916 31.1123 60.7814 31.0354 60.7697 30.9636C60.7638 30.8917 60.8527 30.7876 61.001 30.699V30.6997Z" fill="#553597"/>
<path d="M55.9235 32.825L55.2679 32.1203C55.3369 32.0536 55.417 32.0001 55.505 31.9605C55.5902 31.9283 55.632 31.8331 55.5997 31.7488C55.5997 31.7481 55.599 31.7466 55.5983 31.7459C55.563 31.6616 55.4683 31.6206 55.3832 31.6521C55.0749 31.773 54.5295 32.2353 54.7056 33.1049C54.7196 33.1818 54.7871 33.2382 54.8657 33.2367C54.8752 33.2382 54.8848 33.2367 54.8928 33.2309C54.9817 33.2155 55.0411 33.1312 55.0257 33.0419C55.0257 33.0404 55.0257 33.0389 55.025 33.0382C54.9728 32.8235 54.9897 32.5979 55.0749 32.3942L55.6812 33.0441C55.7113 33.08 55.7561 33.0997 55.8023 33.099C55.8434 33.0975 55.8823 33.0822 55.9124 33.055C55.9792 32.9972 55.9866 32.8961 55.9286 32.8301C55.9271 32.8287 55.9257 32.8265 55.9242 32.825H55.9235Z" fill="#553597"/>
<path d="M60.626 26.1893C60.5533 26.19 60.4879 26.1431 60.4659 26.0735C59.7381 23.6225 55.8024 23.3858 55.7635 23.3807C55.6724 23.3748 55.6034 23.2956 55.6092 23.2048C55.6151 23.1139 55.6944 23.0443 55.7855 23.0508C56.5287 23.1066 57.2616 23.2546 57.9681 23.4913C59.484 24.0037 60.4541 24.8627 60.7905 25.9745C60.8176 26.0581 60.7721 26.1482 60.6884 26.1754C60.6854 26.1761 60.6832 26.1768 60.6803 26.1776C60.6634 26.1864 60.6443 26.19 60.6252 26.1893H60.626Z" fill="#EDE3FF"/>
<path d="M9.39235 25.6989C9.32037 25.6989 9.25722 25.652 9.23812 25.5831C8.60947 23.6775 8.35023 21.8217 8.46626 20.0604C8.55586 18.6737 8.89148 17.3141 9.45844 16.0454C10.4235 13.9089 11.7131 12.8131 11.7681 12.7633C11.8379 12.7054 11.9422 12.7157 11.9995 12.7853C12.0575 12.8549 12.0472 12.959 11.9775 13.0169C11.7028 13.2639 11.4479 13.5329 11.2166 13.8209C10.6247 14.5436 10.1319 15.3418 9.75074 16.1942C9.20067 17.4241 8.87533 18.7426 8.7916 20.0875C8.68144 21.8004 8.93555 23.6115 9.54731 25.4732C9.57668 25.5589 9.53041 25.6527 9.44449 25.6821C9.44449 25.6821 9.44302 25.6821 9.44229 25.6821C9.43127 25.6989 9.40924 25.6989 9.39308 25.6989H9.39235Z" fill="#EDE3FF"/>
<path d="M50.356 35.5509H50.3119C47.4947 35.5289 45.2401 34.1686 43.0575 32.8581C39.8437 30.9254 36.5249 28.9208 31.1836 30.8645C31.1028 30.8968 31.011 30.8579 30.9787 30.7773C30.9772 30.7736 30.9758 30.7692 30.9743 30.7649C30.9427 30.6813 30.9853 30.5882 31.069 30.5574C31.0705 30.5574 31.072 30.5567 31.0734 30.556C36.5587 28.5624 39.9487 30.6058 43.2286 32.5774C45.4722 33.9267 47.5887 35.2043 50.3119 35.2262H50.3501C52.6106 35.2262 53.674 33.679 53.685 33.668C53.7342 33.5903 53.8371 33.5676 53.9149 33.6167C53.9928 33.6658 54.0155 33.7684 53.9663 33.8461C53.9641 33.8491 53.9627 33.852 53.9604 33.8549C53.9171 33.9158 52.7979 35.5509 50.3553 35.5509H50.356Z" fill="#EDE3FF"/>
<path d="M91.0228 53.382L89.7662 53.0683C89.8096 52.9085 89.8206 52.7422 89.7993 52.578C89.7875 52.4878 89.7053 52.4248 89.6149 52.4365C89.5246 52.4483 89.4614 52.5311 89.4732 52.6205C89.4732 52.6227 89.4732 52.6249 89.4739 52.6278C89.4989 52.8799 89.4306 53.1328 89.2808 53.338C89.0935 53.5806 88.7792 53.7287 88.3488 53.7785C88.2578 53.7903 88.1939 53.8738 88.2056 53.9647C88.2166 54.0475 88.2871 54.1091 88.3709 54.1091H88.3877C88.9114 54.0483 89.3028 53.8555 89.5452 53.5367C89.5834 53.4868 89.6164 53.4333 89.6443 53.3769L90.9457 53.7016C90.9582 53.706 90.9714 53.7082 90.9846 53.7074C91.0602 53.706 91.1256 53.6539 91.1447 53.5806C91.166 53.4927 91.1117 53.404 91.0235 53.3827C91.0235 53.3827 91.0235 53.3827 91.0228 53.3827V53.382Z" fill="#553597"/>
<path d="M94.0986 51.5649C94.0626 51.4858 93.9943 51.4257 93.9113 51.4C93.6579 51.3231 93.2606 51.5759 92.632 51.9944C92.3235 52.1974 91.7059 52.6108 91.5193 52.5998C91.5575 52.4019 92.032 51.8288 92.3463 51.4433C93.1181 50.5014 93.6146 49.8521 93.5147 49.4277C93.4956 49.2914 93.4023 49.1763 93.2724 49.1301C93.1798 49.1037 93.0814 49.1074 92.9911 49.1411C92.9999 49.1052 93.0036 49.0678 93.0021 49.0312C93.0006 48.9483 92.9676 48.8692 92.9081 48.8113C92.5167 48.4477 92.0151 48.9322 91.1 49.8191C90.9127 50.0008 90.7034 50.2097 90.4713 50.4245C90.229 50.6502 89.7274 51.1347 89.402 51.4484C89.5842 50.3468 89.5342 49.5926 89.2581 49.251C89.1766 49.1367 89.0459 49.0678 88.9056 49.0641C88.6853 49.0641 88.6023 49.2796 88.1727 50.9529C87.9795 51.702 87.7812 52.484 87.6101 52.8915C87.439 53.31 85.9782 55.3036 84.1099 57.3024C82.7865 58.7177 80.2896 61.1518 78.4704 61.5483C77.4782 61.7638 76.4361 61.6142 75.383 61.0968C74.4738 60.6563 73.5308 59.9292 72.5768 58.9434C73.9384 57.4621 74.2909 57.4123 74.357 57.4182C74.5942 57.4511 74.9857 57.6388 75.3661 57.8147C76.138 58.1782 76.9429 58.5528 77.2792 58.1394C77.3505 58.0558 77.3732 57.9407 77.3402 57.8367C77.2462 57.501 76.5243 57.1265 75.8405 56.8457C76.6396 56.9117 77.5877 56.9894 77.8139 57.0055C77.924 57.0165 78.0232 57.0224 78.1172 57.0224C78.4807 57.0224 78.7348 56.9454 78.8611 56.7798C78.9537 56.6786 78.9926 56.5394 78.9662 56.4052C78.9566 56.3767 78.9419 56.3503 78.9221 56.3283C78.751 56.1678 78.5483 56.0439 78.3265 55.9647C78.3933 55.9186 78.4499 55.8585 78.4917 55.7881C78.5637 55.6261 78.5468 55.4392 78.4477 55.2926C78.0951 54.6645 75.7913 54.4336 74.6662 54.3567C74.9365 54.1859 75.2949 53.9543 75.6415 53.7124C77.0413 52.7545 77.0861 52.5449 76.9921 52.3741C76.937 52.2737 76.84 52.2033 76.7277 52.1813C76.2922 52.0765 75.2339 52.4562 73.5749 53.2991C73.9054 52.2084 73.8451 51.5591 73.3928 51.3604C73.3267 51.3297 73.2495 51.3297 73.1834 51.3604C73.0292 51.4264 72.7758 51.669 72.2184 52.9744C71.9702 53.5636 71.7558 54.1361 71.6889 54.3178C71.3805 54.4886 71.0662 54.6704 70.7298 54.8631C70.4155 55.0449 70.0953 55.2318 69.7868 55.4194C69.2353 54.6213 68.3973 53.5636 67.4382 52.4239C67.4323 52.4027 67.4213 52.3836 67.4052 52.369C67.3721 52.3301 67.234 52.1762 67.0247 51.9336C65.8453 50.5461 64.5388 49.081 63.4085 47.8313C61.253 45.4522 59.3069 43.3927 58.8824 42.947C58.8772 42.9412 58.8714 42.9302 58.8662 42.9251L60.0956 37.8802L60.3049 37.0374C60.5385 37.0747 60.7742 37.0931 61.0107 37.0923C61.7495 37.096 62.4743 36.8937 63.1052 36.5089C64.2244 35.8156 64.6379 34.3944 64.3177 32.4008C64.4624 32.4756 64.6232 32.5151 64.7863 32.5166C64.8421 32.5173 64.8972 32.5122 64.9515 32.4997C65.2445 32.4477 65.5001 32.2703 65.6514 32.0153C65.7557 31.7954 65.7329 31.5359 65.5904 31.338C65.4964 31.2061 65.2651 31.0024 64.7914 31.0903C64.4088 31.1746 64.021 30.9723 63.8705 30.611C63.8705 30.6 63.8653 30.589 63.8653 30.5721C63.3417 28.986 62.4986 27.3838 61.6048 26.2602C61.6048 25.9905 61.5784 25.7215 61.5277 25.4562C61.2964 24.2945 60.4254 22.8462 57.581 22.5538C51.1755 21.8927 48.7057 18.2038 47.0798 15.7587C46.9586 15.5828 46.8425 15.412 46.7324 15.2464C45.1064 12.8673 42.3884 8.88595 33.574 9.44738C29.9189 9.67899 28.0006 8.78627 26.1375 7.92727C24.8919 7.34898 23.7117 6.79855 22.1078 6.65489C20.3166 6.49511 18.2492 6.85791 15.598 7.8056C13.0004 8.7269 10.6988 10.3284 8.93254 12.4422C7.32199 14.3691 6.22699 16.6734 5.75183 19.1383C5.37435 21.0513 5.44999 23.0258 5.97216 24.9036C6.49285 26.7513 7.54084 28.4085 8.98762 29.6721C11.3583 31.7375 14.2026 32.8772 17.6756 33.1579C20.73 33.4057 23.8549 32.982 26.8814 32.5686C28.2981 32.3759 29.6325 32.1941 30.9441 32.0783C34.9958 31.7316 37.3445 33.0033 39.8356 34.3526C41.6657 35.3435 43.562 36.3733 46.28 36.9245C47.1106 37.0967 47.9566 37.1854 48.8049 37.1891C50.8663 37.1891 52.355 36.6108 53.32 36.0325C53.8796 35.7056 54.3915 35.3032 54.8417 34.8371L52.8184 40.8948C50.7709 40.5093 48.6888 40.3356 46.6053 40.3774C44.6327 40.4037 42.6689 40.6493 40.7506 41.1096C38.485 41.6717 36.4676 42.552 34.7528 43.7305C30.9272 46.3625 27.8897 50.5974 26.429 55.3498C25.6616 57.8096 25.3502 60.3888 25.5081 62.9606C25.6821 65.6901 26.4195 68.3543 27.6738 70.7855C28.9363 73.2364 30.4249 75.3341 32.1001 77.0191C33.5814 78.526 35.3241 79.7515 37.2431 80.6369C39.2554 81.5538 41.4425 82.0273 43.6545 82.0244C44.383 82.0244 44.9099 82.1339 45.6319 82.0349L47.2961 82.1943H48.5677C48.5898 82.217 48.6191 82.2324 48.6507 82.2383C48.7073 82.2456 48.6507 82.2383 48.8218 82.2493C49.2845 82.2493 50.96 82.2887 52.507 82.8953C53.273 81.2762 54.3834 81.3075 55.1942 81.2255C55.7398 81.1705 56.3516 81.1096 57.0192 80.5922C57.9453 79.8761 57.7631 78.9064 57.6148 78.1251C57.4709 77.3599 57.4114 76.8747 57.9401 76.594C59.3069 75.8728 61.3749 74.7822 61.5512 71.9904C62.2019 71.3513 62.8195 70.718 63.3924 70.1068C63.3924 70.1346 63.3872 70.1566 63.3872 70.1837C63.3101 70.5084 63.2271 70.8339 63.1449 71.1586C62.9686 71.8307 62.7755 72.4852 62.5603 73.1301C62.351 73.7356 62.1299 74.3417 61.9257 74.8811C61.021 77.2126 59.7967 79.4063 58.2875 81.4014C56.5661 83.6654 58.7707 75.8186 56.359 77.327C56.359 77.5197 56.359 77.327 56.3039 77.3768C55.8862 77.0169 56.2393 77.4494 56.2378 77.4977C56.209 78.4468 54.2152 80.5437 55.1942 78.9496C52.8903 78.8268 52.8392 82.2493 55.0828 82.2493C55.8847 82.2712 55.7053 82.4898 56.359 82.0244C56.8385 81.6667 58.4256 80.5922 59.1313 78.1251C59.3517 75.9007 59.9792 76.0372 59.8929 76.4174C59.1843 79.5404 60.136 77.8583 60.6596 76.7868C61.5321 76.8952 63.0369 77.3291 63.916 77.327C65.6345 77.3218 67.3471 77.1225 69.0208 76.7326C72.532 75.9007 75.8728 74.2325 78.9383 71.7596C84.7489 67.0739 89.7208 57.7832 91.3585 54.7327C91.6229 54.2423 91.8329 53.8517 91.8821 53.7909C92.0033 53.6311 92.3507 53.3775 92.7201 53.1136C93.6961 52.4151 94.269 51.9636 94.0986 51.562V51.5649ZM73.2936 51.6807C73.547 51.8456 73.4978 52.5287 73.1555 53.5145C72.8361 53.6795 72.4938 53.8671 72.1355 54.065C72.6481 52.7156 73.1122 51.8185 73.2936 51.6807ZM70.8958 55.1504C74.0155 53.3445 76.1159 52.3748 76.6506 52.5075H76.6557C76.4244 52.7992 75.1781 53.6641 74.0589 54.3523C73.9818 54.3977 73.956 54.4974 74.0016 54.5744L74.0038 54.578C74.0265 54.6169 74.0647 54.6447 74.1088 54.655C74.1213 54.6601 74.1345 54.6616 74.1477 54.6609C74.1587 54.6609 75.0907 54.7048 76.0608 54.8316C77.7698 55.0574 78.1003 55.3491 78.1671 55.459C78.2002 55.514 78.2332 55.5909 78.2053 55.6408C78.1267 55.7214 78.0202 55.7705 77.9079 55.7786C77.8807 55.7844 77.855 55.794 77.8308 55.8064C76.4523 55.4488 74.4459 55.5037 74.3357 55.5089C74.2461 55.5103 74.1742 55.5836 74.1756 55.673C74.1756 55.6752 74.1756 55.6789 74.1756 55.6789C74.1808 55.7691 74.2557 55.8394 74.3467 55.8387C75.3059 55.8108 77.9079 55.8775 78.6408 56.5159C78.6357 56.5342 78.6269 56.5518 78.6136 56.5658C78.5696 56.6156 78.4043 56.7307 77.8418 56.6757C77.4452 56.6317 74.7874 56.428 74.6772 56.417C74.5862 56.4111 74.5068 56.48 74.501 56.5709C74.501 56.6075 74.5113 56.6434 74.5281 56.6757C74.548 56.7079 74.5796 56.7314 74.6163 56.7417C74.6273 56.7417 75.2391 56.9447 75.8508 57.21C76.926 57.6725 77.0192 57.8982 77.0251 57.9261C76.854 58.1416 76.0439 57.7612 75.5093 57.5076C75.0907 57.3148 74.6934 57.1279 74.407 57.0832C74.1198 57.0444 73.5521 57.2928 71.6618 59.4565C71.1991 59.2564 70.7695 58.9874 70.3883 58.6583V58.6304C70.392 57.8623 69.8713 57.1902 69.1259 57.0004C69.0194 56.79 68.9327 56.5709 68.8666 56.3451C69.5276 55.9538 70.2062 55.5462 70.8958 55.1504ZM70.0637 58.6363C70.0637 59.3722 69.4666 59.9695 68.7293 59.9695C67.9919 59.9695 67.3949 59.3729 67.3949 58.6363C67.3949 58.5154 67.4118 58.3944 67.4441 58.2786C67.4654 58.2478 67.4771 58.2112 67.4771 58.1738C67.7224 57.4819 68.4825 57.1191 69.1751 57.3632C69.7134 57.553 70.0703 58.0653 70.0622 58.6363H70.0637ZM63.6083 50.3981C63.6692 50.3175 63.761 50.2654 63.8616 50.2544C64.4462 50.1995 66.1603 51.6199 67.1305 52.5566C68.1116 53.7183 68.9555 54.7811 69.5122 55.58C67.5058 56.7805 65.6756 57.9532 64.6056 58.6744C64.422 56.4588 64.0151 54.2673 63.3931 52.1322C63.3439 51.7357 63.3057 50.7726 63.6083 50.3981ZM52.7207 41.2122L52.5665 41.6695C52.5371 41.7553 52.5826 41.8484 52.6686 41.8777L52.6708 41.8784C52.6855 41.8872 52.7031 41.8909 52.72 41.8894C52.7912 41.8887 52.8536 41.8418 52.8742 41.7736L55.4432 34.0917C55.4725 34.0059 55.4263 33.9121 55.3403 33.8828H55.3381C55.3242 33.8784 55.3088 33.8762 55.2941 33.8769C54.8424 33.8051 54.5332 33.5794 54.4069 33.2217C54.2468 32.7863 54.379 32.1919 54.7212 31.8064C54.8534 31.6576 55.1288 31.4157 55.4872 31.4978C56.132 31.6415 56.3582 32.1809 56.4302 32.6046C56.461 32.7863 56.5785 32.9424 56.7445 33.0231C56.9083 33.1052 57.1022 33.1008 57.263 33.0121C58.5196 32.329 59.7218 31.1174 60.5539 29.6911C61.1385 28.6892 61.4858 27.6865 61.5791 26.7667C62.4163 27.9548 63.0758 29.2594 63.5363 30.6381C63.5363 30.6491 63.5414 30.6601 63.5414 30.6769C63.7331 31.2156 64.2927 31.5308 64.8538 31.415C65.08 31.371 65.2394 31.4091 65.3283 31.5308C65.3951 31.6261 65.4076 31.7492 65.3613 31.8555C65.257 32.0233 65.0866 32.1391 64.8927 32.1751C64.6665 32.219 64.4411 32.1362 64.209 31.9383C64.1437 31.8789 64.0416 31.8833 63.9821 31.9493C63.9806 31.9515 63.9791 31.953 63.9769 31.9552C63.9564 31.9764 63.9432 32.0035 63.9388 32.0321C63.927 32.0636 63.9226 32.0981 63.9277 32.1311C64.4293 34.692 63.6634 35.765 62.9297 36.2223C60.7691 37.5607 58.4476 35.9856 58.4256 35.9687C58.3543 35.9152 58.253 35.9292 58.1994 35.9995C58.1972 36.0017 58.1957 36.0047 58.1942 36.0069C58.1494 36.0677 58.1516 36.152 58.1994 36.2099C58.9492 37.4757 59.2753 38.9474 59.1313 40.4118V40.4177L58.5196 42.9236V42.9294C58.5196 42.9404 58.5144 42.9463 58.5144 42.9573V42.9683C58.5137 42.9793 58.5152 42.991 58.5196 43.0013V43.0071C58.5269 43.035 58.5401 43.0614 58.5585 43.0841L58.5967 43.1229C59.0682 43.7166 59.5015 44.3403 59.8929 44.9905C58.0018 46.0312 56.1225 46.301 54.3144 45.7776C51.0397 44.8358 48.9062 41.5816 48.3995 40.7328C49.8499 40.7841 51.2938 40.9439 52.7207 41.2122ZM48.0132 40.7167C48.4759 41.52 49.0193 42.2749 49.634 42.9698C50.6042 44.0765 52.1919 45.5197 54.2262 46.1031C54.8498 46.2841 55.4953 46.3764 56.1445 46.3779C57.4341 46.3779 58.7465 46.0144 60.0699 45.2712C60.2572 45.5849 60.4555 45.9323 60.6596 46.312C59.9407 46.7715 59.1482 47.105 58.3169 47.2978C56.9443 47.6283 54.7719 47.7712 52.203 46.5597C49.7882 45.4251 48.4046 43.85 47.6658 42.7272C47.2487 42.1027 46.9182 41.4247 46.6846 40.7116C47.1473 40.7057 47.5887 40.705 48.0132 40.7167ZM27.9749 70.6352C26.7411 68.2451 26.0163 65.6256 25.8474 62.9423C25.6931 60.4093 26.0016 57.8697 26.7566 55.4473C28.019 51.3392 30.4719 47.6334 33.5975 45.0286C34.6228 46.5318 33.7136 50.3922 35.2676 50.2105C36.9765 50.0074 35.3726 47.5675 36.4522 43.9219C36.5623 43.5085 36.9046 43.101 37.0368 42.7931C38.2493 42.2068 39.5205 41.7509 40.8292 41.4328C42.6373 40.9974 44.4873 40.757 46.3475 40.7167C46.5884 41.49 46.9395 42.2251 47.3897 42.8979C48.1446 44.0596 49.5782 45.6897 52.07 46.8624C53.4074 47.5096 54.8725 47.8519 56.359 47.8643C57.0522 47.8687 57.7433 47.7837 58.4153 47.6107C59.2679 47.4172 60.0817 47.0786 60.819 46.6088C60.924 46.8118 61.0342 47.0222 61.1385 47.2369C61.9184 48.8274 62.5603 50.4816 63.0567 52.1821C63.0626 52.2018 63.0663 52.2224 63.0677 52.2429C63.0714 52.2641 63.0795 52.2847 63.0898 52.3037C63.7118 54.4542 64.1128 56.6632 64.2861 58.895C64.209 58.9449 64.137 58.994 64.0768 59.0387C63.8396 59.2036 63.5642 59.4022 63.2719 59.6111C61.8553 60.6299 59.7108 62.1661 57.3842 63.2238C55.5981 64.0329 53.9611 64.4404 52.4945 64.4404C51.741 64.447 50.9927 64.3276 50.2781 64.0879C48.2276 63.3828 47.0974 61.7476 46.9263 59.2307C46.8609 58.0052 46.9879 56.7776 47.3008 55.5909C47.3258 55.5037 47.2751 55.4136 47.1884 55.3887C47.1025 55.3645 47.0129 55.4121 46.9865 55.4971C46.6582 56.7167 46.5282 57.9811 46.6009 59.2417C46.6384 59.8801 46.7566 60.5112 46.9534 61.1195C45.478 61.055 43.9989 61.1305 42.5375 61.3452C40.1778 61.6868 36.8649 62.5568 34.4392 64.7761C31.0212 67.9043 29.5216 71.6973 29.1581 72.7336C28.7446 72.0667 28.348 71.3674 27.9727 70.6352H27.9749ZM57.6434 75.1289C57.1088 75.5752 56.5352 76.0428 55.9345 76.5112C53.4595 78.433 51.188 79.8321 49.2147 80.6743C48.7777 80.8509 48.3304 81.0019 47.8751 81.1258C44.2971 82.0947 40.6647 81.825 37.3849 80.3386C35.5026 79.4686 33.7936 78.2651 32.341 76.7868C31.5449 75.9842 30.8134 75.1208 30.1524 74.2039C30.3595 73.3779 30.6511 72.5746 31.0234 71.8087C31.6683 70.4263 32.8925 68.262 35.07 65.8338C37.2306 63.4217 40.3842 62.3648 42.6447 61.8964C44.1025 61.5945 45.5882 61.4486 47.0768 61.461C47.3155 62.0774 47.6739 62.6403 48.13 63.119C46.8734 64.4294 43.0802 64.2206 43.3453 65.7678C43.7037 67.3429 45.771 66.4399 49.3814 65.2445C50.3236 64.9396 51.307 64.7783 52.2977 64.7651C52.3697 64.7651 52.4358 64.771 52.507 64.771C54.0177 64.771 55.7046 64.3525 57.5237 63.5206C59.8834 62.4468 62.0388 60.8996 63.4665 59.8742C63.7588 59.6653 64.0291 59.4726 64.2656 59.3069C64.7951 58.9434 65.7373 58.316 66.9006 57.5779C66.9498 57.7216 67.0218 57.9305 67.1268 58.1782C67.0864 58.327 67.0666 58.4809 67.0666 58.6356C67.0666 59.5019 67.7253 60.226 68.5883 60.3089C69.0546 60.7376 69.6311 61.0271 70.2532 61.1459C68.8306 62.8969 67.436 64.7585 66.6421 65.8213C65.1087 67.8874 61.5975 71.764 57.6449 75.1289H57.6434ZM64.6335 74.8591C63.5532 74.0053 63.6083 71.5881 63.7074 70.3882C63.7236 70.3003 63.7353 70.2233 63.7515 70.1405C63.7897 69.9646 63.8345 69.788 63.8727 69.6172C64.9486 68.4738 65.9642 67.2754 66.916 66.0265C67.4286 65.3383 68.1895 64.3136 69.0546 63.2018C68.6661 64.0557 68.3254 64.9308 68.0345 65.8228C67.0908 68.7706 66.6076 71.8468 66.601 74.942C65.7689 75.2608 65.1072 75.2344 64.6335 74.8591ZM93.4699 52.122C93.1681 52.3858 92.8516 52.6321 92.5218 52.86C92.1194 53.1517 91.772 53.4053 91.6178 53.5981C91.5517 53.6809 91.4084 53.9448 91.0611 54.589C89.4351 57.6234 84.4845 66.8694 78.7231 71.5111C75.6914 73.951 72.4006 75.6024 68.9386 76.4174C68.2879 76.5713 67.6321 76.6922 66.9814 76.786L66.9315 75.4367C66.8852 72.2154 67.3596 69.0074 68.3371 65.9378C69.1751 63.3608 70.0901 61.9015 70.1011 61.8854C70.1107 61.8722 70.118 61.8568 70.1232 61.8414C70.5646 61.291 71.0111 60.7457 71.4466 60.2275C71.7881 59.8251 72.0862 59.4785 72.3558 59.1867C73.0278 59.8977 73.7871 60.5214 74.6163 61.0425C73.2216 61.5549 71.3474 61.6927 71.5185 62.7283C71.8329 64.1048 73.641 63.3117 76.7997 62.2709C77.2645 62.1178 77.7434 62.0071 78.2281 61.9404C78.2038 61.9404 78.1803 61.9382 78.1561 61.9345C78.2876 61.9177 78.4153 61.8957 78.5417 61.8686C80.3556 61.4779 82.7035 59.2915 84.3523 57.5237C86.1883 55.558 87.7151 53.5094 87.9193 53.0139C88.0955 52.5786 88.2997 51.7914 88.4928 51.0262C88.6529 50.4047 88.8454 49.6439 88.9555 49.4123C88.9717 49.4255 88.9864 49.4401 88.9996 49.4563C89.1156 49.605 89.358 50.1555 88.9607 52.0003C88.9423 52.0904 89.0011 52.1784 89.0914 52.196C89.1788 52.2136 89.2647 52.1586 89.286 52.0721C89.2912 52.0443 89.297 52.0223 89.3029 52.0003C89.3176 51.9944 89.3308 51.9849 89.3411 51.9724C89.3462 51.9614 90.3333 51.0086 90.6968 50.6671C90.9281 50.4516 91.1433 50.2427 91.3313 50.0609C91.96 49.4555 92.4998 48.9322 92.676 49.048C92.676 49.0869 92.643 49.2635 92.2405 49.7802C91.7066 50.4443 91.1374 51.0804 90.5367 51.6859C90.4728 51.7496 90.4728 51.8537 90.5367 51.9175C90.6006 51.9812 90.7041 51.9812 90.768 51.9175L90.7732 51.9123C91.5832 51.0695 92.35 50.2324 92.7355 49.6432C92.7612 49.6366 92.7855 49.6256 92.8075 49.6102C92.9176 49.5164 93.0998 49.4233 93.16 49.4453C93.1651 49.4453 93.1761 49.4621 93.1872 49.5002C93.2591 49.8029 92.5527 50.6619 92.0848 51.2351C91.4782 51.9732 91.1419 52.4027 91.1808 52.6782C91.1903 52.7545 91.2322 52.8226 91.2968 52.8652C91.5891 53.0579 92.0577 52.7662 92.8075 52.2649C93.1108 52.0619 93.6175 51.7254 93.7828 51.7144C93.7769 51.7584 93.7328 51.8794 93.4677 52.122H93.4699Z" fill="#6F46BE"/>
<path d="M58.3 81.4116C59.6413 79.9279 61.0313 77.2222 61.9382 74.8914C62.1417 74.352 62.3627 73.7458 62.5728 73.1404C62.7821 72.4962 62.9804 71.8409 63.1574 71.1688C63.2404 70.8441 63.3226 70.5187 63.3997 70.194C63.3997 70.1662 63.4049 70.1391 63.4049 70.1171C62.8313 70.7283 62.2144 71.3565 61.5637 72.0007C61.3874 74.7925 59.3201 75.8831 57.9526 76.6043C57.4231 76.885 57.4841 77.3695 57.6273 78.1354C57.7764 78.9175 57.9578 79.8864 57.0317 80.6025C56.3648 81.1199 55.7531 81.1808 55.2067 81.2357C54.3966 81.3186 53.7049 80.4507 52.9382 82.0697C50.4722 82.5629 46.119 81.9876 45.5403 82.0697C46.1748 82.6092 49.8389 82.3868 52.3817 82.8954C53.3988 82.8954 56.9587 82.8954 58.3 81.4116Z" fill="white"/>
<circle cx="79.844" cy="37.1249" r="9.20252" fill="#EDE3FF" stroke="#6F46BE" stroke-width="0.920252"/>
<circle cx="79.844" cy="37.1249" r="9.15408" fill="#EDE3FF" stroke="#6F46BE" stroke-width="1.01712"/>
<path d="M77.9728 38.6814L84.1062 32.548L85.4185 33.8696L77.9728 41.3154L74.2499 37.5925L75.5622 36.2802L77.9728 38.6814Z" fill="#6F46BE"/>
<path d="M77.9728 38.6814L84.1062 32.548L85.4185 33.8696L77.9728 41.3154L74.2499 37.5925L75.5622 36.2802L77.9728 38.6814Z" fill="#6F46BE"/>
</svg>
