<svg width="30" height="39" viewBox="0 0 30 39" fill="none" xmlns="http://www.w3.org/2000/svg">
<path d="M19.6009 34.602L20.3054 19.1011C20.369 17.7015 19.4043 16.4968 18.5275 15.402L18.5127 15.3836C17.5221 14.1466 17.3653 12.5537 17.4621 11.6819C17.6026 8.59068 18.811 2.4082 22.5203 2.4082C27.157 2.4082 28 7.88812 28 11.6819C28 13.2764 27.3796 14.4753 26.6276 15.3153C25.6516 16.4056 24.7197 17.7503 24.8522 19.2077L26.2048 34.0863C26.2753 34.8614 26.0926 35.6681 25.5147 36.1895C23.5948 37.9217 21.0093 37.6118 19.8832 35.8975C19.6347 35.5192 19.5803 35.0542 19.6009 34.602Z" stroke="#6F46BE" stroke-width="2.33036"/>
<path d="M2 2V8.56354C2 10.0928 2.5612 11.5689 3.57718 12.7118V12.7118C4.65041 13.9192 5.21393 15.4956 5.14937 17.1097L4.54801 32.1437C4.47618 33.9393 5.38708 36.5878 7.14782 36.9473V36.9473C10.2801 37.5868 11.1132 33.7224 10.7468 30.5465L9.20939 17.2211C9.01652 15.5494 9.54537 13.8748 10.6633 12.617V12.617C11.625 11.5351 12.1563 10.1379 12.1563 8.69038V2" stroke="#6F46BE" stroke-width="2.33036" stroke-linecap="round"/>
<path d="M5.24994 2.40674V7.28174" stroke="#6F46BE" stroke-width="2.33036" stroke-linecap="round"/>
<path d="M8.49988 2.40674V7.28174" stroke="#6F46BE" stroke-width="2.33036" stroke-linecap="round"/>
</svg>
