<svg width="28" height="36" viewBox="0 0 28 36" fill="none" xmlns="http://www.w3.org/2000/svg">
<g clip-path="url(#clip0_772_4567)">
<path d="M12 28.6H15.9V23H21.6V19H15.9V13.4H12V19H6.3V23H12V28.6ZM3 36C2.2 36 1.5 35.7 0.9 35.1C0.3 34.5 0 33.8 0 33V9C0 8.2 0.3 7.5 0.9 6.9C1.5 6.3 2.2 6.1 3 6.1H25C25.8 6.1 26.5 6.4 27.1 7C27.7 7.5 28 8.2 28 9.1V33.1C28 33.9 27.7 34.6 27.1 35.2C26.5 35.7 25.8 36 25 36H3ZM3 33H25V9H3V33ZM2 3V0H26.1V3H2Z" fill="#6F46BE"/>
</g>
<defs>
<clipPath id="clip0_772_4567">
<rect width="28" height="36" fill="white"/>
</clipPath>
</defs>
</svg>
