<svg width="40" height="38" viewBox="0 0 40 38" fill="none" xmlns="http://www.w3.org/2000/svg">
<g clip-path="url(#clip0_772_4555)">
<path d="M0 38V19C0 18.2 0.3 17.5 0.9 16.9C1.5 16.3 2.2 16 3 16H14V20C14 21.7 14.6 23.1 15.8 24.2C17 25.4 18.4 26 20 26C21.6 26 23.1 25.4 24.2 24.2C25.4 23 26 21.6 26 20V16H37C37.8 16 38.5 16.3 39.1 16.9C39.7 17.5 40 18.2 40 19V38H0ZM3 35H37V19H29V20C29 22.5 28.1 24.6 26.4 26.4C24.6 28.1 22.5 29 20 29C17.5 29 15.4 28.1 13.6 26.4C11.9 24.6 11 22.4 11 20V19H3V35ZM20 21C19.6 21 19.2 20.9 18.9 20.6C18.6 20.3 18.5 20 18.5 19.5C18.5 15.9 18.9 12.4 19.7 9C20.5 5.6 22.3 2.7 25 0.4C25.3 0.1 25.7 0 26.1 0C26.5 0 26.8 0.2 27.1 0.5C27.4 0.8 27.5 1.2 27.5 1.6C27.5 2 27.3 2.3 27 2.6C24.6 4.6 23.1 7.1 22.5 10.2C21.9 13.2 21.6 16.3 21.6 19.5C21.6 19.9 21.5 20.3 21.2 20.6C20.8 20.8 20.4 21 20 21ZM7.5 27C7.9 27 8.3 26.9 8.6 26.6C8.9 26.3 9 25.9 9 25.5C9 25.1 8.9 24.7 8.6 24.4C8.3 24.1 7.9 24 7.5 24C7.1 24 6.7 24.1 6.4 24.4C6.1 24.7 6 25 6 25.5C6 26 6.1 26.3 6.4 26.6C6.7 26.8 7.1 27 7.5 27ZM9.5 32C9.9 32 10.3 31.9 10.6 31.6C10.9 31.3 11 31 11 30.5C11 30.1 10.9 29.7 10.6 29.4C10.3 29.1 9.9 29 9.5 29C9.1 29 8.7 29.1 8.4 29.4C8.1 29.7 8 30 8 30.5C8 30.9 8.1 31.3 8.4 31.6C8.7 31.9 9.1 32 9.5 32ZM32.5 27C32.9 27 33.3 26.9 33.6 26.6C33.9 26.3 34 26 34 25.5C34 25 33.9 24.7 33.6 24.4C33.3 24.1 32.9 24 32.5 24C32.1 24 31.7 24.1 31.4 24.4C31.1 24.7 31 25 31 25.5C31 26 31.1 26.3 31.4 26.6C31.7 26.8 32.1 27 32.5 27Z" fill="#6F46BE"/>
</g>
<defs>
<clipPath id="clip0_772_4555">
<rect width="40" height="38" fill="white"/>
</clipPath>
</defs>
</svg>
