<svg width="36" height="40" viewBox="0 0 36 40" fill="none" xmlns="http://www.w3.org/2000/svg">
<g clip-path="url(#clip0_772_4569)">
<path d="M26 11.5C25.3 11.5 24.8 11.3 24.2 10.7C23.6 10.1 23.5 9.7 23.5 9C23.5 8.5 23.7 7.9 24.2 7.1C24.6 6.3 25.3 5.5 26 4.7C26.8 5.5 27.4 6.3 27.8 7.1C28.2 7.9 28.5 8.5 28.5 9C28.5 9.7 28.3 10.2 27.8 10.8C27.3 11.2 26.7 11.5 26 11.5ZM31.5 25.5C30.3 25.5 29.2 25.1 28.3 24.2C27.4 23.3 27 22.2 27 21C27 20 27.5 18.7 28.4 17.1C29.3 15.5 30.4 14.1 31.5 12.7C32.6 14.1 33.7 15.5 34.6 17.1C35.5 18.7 36 20 36 21C36 22.2 35.6 23.3 34.7 24.2C33.8 25.1 32.8 25.5 31.5 25.5ZM10 31.5H13V27.5H17V24.5H13V20.5H10V24.5H6V27.5H10V31.5ZM3 40C2.2 40 1.5 39.7 0.9 39.1C0.3 38.5 0 37.8 0 37V19.5C0 16.6 0.9 14.1 2.9 12C4.9 9.9 7.1 8.6 10 8.1V3H5.5V0H17.5C18.5 0 19.4 0.1 20.3 0.4C21.2 0.7 22 1.1 22.7 1.6L20.5 3.8C20 3.5 19.6 3.3 19.1 3.2C18.6 3.1 18.1 3 17.5 3H13V8.1C15.9 8.6 18.2 9.9 20.1 12C22 14.1 23 16.6 23 19.5V37C23 37.8 22.7 38.5 22.1 39.1C21.5 39.7 20.8 40 20 40H3ZM3 37H20V19.5C20 17.1 19.2 15.1 17.5 13.5C15.9 11.8 13.9 11 11.5 11C9.1 11 7.1 11.8 5.5 13.5C3.9 15.2 3 17.1 3 19.5V37Z" fill="#6F46BE"/>
</g>
<defs>
<clipPath id="clip0_772_4569">
<rect width="36" height="40" fill="white"/>
</clipPath>
</defs>
</svg>
