<svg width="42" height="42" viewBox="0 0 42 42" fill="none" xmlns="http://www.w3.org/2000/svg">
<path d="M20.9997 19.3375L17.3684 22.9688C17.1059 23.2313 16.7997 23.3625 16.4497 23.3625C16.0997 23.3625 15.7934 23.2313 15.5309 22.9688C15.2684 22.7062 15.1372 22.3927 15.1372 22.0281C15.1372 21.6635 15.2684 21.35 15.5309 21.0875L19.6872 16.975V4.8125C19.6872 4.43333 19.8112 4.11979 20.0591 3.87188C20.307 3.62396 20.6205 3.5 20.9997 3.5C21.3789 3.5 21.6924 3.62396 21.9403 3.87188C22.1882 4.11979 22.3122 4.43333 22.3122 4.8125V16.975L26.4684 21.1312C26.7309 21.3937 26.8622 21.7 26.8622 22.05C26.8622 22.4 26.7309 22.7062 26.4684 22.9688C26.2059 23.2313 25.8924 23.3625 25.5278 23.3625C25.1632 23.3625 24.8497 23.2313 24.5872 22.9688L20.9997 19.3375ZM8.31219 36.75C6.97053 36.75 5.83303 36.2833 4.89969 35.35C3.96636 34.4167 3.49969 33.2792 3.49969 31.9375V24.325C3.49969 24.1792 3.51428 24.026 3.54344 23.8656C3.57261 23.7052 3.61636 23.5521 3.67469 23.4062L8.22469 11.6375C8.57469 10.7333 9.15803 10.026 9.97469 9.51562C10.7914 9.00521 11.6809 8.75 12.6434 8.75C13.8684 8.75 14.9112 9.18021 15.7716 10.0406C16.632 10.901 17.0622 11.9438 17.0622 13.1688V14.4375C17.0622 14.8167 16.9382 15.1302 16.6903 15.3781C16.4424 15.626 16.1289 15.75 15.7497 15.75C15.3705 15.75 15.057 15.626 14.8091 15.3781C14.5612 15.1302 14.4372 14.8167 14.4372 14.4375V13.1688C14.4372 12.6729 14.2476 12.25 13.8684 11.9C13.4893 11.55 13.0518 11.375 12.5559 11.375C12.1476 11.375 11.7684 11.4698 11.4184 11.6594C11.0684 11.849 10.8205 12.1333 10.6747 12.5125L6.12469 24.2812V31.9375C6.12469 32.55 6.33615 33.0677 6.75907 33.4906C7.18199 33.9135 7.69969 34.125 8.31219 34.125H14.4372C15.0497 34.125 15.5674 33.9135 15.9903 33.4906C16.4132 33.0677 16.6247 32.55 16.6247 31.9375V30.1875C16.6247 29.8083 16.7487 29.4948 16.9966 29.2469C17.2445 28.999 17.558 28.875 17.9372 28.875C18.3164 28.875 18.6299 28.999 18.8778 29.2469C19.1257 29.4948 19.2497 29.8083 19.2497 30.1875V31.9375C19.2497 33.2792 18.783 34.4167 17.8497 35.35C16.9164 36.2833 15.7789 36.75 14.4372 36.75H8.31219ZM33.6872 36.75H27.5622C26.2205 36.75 25.083 36.2833 24.1497 35.35C23.2164 34.4167 22.7497 33.2792 22.7497 31.9375V30.1875C22.7497 29.8083 22.8737 29.4948 23.1216 29.2469C23.3695 28.999 23.683 28.875 24.0622 28.875C24.4414 28.875 24.7549 28.999 25.0028 29.2469C25.2507 29.4948 25.3747 29.8083 25.3747 30.1875V31.9375C25.3747 32.55 25.5862 33.0677 26.0091 33.4906C26.432 33.9135 26.9497 34.125 27.5622 34.125H33.6872C34.2997 34.125 34.8174 33.9135 35.2403 33.4906C35.6632 33.0677 35.8747 32.55 35.8747 31.9375V24.2812L31.3247 12.5125C31.1789 12.1333 30.9309 11.849 30.5809 11.6594C30.2309 11.4698 29.8518 11.375 29.4434 11.375C28.9476 11.375 28.5101 11.55 28.1309 11.9C27.7518 12.25 27.5622 12.6729 27.5622 13.1688V14.4375C27.5622 14.8167 27.4382 15.1302 27.1903 15.3781C26.9424 15.626 26.6289 15.75 26.2497 15.75C25.8705 15.75 25.557 15.626 25.3091 15.3781C25.0612 15.1302 24.9372 14.8167 24.9372 14.4375V13.1688C24.9372 11.9438 25.3674 10.901 26.2278 10.0406C27.0882 9.18021 28.1309 8.75 29.3559 8.75C30.3184 8.75 31.208 9.00521 32.0247 9.51562C32.8414 10.026 33.4247 10.7333 33.7747 11.6375L38.3247 23.4062C38.383 23.5521 38.4268 23.7052 38.4559 23.8656C38.4851 24.026 38.4997 24.1792 38.4997 24.325V31.9375C38.4997 33.2792 38.033 34.4167 37.0997 35.35C36.1664 36.2833 35.0289 36.75 33.6872 36.75Z" fill="#6F46BE"/>
</svg>
