<svg xmlns="http://www.w3.org/2000/svg" width="20" height="24" viewBox="0 0 20 24" fill="none">
  <g clip-path="url(#clip0_5458_79623)">
    <path d="M8.2832 11.8867H9.57198V13.2895H8.2832V11.8867Z" fill="black"/>
    <path d="M5.9209 13.2896H7.20968V14.6924H5.9209V13.2896Z" fill="black"/>
    <path d="M6.78027 16.5625H8.06905V17.9653H6.78027V16.5625Z" fill="black"/>
    <path d="M18.6016 16.5758C18.477 15.1108 17.4022 13.9409 16.0563 13.8053C15.7397 13.5191 15.3788 13.3208 15.0003 13.2086V5.95939C15.0003 5.38424 14.7916 4.8465 14.4127 4.4453C14.0338 4.0441 13.5341 3.83181 13.0053 3.84771C12.797 3.85379 12.5959 3.89774 12.4082 3.97256V2.98966C12.4082 1.82486 11.5378 0.877505 10.4677 0.877505C10.1442 0.877505 9.83921 0.964011 9.57072 1.11692C9.23907 0.468821 8.60284 0.0288086 7.87383 0.0288086C7.14481 0.0288086 6.50901 0.467886 6.17736 1.11598C5.9093 0.963543 5.60429 0.877037 5.28166 0.877037C4.21154 0.877037 3.34119 1.8244 3.34119 2.98919V8.7491C3.11823 8.6626 2.88023 8.62145 2.63537 8.62846C1.59532 8.65932 0.749023 9.61977 0.749023 10.7691V14.119C0.749023 15.4582 1.06778 16.7783 1.67093 17.937C2.19589 18.9451 2.92706 19.8182 3.79913 20.4817V23.97H11.9498V23.1606C12.1131 23.2111 12.2823 23.2461 12.4563 23.2639C12.9761 23.7338 13.6162 23.9691 14.2559 23.9691C14.8955 23.9691 15.5356 23.7338 16.0554 23.2639C17.4013 23.1283 18.4762 21.9584 18.6008 20.4934C19.4642 19.3618 19.4642 17.7074 18.6008 16.5753L18.6016 16.5758ZM5.08834 22.5677V19.7167L4.78548 19.5105C3.06496 18.3396 2.0378 16.3242 2.0378 14.1195V10.7696C2.0378 10.3726 2.32176 10.0416 2.67059 10.0313C2.84802 10.0252 3.01642 10.0972 3.14358 10.2319C3.27074 10.3665 3.34076 10.547 3.34076 10.7406V14.8836H4.62954V2.99013C4.62954 2.59874 4.92209 2.28078 5.28123 2.28078C5.64037 2.28078 5.93292 2.59921 5.93292 2.99013V10.4867H7.2217V2.14143C7.2217 1.75005 7.51426 1.43208 7.8734 1.43208C8.23254 1.43208 8.52509 1.75052 8.52509 2.14143L8.52638 10.4862H9.81516V2.99013C9.81516 2.59874 10.1077 2.28078 10.4668 2.28078C10.826 2.28078 11.1185 2.59921 11.1185 2.99013L11.1177 10.4867H12.4065L12.4069 5.9622C12.4194 5.57736 12.6982 5.2608 13.0397 5.25051C13.2167 5.24537 13.3855 5.31644 13.5131 5.45111C13.6403 5.58578 13.7103 5.76627 13.7103 5.95986V13.1586C13.2601 13.2544 12.8275 13.4695 12.4559 13.8053C11.11 13.9409 10.0351 15.1108 9.91053 16.5758C9.04704 17.7074 9.04704 19.3618 9.91053 20.4938C9.96981 21.1906 10.2443 21.82 10.6602 22.3039V22.5681H5.08834V22.5677ZM17.5139 19.7125L17.3253 19.9178V20.2081C17.3253 21.1265 16.6388 21.8737 15.7951 21.8737H15.5283L15.3397 22.079C14.743 22.7285 13.7721 22.7285 13.1754 22.079L12.9868 21.8737H12.7201C11.8763 21.8737 11.1899 21.1265 11.1899 20.2081V19.9178L11.0013 19.7125C10.4046 19.063 10.4046 18.0062 11.0013 17.3567L11.1899 17.1514V16.861C11.1899 15.9427 11.8763 15.1955 12.7201 15.1955H12.9868L13.1754 14.9902C13.7721 14.3407 14.743 14.3407 15.3397 14.9902L15.5283 15.1955H15.7951C16.6388 15.1955 17.3253 15.9427 17.3253 16.861V17.1514L17.5139 17.3567C18.1106 18.0062 18.1106 19.063 17.5139 19.7125Z" fill="black"/>
    <path d="M12.3242 16.8979H13.613V18.3008H12.3242V16.8979Z" fill="black"/>
    <path d="M14.9014 18.7686H16.1901V20.1714H14.9014V18.7686Z" fill="black"/>
  </g>
  <defs>
    <clipPath id="clip0_5458_79623">
      <rect width="18.5" height="23.9412" fill="white" transform="translate(0.75 0.0292969)"/>
    </clipPath>
  </defs>
</svg>