<svg width="508" height="265" viewBox="0 0 508 265" fill="none" xmlns="http://www.w3.org/2000/svg">
<path d="M52.8328 93.8985C73.3509 82.8637 130.141 118.609 150.227 165.583C164.504 198.977 163.147 244.873 143.373 252.299C122.57 260.11 85.2493 223.924 66.8545 194.143C44.5908 158.095 33.3527 104.375 52.8328 93.8985Z" fill="#A78ED7"/>
<path d="M80.7858 126.698C83.895 131.018 86.6536 134.995 89.2291 138.861C94.7758 147.108 100.228 155.787 105.426 164.656C121.583 192.214 134.844 221.371 144.997 251.659L143.798 251.985C133.672 221.763 120.444 192.67 104.325 165.171C99.1399 156.325 93.6973 147.664 88.1641 139.43C85.5954 135.576 82.8436 131.61 79.7435 127.301C71.5444 115.869 62.6918 104.583 53.4254 93.7537L54.4181 93.0754C63.6958 103.929 72.5709 115.242 80.7858 126.698Z" fill="#6F46BE"/>
<path d="M80.2859 126.433L80.2226 127.557L42.3386 125.879L42.4019 124.756L80.2859 126.433Z" fill="#6F46BE"/>
<path d="M88.7678 138.616L88.6706 139.735L44.4146 136.573L44.5118 135.454L88.7678 138.616Z" fill="#6F46BE"/>
<path d="M122.995 128.131L102.226 156.637L101.179 156.02L121.948 127.514L122.995 128.131Z" fill="#6F46BE"/>
<path d="M380.235 128.131L401.004 156.637L402.051 156.02L381.282 127.514L380.235 128.131Z" fill="#6F46BE"/>
<path d="M132.522 135.815L107.106 168.506L106.079 167.864L131.497 135.173L132.522 135.815Z" fill="#6F46BE"/>
<path d="M370.708 135.815L396.124 168.506L397.151 167.864L371.733 135.173L370.708 135.815Z" fill="#6F46BE"/>
<path d="M80.3652 201.375C102.556 212.241 122.919 234.921 116.77 245.815C110.297 257.275 75.6868 253.574 53.1585 245.976C25.8886 236.779 -4.14233 214.969 0.472763 202.709C5.3298 189.796 49.1449 186.093 80.3652 201.375Z" fill="#EDE3FF"/>
<path d="M29.0632 208.038C32.5975 208.992 35.7541 209.896 38.7208 210.801C45.1742 212.736 51.7882 214.92 58.3728 217.287C78.826 224.646 98.5738 233.834 117.376 244.739L116.698 245.682C97.9632 234.815 78.2865 225.66 57.9069 218.327C51.3495 215.967 44.7536 213.792 38.3205 211.861C35.3674 210.957 32.2153 210.052 28.7014 209.11C19.5233 206.623 10.0783 204.437 0.635529 202.621L0.897865 201.525C10.3768 203.349 19.8512 205.538 29.0632 208.038Z" fill="#A78ED7"/>
<path d="M29.2577 209.021L10.1778 222.206L9.41575 221.315L28.4956 208.131L29.2577 209.021Z" fill="#A78ED7"/>
<path d="M38.9108 211.789L16.075 226.608L15.3424 225.701L38.1781 210.88L38.9108 211.789Z" fill="#A78ED7"/>
<path d="M61.1248 217.242L59.7409 217.646L51.985 193.223L53.3689 192.821L61.1248 217.242Z" fill="#A78ED7"/>
<path d="M69.984 221.422L68.6838 221.763L61.0772 194.876L62.3774 194.534L69.984 221.422Z" fill="#A78ED7"/>
<path d="M91.3048 207.057C101.516 213.893 109.867 222.525 116.128 232.712L115.034 233.257C108.858 223.21 100.625 214.698 90.5564 207.954C83.6339 203.339 76.1109 199.694 68.1977 197.123L68.6273 196.065C76.653 198.676 84.2831 202.375 91.3048 207.057Z" fill="#6F46BE"/>
<path d="M464.332 99.1665C445.818 85.0258 384.088 111.34 356.824 154.546C337.443 185.262 331.522 230.795 349.872 241.255C369.178 252.257 411.753 222.429 434.628 195.932C462.314 163.859 481.91 112.592 464.332 99.1665Z" fill="#553597"/>
<path d="M431.542 127.132C427.789 130.907 424.436 134.397 421.281 137.807C414.499 145.073 407.743 152.781 401.207 160.716C380.893 185.373 363.187 212.065 348.37 240.367L349.502 240.878C364.282 212.637 381.946 186.003 402.213 161.399C408.732 153.484 415.476 145.793 422.242 138.538C425.389 135.138 428.733 131.658 432.476 127.893C442.38 117.901 452.907 108.157 463.77 98.9301L462.897 98.1034C452.019 107.354 441.466 117.121 431.542 127.132Z" fill="#EDE3FF"/>
<path d="M432.078 126.95L431.962 128.07L469.635 132.405L469.75 131.285L432.078 126.95Z" fill="#EDE3FF"/>
<path d="M421.775 137.639L421.694 138.759L465.893 142.635L465.974 141.515L421.775 137.639Z" fill="#EDE3FF"/>
<path d="M411.099 200.937C387.468 208.156 363.774 227.33 368.121 239.06C372.701 251.399 407.46 253.218 430.907 249.278C459.288 244.51 492.392 227.724 489.774 214.888C487.021 201.369 444.344 190.783 411.099 200.937Z" fill="#EDE3FF"/>
<path d="M460.701 215.628C457.06 216.012 453.8 216.405 450.728 216.829C444.049 217.719 437.173 218.83 430.297 220.126C408.937 224.157 387.984 230.107 367.693 237.902L368.214 238.94C388.432 231.173 409.309 225.244 430.592 221.226C437.441 219.933 444.298 218.828 450.955 217.939C454.014 217.513 457.27 217.119 460.888 216.744C470.344 215.74 480.016 215.075 489.627 214.775L489.542 213.651C479.894 213.954 470.192 214.616 460.701 215.628Z" fill="#A78ED7"/>
<path d="M460.353 216.569L477.107 232.605L478 231.846L461.246 215.81L460.353 216.569Z" fill="#A78ED7"/>
<path d="M450.384 217.774L470.587 236.019L471.454 235.239L451.251 216.993L450.384 217.774Z" fill="#A78ED7"/>
<path d="M427.587 219.646L428.889 220.264L440.411 197.375L439.108 196.759L427.587 219.646Z" fill="#A78ED7"/>
<path d="M418.178 222.372L419.407 222.915L431.172 197.569L429.942 197.026L418.178 222.372Z" fill="#A78ED7"/>
<path d="M399.398 204.817C388.233 209.952 378.622 217.154 370.828 226.223L371.823 226.934C379.51 217.99 388.985 210.888 399.995 205.821C407.56 202.358 415.565 199.949 423.785 198.662L423.529 197.549C415.191 198.859 407.072 201.304 399.398 204.817Z" fill="#EDE3FF"/>
<path d="M195.627 11.3007C199.196 10.2034 202.971 9.94573 206.657 10.5478C225.269 13.2901 240.385 37.2249 243.015 41.5203C245.644 45.8208 247.938 50.3172 249.877 54.9697C260.505 80.3943 253.721 93.6718 254.354 121.21C254.395 122.987 254.549 127.242 251.849 129.051C250.04 130.258 247.7 130.086 245.545 129.869L203.057 125.574C197.666 125.029 192.079 124.421 187.421 121.651C176.49 115.149 175.106 100.158 174.964 87.4411C174.869 79.1908 174.776 70.9412 174.684 62.6925C174.5 46.5099 175.057 28.4215 186.555 17.0249C189.119 14.4861 192.185 12.3881 195.627 11.3007Z" fill="#F4679D"/>
<path d="M147.687 113.587C148.219 99.1181 171.002 92.745 171.03 78.2738C171.03 76.6913 171 75.4456 170.91 74.1909C170.658 70.6567 170.157 67.1446 169.413 63.6805C169.354 63.4183 169.313 63.2442 169.288 63.1334C166.301 50.021 164.716 43.0668 165.46 36.4835C166.767 24.8835 174.937 16.5345 176.723 14.7982C189.406 2.48605 209.18 0.74072 210.625 3.79276C211.213 5.03166 208.341 6.13266 205.361 10.6632C199.808 19.105 203.505 24.827 200.746 40.0781C198.46 52.7113 195.161 53.0165 196.633 58.9058C198.551 66.5676 204.733 68.4349 204.943 76.7546C205.006 79.2798 205.076 83.3877 202.424 86.3832C201.167 87.8052 199.365 88.8112 198.564 90.5204C197.727 92.3064 198.2 94.3818 198.263 96.3464C198.501 103.554 193.126 109.685 187.636 114.469C182.146 119.253 175.896 123.851 173.341 130.611C169.702 140.239 174.659 150.686 176.411 160.814C178.096 170.554 176.75 180.542 174.896 190.247C174.173 194.03 173.313 197.934 170.973 201.02C168.633 204.106 164.398 206.15 160.71 204.836C155.509 202.987 154.473 196.132 155.631 190.84C156.789 185.547 159.262 180.176 157.878 174.933C156.036 167.954 147.791 163.286 147.773 156.08C147.757 150.114 153.501 145.575 154.704 139.726C156.535 130.769 147.353 122.725 147.687 113.587Z" fill="#F4679D"/>
<path d="M146.376 126.539C148.918 122.404 152.271 119.16 155.158 115.766C160.895 109.005 164.416 100.645 165.246 91.8178C165.665 87.4242 165.376 82.9918 164.391 78.6895C163.38 74.3737 161.754 70.128 160.409 65.7127C159.694 63.4927 159.13 61.2267 158.722 58.9304C158.343 56.564 158.335 54.1529 158.699 51.7841C159.075 49.4576 159.717 47.1819 160.612 45.0018C161.483 42.8292 162.636 40.7945 163.552 38.7802C165.463 34.5532 168.082 30.6836 171.297 27.3384C174.511 24.0462 178.281 21.3463 182.433 19.3624C174.492 23.851 168.33 30.9267 164.976 39.4087C164.771 39.9174 164.524 40.4871 164.298 41.0048L163.586 42.5534C163.12 43.5798 162.681 44.6107 162.313 45.6574C161.542 47.7244 161.02 49.8761 160.759 52.0667C160.512 54.2235 160.588 56.4051 160.985 58.5393C161.437 60.7203 162.034 62.8683 162.774 64.9689C164.205 69.2373 165.965 73.4943 167.104 78.052C168.237 82.6407 168.624 87.382 168.248 92.0937C167.478 101.58 163.752 110.586 157.594 117.844C154.58 121.384 151.296 124.536 149.031 128.189C147.9 129.998 147.043 131.926 146.769 133.918C146.515 135.932 146.767 137.977 147.504 139.868C148.235 141.826 149.363 143.712 150.57 145.617C151.778 147.523 153.087 149.436 154.188 151.559C155.29 153.682 156.149 156.08 156.273 158.633C156.319 159.894 156.187 161.155 155.88 162.379C155.587 163.537 155.217 164.674 154.772 165.783C153.94 167.945 153.022 169.988 152.664 172.039C152.471 173.032 152.455 174.052 152.617 175.05C152.805 176.048 153.164 177.006 153.68 177.881C154.231 178.803 154.873 179.668 155.597 180.463C156.33 181.292 157.119 182.088 157.919 182.911C158.72 183.734 159.527 184.561 160.282 185.472C161.067 186.384 161.749 187.379 162.317 188.439C163.386 190.611 163.84 193.035 163.631 195.447C163.588 196.037 163.507 196.623 163.405 197.195C163.303 197.767 163.208 198.325 163.095 198.904C162.862 200.049 162.526 201.171 162.091 202.256C161.226 204.411 160.022 206.413 158.525 208.189C157.053 209.951 155.351 211.508 153.465 212.819C156.997 209.943 159.902 206.211 161.261 201.949C162.589 197.789 163.07 192.906 160.929 189.18C159.862 187.333 158.268 185.771 156.633 184.206C154.998 182.642 153.216 181.062 151.884 178.959C151.198 177.888 150.708 176.703 150.439 175.459C150.198 174.209 150.179 172.925 150.383 171.668C150.751 169.197 151.688 167.022 152.418 164.915C153.148 162.808 153.723 160.758 153.58 158.757C153.438 156.756 152.737 154.76 151.701 152.861C150.665 150.962 149.37 149.115 148.101 147.191C146.833 145.267 145.571 143.241 144.655 140.94C143.708 138.574 143.377 136.008 143.692 133.479C144.063 130.918 145.107 128.592 146.376 126.539Z" fill="#F4679D"/>
<path d="M219.256 73.761L215.903 113.159C215.903 113.159 200.665 128.361 182.634 113.046L192.658 68.1453L219.256 73.761Z" fill="white"/>
<path d="M205.752 24.2006C218.318 19.0664 231.679 27.377 233.809 28.7448C238.535 32.6152 243.137 36.4834 243.582 36.87C240.987 45.1911 238.911 53.6648 237.364 62.2426C236.036 69.6579 236.091 71.7559 234.372 76.6279C234.372 76.6279 228.692 92.7313 218.634 95.9461C218.106 96.1102 217.566 96.2357 217.02 96.3214C216.526 96.398 216.027 96.4305 215.527 96.4186C214.351 96.3509 213.193 96.0944 212.097 95.659C203.505 92.1842 198.257 85.6348 198.257 85.6348C194.816 81.3063 192.48 76.2053 191.453 70.7725C191.031 69.4096 190.681 68.0256 190.403 66.6262C187.814 53.5703 189.854 30.6935 205.752 24.2006Z" fill="white"/>
<path d="M192.698 52.9733C195.957 52.9666 199.092 54.2214 201.445 56.4748C203.798 58.7281 205.188 61.8049 205.322 65.0601C205.456 68.3152 204.325 71.4959 202.165 73.9353C200.005 76.3746 196.984 77.8832 193.736 78.1447C192.705 75.779 191.94 73.3065 191.453 70.7723C191.031 69.4094 190.681 68.0255 190.403 66.6261C189.581 62.2582 189.294 57.8063 189.549 53.3689C190.578 53.1057 191.636 52.9727 192.698 52.9733Z" fill="white"/>
<path d="M220.814 79.9014L221.128 81.1222C220.97 81.1629 219.175 81.6015 216.518 81.2352C213.291 80.7831 208.794 79.1644 204.407 74.1997L205.352 73.3655C212.819 81.8027 220.491 79.9715 220.814 79.9014Z" fill="#553597"/>
<path d="M205.065 43.1276C205.431 43.0191 214.11 41.6107 215.256 43.616C215.708 44.414 215.455 45.7411 214.709 46.4826C213.447 47.7374 211.561 46.5482 206.476 46.5505C204.088 46.5505 203.061 46.815 202.932 46.4442C202.715 45.8089 202.27 43.9415 205.065 43.1276Z" fill="#F4679D"/>
<path d="M237.656 46.3425C239.795 47.4209 239.627 48.7435 239.356 49.225C239.198 49.5076 238.406 49.1414 236.473 48.7729C232.358 48.011 230.653 48.6915 229.818 47.4842C229.325 46.7721 229.314 45.6598 229.805 45.0833C231.032 43.6386 237.364 46.2001 237.656 46.3425Z" fill="#F4679D"/>
<path d="M226.962 67.0896C227.448 65.5794 226.61 63.5198 224.541 61.1324L225.493 60.3073C227.905 63.0857 228.803 65.507 228.161 67.4829C227.322 70.0693 224.204 70.8244 224.07 70.856L223.783 69.6284C223.797 69.6239 226.338 68.9976 226.962 67.0896Z" fill="#553597"/>
<path d="M237.931 59.213C237.721 60.2891 237.533 61.302 237.364 62.2424C236.036 69.6578 236.091 71.7558 234.372 76.6277C234.372 76.6277 234.112 77.3625 233.61 78.5449C231.756 75.3723 231.172 71.6162 231.973 68.0304C232.775 64.4447 234.903 61.2948 237.931 59.213Z" fill="white"/>
<path d="M209.076 53.2649C209.981 53.1926 210.826 54.3953 210.951 55.9598C211.075 57.5242 210.442 58.849 209.531 58.9214C208.619 58.9937 207.781 57.791 207.654 56.2265C207.527 54.6621 208.165 53.3395 209.076 53.2649Z" fill="#553597"/>
<path d="M233.461 54.7638C234.291 54.696 235.057 55.797 235.17 57.219C235.283 58.6411 234.718 59.8506 233.877 59.9184C233.036 59.9862 232.28 58.8852 232.167 57.4609C232.054 56.0366 232.631 54.8317 233.461 54.7638Z" fill="#553597"/>
<path d="M192.78 73.5848C192.929 73.8968 193.108 74.1907 193.268 74.4891L194.22 76.2977C194.577 76.8788 194.917 77.4711 195.269 78.0521C196.676 80.3748 198.264 82.583 200.018 84.6558C201.767 86.7355 203.65 88.699 205.655 90.5338C206.159 90.986 206.664 91.4517 207.19 91.8903L207.968 92.5685L208.771 93.2083C209.835 94.0835 210.945 94.9008 212.097 95.6567C210.768 95.2271 209.533 94.5557 208.319 93.8662L207.414 93.3236L206.539 92.7448C205.947 92.3696 205.409 91.94 204.836 91.5172C202.603 89.8124 200.568 87.8637 198.767 85.7071C196.945 83.563 195.397 81.2004 194.159 78.6738C193.852 78.0408 193.546 77.41 193.255 76.7725C193.255 76.7725 192.282 74.1477 192.185 73.8131C192.088 73.4785 192.004 73.1349 191.921 72.8003C191.753 72.1221 191.584 71.4439 191.439 70.7656C191.756 71.3896 192.047 72.0181 192.343 72.6421C192.502 72.9586 192.633 73.2774 192.78 73.5848Z" fill="#F3F5F7"/>
<path d="M188.938 47.9407C191.638 48.4109 194.014 52.3243 194.243 56.6853C194.471 61.0464 192.468 64.1979 189.768 63.7276C187.068 63.2574 184.694 59.344 184.463 54.9852C184.232 50.6265 186.238 47.4727 188.938 47.9407Z" fill="white"/>
<path d="M189.345 55.3494C189.648 55.0892 190.011 54.9082 190.401 54.8226C190.426 54.8196 190.452 54.8245 190.474 54.8367C190.496 54.8489 190.514 54.8677 190.525 54.8905C190.531 54.9015 190.535 54.914 190.535 54.9267C190.535 54.9393 190.531 54.9517 190.525 54.9628C190.348 55.2436 190.224 55.5548 190.159 55.8807C190.095 56.1883 190.075 56.5034 190.098 56.8167C190.117 56.9814 190.161 57.1422 190.229 57.2937C190.283 57.4334 190.296 57.5853 190.268 57.7323C190.229 57.8892 190.172 58.041 190.098 58.1844C190.009 58.3867 189.89 58.5742 189.745 58.7406C189.723 58.7618 189.694 58.7751 189.663 58.7784C189.633 58.7816 189.602 58.7747 189.576 58.7587C189.069 58.5037 188.674 58.0705 188.468 57.5424C188.257 57.0744 188.524 56.6674 188.664 56.2967C188.806 55.9279 189.041 55.6017 189.345 55.3494Z" fill="#38261F"/>
<path d="M188.814 49.9595C189.515 50.1936 190.139 50.6122 190.623 51.1712C191.049 51.6805 191.351 52.2819 191.504 52.9278C191.55 53.2098 191.575 53.4946 191.581 53.7801C191.562 54.0497 191.514 54.3164 191.439 54.5759C191.282 54.3142 191.139 54.044 191.011 53.7666C190.883 53.5066 190.738 53.2579 190.623 53.0137C190.374 52.5531 190.084 52.1158 189.757 51.707C189.42 51.3196 189.027 50.9857 188.59 50.7168C188.077 50.4126 187.532 50.1647 186.966 49.9775C187.559 49.7479 188.216 49.7415 188.814 49.9595Z" fill="#38261F"/>
<path d="M208.298 23.3439C220.057 20.1607 231.815 27.4698 233.809 28.7449C238.535 32.6153 243.137 36.4835 243.582 36.8701C242.678 39.7639 241.9 42.5107 241.203 45.1038C239.193 44.1791 237.339 42.583 235.926 40.8762C233.192 37.5687 230.951 33.5377 227.044 31.7449C223.453 30.0945 221.667 30.4337 213.391 29.821C204.396 29.1563 194.071 27.1714 194.091 25.8398C194.1 25.1909 196.536 24.3024 208.298 23.3439Z" fill="white"/>
<path d="M240.091 226.105C241.041 231.518 241.355 235.799 241.714 239.611C237.344 241.574 232.83 243.202 228.213 244.481C196.493 253.262 167.4 243.473 152.77 237.167C154.912 230.159 156.615 224.959 158.053 221.039L240.091 226.105Z" fill="#322C39"/>
<path d="M212.766 248.482C212.786 248.485 212.806 248.485 212.825 248.482L222.86 246.599C222.933 246.586 222.999 246.547 223.046 246.49C223.093 246.433 223.118 246.361 223.118 246.287V232.723C223.118 232.678 223.109 232.634 223.091 232.594C223.072 232.553 223.046 232.517 223.013 232.487C222.98 232.457 222.941 232.434 222.899 232.42C222.857 232.407 222.812 232.402 222.768 232.406L213.596 233.356C213.513 233.364 213.436 233.406 213.383 233.471C213.33 233.536 213.305 233.62 213.314 233.704C213.322 233.787 213.364 233.864 213.429 233.917C213.495 233.97 213.578 233.995 213.662 233.986L222.481 233.082V246.039L213.083 247.802V244.901C213.087 244.857 213.081 244.813 213.067 244.771C213.053 244.73 213.03 244.691 213 244.659C212.97 244.626 212.934 244.6 212.893 244.583C212.853 244.565 212.809 244.556 212.765 244.556C212.721 244.556 212.678 244.565 212.637 244.583C212.597 244.6 212.56 244.626 212.531 244.659C212.501 244.691 212.478 244.73 212.464 244.771C212.449 244.813 212.444 244.857 212.448 244.901V248.184C212.448 248.268 212.482 248.348 212.541 248.408C212.6 248.468 212.68 248.502 212.764 248.503L212.766 248.482Z" fill="#FEBB54"/>
<path d="M220.769 240.133H220.834L224.269 239.405C224.346 239.383 224.411 239.332 224.452 239.263C224.493 239.194 224.506 239.113 224.49 239.034C224.473 238.956 224.428 238.887 224.363 238.84C224.298 238.794 224.217 238.774 224.138 238.784L220.703 239.514C220.627 239.53 220.559 239.574 220.513 239.637C220.466 239.701 220.445 239.779 220.454 239.857C220.462 239.935 220.498 240.007 220.557 240.059C220.615 240.111 220.691 240.14 220.769 240.14V240.133Z" fill="#FEBB54"/>
<path d="M207.823 0.889836C212.457 0.533348 217.116 1.07061 221.547 2.47237C221.547 2.47237 241.128 10.4461 250.8 25.79C253.635 30.2889 254.702 33.9694 256.335 39.601C263.119 62.9706 254.277 68.2879 259.501 85.9694C263.709 100.212 273.57 110.756 272.672 122.928C272.49 125.466 272.06 127.979 271.388 130.432C268.787 138.369 263.162 141.284 262.078 155.325C261.26 165.919 264.113 168.79 261.459 177.467C258.881 185.909 255.453 185.577 249.129 196.195C244.52 203.932 236.853 214.677 233.074 229.289C230.847 237.88 231.315 241.971 230.44 241.992C228.226 242.039 221.915 215.993 229.551 190.399C231.679 183.268 232.461 184.042 234.675 176.296C238.693 162.245 237.239 156.419 240.993 139.233C243.76 126.573 244.45 128.775 244.85 124.05C245.219 119.709 233.786 102.713 235.179 90.2467C235.405 88.2776 235.758 88.038 236.586 86.2678C237.49 84.362 238.551 81.1788 239.041 79.499C241.303 71.7536 245.56 67.9262 246.153 60.5583C246.365 57.9313 244.796 53.1385 241.63 43.5505C241.63 43.5505 239.29 36.445 235.252 32.7418C235.026 32.5383 234.799 32.3303 234.799 32.3303C234.553 32.1043 234.372 31.9664 234.089 31.7222C233.459 31.1751 232.828 30.5918 232.733 30.5104C231.984 29.8141 226.401 26.215 222.501 24.9964C213.666 22.2654 206.525 29.6762 197.157 26.9452C190.505 25.0077 184.305 18.4153 184.902 13.0234C185.725 5.58999 199.376 1.57033 207.823 0.889836Z" fill="#F4679D"/>
<path d="M183.773 22.2179C187.278 19.0686 194.225 19.0031 197.775 22.4756C200.09 24.7364 200.47 27.915 200.475 29.2579C200.475 33.0063 199.118 36.6077 197.673 40.087C194.991 46.5596 194.672 48.0268 194.306 50.7963C194.013 53.0469 194.003 55.3255 194.277 57.5786C192.302 56.4976 190.498 55.1301 188.924 53.5205C188.151 52.7292 186.86 51.063 185.408 48.843C183.656 46.1639 183.016 43.2566 182.498 39.9016C181.112 30.8427 180.271 25.3807 183.773 22.2179Z" fill="#F4679D"/>
<path d="M224.579 2.96769C224.556 2.91981 224.579 2.96769 224.602 2.96769H224.579Z" fill="#38261F"/>
<path d="M224.579 2.96749C224.554 2.95289 224.531 2.9346 224.511 2.91323C224.488 2.88468 224.472 2.85139 224.464 2.81578C224.456 2.78018 224.456 2.74318 224.464 2.70752C224.565 2.89064 224.604 2.96072 224.613 2.98333C224.583 2.9562 224.556 2.92001 224.579 2.96749Z" fill="#38261F"/>
<path d="M224.601 2.97876C224.618 3.00019 224.611 2.99305 224.601 2.97876V2.97876Z" fill="#38261F"/>
<path d="M224.511 2.91321C224.531 2.93458 224.554 2.95286 224.579 2.96746L218.103 2.6148H224.588C224.669 2.73236 224.461 2.3503 224.778 2.87706C224.8 2.85417 224.815 2.82453 224.819 2.79269C224.823 2.76085 224.817 2.72854 224.801 2.70071C224.789 2.68168 224.774 2.66546 224.755 2.65324L225.316 2.87932C226.058 3.18226 226.793 3.50779 227.521 3.84464C230.437 5.1946 233.271 6.71418 236.009 8.39557C237.382 9.23658 238.723 10.1296 240.036 11.0565C241.35 11.9834 242.641 12.9578 243.894 13.9797C245.147 15.0016 246.359 16.0686 247.535 17.1832C248.119 17.7423 248.692 18.3151 249.253 18.9014C249.812 19.4892 250.359 20.0906 250.888 20.71C251.946 21.9421 252.952 23.224 253.891 24.5533C254.835 25.8931 255.688 27.295 256.444 28.7493C257.195 30.2066 257.85 31.7118 258.404 33.255C258.958 34.7878 259.447 36.3297 259.91 37.8647C260.136 38.6379 260.378 39.3907 260.588 40.173C260.799 40.9552 261.041 41.7261 261.24 42.5151L261.545 43.693C261.642 44.0863 261.726 44.4842 261.821 44.8799C262.008 45.6689 262.16 46.4624 262.323 47.2673C262.404 47.6651 262.47 48.0676 262.549 48.4677C262.628 48.8679 262.689 49.2726 262.746 49.675C262.859 50.4843 262.972 51.2937 263.053 52.1053C263.135 52.9169 263.2 53.7353 263.257 54.5514L263.309 55.7768C263.327 56.186 263.327 56.5952 263.334 57.0044C263.358 58.6412 263.288 60.2757 263.173 61.8989C263.058 63.5222 262.89 65.1273 262.721 66.7167C262.382 69.8953 262.085 73.0038 262.219 76.0875C262.29 77.6266 262.455 79.1599 262.712 80.6791C262.969 82.204 263.31 83.7135 263.734 85.2007C264.608 88.2039 265.704 91.1382 267.012 93.9793C268.31 96.8482 269.767 99.6719 271.209 102.539C272.652 105.405 274.081 108.324 275.214 111.426C275.793 112.987 276.264 114.586 276.625 116.212C276.997 117.865 277.196 119.552 277.219 121.246C277.219 121.674 277.219 122.099 277.204 122.524C277.188 122.949 277.165 123.381 277.127 123.788C277.048 124.613 276.959 125.436 276.837 126.254C276.715 127.072 276.573 127.884 276.405 128.696C276.321 129.101 276.231 129.506 276.134 129.91L275.983 130.518L275.827 131.092C275.844 131.025 275.856 130.956 275.861 130.886L275.799 131.182C275.06 133.43 273.963 135.532 272.817 137.479L271.114 140.345C270.574 141.29 270.054 142.238 269.592 143.203C268.669 145.132 267.947 147.151 267.438 149.228C266.94 151.334 266.601 153.474 266.422 155.63C266.234 157.796 266.192 159.972 266.296 162.144C266.388 164.321 266.657 166.507 266.784 168.811C266.84 169.974 266.825 171.14 266.739 172.301L266.642 173.174C266.624 173.319 266.612 173.466 266.59 173.61L266.364 174.903C266.307 175.188 266.239 175.471 266.171 175.754C266.103 176.036 266.047 176.321 265.97 176.599L265.728 177.429C265.574 177.985 265.4 178.532 265.208 179.077C264.824 180.178 264.362 181.25 263.826 182.285C263.555 182.805 263.245 183.311 262.947 183.788C262.648 184.265 262.33 184.747 262.013 185.217C261.38 186.16 260.713 187.071 260.037 187.971C258.68 189.779 257.271 191.511 255.854 193.238C254.436 194.966 252.98 196.659 251.688 198.418C250.387 200.19 249.211 202.052 248.17 203.988C246.089 207.892 244.51 212.043 243.471 216.343C242.408 220.664 241.918 225.107 242.015 229.555C241.66 225.087 241.929 220.591 242.813 216.196C243.245 213.991 243.816 211.814 244.523 209.681C245.24 207.544 246.099 205.457 247.094 203.434C248.086 201.401 249.224 199.443 250.499 197.574C251.788 195.694 253.201 193.969 254.569 192.21C255.937 190.451 257.283 188.687 258.553 186.886C259.189 185.981 259.813 185.077 260.398 184.15C260.69 183.698 260.98 183.223 261.253 182.755C261.527 182.287 261.798 181.828 262.031 181.356C262.501 180.401 262.901 179.413 263.23 178.401C263.399 177.89 263.553 177.372 263.682 176.85L263.89 176.07C263.958 175.81 264.005 175.548 264.059 175.286C264.114 175.023 264.172 174.763 264.22 174.501L264.399 173.321C264.414 173.188 264.507 172.134 264.507 172.134C264.564 171.07 264.554 170.004 264.48 168.942C264.319 166.794 263.996 164.558 263.851 162.282C263.704 160 263.718 157.711 263.894 155.432C264.053 153.14 264.384 150.864 264.885 148.622C265.412 146.359 266.169 144.156 267.146 142.048C267.632 140.996 268.175 139.981 268.729 138.984L270.407 136.079C271.503 134.185 272.466 132.311 273.12 130.319C273.094 130.41 273.075 130.503 273.063 130.597L273.127 130.301V130.317L273.4 129.252C273.489 128.879 273.572 128.503 273.647 128.121C273.798 127.368 273.929 126.607 274.04 125.838C274.151 125.074 274.23 124.307 274.3 123.541C274.334 123.152 274.343 122.784 274.366 122.411C274.388 122.038 274.377 121.665 274.366 121.292C274.339 119.786 274.155 118.287 273.816 116.82C273.476 115.324 273.035 113.854 272.496 112.418C271.96 110.967 271.338 109.533 270.687 108.105C270.036 106.676 269.33 105.251 268.627 103.827C267.207 100.974 265.742 98.1052 264.417 95.1436C263.059 92.1682 261.925 89.0955 261.025 85.9513C260.118 82.7669 259.601 79.4845 259.483 76.1757C259.439 74.5294 259.485 72.8819 259.618 71.2404C259.743 69.6104 259.933 68.003 260.12 66.416C260.308 64.8289 260.493 63.2509 260.625 61.6909C260.756 60.131 260.83 58.5643 260.837 57.0021C260.844 55.4399 260.767 53.8845 260.645 52.3246C260.584 51.5469 260.491 50.7692 260.401 49.9915C260.356 49.6026 260.292 49.216 260.236 48.8295C260.179 48.4429 260.123 48.054 260.053 47.6674C259.91 46.8942 259.781 46.1211 259.616 45.3501C259.532 44.9658 259.46 44.5792 259.372 44.1971L259.101 43.0464C258.929 42.2777 258.714 41.5181 258.515 40.754C258.316 39.9898 258.092 39.2167 257.88 38.4525C257.023 35.3824 256.111 32.3801 254.757 29.5835C254.078 28.1769 253.306 26.8174 252.446 25.5141C251.585 24.2014 250.655 22.9351 249.66 21.7206C245.651 16.8667 240.778 12.7046 235.505 9.16198C232.865 7.3797 230.125 5.75004 227.299 4.28098C226.591 3.91474 225.879 3.55755 225.16 3.21617L224.617 2.9652C224.617 2.9652 224.57 2.87252 224.468 2.68939C224.457 2.72738 224.454 2.76763 224.462 2.80663C224.469 2.84563 224.486 2.88221 224.511 2.91321Z" fill="#F4679D"/>
<path d="M273.061 130.608C273.073 130.514 273.092 130.421 273.118 130.33V130.314L273.061 130.608Z" fill="#38261F"/>
<path d="M143.265 122.153C143.683 122.112 151.133 121.87 153.293 126.738C155.102 130.807 151.837 135.342 151.563 135.713C145.033 220.58 135.283 240.789 127.011 241.628C124.121 241.922 117.781 240.468 113.218 236.191C108.94 232.178 105.457 226.139 104.218 218.622L125.376 142.85C126.826 132.236 134.833 122.969 143.265 122.153Z" fill="#EDE3FF"/>
<path d="M137.023 120.577C146.387 115.07 154.132 119.262 169.27 110.845C173.534 108.468 177.504 105.597 181.096 102.292C182.679 103.649 193.522 112.515 206.688 109.506C210.328 108.654 213.741 107.028 216.696 104.741C218.571 107.288 220.82 109.537 223.367 111.412C233.608 118.909 244.952 117.216 250.049 118.081C259.352 119.664 270.958 133.656 279.309 191.803L247.494 193.259C247.494 193.259 255.944 181.222 256.505 171.743C256.596 170.413 256.556 169.077 256.385 167.755C255.967 164.621 255.286 161.528 254.35 158.509C252.066 170.093 249.783 181.676 247.501 193.259C247.232 200.321 247.04 207.516 246.924 214.842C246.773 224.918 246.773 234.757 246.924 244.359C231.862 244.662 216.057 245.365 199.577 246.586C182.419 247.856 166.057 249.575 150.559 251.598C153.395 205.725 153.465 182.626 150.772 182.299C149.294 182.121 146.987 188.788 143.85 202.302L109.586 199.413C111.259 190.318 113.898 177.709 118.043 162.872C124.983 138.035 128.628 125.517 137.023 120.577Z" fill="#EDE3FF"/>
<path d="M256.392 167.755C256.563 169.077 256.603 170.413 256.512 171.743C255.951 181.222 247.501 193.259 247.501 193.259C249.785 181.674 252.068 170.091 254.35 158.508C255.289 161.528 255.972 164.621 256.392 167.755Z" fill="#EDE3FF"/>
<path d="M152.148 185.832L159.961 154.38C155.891 176.05 154.548 226.951 234.316 218.927C239.008 218.455 243.186 218.05 246.892 217.707C246.874 219.095 246.856 220.485 246.845 221.864C226.008 225.518 199.602 229.564 199.602 229.564L152.094 223.142C152.935 203.921 152.953 191.484 152.148 185.832Z" fill="#A78ED7"/>
<path d="M130.593 210.045C138.708 206.534 143.545 209.238 160.994 211.953C184.644 215.634 206.596 215.466 209.384 221.939C211.763 227.455 210.451 232.21 210.451 232.21C210.383 232.458 210.302 232.711 210.302 232.711C210.112 233.32 209.892 233.918 209.642 234.504C209.397 235.078 209.216 235.424 209.216 235.424L130.636 243.432C129.299 243.568 124.184 243.932 119.911 240.459C114.843 236.342 115.187 229.793 115.237 228.617C115.624 219.694 123.997 212.9 130.593 210.045Z" fill="#EDE3FF"/>
<path d="M208.907 220.411C211.846 220.232 212.703 219.732 215.313 219.296C216.536 219.095 226.092 217.639 235.238 222.35C238.341 223.949 241.185 225.468 242.395 228.764C243.559 231.929 242.567 234.984 242.042 236.302C239.835 234.31 235.505 231.005 229.499 230.008C227.163 229.621 223.955 229.13 220.938 230.758C219.331 231.626 219.48 232.178 217.562 233.41C216.378 234.172 212.289 236.801 208.518 235.497C206.799 234.904 205.639 233.448 203.317 230.541C201.379 228.109 200.764 226.54 200.558 225.979C199.855 224.055 199.145 222.106 200.002 220.967C201.094 219.504 203.762 220.725 208.907 220.411Z" fill="white"/>
<path d="M147.129 237.757H372.967C375.148 237.757 376.915 239.524 376.915 241.704V244.307C376.915 246.487 375.148 248.254 372.967 248.254H147.129C144.948 248.254 143.181 246.487 143.181 244.307V241.704C143.181 239.524 144.948 237.757 147.129 237.757Z" fill="#6F46BE"/>
<path d="M244.88 125.157C245.827 121.687 247.89 118.624 250.751 116.441C253.611 114.258 257.11 113.077 260.708 113.078H392.384C403.197 113.078 411.05 123.36 408.212 133.789L381.695 230.966C380.748 234.437 378.685 237.499 375.825 239.682C372.964 241.865 369.465 243.047 365.867 243.045H234.184C223.369 243.045 215.516 232.766 218.356 222.334L244.88 125.157Z" fill="#553597"/>
<path d="M252.037 125.158C252.984 121.687 255.047 118.624 257.907 116.441C260.768 114.258 264.267 113.077 267.865 113.078H399.541C410.354 113.078 418.207 123.36 415.369 133.789L388.841 230.966C387.894 234.437 385.831 237.5 382.971 239.683C380.11 241.866 376.611 243.048 373.013 243.045H241.328C230.515 243.045 222.662 232.766 225.499 222.334L252.037 125.158Z" fill="#A78ED7"/>
<path d="M323.031 190.337C318.556 188.043 317.671 180.834 321.055 174.234C324.438 167.634 330.809 164.143 335.285 166.436C339.76 168.73 340.645 175.94 337.261 182.54C333.877 189.14 327.506 192.631 323.031 190.337Z" fill="#EDE3FF"/>
<path d="M88.7475 246.972H413.915C415.848 246.972 417.416 249.756 417.416 253.191C417.416 256.625 415.848 259.407 413.915 259.407H88.7475C86.814 259.407 85.2468 256.623 85.2468 253.191C85.2468 249.758 86.8151 246.972 88.7475 246.972Z" fill="#A6B0BF"/>
</svg>
