<svg width="460" height="341" viewBox="0 0 460 341" fill="none" xmlns="http://www.w3.org/2000/svg">
<path fill-rule="evenodd" clip-rule="evenodd" d="M212.879 265.077H205.825L196.779 339.521H203.833L212.879 265.077Z" fill="#E3E5EA"/>
<path fill-rule="evenodd" clip-rule="evenodd" d="M272.8 265.077H279.854L288.9 339.521H281.846L272.8 265.077Z" fill="#E3E5EA"/>
<path d="M246.574 265.326H240.931V339.77H246.574V265.326Z" fill="#D2D8E0"/>
<path fill-rule="evenodd" clip-rule="evenodd" d="M282.676 259.102H202.837V263.832C202.837 265.243 203.999 266.405 205.41 266.405C217.444 266.405 268.069 266.405 280.103 266.405C281.514 266.405 282.676 265.243 282.676 263.832C282.676 261.675 282.676 259.102 282.676 259.102Z" fill="#E3E5EA"/>
<path fill-rule="evenodd" clip-rule="evenodd" d="M292.552 241.259C292.552 239.018 290.726 237.275 288.568 237.275C272.551 237.275 212.962 237.275 196.862 237.275C194.621 237.275 192.878 239.101 192.878 241.259C192.878 245.906 192.878 253.458 192.878 258.106C192.878 260.347 194.704 262.09 196.862 262.09C212.879 262.09 272.468 262.09 288.568 262.09C290.809 262.09 292.552 260.264 292.552 258.106C292.552 253.458 292.552 245.906 292.552 241.259Z" fill="#A6B0BF"/>
<path d="M429.821 288.813H333.218V294.706H429.821V288.813Z" fill="#D2D8E0"/>
<path fill-rule="evenodd" clip-rule="evenodd" d="M342.098 234.536H336.206L321.267 339.771H327.16L342.098 234.536Z" fill="#E3E5EA"/>
<path fill-rule="evenodd" clip-rule="evenodd" d="M420.36 234.536H426.253L441.191 339.771H435.299L420.36 234.536Z" fill="#E3E5EA"/>
<path fill-rule="evenodd" clip-rule="evenodd" d="M432.726 231.549H330.313V235.117C330.313 235.781 330.562 236.362 330.977 236.777C331.392 237.192 332.056 237.441 332.637 237.441C346.414 237.441 416.542 237.441 430.319 237.441C430.983 237.441 431.564 237.192 431.979 236.777C432.394 236.362 432.643 235.698 432.643 235.117C432.726 233.457 432.726 231.549 432.726 231.549Z" fill="#D2D8E0"/>
<path fill-rule="evenodd" clip-rule="evenodd" d="M436.46 198.684H326.662V231.3C326.662 231.964 326.911 232.544 327.326 232.959C327.741 233.374 328.404 233.623 328.985 233.623C343.426 233.623 419.613 233.623 434.054 233.623C434.718 233.623 435.299 233.374 435.714 232.959C436.128 232.544 436.377 231.881 436.377 231.3C436.46 223.415 436.46 198.684 436.46 198.684Z" fill="#E3E5EA"/>
<path d="M429.821 205.24H333.218V227.565H429.821V205.24Z" fill="#F3F5F7"/>
<path d="M381.52 220.262C383.674 220.262 385.42 218.515 385.42 216.361C385.42 214.207 383.674 212.46 381.52 212.46C379.366 212.46 377.619 214.207 377.619 216.361C377.619 218.515 379.366 220.262 381.52 220.262Z" fill="#D2D8E0"/>
<path fill-rule="evenodd" clip-rule="evenodd" d="M441.191 192.874C441.191 192.127 440.859 191.38 440.361 190.882C439.863 190.384 439.116 190.052 438.369 190.052C422.103 190.052 341.019 190.052 324.753 190.052C324.006 190.052 323.259 190.384 322.761 190.882C322.263 191.38 321.931 192.127 321.931 192.874C321.931 194.783 321.931 197.356 321.931 199.265C321.931 200.012 322.263 200.758 322.761 201.256C323.259 201.754 324.006 202.086 324.753 202.086C341.019 202.086 422.103 202.086 438.369 202.086C439.116 202.086 439.863 201.754 440.361 201.256C440.859 200.758 441.191 200.012 441.191 199.265C441.191 197.273 441.191 194.783 441.191 192.874Z" fill="#F3F5F7"/>
<path fill-rule="evenodd" clip-rule="evenodd" d="M347.742 145.071H364.589V138.099H353.136L352.721 134.614H347.742V145.071Z" fill="#F8A0C2"/>
<path fill-rule="evenodd" clip-rule="evenodd" d="M367.826 146.564C367.826 145.154 366.747 144.075 365.336 144.075C360.855 144.075 351.559 144.075 347.078 144.075C345.667 144.075 344.588 145.154 344.588 146.564C344.588 147.975 344.588 149.469 344.588 149.469H367.826V146.564Z" fill="#F4679D"/>
<path fill-rule="evenodd" clip-rule="evenodd" d="M371.644 149.718C371.644 148.639 370.731 147.726 369.652 147.726C364.091 147.726 348.489 147.726 342.845 147.726C341.766 147.726 340.854 148.639 340.854 149.718C340.854 156.855 340.854 180.84 340.854 187.978C340.854 189.057 341.766 189.969 342.845 189.969C348.406 189.969 364.008 189.969 369.652 189.969C370.731 189.969 371.644 189.057 371.644 187.978C371.644 180.84 371.644 156.855 371.644 149.718Z" fill="#553597"/>
<path fill-rule="evenodd" clip-rule="evenodd" d="M368.573 154.449H343.758V185.405C343.758 186.733 344.837 187.812 346.165 187.812C350.895 187.812 361.435 187.812 366.166 187.812C367.494 187.812 368.573 186.733 368.573 185.405C368.573 177.77 368.573 154.449 368.573 154.449Z" fill="#EDE3FF"/>
<path d="M408.409 160.009C408.409 160.009 411.729 146.482 425.174 143.079" stroke="#A78ED7" stroke-width="0.751072" stroke-miterlimit="1" stroke-linecap="round" stroke-linejoin="round"/>
<path fill-rule="evenodd" clip-rule="evenodd" d="M435.132 139.925C426.086 130.879 423.347 137.684 423.347 137.684C417.87 134.199 408.326 139.095 418.119 148.805C425.173 155.777 441.274 154.532 441.274 154.532C441.274 154.532 439.614 144.407 435.132 139.925Z" fill="#EDE3FF"/>
<path d="M425.091 138.929C428.493 141.004 431.149 143.826 433.39 146.979" stroke="#A78ED7" stroke-width="0.751072" stroke-miterlimit="1" stroke-linecap="round" stroke-linejoin="round"/>
<path d="M405.006 160.009C405.006 160.009 405.836 147.146 397.952 141.585" stroke="#A78ED7" stroke-width="0.751072" stroke-miterlimit="1" stroke-linecap="round" stroke-linejoin="round"/>
<path fill-rule="evenodd" clip-rule="evenodd" d="M382.931 138.763C389.321 128.306 393.72 136.025 393.72 136.025C399.861 132.29 404.924 139.344 398.118 147.478C391.313 155.611 380.026 157.603 380.026 157.603C380.026 157.603 379.03 145.154 382.931 138.763Z" fill="#EDE3FF"/>
<path d="M392.226 137.269C392.226 137.269 386.665 142.166 384.922 148.805" stroke="#A78ED7" stroke-width="0.751072" stroke-miterlimit="1" stroke-linecap="round" stroke-linejoin="round"/>
<path d="M416.791 126.148C416.791 126.148 407.994 135.693 407.496 159.926C407.496 159.926 409.986 131.128 399.529 121.501" stroke="#A78ED7" stroke-width="0.751072" stroke-miterlimit="1" stroke-linecap="round" stroke-linejoin="round"/>
<path fill-rule="evenodd" clip-rule="evenodd" d="M429.074 117.6C420.36 111.542 418.534 116.687 418.534 116.687C409.405 112.87 400.027 124.572 414.053 130.879C425.339 135.942 438.369 132.539 438.369 132.539C438.369 132.539 435.382 121.916 429.074 117.6Z" fill="#EDE3FF"/>
<path d="M420.941 118.015C420.941 118.015 425.008 120.09 429.406 125.484" stroke="#A78ED7" stroke-width="0.751072" stroke-miterlimit="1" stroke-linecap="round" stroke-linejoin="round"/>
<path fill-rule="evenodd" clip-rule="evenodd" d="M385.171 112.455C392.06 104.902 396.209 110.297 396.209 110.297C402.268 107.641 406.998 114.778 403.181 121.335C399.695 127.31 386.084 127.393 382.183 131.626C382.266 131.543 378.698 119.592 385.171 112.455Z" fill="#EDE3FF"/>
<path d="M394.383 111.957C394.383 111.957 389.736 116.272 387.993 120.588" stroke="#A78ED7" stroke-width="0.751072" stroke-miterlimit="1" stroke-linecap="round" stroke-linejoin="round"/>
<path fill-rule="evenodd" clip-rule="evenodd" d="M396.624 190.052C388.076 185.571 387.08 170.051 392.392 158.349H419.364C424.676 170.134 423.763 185.654 415.131 190.052H396.624Z" fill="#553597"/>
<path d="M32.9521 325.911H27.7236V339.771H32.9521V325.911Z" fill="#D2D8E0"/>
<path d="M75.4442 325.164H67.9749V339.77H75.4442V325.164Z" fill="#E3E5EA"/>
<path fill-rule="evenodd" clip-rule="evenodd" d="M20.9182 187.065V339.771H27.6406V329.231H175.948V187.065H20.9182Z" fill="#E3E5EA"/>
<path d="M168.479 325.164H162.752V339.77H168.479V325.164Z" fill="#D2D8E0"/>
<path fill-rule="evenodd" clip-rule="evenodd" d="M175.948 339.771V187.065H75.4441V339.771H84.4073V329.231H168.478V339.771H175.948Z" fill="#F3F5F7"/>
<path d="M178.936 182.417H17.2666V190.55H178.936V182.417Z" fill="#D2D8E0"/>
<path d="M178.936 182.417H79.262V190.55H178.936V182.417Z" fill="#E3E5EA"/>
<path fill-rule="evenodd" clip-rule="evenodd" d="M165.657 198.933C165.657 198.02 164.91 197.356 164.08 197.356C154.204 197.356 101.587 197.356 91.6276 197.356C90.7147 197.356 90.0508 198.103 90.0508 198.933C90.0508 204.991 90.0508 226.569 90.0508 232.627C90.0508 233.54 90.7977 234.204 91.6276 234.204C101.504 234.204 154.121 234.204 164.08 234.204C164.993 234.204 165.657 233.457 165.657 232.627C165.657 226.569 165.657 204.991 165.657 198.933Z" fill="white"/>
<path fill-rule="evenodd" clip-rule="evenodd" d="M145.905 197.356H109.637V200.924C109.637 201.339 109.803 201.754 110.135 202.086C110.467 202.418 110.882 202.584 111.297 202.584C117.273 202.584 138.353 202.584 144.328 202.584C144.743 202.584 145.158 202.418 145.49 202.086C145.822 201.754 145.988 201.339 145.988 200.924C145.905 199.43 145.905 197.356 145.905 197.356Z" fill="#E3E5EA"/>
<path fill-rule="evenodd" clip-rule="evenodd" d="M165.657 242.586C165.657 241.674 164.91 241.01 164.08 241.01C154.204 241.01 101.587 241.01 91.6276 241.01C90.7147 241.01 90.0508 241.757 90.0508 242.586C90.0508 248.645 90.0508 270.223 90.0508 276.281C90.0508 277.194 90.7977 277.858 91.6276 277.858C101.504 277.858 154.121 277.858 164.08 277.858C164.993 277.858 165.657 277.111 165.657 276.281C165.657 270.14 165.657 248.645 165.657 242.586Z" fill="white"/>
<path fill-rule="evenodd" clip-rule="evenodd" d="M145.905 240.927H109.637V244.495C109.637 244.91 109.803 245.325 110.135 245.657C110.467 245.989 110.882 246.155 111.297 246.155C117.273 246.155 138.353 246.155 144.328 246.155C144.743 246.155 145.158 245.989 145.49 245.657C145.822 245.325 145.988 244.91 145.988 244.495C145.905 243.001 145.905 240.927 145.905 240.927Z" fill="#E3E5EA"/>
<path fill-rule="evenodd" clip-rule="evenodd" d="M165.657 286.157C165.657 285.245 164.91 284.581 164.08 284.581C154.204 284.581 101.587 284.581 91.6276 284.581C90.7147 284.581 90.0508 285.328 90.0508 286.157C90.0508 292.216 90.0508 313.794 90.0508 319.852C90.0508 320.765 90.7977 321.429 91.6276 321.429C101.504 321.429 154.121 321.429 164.08 321.429C164.993 321.429 165.657 320.682 165.657 319.852C165.657 313.794 165.657 292.216 165.657 286.157Z" fill="white"/>
<path fill-rule="evenodd" clip-rule="evenodd" d="M145.905 284.581H109.637V288.149C109.637 288.564 109.803 288.979 110.135 289.311C110.467 289.643 110.882 289.809 111.297 289.809C117.273 289.809 138.353 289.809 144.328 289.809C144.743 289.809 145.158 289.643 145.49 289.311C145.822 288.979 145.988 288.564 145.988 288.149C145.905 286.655 145.905 284.581 145.905 284.581Z" fill="#E3E5EA"/>
<path fill-rule="evenodd" clip-rule="evenodd" d="M58.2645 141.751H24.2377L17.1833 182.417H51.2102L58.2645 141.751Z" fill="#5737B8"/>
<path fill-rule="evenodd" clip-rule="evenodd" d="M24.321 141.751H58.3479L68.6389 182.417H34.6121L24.321 141.751Z" fill="#7354ED"/>
<path d="M30.6283 146.066C34.031 144.407 33.6161 139.676 31.8732 138.348C29.8814 136.854 26.5617 137.684 26.3127 140.589" stroke="#9281F7" stroke-width="0.751072" stroke-miterlimit="1" stroke-linecap="round" stroke-linejoin="round"/>
<path d="M38.4296 146.066C41.8323 144.407 41.4173 139.676 39.6745 138.348C37.6827 136.854 34.363 137.684 34.114 140.589" stroke="#9281F7" stroke-width="0.751072" stroke-miterlimit="1" stroke-linecap="round" stroke-linejoin="round"/>
<path d="M46.1479 146.066C49.5506 144.407 49.1356 139.676 47.3928 138.348C45.4009 136.854 42.0813 137.684 41.8323 140.589" stroke="#9281F7" stroke-width="0.751072" stroke-miterlimit="1" stroke-linecap="round" stroke-linejoin="round"/>
<path d="M53.8661 146.066C57.2688 144.407 56.8539 139.676 55.111 138.348C53.1192 136.854 49.7995 137.684 49.5505 140.589" stroke="#9281F7" stroke-width="0.751072" stroke-miterlimit="1" stroke-linecap="round" stroke-linejoin="round"/>
<path d="M42.4551 165.667H40.4297L36.5972 153.343C36.2478 153.787 35.7445 154.231 35.0874 154.675C34.4379 155.12 33.8326 155.453 33.2715 155.675L32.6901 153.805C33.6647 153.297 34.4633 152.681 35.086 151.957C35.7087 151.234 36.0905 150.532 36.2315 149.851H37.5367L42.4551 165.667ZM57.7203 163.808L58.2983 165.667H47.3949C47.2351 165.202 47.1746 164.754 47.2135 164.324C47.2705 163.615 47.4959 162.917 47.8897 162.229C48.291 161.541 48.9289 160.746 49.8035 159.844C51.1597 158.44 52.026 157.329 52.4021 156.513C52.7761 155.689 52.8495 154.912 52.6223 154.181C52.3839 153.415 51.8946 152.77 51.1544 152.247C50.4194 151.717 49.5906 151.452 48.6679 151.452C47.6927 151.452 46.9995 151.731 46.5881 152.29C46.1767 152.849 46.121 153.622 46.4209 154.611L44.2757 154.407C43.9572 152.924 44.1427 151.796 44.8323 151.022C45.5197 150.241 46.6473 149.851 48.2151 149.851C49.7979 149.851 51.181 150.27 52.3643 151.108C53.5476 151.946 54.3319 152.985 54.7173 154.224C54.9133 154.855 54.971 155.474 54.8903 156.083C54.8095 156.692 54.5588 157.333 54.1381 158.006C53.7249 158.68 52.9732 159.604 51.8833 160.778C50.971 161.753 50.3969 162.415 50.161 162.766C49.9228 163.11 49.7458 163.457 49.6299 163.808H57.7203Z" fill="white"/>
<path fill-rule="evenodd" clip-rule="evenodd" d="M146.32 116.521H55.9409L74.2822 178.765H164.661L146.32 116.521Z" fill="#E3E5EA"/>
<path fill-rule="evenodd" clip-rule="evenodd" d="M141.34 121.169H63.6592L79.2617 174.118H156.943L141.34 121.169Z" fill="#F3F5F7"/>
<path fill-rule="evenodd" clip-rule="evenodd" d="M126.65 121.169H102.915L90.8807 131.377C89.1378 132.871 88.0589 135.029 87.8929 137.269C87.8099 138.348 87.7269 139.51 87.7269 140.589C87.561 142.747 86.6481 144.739 85.1542 146.149L74.1162 156.69L79.1787 174.035H83.7433L101.338 157.685C103.164 156.026 104.076 153.619 103.993 151.212C103.993 150.216 103.91 149.22 103.91 148.224C103.827 145.9 104.657 143.66 106.317 142.083L126.65 121.169Z" fill="white"/>
<path fill-rule="evenodd" clip-rule="evenodd" d="M143.415 128.306L127.646 145.319C126.069 147.062 125.239 149.303 125.405 151.71C125.488 152.291 125.488 152.872 125.571 153.453C125.737 155.61 125.073 157.685 123.746 159.345L111.961 174.118H130.551L137.273 166.648C138.601 165.154 139.348 163.329 139.431 161.337C139.514 160.258 139.514 159.096 139.597 158.1C139.68 156.44 140.261 154.78 141.257 153.453L148.062 144.157L143.415 128.306Z" fill="white"/>
<path fill-rule="evenodd" clip-rule="evenodd" d="M199.767 178.765C199.767 177.935 199.103 177.189 198.19 177.189C184.745 177.189 88.474 177.189 74.9462 177.189C74.1163 177.189 73.3694 177.852 73.3694 178.765C73.3694 180.259 73.3694 182.417 73.3694 182.417H199.684V178.765H199.767Z" fill="#F3F5F7"/>
<path fill-rule="evenodd" clip-rule="evenodd" d="M125.738 177.189H74.9462C74.1163 177.189 73.3694 177.852 73.3694 178.765C73.3694 180.259 73.3694 182.417 73.3694 182.417H125.738V177.189Z" fill="#E3E5EA"/>
<path fill-rule="evenodd" clip-rule="evenodd" d="M289.149 57.8456C291.473 53.945 296.204 53.945 298.527 55.8538C300.851 57.8456 300.851 61.7463 298.527 65.7299C296.868 68.7176 292.635 71.6224 289.149 73.6142C285.664 71.6224 281.431 68.7176 279.771 65.7299C277.447 61.8293 277.447 57.8456 279.771 55.8538C282.095 53.945 286.825 53.945 289.149 57.8456Z" fill="#F4679D"/>
<path fill-rule="evenodd" clip-rule="evenodd" d="M297.781 41.247C299.192 38.9232 302.013 38.9232 303.424 40.0851C304.835 41.247 304.835 43.6538 303.424 45.9776C302.428 47.7204 299.939 49.5463 297.781 50.7081C295.706 49.5463 293.133 47.7204 292.137 45.9776C290.726 43.6538 290.726 41.247 292.137 40.0851C293.631 38.9232 296.37 38.9232 297.781 41.247Z" fill="#F4679D"/>
<path d="M206.738 72.0373C209.213 72.0373 211.22 70.0308 211.22 67.5557C211.22 65.0806 209.213 63.0741 206.738 63.0741C204.263 63.0741 202.256 65.0806 202.256 67.5557C202.256 70.0308 204.263 72.0373 206.738 72.0373Z" fill="white"/>
<path d="M183.251 66.8918C201.723 66.8918 216.697 51.9175 216.697 33.4459C216.697 14.9742 201.723 -3.05176e-05 183.251 -3.05176e-05C164.779 -3.05176e-05 149.805 14.9742 149.805 33.4459C149.805 51.9175 164.779 66.8918 183.251 66.8918Z" fill="white"/>
<path fill-rule="evenodd" clip-rule="evenodd" d="M200.596 22.5738C195.036 23.4867 189.973 26.4744 186.654 31.371C183.334 36.2675 182.504 42.16 183.832 47.6375C189.393 46.7246 194.455 43.7368 197.775 38.8403C201.094 33.8607 201.924 27.9683 200.596 22.5738Z" fill="#553597"/>
<path fill-rule="evenodd" clip-rule="evenodd" d="M166.486 22.5738C172.047 23.4867 177.109 26.4744 180.429 31.371C183.749 36.2675 184.579 42.16 183.251 47.6375C177.69 46.7246 172.628 43.7368 169.308 38.7573C166.071 33.8607 165.241 27.9683 166.486 22.5738Z" fill="#553597"/>
<path fill-rule="evenodd" clip-rule="evenodd" d="M183.832 14.9385C188.646 19.0881 191.633 24.8976 191.633 31.288C191.633 37.6784 188.646 43.4879 183.832 47.6375C179.018 43.4879 176.031 37.6784 176.031 31.288C176.031 24.8976 179.018 19.0881 183.832 14.9385Z" fill="#6F46BE"/>
<path fill-rule="evenodd" clip-rule="evenodd" d="M162.586 36.6827C166.902 34.9398 171.715 34.9398 175.865 37.0146C180.014 39.0894 182.836 43.0731 183.915 47.5547C179.599 49.2975 174.786 49.2975 170.636 47.2227C166.404 45.0649 163.665 41.2472 162.586 36.6827Z" fill="#6F46BE"/>
<path fill-rule="evenodd" clip-rule="evenodd" d="M205.161 36.6827C200.845 34.9398 196.032 34.9398 191.882 37.0146C187.732 39.0894 184.911 43.0731 183.832 47.5547C188.147 49.2975 192.961 49.2975 197.111 47.2227C201.343 45.0649 204.082 41.2472 205.161 36.6827Z" fill="#6F46BE"/>
<path d="M436.959 18.3411H338.945V75.4398H436.959V18.3411Z" fill="#D2D8E0"/>
<path d="M436.959 18.3411H432.311V75.4398H436.959V18.3411Z" fill="#A6B0BF"/>
<path d="M427.414 22.9058H343.924V70.9583H427.414V22.9058Z" fill="white" stroke="#F3F5F7" stroke-width="0.525765" stroke-miterlimit="1" stroke-linecap="round" stroke-linejoin="round"/>
<path fill-rule="evenodd" clip-rule="evenodd" d="M358.531 49.3804C358.531 49.3804 358.531 41.3301 361.767 38.3424L368.407 44.6498C368.407 44.6498 368.988 40.0023 367.411 38.0104L375.876 38.1764C375.876 38.1764 371.976 33.1969 367.411 32.6159C367.411 32.6159 368.49 30.7901 371.312 30.1262C371.312 30.1262 366.083 28.2173 363.842 31.2051C363.842 31.2051 360.191 27.2214 354.215 29.0473L358.448 33.1969C358.448 33.1969 353.966 33.0309 352.14 36.7656L358.448 37.0145C358.448 37.0145 353.136 41.9111 353.219 48.0525L358.531 49.3804Z" fill="#D2D8E0"/>
<path fill-rule="evenodd" clip-rule="evenodd" d="M343.924 46.8906V56.5177L371.312 57.2647C371.312 57.1817 366.747 46.4757 343.924 46.8906Z" fill="#E3E5EA"/>
<path d="M405.421 46.0606C408.813 46.0606 411.563 43.311 411.563 39.9192C411.563 36.5273 408.813 33.7777 405.421 33.7777C402.03 33.7777 399.28 36.5273 399.28 39.9192C399.28 43.311 402.03 46.0606 405.421 46.0606Z" fill="#F3F5F7"/>
<path d="M427.414 55.1069H343.924V70.9585H427.414V55.1069Z" fill="#F3F5F7"/>
<path fill-rule="evenodd" clip-rule="evenodd" d="M420.609 55.1069H391.23C391.23 55.1069 401.521 57.0157 401.189 59.3395C400.857 61.6633 396.375 60.9164 396.541 63.3232C396.707 65.7299 412.061 66.6429 412.31 63.3232C412.642 60.0035 408.326 60.6674 408.824 59.1735C409.571 56.6838 420.609 55.1069 420.609 55.1069Z" fill="#FCFDFF"/>
<path fill-rule="evenodd" clip-rule="evenodd" d="M372.473 55.1069H343.924V66.8918C346.497 66.9748 355.875 67.3068 353.219 64.734C353.219 64.734 368.49 65.066 364.755 63.0742C364.755 63.0742 371.478 60.9994 368.075 58.6756C368.075 58.5926 384.175 56.1858 372.473 55.1069Z" fill="#FCFDFF"/>
<path fill-rule="evenodd" clip-rule="evenodd" d="M69.5516 78.0957L52.9531 94.6112H47.6416V78.0957H69.5516Z" fill="#E3E5EA"/>
<path fill-rule="evenodd" clip-rule="evenodd" d="M64.1571 78.0957H69.5516L52.9531 94.6112H47.6416L64.1571 78.0957Z" fill="#F3F5F7"/>
<path fill-rule="evenodd" clip-rule="evenodd" d="M126.899 78.0957L110.301 94.6112H104.99V78.0957H126.899Z" fill="#E3E5EA"/>
<path fill-rule="evenodd" clip-rule="evenodd" d="M121.505 78.0957H126.899L110.301 94.6112H104.99L121.505 78.0957Z" fill="#F3F5F7"/>
<path d="M134.95 74.5269H37.9316V79.4235H134.95V74.5269Z" fill="#E3E5EA"/>
<path d="M69.5517 74.5269H37.9316V79.4235H69.5517V74.5269Z" fill="#D2D8E0"/>
<path d="M130.385 29.877H80.5896V74.5269H130.385V29.877Z" fill="#E3E5EA"/>
<path d="M130.468 29.877H123.995V74.5269H130.468V29.877Z" fill="#F3F5F7"/>
<path d="M120.343 38.4255H83.5774V74.5271H120.343V38.4255Z" fill="#F3F5F7"/>
<path d="M111.214 34.1098H83.5774V74.527H111.214V34.1098Z" fill="#A6B0BF"/>
<path d="M111.297 34.1098H102.002V74.527H111.297V34.1098Z" fill="#D2D8E0"/>
<path d="M85.7351 48.7994H43.741V74.527H85.7351V48.7994Z" fill="#E3E5EA"/>
<path d="M58.5136 48.7994H43.741V74.527H58.5136V48.7994Z" fill="#D2D8E0"/>
<path d="M93.0384 25.4785H48.8035V48.8824H93.0384V25.4785Z" fill="#F3F5F7"/>
<path d="M64.987 25.4785H48.8035V48.8824H64.987V25.4785Z" fill="#E3E5EA"/>
<path d="M1 339.77H458.869" stroke="#9492E8" stroke-width="0.751072" stroke-miterlimit="1" stroke-linecap="round" stroke-linejoin="round"/>
<path fill-rule="evenodd" clip-rule="evenodd" d="M188.065 118.513C188.065 118.513 188.397 120.92 192.629 126.48L199.352 120.837C199.435 120.92 193.293 116.936 188.065 118.513Z" fill="#2E0336"/>
<path fill-rule="evenodd" clip-rule="evenodd" d="M194.621 119.177C194.621 119.177 172.545 139.012 167.399 147.892C164.578 152.789 180.512 160.092 180.512 160.092L213.958 136.937L194.621 119.177Z" fill="#EDE3FF"/>
<path fill-rule="evenodd" clip-rule="evenodd" d="M299.523 118.596C299.523 118.596 298.942 123.492 297.532 127.393L291.141 119.094C291.224 119.177 293.299 118.264 299.523 118.596Z" fill="#2E0336"/>
<path fill-rule="evenodd" clip-rule="evenodd" d="M293.465 119.177C293.465 119.177 315.541 139.012 320.686 147.892C323.508 152.789 307.573 160.092 307.573 160.092L274.127 136.937L293.465 119.177Z" fill="#EDE3FF"/>
<path fill-rule="evenodd" clip-rule="evenodd" d="M256.201 70.8752C276.202 70.2113 264.003 98.0967 266.326 108.222L244.001 109.384L247.321 72.6181C247.404 72.5351 243.67 71.2902 256.201 70.8752Z" fill="#553597"/>
<path fill-rule="evenodd" clip-rule="evenodd" d="M268.318 152.208L214.539 152.125C173.043 159.428 122.667 167.229 123.662 202.75C124.907 244.578 181.757 235.117 229.312 236.694H289.066C289.066 236.694 363.012 242.586 363.925 202.916C364.755 163.827 289.979 155.112 289.979 155.112L268.318 152.208Z" fill="#6F46BE"/>
<path d="M267.488 179.678L287.489 174.201" stroke="#553597" stroke-width="0.908714" stroke-miterlimit="1" stroke-linecap="round" stroke-linejoin="round"/>
<path fill-rule="evenodd" clip-rule="evenodd" d="M241.428 236.694L271.306 236.528C276.7 216.029 259.687 201.837 264.832 180.674C264.832 180.674 245.495 185.571 239.603 192.625C235.785 197.273 226.49 220.095 223.087 236.528L241.428 236.694Z" fill="white"/>
<path fill-rule="evenodd" clip-rule="evenodd" d="M241.345 236.694L255.537 236.611C253.711 206.568 255.62 189.056 256.533 183.164C250.558 185.239 242.839 188.558 239.603 192.542C235.785 197.19 226.49 220.013 223.087 236.445L241.345 236.694Z" fill="#A78ED7"/>
<path d="M221.012 179.678C221.012 179.678 203.833 174.699 196.032 173.703" stroke="#553597" stroke-width="0.908714" stroke-miterlimit="1" stroke-linecap="round" stroke-linejoin="round"/>
<path fill-rule="evenodd" clip-rule="evenodd" d="M222.672 180.674C222.672 180.674 242.01 185.571 247.902 192.625C253.795 199.679 272.053 248.645 263.422 253.624C256.948 257.442 246.076 236.777 246.076 236.777L216.199 236.528C210.805 216.029 227.818 201.837 222.672 180.674Z" fill="white"/>
<path fill-rule="evenodd" clip-rule="evenodd" d="M230.889 183.164C236.864 185.239 244.582 188.558 247.819 192.542C253.712 199.596 271.97 248.562 263.339 253.541C256.865 257.359 245.993 236.694 245.993 236.694L231.802 236.611C233.71 206.568 231.802 189.056 230.889 183.164Z" fill="#EDE3FF"/>
<path fill-rule="evenodd" clip-rule="evenodd" d="M235.619 104.902C235.619 104.902 220.266 103.408 215.369 104.404C206.987 106.064 188.148 118.513 188.148 118.513C188.148 118.513 197.36 120.837 204.58 132.124C204.58 132.124 204.331 140.755 209.477 147.892H280.435C280.435 147.892 284.834 140.423 284.917 129.883C284.917 129.883 291.722 121.335 299.689 118.596C299.689 118.596 282.676 105.815 271.14 104.155C263.422 102.993 252.052 104.985 252.052 104.985L235.619 104.902Z" fill="#A78ED7"/>
<path fill-rule="evenodd" clip-rule="evenodd" d="M187.152 140.423L167.4 147.809C157.524 166.233 176.944 181.504 203.916 177.935C220.764 175.695 244.085 167.976 244.085 167.976V119.841C244.085 119.841 236.698 122.829 233.047 135.443C232.964 135.443 208.232 135.941 187.152 140.423Z" fill="white"/>
<path d="M241.595 127.393C241.595 127.393 236.947 129.053 237.611 140.34" stroke="#553597" stroke-width="0.908714" stroke-miterlimit="1" stroke-linecap="round" stroke-linejoin="round"/>
<path fill-rule="evenodd" clip-rule="evenodd" d="M218.772 136.19C216.946 141.668 211.801 160.009 220.266 174.781C214.788 176.109 208.979 177.271 203.833 178.018C176.861 181.587 157.441 166.316 167.317 147.892L187.069 140.506C198.024 138.099 209.892 136.854 218.772 136.19Z" fill="#EDE3FF"/>
<path d="M210.97 139.51C210.97 139.51 208.979 146.564 209.892 155.693" stroke="#553597" stroke-width="0.908714" stroke-miterlimit="1" stroke-linecap="round" stroke-linejoin="round"/>
<path d="M203.169 137.767C203.169 137.767 192.629 139.427 187.152 140.423" stroke="#553597" stroke-width="0.908714" stroke-miterlimit="1" stroke-linecap="round" stroke-linejoin="round"/>
<path fill-rule="evenodd" clip-rule="evenodd" d="M300.934 140.423L320.686 147.809C330.562 166.233 311.142 181.504 284.17 177.935C267.322 175.695 244.001 167.976 244.001 167.976V119.841C244.001 119.841 251.388 122.829 255.039 135.443C255.122 135.443 279.854 135.941 300.934 140.423Z" fill="white"/>
<path d="M246.491 127.393C246.491 127.393 251.139 129.053 250.475 140.34" stroke="#553597" stroke-width="0.908714" stroke-miterlimit="1" stroke-linecap="round" stroke-linejoin="round"/>
<path fill-rule="evenodd" clip-rule="evenodd" d="M269.314 136.19C271.14 141.668 276.286 160.009 267.82 174.781C273.298 176.109 279.107 177.271 284.253 178.018C311.225 181.587 330.645 166.316 320.769 147.892L301.017 140.506C290.062 138.099 278.194 136.854 269.314 136.19Z" fill="#EDE3FF"/>
<path d="M277.032 139.51C277.032 139.51 279.024 146.564 278.111 155.693" stroke="#553597" stroke-width="0.908714" stroke-miterlimit="1" stroke-linecap="round" stroke-linejoin="round"/>
<path d="M284.917 137.767C284.917 137.767 295.457 139.427 300.935 140.423" stroke="#553597" stroke-width="0.908714" stroke-miterlimit="1" stroke-linecap="round" stroke-linejoin="round"/>
<path d="M244.001 121.999V165.984" stroke="#553597" stroke-width="0.908714" stroke-miterlimit="1" stroke-linecap="round" stroke-linejoin="round"/>
<path d="M283.672 125.484C283.672 125.484 281.763 116.272 275.29 112.205" stroke="#553597" stroke-width="0.908714" stroke-miterlimit="1" stroke-linecap="round" stroke-linejoin="round"/>
<path d="M204.663 129.551C204.663 129.551 204.414 117.932 213.709 110.961" stroke="#553597" stroke-width="0.908714" stroke-miterlimit="1" stroke-linecap="round" stroke-linejoin="round"/>
<path fill-rule="evenodd" clip-rule="evenodd" d="M251.886 86.6437V104.902C251.886 104.902 252.218 116.853 243.586 116.77C234.955 116.687 235.619 104.902 235.619 104.902V97.6817L251.886 86.6437Z" fill="white"/>
<path fill-rule="evenodd" clip-rule="evenodd" d="M235.619 97.6819V103.242C235.619 103.242 242.01 102.744 242.342 96.437L235.619 97.6819Z" fill="#EDE3FF"/>
<path fill-rule="evenodd" clip-rule="evenodd" d="M225.411 69.7963C223.751 75.1908 224.913 79.9214 224.83 84.403C224.747 88.8845 222.672 99.2586 234.54 99.8395C246.408 100.42 251.719 87.8886 251.719 87.8886L251.222 70.7922C251.222 70.7922 227.154 64.4848 225.411 69.7963Z" fill="white"/>
<path fill-rule="evenodd" clip-rule="evenodd" d="M232.548 91.1255C232.548 91.1255 237.196 91.7894 242.507 87.9717C242.507 87.9717 242.673 93.0343 238.109 94.5281C233.959 95.773 232.548 91.1255 232.548 91.1255Z" fill="#A78ED7"/>
<path d="M231.884 77.8466C231.884 77.8466 229.975 76.1038 228.067 76.1868" stroke="#553597" stroke-width="0.908714" stroke-miterlimit="1" stroke-linecap="round" stroke-linejoin="round"/>
<path d="M236.034 75.8547C236.034 75.8547 237.196 78.0125 241.926 78.4275" stroke="#553597" stroke-width="0.908714" stroke-miterlimit="1" stroke-linecap="round" stroke-linejoin="round"/>
<path d="M236.864 82.3283C236.864 82.3283 239.603 80.0875 242.175 81.4984" stroke="#553597" stroke-width="0.908714" stroke-miterlimit="1" stroke-linecap="round" stroke-linejoin="round"/>
<path d="M231.552 81.8301C231.552 81.8301 229.727 80.6683 228.565 81.4982" stroke="#553597" stroke-width="0.908714" stroke-miterlimit="1" stroke-linecap="round" stroke-linejoin="round"/>
<path d="M233.378 79.6725C233.378 79.6725 232.631 86.6438 233.129 87.1418C233.627 87.6397 235.453 87.5568 235.453 87.5568" stroke="#553597" stroke-width="0.908714" stroke-miterlimit="1" stroke-linecap="round" stroke-linejoin="round"/>
<path fill-rule="evenodd" clip-rule="evenodd" d="M248.732 81.7474L246.823 76.5188C246.823 76.5188 242.176 75.6059 239.188 71.4563C239.188 71.4563 238.607 73.2822 239.188 74.527C239.188 74.527 233.71 75.7719 231.635 71.6223C231.635 71.6223 230.806 72.9502 231.304 74.61C231.304 74.61 228.731 75.025 227.403 72.7842C227.403 72.7842 224.747 73.0332 224 69.6305C223.17 65.3149 227.735 60.8333 238.524 60.7503C247.653 60.7503 259.106 65.2319 258.94 73.9461C258.774 82.6603 252.55 86.8929 252.55 86.8929L248.732 81.7474Z" fill="#553597"/>
<path fill-rule="evenodd" clip-rule="evenodd" d="M247.487 82.4111C248.649 76.9336 260.6 74.6928 259.521 83.0751C258.442 91.4573 246.159 88.5526 247.487 82.4111Z" fill="white"/>
<path d="M255.869 80.8343C255.869 80.8343 253.462 81.4153 252.052 84.735C252.052 84.735 254.873 82.5772 256.284 83.7391" stroke="#553597" stroke-width="0.908714" stroke-miterlimit="1" stroke-linecap="round" stroke-linejoin="round"/>
</svg>
