<svg width="10" height="11" viewBox="0 0 10 11" fill="none" xmlns="http://www.w3.org/2000/svg">
<path d="M2.51562 8.47661C3.20312 9.16411 4.03125 9.50786 5 9.50786C5.96875 9.50786 6.78906 9.16411 7.46094 8.47661C8.14844 7.78911 8.49219 6.96098 8.49219 5.99223C8.49219 5.02348 8.14844 4.20317 7.46094 3.5313C6.78906 2.8438 5.96875 2.50005 5 2.50005C4.03125 2.50005 3.20312 2.8438 2.51562 3.5313C1.84375 4.20317 1.50781 5.02348 1.50781 5.99223C1.50781 6.96098 1.84375 7.78911 2.51562 8.47661ZM1.8125 2.82817C2.6875 1.93755 3.75 1.49223 5 1.49223C6.25 1.49223 7.3125 1.93755 8.1875 2.82817C9.0625 3.70317 9.5 4.75786 9.5 5.99223C9.5 7.22661 9.0625 8.28911 8.1875 9.17973C7.3125 10.0547 6.25 10.4922 5 10.4922C3.75 10.4922 2.6875 10.0547 1.8125 9.17973C0.9375 8.28911 0.5 7.22661 0.5 5.99223C0.5 4.75786 0.9375 3.70317 1.8125 2.82817ZM5.25781 3.50786V6.13286L7.25 7.30473L6.875 7.91411L4.50781 6.50786V3.50786H5.25781ZM2.9375 1.18755L0.640625 3.10942L0.0078125 2.35942L2.30469 0.437546L2.9375 1.18755ZM9.99219 2.35942L9.35938 3.13286L7.0625 1.18755L7.69531 0.437546L9.99219 2.35942Z" fill="#64748B"/>
</svg>
