<svg width="311" height="238" viewBox="0 0 311 238" fill="none" xmlns="http://www.w3.org/2000/svg">
<g clip-path="url(#clip0_249_5064)">
<mask id="mask0_249_5064" style="mask-type:luminance" maskUnits="userSpaceOnUse" x="25" y="0" width="240" height="238">
<path d="M25.8055 0.866211H264.01V237.134H25.8055V0.866211Z" fill="white"/>
</mask>
<g mask="url(#mask0_249_5064)">
<path d="M111.634 28.8368C126.091 6.23253 179.529 -7.40306 200.94 6.7529C222.351 20.9089 212.463 52.9985 226.042 61.3226C239.62 69.6596 270.839 97.411 262.665 130.474C251.143 177.13 263.227 198.694 245.793 214.095C220.692 236.274 192.711 218.064 158.543 227.648C124.389 237.232 72.6103 245.241 51.1298 221.282C35.0812 203.373 41.4461 179.484 30.9666 155.883C18.2112 127.132 29.3201 98.8077 61.8289 93.3995C94.3377 87.9913 98.0535 50.0826 111.634 28.835V28.8368Z" fill="#EDE3FF"/>
</g>
<mask id="mask1_249_5064" style="mask-type:luminance" maskUnits="userSpaceOnUse" x="36" y="5" width="222" height="213">
<path d="M36.5998 5.43091H257.789V217.962H36.5998V5.43091Z" fill="white"/>
</mask>
<g mask="url(#mask1_249_5064)">
<path d="M104.623 180.716C104.623 180.716 92.9418 180.141 78.0366 170.017C63.1315 159.892 49.4174 135.174 49.4174 135.174L42.2621 122.369L37.4925 118.796C37.4925 118.796 36.0015 116.115 38.6854 117.903C41.3693 119.69 42.5603 120.881 43.455 120.286C44.3496 119.69 38.9836 113.734 38.9836 113.734C38.9836 113.734 37.4926 111.352 39.58 111.947C40.2167 111.165 39.8782 109.862 41.3693 111.054C42.8604 112.246 48.8228 118.2 48.8228 118.2C48.8228 118.2 47.9281 111.947 49.4192 111.649C49.4192 111.649 51.2085 115.222 52.3995 120.881C55.3798 125.049 65.5172 137.856 71.1796 140.834C76.842 143.812 80.1223 143.514 84.5937 140.834C89.065 138.153 90.8543 135.771 90.8543 135.771C90.8543 135.771 97.4131 142.62 98.606 146.193C99.7988 149.766 103.972 159.892 104.27 165.848C104.568 171.804 104.623 180.718 104.623 180.718V180.716Z" fill="#EDE3FF"/>
<path d="M196.685 172.697C196.105 175.976 185.953 186.694 176.414 190.268C167.173 192.65 160.614 194.436 147.496 190.268C134.379 186.099 119.175 168.826 119.175 168.826L112.617 162.275L105.759 154.532C105.759 154.532 89.6615 132.793 86.0847 131.601L80.1223 133.686C80.1223 133.686 77.4402 133.983 79.5259 132.495C81.6115 131.007 84.8919 129.815 84.8919 129.815L76.2474 130.708C76.2474 130.708 72.3724 129.517 76.5456 128.623C76.5456 128.027 74.4581 127.432 77.142 125.942C80.7187 125.347 86.3829 124.752 86.3829 124.752L80.4205 120.583C80.4205 120.583 78.333 118.498 81.6134 119.69C84.8937 120.883 88.4704 122.371 88.4704 122.371C88.4704 122.371 86.6812 118.5 88.4704 117.308C89.3651 117.903 91.4507 121.774 91.749 124.156C93.8364 125.645 107.847 133.686 109.636 135.176C111.425 136.665 122.157 144.11 127.523 146.492C132.889 148.875 137.361 150.066 140.641 149.768C143.922 149.47 149.856 149.746 153.596 141.718C159.123 141.431 170.153 141.729 178.203 147.685C186.253 153.641 196.09 167.34 196.687 172.699L196.685 172.697Z" fill="#EDE3FF"/>
<path d="M120.667 100.928C124.541 102.715 129.013 105.394 137.361 102.715C145.709 100.037 151.371 89.9105 151.371 89.9105C151.371 89.9105 141.541 90.1551 139.447 91.3985L133.782 73.8282C133.782 73.8282 138.254 71.7431 135.572 68.1698C132.89 64.5966 130.504 68.1698 129.907 69.9574C129.311 71.7449 125.734 69.3621 122.454 64.5966C119.174 59.8311 118.281 54.4722 118.281 54.4722C118.281 54.4722 113.511 60.4282 112.318 65.4913C110.529 67.2788 110.827 66.6818 109.04 66.6818C107.252 66.6818 107.609 68.7815 108.443 69.3621C109.278 69.9428 111.126 69.0645 111.126 69.0645C111.126 69.0645 110.231 75.9134 112.318 77.9985C114.406 80.0836 115.895 81.2741 120.366 80.6789C124.838 80.0836 123.049 88.72 123.049 88.72L124.838 96.1641L120.665 100.93L120.667 100.928Z" fill="#EDE3FF"/>
<path d="M98.1286 144.762C98.1286 144.762 102.62 154.734 103.897 164.968C105.174 175.215 104.625 180.717 104.625 180.717C104.625 180.717 114.389 181.883 118.385 180.51C118.385 180.51 113.18 168.383 112.659 162.292L107.825 157.285L98.1304 144.76L98.1286 144.762Z" fill="white"/>
<path d="M120.732 100.478C121.102 100.959 121.576 101.348 122.119 101.618C125.07 102.907 128.737 104.059 132.006 103.922C136.483 103.743 139.984 101.631 143.556 99.0104C145.451 97.6246 147.127 96.2113 148.554 94.3599C149.507 93.1585 150.237 91.7982 150.709 90.3393C154.472 90.2152 159.017 90.2298 164.14 90.5731C178.697 91.5335 199.433 105.251 205.613 129.533C211.793 153.816 198.266 170.962 198.266 170.962C197.236 165.751 192.704 156.421 182.267 148.601C171.829 140.781 153.592 141.714 153.592 141.714C150.049 150.465 142.359 149.917 135.164 149.505C127.968 149.092 110.513 135.787 110.513 135.787L97.3986 127.487C99.8282 123.249 115.306 106.347 120.731 100.477L120.732 100.478Z" fill="white"/>
<path d="M116.888 67.1156C115.21 66.9005 113.928 66.123 114.024 65.3788C114.119 64.6347 115.557 64.2058 117.235 64.4209C118.912 64.6359 120.195 65.4135 120.099 66.1577C120.003 66.9018 118.565 67.3307 116.888 67.1156Z" fill="white"/>
<path d="M118.974 71.9165L115.156 75.8257C115.156 75.8257 117.381 76.9924 118.932 75.4149C120.484 73.8373 118.972 71.9165 118.972 71.9165H118.974Z" fill="white"/>
<path d="M116.901 76.6493C117.778 76.6693 118.621 76.3261 119.236 75.7035C120.665 74.2501 119.894 72.4242 119.304 71.6573C119.234 71.5606 119.121 71.504 119.002 71.5058C118.883 71.4967 118.766 71.5423 118.685 71.6299L114.867 75.5391C114.77 75.6304 114.728 75.7655 114.757 75.897C114.783 76.0248 114.863 76.1362 114.977 76.1983C115.575 76.4922 116.232 76.6474 116.9 76.6493H116.901ZM118.907 72.5739C119.208 73.1509 119.538 74.2062 118.645 75.1265C118.096 75.6797 117.313 75.9335 116.545 75.8112C116.321 75.7838 116.1 75.7382 115.886 75.6742L118.907 72.5739Z" fill="#553597"/>
<path d="M99.8721 138.822C97.8088 138.822 96.1362 137.133 96.1362 135.05C96.1362 132.966 97.8088 131.277 99.8721 131.277C101.935 131.277 103.608 132.966 103.608 135.05C103.608 137.133 101.935 138.822 99.8721 138.822Z" fill="white"/>
<path d="M99.8721 135.968C99.3639 135.968 98.9519 135.557 98.9519 135.05C98.9519 134.543 99.3639 134.131 99.8721 134.131C100.38 134.131 100.792 134.543 100.792 135.05C100.792 135.557 100.38 135.968 99.8721 135.968Z" fill="#553597"/>
<path d="M99.8721 136.379C100.608 136.379 101.204 135.784 101.204 135.048C101.204 134.312 100.608 133.717 99.8721 133.717C99.1366 133.717 98.5402 134.312 98.5402 135.048C98.5457 135.782 99.1385 136.373 99.8721 136.379ZM99.8721 134.527C100.15 134.531 100.375 134.756 100.381 135.033C100.381 135.313 100.154 135.539 99.8739 135.539C99.594 135.539 99.3653 135.313 99.3653 135.031C99.3653 134.75 99.5922 134.524 99.8739 134.524L99.8721 134.527Z" fill="#553597"/>
<path d="M99.8172 134.473C100.048 134.465 100.231 134.277 100.229 134.047L100.174 132.579C100.17 132.356 99.9873 132.178 99.7641 132.181C99.7586 132.181 99.7531 132.181 99.7495 132.181C99.5244 132.194 99.3488 132.382 99.3506 132.607L99.4055 134.075C99.4165 134.296 99.5976 134.469 99.8172 134.473Z" fill="#553597"/>
<path d="M141.305 206.865C141.395 206.865 141.481 206.835 141.552 206.782C147.034 202.453 152.273 197.828 157.25 192.928C157.416 192.776 157.429 192.519 157.277 192.353C157.125 192.186 156.867 192.174 156.701 192.325C156.697 192.329 156.692 192.334 156.688 192.338C151.732 197.217 146.516 201.823 141.06 206.138C140.883 206.278 140.852 206.536 140.991 206.715C141.066 206.812 141.183 206.868 141.307 206.866L141.305 206.865Z" fill="#553597"/>
<path d="M206.535 134.403C222.313 112.701 232.86 94.5647 227.972 91.0262C218.524 84.1938 196.811 110.835 196.811 110.835C196.811 110.835 202.373 119.34 203.403 121.933C204.598 124.911 206.533 134.403 206.533 134.403H206.535Z" fill="#553597"/>
<path d="M206.535 134.816C206.665 134.82 206.789 134.758 206.864 134.652C214.212 124.555 219.883 115.968 223.714 109.15C228.039 101.454 229.99 96.0071 229.51 93.0036C229.41 92.0888 228.938 91.2562 228.206 90.6993C225.926 89.0524 222.811 89.1072 218.936 90.8637C215.928 92.2349 212.441 94.6633 208.568 98.0521C202.003 103.815 196.539 110.508 196.484 110.563C196.372 110.7 196.361 110.893 196.456 111.043C196.511 111.125 202.003 119.548 203.021 122.073C204.188 124.995 206.111 134.378 206.124 134.475C206.149 134.637 206.277 134.765 206.44 134.79C206.467 134.811 206.502 134.82 206.535 134.818V134.816ZM224.333 90.3269C225.548 90.2958 226.737 90.6628 227.725 91.3694C228.275 91.804 228.627 92.4431 228.7 93.1387C229.291 96.8836 225.954 106.911 206.742 133.416C206.221 130.947 204.779 124.252 203.791 121.783C202.843 119.409 198.269 112.33 197.322 110.862C200.966 106.524 204.912 102.449 209.131 98.6674C213.773 94.5939 219.733 90.3269 224.335 90.3269H224.333Z" fill="#553597"/>
<path d="M119.208 67.3901C118.735 67.5216 118.244 67.5873 117.752 67.5818C117.448 67.58 117.147 67.5563 116.845 67.5125C116.804 67.5125 116.75 67.4979 116.707 67.4979H116.653C116.625 67.4997 116.596 67.496 116.57 67.4833C116.426 67.4613 116.285 67.4285 116.144 67.3865C114.825 67.0852 113.892 66.4535 113.672 65.7414V65.7268C113.661 65.7012 113.656 65.672 113.659 65.6446C113.643 65.5533 113.634 65.462 113.632 65.3707C113.652 65.0147 113.855 64.6933 114.168 64.5199C114.689 64.1364 115.57 63.9301 116.612 63.9575C116.847 63.963 117.081 63.9812 117.313 64.0123C118.105 64.0999 118.872 64.3464 119.565 64.739C120.251 65.1498 120.595 65.672 120.526 66.207C120.456 66.7419 119.975 67.1528 119.207 67.3865L119.208 67.3901ZM119.126 65.4565C118.548 65.1352 117.915 64.9307 117.258 64.8522C117.452 65.4675 117.452 66.1285 117.258 66.7456C117.838 66.8022 118.424 66.7566 118.987 66.6087C119.399 66.4845 119.673 66.2928 119.702 66.1138C119.717 65.9349 119.496 65.6756 119.126 65.4547V65.4565Z" fill="#553597"/>
<path d="M131.774 70.7516L133.407 68.9951C133.235 68.829 133.036 68.6957 132.816 68.5971C132.604 68.5167 132.5 68.2794 132.58 68.0694C132.58 68.0676 132.582 68.0639 132.584 68.0621C132.672 67.8521 132.908 67.7499 133.12 67.8284C133.888 68.1296 135.248 69.2818 134.809 71.4491C134.774 71.6408 134.606 71.7814 134.41 71.7777C134.386 71.7814 134.362 71.7777 134.342 71.7631C134.121 71.7248 133.973 71.5148 134.011 71.2921C134.011 71.2884 134.011 71.2848 134.013 71.2829C134.143 70.7479 134.101 70.1856 133.888 69.678L132.377 71.2975C132.302 71.387 132.191 71.4363 132.075 71.4345C131.973 71.4308 131.876 71.3925 131.801 71.3249C131.634 71.1807 131.616 70.9287 131.761 70.7644C131.764 70.7607 131.768 70.7553 131.772 70.7516H131.774Z" fill="#553597"/>
<path d="M120.061 54.2203C120.242 54.2222 120.405 54.1053 120.46 53.9318C122.273 47.8261 132.077 47.2364 132.174 47.2236C132.401 47.209 132.573 47.0118 132.558 46.7854C132.544 46.559 132.346 46.3855 132.119 46.402C130.268 46.5407 128.442 46.9095 126.682 47.4993C122.906 48.7756 120.489 50.9155 119.651 53.6853C119.583 53.8935 119.697 54.1181 119.905 54.1856C119.913 54.1875 119.918 54.1893 119.926 54.1911C119.968 54.213 120.015 54.2222 120.063 54.2203H120.061Z" fill="#EDE3FF"/>
<path d="M247.692 52.9986C247.871 52.9986 248.029 52.8817 248.076 52.7101C249.642 47.9628 250.288 43.3397 249.999 38.9522C249.776 35.4976 248.94 32.1106 247.528 28.9501C245.124 23.6277 241.911 20.898 241.774 20.7738C241.6 20.6296 241.34 20.6551 241.197 20.8286C241.053 21.0021 241.078 21.2613 241.252 21.4056C241.937 22.0209 242.571 22.691 243.148 23.4086C244.622 25.2089 245.85 27.1972 246.799 29.3207C248.17 32.3845 248.98 35.6693 249.189 39.0197C249.463 43.2868 248.83 47.7985 247.306 52.4362C247.233 52.6498 247.348 52.8836 247.562 52.9566C247.562 52.9566 247.566 52.9566 247.568 52.9566C247.595 52.9986 247.65 52.9986 247.69 52.9986H247.692Z" fill="#EDE3FF"/>
<path d="M145.645 77.5422H145.755C152.773 77.4875 158.389 74.0987 163.827 70.834C171.833 66.0192 180.1 61.0254 193.407 65.8676C193.608 65.948 193.836 65.8512 193.917 65.6504C193.921 65.6412 193.924 65.6303 193.928 65.6193C194.007 65.4112 193.9 65.1793 193.692 65.1026C193.688 65.1026 193.685 65.1008 193.681 65.0989C180.016 60.1326 171.571 65.2231 163.4 70.1347C157.811 73.4961 152.539 76.6786 145.755 76.7334H145.66C140.028 76.7334 137.379 72.879 137.352 72.8516C137.229 72.658 136.973 72.6014 136.779 72.7238C136.585 72.8461 136.528 73.1017 136.651 73.2953C136.656 73.3026 136.66 73.3099 136.666 73.3172C136.774 73.4687 139.562 77.5422 145.647 77.5422H145.645Z" fill="#EDE3FF"/>
<path d="M44.3369 121.962L47.4672 121.18C47.3592 120.782 47.3318 120.368 47.3848 119.959C47.4141 119.734 47.619 119.577 47.8441 119.607C48.0691 119.636 48.2264 119.842 48.1972 120.065C48.1972 120.07 48.1972 120.076 48.1953 120.083C48.1331 120.711 48.3033 121.341 48.6765 121.852C49.143 122.457 49.9261 122.826 50.9982 122.95C51.225 122.979 51.3842 123.187 51.3549 123.413C51.3275 123.62 51.1519 123.773 50.9433 123.773H50.9012C49.5968 123.622 48.6216 123.141 48.0179 122.347C47.9227 122.223 47.8404 122.09 47.7709 121.949L44.529 122.758C44.4979 122.769 44.4649 122.774 44.432 122.773C44.2436 122.769 44.0807 122.639 44.0332 122.457C43.9801 122.238 44.1155 122.017 44.335 121.964C44.335 121.964 44.335 121.964 44.3369 121.964V121.962Z" fill="#553597"/>
<path d="M36.6748 117.435C36.7644 117.238 36.9346 117.088 37.1413 117.025C37.7725 116.833 38.7623 117.463 40.3283 118.505C41.0967 119.011 42.6354 120.041 43.1001 120.013C43.0049 119.52 41.8231 118.093 41.04 117.132C39.1172 114.786 37.8804 113.168 38.1293 112.111C38.1768 111.771 38.4092 111.485 38.733 111.37C38.9635 111.304 39.2087 111.313 39.4337 111.397C39.4117 111.308 39.4026 111.215 39.4062 111.123C39.4099 110.917 39.4922 110.72 39.6404 110.576C40.6156 109.67 41.8651 110.877 44.1447 113.086C44.6113 113.539 45.1327 114.059 45.7108 114.594C46.3146 115.157 47.5641 116.364 48.3746 117.145C47.9209 114.401 48.0453 112.522 48.7332 111.671C48.9362 111.386 49.2619 111.215 49.6114 111.205C50.1602 111.205 50.3669 111.742 51.4372 115.911C51.9184 117.777 52.4124 119.725 52.8386 120.74C53.2649 121.783 56.9038 126.749 61.5582 131.728C64.855 135.254 71.0753 141.318 75.6071 142.306C78.0788 142.842 80.6749 142.47 83.2984 141.181C85.5633 140.083 87.9125 138.272 90.289 135.816C86.8971 132.126 86.0189 132.002 85.8542 132.017C85.2633 132.099 84.2882 132.566 83.3405 133.005C81.4176 133.91 79.4125 134.843 78.5746 133.813C78.3971 133.605 78.3404 133.319 78.4227 133.059C78.6569 132.223 80.4553 131.29 82.1586 130.591C80.1681 130.755 77.8062 130.949 77.2427 130.989C76.9682 131.016 76.7213 131.031 76.4871 131.031C75.5815 131.031 74.9484 130.839 74.6338 130.426C74.4032 130.174 74.3063 129.828 74.3721 129.493C74.3959 129.422 74.4325 129.356 74.4819 129.302C74.9082 128.902 75.4131 128.593 75.9657 128.396C75.7992 128.281 75.6583 128.131 75.554 127.956C75.3747 127.552 75.4168 127.087 75.6638 126.722C76.542 125.157 82.2812 124.582 85.084 124.39C84.4107 123.965 83.5179 123.388 82.6544 122.785C79.1673 120.399 79.0557 119.877 79.2899 119.451C79.4271 119.201 79.6686 119.026 79.9485 118.971C81.0334 118.71 83.6698 119.656 87.8027 121.755C86.9794 119.038 87.1294 117.421 88.2564 116.926C88.4211 116.849 88.6132 116.849 88.7778 116.926C89.162 117.09 89.7932 117.695 91.1818 120.946C91.8002 122.414 92.3344 123.84 92.5009 124.293C93.2693 124.719 94.0523 125.172 94.8903 125.652C95.6733 126.105 96.471 126.57 97.2394 127.038C98.6133 125.049 100.701 122.414 103.09 119.575C103.105 119.522 103.132 119.475 103.173 119.438C103.255 119.342 103.599 118.958 104.12 118.354C107.058 114.897 110.313 111.247 113.129 108.134C118.498 102.208 123.347 97.0769 124.404 95.9668C124.417 95.9522 124.432 95.9248 124.444 95.912L121.382 83.3445L120.86 81.2448C120.279 81.3379 119.691 81.3836 119.102 81.3817C117.262 81.3909 115.456 80.8869 113.884 79.9283C111.096 78.2011 110.066 74.6607 110.864 69.6943C110.503 69.8806 110.103 69.9792 109.697 69.9828C109.558 69.9847 109.42 69.9719 109.285 69.9408C108.555 69.8112 107.918 69.3693 107.541 68.7339C107.282 68.1862 107.338 67.5398 107.693 67.0468C107.927 66.7182 108.504 66.2106 109.684 66.4297C110.637 66.6397 111.603 66.1357 111.978 65.2356C111.978 65.2082 111.991 65.1808 111.991 65.1388C113.295 61.1876 115.396 57.1963 117.622 54.3972C117.622 53.7253 117.688 53.0552 117.814 52.3942C118.391 49.5002 120.56 45.8923 127.646 45.1638C143.603 43.5169 149.756 34.3273 153.806 28.2362C154.108 27.7979 154.397 27.3725 154.672 26.9599C158.722 21.0331 165.493 11.115 187.451 12.5136C196.557 13.0906 201.336 10.8667 205.977 8.72675C209.08 7.28614 212.02 5.91491 216.016 5.55704C220.478 5.159 225.628 6.0628 232.233 8.42365C238.704 10.7188 244.437 14.7083 248.837 19.9741C252.85 24.7743 255.577 30.5148 256.761 36.6552C257.701 41.4208 257.513 46.3397 256.212 51.0175C254.915 55.6205 252.304 59.7488 248.7 62.8966C242.795 68.0419 235.709 70.8812 227.057 71.5805C219.448 72.1976 211.663 71.1423 204.124 70.1125C200.595 69.6323 197.27 69.1795 194.003 68.891C183.909 68.0273 178.059 71.1952 171.853 74.5566C167.294 77.0252 162.57 79.5906 155.799 80.9636C153.73 81.3927 151.622 81.6136 149.509 81.6227C144.373 81.6227 140.665 80.1821 138.261 78.7415C136.867 77.9272 135.592 76.9248 134.47 75.7635L139.511 90.8543C144.611 89.8939 149.798 89.4612 154.988 89.5653C159.902 89.631 164.795 90.2427 169.573 91.3893C175.217 92.7898 180.243 94.9826 184.515 97.9186C194.045 104.475 201.612 115.025 205.251 126.864C207.163 132.992 207.938 139.417 207.545 145.824C207.111 152.623 205.275 159.261 202.15 165.317C199.005 171.423 195.296 176.648 191.123 180.846C187.433 184.6 183.092 187.653 178.311 189.858C173.298 192.143 167.85 193.322 162.339 193.315C160.524 193.315 158.711 193.191 156.913 192.944L147.149 202.053C147.094 202.11 147.021 202.148 146.942 202.163C146.801 202.181 146.658 202.19 146.516 202.19C145.363 202.19 142.066 201.615 139.278 195.729C137.37 191.695 135.612 191.529 133.592 191.325C132.233 191.188 130.709 191.036 129.046 189.747C126.739 187.963 127.192 185.548 127.562 183.601C127.921 181.695 128.069 180.486 126.751 179.787C123.347 177.99 118.195 175.273 117.756 168.319C116.135 166.727 114.596 165.149 113.169 163.626C113.169 163.696 113.182 163.75 113.182 163.818C113.374 164.627 113.581 165.437 113.786 166.246C114.225 167.921 114.706 169.551 115.242 171.158C115.763 172.666 116.314 174.176 116.823 175.52C119.077 181.328 122.126 186.793 125.886 191.763C130.174 197.403 135.451 202.218 141.459 205.975C141.516 206.001 141.565 206.045 141.596 206.1C141.697 206.167 141.757 206.28 141.761 206.401C141.765 206.54 141.704 206.671 141.596 206.759C132.011 214.208 124.375 217.953 118.786 217.953C116.788 218.008 114.825 217.411 113.196 216.251C112.002 215.36 111.301 214.015 111.124 212.245C110.575 206.704 115.394 197.155 122.851 188.938C121.202 186.464 119.721 183.884 118.416 181.215C116.243 181.485 114.055 181.618 111.865 181.613C107.583 181.6 103.317 181.103 99.1476 180.132C90.4006 178.06 82.0781 173.904 74.4417 167.744C59.9665 156.071 47.5806 132.926 43.5007 125.327C42.8421 124.105 42.3189 123.132 42.1963 122.981C41.8944 122.582 41.0291 121.951 40.1088 121.293C37.6774 119.553 36.2503 118.429 36.6748 117.428V117.435ZM88.5034 117.724C87.8722 118.135 87.9948 119.836 88.8473 122.292C89.6432 122.703 90.4957 123.17 91.3885 123.663C90.1115 120.302 88.9571 118.067 88.5052 117.724H88.5034ZM94.4768 126.367C86.705 121.869 81.4725 119.453 80.1406 119.783H80.1278C80.7041 120.51 83.8088 122.665 86.597 124.379C86.7891 124.492 86.8531 124.741 86.7397 124.932C86.7379 124.936 86.7361 124.94 86.7342 124.941C86.6775 125.038 86.5824 125.108 86.4726 125.133C86.4415 125.146 86.4086 125.15 86.3757 125.148C86.3482 125.148 84.0266 125.257 81.6097 125.573C77.3524 126.136 76.5291 126.862 76.3627 127.136C76.2803 127.273 76.198 127.465 76.2675 127.589C76.4633 127.79 76.7286 127.912 77.0085 127.932C77.0762 127.947 77.1402 127.971 77.2006 128.002C80.6346 127.111 85.6329 127.248 85.9073 127.26C86.1305 127.264 86.3098 127.447 86.3061 127.669C86.3061 127.675 86.3061 127.68 86.3061 127.684C86.2933 127.909 86.1067 128.084 85.8799 128.082C83.4905 128.013 77.0085 128.179 75.1826 129.769C75.1954 129.815 75.2174 129.859 75.2503 129.893C75.3601 130.017 75.7717 130.304 77.1731 130.167C78.1611 130.058 84.7821 129.55 85.0566 129.523C85.2834 129.508 85.481 129.68 85.4957 129.906C85.4957 129.997 85.47 130.087 85.428 130.167C85.3786 130.247 85.2999 130.306 85.2084 130.331C85.181 130.331 83.657 130.837 82.133 131.498C79.4546 132.65 79.2222 133.213 79.2076 133.282C79.6339 133.819 81.6518 132.871 82.9837 132.239C84.0266 131.759 85.0163 131.294 85.7298 131.182C86.4452 131.086 87.8594 131.705 92.5686 137.094C93.7212 136.596 94.7915 135.926 95.741 135.106V135.037C95.7318 133.123 97.029 131.449 98.8859 130.976C99.1512 130.452 99.3671 129.906 99.5318 129.344C97.8852 128.369 96.1947 127.353 94.4768 126.367ZM96.5496 135.051C96.5496 136.885 98.037 138.373 99.8739 138.373C101.711 138.373 103.198 136.886 103.198 135.051C103.198 134.75 103.156 134.449 103.076 134.16C103.022 134.084 102.993 133.992 102.993 133.899C102.382 132.176 100.489 131.272 98.7634 131.88C97.4223 132.353 96.5332 133.629 96.5533 135.051H96.5496ZM112.631 114.529C112.479 114.328 112.251 114.198 112 114.171C110.544 114.034 106.274 117.572 103.857 119.906C101.413 122.8 99.3104 125.447 97.9236 127.437C102.922 130.428 107.481 133.35 110.147 135.146C110.604 129.627 111.618 124.167 113.167 118.849C113.29 117.861 113.385 115.46 112.631 114.527V114.529ZM139.754 91.6449L140.138 92.7843C140.211 92.9979 140.098 93.2298 139.884 93.3028C139.882 93.3028 139.88 93.3028 139.878 93.3047C139.842 93.3266 139.798 93.3357 139.756 93.3321C139.578 93.3302 139.423 93.2134 139.371 93.0436L132.972 73.9066C132.899 73.693 133.014 73.4593 133.228 73.3863C133.228 73.3863 133.232 73.3863 133.233 73.3863C133.268 73.3753 133.307 73.3698 133.343 73.3717C134.468 73.1927 135.239 72.6303 135.553 71.7393C135.952 70.6548 135.623 69.174 134.77 68.2136C134.441 67.8429 133.755 67.2404 132.862 67.4449C131.256 67.8027 130.692 69.1466 130.513 70.2019C130.436 70.6548 130.143 71.0437 129.73 71.2445C129.322 71.449 128.839 71.438 128.438 71.2171C125.308 69.5154 122.313 66.4972 120.24 62.9441C118.784 60.4481 117.918 57.9504 117.686 55.6589C115.6 58.6186 113.958 61.8687 112.81 65.3031C112.81 65.3305 112.798 65.3579 112.798 65.3999C112.32 66.7419 110.926 67.527 109.528 67.2386C108.965 67.129 108.568 67.2239 108.346 67.527C108.18 67.7644 108.149 68.0711 108.264 68.3359C108.524 68.754 108.948 69.0425 109.431 69.132C109.995 69.2415 110.556 69.0352 111.135 68.5422C111.297 68.3943 111.552 68.4053 111.7 68.5696C111.704 68.5751 111.707 68.5787 111.713 68.5842C111.764 68.6372 111.797 68.7047 111.808 68.7759C111.837 68.8544 111.848 68.9403 111.835 69.0224C110.586 75.402 112.494 78.0751 114.322 79.2144C119.704 82.5485 125.487 78.6247 125.542 78.5827C125.72 78.4494 125.972 78.4841 126.106 78.6594C126.111 78.6648 126.115 78.6721 126.118 78.6776C126.23 78.8292 126.225 79.0391 126.106 79.1834C124.238 82.3367 123.425 86.003 123.784 89.6511V89.6657L125.308 95.9084V95.923C125.308 95.9503 125.321 95.965 125.321 95.9923V96.0197C125.323 96.0471 125.319 96.0763 125.308 96.1019V96.1165C125.29 96.1859 125.257 96.2516 125.211 96.3082L125.116 96.405C123.941 97.8839 122.862 99.4378 121.887 101.057C126.598 103.65 131.28 104.322 135.784 103.018C143.942 100.672 149.256 92.5652 150.519 90.4508C146.905 90.5786 143.307 90.9785 139.752 91.6468L139.754 91.6449ZM151.481 90.4107C150.329 92.4118 148.975 94.2924 147.443 96.0234C145.027 98.7804 141.071 102.376 136.003 103.829C134.45 104.28 132.842 104.51 131.225 104.514C128.012 104.514 124.743 103.608 121.446 101.757C120.979 102.538 120.485 103.404 119.977 104.349C121.768 105.494 123.742 106.325 125.813 106.805C129.232 107.629 134.644 107.985 141.044 104.966C147.059 102.14 150.506 98.2162 152.346 95.419C153.386 93.8634 154.209 92.1745 154.791 90.3979C153.638 90.3833 152.539 90.3833 151.481 90.4125V90.4107ZM201.4 164.943C204.473 158.988 206.279 152.463 206.7 145.778C207.084 139.468 206.316 133.141 204.435 127.107C201.29 116.873 195.179 107.641 187.393 101.152C184.839 104.897 187.104 114.514 183.233 114.061C178.975 113.555 182.971 107.477 180.281 98.3952C180.007 97.3654 179.155 96.3502 178.825 95.5833C175.805 94.1227 172.638 92.987 169.378 92.1945C164.873 91.11 160.265 90.5111 155.63 90.4107C155.03 92.337 154.156 94.1683 153.034 95.8444C151.154 98.7384 147.582 102.799 141.375 105.721C138.043 107.333 134.393 108.185 130.69 108.217C128.963 108.227 127.242 108.016 125.568 107.585C123.444 107.103 121.417 106.259 119.58 105.089C119.318 105.595 119.044 106.119 118.784 106.654C116.841 110.616 115.242 114.737 114.005 118.973C113.99 119.022 113.981 119.073 113.978 119.124C113.969 119.177 113.948 119.228 113.923 119.276C112.373 124.633 111.374 130.136 110.943 135.696C111.135 135.82 111.314 135.942 111.464 136.054C112.055 136.465 112.741 136.959 113.469 137.48C116.998 140.018 122.34 143.845 128.136 146.479C132.586 148.495 136.664 149.51 140.317 149.51C142.194 149.527 144.059 149.229 145.839 148.632C150.947 146.876 153.763 142.802 154.189 136.532C154.352 133.479 154.035 130.421 153.256 127.465C153.194 127.248 153.32 127.023 153.536 126.961C153.75 126.901 153.973 127.019 154.039 127.231C154.857 130.269 155.18 133.419 154.999 136.559C154.906 138.15 154.611 139.722 154.121 141.237C157.797 141.077 161.481 141.265 165.122 141.8C171 142.651 179.253 144.818 185.296 150.347C193.811 158.139 197.547 167.588 198.452 170.17C199.482 168.509 200.47 166.767 201.405 164.943H201.4ZM127.491 176.137C128.822 177.249 130.251 178.414 131.748 179.581C137.913 184.368 143.572 187.854 148.488 189.952C149.577 190.392 150.691 190.768 151.825 191.076C160.739 193.49 169.787 192.818 177.958 189.115C182.647 186.948 186.904 183.95 190.523 180.267C192.506 178.268 194.329 176.117 195.975 173.833C195.459 171.775 194.733 169.774 193.805 167.866C192.199 164.422 189.149 159.03 183.725 152.981C178.342 146.972 170.486 144.34 164.855 143.173C161.223 142.421 157.522 142.057 153.814 142.088C153.219 143.624 152.326 145.026 151.19 146.218C154.321 149.483 163.77 148.963 163.11 152.817C162.217 156.741 157.067 154.491 148.073 151.513C145.725 150.754 143.276 150.352 140.808 150.319C140.628 150.319 140.464 150.334 140.286 150.334C136.523 150.334 132.321 149.291 127.789 147.219C121.911 144.544 116.541 140.69 112.984 138.135C112.256 137.615 111.583 137.135 110.994 136.722C109.675 135.816 107.327 134.253 104.429 132.415C104.307 132.773 104.128 133.293 103.866 133.91C103.967 134.281 104.016 134.664 104.016 135.05C104.016 137.208 102.375 139.012 100.225 139.218C99.0634 140.286 97.6272 141.007 96.0776 141.303C99.6214 145.665 103.096 150.303 105.073 152.95C108.893 158.097 117.64 167.754 127.487 176.137H127.491ZM110.077 175.465C112.768 173.338 112.631 167.316 112.384 164.327C112.344 164.108 112.315 163.917 112.274 163.71C112.179 163.272 112.068 162.832 111.973 162.406C109.292 159.558 106.762 156.573 104.391 153.462C103.114 151.747 101.219 149.195 99.0634 146.425C100.031 148.552 100.88 150.732 101.605 152.954C103.956 160.298 105.159 167.961 105.176 175.671C107.249 176.466 108.897 176.398 110.077 175.463V175.465ZM38.2408 118.823C38.9928 119.48 39.7813 120.094 40.6028 120.662C41.6053 121.388 42.4707 122.02 42.8549 122.5C43.0196 122.707 43.3763 123.364 44.2417 124.969C48.2923 132.528 60.6251 155.561 74.9777 167.125C82.53 173.203 90.7281 177.317 99.3525 179.347C100.973 179.73 102.607 180.032 104.228 180.265L104.353 176.904C104.468 168.879 103.286 160.887 100.851 153.241C98.7634 146.821 96.4838 143.186 96.4563 143.145C96.4325 143.113 96.4142 143.074 96.4014 143.036C95.3019 141.665 94.1895 140.306 93.1046 139.015C92.2539 138.013 91.5111 137.149 90.8397 136.423C89.1657 138.194 87.2739 139.747 85.2084 141.046C88.6827 142.322 93.3516 142.665 92.9254 145.245C92.1423 148.674 87.638 146.699 79.7692 144.106C78.6111 143.724 77.4183 143.449 76.2108 143.282C76.2712 143.282 76.3297 143.277 76.3901 143.268C76.0626 143.226 75.7443 143.171 75.4296 143.103C70.9107 142.13 65.0617 136.684 60.9544 132.28C56.3806 127.383 52.577 122.279 52.0684 121.045C51.6293 119.961 51.1207 118 50.6395 116.093C50.2407 114.545 49.7614 112.65 49.4869 112.073C49.4467 112.106 49.4101 112.142 49.3772 112.182C49.0881 112.553 48.4844 113.924 49.4741 118.52C49.5199 118.744 49.3735 118.964 49.1485 119.007C48.9308 119.051 48.7167 118.914 48.6637 118.699C48.6508 118.629 48.6362 118.575 48.6216 118.52C48.585 118.505 48.552 118.482 48.5264 118.451C48.5136 118.423 46.0547 116.05 45.1491 115.199C44.5728 114.662 44.0368 114.141 43.5684 113.689C42.0023 112.18 40.6577 110.877 40.2186 111.165C40.2186 111.262 40.3009 111.702 41.3035 112.989C42.6335 114.644 44.0514 116.228 45.548 117.737C45.7072 117.895 45.7072 118.155 45.548 118.314C45.3888 118.472 45.1308 118.472 44.9717 118.314C44.968 118.31 44.9625 118.304 44.9589 118.301C42.9409 116.201 41.0309 114.116 40.0704 112.648C40.0063 112.631 39.946 112.604 39.8911 112.566C39.6167 112.332 39.1629 112.1 39.0129 112.155C39.0001 112.155 38.9727 112.197 38.9452 112.292C38.7659 113.046 40.5259 115.186 41.6913 116.614C43.2025 118.452 44.0405 119.522 43.9435 120.209C43.9197 120.399 43.8154 120.569 43.6544 120.674C42.9263 121.155 41.759 120.428 39.8911 119.179C39.1355 118.673 37.8731 117.835 37.4615 117.808C37.4761 117.917 37.5859 118.219 38.2463 118.823H38.2408Z" fill="#553597"/>
<path d="M125.855 191.789C122.101 186.817 119.051 181.352 116.792 175.546C116.285 174.202 115.734 172.692 115.211 171.184C114.689 169.579 114.195 167.946 113.755 166.272C113.548 165.463 113.343 164.652 113.151 163.844C113.151 163.774 113.138 163.707 113.138 163.652C114.567 165.175 116.104 166.739 117.725 168.344C118.164 175.299 123.314 178.016 126.72 179.813C128.039 180.512 127.888 181.719 127.531 183.627C127.159 185.575 126.708 187.989 129.015 189.773C130.676 191.062 132.2 191.213 133.561 191.35C135.579 191.557 137.337 191.721 139.247 195.754C141.664 200.872 144.48 201.97 145.921 202.174C144.341 203.518 142.791 204.781 141.307 205.946C135.352 202.187 130.12 197.392 125.857 191.789H125.855Z" fill="white"/>
</g>
<path d="M216.913 192.493L219.466 195.067L218.903 195.635L216.349 193.061L216.913 192.493Z" fill="#553597"/>
<path d="M213.169 188.719L215.722 191.292L215.159 191.86L212.606 189.286L213.169 188.719Z" fill="#553597"/>
<path d="M218.904 188.718L219.467 189.286L216.914 191.86L216.351 191.292L218.904 188.718Z" fill="#553597"/>
<path d="M215.161 192.492L215.724 193.06L213.171 195.633L212.607 195.066L215.161 192.492Z" fill="#553597"/>
<path d="M92.9344 14.7542L96.4921 10.231L92.9344 5.70776L89.3766 10.231L92.9344 14.7542ZM95.4832 10.231L92.9344 13.4695L90.3855 10.231L92.9344 6.99247L95.4832 10.231Z" fill="#A78ED7"/>
<path d="M171.845 214.294C173.544 214.294 174.925 212.902 174.925 211.189C174.925 209.476 173.544 208.084 171.845 208.084C170.146 208.084 168.765 209.476 168.765 211.189C168.765 212.902 170.146 214.294 171.845 214.294ZM171.845 208.887C173.093 208.887 174.128 209.904 174.128 211.189C174.128 212.447 173.119 213.491 171.845 213.491C170.571 213.491 169.562 212.474 169.562 211.189C169.562 209.931 170.571 208.887 171.845 208.887Z" fill="#553597"/>
<path d="M42.5248 200.716C42.5967 200.777 42.6838 200.817 42.7766 200.832C42.8694 200.847 42.9642 200.837 43.0507 200.801C45.089 199.976 45.7492 200.785 46.8557 202.123C47.8491 203.333 49.0863 204.834 51.7198 205.181L51.7786 205.191C54.5405 205.235 55.9334 204.045 56.6571 202.908C58.0919 203.337 59.6263 203.261 61.001 202.691C62.3523 202.136 63.5404 201.252 64.4582 200.119C66.5027 200.858 68.7311 200.884 70.778 200.193C71.8026 199.787 72.7084 199.134 73.4151 198.292C74.0264 198.673 74.7069 198.93 75.4163 199.045C76.1258 199.161 76.8498 199.133 77.5456 198.965C78.7781 198.788 79.928 198.254 80.8536 197.43C82.649 198.731 85.006 198.666 87.3594 197.236C87.3826 197.216 87.4025 197.192 87.4184 197.166C89.4457 195.334 90.4328 193.503 90.4474 191.576C90.448 191.508 90.4353 191.442 90.4102 191.379C90.385 191.317 90.3478 191.26 90.3007 191.211C90.2536 191.163 90.1975 191.124 90.1356 191.098C90.0738 191.071 90.0073 191.056 89.9401 191.055C89.8729 191.054 89.8062 191.066 89.7439 191.09C89.6815 191.115 89.6248 191.151 89.5768 191.198C89.5288 191.244 89.4906 191.3 89.4643 191.361C89.438 191.423 89.4242 191.489 89.4236 191.556C89.406 193.169 88.5453 194.755 86.7635 196.374C84.8348 197.531 83.0109 197.641 81.5809 196.694C82.7319 195.433 83.4565 193.865 83.4222 192.561C83.4319 192.268 83.3822 191.976 83.2761 191.702C83.1699 191.428 83.0095 191.178 82.8045 190.967C82.5995 190.756 82.3542 190.587 82.0833 190.473C81.8124 190.358 81.5216 190.299 81.2285 190.299C80.6873 190.27 80.1532 190.418 79.7071 190.72C79.2609 191.023 78.927 191.463 78.7558 191.974C78.2556 193.419 78.8449 195.37 80.0796 196.724C79.3277 197.383 78.3979 197.808 77.4031 197.948L77.339 197.96C76.7859 198.101 76.2091 198.129 75.6425 198.044C75.0759 197.959 74.531 197.761 74.0398 197.463C75.1393 195.793 75.5759 193.763 75.1622 192.272C74.7486 190.78 73.5664 190.089 71.9726 190.34C71.5802 190.4 71.2137 190.569 70.9148 190.828C70.616 191.087 70.3966 191.425 70.2818 191.804C69.7986 193.276 70.5179 195.503 72.0232 197.125C72.2031 197.318 72.3938 197.501 72.5945 197.673C72.0192 198.346 71.2882 198.869 70.4635 199.197C68.7211 199.785 66.8301 199.795 65.0698 199.227C65.5123 198.503 65.7905 197.691 65.8851 196.846C65.9798 196.001 65.8885 195.144 65.6177 194.334C64.9616 192.565 63.4086 191.701 61.7525 192.185C60.2234 192.669 59.6074 194.116 60.1687 195.878C60.7551 197.517 61.94 198.879 63.4844 199.69C62.6863 200.597 61.6895 201.308 60.5699 201.769C59.4749 202.22 58.2586 202.298 57.1072 201.992C57.8813 199.928 57.3612 197.337 55.923 196.097C55.4807 195.717 54.9295 195.487 54.3501 195.441C53.7707 195.394 53.1936 195.535 52.7033 195.841C51.3853 196.536 51.0069 197.805 51.7085 199.233C52.3434 200.526 53.8391 201.84 55.6382 202.58C54.8472 203.653 53.5207 204.216 51.8042 204.19C49.5953 203.888 48.598 202.675 47.63 201.507C46.5228 200.162 45.3791 198.772 42.6451 199.881C42.52 199.932 42.4204 200.03 42.3685 200.154C42.3165 200.278 42.3163 200.419 42.3679 200.544C42.4079 200.612 42.4613 200.67 42.5248 200.716ZM56.1426 201.663C54.5344 201.031 53.1838 199.879 52.6377 198.768C52.1811 197.845 52.3759 197.152 53.2097 196.713C53.5162 196.501 53.8863 196.398 54.2605 196.422C54.6347 196.446 54.9912 196.595 55.2728 196.845C56.2574 197.675 56.821 199.784 56.176 201.592C56.1597 201.613 56.1483 201.637 56.1426 201.663ZM64.0882 198.87C62.7144 198.21 61.6462 197.045 61.1095 195.622C60.9673 195.169 60.6027 193.66 62.0265 193.213C63.3822 192.815 64.2503 193.759 64.6172 194.733C64.8441 195.421 64.9144 196.15 64.8228 196.866C64.7313 197.582 64.4803 198.267 64.0882 198.87ZM73.6496 191.654C73.9098 191.889 74.093 192.196 74.1749 192.535C74.458 193.664 74.1309 195.381 73.1728 196.852C73.008 196.713 72.8511 196.581 72.7472 196.433C71.5314 195.129 70.8636 193.231 71.2242 192.127C71.2808 191.922 71.3962 191.739 71.5563 191.6C71.7163 191.461 71.914 191.373 72.125 191.345C72.3849 191.279 72.6569 191.273 72.9209 191.326C73.1848 191.38 73.4339 191.492 73.6496 191.654ZM82.0216 191.619C82.1528 191.746 82.2547 191.9 82.3201 192.07C82.3855 192.24 82.4129 192.421 82.4003 192.602C82.4232 193.578 81.7837 194.926 80.7905 196.048C79.7113 194.892 79.3684 193.301 79.6982 192.337C79.797 192.024 80.0001 191.756 80.2738 191.576C80.5475 191.396 80.8755 191.315 81.2035 191.347C81.4972 191.35 81.7836 191.445 82.0216 191.619Z" fill="#553597"/>
<path d="M66.9584 23.1375C54.3975 23.1375 44.2031 33.3318 44.2031 45.8927C44.2031 58.4536 54.3975 68.648 66.9584 68.648C79.5193 68.648 89.7137 58.4536 89.7137 45.8927C89.7137 33.3318 79.5193 23.1375 66.9584 23.1375ZM66.9584 64.0969C56.9233 64.0969 48.7542 55.9278 48.7542 45.8927C48.7542 35.8576 56.9233 27.6885 66.9584 27.6885C76.9935 27.6885 85.1626 35.8576 85.1626 45.8927C85.1626 55.9278 76.9935 64.0969 66.9584 64.0969ZM77.4031 35.8349L62.4073 50.8306L56.5137 44.9598L53.3052 48.1683L62.4073 57.2704L80.6116 39.0661L77.4031 35.8349Z" fill="#6F46BE"/>
</g>
<path d="M280.821 89.877L283.374 92.4998L282.811 93.0783L280.258 90.4555L280.821 89.877Z" fill="#553597"/>
<path d="M277.078 86.0315L279.631 88.6543L279.068 89.2329L276.514 86.6101L277.078 86.0315Z" fill="#553597"/>
<path d="M282.813 86.0311L283.376 86.6096L280.823 89.2324L280.259 88.6538L282.813 86.0311Z" fill="#553597"/>
<path d="M279.069 89.8765L279.632 90.4551L277.079 93.0779L276.516 92.4993L279.069 89.8765Z" fill="#553597"/>
<path d="M10.6628 186.576L13.216 189.199L12.6528 189.777L10.0996 187.155L10.6628 186.576Z" fill="#553597"/>
<path d="M6.91911 182.73L9.47235 185.353L8.90914 185.932L6.35589 183.309L6.91911 182.73Z" fill="#553597"/>
<path d="M12.6543 182.73L13.2175 183.308L10.6642 185.931L10.101 185.352L12.6543 182.73Z" fill="#553597"/>
<path d="M8.91072 186.575L9.47394 187.153L6.9207 189.776L6.35749 189.198L8.91072 186.575Z" fill="#553597"/>
<path d="M13.4392 105.868L14.5589 110.712C14.7717 111.633 14.1969 112.578 13.2881 112.801L8.50735 113.975L13.4392 105.868Z" fill="white"/>
<path d="M13.5151 93.1075L35.2341 87.7228C36.9005 87.3156 38.6021 88.3782 38.9954 90.0716L49.3492 133.992C49.7425 135.686 48.6908 137.421 47.0243 137.828L16.5384 145.355C14.872 145.762 13.1705 144.7 12.7772 143.006L4.56494 107.977L13.5151 93.1075Z" fill="white"/>
<path d="M16.6074 146.081L47.185 138.474C48.2024 138.223 49.0625 137.623 49.6198 136.709C50.1772 135.796 50.3204 134.751 50.0833 133.722L39.9 89.8703C39.6629 88.8415 39.0794 87.9757 38.1833 87.4198C37.2873 86.8639 36.2579 86.7291 35.2405 86.9796L13.456 92.4214C13.238 92.4751 13.1096 92.5844 12.9982 92.7671L3.84059 107.68C3.72912 107.862 3.69032 108.027 3.74113 108.248L11.9478 143.19C12.1849 144.219 12.7685 145.085 13.6645 145.641C14.5606 146.196 15.59 146.331 16.6074 146.081ZM35.5792 88.4493C36.2332 88.2883 36.8654 88.3656 37.403 88.6991C37.9407 89.0326 38.2942 89.5668 38.4466 90.2282L48.6299 134.08C48.7823 134.741 48.6998 135.383 48.3653 135.931C48.0309 136.479 47.5004 136.843 46.8463 137.004L16.2687 144.611C15.6146 144.772 14.9825 144.695 14.4448 144.361C13.9072 144.028 13.5537 143.494 13.4013 142.832L5.33497 108.166L14.0128 93.8374L35.5792 88.4493Z" fill="#553597"/>
<path d="M13.5882 114.77L35.5522 109.335C35.986 109.229 36.191 108.796 36.1067 108.434C36.0056 107.999 35.649 107.78 35.2151 107.886L13.2512 113.321C12.8173 113.427 12.6124 113.86 12.6966 114.222C12.7809 114.584 13.2267 114.858 13.5882 114.77Z" fill="#553597"/>
<path d="M15.1051 121.259L37.069 115.824C37.5028 115.718 37.7078 115.285 37.6235 114.923C37.5224 114.489 37.1658 114.269 36.732 114.375L14.768 119.81C14.3342 119.916 14.1292 120.349 14.2135 120.711C14.3701 121.056 14.7435 121.348 15.1051 121.259Z" fill="#553597"/>
<path d="M16.6751 127.657L38.639 122.222C39.0728 122.116 39.2778 121.683 39.1935 121.321C39.0924 120.886 38.7358 120.667 38.302 120.773L16.338 126.208C15.9042 126.314 15.6992 126.747 15.7835 127.109C15.8846 127.544 16.2412 127.763 16.6751 127.657Z" fill="#553597"/>
<path d="M24.7697 132.548L40.1724 128.786C40.6063 128.68 40.8113 128.247 40.727 127.884C40.6259 127.449 40.2692 127.229 39.8353 127.335L24.4326 131.097C23.9988 131.203 23.7938 131.636 23.8781 131.999C23.9623 132.362 24.4082 132.636 24.7697 132.548Z" fill="#553597"/>
<path d="M4.68021 108.748L13.4428 106.607C14.4566 106.359 15.3126 105.761 15.8659 104.848C16.4191 103.935 16.559 102.89 16.3197 101.859L14.2516 92.954C14.1833 92.6597 13.9701 92.4007 13.6633 92.3978C13.3394 92.3214 13.0669 92.4658 12.9009 92.7397L3.88273 107.621C3.71675 107.894 3.7127 108.207 3.9259 108.466C4.12201 108.651 4.39054 108.819 4.68021 108.748ZM13.2688 94.983L14.9267 102.122C15.0805 102.784 15 103.426 14.6681 103.974C14.3361 104.522 13.808 104.884 13.1563 105.043L6.13174 106.76L13.2688 94.983Z" fill="#553597"/>
<path d="M30.3716 105.816C27.6244 106.533 24.8267 104.845 24.1228 102.046C23.4188 99.2465 25.0752 96.3956 27.8223 95.6782C30.5695 94.9609 33.3672 96.6488 34.0711 99.4482C34.7751 102.248 33.1187 105.098 30.3716 105.816Z" fill="white" stroke="#553597" stroke-width="1.9273" stroke-miterlimit="15.11"/>
<mask id="mask2_249_5064" style="mask-type:luminance" maskUnits="userSpaceOnUse" x="24" y="95" width="10" height="11">
<path d="M24.5245 97.8776L31.8568 95.9343L33.6891 103.33L26.3569 105.273L24.5245 97.8776Z" fill="white"/>
</mask>
<g mask="url(#mask2_249_5064)">
<path d="M26.1821 100.295L27.842 99.8536L27.4299 98.1836L29.4567 97.6443L29.8688 99.3143L31.5287 98.8726L32.0317 100.911L30.3718 101.353L30.7839 103.023L28.7571 103.562L28.345 101.892L26.6851 102.334L26.1821 100.295Z" fill="#553597" stroke="#553597" stroke-width="0.247234" stroke-miterlimit="11.34"/>
</g>
<mask id="mask3_249_5064" style="mask-type:luminance" maskUnits="userSpaceOnUse" x="217" y="127" width="94" height="93">
<path d="M251.936 127.473L310.488 177.796L275.746 219.794L217.194 169.471L251.936 127.473Z" fill="white"/>
</mask>
<g mask="url(#mask3_249_5064)">
<path d="M231.827 165.026C231.899 165.089 231.986 165.13 232.079 165.145C232.172 165.16 232.267 165.149 232.353 165.114C234.391 164.276 235.052 165.101 236.161 166.467C237.157 167.701 238.397 169.233 241.032 169.591L241.09 169.601C243.853 169.65 245.245 168.439 245.967 167.282C247.402 167.722 248.937 167.647 250.311 167.068C251.662 166.505 252.849 165.606 253.765 164.453C255.812 165.209 258.04 165.24 260.087 164.539C261.111 164.127 262.016 163.463 262.722 162.606C263.334 162.996 264.015 163.258 264.725 163.377C265.434 163.496 266.159 163.469 266.854 163.298C268.087 163.12 269.236 162.578 270.161 161.739C271.959 163.068 274.316 163.005 276.668 161.552C276.691 161.532 276.711 161.508 276.727 161.481C278.752 159.618 279.736 157.754 279.748 155.789C279.748 155.721 279.735 155.653 279.71 155.589C279.685 155.526 279.647 155.468 279.6 155.418C279.553 155.369 279.497 155.329 279.435 155.302C279.373 155.274 279.307 155.259 279.239 155.258C279.172 155.257 279.105 155.269 279.043 155.294C278.981 155.318 278.924 155.356 278.876 155.403C278.828 155.45 278.79 155.507 278.764 155.569C278.738 155.632 278.724 155.699 278.723 155.768C278.709 157.411 277.85 159.026 276.07 160.673C274.143 161.849 272.319 161.958 270.887 160.991C272.036 159.707 272.759 158.111 272.722 156.782C272.731 156.484 272.681 156.186 272.575 155.907C272.468 155.628 272.307 155.372 272.102 155.157C271.896 154.941 271.651 154.769 271.38 154.652C271.108 154.535 270.818 154.474 270.524 154.474C269.983 154.443 269.449 154.593 269.003 154.901C268.557 155.208 268.224 155.656 268.054 156.176C267.556 157.648 268.148 159.638 269.385 161.019C268.634 161.689 267.705 162.121 266.71 162.262L266.646 162.274C266.093 162.416 265.516 162.445 264.949 162.357C264.382 162.269 263.837 162.067 263.345 161.763C264.442 160.062 264.876 157.995 264.46 156.474C264.043 154.954 262.86 154.247 261.266 154.5C260.874 154.561 260.507 154.733 260.209 154.996C259.91 155.259 259.691 155.603 259.577 155.989C259.096 157.489 259.819 159.76 261.327 161.414C261.508 161.612 261.699 161.798 261.9 161.974C261.325 162.659 260.595 163.191 259.771 163.524C258.029 164.119 256.137 164.126 254.376 163.545C254.817 162.809 255.094 161.981 255.187 161.12C255.281 160.26 255.188 159.386 254.916 158.56C254.257 156.757 252.702 155.873 251.046 156.364C249.517 156.855 248.904 158.328 249.468 160.124C250.057 161.795 251.244 163.185 252.791 164.014C251.994 164.937 250.998 165.66 249.879 166.129C248.784 166.586 247.568 166.663 246.415 166.35C247.186 164.247 246.662 161.606 245.221 160.341C244.778 159.953 244.227 159.718 243.647 159.67C243.067 159.621 242.49 159.763 242.001 160.074C240.683 160.781 240.307 162.073 241.011 163.53C241.648 164.848 243.146 166.19 244.947 166.946C244.157 168.039 242.831 168.61 241.114 168.581C238.905 168.27 237.905 167.032 236.935 165.84C235.825 164.468 234.679 163.05 231.946 164.176C231.821 164.227 231.722 164.326 231.67 164.453C231.618 164.58 231.618 164.723 231.67 164.851C231.71 164.919 231.764 164.979 231.827 165.026ZM245.45 166.013C243.84 165.367 242.488 164.191 241.94 163.057C241.481 162.116 241.675 161.41 242.508 160.964C242.815 160.748 243.185 160.645 243.559 160.67C243.933 160.695 244.29 160.847 244.572 161.102C245.558 161.949 246.126 164.1 245.483 165.941C245.467 165.962 245.456 165.987 245.45 166.013ZM253.393 163.18C252.018 162.505 250.948 161.316 250.409 159.865C250.266 159.404 249.898 157.865 251.322 157.412C252.677 157.008 253.547 157.972 253.916 158.965C254.144 159.667 254.215 160.41 254.125 161.139C254.034 161.868 253.784 162.566 253.393 163.18ZM262.946 155.842C263.206 156.082 263.39 156.395 263.472 156.741C263.757 157.892 263.433 159.641 262.477 161.138C262.312 160.996 262.155 160.861 262.051 160.711C260.832 159.38 260.161 157.444 260.52 156.32C260.577 156.112 260.692 155.925 260.852 155.784C261.011 155.643 261.209 155.553 261.42 155.525C261.68 155.458 261.952 155.452 262.216 155.507C262.48 155.562 262.73 155.676 262.946 155.842ZM271.32 155.82C271.451 155.949 271.553 156.106 271.619 156.28C271.685 156.453 271.712 156.638 271.7 156.823C271.724 157.817 271.087 159.189 270.095 160.331C269.014 159.151 268.668 157.53 268.997 156.548C269.095 156.229 269.298 155.956 269.571 155.773C269.845 155.59 270.173 155.509 270.501 155.542C270.795 155.545 271.081 155.642 271.32 155.82Z" fill="#553597"/>
<path d="M272.208 149.349C271.427 148.678 271.195 147.649 271.689 147.052C272.183 146.454 273.217 146.514 273.998 147.185C274.779 147.856 275.011 148.884 274.517 149.482C274.022 150.08 272.989 150.02 272.208 149.349Z" fill="#553597"/>
<path d="M222.961 172.387C223.294 171.386 224.618 170.948 225.918 171.41C227.219 171.871 228.004 173.056 227.671 174.057C227.339 175.059 226.015 175.496 224.714 175.035C223.413 174.574 222.628 173.388 222.961 172.387Z" fill="#EDE3FF"/>
<path d="M243.997 138.083C244.234 137.371 245.174 137.06 246.097 137.387C247.02 137.715 247.577 138.557 247.341 139.269C247.104 139.98 246.164 140.292 245.241 139.964C244.318 139.637 243.761 138.795 243.997 138.083Z" fill="#EDE3FF"/>
<path d="M244.21 139.953C244.465 140.173 244.758 140.342 245.074 140.452C245.6 140.65 246.173 140.668 246.705 140.503C246.962 140.428 247.197 140.292 247.391 140.107C247.585 139.921 247.733 139.692 247.823 139.436C248.151 138.454 247.447 137.315 246.257 136.894C245.731 136.696 245.158 136.678 244.625 136.843C244.368 136.918 244.133 137.053 243.939 137.238C243.745 137.424 243.597 137.654 243.508 137.91C243.408 138.28 243.423 138.673 243.548 139.038C243.673 139.403 243.904 139.722 244.21 139.953ZM246.482 138.189C246.625 138.287 246.737 138.425 246.803 138.587C246.869 138.749 246.887 138.926 246.854 139.096C246.812 139.198 246.748 139.288 246.667 139.36C246.585 139.431 246.489 139.483 246.384 139.51C246.061 139.604 245.717 139.592 245.399 139.475C244.755 139.246 244.331 138.685 244.477 138.249C244.519 138.148 244.584 138.057 244.666 137.985C244.748 137.913 244.845 137.86 244.95 137.832C245.272 137.739 245.616 137.753 245.932 137.871C246.133 137.942 246.319 138.049 246.482 138.189Z" fill="#553597"/>
<path d="M251.779 147.748C251.66 146.875 252.995 145.983 254.76 145.756C256.526 145.53 258.053 146.055 258.172 146.928C258.291 147.802 256.956 148.694 255.191 148.92C253.425 149.147 251.898 148.622 251.779 147.748Z" fill="#EDE3FF"/>
<path d="M251.813 148.744C252.504 149.339 253.779 149.617 255.271 149.439C257.381 149.171 258.851 148.061 258.685 146.871C258.52 145.682 256.811 144.977 254.698 145.249C253.84 145.341 253.015 145.624 252.283 146.08C251.548 146.57 251.2 147.177 251.276 147.817C251.334 148.182 251.526 148.513 251.813 148.744ZM257.506 146.737C257.594 146.801 257.657 146.896 257.683 147.003C257.739 147.43 256.741 148.222 255.155 148.433C253.569 148.645 252.377 148.135 252.317 147.711C252.292 147.507 252.518 147.208 252.881 146.973C253.485 146.606 254.162 146.378 254.865 146.305C256.109 146.11 257.106 146.392 257.495 146.726L257.506 146.737Z" fill="#553597"/>
<path d="M238.881 175.613C239.256 174.958 240.648 175.079 241.989 175.884C243.33 176.69 244.113 177.874 243.738 178.529C243.363 179.185 241.971 179.063 240.63 178.258C239.288 177.452 238.505 176.268 238.881 175.613Z" fill="#EDE3FF"/>
</g>
<defs>
<clipPath id="clip0_249_5064">
<rect width="238.204" height="236.267" fill="white" transform="matrix(-1 0 0 1 264.01 0.866211)"/>
</clipPath>
</defs>
</svg>
