<svg width="311" height="237" viewBox="0 0 311 237" fill="none" xmlns="http://www.w3.org/2000/svg">
<g clip-path="url(#clip0_2120_38505)">
<mask id="mask0_2120_38505" style="mask-type:luminance" maskUnits="userSpaceOnUse" x="25" y="0" width="240" height="237">
<path d="M25.8057 0H264.01V236.267H25.8057V0Z" fill="white"/>
</mask>
<g mask="url(#mask0_2120_38505)">
<path d="M111.635 27.9706C126.091 5.36631 179.53 -8.26927 200.941 5.88669C222.352 20.0427 212.463 52.1323 226.042 60.4564C239.621 68.7934 270.84 96.5447 262.665 129.608C251.143 176.264 263.227 197.827 245.794 213.229C220.692 235.408 192.712 217.198 158.544 226.782C124.39 236.366 72.6107 244.374 51.1303 220.415C35.0817 202.507 41.4466 178.618 30.9671 155.016C18.2117 126.266 29.3205 97.9415 61.8294 92.5333C94.3382 87.1251 98.0539 49.2164 111.635 27.9687V27.9706Z" fill="#EDE3FF"/>
</g>
<mask id="mask1_2120_38505" style="mask-type:luminance" maskUnits="userSpaceOnUse" x="36" y="4" width="222" height="214">
<path d="M36.5995 4.5647H257.789V217.096H36.5995V4.5647Z" fill="white"/>
</mask>
<g mask="url(#mask1_2120_38505)">
<path d="M104.623 179.85C104.623 179.85 92.9415 179.275 78.0364 169.151C63.1313 159.026 49.4172 134.308 49.4172 134.308L42.2619 121.503L37.4923 117.93C37.4923 117.93 36.0012 115.249 38.6852 117.037C41.3691 118.824 42.5601 120.015 43.4547 119.42C44.3494 118.824 38.9834 112.868 38.9834 112.868C38.9834 112.868 37.4923 110.486 39.5798 111.081C40.2165 110.299 39.878 108.996 41.3691 110.188C42.8601 111.38 48.8226 117.334 48.8226 117.334C48.8226 117.334 47.9279 111.081 49.419 110.783C49.419 110.783 51.2082 114.356 52.3993 120.015C55.3796 124.183 65.517 136.99 71.1793 139.968C76.8417 142.946 80.1221 142.648 84.5934 139.968C89.0648 137.288 90.854 134.905 90.854 134.905C90.854 134.905 97.4129 141.754 98.6057 145.327C99.7986 148.9 103.972 159.026 104.27 164.982C104.568 170.938 104.623 179.852 104.623 179.852V179.85Z" fill="#EDE3FF"/>
<path d="M196.686 171.831C196.106 175.11 185.954 185.828 176.415 189.401C167.174 191.784 160.615 193.57 147.497 189.401C134.379 185.233 119.176 167.96 119.176 167.96L112.617 161.409L105.76 153.665C105.76 153.665 89.6621 131.927 86.0854 130.734L80.123 132.819C80.123 132.819 77.4409 133.117 79.5266 131.629C81.6122 130.141 84.8926 128.949 84.8926 128.949L76.248 129.841C76.248 129.841 72.3731 128.651 76.5463 127.756C76.5463 127.161 74.4588 126.566 77.1427 125.076C80.7194 124.481 86.3836 123.885 86.3836 123.885L80.4212 119.717C80.4212 119.717 78.3337 117.632 81.6141 118.824C84.8944 120.016 88.4711 121.505 88.4711 121.505C88.4711 121.505 86.6818 117.634 88.4711 116.441C89.3657 117.037 91.4514 120.907 91.7496 123.29C93.8371 124.778 107.848 132.819 109.637 134.309C111.426 135.799 122.158 143.243 127.524 145.626C132.89 148.009 137.361 149.199 140.642 148.902C143.922 148.604 149.857 148.88 153.597 140.851C159.124 140.565 170.154 140.862 178.204 146.818C186.254 152.774 196.091 166.474 196.688 171.833L196.686 171.831Z" fill="#EDE3FF"/>
<path d="M120.666 100.062C124.541 101.849 129.012 104.528 137.361 101.849C145.709 99.1705 151.371 89.0443 151.371 89.0443C151.371 89.0443 141.541 89.2889 139.446 90.5323L133.782 72.962C133.782 72.962 138.253 70.8769 135.571 67.3036C132.889 63.7304 130.504 67.3036 129.907 69.0912C129.311 70.8787 125.734 68.4959 122.454 63.7304C119.173 58.9649 118.28 53.606 118.28 53.606C118.28 53.606 113.511 59.5619 112.318 64.6251C110.529 66.4126 110.827 65.8155 109.04 65.8155C107.252 65.8155 107.609 67.9153 108.443 68.4959C109.277 69.0766 111.125 68.1983 111.125 68.1983C111.125 68.1983 110.231 75.0471 112.318 77.1323C114.406 79.2174 115.895 80.4079 120.366 79.8127C124.837 79.2174 123.048 87.8538 123.048 87.8538L124.837 95.2979L120.664 100.063L120.666 100.062Z" fill="#EDE3FF"/>
<path d="M98.1283 143.895C98.1283 143.895 102.62 153.868 103.897 164.102C105.174 174.349 104.625 179.85 104.625 179.85C104.625 179.85 114.389 181.017 118.385 179.644C118.385 179.644 113.18 167.517 112.658 161.426L107.825 156.419L98.1301 143.894L98.1283 143.895Z" fill="white"/>
<path d="M120.733 99.6122C121.102 100.092 121.576 100.481 122.119 100.752C125.071 102.041 128.737 103.193 132.006 103.056C136.483 102.877 139.985 100.764 143.556 98.1442C145.451 96.7584 147.127 95.3451 148.554 93.4937C149.507 92.2923 150.237 90.932 150.709 89.4731C154.473 89.349 159.017 89.3636 164.14 89.7068C178.698 90.6673 199.433 104.385 205.614 128.667C211.794 152.949 198.266 170.096 198.266 170.096C197.236 164.885 192.704 155.555 182.267 147.735C171.83 139.915 153.593 140.848 153.593 140.848C150.049 149.599 142.36 149.051 135.164 148.639C127.968 148.226 110.513 134.921 110.513 134.921L97.399 126.62C99.8286 122.383 115.306 105.481 120.731 99.6104L120.733 99.6122Z" fill="white"/>
<path d="M116.887 66.2494C115.209 66.0343 113.927 65.2567 114.023 64.5126C114.119 63.7685 115.556 63.3396 117.234 63.5547C118.911 63.7697 120.194 64.5473 120.098 65.2915C120.002 66.0356 118.565 66.4645 116.887 66.2494Z" fill="white"/>
<path d="M118.975 71.0503L115.157 74.9595C115.157 74.9595 117.381 76.1262 118.933 74.5487C120.484 72.9711 118.973 71.0503 118.973 71.0503H118.975Z" fill="white"/>
<path d="M116.902 75.783C117.778 75.8031 118.621 75.4599 119.236 74.8372C120.665 73.3839 119.895 71.558 119.304 70.7911C119.234 70.6944 119.121 70.6378 119.002 70.6396C118.883 70.6304 118.766 70.6761 118.685 70.7637L114.867 74.6729C114.77 74.7642 114.728 74.8993 114.757 75.0308C114.783 75.1586 114.863 75.27 114.977 75.3321C115.575 75.626 116.232 75.7812 116.9 75.783H116.902ZM118.907 71.7077C119.209 72.2847 119.538 73.34 118.645 74.2603C118.096 74.8135 117.313 75.0673 116.545 74.945C116.322 74.9176 116.1 74.8719 115.886 74.808L118.907 71.7077Z" fill="#553597"/>
<path d="M99.8715 137.956C97.8083 137.956 96.1356 136.267 96.1356 134.183C96.1356 132.1 97.8083 130.411 99.8715 130.411C101.935 130.411 103.607 132.1 103.607 134.183C103.607 136.267 101.935 137.956 99.8715 137.956Z" fill="white"/>
<path d="M99.8727 135.102C99.3645 135.102 98.9525 134.691 98.9525 134.184C98.9525 133.676 99.3645 133.265 99.8727 133.265C100.381 133.265 100.793 133.676 100.793 134.184C100.793 134.691 100.381 135.102 99.8727 135.102Z" fill="#553597"/>
<path d="M99.8712 135.512C100.607 135.512 101.203 134.917 101.203 134.181C101.203 133.446 100.607 132.85 99.8712 132.85C99.1358 132.85 98.5393 133.446 98.5393 134.181C98.5448 134.915 99.1376 135.507 99.8712 135.512ZM99.8712 133.661C100.149 133.665 100.374 133.889 100.38 134.167C100.38 134.446 100.153 134.673 99.8731 134.673C99.5931 134.673 99.3645 134.446 99.3645 134.165C99.3645 133.884 99.5913 133.657 99.8731 133.657L99.8712 133.661Z" fill="#553597"/>
<path d="M99.8169 133.606C100.047 133.599 100.23 133.411 100.229 133.181L100.174 131.713C100.17 131.49 99.987 131.311 99.7638 131.315C99.7583 131.315 99.7528 131.315 99.7492 131.315C99.5241 131.328 99.3485 131.516 99.3503 131.74L99.4052 133.208C99.4162 133.429 99.5973 133.603 99.8169 133.606Z" fill="#553597"/>
<path d="M141.305 205.999C141.395 205.999 141.481 205.969 141.552 205.916C147.033 201.587 152.273 196.962 157.249 192.062C157.416 191.91 157.429 191.653 157.277 191.487C157.125 191.32 156.867 191.308 156.7 191.459C156.697 191.463 156.691 191.468 156.688 191.472C151.731 196.351 146.515 200.957 141.06 205.272C140.882 205.412 140.851 205.67 140.99 205.849C141.065 205.946 141.182 206.002 141.307 206L141.305 205.999Z" fill="#553597"/>
<path d="M206.534 133.537C222.312 111.835 232.859 93.6985 227.971 90.16C218.523 83.3276 196.81 109.969 196.81 109.969C196.81 109.969 202.372 118.474 203.402 121.066C204.597 124.044 206.532 133.537 206.532 133.537H206.534Z" fill="#553597"/>
<path d="M206.536 133.95C206.666 133.953 206.79 133.891 206.865 133.785C214.213 123.688 219.884 115.101 223.715 108.284C228.04 100.588 229.99 95.1409 229.511 92.1374C229.41 91.2226 228.938 90.39 228.207 89.8331C225.927 88.1862 222.811 88.241 218.936 89.9975C215.929 91.3687 212.442 93.7971 208.568 97.1859C202.004 102.948 196.539 109.642 196.484 109.697C196.373 109.834 196.362 110.027 196.457 110.177C196.512 110.259 202.004 118.682 203.021 121.207C204.189 124.128 206.111 133.512 206.124 133.608C206.15 133.771 206.278 133.899 206.441 133.924C206.468 133.944 206.503 133.953 206.536 133.952V133.95ZM224.333 89.4607C225.548 89.4296 226.737 89.7966 227.725 90.5032C228.276 90.9378 228.627 91.5768 228.701 92.2725C229.292 96.0174 225.954 106.045 206.743 132.549C206.221 130.081 204.78 123.385 203.792 120.917C202.844 118.543 198.27 111.464 197.322 109.996C200.967 105.658 204.913 101.583 209.132 97.8012C213.773 93.7277 219.734 89.4607 224.335 89.4607H224.333Z" fill="#553597"/>
<path d="M119.209 66.5239C118.735 66.6554 118.245 66.7211 117.753 66.7156C117.449 66.7138 117.147 66.6901 116.845 66.6463C116.805 66.6463 116.75 66.6316 116.708 66.6316H116.653C116.626 66.6335 116.597 66.6298 116.571 66.617C116.426 66.5951 116.286 66.5623 116.145 66.5203C114.826 66.219 113.892 65.5872 113.673 64.8752V64.8606C113.662 64.835 113.656 64.8058 113.66 64.7784C113.644 64.6871 113.635 64.5958 113.633 64.5045C113.653 64.1485 113.856 63.8271 114.169 63.6537C114.69 63.2702 115.57 63.0639 116.613 63.0913C116.847 63.0968 117.081 63.115 117.314 63.1461C118.106 63.2337 118.872 63.4802 119.566 63.8728C120.252 64.2836 120.596 64.8058 120.526 65.3408C120.457 65.8757 119.976 66.2866 119.207 66.5203L119.209 66.5239ZM119.127 64.5903C118.549 64.269 117.916 64.0645 117.259 63.986C117.453 64.6013 117.453 65.2622 117.259 65.8794C117.839 65.936 118.424 65.8903 118.988 65.7424C119.399 65.6183 119.674 65.4266 119.703 65.2476C119.718 65.0687 119.496 64.8094 119.127 64.5885V64.5903Z" fill="#553597"/>
<path d="M131.774 69.8854L133.408 68.1289C133.236 67.9627 133.036 67.8295 132.817 67.7309C132.605 67.6505 132.5 67.4132 132.581 67.2032C132.581 67.2014 132.583 67.1977 132.584 67.1959C132.672 66.9859 132.908 66.8837 133.12 66.9622C133.889 67.2634 135.248 68.4156 134.809 70.5829C134.774 70.7746 134.606 70.9152 134.41 70.9115C134.387 70.9152 134.363 70.9115 134.343 70.8969C134.121 70.8586 133.973 70.6486 134.011 70.4258C134.011 70.4222 134.011 70.4185 134.013 70.4167C134.143 69.8817 134.101 69.3194 133.889 68.8118L132.378 70.4313C132.303 70.5208 132.191 70.5701 132.076 70.5683C131.973 70.5646 131.876 70.5263 131.801 70.4587C131.635 70.3145 131.617 70.0625 131.761 69.8982C131.765 69.8945 131.768 69.889 131.772 69.8854H131.774Z" fill="#553597"/>
<path d="M120.06 53.3541C120.241 53.3559 120.404 53.2391 120.459 53.0656C122.272 46.9599 132.077 46.3702 132.174 46.3574C132.4 46.3428 132.572 46.1456 132.558 45.9192C132.543 45.6928 132.345 45.5193 132.119 45.5357C130.267 45.6745 128.441 46.0433 126.681 46.6331C122.905 47.9094 120.488 50.0493 119.65 52.8191C119.583 53.0273 119.696 53.2519 119.905 53.3194C119.912 53.3213 119.918 53.3231 119.925 53.3249C119.967 53.3468 120.015 53.3559 120.062 53.3541H120.06Z" fill="#EDE3FF"/>
<path d="M247.692 52.1324C247.872 52.1324 248.029 52.0155 248.076 51.8439C249.643 47.0966 250.288 42.4735 249.999 38.086C249.776 34.6314 248.94 31.2444 247.528 28.0839C245.124 22.7614 241.911 20.0318 241.774 19.9076C241.6 19.7634 241.34 19.7889 241.197 19.9624C241.053 20.1358 241.079 20.3951 241.252 20.5394C241.937 21.1547 242.571 21.8248 243.148 22.5423C244.622 24.3426 245.85 26.331 246.799 28.4545C248.17 31.5183 248.98 34.8031 249.189 38.1535C249.463 42.4206 248.83 46.9323 247.306 51.57C247.233 51.7836 247.348 52.0173 247.562 52.0904C247.562 52.0904 247.566 52.0904 247.568 52.0904C247.595 52.1324 247.65 52.1324 247.69 52.1324H247.692Z" fill="#EDE3FF"/>
<path d="M145.644 76.676H145.754C152.772 76.6213 158.389 73.2324 163.826 69.9678C171.832 65.153 180.1 60.1592 193.406 65.0014C193.607 65.0818 193.836 64.985 193.916 64.7841C193.92 64.775 193.923 64.7641 193.927 64.7531C194.006 64.545 193.9 64.3131 193.691 64.2364C193.687 64.2364 193.684 64.2346 193.68 64.2327C180.015 59.2664 171.57 64.3569 163.4 69.2685C157.811 72.6299 152.538 75.8124 145.754 75.8672H145.659C140.028 75.8672 137.378 72.0128 137.351 71.9854C137.228 71.7918 136.972 71.7352 136.778 71.8576C136.584 71.9799 136.528 72.2355 136.65 72.4291C136.656 72.4364 136.659 72.4437 136.665 72.451C136.773 72.6025 139.561 76.676 145.646 76.676H145.644Z" fill="#EDE3FF"/>
<path d="M44.3359 121.096L47.4662 120.314C47.3583 119.916 47.3308 119.502 47.3839 119.093C47.4131 118.868 47.6181 118.711 47.8431 118.74C48.0681 118.77 48.2255 118.976 48.1962 119.199C48.1962 119.204 48.1962 119.21 48.1944 119.217C48.1322 119.845 48.3023 120.475 48.6755 120.986C49.1421 121.59 49.9251 121.959 50.9972 122.083C51.224 122.113 51.3832 122.321 51.354 122.547C51.3265 122.754 51.1509 122.907 50.9423 122.907H50.9002C49.5958 122.755 48.6206 122.275 48.0169 121.481C47.9218 121.357 47.8394 121.223 47.7699 121.083L44.528 121.892C44.4969 121.903 44.464 121.908 44.431 121.906C44.2426 121.903 44.0798 121.773 44.0322 121.59C43.9791 121.371 44.1145 121.15 44.3341 121.098C44.3341 121.098 44.3341 121.098 44.3359 121.098V121.096Z" fill="#553597"/>
<path d="M36.6745 116.569C36.7642 116.372 36.9343 116.222 37.1411 116.158C37.7722 115.967 38.762 116.597 40.3281 117.639C41.0965 118.145 42.6351 119.175 43.0998 119.147C43.0047 118.654 41.8228 117.226 41.0398 116.266C39.117 113.92 37.8802 112.302 38.129 111.245C38.1766 110.905 38.4089 110.619 38.7328 110.504C38.9633 110.438 39.2084 110.447 39.4335 110.531C39.4115 110.442 39.4024 110.348 39.406 110.257C39.4097 110.051 39.492 109.854 39.6402 109.709C40.6153 108.804 41.8649 110.011 44.1445 112.22C44.611 112.673 45.1324 113.193 45.7106 113.728C46.3143 114.29 47.5639 115.497 48.3743 116.279C47.9206 113.535 48.045 111.656 48.7329 110.805C48.936 110.52 49.2617 110.348 49.6111 110.339C50.16 110.339 50.3667 110.876 51.437 115.045C51.9181 116.911 52.4121 118.859 52.8384 119.874C53.2647 120.917 56.9036 125.883 61.5579 130.862C64.8547 134.388 71.0751 140.452 75.6068 141.439C78.0785 141.976 80.6746 141.604 83.2981 140.315C85.5631 139.217 87.9122 137.406 90.2888 134.95C86.8968 131.26 86.0186 131.136 85.854 131.151C85.263 131.233 84.2879 131.7 83.3402 132.138C81.4174 133.044 79.4122 133.977 78.5743 132.947C78.3969 132.739 78.3401 132.452 78.4225 132.193C78.6566 131.357 80.4551 130.424 82.1584 129.725C80.1678 129.889 77.8059 130.082 77.2424 130.123C76.968 130.15 76.721 130.165 76.4868 130.165C75.5812 130.165 74.9482 129.973 74.6335 129.56C74.403 129.308 74.306 128.961 74.3719 128.627C74.3957 128.556 74.4323 128.49 74.4817 128.435C74.908 128.036 75.4129 127.727 75.9654 127.53C75.7989 127.415 75.6581 127.265 75.5538 127.09C75.3745 126.686 75.4165 126.221 75.6635 125.855C76.5417 124.291 82.2809 123.716 85.0838 123.524C84.4105 123.098 83.5177 122.521 82.6541 121.919C79.1671 119.533 79.0555 119.01 79.2897 118.585C79.4269 118.335 79.6684 118.159 79.9483 118.105C81.0332 117.844 83.6695 118.789 87.8024 120.889C86.9791 118.172 87.1292 116.555 88.2561 116.06C88.4208 115.983 88.6129 115.983 88.7776 116.06C89.1618 116.224 89.793 116.828 91.1816 120.08C91.8 121.548 92.3342 122.974 92.5007 123.427C93.2691 123.853 94.0521 124.305 94.89 124.786C95.673 125.238 96.4707 125.704 97.2391 126.171C98.6131 124.183 100.701 121.548 103.09 118.709C103.105 118.656 103.132 118.609 103.172 118.572C103.255 118.475 103.599 118.092 104.12 117.488C107.058 114.031 110.313 110.381 113.129 107.268C118.498 101.341 123.346 96.2107 124.404 95.1006C124.417 95.086 124.431 95.0586 124.444 95.0458L121.382 82.4783L120.86 80.3786C120.278 80.4717 119.691 80.5173 119.102 80.5155C117.261 80.5247 115.456 80.0207 113.884 79.0621C111.096 77.3349 110.066 73.7945 110.864 68.8281C110.503 69.0144 110.103 69.113 109.696 69.1166C109.557 69.1185 109.42 69.1057 109.285 69.0746C108.555 68.945 107.918 68.5031 107.541 67.8677C107.281 67.32 107.338 66.6736 107.693 66.1806C107.927 65.852 108.503 65.3444 109.684 65.5635C110.637 65.7735 111.603 65.2695 111.978 64.3694C111.978 64.342 111.991 64.3146 111.991 64.2726C113.295 60.3214 115.395 56.3301 117.622 53.531C117.622 52.8591 117.688 52.189 117.814 51.528C118.39 48.634 120.56 45.0261 127.646 44.2976C143.603 42.6506 149.756 33.461 153.806 27.3699C154.108 26.9317 154.397 26.5063 154.672 26.0937C158.722 20.1669 165.493 10.2488 187.451 11.6474C196.557 12.2244 201.335 10.0005 205.977 7.86053C209.08 6.41992 212.02 5.0487 216.016 4.69083C220.478 4.29279 225.628 5.19659 232.232 7.55744C238.703 9.85256 244.437 13.8421 248.837 19.1079C252.849 23.9081 255.577 29.6486 256.761 35.789C257.701 40.5545 257.513 45.4734 256.212 50.1513C254.915 54.7543 252.304 58.8826 248.7 62.0304C242.794 67.1757 235.709 70.015 227.057 70.7143C219.448 71.3314 211.663 70.2761 204.124 69.2463C200.594 68.7661 197.27 68.3132 194.003 68.0248C183.909 67.1611 178.058 70.329 171.853 73.6904C167.293 76.159 162.57 78.7243 155.799 80.0974C153.729 80.5265 151.622 80.7474 149.509 80.7565C144.373 80.7565 140.665 79.3159 138.261 77.8753C136.867 77.061 135.591 76.0586 134.47 74.8973L139.51 89.9881C144.611 89.0277 149.798 88.595 154.988 88.6991C159.902 88.7648 164.794 89.3765 169.573 90.5231C175.217 91.9236 180.243 94.1164 184.515 97.0524C194.045 103.609 201.612 114.159 205.251 125.998C207.162 132.126 207.938 138.551 207.545 144.958C207.111 151.757 205.274 158.394 202.15 164.451C199.005 170.556 195.296 175.782 191.123 179.98C187.433 183.734 183.091 186.787 178.311 188.992C173.298 191.276 167.85 192.456 162.339 192.449C160.524 192.449 158.711 192.324 156.913 192.078L147.149 201.187C147.094 201.244 147.02 201.282 146.942 201.297C146.801 201.315 146.658 201.324 146.516 201.324C145.363 201.324 142.066 200.749 139.278 194.862C137.37 190.829 135.612 190.663 133.592 190.458C132.232 190.321 130.708 190.17 129.045 188.881C126.738 187.097 127.192 184.681 127.562 182.735C127.92 180.829 128.068 179.62 126.751 178.921C123.346 177.124 118.195 174.407 117.755 167.452C116.134 165.86 114.596 164.283 113.169 162.76C113.169 162.829 113.182 162.884 113.182 162.952C113.374 163.761 113.58 164.571 113.785 165.38C114.224 167.054 114.706 168.685 115.242 170.292C115.763 171.8 116.314 173.31 116.822 174.654C119.076 180.462 122.126 185.927 125.886 190.897C130.174 196.537 135.451 201.352 141.459 205.109C141.515 205.135 141.565 205.179 141.596 205.233C141.697 205.301 141.757 205.414 141.761 205.535C141.764 205.673 141.704 205.805 141.596 205.892C132.011 213.342 124.375 217.087 118.785 217.087C116.788 217.142 114.825 216.545 113.196 215.385C112.002 214.494 111.301 213.148 111.123 211.379C110.575 205.838 115.393 196.288 122.851 188.072C121.202 185.598 119.72 183.018 118.416 180.349C116.242 180.619 114.054 180.752 111.864 180.747C107.583 180.734 103.317 180.237 99.1473 179.266C90.4004 177.193 82.0779 173.038 74.4414 166.877C59.9662 155.205 47.5803 132.06 43.5005 124.461C42.8419 123.239 42.3186 122.266 42.196 122.114C41.8942 121.716 41.0288 121.085 40.1086 120.427C37.6771 118.687 36.2501 117.562 36.6745 116.562V116.569ZM88.5031 116.858C87.872 117.268 87.9945 118.97 88.8471 121.426C89.6429 121.837 90.4955 122.304 91.3883 122.797C90.1113 119.436 88.9569 117.201 88.505 116.858H88.5031ZM94.4765 125.501C86.7047 121.002 81.4723 118.587 80.1404 118.917H80.1276C80.7039 119.644 83.8086 121.798 86.5968 123.513C86.7889 123.626 86.8529 123.874 86.7395 124.066C86.7377 124.07 86.7358 124.073 86.734 124.075C86.6773 124.172 86.5821 124.241 86.4724 124.267C86.4413 124.28 86.4083 124.283 86.3754 124.282C86.348 124.282 84.0263 124.391 81.6095 124.707C77.3522 125.269 76.5289 125.996 76.3624 126.27C76.2801 126.407 76.1978 126.599 76.2673 126.723C76.463 126.924 76.7283 127.046 77.0082 127.066C77.0759 127.081 77.14 127.104 77.2003 127.135C80.6344 126.244 85.6326 126.381 85.907 126.394C86.1302 126.398 86.3095 126.58 86.3059 126.803C86.3059 126.809 86.3059 126.814 86.3059 126.818C86.2931 127.042 86.1065 127.218 85.8796 127.216C83.4902 127.146 77.0082 127.313 75.1824 128.903C75.1952 128.949 75.2171 128.992 75.2501 129.027C75.3598 129.151 75.7715 129.438 77.1729 129.301C78.1608 129.191 84.7819 128.684 85.0563 128.656C85.2832 128.642 85.4808 128.813 85.4954 129.04C85.4954 129.131 85.4698 129.221 85.4277 129.301C85.3783 129.381 85.2997 129.44 85.2082 129.465C85.1807 129.465 83.6567 129.971 82.1327 130.632C79.4543 131.784 79.222 132.346 79.2073 132.416C79.6336 132.953 81.6516 132.005 82.9835 131.373C84.0263 130.893 85.0161 130.427 85.7296 130.316C86.4449 130.219 87.8591 130.838 92.5683 136.228C93.7209 135.73 94.7912 135.06 95.7407 134.24V134.171C95.7316 132.257 97.0287 130.583 98.8857 130.11C99.151 129.586 99.3669 129.04 99.5315 128.477C97.8849 127.502 96.1945 126.487 94.4765 125.501ZM96.5494 134.185C96.5494 136.018 98.0368 137.506 99.8736 137.506C101.71 137.506 103.198 136.02 103.198 134.185C103.198 133.884 103.156 133.583 103.075 133.294C103.022 133.217 102.993 133.126 102.993 133.033C102.382 131.309 100.488 130.406 98.7631 131.014C97.4221 131.486 96.5329 132.763 96.5531 134.185H96.5494ZM112.631 113.662C112.479 113.462 112.25 113.332 112 113.304C110.543 113.168 106.273 116.706 103.857 119.04C101.412 121.934 99.3102 124.581 97.9234 126.571C102.922 129.562 107.481 132.483 110.146 134.28C110.604 128.76 111.617 123.301 113.167 117.982C113.29 116.995 113.385 114.594 112.631 113.661V113.662ZM139.754 90.7787L140.138 91.9181C140.211 92.1317 140.098 92.3636 139.884 92.4366C139.882 92.4366 139.88 92.4366 139.878 92.4384C139.841 92.4604 139.798 92.4695 139.755 92.4658C139.578 92.464 139.422 92.3472 139.371 92.1774L132.972 73.0404C132.898 72.8268 133.014 72.5931 133.228 72.52C133.228 72.52 133.231 72.52 133.233 72.52C133.268 72.5091 133.306 72.5036 133.343 72.5054C134.468 72.3265 135.238 71.7641 135.553 70.8731C135.952 69.7885 135.623 68.3078 134.77 67.3474C134.441 66.9767 133.755 66.3742 132.862 66.5787C131.255 66.9365 130.692 68.2804 130.513 69.3357C130.436 69.7885 130.143 70.1775 129.73 70.3783C129.322 70.5828 128.839 70.5718 128.438 70.3509C125.308 68.6492 122.313 65.631 120.24 62.0779C118.784 59.5819 117.918 57.0841 117.686 54.7927C115.6 57.7524 113.957 61.0025 112.81 64.4369C112.81 64.4643 112.797 64.4917 112.797 64.5337C112.32 65.8757 110.926 66.6608 109.528 66.3723C108.965 66.2628 108.568 66.3577 108.346 66.6608C108.18 66.8982 108.149 67.2049 108.264 67.4697C108.524 67.8878 108.948 68.1763 109.431 68.2658C109.995 68.3753 110.556 68.169 111.134 67.676C111.297 67.5281 111.551 67.5391 111.7 67.7034C111.703 67.7089 111.707 67.7125 111.712 67.718C111.764 67.771 111.797 67.8385 111.808 67.9097C111.837 67.9882 111.848 68.0741 111.835 68.1562C110.585 74.5358 112.494 77.2089 114.321 78.3482C119.704 81.6823 125.487 77.7585 125.542 77.7165C125.719 77.5832 125.972 77.6179 126.105 77.7932C126.111 77.7986 126.115 77.8059 126.118 77.8114C126.23 77.963 126.224 78.1729 126.105 78.3172C124.237 81.4705 123.425 85.1368 123.784 88.7849V88.7995L125.308 95.0421V95.0567C125.308 95.0841 125.32 95.0987 125.32 95.1261V95.1535C125.322 95.1809 125.319 95.2101 125.308 95.2357V95.2503C125.289 95.3197 125.256 95.3854 125.211 95.442L125.116 95.5388C123.941 97.0177 122.862 98.5715 121.886 100.191C126.598 102.784 131.279 103.456 135.784 102.152C143.941 99.8058 149.256 91.699 150.519 89.5846C146.905 89.7124 143.307 90.1123 139.752 90.7806L139.754 90.7787ZM151.481 89.5444C150.328 91.5456 148.974 93.4262 147.443 95.1572C145.026 97.9142 141.071 101.509 136.003 102.963C134.45 103.414 132.842 103.644 131.224 103.647C128.012 103.647 124.742 102.742 121.446 100.89C120.979 101.672 120.485 102.537 119.976 103.483C121.768 104.628 123.742 105.459 125.813 105.939C129.232 106.762 134.644 107.118 141.043 104.1C147.059 101.274 150.506 97.35 152.346 94.5528C153.385 92.9972 154.209 91.3082 154.79 89.5317C153.638 89.5171 152.538 89.5171 151.481 89.5463V89.5444ZM201.399 164.076C204.473 158.122 206.279 151.597 206.7 144.912C207.084 138.602 206.315 132.275 204.435 126.241C201.29 116.007 195.179 106.775 187.393 100.286C184.839 104.031 187.104 113.648 183.232 113.195C178.975 112.689 182.971 106.611 180.281 97.529C180.007 96.4992 179.154 95.484 178.825 94.7171C175.804 93.2564 172.637 92.1208 169.377 91.3283C164.873 90.2438 160.264 89.6449 155.63 89.5444C155.03 91.4707 154.156 93.3021 153.034 94.9782C151.153 97.8722 147.582 101.933 141.375 104.854C138.043 106.467 134.393 107.319 130.69 107.35C128.963 107.361 127.241 107.149 125.567 106.719C123.443 106.237 121.416 105.393 119.579 104.223C119.318 104.728 119.043 105.252 118.784 105.787C116.841 109.75 115.242 113.87 114.005 118.107C113.99 118.156 113.981 118.207 113.977 118.258C113.968 118.311 113.948 118.362 113.923 118.41C112.373 123.767 111.374 129.27 110.942 134.83C111.134 134.954 111.314 135.076 111.464 135.188C112.055 135.598 112.741 136.093 113.469 136.614C116.998 139.151 122.34 142.979 128.136 145.613C132.586 147.629 136.664 148.644 140.317 148.644C142.194 148.661 144.058 148.363 145.839 147.766C150.947 146.009 153.762 141.936 154.189 135.666C154.351 132.613 154.035 129.555 153.256 126.599C153.193 126.381 153.32 126.157 153.535 126.095C153.749 126.034 153.973 126.153 154.039 126.365C154.856 129.403 155.18 132.553 154.999 135.693C154.906 137.284 154.611 138.856 154.121 140.371C157.796 140.21 161.481 140.399 165.122 140.934C171 141.784 179.253 143.952 185.296 149.48C193.811 157.273 197.546 166.722 198.452 169.304C199.482 167.642 200.47 165.9 201.405 164.076H201.399ZM127.49 175.271C128.822 176.383 130.251 177.548 131.748 178.714C137.913 183.502 143.572 186.987 148.488 189.085C149.576 189.525 150.691 189.902 151.825 190.21C160.738 192.624 169.787 191.952 177.958 188.249C182.647 186.082 186.904 183.084 190.523 179.401C192.506 177.402 194.328 175.251 195.975 172.967C195.459 170.909 194.733 168.908 193.805 167C192.199 163.556 189.149 158.164 183.724 152.115C178.342 146.106 170.486 143.473 164.855 142.307C161.223 141.554 157.522 141.191 153.814 141.222C153.219 142.758 152.326 144.16 151.19 145.352C154.32 148.617 163.77 148.096 163.109 151.951C162.217 155.875 157.066 153.625 148.072 150.647C145.725 149.888 143.275 149.486 140.807 149.453C140.628 149.453 140.463 149.468 140.286 149.468C136.523 149.468 132.32 148.425 127.789 146.353C121.91 143.678 116.541 139.823 112.984 137.269C112.256 136.749 111.583 136.268 110.993 135.856C109.674 134.95 107.327 133.387 104.429 131.549C104.307 131.906 104.127 132.427 103.866 133.044C103.966 133.415 104.016 133.798 104.016 134.183C104.016 136.341 102.375 138.145 100.225 138.352C99.0632 139.42 97.627 140.141 96.0774 140.437C99.6212 144.799 103.095 149.437 105.073 152.084C108.893 157.231 117.64 166.888 127.487 175.271H127.49ZM110.077 174.599C112.768 172.472 112.631 166.45 112.384 163.461C112.344 163.242 112.314 163.05 112.274 162.844C112.179 162.406 112.067 161.966 111.972 161.54C109.292 158.692 106.762 155.707 104.391 152.595C103.114 150.881 101.218 148.328 99.0632 145.558C100.031 147.686 100.88 149.866 101.604 152.088C103.955 159.431 105.159 167.095 105.176 174.805C107.248 175.599 108.897 175.532 110.077 174.597V174.599ZM38.2406 117.957C38.9925 118.614 39.7811 119.228 40.6025 119.795C41.6051 120.522 42.4705 121.154 42.8547 121.634C43.0193 121.84 43.3761 122.498 44.2415 124.103C48.292 131.662 60.6248 154.695 74.9775 166.258C82.5298 172.337 90.7278 176.45 99.3522 178.481C100.973 178.864 102.607 179.165 104.228 179.399L104.352 176.038C104.468 168.013 103.286 160.021 100.851 152.374C98.7631 145.955 96.4835 142.319 96.4561 142.279C96.4323 142.246 96.414 142.208 96.4012 142.17C95.3017 140.798 94.1893 139.44 93.1044 138.149C92.2537 137.147 91.5109 136.283 90.8394 135.556C89.1654 137.327 87.2737 138.881 85.2082 140.179C88.6824 141.456 93.3514 141.799 92.9251 144.379C92.1421 147.808 87.6378 145.832 79.769 143.24C78.6109 142.858 77.4181 142.582 76.2106 142.416C76.2709 142.416 76.3295 142.411 76.3899 142.402C76.0624 142.36 75.744 142.305 75.4294 142.237C70.9104 141.264 65.0614 135.817 60.9542 131.413C56.3803 126.516 52.5768 121.413 52.0682 120.179C51.6291 119.094 51.1205 117.133 50.6393 115.227C50.2405 113.679 49.7611 111.784 49.4867 111.207C49.4464 111.239 49.4099 111.276 49.3769 111.316C49.0879 111.687 48.4841 113.058 49.4739 117.654C49.5196 117.878 49.3733 118.097 49.1482 118.141C48.9305 118.185 48.7165 118.048 48.6634 117.833C48.6506 117.763 48.636 117.708 48.6213 117.654C48.5847 117.639 48.5518 117.615 48.5262 117.584C48.5134 117.557 46.0545 115.183 45.1489 114.332C44.5726 113.796 44.0365 113.275 43.5682 112.822C42.0021 111.314 40.6574 110.011 40.2183 110.299C40.2183 110.396 40.3006 110.836 41.3032 112.123C42.6333 113.777 44.0512 115.362 45.5477 116.87C45.7069 117.029 45.7069 117.289 45.5477 117.447C45.3886 117.606 45.1306 117.606 44.9714 117.447C44.9678 117.444 44.9623 117.438 44.9586 117.435C42.9406 115.335 41.0306 113.25 40.0701 111.782C40.0061 111.765 39.9457 111.738 39.8908 111.7C39.6164 111.466 39.1627 111.234 39.0127 111.289C38.9998 111.289 38.9724 111.331 38.945 111.426C38.7657 112.18 40.5257 114.32 41.6911 115.747C43.2023 117.586 44.0402 118.656 43.9432 119.343C43.9195 119.533 43.8152 119.702 43.6542 119.808C42.926 120.288 41.7588 119.562 39.8908 118.313C39.1353 117.807 37.8729 116.969 37.4612 116.942C37.4759 117.051 37.5856 117.352 38.2461 117.957H38.2406Z" fill="#553597"/>
<path d="M125.856 190.922C122.101 185.95 119.052 180.486 116.792 174.679C116.285 173.336 115.735 171.826 115.211 170.317C114.69 168.712 114.196 167.08 113.755 165.406C113.548 164.597 113.344 163.786 113.151 162.977C113.151 162.908 113.139 162.84 113.139 162.786C114.567 164.308 116.104 165.873 117.725 167.478C118.164 174.433 123.314 177.15 126.721 178.946C128.04 179.646 127.888 180.853 127.532 182.761C127.16 184.709 126.708 187.123 129.015 188.907C130.676 190.196 132.2 190.347 133.562 190.484C135.58 190.69 137.338 190.855 139.248 194.888C141.665 200.006 144.48 201.103 145.922 201.308C144.341 202.652 142.792 203.915 141.308 205.08C135.353 201.321 130.12 196.526 125.857 190.922H125.856Z" fill="white"/>
</g>
<path d="M216.912 191.627L219.465 194.2L218.902 194.768L216.348 192.194L216.912 191.627Z" fill="#553597"/>
<path d="M213.169 187.852L215.723 190.426L215.159 190.994L212.606 188.42L213.169 187.852Z" fill="#553597"/>
<path d="M218.904 187.852L219.467 188.42L216.914 190.994L216.35 190.426L218.904 187.852Z" fill="#553597"/>
<path d="M215.159 191.626L215.723 192.193L213.169 194.767L212.606 194.199L215.159 191.626Z" fill="#553597"/>
<path d="M92.9344 13.888L96.4922 9.36478L92.9344 4.84155L89.3767 9.36478L92.9344 13.888ZM95.4833 9.36478L92.9344 12.6033L90.3856 9.36478L92.9344 6.12626L95.4833 9.36478Z" fill="#A78ED7"/>
<path d="M171.846 213.428C173.545 213.428 174.926 212.036 174.926 210.323C174.926 208.61 173.545 207.218 171.846 207.218C170.147 207.218 168.766 208.61 168.766 210.323C168.766 212.036 170.147 213.428 171.846 213.428ZM171.846 208.021C173.094 208.021 174.129 209.038 174.129 210.323C174.129 211.581 173.12 212.625 171.846 212.625C170.572 212.625 169.563 211.608 169.563 210.323C169.563 209.065 170.572 208.021 171.846 208.021Z" fill="#553597"/>
<path d="M42.5249 199.85C42.5968 199.911 42.6839 199.951 42.7766 199.966C42.8694 199.981 42.9643 199.97 43.0508 199.935C45.0891 199.109 45.7492 199.919 46.8557 201.257C47.8492 202.466 49.0864 203.968 51.7198 204.315L51.7787 204.325C54.5406 204.369 55.9335 203.178 56.6572 202.041C58.092 202.471 59.6264 202.395 61.001 201.825C62.3523 201.269 63.5405 200.386 64.4582 199.253C66.5028 199.992 68.7311 200.018 70.7781 199.327C71.8026 198.921 72.7084 198.268 73.4151 197.426C74.0264 197.807 74.7069 198.063 75.4164 198.179C76.1258 198.295 76.8499 198.267 77.5457 198.099C78.7781 197.922 79.9281 197.388 80.8537 196.563C82.649 197.865 85.006 197.799 87.3595 196.369C87.3827 196.349 87.4026 196.326 87.4184 196.299C89.4457 194.468 90.4329 192.637 90.4474 190.709C90.448 190.642 90.4354 190.576 90.4102 190.513C90.3851 190.451 90.3479 190.394 90.3008 190.345C90.2537 190.297 90.1976 190.258 90.1357 190.231C90.0738 190.204 90.0074 190.19 89.9402 190.189C89.8729 190.187 89.8063 190.199 89.7439 190.224C89.6816 190.248 89.6248 190.285 89.5769 190.331C89.5289 190.378 89.4907 190.434 89.4644 190.495C89.4381 190.557 89.4243 190.623 89.4237 190.69C89.4061 192.302 88.5454 193.888 86.7635 195.508C84.8348 196.665 83.0109 196.775 81.581 195.828C82.7319 194.567 83.4566 192.999 83.4222 191.694C83.432 191.402 83.3823 191.11 83.2761 190.836C83.17 190.562 83.0095 190.312 82.8046 190.101C82.5996 189.889 82.3542 189.721 82.0834 189.606C81.8125 189.492 81.5217 189.433 81.2285 189.433C80.6873 189.404 80.1533 189.552 79.7071 189.854C79.261 190.156 78.9271 190.596 78.7558 191.108C78.2556 192.553 78.8449 194.504 80.0796 195.858C79.3278 196.517 78.3979 196.942 77.4032 197.082L77.3391 197.094C76.786 197.235 76.2091 197.263 75.6426 197.178C75.076 197.092 74.531 196.895 74.0398 196.597C75.1394 194.927 75.5759 192.897 75.1623 191.406C74.7486 189.914 73.5664 189.223 71.9727 189.473C71.5803 189.534 71.2138 189.703 70.9149 189.962C70.616 190.22 70.3967 190.559 70.2819 190.937C69.7987 192.41 70.5179 194.637 72.0233 196.259C72.2031 196.452 72.3939 196.635 72.5946 196.807C72.0193 197.48 71.2882 198.003 70.4635 198.331C68.7212 198.918 66.8302 198.928 65.0699 198.36C65.5123 197.637 65.7906 196.825 65.8852 195.98C65.9798 195.135 65.8886 194.278 65.6178 193.468C64.9616 191.699 63.4086 190.835 61.7526 191.318C60.2234 191.803 59.6074 193.25 60.1687 195.012C60.7551 196.65 61.94 198.013 63.4845 198.824C62.6863 199.731 61.6895 200.442 60.57 200.903C59.4749 201.354 58.2587 201.432 57.1073 201.126C57.8814 199.061 57.3613 196.471 55.923 195.231C55.4808 194.851 54.9296 194.621 54.3502 194.575C53.7708 194.528 53.1936 194.668 52.7034 194.974C51.3854 195.67 51.007 196.938 51.7085 198.367C52.3434 199.66 53.8392 200.974 55.6382 201.714C54.8472 202.787 53.5208 203.349 51.8043 203.324C49.5954 203.022 48.598 201.809 47.6301 200.641C46.5229 199.295 45.3791 197.906 42.6452 199.015C42.52 199.065 42.4205 199.164 42.3685 199.288C42.3165 199.412 42.3163 199.553 42.368 199.678C42.408 199.746 42.4614 199.804 42.5249 199.85ZM56.1426 200.797C54.5345 200.165 53.1838 199.013 52.6378 197.902C52.1812 196.979 52.376 196.286 53.2097 195.846C53.5163 195.634 53.8864 195.532 54.2606 195.556C54.6348 195.58 54.9913 195.729 55.2729 195.978C56.2574 196.809 56.8211 198.918 56.176 200.726C56.1598 200.747 56.1484 200.771 56.1426 200.797ZM64.0882 198.004C62.7144 197.344 61.6463 196.179 61.1096 194.755C60.9673 194.303 60.6028 192.793 62.0266 192.347C63.3823 191.949 64.2503 192.893 64.6173 193.867C64.8442 194.555 64.9144 195.284 64.8229 196C64.7314 196.716 64.4803 197.401 64.0882 198.004ZM73.6496 190.788C73.9099 191.022 74.0931 191.33 74.1749 191.669C74.458 192.798 74.131 194.515 73.1728 195.986C73.0081 195.847 72.8512 195.714 72.7473 195.567C71.5315 194.263 70.8637 192.365 71.2243 191.26C71.2809 191.056 71.3963 190.873 71.5563 190.734C71.7163 190.595 71.914 190.506 72.125 190.479C72.3849 190.413 72.657 190.406 72.9209 190.46C73.1849 190.513 73.434 190.625 73.6496 190.788ZM82.0217 190.753C82.1528 190.88 82.2547 191.033 82.3202 191.203C82.3856 191.373 82.413 191.555 82.4004 191.736C82.4232 192.712 81.7838 194.059 80.7906 195.182C79.7114 194.026 79.3685 192.435 79.6982 191.47C79.7971 191.158 80.0001 190.89 80.2739 190.71C80.5476 190.53 80.8756 190.449 81.2035 190.481C81.4973 190.483 81.7837 190.578 82.0217 190.753Z" fill="#553597"/>
<path d="M66.9584 22.2712C54.3975 22.2712 44.2031 32.4656 44.2031 45.0265C44.2031 57.5874 54.3975 67.7818 66.9584 67.7818C79.5193 67.7818 89.7137 57.5874 89.7137 45.0265C89.7137 32.4656 79.5193 22.2712 66.9584 22.2712ZM66.9584 63.2307C56.9233 63.2307 48.7542 55.0616 48.7542 45.0265C48.7542 34.9914 56.9233 26.8223 66.9584 26.8223C76.9935 26.8223 85.1626 34.9914 85.1626 45.0265C85.1626 55.0616 76.9935 63.2307 66.9584 63.2307ZM77.4031 34.9687L62.4073 49.9644L56.5137 44.0935L53.3052 47.302L62.4073 56.4041L80.6116 38.1999L77.4031 34.9687Z" fill="#6F46BE"/>
</g>
<path d="M280.82 89.0108L283.373 91.6335L282.81 92.2121L280.257 89.5893L280.82 89.0108Z" fill="#553597"/>
<path d="M277.078 85.1653L279.631 87.7881L279.068 88.3666L276.514 85.7439L277.078 85.1653Z" fill="#553597"/>
<path d="M282.812 85.1649L283.375 85.7434L280.822 88.3662L280.259 87.7876L282.812 85.1649Z" fill="#553597"/>
<path d="M279.068 89.0103L279.631 89.5889L277.078 92.2116L276.514 91.6331L279.068 89.0103Z" fill="#553597"/>
<path d="M10.6616 185.71L13.2148 188.333L12.6516 188.911L10.0984 186.288L10.6616 185.71Z" fill="#553597"/>
<path d="M6.91746 181.864L9.4707 184.487L8.90749 185.065L6.35425 182.443L6.91746 181.864Z" fill="#553597"/>
<path d="M12.6536 181.863L13.2168 182.442L10.6636 185.065L10.1003 184.486L12.6536 181.863Z" fill="#553597"/>
<path d="M8.90944 185.709L9.47266 186.288L6.91942 188.91L6.3562 188.332L8.90944 185.709Z" fill="#553597"/>
<path d="M13.4395 105.001L14.5592 109.846C14.772 110.767 14.1971 111.712 13.2884 111.935L8.5076 113.108L13.4395 105.001Z" fill="white"/>
<path d="M13.5149 92.2413L35.2339 86.8566C36.9003 86.4494 38.6019 87.512 38.9952 89.2054L49.349 133.126C49.7423 134.819 48.6906 136.555 47.0242 136.962L16.5382 144.489C14.8718 144.896 13.1703 143.833 12.777 142.14L4.56476 107.111L13.5149 92.2413Z" fill="white"/>
<path d="M16.6072 145.214L47.1848 137.608C48.2022 137.357 49.0622 136.757 49.6196 135.843C50.177 134.929 50.3201 133.885 50.083 132.856L39.8998 89.0041C39.6627 87.9753 39.0792 87.1095 38.1831 86.5536C37.287 85.9977 36.2576 85.8629 35.2402 86.1134L13.4558 91.5552C13.2378 91.6089 13.1094 91.7182 12.9979 91.9009L3.84035 106.813C3.72887 106.996 3.69007 107.161 3.74088 107.381L11.9476 142.324C12.1847 143.353 12.7682 144.218 13.6643 144.774C14.5604 145.33 15.5898 145.465 16.6072 145.214ZM35.5789 87.5831C36.233 87.4221 36.8652 87.4994 37.4028 87.8329C37.9404 88.1664 38.2939 88.7006 38.4464 89.362L48.6296 133.214C48.782 133.875 48.6995 134.517 48.3651 135.065C48.0307 135.613 47.5001 135.977 46.8461 136.138L16.2684 143.745C15.6144 143.906 14.9822 143.829 14.4446 143.495C13.9069 143.161 13.5534 142.627 13.401 141.966L5.33472 107.3L14.0125 92.9712L35.5789 87.5831Z" fill="#553597"/>
<path d="M13.5875 113.904L35.5515 108.469C35.9853 108.363 36.1903 107.93 36.106 107.568C36.0049 107.133 35.6483 106.914 35.2144 107.02L13.2505 112.455C12.8167 112.561 12.6117 112.994 12.696 113.356C12.7802 113.718 13.226 113.992 13.5875 113.904Z" fill="#553597"/>
<path d="M15.1051 120.393L37.0691 114.958C37.5029 114.852 37.7079 114.419 37.6236 114.057C37.5225 113.622 37.1659 113.403 36.732 113.509L14.7681 118.944C14.3342 119.05 14.1293 119.483 14.2135 119.845C14.3701 120.19 14.7436 120.481 15.1051 120.393Z" fill="#553597"/>
<path d="M16.6754 126.79L38.6394 121.355C39.0732 121.249 39.2782 120.816 39.1939 120.454C39.0928 120.02 38.7362 119.8 38.3023 119.906L16.3384 125.341C15.9046 125.447 15.6996 125.88 15.7839 126.242C15.885 126.677 16.2416 126.896 16.6754 126.79Z" fill="#553597"/>
<path d="M24.7698 131.682L40.1725 127.92C40.6064 127.814 40.8114 127.381 40.7271 127.018C40.626 126.583 40.2693 126.363 39.8355 126.469L24.4328 130.231C23.9989 130.337 23.7939 130.77 23.8782 131.133C23.9624 131.496 24.4083 131.77 24.7698 131.682Z" fill="#553597"/>
<path d="M4.68028 107.882L13.4428 105.74C14.4567 105.493 15.3127 104.895 15.8659 103.982C16.4192 103.069 16.5591 102.023 16.3198 100.993L14.2517 92.0878C14.1833 91.7934 13.9701 91.5344 13.6634 91.5316C13.3395 91.4552 13.0669 91.5996 12.9009 91.8735L3.88279 106.754C3.71681 107.028 3.71276 107.34 3.92596 107.599C4.12207 107.785 4.3906 107.952 4.68028 107.882ZM13.2689 94.1168L14.9268 101.256C15.0806 101.918 15.0001 102.56 14.6681 103.108C14.3362 103.656 13.8081 104.018 13.1563 104.177L6.1318 105.894L13.2689 94.1168Z" fill="#553597"/>
<path d="M30.3719 104.95C27.6248 105.667 24.8271 103.979 24.1231 101.18C23.4192 98.3803 25.0755 95.5294 27.8227 94.812C30.5699 94.0947 33.3675 95.7825 34.0715 98.5819C34.7754 101.381 33.1191 104.232 30.3719 104.95Z" fill="white" stroke="#553597" stroke-width="1.9273" stroke-miterlimit="15.11"/>
<mask id="mask2_2120_38505" style="mask-type:luminance" maskUnits="userSpaceOnUse" x="24" y="95" width="10" height="10">
<path d="M24.5251 97.0114L31.8574 95.0681L33.6897 102.464L26.3575 104.407L24.5251 97.0114Z" fill="white"/>
</mask>
<g mask="url(#mask2_2120_38505)">
<path d="M26.1827 99.4291L27.8426 98.9874L27.4305 97.3174L29.4573 96.7781L29.8694 98.4481L31.5293 98.0064L32.0323 100.045L30.3724 100.486L30.7845 102.156L28.7577 102.696L28.3456 101.026L26.6857 101.467L26.1827 99.4291Z" fill="#553597" stroke="#553597" stroke-width="0.247234" stroke-miterlimit="11.34"/>
</g>
<mask id="mask3_2120_38505" style="mask-type:luminance" maskUnits="userSpaceOnUse" x="217" y="126" width="94" height="93">
<path d="M251.936 126.607L310.488 176.93L275.746 218.928L217.194 168.605L251.936 126.607Z" fill="white"/>
</mask>
<g mask="url(#mask3_2120_38505)">
<path d="M231.828 164.16C231.9 164.222 231.987 164.263 232.08 164.279C232.173 164.294 232.268 164.283 232.354 164.247C234.392 163.409 235.054 164.235 236.162 165.6C237.158 166.835 238.398 168.367 241.033 168.725L241.092 168.735C243.854 168.784 245.246 167.573 245.968 166.416C247.404 166.856 248.938 166.781 250.312 166.202C251.663 165.638 252.85 164.74 253.766 163.587C255.813 164.343 258.042 164.374 260.088 163.673C261.112 163.261 262.017 162.597 262.723 161.739C263.335 162.129 264.016 162.391 264.726 162.51C265.435 162.629 266.16 162.603 266.855 162.432C268.088 162.254 269.237 161.712 270.162 160.873C271.96 162.202 274.317 162.139 276.669 160.686C276.692 160.665 276.712 160.641 276.728 160.615C278.753 158.752 279.737 156.887 279.749 154.923C279.749 154.855 279.736 154.787 279.711 154.723C279.686 154.659 279.649 154.601 279.601 154.552C279.554 154.503 279.498 154.463 279.436 154.436C279.374 154.408 279.308 154.393 279.24 154.392C279.173 154.39 279.106 154.402 279.044 154.427C278.982 154.452 278.925 154.489 278.877 154.537C278.829 154.584 278.791 154.641 278.765 154.703C278.739 154.766 278.725 154.833 278.725 154.902C278.71 156.545 277.851 158.16 276.071 159.807C274.144 160.983 272.32 161.092 270.888 160.125C272.037 158.841 272.76 157.245 272.723 155.916C272.732 155.618 272.682 155.32 272.576 155.041C272.469 154.761 272.308 154.506 272.103 154.291C271.897 154.075 271.652 153.903 271.381 153.786C271.11 153.668 270.819 153.608 270.525 153.607C269.984 153.577 269.45 153.727 269.004 154.034C268.558 154.342 268.225 154.789 268.055 155.31C267.557 156.782 268.149 158.771 269.386 160.152C268.635 160.823 267.706 161.255 266.711 161.395L266.647 161.408C266.094 161.55 265.517 161.578 264.95 161.491C264.383 161.403 263.838 161.201 263.346 160.896C264.443 159.196 264.877 157.128 264.461 155.608C264.045 154.088 262.861 153.381 261.267 153.634C260.875 153.695 260.508 153.866 260.21 154.13C259.911 154.393 259.692 154.737 259.578 155.123C259.097 156.623 259.82 158.893 261.329 160.548C261.509 160.745 261.7 160.932 261.901 161.108C261.326 161.793 260.596 162.324 259.772 162.658C258.03 163.253 256.138 163.26 254.377 162.678C254.818 161.942 255.095 161.115 255.188 160.254C255.282 159.393 255.189 158.52 254.917 157.694C254.258 155.891 252.703 155.007 251.047 155.497C249.519 155.988 248.905 157.462 249.469 159.258C250.058 160.929 251.245 162.319 252.792 163.148C251.995 164.071 250.999 164.794 249.88 165.262C248.785 165.719 247.569 165.797 246.416 165.483C247.187 163.381 246.663 160.74 245.222 159.475C244.78 159.087 244.228 158.851 243.648 158.803C243.069 158.755 242.492 158.897 242.002 159.208C240.684 159.915 240.308 161.207 241.012 162.664C241.649 163.982 243.147 165.324 244.948 166.08C244.158 167.173 242.833 167.744 241.116 167.715C238.906 167.404 237.906 166.166 236.936 164.974C235.826 163.601 234.68 162.183 231.947 163.309C231.822 163.36 231.723 163.46 231.671 163.587C231.619 163.713 231.619 163.857 231.671 163.984C231.711 164.053 231.765 164.113 231.828 164.16ZM245.451 165.147C243.841 164.501 242.489 163.324 241.941 162.191C241.482 161.25 241.676 160.544 242.509 160.097C242.816 159.882 243.186 159.778 243.56 159.803C243.934 159.828 244.291 159.981 244.573 160.235C245.559 161.083 246.127 163.233 245.484 165.074C245.468 165.096 245.457 165.121 245.451 165.147ZM253.394 162.314C252.019 161.639 250.949 160.45 250.41 158.998C250.267 158.538 249.9 156.999 251.323 156.545C252.678 156.142 253.548 157.106 253.917 158.099C254.145 158.801 254.216 159.544 254.126 160.273C254.035 161.002 253.785 161.7 253.394 162.314ZM262.947 154.976C263.207 155.215 263.391 155.529 263.473 155.875C263.758 157.026 263.434 158.775 262.478 160.272C262.313 160.13 262.156 159.995 262.052 159.845C260.833 158.514 260.162 156.578 260.521 155.454C260.578 155.245 260.693 155.059 260.853 154.918C261.013 154.777 261.21 154.686 261.421 154.659C261.681 154.592 261.953 154.586 262.217 154.641C262.481 154.695 262.731 154.81 262.947 154.976ZM271.321 154.954C271.452 155.083 271.554 155.24 271.62 155.414C271.686 155.587 271.713 155.772 271.701 155.956C271.726 156.951 271.088 158.323 270.096 159.465C269.015 158.285 268.67 156.663 268.998 155.681C269.096 155.363 269.299 155.09 269.572 154.907C269.846 154.724 270.174 154.643 270.502 154.676C270.796 154.678 271.082 154.776 271.321 154.954Z" fill="#553597"/>
<path d="M272.208 148.483C271.427 147.812 271.195 146.783 271.689 146.186C272.184 145.588 273.217 145.648 273.998 146.319C274.779 146.99 275.011 148.018 274.517 148.616C274.022 149.214 272.989 149.154 272.208 148.483Z" fill="#553597"/>
<path d="M222.96 171.521C223.293 170.52 224.617 170.082 225.918 170.544C227.218 171.005 228.003 172.19 227.671 173.191C227.338 174.193 226.014 174.63 224.713 174.169C223.413 173.708 222.628 172.522 222.96 171.521Z" fill="#EDE3FF"/>
<path d="M243.997 137.217C244.233 136.505 245.173 136.194 246.096 136.521C247.02 136.849 247.577 137.691 247.34 138.403C247.104 139.114 246.164 139.426 245.24 139.098C244.317 138.771 243.76 137.929 243.997 137.217Z" fill="#EDE3FF"/>
<path d="M244.21 139.087C244.465 139.307 244.758 139.477 245.074 139.587C245.6 139.784 246.173 139.802 246.706 139.637C246.962 139.562 247.197 139.426 247.391 139.241C247.585 139.056 247.733 138.826 247.823 138.57C248.151 137.589 247.447 136.449 246.257 136.028C245.731 135.83 245.158 135.812 244.625 135.977C244.368 136.052 244.133 136.187 243.939 136.373C243.745 136.558 243.597 136.788 243.508 137.044C243.409 137.414 243.423 137.808 243.548 138.173C243.674 138.537 243.904 138.856 244.21 139.087ZM246.482 137.323C246.625 137.421 246.737 137.56 246.803 137.721C246.87 137.883 246.887 138.06 246.854 138.231C246.813 138.332 246.749 138.422 246.667 138.494C246.586 138.566 246.489 138.617 246.384 138.645C246.062 138.739 245.717 138.726 245.399 138.609C244.755 138.38 244.331 137.82 244.477 137.384C244.519 137.282 244.584 137.192 244.666 137.119C244.748 137.047 244.845 136.994 244.95 136.966C245.272 136.873 245.616 136.887 245.932 137.006C246.133 137.076 246.32 137.184 246.482 137.323Z" fill="#553597"/>
<path d="M251.778 146.882C251.66 146.009 252.994 145.117 254.76 144.891C256.525 144.664 258.053 145.189 258.172 146.063C258.29 146.936 256.956 147.828 255.19 148.054C253.425 148.281 251.897 147.756 251.778 146.882Z" fill="#EDE3FF"/>
<path d="M251.812 147.879C252.503 148.473 253.779 148.751 255.27 148.573C257.381 148.305 258.85 147.195 258.685 146.006C258.52 144.816 256.811 144.111 254.697 144.383C253.839 144.475 253.015 144.759 252.282 145.214C251.547 145.704 251.2 146.311 251.275 146.951C251.334 147.316 251.525 147.648 251.812 147.879ZM257.506 145.871C257.594 145.936 257.656 146.03 257.682 146.137C257.739 146.564 256.741 147.356 255.154 147.568C253.568 147.779 252.377 147.269 252.317 146.846C252.291 146.641 252.518 146.343 252.881 146.107C253.485 145.74 254.162 145.512 254.865 145.44C256.108 145.244 257.105 145.526 257.494 145.861L257.506 145.871Z" fill="#553597"/>
<path d="M238.881 174.747C239.256 174.092 240.648 174.213 241.989 175.018C243.33 175.824 244.113 177.008 243.738 177.663C243.363 178.319 241.971 178.197 240.63 177.392C239.289 176.586 238.505 175.402 238.881 174.747Z" fill="#EDE3FF"/>
</g>
<defs>
<clipPath id="clip0_2120_38505">
<rect width="238.204" height="236.267" fill="white" transform="matrix(-1 0 0 1 264.01 0)"/>
</clipPath>
</defs>
</svg>
