<svg width="313" height="333" viewBox="0 0 313 333" fill="none" xmlns="http://www.w3.org/2000/svg">
<path d="M194.82 85.6002L190.294 79.854L194.82 74.1079L199.346 79.854L194.82 85.6002ZM191.578 79.854L194.82 83.9681L198.063 79.854L194.82 75.74L191.578 79.854Z" fill="#A78ED7"/>
<path d="M175.895 76.867L172.646 80.1367L173.363 80.858L176.611 77.5883L175.895 76.867Z" fill="#553597"/>
<path d="M180.657 72.0731L177.409 75.3428L178.125 76.064L181.374 72.7943L180.657 72.0731Z" fill="#553597"/>
<path d="M173.361 72.0722L172.645 72.7935L175.893 76.0632L176.609 75.3419L173.361 72.0722Z" fill="#553597"/>
<path d="M178.123 76.8657L177.407 77.5869L180.655 80.8566L181.372 80.1354L178.123 76.8657Z" fill="#553597"/>
<path d="M22.4669 119.847C27.4986 191.654 105.444 116.088 141.712 159.292C177.978 202.499 110.332 241.236 154.566 292.104C189.327 332.076 235.029 282.242 265.5 263.5C277 253.5 287.143 243.461 290.442 229.104C306.109 160.909 201.67 157.836 176.877 94.2404C149.246 23.365 17.4352 48.0399 22.4669 119.847Z" fill="#EDE3FF"/>
<path d="M121.676 191.202C83.4797 165.538 41.3782 181.773 26.1724 189.225C20.8608 191.83 16.58 196.219 14.3524 201.699C1.86498 232.381 70.728 245.481 101.196 254.118C134.586 263.587 169.325 223.219 121.673 191.201L121.676 191.202Z" fill="#EDE3FF"/>
<path d="M139.37 74.731H58.671C56.3984 74.731 54.3281 76.5739 54.051 78.8497L37.7661 211.479C37.486 213.755 39.1048 215.595 41.3774 215.595H122.077C124.352 215.595 126.419 213.755 126.7 211.479L142.984 78.8497C143.265 76.5739 141.646 74.731 139.373 74.731H139.37Z" fill="white"/>
<path d="M142.673 75.4409C141.851 74.5101 140.678 73.9995 139.37 73.9995H58.6709C56.0434 73.9995 53.6432 76.1351 53.3225 78.7626L37.0376 211.395C36.8757 212.712 37.2431 213.954 38.0743 214.891C38.8962 215.822 40.0698 216.333 41.3774 216.333H122.076C124.704 216.333 127.107 214.197 127.428 211.573L143.713 78.9401C143.875 77.6232 143.507 76.3811 142.676 75.4409H142.673ZM112.435 214.863H41.3774C40.4963 214.863 39.7149 214.527 39.1732 213.917C38.6253 213.297 38.3856 212.466 38.4946 211.573L54.7795 78.9401C55.0161 77.0255 56.7594 75.4658 58.6709 75.4658H129.729C130.61 75.4658 131.394 75.802 131.933 76.4122C132.481 77.0317 132.72 77.866 132.611 78.7595L116.326 211.392C116.093 213.307 114.343 214.863 112.432 214.863H112.435ZM142.253 78.7595L125.968 211.392C125.734 213.307 123.985 214.863 122.073 214.863H116.056C116.105 214.817 116.152 214.767 116.199 214.72C116.252 214.667 116.305 214.617 116.354 214.565C116.414 214.502 116.47 214.434 116.526 214.368C116.572 214.312 116.622 214.259 116.666 214.2C116.719 214.132 116.772 214.06 116.821 213.989C116.862 213.929 116.906 213.873 116.946 213.814C116.996 213.74 117.039 213.662 117.086 213.584C117.12 213.525 117.161 213.466 117.192 213.403C117.236 213.322 117.276 213.235 117.313 213.151C117.341 213.092 117.372 213.033 117.401 212.971C117.441 212.88 117.472 212.787 117.506 212.694C117.528 212.637 117.55 212.581 117.572 212.522C117.606 212.416 117.634 212.311 117.659 212.202C117.671 212.152 117.687 212.105 117.699 212.055C117.734 211.897 117.762 211.738 117.783 211.576L134.068 78.9432C134.087 78.7782 134.099 78.6163 134.106 78.4544C134.106 78.4015 134.103 78.3486 134.103 78.2957C134.103 78.1898 134.103 78.0809 134.093 77.975C134.09 77.9159 134.078 77.8567 134.071 77.7976C134.059 77.701 134.05 77.6045 134.034 77.5111C134.022 77.4489 134.003 77.3866 133.991 77.3244C133.972 77.2372 133.953 77.1469 133.928 77.0597C133.91 76.9944 133.885 76.9352 133.863 76.873C133.835 76.792 133.81 76.708 133.776 76.627C133.748 76.5616 133.717 76.5025 133.685 76.4402C133.651 76.3655 133.617 76.2877 133.576 76.2161C133.542 76.1507 133.499 76.0915 133.461 76.0293C133.421 75.9608 133.38 75.8923 133.334 75.8269C133.287 75.7616 133.237 75.7024 133.187 75.6401C133.144 75.5841 133.103 75.5281 133.057 75.4751H139.37C140.251 75.4751 141.036 75.8114 141.574 76.4215C142.122 77.0411 142.362 77.8754 142.253 78.7689V78.7595Z" fill="#553597"/>
<path d="M137.085 90.1538C135.734 90.1538 134.548 91.2092 134.38 92.5572L132.82 105.259C132.736 105.944 132.929 106.591 133.365 107.083C133.798 107.572 134.411 107.843 135.093 107.843C136.444 107.843 137.633 106.787 137.798 105.439L139.358 92.7377C139.442 92.0528 139.249 91.4053 138.813 90.9134C138.38 90.4247 137.767 90.1538 137.085 90.1538ZM137.901 92.5572L136.341 105.259C136.267 105.863 135.697 106.373 135.093 106.373C134.838 106.373 134.617 106.28 134.464 106.109C134.311 105.934 134.243 105.698 134.277 105.436L135.837 92.7346C135.912 92.1307 136.481 91.6201 137.085 91.6201C137.341 91.6201 137.562 91.7135 137.714 91.8847C137.867 92.0591 137.935 92.2957 137.901 92.5572Z" fill="#553597"/>
<path d="M134.51 111.143C133.159 111.143 131.97 112.198 131.805 113.546L127.649 147.386C127.565 148.071 127.758 148.718 128.194 149.21C128.626 149.699 129.24 149.97 129.921 149.97C131.273 149.97 132.462 148.914 132.627 147.566L136.783 113.726C136.867 113.042 136.674 112.394 136.238 111.902C135.805 111.413 135.192 111.143 134.51 111.143ZM135.326 113.546L131.17 147.386C131.095 147.99 130.525 148.5 129.921 148.5C129.666 148.5 129.445 148.407 129.293 148.236C129.14 148.061 129.072 147.825 129.106 147.563L133.262 113.723C133.337 113.119 133.906 112.609 134.51 112.609C134.766 112.609 134.987 112.702 135.139 112.873C135.292 113.048 135.36 113.284 135.326 113.546Z" fill="#553597"/>
<path d="M108.821 205.776H48.3261C46.2247 205.776 44.7304 204.073 44.9888 201.971L59.4182 84.4468C59.6766 82.3455 61.5881 80.6426 63.6895 80.6426H124.184C126.286 80.6426 127.78 82.3455 127.522 84.4468L113.092 201.971C112.834 204.073 110.922 205.776 108.821 205.776Z" fill="#A78ED7"/>
<path d="M101.212 84.1416H75.4383C74.025 84.1416 72.8762 85.2872 72.8762 86.7037C72.8762 88.1202 74.0219 89.2659 75.4383 89.2659H101.212C102.625 89.2659 103.774 88.1202 103.774 86.7037C103.774 85.2872 102.629 84.1416 101.212 84.1416Z" fill="#553597"/>
<path d="M97.6601 159.154H65.6601C63.291 159.154 61.6036 157.233 61.8963 154.861L65.8251 122.86C66.1146 120.491 68.272 118.567 70.6442 118.567H102.644C105.013 118.567 106.701 120.488 106.408 122.86L102.479 154.861C102.19 157.23 100.032 159.154 97.6601 159.154Z" fill="white"/>
<path d="M92.6447 131.297C91.8913 130.45 90.59 130.375 89.7433 131.129L84.3295 135.951L80.0333 131.051C79.2862 130.198 77.988 130.114 77.135 130.861C76.282 131.608 76.1979 132.906 76.9451 133.759L81.263 138.681L75.2515 144.036C74.4048 144.789 74.33 146.091 75.0834 146.937C75.4881 147.392 76.0516 147.625 76.6182 147.625C77.1038 147.625 77.5926 147.454 77.9849 147.105L83.9746 141.773L88.2707 146.673C88.6785 147.137 89.2451 147.373 89.8148 147.373C90.2943 147.373 90.7799 147.205 91.1691 146.863C92.0221 146.116 92.1061 144.817 91.359 143.964L87.041 139.042L92.4797 134.198C93.3265 133.445 93.4012 132.144 92.6478 131.297H92.6447Z" fill="#553597"/>
<path d="M90.5805 188.138C90.4797 187.834 87.9935 174.035 87.6912 170.924C87.6912 170.924 90.4797 167.609 105.934 163.247L109.865 185.534L90.5805 188.138Z" fill="#6F46BE"/>
<path d="M242 240.323C241.967 240.323 241.933 240.323 241.899 240.323C229.267 246.884 219.121 250.232 212.334 251.991L207.093 204.237L208.404 203.763L228.461 196.594L236.961 193.55C236.961 193.55 237.465 198.251 238.137 204.677C239.514 217.63 241.664 237.651 241.967 240.323C242 240.289 242 240.323 242 240.323Z" fill="white"/>
<path d="M210.621 206.232C210.621 206.232 216.5 255.508 217.34 261.088C195.738 273.669 149.173 274.954 134.861 266.33C134.995 265.856 136.037 206.773 136.037 206.773L113.796 194.868C113.426 191.283 112.855 187.056 112.217 184.046C112.317 183.741 112.418 183.471 112.519 183.167C117.794 167.576 133.013 138.22 173.228 134.838C206.354 132.031 237.028 161.15 239.514 196.289L210.621 206.232Z" fill="#6F46BE"/>
<path d="M189.354 112.686C188.682 116.339 183.945 116.373 183.945 116.373C182.601 123.948 182.635 137.476 182.635 137.476C181.224 144.004 164.997 143.057 162.712 137.476C162.645 137.341 162.645 136.124 162.645 134.838C162.645 133.316 162.712 131.659 162.712 131.659C162.712 131.659 150.55 130.78 149.744 123.035C149.274 118.639 150.416 103.487 151.054 96.5203C156.564 97.704 163.115 95.0322 163.115 95.0322C160.999 99.767 172.018 103.69 176.856 96.8247C176.856 96.8247 170.574 109.101 179.309 113.396C180.754 108.019 184.012 106.666 186.465 107.512C188.414 108.188 189.825 110.217 189.354 112.686Z" fill="white"/>
<path d="M186.499 107.512C184.08 106.666 180.821 107.985 179.343 113.396C170.608 109.101 176.89 96.8245 176.89 96.8245C172.086 103.724 161.033 99.8007 163.149 95.0321C163.149 95.0321 156.598 97.67 151.088 96.5201C148.199 95.9114 145.578 94.2542 144.335 90.6355C140.908 80.76 150.685 78.697 154.078 83.8715C155.019 85.2919 156.967 87.7608 156.967 87.7608C156.967 87.7608 156.228 83.9729 159.588 84.4126C162.309 84.7508 160.394 87.9975 167.281 89.1812C169.6 89.587 174.673 88.0651 179.88 89.0121C181.896 89.3841 183.206 92.0897 182.736 94.3218C189.422 94.3557 186.902 105.787 186.499 107.512Z" fill="#6F46BE"/>
<path d="M136.07 206.773C136.07 206.773 135.667 209.952 135.096 214.281C134.29 220.572 133.147 229.264 132.476 234.032C131.064 244.144 116.82 255.305 107.412 246.816C100.357 240.458 96.3928 230.143 92.4956 210.054C95.3849 209.749 99.9876 209.005 103.885 207.348C109.966 204.778 114.199 202.512 114.367 201.836C114.434 201.565 114.233 198.555 113.829 194.869L136.07 206.773Z" fill="white"/>
<path d="M113.829 194.868C113.46 191.283 112.889 187.056 112.25 184.046C111.78 181.814 111.545 180.123 110.671 180.123C108.958 180.123 98.8454 184.012 98.2406 184.249C98.207 184.249 98.207 184.249 98.207 184.249C98.5766 183.674 106.606 176.707 109.327 174.069C112.082 171.431 110.638 166.595 110.638 166.595C93.7387 175.185 88.4304 186.312 88.4304 186.312C88.6992 188.138 88.968 189.897 89.2367 191.588C90.3454 198.521 91.3869 204.608 92.4284 210.02C95.3177 209.715 99.9204 208.971 103.818 207.314C109.899 204.744 114.132 202.478 114.3 201.801C114.434 201.598 114.233 198.555 113.829 194.868Z" fill="white"/>
<path d="M101.97 190.878L101.735 190.235C102.104 190.1 110.47 186.887 112.788 186.616L112.855 187.293C110.604 187.529 102.037 190.844 101.97 190.878Z" fill="#6F46BE"/>
<path d="M100.559 208.836L100.357 208.194C103.885 206.976 113.292 202.512 114.031 201.7C114.065 201.261 113.863 198.487 113.494 194.869L113.46 194.463C110.47 194.564 103.616 197.777 103.549 197.811L103.28 197.202C103.583 197.067 110.806 193.719 113.796 193.82H114.098L114.199 194.801C114.535 197.912 114.804 201.497 114.703 201.903C114.434 202.918 103.213 207.923 100.559 208.836Z" fill="#6F46BE"/>
<path d="M120.817 223.379C118.835 221.079 111.679 204.541 111.377 203.831L111.981 203.561C112.049 203.73 119.406 220.707 121.321 222.939L120.817 223.379Z" fill="#6F46BE"/>
<path d="M224.856 120.998H223.848V125.598H224.856V120.998Z" fill="#6F46BE"/>
<path d="M224.856 114.268H223.848V118.867H224.856V114.268Z" fill="#6F46BE"/>
<path d="M223.311 119.442H218.742V120.456H223.311V119.442Z" fill="#6F46BE"/>
<path d="M229.996 119.442H225.427V120.456H229.996V119.442Z" fill="#6F46BE"/>
<path d="M74.5909 249.962L72.2056 241.033L81.0751 243.434L74.5909 249.962ZM73.6502 242.487L75.1285 248L79.1601 243.942L73.6502 242.487Z" fill="#A78ED7"/>
<path d="M98.1189 183.951L93.5864 185.749L93.8328 186.378L98.3652 184.581L98.1189 183.951Z" fill="#6F46BE"/>
<path d="M167.943 113.669C171.543 113.644 174.452 112.351 174.441 110.782C174.43 109.213 171.504 107.962 167.904 107.987C164.304 108.012 161.395 109.305 161.406 110.874C161.417 112.443 164.344 113.694 167.943 113.669Z" fill="white"/>
<path d="M161.1 110.859C161.1 109.101 164.056 107.714 167.886 107.68C169.667 107.68 171.347 107.951 172.623 108.492C173.967 109.067 174.706 109.878 174.706 110.758C174.706 111.637 173.967 112.449 172.657 113.024C171.38 113.599 169.734 113.903 167.954 113.903C166.442 113.937 164.963 113.7 163.519 113.193C162.041 112.686 161.1 111.84 161.1 110.859ZM172.12 108.898C170.776 108.424 169.331 108.187 167.886 108.221C164.493 108.255 161.637 109.439 161.671 110.825C161.705 112.212 164.56 113.362 167.92 113.362C169.633 113.362 171.212 113.058 172.422 112.516C173.531 112.043 174.169 111.367 174.169 110.758C174.169 110.115 173.531 109.506 172.422 108.999C172.321 108.999 172.22 108.965 172.12 108.898Z" fill="#6F46BE"/>
<path d="M168.299 111.974C168.452 111.015 167.209 110.017 165.524 109.744C163.838 109.472 162.348 110.029 162.195 110.988C162.042 111.947 163.285 112.945 164.97 113.217C166.656 113.49 168.146 112.933 168.299 111.974Z" fill="#6F46BE"/>
<path d="M163.821 113.193C162.545 112.72 161.772 111.84 161.906 110.961C162.074 109.845 163.687 109.202 165.568 109.507C167.45 109.811 168.76 110.927 168.558 112.043C168.39 113.159 166.778 113.802 164.896 113.497C164.527 113.43 164.157 113.328 163.821 113.193ZM168.021 111.942C168.155 111.164 166.979 110.284 165.467 110.048C163.956 109.811 162.578 110.251 162.444 111.029C162.309 111.806 163.485 112.686 164.997 112.922C166.509 113.159 167.886 112.72 168.021 111.942Z" fill="#6F46BE"/>
<path d="M152.522 112.755C156.121 112.73 159.031 111.438 159.02 109.869C159.009 108.3 156.082 107.048 152.483 107.074C148.883 107.099 145.974 108.391 145.984 109.96C145.995 111.529 148.922 112.781 152.522 112.755Z" fill="white"/>
<path d="M145.713 109.98C145.713 108.222 148.669 106.835 152.499 106.801C154.28 106.801 155.96 107.072 157.236 107.613C158.58 108.188 159.319 109 159.319 109.879C159.319 110.758 158.58 111.57 157.27 112.145C155.993 112.72 154.347 113.024 152.566 113.024C151.055 113.058 149.576 112.821 148.132 112.314C146.62 111.807 145.713 110.961 145.713 109.98ZM156.732 108.019C155.388 107.545 153.944 107.309 152.499 107.342C149.106 107.376 146.25 108.56 146.284 109.947C146.284 111.333 149.173 112.483 152.533 112.483C154.246 112.483 155.825 112.179 157.035 111.638C158.143 111.164 158.782 110.488 158.782 109.879C158.782 109.27 158.143 108.628 157.035 108.12C156.9 108.12 156.8 108.053 156.732 108.019Z" fill="#6F46BE"/>
<path d="M152.893 111.11C153.046 110.151 151.804 109.153 150.118 108.881C148.433 108.608 146.943 109.165 146.79 110.124C146.637 111.083 147.879 112.081 149.565 112.354C151.25 112.626 152.741 112.069 152.893 111.11Z" fill="#6F46BE"/>
<path d="M148.4 112.314C147.123 111.841 146.351 110.961 146.485 110.082C146.653 108.966 148.266 108.323 150.147 108.628C152.029 108.932 153.339 110.048 153.137 111.164C152.969 112.28 151.357 112.923 149.475 112.618C149.139 112.551 148.77 112.449 148.4 112.314ZM152.6 111.063C152.734 110.285 151.558 109.406 150.046 109.169C148.534 108.932 147.157 109.372 147.023 110.15C146.888 110.927 148.064 111.807 149.576 112.044C151.088 112.28 152.465 111.841 152.6 111.063Z" fill="#6F46BE"/>
<path d="M249.735 126.238L234.978 149.091C233.502 151.381 235.143 154.396 237.869 154.396H267.24C269.958 154.396 271.603 151.392 270.137 149.102L255.524 126.249C254.175 124.139 251.094 124.132 249.735 126.235V126.238Z" fill="white"/>
<path d="M267.24 155.257H237.869C236.268 155.257 234.858 154.418 234.088 153.011C233.323 151.605 233.385 149.963 234.253 148.619L249.01 125.766C249.805 124.531 251.157 123.798 252.626 123.798C252.626 123.798 252.633 123.798 252.637 123.798C254.11 123.798 255.458 124.542 256.253 125.784L270.867 148.637C271.728 149.982 271.783 151.623 271.017 153.022C270.251 154.422 268.841 155.257 267.243 155.257H267.24ZM252.626 125.528C251.736 125.528 250.948 125.956 250.464 126.707L235.708 149.56C235.187 150.366 235.151 151.348 235.609 152.191C236.067 153.033 236.913 153.535 237.869 153.535H267.24C268.196 153.535 269.039 153.033 269.5 152.198C269.958 151.359 269.925 150.377 269.412 149.575L254.798 126.722C254.318 125.967 253.527 125.535 252.633 125.535H252.626V125.528Z" fill="#553597"/>
<path d="M252.552 144.879C253.219 144.879 253.761 144.336 253.761 143.67V133.199C253.761 132.532 253.219 131.99 252.552 131.99C251.886 131.99 251.344 132.532 251.344 133.199V143.67C251.344 144.336 251.886 144.879 252.552 144.879Z" fill="#6F46BE"/>
<path d="M252.553 147.282C251.787 147.282 251.168 147.901 251.168 148.667C251.168 149.432 251.787 150.051 252.553 150.051C253.318 150.051 253.937 149.432 253.937 148.667C253.937 147.901 253.318 147.282 252.553 147.282Z" fill="#6F46BE"/>
</svg>
