<svg width="100%" height="100%" viewBox="0 0 201 178" fill="none" xmlns="http://www.w3.org/2000/svg">
<path d="M53.4472 60.0268C37.1236 68.1925 24.0915 103.359 32.1444 118.847C40.1972 134.335 62.6133 129.935 67.2782 139.71C71.9517 149.487 88.5046 172.577 111.457 169.405C143.845 164.938 157.574 174.646 169.236 163.954C186.03 148.56 175.703 128.341 184.621 105.917C193.538 83.5036 202.645 49.0584 187.964 32.8248C176.991 20.6957 160.374 23.2975 145.152 14.5288C126.608 3.85411 106.652 9.34804 100.678 30.9468C94.7029 52.5457 68.7894 52.357 53.446 60.0267L53.4472 60.0268Z" fill="#EDE3FF"/>
<path d="M178.111 121.159H133.825C130.988 121.159 128.686 123.465 128.686 126.307C128.686 129.149 130.988 131.454 133.825 131.454H178.111C180.949 131.454 183.25 129.149 183.25 126.307C183.25 123.465 180.949 121.159 178.111 121.159Z" fill="#A78ED7"/>
<path d="M169.779 116.687C167.464 116.687 165.581 118.57 165.581 120.885C165.581 123.2 167.464 125.083 169.779 125.083C172.094 125.083 173.977 123.2 173.977 120.885C173.977 118.57 172.094 116.687 169.779 116.687ZM169.779 124.198C167.952 124.198 166.463 122.71 166.463 120.882C166.463 119.055 167.952 117.566 169.779 117.566C171.606 117.566 173.095 119.055 173.095 120.882C173.095 122.71 171.606 124.198 169.779 124.198Z" fill="#553597"/>
<path d="M172.607 123.328L171.998 123.966L177.474 129.194L178.084 128.556L172.607 123.328Z" fill="#553597"/>
<path d="M98.5377 50.6201C94.7367 48.5032 90.2962 49.7574 86.4924 52.0176C84.3424 53.2938 82.3992 54.8952 80.8914 56.3864C79.0805 58.1808 77.5066 60.2123 76.2249 62.4146C75.6102 63.4703 75.0424 64.5122 74.3947 65.5376C73.7414 66.5712 73.1791 67.8171 73.8324 68.9941C74.4966 70.1876 76.1009 70.3888 77.4653 70.4191C81.5006 70.5156 85.58 70.3502 89.4886 69.3304C93.3943 68.3133 97.1458 66.3893 99.847 63.3904C101.272 61.811 102.413 59.8705 102.573 57.7481C102.791 54.8732 101.06 52.0203 98.5405 50.6146L98.5377 50.6201Z" fill="#6F46BE"/>
<path d="M96.7241 28.627C96.7296 28.7565 96.7434 28.8833 96.7764 29.0018C96.7626 28.875 96.7434 28.751 96.7241 28.627Z" fill="#553597"/>
<path d="M99.1828 26.5259C98.5295 26.3606 97.7963 26.5673 97.3277 27.0496C96.9446 27.4411 96.7048 28.0585 96.7268 28.6263C96.7461 28.7503 96.7627 28.8771 96.7792 29.0012C96.7461 28.8799 96.7324 28.7531 96.7268 28.6263C96.3299 25.914 95.0978 23.3258 93.2318 21.3164C92.5454 20.5749 91.7516 19.8969 90.8062 19.5385C89.8607 19.1802 88.7389 19.1802 87.8899 19.7315C87.0409 20.28 86.6799 21.3412 87.0906 22.2673C85.0067 20.0788 81.8314 18.9817 78.838 19.4228C77.8071 19.5744 76.7238 19.952 76.1395 20.8175C75.4339 21.8677 75.7012 23.3423 76.4372 24.3705C77.1731 25.3986 78.0386 26.1566 79.1219 26.8126C78.2178 26.5811 77.2944 26.3495 76.3655 26.4212C75.4366 26.4929 74.4829 26.9284 74.0281 27.7443C73.4438 28.7944 73.8379 30.1092 74.3644 31.187C75.4035 33.3094 76.9361 35.1892 78.8077 36.6336C80.9824 34.7565 84.1468 34.1473 86.8949 34.9825C90.2135 35.9913 92.5895 38.8828 94.4446 41.8155C94.8167 42.4054 95.1971 43.0228 95.7814 43.4087C96.363 43.7946 97.2175 43.869 97.7191 43.3812C98.0719 43.0366 98.1684 42.5129 98.2456 42.0278C98.4578 40.6827 98.3255 39.1915 98.9016 37.9566C99.9435 35.7295 100.638 33.3424 100.952 30.9031C101.063 30.0458 101.123 29.161 100.878 28.3341C100.633 27.5072 100.021 26.7409 99.1828 26.5287V26.5259Z" fill="#553597"/>
<path d="M83.5734 63.0702C82.5674 60.8871 81.418 58.7372 80.2024 56.6975C80.2024 56.6919 80.1969 56.6864 80.1941 56.6809C76.2167 50.005 71.5143 44.5226 68.667 43.0369C65.1416 41.1956 59.8824 42.9266 59.1685 46.8407C58.835 48.6571 58.937 50.4929 59.3063 52.301C59.604 53.7702 60.0809 55.2228 60.6404 56.6285C60.8747 57.2184 61.1283 57.8055 61.3846 58.3816C61.6713 59.0211 61.9745 59.6826 62.2915 60.3607C62.4403 60.6832 62.5919 61.0057 62.7463 61.3364C66.1807 68.6188 86.0046 69.1259 85.1859 66.9319C84.7063 65.6474 84.1633 64.3547 83.5707 63.0729L83.5734 63.0702Z" fill="#6F46BE"/>
<path d="M82.6886 68.0867C82.6555 68.0757 82.6197 68.0619 82.5756 68.0454L82.2862 68.8778C82.424 68.9247 82.4984 68.9522 82.5012 68.955L82.6197 68.9991L82.741 68.9743C82.8815 68.9467 97.0024 66.1986 109.756 69.9859L110.007 69.1397C97.675 65.4764 84.1191 67.8221 82.6886 68.0867Z" fill="#553597"/>
<path d="M181.72 141.31C181.72 141.31 172.855 143.821 169.503 144.535C168.974 146.754 169.845 150.155 170.664 152.25C172.544 151.988 175.551 151.285 177.332 153.769C180.217 157.799 180.937 165.442 182.574 164.921C187.687 163.298 185.78 150.37 184.862 146.508C183.58 141.12 181.72 141.31 181.72 141.31Z" fill="white"/>
<path d="M181.673 140.872L181.598 140.886C181.51 140.91 172.709 143.399 169.412 144.105L169.139 144.163L169.076 144.433C168.536 146.707 169.374 150.153 170.256 152.41L170.383 152.735L170.727 152.688C170.884 152.666 171.05 152.642 171.221 152.617C173.026 152.344 175.498 151.969 176.973 154.028C178.335 155.93 179.225 158.736 179.939 160.988C180.336 162.242 180.678 163.323 181.044 164.094C181.204 164.433 181.656 165.39 182.411 165.39C182.505 165.39 182.604 165.376 182.709 165.343C185.113 164.579 186.361 161.625 186.422 156.561C186.472 152.504 185.736 148.27 185.292 146.409C183.96 140.808 181.907 140.85 181.675 140.875L181.673 140.872ZM185.537 156.55C185.499 159.742 184.928 163.711 182.439 164.502C182.37 164.527 182.158 164.389 181.841 163.717C181.502 163 181.168 161.942 180.78 160.72C180.046 158.408 179.134 155.527 177.69 153.513C176.54 151.908 174.936 151.514 173.428 151.514C172.585 151.514 171.775 151.638 171.088 151.74C171.041 151.748 170.997 151.754 170.953 151.76C170.151 149.59 169.553 146.768 169.878 144.902C173.224 144.157 180.967 141.977 181.772 141.751C181.99 141.784 183.379 142.176 184.432 146.608C184.865 148.43 185.587 152.575 185.537 156.545V156.55Z" fill="#553597"/>
<path d="M70.0892 150.902C70.0892 150.902 71.1311 155.789 70.0203 157.796C68.9095 159.802 64.2539 160.307 59.5295 160.932C54.8051 161.558 55.4308 164.689 55.4308 164.689H82.876L79.8192 150.902H70.0919H70.0892Z" fill="white"/>
<path d="M69.5738 150.486L69.6813 150.99C69.6923 151.037 70.6791 155.748 69.6538 157.595C68.7028 159.309 64.3973 159.874 60.2325 160.42L59.4717 160.519C57.5919 160.767 56.2716 161.409 55.5494 162.426C54.7859 163.499 54.9954 164.587 55.0064 164.632L55.0753 164.965H83.3805L80.15 150.486H69.5738ZM55.8057 164.13C55.8168 163.827 55.8994 163.361 56.2385 162.892C56.8256 162.079 57.9502 161.558 59.582 161.343L60.3427 161.244C64.9128 160.646 69.2293 160.078 70.3842 157.997C71.3517 156.252 70.8307 152.652 70.5937 151.318H79.483L82.3413 164.13H55.8085H55.8057Z" fill="#553597"/>
<path d="M68.35 103.862C63.4519 103.561 59.6012 107.991 60.5797 112.801L68.2535 150.53H82.9698L77.6251 121.266L126.989 120.326L125.41 95.2593L68.35 103.862Z" fill="white"/>
<path d="M68.2783 103.426C64.8273 103.991 62.4045 105.254 61.0732 107.18C60.0037 108.732 59.6895 110.653 60.1443 112.889L67.8897 150.971H83.4963L78.1516 121.695L127.458 120.755L125.82 94.749L68.2811 103.423L68.2783 103.426ZM77.0987 120.835L82.4406 150.089H68.6146L61.0125 112.712C60.6073 110.719 60.8719 109.027 61.8008 107.682C62.9888 105.959 65.216 104.821 68.4161 104.297L124.999 95.7661L126.518 119.893L77.096 120.835H77.0987Z" fill="#553597"/>
<path d="M136.069 148.28C136.069 148.28 138.64 119.027 137.868 99.1343L112.085 102.511L116.983 153.917C117.634 160.734 123.778 165.668 130.572 164.832L173.88 158.633L170.344 143.595L136.066 148.275L136.069 148.28Z" fill="white"/>
<path d="M136.554 147.77C136.898 143.647 139.015 117.315 138.309 99.1176L138.29 98.6353L111.606 102.13L116.545 153.961C116.87 157.376 118.524 160.441 121.198 162.591C123.461 164.408 126.203 165.37 129.059 165.37C129.58 165.37 130.106 165.337 130.636 165.273L174.423 159.008L170.686 143.112L136.556 147.773L136.554 147.77ZM130.517 164.4C127.347 164.791 124.235 163.903 121.746 161.905C119.257 159.907 117.722 157.057 117.419 153.878L112.562 102.894L137.444 99.6358C138.147 119.264 135.652 147.952 135.628 148.244L135.578 148.796L170.005 144.093L173.34 158.272L130.517 164.4Z" fill="#553597"/>
<path d="M99.0615 99.0799C99.0615 99.0799 106.449 107.264 108.08 110.006C112.085 116.732 112.085 120.607 112.085 120.607L113.805 120.574L112.085 102.509L99.0615 99.0771V99.0799Z" fill="#553597"/>
<path d="M95.0123 47.974C74.4773 51.3395 100.065 99.0799 100.065 99.0799C100.065 99.0799 102.444 103.815 112.085 108.102C117.281 110.411 126.377 110.232 133.659 109.576C139.627 109.039 143.541 103.077 141.647 97.393C135.526 79.0135 120.363 43.8201 95.0123 47.9768V47.974Z" fill="#6F46BE"/>
<path d="M101.851 48.1276L94.8332 42.9346L90.1226 44.2438L91.1728 47.3834C91.4677 48.2626 91.2665 49.2494 90.605 49.8972C90.2521 50.2417 90.084 50.5918 90.1391 50.9198C90.3376 52.0692 93.2401 52.5267 96.6221 51.9452C100.004 51.3608 102.584 49.9551 102.386 48.8056C102.339 48.541 102.151 48.315 101.848 48.1276H101.851Z" fill="white"/>
<path d="M101.851 48.1276L94.8332 42.9346L90.1226 44.2438L91.1728 47.3834C91.4677 48.2626 91.2665 49.2494 90.605 49.8972C90.2521 50.2417 90.084 50.5918 90.1391 50.9198C90.2797 51.7302 91.7654 52.1987 93.8134 52.1987C94.6706 52.1987 95.6243 52.1161 96.6221 51.9452C100.004 51.3608 102.584 49.9551 102.386 48.8056C102.339 48.541 102.151 48.315 101.848 48.1276H101.851ZM96.4733 51.0741C95.5609 51.2313 94.643 51.3139 93.8161 51.3139C92.1017 51.3139 91.2279 50.9611 91.0294 50.7682C91.057 50.7186 91.1121 50.6359 91.2251 50.5256C92.1099 49.6574 92.4186 48.315 92.0107 47.1022L91.2555 44.8447L94.6541 43.8993L101.327 48.836L101.358 48.858L101.391 48.8773C101.446 48.9104 101.482 48.9407 101.504 48.96C101.308 49.3872 99.6789 50.5201 96.476 51.0714L96.4733 51.0741Z" fill="#553597"/>
<path d="M75.7591 144.835H67.1841V145.717H75.7591V144.835Z" fill="#553597"/>
<path d="M89.4831 26.6343C84.3976 26.0362 79.6842 30.5897 78.9537 36.7998C78.2233 43.0127 81.7542 48.531 86.8397 49.1291C91.9252 49.7272 96.6386 45.1737 97.369 38.9636C98.0995 32.7535 94.5686 27.2325 89.4831 26.6343Z" fill="white"/>
<path d="M89.5355 26.1957C84.2157 25.5728 79.2735 30.3055 78.5183 36.7499C77.7602 43.1943 81.4731 48.9441 86.7901 49.567C87.1099 49.6056 87.4296 49.6221 87.7466 49.6221C90.0096 49.6221 92.2147 48.6822 94.0449 46.9154C96.1067 44.9253 97.4435 42.1193 97.8074 39.0128C98.5654 32.5684 94.8525 26.8186 89.5355 26.1957ZM96.9308 38.9109C96.589 41.8133 95.3459 44.4319 93.433 46.2814C91.5421 48.1089 89.2185 48.9634 86.8921 48.6905C82.0574 48.1227 78.6919 42.8111 79.392 36.8518C80.0508 31.2399 84.0806 27.0226 88.5873 27.0226C88.8657 27.0226 89.1496 27.0392 89.4307 27.0722C94.2654 27.64 97.6309 32.9516 96.9308 38.9109Z" fill="#553597"/>
<path d="M94.7422 38.2074C93.8877 39.1583 93.7058 40.3904 94.3398 40.9583C94.9737 41.5288 96.1783 41.2201 97.0355 40.2692C97.89 39.3182 98.0719 38.0861 97.4379 37.5183C96.8039 36.9477 95.5994 37.2564 94.7422 38.2074Z" fill="white"/>
<path d="M95.1088 37.3948L95.5278 37.9957C96.1562 37.5574 96.8398 37.4719 97.1898 37.7889C97.4765 38.0453 97.4627 38.467 97.4296 38.6958C97.3635 39.1451 97.1264 39.6164 96.7599 40.0216C96.3933 40.4295 95.9495 40.7134 95.5112 40.8264C95.2879 40.8843 94.869 40.9422 94.5823 40.6831L94.0917 41.2289C94.3701 41.4797 94.7312 41.6093 95.1391 41.6093C95.3155 41.6093 95.5002 41.5844 95.6904 41.5376C96.2692 41.3887 96.8398 41.0249 97.3029 40.5122C97.7632 39.9995 98.0664 39.3904 98.1518 38.8005C98.2455 38.1555 98.0774 37.6015 97.6777 37.2404C97.063 36.6864 96.0294 36.747 95.106 37.3893L95.1088 37.3948Z" fill="#553597"/>
<path d="M92.6336 26.4435C89.6374 24.594 85.5911 24.7263 82.7162 26.7688C81.3242 27.7583 80.241 29.1751 79.5684 30.7655C79.0557 31.9811 78.2371 34.5803 78.9317 35.8152C79.4278 35.6029 79.9378 33.8995 80.365 33.3786C81.0183 32.5875 81.859 31.9535 82.8016 31.5759C84.6732 30.8261 86.9004 31.1018 88.5459 32.2843C90.1915 33.4668 91.2058 35.5203 91.1617 37.582C91.1507 38.1002 91.1121 38.7066 91.498 39.0374C91.8894 39.3737 92.4765 39.2193 92.9616 39.0457C94.3839 38.5385 95.8062 38.0313 97.2285 37.5214C97.7329 37.3422 98.2676 37.141 98.5984 36.711C99.2655 35.8455 98.7969 34.5831 98.2952 33.6046C96.8757 30.851 95.2301 28.0477 92.6281 26.4408L92.6336 26.4435Z" fill="#553597"/>
<path d="M67.6251 35.3385C67.92 34.7431 68.1543 34.0981 68.1267 33.4366C68.0964 32.775 67.7546 32.0942 67.151 31.8186C66.5473 31.5429 65.7066 31.8186 65.5082 32.4498C65.5385 31.8158 64.9707 31.2177 64.334 31.2177C63.7 31.2177 63.033 31.8241 63.0633 32.4581C62.9448 31.8048 62.3962 31.2508 61.743 31.124C61.0897 30.9972 60.3758 31.3059 60.0202 31.8682C59.3753 31.0468 57.9502 31.3335 57.3273 32.1714C56.7043 33.0093 56.6823 34.1422 56.776 35.1841C57.0709 38.4173 58.7027 41.6202 60.6294 44.2333C62.5699 44.6936 64.6399 44.6026 66.5336 43.9769C67.162 43.7675 67.8483 43.4202 68.0082 42.7752C66.4867 41.397 65.9905 39.0375 66.732 37.1218C66.9718 36.5044 67.3274 35.9394 67.6223 35.344L67.6251 35.3385Z" fill="white"/>
<path d="M72.3466 35.2722C71.6685 35.2556 71.0924 36.281 71.0621 37.5655C71.0318 38.8472 71.5555 39.9001 72.2363 39.9167C72.9144 39.9332 73.4905 38.9078 73.5208 37.6234C73.5511 36.3416 73.0274 35.2887 72.3466 35.2722Z" fill="#553597"/>
<path d="M47.5999 43.7372L72.2364 39.9169L72.3466 35.2724L47.9224 30.2778L47.5999 43.7372Z" fill="#553597"/>
<path d="M47.9225 30.2772C46.3734 30.2413 45.0448 33.2237 44.9566 36.9393C44.8684 40.6577 46.0509 43.7007 47.6 43.7365C49.149 43.7724 50.4776 40.79 50.5658 37.0744C50.654 33.356 49.4715 30.313 47.9225 30.2772Z" fill="#553597"/>
<path d="M47.8811 32.0249C47.8811 32.0249 47.8646 32.0249 47.8591 32.0249C46.6683 32.0249 45.6898 34.1804 45.6236 36.9533C45.5575 39.7455 46.445 41.9561 47.6441 41.9837C47.6523 41.9837 47.6606 41.9837 47.6661 41.9837C48.8569 41.9837 49.8354 39.8282 49.9015 37.0553C49.9677 34.2631 49.0801 32.0525 47.8811 32.0249ZM49.681 37.0498C49.6204 39.616 48.6998 41.7632 47.6661 41.7632C47.6606 41.7632 47.6551 41.7632 47.6496 41.7632C46.6077 41.7384 45.7808 39.536 45.8442 36.9588C45.9048 34.3926 46.8254 32.2454 47.8591 32.2454C47.8646 32.2454 47.8701 32.2454 47.8756 32.2454C48.9175 32.2702 49.7444 34.4726 49.681 37.0525V37.0498Z" fill="white"/>
<path d="M46.4726 32.1441C44.8188 32.1055 43.4268 34.2334 43.3634 36.9016C43.3 39.5697 44.5872 41.7638 46.2411 41.8024C47.8949 41.841 49.2869 39.7131 49.3503 37.0449C49.4137 34.3767 48.1264 32.1827 46.4726 32.1441Z" fill="#553597"/>
<path d="M19.9618 45.7323L46.2411 41.8017L46.4726 32.1434L20.4111 26.9614L19.9618 45.7323Z" fill="#553597"/>
<path d="M20.4111 26.9614C18.2501 26.9091 16.3978 31.0712 16.2738 36.2532C16.1498 41.4379 17.8008 45.68 19.9618 45.7323C22.1228 45.7847 23.9751 41.6226 24.0991 36.4406C24.2232 31.2559 22.5721 27.0138 20.4111 26.9614Z" fill="#553597"/>
<path d="M20.3725 28.5161C20.3725 28.5161 20.3477 28.5161 20.3367 28.5161C18.4679 28.5161 16.927 31.9037 16.8223 36.267C16.7176 40.6579 18.1123 44.1337 20.0004 44.1778C20.0114 44.1778 20.0252 44.1778 20.0362 44.1778C21.9051 44.1778 23.4459 40.7902 23.5506 36.4269C23.6554 32.036 22.2606 28.5602 20.3725 28.5161ZM23.2033 36.4186C23.1068 40.4512 21.6597 43.8305 20.0335 43.8305C20.0252 43.8305 20.0142 43.8305 20.0059 43.8305C18.3686 43.7919 17.0704 40.3299 17.1669 36.2753C17.2633 32.2427 18.7104 28.8634 20.3367 28.8634C20.3449 28.8634 20.356 28.8634 20.3642 28.8634C22.0015 28.902 23.2998 32.364 23.2033 36.4186Z" fill="white"/>
<path d="M20.0665 32.5605C20.0665 32.5605 20.0555 32.5605 20.0472 32.5605C18.6994 32.5605 17.5775 36.1052 17.5279 36.2568L17.5196 36.2844L17.5279 36.312C17.5692 36.4663 18.5285 40.0937 19.8846 40.1268C19.8901 40.1268 19.8956 40.1268 19.9039 40.1268C21.2545 40.1268 22.3736 36.5821 22.4232 36.4305L22.4315 36.4029L22.4232 36.3754C22.3819 36.221 21.4226 32.5936 20.0665 32.5605ZM19.9039 39.9311C19.9039 39.9311 19.8956 39.9311 19.8901 39.9311C18.8951 39.9063 17.9965 37.3208 17.7236 36.2899C18.0433 35.2783 19.0549 32.7562 20.0472 32.7562C20.0527 32.7562 20.0555 32.7562 20.061 32.7562C21.0588 32.7811 21.9546 35.3665 22.2275 36.3974C21.9078 37.409 20.8962 39.9311 19.9039 39.9311Z" fill="white"/>
<path d="M20.0197 34.6187C19.6724 34.6104 19.3719 35.374 19.3471 36.3249C19.3251 37.2759 19.5869 38.0532 19.937 38.0614C20.2843 38.0697 20.5847 37.3062 20.6095 36.3552C20.6316 35.4043 20.3697 34.627 20.0197 34.6187Z" fill="white"/>
<path d="M68.361 35.4875C67.8262 35.5151 67.4073 35.9644 67.1702 36.444C66.9359 36.9236 66.8229 37.4583 66.561 37.9242C66.233 38.5085 65.6955 38.9413 65.1718 39.3575C64.6454 39.7737 64.1079 40.2009 63.7688 40.7798C63.4298 41.3586 63.3361 42.1304 63.7165 42.6844C64.1851 43.3652 65.3868 43.9854 66.2137 43.9275C67.1068 43.8642 67.9006 43.4121 68.1763 42.4777C68.474 41.4716 68.5567 40.5786 69.0501 39.5918C69.5462 38.6022 70.012 37.4528 69.6041 36.4247C69.4001 35.9093 68.915 35.46 68.3637 35.4875H68.361Z" fill="white"/>
<path d="M28.9173 42.0503C30.0391 42.88 31.1251 43.751 32.2966 44.5228C31.2409 43.6021 30.1714 42.6732 28.9173 42.0503Z" fill="white"/>
<path d="M45.3012 50.3687C45.078 47.0803 44.8519 43.7947 44.6287 40.5064C44.5598 39.5003 44.4716 38.4336 43.6805 37.7031C43.3166 37.3669 42.815 37.1932 42.3326 37.3062C41.3789 37.5267 41.1667 38.5411 41.288 39.3818C41.3872 40.0736 41.6546 40.7434 41.649 41.4408C41.6435 42.1381 41.3596 42.7252 40.6678 42.819C38.9891 41.438 37.3133 40.0571 35.6346 38.6761C34.6892 37.8988 33.6969 37.0967 32.5006 36.8431C31.7013 36.6723 30.6759 36.8735 30.4995 37.7583C30.4306 38.0945 30.5243 38.4446 30.709 38.734C31.1032 39.357 31.7674 39.6574 32.3849 40.0047C32.8838 40.2859 33.4791 40.6773 33.73 41.1927C32.2471 39.9468 30.6153 38.8746 28.8815 38.0091C28.3358 37.7362 27.7707 37.4826 27.1643 37.422C26.908 37.3972 26.6406 37.411 26.387 37.4716C25.7089 37.6342 25.323 38.3564 25.5408 39.0207C25.6345 39.3018 25.7834 39.5692 25.968 39.8007C26.3732 40.3107 26.9273 40.6773 27.4703 41.0356C27.9636 41.3608 28.4433 41.7054 28.9174 42.0554C30.1687 42.6784 31.241 43.6073 32.2967 44.5279C31.1252 43.7561 30.0392 42.8851 28.9174 42.0554C28.8925 42.0444 28.8705 42.0306 28.8457 42.0169C27.9664 41.5924 26.9769 41.3305 26.0094 41.3664C25.1659 41.3967 24.6946 42.3724 25.199 43.0477C25.5325 43.4943 25.9873 43.8857 26.4283 44.2247C27.2883 44.8862 28.1538 45.5285 29.0359 46.1432C29.295 46.2286 29.5486 46.3774 29.7746 46.5263C30.6428 47.0996 31.5111 47.6702 32.3794 48.2435C31.2217 47.5985 30.1164 46.8929 29.0386 46.1432C28.6941 46.0301 28.3413 46.0329 28.0408 46.3196C27.7514 46.5952 27.6522 47.0197 27.7542 47.4056C28.5122 50.2391 31.1858 51.915 33.7575 53.1747C35.3342 53.9464 36.9963 54.6852 38.402 55.7078C40.02 56.8847 44.8575 59.5088 46.3624 58.194C46.5664 58.0149 48.54 55.2916 48.7302 55.0876C49.8575 53.8775 45.417 52.028 45.304 50.3769L45.3012 50.3687Z" fill="white"/>
<path d="M29.7745 46.5208C29.5485 46.372 29.2949 46.2204 29.0358 46.1377C30.1136 46.8874 31.2216 47.5931 32.3766 48.2381C31.5083 47.6675 30.64 47.0942 29.7718 46.5208H29.7745Z" fill="white"/>
<path d="M59.7528 31.7691C59.5544 31.5376 59.2457 31.499 58.9673 31.5156C58.5069 31.5404 57.0571 31.9704 57.6525 32.2956C58.1872 32.5878 58.212 33.7096 58.5952 34.0294C58.868 34.2582 59.2429 34.3629 59.5351 34.1975C59.7583 34.0707 59.8989 33.8033 59.9568 33.525C60.0147 33.2438 60.0037 32.9489 59.9899 32.6567C59.9761 32.3452 59.9513 32.0007 59.7528 31.7719V31.7691Z" fill="white"/>
<path d="M61.5472 31.8541C61.1613 31.843 60.0009 31.9974 59.9568 32.5018C59.9375 32.7416 60.2683 33.0669 60.3758 33.2653C60.5412 33.5713 60.6624 33.8993 60.7396 34.2383C60.8168 34.5856 60.8471 34.9495 60.9739 35.283C61.0979 35.6165 61.346 35.9335 61.6933 36.0217C62.1123 36.1264 62.5533 35.8536 62.7793 35.4842C63.0081 35.1176 63.0687 34.6738 63.1294 34.2466C63.1955 33.7532 63.2589 33.2322 63.0577 32.7774C62.8069 32.2096 62.1702 31.8761 61.55 31.8568L61.5472 31.8541Z" fill="white"/>
<path d="M64.0362 32.4528C63.6393 32.5052 63.1294 32.8773 63.1597 33.3211C63.1735 33.5113 63.3361 33.7208 63.3857 33.9082C63.4519 34.1618 63.4629 34.4319 63.485 34.691C63.5263 35.1679 63.6559 35.7081 64.0803 35.9286C64.4469 36.1216 64.9238 35.9838 65.2132 35.6888C65.5026 35.3911 65.6294 34.9694 65.6653 34.5587C65.7094 34.0515 65.6267 33.5168 65.34 33.0951C65.0533 32.6734 64.5434 32.3867 64.0362 32.4528Z" fill="white"/>
<path d="M66.5556 32.731C66.189 32.6758 65.781 32.7337 65.5192 32.9928C64.9762 33.5303 65.7066 34.7762 66.2331 35.0849C66.641 35.3247 67.1978 35.3192 67.5644 35.0187C67.9723 34.6852 68.055 34.0485 67.818 33.5799C67.5809 33.1086 67.0765 32.8081 66.5583 32.731H66.5556Z" fill="white"/>
<path d="M114.831 56.2655C112.03 54.2837 107.904 53.556 103.271 53.5864C101.845 53.5946 100.371 53.6773 98.8713 53.8151C85.3513 55.0638 73.2123 62.9856 73.2123 62.9856C73.2123 62.9856 51.9193 63.5369 62.9751 76.0646C73.5926 88.0961 122.496 68.672 117.488 59.2452C116.846 58.0351 115.942 57.0511 114.828 56.2683L114.831 56.2655Z" fill="#6F46BE"/>
<path d="M47.9143 50.3917C43.9341 50.4331 40.1165 54.4408 41.3321 58.2281C42.5504 62.0153 45.5824 64.9261 48.7329 67.3544C55.4171 72.5061 65.3263 79.488 71.5584 79.7085C75.5111 79.8491 80.3623 70.9515 78.408 68.4846C70.7205 58.7794 53.6668 50.3311 47.9115 50.389L47.9143 50.3917Z" fill="#6F46BE"/>
<path d="M47.9087 49.95C45.6181 49.9721 43.311 51.2097 41.8915 53.1777C40.7118 54.815 40.3645 56.6535 40.913 58.3625C42.2443 62.5108 45.6484 65.5346 48.4655 67.7038L49.0029 67.0065C46.2879 64.9144 43.0106 62.0092 41.7509 58.0923C41.2906 56.659 41.5938 55.0962 42.6054 53.6932C43.8458 51.9732 45.9296 50.8514 47.9169 50.8293C50.3481 50.81 54.9815 52.3949 60.0202 54.9832C65.6928 57.8939 70.9492 61.5351 74.8219 65.2369L75.431 64.6001C67.1399 56.6756 53.4517 49.9473 47.9748 49.9473C47.9528 49.9473 47.9307 49.9473 47.9087 49.9473V49.95Z" fill="#553597"/>
<path d="M73.0799 62.5469C73.0468 62.5469 73.0054 62.5497 72.9586 62.5524L72.9999 63.4345C73.146 63.429 73.226 63.4262 73.2287 63.4262H73.3527L73.4575 63.3545C73.5788 63.2746 85.6599 55.4796 98.9153 54.2557L98.8354 53.3765C86.0266 54.5589 74.312 61.7724 73.0826 62.5469H73.0799Z" fill="#553597"/>
<path d="M71.6107 79.2695H71.5666H71.5611C70.6046 79.2337 69.4966 79.0242 68.2562 78.641C67.6636 78.4729 67.0958 78.2717 66.5555 78.0374C62.0544 76.2485 56.3101 72.6404 49.0002 67.0064C46.2852 64.9143 43.0078 62.0091 41.7482 58.0923L40.9075 58.3624C42.2388 62.5107 45.6429 65.5345 48.4599 67.7038C55.836 73.3902 61.6492 77.0368 66.2165 78.8505C66.7788 79.0931 67.3824 79.3081 68.0026 79.4845C69.3119 79.8897 70.5026 80.1129 71.5308 80.1515C72.6278 80.2701 73.769 80.3252 74.9404 80.3252C83.7525 80.3252 94.3177 77.1747 101.832 73.9387L101.482 73.1283C93.0636 76.7529 80.7949 80.2701 71.6052 79.2723L71.6107 79.2695Z" fill="#553597"/>
<path d="M32.9664 48.5389C31.5082 47.7616 30.2954 46.9374 29.2563 46.0251C29.1653 45.9451 29.0247 45.9534 28.9448 46.0444C28.8649 46.1353 28.8731 46.2759 28.9641 46.3558C30.0281 47.293 31.2712 48.1337 32.7596 48.9275C32.7927 48.9441 32.8285 48.9523 32.8644 48.9523C32.9443 48.9523 33.0187 48.911 33.0601 48.8366C33.118 48.7291 33.0766 48.5968 32.9691 48.5389H32.9664Z" fill="#553597"/>
<path d="M32.3627 44.5204C30.866 43.3407 28.8125 41.7227 27.1945 40.8379C27.087 40.78 26.9547 40.8186 26.8941 40.9261C26.8362 41.0336 26.8748 41.1659 26.9823 41.2265C28.5699 42.0948 30.6041 43.699 32.0898 44.8705C32.4564 45.1599 32.7927 45.4245 33.0876 45.6505C33.129 45.6808 33.1758 45.6974 33.2227 45.6974C33.2888 45.6974 33.355 45.667 33.3963 45.6119C33.4708 45.5154 33.4515 45.3776 33.355 45.3032C33.0628 45.0772 32.7265 44.8126 32.3627 44.5259V44.5204Z" fill="#553597"/>
<path d="M34.3831 41.4077C32.9333 40.3107 31.1278 38.9435 29.7441 37.8272C29.6504 37.75 29.5098 37.7666 29.4354 37.8603C29.3582 37.954 29.3748 38.0946 29.4685 38.169C30.8577 39.2908 32.6659 40.6608 34.1185 41.7578C34.758 42.2429 35.3396 42.6812 35.7971 43.034C35.8357 43.0643 35.8853 43.0809 35.9322 43.0809C35.9984 43.0809 36.0645 43.0505 36.1059 42.9954C36.1803 42.8989 36.161 42.7611 36.0645 42.6867C35.6069 42.3339 35.0254 41.8956 34.3831 41.4105V41.4077Z" fill="#553597"/>
<path d="M177.74 29.5825H120.363V81.9641H149.052H177.74V29.5825Z" fill="white"/>
<path d="M120.055 82.2721H159.938V81.657H120.67V29.8905H177.433V81.657H156.317V82.2721H178.048V29.2754H120.055V82.2721Z" fill="#553597"/>
<path d="M177.74 37.5098H120.363V38.1249H177.74V37.5098Z" fill="#553597"/>
<path d="M156.317 31.2031H123.265V35.9415H156.317V31.2031Z" fill="#6F46BE"/>
<path d="M175.85 30.9928L170.585 35.7295L170.952 36.1367L176.216 31.4001L175.85 30.9928Z" fill="#553597"/>
<path d="M170.964 31.0074L170.597 31.4146L175.861 36.1521L176.227 35.745L170.964 31.0074Z" fill="#553597"/>
<path d="M166.843 30.8955C165.367 30.8955 164.167 32.0969 164.167 33.5713C164.167 35.0457 165.369 36.2471 166.843 36.2471C168.317 36.2471 169.519 35.0457 169.519 33.5713C169.519 32.0969 168.317 30.8955 166.843 30.8955ZM166.843 35.6339C165.707 35.6339 164.782 34.7093 164.782 33.5732C164.782 32.4372 165.707 31.5126 166.843 31.5126C167.979 31.5126 168.904 32.4372 168.904 33.5732C168.904 34.7093 167.979 35.6339 166.843 35.6339Z" fill="#553597"/>
<path d="M163.531 35.6665H157.945V36.2143H163.531V35.6665Z" fill="#553597"/>
<path d="M161.932 45.4704H176.389V41.8335H161.932V45.4704ZM162.635 42.537H175.687V44.7688H162.635V42.537Z" fill="#553597"/>
<path d="M161.932 50.904H176.389V47.2671H161.932V50.904ZM162.635 47.9706H175.687V50.2024H162.635V47.9706Z" fill="#553597"/>
<path d="M161.932 56.3386H176.389V52.7017H161.932V56.3386ZM162.635 53.4052H175.687V55.637H162.635V53.4052Z" fill="#553597"/>
<path d="M161.932 67.2092H176.389V63.5723H161.932V67.2092ZM162.635 64.2758H175.687V66.5076H162.635V64.2758Z" fill="#553597"/>
<path d="M161.932 72.6438H176.389V69.0068H161.932V72.6438ZM162.635 69.7104H175.687V71.9421H162.635V69.7104Z" fill="#553597"/>
<path d="M161.932 78.0793H176.389V74.4424H161.932V78.0793ZM162.635 75.1459H175.687V77.3777H162.635V75.1459Z" fill="#553597"/>
<path d="M122.663 78.1185H158.055V41.8628H122.663V78.1166V78.1185ZM123.374 42.576H157.342V77.4073H123.374V42.576Z" fill="#553597"/>
<path d="M65.2353 86.9814H1.00354V115.934H65.2353V86.9814Z" fill="white"/>
<path d="M45.5437 88.8364H3.17273V92.0145H45.5437V88.8364Z" fill="#6F46BE"/>
<path d="M0.5625 116.376H65.6763V86.541H0.5625V116.376ZM1.44454 87.4231H64.7943V115.494H1.44454V87.4231Z" fill="#553597"/>
<path d="M65.2353 93.5249H1.00354V94.4069H65.2353V93.5249Z" fill="#553597"/>
<path d="M62.6718 100.728H3.84808V102.191H62.6718V100.728Z" fill="#553597"/>
<path d="M62.6718 105.386H3.84808V106.85H62.6718V105.386Z" fill="#553597"/>
<path d="M62.6718 110.044H3.84808V111.508H62.6718V110.044Z" fill="#553597"/>
<path d="M62.423 88.1627L58.1077 92.0454L58.6977 92.7011L63.0129 88.8184L62.423 88.1627Z" fill="#553597"/>
<path d="M58.6989 88.1505L58.1089 88.8062L62.4241 92.6889L63.0141 92.0332L58.6989 88.1505Z" fill="#553597"/>
<path d="M68.5924 130.394H24.4105C21.5797 130.394 19.2836 132.69 19.2836 135.521C19.2836 138.352 21.5797 140.648 24.4105 140.648H68.5896C71.4204 140.648 73.7165 138.352 73.7165 135.521C73.7165 132.687 71.4204 130.394 68.5896 130.394H68.5924Z" fill="#A78ED7"/>
<path d="M60.2957 125.799C57.9804 125.799 56.0978 127.682 56.0978 129.997C56.0978 132.313 57.9804 134.195 60.2957 134.195C62.6111 134.195 64.4937 132.313 64.4937 129.997C64.4937 127.682 62.6111 125.799 60.2957 125.799ZM60.2957 133.31C58.4683 133.31 56.9798 131.825 56.9798 129.995C56.9798 128.164 58.4655 126.679 60.2957 126.679C62.126 126.679 63.6116 128.167 63.6116 129.995C63.6116 131.822 62.126 133.31 60.2957 133.31Z" fill="#553597"/>
<path d="M63.1296 132.448L62.5206 133.086L67.9974 138.315L68.6065 137.677L63.1296 132.448Z" fill="#553597"/>
</svg>
