<svg width="296" height="276" viewBox="0 0 296 276" fill="none" xmlns="http://www.w3.org/2000/svg">
<g clip-path="url(#clip0_539_7628)">
<path d="M271.808 95.4573C218.062 59.8887 229.28 156.493 178.835 158.722C128.391 160.949 137.723 91.7433 77.4964 95.4573C30.1691 98.3775 17.4299 173.11 14.1447 204.989C12.7937 218.103 16.5889 231.298 24.9904 241.47C64.8955 289.784 147.21 202.139 205.887 219.184C271.282 238.179 325.554 131.026 271.808 95.4573Z" fill="#F3F5F7"/>
<path d="M102.437 85.8278V102.794H90.1764L88.1003 92.7355L86.0224 102.794H76.6426L80.1926 62.5586L96.0718 62.759L102.437 85.8278Z" fill="#6F46BE"/>
<path d="M123.877 92.7334H101.633V107.003H123.877V92.7334Z" fill="white"/>
<path d="M123.877 107.352H101.633C101.545 107.352 101.459 107.318 101.397 107.254C101.334 107.192 101.298 107.105 101.298 107.017V92.7335C101.298 92.6454 101.333 92.5591 101.397 92.4969C101.459 92.4347 101.545 92.3984 101.633 92.3984H123.877C123.967 92.3984 124.051 92.4347 124.114 92.4969C124.176 92.5591 124.212 92.6454 124.212 92.7335V107.017C124.212 107.105 124.176 107.192 124.114 107.254C124.051 107.316 123.965 107.352 123.877 107.352ZM101.968 106.682H123.542V93.0687H101.968V106.682Z" fill="#553597"/>
<path d="M112.086 34.1907C117.488 34.1907 121.868 29.8067 121.868 24.4C121.868 18.9934 117.488 14.6094 112.086 14.6094C106.684 14.6094 102.304 18.9934 102.304 24.4C102.304 29.8067 106.684 34.1907 112.086 34.1907Z" fill="#6F46BE"/>
<path d="M112.488 14.6091C116.078 14.6091 118.988 11.6968 118.988 8.10386C118.988 4.51096 116.078 1.59863 112.488 1.59863C108.899 1.59863 105.989 4.51096 105.989 8.10386C105.989 11.6968 108.899 14.6091 112.488 14.6091Z" fill="#6F46BE"/>
<path d="M86.0225 75.4324C89.5742 75.4324 92.4546 72.5494 92.4546 68.9945C92.4546 65.4396 89.5742 62.5566 86.0225 62.5566C82.4707 62.5566 79.5903 65.4396 79.5903 68.9945C79.5903 72.5494 82.4707 75.4324 86.0225 75.4324Z" fill="white"/>
<path d="M87.4292 69.0624H87.2946L81.9342 66.4472C81.8842 66.4403 81.8359 66.4179 81.7979 66.3833C81.7599 66.3488 81.7306 66.3056 81.7168 66.2555C81.703 66.2054 81.703 66.1536 81.7168 66.1035C81.7323 66.0534 81.7599 66.0102 81.7996 65.9774C81.841 65.9117 81.9032 65.8634 81.9774 65.8392C82.0499 65.815 82.1292 65.8167 82.2017 65.8444L87.6294 68.527C87.695 68.5684 87.7433 68.6306 87.7675 68.7049C87.7917 68.7774 87.7899 68.8586 87.7623 68.9294C87.7244 68.9813 87.6743 69.021 87.6139 69.0452C87.5552 69.0694 87.4896 69.0745 87.4275 69.0624H87.4292Z" fill="#553597"/>
<path d="M117.245 98.7685H106.524C101.638 98.7685 96.9507 96.8252 93.4956 93.3671C90.0405 89.9089 88.099 85.2174 88.099 80.3272V55.5829C88.099 50.6927 90.0405 46.0012 93.4956 42.543C96.9507 39.0849 101.638 37.1416 106.524 37.1416H117.245C122.13 37.1416 126.818 39.0849 130.273 42.543C133.728 46.0012 135.669 50.6927 135.669 55.5829V80.3272C135.669 90.5204 130.176 98.7685 117.245 98.7685Z" fill="white"/>
<path d="M117.245 99.1047H106.526C101.55 99.1047 96.7781 97.1269 93.2609 93.6048C89.7419 90.0827 87.7659 85.3083 87.7659 80.3284V55.584C87.7831 50.6092 89.7661 45.8434 93.2799 42.3265C96.7936 38.8096 101.555 36.8249 106.526 36.8076H117.245C122.22 36.8076 126.992 38.7854 130.509 42.3075C134.028 45.8296 136.004 50.6057 136.004 55.584V80.3284C136.004 92.064 129.035 99.1047 117.245 99.1047ZM106.526 37.4761C101.728 37.4761 97.1267 39.3831 93.7337 42.7791C90.3408 46.1751 88.4355 50.7802 88.4355 55.5823V80.3266C88.4355 85.1287 90.3408 89.7338 93.7337 93.1298C97.1267 96.5258 101.728 98.4328 106.526 98.4328H117.245C128.568 98.4328 135.335 91.6598 135.335 80.3266V55.5823C135.335 50.7802 133.429 46.1751 130.036 42.7791C126.643 39.3831 122.042 37.4761 117.245 37.4761H106.526Z" fill="#553597"/>
<path d="M91.4487 55.3813C91.359 55.3813 91.2744 55.345 91.2123 55.2829C91.1501 55.2207 91.1139 55.1343 91.1139 55.0462C91.1139 54.9581 91.1501 54.8717 91.2123 54.8096C91.2744 54.7474 91.3607 54.7111 91.4487 54.7111C103.978 54.5764 109.941 43.1775 110.008 43.0428C110.05 42.9772 110.112 42.9288 110.186 42.9046C110.258 42.8804 110.34 42.8822 110.41 42.9098C110.457 42.9236 110.5 42.9478 110.535 42.9806C110.571 43.0134 110.598 43.0532 110.617 43.0981C110.636 43.143 110.645 43.1914 110.645 43.2397C110.645 43.2881 110.631 43.3365 110.61 43.3796C110.543 43.5144 104.446 55.25 91.4487 55.383V55.3813Z" fill="#6F46BE"/>
<path d="M117.245 37.1424C117.245 37.1424 109.606 54.1085 90.1097 53.6387L88.4339 62.8265L80.1932 62.5588C80.1932 62.5588 79.791 32.8517 108.937 34.5272C108.937 34.5272 137.143 29.5645 140.158 61.4861C143.173 93.4059 144.782 101.991 144.782 101.991H136.809L133.994 89.4502L132.655 101.991H125.151L117.245 37.1442V37.1424Z" fill="#6F46BE"/>
<path d="M98.0821 70.1347C99.5991 70.1347 100.83 68.9031 100.83 67.3847C100.83 65.8664 99.5991 64.6348 98.0821 64.6348C96.5651 64.6348 95.3346 65.8664 95.3346 67.3847C95.3346 68.9031 96.5651 70.1347 98.0821 70.1347Z" fill="#553597"/>
<path d="M101.633 103.329C74.6324 104.402 40.1937 112.382 23.3773 142.829C6.5609 173.273 -20.3067 283.118 29.8094 275.137C79.9255 267.157 98.7524 187.489 98.7524 187.489L204.278 169.518L203.206 124.588L139.087 105.677L101.633 103.329Z" fill="white"/>
<path d="M24.8509 275.876C17.4816 275.876 11.7191 272.925 7.69968 267.158C-2.8865 252.137 0.597932 221.422 3.61294 204.524C7.63237 181.522 15.673 156.106 23.0422 142.695C40.1278 111.848 75.1689 104.069 101.567 102.995C101.767 102.927 101.902 103.13 101.969 103.263C101.969 103.359 101.938 103.453 101.876 103.525C101.814 103.599 101.729 103.648 101.634 103.663C75.3708 104.736 40.5299 112.449 23.6462 143.028C10.6491 166.499 -9.58613 241.337 8.23641 266.753C12.9928 273.594 20.2964 276.276 29.7436 274.801C44.0144 272.521 64.7173 262.596 82.74 228.194C89.4552 215.225 94.7138 201.551 98.4174 187.421C98.4174 187.35 98.445 187.283 98.4968 187.233C98.5468 187.181 98.6158 187.153 98.6866 187.153L203.877 169.249L202.873 124.855L138.953 106.011C138.819 105.943 138.686 105.743 138.751 105.608C138.781 105.525 138.836 105.455 138.909 105.406C138.981 105.358 139.067 105.334 139.154 105.339L203.339 124.25C203.404 124.278 203.458 124.324 203.494 124.385C203.53 124.445 203.546 124.516 203.54 124.585L204.612 169.515C204.612 169.603 204.578 169.69 204.514 169.752C204.452 169.814 204.365 169.85 204.277 169.85L99.0197 187.754C95.285 201.853 90.0282 215.503 83.3423 228.46C73.3585 247.573 55.9398 271.312 29.8765 275.47C28.2145 275.73 26.5335 275.865 24.8509 275.872V275.876Z" fill="#553597"/>
<path d="M139.086 105.677C139.086 105.677 133.191 104.537 124.011 103.8L139.086 105.677Z" fill="white"/>
<path d="M139.086 106.012H139.019C138.952 106.012 133.056 104.872 123.944 104.134C123.744 104.067 123.609 103.934 123.677 103.732C123.744 103.531 123.811 103.396 124.011 103.464C133.124 104.201 139.086 105.341 139.154 105.341C139.231 105.378 139.297 105.435 139.344 105.506C139.39 105.576 139.418 105.659 139.421 105.744C139.39 105.811 139.344 105.872 139.287 105.918C139.228 105.965 139.159 105.998 139.086 106.012Z" fill="#553597"/>
<path d="M112.219 109.164C112.219 109.164 145.719 93.6061 147.929 98.434C150.14 103.262 129.974 117.48 129.974 117.48L112.219 109.164Z" fill="white"/>
<path d="M129.974 117.815C129.907 117.815 129.839 117.815 129.839 117.748L112.084 109.5C112.02 109.472 111.965 109.426 111.931 109.365C111.894 109.305 111.879 109.236 111.884 109.165C111.884 109.03 111.951 108.964 112.084 108.897C112.219 108.83 120.593 104.94 129.103 101.654C146.723 95.016 147.862 97.4965 148.264 98.3014C150.542 103.264 132.252 116.273 130.174 117.748L129.974 117.815ZM113.023 109.165L129.907 117.078C135.602 113.055 149.403 102.324 147.662 98.5692C147.26 97.7642 144.714 96.4894 129.372 102.324C122.203 105.007 115.168 108.225 113.023 109.165Z" fill="#553597"/>
<path d="M132.748 91.4728L132.682 91.4573C129.834 90.7991 126.992 92.5766 126.334 95.4267L108.91 170.962C108.253 173.812 110.029 176.657 112.878 177.316L112.944 177.331C115.791 177.989 118.634 176.212 119.291 173.36L136.715 97.826C137.373 94.9759 135.597 92.1309 132.749 91.4728H132.748Z" fill="#A78ED7"/>
<path d="M34.366 201.976C34.366 201.976 60.8314 97.4969 112.219 109.165C139.02 115.268 150.008 126.601 151.012 131.965C152.017 137.33 140.159 131.965 140.159 131.965C140.159 131.965 156.573 141.555 135.268 140.952C135.268 140.952 151.214 154.296 113.158 143.97C113.158 143.97 130.579 155.973 130.177 160.331C129.774 164.691 106.593 154.766 106.593 154.766C106.593 154.766 98.0849 185.278 96.6767 190.173L34.366 201.976Z" fill="white"/>
<path d="M34.3654 202.311H34.2981C34.0979 202.311 34.0306 202.108 34.0306 201.908C34.0306 201.708 40.7976 175.486 53.7291 151.077C61.3003 136.726 69.5411 125.728 78.184 118.485C88.9704 109.432 100.495 106.147 112.286 108.829C127.294 112.25 136.406 117.078 141.497 120.565C146.59 124.051 150.743 128.611 151.347 131.964C151.467 132.322 151.474 132.707 151.366 133.068C151.257 133.427 151.039 133.745 150.743 133.976C149.269 135.184 145.45 134.244 142.769 133.374C144.713 134.781 146.923 136.927 146.454 138.671C145.985 140.414 142.567 141.42 136.135 141.287C137.409 142.427 139.62 144.907 138.681 146.65C137.742 148.395 129.569 148.662 114.896 144.772C119.184 147.857 130.842 156.575 130.507 160.331C130.499 160.553 130.433 160.768 130.314 160.956C130.197 161.144 130.033 161.3 129.836 161.403C126.554 163.416 109.535 156.375 106.788 155.168C105.849 158.655 98.2794 185.747 97.0058 190.307C96.992 190.354 96.9678 190.395 96.935 190.432C96.9022 190.468 96.8625 190.497 96.8177 190.516C96.7728 190.535 96.7245 190.544 96.6761 190.542C96.6278 190.542 96.5795 190.53 96.5364 190.508C96.4587 190.478 96.3948 190.419 96.3586 190.345C96.3224 190.271 96.3137 190.186 96.3362 190.105C97.7427 185.277 106.185 154.965 106.253 154.63L106.387 154.43H106.722C112.15 156.777 126.823 162.41 129.503 160.8C129.603 160.75 129.688 160.674 129.746 160.579C129.805 160.484 129.838 160.376 129.838 160.263C130.173 156.843 117.778 147.522 112.954 144.237C112.819 144.169 112.819 143.969 112.887 143.834C112.954 143.7 113.087 143.567 113.222 143.632C133.255 149.065 137.409 147.657 138.146 146.315C138.883 144.974 136.135 142.091 135.064 141.219C135.012 141.167 134.972 141.103 134.948 141.034C134.924 140.964 134.919 140.889 134.929 140.817C134.957 140.753 135.003 140.697 135.064 140.663C135.124 140.627 135.193 140.609 135.264 140.615C143.437 140.817 145.448 139.609 145.783 138.469C146.117 137.329 141.763 133.374 139.953 132.301C139.873 132.256 139.815 132.182 139.789 132.094C139.763 132.005 139.775 131.91 139.818 131.831C139.863 131.75 139.937 131.691 140.025 131.667C140.113 131.641 140.208 131.651 140.288 131.696C142.498 132.636 148.663 134.781 150.337 133.441C150.739 133.171 150.806 132.702 150.672 132.031C149.667 126.466 138.277 115.468 112.146 109.5C100.556 106.884 89.2327 110.103 78.5792 119.023C70.0709 126.198 61.8957 137.061 54.3245 151.345C41.4603 175.687 34.7607 201.841 34.6934 202.108C34.6657 202.174 34.6191 202.228 34.5587 202.264C34.4983 202.3 34.4293 202.316 34.3585 202.311H34.3654Z" fill="#553597"/>
<path d="M139.086 138.872H138.886C137.68 138 137.077 136.994 137.145 135.922C137.212 134.849 138.686 132.769 139.49 132.099L115.235 120.699C115.189 120.685 115.146 120.661 115.111 120.628C115.075 120.595 115.045 120.555 115.027 120.51C115.008 120.465 114.999 120.419 114.999 120.369C114.999 120.32 115.013 120.274 115.033 120.23C115.092 120.167 115.166 120.12 115.249 120.097C115.332 120.073 115.42 120.073 115.503 120.096L140.293 131.697C140.427 131.764 140.493 131.831 140.493 131.964C140.488 132.089 140.441 132.208 140.358 132.301C140.291 132.301 137.813 133.977 137.813 135.854C137.813 137.732 138.282 137.532 139.286 138.269C140.291 139.007 139.421 138.537 139.354 138.737L139.086 138.872Z" fill="#553597"/>
<path d="M135.267 141.286H135.133L109.606 132.366C109.561 132.361 109.52 132.345 109.482 132.319C109.445 132.295 109.416 132.261 109.395 132.221C109.375 132.179 109.366 132.136 109.368 132.091C109.368 132.046 109.382 132.003 109.404 131.963C109.409 131.92 109.425 131.877 109.451 131.841C109.476 131.805 109.511 131.775 109.551 131.754C109.59 131.734 109.635 131.725 109.68 131.727C109.725 131.729 109.768 131.741 109.806 131.763L135.4 140.681C135.535 140.749 135.668 140.951 135.602 141.084C135.564 141.139 135.514 141.188 135.457 141.222C135.398 141.257 135.334 141.277 135.267 141.286Z" fill="#553597"/>
<path d="M113.157 144.304H113.023L106.591 142.024C106.534 141.98 106.492 141.922 106.471 141.854C106.451 141.787 106.451 141.716 106.473 141.649C106.496 141.581 106.539 141.524 106.596 141.483C106.653 141.441 106.722 141.419 106.793 141.419L113.292 143.632C113.375 143.675 113.44 143.746 113.477 143.83C113.513 143.917 113.52 144.012 113.494 144.102C113.466 144.165 113.42 144.221 113.359 144.257C113.299 144.293 113.23 144.309 113.159 144.304H113.157Z" fill="#553597"/>
<path d="M137.076 97.1614C156.576 97.1614 172.386 81.3388 172.386 61.8214C172.386 42.304 156.577 26.4814 137.076 26.4814C117.574 26.4814 101.767 42.304 101.767 61.8214C101.767 81.3388 117.576 97.1614 137.076 97.1614Z" fill="#A78ED7"/>
<path d="M137.076 91.0582C153.024 91.0582 165.952 78.1185 165.952 62.156C165.952 46.1935 153.024 33.2539 137.076 33.2539C121.128 33.2539 108.199 46.1935 108.199 62.156C108.199 78.1185 121.128 91.0582 137.076 91.0582Z" fill="white"/>
<path d="M137.076 91.4604C131.282 91.4742 125.615 89.7659 120.791 86.5547C115.967 83.3418 112.203 78.7713 109.977 73.4164C107.751 68.0634 107.161 62.1679 108.284 56.4797C109.406 50.7915 112.19 45.5628 116.282 41.4569C120.373 37.351 125.591 34.5544 131.272 33.4178C136.953 32.2812 142.844 32.8581 148.197 35.0743C153.551 37.2905 158.127 41.0458 161.348 45.8668C164.568 50.6879 166.287 56.3554 166.287 62.1541C166.287 69.9151 163.212 77.3583 157.734 82.853C152.256 88.3477 144.828 91.4414 137.074 91.4604H137.076ZM137.076 33.5888C131.412 33.575 125.872 35.2453 121.157 38.3874C116.442 41.5277 112.764 45.9999 110.591 51.2355C108.419 56.4711 107.846 62.2335 108.947 67.7939C110.048 73.3543 112.775 78.4638 116.78 82.4713C120.786 86.4804 125.889 89.2079 131.445 90.3117C137 91.4138 142.757 90.842 147.988 88.6656C153.219 86.4891 157.686 82.8098 160.825 78.0907C163.964 73.3715 165.631 67.8267 165.619 62.1575C165.602 54.5865 162.589 47.3299 157.24 41.9768C151.892 36.6238 144.642 33.6078 137.078 33.5905L137.076 33.5888Z" fill="#553597"/>
<path d="M137.076 68.1228C123.34 68.1228 112.017 62.1548 111.884 62.0875C111.842 62.0564 111.808 62.0166 111.785 61.97C111.763 61.9234 111.751 61.8715 111.751 61.8197C111.756 61.6954 111.803 61.5779 111.885 61.4846C112.02 61.4846 123.343 55.5166 137.077 55.5166C150.811 55.5166 162.069 61.4846 162.202 61.4846C162.283 61.5779 162.331 61.6954 162.336 61.8197C162.336 61.8715 162.324 61.9234 162.3 61.97C162.278 62.0166 162.243 62.0564 162.202 62.0875C162.067 62.1548 150.744 68.1228 137.077 68.1228H137.076ZM112.821 61.8197C115.299 63.0271 125.283 67.4526 137.076 67.4526C148.868 67.4526 158.783 63.0271 161.263 61.8197C158.785 60.6123 148.801 56.1868 137.076 56.1868C125.35 56.1868 115.301 60.6123 112.821 61.8197Z" fill="#553597"/>
<path d="M137.88 67.7876C141.173 67.7876 143.843 65.1154 143.843 61.8196C143.843 58.5238 141.173 55.8516 137.88 55.8516C134.587 55.8516 131.917 58.5238 131.917 61.8196C131.917 65.1154 134.587 67.7876 137.88 67.7876Z" fill="#553597"/>
<path d="M159.187 53.5707C159.118 53.5759 159.047 53.5604 158.987 53.5241C158.926 53.4878 158.88 53.4343 158.852 53.3703C156.605 47.5785 152.156 42.9129 146.48 40.3996C140.804 37.8846 134.361 37.7274 128.568 39.9591C128.524 39.9902 128.476 40.0127 128.423 40.0213C128.371 40.03 128.317 40.0265 128.266 40.011C128.215 39.9954 128.169 39.9678 128.131 39.9298C128.093 39.8918 128.064 39.8469 128.048 39.7968C128.033 39.7467 128.027 39.6931 128.034 39.6396C128.043 39.5878 128.062 39.5377 128.093 39.4945C128.124 39.4513 128.165 39.4168 128.212 39.3926C128.259 39.3684 128.312 39.3563 128.364 39.3563C131.308 38.1938 134.453 37.6289 137.618 37.698C140.781 37.7671 143.9 38.4667 146.79 39.757C152.632 42.3429 157.209 47.1415 159.52 53.1026C159.546 53.1924 159.541 53.2874 159.503 53.3738C159.467 53.4602 159.401 53.5293 159.318 53.5724H159.184L159.187 53.5707Z" fill="#553597"/>
<path d="M146.725 125.259C146.725 125.259 142.236 128.881 146.725 131.964V125.259Z" fill="white"/>
<path d="M146.725 132.301H146.525C145.186 131.294 144.449 130.221 144.449 129.014C144.449 127.807 146.459 125.058 146.525 124.991C146.596 124.937 146.685 124.915 146.773 124.927C146.861 124.939 146.941 124.987 146.994 125.058C147.034 125.086 147.065 125.126 147.084 125.171C147.103 125.215 147.11 125.264 147.103 125.312C147.096 125.361 147.077 125.407 147.046 125.443C147.015 125.482 146.975 125.511 146.929 125.526C146.929 125.526 145.053 127.136 145.12 128.947C145.187 130.759 145.722 130.892 146.929 131.697C146.999 131.75 147.046 131.83 147.06 131.918C147.072 132.006 147.049 132.096 146.996 132.166C146.929 132.301 146.861 132.301 146.728 132.301H146.725Z" fill="#553597"/>
<path d="M134.53 147.052H134.33C132.946 146.114 132.276 145.109 132.319 144.035C132.454 142.157 135 140.951 135.134 140.884C135.217 140.862 135.305 140.862 135.388 140.884C135.471 140.908 135.545 140.955 135.604 141.017C135.624 141.062 135.636 141.109 135.638 141.157C135.638 141.205 135.631 141.254 135.611 141.299C135.59 141.344 135.562 141.383 135.526 141.416C135.49 141.449 135.447 141.473 135.402 141.487C135.402 141.487 133.124 142.627 132.989 144.102C132.854 145.577 133.524 145.645 134.73 146.45C134.801 146.503 134.848 146.583 134.862 146.671C134.874 146.759 134.851 146.849 134.798 146.919C134.73 147.052 134.663 147.052 134.53 147.052Z" fill="#553597"/>
<path d="M123.944 159.123C123.871 159.109 123.802 159.077 123.744 159.03C123.685 158.983 123.638 158.925 123.609 158.855C123.609 158.52 123.14 155.703 124.481 154.832C125.82 153.96 126.089 154.497 127.294 155.235C127.328 155.261 127.359 155.294 127.382 155.332C127.404 155.37 127.418 155.411 127.425 155.454C127.432 155.499 127.428 155.542 127.418 155.586C127.408 155.629 127.389 155.669 127.361 155.703C127.309 155.774 127.233 155.826 127.149 155.85C127.064 155.874 126.974 155.871 126.892 155.838C126.289 155.435 125.35 155.033 124.815 155.368C124.279 155.703 124.146 157.983 124.279 158.721C124.305 158.766 124.317 158.814 124.317 158.866C124.317 158.916 124.299 158.964 124.272 159.007C124.244 159.049 124.205 159.082 124.158 159.103C124.111 159.123 124.061 159.13 124.011 159.123H123.944Z" fill="#553597"/>
<path d="M24.5834 181.32C10.9822 181.32 9.77587 178.237 9.70856 178.035C9.64125 177.834 9.77586 177.7 9.97606 177.632C10.014 177.61 10.0589 177.598 10.102 177.596C10.1452 177.594 10.1918 177.605 10.2315 177.624C10.2712 177.644 10.3057 177.674 10.3316 177.71C10.3575 177.746 10.373 177.789 10.3782 177.834C10.3782 177.902 12.8565 182.797 41.3998 179.51C41.4878 179.51 41.5741 179.546 41.6362 179.608C41.6983 179.672 41.7346 179.757 41.7346 179.845C41.8019 180.047 41.6673 180.18 41.4671 180.18C35.8651 180.871 30.2285 181.253 24.5834 181.32Z" fill="#553597"/>
<path d="M23.2447 188.094C14.0651 188.094 10.5151 186.552 9.0412 185.412C8.55452 185.085 8.21626 184.577 8.10236 184.002C8.03505 183.869 8.16966 183.667 8.36986 183.667C8.57005 183.667 8.70467 183.734 8.77197 183.936C8.83928 184.137 10.1112 189.635 38.6545 186.35C38.7512 186.348 38.8444 186.382 38.9169 186.443C38.9911 186.505 39.0394 186.59 39.0566 186.685C39.0566 186.775 39.0204 186.859 38.9583 186.923C38.8961 186.985 38.8099 187.02 38.7218 187.02C33.5875 187.668 28.4204 188.027 23.2447 188.094Z" fill="#553597"/>
<path d="M112.219 109.163L123.475 107.755L122.603 111.778L112.219 109.163Z" fill="#553597"/>
<path d="M109.204 98.7688L123.877 102.792L124.011 97.8291C124.011 97.8291 111.884 99.5046 109.204 98.7671V98.7688Z" fill="#553597"/>
<path d="M91.4485 104.067C91.4485 104.067 92.5875 108.36 97.0764 109.03L91.4485 104.067Z" fill="white"/>
<path d="M97.0782 109.365C95.6993 109.131 94.4101 108.517 93.3574 107.593C92.3046 106.669 91.528 105.472 91.1155 104.133C91.0482 103.933 91.1828 103.798 91.383 103.731C91.585 103.663 91.7179 103.798 91.7852 103.933C92.1286 105.158 92.8172 106.256 93.7681 107.101C94.719 107.946 95.8909 108.498 97.1456 108.695C97.3457 108.763 97.4804 108.896 97.4131 109.098C97.3975 109.174 97.3561 109.243 97.294 109.293C97.2318 109.341 97.1559 109.367 97.0782 109.365Z" fill="#553597"/>
<path d="M86.5594 75.768C84.6903 75.8733 82.8506 75.2739 81.4009 74.0907C80.6985 73.4447 80.1428 72.6553 79.7734 71.776C79.4041 70.8968 79.2281 69.9468 79.2574 68.9933C79.2471 68.0553 79.4386 67.126 79.82 66.2692C80.2014 65.4125 80.7641 64.649 81.4682 64.0306C82.6072 63.0253 84.6834 61.9508 88.1678 62.488C88.2455 62.5243 88.3111 62.5813 88.3577 62.6521C88.4043 62.723 88.4319 62.8059 88.4353 62.8905C88.4353 63.0926 88.2351 63.1583 88.0332 63.1583C85.4876 62.7558 83.3424 63.2256 81.8686 64.4987C81.2576 65.0825 80.771 65.7821 80.4362 66.5577C80.1013 67.3333 79.9253 68.1676 79.9201 69.0123C79.9132 69.8569 80.0772 70.693 80.3999 71.4738C80.7226 72.2545 81.199 72.961 81.8013 73.5535C83.2751 74.8283 85.4186 75.3638 88.0315 75.0287C88.2317 75.0287 88.4336 75.1634 88.4336 75.2964C88.4336 75.4294 88.299 75.6989 88.1661 75.6989L86.5576 75.7662L86.5594 75.768Z" fill="#553597"/>
<path d="M84.4813 71.6091C84.3967 71.5953 84.3191 71.5555 84.2587 71.4968C84.1983 71.4363 84.1586 71.3586 84.1465 71.274V67.5187C84.1465 67.4289 84.1827 67.3442 84.2449 67.2821C84.307 67.2199 84.3933 67.1836 84.4813 67.1836C84.5693 67.1836 84.6556 67.2199 84.7177 67.2821C84.7799 67.3442 84.8161 67.4306 84.8161 67.5187V71.274C84.8161 71.3621 84.7816 71.4484 84.7177 71.5106C84.6556 71.5728 84.5693 71.6091 84.4813 71.6091Z" fill="#553597"/>
<path d="M98.0834 87.3682C98.0834 87.3682 102.103 93.4035 108.133 91.1234L98.0834 87.3682Z" fill="white"/>
<path d="M105.385 91.929C100.761 91.929 97.8809 87.6365 97.8136 87.5692C97.7463 87.5018 97.7463 87.1667 97.9482 87.0993C98.0189 87.0458 98.1087 87.0233 98.1967 87.0354C98.2847 87.0475 98.3641 87.0959 98.4176 87.1667C98.5522 87.4344 102.304 93.0017 107.999 90.7872C108.043 90.7665 108.091 90.7544 108.139 90.7527C108.187 90.751 108.236 90.7613 108.281 90.7803C108.326 90.7993 108.365 90.8287 108.398 90.865C108.431 90.9012 108.455 90.9444 108.469 90.9911C108.491 91.0291 108.503 91.0723 108.505 91.1172C108.505 91.1621 108.496 91.2053 108.477 91.2467C108.457 91.2864 108.427 91.321 108.391 91.3469C108.355 91.3728 108.312 91.3884 108.269 91.3935C107.352 91.7597 106.374 91.9428 105.388 91.9307L105.385 91.929Z" fill="#553597"/>
<path d="M219.352 209.753H194.293C180.894 209.753 169.973 201.573 169.973 191.513V173.273H219.352V209.753Z" fill="#422779"/>
<path d="M272.684 182.729H250.642C238.782 182.729 229.135 174.548 229.135 164.488V146.249H272.684V182.729Z" fill="#422779"/>
<path d="M282.935 114.395V168.78C282.935 169.789 282.867 170.798 282.733 171.798C282.558 172.929 282.313 174.051 281.996 175.151C278.378 187.154 260.691 184.674 260.489 172.133V165.963C260.489 162.353 259.056 158.891 256.505 156.338C253.955 153.785 250.496 152.35 246.889 152.35C243.282 152.35 239.822 153.785 237.271 156.338C234.72 158.891 233.288 162.353 233.288 165.963V172.133L232.953 196.14C232.953 199.75 231.519 203.213 228.968 205.767C226.418 208.32 222.959 209.753 219.352 209.753C215.567 209.753 211.936 208.249 209.261 205.57C206.584 202.89 205.081 199.258 205.081 195.47V188.697C205.126 185.605 204.041 182.604 202.03 180.257C200.018 177.909 197.22 176.381 194.16 175.956H190.609C187.233 175.956 183.995 177.298 181.607 179.687C179.22 182.078 177.879 185.318 177.879 188.697C177.879 192.075 177.209 195.463 175.91 198.603C174.61 201.743 172.705 204.597 170.304 207C167.902 209.404 165.051 211.311 161.913 212.612C158.776 213.913 155.412 214.581 152.016 214.581H81.9337L100.359 184.137C101.846 181.641 103.955 179.573 106.48 178.139C109.005 176.705 111.859 175.952 114.764 175.956H146.388V167.036C146.405 163.135 147.967 159.401 150.728 156.647C153.491 153.896 157.229 152.35 161.128 152.35H197.241V114.395H282.935Z" fill="#6F46BE"/>
<path d="M194.026 176.695L118.316 176.492C118.228 176.492 118.142 176.458 118.08 176.396C118.018 176.332 117.981 176.247 117.981 176.157C117.981 176.068 118.016 175.983 118.08 175.921C118.144 175.859 118.228 175.822 118.316 175.822L194.026 176.024C194.116 176.024 194.2 176.059 194.264 176.123C194.328 176.187 194.361 176.27 194.361 176.359C194.349 176.444 194.309 176.522 194.249 176.581C194.188 176.641 194.111 176.681 194.026 176.695Z" fill="#553597"/>
<path d="M246.889 153.023L186.924 152.688C186.834 152.688 186.75 152.651 186.688 152.589C186.626 152.527 186.589 152.441 186.589 152.351C186.589 152.261 186.624 152.178 186.688 152.114C186.752 152.05 186.834 152.016 186.924 152.016L246.889 152.351C246.977 152.351 247.064 152.387 247.126 152.449C247.188 152.513 247.224 152.598 247.224 152.688C247.224 152.777 247.188 152.86 247.126 152.924C247.064 152.986 246.977 153.023 246.889 153.023Z" fill="#553597"/>
<path d="M91.3829 263.267H30.1439C30.0559 263.267 29.9696 263.232 29.9075 263.168C29.8453 263.106 29.8091 263.022 29.8091 262.932C29.8091 262.842 29.8436 262.757 29.9075 262.695C29.9696 262.631 30.0559 262.597 30.1439 262.597H91.3811C91.4691 262.597 91.5554 262.631 91.6176 262.695C91.6797 262.757 91.7159 262.844 91.7159 262.932C91.7159 263.02 91.6797 263.106 91.6176 263.168C91.5554 263.232 91.4691 263.267 91.3811 263.267H91.3829Z" fill="#553597"/>
<path d="M282.266 126.465H198.048C197.958 126.465 197.873 126.431 197.809 126.367C197.746 126.303 197.713 126.218 197.713 126.13C197.713 126.042 197.747 125.956 197.809 125.893C197.872 125.831 197.958 125.795 198.048 125.795H282.266C282.356 125.795 282.44 125.829 282.502 125.893C282.566 125.956 282.601 126.04 282.601 126.13C282.601 126.22 282.566 126.304 282.502 126.367C282.44 126.431 282.356 126.465 282.266 126.465Z" fill="#553597"/>
<path d="M267.325 136.39H202.402C202.314 136.39 202.228 136.353 202.165 136.291C202.103 136.229 202.067 136.143 202.067 136.055C202.067 135.967 202.102 135.88 202.165 135.816C202.228 135.754 202.314 135.718 202.402 135.718H267.325C267.413 135.718 267.5 135.754 267.562 135.816C267.624 135.88 267.66 135.965 267.66 136.055C267.66 136.144 267.624 136.227 267.562 136.291C267.5 136.353 267.413 136.39 267.325 136.39Z" fill="#553597"/>
<path d="M237.71 144.17H221.898C221.81 144.17 221.724 144.136 221.661 144.072C221.598 144.01 221.563 143.923 221.563 143.835C221.563 143.747 221.598 143.661 221.661 143.598C221.724 143.535 221.81 143.5 221.898 143.5H237.71C237.8 143.5 237.884 143.535 237.946 143.598C238.01 143.661 238.045 143.745 238.045 143.835C238.045 143.925 238.01 144.01 237.946 144.072C237.884 144.136 237.8 144.17 237.71 144.17Z" fill="#553597"/>
<path d="M223.908 163.415H157.041C156.952 163.415 156.867 163.381 156.805 163.317C156.743 163.255 156.707 163.168 156.707 163.08C156.707 162.992 156.743 162.906 156.805 162.844C156.867 162.78 156.953 162.745 157.041 162.745H223.908C223.993 162.759 224.07 162.797 224.131 162.857C224.19 162.918 224.229 162.996 224.243 163.08C224.243 163.168 224.207 163.255 224.145 163.317C224.083 163.381 223.996 163.415 223.908 163.415Z" fill="#553597"/>
<path d="M178.349 170.524C178.259 170.524 178.175 170.489 178.112 170.425C178.049 170.363 178.014 170.278 178.014 170.189C178.014 170.099 178.049 170.014 178.112 169.952C178.175 169.888 178.259 169.853 178.349 169.853L223.909 169.719C223.993 169.733 224.071 169.772 224.13 169.833C224.19 169.893 224.23 169.971 224.244 170.054C224.244 170.144 224.207 170.228 224.145 170.292C224.083 170.354 223.997 170.391 223.909 170.391L178.349 170.524Z" fill="#553597"/>
<path d="M137.076 192.654H102.102C102.012 192.654 101.928 192.618 101.865 192.556C101.803 192.492 101.767 192.407 101.767 192.319C101.767 192.231 101.802 192.145 101.865 192.081C101.928 192.019 102.014 191.982 102.102 191.982H137.076C137.164 191.982 137.25 192.019 137.312 192.081C137.374 192.145 137.41 192.229 137.41 192.319C137.41 192.409 137.376 192.492 137.312 192.556C137.25 192.618 137.164 192.654 137.076 192.654Z" fill="#553597"/>
<path d="M135.669 201.103H99.8241C99.7361 201.103 99.6498 201.068 99.5876 201.004C99.5255 200.942 99.4893 200.856 99.4893 200.768C99.4893 200.68 99.5238 200.593 99.5876 200.531C99.6498 200.467 99.7361 200.433 99.8241 200.433H135.669C135.759 200.433 135.844 200.467 135.906 200.531C135.968 200.593 136.004 200.678 136.004 200.768C136.004 200.858 135.968 200.942 135.906 201.004C135.844 201.068 135.757 201.103 135.669 201.103Z" fill="#553597"/>
<path d="M153.357 191.85H143.642V201.538H153.357V191.85Z" fill="white"/>
<path d="M153.29 201.908H143.642C143.553 201.908 143.468 201.872 143.406 201.81C143.344 201.748 143.307 201.661 143.307 201.573V191.85C143.307 191.76 143.342 191.675 143.406 191.611C143.468 191.549 143.554 191.515 143.642 191.515H153.29C153.379 191.515 153.464 191.549 153.526 191.611C153.588 191.675 153.624 191.76 153.624 191.85V201.573C153.624 201.661 153.59 201.748 153.526 201.81C153.462 201.872 153.378 201.908 153.29 201.908ZM143.977 201.238H152.955V192.185H143.977V201.238Z" fill="#553597"/>
<path d="M148.466 159.125C148.376 159.125 148.292 159.089 148.23 159.027C148.167 158.963 148.131 158.878 148.131 158.789V152.351C148.131 152.263 148.167 152.178 148.23 152.114C148.292 152.052 148.378 152.016 148.466 152.016C148.554 152.016 148.64 152.052 148.702 152.114C148.765 152.178 148.801 152.263 148.801 152.351V158.789C148.801 158.878 148.766 158.963 148.702 159.027C148.64 159.089 148.554 159.125 148.466 159.125Z" fill="#553597"/>
<path d="M222.77 123.583C222.718 123.583 222.666 123.571 222.62 123.547C222.573 123.524 222.533 123.49 222.5 123.448C222.44 123.386 222.406 123.301 222.406 123.213C222.406 123.125 222.44 123.042 222.5 122.978L229.067 116.608C229.131 116.559 229.212 116.535 229.292 116.542C229.373 116.547 229.449 116.582 229.506 116.639C229.562 116.696 229.597 116.772 229.602 116.851C229.607 116.933 229.585 117.012 229.537 117.076L222.97 123.446L222.77 123.581V123.583Z" fill="#553597"/>
<path d="M229.335 123.583L229.067 123.448L222.501 117.077C222.452 117.014 222.43 116.932 222.435 116.853C222.44 116.772 222.475 116.697 222.532 116.64C222.59 116.583 222.664 116.549 222.746 116.544C222.827 116.539 222.906 116.561 222.97 116.609L229.537 122.98C229.597 123.044 229.632 123.127 229.632 123.215C229.632 123.303 229.597 123.387 229.537 123.45L229.335 123.584V123.583Z" fill="#553597"/>
<path d="M217.007 116.34H210.107V123.248H217.007V116.34Z" fill="white"/>
<path d="M201.999 123.18C203.887 123.18 205.417 121.648 205.417 119.76C205.417 117.872 203.887 116.34 201.999 116.34C200.111 116.34 198.582 117.87 198.582 119.76C198.582 121.65 200.113 123.18 201.999 123.18Z" fill="#6F46BE"/>
<path d="M58.0832 192.185C59.1497 192.185 60.1714 192.608 60.9256 193.363C61.6798 194.117 62.1026 195.14 62.1026 196.208V232.62H54.062V196.14C54.0793 195.085 54.5107 194.079 55.2632 193.338C56.0156 192.599 57.027 192.185 58.0832 192.185Z" fill="#6F46BE"/>
<path d="M61.3655 218.538C60.6786 218.521 60.0228 218.239 59.5361 217.752C59.0494 217.267 58.7681 216.611 58.7526 215.923V201.437C58.7698 200.75 59.0511 200.094 59.5361 199.606C60.0228 199.121 60.6768 198.84 61.3655 198.822C61.7089 198.822 62.0489 198.89 62.3647 199.021C62.6805 199.152 62.9705 199.346 63.2121 199.589C63.4554 199.831 63.647 200.12 63.7781 200.437C63.9093 200.753 63.9766 201.094 63.9766 201.437V215.923C63.9766 216.267 63.9093 216.605 63.7781 216.923C63.647 217.241 63.4537 217.53 63.2121 217.771C62.9687 218.015 62.6823 218.207 62.3647 218.34C62.0472 218.471 61.7072 218.538 61.3655 218.538ZM61.3655 199.492C60.8494 199.492 60.3558 199.698 59.9917 200.062C59.6276 200.427 59.4222 200.923 59.4222 201.437V215.923C59.4222 216.438 59.6276 216.934 59.9917 217.298C60.3558 217.663 60.8512 217.868 61.3655 217.868C61.8797 217.868 62.3751 217.663 62.7392 217.298C63.1033 216.934 63.3087 216.438 63.3087 215.923V201.437C63.3087 200.923 63.1033 200.427 62.7392 200.062C62.3751 199.698 61.8797 199.492 61.3655 199.492Z" fill="#553597"/>
<path d="M58.8875 207.003H54.0638C53.9758 207.003 53.8895 206.969 53.8274 206.906C53.7652 206.843 53.729 206.758 53.729 206.668C53.729 206.578 53.7652 206.495 53.8274 206.431C53.8895 206.369 53.9758 206.333 54.0638 206.333H58.8875C58.9755 206.333 59.0618 206.369 59.1239 206.431C59.186 206.495 59.2223 206.58 59.2223 206.668C59.2223 206.756 59.1878 206.843 59.1239 206.906C59.0618 206.969 58.9755 207.003 58.8875 207.003Z" fill="#553597"/>
<path d="M65.3851 213.174L72.6887 203.316L76.3733 215.992L70.8801 240.669L60.161 238.656L65.3868 213.174H65.3851Z" fill="white"/>
<path d="M70.8801 241.003H70.8128L60.092 238.992L59.8918 238.858C59.8383 238.778 59.8141 238.683 59.8245 238.59L65.0503 213.106V212.973L72.3539 203.115C72.4212 202.98 72.5559 202.98 72.6887 202.98C72.8216 202.98 72.8907 203.115 72.9562 203.183L76.6409 215.856V216.057L71.1476 240.735C71.1355 240.803 71.1027 240.863 71.0544 240.911C71.0061 240.958 70.9457 240.991 70.8784 241.003H70.8801ZM60.5614 238.388L70.6109 240.265L76.0386 215.991L72.5541 204.053L65.6526 213.308L60.5597 238.388H60.5614Z" fill="#553597"/>
<path d="M43.4778 221.155L50.1774 243.217L61.3659 239.798L55.4705 217.467L46.3582 208.682L43.4778 221.155Z" fill="white"/>
<path d="M50.1776 243.551H49.9774C49.9101 243.551 49.8428 243.486 49.8428 243.351L43.1432 221.355V221.155L46.0236 208.681C46.0771 208.562 46.172 208.467 46.2911 208.414C46.3532 208.408 46.4171 208.417 46.474 208.441C46.5327 208.464 46.5845 208.5 46.6259 208.547L55.7382 217.332C55.7382 217.399 55.8055 217.399 55.8055 217.467L61.7009 239.796C61.7682 239.931 61.6336 240.133 61.499 240.199L50.2432 243.551H50.1759H50.1776ZM43.8128 221.155L50.3778 242.814L60.964 239.596L55.2015 217.667L46.5586 209.352L43.8111 221.155H43.8128Z" fill="#553597"/>
<path d="M67.6653 240.4H67.5979C67.4633 240.4 67.3304 240.198 67.3304 239.998L72.891 215.118C72.8841 215.068 72.891 215.016 72.9117 214.972C72.9325 214.925 72.9652 214.885 73.0067 214.858C73.0481 214.83 73.0981 214.814 73.1482 214.813C73.1982 214.811 73.2483 214.825 73.2914 214.851C73.3363 214.858 73.3777 214.875 73.4157 214.899C73.4537 214.925 73.4864 214.956 73.5106 214.994C73.5365 215.032 73.552 215.073 73.5607 215.118C73.5693 215.163 73.5676 215.208 73.5589 215.253L67.9983 240.132C67.9983 240.333 67.8637 240.4 67.6635 240.4H67.6653Z" fill="#553597"/>
<path d="M63.1743 239.797H63.107C63.0241 239.768 62.9534 239.713 62.905 239.64C62.8567 239.568 62.8325 239.481 62.8377 239.395L67.9306 214.179C67.9979 213.978 68.1308 213.844 68.3327 213.911C68.5329 213.978 68.6002 214.113 68.6002 214.314L63.5091 239.528C63.5091 239.663 63.3071 239.797 63.1743 239.797Z" fill="#553597"/>
<path d="M58.0833 241.138C57.8831 241.138 57.7484 241.071 57.7484 240.936L51.1817 218.807C51.1713 218.764 51.1713 218.717 51.18 218.674C51.1886 218.629 51.2059 218.586 51.23 218.55C51.2559 218.512 51.287 218.479 51.3249 218.455C51.3629 218.431 51.4043 218.413 51.4492 218.405C51.4872 218.382 51.532 218.37 51.5752 218.368C51.6183 218.367 51.6632 218.377 51.7046 218.396C51.7443 218.417 51.7788 218.446 51.8047 218.482C51.8306 218.519 51.8461 218.562 51.8513 218.607L58.3508 240.736C58.3732 240.774 58.3853 240.819 58.387 240.862C58.387 240.907 58.3784 240.952 58.3594 240.992C58.3387 241.031 58.3093 241.066 58.2731 241.092C58.2369 241.118 58.1937 241.133 58.1506 241.138H58.0833Z" fill="#553597"/>
<path d="M54.0621 242.346C53.993 242.351 53.9223 242.335 53.8619 242.299C53.8015 242.263 53.7549 242.209 53.7273 242.144L47.4971 220.484C47.4298 220.282 47.4971 220.082 47.6973 220.082C47.7352 220.059 47.7801 220.046 47.8232 220.044C47.8681 220.044 47.913 220.053 47.9527 220.073C47.9924 220.092 48.0269 220.123 48.0528 220.16C48.0787 220.196 48.0942 220.239 48.0994 220.282L54.3969 241.943C54.4072 241.987 54.4072 242.033 54.3986 242.076C54.39 242.121 54.3727 242.164 54.3486 242.201C54.3244 242.239 54.2916 242.272 54.2536 242.296C54.2157 242.32 54.1743 242.337 54.1294 242.346H54.0621Z" fill="#553597"/>
<path d="M78.5187 232.556H41.8036V262.53H78.5187V232.556Z" fill="#A78ED7"/>
<path d="M69.4062 207.742L74.2299 208.682L72.6888 203.316L69.4062 207.742Z" fill="#553597"/>
<path d="M45.0192 215.992L51.384 213.979L46.5603 209.352L45.0192 215.992Z" fill="#6F46BE"/>
<path d="M43.4777 221.489C43.4087 221.494 43.3379 221.479 43.2775 221.442C43.2171 221.406 43.1705 221.353 43.1429 221.289C43.117 221.199 43.1222 221.102 43.1601 221.018C43.1964 220.931 43.262 220.862 43.3448 220.819L55.4048 217.197C55.4428 217.174 55.4877 217.162 55.5308 217.16C55.5757 217.159 55.6206 217.169 55.6603 217.188C55.6999 217.209 55.7345 217.238 55.7604 217.274C55.7862 217.312 55.8018 217.354 55.8069 217.399C55.8294 217.478 55.8208 217.565 55.7845 217.639C55.7483 217.713 55.6844 217.77 55.6068 217.801L43.5467 221.489H43.4794H43.4777Z" fill="#553597"/>
<path d="M76.375 216.325H76.3077L65.2521 213.508C65.1744 213.479 65.1105 213.42 65.0743 213.346C65.0381 213.271 65.0294 213.187 65.0519 213.106C65.0519 212.905 65.2521 212.838 65.454 212.838L76.4423 215.653C76.4871 215.662 76.5286 215.679 76.5665 215.704C76.6045 215.728 76.6373 215.761 76.6615 215.799C76.6856 215.837 76.7029 215.878 76.7115 215.923C76.7201 215.966 76.7184 216.013 76.7098 216.056C76.6787 216.125 76.6321 216.184 76.5752 216.23C76.5165 216.277 76.4492 216.31 76.375 216.325Z" fill="#553597"/>
</g>
<defs>
<clipPath id="clip0_539_7628">
<rect width="295.446" height="275.75" fill="white" transform="translate(0.553589 0.125)"/>
</clipPath>
</defs>
</svg>
