<svg width="342" height="329" viewBox="0 0 342 329" fill="none" xmlns="http://www.w3.org/2000/svg">
<path d="M122.845 277.723C205.162 276.574 264.765 290.776 294.006 220.557C323.247 150.337 291.539 70.3415 223.07 41.8506C154.601 13.3598 103.191 59.099 55.4636 118.173C-9.7023 198.75 48.2755 279.106 122.845 277.723Z" fill="#E3E5EA"/>
<mask id="mask0_615_7459" style="mask-type:luminance" maskUnits="userSpaceOnUse" x="5" y="226" width="333" height="101">
<path d="M330.265 226.362L5.82324 275.249L13.5422 326.477L337.984 277.59L330.265 226.362Z" fill="white"/>
</mask>
<g mask="url(#mask0_615_7459)">
<path d="M337.414 277.676C337.384 277.681 337.354 277.683 337.325 277.682L6.47972 276.317C6.3264 276.317 6.17953 276.255 6.07141 276.146C5.9633 276.036 5.9028 275.888 5.90322 275.735C5.90365 275.581 5.96496 275.433 6.07368 275.325C6.18239 275.216 6.3296 275.156 6.48292 275.156L337.328 276.522C337.474 276.522 337.614 276.578 337.721 276.677C337.828 276.777 337.893 276.914 337.904 277.06C337.915 277.206 337.87 277.35 337.779 277.465C337.688 277.579 337.558 277.654 337.414 277.676Z" fill="#553597"/>
</g>
<mask id="mask1_615_7459" style="mask-type:luminance" maskUnits="userSpaceOnUse" x="313" y="145" width="13" height="12">
<path d="M325.281 145.335H313.664V156.952H325.281V145.335Z" fill="white"/>
</mask>
<g mask="url(#mask1_615_7459)">
<path d="M314.245 154.741L314.201 152.659C314.18 151.708 314.951 150.921 315.923 150.901C316.196 150.895 316.467 150.952 316.715 151.067L322.048 153.538L316.827 156.229C315.966 156.672 314.901 156.349 314.448 155.506C314.32 155.27 314.251 155.008 314.245 154.741Z" fill="white"/>
<path d="M316.009 156.952C315.78 156.952 315.55 156.919 315.325 156.85C314.739 156.672 314.259 156.282 313.973 155.75C313.808 155.444 313.717 155.098 313.709 154.752V154.752L313.665 152.67C313.652 152.071 313.878 151.502 314.302 151.068C314.726 150.635 315.298 150.389 315.911 150.376C316.268 150.369 316.623 150.444 316.944 150.593L322.277 153.064C322.461 153.149 322.58 153.328 322.584 153.527C322.588 153.726 322.477 153.909 322.298 154.002L317.077 156.692C316.742 156.865 316.377 156.952 316.009 156.952ZM314.781 154.73C314.785 154.914 314.834 155.098 314.922 155.262C315.075 155.545 315.331 155.753 315.643 155.848C315.956 155.943 316.288 155.913 316.578 155.764L320.85 153.563L316.485 151.54C316.314 151.461 316.126 151.421 315.934 151.425C315.607 151.432 315.303 151.563 315.076 151.794C314.85 152.025 314.73 152.328 314.736 152.648L314.781 154.73Z" fill="#553597"/>
<path d="M320.824 145.903L322.952 145.86C323.925 145.843 324.727 146.601 324.745 147.552C324.749 147.817 324.692 148.08 324.576 148.319L322.048 153.539L319.298 148.426C318.847 147.582 319.18 146.541 320.042 146.099C320.284 145.976 320.551 145.909 320.824 145.903Z" fill="white"/>
<path d="M322.049 154.063C321.85 154.063 321.667 153.955 321.574 153.783L318.825 148.67C318.236 147.571 318.672 146.209 319.794 145.635C320.108 145.474 320.46 145.386 320.814 145.379L322.942 145.335C324.21 145.314 325.259 146.304 325.282 147.543C325.288 147.887 325.212 148.233 325.062 148.543L322.533 153.763C322.446 153.943 322.263 154.059 322.06 154.063C322.056 154.063 322.052 154.063 322.049 154.063ZM322.984 146.384C322.977 146.384 322.97 146.384 322.962 146.384L320.836 146.427C320.836 146.427 320.836 146.427 320.836 146.427C320.647 146.431 320.459 146.478 320.292 146.564C319.693 146.871 319.461 147.597 319.774 148.183L322.024 152.366L324.093 148.095C324.173 147.929 324.213 147.745 324.21 147.562C324.198 146.908 323.65 146.384 322.984 146.384Z" fill="#553597"/>
</g>
<mask id="mask2_615_7459" style="mask-type:luminance" maskUnits="userSpaceOnUse" x="180" y="176" width="130" height="102">
<path d="M309.268 176.418H180.224V277.832H309.268V176.418Z" fill="white"/>
</mask>
<g mask="url(#mask2_615_7459)">
<path d="M213.768 228.738L189.278 229.941L199.948 209.226L213.768 228.738Z" fill="#A78ED7"/>
<path d="M210.615 206.886C208.808 208.993 206.242 210.297 203.477 210.514C200.713 210.73 197.976 209.84 195.864 208.04L183.876 197.779C181.776 195.967 180.476 193.397 180.257 190.629C180.038 187.861 180.918 185.118 182.706 182.998C184.511 180.887 187.078 179.58 189.844 179.364C192.609 179.148 195.347 180.04 197.457 181.845L209.446 192.105C211.546 193.916 212.847 196.486 213.066 199.254C213.284 202.022 212.404 204.765 210.615 206.886Z" fill="#6F46BE"/>
<path d="M274.841 187.661C267.809 180.526 258.238 176.483 248.233 176.419C238.227 176.355 228.605 180.276 221.483 187.32C221.428 187.374 221.384 187.439 221.354 187.511C221.324 187.583 221.308 187.659 221.308 187.737C221.307 187.815 221.322 187.892 221.351 187.964C221.38 188.036 221.423 188.102 221.478 188.157C221.532 188.212 221.597 188.256 221.669 188.287C221.74 188.317 221.817 188.333 221.894 188.333C221.972 188.334 222.049 188.319 222.121 188.29C222.192 188.26 222.258 188.217 222.313 188.163L273.671 240.293C273.616 240.348 273.571 240.413 273.541 240.484C273.51 240.556 273.494 240.633 273.493 240.711C273.493 240.789 273.507 240.867 273.537 240.939C273.566 241.011 273.609 241.077 273.664 241.132C273.719 241.188 273.784 241.232 273.855 241.262C273.927 241.292 274.004 241.308 274.082 241.308C274.16 241.308 274.237 241.293 274.309 241.264C274.381 241.234 274.446 241.19 274.501 241.135C281.62 234.088 285.655 224.496 285.719 214.468C285.782 204.441 281.87 194.798 274.841 187.661Z" fill="#A78ED7"/>
<path d="M259.097 250.164L295.083 232.644C297.438 231.499 300.151 231.338 302.624 232.196C305.097 233.054 307.129 234.862 308.273 237.222C309.416 239.582 309.577 242.3 308.721 244.779C307.864 247.258 306.06 249.294 303.706 250.44L267.72 267.96C265.365 269.105 262.653 269.267 260.179 268.408C257.706 267.55 255.674 265.742 254.53 263.383C253.387 261.023 253.226 258.304 254.082 255.825C254.939 253.347 256.743 251.31 259.097 250.164Z" fill="#6F46BE"/>
<path d="M274.067 240.714C259.46 255.156 235.955 254.998 221.544 240.379C207.134 225.759 207.292 202.183 221.879 187.741" fill="white"/>
<path d="M247.979 252.037C247.895 252.037 247.812 252.037 247.728 252.037C242.772 252.018 237.869 251.015 233.303 249.085C228.736 247.156 224.597 244.338 221.124 240.795C206.507 225.966 206.659 201.977 221.464 187.321C221.519 187.265 221.584 187.222 221.656 187.192C221.728 187.162 221.805 187.147 221.883 187.147C221.961 187.148 222.038 187.163 222.109 187.194C222.181 187.224 222.246 187.268 222.301 187.323C222.356 187.379 222.399 187.445 222.428 187.517C222.457 187.589 222.472 187.667 222.472 187.745C222.471 187.823 222.455 187.9 222.424 187.971C222.394 188.043 222.349 188.108 222.294 188.163C207.953 202.361 207.805 225.598 221.964 239.963C236.123 254.328 259.309 254.474 273.652 240.293C273.764 240.184 273.914 240.123 274.07 240.124C274.226 240.126 274.376 240.189 274.485 240.301C274.595 240.412 274.656 240.563 274.655 240.719C274.655 240.876 274.592 241.026 274.481 241.136C267.435 248.142 257.904 252.062 247.979 252.037Z" fill="#553597"/>
<path d="M286.908 277.232C286.319 277.232 285.735 277.116 285.19 276.89C284.646 276.664 284.151 276.333 283.734 275.915C283.317 275.497 282.987 275.001 282.761 274.456C282.536 273.91 282.42 273.325 282.42 272.734V263.658C282.42 263.068 282.536 262.483 282.761 261.937C282.987 261.391 283.317 260.895 283.734 260.477C284.151 260.059 284.646 259.728 285.19 259.502C285.735 259.276 286.319 259.16 286.908 259.16H295.964C296.553 259.16 297.137 259.276 297.682 259.502C298.227 259.728 298.722 260.059 299.138 260.477C299.555 260.895 299.886 261.391 300.111 261.937C300.337 262.483 300.453 263.068 300.452 263.658V272.734C300.453 273.325 300.337 273.91 300.111 274.456C299.886 275.001 299.555 275.497 299.138 275.915C298.722 276.333 298.227 276.664 297.682 276.89C297.137 277.116 296.553 277.232 295.964 277.232H286.908Z" fill="white"/>
<path d="M295.964 277.824H286.908C285.562 277.823 284.271 277.286 283.319 276.332C282.366 275.377 281.831 274.083 281.829 272.734V263.659C281.824 262.994 281.951 262.336 282.202 261.722C282.454 261.107 282.825 260.549 283.294 260.081C283.766 259.6 284.329 259.219 284.949 258.96C285.57 258.7 286.236 258.567 286.908 258.568H295.964C297.31 258.57 298.601 259.107 299.554 260.061C300.506 261.015 301.041 262.309 301.043 263.659V272.734C301.041 274.083 300.506 275.377 299.554 276.332C298.601 277.286 297.31 277.823 295.964 277.824ZM286.908 259.752C286.392 259.751 285.88 259.853 285.404 260.053C284.927 260.253 284.495 260.545 284.133 260.914C283.773 261.273 283.489 261.7 283.296 262.171C283.104 262.641 283.006 263.145 283.01 263.654V272.734C283.012 273.77 283.423 274.763 284.153 275.495C284.884 276.227 285.875 276.639 286.908 276.64H295.964C296.997 276.639 297.988 276.227 298.719 275.495C299.45 274.763 299.861 273.77 299.862 272.734V263.659C299.861 262.623 299.45 261.63 298.719 260.898C297.988 260.165 296.997 259.753 295.964 259.752H286.908Z" fill="#553597"/>
<path d="M288.874 208.986L285.156 210.972L296.343 232.004L300.061 230.018L288.874 208.986Z" fill="white"/>
<path d="M296.342 232.597C296.235 232.597 296.13 232.568 296.038 232.513C295.946 232.457 295.871 232.378 295.82 232.283L284.634 211.251C284.597 211.182 284.575 211.107 284.567 211.03C284.56 210.952 284.567 210.874 284.59 210.8C284.613 210.726 284.65 210.656 284.699 210.596C284.748 210.536 284.809 210.487 284.877 210.45L288.595 208.464C288.733 208.39 288.895 208.374 289.045 208.42C289.195 208.466 289.32 208.569 289.394 208.708L300.58 229.74C300.617 229.809 300.64 229.884 300.647 229.962C300.655 230.039 300.647 230.117 300.624 230.191C300.602 230.266 300.565 230.335 300.515 230.395C300.466 230.455 300.405 230.505 300.337 230.541L296.619 232.527C296.534 232.573 296.439 232.597 296.342 232.597ZM285.954 211.216L296.585 231.204L299.26 229.775L288.629 209.787L285.954 211.216Z" fill="#553597"/>
<path d="M241.986 251.445L229.116 264.343L241.986 277.241L254.856 264.343L241.986 251.445Z" fill="white"/>
<path d="M241.986 277.833C241.908 277.833 241.831 277.818 241.76 277.788C241.688 277.758 241.623 277.714 241.568 277.659L228.698 264.762C228.644 264.707 228.6 264.641 228.57 264.57C228.541 264.498 228.525 264.421 228.525 264.343C228.525 264.265 228.541 264.188 228.57 264.117C228.6 264.045 228.644 263.98 228.698 263.925L241.568 251.027C241.681 250.92 241.83 250.86 241.986 250.86C242.141 250.86 242.29 250.92 242.403 251.027L255.273 263.925C255.328 263.98 255.371 264.045 255.401 264.117C255.431 264.188 255.446 264.265 255.446 264.343C255.446 264.421 255.431 264.498 255.401 264.57C255.371 264.641 255.328 264.707 255.273 264.762L242.403 277.659C242.348 277.714 242.283 277.758 242.212 277.788C242.14 277.818 242.063 277.833 241.986 277.833ZM229.951 264.343L241.985 276.404L254.02 264.343L241.985 252.282L229.951 264.343Z" fill="#553597"/>
</g>
<mask id="mask3_615_7459" style="mask-type:luminance" maskUnits="userSpaceOnUse" x="31" y="99" width="157" height="178">
<path d="M187.759 99.8086H31.3994V276.577H187.759V99.8086Z" fill="white"/>
</mask>
<g mask="url(#mask3_615_7459)">
<path d="M56.5476 154.799C51.8724 154.799 47.502 153.493 43.7816 151.226C36.7037 146.912 31.9775 139.12 31.9775 130.224C31.9775 116.651 42.978 105.648 56.5476 105.648C69.7484 105.648 79.5784 113.789 80.1542 126.85" fill="#553597"/>
<path d="M56.5476 155.378C51.926 155.378 47.4074 154.113 43.4808 151.72C39.8616 149.514 36.8336 146.406 34.724 142.731C32.5491 138.943 31.3994 134.618 31.3994 130.224C31.3994 116.354 42.6809 105.07 56.5476 105.07C70.4391 105.07 80.1581 113.812 80.7318 126.825C80.7458 127.144 80.4988 127.414 80.1796 127.428C79.8615 127.442 79.5905 127.195 79.5767 126.876C79.0321 114.525 69.7775 106.226 56.5476 106.226C43.3185 106.226 32.5557 116.991 32.5557 130.224C32.5557 138.667 36.8648 146.333 44.0824 150.732C47.8279 153.015 52.1381 154.221 56.5476 154.221C56.867 154.221 57.1258 154.48 57.1258 154.8C57.1258 155.119 56.867 155.378 56.5476 155.378Z" fill="#553597"/>
<path d="M83.8057 117.636C83.4132 116.738 82.8884 115.922 82.2619 115.202C82.5421 114.508 82.7452 113.769 82.8559 112.995C82.8559 112.995 82.856 112.994 82.856 112.994C83.1249 111.203 82.8757 109.453 82.2209 107.898L79.7691 104.299L73.7952 107.383L64.9307 111.816L65.5088 122.996L82.8524 118.948" fill="white"/>
<path d="M65.5088 123.574C65.3845 123.574 65.2623 123.534 65.1612 123.458C65.0245 123.355 64.9403 123.197 64.9314 123.026L64.3533 111.846C64.3414 111.617 64.4666 111.402 64.6721 111.299L73.5366 106.866L79.5039 103.785C79.7637 103.651 80.0824 103.732 80.2468 103.974L82.6982 107.572C82.72 107.604 82.7383 107.638 82.7533 107.673C83.4696 109.375 83.7028 111.245 83.4274 113.08C83.4274 113.081 83.4272 113.082 83.427 113.083C83.3292 113.766 83.1601 114.44 82.9235 115.091C83.4987 115.799 83.973 116.576 84.3355 117.405C84.4634 117.698 84.3299 118.039 84.0373 118.166C83.745 118.294 83.4039 118.161 83.276 117.868C82.9144 117.041 82.4265 116.272 81.8258 115.582C81.6831 115.418 81.6443 115.188 81.7256 114.986C81.9947 114.319 82.1822 113.622 82.2833 112.914C82.2837 112.911 82.2841 112.908 82.2845 112.905C82.5248 111.3 82.3259 109.666 81.7096 108.175L79.5795 105.048L74.0603 107.897L65.5275 112.164L66.0503 122.276L82.721 118.385C83.0316 118.312 83.3428 118.506 83.4153 118.817C83.4877 119.128 83.2947 119.439 82.9836 119.511L65.64 123.559C65.5967 123.569 65.5527 123.574 65.5088 123.574Z" fill="#553597"/>
<path d="M63.7723 128.024C61.5575 127.303 59.1934 126.913 56.7381 126.913C44.1985 126.913 34.0332 137.081 34.0332 149.623C34.0332 153.168 35.0131 156.68 36.4607 159.669" fill="#553597"/>
<path d="M36.4613 160.247C36.2466 160.247 36.0404 160.127 35.9406 159.921C34.8067 157.58 33.4551 153.893 33.4551 149.623C33.4551 136.782 43.8998 126.335 56.7381 126.335C59.2026 126.335 61.6294 126.718 63.9513 127.474C64.2548 127.573 64.4209 127.9 64.3221 128.203C64.2234 128.507 63.8975 128.673 63.5934 128.574C61.3873 127.856 59.081 127.491 56.7383 127.491C44.5374 127.491 34.6115 137.42 34.6115 149.623C34.6115 153.673 35.9003 157.184 36.9812 159.417C37.1206 159.704 37.0003 160.05 36.713 160.189C36.6318 160.229 36.5459 160.247 36.4613 160.247Z" fill="#553597"/>
<path d="M60.5269 253.042C62.3534 257.7 63.0928 262.072 60.7545 265.139C57.5671 269.32 56.2858 270.723 56.6597 276H58.3435H89.197L92.237 263.313L85.7653 243.035" fill="white"/>
<path d="M89.1967 276.578H56.6595C56.356 276.578 56.1043 276.344 56.0827 276.041C55.7102 270.783 56.9297 269.188 59.8758 265.336L60.2945 264.788C62.1946 262.295 62.0973 258.63 59.9885 253.253C59.8719 252.956 60.0184 252.62 60.3155 252.504C60.6129 252.387 60.9482 252.533 61.065 252.831C63.3358 258.621 63.3832 262.643 61.2139 265.489L60.794 266.039C58.0645 269.608 56.9781 271.028 57.2031 275.422H88.7409L91.6371 263.335L85.2144 243.21C85.1173 242.906 85.2851 242.581 85.5894 242.484C85.8935 242.387 86.2188 242.554 86.3159 242.859L92.7876 263.137C92.8198 263.237 92.8236 263.345 92.7991 263.447L89.7592 276.134C89.6966 276.395 89.4642 276.578 89.1967 276.578Z" fill="#553597"/>
<path d="M84.3764 197.539L81.6284 203.953L78.601 211.026L77.5527 213.472L77.967 214.551L80.7189 221.719L88.4772 241.958L56.2278 254.745L53.7226 248.229L46.9914 230.773L42.6824 219.593C41.4221 216.419 41.1292 212.94 41.8403 209.597C42.0735 208.497 42.4146 207.423 42.8578 206.388L44.8215 201.82L46.2398 198.506L49.2537 191.457L56.7654 173.911L60.1133 162.509H69.3632L88.4412 162.316L90.3012 163.537" fill="#A78ED7"/>
<path d="M56.2271 255.324C56.1479 255.324 56.0689 255.308 55.9949 255.276C55.8536 255.214 55.7428 255.098 55.6873 254.954L53.1821 248.437L42.1423 219.802C40.8377 216.516 40.5367 212.944 41.2744 209.477C41.5139 208.347 41.8677 207.231 42.3258 206.161L45.7078 198.279L48.7217 191.23L56.22 173.715L59.5582 162.347C59.6305 162.1 59.8563 161.931 60.1128 161.931H69.3627L88.4349 161.738C88.549 161.736 88.6621 161.77 88.7579 161.833L90.6177 163.054C90.8846 163.23 90.959 163.588 90.7838 163.855C90.6087 164.122 90.2502 164.196 89.9833 164.021L88.2705 162.897L69.3685 163.088H60.5455L57.3193 174.074C57.3128 174.096 57.3051 174.118 57.296 174.139L49.7843 191.685L45.3521 202.047L43.388 206.616C42.9598 207.616 42.6291 208.66 42.405 209.717C41.7149 212.96 41.9965 216.301 43.2188 219.38L54.2611 248.021L56.557 253.993L87.7319 241.632L80.1782 221.927L77.012 213.679C76.9581 213.539 76.9612 213.382 77.0203 213.244L83.8441 197.311C83.9697 197.018 84.3095 196.882 84.6031 197.007C84.8966 197.133 85.0327 197.473 84.9068 197.767L78.1756 213.484L81.2578 221.512L89.0161 241.751C89.1294 242.047 88.9839 242.379 88.6893 242.496L56.4398 255.283C56.3716 255.311 56.2994 255.324 56.2271 255.324Z" fill="#553597"/>
<path d="M131.955 253.313C133.571 256.044 136.143 258.159 139.36 259.695C145.357 262.559 147.631 263.628 150.537 264.54C155.534 266.11 159.079 270.776 158.664 275.999L129.242 275.892L113.425 267.11L113.57 275.955L102.474 275.999L102.34 248.807" fill="white"/>
<path d="M102.473 276.578C102.155 276.578 101.897 276.321 101.895 276.003L101.762 248.81C101.76 248.49 102.018 248.23 102.337 248.229C102.659 248.235 102.916 248.485 102.918 248.804L103.049 275.419L112.982 275.38L112.847 267.119C112.844 266.913 112.951 266.72 113.128 266.614C113.305 266.508 113.525 266.504 113.706 266.604L129.393 275.314L158.115 275.419C158.221 270.847 155.036 266.56 150.363 265.092C147.461 264.181 145.205 263.127 139.11 260.217C135.65 258.564 133.075 256.34 131.458 253.607C131.295 253.333 131.386 252.978 131.661 252.815C131.936 252.653 132.291 252.744 132.453 253.019C133.951 255.55 136.359 257.621 139.609 259.173C145.649 262.058 147.881 263.101 150.71 263.989C153.28 264.796 155.548 266.42 157.098 268.561C158.688 270.758 159.449 273.416 159.24 276.046C159.216 276.346 158.965 276.578 158.664 276.578C158.663 276.578 158.662 276.578 158.661 276.578L129.24 276.47C129.143 276.47 129.047 276.445 128.962 276.397L114.019 268.101L114.148 275.946C114.15 276.101 114.091 276.25 113.982 276.36C113.874 276.47 113.726 276.533 113.572 276.534L102.476 276.578C102.475 276.578 102.474 276.578 102.473 276.578Z" fill="#553597"/>
<path d="M89.0857 163.029L105.751 170.013L123.445 177.426L130.768 180.493L135.285 182.385L139.999 184.361C146.501 188.224 149.748 195.857 148.023 203.222L148.021 203.224L142.092 227.536L139.162 239.542L135.665 253.877L101.23 248.638L111.353 207.694L111.054 207.582L102.591 204.394L101.153 203.854L93.1653 200.847L84.376 197.54" fill="#A78ED7"/>
<path d="M135.665 254.456C135.637 254.456 135.607 254.453 135.578 254.449L101.143 249.21C100.983 249.185 100.84 249.094 100.749 248.959C100.659 248.824 100.63 248.657 100.669 248.499L110.668 208.055L84.1725 198.081C83.8736 197.969 83.7226 197.635 83.8351 197.336C83.9476 197.037 84.2808 196.886 84.5797 196.999L111.556 207.153C111.831 207.255 111.985 207.548 111.914 207.833L101.944 248.162L135.229 253.226L147.46 203.087C147.462 203.076 147.465 203.065 147.469 203.054C149.122 195.926 146.019 188.63 139.738 184.879L88.8624 163.563C88.568 163.44 88.4292 163.101 88.5526 162.806C88.6759 162.512 89.0145 162.373 89.3091 162.496L140.222 183.828C140.247 183.838 140.271 183.85 140.294 183.864C147.045 187.875 150.377 195.707 148.586 203.354C148.583 203.369 148.579 203.383 148.574 203.398L136.227 254.015C136.162 254.276 135.928 254.456 135.665 254.456Z" fill="#553597"/>
<path d="M84.1631 198.599C84.0933 198.599 84.0224 198.586 83.9536 198.56C83.6561 198.444 83.5087 198.109 83.6245 197.811L86.199 191.194C86.315 190.896 86.6504 190.749 86.9475 190.865C87.245 190.98 87.3925 191.316 87.2767 191.613L84.7021 198.23C84.6129 198.459 84.3943 198.599 84.1631 198.599Z" fill="#553597"/>
<path d="M176.466 136.409C176.434 136.409 176.402 136.407 176.37 136.401L172.711 135.791C172.396 135.739 172.183 135.441 172.235 135.126C172.288 134.811 172.585 134.598 172.901 134.651L176.56 135.261C176.875 135.313 177.088 135.611 177.035 135.926C176.988 136.209 176.743 136.409 176.466 136.409Z" fill="#553597"/>
<path d="M132.953 191.584H132.743C126.921 191.578 122.19 186.837 122.195 181.015C122.196 179.711 122.435 178.434 122.905 177.218C123.021 176.92 123.356 176.771 123.653 176.887C123.951 177.002 124.099 177.337 123.984 177.635C123.565 178.718 123.353 179.855 123.352 181.016C123.347 186.201 127.56 190.423 132.744 190.427H132.953C136.481 190.425 139.682 188.477 141.304 185.342C141.451 185.059 141.8 184.948 142.083 185.095C142.367 185.242 142.478 185.591 142.331 185.874C140.509 189.394 136.915 191.581 132.953 191.584Z" fill="#553597"/>
<path d="M133.027 242.241C133.023 242.241 133.02 242.241 133.016 242.241H132.807C126.989 242.241 122.256 237.507 122.256 231.688C122.256 225.869 126.989 221.135 132.807 221.135H133.017C133.018 221.135 133.02 221.135 133.021 221.135C137.136 221.135 140.903 223.552 142.617 227.295C142.75 227.585 142.622 227.929 142.332 228.062C142.041 228.194 141.698 228.067 141.565 227.777C140.039 224.444 136.685 222.291 133.021 222.291C133.019 222.291 133.018 222.291 133.017 222.291H132.807C127.626 222.291 123.412 226.507 123.412 231.688C123.412 236.869 127.626 241.085 132.807 241.085H133.017C133.02 241.085 133.023 241.085 133.027 241.085C135.113 241.085 137.164 240.376 138.805 239.088C139.056 238.89 139.42 238.934 139.617 239.186C139.814 239.437 139.77 239.8 139.519 239.997C137.676 241.445 135.371 242.241 133.027 242.241Z" fill="#553597"/>
<path d="M108.934 206.811C108.805 206.811 108.675 206.768 108.567 206.68C108.321 206.477 108.285 206.113 108.487 205.866C109.861 204.193 110.616 202.078 110.613 199.913C110.613 194.729 106.398 190.514 101.218 190.514H101.008C95.9544 190.515 91.8318 194.471 91.6228 199.522C91.6095 199.841 91.3414 200.088 91.0211 200.076C90.7022 200.063 90.4542 199.793 90.4673 199.474C90.702 193.802 95.332 189.358 101.008 189.357H101.218C107.035 189.357 111.769 194.092 111.769 199.911C111.772 202.344 110.924 204.72 109.38 206.6C109.267 206.739 109.101 206.811 108.934 206.811Z" fill="#553597"/>
<path d="M53.7899 248.808H53.7146C53.3953 248.808 53.1365 248.549 53.1365 248.229C53.1365 247.91 53.3953 247.651 53.7146 247.651H53.7897C58.9697 247.65 63.1842 243.434 63.1842 238.252C63.1842 233.061 58.9699 228.846 53.7897 228.846H53.5797C53.5778 228.846 53.5756 228.846 53.5737 228.846C51.283 228.846 49.0794 229.684 47.3674 231.206C47.1288 231.418 46.7635 231.396 46.5513 231.158C46.3391 230.919 46.3607 230.553 46.5995 230.341C48.5231 228.631 50.9999 227.689 53.5733 227.689C53.5756 227.689 53.5778 227.689 53.5801 227.689H53.7897C59.6074 227.689 64.3404 232.424 64.3404 238.243C64.3406 244.071 59.6076 248.806 53.7899 248.808Z" fill="#553597"/>
<path d="M81.6269 204.533C81.529 204.533 81.43 204.508 81.339 204.455C79.9224 203.639 78.3099 203.208 76.6753 203.208C76.6726 203.208 76.6705 203.208 76.6678 203.208H76.4572C76.287 203.208 76.1145 203.213 75.945 203.222C75.6255 203.24 75.3539 202.994 75.3368 202.676C75.3196 202.357 75.5644 202.084 75.8831 202.067C76.0731 202.057 76.2664 202.052 76.4572 202.052H76.6672C76.6701 202.052 76.6728 202.052 76.6757 202.052C78.512 202.052 80.324 202.536 81.916 203.453C82.1927 203.612 82.2879 203.966 82.1285 204.243C82.0214 204.429 81.827 204.533 81.6269 204.533Z" fill="#553597"/>
<path d="M76.6747 223.158C76.672 223.158 76.6695 223.158 76.6666 223.158H76.4569C70.6393 223.158 65.9062 218.424 65.9062 212.605C65.9062 212.285 66.1651 212.026 66.4844 212.026C66.8037 212.026 67.0625 212.285 67.0625 212.605C67.0625 217.786 71.2768 222.001 76.4569 222.001H76.667C76.6693 222.001 76.6718 222.001 76.6741 222.001C77.9936 222.001 79.2733 221.729 80.4785 221.192C80.7695 221.062 81.112 221.193 81.2418 221.485C81.3717 221.776 81.2409 222.118 80.9491 222.248C79.5952 222.852 78.157 223.158 76.6747 223.158Z" fill="#553597"/>
<path d="M43.711 210.31H43.5029C42.9151 210.31 42.3233 210.26 41.7443 210.163C41.4294 210.11 41.2168 209.812 41.2698 209.497C41.3226 209.182 41.6198 208.97 41.9356 209.023C42.4521 209.109 42.9795 209.153 43.5033 209.154H43.7112C48.8923 209.154 53.1076 204.937 53.1076 199.755C53.1105 196.608 51.5498 193.686 48.9326 191.94C48.6671 191.763 48.5954 191.404 48.7725 191.138C48.9496 190.873 49.3084 190.801 49.5743 190.978C52.5141 192.94 54.2671 196.221 54.2638 199.756C54.2635 205.575 49.5298 210.31 43.711 210.31Z" fill="#553597"/>
<path d="M95.6165 181.613C92.8015 181.613 90.1541 180.517 88.1617 178.527C86.1675 176.535 85.0683 173.886 85.0664 171.067C85.0645 168.246 86.1618 165.593 88.1561 163.598C88.4592 163.295 88.7841 163.007 89.1217 162.742C89.373 162.545 89.7365 162.589 89.9334 162.841C90.1304 163.092 90.0862 163.456 89.8349 163.653C89.5337 163.889 89.2441 164.145 88.9735 164.416C87.1979 166.192 86.2209 168.554 86.2226 171.066C86.2244 173.576 87.2031 175.935 88.9785 177.709C90.7526 179.48 93.11 180.456 95.6167 180.456C95.619 180.456 95.6208 180.456 95.6233 180.456H95.8337C101.013 180.455 105.227 176.24 105.228 171.06C105.226 170.736 105.205 170.404 105.168 170.079C105.132 169.761 105.36 169.475 105.677 169.439C105.995 169.402 106.281 169.63 106.317 169.947C106.359 170.313 106.381 170.686 106.384 171.055C106.383 176.878 101.65 181.612 95.8337 181.613H95.6235C95.6213 181.613 95.6188 181.613 95.6165 181.613Z" fill="#553597"/>
<path d="M83.2147 117.083C83.0139 117.083 82.8189 116.979 82.7122 116.792L81.8438 115.272C81.6854 114.994 81.7818 114.641 82.0591 114.483C82.3362 114.324 82.6894 114.421 82.8478 114.698L83.7162 116.218C83.8746 116.495 83.7782 116.848 83.5009 117.007C83.4105 117.059 83.3121 117.083 83.2147 117.083Z" fill="#553597"/>
<path d="M56.2271 255.517C56.1479 255.517 56.0689 255.5 55.9949 255.468C55.8537 255.406 55.7429 255.29 55.6874 255.146L53.1822 248.629L42.1424 219.994C40.8378 216.708 40.5368 213.136 41.2743 209.67C41.5138 208.539 41.8676 207.423 42.3259 206.353L45.7079 198.471L48.7218 191.423L56.2335 173.876L60.5453 163.823C60.6287 163.629 60.812 163.495 61.023 163.476L69.3094 162.705C69.3194 162.704 69.3295 162.703 69.3397 162.703L88.3357 161.935L88.8362 161.768C89.1391 161.667 89.4663 161.831 89.5675 162.134C89.6685 162.437 89.5047 162.764 89.202 162.865L88.6238 163.058C88.5722 163.075 88.5186 163.085 88.4643 163.087L69.4013 163.858L61.4722 164.595L57.2963 174.332L49.7848 191.878L45.3525 202.24L43.3884 206.809C42.9602 207.809 42.6296 208.853 42.4054 209.91C41.7156 213.153 41.9971 216.494 43.2192 219.573L54.2615 248.213L56.5574 254.186L87.7324 241.824L80.1786 222.119L77.0125 213.872C76.9585 213.731 76.9616 213.575 77.0208 213.437L83.8445 197.504C83.9701 197.211 84.3099 197.074 84.6036 197.2C84.8971 197.326 85.0331 197.666 84.9073 197.959L78.176 213.677L81.2582 221.705L89.0166 241.944C89.1299 242.24 88.9842 242.572 88.6897 242.689L56.4403 255.476C56.3717 255.503 56.2994 255.517 56.2271 255.517Z" fill="#553597"/>
<path d="M68.0759 113.234C70.0126 112.918 72.9672 111.31 74.3163 109.75L79.2169 104.987L82.2204 107.951C81.6078 105.639 80.6396 103.603 78.6833 102.239C76.6282 100.816 74.0396 100.124 71.3521 100.48C66.1354 101.192 61.4191 105.133 62.588 112.351" fill="#553597"/>
<path d="M68.0749 113.812C67.7965 113.812 67.5511 113.611 67.5049 113.327C67.4534 113.012 67.6673 112.714 67.9826 112.663C69.8407 112.36 72.6509 110.791 73.8787 109.372C73.8897 109.359 73.901 109.347 73.913 109.335L78.8135 104.572C79.0392 104.352 79.3986 104.354 79.6225 104.575L80.8485 105.785C80.2231 104.439 79.4153 103.455 78.3522 102.713C76.338 101.319 73.8785 100.729 71.4274 101.053C68.5619 101.444 66.1583 102.773 64.6611 104.796C63.1848 106.79 62.6791 109.301 63.1582 112.259C63.2093 112.574 62.9952 112.871 62.6799 112.922C62.3658 112.973 62.0679 112.759 62.0168 112.443C61.4936 109.213 62.0866 106.33 63.7319 104.107C65.416 101.832 68.0944 100.341 71.2735 99.9069C74.0116 99.5445 76.7594 100.204 79.0118 101.763C81.3944 103.424 82.3026 106.006 82.7786 107.803C82.8455 108.055 82.7353 108.321 82.5098 108.451C82.2843 108.582 81.9993 108.546 81.8137 108.363L79.2132 105.796L74.7362 110.147C73.3325 111.756 70.2718 113.462 68.1684 113.804C68.1372 113.81 68.1059 113.812 68.0749 113.812Z" fill="#553597"/>
<path d="M151.667 145.137C144.197 137.39 148.113 132.956 149.427 131.621C152.549 128.451 161.263 129.694 160.219 128.968C157.928 127.377 155.058 126.605 152.076 127.008L112.122 132.525H82.7589C82.4157 132.525 79.9911 132.459 79.0898 132.569L77.5231 132.758C77.5231 132.758 78.4425 141.131 71.289 140.688C65.0806 140.303 65.4421 134.22 65.4421 134.22L62.7579 134.545C62.3804 134.59 62.0087 134.67 61.6344 134.737C57.2052 135.534 55.4865 137.024 53.8394 138.949L35.7886 159.998C31.6315 164.846 32.1913 172.147 37.0387 176.305C37.0828 176.343 37.1275 176.381 37.1722 176.418L56.4121 192.443C57.5014 193.35 58.7078 194.021 59.9704 194.465C59.9704 194.465 59.9985 193.222 59.3778 191.686C58.242 188.877 56.2955 184.671 57.6544 182.351C60.415 177.639 65.7676 177.065 68.4601 177.996C76.0408 180.616 74.317 188.571 74.7597 187.263C76.2495 182.862 74.984 177.807 71.1985 174.658V174.652L60.985 166.15L62.3272 164.584L89.1722 163.08L89.9559 155.655H112.754C113.175 155.655 113.595 155.632 114.014 155.585L155.174 149.93C158.957 149.419 162.064 147.132 163.768 144.023C164.915 141.93 158.204 148.753 151.667 145.137Z" fill="#6F46BE"/>
<path d="M83.7653 117.556C84.4839 119.197 84.7225 121.008 84.4533 122.779C83.7177 127.745 79.2263 131.454 74.3414 130.89L77.4671 130.836V134.841C77.3769 138.161 74.6129 140.779 71.2935 140.689C71.292 140.689 71.2904 140.689 71.2891 140.689C68.03 140.599 65.436 137.928 65.4404 134.667L65.4919 121.399" fill="white"/>
<path d="M71.4594 141.269C71.3991 141.269 71.3386 141.268 71.2779 141.266C67.6735 141.167 64.8575 138.268 64.8623 134.666L64.9138 121.397C64.9149 121.078 65.1737 120.821 65.4919 120.821C65.4927 120.821 65.4932 120.821 65.4942 120.821C65.8135 120.822 66.0714 121.082 66.07 121.401L66.0186 134.669C66.0145 137.638 68.3366 140.029 71.3051 140.11C74.3022 140.191 76.808 137.821 76.8895 134.825L76.8893 131.424L76.6452 131.428C75.8724 131.541 75.0779 131.557 74.2753 131.464C73.9729 131.429 73.7494 131.165 73.7642 130.862C73.779 130.557 74.0272 130.317 74.3315 130.312L76.5552 130.273C80.2072 129.705 83.2945 126.66 83.8817 122.695C84.1351 121.027 83.9118 119.331 83.2361 117.788C83.108 117.495 83.2413 117.154 83.5337 117.026C83.8262 116.898 84.1671 117.031 84.2952 117.324C85.0587 119.068 85.3112 120.984 85.0252 122.866C84.4348 126.853 81.5902 130.016 78.0456 131.111V134.84C77.9481 138.428 75.0112 141.269 71.4594 141.269Z" fill="#553597"/>
<path d="M77.2484 119.484C76.9725 119.484 76.7283 119.286 76.6795 119.005C76.6248 118.69 76.8356 118.391 77.1501 118.336L78.6018 118.084L77.8227 116.12C77.7049 115.823 77.85 115.487 78.1468 115.369C78.4438 115.251 78.7797 115.396 78.8974 115.693L79.9386 118.319C80.0028 118.48 79.9906 118.662 79.9056 118.814C79.8207 118.966 79.6717 119.072 79.5002 119.102L77.348 119.476C77.3145 119.481 77.2812 119.484 77.2484 119.484Z" fill="#553597"/>
<path d="M74.3419 115.986C74.8954 115.986 75.344 115.537 75.344 114.984C75.344 114.43 74.8954 113.981 74.3419 113.981C73.7885 113.981 73.3398 114.43 73.3398 114.984C73.3398 115.537 73.7885 115.986 74.3419 115.986Z" fill="#553597"/>
<path d="M81.5685 116.148C82.1219 116.148 82.5706 115.7 82.5706 115.146C82.5706 114.593 82.1219 114.144 81.5685 114.144C81.0151 114.144 80.5664 114.593 80.5664 115.146C80.5664 115.7 81.0151 116.148 81.5685 116.148Z" fill="#553597"/>
<path d="M65.6607 121.128C65.4065 121.173 65.1448 121.197 64.8777 121.197C62.4357 121.197 60.4561 119.217 60.4561 116.774C60.4561 114.332 62.4357 112.352 64.8777 112.352C67.3197 112.352 69.2994 114.332 69.2994 116.774" fill="white"/>
<path d="M64.8777 121.774C62.1208 121.774 59.8779 119.531 59.8779 116.773C59.8779 114.016 62.1208 111.772 64.8777 111.772C67.6346 111.772 69.8775 114.016 69.8775 116.773C69.8775 117.093 69.6187 117.352 69.2994 117.352C68.98 117.352 68.7212 117.093 68.7212 116.773C68.7212 114.654 66.9971 112.929 64.8777 112.929C62.7583 112.929 61.0342 114.654 61.0342 116.773C61.0342 118.893 62.7583 120.618 64.8777 120.618C65.1066 120.618 65.3358 120.598 65.5589 120.558C65.8746 120.501 66.1737 120.711 66.2297 121.025C66.286 121.339 66.0767 121.64 65.7624 121.696C65.4722 121.748 65.1747 121.774 64.8777 121.774Z" fill="#553597"/>
<path d="M64.6975 118.126C64.4606 118.126 64.2386 117.979 64.1537 117.744C64.0452 117.443 64.2009 117.112 64.5013 117.003L65.3841 116.685L63.6484 116C63.3514 115.883 63.2055 115.547 63.3227 115.25C63.4397 114.953 63.7754 114.807 64.0727 114.924L67.2331 116.171C67.4568 116.259 67.6025 116.477 67.5991 116.717C67.5956 116.958 67.4435 117.171 67.2173 117.253L64.8938 118.091C64.8289 118.115 64.7626 118.126 64.6975 118.126Z" fill="#553597"/>
<path d="M78.2749 125.408C76.7911 125.408 75.2402 124.169 75.1411 121.798C75.1344 121.637 75.1947 121.482 75.3072 121.367C75.4198 121.253 75.5743 121.191 75.7352 121.195L80.5832 121.334C80.7371 121.339 80.883 121.404 80.9884 121.516C81.0938 121.629 81.1499 121.779 81.1445 121.932C81.0601 124.327 79.6468 125.403 78.2836 125.408C78.2805 125.408 78.2776 125.408 78.2749 125.408ZM76.3712 122.371C76.6275 123.608 77.4683 124.251 78.2747 124.251C78.2763 124.251 78.278 124.251 78.2796 124.251C79.1263 124.248 79.7401 123.568 79.9299 122.472L76.3712 122.371Z" fill="#553597"/>
<path d="M62.607 165.146C62.4937 165.146 62.3793 165.113 62.2791 165.044C62.0162 164.862 61.9503 164.502 62.1318 164.239L67.4871 156.483C67.6689 156.22 68.0292 156.154 68.2913 156.336C68.5542 156.517 68.6201 156.877 68.4385 157.14L63.0832 164.897C62.9711 165.059 62.7905 165.146 62.607 165.146Z" fill="#553597"/>
<path d="M89.9959 155.853C89.9754 155.853 89.955 155.852 89.9344 155.85C89.6168 155.816 89.3867 155.532 89.4202 155.214L90.0311 149.435C90.0646 149.118 90.351 148.888 90.6669 148.921C90.9844 148.955 91.2145 149.239 91.181 149.557L90.5701 155.336C90.5387 155.633 90.2878 155.853 89.9959 155.853Z" fill="#553597"/>
<path d="M66.2513 177.525C60.1753 176.81 54.556 183.408 57.9438 189.042C57.99 189.119 58.0363 189.194 58.0825 189.266C59.6627 191.714 60.844 194.445 59.1328 198.346C57.9245 201.097 55.691 205.029 58.3311 206.081C60.1618 206.81 62.9561 202.317 65.1414 199.081C64.2472 204.624 63.0852 211.885 65.5653 212.436C68.0454 212.988 69.379 207.789 70.487 200.594C70.6566 208.689 69.6276 212.993 72.073 213.242C76.1064 213.649 76.7384 197.035 75.4184 191.237C75.4184 191.237 75.1371 189.85 74.3855 184.805C73.6166 179.647 69.4406 177.901 66.2513 177.525Z" fill="white"/>
<path d="M72.2131 213.827C72.1435 213.827 72.0774 213.823 72.0151 213.817C70.3627 213.649 70.0833 212.02 69.9913 211.484C69.805 210.399 69.8196 208.887 69.8609 206.995C69.0779 210.183 68.2206 211.925 67.1453 212.66C66.6186 213.02 66.0451 213.135 65.4402 213C62.9687 212.451 63.2335 207.839 64.1689 201.563C62.3124 204.289 60.4389 206.739 58.7486 206.74C58.5351 206.74 58.3251 206.701 58.1179 206.618C57.4348 206.346 56.963 205.894 56.7156 205.274C56.065 203.645 57.1681 201.248 58.1412 199.134C58.3033 198.781 58.4609 198.439 58.6039 198.113C60.1157 194.667 59.2948 192.209 57.5972 189.579C57.5483 189.503 57.4984 189.423 57.4486 189.34C55.8954 186.757 55.9729 183.775 57.6612 181.159C59.5366 178.253 63.0159 176.562 66.3193 176.951C68.6087 177.221 74.0332 178.518 74.9576 184.72C75.696 189.676 75.9826 191.109 75.9853 191.123C77.1163 196.089 76.8702 209.631 73.9226 212.968C73.3138 213.656 72.6854 213.827 72.2131 213.827ZM70.4868 200.015C70.4995 200.015 70.5124 200.015 70.5253 200.016C70.8244 200.036 71.0589 200.281 71.0653 200.581C71.1123 202.823 71.0688 204.737 71.0302 206.425C70.9339 210.666 70.9414 212.545 72.1315 212.666C72.2481 212.678 72.6037 212.714 73.056 212.202C75.5841 209.34 76.045 196.593 74.8547 191.365C74.8402 191.295 74.5589 189.892 73.8137 184.89C73.0068 179.477 68.209 178.338 66.1836 178.099C63.309 177.76 60.2737 179.242 58.6321 181.786C57.1921 184.017 57.1218 186.553 58.4391 188.744C58.4821 188.815 58.5245 188.884 58.5675 188.95C60.2124 191.498 61.4828 194.428 59.6623 198.578C59.5166 198.91 59.3562 199.258 59.1911 199.617C58.3586 201.426 57.3226 203.677 57.789 204.845C57.9177 205.167 58.1582 205.389 58.5453 205.544C59.7869 206.039 62.4864 202.006 64.0986 199.597C64.2901 199.31 64.4784 199.029 64.6624 198.756C64.8143 198.531 65.102 198.442 65.3544 198.542C65.6067 198.642 65.7556 198.904 65.7123 199.172C65.2868 201.809 64.7574 205.091 64.6659 207.651C64.5426 211.097 65.2552 211.774 65.6909 211.871C65.9788 211.935 66.2336 211.883 66.4926 211.706C68.194 210.542 69.2612 204.756 69.9158 200.505C69.9595 200.221 70.2037 200.015 70.4868 200.015Z" fill="#553597"/>
<path d="M163.327 137.735C166.379 136.253 164.86 136.174 167.488 133.356L173.047 126.965C176.617 122.886 171.338 123.477 169.523 124.766L163.358 128.722C158.839 129.152 156.67 129.053 152.022 130.136C146.341 131.458 146.867 140.337 149.781 143.582C152.01 146.053 155.499 146.953 158.645 145.868C159.975 145.392 161.108 144.818 162.264 144.394L162.297 144.382C163.2 144.025 164.159 143.825 165.13 143.793C165.641 143.784 166.152 143.83 166.654 143.929C167.797 144.153 169.082 144.664 170.624 145.591C173.194 147.143 176.806 149.862 178.189 147.38C178.661 146.533 177.908 145.288 176.675 143.939L171.891 140.024L179.607 141.712C182.555 142.295 184.939 142.347 185.419 141.021C186.285 138.631 180.876 137.253 176.465 135.83C181.202 136.502 186.493 137.064 187.054 134.67C187.602 132.326 186.543 131.423 180.701 130.363L171.35 128.915" fill="white"/>
<path d="M176.507 148.96C174.917 148.96 172.996 147.755 171.275 146.675C170.948 146.47 170.629 146.27 170.325 146.086C168.917 145.239 167.68 144.719 166.543 144.497C166.081 144.405 165.61 144.363 165.139 144.371C164.242 144.401 163.354 144.586 162.51 144.92C162.503 144.923 162.496 144.925 162.49 144.928L162.457 144.939C161.939 145.129 161.418 145.354 160.867 145.592C160.227 145.868 159.566 146.153 158.84 146.413C155.463 147.577 151.741 146.617 149.352 143.97C147.305 141.689 146.483 137.158 147.52 133.867C148.249 131.554 149.76 130.069 151.891 129.573C155.366 128.763 157.484 128.605 160.165 128.405C161.092 128.335 162.048 128.264 163.165 128.159L169.201 124.286C170.433 123.42 173.427 122.651 174.489 123.827C175.187 124.601 174.849 125.785 173.482 127.346L172.475 128.504L180.789 129.792C184.914 130.54 186.632 131.202 187.369 132.326C187.909 133.149 187.785 134.081 187.617 134.802C187.185 136.648 184.834 137.091 181.787 136.969C183.771 137.715 185.335 138.544 185.88 139.645C186.13 140.151 186.158 140.68 185.964 141.218C185.255 143.176 181.933 142.761 179.496 142.279L174.124 141.105L177.041 143.492C177.063 143.509 177.083 143.528 177.102 143.549C178.138 144.683 179.43 146.343 178.695 147.662C178.337 148.303 177.828 148.713 177.181 148.879C176.965 148.934 176.739 148.96 176.507 148.96ZM165.244 143.214C165.759 143.214 166.268 143.264 166.766 143.362C168.036 143.611 169.396 144.178 170.922 145.095C171.232 145.283 171.556 145.486 171.89 145.695C173.576 146.754 175.676 148.071 176.894 147.759C177.23 147.672 177.481 147.463 177.685 147.098C177.839 146.822 177.859 146.1 176.276 144.36L171.525 140.472C171.318 140.303 171.254 140.014 171.37 139.773C171.487 139.532 171.753 139.403 172.014 139.46L179.731 141.147C183.812 141.954 184.707 141.291 184.876 140.824C184.963 140.585 184.952 140.379 184.843 140.158C184.206 138.87 180.77 137.792 177.738 136.84C177.249 136.687 176.762 136.534 176.287 136.381C176.002 136.289 175.834 135.993 175.901 135.701C175.969 135.408 176.249 135.215 176.546 135.258C179.617 135.693 186.008 136.599 186.491 134.538C186.665 133.793 186.638 133.321 186.402 132.96C185.886 132.174 184.204 131.586 180.597 130.932L171.577 129.536L167.924 133.736C167.92 133.741 167.915 133.746 167.911 133.75C166.881 134.854 166.532 135.493 166.252 136.006C165.774 136.881 165.461 137.342 163.58 138.256C163.292 138.395 162.947 138.275 162.807 137.988C162.668 137.701 162.788 137.355 163.075 137.215C164.707 136.423 164.862 136.138 165.237 135.452C165.532 134.913 165.934 134.175 167.058 132.969L170.909 128.542C170.912 128.538 170.916 128.534 170.919 128.531L172.611 126.585C173.705 125.335 173.756 124.741 173.63 124.602C173.213 124.14 171.001 124.426 169.858 125.237C169.851 125.242 169.843 125.247 169.836 125.252L163.671 129.208C163.593 129.258 163.505 129.289 163.413 129.297C162.225 129.41 161.221 129.485 160.251 129.558C157.62 129.754 155.541 129.909 152.153 130.699C149.992 131.202 149.04 132.888 148.622 134.215C147.711 137.108 148.438 141.221 150.211 143.196C152.288 145.497 155.525 146.332 158.457 145.322C159.142 145.076 159.786 144.799 160.409 144.53C160.975 144.285 161.51 144.055 162.065 143.851L162.094 143.841C163.059 143.46 164.074 143.25 165.11 143.215C165.155 143.214 165.199 143.214 165.244 143.214Z" fill="#553597"/>
<path d="M135.665 254.456C135.637 254.456 135.607 254.453 135.578 254.449L101.143 249.21C100.983 249.185 100.84 249.094 100.749 248.959C100.659 248.824 100.63 248.657 100.669 248.499L110.668 208.055L84.1725 198.081C83.8736 197.969 83.7226 197.635 83.8351 197.336C83.9476 197.037 84.2808 196.886 84.5797 196.999L111.556 207.153C111.831 207.255 111.985 207.548 111.914 207.833L101.944 248.162L135.229 253.226L147.46 203.087C147.462 203.076 147.465 203.065 147.469 203.054C149.122 195.926 146.019 188.63 139.738 184.879L88.8624 163.563C88.568 163.44 88.4292 163.101 88.5526 162.806C88.6759 162.512 89.0145 162.373 89.3091 162.496L140.222 183.828C140.247 183.838 140.271 183.85 140.294 183.864C147.045 187.875 150.377 195.707 148.586 203.354C148.583 203.369 148.579 203.383 148.574 203.398L136.227 254.015C136.162 254.276 135.928 254.456 135.665 254.456Z" fill="#553597"/>
</g>
<mask id="mask4_615_7459" style="mask-type:luminance" maskUnits="userSpaceOnUse" x="172" y="238" width="22" height="40">
<path d="M193.732 240.899L175.938 238.991L172.055 275.205L189.85 277.113L193.732 240.899Z" fill="white"/>
</mask>
<g mask="url(#mask4_615_7459)">
<path d="M180.961 276.16C180.781 276.14 180.616 276.051 180.503 275.911C180.389 275.771 180.336 275.591 180.356 275.412L183.555 245.572C183.574 245.393 183.664 245.229 183.804 245.116C183.945 245.003 184.125 244.951 184.304 244.97C184.484 244.989 184.649 245.079 184.762 245.219C184.876 245.359 184.929 245.539 184.91 245.718L181.711 275.558C181.691 275.736 181.602 275.9 181.461 276.013C181.32 276.126 181.14 276.179 180.961 276.16Z" fill="#553597"/>
<path d="M188.975 246.282L179.462 245.262C178.694 245.17 177.992 244.78 177.51 244.177C177.028 243.574 176.804 242.806 176.886 242.039C176.968 241.273 177.35 240.57 177.949 240.082C178.548 239.595 179.316 239.363 180.086 239.436L189.6 240.455C190.368 240.547 191.069 240.937 191.552 241.541C192.034 242.144 192.258 242.912 192.176 243.678C192.094 244.445 191.712 245.148 191.113 245.635C190.513 246.123 189.746 246.355 188.975 246.282ZM179.836 241.773C179.683 241.756 179.529 241.801 179.409 241.898C179.289 241.994 179.212 242.134 179.196 242.287C179.179 242.44 179.224 242.593 179.321 242.713C179.418 242.832 179.559 242.909 179.712 242.925L189.226 243.945C189.379 243.962 189.533 243.917 189.653 243.82C189.773 243.724 189.85 243.584 189.866 243.431C189.882 243.278 189.837 243.125 189.74 243.005C189.643 242.886 189.503 242.809 189.349 242.793L179.836 241.773Z" fill="#6F46BE"/>
<path d="M188.662 256.937C187.215 256.782 183.367 253.713 183.367 253.713C183.367 253.713 187.778 251.531 189.225 251.686C189.924 251.761 190.564 252.109 191.006 252.654C191.447 253.2 191.653 253.897 191.579 254.594C191.504 255.29 191.155 255.928 190.608 256.367C190.061 256.807 189.361 257.012 188.662 256.937Z" fill="white"/>
<path d="M188.589 257.611C187.024 257.443 183.61 254.776 182.941 254.243C182.852 254.171 182.782 254.079 182.738 253.974C182.694 253.868 182.677 253.754 182.689 253.64C182.701 253.527 182.742 253.418 182.807 253.325C182.873 253.231 182.961 253.156 183.063 253.105C183.83 252.726 187.732 250.843 189.297 251.01C190.175 251.104 190.981 251.543 191.536 252.228C192.091 252.914 192.35 253.791 192.256 254.666C192.162 255.541 191.723 256.343 191.035 256.896C190.348 257.448 189.468 257.705 188.589 257.611ZM184.661 253.852C186.154 254.964 188.021 256.185 188.734 256.262C189.253 256.317 189.773 256.165 190.18 255.839C190.586 255.512 190.845 255.038 190.901 254.521C190.956 254.004 190.803 253.485 190.475 253.08C190.147 252.675 189.671 252.416 189.152 252.36C188.439 252.284 186.355 253.081 184.661 253.852Z" fill="#553597"/>
<path d="M177.494 255.74C178.94 255.895 183.351 253.712 183.351 253.712C183.351 253.712 179.503 250.644 178.056 250.489C177.357 250.414 176.657 250.618 176.11 251.058C175.563 251.497 175.214 252.135 175.139 252.832C175.065 253.528 175.271 254.225 175.712 254.771C176.154 255.316 176.795 255.665 177.494 255.74Z" fill="white"/>
<path d="M177.421 256.414C176.542 256.32 175.737 255.882 175.182 255.196C174.627 254.511 174.368 253.634 174.462 252.758C174.555 251.883 174.994 251.081 175.682 250.529C176.37 249.976 177.25 249.719 178.128 249.813C179.693 249.981 183.108 252.649 183.776 253.182C183.866 253.253 183.936 253.345 183.98 253.451C184.024 253.556 184.04 253.671 184.028 253.784C184.016 253.897 183.976 254.006 183.91 254.099C183.845 254.193 183.757 254.269 183.654 254.319C182.888 254.699 178.986 256.582 177.421 256.414ZM177.984 251.163C177.464 251.107 176.944 251.259 176.538 251.586C176.131 251.912 175.872 252.386 175.817 252.904C175.761 253.421 175.914 253.939 176.242 254.344C176.57 254.75 177.046 255.008 177.566 255.064C178.278 255.141 180.362 254.343 182.056 253.573C180.564 252.461 178.696 251.239 177.984 251.163Z" fill="#553597"/>
</g>
<mask id="mask5_615_7459" style="mask-type:luminance" maskUnits="userSpaceOnUse" x="0" y="189" width="27" height="87">
<path d="M0.316473 189.291H26.6904V275.948H0.316473V189.291Z" fill="white"/>
</mask>
<g mask="url(#mask5_615_7459)">
<path d="M5.39962 215.44L12.1149 219.467L16.137 212.744C16.7628 211.702 17.1774 210.546 17.3571 209.344C17.5369 208.141 17.4783 206.915 17.1847 205.735C16.8911 204.555 16.3682 203.444 15.646 202.467C14.9237 201.489 14.0162 200.664 12.9752 200.037L12.9501 200.022L6.23485 195.995L2.21271 202.718C1.58696 203.761 1.17237 204.916 0.992613 206.119C0.812855 207.321 0.871452 208.548 1.16506 209.727C1.45866 210.907 1.98152 212.018 2.70379 212.996C3.42606 213.973 4.33358 214.799 5.37455 215.425L5.39962 215.44Z" fill="white"/>
<path d="M12.1145 220.038C12.2129 220.038 12.3097 220.012 12.3953 219.964C12.481 219.915 12.5526 219.845 12.6032 219.76L16.6253 213.037C17.9667 210.803 18.3666 208.126 17.737 205.597C17.1075 203.067 15.5001 200.891 13.2684 199.548L13.243 199.533L6.52713 195.506C6.39752 195.428 6.24241 195.405 6.09591 195.442C5.9494 195.479 5.82348 195.572 5.74583 195.702L1.7237 202.425C0.382395 204.66 -0.0174694 207.336 0.612057 209.866C1.24158 212.395 2.84894 214.571 5.08057 215.914L5.10602 215.929L11.8217 219.957C11.9102 220.01 12.0114 220.038 12.1145 220.038ZM6.43046 196.778L12.6786 200.523C13.6559 201.111 14.508 201.886 15.1863 202.803C15.8645 203.721 16.3555 204.763 16.6313 205.871C16.9071 206.978 16.9622 208.129 16.7935 209.258C16.6248 210.387 16.2356 211.471 15.6482 212.45L11.9185 218.684L5.6674 214.936C3.69476 213.749 2.27401 211.825 1.71767 209.589C1.16133 207.353 1.51497 204.987 2.70079 203.012L6.43046 196.778Z" fill="#553597"/>
<path d="M26.1213 275.948C26.1681 275.948 26.2148 275.942 26.2603 275.931C26.3328 275.913 26.4011 275.88 26.4612 275.836C26.5213 275.791 26.572 275.735 26.6105 275.671C26.6489 275.606 26.6743 275.535 26.6853 275.461C26.6962 275.387 26.6925 275.311 26.6743 275.239L9.95105 208.484C9.91428 208.338 9.82078 208.212 9.69113 208.134C9.56147 208.056 9.40627 208.033 9.25968 208.07C9.11308 208.107 8.9871 208.2 8.90944 208.33C8.83178 208.46 8.80881 208.615 8.84558 208.762L25.5686 275.516C25.5994 275.64 25.6706 275.749 25.7707 275.827C25.8708 275.906 25.9942 275.948 26.1213 275.948Z" fill="#553597"/>
<path d="M6.23453 196.566C6.2814 196.566 6.32809 196.56 6.37355 196.549C6.44613 196.531 6.51441 196.498 6.57449 196.454C6.63458 196.409 6.68529 196.353 6.72373 196.289C6.76218 196.224 6.7876 196.153 6.79855 196.079C6.8095 196.005 6.80577 195.929 6.78756 195.857L5.27054 189.801C5.23378 189.654 5.14029 189.528 5.01065 189.45C4.88101 189.372 4.72584 189.349 4.57927 189.386C4.4327 189.423 4.30674 189.517 4.22909 189.646C4.15145 189.776 4.12849 189.932 4.16526 190.078L5.68227 196.134C5.71312 196.258 5.78421 196.367 5.88426 196.445C5.98431 196.523 6.10759 196.566 6.23453 196.566Z" fill="#553597"/>
<path d="M6.2353 196.566C6.36913 196.565 6.49861 196.518 6.60105 196.432C6.70349 196.346 6.77234 196.226 6.79554 196.094L7.87538 189.96C7.88973 189.886 7.88917 189.809 7.87372 189.735C7.85827 189.661 7.82825 189.591 7.7854 189.528C7.74254 189.466 7.68772 189.413 7.62412 189.372C7.56052 189.331 7.48942 189.303 7.41496 189.29C7.34051 189.277 7.26418 189.279 7.19043 189.295C7.11668 189.312 7.04699 189.343 6.98541 189.387C6.92383 189.431 6.8716 189.487 6.83177 189.551C6.79193 189.615 6.76528 189.687 6.75338 189.762L5.67354 195.896C5.65908 195.978 5.66277 196.062 5.68434 196.143C5.70591 196.223 5.74484 196.298 5.79839 196.362C5.85194 196.426 5.91881 196.477 5.9943 196.512C6.06978 196.547 6.15205 196.566 6.2353 196.566Z" fill="#553597"/>
<path d="M6.23519 196.565C6.34224 196.565 6.44711 196.535 6.53778 196.478C6.62846 196.421 6.70127 196.34 6.74787 196.243C6.79447 196.147 6.81298 196.039 6.80127 195.932C6.78956 195.826 6.74811 195.725 6.68167 195.641L2.8145 190.749C2.71885 190.636 2.58321 190.565 2.43618 190.551C2.28915 190.536 2.14224 190.579 2.02645 190.671C1.91065 190.763 1.83502 190.896 1.81552 191.043C1.79602 191.19 1.83417 191.338 1.92192 191.457L5.78813 196.349C5.84143 196.417 5.90936 196.471 5.9868 196.509C6.06424 196.546 6.14917 196.565 6.23519 196.565Z" fill="#553597"/>
<path d="M13.2143 228.413C10.7179 228.413 8.69421 226.387 8.69421 223.888C8.69421 221.388 10.7179 219.362 13.2143 219.362C15.7107 219.362 17.7344 221.388 17.7344 223.888C17.7344 226.387 15.7107 228.413 13.2143 228.413Z" fill="white"/>
<path d="M13.2141 228.983C14.2207 228.983 15.2047 228.685 16.0417 228.125C16.8787 227.565 17.5311 226.769 17.9163 225.838C18.3015 224.907 18.4023 223.882 18.2059 222.894C18.0095 221.905 17.5248 220.997 16.813 220.284C16.1012 219.572 15.1943 219.087 14.207 218.89C13.2197 218.693 12.1964 218.794 11.2664 219.18C10.3364 219.566 9.54147 220.219 8.98221 221.057C8.42295 221.895 8.12445 222.88 8.12445 223.888C8.12606 225.239 8.6628 226.534 9.61695 227.489C10.5711 228.444 11.8647 228.982 13.2141 228.983ZM13.2141 219.933C13.9953 219.933 14.7591 220.165 15.4087 220.599C16.0583 221.034 16.5646 221.652 16.8636 222.374C17.1625 223.097 17.2408 223.892 17.0883 224.659C16.9359 225.426 16.5597 226.131 16.0073 226.684C15.4548 227.237 14.751 227.614 13.9847 227.767C13.2185 227.919 12.4242 227.841 11.7024 227.541C10.9806 227.242 10.3637 226.735 9.92964 226.085C9.49559 225.435 9.26392 224.67 9.26392 223.888C9.26503 222.839 9.68155 221.834 10.4221 221.092C11.1626 220.351 12.1667 219.934 13.2141 219.932V219.933Z" fill="#553597"/>
</g>
<mask id="mask6_615_7459" style="mask-type:luminance" maskUnits="userSpaceOnUse" x="306" y="185" width="39" height="95">
<path d="M344.51 189.525L320.942 185.787L306.678 275.716L330.245 279.454L344.51 189.525Z" fill="white"/>
</mask>
<g mask="url(#mask6_615_7459)">
<path d="M330.396 199.111C333.449 199.595 336.314 197.531 336.795 194.502C337.275 191.472 335.189 188.623 332.136 188.139C329.083 187.654 326.218 189.718 325.737 192.748C325.257 195.778 327.342 198.626 330.396 199.111Z" fill="white"/>
<path d="M330.307 199.672C329.102 199.481 327.979 198.94 327.083 198.116C326.186 197.293 325.554 196.224 325.268 195.046C324.982 193.868 325.055 192.633 325.476 191.497C325.897 190.361 326.648 189.375 327.635 188.665C328.622 187.954 329.799 187.551 331.018 187.505C332.237 187.459 333.444 187.773 334.485 188.407C335.526 189.042 336.355 189.968 336.867 191.069C337.379 192.169 337.551 193.395 337.361 194.592C337.105 196.195 336.218 197.63 334.896 198.582C333.573 199.535 331.923 199.927 330.307 199.672ZM332.047 188.701C331.066 188.545 330.061 188.681 329.159 189.093C328.257 189.505 327.499 190.173 326.98 191.013C326.462 191.853 326.207 192.828 326.247 193.813C326.287 194.799 326.62 195.751 327.205 196.55C327.79 197.349 328.6 197.958 329.532 198.301C330.465 198.644 331.478 198.704 332.444 198.475C333.41 198.247 334.285 197.738 334.959 197.015C335.632 196.292 336.074 195.386 336.229 194.412C336.434 193.106 336.11 191.772 335.326 190.701C334.542 189.63 333.363 188.911 332.047 188.701Z" fill="#553597"/>
<path d="M334.39 211.74C337.443 212.225 340.308 210.161 340.789 207.131C341.269 204.102 339.184 201.253 336.13 200.769C333.077 200.284 330.212 202.348 329.731 205.378C329.251 208.407 331.336 211.256 334.39 211.74Z" fill="white"/>
<path d="M334.3 212.302C333.095 212.111 331.973 211.57 331.076 210.746C330.179 209.923 329.548 208.854 329.262 207.676C328.976 206.498 329.048 205.262 329.469 204.127C329.89 202.991 330.642 202.005 331.628 201.295C332.615 200.584 333.792 200.18 335.011 200.135C336.231 200.089 337.437 200.403 338.478 201.037C339.519 201.672 340.348 202.598 340.86 203.699C341.372 204.799 341.544 206.025 341.354 207.221C341.098 208.825 340.212 210.26 338.889 211.212C337.567 212.165 335.916 212.557 334.3 212.302ZM336.041 201.33C335.059 201.175 334.054 201.311 333.152 201.723C332.25 202.135 331.492 202.803 330.974 203.643C330.455 204.483 330.2 205.458 330.24 206.443C330.28 207.429 330.613 208.381 331.198 209.18C331.783 209.979 332.593 210.588 333.525 210.931C334.458 211.273 335.471 211.334 336.437 211.105C337.403 210.876 338.278 210.368 338.952 209.645C339.625 208.922 340.068 208.016 340.222 207.042C340.428 205.736 340.103 204.401 339.319 203.331C338.535 202.26 337.356 201.541 336.041 201.33Z" fill="#553597"/>
<path d="M323.304 210.289C326.357 210.774 329.222 208.71 329.703 205.68C330.183 202.65 328.098 199.802 325.044 199.317C321.991 198.833 319.126 200.897 318.645 203.926C318.165 206.956 320.251 209.805 323.304 210.289Z" fill="white"/>
<path d="M323.215 210.851C322.01 210.66 320.888 210.118 319.991 209.295C319.094 208.471 318.463 207.403 318.177 206.225C317.891 205.046 317.963 203.811 318.384 202.675C318.805 201.54 319.557 200.554 320.543 199.844C321.53 199.133 322.707 198.729 323.926 198.683C325.146 198.638 326.352 198.952 327.393 199.586C328.434 200.221 329.263 201.147 329.775 202.247C330.287 203.348 330.459 204.574 330.269 205.77C330.013 207.373 329.126 208.809 327.804 209.761C326.482 210.714 324.831 211.106 323.215 210.851ZM324.956 199.879C323.974 199.724 322.969 199.86 322.067 200.272C321.165 200.683 320.407 201.352 319.889 202.192C319.37 203.032 319.115 204.007 319.155 204.992C319.195 205.978 319.528 206.93 320.113 207.729C320.698 208.528 321.508 209.137 322.44 209.48C323.373 209.822 324.386 209.883 325.352 209.654C326.318 209.425 327.193 208.917 327.867 208.194C328.541 207.47 328.983 206.565 329.137 205.591C329.343 204.285 329.018 202.95 328.234 201.879C327.45 200.809 326.271 200.089 324.956 199.879Z" fill="#553597"/>
<path d="M332.796 223.984C335.849 224.468 338.714 222.404 339.195 219.375C339.676 216.345 337.59 213.496 334.536 213.012C331.483 212.527 328.618 214.591 328.138 217.621C327.657 220.651 329.743 223.499 332.796 223.984Z" fill="white"/>
<path d="M332.707 224.545C331.502 224.354 330.38 223.813 329.483 222.989C328.586 222.166 327.955 221.097 327.669 219.919C327.383 218.741 327.455 217.506 327.876 216.37C328.297 215.234 329.049 214.248 330.035 213.538C331.022 212.827 332.199 212.424 333.419 212.378C334.638 212.332 335.844 212.646 336.885 213.28C337.926 213.915 338.755 214.841 339.267 215.942C339.779 217.042 339.951 218.268 339.761 219.465C339.505 221.068 338.619 222.503 337.296 223.455C335.974 224.408 334.324 224.8 332.707 224.545ZM334.448 213.574C333.466 213.418 332.461 213.554 331.559 213.966C330.657 214.378 329.899 215.046 329.381 215.886C328.862 216.726 328.607 217.701 328.647 218.686C328.687 219.672 329.021 220.624 329.605 221.423C330.19 222.222 331 222.831 331.932 223.174C332.865 223.517 333.878 223.577 334.844 223.348C335.81 223.12 336.685 222.611 337.359 221.888C338.033 221.165 338.475 220.259 338.629 219.285C338.835 217.979 338.51 216.645 337.726 215.574C336.942 214.503 335.763 213.784 334.448 213.574Z" fill="#553597"/>
<path d="M321.694 222.51C324.747 222.994 327.612 220.931 328.092 217.901C328.573 214.871 326.487 212.022 323.434 211.538C320.381 211.054 317.516 213.117 317.035 216.147C316.554 219.177 318.64 222.026 321.694 222.51Z" fill="white"/>
<path d="M321.605 223.072C320.399 222.881 319.277 222.339 318.38 221.516C317.484 220.692 316.852 219.624 316.566 218.445C316.28 217.267 316.352 216.032 316.774 214.896C317.195 213.76 317.946 212.775 318.933 212.064C319.919 211.354 321.097 210.95 322.316 210.904C323.535 210.858 324.742 211.172 325.783 211.807C326.824 212.441 327.653 213.367 328.165 214.468C328.677 215.569 328.849 216.795 328.659 217.991C328.403 219.594 327.516 221.029 326.194 221.982C324.871 222.934 323.221 223.326 321.605 223.072ZM323.345 212.1C322.364 211.944 321.358 212.081 320.457 212.492C319.555 212.904 318.797 213.572 318.278 214.413C317.76 215.253 317.505 216.227 317.545 217.213C317.585 218.198 317.918 219.151 318.503 219.95C319.088 220.748 319.897 221.358 320.83 221.7C321.762 222.043 322.776 222.104 323.742 221.875C324.708 221.646 325.583 221.138 326.256 220.414C326.93 219.691 327.372 218.785 327.527 217.811C327.732 216.506 327.408 215.171 326.624 214.1C325.84 213.029 324.661 212.31 323.345 212.1Z" fill="#553597"/>
<path d="M320.245 277.868C320.097 277.844 319.965 277.765 319.875 277.646C319.786 277.527 319.746 277.378 319.765 277.231L330.366 196.143C330.375 196.069 330.4 195.997 330.437 195.933C330.475 195.868 330.525 195.811 330.584 195.766C330.705 195.674 330.857 195.633 331.008 195.653C331.159 195.673 331.295 195.751 331.388 195.871C331.481 195.991 331.522 196.142 331.503 196.292L320.902 277.38C320.893 277.454 320.868 277.526 320.831 277.591C320.793 277.655 320.743 277.712 320.684 277.757C320.624 277.803 320.556 277.836 320.483 277.855C320.411 277.875 320.335 277.88 320.26 277.87L320.245 277.868Z" fill="#553597"/>
</g>
<mask id="mask7_615_7459" style="mask-type:luminance" maskUnits="userSpaceOnUse" x="206" y="84" width="81" height="169">
<path d="M286.034 84.1094H206.598V252.086H286.034V84.1094Z" fill="white"/>
</mask>
<g mask="url(#mask7_615_7459)">
<path d="M221.057 84.7073H271.573C279.214 84.7073 285.433 90.8773 285.433 98.527V237.668C285.433 245.286 279.245 251.488 271.573 251.488H221.057C213.417 251.457 207.197 245.286 207.197 237.668V98.527C207.197 90.9088 213.417 84.7073 221.057 84.7073Z" fill="white"/>
<path d="M271.542 252.086H221.058C213.07 252.086 206.598 245.601 206.598 237.669V98.5272C206.598 90.5628 213.07 84.1094 221.058 84.1094H271.573C279.53 84.1094 286.034 90.5628 286.034 98.5272V237.669C286.034 245.601 279.53 252.086 271.542 252.086ZM221.058 85.3371C213.765 85.3371 207.829 91.2553 207.829 98.5272V237.669C207.829 244.94 213.765 250.859 221.058 250.859H271.573C278.867 250.859 284.802 244.94 284.802 237.669V98.5272C284.802 91.2553 278.867 85.3371 271.573 85.3371H221.058Z" fill="#553597"/>
<path d="M265.164 84.834V84.9914C265.196 88.7375 262.165 91.7911 258.408 91.854L234.35 92.0744C230.593 92.0744 227.499 89.0838 227.436 85.3062V84.834H265.164Z" fill="white"/>
<path d="M234.287 92.672C230.214 92.672 226.899 89.3981 226.836 85.3686V84.8335C226.836 84.4872 227.089 84.2354 227.436 84.2354H265.133C265.48 84.2354 265.733 84.4872 265.733 84.8335V84.9909C265.765 89.0518 262.449 92.4201 258.377 92.4516L234.319 92.672C234.35 92.672 234.319 92.672 234.287 92.672ZM228.067 85.4316C228.162 88.7685 230.909 91.4128 234.287 91.4128C234.319 91.4128 234.319 91.4128 234.35 91.4128L258.408 91.1924C261.66 91.1609 264.312 88.6111 264.533 85.4316H228.067Z" fill="#553597"/>
<path d="M237.854 89.052C237.538 89.052 237.254 88.8002 237.254 88.4539C237.254 88.1076 237.506 87.8558 237.854 87.8558L255.029 87.604C255.376 87.5725 255.629 87.8558 255.629 88.2021C255.629 88.5484 255.376 88.8002 255.029 88.8002L237.854 89.052Z" fill="#553597"/>
</g>
<mask id="mask8_615_7459" style="mask-type:luminance" maskUnits="userSpaceOnUse" x="175" y="113" width="96" height="52">
<path d="M270.021 160.878V116.603C270.021 114.783 268.547 113.308 266.727 113.308H178.495C176.676 113.308 175.201 114.783 175.201 116.603V160.878C175.201 162.698 176.676 164.172 178.495 164.172H266.727C268.547 164.172 270.021 162.698 270.021 160.878Z" fill="white"/>
</mask>
<g mask="url(#mask8_615_7459)">
<path d="M270.021 160.878V116.603C270.021 114.783 268.547 113.308 266.727 113.308H178.495C176.676 113.308 175.201 114.783 175.201 116.603V160.878C175.201 162.698 176.676 164.172 178.495 164.172H266.727C268.547 164.172 270.021 162.698 270.021 160.878Z" fill="#553597"/>
</g>
<mask id="mask9_615_7459" style="mask-type:luminance" maskUnits="userSpaceOnUse" x="172" y="110" width="96" height="52">
<path d="M266.706 113.639V157.915C266.706 159.507 265.416 160.797 263.824 160.797H175.592C174 160.797 172.709 159.507 172.709 157.915V113.639C172.709 112.047 174 110.757 175.592 110.757H263.824C265.416 110.757 266.706 112.047 266.706 113.639Z" fill="white" stroke="white" stroke-width="0.823543"/>
</mask>
<g mask="url(#mask9_615_7459)">
<path d="M266.501 113.639V157.915C266.501 159.393 265.302 160.591 263.824 160.591H175.592C174.113 160.591 172.915 159.393 172.915 157.915V113.639C172.915 112.161 174.113 110.963 175.592 110.963H263.824C265.302 110.963 266.501 112.161 266.501 113.639Z" fill="#EDE3FF" stroke="#553597" stroke-width="1.23531"/>
</g>
<path d="M258.873 100.297C259.005 99.9381 259.512 99.9381 259.645 100.297L260.215 101.837C260.257 101.949 260.345 102.038 260.458 102.08L261.998 102.65C262.357 102.783 262.357 103.29 261.998 103.422L260.458 103.992C260.345 104.034 260.257 104.123 260.215 104.235L259.645 105.776C259.512 106.134 259.005 106.134 258.873 105.776L258.303 104.235C258.261 104.123 258.172 104.034 258.059 103.992L256.519 103.422C256.161 103.29 256.161 102.783 256.519 102.65L258.059 102.08C258.172 102.038 258.261 101.949 258.303 101.837L258.873 100.297Z" fill="#553597"/>
<path d="M155.106 169.474C155.239 169.116 155.746 169.116 155.878 169.474L156.448 171.014C156.49 171.127 156.579 171.216 156.691 171.258L158.232 171.828C158.59 171.96 158.59 172.467 158.232 172.6L156.691 173.17C156.579 173.212 156.49 173.3 156.448 173.413L155.878 174.953C155.746 175.312 155.239 175.312 155.106 174.953L154.536 173.413C154.494 173.3 154.405 173.212 154.293 173.17L152.753 172.6C152.394 172.467 152.394 171.96 152.753 171.828L154.293 171.258C154.405 171.216 154.494 171.127 154.536 171.014L155.106 169.474Z" fill="#553597"/>
<path d="M266.979 93.2702C267.112 92.9117 267.619 92.9117 267.752 93.2702L268.759 95.9938C268.801 96.1065 268.89 96.1954 269.003 96.2371L271.726 97.2449C272.085 97.3775 272.085 97.8846 271.726 98.0172L269.003 99.0251C268.89 99.0668 268.801 99.1556 268.759 99.2683L267.752 101.992C267.619 102.35 267.112 102.35 266.979 101.992L265.971 99.2683C265.93 99.1556 265.841 99.0668 265.728 99.0251L263.005 98.0172C262.646 97.8846 262.646 97.3775 263.005 97.2449L265.728 96.2371C265.841 96.1954 265.93 96.1065 265.971 95.9938L266.979 93.2702Z" fill="#553597"/>
<path d="M157.088 60.329C157.22 59.9705 157.727 59.9705 157.86 60.329L159.632 65.1189C159.674 65.2317 159.763 65.3205 159.876 65.3622L164.666 67.1346C165.024 67.2673 165.024 67.7744 164.665 67.907L159.876 69.6794C159.763 69.7211 159.674 69.81 159.632 69.9227L157.86 74.7126C157.727 75.0711 157.22 75.0711 157.088 74.7126L155.315 69.9227C155.273 69.81 155.185 69.7211 155.072 69.6794L150.282 67.907C149.923 67.7744 149.923 67.2673 150.282 67.1346L155.072 65.3622C155.185 65.3205 155.273 65.2317 155.315 65.1189L157.088 60.329Z" fill="#553597"/>
<path d="M143.087 72.6823C143.22 72.3238 143.727 72.3238 143.859 72.6823L144.52 74.4667C144.561 74.5794 144.65 74.6682 144.763 74.7099L146.547 75.3702C146.906 75.5029 146.906 76.0099 146.547 76.1426L144.763 76.8028C144.65 76.8445 144.561 76.9334 144.52 77.0461L143.859 78.8305C143.727 79.189 143.22 79.189 143.087 78.8305L142.427 77.0461C142.385 76.9334 142.296 76.8445 142.183 76.8028L140.399 76.1426C140.041 76.0099 140.041 75.5029 140.399 75.3702L142.183 74.7099C142.296 74.6682 142.385 74.5794 142.427 74.4667L143.087 72.6823Z" fill="#553597"/>
<path d="M17.085 150.095C17.2177 149.737 17.7248 149.737 17.8574 150.095L18.5177 151.88C18.5594 151.992 18.6482 152.081 18.761 152.123L20.5453 152.783C20.9038 152.916 20.9038 153.423 20.5453 153.556L18.761 154.216C18.6482 154.258 18.5594 154.346 18.5177 154.459L17.8574 156.244C17.7248 156.602 17.2177 156.602 17.085 156.244L16.4248 154.459C16.3831 154.346 16.2942 154.258 16.1815 154.216L14.3972 153.556C14.0387 153.423 14.0387 152.916 14.3972 152.783L16.1815 152.123C16.2942 152.081 16.3831 151.992 16.4248 151.88L17.085 150.095Z" fill="#553597"/>
<path d="M115.91 106.447C116.043 106.088 116.55 106.088 116.683 106.447L117.343 108.231C117.385 108.344 117.473 108.433 117.586 108.475L119.371 109.135C119.729 109.268 119.729 109.775 119.371 109.907L117.586 110.567C117.473 110.609 117.385 110.698 117.343 110.811L116.683 112.595C116.55 112.954 116.043 112.954 115.91 112.595L115.25 110.811C115.208 110.698 115.119 110.609 115.007 110.567L113.222 109.907C112.864 109.775 112.864 109.268 113.222 109.135L115.007 108.475C115.119 108.433 115.208 108.344 115.25 108.231L115.91 106.447Z" fill="#553597"/>
<path d="M182.617 76.7995C182.75 76.441 183.257 76.441 183.39 76.7995L184.05 78.5838C184.092 78.6966 184.18 78.7854 184.293 78.8271L186.078 79.4874C186.436 79.62 186.436 80.1271 186.078 80.2598L184.293 80.92C184.18 80.9617 184.092 81.0506 184.05 81.1633L183.39 82.9477C183.257 83.3061 182.75 83.3061 182.617 82.9476L181.957 81.1633C181.915 81.0506 181.826 80.9617 181.714 80.92L179.929 80.2598C179.571 80.1271 179.571 79.62 179.929 79.4874L181.714 78.8271C181.826 78.7854 181.915 78.6966 181.957 78.5838L182.617 76.7995Z" fill="#553597"/>
<path d="M163.213 162.448C163.345 162.089 163.852 162.089 163.985 162.448L164.993 165.172C165.035 165.284 165.123 165.373 165.236 165.415L167.96 166.423C168.318 166.555 168.318 167.062 167.96 167.195L165.236 168.203C165.123 168.244 165.035 168.333 164.993 168.446L163.985 171.17C163.852 171.528 163.345 171.528 163.213 171.17L162.205 168.446C162.163 168.333 162.074 168.244 161.962 168.203L159.238 167.195C158.879 167.062 158.879 166.555 159.238 166.423L161.962 165.415C162.074 165.373 162.163 165.284 162.205 165.172L163.213 162.448Z" fill="#553597"/>
<mask id="mask10_615_7459" style="mask-type:luminance" maskUnits="userSpaceOnUse" x="227" y="233" width="40" height="12">
<path d="M266.254 233.16H227.635V244.777H266.254V233.16Z" fill="white"/>
</mask>
<g mask="url(#mask10_615_7459)">
<path d="M261.835 244.778H233.671C231.238 244.778 229.252 242.681 229.252 240.125C229.252 237.569 231.238 235.472 233.671 235.472H261.835C264.268 235.472 266.254 237.569 266.254 240.125C266.254 242.681 264.268 244.778 261.835 244.778Z" fill="#A78ED7"/>
<path d="M259.879 242.19H232.408C231.266 242.187 230.171 241.734 229.363 240.931C228.555 240.129 228.1 239.04 228.097 237.905C228.1 236.769 228.555 235.681 229.363 234.878C230.171 234.075 231.266 233.622 232.408 233.619H259.879C261.021 233.622 262.116 234.075 262.924 234.878C263.732 235.681 264.187 236.769 264.19 237.905C264.187 239.04 263.732 240.129 262.924 240.931C262.116 241.734 261.021 242.187 259.879 242.19Z" fill="white"/>
<path d="M259.879 242.65H232.408C231.142 242.65 229.928 242.15 229.033 241.26C228.138 240.37 227.635 239.163 227.635 237.905C227.635 236.647 228.138 235.44 229.033 234.55C229.928 233.66 231.142 233.16 232.408 233.16H259.879C261.145 233.16 262.359 233.66 263.254 234.55C264.149 235.44 264.652 236.647 264.652 237.905C264.652 239.163 264.149 240.37 263.254 241.26C262.359 242.15 261.145 242.65 259.879 242.65ZM232.408 234.079C231.387 234.079 230.408 234.482 229.686 235.199C228.964 235.917 228.559 236.89 228.559 237.905C228.559 238.92 228.964 239.893 229.686 240.611C230.408 241.328 231.387 241.731 232.408 241.731H259.879C260.9 241.731 261.879 241.328 262.601 240.611C263.323 239.893 263.728 238.92 263.728 237.905C263.728 236.89 263.323 235.917 262.601 235.199C261.879 234.482 260.9 234.079 259.879 234.079H232.408Z" fill="#553597"/>
</g>
<mask id="mask11_615_7459" style="mask-type:luminance" maskUnits="userSpaceOnUse" x="218" y="172" width="57" height="32">
<path d="M218.372 172.934V203.39H274.888V172.934H218.372Z" fill="white"/>
</mask>
<g mask="url(#mask11_615_7459)">
<path d="M218.372 176.228V200.095C218.372 201.915 219.847 203.39 221.666 203.39H271.594C273.413 203.39 274.888 201.915 274.888 200.095V176.228C274.888 174.409 273.413 172.934 271.594 172.934H221.666C219.847 172.934 218.372 174.409 218.372 176.228Z" fill="#A78ED7"/>
<path d="M245.5 196.5C227.36 183.656 243.606 177.101 245.5 184.79C247.394 177.101 263.64 183.656 245.5 196.5Z" fill="#EDE3FF"/>
</g>
<mask id="mask12_615_7459" style="mask-type:luminance" maskUnits="userSpaceOnUse" x="213" y="201" width="56" height="6">
<path d="M268.42 201.251H213.475V206.275H268.42V201.251Z" fill="white"/>
</mask>
<g mask="url(#mask12_615_7459)">
<path d="M216.007 201.715H265.888C266.436 201.715 266.961 201.931 267.348 202.315C267.735 202.699 267.953 203.22 267.953 203.763C267.953 204.032 267.899 204.298 267.795 204.546C267.692 204.795 267.54 205.021 267.348 205.211C267.156 205.401 266.929 205.552 266.678 205.655C266.428 205.757 266.159 205.81 265.888 205.81H216.007C215.459 205.81 214.934 205.595 214.547 205.211C214.16 204.827 213.942 204.306 213.942 203.763C213.942 203.22 214.16 202.699 214.547 202.315C214.934 201.931 215.459 201.715 216.007 201.715Z" fill="white"/>
<path d="M265.888 206.275H216.007C215.335 206.275 214.691 206.01 214.216 205.539C213.741 205.068 213.475 204.429 213.475 203.763C213.475 203.097 213.741 202.458 214.216 201.987C214.691 201.516 215.335 201.251 216.007 201.251H265.888C266.56 201.251 267.204 201.516 267.679 201.987C268.154 202.458 268.42 203.097 268.42 203.763C268.42 204.429 268.154 205.068 267.679 205.539C267.204 206.01 266.56 206.275 265.888 206.275ZM216.007 202.179C215.583 202.179 215.177 202.346 214.878 202.643C214.578 202.94 214.41 203.343 214.41 203.763C214.41 204.183 214.578 204.586 214.878 204.883C215.177 205.18 215.583 205.347 216.007 205.347H265.888C266.312 205.347 266.718 205.18 267.017 204.883C267.317 204.586 267.485 204.183 267.485 203.763C267.485 203.343 267.317 202.94 267.017 202.643C266.718 202.346 266.312 202.179 265.888 202.179H216.007Z" fill="#553597"/>
</g>
<mask id="mask13_615_7459" style="mask-type:luminance" maskUnits="userSpaceOnUse" x="213" y="208" width="56" height="6">
<path d="M268.42 208.346H213.475V213.369H268.42V208.346Z" fill="white"/>
</mask>
<g mask="url(#mask13_615_7459)">
<path d="M216.007 208.81H265.888C266.436 208.81 266.961 209.025 267.348 209.409C267.735 209.793 267.953 210.314 267.953 210.857C267.953 211.126 267.899 211.393 267.795 211.641C267.692 211.889 267.54 212.115 267.348 212.305C267.156 212.496 266.929 212.646 266.678 212.749C266.428 212.852 266.159 212.905 265.888 212.905H216.007C215.459 212.905 214.934 212.689 214.547 212.305C214.16 211.921 213.942 211.4 213.942 210.857C213.942 210.314 214.16 209.793 214.547 209.409C214.934 209.025 215.459 208.81 216.007 208.81Z" fill="white"/>
<path d="M265.888 213.369H216.007C215.335 213.369 214.691 213.105 214.216 212.634C213.741 212.163 213.475 211.524 213.475 210.858C213.475 210.191 213.741 209.552 214.216 209.081C214.691 208.61 215.335 208.346 216.007 208.346H265.888C266.56 208.346 267.204 208.61 267.679 209.081C268.154 209.552 268.42 210.191 268.42 210.858C268.42 211.524 268.154 212.163 267.679 212.634C267.204 213.105 266.56 213.369 265.888 213.369ZM216.007 209.274C215.583 209.274 215.177 209.441 214.878 209.738C214.578 210.035 214.41 210.437 214.41 210.858C214.41 211.278 214.578 211.68 214.878 211.977C215.177 212.274 215.583 212.441 216.007 212.441H265.888C266.312 212.441 266.718 212.274 267.017 211.977C267.317 211.68 267.485 211.278 267.485 210.858C267.485 210.437 267.317 210.035 267.017 209.738C266.718 209.441 266.312 209.274 265.888 209.274H216.007Z" fill="#553597"/>
</g>
<rect x="204.416" y="120.227" width="31.2946" height="31.2946" rx="6.87534" stroke="#6F46BE" stroke-width="2.37081"/>
<circle cx="220.063" cy="135.873" r="6.87533" stroke="#6F46BE" stroke-width="2.37081"/>
<circle cx="229.072" cy="126.391" r="1.89664" fill="#6F46BE"/>
</svg>
