<svg width="345" height="276" viewBox="0 0 345 276" fill="none" xmlns="http://www.w3.org/2000/svg">
<path d="M7.52762 270.742H343.244C346.002 265.37 341.233 256.839 335.951 253.925C330.669 251.011 324.325 251.022 318.297 251.157C312.269 251.292 305.953 251.419 300.572 248.69C293.457 245.08 289.449 237.026 288.589 229.081C287.729 221.137 289.52 213.169 291.334 205.385C296.517 183.146 302.031 160.626 301.124 137.807C300.216 114.987 291.949 91.3709 274.094 77.1817C259.863 65.872 240.258 61.6859 222.662 66.2029C205.066 70.7199 189.885 83.8347 182.834 100.609C177.333 113.698 176.621 128.504 170.447 141.288C161.762 159.274 141.916 171.226 121.989 170.47C107.284 169.913 93.6431 163.172 79.7659 158.264C65.8886 153.358 50.002 150.354 36.854 156.977C24.0855 163.409 16.6526 178.999 19.685 192.993C21.437 201.079 26.2214 209.522 22.8223 217.065C20.2125 222.854 13.7317 225.632 9.06738 229.937C-1.548 239.736 -3.81689 261.794 7.52335 270.74L7.52762 270.742Z" fill="#F3F5F7"/>
<path d="M61.0627 16.2854L130.545 5.80838C147.667 3.22659 163.678 15.0477 166.261 32.1786L195.182 223.983C197.765 241.114 185.952 257.131 168.83 259.712L99.3479 270.189C82.2258 272.771 66.2153 260.95 63.6322 243.819L34.7107 52.0145C32.1276 34.8837 43.9406 18.8671 61.0627 16.2854Z" fill="#553597"/>
<path d="M82.451 23.8538L112.338 19.3472C113.485 19.1744 114.541 19.9538 114.714 21.1009C114.887 22.2481 114.108 23.3041 112.961 23.477L83.0738 27.9836C81.9272 28.1565 80.8715 27.3771 80.6986 26.2299C80.5256 25.0828 81.3045 24.0267 82.451 23.8538Z" fill="#EDE3FF"/>
<path d="M113.064 18.7692L83.1772 23.2758C81.6484 23.5063 80.1644 22.4786 79.9223 20.8726C79.6801 19.2666 80.7186 17.8586 82.3238 17.6165L112.211 13.1099C113.74 12.8794 115.224 13.9071 115.466 15.5131C115.708 17.1191 114.593 18.5387 113.064 18.7692ZM82.566 19.2225C81.878 19.3263 81.3588 20.0303 81.4626 20.7186C81.5664 21.4069 82.2701 21.9265 82.9581 21.8228L112.845 17.3162C113.533 17.2124 114.053 16.5084 113.949 15.8201C113.845 15.1318 113.141 14.6122 112.453 14.7159L82.566 19.2225Z" fill="#553597"/>
<path d="M132.367 253.792C127.551 254.518 123.141 251.194 122.414 246.376C121.688 241.558 125.01 237.147 129.825 236.42C134.641 235.694 139.051 239.018 139.777 243.836C140.504 248.654 137.182 253.066 132.367 253.792ZM129.979 237.961C126.005 238.561 123.279 242.257 123.878 246.234C124.478 250.211 128.173 252.939 132.147 252.339C136.122 251.74 138.848 248.044 138.249 244.067C137.649 240.09 133.954 237.362 129.979 237.961Z" fill="#EDE3FF"/>
<path d="M186.372 219.994L70.797 237.421C70.3384 237.49 69.9865 237.23 69.9173 236.771L40.6729 42.8253C40.6037 42.3665 40.8634 42.0144 41.322 41.9453L156.897 24.5182C157.355 24.4491 157.707 24.7089 157.776 25.1677L187.021 219.114C187.078 219.496 186.83 219.924 186.372 219.994ZM71.3308 235.776L185.377 218.579L156.363 26.163L42.317 43.3596L71.3308 235.776Z" fill="#553597"/>
<path d="M168.945 260.478L99.4626 270.955C81.8818 273.606 65.5194 261.525 62.8671 243.935L33.9456 52.1309C31.2933 34.5411 43.3659 18.1726 60.9467 15.5217L130.429 5.04468C148.01 2.39374 164.372 14.4747 167.025 32.0644L195.946 223.869C198.598 241.459 186.449 257.839 168.945 260.478ZM61.1774 17.0512C44.4374 19.5754 32.9489 35.1519 35.4744 51.9004L64.3959 243.705C66.9098 260.377 82.492 271.95 99.232 269.426L168.714 258.949C185.454 256.424 196.943 240.848 194.417 224.1L165.496 32.2949C162.894 15.558 147.323 4.06159 130.66 6.57422L61.1774 17.0512Z" fill="#553597"/>
<path d="M157.012 25.2829L41.4375 42.71L70.6819 236.656L186.256 219.229L157.012 25.2829Z" fill="#EDE3FF"/>
<path d="M209.682 219.163C204.473 210.357 200.474 199.287 197.447 188.338C204.381 191.697 210.399 193.771 216.306 194.841C218.546 195.246 220.575 195.451 222.437 195.451C225.118 195.451 227.451 195.027 229.564 194.175C234.159 192.323 237.961 188.356 241.529 181.692C247.318 170.874 250.482 158.814 253.471 146.377C253.523 146.162 253.425 145.937 253.233 145.828L250.448 144.254L253.292 135.8L253.894 136.03C253.95 136.052 254.01 136.062 254.071 136.062C254.171 136.062 254.268 136.032 254.354 135.974C254.487 135.881 254.568 135.728 254.568 135.563C254.564 134.482 255.506 133.554 256.419 132.653C256.613 132.463 256.804 132.274 256.985 132.085C258.881 130.109 260.197 127.428 260.89 124.113C261.417 121.603 261.534 119.043 261.598 116.237C261.89 116.291 262.184 116.323 262.478 116.323C262.824 116.323 263.17 116.281 263.516 116.185C263.71 116.13 264.305 115.965 264.478 115.408C264.551 115.176 264.517 114.961 264.494 114.804L263.74 110.022C263.595 109.102 263.414 107.957 262.725 107.081C262.17 106.373 261.296 105.914 260.362 105.835C260.181 105.044 259.825 104.096 258.964 103.549C258.39 103.185 257.655 103.07 256.949 103.223C256.76 102.589 256.432 101.868 255.786 101.381C255.512 101.174 255.198 101.023 254.846 100.926C255.983 97.0005 256.029 92.7414 254.956 88.8202C254.566 87.4051 253.831 86.6181 252.887 86.6081H252.865C252.032 86.6081 251.333 87.2183 250.786 88.4247C249.121 92.1074 248.31 96.126 247.527 100.011C247.368 100.797 247.211 101.582 247.046 102.361C244.961 112.24 241.956 121.854 239.289 129.956C239.205 130.209 239.336 130.481 239.585 130.576L239.99 130.732L237.619 136.99L235.968 136.054C235.741 135.927 235.455 135.994 235.31 136.211L217.771 162.338C215.32 155.936 210.143 142.956 204.214 131.262L208.597 123.702C208.734 123.463 208.652 123.159 208.416 123.022C208.179 122.885 207.873 122.965 207.736 123.203L203.676 130.209C198.743 120.621 193.337 112.073 188.573 109.005C177.107 101.621 164.115 97.2271 161.486 96.3784L152.906 91.4178L151.845 88.7983C152.447 88.6333 153.019 88.4187 153.554 88.1444C156.088 86.8466 158.05 84.1179 158.801 80.8445C159.532 77.6527 159.129 74.3674 158.696 71.8593C158.537 70.945 158.352 70.0467 158.147 69.1583C158.147 69.1524 158.147 69.1464 158.143 69.1404C157.229 65.1735 155.885 61.4351 154.391 57.649C155.667 55.0653 156.454 52.1974 156.666 49.3395C156.849 46.8532 156.567 44.663 155.824 42.8326C154.91 40.5868 153.254 38.8398 151.278 38.0369C149.168 37.1783 146.874 37.5201 145.219 38.9153C137.428 36.6059 128.856 38.1879 122.782 43.075C116.395 48.2166 113.268 56.852 115.004 64.5653C115.731 67.791 117.359 70.5336 119.483 72.1375C119.602 73.169 119.909 74.1766 120.413 75.0809C121.757 77.4838 124.347 79.1413 127.008 79.3062C127.053 79.3102 127.101 79.3122 127.149 79.3162C127.495 86.5207 125.982 91.1355 125.299 92.8229C124.651 91.9921 124.285 91.4933 124.269 91.4714C124.176 91.3422 124.029 91.2667 123.87 91.2667C123.713 91.2667 123.563 91.3403 123.47 91.4655L117.325 99.7293C110.651 102.108 104.124 105.252 96.1864 109.913C88.3896 114.49 82.5246 120.343 79.2235 126.84C74.871 135.402 74.6702 145.482 74.9823 153.309C75.5745 168.211 78.2735 183.059 83.0056 197.442C85.1282 203.899 88.4472 211.71 95.3159 214.813C95.7114 214.991 96.1128 215.148 96.5183 215.292L87.4177 238.67C87.3283 238.896 87.4177 239.153 87.6244 239.276C91.5516 241.633 97.0887 243.175 104.172 243.901C103.971 246.604 104.025 249.327 104.081 251.962L216.483 228.087M200.472 201.346C203.085 208.663 205.969 214.94 209.089 220.119C209.107 220.157 209.127 220.195 209.155 220.228C209.155 220.23 209.155 220.23 209.155 220.23C210.964 223.221 212.854 225.845 214.815 228.087C212.202 229.452 200.058 235.116 180.75 233.823C180.063 229.712 174.148 194.143 172.52 179.05C176.402 175.894 180.744 173.422 185.455 171.691C185.936 171.514 186.419 171.345 186.903 171.176C188.307 170.687 189.759 170.18 191.119 169.483C191.403 169.338 191.675 169.187 191.938 169.03C193.214 175.608 194.635 181.795 196.187 187.543C196.187 187.551 196.191 187.559 196.195 187.567C197.524 192.49 198.953 197.094 200.47 201.346H200.472ZM165.165 187.696C164.934 186.752 164.672 185.818 164.382 184.891C165.324 183.93 166.266 182.968 167.208 182.006L169.682 179.48C170.048 179.977 170.269 180.269 170.271 180.273C170.354 180.384 170.481 180.454 170.618 180.467C170.634 180.467 170.65 180.467 170.668 180.467C170.787 180.467 170.907 180.424 170.998 180.342C171.199 180.163 171.401 179.988 171.606 179.814C173.144 193.597 177.884 222.599 179.379 231.63C168.907 237.774 149.104 234.709 145.668 234.115C147.936 225.092 149.331 214.342 149.83 202.033C156.313 198.033 161.508 193.302 165.091 188.093C165.171 187.976 165.199 187.831 165.165 187.694V187.696ZM202.666 139.264L195.314 151.103C192.311 151.798 187.778 153.41 185.506 154.247L189.461 148.02L197.198 135.835L202.666 139.264ZM199.254 135.951L200.013 134.861L202.201 136.267L201.595 137.419L199.254 135.951ZM188.591 147.535L183.875 154.964C183.759 155.145 183.773 155.38 183.908 155.545C184.044 155.712 184.27 155.771 184.471 155.694C184.542 155.668 191.781 152.907 195.736 152.025C197.26 151.685 197.715 151.757 197.823 151.789C197.858 151.86 197.88 152.007 197.842 152.24C197.576 153.889 195.159 156.998 194.028 157.665C193.828 157.785 193.736 158.029 193.812 158.252C193.885 158.474 194.108 158.615 194.339 158.586C194.641 158.55 194.889 158.729 195.076 159.11C195.247 159.46 195.239 159.927 195.054 160.356C194.885 160.75 194.571 161.126 194.126 161.473C193.951 161.609 193.887 161.845 193.971 162.052C194.054 162.256 194.263 162.384 194.484 162.358C194.742 162.334 195.03 162.829 195.128 163.292C195.213 163.703 195.106 164.198 194.804 164.8C194.229 165.929 193.301 166.933 192.033 167.793C192.019 167.801 192.005 167.809 191.993 167.819C191.586 168.094 191.143 168.354 190.668 168.6C189.368 169.264 187.951 169.759 186.578 170.238C186.089 170.409 185.6 170.58 185.113 170.757C179.828 172.7 174.997 175.554 170.744 179.245C170.589 179.036 170.386 178.758 170.141 178.422C168.333 175.914 165.036 171.132 163.287 167.267C162.963 166.553 162.706 165.895 162.519 165.309C163.275 164.49 164.565 163.999 165.926 163.481C167.689 162.809 169.511 162.115 170.579 160.589C170.581 160.589 170.585 160.583 170.587 160.579C170.587 160.579 170.587 160.579 170.589 160.579C171.274 159.595 171.733 158.476 172.178 157.393C172.785 155.916 173.359 154.521 174.444 153.514C175.619 152.423 177.191 151.967 178.856 151.486C179.675 151.248 180.524 151.003 181.325 150.674C183.133 149.932 184.743 148.742 185.981 147.231C186.055 147.142 186.126 147.052 186.198 146.963C186.456 146.641 186.699 146.337 186.989 146.108C187.321 145.846 187.734 145.733 188.094 145.802C188.319 145.848 188.468 145.949 188.565 146.122C188.79 146.524 188.698 147.213 188.591 147.537V147.535ZM165.572 162.553C163.974 163.161 162.466 163.733 161.573 164.892C161.476 165.019 161.444 165.182 161.488 165.335C161.659 165.919 161.903 166.573 162.207 167.277C160.437 168.372 158.682 169.493 156.974 170.616C156.607 170.135 156.233 169.66 155.848 169.197C155.728 169.054 155.542 168.988 155.361 169.028C153.347 169.463 151.346 169.916 149.359 170.381C147.701 143.65 143.543 121.484 143.482 121.166L142.895 116.895C143.724 117.072 145.187 117.318 146.888 117.318C147.129 117.318 147.375 117.312 147.624 117.302C151.253 117.145 154.035 115.804 155.73 113.415L158.37 117.435C158.566 117.771 162.992 125.447 164.535 134.164C166.025 142.581 169.221 158.148 169.641 160.184C168.722 161.35 167.122 161.962 165.572 162.553ZM162.621 168.189C164.37 171.86 167.305 176.167 169.092 178.663L166.498 181.312C165.678 182.149 164.857 182.988 164.036 183.824C162.527 179.394 160.337 175.187 157.575 171.411C159.22 170.329 160.914 169.248 162.621 168.189ZM260.948 114.263C261.081 114.007 261.067 113.741 261.057 113.564L261.053 113.488C260.942 111.314 260.827 109.066 260.537 106.862C261.097 106.97 261.608 107.266 261.944 107.693C262.472 108.369 262.625 109.329 262.76 110.177L263.51 114.957C263.518 115.003 263.528 115.072 263.528 115.108C263.508 115.126 263.44 115.174 263.249 115.227C262.325 115.484 261.292 115.206 260.286 114.798C260.511 114.719 260.793 114.57 260.948 114.263ZM258.432 104.388C258.949 104.716 259.276 105.358 259.465 106.409C259.491 106.558 259.517 106.719 259.541 106.9C259.835 109.094 259.95 111.354 260.062 113.54L260.065 113.616C260.065 113.669 260.073 113.781 260.065 113.804C260.058 113.812 260.012 113.854 259.803 113.904C259.382 114.003 258.947 114.045 258.509 114.033H258.499C258.183 114.023 257.865 113.983 257.549 113.916C257.838 110.726 257.722 107.508 257.194 104.342C257.186 104.294 257.176 104.243 257.168 104.191C257.613 104.098 258.082 104.167 258.43 104.388H258.432ZM255.188 102.176C255.63 102.508 255.914 103.058 256.112 103.961C256.154 104.147 256.186 104.334 256.216 104.507C256.748 107.701 256.856 110.95 256.534 114.168C256.534 114.172 256.53 114.196 256.53 114.2C256.528 114.218 256.526 114.238 256.526 114.24C256.508 114.393 256.486 114.446 256.472 114.466C256.434 114.51 256.291 114.54 256.049 114.554C255.798 114.568 255.55 114.58 255.306 114.583C255.184 113.272 254.707 111.996 253.9 110.938C253.833 110.849 253.763 110.762 253.694 110.674C253.429 110.346 253.183 110.036 253.098 109.698C252.958 109.144 253.258 108.502 253.549 107.882L253.59 107.794C254.62 105.586 254.962 103.605 254.612 101.894C254.829 101.959 255.021 102.049 255.188 102.176ZM248.018 102.567C248.183 101.782 248.342 100.995 248.501 100.208C249.274 96.3765 250.073 92.4155 251.69 88.8341C251.947 88.2716 252.358 87.6019 252.867 87.6019H252.875C253.539 87.6098 253.902 88.7387 253.996 89.0825C254.996 92.7295 254.98 96.6825 253.976 100.349C253.724 100.037 253.419 99.8286 253.07 99.7511C252.513 99.6259 251.887 99.8465 251.436 100.327C251.074 100.713 250.874 101.178 250.697 101.59C249.174 105.123 247.69 108.73 246.283 112.31C246.181 112.564 246.308 112.852 246.563 112.954C246.819 113.053 247.107 112.928 247.207 112.674C248.61 109.104 250.09 105.507 251.609 101.983C251.762 101.629 251.919 101.266 252.159 101.009C252.332 100.826 252.613 100.667 252.851 100.719C253.165 100.791 253.364 101.186 253.467 101.46C253.467 101.46 253.467 101.462 253.467 101.464C253.487 101.522 253.505 101.574 253.519 101.617C254.006 103.209 253.728 105.147 252.686 107.373L252.646 107.46C252.299 108.202 251.905 109.042 252.132 109.941C252.269 110.487 252.613 110.917 252.915 111.294C252.98 111.378 253.046 111.459 253.109 111.541C254.3 113.103 254.66 115.313 254.024 117.171C253.934 117.431 254.073 117.714 254.334 117.801C254.385 117.821 254.441 117.829 254.495 117.829C254.699 117.829 254.894 117.7 254.964 117.493C255.176 116.871 255.294 116.225 255.323 115.575C255.582 115.571 255.84 115.561 256.103 115.547C256.381 115.531 256.899 115.502 257.231 115.104C257.287 115.037 257.331 114.965 257.367 114.894C257.696 114.963 258.03 115.003 258.362 115.019L258.571 115.118C259.221 115.422 259.904 115.744 260.606 115.979C260.546 118.829 260.439 121.41 259.916 123.911C259.261 127.039 258.032 129.557 256.265 131.397C256.093 131.578 255.906 131.761 255.719 131.946C254.872 132.783 253.93 133.711 253.652 134.875L240.38 129.815C243.017 121.784 245.961 112.31 248.016 102.567H248.018ZM240.92 131.085L252.364 135.446L249.568 143.755L238.494 137.485L240.92 131.085ZM217.093 163.348L214.483 167.237C214.33 167.464 214.392 167.774 214.618 167.927C214.847 168.08 215.155 168.018 215.308 167.789L235.878 137.147L237.609 138.127C237.609 138.127 237.619 138.131 237.623 138.135L249.59 144.91C249.59 144.91 249.602 144.916 249.606 144.918L252.416 146.51C249.468 158.753 246.33 170.614 240.652 181.223C237.202 187.67 233.561 191.494 229.192 193.253C225.794 194.624 221.755 194.819 216.483 193.863C210.447 192.772 204.282 190.607 197.099 187.062C195.36 180.618 193.955 174.249 192.836 168.443C194.12 167.525 195.078 166.456 195.69 165.248C196.099 164.437 196.233 163.729 196.099 163.087C195.988 162.561 195.728 162.026 195.346 161.694C195.616 161.396 195.823 161.08 195.966 160.75C196.264 160.058 196.266 159.281 195.966 158.673C195.801 158.337 195.589 158.075 195.338 157.89C196.723 156.602 198.554 154.052 198.82 152.399C198.91 151.848 198.82 151.413 198.548 151.105C198.296 150.817 197.842 150.668 196.644 150.843L203.769 139.369C203.914 139.136 203.843 138.83 203.61 138.685L202.437 137.95L203.29 136.326C203.411 136.098 203.336 135.815 203.119 135.676L202.052 134.991L203.626 132.274C209.602 144.171 214.797 157.326 217.091 163.348H217.093ZM161.967 97.5828C165.779 98.8608 177.557 103.092 188.034 109.839C192.755 112.88 198.164 121.542 203.093 131.214L201.215 134.452L200.146 133.766C199.921 133.621 199.623 133.681 199.47 133.899L198.409 135.422L197.308 134.73C197.077 134.585 196.771 134.655 196.624 134.885L189.579 145.979C189.541 145.862 189.493 145.747 189.434 145.637C189.368 145.522 189.292 145.419 189.207 145.325C188.213 137.262 187.84 131.97 187.836 131.918C187.816 131.644 187.581 131.439 187.305 131.457C187.031 131.475 186.826 131.713 186.844 131.986C186.848 132.037 187.204 137.075 188.142 144.807C187.535 144.731 186.898 144.914 186.375 145.325C185.993 145.625 185.703 145.989 185.421 146.341C185.353 146.426 185.286 146.514 185.214 146.599C184.079 147.983 182.605 149.074 180.949 149.753C180.196 150.061 179.373 150.3 178.58 150.53C176.877 151.023 175.116 151.532 173.766 152.784C172.522 153.941 171.88 155.503 171.258 157.014C170.992 157.661 170.72 158.325 170.402 158.949C169.555 154.823 166.848 141.529 165.515 133.989C164.054 125.749 160.075 118.431 159.338 117.125C159.948 115.444 163.489 105.175 161.967 97.5828ZM153.035 92.64L160.856 97.1615C162.468 103.724 159.65 113.089 158.654 116.056L152.131 106.125C153.236 103.44 153.113 95.3708 153.035 92.64ZM157.716 72.0302C158.133 74.4449 158.525 77.605 157.833 80.6219C157.145 83.613 155.377 86.0954 153.103 87.258C150.819 88.4286 147.794 88.4803 144.116 87.4131C141.51 86.6558 139.062 85.5786 136.655 84.2848C138.096 81.6216 139.356 78.8352 140.401 75.9892C143.857 73.8408 147.345 71.112 150.774 67.8744C153.008 67.787 155.287 68.3951 157.229 69.5916C157.41 70.3945 157.573 71.2074 157.716 72.0302ZM156.911 68.2739C154.941 67.2583 152.719 66.7714 150.539 66.8906C150.422 66.8986 150.311 66.9463 150.223 67.0278C146.842 70.2335 143.402 72.9365 139.998 75.067L132.386 70.0885C133.139 69.4982 133.745 68.6376 134.013 67.7353C134.349 66.6144 134.333 65.4299 134.274 64.4183C134.169 62.6017 133.888 60.7852 133.441 59.0144C137.996 54.2226 144.094 51.4104 150.67 51.0666C151.098 52.1378 151.533 53.211 151.954 54.2525C153.87 58.9707 155.699 63.4802 156.911 68.2739ZM119.434 70.8019C117.812 69.2974 116.572 67.0039 115.973 64.3467C114.318 56.9951 117.305 48.7591 123.404 43.8501C129.295 39.1121 137.645 37.6155 145.195 39.9468C145.364 39.9985 145.551 39.9567 145.68 39.8355C147.061 38.5456 149.062 38.2098 150.903 38.959C152.632 39.6606 154.091 41.2088 154.904 43.2062C155.587 44.8936 155.848 46.9327 155.675 49.2659C155.494 51.6966 154.88 54.1352 153.888 56.383C153.554 55.5522 153.216 54.7195 152.874 53.8768C152.411 52.7321 151.93 51.5475 151.463 50.371C151.386 50.1742 151.185 50.051 150.982 50.0569C143.917 50.3312 137.362 53.3422 132.529 58.5354C132.412 58.6586 132.368 58.8355 132.412 59.0005C132.883 60.7912 133.175 62.6335 133.282 64.4779C133.336 65.4021 133.352 66.4773 133.061 67.4511C132.839 68.2024 132.296 68.9397 131.65 69.4008C130.933 68.1726 130.047 66.7555 128.814 65.7081C127.252 64.3785 125.344 63.8717 123.709 64.3487C122.56 64.6866 121.491 65.5432 120.696 66.7615C119.917 67.9579 119.495 69.371 119.434 70.8019ZM127.075 78.3145C124.736 78.1714 122.462 76.7106 121.282 74.596C120.04 72.37 120.139 69.4386 121.528 67.304C122.194 66.2845 123.067 65.573 123.989 65.3027C125.533 64.8515 127.163 65.6068 128.17 66.4633C129.329 67.4491 130.124 68.7449 131.044 70.3349C131.048 70.3409 131.052 70.3448 131.054 70.3488C131.062 70.3627 131.072 70.3746 131.082 70.3866C131.092 70.4005 131.102 70.4144 131.114 70.4263C131.124 70.4363 131.134 70.4462 131.144 70.4561C131.16 70.4681 131.173 70.48 131.189 70.4899C131.193 70.4939 131.197 70.4979 131.203 70.5018L139.388 75.856C138.376 78.5828 137.164 81.252 135.782 83.8058C133.244 82.3808 130.738 80.7233 128.125 78.9465C128.123 78.8948 128.121 78.8432 128.117 78.7935C128.101 78.5272 127.878 78.3125 127.61 78.3264C127.409 78.3304 127.236 78.3264 127.075 78.3145ZM128.176 80.1807C130.663 81.8641 133.145 83.4819 135.691 84.883C135.707 84.895 135.723 84.9089 135.743 84.9188C135.756 84.9268 135.77 84.9287 135.784 84.9347C138.378 86.3577 141.039 87.5542 143.839 88.367C146.491 89.1362 148.84 89.3508 150.861 89.0129L152.016 91.8689C152.145 95.1542 152.226 103.843 151.125 105.936C151.042 106.095 151.05 106.288 151.149 106.439L155.14 112.517C151.885 117.646 144.366 116.219 142.75 115.844L141.856 109.358C141.838 109.219 141.761 109.096 141.645 109.017C134.985 104.424 128.878 97.3066 126 93.7113C126.551 92.5307 128.397 87.9477 128.176 80.1807ZM123.868 92.5943C124.13 92.9402 124.517 93.441 125.008 94.0591C125.02 94.079 125.034 94.0968 125.05 94.1127C127.862 97.6484 134.075 104.95 140.902 109.71L142.357 120.268C138.332 117.71 122.029 107.063 118.219 100.19L123.868 92.5943ZM95.7253 213.906C89.2104 210.963 86.0086 203.397 83.9496 197.132C79.2473 182.836 76.5643 168.08 75.974 153.269C75.6679 145.564 75.8607 135.648 80.1079 127.289C83.3216 120.963 89.0554 115.251 96.6872 110.77C104.466 106.202 110.876 103.106 117.4 100.759C121.787 108.498 140.351 120.198 142.546 121.563C142.977 123.905 146.815 145.21 148.377 170.614C136.345 173.474 124.806 176.866 114.238 180.221C114.926 168.274 114.185 156.26 112.028 144.495C111.981 144.224 111.718 144.045 111.452 144.095C111.182 144.145 111.003 144.403 111.052 144.673C113.217 156.485 113.946 168.553 113.225 180.545C109.317 181.793 105.543 183.033 101.934 184.236C101.674 184.323 101.533 184.603 101.62 184.864C101.706 185.124 101.988 185.265 102.248 185.178C105.937 183.949 109.794 182.681 113.793 181.408C113.833 181.4 113.869 181.388 113.904 181.372C126.557 177.339 140.628 173.239 155.275 170.063C159.481 175.189 162.543 181.28 164.145 187.714C159.2 194.813 151.173 201.002 140.916 205.623C131.485 209.872 121.258 212.191 112.412 214.029C107.121 215.131 101.984 215.979 97.357 214.524C97.357 214.524 97.353 214.522 97.351 214.522C97.3411 214.518 97.3291 214.516 97.3172 214.512C96.7806 214.342 96.248 214.143 95.7253 213.906ZM88.4969 238.636L97.4683 215.592C99.2013 216.081 101.002 216.277 102.838 216.277C106.06 216.277 109.385 215.675 112.615 215.003C121.512 213.153 131.803 210.818 141.323 206.529C143.969 205.338 146.469 204.043 148.808 202.653C148.144 218.02 146.063 230.903 142.619 240.961C140.92 241.25 131.891 242.718 121.379 243.215C106.344 243.925 94.9919 242.343 88.4969 238.636ZM200.849 270.869H163.197C163.161 265.809 162.837 260.723 162.233 255.692C165.008 254.218 167.605 252.417 169.955 250.33C170.161 250.147 170.179 249.833 169.998 249.629C169.815 249.424 169.501 249.404 169.297 249.587C167.101 251.537 164.682 253.228 162.104 254.633C161.991 253.743 161.87 252.852 161.738 251.966C161.697 251.696 161.446 251.507 161.174 251.549C160.902 251.588 160.715 251.841 160.755 252.113C161.675 258.296 162.16 264.604 162.203 270.869L217.476 228.087L105.072 251.942C105.019 249.335 104.965 246.646 105.162 243.996C108.012 244.253 111.1 244.382 114.427 244.382C116.657 244.382 118.996 244.324 121.437 244.207C133.121 243.654 142.983 241.907 143.082 241.89C143.259 241.858 143.404 241.733 143.464 241.564C144.171 239.519 144.823 237.356 145.419 235.083C146.934 235.349 152.046 236.176 158.109 236.372C159.026 236.402 159.92 236.416 160.792 236.416C168.83 236.416 175.128 235.162 179.554 232.68C179.727 233.725 179.828 234.327 179.836 234.373C179.874 234.6 180.063 234.771 180.291 234.786C182.414 234.939 184.447 235.007 186.389 235.007C192.113 235.007 197.032 234.417 201.014 233.648C200.961 246.053 200.905 258.463 200.849 270.869Z" fill="#553597"/>
<path d="M201.014 233.648C200.961 246.053 200.905 258.463 200.849 270.869H163.197C163.161 265.808 162.837 260.723 162.233 255.692C165.008 254.218 167.605 252.417 169.954 250.33C170.161 250.147 170.179 249.833 169.998 249.629C169.815 249.424 169.501 249.404 169.297 249.587C167.1 251.537 164.682 253.228 162.104 254.633C161.991 253.743 161.869 252.852 161.738 251.966C161.697 251.696 161.446 251.507 161.174 251.549C160.902 251.588 160.715 251.841 160.755 252.113C161.675 258.296 162.16 264.604 162.203 270.869H105.472L105.072 251.942C105.018 249.335 104.965 246.646 105.162 243.996C108.012 244.253 111.1 244.382 114.427 244.382C116.657 244.382 118.996 244.324 121.437 244.207C133.121 243.654 142.983 241.907 143.082 241.89C143.259 241.858 143.404 241.733 143.464 241.564C144.171 239.518 144.823 237.356 145.419 235.083C146.934 235.349 152.046 236.176 158.109 236.372C159.025 236.402 159.92 236.416 160.792 236.416C168.83 236.416 175.128 235.162 179.554 232.68C179.727 233.725 179.828 234.327 179.836 234.373C179.874 234.6 180.063 234.77 180.291 234.786C182.414 234.939 184.447 235.007 186.389 235.007C192.112 235.007 197.031 234.417 201.014 233.648Z" fill="white"/>
<path d="M214.816 228.087C212.203 229.453 200.06 235.117 180.752 233.823C180.064 229.713 174.149 194.144 172.521 179.051C176.403 175.895 180.746 173.423 185.456 171.691C185.937 171.515 186.42 171.346 186.905 171.177C188.308 170.688 189.761 170.181 191.12 169.483C191.404 169.338 191.677 169.187 191.939 169.03C193.215 175.609 194.636 181.796 196.188 187.543C196.188 187.551 196.192 187.559 196.196 187.567C197.526 192.49 198.955 197.095 200.471 201.346C203.084 208.664 205.968 214.94 209.089 220.12C209.106 220.157 209.126 220.195 209.154 220.229C209.154 220.231 209.154 220.231 209.154 220.231C210.963 223.222 212.853 225.846 214.814 228.087H214.816Z" fill="white"/>
<path d="M148.808 202.654C148.144 218.021 146.064 230.904 142.619 240.962C140.92 241.251 131.891 242.719 121.379 243.216C106.344 243.926 94.9921 242.344 88.4971 238.637L97.4684 215.593C99.2015 216.082 101.002 216.278 102.839 216.278C106.06 216.278 109.385 215.676 112.615 215.004C121.513 213.154 131.804 210.819 141.323 206.53C143.969 205.339 146.469 204.044 148.808 202.654Z" fill="white"/>
<path d="M179.379 231.632C168.907 237.775 149.104 234.711 145.667 234.116C147.935 225.093 149.33 214.343 149.829 202.035C156.312 198.034 161.507 193.304 165.091 188.095C165.17 187.978 165.198 187.833 165.164 187.696C164.934 186.752 164.671 185.817 164.381 184.891C165.323 183.929 166.265 182.967 167.207 182.006L169.682 179.479C170.048 179.976 170.268 180.269 170.27 180.272C170.354 180.384 170.481 180.453 170.618 180.467C170.634 180.467 170.65 180.467 170.668 180.467C170.787 180.467 170.906 180.424 170.998 180.342C171.198 180.163 171.401 179.988 171.606 179.813C173.144 193.596 177.884 222.599 179.379 231.63V231.632Z" fill="#6F46BE"/>
<path d="M202.201 136.266L201.595 137.419L199.253 135.95L200.013 134.861L202.201 136.266Z" fill="white"/>
<path d="M252.416 146.51C249.468 158.752 246.33 170.613 240.652 181.222C237.202 187.67 233.561 191.493 229.192 193.252C225.794 194.624 221.755 194.818 216.483 193.863C210.447 192.771 204.282 190.607 197.099 187.061C195.36 180.618 193.955 174.248 192.836 168.443C194.12 167.525 195.078 166.456 195.69 165.247C196.099 164.436 196.232 163.729 196.099 163.087C195.988 162.56 195.728 162.026 195.346 161.694C195.616 161.396 195.823 161.08 195.966 160.75C196.264 160.058 196.266 159.281 195.966 158.673C195.801 158.337 195.589 158.075 195.338 157.89C196.723 156.602 198.554 154.052 198.82 152.398C198.91 151.848 198.82 151.413 198.548 151.105C198.295 150.816 197.842 150.667 196.644 150.842L203.769 139.369C203.914 139.136 203.842 138.83 203.61 138.685L202.437 137.95L203.29 136.326C203.411 136.097 203.336 135.815 203.119 135.676L202.052 134.99L203.626 132.273C209.602 144.17 214.797 157.325 217.091 163.347L214.481 167.237C214.328 167.463 214.39 167.773 214.616 167.926C214.845 168.079 215.153 168.018 215.306 167.789L235.876 137.147L237.607 138.126C237.607 138.126 237.617 138.13 237.621 138.134L249.588 144.91C249.588 144.91 249.599 144.916 249.603 144.918L252.414 146.51H252.416Z" fill="white"/>
<path d="M202.666 139.264L195.314 151.104C192.311 151.799 187.778 153.411 185.506 154.248L189.461 148.021L197.199 135.836L202.666 139.264Z" fill="white"/>
<path d="M169.092 178.663L166.498 181.313C165.678 182.149 164.857 182.988 164.036 183.825C162.527 179.395 160.337 175.187 157.575 171.411C159.22 170.33 160.914 169.249 162.621 168.189C164.37 171.86 167.305 176.167 169.092 178.663Z" fill="white"/>
<path d="M193.812 158.252C193.885 158.474 194.108 158.615 194.339 158.586C194.641 158.55 194.889 158.729 195.076 159.11C195.247 159.46 195.239 159.927 195.054 160.356C194.885 160.75 194.571 161.126 194.126 161.473C193.951 161.609 193.887 161.845 193.971 162.052C194.054 162.256 194.263 162.384 194.484 162.358C194.742 162.334 195.03 162.829 195.128 163.292C195.213 163.703 195.106 164.198 194.804 164.8C194.229 165.929 193.301 166.933 192.033 167.793C192.019 167.801 192.005 167.809 191.993 167.819C191.586 168.094 191.143 168.354 190.668 168.6C189.368 169.264 187.951 169.759 186.578 170.238C186.089 170.409 185.6 170.58 185.113 170.757C179.828 172.7 174.997 175.554 170.744 179.245C170.589 179.036 170.386 178.758 170.141 178.422C168.333 175.914 165.036 171.132 163.287 167.267C162.963 166.553 162.706 165.895 162.52 165.309C163.275 164.49 164.565 163.999 165.926 163.481C167.689 162.809 169.511 162.115 170.579 160.589C170.581 160.589 170.585 160.583 170.587 160.579C170.587 160.579 170.587 160.579 170.589 160.579C171.274 159.595 171.733 158.476 172.179 157.393C172.785 155.916 173.359 154.521 174.444 153.514C175.619 152.423 177.191 151.967 178.856 151.486C179.675 151.248 180.524 151.003 181.325 150.674C183.133 149.932 184.743 148.742 185.981 147.231C186.055 147.142 186.126 147.052 186.198 146.963C186.456 146.641 186.699 146.337 186.989 146.108C187.321 145.846 187.734 145.733 188.094 145.802C188.319 145.848 188.468 145.949 188.565 146.122C188.79 146.524 188.698 147.213 188.591 147.537L183.875 154.966C183.759 155.147 183.773 155.382 183.908 155.547C184.044 155.714 184.27 155.773 184.471 155.696C184.542 155.67 191.781 152.909 195.736 152.027C197.26 151.687 197.715 151.759 197.823 151.79C197.858 151.862 197.88 152.009 197.842 152.242C197.576 153.891 195.159 157 194.029 157.667C193.828 157.787 193.736 158.031 193.812 158.254V158.252Z" fill="#553597"/>
<path d="M203.093 131.214L201.215 134.451L200.146 133.766C199.921 133.62 199.623 133.68 199.47 133.899L198.409 135.421L197.308 134.729C197.077 134.584 196.771 134.654 196.624 134.884L189.578 145.978C189.541 145.861 189.493 145.746 189.433 145.637C189.368 145.521 189.292 145.418 189.207 145.325C188.213 137.261 187.839 131.969 187.835 131.917C187.816 131.643 187.581 131.438 187.305 131.456C187.031 131.474 186.826 131.713 186.844 131.985C186.848 132.036 187.203 137.075 188.142 144.806C187.535 144.73 186.897 144.913 186.375 145.325C185.993 145.625 185.703 145.988 185.421 146.34C185.353 146.426 185.286 146.513 185.214 146.599C184.079 147.982 182.604 149.073 180.949 149.753C180.196 150.061 179.373 150.299 178.58 150.53C176.877 151.023 175.116 151.531 173.766 152.783C172.522 153.94 171.88 155.502 171.258 157.013C170.992 157.661 170.72 158.324 170.402 158.949C169.555 154.823 166.848 141.529 165.514 133.988C164.054 125.748 160.075 118.43 159.337 117.125C159.948 115.443 163.489 105.174 161.967 97.582C165.779 98.86 177.556 103.091 188.034 109.839C192.754 112.879 198.164 121.541 203.093 131.214Z" fill="white"/>
<path d="M155.275 170.063C140.627 173.239 126.556 177.339 113.904 181.372C113.868 181.388 113.833 181.4 113.793 181.408C109.794 182.681 105.936 183.949 102.248 185.178C101.987 185.265 101.705 185.124 101.62 184.864C101.532 184.603 101.673 184.323 101.934 184.236C105.543 183.033 109.317 181.793 113.224 180.545C113.946 168.553 113.216 156.485 111.052 144.673C111.002 144.403 111.181 144.145 111.452 144.095C111.718 144.045 111.98 144.224 112.028 144.495C114.184 156.26 114.926 168.274 114.238 180.221C124.805 176.866 136.344 173.474 148.376 170.614C146.814 145.21 142.976 123.905 142.545 121.563C140.351 120.198 121.786 108.498 117.4 100.759C110.875 103.106 104.466 106.202 96.6868 110.77C89.055 115.251 83.3212 120.963 80.1075 127.289C75.8603 135.648 75.6675 145.564 75.9736 153.269C76.5638 168.08 79.2469 182.836 83.9492 197.132C86.0082 203.397 89.21 210.963 95.7248 213.906C96.2475 214.143 96.7802 214.342 97.3168 214.512C97.3287 214.516 97.3406 214.518 97.3506 214.522C97.3506 214.522 97.3546 214.524 97.3565 214.524C101.983 215.979 107.121 215.131 112.411 214.03C121.258 212.191 131.485 209.872 140.915 205.623C151.173 201.002 159.2 194.813 164.145 187.714C162.543 181.28 159.48 175.189 155.275 170.063ZM121.266 141.299C121.343 141.189 121.46 141.116 121.593 141.096L139.657 138.246C139.789 138.226 139.922 138.258 140.027 138.337C140.134 138.415 140.206 138.532 140.226 138.663L141.076 144.276C141.116 144.546 140.931 144.799 140.661 144.84L122.738 147.603C122.712 147.607 122.687 147.609 122.661 147.609C122.424 147.609 122.216 147.44 122.174 147.2L121.182 141.674C121.158 141.543 121.188 141.408 121.266 141.299Z" fill="white"/>
<path d="M169.641 160.184C168.722 161.35 167.123 161.962 165.572 162.553C163.974 163.161 162.466 163.733 161.574 164.892C161.476 165.019 161.444 165.182 161.488 165.335C161.659 165.919 161.903 166.573 162.208 167.277C160.437 168.372 158.682 169.493 156.975 170.616C156.607 170.135 156.233 169.66 155.848 169.197C155.728 169.054 155.542 168.988 155.361 169.028C153.348 169.463 151.346 169.916 149.359 170.381C147.701 143.65 143.543 121.484 143.482 121.166L142.896 116.895C143.724 117.072 145.187 117.318 146.888 117.318C147.129 117.318 147.375 117.312 147.624 117.302C151.253 117.145 154.035 115.804 155.73 113.415L158.37 117.436C158.567 117.772 162.993 125.447 164.535 134.164C166.025 142.581 169.221 158.149 169.641 160.184Z" fill="#6F46BE"/>
<path d="M158.654 116.056L152.131 106.124C153.236 103.439 153.113 95.3704 153.035 92.6396L160.856 97.1611C162.468 103.724 159.649 113.089 158.654 116.056Z" fill="#6F46BE"/>
<path d="M142.357 120.268C138.332 117.71 122.029 107.063 118.219 100.191L123.868 92.5947C124.13 92.9405 124.517 93.4414 125.008 94.0595C125.02 94.0794 125.034 94.0972 125.05 94.1131C127.862 97.6488 134.075 104.951 140.902 109.711L142.357 120.268Z" fill="#6F46BE"/>
<path d="M155.14 112.517C151.885 117.647 144.366 116.22 142.75 115.844L141.856 109.359C141.838 109.22 141.76 109.097 141.645 109.018C134.985 104.425 128.878 97.3075 126 93.7122C126.551 92.5317 128.397 87.9486 128.176 80.1816C128.536 80.4241 128.894 80.6666 129.251 80.9051C131.38 82.3261 133.513 83.6855 135.691 84.8839C135.707 84.8959 135.723 84.9098 135.742 84.9197C135.756 84.9277 135.77 84.9297 135.784 84.9356C138.378 86.3586 141.039 87.5551 143.839 88.3679C146.491 89.1371 148.84 89.3517 150.861 89.0139L152.016 91.8698C152.055 92.8755 152.091 94.3859 152.089 96.0594C152.085 99.8554 151.891 104.484 151.125 105.937C151.042 106.096 151.05 106.289 151.149 106.44L155.14 112.517Z" fill="white"/>
<path d="M157.833 80.622C157.145 83.6131 155.377 86.0954 153.103 87.2581C150.819 88.4287 147.794 88.4804 144.116 87.4131C141.51 86.6559 139.062 85.5787 136.655 84.2848C138.096 81.6217 139.356 78.8353 140.401 75.9892C143.857 73.8408 147.345 71.112 150.774 67.8745C153.008 67.787 155.287 68.3952 157.229 69.5916C157.41 70.3946 157.573 71.2074 157.716 72.0302C158.133 74.445 158.525 77.605 157.833 80.622Z" fill="white"/>
<path d="M131.203 70.502C131.203 70.502 131.193 70.4941 131.189 70.4901C131.173 70.4802 131.159 70.4682 131.144 70.4563C131.134 70.4464 131.124 70.4364 131.114 70.4265C131.102 70.4146 131.092 70.4007 131.082 70.3868C131.072 70.3748 131.062 70.3629 131.054 70.349C131.054 70.345 131.048 70.341 131.044 70.3351C130.124 68.7451 129.329 67.4493 128.17 66.4635C127.163 65.6069 125.533 64.8517 123.989 65.3029C123.067 65.5732 122.194 66.2847 121.528 67.3042C120.139 69.4387 120.04 72.3702 121.282 74.5962C122.462 76.7108 124.736 78.1716 127.075 78.3147C127.236 78.3266 127.409 78.3306 127.61 78.3266C127.878 78.3127 128.101 78.5274 128.117 78.7937C128.121 78.8434 128.123 78.895 128.125 78.9467C130.738 80.7235 133.244 82.381 135.782 83.806C137.164 81.2521 138.376 78.583 139.388 75.8562L131.203 70.502ZM129.53 76.1901C129.49 76.2 129.448 76.206 129.407 76.206C129.186 76.206 128.983 76.055 128.926 75.8304C128.429 73.8847 127.045 72.2172 125.225 71.3666C124.977 71.2513 124.869 70.9552 124.986 70.7067C125.102 70.4583 125.398 70.351 125.646 70.4662C127.733 71.4401 129.319 73.354 129.89 75.5859C129.957 75.8503 129.796 76.1205 129.53 76.1901Z" fill="white"/>
<path d="M151.954 54.2523C151.533 53.2109 151.098 52.1376 150.67 51.0664C144.094 51.4102 137.996 54.2225 133.441 59.0142C133.888 60.785 134.168 62.6016 134.274 64.4181C134.333 65.4297 134.349 66.6142 134.013 67.7351C133.745 68.6374 133.139 69.498 132.386 70.0883L139.998 75.0669C143.402 72.9363 146.842 70.2334 150.223 67.0276C150.311 66.9461 150.422 66.8984 150.539 66.8905C152.719 66.7712 154.941 67.2582 156.911 68.2737C155.699 63.48 153.87 58.9705 151.954 54.2523ZM141.107 62.6294C140.518 62.9692 139.932 63.3091 139.344 63.6509C139.117 63.7821 138.893 63.8835 138.63 63.8855C138.658 63.013 138.934 62.1504 139.421 61.425C139.906 60.6996 140.6 60.1153 141.397 59.7595C141.449 59.7376 141.502 59.7138 141.558 59.7178C141.613 59.7178 141.671 59.7555 141.681 59.8112C141.741 60.1471 142.088 60.314 142.295 60.5843C142.502 60.8546 142.653 61.2163 142.53 61.5343C142.45 61.737 142.273 61.8841 142.096 62.0113C141.78 62.2379 141.445 62.4346 141.107 62.6294ZM142.993 68.4645C142.635 68.5202 142.257 67.9995 142.15 67.3039C142.045 66.6083 142.247 66.0001 142.605 65.9445C142.963 65.8888 143.341 66.4095 143.446 67.1051C143.553 67.8007 143.351 68.4109 142.993 68.4645ZM150.732 59.0579C150.714 58.5313 150.503 58.0145 150.146 57.627C150.388 57.4084 150.768 57.303 151.094 57.3229C151.555 57.3487 152.02 57.4541 152.423 57.6846C152.827 57.9132 153.165 58.2729 153.316 58.7121C153.391 58.9307 153.383 59.2328 153.17 59.3243C153.079 59.366 152.974 59.3521 152.874 59.3362C152.185 59.2348 151.422 59.1593 150.732 59.0579ZM153.369 65.5788C153.011 65.6324 152.636 65.1137 152.529 64.4181C152.423 63.7205 152.626 63.1123 152.984 63.0587C153.341 63.003 153.717 63.5237 153.824 64.2193C153.932 64.915 153.727 65.5231 153.369 65.5788Z" fill="white"/>
<path d="M155.674 49.2659C155.605 50.1861 155.473 51.1063 155.285 52.0186C154.975 53.5151 154.504 54.9858 153.887 56.383C153.554 55.5522 153.216 54.7195 152.874 53.8768C152.411 52.732 151.93 51.5475 151.463 50.371C151.385 50.1742 151.184 50.051 150.982 50.0569C143.916 50.3312 137.362 53.3422 132.528 58.5354C132.411 58.6586 132.367 58.8355 132.411 59.0005C132.882 60.7912 133.174 62.6335 133.282 64.4779C133.335 65.402 133.351 66.4772 133.061 67.4511C132.838 68.2024 132.296 68.9397 131.65 69.4008C130.932 68.1725 130.046 66.7555 128.814 65.7081C128.498 65.4398 128.168 65.2053 127.828 65.0046C126.49 64.2135 125.014 63.9691 123.708 64.3487C122.559 64.6866 121.49 65.5431 120.695 66.7615C119.916 67.9579 119.495 69.371 119.433 70.8019C117.811 69.2974 116.571 67.0039 115.973 64.3467C114.317 56.9951 117.304 48.7591 123.404 43.8501C129.295 39.1121 137.644 37.6155 145.194 39.9468C145.363 39.9985 145.55 39.9567 145.679 39.8355C147.061 38.5456 149.062 38.2097 150.902 38.959C152.631 39.6606 154.09 41.2088 154.903 43.2062C155.587 44.8935 155.847 46.9327 155.674 49.2659Z" fill="#553597"/>
<path d="M141.077 144.276L140.226 138.663C140.206 138.532 140.135 138.415 140.027 138.337C139.922 138.258 139.789 138.226 139.658 138.246L121.594 141.096C121.461 141.116 121.343 141.189 121.266 141.299C121.188 141.408 121.158 141.543 121.182 141.674L122.174 147.199C122.216 147.44 122.424 147.609 122.661 147.609C122.687 147.609 122.713 147.607 122.739 147.603L140.661 144.84C140.932 144.799 141.116 144.546 141.077 144.276ZM123.066 146.548L122.25 141.998L139.318 139.307L140.019 143.934L123.066 146.548Z" fill="#393939"/>
<path d="M140.02 143.934L123.067 146.548L122.25 141.999L139.318 139.308L140.02 143.934Z" fill="#6F46BE"/>
<path d="M129.529 76.1901C129.49 76.2 129.448 76.206 129.406 76.206C129.185 76.206 128.983 76.0549 128.925 75.8303C128.428 73.8846 127.045 72.2172 125.224 71.3665C124.976 71.2513 124.869 70.9551 124.986 70.7067C125.101 70.4583 125.397 70.3509 125.646 70.4662C127.733 71.4401 129.319 73.354 129.889 75.5859C129.957 75.8502 129.796 76.1205 129.529 76.1901Z" fill="#393939"/>
<path d="M142.993 68.4646C142.635 68.5202 142.258 67.9995 142.15 67.3039C142.045 66.6083 142.248 66.0002 142.606 65.9445C142.963 65.8889 143.341 66.4096 143.446 67.1052C143.554 67.8008 143.351 68.4109 142.993 68.4646Z" fill="#393939"/>
<path d="M153.369 65.5788C153.012 65.6325 152.636 65.1138 152.529 64.4182C152.423 63.7206 152.626 63.1124 152.984 63.0588C153.342 63.0031 153.717 63.5238 153.825 64.2194C153.932 64.915 153.727 65.5232 153.369 65.5788Z" fill="#393939"/>
<path d="M142.53 61.5338C142.45 61.7365 142.273 61.8836 142.096 62.0108C141.78 62.2373 141.445 62.4341 141.107 62.6288C140.518 62.9687 139.932 63.3086 139.344 63.6504C139.117 63.7816 138.893 63.8829 138.63 63.8849C138.658 63.0124 138.934 62.1499 139.421 61.4245C139.906 60.699 140.6 60.1147 141.397 59.759C141.449 59.7371 141.502 59.7133 141.558 59.7172C141.614 59.7172 141.671 59.755 141.681 59.8106C141.741 60.1465 142.089 60.3135 142.295 60.5838C142.502 60.8541 142.653 61.2158 142.53 61.5338Z" fill="#393939"/>
<path d="M153.17 59.325C153.079 59.3668 152.974 59.3528 152.874 59.3369C152.185 59.2356 151.421 59.1601 150.732 59.0587C150.714 58.532 150.503 58.0153 150.146 57.6277C150.388 57.4091 150.768 57.3038 151.094 57.3237C151.555 57.3495 152.02 57.4548 152.423 57.6854C152.827 57.9139 153.164 58.2737 153.315 58.7129C153.391 58.9315 153.383 59.2336 153.17 59.325Z" fill="#393939"/>
<path d="M227.273 16.2383C227.851 16.2383 228.32 16.7072 228.32 17.2856V61.6013C228.32 62.1797 227.851 62.6486 227.273 62.6486H190.309C190.225 62.6486 190.145 62.6941 190.084 62.7772L184.556 70.2435C183.955 71.055 182.667 70.63 182.667 69.6203V63.1433C182.667 62.8703 182.517 62.6486 182.334 62.6486H178.048C177.469 62.6486 177 62.1797 177 61.6013V17.2856C177 16.7072 177.469 16.2383 178.048 16.2383H227.273Z" fill="#6F46BE"/>
<path d="M152.089 96.0586C146.586 95.2815 136.728 92.2546 129.251 80.9043C131.38 82.3253 133.513 83.6847 135.691 84.8832C135.707 84.8951 135.723 84.909 135.742 84.9189C135.756 84.9269 135.77 84.9289 135.784 84.9348C138.378 86.3579 141.039 87.5543 143.839 88.3672C146.491 89.1363 148.84 89.351 150.861 89.0131L152.016 91.8691C152.055 92.8747 152.091 94.3852 152.089 96.0586Z" fill="#E3E5EA"/>
<path d="M155.285 52.0189C154.975 53.5154 154.504 54.9861 153.888 56.3833C153.554 55.5526 153.216 54.7198 152.874 53.8771C152.411 52.7324 151.93 51.5479 151.463 50.3713C151.386 50.1745 151.185 50.0513 150.982 50.0573C143.917 50.3315 137.362 53.3425 132.529 58.5357C132.411 58.6589 132.368 58.8358 132.411 59.0008C132.882 60.7915 133.175 62.6338 133.282 64.4782C133.336 65.4024 133.351 66.4776 133.061 67.4514C132.839 68.2027 132.296 68.94 131.65 69.4011C130.933 68.1729 130.046 66.7558 128.814 65.7084C128.498 65.4401 128.168 65.2056 127.828 65.0049C127.94 64.6332 128.027 64.2556 128.091 63.878C128.506 61.4076 128.091 58.8835 127.675 56.4151C131.231 49.3517 138.431 44.2519 146.322 43.7312C147.993 43.6219 149.766 43.7213 151.187 44.6117C152.729 45.5776 153.604 47.3086 154.267 49.0039C154.653 49.9937 154.995 50.9993 155.285 52.0189Z" fill="#553597"/>
<path d="M216.799 36.2664C216.799 35.6879 216.33 35.219 215.751 35.219H208.63C208.052 35.219 207.583 34.7501 207.583 34.1717V27.2348C207.583 26.6564 207.114 26.1875 206.536 26.1875H200.878C200.3 26.1875 199.831 26.6564 199.831 27.2348V34.1717C199.831 34.7501 199.362 35.219 198.784 35.219H191.663C191.084 35.219 190.615 35.688 190.615 36.2664V41.7685C190.615 42.3469 191.084 42.8158 191.663 42.8158H198.784C199.362 42.8158 199.831 43.2847 199.831 43.8631V50.8C199.831 51.3784 200.3 51.8473 200.878 51.8473H206.536C207.114 51.8473 207.583 51.3784 207.583 50.8V43.8631C207.583 43.2847 208.052 42.8158 208.63 42.8158H215.751C216.33 42.8158 216.799 42.3469 216.799 41.7685V36.2664Z" fill="white"/>
<path d="M207.992 120.465C207.63 118.611 207.269 116.756 206.907 114.902C206.833 114.526 206.259 114.685 206.333 115.061C206.694 116.915 207.056 118.77 207.418 120.624C207.491 120.999 208.064 120.84 207.992 120.465Z" fill="#553597"/>
<path d="M211.936 122.115C213.79 121.754 215.645 121.392 217.499 121.03C217.875 120.957 217.716 120.382 217.34 120.456C215.486 120.817 213.631 121.179 211.777 121.541C211.401 121.614 211.56 122.187 211.936 122.115Z" fill="#553597"/>
<path d="M210.865 116.269C210.72 116.229 210.529 116.319 210.5 116.478C210.333 117.358 210.166 118.237 209.999 119.117C209.969 119.274 210.042 119.437 210.207 119.483C210.352 119.523 210.543 119.433 210.573 119.274C210.74 118.394 210.907 117.515 211.074 116.635C211.104 116.478 211.03 116.313 210.865 116.269Z" fill="#553597"/>
<path d="M253.98 135.373L239.841 130.398V129.351L240.626 126.994L243.507 118.877L246.387 107.618L248.22 98.1924L249.791 92.6939L251.623 88.2427L252.409 87.1953H253.456L254.242 88.5045L255.027 92.432L255.289 94.5267L255.027 98.1924L254.242 101.073L254.765 101.334L256.075 102.382L256.598 103.691L257.646 103.429L258.955 104.215L260.264 106.309L261.835 107.095L262.882 108.404L264.191 115.474H263.406H260.788V122.019L259.74 126.732L256.336 131.969L253.98 135.373Z" fill="#553597"/>
<path d="M71.8958 60.9584C70.4899 60.4716 69.7186 58.9422 70.1604 57.539L71.2144 54.2539L72.2684 50.9688C72.7235 49.567 74.2304 48.8247 75.6373 49.2982C77.0432 49.785 77.8145 51.3144 77.3727 52.7175L75.2576 59.2938C74.8097 60.6896 73.3089 61.4392 71.8958 60.9584Z" fill="white"/>
<path d="M70.4756 60.309C70.3226 60.1265 70.1909 59.926 70.0869 59.7148C69.7267 59.0096 69.6564 58.1855 69.9002 57.446L72.0082 50.8758C72.5081 49.3243 74.1753 48.4974 75.7312 49.0325C76.48 49.2871 77.1065 49.831 77.4595 50.5423C77.8196 51.2475 77.89 52.0716 77.6461 52.8111L75.531 59.3873C75.0311 60.9388 73.3639 61.7657 71.808 61.2306C71.2938 61.0527 70.8306 60.7325 70.4756 60.309ZM76.6422 50.3077C75.9199 49.4462 74.717 49.187 73.7304 49.6792C73.1611 49.958 72.7356 50.4519 72.5418 51.0623L70.4267 57.6386C70.0298 58.8921 70.7327 60.2674 71.9897 60.6926C73.2466 61.1179 74.5801 60.459 74.9903 59.2068L77.1125 52.6245C77.3125 52.0214 77.2564 51.3595 76.9595 50.7877C76.8657 50.6177 76.7647 50.4537 76.6422 50.3077Z" fill="#222433"/>
<path d="M76.2963 55.9467L75.2249 59.2837C74.7699 60.6856 73.2629 61.4279 71.856 60.9543C70.4501 60.4675 69.6788 58.9381 70.1206 57.535L71.1745 54.2499L76.2963 55.9467Z" fill="#EDE3FF"/>
<path d="M70.4415 60.4003C69.7742 59.6045 69.5569 58.5182 69.8661 57.5373L71.9812 50.9611C72.4812 49.4096 74.1483 48.5826 75.7103 49.125C77.2662 49.6601 78.1191 51.3449 77.6253 52.9036L75.5101 59.4799C75.0102 61.0313 73.3431 61.8583 71.7872 61.3232C71.2597 61.144 70.7965 60.8237 70.4415 60.4003ZM76.6142 50.4063C75.744 49.3829 74.2319 49.2339 73.231 50.0863C72.8954 50.368 72.6536 50.7326 72.5209 51.1549L70.4058 57.7311C70.0018 58.9907 70.6986 60.3586 71.9616 60.7912C73.2186 61.2165 74.5725 60.5529 74.9766 59.2933L77.0917 52.7171C77.3325 51.9304 77.159 51.056 76.6142 50.4063Z" fill="#222433"/>
<path d="M76.1361 55.9454L71.3378 54.3005L76.1361 55.9454Z" fill="white"/>
<path d="M71.1234 54.4799C71.0193 54.3558 71.0326 54.183 71.154 54.0811C71.2254 54.0212 71.3275 53.9977 71.4254 54.0275L76.2237 55.6724C76.3737 55.7207 76.4543 55.8894 76.4033 56.0317C76.3584 56.1813 76.1921 56.2587 76.0493 56.2044L71.2509 54.5595C71.205 54.5483 71.154 54.5164 71.1234 54.4799Z" fill="#222433"/>
<path d="M114.202 68.2494C114.666 69.9235 113.698 71.6674 112.046 72.1591L108.167 73.2806L104.286 74.4127C102.626 74.8907 100.906 73.9231 100.429 72.2568C99.9653 70.5827 100.933 68.8388 102.585 68.3471L110.358 66.0858C112.015 65.6184 113.739 66.5754 114.202 68.2494Z" fill="#553597"/>
<path d="M114.529 70.0461C114.454 70.313 114.348 70.5711 114.213 70.8095C113.769 71.618 113.018 72.2248 112.14 72.4733L104.367 74.7347C102.533 75.2673 100.624 74.2006 100.107 72.3503C99.8557 71.4617 99.9658 70.5019 100.42 69.6964C100.863 68.8879 101.614 68.2811 102.492 68.0326L110.265 65.7712C112.1 65.2386 114.009 66.3053 114.525 68.1555C114.695 68.7677 114.693 69.4238 114.529 70.0461ZM100.736 70.6378C100.382 71.8977 100.931 73.2271 102.063 73.8566C102.712 74.2232 103.473 74.3105 104.193 74.0982L111.966 71.8368C113.443 71.3997 114.308 69.8224 113.883 68.3323C113.459 66.8421 111.935 65.9872 110.45 66.4107L102.677 68.672C101.96 68.8737 101.356 69.3607 101 70.0209C100.89 70.2089 100.796 70.4242 100.736 70.6378Z" fill="#222433"/>
<path d="M106.427 67.2733L110.37 66.124C112.03 65.6459 113.75 66.6136 114.227 68.2799C114.691 69.954 113.723 71.698 112.071 72.1896L108.19 73.3218L106.427 67.2733Z" fill="#EDE3FF"/>
<path d="M114.628 70.0174C114.301 71.1813 113.394 72.1013 112.238 72.4447L104.479 74.6983C102.644 75.2309 100.735 74.1642 100.222 72.3033C99.7054 70.4531 100.769 68.5288 102.607 67.9855L110.38 65.7242C112.214 65.1916 114.123 66.2583 114.64 68.1085C114.803 68.7421 114.801 69.3982 114.628 70.0174ZM100.848 70.6014C100.436 72.1099 101.297 73.6654 102.787 74.073C103.283 74.2124 103.797 74.2071 104.294 74.0588L112.067 71.7975C113.555 71.3634 114.416 69.7968 114.006 68.2989C113.582 66.8087 112.039 65.9372 110.551 66.3714L102.778 68.6327C101.846 68.9121 101.115 69.6512 100.848 70.6014Z" fill="#222433"/>
<path d="M106.529 67.4404L108.127 73.1432L106.529 67.4404Z" fill="#553597"/>
<path d="M108.443 73.232C108.392 73.4135 108.216 73.5137 108.037 73.4633C107.931 73.4336 107.841 73.3506 107.804 73.2367L106.206 67.5339C106.153 67.3577 106.263 67.1696 106.435 67.1258C106.61 67.0712 106.795 67.181 106.837 67.3542L108.435 73.057C108.455 73.1086 108.458 73.1786 108.443 73.232Z" fill="#222433"/>
<path d="M93.9546 100.265L95.8843 102.649C97.6996 104.892 102.06 103.785 105.989 100.603C109.918 97.4198 111.906 93.3822 110.091 91.1394L108.161 88.7553" fill="#EDE3FF"/>
<path d="M106.203 100.868C101.942 104.321 97.4793 105.159 95.6211 102.863L93.6915 100.479C93.6343 100.408 93.6122 100.309 93.6044 100.228C93.6141 100.132 93.67 100.058 93.7401 100.001C93.8103 99.9439 93.909 99.9224 93.9902 99.9151C94.0857 99.9254 94.1604 99.9819 94.2176 100.052L96.1473 102.437C97.7625 104.432 101.811 103.55 105.775 100.339C109.738 97.1275 111.443 93.3491 109.827 91.3535L107.898 88.9694C107.841 88.8988 107.818 88.7997 107.811 88.7184C107.82 88.6227 107.876 88.5482 107.946 88.4914C108.017 88.4346 108.115 88.4131 108.197 88.4058C108.292 88.4161 108.367 88.4725 108.424 88.5432L110.354 90.9272C112.212 93.223 110.483 97.4015 106.203 100.868Z" fill="#553597"/>
<path d="M103.56 97.6003C107.488 94.4174 109.577 90.5035 108.233 88.8434C106.889 87.1834 102.628 88.4131 98.6998 91.5959C94.7712 94.7788 92.683 98.6927 94.0266 100.353C95.3703 102.013 99.6486 100.769 103.56 97.6003Z" fill="#EDE3FF"/>
<path d="M103.774 97.8661C99.4421 101.376 95.3215 102.492 93.7635 100.567C92.2055 98.6419 94.1533 94.8416 98.4854 91.332C102.817 87.8224 106.938 86.7064 108.496 88.6313C110.054 90.5562 108.124 94.3423 103.774 97.8661ZM98.9142 91.8618C95.0206 95.0162 93.0318 98.5865 94.2897 100.141C95.5475 101.695 99.4517 100.491 103.345 97.3363C107.239 94.1819 109.228 90.6116 107.97 89.0575C106.712 87.5035 102.825 88.6932 98.9142 91.8618Z" fill="#553597"/>
<path d="M64.4889 76.5256C63.0066 77.0042 61.3914 76.2186 60.8685 74.7761L59.6606 71.3865L58.4527 67.9968C57.9417 66.5471 58.7274 64.9844 60.202 64.4941C61.6843 64.0155 63.2995 64.801 63.8224 66.2436L66.236 73.0323C66.7492 74.4726 65.9733 76.0375 64.4889 76.5256Z" fill="white"/>
<path d="M62.8912 76.8789C62.6475 76.8235 62.4104 76.7397 62.1894 76.6296C61.4408 76.2702 60.8585 75.6302 60.5921 74.863L58.1785 68.0743C57.6099 66.4721 58.4754 64.7385 60.1135 64.2058C60.9 63.9469 61.7683 64.0052 62.5147 64.3741C63.2633 64.7336 63.8455 65.3736 64.1119 66.1408L66.5255 72.9295C67.0941 74.5317 66.2287 76.2653 64.5906 76.798C64.0366 76.9804 63.4565 77.0076 62.8912 76.8789ZM61.6817 64.702C60.5317 64.4403 59.3634 64.9804 58.853 66.0086C58.5551 66.5976 58.5139 67.2749 58.7401 67.9035L61.1537 74.6923C61.619 75.9824 63.0792 76.6829 64.3981 76.2467C65.717 75.8105 66.4109 74.426 65.9575 73.1286L63.5439 66.3399C63.3275 65.7135 62.8602 65.1991 62.2492 64.9108C62.0651 64.8191 61.8766 64.7464 61.6817 64.702Z" fill="#553597"/>
<path d="M64.9758 69.6014L66.2021 73.0449C66.7131 74.4947 65.9275 76.0573 64.4528 76.5476C62.9706 77.0263 61.3554 76.2407 60.8325 74.7982L59.6246 71.4086L64.9758 69.6014Z" fill="#553597"/>
<path d="M62.9215 76.9764C61.8592 76.7346 60.9877 75.969 60.6225 74.9604L58.2089 68.1717C57.6402 66.5695 58.5057 64.8359 60.1536 64.3054C61.7916 63.7727 63.5737 64.636 64.152 66.2404L66.5656 73.0292C67.1342 74.6314 66.2687 76.3649 64.6307 76.8976C64.0767 77.0801 63.4868 77.105 62.9215 76.9764ZM61.7218 64.8016C60.3455 64.4984 58.9893 65.3241 58.6958 66.6605C58.5947 67.1052 58.6247 67.5598 58.7823 67.9937L61.1959 74.7824C61.6591 76.082 63.1096 76.7803 64.4382 76.3463C65.7571 75.9101 66.4651 74.5089 66.0019 73.2094L63.5883 66.4206C63.2894 65.6162 62.5892 64.9991 61.7218 64.8016Z" fill="#553597"/>
<path d="M64.8307 69.6979L59.7825 71.3452L64.8307 69.6979Z" fill="white"/>
<path d="M59.7279 71.6308C59.5622 71.5931 59.4635 71.4413 59.5 71.2804C59.5216 71.1858 59.5918 71.1023 59.6924 71.0655L64.7406 69.4183C64.8964 69.3642 65.0708 69.4536 65.1187 69.6038C65.1665 69.754 65.0867 69.9249 64.933 69.9696L59.8848 71.6168C59.8297 71.6341 59.7766 71.6419 59.7279 71.6308Z" fill="#553597"/>
<path d="M86.6268 75.6642C88.2064 76.5401 88.805 78.5298 87.9783 80.1149L86.0094 83.8276L84.0504 87.5347C83.2081 89.1154 81.2467 89.6878 79.6631 88.8275C78.0835 87.9515 77.4849 85.9618 78.3116 84.3767L82.2395 76.957C83.0818 75.3762 85.0432 74.8039 86.6268 75.6642Z" fill="white"/>
<path d="M88.1939 76.7459C88.3384 76.9961 88.4534 77.2633 88.5331 77.5375C88.8145 78.456 88.7238 79.4558 88.2749 80.2889L84.3471 87.7087C83.4193 89.4589 81.2481 90.099 79.4993 89.134C78.6569 88.673 78.0225 87.8917 77.751 86.9676C77.4696 86.0491 77.5603 85.0493 78.0091 84.2162L81.937 76.7964C82.8648 75.0462 85.0359 74.4061 86.7848 75.3711C87.3724 75.6857 87.8588 76.1654 88.1939 76.7459ZM78.6835 87.4032C79.3652 88.5842 80.7501 89.1455 82.0355 88.7634C82.7762 88.5492 83.3903 88.0477 83.752 87.3584L87.6798 79.9387C88.421 78.5231 87.8716 76.7319 86.4572 75.9607C85.0429 75.1894 83.3068 75.6984 82.55 77.1096L78.6221 84.5294C78.2547 85.2087 78.1814 86.0117 78.4154 86.7573C78.472 86.9915 78.5679 87.203 78.6835 87.4032Z" fill="#222433"/>
<path d="M80.286 80.7415L82.2768 76.9761C83.1191 75.3954 85.0805 74.8231 86.6641 75.6833C88.2436 76.5593 88.8422 78.5489 88.0155 80.134L86.0565 83.841L80.286 80.7415Z" fill="#EDE3FF"/>
<path d="M88.254 76.645C88.8838 77.7359 88.9133 79.0801 88.335 80.1881L84.4071 87.6078C83.4793 89.3581 81.3082 89.9981 79.5536 89.0231C77.8047 88.0581 77.1414 85.8656 78.0634 84.1053L81.9913 76.6856C82.9191 74.9353 85.0902 74.2952 86.8391 75.2603C87.4324 75.5848 87.9189 76.0645 88.254 76.645ZM78.7377 87.2923C79.5622 88.6978 81.3405 89.1921 82.7196 88.3823C83.1812 88.1157 83.548 87.7303 83.7964 87.2532L87.7243 79.8335C88.4753 78.4122 87.9316 76.631 86.5213 75.8441C85.107 75.0729 83.3455 75.5832 82.5945 77.0045L78.6666 84.4242C78.1917 85.3257 78.2195 86.4173 78.7377 87.2923Z" fill="#222433"/>
<path d="M80.4924 80.7801L85.8867 83.7499L80.4924 80.7801Z" fill="white"/>
<path d="M86.1715 83.5858C86.2698 83.756 86.2172 83.9598 86.0502 84.0562C85.952 84.113 85.8249 84.1196 85.714 84.0636L80.3197 81.0939C80.1504 81.0048 80.0897 80.7863 80.181 80.6268C80.2665 80.4573 80.482 80.3996 80.6415 80.4943L86.0358 83.4641C86.0982 83.4814 86.1369 83.5258 86.1715 83.5858Z" fill="#222433"/>
<path d="M91.1682 122.081C91.4808 121.584 91.7044 121.028 91.805 120.482C91.9056 119.936 91.9172 119.331 91.7786 118.758C91.6606 118.211 91.4197 117.674 91.097 117.201C90.7743 116.727 90.3425 116.338 89.8496 116.039L73.8222 106.026C73.0828 105.577 72.2144 105.356 71.3399 105.353C70.4587 105.397 69.5921 105.685 68.8901 106.186L64.4811 103.472C64.2825 103.328 64.0772 103.232 63.8447 103.157C63.6122 103.082 63.3663 103.102 63.1204 103.122C62.8951 103.169 62.6632 103.263 62.4518 103.384C62.2404 103.505 62.0702 103.68 61.9412 103.907C61.7915 104.108 61.7104 104.341 61.677 104.58C61.6437 104.818 61.6582 105.062 61.6999 105.285C61.7622 105.535 61.8791 105.742 62.0232 105.929C62.1673 106.115 62.3659 106.259 62.5712 106.355L67.0007 109.095C66.8328 109.948 66.952 110.835 67.2759 111.648C67.627 112.439 68.1895 113.11 68.9494 113.585L85.0108 123.53C85.5037 123.829 86.0578 124.038 86.6047 124.125C87.1994 124.218 87.7595 124.209 88.3397 124.058C88.9199 123.907 89.4862 123.681 89.9496 123.322C90.4335 122.99 90.8351 122.552 91.1682 122.081Z" fill="white"/>
<path d="M75.2102 108.609C75.2647 108.567 75.367 108.531 75.4354 108.563C75.5311 108.574 75.5995 108.606 75.6407 108.659C75.6818 108.712 75.7436 108.792 75.7575 108.866C75.7714 108.941 75.7581 109.036 75.7036 109.078L72.5438 113.949C72.5099 114.018 72.4281 114.081 72.3052 114.091C72.1823 114.101 72.1345 114.096 72.0455 114.037C71.9771 114.005 71.9153 113.925 71.8808 113.824C71.8669 113.75 71.8803 113.655 71.9142 113.586L75.0739 108.715C75.1557 108.652 75.1829 108.631 75.2102 108.609Z" fill="#553597"/>
<path d="M77.4704 110.009C77.4977 109.988 77.5522 109.946 77.5794 109.925C77.6067 109.904 77.6818 109.888 77.7296 109.893C77.8253 109.904 77.9209 109.915 77.9827 109.995C78.0032 110.022 78.0444 110.075 78.065 110.102C78.0856 110.128 78.0995 110.203 78.0928 110.25C78.0795 110.346 78.0661 110.441 77.9844 110.504L74.8246 115.375C74.7974 115.397 74.7635 115.465 74.7362 115.486C74.709 115.508 74.6545 115.55 74.6066 115.544C74.5588 115.539 74.5315 115.56 74.4837 115.554C74.4359 115.549 74.3881 115.543 74.3675 115.517C74.3469 115.49 74.2785 115.458 74.2579 115.431C74.2373 115.405 74.1962 115.352 74.2028 115.304C74.2095 115.256 74.1889 115.23 74.1956 115.182C74.2023 115.134 74.2089 115.086 74.2362 115.065L77.3959 110.194C77.4365 110.078 77.4638 110.057 77.4704 110.009Z" fill="#553597"/>
<path d="M79.7709 111.462C79.8254 111.419 79.9277 111.383 79.9755 111.388C80.0712 111.399 80.1396 111.431 80.1808 111.485C80.2219 111.538 80.2837 111.618 80.2976 111.692C80.3115 111.766 80.2981 111.862 80.2436 111.904L77.0839 116.775C77.0227 116.865 76.9682 116.907 76.8659 116.944C76.7908 116.959 76.6951 116.948 76.6062 116.889C76.5172 116.831 76.476 116.778 76.4415 116.677C76.4276 116.602 76.4409 116.507 76.5021 116.417L79.6619 111.546C79.7164 111.504 79.7436 111.483 79.7709 111.462Z" fill="#553597"/>
<path d="M82.0304 112.861C82.0849 112.819 82.1872 112.782 82.235 112.788C82.3307 112.799 82.3991 112.831 82.4403 112.884C82.4814 112.937 82.5432 113.017 82.5571 113.092C82.571 113.166 82.5577 113.261 82.5032 113.303L79.3434 118.174C79.3162 118.196 79.2822 118.264 79.255 118.285C79.2277 118.307 79.1732 118.349 79.1254 118.343C79.0776 118.338 79.0503 118.359 79.0025 118.353C78.9547 118.348 78.9068 118.342 78.8862 118.316C78.8657 118.289 78.7972 118.257 78.7767 118.23C78.7561 118.204 78.7149 118.151 78.7216 118.103C78.7283 118.055 78.7077 118.029 78.7143 117.981C78.721 117.933 78.7277 117.885 78.7549 117.864L81.9147 112.993C81.9964 112.93 82.0237 112.909 82.0304 112.861Z" fill="#553597"/>
<path d="M84.3103 114.288C84.3648 114.246 84.4672 114.209 84.5422 114.194C84.6379 114.205 84.7063 114.237 84.7747 114.269C84.8159 114.322 84.8776 114.402 84.8916 114.476C84.9055 114.551 84.8921 114.646 84.8376 114.688L81.6779 119.559C81.6506 119.58 81.6167 119.649 81.5895 119.67C81.5622 119.691 81.5077 119.733 81.4599 119.728C81.412 119.722 81.3848 119.744 81.337 119.738C81.2891 119.733 81.2413 119.727 81.2207 119.7C81.2001 119.674 81.1317 119.642 81.1111 119.615C81.0906 119.589 81.0494 119.535 81.0561 119.488C81.0627 119.44 81.0422 119.413 81.0488 119.366C81.0555 119.318 81.0622 119.27 81.0894 119.249L84.2492 114.378C84.2764 114.357 84.2831 114.309 84.3103 114.288Z" fill="#553597"/>
<path d="M86.5904 115.714C86.6449 115.672 86.7473 115.635 86.7951 115.64C86.8907 115.651 86.9592 115.684 87.0003 115.737C87.0415 115.79 87.1032 115.87 87.1171 115.944C87.131 116.018 87.1177 116.114 87.0632 116.156L83.9035 121.027C83.8762 121.048 83.8423 121.117 83.815 121.138C83.7878 121.159 83.7333 121.201 83.6855 121.196C83.6376 121.19 83.6104 121.211 83.5625 121.206C83.5147 121.2 83.4669 121.195 83.4463 121.168C83.4257 121.142 83.3573 121.11 83.3367 121.083C83.3161 121.056 83.275 121.003 83.2817 120.955C83.2883 120.908 83.2677 120.881 83.2744 120.833C83.2811 120.786 83.2877 120.738 83.315 120.717L86.5087 115.777C86.5359 115.756 86.5632 115.735 86.5904 115.714Z" fill="#553597"/>
<path d="M73.0191 107.243C73.0736 107.201 73.176 107.164 73.2238 107.17C73.3195 107.181 73.3879 107.213 73.429 107.266C73.4702 107.319 73.5319 107.399 73.5458 107.473C73.5598 107.548 73.5464 107.643 73.4919 107.685L70.3322 112.556C70.3049 112.577 70.271 112.646 70.2437 112.667C70.2165 112.688 70.162 112.731 70.1142 112.725C70.0663 112.72 70.0391 112.741 69.9913 112.735C69.9434 112.73 69.8956 112.724 69.875 112.698C69.8544 112.671 69.786 112.639 69.7654 112.612C69.7449 112.586 69.7037 112.532 69.7104 112.485C69.717 112.437 69.6964 112.41 69.7031 112.363C69.7098 112.315 69.7165 112.267 69.7437 112.246L72.9035 107.375C72.9374 107.306 72.9919 107.264 73.0191 107.243Z" fill="#553597"/>
<path d="M87.8905 120.491L88.2303 119.973C88.5429 119.476 88.4176 118.807 87.9247 118.508L63.8456 103.496C63.3527 103.197 62.6768 103.337 62.3642 103.834L62.0516 104.332C61.739 104.829 61.8643 105.498 62.3572 105.797L86.4091 120.83C86.902 121.129 87.5573 120.962 87.8905 120.491Z" fill="#EDE3FF"/>
<path d="M62.3689 103.278C62.5869 103.109 62.894 102.999 63.1877 102.984C63.4814 102.969 63.7618 103.05 64.0083 103.2L88.0873 118.211C88.2448 118.302 88.3683 118.462 88.4712 118.595C88.5741 118.728 88.6431 118.93 88.6916 119.105C88.74 119.28 88.7133 119.471 88.6866 119.662C88.6599 119.853 88.5648 120.012 88.4697 120.17L88.1571 120.668C87.9669 120.985 87.6193 121.212 87.2438 121.29C86.8683 121.368 86.4855 121.324 86.1979 121.121L62.1189 106.109C61.804 105.927 61.5842 105.587 61.4873 105.236C61.4178 104.865 61.4711 104.483 61.6819 104.192L61.9945 103.695C62.1441 103.494 62.2326 103.383 62.3689 103.278ZM87.4323 120.463C87.4868 120.421 87.5685 120.357 87.6025 120.289L87.915 119.791C87.9762 119.701 88.0102 119.633 88.0235 119.537C88.0368 119.442 88.0502 119.346 88.0157 119.245C87.9812 119.144 87.9673 119.07 87.9055 118.99C87.8437 118.91 87.782 118.831 87.7135 118.799L63.6412 103.739C63.5522 103.68 63.4837 103.648 63.388 103.637C63.2924 103.626 63.1967 103.615 63.0943 103.652C62.992 103.689 62.9169 103.704 62.8351 103.767C62.7533 103.831 62.6716 103.894 62.6376 103.963L62.325 104.46C62.2639 104.55 62.2299 104.619 62.2166 104.714C62.2033 104.81 62.1899 104.905 62.2244 105.006C62.2589 105.107 62.2728 105.181 62.3346 105.261C62.3964 105.341 62.4581 105.421 62.5265 105.453L86.5989 120.512C86.7564 120.603 86.9683 120.652 87.1458 120.6C87.2415 120.611 87.3232 120.547 87.4323 120.463Z" fill="#553597"/>
<path d="M74.5726 110.208L64.3578 103.821C63.5772 103.32 62.5871 103.448 62.2066 104.083C61.8262 104.718 62.0889 105.621 62.8694 106.122L73.0843 112.509L74.5726 110.208Z" fill="#553597"/>
<path d="M62.3142 103.321C62.6413 103.068 63.0507 102.921 63.4674 102.896C63.884 102.871 64.3079 102.969 64.664 103.204L68.8882 105.847C69.6381 105.352 70.5526 105.069 71.4749 105.078C72.3766 105.061 73.2656 105.309 74.0256 105.784L90.0185 115.696C90.532 116.022 91.0049 116.464 91.3482 116.964C91.6915 117.464 91.953 118.027 92.0849 118.649C92.2169 119.27 92.2258 119.901 92.1185 120.495C91.984 121.109 91.7538 121.713 91.4139 122.231C91.0741 122.75 90.618 123.231 90.1068 123.584C89.5956 123.937 88.9954 124.232 88.3947 124.356C87.7666 124.502 87.1314 124.526 86.5367 124.433C85.9214 124.314 85.3195 124.099 84.806 123.774L68.8197 113.814C68.0597 113.338 67.4494 112.662 67.0777 111.844C66.706 111.025 66.5663 110.112 66.693 109.206L62.4687 106.563C62.0237 106.269 61.6943 105.843 61.5763 105.296C61.4789 104.776 61.5316 104.225 61.8375 103.775C61.9532 103.643 62.1234 103.469 62.3142 103.321ZM89.9065 122.931C90.2881 122.635 90.6079 122.26 90.8799 121.879C91.1858 121.429 91.3548 120.916 91.476 120.396C91.5766 119.85 91.5749 119.341 91.4569 118.794C91.3595 118.274 91.1119 117.785 90.8098 117.338C90.5076 116.891 90.0965 116.529 89.672 116.262L73.6585 106.323C72.9875 105.907 72.167 105.691 71.3609 105.72C70.5549 105.748 69.7633 106.02 69.0886 106.5C69.0341 106.543 68.959 106.558 68.9111 106.553C68.836 106.568 68.7676 106.536 68.7264 106.483L64.2969 103.743C64.1461 103.605 63.9614 103.535 63.7973 103.492C63.6126 103.422 63.4146 103.448 63.2166 103.473C63.0185 103.499 62.8617 103.578 62.6775 103.678C62.4934 103.778 62.3777 103.91 62.2554 104.09C62.1603 104.249 62.0857 104.434 62.0591 104.625C62.0324 104.816 62.0535 105.012 62.102 105.187C62.1504 105.362 62.2466 105.543 62.3702 105.703C62.4937 105.863 62.6511 105.953 62.8086 106.044L67.2381 108.784C67.3065 108.816 67.3477 108.869 67.3616 108.944C67.4028 108.997 67.4167 109.071 67.3828 109.14C67.2215 109.946 67.3268 110.758 67.6367 111.496C67.9467 112.235 68.4953 112.831 69.1868 113.274L85.2003 123.213C85.8918 123.656 86.7396 123.851 87.5935 123.828C88.4269 123.778 89.2457 123.485 89.9065 122.931Z" fill="#553597"/>
</svg>
