<svg width="329" height="252" viewBox="0 0 329 252" fill="none" xmlns="http://www.w3.org/2000/svg">
<g clip-path="url(#clip0_68_5030)">
<path d="M278.987 77.2958C229.813 39.7393 240.076 141.743 193.924 144.097C147.771 146.448 156.309 73.3743 101.206 77.2958C57.9056 80.3793 46.2502 159.288 43.2445 192.949C42.0085 206.796 45.4808 220.729 53.1675 231.469C89.6776 282.484 164.989 189.94 218.674 207.937C278.505 227.994 328.16 114.852 278.987 77.2958Z" fill="#F3F5F7"/>
<path d="M124.108 78.3214V93.8263H112.904L111.007 84.6342L109.108 93.8263H100.536L103.78 57.0564L118.292 57.2395L124.108 78.3214Z" fill="#6F46BE"/>
<path d="M143.702 84.6326H123.374V97.6732H143.702V84.6326Z" fill="white"/>
<path d="M143.702 97.9921H123.373C123.293 97.9921 123.214 97.9605 123.157 97.9021C123.101 97.8453 123.067 97.7663 123.067 97.6858V84.6325C123.067 84.552 123.099 84.4731 123.157 84.4163C123.214 84.3594 123.293 84.3263 123.373 84.3263H143.702C143.784 84.3263 143.861 84.3594 143.918 84.4163C143.974 84.4731 144.008 84.552 144.008 84.6325V97.6858C144.008 97.7663 143.974 97.8453 143.918 97.9021C143.861 97.9589 143.782 97.9921 143.702 97.9921ZM123.679 97.3796H143.396V84.9388H123.679V97.3796Z" fill="#553597"/>
<path d="M132.926 31.1313C137.863 31.1313 141.866 27.1249 141.866 22.1839C141.866 17.243 137.863 13.2365 132.926 13.2365C127.99 13.2365 123.987 17.243 123.987 22.1839C123.987 27.1249 127.99 31.1313 132.926 31.1313Z" fill="#6F46BE"/>
<path d="M133.294 13.2366C136.574 13.2366 139.234 10.5751 139.234 7.29168C139.234 4.00823 136.574 1.34674 133.294 1.34674C130.013 1.34674 127.354 4.00823 127.354 7.29168C127.354 10.5751 130.013 13.2366 133.294 13.2366Z" fill="#6F46BE"/>
<path d="M109.108 68.8215C112.353 68.8215 114.986 66.1868 114.986 62.9381C114.986 59.6894 112.353 57.0547 109.108 57.0547C105.862 57.0547 103.229 59.6894 103.229 62.9381C103.229 66.1868 105.862 68.8215 109.108 68.8215Z" fill="white"/>
<path d="M110.393 62.9998H110.27L105.372 60.6098C105.326 60.6035 105.282 60.583 105.247 60.5514C105.212 60.5198 105.186 60.4804 105.173 60.4346C105.16 60.3888 105.16 60.3414 105.173 60.2957C105.187 60.2499 105.212 60.2104 105.249 60.1804C105.287 60.1204 105.343 60.0762 105.411 60.0541C105.477 60.032 105.55 60.0336 105.616 60.0589L110.576 62.5104C110.636 62.5483 110.681 62.6051 110.703 62.673C110.725 62.7393 110.723 62.8135 110.698 62.8782C110.663 62.9256 110.617 62.9619 110.562 62.984C110.509 63.0061 110.449 63.0108 110.392 62.9998H110.393Z" fill="#553597"/>
<path d="M137.641 90.1481H127.843C123.378 90.1481 119.095 88.3722 115.937 85.2119C112.78 82.0516 111.005 77.7642 111.005 73.2952V50.682C111.005 46.213 112.78 41.9256 115.937 38.7653C119.095 35.605 123.378 33.8291 127.843 33.8291H137.641C142.106 33.8291 146.389 35.605 149.547 38.7653C152.704 41.9256 154.479 46.213 154.479 50.682V73.2952C154.479 82.6104 149.459 90.1481 137.641 90.1481Z" fill="white"/>
<path d="M137.64 90.4546H127.845C123.298 90.4546 118.937 88.6471 115.722 85.4284C112.507 82.2097 110.701 77.8465 110.701 73.2954V50.6822C110.716 46.1359 112.529 41.7806 115.74 38.5666C118.951 35.3526 123.302 33.5388 127.845 33.523H137.64C142.187 33.523 146.548 35.3305 149.763 38.5492C152.978 41.768 154.784 46.1327 154.784 50.6822V73.2954C154.784 84.0203 148.416 90.4546 137.64 90.4546ZM127.845 34.134C123.46 34.134 119.255 35.8767 116.155 38.9802C113.054 42.0837 111.313 46.2922 111.313 50.6806V73.2938C111.313 77.6823 113.054 81.8908 116.155 84.9943C119.255 88.0978 123.46 89.8405 127.845 89.8405H137.64C147.988 89.8405 154.172 83.6509 154.172 73.2938V50.6806C154.172 46.2922 152.431 42.0837 149.33 38.9802C146.23 35.8767 142.025 34.134 137.64 34.134H127.845Z" fill="#553597"/>
<path d="M114.066 50.4974C113.984 50.4974 113.907 50.4643 113.85 50.4074C113.794 50.3506 113.76 50.2717 113.76 50.1912C113.76 50.1107 113.794 50.0317 113.85 49.9749C113.907 49.9181 113.986 49.8849 114.066 49.8849C125.517 49.7618 130.966 39.3448 131.027 39.2216C131.065 39.1616 131.122 39.1174 131.19 39.0953C131.256 39.0732 131.33 39.0748 131.395 39.1001C131.437 39.1127 131.477 39.1348 131.508 39.1648C131.542 39.1948 131.567 39.2311 131.584 39.2721C131.602 39.3132 131.609 39.3574 131.609 39.4016C131.609 39.4458 131.597 39.49 131.578 39.5294C131.516 39.6526 125.944 50.3775 114.066 50.499V50.4974Z" fill="#6F46BE"/>
<path d="M137.64 33.8292C137.64 33.8292 130.66 49.334 112.843 48.9046L111.311 57.3011L103.78 57.0564C103.78 57.0564 103.413 29.908 130.048 31.4392C130.048 31.4392 155.825 26.9039 158.581 56.0761C161.336 85.2467 162.806 93.0923 162.806 93.0923H155.519L152.947 81.6318L151.723 93.0923H144.866L137.64 33.8307V33.8292Z" fill="#6F46BE"/>
<path d="M120.129 63.9801C121.515 63.9801 122.64 62.8545 122.64 61.467C122.64 60.0794 121.515 58.9539 120.129 58.9539C118.743 58.9539 117.618 60.0794 117.618 61.467C117.618 62.8545 118.743 63.9801 120.129 63.9801Z" fill="#553597"/>
<path d="M123.373 94.3155C98.6984 95.2958 67.2259 102.589 51.8579 130.413C36.4898 158.235 11.9364 258.619 57.736 251.326C103.536 244.033 120.741 171.227 120.741 171.227L217.177 154.804L216.198 113.743L157.601 96.4608L123.373 94.3155Z" fill="white"/>
<path d="M53.2048 252C46.4703 252 41.2041 249.304 37.5308 244.033C27.8564 230.306 31.0407 202.237 33.7961 186.794C37.4693 165.773 44.8174 142.546 51.5519 130.29C67.166 102.1 99.189 94.9912 123.313 94.0094C123.496 93.9478 123.619 94.1325 123.681 94.254C123.681 94.3424 123.653 94.4277 123.596 94.494C123.539 94.5619 123.462 94.6061 123.375 94.6203C99.3735 95.6006 67.5335 102.649 52.1039 130.595C40.2262 152.044 21.7338 220.436 38.0213 243.664C42.368 249.915 49.0426 252.366 57.6761 251.018C70.7178 248.934 89.6376 239.864 106.108 208.425C112.245 196.573 117.05 184.077 120.435 171.164C120.435 171.099 120.46 171.038 120.508 170.992C120.553 170.945 120.616 170.919 120.681 170.919L216.812 154.557L215.894 113.986L157.48 96.7656C157.357 96.704 157.235 96.5209 157.295 96.3977C157.322 96.322 157.373 96.2573 157.439 96.2131C157.505 96.1689 157.584 96.1468 157.663 96.1515L216.32 113.434C216.38 113.459 216.428 113.502 216.462 113.557C216.495 113.612 216.509 113.677 216.504 113.74L217.484 154.801C217.484 154.881 217.452 154.96 217.394 155.017C217.337 155.074 217.258 155.107 217.178 155.107L120.986 171.469C117.573 184.353 112.768 196.827 106.658 208.668C97.5345 226.135 81.6161 247.829 57.7975 251.629C56.2787 251.867 54.7426 251.991 53.2048 251.997V252Z" fill="#553597"/>
<path d="M157.601 96.461C157.601 96.461 152.214 95.4191 143.825 94.7451L157.601 96.461Z" fill="white"/>
<path d="M157.601 96.7672H157.54C157.478 96.7672 152.09 95.7254 143.763 95.0513C143.58 94.9897 143.457 94.8682 143.518 94.6835C143.58 94.5004 143.641 94.3772 143.824 94.4388C152.152 95.1129 157.601 96.1547 157.663 96.1547C157.734 96.1879 157.793 96.24 157.836 96.3047C157.879 96.3694 157.904 96.4452 157.907 96.5225C157.879 96.5841 157.836 96.6394 157.784 96.682C157.73 96.7246 157.667 96.7546 157.601 96.7672Z" fill="#553597"/>
<path d="M133.048 99.648C133.048 99.648 163.662 85.4297 165.683 89.8419C167.703 94.254 149.274 107.247 149.274 107.247L133.048 99.648Z" fill="white"/>
<path d="M149.274 107.554C149.212 107.554 149.151 107.554 149.151 107.492L132.925 99.9544C132.866 99.9292 132.816 99.8865 132.784 99.8313C132.751 99.776 132.737 99.7129 132.742 99.6482C132.742 99.5251 132.803 99.4651 132.925 99.4035C133.048 99.3419 140.7 95.787 148.477 92.7845C164.58 86.718 165.621 88.9849 165.989 89.7205C168.071 94.2558 151.356 106.144 149.457 107.492L149.274 107.554ZM133.783 99.6482L149.212 106.88C154.417 103.203 167.03 93.397 165.438 89.9652C165.071 89.2295 162.744 88.0646 148.723 93.397C142.172 95.8485 135.743 98.7894 133.783 99.6482Z" fill="#553597"/>
<path d="M151.808 83.4804L151.748 83.4662C149.146 82.8647 146.549 84.4891 145.948 87.0937L130.024 156.124C129.424 158.728 131.046 161.328 133.65 161.93L133.71 161.944C136.313 162.545 138.91 160.921 139.511 158.315L155.434 89.2864C156.035 86.6817 154.412 84.0818 151.81 83.4804H151.808Z" fill="#A78ED7"/>
<path d="M61.8999 184.465C61.8999 184.465 86.0859 88.9848 133.048 99.6482C157.54 105.225 167.582 115.582 168.5 120.484C169.418 125.387 158.581 120.484 158.581 120.484C158.581 120.484 173.581 129.248 154.111 128.697C154.111 128.697 168.684 140.892 133.906 131.455C133.906 131.455 149.826 142.425 149.458 146.407C149.091 150.392 127.906 141.321 127.906 141.321C127.906 141.321 120.131 169.205 118.844 173.679L61.8999 184.465Z" fill="white"/>
<path d="M61.8997 184.772H61.8382C61.6553 184.772 61.5938 184.587 61.5938 184.404C61.5938 184.221 67.7779 160.258 79.5956 137.951C86.5147 124.836 94.0457 114.785 101.944 108.166C111.802 99.8928 122.334 96.8904 133.109 99.3419C146.824 102.467 155.152 106.88 159.805 110.067C164.459 113.252 168.253 117.42 168.805 120.484C168.916 120.811 168.922 121.163 168.823 121.493C168.723 121.821 168.525 122.111 168.253 122.323C166.907 123.426 163.416 122.568 160.967 121.772C162.743 123.059 164.763 125.019 164.334 126.613C163.905 128.206 160.782 129.125 154.904 129.003C156.068 130.045 158.089 132.312 157.231 133.905C156.373 135.499 148.903 135.744 135.494 132.189C139.413 135.008 150.067 142.975 149.761 146.407C149.753 146.611 149.693 146.807 149.584 146.979C149.477 147.151 149.327 147.293 149.148 147.388C146.148 149.227 130.595 142.792 128.084 141.689C127.226 144.876 120.309 169.635 119.145 173.802C119.132 173.845 119.11 173.882 119.08 173.916C119.05 173.949 119.014 173.976 118.973 173.993C118.932 174.01 118.888 174.018 118.844 174.017C118.8 174.017 118.755 174.006 118.716 173.985C118.645 173.958 118.587 173.905 118.553 173.837C118.52 173.769 118.512 173.691 118.533 173.617C119.818 169.205 127.534 141.504 127.595 141.198L127.718 141.015H128.024C132.985 143.16 146.394 148.308 148.843 146.837C148.935 146.791 149.012 146.721 149.066 146.635C149.119 146.548 149.149 146.448 149.149 146.346C149.455 143.22 138.128 134.702 133.72 131.7C133.597 131.638 133.597 131.455 133.658 131.332C133.72 131.209 133.841 131.087 133.964 131.147C152.272 136.112 156.068 134.825 156.742 133.599C157.415 132.374 154.904 129.739 153.925 128.942C153.878 128.895 153.841 128.836 153.819 128.773C153.797 128.708 153.792 128.64 153.802 128.574C153.827 128.516 153.87 128.465 153.925 128.434C153.98 128.4 154.043 128.385 154.108 128.389C161.577 128.574 163.415 127.471 163.721 126.429C164.027 125.387 160.047 121.772 158.393 120.792C158.32 120.751 158.267 120.683 158.243 120.602C158.219 120.522 158.231 120.435 158.27 120.362C158.311 120.288 158.379 120.234 158.459 120.212C158.54 120.189 158.626 120.198 158.699 120.239C160.719 121.098 166.353 123.058 167.883 121.834C168.25 121.587 168.312 121.158 168.189 120.545C167.271 115.459 156.862 105.408 132.981 99.9544C122.389 97.5644 112.041 100.505 102.305 108.657C94.5299 115.215 87.0588 125.142 80.1398 138.196C68.3835 160.441 62.2609 184.342 62.1994 184.587C62.1742 184.647 62.1316 184.696 62.0764 184.729C62.0212 184.762 61.9581 184.776 61.8934 184.772H61.8997Z" fill="#553597"/>
<path d="M157.601 126.796H157.418C156.316 125.999 155.765 125.081 155.827 124.1C155.888 123.12 157.235 121.219 157.97 120.607L135.805 110.188C135.762 110.176 135.723 110.153 135.691 110.124C135.658 110.094 135.631 110.057 135.614 110.016C135.597 109.975 135.589 109.932 135.589 109.887C135.589 109.843 135.601 109.8 135.62 109.76C135.674 109.702 135.742 109.659 135.817 109.639C135.893 109.617 135.973 109.617 136.049 109.637L158.704 120.239C158.827 120.301 158.887 120.362 158.887 120.484C158.882 120.597 158.839 120.706 158.764 120.792C158.702 120.792 156.437 122.323 156.437 124.039C156.437 125.755 156.866 125.571 157.784 126.246C158.702 126.92 157.907 126.49 157.846 126.673L157.601 126.796Z" fill="#553597"/>
<path d="M154.111 129.003H153.988L130.66 120.852C130.619 120.847 130.581 120.833 130.546 120.809C130.513 120.787 130.486 120.755 130.467 120.719C130.448 120.681 130.441 120.642 130.442 120.601C130.442 120.56 130.455 120.52 130.475 120.484C130.48 120.444 130.494 120.405 130.518 120.372C130.541 120.339 130.573 120.312 130.609 120.293C130.646 120.274 130.687 120.266 130.728 120.268C130.769 120.269 130.808 120.28 130.843 120.301L154.232 128.451C154.355 128.512 154.477 128.697 154.417 128.819C154.382 128.869 154.336 128.913 154.284 128.945C154.231 128.977 154.172 128.996 154.111 129.003Z" fill="#553597"/>
<path d="M133.906 131.761H133.783L127.905 129.677C127.853 129.638 127.815 129.584 127.796 129.523C127.777 129.461 127.777 129.396 127.797 129.335C127.818 129.273 127.857 129.221 127.909 129.183C127.961 129.145 128.024 129.125 128.089 129.125L134.029 131.147C134.104 131.187 134.164 131.251 134.198 131.329C134.231 131.408 134.237 131.494 134.213 131.576C134.188 131.635 134.145 131.685 134.09 131.718C134.035 131.752 133.972 131.766 133.907 131.761H133.906Z" fill="#553597"/>
<path d="M155.764 88.6785C173.585 88.6785 188.033 74.2187 188.033 56.3823C188.033 38.5459 173.586 24.0861 155.764 24.0861C137.942 24.0861 123.497 38.5459 123.497 56.3823C123.497 74.2187 137.944 88.6785 155.764 88.6785Z" fill="#A78ED7"/>
<path d="M155.764 83.1014C170.339 83.1014 182.153 71.2762 182.153 56.6886C182.153 42.1009 170.339 30.2758 155.764 30.2758C141.189 30.2758 129.375 42.1009 129.375 56.6886C129.375 71.2762 141.189 83.1014 155.764 83.1014Z" fill="white"/>
<path d="M155.764 83.4692C150.469 83.4818 145.29 81.9206 140.882 78.986C136.473 76.0498 133.033 71.8729 130.999 66.9793C128.964 62.0873 128.425 56.6996 129.452 51.5013C130.477 46.303 133.021 41.5247 136.76 37.7724C140.5 34.0201 145.268 31.4644 150.46 30.4257C155.652 29.387 161.035 29.9142 165.927 31.9395C170.819 33.9649 175.002 37.3967 177.945 41.8025C180.888 46.2083 182.459 51.3877 182.459 56.687C182.459 63.7795 179.648 70.5816 174.643 75.6031C169.637 80.6246 162.848 83.4518 155.762 83.4692H155.764ZM155.764 30.582C150.587 30.5693 145.525 32.0958 141.216 34.9672C136.907 37.8371 133.546 41.9241 131.56 46.7087C129.575 51.4934 129.051 56.7596 130.057 61.841C131.064 66.9225 133.556 71.5919 137.216 75.2542C140.877 78.9181 145.54 81.4107 150.617 82.4194C155.694 83.4265 160.956 82.904 165.736 80.915C170.517 78.926 174.598 75.5636 177.467 71.2509C180.336 66.9383 181.86 61.871 181.849 56.6901C181.833 49.7712 179.079 43.1396 174.191 38.2475C169.304 33.3555 162.678 30.5993 155.765 30.5835L155.764 30.582Z" fill="#553597"/>
<path d="M155.764 62.1409C143.211 62.1409 132.863 56.6869 132.742 56.6254C132.704 56.597 132.673 56.5607 132.652 56.518C132.632 56.4754 132.621 56.4281 132.621 56.3807C132.625 56.267 132.668 56.1597 132.744 56.0745C132.867 56.0745 143.214 50.6205 155.766 50.6205C168.317 50.6205 178.605 56.0745 178.726 56.0745C178.8 56.1597 178.844 56.267 178.849 56.3807C178.849 56.4281 178.838 56.4754 178.816 56.518C178.796 56.5607 178.764 56.597 178.726 56.6254C178.603 56.6869 168.255 62.1409 155.766 62.1409H155.764ZM133.598 56.3807C135.863 57.4841 144.987 61.5284 155.764 61.5284C166.541 61.5284 175.602 57.4841 177.868 56.3807C175.603 55.2773 166.479 51.2329 155.764 51.2329C145.049 51.2329 135.865 55.2773 133.598 56.3807Z" fill="#553597"/>
<path d="M156.499 61.8347C159.508 61.8347 161.948 59.3926 161.948 56.3807C161.948 53.3687 159.508 50.9267 156.499 50.9267C153.49 50.9267 151.05 53.3687 151.05 56.3807C151.05 59.3926 153.49 61.8347 156.499 61.8347Z" fill="#553597"/>
<path d="M175.971 48.843C175.908 48.8477 175.843 48.8335 175.788 48.8003C175.733 48.7672 175.69 48.7183 175.665 48.6599C173.611 43.3669 169.545 39.1031 164.358 36.8063C159.171 34.5079 153.283 34.3642 147.989 36.4037C147.949 36.4322 147.905 36.4527 147.856 36.4606C147.809 36.4685 147.76 36.4653 147.713 36.4511C147.667 36.4369 147.624 36.4116 147.59 36.3769C147.555 36.3422 147.528 36.3011 147.514 36.2554C147.5 36.2096 147.495 36.1606 147.501 36.1117C147.509 36.0643 147.527 36.0186 147.555 35.9791C147.583 35.9396 147.621 35.9081 147.664 35.886C147.706 35.8639 147.755 35.8528 147.803 35.8528C150.493 34.7904 153.367 34.2742 156.259 34.3374C159.15 34.4005 162 35.0398 164.642 36.2191C169.981 38.5822 174.163 42.9675 176.275 48.4152C176.299 48.4973 176.294 48.5841 176.26 48.663C176.226 48.7419 176.166 48.8051 176.091 48.8445H175.968L175.971 48.843Z" fill="#553597"/>
<path d="M164.582 114.356C164.582 114.356 160.48 117.666 164.582 120.484V114.356Z" fill="white"/>
<path d="M164.582 120.792H164.399C163.175 119.871 162.501 118.891 162.501 117.788C162.501 116.684 164.339 114.173 164.399 114.111C164.463 114.062 164.545 114.042 164.626 114.053C164.706 114.064 164.779 114.108 164.828 114.173C164.864 114.198 164.892 114.234 164.91 114.275C164.927 114.316 164.933 114.36 164.927 114.405C164.921 114.449 164.904 114.491 164.875 114.525C164.847 114.559 164.81 114.586 164.768 114.6C164.768 114.6 163.053 116.072 163.115 117.726C163.176 119.382 163.665 119.503 164.768 120.239C164.833 120.288 164.875 120.361 164.888 120.441C164.899 120.522 164.878 120.604 164.829 120.668C164.768 120.792 164.706 120.792 164.585 120.792H164.582Z" fill="#553597"/>
<path d="M153.438 134.273H153.255C151.99 133.416 151.378 132.497 151.417 131.515C151.54 129.799 153.867 128.697 153.99 128.636C154.065 128.615 154.146 128.615 154.222 128.636C154.297 128.658 154.365 128.7 154.419 128.757C154.438 128.798 154.449 128.841 154.45 128.885C154.45 128.929 154.444 128.974 154.425 129.015C154.406 129.056 154.381 129.092 154.348 129.122C154.315 129.152 154.275 129.174 154.234 129.187C154.234 129.187 152.152 130.228 152.029 131.577C151.906 132.925 152.518 132.986 153.621 133.722C153.685 133.771 153.728 133.843 153.74 133.924C153.752 134.004 153.731 134.087 153.682 134.151C153.621 134.273 153.559 134.273 153.438 134.273Z" fill="#553597"/>
<path d="M143.763 145.304C143.697 145.291 143.634 145.261 143.58 145.218C143.526 145.176 143.484 145.122 143.457 145.059C143.457 144.753 143.028 142.178 144.254 141.383C145.477 140.585 145.723 141.076 146.824 141.75C146.856 141.774 146.884 141.804 146.905 141.839C146.925 141.873 146.938 141.911 146.944 141.951C146.95 141.992 146.947 142.031 146.938 142.071C146.928 142.11 146.911 142.147 146.886 142.178C146.838 142.243 146.769 142.29 146.692 142.312C146.615 142.334 146.533 142.331 146.457 142.301C145.906 141.933 145.048 141.566 144.559 141.872C144.069 142.178 143.948 144.262 144.069 144.936C144.093 144.977 144.104 145.021 144.104 145.069C144.104 145.114 144.088 145.158 144.063 145.198C144.037 145.236 144.001 145.266 143.959 145.285C143.916 145.304 143.87 145.31 143.825 145.304H143.763Z" fill="#553597"/>
<path d="M52.9603 165.589C40.5306 165.589 39.4281 162.771 39.3666 162.586C39.3051 162.403 39.4281 162.28 39.6111 162.218C39.6458 162.198 39.6868 162.187 39.7262 162.185C39.7656 162.184 39.8082 162.193 39.8445 162.21C39.8808 162.229 39.9123 162.256 39.936 162.289C39.9596 162.322 39.9738 162.362 39.9785 162.403C39.9785 162.465 42.2434 166.938 68.3283 163.934C68.4087 163.934 68.4876 163.967 68.5444 164.024C68.6011 164.083 68.6343 164.16 68.6343 164.24C68.6958 164.425 68.5728 164.547 68.3898 164.547C63.2703 165.178 58.1192 165.527 52.9603 165.589Z" fill="#553597"/>
<path d="M51.7365 171.78C43.3475 171.78 40.1032 170.37 38.7563 169.328C38.3116 169.03 38.0024 168.566 37.8983 168.04C37.8368 167.919 37.9598 167.734 38.1428 167.734C38.3257 167.734 38.4488 167.796 38.5103 167.98C38.5718 168.163 39.7342 173.188 65.8191 170.186C65.9074 170.184 65.9926 170.216 66.0588 170.271C66.1266 170.328 66.1708 170.405 66.1866 170.492C66.1866 170.574 66.1535 170.651 66.0967 170.71C66.0399 170.766 65.961 170.798 65.8806 170.798C61.1885 171.39 56.4664 171.718 51.7365 171.78Z" fill="#553597"/>
<path d="M133.048 99.6466L143.334 98.36L142.538 102.037L133.048 99.6466Z" fill="#553597"/>
<path d="M130.292 90.1481L143.702 93.8246L143.825 89.2893C143.825 89.2893 132.742 90.8206 130.292 90.1465V90.1481Z" fill="#553597"/>
<path d="M114.066 94.9897C114.066 94.9897 115.107 98.9125 119.21 99.5249L114.066 94.9897Z" fill="white"/>
<path d="M119.211 99.8312C117.951 99.6165 116.773 99.0562 115.811 98.2116C114.849 97.3671 114.139 96.2731 113.762 95.0497C113.701 94.8666 113.824 94.7435 114.007 94.6819C114.191 94.6203 114.313 94.7435 114.374 94.8666C114.688 95.9858 115.317 96.9898 116.186 97.7617C117.055 98.5336 118.126 99.0388 119.273 99.2188C119.456 99.2803 119.579 99.4019 119.517 99.5866C119.503 99.656 119.465 99.7192 119.408 99.7649C119.352 99.8091 119.282 99.8328 119.211 99.8312Z" fill="#553597"/>
<path d="M109.598 69.1278C107.89 69.2241 106.209 68.6763 104.884 67.595C104.242 67.0046 103.734 66.2832 103.397 65.4797C103.059 64.6762 102.898 63.808 102.925 62.9366C102.916 62.0794 103.091 61.2302 103.439 60.4472C103.788 59.6642 104.302 58.9665 104.946 58.4013C105.987 57.4826 107.884 56.5007 111.068 56.9917C111.139 57.0248 111.199 57.0769 111.242 57.1416C111.284 57.2064 111.31 57.2821 111.313 57.3595C111.313 57.5442 111.13 57.6042 110.945 57.6042C108.619 57.2363 106.658 57.6657 105.312 58.8291C104.753 59.3627 104.308 60.002 104.002 60.7108C103.696 61.4196 103.536 62.182 103.531 62.954C103.525 63.7259 103.674 64.4899 103.969 65.2034C104.264 65.917 104.7 66.5626 105.25 67.1041C106.597 68.269 108.556 68.7584 110.944 68.4522C111.127 68.4522 111.311 68.5753 111.311 68.6968C111.311 68.8184 111.188 69.0647 111.067 69.0647L109.597 69.1262L109.598 69.1278Z" fill="#553597"/>
<path d="M107.7 65.3281C107.622 65.3155 107.551 65.2792 107.496 65.2255C107.441 65.1703 107.405 65.0992 107.394 65.0219V61.5901C107.394 61.508 107.427 61.4306 107.483 61.3738C107.54 61.317 107.619 61.2838 107.7 61.2838C107.78 61.2838 107.859 61.317 107.916 61.3738C107.972 61.4306 108.005 61.5096 108.005 61.5901V65.0219C108.005 65.1024 107.974 65.1813 107.916 65.2382C107.859 65.295 107.78 65.3281 107.7 65.3281Z" fill="#553597"/>
<path d="M120.129 79.7295C120.129 79.7295 123.803 85.2451 129.313 83.1614L120.129 79.7295Z" fill="white"/>
<path d="M126.802 83.8971C122.577 83.8971 119.944 79.9743 119.883 79.9128C119.821 79.8512 119.821 79.5449 120.006 79.4834C120.071 79.4344 120.153 79.4139 120.233 79.425C120.314 79.436 120.386 79.4802 120.435 79.5449C120.558 79.7896 123.987 84.8774 129.191 82.8537C129.231 82.8347 129.275 82.8237 129.319 82.8221C129.363 82.8205 129.408 82.83 129.449 82.8473C129.49 82.8647 129.526 82.8915 129.556 82.9247C129.586 82.9578 129.608 82.9973 129.62 83.0399C129.641 83.0747 129.652 83.1141 129.654 83.1552C129.654 83.1962 129.646 83.2357 129.628 83.2736C129.609 83.3099 129.583 83.3414 129.549 83.3651C129.516 83.3888 129.477 83.403 129.438 83.4077C128.6 83.7424 127.706 83.9097 126.805 83.8987L126.802 83.8971Z" fill="#553597"/>
<path d="M230.954 191.574H208.053C195.808 191.574 185.828 184.097 185.828 174.904V158.236H230.954V191.574Z" fill="#422779"/>
<path d="M279.692 166.877H259.548C248.71 166.877 239.894 159.401 239.894 150.207V133.539H279.692V166.877Z" fill="#422779"/>
<path d="M289.061 104.428V154.13C289.061 155.052 288.999 155.973 288.876 156.887C288.717 157.921 288.493 158.946 288.203 159.951C284.897 170.921 268.732 168.654 268.548 157.194V151.555C268.548 148.256 267.239 145.092 264.908 142.759C262.577 140.426 259.416 139.114 256.12 139.114C252.823 139.114 249.661 140.426 247.33 142.759C244.999 145.092 243.69 148.256 243.69 151.555V157.194L243.384 179.133C243.384 182.432 242.073 185.597 239.742 187.93C237.411 190.263 234.251 191.574 230.954 191.574C227.495 191.574 224.177 190.199 221.732 187.75C219.286 185.302 217.913 181.982 217.913 178.52V172.331C217.954 169.505 216.962 166.763 215.124 164.618C213.285 162.472 210.729 161.075 207.932 160.687H204.686C201.601 160.687 198.643 161.914 196.46 164.097C194.279 166.282 193.053 169.243 193.053 172.331C193.053 175.418 192.441 178.514 191.254 181.384C190.066 184.254 188.325 186.862 186.131 189.057C183.935 191.255 181.33 192.998 178.463 194.186C175.595 195.375 172.521 195.986 169.418 195.986H105.372L122.21 168.163C123.569 165.882 125.496 163.993 127.804 162.682C130.111 161.372 132.72 160.684 135.374 160.687H164.274V152.535C164.29 148.971 165.717 145.558 168.241 143.042C170.766 140.527 174.182 139.114 177.745 139.114H210.747V104.428H289.061Z" fill="#6F46BE"/>
<path d="M207.809 161.361L138.62 161.176C138.54 161.176 138.461 161.145 138.404 161.088C138.347 161.03 138.314 160.952 138.314 160.87C138.314 160.788 138.346 160.711 138.404 160.654C138.462 160.597 138.54 160.564 138.62 160.564L207.809 160.749C207.891 160.749 207.968 160.78 208.027 160.839C208.085 160.897 208.115 160.973 208.115 161.055C208.104 161.132 208.068 161.203 208.013 161.257C207.957 161.312 207.886 161.348 207.809 161.361Z" fill="#553597"/>
<path d="M256.12 139.728L201.319 139.422C201.237 139.422 201.16 139.389 201.103 139.332C201.046 139.275 201.013 139.196 201.013 139.114C201.013 139.032 201.045 138.956 201.103 138.898C201.161 138.84 201.237 138.808 201.319 138.808L256.12 139.114C256.2 139.114 256.279 139.147 256.336 139.204C256.393 139.263 256.426 139.34 256.426 139.422C256.426 139.504 256.393 139.58 256.336 139.638C256.279 139.695 256.2 139.728 256.12 139.728Z" fill="#553597"/>
<path d="M114.006 240.478H58.0418C57.9614 240.478 57.8825 240.447 57.8257 240.388C57.769 240.331 57.7358 240.254 57.7358 240.172C57.7358 240.09 57.7674 240.012 57.8257 239.956C57.8825 239.897 57.9614 239.866 58.0418 239.866H114.005C114.085 239.866 114.164 239.897 114.221 239.956C114.278 240.012 114.311 240.091 114.311 240.172C114.311 240.252 114.278 240.331 114.221 240.388C114.164 240.447 114.085 240.478 114.005 240.478H114.006Z" fill="#553597"/>
<path d="M288.449 115.459H211.484C211.402 115.459 211.325 115.428 211.266 115.369C211.208 115.311 211.178 115.234 211.178 115.153C211.178 115.073 211.21 114.994 211.266 114.937C211.323 114.88 211.402 114.847 211.484 114.847H288.449C288.531 114.847 288.608 114.878 288.665 114.937C288.723 114.994 288.755 115.071 288.755 115.153C288.755 115.235 288.723 115.312 288.665 115.369C288.608 115.428 288.531 115.459 288.449 115.459Z" fill="#553597"/>
<path d="M274.795 124.53H215.463C215.383 124.53 215.304 124.497 215.247 124.44C215.19 124.383 215.157 124.304 215.157 124.223C215.157 124.143 215.189 124.064 215.247 124.006C215.304 123.949 215.383 123.916 215.463 123.916H274.795C274.875 123.916 274.954 123.949 275.011 124.006C275.068 124.064 275.101 124.141 275.101 124.223C275.101 124.305 275.068 124.381 275.011 124.44C274.954 124.497 274.875 124.53 274.795 124.53Z" fill="#553597"/>
<path d="M247.731 131.638H233.281C233.2 131.638 233.121 131.607 233.065 131.548C233.006 131.491 232.975 131.412 232.975 131.332C232.975 131.251 233.006 131.172 233.065 131.116C233.121 131.057 233.2 131.026 233.281 131.026H247.731C247.813 131.026 247.89 131.057 247.947 131.116C248.005 131.172 248.037 131.25 248.037 131.332C248.037 131.414 248.005 131.491 247.947 131.548C247.89 131.607 247.813 131.638 247.731 131.638Z" fill="#553597"/>
<path d="M235.118 149.227H174.01C173.928 149.227 173.851 149.195 173.794 149.137C173.737 149.08 173.704 149.001 173.704 148.92C173.704 148.84 173.737 148.761 173.794 148.704C173.851 148.646 173.93 148.614 174.01 148.614H235.118C235.195 148.627 235.266 148.661 235.321 148.717C235.375 148.772 235.411 148.843 235.424 148.92C235.424 149.001 235.391 149.08 235.334 149.137C235.277 149.195 235.198 149.227 235.118 149.227Z" fill="#553597"/>
<path d="M193.482 155.723C193.4 155.723 193.323 155.691 193.266 155.633C193.208 155.576 193.176 155.498 193.176 155.416C193.176 155.334 193.208 155.257 193.266 155.2C193.323 155.142 193.4 155.11 193.482 155.11L235.118 154.987C235.195 155 235.266 155.036 235.32 155.091C235.375 155.146 235.411 155.217 235.424 155.293C235.424 155.375 235.391 155.453 235.334 155.511C235.277 155.568 235.198 155.601 235.118 155.601L193.482 155.723Z" fill="#553597"/>
<path d="M155.764 175.947H123.803C123.721 175.947 123.643 175.914 123.586 175.857C123.53 175.799 123.497 175.722 123.497 175.641C123.497 175.561 123.528 175.482 123.586 175.423C123.643 175.366 123.722 175.333 123.803 175.333H155.764C155.844 175.333 155.923 175.366 155.98 175.423C156.037 175.482 156.07 175.559 156.07 175.641C156.07 175.723 156.038 175.799 155.98 175.857C155.923 175.914 155.844 175.947 155.764 175.947Z" fill="#553597"/>
<path d="M154.478 183.668H121.721C121.64 183.668 121.561 183.637 121.504 183.578C121.448 183.521 121.415 183.442 121.415 183.362C121.415 183.281 121.446 183.202 121.504 183.146C121.561 183.087 121.64 183.056 121.721 183.056H154.478C154.56 183.056 154.638 183.087 154.695 183.146C154.751 183.202 154.784 183.28 154.784 183.362C154.784 183.444 154.751 183.521 154.695 183.578C154.638 183.637 154.559 183.668 154.478 183.668Z" fill="#553597"/>
<path d="M170.643 175.212H161.765V184.066H170.643V175.212Z" fill="white"/>
<path d="M170.581 184.404H161.765C161.683 184.404 161.606 184.371 161.549 184.314C161.492 184.257 161.459 184.178 161.459 184.098V175.212C161.459 175.13 161.491 175.052 161.549 174.994C161.606 174.937 161.685 174.906 161.765 174.906H170.581C170.663 174.906 170.741 174.937 170.797 174.994C170.854 175.052 170.887 175.13 170.887 175.212V184.098C170.887 184.178 170.856 184.257 170.797 184.314C170.739 184.371 170.662 184.404 170.581 184.404ZM162.071 183.791H170.275V175.518H162.071V183.791Z" fill="#553597"/>
<path d="M166.173 145.305C166.091 145.305 166.014 145.272 165.957 145.216C165.9 145.157 165.867 145.08 165.867 144.998V139.114C165.867 139.034 165.9 138.956 165.957 138.898C166.014 138.841 166.093 138.808 166.173 138.808C166.254 138.808 166.332 138.841 166.389 138.898C166.446 138.956 166.479 139.034 166.479 139.114V144.998C166.479 145.08 166.448 145.157 166.389 145.216C166.332 145.272 166.254 145.305 166.173 145.305Z" fill="#553597"/>
<path d="M234.077 112.824C234.03 112.824 233.982 112.813 233.94 112.791C233.897 112.771 233.861 112.739 233.831 112.701C233.776 112.644 233.744 112.567 233.744 112.487C233.744 112.406 233.776 112.33 233.831 112.272L239.832 106.45C239.89 106.406 239.965 106.384 240.037 106.39C240.111 106.395 240.181 106.426 240.233 106.478C240.285 106.531 240.316 106.6 240.321 106.673C240.326 106.747 240.305 106.819 240.261 106.878L234.26 112.7L234.077 112.823V112.824Z" fill="#553597"/>
<path d="M240.077 112.824L239.832 112.701L233.831 106.88C233.787 106.821 233.766 106.747 233.771 106.674C233.776 106.6 233.807 106.532 233.859 106.48C233.913 106.428 233.981 106.396 234.055 106.392C234.129 106.387 234.202 106.408 234.26 106.452L240.261 112.274C240.316 112.332 240.348 112.408 240.348 112.488C240.348 112.569 240.316 112.646 240.261 112.703L240.077 112.826V112.824Z" fill="#553597"/>
<path d="M228.811 106.205H222.505V112.518H228.811V106.205Z" fill="white"/>
<path d="M215.096 112.457C216.821 112.457 218.219 111.056 218.219 109.331C218.219 107.606 216.821 106.205 215.096 106.205C213.37 106.205 211.973 107.604 211.973 109.331C211.973 111.058 213.372 112.457 215.096 112.457Z" fill="#6F46BE"/>
<path d="M83.5752 175.518C84.5499 175.518 85.4836 175.905 86.1728 176.594C86.8621 177.284 87.2485 178.219 87.2485 179.194V212.471H79.9004V179.133C79.9162 178.168 80.3105 177.25 80.9981 176.572C81.6858 175.897 82.61 175.518 83.5752 175.518Z" fill="#6F46BE"/>
<path d="M86.5749 199.602C85.9471 199.587 85.3478 199.329 84.903 198.884C84.4583 198.44 84.2012 197.841 84.187 197.212V183.974C84.2028 183.346 84.4599 182.746 84.903 182.301C85.3478 181.857 85.9456 181.6 86.5749 181.584C86.8887 181.584 87.1994 181.646 87.488 181.766C87.7767 181.886 88.0416 182.063 88.2624 182.285C88.4848 182.506 88.6599 182.77 88.7797 183.06C88.8996 183.349 88.9611 183.66 88.9611 183.974V197.212C88.9611 197.526 88.8996 197.836 88.7797 198.126C88.6599 198.417 88.4832 198.68 88.2624 198.901C88.0401 199.124 87.7782 199.299 87.488 199.421C87.1978 199.541 86.8871 199.602 86.5749 199.602ZM86.5749 182.197C86.1033 182.197 85.6522 182.385 85.3194 182.718C84.9866 183.051 84.799 183.504 84.799 183.974V197.212C84.799 197.683 84.9866 198.136 85.3194 198.469C85.6522 198.802 86.1049 198.99 86.5749 198.99C87.0449 198.99 87.4975 198.802 87.8303 198.469C88.1631 198.136 88.3508 197.683 88.3508 197.212V183.974C88.3508 183.504 88.1631 183.051 87.8303 182.718C87.4975 182.385 87.0449 182.197 86.5749 182.197Z" fill="#553597"/>
<path d="M84.3099 189.06H79.9017C79.8212 189.06 79.7424 189.029 79.6856 188.972C79.6288 188.914 79.5957 188.836 79.5957 188.754C79.5957 188.672 79.6288 188.596 79.6856 188.538C79.7424 188.481 79.8212 188.448 79.9017 188.448H84.3099C84.3903 188.448 84.4692 188.481 84.526 188.538C84.5827 188.596 84.6159 188.674 84.6159 188.754C84.6159 188.835 84.5843 188.914 84.526 188.972C84.4692 189.029 84.3903 189.06 84.3099 189.06Z" fill="#553597"/>
<path d="M90.248 194.699L96.9226 185.69L100.29 197.274L95.2697 219.826L85.4739 217.987L90.2496 194.699H90.248Z" fill="white"/>
<path d="M95.2696 220.132H95.2081L85.4107 218.294L85.2277 218.171C85.1788 218.099 85.1567 218.012 85.1662 217.927L89.9419 194.638V194.516L96.6165 185.507C96.678 185.384 96.801 185.384 96.9225 185.384C97.0439 185.384 97.107 185.507 97.1669 185.569L100.534 197.151V197.334L95.5141 219.887C95.503 219.949 95.4731 220.004 95.4289 220.048C95.3847 220.091 95.3295 220.121 95.268 220.132H95.2696ZM85.8397 217.742L95.0236 219.458L99.9838 197.274L96.7995 186.364L90.4923 194.822L85.8381 217.742H85.8397Z" fill="#553597"/>
<path d="M70.2273 201.992L76.3499 222.154L86.5747 219.03L81.1871 198.622L72.8596 190.593L70.2273 201.992Z" fill="white"/>
<path d="M76.35 222.46H76.167C76.1055 222.46 76.044 222.4 76.044 222.277L69.9214 202.175V201.992L72.5537 190.593C72.6026 190.484 72.6893 190.398 72.7982 190.349C72.8549 190.344 72.9133 190.352 72.9653 190.374C73.019 190.394 73.0663 190.428 73.1041 190.47L81.4316 198.499C81.4316 198.56 81.4931 198.56 81.4931 198.622L86.8808 219.028C86.9423 219.151 86.8193 219.336 86.6962 219.396L76.4099 222.46H76.3484H76.35ZM70.5333 201.992L76.5329 221.786L86.2073 218.845L80.9411 198.805L73.0426 191.206L70.5318 201.992H70.5333Z" fill="#553597"/>
<path d="M92.3314 219.581H92.2699C92.1468 219.581 92.0254 219.396 92.0254 219.213L97.1071 196.477C97.1007 196.431 97.1071 196.383 97.126 196.342C97.1449 196.3 97.1749 196.264 97.2127 196.238C97.2506 196.213 97.2963 196.199 97.3421 196.197C97.3878 196.196 97.4335 196.208 97.473 196.232C97.514 196.238 97.5518 196.254 97.5865 196.276C97.6212 196.3 97.6512 196.328 97.6733 196.363C97.6969 196.398 97.7111 196.436 97.719 196.477C97.7269 196.518 97.7253 196.559 97.7174 196.6L92.6358 219.336C92.6358 219.519 92.5127 219.581 92.3298 219.581H92.3314Z" fill="#553597"/>
<path d="M88.2276 219.03H88.1661C88.0904 219.003 88.0257 218.953 87.9816 218.886C87.9374 218.82 87.9153 218.741 87.9201 218.662L92.5743 195.618C92.6358 195.435 92.7573 195.312 92.9418 195.373C93.1247 195.435 93.1863 195.558 93.1863 195.741L88.5336 218.784C88.5336 218.907 88.3491 219.03 88.2276 219.03Z" fill="#553597"/>
<path d="M83.5747 220.255C83.3917 220.255 83.2687 220.193 83.2687 220.07L77.2676 199.847C77.2581 199.807 77.2581 199.765 77.266 199.725C77.2739 199.684 77.2896 199.645 77.3117 199.612C77.3354 199.577 77.3638 199.547 77.3985 199.525C77.4332 199.503 77.471 199.487 77.512 199.479C77.5467 199.459 77.5877 199.447 77.6272 199.446C77.6666 199.444 77.7076 199.454 77.7454 199.471C77.7817 199.49 77.8133 199.517 77.8369 199.55C77.8606 199.583 77.8748 199.623 77.8795 199.664L83.8192 219.887C83.8397 219.922 83.8507 219.963 83.8523 220.002C83.8523 220.043 83.8444 220.084 83.827 220.121C83.8081 220.157 83.7813 220.188 83.7482 220.212C83.7151 220.236 83.6756 220.25 83.6362 220.255H83.5747Z" fill="#553597"/>
<path d="M79.9001 221.358C79.837 221.363 79.7724 221.349 79.7172 221.316C79.662 221.283 79.6194 221.234 79.5941 221.174L73.9005 201.38C73.839 201.195 73.9005 201.012 74.0835 201.012C74.1182 200.991 74.1592 200.979 74.1986 200.977C74.2396 200.977 74.2806 200.985 74.3169 201.004C74.3532 201.021 74.3847 201.05 74.4084 201.083C74.432 201.116 74.4462 201.156 74.451 201.195L80.2061 220.99C80.2155 221.03 80.2155 221.073 80.2077 221.112C80.1998 221.153 80.184 221.193 80.1619 221.226C80.1398 221.26 80.1099 221.29 80.0752 221.313C80.0405 221.335 80.0026 221.35 79.9616 221.358H79.9001Z" fill="#553597"/>
<path d="M102.25 212.411H68.6975V239.804H102.25V212.411Z" fill="#A78ED7"/>
<path d="M93.9229 189.735L98.3311 190.593L96.9226 185.69L93.9229 189.735Z" fill="#553597"/>
<path d="M71.6357 197.274L77.4524 195.435L73.0442 191.206L71.6357 197.274Z" fill="#6F46BE"/>
<path d="M70.2271 202.299C70.1641 202.303 70.0994 202.289 70.0442 202.256C69.989 202.223 69.9464 202.174 69.9212 202.115C69.8975 202.033 69.9022 201.945 69.9369 201.868C69.9701 201.789 70.03 201.726 70.1057 201.686L81.127 198.376C81.1617 198.355 81.2027 198.344 81.2421 198.343C81.2831 198.341 81.3242 198.351 81.3604 198.368C81.3967 198.387 81.4283 198.414 81.4519 198.447C81.4756 198.482 81.4898 198.519 81.4945 198.56C81.515 198.633 81.5071 198.712 81.474 198.78C81.4409 198.848 81.3825 198.9 81.3115 198.928L70.2902 202.299H70.2287H70.2271Z" fill="#553597"/>
<path d="M100.291 197.58H100.23L90.1263 195.005C90.0554 194.979 89.997 194.925 89.9639 194.857C89.9308 194.789 89.9229 194.712 89.9434 194.638C89.9434 194.454 90.1263 194.393 90.3109 194.393L100.353 196.966C100.394 196.974 100.432 196.99 100.466 197.012C100.501 197.034 100.531 197.064 100.553 197.099C100.575 197.133 100.591 197.171 100.599 197.212C100.607 197.252 100.605 197.294 100.597 197.334C100.569 197.397 100.526 197.451 100.474 197.493C100.421 197.536 100.359 197.566 100.291 197.58Z" fill="#553597"/>
</g>
<defs>
<clipPath id="clip0_68_5030">
<rect width="329" height="252" fill="white"/>
</clipPath>
</defs>
</svg>
