<svg width="296" height="222" viewBox="0 0 296 222" fill="none" xmlns="http://www.w3.org/2000/svg">
<mask id="mask0_477_38869" style="mask-type:luminance" maskUnits="userSpaceOnUse" x="202" y="120" width="86" height="86">
<path d="M287.49 120.62H202.39V205.72H287.49V120.62Z" fill="white"/>
</mask>
<g mask="url(#mask0_477_38869)">
<path d="M244.94 205.691C268.439 205.691 287.49 186.664 287.49 163.194C287.49 139.724 268.439 120.697 244.94 120.697C221.44 120.697 202.39 139.724 202.39 163.194C202.39 186.664 221.44 205.691 244.94 205.691Z" fill="#EDE3FF"/>
</g>
<mask id="mask1_477_38869" style="mask-type:luminance" maskUnits="userSpaceOnUse" x="8" y="107" width="183" height="99">
<path d="M190.735 107.115H8.50977V205.72H190.735V107.115Z" fill="white"/>
</mask>
<g mask="url(#mask1_477_38869)">
<path d="M189.736 191.016C197.132 171.614 162.784 140.396 113.017 121.289C63.2508 102.183 16.9117 102.423 9.51605 121.825C2.12038 141.227 36.4687 172.445 86.2352 191.551C136.002 210.658 182.341 210.418 189.736 191.016Z" fill="#EDE3FF"/>
</g>
<mask id="mask2_477_38869" style="mask-type:luminance" maskUnits="userSpaceOnUse" x="212" y="117" width="68" height="66">
<path d="M279.35 117.66H212.565V182.41H279.35V117.66Z" fill="white"/>
</mask>
<g mask="url(#mask2_477_38869)">
<path d="M273.826 156.326L260.927 175.469C259.837 177.087 258.177 178.23 256.28 178.67L256.015 178.732L277.538 118.22C278.651 119.817 279.122 121.776 278.858 123.707L274.704 154.024C274.591 154.849 274.291 155.636 273.826 156.326Z" fill="#EDE3FF"/>
<path d="M256.015 179.154C255.896 179.154 255.781 179.104 255.7 179.013C255.598 178.897 255.567 178.735 255.618 178.59L277.142 118.078C277.194 117.93 277.326 117.823 277.482 117.802C277.641 117.781 277.793 117.849 277.883 117.978C279.061 119.667 279.555 121.722 279.275 123.765L275.121 154.082C275.001 154.966 274.674 155.824 274.176 156.562L261.276 175.705C260.123 177.418 258.382 178.617 256.375 179.082L256.109 179.144C256.078 179.151 256.046 179.154 256.015 179.154ZM277.64 119.19L256.677 178.126C258.268 177.64 259.64 176.625 260.579 175.232L273.478 156.089C273.904 155.457 274.184 154.723 274.288 153.967L278.442 123.65C278.653 122.103 278.37 120.548 277.64 119.19Z" fill="#553597"/>
<path d="M217.119 181.987H251.863C253.842 181.987 255.601 181.436 255.867 179.007C253.513 179.007 212.986 179.007 212.986 179.007C212.986 179.007 213.6 181.987 217.119 181.987Z" fill="#EDE3FF"/>
<path d="M251.864 182.41H217.119C213.302 182.41 212.581 179.126 212.574 179.093C212.548 178.969 212.58 178.839 212.66 178.741C212.74 178.642 212.86 178.585 212.986 178.585H255.868C255.987 178.585 256.101 178.636 256.181 178.725C256.261 178.815 256.299 178.934 256.286 179.054C255.919 182.41 252.867 182.41 251.864 182.41ZM213.573 179.43C213.91 180.199 214.831 181.565 217.119 181.565H251.864C253.968 181.565 255.046 180.921 255.374 179.43H213.573Z" fill="#553597"/>
<path d="M212.987 179.008H255.868L262.741 141.04H226.896L212.987 179.008Z" fill="white"/>
<path d="M255.869 179.43H212.987C212.85 179.43 212.721 179.363 212.642 179.249C212.563 179.136 212.545 178.991 212.592 178.862L226.502 140.894C226.563 140.728 226.72 140.617 226.896 140.617H262.741C262.866 140.617 262.984 140.673 263.064 140.769C263.144 140.865 263.178 140.992 263.155 141.115L256.283 179.083C256.246 179.284 256.072 179.43 255.869 179.43ZM213.59 178.585H255.517L262.236 141.463H227.19L213.59 178.585Z" fill="#553597"/>
<path d="M272.636 154.285L255.868 179.008L262.74 141.04L277.639 118.083L272.636 154.285Z" fill="#553597"/>
<path d="M255.868 179.43C255.815 179.43 255.761 179.42 255.709 179.399C255.524 179.323 255.419 179.129 255.454 178.932L262.326 140.964C262.336 140.909 262.357 140.856 262.387 140.809L277.286 117.852C277.393 117.686 277.602 117.618 277.786 117.687C277.971 117.756 278.083 117.945 278.056 118.141L273.053 154.342C273.044 154.407 273.021 154.468 272.984 154.522L256.216 179.245C256.136 179.364 256.004 179.43 255.868 179.43ZM263.139 141.199L256.637 177.123L272.233 154.128L276.963 119.899L263.139 141.199Z" fill="#553597"/>
<path d="M246.395 169.948L249.219 169.945C249.674 169.945 249.975 170.253 249.893 170.635L249.377 173.035C249.293 173.425 248.851 173.742 248.391 173.742H245.527C245.068 173.742 244.768 173.425 244.859 173.036L245.415 170.639C245.503 170.257 245.942 169.949 246.395 169.948ZM237.976 170.645L237.353 173.038C237.252 173.426 237.541 173.742 237.999 173.742H240.851C241.31 173.742 241.758 173.426 241.853 173.037L242.436 170.641C242.528 170.26 242.237 169.953 241.785 169.953L238.972 169.956C238.52 169.956 238.075 170.264 237.976 170.645ZM230.566 170.651L229.878 173.039C229.767 173.427 230.045 173.742 230.501 173.742H233.342C233.798 173.742 234.254 173.426 234.36 173.038L235.008 170.647C235.111 170.267 234.829 169.96 234.378 169.961L231.577 169.964C231.129 169.964 230.676 170.271 230.566 170.651ZM223.187 170.657L222.435 173.041C222.313 173.428 222.581 173.742 223.035 173.742H225.864C226.318 173.742 226.781 173.427 226.897 173.04L227.611 170.653C227.725 170.274 227.453 169.968 227.004 169.968L224.215 169.971C223.767 169.972 223.307 170.279 223.187 170.657ZM246.652 165.304L246.118 167.606C246.032 167.979 246.326 168.283 246.777 168.282L249.583 168.278C250.034 168.277 250.466 167.973 250.546 167.598L251.042 165.293C251.12 164.927 250.823 164.632 250.378 164.633L247.61 164.639C247.166 164.641 246.737 164.938 246.652 165.304ZM239.36 165.321L238.762 167.618C238.666 167.991 238.95 168.294 239.399 168.293L242.194 168.289C242.643 168.288 243.082 167.984 243.172 167.611L243.732 165.311C243.82 164.945 243.533 164.651 243.09 164.652L240.333 164.658C239.89 164.659 239.455 164.955 239.36 165.321ZM232.096 165.338L231.436 167.631C231.329 168.003 231.604 168.305 232.051 168.304L234.835 168.3C235.282 168.299 235.728 167.996 235.829 167.624L236.451 165.328C236.55 164.963 236.272 164.669 235.831 164.67L233.085 164.677C232.644 164.677 232.201 164.973 232.096 165.338ZM224.862 165.354L224.139 167.643C224.022 168.014 224.287 168.316 224.732 168.315L227.505 168.311C227.951 168.31 228.403 168.008 228.514 167.636L229.199 165.345C229.308 164.98 229.04 164.687 228.6 164.688L225.865 164.694C225.426 164.696 224.977 164.991 224.862 165.354ZM247.841 160.18L247.328 162.392C247.245 162.75 247.535 163.041 247.977 163.04L250.728 163.032C251.17 163.031 251.592 162.737 251.669 162.378L252.145 160.164C252.221 159.812 251.929 159.528 251.492 159.53L248.778 159.541C248.342 159.542 247.923 159.828 247.841 160.18ZM240.69 160.207L240.116 162.414C240.023 162.772 240.304 163.062 240.743 163.061L243.484 163.053C243.925 163.052 244.353 162.759 244.44 162.401L244.978 160.191C245.063 159.839 244.78 159.556 244.345 159.558L241.641 159.568C241.207 159.57 240.781 159.855 240.69 160.207ZM233.566 160.233L232.932 162.436C232.829 162.794 233.1 163.083 233.539 163.082L236.268 163.074C236.707 163.073 237.142 162.781 237.239 162.423L237.837 160.217C237.932 159.866 237.658 159.584 237.225 159.586L234.532 159.596C234.099 159.598 233.667 159.882 233.566 160.233ZM226.471 160.259L225.776 162.458C225.664 162.816 225.926 163.104 226.362 163.103L229.081 163.095C229.518 163.094 229.96 162.802 230.066 162.445L230.725 160.243C230.83 159.893 230.564 159.611 230.133 159.613L227.45 159.623C227.02 159.626 226.581 159.91 226.471 160.259ZM248.984 155.254L248.49 157.38C248.41 157.726 248.696 158.004 249.129 158.002L251.828 157.991C252.262 157.989 252.674 157.707 252.748 157.361L253.206 155.232C253.279 154.894 252.99 154.621 252.562 154.624L249.9 154.637C249.472 154.64 249.062 154.916 248.984 155.254ZM241.968 155.29L241.416 157.413C241.327 157.757 241.604 158.035 242.035 158.033L244.723 158.021C245.155 158.02 245.574 157.738 245.657 157.393L246.174 155.268C246.256 154.93 245.977 154.658 245.551 154.661L242.898 154.675C242.472 154.677 242.056 154.952 241.968 155.29ZM234.98 155.325L234.37 157.444C234.271 157.788 234.538 158.066 234.968 158.064L237.646 158.053C238.076 158.051 238.501 157.77 238.594 157.426L239.17 155.304C239.261 154.967 238.991 154.696 238.566 154.698L235.923 154.712C235.499 154.714 235.077 154.988 234.98 155.325ZM228.018 155.36L227.35 157.475C227.242 157.819 227.501 158.096 227.929 158.094L230.596 158.083C231.025 158.081 231.456 157.8 231.558 157.456L232.192 155.339C232.292 155.002 232.031 154.731 231.607 154.734L228.975 154.748C228.553 154.75 228.124 155.024 228.018 155.36ZM250.083 150.515L249.608 152.561C249.531 152.894 249.813 153.161 250.238 153.159L252.885 153.144C253.31 153.142 253.714 152.87 253.785 152.537L254.226 150.489C254.296 150.163 254.012 149.902 253.592 149.905L250.979 149.922C250.559 149.924 250.158 150.189 250.083 150.515ZM243.198 150.559L242.667 152.602C242.581 152.933 242.854 153.201 243.277 153.198L245.914 153.183C246.338 153.181 246.748 152.91 246.828 152.578L247.325 150.533C247.404 150.208 247.129 149.947 246.71 149.949L244.107 149.966C243.69 149.969 243.283 150.234 243.198 150.559ZM236.339 150.603L235.752 152.642C235.657 152.973 235.921 153.24 236.343 153.237L238.97 153.223C239.393 153.22 239.808 152.949 239.898 152.618L240.452 150.577C240.54 150.252 240.273 149.991 239.856 149.994L237.263 150.011C236.846 150.014 236.433 150.279 236.339 150.603ZM229.507 150.647L228.864 152.682C228.759 153.012 229.015 153.279 229.435 153.276L232.053 153.262C232.474 153.259 232.895 152.989 232.994 152.658L233.603 150.62C233.7 150.296 233.442 150.036 233.027 150.039L230.443 150.056C230.028 150.058 229.609 150.323 229.507 150.647ZM251.141 145.953L250.684 147.923C250.61 148.243 250.888 148.5 251.305 148.497L253.903 148.479C254.321 148.476 254.715 148.214 254.784 147.894L255.208 145.921C255.276 145.607 254.996 145.356 254.584 145.359L252.018 145.379C251.606 145.383 251.214 145.639 251.141 145.953ZM244.382 146.004L243.871 147.971C243.788 148.29 244.057 148.547 244.473 148.544L247.061 148.527C247.478 148.524 247.878 148.262 247.956 147.943L248.435 145.973C248.511 145.66 248.24 145.409 247.829 145.412L245.273 145.432C244.862 145.436 244.464 145.692 244.382 146.004ZM237.649 146.056L237.084 148.02C236.992 148.338 237.253 148.595 237.667 148.592L240.245 148.574C240.66 148.571 241.067 148.31 241.153 147.991L241.686 146.025C241.771 145.712 241.508 145.462 241.098 145.465L238.552 145.485C238.143 145.488 237.739 145.743 237.649 146.056ZM230.94 146.107L230.321 148.068C230.22 148.386 230.473 148.642 230.885 148.639L233.454 148.621C233.867 148.618 234.28 148.358 234.375 148.039L234.962 146.077C235.055 145.764 234.8 145.514 234.392 145.517L231.856 145.537C231.449 145.54 231.038 145.795 230.94 146.107Z" fill="#EDE3FF"/>
</g>
<mask id="mask3_477_38869" style="mask-type:luminance" maskUnits="userSpaceOnUse" x="52" y="131" width="129" height="59">
<path d="M180.93 131.35H52.54V189.995H180.93V131.35Z" fill="white"/>
</mask>
<g mask="url(#mask3_477_38869)">
<path d="M180.236 185.121C183.471 176.611 157.664 158.768 122.595 145.267C87.5254 131.766 56.4741 127.719 53.2395 136.228C50.0049 144.738 75.812 162.581 110.881 176.082C145.95 189.583 177.002 193.63 180.236 185.121Z" fill="#553597"/>
<path d="M167.331 189.993C164.448 189.993 161.142 189.754 157.441 189.272C144.31 187.562 127.72 183.017 110.729 176.477C93.7372 169.936 78.3695 162.179 67.4554 154.634C56.3913 146.985 51.2015 140.395 52.8422 136.078C54.4833 131.761 62.7177 130.338 76.0301 132.072C89.1617 133.783 105.751 138.327 122.743 144.868C139.734 151.409 155.102 159.166 166.016 166.711C177.08 174.36 182.27 180.95 180.629 185.267C179.444 188.384 174.82 189.993 167.331 189.993ZM66.1334 132.204C59.0918 132.204 54.6746 133.635 53.6309 136.381C52.165 140.239 57.378 146.636 67.9333 153.933C78.7943 161.441 94.0999 169.166 111.031 175.683C127.961 182.201 144.482 186.728 157.55 188.43C170.249 190.084 178.374 188.821 179.841 184.964C181.306 181.107 176.093 174.709 165.538 167.412C154.677 159.904 139.372 152.179 122.441 145.662C105.51 139.144 88.989 134.618 75.9215 132.915C72.2631 132.439 68.9825 132.204 66.1334 132.204Z" fill="#553597"/>
</g>
<mask id="mask4_477_38869" style="mask-type:luminance" maskUnits="userSpaceOnUse" x="38" y="26" width="207" height="164">
<path d="M244.755 26.085H38.1104V189.995H244.755V26.085Z" fill="white"/>
</mask>
<g mask="url(#mask4_477_38869)">
<path d="M207.314 116.971C207.314 116.971 208.984 113.994 209.174 111.94C209.365 109.887 210.926 110.174 211.045 111.743C211.164 113.312 210.711 115.438 210.711 115.438" fill="#EDE3FF"/>
<path d="M207.314 117.395C207.244 117.395 207.173 117.377 207.108 117.341C206.905 117.226 206.833 116.968 206.947 116.764C206.963 116.735 208.574 113.84 208.754 111.902C208.88 110.543 209.54 110.06 210.12 110.06C210.123 110.06 210.126 110.06 210.129 110.06C210.731 110.065 211.384 110.634 211.466 111.711C211.588 113.323 211.143 115.438 211.124 115.528C211.075 115.756 210.851 115.9 210.623 115.853C210.395 115.804 210.25 115.579 210.298 115.351C210.302 115.33 210.737 113.264 210.624 111.776C210.579 111.186 210.297 110.909 210.121 110.907H210.12C209.948 110.907 209.667 111.192 209.594 111.981C209.397 114.099 207.751 117.055 207.681 117.18C207.605 117.317 207.462 117.395 207.314 117.395Z" fill="#553597"/>
<path d="M225.755 113.611C222.121 113.608 217.129 115.927 217.129 115.927C217.129 115.927 218.91 113.168 223.794 110.941C225.728 110.06 225.02 108.598 222.928 109.27C219.67 110.317 215.899 113.619 215.461 114.214C215.461 114.214 217.535 110.394 220.649 107.854C221.921 106.816 221.357 105.158 219.357 106.694C214.598 110.349 210.043 115.815 199.221 122.826C198.967 122.991 198.632 123.202 198.229 123.451L205.636 130.584C207.195 128.786 208.057 127.714 208.073 127.702C210.685 125.042 216.066 119.383 224.152 119.805C226.249 120.102 226.574 118.609 225.012 118.159C221.985 117.287 218.617 117.978 218.617 117.978C218.617 117.978 220.392 116.014 225.865 115.527C227.743 115.361 227.736 113.614 225.755 113.611Z" fill="#EDE3FF"/>
<path d="M205.636 131.007C205.527 131.007 205.423 130.965 205.344 130.89L197.937 123.757C197.843 123.666 197.796 123.536 197.81 123.406C197.824 123.276 197.897 123.159 198.008 123.091C198.407 122.844 198.74 122.635 198.993 122.471C206.257 117.765 210.694 113.75 214.26 110.524C216.017 108.934 217.536 107.561 219.101 106.359C220.668 105.155 221.361 105.79 221.537 106.013C221.984 106.581 221.711 107.534 220.915 108.183C219.55 109.297 218.382 110.674 217.511 111.85C219.018 110.709 220.999 109.447 222.8 108.868C224.198 108.418 225.056 108.821 225.286 109.419C225.483 109.933 225.257 110.74 223.968 111.327C221.365 112.514 219.66 113.863 218.654 114.833C220.456 114.138 223.357 113.189 225.746 113.189C225.749 113.189 225.752 113.189 225.755 113.189C227.045 113.19 227.651 113.839 227.679 114.482C227.706 115.11 227.162 115.838 225.903 115.95C223.199 116.19 221.426 116.802 220.344 117.336C221.627 117.246 223.42 117.26 225.13 117.752C226.16 118.049 226.506 118.728 226.391 119.269C226.27 119.843 225.593 120.437 224.093 120.225C216.388 119.829 211.08 125.24 208.528 127.843L208.38 127.993C208.363 128.014 208.324 128.061 208.263 128.135C207.964 128.498 207.169 129.462 205.954 130.862C205.878 130.949 205.77 131.002 205.655 131.007C205.649 131.007 205.642 131.007 205.636 131.007ZM198.914 123.523L205.608 129.971C206.652 128.76 207.34 127.926 207.612 127.596C207.726 127.457 207.762 127.414 207.788 127.389L207.926 127.249C210.564 124.558 216.06 118.958 224.173 119.383C225.149 119.519 225.534 119.24 225.565 119.092C225.592 118.966 225.398 118.711 224.896 118.566C222.002 117.732 218.734 118.387 218.701 118.393C218.523 118.431 218.34 118.347 218.25 118.189C218.16 118.03 218.182 117.83 218.304 117.694C218.381 117.609 220.255 115.602 225.828 115.106C226.538 115.043 226.844 114.725 226.835 114.519C226.825 114.285 226.443 114.036 225.754 114.035C225.751 114.035 225.748 114.035 225.746 114.035C222.246 114.035 217.354 116.289 217.305 116.312C217.136 116.391 216.933 116.348 216.81 116.205C216.686 116.063 216.672 115.856 216.774 115.697C216.85 115.58 218.679 112.807 223.619 110.555C224.34 110.227 224.547 109.851 224.498 109.723C224.436 109.564 223.952 109.386 223.057 109.673C219.872 110.697 216.186 113.941 215.8 114.466C215.668 114.644 215.421 114.691 215.234 114.571C215.047 114.451 214.984 114.207 215.09 114.011C215.176 113.852 217.24 110.088 220.383 107.525C220.882 107.117 220.969 106.658 220.874 106.536C220.812 106.457 220.398 106.428 219.613 107.031C218.075 108.212 216.568 109.575 214.824 111.153C211.236 114.399 206.771 118.439 199.45 123.182C199.299 123.28 199.119 123.395 198.914 123.523Z" fill="#553597"/>
<path d="M243.187 149.747C239.857 148.013 239.704 144.843 237.314 143.007C237.314 143.007 239.527 143.654 241.303 143.808C242.764 143.934 243.366 142.478 241.181 141.947C237.332 141.01 236.257 139.766 230.211 137.539C225.574 135.83 218.492 137.137 218.492 137.137C218.492 137.137 217.319 137.353 216.662 137.495C213.906 138.089 211.2 138.609 208.54 138.987L210.515 150.057C213.163 148.771 215.841 147.281 218.544 145.567L218.544 145.592C218.544 145.592 218.82 145.397 219.252 145.108C219.598 144.885 219.943 144.668 220.29 144.437C220.302 144.429 220.313 144.42 220.325 144.412C221.45 143.704 222.876 142.881 223.898 142.553C226.584 141.691 228.469 147.225 229.676 150.387C230.883 153.55 232.609 151.998 232.488 150.607C232.366 149.217 232.322 149.562 231.577 146.359C234.59 148.896 237.577 150.963 241.807 151.905C244.446 152.491 245.204 150.732 243.187 149.747Z" fill="#EDE3FF"/>
<path d="M231.33 152.663C230.771 152.663 229.954 152.299 229.282 150.538L229.045 149.913C227.966 147.054 226.162 142.269 224.026 142.955C223.234 143.209 222.031 143.837 220.549 144.77C220.29 144.944 220.057 145.093 219.825 145.241L219.48 145.463C219.06 145.744 218.788 145.936 218.786 145.938C218.742 145.969 218.694 145.99 218.644 146.003C216.026 147.656 213.354 149.148 210.698 150.437C210.579 150.495 210.44 150.493 210.322 150.434C210.205 150.373 210.122 150.261 210.099 150.131L208.124 139.061C208.104 138.947 208.13 138.831 208.198 138.737C208.265 138.644 208.366 138.583 208.48 138.566C210.873 138.227 213.444 137.755 216.572 137.08C217.229 136.939 218.367 136.728 218.415 136.72C218.709 136.665 225.664 135.412 230.355 137.14C233.135 138.164 234.89 138.992 236.301 139.656C238.001 140.457 239.23 141.036 241.28 141.534C242.709 141.881 243.117 142.623 243.024 143.201C242.914 143.875 242.179 144.309 241.266 144.229C240.412 144.155 239.471 143.973 238.708 143.799C239.186 144.394 239.569 145.039 239.944 145.671C240.751 147.029 241.586 148.434 243.377 149.368C244.66 149.997 244.887 150.877 244.691 151.441C244.462 152.099 243.545 152.724 241.715 152.316C237.947 151.478 235.141 149.782 232.278 147.483C232.393 147.955 232.483 148.305 232.554 148.583C232.774 149.442 232.827 149.646 232.907 150.569C232.99 151.522 232.415 152.446 231.625 152.629C231.538 152.649 231.439 152.663 231.33 152.663ZM224.463 142.036C226.976 142.036 228.677 146.545 229.834 149.613L230.07 150.235C230.557 151.512 231.094 151.885 231.436 151.805C231.805 151.719 232.111 151.155 232.067 150.644C231.992 149.79 231.953 149.638 231.738 148.795C231.614 148.313 231.436 147.616 231.165 146.454C231.124 146.277 231.2 146.092 231.355 145.997C231.51 145.901 231.708 145.916 231.847 146.033C234.968 148.661 237.872 150.594 241.898 151.49C243.171 151.772 243.798 151.439 243.894 151.162C243.98 150.915 243.738 150.487 243.003 150.127C242.999 150.126 242.996 150.124 242.993 150.123C240.985 149.077 240.088 147.566 239.22 146.106C238.602 145.065 238.018 144.082 237.057 143.343C236.896 143.219 236.845 142.997 236.937 142.815C237.029 142.634 237.237 142.543 237.431 142.6C237.453 142.607 239.627 143.237 241.34 143.386C241.854 143.43 242.165 143.228 242.192 143.065C242.219 142.902 241.941 142.566 241.082 142.358C238.95 141.839 237.623 141.214 235.944 140.423C234.548 139.765 232.81 138.947 230.066 137.936C225.588 136.286 218.638 137.54 218.569 137.553C218.567 137.553 217.403 137.767 216.75 137.908C213.789 138.547 211.323 139.006 209.033 139.343L210.832 149.43C213.336 148.191 215.852 146.772 218.319 145.208C218.352 145.188 218.387 145.171 218.423 145.16C218.545 145.076 218.752 144.933 219.018 144.755L219.371 144.528C219.599 144.382 219.827 144.236 220.056 144.083C220.059 144.081 220.098 144.055 220.101 144.052C221.665 143.068 222.899 142.428 223.769 142.148C224.007 142.072 224.238 142.036 224.463 142.036Z" fill="#553597"/>
<path d="M214.901 137.864C193.726 142.197 173.742 141.278 157.693 102.699L129.056 128.175C138.076 143.022 174.609 172.689 217.66 146.109C213.913 144.822 214.484 139.91 214.901 137.864Z" fill="white"/>
<path d="M182.556 157.22C177.796 157.22 173.028 156.646 168.257 155.495C146.85 150.332 133.018 135.511 128.696 128.395C128.589 128.221 128.623 127.994 128.776 127.858L157.413 102.383C157.515 102.293 157.653 102.256 157.788 102.287C157.92 102.318 158.03 102.411 158.082 102.537C174.54 142.099 195.133 141.477 214.816 137.45C214.956 137.422 215.099 137.465 215.199 137.565C215.299 137.666 215.342 137.81 215.313 137.95C214.918 139.89 214.367 144.531 217.796 145.709C217.951 145.762 218.061 145.9 218.08 146.062C218.098 146.225 218.02 146.384 217.881 146.47C206.291 153.626 194.457 157.22 182.556 157.22ZM129.602 128.255C134.062 135.376 147.615 149.645 168.455 154.672C184.695 158.589 200.939 155.729 216.75 146.17C213.839 144.579 214.01 140.625 214.373 138.403C205.04 140.271 194.232 141.448 184.197 136.757C173.62 131.813 164.894 120.902 157.532 103.408L129.602 128.255Z" fill="#553597"/>
<path d="M111.287 176.134C134.706 185.123 156.325 189.901 169.06 189.554C170.049 142.638 161.723 69.5002 124.102 76.7747C84.9432 92.5998 85.2647 156.975 85.0195 164.406C92.8141 168.453 101.703 172.455 111.287 176.134Z" fill="white"/>
<path d="M95.4641 107.598C89.9703 129.489 96.9185 137.759 90.7782 147.812C89.4947 149.914 89.7209 155.001 91.4246 159.325C93.2558 163.974 96.9185 167.217 104.244 173.162C92.6098 168.082 85.0186 164.406 85.0186 164.406C85.0186 164.406 84.9608 130.462 95.4641 107.598Z" fill="#EDE3FF"/>
<path d="M125.682 81.2743C118.572 80.6256 108.876 86.7874 99.7197 99.003C100.786 96.8627 102.179 94.7097 103.728 92.6676C108.592 86.2514 114.987 80.9275 117.602 80.5177C121.049 79.9774 125.682 81.2743 125.682 81.2743Z" fill="#EDE3FF"/>
<path d="M101.469 112.47C100.794 112.47 100.114 112.407 99.4357 112.279C97.5598 111.925 95.8143 111.088 94.3878 109.857C94.2114 109.704 94.1912 109.437 94.3435 109.26C94.4954 109.082 94.7616 109.063 94.9384 109.215C96.2519 110.349 97.8611 111.12 99.5914 111.447C102.136 111.926 104.705 111.42 106.826 110.023C108.943 108.629 110.361 106.514 110.819 104.067C111.717 99.2701 108.588 94.5191 103.694 93.251C103.468 93.1926 103.333 92.9614 103.391 92.7353C103.449 92.5088 103.679 92.3728 103.905 92.4313C109.226 93.8103 112.628 98.9902 111.648 104.223C111.147 106.899 109.6 109.21 107.289 110.732C105.551 111.876 103.537 112.47 101.469 112.47Z" fill="#EDE3FF"/>
<path d="M121.804 77.7074C126.944 74.6504 131.253 76.7246 142.588 86.3914C142.763 83.4457 142.323 80.8795 140.436 79.0919C138.549 77.3039 130.466 71.6273 121.804 77.7074Z" fill="#EDE3FF"/>
<path d="M119.152 179.451C119.141 179.451 119.13 179.451 119.119 179.45C118.887 179.432 118.713 179.228 118.731 178.995C118.95 176.129 118.044 173.349 116.18 171.167C114.315 168.985 111.716 167.661 108.86 167.441C105.286 167.166 101.831 168.689 99.6095 171.516C99.4657 171.7 99.2007 171.732 99.0172 171.586C98.8341 171.442 98.8028 171.175 98.9471 170.992C101.342 167.943 105.076 166.301 108.924 166.597C112.005 166.835 114.809 168.262 116.82 170.616C118.832 172.97 119.808 175.969 119.572 179.06C119.555 179.282 119.37 179.451 119.152 179.451Z" fill="#EDE3FF"/>
<path d="M161.554 113.435C165.755 123.489 169.148 133.38 171.411 137.758C174.832 144.38 179.328 147.163 184.822 150.568C190.316 153.974 197.103 148.947 210.515 150.056C194.841 156.244 183.045 158.676 167.694 155.271C167.371 147.65 164.301 120.894 161.554 113.435Z" fill="#553597"/>
<path d="M167.746 189.994C154.427 189.994 132.944 184.899 111.136 176.529C101.759 172.93 92.9073 168.978 84.8254 164.781C84.6811 164.707 84.592 164.555 84.5979 164.392C84.6081 164.071 84.6178 163.643 84.6296 163.117C85.6586 117.014 99.6209 86.2109 123.945 76.3812C123.97 76.371 123.996 76.3634 124.023 76.3583C133.289 74.5673 141.364 77.5049 148.029 85.0881C153.794 91.6466 158.525 101.703 162.09 114.977C169.592 142.905 169.759 176.44 169.483 189.562C169.478 189.788 169.297 189.971 169.072 189.977C168.64 189.989 168.197 189.994 167.746 189.994ZM111.438 175.738C133.659 184.267 155.52 189.376 168.647 189.139C168.91 175.781 168.673 142.737 161.275 115.198C157.744 102.05 153.074 92.1085 147.396 85.6486C140.951 78.3162 133.155 75.4675 124.222 77.1823C91.8833 90.2832 86.0641 136.654 85.4726 163.136C85.4637 163.531 85.4565 163.87 85.4485 164.151C93.4393 168.288 102.182 172.186 111.438 175.738Z" fill="#553597"/>
<path d="M96.5283 115.313C96.5178 126.042 101.018 141.701 108.622 154.063C112.291 160.028 116.684 165.226 121.642 168.73C154.292 191.809 202.705 134.569 208.073 127.702C208.388 127.381 208.744 127.016 209.139 126.624C207.664 122.862 204.745 121.269 202.537 120.593C201.499 121.319 200.4 122.063 199.221 122.826C194.834 125.669 167.344 141.795 155.56 140.468C148.167 139.635 144.318 129.748 140.224 115.38" fill="white"/>
<path d="M147.765 172.829C142.067 172.829 137.433 168.177 137.433 162.46C137.433 156.743 142.067 152.091 147.765 152.091C153.463 152.091 158.098 156.743 158.098 162.46C158.098 168.177 153.463 172.829 147.765 172.829ZM147.765 152.938C142.533 152.938 138.276 157.21 138.276 162.46C138.276 167.71 142.533 171.982 147.765 171.982C152.997 171.982 157.254 167.71 157.254 162.46C157.254 157.21 152.997 152.938 147.765 152.938Z" fill="#EDE3FF"/>
<path d="M138.755 103.946C138.018 103.946 137.26 103.849 136.493 103.655C134.012 103.026 131.728 101.44 130.062 99.1891C128.395 96.9383 127.541 94.2856 127.658 91.7202C127.776 89.1227 128.871 86.9239 130.742 85.5292C132.613 84.1345 135.026 83.7171 137.539 84.3539C140.02 84.9826 142.304 86.5687 143.97 88.8199C145.637 91.0707 146.491 93.7238 146.374 96.2888C146.256 98.8863 145.161 101.085 143.29 102.48C141.991 103.449 140.429 103.946 138.755 103.946ZM135.281 84.9111C133.785 84.9111 132.396 85.3514 131.245 86.2092C129.582 87.4494 128.607 89.4203 128.501 91.7588C128.393 94.1298 129.188 96.5894 130.739 98.684C132.29 100.779 134.407 102.253 136.7 102.834C138.961 103.407 141.124 103.039 142.787 101.8C144.451 100.56 145.426 98.5887 145.532 96.2502C145.639 93.8792 144.844 91.4196 143.293 89.3246C141.742 87.2296 139.626 85.7562 137.332 85.1748C136.635 84.9983 135.948 84.9111 135.281 84.9111Z" fill="#EDE3FF"/>
<path d="M242.883 150.089C242.852 150.089 242.821 150.085 242.789 150.078C239.21 149.265 235.403 146.378 235.242 146.255C235.057 146.114 235.021 145.849 235.162 145.662C235.304 145.476 235.568 145.44 235.753 145.582C235.791 145.611 239.577 148.48 242.975 149.252C243.202 149.304 243.345 149.531 243.294 149.759C243.249 149.955 243.075 150.089 242.883 150.089Z" fill="#553597"/>
<path d="M236.51 144.5C236.51 144.5 238.745 145.633 240.243 146.994L236.51 144.5Z" fill="#EDE3FF"/>
<path d="M240.242 147.417C240.142 147.417 240.04 147.381 239.959 147.307C238.523 146.002 236.341 144.889 236.319 144.878C236.111 144.773 236.028 144.518 236.133 144.309C236.238 144.101 236.493 144.017 236.7 144.122C236.794 144.17 239.003 145.297 240.526 146.68C240.699 146.837 240.712 147.105 240.555 147.278C240.472 147.37 240.358 147.417 240.242 147.417Z" fill="#553597"/>
<path d="M180.055 156.182C179.95 156.182 179.846 156.143 179.764 156.065C177.753 154.146 176.645 151.555 176.645 148.77C176.645 143.22 181.144 138.705 186.674 138.705C189.825 138.705 192.731 140.147 194.647 142.662C194.788 142.848 194.753 143.113 194.567 143.256C194.382 143.398 194.118 143.362 193.976 143.177C192.221 140.873 189.56 139.552 186.674 139.552C181.608 139.552 177.488 143.687 177.488 148.77C177.488 151.321 178.503 153.693 180.345 155.452C180.514 155.613 180.521 155.881 180.36 156.051C180.278 156.138 180.166 156.182 180.055 156.182Z" fill="#EDE3FF"/>
<path d="M146.041 133.056C147.633 148.16 150.462 145.363 154.356 143.357C157.58 141.697 157.435 144.824 160.202 144.856C162.153 144.879 163.956 142.447 165.698 141.501C167.439 140.555 168.513 142.778 172.48 139.558C174.247 138.123 177.105 137.314 178.604 137.155C180.104 136.996 182.154 135.554 183.72 134.18C186.398 131.83 200.557 122.283 200.557 122.283C200.557 122.283 180.45 133.983 171.227 136.919C165.822 138.64 152.828 145.38 146.041 133.056Z" fill="#EDE3FF"/>
<path d="M107.401 152.573C107.275 152.573 107.15 152.517 107.067 152.409C106.924 152.225 106.957 151.959 107.141 151.815C109.568 149.919 110.959 147.063 110.959 143.979C110.959 138.506 106.522 134.053 101.068 134.053C100.618 134.053 100.165 134.083 99.7211 134.144C99.4908 134.176 99.2773 134.013 99.246 133.781C99.2148 133.55 99.3768 133.336 99.6072 133.305C100.089 133.239 100.58 133.206 101.068 133.206C106.987 133.206 111.803 138.039 111.803 143.979C111.803 147.325 110.293 150.425 107.66 152.483C107.582 152.544 107.491 152.573 107.401 152.573Z" fill="#EDE3FF"/>
<path d="M147.334 89.4942C145.959 89.4942 143.47 87.5037 142.353 86.5473C142.254 86.4626 142.2 86.3368 142.205 86.2069C142.297 84.0738 141.721 81.8903 140.446 79.5311C140.355 79.3638 140.387 79.1568 140.523 79.0247C140.66 78.8921 140.866 78.8672 141.03 78.9637C141.232 79.0827 145.988 81.9301 147.91 86.9453C148.217 87.7472 148.549 88.8675 147.883 89.3396C147.733 89.4463 147.547 89.4942 147.334 89.4942ZM143.055 86.0345C145.146 87.798 147.058 88.8641 147.396 88.6486C147.396 88.6486 147.564 88.4035 147.122 87.2497C145.914 84.0958 143.442 81.8026 141.913 80.6154C142.722 82.486 143.098 84.2723 143.055 86.0345Z" fill="#553597"/>
<path d="M142.334 87.8247L142.38 89.2859C142.38 89.2859 143.403 89.8473 144.099 89.4603L145.127 88.2303L142.953 86.5494L142.334 87.8247Z" fill="#553597"/>
<path d="M143.519 90.0204C142.866 90.0204 142.268 89.7059 142.178 89.6572C142.047 89.5852 141.963 89.4489 141.959 89.299L141.912 87.8378C141.91 87.7692 141.924 87.701 141.955 87.6392L142.573 86.3639C142.629 86.2492 142.733 86.1662 142.856 86.137C142.979 86.1078 143.109 86.1361 143.21 86.2136L145.385 87.8945C145.476 87.9652 145.534 88.0698 145.547 88.1846C145.559 88.2993 145.524 88.4141 145.451 88.5021L144.422 89.7321C144.389 89.7719 144.349 89.8054 144.303 89.8303C144.053 89.9696 143.782 90.0204 143.519 90.0204ZM142.794 89.0102C143.079 89.1237 143.526 89.2448 143.834 89.1186L144.521 88.2959L143.106 87.2014L142.76 87.9157L142.794 89.0102Z" fill="#553597"/>
<path d="M158.1 113.516C158.1 113.516 151.183 112.416 148.614 103.098C146.341 94.8522 144.702 90.0961 143.016 87.4452C148.734 91.0505 150.998 96.3464 152.562 100.403C154.127 104.46 154.408 110.328 158.1 113.516Z" fill="#553597"/>
<path d="M147.346 108.566C147.346 108.566 141.331 108.55 142.338 98.9356C142.961 92.9995 143.855 90.122 143.02 87.0905C146.491 91.5713 146.377 95.3358 146.319 98.56C146.241 102.91 146.322 104.579 147.346 108.566Z" fill="#553597"/>
<path d="M213.29 149.028C213.232 149.028 213.174 149.015 213.117 148.99C208.625 146.96 209.969 141.377 209.983 141.321C210.04 141.094 210.267 140.956 210.495 141.014C210.721 141.071 210.858 141.3 210.802 141.527C210.752 141.729 209.619 146.48 213.464 148.218C213.677 148.314 213.771 148.564 213.676 148.777C213.605 148.935 213.451 149.028 213.29 149.028Z" fill="#553597"/>
<path d="M205.824 130.384C205.656 130.384 205.497 130.283 205.431 130.116C204.194 126.966 200.761 124.971 200.726 124.952C200.524 124.835 200.454 124.577 200.569 124.374C200.684 124.171 200.941 124.1 201.145 124.216C201.296 124.303 204.872 126.381 206.216 129.805C206.302 130.023 206.195 130.269 205.978 130.355C205.927 130.375 205.875 130.384 205.824 130.384Z" fill="#553597"/>
<path d="M155.425 121.548C156.141 121.457 156.59 120.341 156.428 119.055C156.267 117.769 155.555 116.799 154.839 116.89C154.123 116.981 153.673 118.097 153.835 119.383C153.997 120.669 154.708 121.638 155.425 121.548Z" fill="#EDE3FF"/>
<path d="M155.338 121.978C154.431 121.978 153.605 120.901 153.421 119.437C153.227 117.896 153.829 116.593 154.791 116.471C155.758 116.352 156.658 117.461 156.852 119.002C156.939 119.695 156.868 120.372 156.652 120.909C156.402 121.528 155.987 121.904 155.482 121.968C155.434 121.975 155.386 121.978 155.338 121.978ZM154.937 117.308C154.923 117.308 154.91 117.309 154.896 117.311C154.482 117.363 154.12 118.239 154.258 119.331C154.395 120.424 154.961 121.177 155.376 121.128C155.561 121.105 155.741 120.909 155.869 120.592C156.03 120.193 156.082 119.652 156.014 119.109C155.882 118.052 155.347 117.308 154.937 117.308Z" fill="#553597"/>
<path d="M157.453 135.558C158.173 135.506 158.68 134.415 158.586 133.122C158.492 131.829 157.832 130.824 157.112 130.876C156.392 130.929 155.885 132.02 155.979 133.313C156.073 134.606 156.733 135.611 157.453 135.558Z" fill="#EDE3FF"/>
<path d="M157.404 135.986C156.929 135.986 156.482 135.701 156.137 135.175C155.819 134.691 155.617 134.042 155.566 133.345C155.453 131.796 156.122 130.527 157.089 130.456C158.068 130.379 158.902 131.543 159.015 133.093C159.128 134.642 158.458 135.912 157.491 135.982C157.463 135.985 157.433 135.986 157.404 135.986ZM157.175 131.299C157.167 131.299 157.159 131.3 157.15 131.3C156.734 131.331 156.328 132.185 156.407 133.284C156.448 133.83 156.605 134.349 156.841 134.709C157.029 134.995 157.25 135.155 157.43 135.138C157.847 135.107 158.253 134.253 158.174 133.154C158.095 132.077 157.587 131.299 157.175 131.299Z" fill="#553597"/>
<path d="M161.654 178.797C162.374 178.745 162.881 177.654 162.787 176.361C162.693 175.068 162.033 174.063 161.313 174.115C160.593 174.168 160.086 175.259 160.18 176.552C160.274 177.845 160.934 178.85 161.654 178.797Z" fill="#EDE3FF"/>
<path d="M161.61 179.227C160.678 179.227 159.878 178.091 159.768 176.587C159.655 175.037 160.325 173.768 161.292 173.697C161.786 173.661 162.28 173.946 162.646 174.505C162.964 174.988 163.166 175.638 163.217 176.334C163.33 177.884 162.661 179.153 161.694 179.224C161.666 179.226 161.637 179.227 161.61 179.227ZM161.376 174.541C161.368 174.541 161.361 174.541 161.353 174.541C160.936 174.572 160.53 175.427 160.609 176.525C160.689 177.623 161.199 178.404 161.632 178.379C162.048 178.348 162.455 177.494 162.375 176.395C162.335 175.849 162.177 175.33 161.942 174.97C161.761 174.696 161.556 174.541 161.376 174.541Z" fill="#553597"/>
<path d="M179.82 155.472C179.82 155.472 170.462 161.705 162.616 162.595C154.77 163.485 156.871 166.429 153.798 167.649C150.724 168.869 144.833 168.354 140.161 166.368C135.489 164.383 129.501 164.961 128.105 166.46C126.709 167.958 126.647 171.385 131.822 173.108C136.997 174.831 146.11 174.136 156.868 169.865C167.626 165.594 174.839 159.548 179.82 155.472Z" fill="#553597"/>
<path d="M139.162 174.353C134.189 174.353 129.514 173.327 125.178 171.275C118.767 168.241 113.001 162.63 108.041 154.597C104.447 148.777 101.409 141.824 99.2535 134.491C98.6029 132.277 98.04 130.049 97.5793 127.868C96.6123 123.288 96.103 118.946 96.1064 115.312C95.9726 109.901 97.5776 105.283 100.75 101.967C103.877 98.6976 108.368 96.8528 113.396 96.772C113.398 96.772 113.401 96.772 113.403 96.772C113.633 96.772 113.821 96.957 113.825 97.1886C113.828 97.4223 113.642 97.615 113.409 97.6188C108.608 97.6963 104.329 99.4483 101.359 102.553C98.3464 105.702 96.8219 110.111 96.9506 115.302C96.9473 118.889 97.4506 123.17 98.4054 127.693C98.8611 129.853 99.4189 132.059 100.063 134.252C102.198 141.513 105.205 148.395 108.759 154.151C113.632 162.043 119.277 167.546 125.539 170.509C139.952 177.33 157.737 172.648 178.401 156.592C193.136 145.143 204.476 131.519 207.6 127.616C207.726 127.459 207.762 127.414 207.79 127.387L207.912 127.264C208.136 127.035 208.38 126.786 208.643 126.523C207.242 123.204 204.64 121.721 202.609 121.059C201.554 121.794 200.519 122.49 199.45 123.182C199.164 123.368 170.849 140.969 157.052 140.97C156.515 140.97 156.003 140.944 155.513 140.888C147.099 139.941 142.765 128.671 139.334 116.632C139.27 116.407 139.4 116.173 139.624 116.109C139.851 116.044 140.082 116.175 140.146 116.4C144.726 132.475 149.206 139.327 155.607 140.047C167.046 141.335 194.134 125.618 198.993 122.471C200.11 121.747 201.191 121.019 202.297 120.245C202.403 120.171 202.537 120.15 202.661 120.188C204.947 120.888 207.994 122.545 209.533 126.469C209.594 126.627 209.557 126.807 209.437 126.926C209.1 127.26 208.792 127.574 208.513 127.858L208.383 127.99C208.364 128.013 208.322 128.066 208.257 128.147C205.119 132.068 193.726 145.755 178.917 157.261C169.716 164.41 160.901 169.385 152.715 172.048C147.991 173.585 143.464 174.353 139.162 174.353Z" fill="#553597"/>
<path d="M139.174 115.786C139.174 115.786 138.361 111.306 139.578 110.841C141.275 110.192 144.83 111.814 143.86 118.3C142.891 124.786 143.941 123.921 145.018 131.705C141.463 126.083 140.252 120.219 139.174 115.786Z" fill="#553597"/>
<path d="M131.391 141.479C125.693 141.479 121.059 136.828 121.059 131.11C121.059 125.393 125.693 120.742 131.391 120.742C137.089 120.742 141.724 125.393 141.724 131.11C141.724 136.828 137.089 141.479 131.391 141.479ZM131.391 121.588C126.159 121.588 121.902 125.86 121.902 131.11C121.902 136.36 126.159 140.632 131.391 140.632C136.623 140.632 140.88 136.36 140.88 131.11C140.88 125.86 136.623 121.588 131.391 121.588Z" fill="#EDE3FF"/>
<path d="M127.431 101.897C125.057 100.097 122.44 98.8173 119.764 98.0514L127.431 101.897Z" fill="white"/>
<path d="M127.431 102.32C127.342 102.32 127.253 102.292 127.177 102.235C124.897 100.506 122.364 99.2357 119.648 98.4583C119.424 98.3944 119.294 98.1598 119.358 97.935C119.422 97.7098 119.657 97.5802 119.879 97.6441C122.696 98.4503 125.321 99.7675 127.685 101.559C127.871 101.7 127.908 101.966 127.767 102.153C127.685 102.262 127.559 102.32 127.431 102.32Z" fill="#553597"/>
<path d="M164.284 54.3401C165.37 51.1963 165.018 48.2183 163.496 47.6886C161.974 47.159 159.86 49.2782 158.773 52.4221C157.687 55.5659 158.039 58.5439 159.561 59.0735C161.083 59.6032 163.197 57.484 164.284 54.3401Z" fill="white"/>
<path d="M160.049 59.5799C159.833 59.5799 159.623 59.5447 159.42 59.4744C158.524 59.1624 157.936 58.2051 157.767 56.779C157.611 55.4606 157.826 53.8643 158.372 52.2846C159.553 48.8686 161.863 46.6733 163.632 47.2897C165.4 47.9054 165.861 51.0635 164.68 54.4795C164.134 56.0593 163.317 57.4463 162.382 58.3846C161.597 59.1704 160.79 59.5799 160.049 59.5799ZM163.007 48.0332C161.85 48.0332 160.158 49.6993 159.169 52.5619C158.664 54.0231 158.464 55.4851 158.605 56.6791C158.732 57.7499 159.129 58.4769 159.696 58.6742C160.264 58.8702 161.024 58.5476 161.784 57.7855C162.632 56.9357 163.377 55.6634 163.882 54.2022C164.976 51.0364 164.492 48.4858 163.355 48.0895C163.246 48.0519 163.129 48.0332 163.007 48.0332Z" fill="#553597"/>
<path d="M123.851 76.4643C123.851 76.4643 133.842 70.3834 136.831 57.006C139.005 47.2783 146.625 61.0088 146.625 61.0088L139.845 81.3377C134.338 78.387 129.775 75.167 123.851 76.4643Z" fill="#EDE3FF"/>
<path d="M140.332 80.4551C140.288 80.4551 140.243 80.4479 140.199 80.4335C139.979 80.3599 139.858 80.1202 139.932 79.8984L146.163 61.062C144.89 59.0064 141.444 54.2918 139.125 54.6491C138.149 54.8007 137.406 55.8999 136.918 57.9165C133.519 71.9684 121.152 78.5058 121.027 78.5701C120.82 78.6768 120.566 78.596 120.459 78.3881C120.352 78.1802 120.433 77.9249 120.641 77.8178C120.762 77.7551 132.792 71.3833 136.099 57.7167C136.674 55.3346 137.65 54.0208 138.997 53.8121C142.355 53.2921 146.522 60.0204 146.986 60.7889C147.05 60.8947 147.065 61.0239 147.026 61.1416L140.733 80.1651C140.674 80.3425 140.509 80.4551 140.332 80.4551Z" fill="#553597"/>
<path d="M142.689 63.7351C143.295 64.4244 144.79 66.289 149.166 67.0592C153.976 67.906 155.406 60.59 157.42 59.161C159.348 58.9506 160.571 57.6224 159.633 55.7103C157.865 52.1038 159.298 51.0088 160.136 48.374C163.351 38.2547 144.661 27.764 136.255 41.1198L134.488 54.6543" fill="#EDE3FF"/>
<path d="M149.944 67.5529C149.671 67.5529 149.388 67.5284 149.092 67.4763C144.72 66.707 143.12 64.8728 142.436 64.0891L142.372 64.015C142.218 63.8397 142.234 63.5721 142.409 63.4171C142.584 63.263 142.85 63.2791 143.005 63.4544L143.071 63.531C143.696 64.247 145.159 65.9241 149.238 66.6418C152.182 67.1604 153.747 64.2851 155.127 61.7481C155.831 60.4546 156.439 59.3376 157.176 58.8147C157.235 58.7732 157.303 58.7474 157.374 58.7394C158.318 58.6365 159.04 58.2474 159.355 57.672C159.621 57.1867 159.586 56.5732 159.254 55.8966C157.801 52.9328 158.417 51.4848 159.13 49.8081C159.336 49.3233 159.549 48.8224 159.733 48.2445C161.275 43.3902 157.497 38.7065 152.968 36.5886C148.222 34.37 141.116 34.273 136.661 41.2668L134.906 54.7081C134.876 54.9397 134.665 55.0998 134.433 55.0731C134.202 55.0426 134.039 54.8301 134.07 54.5981L135.837 41.0636C135.845 41.0026 135.866 40.9442 135.899 40.8925C140.643 33.3538 148.251 33.4482 153.325 35.8205C158.189 38.0946 162.229 43.1806 160.538 48.5011C160.342 49.1175 160.121 49.6375 159.907 50.14C159.224 51.7464 158.73 52.9074 160.013 55.5219C160.592 56.7036 160.378 57.5648 160.096 58.0793C159.661 58.8732 158.75 59.4113 157.584 59.5663C157.032 60.0155 156.467 61.0554 155.869 62.1533C154.546 64.5819 152.928 67.5529 149.944 67.5529Z" fill="#553597"/>
<path d="M143.496 48.9383C143.052 47.4382 141.807 45.0404 138.932 46.7087C136.957 47.8544 137.477 50.8436 138.285 52.8704C139.698 56.4152 143.594 67.2204 121.157 71.5184C98.8287 75.7956 93.0264 102.417 73.4348 101.706C58.1202 101.15 49.3877 96.5864 43.4871 88.3012C34.3803 75.514 37.8852 61.0595 53.52 59.1127C60.3771 58.2587 65.409 58.4649 75.2659 47.9251C80.6653 42.1511 92.5648 43.1508 100.151 44.0336C111.3 45.3309 112.622 41.8137 122.126 34.9529C131.337 28.3046 138.608 25.2235 149.273 27.0073C168.746 30.2641 167.725 42.0161 160.299 44.2969C152.6 46.6621 148.394 41.1053 145.893 48.5534C144.904 51.5016 143.86 50.3571 143.496 48.9383Z" fill="#553597"/>
<path d="M156.309 53.7088C157.433 50.4549 157.068 47.3728 155.493 46.8246C153.919 46.2765 151.73 48.4699 150.606 51.7238C149.481 54.9777 149.846 58.0598 151.421 58.608C152.996 59.1561 155.184 56.9626 156.309 53.7088Z" fill="white"/>
<path d="M151.927 59.1163C151.705 59.1163 151.488 59.0808 151.28 59.0084C150.358 58.6874 149.754 57.7009 149.58 56.2309C149.418 54.8683 149.64 53.2183 150.205 51.5857C150.769 49.9526 151.612 48.5194 152.58 47.5494C153.624 46.5032 154.706 46.1035 155.63 46.4253C157.452 47.0599 157.924 50.3201 156.705 53.8479C156.141 55.481 155.297 56.9142 154.33 57.8838C153.521 58.6942 152.689 59.1163 151.927 59.1163ZM154.989 47.1662C154.454 47.1662 153.815 47.5092 153.176 48.1489C152.298 49.03 151.525 50.3489 151.002 51.8634C150.479 53.378 150.271 54.8933 150.417 56.1314C150.55 57.2453 150.965 58.0024 151.557 58.2086C152.15 58.4143 152.942 58.0782 153.733 57.2851C154.612 56.404 155.384 55.0851 155.908 53.571C157.043 50.2863 156.537 47.6383 155.352 47.2259C155.238 47.1857 155.116 47.1662 154.989 47.1662Z" fill="#553597"/>
<path d="M154.097 53.4224C152.739 53.4224 152.014 52.5099 151.977 52.4625C151.834 52.2779 151.868 52.012 152.052 51.8685C152.236 51.7249 152.499 51.7584 152.642 51.9404C152.677 51.9841 153.42 52.8834 154.844 52.4591C155.068 52.3914 155.302 52.5205 155.369 52.7441C155.435 52.968 155.308 53.2039 155.084 53.2708C154.725 53.3783 154.395 53.4224 154.097 53.4224Z" fill="#553597"/>
<path d="M154.514 53.9127C154.74 53.4265 154.595 52.8789 154.191 52.6897C153.786 52.5005 153.275 52.7413 153.05 53.2275C152.824 53.7138 152.969 54.2613 153.373 54.4505C153.777 54.6397 154.288 54.3989 154.514 53.9127Z" fill="#553597"/>
<path d="M153.145 63.8787C151.671 63.8787 150.413 63.0856 150.339 63.0374C150.143 62.9116 150.086 62.6499 150.211 62.4535C150.336 62.257 150.596 62.199 150.793 62.3243C150.814 62.3379 152.982 63.6953 154.643 62.5979C154.837 62.4687 155.099 62.5233 155.227 62.7185C155.356 62.9137 155.302 63.1767 155.107 63.3049C154.465 63.7292 153.784 63.8787 153.145 63.8787Z" fill="#553597"/>
<path d="M75.0509 48.1953C75.0509 48.1953 68.5875 57.6004 57.9225 58.6813C46.1694 59.8724 43.4877 63.0051 40.6865 66.897C47.7964 61.1675 51.8207 61.9369 59.5385 60.5189C67.1871 59.1136 72.8966 55.0058 75.0509 48.1953Z" fill="#EDE3FF"/>
<path d="M140.062 48.4519C140.062 48.4519 141.274 49.4249 141.84 51.8573L140.062 48.4519Z" fill="#553597"/>
<path d="M141.84 52.2803C141.648 52.2803 141.475 52.1482 141.429 51.953C140.91 49.7153 139.809 48.7898 139.798 48.7809C139.618 48.6331 139.59 48.3672 139.736 48.186C139.883 48.0044 140.146 47.976 140.327 48.1212C140.381 48.1648 141.659 49.2149 142.251 51.7608C142.304 51.9886 142.163 52.2164 141.937 52.2693C141.904 52.2769 141.872 52.2803 141.84 52.2803Z" fill="#553597"/>
<path d="M139.78 51.2898C139.78 51.2898 140.022 50.1141 140.871 49.6682L139.78 51.2898Z" fill="#553597"/>
<path d="M139.781 51.7127C139.752 51.7127 139.723 51.7097 139.694 51.7038C139.466 51.6559 139.32 51.4328 139.367 51.2042C139.379 51.1483 139.662 49.8264 140.676 49.2933C140.881 49.185 141.137 49.265 141.245 49.4716C141.354 49.6786 141.274 49.9348 141.067 50.0432C140.41 50.3887 140.196 51.3668 140.194 51.3765C140.151 51.5759 139.976 51.7127 139.781 51.7127Z" fill="#553597"/>
<path d="M145.299 89.0177C145.299 89.0177 148.974 95.68 150.515 100.201C151.972 104.474 154.131 109.123 155.672 110.075C154.19 106.446 153.242 101.926 152.293 99.7247C151.345 97.5239 148.856 91.2783 145.299 89.0177Z" fill="#EDE3FF"/>
<path d="M143.671 26.3581C143.671 26.3581 135.268 25.8174 123.311 34.4659C111.354 43.1143 110.599 44.9519 104.459 44.4112C112.862 46.7894 120.618 39.2224 122.341 37.6007C124.065 35.9795 132.252 28.7364 143.671 26.3581Z" fill="#EDE3FF"/>
<path d="M150.889 51.1055C150.844 51.1055 150.797 51.0978 150.752 51.0826L144.774 49.0287C144.553 48.9529 144.436 48.712 144.511 48.4909C144.587 48.2699 144.826 48.1522 145.047 48.2272L151.026 50.2811C151.246 50.3569 151.364 50.5978 151.288 50.8188C151.228 50.9945 151.064 51.1055 150.889 51.1055Z" fill="#553597"/>
<path d="M156.868 52.5103C156.641 52.5103 156.454 52.3287 156.446 52.0992C156.44 51.8655 156.623 51.6703 156.856 51.6635L158.688 51.6093C158.904 51.6004 159.115 51.7859 159.122 52.02C159.129 52.2537 158.945 52.4489 158.712 52.4557L156.881 52.5099C156.876 52.5103 156.872 52.5103 156.868 52.5103Z" fill="#553597"/>
<path d="M74.2028 102.144C73.9442 102.144 73.6834 102.139 73.4197 102.129C58.7929 101.598 49.4553 97.4096 43.1438 88.5474C38.2001 81.6061 36.798 73.9188 39.3925 67.984C41.64 62.8426 46.639 59.543 53.4682 58.6924C53.9973 58.6263 54.5159 58.5666 55.0264 58.5078C61.1384 57.8049 65.966 57.2498 74.9576 47.6348C80.8279 41.3582 94.4028 42.9384 100.199 43.6124C108.972 44.632 111.504 42.6433 117.05 38.2835C118.431 37.1987 119.994 35.9696 121.879 34.6083C130.864 28.1231 138.239 24.732 149.341 26.5891C163.948 29.0321 165.51 35.7045 165.641 37.6911C165.85 40.8607 163.752 43.6781 160.422 44.701C157.299 45.6609 154.725 45.3505 152.656 45.1015C149.459 44.7167 147.697 44.5041 146.292 48.6878C145.811 50.121 145.248 50.8183 144.572 50.8183C144.56 50.8183 144.548 50.8183 144.535 50.8179C143.909 50.7951 143.369 50.135 143.089 49.0515C142.876 48.3342 142.373 47.081 141.389 46.6876C140.768 46.4395 140.012 46.5699 139.142 47.075C137.045 48.2919 138.386 51.9852 138.677 52.7131C139.314 54.3114 141.006 58.5573 138.717 62.7545C136.36 67.0749 130.479 70.1636 121.235 71.9343C110.489 73.9929 103.675 81.2314 97.0863 88.2311C90.3574 95.3807 83.991 102.144 74.2028 102.144ZM90.4874 43.7746C84.9399 43.7746 78.8938 44.665 75.5737 48.2148C66.3702 58.0568 61.1578 58.656 55.1226 59.3499C54.6146 59.4083 54.0986 59.4676 53.572 59.5332C47.0495 60.3449 42.2881 63.4671 40.165 68.3244C37.6913 73.9832 39.0612 81.3593 43.8302 88.0554C49.9747 96.6831 59.1102 100.763 73.4501 101.283C83.2986 101.646 89.7013 94.8451 96.4732 87.6502C103.154 80.5523 110.063 73.213 121.078 71.1027C130.061 69.382 135.747 66.4364 137.977 62.3485C139.837 58.9392 138.909 55.5765 137.893 53.0285C136.922 50.5918 136.629 47.556 138.72 46.3425C139.826 45.7007 140.829 45.5533 141.701 45.9014C143.019 46.4281 143.645 47.9549 143.901 48.8178C143.902 48.8228 143.904 48.8275 143.905 48.833C144.109 49.6286 144.437 49.9677 144.567 49.9724C144.577 49.9724 144.977 49.9567 145.493 48.4181C147.117 43.5832 149.605 43.8826 152.757 44.2615C154.747 44.5012 157.222 44.7992 160.175 43.8919C163.124 42.9862 164.982 40.5169 164.8 37.747C164.552 33.9762 160.324 29.2845 149.204 27.4245C138.387 25.6148 131.176 28.9415 122.373 35.2964C120.501 36.647 118.944 37.8707 117.571 38.9503C112.011 43.3211 109.22 45.5148 100.102 44.4537C97.8061 44.1866 94.2619 43.7746 90.4874 43.7746Z" fill="#553597"/>
<path d="M115.986 81.1665C115.986 81.1665 124.011 76.4659 133.083 87.471C141.851 98.1065 142.587 86.3909 142.587 86.3909C128.967 71.8157 121.708 76.1535 115.986 81.1665Z" fill="white"/>
<path d="M139.15 92.3609C137.414 92.3609 135.311 90.8384 132.758 87.7412C124.039 77.1654 116.514 81.3495 116.198 81.5328C116.011 81.642 115.77 81.59 115.643 81.4125C115.517 81.2356 115.545 80.9908 115.709 80.8477C121.635 75.6555 129.111 71.3512 142.895 86.1017C142.975 86.1868 143.016 86.3016 143.009 86.418C142.996 86.6196 142.668 91.3613 140.02 92.2246C139.741 92.3152 139.451 92.3609 139.15 92.3609ZM120.4 79.7748C123.706 79.7748 128.434 81.1678 133.408 87.2013C136.08 90.4425 138.276 91.9019 139.758 91.4188C141.425 90.8765 142.033 87.8733 142.152 86.5446C130.261 73.8836 123.538 75.761 118.029 80.0212C118.696 79.8794 119.495 79.7748 120.4 79.7748Z" fill="#553597"/>
<path d="M143.699 64.2617C143.699 64.2617 142.836 62.8353 142.002 63.0859C141.194 63.329 141.72 66.4914 144.103 68.4776L145.113 65.9642C145.113 65.9642 144.305 65.559 143.699 64.2617Z" fill="#553597"/>
<path d="M158.099 113.94C158.078 113.94 158.056 113.938 158.034 113.934C157.74 113.888 150.818 112.683 148.207 103.211C145.851 94.6632 144.244 90.1616 142.66 87.6733C142.554 87.506 142.577 87.2876 142.716 87.147C142.855 87.006 143.074 86.9819 143.24 87.0869C148.896 90.6528 151.221 95.751 152.956 100.25C153.433 101.486 153.784 102.855 154.156 104.303C155.008 107.619 155.888 111.047 158.375 113.195C158.518 113.319 158.562 113.522 158.483 113.694C158.413 113.846 158.261 113.94 158.099 113.94ZM144.266 88.8279C145.623 91.5783 147.073 95.9207 149.021 102.986C150.78 109.368 154.562 111.771 156.673 112.638C154.837 110.351 154.048 107.278 153.339 104.515C152.974 103.091 152.628 101.746 152.169 100.556C150.644 96.602 148.654 92.174 144.266 88.8279Z" fill="#553597"/>
<path d="M144.943 90.3264C144.943 90.3264 144.587 95.6799 144.35 98.3567C144.12 100.96 145.536 104.662 146.958 106.387C146.247 103.056 146.01 101.152 146.365 98.178C146.721 95.204 146.01 91.8731 144.943 90.3264Z" fill="#EDE3FF"/>
<path d="M147.345 108.99H147.344C147.261 108.99 145.284 108.964 143.699 107.193C142.125 105.433 141.526 102.64 141.919 98.891C142.096 97.1982 142.295 95.7578 142.47 94.4868C142.902 91.357 143.188 89.2895 142.613 87.203C142.559 87.0082 142.65 86.8024 142.83 86.7118C143.01 86.6216 143.229 86.6707 143.352 86.8304C146.871 91.3714 146.8 95.2921 146.742 98.4422L146.74 98.5675C146.665 102.767 146.727 104.46 147.754 108.46C147.786 108.587 147.758 108.722 147.678 108.826C147.598 108.929 147.476 108.99 147.345 108.99ZM143.75 88.8762C143.87 90.5191 143.627 92.2774 143.306 94.6032C143.132 95.8679 142.934 97.3011 142.758 98.9795C142.391 102.48 142.919 105.053 144.328 106.627C145.185 107.586 146.179 107.938 146.785 108.067C145.878 104.388 145.824 102.622 145.897 98.5519L145.899 98.4265C145.95 95.6355 146.006 92.5162 143.75 88.8762Z" fill="#553597"/>
</g>
<mask id="mask5_477_38869" style="mask-type:luminance" maskUnits="userSpaceOnUse" x="216" y="19" width="45" height="44">
<path d="M260.11 19.4252H216.82V62.7152H260.11V19.4252Z" fill="white"/>
</mask>
<g mask="url(#mask5_477_38869)">
<path d="M238.465 62.7007C250.42 62.7007 260.11 53.022 260.11 41.0827C260.11 29.1434 250.42 19.4647 238.465 19.4647C226.511 19.4647 216.82 29.1434 216.82 41.0827C216.82 53.022 226.511 62.7007 238.465 62.7007Z" fill="#EDE3FF"/>
</g>
<mask id="mask6_477_38869" style="mask-type:luminance" maskUnits="userSpaceOnUse" x="225" y="121" width="20" height="18">
<path d="M230.906 121.265L244.856 130.011L239.55 138.475L225.6 129.729L230.906 121.265Z" fill="white"/>
</mask>
<g mask="url(#mask6_477_38869)">
<path d="M226 129.852C226.108 129.92 226.247 129.935 226.375 129.879C226.455 129.844 234.444 126.466 243.139 129.902C243.347 129.984 243.585 129.88 243.67 129.668C243.755 129.457 243.657 129.217 243.448 129.136C234.434 125.574 226.147 129.089 226.065 129.125C225.857 129.215 225.758 129.457 225.843 129.665C225.877 129.746 225.932 129.809 226 129.852Z" fill="#553597"/>
<path d="M230.637 132.888C230.708 132.932 230.794 132.955 230.884 132.947C230.936 132.942 236.131 132.536 240.435 136.192C240.604 136.336 240.863 136.312 241.01 136.137C241.157 135.963 241.137 135.704 240.967 135.559C236.401 131.68 231.053 132.107 230.827 132.127C230.603 132.147 230.434 132.347 230.45 132.573C230.459 132.708 230.532 132.822 230.637 132.888Z" fill="#553597"/>
</g>
<mask id="mask7_477_38869" style="mask-type:luminance" maskUnits="userSpaceOnUse" x="219" y="30" width="40" height="26">
<path d="M255.63 30.9324L219.394 37.4323L222.594 55.2774L258.831 48.7776L255.63 30.9324Z" fill="white"/>
</mask>
<g mask="url(#mask7_477_38869)">
<path d="M252.442 32.0049L222.769 37.2591C221.188 37.5393 220.132 39.0487 220.413 40.63L221.396 46.186C221.676 47.7677 223.186 48.8226 224.767 48.5428L226.372 48.259L227.386 53.9866L230.247 47.5729L254.441 43.289C256.023 43.0087 257.078 41.4998 256.798 39.918L255.814 34.362C255.534 32.7799 254.024 31.7246 252.442 32.0049Z" fill="white"/>
<path d="M227.46 54.4046C227.419 54.4119 227.376 54.4131 227.333 54.4083C227.148 54.3854 226.999 54.244 226.966 54.0602L226.026 48.7513L224.841 48.9612C223.031 49.2816 221.298 48.0698 220.977 46.2595L219.993 40.7039C219.673 38.8964 220.882 37.1652 222.688 36.8413C222.69 36.8408 222.692 36.8404 222.695 36.8399L252.368 31.5857C254.178 31.2653 255.912 32.4771 256.232 34.287L257.216 39.8431C257.372 40.7195 257.176 41.6045 256.666 42.3343C256.157 43.062 255.396 43.5489 254.522 43.7057C254.519 43.7061 254.517 43.7066 254.514 43.707L230.543 47.9515L227.774 54.1594C227.715 54.2906 227.596 54.3802 227.46 54.4046ZM222.838 37.6785C221.493 37.9198 220.593 39.209 220.831 40.5558L221.815 46.1114C222.053 47.4594 223.344 48.3621 224.693 48.1236L226.297 47.8394C226.408 47.8195 226.523 47.8448 226.615 47.9094C226.708 47.974 226.77 48.0725 226.79 48.1839L227.563 52.5451L229.858 47.3985C229.916 47.2698 230.033 47.1779 230.171 47.1531L230.172 47.1529L254.366 42.869C255.014 42.767 255.588 42.3905 255.969 41.8466C256.349 41.3026 256.495 40.6439 256.379 39.9907L255.395 34.4346C255.156 33.0866 253.865 32.1839 252.517 32.4223L222.843 37.6775C222.842 37.6778 222.84 37.6781 222.838 37.6785Z" fill="#553597"/>
<path d="M233.678 42.375C234.29 42.2653 234.697 41.6802 234.587 41.0682C234.477 40.4562 233.892 40.0491 233.28 40.1589C232.668 40.2687 232.261 40.8538 232.371 41.4657C232.48 42.0777 233.066 42.4848 233.678 42.375Z" fill="#553597"/>
<path d="M238.817 41.4651C239.429 41.3553 239.836 40.7702 239.727 40.1583C239.617 39.5463 239.032 39.1392 238.42 39.249C237.808 39.3588 237.401 39.9439 237.51 40.5558C237.62 41.1678 238.205 41.5749 238.817 41.4651Z" fill="#553597"/>
<path d="M243.958 40.555C244.57 40.4452 244.977 39.8601 244.867 39.2481C244.758 38.6361 244.172 38.229 243.56 38.3388C242.948 38.4486 242.541 39.0337 242.651 39.6457C242.761 40.2576 243.346 40.6648 243.958 40.555Z" fill="#553597"/>
</g>
<mask id="mask8_477_38869" style="mask-type:luminance" maskUnits="userSpaceOnUse" x="232" y="71" width="41" height="41">
<path d="M272.69 71.595H232.915V111.37H272.69V71.595Z" fill="white"/>
</mask>
<g mask="url(#mask8_477_38869)">
<path d="M252.803 111.356C263.786 111.356 272.69 102.464 272.69 91.4937C272.69 80.5238 263.786 71.631 252.803 71.631C241.819 71.631 232.915 80.5238 232.915 91.4937C232.915 102.464 241.819 111.356 252.803 111.356Z" fill="#EDE3FF"/>
</g>
<mask id="mask9_477_38869" style="mask-type:luminance" maskUnits="userSpaceOnUse" x="192" y="62" width="28" height="28">
<path d="M219.78 62.715H192.955V89.54H219.78V62.715Z" fill="white"/>
</mask>
<g mask="url(#mask9_477_38869)">
<path d="M206.368 89.5305C213.775 89.5305 219.78 83.533 219.78 76.1348C219.78 68.7365 213.775 62.739 206.368 62.739C198.96 62.739 192.955 68.7365 192.955 76.1348C192.955 83.533 198.96 89.5305 206.368 89.5305Z" fill="#EDE3FF"/>
</g>
<mask id="mask10_477_38869" style="mask-type:luminance" maskUnits="userSpaceOnUse" x="195" y="67" width="22" height="18">
<path d="M214.291 67.9393L195.932 71.4144L198.443 84.6838L216.802 81.2087L214.291 67.9393Z" fill="white"/>
</mask>
<g mask="url(#mask10_477_38869)">
<path d="M214.965 81.1181L200.087 83.9001C199.365 84.0354 198.671 83.5637 198.538 82.8469L196.706 73.0475C196.571 72.3309 197.048 71.6402 197.77 71.5054L212.648 68.7233C213.369 68.5885 214.063 69.0602 214.197 69.777L216.029 79.5763C216.163 80.2926 215.687 80.9832 214.965 81.1181Z" fill="white"/>
<path d="M215.048 81.5409C215.046 81.5411 215.045 81.5413 215.044 81.5416L200.166 84.3235C199.703 84.4102 199.235 84.3125 198.846 84.0488C198.458 83.7846 198.196 83.3862 198.111 82.9262L196.279 73.1272C196.193 72.6671 196.293 72.2014 196.559 71.8151C196.824 71.4297 197.224 71.1697 197.686 71.0824C197.687 71.0821 197.689 71.0819 197.69 71.0816L212.568 68.2996C213.523 68.1209 214.446 68.7477 214.624 69.6969L216.456 79.4962C216.633 80.4438 216.002 81.3602 215.048 81.5409ZM197.846 71.9292C197.362 72.0208 197.042 72.4863 197.132 72.9675L198.964 82.7669C199.007 83.0003 199.14 83.2028 199.337 83.3365C199.535 83.4707 199.772 83.52 200.007 83.4759L214.885 80.6939C214.886 80.6937 214.888 80.6935 214.888 80.6935C215.372 80.6017 215.693 80.1363 215.603 79.6551L213.771 69.8557C213.68 69.3737 213.212 69.0553 212.727 69.1463L197.848 71.9288C197.848 71.929 197.846 71.9292 197.846 71.9292Z" fill="#553597"/>
<path d="M214.624 72.0578L214.624 72.0579L204.924 73.8716C204.199 74.007 203.461 73.6753 203.085 73.0464L202.285 71.7041C202.09 71.3786 201.708 71.2071 201.333 71.2772C201.097 71.3214 200.871 71.1673 200.827 70.9334C200.783 70.7001 200.938 70.4746 201.173 70.4302L201.174 70.43C201.906 70.2932 202.652 70.6279 203.031 71.2636L203.831 72.6056C204.022 72.9252 204.397 73.0933 204.765 73.0245L214.465 71.2108C214.701 71.1666 214.927 71.3207 214.971 71.5545C215.015 71.7883 214.859 72.0133 214.624 72.0578Z" fill="#553597"/>
</g>
<mask id="mask11_477_38869" style="mask-type:luminance" maskUnits="userSpaceOnUse" x="239" y="74" width="28" height="35">
<path d="M261.48 74.6326L239.462 78.6683L244.865 108.147L266.883 104.112L261.48 74.6326Z" fill="white"/>
</mask>
<g mask="url(#mask11_477_38869)">
<path d="M254.332 76.4061L241.777 78.6782C240.804 78.8544 240.159 79.7896 240.336 80.7673L244.874 105.838C245.051 106.816 245.983 107.465 246.956 107.289L264.572 104.101C265.545 103.925 266.19 102.99 266.013 102.012L262.395 82.0271L254.332 76.4061Z" fill="white"/>
<path d="M264.653 104.52C264.651 104.521 264.649 104.521 264.647 104.521L247.032 107.709C246.449 107.815 245.861 107.686 245.374 107.347C244.887 107.008 244.562 106.499 244.456 105.914L239.918 80.8425C239.812 80.2577 239.939 79.6666 240.276 79.1781C240.612 78.6915 241.116 78.3652 241.696 78.2589C241.698 78.2586 241.699 78.2582 241.701 78.2579L254.256 75.9858C254.367 75.9655 254.481 75.9905 254.574 76.0551L262.637 81.6765C262.73 81.7411 262.793 81.8398 262.814 81.9515L266.431 101.937C266.537 102.521 266.41 103.113 266.073 103.601C265.737 104.088 265.233 104.414 264.653 104.52ZM241.85 79.0988C241.493 79.1643 241.182 79.3654 240.975 79.6656C240.767 79.9662 240.689 80.3309 240.754 80.6914L245.292 105.763C245.357 106.123 245.559 106.437 245.858 106.646C246.158 106.855 246.521 106.934 246.88 106.869L264.496 103.681C264.497 103.681 264.498 103.681 264.499 103.68C264.856 103.615 265.167 103.414 265.374 103.114C265.582 102.813 265.66 102.448 265.595 102.088L262.009 82.277L254.235 76.8575L241.853 79.0982C241.852 79.0985 241.851 79.0986 241.85 79.0988Z" fill="#553597"/>
<path d="M259.194 87.6189L259.193 87.619L246.467 89.9222C246.236 89.9641 246.014 89.8098 245.972 89.5778C245.93 89.3464 246.083 89.1243 246.313 89.0821L246.314 89.0819L259.041 86.7788C259.272 86.7369 259.493 86.8912 259.535 87.1231C259.577 87.3546 259.425 87.5766 259.194 87.6189Z" fill="#553597"/>
<path d="M259.861 91.3038L259.86 91.304L247.134 93.6072C246.903 93.649 246.681 93.4947 246.639 93.2628C246.597 93.0313 246.75 92.8092 246.98 92.767L246.981 92.7669L259.708 90.4637C259.939 90.4218 260.16 90.5762 260.202 90.8081C260.244 91.0396 260.091 91.2616 259.861 91.3038Z" fill="#553597"/>
<path d="M260.528 94.9886L260.527 94.9888L247.801 97.292C247.57 97.3338 247.348 97.1795 247.306 96.9476C247.264 96.7161 247.417 96.494 247.647 96.4518L247.648 96.4517L260.375 94.1485C260.606 94.1066 260.827 94.261 260.869 94.4929C260.911 94.7244 260.759 94.9464 260.528 94.9886Z" fill="#553597"/>
<path d="M257.384 99.3628L257.383 99.3629L248.468 100.976C248.237 101.018 248.015 100.864 247.973 100.632C247.931 100.4 248.084 100.178 248.314 100.136L248.315 100.136L257.231 98.5226C257.462 98.4808 257.683 98.6351 257.725 98.867C257.767 99.0989 257.615 99.3206 257.384 99.3628Z" fill="#553597"/>
<path d="M254.323 76.3995L255.246 81.5012C255.423 82.4789 256.355 83.1285 257.328 82.9523L262.405 82.0335L254.323 76.3995Z" fill="white"/>
<path d="M262.482 82.4536L262.481 82.4537L257.404 83.3726C256.822 83.4779 256.234 83.3493 255.747 83.01C255.26 82.6708 254.934 82.1619 254.828 81.5766L253.904 76.475C253.874 76.3052 253.948 76.1332 254.092 76.0403C254.237 75.9469 254.423 75.9506 254.564 76.0489L262.646 81.6833C262.788 81.7819 262.856 81.9561 262.82 82.1247C262.785 82.2931 262.651 82.4226 262.482 82.4536ZM254.925 77.3381L255.665 81.4254C255.73 81.7859 255.931 82.0998 256.231 82.3088C256.531 82.5178 256.893 82.5972 257.252 82.5322L261.32 81.7962L254.925 77.3381Z" fill="#553597"/>
</g>
</svg>
