<svg width="10" height="12" viewBox="0 0 10 12" fill="none" xmlns="http://www.w3.org/2000/svg">
<path d="M9.00781 10.5V4.00781H0.992188V10.5H9.00781ZM9.00781 1.5C9.27344 1.5 9.5 1.60156 9.6875 1.80469C9.89062 2.00781 9.99219 2.24219 9.99219 2.50781V10.5C9.99219 10.7656 9.89062 11 9.6875 11.2031C9.5 11.4062 9.27344 11.5078 9.00781 11.5078H0.992188C0.726562 11.5078 0.492188 11.4062 0.289062 11.2031C0.101562 11 0.0078125 10.7656 0.0078125 10.5V2.50781C0.0078125 2.24219 0.101562 2.00781 0.289062 1.80469C0.492188 1.60156 0.726562 1.5 0.992188 1.5H1.50781V0.492188H2.49219V1.5H7.50781V0.492188H8.49219V1.5H9.00781Z" fill="#64748B"/>
</svg>
