<svg width="54" height="54" viewBox="0 0 54 54" fill="none" xmlns="http://www.w3.org/2000/svg">
<path d="M31.6009 41.511L32.3054 26.01C32.369 24.6104 31.4043 23.4058 30.5275 22.3109L30.5127 22.2925C29.5221 21.0555 29.3653 19.4626 29.4621 18.5909C29.6026 15.4996 30.811 9.31714 34.5203 9.31714C39.157 9.31714 40 14.7971 40 18.5909C40 20.1853 39.3796 21.3842 38.6276 22.2242C37.6516 23.3145 36.7197 24.6593 36.8522 26.1166L38.2048 40.9952C38.2753 41.7703 38.0926 42.577 37.5147 43.0984C35.5948 44.8306 33.0093 44.5208 31.8832 42.8065C31.6347 42.4282 31.5803 41.9631 31.6009 41.511Z" stroke="#553597" stroke-width="2.33036"/>
<path d="M14 8.90894V15.4725C14 17.0017 14.5612 18.4778 15.5772 19.6208V19.6208C16.6504 20.8282 17.2139 22.4045 17.1494 24.0186L16.548 39.0526C16.4762 40.8482 17.3871 43.4968 19.1478 43.8562V43.8562C22.2801 44.4957 23.1132 40.6313 22.7468 37.4555L21.2094 24.13C21.0165 22.4583 21.5454 20.7837 22.6633 19.526V19.526C23.625 18.4441 24.1563 17.0469 24.1563 15.5993V8.90894" stroke="#553597" stroke-width="2.33036" stroke-linecap="round"/>
<path d="M17.2499 9.31543V14.1904" stroke="#553597" stroke-width="2.33036" stroke-linecap="round"/>
<path d="M20.4999 9.31543V14.1904" stroke="#553597" stroke-width="2.33036" stroke-linecap="round"/>
</svg>
