<svg width="88" height="88" viewBox="0 0 88 88" fill="none" xmlns="http://www.w3.org/2000/svg">
<path d="M41.6281 67.5812C30.085 70.9018 23.7463 54.6356 21.3263 48.8331C16.5 37.2418 3.91189 29.1568 4.84002 20.625C5.76814 12.0931 16.2525 12.9456 16.2525 12.9456" stroke="#BDBDBD" stroke-width="6" stroke-miterlimit="10" stroke-linejoin="round"/>
<path d="M40.9063 67.5812C52.5182 64.5012 48.7369 47.7056 47.8294 41.4837C46.0213 29.0537 52.6694 15.6543 47.4925 8.8137C42.3157 1.97308 33.7563 8.08495 33.7563 8.08495" stroke="#BDBDBD" stroke-width="6" stroke-miterlimit="10" stroke-linejoin="round"/>
<path d="M70.015 32.6425C75.8054 32.6425 80.4994 27.9484 80.4994 22.1581C80.4994 16.3677 75.8054 11.6737 70.015 11.6737C64.2247 11.6737 59.5306 16.3677 59.5306 22.1581C59.5306 27.9484 64.2247 32.6425 70.015 32.6425Z" fill="#878787"/>
<path d="M70.3862 30.6212C75.478 30.6212 79.6056 26.4936 79.6056 21.4019C79.6056 16.3101 75.478 12.1825 70.3862 12.1825C65.2945 12.1825 61.1669 16.3101 61.1669 21.4019C61.1669 26.4936 65.2945 30.6212 70.3862 30.6212Z" fill="#BDBDBD"/>
<path d="M47.7056 40.5143C47.0938 45.1481 54.6769 62.0743 42.9138 66.7081C29.7413 71.9056 24.8256 52.58 21.3331 48.8331" stroke="#03A9F4" stroke-width="8" stroke-miterlimit="10"/>
<path d="M22.4332 50.5588C22.4332 50.5588 29.8375 58.3688 38.5207 54.7869C46.75 51.3906 48.0288 42.3775 48.0288 42.3775" stroke="#03A9F4" stroke-width="5" stroke-miterlimit="10"/>
<path opacity="0.22" d="M69.41 14.7331C65.8075 15.5719 63.5732 19.1675 64.405 22.77C64.5288 23.3062 64.7213 23.8287 64.9757 24.3237C65.175 24.7156 65.4432 25.245 65.4432 25.245C64.1232 26.9706 63.0507 27.6306 62.6863 29.6312C63.6213 30.5456 64.7144 31.2744 65.9107 31.7831C65.9107 31.7762 65.9175 31.7694 65.9175 31.7625C65.9175 31.7694 65.9244 31.7762 65.9244 31.79C67.8975 32.6287 70.1457 32.8831 72.4007 32.3606C72.655 32.2987 72.8957 32.2231 73.1363 32.1475L72.9232 30.2225C72.9232 30.2225 73.1982 27.7819 73.26 27.6512C73.4182 27.3419 74.0575 27.1769 74.3875 26.9844C75.185 26.5031 75.8794 25.85 76.4157 25.0869C77.495 23.54 77.8732 21.5737 77.4469 19.7381C76.6082 16.1356 73.0057 13.8944 69.41 14.7331Z" fill="#212121"/>
<path d="M41.5388 66.0206C48.1319 81.125 58.2381 83.2631 65.7044 81.9637C72.2631 80.8156 80.9463 74.9375 80.9256 64.2812C80.8981 51.4387 72.3319 52.25 67.6913 44.0206C61.9094 33.7631 69.7881 24.3444 69.7881 24.3444" stroke="#03A9F4" stroke-width="8" stroke-miterlimit="10"/>
<path opacity="0.22" d="M65.1338 26.6544C65.1338 26.6544 66.44 25.9875 67.6913 26.7025C69.6713 27.83 69.8638 29.4387 69.8638 29.4387C69.8638 29.4387 71.06 27.06 71.6994 26.4137C72.3319 25.7606 67.87 22.5225 66.8594 23.7669C65.8488 25.0112 65.1338 26.6544 65.1338 26.6544Z" fill="#212121"/>
<path d="M19.1331 9.6525C18.1019 9.65938 17.1944 10.1544 16.5962 10.9038L15.7437 10.23C14.9669 9.61813 13.8256 10.175 13.8325 11.165L13.86 14.7331C13.8669 15.7231 15.015 16.2663 15.7781 15.6406L16.61 14.9669C17.215 15.7163 18.1362 16.2044 19.1744 16.1975C20.9825 16.1838 22.44 14.7056 22.4262 12.8975C22.4125 11.0894 20.9412 9.63875 19.1331 9.6525Z" fill="#616161"/>
<path d="M36.5269 8.40123L34.705 5.33498C34.1963 4.48248 32.9313 4.59935 32.5875 5.5206L32.2094 6.53811C31.3088 6.20123 30.2775 6.24935 29.3906 6.77873C27.8369 7.69998 27.3213 9.71435 28.2494 11.2681C29.1706 12.8219 31.185 13.3375 32.7388 12.4094C33.6325 11.88 34.1688 10.9862 34.2994 10.0306L35.3581 10.175C36.3344 10.3056 37.0356 9.25373 36.5269 8.40123Z" fill="#616161"/>
<path d="M71.6307 26.4137C75.0935 26.4137 77.9007 23.6065 77.9007 20.1437C77.9007 16.6809 75.0935 13.8737 71.6307 13.8737C68.1678 13.8737 65.3607 16.6809 65.3607 20.1437C65.3607 23.6065 68.1678 26.4137 71.6307 26.4137Z" fill="#424242"/>
<path d="M71.9469 24.5231C74.6352 24.5231 76.8144 22.3438 76.8144 19.6556C76.8144 16.9673 74.6352 14.7881 71.9469 14.7881C69.2587 14.7881 67.0794 16.9673 67.0794 19.6556C67.0794 22.3438 69.2587 24.5231 71.9469 24.5231Z" fill="#D1D1D1"/>
<path d="M29.1294 10.3881C28.5588 9.56999 28.6688 8.04374 29.6519 7.34936C30.635 6.65499 32.12 6.95749 32.6906 7.87186C33.33 8.88936 31.6594 7.97499 30.6763 8.66936C29.6931 9.36374 29.8169 11.3781 29.1294 10.3881Z" fill="#757575"/>
<path d="M17.1944 11.8594C17.4419 10.89 18.6588 9.97561 19.8275 10.2644C20.9963 10.5531 21.7388 11.8662 21.4225 12.8975C21.0719 14.0456 20.6663 12.1825 19.4975 11.9006C18.3356 11.6119 16.8988 13.0281 17.1944 11.8594Z" fill="#757575"/>
</svg>
