<svg width="64" height="64" viewBox="0 0 64 64" fill="none" xmlns="http://www.w3.org/2000/svg">
<path d="M9.32007 57.125L50.9551 8.01501C52.2701 8.01501 54.6801 8.13501 54.6801 11.385V58.65C54.6801 59.965 53.6151 61.03 52.3001 61.03H12.2101C10.8951 61.035 9.32007 59.855 9.32007 57.125Z" fill="#A15D38"/>
<path d="M9.32007 57.19V10.27C9.32007 9.015 10.3351 8 11.5901 8H50.8801C52.1351 8 53.1501 9.015 53.1501 10.27V57.19C53.1501 58.445 52.1351 59.46 50.8801 59.46H11.5901C10.3351 59.46 9.32007 58.445 9.32007 57.19Z" fill="#BA793E"/>
<path d="M14.2251 54.83V12.51C14.2251 11.865 14.7501 11.34 15.3951 11.34H47.6051C48.2501 11.34 48.7751 11.865 48.7751 12.51V54.83C48.7751 55.475 48.2501 56 47.6051 56H15.3951C14.7501 56 14.2251 55.48 14.2251 54.83Z" fill="white"/>
<path d="M19.3252 27.18H43.6752" stroke="#B0BEC5" stroke-width="3" stroke-miterlimit="10" stroke-linecap="round"/>
<path d="M19.3252 21.455H43.6752" stroke="#B0BEC5" stroke-width="3" stroke-miterlimit="10" stroke-linecap="round"/>
<path d="M19.3252 32.905H43.6752" stroke="#B0BEC5" stroke-width="3" stroke-miterlimit="10" stroke-linecap="round"/>
<path d="M19.3252 38.635H43.6752" stroke="#B0BEC5" stroke-width="3" stroke-miterlimit="10" stroke-linecap="round"/>
<path d="M19.3252 44.36H43.6752" stroke="#B0BEC5" stroke-width="3" stroke-miterlimit="10" stroke-linecap="round"/>
<path d="M19.3252 50.085H29.7402" stroke="#B0BEC5" stroke-width="3" stroke-miterlimit="10" stroke-linecap="round"/>
<path opacity="0.35" d="M43.4651 14.2V8.01501H36.4751L40.8301 14.2H43.4651Z" fill="#212121"/>
<path d="M39.005 8.24503L37.395 8.22003C36.325 8.22003 36.125 7.27003 36.085 7.07003C36.03 6.81003 35.96 6.23503 35.93 6.00503C35.66 3.76003 34.89 2.38003 32.085 2.06003C29.655 1.78503 27.91 4.28003 27.91 6.66003C27.91 6.66503 27.91 6.67503 27.91 6.68003C27.915 7.75503 27.1 8.65503 26.025 8.65503C26.025 8.65503 22.885 8.12003 20.64 10.69C20.22 11.17 19.715 13.15 19.71 13.705C19.7 15.25 21.035 15.455 21.5 15.46C23.59 15.475 40.615 15.42 42.245 15.42C42.915 15.42 43.46 14.875 43.46 14.205V13.3C43.465 10.73 41.57 8.24503 39.005 8.24503ZM31.945 8.38003C31.02 8.38003 30.27 7.63003 30.27 6.70503C30.27 5.78003 31.02 5.03003 31.945 5.03003C32.87 5.03003 33.62 5.78003 33.62 6.70503C33.62 7.63003 32.87 8.38003 31.945 8.38003Z" fill="#2F7889"/>
<path d="M38.09 7.995H37.1199C36.0499 7.995 35.62 7.155 35.485 6.865C35.29 6.44 35.235 5.575 35.2 5.345C34.92 3.58 33.445 2.18 31.67 1.99C29.24 1.725 27.18 3.625 27.18 6C27.18 6.005 27.18 6.015 27.18 6.02C27.185 7.095 26.37 7.995 25.295 7.995H24.3449C21.7799 7.995 19.7 10.075 19.7 12.64V13.545C19.7 14.215 20.245 14.76 20.915 14.76H41.5149C42.1849 14.76 42.7299 14.215 42.7299 13.545V12.64C42.7349 10.075 40.655 7.995 38.09 7.995ZM31.215 7.725C30.29 7.725 29.54 6.975 29.54 6.05C29.54 5.125 30.29 4.375 31.215 4.375C32.14 4.375 32.8899 5.125 32.8899 6.05C32.8899 6.975 32.14 7.725 31.215 7.725Z" fill="#82AEC0"/>
<path d="M39.4848 11.02H22.4448C21.7948 11.02 21.6248 10.655 21.9598 10.1C22.4498 9.29503 23.6198 8.76503 24.6198 8.76503C26.7898 8.76503 34.6198 8.52502 37.3748 8.52502C38.7198 8.52502 39.4198 8.97503 40.0048 9.72503C40.4198 10.265 40.1598 11.02 39.4848 11.02Z" fill="#B9E4EA"/>
<path d="M28.49 4.74002C28.77 3.60002 29.845 3.27502 29.845 3.27502" stroke="#B9E4EA" stroke-width="2.1165" stroke-miterlimit="10" stroke-linecap="round"/>
</svg>
