<svg width="64" height="64" viewBox="0 0 64 64" fill="none" xmlns="http://www.w3.org/2000/svg">
<path d="M33.735 24.1L33.18 33.34C33.18 33.34 35.06 38.66 34.535 46.065C34.03 53.2 32.135 56.81 31.615 58.06C31.095 59.31 29.635 60.875 31.615 61.5C33.595 62.125 36.935 61.815 38.395 61.29C39.855 60.77 40.58 57.87 40.795 56.7C41.32 53.805 41.61 48.33 40.545 42.93C39.73 38.78 38 31.665 38 31.665L33.735 24.1Z" fill="#99C23B"/>
<path d="M33.3899 22.7C33.3899 22.7 35.5299 15.985 40.4499 10.89C45.1649 6.01001 49.9799 4.41001 53.8399 3.93001C58.0949 3.40001 59.8299 3.45501 60.5599 3.98001C61.2899 4.50501 61.0299 5.33001 61.0449 6.06001C61.1399 11.28 61.3349 18.045 55.1949 24.235C48.6399 30.835 43.9699 32.02 38.8549 32.545C33.7449 33.065 34.3249 30.735 34.3249 30.735L33.3899 22.7Z" fill="#99C23B"/>
<path d="M1.48998 18.525C1.30498 19.44 6.13498 30.18 15.465 33.56C25.51 37.205 34.98 33.56 34.98 33.56L35.76 23.89L33.385 22.7C33.385 22.7 28.35 17.145 22.755 15.095C16.955 12.97 10.4 12.805 5.93498 15.19C3.13498 16.69 1.58998 18.04 1.48998 18.525Z" fill="#99C23B"/>
<path d="M43.3401 15.34C38.6901 20.85 36.3451 26.405 36.1001 27.855C35.8551 29.305 36.6601 29.245 37.1151 28.63C37.9351 27.52 40.7901 22.445 45.0401 17.61C48.7201 13.43 54.3201 8.91002 55.1401 7.94502C55.6501 7.34502 55.0901 6.59002 54.3201 6.93002C53.5501 7.26502 48.0951 9.70502 43.3401 15.34Z" fill="#E6DC9F"/>
<path d="M20.715 20.5C13.915 18.16 8.94004 18.475 7.92504 18.815C6.91004 19.155 6.96004 20.265 8.16504 20.41C9.37004 20.555 14.285 21.045 20.445 23.26C27.02 25.63 31.705 29.205 32.53 29.69C33.35 30.175 33.885 29.205 33.16 28.335C32.605 27.68 28.215 23.08 20.715 20.5Z" fill="#E6DC9F"/>
</svg>
