<svg width="64" height="65" viewBox="0 0 64 65" fill="none" xmlns="http://www.w3.org/2000/svg">
<path opacity="0.6" d="M23.8152 6.83499C33.7402 6.83499 41.2152 14.31 41.2152 24.235C41.2152 34.16 33.1402 42.24 23.2152 42.24C13.2902 42.24 5.81519 34.765 5.81519 24.84C5.81519 14.915 13.8902 6.83499 23.8152 6.83499Z" fill="#81D4FA"/>
<path d="M23.8152 6.83499C33.7402 6.83499 41.2152 14.31 41.2152 24.235C41.2152 34.16 33.1402 42.24 23.2152 42.24C13.2902 42.24 5.81517 34.765 5.81517 24.84C5.81517 14.915 13.8902 6.83499 23.8152 6.83499ZM9.01017 8.88499C-0.829828 18.725 4.00017 33.1 7.84517 37.025C14.9602 44.285 28.2602 48.42 38.2102 38.465C47.4252 29.25 44.1152 17.565 37.6252 10.42C33.3152 5.67999 18.8452 -0.950008 9.01017 8.88499Z" fill="#616161"/>
<path d="M49.8901 45.93L45.7251 50.12L35.9151 40.22C35.9151 40.22 35.0851 38.625 36.7251 36.985C38.3651 35.345 40.0801 36.03 40.0801 36.03L49.8901 45.93Z" fill="#BDBDBD"/>
<path d="M44.2501 38.98C43.6851 38.53 41.7251 37.48 39.5701 39.62C37.4201 41.76 38.2951 43.45 38.7201 44.075C38.7201 44.075 53.9851 61.01 54.6801 61.71C55.7051 62.735 57.8101 61.86 59.7601 59.91C61.7101 57.96 62.6501 56.075 61.5501 54.975C60.6551 54.08 44.8151 39.43 44.2501 38.98Z" fill="#616161"/>
<path d="M21.9601 4.82C31.8851 4.82 39.9601 12.895 39.9601 22.82C39.9601 32.745 31.8851 40.82 21.9601 40.82C12.0351 40.82 3.96011 32.745 3.96011 22.82C3.96011 12.895 12.0351 4.82 21.9601 4.82ZM21.9601 2.84C10.9301 2.84 1.98511 11.785 1.98511 22.815C1.98511 33.845 10.9301 42.79 21.9601 42.79C32.9901 42.79 41.9351 33.85 41.9351 22.815C41.9351 11.78 32.9901 2.84 21.9601 2.84Z" fill="#BDBDBD"/>
<path d="M59.7627 59.9117C61.5689 58.1056 62.4695 56.0779 61.7744 55.3828C61.0793 54.6876 59.0516 55.5883 57.2454 57.3945C55.4393 59.2006 54.5386 61.2283 55.2337 61.9234C55.9289 62.6186 57.9566 61.7179 59.7627 59.9117Z" fill="#424242"/>
<path d="M13.26 12.3C10 15.715 8.72003 19.495 8.69003 23.695C8.68003 25.24 8.89503 26.875 9.85003 28.085C10.805 29.295 12.7 29.87 13.95 28.965C14.78 28.365 15.125 27.32 15.53 26.385C16.15 24.95 17.015 23.615 18.08 22.465C19.41 21.025 21.04 19.875 22.31 18.385C23.58 16.895 24.485 14.88 23.975 12.985C23.47 11.13 21.64 9.82001 19.735 9.60501C17.83 9.39001 15.14 10.33 13.26 12.3Z" fill="url(#paint0_linear_5_671)"/>
<g opacity="0.59">
<path d="M32.0251 38.39C32.0251 38.16 32.1351 37.95 32.3201 37.815C33.2951 37.12 35.9201 35.495 38.1851 31.175C39.5001 28.655 40.0001 26.555 40.1401 25.805C40.5351 23.685 41.6451 24.395 41.4901 25.765C41.3101 27.325 39.9551 34.19 33.1501 38.955C32.6751 39.29 32.0251 38.97 32.0251 38.39Z" fill="white"/>
</g>
<g opacity="0.59">
<path d="M13.1952 6.19499C13.1302 6.84499 12.0252 7.45999 11.8302 7.58499C10.8202 8.23499 8.32018 9.50999 6.03518 13.82C4.97018 15.825 4.20518 17.89 3.94518 18.915C3.52018 20.59 2.37518 20.255 2.59518 18.89C2.84518 17.34 4.52018 10.545 11.5352 6.09999C12.0302 5.78999 13.2802 5.33499 13.1952 6.19499Z" fill="white"/>
</g>
<path d="M27.9601 37.465C25.7351 37.87 25.0751 36.94 25.3551 36.015C25.5751 35.28 26.3951 34.965 27.1301 34.745C31.0501 33.57 34.3601 30.325 36.7651 27.105C36.8201 29.9 36.0851 31.52 34.7401 33.18C33.4251 34.795 31.3801 36.84 27.9601 37.465Z" fill="url(#paint1_linear_5_671)"/>
<defs>
<linearGradient id="paint0_linear_5_671" x1="10.1926" y1="9.51226" x2="18.3905" y2="22.808" gradientUnits="userSpaceOnUse">
<stop offset="0.2853" stop-color="white"/>
<stop offset="1" stop-color="white" stop-opacity="0"/>
</linearGradient>
<linearGradient id="paint1_linear_5_671" x1="29.4758" y1="48.2545" x2="31.5427" y2="26.896" gradientUnits="userSpaceOnUse">
<stop offset="0.2853" stop-color="white"/>
<stop offset="1" stop-color="white" stop-opacity="0"/>
</linearGradient>
</defs>
</svg>
