<svg width="64" height="64" viewBox="0 0 64 64" fill="none" xmlns="http://www.w3.org/2000/svg">
<g clip-path="url(#clip0_5_724)">
<path d="M31.825 4.03499C10.495 4.14499 1.86005 15.265 1.69505 29.115C1.60505 36.85 6.59005 43.53 14.23 47.605C17.955 50.24 13.52 58.875 9.97005 61.08C9.97005 61.08 22.52 60.225 25.98 51.38C27.89 51.66 29.855 51.805 31.87 51.805C48.51 51.805 61.955 42.965 61.955 29.115C61.955 15.265 53.36 3.92999 31.825 4.03499Z" fill="white" stroke="black" stroke-width="6" stroke-miterlimit="10" stroke-linejoin="round"/>
<path d="M16.3 32.5C18.5092 32.5 20.3 30.7091 20.3 28.5C20.3 26.2909 18.5092 24.5 16.3 24.5C14.0909 24.5 12.3 26.2909 12.3 28.5C12.3 30.7091 14.0909 32.5 16.3 32.5Z" fill="#54646D"/>
<path d="M32.3 32.5C34.5092 32.5 36.3 30.7091 36.3 28.5C36.3 26.2909 34.5092 24.5 32.3 24.5C30.0909 24.5 28.3 26.2909 28.3 28.5C28.3 30.7091 30.0909 32.5 32.3 32.5Z" fill="#54646D"/>
<path d="M47.7 32.5C49.9091 32.5 51.7 30.7091 51.7 28.5C51.7 26.2909 49.9091 24.5 47.7 24.5C45.4908 24.5 43.7 26.2909 43.7 28.5C43.7 30.7091 45.4908 32.5 47.7 32.5Z" fill="#54646D"/>
</g>
<defs>
<clipPath id="clip0_5_724">
<rect width="64" height="64" fill="white"/>
</clipPath>
</defs>
</svg>
