<svg width="65" height="65" viewBox="0 0 65 65" fill="none" xmlns="http://www.w3.org/2000/svg">
<path d="M58.5632 2.47998H6.56323C4.35323 2.47998 2.56323 4.26998 2.56323 6.47998V58.48C2.56323 60.69 4.35323 62.48 6.56323 62.48H58.5632C60.7732 62.48 62.5632 60.69 62.5632 58.48V6.47998C62.5632 4.26998 60.7732 2.47998 58.5632 2.47998Z" fill="#194FA5"/>
<path d="M55.4132 2.47998H6.31324C4.24824 2.49498 2.57824 4.16498 2.56324 6.22998V55.18C2.55824 57.25 4.23324 58.925 6.30324 58.93C6.30824 58.93 6.30824 58.93 6.31324 58.93H55.3632C57.4332 58.935 59.1082 57.26 59.1132 55.19C59.1132 55.185 59.1132 55.185 59.1132 55.18V6.22998C59.1582 4.20498 57.5482 2.52498 55.5232 2.47998C55.4882 2.47998 55.4482 2.47998 55.4132 2.47998Z" fill="#2262DD"/>
<path d="M20.4133 6.92998C20.4133 5.77998 19.6133 5.42998 15.0133 5.57998C11.1633 5.72998 9.26328 6.17998 8.11328 7.57998C6.96328 8.97998 6.66328 11.83 6.61328 15.23C6.61328 17.63 6.61328 19.88 7.86328 19.88C9.56328 19.88 9.56328 15.93 10.9633 13.73C13.6633 9.37998 20.4133 8.42998 20.4133 6.92998Z" fill="#68ABE6"/>
<path d="M48.9682 29.69C48.3982 29.105 47.6032 28.8 46.7932 28.845L36.9632 29.39L42.3732 23.225C43.1382 22.345 43.3632 21.175 43.0682 20.13C42.9132 19.415 42.4832 18.765 41.8082 18.345C41.7882 18.33 28.8732 10.83 28.8732 10.83C27.8132 10.215 26.4932 10.355 25.5832 11.165L19.2732 16.795C18.1132 17.83 18.0082 19.615 19.0432 20.775C20.0782 21.935 21.8632 22.04 23.0232 21.005L27.8082 16.74L31.7632 19.035L24.7832 26.975C21.8882 27.445 19.2832 28.78 17.2432 30.7L20.8882 34.345C22.5332 32.85 24.7232 31.935 27.1182 31.935C32.2282 31.935 36.3882 36.095 36.3882 41.205C36.3882 43.6 35.4732 45.785 33.9782 47.435L37.6232 51.08C40.0532 48.5 41.5432 45.025 41.5432 41.205C41.5432 38.925 41.0132 36.77 40.0782 34.855L43.8832 34.645L42.9582 46.005C42.8332 47.555 43.9832 48.92 45.5382 49.04C45.6132 49.045 45.6932 49.05 45.7732 49.05C47.2282 49.05 48.4632 47.935 48.5782 46.465L49.7682 31.885C49.8232 31.075 49.5382 30.27 48.9682 29.69Z" fill="#FAFAFA"/>
<path d="M27.1182 50.485C22.0082 50.485 17.8482 46.325 17.8482 41.215C17.8482 39.285 18.4332 37.5 19.4482 36.015L15.7632 32.33C13.8432 34.78 12.6982 37.865 12.6982 41.215C12.6982 49.18 19.1532 55.64 27.1232 55.64C30.4782 55.64 33.5632 54.49 36.0082 52.575L32.3232 48.89C30.8382 49.89 29.0432 50.485 27.1182 50.485Z" fill="#FAFAFA"/>
<path d="M44.9133 17.545C48.1483 18.075 50.8983 15.315 50.3633 12.09C50.0383 10.13 48.4633 8.55497 46.5133 8.23997C43.2783 7.70997 40.5283 10.47 41.0633 13.695C41.3833 15.645 42.9583 17.22 44.9133 17.545Z" fill="#FAFAFA"/>
</svg>
