<svg width="65" height="65" viewBox="0 0 65 65" fill="none" xmlns="http://www.w3.org/2000/svg">
<path d="M52.4917 31.85H52.4867C52.4267 30.625 51.1267 29.48 48.8817 28.805C44.0767 27.36 38.7467 26.515 32.6667 26.465C26.5917 26.515 21.2617 27.36 16.4517 28.805C14.2067 29.48 12.9167 30.625 12.8517 31.85H12.8417V32.01C12.8417 32.02 12.8417 32.025 12.8417 32.035V56.89C12.7867 58.29 14.3517 59.79 17.9717 60.815C21.7117 61.875 26.7717 62.56 32.6617 62.56C38.5517 62.56 43.6117 61.875 47.3517 60.815C51.1467 59.74 52.6817 58.145 52.4617 56.69H52.4817V31.85H52.4917Z" fill="#E2A610"/>
<path d="M36.6166 54.62L34.3716 49.33C35.6516 48.71 36.5366 47.4 36.5366 45.88C36.5366 43.76 34.8166 42.045 32.7016 42.045C30.5866 42.045 28.8666 43.765 28.8666 45.88C28.8666 47.305 29.6466 48.55 30.8016 49.21L28.7116 54.655C28.4466 55.345 28.9566 56.08 29.6916 56.08H35.6516C36.4016 56.08 36.9066 55.31 36.6166 54.62Z" fill="#4E342E"/>
<path d="M36.4017 54.13H28.9067L28.7067 54.655C28.4417 55.345 28.9517 56.08 29.6867 56.08H35.6467C36.4017 56.08 36.9067 55.31 36.6117 54.62L36.4017 54.13Z" fill="#9E740B"/>
<path d="M31.1418 48.2C31.2318 47.94 31.1368 47.66 30.9168 47.5C30.6168 47.28 30.2118 46.89 29.9568 46.27C29.0268 44.03 30.1318 43.035 30.1318 43.035C29.3518 43.735 28.8618 44.75 28.8618 45.88C28.8618 47.305 29.6418 48.55 30.7968 49.21L31.1418 48.2Z" fill="#9E740B"/>
<path d="M35.3967 43.15C35.3967 43.15 36.4967 45.36 35.2367 46.775C34.8067 47.255 34.4417 47.51 34.1717 47.635C33.9067 47.76 33.7867 48.075 33.9117 48.34L34.3767 49.32C35.6567 48.7 36.5417 47.39 36.5417 45.87C36.5317 44.245 35.3967 43.15 35.3967 43.15Z" fill="#9E740B"/>
<path d="M48.0366 28.475C43.4816 27.15 38.4266 26.38 32.6666 26.33C26.9066 26.375 21.8516 27.15 17.2966 28.47C12.7316 29.795 12.2766 33.1 18.7416 34.87C22.2866 35.84 27.0866 36.465 32.6666 36.465C38.2466 36.465 43.0466 35.84 46.5916 34.87C53.0566 33.105 52.6016 29.795 48.0366 28.475Z" fill="#FDD835"/>
<path d="M46.7417 31.605C46.7417 31.605 46.5567 32.465 44.1317 32.465C41.7067 32.465 41.1917 31.605 41.1917 31.605V20.58C41.1917 15.57 37.3667 11.5 32.6617 11.5C27.9567 11.5 24.1317 15.575 24.1317 20.58V31.61C24.1317 31.61 23.0767 32.47 21.1567 32.47C19.2367 32.47 18.5867 31.61 18.5867 31.61V20.58C18.5867 12.51 24.9017 5.95001 32.6617 5.95001C40.4217 5.95001 46.7367 12.515 46.7367 20.58V31.605H46.7417Z" fill="#84B0C1" stroke="#84B0C1" stroke-width="1.9584" stroke-miterlimit="10"/>
<path d="M26.3216 11.28C23.7516 12.81 23.3566 13.845 22.6416 14.32C22.1116 14.67 21.4066 14.39 21.8666 13.175C22.2616 12.135 23.2116 10.165 25.5816 8.65C29.6616 6.04 33.1816 6.16001 32.9916 8.15501C32.8316 9.92001 29.0616 9.65 26.3216 11.28Z" fill="#B9E4EA"/>
</svg>
