<svg width="65" height="64" viewBox="0 0 65 64" fill="none" xmlns="http://www.w3.org/2000/svg">
<path d="M34.4417 14.33H30.9417V49.63H34.4417V14.33Z" fill="#4C889B"/>
<path d="M46.8766 17.915C49.4916 17.915 52.2866 16.975 54.5516 13.815L51.7066 11.775C48.9967 15.55 45.3617 14.575 41.5667 13.14L41.1166 12.97C38.5916 12.03 35.5967 11.51 32.6917 11.51V15.01C35.1567 15.01 37.7866 15.46 39.8966 16.25L40.3316 16.415C41.8967 17.005 44.3016 17.915 46.8766 17.915Z" fill="#4C889B"/>
<path d="M20.8767 56.7C21.9017 55.63 26.8317 54.235 28.1317 53.025C29.4317 51.815 28.1167 50.41 28.7367 47.535C29.5267 43.87 32.6917 43.445 32.6917 43.445C32.6917 43.445 35.8567 43.87 36.6467 47.535C37.2667 50.405 35.9467 51.815 37.2517 53.025C38.5517 54.235 43.4867 55.63 44.5067 56.7C45.5767 57.82 45.6217 59.305 44.5067 59.815C44.5067 59.815 40.7667 61.35 32.6917 61.35C24.6167 61.35 20.8767 59.815 20.8767 59.815C19.9217 59.515 19.8067 57.82 20.8767 56.7Z" fill="#4C889B"/>
<path d="M34.4268 18.98C34.4268 19.225 34.6718 20.46 33.2668 20.755C32.0368 21.01 30.9368 20.47 30.9368 18.95C30.9368 17.7 31.0568 17.12 31.0568 17.12C31.0568 17.12 34.4268 18.23 34.4268 18.98Z" fill="#335E68"/>
<path d="M36.8517 15.175C36.8517 12.88 34.9917 6.65503 32.6917 6.65503C30.3917 6.65503 28.5317 12.88 28.5317 15.175C28.5317 17.47 30.3917 19.335 32.6917 19.335C34.9917 19.335 36.8517 17.475 36.8517 15.175Z" fill="#4C889B"/>
<path d="M32.6917 8.15002C34.2104 8.15002 35.4417 6.91881 35.4417 5.40002C35.4417 3.88124 34.2104 2.65002 32.6917 2.65002C31.1729 2.65002 29.9417 3.88124 29.9417 5.40002C29.9417 6.91881 31.1729 8.15002 32.6917 8.15002Z" fill="#4C889B"/>
<path d="M52.7966 14.845C54.3154 14.845 55.5466 13.6138 55.5466 12.095C55.5466 10.5762 54.3154 9.34503 52.7966 9.34503C51.2778 9.34503 50.0466 10.5762 50.0466 12.095C50.0466 13.6138 51.2778 14.845 52.7966 14.845Z" fill="#4C889B"/>
<path d="M18.5017 17.915C21.0767 17.915 23.4817 17.005 25.0467 16.415L25.4817 16.25C27.5967 15.465 30.2217 15.01 32.6867 15.01V11.51C29.7767 11.51 26.7867 12.03 24.2617 12.97L23.8117 13.14C20.0117 14.575 16.3817 15.55 13.6717 11.775L10.8267 13.815C13.0967 16.975 15.8867 17.915 18.5017 17.915Z" fill="#4C889B"/>
<path d="M30.2568 45.95C29.5368 46.495 29.6218 47.46 29.6618 47.605C29.7618 47.955 30.1118 48.165 30.4468 48.29C31.3168 48.61 32.3068 48.535 33.1418 48.15C33.7468 47.87 34.9718 47.015 34.8468 46.21C34.6418 44.885 30.9818 45.4 30.2568 45.95Z" fill="#81AFC1"/>
<path d="M34.1567 58.25C30.4367 59.095 26.5267 58.67 23.3367 57.585C22.0017 57.13 22.4817 56.64 22.5567 56.58C23.2017 56.05 24.0217 55.685 24.8967 55.615C26.4867 55.49 27.7467 56.105 29.2717 56.56C31.0017 57.075 32.8367 57.245 34.6317 57.055C34.8867 57.03 35.1667 57.005 35.3817 57.15C36.2167 57.71 34.1567 58.25 34.1567 58.25Z" fill="#81AFC1"/>
<path d="M32.2668 5.495C31.9968 5.615 31.6868 5.685 31.4068 5.585C31.0118 5.445 30.7868 4.995 30.8268 4.58C30.9018 3.825 32.0718 2.8 32.8618 3.195C33.9068 3.72 32.9768 5.175 32.2668 5.495Z" fill="#81AFC1"/>
<path d="M29.7668 13.6C30.4718 14.44 32.0518 14.315 32.8368 12.38C33.3668 11.07 33.2068 9.59003 33.1318 9.13503C32.9418 7.91503 31.8618 7.63003 31.1118 8.67503C29.5368 10.86 29.3068 13.055 29.7668 13.6Z" fill="#81AFC1"/>
<path d="M12.5818 13.36C13.0816 13.36 13.4868 12.9549 13.4868 12.455C13.4868 11.9552 13.0816 11.55 12.5818 11.55C12.0819 11.55 11.6768 11.9552 11.6768 12.455C11.6768 12.9549 12.0819 13.36 12.5818 13.36Z" fill="#4C889B"/>
<path d="M2.38672 46.145L11.6667 12.225C11.6667 12.225 12.2017 11.585 12.5817 11.585C12.9617 11.585 13.5167 12.225 13.5167 12.225L22.8217 46.19L21.4967 46.56L13.2717 16.445L11.8967 16.575L3.71172 46.51L2.38672 46.145Z" fill="#4C889B"/>
<path d="M22.8717 46.22H2.29175C2.29175 48.515 7.70175 51.62 12.5817 51.62C17.4617 51.62 22.8717 48.305 22.8717 46.22Z" fill="#81AFC1"/>
<path d="M12.5817 47.85C18.2648 47.85 22.8717 47.1494 22.8717 46.285C22.8717 45.4207 18.2648 44.72 12.5817 44.72C6.89874 44.72 2.29175 45.4207 2.29175 46.285C2.29175 47.1494 6.89874 47.85 12.5817 47.85Z" fill="#335E68"/>
<path d="M12.5817 45.225C16.8517 45.225 20.0167 45.62 21.5067 46.02C21.7717 46.09 21.7717 46.475 21.5067 46.545C20.0167 46.945 16.8517 47.34 12.5817 47.34C8.31175 47.34 5.14675 46.95 3.65675 46.55C3.39175 46.48 3.39175 46.095 3.65675 46.025C5.14675 45.62 8.31175 45.225 12.5817 45.225ZM12.5817 44.72C6.89675 44.72 2.29175 45.42 2.29175 46.285C2.29175 47.15 6.89675 47.85 12.5817 47.85C18.2667 47.85 22.8717 47.15 22.8717 46.285C22.8717 45.42 18.2667 44.72 12.5817 44.72Z" fill="#A3CDD9"/>
<path d="M9.47164 49.845C10.4366 50.32 10.2566 50.62 9.66664 50.68C8.49664 50.8 6.57664 50.065 5.42664 49.075C5.09164 48.785 4.68164 47.795 5.79164 47.96C7.51164 48.21 7.38664 48.81 9.47164 49.845Z" fill="#A3CDD9"/>
<path d="M11.8967 12.29V12.275C11.8967 11.895 12.2067 11.585 12.5867 11.585C12.9667 11.585 13.2767 11.895 13.2767 12.275V12.3V47.875C13.2767 48.255 12.9667 48.565 12.5867 48.565C12.2067 48.565 11.8967 48.255 11.8967 47.875V12.29Z" fill="#4C889B"/>
<path d="M12.5818 15.02C14.1006 15.02 15.3318 13.7888 15.3318 12.27C15.3318 10.7512 14.1006 9.52002 12.5818 9.52002C11.063 9.52002 9.83179 10.7512 9.83179 12.27C9.83179 13.7888 11.063 15.02 12.5818 15.02Z" fill="#4C889B"/>
<path d="M13.0517 10.08C13.7167 10.38 13.4167 10.955 13.2817 11.125C12.9167 11.59 12.3217 11.61 11.8817 12.11C11.6917 12.325 11.5917 12.82 11.1667 12.935C10.7767 13.04 10.6067 12.73 10.5867 12.6C10.4167 11.595 10.7917 10.895 11.4517 10.405C11.7567 10.175 12.3867 9.78005 13.0517 10.08Z" fill="#81AFC1"/>
<path d="M42.5566 46.105L51.9566 12.22C51.9566 12.22 52.4966 11.58 52.8766 11.58C53.2566 11.58 53.8116 12.225 53.8116 12.225L62.9966 46.225L61.6666 46.595L53.5416 16.445L52.1666 16.575L43.8766 46.475L42.5566 46.105Z" fill="#4C889B"/>
<path d="M63.0417 46.2601L42.4617 46.1851C42.4517 48.4801 47.8517 51.6051 52.7317 51.6201C57.6117 51.6401 63.0367 48.3401 63.0417 46.2601Z" fill="#81AFC1"/>
<path d="M63.0409 46.321C63.0439 45.4567 58.4394 44.7397 52.7564 44.7196C47.0734 44.6995 42.4639 45.3839 42.4609 46.2482C42.4578 47.1126 47.0623 47.8295 52.7453 47.8496C58.4283 47.8697 63.0378 47.1854 63.0409 46.321Z" fill="#335E68"/>
<path d="M52.7567 45.225C57.0267 45.24 60.1917 45.645 61.6767 46.05C61.9417 46.12 61.9367 46.505 61.6767 46.575C60.1867 46.97 57.0217 47.355 52.7517 47.34C48.4817 47.325 45.3167 46.92 43.8317 46.515C43.5667 46.445 43.5717 46.06 43.8317 45.99C45.3167 45.595 48.4867 45.21 52.7567 45.225ZM52.7567 44.72C47.0717 44.7 42.4617 45.385 42.4617 46.25C42.4567 47.115 47.0617 47.83 52.7467 47.85C58.4317 47.87 63.0417 47.185 63.0417 46.32C63.0467 45.46 58.4417 44.74 52.7567 44.72Z" fill="#A3CDD9"/>
<path d="M49.6266 49.83C50.5916 50.31 50.3216 50.535 49.7316 50.595C48.5616 50.715 46.8067 49.885 45.5067 48.895C45.1567 48.625 44.5467 47.66 45.9567 47.93C47.6417 48.26 47.6866 48.865 49.6266 49.83Z" fill="#A3CDD9"/>
<path d="M52.1816 12.285V12.27C52.1816 11.89 52.4916 11.585 52.8716 11.585C53.2516 11.585 53.5566 11.895 53.5566 12.275V12.3L53.4316 47.875C53.4316 48.255 53.1216 48.56 52.7416 48.56C52.3616 48.56 52.0566 48.25 52.0566 47.87L52.1816 12.285Z" fill="#4C889B"/>
<path d="M53.0718 10.055C53.7368 10.355 53.4568 10.945 53.3018 11.1C53.0068 11.4 52.6568 11.64 52.3268 11.895C51.9718 12.17 51.6818 12.455 51.1268 12.13C50.4968 11.765 50.8818 10.875 51.4418 10.455C51.7418 10.23 52.4068 9.76002 53.0718 10.055Z" fill="#81AFC1"/>
</svg>
