<svg width="65" height="65" viewBox="0 0 65 65" fill="none" xmlns="http://www.w3.org/2000/svg">
<path d="M22.1367 33.81C20.6117 33.545 19.1067 33.425 17.6267 33.425C15.3667 33.425 13.1717 33.71 11.0967 34.2C7.69175 35.01 4.58675 36.615 2.66675 39.015V39.955V41.01V62.5H31.1667H31.9167H32.6667V44.7C32.6667 38.56 28.0767 34.835 22.1367 33.81Z" fill="url(#paint0_linear_5_542)"/>
<path d="M17.3967 37.56C15.4617 37.56 13.8967 35.995 13.8967 34.06V30.85H20.8967V34.06C20.8967 35.995 19.3267 37.56 17.3967 37.56Z" fill="#E59600"/>
<path d="M2.66675 48.5V49V49.5V62.5H5.68675H6.16675H6.66675V48.5H2.66675Z" fill="url(#paint1_linear_5_542)"/>
<path d="M26.4067 17.87H8.38168C6.43668 17.87 4.84668 19.565 4.84668 21.635C4.84668 23.705 6.43668 25.4 8.38168 25.4H26.4067C28.3517 25.4 29.9417 23.705 29.9417 21.635C29.9417 19.565 28.3517 17.87 26.4067 17.87Z" fill="#E59600"/>
<path d="M17.3968 4.55499C11.6568 4.55499 6.3418 10.695 6.3418 19.525C6.3418 28.31 11.8168 32.655 17.3968 32.655C22.9768 32.655 28.4518 28.31 28.4518 19.525C28.4518 10.695 23.1368 4.55499 17.3968 4.55499Z" fill="#FFCA28"/>
<path d="M20.1718 26.27C19.1218 26.895 15.6768 26.895 14.6268 26.27C14.0218 25.91 13.4068 26.46 13.6568 27.01C13.9018 27.55 15.7818 28.8 17.4068 28.8C19.0318 28.8 20.8868 27.55 21.1318 27.01C21.3868 26.46 20.7768 25.91 20.1718 26.27Z" fill="#795548"/>
<path d="M18.6668 23.6C18.6318 23.585 18.5968 23.575 18.5618 23.575H16.2268C16.1918 23.58 16.1568 23.59 16.1218 23.6C15.9118 23.685 15.7918 23.905 15.8968 24.14C15.9968 24.375 16.4618 25.03 17.3968 25.03C18.3318 25.03 18.7968 24.375 18.8968 24.14C18.9968 23.905 18.8818 23.685 18.6668 23.6Z" fill="#E59600"/>
<path d="M11.9768 22.27C12.8743 22.27 13.6018 21.5156 13.6018 20.585C13.6018 19.6544 12.8743 18.9 11.9768 18.9C11.0793 18.9 10.3518 19.6544 10.3518 20.585C10.3518 21.5156 11.0793 22.27 11.9768 22.27Z" fill="#404040"/>
<path d="M22.8169 22.27C23.7144 22.27 24.4419 21.5156 24.4419 20.585C24.4419 19.6544 23.7144 18.9 22.8169 18.9C21.9194 18.9 21.1919 19.6544 21.1919 20.585C21.1919 21.5156 21.9194 22.27 22.8169 22.27Z" fill="#404040"/>
<path d="M9.47683 17.755C9.47683 17.755 10.3668 16.58 11.9618 16.58C13.5568 16.58 14.4668 17.77 14.4668 17.77C14.6318 18.005 14.5818 18.325 14.3468 18.495C14.2068 18.595 14.0318 18.615 13.8768 18.565C13.8768 18.565 13.3918 18.345 12.9368 18.235C12.4818 18.125 11.9818 18.09 11.4868 18.145C10.7368 18.23 10.1218 18.55 10.1218 18.55C9.64683 18.745 9.18683 18.185 9.47683 17.755Z" fill="#6D4C41"/>
<path d="M25.3167 17.755C25.3167 17.755 24.4267 16.58 22.8317 16.58C21.2367 16.58 20.3267 17.77 20.3267 17.77C20.1617 18.005 20.2117 18.325 20.4467 18.495C20.5867 18.595 20.7617 18.615 20.9167 18.565C20.9167 18.565 21.4017 18.345 21.8567 18.235C22.3117 18.125 22.8117 18.09 23.3067 18.145C24.0567 18.225 24.6667 18.55 24.6667 18.55C25.1467 18.745 25.6017 18.185 25.3167 17.755Z" fill="#6D4C41"/>
<path d="M17.4368 2.59998H17.4318H17.4268C2.55679 2.67998 5.60179 19.665 5.60179 19.665C5.60179 19.665 6.26679 21.415 6.57179 22.19C6.61679 22.3 6.77679 22.29 6.80179 22.17C7.12179 20.75 8.26179 15.715 8.83679 14.185C9.17679 13.285 10.1118 12.76 11.0618 12.93C12.5168 13.195 14.8418 13.52 17.4018 13.52C17.4118 13.52 17.4218 13.52 17.4318 13.52C17.4418 13.52 17.4518 13.52 17.4618 13.52C20.0218 13.52 22.3418 13.195 23.8018 12.93C24.7518 12.76 25.6868 13.285 26.0268 14.185C26.6018 15.71 27.7368 20.715 28.0568 22.155C28.0818 22.275 28.2468 22.285 28.2918 22.17L29.2668 19.66C29.2618 19.665 32.3068 2.67998 17.4368 2.59998Z" fill="#543930"/>
<path d="M29.2616 19.665C29.2616 19.665 32.3066 2.67998 17.4366 2.59998H17.4316H17.4266C17.1966 2.59998 16.9666 2.60498 16.7466 2.61498C16.3016 2.63498 15.8766 2.66998 15.4666 2.71498C15.4616 2.71498 15.4566 2.71498 15.4566 2.71498C15.4266 2.71998 15.4016 2.72498 15.3716 2.72498C2.84664 4.30498 5.60164 19.665 5.60164 19.665L6.57664 22.18C6.62164 22.29 6.78164 22.28 6.80664 22.165C7.12664 20.73 8.26664 15.715 8.84164 14.19C9.18164 13.29 10.1166 12.765 11.0666 12.935C12.5216 13.2 14.8466 13.525 17.4066 13.525C17.4166 13.525 17.4266 13.525 17.4366 13.525C17.4466 13.525 17.4566 13.525 17.4666 13.525C20.0266 13.525 22.3466 13.2 23.8066 12.935C24.7566 12.765 25.6916 13.29 26.0316 14.19C26.6066 15.725 27.7516 20.765 28.0666 22.18C28.0916 22.295 28.2516 22.31 28.2966 22.195C28.5916 21.42 29.2616 19.665 29.2616 19.665Z" fill="url(#paint2_radial_5_542)"/>
<path d="M47.5418 2.59998C34.0368 2.59998 34.1468 15.085 34.1468 15.285C34.1468 23.37 34.7668 34.795 38.0018 39.29C39.2868 41.07 41.7668 41.17 41.7668 41.17L47.3568 41.16L52.9468 41.17C52.9468 41.17 55.4268 41.07 56.7118 39.29C59.9468 34.795 60.5668 23.37 60.5668 15.285C60.5618 15.085 61.0468 2.59998 47.5418 2.59998Z" fill="#543930"/>
<path d="M47.5418 2.59998C34.0368 2.59998 34.1468 15.085 34.1468 15.285C34.1468 23.37 34.7668 34.795 38.0018 39.29C39.2868 41.07 41.7668 41.17 41.7668 41.17L47.3568 41.16L52.9468 41.17C52.9468 41.17 55.4268 41.07 56.7118 39.29C59.9468 34.795 60.5668 23.37 60.5668 15.285C60.5618 15.085 61.0468 2.59998 47.5418 2.59998Z" fill="url(#paint3_radial_5_542)"/>
<path d="M54.2367 34.2C52.1617 33.71 49.9667 33.425 47.7067 33.425C46.2267 33.425 44.7217 33.545 43.1967 33.81C37.2567 34.835 32.6667 38.56 32.6667 44.7V62.5H33.4167H34.1667H62.6667V41.015V39.845V39.02C60.7467 36.615 57.6417 35.01 54.2367 34.2Z" fill="url(#paint4_linear_5_542)"/>
<path d="M47.3567 37.58C45.4217 37.58 43.8567 36.015 43.8567 34.08V30.87H50.8567V34.08C50.8567 36.015 49.2917 37.58 47.3567 37.58Z" fill="#E59600"/>
<path d="M58.6667 48.5V62.5H59.1667H59.6467H62.6667V49.5V49V48.5H58.6667Z" fill="url(#paint5_linear_5_542)"/>
<path d="M47.3567 6.42499C41.6767 6.42499 36.4167 10.65 36.4167 19.605C36.4167 26.8 40.8717 31.055 44.7517 32.425C45.6767 32.75 46.5667 32.915 47.3617 32.915C48.1467 32.915 49.0367 32.75 49.9517 32.43C53.8317 31.065 58.3017 26.805 58.3017 19.605C58.2967 10.645 53.0367 6.42499 47.3567 6.42499Z" fill="#FFCA28"/>
<path d="M50.1019 26.27C49.0619 26.89 45.6569 26.89 44.6169 26.27C44.0219 25.915 43.4119 26.46 43.6569 27C43.9019 27.535 45.7619 28.77 47.3669 28.77C48.9719 28.77 50.8069 27.535 51.0519 27C51.3019 26.455 50.7019 25.915 50.1019 26.27Z" fill="#795548"/>
<path d="M48.6168 23.6C48.5818 23.585 48.5468 23.58 48.5118 23.575H46.2018C46.1668 23.58 46.1318 23.59 46.0968 23.6C45.8868 23.685 45.7718 23.9 45.8718 24.13C45.9718 24.36 46.4318 25.01 47.3568 25.01C48.2818 25.01 48.7418 24.36 48.8418 24.13C48.9418 23.9 48.8268 23.685 48.6168 23.6Z" fill="#E59600"/>
<path d="M41.9917 22.23C42.8781 22.23 43.5967 21.4846 43.5967 20.565C43.5967 19.6455 42.8781 18.9 41.9917 18.9C41.1053 18.9 40.3867 19.6455 40.3867 20.565C40.3867 21.4846 41.1053 22.23 41.9917 22.23Z" fill="#404040"/>
<path d="M52.7217 22.23C53.6081 22.23 54.3267 21.4846 54.3267 20.565C54.3267 19.6455 53.6081 18.9 52.7217 18.9C51.8353 18.9 51.1167 19.6455 51.1167 20.565C51.1167 21.4846 51.8353 22.23 52.7217 22.23Z" fill="#404040"/>
<path d="M44.3818 17.575C44.0768 17.17 43.3668 16.58 41.9918 16.58C40.6168 16.58 39.9068 17.17 39.6018 17.575C39.4668 17.755 39.5018 17.96 39.5968 18.085C39.6818 18.2 39.9418 18.31 40.2268 18.215C40.5118 18.12 41.0668 17.83 41.9968 17.825C42.9268 17.83 43.4818 18.12 43.7668 18.215C44.0518 18.31 44.3068 18.205 44.3968 18.085C44.4818 17.965 44.5168 17.755 44.3818 17.575Z" fill="#6D4C41"/>
<path d="M55.1118 17.575C54.8068 17.17 54.0968 16.58 52.7218 16.58C51.3468 16.58 50.6368 17.17 50.3318 17.575C50.1968 17.755 50.2318 17.96 50.3268 18.085C50.4118 18.2 50.6718 18.31 50.9568 18.215C51.2418 18.12 51.7968 17.83 52.7268 17.825C53.6568 17.83 54.2118 18.12 54.4968 18.215C54.7818 18.31 55.0368 18.205 55.1268 18.085C55.2118 17.965 55.2468 17.755 55.1118 17.575Z" fill="#6D4C41"/>
<path d="M47.5418 2.59998C34.0368 2.59998 34.1468 15.085 34.1468 15.285C34.1468 17.84 34.2068 20.725 34.3968 23.625L38.2768 31.39C38.2768 31.39 37.6068 25.305 37.5318 21.18C37.5218 20.65 37.4318 19.32 37.6868 18.16C38.0818 17.18 38.6018 16.42 39.2718 16.27C46.6318 14.615 50.8018 10.71 50.8018 10.71C51.8868 13.075 55.2718 15.385 56.4918 16.26C56.8368 16.51 57.0968 17.315 57.2918 18.315C57.3968 19.35 57.3568 20.485 57.3468 21.15L56.3418 31.37L60.3168 23.63C60.3168 23.615 60.3218 23.595 60.3268 23.58C60.5118 20.7 60.5718 17.83 60.5718 15.29C60.5618 15.085 61.0468 2.59998 47.5418 2.59998Z" fill="#543930"/>
<path d="M47.5418 2.59998C34.0368 2.59998 34.1468 15.085 34.1468 15.285C34.1468 17.84 34.2068 20.725 34.3968 23.625L36.6068 23.62C36.5868 22.66 37.2618 16.715 39.2668 16.265C46.6268 14.61 50.7968 10.705 50.7968 10.705C51.8818 13.07 55.2668 15.38 56.4868 16.255C57.4868 16.975 57.7918 22.365 57.7718 23.625H60.3068C60.3068 23.61 60.3118 23.59 60.3168 23.575C60.5018 20.695 60.5618 17.825 60.5618 15.285C60.5618 15.085 61.0468 2.59998 47.5418 2.59998Z" fill="url(#paint6_radial_5_542)"/>
<path opacity="0.4" d="M32.6767 44.7C32.6767 38.56 27.8417 34.835 21.9017 33.81C20.9817 33.65 20.1667 33.55 19.1667 33.49V62.5H46.1667V33.475C45.1667 33.53 44.2017 33.64 43.2167 33.81C37.2767 34.835 32.6767 38.56 32.6767 44.7Z" fill="url(#paint7_radial_5_542)"/>
<path d="M43.4518 61.49C43.4518 56.57 37.1968 54.92 35.0168 54.92H30.3268C28.1518 54.92 21.8868 56.57 21.8868 61.49C21.8868 61.49 21.8818 61.885 21.8718 62.5H22.3818H22.8668H42.4618H42.9518H43.4618C43.4568 61.99 43.4518 61.49 43.4518 61.49Z" fill="#B2EBF2"/>
<path d="M32.6668 58.65C31.3718 58.65 30.3218 57.6 30.3218 56.305V54.505H35.0168V56.305C35.0118 57.6 33.9618 58.65 32.6668 58.65Z" fill="#E59600"/>
<path d="M40.0367 45.105H38.0517H27.2867H25.2967C23.7067 45.105 22.4067 46.355 22.4067 47.885C22.4067 49.415 23.7067 50.665 25.2967 50.665H27.2817H38.0467H40.0317C41.6217 50.665 42.9217 49.415 42.9217 47.885C42.9217 46.355 41.6267 45.105 40.0367 45.105Z" fill="#E59600"/>
<path d="M32.6668 33.635C28.0018 33.635 23.6868 38.535 23.6868 45.585C23.6868 52.595 28.1368 56.065 32.6668 56.065C37.1968 56.065 41.6468 52.6 41.6468 45.585C41.6468 38.53 37.3318 33.635 32.6668 33.635Z" fill="#FFCA28"/>
<path d="M34.8269 50.945C34.0069 51.43 31.3269 51.43 30.5069 50.945C30.0369 50.665 29.5569 51.095 29.7519 51.52C29.9419 51.94 31.4069 52.915 32.6719 52.915C33.9369 52.915 35.3819 51.94 35.5719 51.52C35.7719 51.09 35.2969 50.665 34.8269 50.945Z" fill="#795548"/>
<path d="M33.6567 48.86C33.6317 48.85 33.6017 48.84 33.5717 48.84H31.7567C31.7267 48.845 31.7017 48.85 31.6717 48.86C31.5067 48.925 31.4167 49.095 31.4967 49.28C31.5767 49.46 31.9367 49.97 32.6667 49.97C33.3967 49.97 33.7567 49.46 33.8367 49.28C33.9117 49.095 33.8217 48.925 33.6567 48.86Z" fill="#E59600"/>
<path d="M28.3968 48.845C29.0955 48.845 29.6618 48.2585 29.6618 47.535C29.6618 46.8115 29.0955 46.225 28.3968 46.225C27.6982 46.225 27.1318 46.8115 27.1318 47.535C27.1318 48.2585 27.6982 48.845 28.3968 48.845Z" fill="#404040"/>
<path d="M36.9369 48.845C37.6355 48.845 38.2019 48.2585 38.2019 47.535C38.2019 46.8115 37.6355 46.225 36.9369 46.225C36.2382 46.225 35.6719 46.8115 35.6719 47.535C35.6719 48.2585 36.2382 48.845 36.9369 48.845Z" fill="#404040"/>
<path d="M26.4168 45.205C26.4668 45.14 26.4818 45.1 26.5718 45.01C26.7718 44.8 27.1618 44.55 27.5418 44.42C27.9068 44.295 28.0768 44.295 28.3518 44.295C28.7768 44.295 29.0368 44.385 29.1618 44.42C29.3368 44.48 29.5018 44.56 29.6668 44.65C29.9418 44.815 30.5368 45.22 30.3568 45.585C30.1568 45.99 29.8518 45.84 29.5768 45.735C29.4568 45.7 28.9168 45.485 28.3468 45.485C28.0368 45.485 27.9068 45.52 27.8268 45.53C27.4618 45.59 27.1868 45.705 27.1368 45.72C26.9468 45.795 26.8118 45.905 26.5968 45.82C26.3668 45.72 26.2718 45.42 26.4168 45.205Z" fill="#6D4C41"/>
<path d="M38.9169 45.205C38.8669 45.14 38.8519 45.1 38.7619 45.01C38.5669 44.8 38.1719 44.55 37.7919 44.42C37.4269 44.295 37.2569 44.295 36.9819 44.295C36.5569 44.295 36.2969 44.385 36.1719 44.42C35.9969 44.48 35.8319 44.56 35.6669 44.65C35.3919 44.815 34.7969 45.22 34.9769 45.585C35.1769 45.99 35.4819 45.84 35.7569 45.735C35.8769 45.7 36.4169 45.485 36.9869 45.485C37.2969 45.485 37.4269 45.52 37.5069 45.53C37.8719 45.59 38.1469 45.705 38.1969 45.72C38.3869 45.795 38.5219 45.905 38.7319 45.82C38.9669 45.72 39.0619 45.42 38.9169 45.205Z" fill="#6D4C41"/>
<path d="M32.7217 32.58C22.7567 32.58 22.0617 40.72 22.4667 44.28C22.8217 47.425 24.4617 48.2 24.4617 48.2C24.4617 48.2 24.1367 45.455 24.6617 43.465C25.0767 41.885 26.0617 40.715 26.0617 40.715C26.0617 40.715 27.8617 42.275 31.2117 43.29C32.8267 43.78 34.8967 43.535 34.8967 43.535L33.7367 41.485C33.7367 41.485 35.6367 42.88 36.8167 43.145C38.3317 43.485 39.4417 43.34 39.4417 43.34L38.8867 41.175C38.8867 41.175 39.8517 41.805 40.5717 43.53C41.2917 45.255 40.8467 48.2 40.8467 48.2C40.8467 48.2 42.5767 47.43 42.8567 44.28C43.2017 40.335 42.6417 32.58 32.7217 32.58Z" fill="#543930"/>
<path d="M32.7217 32.58C22.7567 32.58 22.0617 40.72 22.4667 44.28C22.8217 47.425 24.4617 48.2 24.4617 48.2C24.4617 48.2 24.1367 45.455 24.6617 43.465C25.0767 41.885 26.0617 40.715 26.0617 40.715C26.0617 40.715 27.8617 42.275 31.2117 43.29C32.8267 43.78 34.8967 43.535 34.8967 43.535L33.7367 41.485C33.7367 41.485 35.6367 42.88 36.8167 43.145C38.3317 43.485 39.4417 43.34 39.4417 43.34L38.8867 41.175C38.8867 41.175 39.8517 41.805 40.5717 43.53C41.2917 45.255 40.8467 48.2 40.8467 48.2C40.8467 48.2 42.5767 47.43 42.8567 44.28C43.2017 40.335 42.6417 32.58 32.7217 32.58Z" fill="url(#paint8_radial_5_542)"/>
<defs>
<linearGradient id="paint0_linear_5_542" x1="17.6667" y1="62.1485" x2="17.6667" y2="34.3848" gradientUnits="userSpaceOnUse">
<stop stop-color="#009E89"/>
<stop offset="1" stop-color="#00BFA5"/>
</linearGradient>
<linearGradient id="paint1_linear_5_542" x1="4.98305" y1="62.832" x2="4.3967" y2="49.2392" gradientUnits="userSpaceOnUse">
<stop offset="0.6037" stop-color="#FFCA28"/>
<stop offset="1" stop-color="#FFB300"/>
</linearGradient>
<radialGradient id="paint2_radial_5_542" cx="0" cy="0" r="1" gradientUnits="userSpaceOnUse" gradientTransform="translate(17.431 16.6939) scale(12.4669 14.0652)">
<stop offset="0.7945" stop-color="#6D4C41" stop-opacity="0"/>
<stop offset="1" stop-color="#6D4C41"/>
</radialGradient>
<radialGradient id="paint3_radial_5_542" cx="0" cy="0" r="1" gradientUnits="userSpaceOnUse" gradientTransform="translate(47.3564 20.8948) scale(15.6515 18.6268)">
<stop offset="0.7936" stop-color="#6D4C41" stop-opacity="0"/>
<stop offset="1" stop-color="#6D4C41"/>
</radialGradient>
<linearGradient id="paint4_linear_5_542" x1="47.6667" y1="62.1485" x2="47.6667" y2="34.217" gradientUnits="userSpaceOnUse">
<stop stop-color="#530EEB"/>
<stop offset="1" stop-color="#651FFF"/>
</linearGradient>
<linearGradient id="paint5_linear_5_542" x1="60.879" y1="60.4208" x2="60.2926" y2="46.8281" gradientUnits="userSpaceOnUse">
<stop offset="0.6037" stop-color="#FFCA28"/>
<stop offset="1" stop-color="#FFB300"/>
</linearGradient>
<radialGradient id="paint6_radial_5_542" cx="0" cy="0" r="1" gradientUnits="userSpaceOnUse" gradientTransform="translate(47.4666 22.2218) scale(16.3942 19.8944)">
<stop offset="0.7945" stop-color="#6D4C41" stop-opacity="0"/>
<stop offset="1" stop-color="#6D4C41"/>
</radialGradient>
<radialGradient id="paint7_radial_5_542" cx="0" cy="0" r="1" gradientUnits="userSpaceOnUse" gradientTransform="translate(32.6667 47.9872) scale(13.552 19.7425)">
<stop offset="0.5941" stop-color="#212121"/>
<stop offset="1" stop-color="#616161" stop-opacity="0.05"/>
</radialGradient>
<radialGradient id="paint8_radial_5_542" cx="0" cy="0" r="1" gradientUnits="userSpaceOnUse" gradientTransform="translate(32.6282 43.5089) rotate(90) scale(12.8536 11.2149)">
<stop offset="0.7945" stop-color="#6D4C41" stop-opacity="0"/>
<stop offset="1" stop-color="#6D4C41"/>
</radialGradient>
</defs>
</svg>
