<svg width="65" height="64" viewBox="0 0 65 64" fill="none" xmlns="http://www.w3.org/2000/svg">
<path d="M3.83179 33.185V62.045H61.8618V33.075C61.8618 33.075 50.2518 25.065 49.7168 24.99C49.1818 24.915 33.5868 10.64 33.5868 10.64L16.3968 24.505L3.83179 33.185Z" fill="#F8C778"/>
<path d="M3.83179 33.155H17.5318L17.5168 62.015H19.7918L19.8068 26.88L33.2468 15.05L46.8068 27.45L46.7718 62.015H48.9018L48.9368 32.99L61.8618 33.08V31.355L50.0718 25.035L34.3018 11.18L16.8918 24.75L3.84179 31.505L3.83179 33.155Z" fill="#F5B03F"/>
<path d="M7.21675 21.285C7.12675 21.43 3.64175 31.04 3.57675 31.24C3.51175 31.44 3.67675 31.675 4.07675 31.71C4.47675 31.745 18.2718 31.71 18.2718 31.71L18.2318 25.82C18.2318 25.82 33.0418 12.49 33.2068 12.49C33.3718 12.49 48.2968 26.165 48.3318 26.37C48.3668 26.57 48.3968 31.48 48.3968 31.48C48.3968 31.48 61.5218 31.58 61.7918 31.615C62.0618 31.65 62.1268 31.28 61.8918 30.58C61.6567 29.88 58.9168 21.43 58.7168 21.295C58.5168 21.16 47.6968 21.16 47.6968 21.16C47.6968 21.16 34.1418 8.68002 33.9068 8.48002C33.6718 8.28002 32.9718 7.97502 32.3518 8.59502C31.8068 9.14002 18.2868 21.26 18.2868 21.26C18.2868 21.26 7.31675 21.115 7.21675 21.285Z" fill="#A62714"/>
<path d="M22.6217 40.295L22.6167 62.035H43.7967V40.295C43.7967 40.295 22.6217 40.24 22.6217 40.295Z" fill="#CF6150"/>
<path d="M2.48684 62.125C2.67184 62.405 4.83184 62.275 10.5868 62.305C16.3418 62.335 18.0168 62.325 18.3168 62.265C18.6118 62.205 18.8518 60.91 18.6568 59.785C18.4418 58.55 17.7018 57.385 16.5018 57.01C14.8968 56.51 13.9068 56.97 13.1368 56.7C12.3668 56.435 10.1118 55.305 7.82684 55.455C5.86684 55.58 4.47184 56.155 3.25684 57.945C1.95184 59.87 2.36684 61.945 2.48684 62.125Z" fill="#7DB240"/>
<path d="M63.7118 62.005C64.0068 61.8 63.9818 56.12 60.0318 55.685C57.0668 55.36 56.2918 56.635 55.7918 56.635C55.2868 56.635 53.3668 55.7 50.7168 56.725C47.4218 58 47.4818 61.71 47.6018 62.065C47.7218 62.42 51.1318 62.33 55.8168 62.36C60.5018 62.39 63.3268 62.275 63.7118 62.005Z" fill="#7DB240"/>
<path d="M6.45166 34.815H15.7967V42.34H6.32666C6.32666 42.34 6.38666 34.875 6.45166 34.815Z" fill="#3E737C"/>
<path d="M6.32683 45.855H15.6318V53.135H6.24683C6.24683 53.14 6.28683 45.815 6.32683 45.855Z" fill="#3E737C"/>
<path d="M7.86669 36.19H14.2167V41.165H7.78669C7.78669 41.165 7.74169 36.23 7.86669 36.19Z" fill="#A7D0D7"/>
<path d="M7.58179 47.07H14.2968V51.885H7.58179C7.58179 51.885 7.58179 47.03 7.58179 47.07Z" fill="#A7D0D7"/>
<path d="M50.5017 35.26H59.8067V42.745H50.4617C50.4617 42.745 50.5017 35.14 50.5017 35.26Z" fill="#3E737C"/>
<path d="M51.7966 36.555H58.4716V41.41H51.7966C51.7966 41.41 51.7966 36.47 51.7966 36.555Z" fill="#A7D0D7"/>
<path d="M50.3816 46.3H59.6466V53.38H50.3816C50.3816 53.38 50.3216 46.365 50.3816 46.3Z" fill="#3E737C"/>
<path d="M51.8368 47.595V51.965H58.1868V47.555C58.1868 47.555 51.7768 47.535 51.8368 47.595Z" fill="#A7D0D7"/>
<path d="M25.6967 62.045L25.6917 42.665H40.9417V62.045C40.9417 62.045 25.7367 62.045 25.6967 62.045Z" fill="#3E737C"/>
<path d="M39.1368 46.62V44.07C39.1368 44.07 27.5318 44.07 27.5768 44.07V46.62H39.1368Z" fill="#A7D0D7"/>
<path d="M39.1367 47.895H27.5767V54.53H39.1367V47.895Z" fill="#A7D0D7"/>
<path d="M39.1367 55.895H27.5767V59.365H39.1367V55.895Z" fill="#A7D0D7"/>
<path d="M32.8066 47.325V60.38H34.1266V47.19C34.1266 47.19 32.8966 47.325 32.8066 47.325Z" fill="#3E737C"/>
<path d="M32.8967 20.03C27.7117 20.075 24.2367 23.94 24.5017 28.91C24.7567 33.74 28.5917 36.77 33.0267 36.645C37.6867 36.515 41.0267 32.775 41.1567 28.34C41.2867 23.905 37.6867 19.99 32.8967 20.03Z" fill="#3E737C"/>
<path d="M32.7667 21.525C28.5467 21.525 25.7317 24.735 25.9117 28.6C26.0817 32.33 28.5917 35.15 32.9017 35.15C36.8567 35.15 39.4567 31.9 39.5367 28.555C39.6217 24.905 36.8967 21.525 32.7667 21.525Z" fill="white"/>
<path d="M31.5368 28.73C31.5368 28.73 29.0868 30.79 28.9518 31.03C28.8168 31.27 28.8218 31.665 29.1468 31.93C29.4768 32.195 29.8018 32.04 30.0018 31.885C30.1968 31.73 32.7818 29.61 32.7818 29.61C32.7818 29.61 33.6168 29.595 33.8118 28.605C33.9668 27.815 33.3968 27.445 33.3968 27.445C33.3968 27.445 33.3068 22.715 33.2668 22.365C33.2318 22.105 32.9618 21.86 32.7218 21.885C32.4818 21.905 32.2418 22.04 32.2168 22.43C32.1918 22.82 32.1668 27.35 32.1668 27.35C32.1668 27.35 31.8168 27.48 31.6218 27.855C31.4268 28.225 31.5368 28.73 31.5368 28.73Z" fill="#2F2F2F"/>
</svg>
