<svg width="65" height="65" viewBox="0 0 65 65" fill="none" xmlns="http://www.w3.org/2000/svg">
<path d="M32.5168 20.515C18.6318 20.515 13.0518 6.90001 13.0518 6.90001C12.4418 5.73001 12.1568 4.23501 13.0368 3.21001C13.1018 3.13501 13.1668 3.07001 13.2318 3.00501C14.3268 1.99501 15.9768 2.57501 16.5368 4.06001C17.6718 7.07001 22.1618 13.375 32.4318 13.375C43.0518 13.375 47.8368 6.46001 48.8668 3.87001C49.0818 3.32501 49.4568 2.86501 49.9518 2.67001C50.7418 2.36001 51.6518 2.57001 52.2818 3.30001C53.1618 4.32001 52.9318 5.44001 52.2718 6.99001C52.2718 6.99001 46.4018 20.515 32.5168 20.515Z" fill="#F44336"/>
<path d="M33.0216 44.485C46.9066 44.485 52.4866 58.1 52.4866 58.1C53.0966 59.27 53.3816 60.765 52.5016 61.79C52.4366 61.865 52.3716 61.93 52.3066 61.995C51.2116 63.005 49.5616 62.425 49.0016 60.94C47.8666 57.93 43.3766 51.625 33.1066 51.625C22.4866 51.625 17.7016 58.54 16.6716 61.13C16.4566 61.675 16.0816 62.135 15.5866 62.33C14.7966 62.64 13.8866 62.43 13.2566 61.7C12.3766 60.68 12.6066 59.56 13.2666 58.01C13.2666 58.01 19.1316 44.485 33.0216 44.485Z" fill="#F44336"/>
<path d="M44.6519 32.31C44.6519 18.645 58.2669 13.155 58.2669 13.155C59.4369 12.555 60.9319 12.275 61.9569 13.14C62.0319 13.2 62.0969 13.265 62.1619 13.335C63.1719 14.41 62.5919 16.035 61.1069 16.585C58.0969 17.705 51.7919 22.12 51.7919 32.225C51.7919 42.675 58.7069 47.385 61.2969 48.395C61.8419 48.605 62.3019 48.975 62.4969 49.46C62.8069 50.24 62.5969 51.135 61.8669 51.755C60.8469 52.62 59.7269 52.395 58.1769 51.75C58.1769 51.745 44.6519 45.97 44.6519 32.31Z" fill="#F44336"/>
<path d="M20.6818 32.605C20.6818 46.27 7.06676 51.76 7.06676 51.76C5.89676 52.36 4.40176 52.64 3.37676 51.775C3.30176 51.715 3.23676 51.65 3.17176 51.58C2.16176 50.505 2.74176 48.88 4.22676 48.33C7.23676 47.21 13.5418 42.795 13.5418 32.69C13.5418 22.24 6.62676 17.53 4.03676 16.52C3.49176 16.31 3.03176 15.94 2.83676 15.455C2.52676 14.675 2.73676 13.78 3.46676 13.16C4.48676 12.295 5.60676 12.52 7.15676 13.165C7.15676 13.165 20.6818 18.94 20.6818 32.605Z" fill="#F44336"/>
</svg>
