<svg width="65" height="64" viewBox="0 0 65 64" fill="none" xmlns="http://www.w3.org/2000/svg">
<path d="M1.90313 32.34C2.24313 44.54 10.3981 62.115 32.6281 61.89C54.2881 61.67 63.0081 43.74 62.3281 30.86C61.6431 17.98 51.4981 2.13001 31.4331 2.24501C11.3631 2.35501 1.53313 19.225 1.90313 32.34Z" fill="url(#paint0_radial_5_743)"/>
<path d="M31.8482 2.24001C31.8482 2.24001 31.6232 2.87501 32.9332 3.27501C34.2432 3.67501 34.9382 3.70001 35.8732 4.13001C36.8082 4.55501 37.3682 5.22501 38.7032 5.92001C40.0382 6.61501 40.4932 6.77501 40.7332 6.29501C40.8432 6.08001 40.3882 5.12001 40.3882 5.12001C40.3882 5.12001 40.6032 4.21001 40.2832 3.89001C40.0132 3.62001 38.5232 3.01501 37.9882 2.80001C37.4882 2.60001 35.6932 2.38001 34.8332 2.32501C32.7232 2.19501 31.8482 2.24001 31.8482 2.24001Z" fill="white"/>
<path d="M24.8634 24.9C24.9084 25.015 25.1884 25.585 25.7484 25.74C26.3084 25.895 27.7884 25.925 28.1434 26.065C28.5034 26.205 29.3734 26.655 29.6084 26.795C29.8434 26.935 30.7584 27.705 30.9784 27.775C31.4934 27.945 31.7884 27.635 32.0234 27.715C32.2584 27.795 32.3984 28.245 32.8634 28.275C33.1434 28.295 33.5034 27.84 33.7684 27.79C34.0334 27.74 35.3884 27.85 35.4184 27.415C35.4484 26.98 34.4984 26.075 33.9384 26.075C33.4684 26.075 33.3934 26.48 33.0334 26.495C32.6734 26.51 32.4434 26.12 32.0234 26.135C31.6034 26.15 31.3834 26.51 31.1534 26.4C30.9184 26.29 28.4134 24.565 27.7584 24.375C27.1034 24.19 25.3934 24.42 25.1584 24.485C24.9284 24.56 24.7884 24.7 24.8634 24.9Z" fill="#7ADD8A"/>
<path d="M13.9284 10.625C14.3034 9.715 14.8934 8.34 15.6934 7.455C16.4984 6.57 17.8734 5.34 17.8734 5.34C17.8734 5.34 20.3234 4.055 24.0184 3.095C27.7134 2.135 31.2884 2.245 31.2884 2.245C31.2884 2.245 30.9784 2.535 31.0034 2.695C31.0284 2.855 31.0284 3.125 31.6734 3.365C32.3134 3.605 33.5984 3.765 33.9484 4.17C34.2984 4.57 34.4034 5.105 34.0034 5.375C33.6034 5.645 32.8784 5.56 32.1834 5.35C31.4884 5.135 31.5134 5.11 31.4334 4.87C31.3534 4.63 32.1284 4.52 32.0234 4.28C31.9184 4.04 31.5684 4.145 31.1684 3.93C30.7684 3.715 30.4784 3.665 30.2284 3.77C29.9784 3.875 29.7334 4.405 29.6234 4.67C29.5134 4.935 29.4534 5.025 29.3434 5.105C29.2334 5.185 28.5534 5.15 28.3684 5.165C28.1834 5.18 27.4534 5.52 27.0234 5.72C26.5884 5.92 25.6784 6.14 25.4734 6.31C25.2734 6.48 25.0884 6.76 25.4284 6.975C25.7684 7.19 26.5284 7.41 26.9784 7.565C27.4284 7.72 28.2184 7.735 28.3234 7.875C28.4334 8.015 28.3384 8.665 28.4184 8.76C28.4934 8.855 28.7884 9.24 28.9734 9.21C29.1584 9.18 29.4234 8.465 29.5284 8.25C29.6384 8.035 30.3784 7.785 30.3184 7.445C30.2584 7.105 29.9134 7.04 29.8984 6.84C29.8834 6.64 30.1284 6.22 30.1134 6.11C30.0984 6 30.1284 5.38 30.4534 5.32C30.7784 5.26 31.2284 5.505 31.5984 5.63C31.9684 5.755 32.3434 5.615 32.9134 6C33.4884 6.385 33.3634 6.68 33.6434 6.695C33.9234 6.71 33.9384 6.245 34.3084 6.185C34.6784 6.125 35.3784 6.82 36.2584 7.345C37.1384 7.87 38.3334 8.6 38.6884 9.11C39.0434 9.62 38.9184 9.745 39.1984 9.93C39.4784 10.115 40.4084 10.625 40.4534 10.845C40.4984 11.06 40.4384 11.355 39.5234 11.295C38.6084 11.235 38.2234 11 38.0034 10.77C37.7884 10.54 37.7734 10.32 37.8334 10.18C37.8934 10.04 38.1434 10.025 38.1434 10.025C38.1434 10.025 38.2834 9.45 37.9134 9.28C37.5434 9.11 37.1834 9 36.0384 9.185C34.8934 9.37 34.1184 9.635 33.9634 9.88C33.8084 10.13 33.9484 10.435 34.1484 10.435C34.3484 10.435 35.0784 10.015 35.3384 10.095C35.6034 10.17 35.3384 11.025 35.5384 11.15C35.7384 11.275 36.3434 11.21 36.6684 11.225C36.9934 11.24 37.3334 11.195 37.5034 11.455C37.6734 11.715 37.2084 11.965 36.7734 12.15C36.3384 12.335 35.7034 12.755 35.5184 12.91C35.3334 13.065 35.0234 13.205 34.8984 12.94C34.7734 12.675 34.9134 12.18 34.9134 12.18C34.9134 12.18 33.8584 12.6 33.6884 12.8C33.5184 13 33.7834 13.62 33.4384 13.945C33.0984 14.27 32.4934 14.02 32.1834 14.16C31.8734 14.3 31.3334 14.825 30.9734 15.26C30.6184 15.695 30.4334 15.925 30.4334 16.235C30.4334 16.545 30.7734 16.855 30.2184 17.32C29.6634 17.785 29.3684 17.675 28.8734 17.91C28.3784 18.14 27.6334 18.575 27.3384 19.225C27.0434 19.875 27.4134 21.175 27.4784 21.625C27.5384 22.075 27.7584 23.08 27.2484 23.095C26.7384 23.11 26.6734 22.785 26.3034 21.78C25.9334 20.775 25.7934 20.325 25.5134 20.185C25.2334 20.045 24.8784 20.17 24.2584 20.245C23.6384 20.32 21.1434 20.43 20.6334 20.43C20.1234 20.43 19.4734 20.275 18.8984 21.02C18.3234 21.765 18.3734 22.18 18.3584 22.74C18.3434 23.3 18.1584 23.47 17.8934 23.95C17.6284 24.43 17.5534 25.76 17.6434 25.98C17.7384 26.195 18.5284 27.065 18.6634 27.065C18.8034 27.065 20.0884 27.125 20.3034 27.05C20.5184 26.975 20.7684 26.665 20.8934 26.355C21.0184 26.045 20.9684 25.78 21.3134 25.44C21.6584 25.1 22.1184 25.145 22.4134 25.13C22.7084 25.115 22.9384 25.055 23.2034 25.02C23.4684 24.99 23.8684 25.39 23.8534 25.53C23.8384 25.67 23.2634 26.26 23.1084 26.585C22.9534 26.91 22.9534 26.91 22.9534 26.91C22.9534 26.91 22.8434 27.405 22.7034 27.62C22.5634 27.835 22.4534 28.055 22.3334 28.21C22.2084 28.365 22.2884 28.66 22.5484 28.72C22.8134 28.78 22.7634 28.58 22.8584 28.535C22.9534 28.49 24.4384 28.52 24.7484 28.55C25.0584 28.58 25.5234 29.03 25.5684 29.185C25.6134 29.34 25.6284 30.255 25.4584 30.72C25.2884 31.185 25.0084 31.43 24.9784 31.605C24.9484 31.775 25.0234 32.04 25.0234 32.04C25.0234 32.04 25.2534 32.475 25.5984 32.8C25.9384 33.125 26.3084 33.325 26.3084 33.325C26.3084 33.325 27.0984 33.325 27.5184 33.31C27.9384 33.295 28.2284 33.235 28.5084 33.435C28.7884 33.635 29.2834 34.225 29.3934 34.21C29.5034 34.195 29.6584 33.59 30.5234 32.895C31.3884 32.2 31.7334 32.12 32.2434 32.045C32.7534 31.97 32.8484 32.2 32.8484 32.2C32.8484 32.2 33.0784 32.4 33.4834 32.23C33.8884 32.06 33.8384 31.81 34.4584 31.845C35.0784 31.88 35.4634 32.215 35.8834 32.325C36.3034 32.435 37.0934 32.495 37.9284 32.54C38.7634 32.585 39.2734 32.465 39.5834 32.51C39.8934 32.555 40.1584 32.915 40.3284 33.065C40.4984 33.22 40.4984 33.47 40.4984 33.47C40.4984 33.47 40.8234 33.545 41.1334 33.765C41.4434 33.98 41.7384 34.525 42.1234 34.68C42.5084 34.835 43.2084 34.755 44.0284 34.805C44.8484 34.85 45.0834 34.945 45.4984 35.345C45.9134 35.745 46.1634 36.275 46.3184 36.725C46.4734 37.175 46.7034 38.21 46.7034 38.21C46.7034 38.21 47.3084 38.025 48.2534 38.41C49.1984 38.795 49.2734 39.185 49.2734 39.185C49.2734 39.185 50.7434 39.14 51.1484 39.155C51.5534 39.17 52.6034 39.885 52.7134 40.13C52.8234 40.38 52.6034 42.285 52.6384 42.575C52.6684 42.87 51.5534 44.465 51.2734 44.73C50.9934 44.995 50.8084 45.305 50.3734 46.54C49.9384 47.775 49.6284 48.6 49.3984 48.83C49.1684 49.06 48.4384 49.93 47.6784 50.3C46.9184 50.67 46.4684 50.61 45.9584 50.855C45.4484 51.105 45.0584 51.91 44.8134 52.465C44.5634 53.02 44.7184 53.705 44.5834 53.92C44.4434 54.135 42.6634 55.885 42.3234 55.995C41.9834 56.105 40.3884 55.825 40.1234 56.04C39.8584 56.255 40.4484 56.875 40.3884 57.08C40.3284 57.28 39.8134 57.825 39.3684 58.165C38.9184 58.505 38.5334 59 38.2234 59.05C37.9134 59.095 37.5284 58.88 37.2184 59.235C36.9084 59.59 37.2484 60.165 37.1084 60.41C36.9684 60.66 36.6484 60.885 36.4634 61.225C36.2784 61.565 36.1434 61.685 36.1434 61.685C36.1434 61.685 34.7334 61.81 33.8934 61.855C33.0584 61.9 31.3634 61.88 31.3634 61.88C31.3634 61.88 31.7434 61.135 31.7934 60.39C31.8434 59.645 31.6084 59.245 31.7634 58.81C31.9184 58.375 32.4134 57.865 32.4134 57.865C32.4134 57.865 32.7684 56.16 32.7384 55C32.7084 53.84 32.5684 53.155 32.5534 52.94C32.5384 52.725 32.6634 48.885 32.5984 48.65C32.5384 48.42 31.7134 47.985 31.3134 47.63C30.9084 47.275 29.8134 46.795 29.5184 46.345C29.2234 45.895 29.1484 45.725 29.0384 45.555C28.9284 45.385 28.0934 43.885 27.8934 43.495C27.6934 43.11 27.1984 42.765 26.9934 42.225C26.7884 41.685 26.7934 41.235 26.9484 41.065C27.1034 40.895 27.3534 40.755 27.3034 40.555C27.2584 40.355 26.8084 40.325 26.9634 39.67C27.1184 39.015 27.6584 38.43 27.7984 38.305C27.9384 38.18 28.0484 38.32 28.1834 38.195C28.3234 38.07 29.1884 37.33 29.2984 37.19C29.4084 37.05 29.3734 36.06 29.2234 35.64C29.0684 35.22 28.4484 34.54 28.2184 34.465C27.9884 34.39 27.4284 35.04 26.9334 35.02C26.4384 35.005 26.1134 35.02 25.3384 34.525C24.5634 34.03 23.4784 33.07 23.2484 32.665C23.0184 32.26 23.1084 32.11 22.9684 31.89C22.8284 31.675 22.1034 31.285 21.6984 31.085C21.2934 30.885 20.8784 30.945 20.6434 30.79C20.4084 30.635 19.2784 29.38 19.0634 29.12C18.8484 28.855 18.6584 28.78 18.5084 28.765C18.3584 28.75 18.2134 28.965 18.0884 28.995C17.9634 29.025 16.9584 29.04 16.8034 28.965C16.6484 28.89 15.4384 28.27 14.8384 27.71C14.2384 27.15 13.4734 26.765 13.1334 26.3C12.7934 25.835 13.1484 25.34 13.1934 25.09C13.2384 24.84 13.1784 23.915 13.1484 23.59C13.1184 23.265 12.5584 22.675 12.4834 22.025C12.4084 21.375 12.1884 20.725 12.1284 20.415C12.0684 20.105 12.0984 19.02 12.0184 18.96C11.9434 18.9 11.5534 18.745 11.4634 19.425C11.3734 20.105 11.5884 20.615 11.6334 21.39C11.6784 22.165 11.6784 22.63 11.7884 22.86C11.8984 23.09 12.2684 23.57 11.9734 23.725C11.6784 23.88 11.2934 23.555 11.0734 23.12C10.8584 22.685 11.0284 21.865 10.8434 21.465C10.6584 21.065 10.5934 20.275 10.5484 19.885C10.5034 19.5 10.3334 18.52 10.3784 17.67C10.4234 16.82 10.6884 16.74 10.6884 16.74C10.6884 16.74 10.6884 15.75 10.7034 15.55C10.7184 15.35 11.7084 13.49 12.5134 12.455C13.3384 11.43 13.9284 10.625 13.9284 10.625Z" fill="#7ADD8A"/>
<path d="M21.1433 28.315C21.2233 27.055 20.5383 26.98 20.3233 27.055C20.1083 27.13 18.8233 27.07 18.6833 27.07C18.5433 27.07 17.7533 26.205 17.6633 25.985C17.5683 25.77 17.6483 24.435 17.9133 23.955C18.1783 23.475 18.3633 23.305 18.3783 22.745C18.3933 22.185 18.3483 21.77 18.9183 21.025C19.4933 20.28 20.1433 20.435 20.6533 20.435C21.1633 20.435 23.6583 20.325 24.2783 20.25C24.8983 20.175 25.2533 20.05 25.5333 20.19C25.8133 20.33 25.9533 20.78 26.3233 21.785C26.6933 22.79 26.7583 23.115 27.2683 23.1C27.7783 23.085 27.5633 22.08 27.4983 21.63C27.4383 21.18 27.0633 19.88 27.3583 19.23C27.6533 18.58 28.3983 18.145 28.8933 17.915C29.3883 17.685 29.6833 17.79 30.2383 17.325C30.7933 16.86 30.4533 16.55 30.4533 16.24C30.4533 15.93 30.6383 15.7 30.9933 15.265C31.3483 14.83 31.8933 14.305 32.2033 14.165C32.5133 14.025 33.1183 14.275 33.4583 13.95C33.7983 13.625 33.5333 13.005 33.7083 12.805C33.8783 12.605 34.9333 12.185 34.9333 12.185C34.9333 12.185 34.7933 12.68 34.9183 12.945C35.0433 13.21 35.3533 13.07 35.5383 12.915C35.7233 12.76 36.3583 12.34 36.7933 12.155C37.2283 11.97 37.6933 11.72 37.5233 11.46C37.3533 11.2 37.0133 11.245 36.6883 11.23C36.3633 11.215 35.7583 11.275 35.5583 11.155C35.3583 11.03 35.6183 10.18 35.3583 10.1C35.0933 10.025 34.3683 10.44 34.1683 10.44C33.9683 10.44 33.8283 10.13 33.9833 9.88501C34.1383 9.63501 29.1683 9.17501 28.9833 9.20501C28.7983 9.23501 28.5033 8.85001 28.4283 8.75501C28.3533 8.66001 28.4433 8.01001 28.3333 7.87001C28.2233 7.73001 27.4333 7.71501 26.9883 7.56001C26.5383 7.40501 25.7783 7.19001 25.4383 6.97001C25.0983 6.75001 25.2833 6.47501 25.4833 6.30501C25.6833 6.13501 26.5983 5.92001 27.0333 5.71501C27.4683 5.51501 28.1933 5.17501 28.3783 5.16001C28.5633 5.14501 29.2433 5.17501 29.3533 5.10001C29.4633 5.02501 29.5233 4.93001 29.6333 4.66501C29.7433 4.40001 29.9883 3.87501 30.2383 3.76501C30.4883 3.65501 31.0433 2.85501 31.0183 2.69501C30.9933 2.53501 31.3033 2.24501 31.3033 2.24501C31.3033 2.24501 27.7283 2.13001 24.0333 3.09501C20.3383 4.06001 17.8883 5.34001 17.8883 5.34001C17.8883 5.34001 16.5133 6.57001 15.7083 7.45501C14.9033 8.34001 14.3183 9.71501 13.9433 10.625C13.9433 10.625 13.3533 11.43 12.5483 12.47C11.7433 13.51 10.7533 15.365 10.7383 15.565C10.7233 15.765 10.7233 16.755 10.7233 16.755C10.7233 16.755 10.4583 16.83 10.4133 17.685C10.3683 18.535 10.5383 19.51 10.5833 19.9C10.6283 20.285 10.6933 21.075 10.8783 21.48C11.0633 21.885 10.8933 22.705 11.1083 23.135C11.3233 23.57 11.7133 23.895 12.0083 23.74C12.3033 23.585 11.9333 23.105 11.8233 22.875C11.7133 22.645 11.7133 22.18 11.6683 21.405C11.6233 20.63 11.4033 20.12 11.4983 19.44C11.5933 18.76 11.9783 18.915 12.0533 18.975C12.1283 19.035 12.0983 20.12 12.1633 20.43C12.2233 20.74 12.4433 21.39 12.5183 22.04C12.5933 22.69 13.1533 23.28 13.1833 23.605C13.2133 23.93 13.2783 24.86 13.2283 25.105C13.1833 25.355 12.8233 25.85 13.1683 26.315C13.5083 26.78 14.2683 27.165 14.8733 27.725C15.4783 28.285 16.6833 28.9 16.8383 28.98C16.9933 29.055 17.9983 29.04 18.1233 29.01C18.2483 28.98 18.3883 28.76 18.5433 28.78C18.6983 28.8 19.3533 29.35 19.6283 29.305C20.1033 29.22 21.0833 29.245 21.1433 28.315Z" fill="url(#paint1_radial_5_743)"/>
<path d="M29.2482 35.635C29.3082 36.075 29.4332 37.045 29.3232 37.185C29.2132 37.325 28.3482 38.07 28.2082 38.19C28.0682 38.315 27.9582 38.175 27.8232 38.3C27.6832 38.425 27.1432 39.01 26.9882 39.665C26.8332 40.32 27.2832 40.345 27.3282 40.55C27.3732 40.755 27.1282 40.89 26.9732 41.06C26.8182 41.23 26.8182 41.68 27.0182 42.22C27.2182 42.76 27.7132 43.105 27.9182 43.49C28.1182 43.875 28.9582 45.38 29.0632 45.55C29.1732 45.72 29.2482 45.89 29.5432 46.34C29.8382 46.79 30.9382 47.27 31.3382 47.625C31.7432 47.98 32.5632 48.415 32.6232 48.645C32.6832 48.875 32.5632 52.72 32.5782 52.935C32.5932 53.15 32.7332 53.835 32.7632 54.995C32.7932 56.155 32.4382 57.86 32.4382 57.86C32.4382 57.86 31.9432 58.37 31.7882 58.805C31.6332 59.24 31.8632 59.64 31.8182 60.385C31.7732 61.13 31.3882 61.875 31.3882 61.875C31.3882 61.875 33.0782 61.895 33.9182 61.85C34.7532 61.805 36.1682 61.68 36.1682 61.68C36.1682 61.68 36.3032 61.56 36.4882 61.22C36.6732 60.88 36.9932 60.655 37.1332 60.405C37.2732 60.155 36.9332 59.585 37.2432 59.23C37.5532 58.875 37.9382 59.09 38.2482 59.045C38.5582 59 38.9432 58.505 39.3932 58.16C39.8432 57.82 40.3532 57.275 40.4132 57.075C40.4732 56.875 39.8882 56.255 40.1482 56.035C40.4132 55.82 42.0082 56.095 42.3482 55.99C42.6882 55.88 44.4682 54.13 44.6082 53.915C44.7482 53.7 44.5932 53.015 44.8382 52.46C45.0882 51.905 45.2532 43.04 42.6082 39.19C39.5132 34.68 28.9532 33.365 29.2482 35.635Z" fill="url(#paint2_radial_5_743)"/>
<path d="M29.2582 35.655C29.3182 36.095 29.4432 37.065 29.3332 37.205C29.2232 37.345 28.3582 38.09 28.2182 38.21C28.0782 38.335 27.9682 38.195 27.8332 38.32C27.6932 38.445 27.1532 39.03 26.9982 39.685C26.8432 40.34 27.2932 40.365 27.3382 40.57C27.3832 40.775 27.1382 40.91 26.9832 41.08C26.8282 41.25 26.8282 41.7 27.0282 42.24C27.2282 42.78 27.7232 43.125 27.9282 43.51C28.1282 43.895 28.9682 45.4 29.0732 45.57C29.1782 45.74 29.2582 45.91 29.5532 46.36C29.8482 46.81 30.9482 47.29 31.3482 47.645C31.7532 48 32.5732 48.435 32.6332 48.665C32.6932 48.895 32.5732 52.74 32.5882 52.955C32.6032 53.17 32.7432 53.855 32.7732 55.015C32.8032 56.175 32.4482 57.88 32.4482 57.88C32.4482 57.88 31.9532 58.39 31.7982 58.825C31.6432 59.26 31.8732 59.66 31.8282 60.405C31.7832 61.15 31.3982 61.895 31.3982 61.895C31.3982 61.895 33.0882 61.915 33.9282 61.87C34.7632 61.825 36.1782 61.7 36.1782 61.7C36.1782 61.7 36.3132 61.58 36.4982 61.24C36.6832 60.9 37.0032 60.675 37.1432 60.425C37.2832 60.175 36.9432 59.605 37.2532 59.25C37.5632 58.895 37.9482 59.11 38.2582 59.065C38.5682 59.02 38.9532 58.525 39.4032 58.18C39.8532 57.84 40.3632 57.295 40.4232 57.095C40.4832 56.895 39.8982 56.275 40.1582 56.055C40.4182 55.835 42.0182 56.115 42.3582 56.01C42.6982 55.9 44.4782 54.15 44.6182 53.935C44.7582 53.72 44.6032 53.035 44.8482 52.48C45.0982 51.925 45.2632 43.06 42.6182 39.21C39.5182 34.695 28.9582 33.385 29.2582 35.655Z" fill="url(#paint3_radial_5_743)"/>
<path d="M23.9382 11.07C24.0782 11.26 24.7132 11.03 25.0132 11.045C25.3132 11.06 25.6382 11.18 25.6782 11.455C25.7182 11.725 25.4182 11.77 25.2432 12.12C25.1532 12.3 24.5482 13.515 24.8782 13.655C25.3132 13.845 25.5282 13.41 25.6232 13.205C25.7182 13 25.9482 12.565 25.9482 12.565C25.9482 12.565 26.2082 11.995 26.5482 12.035C27.1582 12.105 26.9132 12.975 26.9132 12.975C26.9132 12.975 26.7782 13.625 27.1032 13.775C27.4282 13.925 27.7432 13.815 27.9182 13.75C28.0932 13.68 28.3932 13.75 28.7482 13.6C29.1032 13.45 29.2532 13.315 29.4932 13.22C29.7382 13.125 29.9532 13.18 29.9832 12.96C30.0082 12.745 29.7932 12.525 29.4282 12.5C29.0632 12.475 28.6132 12.895 28.4632 13.03C28.3132 13.165 27.8232 13.26 27.7682 12.91C27.7132 12.56 28.0282 12.53 28.2582 12.395C28.4882 12.26 28.6382 12.07 28.6382 12.07C28.6382 12.07 28.2182 11.525 28.0932 11.485C27.9732 11.445 27.4832 11.595 26.9932 11.255C26.5382 10.94 26.3532 10.51 26.2332 10.4C26.1132 10.29 25.5682 10.115 25.0382 10.225C24.5082 10.335 23.7182 10.77 23.9382 11.07Z" fill="#4B9EEC"/>
<defs>
<radialGradient id="paint0_radial_5_743" cx="0" cy="0" r="1" gradientUnits="userSpaceOnUse" gradientTransform="translate(22.3182 14.5324) rotate(51.2641) scale(45.4733 33.9018)">
<stop offset="0.506" stop-color="#17A1F3"/>
<stop offset="0.7668" stop-color="#1B7FFA"/>
<stop offset="0.9624" stop-color="#1366F0"/>
<stop offset="1" stop-color="#1160EE"/>
</radialGradient>
<radialGradient id="paint1_radial_5_743" cx="0" cy="0" r="1" gradientUnits="userSpaceOnUse" gradientTransform="translate(2.79773 19.4859) rotate(-11.3088) scale(20.1499 12.1462)">
<stop offset="0.3442" stop-color="#E3DDA6"/>
<stop offset="0.9961" stop-color="#E3DDA6" stop-opacity="0"/>
</radialGradient>
<radialGradient id="paint2_radial_5_743" cx="0" cy="0" r="1" gradientUnits="userSpaceOnUse" gradientTransform="translate(21.4273 53.7864) scale(15.7955 15.7955)">
<stop offset="0.7225" stop-color="#E3DDA6"/>
<stop offset="1" stop-color="#E3DDA6" stop-opacity="0"/>
</radialGradient>
<radialGradient id="paint3_radial_5_743" cx="0" cy="0" r="1" gradientUnits="userSpaceOnUse" gradientTransform="translate(31.7926 67.1079) scale(11.3409)">
<stop offset="0.4033" stop-color="#E3DDA6"/>
<stop offset="1" stop-color="#E3DDA6" stop-opacity="0"/>
</radialGradient>
</defs>
</svg>
