<svg width="65" height="65" viewBox="0 0 65 65" fill="none" xmlns="http://www.w3.org/2000/svg">
<path d="M32.3331 62.5C35.6716 62.5 38.3781 60.9039 38.3781 58.935C38.3781 56.9661 35.6716 55.37 32.3331 55.37C28.9945 55.37 26.2881 56.9661 26.2881 58.935C26.2881 60.9039 28.9945 62.5 32.3331 62.5Z" fill="#424242"/>
<path d="M32.3332 2.5C21.7932 2.5 13.2432 10.335 13.2432 19.995C13.2432 22.515 14.0032 25.21 15.1182 27.585C16.6832 30.925 18.3882 33.395 18.8882 34.305C20.2782 36.835 20.0782 39.5 20.4632 41.17C21.1882 44.29 23.3582 45.42 32.3282 45.42C41.2982 45.42 43.2282 44.345 44.0332 41.47C44.5832 39.515 44.0482 37.38 45.4332 34.855C45.9332 33.945 47.9682 30.93 49.5382 27.585C50.6532 25.21 51.4132 22.515 51.4132 19.995C51.4232 10.335 42.8732 2.5 32.3332 2.5Z" fill="#FFD600"/>
<path d="M32.3333 45.795C38.3918 45.795 43.3033 44.7966 43.3033 43.565C43.3033 42.3334 38.3918 41.335 32.3333 41.335C26.2747 41.335 21.3633 42.3334 21.3633 43.565C21.3633 44.7966 26.2747 45.795 32.3333 45.795Z" fill="#B26500"/>
<path d="M32.3333 45.795C38.3918 45.795 43.3033 44.7966 43.3033 43.565C43.3033 42.3334 38.3918 41.335 32.3333 41.335C26.2747 41.335 21.3633 42.3334 21.3633 43.565C21.3633 44.7966 26.2747 45.795 32.3333 45.795Z" fill="#B26500"/>
<path d="M32.3331 44.595C36.7487 44.595 40.3281 44.1339 40.3281 43.565C40.3281 42.9961 36.7487 42.535 32.3331 42.535C27.9176 42.535 24.3381 42.9961 24.3381 43.565C24.3381 44.1339 27.9176 44.595 32.3331 44.595Z" fill="#FFA000"/>
<path d="M26.9832 28.885C26.6732 29.665 25.8682 31.27 26.2882 31.99C27.2632 33.665 29.5882 34.265 29.5882 35.805C29.5882 38.155 27.8782 45.77 27.8782 45.77" stroke="#B26500" stroke-width="2" stroke-miterlimit="10"/>
<path d="M37.348 28.605C37.348 28.605 38.468 31.005 37.993 32.08C37.638 32.88 35.503 34.17 35.228 34.385C33.953 35.385 35.648 45.775 35.648 45.775" stroke="#B26500" stroke-width="2" stroke-miterlimit="10"/>
<path d="M26.9831 28.885C28.7031 25.485 29.5881 17.725 27.4031 18.12C23.7181 18.785 28.2581 31.535 30.4931 30.07C32.7281 28.605 35.4981 18.145 32.0981 18.105C28.6981 18.065 32.3281 31.435 34.6381 29.95C36.4631 28.775 40.9181 18.12 37.2581 18.12C34.1431 18.12 37.3531 28.605 37.3531 28.605" stroke="white" stroke-width="2" stroke-miterlimit="10"/>
<path d="M43.2781 44.03C43.2781 44.03 40.3981 45.42 32.3331 45.42C24.2681 45.42 21.3881 44.03 21.3881 44.03C21.3881 44.03 21.2081 46.6 21.8031 47.765C22.5181 49.165 23.0681 49.65 23.0681 49.65L23.3681 51.075L23.2481 51.45C23.0931 51.94 23.2031 52.48 23.5481 52.865L23.8081 53.155L24.0981 54.525L23.9981 54.8C23.8081 55.325 23.9381 55.91 24.3281 56.31L24.5181 56.505L24.7531 57.625C24.7531 57.625 25.9431 60.165 32.3331 60.165C38.7231 60.165 39.9131 57.625 39.9131 57.625L39.9331 57.53L40.0631 57.4C40.3231 57.145 40.4081 56.765 40.2831 56.425L40.2081 56.23L40.5181 54.75L41.0631 54.175C41.3331 53.89 41.3931 53.47 41.2181 53.12L40.9681 52.625L41.2831 51.14L41.4831 50.985C41.7781 50.66 41.7831 50.17 41.6531 49.835C41.5531 49.57 41.6331 49.27 41.8381 49.075C42.1531 48.775 42.5581 48.32 42.8581 47.755C43.4731 46.61 43.2781 44.03 43.2781 44.03Z" fill="#82AEC0"/>
<path d="M23.0681 49.65L23.3381 51.085C26.2481 51.07 30.1331 51.215 37.5881 50.03C38.9331 49.725 40.5481 49.12 38.7631 49.37C38.7631 49.365 31.9181 50.02 23.0681 49.65Z" fill="#2F7889"/>
<path d="M24.0681 54.535C27.2881 54.48 33.8681 54.16 40.9381 52.625L41.2531 51.14C33.8581 52.82 26.9031 53.12 23.7781 53.16L24.0681 54.535Z" fill="#2F7889"/>
<path d="M40.4882 54.745C33.9432 56.165 27.8182 56.53 24.5032 56.61L24.7182 57.63C24.7182 57.63 24.8232 60.795 32.2982 60.795C39.7732 60.795 39.8782 57.63 39.8782 57.63C39.8782 57.63 36.6882 58.54 32.7632 58.095C32.3632 58.05 32.3582 57.515 32.7582 57.465C35.1032 57.155 37.9032 56.695 40.1782 56.225L40.4882 54.745Z" fill="#2F7889"/>
<path d="M21.4231 44.03C21.4231 44.03 24.6531 45.42 32.3031 45.42C39.9531 45.42 43.2431 44.03 43.2431 44.03" stroke="#82AEC0" stroke-width="3.9971" stroke-miterlimit="10" stroke-linecap="round"/>
<path d="M25.2732 5.66C27.2282 5.18 29.2732 5.42 30.6732 7.12C31.0682 7.6 31.3732 8.17 31.4432 8.79C31.5832 9.985 30.8432 11.115 29.9632 11.945C27.4532 14.315 23.8882 15.465 22.2682 18.735C21.8882 19.5 21.5882 20.325 21.0082 20.95C20.4282 21.575 19.4632 21.955 18.7082 21.555C18.3082 21.345 18.0332 20.95 17.8082 20.555C16.3882 18.025 16.4932 14.8 17.7432 12.18C19.1182 9.31 22.1332 6.43 25.2732 5.66Z" fill="#FFFF8D"/>
<path d="M23.5581 46.465C23.1181 46.265 23.2931 45.605 23.7731 45.64C25.3831 45.765 28.1231 45.92 31.7481 45.92C35.5681 45.92 38.9281 45.635 40.8881 45.425C41.3731 45.375 41.5581 46.04 41.1131 46.245C39.6031 46.955 36.8381 47.765 32.0981 47.765C27.4731 47.765 24.9231 47.08 23.5581 46.465Z" fill="#FFD600"/>
<path d="M26.3032 51.515C25.9682 51.635 25.6232 51.8 25.4532 52.11C25.3932 52.225 25.3582 52.355 25.3832 52.485C25.4232 52.675 25.5982 52.81 25.7732 52.895C26.1232 53.065 26.5182 53.11 26.9032 53.115C27.6982 53.125 28.4882 52.975 29.2732 52.825C29.5082 52.78 29.7482 52.735 29.9582 52.62C30.1682 52.505 30.3482 52.31 30.3832 52.075C30.4332 51.76 30.2082 51.455 29.9332 51.305C28.9832 50.78 27.2632 51.17 26.3032 51.515Z" fill="#94D1E0"/>
<path d="M27.0483 54.81C26.7133 54.93 26.3683 55.095 26.1983 55.405C26.1383 55.52 26.1033 55.65 26.1283 55.78C26.1683 55.97 26.3433 56.105 26.5183 56.19C26.8683 56.36 27.2633 56.405 27.6483 56.41C28.4433 56.42 29.2333 56.27 30.0183 56.12C30.2533 56.075 30.4933 56.03 30.7033 55.915C30.9133 55.8 31.0933 55.605 31.1283 55.37C31.1783 55.055 30.9533 54.75 30.6783 54.6C29.7283 54.08 28.0033 54.47 27.0483 54.81Z" fill="#94D1E0"/>
<path d="M25.3381 42.6C25.7931 42.645 26.2731 42.605 26.6581 42.36C27.0431 42.115 27.2881 41.615 27.1331 41.185C27.0531 40.96 26.8781 40.78 26.7081 40.61C26.3331 40.24 25.9581 39.87 25.5881 39.5C25.1731 39.085 24.7581 38.675 24.3081 38.3C23.6131 37.72 22.6781 37.175 21.7631 37.6C20.9831 37.96 20.7981 38.67 21.1431 39.415C21.8781 40.98 23.5881 42.42 25.3381 42.6Z" fill="#FFFF8D"/>
</svg>
