<svg width="65" height="64" viewBox="0 0 65 64" fill="none" xmlns="http://www.w3.org/2000/svg">
<path d="M20.8382 57.34L15.7532 41.73L23.2632 42.175L23.6332 46.565C24.0932 47.43 25.1782 47.825 25.6382 48.69C25.8732 49.135 25.9132 49.66 25.8482 50.16C25.7132 51.195 25.1682 52.315 25.6982 53.22C26.3232 54.285 27.8832 54.59 27.8332 56.055C27.7832 57.395 21.4882 59.215 20.8382 57.34Z" fill="#C62828"/>
<path d="M20.0783 60.705L19.6033 60.87C17.7283 61.52 15.6833 60.53 15.0333 58.655L9.1333 41.64H17.2633C17.5533 42.47 17.6533 42.775 17.9483 43.605C18.2183 44.36 18.5883 44.735 18.3483 45.535C18.1083 46.325 17.9083 47.225 18.3183 47.995C18.7783 48.86 19.8633 49.255 20.3233 50.12C20.5583 50.565 20.5983 51.09 20.5333 51.59C20.3983 52.625 19.8533 53.745 20.3833 54.65C21.0083 55.715 22.5683 56.02 22.5183 57.485C22.4733 58.825 21.3383 60.27 20.0783 60.705Z" fill="#F44336"/>
<path d="M20.2233 53.09C20.0333 53.87 20.4983 53.975 20.9683 53.985C22.1133 54.015 23.6233 53.555 24.3683 53.22C24.6533 53.095 24.9183 52.93 25.1583 52.745C25.3383 52.605 25.4583 52.4 25.4733 52.175C25.5083 51.52 25.7583 50.825 25.8433 50.16C25.8783 49.885 25.8783 49.6 25.8333 49.33C25.7983 49.115 25.5483 49.005 25.3583 49.11C24.8783 49.375 24.0233 49.815 23.4533 49.93C22.3233 50.16 21.6283 50.14 21.1383 50.15C20.7733 50.155 20.4833 50.48 20.5333 50.84C20.5683 51.09 20.5633 51.345 20.5333 51.59C20.4683 52.08 20.3433 52.595 20.2233 53.09Z" fill="#A12524"/>
<path d="M22.5182 57.48C21.8482 59.61 20.1782 60.35 18.4332 60.465C16.7432 60.58 15.5732 59.635 15.5732 59.635C17.9932 63.275 24.2032 61.01 25.4632 60.32C27.3882 59.265 27.7082 58.195 27.8332 56.18C27.8432 56.055 27.6332 55.63 27.2382 55.95C26.6382 56.43 25.9582 56.605 25.1982 56.76C24.2632 56.95 23.7632 56.895 23.3832 56.92C22.8932 56.95 22.6482 57.06 22.5182 57.48Z" fill="#A12524"/>
<path d="M9.1333 41.64L10.6983 46.18C10.6983 46.18 11.6533 44.055 15.4533 44.445C18.0283 44.71 18.7983 45.61 18.7983 45.61L18.9633 41.77L9.1333 41.64Z" fill="#C62828"/>
<path d="M51.9133 55.32C51.9133 55.32 35.0083 42.805 20.9533 42.43C14.9083 42.27 10.5233 42.255 9.46825 42.255C6.15825 42.26 2.33325 37.555 2.33325 29.275C2.33325 20.995 6.63825 15.41 9.94825 15.41C10.4383 15.41 15.6733 15.72 22.0033 15.54C36.8933 15.12 51.9133 3.22998 51.9133 3.22998V55.32Z" fill="#E0E0E0"/>
<path d="M40.4032 36.73C39.8382 37.74 39.8282 40.04 39.9782 42.17C40.0882 43.695 38.5632 44.825 37.1382 44.265C27.4182 40.475 19.4382 40.815 19.4382 40.815L19.8232 42.4C20.1932 42.41 20.5682 42.42 20.9482 42.43C29.4382 42.655 38.9682 47.31 45.1832 50.965C45.1832 50.965 43.2632 48.205 42.2832 44.435C41.2682 40.505 40.4032 36.73 40.4032 36.73Z" fill="#BDBDBD"/>
<path d="M17.4683 29.275C17.4683 24.55 19.0133 19.25 20.9483 15.565C15.1033 15.685 10.4133 15.41 9.94825 15.41C6.63825 15.41 2.33325 20.995 2.33325 29.275C2.33325 37.555 6.15825 42.255 9.47325 42.255C10.5283 42.255 14.9133 42.27 20.9583 42.43C20.9933 42.43 21.0333 42.435 21.0683 42.435C18.8283 38.415 17.4683 33.985 17.4683 29.275Z" fill="#F44336"/>
<path d="M51.9132 55.32C57.668 55.32 62.3332 43.6592 62.3332 29.275C62.3332 14.8907 57.668 3.22998 51.9132 3.22998C46.1584 3.22998 41.4932 14.8907 41.4932 29.275C41.4932 43.6592 46.1584 55.32 51.9132 55.32Z" fill="#2F7889"/>
<path d="M41.9533 21.655C41.6583 24.065 41.4983 26.625 41.4983 29.28C41.4983 43.665 46.1633 55.325 51.9183 55.325C57.6733 55.325 62.3383 43.665 62.3383 29.28C62.3383 26.625 62.1783 24.07 61.8833 21.655H41.9533Z" fill="url(#paint0_linear_5_445)"/>
<path d="M51.9132 56.82C45.1182 56.82 39.9932 44.98 39.9932 29.275C39.9932 13.57 45.1182 1.72998 51.9132 1.72998C58.7082 1.72998 62.3332 13.575 62.3332 29.275C62.3332 44.98 58.7082 56.82 51.9132 56.82ZM51.9132 4.72998C47.6932 4.72998 42.9932 14.81 42.9932 29.275C42.9932 43.74 47.6932 53.82 51.9132 53.82C56.1332 53.82 60.8332 43.74 60.8332 29.275C60.8332 14.81 56.1332 4.72998 51.9132 4.72998Z" fill="#E0E0E0"/>
<path d="M45.1133 11.62C44.6633 12.84 43.0383 15.545 42.2883 24.445C42.2633 24.745 42.0983 26.065 41.3633 26.065C40.8733 26.065 40.7283 25.325 40.7283 24.305C40.7283 20.33 41.3883 15.945 42.9233 11.615C43.7933 9.16999 45.7383 9.93999 45.1133 11.62Z" fill="white"/>
<path d="M43.2833 23.245L52.7333 24.345V34.295L43.3533 35.985C42.7333 28.12 43.2833 23.245 43.2833 23.245Z" fill="url(#paint1_radial_5_445)"/>
<path d="M52.7333 34.3C54.0367 34.3 55.0933 32.0726 55.0933 29.325C55.0933 26.5774 54.0367 24.35 52.7333 24.35C51.4299 24.35 50.3733 26.5774 50.3733 29.325C50.3733 32.0726 51.4299 34.3 52.7333 34.3Z" fill="#E0E0E0"/>
<path d="M19.4482 43.7L19.0732 44.3499L20.6782 47.485C20.8732 47.865 21.2932 48.0749 21.7132 47.9949L24.4232 47.45C24.4232 47.45 25.1782 46.375 25.3232 46.13C25.4682 45.885 25.4132 45.74 25.4132 45.74L22.3332 46.33C22.3282 46.33 19.5482 43.73 19.4482 43.7Z" fill="#353738"/>
<path d="M21.4982 45.9799L19.4182 43.715L23.1632 43.7L25.2832 45.535C25.5382 45.805 25.3732 46.14 25.0082 46.2L22.9032 46.5299C22.3732 46.6099 21.8382 46.4049 21.4982 45.9799Z" fill="#616161"/>
<path d="M29.0883 18.765C32.2583 18.345 35.3883 17.38 38.0683 15.635C36.5133 19.81 35.7733 24.84 36.3483 29.265C34.8683 28.535 33.3733 27.805 31.7933 27.335C30.4733 26.945 29.1083 26.74 27.7433 26.58C24.3083 26.165 21.1283 26.1 17.6733 26.165C17.7733 26.165 18.0483 23.83 18.4683 22.09C18.8883 20.35 19.3183 19.34 19.3183 19.34C19.3183 19.34 26.0833 19.165 29.0883 18.765Z" fill="white"/>
<path d="M17.9734 19.125C13.1234 19.27 7.70837 19.335 7.70837 19.335C7.70837 19.335 5.26337 21.465 4.82837 26.16C4.82837 26.16 10.6034 26.16 15.8484 26.255C16.2184 22.875 17.3084 20.38 17.9734 19.125Z" fill="#FF7555"/>
<defs>
<linearGradient id="paint0_linear_5_445" x1="51.9153" y1="51.9134" x2="51.9153" y2="22.6108" gradientUnits="userSpaceOnUse">
<stop stop-color="#353738"/>
<stop offset="1" stop-color="#353738" stop-opacity="0"/>
</linearGradient>
<radialGradient id="paint1_radial_5_445" cx="0" cy="0" r="1" gradientUnits="userSpaceOnUse" gradientTransform="translate(50.9366 30.1237) scale(10.4588 17.7956)">
<stop offset="0.4156" stop-color="#82AEC0"/>
<stop offset="1" stop-color="#7FA9BB" stop-opacity="0"/>
</radialGradient>
</defs>
</svg>
