<svg width="65" height="65" viewBox="0 0 65 65" fill="none" xmlns="http://www.w3.org/2000/svg">
<path d="M49.8632 46.21C49.8632 46.21 42.3082 53.3 32.3182 53.3C22.3282 53.3 14.7782 46.21 14.7782 46.21C14.7782 46.21 13.3732 39.465 17.0032 27.82C18.9182 21.68 46.1682 21.055 48.3032 26.425C51.9332 35.54 49.8632 46.21 49.8632 46.21Z" fill="#424242"/>
<path d="M14.7782 46.21L17.1732 48.13C17.1732 48.13 17.1532 44.33 18.3282 40.785C18.7682 39.46 20.3382 38.905 21.5182 39.65L30.6632 45.385C31.6882 46.025 32.9782 46.035 34.0132 45.41C38.3832 42.76 49.7832 35.825 50.3032 35.4C50.3032 35.4 50.3032 34.545 50.0882 33.455L14.6482 33.5L14.7782 46.21Z" fill="#212121"/>
<path d="M61.7382 26.515L33.3382 43.43C32.7182 43.8 31.9432 43.8 31.3182 43.43L2.92819 26.515C2.13819 26.045 2.13819 24.9 2.92819 24.43L31.3282 7.51499C31.9482 7.14499 32.7232 7.14499 33.3482 7.51499L61.7482 24.43C62.5332 24.9 62.5332 26.045 61.7382 26.515Z" fill="#424242"/>
<path d="M32.3531 42.19C32.3481 42.19 32.3381 42.195 32.3331 42.195C32.2531 42.195 32.1731 42.175 32.1031 42.13L2.42309 25.02C2.42309 25.02 2.27809 25.295 2.42309 25.79C2.57309 26.285 2.80309 26.445 2.92809 26.52L31.3281 43.435C31.6381 43.62 31.9881 43.715 32.3381 43.715C32.3431 43.715 32.3531 43.715 32.3581 43.715V42.19H32.3531Z" fill="#9E9E9E"/>
<path d="M32.3331 42.19C32.3381 42.19 32.3481 42.195 32.3531 42.195C32.4331 42.195 32.5131 42.175 32.5831 42.13L62.2631 25.02C62.2631 25.02 62.4081 25.295 62.2631 25.79C62.1131 26.285 61.8831 26.445 61.7581 26.52L33.3581 43.435C33.0481 43.62 32.6981 43.715 32.3481 43.715C32.3431 43.715 32.3331 43.715 32.3281 43.715V42.19H32.3331Z" fill="#616161"/>
<path d="M18.0581 35.53L18.2181 34.125C18.2181 34.125 30.4731 27.46 31.6831 26.76C32.8931 26.06 34.1631 25.28 34.7281 24.655C35.7281 23.555 35.0081 22.865 35.0081 22.865C35.0081 22.865 34.2181 24.145 32.3331 23.92C31.2531 23.79 29.8481 22.915 29.6131 22.505C29.3781 22.095 15.7781 32.455 15.7781 32.455L15.6831 34.12L18.0581 35.53Z" fill="#424242"/>
<path d="M35.0081 22.87C33.6981 24.7 31.4781 23.9 31.4781 23.9C31.4781 23.9 24.5231 27.235 24.2631 26.73C24.0031 26.225 30.0081 23.135 30.0081 23.135C30.0081 23.135 29.6731 21.905 29.7081 21.38C29.7081 21.38 18.8481 28.29 14.7731 30.615C12.6381 31.835 12.1831 32.985 12.1881 34.605C12.1881 35.315 12.1981 37.62 12.2081 38.995C12.2081 39.25 12.0981 39.49 11.9031 39.65C11.3281 40.125 10.9581 40.84 10.9581 41.645C10.9581 42.41 11.2931 43.095 11.8231 43.57C12.1081 43.825 12.0481 44.375 12.0731 44.73C12.1231 45.41 12.0731 45.72 11.7931 46.35C11.5181 46.965 11.2631 47.595 11.0881 48.245C10.9531 48.745 10.8631 49.26 10.7731 49.77C10.1781 53.185 9.90811 56.835 8.33311 59.975C8.20811 60.22 8.30811 60.52 8.55811 60.645C8.62811 60.68 8.70811 60.7 8.78311 60.7C8.96811 60.7 9.14311 60.6 9.23311 60.425C10.0531 58.79 10.4781 57 10.8281 55.225C10.8081 56.83 10.7981 58.45 10.7431 60.2C10.7331 60.54 10.7081 61.225 11.0181 61.375C12.1831 61.94 12.1831 60.2 12.1831 60.2C12.1831 60.2 12.1981 61.765 13.7831 61.765C15.3681 61.765 15.4831 60.2 15.4831 60.2C15.4831 60.2 15.5981 61.635 16.4131 61.565C16.7431 61.535 17.1781 61.335 17.0231 59.62C16.8681 57.91 16.4831 51.78 16.3181 49.84C16.0881 47.155 15.2081 45.56 15.0281 44.61C14.9631 44.25 14.9581 43.875 15.2431 43.64C15.8181 43.165 16.1881 42.45 16.1881 41.645C16.1881 40.87 15.8481 40.175 15.3081 39.7C15.1031 39.52 14.9981 39.26 15.0181 38.99C15.1131 37.695 15.2181 35.815 15.3031 35.38C15.6731 33.425 16.6381 33.075 17.6281 32.495C18.6181 31.91 32.9581 25.4 33.7931 24.845C35.3381 23.81 35.0081 22.87 35.0081 22.87Z" fill="#E2A610"/>
<path d="M35.0082 22.87C33.7732 24.615 31.2082 23.835 31.2082 23.835C31.2082 23.835 24.6532 26.74 25.0882 26.215C25.5182 25.69 30.0082 23.135 30.0082 23.135C30.0082 23.135 29.6732 21.905 29.7082 21.38C29.7082 21.38 18.6582 27.765 14.3732 30.835C13.2682 31.63 11.8982 32.93 13.0132 34.225C13.5282 34.82 14.5232 34.945 15.1582 34.475C15.5432 34.195 15.8432 33.785 16.1832 33.46C16.6032 33.05 17.1132 32.79 17.6132 32.495C18.6032 31.91 32.9432 25.4 33.7782 24.845C35.3382 23.81 35.0082 22.87 35.0082 22.87Z" fill="#FFCA28"/>
<path d="M13.3881 46.43C12.7281 46.43 12.2831 46.375 11.8781 46.28C11.7281 46.245 11.6281 46.11 11.6381 45.955L11.7681 44.045C11.7831 43.85 11.9681 43.715 12.1581 43.77C12.6081 43.9 13.5081 44.03 14.9781 43.72C15.1581 43.68 15.3381 43.805 15.3581 43.99L15.5581 45.89C15.5731 46.045 15.4731 46.19 15.3231 46.225C14.5581 46.4 14.0031 46.43 13.3881 46.43Z" fill="#9E740B"/>
<path d="M49.8632 46.21C49.8632 46.21 50.7482 41.59 50.3932 36.675C50.3332 35.845 49.8232 35.13 49.4282 38.035C49.2032 39.7 48.7132 44.685 47.8782 47.8C49.1532 46.88 49.8632 46.21 49.8632 46.21Z" fill="#616161"/>
<path d="M33.1981 18.895C33.5631 19.01 33.8981 19.29 33.9931 19.665C34.1181 20.165 33.8031 20.665 33.4631 21.055C32.7981 21.82 31.8831 22.49 30.8681 22.455C30.5331 22.445 30.1731 22.335 29.9681 22.07C29.8231 21.885 29.7731 21.645 29.7581 21.41C29.6681 19.695 31.6081 18.395 33.1981 18.895Z" fill="#616161"/>
</svg>
