<svg width="65" height="64" viewBox="0 0 65 64" fill="none" xmlns="http://www.w3.org/2000/svg">
<path d="M6.70831 59.275C10.0333 62.6 14.0733 61.445 16.4083 58.785C18.7933 56.065 20.0633 54.485 20.0633 54.485C23.0383 50.105 35.3283 35.465 45.8183 24.93C47.2783 25.53 48.8283 25.845 50.3833 25.845C53.1533 25.845 55.9283 24.89 58.1483 22.975C60.8283 20.665 62.3383 17.32 62.2983 13.795C62.2933 13.55 62.1633 13.32 61.9483 13.2C61.7333 13.08 61.4733 13.08 61.2583 13.2L54.0333 17.37C50.5433 16.165 48.4783 12.575 49.1883 8.98497L56.3883 4.82997C56.6033 4.70497 56.7333 4.47997 56.7333 4.22997C56.7333 3.97997 56.6033 3.75497 56.3883 3.62997C51.7133 0.894973 45.7733 1.66497 41.9433 5.49497C39.6233 7.81497 38.3533 11.025 38.4583 14.3C38.5183 16.215 39.0233 18.035 39.9183 19.66C28.3283 31.215 14.1883 43.71 10.5083 46.5C10.5083 46.5 8.29331 48.105 6.17831 50.28C4.09331 52.425 3.31831 55.885 6.70831 59.275ZM9.14331 54.16C9.14331 52.69 10.3333 51.495 11.8083 51.495C13.2833 51.495 14.4733 52.685 14.4733 54.16C14.4733 55.63 13.2833 56.825 11.8083 56.825C10.3333 56.825 9.14331 55.63 9.14331 54.16Z" fill="#82AEC0"/>
<path d="M38.3334 21.235C38.8534 20.72 39.3834 20.2 39.9234 19.66C39.0284 18.035 38.5234 16.215 38.4634 14.3C38.4234 13 38.5984 11.715 38.9684 10.49C39.2984 9.94997 39.8184 9.36997 40.1484 9.71997C40.0134 13.975 41.2484 18.41 44.2084 21.47C45.6784 22.99 47.5884 24.085 49.6384 24.6C50.6484 24.855 51.6984 24.97 52.7434 24.91C53.3584 24.875 55.0784 24.24 55.4234 24.71C55.4234 24.71 55.4234 24.725 55.4234 24.73C53.8334 25.47 52.1084 25.84 50.3834 25.84C48.8284 25.84 47.2734 25.525 45.8184 24.925C42.4234 28.335 39.6134 31.405 37.2534 34.15C38.4334 31.92 41.9084 27.81 42.8384 26.24C43.0484 25.885 43.3384 24.975 42.6784 24.155C41.7434 23.005 39.8284 21.935 38.3334 21.235Z" fill="#2F7889"/>
<path d="M24.1734 38.875C24.4434 38.595 24.1884 38.125 23.8084 38.21C23.0984 38.365 22.0734 38.77 20.8534 39.76C18.4634 41.7 12.1534 46.94 11.3734 47.975C10.5934 49.01 13.7234 47.96 14.8234 47.765C15.7284 47.6 22.0334 41.1 24.1734 38.875Z" fill="#B9E4EA"/>
<path d="M46.0484 5.46498C44.7134 6.41998 43.5134 7.55498 42.2634 8.61998C41.9434 8.89498 41.4684 9.16998 41.1384 8.90998C40.7784 8.62498 41.0034 8.04998 41.2734 7.67998C43.6384 4.42998 48.0534 2.10498 52.3234 3.02998C50.0734 3.75498 48.0484 4.03498 46.0484 5.46498Z" fill="#B9E4EA"/>
<path d="M56.6633 16.62C56.1383 16.935 55.4083 17.355 54.9933 17.475C54.4883 17.615 53.0583 17.06 52.6433 16.73C54.3533 15.615 56.2583 14.37 57.9683 13.255C58.1633 13.13 58.3583 13 58.5833 12.93C58.8483 12.845 59.1383 12.855 59.4183 12.865C59.8083 12.885 61.7133 12.82 61.9383 13.155C62.1633 13.495 61.3733 13.825 61.1133 13.98C59.6283 14.865 58.1433 15.74 56.6633 16.62Z" fill="#2F7889"/>
<path d="M36.2334 35.0849L30.6384 28.6349C28.6134 30.5399 26.6084 32.3949 24.6934 34.15L26.3234 33.7949C27.0384 33.6449 27.7784 33.8649 28.2984 34.3799L30.9084 37.3049C31.4584 37.8549 31.5484 38.8099 31.3384 39.5599L31.0484 40.9449C32.6984 39.0399 34.4434 37.0649 36.2334 35.0849Z" fill="#2F7889"/>
<path d="M61.0282 58.355L57.6782 61.25C56.3882 62.365 54.4282 62.215 53.3232 60.925L13.6182 13L18.7232 9.15997L61.2832 54.045C62.4332 55.3 62.3132 57.245 61.0282 58.355Z" fill="#A06841"/>
<path d="M17.2483 17.38L26.6983 28.79C28.1733 26.57 28.9233 23.91 29.5283 20.55L20.4033 10.925C19.6633 11.53 19.0283 12.26 18.5383 13.08C17.7633 14.385 17.3583 15.865 17.2483 17.38Z" fill="#7D5133"/>
<path d="M35.9783 2.46998C27.3083 2.36998 24.0983 3.13998 19.2683 7.31498C17.8183 8.56498 16.3733 9.81498 14.9233 11.07C13.3483 12.43 11.2533 13.62 11.5833 15.97C11.7033 16.83 11.9683 17.7 11.8083 18.55C11.6533 19.355 10.7183 19.755 10.0533 19.295C9.42833 18.865 8.73833 18.335 7.96833 18.245C7.24833 18.165 6.48833 18.39 5.94333 18.875L2.58333 21.86C2.58333 21.86 2.10333 23.815 5.86333 28.07C9.62333 32.325 12.0433 32.02 12.0433 32.02L15.2033 29.24C15.7333 28.775 16.0083 28.09 15.9933 27.385C15.9783 26.56 15.4983 25.92 15.2083 25.18C15.1533 25.04 14.8383 24.54 15.3883 24.085C15.8783 23.66 16.8883 23.805 17.4633 23.96C18.0383 24.115 18.5883 24.36 19.1683 24.51C20.2983 24.805 20.8283 24.28 21.6133 23.605C22.3083 23.005 26.4933 19.39 27.8883 18.18C30.6733 15.77 26.4283 11.55 26.4283 11.55C24.4283 9.28498 36.5633 3.58998 36.5633 3.58998C37.4533 3.27998 37.1833 2.47998 35.9783 2.46998Z" fill="#82AEC0"/>
<path d="M19.1732 24.515C19.4082 24.575 19.6132 24.595 19.8032 24.59C19.8032 24.56 19.8032 24.525 19.8032 24.495C19.7532 23.955 19.4582 23.465 19.1582 23.01C17.2832 20.155 14.9532 17.605 12.2832 15.48C12.0632 15.305 11.8332 15.13 11.5932 14.98C11.5432 15.285 11.5332 15.615 11.5832 15.97C11.7032 16.83 11.9682 17.7 11.8082 18.55C11.6382 19.43 10.7182 19.675 10.0132 19.345C11.8482 20.53 13.4182 22.11 14.5632 23.97C14.7182 24.22 14.8732 24.485 15.0532 24.725C15.0782 24.48 15.1882 24.245 15.3932 24.09C15.8832 23.665 16.8932 23.81 17.4682 23.965C18.0482 24.115 18.5932 24.36 19.1732 24.515Z" fill="#2F7889"/>
<path d="M8.83322 25.575C11.4682 28.33 12.9482 31.185 12.1382 31.96C11.3332 32.73 8.54322 31.125 5.90822 28.375C3.27322 25.625 1.77822 22.635 2.58322 21.86C3.38822 21.09 6.19822 22.82 8.83322 25.575Z" fill="#2F7889"/>
<path d="M19.0882 11.34C21.1832 10.45 23.0482 8.53996 25.4882 6.43496C26.1832 5.83496 27.0682 5.26496 27.9732 4.83496C28.3132 4.67496 28.1882 4.16496 27.8132 4.16996C26.5582 4.18996 25.4382 4.56996 24.3382 5.04996C22.7982 5.71996 21.4382 6.73496 20.1282 7.78496C19.2282 8.50496 17.1182 10.285 15.7882 11.41C15.5382 11.62 15.7332 11.95 16.0582 11.95C16.9932 11.96 17.5182 12.01 19.0882 11.34Z" fill="#B9E4EA"/>
<path d="M5.89328 20.08C5.00828 21.075 6.13828 21.345 8.12328 22.985C9.52328 24.145 11.0133 23.07 11.0283 21.985C11.0383 21.01 10.7933 20.485 9.37828 19.595C7.96328 18.705 6.69328 19.18 5.89328 20.08Z" fill="#B9E4EA"/>
</svg>
