<svg width="65" height="64" viewBox="0 0 65 64" fill="none" xmlns="http://www.w3.org/2000/svg">
<path d="M55.8066 30.66L57.1216 35.08C57.1216 35.08 60.7416 34.28 60.9316 36.68C61.1216 39.08 57.5466 40.68 57.5466 40.68L58.6766 45.995C58.6766 45.995 62.6266 42.795 62.6766 38.19C62.6766 38.19 63.0066 32.545 59.6216 31.23C57.5016 30.425 55.8066 30.66 55.8066 30.66Z" fill="#F45125"/>
<path d="M35.0219 47.495C35.0219 47.495 29.4719 45.145 26.7919 48.485C26.4169 48.955 26.0869 49.425 25.7119 49.895C25.4319 50.27 25.1469 50.645 24.8669 50.975C24.6319 51.255 24.3519 51.54 24.0219 51.725C23.6919 51.915 23.3619 52.055 22.9869 52.15C22.5169 52.245 22.0469 52.245 21.5769 52.195C20.9169 52.15 20.2619 52.005 19.6019 51.865C19.3669 51.82 19.1769 51.77 18.9919 51.725C18.9469 51.725 18.8969 51.68 18.8519 51.68C18.8069 51.68 18.7569 51.635 18.7119 51.635C18.5219 51.68 18.8069 52.01 18.9019 52.105C19.0419 52.245 19.1819 52.435 19.3269 52.575C19.7519 52.95 20.1719 53.325 20.6919 53.565C21.3519 53.895 22.0569 54.08 22.7619 54.13C22.8069 54.13 22.9519 54.13 22.9969 54.175C23.0919 54.27 22.8569 54.41 22.7619 54.455C22.6219 54.55 22.5269 54.595 22.3869 54.645C21.9619 54.835 21.4919 54.925 21.0719 55.02C20.6469 55.115 20.2269 55.16 19.8469 55.16C19.6119 55.16 19.4219 55.205 19.2369 55.205C19.0969 55.205 18.9569 55.16 18.8119 55.205C18.6669 55.25 18.8569 55.44 18.9519 55.485C19.1419 55.58 19.3269 55.72 19.5169 55.815C20.0819 56.095 20.6469 56.33 21.2119 56.475C21.9619 56.665 22.7619 56.755 23.5169 56.665C24.1769 56.57 24.8319 56.385 25.4469 56.15C28.8319 54.6 28.5519 51.355 31.6569 51.07C33.9619 50.88 37.2069 52.105 37.2069 52.105L35.0219 47.495Z" fill="#F45125"/>
<path d="M10.5617 19.14C10.5617 19.14 4.49674 20.13 2.94174 25.535C0.971743 32.45 10.7967 34.75 10.7967 34.75L11.4067 30.045C11.4067 30.045 4.87174 29.385 5.24674 26.895C5.71674 23.79 11.1717 24.075 11.1717 24.075L10.5617 19.14Z" fill="#F45125"/>
<path d="M11.0318 35.46C11.0318 35.46 10.0918 35.74 8.72676 36.73C7.78676 37.39 6.51676 38.235 5.29176 39.695C4.68176 40.4 4.21176 41.245 3.88176 42.14C3.64676 42.75 3.55176 43.365 3.55176 44.02C3.55176 44.16 3.55176 44.3 3.55176 44.445C3.55176 44.49 3.55176 44.87 3.69176 44.775C3.73676 44.73 3.78676 44.585 3.83176 44.54C3.92676 44.305 4.06676 44.115 4.20676 43.93C4.63176 43.365 5.14676 42.85 5.71176 42.425C5.90176 42.285 6.08676 42.19 6.27676 42.095C6.41676 41.955 6.65176 41.765 6.74676 41.955C6.79176 42.05 6.70176 42.19 6.65176 42.285C6.60676 42.425 6.55676 42.615 6.55676 42.755C6.36676 43.505 6.27676 44.26 6.18176 45.01C6.13676 45.435 6.13676 45.855 6.18176 46.235C6.18176 46.425 6.22676 46.66 6.22676 46.845C6.22676 46.94 6.27176 47.035 6.27176 47.125C6.27176 47.22 6.36676 47.36 6.46176 47.22C6.50676 47.175 6.50676 47.125 6.55676 47.03C6.65176 46.89 6.69676 46.7 6.79176 46.56C7.02676 46.135 7.26176 45.715 7.54176 45.245C7.87176 44.68 8.24676 44.165 8.62176 43.695C9.04676 43.13 9.56176 42.565 10.0818 42.095C10.6468 41.58 11.2568 41.06 11.9168 40.635C12.2918 40.4 12.7168 40.165 13.1418 39.975L11.0318 35.46Z" fill="#F45125"/>
<path d="M58.8667 39.645C58.3017 36.87 57.5017 34.14 56.6117 31.415C55.8617 29.11 55.0617 26.76 53.6967 24.735C53.0867 23.84 52.1917 23.23 51.0617 22.805C48.8967 21.96 46.0767 21.815 44.1967 21.815C41.3767 21.815 38.4567 22.425 35.8267 23.65C34.8867 26.47 32.3017 33.62 28.3967 36.82C28.6317 38.135 28.9117 39.5 29.2917 40.82C29.9517 43.125 30.7967 45.43 31.5967 47.735C32.3467 49.945 33.2417 52.155 34.8867 53.85C35.3117 54.32 35.8267 54.695 36.2967 55.075C37.4267 56.015 38.7917 56.58 40.1517 57.05C41.4217 57.475 42.7367 57.8 44.0567 58.085C46.4067 58.6 49.7967 59.495 52.0967 58.415C53.3667 57.85 54.4017 56.955 55.2467 55.875C56.1417 54.745 56.8467 53.475 57.4567 52.16C58.3967 50.185 59.3867 47.975 59.5267 45.715C59.6617 43.69 59.2867 41.62 58.8667 39.645Z" fill="#FCC21B"/>
<path d="M39.4866 16.785C39.3466 16.27 38.9716 15.75 38.6866 15.28C35.5366 9.77499 28.6666 7.14499 22.5566 7.51999C20.6766 7.65999 17.9016 7.94499 15.7866 8.88499C14.7516 9.35499 13.8566 10.06 13.2916 10.955C12.0216 13.07 11.4116 15.425 10.7516 17.775C10.0016 20.5 9.34163 23.275 8.91663 26.1C8.54163 28.545 8.21163 31.225 8.87163 33.67C9.38663 35.6 10.5166 38.28 11.7416 39.83C13.1066 41.525 15.0316 43.5 17.1016 44.25C17.4766 44.39 17.9016 44.485 18.3266 44.58C19.1266 44.72 19.9716 44.815 20.7716 44.675C21.2416 44.58 21.7616 44.535 22.2316 44.395C23.1716 44.16 24.0666 43.83 24.9616 43.5C28.7216 41.995 31.7816 39.785 33.8016 36.21C34.6466 34.66 35.3516 33.01 36.0116 31.365C36.0566 31.27 36.1066 31.175 36.1066 31.085C37.0966 28.355 37.7516 25.49 38.4116 22.665C38.7416 21.3 39.1166 19.89 39.3066 18.48C39.4416 17.96 39.6266 17.35 39.4866 16.785Z" fill="#429ADF"/>
<path d="M12.2117 20.265C13.0567 18.715 15.0817 17.49 16.8667 17.725C17.1467 17.77 17.4767 17.82 17.7617 17.96C19.5467 18.71 20.6317 20.455 20.2067 22.24C20.1117 22.615 19.8767 22.665 19.5967 22.43C18.6067 21.585 17.8117 20.925 16.4917 20.595C15.4117 20.315 14.1867 20.455 13.1517 20.735C12.9167 20.78 12.5417 21.015 12.3067 20.925C11.9717 20.785 12.1167 20.455 12.2117 20.265Z" fill="#193D51"/>
<path d="M31.7717 32.45C31.2567 33.25 30.5467 33.955 29.8417 34.615C29.6517 34.755 29.5117 34.945 29.3267 35.085C26.5067 37.435 22.6967 38.61 19.0717 37.72C18.0817 37.485 17.0017 36.97 16.2017 36.355C15.5917 35.885 14.9767 35.275 14.4617 34.66C13.5217 33.53 12.8167 32.215 12.3467 30.85C12.1117 30.145 11.9717 29.485 11.8767 28.735C11.8767 28.5 11.5467 26.005 12.3017 26.335C12.4917 26.43 12.6317 26.57 12.7717 26.71C12.9117 26.9 13.0067 27.085 13.1467 27.225C13.4767 27.65 13.8067 28.07 14.1817 28.45C15.3567 29.815 16.8167 30.895 18.4617 31.65C19.5917 32.165 20.8117 32.45 22.0367 32.545C22.7417 32.59 23.4017 32.64 24.1067 32.59C26.6467 32.45 29.2317 31.695 31.5367 30.71C31.7267 30.615 31.9617 30.475 32.1967 30.475C32.9967 30.52 31.9167 32.26 31.7717 32.45Z" fill="#193D51"/>
<path d="M34.4567 25.58C34.4567 25.815 34.3617 26.145 34.0817 26.095C33.8467 26.05 33.6567 25.625 33.5167 25.485C32.8567 24.64 31.5867 23.7 30.3167 23.415C28.8117 23.04 27.6817 23.695 26.1767 23.84C25.7517 23.885 25.5167 23.7 25.7067 23.325C26.5067 21.585 28.6217 20.22 30.8317 20.595C31.2067 20.64 31.5367 20.735 31.8667 20.875C33.7967 21.68 34.5967 23.795 34.4567 25.58Z" fill="#193D51"/>
<path d="M46.5868 31.93C48.7018 33.295 51.4318 33.67 53.8768 33.53C54.5818 33.485 55.0068 33.575 54.8168 34.375C54.4418 36.02 52.8868 36.96 51.3818 37.29C51.0068 37.385 50.6318 37.385 50.2518 37.385C49.5468 37.34 48.8418 37.055 48.2318 36.635C46.9168 35.74 45.9268 34.19 45.6468 32.635C45.5068 31.835 45.7918 31.415 46.5868 31.93Z" fill="#9B7515"/>
<path d="M33.2768 40.395C32.6668 39.785 32.9968 39.5 33.6568 39.125C35.9118 37.95 38.1718 36.16 39.3468 33.81C39.7718 32.915 40.2418 33.105 40.5718 33.95C41.1368 35.5 41.0868 37.385 40.3818 38.89C40.0518 39.595 39.5818 40.205 38.9718 40.675C38.6418 40.91 38.3118 41.05 37.9368 41.19C36.3818 41.665 34.4568 41.62 33.2768 40.395Z" fill="#9B7515"/>
<path d="M55.6668 48.205C55.4768 48.205 55.1968 48.015 54.9618 47.875C54.7268 47.735 54.4918 47.545 54.3518 47.45C53.7868 47.17 53.1268 46.885 52.5168 46.7C50.6368 46.09 48.5668 46.09 46.7318 46.7C45.4168 47.125 44.1468 47.925 43.1118 48.865C41.9818 49.945 41.1368 51.265 40.0568 52.39C39.9168 52.53 39.7768 52.67 39.6318 52.765C39.3518 52.905 39.0668 52.72 38.9718 52.435C38.5018 50.46 39.8168 47.685 40.8068 45.99C41.9368 44.11 43.5818 42.605 45.6968 41.99C46.7318 41.66 47.8618 41.66 48.9418 41.8C52.0918 42.27 55.3368 44.765 55.9518 47.63C55.9468 47.875 55.9018 48.25 55.6668 48.205Z" fill="#9B7515"/>
</svg>
