<svg width="40" height="41" viewBox="0 0 40 41" fill="none" xmlns="http://www.w3.org/2000/svg">
<path d="M30.625 14.875C26.15 14.875 22.5 18.525 22.5 23C22.5 27.475 26.15 31.125 30.625 31.125C35.1 31.125 38.75 27.475 38.75 23C38.75 18.525 35.1 14.875 30.625 14.875ZM33.75 24.25H31.875V26.125C31.875 26.8125 31.3125 27.375 30.625 27.375C29.9375 27.375 29.375 26.8125 29.375 26.125V24.25H27.5C26.8125 24.25 26.25 23.6875 26.25 23C26.25 22.3125 26.8125 21.75 27.5 21.75H29.375V19.875C29.375 19.1875 29.9375 18.625 30.625 18.625C31.3125 18.625 31.875 19.1875 31.875 19.875V21.75H33.75C34.4375 21.75 35 22.3125 35 23C35 23.6875 34.4375 24.25 33.75 24.25Z" fill="#A78ED7"/>
<path d="M30.625 31.75C29.9375 31.75 29.375 32.3125 29.375 33C29.375 35.0625 27.6875 36.75 25.625 36.75H18.125C16.0625 36.75 14.375 35.0625 14.375 33V29.7C15.6375 29.3 16.5625 28.125 16.5625 26.7375V23.3375C18.55 22.675 20 20.825 20 18.6125V14.25H21.25C23.3125 14.25 25 12.5625 25 10.5V5.5C25 3.4375 23.3125 1.75 21.25 1.75C19.1875 1.75 17.5 3.4375 17.5 5.5V18.6125C17.5 19.9875 16.375 21.1125 15 21.1125H11.25C9.875 21.1125 8.75 19.9875 8.75 18.6125V5.5C8.75 3.4375 7.0625 1.75 5 1.75C2.9375 1.75 1.25 3.4375 1.25 5.5V10.5C1.25 12.5625 2.9375 14.25 5 14.25H6.25V18.6125C6.25 20.825 7.7 22.675 9.6875 23.3375V26.7375C9.6875 28.1375 10.6125 29.3 11.875 29.7V33C11.875 36.45 14.675 39.25 18.125 39.25H25.625C29.075 39.25 31.875 36.45 31.875 33C31.875 32.3125 31.3125 31.75 30.625 31.75ZM20 5.5C20 4.8125 20.5625 4.25 21.25 4.25C21.9375 4.25 22.5 4.8125 22.5 5.5V10.5C22.5 11.1875 21.9375 11.75 21.25 11.75H20V5.5ZM3.75 10.5V5.5C3.75 4.8125 4.3125 4.25 5 4.25C5.6875 4.25 6.25 4.8125 6.25 5.5V11.75H5C4.3125 11.75 3.75 11.1875 3.75 10.5ZM12.8125 27.3625C12.4625 27.3625 12.1875 27.0875 12.1875 26.7375V23.6125H14.0625V26.7375C14.0625 27.0875 13.7875 27.3625 13.4375 27.3625H12.8125Z" fill="#553597"/>
</svg>
