<svg width="41" height="41" viewBox="0 0 41 41" fill="none" xmlns="http://www.w3.org/2000/svg">
<path d="M39.2919 20.2625C35.9919 13.575 28.6794 9.25 20.6669 9.25C12.6544 9.25 5.35439 13.575 2.04189 20.2625C1.86689 20.6125 1.86689 21.025 2.04189 21.375C5.34189 28.0625 12.6544 32.3875 20.6669 32.3875C28.6794 32.3875 35.9794 28.0625 39.2919 21.375C39.4669 21.025 39.4669 20.6125 39.2919 20.2625ZM4.57939 20.8125C5.32939 19.4375 6.27939 18.1875 7.37939 17.0875C7.16689 18.15 7.0294 19.2375 7.0294 20.325C7.0294 21.8625 7.24189 23.3625 7.6544 24.7875C6.42939 23.625 5.37939 22.2875 4.57939 20.8V20.8125ZM11.6669 27.6625C10.2794 25.5125 9.5294 22.9875 9.5294 20.325C9.5294 18.2625 10.0044 16.2125 10.8794 14.3875C13.7419 12.7 17.1169 11.75 20.6544 11.75C24.1919 11.75 27.4169 12.65 30.2294 14.2625C31.1544 16.125 31.6544 18.2125 31.6544 20.325C31.6544 23.0375 30.8919 25.6 29.4544 27.775C26.8169 29.1125 23.8044 29.875 20.6669 29.875C17.5294 29.875 14.3419 29.075 11.6669 27.6625ZM33.4919 24.975C33.9294 23.4875 34.1669 21.9375 34.1669 20.3375C34.1669 19.1875 34.0294 18.0375 33.7794 16.925C34.9669 18.075 35.9669 19.375 36.7544 20.8125C35.9044 22.375 34.7919 23.7625 33.4919 24.975Z" fill="#553597"/>
<path d="M20.5919 13.3125C16.4544 13.3125 13.0919 16.675 13.0919 20.8125C13.0919 22.0125 13.3669 23.1625 13.9169 24.225C14.1294 24.6375 14.5419 24.9 15.0044 24.9C16.8419 24.9375 18.5169 25.975 19.3544 27.6125C19.5544 28 19.9919 28.2625 20.4294 28.2875C20.4544 28.2875 20.5544 28.2875 20.5919 28.2875C24.7294 28.2875 28.0919 24.925 28.0919 20.7875C28.0919 16.65 24.7294 13.2875 20.5919 13.2875V13.3125ZM21.1669 25.7625C19.9669 23.95 18.0419 22.75 15.8794 22.4625C15.6919 21.925 15.5919 21.375 15.5919 20.8C15.5919 18.0375 17.8294 15.8 20.5919 15.8C23.3544 15.8 25.5919 18.0375 25.5919 20.8C25.5919 23.3375 23.6919 25.45 21.1669 25.75V25.7625Z" fill="#A78ED7"/>
</svg>
