<svg width="40" height="41" viewBox="0 0 40 41" fill="none" xmlns="http://www.w3.org/2000/svg">
<path d="M37.5 36.75H24.375V23.625C24.375 21.9 22.975 20.5 21.25 20.5H18.75C17.025 20.5 15.625 21.9 15.625 23.625V36.75H12.5V31.125C12.5 29.4 11.1 28 9.375 28H6.875C5.15 28 3.75 29.4 3.75 31.125V36.75H2.5C1.8125 36.75 1.25 37.3125 1.25 38C1.25 38.6875 1.8125 39.25 2.5 39.25H37.5C38.1875 39.25 38.75 38.6875 38.75 38C38.75 37.3125 38.1875 36.75 37.5 36.75ZM18.125 23.625C18.125 23.275 18.4 23 18.75 23H21.25C21.6 23 21.875 23.275 21.875 23.625V36.75H18.125V23.625ZM6.25 31.125C6.25 30.775 6.525 30.5 6.875 30.5H9.375C9.725 30.5 10 30.775 10 31.125V36.75H6.25V31.125Z" fill="#553597"/>
<path d="M5.11255 23.5125C5.42505 23.5125 5.72505 23.4 5.96255 23.175L24.3751 5.8875V9.25C24.3751 9.9375 24.9376 10.5 25.6251 10.5C26.3126 10.5 26.8751 9.9375 26.8751 9.25V3C26.8751 2.3125 26.3126 1.75 25.6251 1.75H19.3751C18.6876 1.75 18.1251 2.3125 18.1251 3C18.1251 3.6875 18.6876 4.25 19.3751 4.25H22.4626L4.25005 21.35C3.75005 21.825 3.72505 22.6125 4.20005 23.1125C4.45005 23.375 4.77505 23.5125 5.11255 23.5125Z" fill="#553597"/>
<path d="M36.25 15.5C36.25 14.125 35.125 13 33.75 13H30C28.625 13 27.5 14.125 27.5 15.5V34.25H36.25V15.5Z" fill="#A78ED7"/>
</svg>
