<svg width="41" height="41" viewBox="0 0 41 41" fill="none" xmlns="http://www.w3.org/2000/svg">
<g clip-path="url(#clip0_196_2819)">
<mask id="path-1-outside-1_196_2819" maskUnits="userSpaceOnUse" x="7.02856" y="-0.500732" width="26" height="42" fill="black">
<rect fill="white" x="7.02856" y="-0.500732" width="26" height="42"/>
<path d="M32.6379 12.8047C32.6381 10.7974 32.1471 8.82068 31.208 7.04673C30.2688 5.27279 28.91 3.75552 27.2499 2.62724C25.5898 1.49896 23.6789 0.793927 21.6838 0.573615C19.6887 0.353302 17.6701 0.624402 15.8038 1.36327C13.9375 2.10215 12.2803 3.28636 10.9767 4.81264C9.67316 6.33893 8.76274 8.16095 8.32489 10.1198C7.88704 12.0787 7.93504 14.1149 8.46472 16.051C8.99439 17.9871 9.98966 19.7641 11.3637 21.2273C12.6004 22.5433 13.3454 24.2455 13.4731 26.0468H12.1301C11.6639 26.0468 11.2168 26.232 10.8872 26.5617C10.5575 26.8913 10.3723 27.3385 10.3723 27.8047C10.3723 28.2709 10.5575 28.718 10.8872 29.0476C11.2168 29.3773 11.6639 29.5625 12.1301 29.5625H12.7161V30.539C12.7159 30.8318 12.7758 31.1215 12.8921 31.3903C13.0083 31.659 13.1784 31.9011 13.3918 32.1015C13.0783 32.3964 12.8606 32.7787 12.767 33.1988C12.6734 33.6189 12.7082 34.0574 12.867 34.4575C13.0258 34.8575 13.3011 35.2007 13.6573 35.4423C14.0135 35.6839 14.4341 35.8129 14.8645 35.8125H15.8411V38.3515C15.8419 38.9211 16.0685 39.4671 16.4712 39.8698C16.874 40.2725 17.42 40.4991 17.9895 40.5H22.677C23.2465 40.4991 23.7925 40.2725 24.1953 39.8698C24.598 39.4671 24.8246 38.9211 24.8254 38.3515V35.8125H25.802C26.2324 35.8129 26.653 35.6839 27.0092 35.4423C27.3654 35.2007 27.6407 34.8575 27.7995 34.4575C27.9583 34.0574 27.9931 33.6189 27.8995 33.1988C27.8059 32.7787 27.5882 32.3964 27.2747 32.1015C27.4881 31.9011 27.6582 31.659 27.7744 31.3903C27.8907 31.1215 27.9506 30.8318 27.9504 30.539V29.5625H28.5364C29.0026 29.5625 29.4497 29.3773 29.7793 29.0476C30.109 28.718 30.2942 28.2709 30.2942 27.8047C30.2942 27.3385 30.109 26.8913 29.7793 26.5617C29.4497 26.232 29.0026 26.0468 28.5364 26.0468H27.1926C27.3174 24.2494 28.0595 22.5504 29.2934 21.2375C31.4459 18.9578 32.6428 15.9399 32.6379 12.8047ZM23.6536 38.3515C23.6532 38.6104 23.5501 38.8586 23.3671 39.0416C23.184 39.2247 22.9359 39.3277 22.677 39.3281H17.9895C17.7306 39.3277 17.4825 39.2247 17.2994 39.0416C17.1164 38.8586 17.0134 38.6104 17.0129 38.3515V35.8125H23.6536V38.3515ZM26.7786 33.664C26.7782 33.9229 26.6751 34.1711 26.4921 34.3541C26.309 34.5372 26.0609 34.6402 25.802 34.6406H14.8645C14.6055 34.6406 14.3571 34.5377 14.174 34.3546C13.9908 34.1714 13.8879 33.923 13.8879 33.664C13.8879 33.405 13.9908 33.1566 14.174 32.9735C14.3571 32.7904 14.6055 32.6875 14.8645 32.6875H25.802C26.0609 32.6879 26.309 32.7909 26.4921 32.9739C26.6751 33.157 26.7782 33.4052 26.7786 33.664ZM26.7786 30.539C26.7782 30.7979 26.6751 31.0461 26.4921 31.2291C26.309 31.4122 26.0609 31.5152 25.802 31.5156H14.8645C14.6056 31.5152 14.3575 31.4122 14.1744 31.2291C13.9914 31.0461 13.8884 30.7979 13.8879 30.539V29.5625H26.7786V30.539ZM29.1223 27.8047C29.1223 27.9601 29.0606 28.1091 28.9507 28.219C28.8408 28.3289 28.6918 28.3906 28.5364 28.3906H12.1301C11.9747 28.3906 11.8257 28.3289 11.7158 28.219C11.6059 28.1091 11.5442 27.9601 11.5442 27.8047C11.5442 27.6493 11.6059 27.5002 11.7158 27.3903C11.8257 27.2804 11.9747 27.2187 12.1301 27.2187H28.5364C28.6918 27.2187 28.8408 27.2804 28.9507 27.3903C29.0606 27.5002 29.1223 27.6493 29.1223 27.8047ZM26.0161 26.0468H14.6504C14.5208 23.9455 13.6605 21.9557 12.2184 20.4218C10.2356 18.3195 9.15306 15.5254 9.202 12.6359C9.29028 6.56012 14.2692 1.67184 20.3333 1.67184H20.4895C26.5434 1.74997 31.4684 6.74997 31.4684 12.8039C31.4731 15.6403 30.3902 18.3706 28.4426 20.4328C27.0024 21.9629 26.1438 23.9494 26.0161 26.0468Z"/>
</mask>
<path d="M32.6379 12.8047C32.6381 10.7974 32.1471 8.82068 31.208 7.04673C30.2688 5.27279 28.91 3.75552 27.2499 2.62724C25.5898 1.49896 23.6789 0.793927 21.6838 0.573615C19.6887 0.353302 17.6701 0.624402 15.8038 1.36327C13.9375 2.10215 12.2803 3.28636 10.9767 4.81264C9.67316 6.33893 8.76274 8.16095 8.32489 10.1198C7.88704 12.0787 7.93504 14.1149 8.46472 16.051C8.99439 17.9871 9.98966 19.7641 11.3637 21.2273C12.6004 22.5433 13.3454 24.2455 13.4731 26.0468H12.1301C11.6639 26.0468 11.2168 26.232 10.8872 26.5617C10.5575 26.8913 10.3723 27.3385 10.3723 27.8047C10.3723 28.2709 10.5575 28.718 10.8872 29.0476C11.2168 29.3773 11.6639 29.5625 12.1301 29.5625H12.7161V30.539C12.7159 30.8318 12.7758 31.1215 12.8921 31.3903C13.0083 31.659 13.1784 31.9011 13.3918 32.1015C13.0783 32.3964 12.8606 32.7787 12.767 33.1988C12.6734 33.6189 12.7082 34.0574 12.867 34.4575C13.0258 34.8575 13.3011 35.2007 13.6573 35.4423C14.0135 35.6839 14.4341 35.8129 14.8645 35.8125H15.8411V38.3515C15.8419 38.9211 16.0685 39.4671 16.4712 39.8698C16.874 40.2725 17.42 40.4991 17.9895 40.5H22.677C23.2465 40.4991 23.7925 40.2725 24.1953 39.8698C24.598 39.4671 24.8246 38.9211 24.8254 38.3515V35.8125H25.802C26.2324 35.8129 26.653 35.6839 27.0092 35.4423C27.3654 35.2007 27.6407 34.8575 27.7995 34.4575C27.9583 34.0574 27.9931 33.6189 27.8995 33.1988C27.8059 32.7787 27.5882 32.3964 27.2747 32.1015C27.4881 31.9011 27.6582 31.659 27.7744 31.3903C27.8907 31.1215 27.9506 30.8318 27.9504 30.539V29.5625H28.5364C29.0026 29.5625 29.4497 29.3773 29.7793 29.0476C30.109 28.718 30.2942 28.2709 30.2942 27.8047C30.2942 27.3385 30.109 26.8913 29.7793 26.5617C29.4497 26.232 29.0026 26.0468 28.5364 26.0468H27.1926C27.3174 24.2494 28.0595 22.5504 29.2934 21.2375C31.4459 18.9578 32.6428 15.9399 32.6379 12.8047ZM23.6536 38.3515C23.6532 38.6104 23.5501 38.8586 23.3671 39.0416C23.184 39.2247 22.9359 39.3277 22.677 39.3281H17.9895C17.7306 39.3277 17.4825 39.2247 17.2994 39.0416C17.1164 38.8586 17.0134 38.6104 17.0129 38.3515V35.8125H23.6536V38.3515ZM26.7786 33.664C26.7782 33.9229 26.6751 34.1711 26.4921 34.3541C26.309 34.5372 26.0609 34.6402 25.802 34.6406H14.8645C14.6055 34.6406 14.3571 34.5377 14.174 34.3546C13.9908 34.1714 13.8879 33.923 13.8879 33.664C13.8879 33.405 13.9908 33.1566 14.174 32.9735C14.3571 32.7904 14.6055 32.6875 14.8645 32.6875H25.802C26.0609 32.6879 26.309 32.7909 26.4921 32.9739C26.6751 33.157 26.7782 33.4052 26.7786 33.664ZM26.7786 30.539C26.7782 30.7979 26.6751 31.0461 26.4921 31.2291C26.309 31.4122 26.0609 31.5152 25.802 31.5156H14.8645C14.6056 31.5152 14.3575 31.4122 14.1744 31.2291C13.9914 31.0461 13.8884 30.7979 13.8879 30.539V29.5625H26.7786V30.539ZM29.1223 27.8047C29.1223 27.9601 29.0606 28.1091 28.9507 28.219C28.8408 28.3289 28.6918 28.3906 28.5364 28.3906H12.1301C11.9747 28.3906 11.8257 28.3289 11.7158 28.219C11.6059 28.1091 11.5442 27.9601 11.5442 27.8047C11.5442 27.6493 11.6059 27.5002 11.7158 27.3903C11.8257 27.2804 11.9747 27.2187 12.1301 27.2187H28.5364C28.6918 27.2187 28.8408 27.2804 28.9507 27.3903C29.0606 27.5002 29.1223 27.6493 29.1223 27.8047ZM26.0161 26.0468H14.6504C14.5208 23.9455 13.6605 21.9557 12.2184 20.4218C10.2356 18.3195 9.15306 15.5254 9.202 12.6359C9.29028 6.56012 14.2692 1.67184 20.3333 1.67184H20.4895C26.5434 1.74997 31.4684 6.74997 31.4684 12.8039C31.4731 15.6403 30.3902 18.3706 28.4426 20.4328C27.0024 21.9629 26.1438 23.9494 26.0161 26.0468Z" fill="#553597"/>
<path d="M32.6379 12.8047C32.6381 10.7974 32.1471 8.82068 31.208 7.04673C30.2688 5.27279 28.91 3.75552 27.2499 2.62724C25.5898 1.49896 23.6789 0.793927 21.6838 0.573615C19.6887 0.353302 17.6701 0.624402 15.8038 1.36327C13.9375 2.10215 12.2803 3.28636 10.9767 4.81264C9.67316 6.33893 8.76274 8.16095 8.32489 10.1198C7.88704 12.0787 7.93504 14.1149 8.46472 16.051C8.99439 17.9871 9.98966 19.7641 11.3637 21.2273C12.6004 22.5433 13.3454 24.2455 13.4731 26.0468H12.1301C11.6639 26.0468 11.2168 26.232 10.8872 26.5617C10.5575 26.8913 10.3723 27.3385 10.3723 27.8047C10.3723 28.2709 10.5575 28.718 10.8872 29.0476C11.2168 29.3773 11.6639 29.5625 12.1301 29.5625H12.7161V30.539C12.7159 30.8318 12.7758 31.1215 12.8921 31.3903C13.0083 31.659 13.1784 31.9011 13.3918 32.1015C13.0783 32.3964 12.8606 32.7787 12.767 33.1988C12.6734 33.6189 12.7082 34.0574 12.867 34.4575C13.0258 34.8575 13.3011 35.2007 13.6573 35.4423C14.0135 35.6839 14.4341 35.8129 14.8645 35.8125H15.8411V38.3515C15.8419 38.9211 16.0685 39.4671 16.4712 39.8698C16.874 40.2725 17.42 40.4991 17.9895 40.5H22.677C23.2465 40.4991 23.7925 40.2725 24.1953 39.8698C24.598 39.4671 24.8246 38.9211 24.8254 38.3515V35.8125H25.802C26.2324 35.8129 26.653 35.6839 27.0092 35.4423C27.3654 35.2007 27.6407 34.8575 27.7995 34.4575C27.9583 34.0574 27.9931 33.6189 27.8995 33.1988C27.8059 32.7787 27.5882 32.3964 27.2747 32.1015C27.4881 31.9011 27.6582 31.659 27.7744 31.3903C27.8907 31.1215 27.9506 30.8318 27.9504 30.539V29.5625H28.5364C29.0026 29.5625 29.4497 29.3773 29.7793 29.0476C30.109 28.718 30.2942 28.2709 30.2942 27.8047C30.2942 27.3385 30.109 26.8913 29.7793 26.5617C29.4497 26.232 29.0026 26.0468 28.5364 26.0468H27.1926C27.3174 24.2494 28.0595 22.5504 29.2934 21.2375C31.4459 18.9578 32.6428 15.9399 32.6379 12.8047ZM23.6536 38.3515C23.6532 38.6104 23.5501 38.8586 23.3671 39.0416C23.184 39.2247 22.9359 39.3277 22.677 39.3281H17.9895C17.7306 39.3277 17.4825 39.2247 17.2994 39.0416C17.1164 38.8586 17.0134 38.6104 17.0129 38.3515V35.8125H23.6536V38.3515ZM26.7786 33.664C26.7782 33.9229 26.6751 34.1711 26.4921 34.3541C26.309 34.5372 26.0609 34.6402 25.802 34.6406H14.8645C14.6055 34.6406 14.3571 34.5377 14.174 34.3546C13.9908 34.1714 13.8879 33.923 13.8879 33.664C13.8879 33.405 13.9908 33.1566 14.174 32.9735C14.3571 32.7904 14.6055 32.6875 14.8645 32.6875H25.802C26.0609 32.6879 26.309 32.7909 26.4921 32.9739C26.6751 33.157 26.7782 33.4052 26.7786 33.664ZM26.7786 30.539C26.7782 30.7979 26.6751 31.0461 26.4921 31.2291C26.309 31.4122 26.0609 31.5152 25.802 31.5156H14.8645C14.6056 31.5152 14.3575 31.4122 14.1744 31.2291C13.9914 31.0461 13.8884 30.7979 13.8879 30.539V29.5625H26.7786V30.539ZM29.1223 27.8047C29.1223 27.9601 29.0606 28.1091 28.9507 28.219C28.8408 28.3289 28.6918 28.3906 28.5364 28.3906H12.1301C11.9747 28.3906 11.8257 28.3289 11.7158 28.219C11.6059 28.1091 11.5442 27.9601 11.5442 27.8047C11.5442 27.6493 11.6059 27.5002 11.7158 27.3903C11.8257 27.2804 11.9747 27.2187 12.1301 27.2187H28.5364C28.6918 27.2187 28.8408 27.2804 28.9507 27.3903C29.0606 27.5002 29.1223 27.6493 29.1223 27.8047ZM26.0161 26.0468H14.6504C14.5208 23.9455 13.6605 21.9557 12.2184 20.4218C10.2356 18.3195 9.15306 15.5254 9.202 12.6359C9.29028 6.56012 14.2692 1.67184 20.3333 1.67184H20.4895C26.5434 1.74997 31.4684 6.74997 31.4684 12.8039C31.4731 15.6403 30.3902 18.3706 28.4426 20.4328C27.0024 21.9629 26.1438 23.9494 26.0161 26.0468Z" stroke="#553597" stroke-width="0.6" mask="url(#path-1-outside-1_196_2819)"/>
<mask id="path-2-outside-2_196_2819" maskUnits="userSpaceOnUse" x="34.2551" y="11.2188" width="7" height="3" fill="black">
<rect fill="white" x="34.2551" y="11.2188" width="7" height="3"/>
<path d="M39.7473 12.2188H35.8411C35.6857 12.2188 35.5366 12.2805 35.4267 12.3904C35.3169 12.5003 35.2551 12.6493 35.2551 12.8047C35.2551 12.9601 35.3169 13.1091 35.4267 13.219C35.5366 13.3289 35.6857 13.3906 35.8411 13.3906H39.7473C39.9027 13.3906 40.0518 13.3289 40.1616 13.219C40.2715 13.1091 40.3333 12.9601 40.3333 12.8047C40.3333 12.6493 40.2715 12.5003 40.1616 12.3904C40.0518 12.2805 39.9027 12.2188 39.7473 12.2188Z"/>
</mask>
<path d="M39.7473 12.2188H35.8411C35.6857 12.2188 35.5366 12.2805 35.4267 12.3904C35.3169 12.5003 35.2551 12.6493 35.2551 12.8047C35.2551 12.9601 35.3169 13.1091 35.4267 13.219C35.5366 13.3289 35.6857 13.3906 35.8411 13.3906H39.7473C39.9027 13.3906 40.0518 13.3289 40.1616 13.219C40.2715 13.1091 40.3333 12.9601 40.3333 12.8047C40.3333 12.6493 40.2715 12.5003 40.1616 12.3904C40.0518 12.2805 39.9027 12.2188 39.7473 12.2188Z" fill="#553597"/>
<path d="M39.7473 12.2188H35.8411C35.6857 12.2188 35.5366 12.2805 35.4267 12.3904C35.3169 12.5003 35.2551 12.6493 35.2551 12.8047C35.2551 12.9601 35.3169 13.1091 35.4267 13.219C35.5366 13.3289 35.6857 13.3906 35.8411 13.3906H39.7473C39.9027 13.3906 40.0518 13.3289 40.1616 13.219C40.2715 13.1091 40.3333 12.9601 40.3333 12.8047C40.3333 12.6493 40.2715 12.5003 40.1616 12.3904C40.0518 12.2805 39.9027 12.2188 39.7473 12.2188Z" stroke="#553597" stroke-width="0.6" mask="url(#path-2-outside-2_196_2819)"/>
<mask id="path-3-outside-3_196_2819" maskUnits="userSpaceOnUse" x="32.6919" y="5.16382" width="6" height="5" fill="black">
<rect fill="white" x="32.6919" y="5.16382" width="6" height="5"/>
<path d="M34.2793 9.28914C34.3818 9.28923 34.4826 9.26229 34.5715 9.21102L37.9543 7.2579C38.0889 7.18019 38.1872 7.05218 38.2275 6.902C38.2678 6.75182 38.2468 6.59179 38.1691 6.45711C38.0914 6.32243 37.9634 6.22414 37.8132 6.18384C37.663 6.14355 37.503 6.16457 37.3683 6.24227L33.9855 8.19539C33.8736 8.25984 33.7861 8.35947 33.7366 8.47879C33.6871 8.59811 33.6784 8.73044 33.7119 8.85519C33.7455 8.97994 33.8192 9.09012 33.9218 9.1686C34.0244 9.24708 34.1501 9.28946 34.2793 9.28914Z"/>
</mask>
<path d="M34.2793 9.28914C34.3818 9.28923 34.4826 9.26229 34.5715 9.21102L37.9543 7.2579C38.0889 7.18019 38.1872 7.05218 38.2275 6.902C38.2678 6.75182 38.2468 6.59179 38.1691 6.45711C38.0914 6.32243 37.9634 6.22414 37.8132 6.18384C37.663 6.14355 37.503 6.16457 37.3683 6.24227L33.9855 8.19539C33.8736 8.25984 33.7861 8.35947 33.7366 8.47879C33.6871 8.59811 33.6784 8.73044 33.7119 8.85519C33.7455 8.97994 33.8192 9.09012 33.9218 9.1686C34.0244 9.24708 34.1501 9.28946 34.2793 9.28914Z" fill="#553597"/>
<path d="M34.2793 9.28914C34.3818 9.28923 34.4826 9.26229 34.5715 9.21102L37.9543 7.2579C38.0889 7.18019 38.1872 7.05218 38.2275 6.902C38.2678 6.75182 38.2468 6.59179 38.1691 6.45711C38.0914 6.32243 37.9634 6.22414 37.8132 6.18384C37.663 6.14355 37.503 6.16457 37.3683 6.24227L33.9855 8.19539C33.8736 8.25984 33.7861 8.35947 33.7366 8.47879C33.6871 8.59811 33.6784 8.73044 33.7119 8.85519C33.7455 8.97994 33.8192 9.09012 33.9218 9.1686C34.0244 9.24708 34.1501 9.28946 34.2793 9.28914Z" stroke="#553597" stroke-width="0.6" mask="url(#path-3-outside-3_196_2819)"/>
<mask id="path-4-outside-4_196_2819" maskUnits="userSpaceOnUse" x="32.6924" y="15.3201" width="6" height="5" fill="black">
<rect fill="white" x="32.6924" y="15.3201" width="6" height="5"/>
<path d="M37.9544 18.3516L34.5716 16.3985C34.4369 16.3208 34.2769 16.2998 34.1267 16.3401C33.9766 16.3804 33.8485 16.4787 33.7708 16.6134C33.6931 16.748 33.6721 16.9081 33.7124 17.0583C33.7527 17.2084 33.851 17.3364 33.9857 17.4141L37.3685 19.3673C37.5032 19.445 37.6632 19.466 37.8134 19.4257C37.9636 19.3854 38.0916 19.2871 38.1693 19.1524C38.247 19.0177 38.268 18.8577 38.2277 18.7075C38.1874 18.5574 38.0891 18.4293 37.9544 18.3516Z"/>
</mask>
<path d="M37.9544 18.3516L34.5716 16.3985C34.4369 16.3208 34.2769 16.2998 34.1267 16.3401C33.9766 16.3804 33.8485 16.4787 33.7708 16.6134C33.6931 16.748 33.6721 16.9081 33.7124 17.0583C33.7527 17.2084 33.851 17.3364 33.9857 17.4141L37.3685 19.3673C37.5032 19.445 37.6632 19.466 37.8134 19.4257C37.9636 19.3854 38.0916 19.2871 38.1693 19.1524C38.247 19.0177 38.268 18.8577 38.2277 18.7075C38.1874 18.5574 38.0891 18.4293 37.9544 18.3516Z" fill="#553597"/>
<path d="M37.9544 18.3516L34.5716 16.3985C34.4369 16.3208 34.2769 16.2998 34.1267 16.3401C33.9766 16.3804 33.8485 16.4787 33.7708 16.6134C33.6931 16.748 33.6721 16.9081 33.7124 17.0583C33.7527 17.2084 33.851 17.3364 33.9857 17.4141L37.3685 19.3673C37.5032 19.445 37.6632 19.466 37.8134 19.4257C37.9636 19.3854 38.0916 19.2871 38.1693 19.1524C38.247 19.0177 38.268 18.8577 38.2277 18.7075C38.1874 18.5574 38.0891 18.4293 37.9544 18.3516Z" stroke="#553597" stroke-width="0.6" mask="url(#path-4-outside-4_196_2819)"/>
<mask id="path-5-outside-5_196_2819" maskUnits="userSpaceOnUse" x="-0.666748" y="11.2188" width="7" height="3" fill="black">
<rect fill="white" x="-0.666748" y="11.2188" width="7" height="3"/>
<path d="M5.41138 12.8047C5.41138 12.6493 5.34964 12.5003 5.23976 12.3904C5.12988 12.2805 4.98084 12.2188 4.82544 12.2188H0.919189C0.763789 12.2188 0.614754 12.2805 0.504869 12.3904C0.394984 12.5003 0.333252 12.6493 0.333252 12.8047C0.333252 12.9601 0.394984 13.1091 0.504869 13.219C0.614754 13.3289 0.763789 13.3906 0.919189 13.3906H4.82544C4.98084 13.3906 5.12988 13.3289 5.23976 13.219C5.34964 13.1091 5.41138 12.9601 5.41138 12.8047Z"/>
</mask>
<path d="M5.41138 12.8047C5.41138 12.6493 5.34964 12.5003 5.23976 12.3904C5.12988 12.2805 4.98084 12.2188 4.82544 12.2188H0.919189C0.763789 12.2188 0.614754 12.2805 0.504869 12.3904C0.394984 12.5003 0.333252 12.6493 0.333252 12.8047C0.333252 12.9601 0.394984 13.1091 0.504869 13.219C0.614754 13.3289 0.763789 13.3906 0.919189 13.3906H4.82544C4.98084 13.3906 5.12988 13.3289 5.23976 13.219C5.34964 13.1091 5.41138 12.9601 5.41138 12.8047Z" fill="#553597"/>
<path d="M5.41138 12.8047C5.41138 12.6493 5.34964 12.5003 5.23976 12.3904C5.12988 12.2805 4.98084 12.2188 4.82544 12.2188H0.919189C0.763789 12.2188 0.614754 12.2805 0.504869 12.3904C0.394984 12.5003 0.333252 12.6493 0.333252 12.8047C0.333252 12.9601 0.394984 13.1091 0.504869 13.219C0.614754 13.3289 0.763789 13.3906 0.919189 13.3906H4.82544C4.98084 13.3906 5.12988 13.3289 5.23976 13.219C5.34964 13.1091 5.41138 12.9601 5.41138 12.8047Z" stroke="#553597" stroke-width="0.6" mask="url(#path-5-outside-5_196_2819)"/>
<mask id="path-6-outside-6_196_2819" maskUnits="userSpaceOnUse" x="1.42285" y="5.16382" width="6" height="5" fill="black">
<rect fill="white" x="1.42285" y="5.16382" width="6" height="5"/>
<path d="M6.68099 8.19539L3.30208 6.24227C3.2354 6.2038 3.16178 6.17883 3.08545 6.16881C3.00912 6.15878 2.93156 6.16389 2.8572 6.18384C2.78284 6.20379 2.71314 6.23819 2.65207 6.28508C2.59101 6.33197 2.53978 6.39043 2.5013 6.45711C2.46283 6.5238 2.43787 6.59741 2.42784 6.67374C2.41782 6.75008 2.42293 6.82764 2.44288 6.902C2.46283 6.97636 2.49723 7.04606 2.54412 7.10712C2.591 7.16819 2.64946 7.21942 2.71615 7.25789L6.09896 9.21102C6.16565 9.24949 6.23926 9.27445 6.31559 9.28448C6.39192 9.2945 6.46949 9.28939 6.54384 9.26944C6.6182 9.24949 6.68791 9.21509 6.74897 9.16821C6.81003 9.12132 6.86127 9.06286 6.89974 8.99617C6.93821 8.92949 6.96317 8.85588 6.9732 8.77954C6.98322 8.70321 6.97812 8.62565 6.95816 8.55129C6.93821 8.47693 6.90381 8.40723 6.85693 8.34616C6.81004 8.2851 6.75158 8.23387 6.6849 8.19539H6.68099Z"/>
</mask>
<path d="M6.68099 8.19539L3.30208 6.24227C3.2354 6.2038 3.16178 6.17883 3.08545 6.16881C3.00912 6.15878 2.93156 6.16389 2.8572 6.18384C2.78284 6.20379 2.71314 6.23819 2.65207 6.28508C2.59101 6.33197 2.53978 6.39043 2.5013 6.45711C2.46283 6.5238 2.43787 6.59741 2.42784 6.67374C2.41782 6.75008 2.42293 6.82764 2.44288 6.902C2.46283 6.97636 2.49723 7.04606 2.54412 7.10712C2.591 7.16819 2.64946 7.21942 2.71615 7.25789L6.09896 9.21102C6.16565 9.24949 6.23926 9.27445 6.31559 9.28448C6.39192 9.2945 6.46949 9.28939 6.54384 9.26944C6.6182 9.24949 6.68791 9.21509 6.74897 9.16821C6.81003 9.12132 6.86127 9.06286 6.89974 8.99617C6.93821 8.92949 6.96317 8.85588 6.9732 8.77954C6.98322 8.70321 6.97812 8.62565 6.95816 8.55129C6.93821 8.47693 6.90381 8.40723 6.85693 8.34616C6.81004 8.2851 6.75158 8.23387 6.6849 8.19539H6.68099Z" fill="#553597"/>
<path d="M6.68099 8.19539L3.30208 6.24227C3.2354 6.2038 3.16178 6.17883 3.08545 6.16881C3.00912 6.15878 2.93156 6.16389 2.8572 6.18384C2.78284 6.20379 2.71314 6.23819 2.65207 6.28508C2.59101 6.33197 2.53978 6.39043 2.5013 6.45711C2.46283 6.5238 2.43787 6.59741 2.42784 6.67374C2.41782 6.75008 2.42293 6.82764 2.44288 6.902C2.46283 6.97636 2.49723 7.04606 2.54412 7.10712C2.591 7.16819 2.64946 7.21942 2.71615 7.25789L6.09896 9.21102C6.16565 9.24949 6.23926 9.27445 6.31559 9.28448C6.39192 9.2945 6.46949 9.28939 6.54384 9.26944C6.6182 9.24949 6.68791 9.21509 6.74897 9.16821C6.81003 9.12132 6.86127 9.06286 6.89974 8.99617C6.93821 8.92949 6.96317 8.85588 6.9732 8.77954C6.98322 8.70321 6.97812 8.62565 6.95816 8.55129C6.93821 8.47693 6.90381 8.40723 6.85693 8.34616C6.81004 8.2851 6.75158 8.23387 6.6849 8.19539H6.68099Z" stroke="#553597" stroke-width="0.6" mask="url(#path-6-outside-6_196_2819)"/>
<mask id="path-7-outside-7_196_2819" maskUnits="userSpaceOnUse" x="1.41895" y="15.3201" width="6" height="5" fill="black">
<rect fill="white" x="1.41895" y="15.3201" width="6" height="5"/>
<path d="M6.09505 16.3985L2.71224 18.3516C2.57756 18.4293 2.47926 18.5574 2.43897 18.7075C2.39868 18.8577 2.4197 19.0177 2.4974 19.1524C2.5751 19.2871 2.70312 19.3854 2.85329 19.4257C3.00347 19.466 3.1635 19.445 3.29818 19.3673L6.68099 17.4141C6.81567 17.3364 6.91397 17.2084 6.95426 17.0583C6.99455 16.9081 6.97354 16.748 6.89583 16.6134C6.81813 16.4787 6.69012 16.3804 6.53994 16.3401C6.38976 16.2998 6.22973 16.3208 6.09505 16.3985Z"/>
</mask>
<path d="M6.09505 16.3985L2.71224 18.3516C2.57756 18.4293 2.47926 18.5574 2.43897 18.7075C2.39868 18.8577 2.4197 19.0177 2.4974 19.1524C2.5751 19.2871 2.70312 19.3854 2.85329 19.4257C3.00347 19.466 3.1635 19.445 3.29818 19.3673L6.68099 17.4141C6.81567 17.3364 6.91397 17.2084 6.95426 17.0583C6.99455 16.9081 6.97354 16.748 6.89583 16.6134C6.81813 16.4787 6.69012 16.3804 6.53994 16.3401C6.38976 16.2998 6.22973 16.3208 6.09505 16.3985Z" fill="#553597"/>
<path d="M6.09505 16.3985L2.71224 18.3516C2.57756 18.4293 2.47926 18.5574 2.43897 18.7075C2.39868 18.8577 2.4197 19.0177 2.4974 19.1524C2.5751 19.2871 2.70312 19.3854 2.85329 19.4257C3.00347 19.466 3.1635 19.445 3.29818 19.3673L6.68099 17.4141C6.81567 17.3364 6.91397 17.2084 6.95426 17.0583C6.99455 16.9081 6.97354 16.748 6.89583 16.6134C6.81813 16.4787 6.69012 16.3804 6.53994 16.3401C6.38976 16.2998 6.22973 16.3208 6.09505 16.3985Z" stroke="#553597" stroke-width="0.6" mask="url(#path-7-outside-7_196_2819)"/>
<path d="M19.7473 18.5469V7.06247C19.2176 6.75623 18.5891 6.6693 17.9961 6.82024C17.4032 6.97119 16.8927 7.34804 16.5739 7.87029C17.0278 8.28747 17.902 9.31326 17.6442 10.8609C17.6213 10.9976 17.5508 11.1218 17.4451 11.2114C17.3394 11.3011 17.2054 11.3504 17.0669 11.3508C17.0341 11.3506 17.0015 11.3477 16.9692 11.3422C16.816 11.3165 16.6793 11.2311 16.589 11.1047C16.4988 10.9782 16.4624 10.8212 16.488 10.6679C16.684 9.49607 15.8442 8.77341 15.6755 8.64216C15.4251 8.79969 15.21 9.00723 15.0435 9.25176C14.8771 9.4963 14.763 9.77256 14.7083 10.0633C14.0504 10.6623 13.6298 11.4778 13.5231 12.3611C13.4164 13.2443 13.6307 14.1365 14.127 14.875C14.4934 14.5437 15.034 14.2953 15.7942 14.3422C15.8711 14.3469 15.9464 14.3667 16.0157 14.4005C16.085 14.4343 16.1469 14.4814 16.198 14.5392C16.2491 14.5969 16.2883 14.6642 16.3134 14.7371C16.3384 14.81 16.3489 14.8871 16.3442 14.964C16.3395 15.041 16.3197 15.1162 16.2858 15.1855C16.252 15.2548 16.2049 15.3168 16.1472 15.3678C16.0894 15.4189 16.0222 15.4581 15.9493 15.4832C15.8764 15.5083 15.7993 15.5188 15.7223 15.514C15.0895 15.4758 14.8223 15.7922 14.7169 15.9937C14.8102 16.4267 15.0349 16.8204 15.3602 17.121C15.6856 17.4216 16.0958 17.6145 16.5348 17.6734C16.6874 17.9427 16.8918 18.1791 17.1363 18.369C17.3807 18.5588 17.6604 18.6984 17.9591 18.7796C18.2577 18.8608 18.5695 18.8821 18.8765 18.8421C19.1834 18.8022 19.4794 18.7018 19.7473 18.5469Z" fill="#A78ED7"/>
<path d="M24.8723 14.3399C25.6325 14.2923 26.1731 14.5415 26.5395 14.8728C27.0351 14.1345 27.2491 13.2428 27.1424 12.3601C27.0357 11.4773 26.6155 10.6623 25.9583 10.0634C25.9032 9.7731 25.789 9.49729 25.6226 9.25318C25.4561 9.00907 25.2412 8.8019 24.9911 8.64463C24.8223 8.77666 23.9825 9.49541 24.1786 10.6704C24.2041 10.8236 24.1677 10.9807 24.0775 11.1071C23.9873 11.2336 23.8505 11.319 23.6973 11.3446C23.6651 11.3502 23.6324 11.353 23.5997 11.3532C23.4611 11.3529 23.3271 11.3036 23.2214 11.2139C23.1157 11.1242 23.0452 11.0001 23.0223 10.8634C22.7645 9.31572 23.6387 8.28994 24.0926 7.87275C23.7742 7.35011 23.2639 6.97277 22.6709 6.82138C22.0779 6.66999 21.4492 6.75656 20.9192 7.0626V18.547C21.1873 18.7018 21.4834 18.802 21.7904 18.8418C22.0974 18.8816 22.4093 18.8602 22.708 18.7787C23.0067 18.6973 23.2863 18.5575 23.5307 18.3674C23.775 18.1773 23.9793 17.9407 24.1317 17.6712C24.5701 17.6123 24.9798 17.4197 25.3049 17.1197C25.6301 16.8198 25.8549 16.4269 25.9489 15.9946C25.8387 15.7837 25.57 15.4735 24.9442 15.5118C24.7888 15.5213 24.636 15.4688 24.5193 15.3656C24.4027 15.2625 24.3318 15.1172 24.3223 14.9618C24.3128 14.8064 24.3654 14.6536 24.4685 14.537C24.5717 14.4203 24.7169 14.3495 24.8723 14.3399Z" fill="#A78ED7"/>
<path d="M21.1145 20.9688H19.552C18.9825 20.9696 18.4365 21.1962 18.0337 21.5989C17.631 22.0017 17.4044 22.5476 17.4036 23.1172V24.875H23.2629V23.1172C23.2621 22.5476 23.0355 22.0017 22.6328 21.5989C22.23 21.1962 21.684 20.9696 21.1145 20.9688Z" fill="#A78ED7"/>
</g>
<defs>
<clipPath id="clip0_196_2819">
<rect width="40" height="40" fill="white" transform="translate(0.333252 0.5)"/>
</clipPath>
</defs>
</svg>
