<svg width="40" height="40" viewBox="0 0 40 40" fill="none" xmlns="http://www.w3.org/2000/svg">
<path d="M37.5 27.5V3.75C38.1875 3.75 38.75 3.1875 38.75 2.5C38.75 1.8125 38.1875 1.25 37.5 1.25H2.5C1.8125 1.25 1.25 1.8125 1.25 2.5C1.25 3.1875 1.8125 3.75 2.5 3.75V27.5C1.8125 27.5 1.25 28.0625 1.25 28.75C1.25 29.4375 1.8125 30 2.5 30H37.5C38.1875 30 38.75 29.4375 38.75 28.75C38.75 28.0625 38.1875 27.5 37.5 27.5ZM5 3.75H35V27.5H5V3.75Z" fill="#553597"/>
<path d="M31.5625 6.53751H26.5625C25.875 6.53751 25.3125 7.10001 25.3125 7.78751C25.3125 8.47501 25.875 9.03751 26.5625 9.03751H28.55L19.7875 17.8L18.1625 15.825C17.925 15.5375 17.575 15.375 17.2 15.3625C16.7875 15.3125 16.475 15.525 16.2375 15.8125L10.025 23.275C9.58746 23.8 9.64996 24.5875 10.1875 25.0375C10.425 25.2375 10.7 25.325 10.9875 25.325C11.35 25.325 11.7 25.175 11.95 24.875L17.2 18.575L18.7375 20.45C18.9625 20.725 19.2875 20.8875 19.6375 20.9C19.9875 20.9 20.3375 20.7875 20.5875 20.5375L30.325 10.8V12.7875C30.325 13.475 30.8875 14.0375 31.575 14.0375C32.2625 14.0375 32.825 13.475 32.825 12.7875V7.78751C32.825 7.10001 32.2625 6.53751 31.575 6.53751H31.5625Z" fill="#553597"/>
<path d="M8.4375 8.41251H18.4375C19.125 8.41251 19.6875 7.85001 19.6875 7.16251C19.6875 6.47501 19.125 5.91251 18.4375 5.91251H8.4375C7.75 5.91251 7.1875 6.47501 7.1875 7.16251C7.1875 7.85001 7.75 8.41251 8.4375 8.41251Z" fill="#553597"/>
<path d="M19.6875 11.5375C19.6875 10.85 19.125 10.2875 18.4375 10.2875H8.4375C7.75 10.2875 7.1875 10.85 7.1875 11.5375C7.1875 12.225 7.75 12.7875 8.4375 12.7875H18.4375C19.125 12.7875 19.6875 12.225 19.6875 11.5375Z" fill="#553597"/>
<path d="M27.5 36.25H23.75V32.5H16.25V36.25H12.5C11.8125 36.25 11.25 36.8125 11.25 37.5C11.25 38.1875 11.8125 38.75 12.5 38.75H27.5C28.1875 38.75 28.75 38.1875 28.75 37.5C28.75 36.8125 28.1875 36.25 27.5 36.25Z" fill="#A78ED7"/>
</svg>
