<svg width="40" height="40" viewBox="0 0 40 40" fill="none" xmlns="http://www.w3.org/2000/svg">
<path d="M27.5 6.25H26.25V4.375C26.25 2.65 24.85 1.25 23.125 1.25H21.875C20.15 1.25 18.75 2.65 18.75 4.375V6.25H11.25V4.375C11.25 2.65 9.85 1.25 8.125 1.25H6.875C5.15 1.25 3.75 2.65 3.75 4.375V6.25H2.5C1.8125 6.25 1.25 6.8125 1.25 7.5V37.5C1.25 38.1875 1.8125 38.75 2.5 38.75H27.5C28.1875 38.75 28.75 38.1875 28.75 37.5V7.5C28.75 6.8125 28.1875 6.25 27.5 6.25ZM21.25 4.375C21.25 4.025 21.525 3.75 21.875 3.75H23.125C23.475 3.75 23.75 4.025 23.75 4.375V6.25H21.25V4.375ZM6.25 4.375C6.25 4.025 6.525 3.75 6.875 3.75H8.125C8.475 3.75 8.75 4.025 8.75 4.375V6.25H6.25V4.375ZM26.25 36.25H3.75V8.75H26.25V36.25Z" fill="#553597"/>
<path d="M6.875 34.375H23.125C23.8125 34.375 24.375 33.8125 24.375 33.125C24.375 32.4375 23.8125 31.875 23.125 31.875H6.875C6.1875 31.875 5.625 32.4375 5.625 33.125C5.625 33.8125 6.1875 34.375 6.875 34.375Z" fill="#553597"/>
<path d="M6.875 29.375H23.125C23.8125 29.375 24.375 28.8125 24.375 28.125C24.375 27.4375 23.8125 26.875 23.125 26.875H6.875C6.1875 26.875 5.625 27.4375 5.625 28.125C5.625 28.8125 6.1875 29.375 6.875 29.375Z" fill="#553597"/>
<path d="M6.875 17.7125H23.125C23.8125 17.7125 24.375 17.15 24.375 16.4625C24.375 15.775 23.8125 15.2125 23.125 15.2125H6.875C6.1875 15.2125 5.625 15.775 5.625 16.4625C5.625 17.15 6.1875 17.7125 6.875 17.7125Z" fill="#553597"/>
<path d="M11.875 13.125H23.125C23.8125 13.125 24.375 12.5625 24.375 11.875C24.375 11.1875 23.8125 10.625 23.125 10.625H11.875C11.1875 10.625 10.625 11.1875 10.625 11.875C10.625 12.5625 11.1875 13.125 11.875 13.125Z" fill="#553597"/>
<path d="M6.875 13.125H7.5C8.1875 13.125 8.75 12.5625 8.75 11.875C8.75 11.1875 8.1875 10.625 7.5 10.625H6.875C6.1875 10.625 5.625 11.1875 5.625 11.875C5.625 12.5625 6.1875 13.125 6.875 13.125Z" fill="#553597"/>
<path d="M23.125 22.2875H11.875C11.1875 22.2875 10.625 22.85 10.625 23.5375C10.625 24.225 11.1875 24.7875 11.875 24.7875H23.125C23.8125 24.7875 24.375 24.225 24.375 23.5375C24.375 22.85 23.8125 22.2875 23.125 22.2875Z" fill="#553597"/>
<path d="M6.875 24.7875H7.5C8.1875 24.7875 8.75 24.225 8.75 23.5375C8.75 22.85 8.1875 22.2875 7.5 22.2875H6.875C6.1875 22.2875 5.625 22.85 5.625 23.5375C5.625 24.225 6.1875 24.7875 6.875 24.7875Z" fill="#553597"/>
<path d="M37.5 6.25H33.125C32.4375 6.25 31.875 6.8125 31.875 7.5V11.25H38.75V7.5C38.75 6.8125 38.1875 6.25 37.5 6.25Z" fill="#A78ED7"/>
<path d="M31.875 32.3375C31.875 33.55 32.3125 34.7125 33.1125 35.625L34.0625 36.7125V37.4875C34.0625 38.175 34.625 38.7375 35.3125 38.7375C36 38.7375 36.5625 38.175 36.5625 37.4875V36.7125L37.5125 35.625C38.3125 34.7125 38.75 33.55 38.75 32.3375V13.75H31.875V32.3375Z" fill="#A78ED7"/>
</svg>
