<svg width="41" height="40" viewBox="0 0 41 40" fill="none" xmlns="http://www.w3.org/2000/svg">
<path d="M20.3333 5.625C12.4083 5.625 5.95825 12.075 5.95825 20C5.95825 23.5125 7.23325 26.7375 9.33325 29.2375L12.8708 25.7C12.7583 23.925 12.7458 18.7625 15.9208 15.5875C19.7208 11.7875 26.3833 12.55 26.6583 12.5875C27.2333 12.6625 27.6833 13.1125 27.7458 13.675C27.7833 13.9625 28.5458 20.6125 24.7458 24.4125C22.0708 27.0875 17.9833 27.5 15.6958 27.5C15.2708 27.5 14.9083 27.4875 14.6333 27.4625L11.0958 31C13.5958 33.1 16.8208 34.375 20.3333 34.375C28.2583 34.375 34.7083 27.925 34.7083 20C34.7083 12.075 28.2583 5.625 20.3333 5.625Z" fill="#A78ED7"/>
<path d="M17.1707 24.925C19.0332 24.7625 21.4082 24.2125 22.9832 22.6375C25.1582 20.4625 25.3707 16.7875 25.3332 15C23.5457 14.9625 19.8707 15.175 17.6957 17.35C16.1207 18.925 15.5832 21.2875 15.4082 23.15L19.1457 19.4125C19.6332 18.925 20.4207 18.925 20.9082 19.4125C21.3957 19.9 21.3957 20.6875 20.9082 21.175L17.1707 24.9125V24.925ZM21.5207 17.0375L22.1457 16.4125C22.6332 15.925 23.4207 15.925 23.9082 16.4125C24.3957 16.9 24.3957 17.6875 23.9082 18.175L23.2832 18.8C23.0332 19.05 22.7207 19.1625 22.3957 19.1625C22.0707 19.1625 21.7582 19.0375 21.5082 18.8C21.0207 18.3125 21.0207 17.525 21.5082 17.0375H21.5207Z" fill="#A78ED7"/>
<path d="M20.3333 38.75C9.99575 38.75 1.58325 30.3375 1.58325 20C1.58325 9.6625 9.99575 1.25 20.3333 1.25C30.6708 1.25 39.0833 9.6625 39.0833 20C39.0833 30.3375 30.6708 38.75 20.3333 38.75ZM20.3333 3.75C11.3708 3.75 4.08325 11.0375 4.08325 20C4.08325 28.9625 11.3708 36.25 20.3333 36.25C29.2958 36.25 36.5833 28.9625 36.5833 20C36.5833 11.0375 29.2958 3.75 20.3333 3.75Z" fill="#553597"/>
</svg>
