<svg width="41" height="40" viewBox="0 0 41 40" fill="none" xmlns="http://www.w3.org/2000/svg">
<path d="M37.8333 5H11.4083C10.8458 2.85 8.90825 1.25 6.58325 1.25C3.82075 1.25 1.58325 3.4875 1.58325 6.25V32.5C1.58325 35.95 4.38325 38.75 7.83325 38.75H37.8333C38.5208 38.75 39.0833 38.1875 39.0833 37.5V6.25C39.0833 5.5625 38.5208 5 37.8333 5ZM4.08325 6.25C4.08325 4.875 5.20825 3.75 6.58325 3.75C7.95825 3.75 9.08325 4.875 9.08325 6.25V28.175C8.34575 27.75 7.49575 27.5 6.58325 27.5C5.67075 27.5 4.82075 27.75 4.08325 28.175V6.25ZM36.5833 36.25H7.83325C5.77075 36.25 4.08325 34.5625 4.08325 32.5C4.08325 31.125 5.20825 30 6.58325 30C7.95825 30 9.08325 31.125 9.08325 32.5C9.08325 33.1875 9.64575 33.75 10.3333 33.75C11.0208 33.75 11.5833 33.1875 11.5833 32.5V7.5H36.5833V36.25Z" fill="#553597"/>
<path d="M22.8333 10H15.3333C14.6458 10 14.0833 10.5625 14.0833 11.25V16H22.8333V10Z" fill="#A78ED7"/>
<path d="M30.5083 24.125H34.0833V11.25C34.0833 10.5625 33.5208 10 32.8333 10H25.3333V16H27.1833C27.8708 16 28.4333 16.5625 28.4333 17.25C28.4333 17.9375 27.8708 18.5 27.1833 18.5H21.5833V20.8375C21.5833 21.525 21.0208 22.0875 20.3333 22.0875C19.6458 22.0875 19.0833 21.525 19.0833 20.8375V18.5H14.0833V32.5C14.0833 33.1875 14.6458 33.75 15.3333 33.75H22.8333V25.375C22.8333 24.6875 23.3958 24.125 24.0833 24.125H25.1958C25.8833 24.125 26.4458 24.6875 26.4458 25.375C26.4458 26.025 25.9583 26.55 25.3333 26.6125V33.75H32.8333C33.5208 33.75 34.0833 33.1875 34.0833 32.5V26.625H30.5083C29.8208 26.625 29.2583 26.0625 29.2583 25.375C29.2583 24.6875 29.8208 24.125 30.5083 24.125ZM19.0833 30H17.8333C17.1458 30 16.5833 29.4375 16.5833 28.75C16.5833 28.0625 17.1458 27.5 17.8333 27.5H19.0833C19.7708 27.5 20.3333 28.0625 20.3333 28.75C20.3333 29.4375 19.7708 30 19.0833 30Z" fill="#A78ED7"/>
</svg>
