<svg width="41" height="41" viewBox="0 0 41 41" fill="none" xmlns="http://www.w3.org/2000/svg">
<path d="M35.0417 20.425L33.7042 18.4125C33.0042 17.3625 31.8417 16.7375 30.5792 16.7375H30.0417V11.1125C30.0417 5.93755 25.8417 1.73755 20.6667 1.73755C15.4917 1.73755 11.2917 5.93755 11.2917 11.1125V16.7375H10.7542C9.50425 16.7375 8.32925 17.3625 7.62925 18.4125L6.29175 20.425C5.87925 21.0375 5.66675 21.7626 5.66675 22.5V33.4875C5.66675 34.225 5.87925 34.95 6.29175 35.5625L7.62925 37.5751C8.32925 38.625 9.49175 39.25 10.7542 39.25H30.5792C31.8292 39.25 33.0042 38.625 33.7042 37.5751L35.0417 35.5625C35.4542 34.95 35.6667 34.225 35.6667 33.4875V22.5C35.6667 21.7626 35.4542 21.0375 35.0417 20.425ZM13.7917 11.125C13.7917 7.33755 16.8792 4.25005 20.6667 4.25005C24.4542 4.25005 27.5417 7.33755 27.5417 11.125V16.75H25.6667V11.125C25.6667 8.36255 23.4292 6.12505 20.6667 6.12505C17.9042 6.12505 15.6667 8.36255 15.6667 11.125V16.75H13.7917V11.125ZM23.1667 16.75H18.1667V11.125C18.1667 9.75005 19.2917 8.62505 20.6667 8.62505C22.0417 8.62505 23.1667 9.75005 23.1667 11.125V16.75ZM33.1667 33.4875C33.1667 33.7375 33.0917 33.975 32.9542 34.175L31.6167 36.1875C31.3792 36.5375 30.9917 36.75 30.5792 36.75H10.7542C10.3417 36.75 9.94175 36.5375 9.71675 36.1875L8.37925 34.175C8.24175 33.9626 8.16675 33.725 8.16675 33.4875V22.5C8.16675 22.25 8.24175 22.0125 8.37925 21.8125L9.71675 19.8C9.95425 19.45 10.3417 19.2375 10.7542 19.2375H30.5792C30.9917 19.2375 31.3917 19.45 31.6167 19.8L32.9542 21.8125C33.0917 22.025 33.1667 22.2626 33.1667 22.5V33.4875Z" fill="#553597"/>
<path d="M23.1667 23.5H18.1667C16.7917 23.5 15.6667 24.715 15.6667 26.2C15.6667 27.685 16.7917 28.9 18.1667 28.9V29.8C18.1667 31.285 19.2917 32.5 20.6667 32.5C22.0417 32.5 23.1667 31.285 23.1667 29.8V28.9C24.5417 28.9 25.6667 27.685 25.6667 26.2C25.6667 24.715 24.5417 23.5 23.1667 23.5Z" fill="#A78ED7"/>
<path d="M29.1042 31.75H28.4792C27.7917 31.75 27.2292 32.3125 27.2292 33C27.2292 33.6875 27.7917 34.25 28.4792 34.25H29.1042C29.7917 34.25 30.3542 33.6875 30.3542 33C30.3542 32.3125 29.7917 31.75 29.1042 31.75Z" fill="#A78ED7"/>
<path d="M12.8542 31.75H12.2292C11.5417 31.75 10.9792 32.3125 10.9792 33C10.9792 33.6875 11.5417 34.25 12.2292 34.25H12.8542C13.5417 34.25 14.1042 33.6875 14.1042 33C14.1042 32.3125 13.5417 31.75 12.8542 31.75Z" fill="#A78ED7"/>
</svg>
