<svg width="41" height="40" viewBox="0 0 41 40" fill="none" xmlns="http://www.w3.org/2000/svg">
<path d="M7.20825 16.25H10.9583C11.6458 16.25 12.2083 15.6875 12.2083 15C12.2083 14.3125 11.6458 13.75 10.9583 13.75H7.20825C6.52075 13.75 5.95825 14.3125 5.95825 15C5.95825 15.6875 6.52075 16.25 7.20825 16.25Z" fill="#553597"/>
<path d="M10.9583 18.75H7.20825C6.52075 18.75 5.95825 19.3125 5.95825 20C5.95825 20.6875 6.52075 21.25 7.20825 21.25H10.9583C11.6458 21.25 12.2083 20.6875 12.2083 20C12.2083 19.3125 11.6458 18.75 10.9583 18.75Z" fill="#553597"/>
<path d="M22.1458 26.3875L16.5833 23.6125V11.4125L22.1458 8.63752C22.7583 8.32502 23.0083 7.57502 22.7083 6.96252C22.3958 6.35002 21.6458 6.10002 21.0333 6.40002L15.0458 9.38752H2.83325C2.14575 9.38752 1.58325 9.95002 1.58325 10.6375V24.3875C1.58325 25.075 2.14575 25.6375 2.83325 25.6375H4.08325V35.6375C4.08325 37.3625 5.48325 38.7625 7.20825 38.7625H10.3333C11.0208 38.7625 11.5833 38.2 11.5833 37.5125V31.2625H12.8333C14.8958 31.2625 16.5833 29.575 16.5833 27.5125V26.4125L21.0208 28.6375C21.1958 28.725 21.3958 28.775 21.5833 28.775C22.0458 28.775 22.4833 28.525 22.7083 28.0875C23.0208 27.475 22.7708 26.725 22.1458 26.4125V26.3875ZM4.08325 11.875H14.0833V23.125H4.08325V11.875ZM7.20825 36.25C6.85825 36.25 6.58325 35.975 6.58325 35.625V25.625H9.08325V36.25H7.20825ZM12.8333 28.75H11.5833V25.625H14.0833V27.5C14.0833 28.1875 13.5208 28.75 12.8333 28.75Z" fill="#553597"/>
<path d="M25.3333 29.275L29.0833 30.6124V4.38745L25.3333 5.72495V29.275Z" fill="#A78ED7"/>
<path d="M36.5833 10.625H34.0833V2.5C34.0833 1.8125 33.5208 1.25 32.8333 1.25C32.1458 1.25 31.5833 1.8125 31.5833 2.5V32.5C31.5833 33.1875 32.1458 33.75 32.8333 33.75C33.5208 33.75 34.0833 33.1875 34.0833 32.5V24.375H36.5833C37.9583 24.375 39.0833 23.25 39.0833 21.875V13.125C39.0833 11.75 37.9583 10.625 36.5833 10.625Z" fill="#A78ED7"/>
</svg>
