<svg width="40" height="41" viewBox="0 0 40 41" fill="none" xmlns="http://www.w3.org/2000/svg">
<g clip-path="url(#clip0_129_1696)">
<path d="M15.0452 0.5C7.09677 0.5 0.625 6.97177 0.625 14.9202C0.625 22.8686 7.09677 29.3403 15.0452 29.3403C22.9936 29.3403 29.4653 22.8686 29.4653 14.9202C29.4653 6.97177 22.9936 0.5 15.0452 0.5ZM15.0452 27.0331C8.36575 27.0331 2.93223 21.5996 2.93223 14.9202C2.93223 8.24075 8.36575 2.80723 15.0452 2.80723C21.7246 2.80723 27.1581 8.24075 27.1581 14.9202C27.1581 21.5996 21.7246 27.0331 15.0452 27.0331Z" fill="#553597"/>
<path d="M20.5571 13.9607C19.6357 16.0178 17.5786 17.4643 15.1786 17.4643C12.7786 17.4643 10.7107 16.0178 9.8 13.9607C9.13571 14.9678 8.75 16.1678 8.75 17.4643V18.5357C8.75 20.3036 10.1964 21.75 11.9643 21.75H18.3929C20.1607 21.75 21.6071 20.3036 21.6071 18.5357V17.4643C21.6071 16.1678 21.2214 14.9678 20.5571 13.9607Z" fill="#A78ED7"/>
<path d="M15.1786 15.3214C17.2464 15.3214 18.9286 13.6393 18.9286 11.5714V9.96429C18.9286 8.19643 17.4822 6.75 15.7143 6.75H14.6429C12.875 6.75 11.4286 8.19643 11.4286 9.96429V11.5714C11.4286 13.6393 13.1107 15.3214 15.1786 15.3214Z" fill="#A78ED7"/>
<path fill-rule="evenodd" clip-rule="evenodd" d="M25.7776 26.7073L22.9226 29.5623C22.4739 30.011 22.4739 30.7451 22.9226 31.1938C23.3712 31.6424 24.1054 31.6424 24.554 31.1938L24.9619 30.7859L32.3034 38.1274C33.6494 39.4734 35.8519 39.4734 37.1978 38.1274L38.8293 36.496C40.1752 35.15 40.1752 32.9476 38.8293 31.6016L31.4877 24.2601L31.8956 23.8522C32.3442 23.4036 32.3442 22.6694 31.8956 22.2208C31.4469 21.7721 30.7128 21.7721 30.2641 22.2208L27.4091 25.0758L24.9619 22.6286L23.3304 24.2601L25.7776 26.7073ZM37.1978 34.8645C37.6465 34.4159 37.6465 33.6817 37.1978 33.2331L33.1192 29.1544L29.8563 32.4173L33.9349 36.496C34.3836 36.9446 35.1177 36.9446 35.5664 36.496L37.1978 34.8645ZM31.4877 27.523L29.8563 25.8915L26.5934 29.1544L28.2248 30.7859L31.4877 27.523Z" fill="#553597"/>
</g>
<defs>
<clipPath id="clip0_129_1696">
<rect width="40" height="40" fill="white" transform="translate(0 0.5)"/>
</clipPath>
</defs>
</svg>
