<svg width="41" height="41" viewBox="0 0 41 41" fill="none" xmlns="http://www.w3.org/2000/svg">
<path d="M35.8668 7.97502C33.9043 7.97502 32.3168 9.57502 32.3168 11.525V18.4H30.6293C29.4043 18.425 28.2418 19.075 27.6043 20.1375L24.6043 25.1375C24.4918 25.3375 24.4293 25.55 24.4293 25.775V37.9875C24.4293 38.675 24.9918 39.2375 25.6793 39.2375H34.7293C35.4168 39.2375 35.9793 38.675 35.9793 37.9875V33.9L38.3918 31.4875C39.0668 30.8125 39.4293 29.925 39.4293 28.975V11.5125C39.4293 9.55003 37.8293 7.96252 35.8793 7.96252L35.8668 7.97502ZM36.9168 28.9875C36.9168 29.2625 36.8043 29.5375 36.6043 29.7375L34.1918 32.15H31.4168C30.7293 32.15 30.1668 32.7125 30.1668 33.4C30.1668 34.0875 30.7293 34.65 31.4168 34.65H33.4543V36.75H26.9043V26.1375L29.7293 21.4375C29.9168 21.125 30.2543 20.925 30.6293 20.925H32.3043V21.775C32.3043 22.525 32.0793 23.2375 31.6668 23.8625L30.2168 25.9875C29.8293 26.5625 29.9793 27.3375 30.5418 27.725C30.7543 27.875 31.0043 27.9375 31.2418 27.9375C31.6418 27.9375 32.0293 27.75 32.2793 27.3875L33.7293 25.2625C34.4293 24.225 34.8043 23.025 34.8043 21.7625V11.525C34.8043 10.9375 35.2793 10.475 35.8543 10.475C36.4293 10.475 36.9043 10.95 36.9043 11.525V28.9875H36.9168Z" fill="#553597"/>
<path d="M13.7418 20.15C13.1043 19.1 11.9543 18.4375 10.7168 18.425H9.02926V11.5375C9.02926 9.57505 7.42926 7.98755 5.47926 7.98755C3.52926 7.98755 1.92926 9.58755 1.92926 11.5375V29C1.92926 29.95 2.29176 30.8375 2.96676 31.5125L5.37926 33.925V38.0126C5.37926 38.7001 5.94176 39.2626 6.62926 39.2626H15.6793C16.3668 39.2626 16.9293 38.7001 16.9293 38.0126V25.8C16.9293 25.575 16.8668 25.35 16.7543 25.1625L13.7543 20.1625L13.7418 20.15ZM14.4168 36.75H7.86676V34.65H9.90426C10.5918 34.65 11.1543 34.0875 11.1543 33.4C11.1543 32.7125 10.5918 32.15 9.90426 32.15H7.12926L4.71676 29.7375C4.51676 29.5375 4.40426 29.2626 4.40426 28.9876V11.525C4.40426 10.9375 4.87926 10.475 5.45426 10.475C6.02926 10.475 6.50426 10.95 6.50426 11.525V21.7625C6.50426 23.0125 6.87926 24.225 7.57926 25.25L9.02926 27.375C9.26676 27.725 9.66676 27.925 10.0668 27.925C10.3043 27.925 10.5543 27.85 10.7668 27.7125C11.3418 27.3251 11.4793 26.55 11.0918 25.975L9.64176 23.85C9.21676 23.2375 9.00426 22.5125 9.00426 21.7625V20.9H10.6793C11.0418 20.9125 11.3918 21.1125 11.5793 21.425L14.4043 26.125V36.7375L14.4168 36.75Z" fill="#553597"/>
<path d="M18.5398 15.9707C19.1456 16.4861 19.9129 16.75 20.6802 16.75C21.4475 16.75 22.2148 16.4861 22.8206 15.9707L27.0341 12.4138C28.5552 11.1319 29.4167 9.29685 29.4167 7.38643C29.4167 5.97875 28.6764 4.63391 27.4514 3.81696C26.6437 3.27651 25.7014 3 24.7187 3H24.4898C22.9687 3 21.5552 3.6787 20.6667 4.83501C19.7917 3.6787 18.3648 3 16.8437 3H16.6148C15.6321 3 14.6898 3.27651 13.8821 3.81696C12.6437 4.63391 11.9167 5.96618 11.9167 7.38643C11.9167 9.29685 12.7917 11.1319 14.2994 12.4138L18.5129 15.9707H18.5398Z" fill="#A78ED7"/>
</svg>
