<svg width="41" height="41" viewBox="0 0 41 41" fill="none" xmlns="http://www.w3.org/2000/svg">
<path d="M38.2583 8.075L20.7583 1.825C20.4833 1.725 20.1833 1.725 19.9208 1.825L2.40825 8.075C1.90825 8.25 1.58325 8.725 1.58325 9.25C1.58325 9.775 1.92075 10.25 2.40825 10.425L7.83325 12.3625V19.25C7.83325 19.7875 8.18325 20.2625 8.68325 20.4375L19.9333 24.1875C20.0583 24.225 20.1958 24.25 20.3333 24.25C20.4708 24.25 20.5958 24.225 20.7333 24.1875L31.9833 20.4375C32.4958 20.2625 32.8333 19.7875 32.8333 19.25V12.3625L35.3333 11.475V20.5C35.3333 21.1875 35.8958 21.75 36.5833 21.75C37.2708 21.75 37.8333 21.1875 37.8333 20.5V10.575L38.2583 10.425C38.7583 10.25 39.0833 9.775 39.0833 9.25C39.0833 8.725 38.7458 8.25 38.2583 8.075ZM30.3333 18.35L20.3333 21.6875L10.3333 18.35V13.25L19.9083 16.675C20.0458 16.725 20.1833 16.75 20.3333 16.75C20.4833 16.75 20.6208 16.725 20.7583 16.675L30.3333 13.25V18.35ZM20.3333 14.175L6.54575 9.25L20.3333 4.325L34.1208 9.25L20.3333 14.175Z" fill="#553597"/>
<path d="M34.7083 39.25C37.1245 39.25 39.0833 36.172 39.0833 32.375C39.0833 28.578 37.1245 25.5 34.7083 25.5C32.292 25.5 30.3333 28.578 30.3333 32.375C30.3333 36.172 32.292 39.25 34.7083 39.25Z" fill="#A78ED7"/>
<path d="M11.4957 26.7125C12.3332 28.2625 12.8332 30.2125 12.8332 32.375C12.8332 34.5375 12.3707 36.3875 11.5707 37.925C17.3457 36.8375 23.3332 36.8375 29.1082 37.925C28.3082 36.3875 27.8457 34.4875 27.8457 32.375C27.8457 30.2625 28.3332 28.2625 29.1832 26.7125C23.3707 27.825 17.3332 27.825 11.5207 26.7125H11.4957Z" fill="#A78ED7"/>
<path d="M5.95825 39.25C8.3745 39.25 10.3333 36.172 10.3333 32.375C10.3333 28.578 8.3745 25.5 5.95825 25.5C3.54201 25.5 1.58325 28.578 1.58325 32.375C1.58325 36.172 3.54201 39.25 5.95825 39.25Z" fill="#A78ED7"/>
</svg>
