<svg width="41" height="40" viewBox="0 0 41 40" fill="none" xmlns="http://www.w3.org/2000/svg">
<path d="M24.5043 14.55C14.8793 12.0375 16.7918 3.16248 16.8793 2.78748C16.9668 2.41248 16.8793 2.01248 16.6293 1.71248C16.3793 1.41248 16.0043 1.21248 15.6168 1.26248C5.71677 1.61248 2.05427 10.825 1.91677 18.6125C1.76677 27.9 6.35427 38.1 15.1543 38.7125C15.5668 38.7375 15.9668 38.75 16.3543 38.75C24.7543 38.75 30.1418 32.575 31.1918 26.175C32.1168 20.5125 29.4293 15.8375 24.5043 14.55ZM28.7293 25.7625C27.8168 31.35 22.9293 36.75 15.3293 36.2125C8.32927 35.7375 4.27927 26.9125 4.41677 18.65C4.51677 12.375 7.17927 5.02498 14.2293 3.88748C14.0168 7.22498 14.6543 14.55 23.8668 16.9625C28.3168 18.125 29.2668 22.425 28.7293 25.7625Z" fill="#553597"/>
<path d="M18.4543 23.3375C15.3543 23.3375 12.8293 25.8625 12.8293 28.9625C12.8293 32.0625 15.3543 34.5875 18.4543 34.5875C21.5543 34.5875 24.0793 32.0625 24.0793 28.9625C24.0793 25.8625 21.5543 23.3375 18.4543 23.3375ZM18.4543 32.0875C16.7293 32.0875 15.3293 30.6875 15.3293 28.9625C15.3293 27.2375 16.7293 25.8375 18.4543 25.8375C20.1793 25.8375 21.5793 27.2375 21.5793 28.9625C21.5793 30.6875 20.1793 32.0875 18.4543 32.0875Z" fill="#553597"/>
<path d="M14.6667 21.25C14.6667 18.8375 12.7042 16.875 10.2917 16.875C7.87925 16.875 5.91675 18.8375 5.91675 21.25C5.91675 23.6625 7.87925 25.625 10.2917 25.625C12.7042 25.625 14.6667 23.6625 14.6667 21.25ZM10.2917 23.125C9.25425 23.125 8.41675 22.2875 8.41675 21.25C8.41675 20.2125 9.25425 19.375 10.2917 19.375C11.3292 19.375 12.1667 20.2125 12.1667 21.25C12.1667 22.2875 11.3292 23.125 10.2917 23.125Z" fill="#553597"/>
<path d="M10.7917 15.35C12.8542 15.35 14.5417 13.6625 14.5417 11.6C14.5417 9.53747 12.8542 7.84998 10.7917 7.84998C8.72925 7.84998 7.04175 9.53747 7.04175 11.6C7.04175 13.6625 8.72925 15.35 10.7917 15.35ZM10.7917 10.35C11.4792 10.35 12.0417 10.9125 12.0417 11.6C12.0417 12.2875 11.4792 12.85 10.7917 12.85C10.1042 12.85 9.54175 12.2875 9.54175 11.6C9.54175 10.9125 10.1042 10.35 10.7917 10.35Z" fill="#553597"/>
<path d="M34.3668 5.36247C34.0418 5.03747 33.5793 4.94997 33.1668 5.06247C32.9043 4.41247 32.5043 3.82497 31.9918 3.31247C30.0918 1.41247 24.6043 1.27497 23.5293 1.26247C23.2293 1.22497 22.9043 1.38747 22.6668 1.61247C22.4293 1.83747 22.3168 2.14997 22.3168 2.47497C22.3168 3.54997 22.4668 9.04997 24.3668 10.9375C24.8668 11.4375 25.4668 11.8375 26.1168 12.1C26.0043 12.525 26.0918 12.9875 26.4168 13.3125C26.6668 13.5625 26.9793 13.675 27.3043 13.675C27.6293 13.675 27.9418 13.55 28.1918 13.3125L34.3793 7.12497C34.8668 6.63747 34.8668 5.84997 34.3793 5.36247H34.3668Z" fill="#A78ED7"/>
<path d="M38.7543 13L35.3543 8.625L29.6918 14.2875L34.0668 17.6875C34.6293 18.125 35.3043 18.3375 35.9793 18.3375C36.7793 18.3375 37.5918 18.025 38.1918 17.425L38.5043 17.1125C39.6168 16 39.7293 14.225 38.7668 12.9875L38.7543 13Z" fill="#A78ED7"/>
</svg>
