<svg width="41" height="40" viewBox="0 0 41 40" fill="none" xmlns="http://www.w3.org/2000/svg">
<path d="M38.1667 16.25H37.9792L37.1417 11.25H38.1667C38.8542 11.25 39.4167 10.6875 39.4167 10C39.4167 9.3125 38.8542 8.75 38.1667 8.75H29.1542L28.3417 5.3375C28.2042 4.775 27.7042 4.375 27.1292 4.375H24.8417C24.3042 2.575 22.6417 1.25 20.6667 1.25C18.6917 1.25 17.0417 2.575 16.4917 4.375H14.2042C13.6292 4.375 13.1167 4.775 12.9917 5.3375L12.1792 8.75H3.16675C2.47925 8.75 1.91675 9.3125 1.91675 10C1.91675 10.6875 2.47925 11.25 3.16675 11.25H4.19175L3.35425 16.25H3.16675C2.47925 16.25 1.91675 16.8125 1.91675 17.5V20C1.91675 22.7625 4.15425 25 6.91675 25H9.41675C12.1792 25 14.4167 22.7625 14.4167 20V17.5C14.4167 16.8125 13.8542 16.25 13.1667 16.25H12.9792L12.1417 11.25H13.1667C13.7417 11.25 14.2542 10.85 14.3792 10.2875L15.1917 6.875H16.4917C16.9167 8.275 18.0167 9.375 19.4167 9.8V22.5C19.4167 23.1875 19.9792 23.75 20.6667 23.75C21.3542 23.75 21.9167 23.1875 21.9167 22.5V9.8C23.3167 9.375 24.4167 8.275 24.8417 6.875H26.1417L26.9542 10.2875C27.0917 10.85 27.5917 11.25 28.1667 11.25H29.1917L28.3542 16.25H28.1667C27.4792 16.25 26.9167 16.8125 26.9167 17.5V20C26.9167 22.7625 29.1542 25 31.9167 25H34.4167C37.1792 25 39.4167 22.7625 39.4167 20V17.5C39.4167 16.8125 38.8542 16.25 38.1667 16.25ZM11.9167 20C11.9167 21.375 10.7917 22.5 9.41675 22.5H6.91675C5.54175 22.5 4.41675 21.375 4.41675 20V18.75H11.9167V20ZM10.4417 16.25H5.89175L6.72925 11.25H9.61675L10.4542 16.25H10.4417ZM20.6667 7.5C19.6292 7.5 18.7917 6.6625 18.7917 5.625C18.7917 4.5875 19.6292 3.75 20.6667 3.75C21.7042 3.75 22.5417 4.5875 22.5417 5.625C22.5417 6.6625 21.7042 7.5 20.6667 7.5ZM31.7292 11.25H34.6167L35.4542 16.25H30.9042L31.7417 11.25H31.7292ZM36.9167 20C36.9167 21.375 35.7917 22.5 34.4167 22.5H31.9167C30.5417 22.5 29.4167 21.375 29.4167 20V18.75H36.9167V20Z" fill="#553597"/>
<path d="M5.66675 33.75V36.25C5.66675 37.625 6.79175 38.75 8.16675 38.75H33.1667C34.5417 38.75 35.6667 37.625 35.6667 36.25V33.75H5.66675Z" fill="#A78ED7"/>
<path d="M25.0417 26.25H16.2917V31.25H25.0417V26.25Z" fill="#A78ED7"/>
</svg>
