<svg width="41" height="40" viewBox="0 0 41 40" fill="none" xmlns="http://www.w3.org/2000/svg">
<path d="M38.1667 18.75H30.6667V16.125C30.6667 15.4375 30.1042 14.875 29.4167 14.875C28.7292 14.875 28.1667 15.4375 28.1667 16.125V36.25H25.6667V30C25.6667 29.3125 25.1042 28.75 24.4167 28.75H16.9167C16.2292 28.75 15.6667 29.3125 15.6667 30V36.25H13.1667V16.125C13.1667 15.4375 12.6042 14.875 11.9167 14.875C11.2292 14.875 10.6667 15.4375 10.6667 16.125V18.75H3.16675C2.47925 18.75 1.91675 19.3125 1.91675 20V37.5C1.91675 38.1875 2.47925 38.75 3.16675 38.75H38.1667C38.8542 38.75 39.4167 38.1875 39.4167 37.5V20C39.4167 19.3125 38.8542 18.75 38.1667 18.75ZM4.41675 21.25H10.6667V36.25H4.41675V21.25ZM18.1667 31.25H23.1667V36.25H18.1667V31.25ZM36.9167 36.25H30.6667V21.25H36.9167V36.25Z" fill="#553597"/>
<path d="M33.1667 26.25H34.4167C35.1042 26.25 35.6667 25.6875 35.6667 25C35.6667 24.3125 35.1042 23.75 34.4167 23.75H33.1667C32.4792 23.75 31.9167 24.3125 31.9167 25C31.9167 25.6875 32.4792 26.25 33.1667 26.25Z" fill="#553597"/>
<path d="M33.1667 30H34.4167C35.1042 30 35.6667 29.4375 35.6667 28.75C35.6667 28.0625 35.1042 27.5 34.4167 27.5H33.1667C32.4792 27.5 31.9167 28.0625 31.9167 28.75C31.9167 29.4375 32.4792 30 33.1667 30Z" fill="#553597"/>
<path d="M34.4167 31.25H33.1667C32.4792 31.25 31.9167 31.8125 31.9167 32.5C31.9167 33.1875 32.4792 33.75 33.1667 33.75H34.4167C35.1042 33.75 35.6667 33.1875 35.6667 32.5C35.6667 31.8125 35.1042 31.25 34.4167 31.25Z" fill="#553597"/>
<path d="M16.9167 26.25H18.1667C18.8542 26.25 19.4167 25.6875 19.4167 25C19.4167 24.3125 18.8542 23.75 18.1667 23.75H16.9167C16.2292 23.75 15.6667 24.3125 15.6667 25C15.6667 25.6875 16.2292 26.25 16.9167 26.25Z" fill="#553597"/>
<path d="M24.4167 23.75H23.1667C22.4792 23.75 21.9167 24.3125 21.9167 25C21.9167 25.6875 22.4792 26.25 23.1667 26.25H24.4167C25.1042 26.25 25.6667 25.6875 25.6667 25C25.6667 24.3125 25.1042 23.75 24.4167 23.75Z" fill="#553597"/>
<path d="M16.9167 22.5H18.1667C18.8542 22.5 19.4167 21.9375 19.4167 21.25C19.4167 20.5625 18.8542 20 18.1667 20H16.9167C16.2292 20 15.6667 20.5625 15.6667 21.25C15.6667 21.9375 16.2292 22.5 16.9167 22.5Z" fill="#553597"/>
<path d="M21.9167 21.25C21.9167 21.9375 22.4792 22.5 23.1667 22.5H24.4167C25.1042 22.5 25.6667 21.9375 25.6667 21.25C25.6667 20.5625 25.1042 20 24.4167 20H23.1667C22.4792 20 21.9167 20.5625 21.9167 21.25Z" fill="#553597"/>
<path d="M20.0417 17.5H21.2917C21.9792 17.5 22.5417 16.9375 22.5417 16.25C22.5417 15.5625 21.9792 15 21.2917 15H20.0417C19.3542 15 18.7917 15.5625 18.7917 16.25C18.7917 16.9375 19.3542 17.5 20.0417 17.5Z" fill="#553597"/>
<path d="M6.91675 26.25H8.16675C8.85425 26.25 9.41675 25.6875 9.41675 25C9.41675 24.3125 8.85425 23.75 8.16675 23.75H6.91675C6.22925 23.75 5.66675 24.3125 5.66675 25C5.66675 25.6875 6.22925 26.25 6.91675 26.25Z" fill="#553597"/>
<path d="M8.16675 27.5H6.91675C6.22925 27.5 5.66675 28.0625 5.66675 28.75C5.66675 29.4375 6.22925 30 6.91675 30H8.16675C8.85425 30 9.41675 29.4375 9.41675 28.75C9.41675 28.0625 8.85425 27.5 8.16675 27.5Z" fill="#553597"/>
<path d="M8.16675 31.25H6.91675C6.22925 31.25 5.66675 31.8125 5.66675 32.5C5.66675 33.1875 6.22925 33.75 6.91675 33.75H8.16675C8.85425 33.75 9.41675 33.1875 9.41675 32.5C9.41675 31.8125 8.85425 31.25 8.16675 31.25Z" fill="#553597"/>
<path d="M19.7792 8.68745C20.2667 8.19995 21.0542 8.19995 21.5417 8.68745L26.4792 13.625H33.5542L21.5542 1.61245C21.0667 1.12495 20.2792 1.12495 19.7917 1.61245L7.77924 13.625H14.8542L19.7917 8.68745H19.7792Z" fill="#A78ED7"/>
</svg>
