<svg width="40" height="40" viewBox="0 0 40 40" fill="none" xmlns="http://www.w3.org/2000/svg">
<path d="M32.5 1.24999H26.25C22.1125 1.24999 18.75 4.61249 18.75 8.74999V9.56249C17.7 8.77499 16.4125 8.27499 15 8.27499H10C9.3125 8.27499 8.75 8.83749 8.75 9.52499V10.775C8.75 14.225 11.55 17.025 15 17.025H18.75V19.675H21.25V11.55H26.25C30.3875 11.55 33.75 8.18749 33.75 4.04999V2.48749C33.75 1.79999 33.1875 1.23749 32.5 1.23749V1.24999Z" fill="#A78ED7"/>
<path d="M35.525 30.15C35 27.225 32.45 25 29.375 25C28.7125 25 28.0375 25.1125 27.4 25.3375C25.8125 22.825 23.025 21.25 20 21.25C16.975 21.25 14.1875 22.8125 12.6 25.3375C11.9625 25.1125 11.2875 25 10.625 25C7.55 25 4.9875 27.225 4.475 30.15C2.625 30.6625 1.25 32.3625 1.25 34.375C1.25 36.7875 3.2125 38.75 5.625 38.75H34.375C36.7875 38.75 38.75 36.7875 38.75 34.375C38.75 32.3625 37.3875 30.6625 35.525 30.15ZM34.375 36.25H5.625C4.5875 36.25 3.75 35.4125 3.75 34.375C3.75 33.3375 4.5875 32.5 5.625 32.5C6.3125 32.5 6.875 31.9375 6.875 31.25C6.875 29.1875 8.5625 27.5 10.625 27.5C11.275 27.5 11.9125 27.675 12.5125 28.0375C12.825 28.225 13.1875 28.2625 13.525 28.15C13.8625 28.0375 14.1375 27.7875 14.2875 27.4625C15.2875 25.2125 17.5375 23.75 20 23.75C22.4625 23.75 24.7 25.2125 25.7125 27.4625C25.8625 27.7875 26.1375 28.0375 26.475 28.15C26.8125 28.2625 27.1875 28.2125 27.4875 28.0375C28.0875 27.6875 28.725 27.5 29.375 27.5C31 27.5 32.375 28.55 32.9 30H16.875C16.1875 30 15.625 30.5625 15.625 31.25C15.625 31.9375 16.1875 32.5 16.875 32.5H34.375C35.4125 32.5 36.25 33.3375 36.25 34.375C36.25 35.4125 35.4125 36.25 34.375 36.25Z" fill="#553597"/>
<path d="M13.75 30H12.5C11.8125 30 11.25 30.5625 11.25 31.25C11.25 31.9375 11.8125 32.5 12.5 32.5H13.75C14.4375 32.5 15 31.9375 15 31.25C15 30.5625 14.4375 30 13.75 30Z" fill="#553597"/>
</svg>
