<svg width="40" height="40" viewBox="0 0 40 40" fill="none" xmlns="http://www.w3.org/2000/svg">
<path d="M28.9625 1.25H4.7875C2.8375 1.25 1.25 2.8375 1.25 4.7875V22.725C1.25 24.675 2.8375 26.2625 4.7875 26.2625H6.775L10.7625 33.2375C11.3875 34.3375 12.5625 35.0125 13.825 35.0125C14.9625 35.0125 16.0375 34.4625 16.7 33.5375L21.9 26.2625H28.975C30.925 26.2625 32.5125 24.675 32.5125 22.725V4.7875C32.5125 2.8375 30.925 1.25 28.975 1.25H28.9625ZM30 22.7125C30 23.2875 29.5375 23.75 28.9625 23.75H13.75C13.0625 23.75 12.5 24.3125 12.5 25C12.5 25.6875 13.0625 26.25 13.75 26.25H18.825L14.675 32.0625C14.2625 32.6375 13.2875 32.5875 12.9375 31.975L8.6 24.375C8.375 23.9875 7.9625 23.75 7.5125 23.75H4.8C4.225 23.75 3.7625 23.2875 3.7625 22.7125V4.7875C3.7625 4.2125 4.225 3.75 4.8 3.75H28.9875C29.5625 3.75 30.025 4.2125 30.025 4.7875V22.725L30 22.7125Z" fill="#553597"/>
<path d="M26.25 12.5H7.5C6.8125 12.5 6.25 13.0625 6.25 13.75C6.25 14.4375 6.8125 15 7.5 15H26.25C26.9375 15 27.5 14.4375 27.5 13.75C27.5 13.0625 26.9375 12.5 26.25 12.5Z" fill="#553597"/>
<path d="M26.25 18.75H7.5C6.8125 18.75 6.25 19.3125 6.25 20C6.25 20.6875 6.8125 21.25 7.5 21.25H26.25C26.9375 21.25 27.5 20.6875 27.5 20C27.5 19.3125 26.9375 18.75 26.25 18.75Z" fill="#553597"/>
<path d="M26.25 6.25H12.5C11.8125 6.25 11.25 6.8125 11.25 7.5C11.25 8.1875 11.8125 8.75 12.5 8.75H26.25C26.9375 8.75 27.5 8.1875 27.5 7.5C27.5 6.8125 26.9375 6.25 26.25 6.25Z" fill="#553597"/>
<path d="M7.5 8.75H8.125C8.8125 8.75 9.375 8.1875 9.375 7.5C9.375 6.8125 8.8125 6.25 8.125 6.25H7.5C6.8125 6.25 6.25 6.8125 6.25 7.5C6.25 8.1875 6.8125 8.75 7.5 8.75Z" fill="#553597"/>
<path d="M35.8125 13.15H35V22.7125C35 26.0375 32.2875 28.75 28.9625 28.75H23.175L20.65 32.2875H27.6C28.2875 32.2875 28.85 32.85 28.85 33.5375C28.85 34.225 28.2875 34.7875 27.6 34.7875H24.45L26.4 37.525C26.95 38.3 27.85 38.75 28.7875 38.75C29.8375 38.75 30.8125 38.1875 31.3375 37.275L34.1875 32.2875H35.8C37.425 32.2875 38.7375 30.975 38.7375 29.35V16.1C38.7375 14.475 37.425 13.1625 35.8 13.1625L35.8125 13.15Z" fill="#A78ED7"/>
</svg>
