<svg width="41" height="41" viewBox="0 0 41 41" fill="none" xmlns="http://www.w3.org/2000/svg">
<g clip-path="url(#clip0_124_453)">
<mask id="path-1-outside-1_124_453" maskUnits="userSpaceOnUse" x="0.333252" y="9.05005" width="31" height="31" fill="black">
<rect fill="white" x="0.333252" y="9.05005" width="31" height="31"/>
<path d="M30.224 24.2159H25.6321V22.8835C25.6321 21.5251 24.5458 20.3896 23.2105 20.3531C22.8776 20.3438 22.5463 20.4014 22.2361 20.5223C21.9259 20.6433 21.6431 20.8253 21.4044 21.0574C21.1657 21.2896 20.976 21.5672 20.8464 21.874C20.7169 22.1807 20.6502 22.5103 20.6502 22.8433V24.2159H16.6174V19.6239C16.6174 19.4756 16.5585 19.3334 16.4536 19.2285C16.3488 19.1236 16.2065 19.0647 16.0582 19.0647H14.1265C13.943 19.0649 13.7614 19.0283 13.5924 18.957C13.4234 18.8857 13.2704 18.7813 13.1425 18.6498C13.0146 18.5183 12.9143 18.3625 12.8477 18.1916C12.7811 18.0207 12.7494 17.8382 12.7546 17.6549C12.7748 16.919 13.4085 16.321 14.1667 16.321H16.0582C16.2065 16.321 16.3488 16.2621 16.4536 16.1572C16.5585 16.0524 16.6174 15.9102 16.6174 15.7619V10.6092C16.6174 10.4609 16.5585 10.3187 16.4536 10.2138C16.3488 10.109 16.2065 10.05 16.0582 10.05H4.46464C3.63469 10.0518 2.83924 10.3823 2.25237 10.9692C1.66551 11.556 1.33502 12.3515 1.33325 13.1814L1.33325 36.3686C1.33502 37.1986 1.66551 37.994 2.25237 38.5809C2.83924 39.1678 3.63469 39.4982 4.46464 39.5H27.6518C28.4818 39.4982 29.2772 39.1678 29.8641 38.5809C30.451 37.994 30.7814 37.1986 30.7832 36.3686V24.775C30.7832 24.6267 30.7243 24.4845 30.6194 24.3796C30.5146 24.2748 30.3723 24.2159 30.224 24.2159ZM4.46464 11.1684H15.4991V15.2012H14.1667C12.8933 15.2012 11.8159 16.1563 11.6564 17.3753C11.6111 17.7262 11.6412 18.0828 11.7447 18.4213C11.8481 18.7597 12.0225 19.0722 12.2563 19.3379C12.49 19.6036 12.7777 19.8164 13.1002 19.9622C13.4227 20.1079 13.7726 20.1832 14.1265 20.1831H15.4991V24.2159H10.9071C10.7588 24.2159 10.6166 24.2748 10.5117 24.3796C10.4068 24.4845 10.3479 24.6267 10.3479 24.775V26.7068C10.3481 26.8902 10.3115 27.0718 10.2402 27.2408C10.1689 27.4099 10.0645 27.5629 9.933 27.6908C9.80153 27.8187 9.64574 27.9189 9.47484 27.9856C9.30394 28.0522 9.12141 28.0838 8.93805 28.0786C8.20292 28.0585 7.60423 27.4248 7.60423 26.6665V24.775C7.60423 24.6267 7.54532 24.4845 7.44045 24.3796C7.33559 24.2748 7.19336 24.2159 7.04505 24.2159H2.45161V13.1814C2.45298 12.648 2.66551 12.1367 3.04273 11.7595C3.41995 11.3823 3.93117 11.1698 4.46464 11.1684ZM2.45161 36.3686V25.3342H6.48439V26.6665C6.48439 28.025 7.57068 29.1597 8.90599 29.197H8.97608C9.30316 29.197 9.62703 29.1326 9.92921 29.0074C10.2314 28.8822 10.5059 28.6987 10.7372 28.4674C10.9684 28.2361 11.1518 27.9615 11.2769 27.6592C11.402 27.357 11.4664 27.0331 11.4663 26.7061V25.3342H15.4991V29.9262C15.4991 30.0745 15.558 30.2167 15.6628 30.3216C15.7677 30.4264 15.9099 30.4853 16.0582 30.4853H17.99C18.354 30.4853 18.7032 30.63 18.9606 30.8874C19.218 31.1448 19.3626 31.4939 19.3626 31.8579C19.3626 32.222 19.218 32.5711 18.9606 32.8285C18.7032 33.0859 18.354 33.2305 17.99 33.2305H16.0582C15.9099 33.2305 15.7677 33.2894 15.6628 33.3943C15.558 33.4992 15.4991 33.6414 15.4991 33.7897V38.3817H4.46464C3.93117 38.3803 3.41995 38.1678 3.04273 37.7905C2.66551 37.4133 2.45298 36.9021 2.45161 36.3686ZM29.6649 36.3686C29.6635 36.9021 29.451 37.4133 29.0737 37.7905C28.6965 38.1678 28.1853 38.3803 27.6518 38.3817H16.6174V34.3489H17.99C18.6506 34.3489 19.2842 34.0864 19.7514 33.6193C20.2185 33.1522 20.4809 32.5186 20.4809 31.8579C20.4809 31.1973 20.2185 30.5637 19.7514 30.0966C19.2842 29.6294 18.6506 29.367 17.99 29.367H16.6174V25.3342H21.2094C21.3577 25.3342 21.4999 25.2753 21.6048 25.1704C21.7096 25.0656 21.7685 24.9233 21.7685 24.775V22.8433C21.7684 22.6598 21.805 22.4782 21.8763 22.3092C21.9476 22.1402 22.052 21.9872 22.1835 21.8593C22.3149 21.7314 22.4707 21.6311 22.6416 21.5645C22.8125 21.4979 22.9951 21.4662 23.1784 21.4714C23.9143 21.4915 24.5122 22.1253 24.5122 22.8835V24.775C24.5122 24.9233 24.5712 25.0656 24.676 25.1704C24.7809 25.2753 24.9231 25.3342 25.0714 25.3342H29.6649V36.3686Z"/>
</mask>
<path d="M30.224 24.2159H25.6321V22.8835C25.6321 21.5251 24.5458 20.3896 23.2105 20.3531C22.8776 20.3438 22.5463 20.4014 22.2361 20.5223C21.9259 20.6433 21.6431 20.8253 21.4044 21.0574C21.1657 21.2896 20.976 21.5672 20.8464 21.874C20.7169 22.1807 20.6502 22.5103 20.6502 22.8433V24.2159H16.6174V19.6239C16.6174 19.4756 16.5585 19.3334 16.4536 19.2285C16.3488 19.1236 16.2065 19.0647 16.0582 19.0647H14.1265C13.943 19.0649 13.7614 19.0283 13.5924 18.957C13.4234 18.8857 13.2704 18.7813 13.1425 18.6498C13.0146 18.5183 12.9143 18.3625 12.8477 18.1916C12.7811 18.0207 12.7494 17.8382 12.7546 17.6549C12.7748 16.919 13.4085 16.321 14.1667 16.321H16.0582C16.2065 16.321 16.3488 16.2621 16.4536 16.1572C16.5585 16.0524 16.6174 15.9102 16.6174 15.7619V10.6092C16.6174 10.4609 16.5585 10.3187 16.4536 10.2138C16.3488 10.109 16.2065 10.05 16.0582 10.05H4.46464C3.63469 10.0518 2.83924 10.3823 2.25237 10.9692C1.66551 11.556 1.33502 12.3515 1.33325 13.1814L1.33325 36.3686C1.33502 37.1986 1.66551 37.994 2.25237 38.5809C2.83924 39.1678 3.63469 39.4982 4.46464 39.5H27.6518C28.4818 39.4982 29.2772 39.1678 29.8641 38.5809C30.451 37.994 30.7814 37.1986 30.7832 36.3686V24.775C30.7832 24.6267 30.7243 24.4845 30.6194 24.3796C30.5146 24.2748 30.3723 24.2159 30.224 24.2159ZM4.46464 11.1684H15.4991V15.2012H14.1667C12.8933 15.2012 11.8159 16.1563 11.6564 17.3753C11.6111 17.7262 11.6412 18.0828 11.7447 18.4213C11.8481 18.7597 12.0225 19.0722 12.2563 19.3379C12.49 19.6036 12.7777 19.8164 13.1002 19.9622C13.4227 20.1079 13.7726 20.1832 14.1265 20.1831H15.4991V24.2159H10.9071C10.7588 24.2159 10.6166 24.2748 10.5117 24.3796C10.4068 24.4845 10.3479 24.6267 10.3479 24.775V26.7068C10.3481 26.8902 10.3115 27.0718 10.2402 27.2408C10.1689 27.4099 10.0645 27.5629 9.933 27.6908C9.80153 27.8187 9.64574 27.9189 9.47484 27.9856C9.30394 28.0522 9.12141 28.0838 8.93805 28.0786C8.20292 28.0585 7.60423 27.4248 7.60423 26.6665V24.775C7.60423 24.6267 7.54532 24.4845 7.44045 24.3796C7.33559 24.2748 7.19336 24.2159 7.04505 24.2159H2.45161V13.1814C2.45298 12.648 2.66551 12.1367 3.04273 11.7595C3.41995 11.3823 3.93117 11.1698 4.46464 11.1684ZM2.45161 36.3686V25.3342H6.48439V26.6665C6.48439 28.025 7.57068 29.1597 8.90599 29.197H8.97608C9.30316 29.197 9.62703 29.1326 9.92921 29.0074C10.2314 28.8822 10.5059 28.6987 10.7372 28.4674C10.9684 28.2361 11.1518 27.9615 11.2769 27.6592C11.402 27.357 11.4664 27.0331 11.4663 26.7061V25.3342H15.4991V29.9262C15.4991 30.0745 15.558 30.2167 15.6628 30.3216C15.7677 30.4264 15.9099 30.4853 16.0582 30.4853H17.99C18.354 30.4853 18.7032 30.63 18.9606 30.8874C19.218 31.1448 19.3626 31.4939 19.3626 31.8579C19.3626 32.222 19.218 32.5711 18.9606 32.8285C18.7032 33.0859 18.354 33.2305 17.99 33.2305H16.0582C15.9099 33.2305 15.7677 33.2894 15.6628 33.3943C15.558 33.4992 15.4991 33.6414 15.4991 33.7897V38.3817H4.46464C3.93117 38.3803 3.41995 38.1678 3.04273 37.7905C2.66551 37.4133 2.45298 36.9021 2.45161 36.3686ZM29.6649 36.3686C29.6635 36.9021 29.451 37.4133 29.0737 37.7905C28.6965 38.1678 28.1853 38.3803 27.6518 38.3817H16.6174V34.3489H17.99C18.6506 34.3489 19.2842 34.0864 19.7514 33.6193C20.2185 33.1522 20.4809 32.5186 20.4809 31.8579C20.4809 31.1973 20.2185 30.5637 19.7514 30.0966C19.2842 29.6294 18.6506 29.367 17.99 29.367H16.6174V25.3342H21.2094C21.3577 25.3342 21.4999 25.2753 21.6048 25.1704C21.7096 25.0656 21.7685 24.9233 21.7685 24.775V22.8433C21.7684 22.6598 21.805 22.4782 21.8763 22.3092C21.9476 22.1402 22.052 21.9872 22.1835 21.8593C22.3149 21.7314 22.4707 21.6311 22.6416 21.5645C22.8125 21.4979 22.9951 21.4662 23.1784 21.4714C23.9143 21.4915 24.5122 22.1253 24.5122 22.8835V24.775C24.5122 24.9233 24.5712 25.0656 24.676 25.1704C24.7809 25.2753 24.9231 25.3342 25.0714 25.3342H29.6649V36.3686Z" fill="#553597"/>
<path d="M30.224 24.2159H25.6321V22.8835C25.6321 21.5251 24.5458 20.3896 23.2105 20.3531C22.8776 20.3438 22.5463 20.4014 22.2361 20.5223C21.9259 20.6433 21.6431 20.8253 21.4044 21.0574C21.1657 21.2896 20.976 21.5672 20.8464 21.874C20.7169 22.1807 20.6502 22.5103 20.6502 22.8433V24.2159H16.6174V19.6239C16.6174 19.4756 16.5585 19.3334 16.4536 19.2285C16.3488 19.1236 16.2065 19.0647 16.0582 19.0647H14.1265C13.943 19.0649 13.7614 19.0283 13.5924 18.957C13.4234 18.8857 13.2704 18.7813 13.1425 18.6498C13.0146 18.5183 12.9143 18.3625 12.8477 18.1916C12.7811 18.0207 12.7494 17.8382 12.7546 17.6549C12.7748 16.919 13.4085 16.321 14.1667 16.321H16.0582C16.2065 16.321 16.3488 16.2621 16.4536 16.1572C16.5585 16.0524 16.6174 15.9102 16.6174 15.7619V10.6092C16.6174 10.4609 16.5585 10.3187 16.4536 10.2138C16.3488 10.109 16.2065 10.05 16.0582 10.05H4.46464C3.63469 10.0518 2.83924 10.3823 2.25237 10.9692C1.66551 11.556 1.33502 12.3515 1.33325 13.1814L1.33325 36.3686C1.33502 37.1986 1.66551 37.994 2.25237 38.5809C2.83924 39.1678 3.63469 39.4982 4.46464 39.5H27.6518C28.4818 39.4982 29.2772 39.1678 29.8641 38.5809C30.451 37.994 30.7814 37.1986 30.7832 36.3686V24.775C30.7832 24.6267 30.7243 24.4845 30.6194 24.3796C30.5146 24.2748 30.3723 24.2159 30.224 24.2159ZM4.46464 11.1684H15.4991V15.2012H14.1667C12.8933 15.2012 11.8159 16.1563 11.6564 17.3753C11.6111 17.7262 11.6412 18.0828 11.7447 18.4213C11.8481 18.7597 12.0225 19.0722 12.2563 19.3379C12.49 19.6036 12.7777 19.8164 13.1002 19.9622C13.4227 20.1079 13.7726 20.1832 14.1265 20.1831H15.4991V24.2159H10.9071C10.7588 24.2159 10.6166 24.2748 10.5117 24.3796C10.4068 24.4845 10.3479 24.6267 10.3479 24.775V26.7068C10.3481 26.8902 10.3115 27.0718 10.2402 27.2408C10.1689 27.4099 10.0645 27.5629 9.933 27.6908C9.80153 27.8187 9.64574 27.9189 9.47484 27.9856C9.30394 28.0522 9.12141 28.0838 8.93805 28.0786C8.20292 28.0585 7.60423 27.4248 7.60423 26.6665V24.775C7.60423 24.6267 7.54532 24.4845 7.44045 24.3796C7.33559 24.2748 7.19336 24.2159 7.04505 24.2159H2.45161V13.1814C2.45298 12.648 2.66551 12.1367 3.04273 11.7595C3.41995 11.3823 3.93117 11.1698 4.46464 11.1684ZM2.45161 36.3686V25.3342H6.48439V26.6665C6.48439 28.025 7.57068 29.1597 8.90599 29.197H8.97608C9.30316 29.197 9.62703 29.1326 9.92921 29.0074C10.2314 28.8822 10.5059 28.6987 10.7372 28.4674C10.9684 28.2361 11.1518 27.9615 11.2769 27.6592C11.402 27.357 11.4664 27.0331 11.4663 26.7061V25.3342H15.4991V29.9262C15.4991 30.0745 15.558 30.2167 15.6628 30.3216C15.7677 30.4264 15.9099 30.4853 16.0582 30.4853H17.99C18.354 30.4853 18.7032 30.63 18.9606 30.8874C19.218 31.1448 19.3626 31.4939 19.3626 31.8579C19.3626 32.222 19.218 32.5711 18.9606 32.8285C18.7032 33.0859 18.354 33.2305 17.99 33.2305H16.0582C15.9099 33.2305 15.7677 33.2894 15.6628 33.3943C15.558 33.4992 15.4991 33.6414 15.4991 33.7897V38.3817H4.46464C3.93117 38.3803 3.41995 38.1678 3.04273 37.7905C2.66551 37.4133 2.45298 36.9021 2.45161 36.3686ZM29.6649 36.3686C29.6635 36.9021 29.451 37.4133 29.0737 37.7905C28.6965 38.1678 28.1853 38.3803 27.6518 38.3817H16.6174V34.3489H17.99C18.6506 34.3489 19.2842 34.0864 19.7514 33.6193C20.2185 33.1522 20.4809 32.5186 20.4809 31.8579C20.4809 31.1973 20.2185 30.5637 19.7514 30.0966C19.2842 29.6294 18.6506 29.367 17.99 29.367H16.6174V25.3342H21.2094C21.3577 25.3342 21.4999 25.2753 21.6048 25.1704C21.7096 25.0656 21.7685 24.9233 21.7685 24.775V22.8433C21.7684 22.6598 21.805 22.4782 21.8763 22.3092C21.9476 22.1402 22.052 21.9872 22.1835 21.8593C22.3149 21.7314 22.4707 21.6311 22.6416 21.5645C22.8125 21.4979 22.9951 21.4662 23.1784 21.4714C23.9143 21.4915 24.5122 22.1253 24.5122 22.8835V24.775C24.5122 24.9233 24.5712 25.0656 24.676 25.1704C24.7809 25.2753 24.9231 25.3342 25.0714 25.3342H29.6649V36.3686Z" stroke="#553597" stroke-width="0.949999" mask="url(#path-1-outside-1_124_453)"/>
<path d="M39.3242 16.1508L37.2157 4.19043C37.0649 3.34064 36.5832 2.58536 35.8762 2.0903C35.1692 1.59524 34.2948 1.40084 33.4446 1.54973L21.4843 3.65903C21.4123 3.67158 21.3435 3.69821 21.2817 3.73739C21.22 3.77658 21.1667 3.82755 21.1247 3.88739C21.0827 3.94723 21.0529 4.01476 21.0371 4.08612C21.0212 4.15748 21.0196 4.23126 21.0323 4.30325L21.8732 9.07031L20.4282 9.32488C20.0944 9.3837 19.7755 9.50768 19.4896 9.68976C19.2038 9.87183 18.9566 10.1084 18.7622 10.386C18.5677 10.6636 18.4299 10.9768 18.3565 11.3077C18.2831 11.6385 18.2756 11.9806 18.3345 12.3144C18.3933 12.6482 18.5173 12.9671 18.6993 13.2529C18.8814 13.5388 19.118 13.786 19.3956 13.9804C19.6732 14.1748 19.9864 14.3127 20.3173 14.3861C20.6481 14.4594 20.9902 14.4669 21.324 14.4081L22.769 14.1535L23.6099 18.9214C23.6356 19.0667 23.718 19.1959 23.839 19.2805C23.9599 19.3652 24.1095 19.3983 24.2549 19.3726L29.0227 18.5317L28.5818 16.032C28.3369 14.6456 29.2409 13.2919 30.5969 13.0143C30.9347 12.9448 31.283 12.9438 31.6212 13.0113C31.9595 13.0787 32.2807 13.2133 32.5661 13.407C32.8514 13.6007 33.095 13.8497 33.2825 14.1392C33.47 14.4287 33.5976 14.7528 33.6576 15.0924L34.103 17.6344L38.8708 16.7935C39.0161 16.7683 39.1454 16.6865 39.2305 16.566C39.3155 16.4454 39.3492 16.2961 39.3242 16.1508Z" fill="#A78ED7"/>
</g>
<defs>
<clipPath id="clip0_124_453">
<rect width="40" height="40" fill="white" transform="translate(0.333252 0.5)"/>
</clipPath>
</defs>
</svg>
