<svg width="116" height="118" viewBox="0 0 116 118" fill="none" xmlns="http://www.w3.org/2000/svg">
<path d="M90.7567 12.0478L88.3809 9.03145L90.7567 6.01508L93.1326 9.03145L90.7567 12.0478ZM89.0546 9.03145L90.7567 11.1911L92.4589 9.03145L90.7567 6.8718L89.0546 9.03145Z" fill="#A78ED7"/>
<path d="M80.8222 7.4639L79.1172 9.1803L79.4933 9.55891L81.1984 7.84252L80.8222 7.4639Z" fill="#6F46BE"/>
<path d="M83.3222 4.94726L81.6172 6.66367L81.9933 7.04228L83.6984 5.32588L83.3222 4.94726Z" fill="#6F46BE"/>
<path d="M79.4923 4.94676L79.1162 5.32538L80.8213 7.04178L81.1974 6.66316L79.4923 4.94676Z" fill="#6F46BE"/>
<path d="M81.9923 7.46327L81.6162 7.84189L83.3213 9.55829L83.6974 9.17967L81.9923 7.46327Z" fill="#6F46BE"/>
<path d="M59.5826 0.610199H12.6133C11.2906 0.610199 10.0856 1.68287 9.92438 3.00741L0.446082 80.2018C0.283006 81.5263 1.22523 82.5972 2.54795 82.5972H49.5173C50.8418 82.5972 52.0449 81.5263 52.208 80.2018L61.6863 3.00741C61.8494 1.68287 60.9072 0.610199 59.5844 0.610199H59.5826Z" fill="white"/>
<path d="M61.5047 1.02332C61.0264 0.481546 60.3433 0.184387 59.5823 0.184387H12.613C11.0837 0.184387 9.68668 1.42738 9.50005 2.95667L0.0217541 80.1529C-0.0724672 80.9193 0.141335 81.6423 0.625125 82.1877C1.10348 82.7295 1.78659 83.0266 2.54761 83.0266H49.5169C51.0462 83.0266 52.445 81.7836 52.6316 80.2562L62.1099 3.05995C62.2042 2.29349 61.9904 1.57053 61.5066 1.02332H61.5047ZM43.9053 82.1714H2.54761C2.03483 82.1714 1.58003 81.9757 1.26475 81.6206C0.945845 81.26 0.806326 80.7762 0.869744 80.2562L10.348 3.05995C10.4857 1.9456 11.5004 1.03781 12.613 1.03781H53.9707C54.4835 1.03781 54.9401 1.23351 55.2535 1.58865C55.5724 1.94922 55.712 2.43483 55.6485 2.95486L46.1702 80.1511C46.0343 81.2654 45.016 82.1714 43.9035 82.1714H43.9053ZM61.2601 2.95486L51.7818 80.1511C51.6459 81.2654 50.6276 82.1714 49.5151 82.1714H46.0126C46.0416 82.1442 46.0688 82.1152 46.096 82.0881C46.1268 82.0573 46.1576 82.0283 46.1865 81.9975C46.221 81.9612 46.2536 81.9214 46.2862 81.8833C46.3134 81.8507 46.3424 81.8199 46.3677 81.7855C46.3985 81.7456 46.4293 81.7039 46.4583 81.6622C46.4819 81.6278 46.5073 81.5952 46.5308 81.5608C46.5598 81.5173 46.5852 81.472 46.6124 81.4267C46.6323 81.3923 46.6558 81.3578 46.674 81.3216C46.6993 81.2745 46.7229 81.2238 46.7446 81.1748C46.7609 81.1404 46.7791 81.106 46.7954 81.0697C46.8189 81.0172 46.837 80.9628 46.857 80.9085C46.8697 80.8759 46.8823 80.8432 46.895 80.8088C46.915 80.7472 46.9313 80.6856 46.9458 80.6222C46.953 80.5932 46.9621 80.566 46.9693 80.537C46.9892 80.4446 47.0056 80.3522 47.0182 80.258L56.4965 3.06176C56.5074 2.96573 56.5147 2.87151 56.5183 2.77728C56.5183 2.74648 56.5165 2.71568 56.5165 2.68488C56.5165 2.62327 56.5165 2.55985 56.511 2.49824C56.5092 2.46382 56.502 2.42939 56.4983 2.39496C56.4911 2.33879 56.4857 2.28262 56.4766 2.22826C56.4693 2.19203 56.4585 2.15579 56.4512 2.11955C56.4404 2.06881 56.4295 2.01627 56.415 1.96553C56.4041 1.92748 56.3896 1.89305 56.3769 1.85681C56.3606 1.8097 56.3461 1.76078 56.3262 1.71367C56.3099 1.67562 56.2918 1.64119 56.2737 1.60495C56.2537 1.56147 56.2338 1.51617 56.2102 1.47449C56.1903 1.43644 56.1649 1.40202 56.1432 1.36578C56.1196 1.32591 56.0961 1.28605 56.0689 1.248C56.0417 1.20995 56.0127 1.17552 55.9837 1.13928C55.9584 1.10667 55.9348 1.07405 55.9076 1.04325H59.5823C60.0951 1.04325 60.5517 1.23894 60.8651 1.59408C61.184 1.95466 61.3236 2.44026 61.2601 2.96029V2.95486Z" fill="#6F46BE"/>
<path d="M58.2524 9.58661C57.466 9.58661 56.7756 10.2009 56.6778 10.9854L55.77 18.3782C55.7211 18.7768 55.8334 19.1537 56.0871 19.44C56.3389 19.7245 56.6959 19.8821 57.0927 19.8821C57.8791 19.8821 58.5713 19.2678 58.6673 18.4833L59.5751 11.0905C59.624 10.6919 59.5117 10.315 59.258 10.0287C59.0061 9.74425 58.6492 9.58661 58.2524 9.58661ZM58.7271 10.9854L57.8193 18.3782C57.7758 18.7297 57.4442 19.0269 57.0927 19.0269C56.9441 19.0269 56.8155 18.9725 56.7267 18.8728C56.6379 18.7714 56.598 18.6337 56.618 18.4815L57.5258 11.0887C57.5693 10.7372 57.9008 10.44 58.2524 10.44C58.4009 10.44 58.5296 10.4944 58.6184 10.5941C58.7072 10.6955 58.747 10.8332 58.7271 10.9854Z" fill="#6F46BE"/>
<path d="M56.7538 21.8027C55.9674 21.8027 55.2752 22.417 55.1792 23.2016L52.7602 42.8974C52.7113 43.2961 52.8236 43.6729 53.0773 43.9592C53.3292 44.2437 53.6861 44.4013 54.0829 44.4013C54.8693 44.4013 55.5615 43.7871 55.6575 43.0025L58.0765 23.3067C58.1254 22.908 58.0131 22.5311 57.7594 22.2449C57.5075 21.9604 57.1506 21.8027 56.7538 21.8027ZM57.2285 23.2016L54.8095 42.8974C54.7661 43.2489 54.4345 43.5461 54.0829 43.5461C53.9344 43.5461 53.8057 43.4917 53.7169 43.3921C53.6281 43.2906 53.5883 43.1529 53.6082 43.0007L56.0272 23.3048C56.0706 22.9533 56.4022 22.6562 56.7538 22.6562C56.9023 22.6562 57.031 22.7105 57.1198 22.8102C57.2086 22.9116 57.2484 23.0494 57.2285 23.2016Z" fill="#6F46BE"/>
<path d="M41.8019 76.8823H6.59212C5.36906 76.8823 4.49933 75.8912 4.64972 74.6681L13.0481 6.26529C13.1985 5.04222 14.311 4.05109 15.5341 4.05109H50.7439C51.9669 4.05109 52.8367 5.04222 52.6863 6.26529L44.2879 74.6681C44.1375 75.8912 43.025 76.8823 41.8019 76.8823Z" fill="#A78ED7"/>
<path d="M37.3732 6.08771H22.3721C21.5495 6.08771 20.8809 6.7545 20.8809 7.57894C20.8809 8.40338 21.5477 9.07017 22.3721 9.07017H37.3732C38.1958 9.07017 38.8644 8.40338 38.8644 7.57894C38.8644 6.7545 38.1976 6.08771 37.3732 6.08771Z" fill="#6F46BE"/>
<path d="M35.3065 49.7466H16.6815C15.3026 49.7466 14.3206 48.6286 14.4909 47.2479L16.7776 28.6229C16.9461 27.244 18.2017 26.1242 19.5824 26.1242H38.2075C39.5864 26.1242 40.5684 27.2422 40.3981 28.6229L38.1114 47.2479C37.9429 48.6268 36.6872 49.7466 35.3065 49.7466Z" fill="white"/>
<path d="M36.0893 73.6372C36.0361 73.4765 34.724 66.1944 34.5645 64.5524C34.5645 64.5524 36.0361 62.8032 44.1921 60.5008L46.2665 72.2629L36.0893 73.6372Z" fill="#6F46BE"/>
<path d="M116 101.177C115.982 101.177 115.965 101.177 115.947 101.177C109.28 104.64 103.926 106.407 100.344 107.335L97.5781 82.133L98.2696 81.8831L108.855 78.0993L113.34 76.493C113.34 76.493 113.606 78.9739 113.961 82.3651C114.688 89.201 115.823 99.7672 115.982 101.177C116 101.159 116 101.177 116 101.177Z" fill="white"/>
<path d="M99.4393 83.1861C99.4393 83.1861 102.542 109.191 102.985 112.136C91.5847 118.776 67.0103 119.454 59.4571 114.903C59.5281 114.653 60.0777 83.4716 60.0777 83.4716L48.3402 77.189C48.1451 75.2971 47.8437 73.066 47.5068 71.4775C47.56 71.3169 47.6132 71.1741 47.6664 71.0135C50.4501 62.7854 58.482 47.293 79.7053 45.5082C97.1875 44.0268 113.375 59.3942 114.687 77.9386L99.4393 83.1861Z" fill="#6F46BE"/>
<path d="M88.2165 33.8175C87.8619 35.7451 85.3619 35.763 85.3619 35.763C84.6527 39.761 84.6704 46.9003 84.6704 46.9003C83.9257 50.3451 75.3619 49.8453 74.1562 46.9003C74.1208 46.829 74.1208 46.1864 74.1208 45.5082C74.1208 44.705 74.1562 43.8304 74.1562 43.8304C74.1562 43.8304 67.7378 43.3664 67.3123 39.2791C67.0641 36.9588 67.6669 28.9628 68.0038 25.286C70.9116 25.9107 74.369 24.5007 74.369 24.5007C73.252 26.9994 79.0676 29.0698 81.6208 25.4466C81.6208 25.4466 78.3052 31.9256 82.9151 34.1923C83.6775 31.3544 85.3973 30.6405 86.6917 31.0867C87.72 31.4437 88.4647 32.5146 88.2165 33.8175Z" fill="white"/>
<path d="M86.7095 31.0867C85.4329 30.6405 83.7131 31.3366 82.9329 34.1923C78.323 31.9256 81.6386 25.4466 81.6386 25.4466C79.1031 29.0877 73.2698 27.0173 74.3869 24.5007C74.3869 24.5007 70.9294 25.8928 68.0216 25.286C66.4968 24.9647 65.1138 24.0902 64.4578 22.1804C62.6493 16.9687 67.8089 15.8799 69.5996 18.6107C70.0961 19.3604 71.1244 20.6633 71.1244 20.6633C71.1244 20.6633 70.7344 18.6643 72.5074 18.8963C73.9436 19.0748 72.933 20.7882 76.5677 21.4129C77.7911 21.6271 80.4684 20.8239 83.2166 21.3237C84.2804 21.52 84.9719 22.9479 84.7237 24.1259C88.2521 24.1437 86.9223 30.1765 86.7095 31.0867Z" fill="#6F46BE"/>
<path d="M60.096 83.4716C60.096 83.4716 59.8832 85.1494 59.5818 87.434C59.1563 90.7537 58.5534 95.3408 58.1988 97.8574C57.4541 103.194 49.9364 109.084 44.9719 104.604C41.2485 101.249 39.1563 95.8048 37.0996 85.2029C38.6244 85.0423 41.0535 84.6496 43.1102 83.775C46.3194 82.4186 48.5535 81.2227 48.6421 80.8658C48.6776 80.723 48.5712 79.1345 48.3584 77.189L60.096 83.4716Z" fill="white"/>
<path d="M48.3583 77.189C48.1633 75.2971 47.8619 73.066 47.525 71.4775C47.2768 70.2995 47.1526 69.4071 46.6916 69.4071C45.7874 69.4071 40.4505 71.4597 40.1314 71.5846C40.1137 71.5846 40.1137 71.5846 40.1137 71.5846C40.3087 71.2812 44.5463 67.6044 45.9824 66.2123C47.4363 64.8201 46.6739 62.2678 46.6739 62.2678C37.7555 66.8013 34.9541 72.6734 34.9541 72.6734C35.0959 73.6372 35.2378 74.5653 35.3796 75.4577C35.9647 79.1166 36.5144 82.3293 37.064 85.1851C38.5888 85.0244 41.0179 84.6318 43.0746 83.7572C46.2838 82.4007 48.5179 81.2049 48.6065 80.8479C48.6775 80.7408 48.5711 79.1345 48.3583 77.189Z" fill="white"/>
<path d="M42.0997 75.0829L41.9756 74.7438C42.1706 74.6724 46.5855 72.9768 47.8089 72.834L47.8444 73.191C46.6564 73.3159 42.1352 75.0651 42.0997 75.0829Z" fill="#6F46BE"/>
<path d="M41.3544 84.5603L41.248 84.2212C43.1097 83.5787 48.0743 81.2227 48.4643 80.7943C48.4821 80.5623 48.3757 79.0988 48.1806 77.189L48.1629 76.9748C46.5849 77.0283 42.9679 78.7239 42.9324 78.7418L42.7906 78.4205C42.9502 78.3491 46.7622 76.5821 48.3402 76.6357H48.4998L48.553 77.1533C48.7303 78.7953 48.8721 80.6873 48.8189 80.9014C48.6771 81.4369 42.7551 84.0784 41.3544 84.5603Z" fill="#6F46BE"/>
<path d="M52.0467 92.2351C51.0006 91.0214 47.224 82.2936 47.0645 81.9188L47.3836 81.776C47.4191 81.8652 51.302 90.8251 52.3127 92.0031L52.0467 92.2351Z" fill="#6F46BE"/>
<path d="M106.953 38.204H106.421V40.6314H106.953V38.204Z" fill="#6F46BE"/>
<path d="M106.953 34.6521H106.421V37.0795H106.953V34.6521Z" fill="#6F46BE"/>
<path d="M106.137 37.3829H103.726V37.9184H106.137V37.3829Z" fill="#6F46BE"/>
<path d="M109.665 37.3829H107.254V37.9184H109.665V37.3829Z" fill="#6F46BE"/>
<path d="M27.6505 106.264L26.3916 101.552L31.0724 102.819L27.6505 106.264ZM27.154 102.319L27.9341 105.229L30.0618 103.087L27.154 102.319Z" fill="#A78ED7"/>
<path d="M40.0668 71.4272L37.6748 72.3759L37.8048 72.7081L40.1968 71.7593L40.0668 71.4272Z" fill="#6F46BE"/>
<path d="M76.9164 34.3362C78.8161 34.3229 80.3515 33.6409 80.3458 32.8129C80.3401 31.9848 78.7955 31.3244 76.8958 31.3376C74.9961 31.3509 73.4607 32.0329 73.4664 32.861C73.4721 33.689 75.0167 34.3495 76.9164 34.3362Z" fill="white"/>
<path d="M73.3047 32.8537C73.3047 31.9256 74.865 31.1938 76.8862 31.176C77.8259 31.176 78.7125 31.3188 79.3862 31.6043C80.0954 31.9077 80.4855 32.3361 80.4855 32.8002C80.4855 33.2642 80.0954 33.6926 79.404 33.996C78.7302 34.2994 77.8614 34.4601 76.9217 34.4601C76.1238 34.4779 75.3437 34.353 74.5813 34.0852C73.8011 33.8175 73.3047 33.3713 73.3047 32.8537ZM79.1203 31.8185C78.411 31.5686 77.6486 31.4437 76.8862 31.4615C75.0955 31.4794 73.5884 32.1041 73.6061 32.8359C73.6238 33.5676 75.1309 34.1745 76.904 34.1745C77.8082 34.1745 78.6415 34.0138 79.2798 33.7283C79.8649 33.4784 80.2018 33.1214 80.2018 32.8002C80.2018 32.461 79.8649 32.1398 79.2798 31.872C79.2266 31.872 79.1735 31.8542 79.1203 31.8185Z" fill="#6F46BE"/>
<path d="M77.1038 33.4418C77.1845 32.9356 76.5288 32.4088 75.6392 32.2651C74.7497 32.1213 73.9632 32.4151 73.8825 32.9212C73.8018 33.4274 74.4574 33.9542 75.347 34.0979C76.2365 34.2417 77.023 33.9479 77.1038 33.4418Z" fill="#6F46BE"/>
<path d="M74.7413 34.0852C74.0675 33.8354 73.6597 33.3713 73.7306 32.9073C73.8193 32.3183 74.6703 31.9791 75.6632 32.1398C76.6561 32.3004 77.3476 32.8894 77.2412 33.4784C77.1526 34.0674 76.3015 34.4065 75.3086 34.2459C75.1136 34.2102 74.9186 34.1566 74.7413 34.0852ZM76.9576 33.4249C77.0285 33.0143 76.4079 32.5503 75.6101 32.4253C74.8122 32.3004 74.0852 32.5324 74.0143 32.943C73.9434 33.3535 74.564 33.8175 75.3618 33.9425C76.1597 34.0674 76.8866 33.8354 76.9576 33.4249Z" fill="#6F46BE"/>
<path d="M68.7778 33.8543C70.6775 33.8411 72.2128 33.159 72.2071 32.331C72.2014 31.503 70.6568 30.8425 68.7571 30.8558C66.8574 30.8691 65.322 31.5511 65.3277 32.3791C65.3334 33.2071 66.8781 33.8676 68.7778 33.8543Z" fill="white"/>
<path d="M65.1846 32.3897C65.1846 31.4615 66.7449 30.7298 68.7661 30.7119C69.7058 30.7119 70.5924 30.8547 71.2661 31.1403C71.9753 31.4437 72.3654 31.8721 72.3654 32.3361C72.3654 32.8002 71.9753 33.2285 71.2838 33.532C70.6101 33.8354 69.7413 33.996 68.8016 33.996C68.0037 34.0139 67.2236 33.8889 66.4612 33.6212C65.6633 33.3535 65.1846 32.9073 65.1846 32.3897ZM71.0002 31.3545C70.2909 31.1046 69.5285 30.9796 68.7661 30.9975C66.9753 31.0153 65.4683 31.64 65.486 32.3718C65.486 33.1036 67.0108 33.7104 68.7839 33.7104C69.6881 33.7104 70.5214 33.5498 71.1597 33.2642C71.7448 33.0144 72.0817 32.6574 72.0817 32.3361C72.0817 32.0148 71.7448 31.6757 71.1597 31.408C71.0888 31.408 71.0356 31.3723 71.0002 31.3545Z" fill="#6F46BE"/>
<path d="M68.9748 32.986C69.0556 32.4798 68.3999 31.953 67.5103 31.8093C66.6208 31.6655 65.8343 31.9593 65.7536 32.4654C65.6728 32.9716 66.3285 33.4984 67.2181 33.6421C68.1076 33.7859 68.8941 33.4921 68.9748 32.986Z" fill="#6F46BE"/>
<path d="M66.6026 33.6212C65.9288 33.3713 65.521 32.9073 65.592 32.4432C65.6806 31.8542 66.5317 31.5151 67.5246 31.6757C68.5175 31.8364 69.209 32.4254 69.1026 33.0143C69.0139 33.6033 68.1629 33.9425 67.17 33.7818C66.9927 33.7461 66.7976 33.6926 66.6026 33.6212ZM68.8189 32.9608C68.8898 32.5503 68.2693 32.0862 67.4714 31.9613C66.6735 31.8364 65.9466 32.0684 65.8756 32.4789C65.8047 32.8894 66.4253 33.3535 67.2232 33.4784C68.021 33.6033 68.748 33.3713 68.8189 32.9608Z" fill="#6F46BE"/>
<path d="M27.3124 30.5655C23.2468 30.5655 19.9473 33.865 19.9473 37.9306C19.9473 41.9961 23.2468 45.2957 27.3124 45.2957C31.3779 45.2957 34.6775 41.9961 34.6775 37.9306C34.6775 33.865 31.3779 30.5655 27.3124 30.5655ZM27.3124 43.8227C24.0644 43.8227 21.4203 41.1786 21.4203 37.9306C21.4203 34.6826 24.0644 32.0385 27.3124 32.0385C30.5604 32.0385 33.2045 34.6826 33.2045 37.9306C33.2045 41.1786 30.5604 43.8227 27.3124 43.8227ZM30.693 34.6752L25.8394 39.5288L23.9318 37.6286L22.8933 38.6671L25.8394 41.6131L31.7314 35.721L30.693 34.6752Z" fill="#6F46BE"/>
</svg>
