<svg width="123" height="166" viewBox="0 0 123 166" fill="none" xmlns="http://www.w3.org/2000/svg">
<g clip-path="url(#clip0_266_1464)">
<path d="M119.471 4.03137C117.981 2.3729 115.85 1.47786 113.623 1.57447L32.4649 5.13632C28.3118 5.31857 24.7621 8.2799 23.8328 12.3373L23.8317 12.3425L17.0999 47.4666C17.067 47.6373 16.9622 47.783 16.811 47.8681L4.81007 54.5287L13.9929 61.1939L14.0205 61.2116C14.2317 61.3333 14.3465 61.5772 14.3063 61.8184L1.7281 136.676L1.72705 136.681C1.32395 139.355 2.10409 142.066 3.86775 144.118C5.63089 146.17 8.19294 147.347 10.8968 147.347H94.2348C97.9383 147.347 101.027 144.686 101.579 141.018L121.293 10.1138C121.625 7.90758 120.961 5.69037 119.47 4.03137H119.471Z" fill="#DAC7FD"/>
<path d="M94.2345 148.914H10.8966C7.73691 148.914 4.74254 147.538 2.68163 145.14C0.620726 142.741 -0.290829 139.573 0.180072 136.447L0.185287 136.416L12.6613 62.1632L1.90045 54.3528L15.6489 46.7221L22.2999 12.0205L22.3072 11.9881C23.3934 7.2456 27.5418 3.78453 32.3958 3.57147L113.554 0.00857628C116.251 -0.108394 118.831 0.975671 120.634 2.98297C122.437 4.99183 123.242 7.67588 122.84 10.3469L103.126 141.252C102.458 145.692 98.7182 148.914 94.2345 148.914ZM3.27248 136.926C2.94133 139.145 3.59006 141.393 5.05387 143.096C6.51976 144.802 8.6495 145.781 10.8971 145.781H94.235C97.1585 145.781 99.5969 143.68 100.033 140.785L119.746 9.88005C120.008 8.13854 119.484 6.38816 118.307 5.07851C117.132 3.76938 115.45 3.06234 113.691 3.1391L32.533 6.70096C29.0875 6.85239 26.1417 9.30407 25.362 12.6664L18.6354 47.7618C18.516 48.3858 18.1301 48.9221 17.5768 49.2338L17.5685 49.2385L7.71813 54.7058L14.8682 59.8959C15.5993 60.3549 15.9915 61.2222 15.8476 62.0792L3.27248 136.926Z" fill="#EDE3FF"/>
<path d="M94.0853 147.517H10.7474C7.983 147.517 5.36358 146.314 3.56029 144.215C1.75699 142.117 0.959643 139.344 1.37214 136.607L13.9503 61.7456C13.9775 61.5847 13.8987 61.4249 13.7553 61.3482L13.7308 61.3351L13.7099 61.3174L4.28098 54.3968L16.5635 47.6454C16.6584 47.5901 16.7246 47.4971 16.7455 47.389L23.4779 12.2608L23.4789 12.2561C23.9456 10.2123 25.0428 8.42271 26.6506 7.08069C28.2588 5.73866 30.2144 4.98044 32.3061 4.88853L113.464 1.32668C115.753 1.22694 117.944 2.14704 119.476 3.85251C121.009 5.5585 121.691 7.83734 121.35 10.1063L101.636 141.011C101.364 142.82 100.451 144.474 99.066 145.667C97.6809 146.86 95.9121 147.518 94.0853 147.518V147.517ZM14.027 60.9017C14.3524 61.0892 14.5276 61.4594 14.465 61.8317L1.88736 136.689C1.49834 139.271 2.25188 141.892 3.95557 143.875C5.65926 145.858 8.13475 146.995 10.7474 146.995H94.0853C97.633 146.995 100.591 144.446 101.121 140.933L120.834 10.0284C121.152 7.91462 120.516 5.7914 119.088 4.20185C117.661 2.61283 115.619 1.7554 113.487 1.84835L32.329 5.4102C28.3152 5.58618 24.8859 8.44778 23.9884 12.3684L17.2576 47.4867C17.207 47.7504 17.0433 47.9765 16.8081 48.106L16.7919 48.1143L5.24207 54.5253L14.027 60.9012V60.9017Z" fill="#553597"/>
<path d="M94.0861 147.778H10.7482C7.9077 147.778 5.21631 146.542 3.36348 144.385C1.51064 142.229 0.691392 139.38 1.11536 136.567L13.6941 61.7014C13.7024 61.6512 13.6779 61.6016 13.6336 61.5776L13.5851 61.5515L13.5496 61.5212L3.79788 54.3636L16.4361 47.4169C16.4647 47.3996 16.4846 47.3714 16.4908 47.338L23.2237 12.2072L23.2258 12.1978C23.7055 10.0981 24.8325 8.25892 26.4851 6.87982C28.1376 5.50072 30.1469 4.72161 32.296 4.62762L113.454 1.06524C115.822 0.961846 118.087 1.91432 119.671 3.67723C121.256 5.44119 121.962 7.79835 121.609 10.1445L101.895 141.05C101.613 142.921 100.669 144.63 99.2368 145.865C97.8049 147.099 95.9755 147.779 94.0861 147.779V147.778ZM14.1702 60.6826C14.5801 60.9259 14.8022 61.4032 14.723 61.8753L2.14529 136.732C1.76774 139.236 2.4999 141.779 4.15405 143.704C5.8082 145.629 8.21172 146.733 10.7482 146.733H94.0861C97.5034 146.733 100.354 144.277 100.863 140.893L120.577 9.98894C120.884 7.95292 120.271 5.90698 118.896 4.37592C117.521 2.84538 115.554 2.01928 113.499 2.10857L32.3413 5.67095C28.4464 5.84171 25.1172 8.61767 24.2442 12.4223L17.5145 47.5359C17.4493 47.8764 17.2381 48.1673 16.9351 48.3349L5.72789 54.5547L14.1702 60.6826ZM120.583 6.05946C121.116 7.3054 121.3 8.68816 121.093 10.0667L101.379 140.972C101.374 141.004 101.369 141.035 101.364 141.067C101.369 141.036 101.374 141.004 101.379 140.972L121.093 10.0667C121.3 8.68816 121.116 7.30593 120.583 6.05946ZM14.2088 61.7854C14.2088 61.7854 14.2088 61.7875 14.2088 61.7886C14.2088 61.7875 14.2088 61.7865 14.2088 61.7854ZM13.8787 61.1176C13.8834 61.1202 13.8881 61.1228 13.8928 61.1254L13.8745 61.1134L13.7973 61.0575L13.8782 61.1176H13.8787ZM4.76575 54.4283L4.81529 54.4643L16.5633 47.9432L4.76575 54.4283ZM17.7549 43.5109L17.0024 47.4378C16.9674 47.62 16.8553 47.7782 16.6947 47.8712L16.6843 47.8769L16.6869 47.8759C16.8517 47.7834 16.9664 47.6242 17.0024 47.4383L17.7549 43.5114V43.5109ZM32.2177 5.15398C30.2215 5.2626 28.3567 5.9968 26.8188 7.28086C25.2789 8.56649 24.2208 10.2741 23.7551 12.2239C24.7016 8.26623 28.1606 5.37696 32.2177 5.15398ZM113.802 1.58012C113.693 1.58012 113.585 1.58221 113.477 1.58743C113.657 1.5796 113.837 1.57803 114.016 1.58325C113.945 1.58116 113.874 1.58012 113.802 1.58012Z" fill="#553597"/>
<path d="M94.0853 147.517H10.7474C7.983 147.517 5.36358 146.314 3.56029 144.215C1.75699 142.117 0.959643 139.344 1.37214 136.607L13.9503 61.7456C13.9775 61.5847 13.8987 61.4249 13.7553 61.3482L13.7308 61.3351L13.7099 61.3174L4.28098 54.3968L16.5635 47.6454C16.6584 47.5901 16.7246 47.4971 16.7455 47.389L23.4779 12.2608L23.4789 12.2561C23.9456 10.2123 25.0428 8.42271 26.6506 7.08069C28.2588 5.73866 30.2144 4.98044 32.3061 4.88853L113.464 1.32668C115.753 1.22694 117.944 2.14704 119.476 3.85251C121.009 5.5585 121.691 7.83734 121.35 10.1063L101.636 141.011C101.364 142.82 100.451 144.474 99.066 145.667C97.6809 146.86 95.9121 147.518 94.0853 147.518V147.517ZM14.027 60.9017C14.3524 61.0892 14.5276 61.4594 14.465 61.8317L1.88736 136.689C1.49834 139.271 2.25188 141.892 3.95557 143.875C5.65926 145.858 8.13475 146.995 10.7474 146.995H94.0853C97.633 146.995 100.591 144.446 101.121 140.933L120.834 10.0284C121.152 7.91462 120.516 5.7914 119.088 4.20185C117.661 2.61283 115.619 1.7554 113.487 1.84835L32.329 5.4102C28.3152 5.58618 24.8859 8.44778 23.9884 12.3684L17.2576 47.4867C17.207 47.7504 17.0433 47.9765 16.8081 48.106L16.7919 48.1143L5.24207 54.5253L14.027 60.9012V60.9017Z" fill="#553597"/>
<path d="M94.0861 147.778H10.7482C7.9077 147.778 5.21631 146.542 3.36348 144.385C1.51064 142.229 0.691392 139.38 1.11536 136.567L13.6941 61.7014C13.7024 61.6512 13.6779 61.6016 13.6336 61.5776L13.6096 61.5645C13.5934 61.5557 13.5778 61.5452 13.5637 61.5332L13.5496 61.5212L4.12798 54.6059C4.05601 54.5531 4.01638 54.4675 4.02211 54.3782C4.02785 54.2894 4.07896 54.2095 4.15666 54.1662L16.4361 47.4163C16.4647 47.3991 16.4846 47.3709 16.4908 47.3375L23.2227 12.2114C23.2232 12.2088 23.2237 12.2056 23.2242 12.203L23.2253 12.1978C23.705 10.0981 24.832 8.25892 26.4845 6.87982C28.1371 5.50072 30.1464 4.72161 32.2954 4.62762L113.454 1.06524C115.822 0.961846 118.087 1.91432 119.671 3.67723C121.256 5.44119 121.962 7.79835 121.609 10.1445L101.895 141.05C101.613 142.921 100.669 144.63 99.2368 145.865C97.8049 147.099 95.9755 147.779 94.0861 147.779V147.778ZM14.1702 60.6826C14.5801 60.9259 14.8022 61.4032 14.723 61.8753L2.14529 136.732C1.76774 139.236 2.4999 141.779 4.15405 143.704C5.8082 145.629 8.21172 146.733 10.7482 146.733H94.0861C97.5034 146.733 100.354 144.277 100.863 140.893L120.577 9.98894C120.884 7.95292 120.271 5.90698 118.896 4.37592C117.521 2.84538 115.554 2.01928 113.499 2.10857L32.3413 5.67095C28.4464 5.84171 25.1172 8.61767 24.2442 12.4223L17.5145 47.5359C17.4493 47.8764 17.2381 48.1673 16.9351 48.3349C16.9325 48.3364 16.9299 48.338 16.9268 48.3391L16.9148 48.3448L5.72737 54.5547L14.1697 60.6826H14.1702ZM120.583 6.05946C121.116 7.3054 121.3 8.68816 121.093 10.0667L101.379 140.972C101.374 141.004 101.369 141.035 101.364 141.067C101.369 141.036 101.374 141.004 101.379 140.972L121.093 10.0667C121.3 8.68816 121.116 7.30593 120.583 6.05946ZM14.2088 61.7854C14.2088 61.7854 14.2088 61.7875 14.2088 61.7886C14.2088 61.7875 14.2088 61.7865 14.2088 61.7854ZM13.8787 61.1176C13.8844 61.1207 13.8896 61.1238 13.8954 61.127C13.8881 61.1228 13.8813 61.1181 13.8745 61.1134L13.7973 61.0575L13.8646 61.1066C13.8693 61.1102 13.874 61.1139 13.8787 61.1176ZM4.76575 54.4283L4.99103 54.5938C4.98373 54.5667 4.9806 54.5385 4.98269 54.5098C4.9879 54.4205 5.03849 54.3406 5.11671 54.2972L16.5633 47.9432L4.76575 54.4283ZM17.0024 47.4378C16.9674 47.62 16.8553 47.7782 16.6947 47.8712C16.6931 47.8722 16.6911 47.8733 16.6895 47.8738L16.6843 47.8764L16.6869 47.8754C16.8517 47.7829 16.9664 47.6237 17.0024 47.4378ZM23.7342 12.3127C23.7342 12.3127 23.7342 12.3137 23.7342 12.3142V12.3158C23.7342 12.3158 23.7342 12.3137 23.7342 12.3127ZM32.2177 5.15398C30.2215 5.2626 28.3567 5.9968 26.8188 7.28086C25.2789 8.56649 24.2208 10.2741 23.7551 12.2239C24.7016 8.26623 28.1606 5.37696 32.2177 5.15398ZM113.802 1.58012C113.693 1.58012 113.585 1.58221 113.477 1.58743C113.657 1.5796 113.837 1.57803 114.016 1.58325C113.945 1.58116 113.874 1.58012 113.802 1.58012Z" fill="#553597"/>
<path d="M23.3156 111.161C23.3156 111.161 22.318 110.142 20.7734 109.994C19.2288 109.847 18.506 110.461 17.7947 109.332C17.0839 108.203 18.469 107.314 18.469 107.314C18.469 107.314 18.6416 106.317 19.4494 105.846C19.4494 105.846 19.4248 103.734 21.8518 103.71C24.2788 103.685 26.5833 104.948 27.3801 106.219C27.3801 106.219 28.4095 105.404 28.6181 104.434C28.8267 103.465 28.9492 102.667 30.4078 102.606C31.8664 102.544 31.7319 103.453 31.4372 104.054C31.1431 104.656 30.872 106.535 30.849 108.178C30.8255 109.822 30.1048 111.044 30.1048 111.044C30.1048 111.044 31.2829 114.877 36.491 117.109C41.699 119.341 45.9528 118.34 47.0912 120.56C48.2296 122.781 44.6522 123.166 41.6218 122.795C38.5915 122.425 35.4725 121.463 32.5897 119.524C29.707 117.585 27.3274 113.381 27.3274 113.381C27.3274 113.381 25.4543 114.181 23.3162 111.161H23.3156Z" fill="#6F46BE"/>
<path d="M36.9531 121.857C36.9531 121.857 39.0443 121.418 39.7895 120.477C40.5352 119.535 40.0325 118.351 40.0325 118.351C40.0325 118.351 44.9438 118.448 46.4348 119.893C47.9262 121.337 47.375 122.813 44.7655 122.993C42.156 123.172 36.9531 121.857 36.9531 121.857Z" fill="#6F46BE"/>
<path d="M22.9706 110.869C22.9706 110.869 22.8887 109.604 20.7241 109.178C18.5594 108.753 18.5792 106.824 22.0257 107.25C22.0257 107.25 20.7908 106.964 20.8638 106.313C20.9368 105.661 22.0392 105.681 22.0392 105.681C22.0392 105.681 21.4813 105.235 22.0194 104.577C22.5571 103.918 23.7195 104.025 23.7195 104.025C23.7195 104.025 22.6901 103.439 21.183 103.865C19.6754 104.291 19.4897 105.807 19.4897 105.807C19.4897 105.807 18.5849 106.48 18.5291 107.084C18.4733 107.688 17.0924 108.054 17.8095 109.278C18.5265 110.501 20.1932 109.942 21.5412 110.168C22.8893 110.394 22.9711 110.868 22.9711 110.868L22.9706 110.869Z" fill="#6F46BE"/>
<path d="M31.2167 102.513C31.406 102.597 31.5942 102.723 31.7272 102.92C31.7929 103.017 31.8425 103.131 31.8644 103.249C31.8873 103.367 31.8847 103.486 31.8649 103.596C31.8451 103.706 31.8096 103.806 31.7663 103.899L31.7095 104.017L31.66 104.122C31.6438 104.157 31.6261 104.192 31.6109 104.227L31.5692 104.335L31.5275 104.443L31.5066 104.497L31.4894 104.553C31.4665 104.626 31.4435 104.7 31.4211 104.773C31.4013 104.847 31.3836 104.922 31.3648 104.996C31.345 105.07 31.3304 105.146 31.3158 105.221C31.3017 105.296 31.2845 105.369 31.273 105.445C31.2495 105.595 31.2245 105.744 31.2083 105.893C31.1885 106.041 31.1755 106.19 31.1609 106.336C31.1082 106.923 31.0868 107.49 31.0545 108.024C31.0394 108.29 31.0206 108.549 30.9987 108.798C30.9857 108.922 30.9732 109.044 30.9606 109.164C30.9408 109.286 30.9231 109.406 30.9012 109.523C30.8021 109.987 30.6326 110.383 30.4517 110.706C30.2697 111.03 30.0757 111.284 29.9046 111.477C29.7331 111.671 29.5824 111.803 29.4744 111.886C29.3665 111.969 29.2997 112.001 29.2888 111.987C29.2773 111.972 29.319 111.915 29.4009 111.811C29.4822 111.707 29.6048 111.556 29.7451 111.351C29.8853 111.146 30.046 110.888 30.1925 110.572C30.3385 110.257 30.4704 109.882 30.5388 109.455C30.5534 109.348 30.5638 109.239 30.5768 109.127C30.5836 109.011 30.5904 108.891 30.5977 108.77C30.6086 108.525 30.617 108.271 30.6232 108.006C30.6368 107.476 30.642 106.905 30.6827 106.299C30.6942 106.147 30.7046 105.994 30.7223 105.838C30.7364 105.682 30.7599 105.524 30.7818 105.365C30.7927 105.285 30.8099 105.205 30.8235 105.124C30.8376 105.044 30.8522 104.963 30.873 104.882C30.8923 104.801 30.9106 104.72 30.9314 104.638C30.9554 104.557 30.9799 104.475 31.0039 104.393L31.0222 104.332L31.0446 104.271C31.0597 104.23 31.0748 104.19 31.09 104.149L31.1359 104.027C31.1531 103.987 31.1724 103.947 31.1906 103.907C31.2261 103.831 31.2615 103.756 31.297 103.68C31.3241 103.621 31.3439 103.562 31.3533 103.506C31.3716 103.394 31.3549 103.299 31.2949 103.212C31.2365 103.124 31.1327 103.046 31.0071 102.992C30.7541 102.882 30.4418 102.864 30.1576 102.918C29.8707 102.97 29.6048 103.098 29.3967 103.282C29.1871 103.464 29.0379 103.704 28.9482 103.964C28.9023 104.096 28.8737 104.228 28.8523 104.371C28.8361 104.454 28.8236 104.536 28.8043 104.617C28.7928 104.658 28.7814 104.698 28.7704 104.738C28.7584 104.778 28.749 104.818 28.7329 104.857C28.6223 105.17 28.445 105.449 28.2421 105.678C28.0398 105.91 27.8151 106.094 27.5981 106.259C27.3807 106.423 27.1684 106.568 26.9734 106.711C26.7778 106.854 26.5989 106.996 26.4446 107.144C26.2892 107.292 26.163 107.448 26.0629 107.607C26.0503 107.627 26.0378 107.647 26.0253 107.666C26.0133 107.686 26.0039 107.707 25.993 107.727C25.9726 107.768 25.9497 107.807 25.932 107.848C25.8991 107.93 25.8626 108.009 25.8418 108.09C25.7421 108.413 25.7291 108.714 25.7312 108.96C25.7322 109.022 25.7338 109.08 25.7348 109.135C25.739 109.19 25.7427 109.241 25.7463 109.289C25.7495 109.337 25.7521 109.381 25.7547 109.422C25.7588 109.463 25.7625 109.499 25.7661 109.532C25.7776 109.665 25.7755 109.737 25.7583 109.742C25.7411 109.746 25.7088 109.682 25.6634 109.554C25.6525 109.522 25.6405 109.486 25.6269 109.447C25.6154 109.406 25.605 109.362 25.5935 109.313C25.5821 109.265 25.5701 109.213 25.557 109.157C25.5466 109.1 25.5388 109.039 25.5289 108.975C25.495 108.718 25.4757 108.391 25.5602 108.015C25.6373 107.64 25.8527 107.23 26.1823 106.884C26.5093 106.534 26.929 106.242 27.3316 105.917C27.5329 105.754 27.729 105.58 27.8948 105.379C28.0612 105.179 28.1952 104.953 28.2787 104.7C28.2917 104.669 28.2979 104.636 28.3068 104.604C28.3152 104.571 28.324 104.539 28.3324 104.506C28.347 104.44 28.3553 104.371 28.3678 104.304C28.3882 104.143 28.4215 103.97 28.4768 103.805C28.5842 103.473 28.7788 103.146 29.0588 102.898C29.3367 102.648 29.6882 102.477 30.0616 102.406C30.2483 102.37 30.4412 102.358 30.6352 102.372C30.8292 102.387 31.0258 102.429 31.2172 102.512L31.2167 102.513Z" fill="#553597"/>
<path d="M19.6008 110.295C19.4235 110.296 19.2462 110.299 19.0637 110.292C18.8817 110.284 18.6966 110.271 18.5052 110.233C18.3154 110.192 18.112 110.123 17.9341 109.986C17.8914 109.951 17.8507 109.912 17.81 109.874C17.774 109.833 17.7396 109.789 17.7057 109.745C17.6791 109.706 17.6557 109.668 17.6306 109.63L17.5613 109.511C17.4726 109.35 17.4001 109.178 17.3527 108.996C17.3052 108.814 17.2839 108.622 17.3005 108.43C17.3151 108.237 17.3751 108.048 17.4653 107.882C17.5555 107.716 17.6765 107.574 17.8085 107.458C18.0755 107.226 18.3779 107.088 18.6705 106.991C18.9646 106.895 19.2545 106.84 19.5341 106.806C19.6039 106.797 19.6733 106.791 19.7416 106.784C19.8104 106.777 19.8788 106.776 19.9466 106.772C20.0821 106.766 20.2146 106.755 20.345 106.762C20.6052 106.762 20.8539 106.784 21.0896 106.811C21.5611 106.868 21.9772 106.976 22.3329 107.091C22.6885 107.207 22.9852 107.332 23.2199 107.449C23.6892 107.685 23.9166 107.871 23.8973 107.901C23.878 107.932 23.6215 107.809 23.1401 107.636C22.8997 107.551 22.6025 107.457 22.2526 107.372C21.9026 107.288 21.5001 107.209 21.0516 107.178C20.8273 107.164 20.5927 107.154 20.3486 107.164C20.2266 107.163 20.103 107.178 19.9768 107.188C19.9137 107.195 19.8501 107.198 19.7865 107.206C19.7228 107.215 19.6582 107.223 19.5935 107.233C19.3354 107.274 19.0731 107.334 18.8191 107.424C18.5662 107.515 18.3211 107.641 18.1292 107.815C17.9378 107.989 17.8137 108.214 17.797 108.469C17.7793 108.724 17.8611 109.002 18.0082 109.261L18.0656 109.358L18.1281 109.452C18.1474 109.473 18.1646 109.496 18.1829 109.518C18.2053 109.536 18.2251 109.556 18.2476 109.575C18.3399 109.645 18.4655 109.693 18.6105 109.723C18.9036 109.779 19.2457 109.775 19.5951 109.771C20.2954 109.76 21.0245 109.761 21.7076 109.955C22.0481 110.049 22.373 110.187 22.6666 110.363C22.9607 110.538 23.2215 110.751 23.4488 110.981C23.5041 111.04 23.5589 111.098 23.6131 111.157C23.6658 111.216 23.7138 111.279 23.7638 111.339C23.7883 111.369 23.8123 111.399 23.8368 111.43C23.8593 111.458 23.8812 111.486 23.9036 111.515C23.9479 111.571 23.9907 111.629 24.036 111.683C24.2133 111.903 24.3959 112.107 24.5805 112.294C24.9486 112.669 25.3382 112.966 25.7293 113.148C25.9249 113.238 26.1204 113.298 26.3097 113.329C26.499 113.36 26.6815 113.36 26.851 113.339C27.021 113.318 27.1775 113.277 27.3188 113.228C27.4601 113.178 27.5879 113.123 27.6995 113.066C27.9242 112.953 28.0916 112.845 28.2079 112.775C28.3242 112.705 28.3894 112.671 28.4014 112.685C28.4123 112.698 28.3701 112.759 28.2731 112.858C28.1756 112.956 28.0238 113.094 27.8017 113.241C27.6916 113.316 27.5613 113.39 27.4116 113.459C27.2619 113.527 27.0909 113.589 26.8979 113.627C26.7055 113.666 26.4922 113.681 26.2685 113.659C26.0448 113.637 25.8127 113.579 25.5843 113.487C25.1259 113.302 24.6853 112.99 24.279 112.605C24.0757 112.412 23.8759 112.202 23.684 111.977C23.635 111.921 23.5891 111.863 23.5411 111.806C23.5172 111.777 23.4932 111.748 23.4692 111.718C23.4462 111.691 23.4233 111.665 23.3998 111.637C23.3534 111.584 23.3086 111.529 23.2606 111.476C23.211 111.425 23.161 111.374 23.1104 111.323C22.9034 111.123 22.6724 110.942 22.4147 110.794C22.1576 110.645 21.875 110.529 21.5741 110.449C21.2737 110.368 20.9551 110.324 20.625 110.305C20.2949 110.285 19.9549 110.29 19.6013 110.294L19.6008 110.295Z" fill="#553597"/>
<path d="M24.7216 106.43C24.7404 106.401 24.5823 106.261 24.2543 106.081C24.0911 105.99 23.8836 105.894 23.6369 105.793C23.3892 105.696 23.1013 105.599 22.7749 105.517C22.6935 105.496 22.6091 105.48 22.523 105.461C22.4797 105.451 22.4364 105.442 22.3921 105.432C22.3478 105.425 22.3029 105.418 22.2576 105.41C22.1668 105.396 22.074 105.379 21.9791 105.367C21.8837 105.357 21.7867 105.347 21.6881 105.336C21.6386 105.33 21.5885 105.327 21.5379 105.325C21.4873 105.323 21.4362 105.321 21.3851 105.318C21.3335 105.316 21.2819 105.313 21.2297 105.311C21.1776 105.309 21.1249 105.312 21.0717 105.312C20.9653 105.314 20.8579 105.314 20.7484 105.319C20.6931 105.323 20.6373 105.327 20.581 105.331C20.5247 105.336 20.4684 105.344 20.411 105.351C20.1831 105.381 19.949 105.43 19.7148 105.512C19.4812 105.593 19.2476 105.708 19.0343 105.869C18.8205 106.028 18.6306 106.235 18.4893 106.476C18.4189 106.597 18.3595 106.726 18.3151 106.861C18.2927 106.929 18.2745 106.998 18.2588 107.069C18.2515 107.105 18.2447 107.141 18.2395 107.178C18.2369 107.196 18.2343 107.215 18.2322 107.235C18.2301 107.255 18.2286 107.271 18.2275 107.302L18.749 107.314L18.7511 107.288C18.7522 107.277 18.7537 107.264 18.7558 107.252C18.7595 107.228 18.7636 107.202 18.7694 107.177C18.7803 107.126 18.7933 107.075 18.81 107.025C18.8424 106.925 18.8862 106.829 18.9378 106.739C19.0416 106.559 19.1808 106.402 19.3435 106.277C19.5057 106.151 19.6908 106.054 19.8843 105.982C20.0778 105.91 20.2791 105.861 20.4798 105.828C20.5304 105.821 20.58 105.812 20.6305 105.806C20.6811 105.801 20.7312 105.796 20.7807 105.791C20.8814 105.783 20.9831 105.779 21.0816 105.773C21.1312 105.771 21.1802 105.767 21.2292 105.767C21.2782 105.767 21.3267 105.767 21.3752 105.767C21.4237 105.767 21.4712 105.767 21.5186 105.767C21.5661 105.766 21.6135 105.767 21.66 105.77C21.7533 105.776 21.8451 105.78 21.9353 105.785C22.0255 105.791 22.1136 105.803 22.2002 105.811C22.2435 105.815 22.2863 105.819 22.329 105.824C22.3713 105.83 22.413 105.836 22.4542 105.842C22.5366 105.855 22.6184 105.865 22.6972 105.879C23.0127 105.935 23.2953 106.004 23.5425 106.071C23.7881 106.142 23.9999 106.207 24.1709 106.268C24.5146 106.385 24.7018 106.463 24.7205 106.431L24.7216 106.43Z" fill="#553597"/>
<path d="M27.0734 106.22C26.274 105.178 24.2632 104.036 21.7371 103.994C21.0326 103.983 20.4986 104.163 20.1476 104.531C19.6204 105.086 19.6673 105.902 19.6678 105.911L19.1474 105.947C19.1443 105.905 19.0806 104.901 19.7654 104.176C20.2211 103.694 20.8871 103.456 21.7454 103.471C22.9485 103.492 24.1469 103.754 25.2112 104.23C26.1854 104.665 26.9937 105.259 27.4865 105.902L27.0729 106.22H27.0734Z" fill="#553597"/>
<path d="M47.1386 120.204C45.8714 118.643 41.7193 118.305 41.5467 118.291C41.5264 118.289 39.4581 118.093 37.0478 117.085C34.8394 116.162 31.8658 114.319 30.3082 110.915L30.0808 111.036C30.0438 111.13 29.9838 111.213 29.9004 111.273C30.62 112.801 31.664 114.146 33.0074 115.271C34.1046 116.189 35.401 116.964 36.8617 117.573C39.3439 118.608 41.4127 118.803 41.5029 118.812C41.5436 118.815 45.6075 119.146 46.7339 120.533C46.9446 120.792 47.028 121.064 46.9894 121.365C46.9451 121.71 46.7756 121.982 46.4721 122.198C44.9155 123.302 40.6894 122.417 40.6471 122.408L40.6143 122.403C40.5924 122.401 38.3688 122.205 35.6529 120.98C33.156 119.853 29.7163 117.599 27.5125 113.259L27.0479 113.496C28.0533 115.475 29.3893 117.203 31.02 118.631C32.3237 119.772 33.8167 120.726 35.4573 121.464C38.1555 122.678 40.3243 122.901 40.5543 122.922C40.754 122.964 42.2825 123.274 43.8548 123.273C44.9525 123.273 46.0716 123.122 46.7735 122.625C47.197 122.324 47.4442 121.923 47.5073 121.431C47.5641 120.988 47.4405 120.574 47.1391 120.204H47.1386Z" fill="#553597"/>
<path d="M36.9282 147.102H80.3168L86.0954 116.993C86.0954 116.993 88.9588 104.346 89.5679 102.369C90.177 100.391 90.3616 100.077 91.026 99.855C91.6904 99.6331 98.3471 97.7417 103.949 93.1261C109.552 88.5105 113.877 84.8264 118.341 72.4223C122.806 60.0182 118.875 50.023 117.573 46.8439C116.27 43.6648 111.954 35.7223 103.204 28.6571C94.4532 21.5919 80.5536 20.8076 76.6252 20.9694C74.8339 21.0431 72.2661 21.2399 69.5242 21.9256C64.2608 23.2415 58.2283 25.6639 54.9257 27.6012C51.2957 29.7307 49.5523 30.3359 43.4812 34.2889C36.2701 38.9844 19.8324 54.3044 17.748 59.2334C17.748 59.2334 19.5884 63.9446 24.8684 69.6286C30.1484 75.3126 31.9246 77.6124 33.0677 77.6322C34.2108 77.6521 42.154 77.5534 46.6675 77.9283C51.1809 78.3032 51.2993 78.0484 51.6737 77.85C52.0482 77.6521 63.7362 66.9597 73.4921 68.203C73.4921 68.203 74.5513 70.8714 71.8281 75.9304C71.8281 75.9304 70.4175 78.8755 64.5044 80.77C58.5912 82.6646 50.6089 85.1517 50.6089 85.1517L45.6715 102.367L38.9897 134.265L36.9272 147.102L36.9282 147.102Z" fill="#6F46BE"/>
<path d="M64.9775 147.064L80.316 147.103L84.7277 123.274L86.0951 116.994C86.0951 116.994 89.1291 103.542 89.8341 101.533C89.8341 101.533 90.0036 100.251 90.717 99.9892C91.4309 99.7275 97.5635 98.2623 106.045 91.3762C114.526 84.4901 117.405 75.8081 119.507 68.498C121.608 61.1879 120.19 52.1023 115.821 43.3227C111.453 34.5437 98.7692 22.5093 87.1949 22.0654C87.1949 22.0654 93.3588 23.22 100.898 31.4795C108.437 39.7389 109.812 51.9065 109.457 59.4114C109.102 66.9163 103.958 78.8013 98.2373 84.0269C92.5166 89.2524 86.1748 93.9506 75.8865 95.6649C75.8865 95.6649 67.5949 126.186 64.9775 147.064Z" fill="#A78ED7"/>
<path d="M42.9084 114.421L45.6723 102.368C45.6723 102.368 43.2833 100.946 41.5385 105.033C39.7936 109.119 40.6702 113.771 42.9079 114.421L42.9084 114.421Z" fill="#EDE3FF"/>
<path d="M53.8848 111.748C53.8848 111.748 53.9333 112.996 55.5895 113.075C57.2457 113.154 57.6191 112.459 57.7401 112.016C57.7401 112.016 55.4456 112.016 53.8853 111.748H53.8848Z" fill="white"/>
<path d="M53.6167 117.095C53.6167 117.095 54.2477 116.082 55.746 115.566C57.2442 115.049 57.9857 115.665 57.9857 115.665C57.9857 115.665 57.0236 117.213 55.8247 117.703C54.6258 118.193 53.6162 117.095 53.6162 117.095H53.6167Z" fill="#EDE3FF"/>
<path d="M84.4097 116.496C84.4097 116.496 87.1621 117.271 87.6565 117.271C88.1508 117.271 89.2689 116.733 89.5917 115.549C89.914 114.364 90.3228 112.556 90.0433 111.716C89.7638 110.877 87.4844 110.468 87.4844 110.468L87.2727 111.63L85.6993 111.243C85.6993 111.243 85.764 114.709 84.4092 116.496L84.4097 116.496Z" fill="#A78ED7"/>
<path d="M81.9586 118.821C81.9586 118.821 84.554 117.529 85.3847 113.352C86.216 109.175 84.6891 106.914 83.0766 106.484C81.4642 106.053 79.3783 105.579 79.3783 105.579C79.3783 105.579 76.3896 105.654 75.1423 110.967C73.8954 116.28 76.798 117.765 76.798 117.765L81.034 118.82C81.034 118.82 81.12 119.122 81.9586 118.82V118.821Z" fill="#EDE3FF"/>
<path d="M63.5529 126.744C63.5529 126.744 64.4989 125.237 61.8758 124.117C59.2528 122.998 56.0488 124.121 55.92 125.96C55.7912 127.799 58.8439 128.445 60.9085 128.122C62.9725 127.799 63.5529 126.744 63.5529 126.744Z" fill="#A78ED7"/>
<path d="M63.8535 126.508C63.8535 126.508 67.8741 126.335 72.325 124.42C76.7759 122.503 78.3309 119.174 78.5854 118.212L77.4752 117.936C77.4752 117.936 76.5636 121.832 71.2194 123.752C66.9021 125.304 63.5859 125.498 63.5859 125.498C63.5859 125.498 63.8748 125.819 63.8535 126.508V126.508Z" fill="#553597"/>
<path d="M33.0674 77.6333C33.0674 77.6333 44.6741 77.3863 51.128 78.0594C51.128 78.0594 57.0233 73.5242 62.8817 70.4276C68.7395 67.331 73.4923 68.2041 73.4923 68.2041C73.4923 68.2041 73.2712 63.8992 68.7781 60.5055C64.2845 57.1117 58.6869 58.7514 55.9449 60.5055C53.2029 62.2595 39.0186 71.3863 33.0679 77.6333H33.0674Z" fill="#A78ED7"/>
<path d="M85.3263 113.664C84.4325 116.864 82.3314 119.073 80.634 118.597C78.936 118.122 78.2842 115.143 79.178 111.943C80.0718 108.743 81.9528 106.071 83.6508 106.546C85.3487 107.022 86.2201 110.464 85.3263 113.664Z" fill="#EDE3FF"/>
<path d="M68.7773 60.505C68.7773 60.505 61.2434 52.3657 67.5977 44.7532C67.5977 44.7532 64.9314 49.3547 70.6046 49.6957C76.2778 50.0367 84.8443 42.3104 84.4474 35.3799C84.05 28.4494 77.7531 31.5167 76.2778 33.2781C76.2778 33.2781 76.2778 28.0515 85.4685 26.2907C94.6591 24.5293 105.499 36.3266 107.05 42.0754C107.05 42.0754 101.725 27.0442 87.9236 22.0656C87.9236 22.0656 78.2198 19.6296 69.5241 21.9262C60.8283 24.2228 48.624 30.4123 41.718 35.629C35.4174 40.3882 33.4906 41.9621 27.3287 47.9908C22.0429 53.1625 17.4346 59.2168 17.4346 59.2168L20.8472 64.6559L23.4489 68.0308C23.4489 68.0308 29.6138 74.8141 32.6379 77.5316L35.3794 75.2527C35.3794 75.2527 43.3185 68.9055 50.3475 64.2549C57.3766 59.6043 60.6286 55.939 68.7773 60.5056V60.505Z" fill="#6F46BE"/>
<path d="M96.5637 45.8852C99.8439 42.8243 101.406 39.1637 100.052 37.7089C98.698 36.2541 94.9413 37.5561 91.6611 40.617C88.3808 43.6779 86.8192 47.3385 88.173 48.7933C89.5268 50.248 93.2834 48.946 96.5637 45.8852Z" fill="#6F46BE"/>
<path d="M43.0004 114.421C43.0004 114.421 41.3055 112.172 42.3104 107.495C43.3159 102.818 45.8732 102.369 45.8732 102.369C45.8732 102.369 44.2165 101.623 42.8788 102.931C41.5412 104.239 40.6891 106.903 40.6125 109.962C40.5358 113.021 41.8959 114.084 42.9998 114.421H43.0004Z" fill="#EDE3FF"/>
<path d="M57.5593 127.728C57.5593 127.728 55.427 127.181 58.0125 125.593C60.598 124.005 63.449 125.254 63.449 125.254C63.449 125.254 62.1328 123.084 58.4667 123.725C54.8007 124.365 55.5871 127.124 57.5593 127.728Z" fill="#EDE3FF"/>
<path d="M52.2839 86.9989C51.1022 88.6375 58.4661 87.955 62.7392 84.4955C67.0122 81.036 53.4656 85.3602 52.2839 86.9989Z" fill="#6F46BE"/>
<path d="M51.0455 78.4426C51.0189 78.4426 50.9928 78.4416 50.9662 78.4395C39.2266 77.5272 32.8363 77.8452 32.7732 77.8489L32.7461 77.3272C32.8097 77.3241 39.2292 77.0034 51.0064 77.9188C51.1451 77.9298 51.2844 77.8828 51.3876 77.7909C52.2194 77.0515 55.2492 74.4572 59.311 72.1131C64.4982 69.12 69.2923 67.686 73.5585 67.8495L73.5387 68.3711C63.7155 67.9925 53.6514 76.4771 51.7339 78.1815C51.5451 78.3496 51.2974 78.4426 51.0455 78.4426Z" fill="#553597"/>
<path d="M68.5735 125.738C67.1952 132.392 65.8279 139.674 64.6895 147.064L65.2047 147.144C66.3504 139.709 67.7276 132.383 69.1148 125.696C68.9354 125.72 68.7549 125.735 68.5735 125.738Z" fill="#553597"/>
<path d="M69.3656 124.493C72.7876 108.195 76.1871 95.9809 76.2356 95.807L75.7334 95.666C75.6844 95.8404 72.2546 108.163 68.8154 124.575C69.0006 124.558 69.1831 124.529 69.3656 124.493V124.493Z" fill="#553597"/>
<path d="M81.3162 119.116C81.1786 119.116 81.0419 119.102 80.9069 119.074C80.8725 119.066 80.837 119.057 80.7953 119.046L77.0369 118.117C76.0988 117.916 75.3744 117.05 74.9964 115.676C74.6345 114.36 74.6287 112.716 74.9802 111.048C75.3322 109.38 76.0008 107.879 76.8633 106.821C77.7649 105.716 78.7792 105.217 79.7195 105.416C79.7539 105.423 79.7893 105.432 79.8311 105.443L83.5894 106.372C84.5275 106.573 85.2519 107.44 85.63 108.813C85.9919 110.129 85.9976 111.773 85.6461 113.441C85.2941 115.11 84.6256 116.61 83.763 117.668C82.9913 118.614 82.1365 119.116 81.3168 119.116L81.3162 119.116ZM79.3106 105.896C78.6504 105.896 77.936 106.332 77.2669 107.152C76.456 108.146 75.825 109.568 75.4902 111.156C75.1554 112.744 75.1586 114.3 75.4991 115.538C75.8229 116.716 76.4091 117.451 77.1491 117.607L77.1579 117.609L80.9303 118.542C80.9585 118.55 80.9867 118.557 81.0148 118.563C81.7548 118.719 82.5871 118.284 83.3589 117.338C84.1698 116.344 84.8008 114.922 85.1356 113.334C85.4704 111.746 85.4673 110.189 85.1273 108.952C84.8034 107.774 84.2173 107.039 83.4773 106.882L83.4689 106.88L79.6965 105.948C79.6689 105.94 79.6407 105.933 79.612 105.927C79.5135 105.906 79.4128 105.896 79.3111 105.896L79.3106 105.896Z" fill="#553597"/>
<path d="M42.8628 114.69C41.9147 114.532 41.1518 113.698 40.7148 112.34C40.2965 111.04 40.2199 109.398 40.4994 107.717C40.7789 106.035 41.3823 104.506 42.1989 103.413C43.0521 102.27 44.0439 101.727 44.992 101.885C45.0269 101.891 45.0639 101.898 45.1046 101.908L45.8743 102.063L45.7716 102.575L44.9915 102.417C44.9633 102.411 44.9351 102.404 44.9065 102.4C44.1602 102.275 43.3477 102.746 42.6171 103.724C41.85 104.753 41.2806 106.201 41.0146 107.802C40.7487 109.403 40.8185 110.957 41.2117 112.179C41.5862 113.342 42.2031 114.051 42.9493 114.175L42.8638 114.69L42.8628 114.69Z" fill="#553597"/>
<path d="M81.3157 119.116C81.178 119.116 81.0414 119.102 80.9063 119.073C79.9661 118.874 79.2397 118.007 78.8616 116.631C78.4997 115.315 78.494 113.671 78.8454 112.003C79.1974 110.335 79.866 108.834 80.7285 107.776C81.6302 106.672 82.6445 106.172 83.5847 106.371C84.5249 106.57 85.2514 107.437 85.6294 108.812C85.9913 110.129 85.9971 111.772 85.6456 113.441C85.2936 115.109 84.6251 116.61 83.7625 117.667C82.9907 118.613 82.136 119.115 81.3162 119.115L81.3157 119.116ZM83.1758 106.851C82.5156 106.851 81.8012 107.287 81.1322 108.107C80.3212 109.101 79.6902 110.523 79.3555 112.111C79.0207 113.699 79.0238 115.255 79.3643 116.493C79.6882 117.671 80.2743 118.406 81.0143 118.562C81.7538 118.719 82.5866 118.284 83.3589 117.337C84.1698 116.343 84.8008 114.921 85.1356 113.333C85.4704 111.745 85.4673 110.189 85.1267 108.951C84.8029 107.773 84.2167 107.039 83.4767 106.882C83.3782 106.861 83.2775 106.851 83.1758 106.851V106.851Z" fill="#553597"/>
<path d="M59.8475 128.42C57.5055 128.42 55.6709 127.34 55.6709 125.96C55.6709 124.58 57.5055 123.5 59.8475 123.5C62.1895 123.5 64.024 124.58 64.024 125.96C64.024 127.34 62.1895 128.42 59.8475 128.42ZM59.8475 124.022C57.8663 124.022 56.1924 124.91 56.1924 125.96C56.1924 127.01 57.8663 127.898 59.8475 127.898C61.8286 127.898 63.5025 127.01 63.5025 125.96C63.5025 124.91 61.8291 124.022 59.8475 124.022Z" fill="#553597"/>
<path d="M63.5617 126.761L63.4443 125.199L63.7046 125.179C69.9733 124.707 73.3312 122.727 75.0442 121.149C76.8355 119.499 77.2386 117.924 77.2428 117.908L77.3044 117.659L77.5547 117.716L78.825 118.006L78.7676 118.261C78.7494 118.341 78.3004 120.248 76.1733 122.239C74.9561 123.378 73.4282 124.325 71.6322 125.054C69.4232 125.951 66.7959 126.519 63.8229 126.742L63.5627 126.761L63.5617 126.761ZM64.0034 125.679L64.0425 126.2C66.8543 125.968 69.3402 125.419 71.435 124.569C73.1716 123.864 74.6458 122.952 75.816 121.857C77.4086 120.366 78 118.954 78.1851 118.395L77.6715 118.277C77.4806 118.816 76.8908 120.157 75.3968 121.533C73.6472 123.145 70.2549 125.161 64.0028 125.679L64.0034 125.679Z" fill="#553597"/>
<path d="M88.8556 111.942C88.8363 112.027 88.2851 111.983 87.4549 111.846C87.2938 111.819 87.1217 111.789 86.9408 111.756C86.5272 111.679 86.0678 111.586 85.5859 111.477L85.6996 110.968C86.182 111.076 86.6378 111.187 87.0445 111.294C87.2224 111.34 87.3908 111.386 87.5483 111.431C88.3571 111.66 88.8749 111.855 88.8556 111.942Z" fill="#553597"/>
<path d="M90.361 113.132L89.7889 115.74C89.6585 116.335 89.3034 116.842 88.7898 117.167C88.4231 117.4 88.008 117.519 87.5851 117.519C87.4151 117.519 87.2435 117.5 87.0735 117.461L86.2819 117.279L85.7735 117.161L84.2773 116.816L84.3942 116.307L85.8809 116.65L86.3894 116.767L87.1904 116.952C87.6467 117.057 88.1155 116.977 88.5108 116.726C88.906 116.476 89.1793 116.086 89.2794 115.628L89.8515 113.021C89.9516 112.564 89.8677 112.096 89.6153 111.704C89.3623 111.311 88.9717 111.041 88.5154 110.943L87.6972 110.768L87.3823 110.701L87.4913 110.19L87.8135 110.259L88.6244 110.433C89.2174 110.56 89.7253 110.911 90.0533 111.421C90.3818 111.931 90.4908 112.539 90.361 113.132Z" fill="#553597"/>
<path d="M60.2512 105.944C60.2853 105.095 59.9721 104.393 59.5516 104.376C59.1312 104.359 58.7627 105.034 58.7287 105.883C58.6946 106.732 59.0078 107.435 59.4283 107.452C59.8487 107.468 60.2172 106.794 60.2512 105.944Z" fill="#553597"/>
<path d="M53.2747 105.715C53.3087 104.866 52.9955 104.164 52.5751 104.147C52.1546 104.13 51.7862 104.805 51.7521 105.654C51.718 106.503 52.0313 107.205 52.4517 107.222C52.8721 107.239 53.2406 106.564 53.2747 105.715Z" fill="#553597"/>
<path d="M61.2246 112.46C61.2089 112.419 61.1865 112.372 61.1589 112.321C61.1323 112.269 61.1051 112.207 61.0712 112.143C60.9377 111.887 60.7662 111.535 60.6113 111.126C60.3 110.31 60.1571 109.59 60.0132 109.597C59.9417 109.599 59.8833 109.796 59.8854 110.111C59.8875 110.189 59.889 110.276 59.9 110.367C59.9047 110.413 59.9099 110.46 59.9162 110.509C59.9245 110.558 59.9328 110.608 59.9412 110.659C59.9553 110.749 59.9793 110.84 60.0032 110.935C59.9876 110.944 59.9725 110.954 59.9563 110.964C59.8896 111.004 59.8186 111.039 59.7488 111.076C59.6778 111.11 59.6053 111.143 59.5334 111.176C59.4599 111.206 59.3863 111.236 59.3133 111.266C59.0171 111.377 58.7136 111.462 58.4122 111.533C57.8067 111.667 57.2039 111.723 56.6282 111.735C56.3403 111.732 56.0587 111.736 55.785 111.714C55.7166 111.71 55.6488 111.706 55.5811 111.702C55.5138 111.698 55.4465 111.694 55.3803 111.686C55.2478 111.672 55.1175 111.659 54.9892 111.646C54.8604 111.635 54.7362 111.612 54.6127 111.596C54.5511 111.587 54.4901 111.578 54.4296 111.569C54.3994 111.565 54.3691 111.56 54.3394 111.556C54.3097 111.55 54.2805 111.544 54.2507 111.539C54.1334 111.517 54.0182 111.495 53.906 111.473C53.8492 111.464 53.7944 111.449 53.7402 111.436C53.686 111.423 53.6317 111.41 53.5786 111.398C53.5254 111.385 53.4727 111.373 53.4205 111.36C53.3684 111.348 53.3183 111.331 53.2683 111.318C53.1681 111.289 53.0711 111.261 52.9762 111.234C52.7901 111.17 52.6122 111.115 52.4521 111.048C52.2884 110.989 52.1429 110.919 52.0063 110.86C51.9395 110.827 51.8754 110.796 51.8149 110.766C51.7534 110.737 51.6981 110.703 51.6438 110.675C51.2126 110.441 51.0082 110.259 50.9816 110.283C50.9534 110.306 51.1192 110.549 51.5354 110.847C51.5432 110.852 51.5515 110.858 51.5594 110.864C51.5933 111.248 51.7507 112.824 52.1836 114.42C52.8558 116.898 53.8409 118.154 55.1117 118.154C55.1284 118.154 55.1451 118.154 55.1613 118.154C57.6534 118.09 59.7175 113.396 60.349 111.797C60.3756 111.84 60.4011 111.882 60.4267 111.924C60.4554 111.968 60.4804 112.012 60.5112 112.053C60.5419 112.092 60.5717 112.131 60.6003 112.168C60.6295 112.205 60.6582 112.24 60.6853 112.273C60.7156 112.305 60.7453 112.335 60.774 112.363C60.8319 112.419 60.883 112.469 60.9341 112.508C60.9862 112.546 61.0332 112.575 61.0739 112.597C61.1552 112.641 61.211 112.651 61.2366 112.626C61.2621 112.6 61.2553 112.542 61.224 112.46H61.2246ZM54.2643 111.955C54.2951 111.961 54.3258 111.967 54.3566 111.973C54.4187 111.985 54.4812 111.997 54.5443 112.009C54.6711 112.031 54.7993 112.06 54.9318 112.076C55.0637 112.094 55.1983 112.112 55.3344 112.131C55.4027 112.141 55.4715 112.148 55.5414 112.153C55.6113 112.16 55.6817 112.166 55.7526 112.172C56.0358 112.203 56.3299 112.207 56.6308 112.216C56.9322 112.217 57.242 112.205 57.5575 112.176C57.4459 112.624 57.0532 112.961 55.5508 112.885C54.3639 112.826 54.1292 112.212 54.0849 111.914C54.1141 111.92 54.1428 111.928 54.1725 111.935C54.2028 111.942 54.233 111.949 54.2638 111.956L54.2643 111.955ZM55.1493 117.632C55.1383 117.632 55.1274 117.632 55.1164 117.632C54.6434 117.632 54.2351 117.371 53.8852 116.945C54.6382 116.101 55.5409 115.638 56.5729 115.573C57.06 115.542 57.4735 115.61 57.74 115.674C56.8384 116.939 55.9555 117.611 55.1493 117.631V117.632Z" fill="#553597"/>
<path d="M80.3368 112.319C80.2654 112.662 80.2158 113.005 80.1877 113.344C80.1621 113.683 80.1569 114.019 80.1793 114.345C80.1892 114.508 80.209 114.668 80.2315 114.826C80.257 114.983 80.2878 115.137 80.3269 115.287C80.3671 115.435 80.414 115.58 80.4687 115.717C80.5251 115.854 80.5903 115.984 80.6648 116.103C80.8124 116.341 81.0033 116.531 81.2218 116.631C81.4398 116.733 81.6822 116.742 81.9117 116.679C82.0264 116.648 82.1385 116.601 82.2434 116.542C82.3487 116.484 82.4499 116.418 82.5437 116.342C82.733 116.195 82.8973 116.024 83.0428 115.851C83.3327 115.501 83.5492 115.14 83.7176 114.813C83.8871 114.485 84.0091 114.189 84.103 113.945C84.2897 113.455 84.3705 113.172 84.4091 113.18C84.4409 113.186 84.4273 113.484 84.2959 114.007C84.2292 114.267 84.1322 114.583 83.9809 114.937C83.8308 115.291 83.6274 115.684 83.3312 116.08C83.1826 116.277 83.0099 116.474 82.7982 116.654C82.6939 116.744 82.5776 116.829 82.4509 116.905C82.3247 116.982 82.185 117.047 82.0322 117.094C81.8799 117.141 81.7141 117.168 81.5435 117.163C81.373 117.158 81.1988 117.12 81.0366 117.051C80.8739 116.982 80.7253 116.881 80.596 116.763C80.4667 116.644 80.3566 116.508 80.2617 116.364C80.1668 116.219 80.0865 116.066 80.0177 115.907C79.9504 115.749 79.8946 115.585 79.8466 115.418C79.8002 115.251 79.7637 115.08 79.7335 114.907C79.7063 114.734 79.6829 114.559 79.6704 114.382C79.6422 114.028 79.6453 113.667 79.6704 113.304C79.698 112.941 79.7507 112.576 79.8263 112.211C79.904 111.846 80.0036 111.491 80.1251 111.148C80.2487 110.805 80.391 110.475 80.5595 110.162C80.6429 110.006 80.7347 109.855 80.8296 109.707C80.9271 109.562 81.0293 109.42 81.1394 109.286C81.2505 109.152 81.3678 109.025 81.4935 108.907C81.6202 108.791 81.7558 108.682 81.9007 108.588C82.0462 108.495 82.2016 108.415 82.368 108.359C82.5338 108.303 82.7106 108.271 82.8874 108.274C83.0642 108.276 83.2383 108.312 83.3964 108.376C83.5549 108.441 83.6952 108.533 83.8156 108.637C83.9361 108.741 84.0378 108.858 84.1223 108.98C84.2073 109.101 84.2798 109.224 84.3387 109.35C84.4597 109.6 84.5379 109.851 84.5942 110.091C84.7053 110.573 84.7324 111.016 84.7272 111.4C84.7225 111.785 84.6839 112.113 84.6401 112.378C84.5494 112.909 84.4414 113.187 84.4096 113.18C84.371 113.172 84.4112 112.88 84.4383 112.357C84.4508 112.095 84.4586 111.775 84.4357 111.407C84.4138 111.04 84.3616 110.622 84.2375 110.185C84.1749 109.967 84.0936 109.744 83.9799 109.533C83.9246 109.426 83.8589 109.324 83.7859 109.228C83.7134 109.131 83.63 109.043 83.5372 108.969C83.3531 108.819 83.1278 108.728 82.8874 108.733C82.6475 108.736 82.3956 108.833 82.1646 108.991C82.0488 109.069 81.9367 109.162 81.8298 109.264C81.724 109.368 81.6228 109.481 81.5258 109.601C81.4298 109.722 81.3396 109.851 81.2525 109.984C81.1681 110.119 81.0857 110.257 81.0106 110.403C80.8583 110.692 80.7279 111.001 80.6142 111.322C80.5026 111.643 80.4098 111.977 80.3368 112.319V112.319Z" fill="#553597"/>
<path d="M70.5802 61.6607C68.4202 59.4978 65.5484 58.3066 62.4936 58.3066C59.4387 58.3066 56.5669 59.4978 54.4069 61.6607C54.1915 61.8763 53.9866 62.0988 53.791 62.328L56.4527 60.6544L56.4584 60.656C58.1882 59.5019 60.2637 58.8288 62.4936 58.8288C68.512 58.8288 73.4082 63.7317 73.4082 69.7583C73.4082 74.6115 70.2329 78.7352 65.8535 80.1571L65.8545 80.1597L62.4941 81.2099C65.5489 81.2099 68.4207 80.0188 70.5807 77.8558C72.7407 75.6929 73.9302 72.8172 73.9302 69.7583C73.9302 66.6993 72.7407 63.8236 70.5807 61.6607H70.5802Z" fill="#553597"/>
<path d="M101.621 31.9878C101.446 32.0562 101.38 32.2374 101.208 32.3111C101.25 32.3659 101.291 32.4207 101.333 32.4756C101.351 32.4985 101.368 32.522 101.385 32.545C101.433 32.6087 101.481 32.6724 101.528 32.7366C101.546 32.7607 101.564 32.7852 101.582 32.8092C101.628 32.8724 101.675 32.9356 101.721 32.9988C101.739 33.0239 101.757 33.0494 101.776 33.0745C101.822 33.1372 101.867 33.1998 101.912 33.263C101.931 33.2891 101.949 33.3147 101.968 33.3408C102.013 33.4035 102.057 33.4661 102.102 33.5288C102.12 33.5554 102.139 33.5821 102.158 33.6087C102.202 33.6708 102.246 33.7335 102.289 33.7962C102.308 33.8238 102.327 33.851 102.346 33.8787C102.388 33.9408 102.431 34.003 102.473 34.0651C102.493 34.0933 102.512 34.1215 102.531 34.1497C102.573 34.2113 102.614 34.2735 102.656 34.3351C102.675 34.3643 102.695 34.3936 102.714 34.4228C102.755 34.4844 102.796 34.546 102.836 34.6077C102.856 34.6369 102.875 34.6667 102.894 34.6964C102.934 34.758 102.975 34.8197 103.015 34.8818C103.034 34.9116 103.053 34.9419 103.073 34.9716C103.112 35.0332 103.151 35.0949 103.191 35.1565C103.21 35.1873 103.23 35.2181 103.249 35.2484C103.288 35.3095 103.327 35.3711 103.365 35.4322C103.384 35.4635 103.404 35.4954 103.424 35.5267C103.461 35.5878 103.499 35.6484 103.536 35.7095C103.556 35.7418 103.576 35.7742 103.596 35.8071C103.632 35.8677 103.669 35.9283 103.705 35.9888C103.725 36.0223 103.745 36.0557 103.765 36.0886C103.801 36.1486 103.837 36.2092 103.873 36.2698C103.892 36.3032 103.912 36.3371 103.932 36.3706C103.967 36.4311 104.003 36.4917 104.038 36.5523C104.058 36.5862 104.077 36.6202 104.097 36.6541C104.132 36.7147 104.166 36.7753 104.201 36.8358C104.22 36.8703 104.24 36.9053 104.26 36.9403C104.293 37.0003 104.327 37.0604 104.361 37.1209C104.381 37.1565 104.4 37.1914 104.42 37.227C104.453 37.287 104.486 37.3471 104.519 37.4071C104.539 37.4431 104.558 37.4792 104.578 37.5152C104.61 37.5747 104.642 37.6348 104.674 37.6943C104.694 37.7309 104.713 37.7679 104.733 37.8045C104.765 37.864 104.796 37.9241 104.827 37.9836C104.847 38.0207 104.867 38.0578 104.886 38.0954C104.917 38.1549 104.948 38.2149 104.979 38.275C104.998 38.3126 105.017 38.3502 105.036 38.3873C105.066 38.4468 105.097 38.5068 105.127 38.5664C105.146 38.6045 105.165 38.6426 105.184 38.6813C105.214 38.7408 105.244 38.8003 105.273 38.8598C105.292 38.8985 105.311 38.9366 105.33 38.9752C105.359 39.0348 105.388 39.0948 105.417 39.1544C105.435 39.1935 105.454 39.2322 105.473 39.2713C105.502 39.3309 105.53 39.3904 105.558 39.4499C105.577 39.4896 105.595 39.5288 105.614 39.5685C105.641 39.628 105.669 39.6875 105.697 39.747C105.715 39.7872 105.734 39.8275 105.753 39.8677C105.78 39.9267 105.807 39.9862 105.833 40.0457C105.852 40.0865 105.87 40.1267 105.888 40.1674C105.915 40.2269 105.941 40.2865 105.967 40.346C105.986 40.3867 106.003 40.428 106.022 40.4687C106.048 40.5277 106.073 40.5872 106.099 40.6468C106.117 40.688 106.135 40.7298 106.153 40.7716C106.179 40.8306 106.204 40.8896 106.229 40.9491C106.246 40.9914 106.264 41.0332 106.282 41.0755C106.306 41.1345 106.331 41.193 106.355 41.252C106.373 41.2948 106.391 41.3376 106.408 41.3804C106.432 41.4395 106.456 41.4985 106.48 41.5575C106.497 41.6003 106.514 41.6431 106.532 41.6859C106.555 41.7449 106.579 41.8039 106.602 41.8635C106.619 41.9068 106.636 41.9496 106.653 41.993C106.676 42.052 106.698 42.1115 106.721 42.171C106.738 42.2144 106.755 42.2577 106.772 42.3016C106.794 42.3606 106.816 42.4201 106.838 42.4791C106.855 42.5235 106.871 42.5674 106.888 42.6118C106.91 42.6708 106.931 42.7293 106.952 42.7883C106.969 42.8332 106.985 42.8776 107.001 42.9225C107.022 42.9815 107.043 43.04 107.064 43.099C107.08 43.1439 107.096 43.1888 107.112 43.2342C107.133 43.2932 107.153 43.3522 107.174 43.4112C107.189 43.4567 107.205 43.5016 107.221 43.547C107.241 43.606 107.261 43.665 107.28 43.724C107.296 43.77 107.311 43.8154 107.326 43.8614C107.346 43.9199 107.365 43.9789 107.384 44.0373C107.399 44.0838 107.414 44.1303 107.43 44.1773C107.448 44.2358 107.467 44.2937 107.485 44.3522C107.501 44.3992 107.515 44.4462 107.53 44.4937C107.549 44.5522 107.567 44.6107 107.584 44.6692C107.599 44.7167 107.614 44.7637 107.628 44.8112C107.646 44.8697 107.663 44.9287 107.68 44.9872C107.695 45.0347 107.709 45.0822 107.723 45.1292C107.74 45.1883 107.757 45.2473 107.774 45.3063C107.788 45.3538 107.802 45.4013 107.816 45.4488C107.832 45.5078 107.849 45.5668 107.866 45.6258C107.879 45.6739 107.893 45.7219 107.906 45.77C107.922 45.8285 107.938 45.8875 107.954 45.946C107.967 45.9945 107.98 46.0426 107.993 46.0911C108.008 46.1496 108.024 46.2086 108.039 46.2671C108.052 46.3162 108.065 46.3653 108.078 46.4144C108.093 46.4728 108.108 46.5313 108.123 46.5903C108.135 46.6394 108.148 46.6885 108.16 46.7376C108.174 46.7966 108.189 46.8556 108.203 46.9146C108.215 46.9642 108.227 47.0133 108.239 47.0629C108.253 47.1214 108.267 47.1799 108.28 47.2389C108.292 47.289 108.304 47.3392 108.315 47.3888C108.329 47.4478 108.342 47.5063 108.355 47.5653C108.367 47.6154 108.378 47.665 108.389 47.7151C108.402 47.7741 108.415 47.8337 108.427 47.8927C108.438 47.9428 108.449 47.9929 108.46 48.0431C108.472 48.1021 108.484 48.1611 108.497 48.2201C108.507 48.2707 108.517 48.3209 108.528 48.3715C108.54 48.4305 108.551 48.4895 108.563 48.5485C108.573 48.5992 108.584 48.6504 108.594 48.701C108.605 48.76 108.616 48.819 108.627 48.8786C108.637 48.9297 108.647 48.9809 108.656 49.0316C108.667 49.0906 108.678 49.1501 108.688 49.2091C108.698 49.2603 108.707 49.312 108.716 49.3632C108.727 49.4222 108.736 49.4817 108.747 49.5407C108.756 49.5924 108.765 49.6441 108.773 49.6958C108.783 49.7548 108.793 49.8133 108.802 49.8723C108.811 49.9245 108.819 49.9767 108.828 50.029C108.837 50.0874 108.846 50.1464 108.855 50.2055C108.863 50.2582 108.871 50.3104 108.879 50.3632C108.888 50.4222 108.896 50.4817 108.905 50.5412C108.913 50.5934 108.92 50.6457 108.927 50.6984C108.936 50.7579 108.943 50.8175 108.952 50.8775C108.959 50.9297 108.966 50.9819 108.973 51.0347C108.981 51.0942 108.988 51.1537 108.996 51.2133C109.003 51.266 109.01 51.3188 109.016 51.3715C109.023 51.431 109.03 51.4906 109.037 51.5501C109.044 51.6028 109.05 51.6561 109.056 51.7088C109.063 51.7689 109.069 51.8289 109.076 51.8885C109.082 51.9412 109.088 51.9945 109.093 52.0472C109.099 52.1067 109.105 52.1668 109.111 52.2263C109.117 52.2796 109.122 52.3334 109.128 52.3866C109.133 52.4467 109.139 52.5067 109.144 52.5668C109.149 52.6201 109.154 52.6733 109.159 52.7266C109.164 52.7866 109.169 52.8472 109.174 52.9078C109.178 52.961 109.183 53.0143 109.187 53.0681C109.192 53.1281 109.196 53.1882 109.201 53.2483C109.205 53.302 109.209 53.3558 109.213 53.4096C109.217 53.4702 109.22 53.5313 109.225 53.5924C109.228 53.6456 109.232 53.6989 109.235 53.7522C109.239 53.8138 109.242 53.8759 109.245 53.9381C109.249 53.9903 109.252 54.043 109.254 54.0952C109.257 54.1574 109.261 54.2195 109.263 54.2817C109.266 54.3344 109.268 54.3871 109.271 54.4399C109.274 54.5031 109.276 54.5663 109.278 54.6294C109.28 54.6811 109.282 54.7328 109.285 54.7845C109.287 54.8498 109.289 54.9156 109.291 54.9809C109.292 55.0305 109.294 55.0801 109.295 55.1297C109.297 55.1971 109.299 55.2649 109.3 55.3323C109.301 55.3803 109.302 55.4279 109.303 55.4759C109.305 55.5542 109.305 55.6326 109.306 55.7109C109.306 55.748 109.307 55.785 109.308 55.8226C109.309 55.9386 109.31 56.0545 109.31 56.1704C109.31 75.2549 95.4287 91.7582 76.3033 95.4119C76.1927 95.4328 76.0821 95.4532 75.9711 95.4735C75.97 95.4735 75.969 95.4746 75.9679 95.4746C75.7812 95.509 75.738 95.6652 75.738 95.6652L75.6279 96.0641C75.8861 96.0198 76.1437 95.9738 76.4008 95.9247C81.091 95.0286 85.5523 93.3545 89.6606 90.9488C93.6854 88.5916 97.2513 85.6052 100.259 82.0721C103.29 78.5107 105.654 74.5108 107.286 70.1823C108.974 65.7025 109.831 60.9881 109.831 56.1699C109.831 50.701 108.735 45.3956 106.575 40.4008C105.294 37.4379 103.565 34.5513 101.624 31.9873L101.621 31.9878Z" fill="#553597"/>
<path d="M119.123 50.469C117.982 46.833 116.264 43.2669 114.015 39.869C111.74 36.4294 109.041 33.3474 106.06 30.7412C105.853 30.7981 105.302 30.4347 105.095 30.4926C114.144 38.6738 120.655 50.7196 120.108 61.3211C119.178 79.3779 107.376 94.7935 90.7368 99.6817C90.2456 99.8347 89.8644 100.22 89.7163 100.713C88.8809 103.496 87.9688 107.18 87.0442 111.294C87.0098 111.447 86.9754 111.601 86.9404 111.756C87.1214 111.789 87.2935 111.819 87.4546 111.846C87.4859 111.707 87.5172 111.569 87.548 111.431C87.5975 111.208 87.6476 110.988 87.6976 110.768C87.7362 110.598 87.7748 110.428 87.8139 110.259C88.6457 106.623 89.4623 103.374 90.2159 100.863C90.3139 100.537 90.5663 100.282 90.8875 100.182C95.0459 98.96 98.9638 97.0812 102.532 94.5976C106.022 92.1684 109.121 89.2013 111.742 85.7789C114.363 82.357 116.455 78.5461 117.96 74.4531C119.499 70.2694 120.397 65.86 120.629 61.3477C120.808 57.8835 120.301 54.2235 119.123 50.469Z" fill="#553597"/>
<path d="M101.437 32.6139L101.167 32.2536C101.153 32.2342 99.5402 30.1371 96.8942 27.8426C94.4609 25.7325 90.629 23.0176 86.1943 22.0693L86.3033 21.5586C90.8501 22.5314 94.7628 25.3027 97.2446 27.4562C99.9282 29.7852 101.567 31.9173 101.583 31.9387L101.855 32.3006L101.437 32.6144V32.6139Z" fill="#553597"/>
<path d="M107.277 32.5764C107.262 32.5592 105.717 30.8099 102.914 28.7686C100.33 26.8872 96.1172 24.3655 90.7204 23.036C75.856 19.3739 68.9656 22.0371 63.429 24.177C63.0311 24.3311 62.6551 24.4762 62.276 24.6193L61.6914 24.3117C62.0684 24.1692 62.8444 23.8428 63.2413 23.6898C68.8462 21.5232 75.8221 18.8272 90.845 22.529C96.3305 23.8804 100.61 26.4438 103.234 28.3561C106.08 30.4302 107.606 32.1592 107.669 32.2318L107.277 32.5759V32.5764Z" fill="#553597"/>
<path d="M32.9542 77.2588C32.8619 77.3497 32.7164 77.3518 32.6225 77.264C30.7035 75.464 20.9783 66.1341 17.9667 59.202C17.9318 59.1216 17.9438 59.0286 17.9975 58.9597C20.2618 56.0574 37.8494 33.0408 62.2747 24.619C62.2961 24.6028 63.5789 24.0576 63.6003 24.0414C63.9909 23.7464 64.4044 23.5793 64.8232 23.3266C64.9494 23.2503 65.0766 23.1762 65.2049 23.1025C60.6054 24.5328 55.9204 26.5929 51.2119 29.2592C45.6904 32.386 40.1069 36.3594 34.6167 41.0685C25.0558 49.2694 18.7531 57.143 17.5871 58.6381C17.4155 58.8584 17.3775 59.154 17.4891 59.4104C20.5418 66.4369 30.3343 75.8327 32.2664 77.6447C32.4129 77.7826 32.5991 77.851 32.7858 77.851C32.9725 77.851 33.1717 77.7773 33.3203 77.6306C40.8693 70.1878 56.2979 60.7493 56.4528 60.6547L56.1816 60.2088C56.0262 60.3038 40.5465 69.7732 32.9547 77.2588H32.9542Z" fill="#553597"/>
<path d="M85.8806 116.65C85.8446 116.82 85.8091 116.99 85.7731 117.161C84.8887 121.384 84.0199 125.803 83.2226 130.002C83.1793 130.231 83.136 130.46 83.0927 130.688C83.0927 130.688 83.0927 130.688 83.0927 130.689L82.0195 136.459C81.9595 136.785 81.9006 137.107 81.8427 137.426C81.1877 141.022 80.6297 144.183 80.2183 146.549L80.1672 146.842H37.1129C37.14 146.68 37.176 146.464 37.2219 146.19C39.3323 133.521 43.4698 110.829 48.8348 91.8744L48.9772 91.3747C49.5748 89.2776 50.1886 87.228 50.8154 85.2447L66.0047 80.6599L65.854 80.1602L50.4014 84.8244L50.3602 84.9554C49.7276 86.9507 49.1096 89.0123 48.5063 91.1241L48.3644 91.6227C42.977 110.625 38.8239 133.4 36.7072 146.104C36.6237 146.605 36.569 146.936 36.5471 147.056L36.4902 147.364H80.6057L80.7319 146.639C81.1085 144.474 81.6075 141.643 82.1916 138.423C82.2505 138.098 82.3105 137.769 82.3715 137.435L83.44 131.66C83.4859 131.419 83.5313 131.177 83.5777 130.934C84.4157 126.495 85.3403 121.775 86.2816 117.278C86.317 117.107 86.353 116.937 86.389 116.767L85.8806 116.65Z" fill="#553597"/>
<path d="M27.211 136.628C27.211 136.628 27.187 133.145 28.595 130.113C30.003 127.082 32.9181 125.925 35.5516 127.786C38.1851 129.648 40.2752 135.055 41.1523 138.337C42.0295 141.619 42.0858 143.396 40.9031 144.721C39.7203 146.046 38.9741 143.631 38.9741 143.631C38.9741 143.631 37.0759 139.154 35.4692 136.396C33.8625 133.638 32.2428 133.327 31.9612 134.822C31.6796 136.317 31.6561 140.42 31.6561 140.42L28.486 140.518C28.486 140.518 28.0104 137.304 27.212 136.627L27.211 136.628Z" fill="#6F46BE"/>
<path d="M15.9276 146.104L32.4253 146.16C32.4253 146.16 32.7491 146.019 32.7491 145.85C32.7491 145.681 33.1872 145.952 33.2425 146.387C33.2983 146.823 33.0589 147.147 32.2282 147.175C31.3975 147.203 15.7806 147.175 15.7806 147.175C15.7806 147.175 15.33 146.893 15.3441 146.484C15.3582 146.075 15.8066 145.978 15.9276 146.104Z" fill="white"/>
<path d="M15.7812 146.053C15.7812 146.053 15.6398 144.256 16.8935 143.17C18.1466 142.085 20.7285 142.408 20.7285 142.408C20.7285 142.408 21.9347 141.774 23.7651 142.282C25.5955 142.79 25.6659 142.761 26.0461 142.677C26.4262 142.592 28.2144 141.732 28.581 141.478C28.9471 141.225 28.581 140.322 28.581 140.322H32.6225C32.6225 140.322 33.0308 140.322 33.0449 140.788C33.059 141.253 33.0308 141.499 32.7211 141.601L32.7492 145.737C32.7492 145.737 32.8337 146.161 32.4254 146.16C32.0171 146.158 15.7812 146.053 15.7812 146.053Z" fill="#EDE3FF"/>
<path d="M28.4847 140.682C28.4847 140.682 27.5809 137.065 27.1445 136.698C26.708 136.331 23.9478 136.36 23.3141 136.698C22.6805 137.036 23.5394 140.082 23.5394 140.082C23.5394 140.082 24.7644 139.702 26.4686 140.16C28.1728 140.618 28.5728 141.025 28.4852 140.682H28.4847Z" fill="#EDE3FF"/>
<path d="M20.8496 142.211C20.8496 142.211 20.9649 141.475 22.28 141.378C22.28 141.378 22.2435 140.463 23.9191 140.082C25.5946 139.702 29.2726 140.966 28.6818 141.362C28.0909 141.756 26.3685 142.863 25.6259 142.722C24.8833 142.58 22.9616 142.042 20.8496 142.211Z" fill="white"/>
<path d="M37.1792 129.32C37.1792 129.32 35.9213 126.998 32.6944 126.896C29.4674 126.794 27.3273 131.269 27.3419 135.883C27.3419 135.883 28.7833 130.145 32.1666 128.966C35.5506 127.788 37.1786 129.216 37.1786 129.216" fill="#6F46BE"/>
<path d="M28.3622 141.057C28.4586 141.074 28.5509 141.125 28.6266 141.187L28.9113 141.124C28.893 141.041 28.4592 139.088 28.2042 138.184C27.9611 137.321 27.7312 136.507 26.9135 136.354C26.2757 136.235 24.6445 136.188 23.7841 136.37C23.309 136.47 23.0164 136.631 22.8642 136.876C22.6853 137.163 22.7395 137.503 22.8068 137.767C22.9528 138.342 23.3439 140.221 23.3481 140.24L23.8586 140.133C23.8425 140.056 23.4613 138.224 23.3121 137.638C23.2511 137.398 23.2495 137.243 23.3064 137.151C23.3768 137.038 23.5734 136.947 23.891 136.88C24.6674 136.717 26.2173 136.755 26.817 136.867C27.267 136.951 27.4397 137.398 27.7014 138.326C27.908 139.058 28.2459 140.544 28.3611 141.057H28.3622Z" fill="#553597"/>
<path d="M27.423 140.388C27.4606 140.402 27.4965 140.42 27.5294 140.445C27.642 140.528 27.7588 140.602 27.8788 140.671C27.6749 139.927 27.2421 138.35 27.0204 137.534C26.7524 136.546 25.8909 136.361 25.4727 136.402L25.5066 136.765C25.5436 136.762 26.415 136.697 26.6679 137.63C26.8572 138.326 27.1993 139.574 27.4225 140.388H27.423Z" fill="#553597"/>
<path d="M27.3148 142.454C27.1025 142.454 26.9101 142.384 26.8032 142.322L27.0619 141.869C27.1114 141.897 27.3429 141.988 27.4926 141.88C27.623 141.786 27.8191 141.68 28.0089 141.579C28.1716 141.492 28.34 141.401 28.4391 141.332C28.4641 141.315 28.4787 141.3 28.486 141.291C28.4574 141.237 28.2441 140.951 26.8491 140.585C25.1511 140.14 23.7572 140.174 22.9249 140.681C22.2991 141.063 22.2564 141.463 22.2548 141.48V141.474L21.7344 141.452C21.7375 141.383 21.7886 140.763 22.6538 140.235C23.3291 139.824 24.6276 139.462 26.9816 140.08C28.303 140.427 28.9267 140.775 29.0033 141.209C29.0404 141.416 28.9429 141.617 28.7369 141.761C28.6128 141.847 28.4391 141.941 28.255 142.039C28.0803 142.133 27.8999 142.229 27.7977 142.304C27.6438 142.415 27.4733 142.454 27.3143 142.454L27.3148 142.454Z" fill="#553597"/>
<path d="M27.3362 142.208C27.3033 141.961 27.0368 141.69 25.3269 141.385C23.2931 141.023 22.2793 141.016 21.4528 141.358C20.5892 141.715 20.5084 142.219 20.5021 142.276L20.4922 142.364C20.6549 142.384 20.8098 142.426 20.9652 142.471C23.266 142.053 24.9154 142.704 25.548 142.953C25.5808 142.967 25.6106 142.978 25.6377 142.989C25.7102 143.017 25.791 143.031 25.8713 143.031C25.9469 143.031 26.0225 143.019 26.0919 142.994C26.349 142.901 26.8162 142.728 27.0535 142.616C27.3294 142.486 27.3487 142.304 27.3362 142.208V142.208ZM25.9464 142.588C25.9 142.605 25.8384 142.605 25.7931 142.587C25.7665 142.577 25.7373 142.565 25.7055 142.553C25.1965 142.352 24.0597 141.903 22.4655 141.903C22.0671 141.903 21.6405 141.931 21.1878 141.998C21.288 141.919 21.4267 141.835 21.617 141.756C22.3581 141.45 23.3092 141.464 25.2518 141.809C26.3093 141.998 26.7015 142.157 26.8439 142.24C26.605 142.349 26.1404 142.519 25.9464 142.589V142.588Z" fill="#553597"/>
<path d="M30.5127 141.754C30.5232 141.77 30.5743 141.761 30.6775 141.756C30.7803 141.751 30.9346 141.748 31.1333 141.748C31.3325 141.748 31.5766 141.751 31.8608 141.756C32.0026 141.76 32.1549 141.764 32.316 141.768C32.3964 141.771 32.4793 141.774 32.5648 141.776C32.5862 141.777 32.6076 141.778 32.6289 141.778L32.6613 141.779C32.6727 141.779 32.692 141.779 32.7077 141.779C32.7729 141.775 32.8386 141.76 32.9006 141.733C33.0242 141.679 33.1306 141.576 33.1869 141.443C33.2156 141.377 33.2312 141.304 33.2328 141.231C33.2344 141.183 33.2354 141.134 33.237 141.085C33.2396 140.986 33.2417 140.885 33.2443 140.781C33.2453 140.622 33.1739 140.457 33.0482 140.347C32.9862 140.291 32.91 140.248 32.8276 140.224C32.7864 140.212 32.7437 140.204 32.7009 140.201L32.6686 140.2H32.6477L32.607 140.199C32.498 140.197 32.387 140.195 32.2743 140.192C32.049 140.189 31.8175 140.185 31.5797 140.181C30.629 140.168 29.584 140.161 28.4873 140.161V140.683C29.584 140.683 30.629 140.676 31.5797 140.663C31.8175 140.659 32.049 140.656 32.2743 140.652C32.387 140.65 32.498 140.648 32.607 140.646L32.6477 140.645H32.6675H32.6759C32.6868 140.645 32.6978 140.646 32.7082 140.648C32.7291 140.653 32.7494 140.662 32.7666 140.676C32.8015 140.704 32.824 140.744 32.8271 140.789C32.8297 140.89 32.8323 140.989 32.8349 141.086C32.8365 141.136 32.8375 141.184 32.8391 141.232C32.8401 141.255 32.8375 141.278 32.8302 141.298C32.8161 141.341 32.7843 141.378 32.7452 141.4C32.7254 141.411 32.704 141.418 32.6816 141.421C32.6748 141.421 32.6727 141.422 32.6623 141.423L32.6295 141.424C32.6076 141.425 32.5862 141.425 32.5648 141.426C32.4787 141.43 32.3953 141.434 32.314 141.437C32.1513 141.446 31.9979 141.455 31.8545 141.466C31.5677 141.488 31.3205 141.514 31.1187 141.546C30.9169 141.578 30.761 141.615 30.6567 141.655C30.5519 141.694 30.5044 141.741 30.5143 141.755L30.5127 141.754Z" fill="#553597"/>
<path d="M21.9959 142.932C22.0043 142.929 21.9881 142.873 21.9177 142.794C21.8478 142.714 21.7232 142.615 21.5381 142.527C21.4911 142.507 21.4426 142.482 21.3889 142.463C21.3352 142.444 21.2784 142.425 21.2189 142.405C21.0979 142.373 20.9649 142.335 20.8184 142.315C20.6724 142.286 20.5139 142.275 20.3444 142.258C20.2599 142.253 20.1723 142.251 20.0815 142.247C20.0362 142.245 19.9903 142.244 19.9439 142.242C19.8975 142.243 19.8505 142.244 19.8026 142.245C19.7071 142.247 19.6086 142.249 19.5079 142.251C19.4073 142.258 19.3045 142.265 19.1987 142.272C19.146 142.276 19.0923 142.279 19.0381 142.284C18.9838 142.287 18.9296 142.296 18.8748 142.301C18.7648 142.314 18.6522 142.327 18.5369 142.341C18.5082 142.344 18.479 142.347 18.4498 142.351C18.4206 142.356 18.3909 142.361 18.3612 142.366C18.3017 142.377 18.2412 142.386 18.1807 142.397C18.1202 142.409 18.0598 142.426 17.9982 142.44C17.9674 142.448 17.9367 142.455 17.9054 142.463C17.8746 142.472 17.8439 142.482 17.8131 142.491C17.5649 142.565 17.3146 142.675 17.0741 142.824C16.8343 142.972 16.6064 143.165 16.4119 143.398C16.2153 143.631 16.0578 143.907 15.9394 144.204C15.9076 144.277 15.8846 144.355 15.8575 144.431C15.8356 144.509 15.8101 144.586 15.7923 144.666C15.7522 144.825 15.7235 144.989 15.7037 145.155C15.6839 145.322 15.6729 145.491 15.6719 145.663C15.6719 145.706 15.6719 145.749 15.6729 145.792C15.6734 145.814 15.6734 145.836 15.675 145.857L15.6792 145.941C15.6849 146.012 15.6901 146.083 15.6995 146.151L15.7131 146.255C15.7162 146.272 15.7167 146.291 15.7219 146.306L15.7736 146.308C15.8429 146.311 15.9107 146.316 15.9848 146.315C16.0458 146.315 16.1068 146.316 16.1678 146.316C16.2533 146.317 16.3389 146.318 16.4254 146.319C16.598 146.32 16.7727 146.321 16.9495 146.323C17.3031 146.325 17.6639 146.328 18.0326 146.331C18.7695 146.336 19.5366 146.341 20.3303 146.346C21.9182 146.354 23.6151 146.362 25.4007 146.37C27.1863 146.375 29.0605 146.38 31.0035 146.385C31.2465 146.385 31.4906 146.386 31.7352 146.386C31.8577 146.386 31.9803 146.386 32.1033 146.387H32.1956H32.242C32.2587 146.387 32.2681 146.388 32.2963 146.386C32.3891 146.385 32.4965 146.36 32.5914 146.307C32.6874 146.254 32.7651 146.173 32.8162 146.089C32.8423 146.047 32.8626 146.004 32.8788 145.96C32.8866 145.939 32.8939 145.917 32.9002 145.895C32.9033 145.884 32.9059 145.872 32.9085 145.861C32.9116 145.849 32.9132 145.841 32.9163 145.822C32.9189 145.806 32.921 145.791 32.9226 145.776V145.753V145.734V145.688V145.594V145.407C32.9226 145.158 32.9231 144.908 32.9236 144.656C32.9236 143.652 32.9247 142.632 32.9252 141.601H32.4037C32.4037 142.632 32.4047 143.652 32.4053 144.656C32.4053 144.908 32.4053 145.158 32.4058 145.407C32.4058 145.518 32.4058 145.629 32.4058 145.739C32.4063 145.735 32.4053 145.743 32.4042 145.746C32.4032 145.749 32.4027 145.754 32.4011 145.757C32.399 145.765 32.3964 145.773 32.3938 145.78C32.3881 145.795 32.3818 145.808 32.3755 145.819C32.362 145.84 32.3505 145.85 32.3385 145.857C32.3255 145.863 32.3104 145.871 32.2796 145.871C32.277 145.872 32.2551 145.871 32.2415 145.872H32.1951H32.1028C31.9797 145.872 31.8572 145.872 31.7346 145.872C31.4895 145.872 31.2455 145.873 31.003 145.873C29.0599 145.878 27.1857 145.884 25.4002 145.888C23.6146 145.897 21.9182 145.905 20.3298 145.912C19.5356 145.918 18.769 145.923 18.0321 145.927C17.3453 145.933 16.6862 145.939 16.0573 145.944H16.0479C16.0479 145.944 16.0468 145.938 16.0463 145.936L16.0437 145.918L16.0395 145.88L16.0369 145.839C16.0353 145.819 16.0353 145.8 16.0343 145.78C16.0322 145.74 16.0317 145.7 16.0312 145.661C16.0291 145.503 16.0364 145.347 16.052 145.193C16.0672 145.04 16.0906 144.89 16.1245 144.744C16.1391 144.671 16.161 144.6 16.1793 144.529C16.2027 144.46 16.2215 144.389 16.2492 144.322C16.3503 144.052 16.4849 143.804 16.6538 143.594C16.8217 143.383 17.0189 143.208 17.2311 143.068C17.4434 142.929 17.6681 142.822 17.8965 142.748C17.9247 142.738 17.9528 142.727 17.981 142.719C18.0097 142.711 18.0384 142.703 18.0665 142.695C18.1234 142.68 18.1797 142.663 18.236 142.649C18.2929 142.638 18.3492 142.626 18.405 142.615C18.4331 142.609 18.4608 142.603 18.4884 142.597C18.5166 142.593 18.5453 142.589 18.5729 142.584C18.6855 142.568 18.7956 142.551 18.9035 142.535C18.9572 142.527 19.0104 142.518 19.0636 142.512C19.1163 142.506 19.1684 142.501 19.2201 142.495C19.3233 142.484 19.424 142.473 19.522 142.463C19.62 142.457 19.716 142.451 19.8088 142.445C19.8552 142.443 19.9011 142.44 19.9465 142.437C19.9919 142.437 20.0362 142.437 20.08 142.436C20.1676 142.436 20.2531 142.434 20.3355 142.435C20.4998 142.444 20.6547 142.446 20.7955 142.466C20.9383 142.478 21.0661 142.507 21.1845 142.529C21.2424 142.544 21.2976 142.559 21.3503 142.573C21.403 142.587 21.4499 142.607 21.4958 142.623C21.6768 142.69 21.803 142.769 21.8796 142.831C21.9573 142.893 21.9871 142.935 21.9949 142.932L21.9959 142.932Z" fill="#553597"/>
<path d="M34.4199 132.434C34.3876 132.417 34.3385 132.393 34.2702 132.374C34.1357 132.333 33.9245 132.286 33.6455 132.319C33.5068 132.335 33.3524 132.376 33.1975 132.451C33.0421 132.526 32.8873 132.635 32.7439 132.773C32.5999 132.911 32.4685 133.077 32.3512 133.264C32.2333 133.451 32.128 133.659 32.0362 133.882C31.8505 134.329 31.7118 134.837 31.6075 135.386C31.5038 135.936 31.4339 136.528 31.3969 137.153C31.3786 137.465 31.3677 137.785 31.3687 138.115C31.3671 138.437 31.3656 138.766 31.364 139.1C31.363 139.561 31.3614 140.035 31.3604 140.516C31.4036 140.517 31.448 140.518 31.4928 140.518C31.6216 140.519 31.7499 140.518 31.8787 140.518C31.8777 140.036 31.8761 139.561 31.8751 139.1C31.874 138.932 31.873 138.766 31.8719 138.601C31.8714 138.518 31.8709 138.436 31.8704 138.355C31.8704 138.314 31.8698 138.273 31.8693 138.232V138.202L31.8683 138.166L31.8667 138.108C31.8605 137.792 31.8651 137.479 31.8766 137.176C31.9251 135.961 32.079 134.866 32.3799 134.015C32.4549 133.803 32.541 133.608 32.6364 133.433C32.7313 133.258 32.8377 133.104 32.9524 132.976C33.0672 132.848 33.1897 132.746 33.3138 132.671C33.4379 132.595 33.5636 132.547 33.6815 132.518C33.9177 132.46 34.1169 132.47 34.2504 132.477C34.3182 132.479 34.3693 132.485 34.4053 132.485C34.4413 132.485 34.4611 132.481 34.4637 132.472C34.4663 132.463 34.4512 132.45 34.4189 132.433L34.4199 132.434Z" fill="#553597"/>
<path d="M41.0243 137.779C40.9242 137.419 40.7724 136.889 40.5649 136.21C40.3558 135.532 40.0929 134.702 39.7399 133.754C39.5631 133.279 39.3629 132.776 39.1287 132.25C38.894 131.725 38.6281 131.176 38.3084 130.619C37.9887 130.062 37.618 129.496 37.1643 128.952C36.9379 128.68 36.6882 128.416 36.4139 128.168C36.139 127.92 35.8397 127.684 35.5091 127.482C34.8531 127.072 34.0703 126.79 33.2411 126.725C32.8266 126.69 32.4083 126.701 31.9807 126.77C31.5547 126.837 31.1328 126.978 30.737 127.181C30.3433 127.388 29.9777 127.656 29.6575 127.972C29.5751 128.049 29.5005 128.134 29.4223 128.216C29.3488 128.301 29.2726 128.385 29.2038 128.475C29.0609 128.65 28.9311 128.836 28.8075 129.027C28.3142 129.792 27.9611 130.648 27.6863 131.534C27.413 132.422 27.2211 133.347 27.0866 134.29C27.0193 134.762 26.9672 135.24 26.9291 135.721C26.9108 135.954 26.8957 136.187 26.8848 136.421C27.0636 136.501 27.2243 136.629 27.363 136.761C27.3729 136.77 27.3823 136.78 27.3917 136.79C27.3948 136.684 27.399 136.577 27.4036 136.472C27.4146 136.234 27.4297 135.998 27.448 135.762C27.485 135.291 27.5351 134.825 27.5997 134.363C27.7291 133.441 27.9137 132.541 28.1739 131.684C28.4351 130.829 28.7705 130.011 29.2262 129.296C29.3404 129.118 29.4599 128.945 29.5897 128.783C29.6528 128.7 29.7216 128.624 29.7884 128.545C29.8588 128.47 29.9261 128.392 30.0001 128.322C30.2885 128.034 30.6129 127.793 30.9591 127.607C31.308 127.426 31.6783 127.297 32.0584 127.235C32.436 127.17 32.8281 127.155 33.2046 127.183L33.346 127.195L33.4857 127.213L33.5556 127.221L33.625 127.234L33.7626 127.258C33.9446 127.297 34.1245 127.339 34.2987 127.399C34.6481 127.511 34.9772 127.668 35.2838 127.852C35.5915 128.035 35.8736 128.25 36.1354 128.48C36.3966 128.71 36.6376 128.957 36.8576 129.214C37.2993 129.726 37.668 130.269 37.9898 130.806C38.3115 131.343 38.5843 131.877 38.8268 132.389C39.0687 132.902 39.2794 133.395 39.4677 133.86C39.8437 134.791 40.1336 135.607 40.3719 136.275C40.6087 136.943 40.7922 137.463 40.9242 137.813C41.0561 138.162 41.1349 138.343 41.1521 138.337C41.1693 138.332 41.1239 138.14 41.0243 137.78V137.779Z" fill="#553597"/>
<path d="M38.9269 143.228C38.6645 142.521 38.2625 141.507 37.717 140.272C37.4438 139.655 37.1345 138.983 36.7815 138.271C36.6052 137.915 36.4175 137.549 36.2162 137.175C36.0159 136.801 35.8006 136.42 35.5664 136.036C35.3317 135.651 35.0799 135.263 34.7884 134.882C34.4948 134.504 34.1641 134.116 33.6885 133.838C33.626 133.807 33.5649 133.774 33.4998 133.746L33.3986 133.708C33.3647 133.696 33.3313 133.683 33.2943 133.675C33.2218 133.658 33.1504 133.639 33.0732 133.635C33.0351 133.632 32.9976 133.626 32.959 133.627L32.8432 133.631C32.6899 133.647 32.5345 133.684 32.3989 133.753C32.3228 133.789 32.2508 133.832 32.1825 133.879C32.0333 134.445 31.8441 134.998 31.6553 135.553L31.6709 135.557C31.6777 135.536 31.6881 135.505 31.698 135.478C31.7079 135.451 31.7189 135.423 31.7293 135.395C31.7512 135.34 31.7747 135.285 31.7987 135.23C31.8477 135.122 31.9019 135.016 31.9603 134.915C32.0187 134.814 32.0824 134.717 32.1512 134.629C32.219 134.539 32.2936 134.459 32.3723 134.389C32.5293 134.247 32.7055 134.161 32.8855 134.145C33.0659 134.132 33.2573 134.183 33.4398 134.285C33.6223 134.386 33.7923 134.53 33.9514 134.683C33.9905 134.723 34.0296 134.762 34.0682 134.802C34.1073 134.842 34.1428 134.886 34.1798 134.927C34.2163 134.97 34.2538 135.01 34.2893 135.055C34.3248 135.099 34.3597 135.144 34.3946 135.188C34.6731 135.544 34.9229 135.918 35.1576 136.289C35.3917 136.661 35.6097 137.032 35.8141 137.397C36.0196 137.761 36.213 138.12 36.3961 138.468C36.7627 139.166 37.0891 139.824 37.3822 140.428C37.9678 141.636 38.4205 142.626 38.7396 143.306C39.0583 143.988 39.2424 144.362 39.2757 144.349C39.3091 144.336 39.1886 143.936 38.9269 143.228Z" fill="#553597"/>
<path d="M32.5997 147.517H16.0165C15.5143 147.517 15.1055 147.108 15.1055 146.605V146.425C15.1055 145.923 15.5341 145.67 15.787 145.601L15.9252 146.104L15.8564 145.853L15.9273 146.104C15.9148 146.107 15.627 146.195 15.627 146.425V146.605C15.627 146.82 15.8017 146.995 16.0165 146.995H32.5997C32.8146 146.995 32.9893 146.82 32.9893 146.605V146.325C32.9903 146.288 32.9767 146.168 32.9074 146.097C32.8573 146.046 32.776 146.02 32.6649 146.02V145.498C32.9882 145.498 33.1812 145.629 33.2855 145.738C33.5076 145.97 33.5118 146.278 33.5102 146.34V146.605C33.5102 147.108 33.1014 147.517 32.5992 147.517H32.5997Z" fill="#553597"/>
<g opacity="0.5">
<path d="M56.092 144.271C56.0795 144.275 56.0669 144.278 56.0544 144.282C55.9965 144.287 55.9214 144.294 55.8291 144.306C55.5924 144.336 55.2461 144.399 54.8049 144.508C54.3659 144.623 53.8329 144.792 53.241 145.058C52.9479 145.196 52.635 145.349 52.3211 145.544C52.0056 145.734 51.6813 145.954 51.3631 146.214C50.7249 146.729 50.0991 147.393 49.5661 148.201C49.2991 148.605 49.0545 149.042 48.8366 149.509C48.6175 149.974 48.4308 150.47 48.2692 150.988C47.9479 152.023 47.744 153.148 47.6559 154.319C47.6392 154.546 47.6278 154.775 47.6189 155.005C47.4671 154.897 47.2888 154.83 47.0729 154.818C46.4925 154.785 45.0381 154.931 44.2944 155.191C43.8835 155.335 43.6421 155.512 43.5351 155.747C43.4095 156.023 43.4966 156.319 43.5868 156.547C43.7359 156.923 44.0973 157.952 44.2642 158.431C44.0472 158.533 43.8736 158.646 43.7349 158.757C43.2468 159.149 43.107 159.535 43.0695 159.758C42.974 159.799 42.8833 159.844 42.7962 159.894C42.0844 160.303 42.0567 160.75 42.0567 160.815C42.0103 160.817 41.9629 160.818 41.9144 160.819C41.8388 160.825 41.7605 160.833 41.6797 160.84C41.6395 160.844 41.5984 160.848 41.5566 160.852C41.5154 160.858 41.4737 160.864 41.4315 160.87C41.347 160.883 41.2599 160.896 41.1702 160.909C41.0816 160.927 40.9908 160.946 40.898 160.964C40.8516 160.974 40.8041 160.983 40.7567 160.993C40.7092 161.002 40.6618 161.016 40.6133 161.027C40.5168 161.052 40.4182 161.076 40.3176 161.101C40.2926 161.107 40.267 161.114 40.2414 161.12C40.2159 161.128 40.1903 161.136 40.1643 161.144C40.1126 161.16 40.06 161.176 40.0073 161.193C39.9552 161.211 39.903 161.232 39.8498 161.252C39.8232 161.262 39.7966 161.272 39.77 161.283C39.7434 161.294 39.7179 161.307 39.6913 161.319C39.479 161.413 39.2694 161.54 39.0728 161.7C38.8767 161.859 38.6963 162.056 38.5503 162.286C38.4027 162.516 38.2942 162.778 38.2228 163.057C38.203 163.126 38.1915 163.197 38.1758 163.268C38.1654 163.34 38.1513 163.412 38.1451 163.485C38.1279 163.631 38.1211 163.779 38.1227 163.929C38.1237 164.073 38.1331 164.219 38.1503 164.365C37.9401 164.488 37.6872 164.743 37.7368 165.127L37.7576 165.287C37.8155 165.734 38.2254 166.05 38.6718 165.992L53.4068 164.084C53.8532 164.026 54.1693 163.615 54.1114 163.168L54.0811 162.933C54.0754 162.878 54.0358 162.604 53.812 162.424C53.7385 162.364 53.6253 162.301 53.4663 162.281L53.4522 162.172C53.4241 161.951 53.3954 161.728 53.3667 161.505C53.2561 160.646 53.144 159.776 53.0309 158.895C53.1242 158.832 53.1972 158.735 53.2301 158.62C53.2478 158.558 53.2535 158.491 53.2462 158.426C53.2421 158.383 53.2374 158.34 53.2332 158.296C53.2238 158.207 53.2144 158.117 53.205 158.025C53.1878 157.883 53.1054 157.745 52.9808 157.661C52.9193 157.619 52.8468 157.59 52.7706 157.578C52.7326 157.572 52.6935 157.57 52.6554 157.572L52.6262 157.574L52.6074 157.576L52.5709 157.581C52.4734 157.591 52.3748 157.602 52.2747 157.613C52.0896 157.634 51.8992 157.656 51.7047 157.678C51.6896 157.409 51.6813 157.141 51.6781 156.874C51.6719 156.334 51.6865 155.8 51.724 155.279C51.7981 154.235 51.955 153.235 52.1991 152.308C52.4411 151.381 52.7743 150.529 53.1784 149.784C53.5821 149.037 54.0618 148.402 54.5677 147.89C55.0725 147.375 55.6013 146.984 56.0946 146.69C56.5874 146.394 57.0437 146.191 57.4233 146.045C57.5172 146.006 57.609 145.976 57.694 145.946C57.7795 145.916 57.8582 145.885 57.9339 145.863C58.0089 145.839 58.0778 145.816 58.1414 145.796C58.2045 145.775 58.2619 145.756 58.314 145.741C58.521 145.68 58.629 145.64 58.6259 145.624C61.3553 145.037 60.7212 143.037 56.092 144.273V144.271Z" fill="#553597"/>
</g>
<path d="M34.7899 163.732L51.2876 163.788C51.2876 163.788 51.6114 163.647 51.6114 163.478C51.6114 163.308 52.0495 163.58 52.1048 164.015C52.1606 164.451 51.9212 164.775 51.0905 164.803C50.2598 164.831 34.6429 164.803 34.6429 164.803C34.6429 164.803 34.1923 164.521 34.2064 164.112C34.2205 163.703 34.6689 163.606 34.7899 163.732Z" fill="white"/>
<path d="M34.6425 163.681C34.6425 163.681 34.5012 161.884 35.7548 160.798C37.0079 159.713 39.5898 160.036 39.5898 160.036C39.5898 160.036 40.796 159.402 42.6264 159.91C44.4568 160.418 44.5272 160.389 44.9074 160.305C45.2875 160.22 47.0757 159.36 47.4423 159.106C47.8084 158.853 47.4423 157.95 47.4423 157.95H51.4838C51.4838 157.95 51.8921 157.95 51.9062 158.415C51.9203 158.881 51.8921 159.127 51.5824 159.229L51.6105 163.365C51.6105 163.365 51.695 163.789 51.2867 163.788C50.8784 163.786 34.6425 163.681 34.6425 163.681Z" fill="#EDE3FF"/>
<path d="M47.347 158.31C47.347 158.31 46.4432 154.693 46.0068 154.326C45.5703 153.959 42.8101 153.988 42.1765 154.326C41.5429 154.664 42.4017 157.71 42.4017 157.71C42.4017 157.71 43.6267 157.33 45.3309 157.788C47.0346 158.246 47.4351 158.653 47.3475 158.31H47.347Z" fill="#EDE3FF"/>
<path d="M39.7119 159.84C39.7119 159.84 39.8272 159.104 41.1423 159.007C41.1423 159.007 41.1058 158.092 42.7814 157.711C44.4569 157.331 48.1349 158.595 47.5441 158.991C46.9532 159.385 45.2308 160.492 44.4882 160.351C43.7456 160.209 41.8239 159.671 39.7119 159.84Z" fill="white"/>
<path d="M50.2077 157.972C50.2077 157.972 50.446 153.954 52.0939 150.603C53.7418 147.251 56.7617 145.748 59.8672 145.49C62.9726 145.231 62.5565 142.927 57.2556 143.632C51.9542 144.336 50.6374 145.931 48.2537 149.228C46.719 151.352 46.5771 155.271 46.5771 155.271L47.3364 157.971H50.2077V157.972Z" fill="#6F46BE"/>
<path d="M56.9587 143.631C56.6927 143.631 56.3 143.651 55.7963 143.708C55.2936 143.772 54.6798 143.883 53.9867 144.092C53.6426 144.203 53.2744 144.328 52.8989 144.498C52.5224 144.663 52.1318 144.86 51.7428 145.102C50.9621 145.582 50.1747 146.227 49.4691 147.044C49.1161 147.453 48.7828 147.902 48.4746 148.386C48.1654 148.87 47.888 149.393 47.6351 149.943C47.1313 151.043 46.7449 152.257 46.4794 153.542C46.4169 153.846 46.3611 154.154 46.3115 154.466C46.3277 154.501 46.3397 154.538 46.3449 154.579C46.3887 154.903 46.5681 155.233 46.6912 155.543C46.759 154.896 46.856 154.262 46.9795 153.644C47.2309 152.392 47.597 151.209 48.0721 150.141C48.3104 149.607 48.5722 149.1 48.8626 148.63C49.152 148.159 49.4655 147.723 49.7971 147.325C50.4599 146.528 51.1999 145.895 51.9383 145.415C52.3065 145.172 52.6768 144.971 53.0355 144.8C53.3933 144.624 53.7453 144.49 54.0759 144.37C54.7418 144.139 55.3369 144.002 55.826 143.909C56.3167 143.821 56.7021 143.769 56.9644 143.736C57.2267 143.704 57.3644 143.678 57.3639 143.661C57.3633 143.642 57.2236 143.633 56.9576 143.631L56.9587 143.631Z" fill="#553597"/>
<path d="M59.4938 145.47C59.4327 145.47 59.365 145.475 59.2899 145.481C59.2148 145.487 59.1329 145.493 59.0442 145.5C58.9551 145.506 58.8607 145.522 58.7585 145.535C58.6568 145.55 58.5478 145.562 58.4341 145.585C57.9773 145.663 57.4209 145.797 56.8019 146.036C56.1834 146.274 55.5023 146.622 54.828 147.121C54.1522 147.618 53.4863 148.267 52.8949 149.055C52.3025 149.843 51.7794 150.764 51.3539 151.782C50.9258 152.8 50.5905 153.912 50.3469 155.084C50.2244 155.67 50.1274 156.271 50.0533 156.885C50.0168 157.192 49.9855 157.501 49.9626 157.814C49.9558 157.905 49.9501 157.995 49.9443 158.086H50.4663C50.471 158.008 50.4763 157.93 50.482 157.852C50.5039 157.548 50.5336 157.245 50.5686 156.946C50.639 156.347 50.7318 155.759 50.8475 155.187C51.0786 154.042 51.3951 152.957 51.7982 151.967C52.1987 150.976 52.6894 150.081 53.2432 149.313C53.7965 148.545 54.4182 147.91 55.0518 147.416C55.6838 146.919 56.3257 146.562 56.9135 146.307C57.5012 146.05 58.0352 145.891 58.4763 145.784C58.5859 145.754 58.6917 145.734 58.7903 145.712C58.8888 145.692 58.9806 145.669 59.0677 145.655C59.1543 145.639 59.2341 145.624 59.3071 145.611C59.3801 145.597 59.4463 145.584 59.5058 145.576C59.7436 145.537 59.8687 145.508 59.8677 145.491C59.8666 145.473 59.7389 145.467 59.4953 145.471L59.4938 145.47Z" fill="#553597"/>
<path d="M47.1841 158.589C47.2978 158.637 47.4047 158.725 47.4631 158.83C47.4662 158.836 47.4693 158.841 47.4719 158.846L47.7619 158.782C47.7436 158.699 47.3097 156.746 47.0547 155.842C46.8117 154.98 46.5818 154.165 45.7641 154.013C45.1263 153.894 43.4951 153.847 42.6346 154.028C42.1596 154.128 41.867 154.289 41.7147 154.534C41.5359 154.821 41.5901 155.161 41.6574 155.426C41.8034 156.001 42.1945 157.879 42.1987 157.898L42.7092 157.792C42.693 157.714 42.3118 155.883 42.1627 155.297C42.1017 155.056 42.0996 154.901 42.157 154.809C42.2274 154.697 42.424 154.605 42.7415 154.538C43.518 154.375 45.0679 154.414 45.6676 154.525C46.1176 154.609 46.2902 155.056 46.552 155.984C46.7439 156.664 47.048 157.991 47.1835 158.589H47.1841Z" fill="#553597"/>
<path d="M46.2762 158.058C46.4186 158.147 46.5656 158.225 46.7184 158.29C46.5103 157.531 46.089 155.996 45.871 155.193C45.603 154.205 44.7415 154.02 44.3232 154.061L44.3582 154.425C44.3947 154.421 45.2635 154.349 45.519 155.289C45.7088 155.989 46.053 157.245 46.2767 158.059L46.2762 158.058Z" fill="#553597"/>
<path d="M46.1867 159.867C46.1539 159.62 45.8879 159.349 44.1775 159.044C42.1437 158.682 41.1299 158.675 40.3033 159.017C39.4398 159.375 39.3589 159.878 39.3527 159.935L39.3428 160.023C39.3647 160.026 39.3866 160.029 39.4085 160.032C39.41 160.032 39.4106 160.032 39.4121 160.032C39.4309 160.03 39.4528 160.032 39.4721 160.032C39.6296 160.026 39.7892 160.036 39.93 160.11C42.1708 159.733 43.7764 160.367 44.398 160.612C44.4309 160.625 44.4606 160.637 44.4877 160.648C44.5602 160.676 44.6411 160.69 44.7214 160.69C44.797 160.69 44.8726 160.677 44.942 160.652C45.1996 160.559 45.6663 160.387 45.9036 160.275C46.1794 160.144 46.1987 159.964 46.1862 159.867H46.1867ZM44.797 160.248C44.7506 160.264 44.689 160.264 44.6437 160.247C44.6171 160.236 44.5879 160.225 44.5561 160.212C44.0471 160.011 42.9103 159.562 41.3161 159.562C40.9177 159.562 40.4911 159.59 40.0384 159.657C40.1386 159.578 40.2773 159.494 40.4676 159.415C41.2086 159.109 42.1598 159.123 44.1024 159.469C45.1599 159.657 45.5521 159.816 45.6945 159.898C45.4556 160.007 44.991 160.178 44.797 160.248Z" fill="#553597"/>
<path d="M49.3624 159.413C49.3728 159.429 49.4239 159.42 49.5271 159.416C49.6299 159.41 49.7842 159.407 49.9829 159.407C50.1821 159.407 50.4262 159.41 50.7104 159.416C50.8522 159.419 51.0045 159.423 51.1657 159.428C51.246 159.43 51.3289 159.433 51.4144 159.435C51.4358 159.436 51.4572 159.437 51.4785 159.438L51.5109 159.439C51.5224 159.439 51.5416 159.439 51.5573 159.438C51.6225 159.434 51.6882 159.419 51.7502 159.392C51.8738 159.338 51.9802 159.235 52.0365 159.102C52.0652 159.036 52.0809 158.963 52.0824 158.89C52.084 158.842 52.085 158.794 52.0866 158.745C52.0892 158.645 52.0913 158.544 52.0939 158.441C52.0949 158.281 52.0235 158.116 51.8978 158.006C51.8358 157.95 51.7596 157.908 51.6772 157.883C51.636 157.871 51.5933 157.863 51.5505 157.861L51.5182 157.859H51.4973L51.4566 157.858C51.3477 157.856 51.2366 157.854 51.1239 157.852C50.8987 157.848 50.6671 157.844 50.4293 157.841C49.4787 157.828 48.4336 157.82 47.3369 157.82V158.343C48.4336 158.343 49.4787 158.335 50.4293 158.322C50.6671 158.318 50.8987 158.315 51.1239 158.311C51.2366 158.309 51.3477 158.307 51.4566 158.305L51.4973 158.304H51.5171H51.5255C51.5364 158.304 51.5474 158.305 51.5578 158.308C51.5787 158.312 51.599 158.322 51.6162 158.335C51.6512 158.363 51.6736 158.404 51.6767 158.449C51.6793 158.549 51.6819 158.649 51.6845 158.746C51.6861 158.795 51.6871 158.843 51.6887 158.891C51.6897 158.914 51.6871 158.937 51.6798 158.958C51.6658 159 51.6339 159.038 51.5948 159.059C51.575 159.07 51.5536 159.077 51.5312 159.08C51.5244 159.08 51.5223 159.081 51.5119 159.082L51.4791 159.083C51.4572 159.084 51.4358 159.085 51.4144 159.086C51.3284 159.089 51.2449 159.093 51.1636 159.097C51.0009 159.105 50.8475 159.114 50.7041 159.125C50.4173 159.147 50.1701 159.173 49.9683 159.206C49.7665 159.238 49.6106 159.274 49.5063 159.314C49.4015 159.353 49.354 159.4 49.3639 159.415L49.3624 159.413Z" fill="#553597"/>
<path d="M40.8455 160.59C40.8539 160.587 40.8377 160.531 40.7673 160.452C40.6974 160.373 40.5728 160.273 40.3877 160.185C40.3407 160.165 40.2922 160.14 40.2385 160.121C40.1848 160.103 40.128 160.083 40.0685 160.063C39.9475 160.032 39.8146 159.994 39.668 159.973C39.522 159.944 39.3635 159.933 39.194 159.916C39.1095 159.911 39.0219 159.909 38.9312 159.905C38.8858 159.904 38.8399 159.902 38.7935 159.901C38.7471 159.902 38.7001 159.902 38.6522 159.903C38.5567 159.905 38.4582 159.907 38.3575 159.909C38.2569 159.916 38.1541 159.923 38.0483 159.93C37.9956 159.934 37.9419 159.938 37.8877 159.942C37.8334 159.945 37.7792 159.954 37.7244 159.96C37.6144 159.973 37.5018 159.986 37.3865 159.999C37.3578 160.002 37.3286 160.006 37.2994 160.009C37.2702 160.014 37.2405 160.019 37.2108 160.024C37.1513 160.035 37.0908 160.045 37.0303 160.055C36.9699 160.068 36.9094 160.084 36.8478 160.098C36.8171 160.106 36.7863 160.114 36.755 160.121C36.7242 160.13 36.6935 160.14 36.6627 160.15C36.4145 160.223 36.1642 160.333 35.9238 160.482C35.6839 160.631 35.456 160.823 35.2615 161.057C35.0649 161.289 34.9074 161.565 34.789 161.862C34.7572 161.936 34.7342 162.013 34.7071 162.089C34.6852 162.167 34.6597 162.245 34.6419 162.325C34.6018 162.483 34.5731 162.647 34.5533 162.813C34.5335 162.98 34.5225 163.149 34.5215 163.321C34.5215 163.364 34.5215 163.407 34.5225 163.45C34.523 163.472 34.523 163.494 34.5246 163.516L34.5288 163.599C34.5345 163.67 34.5397 163.741 34.5491 163.809L34.5627 163.913C34.5658 163.93 34.5663 163.949 34.5715 163.964L34.6232 163.966C34.6925 163.969 34.7603 163.974 34.8344 163.974C34.8954 163.974 34.9564 163.974 35.0174 163.975C35.1029 163.975 35.1885 163.976 35.275 163.977C35.4476 163.978 35.6223 163.979 35.7991 163.981C36.1527 163.984 36.5136 163.986 36.8822 163.989C37.6191 163.994 38.3862 163.999 39.1799 164.004C40.7678 164.012 42.4647 164.02 44.2503 164.028C46.0359 164.033 47.9101 164.038 49.8531 164.044C50.0961 164.044 50.3402 164.045 50.5848 164.045C50.7073 164.045 50.8299 164.045 50.9529 164.045H51.0452H51.0917C51.1083 164.045 51.1177 164.046 51.1459 164.044C51.2387 164.044 51.3461 164.019 51.441 163.965C51.537 163.912 51.6147 163.831 51.6658 163.747C51.6919 163.705 51.7117 163.662 51.7284 163.619C51.7362 163.597 51.7435 163.575 51.7498 163.553C51.7529 163.542 51.7555 163.53 51.7581 163.519C51.7612 163.507 51.7628 163.499 51.7659 163.48C51.7685 163.464 51.7706 163.449 51.7722 163.434V163.411L51.7727 163.392V163.346V163.252V163.066C51.7727 162.816 51.7732 162.566 51.7738 162.315C51.7738 161.31 51.7748 160.291 51.7753 159.259H51.2538C51.2538 160.291 51.2549 161.31 51.2554 162.315C51.2554 162.566 51.2554 162.816 51.2559 163.066C51.2559 163.176 51.2559 163.287 51.2559 163.397C51.2564 163.393 51.2554 163.401 51.2544 163.404C51.2533 163.408 51.2528 163.412 51.2512 163.415C51.2491 163.423 51.2465 163.431 51.2439 163.438C51.2382 163.453 51.2319 163.467 51.2257 163.477C51.2121 163.498 51.2006 163.508 51.1887 163.515C51.1761 163.521 51.1605 163.529 51.1297 163.529C51.1271 163.53 51.1052 163.529 51.0917 163.53H51.0452H50.9529C50.8299 163.53 50.7073 163.53 50.5848 163.53C50.3397 163.53 50.0956 163.531 49.8531 163.531C47.9101 163.537 46.0359 163.542 44.2503 163.546C42.4647 163.555 40.7683 163.563 39.1799 163.57C38.3857 163.576 37.6191 163.581 36.8822 163.586C36.1955 163.591 35.5363 163.597 34.9074 163.602H34.898C34.898 163.602 34.897 163.597 34.8964 163.594L34.8938 163.576L34.8897 163.539L34.887 163.497C34.8855 163.478 34.8855 163.458 34.8844 163.438C34.8824 163.398 34.8818 163.358 34.8813 163.319C34.8792 163.161 34.8865 163.005 34.9022 162.851C34.9178 162.698 34.9408 162.548 34.9747 162.402C34.9893 162.329 35.0112 162.258 35.0294 162.187C35.0529 162.118 35.0717 162.047 35.0993 161.98C35.2005 161.71 35.335 161.462 35.504 161.253C35.6719 161.042 35.869 160.866 36.0812 160.727C36.2935 160.587 36.5182 160.48 36.7467 160.406C36.7748 160.396 36.803 160.386 36.8311 160.377C36.8598 160.369 36.8885 160.361 36.9167 160.353C36.9735 160.338 37.0298 160.321 37.0861 160.307C37.143 160.296 37.1993 160.284 37.2551 160.273C37.2833 160.267 37.3109 160.261 37.3385 160.256C37.3667 160.251 37.3954 160.247 37.423 160.243C37.5357 160.226 37.6457 160.209 37.7536 160.193C37.8074 160.186 37.8605 160.176 37.9137 160.17C37.9664 160.164 38.0186 160.159 38.0702 160.153C38.1734 160.142 38.2741 160.131 38.3721 160.121C38.4702 160.115 38.5661 160.109 38.6589 160.104C38.7054 160.101 38.7512 160.098 38.7966 160.095C38.842 160.095 38.8863 160.095 38.9301 160.094C39.0177 160.094 39.1032 160.092 39.1856 160.093C39.3499 160.102 39.5048 160.104 39.6456 160.125C39.7885 160.137 39.9162 160.165 40.0346 160.187C40.0925 160.202 40.1478 160.217 40.1999 160.231C40.2526 160.245 40.2995 160.265 40.3454 160.281C40.5264 160.349 40.6526 160.427 40.7292 160.49C40.8069 160.552 40.8367 160.594 40.8445 160.59L40.8455 160.59Z" fill="#553597"/>
<path d="M51.4503 165.177H34.8671C34.3649 165.177 33.9561 164.767 33.9561 164.264V164.085C33.9561 163.582 34.3847 163.33 34.6376 163.26L34.7758 163.763L34.707 163.512L34.7779 163.763C34.7654 163.767 34.4775 163.854 34.4775 164.085V164.264C34.4775 164.479 34.6522 164.654 34.8671 164.654H51.4503C51.6651 164.654 51.8398 164.479 51.8398 164.264V163.984C51.8409 163.947 51.8273 163.827 51.758 163.756C51.7079 163.705 51.6266 163.679 51.516 163.679V163.157C51.8393 163.157 52.0323 163.288 52.1366 163.397C52.3587 163.629 52.3629 163.937 52.3613 163.999V164.264C52.3613 164.767 51.9525 165.177 51.4503 165.177Z" fill="#553597"/>
<path d="M46.1663 160.113C45.9541 160.113 45.7617 160.043 45.6548 159.982L45.9134 159.528C45.963 159.557 46.1945 159.647 46.3442 159.539C46.4745 159.445 46.6706 159.339 46.8604 159.238C47.0231 159.151 47.1916 159.06 47.2907 158.992C47.3157 158.974 47.3303 158.959 47.3376 158.95C47.3089 158.897 47.0956 158.61 45.7007 158.244C44.0027 157.799 42.6088 157.833 41.7765 158.34C41.1507 158.722 41.1079 159.123 41.1064 159.139V159.134L40.5859 159.111C40.5891 159.042 40.6402 158.422 41.5053 157.894C42.1806 157.483 43.4791 157.122 45.8331 157.739C47.1546 158.086 47.7783 158.434 47.8549 158.868C47.8919 159.076 47.7944 159.277 47.5884 159.42C47.4643 159.506 47.2907 159.6 47.1066 159.699C46.9319 159.792 46.7514 159.889 46.6492 159.962C46.4954 160.074 46.3249 160.113 46.1658 160.113H46.1663Z" fill="#553597"/>
<path d="M78.5121 127.145C78.5121 127.145 78.1356 126.069 79.3168 124.971C80.498 123.874 81.19 124.055 81.8924 126.506C82.5948 128.957 84.8617 134.669 84.8617 134.669L88.6123 143.404C88.6123 143.404 92.7591 143.579 94.5681 144.538C96.3777 145.497 96.1008 146.915 95.377 147.096C94.6531 147.277 86.9904 147.16 86.2984 146.936C85.6064 146.712 84.8404 145.071 84.8404 145.071L78.5121 127.144V127.145Z" fill="#A78ED7"/>
<path d="M91.8335 146.318C91.8205 146.422 91.7949 146.528 91.7517 146.632C91.7084 146.735 91.6458 146.834 91.5676 146.921C91.4101 147.095 91.1968 147.206 90.9788 147.263C90.8693 147.292 90.7577 147.311 90.6352 147.312C90.535 147.313 90.4339 147.314 90.3317 147.316C90.1272 147.318 89.9192 147.321 89.7074 147.323C89.284 147.327 88.8465 147.332 88.3954 147.336C88.1696 147.338 87.9407 147.34 87.7086 147.342C87.5928 147.343 87.476 147.344 87.3582 147.345C87.2367 147.343 87.1162 147.345 86.9895 147.336L86.8956 147.332C86.8638 147.329 86.8315 147.325 86.7991 147.322C86.7345 147.314 86.6703 147.31 86.6036 147.296C86.5368 147.281 86.4711 147.273 86.4033 147.25C86.336 147.229 86.2683 147.211 86.202 147.179L86.1024 147.135C86.0701 147.118 86.0393 147.097 86.008 147.079C85.9773 147.059 85.9449 147.041 85.9152 147.019L85.8302 146.951C85.8031 146.927 85.7718 146.907 85.7478 146.88L85.6738 146.804C85.6216 146.754 85.5804 146.7 85.5371 146.646C85.5157 146.619 85.4938 146.592 85.4735 146.564L85.4167 146.481C85.3791 146.425 85.3395 146.37 85.3072 146.313C85.2733 146.256 85.2394 146.199 85.2055 146.142C85.1742 146.085 85.1429 146.027 85.1116 145.969C85.0475 145.854 84.9932 145.737 84.9327 145.62C84.8764 145.503 84.8201 145.385 84.7632 145.267C84.708 145.149 84.6527 145.03 84.5974 144.911C84.5453 144.788 84.4926 144.665 84.4404 144.54C84.4144 144.479 84.3883 144.417 84.3622 144.354C84.3377 144.292 84.3137 144.23 84.2892 144.168C84.2407 144.043 84.1917 143.919 84.1427 143.793C84.0436 143.543 83.9508 143.289 83.8548 143.034C83.7594 142.779 83.6619 142.523 83.568 142.264C83.0825 140.94 82.6231 139.652 82.1923 138.424C82.074 138.086 81.9577 137.754 81.8435 137.426C81.7246 137.084 81.6072 136.746 81.493 136.415C80.8704 134.613 80.3218 132.985 79.8696 131.615C79.417 130.246 79.0608 129.134 78.8267 128.361C78.592 127.589 78.4788 127.156 78.5127 127.145C78.5472 127.133 78.725 127.543 79.0181 128.295C79.3116 129.047 79.7205 130.14 80.2175 131.494C80.7144 132.848 81.299 134.462 81.9462 136.255C81.9707 136.323 81.9952 136.391 82.0202 136.459C82.1355 136.779 82.2528 137.105 82.3722 137.436C82.9 138.9 83.4632 140.464 84.0577 142.084C84.151 142.342 84.2475 142.597 84.3424 142.851C84.4373 143.104 84.5296 143.358 84.6266 143.606C84.6746 143.73 84.7226 143.854 84.77 143.978C84.794 144.039 84.8175 144.101 84.8415 144.162C84.8665 144.222 84.891 144.281 84.916 144.342C84.9656 144.461 85.0146 144.579 85.0641 144.697C85.1184 144.816 85.1721 144.933 85.2258 145.051C85.2806 145.167 85.3348 145.282 85.3896 145.397C85.4459 145.509 85.4991 145.625 85.558 145.732C85.5867 145.786 85.6153 145.841 85.6446 145.895C85.6748 145.947 85.7051 145.999 85.7353 146.051C85.7645 146.104 85.7979 146.15 85.8297 146.199L85.8777 146.272C85.8943 146.295 85.9121 146.316 85.9293 146.338C86.0654 146.516 86.2166 146.65 86.3971 146.729C86.5775 146.81 86.7939 146.841 87.0181 146.856C87.1292 146.865 87.2455 146.865 87.3592 146.868C87.4765 146.869 87.5928 146.87 87.7086 146.871C87.9407 146.873 88.1696 146.875 88.3954 146.877C88.8465 146.881 89.284 146.886 89.7074 146.89C89.9192 146.892 90.1272 146.895 90.3317 146.897C90.4339 146.899 90.535 146.9 90.6352 146.901C90.7134 146.904 90.7994 146.891 90.8803 146.873C91.0424 146.834 91.1853 146.761 91.2855 146.657C91.3856 146.554 91.4445 146.418 91.4685 146.268C91.4894 146.118 91.4841 145.954 91.4508 145.813C91.419 145.669 91.3543 145.542 91.2693 145.431C91.0956 145.211 90.8406 145.068 90.5882 144.973C90.3343 144.878 90.0803 144.821 89.8441 144.783C89.6073 144.745 89.3873 144.724 89.1891 144.709C88.7912 144.682 88.4793 144.678 88.2676 144.672C88.0559 144.666 87.9438 144.659 87.9422 144.64C87.9422 144.622 88.0517 144.595 88.2624 144.567C88.4741 144.539 88.7875 144.51 89.1953 144.506C89.3992 144.505 89.6271 144.512 89.8764 144.537C90.1257 144.562 90.3979 144.606 90.6847 144.698C90.8281 144.744 90.9752 144.804 91.1196 144.888C91.2636 144.971 91.4049 145.079 91.5259 145.22C91.6448 145.361 91.7412 145.536 91.7903 145.726C91.8174 145.82 91.8309 145.918 91.8393 146.016C91.8466 146.113 91.845 146.215 91.8335 146.318Z" fill="#553597"/>
<path d="M96.3306 145.941L96.3165 145.842C96.3102 145.807 96.2993 145.768 96.2904 145.731C96.2821 145.692 96.2659 145.66 96.2529 145.625L96.232 145.573C96.2242 145.557 96.2153 145.542 96.207 145.526C96.1423 145.397 96.0573 145.296 95.9728 145.196C95.7976 145.007 95.6036 144.861 95.4075 144.732C95.0128 144.478 94.605 144.298 94.206 144.149C93.4066 143.852 92.6369 143.685 91.9334 143.56C91.2289 143.44 90.5869 143.372 90.0232 143.331C89.459 143.291 88.9729 143.273 88.5756 143.273C87.7808 143.27 87.3428 143.308 87.3428 143.341C87.3428 143.38 87.7798 143.411 88.5667 143.476C88.9599 143.507 89.4402 143.554 89.995 143.621C90.5494 143.69 91.1793 143.782 91.8651 143.923C92.5493 144.067 93.2955 144.253 94.0512 144.553C94.4271 144.703 94.8073 144.883 95.1551 145.115C95.492 145.347 95.8362 145.648 95.8534 145.995C95.8633 146.095 95.8638 146.193 95.8492 146.283C95.8346 146.372 95.8054 146.452 95.7611 146.521C95.7178 146.59 95.6552 146.645 95.5796 146.693C95.5024 146.739 95.4117 146.776 95.3116 146.801C95.212 146.826 95.1045 146.841 94.9935 146.847C94.9377 146.85 94.8819 146.852 94.8235 146.851C94.7614 146.851 94.6994 146.851 94.6368 146.85C94.387 146.849 94.1346 146.848 93.8801 146.847C93.017 146.845 92.1279 146.844 91.22 146.842C91.2111 146.852 91.2023 146.861 91.1924 146.869C91.0484 146.995 90.8936 147.097 90.7293 147.174V147.363C91.8088 147.362 92.8627 147.36 93.8801 147.358C94.1346 147.357 94.387 147.356 94.6368 147.355C94.6994 147.355 94.7619 147.355 94.824 147.355C94.8897 147.355 94.958 147.353 95.0258 147.347C95.1619 147.338 95.2991 147.319 95.4362 147.282C95.5734 147.247 95.711 147.192 95.8404 147.112C95.9686 147.03 96.0891 146.92 96.1731 146.784C96.2581 146.65 96.3076 146.5 96.3285 146.356C96.3499 146.211 96.3457 146.072 96.3306 145.939V145.941Z" fill="#553597"/>
<path d="M88.8851 143.365L88.3032 143.449C86.2861 138.994 84.6037 134.857 83.4403 131.661C83.336 131.375 83.2364 131.097 83.141 130.827C83.1248 130.781 83.1092 130.735 83.093 130.689C82.9684 130.326 82.8484 129.98 82.7353 129.65C82.608 129.277 82.499 128.922 82.3921 128.592C82.3395 128.427 82.2889 128.267 82.2399 128.113C82.1919 127.96 82.1507 127.81 82.1084 127.667C82.0266 127.381 81.952 127.12 81.8847 126.885C81.8159 126.651 81.7695 126.438 81.7246 126.255C81.6813 126.072 81.6459 125.917 81.6188 125.791C81.5651 125.539 81.5452 125.405 81.563 125.401C81.5802 125.396 81.6339 125.521 81.7205 125.763C81.7632 125.884 81.8148 126.034 81.8738 126.213C81.9343 126.39 81.9953 126.597 82.0792 126.826C82.159 127.055 82.2477 127.311 82.3452 127.591C82.3937 127.731 82.4417 127.877 82.4964 128.028C82.5517 128.179 82.6091 128.336 82.668 128.498C82.7879 128.823 82.9094 129.172 83.0476 129.538C83.105 129.689 83.1634 129.844 83.2229 130.002C83.3084 130.228 83.3965 130.46 83.4872 130.7C83.517 130.777 83.5472 130.855 83.578 130.934C84.8243 134.16 86.747 138.642 88.8851 143.365Z" fill="#553597"/>
</g>
<defs>
<clipPath id="clip0_266_1464">
<rect width="122.883" height="165.999" fill="white" transform="translate(0.0585938)"/>
</clipPath>
</defs>
</svg>
