<svg width="130" height="110" viewBox="0 0 130 110" fill="none" xmlns="http://www.w3.org/2000/svg">
<g clip-path="url(#clip0_126_6250)">
<mask id="mask0_126_6250" style="mask-type:luminance" maskUnits="userSpaceOnUse" x="0" y="0" width="110" height="110">
<path d="M109.406 0.741699H0V109.258H109.406V0.741699Z" fill="white"/>
</mask>
<g mask="url(#mask0_126_6250)">
<path d="M69.9852 13.5885C63.3452 3.2065 38.8011 -3.05626 28.9672 3.4455C19.1333 9.94727 23.675 24.6859 17.4384 28.5091C11.2018 32.3382 -3.13697 45.0843 0.617452 60.2699C5.90961 81.699 0.359482 91.603 8.36662 98.6767C19.8954 108.863 32.7468 100.5 48.4401 104.902C64.1267 109.304 87.9086 112.982 97.7745 101.977C105.145 93.7523 102.222 82.7799 107.035 71.94C112.894 58.7352 107.792 45.7258 92.8604 43.2419C77.9293 40.7579 76.2227 23.3466 69.9852 13.5877V13.5885Z" fill="#EDE3FF"/>
</g>
<mask id="mask1_126_6250" style="mask-type:luminance" maskUnits="userSpaceOnUse" x="2" y="2" width="103" height="99">
<path d="M104.449 2.83838H2.85742V100.453H104.449V2.83838Z" fill="white"/>
</mask>
<g mask="url(#mask1_126_6250)">
<path d="M73.2061 83.346C73.2061 83.346 78.5713 83.0818 85.4172 78.4317C92.263 73.7816 98.5618 62.4285 98.5618 62.4285L101.848 56.5473L104.039 54.9061C104.039 54.9061 104.724 53.675 103.491 54.496C102.258 55.317 101.711 55.8638 101.3 55.5904C100.889 55.317 103.354 52.5815 103.354 52.5815C103.354 52.5815 104.039 51.4871 103.08 51.7605C102.788 51.4016 102.943 50.8028 102.258 51.3504C101.573 51.898 98.8349 54.6327 98.8349 54.6327C98.8349 54.6327 99.2458 51.7605 98.561 51.6238C98.561 51.6238 97.7392 53.2649 97.1922 55.8638C95.8233 57.7784 91.1673 63.6604 88.5666 65.0282C85.9659 66.3959 84.4592 66.2593 82.4056 65.0282C80.3519 63.7971 79.5301 62.7027 79.5301 62.7027C79.5301 62.7027 76.5176 65.8483 75.9698 67.4895C75.4219 69.1307 73.5052 73.7816 73.3682 76.5172C73.2313 79.2527 73.2061 83.3468 73.2061 83.3468V83.346Z" fill="#EDE3FF"/>
<path d="M30.9227 79.6628C31.1891 81.169 35.8519 86.0916 40.2331 87.7328C44.4775 88.8272 47.4899 89.6473 53.5148 87.7328C59.5397 85.8182 66.5225 77.8849 66.5225 77.8849L69.5349 74.876L72.6844 71.3194C72.6844 71.3194 80.0781 61.3349 81.7209 60.7873L84.4594 61.745C84.4594 61.745 85.6912 61.8817 84.7333 61.1982C83.7754 60.5148 82.2687 59.9672 82.2687 59.9672L86.2391 60.3772C86.2391 60.3772 88.0188 59.8305 86.1021 59.4195C86.1021 59.1462 87.0609 58.8728 85.8282 58.1885C84.1854 57.9151 81.5839 57.6417 81.5839 57.6417L84.3224 55.7271C84.3224 55.7271 85.2812 54.7694 83.7745 55.317C82.2679 55.8647 80.6251 56.5481 80.6251 56.5481C80.6251 56.5481 81.4469 54.7703 80.6251 54.2227C80.2142 54.496 79.2563 56.2739 79.1193 57.3683C78.1605 58.0518 71.7256 61.745 70.9038 62.4293C70.082 63.1136 65.1528 66.5327 62.6883 67.627C60.2237 68.7214 58.17 69.2682 56.6634 69.1315C55.1567 68.9948 52.4308 69.1214 50.7133 65.4341C48.1747 65.3024 43.1086 65.4391 39.4113 68.1747C35.7141 70.9102 31.1958 77.2023 30.9219 79.6636L30.9227 79.6628Z" fill="#EDE3FF"/>
<path d="M65.838 46.6991C64.0582 47.5201 62.0046 48.7504 58.1703 47.5201C54.3361 46.2899 51.7354 41.6389 51.7354 41.6389C51.7354 41.6389 56.2502 41.7513 57.2124 42.3224L59.8139 34.2524C59.8139 34.2524 57.7602 33.2947 58.9921 31.6536C60.224 30.0124 61.3197 31.6536 61.5937 32.4746C61.8676 33.2956 63.5104 32.2012 65.017 30.0124C66.5236 27.8236 66.9337 25.3623 66.9337 25.3623C66.9337 25.3623 69.1243 28.0979 69.6722 30.4233C70.494 31.2443 70.357 30.9701 71.178 30.9701C71.999 30.9701 71.8351 31.9345 71.452 32.2012C71.0688 32.4679 70.2201 32.0645 70.2201 32.0645C70.2201 32.0645 70.631 35.2101 69.6722 36.1678C68.7134 37.1255 68.0294 37.6723 65.9758 37.3989C63.9221 37.1255 64.7439 41.0922 64.7439 41.0922L63.9221 44.5112L65.8388 46.7L65.838 46.6991Z" fill="#EDE3FF"/>
<path d="M76.1895 66.8319C76.1895 66.8319 74.1265 71.4124 73.54 76.1128C72.9535 80.8191 73.2056 83.3459 73.2056 83.3459C73.2056 83.3459 68.7209 83.8817 66.8857 83.2511C66.8857 83.2511 69.2764 77.681 69.5159 74.8834L71.7359 72.5839L76.1886 66.8311L76.1895 66.8319Z" fill="white"/>
<path d="M65.8071 46.4933C65.6373 46.7138 65.4197 46.8924 65.1701 47.0166C63.8148 47.6086 62.1308 48.1378 60.6292 48.0749C58.573 47.9927 56.9647 47.0224 55.3244 45.819C54.4539 45.1825 53.6842 44.5334 53.0288 43.6831C52.591 43.1313 52.2557 42.5065 52.0389 41.8364C50.3104 41.7794 48.2231 41.7861 45.8703 41.9438C39.1841 42.3849 29.6603 48.6854 26.8218 59.8381C23.9833 70.9908 30.1964 78.8662 30.1964 78.8662C30.6695 76.4728 32.7509 72.1875 37.5447 68.5957C42.3386 65.004 50.7146 65.4325 50.7146 65.4325C52.3423 69.452 55.874 69.2004 59.1789 69.0109C62.4837 68.8213 70.5009 62.7104 70.5009 62.7104L76.5242 58.898C75.4082 56.9516 68.2994 49.1886 65.8079 46.4924L65.8071 46.4933Z" fill="white"/>
<path d="M67.573 31.1697C68.3436 31.0709 68.9326 30.7137 68.8886 30.372C68.8446 30.0302 68.1843 29.8332 67.4137 29.932C66.6432 30.0308 66.0542 30.3879 66.0982 30.7297C66.1422 31.0715 66.8025 31.2684 67.573 31.1697Z" fill="white"/>
<path d="M66.6147 33.3745L68.3684 35.17C68.3684 35.17 67.3466 35.7059 66.6341 34.9813C65.9215 34.2567 66.6156 33.3745 66.6156 33.3745H66.6147Z" fill="white"/>
<path d="M67.5666 35.5484C67.1641 35.5577 66.7768 35.4 66.4944 35.114C65.8381 34.4465 66.1919 33.6079 66.4633 33.2557C66.4953 33.2112 66.5474 33.1852 66.602 33.1861C66.6566 33.1819 66.7104 33.2028 66.7473 33.2431L68.501 35.0386C68.5456 35.0805 68.5649 35.1426 68.5514 35.2029C68.5397 35.2616 68.5027 35.3128 68.4506 35.3413C68.1758 35.4763 67.8742 35.5476 67.5675 35.5484H67.5666ZM66.6457 33.6767C66.507 33.9417 66.3558 34.4264 66.7658 34.849C67.0179 35.1031 67.3776 35.2197 67.7305 35.1635C67.833 35.1509 67.9347 35.13 68.033 35.1006L66.6457 33.6767Z" fill="#553597"/>
<path d="M75.3887 64.1038C76.3364 64.1038 77.1046 63.3281 77.1046 62.3712C77.1046 61.4144 76.3364 60.6387 75.3887 60.6387C74.4411 60.6387 73.6729 61.4144 73.6729 62.3712C73.6729 63.3281 74.4411 64.1038 75.3887 64.1038Z" fill="white"/>
<path d="M75.3885 62.7934C75.6219 62.7934 75.8112 62.6045 75.8112 62.3715C75.8112 62.1386 75.6219 61.9497 75.3885 61.9497C75.1551 61.9497 74.9658 62.1386 74.9658 62.3715C74.9658 62.6045 75.1551 62.7934 75.3885 62.7934Z" fill="#553597"/>
<path d="M75.3881 62.982C75.0503 62.982 74.7764 62.7086 74.7764 62.3706C74.7764 62.0327 75.0503 61.7593 75.3881 61.7593C75.7259 61.7593 75.9998 62.0327 75.9998 62.3706C75.9973 62.7078 75.7251 62.9795 75.3881 62.982ZM75.3881 62.1316C75.2604 62.1333 75.157 62.2364 75.1545 62.3639C75.1545 62.4922 75.2587 62.5962 75.3873 62.5962C75.5158 62.5962 75.6209 62.4922 75.6209 62.3631C75.6209 62.2339 75.5167 62.1299 75.3873 62.1299L75.3881 62.1316Z" fill="#553597"/>
<path d="M75.4137 62.1062C75.3078 62.1028 75.2238 62.0165 75.2246 61.9108L75.2498 61.2366C75.2515 61.1342 75.3355 61.0521 75.438 61.0537C75.4406 61.0537 75.4431 61.0537 75.4448 61.0537C75.5481 61.0596 75.6288 61.146 75.628 61.2491L75.6027 61.9234C75.5977 62.0248 75.5145 62.1045 75.4137 62.1062Z" fill="#553597"/>
<path d="M56.3581 95.3559C56.3169 95.3559 56.2775 95.3425 56.2447 95.3182C53.7272 93.3298 51.3206 91.2056 49.035 88.9548C48.9585 88.8852 48.9526 88.7669 49.0224 88.6906C49.0921 88.6143 49.2106 88.6084 49.2871 88.678C49.2887 88.6797 49.2913 88.6822 49.293 88.6839C51.5693 90.9247 53.965 93.0405 56.4707 95.0221C56.5522 95.0867 56.5665 95.205 56.5027 95.2872C56.4682 95.3316 56.4144 95.3576 56.3573 95.3568L56.3581 95.3559Z" fill="#553597"/>
<path d="M26.3983 62.0744C19.1516 52.1066 14.3073 43.7767 16.5526 42.1514C20.8918 39.0134 30.8644 51.2496 30.8644 51.2496C30.8644 51.2496 28.3099 55.1558 27.8368 56.3466C27.2881 57.7144 26.3991 62.0744 26.3991 62.0744H26.3983Z" fill="#553597"/>
<path d="M26.3985 62.2643C26.3388 62.2659 26.2817 62.2374 26.2472 62.1888C22.8726 57.5512 20.2677 53.6073 18.5081 50.4759C16.5217 46.9411 15.6259 44.4395 15.8461 43.06C15.8923 42.6399 16.1091 42.2575 16.4452 42.0017C17.4922 41.2453 18.9232 41.2704 20.703 42.0772C22.0844 42.707 23.686 43.8223 25.4649 45.3788C28.4799 48.0255 30.9898 51.0998 31.015 51.125C31.0663 51.1879 31.0713 51.2768 31.0276 51.3455C31.0024 51.3833 28.4799 55.2518 28.0127 56.4116C27.4765 57.7534 26.5934 62.063 26.5875 62.1074C26.5758 62.1821 26.5169 62.2408 26.4422 62.2525C26.4295 62.2617 26.4136 62.2659 26.3985 62.2651V62.2643ZM18.2241 41.8306C17.6661 41.8164 17.12 41.9849 16.6662 42.3095C16.4133 42.5091 16.2519 42.8026 16.2183 43.1221C15.9469 44.8421 17.4796 49.4477 26.3035 61.621C26.543 60.4872 27.2051 57.412 27.6589 56.2782C28.0942 55.188 30.1949 51.9367 30.6302 51.2625C28.9563 49.27 27.1438 47.3982 25.2061 45.6614C23.0743 43.7905 20.3366 41.8306 18.2233 41.8306H18.2241Z" fill="#553597"/>
<path d="M66.5075 31.296C66.7251 31.3563 66.9503 31.3865 67.1764 31.384C67.3159 31.3832 67.4545 31.3723 67.5932 31.3522C67.6116 31.3522 67.6368 31.3454 67.6562 31.3454H67.6814C67.694 31.3463 67.7074 31.3446 67.7192 31.3387C67.7856 31.3287 67.8503 31.3136 67.915 31.2943C68.5208 31.1559 68.9494 30.8658 69.0502 30.5387V30.532C69.0553 30.5202 69.0578 30.5068 69.0561 30.4942C69.0637 30.4523 69.0679 30.4104 69.0687 30.3685C69.0595 30.2049 68.9662 30.0573 68.8225 29.9777C68.583 29.8016 68.1788 29.7068 67.6999 29.7194C67.5923 29.7219 67.4848 29.7303 67.378 29.7445C67.0142 29.7848 66.6621 29.898 66.3436 30.0783C66.0285 30.267 65.8706 30.5068 65.9025 30.7525C65.9344 30.9983 66.1554 31.1869 66.5083 31.2943L66.5075 31.296ZM66.5453 30.4079C66.8108 30.2603 67.1016 30.1664 67.4032 30.1303C67.3142 30.4129 67.3142 30.7165 67.4032 30.9999C67.1369 31.0259 66.868 31.005 66.6092 30.937C66.4201 30.88 66.2941 30.792 66.2806 30.7098C66.2739 30.6276 66.3756 30.5085 66.5453 30.407V30.4079Z" fill="#553597"/>
<path d="M60.736 32.8396L59.9856 32.0329C60.0646 31.9565 60.1562 31.8953 60.257 31.85C60.3545 31.8131 60.4024 31.7041 60.3654 31.6077C60.3654 31.6068 60.3646 31.6052 60.3637 31.6043C60.3234 31.5079 60.215 31.4609 60.1175 31.497C59.7646 31.6353 59.1403 32.1645 59.342 33.1599C59.3579 33.248 59.4352 33.3126 59.5251 33.3109C59.5361 33.3126 59.547 33.3109 59.5562 33.3042C59.6579 33.2866 59.726 33.1901 59.7083 33.0878C59.7083 33.0861 59.7083 33.0845 59.7075 33.0836C59.6478 32.8379 59.6671 32.5796 59.7646 32.3465L60.4587 33.0903C60.4931 33.1314 60.5444 33.1541 60.5973 33.1532C60.6444 33.1516 60.6889 33.134 60.7234 33.1029C60.7999 33.0367 60.8083 32.9209 60.7419 32.8455C60.7402 32.8438 60.7385 32.8413 60.7368 32.8396H60.736Z" fill="#553597"/>
<path d="M66.1154 25.2467C66.0322 25.2475 65.9575 25.1939 65.9322 25.1142C65.0995 22.3099 60.5964 22.039 60.5519 22.0331C60.4477 22.0264 60.3687 21.9359 60.3754 21.8319C60.3821 21.7279 60.4729 21.6482 60.5771 21.6558C61.4274 21.7195 62.2661 21.8889 63.0744 22.1598C64.8088 22.746 65.9188 23.7288 66.3037 25.001C66.3347 25.0966 66.2826 25.1997 66.1869 25.2308C66.1835 25.2316 66.181 25.2325 66.1776 25.2333C66.1583 25.2434 66.1364 25.2475 66.1146 25.2467H66.1154Z" fill="#EDE3FF"/>
<path d="M7.49569 24.686C7.41335 24.686 7.34108 24.6323 7.31923 24.5535C6.59994 22.3731 6.30332 20.2497 6.43609 18.2345C6.5386 16.6479 6.92261 15.0922 7.57132 13.6406C8.67546 11.196 10.151 9.94232 10.214 9.8853C10.2939 9.81905 10.4132 9.83079 10.4787 9.91046C10.5451 9.99012 10.5333 10.1092 10.4535 10.1755C10.1393 10.4581 9.84767 10.7658 9.58298 11.0954C8.9057 11.9223 8.34187 12.8355 7.90576 13.8108C7.27638 15.218 6.90413 16.7267 6.80834 18.2656C6.68229 20.2254 6.97303 22.2976 7.673 24.4277C7.70661 24.5258 7.65367 24.6331 7.55535 24.6667C7.55535 24.6667 7.55367 24.6667 7.55283 24.6667C7.54023 24.686 7.51502 24.686 7.49653 24.686H7.49569Z" fill="#EDE3FF"/>
<path d="M54.3648 35.9585H54.3144C51.091 35.9333 48.5114 34.3769 46.014 32.8774C42.3369 30.666 38.5396 28.3724 32.4282 30.5964C32.3357 30.6333 32.2307 30.5888 32.1937 30.4966C32.192 30.4924 32.1904 30.4874 32.1887 30.4823C32.1526 30.3867 32.2013 30.2802 32.2971 30.245C32.2988 30.245 32.3004 30.2442 32.3021 30.2433C38.5783 27.9623 42.457 30.3004 46.2098 32.5562C48.7769 34.1001 51.1986 35.5618 54.3144 35.587H54.3581C56.9445 35.587 58.1613 33.8167 58.1739 33.8041C58.2302 33.7152 58.3478 33.6892 58.4369 33.7454C58.5259 33.8016 58.552 33.919 58.4957 34.0079C58.4932 34.0112 58.4915 34.0146 58.489 34.0179C58.4394 34.0875 57.1588 35.9585 54.364 35.9585H54.3648Z" fill="#EDE3FF"/>
<path d="M100.895 56.3603L99.4571 56.0013C99.5067 55.8185 99.5193 55.6282 99.495 55.4403C99.4815 55.3372 99.3874 55.265 99.284 55.2785C99.1807 55.2919 99.1084 55.3866 99.1219 55.489C99.1219 55.4915 99.1219 55.494 99.1227 55.4973C99.1513 55.7858 99.0731 56.0751 98.9017 56.31C98.6874 56.5875 98.3278 56.7569 97.8354 56.814C97.7312 56.8274 97.6581 56.923 97.6715 57.027C97.6841 57.1217 97.7648 57.1922 97.8606 57.1922H97.8799C98.479 57.1226 98.9269 56.902 99.2042 56.5372C99.2479 56.4802 99.2857 56.419 99.3176 56.3544L100.807 56.7259C100.821 56.7309 100.836 56.7335 100.851 56.7326C100.938 56.7309 101.013 56.6714 101.034 56.5875C101.059 56.4869 100.997 56.3854 100.896 56.3611C100.896 56.3611 100.896 56.3611 100.895 56.3611V56.3603Z" fill="#553597"/>
<path d="M104.415 54.2813C104.373 54.1907 104.295 54.122 104.2 54.0926C103.91 54.0046 103.456 54.2939 102.736 54.7727C102.384 55.005 101.677 55.478 101.463 55.4654C101.507 55.239 102.05 54.5832 102.41 54.1421C103.293 53.0645 103.861 52.3215 103.746 51.8359C103.725 51.6799 103.618 51.5483 103.469 51.4954C103.363 51.4652 103.251 51.4694 103.147 51.508C103.157 51.4669 103.162 51.4241 103.16 51.3822C103.158 51.2875 103.12 51.1969 103.052 51.1306C102.605 50.7147 102.031 51.269 100.984 52.2837C100.769 52.4917 100.53 52.7307 100.264 52.9764C99.987 53.2347 99.4131 53.789 99.0409 54.148C99.2493 52.8875 99.1921 52.0246 98.8762 51.6338C98.7829 51.503 98.6333 51.4241 98.4728 51.42C98.2207 51.42 98.1258 51.6665 97.6342 53.5811C97.4132 54.4381 97.1863 55.3329 96.9905 55.7992C96.7948 56.278 95.1234 58.5591 92.9857 60.846C91.4715 62.4653 88.6145 65.2504 86.5331 65.704C85.3979 65.9506 84.2055 65.7795 83.0005 65.1875C81.9603 64.6834 80.8813 63.8515 79.7898 62.7236C81.3477 61.0288 81.751 60.9718 81.8266 60.9785C82.0981 61.0162 82.5459 61.2309 82.9812 61.4322C83.8643 61.8481 84.7853 62.2766 85.1702 61.8037C85.2517 61.7081 85.2777 61.5764 85.2399 61.4573C85.1324 61.0732 84.3063 60.6447 83.524 60.3235C84.4383 60.399 85.5231 60.4879 85.7819 60.5063C85.9079 60.5189 86.0214 60.5256 86.1289 60.5256C86.5449 60.5256 86.8356 60.4376 86.9801 60.248C87.086 60.1323 87.1306 59.973 87.1003 59.8195C87.0894 59.7868 87.0726 59.7566 87.0499 59.7314C86.8541 59.5478 86.6222 59.4061 86.3684 59.3155C86.4449 59.2627 86.5096 59.1939 86.5575 59.1134C86.6398 58.9281 86.6205 58.7142 86.5071 58.5465C86.1037 57.8278 83.4677 57.5636 82.1804 57.4756C82.4896 57.2802 82.8997 57.0152 83.2963 56.7384C84.8979 55.6424 84.9492 55.4025 84.8416 55.2071C84.7786 55.0922 84.6677 55.0117 84.5391 54.9866C84.0408 54.8667 82.83 55.3011 80.9317 56.2655C81.3099 55.0176 81.241 54.2746 80.7233 54.0473C80.6477 54.0121 80.5595 54.0121 80.4839 54.0473C80.3074 54.1228 80.0175 54.4004 79.3797 55.894C79.0957 56.5682 78.8503 57.2232 78.7739 57.4311C78.4209 57.6265 78.0613 57.8345 77.6764 58.0551C77.3168 58.263 76.9504 58.4769 76.5975 58.6916C75.9665 57.7783 75.0077 56.5682 73.9103 55.2642C73.9035 55.2398 73.8909 55.218 73.8724 55.2013C73.8346 55.1568 73.6767 54.9807 73.4372 54.7031C72.0877 53.1156 70.5928 51.4392 69.2996 50.0094C66.8333 47.2873 64.6066 44.9308 64.1209 44.4209C64.115 44.4142 64.1083 44.4016 64.1024 44.3957L65.509 38.6236L65.7485 37.6592C66.0157 37.7019 66.2855 37.7229 66.556 37.7221C67.4014 37.7263 68.2307 37.4948 68.9525 37.0545C70.2331 36.2612 70.7062 34.6351 70.3399 32.3541C70.5054 32.4396 70.6894 32.4849 70.876 32.4866C70.9398 32.4874 71.0029 32.4816 71.065 32.4673C71.4003 32.4078 71.6927 32.2048 71.8658 31.913C71.9852 31.6614 71.9591 31.3645 71.7961 31.1381C71.6885 30.9872 71.4238 30.754 70.8819 30.8547C70.4441 30.9511 70.0004 30.7196 69.8281 30.3062C69.8281 30.2936 69.8222 30.2811 69.8222 30.2618C69.2231 28.447 68.2585 26.6138 67.2358 25.3282C67.2358 25.0196 67.2056 24.7118 67.1476 24.4083C66.8829 23.0791 65.8863 21.422 62.6319 21.0873C55.3028 20.3309 52.4769 16.1102 50.6165 13.3126C50.4779 13.1113 50.3451 12.9159 50.2191 12.7264C48.3587 10.0042 45.2488 5.4489 35.1636 6.09128C30.9814 6.35628 28.7866 5.33485 26.6548 4.35199C25.2297 3.69033 23.8793 3.06053 22.0441 2.89616C19.9946 2.71335 17.6292 3.12846 14.5958 4.21278C11.6237 5.26692 8.99018 7.09929 6.96928 9.51785C5.12652 11.7226 3.87364 14.3592 3.32998 17.1794C2.89807 19.3682 2.98462 21.6274 3.58206 23.7759C4.17783 25.8901 5.37693 27.7862 7.0323 29.232C9.74476 31.5952 12.9992 32.8992 16.9729 33.2204C20.4677 33.5038 24.0432 33.0191 27.506 32.5461C29.1269 32.3256 30.6537 32.1176 32.1545 31.9851C36.7904 31.5885 39.4776 33.0434 42.3279 34.5873C44.4219 35.7211 46.5915 36.8994 49.7015 37.53C50.6518 37.7271 51.6198 37.8286 52.5904 37.8328C54.9491 37.8328 56.6524 37.1711 57.7565 36.5094C58.3968 36.1354 58.9825 35.675 59.4976 35.1417L57.1826 42.0728C54.8398 41.6317 52.4576 41.4329 50.0737 41.4807C47.8167 41.5109 45.5697 41.7918 43.3749 42.3185C40.7826 42.9617 38.4743 43.9689 36.5122 45.3174C32.1352 48.3288 28.6597 53.1743 26.9884 58.6119C26.1103 61.4263 25.754 64.3774 25.9347 67.32C26.1338 70.443 26.9775 73.4914 28.4127 76.2731C29.8571 79.0774 31.5604 81.4775 33.4771 83.4055C35.172 85.1297 37.166 86.5318 39.3617 87.5449C41.6641 88.594 44.1665 89.1357 46.6974 89.1324C47.531 89.1324 48.3637 89.0753 49.1897 88.9621L53.6744 93.146C53.6996 93.172 53.7332 93.1896 53.7693 93.1963C53.834 93.2047 53.8996 93.2089 53.9651 93.2089C54.4945 93.2089 56.0087 92.9447 57.2893 90.241C58.1657 88.3885 58.9732 88.3122 59.9009 88.2183C60.5253 88.1554 61.2252 88.0858 61.989 87.4937C63.0487 86.6744 62.8403 85.5649 62.6705 84.6709C62.5058 83.7954 62.4378 83.2403 63.0428 82.9191C64.6066 82.0939 66.9728 80.846 67.1745 77.6518C67.919 76.9205 68.6257 76.1959 69.2811 75.4965C69.2811 75.5284 69.2752 75.5536 69.2752 75.5846C69.187 75.9561 69.092 76.3284 68.9979 76.6999C68.7962 77.4689 68.5752 78.2178 68.329 78.9558C68.0896 79.6485 67.8366 80.342 67.603 80.9592C66.5678 83.6269 65.167 86.1368 63.4402 88.4195C61.4706 91.01 59.0472 93.2214 56.2877 94.9473C56.2616 94.959 56.2389 94.9792 56.2246 95.0043C56.1784 95.0354 56.1507 95.0873 56.149 95.1427C56.1473 95.2064 56.1751 95.2668 56.2246 95.3071C60.6269 98.7286 64.1343 100.449 66.7014 100.449C67.619 100.474 68.5206 100.2 69.2685 99.667C69.8172 99.2578 70.139 98.6397 70.2205 97.8271C70.4726 95.2819 68.2593 90.896 64.8343 87.1222C65.5914 85.9859 66.272 84.8009 66.8711 83.5749C67.8694 83.699 68.8744 83.7602 69.8802 83.7577C71.8465 83.7518 73.8061 83.5237 75.7211 83.0776C79.7385 82.1257 83.561 80.2171 87.0684 77.3876C93.7168 72.0263 99.4055 61.3961 101.279 57.9058C101.582 57.3448 101.822 56.8978 101.879 56.8282C102.017 56.6453 102.415 56.3552 102.837 56.0533C103.954 55.2541 104.609 54.7375 104.415 54.278V54.2813ZM80.6099 54.4138C80.8998 54.6025 80.8435 55.3841 80.4519 56.512C80.0864 56.7007 79.6948 56.9154 79.2848 57.1418C79.8713 55.5979 80.4015 54.5715 80.6091 54.4138H80.6099ZM77.8664 58.3838C81.4359 56.3175 83.8391 55.208 84.4509 55.3598H84.4568C84.1921 55.6935 82.7661 56.6831 81.4855 57.4705C81.3973 57.5225 81.3678 57.6366 81.4199 57.7246C81.4208 57.7263 81.4216 57.728 81.4225 57.7288C81.4485 57.7733 81.4922 57.8052 81.5426 57.8169C81.5569 57.8228 81.572 57.8244 81.5872 57.8236C81.5998 57.8236 82.6661 57.8739 83.7761 58.019C85.7315 58.2773 86.1096 58.6111 86.1861 58.7369C86.2239 58.7997 86.2617 58.8878 86.2298 58.9448C86.1399 59.0371 86.018 59.0933 85.8895 59.1025C85.8584 59.1092 85.829 59.1201 85.8012 59.1343C84.224 58.7251 81.9283 58.788 81.8023 58.7939C81.6998 58.7956 81.6174 58.8794 81.6191 58.9817C81.6191 58.9842 81.6191 58.9868 81.6191 58.9884C81.625 59.0916 81.7107 59.1721 81.8149 59.1712C82.9123 59.1394 85.8895 59.2157 86.7281 59.9461C86.7222 59.9671 86.7121 59.9872 86.697 60.0032C86.6466 60.0602 86.4575 60.1918 85.8138 60.1289C85.3601 60.0786 82.3191 59.8455 82.193 59.8329C82.0888 59.8262 81.9981 59.905 81.9913 60.009C81.9913 60.051 82.0031 60.092 82.0224 60.1289C82.0451 60.1658 82.0813 60.1927 82.1233 60.2044C82.1359 60.2044 82.8358 60.4367 83.5358 60.7403C84.766 61.2695 84.8727 61.5277 84.8794 61.5596C84.6836 61.8062 83.7568 61.3709 83.1451 61.0808C82.6661 60.8602 82.2115 60.6464 81.8838 60.5952C81.5552 60.5508 80.9057 60.8351 78.7428 63.3106C78.2134 63.0817 77.7218 62.7739 77.2857 62.3974V62.3655C77.2899 61.4867 76.6941 60.7177 75.8412 60.5005C75.7194 60.2598 75.6203 60.009 75.5446 59.7507C76.3009 59.3029 77.0773 58.8366 77.8664 58.3838ZM76.9143 62.3722C76.9143 63.2142 76.2311 63.8977 75.3875 63.8977C74.5438 63.8977 73.8607 63.215 73.8607 62.3722C73.8607 62.2339 73.88 62.0955 73.917 61.963C73.9414 61.9278 73.9548 61.8858 73.9548 61.8431C74.2355 61.0514 75.1051 60.6363 75.8975 60.9156C76.5135 61.1328 76.9219 61.719 76.9126 62.3722H76.9143ZM69.5281 52.9462C69.5979 52.854 69.7029 52.7944 69.818 52.7819C70.4869 52.719 72.4482 54.3442 73.5582 55.4159C74.6808 56.7451 75.6463 57.9611 76.2832 58.8752C73.9876 60.2489 71.8936 61.5906 70.6693 62.4158C70.4592 59.8807 69.9937 57.3733 69.2819 54.9304C69.2256 54.4767 69.1819 53.3739 69.5281 52.9454V52.9462ZM57.0708 42.4359L56.8944 42.9592C56.8607 43.0573 56.9128 43.1638 57.0112 43.1974C57.012 43.1974 57.0128 43.1974 57.0137 43.1982C57.0305 43.2083 57.0506 43.2125 57.07 43.2108C57.1515 43.2099 57.2229 43.1563 57.2464 43.0783L60.1858 34.2888C60.2194 34.1907 60.1665 34.0833 60.0681 34.0498C60.0681 34.0498 60.0665 34.0498 60.0656 34.0498C60.0497 34.0447 60.032 34.0422 60.0152 34.0431C59.4984 33.9609 59.1447 33.7026 59.0001 33.2934C58.8169 32.7952 58.9682 32.1151 59.3598 31.674C59.511 31.5038 59.8261 31.227 60.2362 31.3209C60.974 31.4853 61.2328 32.1025 61.3151 32.5872C61.3504 32.7952 61.4849 32.9738 61.6748 33.0661C61.8622 33.16 62.084 33.155 62.268 33.0535C63.7058 32.2719 65.0813 30.8857 66.0334 29.2538C66.7022 28.1074 67.0997 26.9601 67.2064 25.9077C68.1643 27.2671 68.9189 28.7598 69.4458 30.3372C69.4458 30.3498 69.4517 30.3624 69.4517 30.3817C69.671 30.9981 70.3113 31.3587 70.9533 31.2262C71.2121 31.1759 71.3944 31.2195 71.4961 31.3587C71.5726 31.4677 71.5869 31.6086 71.5339 31.7302C71.4146 31.9222 71.2196 32.0547 70.9978 32.0958C70.739 32.1461 70.481 32.0514 70.2155 31.8249C70.1407 31.757 70.0239 31.762 69.9558 31.8375C69.9542 31.84 69.9525 31.8417 69.95 31.8442C69.9264 31.8685 69.9113 31.8996 69.9063 31.9323C69.8928 31.9683 69.8878 32.0078 69.8937 32.0455C70.4676 34.9756 69.5912 36.2033 68.7517 36.7266C66.2796 38.2579 63.6234 36.4558 63.5982 36.4365C63.5167 36.3753 63.4007 36.3912 63.3394 36.4717C63.3369 36.4742 63.3352 36.4776 63.3335 36.4801C63.2823 36.5497 63.2848 36.6461 63.3394 36.7124C64.1973 38.1607 64.5704 39.8446 64.4057 41.5201V41.5268L63.7058 44.3941V44.4008C63.7058 44.4133 63.6999 44.4201 63.6999 44.4326V44.4452C63.699 44.4578 63.7007 44.4712 63.7058 44.483V44.4897C63.7142 44.5215 63.7293 44.5517 63.7503 44.5777L63.794 44.6222C64.3335 45.3014 64.8292 46.0151 65.2771 46.7589C63.1134 47.9498 60.963 48.2584 58.8942 47.6596C55.1474 46.582 52.7063 42.8586 52.1265 41.8875C53.7861 41.9462 55.439 42.1298 57.0717 42.4367L57.0708 42.4359ZM51.6846 41.869C52.2139 42.7881 52.8358 43.6519 53.5391 44.4469C54.6491 45.7132 56.4658 47.3644 58.7934 48.032C59.5068 48.2391 60.2454 48.3448 60.9883 48.3464C62.4638 48.3464 63.9654 47.9305 65.4796 47.0801C65.6939 47.4391 65.9208 47.8366 66.1544 48.271C65.3317 48.7968 64.425 49.1783 63.4738 49.3989C61.9033 49.7771 59.4178 49.9406 56.4784 48.5544C53.7155 47.2562 52.1324 45.4541 51.2871 44.1693C50.8098 43.4548 50.4317 42.6791 50.1645 41.8631C50.6938 41.8564 51.1989 41.8564 51.6846 41.8698V41.869ZM28.7572 76.1012C27.3455 73.3664 26.5161 70.3692 26.3229 67.2991C26.1464 64.4008 26.4993 61.495 27.3632 58.7234C28.8076 54.023 31.6142 49.783 35.1905 46.8026C36.3635 48.5225 35.3232 52.9395 37.1013 52.7315C39.0566 52.4993 37.2215 49.7075 38.4567 45.5363C38.5827 45.0633 38.9743 44.597 39.1255 44.2448C40.5129 43.5739 41.9674 43.0523 43.4648 42.6883C45.5336 42.1902 47.6503 41.9151 49.7788 41.869C50.0544 42.7537 50.456 43.5949 50.9711 44.3647C51.835 45.6939 53.4752 47.559 56.3263 48.9008C57.8565 49.6413 59.5329 50.0329 61.2336 50.0471C62.0269 50.0522 62.8176 49.9549 63.5864 49.757C64.562 49.5356 65.4931 49.1482 66.3367 48.6106C66.4569 48.8429 66.5829 49.0836 66.7022 49.3293C67.5946 51.1491 68.329 53.0418 68.8971 54.9874C68.9038 55.0101 68.908 55.0335 68.9097 55.057C68.9139 55.0813 68.9231 55.1048 68.9349 55.1266C69.6466 57.5871 70.1054 60.1147 70.3037 62.6683C70.2155 62.7253 70.1331 62.7815 70.0642 62.8326C69.7928 63.0213 69.4777 63.2486 69.1433 63.4876C67.5224 64.6533 65.0687 66.411 62.4067 67.6211C60.3631 68.5469 58.4901 69.0132 56.812 69.0132C55.9499 69.0208 55.0936 68.8841 54.276 68.6098C51.9299 67.8031 50.6367 65.9321 50.4409 63.0524C50.3661 61.6502 50.5115 60.2455 50.8695 58.8878C50.898 58.788 50.8401 58.6849 50.7409 58.6563C50.6426 58.6287 50.5401 58.6832 50.5098 58.7805C50.1342 60.1759 49.9855 61.6225 50.0687 63.0649C50.1115 63.7954 50.2468 64.5174 50.472 65.2135C48.7839 65.1397 47.0915 65.226 45.4193 65.4717C42.7195 65.8625 38.9289 66.858 36.1534 69.3973C32.2427 72.9765 30.5268 77.3163 30.1109 78.5021C29.6378 77.739 29.1841 76.9389 28.7547 76.1012H28.7572ZM62.7033 81.2427C62.0916 81.7534 61.4353 82.2884 60.7479 82.8243C57.9161 85.0232 55.3171 86.6241 53.0593 87.5876C52.5593 87.7897 52.0476 87.9625 51.5266 88.1042C47.4327 89.2129 43.2766 88.9043 39.5238 87.2036C37.3702 86.2081 35.4148 84.8311 33.7527 83.1396C32.8419 82.2214 32.0049 81.2335 31.2487 80.1844C31.4856 79.2393 31.8192 78.3201 32.2452 77.4438C32.983 75.8622 34.3838 73.3857 36.8752 70.6074C39.3474 67.8475 42.9556 66.6383 45.542 66.1024C47.21 65.7569 48.9099 65.59 50.6132 65.6042C50.8863 66.3095 51.2963 66.9536 51.8182 67.5012C50.3804 69.0006 46.0403 68.7616 46.3437 70.5319C46.7537 72.3341 49.1191 71.3009 53.25 69.9332C54.3281 69.5843 55.4533 69.3998 56.5868 69.3847C56.6692 69.3847 56.7448 69.3914 56.8263 69.3914C58.5548 69.3914 60.4849 68.9126 62.5663 67.9607C65.2662 66.7322 67.7324 64.9619 69.366 63.7887C69.7004 63.5496 70.0096 63.3291 70.2802 63.1396C70.886 62.7236 71.9641 62.0058 73.2952 61.1613C73.3515 61.3256 73.4338 61.5646 73.554 61.8481C73.5078 62.0183 73.4851 62.1945 73.4851 62.3714C73.4851 63.3626 74.2388 64.1912 75.2262 64.2859C75.7597 64.7765 76.4194 65.1078 77.1311 65.2436C75.5035 67.2471 73.9077 69.3772 72.9994 70.5932C71.2449 72.9572 67.2274 77.3926 62.705 81.2427H62.7033ZM70.7012 80.9341C69.4651 79.9571 69.5281 77.1914 69.6416 75.8186C69.6601 75.7179 69.6735 75.6299 69.692 75.5351C69.7357 75.3338 69.7869 75.1317 69.8306 74.9363C71.0617 73.6281 72.2238 72.257 73.3128 70.828C73.8993 70.0405 74.7699 68.8681 75.7597 67.596C75.3152 68.5729 74.9253 69.5742 74.5926 70.5948C73.5128 73.9677 72.9599 77.4874 72.9523 81.0288C72.0003 81.3936 71.2432 81.3626 70.7012 80.9332V80.9341ZM103.695 54.9187C103.35 55.2206 102.988 55.5023 102.61 55.7631C102.15 56.0969 101.752 56.3871 101.576 56.6076C101.5 56.7024 101.337 57.0043 100.939 57.7414C99.0787 61.2133 93.4143 71.7924 86.8222 77.1033C83.3535 79.895 79.5881 81.7844 75.627 82.717C74.8825 82.8931 74.1321 83.0314 73.3876 83.1388L73.3305 81.5949C73.2775 77.9092 73.8204 74.2386 74.9388 70.7265C75.8975 67.7779 76.9445 66.1083 76.9572 66.0898C76.9681 66.0747 76.9765 66.0571 76.9824 66.0395C77.4874 65.4097 77.9983 64.7858 78.4966 64.1929C78.8873 63.7325 79.2285 63.3358 79.5368 63.002C80.3057 63.8155 81.1746 64.5291 82.1233 65.1254C80.5276 65.7116 78.3831 65.8692 78.5789 67.0542C78.9386 68.6291 81.0074 67.7217 84.6215 66.5309C85.1534 66.3556 85.7012 66.229 86.2558 66.1527C86.2281 66.1527 86.2012 66.1502 86.1735 66.146C86.3239 66.1267 86.4701 66.1015 86.6146 66.0705C88.6901 65.6235 91.3766 63.122 93.263 61.0992C95.3637 58.8501 97.1107 56.5061 97.3443 55.9392C97.546 55.4411 97.7796 54.5404 98.0006 53.6649C98.1838 52.9538 98.4039 52.0833 98.53 51.8183C98.5484 51.8334 98.5653 51.8502 98.5804 51.8686C98.7131 52.0388 98.9904 52.6687 98.5358 54.7794C98.5148 54.8826 98.5821 54.9832 98.6854 55.0033C98.7854 55.0235 98.8837 54.9606 98.9081 54.8616C98.914 54.8298 98.9207 54.8046 98.9274 54.7794C98.9442 54.7727 98.9594 54.7618 98.9711 54.7476C98.977 54.735 100.106 53.6448 100.522 53.254C100.787 53.0075 101.033 52.7684 101.248 52.5605C101.968 51.8678 102.585 51.269 102.787 51.4015C102.787 51.446 102.749 51.6481 102.289 52.2393C101.678 52.9991 101.026 53.727 100.339 54.4197C100.266 54.4926 100.266 54.6117 100.339 54.6847C100.412 54.7576 100.531 54.7576 100.604 54.6847C100.605 54.683 100.608 54.6805 100.61 54.6788C101.537 53.7144 102.414 52.7567 102.855 52.0825C102.884 52.0749 102.912 52.0623 102.937 52.0447C103.063 51.9374 103.272 51.8309 103.341 51.856C103.347 51.856 103.359 51.8753 103.372 51.9189C103.454 52.2653 102.646 53.2481 102.11 53.9039C101.416 54.7484 101.032 55.2398 101.076 55.5552C101.087 55.6424 101.135 55.7204 101.209 55.769C101.543 55.9896 102.079 55.6558 102.937 55.0822C103.284 54.8499 103.864 54.465 104.053 54.4524C104.046 54.5027 103.996 54.6411 103.693 54.9187H103.695Z" fill="#553597"/>
<path d="M63.4546 88.4313C65.1789 86.1478 66.5796 83.6378 67.6174 80.971C67.8502 80.3538 68.1031 79.6603 68.3434 78.9676C68.5829 78.2304 68.8098 77.4807 69.0123 76.7117C69.1072 76.3402 69.2013 75.9679 69.2896 75.5964C69.2896 75.5645 69.2955 75.5335 69.2955 75.5083C68.6392 76.2077 67.9333 76.9264 67.1889 77.6635C66.9872 80.8578 64.6218 82.1057 63.0571 82.9309C62.4513 83.252 62.521 83.8064 62.6849 84.6827C62.8555 85.5775 63.063 86.6862 62.0034 87.5055C61.2404 88.0976 60.5405 88.1672 59.9153 88.2301C58.9884 88.3248 58.1809 88.4003 57.3037 90.2528C56.1936 92.6034 54.9004 93.1074 54.2383 93.2013C54.9643 93.8186 55.676 94.3989 56.3575 94.9339C59.0926 93.2072 61.4959 91.005 63.4538 88.4313H63.4546Z" fill="white"/>
</g>
<path d="M21.6317 88.7549L20.459 89.937L20.7177 90.1978L21.8904 89.0156L21.6317 88.7549Z" fill="#553597"/>
<path d="M23.3504 87.0215L22.1777 88.2036L22.4364 88.4644L23.6091 87.2822L23.3504 87.0215Z" fill="#553597"/>
<path d="M20.7167 87.021L20.458 87.2817L21.6307 88.4639L21.8894 88.2031L20.7167 87.021Z" fill="#553597"/>
<path d="M22.4364 88.7544L22.1777 89.0151L23.3504 90.1973L23.6091 89.9365L22.4364 88.7544Z" fill="#553597"/>
<path d="M78.5745 7.12032L76.9404 5.04283L78.5745 2.96533L80.2085 5.04283L78.5745 7.12032ZM77.4038 5.04283L78.5745 6.53026L79.7452 5.04283L78.5745 3.55539L77.4038 5.04283Z" fill="#A78ED7"/>
<path d="M42.3306 98.768C41.5501 98.768 40.916 98.1287 40.916 97.342C40.916 96.5552 41.5501 95.916 42.3306 95.916C43.111 95.916 43.7451 96.5552 43.7451 97.342C43.7451 98.1287 43.111 98.768 42.3306 98.768ZM42.3306 96.2848C41.7574 96.2848 41.2819 96.7519 41.2819 97.342C41.2819 97.9198 41.7452 98.3992 42.3306 98.3992C42.9159 98.3992 43.3793 97.932 43.3793 97.342C43.3793 96.7642 42.9159 96.2848 42.3306 96.2848Z" fill="#553597"/>
<path d="M101.727 92.5319C101.694 92.5599 101.654 92.5783 101.612 92.5852C101.569 92.592 101.525 92.5871 101.486 92.5708C100.549 92.1917 100.246 92.5633 99.738 93.1779C99.2817 93.7335 98.7135 94.4232 97.504 94.5827L97.4769 94.5871C96.2084 94.6072 95.5686 94.0605 95.2363 93.5383C94.5773 93.7357 93.8725 93.7006 93.2412 93.4388C92.6205 93.1837 92.0748 92.7778 91.6533 92.2575C90.7142 92.5969 89.6908 92.609 88.7506 92.2917C88.28 92.1052 87.864 91.8052 87.5394 91.4183C87.2587 91.5936 86.9461 91.7112 86.6203 91.7643C86.2944 91.8174 85.9619 91.8048 85.6423 91.7274C85.0762 91.6461 84.5481 91.401 84.123 91.0222C83.2983 91.6199 82.2158 91.59 81.1349 90.9332C81.1242 90.924 81.1151 90.9131 81.1078 90.9011C80.1767 90.06 79.7232 89.2188 79.7166 88.3336C79.7163 88.3027 79.7221 88.2721 79.7337 88.2434C79.7452 88.2147 79.7623 88.1885 79.7839 88.1663C79.8056 88.1441 79.8313 88.1263 79.8598 88.114C79.8882 88.1016 79.9187 88.095 79.9496 88.0944C79.9804 88.0938 80.0111 88.0993 80.0397 88.1105C80.0683 88.1218 80.0944 88.1386 80.1164 88.16C80.1385 88.1813 80.156 88.2069 80.1681 88.2351C80.1802 88.2634 80.1865 88.2938 80.1868 88.3246C80.1948 89.0653 80.5902 89.7937 81.4086 90.5376C82.2944 91.0691 83.1321 91.1194 83.7889 90.6846C83.2603 90.1051 82.9274 89.3851 82.9432 88.7859C82.9387 88.6516 82.9616 88.5175 83.0103 88.3917C83.0591 88.2659 83.1328 88.151 83.2269 88.054C83.3211 87.9569 83.4337 87.8797 83.5581 87.827C83.6826 87.7742 83.8161 87.7471 83.9508 87.7472C84.1993 87.734 84.4446 87.802 84.6495 87.9408C84.8545 88.0796 85.0078 88.2817 85.0865 88.5165C85.3162 89.1801 85.0456 90.0765 84.4785 90.6981C84.8238 91.001 85.2508 91.1963 85.7077 91.2603L85.7372 91.266C85.9912 91.3305 86.2561 91.3436 86.5164 91.3044C86.7766 91.2653 87.0269 91.1746 87.2525 91.0378C86.7475 90.2707 86.547 89.3383 86.737 88.6533C86.927 87.9684 87.4699 87.6509 88.2019 87.7659C88.3822 87.7936 88.5505 87.8713 88.6878 87.9902C88.825 88.109 88.9258 88.2643 88.9785 88.4383C89.2004 89.1146 88.8701 90.1376 88.1787 90.8823C88.0961 90.9711 88.0085 91.0552 87.9163 91.1341C88.1805 91.4433 88.5163 91.6835 88.8951 91.8343C89.6953 92.1039 90.5639 92.1086 91.3724 91.8476C91.1691 91.5155 91.0413 91.1424 90.9979 90.7544C90.9544 90.3663 90.9963 89.9726 91.1207 89.6006C91.4221 88.7882 92.1354 88.3912 92.896 88.6133C93.5983 88.8357 93.8812 89.5002 93.6234 90.3095C93.3541 91.0623 92.8099 91.688 92.1005 92.0604C92.4671 92.4771 92.9249 92.8037 93.4391 93.0156C93.9421 93.2224 94.5007 93.2582 95.0295 93.1177C94.674 92.1696 94.9129 90.9796 95.5735 90.4104C95.7766 90.2358 96.0297 90.13 96.2959 90.1088C96.562 90.0876 96.827 90.1519 97.0522 90.2924C97.6576 90.6119 97.8314 91.1945 97.5092 91.8507C97.2176 92.4444 96.5306 93.048 95.7043 93.3878C96.0676 93.8808 96.6768 94.139 97.4652 94.1272C98.4797 93.9887 98.9378 93.4316 99.3824 92.8951C99.8909 92.2771 100.416 91.6389 101.672 92.1483C101.729 92.1715 101.775 92.2165 101.799 92.2736C101.823 92.3308 101.823 92.3952 101.799 92.4529C101.781 92.4838 101.756 92.5108 101.727 92.5319ZM95.4726 92.9668C96.2112 92.6766 96.8316 92.1474 97.0824 91.6369C97.2921 91.213 97.2026 90.8948 96.8197 90.693C96.6789 90.5956 96.5089 90.5486 96.337 90.5596C96.1651 90.5706 96.0014 90.6389 95.8721 90.7536C95.4199 91.1349 95.161 92.1037 95.4573 92.934C95.4647 92.9437 95.4699 92.9549 95.4726 92.9668ZM91.8232 91.6841C92.4542 91.3808 92.9448 90.8457 93.1913 90.1918C93.2566 89.9842 93.4241 89.2908 92.7701 89.0855C92.1475 88.9027 91.7488 89.3365 91.5802 89.7837C91.476 90.0999 91.4438 90.4347 91.4858 90.7635C91.5278 91.0924 91.6431 91.4069 91.8232 91.6841ZM87.4317 88.3696C87.3122 88.4773 87.228 88.6185 87.1904 88.7744C87.0604 89.2929 87.2106 90.0815 87.6507 90.757C87.7264 90.6932 87.7984 90.6324 87.8462 90.5647C88.4046 89.9657 88.7113 89.0938 88.5457 88.5867C88.5197 88.4927 88.4667 88.4087 88.3932 88.3449C88.3197 88.2811 88.2289 88.2404 88.132 88.2276C88.0126 88.1973 87.8876 88.1944 87.7664 88.2189C87.6452 88.2435 87.5308 88.295 87.4317 88.3696ZM83.5865 88.3534C83.5262 88.4117 83.4794 88.4824 83.4494 88.5605C83.4193 88.6385 83.4068 88.7221 83.4125 88.8052C83.4021 89.2533 83.6958 89.8722 84.1519 90.3876C84.6476 89.8568 84.8051 89.126 84.6536 88.6831C84.6082 88.5396 84.515 88.4163 84.3892 88.3337C84.2635 88.2511 84.1129 88.2141 83.9622 88.2288C83.8273 88.2297 83.6958 88.2734 83.5865 88.3534Z" fill="#553597"/>
<path d="M90.5051 10.9707C84.7359 10.9707 80.0537 15.6529 80.0537 21.4221C80.0537 27.1912 84.7359 31.8735 90.5051 31.8735C96.2743 31.8735 100.956 27.1912 100.956 21.4221C100.956 15.6529 96.2743 10.9707 90.5051 10.9707ZM90.5051 29.7832C85.896 29.7832 82.144 26.0311 82.144 21.4221C82.144 16.813 85.896 13.061 90.5051 13.061C95.1142 13.061 98.8662 16.813 98.8662 21.4221C98.8662 26.0311 95.1142 29.7832 90.5051 29.7832ZM95.3023 16.8026L88.4148 23.69L85.7079 20.9936L84.2343 22.4672L88.4148 26.6478L96.7759 18.2867L95.3023 16.8026Z" fill="#6F46BE"/>
</g>
<path d="M121.144 47.209L120.377 50.5246C120.232 51.1548 120.625 51.8016 121.247 51.9543L124.519 52.7577L121.144 47.209Z" fill="white"/>
<path d="M121.092 38.475L106.227 34.7895C105.086 34.5108 103.922 35.2381 103.653 36.3971L96.566 66.4581C96.2968 67.6171 97.0166 68.8048 98.1572 69.0835L119.023 74.2352C120.163 74.5139 121.328 73.7866 121.597 72.6276L127.218 48.6522L121.092 38.475Z" fill="white"/>
<path d="M118.975 74.732L98.0468 69.5255C97.3504 69.354 96.7618 68.9433 96.3803 68.3179C95.9988 67.6925 95.9008 66.9774 96.0631 66.2733L103.033 36.2594C103.195 35.5553 103.595 34.9627 104.208 34.5822C104.821 34.2017 105.526 34.1095 106.222 34.281L121.132 38.0055C121.281 38.0423 121.369 38.1171 121.446 38.2421L127.713 48.4488C127.79 48.5739 127.816 48.6867 127.781 48.8376L122.164 72.7535C122.002 73.4577 121.603 74.0503 120.99 74.4307C120.376 74.8112 119.672 74.9035 118.975 74.732ZM105.99 35.2869C105.543 35.1766 105.11 35.2295 104.742 35.4578C104.374 35.6861 104.132 36.0517 104.028 36.5044L97.0579 66.5182C96.9536 66.9709 97.01 67.41 97.2389 67.7852C97.4678 68.1605 97.831 68.4094 98.2786 68.5196L119.207 73.7261C119.655 73.8363 120.087 73.7834 120.455 73.5551C120.823 73.3269 121.065 72.9612 121.17 72.5086L126.691 48.7816L120.751 38.9747L105.99 35.2869Z" fill="#553597"/>
<path d="M121.041 53.3019L106.008 49.5817C105.711 49.5093 105.571 49.2131 105.629 48.9651C105.698 48.6676 105.942 48.5175 106.239 48.59L121.272 52.3101C121.569 52.3826 121.709 52.6788 121.652 52.9267C121.594 53.1747 121.289 53.3623 121.041 53.3019Z" fill="#553597"/>
<path d="M120.003 57.7433L104.97 54.0231C104.673 53.9507 104.533 53.6545 104.591 53.4065C104.66 53.109 104.904 52.9589 105.201 53.0314L120.234 56.7515C120.531 56.824 120.671 57.1202 120.613 57.3682C120.506 57.604 120.251 57.8037 120.003 57.7433Z" fill="#553597"/>
<path d="M118.929 62.1222L103.896 58.402C103.599 58.3296 103.459 58.0334 103.516 57.7854C103.586 57.4879 103.83 57.3378 104.127 57.4103L119.16 61.1304C119.457 61.2029 119.597 61.4991 119.539 61.7471C119.47 62.0446 119.226 62.1946 118.929 62.1222Z" fill="#553597"/>
<path d="M113.388 65.4697L102.846 62.895C102.549 62.8225 102.409 62.5259 102.467 62.2777C102.536 61.9798 102.78 61.8296 103.077 61.9021L113.619 64.4769C113.916 64.5494 114.056 64.846 113.999 65.0942C113.941 65.3424 113.636 65.5302 113.388 65.4697Z" fill="#553597"/>
<path d="M127.139 49.1799L121.141 47.7144C120.447 47.5448 119.861 47.1355 119.483 46.5106C119.104 45.8858 119.008 45.1704 119.172 44.4652L120.588 38.37C120.634 38.1685 120.78 37.9913 120.99 37.9893C121.212 37.937 121.399 38.0359 121.512 38.2233L127.684 48.4084C127.798 48.5958 127.801 48.8094 127.655 48.9867C127.521 49.1136 127.337 49.2284 127.139 49.1799ZM121.26 39.7587L120.126 44.6449C120.02 45.0983 120.075 45.5376 120.303 45.9125C120.53 46.2874 120.891 46.5354 121.337 46.6444L126.145 47.8193L121.26 39.7587Z" fill="#553597"/>
<path d="M109.554 47.1727C111.435 47.6637 113.349 46.5085 113.831 44.5924C114.313 42.6764 113.179 40.7252 111.299 40.2342C109.419 39.7432 107.504 40.8985 107.022 42.8145C106.54 44.7305 107.674 46.6817 109.554 47.1727Z" fill="white" stroke="#553597" stroke-width="0.5" stroke-miterlimit="15.11"/>
<mask id="mask2_126_6250" style="mask-type:luminance" maskUnits="userSpaceOnUse" x="107" y="40" width="7" height="7">
<path d="M113.557 41.7397L108.538 40.4097L107.284 45.4715L112.302 46.8016L113.557 41.7397Z" fill="white"/>
</mask>
<g mask="url(#mask2_126_6250)">
<path d="M112.422 43.395L111.286 43.0927L111.568 41.9497L110.181 41.5806L109.899 42.7236L108.763 42.4213L108.419 43.8164L109.555 44.1187L109.273 45.2617L110.66 45.6308L110.942 44.4878L112.078 44.7901L112.422 43.395Z" fill="#553597" stroke="#553597" stroke-width="0.1" stroke-miterlimit="11.34"/>
</g>
<defs>
<clipPath id="clip0_126_6250">
<rect width="109.406" height="108.516" fill="white" transform="translate(0 0.741699)"/>
</clipPath>
</defs>
</svg>
