<svg width="722" height="343" fill="none" xmlns="http://www.w3.org/2000/svg">
    <rect x="722" y="342.588" width="670" height="199.346" rx="99.673" transform="rotate(-180 722 342.588)" fill="#EEE8FF"/>
    <path d="M470.57 266.6h-11.127v18.998h-18.591V266.6h-46.409v-15.199l43.017-53.465h21.983v53.194h11.127v15.47Zm-29.718-15.47v-33.789l-27.004 33.789h27.004Zm81.345 36.368c-8.775 0-16.239-1.9-22.391-5.7-6.151-3.799-10.81-9.137-13.977-16.012-3.076-6.876-4.614-14.882-4.614-24.019 0-8.595 1.629-16.375 4.886-23.341 3.347-6.966 8.096-12.439 14.248-16.419 6.242-3.981 13.525-5.971 21.848-5.971 8.775 0 16.239 1.9 22.39 5.699 6.152 3.8 10.766 9.137 13.842 16.013 3.166 6.785 4.749 14.746 4.749 23.883 0 8.685-1.628 16.51-4.885 23.476-3.257 6.966-8.006 12.439-14.248 16.42-6.152 3.98-13.435 5.971-21.848 5.971Zm-.136-17.099c6.695 0 11.851-2.623 15.47-7.87 3.709-5.247 5.564-12.213 5.564-20.898 0-9.137-1.719-16.148-5.157-21.034-3.347-4.975-8.549-7.463-15.605-7.463-6.604 0-11.761 2.623-15.47 7.871-3.709 5.247-5.564 12.167-5.564 20.762 0 9.046 1.719 16.103 5.157 21.169 3.437 4.976 8.639 7.463 15.605 7.463Zm126.483-3.799h-11.127v18.998h-18.591V266.6h-46.409v-15.199l43.016-53.465h21.984v53.194h11.127v15.47Zm-29.718-15.47v-33.789l-27.004 33.789h27.004ZM169.613 184.384c-33.332 16.815-51.635 56.099-45.98 92.407 2.38 15.326 24.552 13.243 23.362-5.655-1.786-27.826 15.773-39.73 39.135-51.337 13.838-6.993-2.679-42.409-16.517-35.415ZM268.626 185.277c36.308 8.482 63.39 42.409 66.515 78.866 1.339 15.475-20.684 18.6-24.106 0-4.911-27.529-24.85-34.82-50.147-40.624-15.178-3.571-7.44-41.813 7.738-38.242Z" fill="#6F46BE"/>
    <path d="M180.237 196.586c18.005-15.029 65.771-15.476 86.157-1.488 22.469 15.475 39.879 83.181 25.296 104.311-15.029 21.725-121.572 23.362-132.881 0-12.499-25.892.744-85.711 21.428-102.823Z" fill="#6F46BE"/>
    <path d="M188.123 200.306c14.881-12.351 54.165-12.797 70.979-1.19 18.452 12.797 32.886 68.449 20.833 85.859-12.351 17.856-99.996 19.195-109.37 0-10.268-21.279.595-70.384 17.558-84.669Z" fill="#C0AFE9"/>
    <path d="M273.298 337.083c14.464 0 26.189-17.122 26.189-38.243 0-21.12-11.725-38.242-26.189-38.242s-26.189 17.122-26.189 38.242c0 21.121 11.725 38.243 26.189 38.243ZM182.16 96.647s-31.423-51.984-65.457-23.562c-10.679 8.918 10.256 22.96 10.256 22.96s-11.819-2.254-15.341 10.173c-3.522 12.426 21.787 19.561 21.787 19.561s-8.828 5.555-6.244 10.783c2.584 5.228 11.22 11.152 44.511-1.377 8.772-33.477 10.488-38.538 10.488-38.538Z" fill="#6F46BE"/>
    <path d="M170.019 100.562s-10.851-11.986-20.201.471c-9.349 12.457 6.329 24.02 6.329 24.02l13.872-24.491Z" fill="#C0AFE9"/>
    <path d="M288.68 125.756c3.209-3.542 7.831-5.428 12.327-7.023 9.104-3.233 18.579-5.811 28.216-5.794 9.782.016 21.98 2.576 28.043 11.137 2.112 2.98 3.083 7.024 1.647 10.404-1.399 3.294-4.704 5.31-7.947 6.757-4.113 1.84-8.364 2.726-12.646 3.902 1.396.828 2.79 1.697 4.097 2.687 2.125 1.612 4.207 3.396 5.49 5.749 3.461 6.348-.379 13.763-6.718 16.085-7.83 2.868-13.698-1.484-20.753-3.657.287 1.914 1.165 3.79 1.345 5.8.194 2.138-.25 4.432-1.659 6.045-5.119 5.862-17.627 1.001-23.457-1.045-9.106-3.196-13.579-11.268-14.344-20.631-.734-9.011-.005-22.953 6.043-30.052.103-.124.209-.246.316-.364Z" fill="#6F46BE"/>
    <path d="M299.28 137.771s13.988-8.06 19.075 6.684c5.087 14.743-13.364 20.909-13.364 20.909l-5.711-27.593Z" fill="#C0AFE9"/>
    <path d="M192.363 79.087c20.223-11.743 68.236-4.923 86.712 11.68 20.208 18.299 27.836 86.171 10.187 104.268-18.287 18.663-125.334 4.129-133.259-20.156-8.878-26.749 13.11-82.298 36.36-95.792Z" fill="#6F46BE"/>
    <path d="M215.035 165.196c.56-6.339 3.257-12.567 7.416-16.663 3.921-3.863 9.595-6.4 12.638-.153.919 1.882 1.238 4.01 1.367 6.109.368 5.904-.271 11.21-2.636 16.637-1.745 4.009-6.19 7.732-10.719 7.419-4.284-.297-7.429-4.568-8-8.87-.187-1.425-.202-2.934-.066-4.479Z" fill="#C0AFE9"/>
    <path opacity=".2" d="M213.663 137.357c9.716-8.736 10.51-23.694 1.774-33.41-8.736-9.716-23.694-10.51-33.41-1.774-9.716 8.736-10.511 23.694-1.775 33.41 8.736 9.716 23.695 10.51 33.411 1.774Z" fill="#fff"/>
    <path d="M215.579 126.497c3.707-9.793-1.227-20.737-11.019-24.444-9.793-3.707-20.737 1.227-24.444 11.02-3.707 9.793 1.227 20.737 11.02 24.443 9.793 3.707 20.736-1.226 24.443-11.019Z" fill="#fff"/>
    <path d="m196.757 112.829-4.472-.724-.725 4.472 4.472.724.725-4.472ZM193.072 107.634l-4.472-.725-.725 4.472 4.472.724.725-4.471ZM210.778 110.476l-4.472-.724-.725 4.472 4.472.724.725-4.472ZM190.213 125.336l-4.472-.725-.724 4.472 4.472.725.724-4.472ZM207.919 128.178l-4.472-.724-.724 4.472 4.472.724.724-4.472ZM195.34 121.554l-4.472-.724-.725 4.472 4.472.724.725-4.472ZM200.53 117.954l-4.472-.724-.724 4.472 4.472.724.724-4.472Z" fill="#6F46BE"/>
    <path d="m205.651 114.258-4.472-.725-.724 4.472 4.472.724.724-4.471ZM204.235 122.982l-4.472-.724-.724 4.471 4.471.725.725-4.472Z" fill="#6F46BE"/>
    <path d="M279.768 144.698c8.281-10.106 6.802-25.013-3.305-33.294-10.107-8.281-25.013-6.802-33.294 3.305-8.282 10.107-6.802 25.013 3.305 33.294 10.106 8.282 25.013 6.802 33.294-3.305Z" fill="#C0AFE9"/>
    <path opacity=".2" d="M279.768 144.698c8.281-10.106 6.802-25.013-3.305-33.294-10.107-8.281-25.013-6.802-33.294 3.305-8.282 10.107-6.802 25.013 3.305 33.294 10.106 8.282 25.013 6.802 33.294-3.305Z" fill="#fff"/>
    <path opacity=".2" d="M284.521 135.174c-.084.503-.252.923-.336 1.342l-46.226-9.816c.084-.839.252-1.677.42-2.516 3.02-12.752 15.772-20.555 28.524-17.534 12.752 3.02 20.638 15.772 17.618 28.524Z" fill="#fff"/>
    <path d="M268.769 147.212c9.662-4.036 14.222-15.141 10.185-24.803-4.037-9.662-15.142-14.223-24.804-10.186-9.662 4.037-14.222 15.142-10.185 24.804 4.037 9.662 15.142 14.222 24.804 10.185Z" fill="#fff"/>
    <path d="m266.247 119.306-4.408-1.048-5.179 21.793 4.408 1.048 5.179-21.793Z" fill="#6F46BE"/>
    <path d="m285.863 134.754-48.491-11.577c3.188-13.423 16.611-21.645 30.034-18.457 13.339 3.188 21.645 16.611 18.457 30.034Z" fill="#C0AFE9"/>
    <path opacity=".2" d="m285.863 134.754-48.491-11.577c3.188-13.423 16.611-21.645 30.034-18.457 13.339 3.188 21.645 16.611 18.457 30.034Z" fill="#fff"/>
    <path d="M381 2.095c-6.781-1.527-14.07-1.697-20.681.17-3.391.848-6.612 2.376-8.985 4.581-2.543 2.206-4.069 5.43-4.408 8.824-.339 3.393 1.018 6.617 3.052 9.332 1.017 1.358 2.373 2.376 3.729 3.394 1.356.848 2.882 1.527 4.577 1.697.848 0 1.526 0 2.035-.34.339-.17.508-.339.678-.678.169-.17.169-.34.169-.51 0-.17 0-.339.17-.339 0-1.188-1.187-2.715-2.374-3.733-2.542-2.206-5.594-3.902-8.645-5.26-6.272-2.884-13.223-4.581-20.004-4.072-3.39.34-6.78 1.018-9.832 2.715-3.051 1.527-5.594 3.733-7.628 6.617-1.187 1.358-1.865 2.885-2.882 4.242-.509.679-.678 1.527-1.017 2.376-.339.848-.678 1.527-.848 2.375-1.017 3.224-1.356 6.788-1.356 10.181.17 6.957 2.204 13.744 5.425 20.023-1.865-3.055-3.221-6.279-4.238-9.672-1.017-3.394-1.865-6.787-2.035-10.35-.169-3.564.17-7.127 1.187-10.521.17-.848.678-1.697.848-2.545.339-.849.508-1.697 1.017-2.376.847-1.527 1.695-3.224 2.882-4.581 2.034-2.885 4.746-5.43 7.967-7.127 3.221-1.697 6.781-2.545 10.341-2.884 7.12-.68 14.409 1.018 20.851 3.733 3.221 1.527 6.442 3.224 9.154 5.769.678.678 1.356 1.357 1.865 2.036.508.848 1.017 1.697 1.017 2.885-.17.678-.339 1.187-.678 1.527-.339.509-.678.848-1.187 1.018-1.017.509-2.034.678-3.051.509-2.035-.17-3.73-1.018-5.255-2.036-1.526-1.018-2.882-2.206-4.069-3.733-2.373-2.885-3.56-6.618-3.221-10.35.339-3.734 2.204-7.128 4.747-9.503 2.712-2.376 6.103-3.903 9.493-4.581 3.39-.849 6.95-1.019 10.51-.849 3.73.51 7.29 1.018 10.68 2.036Z" fill="#6F46BE"/>
    <path d="M317.978 65.987c-5.736-1.723-11.76 1.435-13.481 6.89-1.721 5.742 1.434 11.772 6.884 13.494 5.737 1.723 11.474-1.435 13.481-6.89 2.008-5.742-1.147-11.772-6.884-13.494Zm5.737 12.92c-1.434 4.88-6.884 7.751-11.76 6.029-4.876-1.723-7.745-6.89-6.024-11.772 1.434-4.88 6.884-7.752 11.761-6.029 4.876 1.435 7.744 6.89 6.023 11.771Zm-5.737-12.92c-5.736-1.723-11.76 1.435-13.481 6.89-1.721 5.742 1.434 11.772 6.884 13.494 5.737 1.723 11.474-1.435 13.481-6.89 2.008-5.742-1.147-11.772-6.884-13.494Zm5.737 12.92c-1.434 4.88-6.884 7.751-11.76 6.029-4.876-1.723-7.745-6.89-6.024-11.772 1.434-4.88 6.884-7.752 11.761-6.029 4.876 1.435 7.744 6.89 6.023 11.771Zm-5.737-12.92c-5.736-1.723-11.76 1.435-13.481 6.89-1.721 5.742 1.434 11.772 6.884 13.494 5.737 1.723 11.474-1.435 13.481-6.89 2.008-5.742-1.147-11.772-6.884-13.494Zm5.737 12.92c-1.434 4.88-6.884 7.751-11.76 6.029-4.876-1.723-7.745-6.89-6.024-11.772 1.434-4.88 6.884-7.752 11.761-6.029 4.876 1.435 7.744 6.89 6.023 11.771Zm-2.008-24.405c-11.76-3.732-24.381 2.871-28.11 14.643-3.729 11.771 2.869 24.404 14.629 28.136 11.76 3.733 24.381-2.87 28.11-14.642 3.729-11.772-2.868-24.404-14.629-28.137Zm4.876 25.266c-2.007 6.603-8.891 10.049-15.489 8.039-6.597-2.01-10.039-8.9-8.031-15.504 2.008-6.604 8.892-10.049 15.489-8.04 6.597 2.01 10.039 8.901 8.031 15.505Zm-1.434-.575c1.721-5.742-1.434-11.484-6.884-13.494-5.737-1.722-11.76 1.436-13.481 6.891-1.721 5.742 1.434 11.772 6.884 13.494 5.737 2.01 11.76-1.148 13.481-6.89Zm-1.434-.287c-1.434 4.881-6.884 7.752-11.76 6.03-4.876-1.723-7.745-6.89-6.024-11.772 1.434-4.88 6.884-7.752 11.761-6.029 4.876 1.435 7.744 6.89 6.023 11.771Zm-5.737-12.92c-5.736-1.722-11.76 1.436-13.481 6.891-1.721 5.742 1.434 11.772 6.884 13.494 5.737 1.723 11.474-1.435 13.481-6.89 2.008-5.742-1.147-11.772-6.884-13.494Zm5.737 12.92c-1.434 4.881-6.884 7.752-11.76 6.03-4.876-1.723-7.745-6.89-6.024-11.772 1.434-4.88 6.884-7.752 11.761-6.029 4.876 1.435 7.744 6.89 6.023 11.771Zm-5.737-12.92c-5.736-1.722-11.76 1.436-13.481 6.891-1.721 5.742 1.434 11.772 6.884 13.494 5.737 1.723 11.474-1.435 13.481-6.89 2.008-5.742-1.147-11.772-6.884-13.494Zm5.737 12.92c-1.434 4.881-6.884 7.752-11.76 6.03-4.876-1.723-7.745-6.89-6.024-11.772 1.434-4.88 6.884-7.752 11.761-6.029 4.876 1.435 7.744 6.89 6.023 11.771Z" fill="#6F46BE"/>
    <path d="m312.528 97.856-8.318-2.584-1.434 6.029 7.458 2.297 2.294-5.742ZM297.613 90.104l-4.016-7.465-5.163 3.158 3.729 6.89 5.45-2.583ZM292.737 74.313l2.581-8.326-6.023-1.436L287 72.016l5.737 2.297ZM300.481 59.383l7.745-4.02-3.442-5.167-6.884 3.445 2.581 5.742ZM316.257 54.502l8.319 2.584 1.434-6.03-7.458-2.296-2.295 5.742ZM331.173 61.967l4.016 7.752 5.163-3.158-3.442-6.89-5.737 2.296ZM336.336 78.045l-2.582 8.326 5.737 1.436 2.295-7.465-5.45-2.297ZM328.591 92.975l-7.744 4.02 3.155 5.167 6.884-3.732-2.295-5.455ZM112.421 191.734c-4.708-1.414-9.651 1.178-11.063 5.654-1.412 4.712 1.177 9.66 5.649 11.074 4.708 1.413 9.415-1.178 11.063-5.655 1.648-4.712-.942-9.659-5.649-11.073Zm4.707 10.602c-1.177 4.005-5.649 6.361-9.65 4.948-4.002-1.414-6.355-5.655-4.943-9.66 1.177-4.005 5.649-6.361 9.65-4.948 4.002 1.178 6.356 5.655 4.943 9.66Zm-4.707-10.602c-4.708-1.414-9.651 1.178-11.063 5.654-1.412 4.712 1.177 9.66 5.649 11.074 4.708 1.413 9.415-1.178 11.063-5.655 1.648-4.712-.942-9.659-5.649-11.073Zm4.707 10.602c-1.177 4.005-5.649 6.361-9.65 4.948-4.002-1.414-6.355-5.655-4.943-9.66 1.177-4.005 5.649-6.361 9.65-4.948 4.002 1.178 6.356 5.655 4.943 9.66Zm-4.707-10.602c-4.708-1.414-9.651 1.178-11.063 5.654-1.412 4.712 1.177 9.66 5.649 11.074 4.708 1.413 9.415-1.178 11.063-5.655 1.648-4.712-.942-9.659-5.649-11.073Zm4.707 10.602c-1.177 4.005-5.649 6.361-9.65 4.948-4.002-1.414-6.355-5.655-4.943-9.66 1.177-4.005 5.649-6.361 9.65-4.948 4.002 1.178 6.356 5.655 4.943 9.66Zm-1.647-20.026c-9.651-3.063-20.007 2.356-23.067 12.016-3.06 9.659 2.353 20.026 12.004 23.089 9.65 3.062 20.007-2.356 23.067-12.016 3.06-9.66-2.354-20.026-12.004-23.089Zm4.001 20.733c-1.647 5.419-7.297 8.246-12.71 6.597-5.414-1.649-8.239-7.304-6.591-12.723 1.648-5.419 7.297-8.246 12.711-6.597 5.413 1.65 8.238 7.304 6.59 12.723Zm-1.177-.471c1.413-4.712-1.177-9.424-5.649-11.074-4.707-1.413-9.65 1.178-11.063 5.655-1.412 4.712 1.177 9.659 5.649 11.073 4.708 1.649 9.651-.942 11.063-5.654Zm-1.177-.236c-1.177 4.005-5.649 6.361-9.65 4.948-4.002-1.414-6.355-5.655-4.943-9.66 1.177-4.005 5.649-6.361 9.65-4.948 4.002 1.178 6.356 5.655 4.943 9.66Zm-4.707-10.602c-4.708-1.414-9.651 1.178-11.063 5.654-1.412 4.712 1.177 9.66 5.649 11.074 4.708 1.413 9.415-1.178 11.063-5.655 1.648-4.712-.942-9.659-5.649-11.073Zm4.707 10.602c-1.177 4.005-5.649 6.361-9.65 4.948-4.002-1.414-6.355-5.655-4.943-9.66 1.177-4.005 5.649-6.361 9.65-4.948 4.002 1.178 6.356 5.655 4.943 9.66Zm-4.707-10.602c-4.708-1.414-9.651 1.178-11.063 5.654-1.412 4.712 1.177 9.66 5.649 11.074 4.708 1.413 9.415-1.178 11.063-5.655 1.648-4.712-.942-9.659-5.649-11.073Zm4.707 10.602c-1.177 4.005-5.649 6.361-9.65 4.948-4.002-1.414-6.355-5.655-4.943-9.66 1.177-4.005 5.649-6.361 9.65-4.948 4.002 1.178 6.356 5.655 4.943 9.66Z" fill="#6F46BE"/>
    <path d="m107.949 217.886-6.826-2.121-1.177 4.948 6.12 1.885 1.883-4.712ZM95.709 211.525l-3.295-6.126-4.237 2.592 3.06 5.654 4.472-2.12ZM91.708 198.566l2.118-6.832-4.943-1.178L87 196.682l4.708 1.884ZM98.063 186.315l6.355-3.298-2.825-4.241-5.649 2.827 2.119 4.712ZM111.009 182.31l6.826 2.12 1.176-4.947-6.119-1.885-1.883 4.712ZM123.248 188.436l3.295 6.361 4.237-2.592-2.824-5.654-4.708 1.885ZM127.485 201.629l-2.118 6.833 4.707 1.178 1.883-6.126-4.472-1.885ZM121.13 213.881l-6.355 3.298 2.589 4.241 5.649-3.063-1.883-4.476ZM181.189 338.571c14.464 0 26.19-17.122 26.19-38.243 0-21.12-11.726-38.242-26.19-38.242S155 279.208 155 300.328c0 21.121 11.725 38.243 26.189 38.243Z" fill="#6F46BE"/>
    <path d="M96.27 119.778c3.124-4.878 5.047-10.351 5.047-16.18 0-20.463-22.715-37-50.718-37-28.004 0-50.599 16.537-50.599 37s22.715 37 50.599 37c13.58 0 25.84-3.926 34.974-10.232L103 134.887l-6.73-15.109Z" fill="#F4679D"/>
    <path d="M27.399 110.598h-9.905V97.214h9.7v2.886h-6.14v2.333h5.526v2.803h-5.525v2.476h6.344v2.886Zm2.246-13.282a46.027 46.027 0 0 1 5.075-.266c2.196 0 3.786.376 4.768 1.126.996.737 1.494 1.889 1.494 3.458 0 1.719-.696 2.981-2.087 3.786l2.68 5.178h-3.929l-2.067-4.318c-.163.013-.43.02-.798.02h-1.575v4.298h-3.561V97.316Zm4.707 6.16c1.105 0 1.903-.136 2.394-.409.491-.287.736-.75.736-1.392 0-.627-.21-1.077-.634-1.35-.423-.287-1.07-.43-1.944-.43-.287 0-.853.014-1.699.04v3.541h1.147Zm9.262-6.16a46.029 46.029 0 0 1 5.075-.266c2.197 0 3.786.376 4.768 1.126.996.737 1.494 1.889 1.494 3.458 0 1.719-.696 2.981-2.087 3.786l2.68 5.178h-3.928l-2.067-4.318c-.164.013-.43.02-.798.02h-1.576v4.298h-3.561V97.316Zm4.707 6.16c1.105 0 1.903-.136 2.394-.409.491-.287.737-.75.737-1.392 0-.627-.212-1.077-.634-1.35-.423-.287-1.072-.43-1.945-.43-.286 0-.852.014-1.698.04v3.541h1.146Zm15.527 7.408c-1.405 0-2.626-.286-3.663-.859a6.015 6.015 0 0 1-2.395-2.456c-.545-1.05-.818-2.265-.818-3.643 0-1.309.293-2.496.88-3.56a6.54 6.54 0 0 1 2.435-2.517c1.05-.614 2.238-.921 3.56-.921 1.406 0 2.627.293 3.664.88a5.73 5.73 0 0 1 2.374 2.455c.56 1.051.839 2.265.839 3.643 0 1.323-.293 2.517-.88 3.581a6.39 6.39 0 0 1-2.435 2.497c-1.037.6-2.224.9-3.561.9Zm-.02-3.09c.968 0 1.746-.355 2.332-1.064.6-.723.9-1.664.9-2.824 0-1.228-.279-2.183-.838-2.865-.546-.696-1.324-1.044-2.333-1.044-.641 0-1.208.171-1.699.512-.49.327-.873.791-1.146 1.391-.273.587-.409 1.262-.409 2.026 0 1.201.28 2.149.839 2.845.573.682 1.358 1.023 2.353 1.023Zm9.364-10.478a46.029 46.029 0 0 1 5.075-.266c2.196 0 3.786.376 4.768 1.126.996.737 1.494 1.889 1.494 3.458 0 1.719-.696 2.981-2.088 3.786l2.681 5.178h-3.929l-2.067-4.318c-.163.013-.43.02-.798.02h-1.576v4.298h-3.56V97.316Zm4.706 6.16c1.105 0 1.904-.136 2.395-.409.49-.287.736-.75.736-1.392 0-.627-.211-1.077-.634-1.35-.423-.287-1.071-.43-1.944-.43-.287 0-.853.014-1.699.04v3.541h1.146Z" fill="#fff"/>
    <path d="m179.397 28.473-5.704 15.938 14.308-.267-1.961 21.727 13.144-3.252L179.6 78.755l.71-27.518-14.597-2.154 4.806-16.367-8.436-6.71 17.314 2.467ZM329.419 201.648l16.36 4.348-1.465-14.236 21.814.132-4.343-12.825 17.722 18.163-27.481 1.6-.923 14.725-16.712-3.416-5.979 8.969 1.007-17.46Z" fill="#F4679D"/>
</svg>
