<svg width="319" height="214" viewBox="0 0 319 214" fill="none" xmlns="http://www.w3.org/2000/svg">
<g clip-path="url(#clip0_2191_2491)">
<rect width="318.579" height="214" rx="7.17757" fill="#6F46BE"/>
<rect x="101.121" y="185.251" width="205.244" height="103.619" rx="51.8095" transform="rotate(13.9884 101.121 185.251)" stroke="white"/>
<rect x="-90.8316" y="75.2807" width="128.319" height="64.598" rx="32.299" transform="rotate(-37.3984 -90.8316 75.2807)" stroke="white"/>
<rect x="260.174" y="124.918" width="129.273" height="65.0822" rx="32.5411" transform="rotate(-47.0141 260.174 124.918)" stroke="white"/>
<g clip-path="url(#clip1_2191_2491)">
<path d="M133.286 102.673H130.767C128.57 102.673 126.373 102.673 124.173 102.673H114.771C111.19 102.673 107.609 102.673 104.031 102.673H93.157C89.9857 102.673 86.8143 102.673 83.6429 102.673C81.3334 102.673 79.0239 102.673 76.7145 102.673C75.7464 102.673 74.7752 102.692 73.8071 102.673C72.839 102.655 72.1562 101.89 72.1501 100.933C72.1501 100.644 72.1501 100.356 72.1501 100.07C72.1501 98.7246 72.1501 97.3759 72.1501 96.0303C72.1501 94.6847 72.1501 91.5925 72.1501 89.372C72.1501 86.4864 72.1501 83.6007 72.1501 80.7151C72.1501 77.3647 72.1501 74.0143 72.1501 70.667C72.1501 67.3196 72.1501 63.4468 72.1501 59.8352C72.1501 56.2236 72.1501 52.4996 72.1501 48.8303C72.1501 45.1609 72.1501 41.7832 72.1501 38.2597C72.1501 35.0855 72.1501 31.9082 72.1501 28.734C72.1501 26.1096 72.1501 23.4852 72.1501 20.8608C72.1501 18.9897 72.1501 17.1185 72.1501 15.2474V12.5045C72.1501 11.5447 72.7631 10.7185 73.7859 10.6972C74.0196 10.6911 74.2532 10.6972 74.4869 10.6972C76.0863 10.6972 77.6886 10.6972 79.288 10.6972H87.4971C90.9204 10.6972 94.3406 10.6972 97.7639 10.6972C101.424 10.6972 105.081 10.6972 108.741 10.6972C112.185 10.6972 115.633 10.6972 119.077 10.6972C121.86 10.6972 124.643 10.6972 127.426 10.6972C129.095 10.6972 130.767 10.6972 132.436 10.6972C132.713 10.6972 132.992 10.6911 133.271 10.6972C134.263 10.7185 134.916 11.4991 134.919 12.4529C134.922 13.3125 134.919 14.1721 134.919 15.0318C134.919 16.8573 134.919 18.6859 134.919 20.5115C134.919 22.337 134.919 25.6935 134.919 28.2845C134.919 31.4374 134.919 34.5873 134.919 37.7403C134.919 40.8932 134.919 44.76 134.919 48.2714C134.919 51.7827 134.919 55.6039 134.919 59.2672C134.919 62.9304 134.919 66.5025 134.919 70.1233C134.919 73.4797 134.919 76.8362 134.919 80.1957C134.919 83.5552 134.919 86.046 134.919 88.9741C134.919 91.9023 134.919 93.4788 134.919 95.7326V100.875C134.919 101.835 134.309 102.658 133.283 102.682C132.843 102.695 132.843 103.378 133.283 103.366C134.637 103.329 135.596 102.26 135.602 100.933C135.602 100.635 135.602 100.341 135.602 100.043V89.1382C135.602 86.2009 135.602 83.2666 135.602 80.3293V70.1628C135.602 66.5208 135.602 62.8757 135.602 59.2338C135.602 55.531 135.602 51.8283 135.602 48.1255C135.602 44.4228 135.602 41.0664 135.602 37.5368C135.602 34.0072 135.602 31.2126 135.602 28.0506V14.8465C135.602 14.0324 135.608 13.2214 135.602 12.4073C135.593 11.0921 134.609 10.0381 133.28 10.0107C133.019 10.0047 132.758 10.0107 132.497 10.0107C130.84 10.0107 129.18 10.0107 127.523 10.0107C124.731 10.0107 121.939 10.0107 119.147 10.0107C115.666 10.0107 112.188 10.0107 108.707 10.0107C105.023 10.0107 101.339 10.0107 97.6576 10.0107C94.2192 10.0107 90.7777 10.0107 87.3393 10.0107C84.5958 10.0107 81.8524 10.0107 79.1089 10.0107C77.5399 10.0107 75.9709 10.0107 74.4019 10.0107C74.0954 10.0107 73.7798 9.99556 73.4763 10.035C72.2472 10.1991 71.4734 11.2652 71.4673 12.459C71.4673 13.3459 71.4673 14.2299 71.4673 15.1138V28.5791C71.4673 31.7807 71.4673 34.9852 71.4673 38.1868C71.4673 41.3883 71.4673 45.2794 71.4673 48.8272C71.4673 52.375 71.4673 56.2145 71.4673 59.9081C71.4673 63.6017 71.4673 67.1981 71.4673 70.8432C71.4673 74.4882 71.4673 77.5743 71.4673 80.9368C71.4673 84.2994 71.4673 86.7203 71.4673 89.609C71.4673 91.8233 71.4673 94.0377 71.4673 96.252C71.4673 97.5673 71.4673 98.8825 71.4673 100.198C71.4673 100.456 71.4673 100.717 71.4673 100.975C71.4764 102.288 72.4748 103.329 73.795 103.357C74.7449 103.378 75.6948 103.357 76.6447 103.357C78.9481 103.357 81.2515 103.357 83.5579 103.357H93.157C96.8079 103.357 100.456 103.357 104.107 103.357C107.757 103.357 111.335 103.357 114.95 103.357C118.082 103.357 121.214 103.357 124.346 103.357C126.54 103.357 128.737 103.357 130.931 103.357H133.289C133.729 103.357 133.729 102.673 133.289 102.673H133.286Z" fill="#553597"/>
<path d="M131.022 100.811H128.606C126.488 100.811 124.367 100.811 122.249 100.811C119.271 100.811 116.294 100.811 113.317 100.811H103.117C99.7243 100.811 96.3314 100.811 92.9354 100.811H84.1436C82.1254 100.811 80.1073 100.811 78.0922 100.811H76.4837C75.9284 100.811 75.4064 100.802 74.9542 100.395C74.2441 99.7572 74.3988 98.7001 74.3988 97.8375C74.3988 96.4341 74.3988 95.0308 74.3988 93.6275C74.3988 91.4344 74.3988 89.2413 74.3988 87.0482C74.3988 84.8551 74.3988 81.4865 74.3988 78.7041C74.3988 75.9218 74.3988 72.298 74.3988 69.0964C74.3988 65.6823 74.3988 62.2681 74.3988 58.8539C74.3988 55.4398 74.3988 51.9253 74.3988 48.4626C74.3988 44.9998 74.3988 41.8347 74.3988 38.5208C74.3988 35.5561 74.3988 32.5885 74.3988 29.6239C74.3988 26.6593 74.3988 24.7183 74.3988 22.264C74.3988 20.5235 74.3988 18.783 74.3988 17.0425C74.3988 15.302 74.3988 15.3627 74.3988 14.5244C74.3988 13.5645 75.0301 12.7474 76.0467 12.7261C76.2713 12.7201 76.4959 12.7261 76.7174 12.7261C78.2561 12.7261 79.7978 12.7261 81.3364 12.7261C83.9615 12.7261 86.5836 12.7261 89.2087 12.7261H98.9625C102.419 12.7261 105.879 12.7261 109.335 12.7261C112.543 12.7261 115.751 12.7261 118.962 12.7261C121.469 12.7261 123.975 12.7261 126.482 12.7261C127.86 12.7261 129.238 12.7261 130.612 12.7261C131.241 12.7261 131.836 12.7808 132.285 13.3185C132.622 13.7225 132.667 14.1811 132.667 14.6671V23.0476C132.667 25.5749 132.667 28.099 132.667 30.6263V39.7115C132.667 43.0406 132.667 46.3728 132.667 49.7019C132.667 53.031 132.667 56.6153 132.667 60.072C132.667 63.5287 132.667 66.8912 132.667 70.3023C132.667 73.7135 132.667 76.6265 132.667 79.7916V99.013C132.667 99.9759 132.036 100.787 131.019 100.814C130.579 100.826 130.579 101.51 131.019 101.498C132.364 101.461 133.341 100.398 133.35 99.0707C133.35 98.8034 133.35 98.5361 133.35 98.2688V94.4415C133.35 92.3396 133.35 90.2346 133.35 88.1326C133.35 86.0306 133.35 82.6559 133.35 79.9191C133.35 76.7358 133.35 73.5555 133.35 70.3722V60.072C133.35 56.5788 133.35 53.0826 133.35 49.5895C133.35 46.0963 133.35 42.8644 133.35 39.5019C133.35 36.1394 133.35 33.442 133.35 30.4136C133.35 27.8803 133.35 25.344 133.35 22.8107V14.5973C133.35 13.8865 133.168 13.203 132.634 12.6927C132.1 12.1824 131.392 12.0457 130.67 12.0457C129.311 12.0457 127.951 12.0457 126.591 12.0457C124.069 12.0457 121.548 12.0457 119.026 12.0457C115.797 12.0457 112.568 12.0457 109.335 12.0457C105.852 12.0457 102.371 12.0457 98.8867 12.0457C95.606 12.0457 92.3254 12.0457 89.0448 12.0457H76.6416C76.3593 12.0457 76.068 12.0306 75.7888 12.064C74.5445 12.2098 73.7251 13.2699 73.719 14.4879C73.716 15.2929 73.719 16.1008 73.719 16.9058C73.719 18.6402 73.719 20.3746 73.719 22.109C73.719 23.8435 73.719 27.0025 73.719 29.4507C73.719 31.899 73.719 35.4559 73.719 38.46C73.719 41.4641 73.719 45.1092 73.719 48.4322C73.719 51.7552 73.719 55.4094 73.719 58.8995C73.719 62.3896 73.719 65.8007 73.719 69.2514C73.719 72.702 73.719 75.6909 73.719 78.9107V93.8522C73.719 95.2313 73.719 96.6073 73.719 97.9863C73.719 99.3653 73.6128 100.225 74.6204 101.009C75.5156 101.707 76.9268 101.501 78.0011 101.501C80.0132 101.501 82.0253 101.501 84.0343 101.501C86.9902 101.501 89.9461 101.501 92.902 101.501C96.3071 101.501 99.7121 101.501 103.117 101.501C106.522 101.501 110.012 101.501 113.46 101.501C116.446 101.501 119.432 101.501 122.419 101.501H131.022C131.462 101.501 131.462 100.817 131.022 100.817V100.811Z" fill="#553597"/>
<path d="M74.402 53.8967V28.2722C74.402 27.9441 74.4657 27.5432 74.402 27.2212C74.402 27.206 74.402 27.1878 74.402 27.1726L74.0621 27.5128H90.9052C93.154 27.5128 95.4028 27.4915 97.6516 27.5128C97.7942 27.5128 97.9308 27.5219 98.0704 27.5675C98.8686 27.8226 98.9141 28.5972 98.9111 29.3019C98.8959 31.2004 98.8837 33.0988 98.8686 34.9942C98.8382 38.8154 98.8109 42.6366 98.7806 46.4578C98.7229 54.1002 98.6652 61.7426 98.6076 69.382C98.6015 70.3175 98.5924 71.2531 98.5863 72.1917C98.5833 72.6321 99.2661 72.6321 99.2692 72.1917C99.3268 64.4248 99.3875 56.6548 99.4452 48.8878C99.4755 45.015 99.5028 41.1452 99.5332 37.2724C99.5484 35.3496 99.5635 33.4269 99.5757 31.5041C99.5817 30.5534 99.6698 29.5631 99.5878 28.6154C99.5362 28.0019 99.2085 27.4308 98.6804 27.1058C98.0461 26.7139 97.16 26.8324 96.4438 26.8324H81.3001C78.9269 26.8324 76.5476 26.7777 74.1744 26.8324C74.138 26.8324 74.0985 26.8324 74.059 26.8324C73.8739 26.8324 73.7192 26.9904 73.7192 27.1726V50.5919C73.7192 51.6672 73.6402 52.7728 73.7192 53.8481C73.7192 53.8633 73.7192 53.8815 73.7192 53.8967C73.7192 54.3372 74.402 54.3372 74.402 53.8967Z" fill="#553597"/>
<path d="M84.3501 39.4108H77.6523L77.9922 39.751V31.1609L77.6523 31.5011H84.3501L84.0102 31.1609V39.751C84.0102 40.1914 84.693 40.1914 84.693 39.751V31.1609C84.693 30.9756 84.5352 30.8207 84.3531 30.8207H77.6553C77.4702 30.8207 77.3154 30.9786 77.3154 31.1609V39.751C77.3154 39.9363 77.4732 40.0912 77.6553 40.0912H84.3531C84.7932 40.0912 84.7932 39.4078 84.3531 39.4078L84.3501 39.4108Z" fill="#553597"/>
<path d="M74.062 72.5349H105.035C105.512 72.5349 106.018 72.4742 106.343 72.9237C106.589 73.2639 106.519 73.7773 106.519 74.1782V100.775C106.519 101.215 107.202 101.215 107.202 100.775V74.9194C107.202 74.4607 107.208 74.0051 107.202 73.5464C107.193 72.5896 106.501 71.8667 105.536 71.8515C104.358 71.8363 103.181 71.8515 102.003 71.8515C99.5634 71.8515 97.1204 71.8515 94.6804 71.8515C91.7731 71.8515 88.8657 71.8515 85.9584 71.8515H74.062C73.6219 71.8515 73.6219 72.5349 74.062 72.5349Z" fill="#553597"/>
<path d="M95.2451 39.4108H88.5473L88.8872 39.751V31.1609L88.5473 31.5011H95.2451L94.9052 31.1609V39.751C94.9052 40.1914 95.5881 40.1914 95.5881 39.751V31.1609C95.5881 30.9756 95.4302 30.8207 95.2482 30.8207H88.5503C88.3652 30.8207 88.2104 30.9786 88.2104 31.1609V39.751C88.2104 39.9363 88.3683 40.0912 88.5503 40.0912H95.2482C95.6882 40.0912 95.6882 39.4078 95.2482 39.4078L95.2451 39.4108Z" fill="#553597"/>
<path d="M84.3501 54.2642H77.6523L77.9922 54.6044V46.0143L77.6523 46.3545H84.3501L84.0102 46.0143V54.6044C84.0102 55.0449 84.693 55.0449 84.693 54.6044V46.0143C84.693 45.829 84.5352 45.6741 84.3531 45.6741H77.6553C77.4702 45.6741 77.3154 45.8321 77.3154 46.0143V54.6044C77.3154 54.7897 77.4732 54.9446 77.6553 54.9446H84.3531C84.7932 54.9446 84.7932 54.2612 84.3531 54.2612L84.3501 54.2642Z" fill="#553597"/>
<path d="M95.2451 54.2642H88.5473L88.8872 54.6044V46.0143L88.5473 46.3545H95.2451L94.9052 46.0143V54.6044C94.9052 55.0449 95.5881 55.0449 95.5881 54.6044V46.0143C95.5881 45.829 95.4302 45.6741 95.2482 45.6741H88.5503C88.3652 45.6741 88.2104 45.8321 88.2104 46.0143V54.6044C88.2104 54.7897 88.3683 54.9446 88.5503 54.9446H95.2482C95.6882 54.9446 95.6882 54.2612 95.2482 54.2612L95.2451 54.2642Z" fill="#553597"/>
<path d="M84.7627 68.8504H78.0649L78.4048 69.1906V60.6005L78.0649 60.9407H84.7627L84.4228 60.6005V69.1906C84.4228 69.6311 85.1056 69.6311 85.1056 69.1906V60.6005C85.1056 60.4152 84.9478 60.2603 84.7657 60.2603H78.0679C77.8828 60.2603 77.728 60.4183 77.728 60.6005V69.1906C77.728 69.3759 77.8858 69.5308 78.0679 69.5308H84.7657C85.2058 69.5308 85.2058 68.8474 84.7657 68.8474L84.7627 68.8504Z" fill="#553597"/>
<path d="M95.2451 68.8504H88.5473L88.8872 69.1906V60.6005L88.5473 60.9407H95.2451L94.9052 60.6005V69.1906C94.9052 69.6311 95.5881 69.6311 95.5881 69.1906V60.6005C95.5881 60.4152 95.4302 60.2603 95.2482 60.2603H88.5503C88.3652 60.2603 88.2104 60.4183 88.2104 60.6005V69.1906C88.2104 69.3759 88.3683 69.5308 88.5503 69.5308H95.2482C95.6882 69.5308 95.6882 68.8474 95.2482 68.8474L95.2451 68.8504Z" fill="#553597"/>
<path d="M132.904 40.1914H125.909C122.376 40.1914 118.847 40.1914 115.314 40.1914H113.93C113.618 40.1914 113.308 40.1732 113.011 40.3008C112.285 40.6197 112.197 41.3153 112.203 42.02C112.213 43.0072 112.222 43.9944 112.234 44.9786C112.252 46.953 112.273 48.9243 112.291 50.8987C112.37 58.7659 112.446 66.6331 112.525 74.5002C112.604 82.3917 112.683 90.2862 112.759 98.1777C112.768 99.1376 112.777 100.1 112.786 101.06C112.789 101.501 113.472 101.501 113.469 101.06C113.393 93.2691 113.314 85.4778 113.238 77.6866C113.162 69.944 113.083 62.2044 113.008 54.4617C112.968 50.5646 112.932 46.6705 112.892 42.7733C112.886 42.1719 112.628 40.9296 113.524 40.8688C113.575 40.8658 113.624 40.8688 113.675 40.8688H124.722C127.402 40.8688 130.088 40.9144 132.767 40.8688C132.813 40.8688 132.858 40.8688 132.904 40.8688C133.344 40.8688 133.344 40.1854 132.904 40.1854V40.1914Z" fill="#553597"/>
<path d="M124.337 60.7433H118.762L119.102 61.0835V51.4272L118.762 51.7674H124.337L123.997 51.4272V61.0835C123.997 61.5239 124.68 61.5239 124.68 61.0835V51.4272C124.68 51.2419 124.522 51.087 124.34 51.087H118.765C118.58 51.087 118.425 51.2449 118.425 51.4272V61.0835C118.425 61.2687 118.583 61.4237 118.765 61.4237H124.34C124.78 61.4237 124.78 60.7402 124.34 60.7402L124.337 60.7433Z" fill="#553597"/>
<path d="M124.337 78.4763H118.762L119.102 78.8165V69.1603L118.762 69.5005H124.337L123.997 69.1603V78.8165C123.997 79.257 124.68 79.257 124.68 78.8165V69.1603C124.68 68.975 124.522 68.8201 124.34 68.8201H118.765C118.58 68.8201 118.425 68.978 118.425 69.1603V78.8165C118.425 79.0018 118.583 79.1567 118.765 79.1567H124.34C124.78 79.1567 124.78 78.4733 124.34 78.4733L124.337 78.4763Z" fill="#553597"/>
<path d="M121.548 97.1267H115.973L116.313 97.4669V87.8106L115.973 88.1508H121.548L121.208 87.8106V97.4669C121.208 97.9073 121.89 97.9073 121.89 97.4669V87.8106C121.89 87.6253 121.733 87.4704 121.551 87.4704H115.976C115.791 87.4704 115.636 87.6284 115.636 87.8106V97.4669C115.636 97.6522 115.794 97.8071 115.976 97.8071H121.551C121.991 97.8071 121.991 97.1236 121.551 97.1236L121.548 97.1267Z" fill="#553597"/>
<path d="M129.468 97.1267H123.894L124.233 97.4669V87.8106L123.894 88.1508H129.468L129.129 87.8106V97.4669C129.129 97.9073 129.811 97.9073 129.811 97.4669V87.8106C129.811 87.6253 129.654 87.4704 129.471 87.4704H123.897C123.711 87.4704 123.557 87.6284 123.557 87.8106V97.4669C123.557 97.6522 123.714 97.8071 123.897 97.8071H129.471C129.912 97.8071 129.912 97.1236 129.471 97.1236L129.468 97.1267Z" fill="#553597"/>
<path d="M130.075 44.9208H115.366L115.706 45.261V43.7179L115.366 44.0582H130.075L129.735 43.7179V45.261C129.735 45.7014 130.418 45.7014 130.418 45.261V43.7179C130.418 43.5327 130.26 43.3777 130.078 43.3777H115.369C115.184 43.3777 115.029 43.5357 115.029 43.7179V45.261C115.029 45.4463 115.187 45.6012 115.369 45.6012H130.078C130.518 45.6012 130.518 44.9178 130.078 44.9178L130.075 44.9208Z" fill="#553597"/>
<path d="M206.754 48.7864H182.203C179.376 48.7864 177.084 51.0801 177.084 53.9094V73.3591C177.084 76.1885 179.376 78.4821 182.203 78.4821H206.754C209.58 78.4821 211.872 76.1885 211.872 73.3591V53.9094C211.872 51.0801 209.58 48.7864 206.754 48.7864Z" fill="white"/>
<path d="M207.595 78.2944H184.685C183.668 78.2944 182.539 78.4122 181.527 78.2194C179.863 77.9087 178.445 76.6928 177.931 75.0698C177.728 74.4324 177.706 73.795 177.706 73.1415C177.706 68.9207 177.706 64.6946 177.706 60.4738V54.6514C177.706 54.3139 177.706 53.9818 177.706 53.6444C177.728 52.0161 178.557 50.4895 179.965 49.6432C181.222 48.8879 182.576 48.979 183.968 48.979H204.025C205.187 48.979 206.353 48.9736 207.515 48.979C210.153 48.9951 212.229 51.0573 212.256 53.698C212.294 57.4581 212.256 61.2183 212.256 64.9731V71.5828C212.256 73.0344 212.411 74.5717 211.678 75.8894C210.849 77.3838 209.297 78.2676 207.6 78.2997C206.824 78.3104 206.824 79.5156 207.6 79.5049C210.859 79.4513 213.428 76.8374 213.46 73.5808C213.476 72.1667 213.46 70.7526 213.46 69.3439V55.1388C213.46 53.3177 213.423 51.6036 212.24 50.0663C211.175 48.679 209.532 47.8435 207.787 47.7792C207.477 47.7685 207.172 47.7792 206.862 47.7792H193.98C190.17 47.7792 186.365 47.7685 182.555 47.7792C179.826 47.7845 177.337 49.5093 176.673 52.2303C176.352 53.5426 176.502 55.037 176.502 56.3815C176.502 61.2236 176.502 66.0712 176.502 70.9133C176.502 72.2256 176.358 73.6825 176.657 74.9734C177.289 77.7319 179.799 79.4995 182.56 79.5103C186.371 79.521 190.175 79.5103 193.986 79.5103H207.606C208.382 79.5103 208.382 78.3051 207.606 78.3051L207.595 78.2944Z" fill="#553597"/>
<path d="M146.175 197.939H144.266C143.629 182.417 142.995 166.892 142.357 151.371H148.084C147.447 166.892 146.813 182.417 146.175 197.939Z" fill="white"/>
<path d="M146.175 197.596H144.266L144.606 197.936C144.357 191.867 144.108 185.801 143.859 179.732C143.611 173.69 143.365 167.649 143.116 161.604C142.976 158.19 142.837 154.779 142.697 151.365L142.357 151.705H148.084L147.744 151.365C147.495 157.434 147.246 163.5 146.997 169.569C146.749 175.61 146.503 181.652 146.254 187.696C146.114 191.111 145.975 194.522 145.835 197.936C145.817 198.376 146.5 198.376 146.518 197.936C146.767 191.867 147.016 185.801 147.265 179.732C147.513 173.663 147.759 167.649 148.008 161.604C148.148 158.19 148.287 154.779 148.427 151.365C148.433 151.179 148.263 151.024 148.087 151.024H142.36C142.181 151.024 142.011 151.182 142.02 151.365C142.269 157.434 142.518 163.5 142.767 169.569C143.016 175.637 143.262 181.652 143.51 187.696C143.65 191.111 143.79 194.522 143.929 197.936C143.935 198.121 144.081 198.276 144.269 198.276H146.178C146.618 198.276 146.618 197.593 146.178 197.593L146.175 197.596Z" fill="#553597"/>
<path d="M132.813 203.528H157.629C156.269 202.273 153.878 200.469 149.993 199.057C148.652 198.571 147.353 198.209 146.175 197.939H144.266C143.089 198.209 141.79 198.568 140.449 199.057C136.564 200.469 134.173 202.27 132.813 203.528Z" fill="white"/>
<path d="M132.813 203.868H157.629C157.914 203.868 158.093 203.489 157.871 203.285C154.976 200.621 151.295 198.935 147.526 197.921C147.086 197.802 146.606 197.629 146.151 197.596C145.929 197.581 145.702 197.596 145.48 197.596C144.91 197.596 144.36 197.562 143.805 197.696C141.493 198.252 139.229 199.045 137.116 200.141C135.478 200.992 133.933 202.034 132.57 203.285C132.246 203.583 132.731 204.066 133.053 203.768C135.845 201.201 139.402 199.582 143.031 198.598C143.438 198.489 143.881 198.325 144.297 198.279C144.512 198.255 144.74 198.279 144.958 198.279C145.517 198.279 146.036 198.252 146.576 198.382C148.806 198.926 150.991 199.692 153.031 200.755C154.6 201.575 156.081 202.565 157.386 203.765L157.629 203.182H132.813C132.373 203.182 132.373 203.865 132.813 203.865V203.868Z" fill="#553597"/>
<path d="M137.477 79.011C132.886 78.1331 118.829 75.9309 112.671 83.3607C111.069 85.2926 110.613 87.1546 109.906 90.0858C108.037 97.8345 109.906 106.534 113.724 123.614C114.489 127.037 115.521 130.858 117.542 138.516C120.631 150.226 121.296 151.945 123.268 153.418C125.007 154.718 130.154 154.906 140.448 155.28C146.345 155.496 145.951 155.225 151.902 155.28C165.668 155.408 169.249 156.234 172.9 153.418C173.573 152.899 176.013 150.964 176.717 147.829C177.682 143.534 174.757 139.816 170.991 134.789C166.405 128.671 162.166 122.314 157.628 116.163C152.375 109.037 149.277 104.836 146.175 99.3988C141.702 91.5529 139.074 84.3813 137.477 79.0079V79.011Z" fill="white"/>
<path d="M137.569 78.6829C134.795 78.1544 131.981 77.7959 129.156 77.6987C125.502 77.5742 121.706 77.8537 118.258 79.1507C116.556 79.7916 114.947 80.6877 113.594 81.9087C112.097 83.2574 111.044 84.9402 110.419 86.8508C109.39 89.9855 108.841 93.2782 108.835 96.5739C108.829 100.088 109.318 103.594 109.915 107.05C110.753 111.883 111.83 116.676 112.896 121.463C113.694 125.042 114.574 128.595 115.506 132.14C116.756 136.894 117.952 141.666 119.342 146.38C119.73 147.701 120.134 149.026 120.656 150.299C120.968 151.061 121.32 151.817 121.821 152.476C122.212 152.99 122.692 153.455 123.232 153.81C123.997 154.311 124.956 154.518 125.842 154.682C127.347 154.955 128.88 155.077 130.403 155.18C132.664 155.332 134.931 155.42 137.195 155.508C139.641 155.602 142.087 155.72 144.533 155.711C146.108 155.705 147.684 155.638 149.262 155.623C153.911 155.584 158.554 155.787 163.2 155.833C165.628 155.857 168.238 155.93 170.56 155.104C172.882 154.278 174.927 152.422 176.126 150.295C177.179 148.427 177.507 146.271 177 144.184C176.46 141.951 175.158 139.953 173.85 138.1C172.184 135.737 170.396 133.455 168.703 131.111C167.009 128.766 165.27 126.293 163.565 123.875C160.293 119.231 156.903 114.674 153.577 110.067C151.046 106.561 148.612 102.992 146.47 99.2348C143.817 94.5813 141.553 89.7091 139.711 84.679C139.016 82.7836 138.382 80.8638 137.805 78.9289C137.681 78.5098 137.019 78.689 137.147 79.1112C138.43 83.4154 140.002 87.6314 141.863 91.7199C143.893 96.1881 146.266 100.498 148.955 104.602C151.644 108.706 154.451 112.436 157.289 116.287C160.742 120.971 164.026 125.774 167.419 130.5C169.1 132.842 170.845 135.135 172.548 137.465C173.938 139.366 175.385 141.368 176.126 143.631C176.793 145.672 176.663 147.811 175.661 149.721C174.954 151.067 173.841 152.285 172.687 153.169C171.106 154.378 169.288 154.891 167.325 155.058C163.944 155.344 160.506 155.11 157.122 155.037C154.536 154.982 151.947 154.931 149.362 154.952C147.79 154.964 146.221 155.031 144.652 155.04C142.276 155.052 139.902 154.937 137.529 154.849C135.156 154.761 132.995 154.676 130.734 154.53C129.211 154.433 127.678 154.323 126.17 154.059C125.299 153.907 124.358 153.725 123.618 153.257C123.196 152.99 122.677 152.498 122.379 152.103C121.897 151.462 121.551 150.724 121.253 149.983C120.741 148.698 120.337 147.364 119.948 146.037C119.308 143.85 118.719 141.645 118.137 139.439C117.017 135.208 115.87 130.983 114.814 126.736C113.757 122.49 112.844 118.186 111.94 113.897C111.093 109.878 110.28 105.838 109.824 101.753C109.488 98.7245 109.354 95.6414 109.776 92.613C110.019 90.8694 110.437 89.132 110.947 87.4492C111.533 85.5173 112.513 83.8315 114.009 82.4616C116.686 80.0103 120.364 78.9563 123.9 78.5675C127.435 78.1787 130.719 78.364 134.088 78.8135C135.192 78.9624 136.294 79.1446 137.386 79.3542C137.814 79.4362 137.999 78.7771 137.569 78.695V78.6829Z" fill="#553597"/>
<path d="M118.75 86.3465C120.379 93.7733 122.082 101.185 123.857 108.578C125.633 115.971 127.463 123.271 129.378 130.588C130.598 135.254 132.179 140.302 136.115 143.415C137.523 144.53 139.138 145.329 140.904 145.66C142.892 146.034 144.949 146.019 146.964 146.037C153.149 146.092 159.331 146.14 165.513 146.347C166.029 146.365 166.542 146.383 167.058 146.401C167.498 146.417 167.498 145.733 167.058 145.718C161.149 145.502 155.24 145.399 149.328 145.369C146.976 145.356 144.597 145.414 142.251 145.168C140.779 145.016 139.374 144.64 138.078 143.914C133.581 141.399 131.636 136.292 130.352 131.581C128.467 124.668 126.771 117.694 125.083 110.729C123.396 103.764 121.63 96.179 120.009 88.8768C119.809 87.9716 119.609 87.0695 119.411 86.1643C119.317 85.736 118.659 85.9152 118.753 86.3465H118.75Z" fill="#553597"/>
<path d="M191.858 189.297C191.974 191.824 192.071 194.382 192.153 196.973C192.223 199.245 192.277 201.49 192.317 203.713C201.087 203.762 209.858 203.814 218.625 203.862C218.835 203.41 219.639 201.554 218.82 199.765C218.313 198.659 217.436 198.103 216.392 197.465C215.36 196.833 213.49 195.898 210.774 195.606C210.073 194.203 209.372 192.803 208.671 191.399C203.066 190.698 197.464 189.996 191.858 189.294V189.297Z" fill="white"/>
<path d="M191.518 189.297C191.737 194.1 191.889 198.908 191.977 203.716C191.98 203.902 192.131 204.057 192.316 204.057C199.145 204.096 205.976 204.132 212.804 204.172C214.744 204.184 216.686 204.193 218.625 204.205C218.737 204.205 218.871 204.142 218.92 204.035C219.69 202.365 219.818 200.314 218.625 198.802C218.052 198.073 217.241 197.571 216.452 197.104C215.8 196.715 215.111 196.39 214.404 196.116C213.235 195.67 212.015 195.403 210.774 195.263L211.068 195.433L209.135 191.566C208.99 191.272 208.938 191.092 208.595 191.047C208.219 190.998 207.846 190.953 207.469 190.907L205.366 190.643C202.489 190.281 199.612 189.923 196.735 189.561L191.855 188.951C191.421 188.896 191.424 189.58 191.855 189.634C197.46 190.336 203.063 191.038 208.668 191.739L208.374 191.569L209.39 193.604C209.739 194.3 210.052 195.035 210.44 195.709C210.61 196.004 210.929 195.962 211.238 196.004C211.566 196.053 211.894 196.11 212.219 196.18C212.813 196.308 213.399 196.475 213.97 196.681C214.792 196.976 215.572 197.362 216.316 197.82C217.326 198.44 218.288 199.124 218.662 200.311C219.008 201.42 218.807 202.647 218.328 203.686L218.622 203.516C211.794 203.476 204.962 203.44 198.134 203.4C196.195 203.388 194.253 203.379 192.313 203.367L192.653 203.707C192.568 198.899 192.414 194.093 192.195 189.288C192.174 188.851 191.491 188.848 191.512 189.288L191.518 189.297Z" fill="#553597"/>
<path d="M192.122 193.781C193.676 193.331 195.397 193.231 196.85 194.057C197.897 194.652 198.538 195.706 199.485 196.426C200.431 197.146 201.445 197.429 202.574 197.435C203.909 197.444 205.263 197.271 206.586 197.104C208.316 196.888 210.031 196.569 211.727 196.159C212.155 196.056 211.973 195.397 211.545 195.5C209.997 195.876 208.431 196.177 206.85 196.387C205.515 196.563 204.152 196.727 202.805 196.751C201.651 196.77 200.601 196.493 199.706 195.734C198.811 194.974 198.137 193.954 197.051 193.389C195.46 192.556 193.624 192.638 191.943 193.124C191.521 193.246 191.7 193.905 192.125 193.784L192.122 193.781Z" fill="#553597"/>
<path d="M192.277 201.8C201.245 201.891 210.213 201.985 219.18 202.076C219.007 203.598 218.534 203.817 218.376 203.862C218.306 203.883 218.249 203.883 217.69 203.853C217.114 203.82 216.825 203.804 216.665 203.789C215.25 203.662 212.549 203.795 212.549 203.795C210.926 203.829 208.613 203.862 205.245 203.862C202.307 203.862 198.007 203.835 192.313 203.713C192.301 203.075 192.289 202.438 192.277 201.8Z" fill="#553597"/>
<path d="M212.009 199.175C212.203 198.556 212.531 197.982 212.977 197.508C213.077 197.401 213.181 197.301 213.29 197.204C213.341 197.158 213.393 197.116 213.445 197.073C213.505 197.025 213.511 197.019 213.554 196.988C213.727 196.861 213.906 196.742 214.091 196.636C214.473 196.417 214.13 195.828 213.745 196.047C212.607 196.697 211.742 197.735 211.351 198.993C211.22 199.415 211.879 199.594 212.009 199.175Z" fill="#553597"/>
<path d="M214.097 199.552C214.328 199.039 214.625 198.595 215.005 198.203C215.168 198.033 215.344 197.878 215.527 197.732C215.557 197.708 215.49 197.757 215.542 197.72C215.566 197.702 215.59 197.684 215.615 197.669C215.654 197.641 215.69 197.614 215.73 197.587C215.809 197.532 215.888 197.48 215.97 197.429C216.127 197.331 216.188 197.122 216.091 196.961C215.994 196.8 215.781 196.742 215.624 196.839C214.707 197.407 213.952 198.221 213.505 199.209C213.43 199.376 213.457 199.576 213.627 199.676C213.772 199.761 214.018 199.722 214.094 199.555L214.097 199.552Z" fill="#553597"/>
<path d="M176.205 189.06C176.32 191.587 176.417 194.145 176.499 196.736C176.569 199.008 176.623 201.253 176.663 203.476C185.433 203.525 194.204 203.577 202.972 203.625C203.181 203.173 203.985 201.317 203.166 199.528C202.659 198.422 201.782 197.866 200.738 197.228C199.706 196.596 197.837 195.661 195.121 195.369L193.017 191.162C187.412 190.461 181.81 189.759 176.205 189.057V189.06Z" fill="white"/>
<path d="M175.862 189.06C176.08 193.863 176.232 198.671 176.32 203.479C176.323 203.665 176.475 203.82 176.66 203.82C183.488 203.859 190.319 203.896 197.148 203.935C199.087 203.947 201.029 203.956 202.968 203.968C203.081 203.968 203.214 203.905 203.263 203.798C204.034 202.128 204.161 200.077 202.968 198.565C202.395 197.836 201.585 197.334 200.795 196.867C200.143 196.478 199.454 196.153 198.747 195.879C197.579 195.433 196.359 195.166 195.117 195.026L195.412 195.196L193.479 191.329C193.333 191.035 193.281 190.855 192.938 190.81C192.562 190.761 192.189 190.716 191.812 190.67L189.709 190.406C186.832 190.044 183.955 189.686 181.078 189.325C179.452 189.121 177.825 188.918 176.198 188.714C175.764 188.659 175.767 189.343 176.198 189.397C181.804 190.099 187.406 190.801 193.011 191.502L192.717 191.332L193.733 193.367C194.082 194.063 194.395 194.798 194.784 195.472C194.953 195.767 195.272 195.725 195.582 195.767C195.909 195.816 196.237 195.873 196.562 195.943C197.157 196.071 197.742 196.238 198.313 196.444C199.135 196.739 199.915 197.125 200.659 197.584C201.67 198.203 202.632 198.887 203.005 200.074C203.351 201.183 203.15 202.41 202.671 203.449L202.965 203.279C196.137 203.239 189.306 203.203 182.477 203.163C180.538 203.151 178.596 203.142 176.657 203.13L176.997 203.47C176.912 198.662 176.757 193.857 176.538 189.051C176.517 188.614 175.834 188.611 175.855 189.051L175.862 189.06Z" fill="#553597"/>
<path d="M176.468 193.544C178.022 193.094 179.743 192.994 181.197 193.82C182.244 194.415 182.884 195.469 183.831 196.189C184.778 196.909 185.791 197.192 186.92 197.198C188.256 197.207 189.609 197.034 190.932 196.867C192.662 196.651 194.377 196.332 196.073 195.922C196.501 195.819 196.319 195.16 195.891 195.263C194.343 195.64 192.777 195.94 191.196 196.15C189.861 196.326 188.498 196.49 187.151 196.514C185.998 196.533 184.948 196.256 184.052 195.497C183.157 194.737 182.483 193.717 181.397 193.152C179.807 192.32 177.971 192.402 176.289 192.888C175.867 193.009 176.047 193.668 176.471 193.547L176.468 193.544Z" fill="#553597"/>
<path d="M176.623 201.563C185.591 201.654 194.559 201.748 203.527 201.839C203.354 203.361 202.88 203.58 202.722 203.625C202.653 203.646 202.595 203.646 202.036 203.616C201.46 203.583 201.172 203.567 201.011 203.552C199.597 203.425 196.896 203.558 196.896 203.558C195.272 203.592 192.959 203.625 189.591 203.625C186.653 203.625 182.353 203.598 176.659 203.476C176.647 202.838 176.635 202.201 176.623 201.563Z" fill="#553597"/>
<path d="M196.356 198.938C196.55 198.319 196.878 197.745 197.324 197.271C197.424 197.164 197.527 197.064 197.636 196.967C197.688 196.921 197.74 196.879 197.791 196.836C197.852 196.788 197.858 196.782 197.9 196.751C198.073 196.624 198.253 196.505 198.438 196.399C198.82 196.18 198.477 195.591 198.092 195.81C196.954 196.46 196.089 197.499 195.697 198.756C195.567 199.178 196.225 199.357 196.356 198.938Z" fill="#553597"/>
<path d="M198.444 199.315C198.674 198.802 198.972 198.358 199.351 197.966C199.515 197.796 199.691 197.641 199.873 197.495C199.904 197.471 199.837 197.52 199.888 197.483C199.913 197.465 199.937 197.447 199.961 197.432C200.001 197.404 200.037 197.377 200.077 197.35C200.155 197.295 200.234 197.243 200.316 197.192C200.474 197.094 200.535 196.885 200.438 196.724C200.341 196.563 200.128 196.505 199.97 196.602C199.054 197.17 198.298 197.984 197.852 198.972C197.776 199.139 197.804 199.339 197.973 199.439C198.119 199.525 198.365 199.485 198.441 199.318L198.444 199.315Z" fill="#553597"/>
<path d="M148.402 126.469C148.679 128.401 149.207 131.071 150.311 134.112C151.495 137.371 152.402 139.871 154.129 141.754C156.035 143.832 159.018 145.253 175.127 145.575C179.342 145.66 182.938 145.639 185.676 145.593C186.189 145.584 186.626 145.967 186.689 146.477L192.1 191.606C192.219 192.596 193.059 193.34 194.055 193.34C195.651 193.805 197.839 194.264 200.464 194.306C203.46 194.355 205.936 193.841 207.657 193.34C208 193.316 208.564 193.219 209.001 192.809C209.353 192.477 209.642 192.019 209.62 191.499C209.29 183.146 209.111 174.72 208.41 164.675C207.196 147.252 208.152 141.277 204.27 135.721C199.235 128.513 186.438 127.013 178.146 125.603C164.954 123.359 154.766 124.601 148.402 126.469Z" fill="white"/>
<path d="M148.075 126.56C148.469 129.312 149.179 131.988 150.129 134.601C151.018 137.046 151.896 139.612 153.58 141.642C154.645 142.923 156.002 143.722 157.58 144.223C158.809 144.615 160.086 144.852 161.364 145.037C163.334 145.326 165.318 145.493 167.306 145.618C173.063 145.976 178.848 146.025 184.614 145.949C185.206 145.94 186.198 145.718 186.356 146.508C186.377 146.617 186.383 146.729 186.395 146.842L186.592 148.491L187.369 154.961C187.734 158.008 188.101 161.054 188.465 164.101C188.869 167.454 189.269 170.811 189.673 174.164C190.037 177.211 190.404 180.254 190.768 183.301C191.023 185.424 191.278 187.551 191.533 189.674L191.724 191.278C191.827 192.143 192.125 192.948 192.95 193.398C193.436 193.662 194.006 193.686 194.535 193.826C195.141 193.987 195.755 194.124 196.371 194.236C197.842 194.507 199.339 194.646 200.835 194.649C202.282 194.649 203.733 194.522 205.159 194.27C205.757 194.163 206.352 194.039 206.944 193.887C207.187 193.826 207.426 193.747 207.669 193.692C207.945 193.629 208.225 193.61 208.495 193.51C209.065 193.295 209.551 192.851 209.8 192.292C210.067 191.691 209.948 191.004 209.924 190.363C209.869 188.927 209.818 187.493 209.769 186.056C209.666 183.143 209.566 180.23 209.448 177.317C209.19 171.054 208.719 164.803 208.388 158.545C208.161 154.208 208.082 149.849 207.672 145.523C207.411 142.781 206.971 140.013 205.745 137.517C204.085 134.142 201.172 131.776 197.83 130.166C193.648 128.149 189.038 127.137 184.495 126.32C179.282 125.385 174.037 124.483 168.742 124.179C163.719 123.89 158.651 124.076 153.686 124.917C151.877 125.224 150.087 125.622 148.327 126.138C147.905 126.263 148.084 126.922 148.509 126.797C152.533 125.619 156.718 125.035 160.897 124.826C166.699 124.534 172.517 124.993 178.241 125.962C182.614 126.7 187.011 127.338 191.293 128.513C195.575 129.689 199.745 131.278 202.771 134.421C204.689 136.414 205.842 138.956 206.422 141.635C207.135 144.934 207.223 148.367 207.381 151.726C207.496 154.186 207.602 156.65 207.736 159.11C207.906 162.251 208.14 165.389 208.328 168.53C208.683 174.474 208.892 180.425 209.099 186.375C209.147 187.766 209.196 189.16 209.25 190.552C209.278 191.262 209.393 191.934 208.85 192.487C208.398 192.945 207.809 192.948 207.226 193.106C204.565 193.835 201.788 194.103 199.035 193.896C197.682 193.793 196.337 193.574 195.017 193.243C194.759 193.179 194.504 193.1 194.243 193.036C193.937 192.96 193.633 192.976 193.342 192.83C192.862 192.593 192.538 192.131 192.45 191.606C192.41 191.366 192.392 191.12 192.362 190.88C192.161 189.215 191.964 187.551 191.764 185.889L190.774 177.627C190.383 174.365 189.991 171.099 189.6 167.837C189.218 164.645 188.835 161.449 188.453 158.257C188.149 155.714 187.843 153.169 187.539 150.627L187.066 146.678C187.057 146.611 187.051 146.544 187.042 146.477C186.978 146.006 186.726 145.602 186.295 145.39C185.812 145.153 185.196 145.259 184.674 145.268C181.892 145.305 179.109 145.302 176.326 145.256C171.434 145.177 166.478 145.095 161.625 144.39C159.586 144.096 157.37 143.725 155.631 142.592C155.328 142.395 155.182 142.285 154.921 142.049C154.615 141.775 154.336 141.471 154.071 141.156C152.381 139.12 151.537 136.469 150.651 134.02C149.765 131.572 149.116 128.984 148.742 126.378C148.679 125.944 148.023 126.129 148.084 126.56H148.075Z" fill="#553597"/>
<path d="M132.552 126.9C132.652 128.717 133.04 131.499 134.461 134.543C136.078 138.012 138.227 140.089 138.758 140.588C139.359 141.152 141.259 142.863 144.239 144.169C146.621 145.214 148.63 145.545 149.413 145.651C151.012 145.873 151.798 145.77 154.05 145.742C157.021 145.709 157.307 145.87 161.495 145.985C163.655 146.046 166.821 146.091 170.733 146L176.253 192.034C176.371 193.024 177.212 193.768 178.207 193.768C179.804 194.233 181.992 194.692 184.617 194.734C187.612 194.783 190.089 194.27 191.809 193.768C192.152 193.744 192.717 193.647 193.154 193.237C193.506 192.906 193.794 192.447 193.773 191.928C193.442 183.574 193.263 175.148 192.562 165.103C191.348 147.68 192.304 141.705 188.422 136.15C183.388 128.942 170.59 127.441 162.299 126.032C149.107 123.787 138.919 125.029 132.555 126.897L132.552 126.9Z" fill="white"/>
<path d="M132.212 126.9C132.561 133.003 135.559 138.978 140.6 142.513C143.383 144.466 146.712 145.763 150.108 146.076C151.707 146.222 153.328 146.076 154.93 146.082C156.096 146.082 157.255 146.152 158.417 146.21C162.517 146.42 166.627 146.441 170.73 146.344L170.39 146.003C170.46 146.593 170.532 147.182 170.602 147.771L171.167 152.473L171.974 159.204C172.286 161.823 172.602 164.441 172.915 167.059C173.227 169.678 173.561 172.442 173.883 175.133L174.769 182.517C175 184.449 175.233 186.378 175.464 188.31L175.858 191.606C175.883 191.812 175.901 192.025 175.937 192.228C176.101 193.115 176.814 193.863 177.698 194.054C178.144 194.151 178.584 194.233 179.027 194.346C179.518 194.467 180.013 194.576 180.511 194.668C182.899 195.105 185.351 195.199 187.764 194.923C188.784 194.807 189.794 194.631 190.793 194.391C191.196 194.294 191.6 194.154 192.01 194.09C192.48 194.014 192.923 193.875 193.296 193.565C193.67 193.255 193.985 192.802 194.076 192.313C194.177 191.788 194.082 191.202 194.061 190.67C194.019 189.531 193.976 188.392 193.937 187.253C193.855 184.926 193.776 182.602 193.688 180.276C193.497 175.215 193.251 170.155 192.902 165.103C192.598 160.741 192.404 156.377 192.195 152.009C192.058 149.144 191.94 146.262 191.503 143.425C191.181 141.35 190.632 139.312 189.63 137.459C188.198 134.807 185.97 132.793 183.364 131.323C180.162 129.516 176.575 128.447 173.009 127.632C169.443 126.818 166.023 126.317 162.517 125.725C157.729 124.914 152.882 124.452 148.023 124.489C144.227 124.516 140.421 124.838 136.691 125.555C135.268 125.828 133.857 126.162 132.467 126.569C132.045 126.694 132.224 127.353 132.649 127.228C135.723 126.329 138.895 125.78 142.081 125.473C146.357 125.06 150.676 125.084 154.955 125.442C159.118 125.789 163.246 126.512 167.361 127.219C170.978 127.842 174.602 128.568 178.083 129.756C181.312 130.855 184.556 132.389 186.945 134.889C188.474 136.487 189.555 138.479 190.186 140.594C190.856 142.838 191.09 145.195 191.26 147.522C191.515 151.009 191.621 154.505 191.797 157.996C192.046 162.941 192.432 167.874 192.683 172.819C192.92 177.524 193.081 182.232 193.248 186.937C193.287 188.055 193.327 189.176 193.369 190.293C193.391 190.837 193.436 191.387 193.433 191.931C193.43 192.474 193.032 193.021 192.523 193.255C192.149 193.425 191.718 193.446 191.327 193.553C190.89 193.671 190.45 193.778 190.007 193.875C188.948 194.099 187.876 194.254 186.799 194.333C184.438 194.507 182.052 194.333 179.743 193.814C179.291 193.711 178.845 193.58 178.393 193.468C177.94 193.355 177.531 193.364 177.145 193.033C176.836 192.766 176.654 192.398 176.593 191.998C176.484 191.278 176.42 190.546 176.332 189.823L175.743 184.902L174.933 178.14C174.623 175.552 174.314 172.964 174.001 170.376C173.689 167.788 173.37 165.103 173.054 162.47C172.766 160.061 172.478 157.652 172.186 155.24L171.513 149.618L171.13 146.423L171.079 146.003C171.057 145.824 170.939 145.657 170.739 145.663C167.054 145.748 163.364 145.739 159.683 145.587C158.496 145.539 157.31 145.454 156.12 145.417C154.594 145.372 153.067 145.444 151.541 145.451C148.302 145.463 145.055 144.418 142.284 142.781C140.309 141.614 138.588 140.132 137.18 138.325C134.631 135.056 133.141 131.034 132.904 126.9C132.88 126.463 132.197 126.46 132.221 126.9H132.212Z" fill="#553597"/>
<path d="M161.762 88.412C161.762 88.412 165.489 111.886 167.033 112.703C168.366 113.408 174.693 118.304 178.277 116.151C178.893 115.78 179.327 115.261 179.758 114.523C182.657 109.593 180.975 102.269 180.299 99.7298C179.513 99.7784 178.727 99.824 177.941 99.8726C173.868 90.1434 170.184 83.063 168.165 80.2381C167.616 79.4665 166.584 78.045 164.791 76.6902C163.301 75.5633 161.868 74.9224 160.867 74.5549" fill="#A78ED7"/>
<path d="M175.343 101.643C175.358 102.005 175.376 102.363 175.391 102.725C175.4 102.904 175.543 103.074 175.731 103.065C175.91 103.056 176.08 102.913 176.071 102.725C176.056 102.363 176.038 102.005 176.022 101.643C176.013 101.464 175.871 101.294 175.683 101.303C175.503 101.312 175.334 101.455 175.343 101.643Z" fill="white"/>
<path d="M176.967 101.637C176.994 101.978 177.024 102.321 177.052 102.661C177.061 102.752 177.085 102.834 177.152 102.904C177.212 102.965 177.31 103.007 177.394 103.004C177.567 102.995 177.753 102.852 177.734 102.664C177.707 102.324 177.677 101.981 177.649 101.64C177.64 101.549 177.616 101.467 177.549 101.397C177.489 101.337 177.391 101.294 177.306 101.297C177.133 101.306 176.948 101.449 176.967 101.637Z" fill="white"/>
<path d="M178.517 101.735C178.581 102.051 178.645 102.363 178.711 102.679C178.727 102.761 178.799 102.843 178.869 102.883C178.942 102.925 179.051 102.944 179.133 102.916C179.318 102.855 179.409 102.682 179.373 102.497C179.309 102.181 179.246 101.868 179.179 101.552C179.164 101.47 179.091 101.388 179.021 101.349C178.948 101.306 178.839 101.288 178.757 101.315C178.572 101.376 178.481 101.549 178.517 101.735Z" fill="white"/>
<path d="M181.109 97.2299C181.082 97.3393 180.927 97.9438 180.9 98.047C180.711 98.7912 180.69 98.8702 180.663 99.0282C180.578 99.4868 180.608 99.578 180.526 99.9971C180.457 100.353 180.369 100.635 180.311 100.811C179.877 100.872 179.306 100.945 178.63 101.006C178.438 101.024 177.522 101.106 176.275 101.136C175.747 101.151 175.085 101.157 174.323 101.139C174.344 100.817 174.375 100.486 174.42 100.143C174.557 99.0646 174.788 98.0987 175.052 97.2543C175.54 97.5216 176.618 98.0288 178.074 98.0227C179.54 98.0167 180.62 97.4973 181.109 97.2239V97.2299Z" fill="white"/>
<path d="M180.781 97.1389C180.641 97.6856 180.49 98.2324 180.365 98.7822C180.223 99.4322 180.195 100.082 179.98 100.717L180.22 100.477C178.268 100.75 176.293 100.836 174.323 100.796L174.663 101.136C174.754 99.8453 174.997 98.5786 175.379 97.3454L174.878 97.5489C176.866 98.6303 179.3 98.6212 181.279 97.5185C181.664 97.3059 181.318 96.7136 180.933 96.9293C179.17 97.9104 176.994 97.9225 175.221 96.9596C175.024 96.8533 174.787 96.9505 174.721 97.1632C174.32 98.4541 174.074 99.7876 173.98 101.136C173.968 101.325 174.147 101.473 174.32 101.476C176.353 101.516 178.384 101.416 180.399 101.133C180.517 101.118 180.602 100.997 180.638 100.893C180.854 100.255 180.878 99.6053 181.024 98.9583C181.145 98.4055 181.3 97.8618 181.44 97.315C181.549 96.8898 180.89 96.7075 180.781 97.1328V97.1389Z" fill="#553597"/>
<path d="M180.745 102.418C178.696 103.035 176.526 103.177 174.414 102.816L174.666 103.144V101.142L174.326 101.482C176.353 101.513 178.381 101.394 180.393 101.13L180.065 100.878C180.214 101.531 180.359 102.181 180.508 102.834C180.605 103.262 181.264 103.08 181.167 102.652C181.018 101.999 180.872 101.349 180.723 100.696C180.693 100.565 180.535 100.425 180.396 100.444C178.384 100.708 176.356 100.826 174.329 100.796C174.144 100.796 173.989 100.954 173.989 101.136V103.138C173.989 103.275 174.095 103.442 174.241 103.466C176.475 103.849 178.76 103.721 180.933 103.068C181.352 102.94 181.173 102.281 180.751 102.409L180.745 102.418Z" fill="white"/>
<path d="M145.941 73.4401C142.837 72.3952 139.647 72.0125 136.631 72.2737C132.576 72.6261 128.834 74.1448 126.033 76.7875C121.454 81.1099 120.461 87.4309 120.3 88.6034C120.097 90.0614 120.258 90.0766 120.3 94.3352C120.379 102.616 119.791 105.143 120.3 111.531C120.81 117.897 121.699 118.727 122.209 119.173C125.132 121.731 130.928 118.9 131.754 121.084C131.766 121.114 131.775 121.144 131.784 121.175C132.121 122.53 131.839 123.377 131.805 124.698C131.781 125.607 131.921 126.299 131.936 126.369C132.458 128.602 154.284 125.78 168.687 123.69C167.728 118.241 167.44 113.788 167.349 110.808C167.079 102.136 167.959 96.662 167.158 86.1947C166.894 82.7532 166.445 78.3336 163.213 75.8033C161.631 74.564 159.947 74.2208 157.304 73.7105C154.73 73.2154 150.827 72.778 145.941 73.4371V73.4401Z" fill="#A78ED7"/>
<path d="M160.539 87.5403C161.868 91.7442 163.055 95.9907 164.096 100.274C165.24 104.979 166.208 109.729 166.994 114.507C167.443 117.241 167.835 119.981 168.168 122.733C168.22 123.164 168.903 123.17 168.851 122.733C168.259 117.837 167.489 112.964 166.527 108.129C165.565 103.293 164.533 98.9614 163.288 94.4416C162.636 92.0693 161.935 89.7061 161.194 87.3611C161.061 86.9419 160.402 87.1211 160.536 87.5434L160.539 87.5403Z" fill="white"/>
<path d="M137.156 72.2342C138.418 77.5772 143.317 80.5024 147.189 79.4909C149.85 78.7953 151.932 76.262 152.636 73.1485C151.938 73.0939 151.243 73.0392 150.545 72.9815C149.775 75.2657 148.084 76.9758 146.084 77.2522C144.315 77.4983 142.87 76.5566 142.142 76.0828C140.166 74.7949 139.341 72.945 139.05 72.1826C138.786 72.1401 138.458 72.1097 138.085 72.1188C137.723 72.1279 137.411 72.1765 137.153 72.2312L137.156 72.2342Z" fill="white"/>
<path d="M141.301 64.8135C141.481 66.4082 141.553 69.8953 139.308 72.3466C139.55 73.0391 140.145 74.4334 141.526 75.5846C142.157 76.1101 144.121 77.7473 146.552 77.1732C148.421 76.7328 149.899 75.1381 150.442 73.106C150.366 71.1255 150.291 69.145 150.215 67.1646" fill="white"/>
<path d="M140.958 64.8135C141.238 67.362 140.831 70.1414 139.065 72.1036C138.986 72.1917 138.934 72.3193 138.977 72.4347C139.775 74.6855 141.641 76.6447 143.942 77.3798C146.876 78.3184 149.683 76.4047 150.636 73.6315C150.803 73.1485 150.767 72.7202 150.749 72.2129C150.727 71.6692 150.706 71.1225 150.685 70.5788C150.642 69.4397 150.597 68.3006 150.554 67.1615C150.536 66.7241 149.853 66.7211 149.872 67.1615C149.938 68.9203 150.005 70.676 150.072 72.4347C150.087 72.8447 150.081 73.1667 149.938 73.5555C149.823 73.8775 149.674 74.1873 149.501 74.482C149.183 75.0287 148.773 75.5208 148.287 75.9248C147.247 76.7905 145.86 77.1398 144.536 76.836C143.544 76.6052 142.652 76.0736 141.872 75.4297C140.849 74.5852 140.075 73.5039 139.632 72.2524L139.544 72.5835C141.432 70.4846 141.939 67.5443 141.638 64.8075C141.59 64.3761 140.907 64.3701 140.955 64.8075L140.958 64.8135Z" fill="#553597"/>
<path d="M141.376 66.4203C141.376 66.1196 141.364 65.7156 141.285 65.2448C141.109 64.1787 140.773 63.7473 140.627 62.7146C140.584 62.4108 140.551 62.0038 140.575 61.5208C140.575 61.5208 139.285 61.3386 138.433 60.2299C137.631 59.188 137.128 57.5326 137.756 56.9615C138.026 56.7155 138.427 56.7458 138.712 56.7671C140.087 56.8765 140.897 58.2008 141.03 58.4286L144.044 50.3124L155.303 50.6951C155.913 53.3681 156.271 57.0496 155.197 61.1017C154.402 64.1027 153.352 68.0606 150.111 69.1511C147.373 70.0745 144.605 68.4342 143.753 67.8814" fill="white"/>
<path d="M141.72 66.4204C141.72 65.579 141.574 64.768 141.307 63.9721C141.04 63.1763 140.879 62.3805 140.918 61.5208C140.924 61.3872 140.809 61.211 140.666 61.1928C139.149 60.965 137.978 59.4675 137.826 57.9852C137.789 57.6389 137.808 57.1985 138.217 57.1104C138.627 57.0223 139.14 57.159 139.504 57.3594C140.02 57.6419 140.436 58.0976 140.733 58.6018C140.894 58.8691 141.258 58.7871 141.358 58.5198C142.239 56.1536 143.116 53.7843 143.996 51.4181C144.12 51.0809 144.248 50.7437 144.372 50.4035L144.044 50.6556L152.748 50.9503C153.552 50.9776 154.378 51.0596 155.182 51.0323C155.221 51.0323 155.261 51.0323 155.3 51.0353L154.973 50.7832C155.373 52.5662 155.576 54.3888 155.537 56.2173C155.495 58.2646 155.097 60.2299 154.545 62.1952C153.74 65.0656 152.402 68.7015 148.958 69.0569C147.17 69.2422 145.404 68.5406 143.923 67.5868C143.553 67.3468 143.21 67.9391 143.577 68.1761C144.936 69.0509 146.512 69.6979 148.141 69.7647C149.95 69.8376 151.631 69.06 152.781 67.6749C153.847 66.393 154.469 64.8074 154.954 63.231C155.552 61.293 156.026 59.3156 156.171 57.2865C156.332 55.0479 156.123 52.791 155.631 50.604C155.598 50.4552 155.446 50.358 155.303 50.3519C153.522 50.2911 151.737 50.2304 149.956 50.1696L144.047 49.9692C143.886 49.9631 143.771 50.0815 143.719 50.2213C142.839 52.5875 141.962 54.9568 141.082 57.323C140.958 57.6602 140.83 57.9973 140.706 58.3375L141.331 58.2555C141.037 57.7574 140.642 57.3108 140.175 56.9737C139.559 56.5272 138.5 56.1687 137.768 56.5515C137.037 56.9342 137.076 57.8728 137.249 58.5623C137.48 59.4766 137.99 60.4122 138.724 61.0136C139.219 61.4206 139.85 61.7578 140.49 61.855L140.239 61.5269C140.202 62.3653 140.324 63.1733 140.588 63.9661C140.852 64.7588 141.043 65.5668 141.04 66.4264C141.04 66.8669 141.723 66.8669 141.723 66.4264L141.72 66.4204Z" fill="#553597"/>
<path d="M140.733 63.3768C139.853 63.073 137.759 62.2104 136.257 60.0659C134.005 56.8492 134.837 53.2588 135.098 52.1289C135.732 49.389 137.614 46.4548 139.692 45.744C139.99 45.6438 140.236 45.6103 140.415 45.58C142.427 45.2428 143.726 44.4287 144.041 44.2829C146.484 43.1651 152.081 43.6937 155.753 46.0569C155.753 46.0569 157.44 47.1443 158.481 49.1278C158.86 49.8538 158.963 50.3853 158.754 50.7893C158.621 51.0445 158.35 51.2692 158.071 51.3816C158.071 51.3816 157.907 51.4454 157.115 51.5183C157.115 51.5183 158.29 53.271 157.643 54.1792C157.127 54.9051 156.032 55.0115 155.385 54.6561C155.2 54.5558 155.097 54.4374 154.888 54.2004C154.888 54.2004 154.521 53.7873 153.911 52.4022C153.118 52.8123 151.835 53.3469 150.181 53.4684C147.298 53.6841 145.131 52.5146 144.305 52.0074C144.263 52.8093 144.099 54.0243 143.519 55.3699C142.794 57.0527 141.762 58.1553 141.116 58.7476C141.031 58.5077 140.63 57.4627 139.547 57.001C139.434 56.9524 138.296 56.4664 137.753 56.9646C137.131 57.5356 137.671 59.0544 138.181 59.8745C138.919 61.0592 140.069 61.5361 140.563 61.7092C140.618 62.2681 140.673 62.824 140.727 63.3829L140.733 63.3768Z" fill="#553597"/>
<path d="M140.825 63.0487C137.784 61.9886 135.492 59.3551 135.134 56.111C134.816 53.2193 135.732 50.0056 137.589 47.767C138.084 47.1716 138.661 46.6218 139.353 46.2604C140.102 45.8685 140.991 45.8473 141.796 45.6103C142.463 45.4099 143.11 45.1456 143.732 44.8297C144.135 44.6262 144.512 44.4439 144.955 44.3285C146.284 43.9792 147.717 44.0096 149.07 44.1614C150.736 44.3467 152.411 44.775 153.941 45.4645C155.137 46.0022 156.15 46.6644 157.03 47.6394C157.343 47.9857 157.628 48.3563 157.877 48.7542C158.15 49.1885 158.472 49.6988 158.52 50.2213C158.599 51.0596 157.707 51.1204 157.121 51.1751C156.885 51.1963 156.669 51.4545 156.827 51.6884C157.388 52.5298 158.056 54.1063 156.624 54.4617C156.284 54.5467 155.88 54.5346 155.565 54.3614C155.395 54.2673 155.258 54.1063 155.137 53.9605C155.094 53.9088 155.161 53.9939 155.137 53.9666C154.745 53.4471 154.472 52.8244 154.211 52.2352C154.132 52.059 153.892 52.0347 153.744 52.1137C150.8 53.6263 147.295 53.432 144.484 51.7188C144.251 51.576 143.987 51.7643 143.972 52.0134C143.829 54.4981 142.709 56.8279 140.882 58.5137L141.453 58.6656C140.988 57.3838 139.708 56.2811 138.275 56.4178C136.148 56.6183 137.507 59.6558 138.269 60.5701C138.846 61.2627 139.635 61.7487 140.482 62.0464L140.23 61.7183C140.284 62.2772 140.339 62.8331 140.394 63.392C140.436 63.8263 141.119 63.8294 141.076 63.392C141.022 62.8331 140.967 62.2772 140.913 61.7183C140.897 61.5573 140.815 61.4419 140.661 61.3903C139.944 61.1381 139.283 60.7159 138.788 60.1358C138.254 59.507 137.702 58.4347 137.832 57.5842C137.899 57.1529 138.245 57.0648 138.639 57.1104C138.819 57.1317 138.995 57.1802 139.164 57.2349C139.222 57.2531 139.28 57.2744 139.337 57.2957C139.471 57.3443 139.334 57.2896 139.435 57.3352C140.075 57.6328 140.554 58.1917 140.794 58.8539C140.882 59.0969 141.167 59.188 141.365 59.0058C143.325 57.1985 144.5 54.6834 144.654 52.0225L144.142 52.3172C147.167 54.161 150.93 54.3371 154.09 52.7121L153.622 52.5906C153.905 53.2254 154.199 53.9088 154.648 54.4495C155.228 55.1512 156.132 55.382 156.991 55.0752C157.85 54.7685 158.305 53.9696 158.135 53.0492C158.026 52.4569 157.747 51.8585 157.413 51.3573L157.118 51.8707C157.792 51.8069 158.399 51.7795 158.872 51.2267C159.467 50.5311 159.127 49.6199 158.748 48.9091C158.096 47.688 157.109 46.5702 155.959 45.7926C154.581 44.8601 152.93 44.2647 151.322 43.8789C149.713 43.4932 147.956 43.2897 146.275 43.4355C145.623 43.4932 144.961 43.5934 144.339 43.8121C143.862 43.9792 143.434 44.2404 142.976 44.45C142.136 44.8388 141.237 45.1061 140.324 45.261C139.48 45.4068 138.767 45.7501 138.105 46.2907C136.649 47.4754 135.656 49.2614 135.061 51.0202C134.63 52.2959 134.391 53.678 134.388 55.0236C134.388 57.2197 135.11 59.3551 136.561 61.0197C137.647 62.2681 139.083 63.1763 140.639 63.72C141.055 63.8658 141.234 63.2037 140.821 63.0609L140.825 63.0487Z" fill="#553597"/>
<path d="M148.97 55.2514C148.97 55.2514 148.991 55.1238 148.921 55.0236C148.691 54.7016 147.832 54.9932 147.14 55.2271C146.12 55.5703 146.075 55.8012 146.069 55.8711C146.06 55.9926 146.135 56.1201 146.226 56.19C146.469 56.3723 146.8 56.1505 147.644 55.862C148.484 55.5734 148.918 55.5309 148.967 55.2544L148.97 55.2514Z" fill="#553597"/>
<path d="M154.59 56.0685C154.59 56.0685 154.681 55.9835 154.684 55.865C154.693 55.4884 153.868 55.218 153.209 54.9993C152.235 54.6773 152.068 54.8262 152.023 54.8778C151.944 54.9659 151.932 55.1056 151.962 55.2119C152.044 55.4914 152.42 55.5096 153.234 55.7739C154.041 56.0351 154.396 56.2508 154.593 56.0685H154.59Z" fill="#553597"/>
<path d="M151.234 58.8023C151.204 59.0514 151.182 59.3703 151.192 59.7378C151.204 60.2603 151.273 60.5884 151.358 61.4996C151.428 62.256 151.41 62.3562 151.331 62.4504C151.076 62.7541 150.229 62.9515 150.229 62.9515C150.229 62.9576 150.229 62.9728 150.245 62.9971C150.26 63.0244 151.255 63.4831 151.765 62.9971C152.09 62.6873 152.053 62.177 152.002 61.4753C151.984 61.2536 151.938 61.0166 151.847 60.5489C151.717 59.8776 151.625 59.6224 151.592 59.5313C151.471 59.2093 151.334 58.9602 151.234 58.7993V58.8023Z" fill="#553597"/>
<path d="M147.34 64.2395C148.157 64.522 148.973 64.8014 149.789 65.0839L150.135 65.2024L149.932 64.7012C149.759 64.9715 149.538 65.175 149.246 65.3056C149.207 65.3239 149.134 65.3482 149.061 65.3664C149.019 65.3785 148.976 65.3876 148.934 65.3937C148.867 65.4059 148.955 65.3937 148.879 65.3998C148.803 65.4059 148.736 65.4059 148.664 65.3998C148.588 65.3937 148.682 65.4059 148.612 65.3937C148.572 65.3846 148.53 65.3755 148.491 65.3634C148.23 65.2874 147.987 65.0839 147.841 64.8166C147.759 64.6678 147.72 64.4977 147.717 64.3276C147.717 64.2881 147.717 64.2486 147.717 64.2091C147.717 64.1969 147.729 64.0997 147.717 64.1635C147.726 64.1089 147.738 64.0542 147.75 63.9995C147.862 63.5742 147.204 63.392 147.091 63.8172C146.852 64.7346 147.359 65.7157 148.269 66.0134C149.179 66.3111 150.05 65.7734 150.515 65.0444C150.639 64.847 150.512 64.61 150.311 64.5432C149.495 64.2607 148.679 63.9813 147.862 63.6988L147.516 63.5803C147.343 63.5196 147.143 63.6502 147.098 63.8203C147.046 64.0086 147.161 64.1818 147.337 64.2395H147.34Z" fill="#553597"/>
<path d="M148.499 59.2458C148.748 59.2458 148.949 58.9738 148.949 58.6383C148.949 58.3028 148.748 58.0308 148.499 58.0308C148.251 58.0308 148.05 58.3028 148.05 58.6383C148.05 58.9738 148.251 59.2458 148.499 59.2458Z" fill="#553597"/>
<path d="M153.783 59.2458C154.031 59.2458 154.232 58.9738 154.232 58.6383C154.232 58.3028 154.031 58.0308 153.783 58.0308C153.535 58.0308 153.334 58.3028 153.334 58.6383C153.334 58.9738 153.535 59.2458 153.783 59.2458Z" fill="#553597"/>
<path d="M171.871 83.145C174.362 83.0478 176.854 82.9506 179.346 82.8534C179.934 82.8291 180.399 83.3516 180.305 83.9348C179.537 88.7857 178.772 93.6366 178.004 98.4845C174.678 99.0525 171.355 99.6175 168.029 100.186L170.985 83.9105C171.064 83.4791 171.431 83.1602 171.868 83.142L171.871 83.145Z" fill="white"/>
<path d="M171.871 83.4883C173.391 83.4305 174.912 83.3698 176.429 83.3121C177.203 83.2817 177.974 83.2513 178.748 83.221C179.024 83.2088 179.391 83.1298 179.649 83.2604C179.944 83.4062 179.995 83.7039 179.953 83.9986C179.507 87.0543 178.988 90.1009 178.505 93.1506C178.229 94.9002 177.953 96.6498 177.677 98.3994L177.916 98.1595C174.59 98.7275 171.267 99.2925 167.941 99.8605L168.36 100.28C168.709 98.366 169.055 96.4524 169.404 94.5357C169.938 91.5924 170.475 88.646 171.009 85.7026L171.252 84.3661C171.322 83.9803 171.37 83.5338 171.871 83.4883C172.305 83.4488 172.308 82.7653 171.871 82.8048C170.709 82.9111 170.639 83.9348 170.475 84.8308L169.792 88.5852C169.231 91.6804 168.666 94.7757 168.105 97.8709C167.971 98.6151 167.835 99.3563 167.701 100.1C167.653 100.371 167.853 100.565 168.12 100.52C171.446 99.9516 174.769 99.3866 178.095 98.8186C178.199 98.8004 178.317 98.685 178.335 98.5787C178.866 95.2283 179.394 91.8779 179.925 88.5275C180.056 87.7013 180.186 86.8781 180.317 86.0519C180.378 85.6783 180.435 85.3017 180.496 84.928C180.557 84.5544 180.675 84.1261 180.66 83.7343C180.638 83.2118 180.277 82.738 179.783 82.577C179.473 82.4768 179.142 82.5193 178.824 82.5345C178.399 82.5497 177.977 82.5679 177.552 82.5831C175.658 82.656 173.765 82.7289 171.871 82.8048C171.434 82.823 171.431 83.5065 171.871 83.4883Z" fill="#553597"/>
<path d="M180.529 99.7329C180.806 98.4845 180.936 97.9711 180.994 97.7919C181 97.7737 181.027 97.6917 181.057 97.5793C181.109 97.4001 181.142 97.2482 181.167 97.1297C181.367 96.1851 181.522 95.4682 181.513 94.6025C181.507 93.8523 181.504 93.3723 181.273 92.8317C180.809 91.7412 179.774 91.2127 179.273 91.0061C179.127 91.6774 178.982 92.3456 178.836 93.0169C178.041 92.8742 177.34 92.7922 176.76 92.7436C174.979 92.5887 174.651 92.7709 174.49 92.9775C174.396 93.099 174.226 93.3997 174.399 94.0588C173.813 93.9221 173.264 94.0922 173.03 94.4689C173.006 94.5084 172.833 94.8 172.927 95.1189C173.009 95.3953 173.249 95.529 173.592 95.7203C173.835 95.854 174.211 96.0302 174.721 96.1365C174.171 95.9056 173.616 96.1547 173.486 96.5162C173.395 96.7683 173.486 97.1297 173.695 97.3363C173.835 97.473 173.938 97.4608 174.429 97.5884C174.994 97.7342 174.942 97.7737 175.689 97.9742C175.974 98.0501 176.22 98.1109 176.372 98.1473C176.554 98.1898 176.757 98.2384 176.988 98.287C177.103 98.3113 177.2 98.3326 177.267 98.3448C177.37 98.366 177.859 98.4328 178.523 98.5149" fill="white"/>
<path d="M180.857 99.824C181.221 98.1899 181.804 96.5374 181.849 94.8546C181.877 93.8705 181.828 92.8894 181.227 92.0662C180.778 91.4496 180.138 91 179.443 90.7054C179.255 90.6264 178.994 90.672 178.942 90.9089C178.796 91.5802 178.651 92.2485 178.505 92.9198L178.924 92.6798C178.135 92.5431 177.343 92.4368 176.545 92.376C175.995 92.3335 175.419 92.2879 174.872 92.3973C174.017 92.5674 173.889 93.3845 174.068 94.1408L174.487 93.7217C173.659 93.5607 172.578 93.8735 172.557 94.882C172.536 95.8905 173.865 96.2853 174.63 96.4585C175.064 96.5557 175.221 95.9482 174.812 95.7993C174.132 95.5533 173.134 95.8358 173.112 96.6924C173.103 97.0234 173.24 97.3849 173.495 97.6067C173.713 97.795 174.011 97.8284 174.281 97.8983C174.954 98.0684 175.607 98.3113 176.287 98.4723C177.033 98.6516 177.771 98.7609 178.529 98.8551C178.963 98.9097 178.96 98.2263 178.529 98.1716C177.416 98.0319 176.311 97.8345 175.243 97.4791C175.079 97.4244 174.915 97.3636 174.751 97.315C174.523 97.2482 174.241 97.233 174.029 97.1298C173.868 97.0508 173.753 96.8351 173.81 96.6498C173.916 96.3127 174.384 96.3673 174.636 96.4585L174.818 95.7993C174.505 95.7295 174.202 95.6383 173.916 95.4925C173.725 95.3953 173.431 95.286 173.31 95.1037C173.188 94.9215 173.261 94.6937 173.398 94.5539C173.628 94.317 174.017 94.3201 174.317 94.3778C174.575 94.4294 174.8 94.2229 174.736 93.9586C174.681 93.7308 174.633 93.4817 174.721 93.2569C174.757 93.1628 174.739 93.1901 174.818 93.1263C174.778 93.1597 174.888 93.099 174.927 93.0868C175.039 93.0534 175.158 93.0382 175.273 93.0291C176.42 92.941 177.628 93.1385 178.751 93.3359C178.924 93.3663 179.13 93.2903 179.17 93.0959C179.315 92.4246 179.461 91.7564 179.607 91.0851L179.106 91.2886C179.743 91.5589 180.353 91.9508 180.742 92.5401C181.255 93.3177 181.227 94.3231 181.154 95.2192C181.036 96.7075 180.529 98.1777 180.205 99.6327C180.111 100.061 180.766 100.243 180.863 99.8149L180.857 99.824Z" fill="#553597"/>
<path d="M178.688 94.8668C177.258 94.5964 175.829 94.3261 174.399 94.0527Z" fill="white"/>
<path d="M178.778 94.5357C177.349 94.2654 175.92 93.995 174.49 93.7216C174.059 93.6396 173.877 94.2988 174.308 94.3808C175.738 94.6511 177.167 94.9215 178.596 95.1948C179.027 95.2769 179.209 94.6177 178.778 94.5357Z" fill="#553597"/>
<path d="M178.605 96.829C177.23 96.583 175.856 96.34 174.481 96.0939Z" fill="white"/>
<path d="M178.696 96.501C177.321 96.2549 175.947 96.0119 174.572 95.7659C174.39 95.7325 174.205 95.8145 174.153 96.0058C174.107 96.1699 174.208 96.3946 174.393 96.425C175.768 96.6711 177.142 96.9141 178.517 97.1601C178.699 97.1935 178.884 97.1115 178.936 96.9201C178.981 96.7561 178.881 96.5313 178.696 96.501Z" fill="#553597"/>
<path d="M160.387 100.067C162.751 99.6387 164.096 98.7517 164.894 97.9833C165.452 97.4487 166.36 96.3886 167.859 96.1091C168.238 96.0392 168.563 96.0392 168.781 96.0514C168.405 97.4092 168.08 98.7791 168.302 98.8641C168.341 98.8793 168.387 98.8489 168.405 98.8368C168.951 98.4723 173.91 95.4743 173.658 98.2931C174.396 97.9164 175.133 97.9286 175.473 98.2992C175.516 98.3447 175.658 98.5057 175.68 98.7457C175.725 99.2286 175.255 99.7663 174.484 100.037C174.563 100.024 174.851 99.988 175.097 100.167C175.488 100.456 175.388 101.018 175.376 101.069C175.294 101.486 174.933 101.826 174.46 101.941C174.554 101.941 174.711 101.95 174.836 102.054C175.103 102.275 175.009 102.737 174.991 102.825C174.881 103.308 174.432 103.56 173.573 104.058C172.532 104.66 172.017 104.976 171.938 105.015C170.545 105.692 169.352 106.017 168.848 106.151C166.102 106.892 163.474 107.463 162.296 107.712C161.659 105.164 161.025 102.619 160.387 100.07V100.067Z" fill="white"/>
<path d="M160.478 100.395C162.071 100.097 163.637 99.5263 164.878 98.4571C165.343 98.0561 165.74 97.5853 166.235 97.2148C166.979 96.6559 167.847 96.3491 168.781 96.3916L168.453 95.9603C168.281 96.583 168.111 97.2087 167.989 97.8435C167.928 98.1655 167.804 98.609 167.938 98.931C168.174 99.4959 168.748 99.019 169.076 98.8277C170.089 98.2354 171.318 97.5155 172.517 97.4456C173.13 97.4092 173.358 97.6856 173.312 98.2961C173.291 98.5756 173.613 98.694 173.825 98.5908C174.192 98.4146 175.088 98.1169 175.306 98.6758C175.503 99.177 174.745 99.5749 174.39 99.7086C173.971 99.8665 174.141 100.425 174.572 100.368C174.939 100.319 175.091 100.668 175.045 100.975C175 101.282 174.693 101.519 174.365 101.613C173.992 101.719 174.071 102.275 174.456 102.284C174.842 102.293 174.657 102.849 174.502 103.029C174.174 103.402 173.628 103.63 173.209 103.873C172.557 104.253 171.925 104.66 171.233 104.963C169.282 105.823 167.139 106.26 165.07 106.743C164.114 106.965 163.158 107.181 162.199 107.384L162.618 107.624C161.98 105.076 161.346 102.53 160.709 99.9819C160.602 99.5567 159.944 99.7359 160.05 100.164C160.687 102.713 161.322 105.258 161.959 107.807C162.005 107.992 162.202 108.083 162.378 108.047C164.663 107.561 166.945 107.041 169.194 106.412C170.205 106.13 171.246 105.784 172.168 105.276C172.502 105.094 172.827 104.888 173.157 104.696C173.685 104.389 174.247 104.11 174.729 103.736C175.075 103.469 175.312 103.132 175.352 102.688C175.403 102.099 175.072 101.619 174.456 101.607L174.547 102.278C175.203 102.09 175.731 101.574 175.734 100.863C175.734 100.094 175.136 99.6144 174.39 99.7146L174.572 100.374C175.336 100.088 176.329 99.3592 175.934 98.4115C175.54 97.4638 174.247 97.637 173.482 98.0075L173.995 98.3022C174.229 95.1827 169.549 97.7281 168.402 98.4389C168.262 98.527 168.159 98.527 168.39 98.6059C168.666 98.7031 168.517 98.7092 168.566 98.5695C168.599 98.4784 168.587 98.3356 168.602 98.2384C168.714 97.5337 168.912 96.8381 169.103 96.1486C169.164 95.9268 168.994 95.7264 168.775 95.7173C167.874 95.6747 166.985 95.9238 166.22 96.4037C165.628 96.7773 165.149 97.2694 164.645 97.7494C163.455 98.8854 161.877 99.4504 160.287 99.745C159.856 99.827 160.038 100.483 160.469 100.404L160.478 100.395Z" fill="#553597"/>
<path d="M168.396 101.224C169.98 100.456 171.564 99.6873 173.148 98.9188L173.831 98.5877C174.226 98.3963 173.88 97.8071 173.485 97.9984C171.901 98.7669 170.317 99.5354 168.733 100.304L168.05 100.635C167.655 100.826 168.001 101.416 168.396 101.224Z" fill="#553597"/>
<path d="M169.143 102.555C171.103 101.628 173.067 100.705 175.027 99.7784Z" fill="white"/>
<path d="M169.315 102.849C171.276 101.923 173.239 101 175.2 100.073C175.597 99.8848 175.252 99.2955 174.854 99.4838C172.893 100.41 170.93 101.334 168.969 102.26C168.572 102.448 168.918 103.038 169.315 102.849Z" fill="#553597"/>
<path d="M169.858 104.022C171.345 103.335 172.836 102.649 174.323 101.962Z" fill="white"/>
<path d="M170.031 104.316C171.519 103.63 173.009 102.944 174.496 102.257C174.666 102.178 174.702 101.938 174.617 101.789C174.52 101.616 174.317 101.589 174.15 101.668C172.663 102.354 171.173 103.041 169.686 103.727C169.516 103.806 169.479 104.046 169.564 104.195C169.661 104.368 169.865 104.395 170.031 104.316Z" fill="#553597"/>
<path d="M121.141 85.3259C119.715 90.7509 119.165 95.368 118.941 98.7335C118.816 100.614 118.646 103.341 118.91 106.886C119.174 110.422 119.593 116.142 121.165 118.262C124.81 123.167 141.79 118.444 162.29 107.709C161.653 105.161 161.018 102.615 160.381 100.067C147.862 102.77 142.646 104.113 141.086 104.736C140.904 104.809 140.133 104.994 139.119 105.282C137.517 105.741 136.291 105.629 135.359 105.115C133.338 104.001 131.893 97.6188 133.799 88.7006" fill="#A78ED7"/>
<path d="M157.009 100.741C157.744 103.417 158.475 106.093 159.209 108.77C159.325 109.192 159.983 109.013 159.868 108.587C159.133 105.911 158.402 103.235 157.668 100.559C157.552 100.137 156.894 100.316 157.009 100.741Z" fill="white"/>
<path d="M136.263 118.629C143.422 116.573 150.412 113.921 157.131 110.704C158.93 109.845 160.709 108.943 162.466 108.004C162.599 107.931 162.657 107.761 162.624 107.618C161.986 105.07 161.352 102.524 160.715 99.9759C160.666 99.7815 160.475 99.7116 160.296 99.7359C155.288 100.447 150.387 101.713 145.486 102.944C144.139 103.281 142.791 103.624 141.447 103.985C140.582 104.216 139.726 104.471 138.861 104.702C137.996 104.933 137.092 105.046 136.227 104.818C134.339 104.316 133.835 101.956 133.538 100.277C132.852 96.4038 133.295 92.3213 134.106 88.5032C134.197 88.0749 133.538 87.8896 133.447 88.3209C132.679 91.9325 132.263 95.7173 132.722 99.4018C132.873 100.614 133.107 101.835 133.571 102.968C133.878 103.721 134.288 104.505 134.964 104.991C136.263 105.926 138.033 105.647 139.459 105.243C140.885 104.839 142.448 104.423 143.95 104.037C146.888 103.284 149.835 102.57 152.788 101.877C155.343 101.279 157.877 100.766 160.481 100.395L160.062 100.155C160.7 102.704 161.334 105.249 161.971 107.797L162.129 107.412C155.577 110.911 148.736 113.866 141.693 116.227C139.838 116.849 137.969 117.429 136.087 117.97C135.665 118.092 135.844 118.751 136.269 118.629H136.263Z" fill="white"/>
<path d="M160.056 101.914C159.579 102.008 159.106 102.099 158.63 102.193C158.454 102.227 158.338 102.448 158.39 102.612C158.451 102.801 158.62 102.889 158.809 102.852C159.285 102.758 159.759 102.667 160.235 102.573C160.411 102.54 160.526 102.318 160.475 102.154C160.414 101.965 160.244 101.877 160.056 101.914Z" fill="white"/>
<path d="M160.56 104.016C160.141 104.14 159.722 104.268 159.3 104.392C159.13 104.444 159.003 104.635 159.06 104.812C159.118 104.988 159.297 105.106 159.479 105.052C159.898 104.927 160.317 104.8 160.739 104.675C160.909 104.623 161.036 104.432 160.978 104.256C160.921 104.08 160.742 103.961 160.56 104.016Z" fill="white"/>
<path d="M160.939 105.854C160.52 106.036 160.101 106.218 159.679 106.4C159.607 106.431 159.543 106.531 159.522 106.604C159.5 106.686 159.51 106.795 159.555 106.868C159.601 106.941 159.673 107.005 159.758 107.026C159.852 107.047 159.931 107.029 160.022 106.993C160.441 106.81 160.86 106.628 161.282 106.446C161.355 106.415 161.418 106.315 161.44 106.242C161.461 106.16 161.452 106.051 161.406 105.978C161.361 105.905 161.288 105.841 161.203 105.82C161.109 105.799 161.03 105.817 160.939 105.854Z" fill="white"/>
<path d="M217.651 109.48H222.285C222.543 109.48 222.765 109.653 222.825 109.896C223.016 110.68 223.205 112.12 222.491 113.569C222.209 114.143 221.705 115.163 220.522 115.595C219.369 116.014 218.306 115.607 218.006 115.479C218.015 115.233 218.021 114.99 218.03 114.744C218.279 114.854 218.753 115.021 219.347 114.975C220.209 114.908 220.774 114.441 220.989 114.258C222.343 113.107 222.173 111.212 222.142 110.926C222.136 110.856 222.127 110.789 222.115 110.726C222.079 110.486 221.869 110.31 221.62 110.306C220.297 110.297 218.974 110.288 217.651 110.279V109.483V109.48Z" fill="white"/>
<path d="M217.651 109.82H221.584C221.8 109.82 222.018 109.808 222.237 109.82C222.613 109.839 222.604 110.467 222.631 110.759C222.752 112.007 222.425 113.265 221.684 114.283C220.837 115.44 219.375 115.68 218.094 115.145L218.346 115.473C218.355 115.227 218.361 114.984 218.37 114.738L217.857 115.033C219.441 115.71 221.229 115.012 222.021 113.493C222.352 112.858 222.501 112.135 222.507 111.421C222.513 110.853 222.47 110.118 221.793 109.975C221.475 109.909 221.105 109.954 220.78 109.951C220.455 109.948 220.097 109.945 219.757 109.945C219.056 109.939 218.355 109.936 217.654 109.93L217.994 110.27V109.474C217.994 109.034 217.311 109.034 217.311 109.474V110.27C217.311 110.455 217.469 110.61 217.651 110.61C218.652 110.616 219.654 110.625 220.658 110.631C220.898 110.631 221.141 110.635 221.381 110.638C221.602 110.638 221.757 110.61 221.793 110.862C221.815 110.999 221.821 111.142 221.824 111.282C221.845 112.411 221.454 113.566 220.476 114.213C219.803 114.659 218.953 114.763 218.2 114.441C217.964 114.34 217.696 114.456 217.687 114.735C217.678 114.981 217.672 115.224 217.663 115.47C217.657 115.634 217.775 115.744 217.915 115.798C219.187 116.33 220.698 116.181 221.739 115.236C222.78 114.292 223.277 112.876 223.338 111.57C223.353 111.215 223.335 110.859 223.287 110.507C223.25 110.224 223.223 109.893 223.095 109.635C222.907 109.252 222.537 109.128 222.142 109.128H217.651C217.211 109.128 217.211 109.811 217.651 109.811V109.82Z" fill="#553597"/>
<path d="M207.548 108.372C211.096 108.353 214.646 108.332 218.194 108.314C218.649 108.314 219.041 108.624 219.132 109.058C219.375 110.203 219.557 111.877 219.202 113.833C218.892 115.537 218.276 116.886 217.733 117.824C217.493 118.237 217.044 118.493 216.558 118.493H209.56C209.102 118.493 208.674 118.268 208.428 117.891C207.839 117.004 207.151 115.71 206.75 114.049C206.27 112.047 206.407 110.313 206.616 109.146C206.695 108.703 207.09 108.378 207.548 108.375V108.372Z" fill="white"/>
<path d="M207.548 108.712C209.448 108.703 211.348 108.691 213.244 108.681C214.194 108.675 215.144 108.672 216.094 108.666C216.567 108.666 217.044 108.66 217.517 108.657C217.882 108.657 218.391 108.551 218.664 108.861C218.856 109.079 218.871 109.471 218.913 109.745C218.968 110.088 219.007 110.434 219.029 110.78C219.086 111.619 219.062 112.469 218.941 113.301C218.728 114.784 218.252 116.375 217.435 117.645C217.05 118.244 216.379 118.143 215.769 118.143H210.61C210.158 118.143 209.505 118.244 209.087 118.031C208.744 117.855 208.556 117.469 208.367 117.15C208.164 116.804 207.979 116.448 207.809 116.084C207.411 115.221 207.126 114.307 206.953 113.374C206.78 112.442 206.732 111.549 206.78 110.635C206.811 110.048 206.738 108.76 207.548 108.712C207.985 108.684 207.988 108.001 207.548 108.028C206.723 108.077 206.34 108.648 206.228 109.407C206.116 110.167 206.061 110.941 206.091 111.713C206.158 113.569 206.653 115.397 207.524 117.038C207.845 117.642 208.191 118.371 208.841 118.669C209.135 118.802 209.442 118.827 209.757 118.827H215.214C215.763 118.827 216.379 118.9 216.923 118.787C217.709 118.62 218.067 117.97 218.394 117.305C218.762 116.567 219.062 115.795 219.281 114.999C219.766 113.247 219.86 111.403 219.578 109.608C219.457 108.833 219.214 108.047 218.294 107.971C217.718 107.922 217.12 107.971 216.54 107.974C215.96 107.977 215.341 107.98 214.74 107.983C212.34 107.995 209.942 108.01 207.542 108.022C207.102 108.022 207.102 108.709 207.542 108.706L207.548 108.712Z" fill="#553597"/>
<path d="M104.179 119.501L100.702 95.7142C100.522 94.4901 101.494 93.3936 102.762 93.3936H136.737C137.772 93.3936 138.649 94.1378 138.797 95.1371L142.36 119.501H104.182H104.179Z" fill="white"/>
<path d="M104.507 119.41C104.185 117.205 103.861 114.999 103.539 112.794L101.806 100.951L101.193 96.7652C101.044 95.7537 100.756 94.6329 101.849 93.9829C102.431 93.6366 103.217 93.7338 103.873 93.7338H107.399C111.111 93.7338 114.822 93.7338 118.531 93.7338C122.455 93.7338 126.379 93.7338 130.303 93.7338C132.406 93.7338 134.512 93.7247 136.615 93.7338C137.313 93.7338 137.966 94.0315 138.294 94.6815C138.439 94.9701 138.47 95.286 138.515 95.5988L138.989 98.8277L140.667 110.313L141.957 119.127C141.978 119.282 142.002 119.437 142.023 119.592L142.351 119.161H108.871C107.33 119.161 105.776 119.1 104.237 119.161C104.216 119.161 104.195 119.161 104.173 119.161C103.733 119.161 103.733 119.844 104.173 119.844H137.653C139.195 119.844 140.749 119.905 142.287 119.844C142.309 119.844 142.33 119.844 142.351 119.844C142.594 119.844 142.712 119.626 142.679 119.413C142.357 117.202 142.033 114.993 141.711 112.782L139.951 100.753L139.31 96.3795C139.18 95.4895 139.156 94.5205 138.512 93.8249C137.781 93.0382 136.837 93.0564 135.875 93.0564H132.561C128.843 93.0564 125.123 93.0564 121.405 93.0564H109.427C107.245 93.0564 105.063 93.0473 102.881 93.0564C101.296 93.0625 100.152 94.314 100.377 95.8965C100.504 96.7895 100.638 97.6826 100.768 98.5756C101.324 102.363 101.876 106.154 102.431 109.942C102.877 112.998 103.324 116.05 103.773 119.106L103.846 119.595C103.909 120.03 104.568 119.844 104.504 119.413L104.507 119.41Z" fill="#553597"/>
<path d="M253.826 118.529H87.2392C85.7995 118.529 84.6323 119.697 84.6323 121.138V121.248C84.6323 122.689 85.7995 123.857 87.2392 123.857H253.826C255.265 123.857 256.433 122.689 256.433 121.248V121.138C256.433 119.697 255.265 118.529 253.826 118.529Z" fill="white"/>
<path d="M253.826 123.514C253.422 123.514 253.018 123.514 252.615 123.514H249.173C247.358 123.514 245.544 123.514 243.729 123.514C241.331 123.514 238.937 123.514 236.539 123.514H227.881C224.561 123.514 221.241 123.514 217.918 123.514H207.02C203.138 123.514 199.257 123.514 195.375 123.514C191.302 123.514 187.23 123.514 183.157 123.514C179.084 123.514 174.893 123.514 170.76 123.514C166.627 123.514 162.466 123.514 158.32 123.514C154.257 123.514 150.19 123.514 146.126 123.514C142.063 123.514 138.348 123.514 134.461 123.514H123.466C120.152 123.514 116.841 123.514 113.527 123.514H104.795C102.38 123.514 99.967 123.514 97.5513 123.514C95.7214 123.514 93.8914 123.514 92.0584 123.514H88.5258C88.0979 123.514 87.67 123.52 87.2421 123.514C85.9918 123.492 84.9933 122.499 84.9751 121.245C84.9569 119.99 85.9341 118.891 87.2421 118.866C87.3514 118.866 87.4606 118.866 87.5699 118.866H89.9765C91.4757 118.866 92.9749 118.866 94.4771 118.866H100.853C103.518 118.866 106.182 118.866 108.847 118.866C111.958 118.866 115.068 118.866 118.179 118.866C121.684 118.866 125.186 118.866 128.691 118.866H140.008C143.999 118.866 147.99 118.866 151.981 118.866C156.096 118.866 160.211 118.866 164.326 118.866H176.757C180.884 118.866 185.011 118.866 189.139 118.866C193.266 118.866 197.096 118.866 201.072 118.866H212.388C215.894 118.866 219.396 118.866 222.901 118.866C226.012 118.866 229.122 118.866 232.233 118.866C234.897 118.866 237.562 118.866 240.227 118.866H246.603C248.102 118.866 249.601 118.866 251.103 118.866H253.51C253.619 118.866 253.728 118.866 253.835 118.866C254.988 118.888 255.989 119.756 256.093 120.926C256.214 122.293 255.228 123.483 253.835 123.511C253.395 123.52 253.395 124.203 253.835 124.194C255.246 124.167 256.502 123.164 256.739 121.746C256.954 120.455 256.372 119.106 255.179 118.505C254.687 118.256 254.159 118.18 253.619 118.18H251.422C249.968 118.18 248.515 118.18 247.061 118.18C244.97 118.18 242.882 118.18 240.791 118.18H232.864C229.744 118.18 226.625 118.18 223.505 118.18C220.021 118.18 216.537 118.18 213.053 118.18C209.25 118.18 205.445 118.18 201.642 118.18C197.648 118.18 193.651 118.18 189.658 118.18C185.509 118.18 181.36 118.18 177.212 118.18C173.063 118.18 168.848 118.18 164.669 118.18C160.527 118.18 156.384 118.18 152.245 118.18C148.105 118.18 144.208 118.18 140.19 118.18C136.382 118.18 132.573 118.18 128.764 118.18C125.238 118.18 121.711 118.18 118.185 118.18C115.056 118.18 111.927 118.18 108.801 118.18C106.119 118.18 103.436 118.18 100.75 118.18C98.6287 118.18 96.5043 118.18 94.383 118.18H89.8763C89.0964 118.18 88.3164 118.18 87.5365 118.18C87.3362 118.18 87.1389 118.177 86.9386 118.198C85.5275 118.353 84.4198 119.51 84.3105 120.923C84.2073 122.238 84.9326 123.492 86.1678 123.984C86.8446 124.255 87.6002 124.191 88.3164 124.191H91.6638C93.4635 124.191 95.2631 124.191 97.0627 124.191C99.442 124.191 101.821 124.191 104.201 124.191C107.105 124.191 110.009 124.191 112.914 124.191C116.221 124.191 119.532 124.191 122.84 124.191H133.851C137.766 124.191 141.677 124.191 145.592 124.191C149.677 124.191 153.762 124.191 157.847 124.191C162.017 124.191 166.186 124.191 170.356 124.191C174.529 124.191 178.699 124.191 182.872 124.191H195.172C199.081 124.191 202.99 124.191 206.895 124.191C210.573 124.191 214.252 124.191 217.933 124.191C221.253 124.191 224.573 124.191 227.896 124.191H236.652C239.055 124.191 241.456 124.191 243.859 124.191C245.671 124.191 247.483 124.191 249.295 124.191C250.433 124.191 251.568 124.191 252.706 124.191C253.085 124.191 253.461 124.191 253.841 124.191C254.281 124.191 254.281 123.508 253.841 123.508L253.826 123.514Z" fill="#553597"/>
<path d="M92.8323 123.872H97.1113C93.6881 149.995 90.2679 176.117 86.8446 202.243C86.7475 202.984 86.2437 203.528 85.655 203.528C84.9236 203.528 84.3621 202.705 84.4623 201.781C87.2513 175.814 90.0402 149.843 92.8323 123.875V123.872Z" fill="white"/>
<path d="M92.8322 124.215H97.1113L96.7714 123.875C96.0856 129.115 95.3997 134.355 94.7138 139.594C94.031 144.81 93.3482 150.022 92.6653 155.238C91.9825 160.453 91.2936 165.717 90.6077 170.957C89.9219 176.196 89.236 181.436 88.5501 186.676C88.2072 189.282 87.8673 191.891 87.5244 194.497C87.3544 195.801 87.1814 197.104 87.0115 198.41C86.9265 199.063 86.8415 199.713 86.7566 200.366C86.6716 201.019 86.6473 201.739 86.4774 202.383C86.3803 202.76 86.098 203.188 85.661 203.191C85.224 203.194 84.9296 202.744 84.8386 202.359C84.7081 201.797 84.878 201.141 84.9387 200.579C85.0085 199.926 85.0783 199.269 85.1481 198.616C85.4304 195.998 85.7096 193.383 85.9918 190.764C86.5563 185.506 87.1207 180.245 87.6852 174.987C88.2497 169.73 88.8142 164.469 89.3786 159.211C89.9401 153.977 90.5046 148.743 91.066 143.51C91.6274 138.276 92.1949 132.991 92.7594 127.733C92.896 126.448 93.0356 125.166 93.1721 123.881C93.2177 123.444 92.5348 123.447 92.4893 123.881C91.9127 129.242 91.3391 134.601 90.7625 139.962C90.1829 145.347 89.6062 150.733 89.0266 156.118C88.45 161.48 87.8764 166.838 87.2998 172.199C86.7232 177.56 86.1435 182.97 85.5639 188.356C85.2786 191.023 84.9903 193.689 84.705 196.356C84.5594 197.714 84.4137 199.075 84.268 200.433C84.1588 201.441 83.8614 202.623 84.6595 203.437C85.2422 204.035 86.1587 204.002 86.711 203.379C87.054 202.993 87.1511 202.526 87.2179 202.027C87.3059 201.35 87.3939 200.673 87.4849 199.995C87.8339 197.338 88.1799 194.68 88.5289 192.022C89.233 186.658 89.934 181.29 90.6381 175.926C91.3422 170.562 92.0371 165.246 92.7351 159.906C93.4331 154.566 94.1342 149.226 94.8322 143.886C95.5363 138.522 96.2373 133.155 96.9414 127.79C97.1113 126.487 97.2843 125.184 97.4542 123.878C97.4785 123.696 97.2782 123.538 97.1144 123.538H92.8353C92.3952 123.538 92.3952 124.221 92.8353 124.221L92.8322 124.215Z" fill="#553597"/>
<path d="M249.85 123.972H245.107C248.9 150.095 252.694 176.218 256.487 202.343C256.594 203.085 257.152 203.628 257.805 203.628C258.615 203.628 259.237 202.805 259.128 201.882C256.035 175.914 252.943 149.943 249.847 123.975L249.85 123.972Z" fill="white"/>
<path d="M249.85 123.629H245.107C244.864 123.629 244.746 123.848 244.779 124.06C245.556 129.416 246.336 134.771 247.113 140.126C247.89 145.481 248.67 150.836 249.447 156.191C250.223 161.546 251.003 166.902 251.78 172.257C252.557 177.612 253.337 182.967 254.114 188.322C254.502 190.998 254.891 193.677 255.279 196.353C255.471 197.681 255.665 199.005 255.856 200.333C255.953 201.007 256.044 201.684 256.15 202.359C256.223 202.823 256.417 203.258 256.776 203.571C257.41 204.12 258.342 204.081 258.93 203.486C259.75 202.659 259.425 201.472 259.304 200.448C258.985 197.76 258.663 195.075 258.345 192.386C257.704 187.013 257.064 181.637 256.424 176.263C255.783 170.89 255.143 165.513 254.502 160.14C253.862 154.767 253.222 149.39 252.581 144.017C251.941 138.644 251.301 133.267 250.66 127.894C250.506 126.588 250.348 125.282 250.193 123.975C250.141 123.544 249.459 123.538 249.51 123.975C250.138 129.249 250.767 134.525 251.395 139.798C252.02 145.047 252.645 150.295 253.27 155.544C253.899 160.817 254.527 166.094 255.155 171.367C255.783 176.64 256.411 181.916 257.04 187.189C257.352 189.826 257.668 192.462 257.98 195.102C258.135 196.408 258.293 197.714 258.448 199.02C258.527 199.673 258.603 200.326 258.681 200.98C258.745 201.511 258.912 202.122 258.694 202.635C258.281 203.607 257.085 203.379 256.848 202.416C256.7 201.806 256.657 201.15 256.566 200.527C256.475 199.904 256.378 199.227 256.284 198.574C255.902 195.946 255.522 193.319 255.14 190.691C254.378 185.437 253.613 180.182 252.852 174.927C252.093 169.696 251.331 164.469 250.572 159.238C249.811 153.983 249.046 148.728 248.284 143.473C247.522 138.218 246.758 132.963 245.996 127.708C245.811 126.433 245.626 125.157 245.441 123.881L245.113 124.313H249.856C250.296 124.313 250.296 123.629 249.856 123.629H249.85Z" fill="#553597"/>
</g>
<path d="M205.467 56.9895C205.467 58.2837 204.374 59.3341 203.028 59.3341C201.682 59.3341 200.589 58.2837 200.589 56.9895C200.589 55.6953 201.682 54.6449 203.028 54.6449C204.374 54.6449 205.467 55.6953 205.467 56.9895ZM185.906 54.6449C184.56 54.6449 183.467 55.6953 183.467 56.9895C183.467 58.2837 184.56 59.3341 185.906 59.3341C187.253 59.3341 188.346 58.2837 188.346 56.9895C188.346 55.6953 187.253 54.6449 185.906 54.6449ZM194.603 58.9115H194.33C191.6 58.9115 189.387 61.0386 189.387 63.662V69.9295C189.387 72.6266 191.662 74.8116 194.466 74.8116C197.272 74.8116 199.545 72.6248 199.545 69.9295V63.6638C199.547 61.0386 197.334 58.9115 194.603 58.9115Z" fill="#6F46BE"/>
</g>
<defs>
<clipPath id="clip0_2191_2491">
<rect width="318.579" height="214" fill="white"/>
</clipPath>
<clipPath id="clip1_2191_2491">
<rect width="188" height="194.198" fill="white" transform="translate(71.4673 10.0076)"/>
</clipPath>
</defs>
</svg>
