<svg width="188" height="195" viewBox="0 0 188 195" fill="none" xmlns="http://www.w3.org/2000/svg">
<g clip-path="url(#clip0_2173_1489)">
<path d="M61.8189 93.4489H59.3001C57.1029 93.4489 54.9057 93.4489 52.7054 93.4489H43.3036C39.7225 93.4489 36.1415 93.4489 32.5634 93.4489H21.6897C18.5184 93.4489 15.347 93.4489 12.1756 93.4489C9.86615 93.4489 7.55666 93.4489 5.24718 93.4489C4.27907 93.4489 3.30794 93.4671 2.33983 93.4489C1.37173 93.4307 0.6889 92.6652 0.682831 91.7084C0.682831 91.4198 0.682831 91.1313 0.682831 90.8458C0.682831 89.5001 0.682831 88.1515 0.682831 86.8059C0.682831 85.4602 0.682831 82.368 0.682831 80.1476C0.682831 77.262 0.682831 74.3763 0.682831 71.4907C0.682831 68.1403 0.682831 64.7899 0.682831 61.4426C0.682831 58.0952 0.682831 54.2224 0.682831 50.6108C0.682831 46.9992 0.682831 43.2752 0.682831 39.6058C0.682831 35.9365 0.682831 32.5588 0.682831 29.0353C0.682831 25.861 0.682831 22.6838 0.682831 19.5096C0.682831 16.8852 0.682831 14.2608 0.682831 11.6363C0.682831 9.76523 0.682831 7.89412 0.682831 6.023V3.28012C0.682831 2.32027 1.29586 1.49406 2.31859 1.4728C2.55227 1.46672 2.78595 1.4728 3.01963 1.4728C4.61897 1.4728 6.22135 1.4728 7.82069 1.4728H16.0298C19.4531 1.4728 22.8733 1.4728 26.2966 1.4728C29.9565 1.4728 33.6135 1.4728 37.2735 1.4728C40.718 1.4728 44.1655 1.4728 47.61 1.4728C50.3929 1.4728 53.1758 1.4728 55.9587 1.4728C57.6279 1.4728 59.3001 1.4728 60.9692 1.4728C61.2454 1.4728 61.5246 1.46672 61.8038 1.4728C62.7962 1.49406 63.4486 2.2747 63.4517 3.22848C63.4547 4.0881 63.4517 4.94772 63.4517 5.80734C63.4517 7.63289 63.4517 9.46148 63.4517 11.287C63.4517 13.1126 63.4517 16.469 63.4517 19.06C63.4517 22.213 63.4517 25.3629 63.4517 28.5158C63.4517 31.6688 63.4517 35.5356 63.4517 39.0469C63.4517 42.5583 63.4517 46.3795 63.4517 50.0427C63.4517 53.706 63.4517 57.2781 63.4517 60.8988C63.4517 64.2553 63.4517 67.6118 63.4517 70.9713C63.4517 74.3308 63.4517 76.8215 63.4517 79.7497C63.4517 82.6779 63.4517 84.2543 63.4517 86.5082V91.6507C63.4517 92.6106 62.8417 93.4337 61.8159 93.458C61.3759 93.4702 61.3759 94.1536 61.8159 94.1415C63.1694 94.105 64.1284 93.0358 64.1345 91.7084C64.1345 91.4107 64.1345 91.1161 64.1345 90.8184V79.9137C64.1345 76.9764 64.1345 74.0422 64.1345 71.1049V60.9383C64.1345 57.2963 64.1345 53.6513 64.1345 50.0093C64.1345 46.3066 64.1345 42.6039 64.1345 38.9011C64.1345 35.1984 64.1345 31.8419 64.1345 28.3123C64.1345 24.7827 64.1345 21.9882 64.1345 18.8262V5.62205C64.1345 4.808 64.1406 3.99698 64.1345 3.18292C64.1254 1.86768 63.1421 0.813656 61.8129 0.786318C61.5519 0.780243 61.2909 0.786318 61.0299 0.786318C59.3729 0.786318 57.7129 0.786318 56.0559 0.786318C53.2638 0.786318 50.4718 0.786318 47.6798 0.786318C44.1989 0.786318 40.721 0.786318 37.2401 0.786318C33.5558 0.786318 29.8716 0.786318 26.1904 0.786318C22.7519 0.786318 19.3105 0.786318 15.872 0.786318C13.1286 0.786318 10.3851 0.786318 7.64164 0.786318C6.07264 0.786318 4.50365 0.786318 2.93466 0.786318C2.62814 0.786318 2.31252 0.771131 2.00904 0.810618C0.779944 0.974645 0.00606961 2.04081 0 3.23456C0 4.12152 0 5.00543 0 5.88935V19.3547C0 22.5562 0 25.7608 0 28.9624C0 32.1639 0 36.055 0 39.6028C0 43.1506 0 46.99 0 50.6837C0 54.3773 0 57.9737 0 61.6187C0 65.2638 0 68.3499 0 71.7124C0 75.075 0 77.4959 0 80.3845C0 82.5989 0 84.8132 0 87.0276C0 88.3428 0 89.6581 0 90.9733C0 91.2315 0 91.4928 0 91.7509C0.00910441 93.0632 1.00755 94.105 2.32769 94.1324C3.27759 94.1536 4.22748 94.1324 5.17737 94.1324C7.48079 94.1324 9.78421 94.1324 12.0907 94.1324H21.6897C25.3406 94.1324 28.9884 94.1324 32.6393 94.1324C36.2902 94.1324 39.8682 94.1324 43.4827 94.1324C46.6146 94.1324 49.7465 94.1324 52.8784 94.1324C55.0726 94.1324 57.2698 94.1324 59.4639 94.1324H61.822C62.262 94.1324 62.262 93.4489 61.822 93.4489H61.8189Z" fill="#553597"/>
<path d="M59.5549 91.5868H57.1392C55.0209 91.5868 52.8996 91.5868 50.7813 91.5868C47.8042 91.5868 44.827 91.5868 41.8499 91.5868H31.6499C28.257 91.5868 24.8641 91.5868 21.4681 91.5868H12.6763C10.6582 91.5868 8.64002 91.5868 6.62491 91.5868H5.01646C4.46109 91.5868 3.93911 91.5777 3.48692 91.1706C2.77678 90.5328 2.93155 89.4757 2.93155 88.613C2.93155 87.2097 2.93155 85.8064 2.93155 84.403C2.93155 82.2099 2.93155 80.0169 2.93155 77.8238C2.93155 75.6307 2.93155 72.2621 2.93155 69.4797C2.93155 66.6973 2.93155 63.0736 2.93155 59.872C2.93155 56.4578 2.93155 53.0437 2.93155 49.6295C2.93155 46.2153 2.93155 42.7009 2.93155 39.2381C2.93155 35.7754 2.93155 32.6103 2.93155 29.2963C2.93155 26.3317 2.93155 23.3641 2.93155 20.3994C2.93155 17.4348 2.93155 15.4938 2.93155 13.0395C2.93155 11.299 2.93155 9.55854 2.93155 7.81804C2.93155 6.07754 2.93155 6.13829 2.93155 5.29993C2.93155 4.34008 3.56279 3.52298 4.57945 3.50172C4.80403 3.49564 5.0286 3.50172 5.25014 3.50172C6.78879 3.50172 8.33047 3.50172 9.86911 3.50172C12.4942 3.50172 15.1163 3.50172 17.7414 3.50172H27.4952C30.9519 3.50172 34.4116 3.50172 37.8682 3.50172C41.076 3.50172 44.2838 3.50172 47.4946 3.50172C50.0013 3.50172 52.5081 3.50172 55.0148 3.50172C56.3926 3.50172 57.7704 3.50172 59.1452 3.50172C59.7734 3.50172 60.3682 3.55639 60.8174 4.09404C61.1542 4.49803 61.1998 4.95669 61.1998 5.4427V13.8232C61.1998 16.3504 61.1998 18.8746 61.1998 21.4018V30.4871C61.1998 33.8162 61.1998 37.1483 61.1998 40.4775C61.1998 43.8066 61.1998 47.3909 61.1998 50.8475C61.1998 54.3042 61.1998 57.6668 61.1998 61.0779C61.1998 64.4891 61.1998 67.402 61.1998 70.5671V89.7886C61.1998 90.7514 60.5685 91.5625 59.5519 91.5898C59.1118 91.602 59.1118 92.2854 59.5519 92.2733C60.8963 92.2368 61.8735 91.1737 61.8826 89.8463C61.8826 89.579 61.8826 89.3117 61.8826 89.0444V85.2171C61.8826 83.1151 61.8826 81.0101 61.8826 78.9082C61.8826 76.8062 61.8826 73.4315 61.8826 70.6947C61.8826 67.5114 61.8826 64.3311 61.8826 61.1478V50.8475C61.8826 47.3544 61.8826 43.8582 61.8826 40.3651C61.8826 36.8719 61.8826 33.64 61.8826 30.2775C61.8826 26.9149 61.8826 24.2176 61.8826 21.1892C61.8826 18.6559 61.8826 16.1196 61.8826 13.5863V5.37283C61.8826 4.66205 61.7005 3.97861 61.1664 3.46831C60.6323 2.958 59.9252 2.82132 59.2029 2.82132C57.8433 2.82132 56.4837 2.82132 55.1241 2.82132C52.6022 2.82132 50.0803 2.82132 47.5583 2.82132C44.3293 2.82132 41.1003 2.82132 37.8682 2.82132C34.3843 2.82132 30.9033 2.82132 27.4194 2.82132C24.1388 2.82132 20.8581 2.82132 17.5775 2.82132H5.17427C4.89203 2.82132 4.60069 2.80613 4.32149 2.83954C3.07722 2.98534 2.25783 4.04544 2.25176 5.26348C2.24872 6.06842 2.25176 6.8764 2.25176 7.68135C2.25176 9.41577 2.25176 11.1502 2.25176 12.8846C2.25176 14.619 2.25176 17.7781 2.25176 20.2263C2.25176 22.6745 2.25176 26.2315 2.25176 29.2356C2.25176 32.2397 2.25176 35.8847 2.25176 39.2078C2.25176 42.5308 2.25176 46.185 2.25176 49.6751C2.25176 53.1652 2.25176 56.5763 2.25176 60.0269C2.25176 63.4776 2.25176 66.4665 2.25176 69.6862V84.6278C2.25176 86.0068 2.25176 87.3828 2.25176 88.7619C2.25176 90.1409 2.14554 91.0005 3.15309 91.7842C4.04836 92.4828 5.45954 92.2763 6.53386 92.2763C8.54594 92.2763 10.558 92.2763 12.5671 92.2763C15.5229 92.2763 18.4788 92.2763 21.4347 92.2763C24.8398 92.2763 28.2448 92.2763 31.6499 92.2763C35.0549 92.2763 38.545 92.2763 41.9925 92.2763C44.9787 92.2763 47.965 92.2763 50.9512 92.2763H59.5549C59.995 92.2763 59.995 91.5928 59.5549 91.5928V91.5868Z" fill="#553597"/>
<path d="M2.9347 44.6722V19.0477C2.9347 18.7197 2.99843 18.3187 2.9347 17.9967C2.9347 17.9815 2.9347 17.9633 2.9347 17.9481L2.5948 18.2883H19.438C21.6867 18.2883 23.9355 18.2671 26.1843 18.2883C26.327 18.2883 26.4635 18.2974 26.6031 18.343C27.4013 18.5982 27.4468 19.3727 27.4438 20.0774C27.4286 21.9759 27.4165 23.8743 27.4013 25.7697C27.3709 29.5909 27.3436 33.4121 27.3133 37.2333C27.2556 44.8757 27.1979 52.5181 27.1403 60.1575C27.1342 61.0931 27.1251 62.0286 27.119 62.9672C27.116 63.4077 27.7988 63.4077 27.8019 62.9672C27.8595 55.2003 27.9202 47.4303 27.9779 39.6634C28.0082 35.7905 28.0356 31.9207 28.0659 28.0479C28.0811 26.1251 28.0963 24.2024 28.1084 22.2796C28.1145 21.3289 28.2025 20.3386 28.1205 19.3909C28.0689 18.7774 27.7412 18.2063 27.2131 17.8813C26.5788 17.4895 25.6927 17.6079 24.9765 17.6079H9.8328C7.45959 17.6079 5.0803 17.5532 2.70709 17.6079C2.67067 17.6079 2.63122 17.6079 2.59176 17.6079C2.40664 17.6079 2.25187 17.7659 2.25187 17.9481V41.3674C2.25187 42.4427 2.17296 43.5483 2.25187 44.6236C2.25187 44.6388 2.25187 44.657 2.25187 44.6722C2.25187 45.1127 2.9347 45.1127 2.9347 44.6722Z" fill="#553597"/>
<path d="M12.8828 30.1863H6.18501L6.52491 30.5265V21.9364L6.18501 22.2766H12.8828L12.5429 21.9364V30.5265C12.5429 30.9669 13.2258 30.9669 13.2258 30.5265V21.9364C13.2258 21.7511 13.0679 21.5962 12.8859 21.5962H6.18804C6.00292 21.5962 5.84814 21.7541 5.84814 21.9364V30.5265C5.84814 30.7118 6.00595 30.8667 6.18804 30.8667H12.8859C13.3259 30.8667 13.3259 30.1833 12.8859 30.1833L12.8828 30.1863Z" fill="#553597"/>
<path d="M2.59468 63.3106H33.5679C34.0444 63.3106 34.5512 63.2498 34.8759 63.6994C35.1217 64.0396 35.0519 64.5529 35.0519 64.9538V91.5504C35.0519 91.9908 35.7347 91.9908 35.7347 91.5504V65.695C35.7347 65.2363 35.7408 64.7807 35.7347 64.322C35.7256 63.3652 35.0337 62.6423 34.0686 62.6271C32.8911 62.6119 31.7136 62.6271 30.5361 62.6271C28.0961 62.6271 25.6531 62.6271 23.2131 62.6271C20.3058 62.6271 17.3985 62.6271 14.4911 62.6271H2.59468C2.15464 62.6271 2.15464 63.3106 2.59468 63.3106Z" fill="#553597"/>
<path d="M23.7776 30.1863H17.0798L17.4197 30.5265V21.9364L17.0798 22.2766H23.7776L23.4377 21.9364V30.5265C23.4377 30.9669 24.1205 30.9669 24.1205 30.5265V21.9364C24.1205 21.7511 23.9627 21.5962 23.7806 21.5962H17.0828C16.8977 21.5962 16.7429 21.7541 16.7429 21.9364V30.5265C16.7429 30.7118 16.9007 30.8667 17.0828 30.8667H23.7806C24.2207 30.8667 24.2207 30.1833 23.7806 30.1833L23.7776 30.1863Z" fill="#553597"/>
<path d="M12.8828 45.0398H6.18501L6.52491 45.38V36.7899L6.18501 37.1301H12.8828L12.5429 36.7899V45.38C12.5429 45.8205 13.2258 45.8205 13.2258 45.38V36.7899C13.2258 36.6046 13.0679 36.4497 12.8859 36.4497H6.18804C6.00292 36.4497 5.84814 36.6077 5.84814 36.7899V45.38C5.84814 45.5653 6.00595 45.7202 6.18804 45.7202H12.8859C13.3259 45.7202 13.3259 45.0368 12.8859 45.0368L12.8828 45.0398Z" fill="#553597"/>
<path d="M23.7776 45.0398H17.0798L17.4197 45.38V36.7899L17.0798 37.1301H23.7776L23.4377 36.7899V45.38C23.4377 45.8205 24.1205 45.8205 24.1205 45.38V36.7899C24.1205 36.6046 23.9627 36.4497 23.7806 36.4497H17.0828C16.8977 36.4497 16.7429 36.6077 16.7429 36.7899V45.38C16.7429 45.5653 16.9007 45.7202 17.0828 45.7202H23.7806C24.2207 45.7202 24.2207 45.0368 23.7806 45.0368L23.7776 45.0398Z" fill="#553597"/>
<path d="M13.2954 59.626H6.59761L6.9375 59.9662V51.3761L6.59761 51.7163H13.2954L12.9555 51.3761V59.9662C12.9555 60.4066 13.6383 60.4066 13.6383 59.9662V51.3761C13.6383 51.1908 13.4805 51.0359 13.2985 51.0359H6.60064C6.41552 51.0359 6.26074 51.1938 6.26074 51.3761V59.9662C6.26074 60.1515 6.41855 60.3064 6.60064 60.3064H13.2985C13.7385 60.3064 13.7385 59.623 13.2985 59.623L13.2954 59.626Z" fill="#553597"/>
<path d="M23.7776 59.626H17.0798L17.4197 59.9662V51.3761L17.0798 51.7163H23.7776L23.4377 51.3761V59.9662C23.4377 60.4066 24.1205 60.4066 24.1205 59.9662V51.3761C24.1205 51.1908 23.9627 51.0359 23.7806 51.0359H17.0828C16.8977 51.0359 16.7429 51.1938 16.7429 51.3761V59.9662C16.7429 60.1515 16.9007 60.3064 17.0828 60.3064H23.7806C24.2207 60.3064 24.2207 59.623 23.7806 59.623L23.7776 59.626Z" fill="#553597"/>
<path d="M61.4365 30.967H54.4413C50.9088 30.967 47.3793 30.967 43.8468 30.967H42.4629C42.1503 30.967 41.8408 30.9488 41.5434 31.0764C40.8181 31.3953 40.73 32.0909 40.7361 32.7956C40.7452 33.7828 40.7543 34.77 40.7665 35.7541C40.7847 37.7285 40.8059 39.6999 40.8241 41.6743C40.903 49.5415 40.9789 57.4086 41.0578 65.2758C41.1367 73.1673 41.2156 81.0618 41.2915 88.9533C41.3006 89.9131 41.3097 90.876 41.3188 91.8359C41.3218 92.2763 42.0047 92.2763 42.0016 91.8359C41.9258 84.0446 41.8469 76.2534 41.771 68.4622C41.6951 60.7195 41.6162 52.9799 41.5403 45.2373C41.5009 41.3401 41.4645 37.446 41.425 33.5489C41.4189 32.9475 41.161 31.7051 42.0563 31.6444C42.1079 31.6413 42.1564 31.6444 42.208 31.6444H53.2547C55.9344 31.6444 58.6202 31.6899 61.2999 31.6444C61.3455 31.6444 61.391 31.6444 61.4365 31.6444C61.8766 31.6444 61.8766 30.9609 61.4365 30.9609V30.967Z" fill="#553597"/>
<path d="M52.8693 51.5188H47.2944L47.6343 51.859V42.2027L47.2944 42.543H52.8693L52.5294 42.2027V51.859C52.5294 52.2995 53.2122 52.2995 53.2122 51.859V42.2027C53.2122 42.0175 53.0544 41.8625 52.8724 41.8625H47.2974C47.1123 41.8625 46.9575 42.0205 46.9575 42.2027V51.859C46.9575 52.0443 47.1153 52.1992 47.2974 52.1992H52.8724C53.3124 52.1992 53.3124 51.5158 52.8724 51.5158L52.8693 51.5188Z" fill="#553597"/>
<path d="M52.8693 69.2519H47.2944L47.6343 69.5921V59.9358L47.2944 60.276H52.8693L52.5294 59.9358V69.5921C52.5294 70.0325 53.2122 70.0325 53.2122 69.5921V59.9358C53.2122 59.7505 53.0544 59.5956 52.8724 59.5956H47.2974C47.1123 59.5956 46.9575 59.7535 46.9575 59.9358V69.5921C46.9575 69.7774 47.1153 69.9323 47.2974 69.9323H52.8724C53.3124 69.9323 53.3124 69.2488 52.8724 69.2488L52.8693 69.2519Z" fill="#553597"/>
<path d="M50.0803 87.9022H44.5053L44.8452 88.2424V78.5862L44.5053 78.9264H50.0803L49.7404 78.5862V88.2424C49.7404 88.6829 50.4232 88.6829 50.4232 88.2424V78.5862C50.4232 78.4009 50.2654 78.246 50.0833 78.246H44.5084C44.3232 78.246 44.1685 78.4039 44.1685 78.5862V88.2424C44.1685 88.4277 44.3263 88.5826 44.5084 88.5826H50.0833C50.5233 88.5826 50.5233 87.8992 50.0833 87.8992L50.0803 87.9022Z" fill="#553597"/>
<path d="M58.0012 87.9022H52.4262L52.7661 88.2424V78.5862L52.4262 78.9264H58.0012L57.6613 78.5862V88.2424C57.6613 88.6829 58.3441 88.6829 58.3441 88.2424V78.5862C58.3441 78.4009 58.1863 78.246 58.0042 78.246H52.4293C52.2441 78.246 52.0894 78.4039 52.0894 78.5862V88.2424C52.0894 88.4277 52.2472 88.5826 52.4293 88.5826H58.0042C58.4442 88.5826 58.4442 87.8992 58.0042 87.8992L58.0012 87.9022Z" fill="#553597"/>
<path d="M58.6081 35.6964H43.8984L44.2383 36.0366V34.4935L43.8984 34.8337H58.6081L58.2682 34.4935V36.0366C58.2682 36.477 58.951 36.477 58.951 36.0366V34.4935C58.951 34.3082 58.7932 34.1533 58.6111 34.1533H43.9014C43.7163 34.1533 43.5615 34.3113 43.5615 34.4935V36.0366C43.5615 36.2219 43.7193 36.3768 43.9014 36.3768H58.6111C59.0512 36.3768 59.0512 35.6933 58.6111 35.6933L58.6081 35.6964Z" fill="#553597"/>
<path d="M135.286 39.562H110.735C107.909 39.562 105.617 41.8557 105.617 44.685V64.1347C105.617 66.964 107.909 69.2577 110.735 69.2577H135.286C138.113 69.2577 140.404 66.964 140.404 64.1347V44.685C140.404 41.8557 138.113 39.562 135.286 39.562Z" fill="white"/>
<path d="M136.128 69.07H113.217C112.201 69.07 111.071 69.1878 110.06 68.995C108.396 68.6843 106.978 67.4684 106.464 65.8455C106.26 65.2081 106.239 64.5707 106.239 63.9172C106.239 59.6964 106.239 55.4702 106.239 51.2494V45.427C106.239 45.0896 106.239 44.7575 106.239 44.42C106.26 42.7917 107.09 41.2651 108.497 40.4188C109.755 39.6636 111.109 39.7546 112.5 39.7546H132.558C133.719 39.7546 134.886 39.7493 136.047 39.7546C138.686 39.7707 140.762 41.8329 140.789 44.4736C140.826 48.2338 140.789 51.9939 140.789 55.7487V62.3585C140.789 63.8101 140.944 65.3473 140.211 66.665C139.381 68.1594 137.829 69.0432 136.133 69.0754C135.357 69.0861 135.357 70.2913 136.133 70.2805C139.392 70.227 141.961 67.6131 141.993 64.3564C142.009 62.9423 141.993 61.5282 141.993 60.1195V45.9145C141.993 44.0933 141.955 42.3793 140.773 40.842C139.708 39.4547 138.065 38.6191 136.32 38.5548C136.01 38.5441 135.705 38.5548 135.394 38.5548H122.513C118.703 38.5548 114.898 38.5441 111.088 38.5548C108.358 38.5602 105.87 40.2849 105.206 43.0059C104.885 44.3183 105.035 45.8127 105.035 47.1571C105.035 51.9993 105.035 56.8468 105.035 61.6889C105.035 63.0012 104.89 64.4582 105.19 65.7491C105.822 68.5076 108.331 70.2752 111.093 70.2859C114.903 70.2966 118.708 70.2859 122.519 70.2859H136.138C136.914 70.2859 136.914 69.0807 136.138 69.0807L136.128 69.07Z" fill="#553597"/>
<path d="M74.7077 188.715H72.7988C72.1615 173.193 71.5272 157.668 70.8899 142.146H76.6166C75.9793 157.668 75.345 173.193 74.7077 188.715Z" fill="white"/>
<path d="M74.7077 188.371H72.7988L73.1387 188.712C72.8899 182.643 72.641 176.577 72.3922 170.508C72.1433 164.466 71.8975 158.424 71.6486 152.38C71.509 148.966 71.3694 145.554 71.2298 142.14L70.8899 142.48H76.6166L76.2767 142.14C76.0279 148.209 75.779 154.275 75.5302 160.344C75.2813 166.386 75.0355 172.427 74.7866 178.472C74.647 181.886 74.5074 185.297 74.3678 188.712C74.3496 189.152 75.0325 189.152 75.0507 188.712C75.2995 182.643 75.5484 176.577 75.7972 170.508C76.0461 164.439 76.2919 158.424 76.5408 152.38C76.6804 148.966 76.82 145.554 76.9596 142.14C76.9656 141.955 76.7957 141.8 76.6197 141.8H70.893C70.7139 141.8 70.544 141.958 70.5531 142.14C70.8019 148.209 71.0508 154.275 71.2996 160.344C71.5485 166.413 71.7943 172.427 72.0432 178.472C72.1828 181.886 72.3224 185.297 72.462 188.712C72.468 188.897 72.6137 189.052 72.8019 189.052H74.7108C75.1508 189.052 75.1508 188.368 74.7108 188.368L74.7077 188.371Z" fill="#553597"/>
<path d="M61.3455 194.304H86.161C84.8015 193.049 82.41 191.245 78.5255 189.832C77.1841 189.346 75.8852 188.985 74.7077 188.715H72.7988C71.6213 188.985 70.3224 189.343 68.981 189.832C65.0965 191.245 62.7051 193.046 61.3455 194.304Z" fill="white"/>
<path d="M61.3455 194.644H86.1611C86.4463 194.644 86.6254 194.264 86.4039 194.061C83.5087 191.397 79.8274 189.711 76.0582 188.696C75.6182 188.578 75.1387 188.405 74.6834 188.371C74.4619 188.356 74.2343 188.371 74.0128 188.371C73.4422 188.371 72.8929 188.338 72.3375 188.472C70.025 189.027 67.7611 189.82 65.6488 190.917C64.01 191.767 62.4653 192.809 61.1027 194.061C60.778 194.358 61.2635 194.841 61.5852 194.544C64.3772 191.977 67.934 190.358 71.5637 189.374C71.9703 189.264 72.4134 189.1 72.8292 189.055C73.0446 189.031 73.2723 189.055 73.4908 189.055C74.0492 189.055 74.5681 189.027 75.1083 189.158C77.3389 189.702 79.524 190.467 81.5633 191.53C83.1323 192.351 84.6133 193.341 85.9183 194.541L86.1611 193.957H61.3455C60.9054 193.957 60.9054 194.641 61.3455 194.641V194.644Z" fill="#553597"/>
<path d="M66.0099 69.7865C61.4182 68.9086 47.361 66.7064 41.2034 74.1362C39.601 76.0681 39.1458 77.9301 38.4387 80.8613C36.5692 88.61 38.4387 97.3094 42.2564 114.389C43.0212 117.813 44.0531 121.634 46.0742 129.291C49.1637 141.001 49.8283 142.72 51.8009 144.194C53.5398 145.494 58.6869 145.682 68.9809 146.056C74.8776 146.271 74.483 146.001 80.4343 146.056C94.2001 146.183 97.7812 147.009 101.432 144.194C102.106 143.674 104.546 141.739 105.25 138.605C106.215 134.309 103.289 130.592 99.5232 125.564C94.9376 119.447 90.698 113.089 86.161 106.938C80.9077 99.8124 77.8092 95.6115 74.7076 90.1743C70.2343 82.3284 67.6062 75.1568 66.0099 69.7834V69.7865Z" fill="white"/>
<path d="M66.101 69.4584C63.3272 68.9299 60.5139 68.5715 57.6885 68.4743C54.0346 68.3497 50.2381 68.6292 46.7906 69.9262C45.088 70.5671 43.4796 71.4632 42.1261 72.6843C40.6299 74.0329 39.5768 75.7157 38.9517 77.6263C37.9229 80.761 37.3736 84.0537 37.3675 87.3494C37.3614 90.8638 37.85 94.3691 38.4479 97.8258C39.2855 102.659 40.3628 107.452 41.4281 112.239C42.2262 115.817 43.1063 119.371 44.038 122.916C45.2883 127.669 46.484 132.441 47.874 137.156C48.2624 138.477 48.6661 139.801 49.188 141.074C49.5006 141.836 49.8527 142.593 50.3534 143.252C50.7449 143.765 51.2244 144.23 51.7646 144.585C52.5294 145.087 53.4884 145.293 54.3745 145.457C55.8798 145.731 57.4124 145.852 58.9358 145.955C61.1968 146.107 63.4638 146.195 65.7277 146.283C68.1738 146.378 70.6198 146.496 73.0659 146.487C74.6409 146.481 76.216 146.414 77.7941 146.399C82.4434 146.359 87.0867 146.563 91.733 146.608C94.1608 146.633 96.7707 146.706 99.0924 145.879C101.414 145.053 103.459 143.197 104.658 141.071C105.711 139.203 106.039 137.046 105.532 134.96C104.992 132.727 103.69 130.728 102.382 128.875C100.716 126.512 98.9285 124.231 97.2351 121.886C95.5416 119.541 93.8027 117.069 92.0971 114.651C88.8256 110.006 85.4357 105.45 82.1096 100.842C79.5786 97.3368 77.1447 93.7677 75.0021 90.0103C72.3497 85.3568 70.0857 80.4846 68.2436 75.4545C67.5486 73.5591 66.9143 71.6393 66.3377 69.7044C66.2133 69.2853 65.5517 69.4645 65.6792 69.8867C66.9629 74.1909 68.5349 78.4069 70.3953 82.4955C72.4255 86.9636 74.7988 91.2739 77.4876 95.3776C80.1764 99.4813 82.9836 103.211 85.8212 107.063C89.2748 111.747 92.5584 116.549 95.9513 121.275C97.6326 123.617 99.3776 125.911 101.08 128.241C102.47 130.142 103.918 132.144 104.658 134.407C105.326 136.448 105.195 138.586 104.194 140.497C103.487 141.843 102.373 143.061 101.22 143.944C99.6386 145.153 97.8208 145.667 95.8573 145.834C92.4765 146.119 89.0381 145.885 85.6542 145.813C83.0686 145.758 80.4799 145.706 77.8943 145.728C76.3222 145.74 74.7532 145.806 73.1842 145.816C70.808 145.828 68.4348 145.712 66.0616 145.624C63.6883 145.536 61.5276 145.451 59.2666 145.305C57.7432 145.208 56.2106 145.099 54.7023 144.834C53.8313 144.683 52.8905 144.5 52.15 144.033C51.7282 143.765 51.2092 143.273 50.9118 142.878C50.4293 142.237 50.0833 141.499 49.7859 140.758C49.273 139.473 48.8694 138.14 48.4809 136.812C47.8406 134.625 47.2518 132.42 46.6692 130.215C45.5493 125.984 44.4022 121.758 43.3461 117.512C42.2899 113.266 41.3765 108.961 40.4721 104.672C39.6254 100.654 38.8121 96.6138 38.3568 92.5284C38.02 89.5 37.8864 86.4169 38.3083 83.3885C38.5511 81.6449 38.9699 79.9075 39.4797 78.2247C40.0654 76.2928 41.0457 74.607 42.5418 73.2371C45.2185 70.7858 48.8967 69.7318 52.4323 69.343C55.9678 68.9542 59.2515 69.1395 62.6201 69.589C63.7248 69.7379 64.8264 69.9201 65.9189 70.1297C66.3468 70.2117 66.5319 69.5526 66.101 69.4706V69.4584Z" fill="#553597"/>
<path d="M47.2823 77.122C48.912 84.5488 50.6145 91.9603 52.3898 99.3537C54.1652 106.747 55.9952 114.046 57.9101 121.364C59.1301 126.029 60.7113 131.078 64.6474 134.191C66.0556 135.306 67.6701 136.105 69.4363 136.436C71.4241 136.809 73.4817 136.794 75.4968 136.812C81.6818 136.867 87.8637 136.916 94.0456 137.122C94.5615 137.14 95.0743 137.159 95.5903 137.177C96.0303 137.192 96.0303 136.509 95.5903 136.493C89.6815 136.278 83.7727 136.174 77.8609 136.144C75.509 136.132 73.1297 136.19 70.7838 135.944C69.3119 135.792 67.9068 135.415 66.6109 134.689C62.1133 132.174 60.168 127.068 58.8843 122.357C56.9997 115.443 55.3032 108.469 53.6159 101.504C51.9285 94.5392 50.1623 86.9545 48.5417 79.6523C48.3414 78.7471 48.1411 77.845 47.9438 76.9398C47.8498 76.5115 47.1912 76.6907 47.2853 77.122H47.2823Z" fill="#553597"/>
<path d="M120.391 180.073C120.506 182.6 120.603 185.158 120.685 187.749C120.755 190.021 120.809 192.265 120.849 194.489C129.619 194.537 138.39 194.589 147.158 194.638C147.367 194.185 148.171 192.329 147.352 190.54C146.845 189.434 145.968 188.879 144.924 188.241C143.892 187.609 142.023 186.673 139.307 186.382C138.606 184.978 137.904 183.578 137.203 182.175C131.598 181.473 125.996 180.771 120.391 180.07V180.073Z" fill="white"/>
<path d="M120.051 180.073C120.269 184.875 120.421 189.683 120.509 194.492C120.512 194.677 120.664 194.832 120.849 194.832C127.677 194.872 134.509 194.908 141.337 194.948C143.276 194.96 145.218 194.969 147.158 194.981C147.27 194.981 147.403 194.917 147.452 194.811C148.223 193.14 148.35 191.09 147.158 189.577C146.584 188.848 145.774 188.347 144.985 187.879C144.332 187.49 143.643 187.165 142.936 186.892C141.768 186.446 140.548 186.178 139.307 186.038L139.601 186.209L137.668 182.342C137.522 182.047 137.471 181.868 137.128 181.822C136.751 181.774 136.378 181.728 136.002 181.683L133.899 181.418C131.022 181.057 128.145 180.699 125.268 180.337L120.388 179.726C119.954 179.672 119.957 180.355 120.388 180.41C125.993 181.112 131.595 181.813 137.2 182.515L136.906 182.345L137.923 184.38C138.272 185.076 138.584 185.811 138.973 186.485C139.143 186.78 139.461 186.737 139.771 186.78C140.099 186.828 140.426 186.886 140.751 186.956C141.346 187.083 141.932 187.25 142.502 187.457C143.325 187.752 144.105 188.137 144.848 188.596C145.859 189.216 146.821 189.899 147.194 191.087C147.54 192.196 147.34 193.423 146.86 194.462L147.155 194.291C140.326 194.252 133.495 194.215 126.667 194.176C124.727 194.164 122.785 194.155 120.846 194.143L121.186 194.483C121.101 189.674 120.946 184.869 120.728 180.064C120.706 179.626 120.023 179.623 120.045 180.064L120.051 180.073Z" fill="#553597"/>
<path d="M120.655 184.556C122.208 184.107 123.929 184.006 125.383 184.833C126.43 185.428 127.07 186.482 128.017 187.202C128.964 187.922 129.978 188.204 131.107 188.21C132.442 188.219 133.795 188.046 135.119 187.879C136.848 187.664 138.563 187.345 140.26 186.935C140.687 186.831 140.505 186.172 140.077 186.275C138.53 186.652 136.964 186.953 135.383 187.162C134.047 187.338 132.685 187.503 131.337 187.527C130.184 187.545 129.134 187.269 128.239 186.509C127.343 185.75 126.67 184.729 125.583 184.164C123.993 183.332 122.157 183.414 120.476 183.9C120.054 184.022 120.233 184.681 120.658 184.559L120.655 184.556Z" fill="#553597"/>
<path d="M120.809 192.575C129.777 192.666 138.745 192.76 147.713 192.852C147.54 194.373 147.066 194.592 146.909 194.638C146.839 194.659 146.781 194.659 146.223 194.629C145.646 194.595 145.358 194.58 145.197 194.565C143.783 194.437 141.082 194.571 141.082 194.571C139.458 194.604 137.146 194.638 133.777 194.638C130.839 194.638 126.539 194.61 120.846 194.489C120.834 193.851 120.821 193.213 120.809 192.575Z" fill="#553597"/>
<path d="M140.542 189.951C140.736 189.331 141.064 188.757 141.51 188.283C141.61 188.177 141.713 188.077 141.822 187.979C141.874 187.934 141.926 187.891 141.977 187.849C142.038 187.8 142.044 187.794 142.087 187.764C142.259 187.636 142.439 187.518 142.624 187.411C143.006 187.193 142.663 186.603 142.278 186.822C141.14 187.472 140.275 188.511 139.883 189.769C139.753 190.191 140.411 190.37 140.542 189.951Z" fill="#553597"/>
<path d="M142.63 190.327C142.86 189.814 143.158 189.371 143.537 188.979C143.701 188.809 143.877 188.654 144.059 188.508C144.089 188.484 144.023 188.532 144.074 188.496C144.098 188.478 144.123 188.459 144.147 188.444C144.187 188.417 144.223 188.39 144.262 188.362C144.341 188.308 144.42 188.256 144.502 188.204C144.66 188.107 144.721 187.897 144.624 187.736C144.526 187.575 144.314 187.518 144.156 187.615C143.24 188.183 142.484 188.997 142.038 189.984C141.962 190.151 141.989 190.352 142.159 190.452C142.305 190.537 142.551 190.498 142.627 190.331L142.63 190.327Z" fill="#553597"/>
<path d="M104.737 179.836C104.852 182.363 104.949 184.921 105.031 187.512C105.101 189.784 105.156 192.029 105.195 194.252C113.966 194.301 122.736 194.352 131.504 194.401C131.713 193.948 132.518 192.092 131.698 190.303C131.191 189.198 130.314 188.642 129.27 188.004C128.239 187.372 126.369 186.436 123.653 186.145L121.55 181.938C115.945 181.236 110.342 180.535 104.737 179.833V179.836Z" fill="white"/>
<path d="M104.394 179.836C104.613 184.638 104.764 189.447 104.853 194.255C104.856 194.44 105.007 194.595 105.192 194.595C112.021 194.635 118.852 194.671 125.68 194.711C127.62 194.723 129.562 194.732 131.501 194.744C131.613 194.744 131.747 194.68 131.795 194.574C132.566 192.903 132.694 190.853 131.501 189.34C130.928 188.611 130.117 188.11 129.328 187.642C128.676 187.254 127.987 186.929 127.28 186.655C126.111 186.209 124.891 185.941 123.65 185.802L123.944 185.972L122.011 182.105C121.866 181.81 121.814 181.631 121.471 181.586C121.095 181.537 120.721 181.491 120.345 181.446L118.242 181.182C115.365 180.82 112.488 180.462 109.611 180.1C107.984 179.897 106.358 179.693 104.731 179.49C104.297 179.435 104.3 180.118 104.731 180.173C110.336 180.875 115.939 181.576 121.544 182.278L121.25 182.108L122.266 184.143C122.615 184.839 122.928 185.574 123.316 186.248C123.486 186.543 123.805 186.5 124.114 186.543C124.442 186.591 124.77 186.649 125.095 186.719C125.689 186.847 126.275 187.014 126.846 187.22C127.668 187.515 128.448 187.901 129.192 188.359C130.202 188.979 131.164 189.662 131.538 190.85C131.883 191.959 131.683 193.186 131.204 194.225L131.498 194.055C124.67 194.015 117.838 193.979 111.01 193.939C109.071 193.927 107.129 193.918 105.189 193.906L105.529 194.246C105.444 189.438 105.29 184.632 105.071 179.827C105.05 179.389 104.367 179.386 104.388 179.827L104.394 179.836Z" fill="#553597"/>
<path d="M105.001 184.319C106.555 183.87 108.276 183.77 109.729 184.596C110.776 185.191 111.417 186.245 112.364 186.965C113.31 187.685 114.324 187.967 115.453 187.973C116.788 187.983 118.142 187.809 119.465 187.642C121.195 187.427 122.909 187.108 124.606 186.698C125.034 186.594 124.852 185.935 124.424 186.039C122.876 186.415 121.31 186.716 119.729 186.925C118.394 187.102 117.031 187.266 115.684 187.29C114.53 187.308 113.48 187.032 112.585 186.272C111.69 185.513 111.016 184.492 109.93 183.927C108.339 183.095 106.503 183.177 104.822 183.663C104.4 183.785 104.579 184.444 105.004 184.322L105.001 184.319Z" fill="#553597"/>
<path d="M105.156 192.338C114.124 192.43 123.092 192.524 132.06 192.615C131.887 194.137 131.413 194.355 131.255 194.401C131.186 194.422 131.128 194.422 130.569 194.392C129.993 194.358 129.705 194.343 129.544 194.328C128.129 194.2 125.428 194.334 125.428 194.334C123.805 194.367 121.492 194.401 118.124 194.401C115.186 194.401 110.886 194.374 105.192 194.252C105.18 193.614 105.168 192.976 105.156 192.338Z" fill="#553597"/>
<path d="M124.888 189.714C125.082 189.094 125.41 188.52 125.856 188.046C125.956 187.94 126.06 187.84 126.169 187.743C126.22 187.697 126.272 187.655 126.324 187.612C126.384 187.563 126.39 187.557 126.433 187.527C126.606 187.399 126.785 187.281 126.97 187.175C127.352 186.956 127.01 186.367 126.624 186.585C125.486 187.235 124.621 188.274 124.23 189.532C124.099 189.954 124.758 190.133 124.888 189.714Z" fill="#553597"/>
<path d="M126.976 190.091C127.207 189.577 127.504 189.134 127.883 188.742C128.047 188.572 128.223 188.417 128.405 188.271C128.436 188.247 128.369 188.296 128.421 188.259C128.445 188.241 128.469 188.223 128.493 188.207C128.533 188.18 128.569 188.153 128.609 188.125C128.688 188.071 128.767 188.019 128.849 187.967C129.006 187.87 129.067 187.661 128.97 187.5C128.873 187.339 128.66 187.281 128.503 187.378C127.586 187.946 126.83 188.76 126.384 189.747C126.308 189.914 126.336 190.115 126.506 190.215C126.651 190.3 126.897 190.261 126.973 190.094L126.976 190.091Z" fill="#553597"/>
<path d="M76.9355 117.245C77.2117 119.177 77.7398 121.847 78.8444 124.887C80.028 128.146 80.9354 130.646 82.6622 132.53C84.5681 134.607 87.5513 136.029 103.66 136.351C107.875 136.436 111.472 136.414 114.209 136.369C114.722 136.36 115.159 136.743 115.223 137.253L120.634 182.381C120.752 183.372 121.593 184.116 122.588 184.116C124.184 184.58 126.372 185.039 128.998 185.082C131.993 185.13 134.469 184.617 136.19 184.116C136.533 184.091 137.097 183.994 137.535 183.584C137.887 183.253 138.175 182.794 138.154 182.275C137.823 173.922 137.644 165.496 136.943 155.451C135.729 138.027 136.685 132.053 132.803 126.497C127.769 119.289 114.971 117.788 106.68 116.379C93.4874 114.134 83.2995 115.377 76.9355 117.245Z" fill="white"/>
<path d="M76.6077 117.336C77.0022 120.088 77.7123 122.764 78.6622 125.376C79.5514 127.821 80.4285 130.388 82.1128 132.417C83.178 133.699 84.5346 134.498 86.1127 134.999C87.3418 135.391 88.6194 135.628 89.8971 135.813C91.8667 136.102 93.8514 136.269 95.8392 136.393C101.596 136.752 107.381 136.8 113.147 136.724C113.738 136.715 114.731 136.494 114.889 137.283C114.91 137.393 114.916 137.505 114.928 137.617L115.125 139.267L115.902 145.737C116.266 148.783 116.634 151.83 116.998 154.877C117.401 158.23 117.802 161.586 118.206 164.94C118.57 167.987 118.937 171.03 119.301 174.077C119.556 176.2 119.811 178.326 120.066 180.449L120.257 182.053C120.36 182.919 120.658 183.724 121.483 184.173C121.969 184.438 122.539 184.462 123.067 184.602C123.674 184.763 124.287 184.899 124.904 185.012C126.375 185.282 127.872 185.422 129.368 185.425C130.815 185.425 132.266 185.297 133.692 185.045C134.29 184.939 134.885 184.814 135.477 184.663C135.72 184.602 135.959 184.523 136.202 184.468C136.478 184.404 136.757 184.386 137.028 184.286C137.598 184.07 138.084 183.627 138.333 183.068C138.6 182.466 138.481 181.78 138.457 181.139C138.402 179.702 138.351 178.269 138.302 176.832C138.199 173.919 138.099 171.006 137.981 168.093C137.723 161.829 137.252 155.578 136.921 149.321C136.694 144.983 136.615 140.625 136.205 136.299C135.944 133.556 135.504 130.789 134.278 128.292C132.618 124.918 129.705 122.551 126.363 120.941C122.181 118.924 117.571 117.913 113.028 117.096C107.815 116.16 102.57 115.258 97.2747 114.954C92.2521 114.666 87.184 114.851 82.219 115.693C80.4103 115.999 78.6197 116.397 76.8596 116.914C76.4377 117.038 76.6168 117.697 77.0416 117.573C81.0658 116.394 85.2508 115.811 89.4297 115.601C95.2323 115.31 101.05 115.769 106.774 116.737C111.147 117.476 115.544 118.113 119.826 119.289C124.108 120.465 128.278 122.053 131.304 125.197C133.222 127.19 134.375 129.732 134.955 132.411C135.668 135.71 135.756 139.142 135.914 142.502C136.029 144.962 136.135 147.426 136.269 149.886C136.439 153.027 136.673 156.164 136.861 159.305C137.216 165.25 137.425 171.2 137.632 177.151C137.68 178.542 137.729 179.936 137.783 181.327C137.811 182.038 137.926 182.709 137.383 183.262C136.93 183.721 136.342 183.724 135.759 183.882C133.098 184.611 130.321 184.878 127.568 184.672C126.215 184.568 124.87 184.35 123.55 184.019C123.292 183.955 123.037 183.876 122.776 183.812C122.47 183.736 122.166 183.751 121.875 183.605C121.395 183.369 121.071 182.907 120.983 182.381C120.943 182.141 120.925 181.895 120.895 181.655C120.694 179.991 120.497 178.326 120.297 176.665L119.307 168.403C118.916 165.14 118.524 161.875 118.133 158.613C117.751 155.42 117.368 152.225 116.986 149.032C116.682 146.49 116.376 143.945 116.072 141.402L115.599 137.453C115.59 137.387 115.584 137.32 115.575 137.253C115.511 136.782 115.259 136.378 114.828 136.165C114.345 135.929 113.729 136.035 113.207 136.044C110.424 136.08 107.642 136.077 104.859 136.032C99.9665 135.953 95.0107 135.871 90.1581 135.166C88.1187 134.871 85.9033 134.501 84.1643 133.368C83.8608 133.17 83.7152 133.061 83.4542 132.824C83.1477 132.551 82.8685 132.247 82.6044 131.931C80.9141 129.896 80.0704 127.244 79.1842 124.796C78.2981 122.348 77.6486 119.76 77.2753 117.154C77.2116 116.719 76.5561 116.905 76.6168 117.336H76.6077Z" fill="#553597"/>
<path d="M61.0845 117.676C61.1846 119.493 61.5731 122.275 62.9934 125.318C64.6109 128.787 66.7596 130.865 67.2906 131.363C67.8915 131.928 69.7913 133.638 72.7715 134.944C75.1538 135.989 77.1629 136.32 77.9458 136.427C79.5452 136.648 80.3312 136.545 82.583 136.518C85.5541 136.484 85.8394 136.645 90.0274 136.761C92.1882 136.822 95.3535 136.867 99.2653 136.776L104.786 182.81C104.904 183.8 105.745 184.544 106.74 184.544C108.336 185.009 110.524 185.467 113.15 185.51C116.145 185.559 118.621 185.045 120.342 184.544C120.685 184.52 121.249 184.423 121.686 184.012C122.038 183.681 122.327 183.223 122.306 182.703C121.975 174.35 121.796 165.924 121.095 155.879C119.881 138.456 120.837 132.481 116.955 126.925C111.92 119.717 99.1227 118.217 90.8316 116.807C77.6393 114.563 67.4515 115.805 61.0875 117.673L61.0845 117.676Z" fill="white"/>
<path d="M60.7446 117.676C61.0936 123.778 64.092 129.753 69.1328 133.289C71.9157 135.242 75.2449 136.539 78.6409 136.852C80.2402 136.998 81.8608 136.852 83.4632 136.858C84.6285 136.858 85.7878 136.928 86.9502 136.986C91.0502 137.195 95.1593 137.216 99.2624 137.119L98.9225 136.779C98.9923 137.368 99.0651 137.958 99.1349 138.547L99.6994 143.249L100.507 149.98C100.819 152.598 101.135 155.217 101.447 157.835C101.76 160.454 102.094 163.218 102.416 165.909L103.302 173.293C103.532 175.225 103.766 177.154 103.997 179.086L104.391 182.381C104.415 182.588 104.434 182.801 104.47 183.004C104.634 183.891 105.347 184.638 106.23 184.83C106.676 184.927 107.116 185.009 107.56 185.121C108.051 185.243 108.546 185.352 109.044 185.443C111.432 185.881 113.884 185.975 116.297 185.698C117.316 185.583 118.327 185.407 119.325 185.167C119.729 185.07 120.133 184.93 120.542 184.866C121.013 184.79 121.456 184.65 121.829 184.341C122.202 184.031 122.518 183.578 122.609 183.089C122.709 182.564 122.615 181.977 122.594 181.446C122.551 180.307 122.509 179.168 122.469 178.029C122.388 175.702 122.309 173.378 122.221 171.051C122.029 165.991 121.784 160.93 121.435 155.879C121.131 151.517 120.937 147.152 120.728 142.784C120.591 139.92 120.473 137.037 120.036 134.2C119.714 132.126 119.165 130.087 118.163 128.235C116.731 125.583 114.503 123.569 111.896 122.099C108.695 120.291 105.107 119.222 101.541 118.408C97.9756 117.594 94.5554 117.093 91.0502 116.501C86.2613 115.69 81.4147 115.228 76.556 115.264C72.7594 115.292 68.9538 115.614 65.224 116.331C63.8007 116.604 62.3895 116.938 60.9996 117.345C60.5777 117.47 60.7568 118.129 61.1816 118.004C64.2559 117.105 67.4273 116.555 70.6138 116.248C74.8898 115.835 79.2084 115.86 83.4874 116.218C87.6512 116.564 91.7785 117.287 95.8937 117.995C99.5112 118.618 103.135 119.344 106.616 120.531C109.845 121.631 113.089 123.165 115.477 125.665C117.007 127.263 118.087 129.255 118.718 131.369C119.389 133.614 119.623 135.971 119.793 138.298C120.048 141.785 120.154 145.281 120.33 148.771C120.579 153.716 120.964 158.649 121.216 163.594C121.453 168.299 121.614 173.008 121.781 177.713C121.82 178.831 121.859 179.951 121.902 181.069C121.923 181.613 121.969 182.163 121.966 182.706C121.963 183.25 121.565 183.797 121.055 184.031C120.682 184.201 120.251 184.222 119.86 184.328C119.423 184.447 118.983 184.553 118.539 184.65C117.48 184.875 116.409 185.03 115.332 185.109C112.971 185.282 110.585 185.109 108.276 184.59C107.824 184.486 107.377 184.356 106.925 184.243C106.473 184.131 106.063 184.14 105.678 183.809C105.368 183.542 105.186 183.174 105.126 182.773C105.016 182.053 104.953 181.321 104.865 180.598L104.276 175.678L103.466 168.916C103.156 166.328 102.846 163.74 102.534 161.152C102.221 158.564 101.903 155.879 101.587 153.245C101.299 150.837 101.01 148.428 100.719 146.016L100.045 140.394L99.6629 137.198L99.6114 136.779C99.5901 136.6 99.4718 136.433 99.2715 136.439C95.5872 136.524 91.8969 136.515 88.2157 136.363C87.0291 136.314 85.8425 136.229 84.6528 136.193C83.1263 136.147 81.5998 136.22 80.0733 136.226C76.8352 136.238 73.5879 135.193 70.8171 133.556C68.8415 132.39 67.1207 130.908 65.7126 129.1C63.1634 125.832 61.6733 121.81 61.4366 117.676C61.4123 117.239 60.7295 117.236 60.7537 117.676H60.7446Z" fill="#553597"/>
<path d="M90.2944 79.1877C90.2944 79.1877 94.0212 102.662 95.5659 103.479C96.8982 104.183 103.226 109.08 106.81 106.926C107.426 106.556 107.86 106.036 108.291 105.298C111.189 100.368 109.508 93.0449 108.831 90.5055C108.045 90.5541 107.259 90.5997 106.473 90.6483C102.4 80.9191 98.716 73.8387 96.6979 71.0138C96.1486 70.2422 95.1167 68.8207 93.3232 67.4659C91.8331 66.339 90.4007 65.6981 89.3992 65.3306" fill="#A78ED7"/>
<path d="M103.875 92.4192C103.89 92.7806 103.908 93.1391 103.924 93.5005C103.933 93.6797 104.075 93.8498 104.264 93.8407C104.443 93.8316 104.613 93.6888 104.603 93.5005C104.588 93.1391 104.57 92.7806 104.555 92.4192C104.546 92.24 104.403 92.0699 104.215 92.079C104.036 92.0881 103.866 92.2308 103.875 92.4192Z" fill="white"/>
<path d="M105.499 92.4131C105.526 92.7533 105.556 93.0965 105.584 93.4368C105.593 93.5279 105.617 93.6099 105.684 93.6797C105.745 93.7405 105.842 93.783 105.927 93.78C106.1 93.7709 106.285 93.6281 106.267 93.4398C106.239 93.0996 106.209 92.7564 106.182 92.4161C106.173 92.325 106.148 92.243 106.081 92.1731C106.021 92.1124 105.924 92.0699 105.839 92.0729C105.666 92.082 105.481 92.2248 105.499 92.4131Z" fill="white"/>
<path d="M107.05 92.5103C107.113 92.8262 107.177 93.139 107.244 93.4549C107.259 93.5369 107.332 93.6189 107.402 93.6584C107.475 93.701 107.584 93.7192 107.666 93.6918C107.851 93.6311 107.942 93.458 107.905 93.2727C107.842 92.9568 107.778 92.6439 107.711 92.328C107.696 92.246 107.623 92.164 107.553 92.1245C107.481 92.082 107.371 92.0637 107.289 92.0911C107.104 92.1518 107.013 92.325 107.05 92.5103Z" fill="white"/>
<path d="M109.641 88.0057C109.614 88.1151 109.459 88.7195 109.432 88.8228C109.244 89.567 109.222 89.646 109.195 89.8039C109.11 90.2626 109.141 90.3537 109.059 90.7729C108.989 91.1283 108.901 91.4108 108.843 91.5869C108.409 91.6477 107.839 91.7206 107.162 91.7813C106.971 91.7996 106.054 91.8816 104.807 91.912C104.279 91.9271 103.617 91.9332 102.855 91.915C102.877 91.593 102.907 91.2619 102.953 90.9187C103.089 89.8404 103.32 88.8744 103.584 88.03C104.072 88.2973 105.15 88.8046 106.606 88.7985C108.072 88.7924 109.153 88.273 109.641 87.9996V88.0057Z" fill="white"/>
<path d="M109.314 87.9146C109.174 88.4613 109.022 89.0081 108.898 89.5579C108.755 90.2079 108.728 90.8579 108.512 91.4928L108.752 91.2528C106.801 91.5262 104.825 91.6112 102.855 91.5717L103.195 91.9119C103.286 90.621 103.529 89.3543 103.912 88.1211L103.411 88.3246C105.399 89.406 107.833 89.3969 109.811 88.2942C110.197 88.0816 109.851 87.4893 109.465 87.705C107.702 88.6861 105.526 88.6982 103.754 87.7353C103.557 87.629 103.32 87.7262 103.253 87.9389C102.852 89.2298 102.607 90.5633 102.513 91.9119C102.5 92.1003 102.679 92.2491 102.852 92.2521C104.886 92.2916 106.916 92.1914 108.931 91.9089C109.05 91.8937 109.134 91.7722 109.171 91.6689C109.386 91.031 109.411 90.381 109.556 89.734C109.678 89.1812 109.832 88.6375 109.972 88.0907C110.081 87.6655 109.423 87.4832 109.314 87.9085V87.9146Z" fill="#553597"/>
<path d="M109.277 93.1938C107.229 93.8104 105.059 93.9532 102.947 93.5917L103.198 93.9197V91.918L102.859 92.2582C104.886 92.2886 106.913 92.1701 108.925 91.9059L108.597 91.6537C108.746 92.3068 108.892 92.9568 109.04 93.6099C109.138 94.0382 109.796 93.8559 109.699 93.4277C109.55 92.7746 109.405 92.1246 109.256 91.4715C109.226 91.3409 109.068 91.2012 108.928 91.2194C106.916 91.4836 104.889 91.6021 102.862 91.5717C102.677 91.5717 102.522 91.7297 102.522 91.9119V93.9137C102.522 94.0504 102.628 94.2174 102.774 94.2417C105.007 94.6244 107.292 94.4969 109.465 93.8438C109.884 93.7162 109.705 93.0571 109.283 93.1847L109.277 93.1938Z" fill="white"/>
<path d="M74.4741 64.2158C71.3695 63.1709 68.18 62.7882 65.1634 63.0494C61.1089 63.4018 57.367 64.9205 54.5658 67.5632C49.9863 71.8856 48.9939 78.2066 48.8331 79.3791C48.6298 80.8371 48.7906 80.8523 48.8331 85.1109C48.912 93.3912 48.3233 95.9184 48.8331 102.306C49.3429 108.673 50.2321 109.502 50.742 109.949C53.6645 112.506 59.461 109.675 60.2864 111.859C60.2986 111.89 60.3077 111.92 60.3168 111.95C60.6537 113.305 60.3714 114.153 60.338 115.474C60.3138 116.382 60.4534 117.075 60.4685 117.145C60.9905 119.377 82.8168 116.555 97.22 114.466C96.261 109.016 95.9727 104.563 95.8817 101.583C95.6116 92.9113 96.4917 87.4377 95.6905 76.9704C95.4264 73.5289 94.9773 69.1093 91.7452 66.579C90.1641 65.3397 88.4798 64.9965 85.8365 64.4862C83.2629 63.991 79.3602 63.5536 74.4741 64.2128V64.2158Z" fill="#A78ED7"/>
<path d="M89.0716 78.3159C90.4008 82.5199 91.5874 86.7663 92.6284 91.0492C93.7725 95.7544 94.7406 100.505 95.5266 105.283C95.9758 108.017 96.3673 110.757 96.7011 113.509C96.7527 113.94 97.4355 113.946 97.3839 113.509C96.7921 108.612 96.0213 103.74 95.0593 98.9043C94.0972 94.0685 93.0654 89.737 91.8211 85.2172C91.1686 82.8449 90.4676 80.4817 89.7271 78.1367C89.5936 77.7176 88.935 77.8968 89.0686 78.319L89.0716 78.3159Z" fill="white"/>
<path d="M65.6883 63.0099C66.9508 68.3529 71.849 71.278 75.7214 70.2665C78.3829 69.5709 80.4648 67.0376 81.1689 63.9242C80.4709 63.8695 79.7759 63.8148 79.0779 63.7571C78.3071 66.0413 76.6167 67.7514 74.6167 68.0279C72.8474 68.2739 71.4029 67.3323 70.6745 66.8584C68.6989 65.5705 67.8734 63.7207 67.5821 62.9582C67.318 62.9157 66.9903 62.8853 66.617 62.8944C66.2558 62.9036 65.9433 62.9522 65.6853 63.0068L65.6883 63.0099Z" fill="white"/>
<path d="M69.8337 55.5892C70.0128 57.1839 70.0856 60.671 67.8398 63.1223C68.0826 63.8148 68.6775 65.2091 70.0583 66.3603C70.6895 66.8858 72.653 68.523 75.0839 67.9489C76.9534 67.5085 78.4313 65.9138 78.9745 63.8817C78.8987 61.9012 78.8228 59.9207 78.7469 57.9403" fill="white"/>
<path d="M69.4909 55.5892C69.7701 58.1377 69.3634 60.917 67.5972 62.8792C67.5183 62.9673 67.4667 63.0949 67.5092 63.2103C68.3073 65.4611 70.1737 67.4203 72.4741 68.1554C75.4088 69.094 78.216 67.1804 79.1689 64.4071C79.3358 63.9241 79.2994 63.4958 79.2812 62.9886C79.2599 62.4449 79.2387 61.8981 79.2174 61.3544C79.175 60.2153 79.1294 59.0763 79.0869 57.9372C79.0687 57.4998 78.3859 57.4967 78.4041 57.9372C78.4709 59.6959 78.5376 61.4516 78.6044 63.2103C78.6196 63.6204 78.6135 63.9424 78.4709 64.3312C78.3556 64.6531 78.2069 64.963 78.0339 65.2576C77.7152 65.8044 77.3055 66.2964 76.8199 66.7004C75.779 67.5661 74.3921 67.9154 73.0689 67.6117C72.0765 67.3808 71.1843 66.8493 70.4044 66.2053C69.3816 65.3609 68.6078 64.2795 68.1647 63.0281L68.0767 63.3592C69.9643 61.2602 70.4711 58.3199 70.1707 55.5831C70.1221 55.1518 69.4393 55.1457 69.4879 55.5831L69.4909 55.5892Z" fill="#553597"/>
<path d="M69.9099 57.1961C69.9099 56.8954 69.8978 56.4914 69.8188 56.0206C69.6428 54.9544 69.306 54.5231 69.1603 53.4903C69.1178 53.1866 69.0844 52.7795 69.1087 52.2966C69.1087 52.2966 67.8189 52.1143 66.9661 51.0056C66.1649 49.9638 65.6612 48.3083 66.2894 47.7373C66.5595 47.4912 66.9601 47.5216 67.2453 47.5429C68.6201 47.6522 69.4304 48.9766 69.5639 49.2044L72.5775 41.0881L83.8366 41.4709C84.4466 44.1439 84.8047 47.8254 83.7304 51.8774C82.9353 54.8785 81.8852 58.8364 78.6441 59.9268C75.9067 60.8502 73.1389 59.21 72.2861 58.6572" fill="white"/>
<path d="M70.2528 57.1961C70.2528 56.3547 70.1071 55.5437 69.84 54.7478C69.573 53.952 69.4121 53.1562 69.4516 52.2965C69.4576 52.1629 69.3423 51.9867 69.1997 51.9685C67.6823 51.7407 66.5108 50.2432 66.3591 48.7609C66.3227 48.4146 66.3409 47.9742 66.7506 47.8861C67.1603 47.798 67.6732 47.9347 68.0373 48.1351C68.5533 48.4176 68.969 48.8733 69.2664 49.3775C69.4273 49.6448 69.7915 49.5628 69.8916 49.2955C70.7717 46.9292 71.6488 44.56 72.5289 42.1938C72.6533 41.8566 72.7807 41.5194 72.9052 41.1792L72.5774 41.4313L81.2812 41.726C82.0854 41.7533 82.9109 41.8353 83.7151 41.808C83.7546 41.808 83.794 41.808 83.8335 41.811L83.5057 41.5589C83.9063 43.3419 84.1097 45.1644 84.0702 46.993C84.0277 49.0403 83.6302 51.0056 83.0778 52.9709C82.2736 55.8413 80.9353 59.4772 77.4908 59.8326C75.7033 60.0179 73.937 59.3163 72.456 58.3625C72.0858 58.1225 71.7428 58.7148 72.1101 58.9518C73.4696 59.8266 75.0447 60.4735 76.6744 60.5404C78.4831 60.6133 80.1644 59.8357 81.3146 58.4506C82.3798 57.1687 83.002 55.5831 83.4875 54.0067C84.0854 52.0687 84.5588 50.0913 84.7045 48.0622C84.8653 45.8236 84.6559 43.5667 84.1643 41.3797C84.1309 41.2309 83.9792 41.1337 83.8365 41.1276C82.0551 41.0668 80.2706 41.0061 78.4892 40.9453L72.5804 40.7449C72.4196 40.7388 72.3043 40.8572 72.2527 40.997C71.3726 43.3632 70.4955 45.7325 69.6154 48.0987C69.491 48.4359 69.3636 48.773 69.2391 49.1132L69.8643 49.0312C69.5699 48.5331 69.1754 48.0865 68.708 47.7494C68.092 47.3029 67.0328 46.9444 66.3014 47.3272C65.5701 47.7099 65.6095 48.6485 65.7825 49.338C66.0131 50.2523 66.523 51.1878 67.2574 51.7893C67.7521 52.1963 68.3833 52.5335 69.0237 52.6307L68.7718 52.3026C68.7354 53.141 68.8567 53.949 69.1208 54.7417C69.3848 55.5345 69.576 56.3425 69.573 57.2021C69.573 57.6426 70.2558 57.6426 70.2558 57.2021L70.2528 57.1961Z" fill="#553597"/>
<path d="M69.2664 54.1524C68.3863 53.8486 66.2922 52.986 64.79 50.8415C62.5382 47.6247 63.3697 44.0344 63.6307 42.9044C64.265 40.1646 66.1466 37.2303 68.2254 36.5196C68.5228 36.4193 68.7686 36.3859 68.9477 36.3555C70.9598 36.0184 72.2587 35.2043 72.5743 35.0585C75.0173 33.9407 80.6135 34.4692 84.2856 36.8324C84.2856 36.8324 85.9729 37.9199 87.0139 39.9034C87.3932 40.6293 87.4964 41.1609 87.287 41.5649C87.1535 41.82 86.8834 42.0448 86.6042 42.1572C86.6042 42.1572 86.4403 42.221 85.6482 42.2939C85.6482 42.2939 86.8227 44.0465 86.1763 44.9548C85.6604 45.6807 84.5648 45.787 83.9184 45.4316C83.7333 45.3314 83.6301 45.2129 83.4207 44.976C83.4207 44.976 83.0535 44.5629 82.4435 43.1778C81.6514 43.5879 80.3677 44.1225 78.7137 44.244C75.8306 44.4596 73.6638 43.2902 72.8383 42.7829C72.7958 43.5848 72.6319 44.7998 72.0523 46.1455C71.327 47.8283 70.2951 48.9309 69.6487 49.5232C69.5638 49.2832 69.1632 48.2383 68.0797 47.7766C67.9675 47.728 66.8294 47.242 66.2862 47.7402C65.664 48.3112 66.2042 49.83 66.7141 50.6501C67.4515 51.8347 68.6017 52.3116 69.0964 52.4848C69.151 53.0437 69.2057 53.5995 69.2603 54.1584L69.2664 54.1524Z" fill="#553597"/>
<path d="M69.3575 53.8244C66.3166 52.7643 64.0253 50.1307 63.6672 46.8867C63.3486 43.995 64.2651 40.7813 66.1224 38.5426C66.617 37.9473 67.1937 37.3975 67.8856 37.036C68.6352 36.6442 69.5244 36.6229 70.3286 36.386C70.9963 36.1855 71.6427 35.9212 72.2648 35.6053C72.6684 35.4018 73.0448 35.2196 73.4878 35.1041C74.8171 34.7548 76.2495 34.7852 77.603 34.9371C79.2691 35.1224 80.9444 35.5507 82.4739 36.2402C83.6696 36.7778 84.6832 37.44 85.5633 38.415C85.8759 38.7613 86.1612 39.1319 86.41 39.5298C86.6832 39.9642 87.0049 40.4745 87.0534 40.9969C87.1323 41.8353 86.2401 41.896 85.6544 41.9507C85.4176 41.972 85.2022 42.2302 85.36 42.464C85.9214 43.3054 86.5891 44.8819 85.1567 45.2373C84.8168 45.3224 84.4131 45.3102 84.0975 45.1371C83.9276 45.0429 83.791 44.8819 83.6696 44.7361C83.6271 44.6845 83.6939 44.7695 83.6696 44.7422C83.2781 44.2228 83.005 43.6001 82.744 43.0108C82.6651 42.8346 82.4253 42.8103 82.2766 42.8893C79.3329 44.402 75.8277 44.2076 73.0174 42.4944C72.7838 42.3517 72.5197 42.54 72.5046 42.7891C72.3619 45.2738 71.2421 47.6035 69.4151 49.2894L69.9857 49.4412C69.5214 48.1594 68.2407 47.0568 66.8082 47.1935C64.6808 47.3939 66.0404 50.4315 66.8022 51.3458C67.3788 52.0383 68.1678 52.5243 69.0145 52.822L68.7627 52.4939C68.8173 53.0528 68.8719 53.6087 68.9265 54.1676C68.969 54.602 69.6518 54.605 69.6094 54.1676C69.5547 53.6087 69.5001 53.0528 69.4455 52.4939C69.4303 52.333 69.3484 52.2175 69.1936 52.1659C68.4774 51.9138 67.8158 51.4916 67.3211 50.9114C66.787 50.2826 66.2347 49.2104 66.3652 48.3599C66.4319 47.9285 66.7779 47.8405 67.1724 47.886C67.3515 47.9073 67.5275 47.9559 67.6974 48.0106C67.7551 48.0288 67.8128 48.05 67.8704 48.0713C68.0039 48.1199 67.8674 48.0652 67.9675 48.1108C68.6079 48.4085 69.0874 48.9674 69.3271 49.6296C69.4151 49.8726 69.7004 49.9637 69.8977 49.7814C71.8582 47.9741 73.0326 45.459 73.1874 42.7982L72.6745 43.0928C75.7002 44.9366 79.4634 45.1128 82.6226 43.4877L82.1552 43.3662C82.4375 44.001 82.7319 44.6845 83.181 45.2252C83.7606 45.9268 84.665 46.1577 85.5239 45.8509C86.3827 45.5441 86.8379 44.7452 86.668 43.8249C86.5587 43.2325 86.2795 42.6341 85.9457 42.133L85.6513 42.6463C86.3251 42.5825 86.932 42.5552 87.4055 42.0023C88.0003 41.3068 87.6604 40.3955 87.281 39.6847C86.6285 38.4636 85.6422 37.3458 84.492 36.5682C83.1142 35.6357 81.4633 35.0403 79.8549 34.6546C78.2464 34.2688 76.4893 34.0653 74.808 34.2111C74.1555 34.2688 73.4939 34.3691 72.8718 34.5878C72.3953 34.7548 71.9674 35.016 71.5091 35.2256C70.6685 35.6144 69.7702 35.8817 68.8567 36.0367C68.0131 36.1825 67.2999 36.5257 66.6383 37.0664C65.1816 38.251 64.1892 40.0371 63.5944 41.7958C63.1634 43.0716 62.9237 44.4536 62.9207 45.7992C62.9207 47.9954 63.6429 50.1307 65.0936 51.7953C66.18 53.0437 67.6155 53.952 69.1723 54.4957C69.5881 54.6415 69.7672 53.9793 69.3544 53.8365L69.3575 53.8244Z" fill="#553597"/>
<path d="M77.5028 46.0272C77.5028 46.0272 77.5241 45.8996 77.4543 45.7993C77.2236 45.4774 76.3648 45.769 75.6729 46.0029C74.6532 46.3461 74.6076 46.577 74.6016 46.6468C74.5925 46.7683 74.6683 46.8959 74.7594 46.9658C75.0022 47.148 75.333 46.9263 76.1766 46.6377C77.0173 46.3491 77.4512 46.3066 77.4998 46.0302L77.5028 46.0272Z" fill="#553597"/>
<path d="M83.1232 46.8442C83.1232 46.8442 83.2142 46.7592 83.2172 46.6407C83.2264 46.2641 82.4009 45.9937 81.7423 45.775C80.7682 45.453 80.6013 45.6019 80.5557 45.6535C80.4768 45.7416 80.4647 45.8813 80.495 45.9876C80.577 46.2671 80.9533 46.2853 81.7666 46.5496C82.5739 46.8108 82.9289 47.0265 83.1262 46.8442H83.1232Z" fill="#553597"/>
<path d="M79.7667 49.578C79.7364 49.8271 79.7151 50.146 79.7242 50.5135C79.7364 51.036 79.8062 51.3641 79.8912 52.2753C79.961 53.0316 79.9427 53.1319 79.8638 53.226C79.6089 53.5298 78.7622 53.7272 78.7622 53.7272C78.7622 53.7333 78.7622 53.7485 78.7774 53.7728C78.7926 53.8001 79.788 54.2588 80.2978 53.7728C80.6225 53.463 80.5861 52.9527 80.5345 52.251C80.5163 52.0293 80.4708 51.7923 80.3798 51.3246C80.2493 50.6533 80.1582 50.3981 80.1248 50.307C80.0034 49.985 79.8669 49.7359 79.7667 49.575V49.578Z" fill="#553597"/>
<path d="M75.873 55.0151C76.6894 55.2976 77.5058 55.577 78.3221 55.8595L78.6681 55.978L78.4648 55.4768C78.2918 55.7471 78.0702 55.9507 77.7789 56.0813C77.7395 56.0995 77.6666 56.1238 77.5938 56.142C77.5513 56.1542 77.5088 56.1633 77.4663 56.1694C77.3995 56.1815 77.4876 56.1694 77.4117 56.1754C77.3358 56.1815 77.2691 56.1815 77.1962 56.1754C77.1203 56.1694 77.2144 56.1815 77.1446 56.1694C77.1052 56.1602 77.0627 56.1511 77.0232 56.139C76.7622 56.063 76.5195 55.8595 76.3738 55.5922C76.2918 55.4434 76.2524 55.2733 76.2494 55.1032C76.2494 55.0637 76.2494 55.0242 76.2494 54.9847C76.2494 54.9726 76.2615 54.8754 76.2494 54.9392C76.2585 54.8845 76.2706 54.8298 76.2827 54.7751C76.395 54.3499 75.7365 54.1676 75.6242 54.5929C75.3844 55.5102 75.8913 56.4913 76.8017 56.789C77.7121 57.0867 78.5831 56.549 79.0474 55.82C79.1719 55.6226 79.0444 55.3857 78.8441 55.3189C78.0278 55.0364 77.2114 54.7569 76.395 54.4744L76.0491 54.356C75.8761 54.2952 75.6758 54.4258 75.6303 54.5959C75.5787 54.7843 75.694 54.9574 75.87 55.0151H75.873Z" fill="#553597"/>
<path d="M77.0324 50.0215C77.2805 50.0215 77.4816 49.7495 77.4816 49.414C77.4816 49.0785 77.2805 48.8065 77.0324 48.8065C76.7843 48.8065 76.5833 49.0785 76.5833 49.414C76.5833 49.7495 76.7843 50.0215 77.0324 50.0215Z" fill="#553597"/>
<path d="M82.3161 50.0215C82.5641 50.0215 82.7652 49.7495 82.7652 49.414C82.7652 49.0785 82.5641 48.8065 82.3161 48.8065C82.068 48.8065 81.8669 49.0785 81.8669 49.414C81.8669 49.7495 82.068 50.0215 82.3161 50.0215Z" fill="#553597"/>
<path d="M100.403 73.9206C102.895 73.8234 105.386 73.7262 107.878 73.629C108.467 73.6047 108.931 74.1271 108.837 74.7103C108.069 79.5613 107.304 84.4122 106.537 89.2601C103.211 89.8281 99.8874 90.3931 96.5613 90.9611L99.5172 74.686C99.5961 74.2547 99.9633 73.9358 100.4 73.9176L100.403 73.9206Z" fill="white"/>
<path d="M100.403 74.2639C101.924 74.2062 103.444 74.1454 104.962 74.0877C105.736 74.0573 106.506 74.027 107.28 73.9966C107.556 73.9844 107.924 73.9055 108.182 74.0361C108.476 74.1819 108.528 74.4796 108.485 74.7742C108.039 77.8299 107.52 80.8766 107.038 83.9262C106.761 85.6759 106.485 87.4255 106.209 89.1751L106.449 88.9351C103.123 89.5031 99.7995 90.0681 96.4734 90.6361L96.8922 91.0553C97.2412 89.1417 97.5871 87.228 97.9361 85.3113C98.4702 82.368 99.0074 79.4216 99.5415 76.4782L99.7843 75.1417C99.8541 74.756 99.9027 74.3095 100.403 74.2639C100.837 74.2244 100.84 73.541 100.403 73.5804C99.2411 73.6868 99.1713 74.7104 99.0074 75.6065L98.3246 79.3608C97.7631 82.4561 97.1987 85.5513 96.6372 88.6466C96.5037 89.3907 96.3671 90.1319 96.2336 90.8761C96.185 91.1464 96.3853 91.3408 96.6524 91.2953C99.9786 90.7273 103.302 90.1623 106.628 89.5943C106.731 89.576 106.849 89.4606 106.868 89.3543C107.399 86.0039 107.927 82.6535 108.458 79.3031C108.588 78.4769 108.719 77.6538 108.849 76.8276C108.91 76.4539 108.968 76.0773 109.028 75.7037C109.089 75.3301 109.207 74.9018 109.192 74.5099C109.171 73.9875 108.81 73.5136 108.315 73.3526C108.006 73.2524 107.675 73.2949 107.356 73.3101C106.931 73.3253 106.509 73.3435 106.085 73.3587C104.191 73.4316 102.297 73.5045 100.403 73.5804C99.9664 73.5987 99.9634 74.2821 100.403 74.2639Z" fill="#553597"/>
<path d="M109.062 90.5085C109.338 89.2601 109.469 88.7468 109.526 88.5676C109.532 88.5493 109.56 88.4673 109.59 88.3549C109.641 88.1757 109.675 88.0238 109.699 87.9054C109.899 86.9607 110.054 86.2439 110.045 85.3782C110.039 84.6279 110.036 84.148 109.805 83.6073C109.341 82.5168 108.306 81.9883 107.805 81.7817C107.66 82.453 107.514 83.1213 107.368 83.7926C106.573 83.6498 105.872 83.5678 105.293 83.5192C103.511 83.3643 103.183 83.5465 103.023 83.7531C102.929 83.8746 102.759 84.1753 102.932 84.8344C102.346 84.6978 101.797 84.8679 101.563 85.2445C101.539 85.284 101.366 85.5756 101.46 85.8945C101.542 86.171 101.781 86.3046 102.124 86.496C102.367 86.6296 102.743 86.8058 103.253 86.9121C102.704 86.6813 102.149 86.9303 102.018 87.2918C101.927 87.5439 102.018 87.9054 102.227 88.1119C102.367 88.2486 102.47 88.2365 102.962 88.364C103.526 88.5098 103.475 88.5493 104.221 88.7498C104.507 88.8257 104.752 88.8865 104.904 88.923C105.086 88.9655 105.29 89.0141 105.52 89.0627C105.636 89.087 105.733 89.1082 105.799 89.1204C105.903 89.1417 106.391 89.2085 107.056 89.2905" fill="white"/>
<path d="M109.39 90.5996C109.754 88.9654 110.336 87.313 110.382 85.6302C110.409 84.6461 110.361 83.6649 109.76 82.8418C109.311 82.2252 108.67 81.7756 107.975 81.481C107.787 81.402 107.526 81.4476 107.475 81.6845C107.329 82.3558 107.183 83.024 107.038 83.6953L107.456 83.4554C106.667 83.3187 105.875 83.2124 105.077 83.1516C104.528 83.1091 103.951 83.0635 103.405 83.1729C102.549 83.343 102.422 84.1601 102.601 84.9164L103.019 84.4972C102.191 84.3362 101.111 84.6491 101.089 85.6576C101.068 86.666 102.397 87.0609 103.162 87.234C103.596 87.3312 103.754 86.7237 103.344 86.5749C102.664 86.3289 101.666 86.6113 101.645 87.4679C101.636 87.799 101.772 88.1605 102.027 88.3822C102.246 88.5706 102.543 88.604 102.813 88.6738C103.487 88.8439 104.139 89.0869 104.819 89.2479C105.566 89.4271 106.303 89.5365 107.062 89.6306C107.496 89.6853 107.493 89.0019 107.062 88.9472C105.948 88.8075 104.843 88.61 103.775 88.2546C103.611 88.2 103.447 88.1392 103.284 88.0906C103.056 88.0238 102.774 88.0086 102.561 87.9053C102.4 87.8264 102.285 87.6107 102.343 87.4254C102.449 87.0882 102.916 87.1429 103.168 87.234L103.35 86.5749C103.038 86.505 102.734 86.4139 102.449 86.2681C102.258 86.1709 101.963 86.0616 101.842 85.8793C101.721 85.6971 101.793 85.4692 101.93 85.3295C102.161 85.0926 102.549 85.0956 102.85 85.1533C103.108 85.205 103.332 84.9984 103.268 84.7342C103.214 84.5063 103.165 84.2573 103.253 84.0325C103.29 83.9383 103.271 83.9657 103.35 83.9019C103.311 83.9353 103.42 83.8745 103.46 83.8624C103.572 83.829 103.69 83.8138 103.806 83.8047C104.953 83.7166 106.161 83.914 107.283 84.1115C107.456 84.1418 107.663 84.0659 107.702 83.8715C107.848 83.2002 107.994 82.532 108.139 81.8607L107.638 82.0642C108.276 82.3345 108.886 82.7264 109.274 83.3156C109.787 84.0932 109.76 85.0987 109.687 85.9947C109.569 87.4831 109.062 88.9533 108.737 90.4082C108.643 90.8365 109.299 91.0188 109.396 90.5905L109.39 90.5996Z" fill="#553597"/>
<path d="M107.22 85.6424C105.79 85.3721 104.361 85.1017 102.931 84.8284Z" fill="white"/>
<path d="M107.311 85.3113C105.881 85.041 104.452 84.7707 103.023 84.4973C102.592 84.4153 102.409 85.0744 102.84 85.1564C104.27 85.4268 105.699 85.6971 107.129 85.9705C107.56 86.0525 107.742 85.3933 107.311 85.3113Z" fill="#553597"/>
<path d="M107.138 87.6046C105.763 87.3585 104.388 87.1155 103.013 86.8695Z" fill="white"/>
<path d="M107.229 87.2765C105.854 87.0305 104.479 86.7875 103.105 86.5415C102.922 86.508 102.737 86.5901 102.686 86.7814C102.64 86.9454 102.74 87.1702 102.925 87.2006C104.3 87.4466 105.675 87.6896 107.05 87.9357C107.232 87.9691 107.417 87.8871 107.469 87.6957C107.514 87.5317 107.414 87.3069 107.229 87.2765Z" fill="#553597"/>
<path d="M88.9197 90.8426C91.2838 90.4143 92.6282 89.5274 93.4264 88.7589C93.9848 88.2243 94.8922 87.1642 96.3914 86.8847C96.7707 86.8149 97.0954 86.8149 97.3139 86.827C96.9376 88.1848 96.6129 89.5547 96.8344 89.6398C96.8739 89.655 96.9194 89.6246 96.9376 89.6124C97.4839 89.2479 102.443 86.2499 102.191 89.0687C102.928 88.6921 103.666 88.7042 104.006 89.0748C104.048 89.1204 104.191 89.2813 104.212 89.5213C104.258 90.0043 103.787 90.5419 103.016 90.8123C103.095 90.8001 103.384 90.7637 103.629 90.9429C104.021 91.2314 103.921 91.7934 103.909 91.845C103.827 92.2612 103.465 92.6014 102.992 92.7168C103.086 92.7168 103.244 92.7259 103.368 92.8292C103.635 93.0509 103.541 93.5126 103.523 93.6007C103.414 94.0837 102.965 94.3358 102.106 94.8339C101.065 95.4354 100.549 95.7513 100.47 95.7907C99.0772 96.4681 97.8845 96.7931 97.3807 96.9268C94.6342 97.6679 92.0061 98.239 90.8286 98.4881C90.1913 95.9396 89.557 93.3941 88.9197 90.8457V90.8426Z" fill="white"/>
<path d="M89.0107 91.1707C90.604 90.8731 92.17 90.302 93.4112 89.2328C93.8755 88.8318 94.2731 88.361 94.7678 87.9905C95.5113 87.4315 96.3792 87.1248 97.314 87.1673L96.9862 86.736C96.8132 87.3586 96.6433 87.9844 96.5219 88.6192C96.4612 88.9412 96.3368 89.3847 96.4703 89.7066C96.707 90.2716 97.2806 89.7947 97.6083 89.6034C98.622 89.0111 99.8511 88.2912 101.05 88.2213C101.663 88.1848 101.89 88.4613 101.845 89.0718C101.824 89.3513 102.145 89.4697 102.358 89.3664C102.725 89.1903 103.62 88.8926 103.839 89.4515C104.036 89.9527 103.277 90.3506 102.922 90.4843C102.503 90.6422 102.673 91.2011 103.104 91.1434C103.472 91.0948 103.623 91.4441 103.578 91.7509C103.532 92.0577 103.226 92.2946 102.898 92.3888C102.525 92.4951 102.604 93.051 102.989 93.0601C103.374 93.0692 103.189 93.625 103.035 93.8043C102.707 94.1779 102.161 94.4057 101.742 94.6487C101.089 95.0284 100.458 95.4354 99.7661 95.7392C97.8147 96.5988 95.6721 97.0362 93.6024 97.5192C92.6464 97.7409 91.6905 97.9566 90.7315 98.1601L91.1503 98.4C90.513 95.8516 89.8787 93.3061 89.2414 90.7576C89.1352 90.3324 88.4766 90.5116 88.5828 90.9399C89.2201 93.4884 89.8544 96.0338 90.4917 98.5823C90.5372 98.7676 90.7345 98.8587 90.9105 98.8223C93.1957 98.3362 95.4779 97.8168 97.7267 97.1881C98.7373 96.9056 99.7782 96.5593 100.701 96.052C101.035 95.8698 101.359 95.6632 101.69 95.4719C102.218 95.1651 102.78 94.8856 103.262 94.512C103.608 94.2447 103.845 93.9075 103.884 93.4641C103.936 92.8748 103.605 92.3949 102.989 92.3827L103.08 93.054C103.736 92.8657 104.264 92.3493 104.267 91.6385C104.267 90.87 103.669 90.3901 102.922 90.4903L103.104 91.1495C103.869 90.8639 104.862 90.1349 104.467 89.1872C104.072 88.2395 102.78 88.4127 102.015 88.7832L102.528 89.0779C102.761 85.9583 98.0818 88.5038 96.9346 89.2146C96.795 89.3027 96.6918 89.3027 96.9225 89.3816C97.1986 89.4788 97.0499 89.4849 97.0985 89.3452C97.1319 89.2541 97.1197 89.1113 97.1349 89.0141C97.2472 88.3094 97.4445 87.6138 97.6357 86.9243C97.6964 86.7025 97.5264 86.5021 97.3079 86.493C96.4066 86.4504 95.5174 86.6995 94.7526 87.1794C94.1608 87.553 93.6813 88.0451 93.1775 88.525C91.9879 89.6611 90.4098 90.2261 88.8196 90.5207C88.3886 90.6027 88.5707 91.2588 89.0016 91.1798L89.0107 91.1707Z" fill="#553597"/>
<path d="M96.9285 92C98.5126 91.2315 100.097 90.463 101.681 89.6945L102.364 89.3635C102.758 89.1721 102.412 88.5828 102.018 88.7742C100.434 89.5427 98.8495 90.3112 97.2653 91.0797L96.5825 91.4107C96.188 91.6021 96.5339 92.1914 96.9285 92Z" fill="#553597"/>
<path d="M97.675 93.3304C99.6355 92.4039 101.599 91.4805 103.56 90.5541Z" fill="white"/>
<path d="M97.8481 93.625C99.8086 92.6986 101.772 91.7752 103.733 90.8487C104.13 90.6604 103.784 90.0711 103.387 90.2594C101.426 91.1859 99.4627 92.1093 97.5022 93.0357C97.1046 93.224 97.4506 93.8133 97.8481 93.625Z" fill="#553597"/>
<path d="M98.3911 94.7975C99.8782 94.111 101.368 93.4245 102.855 92.738Z" fill="white"/>
<path d="M98.5642 95.0921C100.051 94.4056 101.541 93.7192 103.028 93.0327C103.198 92.9537 103.235 92.7137 103.15 92.5649C103.053 92.3918 102.849 92.3644 102.682 92.4434C101.195 93.1299 99.7053 93.8164 98.2182 94.5028C98.0483 94.5818 98.0119 94.8218 98.0968 94.9706C98.194 95.1438 98.3973 95.1711 98.5642 95.0921Z" fill="#553597"/>
<path d="M49.6736 76.1016C48.2473 81.5266 47.698 86.1436 47.4734 89.5092C47.349 91.3894 47.179 94.1171 47.4431 97.6619C47.7071 101.198 48.1259 106.917 49.6979 109.037C53.3427 113.943 70.3224 109.22 90.8225 98.485C90.1852 95.9366 89.5509 93.3911 88.9136 90.8426C76.3951 93.546 71.1782 94.8886 69.6184 95.5113C69.4363 95.5842 68.6654 95.7695 67.6518 96.0581C66.0494 96.5167 64.8234 96.4043 63.8917 95.891C61.8705 94.7762 60.4259 88.3944 62.3318 79.4762" fill="#A78ED7"/>
<path d="M85.5421 91.517C86.2765 94.193 87.0079 96.8691 87.7423 99.5451C87.8576 99.9674 88.5162 99.7881 88.4008 99.3629C87.6664 96.6868 86.935 94.0108 86.2006 91.3347C86.0853 90.9125 85.4267 91.0917 85.5421 91.517Z" fill="white"/>
<path d="M64.796 109.405C71.9551 107.349 78.9443 104.697 85.6633 101.48C87.463 100.62 89.2414 99.7183 90.9985 98.7797C91.132 98.7068 91.1897 98.5367 91.1563 98.394C90.519 95.8455 89.8847 93.3001 89.2474 90.7516C89.1989 90.5572 89.0077 90.4873 88.8286 90.5116C83.8212 91.2224 78.92 92.489 74.0188 93.7192C72.6713 94.0564 71.3239 94.3996 69.9795 94.7611C69.1145 94.992 68.2587 95.2471 67.3938 95.478C66.5289 95.7088 65.6245 95.8212 64.7596 95.5934C62.8719 95.0922 62.3682 92.732 62.0708 91.0523C61.3849 87.1794 61.828 83.097 62.6383 79.2789C62.7293 78.8506 62.0708 78.6653 61.9797 79.0966C61.2119 82.7082 60.7961 86.493 61.2544 90.1775C61.4061 91.3894 61.6398 92.6105 62.1041 93.7435C62.4107 94.4968 62.8204 95.2805 63.4971 95.7665C64.796 96.7021 66.5653 96.4226 67.9917 96.0186C69.418 95.6146 70.9809 95.1985 72.4832 94.8127C75.4209 94.0594 78.3677 93.3456 81.3205 92.6531C83.8758 92.0547 86.4099 91.5413 89.0137 91.1708L88.5949 90.9308C89.2323 93.4793 89.8665 96.0247 90.5038 98.5732L90.6616 98.1874C84.1095 101.687 77.2691 104.642 70.2253 107.002C68.371 107.625 66.5016 108.205 64.62 108.746C64.1982 108.867 64.3772 109.526 64.8021 109.405H64.796Z" fill="white"/>
<path d="M88.5889 92.6895C88.1124 92.7836 87.639 92.8748 87.1625 92.9689C86.9865 93.0023 86.8712 93.2241 86.9228 93.3881C86.9835 93.5764 87.1534 93.6645 87.3416 93.6281C87.818 93.5339 88.2915 93.4428 88.7679 93.3486C88.944 93.3152 89.0593 93.0935 89.0077 92.9294C88.947 92.7411 88.777 92.653 88.5889 92.6895Z" fill="white"/>
<path d="M89.0926 94.7914C88.6738 94.9159 88.255 95.0435 87.8332 95.1681C87.6632 95.2197 87.5357 95.4111 87.5934 95.5872C87.6511 95.7634 87.8301 95.8819 88.0122 95.8272C88.431 95.7027 88.8498 95.5751 89.2717 95.4505C89.4416 95.3989 89.5691 95.2075 89.5114 95.0314C89.4537 94.8552 89.2747 94.7367 89.0926 94.7914Z" fill="white"/>
<path d="M89.4721 96.6291C89.0533 96.8114 88.6345 96.9936 88.2127 97.1759C88.1398 97.2063 88.0761 97.3065 88.0548 97.3794C88.0336 97.4614 88.0427 97.5708 88.0882 97.6437C88.1338 97.7166 88.2066 97.7804 88.2916 97.8016C88.3856 97.8229 88.4645 97.8047 88.5556 97.7682C88.9744 97.586 89.3932 97.4037 89.815 97.2215C89.8879 97.1911 89.9516 97.0908 89.9728 97.0179C89.9941 96.9359 89.985 96.8266 89.9395 96.7537C89.8939 96.6808 89.8211 96.617 89.7361 96.5957C89.6421 96.5745 89.5632 96.5927 89.4721 96.6291Z" fill="white"/>
<path d="M146.183 100.256H150.817C151.075 100.256 151.297 100.429 151.358 100.672C151.549 101.456 151.737 102.896 151.024 104.344C150.742 104.919 150.238 105.939 149.054 106.371C147.901 106.79 146.839 106.383 146.538 106.255C146.548 106.009 146.554 105.766 146.563 105.52C146.812 105.629 147.285 105.796 147.88 105.751C148.742 105.684 149.306 105.216 149.522 105.034C150.875 103.883 150.705 101.987 150.675 101.702C150.669 101.632 150.66 101.565 150.648 101.501C150.611 101.261 150.402 101.085 150.153 101.082C148.83 101.073 147.507 101.064 146.183 101.055V100.259V100.256Z" fill="white"/>
<path d="M146.183 100.596H150.117C150.332 100.596 150.55 100.584 150.769 100.596C151.145 100.614 151.136 101.243 151.164 101.535C151.285 102.783 150.957 104.041 150.217 105.058C149.37 106.216 147.907 106.456 146.626 105.921L146.878 106.249C146.887 106.003 146.894 105.76 146.903 105.514L146.39 105.809C147.974 106.486 149.761 105.787 150.554 104.269C150.884 103.634 151.033 102.911 151.039 102.197C151.045 101.629 151.003 100.894 150.326 100.751C150.007 100.684 149.637 100.73 149.312 100.727C148.988 100.724 148.629 100.721 148.29 100.721C147.589 100.715 146.887 100.712 146.186 100.706L146.526 101.046V100.25C146.526 99.8095 145.844 99.8095 145.844 100.25V101.046C145.844 101.231 146.001 101.386 146.183 101.386C147.185 101.392 148.186 101.401 149.191 101.407C149.431 101.407 149.673 101.41 149.913 101.413C150.135 101.413 150.289 101.386 150.326 101.638C150.347 101.775 150.353 101.918 150.356 102.057C150.378 103.187 149.986 104.342 149.009 104.988C148.335 105.435 147.485 105.538 146.733 105.216C146.496 105.116 146.229 105.231 146.22 105.511C146.211 105.757 146.205 106 146.196 106.246C146.189 106.41 146.308 106.519 146.447 106.574C147.719 107.106 149.23 106.957 150.271 106.012C151.312 105.067 151.81 103.652 151.871 102.346C151.886 101.99 151.868 101.635 151.819 101.283C151.783 101 151.755 100.669 151.628 100.411C151.44 100.028 151.069 99.9037 150.675 99.9037H146.183C145.743 99.9037 145.743 100.587 146.183 100.587V100.596Z" fill="#553597"/>
<path d="M136.081 99.1473C139.628 99.1291 143.179 99.1078 146.727 99.0896C147.182 99.0896 147.573 99.3994 147.664 99.8338C147.907 100.979 148.089 102.653 147.734 104.609C147.425 106.313 146.809 107.661 146.265 108.6C146.026 109.013 145.576 109.268 145.091 109.268H138.093C137.634 109.268 137.206 109.044 136.961 108.667C136.372 107.78 135.683 106.486 135.282 104.824C134.803 102.823 134.939 101.088 135.149 99.9219C135.228 99.4784 135.622 99.1534 136.081 99.1503V99.1473Z" fill="white"/>
<path d="M136.08 99.4875C137.98 99.4784 139.88 99.4662 141.777 99.4571C142.727 99.451 143.677 99.448 144.626 99.4419C145.1 99.4419 145.576 99.4359 146.05 99.4328C146.414 99.4328 146.924 99.3265 147.197 99.6363C147.388 99.855 147.403 100.247 147.446 100.52C147.5 100.863 147.54 101.21 147.561 101.556C147.619 102.394 147.595 103.245 147.473 104.077C147.261 105.559 146.784 107.151 145.968 108.421C145.582 109.019 144.912 108.919 144.302 108.919H139.143C138.69 108.919 138.038 109.019 137.619 108.807C137.276 108.63 137.088 108.245 136.9 107.926C136.697 107.579 136.511 107.224 136.341 106.86C135.944 105.997 135.659 105.083 135.486 104.15C135.313 103.218 135.264 102.325 135.313 101.41C135.343 100.824 135.27 99.5361 136.08 99.4875C136.517 99.4602 136.521 98.7767 136.08 98.8041C135.255 98.8527 134.873 99.4237 134.76 100.183C134.648 100.942 134.593 101.717 134.624 102.489C134.691 104.344 135.185 106.173 136.056 107.813C136.378 108.418 136.724 109.147 137.373 109.444C137.668 109.578 137.974 109.602 138.29 109.602H143.746C144.296 109.602 144.912 109.675 145.455 109.563C146.241 109.396 146.599 108.746 146.927 108.081C147.294 107.343 147.595 106.571 147.813 105.775C148.299 104.023 148.393 102.179 148.11 100.384C147.989 99.609 147.746 98.8223 146.827 98.7463C146.25 98.6977 145.652 98.7463 145.073 98.7494C144.493 98.7524 143.874 98.7555 143.273 98.7585C140.872 98.7706 138.475 98.7858 136.074 98.798C135.634 98.798 135.634 99.4845 136.074 99.4814L136.08 99.4875Z" fill="#553597"/>
<path d="M32.7121 110.277L29.2342 86.4899C29.0552 85.2657 30.0263 84.1692 31.2948 84.1692H65.2695C66.3043 84.1692 67.1814 84.9134 67.3301 85.9127L70.893 110.277H32.7151H32.7121Z" fill="white"/>
<path d="M33.0399 110.186C32.7182 107.98 32.3935 105.775 32.0718 103.57L30.3389 91.7266L29.7259 87.5409C29.5772 86.5294 29.2889 85.4085 30.3814 84.7585C30.9641 84.4122 31.7501 84.5094 32.4056 84.5094H35.9321C39.6436 84.5094 43.3552 84.5094 47.0637 84.5094C50.9877 84.5094 54.9117 84.5094 58.8357 84.5094C60.9388 84.5094 63.045 84.5003 65.1481 84.5094C65.8461 84.5094 66.4986 84.8071 66.8264 85.4571C66.972 85.7457 67.0024 86.0616 67.0479 86.3745L67.5213 89.6033L69.1996 101.088L70.4894 109.903C70.5106 110.058 70.5349 110.213 70.5561 110.368L70.8839 109.937H37.4039C35.8623 109.937 34.3084 109.876 32.7698 109.937C32.7485 109.937 32.7273 109.937 32.7061 109.937C32.266 109.937 32.266 110.62 32.7061 110.62H66.186C67.7277 110.62 69.2815 110.681 70.8202 110.62C70.8414 110.62 70.8626 110.62 70.8839 110.62C71.1267 110.62 71.245 110.401 71.2116 110.189C70.89 107.977 70.5652 105.769 70.2435 103.558L68.4834 91.5291L67.843 87.1551C67.7125 86.2651 67.6882 85.2961 67.0449 84.6005C66.3135 83.8138 65.3696 83.8321 64.4076 83.8321H61.0936C57.376 83.8321 53.6553 83.8321 49.9377 83.8321H37.9593C35.7773 83.8321 33.5953 83.8229 31.4132 83.8321C29.8291 83.8381 28.6849 85.0896 28.9095 86.6721C29.037 87.5652 29.1705 88.4582 29.301 89.3512C29.8564 93.139 30.4087 96.9298 30.9641 100.718C31.4102 103.773 31.8563 106.826 32.3055 109.882L32.3783 110.371C32.442 110.805 33.1006 110.62 33.0369 110.189L33.0399 110.186Z" fill="#553597"/>
<path d="M182.358 109.305H15.7717C14.3319 109.305 13.1648 110.473 13.1648 111.914V112.023C13.1648 113.464 14.3319 114.633 15.7717 114.633H182.358C183.798 114.633 184.965 113.464 184.965 112.023V111.914C184.965 110.473 183.798 109.305 182.358 109.305Z" fill="white"/>
<path d="M182.358 114.289C181.955 114.289 181.551 114.289 181.147 114.289H177.706C175.891 114.289 174.076 114.289 172.261 114.289C169.864 114.289 167.469 114.289 165.072 114.289H156.414C153.094 114.289 149.774 114.289 146.45 114.289H135.552C131.671 114.289 127.789 114.289 123.908 114.289C119.835 114.289 115.763 114.289 111.69 114.289C107.617 114.289 103.426 114.289 99.2926 114.289C95.1592 114.289 90.9985 114.289 86.853 114.289C82.7894 114.289 78.7227 114.289 74.6591 114.289C70.5955 114.289 66.8809 114.289 62.9933 114.289H51.9982C48.6842 114.289 45.3733 114.289 42.0593 114.289H33.3281C30.9124 114.289 28.4998 114.289 26.0841 114.289C24.2541 114.289 22.4241 114.289 20.5911 114.289H17.0586C16.6306 114.289 16.2027 114.295 15.7748 114.289C14.5245 114.268 13.526 113.275 13.5078 112.02C13.4896 110.766 14.4668 109.666 15.7748 109.642C15.8841 109.642 15.9933 109.642 16.1026 109.642H18.5092C20.0084 109.642 21.5076 109.642 23.0098 109.642H29.3859C32.0505 109.642 34.715 109.642 37.3796 109.642C40.4903 109.642 43.6009 109.642 46.7116 109.642C50.2168 109.642 53.719 109.642 57.2242 109.642H68.541C72.5317 109.642 76.5225 109.642 80.5133 109.642C84.6285 109.642 88.7436 109.642 92.8588 109.642H105.289C109.417 109.642 113.544 109.642 117.671 109.642C121.799 109.642 125.629 109.642 129.604 109.642H140.921C144.426 109.642 147.928 109.642 151.434 109.642C154.544 109.642 157.655 109.642 160.766 109.642C163.43 109.642 166.095 109.642 168.759 109.642H175.135C176.635 109.642 178.134 109.642 179.636 109.642H182.043C182.152 109.642 182.261 109.642 182.367 109.642C183.521 109.663 184.522 110.532 184.625 111.701C184.747 113.068 183.76 114.259 182.367 114.286C181.927 114.295 181.927 114.979 182.367 114.97C183.779 114.942 185.035 113.94 185.272 112.521C185.487 111.23 184.904 109.882 183.712 109.28C183.22 109.031 182.692 108.955 182.152 108.955H179.955C178.501 108.955 177.047 108.955 175.594 108.955C173.503 108.955 171.415 108.955 169.324 108.955H161.397C158.277 108.955 155.157 108.955 152.038 108.955C148.554 108.955 145.07 108.955 141.586 108.955C137.783 108.955 133.977 108.955 130.175 108.955C126.181 108.955 122.184 108.955 118.19 108.955C114.042 108.955 109.893 108.955 105.745 108.955C101.596 108.955 97.3807 108.955 93.2018 108.955C89.0593 108.955 84.9168 108.955 80.7773 108.955C76.6378 108.955 72.7411 108.955 68.723 108.955C64.9144 108.955 61.1057 108.955 57.297 108.955C53.7706 108.955 50.2441 108.955 46.7177 108.955C43.5888 108.955 40.4599 108.955 37.3341 108.955C34.6513 108.955 31.9685 108.955 29.2827 108.955C27.1614 108.955 25.0371 108.955 22.9157 108.955H18.409C17.6291 108.955 16.8492 108.955 16.0692 108.955C15.8689 108.955 15.6716 108.952 15.4714 108.974C14.0602 109.128 12.9525 110.286 12.8432 111.698C12.74 113.013 13.4653 114.268 14.7005 114.76C15.3773 115.03 16.1329 114.967 16.8492 114.967H20.1965C21.9962 114.967 23.7958 114.967 25.5955 114.967C27.9747 114.967 30.354 114.967 32.7333 114.967C35.6376 114.967 38.5419 114.967 41.4462 114.967C44.7542 114.967 48.0651 114.967 51.3731 114.967H62.3833C66.2982 114.967 70.2101 114.967 74.125 114.967C78.2098 114.967 82.2947 114.967 86.3795 114.967C90.5494 114.967 94.7192 114.967 98.889 114.967C103.062 114.967 107.232 114.967 111.405 114.967H123.705C127.613 114.967 131.522 114.967 135.428 114.967C139.106 114.967 142.784 114.967 146.466 114.967C149.786 114.967 153.106 114.967 156.429 114.967H165.184C167.588 114.967 169.988 114.967 172.392 114.967C174.204 114.967 176.016 114.967 177.827 114.967C178.965 114.967 180.1 114.967 181.238 114.967C181.618 114.967 181.994 114.967 182.373 114.967C182.813 114.967 182.813 114.283 182.373 114.283L182.358 114.289Z" fill="#553597"/>
<path d="M21.365 114.648H25.6441C22.2208 140.77 18.8006 166.893 15.3773 193.019C15.2802 193.76 14.7764 194.304 14.1877 194.304C13.4563 194.304 12.8948 193.48 12.995 192.557C15.784 166.589 18.573 140.619 21.365 114.651V114.648Z" fill="white"/>
<path d="M21.365 114.991H25.644L25.3041 114.651C24.6183 119.89 23.9324 125.13 23.2465 130.37C22.5637 135.585 21.8809 140.798 21.198 146.013C20.5152 151.229 19.8263 156.493 19.1404 161.732C18.4546 166.972 17.7687 172.212 17.0829 177.451C16.7399 180.058 16.4 182.667 16.0571 185.273C15.8871 186.576 15.7142 187.879 15.5442 189.185C15.4592 189.839 15.3743 190.489 15.2893 191.142C15.2043 191.795 15.18 192.515 15.0101 193.159C14.913 193.535 14.6307 193.963 14.1937 193.966C13.7567 193.97 13.4623 193.52 13.3713 193.134C13.2408 192.572 13.4107 191.916 13.4714 191.354C13.5412 190.701 13.611 190.045 13.6808 189.392C13.9631 186.774 14.2423 184.158 14.5245 181.54C15.089 176.282 15.6535 171.021 16.2179 165.763C16.7824 160.505 17.3469 155.244 17.9114 149.986C18.4728 144.753 19.0373 139.519 19.5987 134.285C20.1601 129.052 20.7277 123.766 21.2921 118.508C21.4287 117.224 21.5683 115.942 21.7049 114.657C21.7504 114.219 21.0675 114.222 21.022 114.657C20.4454 120.018 19.8718 125.376 19.2952 130.737C18.7156 136.123 18.139 141.509 17.5593 146.894C16.9827 152.255 16.4091 157.613 15.8325 162.975C15.2559 168.336 14.6763 173.746 14.0966 179.131C13.8113 181.798 13.523 184.465 13.2378 187.132C13.0921 188.49 12.9464 189.851 12.8007 191.208C12.6915 192.217 12.3941 193.398 13.1922 194.213C13.7749 194.811 14.6914 194.778 15.2438 194.155C15.5867 193.769 15.6838 193.301 15.7506 192.803C15.8386 192.126 15.9266 191.448 16.0176 190.771C16.3666 188.113 16.7126 185.455 17.0616 182.798C17.7657 177.433 18.4667 172.066 19.1708 166.702C19.8749 161.337 20.5698 156.022 21.2678 150.682C21.9659 145.342 22.6669 140.002 23.3649 134.662C24.069 129.298 24.77 123.93 25.4741 118.566C25.644 117.263 25.817 115.96 25.987 114.654C26.0112 114.472 25.8109 114.314 25.6471 114.314H21.368C20.9279 114.314 20.9279 114.997 21.368 114.997L21.365 114.991Z" fill="#553597"/>
<path d="M178.383 114.748H173.639C177.433 140.871 181.226 166.993 185.02 193.119C185.126 193.86 185.684 194.404 186.337 194.404C187.147 194.404 187.769 193.581 187.66 192.657C184.567 166.69 181.475 140.719 178.38 114.751L178.383 114.748Z" fill="white"/>
<path d="M178.383 114.405H173.639C173.396 114.405 173.278 114.623 173.311 114.836C174.088 120.191 174.868 125.546 175.645 130.901C176.422 136.257 177.202 141.612 177.979 146.967C178.756 152.322 179.536 157.677 180.313 163.032C181.09 168.387 181.87 173.743 182.647 179.098C183.035 181.774 183.423 184.453 183.812 187.129C184.003 188.456 184.197 189.781 184.388 191.108C184.486 191.782 184.577 192.46 184.683 193.134C184.756 193.599 184.95 194.033 185.308 194.346C185.942 194.896 186.874 194.856 187.463 194.261C188.282 193.435 187.957 192.247 187.836 191.224C187.517 188.535 187.196 185.85 186.877 183.162C186.237 177.789 185.596 172.412 184.956 167.039C184.316 161.665 183.675 156.289 183.035 150.916C182.395 145.542 181.754 140.166 181.114 134.792C180.474 129.419 179.833 124.043 179.193 118.669C179.038 117.363 178.88 116.057 178.726 114.751C178.674 114.32 177.991 114.314 178.043 114.751C178.671 120.024 179.299 125.3 179.927 130.573C180.552 135.822 181.178 141.071 181.803 146.32C182.431 151.593 183.059 156.869 183.687 162.142C184.316 167.415 184.944 172.692 185.572 177.965C185.885 180.601 186.2 183.238 186.513 185.878C186.668 187.184 186.825 188.49 186.98 189.796C187.059 190.449 187.135 191.102 187.214 191.755C187.278 192.287 187.445 192.897 187.226 193.411C186.813 194.383 185.618 194.155 185.381 193.192C185.232 192.581 185.19 191.925 185.099 191.303C185.008 190.68 184.91 190.002 184.816 189.349C184.434 186.722 184.055 184.095 183.672 181.467C182.911 176.212 182.146 170.957 181.384 165.702C180.625 160.472 179.864 155.244 179.105 150.014C178.343 144.759 177.578 139.504 176.817 134.249C176.055 128.994 175.29 123.739 174.528 118.484C174.343 117.208 174.158 115.933 173.973 114.657L173.645 115.088H178.389C178.829 115.088 178.829 114.405 178.389 114.405H178.383Z" fill="#553597"/>
</g>
<defs>
<clipPath id="clip0_2173_1489">
<rect width="188" height="194.198" fill="white" transform="translate(0 0.783203)"/>
</clipPath>
</defs>
</svg>
