<svg width="263" height="198" viewBox="0 0 263 198" fill="none" xmlns="http://www.w3.org/2000/svg">
<rect x="8.5" y="76.2223" width="225.272" height="114.271" rx="57.1355" transform="rotate(-13.7732 8.5 76.2223)" fill="#EDE3FF"/>
<mask id="mask0_330_7608" style="mask-type:luminance" maskUnits="userSpaceOnUse" x="139" y="20" width="89" height="154">
<path d="M227.912 20H139.466V173.08H227.912V20Z" fill="white"/>
</mask>
<g mask="url(#mask0_330_7608)">
<path d="M211.042 172.67H150.493C144.626 172.67 139.877 167.827 139.877 161.968V31.0202C139.877 25.1603 144.632 20.4097 150.499 20.4097H211.037L211.042 172.67Z" fill="#6F46BE"/>
<path d="M216.618 172.405L156.341 172.578C150.474 172.578 145.719 167.827 145.719 161.968V31.0202C145.719 25.1603 150.474 20.4097 156.341 20.4097H216.88C222.747 20.4097 227.502 25.1603 227.502 31.0202V161.968C227.502 167.827 222.485 172.405 216.619 172.405H216.618Z" fill="#6F46BE"/>
<path d="M227.345 37.7009H145.874V153.685H227.345V37.7009Z" fill="#A78ED7"/>
<path d="M145.978 32.8779C152.599 34.2046 158.042 30.9773 161.734 27.8374C168.285 22.2673 173.912 26.2459 181.143 26.5107C188.374 26.7754 192.101 25.2742 198.498 22.7968C203.978 20.6744 204.874 20.7839 208.652 20.5975C200.22 20.2233 154.123 20.4097 154.123 20.4097C154.123 20.4097 147.895 21.1995 146.328 28.7337C146.078 29.9361 145.948 31.3087 145.979 32.8764L145.978 32.8779Z" fill="#885FD8"/>
<path d="M227.773 153.691H145.979V154.51H227.773V153.691Z" fill="#553597"/>
<path d="M216.884 173.08H156.335C150.255 173.08 145.308 168.095 145.308 161.968V31.0202C145.308 24.9444 150.258 20 156.341 20H216.88C222.963 20 227.913 24.9444 227.913 31.0202V161.968C227.913 168.095 222.966 173.08 216.885 173.08H216.884ZM156.341 20.8194C150.711 20.8194 146.13 25.3955 146.13 31.0202V161.968C146.13 167.643 150.709 172.26 156.337 172.26H216.885C222.513 172.26 227.092 167.643 227.092 161.968V31.0202C227.092 25.3955 222.51 20.8194 216.88 20.8194H156.341Z" fill="#553597"/>
<path d="M149.034 169.619C149.034 169.619 162.975 170.281 168.818 168.69C174.662 167.098 178.91 162.853 185.283 164.976C191.656 167.098 201.217 170.812 209.184 166.567C217.152 162.322 222.451 159.671 227.502 160.466C227.512 164.18 226.711 172.404 215.557 172.404C201.748 172.404 154.957 172.577 154.957 172.577C154.957 172.577 151.557 172.137 149.035 169.619H149.034Z" fill="#885FD8"/>
<path d="M195.108 31.816H178.113C177.086 31.816 176.254 30.9848 176.254 29.9598C176.254 28.9349 177.086 28.1036 178.113 28.1036H195.108C196.135 28.1036 196.967 28.9349 196.967 29.9598C196.967 30.9848 196.135 31.816 195.108 31.816Z" fill="#553597"/>
<path d="M205.2 31.816C206.226 31.816 207.059 30.985 207.059 29.9598C207.059 28.9347 206.226 28.1036 205.2 28.1036C204.173 28.1036 203.341 28.9347 203.341 29.9598C203.341 30.985 204.173 31.816 205.2 31.816Z" fill="#553597"/>
<path d="M216.884 173.08H156.335C150.255 173.08 145.308 168.095 145.308 161.969V154.266C145.308 154.04 145.491 153.857 145.719 153.857H227.5C227.727 153.857 227.912 154.04 227.912 154.266V161.969C227.912 168.095 222.966 173.08 216.884 173.08ZM146.13 154.676V161.969C146.13 167.644 150.709 172.26 156.337 172.26H216.885C222.513 172.26 227.092 167.644 227.092 161.969V154.676H146.132H146.13Z" fill="#553597"/>
<path d="M227.773 37.5073H145.979V38.3267H227.773V37.5073Z" fill="#553597"/>
<path d="M211.042 173.08H150.493C144.413 173.08 139.466 168.095 139.466 161.968V31.0202C139.466 24.9444 144.414 20 150.498 20H211.036V20.8194H150.498C144.867 20.8194 140.286 25.3955 140.286 31.0202V161.968C140.286 167.643 144.866 172.26 150.493 172.26H211.042V173.081V173.08Z" fill="#553597"/>
</g>
<mask id="mask1_330_7608" style="mask-type:luminance" maskUnits="userSpaceOnUse" x="162" y="48" width="47" height="74">
<path d="M208.388 48.8411H162.095V121.461H208.388V48.8411Z" fill="white"/>
</mask>
<g mask="url(#mask1_330_7608)">
<path d="M202.635 76.975V66.1663C202.635 57.0969 194.832 49.3113 185.243 49.3113C175.647 49.3231 167.869 57.0821 167.853 66.6603V87.2913L173.398 84.527V66.6603C173.494 60.1304 178.877 54.9138 185.419 55.0115C191.825 55.1061 196.996 60.2665 197.09 66.6603V70.9376L198.6 72.4477V74.9591H197.09V76.9706L202.635 76.975Z" fill="#EDE3FF"/>
<path d="M170.36 83.2343C170.36 83.2343 169.88 64.0158 171.315 61.1539C172.75 58.2919 174.18 55.8989 178.002 53.9909C181.824 52.083 184.691 52.083 186.604 52.083C188.516 52.083 190.429 51.6067 190.905 50.6528C190.905 50.6528 186.128 48.7448 180.871 50.175C175.615 51.6053 174.653 52.5622 171.803 55.9004C168.953 59.2385 168.449 60.191 167.971 64.0069C167.495 67.8243 167.788 83.4783 167.788 83.4783L170.36 83.2358V83.2343Z" fill="white"/>
<path d="M167.85 87.7513C167.597 87.7513 167.39 87.5486 167.388 87.2957C167.388 87.2942 167.388 87.2928 167.388 87.2898V66.6588C167.402 56.8233 175.387 48.8528 185.242 48.8395C194.92 48.8395 203.098 56.77 203.098 66.1648V76.9736C203.098 77.228 202.891 77.4335 202.637 77.4335C202.637 77.4335 202.635 77.4335 202.634 77.4335H197.089C196.834 77.4335 196.626 77.2294 196.624 76.9765C196.624 76.9765 196.624 76.975 196.624 76.9736V74.9562C196.624 74.7003 196.831 74.4932 197.089 74.4932H198.137V72.6282L196.759 71.2527C196.673 71.1654 196.624 71.0486 196.624 70.9273V66.6573C196.719 60.3833 191.699 55.22 185.413 55.1254C179.126 55.0307 173.954 60.0402 173.859 66.3157C173.858 66.4296 173.858 66.5435 173.859 66.6588V84.5255C173.859 84.7015 173.758 84.8612 173.6 84.9396L168.054 87.7039C167.99 87.735 167.921 87.7498 167.85 87.7498V87.7513ZM185.242 49.7639C175.897 49.7757 168.325 57.3335 168.313 66.6603V86.5429L172.932 84.2356V66.6514C173.071 59.8671 178.694 54.4805 185.49 54.621C192.091 54.7556 197.408 60.0638 197.544 66.6514V70.7365L198.926 72.112C199.013 72.1993 199.063 72.3176 199.063 72.4403V74.9562C199.063 75.2106 198.855 75.4162 198.599 75.4162H197.55V76.5077H202.169V66.1633C202.169 57.2685 194.418 49.7609 185.24 49.7609L185.242 49.7639Z" fill="#553597"/>
<path d="M203.894 121.001H166.585C164.361 120.997 162.559 119.195 162.559 116.975V87.2913C162.559 85.0683 164.364 83.2669 166.591 83.2654H203.9C206.127 83.2654 207.933 85.0683 207.933 87.2913V116.975C207.933 119.198 206.127 121.001 203.9 121.001H203.894Z" fill="#EDE3FF"/>
<path d="M162.811 115.718C165.834 118.735 172.892 117.73 175.412 117.73C177.932 117.73 187.763 117.988 193.307 117.988C198.85 117.988 206.92 118.994 207.927 113.461C207.927 113.461 209.498 120.12 205.183 120.815C200.869 121.51 165.582 121.009 165.582 121.009C165.582 121.009 161.802 119.24 162.811 115.718Z" fill="#553597"/>
<path d="M162.811 92.07C162.811 92.07 165.099 88.0692 167.853 87.0383C171.885 85.5312 177.934 87.0383 184.992 87.0383C192.05 87.0383 199.106 87.0383 202.635 86.5369C206.164 86.0356 206.192 85.5756 206.164 84.0211C206.164 84.0211 204.148 83.5168 199.609 83.5168C195.07 83.5168 166.34 83.0154 166.34 83.0154C166.34 83.0154 160.282 85.0269 162.811 92.0715V92.07Z" fill="white"/>
<path d="M185.242 111.692C183.433 111.692 181.966 110.227 181.964 108.421V103.636C179.323 101.83 178.648 98.2273 180.458 95.5902C182.269 92.9531 185.878 92.2801 188.519 94.0875C191.161 95.8949 191.835 99.4963 190.025 102.133C189.62 102.724 189.109 103.232 188.519 103.636V108.421C188.519 110.227 187.051 111.691 185.242 111.692Z" fill="#553597"/>
<path d="M203.894 121.461H166.585C164.106 121.455 162.098 119.45 162.095 116.975V87.2913C162.095 84.814 164.108 82.8054 166.59 82.8025H203.898C206.38 82.8054 208.391 84.814 208.393 87.2913V116.975C208.39 119.454 206.375 121.461 203.892 121.461H203.894ZM166.585 83.7284C164.617 83.7328 163.022 85.3257 163.021 87.2913V116.975C163.021 118.943 164.62 120.537 166.591 120.538H203.9C205.871 120.538 207.469 118.943 207.47 116.975V87.2913C207.47 85.3242 205.871 83.7298 203.9 83.7284H166.587H166.585Z" fill="#553597"/>
</g>
<mask id="mask2_330_7608" style="mask-type:luminance" maskUnits="userSpaceOnUse" x="120" y="86" width="55" height="35">
<path d="M174.814 86.7041H120.238V120.574H174.814V86.7041Z" fill="white"/>
</mask>
<g mask="url(#mask2_330_7608)">
<mask id="mask3_330_7608" style="mask-type:luminance" maskUnits="userSpaceOnUse" x="120" y="86" width="83" height="35">
<path d="M202.916 86.7041H120.238V120.574H202.916V86.7041Z" fill="white"/>
</mask>
<g mask="url(#mask3_330_7608)">
<path d="M201.977 100.638L199.397 97.6757C199.088 97.3208 198.642 97.1181 198.173 97.1181H164.563C163.825 97.1181 163.101 96.917 162.468 96.5354L160.61 95.4158C159.977 95.0342 159.252 94.833 158.514 94.833H151.143C146.281 87.1081 136.082 84.789 128.361 89.652C120.641 94.515 118.321 104.72 123.183 112.445C128.045 120.17 138.244 122.489 145.965 117.626C148.056 116.309 149.826 114.538 151.143 112.445H158.514C159.252 112.445 159.977 112.244 160.61 111.863L162.472 110.741C163.102 110.361 163.824 110.16 164.559 110.159L172.523 110.142C172.769 110.142 173.003 110.03 173.156 109.838L173.753 109.092C173.906 108.9 174.14 108.788 174.387 108.788H176.044C176.291 108.788 176.524 108.9 176.678 109.092L177.274 109.836C177.428 110.029 177.662 110.141 177.909 110.141H178.536C178.752 110.141 178.959 110.055 179.111 109.903L179.99 109.024C180.142 108.872 180.349 108.786 180.565 108.786H182.059C182.275 108.786 182.482 108.872 182.634 109.024L183.513 109.903C183.665 110.055 183.872 110.141 184.088 110.141H185.659C185.827 110.141 185.993 110.088 186.131 109.99L187.602 108.939C187.74 108.839 187.905 108.788 188.074 108.788H190.245C190.426 108.788 190.6 108.847 190.742 108.958L192.079 109.992C192.221 110.101 192.396 110.162 192.576 110.162H195.114C195.298 110.162 195.477 110.1 195.62 109.986L201.304 105.466C201.688 105.161 201.956 104.734 202.067 104.256L202.46 102.549C202.616 101.872 202.438 101.162 201.983 100.638H201.977ZM130.665 107.974C128.272 107.974 126.332 106.034 126.332 103.639C126.332 101.245 128.272 99.3041 130.665 99.3041C133.059 99.3041 134.999 101.245 134.999 103.639C134.999 106.034 133.059 107.974 130.665 107.974Z" fill="#A78ED7"/>
<path d="M163.84 97.2719C163.84 97.2719 164.381 98.356 166.548 98.356H200.078C199.568 97.6047 198.727 97.1447 197.821 97.118C196.339 97.118 163.84 97.2719 163.84 97.2719Z" fill="white"/>
<path d="M152.122 96.2779H158.153C158.153 96.2779 160.049 96.1877 160.591 95.6449C161.132 95.1021 158.424 94.8314 158.424 94.8314H151.146L152.12 96.2764L152.122 96.2779Z" fill="white"/>
<path d="M137.164 118.271C129.087 118.271 122.54 111.721 122.54 103.639C122.54 95.5577 129.087 89.0071 137.164 89.0071C145.241 89.0071 151.789 95.5577 151.789 103.639C151.78 111.716 145.237 118.262 137.164 118.271ZM137.164 89.8205C129.535 89.8205 123.353 96.0073 123.353 103.639C123.353 111.271 129.537 117.458 137.164 117.458C144.792 117.458 150.975 111.271 150.975 103.639C150.967 96.0103 144.789 89.8294 137.164 89.8205Z" fill="#553597"/>
<path d="M125.962 115.39C125.819 115.39 125.681 115.334 125.579 115.232C119.181 108.831 119.181 98.4507 125.579 92.048C131.977 85.6468 142.351 85.6468 148.751 92.048C148.965 92.2565 148.973 92.5997 148.764 92.8141C148.556 93.0301 148.214 93.036 147.998 92.8274C147.994 92.823 147.989 92.8186 147.985 92.8141C141.958 86.8877 132.269 86.9734 126.347 93.0035C120.497 98.9595 120.497 108.507 126.347 114.463C126.558 114.674 126.558 115.017 126.347 115.229C126.245 115.331 126.107 115.387 125.964 115.387L125.962 115.39Z" fill="white"/>
<path d="M202.285 100.372L199.704 97.408C199.318 96.9658 198.76 96.7114 198.173 96.7114H164.563C163.898 96.7114 163.246 96.5309 162.676 96.1878L160.818 95.0667C160.122 94.6481 159.326 94.4278 158.514 94.4278H151.356C146.271 86.58 135.789 84.3423 127.946 89.4301C120.102 94.518 117.866 105.004 122.951 112.852C128.036 120.7 138.518 122.938 146.361 117.85C148.359 116.554 150.06 114.852 151.356 112.852H158.514C159.326 112.852 160.123 112.63 160.818 112.213L162.682 111.092C163.248 110.75 163.898 110.568 164.559 110.567L172.523 110.551C172.893 110.551 173.244 110.382 173.475 110.092L174.071 109.347C174.147 109.251 174.264 109.196 174.387 109.194H176.045C176.168 109.194 176.285 109.251 176.362 109.347L176.958 110.092C177.188 110.382 177.539 110.551 177.909 110.551H178.537C178.86 110.551 179.17 110.421 179.398 110.193L180.275 109.314C180.352 109.239 180.454 109.196 180.562 109.194H182.057C182.165 109.194 182.267 109.237 182.344 109.314L183.221 110.193C183.451 110.421 183.76 110.549 184.082 110.551H185.653C185.907 110.551 186.154 110.472 186.36 110.323L187.833 109.271C187.902 109.222 187.984 109.196 188.068 109.196H190.241C190.33 109.196 190.417 109.225 190.488 109.28L191.826 110.315C192.039 110.481 192.301 110.57 192.572 110.57H195.11C195.385 110.57 195.653 110.477 195.868 110.304L201.552 105.784C202.008 105.421 202.329 104.916 202.459 104.348L202.852 102.641C203.037 101.838 202.827 100.995 202.286 100.373L202.285 100.372ZM137.164 119.761C128.265 119.761 121.05 112.543 121.05 103.639C121.05 94.7354 128.265 87.5177 137.164 87.5177C146.064 87.5177 153.278 94.7354 153.278 103.639C153.268 112.538 146.059 119.752 137.164 119.761ZM195.361 109.668C195.289 109.724 195.198 109.755 195.107 109.755H192.569C192.48 109.755 192.393 109.725 192.322 109.671L190.983 108.635C190.77 108.471 190.508 108.381 190.238 108.381H188.065C187.811 108.381 187.564 108.459 187.358 108.609L185.885 109.66C185.816 109.709 185.734 109.736 185.65 109.736H184.079C183.971 109.736 183.869 109.693 183.792 109.616L182.915 108.737C182.686 108.51 182.377 108.381 182.054 108.379H180.559C180.237 108.379 179.926 108.51 179.698 108.737L178.821 109.616C178.744 109.691 178.642 109.734 178.534 109.736H177.906C177.783 109.736 177.666 109.68 177.589 109.583L176.993 108.838C176.762 108.548 176.412 108.379 176.042 108.379H174.384C174.014 108.379 173.664 108.548 173.433 108.838L172.837 109.583C172.76 109.68 172.643 109.736 172.521 109.736L164.556 109.752C163.747 109.755 162.953 109.977 162.259 110.394L160.398 111.515C159.827 111.857 159.175 112.037 158.511 112.039H154.901C154.855 100.937 152.915 96.8593 152.055 95.5962C151.99 95.4749 151.919 95.3581 151.851 95.2397H158.51C159.175 95.2397 159.827 95.4202 160.397 95.7633L162.255 96.8844C162.951 97.303 163.747 97.5234 164.559 97.5234H198.168C198.52 97.5234 198.855 97.6757 199.087 97.9405L201.668 100.904C201.779 101.035 201.869 101.18 201.937 101.335H157.473C157.248 101.335 157.066 101.517 157.066 101.742V104.992C157.066 105.217 157.248 105.399 157.473 105.399H200.723L195.358 109.666L195.361 109.668ZM201.666 104.164C201.631 104.312 201.575 104.454 201.502 104.587H158.374C161.332 103.33 164.455 102.509 167.647 102.148H202.1C202.095 102.252 202.082 102.355 202.058 102.457L201.665 104.164H201.666Z" fill="#553597"/>
<path d="M130.665 98.8973C128.048 98.8973 125.927 101.02 125.927 103.639C125.927 106.258 128.049 108.381 130.665 108.381C133.282 108.381 135.404 106.258 135.404 103.639C135.401 101.021 133.28 98.9003 130.665 98.8973ZM130.665 107.567C128.497 107.567 126.739 105.809 126.739 103.639C126.739 101.469 128.497 99.7108 130.665 99.7108C132.834 99.7108 134.592 101.469 134.592 103.639C134.589 105.807 132.834 107.566 130.665 107.567Z" fill="#553597"/>
</g>
</g>
<mask id="mask4_330_7608" style="mask-type:luminance" maskUnits="userSpaceOnUse" x="10" y="110" width="113" height="67">
<path d="M18.6766 110.275L10.0351 129.255L113.683 176.446L122.324 157.466L18.6766 110.275Z" fill="white"/>
</mask>
<g mask="url(#mask4_330_7608)">
<path d="M117.687 166.812C119.993 161.747 98.8021 147.142 70.3553 134.19C41.9085 121.238 16.9783 114.844 14.6723 119.909C12.3662 124.974 33.5575 139.579 62.0043 152.531C90.451 165.483 115.381 171.877 117.687 166.812Z" fill="#553597"/>
<path d="M118.005 166.943C115.301 172.883 87.3343 164.437 61.8595 152.842C36.3847 141.246 11.6509 125.699 14.3546 119.759C17.0582 113.819 45.0252 122.264 70.5 133.86C95.9748 145.457 120.71 161.002 118.005 166.941V166.943ZM14.9876 120.047C13.0412 124.322 31.529 138.263 62.1509 152.203C92.7727 166.143 115.427 170.929 117.372 166.655C119.318 162.38 100.83 148.439 70.2086 134.499C39.5868 120.559 16.9325 115.773 14.9876 120.047Z" fill="#553597"/>
<path d="M112.178 164.396C112.136 164.488 112.056 164.56 111.953 164.59C107.877 165.724 99.554 163.117 99.202 163.004C99.0186 162.947 98.9181 162.75 98.9772 162.565C99.0349 162.382 99.2316 162.278 99.415 162.336C99.4993 162.362 107.893 164.994 111.771 163.914C111.957 163.862 112.148 163.972 112.198 164.158C112.22 164.241 112.212 164.324 112.179 164.396H112.178Z" fill="white"/>
</g>
<mask id="mask5_330_7608" style="mask-type:luminance" maskUnits="userSpaceOnUse" x="174" y="86" width="15" height="35">
<path d="M188.716 86.5563H174.813V120.574H188.716V86.5563Z" fill="white"/>
</mask>
<g mask="url(#mask5_330_7608)">
<mask id="mask6_330_7608" style="mask-type:luminance" maskUnits="userSpaceOnUse" x="105" y="86" width="84" height="35">
<path d="M188.569 86.5563H105.596V120.574H188.569V86.5563Z" fill="white"/>
</mask>
<g mask="url(#mask6_330_7608)">
<path d="M187.627 100.551L185.038 97.575C184.728 97.2186 184.28 97.0145 183.808 97.0145H150.079C149.338 97.0145 148.611 96.8118 147.976 96.4288L146.111 95.3047C145.476 94.9216 144.749 94.719 144.008 94.719H136.61C131.732 86.96 121.495 84.6305 113.747 89.5158C105.998 94.401 103.672 104.651 108.55 112.408C113.427 120.167 123.664 122.497 131.412 117.611C133.511 116.288 135.287 114.51 136.61 112.408H144.008C144.749 112.408 145.476 112.206 146.111 111.822L147.979 110.695C148.612 110.314 149.335 110.113 150.073 110.111L158.067 110.095C158.314 110.095 158.548 109.981 158.702 109.789L159.299 109.04C159.455 108.847 159.688 108.734 159.937 108.734H161.599C161.846 108.734 162.082 108.847 162.237 109.04L162.834 109.789C162.99 109.983 163.223 110.095 163.472 110.095H164.1C164.316 110.095 164.525 110.009 164.677 109.855L165.559 108.972C165.711 108.819 165.92 108.733 166.136 108.733H167.634C167.85 108.733 168.058 108.819 168.211 108.972L169.092 109.855C169.244 110.009 169.453 110.095 169.669 110.095H171.246C171.416 110.095 171.581 110.042 171.719 109.943L173.196 108.887C173.334 108.788 173.5 108.734 173.67 108.734H175.848C176.029 108.734 176.205 108.795 176.347 108.904L177.688 109.944C177.832 110.055 178.006 110.114 178.187 110.114H180.734C180.918 110.114 181.097 110.052 181.241 109.937L186.944 105.398C187.329 105.091 187.599 104.663 187.71 104.182L188.105 102.468C188.262 101.787 188.083 101.074 187.626 100.548L187.627 100.551ZM116.06 107.919C113.658 107.919 111.712 105.97 111.712 103.565C111.712 101.16 113.658 99.2108 116.06 99.2108C118.462 99.2108 120.408 101.16 120.408 103.565C120.408 105.97 118.462 107.919 116.06 107.919Z" fill="#A78ED7"/>
<path d="M149.354 97.1698C149.354 97.1698 149.899 98.2584 152.073 98.2584H185.722C185.211 97.5041 184.368 97.0426 183.458 97.0145C181.972 97.0145 149.356 97.1698 149.356 97.1698H149.354Z" fill="white"/>
<path d="M187.935 100.283L185.345 97.3058C184.957 96.8621 184.398 96.6062 183.81 96.6062H150.08C149.413 96.6062 148.758 96.4243 148.186 96.0812L146.321 94.9541C145.623 94.5341 144.822 94.3122 144.008 94.3122H136.824C131.72 86.4305 121.201 84.1824 113.33 89.2939C105.458 94.4039 103.213 104.936 108.317 112.818C113.421 120.7 123.94 122.948 131.811 117.836C133.816 116.535 135.524 114.825 136.824 112.818H144.008C144.822 112.818 145.621 112.596 146.321 112.176L148.19 111.049C148.76 110.706 149.41 110.524 150.073 110.521L158.066 110.505C158.437 110.505 158.789 110.336 159.02 110.045L159.617 109.296C159.696 109.2 159.812 109.144 159.935 109.144H161.599C161.722 109.144 161.839 109.2 161.917 109.296L162.515 110.045C162.747 110.336 163.097 110.505 163.469 110.505H164.099C164.423 110.505 164.733 110.374 164.962 110.145L165.842 109.264C165.919 109.187 166.023 109.144 166.131 109.144H167.631C167.739 109.144 167.842 109.187 167.919 109.264L168.799 110.145C169.028 110.374 169.339 110.503 169.663 110.505H171.239C171.494 110.505 171.742 110.425 171.949 110.275L173.428 109.219C173.498 109.171 173.581 109.144 173.665 109.142H175.845C175.934 109.142 176.021 109.172 176.092 109.227L177.435 110.267C177.65 110.432 177.911 110.522 178.182 110.522H180.729C181.005 110.522 181.273 110.428 181.491 110.256L187.195 105.717C187.654 105.353 187.975 104.844 188.106 104.275L188.5 102.561C188.685 101.755 188.475 100.907 187.932 100.283H187.935ZM122.582 119.757C113.65 119.757 106.411 112.507 106.411 103.565C106.411 94.6228 113.65 87.3726 122.582 87.3726C131.514 87.3726 138.754 94.6228 138.754 103.565C138.744 112.504 131.51 119.747 122.582 119.757ZM180.988 109.62C180.915 109.676 180.825 109.707 180.732 109.707H178.185C178.096 109.707 178.009 109.678 177.938 109.623L176.595 108.583C176.381 108.418 176.119 108.328 175.848 108.328H173.668C173.414 108.328 173.165 108.407 172.958 108.557L171.479 109.613C171.41 109.662 171.327 109.688 171.242 109.69H169.666C169.558 109.69 169.454 109.647 169.377 109.57L168.497 108.688C168.268 108.459 167.957 108.33 167.634 108.329H166.134C165.81 108.329 165.499 108.459 165.27 108.688L164.39 109.57C164.313 109.647 164.21 109.69 164.102 109.69H163.472C163.349 109.69 163.232 109.633 163.154 109.537L162.556 108.789C162.324 108.498 161.973 108.329 161.602 108.329H159.938C159.567 108.329 159.216 108.498 158.984 108.789L158.387 109.537C158.31 109.635 158.193 109.691 158.069 109.69L150.076 109.706C149.264 109.709 148.467 109.932 147.772 110.351L145.905 111.478C145.333 111.821 144.678 112.003 144.01 112.003H140.387C140.34 100.852 138.395 96.7571 137.531 95.4881C137.466 95.3668 137.395 95.2485 137.327 95.1301H144.01C144.678 95.1301 145.333 95.3121 145.905 95.6552L147.77 96.7822C148.468 97.2023 149.268 97.4241 150.083 97.4241H183.813C184.166 97.4241 184.502 97.5765 184.734 97.8427L187.324 100.82C187.435 100.95 187.525 101.097 187.595 101.253H142.971C142.746 101.253 142.563 101.437 142.563 101.662V104.927C142.563 105.152 142.744 105.335 142.971 105.335H186.376L180.992 109.622L180.988 109.62ZM187.315 104.093C187.278 104.241 187.223 104.384 187.149 104.518H143.867C146.835 103.256 149.969 102.431 153.175 102.068H187.75C187.745 102.173 187.732 102.277 187.708 102.379L187.315 104.093Z" fill="#553597"/>
</g>
</g>
<mask id="mask7_330_7608" style="mask-type:luminance" maskUnits="userSpaceOnUse" x="36" y="43" width="113" height="118">
<path d="M148.34 43.2207H36.2294V160.36H148.34V43.2207Z" fill="white"/>
</mask>
<g mask="url(#mask7_330_7608)">
<path d="M90.285 75.2015C90.4052 74.5102 89.3256 73.7452 87.8738 73.4929C86.422 73.2406 85.1477 73.5964 85.0275 74.2877C84.9073 74.979 85.9869 75.744 87.4387 75.9963C88.8905 76.2487 90.1649 75.8928 90.285 75.2015Z" fill="white"/>
<path d="M88.3563 76.4027C88.0428 76.4027 87.7144 76.3746 87.3831 76.3169C86.6348 76.1868 85.95 75.922 85.456 75.573C84.8939 75.1736 84.6277 74.6989 84.7091 74.2359C84.7904 73.773 85.2016 73.4151 85.8657 73.2302C86.4499 73.0675 87.1835 73.0498 87.9319 73.1799C89.612 73.4728 90.7613 74.3676 90.606 75.2624C90.5246 75.7253 90.1134 76.0832 89.4494 76.2681C89.124 76.3583 88.7527 76.4042 88.3563 76.4042V76.4027ZM86.9572 73.7375C86.6229 73.7375 86.3109 73.776 86.0402 73.8499C85.6409 73.9608 85.382 74.1457 85.348 74.3439C85.3125 74.5421 85.4944 74.8039 85.8316 75.0435C86.2487 75.3393 86.8389 75.5641 87.4941 75.678C88.1493 75.7919 88.7823 75.78 89.2748 75.6425C89.6742 75.5316 89.933 75.3467 89.967 75.147C90.035 74.758 89.2512 74.0614 87.8209 73.8129C87.5237 73.7612 87.2323 73.736 86.9572 73.736V73.7375Z" fill="#6F46BE"/>
<path d="M89.9019 74.3706C88.7749 74.3277 87.8845 74.6693 87.7839 75.2417C87.7351 75.5198 87.8815 75.8111 88.1699 76.0744C89.297 76.1173 90.1873 75.7756 90.2879 75.2033C90.3367 74.9252 90.1903 74.6353 89.9019 74.3706Z" fill="#6F46BE"/>
<path d="M84.1456 69.0578C84.1456 69.0578 86.2265 71.9626 87.009 73.4771C87.4822 74.3911 87.8905 75.3377 88.2336 76.3094C88.2336 76.3094 89.2615 76.8951 89.899 76.944C90.5364 76.9928 91.0497 77.0416 91.0009 77.5296C90.952 78.0177 90.3649 78.5058 90.0454 78.6286C89.7259 78.7513 88.4303 78.9954 88.4303 78.9954C88.4303 78.9954 87.7943 82.6574 85.8346 84.0004C83.8749 85.3434 81.5262 85.2694 81.5262 85.2694L78.9068 85.123L76.9723 94.6198C76.9723 94.6198 78.7353 95.5723 79.6892 96.4509C80.6432 97.3294 83.165 100.187 84.1456 102.09C85.1261 103.994 86.2014 106.535 86.2014 106.535C86.2014 106.535 84.4147 106.437 84.3408 106.437C84.2668 106.437 81.2555 106.193 81.1579 106.168C81.0603 106.144 75.6012 104.655 75.5761 104.581C75.5524 104.507 70.3373 102.237 70.3373 102.237L65.8086 99.2581C65.8086 99.2581 61.9409 96.0116 61.1319 94.9851C60.3243 93.9602 59.4428 92.8125 59.4428 92.8125C59.4428 92.8125 62.5029 89.3944 63.8252 87.587C65.1474 85.7811 68.4767 80.8723 68.4767 80.8723C68.4767 80.8723 71.0724 77.5267 71.0473 76.5269C71.0221 75.527 70.117 75.1588 69.9705 74.6958C69.8241 74.2329 69.799 71.547 71.7572 70.5205C73.7154 69.4956 74.5969 70.9598 74.5969 70.9598C74.5969 70.9598 75.3069 72.6681 75.968 72.6932C76.6291 72.7184 79.9333 71.4479 79.9333 71.4479L84.1441 69.0548L84.1456 69.0578Z" fill="#EDE3FF"/>
<path d="M66.7625 91.7151C66.7625 91.7151 66.6161 92.6188 68.3776 92.9101C70.1391 93.2015 75.8201 94.6924 78.1703 96.8414C83.3025 101.534 84.6573 106.437 84.6573 106.437L86.1984 106.535C86.1984 106.535 84.2402 101.579 82.0852 99.0392C79.9303 96.4998 76.9944 94.0105 74.3011 93.3272C71.6093 92.6439 66.761 91.7151 66.761 91.7151H66.7625Z" fill="white"/>
<path d="M66.273 84.2445C66.273 84.2445 67.3305 85.4899 65.7834 87.7602C64.2171 90.0763 62.4822 92.2757 60.5935 94.3404L59.5286 92.9116L63.8267 87.5886L66.273 84.243V84.2445Z" fill="white"/>
<path d="M86.2014 106.536L88.698 111.883L90.705 115.692C90.705 115.692 90.2643 120.478 89.0899 123.847C88.2705 126.104 87.2707 128.291 86.1037 130.389C86.1037 130.389 82.7256 135.126 81.5498 136.37C80.374 137.615 77.7798 139.812 77.7798 139.812L83.1664 140.934L82.5792 148.553C82.5792 148.553 81.3546 157.001 81.257 157.196C81.1593 157.391 80.621 159.931 80.621 159.931L76.0182 158.465L56.3338 149.968L42.5271 142.839L36.6021 139.226C36.6021 139.226 37.63 130.875 39.4418 124.234C41.2551 117.594 45.7588 109.635 45.7588 109.635C45.7588 109.635 49.7729 103.531 52.9069 100.015C56.041 96.4997 59.4442 92.814 59.4442 92.814C59.4442 92.814 64.6593 100.066 72.5913 103.435C80.5234 106.804 86.2028 106.535 86.2028 106.535L86.2014 106.536Z" fill="white"/>
<path d="M44.2872 118.238C49.5393 105.436 57.1415 98.1488 60.5935 94.3403C59.394 93.0136 59.4428 92.814 59.4428 92.814C59.4428 92.814 56.0396 96.5012 52.9055 100.017C49.7715 103.532 45.7574 109.636 45.7574 109.636C45.7574 109.636 41.2523 117.597 39.4419 124.237C37.6316 130.878 36.5992 139.229 36.5992 139.229L38.9982 140.742C40.1001 133.271 40.9786 126.298 44.2843 118.238H44.2872Z" fill="#EDE3FF"/>
<path d="M77.3548 115.634C77.8257 115.446 77.5611 113.678 76.7638 111.687C75.9666 109.696 74.9385 108.234 74.4675 108.423C73.9966 108.611 74.2612 110.378 75.0585 112.37C75.8558 114.361 76.8839 115.823 77.3548 115.634Z" fill="#EDE3FF"/>
<path d="M81.1709 135.171C81.6763 135.128 81.9777 133.814 81.8441 132.235C81.7105 130.657 81.1924 129.413 80.6869 129.455C80.1815 129.498 79.8801 130.812 80.0137 132.39C80.1473 133.969 80.6654 135.213 81.1709 135.171Z" fill="#EDE3FF"/>
<path d="M72.8798 138.013C73.1238 138.062 73.3516 138.167 73.5468 138.319L73.5601 138.324C73.3723 138.167 73.5217 138.278 73.5882 138.333C73.6666 138.359 73.7465 138.395 73.8249 138.418C74.0364 138.485 74.2508 138.541 74.4623 138.608C74.7507 137.921 74.8809 136.719 74.7655 135.369C74.591 133.304 73.9136 131.676 73.2525 131.732C72.5913 131.788 72.1964 133.507 72.3725 135.571C72.4331 136.404 72.6032 137.226 72.8798 138.016V138.013Z" fill="#EDE3FF"/>
<path d="M60.2432 117.884C60.9758 116.87 61.2997 115.853 60.9667 115.613C60.6337 115.372 59.7699 115.999 59.0373 117.012C58.3047 118.026 57.9808 119.042 58.3137 119.283C58.6467 119.524 59.5106 118.897 60.2432 117.884Z" fill="#EDE3FF"/>
<path d="M51.787 110.938C52.1306 109.878 52.0923 108.915 51.7014 108.788C51.3106 108.662 50.7151 109.419 50.3715 110.48C50.0279 111.541 50.0662 112.503 50.4571 112.63C50.8479 112.756 51.4434 111.999 51.787 110.938Z" fill="#EDE3FF"/>
<path d="M67.6865 129.028C68.0301 127.968 67.9918 127.005 67.6009 126.879C67.2101 126.752 66.6146 127.509 66.271 128.57C65.9274 129.631 65.9657 130.593 66.3565 130.72C66.7474 130.846 67.3428 130.089 67.6865 129.028Z" fill="#EDE3FF"/>
<path d="M45.4426 126.01C46.7668 124.581 47.5454 123.15 47.1817 122.813C46.818 122.476 45.4498 123.361 44.1256 124.79C42.8014 126.219 42.0228 127.651 42.3865 127.988C42.7502 128.325 44.1184 127.439 45.4426 126.01Z" fill="#EDE3FF"/>
<path d="M56.8047 128.359C57.9466 127.536 58.6154 126.513 58.2983 126.073C57.9813 125.633 56.7985 125.943 55.6566 126.766C54.5147 127.588 53.8459 128.612 54.163 129.052C54.48 129.492 55.6628 129.182 56.8047 128.359Z" fill="#EDE3FF"/>
<path d="M43.543 141.095C43.9827 140.992 44.0785 139.799 43.757 138.432C43.4354 137.064 42.8183 136.039 42.3786 136.142C41.9389 136.246 41.8431 137.438 42.1646 138.806C42.4861 140.174 43.1033 141.199 43.543 141.095Z" fill="#EDE3FF"/>
<path d="M51.3439 141.89C51.8697 141.753 52.0104 140.541 51.6582 139.182C51.3059 137.822 50.594 136.831 50.0682 136.967C49.5424 137.104 49.4017 138.316 49.754 139.675C50.1062 141.034 50.8181 142.026 51.3439 141.89Z" fill="#EDE3FF"/>
<path d="M55.3954 146.637C56.7135 146.141 57.6541 145.399 57.4962 144.979C57.3383 144.559 56.1418 144.621 54.8237 145.117C53.5056 145.612 52.565 146.355 52.7229 146.774C52.8808 147.194 54.0773 147.132 55.3954 146.637Z" fill="#EDE3FF"/>
<path d="M49.4121 131.507C50.6049 130.326 51.316 129.11 51.0004 128.792C50.6849 128.473 49.4621 129.172 48.2694 130.353C47.0767 131.534 46.3655 132.75 46.6811 133.069C46.9966 133.388 48.2194 132.688 49.4121 131.507Z" fill="#EDE3FF"/>
<path d="M61.097 145.127C61.5952 144.911 61.3258 143.185 60.4953 141.272C59.6647 139.359 58.5875 137.984 58.0893 138.2C57.591 138.416 57.8604 140.142 58.6909 142.055C59.5215 143.968 60.5987 145.344 61.097 145.127Z" fill="#EDE3FF"/>
<path d="M67.888 147.771C68.8459 146.113 69.2412 144.549 68.7709 144.277C68.3005 144.005 67.1427 145.129 66.1848 146.787C65.2269 148.445 64.8316 150.009 65.3019 150.281C65.7723 150.552 66.9301 149.429 67.888 147.771Z" fill="#EDE3FF"/>
<path d="M81.1328 150.981C81.5375 150.62 80.8318 149.168 79.5566 147.739C78.2813 146.31 76.9194 145.444 76.5147 145.805C76.11 146.166 76.8157 147.617 78.091 149.047C79.3662 150.476 80.7281 151.342 81.1328 150.981Z" fill="#EDE3FF"/>
<path d="M74.4371 156.174C74.9133 155.912 74.6296 154.48 73.8033 152.974C72.9771 151.468 71.9212 150.459 71.4449 150.72C70.9687 150.981 71.2525 152.414 72.0787 153.92C72.905 155.426 73.9608 156.435 74.4371 156.174Z" fill="#EDE3FF"/>
<path d="M73.4474 146.186C73.5517 145.599 73.3624 145.074 73.0246 145.014C72.6868 144.954 72.3284 145.382 72.2242 145.969C72.1199 146.556 72.3092 147.08 72.647 147.14C72.9848 147.2 73.3432 146.773 73.4474 146.186Z" fill="#EDE3FF"/>
<path d="M78.4097 153.329C78.9701 152.627 79.2077 151.886 78.9403 151.672C78.6729 151.458 78.0019 151.854 77.4414 152.555C76.881 153.256 76.6434 153.998 76.9108 154.211C77.1782 154.425 77.8492 154.03 78.4097 153.329Z" fill="#EDE3FF"/>
<path d="M57.7809 110.736C58.2736 110.34 58.509 109.815 58.3068 109.563C58.1046 109.312 57.5413 109.429 57.0486 109.825C56.5559 110.222 56.3205 110.747 56.5227 110.998C56.7249 111.25 57.2882 111.132 57.7809 110.736Z" fill="#EDE3FF"/>
<path d="M58.4404 100.08C58.933 99.6835 59.1685 99.1584 58.9663 98.907C58.764 98.6556 58.2007 98.773 57.7081 99.1692C57.2154 99.5655 56.98 100.091 57.1822 100.342C57.3844 100.593 57.9477 100.476 58.4404 100.08Z" fill="#EDE3FF"/>
<path d="M49.3172 118.939C49.7799 118.508 49.9767 117.967 49.7569 117.731C49.537 117.495 48.9836 117.653 48.5209 118.084C48.0583 118.514 47.8614 119.055 48.0813 119.291C48.3012 119.527 48.8545 119.369 49.3172 118.939Z" fill="#EDE3FF"/>
<path d="M55.7953 134.643C56.3477 134.129 56.5825 133.483 56.3197 133.201C56.057 132.919 55.3962 133.107 54.8438 133.621C54.2915 134.136 54.0567 134.781 54.3194 135.064C54.5822 135.346 55.243 135.158 55.7953 134.643Z" fill="#EDE3FF"/>
<path d="M54.9656 122.978C55.4497 122.827 55.323 121.045 54.6825 118.999C54.042 116.953 53.1303 115.417 52.6462 115.568C52.1621 115.72 52.2889 117.501 52.9294 119.548C53.5699 121.594 54.4815 123.13 54.9656 122.978Z" fill="#EDE3FF"/>
<path d="M65.4949 111.566C67.2237 110.639 68.4311 109.525 68.1916 109.079C67.9522 108.632 66.3565 109.023 64.6277 109.95C62.8988 110.878 61.6914 111.992 61.9309 112.438C62.1704 112.885 63.766 112.494 65.4949 111.566Z" fill="#EDE3FF"/>
<path d="M59.4021 105.089C61.0108 104.226 62.1207 103.164 61.8812 102.718C61.6418 102.272 60.1436 102.61 58.5349 103.473C56.9263 104.336 55.8163 105.398 56.0558 105.844C56.2953 106.29 57.7935 105.952 59.4021 105.089Z" fill="#EDE3FF"/>
<path d="M66.5302 122.194C67.1295 120.558 67.0969 119.042 66.4572 118.808C65.8175 118.573 64.8131 119.709 64.2137 121.345C63.6144 122.981 63.6471 124.498 64.2868 124.732C64.9265 124.966 65.9309 123.83 66.5302 122.194Z" fill="#EDE3FF"/>
<path d="M78.121 125.022C78.2723 124.359 77.0154 123.506 75.3135 123.118C73.6116 122.73 72.1093 122.953 71.958 123.616C71.8066 124.28 73.0636 125.132 74.7655 125.52C76.4674 125.909 77.9697 125.686 78.121 125.022Z" fill="#EDE3FF"/>
<path d="M89.8869 116.123C90.1857 115.512 89.1566 114.395 87.5883 113.628C86.0201 112.862 84.5065 112.736 84.2077 113.347C83.9089 113.958 84.938 115.075 86.5062 115.842C88.0745 116.609 89.5881 116.734 89.8869 116.123Z" fill="#EDE3FF"/>
<path d="M69.1393 101.66C68.6128 101.367 68.1424 100.984 67.6351 100.662C67.5715 100.62 67.5094 100.574 67.4517 100.524C67.2299 100.873 67.0376 101.24 66.8749 101.62C66.1871 103.222 66.1383 104.736 66.7655 105.004C67.3926 105.272 68.456 104.191 69.1437 102.59C69.2532 102.336 69.3478 102.077 69.4307 101.814C69.3316 101.767 69.2339 101.716 69.1378 101.663L69.1393 101.66Z" fill="#EDE3FF"/>
<path d="M83.0474 122.344C83.6358 122.294 83.9925 120.846 83.844 119.111C83.6956 117.376 83.0982 116.01 82.5098 116.06C81.9213 116.111 81.5647 117.558 81.7131 119.293C81.8616 121.029 82.4589 122.394 83.0474 122.344Z" fill="#EDE3FF"/>
<path d="M83.7491 106.454C83.0865 106.417 82.4343 106.282 81.8116 106.054C81.4404 107.211 81.433 108.155 81.8515 108.348C82.3248 108.567 83.1856 107.749 83.8867 106.464C83.8408 106.461 83.795 106.458 83.7491 106.455V106.454Z" fill="#EDE3FF"/>
<path d="M72.31 118.42C72.707 118.314 72.7385 117.14 72.3803 115.796C72.0221 114.453 71.4099 113.45 71.0129 113.556C70.6159 113.662 70.5844 114.836 70.9426 116.18C71.3008 117.523 71.913 118.526 72.31 118.42Z" fill="#EDE3FF"/>
<path d="M75.9679 72.6223C76.8125 72.8175 79.3461 72.183 85.1246 68.4233C90.9017 64.6636 93.4486 59.6335 93.7429 55.1905C94.0372 50.7475 92.9102 50.1603 91.4904 49.6234C90.0705 49.0865 88.2572 49.8186 86.79 48.2568C85.3228 46.6949 84.8806 44.8875 81.8929 45.0325C78.9068 45.1774 76.9485 46.7408 75.7239 45.7158C74.4993 44.6908 72.3946 43.0787 69.2606 43.6659C66.1265 44.253 64.4138 49.3306 62.6996 49.6722C60.9854 50.0139 57.6073 49.4755 56.4329 52.0653C55.2571 54.6536 57.1665 57.9252 56.041 59.4885C54.9154 61.0519 52.7117 62.8578 53.3965 65.7389C54.0813 68.6201 57.4121 71.695 56.3338 73.1119C55.2556 74.5288 52.6126 78.6301 56.5291 81.2169C60.4455 83.8038 67.4369 82.0615 69.1126 80.0944C70.6301 78.3121 71.732 76.3095 70.6789 75.5286C69.8344 74.9015 69.62 73.7508 70.1657 72.3546C70.6316 71.2069 72.124 69.7589 73.6666 70.3032C75.2565 70.8652 74.5969 72.3058 75.9679 72.6238V72.6223Z" fill="#6F46BE"/>
<path d="M74.0231 50.3333C74.0305 50.1632 74.0468 49.9902 74.066 49.8186C74.1074 49.4725 74.174 49.1309 74.2657 48.7936C74.4535 48.1029 74.7227 47.4374 75.0702 46.8103C75.2433 46.4893 75.4341 46.1787 75.6411 45.8785C75.6752 45.8297 75.7092 45.7809 75.7447 45.732C75.7388 45.7276 75.7314 45.7232 75.7255 45.7173C75.4637 45.4984 75.1619 45.2528 74.8188 45.0073C74.7789 45.0502 74.7375 45.0931 74.699 45.1375C74.4254 45.4451 74.1695 45.769 73.9329 46.1062C73.4522 46.7925 73.0632 47.5365 72.7748 48.3233C72.6299 48.7241 72.5145 49.1368 72.4331 49.5553C72.3932 49.7668 72.3577 49.9783 72.3355 50.1928C72.3207 50.2993 72.3133 50.4073 72.3059 50.5152L72.2941 50.6779L72.2852 50.8288C72.2645 51.2266 72.2571 51.6186 72.2468 52.0061L72.2157 53.1568C72.1995 53.8963 72.1447 54.6343 72.053 55.3664C72.0087 55.7096 71.9421 56.0498 71.8563 56.3855C71.7779 56.6887 71.667 56.9845 71.528 57.2655C71.4111 57.5007 71.2514 57.7122 71.0576 57.8897L70.9881 57.9444L70.9541 57.9725C70.9423 57.9814 70.923 57.9932 70.9068 58.0065L70.8092 58.0745L70.7056 58.1426C70.5681 58.2328 70.4157 58.3186 70.2619 58.4059C69.6348 58.7505 68.916 59.0759 68.1987 59.4737C67.4488 59.8745 66.7478 60.3582 66.1088 60.9172C65.4566 61.4985 64.896 62.1759 64.4464 62.9243C64.2275 63.2955 64.0323 63.6786 63.8607 64.0735C63.8178 64.1711 63.7808 64.2702 63.7409 64.3693L63.6832 64.5172L63.6344 64.6459L63.5368 64.9017L63.4332 65.1547C63.17 65.8113 62.8357 66.437 62.4349 67.0197C62.0504 67.5729 61.5711 68.0521 61.0195 68.4396C60.7399 68.6333 60.4426 68.8005 60.1321 68.938C59.8126 69.083 59.4828 69.2072 59.147 69.3093C58.4415 69.5119 57.7212 69.6553 56.9936 69.7382C56.4922 69.7988 55.9834 69.8402 55.4702 69.8713C55.7379 70.315 55.9834 70.7395 56.1727 71.1344C56.4833 71.1344 56.7939 71.1285 57.1074 71.1151C57.9283 71.0856 58.7447 70.9806 59.5449 70.8001C60.3879 70.6138 61.194 70.2898 61.9306 69.8432C62.6804 69.3788 63.3371 68.7798 63.8681 68.0772C64.3724 67.3998 64.7984 66.6692 65.1415 65.8986L65.2672 65.6176L65.3856 65.3366L65.4447 65.1961L65.4965 65.0763C65.532 64.9964 65.5645 64.9151 65.6 64.8367C65.745 64.5246 65.9077 64.2199 66.0896 63.9285C66.4519 63.3547 66.8971 62.837 67.4104 62.3918C67.9472 61.9378 68.5329 61.5443 69.1571 61.2175C69.478 61.043 69.8138 60.8758 70.1599 60.7028C70.506 60.5297 70.8639 60.3523 71.2307 60.1496C71.4141 60.0461 71.6004 59.9411 71.7868 59.8183L71.9273 59.7266L72.0678 59.629C72.0915 59.6113 72.1137 59.5979 72.1388 59.5772L72.2187 59.5151C72.2704 59.4722 72.3237 59.4293 72.3755 59.3864C72.757 59.0418 73.0706 58.6277 73.2984 58.1662C73.5025 57.7521 73.6578 57.3173 73.7643 56.8677C73.8634 56.4506 73.9358 56.029 73.9802 55.6031C74.0586 54.797 74.0897 53.9865 74.0734 53.1775C74.0704 52.7826 74.0601 52.3921 74.0482 52.0046L74.0201 50.8584C74.0201 50.8125 74.0187 50.7622 74.0187 50.7193V50.5907C74.0201 50.5034 74.0201 50.4176 74.0275 50.3333H74.0231Z" fill="white"/>
<path d="M61.8699 59.8198C61.9793 59.7489 62.0888 59.6779 62.2012 59.6113L62.5517 59.3968C62.6833 59.3185 62.812 59.2297 62.9407 59.1424C63.198 58.9605 63.4421 58.7594 63.6713 58.542C63.9035 58.3186 64.1165 58.0761 64.3058 57.8158C64.4966 57.5525 64.6652 57.273 64.8043 56.9801C64.9418 56.6887 65.0527 56.3855 65.137 56.0749C65.2938 55.4745 65.3693 54.8562 65.3604 54.2365C65.3604 53.9377 65.3426 53.6434 65.319 53.355L65.2997 53.142C65.2923 53.071 65.2864 53.0015 65.2776 52.9231C65.2598 52.7693 65.2361 52.6214 65.2125 52.4735C65.1089 51.9056 64.9699 51.342 64.7998 50.7904C64.7155 50.5197 64.6283 50.2505 64.5366 49.9843C64.4449 49.7181 64.3472 49.4548 64.2467 49.1945C64.1772 49.0096 64.1047 48.8262 64.0307 48.6428C63.7556 49.0037 63.4155 49.3128 63.0279 49.5509C63.0309 49.5628 63.0353 49.5746 63.0383 49.5864C63.1803 50.1085 63.3134 50.6321 63.4332 51.1527C63.553 51.6734 63.6536 52.1925 63.7172 52.6954C63.7305 52.8196 63.7453 52.9453 63.7512 53.0651C63.7556 53.1228 63.7601 53.1908 63.7645 53.2574L63.7749 53.4541C63.7867 53.7159 63.7896 53.9718 63.7837 54.2232C63.7793 54.7054 63.7127 55.1846 63.5855 55.649C63.4628 56.0868 63.2631 56.5009 62.9969 56.8692C62.7188 57.2419 62.3831 57.5688 62.003 57.8379C61.9039 57.906 61.8063 57.9755 61.7013 58.0391L61.3493 58.2595C61.225 58.3349 61.1052 58.4162 60.9854 58.4976L60.805 58.6204L60.629 58.7461C60.1586 59.0833 59.7075 59.4412 59.2757 59.8213L58.9547 60.1097L58.6412 60.4055L58.335 60.7073C58.2344 60.8093 58.1368 60.9158 58.0377 61.0193C57.6413 61.4423 57.2701 61.886 56.924 62.349C56.8382 62.4688 56.7524 62.5856 56.6726 62.7113L56.4448 63.0619C56.3072 63.2734 56.1579 63.476 55.9996 63.6727C55.6831 64.0617 55.3252 64.4137 54.9303 64.7228C54.5294 65.0319 54.0961 65.2937 53.6361 65.5038C53.5474 65.5437 53.4586 65.5821 53.3684 65.6191C53.3773 65.6591 53.3862 65.699 53.395 65.7389C53.4719 66.0495 53.5696 66.3542 53.6908 66.6515C53.8121 66.6145 53.9334 66.5746 54.0532 66.5317C54.3342 66.4311 54.6093 66.3143 54.8755 66.1811C55.1432 66.0451 55.4036 65.8927 55.652 65.7256C55.902 65.557 56.1416 65.3751 56.3694 65.1784C56.5957 64.9802 56.8101 64.7687 57.0113 64.5468C57.2109 64.325 57.4002 64.0928 57.5777 63.8517L57.7049 63.6772L57.8188 63.5233C57.8942 63.4213 57.9785 63.3222 58.0569 63.2201C58.7269 62.4096 59.4724 61.6642 60.2829 60.9957C60.6881 60.657 61.1082 60.339 61.54 60.0432L61.7013 59.9322L61.8654 59.8272L61.8699 59.8198Z" fill="white"/>
<path d="M86.6569 48.1118C86.4173 47.8441 86.2029 47.5704 86.0002 47.3027C85.8997 47.3811 85.7991 47.458 85.6985 47.5379C85.1794 47.9594 84.6706 48.3972 84.1914 48.8705C83.7018 49.3438 83.2433 49.8481 82.8188 50.3791C82.3766 50.9278 81.995 51.5224 81.6815 52.1525C81.5173 52.4853 81.3842 52.8328 81.2821 53.1893C81.2304 53.3756 81.189 53.5649 81.1594 53.7557C81.1416 53.8519 81.1342 53.951 81.1224 54.0501C81.115 54.1506 81.1091 54.2542 81.1061 54.3355C81.0869 55.0218 81.115 55.7095 81.1875 56.3928C81.257 57.0673 81.359 57.7299 81.4655 58.3747C81.5173 58.6972 81.5705 59.0152 81.6149 59.3272C81.6593 59.6393 81.6977 59.9425 81.714 60.2265C81.7362 60.4661 81.7214 60.7057 81.6711 60.9409C81.6578 60.9956 81.6356 61.0474 81.6046 61.0947C81.6001 61.1006 81.5957 61.1065 81.5913 61.1124C81.5883 61.1154 81.5868 61.1169 81.5839 61.1198C81.5809 61.1228 81.5765 61.1272 81.572 61.1302L81.5558 61.1435C81.5114 61.179 81.4596 61.2174 81.4049 61.2574C81.1801 61.4142 80.9065 61.5724 80.6299 61.7307C80.3518 61.8889 80.0619 62.0501 79.7706 62.2187C79.1538 62.5589 78.5726 62.9583 78.0357 63.4123C77.7369 63.6697 77.4736 63.967 77.2547 64.2953C77.1349 64.4787 77.0358 64.6754 76.9604 64.881C76.8805 65.1014 76.8332 65.3306 76.8199 65.5643C76.8155 65.6235 76.8169 65.6826 76.8169 65.7403C76.8169 65.7699 76.8199 65.7995 76.8214 65.8276C76.8229 65.8572 76.8243 65.8897 76.8273 65.9089C76.8362 66.0021 76.8465 66.0938 76.8598 66.184C76.885 66.3645 76.9175 66.5375 76.953 66.7076C77.024 67.0478 77.1054 67.3717 77.1867 67.6897C77.2681 68.0077 77.3479 68.3183 77.4189 68.6274C77.4899 68.9365 77.5579 69.2397 77.6067 69.5414C77.7132 70.1271 77.7354 70.7261 77.6718 71.3177C77.6215 71.72 77.5091 72.1134 77.339 72.4832C77.7798 72.359 78.2132 72.2081 78.6362 72.0321C78.6909 71.8591 78.7367 71.6816 78.7722 71.5041C78.9039 70.803 78.9275 70.0857 78.8403 69.3787C78.8048 69.0341 78.753 68.6954 78.6938 68.3641C78.6347 68.0328 78.5652 67.7074 78.5001 67.3894C78.435 67.0714 78.3714 66.7579 78.3241 66.4562C78.3004 66.3053 78.2797 66.1559 78.2664 66.0125C78.259 65.94 78.2546 65.8705 78.2501 65.7995C78.2486 65.7788 78.2501 65.7729 78.2501 65.7595V65.7255C78.2516 65.7019 78.2501 65.6797 78.2546 65.6575C78.2797 65.4578 78.3566 65.267 78.4794 65.1058C78.6332 64.8973 78.8151 64.7094 79.0177 64.5467C79.2455 64.3619 79.4836 64.1918 79.7336 64.0365C79.9909 63.8723 80.2601 63.717 80.5382 63.5632C80.8162 63.4094 81.1017 63.257 81.3945 63.0973C81.6874 62.9376 81.9847 62.7749 82.3027 62.5634C82.3825 62.5101 82.4639 62.4524 82.5467 62.3874L82.5778 62.3622C82.5881 62.3548 82.5985 62.3474 82.6133 62.3326C82.6414 62.309 82.6695 62.2838 82.6961 62.2587C82.7493 62.2069 82.8011 62.1522 82.8484 62.096C83.017 61.883 83.1428 61.639 83.2137 61.3772C83.2729 61.1642 83.3084 60.9453 83.3202 60.7264C83.3321 60.5341 83.3321 60.3404 83.3217 60.1481C83.304 59.7798 83.2626 59.4367 83.2152 59.1009C83.1679 58.7652 83.1132 58.4398 83.0614 58.1189C82.9579 57.4755 82.8558 56.8469 82.7848 56.2228C82.7109 55.6075 82.6754 54.9892 82.6754 54.3695C82.6754 54.2882 82.6783 54.229 82.6798 54.1669C82.6857 54.1033 82.6872 54.0382 82.6976 53.9746C82.7138 53.843 82.7375 53.7114 82.77 53.5812C82.8381 53.3076 82.9298 53.0399 83.0437 52.7811C83.1635 52.5089 83.2995 52.2442 83.4474 51.9868C83.5998 51.725 83.7669 51.4677 83.9429 51.2133C84.3038 50.7001 84.6928 50.2075 85.1069 49.7357C85.5269 49.261 85.9633 48.7921 86.4203 48.344C86.4987 48.2656 86.5785 48.1887 86.6569 48.1118Z" fill="white"/>
<path d="M92.7787 54.7438C92.7062 54.485 92.6248 54.2587 92.5509 54.0398C92.4769 53.8209 92.4059 53.6124 92.3438 53.4038C92.2817 53.1953 92.2284 52.9897 92.1811 52.7826C92.1575 52.6791 92.1368 52.5756 92.119 52.4706C92.1013 52.3833 92.0894 52.2946 92.082 52.2058C92.0628 51.8538 92.1382 51.5018 92.298 51.1868C92.4414 50.8954 92.6189 50.6218 92.8289 50.3733C92.5405 50.1086 92.2048 49.9015 91.8395 49.761C91.5925 50.0035 91.3736 50.2727 91.1872 50.5641C91.0349 50.8067 90.9121 51.0655 90.8219 51.3362C90.7287 51.6231 90.6784 51.9218 90.6725 52.2221C90.6696 52.367 90.6769 52.512 90.6947 52.6569C90.7065 52.7856 90.7228 52.9128 90.742 53.0385C90.7775 53.2914 90.8293 53.5429 90.887 53.7854C90.9447 54.028 91.0112 54.2691 91.0778 54.4968C91.1443 54.7246 91.2094 54.9435 91.2567 55.1373C91.2804 55.2334 91.2981 55.3221 91.3085 55.4005C91.3174 55.4612 91.3203 55.5233 91.3159 55.5839C91.3129 55.6165 91.3055 55.649 91.2922 55.6801C91.2774 55.7126 91.2582 55.7437 91.2345 55.7703C91.2153 55.7895 91.1976 55.8132 91.1857 55.8206C91.168 55.8354 91.1428 55.8575 91.1118 55.8797C91.0497 55.9271 90.9698 55.9803 90.884 56.0335C90.7125 56.1415 90.5157 56.2524 90.3161 56.3634C89.9138 56.5852 89.4893 56.8115 89.0692 57.063C88.6315 57.3173 88.2129 57.6043 87.8165 57.9193C87.3743 58.2624 86.9956 58.6795 86.6954 59.1513C86.5312 59.419 86.4085 59.7104 86.3345 60.0151C86.2591 60.3316 86.2428 60.66 86.2857 60.9824C86.2961 61.0682 86.3079 61.1258 86.3197 61.1954C86.3316 61.2649 86.3464 61.3314 86.3626 61.398C86.3937 61.5326 86.4321 61.6657 86.475 61.7958C86.5608 62.0547 86.6673 62.3061 86.793 62.5472C87.04 63.0057 87.3373 63.4346 87.6804 63.8251C87.8431 64.0159 88.0103 64.1963 88.1774 64.3708C88.3445 64.5454 88.5131 64.711 88.6788 64.8767C88.7971 64.995 88.911 65.1118 89.0234 65.2287C89.3088 64.9329 89.5795 64.6341 89.8369 64.3324C89.7555 64.2348 89.6742 64.1371 89.5928 64.0425C89.4405 63.8621 89.2896 63.686 89.1447 63.5086C88.9997 63.3311 88.8577 63.161 88.7276 62.9865C88.4717 62.6552 88.2543 62.2972 88.0768 61.9186C87.9955 61.7411 87.9274 61.5562 87.8757 61.3669C87.8505 61.2738 87.8283 61.1806 87.8106 61.0859C87.8002 61.0386 87.7943 60.9913 87.7869 60.9439C87.7825 60.8981 87.7721 60.8434 87.7721 60.8108C87.7514 60.5091 87.8357 60.2103 88.0117 59.9648C88.2306 59.6542 88.4983 59.3806 88.806 59.1543C89.1506 58.894 89.5115 58.6559 89.8872 58.4414C90.2747 58.2166 90.6784 58.0021 91.0985 57.7699C91.3085 57.6531 91.5215 57.5348 91.7463 57.3943C91.8676 57.3188 91.9844 57.2375 92.0983 57.1502C92.1604 57.1029 92.2255 57.0482 92.2935 56.9831C92.3616 56.918 92.4252 56.8485 92.4843 56.776C92.61 56.6207 92.7106 56.4477 92.7846 56.2643C92.857 56.0764 92.8999 55.8783 92.9088 55.6771C92.9162 55.5041 92.9058 55.331 92.8777 55.1609C92.8541 55.0204 92.8215 54.8799 92.7831 54.7409L92.7787 54.7438Z" fill="white"/>
<path d="M61.8625 81.4433C61.9956 81.322 62.1391 81.211 62.2899 81.1134C62.4482 81.0069 62.6168 80.9049 62.7958 80.8028C63.1537 80.5972 63.5471 80.4005 63.9538 80.1343C64.1698 79.9938 64.3739 79.8326 64.5617 79.6551C64.7777 79.4525 64.9581 79.2144 65.0942 78.9526C65.1666 78.8121 65.2243 78.6656 65.2672 78.5148L65.2968 78.4009L65.319 78.2974C65.3323 78.2278 65.3456 78.1583 65.353 78.0859C65.3944 77.7827 65.3796 77.4735 65.3101 77.1733C65.2362 76.8597 65.0986 76.5654 64.9048 76.3081C64.7229 76.0685 64.5026 75.8584 64.2541 75.6883C63.8133 75.394 63.3208 75.184 62.8031 75.0686C62.3328 74.9577 61.8536 74.8926 61.3714 74.8749C60.907 74.8542 60.4426 74.8631 59.9797 74.9015C59.7519 74.9193 59.5241 74.9444 59.2978 74.974C59.1854 74.9888 59.073 75.005 58.9606 75.0228L58.7935 75.0494L58.7092 75.0642L58.6205 75.0805C58.1457 75.1677 57.6813 75.3053 57.2346 75.4902C56.3442 75.8584 55.5455 76.419 54.8977 77.1304C54.741 77.302 54.5931 77.4809 54.457 77.6688C54.4511 78.179 54.5457 78.6849 54.735 79.1582C54.8075 79.0635 54.8815 78.9703 54.9569 78.8786C55.2098 78.5739 55.4879 78.2914 55.7896 78.0356C56.3723 77.5327 57.0468 77.1452 57.7759 76.8938C58.1368 76.771 58.5095 76.6823 58.8867 76.6305L58.9577 76.6201L59.0346 76.6098L59.1869 76.5891C59.289 76.5758 59.391 76.5639 59.4916 76.5536C59.6957 76.5329 59.8983 76.5136 60.0995 76.5018C60.4988 76.4752 60.8982 76.4708 61.299 76.4855C61.6806 76.5003 62.0607 76.5491 62.4334 76.6305C62.7617 76.6985 63.0768 76.8228 63.3637 76.9958C63.4746 77.0653 63.5737 77.1526 63.6565 77.2546C63.7275 77.3404 63.7793 77.4395 63.8089 77.546C63.8414 77.6673 63.8518 77.793 63.8385 77.9172C63.837 77.9527 63.8311 77.9882 63.8266 78.0237L63.8178 78.0785L63.8089 78.1214C63.7956 78.1776 63.7778 78.2338 63.7527 78.287C63.695 78.4098 63.6166 78.5222 63.522 78.6213C63.4022 78.747 63.2705 78.8609 63.1315 78.9629C62.8298 79.1907 62.4659 79.4111 62.0888 79.661C61.9009 79.7867 61.7087 79.9184 61.5179 80.0692C61.3197 80.2245 61.1363 80.3961 60.9677 80.5825C60.7872 80.7806 60.6334 81.0025 60.5107 81.2406C60.3864 81.4847 60.3006 81.745 60.2577 82.0156C60.2341 82.1576 60.2222 82.3011 60.2193 82.446C60.5743 82.4845 60.9322 82.5082 61.2916 82.5155C61.3034 82.4253 61.3226 82.3351 61.3478 82.2464C61.441 81.9358 61.6184 81.6577 61.861 81.4433H61.8625Z" fill="white"/>
<path d="M61.577 82.8557C59.7061 82.8557 57.8351 82.4667 56.3502 81.4876C55.127 80.68 54.4023 79.6551 54.1952 78.4408C53.8255 76.2725 55.2143 74.0496 56.0751 72.9166C56.5587 72.2792 55.7497 70.9569 54.8933 69.5577C54.1863 68.4026 53.3847 67.0922 53.08 65.8128C52.4855 63.3177 53.9157 61.5873 55.0649 60.197C55.3252 59.8819 55.5707 59.5861 55.7763 59.2992C56.2451 58.6499 56.0913 57.5806 55.9153 56.3411C55.7157 54.942 55.4894 53.355 56.1357 51.9322C57.1178 49.7683 59.5138 49.6116 61.262 49.4962C61.7738 49.4622 62.2574 49.4311 62.6346 49.3557C63.2365 49.2359 63.9583 48.2464 64.7229 47.1978C65.8559 45.6433 67.2669 43.7102 69.1985 43.3493C72.6269 42.7074 74.9416 44.6435 75.9295 45.4703C76.5078 45.9554 77.3701 45.7054 78.5637 45.3593C79.4644 45.099 80.584 44.7751 81.8738 44.7115C84.3408 44.5917 85.2164 45.7439 86.1452 46.9656C86.4144 47.3205 86.6939 47.6873 87.0223 48.0364C87.8757 48.943 88.84 48.9948 89.8605 49.048C90.4433 49.0791 91.0452 49.1102 91.6013 49.3217C93.2297 49.9369 94.3582 50.7208 94.0624 55.2112C93.7208 60.3774 90.5276 65.2907 85.2992 68.694C80.6743 71.7038 77.2459 73.2494 75.8926 72.9373C75.0628 72.7451 74.8247 72.1978 74.6147 71.7142C74.4121 71.2498 74.2375 70.8475 73.5572 70.6079C72.2394 70.1434 70.8934 71.4169 70.4645 72.4759C69.9868 73.7035 70.1332 74.7225 70.8713 75.2698C71.1804 75.499 71.3608 75.8185 71.4067 76.2163C71.5546 77.506 70.1865 79.3312 69.3582 80.3029C68.2356 81.6222 64.9078 82.8542 61.5756 82.8542L61.577 82.8557ZM70.5695 43.8655C70.1732 43.8655 69.7561 43.9025 69.3198 43.9838C67.6411 44.2974 66.3706 46.0412 65.248 47.5779C64.3709 48.7803 63.6122 49.8201 62.7632 49.9887C62.3447 50.073 61.8403 50.1055 61.3064 50.141C59.6321 50.2505 57.5496 50.388 56.7273 52.1984C56.1594 53.4511 56.3709 54.9375 56.5587 56.2509C56.7465 57.5702 56.924 58.8156 56.3043 59.6763C56.0869 59.9796 55.834 60.2842 55.5677 60.6067C54.4555 61.9541 53.1939 63.4804 53.713 65.662C53.9941 66.8422 54.7661 68.1053 55.4479 69.219C56.4655 70.8815 57.3441 72.3176 56.5927 73.3056C55.7955 74.3542 54.5058 76.4027 54.8356 78.3299C55.0116 79.3607 55.6417 80.2408 56.7096 80.9463C60.5033 83.4532 67.2772 81.7509 68.8672 79.8828C70.1421 78.3861 70.852 77.0416 70.7663 76.2873C70.7411 76.067 70.6524 75.9072 70.4882 75.7859C69.5135 75.0627 69.2813 73.7345 69.8655 72.2348C70.4039 70.9051 72.0634 69.3921 73.7761 69.997C74.7212 70.3313 74.9933 70.9539 75.2122 71.4553C75.4045 71.8961 75.5317 72.1889 76.0434 72.3073C76.354 72.3783 78.2413 72.5173 84.9487 68.1512C90.0055 64.8603 93.0922 60.1289 93.4205 55.1683C93.709 50.8066 92.6278 50.3984 91.3765 49.9251C90.9151 49.7506 90.3885 49.7225 89.8309 49.6944C88.7779 49.6382 87.5858 49.5761 86.5534 48.4786C86.2029 48.1044 85.913 47.7243 85.6335 47.356C84.7401 46.1817 84.0272 45.2529 81.9093 45.3564C80.695 45.4155 79.6597 45.7143 78.7471 45.9791C77.413 46.3651 76.3585 46.6698 75.5154 45.9643C74.6591 45.2484 73.0085 43.8655 70.571 43.8655H70.5695Z" fill="#6F46BE"/>
<path d="M76.9472 94.8713C76.925 94.8713 76.9043 94.8684 76.8821 94.8639C76.7076 94.8284 76.5937 94.6569 76.6292 94.4823L78.5874 84.9115C78.6051 84.8272 78.6554 84.7533 78.7279 84.7045C78.8004 84.6571 78.8906 84.6423 78.9734 84.6601C79.003 84.6675 81.9995 85.3079 84.7091 84.2356C86.5416 83.5109 87.8698 81.4417 88.0931 78.9644C88.1094 78.7869 88.2676 78.6523 88.4437 78.6715C88.6226 78.6878 88.7528 78.8446 88.738 79.022C88.4939 81.7405 87.006 84.0226 84.9487 84.8376C82.5586 85.7827 80.0413 85.4972 79.1583 85.3523L77.2637 94.6125C77.2326 94.7663 77.098 94.8713 76.9472 94.8713Z" fill="#6F46BE"/>
<path d="M88.1241 76.4117C87.9851 76.4117 87.8564 76.3215 87.8135 76.1824C86.898 73.1844 83.9636 69.2916 83.934 69.2532C83.826 69.1112 83.8541 68.9086 83.9976 68.8006C84.1396 68.6926 84.3437 68.7207 84.4517 68.8642C84.5744 69.0269 87.4852 72.8886 88.4332 75.9946C88.485 76.1647 88.3889 76.3451 88.2173 76.3969C88.1862 76.4058 88.1552 76.4102 88.1241 76.4102V76.4117Z" fill="#6F46BE"/>
<path d="M37.0473 139.454L36.4025 139.392C37.5532 127.479 40.208 118.627 45.2811 109.792C48.5438 104.109 52.9291 99.412 56.7998 95.2662C58.6293 93.3065 60.3583 91.4548 61.7131 89.7539C65.8174 84.6024 68.8124 79.9627 68.842 79.9169L69.3878 80.2659C69.3582 80.3133 66.3439 84.9781 62.2204 90.1562C60.8493 91.8763 59.113 93.7369 57.2745 95.707C53.429 99.8261 49.0703 104.495 45.8446 110.113C40.7523 118.98 38.2054 127.479 37.0488 139.452L37.0473 139.454Z" fill="#6F46BE"/>
<path d="M80.8843 160.086L80.2572 159.925C82.4979 151.273 82.8144 140.983 82.8174 140.88L83.4652 140.897C83.4623 141.001 83.1443 151.363 80.8843 160.086Z" fill="#6F46BE"/>
<path d="M78.9053 84.9766C78.9053 84.9766 75.0377 84.2682 75.1353 85.4884C75.2536 86.9644 77.9632 89.6149 77.2281 93.0566L78.9053 84.9751V84.9766Z" fill="#6F46BE"/>
<path d="M77.2296 93.3804C77.2074 93.3804 77.1852 93.3775 77.163 93.373C76.9885 93.336 76.8761 93.166 76.9116 92.9914L76.9249 92.9293C77.3568 90.7892 76.3954 88.9788 75.6234 87.5205C75.2137 86.747 74.8587 86.0799 74.8129 85.5149C74.7922 85.2561 74.8839 85.0283 75.0761 84.8538C75.8733 84.1365 78.4542 84.5654 78.9645 84.6586C79.0503 84.6749 79.1257 84.7237 79.1745 84.7961C79.2233 84.8686 79.2411 84.9574 79.2233 85.0417L77.5594 93.058C77.555 93.0802 77.5505 93.1024 77.5461 93.1231C77.5121 93.2754 77.379 93.3789 77.2296 93.3789V93.3804ZM76.7696 85.0964C76.1884 85.0964 75.7018 85.1615 75.5095 85.3345C75.4666 85.373 75.4533 85.407 75.4577 85.4647C75.4917 85.8965 75.8171 86.5103 76.1943 87.2203C76.6439 88.0677 77.1882 89.0957 77.4766 90.2671L78.5193 85.2398C77.9676 85.1555 77.3257 85.0949 76.7696 85.0949V85.0964Z" fill="#6F46BE"/>
<path d="M88.4288 79.3179C88.2617 79.3179 88.1212 79.1907 88.1064 79.0221C88.0916 78.8446 88.2247 78.6878 88.4022 78.673C88.9968 78.6242 90.5764 78.3151 90.7361 77.4883C90.7435 77.4528 90.7405 77.4395 90.7405 77.4395C90.6681 77.3685 90.2051 77.3242 89.8664 77.2916L89.794 77.2842C87.9866 77.1127 87.8165 76.2312 87.8032 76.1321C87.7795 75.9561 87.9038 75.7934 88.0812 75.7697C88.2558 75.7475 88.4125 75.8629 88.4421 76.033C88.4525 76.064 88.6166 76.5255 89.8546 76.6423L89.9271 76.6497C90.5675 76.7104 91.0304 76.7532 91.2641 77.0653C91.341 77.1689 91.4238 77.3463 91.3721 77.6111C91.0866 79.0886 88.5619 79.3105 88.454 79.3194C88.4451 79.3194 88.4362 79.3194 88.4273 79.3194L88.4288 79.3179Z" fill="#6F46BE"/>
<path d="M86.1122 75.8124C86.2323 75.121 85.1528 74.3561 83.701 74.1037C82.2491 73.8514 80.9748 74.2072 80.8546 74.8985C80.7345 75.5899 81.814 76.3548 83.2658 76.6072C84.7177 76.8595 85.992 76.5037 86.1122 75.8124Z" fill="white"/>
<path d="M84.1958 77.015C83.8852 77.015 83.5539 76.9869 83.2093 76.9263C82.4609 76.7962 81.7761 76.5314 81.2821 76.1823C80.7201 75.783 80.4539 75.3082 80.5352 74.8453C80.6166 74.3824 81.0278 74.0244 81.6918 73.8396C82.2761 73.6769 83.0096 73.6606 83.758 73.7893C85.4382 74.0821 86.5874 74.9769 86.4321 75.8718C86.3079 76.5832 85.4057 77.0165 84.1958 77.0165V77.015ZM82.7834 74.3469C82.4491 74.3469 82.137 74.3853 81.8664 74.4593C81.467 74.5702 81.2082 74.7551 81.1742 74.9533C81.1387 75.1515 81.3206 75.4133 81.6578 75.6529C82.0749 75.9487 82.665 76.1735 83.3202 76.2874C84.7505 76.5358 85.7251 76.1469 85.7932 75.7579C85.8612 75.3689 85.0773 74.6723 83.6471 74.4238C83.3498 74.372 83.0585 74.3469 82.7834 74.3469Z" fill="#6F46BE"/>
<path d="M85.7267 74.9813C84.5996 74.9384 83.7093 75.28 83.6087 75.8524C83.5599 76.1305 83.7063 76.4219 83.9947 76.6866C85.1217 76.7295 86.0121 76.3878 86.1127 75.8155C86.1615 75.5374 86.0151 75.2445 85.7267 74.9813Z" fill="#6F46BE"/>
<path d="M83.2152 80.8191C83.2034 80.8191 83.1916 80.8191 83.1797 80.8176C82.0838 80.6993 81.0899 80.1166 80.4524 79.2173C80.3489 79.0709 80.3844 78.8698 80.5293 78.7677C80.6757 78.6642 80.8769 78.6997 80.9804 78.8446C81.5099 79.5915 82.3367 80.0766 83.2478 80.1743C83.4252 80.1935 83.5539 80.3532 83.5347 80.5307C83.5155 80.6964 83.3764 80.8191 83.2123 80.8191H83.2152Z" fill="#6F46BE"/>
<path d="M82.591 72.2985C82.7389 72.2023 82.8987 72.124 83.0643 72.0648C83.3986 71.942 83.7535 71.8858 84.11 71.8977C84.2904 71.9036 84.4694 71.9258 84.6469 71.9642C84.7637 71.9879 84.8392 72.1003 84.8155 72.2157C84.7918 72.3325 84.6794 72.4064 84.5626 72.3843C84.5537 72.3828 84.5448 72.3798 84.5374 72.3769L84.5271 72.3739C84.3807 72.3221 84.2298 72.2822 84.076 72.2571C83.9207 72.2304 83.7624 72.2201 83.6056 72.226C83.4459 72.2304 83.2862 72.2511 83.1309 72.2852C82.9741 72.3192 82.8232 72.3695 82.6783 72.4375L82.6724 72.4405C82.631 72.4597 82.5822 72.4419 82.5629 72.402C82.5437 72.3665 82.557 72.3221 82.591 72.2985Z" fill="#6F46BE"/>
<path d="M89.507 72.2393C89.3709 72.1549 89.226 72.0869 89.0751 72.0351C88.9243 71.9819 88.769 71.9434 88.6107 71.9213C88.4554 71.8976 88.2972 71.8902 88.1404 71.8976C87.9851 71.905 87.8298 71.9272 87.6789 71.9612H87.6701C87.5547 71.9878 87.4408 71.9139 87.4157 71.797C87.3905 71.6802 87.466 71.5678 87.5813 71.5441C87.5902 71.5426 87.5991 71.5411 87.6079 71.5397C87.7884 71.5219 87.9688 71.5204 88.1493 71.5352C88.5042 71.5648 88.8503 71.6624 89.1683 71.8236C89.3266 71.902 89.476 71.9982 89.612 72.1106C89.646 72.1402 89.6505 72.1919 89.6209 72.2274C89.5943 72.2585 89.5499 72.2644 89.5159 72.2437L89.51 72.2393H89.507Z" fill="#6F46BE"/>
<path d="M90.7435 115.947C90.7065 115.838 92.7994 119.537 95.9216 121.404C99.0423 123.272 102.642 123.455 105.763 123.418C108.884 123.381 113.584 120.745 115.384 119.243C117.184 117.74 121.553 112.614 121.553 111.845C121.553 111.076 120.562 109.721 119.753 109.098C118.944 108.475 117.477 106.424 118.064 105.985C118.651 105.545 120.303 106.973 120.303 106.973L122.103 108.218C122.103 108.218 123.683 108.328 125.372 106.754C127.061 105.18 127.576 103.457 127.576 102.652L127.037 102.067C127.037 102.067 128.407 101.579 128.812 101.993C129.217 102.407 129.29 103.64 129.29 103.64C129.29 103.64 130.049 103.433 130.318 103.775C130.587 104.117 130.661 105.276 130.599 105.79C130.599 105.79 131.701 105.106 132.081 105.594C132.461 106.082 132.35 107.913 132.35 107.913L133.916 106.18C133.916 106.18 134.7 105.315 134.907 105.497C135.311 105.85 134.65 107.658 134.65 107.658L133.548 109.781L131.59 113.517L126.27 120.781L121.772 126.202L118.431 129.626L114.318 132.702L110.076 135.027L101.906 138.469L94.3035 140.172C94.3035 140.172 88.8504 141.252 88.7764 141.234C88.7025 141.217 86.867 141.252 86.867 141.252L82.9742 140.813L79.1553 140.136L77.8523 139.659L81.3043 136.638C81.3043 136.638 84.4621 133.03 85.7296 131.125C86.9971 129.222 88.2824 126.071 88.8504 124.588C89.3917 123.063 89.8265 121.503 90.1534 119.919C90.4107 118.728 90.7406 115.945 90.7406 115.945L90.7435 115.947Z" fill="#EDE3FF"/>
<path d="M121.457 112.142C120.809 113.483 117.026 117.873 115.384 119.243C113.584 120.744 108.884 123.381 105.763 123.418C102.642 123.455 99.0424 123.272 95.9216 121.404C92.8009 119.536 90.7066 115.837 90.7435 115.947C90.7435 115.947 90.6237 116.949 90.4744 118.006C91.9223 119.954 94.8597 123.153 99.0069 124.187C105.617 125.835 112.337 123.894 116.671 119.682C122.79 113.735 121.738 111.954 121.738 111.954L121.459 112.142H121.457Z" fill="white"/>
<path d="M77.8286 140.038C77.731 140.038 77.6364 139.995 77.5728 139.914C77.4633 139.773 77.4884 139.569 77.6304 139.46C90.2687 129.683 90.2377 115.883 90.2362 115.743C90.2332 115.565 90.3767 115.418 90.5557 115.417C90.7332 115.424 90.8811 115.557 90.884 115.736C90.8855 115.878 90.9195 129.998 78.0283 139.97C77.9691 140.016 77.8996 140.038 77.8301 140.038H77.8286Z" fill="#6F46BE"/>
<path d="M86.299 106.884C86.299 106.884 86.2916 106.884 86.2872 106.884C68.1188 106.241 59.3437 93.2223 59.2579 93.0906C59.1603 92.9413 59.2017 92.7416 59.3511 92.644C59.5005 92.5478 59.7016 92.5878 59.7992 92.7372C59.8835 92.8658 68.4871 105.609 86.3108 106.241C86.4898 106.247 86.6288 106.396 86.6229 106.575C86.617 106.749 86.4721 106.887 86.299 106.887V106.884Z" fill="#6F46BE"/>
<path d="M80.5146 160.36C80.4731 160.36 80.4317 160.352 80.3918 160.336C79.6449 160.033 78.8536 159.773 78.0904 159.521C77.2518 159.246 76.3851 158.961 75.5894 158.62C75.1501 158.401 74.6635 158.187 74.1932 157.978C73.7169 157.767 73.2229 157.55 72.7896 157.332C71.8164 156.945 70.8299 156.559 69.8522 156.176C66.5895 154.898 63.5087 153.689 60.3805 152.212C59.0775 151.562 57.7804 150.921 56.4848 150.28C49.7892 146.969 42.8644 143.546 36.3848 139.547C36.2324 139.454 36.1851 139.254 36.2798 139.102C36.3744 138.949 36.5741 138.903 36.7249 138.997C43.1794 142.98 50.0894 146.398 56.7717 149.702C58.0673 150.342 59.3659 150.984 60.663 151.632C63.7646 153.098 66.8365 154.302 70.0889 155.575C71.068 155.958 72.056 156.346 73.0543 156.745C73.4995 156.967 73.9861 157.181 74.4565 157.39C74.9342 157.601 75.4282 157.82 75.8615 158.038C76.6144 158.359 77.4293 158.626 78.2931 158.91C79.0681 159.165 79.8682 159.428 80.6373 159.74C80.803 159.808 80.8828 159.996 80.8148 160.162C80.763 160.286 80.6418 160.361 80.5146 160.361V160.36Z" fill="#6F46BE"/>
<path d="M71.0044 74.1724C70.9748 74.1724 70.9452 74.1679 70.9157 74.1605C70.7441 74.1117 70.6435 73.9327 70.6923 73.7612C71.0133 72.6371 71.5383 71.8991 72.2527 71.5648C73.0957 71.1714 73.8737 71.5071 73.9063 71.5219C74.0704 71.5944 74.1429 71.7852 74.0704 71.9479C73.9979 72.1106 73.8072 72.1845 73.6445 72.1121C73.6164 72.1002 73.0869 71.8828 72.5174 72.1535C71.9835 72.4064 71.5783 73.0069 71.3135 73.9372C71.2721 74.0792 71.1419 74.1724 71.0014 74.1724H71.0044Z" fill="#6F46BE"/>
<path d="M72.7481 73.5127C72.5899 73.5127 72.4523 73.3974 72.4272 73.2376L72.2246 71.8828C72.198 71.7068 72.3207 71.5427 72.4967 71.516C72.6757 71.4924 72.8384 71.6122 72.865 71.7882L73.0676 73.143C73.0942 73.319 72.9715 73.4832 72.7955 73.5098C72.7792 73.5127 72.7629 73.5127 72.7467 73.5127H72.7481Z" fill="#6F46BE"/>
<path d="M86.9971 141.218C86.9971 141.218 88.6491 141.255 91.3306 139.46C94.0032 137.67 96.6921 134.589 97.9034 135.358C99.1148 136.127 96.6551 138.472 97.6461 138.948C98.606 139.409 105.748 134.378 107.158 134.114C108.332 133.895 108.406 134.663 109.434 134.591C110.462 134.518 113.069 130.855 115.64 131.698C115.64 131.698 113.694 133.089 111.968 134.079C110.241 135.067 105.725 137.046 105.725 137.046L101.135 138.84C101.135 138.84 97.3163 139.939 95.6272 140.232C93.9382 140.524 91.0008 140.964 91.0008 140.964L86.9986 141.22L86.9971 141.218Z" fill="#6F46BE"/>
<path d="M87.0044 141.541H86.9897C86.8166 141.536 86.6776 141.397 86.6731 141.224C86.6702 141.051 86.8033 140.906 86.9763 140.896L87.1908 140.882C87.6818 140.829 89.1091 140.559 91.1502 139.192C92.011 138.615 92.8703 137.907 93.7 137.22C95.5799 135.669 97.0633 134.441 98.0779 135.086C98.9609 135.647 98.4551 136.741 98.0868 137.541C97.8857 137.976 97.6106 138.572 97.7881 138.657C98.2894 138.782 101.219 137.031 102.971 135.988C104.833 134.879 106.44 133.919 107.1 133.796C107.844 133.656 108.233 133.866 108.575 134.049C108.83 134.187 109.035 134.295 109.413 134.268C109.657 134.25 110.24 133.771 110.753 133.348C112.071 132.263 113.872 130.778 115.743 131.39C115.859 131.428 115.945 131.528 115.962 131.647C115.982 131.767 115.93 131.888 115.831 131.959C115.812 131.974 113.852 133.372 112.13 134.358C110.409 135.345 106.041 137.259 105.856 137.34L101.253 139.139C101.069 139.193 97.3695 140.255 95.6819 140.548C94.0077 140.838 91.0777 141.277 91.0481 141.282L87.2721 141.524C87.1316 141.539 87.0414 141.542 87.0059 141.542L87.0044 141.541ZM97.4538 135.558C96.7276 135.558 95.4009 136.654 94.1127 137.717C93.2696 138.414 92.3985 139.133 91.5111 139.727C90.8869 140.144 90.3175 140.465 89.8072 140.714L90.9801 140.638C90.9801 140.638 93.9071 140.199 95.5725 139.911C97.2245 139.624 101.008 138.538 101.046 138.526L105.608 136.741C105.642 136.726 110.116 134.764 111.808 133.795C112.892 133.174 114.074 132.384 114.791 131.893C113.489 131.927 112.172 133.013 111.166 133.842C110.437 134.443 109.91 134.876 109.459 134.909C108.891 134.952 108.558 134.771 108.267 134.614C107.973 134.456 107.739 134.33 107.22 134.428C106.674 134.53 104.96 135.552 103.303 136.54C99.8439 138.603 98.1415 139.539 97.5085 139.236C96.7572 138.875 97.1698 137.985 97.4996 137.268C97.8738 136.459 98.109 135.867 97.7318 135.629C97.6535 135.58 97.5603 135.556 97.4553 135.556L97.4538 135.558Z" fill="#6F46BE"/>
<path d="M64.6327 132.831C64.6327 132.831 63.201 131.292 61.5474 132.099C59.8939 132.905 59.712 134.773 61.6939 136.237C63.6772 137.703 65.8411 137.247 68.2667 138.617C70.2131 139.716 72.8369 142.262 73.9713 142.731C76.6025 143.818 80.0057 142.671 81.1076 140.547C81.1076 140.547 76.0523 139.534 73.1874 138.325C71.5442 137.642 69.9483 136.846 68.4131 135.944L65.1459 133.637L64.6327 132.831Z" fill="#6F46BE"/>
<path d="M76.1662 143.474C75.3734 143.474 74.5792 143.332 73.8485 143.03C73.2451 142.782 72.3236 142.044 71.2558 141.19C70.2308 140.371 69.0698 139.442 68.1099 138.899C67.0021 138.273 65.9416 138.041 64.9167 137.816C63.726 137.555 62.602 137.309 61.5031 136.497C60.4086 135.688 59.8554 134.708 59.9442 133.734C60.0181 132.928 60.5521 132.226 61.4069 131.809C62.886 131.088 64.3191 132.019 64.8708 132.612C64.8841 132.627 64.896 132.641 64.9063 132.658L65.387 133.41L68.6024 135.681C70.0962 136.556 71.6891 137.351 73.3131 138.026C76.1159 139.208 81.1224 140.22 81.1727 140.229C81.2718 140.248 81.3561 140.315 81.4004 140.406C81.4448 140.498 81.4433 140.604 81.396 140.695C80.5027 142.415 78.3344 143.472 76.1647 143.472L76.1662 143.474ZM62.5443 132.187C62.2736 132.187 61.9852 132.245 61.6909 132.388C61.0342 132.708 60.6423 133.208 60.589 133.794C60.5225 134.523 60.9958 135.318 61.8876 135.978C62.8741 136.707 63.9331 136.939 65.0542 137.185C66.1265 137.42 67.2343 137.663 68.4279 138.337C69.4336 138.905 70.6168 139.852 71.661 140.686C72.6476 141.474 73.5793 142.22 74.097 142.434C76.3466 143.363 79.3579 142.552 80.5973 140.772C79.2884 140.494 75.4577 139.634 73.0632 138.624C71.4126 137.938 69.7945 137.13 68.2519 136.224L64.961 133.901C64.927 133.878 64.8974 133.847 64.8753 133.811L64.3783 133.033C64.2467 132.9 63.4998 132.19 62.5458 132.19L62.5443 132.187Z" fill="#6F46BE"/>
<path d="M87.6523 141.538C86.1171 141.538 84.5922 141.434 83.0925 141.208C70.4956 139.309 64.4582 133.116 64.3976 133.054C64.2748 132.925 64.2792 132.721 64.4094 132.597C64.5381 132.474 64.7437 132.479 64.8664 132.607C64.9241 132.668 70.8269 138.704 83.1886 140.567C95.3285 142.398 109.286 136.087 115.705 131.397C122.001 126.798 130.137 115.619 132.553 111.166C134.782 107.058 134.903 106.028 134.776 105.778C134.776 105.775 134.773 105.773 134.771 105.77C134.307 106.048 132.627 108.184 131.216 110.163C131.112 110.308 130.91 110.342 130.765 110.24C130.618 110.136 130.584 109.935 130.688 109.789C134.092 105.013 134.616 105.084 134.816 105.115C135.126 105.158 135.28 105.34 135.353 105.486C135.607 105.989 135.514 107.063 133.122 111.473C130.683 115.971 122.46 127.264 116.088 131.918C110.373 136.093 98.7539 141.536 87.6509 141.536L87.6523 141.538Z" fill="#6F46BE"/>
<path d="M131.982 108.836C131.937 108.836 131.893 108.827 131.85 108.808C131.686 108.736 131.614 108.545 131.686 108.382C131.93 107.831 132.474 106.164 131.784 105.766C131.59 105.655 131.043 105.991 130.738 106.282C130.608 106.405 130.404 106.4 130.279 106.272C130.157 106.143 130.161 105.939 130.29 105.815C130.47 105.642 131.408 104.803 132.108 105.208C133.424 105.966 132.399 108.373 132.278 108.647C132.224 108.767 132.106 108.839 131.982 108.839V108.836Z" fill="#6F46BE"/>
<path d="M129.044 109.863C128.972 109.863 128.898 109.839 128.839 109.789C128.701 109.675 128.682 109.472 128.794 109.335C128.805 109.323 129.799 108.095 130.195 105.989C130.432 104.726 130.272 104.096 130.043 103.926C129.882 103.806 129.611 103.902 129.413 104.004C129.254 104.086 129.058 104.024 128.976 103.865C128.895 103.707 128.957 103.512 129.115 103.43C129.771 103.093 130.192 103.232 130.429 103.408C130.951 103.796 131.09 104.729 130.83 106.109C130.401 108.39 129.337 109.693 129.291 109.747C129.228 109.824 129.136 109.864 129.043 109.864L129.044 109.863Z" fill="#6F46BE"/>
<path d="M127.135 108.873C127.061 108.873 126.987 108.848 126.926 108.796C126.79 108.681 126.773 108.477 126.888 108.341C128.808 106.076 129.213 103.084 128.692 102.388C128.321 101.889 127.518 102.179 127.191 102.329C127.029 102.403 126.836 102.329 126.762 102.167C126.688 102.006 126.762 101.814 126.923 101.74C127.904 101.298 128.759 101.395 129.212 102.003C129.945 102.988 129.501 106.257 127.382 108.758C127.317 108.833 127.227 108.873 127.134 108.873H127.135Z" fill="#6F46BE"/>
<path d="M103.598 123.783C98.4093 123.783 95.0253 121.42 93.2726 119.735C90.813 117.37 89.2378 113.869 87.0577 109.024C86.722 108.279 86.3729 107.504 86.0061 106.698L85.9159 106.501C83.1989 100.546 79.8179 93.1364 66.7374 92.0419C66.5599 92.0272 66.4268 91.8719 66.4416 91.6929C66.4563 91.5154 66.6161 91.3823 66.7906 91.3986C80.2498 92.5256 83.7181 100.126 86.5046 106.235L86.5948 106.431C86.9631 107.239 87.3121 108.015 87.6479 108.761C89.7984 113.541 91.3528 116.993 93.7222 119.272C95.9112 121.377 100.767 124.585 108.69 122.415C115.967 120.423 120.712 112.824 121.228 111.964C121.414 111.654 120.405 110.052 119.286 109.079C118.515 108.407 117.541 107.059 117.721 106.27C117.785 105.992 117.975 105.797 118.262 105.717C118.922 105.537 119.91 106.201 121.232 107.164C121.686 107.493 122.201 107.868 122.374 107.913C122.831 108.038 124.945 107.041 126.141 105.399C127.308 103.797 127.256 102.718 127.255 102.706C127.243 102.528 127.378 102.374 127.555 102.363C127.727 102.346 127.886 102.481 127.9 102.658C127.904 102.71 127.985 103.964 126.663 105.779C125.444 107.452 123.08 108.773 122.204 108.538C121.927 108.464 121.529 108.18 120.849 107.686C120.148 107.175 118.841 106.23 118.434 106.34C118.363 106.359 118.358 106.383 118.351 106.414C118.259 106.817 118.957 107.939 119.71 108.594C120.434 109.224 122.35 111.358 121.782 112.299C121.251 113.182 116.379 120.982 108.86 123.039C106.934 123.566 105.182 123.786 103.598 123.786V123.783Z" fill="#6F46BE"/>
<path d="M127.576 103.002C127.487 103.002 127.397 102.965 127.333 102.892L126.793 102.281C126.675 102.147 126.688 101.943 126.821 101.826C126.956 101.707 127.16 101.721 127.278 101.854L127.818 102.465C127.937 102.598 127.923 102.803 127.79 102.92C127.728 102.975 127.653 103.002 127.576 103.002Z" fill="#6F46BE"/>
</g>
<path d="M236.486 51.6686L235.351 53.9746C235.135 54.4129 235.313 54.9564 235.744 55.176L238.011 56.3314L236.486 51.6686Z" fill="white"/>
<path d="M237.955 45.2373L227.659 39.9623C226.869 39.5605 225.887 39.8944 225.489 40.7003L215.091 61.5836C214.693 62.3895 215.017 63.3871 215.808 63.7888L230.263 71.1773C231.054 71.5791 232.036 71.2452 232.434 70.4393L240.704 53.7782L237.955 45.2373Z" fill="white"/>
<path d="M230.143 71.5344L215.651 64.0948C215.168 63.8486 214.806 63.445 214.634 62.9192C214.461 62.3935 214.513 61.8507 214.753 61.3609L225.057 40.4921C225.298 40.0023 225.694 39.6354 226.211 39.4615C226.727 39.2875 227.261 39.3412 227.744 39.5875L238.066 44.8989C238.169 44.9517 238.221 45.0218 238.255 45.127L241.103 53.7141C241.138 53.8193 241.138 53.9068 241.086 54.0118L232.83 70.6298C232.589 71.1196 232.193 71.4864 231.676 71.6604C231.159 71.8344 230.625 71.7807 230.143 71.5344ZM227.4 40.2872C227.09 40.1289 226.762 40.0931 226.452 40.1975C226.142 40.3019 225.901 40.529 225.746 40.8439L215.443 61.7127C215.288 62.0276 215.254 62.3602 215.357 62.6757C215.461 62.9911 215.685 63.2368 215.995 63.3951L230.487 70.8347C230.797 70.993 231.124 71.0288 231.434 70.9244C231.744 70.82 231.985 70.5929 232.14 70.278L240.294 53.7824L237.618 45.5459L227.4 40.2872Z" fill="#553597"/>
<path d="M235.36 56.1318L224.947 50.8024C224.741 50.6979 224.689 50.4559 224.774 50.2835C224.876 50.0766 225.082 50.0084 225.288 50.1129L235.701 55.4423C235.907 55.5468 235.959 55.7889 235.873 55.9612C235.788 56.1336 235.532 56.2189 235.36 56.1318Z" fill="#553597"/>
<path d="M233.83 59.2189L223.417 53.8894C223.211 53.7849 223.159 53.5429 223.245 53.3705C223.347 53.1637 223.552 53.0954 223.758 53.1999L234.171 58.5294C234.377 58.6339 234.429 58.8759 234.344 59.0483C234.224 59.2032 234.002 59.3059 233.83 59.2189Z" fill="#553597"/>
<path d="M232.285 62.2533L221.872 56.9239C221.666 56.8194 221.614 56.5773 221.699 56.4049C221.801 56.1981 222.006 56.1299 222.212 56.2344L232.625 61.5638C232.831 61.6683 232.883 61.9103 232.798 62.0827C232.696 62.2896 232.49 62.3578 232.285 62.2533Z" fill="#553597"/>
<path d="M227.633 63.7594L220.325 60.0471C220.119 59.9425 220.067 59.7002 220.152 59.5277C220.254 59.3206 220.46 59.2522 220.666 59.3568L227.974 63.0691C228.18 63.1736 228.232 63.4159 228.146 63.5885C228.061 63.7611 227.804 63.8465 227.633 63.7594Z" fill="#553597"/>
<path d="M240.555 54.1525L236.397 52.04C235.916 51.7955 235.556 51.3934 235.385 50.8686C235.215 50.3438 235.268 49.8012 235.51 49.3108L237.602 45.0729C237.672 44.9328 237.809 44.8276 237.964 44.8624C238.136 44.8622 238.256 44.967 238.308 45.1245L241.089 53.6793C241.14 53.8367 241.106 53.9943 240.968 54.0994C240.847 54.1696 240.692 54.2223 240.555 54.1525ZM237.857 46.2101L236.18 49.6075C236.024 49.9227 235.989 50.2553 236.091 50.5702C236.194 50.8851 236.417 51.1299 236.726 51.287L240.059 52.9805L237.857 46.2101Z" fill="#553597"/>
<path d="M227.97 49.6425C229.268 50.3279 230.876 49.8088 231.561 48.4829C232.245 47.1571 231.748 45.5266 230.45 44.8411C229.152 44.1557 227.545 44.6748 226.86 46.0007C226.175 47.3265 226.672 48.957 227.97 49.6425Z" fill="white" stroke="#553597" stroke-width="0.73744" stroke-miterlimit="15.11"/>
<mask id="mask8_330_7608" style="mask-type:luminance" maskUnits="userSpaceOnUse" x="226" y="44" width="6" height="6">
<path d="M231.851 46.3375L228.39 44.4935L226.594 47.9995L230.055 49.8434L231.851 46.3375Z" fill="white"/>
</mask>
<g mask="url(#mask8_330_7608)">
<path d="M230.731 47.3589L229.947 46.9406L230.352 46.1487L229.396 45.6379L228.991 46.4298L228.208 46.0115L227.714 46.978L228.497 47.3963L228.093 48.1882L229.049 48.699L229.454 47.9071L230.237 48.3254L230.731 47.3589Z" fill="#553597" stroke="#553597" stroke-width="0.0945986" stroke-miterlimit="11.34"/>
</g>
<g clip-path="url(#clip0_330_7608)">
<path d="M99.2927 63.1346C99.2927 62.5658 99.4045 62.003 99.6208 61.4776C99.8378 60.9523 100.155 60.4749 100.555 60.0732C100.956 59.6715 101.431 59.353 101.953 59.1349C102.476 58.9176 103.037 58.8059 103.602 58.8067H143.54C144.116 58.7909 144.689 58.8913 145.225 59.1019C145.761 59.3125 146.25 59.6288 146.663 60.0327C147.075 60.4359 147.403 60.9185 147.627 61.4521C147.851 61.985 147.966 62.5583 147.966 63.1368C147.966 63.7154 147.851 64.288 147.627 64.8215C147.403 65.3544 147.075 65.837 146.663 66.241C146.25 66.6449 145.761 66.9612 145.225 67.1717C144.689 67.3823 144.116 67.4828 143.54 67.467H103.612C103.045 67.4685 102.483 67.3569 101.959 67.1403C101.436 66.9229 100.959 66.6044 100.558 66.202C100.157 65.7995 99.8393 65.3214 99.6215 64.7961C99.4045 64.27 99.2927 63.7064 99.2927 63.1361V63.1346Z" fill="white"/>
<path d="M143.54 67.6235H103.612C103.015 67.6393 102.422 67.5351 101.866 67.317C101.311 67.0989 100.804 66.7707 100.377 66.3525C99.9497 65.9343 99.6096 65.4345 99.3777 64.8821C99.1458 64.3298 99.0265 63.7363 99.0265 63.1367C99.0265 62.5372 99.1458 61.9436 99.3777 61.3913C99.6096 60.839 99.9497 60.3391 100.377 59.9209C100.804 59.5027 101.311 59.1745 101.866 58.9564C102.422 58.7368 103.015 58.6327 103.612 58.6484H143.54C144.137 58.6327 144.73 58.7368 145.286 58.9549C145.842 59.173 146.348 59.5012 146.775 59.9194C147.202 60.3376 147.542 60.8375 147.774 61.3898C148.006 61.9421 148.126 62.5357 148.126 63.1352C148.126 63.7348 148.006 64.3283 147.774 64.8806C147.542 65.433 147.202 65.9328 146.775 66.351C146.348 66.7692 145.842 67.0974 145.286 67.3155C144.73 67.5336 144.137 67.6378 143.54 67.622V67.6235ZM103.612 58.9647C103.057 58.9489 102.505 59.0456 101.988 59.2487C101.471 59.451 101 59.7561 100.602 60.145C100.205 60.534 99.8885 60.9986 99.6723 61.5127C99.4568 62.0268 99.3456 62.5784 99.3456 63.136C99.3456 63.6935 99.4568 64.2459 99.6723 64.7592C99.8885 65.2726 100.205 65.738 100.602 66.1269C101 66.5159 101.471 66.8209 101.988 67.0232C102.505 67.2263 103.057 67.3223 103.612 67.3073H143.54C144.095 67.3223 144.647 67.2263 145.164 67.0232C145.681 66.8209 146.153 66.5159 146.55 66.1269C146.947 65.738 147.264 65.2733 147.48 64.7592C147.695 64.2459 147.807 63.6935 147.807 63.136C147.807 62.5784 147.695 62.0261 147.48 61.5127C147.264 60.9994 146.947 60.534 146.55 60.145C146.153 59.7561 145.681 59.451 145.164 59.2487C144.647 59.0456 144.095 58.9497 143.54 58.9647H103.612Z" fill="#553597"/>
<path d="M106.902 65.1955C106.893 65.248 106.866 65.2952 106.826 65.3296C106.785 65.3641 106.735 65.3829 106.682 65.3829C106.629 65.3829 106.578 65.3641 106.538 65.3296C106.498 65.2952 106.47 65.248 106.462 65.1955L106.213 63.9312C106.203 63.8743 106.172 63.824 106.125 63.7903C106.078 63.7566 106.021 63.7424 105.964 63.7506L104.706 63.9057C104.654 63.9117 104.602 63.8997 104.558 63.8713C104.515 63.8428 104.482 63.8001 104.466 63.7506C104.449 63.7011 104.451 63.6472 104.469 63.5977C104.488 63.549 104.523 63.5078 104.568 63.4816L105.691 62.849C105.741 62.8221 105.779 62.7771 105.796 62.7224C105.814 62.6684 105.81 62.6092 105.785 62.5575L105.244 61.3877C105.222 61.3397 105.218 61.2865 105.231 61.2355C105.245 61.1846 105.275 61.1404 105.317 61.1096C105.36 61.0789 105.41 61.0639 105.462 61.0662C105.515 61.0692 105.564 61.0901 105.603 61.1254L106.547 62.0044C106.588 62.0464 106.644 62.0696 106.703 62.0696C106.762 62.0696 106.819 62.0464 106.861 62.0044L107.805 61.1254C107.843 61.0901 107.893 61.0692 107.945 61.0662C107.996 61.0632 108.048 61.0789 108.09 61.1096C108.132 61.1404 108.163 61.1853 108.176 61.2355C108.189 61.2857 108.185 61.3397 108.163 61.3877L107.622 62.5575C107.597 62.6092 107.594 62.6677 107.612 62.7224C107.629 62.7763 107.667 62.8221 107.717 62.849L108.84 63.4816C108.884 63.5078 108.92 63.5483 108.938 63.5977C108.957 63.6464 108.958 63.7004 108.942 63.7506C108.925 63.8001 108.893 63.8428 108.849 63.8713C108.805 63.8997 108.752 63.9117 108.701 63.9057L107.427 63.7506C107.371 63.7431 107.313 63.7573 107.267 63.7911C107.221 63.8248 107.19 63.8743 107.178 63.9305L106.902 65.1947V65.1955Z" fill="#553597"/>
<path d="M106.682 65.5306C106.591 65.5306 106.504 65.4998 106.435 65.4421C106.366 65.3844 106.319 65.3035 106.304 65.2143L106.058 63.95C106.055 63.9335 106.046 63.9193 106.033 63.9088C106.02 63.8983 106.003 63.8931 105.986 63.8931L104.728 64.0512C104.641 64.0609 104.553 64.04 104.478 63.992C104.404 63.944 104.349 63.8721 104.322 63.7874C104.295 63.7035 104.297 63.612 104.328 63.5296C104.36 63.4472 104.419 63.3775 104.495 63.334L105.615 62.7015C105.63 62.6932 105.641 62.679 105.647 62.6633C105.653 62.6468 105.653 62.6295 105.647 62.613L105.105 61.4432C105.066 61.3623 105.056 61.2701 105.078 61.1824C105.099 61.0947 105.152 61.0183 105.224 60.9651C105.296 60.9119 105.385 60.8864 105.474 60.8931C105.564 60.8999 105.648 60.9373 105.712 61.0003L106.656 61.8756C106.669 61.8869 106.686 61.8929 106.703 61.8929C106.72 61.8929 106.738 61.8869 106.75 61.8756L107.694 60.9965C107.758 60.9336 107.843 60.8954 107.932 60.8894C108.022 60.8826 108.11 60.9081 108.183 60.9613C108.256 61.0145 108.307 61.091 108.329 61.1786C108.351 61.2663 108.341 61.3585 108.301 61.4394L107.761 62.6093C107.752 62.625 107.751 62.643 107.756 62.6595C107.761 62.676 107.773 62.6895 107.788 62.6977L108.911 63.3302C108.988 63.3745 109.047 63.4434 109.078 63.5266C109.11 63.609 109.112 63.7005 109.085 63.7844C109.057 63.8683 109.002 63.941 108.928 63.989C108.855 64.037 108.767 64.0579 108.679 64.0482L107.405 63.8901C107.388 63.8886 107.371 63.8938 107.357 63.9043C107.343 63.9148 107.333 63.9298 107.33 63.947L107.084 65.2113C107.069 65.3005 107.024 65.3814 106.955 65.4391C106.887 65.4968 106.799 65.5283 106.71 65.5276L106.682 65.5306ZM105.993 63.5836C106.082 63.5851 106.169 63.6165 106.237 63.6742C106.306 63.7319 106.353 63.8114 106.37 63.8998L106.615 65.1641C106.615 65.1813 106.622 65.1986 106.635 65.2113C106.647 65.224 106.664 65.2308 106.682 65.2308C106.7 65.2308 106.716 65.224 106.728 65.2113C106.741 65.1986 106.747 65.1821 106.747 65.1641L106.993 63.8998C107.011 63.8031 107.063 63.7177 107.142 63.6585C107.22 63.6 107.317 63.5731 107.414 63.5836L108.688 63.7417C108.704 63.7432 108.72 63.7394 108.732 63.7304C108.746 63.7222 108.755 63.7087 108.761 63.6937C108.767 63.6787 108.767 63.6615 108.761 63.6465C108.755 63.6308 108.744 63.6188 108.729 63.612L107.609 62.9795C107.525 62.9323 107.462 62.8544 107.432 62.7614C107.402 62.6685 107.408 62.5681 107.449 62.4804L107.99 61.3135C107.996 61.2993 107.998 61.2828 107.994 61.2671C107.99 61.2513 107.981 61.2379 107.968 61.2281C107.956 61.2169 107.94 61.2101 107.924 61.2101C107.908 61.2101 107.892 61.2169 107.88 61.2281L106.936 62.1072C106.865 62.1724 106.772 62.2091 106.675 62.2091C106.578 62.2091 106.486 62.1731 106.414 62.1072L105.471 61.2281C105.459 61.2169 105.443 61.2101 105.427 61.2101C105.41 61.2101 105.394 61.2169 105.382 61.2281C105.369 61.2379 105.36 61.2513 105.356 61.2671C105.352 61.2828 105.354 61.2993 105.36 61.3135L105.902 62.4804C105.942 62.5688 105.949 62.6693 105.919 62.7614C105.889 62.8544 105.826 62.9323 105.741 62.9795L104.64 63.615C104.626 63.6225 104.615 63.6353 104.609 63.6503C104.603 63.6652 104.603 63.6825 104.609 63.6975C104.614 63.7132 104.624 63.7267 104.638 63.7349C104.651 63.7432 104.668 63.7469 104.684 63.7447L105.942 63.5866L105.993 63.5836Z" fill="#6F46BE"/>
<path d="M114.86 65.1513C114.849 65.2023 114.822 65.2488 114.781 65.2817C114.74 65.3147 114.69 65.3327 114.638 65.3327C114.586 65.3327 114.535 65.3147 114.495 65.2817C114.455 65.2488 114.427 65.203 114.416 65.1513L114.171 63.887C114.16 63.8308 114.128 63.7806 114.082 63.7477C114.036 63.7139 113.979 63.6997 113.922 63.7072L112.649 63.8623C112.597 63.8676 112.545 63.8548 112.502 63.8263C112.459 63.7979 112.426 63.7552 112.411 63.7057C112.395 63.6562 112.397 63.603 112.415 63.5543C112.434 63.5056 112.468 63.4651 112.513 63.4389L113.633 62.8064C113.683 62.7786 113.721 62.7329 113.739 62.6782C113.756 62.6235 113.752 62.5643 113.728 62.5126L113.186 61.3457C113.165 61.2978 113.16 61.2446 113.174 61.1936C113.187 61.1434 113.217 61.0984 113.259 61.0677C113.301 61.037 113.353 61.022 113.405 61.0242C113.457 61.0272 113.506 61.0482 113.545 61.0827L114.488 61.9618C114.53 62.0037 114.587 62.027 114.646 62.027C114.705 62.027 114.761 62.0037 114.803 61.9618L115.747 61.0827C115.784 61.0452 115.834 61.0227 115.887 61.019C115.94 61.0152 115.993 61.0302 116.036 61.0617C116.079 61.0932 116.109 61.1389 116.121 61.1914C116.133 61.2431 116.127 61.2978 116.102 61.3457L115.561 62.5126C115.537 62.5643 115.534 62.6235 115.551 62.6782C115.569 62.7329 115.606 62.7786 115.655 62.8064L116.778 63.4389C116.824 63.4651 116.859 63.5056 116.877 63.5551C116.896 63.6045 116.898 63.6577 116.881 63.7079C116.865 63.7574 116.832 63.8001 116.788 63.8286C116.744 63.8571 116.692 63.8691 116.64 63.8631L115.382 63.7079C115.325 63.6997 115.268 63.7139 115.221 63.7477C115.175 63.7814 115.144 63.8316 115.133 63.8885L114.86 65.1528V65.1513Z" fill="#553597"/>
<path d="M114.637 65.493C114.546 65.4938 114.459 65.463 114.391 65.4046C114.322 65.3469 114.277 65.2659 114.262 65.1768L114.017 63.9125C114.016 63.9035 114.013 63.8952 114.008 63.8878C114.004 63.8803 113.998 63.8735 113.991 63.8683C113.984 63.863 113.976 63.8593 113.967 63.857C113.959 63.8548 113.95 63.8548 113.941 63.8555L112.667 64.0137C112.58 64.0234 112.492 64.0024 112.418 63.9537C112.344 63.9057 112.289 63.8338 112.262 63.7491C112.234 63.6652 112.236 63.5737 112.268 63.4913C112.3 63.4089 112.359 63.3392 112.435 63.2957L113.558 62.6632C113.573 62.6542 113.585 62.64 113.59 62.6235C113.595 62.6062 113.594 62.5882 113.586 62.5718L113.045 61.4049C113.005 61.324 112.995 61.2318 113.017 61.1441C113.039 61.0564 113.091 60.98 113.163 60.9268C113.236 60.8736 113.324 60.8481 113.414 60.8548C113.503 60.8616 113.588 60.899 113.652 60.962L114.596 61.8381C114.608 61.8501 114.624 61.8561 114.641 61.8561C114.658 61.8561 114.675 61.8493 114.687 61.8381L115.631 60.962C115.696 60.9013 115.779 60.8653 115.868 60.8601C115.957 60.8548 116.044 60.8803 116.116 60.932C116.188 60.9845 116.24 61.0594 116.262 61.1456C116.285 61.2318 116.277 61.3232 116.241 61.4042L115.699 62.574C115.692 62.5897 115.69 62.6077 115.696 62.6242C115.701 62.6407 115.713 62.6549 115.728 62.6624L116.848 63.295C116.924 63.3392 116.983 63.4081 117.015 63.4906C117.046 63.573 117.048 63.6644 117.021 63.7484C116.994 63.8323 116.939 63.9042 116.865 63.953C116.791 64.0009 116.702 64.0219 116.615 64.0129L115.357 63.8548C115.348 63.8533 115.339 63.854 115.331 63.8563C115.322 63.8585 115.315 63.8623 115.307 63.8675C115.3 63.8728 115.294 63.8795 115.29 63.887C115.285 63.8945 115.282 63.9035 115.281 63.9117L115.036 65.176C115.02 65.2689 114.97 65.3529 114.896 65.4106C114.822 65.469 114.73 65.4983 114.637 65.4915V65.493ZM113.951 63.5453C114.04 63.546 114.126 63.5782 114.195 63.6359C114.263 63.6936 114.309 63.7731 114.325 63.8615L114.57 65.1258C114.573 65.1415 114.581 65.1558 114.593 65.1655C114.605 65.1753 114.621 65.1805 114.637 65.1798C114.652 65.1813 114.669 65.1768 114.682 65.167C114.695 65.1573 114.703 65.1423 114.706 65.1258L114.951 63.8615C114.968 63.7648 115.021 63.6779 115.1 63.6195C115.178 63.561 115.276 63.534 115.373 63.5453L116.646 63.7004C116.662 63.7026 116.678 63.6996 116.69 63.6914C116.704 63.6832 116.713 63.6712 116.719 63.6562C116.725 63.6412 116.725 63.624 116.719 63.609C116.713 63.594 116.702 63.5812 116.687 63.5737L115.564 62.9412C115.48 62.8933 115.417 62.8153 115.388 62.7231C115.358 62.631 115.364 62.5305 115.404 62.4421L115.945 61.276C115.952 61.2618 115.954 61.2445 115.95 61.2295C115.946 61.2138 115.936 61.2003 115.923 61.1913C115.918 61.1853 115.911 61.1808 115.904 61.1778C115.896 61.1748 115.889 61.1733 115.881 61.1733C115.872 61.1733 115.865 61.1748 115.857 61.1778C115.85 61.1808 115.844 61.1853 115.838 61.1913L114.895 62.0704C114.823 62.1356 114.73 62.1723 114.633 62.1723C114.536 62.1723 114.444 62.1363 114.372 62.0704L113.429 61.1913C113.423 61.1853 113.417 61.1808 113.409 61.1778C113.402 61.1748 113.394 61.1733 113.386 61.1733C113.378 61.1733 113.371 61.1748 113.363 61.1778C113.356 61.1808 113.349 61.1853 113.344 61.1913C113.33 61.1996 113.32 61.2138 113.315 61.2295C113.312 61.2453 113.314 61.2625 113.321 61.2768L113.863 62.4429C113.903 62.5313 113.908 62.6325 113.878 62.7246C113.847 62.8168 113.784 62.8948 113.699 62.9427L112.579 63.5752C112.564 63.582 112.553 63.5947 112.547 63.6097C112.541 63.6247 112.541 63.6419 112.547 63.6569C112.552 63.6719 112.562 63.6839 112.576 63.6922C112.588 63.7004 112.604 63.7034 112.62 63.7011L113.893 63.546H113.95L113.951 63.5453Z" fill="#6F46BE"/>
<path d="M122.815 65.113C122.804 65.164 122.777 65.2104 122.736 65.2434C122.695 65.2764 122.645 65.2944 122.593 65.2944C122.541 65.2944 122.49 65.2764 122.45 65.2434C122.41 65.2104 122.382 65.164 122.371 65.113L122.126 63.8487C122.116 63.7918 122.085 63.7416 122.038 63.7078C121.991 63.6741 121.934 63.6599 121.877 63.6681L120.619 63.8232C120.567 63.8292 120.515 63.8172 120.471 63.7888C120.428 63.7603 120.395 63.7176 120.378 63.6681C120.362 63.6186 120.364 63.5647 120.382 63.5152C120.401 63.4665 120.436 63.4253 120.481 63.3991L121.604 62.7665C121.654 62.7381 121.691 62.6924 121.708 62.6384C121.726 62.5837 121.722 62.5245 121.698 62.4728L121.157 61.3067C121.133 61.2595 121.126 61.2047 121.138 61.153C121.15 61.1013 121.181 61.0549 121.223 61.0234C121.267 60.9919 121.319 60.9769 121.372 60.9807C121.425 60.9844 121.475 61.0069 121.513 61.0444L122.456 61.9234C122.498 61.9654 122.554 61.9886 122.613 61.9886C122.672 61.9886 122.729 61.9654 122.771 61.9234L123.715 61.0444C123.753 61.0091 123.803 60.9882 123.854 60.9852C123.906 60.9822 123.958 60.9979 124 61.0286C124.042 61.0594 124.073 61.1036 124.086 61.1545C124.099 61.2055 124.094 61.2587 124.073 61.3067L123.513 62.4795C123.489 62.5312 123.484 62.5904 123.502 62.6451C123.519 62.6998 123.557 62.7456 123.607 62.7733L124.727 63.4058C124.772 63.432 124.806 63.4725 124.825 63.5212C124.844 63.5699 124.845 63.6231 124.829 63.6726C124.814 63.7221 124.782 63.7648 124.739 63.7933C124.695 63.8217 124.644 63.8345 124.592 63.8292L123.334 63.6741C123.277 63.6666 123.22 63.6808 123.174 63.7146C123.128 63.7483 123.096 63.7978 123.085 63.854L122.815 65.1123V65.113Z" fill="#553597"/>
<path d="M122.595 65.4547C122.504 65.4547 122.417 65.424 122.349 65.3663C122.279 65.3086 122.233 65.2277 122.217 65.1392L121.972 63.875C121.968 63.8577 121.959 63.8427 121.945 63.8322C121.931 63.8225 121.913 63.818 121.896 63.821L120.638 63.9791C120.549 63.9904 120.46 63.9701 120.384 63.9222C120.308 63.8742 120.253 63.8008 120.225 63.7153C120.197 63.6299 120.2 63.5377 120.233 63.4538C120.266 63.3706 120.327 63.3009 120.405 63.2582L121.525 62.6257C121.54 62.6174 121.552 62.6039 121.557 62.5874C121.563 62.571 121.561 62.553 121.554 62.5372L121.012 61.3674C120.976 61.2864 120.968 61.195 120.991 61.1088C121.013 61.0226 121.065 60.947 121.137 60.8952C121.209 60.8428 121.296 60.8173 121.385 60.8233C121.474 60.8285 121.557 60.8645 121.622 60.9252L122.566 61.8005C122.578 61.8125 122.595 61.8185 122.612 61.8185C122.629 61.8185 122.645 61.8118 122.657 61.8005L123.601 60.9215C123.666 60.8615 123.751 60.8263 123.839 60.8218C123.927 60.8173 124.015 60.8428 124.085 60.8952C124.157 60.9477 124.208 61.0234 124.231 61.1088C124.253 61.195 124.245 61.2857 124.208 61.3666L123.667 62.5365C123.66 62.5522 123.658 62.5702 123.663 62.5867C123.669 62.6032 123.68 62.6174 123.695 62.6249L124.818 63.2574C124.896 63.3009 124.956 63.3698 124.988 63.453C125.02 63.5362 125.023 63.6276 124.994 63.7123C124.969 63.7985 124.914 63.8727 124.839 63.9214C124.764 63.9701 124.674 63.9904 124.586 63.9784L123.328 63.8202C123.311 63.818 123.293 63.8225 123.279 63.8322C123.266 63.842 123.255 63.857 123.252 63.8735L123.006 65.1377C122.992 65.2269 122.947 65.3079 122.878 65.3656C122.809 65.4233 122.722 65.4547 122.632 65.454H122.595V65.4547ZM121.906 63.5077C121.995 63.5077 122.081 63.5407 122.15 63.5984C122.217 63.6561 122.264 63.7356 122.28 63.824L122.525 65.0883C122.528 65.1048 122.537 65.119 122.549 65.1295C122.562 65.1392 122.578 65.1445 122.595 65.1422C122.61 65.143 122.626 65.1385 122.638 65.128C122.65 65.1183 122.658 65.104 122.66 65.0883L122.906 63.824C122.922 63.7273 122.975 63.6396 123.053 63.5812C123.132 63.5227 123.23 63.4957 123.328 63.5085L124.586 63.6636C124.601 63.6659 124.616 63.6629 124.63 63.6546C124.643 63.6464 124.653 63.6344 124.658 63.6194C124.665 63.6044 124.665 63.5872 124.659 63.5722C124.653 63.5565 124.642 63.5445 124.627 63.5377L123.507 62.9052C123.422 62.8572 123.358 62.78 123.328 62.6871C123.298 62.5949 123.303 62.4938 123.343 62.4053L123.884 61.2392C123.892 61.225 123.894 61.2078 123.891 61.192C123.886 61.1763 123.877 61.162 123.862 61.1538C123.856 61.1478 123.85 61.1433 123.843 61.1403C123.836 61.1373 123.827 61.1358 123.82 61.1358C123.812 61.1358 123.804 61.1373 123.797 61.1403C123.789 61.1433 123.783 61.1478 123.777 61.1538L122.833 62.0329C122.762 62.0981 122.669 62.1348 122.572 62.1348C122.475 62.1348 122.383 62.0988 122.311 62.0329L121.368 61.1538C121.362 61.1478 121.355 61.1433 121.349 61.1403C121.341 61.1373 121.333 61.1358 121.326 61.1358C121.317 61.1358 121.31 61.1373 121.302 61.1403C121.295 61.1433 121.288 61.1478 121.283 61.1538C121.27 61.1628 121.26 61.1763 121.255 61.192C121.252 61.2078 121.253 61.2242 121.261 61.2392L121.802 62.4053C121.842 62.4938 121.848 62.5942 121.818 62.6864C121.789 62.7785 121.725 62.8565 121.642 62.9052L120.519 63.5377C120.505 63.5452 120.493 63.558 120.487 63.5729C120.481 63.5879 120.481 63.6044 120.487 63.6202C120.492 63.6351 120.502 63.6471 120.515 63.6554C120.528 63.6636 120.544 63.6666 120.56 63.6644L121.833 63.5092H121.906V63.5077Z" fill="#6F46BE"/>
<path d="M140.301 63.9312C138.753 63.9312 137.545 63.1728 137.363 62.0884C137.356 62.0472 137.367 62.0052 137.391 61.9715C137.415 61.9377 137.451 61.9153 137.492 61.9078C137.512 61.904 137.534 61.904 137.554 61.9078C137.574 61.9115 137.594 61.9205 137.611 61.9325C137.628 61.9445 137.642 61.9602 137.653 61.9782C137.664 61.9962 137.671 62.0157 137.674 62.0367C137.825 62.9502 138.933 63.6172 140.301 63.6172C141.21 63.6172 142.619 62.9532 142.707 62.0367C142.713 61.9962 142.733 61.9587 142.765 61.9325C142.796 61.9063 142.836 61.8928 142.877 61.8943C142.898 61.8965 142.918 61.9025 142.936 61.9123C142.954 61.922 142.971 61.9355 142.984 61.9512C142.997 61.9677 143.006 61.9865 143.012 62.0059C143.018 62.0262 143.021 62.0472 143.018 62.0674C142.912 63.2088 141.335 63.9297 140.301 63.9297V63.9312Z" fill="#553597"/>
<path d="M143.261 64.3014C143.22 64.3014 143.182 64.2857 143.153 64.2572L142.071 63.217C142.056 63.2027 142.044 63.1855 142.036 63.166C142.028 63.1465 142.024 63.1263 142.024 63.1053C142.024 63.0843 142.027 63.0641 142.035 63.0446C142.042 63.0251 142.054 63.0079 142.068 62.9929C142.082 62.9779 142.1 62.9659 142.119 62.9577C142.138 62.9494 142.159 62.9449 142.179 62.9449C142.2 62.9449 142.22 62.9487 142.24 62.9562C142.259 62.9637 142.277 62.9757 142.291 62.9899L143.361 64.0301C143.384 64.0518 143.399 64.0803 143.406 64.1111C143.412 64.1418 143.41 64.174 143.398 64.2032C143.386 64.2325 143.366 64.2572 143.34 64.2752C143.313 64.2924 143.282 64.3022 143.251 64.3022H143.261V64.3014Z" fill="#553597"/>
<path d="M136.982 64.3014C136.962 64.3014 136.941 64.2977 136.922 64.2895C136.903 64.2812 136.886 64.2692 136.872 64.2542C136.857 64.2392 136.846 64.222 136.837 64.2025C136.83 64.183 136.825 64.1628 136.825 64.1418C136.825 64.1208 136.83 64.1006 136.837 64.0811C136.846 64.0616 136.857 64.0444 136.872 64.0294L137.942 62.9892C137.972 62.96 138.012 62.9435 138.054 62.9435C138.095 62.9435 138.135 62.96 138.165 62.9892C138.18 63.0042 138.191 63.0214 138.2 63.0409C138.207 63.0604 138.212 63.0806 138.212 63.1016C138.212 63.1226 138.207 63.1428 138.2 63.1623C138.191 63.1818 138.18 63.199 138.165 63.214L137.095 64.2542C137.065 64.2842 137.024 64.3014 136.982 64.3014Z" fill="#553597"/>
<path d="M140.184 65.2809C140.142 65.2809 140.103 65.2644 140.073 65.2344C140.044 65.2045 140.027 65.1647 140.027 65.1228V63.7701C140.027 63.7281 140.044 63.6876 140.073 63.6584C140.103 63.6284 140.142 63.6119 140.184 63.6119C140.226 63.6119 140.266 63.6284 140.295 63.6584C140.325 63.6884 140.341 63.7281 140.341 63.7701V65.1228C140.341 65.1647 140.325 65.2052 140.295 65.2344C140.266 65.2644 140.226 65.2809 140.184 65.2809Z" fill="#553597"/>
<path d="M132.094 65.3634H127.851C127.809 65.3634 127.769 65.3469 127.74 65.3169C127.71 65.2869 127.694 65.2472 127.694 65.2052C127.694 65.1633 127.71 65.1236 127.74 65.0936C127.769 65.0636 127.809 65.0471 127.851 65.0471H132.094C132.136 65.0471 132.176 65.0636 132.205 65.0936C132.235 65.1236 132.251 65.1633 132.251 65.2052C132.251 65.2472 132.235 65.2877 132.205 65.3169C132.176 65.3469 132.136 65.3634 132.094 65.3634Z" fill="#553597"/>
</g>
<defs>
<clipPath id="clip0_330_7608">
<rect width="49.0991" height="8.97812" fill="white" transform="translate(99.0265 58.647)"/>
</clipPath>
</defs>
</svg>
