<svg viewBox="0 0 292 85" fill="none" xmlns="http://www.w3.org/2000/svg">
<rect width="292" height="85" rx="6.6644" fill="#F3F5F7"/>
<path d="M44.86 37.144C44.22 37.144 43.628 37.032 43.084 36.808C42.548 36.584 42.076 36.272 41.668 35.872C41.26 35.472 40.944 35.008 40.72 34.48C40.496 33.944 40.384 33.368 40.384 32.752C40.384 32.128 40.496 31.552 40.72 31.024C40.944 30.496 41.256 30.036 41.656 29.644C42.056 29.244 42.524 28.936 43.06 28.72C43.604 28.496 44.196 28.384 44.836 28.384C45.468 28.384 46.052 28.496 46.588 28.72C47.132 28.936 47.604 29.244 48.004 29.644C48.412 30.036 48.728 30.5 48.952 31.036C49.176 31.564 49.288 32.14 49.288 32.764C49.288 33.38 49.176 33.956 48.952 34.492C48.728 35.02 48.416 35.484 48.016 35.884C47.616 36.276 47.144 36.584 46.6 36.808C46.064 37.032 45.484 37.144 44.86 37.144ZM44.836 35.428C45.34 35.428 45.78 35.316 46.156 35.092C46.54 34.868 46.836 34.556 47.044 34.156C47.252 33.748 47.356 33.28 47.356 32.752C47.356 32.352 47.296 31.992 47.176 31.672C47.056 31.344 46.884 31.064 46.66 30.832C46.436 30.592 46.168 30.412 45.856 30.292C45.552 30.164 45.212 30.1 44.836 30.1C44.332 30.1 43.888 30.212 43.504 30.436C43.128 30.652 42.836 30.96 42.628 31.36C42.42 31.752 42.316 32.216 42.316 32.752C42.316 33.152 42.376 33.516 42.496 33.844C42.616 34.172 42.784 34.456 43 34.696C43.224 34.928 43.492 35.108 43.804 35.236C44.116 35.364 44.46 35.428 44.836 35.428ZM54.168 37V33.676C54.168 33.372 54.072 33.128 53.88 32.944C53.696 32.752 53.46 32.656 53.172 32.656C52.972 32.656 52.796 32.7 52.644 32.788C52.492 32.868 52.372 32.988 52.284 33.148C52.196 33.3 52.152 33.476 52.152 33.676L51.444 33.328C51.444 32.872 51.544 32.472 51.744 32.128C51.944 31.784 52.22 31.52 52.572 31.336C52.932 31.144 53.336 31.048 53.784 31.048C54.216 31.048 54.596 31.152 54.924 31.36C55.26 31.56 55.524 31.828 55.716 32.164C55.908 32.5 56.004 32.868 56.004 33.268V37H54.168ZM50.316 37V31.168H52.152V37H50.316ZM59.6672 37.12C59.1152 37.12 58.6232 36.988 58.1912 36.724C57.7672 36.46 57.4312 36.1 57.1832 35.644C56.9432 35.188 56.8232 34.668 56.8232 34.084C56.8232 33.5 56.9432 32.98 57.1832 32.524C57.4312 32.068 57.7672 31.708 58.1912 31.444C58.6232 31.18 59.1152 31.048 59.6672 31.048C60.0672 31.048 60.4272 31.124 60.7472 31.276C61.0752 31.428 61.3432 31.64 61.5512 31.912C61.7672 32.176 61.8872 32.48 61.9112 32.824V35.284C61.8872 35.628 61.7712 35.94 61.5632 36.22C61.3552 36.492 61.0872 36.712 60.7592 36.88C60.4312 37.04 60.0672 37.12 59.6672 37.12ZM59.9912 35.464C60.2552 35.464 60.4832 35.408 60.6752 35.296C60.8672 35.176 61.0192 35.012 61.1312 34.804C61.2432 34.596 61.2992 34.356 61.2992 34.084C61.2992 33.812 61.2432 33.576 61.1312 33.376C61.0272 33.168 60.8752 33.004 60.6752 32.884C60.4832 32.764 60.2592 32.704 60.0032 32.704C59.7472 32.704 59.5192 32.764 59.3192 32.884C59.1272 33.004 58.9712 33.168 58.8512 33.376C58.7392 33.584 58.6832 33.82 58.6832 34.084C58.6832 34.348 58.7392 34.584 58.8512 34.792C58.9632 35 59.1192 35.164 59.3192 35.284C59.5192 35.404 59.7432 35.464 59.9912 35.464ZM63.0272 37H61.2272V35.428L61.5032 34.012L61.1912 32.596V28.288H63.0272V37ZM67.1999 37.132C66.5679 37.132 66.0039 37.004 65.5079 36.748C65.0199 36.484 64.6359 36.12 64.3559 35.656C64.0759 35.192 63.9359 34.668 63.9359 34.084C63.9359 33.5 64.0719 32.98 64.3439 32.524C64.6239 32.06 64.9999 31.696 65.4719 31.432C65.9439 31.168 66.4759 31.036 67.0679 31.036C67.6439 31.036 68.1519 31.16 68.5919 31.408C69.0319 31.656 69.3759 32 69.6239 32.44C69.8799 32.88 70.0079 33.384 70.0079 33.952C70.0079 34.056 69.9999 34.168 69.9839 34.288C69.9759 34.4 69.9559 34.532 69.9239 34.684L64.8959 34.696V33.436L69.1439 33.424L68.3519 33.952C68.3439 33.616 68.2919 33.34 68.1959 33.124C68.0999 32.9 67.9559 32.732 67.7639 32.62C67.5799 32.5 67.3519 32.44 67.0799 32.44C66.7919 32.44 66.5399 32.508 66.3239 32.644C66.1159 32.772 65.9519 32.956 65.8319 33.196C65.7199 33.436 65.6639 33.728 65.6639 34.072C65.6639 34.416 65.7239 34.712 65.8439 34.96C65.9719 35.2 66.1479 35.388 66.3719 35.524C66.6039 35.652 66.8759 35.716 67.1879 35.716C67.4759 35.716 67.7359 35.668 67.9679 35.572C68.1999 35.468 68.4039 35.316 68.5799 35.116L69.5879 36.124C69.2999 36.46 68.9519 36.712 68.5439 36.88C68.1359 37.048 67.6879 37.132 67.1999 37.132ZM76.0592 37.132C75.4273 37.132 74.8633 37.004 74.3673 36.748C73.8793 36.484 73.4953 36.12 73.2153 35.656C72.9353 35.192 72.7953 34.668 72.7953 34.084C72.7953 33.5 72.9313 32.98 73.2033 32.524C73.4833 32.06 73.8593 31.696 74.3313 31.432C74.8033 31.168 75.3353 31.036 75.9273 31.036C76.5033 31.036 77.0113 31.16 77.4513 31.408C77.8913 31.656 78.2353 32 78.4833 32.44C78.7393 32.88 78.8672 33.384 78.8672 33.952C78.8672 34.056 78.8593 34.168 78.8433 34.288C78.8353 34.4 78.8153 34.532 78.7833 34.684L73.7553 34.696V33.436L78.0033 33.424L77.2113 33.952C77.2033 33.616 77.1513 33.34 77.0553 33.124C76.9593 32.9 76.8153 32.732 76.6233 32.62C76.4393 32.5 76.2113 32.44 75.9393 32.44C75.6513 32.44 75.3993 32.508 75.1833 32.644C74.9753 32.772 74.8113 32.956 74.6913 33.196C74.5793 33.436 74.5233 33.728 74.5233 34.072C74.5233 34.416 74.5833 34.712 74.7033 34.96C74.8313 35.2 75.0073 35.388 75.2313 35.524C75.4633 35.652 75.7353 35.716 76.0473 35.716C76.3353 35.716 76.5953 35.668 76.8273 35.572C77.0593 35.468 77.2633 35.316 77.4393 35.116L78.4473 36.124C78.1593 36.46 77.8113 36.712 77.4033 36.88C76.9953 37.048 76.5473 37.132 76.0592 37.132ZM81.8775 37.144C81.5335 37.144 81.1935 37.1 80.8575 37.012C80.5295 36.924 80.2215 36.8 79.9335 36.64C79.6535 36.472 79.4135 36.28 79.2135 36.064L80.2575 35.008C80.4495 35.216 80.6775 35.38 80.9415 35.5C81.2055 35.612 81.4935 35.668 81.8055 35.668C82.0215 35.668 82.1855 35.636 82.2975 35.572C82.4175 35.508 82.4775 35.42 82.4775 35.308C82.4775 35.164 82.4055 35.056 82.2615 34.984C82.1255 34.904 81.9495 34.836 81.7335 34.78C81.5175 34.716 81.2895 34.648 81.0495 34.576C80.8095 34.504 80.5815 34.404 80.3655 34.276C80.1495 34.148 79.9735 33.972 79.8375 33.748C79.7015 33.516 79.6335 33.224 79.6335 32.872C79.6335 32.496 79.7295 32.172 79.9215 31.9C80.1135 31.62 80.3855 31.4 80.7375 31.24C81.0895 31.08 81.5015 31 81.9735 31C82.4695 31 82.9255 31.088 83.3415 31.264C83.7655 31.432 84.1095 31.684 84.3735 32.02L83.3295 33.076C83.1455 32.86 82.9375 32.708 82.7055 32.62C82.4815 32.532 82.2615 32.488 82.0455 32.488C81.8375 32.488 81.6815 32.52 81.5775 32.584C81.4735 32.64 81.4215 32.724 81.4215 32.836C81.4215 32.956 81.4895 33.052 81.6255 33.124C81.7615 33.196 81.9375 33.26 82.1535 33.316C82.3695 33.372 82.5975 33.44 82.8375 33.52C83.0775 33.6 83.3055 33.708 83.5215 33.844C83.7375 33.98 83.9135 34.164 84.0495 34.396C84.1855 34.62 84.2535 34.916 84.2535 35.284C84.2535 35.852 84.0375 36.304 83.6055 36.64C83.1815 36.976 82.6055 37.144 81.8775 37.144ZM87.3736 37.144C87.0296 37.144 86.6896 37.1 86.3536 37.012C86.0256 36.924 85.7176 36.8 85.4296 36.64C85.1496 36.472 84.9096 36.28 84.7096 36.064L85.7536 35.008C85.9456 35.216 86.1736 35.38 86.4376 35.5C86.7016 35.612 86.9896 35.668 87.3016 35.668C87.5176 35.668 87.6816 35.636 87.7936 35.572C87.9136 35.508 87.9736 35.42 87.9736 35.308C87.9736 35.164 87.9016 35.056 87.7576 34.984C87.6216 34.904 87.4456 34.836 87.2296 34.78C87.0136 34.716 86.7856 34.648 86.5456 34.576C86.3056 34.504 86.0776 34.404 85.8616 34.276C85.6456 34.148 85.4696 33.972 85.3336 33.748C85.1976 33.516 85.1296 33.224 85.1296 32.872C85.1296 32.496 85.2256 32.172 85.4176 31.9C85.6096 31.62 85.8816 31.4 86.2336 31.24C86.5856 31.08 86.9976 31 87.4696 31C87.9656 31 88.4216 31.088 88.8376 31.264C89.2616 31.432 89.6056 31.684 89.8696 32.02L88.8256 33.076C88.6416 32.86 88.4336 32.708 88.2016 32.62C87.9776 32.532 87.7576 32.488 87.5416 32.488C87.3336 32.488 87.1776 32.52 87.0736 32.584C86.9696 32.64 86.9176 32.724 86.9176 32.836C86.9176 32.956 86.9856 33.052 87.1216 33.124C87.2576 33.196 87.4336 33.26 87.6496 33.316C87.8656 33.372 88.0936 33.44 88.3336 33.52C88.5736 33.6 88.8016 33.708 89.0176 33.844C89.2336 33.98 89.4096 34.164 89.5456 34.396C89.6816 34.62 89.7496 34.916 89.7496 35.284C89.7496 35.852 89.5336 36.304 89.1016 36.64C88.6776 36.976 88.1016 37.144 87.3736 37.144ZM93.1817 37.12C92.6457 37.12 92.1657 36.988 91.7417 36.724C91.3257 36.46 90.9937 36.1 90.7457 35.644C90.5057 35.188 90.3857 34.668 90.3857 34.084C90.3857 33.5 90.5057 32.98 90.7457 32.524C90.9937 32.068 91.3257 31.708 91.7417 31.444C92.1657 31.18 92.6457 31.048 93.1817 31.048C93.5737 31.048 93.9257 31.124 94.2377 31.276C94.5577 31.428 94.8177 31.64 95.0177 31.912C95.2177 32.176 95.3297 32.48 95.3537 32.824V35.344C95.3297 35.688 95.2177 35.996 95.0177 36.268C94.8257 36.532 94.5697 36.74 94.2497 36.892C93.9297 37.044 93.5737 37.12 93.1817 37.12ZM93.5537 35.464C93.9457 35.464 94.2617 35.336 94.5017 35.08C94.7417 34.816 94.8617 34.484 94.8617 34.084C94.8617 33.812 94.8057 33.572 94.6937 33.364C94.5897 33.156 94.4377 32.996 94.2377 32.884C94.0457 32.764 93.8217 32.704 93.5657 32.704C93.3097 32.704 93.0817 32.764 92.8817 32.884C92.6897 32.996 92.5337 33.156 92.4137 33.364C92.3017 33.572 92.2457 33.812 92.2457 34.084C92.2457 34.348 92.3017 34.584 92.4137 34.792C92.5257 35 92.6817 35.164 92.8817 35.284C93.0817 35.404 93.3057 35.464 93.5537 35.464ZM94.7897 37V35.428L95.0657 34.012L94.7897 32.596V31.168H96.5897V37H94.7897ZM43.468 51.132C42.868 51.132 42.324 51 41.836 50.736C41.348 50.472 40.964 50.108 40.684 49.644C40.404 49.18 40.264 48.66 40.264 48.084C40.264 47.5 40.404 46.98 40.684 46.524C40.972 46.06 41.36 45.696 41.848 45.432C42.336 45.168 42.884 45.036 43.492 45.036C43.948 45.036 44.364 45.116 44.74 45.276C45.124 45.428 45.464 45.66 45.76 45.972L44.584 47.148C44.448 46.996 44.288 46.884 44.104 46.812C43.928 46.74 43.724 46.704 43.492 46.704C43.228 46.704 42.992 46.764 42.784 46.884C42.584 46.996 42.424 47.156 42.304 47.364C42.192 47.564 42.136 47.8 42.136 48.072C42.136 48.344 42.192 48.584 42.304 48.792C42.424 49 42.588 49.164 42.796 49.284C43.004 49.404 43.236 49.464 43.492 49.464C43.732 49.464 43.944 49.424 44.128 49.344C44.32 49.256 44.484 49.136 44.62 48.984L45.784 50.16C45.48 50.48 45.136 50.724 44.752 50.892C44.368 51.052 43.94 51.132 43.468 51.132ZM46.6011 51V45.168H48.4371V51H46.6011ZM48.4371 47.796L47.6691 47.196C47.8211 46.516 48.0771 45.988 48.4371 45.612C48.7971 45.236 49.2971 45.048 49.9371 45.048C50.2171 45.048 50.4611 45.092 50.6691 45.18C50.8851 45.26 51.0731 45.388 51.2331 45.564L50.1411 46.944C50.0611 46.856 49.9611 46.788 49.8411 46.74C49.7211 46.692 49.5851 46.668 49.4331 46.668C49.1291 46.668 48.8851 46.764 48.7011 46.956C48.5251 47.14 48.4371 47.42 48.4371 47.796ZM51.7222 51V45.168H53.5582V51H51.7222ZM52.6462 44.364C52.3582 44.364 52.1182 44.268 51.9262 44.076C51.7422 43.876 51.6502 43.636 51.6502 43.356C51.6502 43.068 51.7422 42.828 51.9262 42.636C52.1182 42.444 52.3582 42.348 52.6462 42.348C52.9342 42.348 53.1702 42.444 53.3542 42.636C53.5382 42.828 53.6302 43.068 53.6302 43.356C53.6302 43.636 53.5382 43.876 53.3542 44.076C53.1702 44.268 52.9342 44.364 52.6462 44.364ZM57.2871 51.12C56.7511 51.12 56.2711 50.988 55.8471 50.724C55.4311 50.46 55.0991 50.1 54.8511 49.644C54.6111 49.188 54.4911 48.668 54.4911 48.084C54.4911 47.5 54.6111 46.98 54.8511 46.524C55.0991 46.068 55.4311 45.708 55.8471 45.444C56.2711 45.18 56.7511 45.048 57.2871 45.048C57.6791 45.048 58.0311 45.124 58.3431 45.276C58.6631 45.428 58.9231 45.64 59.1231 45.912C59.3231 46.176 59.4351 46.48 59.4591 46.824V49.344C59.4351 49.688 59.3231 49.996 59.1231 50.268C58.9311 50.532 58.6751 50.74 58.3551 50.892C58.0351 51.044 57.6791 51.12 57.2871 51.12ZM57.6591 49.464C58.0511 49.464 58.3671 49.336 58.6071 49.08C58.8471 48.816 58.9671 48.484 58.9671 48.084C58.9671 47.812 58.9111 47.572 58.7991 47.364C58.6951 47.156 58.5431 46.996 58.3431 46.884C58.1511 46.764 57.9271 46.704 57.6711 46.704C57.4151 46.704 57.1871 46.764 56.9871 46.884C56.7951 46.996 56.6391 47.156 56.5191 47.364C56.4071 47.572 56.3511 47.812 56.3511 48.084C56.3511 48.348 56.4071 48.584 56.5191 48.792C56.6311 49 56.7871 49.164 56.9871 49.284C57.1871 49.404 57.4111 49.464 57.6591 49.464ZM58.8951 51V49.428L59.1711 48.012L58.8951 46.596V45.168H60.6951V51H58.8951ZM65.8398 51V47.676C65.8398 47.372 65.7438 47.128 65.5518 46.944C65.3678 46.752 65.1318 46.656 64.8438 46.656C64.6438 46.656 64.4678 46.7 64.3158 46.788C64.1638 46.868 64.0438 46.988 63.9558 47.148C63.8678 47.3 63.8238 47.476 63.8238 47.676L63.1158 47.328C63.1158 46.872 63.2158 46.472 63.4158 46.128C63.6158 45.784 63.8918 45.52 64.2438 45.336C64.6038 45.144 65.0078 45.048 65.4558 45.048C65.8878 45.048 66.2678 45.152 66.5958 45.36C66.9318 45.56 67.1958 45.828 67.3878 46.164C67.5798 46.5 67.6758 46.868 67.6758 47.268V51H65.8398ZM61.9878 51V45.168H63.8238V51H61.9878ZM71.675 51.132C71.075 51.132 70.531 51 70.043 50.736C69.555 50.472 69.171 50.108 68.891 49.644C68.611 49.18 68.471 48.66 68.471 48.084C68.471 47.5 68.611 46.98 68.891 46.524C69.179 46.06 69.567 45.696 70.055 45.432C70.543 45.168 71.091 45.036 71.699 45.036C72.155 45.036 72.571 45.116 72.947 45.276C73.331 45.428 73.671 45.66 73.967 45.972L72.791 47.148C72.655 46.996 72.495 46.884 72.311 46.812C72.135 46.74 71.931 46.704 71.699 46.704C71.435 46.704 71.199 46.764 70.991 46.884C70.791 46.996 70.631 47.156 70.511 47.364C70.399 47.564 70.343 47.8 70.343 48.072C70.343 48.344 70.399 48.584 70.511 48.792C70.631 49 70.795 49.164 71.003 49.284C71.211 49.404 71.443 49.464 71.699 49.464C71.939 49.464 72.151 49.424 72.335 49.344C72.527 49.256 72.691 49.136 72.827 48.984L73.991 50.16C73.687 50.48 73.343 50.724 72.959 50.892C72.575 51.052 72.147 51.132 71.675 51.132ZM71.243 53.58C70.923 53.58 70.647 53.54 70.415 53.46C70.191 53.388 69.967 53.284 69.743 53.148L70.307 52.404C70.411 52.484 70.523 52.544 70.643 52.584C70.771 52.632 70.911 52.656 71.063 52.656C71.231 52.656 71.351 52.628 71.423 52.572C71.495 52.524 71.531 52.464 71.531 52.392C71.531 52.32 71.487 52.256 71.399 52.2C71.311 52.144 71.175 52.116 70.991 52.116H70.607L71.015 50.844H72.047L71.735 51.72L71.207 51.3C71.735 51.292 72.143 51.392 72.431 51.6C72.727 51.816 72.875 52.096 72.875 52.44C72.875 52.76 72.727 53.028 72.431 53.244C72.135 53.468 71.739 53.58 71.243 53.58ZM77.1035 51.12C76.5675 51.12 76.0875 50.988 75.6635 50.724C75.2475 50.46 74.9155 50.1 74.6675 49.644C74.4275 49.188 74.3075 48.668 74.3075 48.084C74.3075 47.5 74.4275 46.98 74.6675 46.524C74.9155 46.068 75.2475 45.708 75.6635 45.444C76.0875 45.18 76.5675 45.048 77.1035 45.048C77.4955 45.048 77.8475 45.124 78.1595 45.276C78.4795 45.428 78.7395 45.64 78.9395 45.912C79.1395 46.176 79.2515 46.48 79.2755 46.824V49.344C79.2515 49.688 79.1395 49.996 78.9395 50.268C78.7475 50.532 78.4915 50.74 78.1715 50.892C77.8515 51.044 77.4955 51.12 77.1035 51.12ZM77.4755 49.464C77.8675 49.464 78.1835 49.336 78.4235 49.08C78.6635 48.816 78.7835 48.484 78.7835 48.084C78.7835 47.812 78.7275 47.572 78.6155 47.364C78.5115 47.156 78.3595 46.996 78.1595 46.884C77.9675 46.764 77.7435 46.704 77.4875 46.704C77.2315 46.704 77.0035 46.764 76.8035 46.884C76.6115 46.996 76.4555 47.156 76.3355 47.364C76.2235 47.572 76.1675 47.812 76.1675 48.084C76.1675 48.348 76.2235 48.584 76.3355 48.792C76.4475 49 76.6035 49.164 76.8035 49.284C77.0035 49.404 77.2275 49.464 77.4755 49.464ZM78.7115 51V49.428L78.9875 48.012L78.7115 46.596V45.168H80.5115V51H78.7115ZM84.0894 51V45.168H85.9254V51H84.0894ZM87.8214 51V47.592C87.8214 47.296 87.7294 47.068 87.5454 46.908C87.3694 46.74 87.1494 46.656 86.8854 46.656C86.7014 46.656 86.5374 46.696 86.3934 46.776C86.2494 46.848 86.1334 46.952 86.0454 47.088C85.9654 47.224 85.9254 47.392 85.9254 47.592L85.2174 47.28C85.2174 46.816 85.3174 46.42 85.5174 46.092C85.7174 45.756 85.9894 45.5 86.3334 45.324C86.6774 45.14 87.0654 45.048 87.4974 45.048C87.9054 45.048 88.2694 45.14 88.5894 45.324C88.9174 45.508 89.1774 45.764 89.3694 46.092C89.5614 46.42 89.6574 46.812 89.6574 47.268V51H87.8214ZM91.5534 51V47.592C91.5534 47.296 91.4614 47.068 91.2774 46.908C91.1014 46.74 90.8814 46.656 90.6174 46.656C90.4334 46.656 90.2694 46.696 90.1254 46.776C89.9814 46.848 89.8654 46.952 89.7774 47.088C89.6974 47.224 89.6574 47.392 89.6574 47.592L88.6014 47.448C88.6174 46.952 88.7334 46.528 88.9494 46.176C89.1734 45.816 89.4654 45.54 89.8254 45.348C90.1934 45.148 90.6054 45.048 91.0614 45.048C91.5094 45.048 91.9054 45.144 92.2494 45.336C92.6014 45.52 92.8774 45.788 93.0774 46.14C93.2854 46.484 93.3894 46.9 93.3894 47.388V51H91.5534ZM97.374 51.132C96.774 51.132 96.23 51 95.742 50.736C95.262 50.464 94.882 50.096 94.602 49.632C94.322 49.168 94.182 48.648 94.182 48.072C94.182 47.496 94.322 46.98 94.602 46.524C94.882 46.068 95.262 45.708 95.742 45.444C96.222 45.172 96.766 45.036 97.374 45.036C97.982 45.036 98.526 45.168 99.006 45.432C99.486 45.696 99.866 46.06 100.146 46.524C100.426 46.98 100.566 47.496 100.566 48.072C100.566 48.648 100.426 49.168 100.146 49.632C99.866 50.096 99.486 50.464 99.006 50.736C98.526 51 97.982 51.132 97.374 51.132ZM97.374 49.464C97.638 49.464 97.87 49.408 98.07 49.296C98.27 49.176 98.422 49.012 98.526 48.804C98.638 48.588 98.694 48.344 98.694 48.072C98.694 47.8 98.638 47.564 98.526 47.364C98.414 47.156 98.258 46.996 98.058 46.884C97.866 46.764 97.638 46.704 97.374 46.704C97.118 46.704 96.89 46.764 96.69 46.884C96.49 46.996 96.334 47.156 96.222 47.364C96.11 47.572 96.054 47.812 96.054 48.084C96.054 48.348 96.11 48.588 96.222 48.804C96.334 49.012 96.49 49.176 96.69 49.296C96.89 49.408 97.118 49.464 97.374 49.464ZM101.48 51V45.168H103.316V51H101.48ZM103.316 47.796L102.548 47.196C102.7 46.516 102.956 45.988 103.316 45.612C103.676 45.236 104.176 45.048 104.816 45.048C105.096 45.048 105.34 45.092 105.548 45.18C105.764 45.26 105.952 45.388 106.112 45.564L105.02 46.944C104.94 46.856 104.84 46.788 104.72 46.74C104.6 46.692 104.464 46.668 104.312 46.668C104.008 46.668 103.764 46.764 103.58 46.956C103.404 47.14 103.316 47.42 103.316 47.796ZM108.873 51.12C108.337 51.12 107.857 50.988 107.433 50.724C107.017 50.46 106.685 50.1 106.437 49.644C106.197 49.188 106.077 48.668 106.077 48.084C106.077 47.5 106.197 46.98 106.437 46.524C106.685 46.068 107.017 45.708 107.433 45.444C107.857 45.18 108.337 45.048 108.873 45.048C109.265 45.048 109.617 45.124 109.929 45.276C110.249 45.428 110.509 45.64 110.709 45.912C110.909 46.176 111.021 46.48 111.045 46.824V49.344C111.021 49.688 110.909 49.996 110.709 50.268C110.517 50.532 110.261 50.74 109.941 50.892C109.621 51.044 109.265 51.12 108.873 51.12ZM109.245 49.464C109.637 49.464 109.953 49.336 110.193 49.08C110.433 48.816 110.553 48.484 110.553 48.084C110.553 47.812 110.497 47.572 110.385 47.364C110.281 47.156 110.129 46.996 109.929 46.884C109.737 46.764 109.513 46.704 109.257 46.704C109.001 46.704 108.773 46.764 108.573 46.884C108.381 46.996 108.225 47.156 108.105 47.364C107.993 47.572 107.937 47.812 107.937 48.084C107.937 48.348 107.993 48.584 108.105 48.792C108.217 49 108.373 49.164 108.573 49.284C108.773 49.404 108.997 49.464 109.245 49.464ZM110.481 51V49.428L110.757 48.012L110.481 46.596V45.168H112.281V51H110.481ZM115.326 47.94L115.23 45.636H115.746C115.946 45.636 116.118 45.6 116.262 45.528C116.414 45.456 116.53 45.356 116.61 45.228C116.698 45.092 116.742 44.932 116.742 44.748C116.742 44.572 116.702 44.42 116.622 44.292C116.542 44.156 116.43 44.056 116.286 43.992C116.142 43.92 115.974 43.884 115.782 43.884C115.486 43.884 115.214 43.972 114.966 44.148C114.726 44.316 114.53 44.548 114.378 44.844L113.202 43.74C113.442 43.268 113.79 42.888 114.246 42.6C114.702 42.304 115.242 42.156 115.866 42.156C116.386 42.156 116.846 42.264 117.246 42.48C117.646 42.696 117.958 42.992 118.182 43.368C118.406 43.736 118.518 44.152 118.518 44.616C118.518 45.088 118.422 45.492 118.23 45.828C118.038 46.164 117.778 46.44 117.45 46.656C117.122 46.864 116.75 47.012 116.334 47.1L116.874 46.392L116.766 47.94H115.326ZM116.046 51.132C115.726 51.132 115.462 51.024 115.254 50.808C115.054 50.592 114.954 50.332 114.954 50.028C114.954 49.708 115.054 49.444 115.254 49.236C115.462 49.02 115.726 48.912 116.046 48.912C116.358 48.912 116.614 49.02 116.814 49.236C117.022 49.444 117.126 49.708 117.126 50.028C117.126 50.332 117.022 50.592 116.814 50.808C116.614 51.024 116.358 51.132 116.046 51.132Z" fill="#64748B"/>
<rect x="159" y="40.6074" width="42.8174" height="87.9716" rx="21.4087" transform="rotate(-61.4406 159 40.6074)" fill="#D2D8E0"/>
<g clip-path="url(#clip0_448_1631)">
<path d="M203.282 35.7536H179.173L193.235 21.5146C193.56 21.1853 194.004 21 194.467 21H217.852L203.282 35.7536Z" fill="white"/>
<path d="M217.852 21L203.19 35.6612V66H228.5C229.456 66 230.231 65.2251 230.231 64.2692V37.1591C230.231 36.7676 230.098 36.3876 229.854 36.0813L217.852 21Z" fill="#8996A9"/>
<path d="M179.173 35.7535V64.2692C179.173 65.2251 179.948 65.9999 180.904 65.9999H203.189V35.6611L179.173 35.7535Z" fill="#A6B0BF"/>
<path d="M191.15 52.6323C187.446 52.6323 184.452 55.62 184.452 59.3161V65.9999H197.849V59.3161C197.849 55.62 194.855 52.6323 191.15 52.6323Z" fill="#8996A9"/>
<path d="M212.788 45.4558H210.168C209.212 45.4558 208.437 46.2307 208.437 47.1866V57.5854C208.437 58.5413 209.212 59.3162 210.168 59.3162H212.788C213.744 59.3162 214.518 58.5413 214.518 57.5854V47.1866C214.518 46.2307 213.744 45.4558 212.788 45.4558Z" fill="#F6F7F7"/>
<path d="M223.376 45.4558H220.756C219.8 45.4558 219.025 46.2307 219.025 47.1866V57.5854C219.025 58.5413 219.8 59.3162 220.756 59.3162H223.376C224.332 59.3162 225.107 58.5413 225.107 57.5854V47.1866C225.107 46.2307 224.332 45.4558 223.376 45.4558Z" fill="#F6F7F7"/>
<path d="M194.696 45.7756C195.161 43.8225 193.951 41.8635 191.993 41.4C190.036 40.9365 188.072 42.1441 187.608 44.0972C187.143 46.0503 188.354 48.0093 190.311 48.4727C192.269 48.9362 194.232 47.7287 194.696 45.7756Z" fill="#8996A9"/>
<path d="M188.465 65.9075C188.496 65.9075 188.496 65.8767 188.496 65.8767L188.527 65.8459C188.527 65.8459 188.527 65.8459 188.496 65.8459C188.496 65.8459 188.465 65.8459 188.465 65.8767C188.465 65.8459 188.465 65.8767 188.465 65.9075Z" fill="#3A82E2"/>
<path d="M188.403 65.5686H188.434V65.5378C188.403 65.5378 188.403 65.5378 188.372 65.5378C188.403 65.5686 188.403 65.5686 188.403 65.5686Z" fill="#3A82E2"/>
<path d="M189.082 64.7063C188.99 64.6754 188.99 64.6755 189.021 64.583C188.99 64.583 188.959 64.5522 188.959 64.5522H188.928C188.866 64.5522 188.835 64.583 188.835 64.6446H188.804C188.866 64.6755 188.866 64.7371 188.897 64.7987C188.897 64.8295 188.897 64.8911 188.928 64.9219C188.959 64.9219 188.99 64.9219 189.021 64.8911C189.051 64.8911 189.113 64.8603 189.113 64.8295C189.082 64.7987 189.082 64.7679 189.082 64.7063Z" fill="#3A82E2"/>
<path d="M189.237 63.5358C189.267 63.5358 189.237 63.4742 189.206 63.4742C189.175 63.4742 189.175 63.4742 189.144 63.4742C189.082 63.4434 189.051 63.4742 189.021 63.5358C189.021 63.5358 189.021 63.5358 189.021 63.5666C189.051 63.5666 189.051 63.5358 189.082 63.5358C189.113 63.5358 189.144 63.5358 189.113 63.5666C189.113 63.6282 189.144 63.6282 189.175 63.6282C189.206 63.5974 189.175 63.5358 189.237 63.5358Z" fill="#3A82E2"/>
<path d="M188.341 64.6448C188.311 64.7372 188.311 64.7988 188.341 64.8912C188.403 64.8604 188.434 64.8296 188.496 64.7988C188.434 64.7372 188.403 64.7064 188.341 64.6448Z" fill="#3A82E2"/>
<path d="M188.619 65.0143C188.65 64.9835 188.65 64.9527 188.681 64.9219C188.681 64.9219 188.681 64.9219 188.65 64.8911C188.619 64.8911 188.588 64.8911 188.557 64.8911C188.527 64.9219 188.557 64.9835 188.496 64.9835V65.0143C188.557 65.0143 188.588 65.0143 188.619 65.0143Z" fill="#3A82E2"/>
<path d="M189.144 63.9054C189.175 63.9054 189.175 63.8438 189.175 63.813C189.144 63.813 189.113 63.813 189.082 63.813C189.082 63.813 189.082 63.813 189.082 63.8438C189.082 63.8438 189.082 63.9054 189.144 63.9054Z" fill="#3A82E2"/>
<path d="M188.527 65.23C188.496 65.2608 188.496 65.2608 188.465 65.2916C188.465 65.2916 188.465 65.3224 188.496 65.3224C188.527 65.2916 188.527 65.2608 188.527 65.23Z" fill="#3A82E2"/>
<path d="M189.206 63.382C189.237 63.3512 189.237 63.3511 189.237 63.3203V63.2896H189.206L189.175 63.3203C189.206 63.3203 189.206 63.3512 189.206 63.382Z" fill="#3A82E2"/>
<path d="M189.051 63.0432V63.074H189.082V63.0432C189.082 63.0432 189.082 63.0432 189.051 63.0432Z" fill="#3A82E2"/>
<path d="M189.175 64.5522C189.144 64.5522 189.113 64.5522 189.113 64.5522L189.144 64.583C189.144 64.583 189.175 64.583 189.175 64.5522Z" fill="#3A82E2"/>
<path d="M188.928 64.9836C188.959 65.0144 188.959 65.0144 188.99 65.0144V64.9836C188.959 64.9836 188.928 64.9836 188.928 64.9836Z" fill="#3A82E2"/>
<path d="M187.539 65.7537C187.508 65.7845 187.508 65.8153 187.477 65.8153C187.539 65.8153 187.539 65.8153 187.539 65.7537Z" fill="#3A82E2"/>
<path d="M188.372 63.998L188.403 64.0288C188.403 64.0288 188.403 64.0288 188.403 63.998C188.403 63.998 188.403 63.998 188.372 63.998Z" fill="#3A82E2"/>
<path d="M188.773 65.4149L188.804 65.4457C188.804 65.4149 188.804 65.4149 188.773 65.4149C188.773 65.3841 188.773 65.3841 188.773 65.4149Z" fill="#3A82E2"/>
<path d="M188.403 65.1683C188.403 65.1375 188.403 65.1375 188.434 65.1067C188.434 65.1067 188.434 65.1067 188.403 65.1067C188.403 65.1375 188.403 65.1683 188.403 65.1683Z" fill="#3A82E2"/>
<path d="M189.144 64.4294C189.113 64.3985 189.144 64.3985 189.144 64.4294C189.113 64.3985 189.113 64.4294 189.144 64.4294Z" fill="#3A82E2"/>
<path d="M189.144 63.7207C189.113 63.7515 189.113 63.7515 189.144 63.7207C189.144 63.7515 189.144 63.7515 189.144 63.7207Z" fill="#3A82E2"/>
<path d="M188.527 65.7228C188.465 65.6304 188.372 65.5687 188.372 65.4763C188.372 65.4455 188.341 65.4455 188.341 65.4147C188.311 65.3839 188.249 65.3531 188.218 65.3223C188.187 65.2915 188.156 65.2607 188.125 65.2607C188.125 65.3223 188.125 65.3223 188.187 65.3531C188.187 65.3531 188.187 65.3531 188.218 65.3839C188.218 65.3839 188.218 65.3839 188.249 65.3839C188.28 65.4147 188.28 65.4147 188.28 65.4455C188.249 65.538 188.28 65.5688 188.372 65.5996C188.434 65.6304 188.465 65.6612 188.527 65.692C188.527 65.692 188.527 65.7228 188.527 65.7536C188.557 65.7536 188.588 65.7536 188.619 65.7536C188.527 65.7536 188.527 65.7536 188.527 65.7228Z" fill="#3A82E2"/>
<path d="M187.909 64.891C187.878 64.8602 187.847 64.8602 187.817 64.891C187.909 64.9834 188.033 65.0758 188.125 65.1682C188.125 65.1682 188.125 65.1374 188.094 65.1374C188.094 65.1374 188.094 65.1374 188.094 65.1066C188.156 65.199 188.249 65.2606 188.372 65.2606C188.341 65.2298 188.341 65.199 188.31 65.1682C188.249 65.1374 188.187 65.1066 188.125 65.0758L188.094 65.045H188.125H188.156C188.187 65.0142 188.187 65.0142 188.218 64.9834C188.218 64.9834 188.187 64.9526 188.187 64.9218C188.187 64.9218 188.187 64.9218 188.156 64.891C188.125 64.8602 188.094 64.891 188.064 64.891C188.033 64.9218 188.033 64.9526 188.033 64.9834C188.002 64.9526 188.002 64.9526 187.971 64.9526C188.002 64.9526 187.971 64.9218 187.909 64.891Z" fill="#3A82E2"/>
<path d="M188.249 65.3223C188.218 65.2299 187.971 65.0759 187.909 65.0759C187.94 65.1683 188.187 65.3223 188.249 65.3223Z" fill="#3A82E2"/>
<path d="M187.168 65.2607C187.199 65.2607 187.199 65.2915 187.23 65.2915C187.23 65.2915 187.23 65.2915 187.23 65.2607C187.23 65.2607 187.199 65.2607 187.168 65.2607Z" fill="#3A82E2"/>
<path d="M189.144 63.3205C189.206 63.2281 189.206 63.1357 189.237 63.0741C189.237 63.0741 189.206 63.0433 189.206 63.0125C189.175 63.0741 189.175 63.1357 189.144 63.1665C189.082 63.2281 189.082 63.2281 189.144 63.3205Z" fill="#3A82E2"/>
<path d="M189.453 63.5051C189.484 63.4743 189.484 63.3819 189.453 63.3203C189.422 63.3819 189.391 63.4127 189.36 63.4743C189.36 63.4743 189.36 63.5051 189.391 63.5359C189.422 63.5051 189.453 63.5051 189.453 63.5051Z" fill="#3A82E2"/>
<path d="M188.928 63.7824C188.99 63.7516 189.021 63.7208 188.99 63.6284C188.959 63.69 188.959 63.7208 188.928 63.7824Z" fill="#3A82E2"/>
<path d="M187.693 65.9692H187.662H187.755C187.724 66 187.693 65.9692 187.693 65.9692Z" fill="#3A82E2"/>
<path d="M188.28 64.5523C188.31 64.5523 188.31 64.5523 188.31 64.5215C188.28 64.5215 188.28 64.5215 188.28 64.5523Z" fill="#3A82E2"/>
<path d="M189.206 64.491C189.175 64.491 189.175 64.5218 189.206 64.491V64.491Z" fill="#3A82E2"/>
<path d="M189.391 63.2278H189.36C189.298 63.351 189.267 63.4742 189.267 63.6282C189.329 63.6282 189.36 63.5974 189.36 63.5666C189.36 63.505 189.391 63.4742 189.391 63.4126C189.391 63.351 189.391 63.2894 189.391 63.2278Z" fill="#3A82E2"/>
<path d="M188.341 62.8275C188.341 62.8891 188.372 62.8891 188.403 62.8583C188.403 62.8583 188.403 62.8891 188.403 62.9199C188.496 62.8583 188.527 62.7659 188.465 62.7043C188.465 62.7043 188.434 62.7351 188.403 62.7351C188.403 62.6735 188.434 62.6427 188.434 62.5811C188.403 62.6427 188.372 62.7043 188.372 62.7351C188.341 62.7659 188.341 62.7967 188.341 62.8275Z" fill="#3A82E2"/>
<path d="M189.329 63.9671C189.391 63.9055 189.391 63.8439 189.329 63.7515C189.36 63.6899 189.36 63.6283 189.391 63.5667C189.36 63.6283 189.329 63.7207 189.298 63.8131C189.206 63.9055 189.298 63.9363 189.329 63.9671Z" fill="#3A82E2"/>
<path d="M188.496 63.4435C188.527 63.4127 188.527 63.3819 188.557 63.3511C188.527 63.3819 188.496 63.4127 188.496 63.4435Z" fill="#3A82E2"/>
<path d="M189.36 64.0288L189.329 64.0596C189.36 64.0596 189.36 64.0596 189.36 64.0288Z" fill="#3A82E2"/>
<path d="M188.835 64.0902C188.866 64.0902 188.866 64.0902 188.835 64.0902C188.866 64.0594 188.866 64.0902 188.835 64.0902C188.866 64.0594 188.835 64.0594 188.835 64.0902Z" fill="#3A82E2"/>
<path d="M189.298 62.8893C189.329 62.8893 189.329 62.8893 189.298 62.8893C189.36 62.8585 189.36 62.7969 189.36 62.7661C189.329 62.7969 189.329 62.8277 189.298 62.8893Z" fill="#3A82E2"/>
<path d="M190.286 62.1809C190.224 62.1501 190.194 62.1501 190.132 62.1193C190.132 62.0885 190.132 62.0577 190.163 62.0269C190.163 62.0577 190.132 62.0885 190.132 62.1193C190.101 62.1193 190.07 62.0885 190.07 62.0885C190.101 62.1193 190.101 62.1193 190.132 62.1501C190.132 62.1809 190.101 62.2425 190.101 62.2733C190.07 62.3349 190.163 62.3657 190.194 62.3965C190.255 62.3349 190.224 62.2425 190.194 62.1809V62.1501C190.224 62.1809 190.255 62.2117 190.317 62.2425C190.255 62.2733 190.255 62.2425 190.286 62.1809Z" fill="#3A82E2"/>
<path d="M189.761 62.0881C189.761 62.1497 189.73 62.2113 189.73 62.2421C189.792 62.2113 189.792 62.1805 189.761 62.0881Z" fill="#3A82E2"/>
<path d="M188.187 63.2277C188.249 63.1353 188.249 63.1353 188.218 63.0737C188.187 63.1045 188.187 63.1661 188.187 63.2277Z" fill="#3A82E2"/>
<path d="M188.527 62.9198C188.527 62.889 188.527 62.8582 188.557 62.7966C188.527 62.8274 188.496 62.8582 188.527 62.9198Z" fill="#3A82E2"/>
<path d="M187.508 64.9529C187.477 64.9529 187.477 64.9221 187.446 64.9221V64.9529C187.477 64.9837 187.477 64.9837 187.508 64.9529Z" fill="#3A82E2"/>
<path d="M187.724 64.0288V64.0596H187.755C187.755 64.0596 187.755 64.0596 187.724 64.0288Z" fill="#3A82E2"/>
<path d="M187.601 64.8604C187.601 64.8912 187.601 64.8912 187.601 64.8604C187.601 64.8912 187.631 64.8912 187.631 64.8912C187.631 64.8912 187.631 64.8604 187.601 64.8604Z" fill="#3A82E2"/>
<path d="M188.65 62.7969C188.619 62.7969 188.619 62.8277 188.619 62.8277C188.65 62.7969 188.65 62.7969 188.65 62.7969Z" fill="#3A82E2"/>
<path d="M188.249 64.6448C188.218 64.614 188.218 64.6448 188.218 64.6448C188.249 64.6448 188.249 64.6756 188.249 64.6448C188.28 64.6448 188.249 64.6756 188.249 64.6448Z" fill="#3A82E2"/>
<path d="M189.144 63.0432C189.144 63.0432 189.144 63.074 189.113 63.074C189.144 63.074 189.175 63.074 189.144 63.0432C189.175 63.0432 189.175 63.0432 189.144 63.0432Z" fill="#3A82E2"/>
<path d="M190.039 62.9816C190.039 62.9508 190.07 62.9508 190.039 62.9816C190.039 62.9508 190.039 62.9508 190.039 62.9816Z" fill="#3A82E2"/>
<path d="M188.897 62.581C188.99 62.5502 188.959 62.4578 188.959 62.3962C188.959 62.3962 188.959 62.3962 188.928 62.3962C188.928 62.4578 188.897 62.5194 188.897 62.581Z" fill="#3A82E2"/>
<path d="M190.194 62.5196C190.194 62.4888 190.194 62.4888 190.194 62.458C190.163 62.4888 190.163 62.5196 190.194 62.5196C190.163 62.5196 190.163 62.5196 190.194 62.5196Z" fill="#3A82E2"/>
<path d="M189.669 62.5812C189.669 62.5504 189.7 62.5812 189.669 62.5812C189.669 62.5504 189.669 62.5504 189.669 62.5812Z" fill="#3A82E2"/>
<path d="M191.243 59.994C191.243 59.994 191.274 59.9324 191.274 59.9016C191.243 59.9016 191.212 59.9016 191.181 59.9016C191.181 59.9016 191.181 59.9016 191.181 59.9324C191.181 59.9324 191.181 59.994 191.243 59.994Z" fill="#3A82E2"/>
<path d="M190.626 61.38C190.657 61.38 190.687 61.3492 190.687 61.3184C190.687 61.3184 190.687 61.3184 190.687 61.2876C190.657 61.3492 190.626 61.3492 190.626 61.38Z" fill="#3A82E2"/>
<path d="M191.305 60.6406C191.274 60.6406 191.243 60.6406 191.243 60.6714L191.274 60.7022C191.274 60.6714 191.305 60.6406 191.305 60.6406Z" fill="#3A82E2"/>
<path d="M191.058 61.072C191.089 61.1028 191.089 61.1028 191.12 61.1028V61.072C191.089 61.0412 191.058 61.072 191.058 61.072Z" fill="#3A82E2"/>
<path d="M189.823 62.2422C189.792 62.273 189.792 62.273 189.761 62.3038C189.792 62.3038 189.823 62.273 189.823 62.2422Z" fill="#3A82E2"/>
<path d="M190.934 61.5032L190.965 61.534C190.965 61.5032 190.965 61.5032 190.934 61.5032Z" fill="#3A82E2"/>
<path d="M190.533 61.2874C190.533 61.2566 190.533 61.2566 190.564 61.2258C190.564 61.2258 190.564 61.2258 190.533 61.2258C190.533 61.2566 190.533 61.2566 190.533 61.2874Z" fill="#3A82E2"/>
<path d="M191.274 60.4866C191.243 60.4866 191.243 60.4866 191.274 60.4866C191.243 60.4866 191.243 60.5174 191.274 60.4866C191.243 60.5174 191.243 60.5174 191.274 60.4866Z" fill="#3A82E2"/>
<path d="M191.243 59.8398C191.181 59.7782 191.151 59.7166 191.089 59.6858C191.058 59.7782 191.058 59.8398 191.089 59.9322C191.151 59.8706 191.181 59.8706 191.243 59.8398Z" fill="#3A82E2"/>
<path d="M191.212 60.5483C191.181 60.5483 191.181 60.5791 191.212 60.5483C191.181 60.5791 191.212 60.5791 191.212 60.5483Z" fill="#3A82E2"/>
<path d="M188.65 63.1047C188.681 63.1047 188.681 63.1355 188.65 63.1047V63.1047Z" fill="#3A82E2"/>
<path d="M190.44 61.2259C190.44 61.2259 190.41 61.2259 190.41 61.1951C190.44 61.1951 190.44 61.2259 190.44 61.2259Z" fill="#3A82E2"/>
<path d="M191.83 59.9012C191.861 59.8704 191.83 59.8088 191.83 59.778C191.737 59.7472 191.737 59.7472 191.768 59.6548C191.737 59.6548 191.706 59.624 191.706 59.624H191.675C191.614 59.624 191.583 59.6548 191.583 59.7164H191.552C191.614 59.7472 191.614 59.8088 191.644 59.8704C191.644 59.9012 191.644 59.9628 191.644 59.9936C191.675 59.9936 191.706 59.9936 191.737 59.9936C191.768 59.932 191.799 59.932 191.83 59.9012Z" fill="#3A82E2"/>
<path d="M191.367 60.0553C191.397 60.0553 191.428 59.9937 191.428 59.9629C191.428 59.9629 191.428 59.9629 191.397 59.9321C191.367 59.9321 191.336 59.9321 191.305 59.9321C191.274 59.9321 191.305 60.0245 191.243 60.0245V60.0553C191.305 60.0553 191.336 60.0553 191.367 60.0553Z" fill="#3A82E2"/>
<path d="M191.058 59.1931C191.089 59.1623 191.12 59.1315 191.15 59.1007C191.12 59.0699 191.12 59.0699 191.089 59.0391C191.089 59.1007 191.058 59.1315 191.058 59.1931Z" fill="#3A82E2"/>
<path d="M191.212 60.3326C191.243 60.3326 191.274 60.3018 191.274 60.271C191.274 60.271 191.274 60.271 191.274 60.2402C191.243 60.271 191.212 60.271 191.212 60.3326Z" fill="#3A82E2"/>
<path d="M191.922 58.1458H191.953V58.115C191.922 58.115 191.922 58.115 191.891 58.115C191.891 58.115 191.891 58.1458 191.922 58.1458Z" fill="#3A82E2"/>
<path d="M191.953 59.6243C191.922 59.6243 191.891 59.6243 191.891 59.6243L191.922 59.6551L191.953 59.6243Z" fill="#3A82E2"/>
<path d="M191.675 60.0555C191.706 60.0555 191.706 60.0555 191.737 60.0555V60.0247C191.706 60.0247 191.675 60.0247 191.675 60.0555Z" fill="#3A82E2"/>
<path d="M190.255 60.7639C190.224 60.7947 190.193 60.7947 190.193 60.8255C190.255 60.8255 190.255 60.8255 190.255 60.7639Z" fill="#3A82E2"/>
<path d="M191.521 60.4557L191.552 60.4865C191.552 60.4557 191.552 60.4557 191.521 60.4557C191.521 60.4249 191.521 60.4249 191.521 60.4557Z" fill="#3A82E2"/>
<path d="M191.181 60.1479C191.15 60.1479 191.15 60.1787 191.15 60.1787C191.15 60.1787 191.15 60.1787 191.181 60.1787C191.15 60.1787 191.181 60.1788 191.181 60.1479Z" fill="#3A82E2"/>
<path d="M191.891 59.4702C191.922 59.501 191.922 59.4702 191.922 59.4702H191.891Z" fill="#3A82E2"/>
<path d="M190.441 61.1335C190.41 61.1335 190.41 61.1335 190.441 61.1335C190.41 61.1643 190.441 61.1643 190.441 61.1335Z" fill="#3A82E2"/>
<path d="M190.348 57.8686C190.317 57.8378 190.317 57.8378 190.348 57.8686C190.317 57.8686 190.317 57.8686 190.348 57.8686Z" fill="#3A82E2"/>
<path d="M189.792 60.1479C189.823 60.1479 189.823 60.1479 189.854 60.1479C189.823 60.1171 189.823 60.1171 189.792 60.1479Z" fill="#3A82E2"/>
<path d="M191.027 60.1169L191.058 60.1477C191.058 60.1169 191.058 60.1169 191.027 60.1169Z" fill="#3A82E2"/>
<path d="M192.293 57.6837C192.262 57.6529 192.262 57.6221 192.231 57.6221C192.169 57.6837 192.169 57.7453 192.231 57.8377C192.231 57.7761 192.262 57.7453 192.293 57.6837Z" fill="#3A82E2"/>
<path d="M192.262 57.8994C192.2 57.9302 192.2 57.9918 192.169 58.0226C192.169 58.0226 192.169 58.0534 192.169 58.0842C192.2 58.0842 192.231 58.0842 192.231 58.0534C192.262 57.9918 192.293 57.961 192.262 57.8994Z" fill="#3A82E2"/>
<path d="M192.138 57.9917C192.107 58.0225 192.077 58.0533 192.077 58.1149C192.138 58.0841 192.138 58.0225 192.138 57.9917Z" fill="#3A82E2"/>
<path d="M190.348 60.887H190.379C190.379 60.8562 190.379 60.8562 190.348 60.8562H190.317C190.348 60.8562 190.348 60.8562 190.348 60.887Z" fill="#3A82E2"/>
<path d="M192.262 58.1766C192.262 58.1458 192.262 58.1458 192.262 58.115C192.262 58.115 192.262 58.115 192.231 58.115C192.262 58.1458 192.262 58.1766 192.262 58.1766Z" fill="#3A82E2"/>
<path d="M192.169 57.9302C192.169 57.961 192.138 57.961 192.138 57.9918C192.169 57.961 192.2 57.961 192.169 57.9302Z" fill="#3A82E2"/>
<path d="M190.41 59.3777C190.379 59.4393 190.348 59.5009 190.379 59.5625C190.44 59.4701 190.471 59.4393 190.41 59.3777Z" fill="#3A82E2"/>
<path d="M191.984 57.1294C191.922 57.0986 191.891 57.0986 191.86 57.1602C191.86 57.1602 191.86 57.1602 191.891 57.1602C191.891 57.2218 191.922 57.2834 191.953 57.3142C191.984 57.2218 191.953 57.1602 191.922 57.1294C191.922 57.1602 191.953 57.1602 191.984 57.1294Z" fill="#3A82E2"/>
<path d="M192.015 59.2854C192.015 59.2854 192.015 59.2546 192.046 59.2546C192.015 59.2546 191.984 59.2854 192.015 59.2854C191.984 59.2854 191.984 59.2854 192.015 59.2854Z" fill="#3A82E2"/>
<path d="M192.231 58.7927C192.169 58.8235 192.2 58.8543 192.231 58.8851C192.262 58.8851 192.293 58.8235 192.354 58.8543C192.385 58.8543 192.385 58.8235 192.354 58.7927L192.324 58.7619C192.293 58.7003 192.262 58.6695 192.2 58.7003C192.2 58.7003 192.2 58.7003 192.2 58.7311C192.231 58.7311 192.231 58.7311 192.262 58.7619C192.262 58.7619 192.293 58.7619 192.231 58.7927Z" fill="#3A82E2"/>
<path d="M192.015 58.9159C192.015 58.8851 192.046 58.8543 192.046 58.8235C192.015 58.8851 191.953 58.9775 191.922 59.0391C191.891 59.1007 191.953 59.1315 191.984 59.1931C192.046 59.1315 192.046 59.0699 192.015 59.0083C192.046 59.0083 192.046 59.0083 192.077 58.9775C192.046 58.9467 192.046 58.9159 192.015 58.9159Z" fill="#3A82E2"/>
<path d="M190.194 57.8378C190.224 57.7762 190.224 57.7454 190.163 57.7146C190.132 57.7762 190.132 57.807 190.194 57.8378Z" fill="#3A82E2"/>
<path d="M192.447 58.731C192.478 58.731 192.478 58.731 192.509 58.731H192.54V58.7002H192.509C192.478 58.7002 192.447 58.731 192.447 58.731Z" fill="#3A82E2"/>
<path d="M192.57 58.4538C192.601 58.4846 192.601 58.4538 192.632 58.4538C192.601 58.423 192.601 58.423 192.57 58.4538Z" fill="#3A82E2"/>
<path d="M192.354 57.0987C192.354 57.0679 192.354 57.0371 192.354 57.0371C192.354 57.0371 192.354 57.0371 192.323 57.0371C192.323 57.0371 192.323 57.0679 192.354 57.0987Z" fill="#3A82E2"/>
<path d="M191.521 57.3758C191.521 57.345 191.521 57.345 191.521 57.3142H191.49C191.49 57.345 191.49 57.345 191.521 57.3758C191.49 57.3758 191.49 57.3758 191.521 57.3758Z" fill="#3A82E2"/>
<path d="M190.101 57.6837C190.101 57.6529 190.101 57.6529 190.101 57.6221C190.101 57.6221 190.101 57.6221 190.07 57.6221C190.07 57.6529 190.07 57.6837 190.101 57.6837Z" fill="#3A82E2"/>
<path d="M190.286 58.0226C190.255 57.9918 190.286 57.9918 190.286 58.0226C190.255 57.9918 190.255 58.0226 190.255 58.0226C190.255 58.0226 190.255 58.0226 190.286 58.0226C190.255 58.0226 190.255 58.0226 190.286 58.0226Z" fill="#3A82E2"/>
<path d="M190.101 57.7762L190.07 57.7454C190.07 57.7454 190.07 57.7762 190.101 57.7762Z" fill="#3A82E2"/>
<path d="M192.077 58.9158C192.107 58.9158 192.107 58.9158 192.077 58.9158C192.107 58.885 192.107 58.9158 192.077 58.9158Z" fill="#3A82E2"/>
<path d="M192.416 58.3924C192.416 58.3616 192.416 58.3616 192.416 58.3308C192.385 58.3616 192.385 58.3616 192.416 58.3924Z" fill="#3A82E2"/>
<path d="M192.416 57.1294L192.447 57.0986C192.416 57.0986 192.416 57.1294 192.416 57.1294Z" fill="#3A82E2"/>
<path d="M192.107 57.3142C192.107 57.345 192.107 57.345 192.107 57.3142C192.107 57.345 192.138 57.3142 192.107 57.3142Z" fill="#3A82E2"/>
<path d="M191.768 57.2524C191.768 57.3448 191.768 57.4064 191.768 57.4988C191.86 57.4064 191.86 57.314 191.768 57.2524Z" fill="#3A82E2"/>
<path d="M191.737 57.6531C191.768 57.6531 191.768 57.6531 191.737 57.6531C191.768 57.5915 191.768 57.5299 191.768 57.4683C191.706 57.5299 191.737 57.5915 191.737 57.6531Z" fill="#3A82E2"/>
<path d="M192.324 56.8523C192.324 56.8831 192.293 56.8831 192.293 56.9139C192.293 56.9139 192.293 56.9139 192.324 56.9139C192.324 56.9139 192.354 56.8831 192.324 56.8523Z" fill="#3A82E2"/>
<path d="M191.274 58.4539C191.243 58.4231 191.243 58.4231 191.243 58.4231C191.243 58.4539 191.243 58.4539 191.274 58.4539Z" fill="#3A82E2"/>
<path d="M192.385 57.0061C192.385 56.9753 192.416 56.9753 192.385 57.0061C192.385 56.9445 192.385 56.8829 192.385 56.8213H192.354C192.385 56.8829 192.385 56.9445 192.385 57.0061C192.385 56.9753 192.385 56.9753 192.385 57.0061C192.354 57.0061 192.354 57.0061 192.354 57.0369C192.354 57.0061 192.385 57.0369 192.385 57.0061Z" fill="#3A82E2"/>
<path d="M191.521 57.1601C191.583 57.1293 191.613 57.0677 191.644 57.0061C191.552 57.0369 191.552 57.0985 191.521 57.1601Z" fill="#3A82E2"/>
<path d="M194.577 54.9425C194.608 54.9117 194.577 54.8501 194.608 54.8193C194.515 54.7885 194.515 54.7885 194.546 54.6961C194.515 54.6961 194.484 54.6653 194.484 54.6653H194.453C194.392 54.6653 194.361 54.6653 194.361 54.7577H194.33C194.392 54.7885 194.392 54.8501 194.392 54.9117C194.392 54.9425 194.392 55.0041 194.392 55.0349C194.423 55.0349 194.453 55.0349 194.484 55.0349C194.515 54.9733 194.577 54.9733 194.577 54.9425Z" fill="#3A82E2"/>
<path d="M194.762 53.9261C194.731 53.9261 194.7 53.9261 194.67 53.8953C194.67 53.8953 194.67 53.8953 194.639 53.9261C194.67 53.9569 194.639 54.0185 194.7 54.0185C194.762 54.0185 194.762 53.9569 194.762 53.9261Z" fill="#3A82E2"/>
<path d="M193.96 55.3429C193.99 55.3429 194.021 55.3121 194.021 55.2813C194.021 55.2813 194.021 55.2813 194.021 55.2505C193.99 55.2813 193.96 55.3121 193.96 55.3429Z" fill="#3A82E2"/>
<path d="M194.7 54.6961L194.731 54.6653C194.731 54.6653 194.731 54.6345 194.7 54.6345C194.7 54.6653 194.67 54.6653 194.7 54.6961Z" fill="#3A82E2"/>
<path d="M194.423 55.0965C194.453 55.0965 194.453 55.0965 194.484 55.0965V55.0657C194.453 55.0657 194.453 55.0657 194.423 55.0965Z" fill="#3A82E2"/>
<path d="M193.96 54.0493L193.99 54.0801C193.99 54.0801 193.99 54.0801 194.021 54.0493C194.021 54.0493 193.99 54.0493 193.96 54.0493Z" fill="#3A82E2"/>
<path d="M194.268 55.4663L194.299 55.4971C194.299 55.4971 194.299 55.4663 194.268 55.4663Z" fill="#3A82E2"/>
<path d="M194.7 54.5112H194.67V54.542C194.67 54.542 194.7 54.542 194.7 54.5112Z" fill="#3A82E2"/>
<path d="M194.639 54.573C194.608 54.6038 194.639 54.6038 194.639 54.573V54.573Z" fill="#3A82E2"/>
<path d="M194.484 54.6038C194.515 54.6346 194.515 54.6346 194.484 54.6038V54.6038Z" fill="#3A82E2"/>
<path d="M191.83 56.8213C191.83 56.8521 191.83 56.8521 191.83 56.8213C191.83 56.8521 191.86 56.8521 191.83 56.8213Z" fill="#3A82E2"/>
<path d="M193.805 55.1581C193.805 55.1273 193.805 55.1273 193.805 55.1581C193.774 55.1273 193.774 55.1273 193.805 55.1581Z" fill="#3A82E2"/>
<path d="M195.04 54.2034C195.071 54.1726 195.071 54.111 195.071 54.0802C194.978 54.0494 194.978 54.0494 195.04 53.9262C195.009 53.8954 195.009 53.8954 194.978 53.8954C194.978 53.8954 194.947 53.8954 194.947 53.8646C194.886 53.8338 194.855 53.8646 194.855 53.957H194.824C194.886 54.0186 194.886 54.0494 194.886 54.111C194.886 54.1418 194.886 54.2034 194.886 54.2342C194.917 54.2342 194.947 54.2342 194.978 54.2342C194.947 54.2342 195.009 54.2342 195.04 54.2034Z" fill="#3A82E2"/>
<path d="M195.194 53.9876C195.164 53.9568 195.164 53.9876 195.164 53.9876C195.164 53.9876 195.164 53.9876 195.194 53.9876Z" fill="#3A82E2"/>
<path d="M194.917 54.3572V54.3264C194.886 54.3264 194.886 54.3264 194.855 54.3264V54.3572C194.855 54.3264 194.886 54.3572 194.917 54.3572Z" fill="#3A82E2"/>
<path d="M194.67 54.7268L194.639 54.696C194.639 54.696 194.639 54.696 194.608 54.696C194.639 54.696 194.639 54.7268 194.67 54.7268Z" fill="#3A82E2"/>
<path d="M193.219 55.0042C193.25 55.035 193.25 55.035 193.25 55.035C193.25 55.0041 193.25 55.0042 193.219 55.0042Z" fill="#3A82E2"/>
<path d="M184.853 57.1295C184.853 57.0987 184.853 57.0987 184.853 57.1295C184.822 57.0987 184.822 57.0987 184.853 57.1295Z" fill="#3A82E2"/>
<path d="M194.114 53.8027C194.083 53.8027 194.083 53.8335 194.052 53.8335C194.052 53.8335 194.052 53.8335 194.052 53.8643C194.083 53.8643 194.114 53.8335 194.114 53.8027C194.145 53.8027 194.145 53.8027 194.114 53.8027Z" fill="#3A82E2"/>
</g>
<defs>
<clipPath id="clip0_448_1631">
<rect width="51.0577" height="45" fill="white" transform="translate(179.173 21)"/>
</clipPath>
</defs>
</svg>
