<svg width="37" height="49" viewBox="0 0 37 49" fill="none" xmlns="http://www.w3.org/2000/svg">
<path d="M24.6586 43.9702L25.5656 24.0151C25.6475 22.2132 24.4055 20.6624 23.2767 19.253L23.2577 19.2292C21.9825 17.6369 21.7806 15.5862 21.9052 14.4639C22.0861 10.4844 23.6417 2.52539 28.4169 2.52539C34.3859 2.52539 35.4712 9.57998 35.4712 14.4639C35.4712 16.5165 34.6725 18.0599 33.7044 19.1413C32.448 20.5449 31.2483 22.2761 31.4189 24.1522L33.1601 43.3062C33.2508 44.3041 33.0158 45.3426 32.2718 46.0138C29.8002 48.2437 26.4717 47.8449 25.022 45.6379C24.7021 45.1509 24.6321 44.5523 24.6586 43.9702Z" stroke="#6F46BE" stroke-width="3"/>
<path d="M2 2V10.4496C2 12.4183 2.72247 14.3185 4.03038 15.7899V15.7899C5.41201 17.3442 6.13746 19.3735 6.05434 21.4515L5.28018 40.8055C5.18772 43.1171 6.36037 46.5267 8.62706 46.9895V46.9895C12.6595 47.8127 13.732 42.8379 13.2602 38.7494L11.281 21.5949C11.0327 19.4429 11.7135 17.287 13.1528 15.6679V15.6679C14.3908 14.2751 15.0747 12.4764 15.0747 10.6129V2" stroke="#6F46BE" stroke-width="3" stroke-linecap="round"/>
<path d="M6.18384 2.52344V8.79929" stroke="#6F46BE" stroke-width="3" stroke-linecap="round"/>
<path d="M10.3677 2.52344V8.79929" stroke="#6F46BE" stroke-width="3" stroke-linecap="round"/>
</svg>
