
<svg width="263" height="233" viewBox="0 0 263 233" fill="none" xmlns="http://www.w3.org/2000/svg">
<path d="M207.072 64.3157C234.546 98.4161 211.581 139.328 180.266 148.061C158.865 154.031 157.282 164.189 132.702 182.496C108.417 200.584 66.0558 194.539 58.6085 160.943C51.1612 127.347 60.5643 95.5802 86.3079 68.8276C119.023 34.8313 179.601 30.212 207.072 64.3157Z" fill="#EDE3FF"/>
<mask id="mask0_307_835" style="mask-type:luminance" maskUnits="userSpaceOnUse" x="132" y="17" width="71" height="122">
<path d="M202.916 17.1746H132.328V138.529H202.916V17.1746Z" fill="white"/>
</mask>
<g mask="url(#mask0_307_835)">
<path d="M145.792 138.204H194.115C198.797 138.204 202.589 134.365 202.589 129.72V25.9105C202.589 21.2641 198.793 17.4998 194.112 17.4998H145.797L145.794 138.204H145.792Z" fill="#A78ED7"/>
<path d="M141.341 137.993L189.448 138.131C194.131 138.131 197.926 134.365 197.926 129.72V25.9105C197.926 21.2641 194.129 17.4998 189.448 17.4998H141.134C136.451 17.4998 132.657 21.2657 132.657 25.9105V129.718C132.657 134.363 136.66 137.993 141.343 137.993H141.341Z" fill="#A78ED7"/>
<path d="M197.802 31.2057H132.781V123.153H197.802V31.2057Z" fill="#6F46BE"/>
<path d="M197.718 123.157H132.44V123.808H197.718V123.157Z" fill="#553597"/>
<path d="M141.13 138.529H189.453C194.307 138.529 198.254 134.577 198.254 129.72V25.9105C198.254 21.0928 194.303 17.1746 189.448 17.1746H141.134C136.279 17.1746 132.328 21.0944 132.328 25.9105V129.718C132.328 134.576 136.275 138.527 141.129 138.527L141.13 138.529ZM189.448 17.825C193.942 17.825 197.598 21.4529 197.598 25.9105V129.718C197.598 134.217 193.944 137.877 189.452 137.877H141.129C136.636 137.877 132.982 134.217 132.982 129.718V25.9105C132.982 21.4513 136.638 17.825 141.134 17.825H189.448Z" fill="#553597"/>
<path d="M158.509 26.5418H172.074C172.894 26.5418 173.558 25.8834 173.558 25.0696C173.558 24.2559 172.894 23.5975 172.074 23.5975H158.509C157.69 23.5975 157.026 24.2559 157.026 25.0696C157.026 25.8834 157.69 26.5418 158.509 26.5418Z" fill="#553597"/>
<path d="M150.456 26.5418C151.275 26.5418 151.939 25.8827 151.939 25.0696C151.939 24.2566 151.275 23.5975 150.456 23.5975C149.636 23.5975 148.972 24.2566 148.972 25.0696C148.972 25.8827 149.636 26.5418 150.456 26.5418Z" fill="#553597"/>
<path d="M141.129 138.529H189.452C194.305 138.529 198.253 134.577 198.253 129.722V123.614C198.253 123.435 198.106 123.289 197.925 123.289H132.655C132.475 123.289 132.328 123.435 132.328 123.614V129.722C132.328 134.579 136.275 138.529 141.129 138.529ZM197.598 123.939V129.722C197.598 134.22 193.944 137.88 189.452 137.88H141.129C136.636 137.88 132.982 134.22 132.982 129.722V123.939H197.598Z" fill="#553597"/>
<path d="M197.718 31.0535H132.44V31.7039H197.718V31.0535Z" fill="#553597"/>
<path d="M145.792 138.529H194.115C198.968 138.529 202.916 134.577 202.916 129.72V25.9105C202.916 21.0928 198.967 17.1746 194.112 17.1746H145.797V17.825H194.112C198.606 17.825 202.261 21.4529 202.261 25.9105V129.718C202.261 134.217 198.607 137.877 194.115 137.877H145.792V138.527V138.529Z" fill="#553597"/>
</g>
<mask id="mask1_307_835" style="mask-type:luminance" maskUnits="userSpaceOnUse" x="58" y="49" width="119" height="165">
<path d="M176.121 49.229H58.899V213.731H176.121V49.229Z" fill="white"/>
</mask>
<g mask="url(#mask1_307_835)">
<path d="M109.086 68.7281C109.086 68.7281 105.336 66.3724 104.96 63.1553C104.585 59.9383 107.132 60.0049 106.882 57.4763C106.653 55.138 107.715 52.7236 110.56 51.7782C114.678 50.406 116.002 52.0336 118.657 51.0992C121.311 50.1649 125.49 47.7235 126.808 51.9321C127.657 54.6494 126.378 58.1124 122.692 59.3973C119.746 60.4253 115.943 66.4692 114.062 67.1894C112.436 67.8001 110.775 68.3141 109.087 68.7297L109.086 68.7281Z" fill="#6F46BE"/>
<path d="M109.085 69.0391C109.109 69.0422 109.133 69.0422 109.157 69.0391C110.858 68.6187 112.533 68.0984 114.174 67.4813C115.066 67.1355 116.261 65.7982 117.641 64.2483C119.318 62.3781 121.218 60.2365 122.794 59.6876C126.757 58.3075 127.973 54.6098 127.108 51.8337C126.75 50.69 126.167 49.9143 125.33 49.524C123.706 48.7578 121.593 49.6018 119.728 50.3505C119.311 50.5155 118.92 50.6614 118.556 50.8026C117.427 51.2024 116.553 51.1135 115.544 50.9993C113.833 50.7423 112.086 50.9073 110.456 51.4831C107.252 52.5428 106.347 55.2887 106.565 57.5017C106.669 58.5582 106.233 59.0975 105.732 59.721C105.104 60.4808 104.421 61.3422 104.644 63.1903C105.045 66.5215 108.766 68.8915 108.923 68.9915C108.971 69.0232 109.028 69.0406 109.085 69.0406V69.0391ZM123.863 49.8508C124.273 49.8413 124.68 49.9254 125.054 50.0935C125.722 50.4044 126.196 51.0279 126.503 52.0225C127.28 54.5162 126.17 57.8507 122.58 59.1039C120.846 59.7083 118.891 61.9085 117.163 63.8422C115.894 65.2668 114.693 66.6167 113.937 66.9054C112.369 67.4908 110.769 67.9889 109.145 68.395C108.536 67.981 105.586 65.8489 105.273 63.1157C105.082 61.5294 105.638 60.8409 106.214 60.1112C106.754 59.4418 107.311 58.7485 107.183 57.443C106.985 55.4664 107.795 53.0203 110.631 52.0733C112.177 51.5323 113.833 51.3769 115.453 51.6211C116.497 51.7338 117.481 51.8369 118.744 51.3911C119.121 51.2595 119.519 51.0977 119.942 50.9295C121.244 50.4155 122.657 49.8508 123.864 49.8508H123.863Z" fill="#6F46BE"/>
<path d="M101.23 82.9259C102.884 81.0064 104.261 80.1212 106.986 79.1425L109.447 65.1812C106.601 65.3652 106.481 60.1573 110.387 61.0916C111.253 61.282 111.171 63.2728 111.171 63.2728C111.218 65.1653 112.679 64.8687 113.134 62.1481C113.846 57.8809 119.918 60.8791 122.445 59.3086C123.015 65.0432 122.758 68.8869 121.899 71.0808C120.688 74.1757 117.211 74.7087 114.632 73.1747C114.675 74.9228 114.67 78.4048 114.661 80.3433C116.143 81.8488 118.447 84.5598 118.447 84.5598C113.492 85.7194 107.56 84.7597 101.231 82.9227L101.23 82.9259Z" fill="#EDE3FF"/>
<path d="M121.32 59.6384C121.32 59.6384 122.6 67.5954 120.59 71.2297C118.835 74.3992 115.399 73.4458 115.399 73.4458C115.399 73.4458 118.687 75.7714 121.574 71.7373C123.586 68.249 122.342 59.1641 122.342 59.1641L121.32 59.6384Z" fill="white"/>
<path d="M116.782 64.3862C117.607 64.3862 118.276 64.0233 118.276 63.5756C118.276 63.1279 117.607 62.765 116.782 62.765C115.956 62.765 115.287 63.1279 115.287 63.5756C115.287 64.0233 115.956 64.3862 116.782 64.3862Z" fill="white"/>
<path d="M116.782 64.6973C117.813 64.6973 118.591 64.2135 118.591 63.5758C118.591 62.9381 117.813 62.4574 116.782 62.4574C115.75 62.4574 114.972 62.9444 114.972 63.5662C114.972 64.1881 115.75 64.6973 116.782 64.6973ZM116.782 63.0792C117.491 63.0792 117.963 63.3902 117.963 63.5742C117.963 63.7582 117.491 64.0723 116.782 64.0723C116.073 64.0723 115.6 63.7614 115.6 63.5742C115.6 63.387 116.069 63.0792 116.782 63.0792Z" fill="#6F46BE"/>
<path d="M117.596 64.2643C117.894 64.2643 118.136 64.0242 118.136 63.7281C118.136 63.432 117.894 63.1919 117.596 63.1919C117.298 63.1919 117.056 63.432 117.056 63.7281C117.056 64.0242 117.298 64.2643 117.596 64.2643Z" fill="#6F46BE"/>
<path d="M121.33 64.3862C122.105 64.3862 122.734 64.0233 122.734 63.5756C122.734 63.1279 122.105 62.765 121.33 62.765C120.555 62.765 119.926 63.1279 119.926 63.5756C119.926 64.0233 120.555 64.3862 121.33 64.3862Z" fill="white"/>
<path d="M121.33 64.6973C122.293 64.6973 123.048 64.2055 123.048 63.5758C123.048 62.946 122.293 62.4574 121.33 62.4574C120.367 62.4574 119.612 62.9444 119.612 63.5662C119.612 64.1881 120.367 64.6973 121.33 64.6973ZM121.33 63.0792C121.994 63.0792 122.421 63.3727 122.421 63.5742C122.421 63.7756 121.994 64.0723 121.33 64.0723C120.666 64.0723 120.239 63.7614 120.239 63.5742C120.239 63.387 120.666 63.0792 121.33 63.0792Z" fill="#6F46BE"/>
<path d="M122.017 64.2643C122.315 64.2643 122.556 64.0242 122.556 63.7281C122.556 63.432 122.315 63.1919 122.017 63.1919C121.718 63.1919 121.477 63.432 121.477 63.7281C121.477 64.0242 121.718 64.2643 122.017 64.2643Z" fill="#6F46BE"/>
<path d="M119.258 68.1572H119.3C119.466 68.1382 120.297 68.0081 120.534 67.5147C120.638 67.2911 120.614 67.0293 120.472 66.8294C120.186 66.2996 119.95 65.7444 119.766 65.1717C119.714 65.0083 119.538 64.9163 119.373 64.9687C119.209 65.021 119.116 65.1955 119.169 65.3605C119.367 65.9808 119.624 66.5804 119.937 67.1531C119.96 67.188 119.979 67.2276 119.969 67.2467C119.757 67.418 119.496 67.5195 119.223 67.5401C119.051 67.5512 118.918 67.6988 118.928 67.8701C118.937 68.0414 119.088 68.1731 119.26 68.1636V68.1572H119.258Z" fill="#6F46BE"/>
<path d="M118.669 70.7348C119.15 70.7348 119.618 70.5841 120.007 70.3049C120.148 70.2034 120.178 70.0083 120.076 69.8687C119.974 69.7291 119.777 69.699 119.637 69.8005C118.605 70.508 117.55 69.7814 117.505 69.7513C117.369 69.645 117.171 69.6688 117.064 69.8037C116.957 69.9385 116.981 70.1352 117.117 70.2415C117.123 70.2462 117.131 70.251 117.138 70.2558C117.59 70.5603 118.121 70.7269 118.668 70.7364L118.669 70.7348Z" fill="#6F46BE"/>
<path d="M114.705 73.2287C113.757 72.71 112.914 72.02 112.219 71.1935C112.695 72.7925 113.717 74.5343 114.667 74.934C114.65 74.3661 114.662 73.7966 114.705 73.2287Z" fill="#6F46BE"/>
<path d="M114.678 75.2481C114.742 75.2481 114.804 75.2259 114.857 75.1894C114.945 75.1291 114.996 75.0276 114.991 74.9213C114.956 74.2201 115.026 73.2604 115.026 73.2509C115.041 73.1224 114.974 72.9987 114.857 72.94C113.95 72.4371 113.144 71.7756 112.474 70.9856C112.366 70.8508 112.169 70.8286 112.034 70.9364C111.933 71.0157 111.891 71.1474 111.928 71.2696C112.407 72.8813 113.465 74.7516 114.555 75.2132C114.594 75.2338 114.635 75.2465 114.678 75.2512V75.2481ZM114.389 73.4063C114.389 73.6189 114.357 73.9774 114.354 74.3407C113.81 73.8029 113.369 73.1684 113.056 72.4704C113.465 72.8178 113.902 73.1303 114.364 73.4048H114.389V73.4063Z" fill="#6F46BE"/>
<path d="M113.784 85.3845C115.378 85.3988 116.967 85.2275 118.521 84.8769C118.626 84.8531 118.711 84.7754 118.746 84.6739C118.786 84.5676 118.763 84.4486 118.69 84.3629C118.664 84.3344 116.451 81.7328 114.978 80.2178C114.978 78.4507 114.978 75.5112 114.959 73.6996C116.299 74.3691 117.85 74.4912 119.279 74.0391C120.638 73.5838 121.713 72.5368 122.2 71.1964C123.125 68.828 123.317 64.8193 122.767 59.2799C122.758 59.172 122.692 59.0784 122.595 59.0308C122.496 58.9801 122.376 58.9864 122.282 59.0467C121.392 59.6019 119.905 59.5274 118.47 59.4576C116.05 59.3386 113.313 59.2053 112.827 62.1004C112.58 63.5963 112.034 64.2007 111.802 64.1737C111.679 64.1737 111.505 63.8628 111.489 63.2695C111.489 63.0569 111.548 61.0248 110.46 60.7758C108.764 60.3713 107.921 61.0867 107.567 61.5277C106.971 62.3494 106.896 63.4377 107.375 64.3323C107.702 64.9827 108.346 65.419 109.074 65.4824L106.711 78.9044C104.031 79.8831 102.635 80.8238 100.993 82.7195C100.925 82.7988 100.901 82.9083 100.931 83.0098C100.961 83.1113 101.041 83.1922 101.143 83.2224C106.137 84.6691 110.269 85.3861 113.784 85.3861V85.3845ZM117.859 84.3804C113.728 85.21 108.59 84.6913 101.777 82.7655C103.245 81.1538 104.558 80.34 107.078 79.439C107.185 79.4009 107.262 79.3089 107.282 79.1994L109.74 65.2381C109.756 65.1445 109.729 65.0478 109.665 64.9764C109.601 64.905 109.507 64.8669 109.411 64.8733C108.787 64.9352 108.191 64.6068 107.913 64.0468C107.555 63.3679 107.608 62.5493 108.047 61.9211C108.499 61.3437 109.301 61.1581 110.304 61.3976C110.721 61.4912 110.874 62.5699 110.847 63.2679C110.882 64.6337 111.543 64.786 111.743 64.7987C112.492 64.8511 113.159 63.8327 113.433 62.2051C113.824 59.8573 116.06 59.9668 118.423 60.0857C119.758 60.1508 121.135 60.2174 122.167 59.7986C122.649 65.0034 122.459 68.763 121.593 70.9759C121.176 72.1466 120.244 73.0651 119.064 73.4696C117.628 73.9058 116.072 73.7044 114.796 72.9144C114.699 72.8589 114.579 72.8589 114.483 72.9144C114.384 72.9715 114.324 73.0778 114.327 73.192C114.37 74.9306 114.365 78.4285 114.356 80.3606C114.356 80.4431 114.389 80.5208 114.447 80.5795C115.56 81.7042 117.187 83.565 117.872 84.3724L117.859 84.3788V84.3804Z" fill="#6F46BE"/>
<path d="M100.273 164.882H95.5076V195.662H100.273V164.882Z" fill="#EDE3FF"/>
<path d="M95.5045 195.974H100.257C100.43 195.974 100.57 195.835 100.57 195.663V164.884C100.57 164.711 100.43 164.573 100.257 164.573H95.4885C95.3161 164.573 95.1755 164.712 95.1755 164.884V195.663C95.1755 195.836 95.3161 195.976 95.4885 195.976C95.4933 195.976 95.4997 195.976 95.5045 195.976V195.974ZM99.9586 195.351H95.8175V165.195H99.9426L99.9586 195.351Z" fill="#6F46BE"/>
<path d="M95.1291 194.137H100.663L130.324 205.198C135.224 206.445 116.748 210.344 98.1603 210.554C79.0599 210.773 59.8429 207.25 65.7551 205.198L95.1291 194.137Z" fill="#EDE3FF"/>
<path d="M101.565 194.443C101.565 194.443 119.399 202.581 118.754 204.835C118.108 207.089 116.195 208.977 111.446 209.85C120.437 209.267 131.471 206.87 131.18 205.486C129.048 204.762 101.565 194.442 101.565 194.442V194.443Z" fill="white"/>
<path d="M96.4962 210.876H98.1699C105.745 210.776 113.303 210.143 120.789 208.98C124.698 208.357 131.281 207.11 131.447 205.776C131.516 205.198 130.72 204.984 130.431 204.913L100.773 193.855C100.738 193.842 100.701 193.836 100.663 193.836H95.1292C95.0924 193.836 95.0541 193.842 95.019 193.855L65.6449 204.919C65.3 205.038 64.2315 205.408 64.3625 206.166C64.642 207.746 71.3399 208.922 75.3133 209.483C82.3338 210.422 89.4118 210.887 96.4962 210.876ZM130.794 205.72C130.061 206.945 115.258 210.062 98.1571 210.243C80.4573 210.446 65.2409 207.587 64.9805 206.044C64.9805 205.982 65.1067 205.757 65.8589 205.495L95.1851 194.448H100.602L130.214 205.492H130.246C130.443 205.53 130.629 205.606 130.795 205.719L130.794 205.72Z" fill="#6F46BE"/>
<path d="M100.361 166.974C100.361 166.974 97.0536 167.52 95.637 172.531C95.5428 170.037 95.3544 166.755 95.3544 166.755L100.361 166.974Z" fill="#6F46BE"/>
<path d="M95.8286 194.297L74.1218 208.903L67.1029 207.342L94.8065 194.153L95.8286 194.297Z" fill="#6F46BE"/>
<path d="M96.3477 194.262L77.6306 209.267L82.8912 209.885L97.2261 194.262H96.3477Z" fill="#6F46BE"/>
<path d="M137.845 153.206C137.845 153.206 117.853 170.767 83.1132 165.753C52.8113 161.389 53.26 120.411 73.6013 108.823C99.5114 94.057 165.794 131.788 137.843 153.208L137.845 153.206Z" fill="#EDE3FF"/>
<path d="M59.5538 131.583C59.5538 131.583 57.2158 145.099 65.0364 155.418C72.857 165.737 85.8648 166.111 90.5377 166.465C81.9489 165.218 79.7258 161.086 77.8972 158.616C76.0686 156.146 74.1698 155.998 72.4146 156.652C70.6595 157.306 69.7843 154.617 68.248 148.586C66.7117 142.554 64.6675 142.773 62.9874 142.7C61.3073 142.627 59.113 140.882 59.5522 131.582L59.5538 131.583Z" fill="#6F46BE"/>
<path d="M95.3447 166.955C107.495 166.955 117.123 164.268 123.625 161.657C132.717 157.988 137.806 153.662 138.044 153.452C145.851 147.467 147.01 139.494 141.313 131.011C135.617 122.527 123.561 114.232 109.82 109.319C95.086 104.054 81.8323 103.78 73.4559 108.559C68.133 111.567 63.829 116.865 61.3201 123.412C58.9038 129.775 58.2826 136.672 59.5234 143.36C60.6302 149.142 63.1663 154.231 66.8618 158.084C71.0252 162.42 76.4727 165.101 83.062 166.051C87.128 166.646 91.2323 166.949 95.3415 166.955H95.3447ZM88.3002 105.774C94.6612 105.774 101.928 107.151 109.617 109.898C123.238 114.767 135.189 122.989 140.799 131.348C144.674 137.127 147.278 145.581 137.651 152.961H137.635C137.586 153.005 132.554 157.371 123.36 161.065C114.895 164.479 101.021 168.004 83.1546 165.429C70.8879 163.656 62.4987 155.567 60.1383 143.233C57.4984 129.44 63.2253 115.074 73.7561 109.078C77.6401 106.894 82.6052 105.774 88.2986 105.774H88.3002Z" fill="#6F46BE"/>
<path d="M89.9978 166.391C89.9978 166.391 101.038 166.792 112.549 160.359C121.87 155.155 133.384 156.221 127.788 159.377C119.675 163.956 102.568 168.135 89.9978 166.391Z" fill="#6F46BE"/>
<path d="M159.943 181.616L161.917 200.365L156.306 201.076L152.17 184.229L159.943 181.616Z" fill="#EDE3FF"/>
<path d="M156.306 201.388H156.345L161.957 200.677C162.124 200.657 162.246 200.506 162.23 200.338L160.254 181.586C160.235 181.415 160.08 181.291 159.909 181.31C159.887 181.313 159.866 181.316 159.844 181.324L152.073 183.937C151.919 183.989 151.831 184.148 151.868 184.305L156.003 201.152C156.038 201.291 156.163 201.388 156.306 201.388ZM161.573 200.089L156.557 200.712L152.557 184.414L159.686 182.021L161.573 200.089Z" fill="#6F46BE"/>
<path d="M88.7187 138.812C88.7187 138.812 90.0314 143.176 92.6649 145.9C95.2984 148.624 93.7589 149.06 91.4576 147.751C89.1563 146.442 86.8518 143.609 85.8648 140.121C84.8778 136.632 87.7173 136.525 88.7171 138.812H88.7187Z" fill="white"/>
<path d="M96.5553 149.441C95.9788 149.044 94.4744 149.606 95.5141 150.64C96.5537 151.674 97.5423 151.887 98.8582 152.164C100.174 152.442 100.228 151.676 99.4603 151.23C98.6921 150.784 97.2692 149.934 96.5537 149.441H96.5553Z" fill="white"/>
<path d="M104.759 94.0127C103.715 106.075 107.107 116.205 110.205 122.172C115.124 131.653 138.996 132.308 143.121 132.17C147.246 132.032 154.489 135.216 155.586 136.222C156.683 137.227 157.862 136.699 156.79 134.766C154.452 130.551 148.606 128.809 144.367 128.22C139.517 127.556 126.185 125.157 124.962 120.225C123.738 115.293 122.002 108.964 121.416 95.4451" fill="#EDE3FF"/>
<path d="M156.645 137.064C156.843 137.069 157.038 137.004 157.194 136.883C157.432 136.699 157.897 136.111 157.074 134.629C154.385 129.783 147.328 128.33 144.42 127.93C141.444 127.522 126.551 125.23 125.275 120.168L125.118 119.545C123.927 114.829 122.296 108.374 121.739 95.4451C121.732 95.2722 121.585 95.139 121.413 95.1453C121.24 95.1517 121.105 95.2976 121.113 95.4689C121.673 108.461 123.307 114.955 124.511 119.697L124.668 120.32C126.003 125.619 140.057 127.96 144.332 128.546C147.154 128.933 153.971 130.329 156.527 134.929C157.006 135.789 156.96 136.276 156.813 136.391C156.666 136.507 156.279 136.441 155.81 136.004C154.681 134.954 147.398 131.712 143.12 131.859C137.406 132.047 115.106 130.925 110.486 122.029C106.133 113.369 104.259 103.683 105.075 94.0349C105.09 93.8636 104.962 93.7129 104.79 93.6986C104.617 93.6843 104.465 93.8112 104.451 93.9826C103.625 103.746 105.521 113.548 109.927 122.313C112.056 126.418 117.764 129.369 126.905 131.084C132.26 132.064 137.696 132.532 143.14 132.48C147.191 132.346 154.329 135.484 155.366 136.46C155.703 136.81 156.158 137.024 156.645 137.061V137.064Z" fill="#6F46BE"/>
<path d="M116.528 106.947C116.528 106.947 122.593 106.873 124.788 106.292C123.534 102.077 121.242 91.2222 121.242 91.2222" fill="white"/>
<path d="M116.528 107.26C116.778 107.26 122.659 107.179 124.863 106.595C124.946 106.573 125.016 106.519 125.057 106.446C125.099 106.373 125.108 106.286 125.086 106.207C123.86 102.052 121.569 91.2668 121.547 91.1589C121.51 90.986 121.341 90.8765 121.167 90.913C120.995 90.9495 120.883 91.1177 120.919 91.2906C120.942 91.3968 123.114 101.689 124.367 106.067C122.023 106.565 116.555 106.638 116.499 106.638C116.326 106.638 116.186 106.778 116.186 106.949C116.186 107.121 116.326 107.26 116.499 107.26H116.528Z" fill="#6F46BE"/>
<path d="M101.298 132.578C101.298 132.578 141.111 129.545 150.659 133.07C157.453 135.582 158.333 141.027 158.333 141.027L164.547 184.411L152.488 186.737L144.146 149.425L105.024 149.974L101.3 132.578H101.298Z" fill="#6F46BE"/>
<path d="M131.283 183.34L128.697 203.379L134.221 204.978L140.098 183.661L131.283 183.34Z" fill="#EDE3FF"/>
<path d="M134.221 205.294C134.275 205.294 134.328 205.279 134.374 205.252C134.448 205.211 134.501 205.143 134.521 205.062L140.402 183.745C140.427 183.653 140.408 183.555 140.352 183.477C140.296 183.399 140.207 183.353 140.111 183.348L131.295 183.037C131.137 183.037 131.003 183.153 130.982 183.309L128.397 203.35C128.378 203.501 128.472 203.644 128.619 203.687L134.143 205.289C134.168 205.292 134.196 205.294 134.221 205.292V205.294ZM139.691 183.961L134.001 204.591L129.042 203.154L131.549 183.661L139.691 183.961Z" fill="#6F46BE"/>
<path d="M160.569 157.199L164.406 184.124L156.293 185.652C156.293 185.652 156.293 184.996 158.488 180.528C160.682 176.059 160.463 175.404 159.585 173.334C158.707 171.264 158.927 170.282 159.804 168.1C160.682 165.919 160.569 157.201 160.569 157.201V157.199Z" fill="#EDE3FF"/>
<path d="M152.488 187.049H152.547L164.606 184.721C164.771 184.689 164.882 184.533 164.857 184.368L158.643 140.984C158.604 140.751 157.653 135.324 150.768 132.779C141.272 129.27 102.902 132.14 101.271 132.265C101.182 132.273 101.099 132.318 101.046 132.391C100.992 132.462 100.971 132.554 100.99 132.643L104.711 150.039C104.743 150.185 104.874 150.288 105.024 150.284L143.896 149.739L152.178 186.805C152.21 186.948 152.338 187.049 152.485 187.048L152.488 187.049ZM164.194 184.164L152.727 186.373L144.461 149.356C144.428 149.212 144.297 149.109 144.148 149.114L105.277 149.659L101.687 132.862C105.681 132.572 141.668 130.078 150.555 133.363C157.086 135.779 158.023 141.028 158.03 141.077L164.196 184.162L164.194 184.164Z" fill="#6F46BE"/>
<path d="M97.8568 152.577C97.8568 152.577 123.914 149.967 133.563 154.758C131.083 179.827 130.3 187.62 130.3 187.62L143.645 186.607C143.645 186.607 148.886 163.852 150.953 152.742C153.02 141.631 152.929 136.534 142.176 135.084C131.423 133.634 88.9741 134.907 88.9741 134.907C88.9741 134.907 87.5256 153.194 97.8584 152.577H97.8568Z" fill="#6F46BE"/>
<path d="M130.299 187.931H130.321L143.666 186.918C143.803 186.907 143.918 186.808 143.948 186.675C144.001 186.448 149.219 163.772 151.263 152.797C152.595 145.629 152.897 141.471 150.82 138.622C149.335 136.583 146.604 135.362 142.225 134.772C131.567 133.347 89.3878 134.594 88.9614 134.607C88.7969 134.607 88.6611 134.731 88.6484 134.894C88.6132 135.356 87.8083 146.239 92.3918 150.881C93.8163 152.34 95.827 153.083 97.8648 152.9H97.8807C98.1379 152.875 123.615 150.391 133.223 154.964C130.787 179.573 129.987 187.514 129.978 187.592C129.968 187.684 130 187.776 130.066 187.841C130.128 187.903 130.212 187.935 130.3 187.931H130.299ZM143.39 186.313L130.647 187.279C130.829 185.461 131.709 176.681 133.876 154.807C133.89 154.677 133.82 154.553 133.704 154.496C124.104 149.721 98.9875 152.158 97.8312 152.274C95.9771 152.444 94.1437 151.769 92.8469 150.442C88.856 146.39 89.169 136.964 89.2632 135.219C93.0066 135.113 132.004 134.031 142.139 135.39C146.336 135.952 148.933 137.093 150.311 138.984C152.242 141.636 151.916 145.841 150.643 152.683C148.712 163.05 143.937 183.908 143.39 186.302V186.315V186.313Z" fill="#6F46BE"/>
<path d="M121.411 92.9244C121.242 89.5868 119.998 86.3903 117.866 83.8078C117.808 83.9188 117.725 84.0156 117.625 84.0885C116.371 84.9801 110.524 84.8309 107.233 83.2383C105.321 82.3039 104.876 81.2776 104.571 80.202C101.263 81.8978 97.087 86.2491 95.5523 90.3783C88.1133 110.377 91.1046 144.152 91.1046 144.152C95.6497 135.933 112.735 131.961 118.519 131.414C120.067 125.286 120.533 118.937 119.899 112.649C119.206 106.269 121.689 99.2237 121.413 92.9244H121.411Z" fill="white"/>
<path d="M91.0982 114.287C91.0982 114.287 90.5153 120.68 92.6345 123.95C94.7538 127.219 94.9726 129.037 93.5097 129.329C92.0468 129.621 92.1969 131.071 93.7285 132.67C95.26 134.269 95.4836 137.538 94.0958 137.757C92.708 137.976 90.5153 134.329 90.5153 134.329C90.5153 134.329 90.1479 116.902 91.0982 114.287Z" fill="#6F46BE"/>
<path d="M91.103 144.463C91.218 144.463 91.3234 144.401 91.3793 144.301C95.8334 136.247 112.853 132.264 118.549 131.724C118.677 131.712 118.784 131.623 118.819 131.501C120.368 125.332 120.838 118.943 120.209 112.615C119.945 110.196 120.011 107.685 120.081 105.023C120.1 104.29 120.119 103.553 120.131 102.814C120.15 101.748 120.111 99.606 120.02 96.2683C120.02 96.0954 119.88 95.9574 119.707 95.9574C119.535 95.9574 119.394 96.097 119.394 96.2683C119.485 99.606 119.522 101.741 119.505 102.795C119.505 103.534 119.473 104.268 119.455 105.001C119.386 107.685 119.321 110.215 119.586 112.676C120.196 118.855 119.754 125.09 118.275 131.122C113.757 131.605 96.8332 134.992 91.3426 143.159C90.9322 137.511 89.2138 108.309 95.8446 90.483C97.3618 86.4061 101.305 82.3784 104.387 80.6493C104.826 81.8343 105.751 82.756 107.209 83.454C110.497 85.0435 115.533 85.4734 117.77 84.3582L117.871 84.2963C119.284 86.0778 120.269 88.159 120.749 90.3767C120.83 90.767 120.908 91.1064 120.993 91.484C121.13 92.082 121.285 92.7594 121.514 93.8651C121.544 94.0348 121.707 94.1474 121.878 94.1173C121.882 94.1173 121.886 94.1173 121.89 94.1141C122.06 94.0792 122.168 93.9127 122.132 93.7445C121.9 92.6357 121.747 91.9519 121.608 91.3539C121.523 90.9795 121.448 90.6401 121.363 90.2562C120.836 87.8116 119.722 85.5305 118.115 83.6078C118.005 83.4746 117.807 83.4571 117.674 83.5666C117.642 83.5936 117.615 83.6269 117.596 83.665C117.574 83.7205 117.537 83.7697 117.492 83.8077C115.399 84.8515 110.63 84.4312 107.489 82.9004C105.583 81.966 105.087 80.8714 104.881 80.1163C104.855 80.0259 104.791 79.9514 104.705 79.9133C104.62 79.8736 104.521 79.8736 104.435 79.9133C101.199 81.5837 96.8827 85.9064 95.2441 90.2704C87.8643 110.106 90.7485 143.841 90.7804 144.193C90.7932 144.329 90.8938 144.442 91.028 144.471L91.1062 144.464L91.103 144.463Z" fill="#6F46BE"/>
<path d="M122.885 151.966C117.032 152.783 99.2239 152.434 94.1757 138.541C89.1275 124.648 76.3066 126.385 71.2728 121.75C71.2728 121.75 62.3694 138.225 79.0311 149.272C95.6929 160.32 122.884 151.966 122.884 151.966H122.885Z" fill="#EDE3FF"/>
<path d="M118.644 152.502C120.052 152.51 121.461 152.421 122.857 152.24C125.508 151.848 128.1 151.127 130.569 150.089C130.728 150.023 130.805 149.842 130.738 149.682C130.671 149.523 130.487 149.45 130.327 149.517C127.906 150.53 125.367 151.239 122.769 151.623C116.547 152.486 99.3292 151.81 94.4711 138.436C91.0455 129.001 84.5552 126.929 79.3425 125.263C76.6898 124.419 74.3981 123.686 72.7787 122.197C71.4021 120.95 70.7122 119.548 70.7217 118.072C70.7409 115.385 73.0917 113.253 73.1173 113.232C73.2466 113.117 73.2562 112.92 73.1412 112.791C73.0246 112.663 72.8266 112.653 72.6973 112.768C72.5934 112.861 70.1181 115.1 70.0957 118.066C70.0957 119.724 70.8415 121.267 72.3523 122.654C74.0771 124.237 76.5397 125.022 79.1492 125.858C84.5009 127.567 90.56 129.502 93.8834 138.638C96.0777 144.647 100.984 148.923 108.103 151.039C111.53 152.018 115.081 152.51 118.645 152.502H118.644Z" fill="#6F46BE"/>
<path d="M94.4552 98.1641C93.4076 110.227 95.998 119.702 99.0946 125.671C104.013 135.149 131.698 136.315 135.813 136.179C139.929 136.042 143.043 137.384 144.528 137.787C146.475 138.314 145.983 136.663 145.983 136.663C146.78 137.043 148.594 137.115 148.139 135.99C148.859 136.333 149.738 136.51 150.167 135.971C150.441 135.625 149.989 134.951 147.992 133.991C145.276 132.684 141.951 131.951 138.017 131.794C133.127 131.591 113.145 127.314 111.908 122.384C110.67 117.454 110.462 111.97 111.192 98.7447" fill="#EDE3FF"/>
<path d="M141.547 132.235C141.547 132.235 136.995 132.491 134.86 132.946C132.555 133.435 119.016 129.673 115.18 125.642C117.757 126.84 130.093 131.091 134.258 131.418C138.423 131.745 141.547 132.235 141.547 132.235Z" fill="white"/>
<path d="M145.199 138.192C145.772 138.246 146.282 137.827 146.336 137.256C146.341 137.213 146.341 137.169 146.341 137.126C147.005 137.294 147.849 137.291 148.259 136.907C148.384 136.794 148.467 136.644 148.497 136.48C149.34 136.758 150.017 136.651 150.401 136.169C150.527 136.011 150.571 135.801 150.524 135.605C150.396 135.049 149.608 134.429 148.115 133.715C145.388 132.403 141.989 131.655 138.02 131.486C133.052 131.28 113.38 127.01 112.198 122.313C110.945 117.298 110.772 111.797 111.492 98.7668C111.502 98.5938 111.369 98.4479 111.197 98.4384C111.024 98.4289 110.876 98.5605 110.866 98.7335C110.143 111.824 110.312 117.379 111.59 122.463C112.894 127.651 133.304 131.913 137.992 132.126C141.876 132.291 145.202 133.017 147.845 134.293C149.691 135.181 149.89 135.673 149.912 135.76V135.798C149.599 136.179 148.861 136.014 148.265 135.73C148.109 135.655 147.922 135.72 147.847 135.876C147.809 135.955 147.805 136.047 147.839 136.13C147.94 136.372 147.865 136.441 147.839 136.469C147.585 136.702 146.667 136.669 146.111 136.404C145.954 136.329 145.768 136.396 145.693 136.552C145.659 136.62 145.653 136.699 145.675 136.772C145.713 136.901 145.779 137.302 145.6 137.48C145.421 137.657 145.095 137.641 144.603 137.511C144.33 137.437 143.998 137.327 143.613 137.2C141.963 136.667 139.205 135.776 135.797 135.888C131.784 136.02 104.157 134.784 99.3677 125.55C97.135 121.247 93.5689 111.976 94.7619 98.2115C94.7762 98.0402 94.6485 97.8895 94.476 97.8752C94.476 97.8752 94.476 97.8752 94.4744 97.8752C94.3019 97.861 94.1502 97.9879 94.1358 98.1592C92.9285 112.079 96.5457 121.473 98.8103 125.834C103.763 135.378 131.017 136.672 135.82 136.513C139.118 136.407 141.706 137.24 143.418 137.795C143.81 137.924 144.151 138.035 144.44 138.106C144.688 138.17 144.944 138.2 145.199 138.197V138.192Z" fill="#6F46BE"/>
<path d="M93.944 95.3182C93.944 95.3182 92.9187 99.2428 91.6779 106.948C96.5743 108.837 107.099 109.635 112.8 107.82C112.653 104.392 112.728 96.1907 112.728 96.1907" fill="white"/>
<path d="M104.505 109.151C107.624 109.151 110.631 108.84 112.898 108.117C113.032 108.074 113.121 107.945 113.113 107.806C112.97 104.44 113.038 96.2732 113.041 96.1955C113.041 96.0226 112.901 95.8846 112.728 95.8846C112.556 95.8846 112.415 96.0242 112.415 96.1955C112.415 96.2764 112.347 104.084 112.478 107.6C106.859 109.286 96.8971 108.534 92.0293 106.753C93.2367 99.319 94.2237 95.4436 94.246 95.4039C94.2764 95.2342 94.1614 95.0724 93.9921 95.0422C93.8404 95.0153 93.6918 95.1025 93.6407 95.2469C93.6407 95.2881 92.5995 99.2746 91.3682 106.905C91.3458 107.051 91.4273 107.192 91.5662 107.244C94.567 108.394 99.6695 109.153 104.507 109.153L104.505 109.151Z" fill="#6F46BE"/>
<path d="M151.421 133.566C151.929 133.584 152.4 133.308 152.631 132.859C152.847 132.389 152.686 131.834 152.251 131.55C151.427 130.942 149.166 130.26 149.07 130.232C148.906 130.183 148.733 130.275 148.682 130.438C148.631 130.603 148.724 130.777 148.89 130.828C148.915 130.828 151.143 131.51 151.881 132.053C152.074 132.161 152.152 132.397 152.063 132.599C151.876 132.898 151.504 133.028 151.17 132.909C150.051 132.654 147.302 132.37 147.186 132.357C147.013 132.34 146.858 132.465 146.841 132.638C146.823 132.811 146.949 132.963 147.123 132.981C147.152 132.981 149.945 133.271 151.03 133.52C151.159 133.55 151.292 133.566 151.424 133.566H151.421Z" fill="#6F46BE"/>
<path d="M142.035 135.035C143.414 135.267 144.725 135.8 145.873 136.593L142.035 135.035Z" fill="#EDE3FF"/>
<path d="M145.873 136.907C146.045 136.905 146.184 136.764 146.183 136.591C146.183 136.491 146.132 136.398 146.049 136.339C144.862 135.511 143.503 134.961 142.074 134.724C141.901 134.704 141.743 134.826 141.722 134.999C141.701 135.172 141.824 135.327 141.999 135.348C143.326 135.579 144.587 136.095 145.694 136.859C145.747 136.893 145.809 136.909 145.873 136.905V136.907Z" fill="#6F46BE"/>
<path d="M143.519 133.98C143.519 133.98 146.149 134.604 148.125 135.941L143.519 133.98Z" fill="#EDE3FF"/>
<path d="M148.139 136.254C148.312 136.252 148.451 136.111 148.449 135.938C148.449 135.838 148.398 135.744 148.315 135.686C146.318 134.323 143.715 133.703 143.613 133.679C143.442 133.652 143.283 133.769 143.255 133.939C143.231 134.09 143.322 134.237 143.469 134.283C143.495 134.283 146.068 134.907 147.968 136.2C148.019 136.233 148.078 136.252 148.141 136.252L148.139 136.254Z" fill="#6F46BE"/>
<path d="M148.618 141.103C148.618 141.103 151.248 143.284 150.226 150.257C149.204 157.231 147.74 166.248 147.74 166.248C147.74 166.248 149.201 155.781 148.032 152.729C146.863 149.677 149.497 148.952 148.327 146.626C147.158 144.301 148.62 141.103 148.62 141.103H148.618Z" fill="#EDE3FF"/>
<path d="M132.174 172.787L134.039 154.474C134.258 150.878 138.6 150.042 137.985 154.583C137.741 156.379 135.238 156.635 135.572 158.947C135.791 160.472 136.34 160.689 135.023 162.107C133.705 163.526 135.901 165.05 134.258 167.338C132.614 169.625 132.174 172.787 132.174 172.787Z" fill="#EDE3FF"/>
<path d="M153.588 189.21C153.588 189.21 154.978 192.99 156.44 193.717C157.903 194.443 158.703 197.058 157.312 198.73C155.92 200.4 155.118 196.697 155.118 196.697L153.588 189.21Z" fill="#6F46BE"/>
<path d="M130.637 189.718C130.637 189.718 132.027 195.016 131.663 196.621C131.299 198.227 130.409 200.985 131.955 203.525C133.501 206.065 128.507 204.18 128.507 204.18L130.639 189.718H130.637Z" fill="#6F46BE"/>
<path d="M126.948 201.556C127.186 199.356 128.654 198.103 129.503 201.624C130.268 204.781 133.999 203.282 134.614 202.675C133.285 201.047 136.861 198.915 136.861 198.915C136.861 198.915 140.936 206.839 146.877 208.363C152.818 209.888 149.192 212.802 146.536 213.073C137.131 214.03 128.893 212.802 125.219 211.826C122.331 211.054 125.629 208.37 125.629 208.37L126.948 201.556Z" fill="white"/>
<path d="M139.571 213.731C141.908 213.735 144.241 213.617 146.564 213.382C148.286 213.208 150.289 212.02 150.389 210.695C150.448 209.913 149.901 208.825 146.941 208.062C141.221 206.594 137.168 198.852 137.126 198.774C137.086 198.698 137.017 198.642 136.934 198.618C136.851 198.595 136.762 198.606 136.687 198.65C136.586 198.709 134.279 200.1 134.017 201.599C133.951 201.943 134.007 202.3 134.176 202.61C133.622 202.962 132.295 203.469 131.198 203.168C130.478 202.965 130.003 202.422 129.794 201.556C129.293 199.48 128.577 199.085 128.082 199.117C127.255 199.169 126.753 200.363 126.624 201.513L125.335 208.197C124.928 208.546 123.502 209.861 123.743 210.978C123.86 211.523 124.326 211.912 125.132 212.121C128.28 212.965 133.506 213.736 139.571 213.736V213.731ZM136.749 199.359C137.576 200.858 141.401 207.28 146.802 208.666C148.775 209.174 149.827 209.878 149.768 210.649C149.693 211.644 147.922 212.619 146.509 212.762C137.669 213.666 129.558 212.656 125.298 211.515C124.741 211.366 124.423 211.141 124.358 210.843C124.201 210.119 125.396 208.953 125.825 208.604C125.881 208.557 125.92 208.492 125.936 208.42L127.261 201.613V201.588C127.389 200.406 127.851 199.749 128.136 199.718C128.355 199.718 128.814 200.129 129.19 201.682C129.523 203.057 130.375 203.552 131.03 203.749C132.535 204.169 134.371 203.331 134.826 202.882C134.94 202.77 134.949 202.589 134.849 202.465C134.663 202.253 134.585 201.969 134.638 201.693C134.801 200.827 136.034 199.841 136.744 199.361H136.751L136.749 199.359Z" fill="#6F46BE"/>
<path d="M152.945 196.618C153.183 194.411 154.65 193.158 155.506 196.686C156.271 199.849 159.858 198.382 160.471 197.771C159.569 195.561 160.682 195.009 161.682 194.502C162.076 194.302 162.512 194.243 162.704 194.641C163.13 195.517 163.648 196.347 164.247 197.116C165.783 199.126 168.453 201.68 172.943 203.642C178.558 206.098 174.645 208.579 171.97 208.652C161.409 208.926 155.96 207.77 152.274 206.782C149.38 206.009 152.381 202.533 152.381 202.533L152.945 196.618Z" fill="white"/>
<path d="M168.877 209.006C169.86 209.006 170.892 209.006 171.976 208.965C173.744 208.919 175.808 207.948 176.092 206.583C176.248 205.786 175.851 204.577 173.067 203.357C168.525 201.371 165.898 198.766 164.493 196.929C163.91 196.174 163.405 195.363 162.985 194.507C162.894 194.307 162.726 194.153 162.519 194.08C162.187 193.996 161.834 194.047 161.541 194.223C160.564 194.718 159.256 195.382 160.099 197.673C159.591 198.013 158.269 198.546 157.209 198.25C156.493 198.047 156.024 197.499 155.811 196.613C155.307 194.531 154.598 194.12 154.096 194.167C153.259 194.223 152.761 195.414 152.632 196.586L152.077 202.408C151.764 202.808 150.372 204.589 150.779 205.909C150.958 206.487 151.434 206.882 152.192 207.085C155.8 208.051 160.588 209.004 168.877 209.004V209.006ZM162.231 194.669C162.26 194.665 162.287 194.665 162.316 194.669C162.348 194.669 162.385 194.7 162.423 194.775C162.857 195.67 163.383 196.517 163.99 197.305C165.438 199.201 168.143 201.886 172.812 203.925C174.693 204.748 175.634 205.649 175.471 206.458C175.273 207.472 173.417 208.297 171.957 208.328C161.797 208.593 156.346 207.54 152.352 206.458C151.806 206.312 151.487 206.062 151.375 205.701C151.082 204.767 152.172 203.23 152.628 202.716C152.672 202.667 152.697 202.607 152.703 202.542L153.267 196.62C153.395 195.435 153.86 194.781 154.146 194.749C154.364 194.749 154.823 195.16 155.2 196.716C155.538 198.112 156.388 198.625 157.039 198.807C158.446 199.204 160.194 198.449 160.695 197.951C160.767 197.871 160.792 197.76 160.764 197.657C159.97 195.722 160.823 195.289 161.814 194.786C161.944 194.713 162.086 194.67 162.235 194.657V194.667L162.231 194.669Z" fill="#6F46BE"/>
<path d="M107.252 108.762C107.252 108.762 97.4561 108.905 94.4617 107.828C94.6054 111.895 96.656 120.398 97.3826 121.709C97.3826 121.709 99.6488 118.146 98.0406 115.677C96.4324 113.209 96.1401 112.622 97.1622 111.535C98.1843 110.449 107.251 108.764 107.251 108.764L107.252 108.762Z" fill="#6F46BE"/>
<path d="M120.321 117.411C120.321 117.411 120.76 124.751 122.951 125.914C125.142 127.077 126.086 129.62 126.086 129.62L119.38 127.365L120.321 117.41V117.411Z" fill="#6F46BE"/>
<path d="M113.878 87.6388C117.473 87.6388 119.439 86.4411 119.549 86.3729C119.703 86.292 119.76 86.1032 119.679 85.9509C119.597 85.7986 119.407 85.7415 119.256 85.8224C119.243 85.8288 119.23 85.8367 119.217 85.8462C119.182 85.8684 115.685 87.9751 109.499 86.4697C104.381 85.2069 103.038 83.4683 102.353 81.7757C102.289 81.6155 102.107 81.5378 101.945 81.6012C101.784 81.6647 101.706 81.8471 101.77 82.0057C102.782 84.4994 105.048 86.0144 109.349 87.074C110.831 87.4437 112.352 87.6324 113.878 87.6388Z" fill="#6F46BE"/>
<path d="M139.245 207.397C137.522 208.374 136.246 209.977 135.681 211.867C134.311 211.593 131.185 211.047 131.185 211.047C131.185 211.047 133.415 206.253 136.01 204.29C137.27 205.652 139.245 207.397 139.245 207.397Z" fill="#EDE3FF"/>
<path d="M165.337 202.235C163.616 203.214 162.341 204.814 161.776 206.705C160.403 206.434 157.424 205.524 157.424 205.524C157.424 205.524 159.505 201.091 162.102 199.131C163.365 200.493 165.337 202.235 165.337 202.235Z" fill="#EDE3FF"/>
<path d="M141.797 208.815C142.856 208.765 143.878 208.417 144.747 207.814C144.888 207.713 144.918 207.518 144.816 207.378C144.714 207.238 144.517 207.208 144.377 207.31C144.354 207.31 142.182 208.853 140.443 207.84C138.164 206.521 134.889 202.522 134.857 202.481C134.748 202.346 134.55 202.326 134.414 202.435C134.279 202.545 134.258 202.74 134.368 202.874C134.505 203.043 137.751 207 140.13 208.376C140.636 208.669 141.213 208.822 141.797 208.815Z" fill="#6F46BE"/>
<path d="M145.566 213.213C146.237 213.224 146.908 213.187 147.572 213.1C147.745 213.073 147.863 212.911 147.836 212.738C147.809 212.565 147.646 212.45 147.472 212.477C144.164 213.006 128.841 211.52 125.945 208.167C125.832 208.037 125.634 208.021 125.501 208.133C125.37 208.246 125.354 208.444 125.468 208.574C128.135 211.666 140.127 213.213 145.565 213.213H145.566Z" fill="#6F46BE"/>
<path d="M172.729 208.55C173.188 208.557 173.647 208.528 174.102 208.466C174.274 208.439 174.393 208.278 174.365 208.105C174.338 207.932 174.175 207.816 174.001 207.843C170.6 208.389 155.615 205.973 152.684 202.606C152.573 202.476 152.374 202.46 152.242 202.572C152.111 202.684 152.095 202.881 152.207 203.011C155.016 206.258 167.655 208.55 172.727 208.55H172.729Z" fill="#6F46BE"/>
<path d="M168.147 204.14C169.288 204.14 170.341 203.423 170.881 202.878C171.002 202.754 171 202.557 170.876 202.437C170.751 202.316 170.553 202.318 170.432 202.441C170.354 202.522 168.52 204.346 166.906 203.065C164.969 201.537 161.188 198.258 160.733 197.598C160.637 197.455 160.443 197.416 160.299 197.513C160.155 197.608 160.115 197.801 160.213 197.946C160.213 197.947 160.216 197.95 160.217 197.952C160.76 198.737 164.735 202.148 166.516 203.563C166.978 203.937 167.554 204.142 168.15 204.142L168.147 204.14Z" fill="#6F46BE"/>
<path d="M87.1169 139.029C87.1169 139.029 85.1765 134.905 82.1757 132.594C79.1749 130.282 80.6266 129.623 83.0972 130.584C85.5678 131.545 88.2572 134.012 89.7456 137.326C91.2341 140.64 88.4297 141.154 87.1153 139.031L87.1169 139.029Z" fill="white"/>
<path d="M77.8063 129.645C78.4339 129.956 79.8441 129.18 78.6623 128.307C77.4805 127.435 76.468 127.373 75.1297 127.283C73.7914 127.192 73.8441 127.965 74.6681 128.287C75.4922 128.609 77.0285 129.269 77.8063 129.646V129.645Z" fill="white"/>
<path d="M167.714 202.475C167.813 202.475 167.905 202.427 167.965 202.346C168.29 201.869 168.809 201.558 169.384 201.493C169.557 201.493 169.697 201.353 169.697 201.182C169.697 201.011 169.557 200.871 169.384 200.871C168.615 200.942 167.915 201.348 167.476 201.98C167.374 202.119 167.404 202.315 167.545 202.416C167.594 202.453 167.653 202.472 167.714 202.475Z" fill="#6F46BE"/>
<path d="M141.719 207.326C141.805 207.326 141.888 207.289 141.948 207.226C142.323 206.785 142.872 206.529 143.452 206.528C143.624 206.541 143.774 206.412 143.787 206.241C143.8 206.073 143.675 205.924 143.505 205.908C142.732 205.89 141.991 206.219 141.486 206.802C141.368 206.929 141.376 207.126 141.502 207.243C141.561 207.297 141.638 207.327 141.718 207.326H141.719Z" fill="#6F46BE"/>
<path d="M140.164 205.798C140.247 205.795 140.327 205.76 140.382 205.698C140.756 205.259 141.306 205.003 141.884 205C142.056 205.015 142.209 204.888 142.224 204.715C142.238 204.542 142.11 204.391 141.936 204.377C141.163 204.364 140.426 204.693 139.921 205.275C139.804 205.402 139.812 205.598 139.94 205.714C140.001 205.77 140.081 205.8 140.162 205.798H140.164Z" fill="#6F46BE"/>
<path d="M138.613 204.274C138.701 204.274 138.785 204.236 138.845 204.171C139.217 203.728 139.766 203.474 140.346 203.476C140.518 203.488 140.668 203.36 140.681 203.189C140.696 203.019 140.569 202.868 140.398 202.852C139.625 202.84 138.886 203.168 138.38 203.75C138.263 203.877 138.271 204.074 138.399 204.19C138.456 204.244 138.533 204.274 138.611 204.274H138.613Z" fill="#6F46BE"/>
<path d="M137.076 202.348C137.164 202.348 137.249 202.31 137.308 202.245C137.682 201.807 138.231 201.551 138.809 201.55C138.982 201.564 139.133 201.437 139.148 201.264C139.148 201.264 139.148 201.264 139.148 201.263C139.161 201.093 139.033 200.944 138.862 200.93C138.089 200.912 137.348 201.241 136.843 201.824C136.725 201.951 136.733 202.148 136.859 202.265C136.918 202.319 136.995 202.349 137.075 202.348H137.076Z" fill="#6F46BE"/>
<path d="M166.067 201.023C166.168 201.023 166.262 200.976 166.321 200.895C166.646 200.417 167.163 200.105 167.738 200.041C167.91 200.041 168.051 199.902 168.051 199.73C168.051 199.559 167.91 199.42 167.738 199.42C166.967 199.488 166.267 199.894 165.83 200.528C165.729 200.666 165.758 200.86 165.895 200.961C165.944 201 166.005 201.02 166.067 201.023Z" fill="#6F46BE"/>
<path d="M164.277 199.315C164.378 199.315 164.472 199.267 164.531 199.186C164.855 198.709 165.373 198.396 165.948 198.333C166.12 198.333 166.261 198.193 166.261 198.022C166.261 197.851 166.12 197.711 165.948 197.711C165.176 197.779 164.475 198.185 164.036 198.82C163.934 198.96 163.964 199.155 164.105 199.256C164.159 199.296 164.224 199.317 164.29 199.317H164.277V199.315Z" fill="#6F46BE"/>
<path d="M167.656 197.741C168.072 197.77 168.485 197.66 168.832 197.43C169.153 197.162 169.333 196.766 169.324 196.348C169.373 195.892 169.175 195.443 168.803 195.17C167.549 194.266 164.414 195.4 164.076 195.531C163.416 195.758 162.811 196.118 162.298 196.588C162.204 196.686 162.183 196.834 162.249 196.953C162.314 197.073 162.45 197.137 162.584 197.111C163.33 196.965 164.397 197.192 165.43 197.422C166.16 197.6 166.906 197.706 167.656 197.74V197.741ZM167.446 195.441C167.794 195.417 168.14 195.498 168.442 195.671C168.643 195.822 168.742 196.072 168.702 196.32C168.718 196.556 168.626 196.785 168.448 196.943C167.96 197.318 166.743 197.062 165.564 196.812C164.895 196.655 164.216 196.539 163.533 196.469C163.776 196.336 164.03 196.223 164.291 196.133C165.299 195.744 166.36 195.511 167.439 195.441H167.446Z" fill="#6F46BE"/>
<path d="M108.565 132.235C108.565 132.235 105.026 129.458 104.176 127.513C102.787 124.315 99.2797 124.169 99.7875 126.421C100.295 128.674 106.666 131.945 108.565 132.234V132.235Z" fill="#6F46BE"/>
<path d="M162.522 197.118C162.623 197.118 162.717 197.07 162.776 196.989C163.404 196.153 164.616 195.787 166.269 195.493C167.792 195.225 167.893 194.589 167.867 194.331C167.805 193.707 166.927 193.317 165.713 193.349H165.67C164.036 193.626 162.952 194.283 162.222 196.708C162.179 196.853 162.246 197.008 162.381 197.076C162.425 197.1 162.472 197.115 162.522 197.118ZM165.855 193.972C166.796 193.972 167.232 194.269 167.244 194.392C167.244 194.438 167.081 194.703 166.16 194.879C164.981 195.092 163.994 195.341 163.244 195.774C163.833 194.546 164.608 194.172 165.751 193.972H165.855Z" fill="#6F46BE"/>
<path d="M142.516 204.975C142.656 204.975 142.795 204.956 142.93 204.916C143.243 204.81 143.789 204.48 143.669 203.436C143.457 201.588 140.152 201.001 139.046 200.855C139.022 200.798 138.983 200.749 138.932 200.712C138.662 200.513 138.396 200.787 138.115 201.077C138.019 201.176 138 201.325 138.068 201.445C139.288 203.62 141.272 204.977 142.516 204.977V204.975ZM138.798 201.453C140.052 201.596 142.896 202.199 143.046 203.508C143.099 203.966 142.997 204.24 142.733 204.321C141.975 204.567 140.053 203.471 138.8 201.453H138.798Z" fill="#6F46BE"/>
<path d="M142.211 202.148C142.566 202.161 142.907 202.021 143.152 201.764C143.478 201.372 143.537 200.827 143.305 200.374C142.99 199.764 142.342 199.396 141.654 199.44H141.604C140.291 199.353 138.423 200.254 137.591 201.363C137.489 201.501 137.517 201.696 137.656 201.799C137.768 201.881 137.921 201.88 138.033 201.796C138.603 201.356 139.67 201.431 141.481 202.035C141.716 202.113 141.964 202.151 142.211 202.148ZM141.66 200.051C142.107 200.014 142.532 200.244 142.745 200.636C142.866 200.863 142.845 201.141 142.692 201.347C142.51 201.55 142.149 201.58 141.702 201.431C140.846 201.104 139.942 200.919 139.025 200.882C139.819 200.349 140.828 199.994 141.583 200.049H141.662L141.66 200.051Z" fill="#6F46BE"/>
</g>
<mask id="mask2_307_835" style="mask-type:luminance" maskUnits="userSpaceOnUse" x="125" y="105" width="34" height="25">
<path d="M158.713 105.385H125.495V129.656H158.713V105.385Z" fill="white"/>
</mask>
<g mask="url(#mask2_307_835)">
<mask id="mask3_307_835" style="mask-type:luminance" maskUnits="userSpaceOnUse" x="124" y="105" width="35" height="27">
<path d="M158.713 105.385H124.217V131.084H158.713V105.385Z" fill="white"/>
</mask>
<g mask="url(#mask3_307_835)">
<path d="M127.568 129.431C127.009 130.222 123.722 130.725 124.283 127.628C124.834 124.588 124.867 122.649 125.421 122.357C125.976 122.064 137.389 116.191 140.018 112.457C141.792 110.501 145.319 106.878 146.655 106.789C147.992 106.702 146.766 108.634 146.766 108.634L145.539 110.391L148.562 114.148C148.562 114.148 155.091 114.806 156.996 115.817C158.901 116.827 158.858 117.42 157.368 117.486C155.878 117.552 152.636 116.453 152.636 116.453L151.103 117.332C151.103 117.332 153.206 117.706 152.922 118.672C152.638 119.638 149.703 119.33 149.703 119.33C149.703 119.33 150.798 119.901 150.579 120.649C150.36 121.396 148.893 121.791 148.016 121.461C148.104 121.856 147.775 122.955 146.088 122.757C144.204 122.383 143.568 121.9 143.568 121.9L141.312 122.186L127.569 129.427L127.568 129.431Z" fill="#EDE3FF"/>
<path d="M124.749 123.131C124.665 123.131 124.581 123.087 124.537 123.008C124.47 122.89 124.51 122.74 124.628 122.671L135.318 116.505C135.326 116.497 138.07 114.56 140.862 111.286C143.711 107.945 145.82 106.93 145.91 106.889C146.05 106.814 146.828 106.427 147.328 106.618C147.467 106.67 147.566 106.783 147.609 106.935C147.815 107.68 146.536 109.462 145.755 110.457C145.672 110.564 145.517 110.582 145.41 110.498C145.303 110.414 145.285 110.26 145.368 110.152C147.016 108.052 147.199 107.195 147.133 107.06C146.933 106.995 146.421 107.174 146.129 107.33C146.098 107.344 144.008 108.356 141.235 111.607C138.401 114.932 135.609 116.9 135.582 116.921L124.874 123.098C124.835 123.12 124.794 123.131 124.752 123.131H124.749Z" fill="#6F46BE"/>
<path d="M157.951 113.413L145.592 120.569C145.466 120.642 145.306 120.599 145.234 120.472L141.036 113.179C140.964 113.053 141.007 112.891 141.131 112.82L153.491 105.664C153.617 105.591 153.777 105.634 153.849 105.761L158.047 113.055C158.119 113.18 158.076 113.342 157.951 113.413Z" fill="#EDE3FF"/>
<path d="M155.833 113.559L146.866 118.75C146.74 118.823 146.58 118.78 146.508 118.653L143.164 112.844C143.092 112.719 143.136 112.557 143.26 112.485L152.227 107.293C152.354 107.22 152.513 107.263 152.585 107.39L155.929 113.199C156.001 113.325 155.958 113.486 155.833 113.559Z" fill="white"/>
<path d="M144.955 121.142C144.777 121.142 144.605 121.05 144.509 120.885L140.315 113.601C140.247 113.482 140.229 113.344 140.264 113.211C140.299 113.077 140.384 112.968 140.504 112.898L153.363 105.453C153.481 105.385 153.619 105.368 153.751 105.403C153.884 105.438 153.994 105.523 154.062 105.642L158.256 112.927C158.397 113.172 158.312 113.487 158.069 113.629L145.21 121.074C145.13 121.12 145.041 121.142 144.955 121.142ZM153.638 105.888L140.748 113.325L144.934 120.639L157.823 113.203C157.835 113.196 157.838 113.182 157.831 113.172L153.638 105.888Z" fill="#6F46BE"/>
<path d="M146.737 119.032C146.692 119.032 146.647 119.026 146.604 119.015C146.473 118.98 146.363 118.894 146.296 118.777L142.952 112.969C142.813 112.727 142.896 112.414 143.137 112.274L152.105 107.082C152.346 106.943 152.657 107.025 152.798 107.268L156.142 113.077C156.281 113.32 156.198 113.632 155.957 113.772L146.989 118.964C146.911 119.01 146.825 119.032 146.737 119.032ZM152.373 107.514L143.383 112.7L146.721 118.531L155.711 113.345C155.719 113.34 155.722 113.329 155.717 113.321L152.373 107.512V107.514Z" fill="#6F46BE"/>
<path d="M155.517 110.97L154.142 108.583C154.07 108.458 154.114 108.296 154.238 108.225C154.364 108.152 154.524 108.194 154.596 108.321L155.971 110.709C156.043 110.834 156 110.996 155.875 111.067C155.749 111.14 155.589 111.097 155.517 110.97Z" fill="#6F46BE"/>
<path d="M143.786 117.34C143.337 117.34 142.971 116.973 142.971 116.523C142.971 116.072 143.337 115.706 143.786 115.706C144.234 115.706 144.6 116.072 144.6 116.523C144.6 116.973 144.234 117.34 143.786 117.34ZM143.786 116.198C143.607 116.198 143.461 116.344 143.461 116.523C143.461 116.702 143.607 116.848 143.786 116.848C143.965 116.848 144.11 116.702 144.11 116.523C144.11 116.344 143.965 116.198 143.786 116.198Z" fill="#6F46BE"/>
<path d="M150.258 118.773C150.258 118.773 148.221 118.555 148.035 117.774C148.035 117.346 148.626 117.082 149.711 117.236C150.795 117.39 151.76 117.598 151.76 117.598L150.456 118.796L150.26 118.773H150.258Z" fill="#EDE3FF"/>
<path d="M148.342 120.509C148.342 120.509 146.304 120.29 146.119 119.51C146.119 119.081 146.71 118.818 147.794 118.972C148.878 119.126 149.843 119.334 149.843 119.334L148.54 120.531L148.343 120.509H148.342Z" fill="#EDE3FF"/>
<path d="M141.091 120.084C141.01 120.084 140.928 120.043 140.882 119.968C139.421 117.605 139.78 115.047 139.796 114.94C139.817 114.805 139.94 114.714 140.074 114.732C140.208 114.752 140.301 114.878 140.28 115.011C140.277 115.036 139.934 117.501 141.297 119.706C141.369 119.822 141.334 119.973 141.218 120.046C141.178 120.071 141.133 120.082 141.088 120.082L141.091 120.084Z" fill="#6F46BE"/>
<path d="M157.418 117.736C156.811 117.736 156.138 117.613 155.76 117.532C154.945 117.357 152.718 116.762 152.623 116.739C152.492 116.704 152.414 116.569 152.449 116.437C152.484 116.305 152.617 116.229 152.75 116.263C152.772 116.269 155.06 116.878 155.864 117.051C156.994 117.294 157.997 117.308 158.199 117.088C158.211 117.073 158.243 117.038 158.207 116.926C158.034 116.374 156.193 115.731 154.941 115.452C154.808 115.422 154.725 115.292 154.754 115.159C154.784 115.025 154.917 114.946 155.046 114.971C155.595 115.094 158.355 115.757 158.673 116.778C158.772 117.095 158.665 117.302 158.558 117.419C158.339 117.657 157.898 117.736 157.416 117.736H157.418Z" fill="#6F46BE"/>
<path d="M151.306 119.67C150.565 119.67 149.576 119.53 148.259 119.313C148.125 119.291 148.035 119.165 148.056 119.031C148.078 118.897 148.206 118.804 148.337 118.828C151.279 119.31 152.317 119.345 152.668 118.593C152.726 118.471 152.7 118.393 152.673 118.339C152.489 117.985 151.608 117.711 151.097 117.62C150.142 117.44 148.65 117.311 148.32 117.587C148.288 117.612 148.288 117.628 148.288 117.643C148.288 118.072 149.482 118.415 150.29 118.512C150.424 118.528 150.52 118.65 150.504 118.785C150.488 118.92 150.367 119.013 150.231 119C149.824 118.951 147.794 118.659 147.794 117.643C147.794 117.473 147.866 117.322 148.003 117.208C148.631 116.688 150.761 117.057 151.181 117.137C151.338 117.164 152.751 117.427 153.106 118.111C153.218 118.328 153.219 118.566 153.111 118.801C152.817 119.427 152.275 119.67 151.303 119.67H151.306Z" fill="#6F46BE"/>
<path d="M148.947 121.761C148.781 121.761 148.601 121.75 148.404 121.724C146.925 121.529 145.649 120.787 145.595 120.755C145.478 120.687 145.438 120.536 145.507 120.419C145.576 120.302 145.726 120.262 145.843 120.33C145.855 120.338 147.09 121.055 148.466 121.236C149.172 121.329 149.781 121.217 150.139 120.93C150.289 120.809 150.384 120.662 150.396 120.535C150.429 120.167 149.987 119.493 148.118 119.309C146.727 119.172 146.419 119.378 146.37 119.424C146.37 119.427 146.37 119.431 146.37 119.432C146.403 119.499 146.665 119.875 148.427 120.349C148.557 120.384 148.636 120.519 148.599 120.651C148.564 120.782 148.431 120.862 148.299 120.823C146.887 120.443 146.109 120.052 145.919 119.629C145.865 119.507 145.87 119.407 145.884 119.343C145.892 119.277 145.921 119.178 146.017 119.082C146.304 118.79 147.007 118.704 148.166 118.818C150.881 119.086 150.907 120.332 150.884 120.579C150.86 120.846 150.704 121.106 150.445 121.314C150.22 121.494 149.75 121.761 148.946 121.761H148.947Z" fill="#6F46BE"/>
<path d="M146.497 123.035C146.026 123.035 145.64 122.941 145.609 122.933C144.816 122.698 142.986 122.084 142.901 121.417C142.886 121.301 142.906 121.079 143.2 120.901C144.297 120.243 146.108 121.25 146.184 121.293C146.303 121.36 146.344 121.509 146.279 121.628C146.213 121.747 146.063 121.788 145.945 121.721C145.491 121.466 144.158 120.896 143.453 121.323C143.399 121.356 143.386 121.377 143.386 121.377C143.447 121.586 144.546 122.104 145.74 122.457C146.061 122.537 147.026 122.662 147.497 122.27C147.717 122.086 147.813 121.805 147.791 121.412C147.783 121.275 147.887 121.16 148.023 121.152C148.163 121.152 148.275 121.247 148.281 121.383C148.313 121.937 148.155 122.362 147.809 122.649C147.443 122.952 146.933 123.033 146.497 123.033V123.035Z" fill="#6F46BE"/>
<path d="M125.45 131.084C125.364 131.084 125.279 131.038 125.235 130.957C125.169 130.838 125.212 130.689 125.33 130.622C125.942 130.284 140.298 122.335 141.384 121.923C142.522 121.49 143.979 121.84 144.041 121.854C144.172 121.886 144.254 122.019 144.222 122.151C144.19 122.283 144.056 122.364 143.925 122.332C143.912 122.329 142.553 122.005 141.558 122.381C140.505 122.779 125.718 130.968 125.568 131.05C125.532 131.071 125.49 131.08 125.45 131.08V131.084Z" fill="#6F46BE"/>
</g>
</g>
<path d="M148.415 76.845C146.694 76.845 145.705 75.8958 145.705 74.2935C145.705 72.6718 146.733 71.5839 148.573 71.5839C148.974 71.5839 149.342 71.6217 149.687 71.691L150.543 69.7234C149.736 69.3722 148.991 69.2308 148.058 69.2308C144.993 69.2299 142.877 71.3863 142.877 74.3725C142.877 77.2796 144.617 79.2183 147.565 79.2183C148.791 79.2183 149.7 79.0523 150.569 78.6546L149.539 76.7466C149.181 76.8099 148.805 76.845 148.415 76.845ZM159.304 70.6962C160.205 71.5619 160.702 72.7912 160.703 74.275C160.702 75.6816 160.178 76.9196 159.257 77.8108C158.336 78.702 157.017 79.2499 155.401 79.2507C153.742 79.2499 152.428 78.7292 151.525 77.8565C150.623 76.9828 150.121 75.7475 150.12 74.275C150.121 72.8588 150.655 71.6269 151.576 70.7428C152.499 69.8586 153.815 69.3204 155.4 69.3195C157.083 69.3195 158.402 69.8305 159.304 70.6962ZM157.716 74.2741C157.716 73.4699 157.525 72.8254 157.123 72.3794C156.923 72.1572 156.672 71.9887 156.382 71.8798C156.092 71.77 155.764 71.7174 155.403 71.7174C154.72 71.7156 154.128 71.9702 153.72 72.425C153.311 72.8799 153.088 73.5208 153.089 74.2741C153.089 75.0608 153.286 75.7036 153.689 76.154C153.89 76.3779 154.14 76.55 154.429 76.6632C154.718 76.7765 155.045 76.8318 155.402 76.8318C156.092 76.8336 156.686 76.5851 157.093 76.1312C157.5 75.6781 157.716 75.0354 157.716 74.2741ZM167.447 69.3186C168.661 69.3186 169.962 69.5855 171.083 69.9323V78.9048H168.237V77.5439L167.856 77.9364C167.513 78.2884 167.108 78.6159 166.613 78.8556C166.119 79.0953 165.536 79.249 164.828 79.2499C163.704 79.2481 162.795 78.7757 162.149 77.9908C161.504 77.205 161.13 76.0978 161.13 74.8422C161.132 73.0748 161.736 71.7121 162.815 70.7735C163.896 69.8366 165.475 69.3186 167.447 69.3186ZM167.931 71.7182C167.666 71.698 167.376 71.677 167.081 71.677C166.149 71.6761 165.401 71.9325 164.888 72.4206C164.374 72.9079 164.117 73.6121 164.118 74.4375C164.118 75.1609 164.288 75.7571 164.629 76.1812C164.97 76.607 165.486 76.8353 166.087 76.8327C166.455 76.8327 166.801 76.7475 167.126 76.593C167.452 76.4385 167.757 76.2172 168.062 75.9433L168.136 75.8774V75.7782V71.734L167.931 71.7182ZM184.399 69.3186C185.614 69.3186 186.915 69.5855 188.035 69.9323V78.9048H185.19V77.5439L184.809 77.9364C184.466 78.2884 184.06 78.6159 183.566 78.8556C183.072 79.0953 182.489 79.249 181.78 79.2499C180.656 79.2481 179.748 78.7757 179.101 77.9908C178.457 77.205 178.083 76.0978 178.083 74.8422C178.085 73.0748 178.689 71.7121 179.768 70.7735C180.848 69.8366 182.426 69.3186 184.399 69.3186ZM184.883 71.7182C184.618 71.698 184.328 71.677 184.033 71.677C183.101 71.6761 182.353 71.9325 181.839 72.4206C181.325 72.9079 181.068 73.6121 181.07 74.4375C181.07 75.1609 181.239 75.7571 181.581 76.1812C181.922 76.607 182.437 76.8353 183.038 76.8327C183.407 76.8327 183.753 76.7475 184.078 76.593C184.404 76.4385 184.709 76.2172 185.014 75.9433L185.088 75.8774V75.7782V71.734L184.883 71.7182ZM176.012 76.6062C175.777 76.4718 175.603 76.2769 175.484 76.0592C175.245 75.6201 175.198 75.0916 175.196 74.6034V66.9857H172.209V74.0467C172.208 75.4279 172.331 76.4727 172.6 77.2392C172.871 78.0066 173.271 78.493 173.862 78.8179C174.258 79.0339 174.746 79.1752 175.344 79.2525C175.546 79.2788 175.735 79.2903 175.912 79.2903C176.677 79.2885 177.219 79.069 177.652 78.7784V76.7142C177.366 76.7809 177.11 76.8134 176.879 76.8134C176.536 76.8142 176.246 76.7414 176.012 76.6062Z" fill="#EDE3FF"/>
</svg>
