<svg width="80" height="80" viewBox="0 0 150 150" fill="none" xmlns="http://www.w3.org/2000/svg">
<rect width="150" height="150" rx="75" fill="#A6B0BF"/>
<mask id="mask0_1508_3057" style="mask-type:alpha" maskUnits="userSpaceOnUse" x="0" y="0" width="150" height="150">
<rect width="150" height="150" rx="75" fill="#6F46BE"/>
</mask>
<g mask="url(#mask0_1508_3057)">
<path d="M52.5218 60.4205C52.5218 60.4205 32.7993 37.1893 18.2629 54.0167C13.7022 59.2895 25.1727 64.5624 25.1727 64.5624C25.1727 64.5624 19.1476 64.3943 18.4002 70.844C17.6528 77.2785 30.7401 78.7763 30.7401 78.7763C30.7401 78.7763 26.82 82.2457 28.5284 84.63C30.2215 87.0142 34.9805 89.2457 50.4321 80.3658C52.0794 63.0646 52.5218 60.4205 52.5218 60.4205Z" fill="#C4CBD4"/>
<path d="M45.7948 63.7071C45.7948 63.7071 39.4647 58.6482 35.8497 65.5717C32.2347 72.4953 40.9138 76.9581 40.9138 76.9581L45.7948 63.7071Z" fill="#A6B0BF"/>
<path d="M98.983 61.8295C100.279 59.8121 102.415 58.5129 104.52 57.3514C108.76 55.013 113.245 52.9802 118.004 52.216C122.839 51.4366 129.078 51.727 132.769 55.4715C134.05 56.7859 134.859 58.6963 134.416 60.4998C133.989 62.2422 132.51 63.5107 131.03 64.4889C129.139 65.7269 127.11 66.5063 125.097 67.4386C125.859 67.729 126.607 68.05 127.339 68.4474C128.513 69.074 129.688 69.7923 130.511 70.8469C132.738 73.7202 131.427 77.694 128.483 79.3599C124.837 81.408 121.588 79.7268 117.928 79.2224C118.217 80.1547 118.812 81.0106 119.056 81.9887C119.331 83.028 119.285 84.2049 118.721 85.1219C116.661 88.4385 110.087 87.0324 107.037 86.4974C102.278 85.6416 99.4101 82.004 98.2813 77.4342C97.1983 73.0325 96.4357 66.0631 98.8609 62.0588C98.8914 61.9671 98.9372 61.8906 98.983 61.8295Z" fill="#C4CBD4"/>
<path d="M105.191 66.9306C105.191 66.9306 111.461 61.8105 115.167 68.7035C118.874 75.5964 110.24 80.1357 110.24 80.1357L105.191 66.9306Z" fill="#A6B0BF"/>
<path d="M52.9641 50.9335C62.0093 43.4903 86.3077 43.0012 96.7714 49.7413C108.242 57.1845 117.47 90.1974 110.194 100.59C102.644 111.304 48.5406 112.726 42.6681 101.339C36.1397 88.7913 42.5461 59.4924 52.9641 50.9335Z" fill="#C4CBD4"/>
<path d="M69.3919 95.3657C68.919 92.2019 69.5139 88.8548 71.0697 86.3636C72.534 84.0251 75.0051 82.1147 77.2168 84.8199C77.8879 85.6299 78.2845 86.6387 78.5896 87.6474C79.459 90.4902 79.7641 93.1495 79.2455 96.084C78.8642 98.239 77.1253 100.577 74.8831 100.96C72.7628 101.311 70.7342 99.5993 69.9562 97.5665C69.6817 96.8788 69.4986 96.1299 69.3919 95.3657Z" fill="#A6B0BF"/>
</g>
</svg>
