<svg width="79" height="52" viewBox="0 0 79 52" fill="none" xmlns="http://www.w3.org/2000/svg">
<path d="M73.005 41.6728C70.2041 44.7492 66.5767 46.9991 62.7657 48.698C50.552 54.0702 36.7771 49.7082 31.4509 38.3209C31.0835 37.4945 30.7162 36.668 30.4407 35.7956C27.1347 25.6022 30.7162 11.3222 41.2769 5.44498C44.2156 3.83791 46.5573 2.41451 49.8632 2.04718C53.1692 1.67985 56.3833 2.0931 59.4138 3.10325C65.5206 5.16948 70.7551 9.43968 74.3365 14.766C75.163 16.0057 75.9436 17.3373 76.5864 18.7607C78.9282 23.9033 78.9282 30.4234 76.5864 36.0711C75.714 38.1832 74.4743 40.0658 73.005 41.6728Z" fill="#D4CBFF"/>
<path d="M13.1302 10.6336C10.6048 11.7815 8.35494 13.5263 6.83971 15.8221C4.86531 18.8067 4.40615 22.5718 5.18672 26.0155C5.59997 27.8062 6.38054 30.1021 7.75803 31.3877C9.27326 32.8111 11.4772 32.5356 13.3139 31.801C16.528 30.5153 19.3289 28.1736 21.1655 25.189C22.9563 22.2045 23.7828 18.6689 23.4154 15.1793C23.2318 13.3886 22.6808 11.506 21.2574 10.404C19.9258 9.34795 18.0432 9.16429 16.3903 9.53162C15.2883 9.7612 14.1863 10.1285 13.1302 10.6336Z" fill="#FEF592"/>
<path d="M17.5838 0.670091C17.6756 0.624175 17.7674 0.532343 17.8593 0.486427C18.8235 -0.0186512 19.9714 -0.110483 21.0734 0.119097C21.3948 0.165013 21.7621 0.256846 21.9917 0.486427C22.4509 0.853756 22.405 1.5425 22.405 2.04758C22.405 3.05773 22.405 3.88422 21.7162 4.6648C21.1652 5.30762 20.3846 5.72087 19.5582 5.72087C18.1807 5.76678 16.895 4.71071 16.6195 3.37914C16.4359 2.27716 16.6195 1.267 17.5838 0.670091Z" fill="#FEF592"/>
<path d="M24.0583 4.48019C23.2318 4.70977 22.1299 4.43427 21.3034 4.43427C19.6504 4.38836 17.9974 4.38836 16.3444 4.66385C15.7934 4.75568 14.9669 4.98527 14.5078 4.5261C13.5435 3.60778 15.0129 1.54155 15.8853 1.12831C16.8954 0.669147 18.0433 0.852812 19.0994 1.12831C20.8901 1.58747 22.5431 2.41396 24.0583 3.51595C24.242 3.6537 24.4716 3.83736 24.4257 4.06694C24.4257 4.25061 24.2879 4.38836 24.0583 4.48019Z" stroke="#6F46BE" stroke-width="1.63314" stroke-miterlimit="10" stroke-linecap="round" stroke-linejoin="round"/>
<path d="M73.7853 45.5762C72.5914 46.3567 71.2599 45.9894 70.1579 45.7598C69.6987 45.668 69.1936 45.5762 68.6426 45.5762C67.7243 45.5302 66.806 45.8057 66.0713 46.3108C49.6334 56.9634 32.0016 48.0097 26.9508 34.5563C24.7468 28.9086 24.609 20.7814 27.5477 13.8022C27.9609 12.838 28.0068 11.736 27.7313 10.6799C27.6395 10.4503 27.5936 10.2207 27.5018 9.99115C27.0885 8.93508 26.4916 7.69534 27.0885 6.36377C27.5018 5.44545 28.2823 4.94037 28.9711 4.94037C29.6139 4.94037 30.2108 5.3077 30.7618 5.5832C30.7618 5.5832 30.7618 5.5832 30.8077 5.5832C32.1852 6.22603 33.7923 6.08828 35.032 5.26179C49.266 -4.15102 66.7601 7.46576 73.0506 19.955C74.6117 23.0313 75.3005 26.6128 75.2546 30.0565C75.2087 31.8932 74.9332 33.7757 74.4281 35.5664C74.0148 37.0358 73.1883 38.3214 73.2343 39.9285C73.2802 41.3978 74.6577 42.1325 74.8872 43.5099C74.9791 44.1528 74.6117 45.0252 73.7853 45.5762Z" stroke="#6F46BE" stroke-width="1.63314" stroke-miterlimit="10" stroke-linecap="round" stroke-linejoin="round"/>
<path d="M10.5127 8.93395C7.8496 9.94411 5.46196 11.5512 3.71715 13.6633C0.870345 17.1529 0.319351 21.6986 1.78867 25.8311C2.38558 27.3922 3.07432 29.2748 3.99264 30.6523C5.09463 32.3512 7.20677 30.4686 8.35468 29.7799C13.084 26.8872 19.145 23.3516 20.3388 17.4284C20.7061 15.5459 20.4765 13.5715 19.8796 11.7348C19.5123 10.4951 18.8236 7.74014 17.4002 7.41872C15.3339 6.95956 12.3953 8.1993 10.5127 8.93395Z" stroke="#6F46BE" stroke-width="1.63314" stroke-miterlimit="10" stroke-linecap="round" stroke-linejoin="round"/>
<path d="M14.9209 10.9561C11.4313 14.813 8.63038 19.3128 6.7019 24.0881" stroke="#6F46BE" stroke-width="1.63314" stroke-miterlimit="10" stroke-linecap="round" stroke-linejoin="round"/>
<path d="M29.9353 17.7969C30.4863 18.0265 30.8995 18.6693 30.8995 19.2662C30.8995 19.8631 30.4863 20.46 29.9353 20.7355" stroke="#6F46BE" stroke-width="1.63314" stroke-miterlimit="10" stroke-linecap="round" stroke-linejoin="round"/>
<path d="M33.425 20.7363C33.976 20.9659 34.3893 21.6087 34.3893 22.2056C34.3893 22.8026 33.976 23.3995 33.425 23.675" stroke="#6F46BE" stroke-width="1.63314" stroke-miterlimit="10" stroke-linecap="round" stroke-linejoin="round"/>
<path d="M29.4763 23.627C30.0273 23.8565 30.4406 24.4994 30.4406 25.0963C30.4406 25.6932 30.0273 26.2901 29.4763 26.5656" stroke="#6F46BE" stroke-width="1.63314" stroke-miterlimit="10" stroke-linecap="round" stroke-linejoin="round"/>
<path d="M47.9802 5.16895C47.7966 5.76586 47.2456 6.22502 46.6487 6.31685C46.0518 6.40868 45.4089 6.08727 45.0875 5.53627" stroke="#6F46BE" stroke-width="1.63314" stroke-miterlimit="10" stroke-linecap="round" stroke-linejoin="round"/>
<path d="M72.0863 29.2295C71.4894 29.2295 70.8465 28.8622 70.617 28.3112C70.3415 27.7602 70.4792 27.0256 70.8925 26.6123" stroke="#6F46BE" stroke-width="1.63314" stroke-miterlimit="10" stroke-linecap="round" stroke-linejoin="round"/>
<path d="M71.306 35.8878C70.8009 35.5664 70.5254 34.8777 70.6172 34.2808C70.7091 33.6839 71.2141 33.1329 71.811 32.9951" stroke="#6F46BE" stroke-width="1.63314" stroke-miterlimit="10" stroke-linecap="round" stroke-linejoin="round"/>
<path d="M55.786 42.3627C55.9697 41.7658 56.5666 41.3525 57.1635 41.3066C57.7604 41.2607 58.4032 41.628 58.6787 42.179" stroke="#6F46BE" stroke-width="1.63314" stroke-miterlimit="10" stroke-linecap="round" stroke-linejoin="round"/>
<path d="M59.0001 46.0345C59.1838 45.4376 59.7807 45.0244 60.3776 44.9785C60.9745 44.9326 61.6173 45.2999 61.8928 45.8509" stroke="#6F46BE" stroke-width="1.63314" stroke-miterlimit="10" stroke-linecap="round" stroke-linejoin="round"/>
</svg>
