<svg width="92" height="72" viewBox="0 0 92 72" fill="none" xmlns="http://www.w3.org/2000/svg">
<g clip-path="url(#clip0_783_11596)">
<path d="M50.7029 39.2194C56.5815 38.7804 66.4282 38.3414 71.278 42.439C73.3355 44.3414 74.0703 47.4146 72.6007 49.4633C71.7189 51.3658 71.278 52.0975 72.1598 54.5853C72.6007 55.756 73.0416 56.7804 73.1885 57.9511C73.3355 59.9999 72.6007 61.9024 71.278 63.3658C67.4569 67.9024 59.0799 69.8048 53.6422 71.1219C47.3227 72.5853 40.8563 72.2926 34.9777 69.2194C33.0671 68.195 31.4505 67.0243 30.5687 64.9755C29.9809 63.5121 30.1278 61.9024 29.54 60.4389C28.9521 58.8292 28.0703 57.5121 27.3355 55.9024C22.4857 44.0487 43.0607 39.8048 50.7029 39.2194Z" fill="#6F46BE"/>
<path d="M49.3803 42.4386C53.6422 42.1459 60.6966 41.7069 64.2237 44.78C65.6934 46.0971 66.2812 48.4386 65.1055 49.902C64.3707 51.3654 64.2237 51.8044 64.8116 53.5605C65.1055 54.4386 65.3994 55.1703 65.5464 56.0483C65.6934 57.5117 65.1055 58.8288 64.2237 59.9995C61.4314 63.3654 55.4058 64.6825 51.4378 65.5605C46.8819 66.5849 42.179 66.4386 37.917 64.2434C36.5943 63.5117 35.2716 62.6337 34.6838 61.1703C34.2429 60.1459 34.3899 58.9752 33.949 57.9508C33.5081 56.78 32.7732 55.7556 32.3323 54.5849C29.0991 45.9508 43.9426 42.8776 49.3803 42.4386Z" fill="#4D2D8B"/>
<path d="M39.3867 57.9507C38.2109 55.3165 37.3292 52.6824 36.5943 49.9019C35.8595 46.8287 45.7062 46.097 47.1758 45.3653C48.6455 44.6336 58.786 37.4629 58.786 37.4629C58.786 37.4629 58.0512 40.9751 59.2269 46.2434C59.5209 47.4141 59.8148 49.9019 59.6678 51.9507C58.4921 58.8287 44.3835 60.8775 39.3867 57.9507Z" fill="#C6ACFA"/>
<path d="M57.3163 46.3901C57.3163 46.3901 61.1374 38.7803 62.0192 28.9755C62.6071 22.3901 65.5464 11.1218 66.8691 9.51204C68.3387 7.90228 73.0416 1.90228 70.5432 0.438867C68.0448 -1.02455 65.6933 1.6096 64.8115 2.92667C63.7828 4.24374 63.048 4.53643 62.754 3.21935C62.3131 1.17057 61.2844 1.75594 61.2844 1.75594C61.2844 1.75594 61.2844 3.95106 61.1374 5.12179C61.1374 5.99984 60.5496 7.75594 60.8435 9.51204C61.1374 11.2681 62.3131 11.9998 61.2844 14.4876C60.2556 16.9755 54.0831 34.2437 53.7892 38.4876C53.4953 42.7315 57.3163 46.3901 57.3163 46.3901Z" fill="#C6ACFA"/>
<path d="M50.409 43.6097L53.3483 49.0244C53.3483 49.0244 51.4377 53.2683 47.7636 51.8049C44.0895 50.3414 43.3547 49.317 43.3547 49.317L42.1789 40.9756L50.409 43.6097Z" fill="#BF9EFF"/>
<path d="M41.8851 30.2926C43.7956 27.5121 49.5272 25.0243 53.6423 30.439C58.0512 36.1463 54.818 45.9512 51.2908 45.6585C49.2333 45.5121 44.8244 43.9024 42.6199 40.8292C40.2685 37.4633 40.4154 32.4877 41.8851 30.2926Z" fill="#BF9EFF"/>
<path d="M40.4153 40.2433C38.5048 39.9507 38.2109 37.9019 39.8275 36.4385C37.476 35.5604 37.3291 33.0726 39.6805 32.1946C37.623 30.2921 39.5335 27.9507 42.1789 28.536C42.0319 27.9507 42.1789 27.3653 42.7668 26.9263C43.2077 26.4872 44.6773 26.1946 45.4121 27.2189C45.7061 26.0482 46.2939 25.3165 47.0288 25.1702C48.4984 24.8775 49.0863 26.4872 49.6741 26.7799C50.262 26.0482 52.1725 25.1702 53.3482 26.6336C53.9361 27.3653 53.7891 28.097 53.7891 28.6824C55.5527 28.2433 57.4633 28.3897 57.4633 30.7311C57.4633 33.0726 54.8179 33.9507 52.7604 33.8043C53.2013 35.9994 51.2907 37.6092 48.9393 37.4628C49.3802 39.2189 49.2332 41.2677 47.3227 42.1458C46.4409 42.5848 45.5591 42.5848 44.9712 42.1458C44.0895 43.7555 42.3259 45.3653 40.5623 43.9019C39.2396 42.7311 39.5335 41.4141 40.4153 40.2433Z" fill="#6F46BE"/>
<path d="M46.5879 51.9511C46.5879 51.9511 42.1789 48.1462 39.2396 44.7803C31.0096 35.2681 21.8978 27.2194 20.869 24.8779C19.1055 21.512 17.7828 22.8291 17.6358 20.195C17.4888 18.7316 16.901 19.0242 16.4601 19.7559C15.8722 20.4877 16.4601 22.8291 16.0192 22.8291C13.8147 22.8291 13.9617 21.6584 10.8754 21.3657C5.43772 21.073 6.17255 22.9755 9.11185 25.6096C11.7572 27.9511 15.7253 27.9511 17.4888 28.9755C21.016 31.1706 22.3387 36.5852 27.7764 44.195C32.0384 50.0486 33.8019 53.4145 39.6805 57.9511C43.5016 61.0242 44.8243 54.4389 46.5879 51.9511Z" fill="#C6ACFA"/>
<path d="M69.6614 36.4386C69.6614 36.4386 75.246 18.2922 81.7125 17.1215C88.179 15.9508 77.7444 27.0727 77.7444 27.0727C77.7444 27.0727 90.0895 17.8532 91.8531 21.3654C93.7636 25.0239 69.6614 36.4386 69.6614 36.4386Z" fill="#6F46BE"/>
<path d="M26.3068 57.219C26.3068 57.219 14.6965 42.2922 8.23009 43.4629C1.76363 44.6336 15.4314 51.3653 15.4314 51.3653C15.4314 51.3653 0.587913 47.1214 0.147019 51.0727C-0.293876 55.0239 26.3068 57.219 26.3068 57.219Z" fill="#6F46BE"/>
<path d="M71.4249 12.146C71.4249 12.146 80.3898 5.12162 83.476 7.60943C86.7093 10.0972 76.8626 11.8533 71.4249 12.146Z" fill="#6F46BE"/>
<path d="M13.2269 35.5603C10.2876 36.1456 2.20456 35.7066 0.440984 31.9017C-2.20438 26.4871 11.0225 35.4139 13.2269 35.5603Z" fill="#6F46BE"/>
<path d="M22.1918 21.3657C22.1918 21.3657 14.9905 14.0487 16.3132 9.51209C17.7828 4.9755 20.1343 11.5609 20.8691 14.3414C21.7509 17.1218 22.1918 21.3657 22.1918 21.3657Z" fill="#6F46BE"/>
</g>
<defs>
<clipPath id="clip0_783_11596">
<rect width="92" height="72" fill="white" transform="matrix(-1 0 0 1 92 0)"/>
</clipPath>
</defs>
</svg>
