<svg width="70" height="55" viewBox="0 0 70 55" fill="none" xmlns="http://www.w3.org/2000/svg">
<g clip-path="url(#clip0_783_11615)">
<path d="M67.4012 33.6367C67.3447 34.5458 67.4577 35.5117 67.5142 36.4208C65.3673 35.8526 62.3165 36.4776 60.678 36.7049C60.565 36.7049 60.5085 36.7617 60.4521 36.8754C58.3617 33.5799 54.6893 31.4776 50.3956 31.7049C44.6328 31.989 38.5311 37.2731 38.7571 43.3526C36.7232 43.1822 34.5763 43.1822 32.5989 43.6367C32.4295 37.0458 27.3447 32.1595 20.8475 31.6481C16.7232 31.3072 12.034 33.5231 9.60459 37.0458C9.60459 37.0458 9.5481 36.989 9.4916 36.989C7.57069 36.6481 4.01137 36.1367 1.80798 37.2731C1.86448 36.8754 1.86448 36.4776 1.86448 36.0799C1.86448 35.9095 1.80798 34.6595 1.86448 34.6026C2.03397 34.5458 2.09047 34.3754 2.03397 34.2617C2.09047 34.2617 2.14697 34.2617 2.20346 34.2049C2.93793 34.0913 3.3899 33.1822 3.5029 32.3867C3.67239 31.1936 3.78538 29.7731 2.76844 28.864C2.65544 28.7504 2.48595 28.7504 2.37296 28.864C5.4238 22.6708 10.8475 20.0572 17.5707 20.114C17.7402 20.114 17.8532 20.0572 17.9097 19.8867C18.0227 19.8867 18.0792 19.8299 18.1357 19.7731C20.5085 14.7731 22.4295 9.26174 25.5933 4.7731C29.6046 -0.965535 39.0396 0.852647 45.1413 0.852647C48.6441 0.852647 52.486 0.284465 54.8023 3.40946C56.2713 5.3981 56.7797 8.12537 57.7967 10.3413C60.2261 16.0231 63.1074 21.5345 65.8193 27.0458C64.6328 27.6708 64.1809 29.0913 64.1809 30.3981C64.1809 31.5345 64.2939 33.0117 65.4803 33.5231C65.4803 33.6367 65.5933 33.7504 65.7628 33.7504C66.3278 33.8072 66.8927 33.8072 67.4012 33.6367ZM60.0566 19.7731C60.2826 19.8299 60.4521 19.5458 60.2826 19.3754C60.3391 19.3186 60.3391 19.2049 60.2826 19.0913C57.7967 15.1708 56.3843 10.8526 54.5763 6.6481C52.9379 2.84128 52.373 2.78447 48.2487 2.78447C47.9662 2.78447 47.9097 3.06856 48.0227 3.23901C47.9662 3.29583 47.9097 3.35265 47.9097 3.46628C47.5707 8.69356 47.6272 14.0345 48.1357 19.2617C48.1357 19.3186 48.1357 19.3754 48.1922 19.3754C48.1357 19.489 48.1922 19.7163 48.3617 19.7163C52.034 19.8867 55.7063 19.7731 59.3221 19.8299C59.4351 19.8299 59.4916 19.7731 59.5481 19.7163C59.7176 19.6595 59.8871 19.7163 60.0566 19.7731ZM45.1978 3.06856C45.4238 2.8981 45.3673 2.44356 44.9718 2.44356C41.243 2.44356 37.5142 2.44356 33.8419 2.50037C31.9775 2.55719 30.791 2.67083 29.5481 4.1481C27.5707 6.59128 26.1018 9.82992 24.7458 12.6708C23.6724 14.8299 22.0905 17.3299 22.4859 19.7731C22.4859 19.9436 22.6554 19.9436 22.7684 19.9436C22.7684 20.0572 22.8814 20.114 23.0509 20.114C30.2826 20.0572 37.5142 19.7731 44.7458 19.8299C45.0283 19.8299 45.1413 19.5458 45.0283 19.3754C45.3108 13.9208 45.0848 8.46628 45.1978 3.06856ZM43.3899 25.0572C43.4464 25.0004 43.4464 24.8867 43.3899 24.7731C42.7684 23.4663 41.13 23.2958 39.8306 23.239C38.4182 23.1822 37.0057 23.5799 36.2713 24.8867C36.1583 25.0572 36.3843 25.1708 36.4972 25.0572C36.4972 25.114 36.5537 25.1708 36.6102 25.1708C38.7571 25.4549 40.904 25.5117 43.0509 25.3413C43.3334 25.3981 43.4464 25.1708 43.3899 25.0572Z" fill="#6F46BE"/>
<path d="M66.6102 27.3301C67.9661 27.8983 69.209 28.8074 69.209 30.4551C69.209 31.1369 68.9265 31.8755 68.4181 32.3869C67.6836 33.1255 66.7231 33.1255 65.8192 33.1824C64.1243 31.8187 64.8587 28.4096 66.4972 27.4437C66.5537 27.4437 66.6102 27.3869 66.6102 27.3301Z" fill="#FEF592"/>
<path d="M68.9831 38.5234C69.7176 40.512 68.1357 42.1597 66.3277 42.5575C64.9718 42.8984 63.5594 42.6143 62.1469 42.5006C62.0905 40.6825 61.582 38.9779 60.791 37.4438C62.8814 37.2165 67.9662 35.7961 68.9831 38.5234Z" fill="#4D2D8B"/>
<path d="M59.6046 19.2046C59.5481 19.2046 59.4916 19.2046 59.4351 19.2046C59.3786 19.2046 59.3786 19.2046 59.3221 19.2046C55.7628 19.1478 52.2035 19.0342 48.6441 19.2615C48.5876 13.9774 48.4746 8.75009 48.5311 3.466V3.40918C50.678 3.63645 52.5989 3.80691 53.6159 6.02282C54.4633 7.841 55.1413 9.716 55.8758 11.5342C56.8927 14.1478 58.0792 16.7615 59.6046 19.2046Z" fill="#CDBDF3"/>
<path d="M51.1865 40.2281C53.3334 40.3985 55.0283 42.5008 54.9718 44.6031C54.8588 46.819 52.6554 48.5235 50.565 48.3531C48.0791 48.1826 46.7232 45.569 47.0622 43.2962C47.6271 41.5349 49.2091 40.1144 51.1865 40.2281Z" fill="white"/>
<path d="M49.9436 34.5454C62.3729 33.1817 63.6724 53.7499 51.1865 54.0908C51.0735 54.0908 51.017 54.1477 50.9605 54.1477C45.8193 53.5227 41.1865 50.1704 41.13 44.4317C41.017 39.2613 44.8588 35.1136 49.9436 34.5454ZM55.5933 45.0567C55.9887 42.4431 53.8983 39.7158 51.243 39.4886C48.4181 39.2613 45.9887 41.7045 45.9887 44.4886C45.9887 44.7158 46.1582 44.8295 46.3277 44.8295C46.4407 46.8749 47.9661 48.6931 50.0565 49.0908C52.5989 49.4886 55.1978 47.5567 55.5933 45.0567Z" fill="#6F46BE"/>
<path d="M44.6893 19.1478C37.5142 19.1478 30.2825 19.091 23.0509 19.5456H22.9944C23.0509 16.9319 24.8023 14.1478 25.9322 11.8751C26.9492 9.88648 27.9096 7.4433 29.3786 5.79557C32.6554 1.93194 39.8305 3.12512 44.6328 3.12512C44.4633 8.40921 44.1808 13.8638 44.6893 19.1478Z" fill="#CDBDF3"/>
<path d="M42.9379 24.8871C40.8475 25.0008 38.8136 25.0008 36.7797 24.8871C38.0791 23.4667 41.8079 23.0121 42.9379 24.8871Z" fill="white"/>
<path d="M21.5254 34.4892C26.7797 35.2278 30.565 40.0574 30 45.3983C29.435 50.5687 25.1977 53.7506 20.3955 54.0915C20.3955 54.0915 20.339 54.0915 20.2825 54.0915C19.887 54.0915 19.548 54.0915 19.1525 54.0346C15.0282 53.0119 12.0339 49.7165 10.9039 45.5687C9.15253 39.0915 15.3107 33.5801 21.5254 34.4892ZM24.7458 44.8869C25.1977 42.3301 23.3333 39.8301 20.791 39.4324C18.6441 39.0915 16.6667 40.5687 15.9887 42.5006C15.9322 42.5006 15.9322 42.5574 15.8757 42.5574C14.4633 45.0574 16.1017 48.0687 18.7571 48.7506C21.4689 49.4892 24.2373 47.671 24.7458 44.8869Z" fill="#6F46BE"/>
<path d="M20.3391 40.1145C22.6555 40.1713 24.5199 42.5008 24.0679 44.7736C23.6159 46.9327 21.6385 48.5804 19.3786 48.2395C17.9097 48.0122 16.9492 47.1599 16.4408 46.0236C16.4408 46.0236 16.4408 46.0804 16.4973 46.0804C16.5538 46.1372 16.6668 46.0804 16.6668 46.0236C16.4973 45.5122 16.3843 45.0008 16.3843 44.5463C16.4973 44.4895 16.5538 44.3758 16.5538 44.2622C16.4973 42.0463 18.1357 40.0577 20.3391 40.1145Z" fill="white"/>
<path d="M9.15258 37.7276C8.36161 39.1481 7.90964 40.6822 7.96613 42.3867H7.90964C7.90964 42.2731 7.85314 42.2163 7.74015 42.1594C6.10173 41.8185 -0.621437 43.0117 1.12998 39.1481C2.20342 36.5913 6.83619 37.3867 9.15258 37.7276Z" fill="#4D2D8B"/>
<path d="M2.48592 29.2617C3.05089 29.8299 3.16389 30.5685 3.10739 31.3072C3.10739 32.0458 2.99439 33.7504 2.03394 33.7504C1.01699 33.5799 0.791005 32.2163 0.847502 31.364C0.903999 30.2844 1.29948 29.5458 2.48592 29.2617C2.48592 29.2617 2.48592 29.3185 2.48592 29.2617Z" fill="#FEF592"/>
</g>
<defs>
<clipPath id="clip0_783_11615">
<rect width="70" height="55" fill="white"/>
</clipPath>
</defs>
</svg>
