<svg width="93" height="55" viewBox="0 0 93 55" fill="none" xmlns="http://www.w3.org/2000/svg">
<g clip-path="url(#clip0_783_11324)">
<path d="M91.2814 41.2246L77.0025 41.2247C76.0463 41.2247 75.2839 40.4536 75.2839 39.5155L75.2839 39.4513C75.2839 38.5004 76.0592 37.7422 77.0025 37.7422L87.5469 37.7422C88.5031 37.7422 89.2655 36.9711 89.2655 36.0331L89.2655 18.9291C89.2655 17.9782 88.4902 17.22 87.5469 17.22L76.9896 17.22C76.0333 17.22 75.2709 16.449 75.2709 15.5109C75.2709 14.5599 76.0463 13.8018 76.9896 13.8018L91.2814 13.8018C92.2376 13.8018 93 14.5728 93 15.5109L93 39.5155C93 40.4536 92.2247 41.2246 91.2814 41.2246Z" fill="#6F46BE"/>
<path d="M89.2785 34.1437C88.8133 33.8353 88.3998 33.4241 88.1672 32.9229C87.9346 32.4089 87.9087 31.8049 88.1413 31.3037C88.3093 30.9439 88.6194 30.6226 88.6324 30.2114C88.6582 29.7488 88.2964 29.3762 88.0509 28.9778C87.7278 28.4252 87.6374 27.7184 87.9217 27.1402C88.1155 26.7418 88.4902 26.4334 88.6065 25.9965C88.8262 25.2126 88.1672 24.4801 88.0121 23.6834C87.87 22.9509 88.1801 22.1799 88.7228 21.6787C89.2656 21.1647 90.015 20.9077 90.7516 20.8691L89.2785 34.1437Z" fill="#6F46BE"/>
<path d="M1.71868 12.9658L15.9975 12.9658C16.9538 12.9658 17.7162 13.7368 17.7162 14.6749L17.7162 14.7263C17.7162 15.6773 16.9409 16.4354 15.9975 16.4354L5.44024 16.4354C4.48401 16.4354 3.7216 17.2065 3.7216 18.1446L3.7216 35.2485C3.7216 36.1995 4.49693 36.9576 5.44024 36.9576L15.9975 36.9576C16.9538 36.9576 17.7162 37.7287 17.7162 38.6668C17.7162 39.6177 16.9409 40.3759 15.9975 40.3759L1.71868 40.3759C0.762451 40.3759 5.14465e-05 39.6048 5.13645e-05 38.6668L4.92682e-05 14.6878C4.9185e-05 13.7369 0.762449 12.9658 1.71868 12.9658Z" fill="#6F46BE"/>
<path d="M3.7216 20.0596C4.18679 20.368 4.6003 20.7792 4.8329 21.2804C5.0655 21.7944 5.09134 22.3984 4.85874 22.8995C4.69076 23.2593 4.38062 23.5806 4.3677 23.9918C4.34186 24.4544 4.70367 24.8271 4.94919 25.2255C5.27224 25.778 5.3627 26.4848 5.07841 27.0631C4.88458 27.4614 4.50985 27.7698 4.39355 28.2068C4.17387 28.9906 4.8329 29.7231 4.98797 30.5198C5.13011 31.2523 4.81998 32.0234 4.27725 32.5245C3.73453 33.0385 2.98505 33.2955 2.24849 33.3341L3.7216 20.0596Z" fill="#6F46BE"/>
<path d="M16.088 55L78.243 55C81.4994 55 84.1355 52.3785 84.1355 49.1402L84.1355 5.85981C84.1355 2.62149 81.4994 2.30455e-07 78.243 5.15135e-07L16.1009 5.94777e-06C12.8445 6.23245e-06 10.2084 2.6215 10.2084 5.85982L10.2084 49.1402C10.1955 52.3785 12.8316 55 16.088 55Z" fill="#6F46BE"/>
<path d="M17.2122 53.4577L76.8862 53.4577C79.9875 53.4577 82.4944 50.9647 82.4944 47.8806L82.4944 7.13179C82.4944 4.04768 79.9875 1.55469 76.8862 1.55469L17.2122 1.55469C14.1109 1.55469 11.604 4.04768 11.604 7.1318L11.604 47.8806C11.5911 50.9519 14.1109 53.4577 17.2122 53.4577Z" fill="#CDBDF3"/>
<path d="M48.8066 1.55469L50.2926 1.55469L50.2926 53.4577L48.8066 53.4577L48.8066 1.55469Z" fill="#6F46BE"/>
<path d="M30.018 44.9387C29.8887 45.7483 34.0238 46.0824 34.6957 46.288C33.2614 46.5064 31.8141 46.4807 30.4573 45.9796C30.018 45.7868 30.0696 45.9667 30.0955 46.3394C30.2764 51.0684 29.9404 49.5263 36.5307 49.7833C39.1409 49.7833 41.7641 49.7833 44.3744 49.7833C45.1755 49.8219 45.3823 48.9737 45.3435 48.3312C45.3564 48.1513 45.434 47.7786 45.1368 47.8686C44.2064 48.0485 43.2501 48.0228 42.3068 47.9328C42.7333 47.7915 43.1855 47.6758 43.6249 47.5859C44.1288 47.4831 44.6457 47.406 45.1497 47.3032C45.3047 47.2775 45.4081 47.2261 45.421 47.059C45.5244 45.4913 45.6149 43.9235 45.6924 42.3557C45.6924 42.2401 45.7958 41.7903 45.5761 41.8803C43.5086 43.3324 40.95 43.8335 38.469 43.5508C41.0017 43.3452 43.5086 42.6513 45.6278 41.2121C45.7053 41.1735 45.7312 41.1092 45.7699 41.0321C45.8345 40.274 45.8862 39.5158 45.8604 38.7705C45.8604 38.6034 45.8216 38.5777 45.6666 38.6548C44.3614 39.413 43.0046 40.0941 41.5573 40.5438C40.1876 40.9807 38.7403 41.1221 37.2931 41.0835C36.4014 41.1735 35.5098 40.7109 34.644 41.0578C32.8608 41.5462 31.0388 42.33 30.1084 44.0263C29.9533 44.3219 30.005 44.6303 30.018 44.9387Z" fill="#FEF592"/>
<path d="M35.4969 40.9674C38.2363 41.43 41.118 41.0317 43.599 39.798C44.3097 39.4639 45.0204 39.1298 45.6794 38.7057C45.9637 38.5258 45.757 39.0142 45.8733 39.1298C45.925 38.6929 45.7957 38.3331 45.4598 37.999C43.3535 35.9172 40.5365 34.6064 37.5515 34.6064C34.7474 34.7735 32.0984 36.02 30.1084 37.9861C29.7724 38.3202 29.6303 38.68 29.6949 39.1298C29.9016 39.0656 29.6432 38.6029 29.9404 38.7957C31.659 39.7595 33.494 40.7361 35.4969 40.9674Z" fill="#EBE281"/>
<path d="M35.4968 40.9671C33.9074 40.6844 32.4085 40.0676 30.9741 39.3351C30.5994 39.1424 30.2376 38.9239 29.8757 38.7183C29.5656 38.5256 29.7982 39.0139 29.669 39.1424C29.7465 41.0699 29.8499 43.0232 30.005 44.9508C29.8887 43.7814 31.1421 42.7534 32.0208 42.1622C32.4343 41.9181 32.8737 41.7382 33.313 41.5711C34.0366 41.327 34.7473 40.98 35.4968 40.9671Z" fill="#E3DA72"/>
<path d="M45.757 41.0449C43.599 42.6255 40.9758 43.2552 38.3526 43.5379C40.782 44.0134 43.4439 43.3837 45.4985 41.983C45.7828 41.7131 45.6665 42.2015 45.6923 42.3557C45.7311 41.9188 45.757 41.4818 45.757 41.0449Z" fill="#E7DE81"/>
<path d="M30.0954 46.3386C30.1213 46.043 30.0179 45.8117 30.4055 46.0045C30.9483 46.2101 31.5168 46.3515 32.0983 46.4029C33.0287 46.5314 33.9462 46.4543 34.8636 46.3C34.799 46.1715 34.6569 46.1972 34.5664 46.1844C33.0546 45.876 31.3488 45.9017 30.0179 45.0664C30.0308 45.5033 30.0437 45.9145 30.0954 46.3386Z" fill="#E7DE81"/>
<path d="M45.4081 47.0586C45.3693 47.2256 45.2272 47.2256 45.085 47.2514C44.103 47.4698 43.0821 47.5469 42.1388 47.9324C43.095 48.1509 44.1288 48.0738 45.0979 47.9196C45.4468 47.8039 45.2918 48.1123 45.3305 48.3179C45.3822 47.9067 45.4081 47.4827 45.4081 47.0586Z" fill="#E7DE81"/>
<path d="M30.1343 46.9173C30.1213 46.7245 30.1859 46.5189 30.0955 46.3262C30.0955 46.5318 30.0826 46.7245 30.1343 46.9173Z" fill="#E7DE81"/>
<path d="M39.7224 40.6591C38.2622 40.2093 36.8408 39.6824 35.6003 38.7829C35.2126 38.4873 34.8637 38.1404 34.6053 37.7163C34.2435 37.0866 34.5019 36.5341 33.5327 36.3799C32.654 36.3156 32.0338 37.0609 31.6203 37.742C31.4006 38.5002 32.0209 39.2712 32.667 39.631C33.8816 40.2607 35.2255 40.582 36.5565 40.8518C37.6161 40.9675 38.6628 40.9289 39.7224 40.6591Z" fill="#FEF592"/>
<path d="M41.3764 36.5335C41.1697 36.0966 40.6269 36.4693 40.8595 36.8034C41.0921 37.0733 41.5056 36.8419 41.3764 36.5335Z" fill="#6F46BE"/>
<path d="M36.8925 35.9046C36.6857 35.4677 36.143 35.8404 36.3756 36.1745C36.5953 36.4443 37.0088 36.213 36.8925 35.9046Z" fill="#6F46BE"/>
<path d="M38.624 38.1273C38.4172 37.6904 37.8745 38.063 38.1071 38.3971C38.3397 38.6799 38.7532 38.4485 38.624 38.1273Z" fill="#6F46BE"/>
<path d="M41.3764 38.9759C41.1697 38.539 40.6269 38.9117 40.8595 39.2458C41.0921 39.5285 41.5056 39.2972 41.3764 38.9759Z" fill="#6F46BE"/>
<path d="M31.2714 38.1273C31.0646 37.6904 30.5219 38.063 30.7545 38.3971C30.9742 38.6799 31.3877 38.4485 31.2714 38.1273Z" fill="#6F46BE"/>
<path d="M35.148 38.7445C34.9412 38.3076 34.3985 38.6802 34.6311 39.0143C34.8508 39.297 35.2643 39.0657 35.148 38.7445Z" fill="#6F46BE"/>
<path d="M31.3231 12.9274C31.2068 13.6214 34.7345 13.9041 35.316 14.0711C34.1013 14.2639 32.8608 14.2382 31.6978 13.8013C31.3231 13.6342 31.3618 13.7884 31.3877 14.1097C31.5428 18.1447 31.2455 16.834 36.8796 17.0524C39.1022 17.0524 41.3377 17.0524 43.5603 17.0524C44.2451 17.0781 44.4131 16.3585 44.3873 15.8059C44.4002 15.6517 44.4648 15.3305 44.2193 15.4076C43.4181 15.5618 42.6169 15.5361 41.8029 15.4718C42.1647 15.3433 42.5523 15.2534 42.9271 15.1763C43.3535 15.0863 43.7929 15.0221 44.2193 14.9321C44.3485 14.9064 44.439 14.8679 44.4519 14.7137C44.5423 13.3772 44.6199 12.0408 44.6845 10.7043C44.6845 10.6015 44.762 10.216 44.594 10.2931C42.8366 11.5267 40.6528 11.9637 38.5336 11.7195C40.6916 11.5396 42.8237 10.9485 44.6328 9.72768C44.6974 9.68912 44.7232 9.63772 44.7491 9.57347C44.8008 8.93095 44.8525 8.28842 44.8266 7.6459C44.8266 7.50455 44.7879 7.47884 44.6586 7.5431C43.5473 8.19847 42.3973 8.76389 41.1568 9.14941C39.9938 9.52207 38.7533 9.63772 37.5257 9.61202C36.7762 9.68913 36.0009 9.29076 35.2772 9.59917C33.7524 10.0104 32.2018 10.6786 31.4135 12.1307C31.2585 12.4134 31.3102 12.6704 31.3231 12.9274Z" fill="#FEF592"/>
<path d="M35.988 9.54774C38.3268 9.94611 40.782 9.61199 42.9013 8.5454C43.5086 8.26269 44.103 7.97998 44.6716 7.62017C44.9042 7.46597 44.7362 7.89003 44.8266 7.99283C44.8654 7.62017 44.762 7.31176 44.4777 7.02905C42.6816 5.25569 40.291 4.1377 37.7324 4.1377C35.3419 4.27905 33.0934 5.34564 31.3877 7.0162C31.1034 7.29891 30.9871 7.60732 31.0259 7.99284C31.1939 7.94143 30.9871 7.54307 31.2326 7.71013C32.7187 8.5197 34.2822 9.35499 35.988 9.54774Z" fill="#EBE281"/>
<path d="M35.9879 9.54797C34.6311 9.30382 33.3647 8.77695 32.1371 8.16012C31.8141 8.00592 31.5169 7.81316 31.2068 7.63326C30.9483 7.4662 31.1421 7.89026 31.0388 7.99307C31.1034 9.63793 31.1938 11.2956 31.3231 12.9405C31.2197 11.951 32.2922 11.0643 33.0417 10.5632C33.3906 10.3576 33.7653 10.2033 34.1401 10.062C34.7474 9.85639 35.3547 9.56083 35.9879 9.54797Z" fill="#E3DA72"/>
<path d="M44.7362 9.6123C42.8884 10.9616 40.6528 11.5013 38.4173 11.7326C40.4849 12.131 42.7591 11.5913 44.5036 10.409C44.7491 10.1777 44.6458 10.5889 44.6716 10.7303C44.7104 10.3576 44.7362 9.98497 44.7362 9.6123Z" fill="#E7DE81"/>
<path d="M31.3877 14.1223C31.4135 13.8781 31.3231 13.6725 31.6591 13.8395C32.1243 14.0194 32.6024 14.1351 33.1063 14.1865C33.8946 14.2893 34.6828 14.2379 35.4711 14.1094C35.4194 13.9937 35.3031 14.0194 35.2126 14.0066C33.9204 13.7496 32.4732 13.7624 31.336 13.0557C31.3231 13.4155 31.3489 13.7624 31.3877 14.1223Z" fill="#E7DE81"/>
<path d="M44.439 14.7393C44.4002 14.8806 44.2839 14.8806 44.1676 14.9063C43.3277 15.0991 42.4619 15.1633 41.6478 15.4846C42.4619 15.6773 43.3406 15.6002 44.1676 15.4717C44.4648 15.3818 44.3356 15.6388 44.3614 15.8187C44.4131 15.4589 44.439 15.0991 44.439 14.7393Z" fill="#E7DE81"/>
<path d="M31.4136 14.6232C31.4006 14.4562 31.4523 14.2891 31.3877 14.1221C31.3877 14.2891 31.3748 14.4562 31.4136 14.6232Z" fill="#E7DE81"/>
<path d="M39.5933 9.29084C38.3527 8.90533 37.1381 8.45556 36.0785 7.69739C35.7425 7.44038 35.4582 7.14482 35.2256 6.79785C34.9155 6.25813 35.1352 5.79552 34.3081 5.66701C33.5587 5.61561 33.0289 6.24528 32.68 6.82356C32.4991 7.46608 33.0159 8.12145 33.5716 8.42986C34.6053 8.96958 35.7554 9.23944 36.8926 9.47075C37.7971 9.54785 38.6887 9.5093 39.5933 9.29084Z" fill="#FEF592"/>
<path d="M41.0018 5.77017C40.8208 5.3975 40.3557 5.71877 40.5624 6.00148C40.7562 6.23278 41.1051 6.04003 41.0018 5.77017Z" fill="#6F46BE"/>
<path d="M37.1768 5.23013C36.9959 4.85747 36.5307 5.17873 36.7375 5.46144C36.9313 5.69275 37.2802 5.49999 37.1768 5.23013Z" fill="#6F46BE"/>
<path d="M38.6628 7.1315C38.4819 6.75883 38.0167 7.08009 38.2234 7.3628C38.4043 7.59411 38.7532 7.40136 38.6628 7.1315Z" fill="#6F46BE"/>
<path d="M41.0018 7.85122C40.8208 7.47856 40.3557 7.79982 40.5624 8.08253C40.7562 8.31384 41.1051 8.12108 41.0018 7.85122Z" fill="#6F46BE"/>
<path d="M32.3827 7.1315C32.2018 6.75883 31.7366 7.08009 31.9434 7.3628C32.1372 7.59411 32.4861 7.40136 32.3827 7.1315Z" fill="#6F46BE"/>
<path d="M35.6907 7.65884C35.5098 7.28618 35.0446 7.60744 35.2514 7.89015C35.4452 8.12146 35.7941 7.9287 35.6907 7.65884Z" fill="#6F46BE"/>
<path d="M14.731 16.4362C14.6147 17.1302 18.1425 17.4129 18.724 17.5799C17.5093 17.7727 16.2688 17.747 15.1058 17.3101C14.731 17.143 14.7698 17.2972 14.7956 17.6185C14.9507 21.6535 14.6535 20.3428 20.2875 20.5612C22.5101 20.5612 24.7456 20.5612 26.9682 20.5612C27.6531 20.5869 27.8211 19.8673 27.7952 19.3147C27.8082 19.1605 27.8728 18.8393 27.6272 18.9164C26.8261 19.0706 26.0249 19.0449 25.2108 18.9806C25.5726 18.8521 25.9603 18.7622 26.335 18.6851C26.7615 18.5951 27.2008 18.5309 27.6272 18.4409C27.7565 18.4152 27.8469 18.3767 27.8598 18.2224C27.9503 16.886 28.0278 15.5495 28.0924 14.2131C28.0924 14.1103 28.17 13.7248 28.002 13.8019C26.2446 15.0355 24.0608 15.4724 21.9415 15.2283C24.0995 15.0484 26.2317 14.4573 28.0408 13.2365C28.1054 13.1979 28.1312 13.1465 28.1571 13.0823C28.2087 12.4397 28.2604 11.7972 28.2346 11.1547C28.2346 11.0133 28.1958 10.9876 28.0666 11.0519C26.9553 11.7073 25.8052 12.2727 24.5647 12.6582C23.4017 13.0309 22.1612 13.1465 20.9336 13.1208C20.1841 13.1979 19.4088 12.7995 18.6852 13.108C17.1604 13.5192 15.6097 14.1874 14.8215 15.6395C14.6793 15.9222 14.731 16.1792 14.731 16.4362Z" fill="#FEF592"/>
<path d="M19.4089 13.0565C21.7477 13.4549 24.2029 13.1208 26.3222 12.0542C26.9295 11.7715 27.5239 11.4888 28.0925 11.129C28.3251 10.9748 28.1571 11.3988 28.2475 11.5016C28.2863 11.129 28.1829 10.8205 27.8986 10.5378C26.1025 8.76448 23.7119 7.64648 21.1533 7.64648C18.7628 7.78784 16.5143 8.85443 14.8086 10.525C14.5243 10.8077 14.408 11.1161 14.4468 11.5016C14.6148 11.4502 14.408 11.0519 14.6535 11.2189C16.1396 12.0285 17.7031 12.8638 19.4089 13.0565Z" fill="#EBE281"/>
<path d="M19.4088 13.0568C18.052 12.8126 16.7856 12.2857 15.558 11.6689C15.235 11.5147 14.9378 11.322 14.6277 11.142C14.3692 10.975 14.563 11.3991 14.4597 11.5019C14.5243 13.1467 14.6147 14.8044 14.744 16.4493C14.6406 15.4598 15.7131 14.5731 16.4626 14.072C16.8115 13.8663 17.1862 13.7121 17.561 13.5708C18.1554 13.3652 18.7627 13.0696 19.4088 13.0568Z" fill="#E3DA72"/>
<path d="M28.1571 13.1211C26.3093 14.4704 24.0737 15.0101 21.8382 15.2414C23.9057 15.6398 26.18 15.1001 27.9245 13.9178C28.17 13.6865 28.0667 14.0977 28.0925 14.2391C28.1313 13.8664 28.1442 13.4938 28.1571 13.1211Z" fill="#E7DE81"/>
<path d="M14.7957 17.631C14.8215 17.3869 14.731 17.1813 15.067 17.3483C15.5322 17.5282 16.0103 17.6439 16.5143 17.6953C17.3025 17.7981 18.0908 17.7467 18.879 17.6182C18.8273 17.5025 18.711 17.5282 18.6206 17.5154C17.3284 17.2584 15.8811 17.2712 14.744 16.5645C14.744 16.9243 14.7569 17.2712 14.7957 17.631Z" fill="#E7DE81"/>
<path d="M27.8599 18.248C27.8211 18.3894 27.7048 18.3894 27.5885 18.4151C26.7486 18.6079 25.8828 18.6721 25.0687 18.9934C25.8828 19.1861 26.7615 19.109 27.5885 18.9805C27.8857 18.8906 27.7565 19.1476 27.7823 19.3275C27.834 18.9677 27.8469 18.6079 27.8599 18.248Z" fill="#E7DE81"/>
<path d="M14.8345 18.132C14.8215 17.965 14.8732 17.7979 14.8086 17.6309C14.7957 17.7979 14.7828 17.965 14.8345 18.132Z" fill="#E7DE81"/>
<path d="M23.0142 12.7996C21.7736 12.4141 20.559 11.9644 19.4994 11.2062C19.1634 10.9492 18.8791 10.6536 18.6465 10.3066C18.3364 9.76692 18.556 9.30431 17.729 9.1758C16.9796 9.1244 16.4498 9.75407 16.1009 10.3323C15.92 10.9749 16.4368 11.6302 16.9925 11.9387C18.0262 12.4784 19.1763 12.7482 20.3134 12.9795C21.218 13.0566 22.1096 13.0181 23.0142 12.7996Z" fill="#FEF592"/>
<path d="M24.4227 9.27896C24.2417 8.90629 23.7766 9.22756 23.9833 9.51027C24.1771 9.74157 24.526 9.54882 24.4227 9.27896Z" fill="#6F46BE"/>
<path d="M20.5977 8.73892C20.4168 8.36625 19.9516 8.68752 20.1584 8.97023C20.3393 9.20154 20.7011 9.00878 20.5977 8.73892Z" fill="#6F46BE"/>
<path d="M22.0708 10.6403C21.8899 10.2676 21.4247 10.5889 21.6315 10.8716C21.8253 11.1029 22.1742 10.9101 22.0708 10.6403Z" fill="#6F46BE"/>
<path d="M24.4227 11.36C24.2417 10.9873 23.7766 11.3086 23.9833 11.5913C24.1771 11.8226 24.526 11.6299 24.4227 11.36Z" fill="#6F46BE"/>
<path d="M15.8036 10.6403C15.6227 10.2676 15.1575 10.5889 15.3643 10.8716C15.5581 11.1029 15.907 10.9101 15.8036 10.6403Z" fill="#6F46BE"/>
<path d="M19.1116 11.1676C18.9307 10.795 18.4655 11.1162 18.6723 11.3989C18.8532 11.6302 19.215 11.4375 19.1116 11.1676Z" fill="#6F46BE"/>
<path d="M15.8295 37.8703C15.7261 38.5129 19.0342 38.7827 19.5769 38.9498C18.4397 39.1297 17.2768 39.104 16.1784 38.7056C15.8295 38.5514 15.8683 38.6928 15.8941 39.0012C16.0362 42.7792 15.7649 41.5584 21.0371 41.7512C23.1304 41.7512 25.2238 41.7512 27.3043 41.7512C27.9375 41.7769 28.1054 41.0958 28.0796 40.5818C28.0925 40.4404 28.1571 40.132 27.9116 40.2091C27.1621 40.3505 26.3997 40.3248 25.6503 40.2605C25.9991 40.1449 26.348 40.0549 26.7099 39.9907C27.1104 39.9136 27.5239 39.8493 27.9245 39.7593C28.0408 39.7336 28.1313 39.6951 28.1442 39.5537C28.2217 38.2944 28.2993 37.0479 28.3639 35.7886C28.3639 35.6986 28.4414 35.3388 28.2734 35.403C26.6194 36.5596 24.5777 36.9708 22.5877 36.7395C24.6165 36.5724 26.6194 36.0199 28.3122 34.8762C28.3639 34.8376 28.3897 34.7862 28.4156 34.7348C28.4673 34.1308 28.506 33.5269 28.4931 32.9229C28.4931 32.7815 28.4543 32.7687 28.338 32.8329C27.3043 33.4369 26.2059 33.9895 25.0558 34.3365C23.9575 34.6834 22.8074 34.7991 21.6444 34.7605C20.9337 34.8376 20.2101 34.465 19.5252 34.7477C18.0909 35.1332 16.6436 35.7629 15.8941 37.125C15.7778 37.382 15.8295 37.6262 15.8295 37.8703Z" fill="#FEF592"/>
<path d="M20.223 34.6962C22.4197 35.0689 24.7199 34.7476 26.7099 33.7581C27.2784 33.5011 27.847 33.2313 28.3639 32.8843C28.5836 32.7429 28.4156 33.1285 28.519 33.2313C28.5577 32.8714 28.4543 32.5887 28.1959 32.3317C26.5031 30.6612 24.2676 29.6203 21.8641 29.6074C19.6157 29.7359 17.5094 30.7383 15.907 32.3189C15.6486 32.5887 15.5323 32.8714 15.5711 33.2313C15.739 33.1799 15.5323 32.8072 15.7649 32.9614C17.1476 33.7324 18.6207 34.5163 20.223 34.6962Z" fill="#EBE281"/>
<path d="M20.223 34.6963C18.9437 34.465 17.7549 33.9767 16.6048 33.3856C16.3076 33.2314 16.0234 33.0643 15.7262 32.8973C15.4806 32.7431 15.6615 33.1286 15.5582 33.2314C15.6228 34.7734 15.7003 36.3284 15.8295 37.8704C15.7391 36.9452 16.7341 36.1099 17.4319 35.6344C17.7549 35.4417 18.1167 35.2875 18.4656 35.159C19.0471 34.9919 19.6157 34.722 20.223 34.6963Z" fill="#E3DA72"/>
<path d="M28.4285 34.7607C26.6969 36.0329 24.6035 36.5341 22.4973 36.7526C24.4356 37.1252 26.5677 36.6241 28.2088 35.5189C28.4414 35.3005 28.338 35.686 28.3639 35.8145C28.4026 35.4547 28.4155 35.1077 28.4285 34.7607Z" fill="#E7DE81"/>
<path d="M15.8942 39.0014C15.92 38.7701 15.8296 38.5901 16.1397 38.7443C16.579 38.9114 17.0313 39.0271 17.4965 39.0656C18.2331 39.1684 18.9696 39.1042 19.7062 38.9885C19.6545 38.8857 19.5382 38.8986 19.4736 38.8857C18.2718 38.6415 16.9021 38.6544 15.8296 37.999C15.8425 38.3203 15.8554 38.6544 15.8942 39.0014Z" fill="#E7DE81"/>
<path d="M28.1442 39.5664C28.1054 39.6949 28.002 39.6949 27.8857 39.7206C27.0975 39.9005 26.2834 39.9648 25.521 40.2603C26.2834 40.4402 27.1104 40.376 27.8857 40.2475C28.1571 40.1575 28.0408 40.4017 28.0796 40.5687C28.1312 40.2475 28.1442 39.9134 28.1442 39.5664Z" fill="#E7DE81"/>
<path d="M15.9199 39.4636C15.907 39.3094 15.9587 39.1423 15.8941 39.001C15.8941 39.1552 15.8812 39.3094 15.9199 39.4636Z" fill="#E7DE81"/>
<path d="M23.5957 34.4524C22.4327 34.0926 21.2956 33.6686 20.3006 32.9618C19.9905 32.7176 19.7191 32.4478 19.4994 32.1137C19.2022 31.6125 19.4219 31.1756 18.6466 31.0471C17.9488 30.9957 17.4448 31.5868 17.1218 32.1394C16.9538 32.7433 17.4448 33.3602 17.9488 33.6429C18.9179 34.1569 19.9904 34.401 21.063 34.6195C21.9158 34.7095 22.7558 34.6709 23.5957 34.4524Z" fill="#FEF592"/>
<path d="M24.9266 31.1498C24.7586 30.8029 24.3193 31.0984 24.5131 31.3683C24.694 31.5867 25.0171 31.4068 24.9266 31.1498Z" fill="#6F46BE"/>
<path d="M21.3343 30.6479C21.1663 30.3009 20.727 30.5965 20.9208 30.8663C21.1017 31.0848 21.4248 30.9049 21.3343 30.6479Z" fill="#6F46BE"/>
<path d="M22.717 32.435C22.549 32.088 22.1096 32.3836 22.3035 32.6534C22.4844 32.8719 22.8204 32.6791 22.717 32.435Z" fill="#6F46BE"/>
<path d="M24.9266 33.1156C24.7586 32.7687 24.3193 33.0642 24.5131 33.3341C24.694 33.5525 25.0171 33.3598 24.9266 33.1156Z" fill="#6F46BE"/>
<path d="M16.8374 32.435C16.6694 32.088 16.23 32.3836 16.4239 32.6534C16.6048 32.8719 16.9278 32.6791 16.8374 32.435Z" fill="#6F46BE"/>
<path d="M19.9387 32.9233C19.7707 32.5763 19.3314 32.8718 19.5252 33.1417C19.7061 33.3602 20.0291 33.1803 19.9387 32.9233Z" fill="#6F46BE"/>
<path d="M28.9712 29.6848C28.8678 30.3273 32.1759 30.5972 32.7186 30.7642C31.5815 30.9441 30.4185 30.9184 29.3201 30.5201C28.9712 30.3659 29.01 30.5072 29.0358 30.8156C29.178 34.5937 28.9066 33.3729 34.1788 33.5656C36.2722 33.5656 38.3655 33.5656 40.446 33.5656C41.0792 33.5913 41.2472 32.9103 41.2213 32.3962C41.2342 32.2549 41.2989 31.9465 41.0533 32.0236C40.3039 32.1649 39.5415 32.1392 38.792 32.075C39.1409 31.9593 39.4898 31.8694 39.8516 31.8051C40.2522 31.728 40.6657 31.6638 41.0663 31.5738C41.1826 31.5481 41.273 31.5096 41.2859 31.3682C41.3635 30.1089 41.441 28.8624 41.5056 27.603C41.5056 27.5131 41.5831 27.1532 41.4151 27.2175C39.7611 28.374 37.7194 28.7853 35.7294 28.5539C37.7582 28.3869 39.7611 27.8343 41.4539 26.6906C41.5056 26.6521 41.5314 26.6007 41.5573 26.5493C41.609 25.9453 41.6477 25.3413 41.6348 24.7374C41.6348 24.596 41.5961 24.5831 41.4798 24.6474C40.446 25.2514 39.3476 25.8039 38.1976 26.1509C37.0992 26.4979 35.9491 26.6135 34.7861 26.575C34.0754 26.6521 33.3518 26.2794 32.6669 26.5621C31.2326 26.9476 29.7853 27.5773 29.0358 28.9395C28.9066 29.1965 28.9583 29.4406 28.9712 29.6848Z" fill="#FEF592"/>
<path d="M33.3518 26.5107C35.5485 26.8833 37.8487 26.5621 39.8387 25.5726C40.4072 25.3156 40.9758 25.0457 41.4927 24.6987C41.7124 24.5574 41.5444 24.9429 41.6477 25.0457C41.6865 24.6859 41.5831 24.4032 41.3247 24.1462C39.6319 22.4756 37.3964 21.4347 34.9929 21.4219C32.7445 21.5504 30.6382 22.5527 29.0358 24.1333C28.7774 24.4032 28.6611 24.6859 28.6998 25.0457C28.8678 24.9943 28.6611 24.6216 28.8937 24.7758C30.2763 25.5469 31.7495 26.3179 33.3518 26.5107Z" fill="#EBE281"/>
<path d="M33.3518 26.5108C32.0725 26.2795 30.8837 25.7912 29.7336 25.2C29.4364 25.0458 29.1521 24.8788 28.8549 24.7117C28.6094 24.5575 28.7903 24.943 28.6869 25.0458C28.7516 26.5879 28.8291 28.1428 28.9583 29.6849C28.8679 28.7596 29.8629 27.9243 30.5606 27.4489C30.8837 27.2561 31.2455 27.1019 31.5944 26.9734C32.1759 26.7935 32.7445 26.5236 33.3518 26.5108Z" fill="#E3DA72"/>
<path d="M41.5573 26.5625C39.8257 27.8347 37.7323 28.3359 35.626 28.5543C37.5643 28.927 39.6965 28.4258 41.3376 27.3207C41.5702 27.1022 41.4668 27.4877 41.4926 27.6162C41.5314 27.2693 41.5443 26.9095 41.5573 26.5625Z" fill="#E7DE81"/>
<path d="M29.023 30.8031C29.0488 30.5718 28.9583 30.3919 29.2685 30.5461C29.7078 30.7132 30.1601 30.8288 30.6253 30.8674C31.3618 30.9702 32.0984 30.9059 32.835 30.7903C32.7833 30.6875 32.667 30.7003 32.6024 30.6875C31.4006 30.4433 30.0309 30.4562 28.9583 29.8008C28.9713 30.1349 28.9971 30.469 29.023 30.8031Z" fill="#E7DE81"/>
<path d="M41.2729 31.3809C41.2342 31.5094 41.1308 31.5094 41.0145 31.5351C40.2263 31.715 39.4122 31.7792 38.6498 32.0748C39.4122 32.2547 40.2392 32.1904 41.0145 32.0619C41.2859 31.972 41.1696 32.2161 41.2083 32.3832C41.26 32.0491 41.2729 31.715 41.2729 31.3809Z" fill="#E7DE81"/>
<path d="M29.0616 31.2654C29.0487 31.1111 29.1004 30.9441 29.0358 30.8027C29.0229 30.9569 29.01 31.1111 29.0616 31.2654Z" fill="#E7DE81"/>
<path d="M36.7245 26.2532C35.5615 25.8934 34.4244 25.4694 33.4294 24.7626C33.1192 24.5184 32.8479 24.2486 32.6282 23.9144C32.331 23.4133 32.5507 22.9764 31.7753 22.8479C31.0776 22.7965 30.5736 23.3876 30.2505 23.9401C30.0826 24.5441 30.5736 25.1609 31.0775 25.4437C32.0467 25.9577 33.1192 26.2018 34.1918 26.4203C35.0446 26.5102 35.8846 26.4717 36.7245 26.2532Z" fill="#FEF592"/>
<path d="M38.0554 22.9643C37.8874 22.6173 37.448 22.9129 37.6419 23.1827C37.8228 23.4012 38.1458 23.2084 38.0554 22.9643Z" fill="#6F46BE"/>
<path d="M34.4631 22.4496C34.2951 22.1027 33.8558 22.3982 34.0496 22.6681C34.2305 22.8865 34.5536 22.7066 34.4631 22.4496Z" fill="#6F46BE"/>
<path d="M35.8458 24.2358C35.6778 23.8888 35.2384 24.1844 35.4323 24.4542C35.6132 24.6727 35.9491 24.4928 35.8458 24.2358Z" fill="#6F46BE"/>
<path d="M38.0554 24.9174C37.8874 24.5704 37.448 24.866 37.6419 25.1359C37.8228 25.3543 38.1458 25.1744 38.0554 24.9174Z" fill="#6F46BE"/>
<path d="M29.9662 24.2358C29.7983 23.8888 29.3589 24.1844 29.5527 24.4542C29.7336 24.6727 30.0696 24.4928 29.9662 24.2358Z" fill="#6F46BE"/>
<path d="M33.0675 24.7377C32.8995 24.3907 32.4601 24.6863 32.654 24.9562C32.8349 25.1746 33.1579 24.9819 33.0675 24.7377Z" fill="#6F46BE"/>
<path d="M72.7124 7.77474C73.7461 7.80045 75.1805 9.3939 75.2709 11.5399C75.3614 13.686 73.8883 14.6497 72.7641 14.6497C71.5752 14.6497 70.0504 13.9301 70.128 11.5656C70.2184 9.22685 71.7044 7.74904 72.7124 7.77474Z" fill="#F7EEED"/>
<path d="M70.1279 11.578C70.2054 9.57337 71.2909 8.21122 72.2213 7.86426C72.0145 8.03131 70.9937 8.87944 70.6836 10.6914C70.3605 12.6061 71.0583 14.328 73.3972 14.5336C73.423 14.5336 73.4489 14.5336 73.4618 14.5336C73.2163 14.6108 72.9708 14.6622 72.7511 14.6622C71.5623 14.6622 70.0374 13.9425 70.1279 11.578Z" fill="#F0E4D6"/>
<path d="M73.1517 8.25025C73.5652 8.19885 74.5214 9.77945 74.3405 10.679C74.1725 11.5785 73.3843 11.1802 73.1646 10.3706C72.9449 9.56099 72.6865 8.30165 73.1517 8.25025Z" fill="white"/>
<path d="M68.0088 7.69694C68.5903 8.54507 68.1509 10.6397 66.4581 11.9761C64.7653 13.3126 63.1113 12.6958 62.4523 11.7962C61.7545 10.8325 61.4315 9.1876 63.4085 7.864C65.3727 6.55325 67.4402 6.87451 68.0088 7.69694Z" fill="#F7EEED"/>
<path d="M63.3956 7.86452C65.0626 6.74653 66.807 6.81078 67.647 7.36335C67.3885 7.28625 66.0963 6.97784 64.4423 7.80027C62.6978 8.66125 61.7158 10.2419 62.9304 12.2465C62.9433 12.2722 62.9563 12.2851 62.9692 12.3108C62.7624 12.1694 62.5815 11.9895 62.4523 11.8096C61.7416 10.833 61.4315 9.18812 63.3956 7.86452Z" fill="#F0E4D6"/>
<path d="M67.8796 8.32686C68.1638 8.63527 67.4402 10.3315 66.6132 10.717C65.7862 11.1026 65.644 10.2416 66.1738 9.58621C66.7036 8.93083 67.5694 7.9799 67.8796 8.32686Z" fill="white"/>
<path d="M66.2646 17.3229C66.5101 16.3334 68.3708 15.254 70.503 15.6138C72.6351 15.9736 73.2812 17.6056 73.0357 18.6979C72.7902 19.8544 71.7564 21.1909 69.4563 20.6126C67.1691 20.0472 66.032 18.2867 66.2646 17.3229Z" fill="#F7EEED"/>
<path d="M69.4689 20.6258C67.5177 20.1375 66.4064 18.801 66.2514 17.8115C66.3677 18.0557 66.9879 19.2122 68.7065 19.8933C70.5156 20.6129 72.3506 20.2788 73.0484 18.0557C73.0613 18.03 73.0613 18.0171 73.0742 17.9914C73.1 18.2484 73.0871 18.4926 73.0484 18.7111C72.8028 19.8676 71.7691 21.1912 69.4689 20.6258Z" fill="#F0E4D6"/>
<path d="M66.8329 16.9889C66.8717 16.5777 68.6291 15.9737 69.469 16.3336C70.3089 16.6934 69.7662 17.3616 68.9134 17.413C68.0734 17.4644 66.7812 17.4515 66.8329 16.9889Z" fill="white"/>
<path d="M78.1138 4.39511C79.1217 4.1895 80.8791 5.43599 81.4477 7.51777C82.0034 9.59954 80.7887 10.8589 79.6903 11.103C78.5273 11.3601 76.8862 10.9874 76.4469 8.67431C76.0075 6.36123 77.1318 4.60071 78.1138 4.39511Z" fill="#F7EEED"/>
<path d="M76.4469 8.67434C76.0722 6.70822 76.8346 5.14046 77.6745 4.58789C77.5065 4.7935 76.7054 5.84724 76.7958 7.68485C76.8992 9.62527 77.9717 11.1416 80.2977 10.8332C80.3235 10.8332 80.3494 10.8332 80.3623 10.8204C80.1426 10.9489 79.91 11.0517 79.6904 11.1031C78.5274 11.3601 76.8734 10.9874 76.4469 8.67434Z" fill="#F0E4D6"/>
<path d="M78.6566 4.76817C79.0443 4.62682 80.3235 5.96327 80.3494 6.87565C80.3752 7.78803 79.5353 7.56957 79.1347 6.82425C78.7341 6.09177 78.2043 4.92238 78.6566 4.76817Z" fill="white"/>
<path d="M75.8137 16.3326C76.8216 16.127 78.579 17.3735 79.1475 19.4553C79.7032 21.537 78.4885 22.7964 77.3901 23.0405C76.2272 23.2976 74.5861 22.9249 74.1467 20.6118C73.6944 18.2859 74.8187 16.5254 75.8137 16.3326Z" fill="#F7EEED"/>
<path d="M74.1338 20.6118C73.7591 18.6457 74.5215 17.078 75.3614 16.5254C75.1934 16.731 74.3923 17.7847 74.4827 19.6224C74.5861 21.5628 75.6586 23.0791 77.9846 22.7707C78.0104 22.7707 78.0363 22.7707 78.0492 22.7579C77.8295 22.8864 77.5969 22.9892 77.3772 23.0406C76.2143 23.2976 74.5732 22.9249 74.1338 20.6118Z" fill="#F0E4D6"/>
<path d="M76.3435 16.7057C76.7441 16.5643 78.0105 17.9008 78.0492 18.8131C78.0751 19.7255 77.2351 19.5071 76.8345 18.7617C76.434 18.0164 75.9042 16.8599 76.3435 16.7057Z" fill="white"/>
<path d="M61.8062 22.3594C60.7724 22.3337 59.3381 20.7402 59.2476 18.5942C59.1572 16.4482 60.6303 15.4844 61.7545 15.4844C62.9433 15.4844 64.4681 16.204 64.3906 18.5685C64.3001 20.9201 62.8012 22.3851 61.8062 22.3594Z" fill="#F7EEED"/>
<path d="M64.3777 18.5558C64.3002 20.5605 63.2148 21.9226 62.2844 22.2696C62.4911 22.1025 63.512 21.2544 63.8221 19.4425C64.1452 17.5278 63.4474 15.8058 61.1085 15.6002C61.0826 15.6002 61.0568 15.6002 61.0439 15.6002C61.2894 15.5231 61.5349 15.4717 61.7546 15.4717C62.9434 15.4845 64.4682 16.2042 64.3777 18.5558Z" fill="#F0E4D6"/>
<path d="M61.3668 21.8843C60.9533 21.9357 59.997 20.3551 60.178 19.4556C60.3459 18.5561 61.1342 18.9544 61.3539 19.764C61.5735 20.5864 61.832 21.8329 61.3668 21.8843Z" fill="white"/>
<path d="M53.9367 23.7861C52.9029 23.7604 51.4686 22.167 51.3781 20.0209C51.2877 17.8749 52.7608 16.9111 53.885 16.9111C55.0738 16.9111 56.5986 17.6308 56.5211 19.9952C56.4306 22.3469 54.9446 23.8118 53.9367 23.7861Z" fill="#F7EEED"/>
<path d="M56.5211 19.9952C56.4436 21.9999 55.3581 23.3621 54.4277 23.709C54.6345 23.542 55.6553 22.6938 55.9654 20.8819C56.2885 18.9672 55.5907 17.2452 53.2518 17.0396C53.226 17.0396 53.2001 17.0396 53.1872 17.0396C53.4327 16.9625 53.6782 16.9111 53.8979 16.9111C55.0738 16.9111 56.5986 17.6308 56.5211 19.9952Z" fill="#F0E4D6"/>
<path d="M53.4973 23.3238C53.0838 23.3752 52.1275 21.7946 52.3084 20.895C52.4764 19.9955 53.2647 20.3939 53.4844 21.2035C53.704 22.013 53.9625 23.2724 53.4973 23.3238Z" fill="white"/>
<path d="M55.1384 7.06816C54.88 6.07867 56.0171 4.25391 58.0718 3.57283C60.1264 2.89176 61.4703 4.0226 61.7804 5.10204C62.1164 6.24573 61.8321 7.90344 59.5319 8.46886C57.2189 9.04713 55.384 8.03194 55.1384 7.06816Z" fill="#F7EEED"/>
<path d="M59.519 8.46849C57.5678 8.9568 55.9525 8.30143 55.3452 7.49185C55.5649 7.64606 56.6632 8.37853 58.4982 8.17292C60.4365 7.95447 61.8967 6.79792 61.4444 4.51054C61.4444 4.48484 61.4315 4.45914 61.4315 4.44629C61.5736 4.6519 61.6899 4.88321 61.7545 5.10166C62.1034 6.24535 61.8321 7.89021 59.519 8.46849Z" fill="#F0E4D6"/>
<path d="M55.4744 6.51606C55.3194 6.13054 56.5728 4.78124 57.4903 4.70414C58.4077 4.62704 58.2397 5.47517 57.5161 5.91208C56.7925 6.349 55.6553 6.94012 55.4744 6.51606Z" fill="white"/>
<path d="M55.3581 13.6475C55.1384 12.838 56.0688 11.3473 57.7487 10.7819C59.4285 10.2293 60.5269 11.1545 60.7853 12.0412C61.0567 12.9793 60.837 14.3286 58.9504 14.8041C57.0638 15.2667 55.5648 14.4314 55.3581 13.6475Z" fill="#F7EEED"/>
<path d="M58.9504 14.7917C57.3481 15.19 56.03 14.6503 55.539 13.9949C55.7199 14.1234 56.6244 14.7274 58.1234 14.5475C59.7128 14.3676 60.9016 13.4295 60.5398 11.5534C60.5398 11.5405 60.5269 11.5148 60.5269 11.502C60.6432 11.669 60.7336 11.8489 60.7853 12.0288C61.0567 12.9669 60.837 14.3291 58.9504 14.7917Z" fill="#F0E4D6"/>
<path d="M55.6295 13.1853C55.5003 12.8768 56.534 11.7717 57.2706 11.6946C58.0201 11.6303 57.8779 12.3243 57.2964 12.6841C56.7149 13.0567 55.7716 13.5451 55.6295 13.1853Z" fill="white"/>
<path d="M67.3755 5.25594C67.1559 4.44636 68.0862 2.9557 69.7661 2.39028C71.446 1.83771 72.5443 2.76295 72.8028 3.64963C73.0742 4.58771 72.8545 5.93701 70.9679 6.41248C69.0812 6.8751 67.5823 6.03982 67.3755 5.25594Z" fill="#F7EEED"/>
<path d="M70.9679 6.40007C69.3655 6.79844 68.0475 6.25872 67.5564 5.60334C67.7373 5.73185 68.6419 6.33582 70.1408 6.15591C71.7303 5.97601 72.9191 5.03792 72.5573 3.16175C72.5573 3.1489 72.5443 3.1232 72.5443 3.11035C72.6606 3.27741 72.7511 3.45731 72.8028 3.63722C73.0742 4.5753 72.8545 5.93745 70.9679 6.40007Z" fill="#F0E4D6"/>
<path d="M67.6469 4.79365C67.5177 4.48524 68.5515 3.3801 69.288 3.303C70.0375 3.23875 69.8954 3.93267 69.3139 4.29249C68.7324 4.66515 67.802 5.15347 67.6469 4.79365Z" fill="white"/>
<path d="M70.7222 26.5743C70.5025 25.7647 71.4329 24.2741 73.1128 23.7086C74.7927 23.1561 75.891 24.0813 76.1495 24.968C76.4208 25.9061 76.2012 27.2554 74.3145 27.7308C72.4408 28.1935 70.9419 27.371 70.7222 26.5743Z" fill="#F7EEED"/>
<path d="M74.3147 27.7311C72.7124 28.1295 71.3943 27.5898 70.9033 26.9344C71.0842 27.0629 71.9887 27.6669 73.4877 27.487C75.0771 27.3071 76.2659 26.369 75.9041 24.4928C75.9041 24.48 75.8912 24.4543 75.8912 24.4414C76.0075 24.6085 76.098 24.7884 76.1497 24.9683C76.4339 25.9064 76.2013 27.2557 74.3147 27.7311Z" fill="#F0E4D6"/>
<path d="M71.0067 26.1247C70.8775 25.8163 71.9112 24.7112 72.6478 24.6341C73.3973 24.5698 73.2551 25.2637 72.6736 25.6235C72.0792 25.9834 71.1488 26.4717 71.0067 26.1247Z" fill="white"/>
<path d="M69.792 49.8466C71.0584 49.384 72.118 48.4202 72.6607 47.2251C72.7382 47.0581 72.8028 46.891 72.945 46.7625C73.1 46.6212 73.3197 46.5698 73.5135 46.5055C74.3535 46.2871 75.1934 46.0686 76.0333 45.8244C76.7182 45.6317 77.4289 45.4132 77.9846 44.9763C78.6953 44.398 79.0313 43.5242 79.3026 42.6761C79.7032 41.4553 80.0263 40.2088 80.0521 38.9366C80.078 37.6644 79.7678 36.3536 78.9925 35.3128C78.1784 34.2333 76.9379 33.5265 75.7361 32.8455C76.2013 31.6889 77.093 30.6994 77.4935 29.5172C78.0233 27.9237 77.5194 26.0604 76.2789 24.8782C75.0383 23.6959 73.1259 23.2205 71.4202 23.6317C69.7274 24.0429 68.293 25.3151 67.6857 26.8829C65.6311 25.7906 62.9433 26.0219 61.0308 27.3326C59.1184 28.6305 58.0329 30.9051 58.0846 33.141C57.1671 33.0896 56.2626 33.5651 55.707 34.2719C55.1513 34.9658 54.8929 35.8653 54.867 36.7392C54.7895 39.2579 56.534 41.6737 58.9245 42.7403C59.4673 42.9845 60.0617 43.1773 60.4752 43.5885C60.8112 43.9226 61.005 44.3723 61.1988 44.7964C61.8062 46.1329 62.5427 47.4308 63.5377 48.523C63.9642 48.9985 64.5715 49.6924 65.2176 49.898C65.4631 49.9751 65.6699 49.9109 65.9154 49.9109C66.2901 49.898 66.6261 50.0137 66.9879 50.078C67.9441 50.245 68.9133 50.1679 69.792 49.8466Z" fill="#492986"/>
<path d="M78.4627 30.558C79.0183 32.19 78.5532 34.0148 77.7261 35.5312C76.9896 36.8676 75.9429 38.0755 74.5602 38.7309C73.1776 39.3863 71.446 39.412 70.1797 38.5639C69.2751 37.9599 68.6678 36.9576 68.3706 35.9038C68.0734 34.8501 68.0605 33.7449 68.1121 32.6527C68.2155 30.5452 68.7453 28.2449 70.4769 27.037C70.955 26.7029 71.5494 26.4716 72.118 26.5615C72.8416 26.69 73.2551 27.2683 73.8625 27.6153C74.3923 27.9237 74.7541 27.898 75.3356 27.9879C76.7828 28.2321 77.9975 29.1702 78.4627 30.558Z" fill="#6F46BE"/>
<path d="M77.6357 31.1108C77.5841 31.5221 77.4936 31.9204 77.3385 32.3059C77.2998 32.3959 77.2222 32.4601 77.1189 32.4344C77.0284 32.4087 76.9509 32.3059 76.9896 32.216C77.0672 32.0361 77.1189 31.8562 77.1705 31.6634C77.2222 31.4835 77.261 31.2779 77.2739 31.1237C77.2868 31.0337 77.3515 30.9438 77.4548 30.9438C77.5453 30.9309 77.6487 31.008 77.6357 31.1108Z" fill="#F7B787"/>
<path d="M76.2143 30.4041C76.1626 30.5326 76.098 30.674 76.0463 30.8025C76.0334 30.841 75.9817 30.8796 75.9429 30.8796C75.9041 30.8924 75.8395 30.8924 75.8008 30.8667C75.762 30.841 75.7232 30.8025 75.7232 30.7639C75.7232 30.7511 75.7232 30.7382 75.7232 30.7125C75.7232 30.674 75.7362 30.6483 75.7491 30.6226C75.8008 30.4941 75.8654 30.3527 75.9171 30.2242C75.93 30.1857 75.9817 30.1471 76.0204 30.1471C76.0592 30.1343 76.1238 30.1343 76.1626 30.16C76.2013 30.1857 76.2401 30.2242 76.2401 30.2628C76.2401 30.2756 76.2401 30.2885 76.2401 30.3142C76.2401 30.3527 76.2401 30.3784 76.2143 30.4041Z" fill="#F7B787"/>
<path d="M75.2193 33.616C75.1676 33.6546 75.1288 33.6931 75.09 33.7445C75.0771 33.7574 75.0642 33.7702 75.0642 33.7831C75.0642 33.7831 75.0513 33.7959 75.0513 33.8088C75.0513 33.8088 75.0771 33.7831 75.0642 33.7959C75.0513 33.8216 75.0254 33.8473 75.0125 33.873C74.9737 33.9244 74.9479 33.9758 74.922 34.0272C74.922 34.0272 74.922 34.0401 74.9091 34.0401C74.8962 34.0658 74.9091 34.0401 74.9091 34.0272C74.8962 34.0401 74.8962 34.0529 74.8962 34.0658C74.8833 34.0915 74.8704 34.13 74.8704 34.1557C74.8445 34.2457 74.7411 34.31 74.6507 34.2842C74.5602 34.2585 74.4956 34.1557 74.5215 34.0658C74.599 33.7959 74.7541 33.5518 74.9737 33.359C75.0125 33.3333 75.0513 33.3076 75.103 33.3076C75.1417 33.3076 75.2063 33.3333 75.2322 33.359C75.2839 33.4361 75.2968 33.5518 75.2193 33.616Z" fill="#F7B787"/>
<path d="M75.9558 34.8496C75.762 35.1709 75.5682 35.4793 75.3614 35.8005C75.3097 35.8776 75.1934 35.9162 75.1159 35.8648C75.0384 35.8134 74.9996 35.7106 75.0513 35.6206C75.2451 35.2994 75.439 34.991 75.6457 34.6697C75.6974 34.5926 75.8137 34.554 75.8912 34.6054C75.9688 34.6568 76.0075 34.7596 75.9558 34.8496Z" fill="#F7B787"/>
<path d="M73.268 37.356C73.0871 37.5102 72.8933 37.6516 72.6736 37.7415C72.6219 37.7672 72.5831 37.7672 72.5314 37.7544C72.4927 37.7415 72.441 37.7158 72.4281 37.6773C72.4022 37.6387 72.3893 37.5873 72.4151 37.5359C72.4281 37.4974 72.4539 37.446 72.4927 37.4331C72.6477 37.3689 72.7899 37.2789 72.932 37.1761C72.9191 37.189 72.9062 37.189 72.8933 37.2018C72.932 37.1761 72.9708 37.1376 73.0096 37.099C73.0742 37.0348 73.1905 37.0219 73.268 37.099C73.3326 37.1633 73.3455 37.2918 73.268 37.356Z" fill="#F7B787"/>
<path d="M72.6865 33.9375C72.5832 34.1817 72.4927 34.4259 72.3893 34.67C72.3764 34.7214 72.3506 34.7471 72.3118 34.7728C72.273 34.7985 72.2214 34.7985 72.1697 34.7857C72.0792 34.76 72.0017 34.6572 72.0404 34.5672C72.1438 34.3231 72.2343 34.0789 72.3376 33.8347C72.3506 33.7833 72.3764 33.7576 72.4152 33.7319C72.4539 33.7062 72.5056 33.6934 72.5573 33.7191C72.6478 33.7448 72.7253 33.8476 72.6865 33.9375Z" fill="#F7B787"/>
<path d="M74.5731 29.5042C74.5214 29.6842 74.4439 29.8512 74.3276 30.0054C74.3018 30.044 74.263 30.0697 74.2242 30.0825C74.1855 30.0954 74.1208 30.0825 74.0821 30.0697C74.0433 30.044 74.0045 30.0054 74.0045 29.9669C73.9916 29.9155 73.9916 29.8641 74.0175 29.8255C74.0821 29.7356 74.1338 29.6327 74.1725 29.5299C74.1725 29.5428 74.1596 29.5556 74.1596 29.5685C74.1855 29.5171 74.1984 29.4657 74.2242 29.4014C74.2371 29.3629 74.263 29.3115 74.3018 29.2986C74.3405 29.2729 74.3922 29.2729 74.4439 29.2858C74.5343 29.3243 74.599 29.4143 74.5731 29.5042Z" fill="#F7B787"/>
<path d="M72.454 28.8231C72.3248 29.0158 72.1826 29.1957 72.0534 29.3885C72.0276 29.427 71.9888 29.4527 71.95 29.4656C71.9113 29.4784 71.8467 29.4784 71.8079 29.4527C71.7304 29.4013 71.6787 29.2857 71.7433 29.2086C71.8725 29.0158 72.0147 28.8359 72.1439 28.6432C72.1697 28.6046 72.2085 28.5789 72.2473 28.5661C72.286 28.5532 72.3506 28.5532 72.3894 28.5789C72.4669 28.6175 72.5057 28.7331 72.454 28.8231Z" fill="#F7B787"/>
<path d="M71.8595 31.5858C71.6915 31.907 71.5365 32.2412 71.3685 32.5624C71.3297 32.6524 71.2005 32.6781 71.123 32.6267C71.0325 32.5753 71.0067 32.4725 71.0583 32.3825C71.2263 32.0613 71.3814 31.7271 71.5494 31.4059C71.5881 31.3159 71.7174 31.2902 71.7949 31.3416C71.8724 31.393 71.8983 31.4958 71.8595 31.5858Z" fill="#F7B787"/>
<path d="M70.7353 29.2734C70.6965 29.3377 70.6577 29.4148 70.619 29.4919C70.606 29.5304 70.5931 29.5561 70.5673 29.5947C70.5544 29.6204 70.5544 29.6204 70.5673 29.5947C70.5673 29.6075 70.5544 29.6204 70.5544 29.6204C70.5414 29.6332 70.5414 29.6589 70.5285 29.6718C70.4768 29.826 70.4251 29.9802 70.3993 30.1344C70.3864 30.2244 70.2701 30.2886 70.1796 30.2629C70.0762 30.2372 70.0375 30.1344 70.0504 30.0445C70.115 29.7103 70.2442 29.3891 70.4122 29.0935C70.4639 29.0164 70.5802 28.9779 70.6577 29.0293C70.7611 29.0807 70.787 29.1835 70.7353 29.2734Z" fill="#F7B787"/>
<path d="M69.8437 33.141C69.7274 33.5651 69.6757 34.0148 69.6757 34.4517C69.6757 34.6831 69.3139 34.6831 69.3139 34.4517C69.3009 33.9763 69.3656 33.5008 69.4948 33.0382C69.5465 32.8197 69.8954 32.9225 69.8437 33.141Z" fill="#F7B787"/>
<path d="M70.1926 35.9934C70.1926 36.3917 70.1926 36.7901 70.1926 37.1885C70.1926 37.2784 70.1151 37.3684 70.0117 37.3684C69.9083 37.3684 69.8308 37.2913 69.8308 37.1885C69.8308 36.7901 69.8308 36.3917 69.8308 35.9934C69.8308 35.9034 69.9083 35.8135 70.0117 35.8135C70.1022 35.8135 70.1926 35.8906 70.1926 35.9934Z" fill="#F7B787"/>
<path opacity="0.27" d="M77.9329 31.74C78.0104 32.7423 77.6099 33.719 77.0413 34.5414C76.757 34.9398 76.421 35.3381 75.9558 35.518C75.5036 35.6979 74.9091 35.6337 74.6119 35.2353C74.4439 35.004 74.3923 34.7085 74.3664 34.4257C74.3147 33.6419 74.4181 32.8451 74.1984 32.087C74.0175 31.4444 73.6169 30.8019 73.8108 30.1594C73.9529 29.6711 74.4439 29.3241 74.9608 29.247C76.4986 29.0029 77.8166 30.275 77.9329 31.74Z" fill="white"/>
<path d="M61.3797 41.0834C63.1112 41.1348 64.6748 42.1885 65.8249 43.4864C66.8328 44.6301 67.621 46.0308 67.7632 47.5343C67.9053 49.0506 67.3497 50.6698 66.1092 51.5693C65.2175 52.2118 64.0804 52.4303 62.982 52.3404C61.8836 52.2633 60.837 51.8906 59.829 51.4665C57.8778 50.6441 55.8749 49.359 55.3322 47.3287C55.1771 46.7633 55.1642 46.1336 55.4485 45.6324C55.8103 44.9899 56.5081 44.81 57.0379 44.3731C57.516 43.9876 57.6194 43.6406 57.8907 43.1266C58.6014 41.8544 59.9066 41.0448 61.3797 41.0834Z" fill="#6F46BE"/>
<path d="M61.6381 42.0474C62.0128 42.2273 62.3488 42.4715 62.6589 42.7413C62.7236 42.8056 62.7236 42.9341 62.6589 42.9983C62.5814 43.0626 62.478 43.0626 62.4005 42.9983C62.323 42.9341 62.2584 42.8698 62.1808 42.8056C62.1679 42.7927 62.1679 42.7927 62.155 42.7799C62.1679 42.7927 62.155 42.7799 62.155 42.7799C62.1291 42.767 62.1162 42.7542 62.0904 42.7285C62.0516 42.7028 62.0128 42.6771 61.9741 42.6385C61.8061 42.5229 61.6381 42.4329 61.4701 42.343C61.3797 42.3044 61.3538 42.1759 61.4055 42.0988C61.4572 42.0346 61.5476 42.0089 61.6381 42.0474Z" fill="#F7B787"/>
<path d="M60.4623 43.1139C60.5657 43.2167 60.669 43.3067 60.7724 43.4095C60.8112 43.4352 60.8241 43.4866 60.8241 43.538C60.8241 43.5765 60.7983 43.6408 60.7724 43.6665C60.7336 43.6922 60.6949 43.7179 60.6432 43.7179C60.5915 43.7179 60.5527 43.705 60.514 43.6665C60.4106 43.5637 60.3072 43.4737 60.2038 43.3709C60.1651 43.3452 60.1522 43.2938 60.1522 43.2424C60.1522 43.2039 60.178 43.1396 60.2038 43.1139C60.2426 43.0882 60.2814 43.0625 60.3331 43.0625C60.3718 43.0625 60.4235 43.0753 60.4623 43.1139Z" fill="#F7B787"/>
<path d="M63.1758 45.1956C63.1888 45.2085 63.1888 45.2342 63.2017 45.247C63.1888 45.2342 63.1758 45.2213 63.1758 45.1956C63.2017 45.2599 63.2275 45.3113 63.2534 45.3498C63.2663 45.3755 63.2792 45.4012 63.3051 45.4269C63.318 45.4398 63.318 45.4526 63.3309 45.4655L63.3438 45.4783C63.3567 45.504 63.318 45.4526 63.3309 45.4655C63.3697 45.504 63.4084 45.5554 63.4472 45.594C63.473 45.6068 63.486 45.6325 63.5118 45.6454C63.5247 45.6582 63.5377 45.6582 63.5506 45.6711C63.5764 45.6839 63.5247 45.6454 63.5377 45.6582L63.5506 45.6711C63.5893 45.6968 63.6152 45.7353 63.6281 45.7739C63.641 45.8124 63.641 45.8767 63.6152 45.9152C63.5635 45.9923 63.4472 46.0437 63.3697 45.9795C63.2404 45.8895 63.1371 45.7867 63.0337 45.6582C62.9432 45.5426 62.8786 45.4141 62.8269 45.2856C62.814 45.247 62.8269 45.1827 62.8399 45.1442C62.8657 45.1056 62.9045 45.0671 62.9432 45.0671C63.0466 45.0414 63.1371 45.0928 63.1758 45.1956Z" fill="#F7B787"/>
<path d="M64.5585 44.8871C64.7911 45.1827 65.0237 45.4782 65.2563 45.7609C65.2821 45.7995 65.308 45.838 65.308 45.8894C65.308 45.928 65.2821 45.9922 65.2563 46.0179C65.1917 46.0822 65.0625 46.095 64.9979 46.0179C64.7653 45.7224 64.5327 45.4268 64.3001 45.1441C64.2742 45.1056 64.2484 45.067 64.2484 45.0156C64.2484 44.9771 64.2742 44.9128 64.3001 44.8871C64.3647 44.8228 64.4939 44.81 64.5585 44.8871Z" fill="#F7B787"/>
<path d="M66.0188 48.2921C66.1092 48.5105 66.1609 48.7418 66.1738 48.986C66.1738 49.0759 66.0834 49.1659 65.9929 49.1659C65.8895 49.1659 65.812 49.0888 65.812 48.986C65.812 48.9346 65.7991 48.8703 65.7991 48.8189C65.7991 48.8318 65.7991 48.8446 65.812 48.8703C65.7862 48.7033 65.7474 48.5491 65.6828 48.3949C65.6699 48.3563 65.6828 48.2921 65.6957 48.2535C65.7216 48.215 65.7603 48.1764 65.7991 48.1764C65.8508 48.1636 65.9025 48.1636 65.9412 48.1893C65.98 48.215 66.0058 48.2535 66.0188 48.2921Z" fill="#F7B787"/>
<path d="M62.6073 47.6498C62.8011 47.8297 63.0078 47.9967 63.2017 48.1766C63.2663 48.2409 63.2663 48.3694 63.2017 48.4336C63.1241 48.4979 63.0208 48.4979 62.9432 48.4336C62.7494 48.2537 62.5426 48.0867 62.3488 47.9068C62.2842 47.8425 62.2842 47.714 62.3488 47.6498C62.4263 47.5855 62.5426 47.5855 62.6073 47.6498Z" fill="#F7B787"/>
<path d="M59.0408 44.347C59.1183 44.4112 59.1959 44.4755 59.2734 44.5397C59.338 44.6169 59.4026 44.694 59.4672 44.7711C59.4931 44.8096 59.4931 44.8739 59.4802 44.9124C59.4672 44.951 59.4414 45.0024 59.4026 45.0152C59.3639 45.0409 59.3122 45.0538 59.2605 45.0281C59.2476 45.0281 59.2346 45.0152 59.2217 45.0152C59.1959 45.0024 59.17 44.9767 59.1571 44.951C59.1442 44.9381 59.1313 44.9253 59.1313 44.9124C59.1442 44.9253 59.1442 44.9381 59.1571 44.951C59.0667 44.8353 58.9504 44.7197 58.8341 44.6297C58.847 44.6425 58.8599 44.6426 58.8728 44.6554C58.847 44.6426 58.8341 44.6297 58.8211 44.604C58.8082 44.5912 58.7953 44.5654 58.7824 44.5397C58.7694 44.5012 58.7694 44.4369 58.7953 44.3984C58.8211 44.3598 58.8599 44.3213 58.8987 44.3213C58.9504 44.3213 59.002 44.3213 59.0408 44.347Z" fill="#F7B787"/>
<path d="M57.6969 46.1209C57.8261 46.3136 57.9683 46.4935 58.0975 46.6863C58.1233 46.7248 58.1233 46.7891 58.1104 46.8276C58.0975 46.8662 58.0716 46.9176 58.0329 46.9304C57.9424 46.9818 57.839 46.9433 57.7874 46.8662C57.6581 46.6734 57.516 46.4935 57.3868 46.3008C57.3609 46.2622 57.3609 46.198 57.3739 46.1594C57.3868 46.1209 57.4126 46.0695 57.4514 46.0566C57.5418 46.0052 57.6323 46.0438 57.6969 46.1209Z" fill="#F7B787"/>
<path d="M60.0745 47.5853C60.3201 47.8552 60.5785 48.1122 60.824 48.382C60.8886 48.4463 60.9016 48.5748 60.824 48.639C60.7594 48.7033 60.6431 48.7161 60.5656 48.639C60.3201 48.3692 60.0616 48.1122 59.8161 47.8423C59.7515 47.7781 59.7386 47.6496 59.8161 47.5853C59.8936 47.521 60.0099 47.521 60.0745 47.5853Z" fill="#F7B787"/>
<path d="M57.503 47.8428C57.6064 47.9713 57.7227 48.087 57.839 48.1898C57.8648 48.2155 57.8907 48.2412 57.9295 48.2669C57.9424 48.2797 57.9424 48.2797 57.9553 48.2926C57.9682 48.3054 57.9682 48.3054 57.9553 48.2926C57.9682 48.3054 57.9811 48.3183 58.007 48.3311C58.0716 48.3825 58.1362 48.4211 58.2137 48.4725C58.2913 48.5239 58.33 48.6395 58.2783 48.7167C58.2267 48.7938 58.1233 48.8323 58.0328 48.7809C57.7485 48.601 57.4772 48.3825 57.2575 48.1127C57.2317 48.0741 57.2058 48.0356 57.2058 47.9842C57.2058 47.9456 57.2317 47.8814 57.2575 47.8557C57.3092 47.7786 57.4384 47.7657 57.503 47.8428Z" fill="#F7B787"/>
<path d="M60.8499 50.0146C61.2117 50.2716 61.6123 50.4772 62.0387 50.6186C62.1292 50.6443 62.1938 50.7471 62.168 50.837C62.1421 50.927 62.0387 50.9913 61.9483 50.9655C61.496 50.8113 61.0696 50.5929 60.6819 50.323C60.6044 50.2716 60.5656 50.1688 60.6173 50.0789C60.6432 50.0018 60.7724 49.9632 60.8499 50.0146Z" fill="#F7B787"/>
<path d="M63.654 50.6694C64.0288 50.8107 64.4035 50.9392 64.7782 51.0806C64.8687 51.1191 64.9333 51.2091 64.9075 51.299C64.8816 51.389 64.7782 51.4532 64.6878 51.4275C64.313 51.2862 63.9383 51.1577 63.5636 51.0163C63.4731 50.9778 63.4085 50.8878 63.4344 50.7979C63.4602 50.7079 63.5636 50.6308 63.654 50.6694Z" fill="#F7B787"/>
<path opacity="0.27" d="M62.3231 41.9828C63.2922 42.2526 64.0934 42.9594 64.6749 43.7818C64.9592 44.1802 65.2047 44.6428 65.2305 45.1311C65.2434 45.6195 64.9721 46.1463 64.494 46.2877C64.2226 46.3648 63.9125 46.3134 63.6411 46.2363C62.8787 46.0178 62.1551 45.6452 61.3797 45.5809C60.7078 45.5295 59.9583 45.6837 59.4285 45.2853C59.015 44.9769 58.8599 44.4115 58.9633 43.8975C59.2347 42.3811 60.8887 41.5844 62.3231 41.9828Z" fill="white"/>
<path d="M78.7728 45.6194C78.8632 47.1743 78.0362 48.6649 76.9508 49.7958C75.9945 50.7981 74.7928 51.6077 73.423 51.8518C72.0662 52.1088 70.5414 51.7233 69.624 50.6824C68.9779 49.9371 68.6806 48.9219 68.6806 47.9324C68.6677 46.943 68.9132 45.9663 69.2234 45.0282C69.8178 43.2163 70.8257 41.3144 72.6219 40.6719C73.1258 40.492 73.6944 40.4278 74.1725 40.6462C74.7799 40.9289 74.9995 41.5201 75.4518 41.9698C75.8395 42.3682 76.1625 42.4324 76.6536 42.638C77.8424 43.1906 78.6952 44.2958 78.7728 45.6194Z" fill="#6F46BE"/>
<path d="M77.9199 45.9025C77.7777 46.2494 77.5968 46.5707 77.3771 46.8791C77.3255 46.9433 77.235 46.9947 77.1575 46.9433C77.0929 46.9048 77.0412 46.7891 77.0929 46.7249C77.1962 46.5835 77.2996 46.4422 77.3901 46.288C77.4288 46.2109 77.4676 46.1338 77.5064 46.0567C77.5322 46.0181 77.5451 45.9796 77.5581 45.941C77.5581 45.9282 77.571 45.9153 77.571 45.9153C77.5839 45.9025 77.5839 45.8896 77.571 45.9025C77.5839 45.8768 77.5839 45.8639 77.5968 45.8382C77.6227 45.7611 77.7131 45.6969 77.8036 45.7226C77.8811 45.7354 77.9457 45.8254 77.9199 45.9025Z" fill="#F7B787"/>
<path d="M76.8473 44.9643C76.7698 45.0672 76.6794 45.17 76.6018 45.2728C76.576 45.2985 76.5243 45.3242 76.4855 45.3242C76.4468 45.3242 76.3951 45.3113 76.3692 45.2728C76.3434 45.2471 76.3175 45.1957 76.3175 45.1571C76.3175 45.1443 76.3175 45.1314 76.3175 45.1186C76.3305 45.0929 76.3434 45.0672 76.3563 45.0415C76.4338 44.9386 76.5243 44.8358 76.6018 44.733C76.6277 44.7073 76.6794 44.6816 76.7181 44.6816C76.7569 44.6816 76.8086 44.6945 76.8344 44.733C76.8603 44.7587 76.8861 44.8101 76.8861 44.8487C76.8861 44.8615 76.8861 44.8744 76.8861 44.8872C76.8732 44.9129 76.8603 44.9386 76.8473 44.9643Z" fill="#F7B787"/>
<path d="M75.2063 47.5343C75.1287 47.5728 75.0641 47.6114 74.9995 47.6628C75.0124 47.6499 75.0253 47.6499 75.0383 47.6371C74.9607 47.7013 74.8832 47.7656 74.8186 47.8427C74.8315 47.8298 74.8315 47.817 74.8444 47.8041C74.8186 47.8427 74.7927 47.8812 74.7669 47.9198C74.7281 47.9969 74.6118 48.0226 74.5472 47.984C74.4697 47.9326 74.4439 47.8427 74.4826 47.7656C74.6118 47.5471 74.8057 47.3672 75.0383 47.2516C75.077 47.2387 75.1158 47.2259 75.1675 47.2387C75.2063 47.2516 75.245 47.2773 75.2709 47.3158C75.2967 47.3929 75.2838 47.4957 75.2063 47.5343Z" fill="#F7B787"/>
<path d="M75.5552 48.7805C75.3097 49.0118 75.0641 49.2431 74.8186 49.4744C74.754 49.5387 74.6506 49.5387 74.586 49.4744C74.5214 49.4101 74.5214 49.3073 74.586 49.2431C74.8315 49.0118 75.0771 48.7805 75.3226 48.5492C75.3872 48.4849 75.4906 48.4849 75.5552 48.5492C75.6198 48.6134 75.6198 48.7162 75.5552 48.7805Z" fill="#F7B787"/>
<path d="M72.609 50.3483C72.4152 50.4511 72.2084 50.5153 72.0017 50.541C71.95 50.5539 71.9112 50.5539 71.8724 50.5282C71.8337 50.5025 71.8078 50.4639 71.7949 50.4254C71.782 50.3868 71.782 50.3354 71.8078 50.2969C71.8337 50.2583 71.8595 50.2326 71.9112 50.2198C72.0146 50.2069 72.105 50.1812 72.1955 50.1555C72.2472 50.1427 72.2859 50.1298 72.3376 50.1041L72.3506 50.1041C72.3635 50.0913 72.3635 50.1041 72.3376 50.1041C72.3376 50.0913 72.3635 50.0913 72.3764 50.0913C72.4022 50.0784 72.4281 50.0656 72.441 50.0527C72.5185 50.0142 72.6219 50.027 72.6607 50.117C72.7124 50.1941 72.6995 50.3097 72.609 50.3483Z" fill="#F7B787"/>
<path d="M72.9191 47.2259C72.7769 47.4186 72.6348 47.6114 72.4927 47.8042C72.4668 47.8427 72.441 47.8684 72.3893 47.8813C72.3505 47.8941 72.2988 47.8813 72.2601 47.8684C72.1955 47.8299 72.1438 47.7142 72.1955 47.65C72.3376 47.4572 72.4797 47.2644 72.6219 47.0717C72.6477 47.0331 72.6736 47.0074 72.7253 46.9946C72.764 46.9817 72.8157 46.9946 72.8545 47.0074C72.932 47.046 72.9708 47.1488 72.9191 47.2259Z" fill="#F7B787"/>
<path d="M75.6198 43.7942C75.5293 43.9356 75.4131 44.0641 75.2968 44.1798C75.258 44.2055 75.2321 44.2312 75.1805 44.2312C75.1417 44.2312 75.09 44.2183 75.0642 44.1798C75.0383 44.1541 75.0125 44.1027 75.0125 44.0641C75.0125 44.0256 75.0254 43.9742 75.0642 43.9485C75.1417 43.8842 75.2192 43.8071 75.2838 43.7171C75.2709 43.73 75.2709 43.7428 75.258 43.7557C75.2838 43.7171 75.3226 43.6786 75.3484 43.64C75.3743 43.6015 75.4001 43.5758 75.4518 43.5629C75.4906 43.5501 75.5423 43.5629 75.581 43.5758C75.6198 43.6015 75.6456 43.6272 75.6586 43.6786C75.6456 43.7043 75.6327 43.7557 75.6198 43.7942Z" fill="#F7B787"/>
<path d="M73.9269 42.689C73.7719 42.8175 73.6039 42.9588 73.4488 43.0873C73.4101 43.113 73.3842 43.1387 73.3325 43.1387C73.2938 43.1387 73.2421 43.1259 73.2162 43.0873C73.1904 43.0616 73.1645 43.0102 73.1645 42.9717C73.1645 42.9331 73.1775 42.8817 73.2162 42.856C73.3713 42.7275 73.5393 42.5862 73.6944 42.4577C73.7331 42.432 73.759 42.4063 73.8107 42.4063C73.8494 42.4063 73.9011 42.4191 73.9269 42.4577C73.9528 42.4834 73.9786 42.5348 73.9786 42.5733C73.9657 42.6119 73.9528 42.6633 73.9269 42.689Z" fill="#F7B787"/>
<path d="M72.7511 44.9768C72.5314 45.2209 72.3117 45.4651 72.092 45.7221C72.0403 45.7863 71.924 45.7863 71.8594 45.7221C71.7948 45.6578 71.7948 45.555 71.8594 45.4908C72.0791 45.2466 72.2988 45.0025 72.5185 44.7455C72.5701 44.6812 72.6994 44.6812 72.7511 44.7455C72.8157 44.8097 72.8027 44.8997 72.7511 44.9768Z" fill="#F7B787"/>
<path d="M72.3117 42.6897C72.26 42.7411 72.2083 42.7925 72.1696 42.8439C72.1437 42.8696 72.1179 42.8953 72.1049 42.9338L72.092 42.9467C72.0791 42.9595 72.1049 42.921 72.092 42.9467C72.0791 42.9595 72.0662 42.9724 72.0533 42.9852C71.9628 43.1009 71.8982 43.2294 71.8207 43.3579C71.7819 43.435 71.6656 43.4607 71.601 43.4221C71.5235 43.3707 71.4976 43.2808 71.5364 43.2037C71.6785 42.9338 71.8594 42.6768 72.0791 42.4583C72.1437 42.3941 72.2471 42.3941 72.3117 42.4583C72.3763 42.5226 72.3892 42.6254 72.3117 42.6897Z" fill="#F7B787"/>
<path d="M70.6189 45.8633C70.4122 46.2102 70.27 46.5829 70.1666 46.9813C70.1408 47.0712 70.0503 47.1226 69.9599 47.0969C69.8694 47.0712 69.8177 46.9813 69.8436 46.8913C69.947 46.4801 70.1149 46.0689 70.3346 45.6962C70.3734 45.6191 70.4768 45.5934 70.5543 45.632C70.6318 45.6834 70.6577 45.7862 70.6189 45.8633Z" fill="#F7B787"/>
<path d="M70.2442 48.434C70.1537 48.781 70.0504 49.1279 69.9599 49.4749C69.9341 49.552 69.8436 49.6163 69.7532 49.5906C69.6627 49.5649 69.611 49.4749 69.6369 49.385C69.7273 49.038 69.8307 48.691 69.9212 48.3441C69.947 48.267 70.0374 48.2027 70.1279 48.2284C70.2184 48.267 70.27 48.3441 70.2442 48.434Z" fill="#F7B787"/>
<path opacity="0.27" d="M78.0233 46.5315C77.8554 47.4181 77.2739 48.1892 76.5761 48.7803C76.2401 49.063 75.8395 49.3329 75.4002 49.3843C74.9608 49.4357 74.4569 49.2301 74.2889 48.8188C74.1984 48.5747 74.2243 48.3048 74.2759 48.0478C74.4052 47.3539 74.6894 46.6728 74.6894 45.966C74.6894 45.3621 74.4827 44.7067 74.8057 44.1927C75.0513 43.7943 75.5552 43.6144 76.0204 43.6658C77.416 43.7943 78.2689 45.2207 78.0233 46.5315Z" fill="white"/>
<path d="M59.9196 34.9273C58.3431 34.8888 56.9217 33.9507 55.875 32.7813C54.9575 31.7532 54.2339 30.4939 54.0917 29.1189C53.9496 27.7439 54.4535 26.2661 55.5778 25.4565C56.3789 24.8782 57.4127 24.6726 58.4077 24.7369C59.4027 24.8011 60.3589 25.1353 61.2764 25.5079C63.0467 26.2404 64.8687 27.3969 65.3727 29.2346C65.5148 29.7486 65.5277 30.314 65.2693 30.7766C64.9462 31.3549 64.3131 31.5348 63.8349 31.9332C63.4085 32.2801 63.3181 32.6014 63.0596 33.0768C62.4394 34.2077 61.2505 34.953 59.9196 34.9273Z" fill="#6F46BE"/>
<path d="M59.687 34.041C59.351 33.8739 59.0409 33.6683 58.7566 33.4113C58.692 33.3599 58.692 33.2443 58.7566 33.18C58.8212 33.1158 58.9246 33.1158 58.9892 33.18C59.0538 33.2443 59.1184 33.2957 59.1959 33.3471C59.1959 33.3471 59.2218 33.3728 59.2089 33.3599C59.1959 33.3471 59.2218 33.3728 59.2347 33.3728C59.2476 33.3856 59.2735 33.3985 59.2864 33.4113C59.3252 33.437 59.3639 33.4627 59.4027 33.4884C59.5448 33.5912 59.6999 33.6812 59.8679 33.7583C59.9454 33.7968 59.9713 33.9125 59.9325 33.9768C59.855 34.0667 59.7645 34.0796 59.687 34.041Z" fill="#F7B787"/>
<path d="M60.7466 33.077C60.6561 32.987 60.5528 32.8971 60.4623 32.8071C60.4365 32.7814 60.4106 32.73 60.4106 32.6915C60.4106 32.6529 60.4235 32.6015 60.4623 32.5758C60.4882 32.5501 60.5398 32.5244 60.5786 32.5244C60.6174 32.5244 60.6561 32.5373 60.6949 32.5758C60.7854 32.6658 60.8887 32.7557 60.9792 32.8457C61.005 32.8714 61.0309 32.9228 61.0309 32.9613C61.0309 32.9999 61.018 33.0513 60.9792 33.077C60.9534 33.1027 60.9017 33.1284 60.8629 33.1284C60.8241 33.1284 60.7854 33.1027 60.7466 33.077Z" fill="#F7B787"/>
<path d="M58.2785 31.2007C58.2785 31.1879 58.2656 31.175 58.2656 31.1622C58.2785 31.175 58.2785 31.1879 58.2785 31.2007C58.2656 31.1493 58.2397 31.1108 58.2139 31.0594C58.201 31.0337 58.1881 31.0208 58.1751 30.9951C58.1622 30.9823 58.1622 30.9694 58.1493 30.9566L58.1364 30.9437C58.1234 30.918 58.1622 30.9694 58.1493 30.9566C58.1105 30.918 58.0847 30.8795 58.0459 30.8409C58.033 30.8281 58.0071 30.8024 57.9942 30.7895C57.9813 30.7767 57.9813 30.7767 57.9684 30.7638C57.9684 30.7638 57.9942 30.7895 57.9813 30.7767C57.9684 30.7767 57.9684 30.7638 57.9555 30.7638C57.9167 30.7381 57.8909 30.7124 57.8779 30.661C57.865 30.6225 57.8779 30.571 57.8908 30.5325C57.9296 30.4682 58.0459 30.4168 58.1105 30.4682C58.2268 30.5453 58.3302 30.6482 58.4077 30.7638C58.4853 30.8666 58.5499 30.9823 58.5886 31.0979C58.6016 31.1365 58.5886 31.1879 58.5757 31.2264C58.5499 31.265 58.5111 31.2907 58.4723 31.3035C58.4336 31.3164 58.3819 31.3164 58.3431 31.2907C58.3173 31.2778 58.3044 31.2521 58.2785 31.2007Z" fill="#F7B787"/>
<path d="M57.0251 31.4966C56.8183 31.2268 56.5986 30.9698 56.3919 30.6999C56.3402 30.6356 56.3273 30.5328 56.3919 30.4686C56.4565 30.4172 56.5728 30.3915 56.6245 30.4686C56.8312 30.7384 57.0509 30.9955 57.2576 31.2653C57.3093 31.3296 57.3223 31.4324 57.2576 31.4966C57.206 31.548 57.0897 31.5609 57.0251 31.4966Z" fill="#F7B787"/>
<path d="M55.6811 28.412C55.6036 28.2064 55.5519 28.0007 55.539 27.7823C55.539 27.6923 55.6165 27.6152 55.707 27.6152C55.7974 27.6152 55.862 27.6923 55.8749 27.7823C55.8749 27.8337 55.8879 27.8722 55.8879 27.9236C55.8879 27.9108 55.8879 27.8979 55.8879 27.8851C55.9137 28.0393 55.9525 28.1807 56.0042 28.3349C56.0171 28.3734 56.0042 28.4248 55.9912 28.4634C55.9654 28.5019 55.9266 28.5276 55.8879 28.5405C55.8491 28.5533 55.7974 28.5533 55.7586 28.5276C55.7199 28.4762 55.694 28.4505 55.6811 28.412Z" fill="#F7B787"/>
<path d="M58.7695 28.9776C58.5886 28.8234 58.4077 28.6564 58.2268 28.5022C58.1621 28.4508 58.1621 28.3222 58.2268 28.2708C58.2914 28.2066 58.3947 28.2066 58.4594 28.2708C58.6403 28.4251 58.8212 28.5921 59.0021 28.7463C59.0667 28.7977 59.0667 28.9262 59.0021 28.9776C58.9375 29.0419 58.847 29.0419 58.7695 28.9776Z" fill="#F7B787"/>
<path d="M62.0259 31.9584C61.9483 31.907 61.8837 31.8428 61.8191 31.7785C61.7545 31.7143 61.7028 31.6372 61.6382 31.5729C61.6124 31.5472 61.6124 31.483 61.6253 31.4444C61.6382 31.4059 61.664 31.3673 61.7028 31.3416C61.7416 31.3159 61.7933 31.3159 61.832 31.3288C61.845 31.3288 61.8579 31.3416 61.8708 31.3416C61.8966 31.3545 61.9096 31.3802 61.9354 31.4059C61.9483 31.4187 61.9483 31.4316 61.9613 31.4444C61.9483 31.4316 61.9483 31.4187 61.9354 31.4059C62.0129 31.5087 62.1163 31.6115 62.2197 31.6886C62.2068 31.6757 62.1938 31.6757 62.1809 31.6629L62.1938 31.6757C62.2068 31.6886 62.2326 31.7014 62.2455 31.7143C62.2585 31.7271 62.2714 31.7528 62.2714 31.7657C62.2843 31.8042 62.2714 31.8556 62.2585 31.8942C62.2326 31.9327 62.2068 31.9584 62.1551 31.9713C62.1163 31.9841 62.0646 31.9841 62.0259 31.9584Z" fill="#F7B787"/>
<path d="M63.2405 30.3399C63.1242 30.1728 62.9949 29.9929 62.8786 29.8258C62.8528 29.7873 62.8528 29.7359 62.8657 29.6973C62.8786 29.6588 62.9045 29.6202 62.9433 29.5945C62.982 29.5688 63.0337 29.5688 63.0725 29.5817C63.1112 29.5945 63.15 29.6202 63.1759 29.6588C63.2922 29.8258 63.4214 30.0057 63.5377 30.1728C63.5635 30.2114 63.5635 30.2628 63.5506 30.3013C63.5377 30.3399 63.5118 30.3784 63.4731 30.4041C63.4343 30.4298 63.3826 30.4298 63.3438 30.417C63.2922 30.4041 63.2663 30.3784 63.2405 30.3399Z" fill="#F7B787"/>
<path d="M61.0826 29.0157C60.85 28.7716 60.6303 28.5403 60.3977 28.2961C60.3331 28.2318 60.3331 28.129 60.3977 28.0648C60.4623 28.0005 60.5657 28.0005 60.6303 28.0648C60.8629 28.3089 61.0826 28.5403 61.3152 28.7844C61.3798 28.8487 61.3798 28.9515 61.3152 29.0157C61.2506 29.08 61.1343 29.08 61.0826 29.0157Z" fill="#F7B787"/>
<path d="M63.4086 28.7845C63.3181 28.6688 63.2147 28.566 63.0984 28.4761C63.0726 28.4504 63.0468 28.4375 63.0209 28.4118C63.008 28.4118 63.008 28.399 62.9951 28.399C62.9821 28.3861 63.0209 28.4118 62.9951 28.399C62.9821 28.3861 62.9692 28.3733 62.9563 28.3733C62.8917 28.3347 62.8271 28.2833 62.7754 28.2448C62.6979 28.2062 62.672 28.0906 62.7108 28.0263C62.7625 27.9492 62.8529 27.9235 62.9305 27.962C63.1889 28.1163 63.4344 28.3219 63.6282 28.566C63.6541 28.6046 63.6799 28.6303 63.6799 28.6817C63.6799 28.7202 63.667 28.7716 63.6282 28.7973C63.5766 28.8359 63.4603 28.8487 63.4086 28.7845Z" fill="#F7B787"/>
<path d="M60.3588 26.8316C60.0229 26.6003 59.6611 26.4204 59.2863 26.2919C59.2088 26.2662 59.1442 26.1762 59.17 26.0863C59.1959 26.0092 59.2863 25.9449 59.3768 25.9706C59.7903 26.112 60.1779 26.3047 60.5268 26.5489C60.6044 26.6003 60.6302 26.6902 60.5914 26.7673C60.5398 26.8444 60.4364 26.883 60.3588 26.8316Z" fill="#F7B787"/>
<path d="M57.8132 26.2532C57.4772 26.1376 57.1283 26.0091 56.7924 25.8934C56.7148 25.8677 56.6502 25.7778 56.6761 25.6878C56.7019 25.6107 56.7924 25.5465 56.8828 25.5722C57.2188 25.6878 57.5677 25.8163 57.9037 25.932C57.9812 25.9577 58.0458 26.0476 58.02 26.1376C57.9941 26.2147 57.9037 26.2789 57.8132 26.2532Z" fill="#F7B787"/>
<path opacity="0.27" d="M59.0667 34.1052C58.188 33.8611 57.4644 33.2314 56.9346 32.4861C56.6761 32.1263 56.4435 31.7151 56.4306 31.2653C56.4177 30.8155 56.6632 30.3401 57.0896 30.2116C57.3352 30.1345 57.6065 30.1859 57.865 30.2501C58.5498 30.4429 59.2089 30.777 59.9196 30.8284C60.5269 30.8669 61.1989 30.7256 61.6899 31.0854C62.0646 31.3552 62.2068 31.8821 62.1163 32.3319C61.8579 33.7326 60.3718 34.4651 59.0667 34.1052Z" fill="white"/>
<path d="M61.9483 35.2104C62.3747 34.8763 62.7624 34.478 63.0725 34.041C63.3439 34.2209 63.6153 34.4137 63.8737 34.5936C63.9254 34.2081 63.9512 33.8097 63.9254 33.4114C64.4293 33.3086 64.9333 33.2058 65.4243 33.1158C65.1401 32.9488 64.8945 32.7303 64.6878 32.4861C65.5148 32.1649 66.2384 31.638 66.807 30.9569C66.4452 31.0469 66.0704 31.0854 65.7086 31.0726C65.98 30.8798 66.1738 30.5714 66.2255 30.2373C65.6311 30.6742 64.8429 30.7256 64.1838 31.0469C63.4085 31.4324 62.8012 32.2034 62.5557 33.0259C62.4652 33.3343 62.504 33.6041 62.4652 33.9125C62.4006 34.3623 62.1421 34.7992 61.9483 35.2104Z" fill="#6AAD4A"/>
<path d="M70.1796 38.1786C69.4043 39.7207 67.7761 40.6844 66.1221 41.1728C64.6619 41.5968 63.0467 41.7125 61.6123 41.2113C60.165 40.7101 58.9245 39.5022 58.6273 38.0115C58.4206 36.945 58.7049 35.8141 59.2347 34.8632C59.7774 33.9122 60.5398 33.1155 61.3539 32.383C62.9304 30.9695 64.9333 29.7101 67.0267 30.07C67.6081 30.1728 68.1896 30.4169 68.5256 30.8924C68.952 31.4964 68.8357 32.1903 69.0037 32.8585C69.1588 33.4496 69.4302 33.6938 69.7791 34.1564C70.6448 35.3515 70.8257 36.8679 70.1796 38.1786Z" fill="#5F39A7"/>
<path d="M69.1976 37.9858C68.8745 38.2428 68.5256 38.4612 68.138 38.6154C68.0475 38.654 67.9441 38.6411 67.8924 38.5512C67.8537 38.4741 67.8666 38.3456 67.9571 38.307C68.138 38.2299 68.3189 38.14 68.4869 38.05C68.5773 37.9986 68.6548 37.9472 68.7324 37.8958C68.7711 37.8701 68.8099 37.8444 68.8487 37.8058C68.8745 37.793 68.8874 37.7801 68.9133 37.7673C68.9262 37.7544 68.9391 37.7544 68.9262 37.7673C68.9391 37.7544 68.9391 37.7544 68.9521 37.7416C69.0296 37.6773 69.133 37.6645 69.2105 37.7416C69.2622 37.793 69.288 37.9215 69.1976 37.9858Z" fill="#F7B787"/>
<path d="M68.6936 36.4949C68.5644 36.5463 68.4222 36.5977 68.293 36.6491C68.2542 36.6619 68.1896 36.6491 68.1508 36.6362C68.1121 36.6105 68.0733 36.572 68.0733 36.5334C68.0604 36.482 68.0604 36.4306 68.0862 36.3921C68.0992 36.3792 68.0992 36.3664 68.1121 36.3535C68.1379 36.3278 68.1638 36.315 68.1896 36.3021C68.3188 36.2507 68.461 36.1993 68.5902 36.1479C68.629 36.1351 68.6936 36.1479 68.7323 36.1608C68.7711 36.1865 68.8099 36.225 68.8099 36.2636C68.8228 36.315 68.8228 36.3664 68.7969 36.4049C68.784 36.4178 68.784 36.4306 68.7711 36.4435C68.7582 36.4692 68.7323 36.482 68.6936 36.4949Z" fill="#F7B787"/>
<path d="M65.7086 38.0628C65.644 38.0628 65.5923 38.0628 65.5277 38.0628C65.5148 38.0628 65.4889 38.0628 65.476 38.0628C65.4631 38.0628 65.4631 38.0628 65.4502 38.0628C65.4631 38.0628 65.4631 38.0628 65.476 38.0628C65.4502 38.0628 65.4114 38.0756 65.3856 38.0756C65.321 38.0885 65.2693 38.1013 65.2176 38.127C65.2047 38.127 65.1917 38.1399 65.1788 38.1399C65.2176 38.1142 65.1788 38.1399 65.1659 38.1399C65.14 38.1527 65.1142 38.1656 65.0754 38.1784C64.9979 38.2298 64.8687 38.2041 64.8299 38.1142C64.7912 38.0242 64.8041 37.9214 64.8945 37.87C65.14 37.7287 65.4243 37.6644 65.7086 37.6901C65.7991 37.703 65.8895 37.7672 65.8895 37.87C65.8766 37.9728 65.7991 38.0628 65.7086 38.0628Z" fill="#F7B787"/>
<path d="M65.3467 39.4375C64.9849 39.5274 64.6231 39.6046 64.2484 39.6945C64.1579 39.7202 64.0416 39.6688 64.0287 39.566C64.0028 39.476 64.0545 39.3732 64.1579 39.3475C64.5197 39.2576 64.8815 39.1805 65.2563 39.0905C65.3467 39.0648 65.463 39.1162 65.476 39.219C65.5018 39.309 65.4501 39.4118 65.3467 39.4375Z" fill="#F7B787"/>
<path d="M61.6641 39.3226C61.4315 39.3098 61.1859 39.2584 60.9663 39.1684C60.9146 39.1556 60.8887 39.1299 60.8629 39.0913C60.8371 39.0528 60.8371 39.0014 60.85 38.95C60.8629 38.9114 60.8887 38.86 60.9275 38.8472C60.9663 38.8215 61.018 38.8086 61.0696 38.8343C61.2247 38.8986 61.3798 38.9371 61.5478 38.9628C61.5348 38.9628 61.5219 38.9628 61.4961 38.95C61.5478 38.9628 61.6124 38.9628 61.6641 38.9628C61.7545 38.9628 61.845 39.0399 61.845 39.1427C61.845 39.2327 61.7674 39.3355 61.6641 39.3226Z" fill="#F7B787"/>
<path d="M63.6927 36.5084C63.4472 36.6112 63.2017 36.714 62.9691 36.8168C62.9174 36.8425 62.8786 36.8425 62.827 36.8297C62.7882 36.8168 62.7365 36.7911 62.7236 36.7526C62.6848 36.6755 62.6977 36.547 62.7882 36.5084C63.0337 36.4056 63.2792 36.3028 63.5118 36.2C63.5635 36.1743 63.6023 36.1743 63.654 36.1872C63.6927 36.2 63.7444 36.2257 63.7573 36.2643C63.7961 36.3414 63.7832 36.4699 63.6927 36.5084Z" fill="#F7B787"/>
<path d="M68.1767 34.6958C68.0088 34.7857 67.8408 34.85 67.6469 34.8885C67.5953 34.9014 67.5565 34.9014 67.5048 34.8757C67.466 34.85 67.4273 34.8114 67.4273 34.7729C67.4143 34.7215 67.4143 34.6701 67.4402 34.6315C67.466 34.593 67.5048 34.5544 67.5436 34.5544C67.6599 34.5287 67.7762 34.4902 67.8925 34.4516C67.8795 34.4516 67.8666 34.4645 67.8537 34.4645C67.9054 34.4387 67.9442 34.4259 67.9958 34.4002C68.0346 34.3745 68.0863 34.3745 68.138 34.3873C68.1767 34.4002 68.2284 34.4259 68.2414 34.4645C68.2801 34.5416 68.2672 34.6572 68.1767 34.6958Z" fill="#F7B787"/>
<path d="M67.1687 32.7176C66.9361 32.7561 66.7165 32.7947 66.4839 32.8332C66.4322 32.8461 66.3934 32.8461 66.3417 32.8204C66.303 32.7947 66.2642 32.7561 66.2642 32.7176C66.2384 32.6276 66.29 32.5119 66.3934 32.4991C66.626 32.4605 66.8457 32.422 67.0783 32.3834C67.13 32.3706 67.1687 32.3706 67.2204 32.3963C67.2592 32.422 67.298 32.4605 67.298 32.4991C67.3109 32.589 67.2592 32.7047 67.1687 32.7176Z" fill="#F7B787"/>
<path d="M64.7782 34.2589C64.4293 34.3746 64.0804 34.4902 63.7316 34.6059C63.6411 34.6316 63.5248 34.5673 63.5119 34.4774C63.486 34.3746 63.5377 34.2846 63.6411 34.2589C63.99 34.1433 64.3389 34.0276 64.6878 33.912C64.7782 33.8863 64.8945 33.9505 64.9075 34.0405C64.9204 34.1304 64.8687 34.2204 64.7782 34.2589Z" fill="#F7B787"/>
<path d="M65.6311 31.8301C65.5536 31.8558 65.476 31.8686 65.3985 31.8943C65.3597 31.9072 65.321 31.92 65.2822 31.9329C65.2693 31.9329 65.2176 31.9586 65.2563 31.9457C65.2434 31.9586 65.2176 31.9586 65.2047 31.9714C65.0625 32.0357 64.9204 32.1128 64.7782 32.2027C64.7007 32.2541 64.5715 32.2156 64.5327 32.1385C64.481 32.0485 64.5069 31.9457 64.5973 31.8943C64.8816 31.7016 65.2047 31.5731 65.5277 31.4831C65.6182 31.4574 65.7345 31.5088 65.7474 31.6116C65.7861 31.7144 65.7345 31.8044 65.6311 31.8301Z" fill="#F7B787"/>
<path d="M62.2455 33.9383C61.8449 34.1696 61.5089 34.4266 61.1988 34.7479C61.1342 34.8121 61.005 34.825 60.9403 34.7479C60.8757 34.6708 60.8757 34.568 60.9403 34.4908C61.2763 34.1439 61.6511 33.8612 62.0646 33.617C62.1421 33.5656 62.2713 33.5913 62.3101 33.6813C62.3488 33.7841 62.3359 33.8869 62.2455 33.9383Z" fill="#F7B787"/>
<path d="M60.4622 36.1998C60.1779 36.4825 59.8936 36.7652 59.6094 37.0479C59.5447 37.1122 59.4155 37.125 59.3509 37.0479C59.2863 36.9708 59.2734 36.868 59.3509 36.7909C59.6352 36.5082 59.9195 36.2255 60.2038 35.9428C60.2684 35.8785 60.3976 35.8657 60.4622 35.9428C60.5268 36.0199 60.5397 36.1227 60.4622 36.1998Z" fill="#F7B787"/>
<path opacity="0.27" d="M68.952 38.6412C68.293 39.3994 67.3109 39.8235 66.3288 40.0034C65.8378 40.0933 65.3209 40.119 64.8686 39.9391C64.4164 39.7464 64.0416 39.2709 64.1192 38.7954C64.1579 38.5127 64.3388 38.2686 64.5327 38.0501C65.0495 37.459 65.6956 36.9578 66.0833 36.2767C66.4193 35.6985 66.5873 34.9532 67.1688 34.6319C67.621 34.3877 68.2154 34.4905 68.6289 34.7989C69.8953 35.6985 69.9212 37.5232 68.952 38.6412Z" fill="white"/>
</g>
<defs>
<clipPath id="clip0_783_11324">
<rect width="93" height="55" fill="white" transform="matrix(-1 8.74228e-08 8.74228e-08 1 93 0)"/>
</clipPath>
</defs>
</svg>
