<svg viewBox="0 0 515 141" fill="none" xmlns="http://www.w3.org/2000/svg">
<path d="M63.07 112.29C43.47 112.29 32.21 101.48 32.21 83.23C32.21 64.76 43.92 52.37 64.87 52.37C69.44 52.37 73.63 52.8 77.56 53.59L87.31 31.18C78.12 27.18 69.63 25.57 59.01 25.57C24.1 25.56 0 50.12 0 84.13C0 117.24 19.82 139.32 53.39 139.32C67.36 139.32 77.71 137.43 87.61 132.9L75.88 111.17C71.8 111.89 67.52 112.29 63.07 112.29ZM187.09 42.26C197.35 52.12 203.01 66.12 203.02 83.02C203.01 99.04 197.04 113.14 186.56 123.29C176.07 133.44 161.04 139.68 142.64 139.69C123.74 139.68 108.78 133.75 98.49 123.81C88.22 113.86 82.5 99.79 82.49 83.02C82.5 66.89 88.58 52.86 99.08 42.79C109.59 32.72 124.58 26.59 142.63 26.58C161.8 26.58 176.82 32.4 187.09 42.26ZM169 83.01C169 73.85 166.83 66.51 162.25 61.43C159.97 58.9 157.11 56.98 153.81 55.74C150.51 54.49 146.77 53.89 142.66 53.89C134.88 53.87 128.14 56.77 123.49 61.95C118.83 67.13 116.3 74.43 116.31 83.01C116.31 91.97 118.55 99.29 123.14 104.42C125.43 106.97 128.28 108.93 131.57 110.22C134.86 111.51 138.58 112.14 142.65 112.14C150.51 112.16 157.27 109.33 161.91 104.16C166.55 99 169 91.68 169 83.01ZM279.83 26.57C293.66 26.57 308.48 29.61 321.24 33.56V135.75H288.83V120.25L284.49 124.72C280.59 128.73 275.97 132.46 270.34 135.19C264.71 137.92 258.07 139.67 250 139.68C237.2 139.66 226.85 134.28 219.49 125.34C212.15 116.39 207.89 103.78 207.89 89.48C207.91 69.35 214.79 53.83 227.08 43.14C239.39 32.47 257.37 26.57 279.83 26.57ZM285.35 53.9C282.33 53.67 279.03 53.43 275.67 53.43C265.05 53.42 256.53 56.34 250.69 61.9C244.84 67.45 241.91 75.47 241.92 84.87C241.92 93.11 243.85 99.9 247.74 104.73C251.62 109.58 257.5 112.18 264.34 112.15C268.54 112.15 272.48 111.18 276.18 109.42C279.89 107.66 283.37 105.14 286.84 102.02L287.68 101.27V100.14V54.08L285.35 53.9ZM472.91 26.57C486.74 26.57 501.56 29.61 514.32 33.56V135.75H481.91V120.25L477.57 124.72C473.67 128.73 469.05 132.46 463.42 135.19C457.79 137.92 451.15 139.67 443.08 139.68C430.28 139.66 419.93 134.28 412.57 125.34C405.23 116.39 400.97 103.78 400.97 89.48C400.99 69.35 407.87 53.83 420.16 43.14C432.46 32.47 450.44 26.57 472.91 26.57ZM478.42 53.9C475.4 53.67 472.1 53.43 468.74 53.43C458.12 53.42 449.6 56.34 443.75 61.9C437.9 67.45 434.97 75.47 434.99 84.87C434.99 93.11 436.92 99.9 440.81 104.73C444.69 109.58 450.56 112.18 457.41 112.15C461.61 112.15 465.55 111.18 469.25 109.42C472.96 107.66 476.44 105.14 479.91 102.02L480.75 101.27V100.14V54.08L478.42 53.9ZM377.38 109.57C374.71 108.04 372.73 105.82 371.37 103.34C368.65 98.34 368.11 92.32 368.09 86.76V0H334.07V80.42C334.06 96.15 335.46 108.05 338.52 116.78C341.61 125.52 346.16 131.06 352.9 134.76C357.41 137.22 362.97 138.83 369.78 139.71C372.08 140.01 374.23 140.14 376.24 140.14C384.96 140.12 391.13 137.62 396.06 134.31V110.8C392.8 111.56 389.89 111.93 387.26 111.93C383.35 111.94 380.05 111.11 377.38 109.57Z" fill="white" />
</svg>
