<svg width="319" height="214" viewBox="0 0 319 214" fill="none" xmlns="http://www.w3.org/2000/svg">
<g clip-path="url(#clip0_2191_2686)">
<rect width="318.579" height="214" rx="7.17757" fill="#6F46BE"/>
<g clip-path="url(#clip1_2191_2686)">
<path d="M228.66 142.352H207.069C206.072 142.352 205.264 143.16 205.264 144.158C205.264 145.155 206.072 145.964 207.069 145.964H228.66C229.657 145.964 230.465 145.155 230.465 144.158C230.465 143.16 229.657 142.352 228.66 142.352Z" fill="white"/>
<path d="M228.66 145.664C227.793 145.664 226.927 145.664 226.063 145.664C224.049 145.664 222.035 145.664 220.021 145.664C217.737 145.664 215.451 145.664 213.167 145.664C211.487 145.664 209.808 145.664 208.128 145.664C207.788 145.664 207.449 145.667 207.112 145.664C205.801 145.653 205.039 144.063 206.007 143.093C206.427 142.673 206.935 142.652 207.475 142.652H209.104C211.025 142.652 212.942 142.652 214.862 142.652C217.162 142.652 219.46 142.652 221.76 142.652H227.184C227.62 142.652 228.058 142.652 228.494 142.652C229.387 142.652 230.187 143.235 230.163 144.205C230.142 145.024 229.46 145.643 228.66 145.664C228.272 145.675 228.272 146.277 228.66 146.267C230.364 146.224 231.393 144.245 230.318 142.866C229.829 142.239 229.125 142.052 228.374 142.052H224.164C221.853 142.052 219.543 142.052 217.232 142.052C214.921 142.052 212.766 142.052 210.532 142.052C209.396 142.052 208.256 142.044 207.12 142.052C205.873 142.062 204.833 143.115 204.98 144.389C205.111 145.522 206.069 146.264 207.173 146.267C208.396 146.272 209.618 146.267 210.84 146.267C213.105 146.267 215.368 146.267 217.633 146.267C219.898 146.267 222.206 146.267 224.496 146.267C225.82 146.267 227.146 146.267 228.47 146.267H228.663C229.05 146.267 229.05 145.664 228.663 145.664H228.66Z" fill="#553597"/>
<path d="M233.081 113.237C234.447 114.94 234.758 119.23 235.351 127.806C236.138 139.141 235.25 140.675 234.463 141.57C233.236 142.962 231.655 143.484 219.192 143.763C206.312 144.052 204.814 143.42 203.702 142.202C202.779 141.19 202.311 139.955 202.514 127.697C202.624 121.077 202.691 117.746 203.255 116.648C207.636 108.13 227.039 105.712 233.081 113.237Z" fill="white"/>
<path d="M232.867 113.448C233.228 113.904 233.469 114.535 233.642 115.117C233.904 116.006 234.062 116.927 234.191 117.842C234.621 120.882 234.784 123.964 234.996 127.024C235.207 130.085 235.424 133.237 235.341 136.346C235.306 137.652 235.268 139.045 234.849 140.298C234.752 140.582 234.653 140.801 234.455 141.099C234.439 141.12 234.423 141.141 234.41 141.163C234.354 141.24 234.437 141.131 234.391 141.187C234.354 141.232 234.316 141.278 234.279 141.321C234.185 141.431 234.086 141.535 233.982 141.637C233.929 141.688 233.875 141.736 233.822 141.781C233.717 141.872 233.776 141.824 233.674 141.897C233.535 141.993 233.391 142.081 233.239 142.159C233.03 142.266 232.944 142.301 232.706 142.381C232.468 142.462 232.233 142.528 231.995 142.587C230.339 142.986 228.604 143.077 226.908 143.179C223.549 143.38 220.179 143.452 216.815 143.503C214.129 143.543 211.434 143.575 208.754 143.401C207.55 143.324 206.275 143.243 205.133 142.818C204.972 142.759 204.897 142.729 204.707 142.625C204.579 142.555 204.453 142.475 204.336 142.387C204.336 142.387 204.357 142.405 204.298 142.357C204.277 142.338 204.253 142.32 204.231 142.301C204.18 142.255 204.13 142.21 204.082 142.159C203.993 142.073 203.908 141.982 203.827 141.886C203.803 141.856 203.688 141.712 203.753 141.795C203.715 141.744 203.678 141.696 203.646 141.642C203.573 141.532 203.512 141.415 203.453 141.297C203.394 141.179 203.437 141.275 203.392 141.149C203.362 141.066 203.333 140.983 203.306 140.898C203.244 140.702 203.199 140.504 203.156 140.303C202.854 138.809 202.835 137.221 202.8 135.69C202.726 132.391 202.79 129.092 202.851 125.793C202.878 124.242 202.907 122.692 202.969 121.144C203.009 120.151 203.052 119.147 203.186 118.161C203.277 117.497 203.41 116.964 203.723 116.426C204.202 115.599 204.812 114.859 205.502 114.201C207.064 112.712 209 111.633 210.998 110.848C213.204 109.981 215.542 109.437 217.898 109.185C220.23 108.939 222.613 108.96 224.929 109.367C227.007 109.732 229.072 110.398 230.832 111.587C231.599 112.104 232.289 112.725 232.872 113.446C233.116 113.748 233.538 113.317 233.297 113.02C230.513 109.579 225.627 108.527 221.423 108.433C216.692 108.328 211.664 109.367 207.596 111.86C205.849 112.931 204.239 114.332 203.204 116.121C202.875 116.688 202.715 117.259 202.621 117.904C202.472 118.922 202.421 119.952 202.378 120.981C202.228 124.491 202.193 128.015 202.175 131.528C202.161 133.903 202.145 136.295 202.343 138.664C202.477 140.244 202.675 141.88 204.02 142.893C204.694 143.399 205.55 143.608 206.366 143.747C208.24 144.063 210.166 144.092 212.059 144.119C215.608 144.167 219.16 144.082 222.707 143.966C225.21 143.886 227.729 143.808 230.219 143.498C231.998 143.276 233.918 142.96 234.998 141.374C235.498 140.638 235.662 139.706 235.774 138.841C236.057 136.664 235.988 134.436 235.905 132.249C235.766 128.61 235.493 124.965 235.178 121.34C234.985 119.144 234.841 116.833 234.156 114.723C233.958 114.112 233.699 113.526 233.3 113.023C233.059 112.72 232.637 113.148 232.875 113.448H232.867Z" fill="#553597"/>
<path d="M219.746 145.967H216.184V189.158H219.746V145.967Z" fill="white"/>
<path d="M219.746 188.856H216.184L216.483 189.156V146.609C216.483 146.425 216.51 146.218 216.483 146.036C216.481 146.012 216.483 145.988 216.483 145.964L216.184 146.264H219.746L219.447 145.964V183.848C219.447 185.589 219.388 187.343 219.447 189.083C219.447 189.108 219.447 189.132 219.447 189.156C219.447 189.544 220.048 189.544 220.048 189.156V151.271C220.048 149.531 220.107 147.777 220.048 146.036C220.048 146.012 220.048 145.988 220.048 145.964C220.048 145.801 219.909 145.664 219.749 145.664H216.187C216.023 145.664 215.887 145.803 215.887 145.964V183.848C215.887 185.589 215.828 187.343 215.887 189.083C215.887 189.108 215.887 189.132 215.887 189.156C215.887 189.319 216.026 189.456 216.187 189.456H219.749C220.137 189.456 220.137 188.853 219.749 188.853L219.746 188.856Z" fill="#553597"/>
<path d="M207.962 197.293H228.638C229.262 197.293 229.526 196.498 229.029 196.123C225.935 193.802 222.84 191.477 219.746 189.156H216.184C213.308 191.483 210.431 193.81 207.556 196.137C207.08 196.522 207.352 197.291 207.965 197.291L207.962 197.293Z" fill="white"/>
<path d="M207.962 197.596H226.967C227.521 197.596 228.077 197.617 228.631 197.596C228.986 197.583 229.302 197.417 229.473 197.095C229.73 196.619 229.527 196.129 229.125 195.823C227.761 194.79 226.387 193.767 225.017 192.741C223.648 191.716 222.313 190.712 220.963 189.699C220.645 189.461 220.332 189.204 220.003 188.979C219.877 188.893 219.805 188.861 219.668 188.859C219.401 188.851 219.131 188.859 218.861 188.859H216.531C216.291 188.859 216.117 188.829 215.916 188.99C215.237 189.531 214.566 190.082 213.889 190.631C212.573 191.697 211.255 192.763 209.939 193.828C209.281 194.361 208.623 194.894 207.965 195.427C207.521 195.786 206.925 196.126 207.024 196.785C207.096 197.267 207.486 197.575 207.962 197.601C208.35 197.623 208.347 197.02 207.962 196.999C207.698 196.985 207.516 196.704 207.665 196.466C207.775 196.287 208.024 196.153 208.184 196.021C208.393 195.853 208.599 195.684 208.807 195.518C209.655 194.83 210.506 194.144 211.354 193.456C213.033 192.096 214.715 190.736 216.395 189.375L216.181 189.464H219.329C219.438 189.464 219.636 189.424 219.738 189.464C219.578 189.402 219.799 189.611 219.751 189.544C219.783 189.59 219.866 189.63 219.912 189.665C220.054 189.772 220.195 189.879 220.34 189.986C220.623 190.2 220.909 190.414 221.193 190.626C222.313 191.467 223.434 192.307 224.555 193.148C225.675 193.989 226.796 194.83 227.916 195.671C228.184 195.872 228.451 196.07 228.716 196.271C228.887 196.402 229.05 196.536 228.965 196.771C228.906 196.935 228.772 196.991 228.612 196.999C228.179 197.026 227.735 196.999 227.299 196.999H212.53C211.033 196.999 209.527 196.948 208.032 196.999C208.01 196.999 207.986 196.999 207.965 196.999C207.577 196.999 207.577 197.601 207.965 197.601L207.962 197.596Z" fill="#553597"/>
<path d="M199.952 16.4288H128.298C127.259 16.4288 126.417 17.2716 126.417 18.3113V75.3603C126.417 76.4 127.259 77.2428 128.298 77.2428H199.952C200.99 77.2428 201.832 76.4 201.832 75.3603V18.3113C201.832 17.2716 200.99 16.4288 199.952 16.4288Z" fill="white"/>
<path d="M199.952 76.9401H198.331C196.855 76.9401 195.376 76.9401 193.9 76.9401H187.27C184.531 76.9401 181.79 76.9401 179.051 76.9401H169.854C166.655 76.9401 163.456 76.9401 160.258 76.9401C157.059 76.9401 154.066 76.9401 150.972 76.9401H142.483C140.154 76.9401 137.824 76.9401 135.495 76.9401C133.858 76.9401 132.221 76.9401 130.587 76.9401C129.846 76.9401 129.108 76.9455 128.367 76.9401C127.45 76.9348 126.739 76.2573 126.723 75.3308C126.72 75.0818 126.723 74.8354 126.723 74.5864C126.723 73.194 126.723 71.8016 126.723 70.4092C126.723 68.1036 126.723 65.8008 126.723 63.4952C126.723 60.5979 126.723 57.7006 126.723 54.8033C126.723 51.6356 126.723 48.4678 126.723 45.2974C126.723 42.127 126.723 39.0636 126.723 35.9468C126.723 33.1967 126.723 30.444 126.723 27.694C126.723 24.944 126.723 23.6185 126.723 21.5807V18.4933C126.723 18.4344 126.723 18.3755 126.723 18.3166C126.741 17.4383 127.426 16.7501 128.303 16.7314C128.453 16.7287 128.6 16.7314 128.75 16.7314C129.798 16.7314 130.847 16.7314 131.898 16.7314C133.786 16.7314 135.674 16.7314 137.562 16.7314C140.063 16.7314 142.563 16.7314 145.067 16.7314C148.011 16.7314 150.956 16.7314 153.898 16.7314C157.051 16.7314 160.207 16.7314 163.36 16.7314C166.513 16.7314 169.701 16.7314 172.873 16.7314C175.858 16.7314 178.84 16.7314 181.825 16.7314C184.416 16.7314 187.01 16.7314 189.602 16.7314C191.605 16.7314 193.608 16.7314 195.611 16.7314C196.807 16.7314 198.002 16.7314 199.198 16.7314C199.433 16.7314 199.666 16.7314 199.901 16.7314C200.821 16.7394 201.522 17.4249 201.535 18.3514C201.549 19.1815 201.535 20.0116 201.535 20.8417C201.535 22.7429 201.535 24.6441 201.535 26.5479C201.535 29.2096 201.535 31.8686 201.535 34.5302C201.535 37.1919 201.535 40.6649 201.535 43.7309V53.3092C201.535 56.2707 201.535 59.235 201.535 62.1966C201.535 65.1581 201.535 67.0406 201.535 69.4612V75.1755C201.535 75.2344 201.535 75.2933 201.535 75.3549C201.519 76.2359 200.835 76.9214 199.955 76.9428C199.567 76.9535 199.567 77.556 199.955 77.5453C201.233 77.5132 202.132 76.4956 202.137 75.2451C202.137 74.9131 202.137 74.5811 202.137 74.249V69.6299C202.137 67.2093 202.137 64.7886 202.137 62.3679C202.137 59.9473 202.137 56.4153 202.137 53.4377C202.137 50.4601 202.137 47.0085 202.137 43.7952C202.137 40.6863 202.137 37.5748 202.137 34.466C202.137 31.3571 202.137 29.1373 202.137 26.4703C202.137 23.8032 202.137 22.6652 202.137 20.764C202.137 19.9527 202.15 19.1413 202.137 18.3326C202.116 17.0982 201.158 16.1449 199.928 16.1262C199.717 16.1235 199.505 16.1262 199.294 16.1262C198.128 16.1262 196.962 16.1262 195.796 16.1262C193.812 16.1262 191.827 16.1262 189.843 16.1262C187.238 16.1262 184.633 16.1262 182.03 16.1262C179.022 16.1262 176.013 16.1262 173.004 16.1262C169.814 16.1262 166.62 16.1262 163.43 16.1262C160.239 16.1262 157.075 16.1262 153.9 16.1262C150.937 16.1262 147.974 16.1262 145.011 16.1262C142.483 16.1262 139.953 16.1262 137.426 16.1262H128.696C128.474 16.1262 128.25 16.1182 128.028 16.1476C126.856 16.2976 126.126 17.3097 126.123 18.4451C126.123 19.4359 126.123 20.4266 126.123 21.4174C126.123 23.4578 126.123 25.5009 126.123 27.5414C126.123 29.5818 126.123 33.0414 126.123 35.7914C126.123 38.5415 126.123 42.0627 126.123 45.1956C126.123 48.3982 126.123 51.5981 126.123 54.8007C126.123 57.7247 126.123 60.6515 126.123 63.5756C126.123 65.8865 126.123 68.1947 126.123 70.5055C126.123 72.8164 126.123 73.2583 126.123 74.6346C126.123 74.8702 126.118 75.1059 126.123 75.3415C126.145 76.576 127.11 77.5239 128.341 77.5426C129.039 77.5533 129.739 77.5426 130.437 77.5426H135.286C137.613 77.5426 139.94 77.5426 142.267 77.5426C145.107 77.5426 147.947 77.5426 150.785 77.5426C153.919 77.5426 157.056 77.5426 160.191 77.5426C163.325 77.5426 166.61 77.5426 169.822 77.5426C173.034 77.5426 175.994 77.5426 179.083 77.5426C181.849 77.5426 184.611 77.5426 187.377 77.5426C189.597 77.5426 191.819 77.5426 194.039 77.5426C195.502 77.5426 196.967 77.5426 198.43 77.5426H199.955C200.343 77.5426 200.343 76.9401 199.955 76.9401H199.952Z" fill="#553597"/>
<path d="M147.487 25.4072H133.882C133.024 25.4072 132.328 26.1038 132.328 26.963V45.4822C132.328 46.3414 133.024 47.0379 133.882 47.0379H147.487C148.345 47.0379 149.041 46.3414 149.041 45.4822V26.963C149.041 26.1038 148.345 25.4072 147.487 25.4072Z" fill="white"/>
<path d="M147.49 46.7379H140.921C138.587 46.7379 136.241 46.7942 133.906 46.7379C133.187 46.7192 132.647 46.1836 132.633 45.4633C132.628 45.2652 132.633 45.0644 132.633 44.8635V41.7333C132.633 38.5548 132.633 35.3763 132.633 32.1979V27.3083C132.633 27.0727 132.617 26.8317 132.687 26.6041C133.016 25.5196 134.233 25.7097 135.107 25.7097H147.236C147.688 25.7097 148.116 25.7686 148.439 26.1382C148.707 26.4461 148.747 26.8076 148.747 27.1878V29.7692C148.747 32.878 148.747 35.9842 148.747 39.093C148.747 41.2031 148.763 43.3131 148.747 45.4232C148.741 46.1462 148.231 46.7192 147.493 46.7406C147.107 46.7513 147.105 47.3538 147.493 47.3431C148.525 47.3136 149.322 46.513 149.349 45.4767C149.354 45.2946 149.349 45.1126 149.349 44.9305V28.1518C149.349 27.4154 149.461 26.5452 149.017 25.9079C148.362 24.9733 147.281 25.1072 146.292 25.1072C144.866 25.1072 143.441 25.1072 142.015 25.1072H134.029C133.395 25.1072 132.81 25.3214 132.414 25.8382C132.117 26.2265 132.031 26.6764 132.031 27.1503V29.7451C132.031 32.9557 132.031 36.1689 132.031 39.3795C132.031 41.4093 131.986 43.4443 132.031 45.474C132.053 46.4621 132.799 47.2788 133.794 47.3377C134.011 47.3511 134.23 47.3377 134.449 47.3377H147.493C147.88 47.3377 147.88 46.7353 147.493 46.7353L147.49 46.7379Z" fill="#553597"/>
<path d="M170.929 25.4072H157.324C156.466 25.4072 155.77 26.1038 155.77 26.963V45.4822C155.77 46.3414 156.466 47.0379 157.324 47.0379H170.929C171.787 47.0379 172.483 46.3414 172.483 45.4822V26.963C172.483 26.1038 171.787 25.4072 170.929 25.4072Z" fill="white"/>
<path d="M170.929 46.7381H164.36C162.026 46.7381 159.68 46.7943 157.345 46.7381C156.626 46.7193 156.086 46.1838 156.072 45.4634C156.067 45.2653 156.072 45.0645 156.072 44.8636V27.3058C156.072 27.0701 156.056 26.8291 156.126 26.6015C156.455 25.517 157.671 25.7072 158.546 25.7072H170.675C171.127 25.7072 171.555 25.7661 171.878 26.1356C172.146 26.4435 172.186 26.805 172.186 27.1853V39.0905C172.186 41.2005 172.202 43.3106 172.186 45.4206C172.18 46.1436 171.67 46.7166 170.931 46.7381C170.546 46.7488 170.544 47.3513 170.931 47.3405C171.964 47.3111 172.761 46.5104 172.788 45.4742C172.793 45.2921 172.788 45.11 172.788 44.9279V28.1492C172.788 27.4129 172.9 26.5426 172.456 25.9053C171.801 24.9708 170.72 25.1047 169.731 25.1047H157.468C156.834 25.1047 156.249 25.3189 155.853 25.8357C155.556 26.224 155.47 26.6738 155.47 27.1478V29.7425C155.47 32.9531 155.47 36.1664 155.47 39.377C155.47 41.4067 155.425 43.4418 155.47 45.4715C155.492 46.4596 156.238 47.2763 157.233 47.3352C157.45 47.3486 157.669 47.3352 157.888 47.3352H170.931C171.319 47.3352 171.319 46.7327 170.931 46.7327L170.929 46.7381Z" fill="#553597"/>
<path d="M194.98 25.4072H181.375C180.517 25.4072 179.821 26.1038 179.821 26.963V45.4822C179.821 46.3414 180.517 47.0379 181.375 47.0379H194.98C195.838 47.0379 196.534 46.3414 196.534 45.4822V26.963C196.534 26.1038 195.838 25.4072 194.98 25.4072Z" fill="white"/>
<path d="M194.98 46.7381H188.412C186.077 46.7381 183.731 46.7943 181.396 46.7381C180.677 46.7193 180.137 46.1838 180.123 45.4634C180.118 45.2653 180.123 45.0645 180.123 44.8636V27.3058C180.123 27.0701 180.107 26.8291 180.177 26.6015C180.506 25.517 181.723 25.7072 182.597 25.7072H194.726C195.178 25.7072 195.606 25.7661 195.93 26.1356C196.197 26.4435 196.237 26.805 196.237 27.1853V39.0905C196.237 41.2005 196.253 43.3106 196.237 45.4206C196.232 46.1436 195.721 46.7166 194.983 46.7381C194.598 46.7488 194.595 47.3513 194.983 47.3405C196.015 47.3111 196.812 46.5104 196.839 45.4742C196.844 45.2921 196.839 45.11 196.839 44.9279V28.1492C196.839 27.4129 196.951 26.5426 196.507 25.9053C195.852 24.9708 194.771 25.1047 193.782 25.1047C192.356 25.1047 190.931 25.1047 189.505 25.1047H181.519C180.886 25.1047 180.3 25.3189 179.904 25.8357C179.607 26.224 179.522 26.6738 179.522 27.1478V29.7425C179.522 32.9531 179.522 36.1664 179.522 39.377C179.522 41.4067 179.476 43.4418 179.522 45.4715C179.543 46.4596 180.289 47.2763 181.284 47.3352C181.501 47.3486 181.72 47.3352 181.939 47.3352H194.983C195.371 47.3352 195.371 46.7327 194.983 46.7327L194.98 46.7381Z" fill="#553597"/>
<path d="M180.594 53.7296H195.758C196.146 53.7296 196.146 53.1271 195.758 53.1271H180.594C180.206 53.1271 180.206 53.7296 180.594 53.7296Z" fill="#553597"/>
<path d="M180.594 56.8973H195.758C196.146 56.8973 196.146 56.2948 195.758 56.2948H180.594C180.206 56.2948 180.206 56.8973 180.594 56.8973Z" fill="#553597"/>
<path d="M180.594 59.9445H195.758C196.146 59.9445 196.146 59.342 195.758 59.342H180.594C180.206 59.342 180.206 59.9445 180.594 59.9445Z" fill="#553597"/>
<path d="M180.594 62.9919H195.758C196.146 62.9919 196.146 62.3894 195.758 62.3894H180.594C180.206 62.3894 180.206 62.9919 180.594 62.9919Z" fill="#553597"/>
<path d="M156.546 53.5797H171.71C172.098 53.5797 172.098 52.9772 171.71 52.9772H156.546C156.158 52.9772 156.158 53.5797 156.546 53.5797Z" fill="#553597"/>
<path d="M156.546 56.7474H171.71C172.098 56.7474 172.098 56.1449 171.71 56.1449H156.546C156.158 56.1449 156.158 56.7474 156.546 56.7474Z" fill="#553597"/>
<path d="M156.546 59.7946H171.71C172.098 59.7946 172.098 59.1921 171.71 59.1921H156.546C156.158 59.1921 156.158 59.7946 156.546 59.7946Z" fill="#553597"/>
<path d="M156.546 62.842H171.71C172.098 62.842 172.098 62.2395 171.71 62.2395H156.546C156.158 62.2395 156.158 62.842 156.546 62.842Z" fill="#553597"/>
<path d="M156.848 178.196L153.149 181.899C153.149 181.899 147.03 181.615 145.749 184.178L144.468 186.743L165.529 195.007C165.529 195.007 169.514 186.457 168.233 183.324L156.848 178.193V178.196Z" fill="#553597"/>
<path d="M145.321 185.035L166.219 193.413L165.529 195.007L144.468 186.743L145.321 185.035Z" fill="white"/>
<path d="M147.115 183.353C148.731 183.827 150.239 184.601 151.574 185.627C151.705 185.726 151.908 185.645 151.986 185.519C152.079 185.364 152.007 185.206 151.879 185.107C150.504 184.049 148.939 183.262 147.276 182.772C146.904 182.662 146.744 183.243 147.115 183.353Z" fill="white"/>
<path d="M150.127 182.475C151.151 182.737 152.079 183.276 152.817 184.036C153.087 184.314 153.513 183.889 153.242 183.61C152.437 182.78 151.408 182.18 150.287 181.894C149.913 181.797 149.752 182.378 150.127 182.475Z" fill="white"/>
<path d="M154.896 180.151C155.842 180.989 156.963 181.856 158.271 182.676C162.058 185.048 165.759 185.985 168.375 186.379C168.394 186.189 168.42 185.913 168.458 185.578C168.463 185.525 168.514 185.083 168.533 184.941C168.578 184.62 168.72 184.124 169.182 183.471C165.008 181.623 160.833 179.773 156.658 177.925C156.07 178.667 155.484 179.409 154.896 180.151Z" fill="white"/>
<path d="M186.195 184.981L183.988 189.731C183.988 189.731 178.142 191.563 177.818 194.412L177.492 197.261L200.107 197.797C200.107 197.797 200.923 188.398 198.647 185.894L186.198 184.984L186.195 184.981Z" fill="#553597"/>
<path d="M177.709 195.363L200.209 196.064L200.107 197.797L177.492 197.261L177.709 195.363Z" fill="white"/>
<path d="M178.795 193.17C180.474 193.06 182.154 193.263 183.759 193.769C184.128 193.887 184.288 193.304 183.919 193.188C182.266 192.669 180.522 192.457 178.795 192.567C178.41 192.591 178.407 193.194 178.795 193.17Z" fill="white"/>
<path d="M181.322 191.311C182.37 191.207 183.432 191.381 184.382 191.841C184.529 191.911 184.708 191.882 184.793 191.734C184.871 191.603 184.834 191.394 184.686 191.322C183.643 190.816 182.477 190.596 181.322 190.711C181.162 190.728 181.022 190.837 181.022 191.011C181.022 191.161 181.162 191.33 181.322 191.311Z" fill="white"/>
<path d="M184.954 187.482C186.326 188.055 188.811 188.88 191.999 188.8C195.393 188.714 197.96 187.638 199.311 186.955C199.236 186.773 199.131 186.564 198.99 186.341C198.875 186.165 198.757 186.015 198.647 185.892L186.198 184.981C185.783 185.814 185.369 186.649 184.957 187.482H184.954Z" fill="white"/>
<path d="M231.31 117.419C231.96 119.254 236.525 132.519 231.037 137.01C229.976 137.877 228.368 138.193 225.148 138.823C220.81 139.671 217.133 139.827 209.96 139.781C207.109 139.762 203.442 139.712 199.158 139.578C199.54 146.299 199.744 153.411 199.701 160.876C199.65 169.724 199.259 178.083 198.642 185.894C197.066 186.542 194.218 187.455 190.648 187.166C188.701 187.008 187.088 186.537 185.893 186.079C184.882 174.345 183.868 162.609 182.857 150.875C178.083 162.231 173.306 173.588 168.533 184.944C166.778 184.55 164.545 183.875 162.117 182.678C159.501 181.388 157.492 179.904 156.067 178.675C158.511 168.669 161.009 160.129 163.154 153.352C167.76 138.796 172.025 128.355 179.391 125.501C180.388 125.115 182.127 124.596 182.48 124.489C187.553 122.973 191.156 122.593 196.671 121.848C202.512 121.061 198.936 121.415 207.179 120.306C213.017 119.521 221.155 118.496 231.31 117.419Z" fill="#A78ED7"/>
<path d="M183.149 150.792C182.681 148.005 182.472 145.196 182.467 142.371C182.467 140.951 182.491 139.532 182.657 138.121C182.833 136.592 183.17 135.074 183.552 133.582C183.879 132.308 184.304 131.06 184.999 129.935C185.657 128.872 186.521 127.938 187.537 127.209C189.599 125.726 192.105 125.032 194.52 124.363C197.54 123.525 200.583 122.989 203.721 122.89C204.106 122.877 204.108 122.274 203.721 122.288C200.856 122.376 198.003 122.786 195.235 123.541C192.713 124.229 190.076 124.888 187.834 126.285C185.593 127.683 184.069 129.82 183.28 132.332C182.381 135.194 181.916 138.209 181.873 141.206C181.827 144.475 182.028 147.726 182.571 150.953C182.635 151.333 183.216 151.172 183.151 150.792H183.149Z" fill="#553597"/>
<path d="M165.863 147.126C167.094 143.3 168.516 139.527 170.18 135.866C171.03 133.995 171.948 132.099 173.277 130.556C174.97 128.594 177.091 126.867 179.431 125.742C181.53 124.732 183.881 124.218 186.144 123.736C190.062 122.898 194.036 122.277 198.016 121.803C198.593 121.733 199.171 121.669 199.749 121.607C200.129 121.567 200.134 120.965 199.749 121.005C195.641 121.447 191.549 122.049 187.494 122.847C184.839 123.369 182.111 123.924 179.613 125.003C177.259 126.02 175.136 127.681 173.387 129.539C172.044 130.966 171.079 132.586 170.231 134.345C168.527 137.869 167.104 141.549 165.847 145.252C165.655 145.822 165.465 146.395 165.28 146.968C165.163 147.338 165.743 147.496 165.861 147.129L165.863 147.126Z" fill="#553597"/>
<path d="M195.232 136.239C195.419 136.565 195.641 136.873 195.868 137.173C196.379 137.843 196.951 138.466 197.617 138.989C198.048 139.326 198.508 139.621 199.011 139.84C199.16 139.904 199.334 139.883 199.423 139.733C199.497 139.604 199.465 139.385 199.316 139.321C197.909 138.707 196.785 137.519 195.954 136.255C195.884 136.15 195.817 136.046 195.756 135.936C195.563 135.599 195.044 135.904 195.237 136.241L195.232 136.239Z" fill="#553597"/>
<path d="M215.199 71.3679C214.226 71.2286 212.822 71.0331 211.124 70.8243C207.457 70.3717 206.7 70.3744 205.927 70.4842C205.459 70.5511 203.801 70.8269 201.34 72.4577C201.34 72.4577 198.003 75.1033 195.09 78.9887C193.079 81.6718 185.994 96.6965 178.91 118.327C183.657 118.541 188.407 118.758 193.154 118.973C198.69 117.92 202.953 117.695 205.892 117.693C207.663 117.693 211.725 117.773 218.024 117.666C218.607 117.655 218.901 117.65 219.265 117.642C223.191 117.553 227.005 117.454 231.369 116.739C233.231 116.434 234.357 116.153 234.739 116.056C236.86 115.516 238.176 115.178 239.433 114.455C242.516 112.683 243.717 109.459 244.062 108.532C244.838 106.454 244.907 104.502 244.685 101.57C244.426 98.1452 244.078 93.5582 241.559 87.8279C239.149 82.3492 235.456 73.9492 227.021 71.2313C222.656 69.8255 218.433 70.3932 215.199 71.3679Z" fill="white"/>
<path d="M215.279 71.0786C212.699 70.7091 210.099 70.2994 207.494 70.1441C206.291 70.0718 205.175 70.2485 204.047 70.6877C203.028 71.084 201.955 71.5954 201.091 72.2729C200.613 72.6478 200.161 73.0628 199.711 73.4725C197.887 75.1461 196.109 76.9884 194.691 79.0235C194.167 79.7786 193.729 80.598 193.301 81.4093C192.589 82.7509 191.926 84.1165 191.282 85.4902C189.34 89.6273 187.569 93.8474 185.884 98.0969C183.576 103.916 181.442 109.801 179.45 115.738C179.169 116.573 178.893 117.409 178.618 118.247C178.554 118.442 178.722 118.619 178.907 118.627C181.68 118.753 184.454 118.879 187.227 119.005C188.602 119.066 189.979 119.131 191.354 119.192C191.685 119.208 192.02 119.222 192.351 119.238C192.683 119.254 193.028 119.297 193.36 119.238C194.015 119.12 194.667 118.999 195.323 118.892C199.029 118.29 202.771 117.974 206.526 117.995C210.281 118.017 214.012 118.033 217.756 117.971C222.642 117.893 227.534 117.749 232.353 116.873C234.11 116.555 235.878 116.142 237.576 115.585C239.441 114.972 241.059 113.906 242.289 112.364C243.161 111.271 243.813 110.037 244.305 108.733C245.017 106.842 245.156 104.866 245.065 102.861C244.88 98.8574 244.367 94.8435 243.107 91.025C242.487 89.1426 241.682 87.3271 240.858 85.5277C240.163 84.0094 239.422 82.5125 238.579 81.0692C236.747 77.9256 234.413 75.0122 231.356 72.9879C227.486 70.4226 222.776 69.6327 218.227 70.3583C217.176 70.527 216.135 70.7707 215.116 71.076C214.747 71.1857 214.905 71.7695 215.277 71.657C219.73 70.3235 224.587 70.2726 228.858 72.2729C232.204 73.842 234.862 76.493 236.911 79.5322C238.713 82.21 240.066 85.1501 241.353 88.1036C243.054 92.0105 243.939 96.1288 244.289 100.36C244.455 102.371 244.661 104.435 244.316 106.438C244.081 107.806 243.581 109.143 242.909 110.356C242.005 111.994 240.719 113.427 239.055 114.319C237.52 115.141 235.731 115.524 234.046 115.912C229.433 116.978 224.686 117.213 219.968 117.323C215.956 117.417 211.942 117.433 207.93 117.401C204.79 117.377 201.674 117.468 198.553 117.834C197.358 117.974 196.165 118.142 194.978 118.341C194.686 118.389 194.392 118.44 194.1 118.491C193.747 118.552 193.376 118.662 193.017 118.662C192.354 118.662 191.683 118.6 191.019 118.571C188.313 118.448 185.606 118.325 182.9 118.201C181.568 118.14 180.236 118.081 178.907 118.019L179.196 118.399C181.18 112.345 183.312 106.339 185.617 100.4C187.342 95.9574 189.158 91.5472 191.14 87.212C192.276 84.727 193.421 82.1993 194.855 79.8696C195.887 78.196 197.278 76.7153 198.652 75.3228C199.797 74.1634 200.968 72.9745 202.383 72.1524C203.319 71.6088 204.317 71.1429 205.373 70.8885C205.831 70.7787 206.144 70.7305 206.606 70.7198C207.352 70.6984 208.107 70.7814 208.847 70.8564C210.348 71.0117 211.843 71.2045 213.335 71.4053C213.929 71.4856 214.523 71.5687 215.114 71.6517C215.493 71.7052 215.657 71.1242 215.274 71.0706L215.279 71.0786Z" fill="#553597"/>
<path d="M206.066 70.7225C206.561 73.2958 207.384 75.2264 208.032 76.493C208.92 78.2281 209.489 79.3046 210.583 79.5349C212.375 79.9124 214.076 77.6953 214.215 77.5078C214.25 77.7167 214.426 78.6244 215.218 79.1279C216.068 79.6714 217.039 79.3689 217.301 79.2885C218.157 79.0234 218.927 78.354 220.516 75.1488C221.064 74.0402 221.765 72.5219 222.471 70.6528C222.041 70.6046 221.562 70.5725 221.043 70.5725C220.35 70.5725 219.73 70.6314 219.19 70.7144C218.409 74.4043 215.06 76.1716 212.891 75.3817C211.364 74.8274 210.289 72.9557 210.211 70.8082C209.615 70.7118 208.928 70.6395 208.165 70.6207C207.382 70.602 206.676 70.6475 206.066 70.7171V70.7225Z" fill="#A78ED7"/>
<path d="M231.439 92.1845C231.524 93.7563 231.554 95.4379 231.506 97.2186C231.436 99.8776 231.201 102.322 230.882 104.518C224.386 105.827 217.89 107.134 211.394 108.444C211.846 110.84 212.3 113.237 212.752 115.631C213.948 115.815 215.654 116.056 217.711 116.265C220.899 116.587 224.595 116.795 226.951 116.742C231.872 116.627 238.448 116.49 242.102 112.321C246.555 107.239 244.602 98.6297 243.527 93.8875C242.786 90.618 241.706 88.0072 240.834 86.2051" fill="white"/>
<path d="M231.136 92.1845C231.353 96.2734 231.174 100.384 230.594 104.438L230.805 104.226C225.747 105.244 220.69 106.264 215.633 107.282C214.194 107.571 212.755 107.86 211.316 108.152C211.147 108.187 211.078 108.371 211.105 108.521C211.557 110.918 212.011 113.314 212.463 115.708C212.482 115.799 212.578 115.904 212.675 115.92C217.015 116.592 221.425 117.018 225.82 117.05C227.606 117.063 229.406 117.002 231.19 116.868C233.059 116.726 234.94 116.469 236.737 115.923C238.534 115.376 240.16 114.568 241.527 113.336C242.888 112.109 243.851 110.514 244.429 108.781C245.576 105.332 245.284 101.538 244.688 98.0139C244.059 94.3026 243.147 90.626 241.623 87.1771C241.455 86.7969 241.281 86.422 241.101 86.0498C240.933 85.7017 240.414 86.007 240.583 86.3551C242.19 89.6888 243.155 93.2208 243.864 96.8411C244.53 100.236 244.969 103.843 244.22 107.263C243.843 108.985 243.134 110.65 241.984 112.002C240.834 113.355 239.272 114.356 237.598 114.993C234.223 116.279 230.524 116.364 226.956 116.442C224.894 116.488 222.824 116.375 220.768 116.228C218.532 116.067 216.301 115.84 214.084 115.526C213.667 115.467 213.252 115.406 212.838 115.342L213.049 115.553C212.597 113.156 212.142 110.76 211.69 108.366L211.479 108.736C216.537 107.718 221.594 106.698 226.651 105.68C228.09 105.391 229.529 105.102 230.968 104.81C231.059 104.791 231.163 104.695 231.179 104.598C231.768 100.488 231.963 96.3323 231.744 92.1845C231.722 91.7989 231.12 91.7962 231.142 92.1845H231.136Z" fill="#553597"/>
<path d="M202.223 89.8039C202.079 92.7949 201.704 96.1635 200.931 99.8026C199.206 107.948 196.141 114.402 193.448 118.972L178.91 118.327C181.991 108.575 185.767 98.4798 190.402 88.1732C191.153 86.5023 191.916 84.8555 192.686 83.2274" fill="white"/>
<path d="M201.923 89.804C201.707 94.1981 201.035 98.5628 199.907 102.815C198.885 106.668 197.494 110.42 195.761 114.011C194.972 115.649 194.111 117.253 193.188 118.82L193.448 118.67C191.811 118.598 190.177 118.525 188.54 118.453C185.93 118.338 183.322 118.22 180.712 118.105C180.11 118.078 179.509 118.051 178.907 118.025L179.196 118.405C180.624 113.885 182.167 109.402 183.822 104.96C185.564 100.295 187.428 95.6789 189.42 91.116C190.554 88.5186 191.728 85.9373 192.94 83.3774C193.105 83.0293 192.587 82.724 192.421 83.0721C190.263 87.6323 188.227 92.2487 186.32 96.9214C184.472 101.447 182.745 106.018 181.14 110.634C180.263 113.159 179.42 115.695 178.615 118.244C178.554 118.44 178.717 118.616 178.904 118.624C180.541 118.697 182.175 118.769 183.812 118.841C186.422 118.956 189.03 119.074 191.64 119.189C192.242 119.216 192.843 119.243 193.445 119.27C193.549 119.275 193.654 119.208 193.705 119.12C195.478 116.11 197.01 112.964 198.281 109.708C199.885 105.592 201.059 101.31 201.768 96.9508C202.153 94.5837 202.405 92.1952 202.522 89.7986C202.541 89.4103 201.939 89.413 201.921 89.7986L201.923 89.804Z" fill="#553597"/>
<path d="M190.787 87.153C192.37 88.0339 194.224 88.9444 196.337 89.7798C198.42 90.6045 200.37 91.2044 202.108 91.6462L201.964 93.2341C200.11 92.9315 197.749 92.3611 195.165 91.2418C193.181 90.3823 191.541 89.4049 190.25 88.5132L190.79 87.153H190.787Z" fill="#553597"/>
<path d="M185.986 99.002C187.872 100.041 190.177 101.139 192.881 102.089C195.47 103 197.856 103.576 199.907 103.948C199.746 104.489 199.583 105.03 199.423 105.573C197.353 105.276 194.756 104.714 191.892 103.621C189.263 102.617 187.11 101.431 185.449 100.365L185.989 99.0046L185.986 99.002Z" fill="#553597"/>
<path d="M219.029 106.802C219.064 108.149 219.251 109.978 219.888 112.048C220.476 113.96 221.265 115.478 221.942 116.573C221.265 116.53 220.591 116.487 219.915 116.445C219.332 115.432 218.666 114.048 218.19 112.321C217.62 110.256 217.524 108.446 217.556 107.15C218.048 107.035 218.537 106.917 219.029 106.802Z" fill="#553597"/>
<path d="M230.883 104.518C231.5 105.945 232.37 107.624 233.597 109.381C235.32 111.844 237.173 113.636 238.671 114.873C238.077 115.076 237.483 115.283 236.892 115.486C235.451 114.348 233.554 112.586 231.845 110.042C230.58 108.16 229.767 106.371 229.238 104.93C229.786 104.794 230.332 104.657 230.88 104.521L230.883 104.518Z" fill="#553597"/>
<path d="M231.527 95.9922C233.089 96.5331 235.164 97.0847 237.646 97.3257C240.267 97.5774 242.517 97.4007 244.207 97.1436C244.3 97.7247 244.394 98.3057 244.485 98.8868C242.664 99.2215 240.053 99.4866 236.978 99.0769C234.734 98.777 232.856 98.2013 231.428 97.639C231.46 97.0901 231.492 96.5411 231.527 95.9922Z" fill="#553597"/>
<path d="M181.739 109.718C183.625 110.757 185.93 111.855 188.634 112.806C191.223 113.716 193.609 114.292 195.66 114.664C195.427 115.194 195.194 115.727 194.964 116.257C192.943 115.955 190.421 115.398 187.644 114.335C185.013 113.33 182.86 112.144 181.202 111.078L181.742 109.718H181.739Z" fill="#553597"/>
<path d="M219.572 116.447C217.315 116.364 215.525 116.241 214.29 116.145C213.204 116.059 213.295 116.051 212.832 116.027C210.214 115.893 209.374 116.257 208.133 115.767C207.721 115.604 207.125 115.293 206.502 114.635C205.584 115.044 205.009 115.478 204.646 115.813C204.483 115.963 204.154 116.284 203.64 116.394C203.464 116.431 203.169 116.49 202.881 116.335C202.498 116.132 202.399 115.711 202.383 115.631C202.343 115.695 201.856 116.461 201.201 116.413C201.14 116.407 200.992 116.397 200.845 116.3C200.532 116.094 200.409 115.623 200.519 115.098C200.385 115.344 199.829 116.319 198.96 116.415C198.821 116.431 198.628 116.45 198.508 116.332C198.168 116 198.711 114.728 198.644 114.86C198.559 115.026 197.944 116.174 196.922 116.244C196.761 116.255 196.596 116.265 196.486 116.164C196.095 115.802 196.81 114.407 197.417 113.373C198.107 112.222 199.152 110.947 200.738 110.166C201.428 109.825 201.899 109.809 206.577 109.076C206.606 109.07 206.684 109.06 206.807 109.041C207.505 108.931 208.042 108.845 208.227 108.816C208.23 108.816 208.288 108.805 208.294 108.805C209.115 108.674 215.09 107.665 216.141 107.488" fill="white"/>
<path d="M219.572 116.145C217.545 116.07 215.515 115.957 213.496 115.775C212.752 115.708 212.009 115.684 211.265 115.695C210.522 115.706 209.805 115.786 209.085 115.7C208.16 115.591 207.358 115.079 206.721 114.42C206.62 114.316 206.478 114.319 206.357 114.372C205.63 114.702 204.975 115.119 204.381 115.652C203.886 116.097 202.886 116.458 202.677 115.55C202.616 115.288 202.26 115.269 202.126 115.478C201.982 115.706 201.773 115.939 201.525 116.051C200.915 116.327 200.728 115.655 200.813 115.178C200.869 114.862 200.436 114.627 200.262 114.945C199.987 115.451 199.495 116.131 198.85 116.123C198.692 116.123 198.7 116.083 198.698 115.944C198.698 115.797 198.73 115.647 198.765 115.502C198.813 115.309 198.893 115.122 198.941 114.929C198.995 114.72 198.797 114.479 198.572 114.56C198.337 114.643 198.206 115.028 198.059 115.216C197.756 115.599 197.337 115.939 196.828 115.947C196.606 115.949 196.671 115.765 196.713 115.588C196.775 115.32 196.882 115.06 196.997 114.811C197.254 114.249 197.558 113.7 197.895 113.183C198.585 112.126 199.484 111.199 200.591 110.583C200.974 110.369 201.153 110.291 201.584 110.19C202.126 110.061 202.683 109.983 203.234 109.898C204.392 109.716 205.55 109.542 206.708 109.359C208.181 109.129 209.655 108.886 211.126 108.636C212.827 108.35 214.525 108.063 216.226 107.777C216.606 107.713 216.446 107.132 216.066 107.196C212.88 107.734 209.695 108.286 206.502 108.784C205.285 108.974 204.065 109.156 202.849 109.351C202.319 109.434 201.781 109.509 201.263 109.649C200.69 109.804 200.158 110.109 199.674 110.447C198.612 111.188 197.762 112.193 197.109 113.309C196.794 113.847 195.288 116.214 196.564 116.53C197.588 116.785 198.468 115.794 198.909 115.004L198.73 115.143C198.607 115.02 198.484 114.897 198.361 114.771C198.222 115.328 197.719 116.504 198.61 116.71C199.554 116.927 200.38 115.984 200.781 115.25L200.23 115.018C200.094 115.775 200.345 116.737 201.284 116.715C201.862 116.702 202.348 116.247 202.643 115.783L202.092 115.711C202.175 116.073 202.399 116.413 202.728 116.595C203.194 116.849 203.782 116.729 204.231 116.496C204.587 116.311 204.852 116.014 205.162 115.77C205.617 115.411 206.13 115.135 206.657 114.894L206.293 114.846C206.908 115.483 207.668 115.998 208.537 116.212C209.214 116.378 209.917 116.335 210.605 116.314C212.273 116.263 213.907 116.426 215.568 116.541C216.903 116.632 218.237 116.699 219.572 116.75C219.96 116.763 219.96 116.161 219.572 116.148V116.145Z" fill="#553597"/>
<path d="M205.368 112.412C203.966 113.015 202.803 114.113 202.121 115.478C201.947 115.824 202.466 116.129 202.64 115.783C203.282 114.498 204.352 113.499 205.67 112.934C205.82 112.87 205.852 112.65 205.777 112.522C205.686 112.367 205.515 112.351 205.365 112.415L205.368 112.412Z" fill="#553597"/>
<path d="M203.48 111.547C202.127 112.57 200.969 113.818 200.062 115.253C199.853 115.583 200.375 115.885 200.581 115.558C201.431 114.217 202.517 113.028 203.782 112.069C203.911 111.97 203.98 111.81 203.889 111.657C203.814 111.528 203.608 111.451 203.477 111.55L203.48 111.547Z" fill="#553597"/>
<path d="M201.648 110.883C200.235 111.925 199.085 113.29 198.318 114.87C198.149 115.218 198.668 115.524 198.837 115.175C199.556 113.689 200.621 112.385 201.95 111.403C202.081 111.306 202.148 111.14 202.057 110.99C201.982 110.862 201.776 110.784 201.645 110.883H201.648Z" fill="#553597"/>
<path d="M211.939 108.628C213.068 110.848 213.581 113.336 213.445 115.821C213.423 116.209 214.025 116.206 214.046 115.821C214.188 113.229 213.632 110.637 212.458 108.323C212.281 107.978 211.762 108.283 211.939 108.628Z" fill="#553597"/>
<path d="M218.882 63.265C219.829 61.4066 219.764 59.9553 219.764 59.9553C220.072 59.7384 221.099 58.9538 221.289 57.631C221.366 57.0875 221.383 55.9119 220.781 55.6629C220.286 55.4594 219.449 55.9146 218.901 56.8652V49.5818H205.349C205.258 50.9367 205.146 52.945 205.114 55.3871C205.031 61.321 205.491 63.2811 205.97 64.3227C206.028 64.4512 206.101 64.5905 206.208 64.7752C206.464 65.2251 208.232 68.3205 211.549 68.5642C213.803 68.7302 216.031 67.5279 217.344 65.4982" fill="white"/>
<path d="M219.141 63.4176C219.66 62.3786 220.112 61.1388 220.064 59.9553L219.914 60.215C221.075 59.3876 221.762 58.0969 221.604 56.6536C221.535 56.0217 221.241 55.296 220.494 55.3121C219.679 55.3308 219.023 56.0672 218.638 56.7099L219.2 56.8625V49.5791C219.2 49.4157 219.061 49.2792 218.9 49.2792H205.349C205.178 49.2792 205.06 49.4184 205.049 49.5791C204.87 52.2381 204.779 54.9024 204.809 57.5668C204.827 59.3635 204.868 61.2031 205.234 62.9677C205.782 65.608 207.975 68.1063 210.628 68.7249C213.281 69.3434 216.106 67.9296 217.606 65.6481C217.82 65.3241 217.298 65.0216 217.087 65.3429C215.795 67.3057 213.445 68.6285 211.062 68.2C209.329 67.8894 207.892 66.7246 206.903 65.3054C206.371 64.5422 206.044 63.8407 205.844 62.9383C205.493 61.3611 205.451 59.7116 205.421 58.105C205.368 55.2639 205.464 52.4148 205.654 49.5791L205.354 49.879H218.906L218.606 49.5791V56.8625C218.606 57.1624 219.015 57.2695 219.168 57.0151C219.393 56.6429 219.673 56.2895 220.056 56.0672C220.256 55.9521 220.559 55.8235 220.762 55.9976C220.992 56.1904 221.019 56.6188 221.032 56.8946C221.045 57.2347 221.024 57.5748 220.933 57.9041C220.754 58.5682 220.321 59.1359 219.791 59.567C219.641 59.6875 219.491 59.7652 219.47 59.974C219.457 60.1133 219.465 60.2552 219.451 60.3918C219.368 61.3397 219.05 62.2662 218.628 63.1123C218.454 63.4578 218.973 63.763 219.146 63.4176H219.141Z" fill="#553597"/>
<path d="M219.925 59.9151C219.569 61.0987 219.631 61.4388 219.767 61.5137C220.139 61.7199 221.532 60.1936 222.343 58.5548C222.928 57.3713 223.113 56.3296 223.212 55.7513C223.3 55.2318 223.453 54.1286 223.313 52.6344C223.142 50.7841 222.653 46.3069 219.449 44.0362C218.451 43.3293 217.216 42.9571 215.64 42.858C210.957 42.5581 209.032 44.553 205.51 44.553C201.987 44.553 200.195 54.0991 206.97 51.8204C212.511 49.9567 214.111 49.156 215.9 50.0638C217.459 50.8564 218.791 53.4136 218.748 55.4246C218.743 55.6763 218.697 56.825 218.901 56.8598C219.069 56.8893 219.176 56.1128 219.837 55.7646C219.917 55.7218 220.404 55.4755 220.781 55.6602C221.428 55.9735 221.433 57.382 221.099 58.3272C220.808 59.1547 220.246 59.6688 219.928 59.9151H219.925Z" fill="#553597"/>
<path d="M207.312 53.4779C207.492 53.5904 207.673 53.3976 208.176 53.2771C208.7 53.1512 208.984 53.2449 209.072 53.0682C209.128 52.9531 209.072 52.7897 208.989 52.6933C208.62 52.2622 207.27 52.5889 207.16 53.0816C207.128 53.2235 207.195 53.4029 207.315 53.4779H207.312Z" fill="#553597"/>
<path d="M215.277 54.1205C215.427 54.0509 215.496 53.8501 215.488 53.7028C215.475 53.4698 215.266 53.3226 214.988 53.1298C214.833 53.0226 214.643 52.8861 214.346 52.8111C214.151 52.7602 213.63 52.6263 213.397 52.9048C213.33 52.9852 213.258 53.1324 213.303 53.2663C213.378 53.4859 213.696 53.4457 214.205 53.6439C214.841 53.8929 215.036 54.2303 215.274 54.1205H215.277Z" fill="#553597"/>
<path d="M209.797 59.2913C209.724 60.0571 209.628 61.0586 210.032 61.2621C210.492 61.495 211.388 60.5712 211.567 60.7587C211.626 60.8203 211.567 60.9595 211.546 61.0184C211.318 61.5888 210.364 62.0493 209.842 61.7869C209.12 61.4228 209.329 59.709 209.452 58.6861C209.572 57.7034 209.864 56.6484 209.949 56.6617C209.981 56.6671 209.981 56.8224 209.979 56.967C209.963 58.022 209.84 58.8334 209.797 59.294V59.2913Z" fill="#553597"/>
<path d="M213.133 56.5606C213.181 56.2224 213.02 55.9196 212.773 55.8842C212.525 55.8489 212.286 56.0944 212.238 56.4326C212.19 56.7708 212.351 57.0736 212.598 57.1089C212.845 57.1443 213.084 56.8987 213.133 56.5606Z" fill="#553597"/>
<path d="M208.521 56.4638C208.565 56.1593 208.417 55.8863 208.192 55.8541C207.967 55.8219 207.749 56.0427 207.706 56.3472C207.662 56.6517 207.81 56.9247 208.035 56.9569C208.26 56.9891 208.478 56.7683 208.521 56.4638Z" fill="#553597"/>
<path d="M211.522 63.6372C211.495 63.755 211.551 63.905 211.655 63.9746C212.089 64.2611 213.522 63.1981 213.386 62.767C213.348 62.6518 213.201 62.5742 213.078 62.5715C212.84 62.5661 212.781 62.8473 212.434 63.1177C211.987 63.4632 211.581 63.3855 211.524 63.6372H211.522Z" fill="#553597"/>
<path d="M210.425 68.5267C210.487 69.2444 210.481 69.8763 210.444 70.4172C210.358 71.7266 210.078 72.7656 210.717 73.8179C211.369 74.8944 212.661 75.4567 213.774 75.5183C216.109 75.6495 217.604 73.5743 217.932 73.1137C218.66 72.1015 218.909 71.084 219.005 70.4949C218.965 68.0849 218.922 65.675 218.882 63.2623" fill="white"/>
<path d="M210.123 68.5267C210.198 69.4666 210.15 70.3877 210.062 71.3249C209.981 72.1657 209.96 73.0039 210.351 73.7777C211.059 75.1862 212.819 75.9574 214.346 75.8075C215.649 75.6789 216.783 74.9345 217.636 73.9705C218.489 73.0065 219.155 71.8364 219.297 70.5752C219.361 69.9941 219.289 69.3702 219.278 68.7864C219.267 68.1732 219.257 67.56 219.246 66.9468C219.224 65.7204 219.203 64.4914 219.182 63.265C219.176 62.8767 218.575 62.8767 218.58 63.265C218.615 65.2384 218.647 67.2093 218.682 69.1827C218.69 69.6246 218.751 70.1066 218.692 70.5457C218.647 70.8751 218.542 71.2098 218.433 71.5231C218.222 72.1202 217.903 72.6745 217.518 73.1779C216.89 73.9973 216.055 74.7364 215.058 75.055C213.712 75.4861 212.044 75.063 211.156 73.9304C210.581 73.1967 210.573 72.3237 210.655 71.4347C210.744 70.46 210.805 69.5068 210.728 68.5267C210.696 68.1438 210.094 68.1384 210.126 68.5267H210.123Z" fill="#553597"/>
<path d="M209.051 67.7608C209.495 68.0259 210.238 68.3874 211.206 68.4892C212.798 68.6579 214.012 68.0259 214.844 67.5948C216.055 66.9656 216.919 66.1462 217.505 65.4526" fill="white"/>
<path d="M208.898 68.0233C210.383 68.8962 212.14 69.0489 213.75 68.4357C215.277 67.8546 216.657 66.9174 217.716 65.6696C217.965 65.375 217.542 64.9466 217.291 65.2438C216.317 66.3872 215.071 67.2655 213.677 67.8198C212.188 68.4116 210.591 68.3152 209.203 67.5011C208.869 67.3057 208.564 67.8251 208.898 68.0206V68.0233Z" fill="#553597"/>
<path d="M72.8315 113.033H89.1752C90.2557 113.033 91.1302 113.912 91.1302 114.991C91.1302 116.073 90.253 116.948 89.1752 116.948H72.8315V113.031V113.033Z" fill="#553597"/>
<path d="M73.0752 113.633H88.6299C89.4055 113.633 90.034 114.262 90.034 115.039C90.034 115.816 89.4055 116.445 88.6299 116.445H73.0752V113.636V113.633Z" fill="white" stroke="#553597" stroke-miterlimit="10"/>
<path d="M72.2673 109.63L88.611 109.555L88.6297 113.472L72.2861 113.547C71.2056 113.553 70.3257 112.68 70.3203 111.598C70.315 110.516 71.1869 109.635 72.2673 109.63Z" fill="#553597"/>
<path d="M72.8155 110.136L88.3702 110.066L88.3836 112.875L72.8289 112.945C72.0533 112.948 71.4221 112.321 71.4194 111.547C71.4168 110.771 72.0426 110.139 72.8155 110.136Z" fill="white" stroke="#553597" stroke-miterlimit="10"/>
<path d="M93.9226 109.667H73.9497V106.558H93.9226C94.5137 106.558 94.9924 107.038 94.9924 107.63V108.596C94.9924 109.188 94.5137 109.667 93.9226 109.667Z" fill="#553597"/>
<path d="M88.8975 109.667V106.556H89.5688V108.733V109.667H88.8975Z" fill="#A78ED7"/>
<path d="M91.1357 109.7V106.591H91.807V108.768V109.7H91.1357Z" fill="#A78ED7"/>
<path d="M69.7827 103.937L90.8895 103.896C91.1704 103.896 91.4008 104.123 91.4014 104.407L91.4046 106.102C91.4051 106.383 91.1783 106.614 90.8948 106.614L69.7879 106.655L69.7827 103.939L69.7827 103.937Z" fill="#553597"/>
<path d="M70.0723 104.352L89.5932 104.314C89.874 104.313 90.1044 104.541 90.105 104.825L90.1067 105.751C90.1073 106.032 89.8804 106.263 89.5969 106.263L70.076 106.301L70.0723 104.352Z" fill="white" stroke="#553597" stroke-miterlimit="10"/>
<path d="M247.94 116.986H70.9893C69.7604 116.986 68.7642 117.983 68.7642 119.213V119.216C68.7642 120.447 69.7604 121.444 70.9893 121.444H247.94C249.169 121.444 250.165 120.447 250.165 119.216V119.213C250.165 117.983 249.169 116.986 247.94 116.986Z" fill="white"/>
<path d="M247.94 121.141C247.514 121.141 247.089 121.141 246.664 121.141H243.035C241.128 121.141 239.218 121.141 237.311 121.141H229.753C226.71 121.141 223.664 121.141 220.62 121.141C217.119 121.141 213.616 121.141 210.115 121.141C206.277 121.141 202.442 121.141 198.604 121.141C194.501 121.141 190.399 121.141 186.299 121.141C182.199 121.141 177.738 121.141 173.456 121.141C169.083 121.141 164.71 121.141 160.338 121.141C155.938 121.141 151.536 121.141 147.136 121.141C142.839 121.141 138.543 121.141 134.246 121.141C130.116 121.141 125.987 121.141 121.857 121.141C117.982 121.141 114.107 121.141 110.232 121.141C106.696 121.141 103.163 121.141 99.6273 121.141H90.2613C87.6697 121.141 85.0782 121.141 82.4893 121.141C80.4995 121.141 78.5097 121.141 76.5172 121.141H72.6072C72.0776 121.141 71.5481 121.149 71.0185 121.141C70.2857 121.131 69.6171 120.748 69.2775 120.086C68.6249 118.812 69.5957 117.312 70.9971 117.286C71.1148 117.286 71.2298 117.286 71.3475 117.286H73.8749C75.4581 117.286 77.0388 117.286 78.622 117.286H85.3296C88.1324 117.286 90.9353 117.286 93.7354 117.286C97.0277 117.286 100.317 117.286 103.61 117.286H114.671C118.656 117.286 122.641 117.286 126.626 117.286C130.83 117.286 135.037 117.286 139.241 117.286C143.579 117.286 147.92 117.286 152.258 117.286C156.644 117.286 161.03 117.286 165.419 117.286C169.789 117.286 174.157 117.286 178.527 117.286C182.747 117.286 186.97 117.286 191.19 117.286C195.199 117.286 199.208 117.286 203.217 117.286C206.927 117.286 210.636 117.286 214.346 117.286H224.319C227.183 117.286 230.05 117.286 232.915 117.286C235.207 117.286 237.496 117.286 239.788 117.286C241.433 117.286 243.08 117.286 244.725 117.286C245.64 117.286 246.552 117.286 247.466 117.286C247.619 117.286 247.774 117.286 247.926 117.286C248.566 117.294 249.167 117.583 249.536 118.118C250.411 119.393 249.464 121.109 247.95 121.139C247.563 121.147 247.563 121.749 247.95 121.741C249.429 121.712 250.625 120.435 250.462 118.938C250.32 117.652 249.229 116.702 247.95 116.68C247.827 116.68 247.704 116.68 247.581 116.68H245C243.385 116.68 241.77 116.68 240.152 116.68C237.884 116.68 235.618 116.68 233.351 116.68C230.513 116.68 227.678 116.68 224.84 116.68H214.833C211.118 116.68 207.406 116.68 203.691 116.68C199.671 116.68 195.651 116.68 191.634 116.68C187.376 116.68 183.116 116.68 178.858 116.68C174.601 116.68 170.123 116.68 165.756 116.68C161.389 116.68 156.917 116.68 152.496 116.68C148.123 116.68 143.748 116.68 139.375 116.68H126.69C122.665 116.68 118.64 116.68 114.615 116.68C110.922 116.68 107.228 116.68 103.532 116.68C100.237 116.68 96.9394 116.68 93.6445 116.68C90.8229 116.68 87.9987 116.68 85.1771 116.68C82.944 116.68 80.7108 116.68 78.4776 116.68C76.9077 116.68 75.3351 116.68 73.7652 116.68H71.2967C71.0774 116.68 70.8634 116.678 70.6441 116.707C69.1758 116.911 68.1916 118.389 68.5447 119.827C68.8228 120.954 69.8551 121.723 70.9998 121.741C71.4705 121.749 71.9439 121.741 72.4173 121.741C73.677 121.741 74.9366 121.741 76.1963 121.741H82.0748C84.661 121.741 87.2472 121.741 89.8307 121.741C92.9277 121.741 96.0275 121.741 99.1245 121.741C102.657 121.741 106.193 121.741 109.726 121.741C113.628 121.741 117.53 121.741 121.432 121.741C125.575 121.741 129.718 121.741 133.863 121.741C138.18 121.741 142.494 121.741 146.81 121.741H160.076C164.472 121.741 168.866 121.741 173.263 121.741C177.588 121.741 181.915 121.741 186.24 121.741C190.564 121.741 194.485 121.741 198.609 121.741C202.466 121.741 206.32 121.741 210.176 121.741H220.724C223.779 121.741 226.833 121.741 229.887 121.741C232.409 121.741 234.931 121.741 237.453 121.741C239.363 121.741 241.275 121.741 243.185 121.741H246.76C247.156 121.741 247.552 121.741 247.95 121.741C248.349 121.741 248.338 121.139 247.95 121.139L247.94 121.141Z" fill="#553597"/>
<path d="M81.9917 121.444L71.8234 195.826C71.7405 196.442 72.1871 196.994 72.7728 196.994C73.2329 196.994 73.6287 196.645 73.7143 196.163L87.1534 121.441H81.989L81.9917 121.444Z" fill="white"/>
<path d="M81.7031 121.364C81.6094 122.055 81.5132 122.748 81.4196 123.439C81.1628 125.311 80.9087 127.182 80.652 129.051L79.5207 137.323L78.1433 147.405C77.6459 151.044 77.1484 154.683 76.651 158.322C76.1509 161.988 75.6481 165.653 75.1479 169.322L73.7679 179.422C73.3881 182.207 73.0057 184.995 72.6259 187.779L71.8396 193.526C71.738 194.265 71.631 195.004 71.5374 195.743C71.4117 196.739 72.3799 197.682 73.3587 197.146C73.7251 196.945 73.9444 196.584 74.022 196.18C74.0782 195.888 74.1263 195.593 74.1798 195.299C74.4472 193.812 74.7147 192.326 74.9821 190.84C75.4261 188.371 75.87 185.905 76.314 183.436C76.881 180.29 77.4453 177.141 78.0123 173.995L79.9272 163.351C80.5878 159.677 81.2484 156 81.909 152.326C82.5348 148.843 83.1633 145.359 83.7891 141.875C84.3374 138.828 84.8857 135.778 85.4339 132.731C85.8485 130.433 86.2603 128.133 86.6749 125.836C86.9049 124.561 87.1322 123.286 87.3622 122.014C87.3916 121.851 87.4211 121.688 87.4505 121.522C87.4852 121.332 87.3702 121.141 87.1616 121.141H81.9972C81.6094 121.141 81.6094 121.744 81.9972 121.744H87.1616L86.8728 121.364C86.7524 122.036 86.6321 122.708 86.5091 123.38L85.5302 128.824C85.0461 131.512 84.5621 134.203 84.078 136.892C83.4869 140.172 82.8985 143.452 82.3075 146.733C81.6629 150.313 81.0184 153.893 80.3765 157.473L78.4161 168.371C77.8117 171.735 77.2073 175.1 76.6002 178.464C76.0867 181.318 75.5732 184.173 75.0597 187.027L73.9632 193.122C73.792 194.072 73.6262 195.025 73.4497 195.979C73.4176 196.147 73.3855 196.313 73.2705 196.453C72.8051 197.028 72.0723 196.49 72.1231 195.869C72.1445 195.604 72.1953 195.339 72.2328 195.074C72.4307 193.63 72.6286 192.184 72.8238 190.741C73.1581 188.299 73.4924 185.857 73.8241 183.415C74.252 180.29 74.6772 177.165 75.1052 174.043C75.5892 170.5 76.0733 166.955 76.5574 163.412C77.0575 159.746 77.5603 156.078 78.0604 152.412C78.5365 148.92 79.0152 145.428 79.4913 141.937C79.9085 138.879 80.3284 135.821 80.7456 132.763L81.6897 125.86L82.2166 122.012C82.2379 121.848 82.262 121.685 82.2834 121.524C82.3342 121.144 81.7565 120.981 81.7031 121.364Z" fill="#553597"/>
<path d="M235.653 121.444L245.888 195.941C245.966 196.501 245.514 196.996 244.931 196.996C244.463 196.996 244.062 196.67 243.981 196.225L230.462 121.444H235.653Z" fill="white"/>
<path d="M235.364 121.524C235.458 122.207 235.551 122.89 235.645 123.576C235.899 125.418 236.151 127.26 236.405 129.105C236.782 131.842 237.156 134.576 237.533 137.312C237.988 140.622 238.443 143.932 238.897 147.241C239.397 150.875 239.895 154.511 240.395 158.145C240.895 161.779 241.393 165.404 241.89 169.035C242.355 172.415 242.818 175.797 243.283 179.176C243.668 181.988 244.056 184.797 244.441 187.608C244.712 189.574 244.982 191.536 245.252 193.502C245.364 194.324 245.546 195.165 245.594 195.995C245.64 196.755 244.524 196.967 244.292 196.236C244.27 196.166 244.262 196.091 244.249 196.022C244.187 195.687 244.128 195.352 244.067 195.017C243.786 193.467 243.505 191.914 243.225 190.364C242.773 187.871 242.323 185.378 241.871 182.885C241.302 179.73 240.729 176.573 240.16 173.419C239.52 169.882 238.881 166.342 238.239 162.804C237.581 159.163 236.923 155.521 236.266 151.879C235.64 148.414 235.014 144.949 234.385 141.484C233.843 138.474 233.297 135.465 232.754 132.455C232.342 130.182 231.933 127.905 231.521 125.632L230.839 121.854C230.81 121.693 230.78 121.53 230.751 121.369L230.462 121.749H235.653C236.041 121.749 236.041 121.147 235.653 121.147H230.462C230.253 121.147 230.138 121.34 230.173 121.527C230.296 122.207 230.419 122.887 230.542 123.568C230.877 125.415 231.211 127.263 231.545 129.113C232.035 131.823 232.527 134.536 233.016 137.245C233.615 140.566 234.217 143.886 234.816 147.207C235.471 150.835 236.129 154.466 236.784 158.094C237.44 161.723 238.1 165.375 238.758 169.014C239.368 172.391 239.978 175.767 240.59 179.144C241.104 181.98 241.614 184.815 242.128 187.651C242.489 189.643 242.847 191.638 243.208 193.63C243.366 194.506 243.511 195.384 243.682 196.255C243.775 196.728 244.107 197.117 244.58 197.251C245.471 197.502 246.292 196.753 246.177 195.853C246.148 195.628 246.116 195.403 246.084 195.178C245.891 193.786 245.701 192.393 245.509 191.001C245.177 188.596 244.848 186.189 244.516 183.784C244.086 180.649 243.655 177.51 243.225 174.375C242.735 170.808 242.246 167.241 241.754 163.675C241.248 159.995 240.743 156.316 240.237 152.637L238.777 142.009C238.352 138.922 237.929 135.834 237.504 132.747C237.183 130.42 236.865 128.093 236.544 125.766L236.009 121.867C235.985 121.701 235.963 121.535 235.939 121.366C235.886 120.984 235.308 121.147 235.359 121.527L235.364 121.524Z" fill="#553597"/>
<path d="M168.725 93.8233C177.147 93.7483 185.569 93.676 193.993 93.601C194.523 93.5957 194.975 93.9812 195.055 94.5061C196.197 101.937 197.339 109.367 198.481 116.798H170.966C169.872 109.547 168.779 102.298 167.682 95.047C167.586 94.4043 168.078 93.8259 168.725 93.8206V93.8233Z" fill="white"/>
<path d="M168.725 94.1258C175.165 94.0696 181.602 94.0134 188.043 93.9571C189.647 93.9438 191.252 93.9277 192.857 93.9143C193.437 93.9089 194.408 93.6894 194.702 94.3615C194.833 94.6641 194.838 95.055 194.887 95.379C194.951 95.7967 195.015 96.2145 195.079 96.6322C195.569 99.8214 196.058 103.008 196.55 106.197C197.098 109.758 197.644 113.32 198.192 116.881L198.481 116.501H172.081C171.744 116.501 171.343 116.439 171.012 116.501C170.996 116.504 170.98 116.501 170.963 116.501L171.252 116.723C170.327 110.594 169.402 104.465 168.476 98.3352C168.348 97.4784 168.217 96.6215 168.088 95.7646C168.035 95.4112 167.882 94.9586 168.022 94.6105C168.139 94.3186 168.415 94.1446 168.725 94.1285C169.11 94.1098 169.113 93.5073 168.725 93.526C168.177 93.5528 167.69 93.8527 167.473 94.3722C167.372 94.6185 167.353 94.8702 167.39 95.1327C167.449 95.5718 167.524 96.011 167.588 96.4501C167.834 98.0755 168.08 99.7009 168.324 101.326C168.824 104.644 169.327 107.962 169.827 111.279C170.108 113.146 170.391 115.015 170.672 116.881C170.691 117.01 170.84 117.103 170.961 117.103H197.36C197.713 117.103 198.077 117.13 198.43 117.103C198.446 117.103 198.462 117.103 198.478 117.103C198.692 117.103 198.797 116.911 198.767 116.723C197.764 110.192 196.761 103.664 195.756 97.1329C195.63 96.3189 195.507 95.5049 195.381 94.6935C195.293 94.1125 195.058 93.6037 194.467 93.3895C194.181 93.285 193.886 93.3065 193.587 93.3091C193.14 93.3118 192.696 93.3172 192.25 93.3198C191.426 93.3279 190.599 93.3332 189.776 93.3413C186.478 93.3707 183.18 93.4002 179.883 93.427C176.163 93.4591 172.44 93.4912 168.72 93.526C168.332 93.5287 168.332 94.1312 168.72 94.1285L168.725 94.1258Z" fill="#553597"/>
<path d="M165.529 116.801C167.265 113.135 169 109.469 170.734 105.803C170.91 105.434 171.282 105.196 171.691 105.193C179.115 105.155 186.54 105.115 193.964 105.078C194.686 105.075 195.202 105.774 194.986 106.462C193.908 109.908 192.83 113.355 191.752 116.801H165.526H165.529Z" fill="white"/>
<path d="M165.788 116.954C167.142 114.094 168.495 111.234 169.851 108.374C170.193 107.648 170.538 106.923 170.881 106.2C171.017 105.913 171.132 105.648 171.453 105.538C171.774 105.429 172.212 105.496 172.56 105.493C174.138 105.485 175.716 105.477 177.294 105.469C180.45 105.453 183.608 105.437 186.764 105.421C188.342 105.412 189.92 105.404 191.498 105.396C192.276 105.391 193.055 105.38 193.833 105.383C194.512 105.386 194.857 105.868 194.659 106.513C193.616 109.922 192.53 113.32 191.466 116.723L191.755 116.501H166.609C166.267 116.501 165.917 116.477 165.577 116.501C165.561 116.501 165.545 116.501 165.529 116.501C165.141 116.501 165.141 117.103 165.529 117.103H190.674C191.014 117.103 191.367 117.13 191.707 117.103C191.723 117.103 191.739 117.103 191.755 117.103C191.891 117.103 192.006 117.01 192.044 116.881C193.049 113.671 194.052 110.457 195.058 107.247C195.245 106.65 195.496 106.061 195.157 105.466C194.841 104.912 194.293 104.775 193.699 104.781C192.009 104.789 190.321 104.799 188.631 104.807C185.296 104.826 181.961 104.842 178.629 104.861C176.962 104.869 175.293 104.88 173.627 104.888C173.205 104.888 172.782 104.893 172.36 104.893C172.012 104.893 171.629 104.85 171.292 104.96C170.621 105.174 170.41 105.795 170.132 106.382C168.511 109.807 166.89 113.229 165.27 116.654C165.104 117.002 165.623 117.307 165.788 116.959V116.954Z" fill="#553597"/>
<path d="M89.8095 88.5936C90.5611 89.2604 91.8421 90.2029 93.6474 90.6715C97.9292 91.7855 101.489 89.2952 102.067 88.8774C101.599 91.4079 101.16 94.0214 100.756 96.7125C100.422 98.9404 100.128 101.123 99.8709 103.257C103.859 104.614 109.753 106.125 117.003 106.267C124.669 106.417 130.911 104.979 135.043 103.685C135.043 94.5596 135.037 85.4339 135.035 76.3082C135.404 76.7768 135.751 77.1945 136.064 77.556C136.064 77.556 136.5 78.0594 136.883 78.4664C137.586 79.2135 139.196 80.4747 141.392 81.8966C142.713 80.132 144.064 78.1826 145.404 76.0431C146.468 74.3454 147.418 72.6932 148.268 71.108C147.474 70.0316 146.273 68.3982 144.815 66.3899C142.911 63.7657 142.293 62.874 140.814 60.847C137.875 56.8197 136.388 54.7926 135.516 54.0455C132.342 51.3276 129.33 50.5859 128.464 50.3824C126.549 49.9352 125.813 50.1628 119.386 50.3021C114.492 50.4092 114.869 50.278 113.366 50.3717C103.778 50.9715 98.8278 54.7926 98.8278 54.7926C97.3007 55.7271 94.9285 57.4703 93.1312 60.4212C91.9491 62.3599 91.4998 64.0281 90.9542 66.0444C90.7483 66.8049 90.3792 68.3714 89.5795 76.2573C89.3255 78.7717 89.1971 80.0543 89.1784 81.2486C89.1329 84.3119 89.4779 86.8451 89.8069 88.5936H89.8095Z" fill="#A78ED7"/>
<path d="M106.862 51.1536C107.367 52.3559 108.67 54.9533 111.505 56.5466C112.288 56.9884 113.524 57.6632 115.23 57.6953C117.985 57.7435 119.911 56.0673 120.675 55.4005C122.847 53.5073 123.569 51.1643 123.81 50.1736C123.235 50.0424 122.43 49.9299 121.478 50.0076C120.833 50.0611 120.282 50.187 119.844 50.3235C119.737 50.5913 118.862 52.6505 116.634 53.2744C115.051 53.7189 113.743 53.17 113.462 53.0468C111.761 52.2917 111.117 50.7841 110.989 50.4654C110.486 50.4413 109.895 50.4521 109.237 50.5377C108.274 50.6636 107.472 50.9126 106.862 51.1536Z" fill="white"/>
<path d="M102.928 67.7207C102.612 72.6049 102.441 77.4945 102.476 82.3894C102.486 83.8166 102.51 85.2438 102.553 86.671C102.564 87.0566 103.166 87.0593 103.155 86.671C103.021 82.0145 103.056 77.3525 103.259 72.696C103.331 71.0358 103.425 69.3783 103.532 67.7207C103.556 67.3325 102.954 67.3351 102.93 67.7207H102.928Z" fill="#553597"/>
<path d="M129.282 68.3446C130.555 70.8858 132.104 73.2904 133.925 75.4754C134.717 76.426 135.578 77.315 136.458 78.1853C137.64 79.3581 138.83 80.5176 140.047 81.6529C141.133 82.6678 142.24 83.6612 143.361 84.6332C143.652 84.885 144.08 84.4619 143.786 84.2075C141.571 82.2876 139.442 80.2793 137.351 78.2228C135.575 76.4769 133.922 74.6641 132.502 72.6129C131.494 71.1562 130.595 69.6246 129.801 68.042C129.627 67.6966 129.108 67.9992 129.282 68.3473V68.3446Z" fill="#553597"/>
<path d="M139.431 79.9794C141.02 78.7022 142.336 76.9616 142.408 74.8489C142.44 73.9331 142.138 73.012 142.298 72.1016C142.416 71.4268 142.75 70.8082 143.208 70.3021C143.965 69.4613 144.976 68.9017 146 68.4518C146.353 68.2965 146.048 67.777 145.695 67.9323C144.154 68.6071 142.571 69.6086 141.921 71.2393C141.584 72.0855 141.654 72.9263 141.753 73.81C141.876 74.8891 141.758 75.9334 141.269 76.9161C140.742 77.9685 139.915 78.8253 139.006 79.5564C138.704 79.8 139.132 80.2231 139.431 79.9821V79.9794Z" fill="white"/>
<path d="M89.8499 78.9271C90.7913 78.3995 91.829 78.0059 92.9202 77.9765C94.0113 77.947 94.9421 78.3085 95.8487 78.8655C96.5441 79.2912 97.2261 79.709 98.0578 79.7786C98.681 79.8295 99.2988 79.6795 99.8604 79.4198C100.877 78.9512 101.7 78.1211 102.404 77.2722C102.65 76.975 102.225 76.5466 101.979 76.8465C101.016 78.0086 99.6277 79.3769 97.9696 79.1681C97.1485 79.0636 96.4852 78.5281 95.7872 78.1291C94.8886 77.6177 93.8963 77.3365 92.8587 77.374C91.6819 77.4195 90.5613 77.8345 89.545 78.4049C89.208 78.595 89.5102 79.1145 89.8499 78.9244V78.9271Z" fill="white"/>
<path d="M117.939 184.218C117.872 184.989 117.752 186.157 117.533 187.573C117.244 189.432 117.043 190.281 116.853 191.247C116.594 192.575 116.436 194.535 116.998 197.162C124.692 197.205 132.387 197.251 140.081 197.294C140.266 196.897 140.972 195.266 140.252 193.697C139.803 192.717 139.022 192.222 138.123 191.681C137.316 191.194 135.925 190.505 133.951 190.246C133.694 188.818 133.438 187.389 133.181 185.961C128.102 185.38 123.023 184.799 117.945 184.221L117.939 184.218Z" fill="white"/>
<path d="M117.64 184.218C117.477 186.06 117.215 187.892 116.859 189.705C116.591 191.073 116.311 192.409 116.316 193.815C116.321 194.969 116.471 196.115 116.706 197.243C116.733 197.371 116.87 197.462 116.995 197.465C122.999 197.5 129.004 197.532 135.008 197.567C136.698 197.577 138.388 197.585 140.079 197.596C140.178 197.596 140.295 197.54 140.338 197.446C141.167 195.649 141.044 193.491 139.418 192.19C137.886 190.963 135.957 190.222 134.026 189.954L134.238 190.165C133.981 188.738 133.724 187.308 133.467 185.881C133.443 185.742 133.302 185.675 133.178 185.659C128.1 185.078 123.021 184.497 117.942 183.918C117.557 183.875 117.562 184.478 117.942 184.521C123.021 185.102 128.1 185.683 133.178 186.261L132.89 186.039C133.146 187.466 133.403 188.896 133.66 190.323C133.676 190.414 133.778 190.521 133.871 190.535C135.636 190.779 137.281 191.413 138.744 192.431C139.581 193.014 140.162 193.828 140.255 194.867C140.325 195.641 140.148 196.442 139.822 197.144L140.081 196.994C134.077 196.959 128.073 196.927 122.069 196.892C120.379 196.881 118.688 196.873 116.998 196.862L117.287 197.085C116.92 195.333 116.784 193.513 117.07 191.74C117.319 190.206 117.675 188.693 117.899 187.153C118.041 186.178 118.156 185.201 118.242 184.221C118.276 183.835 117.675 183.838 117.64 184.221V184.218Z" fill="#553597"/>
<path d="M117.798 188.047C119.071 187.967 120.365 188.221 121.422 188.971C122.243 189.555 122.807 190.425 123.647 190.987C124.417 191.502 125.251 191.673 126.166 191.657C127.316 191.638 128.471 191.499 129.611 191.354C131.098 191.164 132.571 190.888 134.029 190.535C134.406 190.444 134.246 189.863 133.869 189.954C131.448 190.54 128.95 190.936 126.46 191.046C125.543 191.086 124.733 190.99 123.952 190.468C123.128 189.916 122.569 189.059 121.764 188.478C120.627 187.656 119.18 187.359 117.798 187.445C117.413 187.469 117.41 188.071 117.798 188.047Z" fill="#553597"/>
<path d="M116.594 195.481L140.565 195.727C140.565 195.727 140.584 196.889 139.859 197.293C139.359 197.575 138.739 197.35 138.575 197.293C137.778 197.018 137.428 197.296 128.338 197.293C125.762 197.293 121.986 197.269 116.992 197.162C116.859 196.6 116.725 196.04 116.591 195.478L116.594 195.481Z" fill="#553597"/>
<path d="M134.275 193.18C134.444 192.637 134.732 192.133 135.123 191.718C135.211 191.625 135.302 191.536 135.396 191.453C135.441 191.413 135.484 191.376 135.529 191.338C135.553 191.319 135.577 191.298 135.602 191.279C135.569 191.303 135.612 191.271 135.623 191.263C135.775 191.151 135.931 191.049 136.094 190.955C136.431 190.762 136.128 190.243 135.789 190.436C134.791 191.006 134.032 191.919 133.689 193.022C133.574 193.395 134.155 193.553 134.27 193.183L134.275 193.18Z" fill="#553597"/>
<path d="M136.107 193.51C136.31 193.06 136.57 192.672 136.904 192.326C137.048 192.179 137.201 192.04 137.364 191.911C137.391 191.89 137.332 191.935 137.377 191.9C137.399 191.884 137.42 191.868 137.439 191.855C137.474 191.831 137.506 191.807 137.54 191.783C137.61 191.734 137.679 191.689 137.752 191.646C137.891 191.56 137.944 191.376 137.859 191.234C137.773 191.092 137.586 191.041 137.447 191.127C136.642 191.625 135.979 192.342 135.588 193.207C135.521 193.354 135.545 193.531 135.695 193.62C135.823 193.695 136.04 193.66 136.107 193.512V193.51Z" fill="#553597"/>
<path d="M91.6467 184.751C91.5799 185.522 91.4595 186.69 91.2402 188.106C90.9514 189.965 90.7508 190.813 90.5609 191.78C90.3015 193.108 90.1437 195.068 90.7053 197.695C98.3998 197.738 106.094 197.784 113.789 197.826C113.973 197.43 114.679 195.799 113.96 194.23C113.51 193.25 112.73 192.755 111.831 192.214C111.023 191.727 109.633 191.038 107.659 190.779C107.402 189.351 107.145 187.922 106.889 186.494C101.81 185.913 96.7309 185.332 91.6521 184.754L91.6467 184.751Z" fill="white"/>
<path d="M91.3474 184.751C91.1842 186.593 90.9221 188.425 90.5664 190.238C90.299 191.606 90.0182 192.942 90.0235 194.348C90.0289 195.502 90.1786 196.648 90.414 197.776C90.4407 197.904 90.5771 197.995 90.7028 197.998C96.707 198.033 102.711 198.065 108.715 198.1C110.406 198.11 112.096 198.118 113.786 198.129C113.885 198.129 114.003 198.073 114.046 197.979C114.875 196.182 114.752 194.024 113.126 192.723C111.593 191.496 109.665 190.755 107.734 190.487L107.945 190.698C107.688 189.271 107.432 187.841 107.175 186.414C107.151 186.275 107.009 186.208 106.886 186.192C101.807 185.611 96.7284 185.03 91.6496 184.451C91.2645 184.408 91.2698 185.011 91.6496 185.054C96.7284 185.635 101.807 186.216 106.886 186.794L106.597 186.572C106.854 187.999 107.111 189.429 107.367 190.856C107.383 190.947 107.485 191.054 107.579 191.068C109.344 191.312 110.989 191.946 112.452 192.964C113.289 193.547 113.869 194.361 113.963 195.4C114.032 196.174 113.856 196.975 113.529 197.676L113.789 197.527C107.785 197.492 101.78 197.46 95.7763 197.425C94.086 197.414 92.3958 197.406 90.7055 197.395L90.9943 197.618C90.6279 195.866 90.4915 194.045 90.7777 192.273C91.0264 190.738 91.3821 189.226 91.6068 187.686C91.7485 186.711 91.8635 185.734 91.9491 184.754C91.9839 184.368 91.3821 184.371 91.3474 184.754V184.751Z" fill="#553597"/>
<path d="M91.5052 188.58C92.7782 188.5 94.0727 188.754 95.1291 189.504C95.9501 190.088 96.5145 190.958 97.3542 191.52C98.1245 192.034 98.9589 192.206 99.8736 192.19C101.024 192.171 102.179 192.032 103.318 191.887C104.805 191.697 106.279 191.421 107.737 191.068C108.114 190.977 107.953 190.396 107.576 190.487C105.156 191.073 102.658 191.469 100.168 191.579C99.2504 191.619 98.4401 191.523 97.6591 191.001C96.8354 190.449 96.2764 189.592 95.4714 189.011C94.3348 188.189 92.8879 187.892 91.5052 187.978C91.1201 188.002 91.1174 188.604 91.5052 188.58Z" fill="#553597"/>
<path d="M90.3044 196.011L114.276 196.257C114.276 196.257 114.294 197.419 113.57 197.824C113.069 198.105 112.449 197.88 112.286 197.824C111.489 197.548 111.139 197.826 102.048 197.824C99.4725 197.824 95.6962 197.8 90.7029 197.693C90.5692 197.13 90.4355 196.571 90.3018 196.008L90.3044 196.011Z" fill="#553597"/>
<path d="M107.983 193.711C108.151 193.167 108.44 192.664 108.83 192.249C108.919 192.155 109.01 192.067 109.103 191.984C109.149 191.943 109.191 191.906 109.237 191.868C109.261 191.85 109.285 191.828 109.309 191.81C109.277 191.834 109.32 191.801 109.33 191.793C109.483 191.681 109.638 191.579 109.801 191.486C110.138 191.293 109.836 190.773 109.496 190.966C108.499 191.536 107.739 192.449 107.397 193.553C107.282 193.925 107.862 194.083 107.977 193.713L107.983 193.711Z" fill="#553597"/>
<path d="M109.814 194.043C110.018 193.593 110.277 193.205 110.611 192.859C110.756 192.712 110.908 192.573 111.071 192.444C111.098 192.423 111.039 192.468 111.085 192.433C111.106 192.417 111.128 192.401 111.146 192.388C111.181 192.364 111.213 192.34 111.248 192.316C111.317 192.267 111.387 192.222 111.459 192.179C111.598 192.093 111.652 191.909 111.566 191.767C111.481 191.625 111.293 191.574 111.154 191.66C110.349 192.158 109.686 192.875 109.296 193.74C109.229 193.887 109.253 194.064 109.403 194.152C109.531 194.227 109.748 194.193 109.814 194.045V194.043Z" fill="#553597"/>
<path d="M99.9937 102.298C98.1483 117.8 96.434 133.314 94.856 148.843C93.6445 160.751 92.5132 172.664 91.4595 184.585C91.9115 185.396 92.3661 186.21 92.8181 187.022C94.3185 187.742 96.2735 188.473 98.6297 188.864C102.189 189.456 105.241 189.041 107.356 188.527C108.354 188.283 109.087 187.434 109.191 186.414C111.489 163.72 113.786 141.029 116.081 118.335C117.035 118.383 116.632 118.362 117.586 118.41C117.605 140.338 117.624 162.266 117.645 184.194C117.645 185.236 118.311 186.16 119.298 186.494C121.018 187.078 123.245 187.624 125.877 187.777C128.779 187.946 131.272 187.579 133.17 187.121C133.17 187.121 134.318 186.299 135.026 184.759C137.409 179.599 135.363 113.547 135.051 103.683C123.366 103.219 111.681 102.759 99.9964 102.296L99.9937 102.298Z" fill="#553597"/>
<path d="M140.822 82.1243C142.975 84.1379 147.249 87.5119 151.175 86.3872C154.256 85.5062 156.059 81.6423 159.375 73.8822C161.555 68.7811 161.884 67.0245 163.978 62.0493C165.858 57.5855 167.669 54.075 168.883 51.8445C169.597 50.1361 170.188 49.2578 171.143 47.3753C171.659 46.3551 171.862 45.8705 171.736 45.284C171.659 44.9225 171.432 44.4111 171.105 44.3763C170.57 44.3201 169.998 45.5786 169.995 45.5759C169.993 45.5759 170.934 44.3736 170.988 43.0615C171.012 42.451 170.835 42.1645 170.68 42.0145C170.632 41.969 170.458 41.7976 170.196 41.7655C169.816 41.7173 169.415 41.9717 169.18 42.4055C169.455 41.7655 169.501 41.238 169.501 40.9247C169.501 40.5177 169.431 40.3195 169.327 40.1696C169.292 40.1214 169.073 39.8027 168.744 39.784C168.447 39.7679 168.23 40.0035 167.909 40.365C167.706 40.5927 167.439 40.9381 167.198 41.4174C167.059 41.1148 166.732 40.507 166.262 40.4748C165.708 40.44 165.259 41.2112 164.949 41.7789C164.376 42.8205 163.496 44.5825 162.496 47.2709C162.37 46.6229 162.076 45.7446 161.362 45.0056C161.129 44.7672 160.201 43.8033 159.522 44.0898C159.268 44.1969 159.07 44.47 159.03 44.7244C158.974 45.0886 159.231 45.4983 159.463 45.8678C159.469 45.8731 159.471 45.8785 159.471 45.8812C159.827 46.4408 160.295 47.5039 160.79 49.7076C160.504 50.3637 160.196 51.0331 159.867 51.7159C159.297 52.9022 158.712 54.0161 158.126 55.0631C158.126 55.0631 157.901 55.4648 157.663 55.8718C155.847 58.994 154.275 61.5164 153.098 63.3534C153.098 63.3534 152.531 64.237 151.967 65.0966C148.963 69.6808 145.064 75.0229 143.328 77.374" fill="white"/>
<path d="M140.611 82.3358C142.101 83.7256 143.745 85.0109 145.588 85.8945C147.431 86.7782 149.613 87.2977 151.592 86.5666C152.785 86.1275 153.726 85.2572 154.494 84.2638C155.604 82.8285 156.425 81.1817 157.198 79.5483C158.316 77.1892 159.348 74.7819 160.335 72.364C161.129 70.4199 161.83 68.4411 162.558 66.4729C164.232 61.9369 166.224 57.5186 168.479 53.2423C168.677 52.8674 168.877 52.4925 169.078 52.1203C169.332 51.6544 169.514 51.1456 169.752 50.6663C170.268 49.6247 170.848 48.6205 171.375 47.5842C171.808 46.73 172.301 45.8357 171.926 44.869C171.774 44.4781 171.48 44.0309 171.003 44.0791C170.621 44.1166 170.343 44.454 170.134 44.7432C169.979 44.9574 169.864 45.1903 169.736 45.4233C169.549 45.7661 170.043 46.0499 170.255 45.7286C170.851 44.8208 171.413 43.7658 171.268 42.6385C171.209 42.1699 170.971 41.7468 170.527 41.5486C169.878 41.2594 169.244 41.6959 168.92 42.2502L169.471 42.4832C169.803 41.6798 170.108 40.3785 169.332 39.7251C168.334 38.8816 167.331 40.507 166.941 41.2648H167.46C167.158 40.6195 166.532 39.8697 165.751 40.3035C165.109 40.6596 164.761 41.4763 164.435 42.1002C163.574 43.739 162.854 45.4528 162.207 47.1879H162.788C162.611 46.3123 162.229 45.4876 161.616 44.8342C161.194 44.3817 160.648 43.8756 160.019 43.7578C159.156 43.5971 158.522 44.4727 158.811 45.268C159.017 45.8384 159.418 46.3257 159.65 46.8907C160.033 47.8225 160.282 48.808 160.504 49.788L160.533 49.555C158.629 53.8956 156.155 57.9497 153.635 61.9529C151.386 65.5277 148.998 69.0114 146.543 72.447C145.398 74.0482 144.243 75.6388 143.077 77.2214C142.847 77.5347 143.368 77.8346 143.596 77.5266C146.957 72.9638 150.255 68.3474 153.317 63.573C154.887 61.1282 156.398 58.6459 157.858 56.1369C158.669 54.7445 159.431 53.3199 160.129 51.8659C160.319 51.4723 160.504 51.0733 160.685 50.677C160.851 50.3102 161.14 49.9058 161.052 49.4988C160.897 48.7785 160.701 48.0582 160.463 47.3593C160.3 46.8773 160.113 46.3926 159.864 45.9455C159.733 45.7098 159.57 45.4902 159.452 45.2466C159.289 44.9119 159.289 44.3469 159.797 44.3361C160.306 44.3254 160.822 44.8717 161.151 45.2144C161.715 45.8062 162.047 46.5479 162.207 47.3459C162.271 47.6646 162.694 47.5976 162.788 47.3459C163.36 45.8089 163.994 44.2933 164.735 42.8313C164.999 42.3064 165.261 41.7575 165.604 41.2782C165.77 41.0479 166.048 40.6703 166.371 40.8123C166.652 40.9354 166.821 41.3076 166.944 41.5674C167.04 41.7709 167.364 41.7575 167.462 41.5674C167.658 41.1898 167.888 40.8444 168.169 40.5284C168.425 40.2419 168.725 39.8777 169.051 40.2901C169.452 40.7989 169.105 41.811 168.893 42.3225C168.762 42.6438 169.276 42.842 169.444 42.5555C169.664 42.1806 170.142 41.8405 170.503 42.2582C170.779 42.5796 170.712 43.1258 170.637 43.5034C170.493 44.221 170.137 44.8235 169.741 45.4233L170.26 45.7286C170.38 45.509 170.49 45.2841 170.637 45.0779C170.723 44.9574 170.84 44.7806 170.979 44.7164C171.172 44.628 171.271 44.8529 171.346 45.019C171.755 45.9401 171.044 46.9389 170.634 47.7262C170.145 48.666 169.618 49.5845 169.155 50.5378C168.941 50.9796 168.768 51.4482 168.532 51.8793C168.342 52.2301 168.152 52.5836 167.968 52.937C165.818 57.0125 163.903 61.2219 162.277 65.5357C161.603 67.3191 160.98 69.1212 160.287 70.8966C159.367 73.2503 158.361 75.5719 157.321 77.8747C156.545 79.5911 155.743 81.3183 154.724 82.9062C154.05 83.9585 153.242 85.0028 152.148 85.6455C150.656 86.5238 148.821 86.4274 147.222 85.9052C145.264 85.2653 143.51 84.0496 141.956 82.7214C141.646 82.4563 141.344 82.1859 141.047 81.9074C140.75 81.6289 140.338 82.068 140.622 82.3331L140.611 82.3358Z" fill="#553597"/>
<path d="M164.657 47.6565C165.7 45.6509 166.644 43.5944 167.486 41.4977C167.631 41.1389 167.05 40.9809 166.906 41.337C166.082 43.3855 165.157 45.3938 164.135 47.3539C163.956 47.6966 164.475 48.0019 164.654 47.6592L164.657 47.6565Z" fill="#553597"/>
<path d="M166.462 48.5616C167.516 46.5907 168.508 44.5878 169.439 42.5554C169.599 42.2046 169.08 41.8994 168.92 42.2501C167.992 44.2825 166.997 46.2855 165.943 48.2563C165.761 48.599 166.28 48.9016 166.462 48.5616Z" fill="#553597"/>
<path d="M168.276 49.3675C168.974 48.0233 169.709 46.7032 170.487 45.4018C170.688 45.0671 170.167 44.7645 169.969 45.0966C169.193 46.3953 168.455 47.7181 167.757 49.0623C167.578 49.405 168.096 49.7103 168.276 49.3675Z" fill="#553597"/>
<path d="M163.542 53.4994C163.608 51.1376 163.293 48.7758 162.605 46.5158C162.493 46.1463 161.913 46.3043 162.025 46.6765C162.699 48.8883 163.007 51.1885 162.94 53.4994C162.929 53.8876 163.531 53.8876 163.542 53.4994Z" fill="#553597"/>
<path d="M112.112 43.1847C111.938 45.6402 111.764 48.0956 111.588 50.5511C112.257 52.206 113.757 53.3708 115.485 53.5636C117.442 53.7831 119.376 52.7201 120.299 50.8966C120.144 48.6446 119.988 46.3953 119.833 44.1433C117.258 43.8247 114.685 43.506 112.109 43.1874L112.112 43.1847Z" fill="white"/>
<path d="M111.812 43.1847C111.668 45.201 111.526 47.2174 111.382 49.2337C111.366 49.4533 111.35 49.6729 111.336 49.8924C111.323 50.112 111.251 50.4066 111.302 50.6288C111.379 50.9769 111.641 51.3598 111.839 51.6463C112.238 52.2274 112.746 52.7281 113.34 53.1084C114.551 53.8849 116.078 54.0965 117.453 53.6707C118.14 53.4592 118.771 53.103 119.317 52.6344C119.582 52.4068 119.82 52.1524 120.031 51.8766C120.232 51.6196 120.545 51.2607 120.598 50.9314C120.638 50.6743 120.566 50.3584 120.55 50.0959C120.534 49.8335 120.512 49.5657 120.496 49.3006C120.456 48.7276 120.416 48.1519 120.379 47.5789C120.298 46.4301 120.221 45.2841 120.141 44.1353C120.127 43.9586 120.012 43.8541 119.841 43.8354C117.266 43.5168 114.693 43.1981 112.117 42.8795C111.735 42.8313 111.738 43.4337 112.117 43.4819C114.693 43.8006 117.266 44.1192 119.841 44.4379L119.542 44.138C119.667 45.9481 119.79 47.7583 119.916 49.5684C119.932 49.788 119.945 50.0102 119.961 50.2298C119.975 50.4092 120.036 50.6502 120.002 50.8296C119.975 50.9662 119.825 51.1376 119.748 51.2554C119.635 51.4241 119.512 51.5848 119.378 51.7374C118.94 52.2328 118.405 52.6317 117.801 52.9022C116.584 53.4511 115.153 53.4083 113.976 52.779C113.393 52.4684 112.877 52.0293 112.478 51.4991C112.288 51.2474 112.096 50.9608 111.978 50.6663C111.82 50.2727 111.959 49.7157 111.989 49.298C112.133 47.2602 112.278 45.2198 112.422 43.182C112.449 42.7964 111.847 42.7964 111.82 43.182L111.812 43.1847Z" fill="#553597"/>
<path d="M112.069 43.7926C111.63 43.2196 111.104 42.4109 110.67 41.3719C110.285 40.4428 110.085 39.5966 109.978 38.9325C108.841 38.2926 108.282 37.4892 108.036 37.0662C107.531 36.2039 106.921 34.5277 107.608 33.8797C107.892 33.6119 108.29 33.6172 108.638 33.6226C109.996 33.6413 110.898 34.9507 110.981 35.0793C110.981 35.0793 110.007 31.0654 109.978 28.4251C114.867 25.4984 119.913 25.0994 122.358 27.421C123.93 28.9125 123.981 31.1109 124.08 35.1757C124.158 38.4398 124.294 44.1193 121.216 45.6751C120.368 46.1035 118.886 46.2347 117.549 46.0767C116.64 45.9696 115.907 45.7259 115.415 45.5224" fill="white"/>
<path d="M112.329 43.6426C111.615 42.7 111.048 41.6531 110.676 40.5284C110.499 39.9929 110.424 39.4386 110.275 38.8977C110.202 38.6353 109.892 38.5389 109.684 38.3969C109.443 38.2309 109.216 38.0408 109.007 37.8346C108.419 37.2482 108.009 36.5091 107.769 35.7165C107.643 35.3068 107.512 34.8007 107.651 34.375C107.825 33.8475 108.515 33.8689 108.967 33.9626C109.678 34.1072 110.323 34.6374 110.721 35.2345C110.909 35.5157 111.352 35.3443 111.272 35.0016C110.753 32.8647 110.312 30.6315 110.28 28.4277L110.13 28.6875C112.687 27.1665 115.733 25.991 118.758 26.2588C119.879 26.3579 121.031 26.7033 121.914 27.4316C122.62 28.0127 123.067 28.7839 123.313 29.6595C123.626 30.7788 123.676 31.965 123.722 33.1191C123.77 34.3589 123.802 35.6041 123.807 36.8465C123.818 39.0423 123.775 41.4817 122.805 43.5007C122.302 44.545 121.518 45.3724 120.368 45.6589C118.774 46.0526 117.001 45.8464 115.493 45.2359C115.134 45.0913 114.976 45.6723 115.332 45.8169C116.774 46.398 118.378 46.5774 119.916 46.3552C121.104 46.1838 122.08 45.6589 122.797 44.6896C123.476 43.7711 123.834 42.6304 124.054 41.5218C124.289 40.3222 124.377 39.0931 124.401 37.8721C124.425 36.6511 124.388 35.3604 124.353 34.1045C124.316 32.771 124.289 31.4188 124.035 30.1067C123.845 29.1293 123.476 28.1921 122.802 27.4477C122.042 26.6096 120.986 26.0847 119.892 25.8357C116.458 25.0484 112.746 26.4355 109.828 28.1707C109.737 28.2242 109.678 28.3233 109.678 28.4304C109.71 30.6877 110.162 32.9772 110.692 35.1649L111.243 34.932C110.539 33.8769 109.229 33.0442 107.924 33.3869C106.215 33.8341 107.253 36.3806 107.844 37.3312C108.333 38.1185 109.031 38.7397 109.831 39.2003L109.692 39.0208C109.986 40.8096 110.716 42.5099 111.812 43.9532C112.043 44.2585 112.567 43.9586 112.331 43.648L112.329 43.6426Z" fill="#553597"/>
<path d="M109.871 33.7082C109.943 33.0361 110.178 31.6678 111.133 30.2753C112.037 28.9579 113.126 28.2885 113.535 28.0555C115.024 27.2067 116.423 27.1504 117.351 27.1156C120.443 27.0005 122.853 28.3099 123.968 29.0222C124.163 28.5562 125.701 24.7324 123.679 21.9824C123.032 21.1014 122.302 20.6114 121.604 20.2954C116.664 18.0649 113.182 19.2244 111.47 21.8887C110.085 24.0496 108.927 25.3269 108.001 26.1811C106.463 27.6003 105.947 27.9056 105.624 28.3661C105.624 28.3661 105.471 28.6205 105.354 28.8856C104.45 30.9019 106.907 35.4568 107.033 35.687C106.974 35.031 107.103 34.541 107.204 34.2518C107.298 33.9867 107.367 33.7992 107.549 33.6198C108.02 33.1539 108.745 33.2557 108.897 33.2744C109.363 33.3387 109.694 33.5609 109.871 33.7055V33.7082Z" fill="#A78ED7"/>
<path d="M112.176 29.0088C112.406 29.5738 112.684 30.4735 112.657 31.5901C112.606 33.7457 111.459 35.2292 111.045 35.7165C110.876 35.3952 110.684 35.0578 110.472 34.7123C110.224 34.3107 109.975 33.9412 109.731 33.6038C109.796 33.186 109.9 32.7228 110.068 32.2328C110.606 30.6797 111.531 29.6193 112.179 29.0061L112.176 29.0088Z" fill="#553597"/>
<path d="M116.974 29.4614C117.022 29.6247 117.143 30.0023 117.226 30.4735C117.295 30.8565 117.292 31.0412 117.367 31.2233C117.367 31.2233 117.407 31.309 117.453 31.384C117.777 31.8954 120.7 31.6625 121.526 31.6196C122.35 31.5768 123.489 31.6009 124.877 31.8927C124.883 31.3974 124.826 30.1469 123.965 29.0249C123.216 28.0475 122.262 27.6887 121.457 27.3995C119.234 26.5989 117.151 26.9389 115.998 27.2388C116.18 27.5682 116.699 28.5295 116.974 29.464V29.4614Z" fill="#553597"/>
<path d="M114.043 32.3292C114.404 31.7856 114.907 31.1456 115.912 31.143C116.915 31.1403 117.595 31.7106 117.001 31.7267C116.407 31.7454 115.447 31.6437 114.474 32.5809C113.503 33.5181 114.043 32.3292 114.043 32.3292Z" fill="#553597"/>
<path d="M119.034 30.9796C119.601 30.661 120.341 30.3182 121.237 30.7708C122.133 31.2233 122.481 32.04 121.943 31.7856C121.406 31.5313 120.596 31.0037 119.306 31.3974C118.015 31.791 119.036 30.977 119.036 30.977L119.034 30.9796Z" fill="#553597"/>
<path d="M119.314 37.1411C119.549 38.6005 119.41 38.7504 119.344 38.7986C119.039 39.0316 118.351 38.5683 118.282 38.7156C118.252 38.7772 118.351 38.8897 118.389 38.9325C118.715 39.3101 119.413 39.5564 119.753 39.2967C120.103 39.0289 119.948 38.3032 119.75 37.125C119.496 35.6148 118.969 34.2706 118.892 34.3C118.873 34.3081 118.884 34.4045 118.913 34.6053C119.06 35.6416 119.25 36.7528 119.311 37.1411H119.314Z" fill="#553597"/>
<path d="M116.685 35.1409C116.96 35.1409 117.183 34.9179 117.183 34.6428C117.183 34.3678 116.96 34.1448 116.685 34.1448C116.411 34.1448 116.188 34.3678 116.188 34.6428C116.188 34.9179 116.411 35.1409 116.685 35.1409Z" fill="#553597"/>
<path d="M121.352 34.4018C121.627 34.4018 121.85 34.1788 121.85 33.9037C121.85 33.6286 121.627 33.4056 121.352 33.4056C121.078 33.4056 120.855 33.6286 120.855 33.9037C120.855 34.1788 121.078 34.4018 121.352 34.4018Z" fill="#553597"/>
<path d="M118.167 41.5058C118.218 41.4362 118.223 41.329 118.183 41.2541C118.092 41.08 117.793 41.163 117.389 41.0613C116.99 40.9595 116.718 40.7319 116.637 40.6623C116.217 40.3035 116.151 39.8938 115.95 39.9206C115.856 39.9313 115.787 40.033 115.76 40.108C115.661 40.3945 116.049 40.756 116.196 40.8899C116.875 41.5165 117.956 41.795 118.167 41.5058Z" fill="#553597"/>
<path d="M128.142 70.8778C128.396 78.6432 128.65 86.4086 128.902 94.1741C133.237 93.36 137.575 92.5487 141.91 91.7346C141.595 83.988 141.279 76.2413 140.964 68.4946C136.69 69.2899 132.413 70.0825 128.14 70.8778H128.142Z" fill="white"/>
<path d="M127.84 70.8778C128.038 76.9348 128.236 82.9918 128.434 89.0488C128.49 90.7572 128.546 92.4656 128.603 94.174C128.611 94.3829 128.79 94.5007 128.982 94.4632C133.318 93.6492 137.656 92.8378 141.991 92.0238C142.114 91.9997 142.216 91.8578 142.213 91.7346C141.967 85.7017 141.721 79.6688 141.477 73.6385C141.408 71.9248 141.338 70.211 141.269 68.4973C141.261 68.2884 141.084 68.1706 140.889 68.2081C136.615 69.0034 132.339 69.796 128.065 70.5913C127.685 70.6609 127.846 71.2419 128.225 71.1723C132.499 70.377 136.776 69.5844 141.05 68.7891L140.67 68.4999C140.916 74.5329 141.162 80.5658 141.405 86.5961C141.475 88.3098 141.544 90.0235 141.614 91.7373L141.836 91.4481C137.5 92.2621 133.163 93.0735 128.827 93.8875L129.207 94.1767C129.009 88.1197 128.811 82.0627 128.613 76.0056C128.557 74.2972 128.501 72.5888 128.445 70.8805C128.431 70.4949 127.83 70.4922 127.843 70.8805L127.84 70.8778Z" fill="#553597"/>
<path d="M89.4887 86.355C89.1838 89.2898 89.0769 94.7363 92.3397 97.1945C94.9018 99.1224 99.066 98.2308 107.247 96.1957C112.626 94.8568 114.222 94.0615 119.448 92.7307C124.139 91.5391 128.025 90.867 130.536 90.4868C132.328 90.0262 133.385 89.97 135.46 89.5924C136.586 89.3889 137.094 89.2577 137.482 88.8025C137.723 88.5213 137.993 88.0313 137.824 87.7501C137.546 87.2896 136.198 87.5895 136.198 87.5868C136.198 87.5841 137.723 87.6109 138.801 86.8611C139.301 86.513 139.424 86.197 139.45 85.9828C139.458 85.9186 139.488 85.6749 139.357 85.4446C139.167 85.1126 138.72 84.9439 138.234 85.0188C138.907 84.8528 139.357 84.569 139.608 84.3815C139.934 84.1379 140.047 83.9611 140.106 83.7871C140.124 83.7309 140.245 83.3613 140.06 83.0882C139.894 82.8418 139.576 82.8124 139.095 82.7722C138.792 82.7481 138.357 82.7428 137.827 82.8392C137.982 82.5473 138.271 81.918 138.012 81.5217C137.693 81.0371 136.728 81.1763 136.182 81.2593C133.457 81.677 130.127 82.3625 128.862 82.6276C128.862 81.5753 128.817 80.6997 128.774 80.0543C128.672 78.5682 128.544 78.0059 128.164 77.8479C127.926 77.7488 127.683 77.8479 127.627 77.872C127.474 77.9362 127.003 78.188 126.768 79.9365C126.677 80.6167 126.608 81.6208 126.779 82.8579C126.263 82.9757 125.738 83.0909 125.201 83.198C123.917 83.455 122.679 83.6639 121.483 83.8273C121.483 83.8273 121.026 83.8888 120.561 83.9451C116.977 84.3789 114.022 84.6466 111.847 84.8153C110.697 84.8876 109.847 84.9599 109.777 84.9653C109.189 85.0081 107.335 85.1099 102.818 85.3" fill="white"/>
<path d="M89.1891 86.355C89.0045 88.1437 88.9778 89.9539 89.2399 91.7346C89.5207 93.6411 90.1893 95.6066 91.6121 96.9669C93.947 99.2028 97.5013 98.6217 100.382 98.0808C105.153 97.1838 109.847 95.8636 114.484 94.4418C119.245 92.9824 124.104 91.8444 129.017 91.0303C129.456 90.958 129.894 90.8884 130.336 90.8188C130.847 90.7411 131.344 90.5965 131.852 90.4948C133.032 90.2618 134.227 90.1172 135.412 89.9057C136.337 89.7397 137.316 89.6058 137.883 88.773C138.129 88.4115 138.348 87.8465 137.993 87.4797C137.723 87.2012 137.271 87.1824 136.91 87.1985C136.642 87.2092 136.385 87.2601 136.121 87.3003C135.786 87.3485 135.864 87.9161 136.201 87.892C137.23 87.8197 138.276 87.6644 139.116 87.003C139.533 86.6763 139.838 86.2051 139.742 85.6561C139.619 84.9412 138.891 84.644 138.233 84.7216L138.314 85.3134C139.175 85.0885 140.443 84.5342 140.461 83.4818C140.485 82.1938 138.562 82.4134 137.747 82.5553L138.086 82.9971C138.29 82.6089 138.487 82.1403 138.394 81.6904C138.3 81.2406 137.958 81.0076 137.546 80.9246C137.134 80.8416 136.672 80.8924 136.241 80.954C135.701 81.0317 135.163 81.1227 134.628 81.2138C132.673 81.5485 130.726 81.9341 128.782 82.3411L129.162 82.6303C129.159 81.5967 129.124 80.5604 129.031 79.5295C128.98 78.9645 128.969 78.1558 128.522 77.7327C128.169 77.398 127.573 77.4623 127.231 77.7809C126.792 78.1879 126.642 78.8868 126.541 79.4465C126.335 80.5765 126.327 81.7279 126.476 82.8633L126.698 82.5741C122.762 83.4738 118.747 83.9022 114.73 84.2744C112.556 84.4753 110.379 84.652 108.197 84.7618C106.405 84.8528 104.61 84.9305 102.818 85.0054C102.433 85.0215 102.43 85.624 102.818 85.6079C105.142 85.5089 107.477 85.4499 109.796 85.2705C113.238 85.0081 116.672 84.7136 120.101 84.3066C122.371 84.0361 124.626 83.6639 126.859 83.1525C126.974 83.1257 127.097 82.9864 127.081 82.8633C126.936 81.7654 126.928 80.6407 127.134 79.5509C127.217 79.1091 127.378 78.354 127.728 78.1612C127.811 78.1156 127.626 78.1879 127.752 78.1505C127.859 78.1183 127.971 78.0835 128.078 78.1424C128.129 78.1692 128.164 78.2254 128.199 78.287C128.354 78.5682 128.378 78.9591 128.41 79.2724C128.53 80.3864 128.563 81.511 128.565 82.6303C128.565 82.8365 128.755 82.9597 128.945 82.9195C130.555 82.5821 132.168 82.2608 133.788 81.9689C134.719 81.8002 135.655 81.6101 136.597 81.5083C136.912 81.4735 137.386 81.4039 137.666 81.5994C138.009 81.8377 137.717 82.4107 137.573 82.6919C137.444 82.9382 137.656 83.1792 137.912 83.1337C138.343 83.0587 138.774 83.048 139.207 83.0855C139.563 83.1176 139.948 83.1498 139.849 83.613C139.712 84.2503 138.693 84.5904 138.161 84.7323C137.843 84.8153 137.896 85.3643 138.241 85.3241C138.68 85.2732 139.287 85.4285 139.148 86.0042C139.041 86.4461 138.512 86.7272 138.132 86.8986C137.514 87.1744 136.867 87.244 136.203 87.2895L136.284 87.8813C136.53 87.8465 136.768 87.801 137.017 87.7983C137.153 87.7983 137.394 87.7796 137.511 87.8653C137.682 87.9911 137.482 88.291 137.394 88.4276C136.877 89.2229 135.666 89.255 134.826 89.3996C133.751 89.5817 132.668 89.7156 131.598 89.9325C131.111 90.0315 130.633 90.1681 130.143 90.2431C129.715 90.31 129.287 90.377 128.862 90.4466C124.184 91.2205 119.55 92.2808 115.011 93.6492C113.069 94.2356 111.136 94.8515 109.175 95.3817C106.685 96.0538 104.174 96.6696 101.652 97.2079C99.8896 97.5854 98.087 97.9416 96.2764 97.9576C95.0836 97.9683 93.8587 97.805 92.829 97.1597C91.3099 96.2064 90.4755 94.4926 90.0636 92.803C89.6518 91.1133 89.5902 89.2148 89.7053 87.4234C89.7293 87.0646 89.7587 86.7085 89.7962 86.3523C89.8363 85.9667 89.2345 85.9694 89.1944 86.3523L89.1891 86.355Z" fill="#553597"/>
<path d="M131.365 84.5771C133.566 84.2049 135.749 83.7255 137.904 83.1391C138.279 83.0374 138.118 82.4563 137.744 82.558C135.588 83.1445 133.406 83.6238 131.205 83.996C130.825 84.0603 130.985 84.6413 131.365 84.5771Z" fill="#553597"/>
<path d="M131.735 86.5639C133.941 86.2158 136.134 85.8008 138.314 85.3161C138.691 85.2331 138.53 84.652 138.153 84.735C135.974 85.2197 133.778 85.6347 131.574 85.9828C131.192 86.0418 131.355 86.6228 131.735 86.5639Z" fill="#553597"/>
<path d="M132.186 88.5C133.649 88.2509 135.12 88.0448 136.599 87.8841C136.979 87.8412 136.984 87.2388 136.599 87.2816C135.069 87.4476 133.545 87.6618 132.028 87.9189C131.649 87.9832 131.809 88.5642 132.189 88.5H132.186Z" fill="#553597"/>
</g>
<rect x="-0.689308" y="0.157651" width="466.597" height="149.371" rx="74.6857" transform="matrix(-0.84696 -0.531657 -0.531657 0.84696 119.793 87.0029)" stroke="#EDE3FF"/>
<rect x="-0.424102" y="0.565807" width="297.44" height="95.938" rx="47.969" transform="matrix(-0.989909 0.141705 0.141705 0.989909 505.184 -102.934)" stroke="#EDE3FF"/>
<rect x="-0.424102" y="0.565807" width="297.44" height="95.938" rx="47.969" transform="matrix(-0.989909 0.141705 0.141705 0.989909 541.504 100.066)" stroke="#EDE3FF"/>
</g>
<defs>
<clipPath id="clip0_2191_2686">
<rect width="318.579" height="214" fill="white"/>
</clipPath>
<clipPath id="clip1_2191_2686">
<rect width="182" height="182" fill="white" transform="translate(68.4673 16.1262)"/>
</clipPath>
</defs>
</svg>
