<svg width="182" height="182" viewBox="0 0 182 182" fill="none" xmlns="http://www.w3.org/2000/svg">
<g clip-path="url(#clip0_2173_1923)">
<path d="M160.192 126.226H138.601C137.604 126.226 136.796 127.034 136.796 128.032C136.796 129.029 137.604 129.838 138.601 129.838H160.192C161.189 129.838 161.998 129.029 161.998 128.032C161.998 127.034 161.189 126.226 160.192 126.226Z" fill="white"/>
<path d="M160.192 129.538C159.326 129.538 158.459 129.538 157.595 129.538C155.582 129.538 153.568 129.538 151.554 129.538C149.27 129.538 146.983 129.538 144.699 129.538C143.02 129.538 141.34 129.538 139.661 129.538C139.321 129.538 138.981 129.541 138.644 129.538C137.334 129.527 136.572 127.937 137.54 126.967C137.96 126.547 138.468 126.526 139.008 126.526H140.637C142.557 126.526 144.475 126.526 146.395 126.526C148.695 126.526 150.992 126.526 153.292 126.526H158.716C159.152 126.526 159.591 126.526 160.027 126.526C160.92 126.526 161.72 127.109 161.695 128.079C161.674 128.898 160.992 129.517 160.192 129.538C159.805 129.549 159.805 130.151 160.192 130.14C161.896 130.098 162.926 128.119 161.851 126.74C161.361 126.113 160.658 125.926 159.906 125.926H155.697C153.386 125.926 151.075 125.926 148.764 125.926C146.454 125.926 144.298 125.926 142.065 125.926C140.928 125.926 139.789 125.918 138.652 125.926C137.406 125.936 136.366 126.989 136.513 128.263C136.644 129.396 137.601 130.138 138.706 130.14C139.928 130.146 141.15 130.14 142.372 130.14C144.638 130.14 146.9 130.14 149.166 130.14C151.431 130.14 153.739 130.14 156.028 130.14C157.352 130.14 158.679 130.14 160.003 130.14H160.195C160.583 130.14 160.583 129.538 160.195 129.538H160.192Z" fill="#553597"/>
<path d="M164.613 97.1104C165.98 98.8135 166.29 103.103 166.884 111.68C167.67 123.015 166.782 124.549 165.996 125.444C164.769 126.836 163.188 127.358 150.725 127.637C137.845 127.926 136.347 127.294 135.234 126.075C134.312 125.063 133.844 123.829 134.047 111.57C134.157 104.951 134.223 101.62 134.788 100.522C139.169 92.004 158.572 89.586 164.613 97.1104Z" fill="white"/>
<path d="M164.4 97.3221C164.761 97.7773 165.001 98.4092 165.175 98.9903C165.437 99.8793 165.595 100.8 165.723 101.716C166.154 104.755 166.317 107.838 166.528 110.898C166.74 113.959 166.956 117.111 166.873 120.219C166.839 121.526 166.801 122.919 166.381 124.172C166.285 124.456 166.186 124.675 165.988 124.972C165.972 124.994 165.956 125.015 165.943 125.037C165.887 125.114 165.969 125.004 165.924 125.061C165.887 125.106 165.849 125.152 165.812 125.195C165.718 125.304 165.619 125.409 165.515 125.511C165.461 125.561 165.408 125.61 165.354 125.655C165.25 125.746 165.309 125.698 165.207 125.77C165.068 125.867 164.924 125.955 164.771 126.033C164.563 126.14 164.477 126.175 164.239 126.255C164.001 126.335 163.766 126.402 163.528 126.461C161.872 126.86 160.136 126.951 158.441 127.053C155.082 127.254 151.712 127.326 148.347 127.377C145.662 127.417 142.966 127.449 140.287 127.275C139.083 127.198 137.807 127.117 136.665 126.691C136.505 126.633 136.43 126.603 136.24 126.499C136.112 126.429 135.986 126.349 135.868 126.26C135.868 126.26 135.89 126.279 135.831 126.231C135.809 126.212 135.785 126.193 135.764 126.175C135.713 126.129 135.662 126.084 135.614 126.033C135.526 125.947 135.44 125.856 135.36 125.76C135.336 125.73 135.221 125.586 135.285 125.669C135.248 125.618 135.21 125.569 135.178 125.516C135.106 125.406 135.045 125.288 134.986 125.17C134.927 125.053 134.97 125.149 134.924 125.023C134.895 124.94 134.865 124.857 134.839 124.771C134.777 124.576 134.732 124.378 134.689 124.177C134.387 122.683 134.368 121.095 134.333 119.563C134.258 116.264 134.322 112.965 134.384 109.666C134.411 108.116 134.44 106.566 134.502 105.018C134.542 104.024 134.585 103.02 134.718 102.035C134.809 101.371 134.943 100.838 135.256 100.3C135.735 99.4723 136.344 98.7332 137.034 98.0745C138.596 96.5857 140.533 95.5066 142.53 94.722C144.737 93.8544 147.074 93.3108 149.431 93.0591C151.763 92.8128 154.146 92.8342 156.462 93.2412C158.54 93.6054 160.604 94.2721 162.364 95.4611C163.132 95.9779 163.822 96.5991 164.405 97.3194C164.648 97.622 165.071 97.1909 164.83 96.8936C162.046 93.4528 157.16 92.4004 152.955 92.3067C148.224 92.2023 143.196 93.2412 139.129 95.7342C137.382 96.8053 135.772 98.2057 134.737 99.9944C134.408 100.562 134.248 101.132 134.154 101.778C134.004 102.795 133.953 103.826 133.911 104.855C133.761 108.365 133.726 111.889 133.707 115.402C133.694 117.777 133.678 120.168 133.876 122.538C134.01 124.118 134.207 125.754 135.553 126.766C136.227 127.272 137.083 127.481 137.898 127.621C139.773 127.937 141.699 127.966 143.592 127.993C147.141 128.041 150.693 127.955 154.239 127.84C156.743 127.76 159.262 127.682 161.752 127.372C163.53 127.149 165.451 126.833 166.531 125.248C167.031 124.512 167.194 123.58 167.307 122.715C167.59 120.538 167.521 118.31 167.438 116.122C167.299 112.483 167.026 108.839 166.71 105.213C166.518 103.018 166.373 100.707 165.689 98.5967C165.491 97.9861 165.231 97.3997 164.833 96.8963C164.592 96.5937 164.17 97.0222 164.408 97.3221H164.4Z" fill="#553597"/>
<path d="M151.278 129.84H147.716V173.032H151.278V129.84Z" fill="white"/>
<path d="M151.278 172.73H147.716L148.016 173.03V130.483C148.016 130.298 148.042 130.092 148.016 129.91C148.013 129.886 148.016 129.862 148.016 129.838L147.716 130.138H151.278L150.979 129.838V167.722C150.979 169.463 150.92 171.217 150.979 172.957C150.979 172.981 150.979 173.005 150.979 173.03C150.979 173.418 151.581 173.418 151.581 173.03V135.145C151.581 133.404 151.64 131.651 151.581 129.91C151.581 129.886 151.581 129.862 151.581 129.838C151.581 129.674 151.442 129.538 151.281 129.538H147.719C147.556 129.538 147.419 129.677 147.419 129.838V167.722C147.419 169.463 147.36 171.217 147.419 172.957C147.419 172.981 147.419 173.005 147.419 173.03C147.419 173.193 147.558 173.329 147.719 173.329H151.281C151.669 173.329 151.669 172.727 151.281 172.727L151.278 172.73Z" fill="#553597"/>
<path d="M139.495 181.167H160.171C160.794 181.167 161.059 180.372 160.562 179.997C157.467 177.675 154.373 175.351 151.279 173.03H147.716C144.841 175.356 141.963 177.683 139.088 180.01C138.612 180.396 138.885 181.164 139.498 181.164L139.495 181.167Z" fill="white"/>
<path d="M139.495 181.47H158.5C159.053 181.47 159.609 181.491 160.163 181.47C160.519 181.456 160.834 181.29 161.006 180.969C161.262 180.492 161.059 180.002 160.658 179.697C159.294 178.664 157.919 177.641 156.55 176.615C155.181 175.589 153.846 174.585 152.495 173.573C152.177 173.335 151.864 173.078 151.535 172.853C151.41 172.767 151.337 172.735 151.201 172.732C150.933 172.724 150.663 172.732 150.393 172.732H148.064C147.823 172.732 147.649 172.703 147.449 172.864C146.769 173.404 146.098 173.956 145.421 174.505C144.106 175.571 142.787 176.636 141.471 177.702C140.813 178.235 140.155 178.768 139.497 179.301C139.054 179.66 138.457 180 138.556 180.658C138.628 181.14 139.019 181.448 139.495 181.475C139.883 181.497 139.88 180.894 139.495 180.873C139.23 180.859 139.048 180.578 139.198 180.34C139.308 180.16 139.556 180.026 139.717 179.895C139.925 179.727 140.131 179.558 140.34 179.392C141.188 178.704 142.038 178.018 142.886 177.33C144.566 175.97 146.248 174.609 147.927 173.249L147.713 173.337H150.861C150.971 173.337 151.169 173.297 151.27 173.337C151.11 173.276 151.332 173.485 151.284 173.418C151.316 173.463 151.399 173.504 151.444 173.538C151.586 173.645 151.728 173.753 151.872 173.86C152.156 174.074 152.442 174.288 152.725 174.5C153.846 175.34 154.967 176.181 156.087 177.022C157.208 177.863 158.328 178.704 159.449 179.544C159.716 179.745 159.984 179.943 160.249 180.144C160.42 180.275 160.583 180.409 160.497 180.645C160.439 180.808 160.305 180.865 160.144 180.873C159.711 180.899 159.267 180.873 158.831 180.873H144.063C142.565 180.873 141.059 180.822 139.564 180.873C139.543 180.873 139.519 180.873 139.497 180.873C139.11 180.873 139.11 181.475 139.497 181.475L139.495 181.47Z" fill="#553597"/>
<path d="M131.485 0.30249H59.8306C58.7922 0.30249 57.9504 1.14529 57.9504 2.18493V59.234C57.9504 60.2736 58.7922 61.1164 59.8306 61.1164H131.485C132.523 61.1164 133.365 60.2736 133.365 59.234V2.18493C133.365 1.14529 132.523 0.30249 131.485 0.30249Z" fill="white"/>
<path d="M131.485 60.8139H129.864C128.388 60.8139 126.909 60.8139 125.432 60.8139H118.802C116.064 60.8139 113.323 60.8139 110.584 60.8139H101.386C98.1877 60.8139 94.989 60.8139 91.7904 60.8139C88.5917 60.8139 85.599 60.8139 82.5046 60.8139H74.0159C71.6864 60.8139 69.357 60.8139 67.0275 60.8139C65.3907 60.8139 63.754 60.8139 62.1199 60.8139C61.379 60.8139 60.6409 60.8193 59.9001 60.8139C58.9827 60.8086 58.2713 60.1311 58.2553 59.2046C58.2526 58.9556 58.2553 58.7092 58.2553 58.4602C58.2553 57.0678 58.2553 55.6753 58.2553 54.2829C58.2553 51.9774 58.2553 49.6746 58.2553 47.369C58.2553 44.4717 58.2553 41.5744 58.2553 38.6771C58.2553 35.5094 58.2553 32.3416 58.2553 29.1712C58.2553 26.0007 58.2553 22.9374 58.2553 19.8205C58.2553 17.0705 58.2553 14.3178 58.2553 11.5678C58.2553 8.81774 58.2553 7.49226 58.2553 5.45451V2.36708C58.2553 2.30817 58.2553 2.24926 58.2553 2.19035C58.274 1.31206 58.9586 0.623881 59.8359 0.605137C59.9856 0.602459 60.1327 0.605137 60.2825 0.605137C61.3309 0.605137 62.3793 0.605137 63.4304 0.605137C65.3185 0.605137 67.2067 0.605137 69.0949 0.605137C71.5955 0.605137 74.0961 0.605137 76.5994 0.605137C79.544 0.605137 82.4886 0.605137 85.4305 0.605137C88.5837 0.605137 91.7396 0.605137 94.8928 0.605137C98.046 0.605137 101.234 0.605137 104.406 0.605137C107.391 0.605137 110.373 0.605137 113.357 0.605137C115.949 0.605137 118.543 0.605137 121.135 0.605137C123.138 0.605137 125.141 0.605137 127.144 0.605137C128.34 0.605137 129.535 0.605137 130.731 0.605137C130.966 0.605137 131.199 0.605137 131.434 0.605137C132.354 0.61317 133.055 1.29867 133.068 2.22516C133.081 3.05526 133.068 3.88536 133.068 4.71545C133.068 6.61664 133.068 8.51783 133.068 10.4217C133.068 13.0834 133.068 15.7424 133.068 18.404C133.068 21.0657 133.068 24.5387 133.068 27.6047V37.1829C133.068 40.1445 133.068 43.1088 133.068 46.0703C133.068 49.0319 133.068 50.9143 133.068 53.335V59.0493C133.068 59.1082 133.068 59.1671 133.068 59.2287C133.052 60.1097 132.367 60.7952 131.487 60.8166C131.1 60.8273 131.1 61.4298 131.487 61.4191C132.766 61.3869 133.664 60.3694 133.67 59.1189C133.67 58.7869 133.67 58.4548 133.67 58.1228V53.5037C133.67 51.083 133.67 48.6624 133.67 46.2417C133.67 43.821 133.67 40.2891 133.67 37.3115C133.67 34.3338 133.67 30.8822 133.67 27.669C133.67 24.5601 133.67 21.4486 133.67 18.3397C133.67 15.2309 133.67 13.0111 133.67 10.344C133.67 7.67702 133.67 6.53899 133.67 4.6378C133.67 3.82645 133.683 3.01509 133.67 2.20642C133.648 0.971986 132.691 0.0187135 131.461 -3.06005e-05C131.249 -0.00270833 131.038 -3.06005e-05 130.827 -3.06005e-05C129.661 -3.06005e-05 128.495 -3.06005e-05 127.329 -3.06005e-05C125.344 -3.06005e-05 123.36 -3.06005e-05 121.375 -3.06005e-05C118.77 -3.06005e-05 116.165 -3.06005e-05 113.563 -3.06005e-05C110.554 -3.06005e-05 107.546 -3.06005e-05 104.537 -3.06005e-05C101.346 -3.06005e-05 98.1529 -3.06005e-05 94.9623 -3.06005e-05C91.7717 -3.06005e-05 88.6078 -3.06005e-05 85.4332 -3.06005e-05C82.4699 -3.06005e-05 79.5066 -3.06005e-05 76.5433 -3.06005e-05C74.0159 -3.06005e-05 71.4858 -3.06005e-05 68.9585 -3.06005e-05H60.229C60.007 -3.06005e-05 59.7824 -0.00806379 59.5604 0.0213912C58.389 0.171344 57.6589 1.18353 57.6562 2.31888C57.6562 3.30964 57.6562 4.30041 57.6562 5.29117C57.6562 7.3316 57.6562 9.37471 57.6562 11.4151C57.6562 13.4556 57.6562 16.9152 57.6562 19.6652C57.6562 22.4153 57.6562 25.9365 57.6562 29.0694C57.6562 32.272 57.6562 35.4719 57.6562 38.6744C57.6562 41.5985 57.6562 44.5253 57.6562 47.4494C57.6562 49.7602 57.6562 52.0684 57.6562 54.3793C57.6562 56.6902 57.6562 57.132 57.6562 58.5084C57.6562 58.744 57.6508 58.9797 57.6562 59.2153C57.6776 60.4497 58.6431 61.3977 59.8733 61.4164C60.5714 61.4271 61.2721 61.4164 61.9701 61.4164H66.8189C69.1457 61.4164 71.4725 61.4164 73.7993 61.4164C76.6395 61.4164 79.4798 61.4164 82.3174 61.4164C85.4519 61.4164 88.589 61.4164 91.7235 61.4164C94.858 61.4164 98.1422 61.4164 101.354 61.4164C104.566 61.4164 107.527 61.4164 110.616 61.4164C113.381 61.4164 116.144 61.4164 118.909 61.4164C121.129 61.4164 123.352 61.4164 125.572 61.4164C127.034 61.4164 128.5 61.4164 129.963 61.4164H131.487C131.875 61.4164 131.875 60.8139 131.487 60.8139H131.485Z" fill="#553597"/>
<path d="M79.0199 9.28101H65.4149C64.5568 9.28101 63.8611 9.97754 63.8611 10.8368V29.356C63.8611 30.2152 64.5568 30.9117 65.4149 30.9117H79.0199C79.8781 30.9117 80.5738 30.2152 80.5738 29.356V10.8368C80.5738 9.97754 79.8781 9.28101 79.0199 9.28101Z" fill="white"/>
<path d="M79.0226 30.6117H72.4541C70.1193 30.6117 67.7738 30.6679 65.439 30.6117C64.7195 30.593 64.1793 30.0574 64.1659 29.3371C64.1606 29.139 64.1659 28.9381 64.1659 28.7373V25.607C64.1659 22.4286 64.1659 19.2501 64.1659 16.0716V11.1821C64.1659 10.9465 64.1499 10.7055 64.2194 10.4779C64.5484 9.39338 65.7652 9.5835 66.6398 9.5835H78.7685C79.2205 9.5835 79.6484 9.64241 79.972 10.0119C80.2394 10.3199 80.2796 10.6814 80.2796 11.0616V13.6429C80.2796 16.7518 80.2796 19.8579 80.2796 22.9668C80.2796 25.0768 80.2956 27.1869 80.2796 29.2969C80.2742 30.0199 79.7634 30.593 79.0252 30.6144C78.6401 30.6251 78.6374 31.2276 79.0252 31.2169C80.0576 31.1874 80.8546 30.3868 80.8813 29.3505C80.8867 29.1684 80.8813 28.9863 80.8813 28.8042V12.0256C80.8813 11.2892 80.9936 10.4189 80.5497 9.78165C79.8944 8.84712 78.8139 8.98101 77.8244 8.98101C76.3989 8.98101 74.9734 8.98101 73.5479 8.98101H65.562C64.9281 8.98101 64.3424 9.19522 63.9466 9.71203C63.6497 10.1003 63.5642 10.5502 63.5642 11.0241V13.6188C63.5642 16.8294 63.5642 20.0427 63.5642 23.2533C63.5642 25.283 63.5187 27.3181 63.5642 29.3478C63.5855 30.3359 64.3317 31.1526 65.3266 31.2115C65.5433 31.2249 65.7626 31.2115 65.9819 31.2115H79.0252C79.413 31.2115 79.413 30.609 79.0252 30.609L79.0226 30.6117Z" fill="#553597"/>
<path d="M102.462 9.28101H88.8566C87.9984 9.28101 87.3027 9.97754 87.3027 10.8368V29.356C87.3027 30.2152 87.9984 30.9117 88.8566 30.9117H102.462C103.32 30.9117 104.015 30.2152 104.015 29.356V10.8368C104.015 9.97754 103.32 9.28101 102.462 9.28101Z" fill="white"/>
<path d="M102.462 30.6117H95.893C93.5582 30.6117 91.2127 30.6679 88.8779 30.6117C88.1585 30.593 87.6182 30.0574 87.6049 29.3371C87.5995 29.139 87.6049 28.9381 87.6049 28.7373V11.1794C87.6049 10.9438 87.5888 10.7028 87.6584 10.4752C87.9873 9.39069 89.2042 9.58081 90.0788 9.58081H102.207C102.659 9.58081 103.087 9.63972 103.411 10.0092C103.678 10.3172 103.719 10.6787 103.719 11.0589V22.9641C103.719 25.0742 103.735 27.1842 103.719 29.2943C103.713 30.0173 103.202 30.5903 102.464 30.6117C102.079 30.6224 102.076 31.2249 102.464 31.2142C103.497 31.1847 104.294 30.3841 104.32 29.3478C104.326 29.1657 104.32 28.9836 104.32 28.8016V12.0229C104.32 11.2865 104.433 10.4163 103.989 9.77896C103.333 8.84443 102.253 8.97832 101.263 8.97832H89.0009C88.3671 8.97832 87.7814 9.19254 87.3856 9.70934C87.0887 10.0976 87.0031 10.5475 87.0031 11.0214V13.6162C87.0031 16.8267 87.0031 20.04 87.0031 23.2506C87.0031 25.2803 86.9577 27.3154 87.0031 29.3451C87.0245 30.3332 87.7707 31.1499 88.7656 31.2088C88.9822 31.2222 89.2015 31.2088 89.4208 31.2088H102.464C102.852 31.2088 102.852 30.6064 102.464 30.6064L102.462 30.6117Z" fill="#553597"/>
<path d="M126.513 9.28101H112.908C112.05 9.28101 111.354 9.97754 111.354 10.8368V29.356C111.354 30.2152 112.05 30.9117 112.908 30.9117H126.513C127.371 30.9117 128.067 30.2152 128.067 29.356V10.8368C128.067 9.97754 127.371 9.28101 126.513 9.28101Z" fill="white"/>
<path d="M126.513 30.6117H119.945C117.61 30.6117 115.264 30.6679 112.929 30.6117C112.21 30.593 111.67 30.0574 111.656 29.3371C111.651 29.139 111.656 28.9381 111.656 28.7373V11.1794C111.656 10.9438 111.64 10.7028 111.71 10.4752C112.039 9.39069 113.256 9.58081 114.13 9.58081H126.259C126.711 9.58081 127.139 9.63972 127.462 10.0092C127.73 10.3172 127.77 10.6787 127.77 11.0589V22.9641C127.77 25.0742 127.786 27.1842 127.77 29.2943C127.765 30.0173 127.254 30.5903 126.516 30.6117C126.131 30.6224 126.128 31.2249 126.516 31.2142C127.548 31.1847 128.345 30.3841 128.372 29.3478C128.377 29.1657 128.372 28.9836 128.372 28.8016V12.0229C128.372 11.2865 128.484 10.4163 128.04 9.77896C127.385 8.84443 126.304 8.97832 125.315 8.97832C123.889 8.97832 122.464 8.97832 121.038 8.97832H113.052C112.419 8.97832 111.833 9.19254 111.437 9.70934C111.14 10.0976 111.055 10.5475 111.055 11.0214V13.6162C111.055 16.8267 111.055 20.04 111.055 23.2506C111.055 25.2803 111.009 27.3154 111.055 29.3451C111.076 30.3332 111.822 31.1499 112.817 31.2088C113.034 31.2222 113.253 31.2088 113.472 31.2088H126.516C126.904 31.2088 126.904 30.6064 126.516 30.6064L126.513 30.6117Z" fill="#553597"/>
<path d="M112.127 37.6032H127.291C127.679 37.6032 127.679 37.0007 127.291 37.0007H112.127C111.739 37.0007 111.739 37.6032 112.127 37.6032Z" fill="#553597"/>
<path d="M112.127 40.7709H127.291C127.679 40.7709 127.679 40.1685 127.291 40.1685H112.127C111.739 40.1685 111.739 40.7709 112.127 40.7709Z" fill="#553597"/>
<path d="M112.127 43.8183H127.291C127.679 43.8183 127.679 43.2158 127.291 43.2158H112.127C111.739 43.2158 111.739 43.8183 112.127 43.8183Z" fill="#553597"/>
<path d="M112.127 46.8654H127.291C127.679 46.8654 127.679 46.2629 127.291 46.2629H112.127C111.739 46.2629 111.739 46.8654 112.127 46.8654Z" fill="#553597"/>
<path d="M88.0782 37.4533H103.242C103.63 37.4533 103.63 36.8508 103.242 36.8508H88.0782C87.6904 36.8508 87.6904 37.4533 88.0782 37.4533Z" fill="#553597"/>
<path d="M88.0782 40.621H103.242C103.63 40.621 103.63 40.0186 103.242 40.0186H88.0782C87.6904 40.0186 87.6904 40.621 88.0782 40.621Z" fill="#553597"/>
<path d="M88.0782 43.6684H103.242C103.63 43.6684 103.63 43.0659 103.242 43.0659H88.0782C87.6904 43.0659 87.6904 43.6684 88.0782 43.6684Z" fill="#553597"/>
<path d="M88.0782 46.7155H103.242C103.63 46.7155 103.63 46.113 103.242 46.113H88.0782C87.6904 46.113 87.6904 46.7155 88.0782 46.7155Z" fill="#553597"/>
<path d="M88.3803 162.07L84.6816 165.773C84.6816 165.773 78.5624 165.489 77.2813 168.052L76.0002 170.617L97.0617 178.881C97.0617 178.881 101.047 170.331 99.7655 167.198L88.3803 162.067V162.07Z" fill="#553597"/>
<path d="M76.8534 168.909L97.7517 177.287L97.0617 178.881L76.0002 170.617L76.8534 168.909Z" fill="white"/>
<path d="M78.648 167.227C80.2633 167.701 81.7717 168.475 83.1063 169.501C83.2373 169.6 83.4406 169.519 83.5182 169.393C83.6118 169.238 83.5396 169.08 83.4112 168.981C82.0365 167.923 80.4719 167.136 78.8084 166.646C78.4367 166.536 78.2762 167.117 78.648 167.227Z" fill="white"/>
<path d="M81.6594 166.349C82.6837 166.611 83.6118 167.15 84.3499 167.91C84.62 168.188 85.0453 167.763 84.7752 167.484C83.9701 166.654 82.9405 166.054 81.8199 165.768C81.4454 165.671 81.285 166.252 81.6594 166.349Z" fill="white"/>
<path d="M86.428 164.025C87.3747 164.863 88.4953 165.73 89.8032 166.55C93.5902 168.922 97.2917 169.859 99.9073 170.253C99.926 170.063 99.9527 169.787 99.9902 169.452C99.9955 169.399 100.046 168.957 100.065 168.815C100.111 168.494 100.252 167.998 100.715 167.345C96.5401 165.497 92.3653 163.647 88.1904 161.799C87.6021 162.541 87.0164 163.283 86.428 164.025Z" fill="white"/>
<path d="M117.727 168.855L115.521 173.606C115.521 173.606 109.674 175.437 109.351 178.286L109.024 181.135L131.64 181.671C131.64 181.671 132.455 172.272 130.179 169.768L117.73 168.858L117.727 168.855Z" fill="#553597"/>
<path d="M109.241 179.237L131.741 179.938L131.64 181.671L109.024 181.135L109.241 179.237Z" fill="white"/>
<path d="M110.327 177.044C112.007 176.934 113.686 177.137 115.291 177.644C115.66 177.761 115.82 177.178 115.451 177.063C113.798 176.543 112.055 176.331 110.327 176.441C109.942 176.465 109.939 177.068 110.327 177.044Z" fill="white"/>
<path d="M112.854 175.185C113.903 175.081 114.964 175.255 115.914 175.716C116.061 175.785 116.24 175.756 116.326 175.609C116.403 175.477 116.366 175.268 116.219 175.196C115.176 174.69 114.01 174.47 112.854 174.586C112.694 174.602 112.555 174.711 112.555 174.886C112.555 175.035 112.694 175.204 112.854 175.185Z" fill="white"/>
<path d="M116.486 171.356C117.858 171.929 120.343 172.754 123.531 172.674C126.925 172.588 129.492 171.512 130.843 170.829C130.768 170.647 130.663 170.438 130.522 170.216C130.407 170.039 130.289 169.889 130.179 169.766L117.73 168.855C117.315 169.688 116.901 170.523 116.489 171.356H116.486Z" fill="white"/>
<path d="M162.843 101.293C163.493 103.127 168.058 116.393 162.57 120.883C161.508 121.751 159.901 122.067 156.681 122.696C152.343 123.545 148.665 123.7 141.492 123.655C138.642 123.636 134.975 123.585 130.69 123.451C131.073 130.173 131.276 137.285 131.233 144.75C131.182 153.597 130.792 161.957 130.174 169.768C128.599 170.416 125.751 171.329 122.18 171.04C120.233 170.882 118.62 170.411 117.425 169.953C116.414 158.219 115.4 146.483 114.389 134.749C109.616 146.105 104.839 157.461 100.065 168.818C98.3106 168.424 96.0774 167.749 93.649 166.552C91.0334 165.262 89.0249 163.778 87.5994 162.549C90.0438 152.542 92.5418 144.003 94.6867 137.226C99.2921 122.67 103.558 112.229 110.923 109.375C111.921 108.989 113.659 108.47 114.012 108.362C119.086 106.847 122.688 106.467 128.203 105.722C134.044 104.935 130.468 105.288 138.711 104.18C144.549 103.395 152.688 102.37 162.843 101.293Z" fill="#A78ED7"/>
<path d="M114.681 134.666C114.213 131.878 114.004 129.069 113.999 126.244C113.999 124.825 114.023 123.406 114.189 121.995C114.366 120.466 114.703 118.948 115.085 117.456C115.411 116.181 115.836 114.934 116.532 113.809C117.19 112.746 118.054 111.811 119.07 111.083C121.132 109.6 123.638 108.906 126.053 108.237C129.072 107.398 132.116 106.863 135.253 106.764C135.638 106.75 135.641 106.148 135.253 106.161C132.389 106.25 129.535 106.659 126.767 107.415C124.245 108.103 121.608 108.761 119.367 110.159C117.126 111.557 115.601 113.694 114.812 116.206C113.914 119.068 113.448 122.083 113.405 125.08C113.36 128.349 113.561 131.6 114.103 134.826C114.168 135.207 114.748 135.046 114.684 134.666H114.681Z" fill="#553597"/>
<path d="M97.3961 131C98.6263 127.173 100.049 123.4 101.713 119.74C102.563 117.868 103.48 115.972 104.81 114.43C106.503 112.467 108.623 110.74 110.964 109.616C113.063 108.606 115.414 108.092 117.677 107.61C121.595 106.772 125.569 106.151 129.548 105.677C130.126 105.607 130.704 105.543 131.282 105.481C131.661 105.441 131.667 104.838 131.282 104.879C127.174 105.32 123.082 105.923 119.027 106.721C116.371 107.243 113.643 107.797 111.145 108.876C108.792 109.894 106.668 111.554 104.919 113.413C103.577 114.84 102.611 116.46 101.763 118.219C100.06 121.743 98.637 125.422 97.38 129.125C97.1874 129.696 96.9976 130.269 96.813 130.842C96.6953 131.211 97.2757 131.369 97.3934 131.003L97.3961 131Z" fill="#553597"/>
<path d="M126.764 120.112C126.952 120.439 127.174 120.747 127.401 121.047C127.912 121.716 128.484 122.34 129.15 122.862C129.581 123.2 130.041 123.494 130.543 123.714C130.693 123.778 130.867 123.757 130.955 123.607C131.03 123.478 130.998 123.259 130.848 123.194C129.441 122.581 128.318 121.392 127.486 120.128C127.417 120.024 127.35 119.92 127.289 119.81C127.096 119.472 126.577 119.778 126.77 120.115L126.764 120.112Z" fill="#553597"/>
<path d="M146.732 55.2416C145.758 55.1024 144.354 54.9069 142.656 54.6981C138.989 54.2455 138.232 54.2482 137.459 54.358C136.991 54.4249 135.333 54.7007 132.873 56.3315C132.873 56.3315 129.535 58.9771 126.622 62.8625C124.611 65.5455 117.527 80.5703 110.442 102.201C115.189 102.415 119.939 102.632 124.686 102.846C130.222 101.794 134.485 101.569 137.425 101.566C139.195 101.566 143.258 101.647 149.556 101.54C150.139 101.529 150.433 101.524 150.797 101.515C154.723 101.427 158.537 101.328 162.902 100.613C164.763 100.308 165.889 100.027 166.271 99.9303C168.392 99.3894 169.708 99.052 170.965 98.329C174.049 96.5563 175.25 93.3323 175.595 92.4059C176.37 90.3279 176.44 88.3759 176.218 85.4438C175.958 82.0189 175.611 77.432 173.091 71.7016C170.682 66.223 166.988 57.823 158.553 55.1051C154.188 53.6993 149.965 54.2669 146.732 55.2416Z" fill="white"/>
<path d="M146.812 54.9525C144.231 54.583 141.632 54.1733 139.027 54.018C137.823 53.9457 136.708 54.1224 135.579 54.5616C134.56 54.9579 133.488 55.4693 132.624 56.1468C132.145 56.5217 131.693 56.9367 131.244 57.3464C129.42 59.02 127.641 60.8623 126.224 62.8974C125.7 63.6525 125.261 64.4719 124.833 65.2832C124.122 66.6248 123.459 67.9904 122.814 69.3641C120.872 73.5012 119.102 77.7213 117.417 81.9708C115.109 87.7895 112.975 93.6752 110.982 99.6117C110.701 100.447 110.426 101.283 110.15 102.121C110.086 102.316 110.255 102.493 110.439 102.501C113.213 102.627 115.986 102.753 118.759 102.879C120.134 102.94 121.512 103.004 122.886 103.066C123.218 103.082 123.552 103.095 123.884 103.112C124.215 103.128 124.56 103.17 124.892 103.112C125.547 102.994 126.2 102.873 126.855 102.766C130.562 102.164 134.303 101.848 138.058 101.869C141.813 101.89 145.544 101.907 149.289 101.845C154.175 101.767 159.066 101.623 163.886 100.747C165.643 100.428 167.411 100.016 169.109 99.4591C170.973 98.8459 172.591 97.7802 173.821 96.2378C174.693 95.1453 175.346 93.9108 175.838 92.6068C176.549 90.7163 176.688 88.7401 176.597 86.7345C176.413 82.7313 175.899 78.7174 174.64 74.899C174.019 73.0165 173.214 71.201 172.391 69.4016C171.695 67.8833 170.954 66.3864 170.112 64.9431C168.28 61.7995 165.945 58.8861 162.888 56.8618C159.018 54.2965 154.308 53.5066 149.759 54.2322C148.708 54.4009 147.668 54.6446 146.649 54.9499C146.28 55.0596 146.438 55.6434 146.809 55.5309C151.262 54.1974 156.119 54.1465 160.39 56.1468C163.736 57.716 166.394 60.3669 168.443 63.4061C170.246 66.0839 171.599 69.024 172.885 71.9775C174.586 75.8844 175.472 80.0027 175.822 84.2335C175.988 86.2445 176.194 88.309 175.849 90.312C175.613 91.6803 175.113 93.0165 174.442 94.2295C173.538 95.8683 172.251 97.3009 170.588 98.1925C169.053 99.0146 167.264 99.3975 165.579 99.7858C160.965 100.852 156.218 101.087 151.5 101.197C147.489 101.291 143.474 101.307 139.463 101.275C136.323 101.25 133.207 101.342 130.086 101.708C128.89 101.848 127.698 102.016 126.51 102.214C126.219 102.263 125.924 102.314 125.633 102.364C125.28 102.426 124.908 102.536 124.55 102.536C123.886 102.536 123.215 102.474 122.552 102.445C119.845 102.322 117.139 102.198 114.432 102.075C113.1 102.014 111.768 101.955 110.439 101.893L110.728 102.273C112.713 96.219 114.844 90.2129 117.149 84.2737C118.874 79.8313 120.69 75.4211 122.672 71.0859C123.809 68.6009 124.954 66.0732 126.387 63.7435C127.419 62.0699 128.81 60.5892 130.185 59.1967C131.329 58.0373 132.501 56.8484 133.916 56.0263C134.852 55.4827 135.849 55.0168 136.906 54.7624C137.363 54.6526 137.676 54.6044 138.139 54.5937C138.885 54.5723 139.639 54.6553 140.38 54.7303C141.88 54.8856 143.375 55.0784 144.868 55.2792C145.461 55.3596 146.055 55.4426 146.646 55.5256C147.026 55.5791 147.189 54.9981 146.807 54.9445L146.812 54.9525Z" fill="#553597"/>
<path d="M137.598 54.5965C138.093 57.1698 138.917 59.1004 139.564 60.367C140.452 62.1022 141.022 63.1786 142.116 63.4089C143.907 63.7865 145.608 61.5693 145.747 61.3819C145.782 61.5907 145.959 62.4985 146.75 63.0019C147.601 63.5455 148.572 63.2429 148.834 63.1625C149.69 62.8975 150.46 62.228 152.049 59.0228C152.597 57.9142 153.298 56.3959 154.004 54.5269C153.573 54.4787 153.094 54.4465 152.575 54.4465C151.883 54.4465 151.262 54.5054 150.722 54.5885C149.941 58.2784 146.593 60.0457 144.424 59.2557C142.897 58.7014 141.821 56.8297 141.744 54.6822C141.147 54.5858 140.46 54.5135 139.698 54.4947C138.914 54.476 138.208 54.5215 137.598 54.5911V54.5965Z" fill="#A78ED7"/>
<path d="M162.971 76.0582C163.057 77.6301 163.086 79.3117 163.038 81.0924C162.968 83.7514 162.733 86.1961 162.415 88.3919C155.919 89.7013 149.422 91.008 142.926 92.3174C143.378 94.714 143.833 97.1106 144.285 99.5044C145.48 99.6892 147.186 99.9302 149.243 100.139C152.431 100.46 156.127 100.669 158.483 100.616C163.404 100.501 169.981 100.364 173.634 96.1948C178.087 91.1124 176.135 82.5035 175.06 77.7613C174.319 74.4918 173.238 71.881 172.367 70.0789" fill="white"/>
<path d="M162.669 76.0583C162.886 80.1472 162.706 84.2575 162.126 88.3116L162.337 88.1C157.28 89.1176 152.222 90.1378 147.165 91.1553C145.726 91.4445 144.287 91.7337 142.848 92.0256C142.68 92.0604 142.61 92.2451 142.637 92.3951C143.089 94.7917 143.544 97.1882 143.996 99.5821C144.014 99.6732 144.111 99.7776 144.207 99.7937C148.548 100.466 152.958 100.892 157.352 100.924C159.139 100.937 160.939 100.875 162.722 100.742C164.592 100.6 166.472 100.343 168.269 99.7964C170.066 99.2501 171.693 98.4414 173.059 97.2097C174.42 95.9833 175.383 94.3873 175.961 92.6548C177.108 89.2059 176.817 85.4116 176.22 81.8877C175.592 78.1764 174.68 74.4998 173.155 71.0509C172.987 70.6707 172.813 70.2958 172.634 69.9236C172.465 69.5755 171.947 69.8807 172.115 70.2288C173.722 73.5626 174.688 77.0945 175.397 80.7148C176.063 84.1102 176.501 87.7171 175.752 91.1366C175.375 92.8584 174.667 94.5239 173.517 95.8761C172.366 97.2284 170.805 98.2299 169.13 98.8672C165.755 100.152 162.056 100.238 158.489 100.316C156.427 100.361 154.357 100.249 152.3 100.102C150.064 99.9409 147.834 99.7133 145.616 99.4C145.199 99.3411 144.785 99.2795 144.37 99.2153L144.581 99.4268C144.129 97.0303 143.675 94.6337 143.223 92.2398L143.012 92.6093C148.069 91.5918 153.126 90.5716 158.184 89.554C159.623 89.2648 161.062 88.9756 162.5 88.6838C162.591 88.665 162.696 88.5686 162.712 88.4722C163.3 84.3619 163.495 80.2061 163.276 76.0583C163.255 75.6727 162.653 75.67 162.674 76.0583H162.669Z" fill="#553597"/>
<path d="M133.755 73.6778C133.611 76.6688 133.236 80.0374 132.463 83.6765C130.738 91.8221 127.673 98.2755 124.98 102.846L110.442 102.201C113.523 92.4487 117.299 82.3537 121.934 72.0471C122.686 70.3762 123.448 68.7294 124.218 67.1013" fill="white"/>
<path d="M133.456 73.6779C133.239 78.072 132.568 82.4367 131.439 86.689C130.417 90.5422 129.027 94.2937 127.294 97.8845C126.505 99.5233 125.644 101.127 124.721 102.694L124.98 102.544C123.344 102.472 121.709 102.399 120.073 102.327C117.462 102.212 114.855 102.094 112.245 101.979C111.643 101.952 111.041 101.925 110.439 101.898L110.728 102.279C112.156 97.7587 113.699 93.2762 115.355 88.8338C117.096 84.1692 118.96 79.5528 120.953 74.9899C122.087 72.3925 123.261 69.8112 124.472 67.2513C124.638 66.9032 124.119 66.5979 123.953 66.946C121.795 71.5062 119.76 76.1226 117.853 80.7953C116.005 85.3206 114.277 89.8915 112.672 94.5079C111.795 97.033 110.953 99.5688 110.148 102.118C110.086 102.314 110.249 102.49 110.437 102.498C112.073 102.571 113.707 102.643 115.344 102.715C117.954 102.83 120.562 102.948 123.172 103.063C123.774 103.09 124.376 103.117 124.978 103.144C125.082 103.149 125.186 103.082 125.237 102.994C127.01 99.9839 128.543 96.8376 129.813 93.5814C131.418 89.4658 132.592 85.1841 133.301 80.8247C133.686 78.4576 133.937 76.0691 134.055 73.6725C134.073 73.2842 133.472 73.2869 133.453 73.6725L133.456 73.6779Z" fill="#553597"/>
<path d="M122.319 71.0269C123.902 71.9078 125.756 72.8183 127.869 73.6537C129.952 74.4784 131.902 75.0783 133.64 75.5201L133.496 77.108C131.642 76.8054 129.281 76.235 126.697 75.1157C124.713 74.2562 123.073 73.2788 121.781 72.3871L122.322 71.0269H122.319Z" fill="#553597"/>
<path d="M117.519 82.8757C119.404 83.9147 121.709 85.0126 124.413 85.9632C127.002 86.8736 129.388 87.4493 131.439 87.8215C131.279 88.3624 131.116 88.9033 130.955 89.4469C128.885 89.1497 126.288 88.5873 123.424 87.4948C120.795 86.4907 118.642 85.3044 116.981 84.2387L117.521 82.8784L117.519 82.8757Z" fill="#553597"/>
<path d="M150.562 90.676C150.596 92.0229 150.784 93.8518 151.42 95.9217C152.008 97.8336 152.797 99.3519 153.474 100.447C152.797 100.404 152.124 100.361 151.447 100.319C150.864 99.3064 150.198 97.922 149.722 96.1948C149.152 94.1303 149.056 92.3201 149.088 91.0241C149.58 90.909 150.07 90.7912 150.562 90.676Z" fill="#553597"/>
<path d="M162.415 88.3918C163.033 89.8191 163.902 91.498 165.129 93.2546C166.852 95.7181 168.705 97.5095 170.203 98.7466C169.609 98.9501 169.015 99.1563 168.424 99.3598C166.983 98.2218 165.087 96.4598 163.378 93.916C162.113 92.0336 161.3 90.2448 160.77 88.8042C161.318 88.6677 161.864 88.5311 162.412 88.3945L162.415 88.3918Z" fill="#553597"/>
<path d="M163.059 79.866C164.621 80.4069 166.697 80.9585 169.179 81.1995C171.8 81.4512 174.049 81.2744 175.739 81.0174C175.833 81.5985 175.926 82.1795 176.017 82.7606C174.196 83.0953 171.586 83.3604 168.51 82.9507C166.266 82.6508 164.389 82.0751 162.96 81.5128C162.993 80.9638 163.025 80.4149 163.059 79.866Z" fill="#553597"/>
<path d="M113.271 93.592C115.157 94.631 117.462 95.7289 120.166 96.6795C122.755 97.5899 125.141 98.1656 127.192 98.5378C126.959 99.068 126.727 99.6009 126.497 100.131C124.475 99.8285 121.953 99.2715 119.177 98.2085C116.545 97.2043 114.392 96.0181 112.734 94.9523L113.274 93.592H113.271Z" fill="#553597"/>
<path d="M151.104 100.321C148.847 100.238 147.058 100.115 145.822 100.019C144.736 99.933 144.827 99.925 144.365 99.9009C141.746 99.767 140.907 100.131 139.666 99.6411C139.254 99.4778 138.657 99.1672 138.034 98.5084C137.117 98.9181 136.542 99.3519 136.178 99.6866C136.015 99.8366 135.686 100.158 135.173 100.268C134.996 100.305 134.702 100.364 134.413 100.209C134.031 100.005 133.932 99.5849 133.916 99.5046C133.875 99.5688 133.389 100.335 132.733 100.286C132.672 100.281 132.525 100.27 132.378 100.174C132.065 99.9678 131.942 99.4965 132.052 98.9717C131.918 99.218 131.361 100.193 130.492 100.289C130.353 100.305 130.161 100.324 130.04 100.206C129.701 99.8741 130.244 98.6022 130.177 98.7334C130.091 98.8994 129.476 100.048 128.454 100.118C128.294 100.128 128.128 100.139 128.018 100.037C127.628 99.6759 128.342 98.2808 128.949 97.2472C129.639 96.0958 130.685 94.8212 132.271 94.0393C132.961 93.6992 133.432 93.6832 138.109 92.9495C138.139 92.9441 138.216 92.9334 138.339 92.9147C139.037 92.8049 139.575 92.7192 139.759 92.6897C139.762 92.6897 139.821 92.679 139.826 92.679C140.647 92.5478 146.622 91.5383 147.673 91.3616" fill="white"/>
<path d="M151.104 100.019C149.077 99.9436 147.047 99.8312 145.028 99.6491C144.285 99.5822 143.541 99.5581 142.798 99.5688C142.054 99.5795 141.337 99.6598 140.618 99.5741C139.693 99.4643 138.89 98.9529 138.254 98.2942C138.152 98.1897 138.01 98.1924 137.89 98.246C137.162 98.5753 136.507 98.9931 135.914 99.5259C135.419 99.9704 134.418 100.332 134.21 99.4242C134.148 99.1617 133.793 99.143 133.659 99.3519C133.515 99.5795 133.306 99.8124 133.057 99.9249C132.447 100.201 132.26 99.5286 132.346 99.052C132.402 98.736 131.969 98.5004 131.795 98.819C131.519 99.3251 131.027 100.005 130.383 99.9972C130.225 99.9972 130.233 99.957 130.23 99.8178C130.23 99.6705 130.262 99.5206 130.297 99.376C130.345 99.1832 130.426 98.9957 130.474 98.8029C130.527 98.5941 130.329 98.3531 130.105 98.4334C129.869 98.5164 129.738 98.902 129.591 99.0894C129.289 99.4724 128.869 99.8124 128.361 99.8205C128.139 99.8232 128.203 99.6384 128.246 99.4617C128.307 99.1939 128.414 98.9341 128.529 98.6851C128.786 98.1228 129.091 97.5739 129.428 97.0571C130.118 95.9993 131.017 95.0729 132.124 94.457C132.506 94.2428 132.685 94.1651 133.116 94.0634C133.659 93.9348 134.215 93.8572 134.766 93.7715C135.924 93.5894 137.082 93.4153 138.24 93.2333C139.714 93.003 141.188 92.7593 142.659 92.5103C144.359 92.2238 146.058 91.9372 147.759 91.6507C148.138 91.5864 147.978 91.0054 147.598 91.0697C144.413 91.6079 141.228 92.1595 138.034 92.6575C136.817 92.8477 135.598 93.0297 134.381 93.2252C133.851 93.3082 133.314 93.3832 132.795 93.5225C132.223 93.6778 131.691 93.983 131.206 94.3204C130.145 95.0621 129.294 96.0663 128.642 97.1829C128.326 97.7211 126.82 100.088 128.096 100.404C129.12 100.659 130 99.6678 130.442 98.8779L130.262 99.0172C130.139 98.894 130.016 98.7708 129.893 98.645C129.754 99.2019 129.251 100.377 130.142 100.584C131.086 100.801 131.913 99.858 132.314 99.1243L131.763 98.8913C131.626 99.6491 131.878 100.61 132.816 100.589C133.394 100.576 133.881 100.12 134.175 99.6571L133.624 99.5848C133.707 99.9463 133.932 100.286 134.261 100.468C134.726 100.723 135.314 100.602 135.764 100.369C136.119 100.185 136.384 99.8874 136.694 99.6437C137.149 99.2849 137.663 99.0091 138.189 98.7681L137.826 98.7199C138.441 99.3572 139.2 99.8713 140.07 100.086C140.746 100.252 141.45 100.209 142.137 100.187C143.806 100.136 145.44 100.3 147.101 100.415C148.435 100.506 149.77 100.573 151.104 100.624C151.492 100.637 151.492 100.035 151.104 100.021V100.019Z" fill="#553597"/>
<path d="M136.9 96.2859C135.499 96.8884 134.336 97.9863 133.654 99.3519C133.48 99.6974 133.999 100.003 134.172 99.6572C134.814 98.3719 135.884 97.3731 137.203 96.8081C137.352 96.7438 137.384 96.5242 137.31 96.3957C137.219 96.2404 137.047 96.2243 136.898 96.2886L136.9 96.2859Z" fill="#553597"/>
<path d="M135.012 95.4209C133.659 96.4438 132.501 97.6917 131.594 99.1269C131.386 99.4563 131.907 99.7589 132.113 99.4322C132.964 98.0906 134.049 96.9017 135.314 95.9431C135.443 95.844 135.512 95.6834 135.421 95.5307C135.347 95.4022 135.141 95.3245 135.01 95.4236L135.012 95.4209Z" fill="#553597"/>
<path d="M133.18 94.7569C131.768 95.7985 130.618 97.1642 129.851 98.744C129.682 99.0921 130.201 99.3974 130.369 99.0493C131.089 97.5631 132.153 96.2591 133.483 95.2763C133.614 95.1799 133.68 95.0139 133.59 94.864C133.515 94.7354 133.309 94.6578 133.178 94.7569H133.18Z" fill="#553597"/>
<path d="M143.472 92.5023C144.6 94.7221 145.114 97.2097 144.977 99.6947C144.956 100.083 145.558 100.08 145.579 99.6947C145.721 97.1026 145.165 94.5106 143.99 92.197C143.814 91.8516 143.295 92.1568 143.472 92.5023Z" fill="#553597"/>
<path d="M150.415 47.1388C151.361 45.2804 151.297 43.8291 151.297 43.8291C151.605 43.6122 152.632 42.8276 152.822 41.5048C152.899 40.9612 152.915 39.7857 152.313 39.5367C151.819 39.3332 150.982 39.7884 150.433 40.739V33.4556H136.882C136.791 34.8105 136.679 36.8188 136.646 39.2609C136.564 45.1947 137.024 47.1548 137.502 48.1965C137.561 48.325 137.633 48.4642 137.74 48.649C137.997 49.0989 139.765 52.1943 143.081 52.438C145.336 52.604 147.564 51.4017 148.877 49.372" fill="white"/>
<path d="M150.674 47.2915C151.193 46.2525 151.645 45.0127 151.597 43.8292L151.447 44.0889C152.608 43.2615 153.295 41.9708 153.137 40.5275C153.068 39.8956 152.774 39.1699 152.027 39.186C151.212 39.2047 150.556 39.9411 150.171 40.5838L150.733 40.7364V33.453C150.733 33.2896 150.594 33.1531 150.433 33.1531H136.882C136.711 33.1531 136.593 33.2923 136.582 33.453C136.403 36.112 136.312 38.7763 136.342 41.4407C136.36 43.2374 136.4 45.077 136.767 46.8416C137.315 49.4819 139.508 51.9802 142.161 52.5988C144.814 53.2173 147.639 51.8035 149.139 49.522C149.353 49.198 148.831 48.8955 148.62 49.2168C147.328 51.1796 144.977 52.5024 142.595 52.0739C140.861 51.7633 139.425 50.5985 138.436 49.1793C137.904 48.4161 137.577 47.7146 137.377 46.8122C137.026 45.235 136.984 43.5855 136.954 41.9789C136.901 39.1378 136.997 36.2887 137.187 33.453L136.887 33.7529H150.439L150.139 33.453V40.7364C150.139 41.0363 150.548 41.1434 150.701 40.889C150.925 40.5168 151.206 40.1634 151.589 39.9411C151.789 39.826 152.092 39.6974 152.295 39.8715C152.525 40.0643 152.552 40.4927 152.565 40.7685C152.578 41.1086 152.557 41.4487 152.466 41.778C152.287 42.4421 151.854 43.0098 151.324 43.4409C151.174 43.5614 151.024 43.6391 151.003 43.8479C150.99 43.9872 150.998 44.1291 150.984 44.2657C150.901 45.2136 150.583 46.1401 150.161 46.9862C149.987 47.3317 150.506 47.6369 150.679 47.2915H150.674Z" fill="#553597"/>
<path d="M151.458 43.789C151.102 44.9726 151.163 45.3127 151.3 45.3876C151.672 45.5938 153.065 44.0675 153.875 42.4287C154.461 41.2452 154.646 40.2036 154.745 39.6252C154.833 39.1057 154.985 38.0025 154.846 36.5083C154.675 34.658 154.186 30.1808 150.982 27.9101C149.984 27.2032 148.748 26.831 147.173 26.7319C142.49 26.432 140.565 28.4269 137.042 28.4269C133.52 28.4269 131.728 37.973 138.503 35.6943C144.044 33.8306 145.643 33.0299 147.433 33.9377C148.992 34.7303 150.324 37.2875 150.281 39.2985C150.276 39.5502 150.23 40.6989 150.433 40.7337C150.602 40.7632 150.709 39.9867 151.369 39.6386C151.45 39.5957 151.936 39.3494 152.313 39.5341C152.961 39.8474 152.966 41.2559 152.632 42.2011C152.34 43.0286 151.779 43.5427 151.46 43.789H151.458Z" fill="#553597"/>
<path d="M138.845 37.3518C139.024 37.4643 139.206 37.2715 139.709 37.151C140.233 37.0251 140.516 37.1188 140.605 36.9421C140.661 36.827 140.605 36.6636 140.522 36.5672C140.153 36.1361 138.802 36.4628 138.692 36.9555C138.66 37.0974 138.727 37.2768 138.847 37.3518H138.845Z" fill="#553597"/>
<path d="M146.809 37.9944C146.959 37.9248 147.029 37.724 147.021 37.5767C147.007 37.3437 146.799 37.1965 146.52 37.0037C146.365 36.8965 146.175 36.76 145.879 36.685C145.683 36.6341 145.162 36.5002 144.929 36.7787C144.862 36.8591 144.79 37.0063 144.836 37.1402C144.91 37.3598 145.229 37.3196 145.737 37.5178C146.373 37.7668 146.569 38.1042 146.807 37.9944H146.809Z" fill="#553597"/>
<path d="M141.329 43.1651C141.257 43.9309 141.161 44.9324 141.565 45.1359C142.025 45.3688 142.921 44.445 143.1 44.6325C143.159 44.694 143.1 44.8333 143.079 44.8922C142.851 45.4625 141.896 45.9231 141.375 45.6607C140.653 45.2965 140.861 43.5828 140.984 42.5599C141.105 41.5772 141.396 40.5221 141.482 40.5355C141.514 40.5409 141.514 40.6962 141.511 40.8408C141.495 41.8958 141.372 42.7072 141.329 43.1677V43.1651Z" fill="#553597"/>
<path d="M144.665 40.4343C144.713 40.0962 144.552 39.7934 144.305 39.758C144.058 39.7227 143.818 39.9682 143.77 40.3063C143.722 40.6445 143.883 40.9474 144.13 40.9827C144.377 41.018 144.617 40.7725 144.665 40.4343Z" fill="#553597"/>
<path d="M140.053 40.3377C140.097 40.0332 139.949 39.7602 139.724 39.728C139.499 39.6958 139.281 39.9166 139.238 40.2211C139.194 40.5256 139.342 40.7986 139.567 40.8308C139.792 40.863 140.01 40.6422 140.053 40.3377Z" fill="#553597"/>
<path d="M143.054 47.5111C143.028 47.6289 143.084 47.7789 143.188 47.8485C143.621 48.135 145.055 47.072 144.919 46.6409C144.881 46.5257 144.734 46.4481 144.611 46.4454C144.373 46.44 144.314 46.7212 143.966 46.9916C143.52 47.3371 143.113 47.2594 143.057 47.5111H143.054Z" fill="#553597"/>
<path d="M141.958 52.4007C142.019 53.1183 142.014 53.7502 141.977 54.2911C141.891 55.6005 141.61 56.6395 142.25 57.6918C142.902 58.7683 144.194 59.3306 145.306 59.3922C147.641 59.5234 149.136 57.4482 149.465 56.9876C150.193 55.9754 150.441 54.9579 150.538 54.3688C150.498 51.9588 150.455 49.5489 150.415 47.1362" fill="white"/>
<path d="M141.656 52.4006C141.731 53.3405 141.682 54.2616 141.594 55.1988C141.514 56.0396 141.493 56.8778 141.883 57.6516C142.592 59.0601 144.352 59.8313 145.879 59.6814C147.181 59.5528 148.315 58.8084 149.168 57.8444C150.021 56.8804 150.687 55.7103 150.829 54.4491C150.893 53.868 150.821 53.2441 150.81 52.6603C150.8 52.0471 150.789 51.4339 150.778 50.8207C150.757 49.5943 150.736 48.3653 150.714 47.1389C150.709 46.7506 150.107 46.7506 150.112 47.1389C150.147 49.1123 150.179 51.0832 150.214 53.0566C150.222 53.4985 150.284 53.9805 150.225 54.4196C150.179 54.749 150.075 55.0837 149.965 55.397C149.754 55.9941 149.436 56.5484 149.051 57.0518C148.422 57.8712 147.588 58.6103 146.59 58.9289C145.245 59.36 143.576 58.9369 142.688 57.8043C142.113 57.0706 142.105 56.1976 142.188 55.3086C142.276 54.3339 142.338 53.3807 142.26 52.4006C142.228 52.0177 141.626 52.0123 141.658 52.4006H141.656Z" fill="#553597"/>
<path d="M140.583 51.6346C141.027 51.8997 141.771 52.2612 142.739 52.363C144.33 52.5317 145.544 51.8997 146.376 51.4686C147.588 50.8393 148.452 50.0199 149.037 49.3264" fill="white"/>
<path d="M140.431 51.8971C141.915 52.77 143.672 52.9226 145.282 52.3094C146.809 51.7284 148.189 50.7912 149.248 49.5433C149.497 49.2488 149.075 48.8204 148.823 49.1176C147.85 50.261 146.603 51.1393 145.21 51.6936C143.72 52.2853 142.124 52.1889 140.736 51.3749C140.401 51.1794 140.096 51.6989 140.431 51.8944V51.8971Z" fill="#553597"/>
<path d="M4.36475 96.907H20.7084C21.7889 96.907 22.6634 97.7853 22.6634 98.8644C22.6634 99.9462 21.7862 100.822 20.7084 100.822H4.36475V96.9043V96.907Z" fill="#553597"/>
<path d="M4.60815 97.5066H20.1628C20.9384 97.5066 21.5669 98.1359 21.5669 98.9124C21.5669 99.6889 20.9384 100.318 20.1628 100.318H4.60815V97.5093V97.5066Z" fill="white" stroke="#553597" stroke-miterlimit="10"/>
<path d="M3.80031 93.5034L20.144 93.4285L20.1627 97.346L3.81903 97.421C2.73854 97.4263 1.85864 96.5534 1.8533 95.4716C1.84795 94.3898 2.71982 93.5088 3.80031 93.5034Z" fill="#553597"/>
<path d="M4.34847 94.0096L19.9032 93.9399L19.9165 96.7489L4.36184 96.8185C3.58625 96.8212 2.95508 96.1946 2.9524 95.4207C2.94973 94.6442 3.57555 94.0122 4.34847 94.0096Z" fill="white" stroke="#553597" stroke-miterlimit="10"/>
<path d="M25.4556 93.541H5.48267V90.4321H25.4556C26.0466 90.4321 26.5254 90.9114 26.5254 91.5032V92.4699C26.5254 93.0617 26.0466 93.541 25.4556 93.541Z" fill="#553597"/>
<path d="M20.4302 93.541V90.4294H21.1015V92.6064V93.541H20.4302Z" fill="#A78ED7"/>
<path d="M22.6687 93.5732V90.4644H23.34V92.6414V93.5732H22.6687Z" fill="#A78ED7"/>
<path d="M1.31567 87.8103L22.4225 87.7697C22.7033 87.7692 22.9338 87.9964 22.9343 88.2802L22.9376 89.9752C22.9381 90.2564 22.7112 90.4871 22.4277 90.4876L1.32089 90.5282L1.31568 87.813L1.31567 87.8103Z" fill="#553597"/>
<path d="M1.60522 88.2251L21.1261 88.1876C21.4069 88.187 21.6374 88.4142 21.6379 88.698L21.6397 89.6245C21.6402 89.9057 21.4133 90.1364 21.1298 90.137L1.60896 90.1745L1.60522 88.2251Z" fill="white" stroke="#553597" stroke-miterlimit="10"/>
<path d="M179.473 100.859H2.52203C1.29311 100.859 0.296875 101.857 0.296875 103.087V103.09C0.296875 104.32 1.29311 105.318 2.52203 105.318H179.473C180.702 105.318 181.698 104.32 181.698 103.09V103.087C181.698 101.857 180.702 100.859 179.473 100.859Z" fill="white"/>
<path d="M179.473 105.015C179.047 105.015 178.622 105.015 178.197 105.015H174.568C172.661 105.015 170.751 105.015 168.844 105.015H161.286C158.243 105.015 155.197 105.015 152.153 105.015C148.652 105.015 145.149 105.015 141.648 105.015C137.81 105.015 133.975 105.015 130.137 105.015C126.034 105.015 121.932 105.015 117.832 105.015C113.732 105.015 109.271 105.015 104.989 105.015C100.616 105.015 96.2433 105.015 91.8706 105.015C87.4711 105.015 83.0689 105.015 78.6694 105.015C74.3716 105.015 70.0764 105.015 65.7785 105.015C61.6491 105.015 57.5198 105.015 53.3904 105.015C49.5151 105.015 45.6398 105.015 41.7645 105.015C38.2289 105.015 34.6959 105.015 31.1602 105.015H21.7943C19.2027 105.015 16.6112 105.015 14.0223 105.015C12.0325 105.015 10.0427 105.015 8.05019 105.015H4.14012C3.61058 105.015 3.08104 105.023 2.55149 105.015C1.81869 105.004 1.15007 104.621 0.810416 103.96C0.157847 102.685 1.12868 101.186 2.5301 101.159C2.64777 101.159 2.76278 101.159 2.88045 101.159H5.40782C6.9911 101.159 8.57171 101.159 10.155 101.159H16.8626C19.6654 101.159 22.4682 101.159 25.2684 101.159C28.5607 101.159 31.8502 101.159 35.1425 101.159H46.2041C50.1891 101.159 54.174 101.159 58.159 101.159C62.3632 101.159 66.5702 101.159 70.7744 101.159C75.1124 101.159 79.453 101.159 83.791 101.159C88.1772 101.159 92.5633 101.159 96.9521 101.159C101.322 101.159 105.69 101.159 110.06 101.159C114.28 101.159 118.503 101.159 122.723 101.159C126.732 101.159 130.741 101.159 134.75 101.159C138.46 101.159 142.169 101.159 145.879 101.159H155.852C158.716 101.159 161.583 101.159 164.448 101.159C166.74 101.159 169.029 101.159 171.321 101.159C172.966 101.159 174.613 101.159 176.258 101.159C177.173 101.159 178.085 101.159 178.999 101.159C179.152 101.159 179.307 101.159 179.459 101.159C180.098 101.167 180.7 101.456 181.069 101.992C181.944 103.267 180.997 104.983 179.483 105.012C179.096 105.02 179.096 105.623 179.483 105.615C180.962 105.585 182.158 104.308 181.995 102.811C181.853 101.526 180.762 100.575 179.483 100.554C179.36 100.554 179.237 100.554 179.114 100.554H176.533C174.918 100.554 173.303 100.554 171.685 100.554C169.417 100.554 167.151 100.554 164.883 100.554C162.046 100.554 159.211 100.554 156.373 100.554H146.365C142.651 100.554 138.938 100.554 135.224 100.554C131.204 100.554 127.184 100.554 123.167 100.554C118.909 100.554 114.649 100.554 110.391 100.554C106.134 100.554 101.656 100.554 97.2891 100.554C92.9217 100.554 88.45 100.554 84.0291 100.554C79.6563 100.554 75.2809 100.554 70.9081 100.554H58.2231C54.1981 100.554 50.173 100.554 46.1479 100.554C42.4545 100.554 38.7611 100.554 35.065 100.554C31.77 100.554 28.4724 100.554 25.1775 100.554C22.3559 100.554 19.5317 100.554 16.7101 100.554C14.4769 100.554 12.2438 100.554 10.0106 100.554C8.44066 100.554 6.86808 100.554 5.29817 100.554H2.82964C2.61033 100.554 2.39637 100.551 2.17707 100.581C0.708786 100.784 -0.275417 102.262 0.0776128 103.7C0.355757 104.828 1.3881 105.596 2.53277 105.615C3.00348 105.623 3.47686 105.615 3.95024 105.615C5.20991 105.615 6.46958 105.615 7.72926 105.615H13.6077C16.1939 105.615 18.7801 105.615 21.3637 105.615C24.4607 105.615 27.5604 105.615 30.6574 105.615C34.1904 105.615 37.7261 105.615 41.259 105.615C45.1611 105.615 49.0631 105.615 52.9651 105.615C57.1079 105.615 61.2506 105.615 65.3961 105.615C69.7126 105.615 74.0266 105.615 78.3431 105.615H91.6085C96.0053 105.615 100.399 105.615 104.796 105.615C109.121 105.615 113.448 105.615 117.773 105.615C122.097 105.615 126.018 105.615 130.142 105.615C133.999 105.615 137.853 105.615 141.709 105.615H152.257C155.312 105.615 158.366 105.615 161.42 105.615C163.942 105.615 166.464 105.615 168.986 105.615C170.896 105.615 172.808 105.615 174.717 105.615H178.293C178.689 105.615 179.085 105.615 179.483 105.615C179.882 105.615 179.871 105.012 179.483 105.012L179.473 105.015Z" fill="#553597"/>
<path d="M13.5249 105.318L3.35661 179.7C3.2737 180.316 3.72034 180.867 4.30605 180.867C4.76605 180.867 5.16188 180.519 5.24746 180.037L18.6866 105.315H13.5223L13.5249 105.318Z" fill="white"/>
<path d="M13.236 105.237C13.1424 105.928 13.0461 106.622 12.9525 107.313C12.6958 109.184 12.4417 111.056 12.185 112.925L11.0537 121.197L9.6763 131.278C9.17885 134.917 8.6814 138.556 8.18395 142.195C7.68383 145.861 7.18103 149.527 6.6809 153.196L5.30088 163.296C4.9211 166.081 4.53866 168.868 4.15888 171.653L3.37259 177.4C3.27096 178.139 3.16398 178.878 3.07037 179.617C2.94467 180.613 3.91283 181.555 4.89169 181.02C5.25809 180.819 5.47739 180.458 5.55495 180.053C5.61112 179.761 5.65926 179.467 5.71275 179.172C5.98019 177.686 6.24764 176.2 6.51509 174.714C6.95905 172.245 7.40301 169.779 7.84697 167.31C8.41396 164.164 8.97827 161.015 9.54525 157.868L11.4602 147.224C12.1208 143.55 12.7814 139.874 13.4419 136.2C14.0678 132.716 14.6963 129.233 15.3221 125.749C15.8704 122.702 16.4186 119.652 16.9669 116.604C17.3814 114.307 17.7933 112.007 18.2078 109.709C18.4378 108.435 18.6652 107.16 18.8952 105.888C18.9246 105.725 18.954 105.561 18.9834 105.395C19.0182 105.205 18.9032 105.015 18.6946 105.015H13.5302C13.1424 105.015 13.1424 105.618 13.5302 105.618H18.6946L18.4058 105.237C18.2854 105.91 18.1651 106.582 18.042 107.254L17.0632 112.698C16.5791 115.386 16.095 118.077 15.6109 120.766C15.0199 124.046 14.4315 127.326 13.8404 130.606C13.1959 134.186 12.5514 137.766 11.9095 141.347L9.9491 152.245C9.34467 155.608 8.74024 158.974 8.13314 162.337C7.61964 165.192 7.10614 168.046 6.59264 170.901L5.49611 176.995C5.32495 177.946 5.15913 178.899 4.98262 179.852C4.95052 180.021 4.91843 180.187 4.80343 180.326C4.33807 180.902 3.60527 180.364 3.65608 179.743C3.67748 179.477 3.72829 179.212 3.76574 178.947C3.96365 177.504 4.16156 176.058 4.35679 174.615C4.6911 172.173 5.02541 169.731 5.35704 167.288C5.78496 164.164 6.2102 161.039 6.63811 157.916C7.12219 154.374 7.60627 150.828 8.09034 147.286C8.59047 143.62 9.09327 139.951 9.59339 136.286C10.0694 132.794 10.5482 129.302 11.0242 125.81C11.4414 122.752 11.8613 119.694 12.2786 116.636L13.2226 109.733L13.7495 105.885C13.7709 105.722 13.795 105.559 13.8164 105.398C13.8672 105.018 13.2895 104.854 13.236 105.237Z" fill="#553597"/>
<path d="M167.186 105.318L177.421 179.815C177.499 180.374 177.047 180.87 176.464 180.87C175.996 180.87 175.595 180.543 175.514 180.099L161.995 105.318H167.186Z" fill="white"/>
<path d="M166.897 105.398C166.991 106.081 167.084 106.764 167.178 107.449C167.432 109.291 167.684 111.134 167.938 112.979C168.315 115.715 168.689 118.449 169.066 121.186C169.521 124.496 169.976 127.805 170.43 131.115C170.93 134.749 171.428 138.385 171.928 142.019C172.428 145.652 172.925 149.278 173.423 152.909C173.888 156.288 174.351 159.67 174.816 163.05C175.201 165.861 175.589 168.67 175.974 171.482C176.244 173.447 176.515 175.41 176.785 177.375C176.897 178.198 177.079 179.038 177.127 179.868C177.173 180.629 176.057 180.84 175.825 180.109C175.803 180.04 175.795 179.965 175.782 179.895C175.72 179.561 175.661 179.226 175.6 178.891C175.319 177.341 175.038 175.788 174.757 174.237C174.305 171.744 173.856 169.251 173.404 166.758C172.835 163.604 172.262 160.447 171.693 157.292C171.053 153.755 170.414 150.215 169.772 146.678C169.114 143.036 168.456 139.395 167.799 135.753C167.173 132.288 166.547 128.823 165.918 125.358C165.375 122.348 164.83 119.338 164.287 116.329C163.875 114.055 163.466 111.779 163.054 109.506L162.372 105.727C162.343 105.567 162.313 105.403 162.284 105.243L161.995 105.623H167.186C167.574 105.623 167.574 105.021 167.186 105.021H161.995C161.786 105.021 161.671 105.213 161.706 105.401C161.829 106.081 161.952 106.761 162.075 107.441C162.409 109.289 162.744 111.136 163.078 112.987C163.568 115.697 164.06 118.409 164.549 121.119C165.148 124.439 165.75 127.76 166.349 131.08C167.004 134.709 167.662 138.34 168.317 141.968C168.973 145.596 169.633 149.249 170.291 152.888C170.901 156.264 171.511 159.641 172.123 163.017C172.637 165.853 173.147 168.689 173.661 171.525C174.022 173.517 174.38 175.512 174.741 177.504C174.899 178.38 175.044 179.258 175.215 180.128C175.308 180.602 175.64 180.99 176.113 181.124C177.004 181.376 177.825 180.626 177.71 179.727C177.681 179.502 177.649 179.277 177.616 179.052C177.424 177.659 177.234 176.267 177.041 174.874C176.71 172.47 176.381 170.063 176.049 167.658C175.619 164.522 175.188 161.384 174.757 158.248C174.268 154.682 173.779 151.115 173.287 147.548C172.781 143.869 172.276 140.19 171.77 136.511L170.31 125.883C169.885 122.795 169.462 119.708 169.037 116.62C168.716 114.293 168.398 111.967 168.077 109.64L167.542 105.741C167.518 105.575 167.496 105.409 167.472 105.24C167.419 104.857 166.841 105.021 166.892 105.401L166.897 105.398Z" fill="#553597"/>
<path d="M100.258 77.6969C108.68 77.6219 117.102 77.5496 125.526 77.4747C126.056 77.4693 126.508 77.8549 126.588 78.3797C127.73 85.8104 128.872 93.2411 130.014 100.672H102.499C101.405 93.4206 100.311 86.1719 99.2147 78.9206C99.1184 78.278 99.6105 77.6996 100.258 77.6942V77.6969Z" fill="white"/>
<path d="M100.258 77.9995C106.698 77.9433 113.135 77.887 119.575 77.8308C121.18 77.8174 122.785 77.8013 124.389 77.788C124.97 77.7826 125.941 77.563 126.235 78.2351C126.366 78.5377 126.371 78.9287 126.419 79.2527C126.483 79.6704 126.548 80.0881 126.612 80.5059C127.101 83.695 127.591 86.8815 128.083 90.0707C128.631 93.6321 129.177 97.1935 129.725 100.755L130.014 100.375H103.614C103.277 100.375 102.876 100.313 102.544 100.375C102.528 100.377 102.512 100.375 102.496 100.375L102.785 100.597C101.86 94.4675 100.934 88.3382 100.009 82.2089C99.8806 81.352 99.7495 80.4951 99.6211 79.6383C99.5676 79.2848 99.4152 78.8323 99.5543 78.4842C99.672 78.1923 99.9474 78.0182 100.258 78.0022C100.643 77.9834 100.645 77.3809 100.258 77.3997C99.7094 77.4265 99.2226 77.7264 99.006 78.2458C98.9044 78.4922 98.8857 78.7439 98.9231 79.0063C98.9819 79.4455 99.0568 79.8846 99.121 80.3238C99.3671 81.9492 99.6131 83.5745 99.8565 85.1999C100.357 88.5176 100.859 91.8353 101.36 95.153C101.64 97.0194 101.924 98.8885 102.205 100.755C102.223 100.883 102.373 100.977 102.494 100.977H128.893C129.246 100.977 129.61 101.004 129.963 100.977C129.979 100.977 129.995 100.977 130.011 100.977C130.225 100.977 130.329 100.784 130.3 100.597C129.297 94.0659 128.294 87.5376 127.288 81.0066C127.163 80.1926 127.04 79.3785 126.914 78.5672C126.826 77.9861 126.59 77.4773 125.999 77.2631C125.713 77.1587 125.419 77.1801 125.119 77.1828C124.673 77.1855 124.229 77.1908 123.782 77.1935C122.959 77.2015 122.132 77.2069 121.308 77.2149C118.011 77.2444 114.713 77.2738 111.416 77.3006C107.695 77.3327 103.972 77.3649 100.252 77.3997C99.8645 77.4024 99.8645 78.0049 100.252 78.0022L100.258 77.9995Z" fill="#553597"/>
<path d="M97.0618 100.675C98.7975 97.0087 100.533 93.3429 102.266 89.6771C102.443 89.3076 102.815 89.0692 103.224 89.0666C110.648 89.0291 118.072 88.9889 125.497 88.9514C126.219 88.9487 126.735 89.6476 126.518 90.3358C125.44 93.782 124.363 97.2283 123.285 100.675H97.0591H97.0618Z" fill="white"/>
<path d="M97.3211 100.827C98.6744 97.9674 100.028 95.1075 101.384 92.2477C101.726 91.5221 102.071 90.7964 102.413 90.0734C102.55 89.7869 102.665 89.5218 102.986 89.412C103.307 89.3022 103.745 89.3692 104.093 89.3665C105.671 89.3584 107.249 89.3504 108.827 89.3424C111.983 89.3263 115.141 89.3103 118.297 89.2942C119.875 89.2862 121.453 89.2781 123.031 89.2701C123.809 89.2647 124.587 89.254 125.366 89.2567C126.045 89.2594 126.39 89.7414 126.192 90.3867C125.149 93.7954 124.063 97.1935 122.999 100.597L123.288 100.375H98.1422C97.7999 100.375 97.4495 100.351 97.1099 100.375C97.0938 100.375 97.0778 100.375 97.0617 100.375C96.6739 100.375 96.6739 100.977 97.0617 100.977H122.207C122.547 100.977 122.9 101.004 123.239 100.977C123.255 100.977 123.271 100.977 123.288 100.977C123.424 100.977 123.539 100.883 123.576 100.755C124.582 97.5443 125.585 94.331 126.59 91.1204C126.778 90.5233 127.029 89.9342 126.689 89.3397C126.374 88.7854 125.826 88.6488 125.232 88.6542C123.542 88.6622 121.854 88.6729 120.164 88.681C116.829 88.6997 113.494 88.7158 110.161 88.7345C108.495 88.7426 106.826 88.7533 105.16 88.7613C104.737 88.7613 104.315 88.7667 103.892 88.7667C103.545 88.7667 103.162 88.7238 102.825 88.8336C102.154 89.0478 101.943 89.6691 101.664 90.2555C100.044 93.6803 98.423 97.1025 96.8023 100.527C96.6365 100.875 97.1553 101.181 97.3211 100.833V100.827Z" fill="#553597"/>
<path d="M21.3423 72.4673C22.0938 73.134 23.3749 74.0766 25.1801 74.5452C29.4619 75.6591 33.0216 73.1688 33.5993 72.7511C33.1313 75.2816 32.6927 77.895 32.2888 80.5861C31.9545 82.814 31.6603 84.9964 31.4036 87.1305C35.3912 88.4881 41.2857 89.9984 48.5362 90.1403C56.2012 90.2902 62.4434 88.8523 66.5755 87.559C66.5755 78.4332 66.5701 69.3075 66.5675 60.1818C66.9365 60.6504 67.2842 61.0682 67.5971 61.4297C67.5971 61.4297 68.0331 61.9331 68.4155 62.3401C69.1189 63.0872 70.7289 64.3484 72.9247 65.7703C74.2458 64.0056 75.5965 62.0562 76.9364 59.9167C78.0008 58.2191 78.9502 56.5669 79.8007 54.9817C79.0064 53.9052 77.8056 52.2718 76.348 50.2635C74.4438 47.6393 73.826 46.7477 72.347 44.7206C69.4077 40.6933 67.9207 38.6663 67.0489 37.9192C63.8743 35.2013 60.8628 34.4596 59.9963 34.256C58.0814 33.8089 57.3459 34.0365 50.9192 34.1757C46.0249 34.2828 46.402 34.1516 44.8989 34.2453C35.311 34.8451 30.3606 38.6663 30.3606 38.6663C28.8334 39.6008 26.4612 41.344 24.6639 44.2949C23.4818 46.2335 23.0325 47.9018 22.4869 49.9181C22.281 50.6786 21.9119 52.245 21.1123 60.131C20.8582 62.6453 20.7298 63.928 20.7111 65.1222C20.6656 68.1856 21.0106 70.7187 21.3396 72.4673H21.3423Z" fill="#A78ED7"/>
<path d="M38.3945 35.0273C38.9 36.2296 40.2025 38.827 43.0374 40.4202C43.821 40.8621 45.0566 41.5368 46.7629 41.569C49.5176 41.6172 51.4432 39.9409 52.2081 39.2742C54.3798 37.381 55.1019 35.038 55.3426 34.0472C54.7676 33.916 53.9626 33.8036 53.0105 33.8812C52.3659 33.9348 51.815 34.0606 51.3764 34.1972C51.2694 34.465 50.3949 36.5241 48.167 37.148C46.5837 37.5925 45.2759 37.0436 44.9951 36.9204C43.2942 36.1653 42.6496 34.6578 42.5212 34.3391C42.0184 34.315 41.4274 34.3257 40.7695 34.4114C39.8066 34.5373 39.0043 34.7863 38.3945 35.0273Z" fill="white"/>
<path d="M34.4606 51.5944C34.145 56.4786 33.9738 61.3681 34.0086 66.263C34.0193 67.6902 34.0434 69.1175 34.0861 70.5447C34.0968 70.9303 34.6986 70.933 34.6879 70.5447C34.5542 65.8881 34.5889 61.2262 34.7922 56.5696C34.8644 54.9094 34.958 53.2519 35.065 51.5944C35.0891 51.2061 34.4873 51.2088 34.4632 51.5944H34.4606Z" fill="#553597"/>
<path d="M60.8147 52.2184C62.0877 54.7596 63.6362 57.1642 65.4575 59.3492C66.2492 60.2998 67.1104 61.1888 67.9903 62.059C69.1724 63.2319 70.3625 64.3914 71.5794 65.5267C72.6652 66.5416 73.7725 67.535 74.8931 68.507C75.1846 68.7587 75.6125 68.3356 75.3183 68.0813C73.1038 66.1613 70.975 64.153 68.8835 62.0965C67.1077 60.3507 65.4549 58.5378 64.0347 56.4867C63.0265 55.03 62.1278 53.4983 61.3335 51.9158C61.1597 51.5704 60.6408 51.873 60.8147 52.2211V52.2184Z" fill="#553597"/>
<path d="M70.9643 63.8531C72.553 62.5758 73.8688 60.8353 73.941 58.7226C73.9731 57.8068 73.6709 56.8856 73.8314 55.9752C73.949 55.3004 74.2833 54.6819 74.7407 54.1758C75.4975 53.335 76.5085 52.7753 77.5328 52.3255C77.8858 52.1702 77.581 51.6507 77.2279 51.806C75.6874 52.4808 74.1041 53.4823 73.4543 55.113C73.1173 55.9592 73.1868 56.8 73.2858 57.6836C73.4088 58.7627 73.2911 59.8071 72.8017 60.7898C72.2748 61.8421 71.4484 62.699 70.5391 63.43C70.2369 63.6737 70.6648 64.0968 70.9643 63.8558V63.8531Z" fill="white"/>
<path d="M21.3824 62.8007C22.3238 62.2732 23.3615 61.8796 24.4526 61.8501C25.5438 61.8207 26.4745 62.1822 27.3812 62.7391C28.0765 63.1649 28.7585 63.5826 29.5903 63.6522C30.2134 63.7031 30.8312 63.5532 31.3929 63.2934C32.4092 62.8248 33.2329 61.9947 33.9363 61.1459C34.1823 60.8487 33.7571 60.4202 33.5111 60.7201C32.5482 61.8823 31.1602 63.2506 29.502 63.0417C28.681 62.9373 28.0177 62.4017 27.3197 62.0028C26.421 61.4913 25.4288 61.2101 24.3911 61.2476C23.2144 61.2932 22.0938 61.7082 21.0775 62.2786C20.7405 62.4687 21.0427 62.9882 21.3824 62.798V62.8007Z" fill="white"/>
<path d="M49.4724 168.092C49.4056 168.863 49.2852 170.03 49.0659 171.447C48.7771 173.305 48.5765 174.154 48.3866 175.121C48.1272 176.449 47.9694 178.409 48.531 181.036C56.2254 181.079 63.9199 181.124 71.6143 181.167C71.7988 180.771 72.5049 179.14 71.7855 177.571C71.3362 176.591 70.5552 176.096 69.6566 175.555C68.8489 175.067 67.4582 174.379 65.4844 174.119C65.2277 172.692 64.9709 171.262 64.7142 169.835C59.6354 169.254 54.5566 168.673 49.4778 168.094L49.4724 168.092Z" fill="white"/>
<path d="M49.1728 168.092C49.0097 169.934 48.7476 171.766 48.3919 173.579C48.1244 174.947 47.8436 176.283 47.849 177.689C47.8543 178.843 48.0041 179.989 48.2394 181.116C48.2662 181.245 48.4026 181.336 48.5283 181.339C54.5324 181.373 60.5366 181.406 66.5408 181.44C68.231 181.451 69.9213 181.459 71.6116 181.47C71.7105 181.47 71.8282 181.414 71.871 181.32C72.7001 179.523 72.5771 177.365 70.951 176.063C69.4185 174.837 67.4902 174.095 65.5593 173.828L65.7705 174.039C65.5138 172.612 65.257 171.182 65.0003 169.755C64.9762 169.616 64.8345 169.549 64.7115 169.532C59.6326 168.951 54.5538 168.37 49.475 167.792C49.0899 167.749 49.0953 168.352 49.475 168.394C54.5538 168.976 59.6326 169.557 64.7115 170.135L64.4226 169.913C64.6794 171.34 64.9361 172.77 65.1929 174.197C65.2089 174.288 65.3105 174.395 65.4041 174.409C67.1693 174.652 68.8141 175.287 70.277 176.304C71.1141 176.888 71.6945 177.702 71.7881 178.741C71.8576 179.515 71.6811 180.316 71.3548 181.017L71.6142 180.867C65.6101 180.833 59.6059 180.8 53.6017 180.766C51.9115 180.755 50.2212 180.747 48.5309 180.736L48.8198 180.958C48.4534 179.207 48.317 177.386 48.6031 175.614C48.8519 174.079 49.2076 172.566 49.4322 171.027C49.574 170.052 49.689 169.075 49.7746 168.095C49.8093 167.709 49.2076 167.712 49.1728 168.095V168.092Z" fill="#553597"/>
<path d="M49.3306 171.921C50.6037 171.841 51.8981 172.095 52.9545 172.845C53.7756 173.429 54.3399 174.299 55.1797 174.861C55.9499 175.375 56.7844 175.547 57.699 175.531C58.849 175.512 60.0044 175.373 61.1437 175.228C62.6307 175.038 64.1044 174.762 65.5619 174.409C65.939 174.318 65.7786 173.737 65.4015 173.828C62.9811 174.414 60.4831 174.81 57.9932 174.92C57.0759 174.96 56.2655 174.864 55.4846 174.342C54.6608 173.79 54.1019 172.933 53.2968 172.352C52.1602 171.53 50.7133 171.233 49.3306 171.319C48.9455 171.343 48.9428 171.945 49.3306 171.921Z" fill="#553597"/>
<path d="M48.1272 179.354L72.0984 179.601C72.0984 179.601 72.1171 180.763 71.3924 181.167C70.8922 181.448 70.2718 181.224 70.1086 181.167C69.3116 180.892 68.9613 181.17 59.8708 181.167C57.2953 181.167 53.5189 181.143 48.5257 181.036C48.392 180.474 48.2582 179.914 48.1245 179.352L48.1272 179.354Z" fill="#553597"/>
<path d="M65.808 177.054C65.9765 176.511 66.2653 176.007 66.6558 175.592C66.744 175.498 66.835 175.41 66.9286 175.327C66.9741 175.287 67.0168 175.249 67.0623 175.212C67.0864 175.193 67.1104 175.172 67.1345 175.153C67.1024 175.177 67.1452 175.145 67.1559 175.137C67.3084 175.024 67.4635 174.923 67.6266 174.829C67.9636 174.636 67.6614 174.117 67.3217 174.31C66.3242 174.88 65.5646 175.793 65.2223 176.896C65.1073 177.268 65.6876 177.426 65.8026 177.057L65.808 177.054Z" fill="#553597"/>
<path d="M67.6401 177.384C67.8433 176.934 68.1028 176.545 68.4371 176.2C68.5815 176.053 68.7339 175.913 68.8971 175.785C68.9238 175.763 68.865 175.809 68.9105 175.774C68.9319 175.758 68.9533 175.742 68.972 175.729C69.0067 175.705 69.0388 175.68 69.0736 175.656C69.1431 175.608 69.2127 175.563 69.2849 175.52C69.424 175.434 69.4774 175.249 69.3919 175.107C69.3063 174.966 69.1191 174.915 68.98 175C68.175 175.498 67.5117 176.216 67.1212 177.081C67.0544 177.228 67.0784 177.405 67.2282 177.493C67.3566 177.568 67.5732 177.533 67.6401 177.386V177.384Z" fill="#553597"/>
<path d="M23.1797 168.625C23.1128 169.396 22.9925 170.563 22.7732 171.98C22.4843 173.838 22.2837 174.687 22.0939 175.654C21.8344 176.982 21.6766 178.942 22.2383 181.569C29.9327 181.612 37.6272 181.657 45.3216 181.7C45.5061 181.304 46.2122 179.673 45.4928 178.104C45.0434 177.124 44.2625 176.628 43.3639 176.088C42.5562 175.6 41.1655 174.912 39.1917 174.652C38.935 173.225 38.6782 171.795 38.4215 170.368C33.3427 169.787 28.2639 169.206 23.185 168.627L23.1797 168.625Z" fill="white"/>
<path d="M22.8801 168.625C22.7169 170.467 22.4548 172.299 22.0991 174.112C21.8317 175.48 21.5509 176.816 21.5562 178.222C21.5616 179.376 21.7113 180.522 21.9467 181.649C21.9734 181.778 22.1098 181.869 22.2355 181.872C28.2397 181.906 34.2439 181.939 40.2481 181.973C41.9383 181.984 43.6286 181.992 45.3188 182.003C45.4178 182.003 45.5355 181.947 45.5783 181.853C46.4074 180.056 46.2843 177.898 44.6583 176.596C43.1258 175.37 41.1975 174.628 39.2665 174.361L39.4778 174.572C39.2211 173.145 38.9643 171.715 38.7076 170.288C38.6835 170.148 38.5418 170.082 38.4187 170.065C33.3399 169.484 28.2611 168.903 23.1823 168.325C22.7972 168.282 22.8025 168.885 23.1823 168.927C28.2611 169.508 33.3399 170.09 38.4187 170.668L38.1299 170.446C38.3866 171.873 38.6434 173.303 38.9001 174.73C38.9162 174.821 39.0178 174.928 39.1114 174.942C40.8766 175.185 42.5214 175.82 43.9843 176.837C44.8214 177.421 45.4018 178.235 45.4954 179.274C45.5649 180.048 45.3884 180.849 45.0621 181.55L45.3215 181.4C39.3174 181.365 33.3132 181.333 27.309 181.299C25.6187 181.288 23.9285 181.28 22.2382 181.269L22.5271 181.491C22.1607 179.74 22.0243 177.919 22.3104 176.147C22.5592 174.612 22.9149 173.099 23.1395 171.56C23.2813 170.585 23.3963 169.608 23.4818 168.628C23.5166 168.242 22.9149 168.245 22.8801 168.628V168.625Z" fill="#553597"/>
<path d="M23.0379 172.454C24.3109 172.374 25.6054 172.628 26.6618 173.378C27.4829 173.962 28.0472 174.832 28.8869 175.394C29.6572 175.908 30.4916 176.08 31.4063 176.064C32.5563 176.045 33.7117 175.906 34.851 175.761C36.338 175.571 37.8116 175.295 39.2692 174.942C39.6463 174.851 39.4859 174.27 39.1088 174.361C36.6884 174.947 34.1904 175.343 31.7005 175.453C30.7831 175.493 29.9728 175.397 29.1918 174.875C28.3681 174.323 27.8091 173.466 27.0041 172.885C25.8675 172.063 24.4206 171.766 23.0379 171.852C22.6528 171.876 22.6501 172.478 23.0379 172.454Z" fill="#553597"/>
<path d="M21.8371 179.885L45.8084 180.131C45.8084 180.131 45.8271 181.293 45.1023 181.698C44.6022 181.979 43.9817 181.754 43.8186 181.698C43.0216 181.422 42.6712 181.7 33.5807 181.698C31.0052 181.698 27.2289 181.673 22.2356 181.566C22.1019 181.004 21.9682 180.444 21.8345 179.882L21.8371 179.885Z" fill="#553597"/>
<path d="M39.5153 177.584C39.6838 177.041 39.9726 176.537 40.3631 176.122C40.4513 176.029 40.5423 175.94 40.6359 175.857C40.6813 175.817 40.7241 175.78 40.7696 175.742C40.7937 175.723 40.8177 175.702 40.8418 175.683C40.8097 175.707 40.8525 175.675 40.8632 175.667C41.0156 175.555 41.1708 175.453 41.3339 175.359C41.6709 175.166 41.3687 174.647 41.029 174.84C40.0314 175.41 39.2719 176.323 38.9296 177.426C38.8145 177.799 39.3949 177.957 39.5099 177.587L39.5153 177.584Z" fill="#553597"/>
<path d="M41.3474 177.916C41.5506 177.467 41.81 177.078 42.1444 176.733C42.2888 176.586 42.4412 176.446 42.6044 176.318C42.6311 176.296 42.5723 176.342 42.6177 176.307C42.6391 176.291 42.6605 176.275 42.6792 176.262C42.714 176.238 42.7461 176.213 42.7809 176.189C42.8504 176.141 42.9199 176.096 42.9922 176.053C43.1312 175.967 43.1847 175.782 43.0991 175.64C43.0136 175.498 42.8263 175.448 42.6873 175.533C41.8823 176.031 41.219 176.749 40.8285 177.614C40.7617 177.761 40.7857 177.938 40.9355 178.026C41.0639 178.101 41.2805 178.066 41.3474 177.919V177.916Z" fill="#553597"/>
<path d="M31.5266 86.1721C29.6813 101.673 27.9669 117.188 26.389 132.716C25.1775 144.624 24.0462 156.538 22.9924 168.459C23.4444 169.27 23.8991 170.084 24.3511 170.896C25.8514 171.616 27.8065 172.347 30.1627 172.738C33.7224 173.33 36.7739 172.915 38.8894 172.4C39.887 172.157 40.6198 171.308 40.7241 170.288C43.0215 147.594 45.3189 124.903 47.6136 102.209C48.5683 102.257 48.1645 102.236 49.1193 102.284C49.138 124.212 49.1567 146.14 49.1781 168.068C49.1781 169.109 49.8441 170.033 50.8309 170.368C52.5506 170.952 54.7784 171.498 57.4101 171.651C60.3119 171.819 62.8045 171.452 64.7034 170.995C64.7034 170.995 65.8507 170.173 66.5595 168.633C68.9424 163.473 66.8964 97.4213 66.5835 87.5565C54.8988 87.0933 43.2141 86.6327 31.5293 86.1694L31.5266 86.1721Z" fill="#553597"/>
<path d="M72.355 65.998C74.5079 68.0117 78.7817 71.3856 82.7078 70.261C85.7888 69.38 87.5914 65.516 90.9077 57.756C93.0874 52.6549 93.4164 50.8983 95.5105 45.9231C97.3906 41.4593 99.2013 37.9488 100.415 35.7183C101.13 34.0099 101.721 33.1316 102.675 31.2491C103.192 30.2289 103.395 29.7442 103.269 29.1578C103.192 28.7963 102.964 28.2849 102.638 28.2501C102.103 28.1938 101.531 29.4524 101.528 29.4497C101.525 29.4497 102.467 28.2474 102.52 26.9353C102.544 26.3248 102.368 26.0383 102.213 25.8883C102.165 25.8428 101.991 25.6714 101.729 25.6393C101.349 25.5911 100.948 25.8455 100.712 26.2793C100.988 25.6393 101.033 25.1118 101.033 24.7985C101.033 24.3915 100.964 24.1933 100.859 24.0433C100.825 23.9952 100.605 23.6765 100.276 23.6578C99.9795 23.6417 99.7629 23.8773 99.442 24.2388C99.2387 24.4664 98.9713 24.8119 98.7306 25.2912C98.5915 24.9886 98.2652 24.3807 97.7945 24.3486C97.2409 24.3138 96.7916 25.085 96.4813 25.6527C95.909 26.6943 95.0291 28.4562 94.0288 31.1447C93.9031 30.4967 93.6089 29.6184 92.8949 28.8793C92.6622 28.641 91.7341 27.677 91.0548 27.9635C90.8008 28.0707 90.6029 28.3438 90.5627 28.5982C90.5066 28.9623 90.7633 29.372 90.996 29.7416C91.0013 29.7469 91.004 29.7523 91.004 29.755C91.3597 30.3146 91.8278 31.3777 92.3225 33.5814C92.0364 34.2375 91.7288 34.9069 91.3998 35.5897C90.8302 36.776 90.2445 37.8899 89.6588 38.9369C89.6588 38.9369 89.4341 39.3385 89.1961 39.7456C87.3801 42.8678 85.8075 45.3902 84.6308 47.2271C84.6308 47.2271 84.0638 48.1108 83.4995 48.9703C80.496 53.5546 76.5967 58.8967 74.861 61.2477" fill="white"/>
<path d="M72.1438 66.2096C73.6335 67.5993 75.2783 68.8846 77.121 69.7683C78.9637 70.652 81.1461 71.1714 83.1252 70.4404C84.318 70.0013 85.2594 69.131 86.027 68.1376C87.1369 66.7023 87.9579 65.0555 88.7308 63.4221C89.8488 61.063 90.8811 58.6557 91.868 56.2377C92.6623 54.2937 93.363 52.3149 94.0905 50.3467C95.7647 45.8106 97.7572 41.3924 100.012 37.1161C100.21 36.7412 100.41 36.3663 100.611 35.9941C100.865 35.5282 101.047 35.0194 101.285 34.5401C101.801 33.4984 102.381 32.4943 102.908 31.458C103.341 30.6038 103.834 29.7095 103.459 28.7428C103.307 28.3518 103.012 27.9047 102.536 27.9529C102.154 27.9903 101.876 28.3277 101.667 28.6169C101.512 28.8312 101.397 29.0641 101.269 29.2971C101.082 29.6398 101.576 29.9237 101.788 29.6023C102.384 28.6946 102.946 27.6396 102.801 26.5122C102.742 26.0436 102.504 25.6206 102.06 25.4224C101.41 25.1332 100.777 25.5697 100.453 26.124L101.004 26.3569C101.336 25.5536 101.64 24.2522 100.865 23.5989C99.8673 22.7554 98.8644 24.3808 98.4739 25.1386H98.9928C98.6905 24.4932 98.0647 23.7435 97.2838 24.1773C96.6419 24.5334 96.2942 25.3501 95.9679 25.974C95.1068 27.6128 94.3873 29.3265 93.7401 31.0617H94.3205C94.144 30.1861 93.7615 29.3613 93.1491 28.708C92.7265 28.2554 92.1809 27.7494 91.5524 27.6315C90.6885 27.4709 90.0547 28.3465 90.3435 29.1418C90.5495 29.7121 90.9506 30.1995 91.1833 30.7645C91.5658 31.6963 91.8145 32.6817 92.0365 33.6618L92.0659 33.4288C90.1617 37.7694 87.6878 41.8235 85.1685 45.8267C82.9192 49.4015 80.5309 52.8852 78.0758 56.3207C76.9311 57.922 75.7757 59.5126 74.6097 61.0951C74.3797 61.4084 74.9012 61.7083 75.1285 61.4004C78.4903 56.8375 81.7879 52.2211 84.8502 47.4467C86.4201 45.002 87.9312 42.5197 89.3914 40.0107C90.2018 38.6183 90.964 37.1937 91.6621 35.7397C91.8519 35.3461 92.0365 34.9471 92.2183 34.5508C92.3842 34.1839 92.673 33.7796 92.5847 33.3726C92.4296 32.6523 92.2344 31.932 91.9964 31.2331C91.8332 30.7511 91.646 30.2664 91.3973 29.8192C91.2662 29.5836 91.1031 29.364 90.9854 29.1204C90.8223 28.7856 90.8223 28.2206 91.3304 28.2099C91.8386 28.1992 92.3547 28.7455 92.6837 29.0882C93.248 29.68 93.5796 30.4217 93.7401 31.2197C93.8043 31.5383 94.2269 31.4714 94.3205 31.2197C94.8928 29.6827 95.5267 28.1671 96.2675 26.705C96.5323 26.1802 96.7943 25.6313 97.1367 25.152C97.3025 24.9217 97.5806 24.5441 97.9042 24.686C98.1851 24.8092 98.3536 25.1814 98.4766 25.4411C98.5729 25.6447 98.8965 25.6313 98.9954 25.4411C99.1907 25.0636 99.4207 24.7182 99.7015 24.4022C99.9582 24.1157 100.258 23.7515 100.584 24.1639C100.985 24.6726 100.638 25.6848 100.426 26.1963C100.295 26.5176 100.809 26.7157 100.977 26.4292C101.197 26.0543 101.675 25.7143 102.036 26.132C102.312 26.4533 102.245 26.9996 102.17 27.3771C102.026 28.0948 101.67 28.6973 101.274 29.2971L101.793 29.6023C101.913 29.3828 102.023 29.1578 102.17 28.9517C102.256 28.8312 102.373 28.6544 102.512 28.5902C102.705 28.5018 102.804 28.7267 102.879 28.8927C103.288 29.8139 102.577 30.8127 102.167 31.5999C101.678 32.5398 101.151 33.4583 100.688 34.4115C100.474 34.8534 100.301 35.322 100.065 35.7531C99.8753 36.1039 99.6854 36.4573 99.5009 36.8108C97.3506 40.8863 95.4357 45.0957 93.8096 49.4095C93.1357 51.1929 92.5125 52.995 91.8198 54.7703C90.8998 57.1241 89.8942 59.4457 88.8539 61.7485C88.0783 63.4649 87.2759 65.1921 86.257 66.78C85.583 67.8323 84.7753 68.8766 83.6814 69.5193C82.1891 70.3976 80.3544 70.3012 78.7551 69.779C76.7974 69.139 75.0429 67.9233 73.4891 66.5952C73.1788 66.3301 72.8766 66.0596 72.5797 65.7812C72.2829 65.5027 71.871 65.9418 72.1545 66.2069L72.1438 66.2096Z" fill="#553597"/>
<path d="M96.19 31.5304C97.233 29.5248 98.1771 27.4683 99.0195 25.3716C99.164 25.0128 98.5836 24.8548 98.4392 25.2109C97.6154 27.2594 96.6901 29.2677 95.6684 31.2278C95.4892 31.5706 96.0081 31.8758 96.1873 31.5331L96.19 31.5304Z" fill="#553597"/>
<path d="M97.9952 32.4355C99.0489 30.4646 100.041 28.4617 100.972 26.4293C101.132 26.0785 100.613 25.7733 100.453 26.124C99.525 28.1564 98.53 30.1594 97.4763 32.1302C97.2944 32.4729 97.8133 32.7755 97.9952 32.4355Z" fill="#553597"/>
<path d="M99.8084 33.2414C100.506 31.8972 101.242 30.5771 102.02 29.2757C102.221 28.941 101.699 28.6384 101.501 28.9705C100.726 30.2692 99.9876 31.592 99.2895 32.9362C99.1103 33.2789 99.6292 33.5842 99.8084 33.2414Z" fill="#553597"/>
<path d="M95.0747 37.373C95.1416 35.0113 94.826 32.6495 94.1387 30.3895C94.0263 30.02 93.446 30.1779 93.5583 30.5501C94.2323 32.762 94.5398 35.0621 94.473 37.373C94.4623 37.7613 95.064 37.7613 95.0747 37.373Z" fill="#553597"/>
<path d="M43.6443 27.0586C43.4705 29.5141 43.2966 31.9696 43.1201 34.425C43.7887 36.0799 45.2891 37.2447 47.0168 37.4375C48.9745 37.6571 50.9082 36.594 51.8308 34.7705C51.6757 32.5185 51.5206 30.2692 51.3655 28.0172C48.79 27.6986 46.2171 27.3799 43.6416 27.0613L43.6443 27.0586Z" fill="white"/>
<path d="M43.3449 27.0585C43.2005 29.0748 43.0587 31.0912 42.9143 33.1075C42.8982 33.3271 42.8822 33.5466 42.8688 33.7662C42.8554 33.9858 42.7832 34.2803 42.8341 34.5026C42.9116 34.8507 43.1737 35.2336 43.3716 35.5201C43.7701 36.1012 44.2783 36.6019 44.872 36.9822C46.0835 37.7587 47.6106 37.9702 48.9853 37.5445C49.6727 37.3329 50.3038 36.9768 50.8494 36.5082C51.1142 36.2806 51.3522 36.0262 51.5635 35.7504C51.7641 35.4933 52.077 35.1345 52.1305 34.8052C52.1706 34.5481 52.0984 34.2321 52.0824 33.9697C52.0663 33.7073 52.0449 33.4395 52.0289 33.1744C51.9887 32.6014 51.9486 32.0257 51.9112 31.4526C51.831 30.3039 51.7534 29.1578 51.6732 28.0091C51.6598 27.8324 51.5448 27.7279 51.3736 27.7092C48.7981 27.3905 46.2253 27.0719 43.6498 26.7532C43.2673 26.705 43.27 27.3075 43.6498 27.3557C46.2253 27.6744 48.7981 27.993 51.3736 28.3117L51.0741 28.0118C51.1998 29.8219 51.3228 31.6321 51.4485 33.4422C51.4645 33.6618 51.4779 33.884 51.494 34.1036C51.5073 34.283 51.5689 34.524 51.5341 34.7034C51.5073 34.84 51.3576 35.0114 51.28 35.1292C51.1677 35.2979 51.0447 35.4585 50.9109 35.6112C50.4723 36.1065 49.9374 36.5055 49.333 36.776C48.1161 37.3249 46.6853 37.2821 45.5085 36.6528C44.9255 36.3422 44.4093 35.903 44.0108 35.3728C43.8209 35.1211 43.6284 34.8346 43.5107 34.5401C43.3529 34.1464 43.492 33.5895 43.5214 33.1717C43.6658 31.134 43.8102 29.0936 43.9547 27.0558C43.9814 26.6702 43.3796 26.6702 43.3529 27.0558L43.3449 27.0585Z" fill="#553597"/>
<path d="M43.6018 27.6663C43.1632 27.0932 42.6363 26.2846 42.2031 25.2456C41.8179 24.3164 41.6173 23.4703 41.5104 22.8062C40.3737 22.1662 39.8148 21.3629 39.5687 20.9398C39.0632 20.0776 38.4535 18.4013 39.1408 17.7533C39.4243 17.4855 39.8228 17.4909 40.1705 17.4962C41.5291 17.515 42.4304 18.8244 42.5133 18.9529C42.5133 18.9529 41.5398 14.939 41.5104 12.2988C46.3993 9.37201 51.446 8.97303 53.8905 11.2946C55.463 12.7861 55.5139 14.9845 55.6128 19.0493C55.6904 22.3135 55.8268 27.993 52.7485 29.5487C51.9007 29.9772 50.419 30.1084 49.0818 29.9504C48.1725 29.8433 47.4397 29.5996 46.9475 29.3961" fill="white"/>
<path d="M43.8611 27.5164C43.1471 26.5738 42.5801 25.5268 42.2083 24.4022C42.0318 23.8666 41.9569 23.3124 41.8072 22.7715C41.7349 22.509 41.4247 22.4126 41.2161 22.2707C40.9754 22.1047 40.7481 21.9146 40.5395 21.7084C39.9511 21.122 39.5419 20.3829 39.3012 19.5903C39.1755 19.1806 39.0444 18.6745 39.1835 18.2488C39.3573 17.7212 40.0474 17.7427 40.4993 17.8364C41.2107 17.981 41.8553 18.5112 42.2538 19.1083C42.441 19.3895 42.885 19.2181 42.8047 18.8754C42.2859 16.7385 41.8446 14.5053 41.8125 12.3015L41.6627 12.5613C44.2195 11.0403 47.2657 9.86479 50.2906 10.1326C51.4112 10.2316 52.5638 10.5771 53.4464 11.3054C54.1525 11.8865 54.5991 12.6577 54.8452 13.5333C55.1581 14.6526 55.2089 15.8388 55.2544 16.9929C55.3025 18.2327 55.3346 19.4778 55.3399 20.7203C55.3506 22.916 55.3078 25.3555 54.337 27.3745C53.8342 28.4188 53.0506 29.2462 51.9006 29.5327C50.3066 29.9263 48.5334 29.7202 47.025 29.1096C46.6667 28.965 46.5089 29.5461 46.8646 29.6907C48.3061 30.2718 49.9108 30.4512 51.4486 30.2289C52.6361 30.0576 53.6122 29.5327 54.329 28.5634C55.0083 27.6449 55.3667 26.5042 55.586 25.3956C55.8213 24.196 55.9096 22.9669 55.9337 21.7459C55.9577 20.5248 55.9203 19.2342 55.8855 17.9783C55.8481 16.6448 55.8213 15.2925 55.5673 13.9805C55.3774 13.0031 55.0083 12.0659 54.3343 11.3215C53.5748 10.4833 52.5184 9.95851 51.4245 9.70948C47.9905 8.92223 44.2784 10.3093 41.3605 12.0445C41.2696 12.098 41.2107 12.1971 41.2107 12.3042C41.2428 14.5615 41.6948 16.851 42.2244 19.0387L42.7753 18.8057C42.0719 17.7507 40.7614 16.9179 39.4563 17.2607C37.7473 17.7079 38.785 20.2544 39.3761 21.205C39.8655 21.9922 40.5635 22.6135 41.3632 23.074L41.2241 22.8946C41.5183 24.6833 42.2484 26.3837 43.345 27.827C43.575 28.1323 44.0992 27.8324 43.8638 27.5217L43.8611 27.5164Z" fill="#553597"/>
<path d="M41.4034 17.582C41.4756 16.9099 41.711 15.5415 42.6658 14.1491C43.5697 12.8317 44.6583 12.1622 45.0674 11.9293C46.5571 11.0804 47.9559 11.0242 48.8839 10.9894C51.9756 10.8743 54.3853 12.1837 55.5005 12.8959C55.6958 12.43 57.2336 8.60622 55.2117 5.85619C54.5645 4.97522 53.8343 4.48519 53.1363 4.16922C48.1966 1.93867 44.7144 3.09813 43.0028 5.76247C41.6174 7.9234 40.4593 9.20068 39.534 10.0549C37.9962 11.4741 37.48 11.7793 37.1564 12.2399C37.1564 12.2399 37.0039 12.4943 36.8863 12.7594C35.9823 14.7757 38.4401 19.3305 38.5658 19.5608C38.507 18.9048 38.6354 18.4148 38.737 18.1256C38.8306 17.8605 38.9001 17.673 39.082 17.4936C39.5527 17.0277 40.2775 17.1294 40.4299 17.1482C40.8953 17.2124 41.2269 17.4347 41.4034 17.5793V17.582Z" fill="#A78ED7"/>
<path d="M43.7089 12.8826C43.9389 13.4476 44.217 14.3473 44.1903 15.4639C44.1395 17.6195 42.9921 19.1029 42.5776 19.5903C42.4091 19.269 42.2165 18.9316 42.0052 18.5861C41.7565 18.1845 41.5078 17.8149 41.2644 17.4775C41.3286 17.0598 41.4329 16.5966 41.6014 16.1065C42.139 14.5535 43.0643 13.4931 43.7115 12.8799L43.7089 12.8826Z" fill="#553597"/>
<path d="M48.5067 13.3351C48.5548 13.4985 48.6752 13.876 48.7581 14.3473C48.8276 14.7302 48.825 14.915 48.8998 15.0971C48.8998 15.0971 48.94 15.1828 48.9854 15.2578C49.309 15.7692 52.2322 15.5362 53.0586 15.4934C53.8824 15.4506 55.0217 15.4747 56.4097 15.7665C56.4151 15.2711 56.3589 14.0206 55.4977 12.8987C54.7489 11.9213 53.7941 11.5625 52.9891 11.2733C50.7666 10.4727 48.6832 10.8127 47.5305 11.1126C47.7124 11.442 48.2312 12.4033 48.5067 13.3378V13.3351Z" fill="#553597"/>
<path d="M45.5757 16.2031C45.9367 15.6595 46.4395 15.0195 47.4451 15.0169C48.448 15.0142 49.1274 15.5845 48.5336 15.6006C47.9399 15.6193 46.9798 15.5176 46.0063 16.4548C45.0354 17.392 45.5757 16.2031 45.5757 16.2031Z" fill="#553597"/>
<path d="M50.5661 14.8534C51.1331 14.5348 51.8739 14.192 52.7699 14.6446C53.6658 15.0971 54.0135 15.9138 53.4759 15.6594C52.9384 15.405 52.128 14.8775 50.8389 15.2712C49.5471 15.6648 50.5688 14.8507 50.5688 14.8507L50.5661 14.8534Z" fill="#553597"/>
<path d="M50.8471 21.0149C51.0824 22.4743 50.9433 22.6242 50.8765 22.6724C50.5716 22.9054 49.8842 22.4421 49.8147 22.5894C49.7853 22.651 49.8843 22.7634 49.9217 22.8063C50.248 23.1838 50.946 23.4302 51.2857 23.1705C51.636 22.9027 51.4809 22.177 51.283 20.9988C51.0289 19.4886 50.502 18.1444 50.4245 18.1738C50.4058 18.1818 50.4165 18.2782 50.4459 18.4791C50.593 19.5154 50.7829 20.6266 50.8444 21.0149H50.8471Z" fill="#553597"/>
<path d="M48.2182 19.0147C48.4929 19.0147 48.7156 18.7917 48.7156 18.5166C48.7156 18.2415 48.4929 18.0186 48.2182 18.0186C47.9434 18.0186 47.7207 18.2415 47.7207 18.5166C47.7207 18.7917 47.9434 19.0147 48.2182 19.0147Z" fill="#553597"/>
<path d="M52.8849 18.2757C53.1596 18.2757 53.3824 18.0527 53.3824 17.7776C53.3824 17.5025 53.1596 17.2795 52.8849 17.2795C52.6102 17.2795 52.3875 17.5025 52.3875 17.7776C52.3875 18.0527 52.6102 18.2757 52.8849 18.2757Z" fill="#553597"/>
<path d="M49.6996 25.3797C49.7504 25.3101 49.7557 25.2029 49.7156 25.128C49.6247 24.9539 49.3252 25.0369 48.9213 24.9352C48.5228 24.8334 48.25 24.6058 48.1698 24.5362C47.7499 24.1774 47.683 23.7677 47.4825 23.7945C47.3888 23.8052 47.3193 23.9069 47.2926 23.9819C47.1936 24.2684 47.5814 24.6299 47.7285 24.7638C48.4078 25.3904 49.4883 25.6689 49.6996 25.3797Z" fill="#553597"/>
<path d="M59.6753 54.7516C59.9294 62.517 60.1834 70.2824 60.4348 78.0478C64.7701 77.2338 69.1081 76.4225 73.4434 75.6084C73.1278 67.8618 72.8123 60.1151 72.4967 52.3684C68.2229 53.1637 63.9464 53.9563 59.6726 54.7516H59.6753Z" fill="white"/>
<path d="M59.373 54.7516C59.571 60.8086 59.7689 66.8656 59.9668 72.9226C60.0229 74.631 60.0791 76.3394 60.1353 78.0478C60.1433 78.2567 60.3225 78.3745 60.515 78.337C64.8504 77.523 69.1883 76.7116 73.5236 75.8976C73.6467 75.8735 73.7483 75.7316 73.7456 75.6084C73.4996 69.5755 73.2535 63.5425 73.0101 57.5123C72.9406 55.7985 72.8711 54.0848 72.8015 52.3711C72.7935 52.1622 72.617 52.0444 72.4218 52.0819C68.148 52.8771 63.8715 53.6697 59.5977 54.465C59.2179 54.5347 59.3784 55.1157 59.7582 55.0461C64.032 54.2508 68.3084 53.4582 72.5822 52.6629L72.2025 52.3737C72.4485 58.4067 72.6946 64.4396 72.9379 70.4698C73.0075 72.1836 73.077 73.8973 73.1465 75.6111L73.3685 75.3219C69.0332 76.1359 64.6952 76.9473 60.3599 77.7613L60.7397 78.0505C60.5418 71.9935 60.3439 65.9364 60.146 59.8794C60.0898 58.171 60.0336 56.4626 59.9775 54.7542C59.9641 54.3686 59.3623 54.366 59.3757 54.7542L59.373 54.7516Z" fill="#553597"/>
<path d="M21.0214 70.2288C20.7165 73.1636 20.6096 78.6101 23.8724 81.0683C26.4346 82.9962 30.5987 82.1045 38.7799 80.0695C44.1582 78.7306 45.7549 77.9353 50.9808 76.6045C55.6718 75.4129 59.5578 74.7408 62.0691 74.3605C63.861 73.9 64.9174 73.8437 66.9928 73.4662C68.1188 73.2627 68.6269 73.1315 69.0147 72.6763C69.2554 72.3951 69.5255 71.9051 69.357 71.6239C69.0789 71.1633 67.731 71.4632 67.731 71.4606C67.731 71.4579 69.2554 71.4847 70.3332 70.7349C70.8333 70.3868 70.9564 70.0708 70.9831 69.8566C70.9911 69.7923 71.0206 69.5487 70.8895 69.3184C70.6996 68.9863 70.253 68.8176 69.7662 68.8926C70.4402 68.7266 70.8895 68.4428 71.1409 68.2553C71.4672 68.0116 71.5795 67.8349 71.6383 67.6609C71.6571 67.6046 71.7774 67.2351 71.5929 66.962C71.4271 66.7156 71.1088 66.6862 70.6274 66.646C70.3252 66.6219 69.8893 66.6165 69.3597 66.7129C69.5148 66.4211 69.8037 65.7918 69.5442 65.3955C69.226 64.9108 68.2605 65.0501 67.7149 65.1331C64.9896 65.5508 61.6599 66.2363 60.3949 66.5014C60.3949 65.4491 60.3494 64.5734 60.3066 63.9281C60.205 62.442 60.0766 61.8796 59.6969 61.7217C59.4588 61.6226 59.2155 61.7217 59.1593 61.7458C59.0069 61.81 58.5362 62.0617 58.3008 63.8103C58.2099 64.4904 58.1403 65.4946 58.3115 66.7317C57.7953 66.8495 57.2711 66.9647 56.7336 67.0718C55.4498 67.3288 54.2115 67.5377 53.0161 67.701C53.0161 67.701 52.5587 67.7626 52.0934 67.8189C48.5096 68.2526 45.5543 68.5204 43.38 68.6891C42.2299 68.7614 41.3795 68.8337 41.3099 68.8391C40.7215 68.8819 38.8681 68.9837 34.351 69.1738" fill="white"/>
<path d="M20.7218 70.2288C20.5373 72.0175 20.5105 73.8277 20.7726 75.6084C21.0534 77.5149 21.722 79.4804 23.1449 80.8406C25.4797 83.0766 29.034 82.4955 31.9144 81.9546C36.6857 81.0575 41.3794 79.7374 46.0169 78.3155C50.7774 76.8562 55.6369 75.7181 60.5499 74.9041C60.9885 74.8318 61.4272 74.7622 61.8684 74.6926C62.3793 74.6149 62.8767 74.4703 63.3849 74.3686C64.5643 74.1356 65.7598 73.991 66.9446 73.7795C67.8699 73.6134 68.8488 73.4796 69.4158 72.6468C69.6618 72.2853 69.8811 71.7203 69.5254 71.3534C69.2553 71.075 68.8033 71.0562 68.4423 71.0723C68.1748 71.083 67.9181 71.1339 67.6533 71.174C67.319 71.2222 67.3966 71.7899 67.7335 71.7658C68.7632 71.6935 69.8089 71.5382 70.6487 70.8768C71.0659 70.5501 71.3708 70.0788 71.2745 69.5299C71.1515 68.815 70.424 68.5177 69.7661 68.5954L69.8464 69.1872C70.7075 68.9622 71.9752 68.4079 71.994 67.3556C72.018 66.0676 70.0951 66.2872 69.2794 66.4291L69.619 66.8709C69.8223 66.4827 70.0202 66.0141 69.9266 65.5642C69.833 65.1143 69.4907 64.8814 69.0788 64.7984C68.6669 64.7154 68.2042 64.7662 67.7737 64.8278C67.2334 64.9055 66.6958 64.9965 66.161 65.0876C64.2059 65.4223 62.2589 65.8079 60.3146 66.2149L60.6943 66.5041C60.6917 65.4705 60.6569 64.4342 60.5633 63.4033C60.5125 62.8383 60.5018 62.0296 60.0552 61.6065C59.7021 61.2718 59.1057 61.3361 58.7634 61.6547C58.3248 62.0617 58.175 62.7606 58.0734 63.3203C57.8674 64.4503 57.8594 65.6017 58.0092 66.737L58.2312 66.4478C54.2944 67.3476 50.28 67.776 46.2629 68.1482C44.0886 68.349 41.9116 68.5258 39.7292 68.6355C37.9373 68.7266 36.1428 68.8042 34.3509 68.8792C33.9657 68.8953 33.9631 69.4978 34.3509 69.4817C36.675 69.3826 39.0098 69.3237 41.3285 69.1443C44.7706 68.8819 48.2046 68.5873 51.6333 68.1803C53.9039 67.9099 56.1585 67.5377 58.3916 67.0262C58.5066 66.9995 58.6297 66.8602 58.6136 66.737C58.4692 65.6392 58.4612 64.5145 58.6671 63.4247C58.75 62.9829 58.9105 62.2277 59.2608 62.0349C59.3437 61.9894 59.1592 62.0617 59.2849 62.0242C59.3919 61.9921 59.5042 61.9573 59.6112 62.0162C59.662 62.043 59.6968 62.0992 59.7315 62.1608C59.8867 62.442 59.9107 62.8329 59.9428 63.1462C60.0632 64.2601 60.0953 65.3848 60.0979 66.5041C60.0979 66.7103 60.2878 66.8334 60.4777 66.7933C62.0877 66.4559 63.7004 66.1345 65.3212 65.8427C66.2519 65.674 67.1879 65.4839 68.1294 65.3821C68.4449 65.3473 68.9183 65.2777 69.1991 65.4731C69.5415 65.7115 69.25 66.2845 69.1055 66.5657C68.9772 66.812 69.1884 67.053 69.4452 67.0075C69.8758 66.9325 70.3064 66.9218 70.7396 66.9593C71.0953 66.9914 71.4805 67.0236 71.3815 67.4868C71.2451 68.1241 70.2261 68.4642 69.6939 68.6061C69.3757 68.6891 69.4292 69.238 69.7742 69.1979C70.2128 69.147 70.8199 69.3023 70.6808 69.878C70.5738 70.3198 70.0443 70.601 69.6645 70.7724C69.0467 71.0482 68.3995 71.1178 67.7362 71.1633L67.8164 71.7551C68.0625 71.7203 68.3005 71.6748 68.5492 71.6721C68.6856 71.6721 68.9264 71.6534 69.044 71.739C69.2152 71.8649 69.0146 72.1648 68.9263 72.3014C68.4102 73.0967 67.1986 73.1288 66.3589 73.2734C65.2837 73.4555 64.2006 73.5894 63.1308 73.8062C62.644 73.9053 62.1653 74.0419 61.6759 74.1169C61.248 74.1838 60.82 74.2507 60.3948 74.3204C55.7172 75.0942 51.0823 76.1546 46.5438 77.5229C44.6021 78.1094 42.6685 78.7252 40.7081 79.2554C38.2181 79.9275 35.7068 80.5434 33.1848 81.0816C31.4223 81.4592 29.6197 81.8153 27.8091 81.8314C26.6163 81.8421 25.3914 81.6788 24.3617 81.0334C22.8426 80.0802 22.0082 78.3664 21.5963 76.6768C21.1845 74.9871 21.123 73.0886 21.238 71.2972C21.262 70.9384 21.2915 70.5823 21.3289 70.2261C21.369 69.8405 20.7673 69.8432 20.7271 70.2261L20.7218 70.2288Z" fill="#553597"/>
<path d="M62.8982 68.4508C65.0993 68.0786 67.2816 67.5993 69.4372 67.0129C69.8117 66.9111 69.6512 66.3301 69.2768 66.4318C67.1212 67.0183 64.9388 67.4976 62.7377 67.8698C62.3579 67.934 62.5184 68.5151 62.8982 68.4508Z" fill="#553597"/>
<path d="M63.2672 70.4378C65.4737 70.0897 67.6667 69.6747 69.8464 69.19C70.2235 69.107 70.0631 68.5259 69.686 68.6089C67.5063 69.0936 65.3105 69.5086 63.1068 69.8567C62.7243 69.9157 62.8875 70.4967 63.2672 70.4378Z" fill="#553597"/>
<path d="M63.7192 72.3736C65.1822 72.1246 66.6531 71.9184 68.1321 71.7577C68.5119 71.7149 68.5172 71.1124 68.1321 71.1553C66.6023 71.3213 65.0779 71.5355 63.5614 71.7925C63.1817 71.8568 63.3421 72.4379 63.7219 72.3736H63.7192Z" fill="#553597"/>
</g>
<defs>
<clipPath id="clip0_2173_1923">
<rect width="182" height="182" fill="white"/>
</clipPath>
</defs>
</svg>
