<svg width="104" height="153" viewBox="0 0 104 153" fill="none" xmlns="http://www.w3.org/2000/svg">
<path d="M102.149 7.76735V144.952C102.149 148.336 99.4035 151.07 96.0173 151.07H19.1772C15.791 151.07 13.0452 148.326 13.0452 144.952V7.76735C13.0452 4.38302 15.791 1.63867 19.1772 1.63867H96.0173C99.4144 1.63867 102.149 4.38302 102.149 7.76735Z" fill="#553597"/>
<path d="M42.7826 133.8H80.0306C81.2027 133.8 82.1469 132.857 82.1469 131.685V120.23C82.1469 119.059 81.2027 118.115 80.0306 118.115H42.7826C41.6105 118.115 40.6663 119.059 40.6663 120.23V131.685C40.6771 132.857 41.6213 133.8 42.7826 133.8Z" fill="white"/>
<path d="M33.1563 111.23H70.6539C71.75 111.23 72.64 110.341 72.64 109.245V99.3307C72.64 98.2352 71.75 97.3457 70.6539 97.3457H33.1563C32.0601 97.3457 31.1702 98.2352 31.1702 99.3307V109.245C31.1702 110.341 32.0601 111.23 33.1563 111.23Z" fill="#6F46BE"/>
<path d="M100.598 1.63867H14.3696V59.0855H100.598V1.63867Z" fill="#EDE3FF"/>
<path d="M68.4833 9.11207H46.7337C43.5103 9.11207 40.9055 6.50873 40.9055 3.28711H74.3006C74.3115 6.49789 71.6959 9.11207 68.4833 9.11207Z" fill="#6F46BE"/>
<path d="M96.1806 152.718H19.0257C14.869 152.718 11.4937 149.16 11.4937 144.789V7.92932C11.5045 3.55789 14.8798 0 19.0257 0H96.1806C100.337 0 103.713 3.55789 103.713 7.92932V144.789C103.713 149.16 100.337 152.718 96.1806 152.718ZM19.0257 3.28671C16.5946 3.28671 14.6194 5.36937 14.6194 7.92932V144.789C14.6194 147.349 16.5946 149.431 19.0257 149.431H96.1806C98.6117 149.431 100.587 147.349 100.587 144.789V7.92932C100.587 5.36937 98.6117 3.28671 96.1806 3.28671H19.0257Z" fill="#6F46BE"/>
<path d="M95.779 151.026H17.0395C14.7929 151.026 12.9587 149.204 12.9587 146.959V141.438H102.247V144.561C102.247 148.13 99.3497 151.026 95.779 151.026Z" fill="#6F46BE"/>
<path d="M76.894 104.615C76.894 107.207 77.9902 109.539 79.7376 111.188C81.3547 112.707 83.5253 113.64 85.9238 113.64C86.1192 113.64 86.3146 113.629 86.4991 113.618C88.7565 113.477 90.7969 112.501 92.3055 110.993C92.5008 110.798 92.6962 110.592 92.8699 110.375C93.152 110.038 93.4125 109.68 93.6404 109.301C94.4761 107.934 94.9537 106.329 94.9537 104.615C94.9537 102.12 93.9443 99.8636 92.3055 98.2366C90.6667 96.5986 88.4201 95.5898 85.9238 95.5898C83.4276 95.5898 81.1702 96.5986 79.5422 98.2366C77.9142 99.8636 76.894 102.12 76.894 104.615Z" fill="white"/>
<path d="M80.6819 108.707C80.8447 108.815 81.0184 108.913 81.2137 108.978C82.6246 110.203 84.8604 112.178 86.4992 113.62C88.7566 113.479 90.797 112.503 92.3056 110.995C92.501 110.8 92.6963 110.594 92.87 110.377C93.1522 110.041 93.4126 109.683 93.6406 109.303C93.4452 108.956 93.2173 108.609 92.9351 108.262C91.4808 106.385 90.2978 105.745 90.6234 103.326C90.797 102.014 89.9505 97.3604 86.9333 97.1217C86.6837 97.1 85.1534 96.8397 84.0464 97.1543C81.3657 97.881 77.5996 106.57 80.6819 108.707Z" fill="#6F46BE"/>
<path d="M83.8074 108.183C83.7966 108.183 85.0664 108.953 86.0649 108.747C87.0091 108.552 87.975 107.272 87.9533 107.272C87.5626 107.174 87.2045 106.73 87.3673 104.408L87.1828 104.43L84.1547 104.831C84.1547 104.831 84.1656 105.775 84.1113 106.664C84.0788 107.413 83.9919 108.107 83.8074 108.183Z" fill="#9975DD"/>
<path d="M84.1657 104.829C84.1657 104.829 84.1766 105.773 84.1223 106.662C85.7937 106.716 86.7813 105.252 87.1938 104.428L84.1657 104.829Z" fill="#9975DD"/>
<path d="M83.5578 105.634C83.5578 105.634 87.5083 105.948 87.6711 103.486C87.8339 101.024 88.4417 99.4076 85.9238 99.093C83.4058 98.7893 82.8523 99.7005 82.6027 100.503C82.3531 101.317 82.5267 105.493 83.5578 105.634Z" fill="#9975DD"/>
<path d="M83.0261 99.2316C83.0261 99.2316 85.0231 101.878 86.6619 102.41C88.3007 102.941 89.0496 102.54 89.0496 102.54C89.0496 102.54 88.2356 101.51 87.9317 100.056C87.8449 99.633 87.5302 99.2858 87.1069 99.1557C85.9456 98.7977 83.6882 98.2662 83.0261 99.2316Z" fill="#6F46BE"/>
<path d="M84.6 99.3746C84.6 99.3746 83.6015 99.9929 83.2216 100.524C82.8526 101.034 82.4836 102.39 82.5596 102.965C82.5596 102.965 81.8216 100.199 82.8092 99.1468C83.8511 98.0295 84.6 99.3746 84.6 99.3746Z" fill="#6F46BE"/>
<path d="M79.7378 111.187C81.3549 112.705 83.5255 113.638 85.9241 113.638H86.521C86.5101 113.627 86.5101 113.627 86.4993 113.617C88.7567 113.476 90.7971 112.499 92.3057 110.992C92.5011 110.796 92.6964 110.59 92.8701 110.373C92.5553 109.69 92.2515 109.137 92.0018 108.779C90.884 107.217 87.6497 107.021 87.6497 107.021C87.6389 107.021 87.6389 107.032 87.628 107.032C86.4016 107.759 85.5876 107.987 85.0558 107.987C84.2744 107.987 84.0899 107.488 84.0573 107.369C84.0573 107.347 84.0573 107.347 84.0573 107.347C84.0573 107.347 81.7239 107.737 80.682 108.714C80.465 108.92 80.3022 109.148 80.237 109.397C80.1502 109.701 79.9657 110.352 79.7378 111.187Z" fill="#F3F5F7"/>
<path d="M3.99395 92.5723H78.0449C80.248 92.5723 82.0388 90.7825 82.0388 88.5805V68.2203C82.0388 66.0183 80.248 64.2285 78.0449 64.2285H3.99395C1.79077 64.2285 0 66.0183 0 68.2203V88.5697C0 90.7825 1.79077 92.5723 3.99395 92.5723Z" fill="white"/>
<path d="M73.5531 77.168H33.6997C33.1048 77.168 32.6226 77.6502 32.6226 78.2451C32.6226 78.84 33.1048 79.3222 33.6997 79.3222H73.5531C74.148 79.3222 74.6302 78.84 74.6302 78.2451C74.6302 77.6502 74.148 77.168 73.5531 77.168Z" fill="#6F46BE"/>
<path d="M73.5531 71.7832H33.6997C33.1048 71.7832 32.6226 72.2654 32.6226 72.8603C32.6226 73.4552 33.1048 73.9374 33.6997 73.9374H73.5531C74.148 73.9374 74.6302 73.4552 74.6302 72.8603C74.6302 72.2654 74.148 71.7832 73.5531 71.7832Z" fill="#6F46BE"/>
<path d="M55.2421 82.5547H33.6997C33.1048 82.5547 32.6226 83.0369 32.6226 83.6318C32.6226 84.2267 33.1048 84.7089 33.6997 84.7089H55.2421C55.837 84.7089 56.3192 84.2267 56.3192 83.6318C56.3192 83.0369 55.837 82.5547 55.2421 82.5547Z" fill="#6F46BE"/>
<path d="M75.1689 125.369H45.2788C44.8326 125.369 44.4709 125.731 44.4709 126.177C44.4709 126.623 44.8326 126.985 45.2788 126.985H75.1689C75.615 126.985 75.9767 126.623 75.9767 126.177C75.9767 125.731 75.615 125.369 75.1689 125.369Z" fill="#6F46BE"/>
<path d="M75.1689 121.33H45.2788C44.8326 121.33 44.4709 121.692 44.4709 122.138C44.4709 122.584 44.8326 122.946 45.2788 122.946H75.1689C75.615 122.946 75.9767 122.584 75.9767 122.138C75.9767 121.692 75.615 121.33 75.1689 121.33Z" fill="#6F46BE"/>
<path d="M61.4356 129.408H45.2788C44.8326 129.408 44.4709 129.77 44.4709 130.216C44.4709 130.662 44.8326 131.024 45.2788 131.024H61.4356C61.8818 131.024 62.2434 130.662 62.2434 130.216C62.2434 129.77 61.8817 129.408 61.4356 129.408Z" fill="#6F46BE"/>
<path d="M60.8071 104.006H37.5592C37.2122 104.006 36.9309 104.287 36.9309 104.634C36.9309 104.981 37.2122 105.262 37.5592 105.262H60.8071C61.1541 105.262 61.4354 104.981 61.4354 104.634C61.4354 104.287 61.1541 104.006 60.8071 104.006Z" fill="white"/>
<path d="M60.8071 100.865H37.5592C37.2122 100.865 36.9309 101.147 36.9309 101.494C36.9309 101.841 37.2122 102.122 37.5592 102.122H60.8071C61.1541 102.122 61.4354 101.841 61.4354 101.494C61.4354 101.147 61.1541 100.865 60.8071 100.865Z" fill="white"/>
<path d="M50.1256 107.148H37.5592C37.2122 107.148 36.9309 107.43 36.9309 107.777C36.9309 108.124 37.2122 108.405 37.5592 108.405H50.1256C50.4726 108.405 50.754 108.124 50.754 107.777C50.754 107.43 50.4726 107.148 50.1256 107.148Z" fill="white"/>
<path d="M72.5202 23.9311C72.5202 25.6883 71.0984 27.0984 69.3511 27.0984C67.5929 27.0984 66.182 25.6775 66.182 23.9311C66.182 22.1738 67.6037 20.7637 69.3511 20.7637C71.0984 20.7637 72.5202 22.1738 72.5202 23.9311ZM47.0588 20.7637C45.3006 20.7637 43.8896 22.1847 43.8896 23.9311C43.8896 25.6883 45.3114 27.0984 47.0588 27.0984C48.817 27.0984 50.2279 25.6775 50.2279 23.9311C50.2279 22.1738 48.8061 20.7637 47.0588 20.7637ZM58.3786 26.5344H58.0204C54.4714 26.5344 51.5845 29.4089 51.5845 32.9668V41.4493C51.5845 45.094 54.5474 48.0553 58.1941 48.0553C61.8407 48.0553 64.8036 45.094 64.8036 41.4493V32.9668C64.8145 29.4089 61.9276 26.5344 58.3786 26.5344Z" fill="#6F46BE"/>
<path d="M15.639 87.888C21.3034 87.888 25.8952 83.2986 25.8952 77.6373C25.8952 71.9761 21.3034 67.3867 15.639 67.3867C9.97467 67.3867 5.38281 71.9761 5.38281 77.6373C5.38281 83.2986 9.97467 87.888 15.639 87.888Z" fill="#EDE3FF"/>
<path d="M21.608 73.9171C21.608 74.6439 21.0111 75.2405 20.2839 75.2405C19.5567 75.2405 18.9598 74.6439 18.9598 73.9171C18.9598 73.1903 19.5567 72.5938 20.2839 72.5938C21.0111 72.5938 21.608 73.1903 21.608 73.9171ZM10.9828 72.5938C10.2556 72.5938 9.65869 73.1903 9.65869 73.9171C9.65869 74.6439 10.2556 75.2405 10.9828 75.2405C11.7099 75.2405 12.3069 74.6439 12.3069 73.9171C12.3069 73.1903 11.7208 72.5938 10.9828 72.5938ZM15.7039 75.0018H15.5519C14.0651 75.0018 12.8712 76.2059 12.8712 77.6811V81.2173C12.8712 82.7359 14.1085 83.9725 15.6279 83.9725C17.1474 83.9725 18.3846 82.7359 18.3846 81.2173V77.6811C18.3955 76.2059 17.1908 75.0018 15.7039 75.0018Z" fill="#6F46BE"/>
</svg>
