<svg  viewBox="0 0 218 196" fill="none" xmlns="http://www.w3.org/2000/svg">
<rect x="53.7548" y="195.569" width="88.912" height="206.029" rx="44.456" transform="rotate(-127.199 53.7548 195.569)" fill="#DCCBFC"/>
<path d="M54.5627 98.4336C54.4652 98.2064 54.4853 97.9464 54.611 97.7334C56.0375 95.3147 56.9065 92.6222 56.9065 89.7625C56.9065 79.2544 45.6591 70.7625 31.7933 70.7625C17.9275 70.7625 6.73962 79.2544 6.73962 89.7625C6.73962 100.27 17.987 108.762 31.7933 108.762C38.3737 108.762 44.3272 106.832 48.8175 103.715C49.0042 103.586 49.2379 103.543 49.4574 103.602L56.2276 105.423C56.8397 105.588 57.3718 104.974 57.1217 104.391L54.5627 98.4336Z" fill="#F4679D"/>
<path fill-rule="evenodd" clip-rule="evenodd" d="M30.5438 78.0129C32.0744 78.0129 33.3153 79.2538 33.3153 80.7844V91.8703C33.3153 93.4009 32.0744 94.6417 30.5438 94.6417C29.0132 94.6417 27.7723 93.4009 27.7723 91.8703V80.7844C27.7723 79.2538 29.0132 78.0129 30.5438 78.0129Z" fill="#FEF592"/>
<path fill-rule="evenodd" clip-rule="evenodd" d="M27.7726 100.728C27.7726 99.1971 29.0134 97.9563 30.544 97.9563H30.5718C32.1024 97.9563 33.3432 99.1971 33.3432 100.728C33.3432 102.258 32.1024 103.499 30.5718 103.499H30.544C29.0134 103.499 27.7726 102.258 27.7726 100.728Z" fill="#FEF592"/>
<path d="M77.1164 99.6271C58.4542 109.042 48.2067 131.036 51.3726 151.365C52.7056 159.946 65.1193 158.78 64.4528 148.199C63.453 132.619 73.284 125.954 86.3642 119.456C94.1124 115.54 84.8646 95.7114 77.1164 99.6271Z" fill="#6F46BE"/>
<path d="M132.553 100.127C152.881 104.876 168.044 123.872 169.794 144.283C170.544 152.948 158.213 154.698 156.297 144.283C153.548 128.87 142.384 124.788 128.221 121.539C119.723 119.539 124.055 98.1277 132.553 100.127Z" fill="#6F46BE"/>
<path d="M83.0644 106.459C93.1453 98.0448 119.889 97.7949 131.303 105.626C143.883 114.291 153.631 152.199 145.466 164.029C137.052 176.193 77.3991 177.109 71.0673 164.029C64.0689 149.533 71.4838 116.041 83.0644 106.459Z" fill="#6F46BE"/>
<path d="M87.48 108.542C95.8114 101.627 117.806 101.377 127.221 107.875C137.551 115.04 145.633 146.199 138.884 155.947C131.969 165.945 82.8978 166.695 77.649 155.947C71.9004 144.033 77.9823 116.54 87.48 108.542Z" fill="#8968CA"/>
<path d="M135.17 185.122C143.268 185.122 149.833 175.536 149.833 163.71C149.833 151.885 143.268 142.299 135.17 142.299C127.071 142.299 120.507 151.885 120.507 163.71C120.507 175.536 127.071 185.122 135.17 185.122Z" fill="#6F46BE"/>
<path d="M84.1413 50.5037C84.1413 50.5037 66.5478 21.3987 47.4924 37.3116C41.5134 42.305 53.2347 50.1666 53.2347 50.1666C53.2347 50.1666 46.6174 48.9052 44.6456 55.8627C42.6738 62.8201 56.8441 66.8148 56.8441 66.8148C56.8441 66.8148 51.9012 69.9248 53.3478 72.8519C54.7945 75.779 59.6301 79.0958 78.2695 72.0813C83.1804 53.3375 84.1413 50.5037 84.1413 50.5037Z" fill="#6F46BE"/>
<path d="M77.343 52.6966C77.343 52.6966 71.2675 45.9855 66.0329 52.96C60.7983 59.9345 69.5763 66.4088 69.5763 66.4088L77.343 52.6966Z" fill="#8968CA"/>
<path d="M143.781 66.8019C145.577 64.8191 148.165 63.7627 150.682 62.8698C155.779 61.0599 161.085 59.6166 166.48 59.626C171.957 59.6348 178.787 61.0682 182.181 65.8613C183.364 67.5301 183.907 69.7942 183.104 71.6862C182.32 73.5306 180.469 74.6593 178.654 75.4699C176.351 76.4997 173.971 76.9957 171.574 77.6544C172.355 78.1179 173.136 78.6044 173.867 79.159C175.057 80.0614 176.223 81.0604 176.941 82.3775C178.879 85.9318 176.729 90.0835 173.18 91.3833C168.796 92.9892 165.51 90.5527 161.561 89.3358C161.721 90.4075 162.213 91.4582 162.314 92.5832C162.422 93.7805 162.173 95.0646 161.384 95.968C158.519 99.2499 151.515 96.5281 148.251 95.383C143.153 93.5934 140.648 89.0742 140.22 83.8317C139.809 78.7863 140.217 70.9807 143.604 67.0058C143.661 66.9362 143.72 66.8682 143.781 66.8019Z" fill="#6F46BE"/>
<path d="M149.715 73.5289C149.715 73.5289 157.547 69.0165 160.395 77.2711C163.244 85.5257 152.913 88.9783 152.913 88.9783L149.715 73.5289Z" fill="#8968CA"/>
<path d="M89.8534 40.6721C101.176 34.0974 128.058 37.916 138.403 47.2114C149.717 57.4574 153.988 95.4583 144.106 105.591C133.868 116.04 73.9329 107.902 69.4957 94.3054C64.525 79.3291 76.8363 48.2274 89.8534 40.6721Z" fill="#6F46BE"/>
<path d="M83.9058 186C91.4571 186 97.5787 176.335 97.5787 164.412C97.5787 152.488 91.4571 142.823 83.9058 142.823C76.3545 142.823 70.2329 152.488 70.2329 164.412C70.2329 176.335 76.3545 186 83.9058 186Z" fill="#6F46BE"/>
<path d="M103.953 88.8725C103.855 85.5651 104.867 82.1843 106.764 79.8154C108.553 77.581 111.328 75.9244 113.281 78.9643C113.871 79.8804 114.165 80.9593 114.36 82.0358C114.91 85.0617 114.904 87.8409 114.015 90.7873C113.359 92.964 111.291 95.158 108.933 95.2728C106.703 95.3812 104.818 93.368 104.26 91.1813C104.077 90.4571 103.977 89.6788 103.953 88.8725Z" fill="#8968CA"/>
<path d="M130.832 77.8039C130.832 78.5138 130.101 78.988 129.453 78.6983L121.347 75.0744C120.914 74.8808 120.635 74.4507 120.635 73.9763V73.9763C120.635 73.502 120.914 73.0719 121.347 72.8783L129.437 69.2613C130.093 68.9683 130.832 69.4478 130.832 70.1655V70.1655C130.832 70.563 130.595 70.922 130.229 71.0773L122.786 74.2369C122.608 74.3124 122.41 74.1818 122.41 73.9883V73.9883C122.41 73.7949 122.608 73.6643 122.786 73.7398L130.235 76.9022C130.597 77.0558 130.832 77.4108 130.832 77.8039V77.8039Z" fill="#8968CA"/>
<path d="M92.3877 63.7312C92.5714 63.0455 93.4006 62.7767 93.9516 63.2243L100.844 68.8227C101.212 69.1218 101.37 69.6094 101.247 70.0676V70.0676C101.124 70.5258 100.744 70.8691 100.275 70.944L91.5239 72.3438C90.8152 72.4571 90.2249 71.8026 90.4107 71.1093V71.1093C90.5136 70.7254 90.836 70.4401 91.2296 70.3848L99.2367 69.2593C99.4282 69.2323 99.5851 69.4097 99.535 69.5965V69.5965C99.485 69.7833 99.2605 69.8584 99.108 69.7394L92.7308 64.7567C92.421 64.5146 92.2859 64.1109 92.3877 63.7312V63.7312Z" fill="#8968CA"/>
</svg>
