<?xml version="1.0" encoding="utf-8"?>
<!-- Generator: Adobe Illustrator 25.0.0, SVG Export Plug-In . SVG Version: 6.00 Build 0)  -->
<svg version="1.1" id="Layer_1" xmlns="http://www.w3.org/2000/svg" xmlns:xlink="http://www.w3.org/1999/xlink" x="0px" y="0px"
	 viewBox="0 0 326 216" style="enable-background:new 0 0 326 216;" xml:space="preserve">
<style type="text/css">
	.st0{fill:#FEF592;}
	.st1{fill:#6641AE;}
	.st2{clip-path:url(#SVGID_2_);}
	.st3{fill:#F4679D;}
	.st4{clip-path:url(#SVGID_4_);}
	.st5{fill:#EAE073;}
</style>
<path class="st0" d="M113.8,211.2c-3.4,0-5.3-1.9-5.3-5c0-3.2,2-5.3,5.6-5.3c0.8,0,1.5,0.1,2.2,0.2l1.7-3.8c-1.6-0.7-3-1-4.8-1
	c-6,0-10.1,4.2-10.1,10c0,5.7,3.4,9.4,9.1,9.4c2.4,0,4.2-0.3,5.9-1.1l-2-3.7C115.3,211.2,114.6,211.2,113.8,211.2z M135,199.2
	c1.8,1.7,2.7,4.1,2.7,7c0,2.7-1,5.2-2.8,6.9c-1.8,1.7-4.4,2.8-7.5,2.8c-3.2,0-5.8-1-7.6-2.7c-1.8-1.7-2.7-4.1-2.7-7
	c0-2.8,1-5.2,2.8-6.9c1.8-1.7,4.4-2.8,7.5-2.8C130.7,196.6,133.3,197.5,135,199.2z M131.9,206.2c0-1.6-0.4-2.8-1.2-3.7
	c-0.4-0.4-0.9-0.8-1.4-1c-0.6-0.2-1.2-0.3-1.9-0.3c-1.3,0-2.5,0.5-3.3,1.4c-0.8,0.9-1.2,2.1-1.2,3.6c0,1.5,0.4,2.8,1.2,3.7
	c0.4,0.4,0.9,0.8,1.4,1c0.6,0.2,1.2,0.3,1.9,0.3c1.3,0,2.5-0.5,3.3-1.4C131.5,208.9,131.9,207.7,131.9,206.2z M150.9,196.5
	c2.4,0,4.9,0.5,7.1,1.2v17.5h-5.5v-2.7l-0.7,0.8c-0.7,0.7-1.5,1.3-2.4,1.8c-1,0.5-2.1,0.8-3.5,0.8c-2.2,0-4-0.9-5.2-2.5
	c-1.3-1.5-2-3.7-2-6.1c0-3.4,1.2-6.1,3.3-7.9C144,197.6,147.1,196.5,150.9,196.5z M151.9,201.2c-0.5,0-1.1-0.1-1.7-0.1
	c-1.8,0-3.3,0.5-4.3,1.5c-1,0.9-1.5,2.3-1.5,3.9c0,1.4,0.3,2.6,1,3.4c0.7,0.8,1.7,1.3,2.8,1.3c0.7,0,1.4-0.2,2-0.5
	c0.6-0.3,1.2-0.7,1.8-1.3l0.1-0.1v-0.2v-7.9L151.9,201.2z M184,196.5c2.4,0,4.9,0.5,7.1,1.2v17.5h-5.5v-2.7l-0.7,0.8
	c-0.7,0.7-1.5,1.3-2.4,1.8c-1,0.5-2.1,0.8-3.5,0.8c-2.2,0-4-0.9-5.2-2.5c-1.3-1.5-2-3.7-2-6.1c0-3.4,1.2-6.1,3.3-7.9
	C177,197.6,180.1,196.5,184,196.5z M184.9,201.2c-0.5,0-1.1-0.1-1.7-0.1c-1.8,0-3.3,0.5-4.3,1.5c-1,0.9-1.5,2.3-1.5,3.9
	c0,1.4,0.3,2.6,1,3.4c0.7,0.8,1.7,1.3,2.8,1.3c0.7,0,1.4-0.2,2-0.5c0.6-0.3,1.2-0.7,1.8-1.3l0.1-0.1v-0.2v-7.9L184.9,201.2z
	 M167.6,210.8c-0.5-0.3-0.8-0.6-1-1.1c-0.5-0.9-0.6-1.9-0.6-2.8V192h-5.8v13.8c0,2.7,0.2,4.7,0.8,6.2c0.5,1.5,1.3,2.4,2.5,3.1
	c0.8,0.4,1.7,0.7,2.9,0.8c0.4,0.1,0.8,0.1,1.1,0.1c1.5,0,2.5-0.4,3.4-1v-4c-0.6,0.1-1.1,0.2-1.5,0.2
	C168.6,211.2,168.1,211,167.6,210.8z"/>
<path class="st0" d="M218.4,198.6c0,1.3-1,2.3-2.3,2.3c-1.3,0-2.3-1-2.3-2.3c0-1.3,1-2.3,2.3-2.3
	C217.4,196.3,218.4,197.3,218.4,198.6z M200,196.3c-1.3,0-2.3,1-2.3,2.3c0,1.3,1,2.3,2.3,2.3c1.3,0,2.3-1,2.3-2.3
	C202.3,197.3,201.3,196.3,200,196.3z M208.2,200.5h-0.3c-2.6,0-4.6,2.1-4.6,4.6v6.1c0,2.6,2.1,4.8,4.8,4.8c2.6,0,4.8-2.1,4.8-4.8
	v-6.1C212.8,202.5,210.8,200.5,208.2,200.5z"/>
<g>
	<g>
		<path class="st1" d="M69.2,9.2h189c36.2,0,65.5,29.3,65.5,65.5l0,0c0,36.2-29.3,65.5-65.5,65.5h-189c-36.2,0-65.5-29.3-65.5-65.5
			l0,0C3.7,38.5,33,9.2,69.2,9.2z"/>
	</g>
	<g>
		<g>
			<defs>
				<rect id="SVGID_1_" x="137.7" y="0.2" width="51" height="42"/>
			</defs>
			<clipPath id="SVGID_2_">
				<use xlink:href="#SVGID_1_"  style="overflow:visible;"/>
			</clipPath>
			<g class="st2">
				<path class="st3" d="M181.7,0.2h-37c-3.9,0-7,3.1-7,7v21.3c0,3.9,3.1,7,7,7h8.6c1.4,0,2.8,0.6,3.8,1.6l4.5,4.4
					c0.9,0.9,2.3,0.9,3.2,0l4.5-4.4c1-1,2.4-1.6,3.8-1.6h8.6c3.9,0,7-3.1,7-7V7.2C188.7,3.3,185.6,0.2,181.7,0.2z"/>
				<path class="st0" d="M173.2,14.6L173.2,14.6c0-0.2,0-0.5,0-0.7c0-2.7-2.2-5-5-5c-2.3,0-4.2,1.5-4.8,3.6
					c-0.6-2.1-2.5-3.6-4.8-3.6c-2.7,0-5,2.2-5,5c0,0.2,0,0.5,0.1,0.7h-0.1c0,0,0.7,5.3,9.7,12.8c0,0,8.4-6.8,9.6-12.4
					c0-0.1,0-0.1,0-0.2C173.2,14.8,173.2,14.8,173.2,14.6z"/>
			</g>
		</g>
	</g>
	<g>
		<g>
			<defs>
				<path id="SVGID_3_" d="M257.8,140.2h-189c-36.2,0-65.5-29.3-65.5-65.5l0,0c0-36.2,29.3-65.5,65.5-65.5h189
					c36.2,0,65.5,29.3,65.5,65.5l0,0C323.3,110.9,293.9,140.2,257.8,140.2z"/>
			</defs>
			<clipPath id="SVGID_4_">
				<use xlink:href="#SVGID_3_"  style="overflow:visible;"/>
			</clipPath>
			<g class="st4">
				<path class="st0" d="M123.7,75.1c0,0-35.7-42.1-62-11.6C53.4,73,74.2,82.6,74.2,82.6s-10.9-0.3-12.3,11.4
					c-1.3,11.6,22.4,14.3,22.4,14.3s-7.1,6.3-4,10.6c3.1,4.3,11.7,8.4,39.7-7.7C122.9,79.8,123.7,75.1,123.7,75.1z"/>
				<path class="st5" d="M111.5,80.9c0,0-11.5-9.2-18,3.4c-6.5,12.5,9.2,20.6,9.2,20.6L111.5,80.9z"/>
				<path class="st0" d="M207.8,77.6c2.3-3.7,6.2-6,10-8.1c7.7-4.2,15.8-7.9,24.4-9.3c8.8-1.4,20.1-0.9,26.7,5.9
					c2.3,2.4,3.8,5.8,3,9.1c-0.8,3.2-3.5,5.5-6.1,7.2c-3.4,2.2-7.1,3.7-10.7,5.3c1.4,0.5,2.7,1.1,4.1,1.8c2.1,1.1,4.3,2.4,5.7,4.3
					c4,5.2,1.7,12.4-3.7,15.4c-6.6,3.7-12.5,0.7-19.1-0.2c0.5,1.7,1.6,3.2,2,5c0.5,1.9,0.4,4-0.6,5.7c-3.7,6-15.6,3.5-21.2,2.5
					c-8.6-1.6-13.8-8.1-15.9-16.4c-2-8-3.3-20.6,1-27.8C207.7,77.8,207.8,77.7,207.8,77.6z"/>
				<path class="st5" d="M219.1,86.8c0,0,11.4-9.3,18.1,3.2c6.7,12.5-8.9,20.7-8.9,20.7L219.1,86.8z"/>
				<path class="st0" d="M124.5,57.8c16.4-13.5,60.4-14.4,79.3-2.2c20.8,13.5,37.5,73.3,24.3,92.1c-13.7,19.4-111.6,22-122.3,1.4
					C94.1,126.3,105.7,73.3,124.5,57.8z"/>
				<path class="st5" d="M154.3,138.2c-0.9-5.7,0.2-11.8,3-16.3c2.7-4.2,7.1-7.7,11.1-2.8c1.2,1.5,1.9,3.3,2.5,5.1
					c1.6,5.1,2.1,10,1.2,15.3c-0.7,3.9-3.8,8.1-7.9,8.8c-3.8,0.6-7.5-2.5-8.9-6.1C154.8,141.1,154.5,139.6,154.3,138.2z"/>
			</g>
		</g>
	</g>
</g>
</svg>
