<svg width="255" height="256" viewBox="0 0 255 256" fill="none" xmlns="http://www.w3.org/2000/svg">
<path d="M84.4897 251.226C81.1339 251.226 79.2061 249.375 79.2061 246.25C79.2061 243.088 81.211 240.966 84.7979 240.966C85.5803 240.966 86.2977 241.04 86.9706 241.175L88.6399 237.338C87.0665 236.654 85.6129 236.378 83.7946 236.378C77.8175 236.376 73.6913 240.581 73.6913 246.404C73.6913 252.073 77.0847 255.853 82.8324 255.853C85.2242 255.853 86.9963 255.53 88.6913 254.754L86.6829 251.034C85.9844 251.157 85.2516 251.226 84.4897 251.226ZM105.724 239.235C107.48 240.924 108.449 243.321 108.451 246.214C108.449 248.957 107.427 251.371 105.633 253.109C103.837 254.847 101.263 255.915 98.1131 255.917C94.8772 255.915 92.3159 254.9 90.5541 253.198C88.7957 251.494 87.8164 249.085 87.8147 246.214C87.8164 243.452 88.8574 241.05 90.6551 239.326C92.4545 237.602 95.021 236.553 98.1114 236.551C101.394 236.551 103.965 237.547 105.724 239.235ZM102.626 246.212C102.626 244.644 102.255 243.387 101.471 242.518C101.08 242.084 100.591 241.756 100.026 241.543C99.4606 241.329 98.8202 241.227 98.1166 241.227C96.7845 241.223 95.6305 241.72 94.8344 242.607C94.0365 243.494 93.6034 244.743 93.6051 246.212C93.6051 247.746 93.9886 249 94.7745 249.878C95.1666 250.315 95.6545 250.65 96.2178 250.871C96.7811 251.092 97.418 251.2 98.1148 251.2C99.4606 251.203 100.618 250.719 101.412 249.834C102.207 248.95 102.626 247.697 102.626 246.212ZM121.602 236.549C123.97 236.549 126.507 237.07 128.692 237.746V255.242H123.143V252.588L122.4 253.354C121.732 254.04 120.941 254.679 119.977 255.146C119.013 255.614 117.876 255.913 116.495 255.915C114.303 255.912 112.531 254.991 111.271 253.46C110.014 251.928 109.285 249.769 109.285 247.32C109.288 243.874 110.466 241.216 112.57 239.386C114.678 237.559 117.756 236.549 121.602 236.549ZM122.547 241.228C122.03 241.189 121.465 241.148 120.89 241.148C119.071 241.146 117.613 241.646 116.613 242.598C115.611 243.548 115.109 244.921 115.111 246.531C115.111 247.942 115.442 249.104 116.108 249.931C116.772 250.762 117.779 251.207 118.95 251.202C119.669 251.202 120.343 251.035 120.977 250.734C121.612 250.433 122.208 250.001 122.802 249.467L122.946 249.339V249.145V241.259L122.547 241.228ZM154.66 236.549C157.028 236.549 159.565 237.07 161.75 237.746V255.242H156.201V252.588L155.458 253.354C154.79 254.04 153.999 254.679 153.035 255.146C152.071 255.614 150.934 255.913 149.552 255.915C147.361 255.912 145.589 254.991 144.329 253.46C143.072 251.928 142.343 249.769 142.343 247.32C142.346 243.874 143.524 241.216 145.628 239.386C147.734 237.559 150.813 236.549 154.66 236.549ZM155.603 241.228C155.086 241.189 154.521 241.148 153.946 241.148C152.127 241.146 150.669 241.646 149.667 242.598C148.666 243.548 148.164 244.921 148.167 246.531C148.167 247.942 148.498 249.104 149.164 249.931C149.828 250.762 150.833 251.207 152.006 251.202C152.725 251.202 153.4 251.035 154.033 250.734C154.668 250.433 155.264 250.001 155.858 249.467L156.002 249.339V249.145V241.259L155.603 241.228ZM138.304 250.76C137.847 250.498 137.508 250.118 137.275 249.693C136.809 248.837 136.717 247.806 136.713 246.854V232H130.888V245.769C130.887 248.462 131.126 250.5 131.65 251.994C132.179 253.491 132.958 254.439 134.112 255.073C134.885 255.494 135.837 255.77 137.003 255.92C137.396 255.972 137.764 255.994 138.109 255.994C139.602 255.99 140.658 255.562 141.502 254.996V250.97C140.944 251.101 140.446 251.164 139.995 251.164C139.326 251.166 138.761 251.023 138.304 250.76Z" fill="#FEF592"/>
<path d="M189.074 238.593C189.074 239.857 188.048 240.882 186.784 240.882C185.521 240.882 184.495 239.857 184.495 238.593C184.495 237.33 185.521 236.304 186.784 236.304C188.048 236.304 189.074 237.33 189.074 238.593ZM170.716 236.304C169.453 236.304 168.427 237.33 168.427 238.593C168.427 239.857 169.453 240.882 170.716 240.882C171.98 240.882 173.005 239.857 173.005 238.593C173.005 237.33 171.98 236.304 170.716 236.304ZM178.878 240.47H178.621C176.06 240.47 173.983 242.547 173.983 245.108V251.227C173.983 253.86 176.118 255.994 178.749 255.994C181.383 255.994 183.516 253.859 183.516 251.227V245.11C183.518 242.547 181.441 240.47 178.878 240.47Z" fill="#FEF592"/>
<path d="M244.446 187.073C244.446 197.38 236.075 205.74 225.754 205.74H30.8666C20.5464 205.74 12.175 197.38 12.175 187.073V62.1095C12.175 51.8028 20.5464 43.4424 30.8666 43.4424H225.754C236.075 43.4424 244.446 51.8028 244.446 62.1095V187.073Z" fill="#572BB2"/>
<path d="M219.819 179.996C219.819 188.71 212.732 195.788 204.007 195.788H38.9722C30.2465 195.788 23.1597 188.71 23.1597 179.996V69.1874C23.1597 60.4731 30.2465 53.3955 38.9722 53.3955H204.007C212.732 53.3955 219.819 60.4731 219.819 69.1874V179.996Z" fill="#A78ED7"/>
<path d="M239.574 124.614C239.574 129.435 235.676 133.328 230.848 133.328C226.02 133.328 222.123 129.435 222.123 124.614C222.123 119.792 226.02 115.899 230.848 115.899C235.632 115.899 239.574 119.792 239.574 124.614Z" fill="#8968CA"/>
<path d="M235.632 105.725C235.632 108.379 233.506 110.503 230.848 110.503C228.191 110.503 226.065 108.379 226.065 105.725V95.7725C226.065 93.1184 228.191 90.9951 230.848 90.9951C233.506 90.9951 235.632 93.1184 235.632 95.7725V105.725Z" fill="#8968CA"/>
<path d="M235.632 153.411C235.632 156.065 233.506 158.188 230.848 158.188C228.191 158.188 226.065 156.065 226.065 153.411V143.458C226.065 140.804 228.191 138.68 230.848 138.68C233.506 138.68 235.632 140.804 235.632 143.458V153.411Z" fill="#8968CA"/>
<path d="M235.632 124.614C235.632 127.268 233.462 129.435 230.804 129.435C228.146 129.435 225.976 127.268 225.976 124.614C225.976 121.96 228.146 119.792 230.804 119.792C233.506 119.792 235.632 121.96 235.632 124.614Z" fill="#FEF592"/>
<path d="M200.331 188.622C205.321 188.622 209.366 184.581 209.366 179.598C209.366 174.614 205.321 170.574 200.331 170.574C195.34 170.574 191.295 174.614 191.295 179.598C191.295 184.581 195.34 188.622 200.331 188.622Z" fill="#8968CA"/>
<path d="M198.116 183.313C197.717 183.712 197.097 183.712 196.698 183.313C196.3 182.915 196.3 182.296 196.698 181.898L202.634 175.97C203.032 175.572 203.652 175.572 204.051 175.97C204.45 176.369 204.45 176.988 204.051 177.386L198.116 183.313Z" fill="#8968CA"/>
<path d="M196.654 177.342C196.256 176.943 196.256 176.324 196.654 175.926C197.053 175.528 197.673 175.528 198.072 175.926L204.007 181.854C204.405 182.252 204.405 182.871 204.007 183.269C203.608 183.667 202.988 183.667 202.589 183.269L196.654 177.342Z" fill="#8968CA"/>
<path d="M200.331 166.637C205.321 166.637 209.366 162.597 209.366 157.613C209.366 152.629 205.321 148.589 200.331 148.589C195.34 148.589 191.295 152.629 191.295 157.613C191.295 162.597 195.34 166.637 200.331 166.637Z" fill="#8968CA"/>
<path d="M204.184 159.913C204.184 160.355 203.83 160.709 203.387 160.709H195.414C194.971 160.709 194.617 160.355 194.617 159.913V155.268C194.617 154.826 194.971 154.472 195.414 154.472H203.387C203.83 154.472 204.184 154.826 204.184 155.268V159.913Z" fill="#8968CA"/>
<path d="M206.133 160.355V154.826L202.988 157.657L206.133 160.355Z" fill="#8968CA"/>
<path d="M200.331 144.608C205.321 144.608 209.366 140.568 209.366 135.584C209.366 130.6 205.321 126.56 200.331 126.56C195.34 126.56 191.295 130.6 191.295 135.584C191.295 140.568 195.34 144.608 200.331 144.608Z" fill="#8968CA"/>
<path d="M202.235 136.292C202.235 137.309 201.393 138.149 200.375 138.149C199.356 138.149 198.514 137.309 198.514 136.292V131.47C198.514 130.453 199.356 129.612 200.375 129.612C201.393 129.612 202.235 130.453 202.235 131.47V136.292Z" fill="#8968CA"/>
<path d="M199.843 135.805C199.843 137.353 199.843 138.901 199.843 140.45C199.843 140.671 199.843 140.892 199.843 141.113C199.843 141.821 200.95 141.821 200.95 141.113C200.95 139.565 200.95 138.017 200.95 136.469C200.95 136.247 200.95 136.026 200.95 135.805C200.95 135.097 199.843 135.097 199.843 135.805Z" fill="#8968CA"/>
<path d="M198.293 141.688C199.533 141.688 200.729 141.688 201.969 141.688C202.146 141.688 202.324 141.688 202.501 141.688C203.209 141.688 203.209 140.582 202.501 140.582C201.26 140.582 200.065 140.582 198.824 140.582C198.647 140.582 198.47 140.582 198.293 140.582C197.584 140.582 197.584 141.688 198.293 141.688Z" fill="#8968CA"/>
<path d="M195.99 131.558C198.382 133.195 200.818 134.832 203.209 136.469C203.564 136.69 203.874 136.911 204.228 137.176C204.804 137.574 205.38 136.601 204.804 136.203C202.412 134.566 199.976 132.93 197.584 131.293C197.23 131.072 196.92 130.851 196.566 130.585C195.945 130.187 195.37 131.16 195.99 131.558Z" fill="#8968CA"/>
<mask id="mask0_432_1703" style="mask-type:luminance" maskUnits="userSpaceOnUse" x="0" y="1" width="255" height="196">
<path d="M254.691 1.44775H0V196.051H254.691V1.44775Z" fill="white"/>
</mask>
<g mask="url(#mask0_432_1703)">
<path d="M87.5917 162.179C65.1378 161.666 44.9079 144.837 38.4497 123.352C35.7125 114.297 48.2439 109.598 52.5636 120.32C58.8935 136.124 71.5104 138.046 87.2067 138.302C96.5732 138.558 96.9154 162.392 87.5917 162.179Z" fill="#452389"/>
<path d="M79.6793 44.2467C79.6793 44.2467 46.0199 3.83965 20.5294 32.5432C12.5315 41.5557 32.2909 50.8673 32.2909 50.8673C32.2909 50.8673 21.8552 50.4829 20.4438 61.5457C19.0325 72.6512 41.6574 75.4703 41.6574 75.4703C41.6574 75.4703 34.8143 81.3648 37.7226 85.508C40.631 89.6512 48.7999 93.5808 75.7018 78.5457C78.8667 48.7743 79.6793 44.2467 79.6793 44.2467Z" fill="#452389"/>
<path d="M69.6285 49.4579C69.6285 49.4579 58.7651 40.6162 52.3925 52.4905C45.9771 64.3649 60.9464 72.2242 60.9464 72.2242L69.6285 49.4579Z" fill="#8968CA"/>
<path d="M165.774 53.1312C168.083 49.6714 171.762 47.4503 175.44 45.5282C182.839 41.5986 190.623 38.1388 198.877 36.9001C207.26 35.6614 218.038 36.2594 224.368 42.7945C226.549 45.0583 227.918 48.39 227.148 51.4654C226.378 54.4553 223.812 56.6337 221.203 58.2996C217.91 60.3925 214.403 61.7166 210.853 63.297C212.136 63.8096 213.462 64.4076 214.702 65.0483C216.712 66.1588 218.765 67.3975 220.134 69.2769C223.94 74.2744 221.588 81.1086 216.455 83.9277C210.126 87.3875 204.523 84.4403 198.193 83.5006C198.706 85.081 199.69 86.5759 200.118 88.2845C200.545 90.0784 200.46 92.1287 199.476 93.6664C195.841 99.3473 184.507 96.7845 179.246 95.8021C171.034 94.2644 166.159 87.9 164.277 79.998C162.481 72.395 161.283 60.3498 165.56 53.4729C165.646 53.3875 165.731 53.2594 165.774 53.1312Z" fill="#452389"/>
<path d="M176.423 62.0583C176.423 62.0583 187.372 53.3447 193.659 65.3045C199.947 77.2643 184.935 84.9527 184.935 84.9527L176.423 62.0583Z" fill="#8968CA"/>
<path d="M77.6691 198.699C80.5347 205.619 79.2088 215.314 86.1375 219.885C89.6873 222.32 93.8787 223.857 98.0701 224.455C100.936 224.882 106.538 224.028 109.062 222.32C113.938 219.159 113.125 206.131 113.125 200.92C113.125 193.274 110.559 182.169 103.245 178.325C97.6424 175.377 91.8258 176.915 85.9236 176.402C81.8605 175.975 72.5796 167.347 72.2802 173.242C72.0664 181.186 75.5307 193.488 77.6691 198.699Z" fill="#6F46BE"/>
<path d="M165.047 198.699C162.181 205.619 163.422 215.314 156.579 219.885C153.029 222.32 148.837 223.857 144.646 224.455C141.78 224.882 136.178 224.028 133.654 222.32C128.779 219.159 129.591 206.131 129.591 200.92C129.591 193.274 132.157 182.169 139.471 178.325C145.074 175.377 150.89 176.915 156.792 176.402C160.856 175.975 170.136 167.347 170.436 173.242C170.65 181.186 167.185 193.488 165.047 198.699Z" fill="#6F46BE"/>
<path d="M89.4308 119.294C101.748 109 135.493 108.701 149.436 118.269C164.833 128.862 176.766 175.206 166.758 189.644C156.45 204.508 83.4432 205.619 75.7019 189.644C77.3271 163.802 75.2742 130.998 89.4308 119.294Z" fill="#6F46BE"/>
<path d="M161.967 223.986C137.161 238.636 107.821 238.636 83.0152 223.986C75.6589 219.629 62.3149 204.935 62.9564 195.453L83.8706 126.172L121.165 142.744L166.244 124.762L180.102 202.501C180.914 211.94 169.324 219.629 161.967 223.986Z" fill="white"/>
<path d="M82.5877 27.8876C98.4123 15.2016 140.455 14.8599 158.418 26.6489C178.092 39.6765 193.446 96.7845 180.658 114.596C167.399 132.92 73.7772 134.372 63.8119 114.596C52.7775 92.8549 64.4107 42.4529 82.5877 27.8876Z" fill="#452389"/>
<path d="M110.174 104.815C109.447 99.3472 110.516 93.5809 113.253 89.3095C115.819 85.2945 120.139 82.0482 123.903 86.7467C125.058 88.1563 125.699 89.9075 126.212 91.6588C127.666 96.5708 128.137 101.184 127.196 106.224C126.512 109.94 123.432 113.955 119.583 114.553C115.905 115.109 112.441 112.119 111.115 108.616C110.644 107.377 110.345 106.139 110.174 104.815Z" fill="#8968CA"/>
<path d="M121.166 135.825L138.188 195.581L178.049 181.101L167.57 120.661L121.166 135.825Z" fill="#8968CA"/>
<path d="M132.499 129.973L133.868 134.458L154.098 128.435L153.071 123.438L146.314 125.787C146.314 125.787 144.218 122.712 141.652 123.609C139.086 124.506 137.589 128.435 137.589 128.435L132.499 129.973Z" fill="#6F46BE"/>
<path d="M152.216 168.501C143.662 162.948 154.953 143.983 164.748 151.714C169.837 155.729 176.295 147.4 178.819 145.35C184.849 151.116 167.87 178.624 152.216 168.501Z" fill="#452389"/>
<path d="M161.882 149.578L171.633 165.895C171.633 165.895 201.401 141.42 170.265 136.508L171.676 144.495C171.206 145.179 171.591 144.837 170.821 145.222L161.882 149.578Z" fill="white"/>
<path d="M56.1563 120.661L39.5618 131.681C39.5618 131.681 47.8163 165.254 77.4126 160.214L83.8708 126.171C83.4858 126.898 79.5938 133.475 72.5797 134.159C65.5227 134.842 58.1237 129.332 56.1563 120.661Z" fill="white"/>
</g>
<path d="M168.639 56.8044C156.322 50.6536 117.787 34.337 77.5407 46.8948C74.9317 47.7064 72.1517 46.0833 71.5957 43.3923L66.3351 18.0632C65.9502 16.0984 66.8056 14.1335 68.5163 13.1084C81.9459 5.20639 140.925 -19.8665 183.737 31.4325C184.934 32.8848 185.148 34.8923 184.293 36.5154L174.884 54.7968C173.686 57.0607 170.949 57.9576 168.639 56.8044Z" fill="white"/>
<path d="M134.467 20.3271L127.41 19.8999L127.837 12.8949L120.994 12.4678L120.567 19.5155L113.51 19.0884L113.125 25.9225L120.139 26.3497L119.711 33.3974L126.597 33.7818L127.025 26.7768L134.039 27.2039L134.467 20.3271Z" fill="#6F46BE"/>
</svg>
