<svg width="60" height="60" viewBox="0 0 60 60" fill="none" xmlns="http://www.w3.org/2000/svg">
<rect width="60" height="60" rx="30" fill="#A6B0BF"/>
<mask id="mask0_695_4327" style="mask-type:alpha" maskUnits="userSpaceOnUse" x="0" y="0" width="60" height="60">
<rect width="60" height="60" rx="30" fill="#6F46BE"/>
</mask>
<g mask="url(#mask0_695_4327)">
<path d="M21.0087 24.169C21.0087 24.169 13.1197 14.8765 7.30518 21.6075C5.48089 23.7166 10.0691 25.8258 10.0691 25.8258C10.0691 25.8258 7.65905 25.7585 7.36009 28.3384C7.06112 30.9122 12.296 31.5113 12.296 31.5113C12.296 31.5113 10.728 32.8991 11.4114 33.8528C12.0886 34.8065 13.9922 35.6991 20.1728 32.1471C20.8318 25.2266 21.0087 24.169 21.0087 24.169Z" fill="#C4CBD4"/>
<path d="M18.3179 25.4835C18.3179 25.4835 15.7859 23.4599 14.3399 26.2293C12.8939 28.9987 16.3655 30.7839 16.3655 30.7839L18.3179 25.4835Z" fill="#A6B0BF"/>
<path d="M39.5932 24.7324C40.1118 23.9254 40.966 23.4057 41.808 22.9411C43.5041 22.0057 45.2979 21.1926 47.2015 20.887C49.1356 20.5752 51.6311 20.6913 53.1076 22.1891C53.6201 22.7149 53.9435 23.4791 53.7665 24.2005C53.5957 24.8974 53.0039 25.4048 52.412 25.7961C51.6555 26.2913 50.844 26.6031 50.0386 26.976C50.3437 27.0922 50.6426 27.2205 50.9355 27.3795C51.4053 27.6301 51.8751 27.9175 52.2046 28.3393C53.0954 29.4886 52.5707 31.0782 51.3931 31.7445C49.9349 32.5637 48.6353 31.8912 47.171 31.6895C47.2869 32.0624 47.5249 32.4048 47.6225 32.796C47.7323 33.2118 47.714 33.6825 47.4883 34.0493C46.6646 35.3759 44.0349 34.8135 42.8147 34.5995C40.9111 34.2572 39.764 32.8022 39.3125 30.9742C38.8793 29.2135 38.5743 26.4258 39.5444 24.8241C39.5566 24.7874 39.5749 24.7568 39.5932 24.7324Z" fill="#C4CBD4"/>
<path d="M42.0765 26.7733C42.0765 26.7733 44.5842 24.7253 46.0668 27.4825C47.5494 30.2396 44.0961 32.0553 44.0961 32.0553L42.0765 26.7733Z" fill="#A6B0BF"/>
<path d="M21.1857 20.3734C24.8037 17.3961 34.5231 17.2005 38.7086 19.8965C43.2968 22.8738 46.9881 36.079 44.0778 40.2361C41.0576 44.5217 19.4163 45.0902 17.0673 40.5357C14.4559 35.5165 17.0185 23.7969 21.1857 20.3734Z" fill="#C4CBD4"/>
<path d="M27.7568 38.1454C27.5677 36.88 27.8056 35.5411 28.428 34.5446C29.0137 33.6092 30.0021 32.845 30.8868 33.9271C31.1552 34.2512 31.3139 34.6546 31.4359 35.0581C31.7837 36.1952 31.9057 37.259 31.6983 38.4328C31.5457 39.2948 30.8502 40.2301 29.9533 40.383C29.1052 40.5236 28.2937 39.8389 27.9826 39.0258C27.8727 38.7507 27.7995 38.4511 27.7568 38.1454Z" fill="#A6B0BF"/>
</g>
</svg>
