<svg width="100%" height="310" viewBox="0 0 670 310" fill="none" xmlns="http://www.w3.org/2000/svg">
<rect x="670" y="262" width="670" height="199.346" rx="99.6728" transform="rotate(-180 670 262)" fill="#EEE8FF"/>
<path d="M93.9843 67.6645C93.9843 67.6645 55.1404 20.9652 25.7396 54.1568C16.5146 64.572 39.3139 75.3247 39.3139 75.3247C39.3139 75.3247 27.2911 74.8645 25.6674 87.678C24.0437 100.491 50.1351 103.761 50.1351 103.761C50.1351 103.761 42.2367 110.573 45.5733 115.356C48.91 120.139 58.3354 124.705 89.3785 107.338C93.0443 72.9255 93.9843 67.6645 93.9843 67.6645Z" fill="#6F46BE"/>
<path d="M82.5654 73.352C82.5654 73.352 70.0436 63.1232 62.6624 76.8382C55.2812 90.5532 72.5124 99.6419 72.5124 99.6419L82.5654 73.352Z" fill="#C0AFE9"/>
<path d="M203.66 80.5159C206.303 76.5346 210.591 73.9777 214.798 71.7283C223.316 67.1706 232.299 63.2047 241.83 61.7803C251.505 60.3327 263.949 61.0398 271.224 68.5976C273.758 71.2288 275.322 75.0819 274.408 78.6379C273.517 82.1043 270.55 84.5919 267.561 86.5083C263.769 88.9422 259.698 90.4537 255.641 92.2573C257.144 92.8671 258.653 93.5178 260.093 94.3018C262.435 95.5776 264.761 97.0303 266.381 99.1644C270.753 104.924 268.065 112.83 262.144 116.073C254.831 120.08 248.378 116.655 241.078 115.561C241.648 117.411 242.797 119.135 243.275 121.095C243.787 123.18 243.69 125.514 242.539 127.32C238.354 133.881 225.26 130.945 219.19 129.795C209.707 127.997 204.078 120.685 201.921 111.541C199.848 102.741 198.483 88.8474 203.402 80.9232C203.485 80.7849 203.571 80.6491 203.66 80.5159Z" fill="#6F46BE"/>
<path d="M215.937 90.8106C215.937 90.8106 228.563 80.7498 235.798 94.5665C243.032 108.383 225.711 117.24 225.711 117.24L215.937 90.8106Z" fill="#C0AFE9"/>
<path d="M99.2054 182.573C69.8015 180.221 44.7494 156.698 38.0453 128.47C35.2226 116.591 52.1592 111.534 56.8638 125.647C63.9208 146.583 80.2693 149.994 100.852 151.64C113.084 152.817 111.437 183.632 99.2054 182.573Z" fill="#6F46BE"/>
<path d="M180.36 145.406C209.058 152.11 230.464 178.926 232.934 207.742C233.993 219.974 216.586 222.444 213.88 207.742C209.999 185.983 194.239 180.22 174.244 175.633C162.247 172.81 168.363 142.583 180.36 145.406Z" fill="#6F46BE"/>
<path d="M95.7944 246.085C99.0876 254.083 97.5586 265.257 105.556 270.549C109.673 273.372 114.495 275.136 119.317 275.842C122.611 276.313 129.08 275.372 132.02 273.372C137.666 269.726 136.725 254.671 136.725 248.673C136.725 239.852 133.784 227.032 125.316 222.562C118.847 219.151 112.143 220.916 105.321 220.327C100.617 219.857 89.9136 209.86 89.5607 216.681C89.3255 225.855 93.3244 240.087 95.7944 246.085Z" fill="#6F46BE"/>
<path d="M196.591 246.085C193.298 254.083 194.709 265.257 186.829 270.549C182.712 273.372 177.89 275.136 173.068 275.842C169.775 276.313 163.306 275.372 160.365 273.372C154.72 269.726 155.661 254.671 155.661 248.673C155.661 239.852 158.601 227.032 167.07 222.562C173.538 219.151 180.242 220.916 187.064 220.327C191.769 219.857 202.472 209.86 202.825 216.681C203.06 225.855 199.061 240.087 196.591 246.085Z" fill="#6F46BE"/>
<path d="M110.496 154.345C124.728 142.466 162.482 142.113 178.596 153.169C196.356 165.401 210.117 218.916 198.59 235.617C186.711 252.789 102.499 254.083 93.5598 235.617C83.68 215.152 94.1478 167.871 110.496 154.345Z" fill="#6F46BE"/>
<path d="M116.73 157.286C128.492 147.523 159.542 147.171 172.833 156.345C187.417 166.46 198.826 210.448 189.299 224.209C179.537 238.323 110.261 239.381 102.851 224.209C94.7359 207.39 103.322 168.577 116.73 157.286Z" fill="#A6A8AB"/>
<path d="M191.561 233.873C162.947 248.709 129.119 248.709 100.504 233.873C92.0171 229.459 87.046 220.386 87.7734 210.823L93.5933 138.239H198.229L204.049 210.823C205.019 220.386 200.048 229.459 191.561 233.873Z" fill="#C0AFE9"/>
<path d="M145.707 200.98C169.565 200.383 190.691 196.441 202.5 190L201.295 174C192.706 179.487 170.996 189.403 145.707 190C116.72 190.716 95.7943 173.936 91.5 170L89.5 187.5C99.7587 194.776 118.987 200.98 143.441 200.98C144.156 200.98 144.872 200.98 145.707 200.98Z" fill="#FEF592"/>
<path d="M101.446 48.7762C119.686 34.141 168.179 33.7041 188.93 47.3563C211.647 62.4284 229.341 128.396 214.596 148.929C199.306 170.117 91.2891 171.756 79.8212 148.929C67.0427 123.809 80.4765 65.5957 101.446 48.7762Z" fill="#6F46BE"/>
<path d="M217.879 93.7723L75.2116 78.3646C72.9769 78.1294 71.4479 76.13 71.6831 74.0129L72.1536 70.1316C72.3888 67.8969 74.3883 66.3679 76.5054 66.6031L219.173 82.0107C221.408 82.246 222.937 84.2454 222.702 86.3625L222.231 90.2438C221.996 92.4785 219.996 94.0075 217.879 93.7723Z" fill="#FEF592"/>
<path d="M175.42 8.3837L134.842 3.91431C108.497 1.09153 84.8558 20.1453 82.033 46.4912L79.7983 66.9563L215.762 81.6582L217.997 61.1931C220.819 34.8472 201.766 11.2065 175.42 8.3837Z" fill="#FEF592"/>
<path d="M167.54 2.62021L143.781 0.0326639C141.547 -0.202567 139.547 1.44405 139.312 3.67875L131.902 72.6015L163.658 76.0123L171.186 7.0896C171.421 4.8549 169.774 2.85544 167.54 2.62021Z" fill="#F3E97D"/>
<path opacity="0.1" d="M222.231 89.3032L71.8009 72.9547C71.8009 75.7774 73.8003 78.1297 76.6231 78.4826L216.233 93.5374C219.173 93.8902 221.761 92.0084 222.231 89.3032Z" fill="black"/>
<path d="M133.264 137.623C132.403 131.318 133.651 124.647 136.798 119.73C139.764 115.093 144.733 111.36 149.087 116.776C150.401 118.408 151.183 120.412 151.776 122.431C153.444 128.105 153.998 133.421 152.897 139.237C152.084 143.533 148.576 148.15 144.091 148.849C139.848 149.51 135.833 146.044 134.322 141.976C133.823 140.628 133.474 139.16 133.264 137.623Z" fill="#C0AFE9"/>
<path d="M291.756 204.706C291.756 209.028 288.638 212.532 284.786 212.532C280.933 212.532 277.815 209.028 277.815 204.706C277.815 200.383 280.933 196.879 284.786 196.879C285.371 196.879 288.053 196.743 288.597 196.893C291.62 197.752 291.756 201.051 291.756 204.706Z" fill="#64748B"/>
<path d="M288.202 212.533C292.052 212.533 295.173 209.029 295.173 204.706C295.173 200.384 292.052 196.88 288.202 196.88C284.353 196.88 281.232 200.384 281.232 204.706C281.232 209.029 284.353 212.533 288.202 212.533Z" fill="#A6AFBC"/>
<path d="M288.543 210.35C291.671 210.35 294.206 207.7 294.206 204.432C294.206 201.164 291.671 198.515 288.543 198.515C285.415 198.515 282.879 201.164 282.879 204.432C282.879 207.7 285.415 210.35 288.543 210.35Z" fill="#6F46BE"/>
<path d="M288.87 199.278C286.651 199.278 284.826 200.969 284.473 203.178C285.249 202.51 286.242 202.101 287.318 202.101C289.782 202.101 291.77 204.187 291.77 206.75C291.77 207.009 291.742 207.269 291.715 207.514C292.695 206.655 293.322 205.373 293.322 203.928C293.335 201.351 291.334 199.278 288.87 199.278Z" fill="#6F46BE"/>
<path d="M289.128 209.15C285.997 209.15 283.465 206.505 283.465 203.233C283.465 202.483 283.601 201.76 283.846 201.092C283.233 202.033 282.879 203.164 282.879 204.392C282.879 207.65 285.412 210.309 288.543 210.309C290.953 210.309 292.995 208.741 293.825 206.532C292.804 208.114 291.075 209.15 289.128 209.15Z" fill="#6F46BE"/>
<path d="M191.066 204.665C191.066 208.987 187.948 212.492 184.096 212.492C180.243 212.492 177.125 208.987 177.125 204.665C177.125 200.343 180.243 196.838 184.096 196.838C184.681 196.838 187.363 196.702 187.908 196.852C190.944 197.711 191.066 201.011 191.066 204.665Z" fill="#64748B"/>
<path d="M187.526 212.491C191.376 212.491 194.497 208.987 194.497 204.665C194.497 200.342 191.376 196.838 187.526 196.838C183.677 196.838 180.556 200.342 180.556 204.665C180.556 208.987 183.677 212.491 187.526 212.491Z" fill="#A6AFBC"/>
<path d="M175.628 223.863H217.736L215.231 248.937H171.244L175.628 223.863Z" fill="#FEF592"/>
<path d="M175.627 223.863L173.681 224.517L169.379 248.937H171.244L175.627 223.863Z" fill="#FEF592"/>
<path d="M168.249 268.653H210.371L207.852 293.728H163.865L168.249 268.653Z" fill="#FEF592"/>
<path d="M169.379 309.641H178.772L190.943 219.718H181.237L169.379 309.641Z" fill="#A6AFBC"/>
<path d="M182.53 210.296L197.764 309.641H209.227L191.965 210.296H182.53Z" fill="#A6AFBC"/>
<path d="M182.53 210.296H179.889L194.102 309.641H198.676L182.53 210.296Z" fill="#64748B"/>
<path d="M179.889 210.296L165.88 309.641H169.379L181.985 214.864L179.889 210.296Z" fill="#64748B"/>
<path d="M270.137 309.641H279.53L291.701 219.718H281.994L270.137 309.641Z" fill="#A6AFBC"/>
<path d="M283.288 210.296L298.522 309.641H309.985L292.723 210.296H283.288Z" fill="#A6AFBC"/>
<path d="M283.288 210.296H280.647L294.86 309.641H299.434L283.288 210.296Z" fill="#64748B"/>
<path d="M280.647 210.296L266.624 309.641H270.137L282.73 214.864L280.647 210.296Z" fill="#64748B"/>
<path d="M304.73 248.938H183.51L179.058 224.613L180.161 222.826L300.292 224.613L305.833 247.151L304.73 248.938Z" fill="#FEF592"/>
<path d="M305.833 247.151H184.613L180.161 222.826H301.381L305.833 247.151Z" fill="#FEF592"/>
<path d="M201.508 247.151H184.654L197.587 222.826H214.428L201.508 247.151Z" fill="#6F46BE"/>
<path d="M230.533 247.151H213.679L226.612 222.826H243.453L230.533 247.151Z" fill="#6F46BE"/>
<path d="M259.558 247.274H242.718L255.638 222.949H272.478L259.558 247.274Z" fill="#6F46BE"/>
<path d="M288.584 247.274H271.743L284.663 222.949H301.503L288.584 247.274Z" fill="#6F46BE"/>
<path d="M310.911 293.729H189.677L185.239 269.404L186.328 267.618L306.459 269.404L312 291.943L310.911 293.729Z" fill="#FEF592"/>
<path d="M312 291.943H190.78L186.328 267.618H307.562L312 291.943Z" fill="#FEF592"/>
<path d="M207.675 291.943H190.821L203.754 267.618H220.595L207.675 291.943Z" fill="#6F46BE"/>
<path d="M236.701 291.943H219.86L232.78 267.618H249.62L236.701 291.943Z" fill="#6F46BE"/>
<path d="M265.726 292.065H248.885L261.805 267.74H278.645L265.726 292.065Z" fill="#6F46BE"/>
<path d="M294.751 292.065H277.91L290.83 267.74H307.684L294.751 292.065Z" fill="#6F46BE"/>
<path d="M168.249 268.653L166.302 269.308L162 293.728H163.865L168.249 268.653Z" fill="#FEF592"/>
<path d="M187.867 210.31C190.994 210.31 193.53 207.66 193.53 204.392C193.53 201.124 190.994 198.475 187.867 198.475C184.739 198.475 182.203 201.124 182.203 204.392C182.203 207.66 184.739 210.31 187.867 210.31Z" fill="#6F46BE"/>
<path d="M188.193 199.225C185.974 199.225 184.15 200.916 183.796 203.125C184.572 202.457 185.566 202.048 186.641 202.048C189.106 202.048 191.093 204.134 191.093 206.697C191.093 206.956 191.066 207.215 191.039 207.461C192.019 206.602 192.645 205.32 192.645 203.875C192.645 201.311 190.658 199.225 188.193 199.225Z" fill="#6F46BE"/>
<path d="M188.452 209.096C185.321 209.096 182.789 206.451 182.789 203.179C182.789 202.429 182.925 201.706 183.17 201.038C182.557 201.979 182.203 203.111 182.203 204.338C182.203 207.597 184.735 210.255 187.867 210.255C190.276 210.255 192.318 208.687 193.149 206.479C192.128 208.06 190.399 209.096 188.452 209.096Z" fill="#6F46BE"/>
<path d="M191.828 293.729H206.464L206.722 295.188L196.403 295.624L192.468 298.297L191.828 293.729Z" fill="#64748B"/>
<path d="M185.416 248.938H198.676L198.935 250.424L189.133 250.888L186.056 253.41L185.416 248.938Z" fill="#64748B"/>
<path d="M286.16 248.938H299.421L299.679 250.424L289.877 250.888L286.8 253.41L286.16 248.938Z" fill="#64748B"/>
<path d="M292.572 293.729H307.221L307.48 295.188L297.16 295.651L293.226 298.283L292.572 293.729Z" fill="#64748B"/>
<path d="M326.961 187H292.823V139.396H326.161V147.839H303.159V158.612H324.05V167.056H303.159V178.556H326.961V187ZM379.291 151.406C383.561 151.406 386.667 152.765 388.608 155.482C390.597 158.2 391.592 162.421 391.592 168.148V187H381.329V169.749C381.329 166.498 380.868 164.193 379.946 162.834C379.072 161.475 377.519 160.796 375.287 160.796C373.152 160.796 370.75 161.791 368.081 163.78C368.227 165.139 368.299 166.595 368.299 168.148V187H357.963V169.749C357.963 166.449 357.527 164.144 356.653 162.834C355.78 161.475 354.227 160.796 351.995 160.796C349.957 160.796 347.579 161.863 344.861 163.999V187H334.598V152.498H344.716V156.356C346.414 154.9 348.234 153.711 350.175 152.789C352.164 151.867 354.178 151.406 356.216 151.406C358.691 151.406 360.754 151.867 362.404 152.789C364.053 153.711 365.364 155.094 366.334 156.938C370.507 153.25 374.826 151.406 379.291 151.406ZM443.257 151.406C446.071 151.406 448.522 152.134 450.608 153.59C452.695 154.997 454.296 156.962 455.412 159.486C456.529 162.009 457.087 164.848 457.087 168.002C457.087 174.359 455.146 179.309 451.263 182.851C447.43 186.393 442.019 188.165 435.031 188.165C432.023 188.165 428.99 187.825 425.933 187.146C422.876 186.466 420.061 185.593 417.489 184.525V177.392C418.654 177.683 419.867 177.974 421.129 178.265V139.396H431.392V156.21C432.993 154.754 434.74 153.59 436.633 152.716C438.525 151.843 440.733 151.406 443.257 151.406ZM435.468 179.794C439.011 179.794 441.777 178.848 443.766 176.955C445.756 175.014 446.75 172.442 446.75 169.239C446.75 166.376 446.095 164.12 444.785 162.47C443.475 160.82 441.558 159.995 439.035 159.995C437.628 159.995 436.293 160.311 435.031 160.941C433.818 161.524 432.605 162.373 431.392 163.489V179.503C433.139 179.697 434.498 179.794 435.468 179.794ZM486.72 151.697C488.176 151.697 489.511 151.843 490.724 152.134V161.305C489.317 160.966 487.836 160.796 486.284 160.796C482.547 160.796 478.98 161.985 475.584 164.363V187H465.32V152.498H475.438V156.428C479.175 153.274 482.935 151.697 486.72 151.697ZM529.071 168.293C529.071 169.749 528.998 171.205 528.853 172.66H504.978C505.512 175.087 506.725 176.907 508.617 178.12C510.51 179.284 513.227 179.867 516.77 179.867C520.749 179.867 524.534 179.187 528.125 177.829V185.253C526.184 186.272 524.097 187 521.865 187.437C519.681 187.922 517.207 188.165 514.441 188.165C510.558 188.165 507.113 187.437 504.105 185.981C501.096 184.525 498.767 182.439 497.117 179.721C495.467 177.004 494.642 173.801 494.642 170.113C494.642 166.522 495.37 163.319 496.826 160.505C498.281 157.642 500.368 155.409 503.085 153.808C505.851 152.158 509.078 151.333 512.766 151.333C518.056 151.333 522.083 152.838 524.849 155.846C527.664 158.855 529.071 163.004 529.071 168.293ZM519.463 165.673C519.463 163.732 518.881 162.106 517.716 160.796C516.551 159.486 514.853 158.831 512.621 158.831C510.486 158.831 508.763 159.437 507.453 160.65C506.191 161.863 505.342 163.538 504.905 165.673H519.463ZM543.676 152.498L552.92 176.591L562.455 152.498H573.738L557.87 187H547.461L532.248 152.498H543.676ZM610.106 168.293C610.106 169.749 610.034 171.205 609.888 172.66H586.013C586.547 175.087 587.76 176.907 589.652 178.12C591.545 179.284 594.262 179.867 597.805 179.867C601.784 179.867 605.569 179.187 609.16 177.829V185.253C607.219 186.272 605.132 187 602.9 187.437C600.716 187.922 598.242 188.165 595.476 188.165C591.594 188.165 588.148 187.437 585.14 185.981C582.131 184.525 579.802 182.439 578.152 179.721C576.502 177.004 575.677 173.801 575.677 170.113C575.677 166.522 576.405 163.319 577.861 160.505C579.316 157.642 581.403 155.409 584.12 153.808C586.886 152.158 590.113 151.333 593.801 151.333C599.091 151.333 603.119 152.838 605.885 155.846C608.699 158.855 610.106 163.004 610.106 168.293ZM600.498 165.673C600.498 163.732 599.916 162.106 598.751 160.796C597.587 159.486 595.888 158.831 593.656 158.831C591.521 158.831 589.798 159.437 588.488 160.65C587.226 161.863 586.377 163.538 585.94 165.673H600.498Z" fill="#6F46BE"/>
</svg>
