<svg viewBox="0 0 297 83" fill="none" xmlns="http://www.w3.org/2000/svg">
<rect width="297" height="83" rx="8" fill="#F3F5F7"/>
<path d="M36.86 37.144C36.228 37.144 35.64 37.032 35.096 36.808C34.552 36.584 34.076 36.272 33.668 35.872C33.268 35.472 32.952 35.008 32.72 34.48C32.496 33.944 32.384 33.368 32.384 32.752C32.384 32.128 32.496 31.552 32.72 31.024C32.944 30.496 33.256 30.036 33.656 29.644C34.064 29.244 34.536 28.936 35.072 28.72C35.616 28.496 36.204 28.384 36.836 28.384C37.476 28.384 38.064 28.496 38.6 28.72C39.144 28.936 39.616 29.244 40.016 29.644C40.424 30.036 40.74 30.5 40.964 31.036C41.188 31.564 41.3 32.14 41.3 32.764C41.3 33.38 41.188 33.956 40.964 34.492C40.74 35.02 40.424 35.484 40.016 35.884C39.616 36.276 39.148 36.584 38.612 36.808C38.076 37.032 37.492 37.144 36.86 37.144ZM36.836 35.428C37.348 35.428 37.792 35.316 38.168 35.092C38.544 34.868 38.836 34.556 39.044 34.156C39.26 33.748 39.368 33.28 39.368 32.752C39.368 32.352 39.308 31.992 39.188 31.672C39.068 31.344 38.896 31.064 38.672 30.832C38.448 30.592 38.18 30.412 37.868 30.292C37.564 30.164 37.22 30.1 36.836 30.1C36.332 30.1 35.892 30.212 35.516 30.436C35.14 30.652 34.844 30.96 34.628 31.36C34.42 31.752 34.316 32.216 34.316 32.752C34.316 33.152 34.376 33.516 34.496 33.844C34.616 34.172 34.788 34.456 35.012 34.696C35.236 34.928 35.5 35.108 35.804 35.236C36.116 35.364 36.46 35.428 36.836 35.428ZM40.64 37.672L36.68 33.712L37.772 32.62L41.732 36.58L40.64 37.672ZM45.072 37.132C44.536 37.132 44.06 37.024 43.644 36.808C43.236 36.584 42.916 36.28 42.684 35.896C42.452 35.504 42.336 35.056 42.336 34.552V31.168H44.172V34.528C44.172 34.728 44.204 34.9 44.268 35.044C44.34 35.188 44.444 35.3 44.58 35.38C44.716 35.46 44.88 35.5 45.072 35.5C45.344 35.5 45.56 35.416 45.72 35.248C45.88 35.072 45.96 34.832 45.96 34.528V31.168H47.796V34.54C47.796 35.052 47.68 35.504 47.448 35.896C47.216 36.28 46.896 36.584 46.488 36.808C46.08 37.024 45.608 37.132 45.072 37.132ZM51.3848 37.12C50.8488 37.12 50.3688 36.988 49.9448 36.724C49.5288 36.46 49.1968 36.1 48.9488 35.644C48.7088 35.188 48.5888 34.668 48.5888 34.084C48.5888 33.5 48.7088 32.98 48.9488 32.524C49.1968 32.068 49.5288 31.708 49.9448 31.444C50.3688 31.18 50.8488 31.048 51.3848 31.048C51.7768 31.048 52.1288 31.124 52.4408 31.276C52.7608 31.428 53.0208 31.64 53.2208 31.912C53.4208 32.176 53.5328 32.48 53.5568 32.824V35.344C53.5328 35.688 53.4208 35.996 53.2208 36.268C53.0288 36.532 52.7728 36.74 52.4528 36.892C52.1328 37.044 51.7768 37.12 51.3848 37.12ZM51.7568 35.464C52.1488 35.464 52.4648 35.336 52.7048 35.08C52.9448 34.816 53.0648 34.484 53.0648 34.084C53.0648 33.812 53.0088 33.572 52.8968 33.364C52.7928 33.156 52.6408 32.996 52.4408 32.884C52.2488 32.764 52.0248 32.704 51.7688 32.704C51.5128 32.704 51.2848 32.764 51.0848 32.884C50.8928 32.996 50.7368 33.156 50.6168 33.364C50.5048 33.572 50.4488 33.812 50.4488 34.084C50.4488 34.348 50.5048 34.584 50.6168 34.792C50.7288 35 50.8848 35.164 51.0848 35.284C51.2848 35.404 51.5088 35.464 51.7568 35.464ZM52.9928 37V35.428L53.2688 34.012L52.9928 32.596V31.168H54.7928V37H52.9928ZM56.0855 37V28.288H57.9215V37H56.0855ZM64.3076 37.132C63.7076 37.132 63.1636 37 62.6756 36.736C62.1956 36.464 61.8156 36.096 61.5356 35.632C61.2556 35.168 61.1156 34.648 61.1156 34.072C61.1156 33.496 61.2556 32.98 61.5356 32.524C61.8156 32.068 62.1956 31.708 62.6756 31.444C63.1556 31.172 63.6996 31.036 64.3076 31.036C64.9156 31.036 65.4596 31.168 65.9396 31.432C66.4196 31.696 66.7996 32.06 67.0796 32.524C67.3596 32.98 67.4996 33.496 67.4996 34.072C67.4996 34.648 67.3596 35.168 67.0796 35.632C66.7996 36.096 66.4196 36.464 65.9396 36.736C65.4596 37 64.9156 37.132 64.3076 37.132ZM64.3076 35.464C64.5716 35.464 64.8036 35.408 65.0036 35.296C65.2036 35.176 65.3556 35.012 65.4596 34.804C65.5716 34.588 65.6276 34.344 65.6276 34.072C65.6276 33.8 65.5716 33.564 65.4596 33.364C65.3476 33.156 65.1916 32.996 64.9916 32.884C64.7996 32.764 64.5716 32.704 64.3076 32.704C64.0516 32.704 63.8236 32.764 63.6236 32.884C63.4236 32.996 63.2676 33.156 63.1556 33.364C63.0436 33.572 62.9876 33.812 62.9876 34.084C62.9876 34.348 63.0436 34.588 63.1556 34.804C63.2676 35.012 63.4236 35.176 63.6236 35.296C63.8236 35.408 64.0516 35.464 64.3076 35.464ZM74.0588 37.12C73.6668 37.12 73.3068 37.044 72.9788 36.892C72.6508 36.74 72.3828 36.532 72.1748 36.268C71.9668 35.996 71.8468 35.688 71.8148 35.344V32.884C71.8468 32.54 71.9668 32.228 72.1748 31.948C72.3828 31.668 72.6508 31.448 72.9788 31.288C73.3068 31.128 73.6668 31.048 74.0588 31.048C74.6108 31.048 75.0988 31.18 75.5228 31.444C75.9548 31.708 76.2908 32.068 76.5308 32.524C76.7788 32.98 76.9028 33.5 76.9028 34.084C76.9028 34.668 76.7788 35.188 76.5308 35.644C76.2908 36.1 75.9548 36.46 75.5228 36.724C75.0988 36.988 74.6108 37.12 74.0588 37.12ZM73.7228 35.464C73.9868 35.464 74.2148 35.404 74.4068 35.284C74.6068 35.164 74.7628 35 74.8748 34.792C74.9868 34.584 75.0428 34.348 75.0428 34.084C75.0428 33.812 74.9868 33.572 74.8748 33.364C74.7628 33.156 74.6068 32.996 74.4068 32.884C74.2148 32.764 73.9908 32.704 73.7348 32.704C73.4788 32.704 73.2508 32.764 73.0508 32.884C72.8588 32.996 72.7068 33.156 72.5948 33.364C72.4828 33.572 72.4268 33.812 72.4268 34.084C72.4268 34.348 72.4788 34.584 72.5828 34.792C72.6948 35 72.8508 35.164 73.0508 35.284C73.2508 35.404 73.4748 35.464 73.7228 35.464ZM70.6988 39.46V31.168H72.5348V32.668L72.2348 34.084L72.5108 35.5V39.46H70.6988ZM77.8355 37V28.288H79.6715V37H77.8355ZM83.4004 37.12C82.8644 37.12 82.3844 36.988 81.9604 36.724C81.5444 36.46 81.2124 36.1 80.9644 35.644C80.7244 35.188 80.6044 34.668 80.6044 34.084C80.6044 33.5 80.7244 32.98 80.9644 32.524C81.2124 32.068 81.5444 31.708 81.9604 31.444C82.3844 31.18 82.8644 31.048 83.4004 31.048C83.7924 31.048 84.1444 31.124 84.4564 31.276C84.7764 31.428 85.0364 31.64 85.2364 31.912C85.4364 32.176 85.5484 32.48 85.5724 32.824V35.344C85.5484 35.688 85.4364 35.996 85.2364 36.268C85.0444 36.532 84.7884 36.74 84.4684 36.892C84.1484 37.044 83.7924 37.12 83.4004 37.12ZM83.7724 35.464C84.1644 35.464 84.4804 35.336 84.7204 35.08C84.9604 34.816 85.0804 34.484 85.0804 34.084C85.0804 33.812 85.0244 33.572 84.9124 33.364C84.8084 33.156 84.6564 32.996 84.4564 32.884C84.2644 32.764 84.0404 32.704 83.7844 32.704C83.5284 32.704 83.3004 32.764 83.1004 32.884C82.9084 32.996 82.7524 33.156 82.6324 33.364C82.5204 33.572 82.4644 33.812 82.4644 34.084C82.4644 34.348 82.5204 34.584 82.6324 34.792C82.7444 35 82.9004 35.164 83.1004 35.284C83.3004 35.404 83.5244 35.464 83.7724 35.464ZM85.0084 37V35.428L85.2844 34.012L85.0084 32.596V31.168H86.8084V37H85.0084ZM91.9531 37V33.676C91.9531 33.372 91.8571 33.128 91.6651 32.944C91.4811 32.752 91.2451 32.656 90.9571 32.656C90.7571 32.656 90.5811 32.7 90.4291 32.788C90.2771 32.868 90.1571 32.988 90.0691 33.148C89.9811 33.3 89.9371 33.476 89.9371 33.676L89.2291 33.328C89.2291 32.872 89.3291 32.472 89.5291 32.128C89.7291 31.784 90.0051 31.52 90.3571 31.336C90.7171 31.144 91.1211 31.048 91.5691 31.048C92.0011 31.048 92.3811 31.152 92.7091 31.36C93.0451 31.56 93.3091 31.828 93.5011 32.164C93.6931 32.5 93.7891 32.868 93.7891 33.268V37H91.9531ZM88.1011 37V31.168H89.9371V37H88.1011ZM97.7763 37.132C97.1763 37.132 96.6323 37 96.1443 36.736C95.6643 36.464 95.2843 36.096 95.0043 35.632C94.7243 35.168 94.5843 34.648 94.5843 34.072C94.5843 33.496 94.7243 32.98 95.0043 32.524C95.2843 32.068 95.6643 31.708 96.1443 31.444C96.6243 31.172 97.1683 31.036 97.7763 31.036C98.3843 31.036 98.9283 31.168 99.4083 31.432C99.8883 31.696 100.268 32.06 100.548 32.524C100.828 32.98 100.968 33.496 100.968 34.072C100.968 34.648 100.828 35.168 100.548 35.632C100.268 36.096 99.8883 36.464 99.4083 36.736C98.9283 37 98.3843 37.132 97.7763 37.132ZM97.7763 35.464C98.0403 35.464 98.2723 35.408 98.4723 35.296C98.6723 35.176 98.8243 35.012 98.9283 34.804C99.0403 34.588 99.0963 34.344 99.0963 34.072C99.0963 33.8 99.0403 33.564 98.9283 33.364C98.8163 33.156 98.6603 32.996 98.4603 32.884C98.2683 32.764 98.0403 32.704 97.7763 32.704C97.5203 32.704 97.2923 32.764 97.0923 32.884C96.8923 32.996 96.7363 33.156 96.6243 33.364C96.5123 33.572 96.4563 33.812 96.4563 34.084C96.4563 34.348 96.5123 34.588 96.6243 34.804C96.7363 35.012 96.8923 35.176 97.0923 35.296C97.2923 35.408 97.5203 35.464 97.7763 35.464ZM106.652 37.12C106.1 37.12 105.608 36.988 105.176 36.724C104.752 36.46 104.416 36.1 104.168 35.644C103.928 35.188 103.808 34.668 103.808 34.084C103.808 33.5 103.928 32.98 104.168 32.524C104.416 32.068 104.752 31.708 105.176 31.444C105.608 31.18 106.1 31.048 106.652 31.048C107.052 31.048 107.412 31.124 107.732 31.276C108.06 31.428 108.328 31.64 108.536 31.912C108.752 32.176 108.872 32.48 108.896 32.824V35.284C108.872 35.628 108.756 35.94 108.548 36.22C108.34 36.492 108.072 36.712 107.744 36.88C107.416 37.04 107.052 37.12 106.652 37.12ZM106.976 35.464C107.24 35.464 107.468 35.408 107.66 35.296C107.852 35.176 108.004 35.012 108.116 34.804C108.228 34.596 108.284 34.356 108.284 34.084C108.284 33.812 108.228 33.576 108.116 33.376C108.012 33.168 107.86 33.004 107.66 32.884C107.468 32.764 107.244 32.704 106.988 32.704C106.732 32.704 106.504 32.764 106.304 32.884C106.112 33.004 105.956 33.168 105.836 33.376C105.724 33.584 105.668 33.82 105.668 34.084C105.668 34.348 105.724 34.584 105.836 34.792C105.948 35 106.104 35.164 106.304 35.284C106.504 35.404 106.728 35.464 106.976 35.464ZM110.012 37H108.212V35.428L108.488 34.012L108.176 32.596V28.288H110.012V37ZM114.184 37.132C113.552 37.132 112.988 37.004 112.492 36.748C112.004 36.484 111.62 36.12 111.34 35.656C111.06 35.192 110.92 34.668 110.92 34.084C110.92 33.5 111.056 32.98 111.328 32.524C111.608 32.06 111.984 31.696 112.456 31.432C112.928 31.168 113.46 31.036 114.052 31.036C114.628 31.036 115.136 31.16 115.576 31.408C116.016 31.656 116.36 32 116.608 32.44C116.864 32.88 116.992 33.384 116.992 33.952C116.992 34.056 116.984 34.168 116.968 34.288C116.96 34.4 116.94 34.532 116.908 34.684L111.88 34.696V33.436L116.128 33.424L115.336 33.952C115.328 33.616 115.276 33.34 115.18 33.124C115.084 32.9 114.94 32.732 114.748 32.62C114.564 32.5 114.336 32.44 114.064 32.44C113.776 32.44 113.524 32.508 113.308 32.644C113.1 32.772 112.936 32.956 112.816 33.196C112.704 33.436 112.648 33.728 112.648 34.072C112.648 34.416 112.708 34.712 112.828 34.96C112.956 35.2 113.132 35.388 113.356 35.524C113.588 35.652 113.86 35.716 114.172 35.716C114.46 35.716 114.72 35.668 114.952 35.572C115.184 35.468 115.388 35.316 115.564 35.116L116.572 36.124C116.284 36.46 115.936 36.712 115.528 36.88C115.12 37.048 114.672 37.132 114.184 37.132ZM34.772 51.144C34.428 51.144 34.088 51.1 33.752 51.012C33.424 50.924 33.116 50.8 32.828 50.64C32.548 50.472 32.308 50.28 32.108 50.064L33.152 49.008C33.344 49.216 33.572 49.38 33.836 49.5C34.1 49.612 34.388 49.668 34.7 49.668C34.916 49.668 35.08 49.636 35.192 49.572C35.312 49.508 35.372 49.42 35.372 49.308C35.372 49.164 35.3 49.056 35.156 48.984C35.02 48.904 34.844 48.836 34.628 48.78C34.412 48.716 34.184 48.648 33.944 48.576C33.704 48.504 33.476 48.404 33.26 48.276C33.044 48.148 32.868 47.972 32.732 47.748C32.596 47.516 32.528 47.224 32.528 46.872C32.528 46.496 32.624 46.172 32.816 45.9C33.008 45.62 33.28 45.4 33.632 45.24C33.984 45.08 34.396 45 34.868 45C35.364 45 35.82 45.088 36.236 45.264C36.66 45.432 37.004 45.684 37.268 46.02L36.224 47.076C36.04 46.86 35.832 46.708 35.6 46.62C35.376 46.532 35.156 46.488 34.94 46.488C34.732 46.488 34.576 46.52 34.472 46.584C34.368 46.64 34.316 46.724 34.316 46.836C34.316 46.956 34.384 47.052 34.52 47.124C34.656 47.196 34.832 47.26 35.048 47.316C35.264 47.372 35.492 47.44 35.732 47.52C35.972 47.6 36.2 47.708 36.416 47.844C36.632 47.98 36.808 48.164 36.944 48.396C37.08 48.62 37.148 48.916 37.148 49.284C37.148 49.852 36.932 50.304 36.5 50.64C36.076 50.976 35.5 51.144 34.772 51.144ZM40.5801 51.12C40.0441 51.12 39.5641 50.988 39.1401 50.724C38.7241 50.46 38.3921 50.1 38.1441 49.644C37.9041 49.188 37.7841 48.668 37.7841 48.084C37.7841 47.5 37.9041 46.98 38.1441 46.524C38.3921 46.068 38.7241 45.708 39.1401 45.444C39.5641 45.18 40.0441 45.048 40.5801 45.048C40.9721 45.048 41.3241 45.124 41.6361 45.276C41.9561 45.428 42.2161 45.64 42.4161 45.912C42.6161 46.176 42.7281 46.48 42.7521 46.824V49.344C42.7281 49.688 42.6161 49.996 42.4161 50.268C42.2241 50.532 41.9681 50.74 41.6481 50.892C41.3281 51.044 40.9721 51.12 40.5801 51.12ZM40.9521 49.464C41.3441 49.464 41.6601 49.336 41.9001 49.08C42.1401 48.816 42.2601 48.484 42.2601 48.084C42.2601 47.812 42.2041 47.572 42.0921 47.364C41.9881 47.156 41.8361 46.996 41.6361 46.884C41.4441 46.764 41.2201 46.704 40.9641 46.704C40.7081 46.704 40.4801 46.764 40.2801 46.884C40.0881 46.996 39.9321 47.156 39.8121 47.364C39.7001 47.572 39.6441 47.812 39.6441 48.084C39.6441 48.348 39.7001 48.584 39.8121 48.792C39.9241 49 40.0801 49.164 40.2801 49.284C40.4801 49.404 40.7041 49.464 40.9521 49.464ZM42.1881 51V49.428L42.4641 48.012L42.1881 46.596V45.168H43.9881V51H42.1881ZM47.8728 51.132C47.3368 51.132 46.8608 51.024 46.4448 50.808C46.0368 50.584 45.7168 50.28 45.4848 49.896C45.2528 49.504 45.1368 49.056 45.1368 48.552V45.168H46.9728V48.528C46.9728 48.728 47.0048 48.9 47.0688 49.044C47.1408 49.188 47.2448 49.3 47.3808 49.38C47.5168 49.46 47.6808 49.5 47.8728 49.5C48.1448 49.5 48.3608 49.416 48.5208 49.248C48.6808 49.072 48.7608 48.832 48.7608 48.528V45.168H50.5968V48.54C50.5968 49.052 50.4808 49.504 50.2488 49.896C50.0168 50.28 49.6968 50.584 49.2888 50.808C48.8808 51.024 48.4088 51.132 47.8728 51.132ZM47.0088 44.508L46.4088 43.632L48.3168 41.844L49.3248 43.26L47.0088 44.508ZM54.2336 51.12C53.6816 51.12 53.1896 50.988 52.7576 50.724C52.3336 50.46 51.9976 50.1 51.7496 49.644C51.5096 49.188 51.3896 48.668 51.3896 48.084C51.3896 47.5 51.5096 46.98 51.7496 46.524C51.9976 46.068 52.3336 45.708 52.7576 45.444C53.1896 45.18 53.6816 45.048 54.2336 45.048C54.6336 45.048 54.9936 45.124 55.3136 45.276C55.6416 45.428 55.9096 45.64 56.1176 45.912C56.3336 46.176 56.4536 46.48 56.4776 46.824V49.284C56.4536 49.628 56.3376 49.94 56.1296 50.22C55.9216 50.492 55.6536 50.712 55.3256 50.88C54.9976 51.04 54.6336 51.12 54.2336 51.12ZM54.5576 49.464C54.8216 49.464 55.0496 49.408 55.2416 49.296C55.4336 49.176 55.5856 49.012 55.6976 48.804C55.8096 48.596 55.8656 48.356 55.8656 48.084C55.8656 47.812 55.8096 47.576 55.6976 47.376C55.5936 47.168 55.4416 47.004 55.2416 46.884C55.0496 46.764 54.8256 46.704 54.5696 46.704C54.3136 46.704 54.0856 46.764 53.8856 46.884C53.6936 47.004 53.5376 47.168 53.4176 47.376C53.3056 47.584 53.2496 47.82 53.2496 48.084C53.2496 48.348 53.3056 48.584 53.4176 48.792C53.5296 49 53.6856 49.164 53.8856 49.284C54.0856 49.404 54.3096 49.464 54.5576 49.464ZM57.5936 51H55.7936V49.428L56.0696 48.012L55.7576 46.596V42.288H57.5936V51ZM61.7663 51.132C61.1343 51.132 60.5703 51.004 60.0743 50.748C59.5863 50.484 59.2023 50.12 58.9223 49.656C58.6423 49.192 58.5023 48.668 58.5023 48.084C58.5023 47.5 58.6383 46.98 58.9103 46.524C59.1903 46.06 59.5663 45.696 60.0383 45.432C60.5103 45.168 61.0423 45.036 61.6343 45.036C62.2103 45.036 62.7183 45.16 63.1583 45.408C63.5983 45.656 63.9423 46 64.1903 46.44C64.4463 46.88 64.5743 47.384 64.5743 47.952C64.5743 48.056 64.5663 48.168 64.5503 48.288C64.5423 48.4 64.5223 48.532 64.4903 48.684L59.4623 48.696V47.436L63.7103 47.424L62.9183 47.952C62.9103 47.616 62.8583 47.34 62.7623 47.124C62.6663 46.9 62.5223 46.732 62.3303 46.62C62.1463 46.5 61.9183 46.44 61.6463 46.44C61.3583 46.44 61.1063 46.508 60.8903 46.644C60.6823 46.772 60.5183 46.956 60.3983 47.196C60.2863 47.436 60.2303 47.728 60.2303 48.072C60.2303 48.416 60.2903 48.712 60.4103 48.96C60.5383 49.2 60.7143 49.388 60.9383 49.524C61.1703 49.652 61.4423 49.716 61.7543 49.716C62.0423 49.716 62.3023 49.668 62.5343 49.572C62.7663 49.468 62.9703 49.316 63.1463 49.116L64.1543 50.124C63.8663 50.46 63.5183 50.712 63.1103 50.88C62.7023 51.048 62.2543 51.132 61.7663 51.132ZM70.2297 51.12C69.6777 51.12 69.1857 50.988 68.7537 50.724C68.3297 50.46 67.9937 50.1 67.7457 49.644C67.5057 49.188 67.3857 48.668 67.3857 48.084C67.3857 47.5 67.5057 46.98 67.7457 46.524C67.9937 46.068 68.3297 45.708 68.7537 45.444C69.1857 45.18 69.6777 45.048 70.2297 45.048C70.6297 45.048 70.9897 45.124 71.3097 45.276C71.6377 45.428 71.9057 45.64 72.1137 45.912C72.3297 46.176 72.4497 46.48 72.4737 46.824V49.284C72.4497 49.628 72.3337 49.94 72.1257 50.22C71.9177 50.492 71.6497 50.712 71.3217 50.88C70.9937 51.04 70.6297 51.12 70.2297 51.12ZM70.5537 49.464C70.8177 49.464 71.0457 49.408 71.2377 49.296C71.4297 49.176 71.5817 49.012 71.6937 48.804C71.8057 48.596 71.8617 48.356 71.8617 48.084C71.8617 47.812 71.8057 47.576 71.6937 47.376C71.5897 47.168 71.4377 47.004 71.2377 46.884C71.0457 46.764 70.8217 46.704 70.5657 46.704C70.3097 46.704 70.0817 46.764 69.8817 46.884C69.6897 47.004 69.5337 47.168 69.4137 47.376C69.3017 47.584 69.2457 47.82 69.2457 48.084C69.2457 48.348 69.3017 48.584 69.4137 48.792C69.5257 49 69.6817 49.164 69.8817 49.284C70.0817 49.404 70.3057 49.464 70.5537 49.464ZM73.5897 51H71.7897V49.428L72.0657 48.012L71.7537 46.596V42.288H73.5897V51ZM77.3184 51.12C76.7824 51.12 76.3024 50.988 75.8784 50.724C75.4624 50.46 75.1304 50.1 74.8824 49.644C74.6424 49.188 74.5224 48.668 74.5224 48.084C74.5224 47.5 74.6424 46.98 74.8824 46.524C75.1304 46.068 75.4624 45.708 75.8784 45.444C76.3024 45.18 76.7824 45.048 77.3184 45.048C77.7104 45.048 78.0624 45.124 78.3744 45.276C78.6944 45.428 78.9544 45.64 79.1544 45.912C79.3544 46.176 79.4664 46.48 79.4904 46.824V49.344C79.4664 49.688 79.3544 49.996 79.1544 50.268C78.9624 50.532 78.7064 50.74 78.3864 50.892C78.0664 51.044 77.7104 51.12 77.3184 51.12ZM77.6904 49.464C78.0824 49.464 78.3984 49.336 78.6384 49.08C78.8784 48.816 78.9984 48.484 78.9984 48.084C78.9984 47.812 78.9424 47.572 78.8304 47.364C78.7264 47.156 78.5744 46.996 78.3744 46.884C78.1824 46.764 77.9584 46.704 77.7024 46.704C77.4464 46.704 77.2184 46.764 77.0184 46.884C76.8264 46.996 76.6704 47.156 76.5504 47.364C76.4384 47.572 76.3824 47.812 76.3824 48.084C76.3824 48.348 76.4384 48.584 76.5504 48.792C76.6624 49 76.8184 49.164 77.0184 49.284C77.2184 49.404 77.4424 49.464 77.6904 49.464ZM78.9264 51V49.428L79.2024 48.012L78.9264 46.596V45.168H80.7264V51H78.9264ZM87.1243 51.132C86.5243 51.132 85.9803 51 85.4923 50.736C85.0043 50.472 84.6203 50.108 84.3403 49.644C84.0603 49.18 83.9203 48.66 83.9203 48.084C83.9203 47.5 84.0603 46.98 84.3403 46.524C84.6283 46.06 85.0163 45.696 85.5043 45.432C85.9923 45.168 86.5403 45.036 87.1483 45.036C87.6043 45.036 88.0203 45.116 88.3963 45.276C88.7803 45.428 89.1203 45.66 89.4163 45.972L88.2403 47.148C88.1043 46.996 87.9443 46.884 87.7603 46.812C87.5843 46.74 87.3803 46.704 87.1483 46.704C86.8843 46.704 86.6483 46.764 86.4403 46.884C86.2403 46.996 86.0803 47.156 85.9603 47.364C85.8483 47.564 85.7923 47.8 85.7923 48.072C85.7923 48.344 85.8483 48.584 85.9603 48.792C86.0803 49 86.2443 49.164 86.4523 49.284C86.6603 49.404 86.8923 49.464 87.1483 49.464C87.3883 49.464 87.6003 49.424 87.7843 49.344C87.9763 49.256 88.1403 49.136 88.2763 48.984L89.4403 50.16C89.1363 50.48 88.7923 50.724 88.4083 50.892C88.0243 51.052 87.5963 51.132 87.1243 51.132ZM90.2574 51V45.168H92.0934V51H90.2574ZM92.0934 47.796L91.3254 47.196C91.4774 46.516 91.7334 45.988 92.0934 45.612C92.4534 45.236 92.9534 45.048 93.5934 45.048C93.8734 45.048 94.1174 45.092 94.3254 45.18C94.5414 45.26 94.7294 45.388 94.8894 45.564L93.7974 46.944C93.7174 46.856 93.6174 46.788 93.4974 46.74C93.3774 46.692 93.2414 46.668 93.0894 46.668C92.7854 46.668 92.5414 46.764 92.3574 46.956C92.1814 47.14 92.0934 47.42 92.0934 47.796ZM95.3785 51V45.168H97.2145V51H95.3785ZM96.3025 44.364C96.0145 44.364 95.7745 44.268 95.5825 44.076C95.3985 43.876 95.3065 43.636 95.3065 43.356C95.3065 43.068 95.3985 42.828 95.5825 42.636C95.7745 42.444 96.0145 42.348 96.3025 42.348C96.5905 42.348 96.8265 42.444 97.0105 42.636C97.1945 42.828 97.2865 43.068 97.2865 43.356C97.2865 43.636 97.1945 43.876 97.0105 44.076C96.8265 44.268 96.5905 44.364 96.3025 44.364ZM100.943 51.12C100.407 51.12 99.9274 50.988 99.5034 50.724C99.0874 50.46 98.7554 50.1 98.5074 49.644C98.2674 49.188 98.1474 48.668 98.1474 48.084C98.1474 47.5 98.2674 46.98 98.5074 46.524C98.7554 46.068 99.0874 45.708 99.5034 45.444C99.9274 45.18 100.407 45.048 100.943 45.048C101.335 45.048 101.687 45.124 101.999 45.276C102.319 45.428 102.579 45.64 102.779 45.912C102.979 46.176 103.091 46.48 103.115 46.824V49.344C103.091 49.688 102.979 49.996 102.779 50.268C102.587 50.532 102.331 50.74 102.011 50.892C101.691 51.044 101.335 51.12 100.943 51.12ZM101.315 49.464C101.707 49.464 102.023 49.336 102.263 49.08C102.503 48.816 102.623 48.484 102.623 48.084C102.623 47.812 102.567 47.572 102.455 47.364C102.351 47.156 102.199 46.996 101.999 46.884C101.807 46.764 101.583 46.704 101.327 46.704C101.071 46.704 100.843 46.764 100.643 46.884C100.451 46.996 100.295 47.156 100.175 47.364C100.063 47.572 100.007 47.812 100.007 48.084C100.007 48.348 100.063 48.584 100.175 48.792C100.287 49 100.443 49.164 100.643 49.284C100.843 49.404 101.067 49.464 101.315 49.464ZM102.551 51V49.428L102.827 48.012L102.551 46.596V45.168H104.351V51H102.551ZM109.496 51V47.676C109.496 47.372 109.4 47.128 109.208 46.944C109.024 46.752 108.788 46.656 108.5 46.656C108.3 46.656 108.124 46.7 107.972 46.788C107.82 46.868 107.7 46.988 107.612 47.148C107.524 47.3 107.48 47.476 107.48 47.676L106.772 47.328C106.772 46.872 106.872 46.472 107.072 46.128C107.272 45.784 107.548 45.52 107.9 45.336C108.26 45.144 108.664 45.048 109.112 45.048C109.544 45.048 109.924 45.152 110.252 45.36C110.588 45.56 110.852 45.828 111.044 46.164C111.236 46.5 111.332 46.868 111.332 47.268V51H109.496ZM105.644 51V45.168H107.48V51H105.644ZM115.331 51.132C114.731 51.132 114.187 51 113.699 50.736C113.211 50.472 112.827 50.108 112.547 49.644C112.267 49.18 112.127 48.66 112.127 48.084C112.127 47.5 112.267 46.98 112.547 46.524C112.835 46.06 113.223 45.696 113.711 45.432C114.199 45.168 114.747 45.036 115.355 45.036C115.811 45.036 116.227 45.116 116.603 45.276C116.987 45.428 117.327 45.66 117.623 45.972L116.447 47.148C116.311 46.996 116.151 46.884 115.967 46.812C115.791 46.74 115.587 46.704 115.355 46.704C115.091 46.704 114.855 46.764 114.647 46.884C114.447 46.996 114.287 47.156 114.167 47.364C114.055 47.564 113.999 47.8 113.999 48.072C113.999 48.344 114.055 48.584 114.167 48.792C114.287 49 114.451 49.164 114.659 49.284C114.867 49.404 115.099 49.464 115.355 49.464C115.595 49.464 115.807 49.424 115.991 49.344C116.183 49.256 116.347 49.136 116.483 48.984L117.647 50.16C117.343 50.48 116.999 50.724 116.615 50.892C116.231 51.052 115.803 51.132 115.331 51.132ZM114.899 53.58C114.579 53.58 114.303 53.54 114.071 53.46C113.847 53.388 113.623 53.284 113.399 53.148L113.963 52.404C114.067 52.484 114.179 52.544 114.299 52.584C114.427 52.632 114.567 52.656 114.719 52.656C114.887 52.656 115.007 52.628 115.079 52.572C115.151 52.524 115.187 52.464 115.187 52.392C115.187 52.32 115.143 52.256 115.055 52.2C114.967 52.144 114.831 52.116 114.647 52.116H114.263L114.671 50.844H115.703L115.391 51.72L114.863 51.3C115.391 51.292 115.799 51.392 116.087 51.6C116.383 51.816 116.531 52.096 116.531 52.44C116.531 52.76 116.383 53.028 116.087 53.244C115.791 53.468 115.395 53.58 114.899 53.58ZM120.76 51.12C120.224 51.12 119.744 50.988 119.32 50.724C118.904 50.46 118.572 50.1 118.324 49.644C118.084 49.188 117.964 48.668 117.964 48.084C117.964 47.5 118.084 46.98 118.324 46.524C118.572 46.068 118.904 45.708 119.32 45.444C119.744 45.18 120.224 45.048 120.76 45.048C121.152 45.048 121.504 45.124 121.816 45.276C122.136 45.428 122.396 45.64 122.596 45.912C122.796 46.176 122.908 46.48 122.932 46.824V49.344C122.908 49.688 122.796 49.996 122.596 50.268C122.404 50.532 122.148 50.74 121.828 50.892C121.508 51.044 121.152 51.12 120.76 51.12ZM121.132 49.464C121.524 49.464 121.84 49.336 122.08 49.08C122.32 48.816 122.44 48.484 122.44 48.084C122.44 47.812 122.384 47.572 122.272 47.364C122.168 47.156 122.016 46.996 121.816 46.884C121.624 46.764 121.4 46.704 121.144 46.704C120.888 46.704 120.66 46.764 120.46 46.884C120.268 46.996 120.112 47.156 119.992 47.364C119.88 47.572 119.824 47.812 119.824 48.084C119.824 48.348 119.88 48.584 119.992 48.792C120.104 49 120.26 49.164 120.46 49.284C120.66 49.404 120.884 49.464 121.132 49.464ZM122.368 51V49.428L122.644 48.012L122.368 46.596V45.168H124.168V51H122.368ZM127.213 47.94L127.117 45.636H127.633C127.833 45.636 128.005 45.6 128.149 45.528C128.301 45.456 128.417 45.356 128.497 45.228C128.585 45.092 128.629 44.932 128.629 44.748C128.629 44.572 128.589 44.42 128.509 44.292C128.429 44.156 128.317 44.056 128.173 43.992C128.029 43.92 127.861 43.884 127.669 43.884C127.373 43.884 127.101 43.972 126.853 44.148C126.613 44.316 126.417 44.548 126.265 44.844L125.089 43.74C125.329 43.268 125.677 42.888 126.133 42.6C126.589 42.304 127.129 42.156 127.753 42.156C128.273 42.156 128.733 42.264 129.133 42.48C129.533 42.696 129.845 42.992 130.069 43.368C130.293 43.736 130.405 44.152 130.405 44.616C130.405 45.088 130.309 45.492 130.117 45.828C129.925 46.164 129.665 46.44 129.337 46.656C129.009 46.864 128.637 47.012 128.221 47.1L128.761 46.392L128.653 47.94H127.213ZM127.933 51.132C127.613 51.132 127.349 51.024 127.141 50.808C126.941 50.592 126.841 50.332 126.841 50.028C126.841 49.708 126.941 49.444 127.141 49.236C127.349 49.02 127.613 48.912 127.933 48.912C128.245 48.912 128.501 49.02 128.701 49.236C128.909 49.444 129.013 49.708 129.013 50.028C129.013 50.332 128.909 50.592 128.701 50.808C128.501 51.024 128.245 51.132 127.933 51.132Z" fill="#64748B"/>
<rect x="176" y="37.4912" width="36.9923" height="76.0034" rx="18.4961" transform="rotate(-61.4406 176 37.4912)" fill="#D2D8E0"/>
<path d="M199.117 29.0074C199.117 29.0074 217.046 25.8442 230.03 29.044C230.03 29.044 233.534 57.7163 214.598 65.6385C214.598 65.6344 196 58.8562 199.117 29.0074Z" fill="#A6B0BF"/>
<path d="M201.181 30.8357C201.181 30.8357 217.624 28.7554 227.664 30.8357C227.664 30.8357 231.016 54.122 214.784 62.7322C214.784 62.7322 199.914 58.5757 201.181 30.8357Z" fill="#8996A9"/>
<path d="M221.587 40.8827H216.662V36.144H212.15V40.8827H207.464V45.3324H212.15V50.071H216.662V45.3324H221.587V40.8827Z" fill="white"/>
</svg>
