<?xml version="1.0" encoding="utf-8"?>
<!-- Generator: Adobe Illustrator 25.0.0, SVG Export Plug-In . SVG Version: 6.00 Build 0)  -->
<svg version="1.1" id="Layer_1" xmlns="http://www.w3.org/2000/svg" xmlns:xlink="http://www.w3.org/1999/xlink" x="0px" y="0px"
	 viewBox="0 0 219 175" style="enable-background:new 0 0 219 175;" xml:space="preserve">
<style type="text/css">
	.st0{clip-path:url(#SVGID_2_);}
	.st1{fill:#6F46BE;}
	.st2{fill:#C0AFE9;}
	.st3{fill:#FEF592;}
	.st4{fill:#3D3D4B;}
	.st5{fill:#AC94DF;}
	.st6{fill:#E2D9FC;}
	.st7{fill:#EDE8FC;}
</style>
<g>
	<defs>
		<rect id="SVGID_1_" y="-1.9" width="218.2" height="176.9"/>
	</defs>
	<clipPath id="SVGID_2_">
		<use xlink:href="#SVGID_1_"  style="overflow:visible;"/>
	</clipPath>
	<g class="st0">
		<path class="st1" d="M67.8,29.7c0,0-36.9-41.8-63-10.7c-8.2,9.8,13,19.1,13,19.1S6.7,37.9,5.5,49.7C4.4,61.5,28.4,63.8,28.4,63.8
			s-7.1,6.4-3.9,10.7s11.9,8.3,40-8.4C67.1,34.5,67.8,29.7,67.8,29.7z"/>
		<path class="st2" d="M55.6,35.9c0,0-11.8-9.1-18.2,3.7C30.9,52.3,47,60.2,47,60.2L55.6,35.9z"/>
		<path class="st1" d="M153,30.9c2.3-3.7,6.2-6.2,10-8.3c7.7-4.4,15.9-8.3,24.6-9.8c8.8-1.6,20.3-1.2,27.2,5.5
			c2.4,2.4,3.9,5.8,3.2,9.1c-0.7,3.2-3.4,5.5-6.1,7.4c-3.4,2.3-7.1,3.8-10.8,5.6c1.4,0.5,2.8,1.1,4.1,1.8c2.2,1.1,4.4,2.4,5.9,4.3
			c4.2,5.2,1.9,12.5-3.5,15.6C201,66,195,63,188.2,62.2c0.6,1.7,1.7,3.2,2.1,5c0.5,1.9,0.5,4-0.5,5.7c-3.7,6.1-15.8,3.8-21.4,2.8
			c-8.8-1.4-14.1-8-16.3-16.3c-2.1-8-3.7-20.7,0.6-28.1C152.9,31.1,152.9,31,153,30.9z"/>
		<path class="st2" d="M164.6,40c0,0,11.3-9.5,18.3,3s-8.7,21-8.7,21L164.6,40z"/>
		<path class="st1" d="M79,126.4c-26.7,4.8-63.5,17.8-76.1-5.6c-5.3-9.9,8.6-18.3,16-6.9c11.2,16.9,27.3,11.5,46,8.2
			C76,120.2,90.1,124.5,79,126.4z"/>
		<path class="st1" d="M138.7,105.1c26.5,5.4,57.2,31.6,60.2,58c1.3,11.2-14.6,13.9-17.5,0.5c-4.1-19.8-10.8-33.2-29.3-36.9
			C140.9,124.3,127.6,102.8,138.7,105.1z"/>
		<path class="st1" d="M68.2,189.7c1.6,7.8-1.8,17.6,4.4,23.7c3.2,3.3,7.2,5.7,11.5,7.2c2.9,1,8.9,1.3,11.9,0.1
			c5.7-2.3,7.6-16,8.6-21.4c1.6-7.9,1.2-20-5.6-25.5c-5.2-4.2-11.6-3.8-17.6-5.6c-4.2-1.3-12-12.2-13.5-6.1
			C66,170.4,67,183.9,68.2,189.7z"/>
		<path class="st3" d="M155.7,179.7c-25.9,14.3-57,15.2-83.6,2.3c-7.9-3.8-12.7-12-12.3-20.8l3.5-66.7l96.1-2.6l7.2,66.4
			C167.7,167,163.4,175.5,155.7,179.7z"/>
		<path class="st4" d="M107.2,92c-6.5-5.4-17.1,3.1-21.7,7.6c-5.9,5.6-9.6,11.6-5.7,19.3c3.9,7.6,10,14.4,15.9,20.5
			c1.1,1.1-0.7,2.9-1.8,1.7c-6.8-7.1-20.3-19.7-18.6-30.5C77,99.9,97.8,81,108.8,90.2C110.2,91.2,108.4,93,107.2,92z"/>
		<path class="st1" d="M94.2,147.5c2.2,2.2,5.8,2.2,8,0s2.2-5.8,0-8s-5.8-2.2-8,0S92,145.3,94.2,147.5z"/>
		<path class="st5" d="M95.8,145.9c1.3,1.3,3.5,1.3,4.8,0s1.3-3.5,0-4.8s-3.5-1.3-4.8,0S94.4,144.6,95.8,145.9z"/>
		<path class="st5" d="M126.3,136.9c-10.9,9.5-12.3,12.6-12.2,14.6c0.1,2.1,1.2,3.9,1.2,4l0.9-0.5l-0.4,0.3l0.4-0.3
			c0,0-1-1.7-1.1-3.5c0-1.4,1.2-4.4,11.9-13.8L126.3,136.9z"/>
		<path class="st1" d="M115.7,153.5l-1.4,0.7c-0.1,0.1-0.2,0.3-0.1,0.4l1.3,2.6c0.1,0.1,0.3,0.2,0.4,0.1l1.4-0.7
			c0.1-0.1,0.2-0.3,0.1-0.4l-1.3-2.6C116,153.5,115.8,153.4,115.7,153.5z"/>
		<path class="st5" d="M133.6,142.3c-3.6,10.3-6.3,15.4-8.4,16.2c-1.7,0.6-3.7,0.3-3.7,0.3l-0.2,1c0.1,0,2.2,0.4,4.2-0.3
			c2.6-0.9,5.2-5.8,9-16.8L133.6,142.3z"/>
		<path class="st1" d="M123.1,158.6l-0.1,1.5c0,0.2-0.2,0.3-0.3,0.3l-2.9-0.3c-0.2,0-0.3-0.2-0.3-0.3l0.1-1.5c0-0.2,0.2-0.3,0.3-0.3
			l2.9,0.3C123,158.3,123.1,158.5,123.1,158.6z"/>
		<path class="st1" d="M135.1,142.5c0.6-1.4,1.9-4.8,2.4-6.7c0.4-1.5-0.3-3.2-0.3-3.2c-0.2-0.1,0.9-1.5,1.8-2.7
			c0.8-1,1.7-2.2,1.7-2.7s-0.6-0.9-1.1-0.8s-1.3,1.3-2.1,2.4c-0.9,1.2-1.9,2.6-2.1,2.5c0,0-1.7-0.1-3.1,0.7c-1.5,0.9-5,3.5-5.9,4.3
			c-1.1,1-0.8,1.5-0.5,1.8c0.4,0.5,0.9,0.4,2.3-0.7c2.1-1.7,5.4-4.9,6.9-3.8c1.4,1.2-0.6,5.4-1.6,7.9c-0.6,1.6-0.4,1.9,0.2,2.1
			C134.1,143.7,134.5,143.8,135.1,142.5z"/>
		<path class="st4" d="M118.3,91.5c5.1-5.7,15.7,0.5,20.4,3.8c6,4.3,10.1,9.1,7.6,16.5c-2.5,7.3-7,14.2-11.5,20.5
			c-0.8,1.2,1,2.5,1.8,1.3c5.1-7.2,15.5-20.3,12.5-29.7c-3-9.3-24.1-23.4-32.7-13.7C115.6,91.2,117.4,92.6,118.3,91.5z"/>
		<path class="st6" d="M82.1,192.2c-7.3,2.2-15.2,1.8-23.4-0.3c-0.2,0-0.3-0.2-0.3-0.4l0.6-55.1c0-0.3-0.3-0.5-0.6-0.4l-15.9,6.8
			c-0.1,0-0.1,0-0.1,0l-5.7,0.3c-0.1,0-0.1,0-0.2,0l-25.2-12c-0.2-0.1-0.3-0.4-0.1-0.6l10.4-12.9c0.1-0.2,0.3-0.2,0.5-0.1l12.2,6.1
			c0.1,0.1,0.3,0,0.4,0l29.9-21c0,0,0.1-0.1,0.1,0L76,99l0,0l5.7-1.2c0.2,0,0.4,0.1,0.5,0.3c0.2,0.5,0.2,1.1,0.1,1.5
			c0,0.2-0.2,0.3-0.3,0.3l-2.6,0.4c-0.6,0.1-0.9,0.3-0.8,0.8l3.9,90.7C82.4,192,82.3,192.1,82.1,192.2z"/>
		<path class="st2" d="M67.3,110.9c0,1.2,8.5,11.4,8.6,12.6c0.1,1-4.3,6.2-5.8,7.9c-0.1,0.1-0.1,0.3-0.1,0.4
			c0.7,1.7,2.6,8.6,3.6,10.7c3.4,6.8,4.4,14.6,6.7,21.7c0.1,0.5,0.8,0.3,0.8-0.1l-2.7-63c-0.1-0.5,0.2-0.7,0.8-0.8l2.6-0.4
			c0.2,0,0.3-0.1,0.3-0.3c0.1-0.4,0-1-0.1-1.5c-0.1-0.2-0.3-0.3-0.5-0.3l-5.3,1.1C76.1,98.9,76,99,76,99
			C73.6,102.1,67.3,110.4,67.3,110.9z"/>
		<path class="st7" d="M74.7,156.9l-14.2,0.4c-0.1,0-0.2-0.1-0.2-0.1v-0.5c0-0.1,0.1-0.2,0.2-0.2l14.2-0.4c0.1,0,0.2,0.1,0.2,0.1
			v0.5C74.8,156.9,74.7,156.9,74.7,156.9z"/>
		<path class="st6" d="M153.3,190.7c7.4,1.4,19.2,0.1,27.3-2.1c0.5-0.1,0.8-0.7,0.7-1.2l-11.1-44.3c-0.3-1.1,1.1-1.7,1.8-0.8
			l2.3,3.2c0.1,0.1,0.1,0.2,0.1,0.3l4.1,12.9c0.2,0.5,0.7,0.8,1.1,0.7l17.3-3c0.7-0.1,1-0.8,0.8-1.4l-7.9-17.4c0-0.1,0-0.1-0.1-0.1
			L172,111.2c-0.1-0.1-0.3-0.3-0.4-0.4l-6-2.6c-0.1,0-0.1,0-0.2-0.1l-11.3-2.6H154l-5.1-0.7c-0.6-0.1-1.1,0.3-1.2,0.9l0,0
			c0,0.5,0.4,0.9,0.9,1l2.1,0.4c0.1,0,0.2,0.1,0.2,0.1c0.4,0.1,0.6,0.5,0.6,0.9l0.9,81.4C152.5,190.2,152.8,190.6,153.3,190.7z"/>
		<path class="st2" d="M163.3,116.1c0,1.1-7.9,10.8-7.9,11.9c-0.1,0.9,5.1,5.7,6.4,7c-0.6,1.1-2.2,8-3.2,10.1
			c-3.4,7.1-3.8,15.3-6.3,22.5l-0.6-59.9c0-0.4-0.2-0.6-0.9-0.7l-2.8-0.3c-0.3-0.5-0.2-1.3,0-2l5.9,0.8
			C156.4,108.2,163.3,115.5,163.3,116.1z"/>
		<path class="st7" d="M158.2,158.2l14.5-0.4v-0.7l-14.5,0.4V158.2z"/>
		<path class="st1" d="M68.3,12.3c16.4-13.9,60.9-15.5,80.3-3.5c21.2,13.2,39.2,73.3,26.1,92.4c-13.5,19.8-112.7,24-123.8,3.3
			C38.6,82,49.5,28.3,68.3,12.3z"/>
		<path class="st2" d="M99.8,93c-1-5.8,0-11.9,2.8-16.5c2.6-4.3,7.1-7.9,11.2-3c1.3,1.4,2,3.3,2.6,5.1c1.7,5.2,2.3,10,1.5,15.4
			c-0.6,4-3.7,8.3-7.9,9c-3.9,0.7-7.6-2.4-9.1-6.1C100.3,95.7,100,94.4,99.8,93z"/>
	</g>
</g>
</svg>
