<svg id="e8pOFwDiEbv1" xmlns="http://www.w3.org/2000/svg" xmlns:xlink="http://www.w3.org/1999/xlink" viewBox="0 0 534.0546 415.96701" shape-rendering="geometricPrecision" text-rendering="geometricPrecision">
<style>
#e8pOFwDiEbv5 {animation: e8pOFwDiEbv5_c_o 3000ms linear 1 normal forwards}@keyframes e8pOFwDiEbv5_c_o { 0% {opacity: 0} 6.666667% {opacity: 0;animation-timing-function: cubic-bezier(0.69,0.01,0.36,0.995)} 26.666667% {opacity: 1} 50% {opacity: 0;animation-timing-function: cubic-bezier(0.69,0.01,0.36,0.995)} 70% {opacity: 0} 100% {opacity: 0}} #e8pOFwDiEbv22_tr {animation: e8pOFwDiEbv22_tr__tr 3000ms linear 1 normal forwards}@keyframes e8pOFwDiEbv22_tr__tr { 0% {transform: translate(-45.59197px,895.096722px) rotate(-34.665301deg)} 13.333333% {transform: translate(-45.59197px,895.096722px) rotate(-15.966129deg);animation-timing-function: cubic-bezier(0.69,0.01,0.36,0.995)} 36.666667% {transform: translate(-45.59197px,895.096722px) rotate(-15.966129deg);animation-timing-function: cubic-bezier(0.69,0.01,0.36,0.995)} 60% {transform: translate(-45.59197px,895.096722px) rotate(-34.665301deg)} 76.666667% {transform: translate(-45.59197px,895.096722px) rotate(-34.665301deg)} 100% {transform: translate(-45.59197px,895.096722px) rotate(-34.665301deg)}} #e8pOFwDiEbv36_tr {animation: e8pOFwDiEbv36_tr__tr 3000ms linear 1 normal forwards}@keyframes e8pOFwDiEbv36_tr__tr { 0% {transform: translate(-45.59197px,895.096722px) rotate(-34.665301deg);animation-timing-function: cubic-bezier(0.675,0,0.34,1.005)} 16.666667% {transform: translate(-45.59197px,895.096722px) rotate(3.170698deg)} 56.666667% {transform: translate(-45.59197px,895.096722px) rotate(3.170698deg)} 76.666667% {transform: translate(-45.59197px,895.096722px) rotate(-34.665301deg)} 100% {transform: translate(-45.59197px,895.096722px) rotate(-34.665301deg)}}></style>
<g transform="matrix(.752912 0 0 0.752912 276.197028-454.969917)"><g transform="translate(6.3943 13.4711)"><path d="M-84.12431,956.30737c0,0,2.836,13.471,7.09,17.72396c4.255,4.254,14.182,5.672,17.727,0c3.545-5.67096,4.254-10.63396,4.254-10.63396s7.8,7.09,13.473,6.381c5.672-.709,9.927-4.963,9.927-9.217.709-4.254-.709-8.508-.709-8.508s7.09,5.672,14.181,3.545c7.09-2.127,8.509-8.508,7.09-14.18-1.418-5.672-5.672-48.211-19.144-59.555-12.763-11.344-55.307-45.375-76.579-36.158-21.981,9.926-57.4344,42.539-44.6713,70.898c12.7633,28.36,24.1083,9.926,43.2533,17.016c19.144,7.09,24.108,22.688,24.108,22.688Z" fill="#ad6359"/><g id="e8pOFwDiEbv5" transform="translate(-288.359 660.638)" opacity="0"><path d="M163.794,20.5605h-85.0877c-7.7997,0-14.8904,7.0899-14.8904,15.5978v58.1369c0,8.5078,7.0907,14.8888,14.8904,14.8888h13.4722c0,0,10.6355.709,16.3085,4.963c5.672,4.254,9.218,11.344,9.218,11.344v-16.307h46.798c8.509,0,14.89-7.09,14.89-14.8888v-58.1369c0-8.5079-7.09-15.5978-15.599-15.5978Z" fill="#fffac2"/><path d="M157.412,39.7031L126.214,77.9884l-9.927,12.0528-9.927-12.0528L85.7969,52.4649h19.8541l10.636,13.4708l20.562-25.5236h20.563Z" fill="#ae90e7"/></g><g transform="matrix(.822489-.568782 0.568782 0.822489-331.635534 834.103935)"><path d="M319.788,326.134L194.284,221.913c-5.673-4.254-6.382-12.761-1.418-18.433L336.097,30.4868c4.254-5.6719,12.763-6.3809,18.435-1.4179L480.746,133.29c5.672,4.254,6.381,12.762,1.418,18.434L338.224,324.716c-4.255,5.672-12.763,6.381-18.436,1.418Z" fill="#fffac2"/><path d="M358.786,270.124l-17.726,21.27-17.018-14.18-14.181,17.016-20.563-17.016l14.181-17.016-17.017-14.179l17.727-21.27l16.308,14.18l14.181-17.016l21.272,17.725-14.181,17.015Z" fill="#ae90e7"/><path d="M332.959,62.5864l-2.717,3.273l90.016,74.7166l2.717-3.273Z" fill="#6f46be"/><path d="M311.17,87.919l-2.717,3.2734l117.31,97.3586l2.717-3.274Z" fill="#6f46be"/><path d="M322.29,75.5635l-2.717,3.2734L436.882,176.195l2.717-3.273Z" fill="#6f46be"/><path d="M300.753,100.75l-2.717,3.273l111.853,92.831l2.718-3.274Z" fill="#6f46be"/><path d="M290.115,113.33l-2.718,3.274l90.029,74.716l2.717-3.273Z" fill="#6f46be"/><path d="M269.198,138.599l-2.718,3.273l102.032,84.679l2.718-3.273Z" fill="#6f46be"/><path d="M279.888,125.788l-2.717,3.274L394.48,226.42l2.718-3.273Z" fill="#6f46be"/><path d="M226.134,190.964l-2.717,3.273l51.288,42.566l2.718-3.273Z" fill="#6f46be"/><path d="M236.237,178.713l-2.717,3.273l51.282,42.566l2.717-3.273Z" fill="#6f46be"/><path d="M215.62,203.797l-2.717,3.273l51.282,42.566l2.717-3.273Z" fill="#6f46be"/><path d="M464.006,142.614L346.697,45.2559l-7.246,8.729L456.76,151.343Z" fill="#6f46be"/></g><g id="e8pOFwDiEbv22_tr" transform="translate(-45.59197,895.096722) rotate(-34.665301)"><g transform="translate(-200.576015,-212.862168)"><path d="M319.788,326.134L194.284,221.913c-5.673-4.254-6.382-12.761-1.418-18.433L336.097,30.4868c4.254-5.6719,12.763-6.3809,18.435-1.4179L480.746,133.29c5.672,4.254,6.381,12.762,1.418,18.434L338.224,324.716c-4.255,5.672-12.763,6.381-18.436,1.418Z" fill="#fffac2"/><path d="M358.786,270.124l-17.726,21.27-17.018-14.18-14.181,17.016-20.563-17.016l14.181-17.016-17.017-14.179l17.727-21.27l16.308,14.18l14.181-17.016l21.272,17.725-14.181,17.015Z" fill="#ae90e7"/><path d="M332.959,62.5864l-2.717,3.273l90.016,74.7166l2.717-3.273Z" fill="#6f46be"/><path d="M311.17,87.919l-2.717,3.2734l117.31,97.3586l2.717-3.274Z" fill="#6f46be"/><path d="M322.29,75.5635l-2.717,3.2734L436.882,176.195l2.717-3.273Z" fill="#6f46be"/><path d="M300.753,100.75l-2.717,3.273l111.853,92.831l2.718-3.274Z" fill="#6f46be"/><path d="M290.115,113.33l-2.718,3.274l90.029,74.716l2.717-3.273Z" fill="#6f46be"/><path d="M269.198,138.599l-2.718,3.273l102.032,84.679l2.718-3.273Z" fill="#6f46be"/><path d="M279.888,125.788l-2.717,3.274L394.48,226.42l2.718-3.273Z" fill="#6f46be"/><path d="M226.134,190.964l-2.717,3.273l51.288,42.566l2.718-3.273Z" fill="#6f46be"/><path d="M236.237,178.713l-2.717,3.273l51.282,42.566l2.717-3.273Z" fill="#6f46be"/><path d="M215.62,203.797l-2.717,3.273l51.282,42.566l2.717-3.273Z" fill="#6f46be"/><path d="M464.006,142.614L346.697,45.2559l-7.246,8.729L456.76,151.343Z" fill="#6f46be"/></g></g><g id="e8pOFwDiEbv36_tr" transform="translate(-45.59197,895.096722) rotate(-34.665301)"><g transform="translate(-200.576015,-212.862168)"><path d="M319.788,326.134L194.284,221.913c-5.673-4.254-6.382-12.761-1.418-18.433L336.097,30.4868c4.254-5.6719,12.763-6.3809,18.435-1.4179L480.746,133.29c5.672,4.254,6.381,12.762,1.418,18.434L338.224,324.716c-4.255,5.672-12.763,6.381-18.436,1.418Z" fill="#fffac2"/><path d="M358.786,270.124l-17.726,21.27-17.018-14.18-14.181,17.016-20.563-17.016l14.181-17.016-17.017-14.179l17.727-21.27l16.308,14.18l14.181-17.016l21.272,17.725-14.181,17.015Z" fill="#ae90e7"/><path d="M332.959,62.5864l-2.717,3.273l90.016,74.7166l2.717-3.273Z" fill="#6f46be"/><path d="M311.17,87.919l-2.717,3.2734l117.31,97.3586l2.717-3.274Z" fill="#6f46be"/><path d="M322.29,75.5635l-2.717,3.2734L436.882,176.195l2.717-3.273Z" fill="#6f46be"/><path d="M300.753,100.75l-2.717,3.273l111.853,92.831l2.718-3.274Z" fill="#6f46be"/><path d="M290.115,113.33l-2.718,3.274l90.029,74.716l2.717-3.273Z" fill="#6f46be"/><path d="M269.198,138.599l-2.718,3.273l102.032,84.679l2.718-3.273Z" fill="#6f46be"/><path d="M279.888,125.788l-2.717,3.274L394.48,226.42l2.718-3.273Z" fill="#6f46be"/><path d="M226.134,190.964l-2.717,3.273l51.288,42.566l2.718-3.273Z" fill="#6f46be"/><path d="M236.237,178.713l-2.717,3.273l51.282,42.566l2.717-3.273Z" fill="#6f46be"/><path d="M215.62,203.797l-2.717,3.273l51.282,42.566l2.717-3.273Z" fill="#6f46be"/><path d="M464.006,142.614L346.697,45.2559l-7.246,8.729L456.76,151.343Z" fill="#6f46be"/></g></g><path d="M-5.41831,903.84237c-7.09,8.507-16.308,17.015-21.272,23.396-10.636,14.18-83.669,61.68196-97.142,68.77196-19.853,9.21697-70.906,17.01597-70.906,17.01597l-24.8173-68.77193c0,0,40.4167-50.338,46.7983-59.555c6.3815-9.217,20.5628-37.576,26.944-41.83c17.018-9.926,78.707-17.016,94.306-19.143l-3.545,38.994c-10.636,4.254-34.745,8.508-36.872,13.471-2.127,5.672-7.09,29.778-2.836,34.031c4.254,4.254,25.526-4.962,34.035-8.507c5.673-2.127,11.345-6.381,16.309-10.635c2.836-2.127,4.963-4.963,7.799-6.381c6.382-4.254,29.072-12.053,36.872-4.254c6.381,5.672,2.127,14.889-5.673,23.397Z" fill="#ad6359"/><path d="M-223.80971,935.03737l67.3611,100.67593-70.62866,38.0932-57.29825-103.47316l49.82456-35.91878Z" paint-order="stroke fill markers" fill="#e6e6e6" stroke="#e6e6e6" stroke-width="4.9" stroke-linecap="round" stroke-linejoin="round"/></g></g></svg>
