<?xml version="1.0" encoding="UTF-8"?>
<svg fill="none" version="1.1" viewBox="0 0 768.68 34.72" xmlns="http://www.w3.org/2000/svg">
<g fill="#6f46be" aria-label="Ficha de saúde preenchida com sucesso!">
<path d="m5 12.56h11.16v4.28h-11.16v10.36h-5v-26.16h17.36v4.28h-12.36z"/>
<path d="m24.4 5.8q-1.32 0-2.08-0.76-0.72-0.8-0.72-1.88 0-1.12 0.72-1.88 0.72-0.76 2.08-0.76 1.28 0 2 0.76 0.76 0.76 0.76 1.88 0 1.08-0.76 1.88-0.72 0.76-2 0.76zm2.48 2.56v18.84h-4.96v-18.84z"/>
<path d="m41.12 27.84q-2.88 0-5.04-1.2-2.12-1.2-3.28-3.4-1.12-2.2-1.12-5.12 0-3 1.32-5.36 1.36-2.36 3.72-3.68 2.36-1.32 5.36-1.32 1.56 0 2.92 0.32t2.76 1.04v3.84q-2.32-1.12-4.84-1.12-2.96 0-4.64 1.68t-1.68 4.44q0 2.68 1.56 4.24 1.56 1.52 4.36 1.52 2.96 0 5.44-1.2v3.76q-1.52 0.8-3.16 1.16-1.6 0.4-3.68 0.4z"/>
<path d="m64.48 7.76q3.76 0 5.52 2.24 1.8 2.24 1.8 6.92v10.28h-4.96v-9.52q0-2.92-1-4.16-0.96-1.24-3.28-1.24-2.36 0-4.96 1.96v12.96h-4.96v-26.16h4.96v9.4q3.4-2.68 6.88-2.68z"/>
<path d="m97.72 13.2q-0.76-0.24-2.08-0.52v14.52h-4.76v-2.2q-3 2.84-6.6 2.84-2.36 0-4.16-1.16-1.8-1.2-2.8-3.28-0.96-2.08-0.96-4.72 0-3.32 1.52-5.76 1.52-2.48 4.28-3.8 2.8-1.36 6.48-1.36 2.24 0 4.6 0.56 2.36 0.52 4.48 1.4zm-16.4 4.92q0 2.52 1.2 4.08 1.24 1.52 3.44 1.52 2.48 0 4.8-2.2v-9.52q-1.6-0.16-2.6-0.16-3.2 0-5.04 1.72-1.8 1.68-1.8 4.56z"/>
<path d="m131.08 1.04v26.16h-4.84v-2.16q-3.04 2.8-6.64 2.8-2.48 0-4.36-1.16-1.84-1.2-2.84-3.28t-1-4.68q0-3.32 1.4-5.8t3.88-3.8q2.48-1.32 5.64-1.32 1.88 0 3.84 0.52v-7.28zm-14.72 17.12q0 2.52 1.32 4.04t3.56 1.52q2.6 0 4.92-2.16v-9.24q-1.64-0.48-3.24-0.48-3.08 0-4.84 1.72-1.72 1.68-1.72 4.6z"/>
<path d="m154.4 16.96q0 1.16-0.12 2.2h-13.6q0.44 2.36 2.08 3.52 1.64 1.12 4.72 1.12 3.48 0 6.4-1.24v3.64q-3.12 1.64-7.48 1.64-3.16 0-5.6-1.2-2.4-1.2-3.72-3.4-1.32-2.24-1.32-5.28 0-2.92 1.2-5.24t3.44-3.64q2.24-1.32 5.16-1.32 4.24 0 6.52 2.48 2.32 2.44 2.32 6.72zm-4.56-1.24q0-1.88-1.12-3.08-1.12-1.24-3.16-1.24-2 0-3.24 1.16t-1.6 3.16z"/>
<path d="m176.56 27.84q-2.2 0-4.36-0.48t-3.72-1.32v-3.8q1.48 0.72 3.44 1.16 2 0.44 4.08 0.44 2.28 0 3.4-0.44t1.12-1.52q0-0.76-0.36-1.16-0.36-0.44-1.32-0.68-0.92-0.28-2.76-0.44-3.84-0.32-5.56-1.72t-1.72-4.28q0-2.8 2.4-4.32 2.44-1.56 6.04-1.56 1.92 0 3.72 0.44 1.84 0.4 3.24 1.12v3.68q-1.2-0.6-3.12-0.96t-3.36-0.36q-1.88 0-3.04 0.4-1.12 0.36-1.12 1.44 0 0.76 0.4 1.16 0.44 0.4 1.32 0.6 0.92 0.2 2.72 0.4 3.8 0.4 5.56 1.88 1.8 1.48 1.8 4.24 0 2.96-2.24 4.52-2.2 1.56-6.56 1.56z"/>
<path d="m210.44 13.2q-0.76-0.24-2.08-0.52v14.52h-4.76v-2.2q-3 2.84-6.6 2.84-2.36 0-4.16-1.16-1.8-1.2-2.8-3.28-0.96-2.08-0.96-4.72 0-3.32 1.52-5.76 1.52-2.48 4.28-3.8 2.8-1.36 6.48-1.36 2.24 0 4.6 0.56 2.36 0.52 4.48 1.4zm-16.4 4.92q0 2.52 1.2 4.08 1.24 1.52 3.44 1.52 2.48 0 4.8-2.2v-9.52q-1.6-0.16-2.6-0.16-3.2 0-5.04 1.72-1.8 1.68-1.8 4.56z"/>
<path d="m233.48 8.36v18.84h-4.84v-2.2q-3.4 2.84-6.88 2.84-3.76 0-5.52-2.24t-1.76-6.92v-10.32h4.96v9.6q0 2.96 0.92 4.16 0.96 1.2 3.24 1.2 1.32 0 2.48-0.52 1.2-0.52 2.44-1.44v-13zm-2.68-8.36-5.8 5.56h-4.2l5.24-5.56z"/>
<path d="m257.84 1.04v26.16h-4.84v-2.16q-3.04 2.8-6.64 2.8-2.48 0-4.36-1.16-1.84-1.2-2.84-3.28t-1-4.68q0-3.32 1.4-5.8t3.88-3.8q2.48-1.32 5.64-1.32 1.88 0 3.84 0.52v-7.28zm-14.72 17.12q0 2.52 1.32 4.04t3.56 1.52q2.6 0 4.92-2.16v-9.24q-1.64-0.48-3.24-0.48-3.08 0-4.84 1.72-1.72 1.68-1.72 4.6z"/>
<path d="m281.16 16.96q0 1.16-0.12 2.2h-13.6q0.44 2.36 2.08 3.52 1.64 1.12 4.72 1.12 3.48 0 6.4-1.24v3.64q-3.12 1.64-7.48 1.64-3.16 0-5.6-1.2-2.4-1.2-3.72-3.4-1.32-2.24-1.32-5.28 0-2.92 1.2-5.24t3.44-3.64q2.24-1.32 5.16-1.32 4.24 0 6.52 2.48 2.32 2.44 2.32 6.72zm-4.56-1.24q0-1.88-1.12-3.08-1.12-1.24-3.16-1.24-2 0-3.24 1.16t-1.6 3.16z"/>
<path d="m308.2 7.76q2.4 0 4.2 1.2 1.8 1.16 2.76 3.28 1 2.08 1 4.8 0 5.08-2.92 7.96-2.88 2.84-7.92 2.84-1.72 0-3.88-0.56v7.44h-4.92v-26.36h4.84v2.2q3.16-2.8 6.84-2.8zm-3.56 15.96q3 0 4.8-1.68t1.8-4.56q0-2.52-1.32-4.08t-3.56-1.56q-2.48 0-4.92 2.2v9.24q1.52 0.44 3.2 0.44z"/>
<path d="m332.08 7.92q1.28 0 2.24 0.28v4.36q-1.16-0.28-2.44-0.28-3.16 0-6.08 2.16v12.76h-4.92v-18.84h4.84v2.24q3.24-2.68 6.36-2.68z"/>
<path d="m355 16.96q0 1.16-0.12 2.2h-13.6q0.44 2.36 2.08 3.52 1.64 1.12 4.72 1.12 3.48 0 6.4-1.24v3.64q-3.12 1.64-7.48 1.64-3.16 0-5.6-1.2-2.4-1.2-3.72-3.4-1.32-2.24-1.32-5.28 0-2.92 1.2-5.24t3.44-3.64q2.24-1.32 5.16-1.32 4.24 0 6.52 2.48 2.32 2.44 2.32 6.72zm-4.56-1.24q0-1.88-1.12-3.08-1.12-1.24-3.16-1.24-2 0-3.24 1.16t-1.6 3.16z"/>
<path d="m377.6 16.96q0 1.16-0.12 2.2h-13.6q0.44 2.36 2.08 3.52 1.64 1.12 4.72 1.12 3.48 0 6.4-1.24v3.64q-3.12 1.64-7.48 1.64-3.16 0-5.6-1.2-2.4-1.2-3.72-3.4-1.32-2.24-1.32-5.28 0-2.92 1.2-5.24t3.44-3.64q2.24-1.32 5.16-1.32 4.24 0 6.52 2.48 2.32 2.44 2.32 6.72zm-4.56-1.24q0-1.88-1.12-3.08-1.12-1.24-3.16-1.24-2 0-3.24 1.16t-1.6 3.16z"/>
<path d="m394.28 7.76q3.76 0 5.52 2.24 1.8 2.24 1.8 6.92v10.28h-4.96v-9.52q0-2.92-1-4.16-0.96-1.24-3.28-1.24-2.36 0-4.96 1.96v12.96h-4.96v-18.84h4.84v2.2q1.48-1.2 3.28-2t3.72-0.8z"/>
<path d="m415.6 27.84q-2.88 0-5.04-1.2-2.12-1.2-3.28-3.4-1.12-2.2-1.12-5.12 0-3 1.32-5.36 1.36-2.36 3.72-3.68 2.36-1.32 5.36-1.32 1.56 0 2.92 0.32t2.76 1.04v3.84q-2.32-1.12-4.84-1.12-2.96 0-4.64 1.68t-1.68 4.44q0 2.68 1.56 4.24 1.56 1.52 4.36 1.52 2.96 0 5.44-1.2v3.76q-1.52 0.8-3.16 1.16-1.6 0.4-3.68 0.4z"/>
<path d="m438.96 7.76q3.76 0 5.52 2.24 1.8 2.24 1.8 6.92v10.28h-4.96v-9.52q0-2.92-1-4.16-0.96-1.24-3.28-1.24-2.36 0-4.96 1.96v12.96h-4.96v-26.16h4.96v9.4q3.4-2.68 6.88-2.68z"/>
<path d="m454.28 5.8q-1.32 0-2.08-0.76-0.72-0.8-0.72-1.88 0-1.12 0.72-1.88 0.72-0.76 2.08-0.76 1.28 0 2 0.76 0.76 0.76 0.76 1.88 0 1.08-0.76 1.88-0.72 0.76-2 0.76zm2.48 2.56v18.84h-4.96v-18.84z"/>
<path d="m481.24 1.04v26.16h-4.84v-2.16q-3.04 2.8-6.64 2.8-2.48 0-4.36-1.16-1.84-1.2-2.84-3.28t-1-4.68q0-3.32 1.4-5.8t3.88-3.8q2.48-1.32 5.64-1.32 1.88 0 3.84 0.52v-7.28zm-14.72 17.12q0 2.52 1.32 4.04t3.56 1.52q2.6 0 4.92-2.16v-9.24q-1.64-0.48-3.24-0.48-3.08 0-4.84 1.72-1.72 1.68-1.72 4.6z"/>
<path d="m507.28 13.2q-0.76-0.24-2.08-0.52v14.52h-4.76v-2.2q-3 2.84-6.6 2.84-2.36 0-4.16-1.16-1.8-1.2-2.8-3.28-0.96-2.08-0.96-4.72 0-3.32 1.52-5.76 1.52-2.48 4.28-3.8 2.8-1.36 6.48-1.36 2.24 0 4.6 0.56 2.36 0.52 4.48 1.4zm-16.4 4.92q0 2.52 1.2 4.08 1.24 1.52 3.44 1.52 2.48 0 4.8-2.2v-9.52q-1.6-0.16-2.6-0.16-3.2 0-5.04 1.72-1.8 1.68-1.8 4.56z"/>
<path d="m530.4 27.84q-2.88 0-5.04-1.2-2.12-1.2-3.28-3.4-1.12-2.2-1.12-5.12 0-3 1.32-5.36 1.36-2.36 3.72-3.68 2.36-1.32 5.36-1.32 1.56 0 2.92 0.32t2.76 1.04v3.84q-2.32-1.12-4.84-1.12-2.96 0-4.64 1.68t-1.68 4.44q0 2.68 1.56 4.24 1.56 1.52 4.36 1.52 2.96 0 5.44-1.2v3.76q-1.52 0.8-3.16 1.16-1.6 0.4-3.68 0.4z"/>
<path d="m550.36 27.84q-3.12 0-5.48-1.24-2.32-1.28-3.6-3.56-1.24-2.28-1.24-5.24 0-2.84 1.32-5.12t3.68-3.6q2.36-1.32 5.32-1.32 3.16 0 5.48 1.28 2.32 1.24 3.56 3.52 1.28 2.28 1.28 5.24 0 2.84-1.32 5.12-1.28 2.28-3.64 3.6t-5.36 1.32zm0-4.12q2.44 0 3.92-1.6 1.48-1.64 1.48-4.32 0-2.84-1.4-4.36-1.4-1.56-4-1.56-2.44 0-3.92 1.64-1.48 1.6-1.48 4.28 0 2.8 1.4 4.36 1.44 1.56 4 1.56z"/>
<path d="m589.52 7.76q3.52 0 5.12 2.24 1.64 2.24 1.64 6.92v10.28h-4.92v-9.52q0-2.96-0.84-4.16-0.84-1.24-2.88-1.24t-4.48 1.88q0.16 1.12 0.16 2.76v10.28h-4.92v-9.52q0-2.96-0.8-4.16-0.8-1.24-2.84-1.24-2 0-4.44 1.96v12.96h-4.92v-18.84h4.84v2.2q3.36-2.8 6.48-2.8 4.08 0 5.56 3.08 3.48-3.08 7.24-3.08z"/>
<path d="m619.04 27.84q-2.2 0-4.36-0.48t-3.72-1.32v-3.8q1.48 0.72 3.44 1.16 2 0.44 4.08 0.44 2.28 0 3.4-0.44t1.12-1.52q0-0.76-0.36-1.16-0.36-0.44-1.32-0.68-0.92-0.28-2.76-0.44-3.84-0.32-5.56-1.72t-1.72-4.28q0-2.8 2.4-4.32 2.44-1.56 6.04-1.56 1.92 0 3.72 0.44 1.84 0.4 3.24 1.12v3.68q-1.2-0.6-3.12-0.96t-3.36-0.36q-1.88 0-3.04 0.4-1.12 0.36-1.12 1.44 0 0.76 0.4 1.16 0.44 0.4 1.32 0.6 0.92 0.2 2.72 0.4 3.8 0.4 5.56 1.88 1.8 1.48 1.8 4.24 0 2.96-2.24 4.52-2.2 1.56-6.56 1.56z"/>
<path d="m651.28 8.36v18.84h-4.84v-2.2q-3.4 2.84-6.88 2.84-3.76 0-5.52-2.24t-1.76-6.92v-10.32h4.96v9.6q0 2.96 0.92 4.16 0.96 1.2 3.24 1.2 1.32 0 2.48-0.52 1.2-0.52 2.44-1.44v-13z"/>
<path d="m665.4 27.84q-2.88 0-5.04-1.2-2.12-1.2-3.28-3.4-1.12-2.2-1.12-5.12 0-3 1.32-5.36 1.36-2.36 3.72-3.68 2.36-1.32 5.36-1.32 1.56 0 2.92 0.32t2.76 1.04v3.84q-2.32-1.12-4.84-1.12-2.96 0-4.64 1.68t-1.68 4.44q0 2.68 1.56 4.24 1.56 1.52 4.36 1.52 2.96 0 5.44-1.2v3.76q-1.52 0.8-3.16 1.16-1.6 0.4-3.68 0.4z"/>
<path d="m693.68 16.96q0 1.16-0.12 2.2h-13.6q0.44 2.36 2.08 3.52 1.64 1.12 4.72 1.12 3.48 0 6.4-1.24v3.64q-3.12 1.64-7.48 1.64-3.16 0-5.6-1.2-2.4-1.2-3.72-3.4-1.32-2.24-1.32-5.28 0-2.92 1.2-5.24t3.44-3.64q2.24-1.32 5.16-1.32 4.24 0 6.52 2.48 2.32 2.44 2.32 6.72zm-4.56-1.24q0-1.88-1.12-3.08-1.12-1.24-3.16-1.24-2 0-3.24 1.16t-1.6 3.16z"/>
<path d="m705.32 27.84q-2.2 0-4.36-0.48t-3.72-1.32v-3.8q1.48 0.72 3.44 1.16 2 0.44 4.08 0.44 2.28 0 3.4-0.44t1.12-1.52q0-0.76-0.36-1.16-0.36-0.44-1.32-0.68-0.92-0.28-2.76-0.44-3.84-0.32-5.56-1.72t-1.72-4.28q0-2.8 2.4-4.32 2.44-1.56 6.04-1.56 1.92 0 3.72 0.44 1.84 0.4 3.24 1.12v3.68q-1.2-0.6-3.12-0.96t-3.36-0.36q-1.88 0-3.04 0.4-1.12 0.36-1.12 1.44 0 0.76 0.4 1.16 0.44 0.4 1.32 0.6 0.92 0.2 2.72 0.4 3.8 0.4 5.56 1.88 1.8 1.48 1.8 4.24 0 2.96-2.24 4.52-2.2 1.56-6.56 1.56z"/>
<path d="m725.52 27.84q-2.2 0-4.36-0.48t-3.72-1.32v-3.8q1.48 0.72 3.44 1.16 2 0.44 4.08 0.44 2.28 0 3.4-0.44t1.12-1.52q0-0.76-0.36-1.16-0.36-0.44-1.32-0.68-0.92-0.28-2.76-0.44-3.84-0.32-5.56-1.72t-1.72-4.28q0-2.8 2.4-4.32 2.44-1.56 6.04-1.56 1.92 0 3.72 0.44 1.84 0.4 3.24 1.12v3.68q-1.2-0.6-3.12-0.96t-3.36-0.36q-1.88 0-3.04 0.4-1.12 0.36-1.12 1.44 0 0.76 0.4 1.16 0.44 0.4 1.32 0.6 0.92 0.2 2.72 0.4 3.8 0.4 5.56 1.88 1.8 1.48 1.8 4.24 0 2.96-2.24 4.52-2.2 1.56-6.56 1.56z"/>
<path d="m748.36 27.84q-3.12 0-5.48-1.24-2.32-1.28-3.6-3.56-1.24-2.28-1.24-5.24 0-2.84 1.32-5.12t3.68-3.6q2.36-1.32 5.32-1.32 3.16 0 5.48 1.28 2.32 1.24 3.56 3.52 1.28 2.28 1.28 5.24 0 2.84-1.32 5.12-1.28 2.28-3.64 3.6t-5.36 1.32zm0-4.12q2.44 0 3.92-1.6 1.48-1.64 1.48-4.32 0-2.84-1.4-4.36-1.4-1.56-4-1.56-2.44 0-3.92 1.64-1.48 1.6-1.48 4.28 0 2.8 1.4 4.36 1.44 1.56 4 1.56z"/>
<path d="m768.4 1.04v18.72h-4.92v-18.72zm-2.52 26.84q-1.2 0-1.96-0.76t-0.76-1.92 0.76-1.92 1.96-0.76q1.32 0 2.04 0.76 0.76 0.72 0.76 1.92 0 1.16-0.8 1.92-0.76 0.76-2 0.76z"/>
</g>
</svg>
