<svg width="315" height="315" viewBox="0 0 315 315" fill="none" xmlns="http://www.w3.org/2000/svg">
<g clip-path="url(#clip0_185_3456)">
<mask id="mask0_185_3456" style="mask-type:luminance" maskUnits="userSpaceOnUse" x="146" y="167" width="30" height="29">
<path d="M146.557 167.059H175.43V195.932H146.557V167.059Z" fill="white"/>
</mask>
<g mask="url(#mask0_185_3456)">
<path d="M160.994 195.932C168.967 195.932 175.43 189.468 175.43 181.495C175.43 173.522 168.967 167.059 160.994 167.059C153.021 167.059 146.557 173.522 146.557 181.495C146.557 189.468 153.021 195.932 160.994 195.932Z" fill="white"/>
</g>
</g>
<g clip-path="url(#clip1_185_3456)">
<mask id="mask1_185_3456" style="mask-type:luminance" maskUnits="userSpaceOnUse" x="9" y="33" width="292" height="244">
<path d="M9.03003 33.39H300.183V276.29H9.03003V33.39Z" fill="white"/>
</mask>
<g mask="url(#mask1_185_3456)">
<path d="M9.49762 188.866C2.58432 125.574 74.0062 55.7471 146.876 38.4304C208.349 23.8676 293.364 37.1235 299.903 127.674C304.481 191.153 258.517 244.783 187.609 269.101C116.56 293.793 16.3642 252.111 9.49762 188.866Z" fill="#A78ED7"/>
</g>
<g clip-path="url(#clip2_185_3456)">
<path d="M286.844 58.9237H191.003V117.91H286.844V58.9237Z" fill="white"/>
<path d="M286.786 118.223H191.003C190.925 118.223 190.852 118.193 190.797 118.138C190.743 118.084 190.713 118.009 190.713 117.933V58.9237C190.713 58.8474 190.743 58.7725 190.797 58.7186C190.852 58.6647 190.925 58.6332 191.003 58.6332H286.786C286.864 58.6332 286.937 58.6632 286.992 58.7186C287.046 58.7725 287.076 58.8474 287.076 58.9237V117.933C287.076 118.011 287.046 118.084 286.992 118.138C286.937 118.192 286.864 118.223 286.786 118.223ZM191.293 117.642H286.495V59.2143H191.293V117.642Z" fill="#553597"/>
<path d="M205.931 58.6916V52.7613H208.079L211.856 47.4705L210.054 45.0296L216.503 41.5987L218.303 43.3433H224.228L225.564 41.5987L232.65 44.0412L231.779 45.7858L235.439 52.7628H237.414V58.6931H205.931V58.6916Z" fill="#A78ED7"/>
<path d="M214.353 58.6916C214.353 56.7493 215.125 54.8863 216.497 53.5116C217.869 52.1383 219.73 51.3656 221.672 51.3656C223.614 51.3656 225.474 52.1368 226.848 53.5116C228.22 54.8848 228.99 56.7493 228.99 58.6916H214.353Z" fill="white"/>
<path d="M228.99 58.9821C228.914 58.9821 228.841 58.9522 228.785 58.8967C228.731 58.8428 228.7 58.768 228.7 58.6916C228.7 56.8257 227.959 55.0361 226.641 53.7168C225.324 52.3974 223.536 51.6561 221.672 51.6561C219.808 51.6561 218.02 52.3974 216.702 53.7168C215.384 55.0361 214.643 56.8257 214.643 58.6916C214.643 58.7695 214.613 58.8428 214.559 58.8967C214.504 58.9507 214.431 58.9821 214.353 58.9821C214.275 58.9821 214.202 58.9522 214.148 58.8967C214.094 58.8428 214.062 58.768 214.062 58.6916C214.062 56.6714 214.864 54.7351 216.292 53.3064C217.718 51.8778 219.654 51.0751 221.672 51.0751C223.691 51.0751 225.625 51.8778 227.053 53.3064C228.48 54.7351 229.282 56.6714 229.282 58.6916C229.282 58.7695 229.25 58.8428 229.197 58.8967C229.141 58.9507 229.068 58.9821 228.99 58.9821Z" fill="#553597"/>
<path d="M193.907 36.9474L194.778 37.8189L192.977 41.4235H191.816L192.106 45.7843H194.023L196.405 48.2837L195.998 49.8532L199.889 51.0737L200.413 49.7363L204.42 49.2137L205.002 50.3758L208.311 48.5728L207.672 47.5844L208.835 43.3404L210.054 43.0498L209.706 39.1547L208.718 39.2131L206.279 36.4217L206.57 35.1428L202.154 33.7471L201.923 34.7939L198.321 35.1428L197.566 34.2129L193.907 36.9459V36.9474Z" fill="#A78ED7"/>
<path d="M200.935 45.4937C202.732 45.4937 204.188 44.0366 204.188 42.2381C204.188 40.4396 202.732 38.9825 200.935 38.9825C199.138 38.9825 197.682 40.4396 197.682 42.2381C197.682 44.0366 199.139 45.4937 200.935 45.4937Z" fill="white"/>
<path d="M200.935 45.7844C200.235 45.7844 199.549 45.5763 198.967 45.1869C198.384 44.7975 197.93 44.2434 197.661 43.595C197.393 42.9466 197.323 42.2337 197.461 41.5464C197.597 40.859 197.933 40.227 198.43 39.7314C198.925 39.2357 199.557 38.8972 200.243 38.761C200.932 38.6247 201.644 38.6936 202.29 38.9631C202.938 39.2312 203.492 39.6864 203.881 40.269C204.27 40.8515 204.478 41.5374 204.478 42.2397C204.487 42.707 204.4 43.1727 204.225 43.6055C204.05 44.0398 203.788 44.4336 203.457 44.7646C203.127 45.0955 202.733 45.3561 202.301 45.5313C201.867 45.7065 201.403 45.7934 200.935 45.7859V45.7844ZM200.935 39.2731C200.35 39.2731 199.777 39.4468 199.289 39.7733C198.803 40.0983 198.423 40.5625 198.198 41.1031C197.974 41.6452 197.915 42.2412 198.029 42.8163C198.144 43.3913 198.426 43.92 198.84 44.3348C199.255 44.7496 199.783 45.0311 200.357 45.1465C200.932 45.2603 201.527 45.2019 202.069 44.9772C202.611 44.7526 203.073 44.3722 203.398 43.8855C203.724 43.3973 203.897 42.8253 203.897 42.2382C203.905 41.8474 203.834 41.458 203.688 41.0941C203.543 40.7302 203.324 40.4008 203.047 40.1237C202.771 39.8467 202.441 39.6295 202.078 39.4828C201.716 39.336 201.327 39.2656 200.935 39.2731Z" fill="#553597"/>
<path d="M277.493 114.328H195.59C195.514 114.328 195.441 114.298 195.385 114.243C195.331 114.189 195.3 114.114 195.3 114.038V74.5042C195.3 74.4264 195.331 74.353 195.385 74.2991C195.441 74.2452 195.514 74.2137 195.59 74.2137C195.667 74.2137 195.741 74.2437 195.797 74.2991C195.851 74.353 195.882 74.4279 195.882 74.5042V113.747H277.493C277.569 113.747 277.642 113.779 277.698 113.833C277.751 113.886 277.783 113.961 277.783 114.038C277.783 114.114 277.751 114.189 277.698 114.243C277.642 114.297 277.569 114.328 277.493 114.328Z" fill="#553597"/>
<path d="M195.592 72.5858C195.109 72.5858 194.638 72.4421 194.237 72.174C193.836 71.9059 193.523 71.5241 193.337 71.0778C193.153 70.6315 193.105 70.1403 193.2 69.6671C193.292 69.1939 193.526 68.7581 193.867 68.4167C194.208 68.0752 194.642 67.8431 195.116 67.7488C195.589 67.6544 196.08 67.7024 196.526 67.8881C196.972 68.0722 197.352 68.3852 197.619 68.7881C197.889 69.1894 198.031 69.6611 198.031 70.1448C198.031 70.7918 197.774 71.4133 197.317 71.8715C196.859 72.3297 196.238 72.5873 195.592 72.5873V72.5858ZM195.592 68.2834C195.098 68.2834 194.626 68.4796 194.277 68.8285C193.928 69.1774 193.732 69.6507 193.732 70.1433C193.732 70.636 193.928 71.1093 194.277 71.4582C194.626 71.8071 195.098 72.0033 195.592 72.0033C196.08 71.9883 196.544 71.7876 196.889 71.4417C197.235 71.0958 197.435 70.6315 197.45 70.1418C197.45 69.6492 197.254 69.1744 196.906 68.827C196.557 68.4781 196.084 68.2819 195.592 68.2819V68.2834Z" fill="#553597"/>
<path d="M281.499 115.782C281.018 115.782 280.546 115.639 280.145 115.37C279.743 115.102 279.43 114.721 279.246 114.274C279.062 113.828 279.013 113.337 279.107 112.864C279.201 112.39 279.433 111.955 279.774 111.613C280.115 111.272 280.551 111.04 281.024 110.945C281.498 110.851 281.987 110.899 282.433 111.084C282.879 111.27 283.26 111.582 283.528 111.985C283.796 112.386 283.94 112.858 283.94 113.341C283.94 113.988 283.682 114.61 283.225 115.068C282.768 115.526 282.147 115.784 281.499 115.784V115.782ZM281.499 111.48C281.007 111.48 280.534 111.676 280.186 112.025C279.837 112.374 279.641 112.847 279.641 113.34C279.641 113.832 279.837 114.306 280.186 114.655C280.534 115.004 281.007 115.2 281.499 115.2C281.992 115.2 282.466 115.004 282.815 114.655C283.163 114.306 283.359 113.832 283.359 113.34C283.344 112.852 283.144 112.386 282.798 112.04C282.453 111.694 281.989 111.493 281.499 111.478V111.48Z" fill="#553597"/>
<path d="M212.261 90.5503H203.142V113.729H212.261V90.5503Z" fill="#A78ED7"/>
<path d="M227.596 90.5503H215.921V113.729H227.596V90.5503Z" fill="#6F46BE"/>
<path d="M247.984 90.5503H245.836V113.729H247.984V90.5503Z" fill="#6F46BE"/>
<path d="M260.881 90.5503H255.014V113.729H260.881V90.5503Z" fill="#A78ED7"/>
<path d="M271.568 90.5503H264.423V113.729H271.568V90.5503Z" fill="#6F46BE"/>
<path d="M240.782 90.5503H236.251V113.729H240.782V90.5503Z" fill="#A78ED7"/>
<path d="M280.107 68.5739C279.33 68.5589 278.593 68.24 278.05 67.6859C277.506 67.1318 277.201 66.386 277.201 65.6103V51.6577C277.201 51.5814 277.233 51.5065 277.286 51.4526C277.342 51.3987 277.415 51.3672 277.493 51.3672C277.571 51.3672 277.643 51.3972 277.698 51.4526C277.752 51.5065 277.783 51.5814 277.783 51.6577V65.6103C277.729 65.9502 277.75 66.2977 277.843 66.6301C277.937 66.9611 278.102 67.2681 278.325 67.5301C278.548 67.7922 278.826 68.0019 279.139 68.1456C279.451 68.2894 279.791 68.3643 280.135 68.3643C280.479 68.3643 280.819 68.2894 281.132 68.1456C281.444 68.0019 281.723 67.7907 281.946 67.5301C282.169 67.2681 282.333 66.9611 282.427 66.6301C282.52 66.2992 282.541 65.9502 282.487 65.6103V53.6929C282.487 53.4593 282.441 53.2271 282.35 53.0115C282.258 52.7959 282.125 52.6012 281.958 52.4379C281.789 52.2747 281.59 52.1474 281.371 52.0636C281.154 51.9797 280.921 51.9393 280.687 51.9482H280.339C279.963 51.9482 279.603 52.0935 279.332 52.3526C279.061 52.6132 278.901 52.9681 278.886 53.3425V61.4816C278.886 61.558 278.856 61.6328 278.801 61.6867C278.747 61.7407 278.673 61.7721 278.596 61.7721C278.522 61.7601 278.455 61.7257 278.404 61.6748C278.352 61.6223 278.317 61.555 278.305 61.4816V53.3425C278.32 52.8123 278.542 52.3107 278.922 51.9408C279.3 51.5724 279.809 51.3657 280.339 51.3657H280.687C280.997 51.3582 281.305 51.4121 281.594 51.5259C281.883 51.6398 282.146 51.809 282.368 52.0261C282.589 52.2433 282.766 52.5023 282.887 52.7884C283.006 53.0744 283.069 53.3814 283.069 53.6914V65.6088C283.069 65.9982 282.991 66.383 282.843 66.7439C282.694 67.1033 282.475 67.4298 282.201 67.7053C281.926 67.9809 281.599 68.1995 281.239 68.3478C280.88 68.496 280.496 68.5739 280.107 68.5739Z" fill="#553597"/>
<path d="M250.367 69.3302H227.422C227.346 69.3302 227.271 69.2987 227.217 69.2448C227.163 69.1909 227.132 69.116 227.132 69.0397C227.132 68.9633 227.163 68.8884 227.217 68.8345C227.271 68.7806 227.346 68.7491 227.422 68.7491H250.367C250.443 68.7491 250.518 68.7791 250.572 68.8345C250.627 68.8884 250.657 68.9633 250.657 69.0397C250.657 69.116 250.627 69.1909 250.572 69.2448C250.518 69.2987 250.443 69.3302 250.367 69.3302Z" fill="#553597"/>
<path d="M274.123 74.7947H203.956C203.878 74.7947 203.805 74.7648 203.751 74.7094C203.695 74.6554 203.666 74.5806 203.666 74.5042V63.5737C203.666 63.4973 203.695 63.4224 203.751 63.3685C203.805 63.3146 203.878 63.2831 203.956 63.2831H274.123C274.201 63.2831 274.274 63.3131 274.328 63.3685C274.384 63.4224 274.414 63.4973 274.414 63.5737V74.5042C274.414 74.5806 274.384 74.6554 274.328 74.7094C274.274 74.7633 274.201 74.7947 274.123 74.7947ZM204.246 74.2137H273.833V63.8657H204.246V74.2137Z" fill="#553597"/>
<path d="M268.025 264.557H151.969C151.891 264.557 151.818 264.527 151.764 264.471C151.71 264.417 151.678 264.343 151.678 264.266C151.678 264.19 151.71 264.115 151.764 264.061C151.818 264.006 151.892 263.976 151.969 263.976H268.025C268.101 263.976 268.176 264.006 268.23 264.061C268.284 264.115 268.315 264.188 268.315 264.266C268.315 264.344 268.284 264.417 268.23 264.471C268.176 264.527 268.101 264.557 268.025 264.557Z" fill="#553597"/>
<path d="M119.266 108.05V122.759H108.637L106.837 114.039L105.035 122.759H96.9036L99.9813 87.8771L113.748 88.0508L119.266 108.05Z" fill="#6F46BE"/>
<path d="M137.853 114.038H118.569V126.409H137.853V114.038Z" fill="white"/>
<path d="M137.853 126.711H118.569C118.493 126.711 118.418 126.681 118.364 126.626C118.31 126.572 118.279 126.497 118.279 126.421V114.038C118.279 113.961 118.308 113.886 118.364 113.832C118.418 113.779 118.493 113.747 118.569 113.747H137.853C137.931 113.747 138.005 113.779 138.058 113.832C138.112 113.886 138.144 113.961 138.144 114.038V126.421C138.144 126.497 138.112 126.572 138.058 126.626C138.005 126.68 137.93 126.711 137.853 126.711ZM118.859 126.13H137.563V114.328H118.859V126.13Z" fill="#553597"/>
<path d="M127.631 63.2831C132.314 63.2831 136.112 59.4823 136.112 54.795C136.112 50.1077 132.314 46.307 127.631 46.307C122.948 46.307 119.151 50.1077 119.151 54.795C119.151 59.4823 122.948 63.2831 127.631 63.2831Z" fill="#6F46BE"/>
<path d="M127.98 46.307C131.092 46.307 133.615 43.7822 133.615 40.6673C133.615 37.5524 131.092 35.0276 127.98 35.0276C124.868 35.0276 122.345 37.5524 122.345 40.6673C122.345 43.7822 124.868 46.307 127.98 46.307Z" fill="#6F46BE"/>
<path d="M105.036 99.0382C108.115 99.0382 110.612 96.5388 110.612 93.4569C110.612 90.3749 108.115 87.8755 105.036 87.8755C101.956 87.8755 99.4592 90.3749 99.4592 93.4569C99.4592 96.5388 101.956 99.0382 105.036 99.0382Z" fill="white"/>
<path d="M106.255 93.5154H106.138L101.491 91.2481C101.448 91.2421 101.406 91.2226 101.373 91.1927C101.34 91.1627 101.315 91.1253 101.303 91.0819C101.291 91.0385 101.291 90.9935 101.303 90.9501C101.316 90.9067 101.34 90.8692 101.374 90.8408C101.41 90.7839 101.464 90.7419 101.529 90.721C101.591 90.7 101.66 90.7015 101.723 90.7255L106.429 93.0511C106.486 93.0871 106.527 93.141 106.548 93.2054C106.569 93.2683 106.568 93.3387 106.544 93.4001C106.511 93.445 106.468 93.4794 106.415 93.5004C106.364 93.5214 106.307 93.5259 106.254 93.5154H106.255Z" fill="#553597"/>
<path d="M132.104 119.27H122.809C118.573 119.27 114.51 117.585 111.514 114.587C108.519 111.589 106.836 107.522 106.836 103.282V81.83C106.836 77.5905 108.519 73.5232 111.514 70.5251C114.51 67.527 118.573 65.8423 122.809 65.8423H132.104C136.339 65.8423 140.403 67.527 143.398 70.5251C146.394 73.5232 148.077 77.5905 148.077 81.83V103.282C148.077 112.119 143.315 119.27 132.104 119.27Z" fill="white"/>
<path d="M132.103 119.561H122.81C118.497 119.561 114.36 117.846 111.311 114.793C108.26 111.739 106.547 107.6 106.547 103.282V81.8302C106.562 77.5173 108.281 73.3856 111.327 70.3366C114.373 67.2876 118.501 65.567 122.81 65.552H132.103C136.417 65.552 140.554 67.2667 143.603 70.3202C146.654 73.3736 148.367 77.5143 148.367 81.8302V103.282C148.367 113.457 142.325 119.561 132.103 119.561ZM122.81 66.1315C118.651 66.1315 114.662 67.7848 111.721 70.729C108.779 73.6732 107.127 77.6656 107.127 81.8287V103.281C107.127 107.444 108.779 111.437 111.721 114.381C114.662 117.325 118.651 118.978 122.81 118.978H132.103C141.92 118.978 147.787 113.106 147.787 103.281V81.8287C147.787 77.6656 146.135 73.6732 143.193 70.729C140.252 67.7848 136.263 66.1315 132.103 66.1315H122.81Z" fill="#553597"/>
<path d="M109.74 81.6549C109.662 81.6549 109.589 81.6235 109.535 81.5696C109.481 81.5157 109.449 81.4408 109.449 81.3644C109.449 81.288 109.481 81.2132 109.535 81.1593C109.589 81.1053 109.663 81.0739 109.74 81.0739C120.602 80.9571 125.772 71.0748 125.83 70.958C125.866 70.9011 125.92 70.8592 125.984 70.8382C126.047 70.8173 126.117 70.8188 126.179 70.8427C126.219 70.8547 126.256 70.8757 126.286 70.9041C126.318 70.9326 126.342 70.967 126.358 71.0059C126.375 71.0449 126.382 71.0868 126.382 71.1287C126.382 71.1707 126.37 71.2126 126.352 71.25C126.294 71.3669 121.008 81.5411 109.74 81.6564V81.6549Z" fill="#6F46BE"/>
<path d="M132.103 65.8424C132.103 65.8424 125.481 80.5512 108.579 80.1439L107.126 88.1093L99.9815 87.8772C99.9815 87.8772 99.6328 62.1225 124.901 63.5751C124.901 63.5751 149.355 59.2727 151.969 86.9472C154.582 114.62 155.977 122.063 155.977 122.063H149.064L146.624 111.191L145.463 122.063H138.958L132.103 65.8439V65.8424Z" fill="#6F46BE"/>
<path d="M115.491 94.4453C116.806 94.4453 117.873 93.3776 117.873 92.0613C117.873 90.7449 116.806 89.6772 115.491 89.6772C114.176 89.6772 113.109 90.7449 113.109 92.0613C113.109 93.3776 114.176 94.4453 115.491 94.4453Z" fill="#553597"/>
<path d="M118.569 123.223C95.1605 124.153 65.3037 131.072 50.7247 157.468C36.1457 183.862 12.8528 279.092 56.3011 272.173C99.7494 265.254 116.071 196.186 116.071 196.186L207.557 180.606L206.628 141.654L151.039 125.259L118.569 123.223Z" fill="white"/>
<path d="M52.0026 272.813C45.6138 272.813 40.6179 270.255 37.1333 265.255C27.9556 252.232 30.9764 225.604 33.5903 210.954C37.0749 191.013 44.0458 168.978 50.4346 157.351C65.247 130.608 95.6259 123.864 118.512 122.933C118.685 122.875 118.802 123.05 118.861 123.165C118.861 123.249 118.834 123.33 118.78 123.393C118.726 123.457 118.653 123.499 118.57 123.513C95.801 124.443 65.5956 131.129 50.9582 157.64C39.6903 177.989 22.1473 242.869 37.5986 264.904C41.7221 270.834 48.0541 273.16 56.2443 271.881C68.6164 269.904 86.5649 261.3 102.19 231.475C108.012 220.231 112.57 208.377 115.781 196.127C115.781 196.065 115.805 196.007 115.85 195.963C115.894 195.919 115.953 195.895 116.015 195.895L207.21 180.373L206.339 141.884L150.924 125.548C150.807 125.489 150.692 125.316 150.749 125.199C150.775 125.127 150.822 125.066 150.885 125.024C150.948 124.982 151.023 124.961 151.098 124.965L206.743 141.36C206.8 141.384 206.846 141.425 206.878 141.477C206.909 141.529 206.923 141.591 206.918 141.651L207.847 180.603C207.847 180.68 207.817 180.754 207.762 180.808C207.708 180.862 207.633 180.894 207.557 180.894L116.303 196.416C113.066 208.639 108.508 220.472 102.712 231.705C94.0564 248.275 78.9552 268.856 56.3595 272.461C54.9187 272.687 53.4614 272.804 52.0026 272.81V272.813Z" fill="#553597"/>
<path d="M151.04 125.259C151.04 125.259 145.929 124.27 137.97 123.631L151.04 125.259Z" fill="white"/>
<path d="M151.039 125.549H150.981C150.923 125.549 145.812 124.561 137.912 123.921C137.738 123.863 137.621 123.748 137.68 123.573C137.738 123.399 137.796 123.282 137.97 123.34C145.87 123.98 151.039 124.968 151.098 124.968C151.165 125 151.222 125.049 151.262 125.111C151.303 125.172 151.327 125.244 151.33 125.317C151.303 125.376 151.262 125.428 151.213 125.468C151.162 125.509 151.102 125.537 151.039 125.549Z" fill="#553597"/>
<path d="M127.747 128.282C127.747 128.282 156.789 114.794 158.706 118.979C160.623 123.165 143.14 135.491 143.14 135.491L127.747 128.282Z" fill="white"/>
<path d="M143.14 135.782C143.081 135.782 143.023 135.782 143.023 135.724L127.63 128.573C127.575 128.549 127.527 128.508 127.497 128.456C127.465 128.404 127.452 128.344 127.456 128.282C127.456 128.166 127.515 128.109 127.63 128.05C127.747 127.992 135.006 124.619 142.384 121.771C157.66 116.016 158.648 118.166 158.996 118.864C160.971 123.167 145.115 134.445 143.313 135.724L143.14 135.782ZM128.444 128.282L143.081 135.143C148.019 131.655 159.984 122.352 158.474 119.096C158.126 118.399 155.919 117.293 142.617 122.352C136.402 124.678 130.304 127.468 128.444 128.282Z" fill="#553597"/>
<path d="M145.544 112.945L145.487 112.931C143.018 112.36 140.554 113.901 139.984 116.372L124.878 181.858C124.308 184.329 125.848 186.796 128.318 187.366L128.375 187.38C130.844 187.95 133.308 186.409 133.878 183.937L148.984 118.452C149.554 115.982 148.014 113.515 145.545 112.945H145.544Z" fill="#EDE3FF"/>
<path d="M60.2512 208.745C60.2512 208.745 83.1955 118.166 127.747 128.282C150.981 133.573 160.507 143.398 161.378 148.048C162.249 152.7 151.969 148.048 151.969 148.048C151.969 148.048 166.199 156.363 147.728 155.84C147.728 155.84 161.553 167.408 128.56 158.456C128.56 158.456 143.663 168.863 143.315 172.641C142.966 176.421 122.869 167.816 122.869 167.816C122.869 167.816 115.493 194.268 114.272 198.512L60.2512 208.745Z" fill="white"/>
<path d="M60.2512 209.036H60.1928C60.0193 209.036 59.9609 208.86 59.9609 208.687C59.9609 208.513 65.8276 185.78 77.0386 164.619C83.6025 152.177 90.7469 142.642 98.2399 136.363C107.591 128.514 117.583 125.666 127.805 127.992C140.816 130.957 148.716 135.143 153.13 138.166C157.545 141.188 161.145 145.142 161.669 148.048C161.773 148.358 161.779 148.692 161.685 149.005C161.591 149.317 161.402 149.592 161.145 149.793C159.867 150.84 156.556 150.025 154.232 149.27C155.917 150.491 157.834 152.351 157.427 153.863C157.02 155.374 154.057 156.246 148.481 156.131C149.585 157.119 151.502 159.269 150.688 160.78C149.874 162.293 142.788 162.525 130.067 159.153C133.785 161.827 143.892 169.385 143.602 172.641C143.594 172.834 143.537 173.02 143.434 173.183C143.333 173.346 143.19 173.481 143.02 173.571C140.174 175.315 125.42 169.212 123.038 168.165C122.224 171.188 115.662 194.676 114.557 198.629C114.546 198.67 114.525 198.706 114.496 198.737C114.468 198.768 114.433 198.794 114.394 198.81C114.355 198.827 114.314 198.834 114.272 198.833C114.23 198.833 114.188 198.822 114.151 198.803C114.083 198.777 114.028 198.726 113.996 198.662C113.965 198.598 113.958 198.524 113.977 198.454C115.196 194.268 122.516 167.99 122.574 167.699L122.691 167.525H122.981C127.687 169.56 140.407 174.444 142.731 173.048C142.818 173.005 142.891 172.939 142.942 172.857C142.993 172.774 143.021 172.68 143.021 172.582C143.312 169.617 132.566 161.537 128.384 158.688C128.267 158.63 128.267 158.456 128.326 158.339C128.384 158.223 128.499 158.107 128.616 158.164C145.984 162.874 149.585 161.653 150.224 160.49C150.863 159.328 148.481 156.828 147.552 156.072C147.507 156.027 147.473 155.972 147.452 155.912C147.431 155.85 147.426 155.786 147.435 155.723C147.459 155.668 147.499 155.62 147.552 155.59C147.604 155.558 147.664 155.543 147.725 155.548C154.811 155.723 156.554 154.676 156.845 153.688C157.135 152.7 153.36 149.27 151.791 148.34C151.722 148.301 151.671 148.237 151.648 148.161C151.626 148.084 151.636 148.002 151.674 147.933C151.713 147.863 151.777 147.812 151.853 147.791C151.93 147.768 152.012 147.777 152.081 147.816C153.997 148.631 159.342 150.491 160.793 149.329C161.142 149.095 161.2 148.688 161.083 148.107C160.213 143.282 150.338 133.747 127.684 128.573C117.635 126.306 107.819 129.095 98.5825 136.829C91.2062 143.05 84.1187 152.468 77.5548 164.851C66.4021 185.954 60.5938 208.628 60.5355 208.86C60.5115 208.917 60.4711 208.964 60.4188 208.995C60.3664 209.027 60.3066 209.04 60.2452 209.036H60.2512Z" fill="#553597"/>
<path d="M151.039 154.037H150.866C149.82 153.281 149.298 152.409 149.356 151.479C149.414 150.549 150.692 148.746 151.389 148.165L130.362 138.281C130.321 138.269 130.284 138.248 130.254 138.22C130.223 138.191 130.197 138.157 130.181 138.118C130.164 138.079 130.157 138.039 130.157 137.995C130.157 137.953 130.169 137.913 130.187 137.875C130.238 137.82 130.302 137.78 130.374 137.76C130.446 137.739 130.522 137.739 130.594 137.759L152.085 147.816C152.202 147.874 152.259 147.933 152.259 148.048C152.254 148.156 152.214 148.259 152.142 148.34C152.084 148.34 149.935 149.793 149.935 151.421C149.935 153.048 150.342 152.875 151.213 153.514C152.084 154.154 151.33 153.746 151.271 153.92L151.039 154.037Z" fill="#553597"/>
<path d="M147.728 156.13H147.612L125.481 148.397C125.442 148.393 125.407 148.379 125.374 148.357C125.342 148.336 125.317 148.306 125.299 148.271C125.281 148.235 125.273 148.198 125.275 148.159C125.275 148.12 125.287 148.083 125.306 148.048C125.311 148.011 125.324 147.973 125.347 147.942C125.369 147.911 125.399 147.885 125.433 147.867C125.468 147.849 125.507 147.842 125.546 147.843C125.585 147.845 125.622 147.855 125.655 147.875L147.844 155.606C147.96 155.665 148.076 155.84 148.019 155.955C147.986 156.003 147.942 156.045 147.893 156.075C147.842 156.105 147.787 156.123 147.728 156.13Z" fill="#553597"/>
<path d="M128.561 158.747H128.444L122.867 156.77C122.818 156.732 122.782 156.682 122.764 156.623C122.746 156.565 122.746 156.503 122.766 156.445C122.785 156.386 122.823 156.337 122.872 156.301C122.921 156.265 122.981 156.246 123.043 156.246L128.677 158.164C128.749 158.202 128.806 158.263 128.837 158.336C128.869 158.411 128.875 158.494 128.852 158.571C128.828 158.627 128.788 158.675 128.736 158.706C128.683 158.738 128.623 158.751 128.562 158.747H128.561Z" fill="#553597"/>
<path d="M149.296 117.876C166.202 117.876 179.909 104.158 179.909 87.2377C179.909 70.317 166.204 56.5995 149.296 56.5995C132.389 56.5995 118.686 70.317 118.686 87.2377C118.686 104.158 132.391 117.876 149.296 117.876Z" fill="#EDE3FF"/>
<path d="M149.296 112.585C163.123 112.585 174.331 101.367 174.331 87.5282C174.331 73.6895 163.123 62.4714 149.296 62.4714C135.47 62.4714 124.262 73.6895 124.262 87.5282C124.262 101.367 135.47 112.585 149.296 112.585Z" fill="white"/>
<path d="M149.296 112.934C144.274 112.946 139.36 111.465 135.178 108.681C130.996 105.895 127.733 101.933 125.803 97.2906C123.873 92.6498 123.361 87.5387 124.335 82.6073C125.308 77.6759 127.721 73.1428 131.268 69.5832C134.816 66.0235 139.339 63.599 144.265 62.6136C149.19 61.6283 154.297 62.1284 158.938 64.0498C163.579 65.9711 167.547 69.2268 170.339 73.4064C173.131 77.586 174.621 82.4995 174.621 87.5267C174.621 94.2551 171.955 100.708 167.206 105.472C162.457 110.235 156.017 112.917 149.295 112.934H149.296ZM149.296 62.7619C144.386 62.7499 139.583 64.198 135.495 66.9221C131.408 69.6446 128.219 73.5217 126.336 78.0608C124.452 82.5998 123.955 87.5956 124.91 92.4162C125.864 97.2367 128.228 101.666 131.701 105.141C135.174 108.617 139.598 110.981 144.414 111.938C149.23 112.893 154.222 112.398 158.757 110.511C163.292 108.624 167.164 105.434 169.886 101.343C172.607 97.2517 174.052 92.4446 174.042 87.5297C174.027 80.966 171.415 74.6748 166.778 70.0339C162.141 65.3931 155.856 62.7784 149.298 62.7634L149.296 62.7619Z" fill="#553597"/>
<path d="M149.296 92.7007C137.388 92.7007 127.571 87.5267 127.456 87.4683C127.42 87.4413 127.39 87.4069 127.371 87.3664C127.352 87.326 127.341 87.2811 127.341 87.2362C127.346 87.1283 127.386 87.0265 127.458 86.9456C127.574 86.9456 137.391 81.7716 149.298 81.7716C161.205 81.7716 170.964 86.9456 171.08 86.9456C171.15 87.0265 171.192 87.1283 171.196 87.2362C171.196 87.2811 171.186 87.326 171.165 87.3664C171.145 87.4069 171.116 87.4413 171.08 87.4683C170.963 87.5267 161.146 92.7007 149.298 92.7007H149.296ZM128.269 87.2362C130.417 88.2829 139.073 92.1196 149.296 92.1196C159.52 92.1196 168.116 88.2829 170.266 87.2362C168.117 86.1894 159.462 82.3527 149.296 82.3527C139.131 82.3527 130.419 86.1894 128.269 87.2362Z" fill="#553597"/>
<path d="M149.994 92.4102C152.848 92.4102 155.163 90.0935 155.163 87.2362C155.163 84.3789 152.848 82.0622 149.994 82.0622C147.139 82.0622 144.824 84.3789 144.824 87.2362C144.824 90.0935 147.139 92.4102 149.994 92.4102Z" fill="#553597"/>
<path d="M168.466 80.0854C168.406 80.0899 168.345 80.0764 168.292 80.045C168.24 80.0135 168.2 79.9671 168.176 79.9117C166.228 74.8904 162.37 70.8456 157.449 68.6667C152.528 66.4862 146.943 66.35 141.92 68.2848C141.883 68.3117 141.841 68.3312 141.795 68.3387C141.75 68.3462 141.703 68.3432 141.658 68.3297C141.615 68.3162 141.575 68.2923 141.542 68.2593C141.509 68.2264 141.483 68.1874 141.47 68.144C141.456 68.1006 141.452 68.0542 141.458 68.0077C141.465 67.9628 141.482 67.9194 141.509 67.882C141.536 67.8445 141.572 67.8146 141.612 67.7936C141.652 67.7726 141.699 67.7621 141.744 67.7621C144.296 66.7543 147.022 66.2646 149.766 66.3245C152.509 66.3844 155.213 66.9909 157.719 68.1096C162.783 70.3514 166.751 74.5116 168.755 79.6796C168.777 79.7574 168.773 79.8398 168.74 79.9147C168.708 79.9895 168.651 80.0495 168.58 80.0869H168.463L168.466 80.0854Z" fill="#553597"/>
<path d="M157.662 142.235C157.662 142.235 153.77 145.375 157.662 148.048V142.235Z" fill="white"/>
<path d="M157.662 148.34H157.488C156.327 147.467 155.688 146.537 155.688 145.49C155.688 144.444 157.431 142.061 157.488 142.003C157.55 141.956 157.627 141.937 157.704 141.947C157.78 141.958 157.849 142 157.895 142.061C157.93 142.085 157.956 142.119 157.973 142.158C157.989 142.197 157.995 142.239 157.989 142.281C157.983 142.323 157.967 142.364 157.94 142.395C157.913 142.428 157.879 142.453 157.838 142.467C157.838 142.467 156.212 143.863 156.27 145.432C156.329 147.003 156.792 147.118 157.838 147.816C157.9 147.863 157.94 147.931 157.952 148.008C157.962 148.084 157.943 148.162 157.897 148.223C157.838 148.34 157.78 148.34 157.665 148.34H157.662Z" fill="#553597"/>
<path d="M147.089 161.129H146.916C145.716 160.316 145.135 159.445 145.173 158.513C145.29 156.885 147.496 155.84 147.613 155.782C147.685 155.762 147.761 155.762 147.833 155.782C147.905 155.803 147.969 155.843 148.02 155.897C148.038 155.936 148.049 155.976 148.05 156.018C148.05 156.06 148.044 156.102 148.026 156.141C148.008 156.18 147.984 156.214 147.953 156.243C147.921 156.271 147.884 156.292 147.845 156.304C147.845 156.304 145.87 157.293 145.753 158.572C145.637 159.85 146.217 159.909 147.263 160.607C147.324 160.653 147.365 160.722 147.377 160.798C147.387 160.875 147.368 160.953 147.321 161.014C147.263 161.129 147.205 161.129 147.089 161.129Z" fill="#553597"/>
<path d="M137.912 171.594C137.849 171.582 137.789 171.554 137.738 171.513C137.687 171.473 137.647 171.422 137.622 171.362C137.622 171.071 137.215 168.629 138.377 167.874C139.538 167.118 139.772 167.584 140.816 168.223C140.846 168.245 140.873 168.274 140.892 168.307C140.912 168.34 140.924 168.376 140.93 168.413C140.936 168.452 140.933 168.49 140.924 168.527C140.915 168.564 140.898 168.599 140.874 168.629C140.829 168.69 140.764 168.735 140.69 168.756C140.617 168.777 140.539 168.774 140.467 168.746C139.945 168.397 139.131 168.048 138.667 168.338C138.202 168.629 138.087 170.606 138.202 171.245C138.224 171.284 138.235 171.326 138.235 171.371C138.235 171.414 138.22 171.456 138.196 171.494C138.172 171.53 138.138 171.558 138.097 171.576C138.057 171.594 138.014 171.6 137.97 171.594H137.912Z" fill="#553597"/>
<path d="M51.7706 190.837C39.979 190.837 38.9332 188.164 38.8748 187.989C38.8165 187.815 38.9332 187.699 39.1067 187.64C39.1396 187.621 39.1785 187.61 39.2159 187.609C39.2533 187.607 39.2937 187.616 39.3282 187.633C39.3626 187.651 39.3925 187.676 39.4149 187.708C39.4374 187.739 39.4508 187.776 39.4553 187.815C39.4553 187.874 41.6039 192.118 66.3496 189.268C66.4259 189.268 66.5007 189.299 66.5546 189.353C66.6085 189.409 66.6399 189.482 66.6399 189.559C66.6982 189.734 66.5815 189.849 66.408 189.849C61.5513 190.448 56.6647 190.779 51.7706 190.837Z" fill="#553597"/>
<path d="M50.6097 196.711C42.6514 196.711 39.5737 195.374 38.2959 194.385C37.874 194.102 37.5807 193.662 37.482 193.163C37.4236 193.048 37.5403 192.873 37.7139 192.873C37.8875 192.873 38.0042 192.931 38.0625 193.106C38.1209 193.28 39.2236 198.047 63.9693 195.198C64.0531 195.197 64.1339 195.227 64.1967 195.279C64.2611 195.333 64.303 195.407 64.3179 195.489C64.3179 195.567 64.2865 195.64 64.2326 195.696C64.1788 195.749 64.104 195.779 64.0277 195.779C59.5765 196.341 55.0968 196.652 50.6097 196.711Z" fill="#553597"/>
<path d="M127.747 128.281L137.505 127.06L136.749 130.548L127.747 128.281Z" fill="#553597"/>
<path d="M125.133 119.27L137.854 122.758L137.97 118.455C137.97 118.455 127.456 119.908 125.133 119.268V119.27Z" fill="#553597"/>
<path d="M109.74 123.863C109.74 123.863 110.727 127.584 114.619 128.165L109.74 123.863Z" fill="white"/>
<path d="M114.62 128.456C113.425 128.252 112.307 127.721 111.395 126.92C110.482 126.118 109.809 125.081 109.451 123.92C109.393 123.746 109.509 123.629 109.683 123.571C109.858 123.513 109.973 123.629 110.032 123.746C110.329 124.808 110.926 125.76 111.751 126.493C112.575 127.225 113.591 127.704 114.679 127.875C114.852 127.933 114.969 128.049 114.911 128.224C114.897 128.29 114.861 128.35 114.807 128.393C114.754 128.435 114.688 128.457 114.62 128.456Z" fill="#553597"/>
<path d="M105.501 99.3288C103.881 99.4201 102.286 98.9005 101.029 97.8747C100.42 97.3146 99.938 96.6302 99.6178 95.868C99.2976 95.1057 99.145 94.2821 99.1705 93.4554C99.1615 92.6423 99.3276 91.8366 99.6582 91.0938C99.9889 90.3511 100.477 89.6891 101.087 89.153C102.075 88.2815 103.875 87.35 106.895 87.8157C106.963 87.8472 107.02 87.8966 107.06 87.958C107.1 88.0194 107.124 88.0913 107.127 88.1646C107.127 88.3399 106.954 88.3968 106.779 88.3968C104.572 88.0478 102.712 88.4552 101.434 89.5589C100.905 90.065 100.483 90.6715 100.192 91.3439C99.9021 92.0163 99.7495 92.7396 99.745 93.4719C99.739 94.2042 99.8812 94.929 100.161 95.6059C100.441 96.2828 100.854 96.8953 101.376 97.4089C102.654 98.5141 104.512 98.9784 106.777 98.6878C106.951 98.6878 107.126 98.8047 107.126 98.92C107.126 99.0353 107.009 99.2689 106.894 99.2689L105.499 99.3273L105.501 99.3288Z" fill="#553597"/>
<path d="M103.699 95.7242C103.626 95.7123 103.559 95.6778 103.506 95.6269C103.454 95.5745 103.42 95.5071 103.409 95.4337V92.1781C103.409 92.1002 103.441 92.0268 103.494 91.9729C103.548 91.919 103.623 91.8875 103.699 91.8875C103.776 91.8875 103.851 91.919 103.904 91.9729C103.958 92.0268 103.99 92.1017 103.99 92.1781V95.4337C103.99 95.5101 103.96 95.585 103.904 95.6389C103.851 95.6928 103.776 95.7242 103.699 95.7242Z" fill="#553597"/>
<path d="M115.491 109.386C115.491 109.386 118.976 114.619 124.204 112.642L115.491 109.386Z" fill="white"/>
<path d="M121.821 113.34C117.813 113.34 115.316 109.619 115.258 109.56C115.199 109.502 115.199 109.211 115.374 109.153C115.436 109.106 115.513 109.087 115.59 109.097C115.666 109.108 115.735 109.15 115.781 109.211C115.898 109.443 119.151 114.27 124.088 112.35C124.126 112.332 124.167 112.322 124.209 112.32C124.251 112.319 124.293 112.328 124.332 112.344C124.371 112.361 124.405 112.386 124.434 112.417C124.462 112.449 124.483 112.486 124.495 112.527C124.515 112.56 124.525 112.597 124.527 112.636C124.527 112.675 124.519 112.712 124.503 112.748C124.485 112.783 124.459 112.813 124.428 112.835C124.396 112.858 124.359 112.871 124.322 112.876C123.527 113.193 122.679 113.352 121.824 113.341L121.821 113.34Z" fill="#553597"/>
<path d="M220.626 215.488H198.901C187.285 215.488 177.817 208.396 177.817 199.674V183.862H220.626V215.488Z" fill="#422779"/>
<path d="M266.862 192.059H247.753C237.471 192.059 229.107 184.967 229.107 176.245V160.433H266.862V192.059Z" fill="#422779"/>
<path d="M275.75 132.817V179.967C275.75 180.841 275.691 181.716 275.574 182.583C275.423 183.564 275.211 184.536 274.936 185.49C271.8 195.896 256.465 193.746 256.29 182.873V177.524C256.29 174.394 255.048 171.393 252.837 169.18C250.625 166.967 247.627 165.722 244.5 165.722C241.373 165.722 238.373 166.967 236.161 169.18C233.95 171.393 232.708 174.394 232.708 177.524V182.873L232.418 203.686C232.418 206.816 231.175 209.819 228.963 212.032C226.752 214.245 223.753 215.488 220.626 215.488C217.345 215.488 214.197 214.184 211.878 211.861C209.557 209.539 208.254 206.389 208.254 203.105V197.233C208.293 194.553 207.352 191.952 205.609 189.916C203.864 187.881 201.439 186.556 198.786 186.188H195.707C192.78 186.188 189.974 187.351 187.903 189.422C185.834 191.495 184.671 194.304 184.671 197.233C184.671 200.163 184.09 203.099 182.964 205.822C181.837 208.544 180.185 211.018 178.104 213.101C176.021 215.186 173.55 216.839 170.83 217.967C168.11 219.094 165.193 219.674 162.249 219.674H101.491L117.464 193.28C118.754 191.116 120.583 189.323 122.772 188.08C124.96 186.837 127.435 186.185 129.953 186.188H157.37V178.454C157.385 175.073 158.739 171.835 161.133 169.448C163.528 167.062 166.769 165.722 170.149 165.722H201.457V132.817H275.75Z" fill="#6F46BE"/>
<path d="M198.67 186.827L133.033 186.652C132.956 186.652 132.882 186.622 132.828 186.568C132.774 186.512 132.742 186.439 132.742 186.361C132.742 186.283 132.772 186.21 132.828 186.156C132.883 186.102 132.956 186.071 133.033 186.071L198.67 186.246C198.748 186.246 198.821 186.276 198.876 186.331C198.932 186.387 198.96 186.459 198.96 186.536C198.95 186.61 198.915 186.677 198.863 186.728C198.81 186.781 198.743 186.815 198.67 186.827Z" fill="#553597"/>
<path d="M244.5 166.305L192.513 166.014C192.435 166.014 192.362 165.983 192.308 165.929C192.254 165.875 192.223 165.8 192.223 165.722C192.223 165.644 192.253 165.573 192.308 165.517C192.363 165.462 192.435 165.432 192.513 165.432L244.5 165.722C244.576 165.722 244.651 165.754 244.705 165.808C244.759 165.863 244.79 165.936 244.79 166.014C244.79 166.092 244.759 166.164 244.705 166.219C244.651 166.273 244.576 166.305 244.5 166.305Z" fill="#553597"/>
<path d="M109.683 261.882H56.5915C56.5152 261.882 56.4404 261.852 56.3866 261.797C56.3327 261.743 56.3013 261.67 56.3013 261.592C56.3013 261.514 56.3312 261.44 56.3866 261.386C56.4404 261.331 56.5152 261.301 56.5915 261.301H109.681C109.758 261.301 109.833 261.331 109.886 261.386C109.94 261.44 109.972 261.515 109.972 261.592C109.972 261.668 109.94 261.743 109.886 261.797C109.833 261.852 109.758 261.882 109.681 261.882H109.683Z" fill="#553597"/>
<path d="M275.169 143.282H202.156C202.078 143.282 202.005 143.252 201.949 143.196C201.894 143.141 201.865 143.068 201.865 142.991C201.865 142.915 201.895 142.84 201.949 142.786C202.003 142.732 202.078 142.701 202.156 142.701H275.169C275.247 142.701 275.32 142.731 275.374 142.786C275.429 142.84 275.459 142.913 275.459 142.991C275.459 143.069 275.429 143.142 275.374 143.196C275.32 143.252 275.247 143.282 275.169 143.282Z" fill="#553597"/>
<path d="M262.217 151.886H205.931C205.855 151.886 205.78 151.855 205.726 151.801C205.672 151.747 205.641 151.672 205.641 151.596C205.641 151.52 205.671 151.445 205.726 151.389C205.78 151.335 205.855 151.304 205.931 151.304H262.217C262.293 151.304 262.368 151.335 262.422 151.389C262.475 151.445 262.507 151.518 262.507 151.596C262.507 151.674 262.475 151.746 262.422 151.801C262.368 151.855 262.293 151.886 262.217 151.886Z" fill="#553597"/>
<path d="M236.541 158.63H222.833C222.757 158.63 222.682 158.6 222.628 158.545C222.573 158.491 222.543 158.416 222.543 158.339C222.543 158.263 222.573 158.188 222.628 158.134C222.682 158.079 222.757 158.049 222.833 158.049H236.541C236.619 158.049 236.693 158.079 236.746 158.134C236.802 158.188 236.832 158.262 236.832 158.339C236.832 158.417 236.802 158.491 236.746 158.545C236.693 158.6 236.619 158.63 236.541 158.63Z" fill="#553597"/>
<path d="M224.577 175.315H166.606C166.528 175.315 166.455 175.285 166.401 175.23C166.347 175.176 166.316 175.101 166.316 175.025C166.316 174.949 166.347 174.874 166.401 174.82C166.455 174.764 166.53 174.734 166.606 174.734H224.577C224.65 174.746 224.717 174.779 224.77 174.832C224.821 174.884 224.855 174.952 224.867 175.025C224.867 175.101 224.835 175.176 224.782 175.23C224.728 175.285 224.653 175.315 224.577 175.315Z" fill="#553597"/>
<path d="M185.078 181.478C185 181.478 184.927 181.448 184.873 181.393C184.818 181.339 184.788 181.265 184.788 181.187C184.788 181.109 184.818 181.036 184.873 180.982C184.927 180.927 185 180.897 185.078 180.897L224.576 180.78C224.65 180.792 224.717 180.826 224.768 180.879C224.82 180.931 224.855 180.999 224.867 181.071C224.867 181.148 224.835 181.222 224.781 181.277C224.728 181.331 224.653 181.363 224.576 181.363L185.078 181.478Z" fill="#553597"/>
<path d="M149.296 200.664H118.976C118.898 200.664 118.825 200.633 118.771 200.579C118.717 200.524 118.686 200.45 118.686 200.374C118.686 200.297 118.715 200.223 118.771 200.167C118.825 200.113 118.9 200.082 118.976 200.082H149.296C149.373 200.082 149.448 200.113 149.501 200.167C149.555 200.223 149.587 200.296 149.587 200.374C149.587 200.452 149.557 200.524 149.501 200.579C149.448 200.633 149.373 200.664 149.296 200.664Z" fill="#553597"/>
<path d="M148.077 207.989H117.001C116.924 207.989 116.85 207.959 116.796 207.903C116.742 207.849 116.71 207.775 116.71 207.698C116.71 207.622 116.74 207.547 116.796 207.493C116.85 207.438 116.924 207.408 117.001 207.408H148.077C148.155 207.408 148.228 207.438 148.282 207.493C148.336 207.547 148.367 207.62 148.367 207.698C148.367 207.776 148.336 207.849 148.282 207.903C148.228 207.959 148.153 207.989 148.077 207.989Z" fill="#553597"/>
<path d="M163.412 199.966H154.99V208.366H163.412V199.966Z" fill="white"/>
<path d="M163.353 208.687H154.989C154.911 208.687 154.838 208.655 154.784 208.601C154.73 208.547 154.699 208.473 154.699 208.396V199.967C154.699 199.889 154.729 199.815 154.784 199.76C154.838 199.706 154.913 199.676 154.989 199.676H163.353C163.431 199.676 163.504 199.706 163.558 199.76C163.612 199.815 163.643 199.889 163.643 199.967V208.396C163.643 208.473 163.613 208.547 163.558 208.601C163.503 208.655 163.429 208.687 163.353 208.687ZM155.28 208.106H163.063V200.257H155.28V208.106Z" fill="#553597"/>
<path d="M159.171 171.596C159.094 171.596 159.02 171.564 158.966 171.51C158.913 171.455 158.881 171.381 158.881 171.304V165.722C158.881 165.646 158.913 165.573 158.966 165.517C159.02 165.463 159.095 165.432 159.171 165.432C159.248 165.432 159.322 165.463 159.376 165.517C159.43 165.573 159.462 165.646 159.462 165.722V171.304C159.462 171.381 159.432 171.455 159.376 171.51C159.322 171.564 159.248 171.596 159.171 171.596Z" fill="#553597"/>
<path d="M223.589 140.782C223.544 140.782 223.499 140.772 223.459 140.751C223.418 140.731 223.384 140.701 223.355 140.665C223.303 140.611 223.273 140.538 223.273 140.462C223.273 140.385 223.303 140.313 223.355 140.258L229.049 134.735C229.104 134.693 229.174 134.672 229.243 134.678C229.313 134.683 229.379 134.713 229.429 134.762C229.478 134.811 229.508 134.877 229.512 134.946C229.517 135.017 229.497 135.085 229.456 135.141L223.762 140.664L223.589 140.781V140.782Z" fill="#553597"/>
<path d="M229.281 140.782L229.049 140.665L223.356 135.142C223.314 135.087 223.294 135.017 223.299 134.948C223.303 134.877 223.333 134.813 223.383 134.764C223.433 134.714 223.498 134.684 223.568 134.68C223.638 134.675 223.707 134.695 223.763 134.737L229.456 140.26C229.508 140.315 229.538 140.387 229.538 140.463C229.538 140.54 229.508 140.613 229.456 140.667L229.281 140.784V140.782Z" fill="#553597"/>
<path d="M218.593 134.503H212.611V140.492H218.593V134.503Z" fill="white"/>
<path d="M205.582 140.433C207.219 140.433 208.545 139.105 208.545 137.468C208.545 135.831 207.219 134.503 205.582 134.503C203.945 134.503 202.62 135.83 202.62 137.468C202.62 139.106 203.947 140.433 205.582 140.433Z" fill="#6F46BE"/>
<path d="M80.8138 200.257C81.7385 200.257 82.6242 200.624 83.278 201.278C83.9319 201.933 84.2985 202.819 84.2985 203.745V235.313H77.3276V203.686C77.3426 202.771 77.7167 201.9 78.369 201.257C79.0213 200.616 79.8981 200.257 80.8138 200.257Z" fill="#6F46BE"/>
<path d="M83.6593 223.105C83.0638 223.09 82.4952 222.846 82.0733 222.424C81.6514 222.003 81.4075 221.434 81.394 220.838V208.279C81.409 207.683 81.6529 207.114 82.0733 206.692C82.4952 206.271 83.0623 206.027 83.6593 206.012C83.957 206.012 84.2518 206.07 84.5256 206.184C84.7994 206.298 85.0508 206.466 85.2602 206.677C85.4712 206.887 85.6373 207.137 85.751 207.412C85.8647 207.686 85.9231 207.981 85.9231 208.279V220.838C85.9231 221.136 85.8647 221.429 85.751 221.705C85.6373 221.98 85.4697 222.23 85.2602 222.44C85.0493 222.651 84.8009 222.817 84.5256 222.933C84.2503 223.046 83.9555 223.105 83.6593 223.105ZM83.6593 206.593C83.2119 206.593 82.784 206.771 82.4683 207.087C82.1526 207.403 81.9746 207.833 81.9746 208.279V220.838C81.9746 221.284 82.1526 221.714 82.4683 222.03C82.784 222.346 83.2134 222.524 83.6593 222.524C84.1052 222.524 84.5346 222.346 84.8503 222.03C85.166 221.714 85.344 221.284 85.344 220.838V208.279C85.344 207.833 85.166 207.403 84.8503 207.087C84.5346 206.771 84.1052 206.593 83.6593 206.593Z" fill="#553597"/>
<path d="M81.5107 213.104H77.3288C77.2525 213.104 77.1777 213.074 77.1239 213.02C77.07 212.965 77.0386 212.892 77.0386 212.814C77.0386 212.736 77.07 212.664 77.1239 212.609C77.1777 212.555 77.2525 212.523 77.3288 212.523H81.5107C81.587 212.523 81.6619 212.555 81.7157 212.609C81.7696 212.664 81.801 212.737 81.801 212.814C81.801 212.89 81.7711 212.965 81.7157 213.02C81.6619 213.074 81.587 213.104 81.5107 213.104Z" fill="#553597"/>
<path d="M87.144 218.454L93.4759 209.907L96.6703 220.896L91.9079 242.29L82.615 240.545L87.1455 218.454H87.144Z" fill="white"/>
<path d="M91.908 242.58H91.8497L82.5552 240.837L82.3817 240.721C82.3353 240.652 82.3143 240.569 82.3233 240.488L86.8538 218.395V218.28L93.1858 209.733C93.2441 209.617 93.3608 209.617 93.476 209.617C93.5913 209.617 93.6511 209.733 93.708 209.792L96.9024 220.779V220.953L92.1399 242.348C92.1295 242.407 92.101 242.459 92.0591 242.501C92.0172 242.542 91.9649 242.57 91.9065 242.58H91.908ZM82.9622 240.313L91.6746 241.941L96.3802 220.896L93.3593 210.547L87.376 218.57L82.9607 240.313H82.9622Z" fill="#553597"/>
<path d="M68.1511 225.372L73.9594 244.499L83.6593 241.535L78.5483 222.175L70.6483 214.558L68.1511 225.372Z" fill="white"/>
<path d="M73.9594 244.789H73.7858C73.7275 244.789 73.6691 244.732 73.6691 244.616L67.8608 225.546V225.372L70.358 214.558C70.4044 214.455 70.4867 214.373 70.5899 214.326C70.6438 214.322 70.6991 214.329 70.7485 214.35C70.7994 214.37 70.8443 214.401 70.8802 214.442L78.7802 222.058C78.7802 222.117 78.8385 222.117 78.8385 222.175L83.9495 241.534C84.0079 241.65 83.8912 241.826 83.7745 241.883L74.0162 244.789H73.9579H73.9594ZM68.4414 225.372L74.1329 244.15L83.3107 241.36L78.3148 222.349L70.8218 215.139L68.4399 225.372H68.4414Z" fill="#553597"/>
<path d="M89.1206 242.058H89.0622C88.9455 242.058 88.8303 241.882 88.8303 241.709L93.6511 220.14C93.6451 220.096 93.6511 220.051 93.6691 220.012C93.687 219.972 93.7154 219.937 93.7513 219.914C93.7873 219.89 93.8306 219.876 93.874 219.875C93.9174 219.873 93.9608 219.885 93.9982 219.908C94.0371 219.914 94.073 219.929 94.1059 219.949C94.1389 219.972 94.1673 219.999 94.1882 220.032C94.2107 220.065 94.2241 220.101 94.2316 220.14C94.2391 220.179 94.2376 220.218 94.2301 220.256L89.4094 241.826C89.4094 241.999 89.2926 242.058 89.1191 242.058H89.1206Z" fill="#553597"/>
<path d="M85.2274 241.535H85.1691C85.0972 241.51 85.0359 241.462 84.994 241.399C84.9521 241.336 84.9312 241.261 84.9357 241.186L89.351 219.325C89.4093 219.151 89.5245 219.035 89.6996 219.093C89.8731 219.151 89.9315 219.268 89.9315 219.442L85.5177 241.301C85.5177 241.418 85.3426 241.535 85.2274 241.535Z" fill="#553597"/>
<path d="M80.8135 242.697C80.6399 242.697 80.5232 242.639 80.5232 242.522L74.8302 223.337C74.8212 223.299 74.8212 223.259 74.8287 223.222C74.8362 223.183 74.8511 223.145 74.8721 223.114C74.8945 223.081 74.9214 223.052 74.9544 223.031C74.9873 223.01 75.0232 222.995 75.0621 222.988C75.095 222.968 75.1339 222.958 75.1713 222.956C75.2087 222.955 75.2476 222.964 75.2835 222.98C75.3179 222.998 75.3479 223.024 75.3703 223.055C75.3927 223.087 75.4062 223.124 75.4107 223.163L81.0454 242.348C81.0649 242.381 81.0753 242.42 81.0768 242.457C81.0768 242.496 81.0694 242.535 81.0529 242.57C81.0349 242.604 81.0095 242.634 80.9781 242.657C80.9467 242.679 80.9093 242.693 80.8719 242.697H80.8135Z" fill="#553597"/>
<path d="M77.3275 243.744C77.2676 243.748 77.2063 243.735 77.1539 243.704C77.1016 243.672 77.0612 243.626 77.0372 243.569L71.6359 224.791C71.5776 224.616 71.6359 224.442 71.8095 224.442C71.8424 224.423 71.8813 224.411 71.9187 224.409C71.9576 224.409 71.9965 224.417 72.0309 224.435C72.0653 224.451 72.0953 224.478 72.1177 224.51C72.1401 224.541 72.1536 224.578 72.1581 224.616L77.6177 243.395C77.6267 243.432 77.6267 243.473 77.6192 243.51C77.6118 243.549 77.5968 243.587 77.5759 243.618C77.5549 243.651 77.5265 243.68 77.4936 243.701C77.4606 243.721 77.4247 243.736 77.3858 243.744H77.3275Z" fill="#553597"/>
<path d="M98.5302 235.256H66.7V261.243H98.5302V235.256Z" fill="#553597"/>
<path d="M90.6301 213.744L94.812 214.559L93.4759 209.907L90.6301 213.744Z" fill="#553597"/>
<path d="M69.4873 220.896L75.0053 219.151L70.8234 215.14L69.4873 220.896Z" fill="#6F46BE"/>
<path d="M68.1511 225.663C68.0913 225.667 68.0299 225.654 67.9775 225.622C67.9252 225.591 67.8848 225.544 67.8608 225.489C67.8384 225.411 67.8429 225.327 67.8758 225.254C67.9072 225.179 67.9641 225.119 68.0359 225.082L78.4914 221.941C78.5243 221.922 78.5632 221.911 78.6006 221.91C78.6395 221.908 78.6784 221.917 78.7128 221.934C78.7472 221.952 78.7772 221.977 78.7996 222.009C78.822 222.042 78.8355 222.078 78.84 222.116C78.8595 222.185 78.852 222.26 78.8205 222.325C78.7891 222.389 78.7338 222.438 78.6664 222.465L68.211 225.663H68.1526H68.1511Z" fill="#553597"/>
<path d="M96.6718 221.186H96.6134L87.0287 218.744C86.9614 218.718 86.906 218.668 86.8746 218.603C86.8432 218.539 86.8357 218.465 86.8552 218.395C86.8552 218.221 87.0287 218.163 87.2038 218.163L96.7301 220.604C96.769 220.611 96.8049 220.626 96.8378 220.647C96.8708 220.668 96.8992 220.697 96.9201 220.73C96.9411 220.763 96.956 220.799 96.9635 220.838C96.971 220.875 96.9695 220.915 96.962 220.953C96.9351 221.013 96.8947 221.064 96.8453 221.104C96.7945 221.144 96.7361 221.173 96.6718 221.186Z" fill="#553597"/>
</g>
</g>
<defs>
<clipPath id="clip0_185_3456">
<rect width="28.968" height="28.968" fill="white" transform="translate(146.557 167.059)"/>
</clipPath>
<clipPath id="clip1_185_3456">
<rect width="291.48" height="243.18" fill="white" transform="translate(9.03003 33.39)"/>
</clipPath>
<clipPath id="clip2_185_3456">
<rect width="256.138" height="239.063" fill="white" transform="translate(30.9375 33.75)"/>
</clipPath>
</defs>
</svg>
