<svg width="336" height="336" viewBox="0 0 336 336" fill="none" xmlns="http://www.w3.org/2000/svg">
<g clip-path="url(#clip0_100_21310)">
<mask id="mask0_100_21310" style="mask-type:luminance" maskUnits="userSpaceOnUse" x="9" y="35" width="312" height="260">
<path d="M9.63281 35.6162H320.196V294.71H9.63281V35.6162Z" fill="white"/>
</mask>
<g mask="url(#mask0_100_21310)">
<path d="M10.1321 201.458C2.75791 133.946 78.9413 59.4642 156.669 40.9931C222.24 25.4595 312.922 39.5991 319.898 136.187C324.781 203.897 275.753 261.103 200.117 287.042C124.332 313.38 17.4565 268.92 10.1321 201.458Z" fill="#A78ED7"/>
</g>
</g>
<g clip-path="url(#clip1_100_21310)">
<mask id="mask1_100_21310" style="mask-type:luminance" maskUnits="userSpaceOnUse" x="105" y="35" width="219" height="172">
<path d="M105.729 35.168H323.681V206.976H105.729V35.168Z" fill="white"/>
</mask>
<g mask="url(#mask1_100_21310)">
<path d="M319.8 206.601H109.608C109.198 206.603 108.791 206.524 108.412 206.368C108.032 206.213 107.687 205.984 107.396 205.694C107.105 205.405 106.875 205.061 106.717 204.682C106.56 204.304 106.479 203.897 106.479 203.487V39.0334C106.478 38.623 106.559 38.2166 106.717 37.8376C106.874 37.4586 107.105 37.1144 107.396 36.8249C107.686 36.5354 108.032 36.3062 108.411 36.1505C108.791 35.9949 109.198 35.9159 109.608 35.918H319.8C320.211 35.9159 320.617 35.9949 320.997 36.1505C321.377 36.3062 321.722 36.5354 322.013 36.8249C322.304 37.1144 322.535 37.4586 322.692 37.8376C322.849 38.2166 322.93 38.623 322.93 39.0334V203.525C322.922 204.347 322.588 205.133 322.001 205.71C321.414 206.286 320.623 206.607 319.8 206.601Z" fill="white"/>
<path d="M322.819 46.5897V39.2747C322.82 38.8655 322.74 38.4602 322.584 38.082C322.428 37.7038 322.198 37.3602 321.909 37.0709C321.62 36.7816 321.276 36.5523 320.898 36.3961C320.519 36.24 320.114 36.1602 319.705 36.1611H109.668C109.259 36.1602 108.854 36.24 108.476 36.3961C108.097 36.5523 107.754 36.7816 107.464 37.0709C107.175 37.3602 106.946 37.7038 106.79 38.082C106.634 38.4602 106.554 38.8655 106.555 39.2747V46.5897H322.819Z" fill="#EDE3FF"/>
<path d="M318.287 41.3576L320.14 39.5048C320.245 39.3993 320.305 39.2561 320.305 39.1068C320.305 38.9575 320.245 38.8144 320.14 38.7088C320.035 38.6032 319.891 38.5439 319.742 38.5439C319.593 38.5439 319.449 38.6032 319.344 38.7088L317.491 40.5619L315.638 38.7088C315.533 38.6032 315.39 38.5439 315.24 38.5439C315.091 38.5439 314.948 38.6032 314.842 38.7088C314.737 38.8144 314.678 38.9575 314.678 39.1068C314.678 39.2561 314.737 39.3993 314.842 39.5048L316.696 41.3576L314.842 43.2103C314.737 43.3159 314.678 43.459 314.678 43.6083C314.678 43.7576 314.737 43.9008 314.842 44.0064C314.948 44.1119 315.091 44.1712 315.24 44.1712C315.39 44.1712 315.533 44.1119 315.638 44.0064L317.491 42.1532L319.344 44.0064C319.449 44.1119 319.593 44.1712 319.742 44.1712C319.891 44.1712 320.035 44.1119 320.14 44.0064C320.245 43.9008 320.305 43.7576 320.305 43.6083C320.305 43.459 320.245 43.3159 320.14 43.2103L318.287 41.3576Z" fill="#553597"/>
<path d="M319.956 35.168H109.453C108.471 35.163 107.528 35.5475 106.83 36.2371C106.132 36.9268 105.736 37.8652 105.729 38.8465V203.297C105.736 204.279 106.132 205.217 106.83 205.907C107.528 206.596 108.471 206.981 109.453 206.976H319.956C320.932 206.986 321.872 206.608 322.571 205.926C323.269 205.244 323.668 204.313 323.681 203.337V38.8465C323.673 37.8652 323.277 36.9268 322.579 36.2371C321.881 35.5475 320.938 35.163 319.956 35.168ZM109.453 36.2934H319.956C320.639 36.2881 321.297 36.5539 321.783 37.0326C322.271 37.5112 322.548 38.1636 322.555 38.8465V46.4218H106.854V38.8465C106.861 38.1636 107.138 37.5112 107.625 37.0326C108.113 36.5539 108.77 36.2881 109.453 36.2934ZM322.555 47.5472V68.1791H106.854V47.5472H322.555ZM319.956 205.851H109.453C108.77 205.856 108.113 205.59 107.625 205.112C107.138 204.633 106.861 203.981 106.854 203.297V69.3045H322.555V203.337C322.543 204.015 322.262 204.66 321.775 205.131C321.288 205.602 320.634 205.861 319.956 205.851Z" fill="#553597"/>
<path d="M309.988 44.1708H307.737C307.289 44.1704 306.86 43.9923 306.544 43.6759C306.227 43.3594 306.049 42.9303 306.049 42.4828V40.232C306.049 39.7845 306.227 39.3554 306.544 39.0389C306.86 38.7224 307.289 38.5444 307.737 38.5439H309.988C310.435 38.5444 310.864 38.7224 311.181 39.0389C311.497 39.3554 311.675 39.7845 311.676 40.232V42.4828C311.675 42.9303 311.497 43.3594 311.181 43.6759C310.864 43.9923 310.435 44.1704 309.988 44.1708ZM307.737 39.6693C307.588 39.6693 307.445 39.7286 307.339 39.8341C307.234 39.9396 307.174 40.0828 307.174 40.232V42.4828C307.174 42.632 307.234 42.7751 307.339 42.8807C307.445 42.9862 307.588 43.0455 307.737 43.0455H309.988C310.137 43.0455 310.28 42.9862 310.386 42.8807C310.491 42.7751 310.55 42.632 310.55 42.4828V40.232C310.55 40.0828 310.491 39.9396 310.386 39.8341C310.28 39.7286 310.137 39.6693 309.988 39.6693H307.737Z" fill="#553597"/>
<path d="M302.486 44.1713H297.985C297.835 44.1713 297.692 44.112 297.587 44.0065C297.481 43.901 297.422 43.7578 297.422 43.6086C297.422 43.4594 297.481 43.3162 297.587 43.2107C297.692 43.1052 297.835 43.0459 297.985 43.0459H302.486C302.635 43.0459 302.778 43.1052 302.884 43.2107C302.99 43.3162 303.049 43.4594 303.049 43.6086C303.049 43.7578 302.99 43.901 302.884 44.0065C302.778 44.112 302.635 44.1713 302.486 44.1713Z" fill="#553597"/>
<path d="M297.985 63.6778H160.686C160.139 63.677 159.615 63.4595 159.228 63.0727C158.841 62.6859 158.624 62.1615 158.623 61.6146V54.112C158.624 53.5651 158.841 53.0407 159.228 52.6539C159.615 52.2671 160.139 52.0495 160.686 52.0488H297.985C298.532 52.0495 299.056 52.2671 299.443 52.6539C299.83 53.0407 300.047 53.5651 300.048 54.112V61.6146C300.047 62.1615 299.83 62.6859 299.443 63.0727C299.056 63.4595 298.532 63.677 297.985 63.6778ZM160.686 53.1742C160.438 53.1742 160.199 53.273 160.023 53.4489C159.847 53.6248 159.748 53.8633 159.748 54.112V61.6146C159.748 61.8633 159.847 62.1018 160.023 62.2777C160.199 62.4536 160.438 62.5524 160.686 62.5524H297.985C298.234 62.5524 298.472 62.4536 298.648 62.2777C298.824 62.1018 298.923 61.8633 298.923 61.6146V54.112C298.923 53.8633 298.824 53.6248 298.648 53.4489C298.472 53.273 298.234 53.1742 297.985 53.1742H160.686Z" fill="#553597"/>
<path d="M127.298 62.9275C127.183 62.9276 127.07 62.8925 126.976 62.8269C126.881 62.7612 126.809 62.6682 126.769 62.5603C126.729 62.4524 126.724 62.3349 126.752 62.2235C126.781 62.1122 126.844 62.0124 126.931 61.9375L131.685 57.8633L126.931 53.789C126.818 53.6918 126.748 53.5536 126.737 53.4047C126.725 53.2558 126.773 53.1086 126.871 52.9952C126.968 52.8819 127.106 52.8119 127.255 52.8005C127.404 52.7891 127.551 52.8373 127.664 52.9345L132.916 57.436C132.978 57.4888 133.027 57.5543 133.061 57.6281C133.095 57.7019 133.113 57.7821 133.113 57.8633C133.113 57.9444 133.095 58.0247 133.061 58.0984C133.027 58.1722 132.978 58.2377 132.916 58.2905L127.664 62.792C127.562 62.8795 127.432 62.9275 127.298 62.9275Z" fill="#553597"/>
<path d="M118.295 62.9275C118.161 62.9277 118.031 62.8796 117.929 62.7921L112.677 58.2905C112.615 58.2377 112.566 58.1722 112.532 58.0984C112.498 58.0247 112.48 57.9444 112.48 57.8633C112.48 57.7821 112.498 57.7019 112.532 57.6281C112.566 57.5543 112.615 57.4888 112.677 57.436L117.929 52.9345C117.985 52.8863 118.05 52.8497 118.12 52.8267C118.191 52.8037 118.265 52.7948 118.338 52.8005C118.412 52.8061 118.484 52.8262 118.55 52.8596C118.616 52.8931 118.675 52.9391 118.723 52.9952C118.771 53.0514 118.807 53.1164 118.83 53.1867C118.853 53.2569 118.862 53.331 118.857 53.4047C118.851 53.4784 118.831 53.5503 118.798 53.6162C118.764 53.6822 118.718 53.7409 118.662 53.789L113.908 57.8633L118.661 61.9375C118.749 62.0124 118.811 62.1122 118.84 62.2235C118.869 62.3348 118.863 62.4523 118.823 62.5602C118.783 62.668 118.711 62.761 118.617 62.8267C118.522 62.8924 118.41 62.9276 118.295 62.9275Z" fill="#553597"/>
<path d="M149.993 57.3009C149.844 57.3009 149.701 57.3601 149.595 57.4657C149.49 57.5712 149.431 57.7143 149.431 57.8636C149.436 58.6685 149.185 59.4542 148.713 60.1061C148.24 60.758 147.572 61.2421 146.806 61.4877C146.039 61.7333 145.214 61.7276 144.451 61.4715C143.688 61.2154 143.027 60.7221 142.563 60.0638C142.1 59.4054 141.86 58.6163 141.876 57.8116C141.893 57.0068 142.167 56.2284 142.657 55.59C143.147 54.9515 143.828 54.4863 144.602 54.2622C145.375 54.0381 146.199 54.0668 146.955 54.3441L145.875 54.7039C145.733 54.7511 145.616 54.8527 145.549 54.9862C145.483 55.1197 145.472 55.2743 145.519 55.4159C145.566 55.5574 145.668 55.6744 145.802 55.7411C145.935 55.8078 146.09 55.8188 146.231 55.7715L148.482 55.0212C148.558 54.9957 148.629 54.9541 148.687 54.8991C148.746 54.8442 148.793 54.7772 148.824 54.7027C148.855 54.6282 148.869 54.548 148.866 54.4674C148.863 54.3868 148.843 54.3078 148.807 54.2357L147.682 51.985C147.615 51.8514 147.498 51.7499 147.356 51.7027C147.215 51.6555 147.06 51.6665 146.927 51.7332C146.793 51.8 146.692 51.9171 146.644 52.0587C146.597 52.2003 146.608 52.3549 146.675 52.4884L147.021 53.1809C146.039 52.9002 144.992 52.9354 144.031 53.2816C143.07 53.6278 142.241 54.2675 141.663 55.1102C141.085 55.9529 140.787 56.9559 140.81 57.9776C140.833 58.9992 141.177 59.9877 141.792 60.8033C142.408 61.6189 143.265 62.2204 144.241 62.5226C145.217 62.8248 146.263 62.8126 147.232 62.4876C148.201 62.1626 149.043 61.5413 149.64 60.7115C150.236 59.8817 150.557 58.8854 150.556 57.8636C150.556 57.7143 150.497 57.5712 150.391 57.4657C150.286 57.3601 150.143 57.3009 149.993 57.3009Z" fill="#553597"/>
<path d="M317.325 62.1539L314.155 58.9844C314.825 58.1126 315.138 57.0186 315.031 55.9244C314.923 54.8303 314.404 53.8179 313.578 53.0928C312.751 52.3677 311.68 51.9841 310.581 52.0199C309.482 52.0557 308.438 52.5082 307.661 53.2856C306.883 54.063 306.431 55.1071 306.395 56.2059C306.359 57.3047 306.743 58.376 307.468 59.2024C308.193 60.0288 309.205 60.5483 310.3 60.6556C311.394 60.7629 312.488 60.4499 313.36 59.7801L316.529 62.9499C316.634 63.0555 316.778 63.1148 316.927 63.1148C317.076 63.1148 317.22 63.0555 317.325 62.9499C317.43 62.8443 317.49 62.7012 317.49 62.5519C317.49 62.4026 317.43 62.2595 317.325 62.1539ZM307.549 56.3623C307.549 55.7317 307.736 55.1152 308.086 54.5908C308.436 54.0665 308.935 53.6578 309.517 53.4164C310.1 53.1751 310.741 53.1119 311.359 53.235C311.978 53.358 312.546 53.6617 312.992 54.1076C313.438 54.5536 313.742 55.1217 313.865 55.7402C313.988 56.3588 313.925 56.9999 313.683 57.5825C313.442 58.1652 313.033 58.6631 312.509 59.0135C311.984 59.3639 311.368 59.5509 310.737 59.5509C309.892 59.5499 309.082 59.2136 308.484 58.6159C307.886 58.0181 307.55 57.2077 307.549 56.3623Z" fill="#553597"/>
</g>
<g clip-path="url(#clip2_100_21310)">
<path d="M291.104 181.407H234.176C229.935 181.407 226.496 177.959 226.496 173.707V97.1089C226.496 92.8564 229.935 89.4092 234.176 89.4092H291.104C295.346 89.4092 298.784 92.8564 298.784 97.1089V173.707C298.784 177.959 295.346 181.407 291.104 181.407Z" fill="white"/>
<path d="M291.104 181.888H234.176C229.676 181.888 226.016 178.218 226.016 173.707V97.1086C226.016 92.5977 229.676 88.9277 234.176 88.9277H291.104C295.603 88.9277 299.264 92.5977 299.264 97.1086V173.707C299.264 178.218 295.603 181.888 291.104 181.888ZM234.176 89.8902C230.206 89.8902 226.976 93.1284 226.976 97.1086V173.707C226.976 177.687 230.206 180.925 234.176 180.925H291.104C295.074 180.925 298.304 177.687 298.304 173.707V97.1086C298.304 93.1284 295.074 89.8902 291.104 89.8902H234.176Z" fill="#553597"/>
<path d="M262.64 135.45C272.647 135.45 280.76 127.317 280.76 117.284C280.76 107.251 272.647 99.1172 262.64 99.1172C252.632 99.1172 244.52 107.251 244.52 117.284C244.52 127.317 252.632 135.45 262.64 135.45Z" fill="#EDE3FF"/>
<path d="M262.639 135.931C252.383 135.931 244.039 127.566 244.039 117.283C244.039 107.001 252.383 98.6357 262.639 98.6357C272.895 98.6357 281.239 107.001 281.239 117.283C281.239 127.566 272.895 135.931 262.639 135.931ZM262.639 99.5982C252.912 99.5982 244.999 107.532 244.999 117.283C244.999 127.035 252.912 134.969 262.639 134.969C272.366 134.969 280.279 127.035 280.279 117.283C280.279 107.532 272.366 99.5982 262.639 99.5982Z" fill="#553597"/>
<path d="M262.615 116.696C265.025 116.696 266.978 114.737 266.978 112.321C266.978 109.906 265.025 107.947 262.615 107.947C260.205 107.947 258.252 109.906 258.252 112.321C258.252 114.737 260.205 116.696 262.615 116.696Z" fill="white"/>
<path d="M262.614 117.178C259.944 117.178 257.771 114.999 257.771 112.322C257.771 109.645 259.944 107.467 262.614 107.467C265.285 107.467 267.458 109.645 267.458 112.322C267.458 114.999 265.285 117.178 262.614 117.178ZM262.614 108.429C260.473 108.429 258.731 110.176 258.731 112.322C258.731 114.469 260.473 116.215 262.614 116.215C264.756 116.215 266.498 114.469 266.498 112.322C266.498 110.176 264.756 108.429 262.614 108.429Z" fill="#553597"/>
<path d="M262.616 116.696C258.551 116.696 255.256 120 255.256 124.075V125.369H269.976V124.075C269.976 120 266.681 116.696 262.616 116.696Z" fill="white"/>
<path d="M269.976 125.85H255.255C254.99 125.85 254.775 125.634 254.775 125.368V124.075C254.775 119.741 258.292 116.215 262.616 116.215C266.939 116.215 270.456 119.741 270.456 124.075V125.368C270.456 125.634 270.241 125.85 269.976 125.85ZM255.735 124.887H269.496V124.075C269.496 120.272 266.409 117.177 262.616 117.177C258.822 117.177 255.735 120.272 255.735 124.075V124.887Z" fill="#553597"/>
<path d="M288.92 144.906H236.312C236.047 144.906 235.832 144.69 235.832 144.425C235.832 144.159 236.047 143.943 236.312 143.943H288.92C289.185 143.943 289.4 144.159 289.4 144.425C289.4 144.69 289.185 144.906 288.92 144.906Z" fill="#553597"/>
<path d="M288.92 154.146H236.312C236.047 154.146 235.832 153.931 235.832 153.665C235.832 153.399 236.047 153.184 236.312 153.184H288.92C289.185 153.184 289.4 153.399 289.4 153.665C289.4 153.931 289.185 154.146 288.92 154.146Z" fill="#553597"/>
<path d="M288.92 163.385H236.312C236.047 163.385 235.832 163.17 235.832 162.904C235.832 162.638 236.047 162.423 236.312 162.423H288.92C289.185 162.423 289.4 162.638 289.4 162.904C289.4 163.17 289.185 163.385 288.92 163.385Z" fill="#553597"/>
<path d="M288.92 172.625H236.312C236.047 172.625 235.832 172.409 235.832 172.143C235.832 171.878 236.047 171.662 236.312 171.662H288.92C289.185 171.662 289.4 171.878 289.4 172.143C289.4 172.409 289.185 172.625 288.92 172.625Z" fill="#553597"/>
</g>
<path d="M202.269 108.976H128.244C127.871 108.976 127.568 108.775 127.568 108.528C127.568 108.281 127.871 108.08 128.244 108.08H202.269C202.642 108.08 202.944 108.281 202.944 108.528C202.944 108.775 202.642 108.976 202.269 108.976Z" fill="#553597"/>
<path d="M202.269 101.248H128.244C127.871 101.248 127.568 100.094 127.568 98.6717C127.568 97.2492 127.871 96.0957 128.244 96.0957H202.269C202.642 96.0957 202.944 97.2492 202.944 98.6717C202.944 100.094 202.642 101.248 202.269 101.248Z" fill="#553597"/>
<path d="M202.269 118.272H128.244C127.871 118.272 127.568 118.046 127.568 117.768C127.568 117.489 127.871 117.264 128.244 117.264H202.269C202.642 117.264 202.944 117.489 202.944 117.768C202.944 118.046 202.642 118.272 202.269 118.272Z" fill="#553597"/>
<path d="M202.269 127.456H128.244C127.871 127.456 127.568 127.255 127.568 127.008C127.568 126.76 127.871 126.56 128.244 126.56H202.269C202.642 126.56 202.944 126.76 202.944 127.008C202.944 127.255 202.642 127.456 202.269 127.456Z" fill="#553597"/>
<path d="M202.269 136.752H128.244C127.871 136.752 127.568 136.526 127.568 136.248C127.568 135.97 127.871 135.744 128.244 135.744H202.269C202.642 135.744 202.944 135.97 202.944 136.248C202.944 136.526 202.642 136.752 202.269 136.752Z" fill="#553597"/>
<path d="M202.269 144.836H128.244C127.871 144.836 127.568 144.62 127.568 144.354C127.568 144.089 127.871 143.873 128.244 143.873H202.269C202.642 143.873 202.944 144.089 202.944 144.354C202.944 144.62 202.642 144.836 202.269 144.836Z" fill="#553597"/>
<path d="M202.269 154.075H128.244C127.871 154.075 127.568 153.859 127.568 153.594C127.568 153.328 127.871 153.112 128.244 153.112H202.269C202.642 153.112 202.944 153.328 202.944 153.594C202.944 153.859 202.642 154.075 202.269 154.075Z" fill="#553597"/>
<path d="M202.269 163.315H128.244C127.871 163.315 127.568 163.1 127.568 162.834C127.568 162.568 127.871 162.353 128.244 162.353H202.269C202.642 162.353 202.944 162.568 202.944 162.834C202.944 163.1 202.642 163.315 202.269 163.315Z" fill="#553597"/>
<path d="M202.269 172.554H128.244C127.871 172.554 127.568 172.339 127.568 172.073C127.568 171.807 127.871 171.592 128.244 171.592H202.269C202.642 171.592 202.944 171.807 202.944 172.073C202.944 172.339 202.642 172.554 202.269 172.554Z" fill="#553597"/>
</g>
<g clip-path="url(#clip3_100_21310)">
<mask id="mask2_100_21310" style="mask-type:luminance" maskUnits="userSpaceOnUse" x="9" y="104" width="188" height="196">
<path d="M9.4082 104.384H196.596V299.002H9.4082V104.384Z" fill="white"/>
</mask>
<g mask="url(#mask2_100_21310)">
<path d="M100.993 223.245C107.628 222.898 127.418 225.495 127.418 225.495C127.418 225.495 153.267 230.861 161.864 235.592C170.461 240.323 172.826 250.882 169.826 260.056C166.826 269.23 152.575 273.672 140.573 272.346C128.572 271.019 121.879 264.21 121.879 264.21L90.5496 244.707L76.6445 228.033C76.6445 227.976 94.8192 223.591 100.993 223.245Z" fill="#EDE3FF"/>
<path d="M161.863 235.65C157.016 232.996 146.746 230.112 138.668 228.092C138.407 228.42 138.265 228.827 138.264 229.246C138.091 232.708 142.765 233.746 145.303 234.208C147.842 234.727 150.381 235.247 152.919 235.881C154.652 236.259 156.35 236.78 157.997 237.439C164.978 240.324 170.113 247.421 170.635 254.981C170.764 254.902 170.881 254.805 170.981 254.692C171.614 247.075 168.729 239.458 161.863 235.65Z" fill="white"/>
<path d="M74.7391 239.054C74.7391 239.054 72.5466 248.92 66.604 250.71C60.6613 252.501 40.5247 241.594 40.5247 241.594C40.5247 241.594 34.5239 250.595 37.1204 260.634C39.717 270.614 47.6232 270.558 47.6232 270.558C47.6232 270.558 43.9289 279.731 43.813 289.251L71.3345 292.482C71.3345 292.482 107.8 298.254 118.589 298.425C129.321 298.598 139.648 296.578 141.264 281.058C142.88 265.537 127.128 253.074 116.512 246.67C105.953 240.323 104.222 240.727 104.222 240.727C104.222 240.727 94.76 242.804 88.8747 240.727L88.067 242.747C88.1251 242.862 78.2011 240.15 74.7391 239.054Z" fill="#EDE3FF"/>
<path d="M37.9282 239.919C37.9282 239.919 46.5828 245.632 53.1602 248.344C59.68 251.055 64.4691 251.805 68.7402 249.786C73.0098 247.824 74.6828 238.997 74.6828 238.997L81.4354 240.67C81.4354 240.67 84.3779 229.419 88.013 227.919L79.1226 222.724C79.1226 222.724 83.0459 207.954 83.9693 196.991C84.8347 186.028 85.4115 167.104 81.3151 157.411C81.3151 157.411 61.871 155.506 45.1968 169.584C28.5228 183.72 26.2719 193.356 25.5219 198.549C24.772 203.742 25.4065 216.897 42.3117 226.59L37.9282 239.919Z" fill="#EDE3FF"/>
<path d="M98.9141 164.221C98.9141 164.221 108.78 169.241 116.108 177.03C123.435 184.763 131.455 202.013 139.187 199.82C142.764 198.782 146.457 196.416 156.439 189.435C156.439 189.435 161.631 199.416 167.286 202.013C167.286 202.013 155.342 218.745 145.765 223.707C136.245 228.669 120.551 224.515 120.551 224.515C120.551 224.515 105.492 218.111 102.261 213.264C102.261 213.264 101.222 189.146 100.529 182.165C99.8372 175.068 98.9141 164.221 98.9141 164.221Z" fill="#EDE3FF"/>
<path d="M156.844 189.377L165.383 183.261C165.383 183.261 170.576 192.954 172.653 194.512L167.287 201.897C167.287 201.955 159.151 197.282 156.844 189.377Z" fill="white"/>
<path d="M165.383 183.26L173.116 176.856L177.847 173.798L182.925 165.432C183.331 165.493 183.714 165.658 184.037 165.911C184.361 166.163 184.613 166.495 184.771 166.874L187.367 164.162C187.367 164.162 188.694 164.624 187.771 166.643L191.925 164.97C191.925 164.97 192.791 166.932 191.925 167.739L195.791 166.874C195.791 166.874 196.31 168.547 192.618 170.336C188.983 172.125 183.617 175.009 185.463 179.51C187.309 184.01 194.984 182.049 194.984 185.049L189.906 185.799L179.636 187.53L172.654 194.511C172.653 194.569 166.133 187.01 165.383 183.26Z" fill="#EDE3FF"/>
<path d="M88.0669 227.977L93.2596 230.169C93.2596 230.169 89.0477 237.208 88.4709 242.286L81.4316 240.786C81.4894 240.786 84.0859 231.496 88.0669 227.977Z" fill="white"/>
<path d="M93.2609 230.169C93.2609 230.169 99.723 230.169 104.166 232.65C108.609 235.131 112.301 240.612 113.051 244.709L104.281 240.786C99.2115 241.757 94.0033 241.757 88.9336 240.786C88.9336 240.786 91.2415 233.227 93.2609 230.169Z" fill="#EDE3FF"/>
<path d="M100.992 222.669C100.992 222.669 102.492 205.127 101.396 192.608C100.299 180.09 99.5472 170.222 99.5472 170.222L95.7393 172.356L92.741 164.105L89.2791 172.068L83.7401 167.856C83.7401 167.856 85.4709 187.185 83.9133 197.801C82.3556 208.417 78.7783 222.208 79.1819 222.784C79.5856 223.36 84.1441 226.015 84.1441 226.015L100.992 222.669Z" fill="white"/>
<path d="M92.7422 164.047L98.5694 161.394L99.5502 170.221L95.8001 172.356L92.7422 164.047Z" fill="white"/>
<path d="M92.7416 164.047L89.3374 172.067L83.7984 167.855L81.375 157.527L84.087 153.893L92.7416 164.047Z" fill="white"/>
<path d="M98.5678 161.393L100.529 155.508C100.529 155.508 106.992 157.643 109.992 151.123C109.992 151.123 113.627 151.296 113.8 149.162C113.915 147.027 112.531 146.68 112.531 146.68C112.531 146.68 114.089 141.2 113.8 136.411C113.569 131.62 100.876 128.102 100.76 128.16C100.587 128.273 96.5484 134.968 96.5484 134.968L88.2978 134.507C88.2978 134.507 83.6242 139.295 89.9132 142.584L84.0859 153.835L92.7406 164.047L98.5678 161.393Z" fill="#EDE3FF"/>
<path d="M47.6214 270.557L44.5637 281.982L32.7934 279.905L30.4277 273.443L37.9284 270.269L43.5251 269.115L47.6214 270.557Z" fill="#EDE3FF"/>
<path d="M44.6828 233.227C44.5096 234.554 44.3942 235.881 44.6828 237.092C44.7527 237.389 44.8493 237.679 44.9713 237.958C45.1039 238.22 45.2582 238.471 45.4327 238.708C45.8046 239.16 46.2795 239.516 46.8176 239.747C47.962 240.18 49.214 240.24 50.3948 239.919C51.6763 239.571 52.9299 239.128 54.1449 238.593C55.4543 237.986 56.8607 237.614 58.2991 237.496C58.6624 237.439 59.0325 237.439 59.3954 237.496C59.7866 237.497 60.1755 237.556 60.5493 237.67C61.331 237.848 62.0613 238.203 62.6841 238.708C63.2756 239.199 63.7823 239.784 64.1844 240.439C64.5862 241.072 64.8608 241.778 64.9921 242.516C65.1543 243.216 65.232 243.932 65.223 244.651C65.223 245.366 65.1649 246.08 65.0498 246.786C65.0125 246.907 64.9351 247.013 64.831 247.087C64.7265 247.16 64.6005 247.196 64.473 247.19C64.3549 247.165 64.2489 247.1 64.175 247.005C64.101 246.909 64.0633 246.791 64.069 246.67V244.708C64.015 244.083 63.8988 243.465 63.7227 242.862C63.5571 242.27 63.3043 241.706 62.9727 241.189C62.6453 240.699 62.2352 240.269 61.761 239.919C61.3008 239.574 60.7685 239.337 60.2034 239.227C59.919 239.16 59.6281 239.122 59.3358 239.112H58.4142C57.7906 239.177 57.173 239.292 56.568 239.458C55.9912 239.631 55.3563 239.862 54.7217 240.093C53.4523 240.554 52.1829 241.131 50.7404 241.42C50.0206 241.575 49.2804 241.614 48.5478 241.535C47.7866 241.486 47.042 241.291 46.3554 240.958C45.635 240.629 45.0024 240.135 44.5092 239.516C44.295 239.182 44.1024 238.835 43.9324 238.477C43.8094 238.12 43.713 237.753 43.6438 237.381C43.5381 236.655 43.5188 235.919 43.5861 235.188C43.6438 234.496 43.7593 233.804 43.8747 233.111C43.8994 232.998 43.9674 232.898 44.0642 232.833C44.1611 232.769 44.2793 232.744 44.3938 232.765C44.4916 232.791 44.576 232.853 44.6296 232.939C44.6833 233.025 44.7025 233.128 44.6828 233.227Z" fill="white"/>
<path d="M116.571 246.728C116.109 246.439 115.647 246.151 115.186 245.92C111.897 244.132 109.935 243.612 109.935 243.612C109.935 243.612 109.531 248.401 117.263 253.305C124.994 258.21 136.591 265.133 137.572 275.577C139.015 291.27 124.822 298.252 124.822 298.252C133.072 297.329 139.996 293.579 141.323 281.116C142.938 265.595 127.187 253.132 116.571 246.728Z" fill="white"/>
<path d="M138.785 202.82C139.535 202.589 140.343 202.3 141.15 202.127C141.57 202.06 141.994 202.022 142.42 202.012C142.854 202.004 143.285 202.083 143.689 202.243C144.114 202.387 144.521 202.581 144.901 202.82C145.28 203.095 145.595 203.449 145.824 203.858C146.053 204.284 146.172 204.76 146.17 205.243C146.166 205.668 146.127 206.093 146.055 206.512C145.973 206.893 145.915 207.278 145.882 207.666C145.855 207.979 145.895 208.293 145.997 208.589C146.107 208.843 146.274 209.068 146.484 209.248C146.693 209.428 146.942 209.558 147.209 209.628C147.765 209.761 148.349 209.721 148.882 209.513C149.464 209.263 150.008 208.933 150.497 208.532C150.977 208.089 151.361 207.555 151.629 206.96C151.897 206.365 152.041 205.723 152.055 205.07C152.055 204.378 151.94 203.628 151.882 202.762C151.775 201.805 151.893 200.836 152.228 199.933C152.427 199.424 152.743 198.97 153.151 198.606C153.567 198.279 154.035 198.025 154.536 197.856C155.402 197.63 156.302 197.572 157.19 197.683C157.594 197.683 157.998 197.741 158.344 197.741H159.44C159.778 197.735 160.111 197.66 160.418 197.521C160.726 197.383 161.002 197.182 161.229 196.933C161.303 196.856 161.401 196.808 161.507 196.797C161.613 196.787 161.719 196.814 161.806 196.875C161.844 196.905 161.876 196.943 161.9 196.985C161.924 197.028 161.939 197.074 161.944 197.123C161.95 197.171 161.946 197.22 161.932 197.267C161.918 197.314 161.895 197.357 161.864 197.395C161.615 197.807 161.28 198.162 160.883 198.433C160.481 198.655 160.056 198.829 159.613 198.952C159.2 199.067 158.773 199.125 158.344 199.125C157.942 199.172 157.537 199.191 157.132 199.183C156.425 199.171 155.721 199.288 155.055 199.529C154.785 199.614 154.545 199.774 154.363 199.991C154.183 200.192 154.045 200.428 153.959 200.683C153.888 200.967 153.85 201.257 153.844 201.549C153.837 201.896 153.856 202.243 153.901 202.587C153.959 203.337 154.19 204.145 154.248 205.068C154.274 206.032 154.092 206.99 153.713 207.876C153.335 208.762 152.769 209.557 152.055 210.203C151.33 210.871 150.461 211.364 149.516 211.646C148.496 211.925 147.409 211.822 146.458 211.357C145.994 211.114 145.582 210.781 145.247 210.377C144.898 209.969 144.677 209.467 144.612 208.934C144.542 208.454 144.562 207.965 144.67 207.492C144.785 207.088 144.901 206.626 145.016 206.28C145.277 205.632 145.277 204.909 145.016 204.26C144.682 203.65 144.123 203.195 143.458 202.991C143.124 202.878 142.773 202.82 142.42 202.818C142.053 202.809 141.687 202.828 141.323 202.876C140.558 203.054 139.806 203.285 139.073 203.568C138.842 203.626 138.612 203.568 138.554 203.337C138.496 203.106 138.554 202.876 138.785 202.818V202.82Z" fill="white"/>
<path d="M118.417 220.418C118.242 219.879 118.183 219.309 118.243 218.745C118.309 218.21 118.445 217.686 118.647 217.187C118.872 216.688 119.164 216.223 119.513 215.802C119.854 215.393 120.241 215.025 120.667 214.706C121.526 214.069 122.509 213.617 123.552 213.379C124.551 213.113 125.576 212.958 126.609 212.917C127.129 212.86 127.648 212.86 128.167 212.802C128.687 212.802 129.206 212.744 129.725 212.744C130.851 212.686 131.975 212.884 133.014 213.321C133.592 213.571 134.119 213.923 134.572 214.36C135.056 214.82 135.413 215.395 135.61 216.033C135.78 216.634 135.839 217.26 135.784 217.881C135.784 218.458 135.726 218.92 135.726 219.381C135.713 219.748 135.733 220.114 135.784 220.478C135.784 220.535 135.841 220.593 135.841 220.651C135.841 220.708 135.899 220.766 135.957 220.824C136.022 220.947 136.123 221.047 136.245 221.113C136.504 221.304 136.798 221.441 137.111 221.516C137.474 221.574 137.844 221.574 138.207 221.516C139.077 221.337 139.914 221.025 140.688 220.591C141.547 220.155 142.359 219.633 143.112 219.034C143.92 218.456 144.728 217.822 145.535 217.245C145.939 216.956 146.401 216.668 146.805 216.379C147.209 216.091 147.67 215.802 148.132 215.514C148.62 215.233 149.144 215.02 149.689 214.879C150.268 214.696 150.881 214.656 151.478 214.764C152.077 214.857 152.636 215.117 153.094 215.514C153.59 215.895 153.921 216.453 154.017 217.072C154.074 217.302 153.901 217.476 153.671 217.533C153.44 217.533 153.267 217.476 153.209 217.245C152.978 216.495 152.113 216.033 151.305 215.976C150.89 215.968 150.477 216.046 150.093 216.206C149.667 216.372 149.261 216.585 148.882 216.841C148.478 217.072 148.132 217.418 147.728 217.706C147.324 217.995 146.978 218.341 146.574 218.63C145.824 219.264 145.016 219.957 144.266 220.591C143.447 221.252 142.58 221.85 141.67 222.38C141.208 222.668 140.689 222.899 140.227 223.13C139.71 223.363 139.168 223.537 138.611 223.649C138.005 223.784 137.379 223.804 136.765 223.707C136.254 223.643 135.761 223.477 135.315 223.219C134.87 222.962 134.48 222.617 134.169 222.207C134.065 222.058 133.969 221.904 133.88 221.745C133.823 221.572 133.707 221.399 133.65 221.226C133.466 220.609 133.388 219.965 133.419 219.322C133.424 218.8 133.463 218.28 133.534 217.764C133.578 217.379 133.558 216.989 133.476 216.61C133.428 216.271 133.288 215.953 133.073 215.687C132.84 215.378 132.545 215.122 132.205 214.937C130.821 214.069 128.686 214.014 126.724 213.956C125.754 213.935 124.786 214.032 123.839 214.245C123.37 214.353 122.908 214.487 122.454 214.649C122.002 214.822 121.576 215.055 121.185 215.341C120.425 215.898 119.811 216.63 119.396 217.476C118.996 218.304 118.935 219.256 119.223 220.13C119.254 220.23 119.247 220.337 119.205 220.433C119.162 220.528 119.087 220.605 118.993 220.649C118.82 220.707 118.473 220.649 118.415 220.418L118.417 220.418Z" fill="white"/>
<path d="M116.225 179.683C116.818 181.11 117.131 182.638 117.148 184.183V185.914L117.09 186.491L117.032 187.068L116.974 187.357L116.917 187.645L116.801 188.222L116.629 188.799C116.174 190.284 115.451 191.673 114.494 192.896C113.57 194.108 112.417 195.146 111.493 196.242C110.57 197.338 109.813 198.563 109.243 199.877C108.961 200.532 108.73 201.207 108.551 201.897C108.384 202.56 108.269 203.235 108.204 203.916C108.135 204.57 108.155 205.229 108.262 205.878C108.305 206.193 108.382 206.503 108.493 206.801C108.608 207.09 108.724 207.32 108.839 207.609C109.125 208.087 109.547 208.468 110.051 208.705C110.588 208.938 111.149 209.113 111.724 209.224C112.322 209.305 112.93 209.266 113.513 209.109C113.769 209.053 114.007 208.934 114.205 208.763C114.436 208.638 114.634 208.46 114.782 208.243C115.138 207.789 115.376 207.254 115.475 206.685C115.541 206.382 115.58 206.073 115.59 205.762V204.782C115.532 203.397 115.244 201.897 115.244 200.281C115.249 199.409 115.426 198.547 115.763 197.742C116.107 196.886 116.663 196.132 117.378 195.55C117.761 195.252 118.19 195.018 118.648 194.857C119.092 194.697 119.561 194.619 120.032 194.627C120.918 194.624 121.791 194.842 122.571 195.262C123.323 195.67 123.988 196.218 124.533 196.877C125.046 197.493 125.509 198.149 125.918 198.839L126.437 199.877C126.61 200.223 126.783 200.57 126.898 200.858C127.173 201.451 127.565 201.981 128.052 202.415C128.802 203.108 131.11 203.165 130.822 202.415V202.358C130.764 202.127 130.822 201.896 131.053 201.839C131.147 201.809 131.247 201.81 131.34 201.841C131.434 201.872 131.515 201.932 131.572 202.012C131.651 202.14 131.698 202.287 131.708 202.437C131.718 202.588 131.691 202.739 131.63 202.877C131.568 203.158 131.403 203.405 131.168 203.569C130.771 203.868 130.279 204.012 129.783 203.975C129.36 203.983 128.936 203.964 128.514 203.917C128.079 203.83 127.666 203.653 127.303 203.398C126.627 202.901 126.057 202.273 125.629 201.552C125.399 201.205 125.225 200.859 125.052 200.571C124.895 200.243 124.701 199.933 124.475 199.648C124.099 199.074 123.674 198.534 123.206 198.032C122.765 197.566 122.236 197.193 121.648 196.936C121.106 196.689 120.513 196.57 119.917 196.59C119.364 196.596 118.832 196.801 118.417 197.167C117.609 197.859 117.205 199.186 117.205 200.455C117.205 201.782 117.552 203.225 117.609 204.84C117.638 205.263 117.638 205.687 117.609 206.11C117.609 206.539 117.55 206.966 117.436 207.379C117.255 208.276 116.881 209.122 116.34 209.86C115.737 210.63 114.911 211.194 113.974 211.476C113.536 211.576 113.093 211.653 112.647 211.707H111.32C110.433 211.626 109.57 211.371 108.782 210.956C107.979 210.471 107.305 209.798 106.82 208.995C106.598 208.593 106.424 208.167 106.3 207.725C106.196 207.308 106.119 206.884 106.07 206.456C106.02 205.627 106.059 204.796 106.185 203.975C106.336 203.19 106.548 202.419 106.82 201.667C107.068 200.931 107.377 200.217 107.743 199.532C108.48 198.169 109.392 196.909 110.455 195.782C111.493 194.685 112.647 193.705 113.57 192.608L113.917 192.205C114.032 192.032 114.147 191.916 114.205 191.801L114.494 191.339C114.559 191.18 114.636 191.025 114.724 190.878L114.84 190.647C114.897 190.589 114.897 190.474 114.955 190.416L115.186 189.897L115.359 189.377L115.417 189.146C115.417 189.089 115.475 188.974 115.475 188.916L115.648 188.396L115.763 187.877L115.82 187.647L115.878 187.416L115.936 186.897L115.994 186.377V184.185L115.936 183.666L115.878 183.146L115.82 182.915L115.763 182.685C115.619 181.985 115.387 181.306 115.071 180.665C115.013 180.434 115.071 180.204 115.301 180.146C115.532 180.088 116.109 179.453 116.225 179.684V179.683Z" fill="white"/>
<path d="M31.3507 217.938C35.4441 214.7 40.2505 212.485 45.3712 211.475L45.8329 211.36L46.2947 211.302C46.6406 211.245 46.9292 211.187 47.2753 211.129C47.6217 211.071 47.9099 211.071 48.2562 211.014L48.7752 210.956H49.2947C50.6509 210.87 52.012 210.987 53.3334 211.302C54.0193 211.486 54.6787 211.758 55.2951 212.11C55.4682 212.225 55.5837 212.283 55.7568 212.399L56.1605 212.745L56.5645 213.148C56.7376 213.322 56.7954 213.437 56.9108 213.552C57.0274 213.692 57.1243 213.848 57.199 214.014C57.2567 214.187 57.3722 214.36 57.4299 214.533L57.5453 214.764C57.5913 214.832 57.6117 214.914 57.603 214.995L57.6607 215.226L57.7185 215.456C57.872 216.157 57.9109 216.878 57.8339 217.591C57.6574 218.966 57.2269 220.296 56.5645 221.515L56.1027 222.38C55.9345 222.631 55.7987 222.902 55.6991 223.188C55.4679 223.61 55.3864 224.098 55.4682 224.572C55.5097 224.742 55.5886 224.899 55.6991 225.034C55.8432 225.175 56.0224 225.275 56.2182 225.322C56.7607 225.484 57.3322 225.524 57.8916 225.438C59.161 225.438 60.4878 225.438 61.7572 225.496C63.0266 225.553 64.3537 225.669 65.6231 225.784C66.2577 225.842 66.8926 225.957 67.5271 226.015C68.2536 226.051 68.9632 226.248 69.6041 226.592C69.972 226.757 70.2903 227.016 70.5273 227.342C70.78 227.664 70.9577 228.039 71.0467 228.438C71.241 229.182 71.2006 229.968 70.9313 230.688C70.6702 231.342 70.2994 231.947 69.835 232.477C69.3831 232.968 68.9014 233.43 68.3925 233.862C68.3445 233.905 68.2876 233.939 68.2261 233.96C68.1642 233.981 68.099 233.989 68.0341 233.983C67.9692 233.978 67.9058 233.959 67.8485 233.928C67.7911 233.898 67.7406 233.856 67.7002 233.804C67.6165 233.708 67.5701 233.585 67.5701 233.458C67.5701 233.33 67.6165 233.207 67.7002 233.112C68.1616 232.65 68.5656 232.189 68.9696 231.727C69.3378 231.287 69.6124 230.776 69.7773 230.227C69.9508 229.722 69.9508 229.174 69.7773 228.669C69.7196 228.447 69.5992 228.247 69.431 228.092C69.2631 227.925 69.0681 227.789 68.8542 227.688C68.3404 227.479 67.7934 227.362 67.2385 227.342C66.6617 227.284 65.9691 227.227 65.3346 227.169C64.0651 227.054 62.7957 226.996 61.5263 226.938C60.2569 226.88 58.9879 226.88 57.7185 226.88C57.0025 226.933 56.2823 226.875 55.5837 226.707C55.1468 226.578 54.7496 226.34 54.4297 226.015C54.1083 225.679 53.8884 225.259 53.7952 224.803C53.7375 224.382 53.7375 223.955 53.7952 223.534C53.8669 223.175 53.983 222.826 54.1411 222.495C54.3143 222.149 54.4297 221.861 54.6028 221.572L55.0642 220.707C55.6599 219.696 56.0522 218.579 56.2182 217.418C56.3574 216.323 56.0907 215.215 55.4682 214.302C55.4105 214.187 55.2951 214.072 55.2374 213.956L54.9492 213.668L54.6028 213.437C54.4874 213.379 54.372 213.264 54.2565 213.206C53.7654 212.917 53.2429 212.685 52.6989 212.514C52.1293 212.365 51.551 212.249 50.9678 212.167C50.391 212.11 49.7561 212.11 49.1216 212.11C48.5025 212.113 47.8846 212.171 47.2753 212.283C46.9648 212.293 46.6556 212.331 46.352 212.398L45.8906 212.456L45.4289 212.514C42.9545 212.989 40.5371 213.724 38.2168 214.706C35.903 215.694 33.7145 216.953 31.697 218.457C31.6501 218.497 31.5949 218.526 31.5352 218.542C31.4755 218.558 31.413 218.561 31.3522 218.55C31.2914 218.539 31.2338 218.515 31.1837 218.478C31.1336 218.442 31.0922 218.395 31.0625 218.341C31.1198 218.341 31.1776 218.053 31.3507 217.938Z" fill="white"/>
<path d="M65.566 161.855C66.2583 161.682 66.9505 161.451 67.6431 161.22C67.9947 161.088 68.3644 161.01 68.7394 160.989C69.1653 160.913 69.6036 160.952 70.0088 161.105C70.2302 161.163 70.4302 161.283 70.5856 161.451C70.7701 161.616 70.9259 161.812 71.0473 162.028C71.245 162.44 71.3057 162.905 71.2205 163.355C71.2156 163.552 71.1767 163.748 71.105 163.932C71.0473 164.105 70.9896 164.336 70.9319 164.509L70.4124 165.547C70.0231 166.204 69.5991 166.839 69.143 167.451C68.7394 168.028 68.3354 168.663 67.9894 169.24C67.662 169.808 67.3911 170.407 67.1814 171.029C66.9554 171.608 66.7819 172.207 66.6623 172.817C66.594 173.375 66.6133 173.939 66.72 174.491C66.8404 174.995 67.1003 175.454 67.47 175.818C68.1045 176.452 69.547 176.568 70.7587 176.452C72.0791 176.275 73.3526 175.844 74.5093 175.183C75.1121 174.838 75.6904 174.453 76.24 174.029C76.5347 173.83 76.8059 173.597 77.0477 173.337C77.1696 173.207 77.305 173.091 77.4517 172.99L77.6249 172.817C77.5921 172.847 77.5713 172.888 77.5672 172.933V172.99C77.5743 173.051 77.5939 173.11 77.6249 173.163L77.7403 173.279C77.8078 173.325 77.8897 173.345 77.9708 173.337H78.0862C78.0938 173.337 78.1013 173.335 78.1085 173.332C78.1157 173.33 78.1221 173.325 78.1274 173.32C78.1326 173.315 78.1372 173.308 78.1398 173.301C78.1428 173.294 78.144 173.286 78.144 173.279L78.2017 173.221C78.1251 173.298 78.0214 173.341 77.9131 173.341C77.8052 173.341 77.7015 173.298 77.6249 173.221C77.5483 173.145 77.5053 173.041 77.5053 172.933C77.5053 172.825 77.5483 172.721 77.6249 172.644L77.6826 172.587L77.7403 172.529H77.8554C77.955 172.52 78.0553 172.54 78.144 172.587L78.2594 172.7C78.2877 172.8 78.3262 172.896 78.3748 172.988V173.219C78.3605 173.306 78.3201 173.386 78.2594 173.45L78.0862 173.681C77.9855 173.827 77.8693 173.962 77.7403 174.085C77.5094 174.373 77.2209 174.662 76.99 174.95C76.4528 175.494 75.8741 175.996 75.2592 176.45C74.6285 176.921 73.9521 177.327 73.2398 177.662C72.5118 178.013 71.7328 178.247 70.9319 178.354C70.1337 178.508 69.3177 178.547 68.5085 178.47C68.0747 178.429 67.648 178.332 67.2391 178.181C66.7868 178.008 66.3601 177.775 65.9697 177.489C65.2484 176.877 64.7093 176.079 64.4121 175.181C64.154 174.321 64.0948 173.413 64.2389 172.527C64.366 171.705 64.6188 170.907 64.9889 170.161C65.3291 169.444 65.7765 168.783 66.316 168.2C66.8355 167.623 67.3545 167.103 67.874 166.584C68.3829 166.109 68.8465 165.587 69.2585 165.026L69.7779 164.159C69.8356 163.986 69.8934 163.871 69.9511 163.697C70.0163 163.551 70.0556 163.395 70.0665 163.236C70.1359 162.967 70.1159 162.684 70.0088 162.428C69.959 162.303 69.8809 162.191 69.7809 162.101C69.681 162.011 69.5614 161.945 69.4316 161.908C69.1543 161.811 68.8593 161.772 68.5662 161.795C68.2335 161.845 67.9053 161.922 67.5854 162.026C66.8932 162.257 66.2006 162.43 65.5083 162.718C65.4585 162.739 65.4053 162.75 65.3514 162.75C65.2978 162.749 65.2446 162.738 65.1948 162.717C65.1454 162.696 65.1005 162.666 65.0632 162.627C65.0258 162.588 64.9968 162.542 64.9775 162.492C64.9579 162.442 64.9493 162.388 64.9508 162.334C64.9527 162.28 64.9651 162.228 64.9877 162.179C65.0104 162.13 65.0424 162.086 65.0824 162.05C65.1224 162.014 65.1688 161.986 65.2197 161.968L65.566 161.855Z" fill="white"/>
<path d="M53.1612 164.739C52.0532 165.664 51.012 166.667 50.0455 167.739C49.0979 168.824 48.2118 169.96 47.3913 171.144C46.9878 171.72 46.6415 172.355 46.2378 172.99C46.0647 173.278 45.8915 173.625 45.7183 173.913C45.6606 174.086 45.5452 174.202 45.4875 174.375C45.4298 174.548 45.372 174.663 45.3143 174.836C45.2228 175.135 45.1838 175.448 45.1989 175.76C45.2045 176.008 45.285 176.25 45.4298 176.452C45.4875 176.51 45.6029 176.567 45.6606 176.625C45.7761 176.625 45.8915 176.683 46.0069 176.625C46.3236 176.589 46.6341 176.512 46.93 176.394C48.2571 175.875 49.5265 175.182 50.8532 174.548C52.2607 173.802 53.8198 173.387 55.4114 173.336C55.883 173.333 56.3515 173.411 56.7962 173.567C57.2965 173.752 57.7356 174.071 58.0657 174.49C58.392 174.912 58.6096 175.407 58.7002 175.932C58.7869 176.409 58.7869 176.898 58.7002 177.375C58.6255 177.859 58.4693 178.327 58.2384 178.76L58.0657 179.106C57.9955 179.194 57.937 179.291 57.8925 179.394C57.7194 179.567 57.6039 179.741 57.4308 179.914C56.8294 180.488 56.1497 180.973 55.4114 181.356C54.7192 181.702 54.0266 181.991 53.392 182.279L51.4304 183.203C50.1033 183.779 48.7761 184.414 47.449 185.049C44.7952 186.26 42.141 187.472 39.4871 188.626L38.9676 188.857C38.8032 188.91 38.6477 188.988 38.5063 189.087C38.2177 189.261 37.9291 189.376 37.6386 189.549C37.3838 189.71 37.1516 189.904 36.9483 190.126C36.7771 190.304 36.6227 190.497 36.4869 190.703C36.411 190.885 36.3909 191.086 36.4292 191.28C36.469 191.53 36.5678 191.768 36.7174 191.973C36.8037 192.151 36.9 192.324 37.006 192.492C37.1214 192.723 37.1792 192.896 37.2946 193.127C37.4597 193.549 37.5382 194 37.5255 194.453C37.5204 195.301 37.3021 196.135 36.8906 196.877C36.7007 197.248 36.4684 197.597 36.1983 197.915C35.9245 198.218 35.6357 198.507 35.3329 198.781C34.728 199.259 34.0698 199.665 33.3713 199.992C32.6791 200.339 31.9868 200.57 31.3519 200.858C31.1211 200.915 30.8906 200.858 30.8329 200.627C30.8009 200.527 30.8068 200.419 30.8493 200.324C30.8919 200.228 30.9682 200.151 31.0637 200.108C31.6982 199.762 32.3328 199.473 32.9677 199.127C33.5707 198.79 34.1322 198.383 34.6407 197.915C35.1365 197.488 35.5308 196.956 35.7947 196.358C36.0477 195.796 36.1663 195.184 36.141 194.569C36.1451 194.29 36.0859 194.014 35.9678 193.761L35.7947 193.415C35.737 193.299 35.6215 193.184 35.5061 193.011L35.1602 192.492C35.0322 192.281 34.9533 192.045 34.9293 191.799C34.8214 191.28 34.8614 190.74 35.0447 190.241C35.2255 189.799 35.4789 189.389 35.7947 189.03C36.0833 188.684 36.4296 188.453 36.7178 188.164C37.0509 187.932 37.3977 187.72 37.7563 187.53C37.9295 187.472 38.1026 187.357 38.2758 187.299L38.7949 187.068C41.3914 185.799 44.0457 184.53 46.6415 183.26C47.9685 182.625 49.2956 181.991 50.5646 181.412L52.5263 180.489C53.1608 180.143 53.8534 179.854 54.4302 179.566C54.9919 179.287 55.5155 178.938 55.9882 178.527C56.1033 178.469 56.161 178.354 56.2764 178.238L56.3918 178.065L56.5073 177.892C56.648 177.683 56.7461 177.447 56.7959 177.2C56.9109 176.777 56.8698 176.326 56.6804 175.93C56.6227 175.758 56.4496 175.7 56.2764 175.585C56.0467 175.46 55.7875 175.4 55.5265 175.411C55.2194 175.382 54.9104 175.382 54.6034 175.411C54.274 175.425 53.9462 175.463 53.6225 175.527C52.9352 175.665 52.2599 175.858 51.6032 176.104C50.276 176.565 48.9489 177.2 47.5063 177.662C47.118 177.805 46.7086 177.883 46.2948 177.892C46.0435 177.9 45.7921 177.88 45.5448 177.835C45.2909 177.744 45.0561 177.607 44.8526 177.431C44.6526 177.245 44.5121 177.004 44.4486 176.738C44.3822 176.513 44.3434 176.281 44.3331 176.046C44.3203 175.63 44.3991 175.216 44.564 174.834C44.6259 174.636 44.703 174.443 44.7949 174.257C44.8686 174.073 44.9656 173.898 45.0835 173.738C45.2414 173.41 45.4348 173.1 45.6603 172.815C46.0643 172.18 46.4679 171.545 46.8719 170.969C47.7312 169.765 48.6554 168.609 49.6411 167.507C50.1308 166.94 50.651 166.401 51.1991 165.891C51.7186 165.372 52.2954 164.853 52.8145 164.391C52.8549 164.354 52.9028 164.326 52.9548 164.309C53.0065 164.292 53.0616 164.285 53.1159 164.291C53.1706 164.296 53.223 164.313 53.2706 164.34C53.3181 164.368 53.3596 164.405 53.3917 164.449C53.3339 164.333 53.3339 164.564 53.1608 164.737L53.1612 164.739Z" fill="white"/>
<path d="M77.1049 192.492C75.8472 193.432 74.7049 194.516 73.7007 195.723C73.4698 196.012 73.1816 196.3 72.9508 196.646C72.7199 196.992 72.489 197.281 72.2585 197.57C72.0812 197.885 71.9269 198.213 71.7968 198.551C71.7311 198.717 71.6919 198.892 71.6814 199.07C71.6814 199.243 71.6236 199.416 71.6236 199.589C71.6108 199.912 71.6908 200.233 71.8545 200.512C71.9854 200.743 72.188 200.925 72.4313 201.031C72.7214 201.161 73.0375 201.22 73.3548 201.204L74.5661 201.32C75.3741 201.378 76.1818 201.493 76.9318 201.608L77.5089 201.666H77.8549C77.9703 201.666 78.0857 201.724 78.2012 201.724C78.5011 201.809 78.7908 201.925 79.0666 202.07C79.4348 202.301 79.7181 202.645 79.8746 203.051C79.941 203.276 79.9795 203.509 79.9897 203.743C80.0021 203.938 79.9825 204.132 79.932 204.32C79.9286 204.462 79.889 204.601 79.8169 204.724C79.7592 204.84 79.7592 204.955 79.7015 205.07C79.5227 205.545 79.2476 205.977 78.8934 206.339C78.28 207.028 77.5591 207.613 76.7586 208.071C75.3164 208.936 73.8161 209.513 73.1816 210.436C73.0409 210.597 72.9594 210.8 72.9508 211.013C72.9621 211.216 73.0213 211.414 73.1239 211.59C73.282 211.82 73.5023 212 73.7584 212.109C73.8739 212.167 74.047 212.282 74.1625 212.34C74.3605 212.402 74.5533 212.479 74.7393 212.571C74.9909 212.639 75.2263 212.757 75.4319 212.917C75.6676 213.084 75.8646 213.301 76.0087 213.552C76.2863 214.021 76.4078 214.567 76.355 215.11C76.3074 215.582 76.1494 216.037 75.8932 216.437C75.6624 216.841 75.3742 217.129 75.1433 217.475C75.0765 217.553 74.9837 217.603 74.8822 217.617C74.7808 217.631 74.6778 217.608 74.5925 217.551C74.5076 217.494 74.4461 217.408 74.4201 217.309C74.3937 217.21 74.405 217.105 74.451 217.013C74.6468 216.679 74.8204 216.332 74.9701 215.975C75.1056 215.687 75.1652 215.369 75.1433 215.052C75.1369 214.785 75.0573 214.526 74.9124 214.302C74.8547 214.244 74.7393 214.186 74.6815 214.129C74.5518 214.06 74.4167 214.003 74.2779 213.956L73.7007 213.783C73.4702 213.725 73.2393 213.61 73.0085 213.552C72.535 213.345 72.1046 213.052 71.7391 212.686C71.5516 212.458 71.3958 212.206 71.2762 211.935C71.1634 211.66 71.1046 211.367 71.103 211.07C71.0989 210.506 71.2377 209.95 71.5067 209.454C71.7489 209.022 72.0609 208.632 72.4298 208.3C72.6029 208.127 72.7761 208.012 72.9493 207.839L73.4687 207.492C74.1609 207.031 74.9109 206.627 75.4881 206.223C75.7763 205.992 76.0649 205.819 76.3535 205.588C76.5983 205.372 76.8295 205.141 77.0457 204.896C77.2204 204.66 77.3747 204.409 77.5074 204.146C77.5652 204.031 77.5652 203.858 77.6229 203.8C77.6229 203.858 77.6806 203.915 77.6806 203.858L77.4497 203.742C77.2189 203.684 76.7571 203.569 76.4112 203.511C75.6609 203.338 74.8532 203.107 74.1032 202.877L72.9493 202.53C72.4819 202.401 72.0352 202.208 71.6221 201.954C71.4022 201.791 71.2075 201.597 71.0453 201.376C70.8846 201.171 70.7669 200.936 70.699 200.684C70.5338 200.222 70.4553 199.733 70.4681 199.242C70.5387 198.335 70.8805 197.471 71.449 196.761C71.9684 196.068 72.4875 195.492 73.007 194.857C74.0591 193.64 75.2176 192.52 76.4689 191.51C76.5089 191.473 76.5568 191.444 76.6085 191.426C76.6605 191.409 76.7156 191.403 76.7703 191.408C76.825 191.414 76.8778 191.431 76.9254 191.458C76.9729 191.486 77.014 191.523 77.0457 191.568C77.2766 192.087 77.2766 192.318 77.1034 192.491L77.1049 192.492Z" fill="white"/>
<path d="M100.877 106.003C99.6074 104.907 97.7612 104.33 95.5687 104.388C93.5369 104.465 91.5549 105.039 89.7969 106.061C87.0853 107.734 85.9314 110.331 86.6813 113.158C88.4125 119.447 94.3551 121.812 94.586 121.928C94.6437 121.928 94.7591 121.986 94.8168 121.986H94.99L101.337 120.139C101.434 120.114 101.522 120.063 101.593 119.992C101.664 119.921 101.715 119.832 101.74 119.735C101.915 119.274 105.204 109.869 100.877 106.003Z" fill="#553597"/>
<path d="M98.5694 162.026H98.3962C98.3193 162.005 98.2472 161.969 98.185 161.919C98.1223 161.87 98.0707 161.808 98.0329 161.738C97.9948 161.668 97.9718 161.59 97.965 161.511C97.9582 161.432 97.9677 161.352 97.9926 161.276L99.9542 154.929C99.975 154.852 100.011 154.78 100.061 154.717C100.11 154.655 100.172 154.603 100.242 154.565C100.312 154.527 100.39 154.504 100.469 154.497C100.548 154.49 100.629 154.5 100.704 154.525C100.853 154.577 100.977 154.683 101.051 154.822C101.126 154.961 101.146 155.123 101.108 155.275L99.1465 161.622C99.1092 161.744 99.0319 161.85 98.9274 161.923C98.8229 161.996 98.6969 162.032 98.5694 162.026Z" fill="#553597"/>
<path d="M107.397 142.883C107.744 142.061 106.62 140.802 104.888 140.072C103.155 139.341 101.47 139.416 101.123 140.238C100.777 141.061 101.9 142.319 103.633 143.049C105.365 143.78 107.051 143.705 107.397 142.883Z" fill="white"/>
<path d="M105.146 139.467C104.31 139.096 103.407 138.899 102.492 138.891C101.511 138.948 100.877 139.295 100.588 139.929C100.357 140.564 100.53 141.314 101.165 142.006C101.801 142.674 102.567 143.204 103.415 143.564C104.2 143.907 105.041 144.102 105.896 144.141C106.935 144.141 107.685 143.795 108.031 143.103C108.492 141.949 107.223 140.391 105.146 139.467ZM102.088 141.199C101.742 140.852 101.684 140.564 101.742 140.448C101.799 140.333 102.088 140.217 102.55 140.217H102.665C103.361 140.245 104.046 140.401 104.685 140.679C104.823 140.726 104.958 140.784 105.088 140.852C104.881 140.851 104.677 140.91 104.503 141.022C104.328 141.135 104.191 141.297 104.107 141.487C104.05 141.683 104.04 141.891 104.08 142.092C104.121 142.293 104.209 142.482 104.338 142.641C104.199 142.594 104.064 142.536 103.934 142.468C103.234 142.184 102.604 141.752 102.088 141.199V141.199Z" fill="#553597"/>
<path d="M100.588 148.064L104.05 151.007C104.05 151.007 102.204 152.161 100.761 151.065C99.5495 150.199 100.588 148.064 100.588 148.064Z" fill="white"/>
<path d="M102.145 152.161C101.504 152.157 100.88 151.956 100.357 151.584C99.0874 150.661 99.6065 148.757 100.068 147.776C100.105 147.692 100.161 147.617 100.231 147.557C100.301 147.497 100.383 147.454 100.472 147.43C100.562 147.404 100.656 147.401 100.747 147.422C100.837 147.442 100.922 147.484 100.991 147.546L104.453 150.488C104.53 150.55 104.591 150.63 104.631 150.72C104.671 150.81 104.689 150.909 104.684 151.007C104.684 151.103 104.657 151.198 104.606 151.28C104.555 151.361 104.482 151.427 104.396 151.469C103.729 151.913 102.947 152.154 102.145 152.161ZM100.876 149.161C100.76 149.68 100.703 150.315 101.107 150.604C101.367 150.778 101.664 150.89 101.974 150.93C102.285 150.97 102.6 150.937 102.895 150.834L100.876 149.161Z" fill="#553597"/>
<path d="M116.052 138.602C113.975 137.852 111.609 138.775 110.052 140.737C109.989 139.836 109.699 138.965 109.21 138.206C108.722 137.446 108.05 136.822 107.256 136.391C106.463 135.96 105.573 135.736 104.67 135.739C103.767 135.743 102.879 135.974 102.089 136.411C100.673 137.204 99.5873 138.477 99.0267 140.001C98.4662 141.524 98.4677 143.197 99.0313 144.719C99.2923 145.45 99.7122 146.114 100.261 146.663C100.81 147.212 101.474 147.632 102.205 147.892C102.774 148.118 103.381 148.236 103.993 148.239C106.416 148.239 108.724 146.566 109.705 143.969C109.763 143.796 109.821 143.681 109.878 143.507C109.96 143.483 110.035 143.438 110.095 143.378C110.155 143.318 110.2 143.243 110.225 143.161C111.206 140.565 113.629 139.007 115.648 139.757C117.668 140.507 118.533 143.219 117.61 145.873C116.86 147.835 115.244 149.277 113.571 149.45C113.404 149.468 113.25 149.55 113.142 149.68C113.034 149.809 112.981 149.975 112.994 150.143C112.996 150.223 113.014 150.302 113.048 150.375C113.081 150.448 113.129 150.513 113.188 150.567C113.247 150.621 113.317 150.662 113.393 150.689C113.469 150.715 113.549 150.725 113.629 150.72H113.686C115.879 150.489 117.898 148.816 118.764 146.335C119.918 143.102 118.706 139.583 116.052 138.602ZM108.494 143.564C107.513 146.16 104.859 147.603 102.551 146.795C101.999 146.585 101.497 146.26 101.079 145.842C100.662 145.425 100.337 144.923 100.128 144.37C99.6658 143.143 99.6658 141.79 100.128 140.562C100.587 139.323 101.465 138.283 102.609 137.62C103.233 137.293 103.924 137.115 104.628 137.1C105.1 137.093 105.569 137.171 106.012 137.331C108.378 138.14 109.474 140.91 108.494 143.564Z" fill="#553597"/>
<path d="M91.4719 120.486C91.2871 120.483 91.1056 120.435 90.9442 120.344C90.7831 120.253 90.6473 120.123 90.5488 119.967C90.4122 119.727 90.3719 119.445 90.436 119.177C90.5001 118.909 90.6642 118.675 90.8947 118.524C91.1256 118.411 96.3183 115.351 102.261 115.639C102.537 115.655 102.795 115.779 102.979 115.984C103.163 116.19 103.258 116.46 103.242 116.736C103.227 117.011 103.103 117.269 102.897 117.453C102.692 117.637 102.421 117.732 102.146 117.716C96.78 117.486 91.9333 120.313 91.9333 120.371C91.8182 120.371 91.6451 120.486 91.4719 120.486Z" fill="white"/>
<path d="M114.031 121.986C111.666 119.62 107.223 116.966 99.6644 117.832C94.1831 118.466 90.3175 120.601 88.1827 124.178C85.6439 128.506 86.5093 133.41 87.3751 135.429C86.6134 136.396 86.2245 137.604 86.2788 138.834C86.2788 141.026 87.8364 142.295 89.1058 142.93L83.2782 153.546C83.1986 153.693 83.1783 153.864 83.2213 154.025C83.2643 154.186 83.3673 154.324 83.5091 154.412C83.5955 154.464 83.6977 154.485 83.7977 154.469C83.915 154.465 84.0293 154.431 84.13 154.37C84.2311 154.31 84.3149 154.225 84.3745 154.124L90.5484 142.872C90.591 142.792 90.6133 142.703 90.6133 142.613C90.6133 142.522 90.591 142.433 90.5484 142.353C90.5114 142.268 90.456 142.194 90.3862 142.134C90.316 142.074 90.2334 142.03 90.1444 142.007C90.0289 142.007 87.4905 141.199 87.4905 138.834C87.4618 137.765 87.8557 136.728 88.5864 135.949C88.8746 135.664 89.2175 135.44 89.5944 135.292C89.9708 135.143 90.3741 135.072 90.7789 135.083C92.4523 135.141 93.4909 136.872 93.664 137.218C94.2985 140.16 95.7411 140.449 96.0297 140.507H96.1451C97.0105 140.507 97.5873 139.295 98.5681 137.103C99.549 134.968 101.049 131.737 102.376 131.737C103.646 131.737 104.973 133.179 106.184 134.622C107.511 136.122 108.896 137.68 110.627 138.026C111.5 138.217 112.401 138.237 113.281 138.083C113.286 140.958 112.778 143.811 111.781 146.507C109.992 145.123 110.223 143.969 110.281 143.911C110.312 143.836 110.327 143.754 110.323 143.672C110.319 143.591 110.297 143.511 110.258 143.439C110.22 143.367 110.165 143.305 110.099 143.257C110.033 143.209 109.957 143.176 109.877 143.161C109.716 143.116 109.545 143.132 109.395 143.207C109.246 143.282 109.13 143.409 109.069 143.565C109.012 143.68 108.146 146.392 112.762 148.585C113.05 148.758 113.224 148.931 113.224 149.161C113.224 149.392 113.05 149.565 112.762 149.739C111.723 150.258 109.704 149.969 108.55 148.411C108.458 148.274 108.315 148.178 108.153 148.146C107.991 148.113 107.822 148.147 107.684 148.238C107.547 148.33 107.451 148.473 107.419 148.635C107.386 148.797 107.42 148.966 107.511 149.104C108.04 149.778 108.709 150.33 109.473 150.719C108.838 152.046 106.992 154.816 103.184 154.816C102.398 154.809 101.618 154.672 100.876 154.412C100.818 154.412 100.761 154.354 100.703 154.354C100.659 154.35 100.618 154.33 100.587 154.297C99.0389 153.713 97.7092 152.665 96.7796 151.296C96.7796 151.289 96.7785 151.281 96.7755 151.274C96.7728 151.267 96.7683 151.26 96.763 151.255C96.7578 151.25 96.7513 151.245 96.7442 151.243C96.737 151.24 96.7295 151.238 96.7219 151.238L96.6642 151.181C96.6567 151.181 96.6491 151.18 96.6419 151.177C96.6348 151.174 96.6284 151.17 96.6231 151.164C96.6178 151.159 96.6133 151.152 96.6106 151.145C96.6076 151.138 96.6065 151.131 96.6065 151.123H96.087C95.6355 151.345 95.2703 151.71 95.0485 152.162C94.8093 152.798 94.8301 153.502 95.1062 154.123C95.3371 154.758 95.9739 155.335 96.6065 155.969C97.9336 157.239 98.799 158.277 98.5681 159.662L98.395 160.239C98.3633 160.314 98.3486 160.396 98.3527 160.477C98.3565 160.559 98.3788 160.639 98.4172 160.711C98.4561 160.783 98.5104 160.845 98.5764 160.893C98.6428 160.941 98.7186 160.974 98.799 160.989C98.8567 160.989 98.9144 161.047 99.0299 161.047C99.1555 161.045 99.2773 161.006 99.3803 160.933C99.4829 160.861 99.5618 160.76 99.6067 160.643C99.6644 160.412 99.7798 160.181 99.8375 159.95L101.107 155.854C101.842 156.043 102.598 156.139 103.357 156.143C108.03 156.143 110.165 152.681 110.858 151.18C111.163 151.228 111.472 151.247 111.781 151.238C112.358 151.252 112.93 151.134 113.454 150.892C113.794 150.763 114.085 150.534 114.291 150.235C114.498 149.937 114.608 149.582 114.608 149.219C114.608 148.856 114.498 148.502 114.291 148.202C114.085 147.904 113.794 147.675 113.454 147.546C113.295 147.48 113.141 147.403 112.993 147.315C114.089 144.66 114.666 141.543 114.666 137.795C115.024 137.625 115.371 137.432 115.704 137.218C117.205 136.121 118.07 134.391 118.358 132.14C118.416 129.486 117.261 125.217 114.031 121.986Z" fill="#553597"/>
<path d="M115.917 146.46C116.263 145.638 115.14 144.379 113.407 143.649C111.675 142.919 109.99 142.993 109.643 143.816C109.296 144.638 110.42 145.896 112.152 146.627C113.885 147.357 115.57 147.282 115.917 146.46Z" fill="white"/>
<path d="M113.627 143.103C112.792 142.731 111.888 142.534 110.973 142.525C109.993 142.583 109.358 142.929 109.069 143.564C108.55 144.718 109.819 146.276 111.896 147.199C112.681 147.542 113.522 147.737 114.378 147.776H114.551C115.532 147.718 116.166 147.372 116.455 146.737C116.974 145.526 115.762 143.968 113.627 143.103ZM110.223 144.026C110.281 143.91 110.569 143.795 111.031 143.795H111.147C111.843 143.822 112.527 143.979 113.166 144.257C113.305 144.304 113.44 144.361 113.57 144.429C113.362 144.428 113.158 144.487 112.984 144.6C112.81 144.713 112.672 144.874 112.589 145.064C112.531 145.261 112.522 145.469 112.562 145.67C112.602 145.871 112.691 146.059 112.82 146.218C112.681 146.171 112.546 146.113 112.416 146.045C110.858 145.352 110.108 144.371 110.223 144.026Z" fill="#553597"/>
<path d="M91.9327 136.295C91.2401 136.199 90.5346 136.32 89.9133 136.641C89.7371 136.723 89.5798 136.841 89.4519 136.987C88.8748 137.565 88.6439 138.373 88.7593 139.41C88.7725 139.569 88.8453 139.717 88.963 139.824C89.0811 139.931 89.235 139.989 89.3942 139.987H89.4519C89.5323 139.978 89.61 139.952 89.6802 139.912C89.7507 139.872 89.8118 139.818 89.8605 139.753C89.9088 139.688 89.9439 139.614 89.9627 139.535C89.982 139.456 89.9846 139.375 89.971 139.295C89.9291 138.948 89.9484 138.596 90.0287 138.256L90.7214 139.526C90.7753 139.632 90.8579 139.72 90.9601 139.782C91.062 139.843 91.1793 139.874 91.2982 139.872C91.3977 139.881 91.4981 139.861 91.5867 139.814C91.7312 139.729 91.8368 139.591 91.8799 139.429C91.9232 139.267 91.9006 139.095 91.8176 138.949L91.0673 137.564C91.2778 137.534 91.4917 137.534 91.7022 137.564C91.7825 137.582 91.8655 137.582 91.9459 137.565C92.0266 137.548 92.102 137.513 92.1677 137.464C92.2337 137.414 92.288 137.351 92.3269 137.279C92.3661 137.207 92.3891 137.127 92.3944 137.045C92.4186 136.965 92.4253 136.881 92.4144 136.799C92.4038 136.716 92.3755 136.637 92.3322 136.566C92.2884 136.495 92.2303 136.434 92.1613 136.387C92.0926 136.341 92.0145 136.309 91.9327 136.295Z" fill="#553597"/>
<path d="M196.02 166.586C195.789 166.297 195.616 166.067 193.135 166.932C193.301 166.469 193.321 165.965 193.193 165.49C193.148 165.224 193.025 164.979 192.84 164.783C192.655 164.588 192.417 164.453 192.154 164.393C191.923 164.336 191.692 164.336 188.634 166.24C188.634 166.232 188.636 166.225 188.639 166.217C188.642 166.21 188.646 166.204 188.651 166.199C188.656 166.193 188.663 166.189 188.67 166.186C188.677 166.183 188.685 166.182 188.692 166.182C188.8 165.955 188.861 165.709 188.872 165.458C188.884 165.207 188.846 164.956 188.76 164.72C188.674 164.484 188.543 164.267 188.373 164.083C188.203 163.898 187.997 163.749 187.769 163.643C187.646 163.59 187.51 163.572 187.377 163.592C187.245 163.613 187.12 163.671 187.019 163.759L185 165.894C184.559 165.33 183.919 164.959 183.211 164.855C183.097 164.842 182.982 164.862 182.879 164.913C182.777 164.964 182.691 165.045 182.634 165.144C180.787 168.144 177.787 172.99 177.441 173.394C177.384 173.452 177.384 173.51 177.326 173.568C176.518 173.913 175.941 174.26 175.537 174.433C172.999 175.818 165.844 182.107 165.094 182.741C163.709 183.434 161.228 185.222 158.055 187.473C153.439 190.761 147.266 195.146 142.475 197.512C142.128 197.685 141.84 197.8 141.494 197.973C139.82 198.723 138.378 199.185 137.339 199.185H137.167C133.705 199.012 129.089 192.665 124.588 186.548C121.357 182.105 117.953 177.547 114.664 174.489C107.337 167.853 100.99 164.392 99.6052 163.7C99.432 162.142 99.3743 161.276 99.3743 161.219V160.988V160.932C99.3747 160.925 99.3732 160.917 99.3702 160.91C99.3675 160.903 99.3634 160.897 99.3581 160.891C99.3524 160.886 99.3464 160.882 99.3392 160.879C99.3321 160.876 99.3245 160.875 99.317 160.875L99.2593 160.817L99.2015 160.759H99.1438C99.1363 160.759 99.1287 160.758 99.1216 160.755C99.1148 160.752 99.1084 160.748 99.1027 160.743C99.0974 160.737 99.0933 160.731 99.0903 160.724C99.0876 160.717 99.0861 160.709 99.0861 160.702H98.5666L93.1431 163.182L84.5462 153.374C84.4839 153.298 84.4047 153.237 84.3145 153.197C84.224 153.157 84.1259 153.138 84.0271 153.143C83.9328 153.151 83.8411 153.181 83.7607 153.231C83.6804 153.281 83.6133 153.35 83.5653 153.432L81.3728 156.721C79.0649 156.663 66.3138 156.548 55.5244 162.26C43.3521 168.721 25.1778 184.588 25.0043 201.897C24.8888 213.956 34.2934 222.322 42.3135 227.226L37.6399 239.631C37.5881 239.764 37.5827 239.911 37.6246 240.047C37.6665 240.183 37.7533 240.301 37.8708 240.381C37.8708 240.381 38.7362 240.958 40.0056 241.766C39.3135 243.151 38.6788 244.478 38.1017 245.747C36.7168 248.805 36.0246 253.19 36.2554 257.114C36.3611 259.31 36.8289 261.474 37.6399 263.518C32.2163 267.326 19.927 270.326 15.2534 271.48C14.9612 271.543 14.6724 271.62 14.388 271.711C11.6183 272.404 10.0027 273.385 9.54122 274.654C9.40692 275.022 9.37355 275.419 9.44459 275.805C9.51563 276.19 9.68849 276.55 9.94525 276.846C10.9838 278.231 15.542 278.75 22.9849 279.443C24.1389 279.558 25.2929 279.674 26.3891 279.789C33.428 280.48 41.8518 281.981 44.1597 282.385C43.6407 286.078 43.4675 288.905 43.4675 289.136C43.4654 289.295 43.5238 289.449 43.6309 289.567C43.7379 289.685 43.8857 289.758 44.0443 289.77C44.3906 289.828 75.778 293.232 88.8754 295.367L89.7985 295.54C98.7417 297.041 110.627 299.002 120.204 299.002C125.628 299.002 130.301 298.368 133.301 296.694C137.629 294.271 140.917 288.79 141.898 282.443C142.37 279.217 142.252 275.933 141.552 272.75H143.572C158.284 272.75 166.708 269.115 170.112 261.441C171.929 257.082 172.392 252.277 171.439 247.651C170.574 243.324 167.92 237.439 160.419 233.977C154.188 231.092 144.033 228.438 135.552 226.592C140.052 226.419 143.975 225.495 146.976 223.707C151.707 220.879 157.592 215.167 164.458 206.686C169.362 200.628 172.997 195.32 173.343 194.858C176.344 191.627 179.459 188.742 179.979 188.28C180.902 187.934 188.518 186.838 195.326 186.03C195.407 186.021 195.484 185.995 195.555 185.955C195.625 185.915 195.686 185.86 195.735 185.796C195.783 185.731 195.818 185.657 195.837 185.578C195.856 185.499 195.859 185.418 195.845 185.338C195.557 182.857 193.422 182.568 191.518 182.338C189.268 182.049 186.96 181.703 186.037 178.703C184.768 175.01 189.556 172.644 193.076 170.856C193.826 170.452 194.576 170.106 195.153 169.76C196.019 169.241 196.48 168.663 196.596 167.971C196.504 167.474 196.308 167.002 196.02 166.586ZM191.865 165.663C191.938 165.785 191.978 165.925 191.981 166.067C191.992 166.152 191.982 166.239 191.952 166.319C191.921 166.4 191.872 166.471 191.808 166.528L190.539 167.74L190.423 167.855C189.269 168.317 187.884 168.894 186.154 169.586C185.519 169.817 184.884 170.106 184.249 170.394C187.711 168.259 190.942 166.182 191.865 165.663ZM187.48 164.969C187.538 165.141 187.654 165.315 187.48 165.546C187.077 166.353 185.288 168.084 184.538 168.719C183.846 169.123 183.211 169.584 182.576 169.988L187.48 164.969ZM183.384 166.18C183.518 166.206 183.643 166.268 183.745 166.36C183.846 166.451 183.921 166.569 183.961 166.699C183.961 166.757 183.961 166.757 184.019 166.815L181.134 169.815C182.057 168.317 182.923 166.875 183.384 166.182V166.18ZM102.608 182.854C102.78 183.719 103.646 184.239 104.454 184.7C105.723 185.451 106.3 185.854 106.011 186.72C105.708 187.573 105.341 188.402 104.915 189.201C103.674 191.684 102.65 194.271 101.857 196.932C101.338 185.277 100.357 173.738 99.7225 167.103C102.954 173.103 105.896 179.104 105.954 180.2C105.723 180.488 105.088 180.662 104.569 180.835C103.762 181.126 102.377 181.53 102.608 182.857V182.854ZM102.204 213.953C105.839 217.761 111.147 221.108 117.205 223.416C112.071 222.849 106.904 222.656 101.742 222.839C101.915 220.13 102.088 217.129 102.204 213.956V213.953ZM98.0494 162.316C98.1649 163.586 98.4531 166.182 98.7994 169.702L96.0878 171.375L93.549 164.393L98.0494 162.316ZM92.5682 176.221C92.5682 174.952 92.6259 173.683 92.7413 172.356C92.799 171.086 92.9145 169.759 93.0295 168.49C93.0872 167.971 93.0872 167.394 93.145 166.875L95.222 172.587C95.2571 172.679 95.3114 172.762 95.3809 172.832C95.4507 172.901 95.534 172.956 95.6261 172.99C95.6838 172.99 95.7415 173.048 95.7992 173.048C95.9146 173.048 96.0301 172.99 96.1455 172.99L98.9726 171.202C100.184 184.53 101.915 208.59 100.473 222.957C96.1587 223.177 91.862 223.659 87.606 224.399C87.377 223.357 87.2612 222.293 87.26 221.226C87.3064 219.976 87.5003 218.737 87.8368 217.533C88.1737 216.312 88.5977 215.116 89.1062 213.956C89.6257 212.744 90.2025 211.648 90.7793 210.494L92.6259 207.032C93.2529 205.854 93.8112 204.64 94.2989 203.397C94.8308 202.137 95.2179 200.821 95.4529 199.474C95.7023 198.104 95.78 196.709 95.6838 195.32C95.5649 193.966 95.2941 192.631 94.8761 191.338C94.4721 190.069 94.0681 188.8 93.6644 187.588C93.4913 186.953 93.2604 186.376 93.145 185.74C93.0872 185.451 92.9718 185.105 92.9145 184.816C92.8568 184.471 92.799 184.182 92.7413 183.893C92.5591 182.632 92.4629 181.36 92.4527 180.085C92.5104 178.76 92.5104 177.491 92.5682 176.221ZM93.6067 230.861L97.5877 231.265C99.6648 231.611 102.03 232.188 103.877 233.169C107.223 235.015 111.031 239.92 112.185 243.612C109.676 242.312 107.095 241.156 104.454 240.15H104.165C104.108 240.15 104.108 240.15 104.05 240.208C101.454 241.478 95.0493 241.016 91.4123 240.612H91.3546L89.5084 240.381C90.6642 236.4 92.9145 232.073 93.6067 230.861ZM87.7218 242.055L82.1828 240.612C82.8754 238.535 85.2988 231.669 88.1835 228.726L92.3954 230.457C91.4142 232.303 88.7026 237.612 87.7218 242.055ZM93.8376 195.435C93.9047 196.651 93.827 197.872 93.6067 199.07C93.3951 200.291 93.0665 201.489 92.6259 202.647C92.1641 203.801 91.7028 205.013 91.1833 206.167C90.6639 207.321 90.0871 208.474 89.5103 209.686C88.3563 212.052 87.2023 214.477 86.5678 217.071C86.203 218.368 86.0091 219.706 85.991 221.053C85.9631 222.216 86.0796 223.379 86.3373 224.515L83.7408 225.034C82.5868 224.399 81.2597 223.649 79.9325 222.899C81.5482 216.264 82.8177 209.628 83.7985 203.455V203.282C84.6684 197.972 85.2271 192.617 85.4715 187.242C85.782 181.172 85.5115 175.086 84.6639 169.067L89.222 172.759C89.3447 172.832 89.4838 172.872 89.6261 172.875H89.7989C89.8958 172.849 89.9841 172.798 90.055 172.727C90.1259 172.656 90.1768 172.568 90.2029 172.471L91.7031 168.49C91.4723 169.702 91.2991 170.913 91.126 172.125C90.9528 173.452 90.8374 174.779 90.7797 176.048C90.7223 177.378 90.7804 178.71 90.9528 180.03L91.0683 181.01L91.2414 181.991C91.2991 182.338 91.3568 182.626 91.4146 182.972C91.4723 183.318 91.53 183.607 91.5877 183.953C91.8186 185.28 92.1645 186.549 92.4531 187.819C93.0872 190.473 93.7221 193.012 93.8376 195.435ZM83.8558 154.873L92.0487 164.163L89.3948 171.26L84.4326 167.278C83.932 163.97 83.1598 160.709 82.1247 157.527L83.8558 154.873ZM81.6633 160.47C82.875 164.797 84.8366 174.089 84.2021 187.242C84.0867 190.415 83.7404 193.935 83.2786 197.685C82.2401 193.992 80.2207 190.473 78.8936 188.223C78.476 187.559 78.1097 186.865 77.7973 186.145C77.7973 185.857 78.6631 185.165 79.1822 184.703C80.1053 183.953 81.1438 183.088 81.2593 182.049C81.291 181.856 81.2815 181.659 81.2317 181.47C81.1819 181.281 81.0933 181.105 80.9711 180.953C80.3939 180.26 79.2976 180.203 78.1418 180.203C77.7351 180.205 77.3292 180.166 76.9301 180.087C76.8724 179.683 77.3341 178.299 77.7377 177.029C78.1995 175.702 78.7186 174.087 79.238 172.125C80.3252 168.304 81.1359 164.409 81.6633 160.47ZM36.4286 221.803C29.447 215.918 25.9274 209.225 25.9851 202.012C26.0428 192.608 31.7569 184.242 36.5437 178.818C41.8522 172.759 49.0642 167.048 55.8149 163.47C65.9117 158.104 77.8551 158.047 80.7402 158.104C80.2015 162.761 79.3142 167.371 78.0859 171.894C77.5669 173.798 77.0474 175.414 76.586 176.683C76.245 177.584 75.9749 178.51 75.778 179.452C75.6048 180.433 75.8357 181.068 76.4706 181.299C77.0161 181.448 77.5782 181.526 78.1437 181.53C78.7785 181.53 79.8171 181.587 80.0476 181.876V181.991C79.9899 182.51 79.1245 183.261 78.4322 183.78C77.4514 184.587 76.5283 185.338 76.6434 186.261C76.7011 186.722 77.0474 187.357 77.9128 188.857C79.8171 192.146 83.3364 198.204 82.5864 203.166C81.6633 209.225 80.3939 215.745 78.8359 222.322C77.1161 221.315 75.4766 220.177 73.9318 218.918C73.1241 218.283 72.1433 217.475 70.9893 216.552C66.0852 212.571 59.5073 207.148 55.5263 205.416C56.2762 204.147 58.0651 201.262 59.8536 198.262C64.6426 190.069 64.354 189.492 64.1809 189.03C64.0115 188.702 63.755 188.426 63.4396 188.232C63.1246 188.039 62.7621 187.936 62.3924 187.934C61.5749 187.903 60.7627 188.083 60.035 188.456C59.3073 188.831 58.6883 189.386 58.2379 190.069C57.658 191.064 57.2122 192.131 56.9111 193.242C56.1608 195.55 55.4685 197.743 52.6415 198.262C52.2375 198.32 51.8335 198.435 51.3721 198.493C47.3907 199.185 42.4867 200.051 40.9287 202.243C40.7106 202.549 40.5572 202.896 40.4779 203.263C40.3986 203.63 40.395 204.009 40.4673 204.378C40.9864 207.494 45.8909 207.955 50.5644 208.359C51.8995 208.433 53.2289 208.587 54.5454 208.821C57.5751 209.427 60.4813 210.539 63.1424 212.109L64.9308 213.263C66.7793 214.706 68.5659 216.206 70.1235 217.475C71.2775 218.398 72.2587 219.206 73.066 219.841C74.8685 221.274 76.7781 222.567 78.7782 223.707C78.7857 223.707 78.7933 223.708 78.8004 223.711C78.8072 223.714 78.8136 223.718 78.8193 223.724C78.8246 223.729 78.8287 223.735 78.8314 223.742C78.8344 223.749 78.8359 223.757 78.8355 223.764C80.5667 224.803 82.2974 225.784 83.7396 226.534C83.7472 226.534 83.7547 226.535 83.7619 226.538C83.7691 226.541 83.7755 226.545 83.7807 226.551C83.7864 226.556 83.7906 226.562 83.7932 226.569C83.7962 226.577 83.7977 226.584 83.7973 226.592H83.8551C85.1245 227.284 86.2207 227.803 86.913 228.149C83.9128 231.496 81.5471 238.189 80.8549 240.266C77.4507 239.227 60.3708 234.15 52.8135 231.265C50.1027 230.226 42.7753 227.168 36.4286 221.803ZM38.6788 239.689L43.0635 227.976C46.0692 229.733 49.215 231.238 52.4684 232.477C57.6611 234.438 67.2388 237.439 73.8741 239.458C73.1241 241.651 72.4315 243.439 71.8547 244.824C70.7007 247.42 69.1427 249.094 67.0079 249.901C65.3349 250.536 63.3732 250.594 61.2961 250.248C59.8921 249.984 58.505 249.638 57.142 249.209C54.7967 248.411 52.5034 247.466 50.2762 246.38C46.1218 244.478 40.2942 240.728 38.6788 239.689ZM46.2372 270.788C45.3137 271.942 43.1789 275.115 42.0827 280.827C40.1787 280.481 37.3517 280.02 34.2938 279.558C34.2484 278.79 33.9884 278.051 33.5435 277.423C33.0244 276.5 32.7935 275.981 33.1975 275.173C33.8898 273.788 39.8324 271.134 43.5252 269.749C44.3971 270.175 45.3046 270.522 46.2372 270.788ZM140.399 282.385C139.476 288.27 136.36 293.521 132.437 295.713C124.475 300.214 102.78 296.579 89.7985 294.444L88.8754 294.271C76.7588 292.251 49.0064 289.194 44.5638 288.674C44.7369 286.367 45.4292 277.654 48.0256 271.307C50.6248 272.022 53.2643 272.581 55.9303 272.981C58.9882 276.038 63.4309 277.654 69.6618 277.942C74.5659 278.173 80.5667 277.539 87.9519 275.981C95.9143 274.365 104.742 275.635 112.877 279.616C113.8 280.019 117.262 281.635 120.205 281.635C121.474 281.635 122.57 281.347 123.436 280.597C123.781 280.307 124.059 279.945 124.248 279.536C124.438 279.127 124.535 278.682 124.532 278.231C124.491 277.774 124.344 277.334 124.104 276.943C123.864 276.553 123.537 276.223 123.148 275.981C116.397 271.365 92.7421 271.827 79.759 272.865C71.0466 273.557 56.7953 272.519 47.9675 269.98C47.9098 269.98 47.9098 269.98 47.8521 269.923C46.5359 269.542 45.2449 269.08 43.9866 268.538C43.979 268.538 43.9714 268.537 43.9643 268.534C43.9572 268.531 43.9508 268.527 43.9454 268.521C43.94 268.516 43.9358 268.509 43.9329 268.502C43.9301 268.495 43.9287 268.488 43.9289 268.48C43.0904 268.086 42.2972 267.603 41.5632 267.037C36.4863 262.825 36.544 252.729 38.9093 246.901C46.0782 249.963 53.7891 251.552 61.5844 251.575H61.6421C62.3867 251.689 63.139 251.747 63.8923 251.748C65.19 251.772 66.4809 251.557 67.7005 251.113C70.1239 250.19 72.0279 248.228 73.2973 245.341C74.0819 243.531 74.7753 241.682 75.3743 239.802C78.8936 240.899 81.3747 241.591 81.4324 241.649L88.185 243.38C88.5128 243.524 88.8656 243.602 89.2236 243.61C89.5193 243.598 89.8113 243.54 90.0889 243.437C90.8415 243.154 91.4594 242.598 91.8201 241.88C93.6086 242.052 95.9743 242.283 98.2822 242.283C100.705 242.283 103.013 242.052 104.571 241.418C106.417 242.11 118.938 247.015 129.959 257.111L133.594 260.688C136.703 263.957 138.962 267.94 140.172 272.286C140.168 272.317 140.171 272.349 140.181 272.379C140.191 272.409 140.208 272.436 140.23 272.458C140.799 275.739 140.856 279.087 140.399 282.385ZM137.57 228.553C137.652 228.562 137.734 228.541 137.801 228.495C151.014 231.553 157.304 234.092 159.726 235.188C166.707 238.477 169.189 243.958 169.996 247.997C171.035 253.132 170.054 258.094 168.727 261.037C165.381 268.595 156.553 271.942 140.917 271.595C139.803 267.732 137.875 264.151 135.262 261.094C136.643 261.225 138.03 261.283 139.417 261.268C141.5 261.26 143.581 261.126 145.648 260.864C150.841 260.171 153.899 257.344 154.534 254.979C154.733 254.295 154.724 253.568 154.508 252.89C154.292 252.212 153.879 251.613 153.322 251.171C150.61 248.978 147.206 250.998 144.205 252.786C143.282 253.306 142.417 253.825 141.552 254.229C138.321 255.787 131.628 255.902 130.243 255.96C125.176 251.432 119.577 247.537 113.569 244.362C112.819 240.266 108.376 234.265 104.395 232.015C102.678 231.16 100.853 230.539 98.9714 230.169C98.6251 229.246 98.6251 228.438 99.0869 227.688C99.8368 226.419 101.856 225.38 104.856 224.745C106.339 224.426 107.843 224.214 109.357 224.111H109.588C111.03 223.996 112.588 224.284 114.665 225.149C115.242 225.38 115.761 225.611 116.338 225.842C117.472 226.397 118.65 226.86 119.858 227.227C121.576 227.683 123.335 227.973 125.108 228.092C128.743 228.438 131.917 228.554 134.859 228.554C135.841 228.611 136.707 228.553 137.572 228.553L137.57 228.553ZM146.169 222.724C141.092 225.782 132.726 226.302 123.898 224.167C115.128 222.032 107.108 217.647 102.492 212.397C102.434 212.339 102.319 212.281 102.261 212.224C102.319 209.166 102.261 205.992 102.204 202.704C102.665 197.222 104.8 192.78 106.185 189.779C106.617 188.916 107.002 188.03 107.339 187.125C107.916 185.221 106.3 184.24 105.204 183.663C104.685 183.375 103.992 182.971 103.934 182.682C103.877 182.452 104.281 182.279 105.146 182.048C105.954 181.817 106.877 181.528 107.281 180.778C107.512 180.374 107.8 179.74 103.646 171.662C102.55 169.47 101.338 167.335 100.588 165.835C105.32 168.615 109.749 171.883 113.801 175.586C117.089 178.586 120.378 183.086 123.609 187.471C123.84 187.817 124.128 188.164 124.359 188.51C125.513 190.645 128.34 196.645 127.821 199.184C127.417 201.03 126.494 202.473 125.686 203.685C124.59 205.358 123.551 206.916 124.994 208.589C125.158 208.778 125.362 208.929 125.592 209.028C125.821 209.128 126.071 209.175 126.321 209.166C127.994 209.166 130.648 207.204 133.937 204.723C136.099 203.024 138.353 201.444 140.688 199.993C141.587 199.657 142.439 199.212 143.227 198.666C147.208 196.646 152.055 193.415 156.267 190.357C156.786 191.28 157.883 193.069 159.325 195.089C161.806 198.551 164.172 200.916 166.422 202.185C160.94 209.109 152.862 218.745 146.169 222.724ZM167.057 201.205C162.557 198.781 158.287 191.569 157.191 189.607C157.711 189.261 158.23 188.915 158.691 188.569C161.345 186.665 163.711 184.991 165.096 184.184C166.019 185.972 169.077 191.454 171.847 194.627C171.21 195.55 169.479 198.031 167.057 201.205ZM195.156 167.913C195.098 168.202 194.81 168.49 194.291 168.836C193.657 169.218 193.002 169.565 192.329 169.875C188.636 171.721 183.097 174.491 184.655 179.222C185.867 182.972 188.925 183.434 191.175 183.722C192.848 183.953 193.887 184.126 194.291 185.049C193.021 185.222 190.194 185.569 187.425 185.915C179.578 186.953 179.29 187.242 179.001 187.473C178.655 187.761 175.655 190.473 172.655 193.704C169.943 190.531 167 185.107 166.135 183.491C167.693 182.107 173.868 176.799 176.059 175.587C178.886 173.971 192.791 168.086 195.099 167.624C195.151 167.711 195.17 167.813 195.154 167.913H195.156Z" fill="#553597"/>
</g>
</g>
<g clip-path="url(#clip4_100_21310)">
<mask id="mask3_100_21310" style="mask-type:luminance" maskUnits="userSpaceOnUse" x="152" y="175" width="35" height="35">
<path d="M152.096 175.168H186.256V209.328H152.096V175.168Z" fill="white"/>
</mask>
<g mask="url(#mask3_100_21310)">
<path d="M169.176 209.328C178.609 209.328 186.256 201.681 186.256 192.248C186.256 182.815 178.609 175.168 169.176 175.168C159.743 175.168 152.096 182.815 152.096 192.248C152.096 201.681 159.743 209.328 169.176 209.328Z" fill="white"/>
</g>
</g>
<g clip-path="url(#clip5_100_21310)">
<mask id="mask4_100_21310" style="mask-type:luminance" maskUnits="userSpaceOnUse" x="68" y="185" width="135" height="61">
<path d="M68.5449 185.248H202.928V245.28H68.5449V185.248Z" fill="white"/>
</mask>
<g mask="url(#mask4_100_21310)">
<path d="M151.431 240.13H71.2191C70.0377 240.13 69.0801 241.084 69.0801 242.261V242.616C69.0801 243.794 70.0377 244.748 71.2191 244.748H151.431C152.613 244.748 153.57 243.794 153.57 242.616V242.261C153.57 241.084 152.613 240.13 151.431 240.13Z" fill="#EDE3FF"/>
<path d="M151.431 245.28H71.2187C70.5098 245.279 69.8301 244.998 69.3289 244.499C68.8276 244 68.5457 243.322 68.5449 242.616V242.261C68.5457 241.555 68.8276 240.877 69.3289 240.378C69.8301 239.878 70.5098 239.597 71.2187 239.597H151.431C152.14 239.597 152.819 239.878 153.321 240.378C153.822 240.877 154.104 241.555 154.105 242.261V242.616C154.104 243.322 153.822 244 153.321 244.499C152.819 244.998 152.14 245.279 151.431 245.28ZM71.2187 240.662C70.7933 240.663 70.3856 240.831 70.0848 241.131C69.7841 241.431 69.6149 241.837 69.6144 242.261V242.616C69.6149 243.04 69.7841 243.446 70.0848 243.746C70.3856 244.045 70.7933 244.214 71.2187 244.215H151.431C151.856 244.214 152.264 244.045 152.565 243.746C152.865 243.446 153.035 243.04 153.035 242.616V242.261C153.035 241.837 152.865 241.431 152.565 241.131C152.264 240.831 151.856 240.663 151.431 240.662H71.2187Z" fill="#553597"/>
<path d="M200.663 185.781H120.487C119.88 185.809 119.298 186.033 118.83 186.42C118.363 186.807 118.035 187.335 117.896 187.925L106.291 242.533C106.217 242.788 106.205 243.057 106.256 243.318C106.306 243.579 106.418 243.824 106.583 244.033C106.747 244.242 106.958 244.409 107.2 244.521C107.442 244.633 107.707 244.687 107.973 244.677H188.15C188.758 244.65 189.339 244.425 189.807 244.038C190.274 243.651 190.602 243.123 190.741 242.533L202.346 187.925C202.42 187.67 202.432 187.401 202.381 187.14C202.33 186.879 202.218 186.634 202.054 186.425C201.89 186.216 201.678 186.049 201.436 185.937C201.195 185.825 200.93 185.772 200.663 185.781Z" fill="#EDE3FF"/>
<path d="M188.15 245.209H107.971C107.633 245.218 107.298 245.15 106.99 245.011C106.683 244.872 106.411 244.665 106.195 244.406C105.979 244.128 105.829 243.806 105.755 243.462C105.68 243.119 105.684 242.764 105.765 242.422L117.371 187.814C117.532 187.103 117.925 186.466 118.489 186.002C119.053 185.537 119.755 185.272 120.486 185.248H200.663C201 185.239 201.336 185.307 201.643 185.446C201.951 185.585 202.223 185.792 202.438 186.051C202.654 186.329 202.805 186.651 202.879 186.994C202.954 187.338 202.95 187.693 202.868 188.035L191.263 242.643C191.102 243.353 190.709 243.99 190.145 244.455C189.582 244.919 188.88 245.184 188.15 245.209ZM120.486 186.313C120.002 186.342 119.54 186.525 119.168 186.834C118.796 187.144 118.533 187.565 118.418 188.035L106.811 242.643C106.762 242.829 106.756 243.024 106.793 243.213C106.83 243.402 106.909 243.58 107.025 243.734C107.141 243.869 107.287 243.976 107.45 244.047C107.614 244.117 107.792 244.151 107.97 244.143H188.15C188.634 244.115 189.096 243.932 189.468 243.622C189.84 243.313 190.103 242.892 190.217 242.422L201.822 187.814C201.872 187.628 201.878 187.433 201.841 187.244C201.803 187.055 201.724 186.877 201.608 186.722C201.492 186.587 201.346 186.481 201.183 186.41C201.019 186.339 200.841 186.306 200.663 186.313H120.486Z" fill="#553597"/>
<path d="M144.326 215.734L145.2 212.838C145.287 212.42 145.516 212.045 145.848 211.776C146.179 211.506 146.594 211.359 147.022 211.357H163.504C163.671 211.358 163.835 211.396 163.986 211.468C164.137 211.541 164.269 211.646 164.374 211.775C164.479 211.905 164.553 212.056 164.591 212.219C164.63 212.381 164.632 212.549 164.597 212.712L163.722 215.608C163.635 216.026 163.407 216.401 163.075 216.671C162.743 216.94 162.328 217.088 161.9 217.089H145.419C145.252 217.088 145.087 217.05 144.936 216.978C144.786 216.906 144.653 216.801 144.549 216.671C144.444 216.541 144.37 216.39 144.331 216.228C144.293 216.066 144.291 215.897 144.326 215.734Z" fill="#EDE3FF"/>
<path d="M161.9 217.621H145.418C145.173 217.622 144.93 217.567 144.709 217.462C144.487 217.356 144.292 217.203 144.138 217.012C143.981 216.82 143.87 216.596 143.812 216.356C143.754 216.116 143.75 215.866 143.802 215.624C143.805 215.609 143.809 215.595 143.813 215.581L144.682 212.703C144.801 212.172 145.097 211.698 145.522 211.356C145.947 211.015 146.476 210.827 147.022 210.824H163.503C163.749 210.824 163.991 210.878 164.213 210.984C164.434 211.089 164.629 211.243 164.784 211.433C164.94 211.625 165.052 211.849 165.11 212.09C165.168 212.33 165.171 212.58 165.119 212.822C165.116 212.837 165.113 212.851 165.108 212.865L164.24 215.743C164.121 216.273 163.825 216.748 163.399 217.09C162.974 217.431 162.446 217.618 161.9 217.621ZM144.845 215.863C144.83 215.947 144.833 216.033 144.854 216.115C144.875 216.198 144.914 216.275 144.969 216.341C145.022 216.408 145.091 216.462 145.169 216.499C145.247 216.536 145.332 216.556 145.418 216.556H161.9C162.205 216.553 162.5 216.447 162.736 216.255C162.972 216.063 163.135 215.796 163.199 215.498C163.202 215.483 163.205 215.469 163.21 215.455L164.077 212.583C164.092 212.499 164.089 212.413 164.067 212.33C164.046 212.248 164.007 212.171 163.953 212.105C163.899 212.038 163.83 211.984 163.753 211.946C163.674 211.909 163.589 211.89 163.503 211.89H147.022C146.717 211.892 146.421 211.998 146.185 212.191C145.949 212.383 145.786 212.65 145.723 212.948C145.72 212.962 145.716 212.977 145.712 212.991L144.845 215.863Z" fill="#553597"/>
</g>
</g>
<mask id="mask5_100_21310" style="mask-type:luminance" maskUnits="userSpaceOnUse" x="119" y="115" width="43" height="36">
<path d="M161.168 115.061H119V150.94H161.168V115.061Z" fill="white"/>
</mask>
<g mask="url(#mask5_100_21310)">
<path d="M140.084 115.31C128.578 115.31 119.25 122.027 119.25 130.314C119.25 135.439 122.818 139.962 128.262 142.669C126.808 145.791 123.811 149.703 120.462 150.692C125.728 149.823 131.577 148.089 134.891 144.849C136.604 145.163 138.342 145.32 140.084 145.319C151.591 145.319 160.919 138.601 160.919 130.314C160.919 122.027 151.592 115.31 140.084 115.31Z" fill="white" stroke="#553597" stroke-width="1.03623" stroke-linecap="round" stroke-linejoin="round"/>
</g>
<mask id="mask6_100_21310" style="mask-type:luminance" maskUnits="userSpaceOnUse" x="129" y="121" width="22" height="20">
<path d="M129.538 121.475H151V140.457H129.538V121.475Z" fill="white"/>
</mask>
<g mask="url(#mask6_100_21310)">
<path d="M140 139C120.793 125.3 137.995 118.308 140 126.509C142.005 118.308 159.207 125.3 140 139Z" fill="#A78ED7" stroke="#A78ED7" stroke-width="0.953916" stroke-linejoin="round"/>
</g>
<defs>
<clipPath id="clip0_100_21310">
<rect width="310.912" height="259.392" fill="white" transform="translate(9.63281 35.6162)"/>
</clipPath>
<clipPath id="clip1_100_21310">
<rect width="217.952" height="171.808" fill="white" transform="translate(105.729 35.168)"/>
</clipPath>
<clipPath id="clip2_100_21310">
<rect width="73.248" height="92.96" fill="white" transform="translate(226.016 88.9277)"/>
</clipPath>
<clipPath id="clip3_100_21310">
<rect width="162.624" height="194.656" fill="white" transform="translate(9.4082 104.384)"/>
</clipPath>
<clipPath id="clip4_100_21310">
<rect width="34.272" height="34.272" fill="white" transform="translate(152.096 175.168)"/>
</clipPath>
<clipPath id="clip5_100_21310">
<rect width="134.4" height="60.032" fill="white" transform="translate(68.5449 185.248)"/>
</clipPath>
</defs>
</svg>
