<svg width="21" height="21" viewBox="0 0 21 21" fill="none" xmlns="http://www.w3.org/2000/svg">
<circle cx="10.5" cy="10.5" r="10.5" fill="#6F46BE"/>
<path d="M8.62977 12.377L5.67618 9.42344C5.49535 9.24261 5.27433 9.1522 5.01313 9.1522C4.75193 9.1522 4.52087 9.25266 4.31994 9.45358C4.11902 9.65451 4.01855 9.88557 4.01855 10.1468C4.01855 10.408 4.11902 10.629 4.31994 10.8098L7.99685 14.4867C8.17769 14.6676 8.38866 14.758 8.62977 14.758C8.87087 14.758 9.08185 14.6676 9.26268 14.4867L16.4959 7.25346C16.6768 7.07263 16.7622 6.85161 16.7521 6.59041C16.7421 6.32921 16.6466 6.10819 16.4658 5.92736C16.285 5.72644 16.0589 5.62598 15.7877 5.62598C15.5164 5.62598 15.2804 5.72644 15.0794 5.92736L8.62977 12.377Z" fill="white"/>
</svg>
