<svg width="27" height="30" viewBox="0 0 27 30" fill="none" xmlns="http://www.w3.org/2000/svg">
<path d="M17.9703 7.44369H9.10355V10.3993H17.9703V7.44369Z" fill="#6F46BE"/>
<path d="M22.4037 7.44369H19.4481V10.3993H22.4037V7.44369Z" fill="#6F46BE"/>
<path d="M17.9703 11.8771H9.10355V14.8327H17.9703V11.8771Z" fill="#6F46BE"/>
<path d="M22.4037 11.8771H19.4481V14.8327H22.4037V11.8771Z" fill="#6F46BE"/>
<path fill-rule="evenodd" clip-rule="evenodd" d="M22.4032 0.0546875L24.6199 2.27139L26.8366 0.0546875V25.1773C26.8366 27.6304 24.8563 29.6107 22.4032 29.6107H4.6696C2.21646 29.6107 0.236206 27.6304 0.236206 25.1773V20.7439H4.6696V0.0546875L6.8863 2.27139L9.103 0.0546875L11.3197 2.27139L13.5364 0.0546875L15.7531 2.27139L17.9698 0.0546875L20.1865 2.27139L22.4032 0.0546875ZM3.19181 25.1773C3.19181 25.9901 3.85681 26.6551 4.6696 26.6551H17.9698V23.6995H3.19181V25.1773ZM22.4032 26.6551C23.216 26.6551 23.881 25.9901 23.881 25.1773V4.48809H7.6252V20.7439H20.9254V25.1773C20.9254 25.9901 21.5904 26.6551 22.4032 26.6551Z" fill="#6F46BE"/>
</svg>
