<svg width="12" height="13" viewBox="0 0 12 13" fill="none" xmlns="http://www.w3.org/2000/svg">
<path d="M5.40012 3.5H6.60012V4.7H5.40012V3.5ZM5.40012 5.9H6.60012V9.5H5.40012V5.9ZM6.00012 0.5C2.68812 0.5 0.00012207 3.188 0.00012207 6.5C0.00012207 9.812 2.68812 12.5 6.00012 12.5C9.31212 12.5 12.0001 9.812 12.0001 6.5C12.0001 3.188 9.31212 0.5 6.00012 0.5ZM6.00012 11.3C3.35412 11.3 1.20012 9.146 1.20012 6.5C1.20012 3.854 3.35412 1.7 6.00012 1.7C8.64612 1.7 10.8001 3.854 10.8001 6.5C10.8001 9.146 8.64612 11.3 6.00012 11.3Z" fill="#BF0000"/>
</svg>
