<svg width="44" height="36" viewBox="0 0 44 36" fill="none" xmlns="http://www.w3.org/2000/svg">
<path d="M37.5744 0H6.00456C2.68439 0 0 2.68499 0 6.00589V24.2779C0 27.5918 2.68439 30.2838 6.00456 30.2838H13.3584C14.5805 30.2838 15.7531 30.7713 16.615 31.6334L20.4226 35.4418C21.1784 36.1978 22.4076 36.1978 23.1635 35.4418L26.9711 31.6334C27.8329 30.7713 29.0055 30.2838 30.2276 30.2838H37.5815C40.8946 30.2838 43.586 27.5988 43.586 24.2779V6.00589C43.5789 2.68499 40.8875 0 37.5744 0Z" fill="#6F46BE"/>
<path d="M30.3262 12.3367H30.305C30.3333 12.1389 30.3615 11.9481 30.3615 11.7432C30.3615 9.39739 28.4612 7.4967 26.1159 7.4967C24.1733 7.4967 22.5556 8.80387 22.047 10.5844C21.5383 8.80387 19.9206 7.4967 17.978 7.4967C15.6327 7.4967 13.7324 9.39739 13.7324 11.7432C13.7324 11.9481 13.7677 12.1389 13.7889 12.3367H13.7324C13.7324 12.3367 14.2976 16.8659 22.047 23.3311C22.047 23.3311 29.2524 17.4877 30.2414 12.7042C30.2555 12.6406 30.2697 12.584 30.2838 12.5205C30.2979 12.4639 30.3191 12.4003 30.3262 12.3367Z" fill="#EDE3FF"/>
</svg>
