<svg  viewBox="0 0 72 72" fill="none" width="40" height="40" xmlns="http://www.w3.org/2000/svg">
<rect width="72" height="72" rx="36" fill="#D8E0ED"/>
<path d="M47.9677 41.6541V38.026H44.424V41.6541H47.9677ZM47.9677 48.826V45.2823H44.424V48.826H47.9677ZM40.7958 27.226V23.6823H37.1677V27.226H40.7958ZM40.7958 34.4823V30.8541H37.1677V34.4823H40.7958ZM40.7958 41.6541V38.026H37.1677V41.6541H40.7958ZM33.624 27.226V23.6823H29.9958V27.226H33.624ZM33.624 34.4823V30.8541H29.9958V34.4823H33.624ZM33.624 41.6541V38.026H29.9958V41.6541H33.624ZM26.3677 34.4823V30.8541H22.824V34.4823H26.3677ZM26.3677 41.6541V38.026H22.824V41.6541H26.3677ZM26.3677 48.826V45.2823H22.824V48.826H26.3677ZM44.424 34.4823H51.5958V52.4541H37.1677V45.2823H33.624V52.4541H19.1958V27.226H26.3677V20.0541H44.424V34.4823Z" fill="#A6B0BF"/>
</svg>
