<svg width="269" height="343" viewBox="0 0 269 343" fill="none" xmlns="http://www.w3.org/2000/svg">
<path d="M166.353 315.464L171.14 342.384H115.204C115.204 342.384 118.944 331.617 133.75 329.974C148.556 328.332 143.172 315.469 143.172 315.469L166.353 315.464Z" fill="#CE497F"/>
<path d="M168.181 206.884L196.897 204.789C198.725 223.839 195.848 243.047 188.52 260.725C182.817 257.703 180.549 254.281 179.547 251.651C176.769 244.351 182.021 238.694 177.952 231.71C177.337 230.655 175.627 227.815 172.17 226.527C169.27 225.444 166.609 225.999 165.417 226.326L168.181 206.884Z" fill="#CE497F"/>
<path d="M162.588 75.5278C162.26 75.7432 159.586 77.4349 156.323 76.3618C153.003 75.2668 151.87 72.2318 151.744 71.8741L158.537 58.7031L165.149 60.9296L162.588 75.5278Z" fill="white"/>
<path d="M164.299 63.3313L165.029 61.625L158.214 59.3291C157.119 61.4437 156.028 63.5582 154.942 65.6728C155.908 66.3383 157.04 66.7224 158.212 66.7824C161.875 66.9266 164.144 63.5686 164.299 63.3313Z" fill="#F4679D"/>
<path d="M163.627 61.5234C168.206 61.5234 171.918 57.8114 171.918 53.2324C171.918 48.6534 168.206 44.9414 163.627 44.9414C159.048 44.9414 155.336 48.6534 155.336 53.2324C155.336 57.8114 159.048 61.5234 163.627 61.5234Z" fill="white"/>
<path d="M163.627 53.2392L156.132 49.7188C155.488 51.1788 154.958 52.4563 154.551 53.4491C153.378 56.3253 153.157 57.1246 153.126 58.1211C153.104 58.7671 153.064 60.0172 153.646 61.198C155.024 63.9957 159.159 64.9009 162.116 64.5122C165.317 64.0906 167.408 62.1215 168.213 61.2655C168.213 61.2655 168.693 60.729 171.119 56.7706L163.627 53.2392Z" fill="white"/>
<path d="M154.575 71.1759C142.287 65.3194 134.119 66.9784 130.394 68.1938C127.291 69.214 124.952 70.6959 115.485 78.1455C108.55 83.6059 102.829 88.298 98.6955 91.7436L84.3127 73.0976L64.7852 94.4702C66.0338 99.6355 67.9394 104.619 70.4554 109.3C74.1419 116.153 81.0404 125.864 86.8111 128.494C99.1536 134.122 124.919 115.775 146.197 80.8046L154.575 71.1759Z" fill="#FDE7F0"/>
<path d="M33.7597 143.227L1.78027 154.359C5.59087 143.697 9.40026 133.035 13.2084 122.372L133.168 4.11227C138.566 0.0826657 145.588 -0.397309 150.485 2.76542C156.947 6.94102 159.101 17.0716 153.719 24.9592L33.7597 143.227Z" fill="#F8A0C2"/>
<path d="M135.647 26.6161L131.268 22.1738L21.2964 130.583L25.6756 135.025L135.647 26.6161Z" fill="#CE497F"/>
<path d="M150.487 2.78006C145.591 -0.382661 138.568 0.097314 133.17 4.12691L123.185 13.971L143.735 34.8198L153.721 24.9739C159.103 17.0862 156.948 6.95567 150.487 2.78006Z" fill="#CE497F"/>
<path d="M6.0071 142.542C6.0071 142.542 13.2615 142.724 13.6046 150.249L1.78223 154.366L6.0071 142.542Z" fill="#CE497F"/>
<path d="M91.0086 132.023C81.7126 148.901 73.7236 166.465 67.1121 184.563C60.6899 202.127 51.8022 215.588 57.5071 228.728C59.0686 232.015 61.1948 235.002 63.7887 237.554C84.6412 257.844 162.14 237.826 169.378 235.912L175.811 201.306L107.16 203.009L127.501 146.164L91.0086 132.023Z" fill="#F4679D"/>
<path d="M105.687 133.062C101.251 197.285 109.131 261.764 128.903 323.029L171.141 322.443L152.029 208.38C152.029 208.38 155.219 167.301 152.427 152.544C149.635 137.787 105.687 133.062 105.687 133.062Z" fill="#F4679D"/>
<path d="M145.107 68.1426C132.019 77.1359 119.679 87.172 108.207 98.1529C78.792 126.355 79.4545 137.644 80.4801 142.232C80.9313 144.207 81.6946 146.098 82.7413 147.833C83.9451 147.1 85.2951 146.639 86.6961 146.484C94.1092 145.74 100.524 154.697 102.234 156.845C107.563 163.523 120.371 170.633 153.486 172.111C155.778 172.211 158.88 171.952 161.446 170.04C169.235 164.229 165.826 147.837 164.499 140.11C162.005 125.482 160.599 104.194 165.412 74.833L154.566 71.183L145.107 68.1426Z" fill="#FDE7F0"/>
<path d="M156.88 71.3154C159.925 71.9366 162.825 73.1286 165.426 74.8286C165.426 74.8286 171.881 78.964 175.575 88.1511C180.514 100.43 183.24 155.079 150.058 165.027C120.201 173.975 85.537 137.371 88.6541 126.549C88.8877 125.733 89.3275 125.089 89.7035 123.572C91.5285 116.205 86.7981 108.763 82.2319 103.412L94.2258 94.4692C98.6807 99.6997 104.993 105.328 111.746 104.394C113.118 104.211 113.783 103.846 114.666 103.629C119.141 102.545 126.652 105.81 139.975 124.722C142.658 106.116 148.37 88.0749 156.885 71.3154H156.88Z" fill="#FDE7F0"/>
<path d="M152.932 69.588C152.932 69.588 151.357 77.1107 152.467 77.5396C153.576 77.9684 163.09 72.7234 163.09 72.7234C163.09 72.7234 159.259 67.951 152.932 69.588Z" fill="white"/>
<path d="M154.575 66.3793C154.575 66.3793 153.597 65.4358 152.307 66.3793C151.016 67.3228 149.983 67.0911 148.927 67.7152C147.697 68.4452 147.156 70.5129 146.127 74.6301C145.249 78.1341 145.397 78.5977 145.654 78.8824C146.985 80.3825 151.949 77.8093 152.453 77.5447C152.453 77.5447 152.257 72.0441 152.918 69.5931L154.575 66.3793Z" fill="#F8A0C2"/>
<path d="M152.458 77.5392C152.458 77.5392 159.439 74.9459 163.082 72.723L163.841 68.3887C163.841 68.3887 165.273 68.4982 165.427 70.5896C165.609 73.1574 166.556 73.526 166.522 75.0335C166.478 77.6213 164.014 79.4901 161.762 81.1983C159.207 83.1347 155.74 85.7608 153.648 84.4377C152.091 83.4504 151.772 80.5651 152.458 77.5392Z" fill="#F8A0C2"/>
<path d="M169.175 331.318C169.175 331.318 162.492 330.154 158.13 336.987C153.768 343.82 149.301 335.315 143.165 335.388C137.029 335.461 136.595 339.688 131.076 339.646C125.557 339.604 120.345 335.448 120.345 335.448C120.345 335.448 113.711 336.374 115.197 342.383H171.133L169.175 331.318Z" fill="#F4679D"/>
<path d="M185.874 205.595C185.874 205.595 185.534 208.896 190.984 215.802C196.433 222.708 192.219 230.052 190.111 233.687C188.004 237.322 193.645 248.816 183.228 257.027C183.228 257.027 183.87 261.67 188.52 260.728C188.52 260.728 190.573 257.748 192.834 252.37C193.756 250.183 194.566 247.951 195.263 245.683C197.568 238.184 198.267 231.096 198.402 229.623C199.315 219.667 198.178 210.968 196.897 204.803L185.874 205.595Z" fill="#F4679D"/>
<path d="M107.041 104.113L96.9885 93.0878L94.3641 83.4846L90.9203 86.8791C89.4499 85.9639 88.1767 84.7646 87.1754 83.3514C85.0803 80.3493 84.9854 77.2942 82.8137 76.6628C82.5071 76.5734 82.0435 76.4383 81.6493 76.6628C80.047 77.5753 81.726 83.1871 82.2315 84.7986C81.3094 83.7991 80.4872 82.7117 79.7769 81.552C79.098 80.4332 78.649 79.4459 77.7238 79.2798C77.3005 79.2049 76.8646 79.2957 76.5065 79.5335C76.0539 79.8875 75.2965 81.3257 79.2768 89.4579C78.6545 88.2789 75.552 82.5703 73.581 83.1288C73.143 83.2529 72.9076 83.6452 72.7798 83.8588C72.7798 83.8588 71.756 85.5597 76.4882 93.9638C75.9097 93.1553 75.3932 92.4727 74.9589 91.9362C73.2288 89.759 72.6594 89.4141 72.1174 89.4579C71.7636 89.496 71.4375 89.6669 71.2049 89.936C69.8069 91.6296 74.2015 97.7653 76.762 100.85C78.9214 103.444 81.3624 105.791 84.0401 107.847L87.9091 116.32C87.9091 116.32 98.4813 116.59 107.041 104.113Z" fill="white"/>
<path d="M102.871 99.5393C102.871 99.5393 96.1897 110.5 85.5025 112.132C85.5025 112.132 83.1063 113.185 85.5025 114.749C87.8987 116.313 89.7 123.569 89.7 123.569C89.7 123.569 102.86 123.553 107.037 115.402C111.215 107.252 111.751 104.39 111.751 104.39C111.751 104.39 109.379 105.044 107.037 101.773C104.696 98.5027 103.825 98.1469 102.871 99.5393Z" fill="#F8A0C2"/>
<path d="M82.2319 84.7949C82.2319 84.7949 82.7229 86.6729 84.9037 88.9085" stroke="#CE497F" stroke-width="0.1825" stroke-linecap="round" stroke-linejoin="round"/>
<path d="M78.4722 87.7611C78.4302 87.668 79.2879 90.3818 80.9779 91.9586" stroke="#CE497F" stroke-width="0.1825" stroke-linecap="round" stroke-linejoin="round"/>
<path d="M75.8901 92.873C75.8901 92.873 77.3264 95.3861 78.4707 96.4282" stroke="#CE497F" stroke-width="0.1825" stroke-linecap="round" stroke-linejoin="round"/>
<path d="M111.755 104.394C111.755 104.394 117.429 101.673 122.34 105.54C127.251 109.407 130.943 119.733 140.975 126.075C151.007 132.417 153.987 139.468 156.095 146.013" stroke="#CE497F" stroke-width="0.1825" stroke-linecap="round" stroke-linejoin="round"/>
<path d="M165.149 88.9092C165.149 88.9092 152.971 100.954 142.864 127.34" stroke="#CE497F" stroke-width="0.1825" stroke-linecap="round" stroke-linejoin="round"/>
<path d="M89.7039 123.572C89.7039 123.572 87.1762 130.29 94.155 133.062C96.4828 133.986 98.7396 135.079 100.908 136.333C106.26 139.435 111.989 145.421 116.832 150.518C122.125 156.083 130.321 164.719 140.01 166.416C142.952 166.931 153.039 168.037 166.394 156.196" stroke="#CE497F" stroke-width="0.1825" stroke-linecap="round" stroke-linejoin="round"/>
<path d="M129.266 72.6484C129.266 72.6484 118.728 84.0693 109.786 104.137" stroke="#CE497F" stroke-width="0.1825" stroke-linecap="round" stroke-linejoin="round"/>
<path d="M88.6433 120.135L84.4385 126.216" stroke="#CE497F" stroke-width="0.1825" stroke-linecap="round" stroke-linejoin="round"/>
<path d="M167.423 57.4495C167.423 57.4495 165.08 57.3017 166.987 53.2319C166.987 53.2319 164.602 52.7063 163.627 51.2335C162.652 49.7608 164.589 47.308 164.589 47.308C164.589 47.308 162.045 47.1145 161.262 49.4341C160.479 51.7537 156.132 49.7115 156.132 49.7115L154.757 52.9198C154.757 52.9198 150.706 50.1221 152.314 44.9391C153.922 39.7561 157.811 42.9188 162.11 40.7106C166.41 38.5023 169.542 39.9477 170.688 43.2181C170.688 43.2181 180.092 44.3131 177.694 53.7137C175.296 63.1143 164.158 66.5435 164.158 66.5435C164.158 66.5435 162.543 59.9297 167.423 57.4495Z" fill="#CE497F"/>
<path d="M170.428 60.9288C171.977 59.4824 172.332 57.3441 171.22 56.1527C170.107 54.9613 167.95 55.168 166.4 56.6144C164.851 58.0609 164.496 60.1992 165.608 61.3906C166.721 62.582 168.878 62.3752 170.428 60.9288Z" fill="white"/>
<path d="M169.762 58.5169C169.762 58.5169 170.492 57.3306 169.726 56.9674C168.959 56.6043 167.423 58.1172 167.423 58.1172C167.423 58.1172 168.589 58.1172 168.498 58.818C168.406 59.5188 166.649 60.3181 166.585 59.1191" stroke="#CE497F" stroke-width="0.1825" stroke-linecap="round" stroke-linejoin="round"/>
<path d="M103.604 166.421C103.604 166.421 100.984 205.938 110.581 246.11" stroke="#CE497F" stroke-width="0.1825" stroke-linecap="round" stroke-linejoin="round"/>
<path d="M152.474 201.871L152.029 208.379L157.135 238.862" stroke="#CE497F" stroke-width="0.1825" stroke-linecap="round" stroke-linejoin="round"/>
<path d="M104.274 204.789L84.4126 207.441" stroke="#CE497F" stroke-width="0.1825" stroke-linecap="round" stroke-linejoin="round"/>
<path d="M159.581 58.1945C158.566 59.2749 157.153 59.4483 156.383 58.8497C155.81 58.4044 155.73 57.6415 155.715 57.4043C156.131 57.5302 156.573 57.6488 157.037 57.7583C157.875 57.9551 158.725 58.1008 159.581 58.1945Z" fill="#CE497F"/>
<path d="M134.441 329.882C134.441 329.882 137.991 332.876 143.442 331.243C148.894 329.61 150.56 322.729 150.56 322.729H143.899C143.899 322.729 141.435 327.902 134.441 329.882Z" fill="#F4679D"/>
<path d="M179.552 238.447C179.552 238.447 183.899 236.805 184.08 230.74C184.261 224.676 177.198 219.579 172.661 218.235L171.141 226.205C171.141 226.205 178.514 229.945 179.552 238.447Z" fill="#F4679D"/>
<path d="M224.335 153.9C226.514 153.9 228.279 152.135 228.279 149.957C228.279 147.778 226.514 146.013 224.335 146.013C222.157 146.013 220.392 147.778 220.392 149.957C220.392 152.135 222.157 153.9 224.335 153.9Z" fill="#CE497F"/>
<path d="M245.128 153.9C247.306 153.9 249.072 152.135 249.072 149.957C249.072 147.778 247.306 146.013 245.128 146.013C242.95 146.013 241.184 147.778 241.184 149.957C241.184 152.135 242.95 153.9 245.128 153.9Z" fill="#CE497F"/>
<path d="M217.884 160.844C223.01 163.889 228.861 165.496 234.823 165.496C240.785 165.496 246.636 163.889 251.762 160.844C249.96 170.288 241.336 176.559 232.714 175.528C225.423 174.655 219.257 168.693 217.884 160.844Z" fill="#CE497F"/>
<path d="M252.959 130.587C245.736 125.436 236.801 123.278 228.024 124.564C225.861 124.877 223.733 125.398 221.669 126.119C219.609 126.843 217.627 127.774 215.754 128.897C211.999 131.139 208.757 134.145 206.239 137.721C203.735 141.297 202.031 145.371 201.244 149.665C200.468 153.961 200.53 158.365 201.426 162.637C202.305 166.911 203.938 170.995 206.248 174.697C208.548 178.406 211.55 181.629 215.087 184.187C218.626 186.737 222.597 188.625 226.809 189.76C228.909 190.331 231.059 190.698 233.229 190.855C233.776 190.908 234.313 190.914 234.857 190.938C235.129 190.954 235.404 190.938 235.671 190.938H236.486C237.581 190.892 238.658 190.824 239.733 190.671C244.063 190.108 248.206 188.563 251.848 186.154C255.489 183.745 258.575 180.587 260.901 176.892C262.061 175.047 263.034 173.091 263.805 171.052C264.581 169.013 265.147 166.9 265.495 164.745C265.677 163.67 265.783 162.583 265.86 161.495C265.876 161.223 265.882 160.947 265.893 160.677C265.904 160.407 265.92 160.13 265.913 159.86C265.913 159.312 265.913 158.765 265.88 158.217C265.791 156.035 265.455 153.869 264.878 151.762C264.312 149.65 263.488 147.616 262.425 145.705C261.354 143.793 260.057 142.016 258.564 140.412C258.381 140.203 258.186 140.016 257.994 139.821L257.414 139.241C257.018 138.861 256.605 138.511 256.2 138.133C255.795 137.755 255.361 137.429 254.923 137.096C254.485 136.764 254.054 136.428 253.598 136.124C251.798 134.864 249.88 133.78 247.873 132.888C249.898 133.749 251.836 134.802 253.66 136.032C254.121 136.33 254.558 136.669 255.003 136.991C255.448 137.312 255.864 137.675 256.297 138.016C256.729 138.357 257.129 138.746 257.531 139.111L258.122 139.688C258.317 139.883 258.522 140.068 258.704 140.276C260.229 141.876 261.558 143.653 262.662 145.568C263.76 147.488 264.618 149.535 265.217 151.664C265.82 153.793 266.179 155.985 266.285 158.195C266.329 158.743 266.32 159.301 266.331 159.854C266.342 160.13 266.32 160.402 266.316 160.683C266.312 160.964 266.305 161.23 266.289 161.511C266.105 164.83 265.428 168.104 264.281 171.224C263.513 173.303 262.539 175.3 261.372 177.184C260.199 179.068 258.834 180.825 257.299 182.428C252.656 187.294 246.491 190.431 239.824 191.321C238.725 191.471 237.618 191.565 236.508 191.602H235.676C235.399 191.602 235.129 191.613 234.844 191.602C234.296 191.58 233.733 191.574 233.181 191.522C230.966 191.365 228.772 190.994 226.628 190.416C224.485 189.841 222.397 189.076 220.39 188.131C218.383 187.181 216.466 186.052 214.661 184.758C211.058 182.141 208 178.846 205.66 175.056C203.316 171.28 201.662 167.116 200.779 162.76C199.878 158.404 199.827 153.915 200.629 149.539C201.037 147.357 201.678 145.224 202.541 143.179C203.41 141.137 204.498 139.195 205.788 137.388C208.375 133.774 211.692 130.744 215.525 128.493C219.349 126.246 223.584 124.788 227.98 124.203C232.365 123.615 236.821 123.872 241.109 124.96C245.391 126.043 249.421 127.951 252.972 130.578L252.959 130.587Z" fill="#CE497F"/>
<path d="M1.78246 164.04C1.78246 164.04 -9.58546 239.064 38.1766 280.501C85.9387 321.937 99.0257 281.596 82.2321 275.703C65.4385 269.81 65.8911 299.039 94.3501 312.343C122.809 325.647 153.115 266.107 206.987 287.045C260.859 307.983 284.236 214.729 256.262 182.343" stroke="#CE497F" stroke-width="0.5475" stroke-linecap="round" stroke-linejoin="round"/>
</svg>
