<svg width="273" height="57" viewBox="0 0 273 57" fill="none" xmlns="http://www.w3.org/2000/svg">
<path d="M25.4916 45.3853C17.5697 45.3853 13.0186 41.0162 13.0186 33.6399C13.0186 26.1747 17.7516 21.1669 26.2191 21.1669C28.0662 21.1669 29.7597 21.3407 31.3482 21.66L35.2889 12.6023C31.5745 10.9856 28.143 10.3349 23.8506 10.3349C9.74073 10.3308 0 20.2575 0 34.0036C0 47.386 8.01084 56.3103 21.5792 56.3103C27.2255 56.3103 31.4088 55.5464 35.4102 53.7155L30.6691 44.9326C29.0201 45.2237 27.2902 45.3853 25.4916 45.3853ZM75.618 17.0806C79.7648 21.0658 82.0525 26.7244 82.0565 33.555C82.0525 40.0299 79.6396 45.7289 75.4037 49.8313C71.1639 53.9337 65.0891 56.4558 57.6522 56.4599C50.0132 56.4558 43.9667 54.059 39.8077 50.0415C35.6567 46.0199 33.3448 40.3331 33.3408 33.555C33.3448 27.0356 35.8022 21.3649 40.0461 17.2948C44.294 13.2248 50.3527 10.7471 57.6481 10.7431C65.3963 10.7431 71.467 13.0954 75.618 17.0806ZM68.3064 33.551C68.3064 29.8487 67.4293 26.882 65.5781 24.8288C64.6566 23.8062 63.5007 23.0302 62.1669 22.529C60.8331 22.0237 59.3214 21.7812 57.6603 21.7812C54.5158 21.7732 51.7916 22.9453 49.9121 25.0389C48.0287 27.1326 47.0061 30.0831 47.0101 33.551C47.0101 37.1724 47.9155 40.131 49.7707 42.2044C50.6963 43.2351 51.8482 44.0273 53.1779 44.5487C54.5077 45.0701 56.0112 45.3247 57.6562 45.3247C60.8331 45.3328 63.5653 44.189 65.4407 42.0994C67.3161 40.0138 68.3064 37.0552 68.3064 33.551ZM113.102 10.7391C118.691 10.7391 124.681 11.9678 129.839 13.5643V54.8674H116.739V48.6026L114.985 50.4093C113.409 52.03 111.541 53.5376 109.266 54.641C106.99 55.7445 104.307 56.4518 101.045 56.4558C95.8714 56.4477 91.6881 54.2732 88.7134 50.6599C85.7467 47.0425 84.0249 41.9458 84.0249 36.166C84.033 28.0299 86.8137 21.757 91.7811 17.4363C96.7566 13.1237 104.024 10.7391 113.102 10.7391ZM115.333 21.7853C114.112 21.6923 112.778 21.5953 111.42 21.5953C107.128 21.5913 103.684 22.7715 101.324 25.0187C98.9593 27.2619 97.7751 30.5034 97.7791 34.3027C97.7791 37.6332 98.5592 40.3775 100.131 42.3297C101.7 44.29 104.076 45.3409 106.841 45.3287C108.538 45.3287 110.131 44.9367 111.626 44.2253C113.126 43.514 114.532 42.4954 115.935 41.2344L116.274 40.9313V40.4745V21.858L115.333 21.7853ZM191.141 10.7391C196.73 10.7391 202.72 11.9678 207.878 13.5643V54.8674H194.778V48.6026L193.024 50.4093C191.448 52.03 189.58 53.5376 187.305 54.641C185.029 55.7445 182.346 56.4518 179.084 56.4558C173.91 56.4477 169.727 54.2732 166.752 50.6599C163.786 47.0425 162.064 41.9458 162.064 36.166C162.072 28.0299 164.853 21.757 169.82 17.4363C174.792 13.1237 182.059 10.7391 191.141 10.7391ZM193.368 21.7853C192.147 21.6923 190.813 21.5953 189.455 21.5953C185.163 21.5913 181.719 22.7715 179.355 25.0187C176.99 27.2619 175.806 30.5034 175.814 34.3027C175.814 37.6332 176.594 40.3775 178.166 42.3297C179.735 44.29 182.107 45.3409 184.876 45.3287C186.573 45.3287 188.166 44.9367 189.661 44.2253C191.161 43.514 192.567 42.4954 193.97 41.2344L194.309 40.9313V40.4745V21.858L193.368 21.7853ZM152.529 44.286C151.45 43.6676 150.65 42.7703 150.1 41.7679C149.001 39.747 148.783 37.3139 148.774 35.0666V0H135.024V32.5041C135.02 38.8619 135.586 43.6716 136.823 47.2001C138.072 50.7326 139.911 52.9718 142.635 54.4672C144.458 55.4615 146.705 56.1123 149.458 56.4679C150.387 56.5892 151.256 56.6417 152.069 56.6417C155.593 56.6337 158.087 55.6232 160.079 54.2854V44.7831C158.762 45.0903 157.586 45.2398 156.523 45.2398C154.942 45.2439 153.608 44.9084 152.529 44.286Z" fill="#6F46BE"/>
<path d="M272.381 15.565C272.381 18.5478 269.96 20.9688 266.977 20.9688C263.994 20.9688 261.573 18.5478 261.573 15.565C261.573 12.5821 263.994 10.1611 266.977 10.1611C269.96 10.1611 272.381 12.5821 272.381 15.565ZM229.045 10.1611C226.062 10.1611 223.641 12.5821 223.641 15.565C223.641 18.5478 226.062 20.9688 229.045 20.9688C232.027 20.9688 234.448 18.5478 234.448 15.565C234.448 12.5821 232.027 10.1611 229.045 10.1611ZM248.312 19.9948H247.705C241.659 19.9948 236.756 24.8975 236.756 30.944V45.3894C236.756 51.6057 241.796 56.6417 248.009 56.6417C254.225 56.6417 259.261 51.6016 259.261 45.3894V30.948C259.265 24.8975 254.362 19.9948 248.312 19.9948Z" fill="#6F46BE"/>
</svg>
