<svg viewBox="0 0 125 27" fill="none" xmlns="http://www.w3.org/2000/svg">
<path d="M11.655 21.5657C8.03299 21.5657 5.95221 19.5681 5.95221 16.1956C5.95221 12.7824 8.11615 10.4928 11.9876 10.4928C12.8321 10.4928 13.6064 10.5723 14.3326 10.7183L16.1344 6.57706C14.4361 5.83789 12.8672 5.54037 10.9047 5.54037C4.45353 5.53852 0 10.0771 0 16.3619C0 22.4804 3.66262 26.5607 9.86615 26.5607C12.4477 26.5607 14.3603 26.2114 16.1898 25.3743L14.0222 21.3587C13.2682 21.4918 12.4773 21.5657 11.655 21.5657ZM34.5731 8.62458C36.4691 10.4466 37.515 13.0338 37.5169 16.1568C37.515 19.1172 36.4118 21.7228 34.4752 23.5984C32.5367 25.4741 29.7592 26.6272 26.359 26.6291C22.8664 26.6272 20.1019 25.5314 18.2004 23.6945C16.3025 21.8558 15.2455 19.2558 15.2437 16.1568C15.2455 13.1761 16.369 10.5834 18.3094 8.72252C20.2516 6.86164 23.0216 5.72886 26.3572 5.72701C29.8997 5.72701 32.6753 6.80251 34.5731 8.62458ZM31.2302 16.1549C31.2302 14.4622 30.8292 13.1058 29.9828 12.1671C29.5615 11.6996 29.033 11.3447 28.4232 11.1156C27.8133 10.8846 27.1222 10.7737 26.3627 10.7737C24.925 10.77 23.6795 11.3059 22.8202 12.2632C21.9591 13.2204 21.4915 14.5694 21.4934 16.1549C21.4934 17.8107 21.9073 19.1634 22.7555 20.1114C23.1787 20.5826 23.7054 20.9448 24.3133 21.1832C24.9213 21.4216 25.6087 21.538 26.3609 21.538C27.8133 21.5417 29.0625 21.0187 29.92 20.0633C30.7774 19.1098 31.2302 17.7571 31.2302 16.1549ZM51.7109 5.72516C54.2666 5.72516 57.0052 6.28694 59.3632 7.01687V25.901H53.374V23.0367L52.572 23.8627C51.8513 24.6037 50.9976 25.293 49.9572 25.7975C48.9168 26.302 47.6898 26.6254 46.1985 26.6272C43.8331 26.6235 41.9205 25.6293 40.5604 23.9773C39.204 22.3234 38.4168 19.9931 38.4168 17.3506C38.4205 13.6306 39.6919 10.7626 41.963 8.7872C44.2378 6.81545 47.5604 5.72516 51.7109 5.72516ZM52.731 10.7756C52.1729 10.7331 51.5631 10.6887 50.9422 10.6887C48.9796 10.6869 47.4052 11.2265 46.326 12.2539C45.245 13.2795 44.7035 14.7616 44.7054 16.4987C44.7054 18.0214 45.062 19.2761 45.7809 20.1687C46.4979 21.0649 47.5844 21.5454 48.8484 21.5398C49.6246 21.5398 50.3527 21.3606 51.0364 21.0353C51.722 20.7101 52.3651 20.2444 53.0063 19.6679L53.1615 19.5293V19.3205V10.8088L52.731 10.7756ZM87.3909 5.72516C89.9466 5.72516 92.6853 6.28694 95.0432 7.01687V25.901H89.0541V23.0367L88.252 23.8627C87.5314 24.6037 86.6776 25.293 85.6372 25.7975C84.5968 26.302 83.3698 26.6254 81.8785 26.6272C79.5131 26.6235 77.6005 25.6293 76.2404 23.9773C74.8841 22.3234 74.0968 19.9931 74.0968 17.3506C74.1005 13.6306 75.3719 10.7626 77.643 8.7872C79.916 6.81545 83.2386 5.72516 87.3909 5.72516ZM88.4091 10.7756C87.851 10.7331 87.2412 10.6887 86.6203 10.6887C84.6578 10.6869 83.0834 11.2265 82.0023 12.2539C80.9213 13.2795 80.3798 14.7616 80.3835 16.4987C80.3835 18.0214 80.7402 19.2761 81.459 20.1687C82.176 21.0649 83.2608 21.5454 84.5266 21.5398C85.3027 21.5398 86.0308 21.3606 86.7146 21.0353C87.4001 20.7101 88.0432 20.2444 88.6845 19.6679L88.8397 19.5293V19.3205V10.8088L88.4091 10.7756ZM69.7375 21.0631C69.2441 20.7803 68.8782 20.3701 68.6269 19.9118C68.1243 18.9878 68.0245 17.8754 68.0208 16.8479V0.815186H61.7341V15.6763C61.7323 18.5831 61.991 20.7822 62.5564 22.3954C63.1275 24.0105 63.9683 25.0343 65.2138 25.718C66.0472 26.1726 67.0747 26.4701 68.3331 26.6328C68.7581 26.6882 69.1554 26.7122 69.5269 26.7122C71.1383 26.7085 72.2785 26.2465 73.1895 25.6349V21.2904C72.5871 21.4308 72.0493 21.4992 71.5633 21.4992C70.8408 21.501 70.2309 21.3476 69.7375 21.0631Z" fill="#6F46BE"/>
<path d="M124.534 7.93163C124.534 9.29541 123.428 10.4023 122.064 10.4023C120.7 10.4023 119.593 9.29541 119.593 7.93163C119.593 6.56785 120.7 5.46094 122.064 5.46094C123.428 5.46094 124.534 6.56785 124.534 7.93163ZM104.721 5.46094C103.357 5.46094 102.25 6.56785 102.25 7.93163C102.25 9.29541 103.357 10.4023 104.721 10.4023C106.085 10.4023 107.192 9.29541 107.192 7.93163C107.192 6.56785 106.085 5.46094 104.721 5.46094ZM113.53 9.95698H113.253C110.488 9.95698 108.247 12.1985 108.247 14.963V21.5676C108.247 24.4097 110.551 26.7122 113.391 26.7122C116.234 26.7122 118.536 24.4079 118.536 21.5676V14.9649C118.538 12.1985 116.296 9.95698 113.53 9.95698Z" fill="#6F46BE"/>
</svg>
