<?xml version="1.0" encoding="UTF-8"?>
<svg overflow="visible" version="1.1" viewBox="0 0 320 110" xml:space="preserve" xmlns="http://www.w3.org/2000/svg">

	
	<path d="m62.915 72.28c-9.8045 0-15.437-5.4075-15.437-14.537 0-9.2393 5.8577-15.437 16.338-15.437 2.2861 0 4.382 0.21509 6.3479 0.61028l4.8773-11.21c-4.5971-2.0009-8.8441-2.8063-14.157-2.8063-17.468 0-29.524 12.281-29.524 29.299 0 16.563 9.9146 27.608 26.707 27.608 6.9882 0 12.166-0.94544 17.118-3.2115l-5.8677-10.87c-2.0409 0.35516-4.1819 0.55526-6.403 0.55526zm62.034-35.036c5.1324 4.9323 7.9637 11.936 7.9687 20.389-5e-3 8.0137-2.9914 15.067-8.2338 20.144-5.2474 5.0773-12.766 8.1988-21.97 8.2038-9.4544-5e-3 -16.938-2.9714-22.085-7.9437-5.1374-4.9773-7.9987-12.016-8.0037-20.404 5e-3 -8.0687 3.0464-15.087 8.2988-20.124 5.2574-5.0373 12.756-8.1037 21.785-8.1087 9.5894 0 17.103 2.9164 22.24 7.8436zm-9.0492 20.389c0-4.5821-1.0855-8.2538-3.3766-10.795-1.1405-1.2656-2.5712-2.226-4.222-2.8463-1.6508-0.62528-3.5216-0.92542-5.5776-0.92542-3.8918-0.01006-7.2634 1.4407-9.5894 4.0319-2.3311 2.5912-3.5967 6.2429-3.5917 10.535 0 4.4821 1.1205 8.1438 3.4166 10.71 1.1455 1.2756 2.5712 2.256 4.2169 2.9013 1.6458 0.6453 3.5066 0.96044 5.5426 0.96044 3.9318 0.01 7.3134-1.4056 9.6345-3.9918 2.3211-2.5862 3.5466-6.2429 3.5466-10.58zm55.446-28.238c6.9182 0 14.332 1.5207 20.715 3.4966v51.119h-16.212v-7.7536l-2.171 2.236c-1.9509 2.0059-4.262 3.8718-7.0783 5.2374s-6.1378 2.241-10.175 2.246c-6.403-0.01-11.58-2.7012-15.262-7.1733-3.6717-4.4771-5.8027-10.785-5.8027-17.938 0.01-10.07 3.4516-17.833 9.5994-23.181 6.1528-5.3375 15.147-8.2838 26.387-8.2888zm2.7563 13.671c-1.5107-0.11505-3.1615-0.23512-4.8422-0.23512-5.3124-0.0048-9.5744 1.4557-12.496 4.237-2.9264 2.7763-4.392 6.7881-4.387 11.49 0 4.1219 0.96545 7.5185 2.9114 9.9346 1.9409 2.4261 4.8822 3.7267 8.3038 3.7117 2.101 0 4.0719-0.48522 5.9227-1.3656 1.8559-0.88041 3.5967-2.141 5.3325-3.7017l0.4202-0.37518v-23.601zm93.823-13.671c6.9182 0 14.332 1.5207 20.715 3.4966v51.119h-16.212v-7.7536l-2.171 2.236c-1.9509 2.0059-4.262 3.8718-7.0783 5.2374s-6.1378 2.241-10.175 2.246c-6.403-0.01-11.58-2.7012-15.262-7.1733-3.6717-4.4771-5.8027-10.785-5.8027-17.938 0.0101-10.07 3.4516-17.833 9.5994-23.181 6.1528-5.3375 15.147-8.2838 26.387-8.2888zm2.7563 13.671c-1.5107-0.11505-3.1615-0.23512-4.8422-0.23512-5.3124-0.0048-9.5744 1.4557-12.501 4.237-2.9264 2.7763-4.392 6.7881-4.382 11.49 0 4.1219 0.96545 7.5185 2.9114 9.9346 1.9409 2.4261 4.8772 3.7267 8.3038 3.7117 2.101 0 4.0719-0.48522 5.9227-1.3656 1.8559-0.88041 3.5967-2.141 5.3325-3.7017l0.4202-0.37518v-23.601zm-50.543 27.853c-1.3356-0.76535-2.3261-1.8759-3.0064-3.1164-1.3606-2.5012-1.6308-5.5125-1.6408-8.2938v-43.4h-17.018v40.229c-5e-3 7.8686 0.69531 13.821 2.226 18.188 1.5457 4.372 3.8218 7.1433 7.1933 8.9942 2.256 1.2306 5.0373 2.0359 8.4439 2.4761 1.1505 0.15007 2.226 0.2151 3.2315 0.2151 4.362-0.01 7.4484-1.2606 9.9146-2.9163v-11.76c-1.6308 0.38018-3.0864 0.56526-4.402 0.56526-1.9559 0-3.6067-0.41019-4.9423-1.1805z" fill="#6f46be" stroke-width=".50023"/>
	
	
	
	
	
	
	
	
	
	
	
	
	
	
	
	
	
	
	
	
	
	
	
	
	
	
	
	
	
	
	
	
	
	
	
	
	
	
	
	
	
	
	
	
	
	
	
	
	
	
	
	
	
	
	
	
	






</svg>
