<?xml version="1.0" encoding="utf-8"?>
<!-- Generator: Adobe Illustrator 25.0.0, SVG Export Plug-In . SVG Version: 6.00 Build 0)  -->
<svg version="1.1" id="Layer_1" xmlns="http://www.w3.org/2000/svg" xmlns:xlink="http://www.w3.org/1999/xlink" x="0px" y="0px"
	 viewBox="0 0 357 74" style="enable-background:new 0 0 357 74;" xml:space="preserve">
<style type="text/css">
	.st0{fill:#FEF592;}
</style>
<path class="st0" d="M34.1,59.3c-10.3,0-16.3-5.7-16.3-15.3c0-9.8,6.2-16.3,17.2-16.3c2.4,0,4.6,0.2,6.7,0.6l5.1-11.8
	c-4.9-2.1-9.3-3-14.9-3c-18.4,0-31.2,13-31.2,30.9c0,17.5,10.5,29.1,28.2,29.1c7.4,0,12.8-1,18.1-3.4l-6.2-11.5
	C38.7,59.1,36.4,59.3,34.1,59.3z M99.6,22.3c5.4,5.2,8.4,12.6,8.4,21.5c0,8.5-3.2,15.9-8.7,21.3c-5.5,5.4-13.5,8.7-23.2,8.7
	c-10,0-17.9-3.1-23.3-8.4c-5.4-5.3-8.4-12.7-8.4-21.5c0-8.5,3.2-15.9,8.8-21.2c5.5-5.3,13.5-8.6,23-8.6C86.2,14,94.1,17.1,99.6,22.3
	z M90,43.8c0-4.8-1.1-8.7-3.6-11.4c-1.2-1.3-2.7-2.3-4.5-3c-1.7-0.7-3.7-1-5.9-1c-4.1,0-7.7,1.5-10.1,4.3c-2.5,2.7-3.8,6.6-3.8,11.1
	c0,4.7,1.2,8.6,3.6,11.3c1.2,1.3,2.7,2.4,4.5,3.1c1.7,0.7,3.7,1,5.9,1c4.2,0,7.7-1.5,10.2-4.2C88.7,52.3,90,48.4,90,43.8z M148.5,14
	c7.3,0,15.1,1.6,21.9,3.7v54h-17.1v-8.2l-2.3,2.4c-2.1,2.1-4.5,4.1-7.5,5.5c-3,1.4-6.5,2.4-10.7,2.4c-6.8,0-12.2-2.9-16.1-7.6
	c-3.9-4.7-6.1-11.4-6.1-18.9c0-10.6,3.6-18.8,10.1-24.5C127.2,17.1,136.7,14,148.5,14z M151.4,28.5c-1.6-0.1-3.3-0.2-5.1-0.2
	c-5.6,0-10.1,1.5-13.2,4.5c-3.1,2.9-4.6,7.2-4.6,12.1c0,4.4,1,7.9,3.1,10.5c2,2.6,5.2,3.9,8.8,3.9c2.2,0,4.3-0.5,6.3-1.4
	c2-0.9,3.8-2.3,5.6-3.9l0.4-0.4v-0.6V28.6L151.4,28.5z M250.5,14c7.3,0,15.1,1.6,21.9,3.7v54h-17.1v-8.2l-2.3,2.4
	c-2.1,2.1-4.5,4.1-7.5,5.5c-3,1.4-6.5,2.4-10.7,2.4c-6.8,0-12.2-2.9-16.1-7.6c-3.9-4.7-6.1-11.4-6.1-18.9c0-10.6,3.6-18.8,10.1-24.5
	C229.1,17.1,238.6,14,250.5,14z M253.4,28.5c-1.6-0.1-3.3-0.2-5.1-0.2c-5.6,0-10.1,1.5-13.2,4.5c-3.1,2.9-4.6,7.2-4.6,12.1
	c0,4.4,1,7.9,3.1,10.5c2,2.6,5.1,3.9,8.8,3.9c2.2,0,4.3-0.5,6.3-1.4c2-0.9,3.8-2.3,5.6-3.9l0.4-0.4v-0.6V28.6L253.4,28.5z M200,57.9
	c-1.4-0.8-2.5-2-3.2-3.3c-1.4-2.6-1.7-5.8-1.7-8.8V0h-18v42.5c0,8.3,0.7,14.6,2.3,19.2c1.6,4.6,4,7.5,7.6,9.5
	c2.4,1.3,5.3,2.1,8.9,2.6c1.2,0.2,2.3,0.2,3.4,0.2c4.6,0,7.9-1.3,10.5-3.1V58.5c-1.7,0.4-3.3,0.6-4.6,0.6
	C203.2,59.1,201.4,58.7,200,57.9z"/>
<path class="st0" d="M356.6,20.3c0,3.9-3.2,7.1-7.1,7.1c-3.9,0-7.1-3.2-7.1-7.1c0-3.9,3.2-7.1,7.1-7.1
	C353.4,13.3,356.6,16.4,356.6,20.3z M300,13.3c-3.9,0-7.1,3.2-7.1,7.1c0,3.9,3.2,7.1,7.1,7.1s7.1-3.2,7.1-7.1
	C307,16.4,303.9,13.3,300,13.3z M325.2,26.1h-0.8c-7.9,0-14.3,6.4-14.3,14.3v18.9c0,8.1,6.6,14.7,14.7,14.7
	c8.1,0,14.7-6.6,14.7-14.7V40.4C339.5,32.5,333.1,26.1,325.2,26.1z"/>
</svg>
