<svg width="72" height="20" viewBox="0 0 72 20" fill="none" xmlns="http://www.w3.org/2000/svg">
<path d="M8.75172 15.5748C6.03317 15.5748 4.47139 14.0754 4.47139 11.5441C4.47139 8.98231 6.09559 7.2638 9.00138 7.2638C9.63525 7.2638 10.2164 7.32344 10.7615 7.43302L12.1138 4.32471C10.8392 3.76991 9.6616 3.5466 8.18859 3.5466C3.34652 3.54521 0.0038147 6.95172 0.0038147 11.669C0.0038147 16.2614 2.75288 19.3239 7.40909 19.3239C9.34675 19.3239 10.7823 19.0618 12.1555 18.4334L10.5285 15.4195C9.96259 15.5193 9.36894 15.5748 8.75172 15.5748ZM25.9535 5.86153C27.3766 7.22912 28.1616 9.17095 28.163 11.515C28.1616 13.737 27.3336 15.6927 25.88 17.1005C24.425 18.5083 22.3403 19.3738 19.7882 19.3752C17.1667 19.3738 15.0918 18.5513 13.6645 17.1726C12.2401 15.7926 11.4467 13.841 11.4453 11.515C11.4467 9.27775 12.29 7.33176 13.7464 5.93504C15.2041 4.53831 17.2833 3.68807 19.7868 3.68669C22.4457 3.68669 24.529 4.49393 25.9535 5.86153ZM23.4444 11.5136C23.4444 10.2431 23.1434 9.22504 22.5081 8.52044C22.1919 8.16952 21.7952 7.90321 21.3375 7.73122C20.8798 7.55785 20.361 7.47463 19.791 7.47463C18.7119 7.47185 17.777 7.87409 17.1321 8.59256C16.4857 9.31103 16.1348 10.3236 16.1362 11.5136C16.1362 12.7564 16.4469 13.7717 17.0835 14.4832C17.4011 14.8369 17.7964 15.1088 18.2528 15.2877C18.7091 15.4666 19.2251 15.554 19.7896 15.554C20.8798 15.5568 21.8174 15.1642 22.461 14.4472C23.1046 13.7315 23.4444 12.7162 23.4444 11.5136ZM38.8167 3.6853C40.7349 3.6853 42.7905 4.10695 44.5603 4.65482V18.8287H40.065V16.6789L39.463 17.2989C38.9221 17.855 38.2813 18.3724 37.5004 18.7511C36.7195 19.1297 35.7985 19.3724 34.6792 19.3738C32.9038 19.3711 31.4683 18.6248 30.4474 17.3849C29.4293 16.1435 28.8385 14.3944 28.8385 12.411C28.8413 9.61895 29.7955 7.4663 31.5002 5.98358C33.2076 4.50364 35.7014 3.6853 38.8167 3.6853ZM39.5823 7.47601C39.1634 7.44411 38.7057 7.41082 38.2397 7.41082C36.7667 7.40944 35.5849 7.81445 34.7749 8.58563C33.9635 9.35542 33.5571 10.4678 33.5585 11.7716C33.5585 12.9145 33.8262 13.8563 34.3657 14.5262C34.9039 15.1989 35.7195 15.5595 36.6682 15.5554C37.2507 15.5554 37.7972 15.4208 38.3104 15.1767C38.825 14.9326 39.3077 14.5831 39.789 14.1503L39.9055 14.0463V13.8896V7.50098L39.5823 7.47601ZM65.5972 3.6853C67.5154 3.6853 69.571 4.10695 71.3408 4.65482V18.8287H66.8455V16.6789L66.2435 17.2989C65.7026 17.855 65.0618 18.3724 64.2809 18.7511C63.5 19.1297 62.579 19.3724 61.4597 19.3738C59.6843 19.3711 58.2488 18.6248 57.2279 17.3849C56.2098 16.1435 55.619 14.3944 55.619 12.411C55.6217 9.61895 56.576 7.4663 58.2807 5.98358C59.9867 4.50364 62.4805 3.6853 65.5972 3.6853ZM66.3614 7.47601C65.9425 7.44411 65.4848 7.41082 65.0188 7.41082C63.5458 7.40944 62.364 7.81445 61.5526 8.58563C60.7412 9.35542 60.3348 10.4678 60.3376 11.7716C60.3376 12.9145 60.6053 13.8563 61.1448 14.5262C61.683 15.1989 62.4972 15.5595 63.4473 15.5554C64.0298 15.5554 64.5763 15.4208 65.0895 15.1767C65.6041 14.9326 66.0868 14.5831 66.5681 14.1503L66.6846 14.0463V13.8896V7.50098L66.3614 7.47601ZM52.347 15.1975C51.9767 14.9853 51.702 14.6774 51.5134 14.3334C51.1361 13.6399 51.0612 12.8049 51.0585 12.0337V0H46.3398V11.1544C46.3385 13.3362 46.5326 14.9867 46.9571 16.1976C47.3856 17.4098 48.0167 18.1782 48.9516 18.6914C49.5771 19.0326 50.3483 19.2559 51.2929 19.378C51.6119 19.4196 51.9101 19.4376 52.1889 19.4376C53.3984 19.4349 54.2542 19.0881 54.9379 18.629V15.3681C54.4858 15.4735 54.0822 15.5249 53.7174 15.5249C53.1751 15.5263 52.7173 15.4111 52.347 15.1975Z" fill="white"/>
</svg>
