<svg width="100%" height="467" viewBox="0 0 695 467" fill="none" xmlns="http://www.w3.org/2000/svg">
<rect x="694.716" y="327.205" width="651.412" height="272.55" rx="136.275" transform="rotate(167.612 694.716 327.205)" fill="#EEE8FF"/>
<path d="M530.076 128.568H167.509C161.28 128.568 156.215 133.634 156.215 139.862V395.885C156.215 402.113 161.28 407.179 167.509 407.179H306.606C306.606 407.179 315.492 434.583 288.004 448.701H418.133C418.133 448.701 387.158 438.071 395.13 407.179H529.993C536.221 407.179 541.287 402.113 541.287 395.885V139.945C541.37 133.634 536.304 128.568 530.076 128.568Z" fill="#6F46BE"/>
<path d="M353.609 380.356C358.508 387.415 350.785 395.138 343.81 390.155C343.56 389.989 343.394 389.74 343.228 389.574C338.329 382.515 346.052 374.792 353.027 379.775C353.276 379.941 353.526 380.107 353.609 380.356Z" fill="#FEF592"/>
<path d="M535.142 360.426H162.443V141.357C162.443 136.873 166.014 133.302 170.498 133.302H527.086C531.571 133.302 535.142 136.873 535.142 141.357V360.426Z" fill="white"/>
<path d="M535.142 152.153H162.443V140.942C162.443 136.707 165.848 133.302 170.083 133.302H528.913C532.401 133.302 535.142 136.126 535.142 139.531V152.153Z" fill="#F4679D"/>
<path d="M174.318 145.758C175.786 145.758 176.975 144.568 176.975 143.101C176.975 141.633 175.786 140.443 174.318 140.443C172.85 140.443 171.661 141.633 171.661 143.101C171.661 144.568 172.85 145.758 174.318 145.758Z" fill="#E0E0E0"/>
<path d="M182.124 145.758C183.592 145.758 184.781 144.568 184.781 143.101C184.781 141.633 183.592 140.443 182.124 140.443C180.656 140.443 179.467 141.633 179.467 143.101C179.467 144.568 180.656 145.758 182.124 145.758Z" fill="#E0E0E0"/>
<path d="M189.598 145.758C191.066 145.758 192.255 144.568 192.255 143.101C192.255 141.633 191.066 140.443 189.598 140.443C188.13 140.443 186.941 141.633 186.941 143.101C186.941 144.568 188.13 145.758 189.598 145.758Z" fill="#E0E0E0"/>
<path d="M465.219 407.345C465.219 407.428 413.649 407.594 350.038 407.594C286.427 407.594 234.857 407.511 234.857 407.345C234.857 407.262 286.427 407.096 350.038 407.096C413.649 407.096 465.219 407.179 465.219 407.345Z" fill="#6F46BE"/>
<path d="M564.332 329.402H468.085C462.687 329.402 458.286 325.001 458.286 319.603V216.131C458.286 210.733 462.687 206.332 468.085 206.332H564.332C569.73 206.332 574.132 210.733 574.132 216.131V319.603C574.132 325.001 569.73 329.402 564.332 329.402Z" fill="#F5F5F5"/>
<path d="M568.9 328.489V217.376H574.132V320.599C574.132 324.669 569.979 328.821 568.9 328.489Z" fill="#C0AFE9"/>
<path d="M574.132 217.377H458.203V216.214C458.203 210.733 462.604 206.332 468.085 206.332H564.249C569.73 206.332 574.132 210.733 574.132 216.214V217.377Z" fill="#F4679D"/>
<path d="M571.557 249.266C570.145 249.266 568.983 248.103 568.983 246.691V231.993C568.983 230.581 570.145 229.418 571.557 229.418C572.969 229.418 574.131 230.581 574.131 231.993V246.691C574.131 248.103 572.969 249.266 571.557 249.266Z" fill="#F4679D"/>
<path d="M563.419 222.775H465.511V317.527H563.419V222.775Z" fill="#6F46BE"/>
<path d="M468.75 214.221C469.896 214.221 470.826 213.329 470.826 212.228C470.826 211.128 469.896 210.235 468.75 210.235C467.603 210.235 466.673 211.128 466.673 212.228C466.673 213.329 467.603 214.221 468.75 214.221Z" fill="#C0AFE9"/>
<path d="M474.895 214.221C476.041 214.221 476.971 213.329 476.971 212.228C476.971 211.128 476.041 210.235 474.895 210.235C473.748 210.235 472.819 211.128 472.819 212.228C472.819 213.329 473.748 214.221 474.895 214.221Z" fill="#C0AFE9"/>
<path d="M481.123 214.221C482.27 214.221 483.199 213.329 483.199 212.228C483.199 211.128 482.27 210.235 481.123 210.235C479.976 210.235 479.047 211.128 479.047 212.228C479.047 213.329 479.976 214.221 481.123 214.221Z" fill="#C0AFE9"/>
<path d="M250.399 333.344H145.679C141.017 333.344 137.215 329.542 137.215 324.88V173.754C137.215 169.092 141.017 165.29 145.679 165.29H250.399C255.061 165.29 258.862 169.092 258.862 173.754V324.88C258.934 329.542 255.133 333.344 250.399 333.344Z" fill="#C0AFE9"/>
<path d="M258.934 180.352H137.215V173.754C137.215 169.02 141.017 165.218 145.751 165.218H250.327C255.061 165.218 258.862 169.02 258.862 173.754V180.352H258.934Z" fill="#F4679D"/>
<path d="M144.89 175.26C146.237 175.26 147.329 174.168 147.329 172.821C147.329 171.475 146.237 170.383 144.89 170.383C143.543 170.383 142.451 171.475 142.451 172.821C142.451 174.168 143.543 175.26 144.89 175.26Z" fill="white"/>
<path d="M152.134 175.26C153.481 175.26 154.573 174.168 154.573 172.821C154.573 171.475 153.481 170.383 152.134 170.383C150.787 170.383 149.696 171.475 149.696 172.821C149.696 174.168 150.787 175.26 152.134 175.26Z" fill="white"/>
<path d="M159.45 175.26C160.797 175.26 161.889 174.168 161.889 172.821C161.889 171.475 160.797 170.383 159.45 170.383C158.103 170.383 157.011 171.475 157.011 172.821C157.011 174.168 158.103 175.26 159.45 175.26Z" fill="white"/>
<path d="M253.411 180.353H142.666V329.973H253.411V180.353Z" fill="white"/>
<path d="M256.137 223.962C254.63 223.962 253.411 222.743 253.411 221.236V199.503C253.411 197.997 254.63 196.778 256.137 196.778C257.643 196.778 258.862 197.997 258.862 199.503V221.165C258.934 222.743 257.643 223.962 256.137 223.962Z" fill="#F4679D"/>
<path d="M225.079 191.112C225.079 191.112 225.151 191.112 225.366 191.112C225.582 191.112 225.868 191.112 226.227 191.112V191.183C222.928 191.255 211.595 191.327 198.111 191.327C190.077 191.327 182.761 191.255 177.382 191.255C174.728 191.255 172.648 191.183 171.142 191.183C170.424 191.183 169.85 191.183 169.42 191.183C169.061 191.183 168.846 191.183 168.846 191.112C168.846 191.112 169.061 191.112 169.42 191.04C169.85 191.04 170.424 191.04 171.142 191.04C172.648 191.04 174.8 191.04 177.382 190.968C182.689 190.968 190.005 190.968 198.111 190.896C211.595 190.896 222.856 190.968 226.227 191.04V191.112C225.868 191.112 225.582 191.112 225.366 191.112C225.151 191.112 225.079 191.112 225.079 191.112Z" fill="#6F46BE"/>
<path d="M244.015 203.736C244.015 203.807 223.43 203.951 198.11 203.951C172.72 203.951 152.134 203.879 152.134 203.736C152.134 203.592 172.72 203.521 198.11 203.521C223.43 203.592 244.015 203.664 244.015 203.736Z" fill="#6F46BE"/>
<path d="M244.015 210.334C244.015 210.406 223.43 210.549 198.11 210.549C172.72 210.549 152.134 210.478 152.134 210.334C152.134 210.263 172.72 210.119 198.11 210.119C223.43 210.191 244.015 210.263 244.015 210.334Z" fill="#6F46BE"/>
<path d="M244.015 216.933C244.015 217.005 223.43 217.148 198.11 217.148C172.72 217.148 152.134 217.076 152.134 216.933C152.134 216.861 172.72 216.718 198.11 216.718C223.43 216.789 244.015 216.861 244.015 216.933Z" fill="#6F46BE"/>
<path d="M244.015 223.532C244.015 223.603 223.43 223.747 198.11 223.747C172.72 223.747 152.134 223.675 152.134 223.532C152.134 223.388 172.72 223.316 198.11 223.316C223.43 223.388 244.015 223.46 244.015 223.532Z" fill="#6F46BE"/>
<path d="M244.015 230.13C244.015 230.202 223.43 230.345 198.11 230.345C172.72 230.345 152.134 230.274 152.134 230.13C152.134 230.058 172.72 229.915 198.11 229.915C223.43 229.915 244.015 230.058 244.015 230.13Z" fill="#6F46BE"/>
<path d="M244.015 236.73C244.015 236.802 223.43 236.945 198.11 236.945C172.72 236.945 152.134 236.873 152.134 236.73C152.134 236.658 172.72 236.515 198.11 236.515C223.43 236.515 244.015 236.586 244.015 236.73Z" fill="#6F46BE"/>
<path d="M244.015 300.494C244.015 300.566 223.43 300.709 198.11 300.709C172.72 300.709 152.134 300.637 152.134 300.494C152.134 300.351 172.72 300.279 198.11 300.279C223.43 300.279 244.015 300.422 244.015 300.494Z" fill="#6F46BE"/>
<path d="M244.015 307.093C244.015 307.164 223.43 307.308 198.11 307.308C172.72 307.308 152.134 307.236 152.134 307.093C152.134 307.021 172.72 306.877 198.11 306.877C223.43 306.877 244.015 307.021 244.015 307.093Z" fill="#6F46BE"/>
<path d="M244.015 313.691C244.015 313.763 223.43 313.906 198.11 313.906C172.72 313.906 152.134 313.835 152.134 313.691C152.134 313.62 172.72 313.476 198.11 313.476C223.43 313.476 244.015 313.548 244.015 313.691Z" fill="#6F46BE"/>
<path d="M244.015 320.29C244.015 320.362 223.43 320.505 198.11 320.505C172.72 320.505 152.134 320.433 152.134 320.29C152.134 320.146 172.72 320.075 198.11 320.075C223.43 320.075 244.015 320.146 244.015 320.29Z" fill="#6F46BE"/>
<path d="M159.952 247.918H156.725V284.212H159.952V247.918Z" fill="#6F46BE"/>
<path d="M166.193 260.255H162.965V284.212H166.193V260.255Z" fill="#6F46BE"/>
<path d="M172.433 252.437H169.205V284.355H172.433V252.437Z" fill="#6F46BE"/>
<path d="M178.745 249.353H175.517V284.212H178.745V249.353Z" fill="#6F46BE"/>
<path d="M184.985 260.973H181.757V284.212H184.985V260.973Z" fill="#6F46BE"/>
<path d="M191.297 265.563H188.069V284.212H191.297V265.563Z" fill="#6F46BE"/>
<path d="M197.537 251.648H194.309V284.212H197.537V251.648Z" fill="#6F46BE"/>
<path d="M203.777 257.53H200.549V284.212H203.777V257.53Z" fill="#6F46BE"/>
<path d="M210.089 252.796H206.861V284.14H210.089V252.796Z" fill="#6F46BE"/>
<path d="M216.329 262.837H213.101V284.212H216.329V262.837Z" fill="#6F46BE"/>
<path d="M228.881 251.648H225.653V284.212H228.881V251.648Z" fill="#6F46BE"/>
<path d="M242.15 272.592H238.923V283.71H242.15V272.592Z" fill="#6F46BE"/>
<path d="M235.695 262.837H232.467V284.212H235.695V262.837Z" fill="#6F46BE"/>
<path d="M222.641 258.749H219.413V284.212H222.641V258.749Z" fill="#6F46BE"/>
<path d="M153.138 286.722C153.067 286.722 152.995 276.394 152.995 263.627C152.995 250.859 153.067 240.531 153.138 240.531C153.21 240.531 153.282 250.859 153.282 263.627C153.282 276.394 153.21 286.722 153.138 286.722Z" fill="#6F46BE"/>
<path d="M242.222 286.723C242.222 286.794 222.713 286.866 198.684 286.866C174.656 286.866 155.147 286.794 155.147 286.723C155.147 286.651 174.656 286.579 198.684 286.579C222.713 286.579 242.222 286.651 242.222 286.723Z" fill="#6F46BE"/>
<path d="M161.315 289.591C161.315 289.663 160.239 289.735 158.876 289.735C157.514 289.735 156.438 289.663 156.438 289.591C156.438 289.519 157.514 289.448 158.876 289.448C160.239 289.448 161.315 289.519 161.315 289.591Z" fill="#6F46BE"/>
<path d="M169.348 289.735C169.348 289.806 168.057 289.878 166.479 289.878C164.901 289.878 163.61 289.806 163.61 289.735C163.61 289.663 164.901 289.591 166.479 289.591C168.057 289.591 169.348 289.663 169.348 289.735Z" fill="#6F46BE"/>
<path d="M176.162 289.735C176.162 289.806 174.871 289.878 173.293 289.878C171.715 289.878 170.424 289.806 170.424 289.735C170.424 289.663 171.715 289.591 173.293 289.591C174.871 289.591 176.162 289.663 176.162 289.735Z" fill="#6F46BE"/>
<path d="M182.976 289.735C182.976 289.806 181.685 289.878 180.107 289.878C178.529 289.878 177.238 289.806 177.238 289.735C177.238 289.663 178.529 289.591 180.107 289.591C181.685 289.591 182.976 289.663 182.976 289.735Z" fill="#6F46BE"/>
<path d="M189.79 289.735C189.79 289.806 188.499 289.878 186.921 289.878C185.343 289.878 184.052 289.806 184.052 289.735C184.052 289.663 185.343 289.591 186.921 289.591C188.499 289.591 189.79 289.663 189.79 289.735Z" fill="#6F46BE"/>
<path d="M196.604 289.735C196.604 289.806 195.313 289.878 193.735 289.878C192.157 289.878 190.866 289.806 190.866 289.735C190.866 289.663 192.157 289.591 193.735 289.591C195.313 289.591 196.604 289.663 196.604 289.735Z" fill="#6F46BE"/>
<path d="M203.418 289.735C203.418 289.806 202.127 289.878 200.549 289.878C198.971 289.878 197.68 289.806 197.68 289.735C197.68 289.663 198.971 289.591 200.549 289.591C202.127 289.591 203.418 289.663 203.418 289.735Z" fill="#6F46BE"/>
<path d="M210.232 289.735C210.232 289.806 208.941 289.878 207.363 289.878C205.785 289.878 204.494 289.806 204.494 289.735C204.494 289.663 205.785 289.591 207.363 289.591C208.941 289.591 210.232 289.663 210.232 289.735Z" fill="#6F46BE"/>
<path d="M217.046 289.735C217.046 289.806 215.755 289.878 214.177 289.878C212.599 289.878 211.308 289.806 211.308 289.735C211.308 289.663 212.599 289.591 214.177 289.591C215.755 289.591 217.046 289.663 217.046 289.735Z" fill="#6F46BE"/>
<path d="M223.86 289.735C223.86 289.806 222.569 289.878 220.991 289.878C219.413 289.878 218.122 289.806 218.122 289.735C218.122 289.663 219.413 289.591 220.991 289.591C222.569 289.591 223.86 289.663 223.86 289.735Z" fill="#6F46BE"/>
<path d="M230.244 289.735C230.244 289.806 228.953 289.878 227.375 289.878C225.797 289.878 224.506 289.806 224.506 289.735C224.506 289.663 225.797 289.591 227.375 289.591C228.953 289.591 230.244 289.663 230.244 289.735Z" fill="#6F46BE"/>
<path d="M236.556 289.735C236.556 289.806 235.265 289.878 233.687 289.878C232.109 289.878 230.818 289.806 230.818 289.735C230.818 289.663 232.109 289.591 233.687 289.591C235.265 289.591 236.556 289.663 236.556 289.735Z" fill="#6F46BE"/>
<path d="M242.867 289.735C242.867 289.806 241.576 289.878 239.998 289.878C238.42 289.878 237.129 289.806 237.129 289.735C237.129 289.663 238.42 289.591 239.998 289.591C241.576 289.591 242.867 289.663 242.867 289.735Z" fill="#6F46BE"/>
<path d="M452.756 372.365H289.077C283.68 372.365 279.278 367.964 279.278 362.566V129.048C279.278 123.65 283.68 119.249 289.077 119.249H452.756C458.154 119.249 462.555 123.65 462.555 129.048V362.566C462.555 367.964 458.154 372.365 452.756 372.365Z" fill="#C0AFE9"/>
<path d="M462.555 142.003H279.195V129.131C279.195 123.65 283.596 119.249 289.077 119.249H452.59C458.071 119.249 462.472 123.65 462.472 129.131V142.003H462.555Z" fill="#F4679D"/>
<path d="M290.821 134.279C292.839 134.279 294.475 132.644 294.475 130.626C294.475 128.608 292.839 126.972 290.821 126.972C288.803 126.972 287.167 128.608 287.167 130.626C287.167 132.644 288.803 134.279 290.821 134.279Z" fill="white"/>
<path d="M305.354 130.626C305.354 132.619 303.693 134.279 301.7 134.279C299.707 134.279 298.046 132.619 298.046 130.626C298.046 128.633 299.707 126.972 301.7 126.972C303.776 126.972 305.354 128.633 305.354 130.626Z" fill="white"/>
<path d="M312.828 134.279C314.846 134.279 316.482 132.644 316.482 130.626C316.482 128.608 314.846 126.972 312.828 126.972C310.81 126.972 309.174 128.608 309.174 130.626C309.174 132.644 310.81 134.279 312.828 134.279Z" fill="white"/>
<path d="M454.251 142.003H287.499V367.3H454.251V142.003Z" fill="white"/>
<path d="M458.486 207.607H458.32C456.077 207.607 454.25 205.78 454.25 203.538V170.736C454.25 168.494 456.077 166.667 458.32 166.667H458.486C460.728 166.667 462.555 168.494 462.555 170.736V203.538C462.555 205.863 460.728 207.607 458.486 207.607Z" fill="#F4679D"/>
<path d="M303.859 176.051H329.187L329.436 183.691H328.357C327.858 181.283 327.194 179.705 326.364 179.04C325.533 178.293 323.872 177.961 321.215 177.961H318.724V200.881C318.724 202.625 318.973 203.704 319.554 204.119C320.135 204.535 321.298 204.784 323.125 204.95V205.78H310.087V204.95C311.997 204.784 313.16 204.452 313.658 204.036C314.156 203.538 314.322 202.376 314.322 200.383V177.961H311.831C309.34 177.961 307.679 178.293 306.765 179.04C305.852 179.788 305.188 181.283 304.772 183.691H303.693L303.859 176.051Z" fill="#6F46BE"/>
<path d="M368.134 176.383C368.134 176.466 361.159 176.632 352.522 176.632C343.886 176.632 336.91 176.549 336.91 176.383C336.91 176.3 343.886 176.134 352.522 176.134C361.159 176.134 368.134 176.217 368.134 176.383Z" fill="#6F46BE"/>
<path d="M368.134 183.691C368.134 183.774 361.159 183.94 352.522 183.94C343.886 183.94 336.91 183.857 336.91 183.691C336.91 183.525 343.886 183.442 352.522 183.442C361.159 183.525 368.134 183.608 368.134 183.691Z" fill="#6F46BE"/>
<path d="M368.134 191.082C368.134 191.165 361.159 191.331 352.522 191.331C343.886 191.331 336.91 191.248 336.91 191.082C336.91 190.999 343.886 190.833 352.522 190.833C361.159 190.833 368.134 190.916 368.134 191.082Z" fill="#6F46BE"/>
<path d="M368.134 198.389C368.134 198.472 361.159 198.638 352.522 198.638C343.886 198.638 336.91 198.555 336.91 198.389C336.91 198.223 343.886 198.14 352.522 198.14C361.159 198.223 368.134 198.306 368.134 198.389Z" fill="#6F46BE"/>
<path d="M368.134 205.78C368.134 205.863 361.159 206.03 352.522 206.03C343.886 206.03 336.91 205.946 336.91 205.78C336.91 205.614 343.886 205.531 352.522 205.531C361.159 205.531 368.134 205.614 368.134 205.78Z" fill="#6F46BE"/>
<path d="M368.134 213.088C368.134 213.171 353.436 213.337 335.249 213.337C317.063 213.337 302.364 213.254 302.364 213.088C302.364 213.005 317.063 212.839 335.249 212.839C353.436 212.922 368.134 213.005 368.134 213.088Z" fill="#6F46BE"/>
<path d="M368.134 220.147C368.134 220.23 353.436 220.396 335.249 220.396C317.063 220.396 302.364 220.313 302.364 220.147C302.364 220.064 317.063 219.898 335.249 219.898C353.436 219.898 368.134 219.981 368.134 220.147Z" fill="#6F46BE"/>
<path d="M368.134 227.123C368.134 227.206 353.436 227.372 335.249 227.372C317.063 227.372 302.364 227.289 302.364 227.123C302.364 227.04 317.063 226.874 335.249 226.874C353.436 226.874 368.134 227.04 368.134 227.123Z" fill="#6F46BE"/>
<path d="M368.134 234.098C368.134 234.181 353.436 234.347 335.249 234.347C317.063 234.347 302.364 234.264 302.364 234.098C302.364 233.932 317.063 233.849 335.249 233.849C353.436 233.932 368.134 234.015 368.134 234.098Z" fill="#6F46BE"/>
<path d="M368.134 241.157C368.134 241.24 353.436 241.406 335.249 241.406C317.063 241.406 302.364 241.323 302.364 241.157C302.364 241.074 317.063 240.908 335.249 240.908C353.436 240.908 368.134 240.991 368.134 241.157Z" fill="#6F46BE"/>
<path d="M368.134 248.132C368.134 248.215 353.436 248.382 335.249 248.382C317.063 248.382 302.364 248.299 302.364 248.132C302.364 248.049 317.063 247.883 335.249 247.883C353.436 247.883 368.134 247.966 368.134 248.132Z" fill="#6F46BE"/>
<path d="M368.134 255.108C368.134 255.191 353.436 255.357 335.249 255.357C317.063 255.357 302.364 255.274 302.364 255.108C302.364 254.942 317.063 254.859 335.249 254.859C353.436 254.942 368.134 255.025 368.134 255.108Z" fill="#6F46BE"/>
<path d="M368.134 262.167C368.134 262.25 353.436 262.416 335.249 262.416C317.063 262.416 302.364 262.333 302.364 262.167C302.364 262.001 317.063 261.918 335.249 261.918C353.436 261.918 368.134 262.001 368.134 262.167Z" fill="#6F46BE"/>
<path d="M437.891 176.383C437.891 176.466 424.106 176.632 407.082 176.632C390.058 176.632 376.273 176.549 376.273 176.383C376.273 176.3 390.058 176.134 407.082 176.134C424.106 176.134 437.891 176.217 437.891 176.383Z" fill="#6F46BE"/>
<path d="M437.891 183.359C437.891 183.442 424.106 183.608 407.082 183.608C390.058 183.608 376.273 183.525 376.273 183.359C376.273 183.192 390.058 183.109 407.082 183.109C424.106 183.109 437.891 183.275 437.891 183.359Z" fill="#6F46BE"/>
<path d="M437.891 190.334C437.891 190.417 424.106 190.583 407.082 190.583C390.058 190.583 376.273 190.5 376.273 190.334C376.273 190.251 390.058 190.084 407.082 190.084C424.106 190.168 437.891 190.251 437.891 190.334Z" fill="#6F46BE"/>
<path d="M437.891 197.393C437.891 197.476 424.106 197.642 407.082 197.642C390.058 197.642 376.273 197.559 376.273 197.393C376.273 197.227 390.058 197.144 407.082 197.144C424.106 197.144 437.891 197.227 437.891 197.393Z" fill="#6F46BE"/>
<path d="M437.891 204.368C437.891 204.451 424.106 204.617 407.082 204.617C390.058 204.617 376.273 204.534 376.273 204.368C376.273 204.202 390.058 204.119 407.082 204.119C424.106 204.119 437.891 204.285 437.891 204.368Z" fill="#6F46BE"/>
<path d="M437.891 211.344C437.891 211.427 424.106 211.593 407.082 211.593C390.058 211.593 376.273 211.51 376.273 211.344C376.273 211.178 390.058 211.095 407.082 211.095C424.106 211.178 437.891 211.261 437.891 211.344Z" fill="#6F46BE"/>
<path d="M437.891 218.403C437.891 218.486 424.106 218.652 407.082 218.652C390.058 218.652 376.273 218.569 376.273 218.403C376.273 218.32 390.058 218.154 407.082 218.154C424.106 218.154 437.891 218.237 437.891 218.403Z" fill="#6F46BE"/>
<path d="M437.891 225.379C437.891 225.462 424.106 225.628 407.082 225.628C390.058 225.628 376.273 225.545 376.273 225.379C376.273 225.295 390.058 225.129 407.082 225.129C424.106 225.129 437.891 225.212 437.891 225.379Z" fill="#6F46BE"/>
<path d="M368.135 279.523C368.135 279.606 353.519 279.772 335.498 279.772C317.478 279.772 302.862 279.689 302.862 279.523C302.862 279.357 317.478 279.274 335.498 279.274C353.519 279.357 368.135 279.44 368.135 279.523Z" fill="#6F46BE"/>
<path d="M368.135 286.582C368.135 286.665 353.519 286.831 335.498 286.831C317.478 286.831 302.862 286.748 302.862 286.582C302.862 286.499 317.478 286.333 335.498 286.333C353.519 286.333 368.135 286.416 368.135 286.582Z" fill="#6F46BE"/>
<path d="M368.135 293.558C368.135 293.641 353.519 293.807 335.498 293.807C317.478 293.807 302.862 293.724 302.862 293.558C302.862 293.475 317.478 293.309 335.498 293.309C353.519 293.309 368.135 293.475 368.135 293.558Z" fill="#6F46BE"/>
<path d="M368.135 300.533C368.135 300.616 353.519 300.782 335.498 300.782C317.478 300.782 302.862 300.699 302.862 300.533C302.862 300.367 317.478 300.284 335.498 300.284C353.519 300.367 368.135 300.45 368.135 300.533Z" fill="#6F46BE"/>
<path d="M368.135 307.592C368.135 307.675 353.519 307.841 335.498 307.841C317.478 307.841 302.862 307.758 302.862 307.592C302.862 307.426 317.478 307.343 335.498 307.343C353.519 307.343 368.135 307.426 368.135 307.592Z" fill="#6F46BE"/>
<path d="M368.135 314.567C368.135 314.651 353.519 314.817 335.498 314.817C317.478 314.817 302.862 314.734 302.862 314.567C302.862 314.484 317.478 314.318 335.498 314.318C353.519 314.318 368.135 314.401 368.135 314.567Z" fill="#6F46BE"/>
<path d="M368.135 321.543C368.135 321.626 353.519 321.792 335.498 321.792C317.478 321.792 302.862 321.709 302.862 321.543C302.862 321.46 317.478 321.294 335.498 321.294C353.519 321.377 368.135 321.46 368.135 321.543Z" fill="#6F46BE"/>
<path d="M368.135 328.602C368.135 328.685 353.519 328.851 335.498 328.851C317.478 328.851 302.862 328.768 302.862 328.602C302.862 328.436 317.478 328.353 335.498 328.353C353.519 328.353 368.135 328.436 368.135 328.602Z" fill="#6F46BE"/>
<path d="M368.135 335.993C368.135 336.076 353.519 336.242 335.498 336.242C317.478 336.242 302.862 336.159 302.862 335.993C302.862 335.827 317.478 335.744 335.498 335.744C353.519 335.744 368.135 335.827 368.135 335.993Z" fill="#6F46BE"/>
<path d="M368.135 343.3C368.135 343.383 353.519 343.55 335.498 343.55C317.478 343.55 302.862 343.467 302.862 343.3C302.862 343.134 317.478 343.051 335.498 343.051C353.519 343.134 368.135 343.217 368.135 343.3Z" fill="#6F46BE"/>
<path d="M368.135 350.692C368.135 350.775 353.519 350.941 335.498 350.941C317.478 350.941 302.862 350.858 302.862 350.692C302.862 350.525 317.478 350.442 335.498 350.442C353.519 350.525 368.135 350.608 368.135 350.692Z" fill="#6F46BE"/>
<path d="M437.476 232.521H376.19V291.814H437.476V232.521Z" fill="#6F46BE"/>
<path d="M439.635 300.035C439.635 300.118 425.019 300.284 406.999 300.284C388.978 300.284 374.363 300.201 374.363 300.035C374.363 299.952 388.978 299.786 406.999 299.786C425.019 299.869 439.635 299.952 439.635 300.035Z" fill="#6F46BE"/>
<path d="M439.635 307.093C439.635 307.176 425.019 307.343 406.999 307.343C388.978 307.343 374.363 307.259 374.363 307.093C374.363 307.01 388.978 306.844 406.999 306.844C425.019 306.844 439.635 306.927 439.635 307.093Z" fill="#6F46BE"/>
<path d="M439.635 314.069C439.635 314.152 425.019 314.318 406.999 314.318C388.978 314.318 374.363 314.235 374.363 314.069C374.363 313.903 388.978 313.82 406.999 313.82C425.019 313.82 439.635 313.986 439.635 314.069Z" fill="#6F46BE"/>
<path d="M439.635 321.045C439.635 321.128 425.019 321.294 406.999 321.294C388.978 321.294 374.363 321.211 374.363 321.045C374.363 320.878 388.978 320.795 406.999 320.795C425.019 320.878 439.635 320.961 439.635 321.045Z" fill="#6F46BE"/>
<path d="M439.635 328.436C439.635 328.519 425.019 328.685 406.999 328.685C388.978 328.685 374.363 328.602 374.363 328.436C374.363 328.27 388.978 328.187 406.999 328.187C425.019 328.27 439.635 328.353 439.635 328.436Z" fill="#6F46BE"/>
<path d="M439.635 335.826C439.635 335.909 425.019 336.075 406.999 336.075C388.978 336.075 374.363 335.992 374.363 335.826C374.363 335.66 388.978 335.577 406.999 335.577C425.019 335.66 439.635 335.743 439.635 335.826Z" fill="#6F46BE"/>
<path d="M439.635 343.217C439.635 343.3 425.019 343.467 406.999 343.467C388.978 343.467 374.363 343.383 374.363 343.217C374.363 343.051 388.978 342.968 406.999 342.968C425.019 343.051 439.635 343.134 439.635 343.217Z" fill="#6F46BE"/>
<path d="M160.004 60.4136C160.004 60.4136 130.252 25.7877 108.558 51.0839C101.751 59.0216 119.013 66.8276 119.013 66.8276C119.013 66.8276 109.973 66.6264 108.907 76.2749C107.841 85.9233 127.487 88.0663 127.487 88.0663C127.487 88.0663 121.634 93.2807 124.198 96.8346C126.763 100.389 133.901 103.706 157.02 90.2827C159.361 64.3784 160.004 60.4136 160.004 60.4136Z" fill="#6F46BE"/>
<path d="M151.491 64.8255C151.491 64.8255 141.959 57.2895 136.577 67.6847C131.195 78.0799 144.253 84.7025 144.253 84.7025L151.491 64.8255Z" fill="#C0AFE9"/>
<path d="M241.745 64.6283C244.233 62.0381 247.747 60.7218 251.159 59.6219C258.069 57.3926 265.244 55.6633 272.483 55.8868C279.832 56.1125 288.94 58.3026 293.307 64.8665C294.829 67.1518 295.469 70.2109 294.317 72.7183C293.194 75.1623 290.666 76.6046 288.199 77.6212C285.069 78.9131 281.856 79.4856 278.613 80.2758C279.644 80.9281 280.672 81.6115 281.632 82.3842C283.193 83.6415 284.719 85.0274 285.631 86.8227C288.092 91.6676 285.045 97.1542 280.232 98.7596C274.287 100.743 269.974 97.3454 264.722 95.5583C264.895 97.0026 265.514 98.4316 265.605 99.9451C265.704 101.556 265.32 103.269 264.226 104.45C260.253 108.742 250.962 104.816 246.628 103.152C239.856 100.552 236.672 94.3903 236.302 87.3394C235.948 80.5536 236.801 70.0961 241.5 64.895C241.58 64.8038 241.662 64.715 241.745 64.6283Z" fill="#6F46BE"/>
<path d="M249.445 73.8864C249.445 73.8864 260.131 68.1378 263.63 79.3248C267.129 90.5119 253.132 94.7409 253.132 94.7409L249.445 73.8864Z" fill="#C0AFE9"/>
<path d="M241.107 108.881C260.57 119.452 270.745 143.148 266.799 164.523C265.131 173.599 252.024 171.924 252.99 160.73C254.509 144.188 244.234 136.874 230.657 129.57C222.524 125.136 232.974 104.447 241.107 108.881Z" fill="#6F46BE"/>
<path d="M155.026 111.616C136.493 123.745 128.291 148.194 133.973 169.175C136.378 178.083 149.304 175.341 147.425 164.264C144.558 147.902 154.2 139.772 167.134 131.38C174.876 126.296 162.768 106.532 155.026 111.616Z" fill="#6F46BE"/>
<path d="M165.384 46.1299C178.915 34.9126 215.35 34.001 231.109 44.0107C248.361 55.0636 262.451 104.423 251.618 120.031C240.382 136.137 159.231 138.667 150.338 121.652C140.434 102.929 149.828 59.0216 165.384 46.1299Z" fill="#6F46BE"/>
<path d="M191.011 101.58C190.012 95.2956 191.114 88.5985 194.151 83.6142C197.016 78.9131 201.901 75.0721 206.373 80.3912C207.722 81.994 208.548 83.9798 209.185 85.9851C210.977 91.6219 211.648 96.9245 210.675 102.763C209.957 107.076 206.551 111.769 202.082 112.566C197.855 113.32 193.765 109.943 192.165 105.909C191.637 104.572 191.255 103.112 191.011 101.58Z" fill="#C0AFE9"/>
<path d="M526.561 248.543C526.561 249.581 525.717 250.426 524.678 250.426C523.639 250.426 522.795 249.581 522.795 248.543V243.374C522.795 242.624 522.497 241.965 522.007 241.473C521.515 240.983 520.856 240.685 520.106 240.685H500.869C500.119 240.685 499.46 240.983 498.968 241.473C498.478 241.965 498.18 242.624 498.18 243.374V248.543C498.18 249.581 497.336 250.426 496.297 250.426C495.258 250.426 494.414 249.581 494.414 248.543V243.374C494.414 241.598 495.139 239.973 496.303 238.811C497.465 237.647 499.09 236.919 500.866 236.922H520.103C521.879 236.922 523.504 237.647 524.665 238.811C525.83 239.973 526.558 241.598 526.554 243.374L526.561 248.543ZM518.295 273.399H512.37V267.475H508.605V273.399H502.68V277.165H508.605V283.09H512.37V277.165H518.295V273.399Z" fill="#5B36A3"/>
<path d="M539.876 253.83C539.232 253.181 538.467 252.653 537.613 252.286C536.759 251.919 535.815 251.718 534.833 251.718H518.295C517.256 251.718 516.412 252.562 516.412 253.601C516.412 254.64 517.256 255.484 518.295 255.484H534.833C535.297 255.484 535.73 255.578 536.129 255.748C536.725 256.002 537.243 256.435 537.607 256.984C537.971 257.533 538.184 258.183 538.184 258.904V292.083C538.184 293.04 537.804 293.888 537.193 294.509C536.888 294.82 536.524 295.068 536.126 295.237C535.727 295.407 535.294 295.501 534.83 295.501H486.139C485.675 295.501 485.242 295.407 484.84 295.237C484.244 294.983 483.726 294.55 483.362 294.001C482.998 293.452 482.785 292.802 482.785 292.08V258.904C482.785 257.947 483.164 257.1 483.776 256.479C484.081 256.168 484.445 255.92 484.843 255.751C485.242 255.581 485.675 255.487 486.142 255.487H502.68C503.719 255.487 504.563 254.643 504.563 253.604C504.563 252.566 503.719 251.721 502.68 251.721H486.142C485.16 251.721 484.216 251.925 483.362 252.289C482.078 252.839 480.996 253.752 480.233 254.897C479.468 256.043 479.022 257.43 479.022 258.908V292.086C479.022 294.057 479.816 295.862 481.099 297.161C481.743 297.81 482.508 298.338 483.362 298.705C484.216 299.072 485.16 299.273 486.142 299.273H534.833C535.815 299.273 536.759 299.069 537.613 298.705C538.896 298.155 539.979 297.242 540.742 296.097C541.507 294.952 541.953 293.564 541.953 292.086V258.904C541.953 256.934 541.159 255.129 539.876 253.83Z" fill="#5B36A3"/>
<path d="M416.47 237.666C416.058 237.058 415.231 236.901 414.623 237.313C412.445 238.795 410.516 240.923 408.966 243.511C408.414 244.436 407.908 245.421 407.46 246.456C406.289 243.986 404.773 241.861 403.016 240.212C401.832 239.103 400.537 238.209 399.16 237.588C397.785 236.969 396.324 236.624 394.84 236.624C394.255 236.624 393.665 236.677 393.077 236.788L393.037 236.797L393.022 236.801C392.651 236.883 392.336 237.116 392.15 237.446C391.964 237.777 391.926 238.167 392.048 238.526C393.281 242.159 395.215 245.245 397.583 247.467C398.767 248.576 400.062 249.47 401.44 250.091C402.814 250.71 404.276 251.056 405.759 251.056C405.817 251.056 405.872 251.053 405.93 251.051C405.815 251.528 405.711 252.011 405.617 252.504C405.456 253.368 405.334 254.229 405.249 255.08C405.178 255.812 405.713 256.462 406.445 256.533C407.176 256.604 407.826 256.069 407.897 255.338C407.973 254.566 408.083 253.783 408.232 252.994C408.804 249.942 409.871 247.179 411.248 244.875C412.625 242.571 414.317 240.733 416.118 239.511C416.725 239.101 416.883 238.273 416.47 237.666ZM397.96 243.97C396.894 242.653 395.949 241.072 395.19 239.296C396.148 239.344 397.111 239.586 398.067 240.016C399.674 240.739 401.256 242.003 402.637 243.711C403.704 245.028 404.648 246.609 405.407 248.386C404.449 248.337 403.486 248.095 402.531 247.665C400.923 246.942 399.342 245.678 397.96 243.97Z" fill="#5B36A3"/>
<path d="M425.48 255.138C424.569 253.606 423.447 252.284 422.125 251.262C420.806 250.24 419.28 249.521 417.615 249.208C416.987 249.091 416.357 249.033 415.73 249.033C413.811 249.033 411.935 249.57 410.199 250.517C408.866 251.244 407.611 252.213 406.462 253.375C405.311 252.211 404.059 251.244 402.726 250.517C400.992 249.57 399.113 249.033 397.195 249.033C396.568 249.033 395.938 249.091 395.31 249.208C393.645 249.521 392.121 250.24 390.8 251.262C388.817 252.796 387.283 254.996 386.238 257.591C385.194 260.188 384.635 263.19 384.635 266.388C384.635 268.104 384.797 269.878 385.134 271.677C386.065 276.618 388.161 280.911 390.93 284.022C392.316 285.577 393.875 286.836 395.556 287.717C397.235 288.597 399.045 289.094 400.887 289.094C401.515 289.094 402.145 289.036 402.772 288.918C404.105 288.668 405.343 288.151 406.46 287.435C407.578 288.151 408.813 288.668 410.148 288.918C410.776 289.036 411.405 289.094 412.033 289.094C413.876 289.094 415.685 288.597 417.364 287.717C419.885 286.395 422.132 284.224 423.932 281.474C425.733 278.722 427.088 275.38 427.787 271.675C428.124 269.876 428.285 268.102 428.285 266.386C428.288 262.124 427.299 258.205 425.48 255.138ZM425.174 271.185C424.332 275.684 422.411 279.556 420.007 282.25C418.805 283.599 417.486 284.652 416.135 285.359C414.783 286.067 413.401 286.433 412.037 286.433C411.572 286.433 411.108 286.39 410.642 286.304C409.418 286.073 408.299 285.548 407.276 284.761C406.795 284.39 406.13 284.39 405.651 284.761C404.628 285.548 403.511 286.073 402.284 286.304C401.819 286.39 401.355 286.433 400.89 286.433C399.526 286.433 398.146 286.067 396.792 285.359C394.762 284.299 392.809 282.456 391.217 280.017C389.622 277.58 388.387 274.557 387.753 271.185C387.444 269.548 387.298 267.938 387.298 266.388C387.296 262.538 388.207 259.063 389.735 256.498C390.498 255.214 391.412 254.156 392.43 253.366C393.45 252.579 394.574 252.056 395.802 251.823C396.266 251.736 396.729 251.694 397.195 251.694C398.612 251.694 400.047 252.089 401.453 252.854C402.857 253.617 404.218 254.752 405.449 256.203C405.702 256.5 406.074 256.673 406.465 256.673C406.855 256.673 407.227 256.5 407.48 256.203C408.709 254.752 410.073 253.617 411.476 252.854C412.88 252.089 414.315 251.697 415.734 251.694C416.197 251.694 416.663 251.736 417.127 251.823C418.357 252.056 419.479 252.577 420.5 253.366C422.027 254.546 423.318 256.342 424.221 258.584C425.123 260.824 425.631 263.501 425.631 266.388C425.629 267.938 425.482 269.548 425.174 271.185Z" fill="#5B36A3"/>
</svg>
