<svg width="235" height="253" viewBox="0 0 235 253" fill="none" xmlns="http://www.w3.org/2000/svg">
<path d="M128.971 0.840757H128.948C128.644 0.723985 128.363 0.630568 128.059 0.560505C127.965 0.53715 127.848 0.490442 127.754 0.467087C127.637 0.443733 127.544 0.420379 127.427 0.397024C127.31 0.37367 127.193 0.350315 127.099 0.326961C126.982 0.303607 126.888 0.280252 126.771 0.256898C126.654 0.233544 126.537 0.210189 126.397 0.186835C126.303 0.163481 126.186 0.163481 126.092 0.140126C125.952 0.116772 125.835 0.0934175 125.695 0.0934175C125.601 0.0934175 125.507 0.0700631 125.414 0.0700631C125.273 0.0467087 125.109 0.0467087 124.946 0.0467087C124.875 0.0467087 124.782 0.0233544 124.711 0.0233544C124.477 0.0233544 124.243 0 124.009 0H14.7229C14.4654 0 14.2079 1.74004e-09 13.9739 0.0233544C13.4823 0.0467087 12.9674 0.0934175 12.4992 0.163481C12.2652 0.210189 12.0077 0.233544 11.7736 0.303607C5.52401 1.54139 0.725611 6.74941 0.0702204 13.1952C0.0234068 13.6857 0 14.1995 0 14.6899V196.69V238.215C0 244.59 4.04938 250.032 9.71382 252.087C9.73723 252.087 9.76064 252.11 9.78404 252.11C10.0649 252.204 10.3458 252.297 10.6501 252.391C10.7437 252.414 10.8608 252.461 10.9544 252.484C11.0714 252.507 11.165 252.531 11.2821 252.554C11.3991 252.577 11.5161 252.601 11.6098 252.624C11.7268 252.648 11.8204 252.671 11.9375 252.694C12.0545 252.718 12.1715 252.741 12.312 252.764C12.4056 252.788 12.5226 252.788 12.6163 252.811C12.7567 252.834 12.8737 252.858 13.0142 252.858C13.1078 252.858 13.2014 252.881 13.2951 252.881C13.4355 252.904 13.5994 252.904 13.7632 252.904C13.8334 252.904 13.927 252.928 13.9973 252.928C14.2313 252.928 14.4654 252.951 14.6995 252.951H123.939C124.454 252.951 124.946 252.928 125.437 252.881C132.365 252.18 137.889 246.669 138.592 239.709C138.639 239.219 138.662 238.705 138.662 238.191V56.214V14.6899C138.709 8.31415 134.659 2.87259 128.971 0.840757Z" fill="#6F46BE"/>
<path d="M131.569 20.0625H7.13892V232.867H131.569V20.0625Z" fill="#EDE3FF"/>
<path d="M131.569 223.945H7.13892V232.867H131.569V223.945Z" fill="#C0AFE9"/>
<path d="M131.569 20.0625H7.13892V31.366H131.569V20.0625Z" fill="#C0AFE9"/>
<path d="M22.9855 99.745H115.357C118.106 99.745 120.34 97.5124 120.34 94.7656V69.3681C120.34 66.6213 118.106 64.3887 115.357 64.3887H22.9855C20.2372 64.3887 18.0034 66.6213 18.0034 69.3681V94.7521C18.0034 97.5124 20.2372 99.745 22.9855 99.745Z" fill="white"/>
<path d="M109.755 80.5293H60.0409C59.2988 80.5293 58.6973 81.1309 58.6973 81.8729C58.6973 82.615 59.2988 83.2165 60.0409 83.2165H109.755C110.497 83.2165 111.098 82.615 111.098 81.8729C111.098 81.1309 110.497 80.5293 109.755 80.5293Z" fill="#6F46BE"/>
<path d="M109.755 73.8125H60.0409C59.2988 73.8125 58.6973 74.4141 58.6973 75.1561C58.6973 75.8982 59.2988 76.4997 60.0409 76.4997H109.755C110.497 76.4997 111.098 75.8982 111.098 75.1561C111.098 74.4141 110.497 73.8125 109.755 73.8125Z" fill="#6F46BE"/>
<path d="M86.9131 87.25H60.0409C59.2988 87.25 58.6973 87.8516 58.6973 88.5936C58.6973 89.3357 59.2988 89.9372 60.0409 89.9372H86.9131C87.6552 89.9372 88.2567 89.3357 88.2567 88.5936C88.2567 87.8516 87.6552 87.25 86.9131 87.25Z" fill="#6F46BE"/>
<path d="M37.512 93.9016C44.5778 93.9016 50.3057 88.1768 50.3057 81.1149C50.3057 74.0529 44.5778 68.3281 37.512 68.3281C30.4462 68.3281 24.7183 74.0529 24.7183 81.1149C24.7183 88.1768 30.4462 93.9016 37.512 93.9016Z" fill="#EDE3FF"/>
<path d="M44.9577 76.473C44.9577 77.3796 44.2131 78.1238 43.306 78.1238C42.399 78.1238 41.6543 77.3796 41.6543 76.473C41.6543 75.5665 42.399 74.8223 43.306 74.8223C44.2131 74.8223 44.9577 75.5665 44.9577 76.473ZM31.7037 74.8223C30.7966 74.8223 30.052 75.5665 30.052 76.473C30.052 77.3796 30.7966 78.1238 31.7037 78.1238C32.6107 78.1238 33.3554 77.3796 33.3554 76.473C33.3554 75.5665 32.6243 74.8223 31.7037 74.8223ZM37.5928 77.8261H37.4033C35.5486 77.8261 34.0593 79.3281 34.0593 81.1683V85.5794C34.0593 87.4737 35.6027 89.0162 37.4981 89.0162C39.3934 89.0162 40.9368 87.4737 40.9368 85.5794V81.1683C40.9504 79.3281 39.4476 77.8261 37.5928 77.8261Z" fill="#6F46BE"/>
<path d="M22.9855 149.018H115.357C118.106 149.018 120.34 146.786 120.34 144.039V118.642C120.34 115.895 118.106 113.662 115.357 113.662H22.9855C20.2372 113.662 18.0034 115.895 18.0034 118.642V144.026C18.0034 146.786 20.2372 149.018 22.9855 149.018Z" fill="white"/>
<path d="M109.755 129.803H60.0409C59.2988 129.803 58.6973 130.404 58.6973 131.146C58.6973 131.888 59.2988 132.49 60.0409 132.49H109.755C110.497 132.49 111.098 131.888 111.098 131.146C111.098 130.404 110.497 129.803 109.755 129.803Z" fill="#6F46BE"/>
<path d="M109.755 123.086H60.0409C59.2988 123.086 58.6973 123.687 58.6973 124.43C58.6973 125.172 59.2988 125.773 60.0409 125.773H109.755C110.497 125.773 111.098 125.172 111.098 124.43C111.098 123.687 110.497 123.086 109.755 123.086Z" fill="#6F46BE"/>
<path d="M86.9131 136.523H60.0409C59.2988 136.523 58.6973 137.125 58.6973 137.867C58.6973 138.609 59.2988 139.211 60.0409 139.211H86.9131C87.6552 139.211 88.2567 138.609 88.2567 137.867C88.2567 137.125 87.6552 136.523 86.9131 136.523Z" fill="#6F46BE"/>
<path d="M37.512 143.175C44.5778 143.175 50.3057 137.45 50.3057 130.388C50.3057 123.326 44.5778 117.602 37.512 117.602C30.4462 117.602 24.7183 123.326 24.7183 130.388C24.7183 137.45 30.4462 143.175 37.512 143.175Z" fill="#EDE3FF"/>
<path d="M44.9577 125.746C44.9577 126.653 44.2131 127.397 43.306 127.397C42.399 127.397 41.6543 126.653 41.6543 125.746C41.6543 124.84 42.399 124.096 43.306 124.096C44.2131 124.096 44.9577 124.84 44.9577 125.746ZM31.7037 124.096C30.7966 124.096 30.052 124.84 30.052 125.746C30.052 126.653 30.7966 127.397 31.7037 127.397C32.6107 127.397 33.3554 126.653 33.3554 125.746C33.3554 124.84 32.6243 124.096 31.7037 124.096ZM37.5928 127.1H37.4033C35.5486 127.1 34.0593 128.602 34.0593 130.442V134.853C34.0593 136.747 35.6027 138.29 37.4981 138.29C39.3934 138.29 40.9368 136.747 40.9368 134.853V130.442C40.9504 128.602 39.4476 127.1 37.5928 127.1Z" fill="#6F46BE"/>
<path d="M22.9855 197.343H115.357C118.106 197.343 120.34 195.11 120.34 192.363V166.966C120.34 164.219 118.106 161.986 115.357 161.986H22.9855C20.2372 161.986 18.0034 164.219 18.0034 166.966V192.35C18.0034 195.11 20.2372 197.343 22.9855 197.343Z" fill="white"/>
<path d="M109.755 178.127H60.0409C59.2988 178.127 58.6973 178.729 58.6973 179.471C58.6973 180.213 59.2988 180.814 60.0409 180.814H109.755C110.497 180.814 111.098 180.213 111.098 179.471C111.098 178.729 110.497 178.127 109.755 178.127Z" fill="#6F46BE"/>
<path d="M109.755 171.41H60.0409C59.2988 171.41 58.6973 172.012 58.6973 172.754C58.6973 173.496 59.2988 174.097 60.0409 174.097H109.755C110.497 174.097 111.098 173.496 111.098 172.754C111.098 172.012 110.497 171.41 109.755 171.41Z" fill="#6F46BE"/>
<path d="M86.9131 184.848H60.0409C59.2988 184.848 58.6973 185.449 58.6973 186.191C58.6973 186.933 59.2988 187.535 60.0409 187.535H86.9131C87.6552 187.535 88.2567 186.933 88.2567 186.191C88.2567 185.449 87.6552 184.848 86.9131 184.848Z" fill="#6F46BE"/>
<path d="M37.512 191.501C44.5778 191.501 50.3057 185.776 50.3057 178.714C50.3057 171.653 44.5778 165.928 37.512 165.928C30.4462 165.928 24.7183 171.653 24.7183 178.714C24.7183 185.776 30.4462 191.501 37.512 191.501Z" fill="#EDE3FF"/>
<path d="M44.9577 174.073C44.9577 174.979 44.2131 175.723 43.306 175.723C42.399 175.723 41.6543 174.979 41.6543 174.073C41.6543 173.166 42.399 172.422 43.306 172.422C44.2131 172.422 44.9577 173.166 44.9577 174.073ZM31.7037 172.422C30.7966 172.422 30.052 173.166 30.052 174.073C30.052 174.979 30.7966 175.723 31.7037 175.723C32.6107 175.723 33.3554 174.979 33.3554 174.073C33.3554 173.166 32.6243 172.422 31.7037 172.422ZM37.5928 175.426H37.4033C35.5486 175.426 34.0593 176.928 34.0593 178.768V183.179C34.0593 185.073 35.6027 186.616 37.4981 186.616C39.3934 186.616 40.9368 185.073 40.9368 183.179V178.768C40.9504 176.928 39.4476 175.426 37.5928 175.426Z" fill="#6F46BE"/>
<path d="M73.0357 106.244C73.0357 106.244 48.9267 109.724 52.6016 132.938C56.0424 154.588 76.7106 150.197 82.024 149.099C87.3373 148.025 73.0357 106.244 73.0357 106.244Z" fill="#6F46BE"/>
<path d="M82.0239 149.098C84.505 148.584 82.7261 139.266 80.1045 129.434C71.2333 131.162 61.3322 133.1 52.9292 134.758C57.2361 154.329 76.8744 150.172 82.0239 149.098Z" fill="#6F46BE"/>
<path d="M86.916 153.115C86.916 153.115 92.206 171.986 90.825 186.652C89.5142 200.314 91.4803 202.603 96.5596 202.159C101.662 201.716 114.021 198.68 114.232 193.799C114.442 188.917 112.172 163.858 103.605 150.383C95.0382 136.954 86.916 153.115 86.916 153.115Z" fill="#553597"/>
<path d="M95.1318 145.246C91.7378 147.511 86.8926 153.117 86.8926 153.117C86.8926 153.117 92.1825 171.987 90.8015 186.653C89.4907 200.316 91.4569 202.604 96.5362 202.161C98.4087 201.997 101.241 201.483 104.12 200.666C106.156 167.082 97.4725 149.053 95.1318 145.246Z" fill="#553597"/>
<path d="M146.088 60.5156C146.088 60.5156 106.086 89.5685 93.1656 98.3497L85.6052 109.583L90.9654 142.303L103.886 148.655L167.037 161.103L165.586 154.027L154.117 122.288L148.265 86.1587L146.557 63.9487L146.088 60.5156Z" fill="#6F46BE"/>
<path d="M154.14 122.289L152.596 112.807L88.6716 128.337L90.9655 142.303L103.886 148.656L167.061 161.103L165.586 154.027L154.14 122.289Z" fill="#6F46BE"/>
<path d="M93.1657 98.3491C93.1657 98.3491 87.8757 126.094 103.886 148.654C103.886 148.654 104.775 150.733 102.833 152.041L90.9186 155.077C90.9186 155.077 85.3946 157.039 80.7367 149.098C76.0787 141.181 67.8395 123.385 72.7081 103.744C72.7081 103.744 73.9019 98.4191 80.409 97.4616L89.0695 95.8268C89.0695 95.8268 92.9316 95.2429 93.1657 98.3491Z" fill="#5E34AE"/>
<path d="M146.088 60.515C146.088 60.515 156.504 52.8547 162.52 53.0182C168.535 53.1817 174.551 61.1455 178.46 67.6614C182.369 74.1773 192.598 99.7269 193.581 116.986C194.564 134.245 194.4 158.813 185.95 161.756C177.5 164.675 167.084 161.102 167.084 161.102C167.084 161.102 153.438 149.378 145.456 112.922C137.475 76.466 146.088 60.515 146.088 60.515Z" fill="#5E34AE"/>
<path d="M179.935 162.737C179.935 162.737 189.649 150.126 184.71 116.075C176.915 62.4536 157.23 54.3496 157.23 54.3496C157.23 54.3496 142.671 65.4196 156.575 117.243C168.044 159.911 179.935 162.737 179.935 162.737Z" fill="#6F46BE"/>
<path d="M151.917 95.4054C152.853 101.711 154.351 108.951 156.575 117.218C157.675 121.352 158.798 125.112 159.898 128.545C165.937 126.443 175.721 121.189 171.555 107.877C167.693 95.4988 157.605 94.7515 151.917 95.4054Z" fill="#EDE3FF"/>
<path d="M156.575 117.219C157.675 121.352 158.798 125.112 159.898 128.546C165.867 126.467 175.464 121.329 171.719 108.414L155.287 112.197C155.685 113.832 156.107 115.49 156.575 117.219Z" fill="#EDE3FF"/>
<path opacity="0.3" d="M103.886 148.653C98.8769 141.577 95.9511 134.01 94.2892 126.934L73.1528 130.927C75.1892 138.774 78.396 145.173 80.7132 149.12C85.3712 157.037 90.8952 155.099 90.8952 155.099L102.809 152.063C104.799 150.732 103.886 148.653 103.886 148.653Z" fill="#5E34AE"/>
<path d="M21.5051 51.7211C22.0336 51.7211 22.4213 51.815 22.6682 52.0027C22.915 52.187 23.0385 52.4774 23.0385 52.8737C23.0385 53.2597 22.9046 53.5535 22.6369 53.7552C22.3726 53.9569 21.9832 54.0577 21.4686 54.0577H21.0565V55.1738H20.3159V51.7941C20.6915 51.7454 21.0878 51.7211 21.5051 51.7211ZM21.3851 53.4631C21.7085 53.4631 21.9432 53.4162 22.0892 53.3223C22.2353 53.2284 22.3083 53.0789 22.3083 52.8737C22.3083 52.6686 22.2405 52.5243 22.1049 52.4408C21.9728 52.3539 21.785 52.3105 21.5416 52.3105C21.3747 52.3105 21.213 52.3174 21.0565 52.3313V53.4631H21.3851ZM30.4472 55.1738H28.121V51.7628H28.8773V54.5271H30.4472V55.1738ZM37.6006 54.3185H36.2081L35.8951 55.1738H35.1284L36.4949 51.7628H37.3764L38.6959 55.1738H37.9032L37.6006 54.3185ZM37.3868 53.7082L36.9174 52.3887L36.4323 53.7082H37.3868ZM44.3285 51.7628L46.0079 54.0994V51.7628H46.6859V55.1738H45.9662L44.292 52.8685V55.1738H43.6191V51.7628H44.3285ZM53.5395 55.2468C53.1953 55.2468 52.8927 55.1738 52.632 55.0278C52.3712 54.8818 52.1695 54.6749 52.027 54.4071C51.8879 54.1394 51.8183 53.8282 51.8183 53.4735C51.8183 53.1397 51.8913 52.8372 52.0374 52.566C52.1869 52.2913 52.392 52.0775 52.6528 51.9245C52.9171 51.768 53.2126 51.6898 53.5395 51.6898C53.8837 51.6898 54.1862 51.7628 54.447 51.9089C54.7078 52.0549 54.9077 52.2635 55.0468 52.5347C55.1894 52.8025 55.2606 53.1137 55.2606 53.4683C55.2606 53.8056 55.1859 54.1098 55.0364 54.3811C54.8903 54.6523 54.6869 54.8644 54.4261 55.0174C54.1654 55.1704 53.8698 55.2468 53.5395 55.2468ZM53.5343 54.6053C53.722 54.6053 53.8889 54.5566 54.035 54.4593C54.181 54.3619 54.294 54.2281 54.374 54.0577C54.4574 53.8838 54.4992 53.6874 54.4992 53.4683C54.4992 53.1171 54.414 52.8407 54.2436 52.639C54.0767 52.4339 53.8437 52.3313 53.5447 52.3313C53.3569 52.3313 53.19 52.3817 53.044 52.4826C52.898 52.5799 52.7832 52.7155 52.6998 52.8894C52.6198 53.0632 52.5798 53.258 52.5798 53.4735C52.5798 53.8178 52.665 54.0925 52.8354 54.2976C53.0092 54.5028 53.2422 54.6053 53.5343 54.6053ZM61.5745 55.2468C61.3207 55.2468 61.0756 55.2225 60.8391 55.1738C60.6062 55.1217 60.3993 55.0487 60.2185 54.9548V54.3237C60.3923 54.4071 60.5923 54.4749 60.8183 54.5271C61.0478 54.5758 61.2773 54.6001 61.5067 54.6001C62.0492 54.6001 62.3204 54.4697 62.3204 54.2089C62.3204 54.1151 62.296 54.042 62.2474 53.9899C62.1987 53.9343 62.117 53.8908 62.0022 53.8595C61.891 53.8282 61.7293 53.8021 61.5172 53.7813C61.0756 53.7395 60.754 53.637 60.5523 53.4735C60.3541 53.3066 60.255 53.0632 60.255 52.7434C60.255 52.5173 60.3193 52.3244 60.448 52.1644C60.5766 52.0045 60.7487 51.8863 60.9643 51.8098C61.1834 51.7298 61.425 51.6898 61.6893 51.6898C61.9083 51.6898 62.1187 51.7124 62.3204 51.7576C62.5221 51.8028 62.7011 51.8671 62.8576 51.9506V52.5765C62.7116 52.5034 62.5342 52.4461 62.3256 52.4043C62.1204 52.3591 61.9292 52.3365 61.7519 52.3365C61.512 52.3365 61.3242 52.3678 61.1886 52.4304C61.053 52.4895 60.9852 52.5851 60.9852 52.7173C60.9852 52.8146 61.0147 52.8894 61.0738 52.9415C61.133 52.9902 61.2164 53.0285 61.3242 53.0563C61.4355 53.0806 61.5954 53.1032 61.804 53.1241C62.2491 53.1693 62.569 53.2753 62.7637 53.4422C62.9584 53.6057 63.0558 53.8456 63.0558 54.162C63.0558 54.5097 62.9271 54.7774 62.6698 54.9652C62.416 55.153 62.0509 55.2468 61.5745 55.2468Z" fill="#6F46BE"/>
<path d="M227.18 57.3262L217.546 86.3781" stroke="#F4679D" stroke-width="15.4284" stroke-linecap="round" stroke-linejoin="round"/>
<path d="M209.692 106.621L209.581 106.696" stroke="#F4679D" stroke-width="15.6576" stroke-linecap="round" stroke-linejoin="round"/>
</svg>
