<svg width="663" height="464" viewBox="0 0 663 464" fill="none" xmlns="http://www.w3.org/2000/svg">
<rect width="629.874" height="222.769" rx="111.385" transform="matrix(-0.976717 0.214532 0.214532 0.976717 615.209 107.477)" fill="#EEE8FF"/>
<path d="M272.236 29.5073H155.797C146.974 29.5073 138.512 32.6161 132.273 38.1498C126.034 43.6835 122.529 51.1888 122.529 59.0147V295.073C122.529 302.899 126.034 310.404 132.273 315.938C138.512 321.472 146.974 324.581 155.797 324.581H355.406C364.229 324.581 372.691 321.472 378.93 315.938C385.169 310.404 388.674 302.899 388.674 295.073V132.783L272.236 29.5073Z" stroke="#6F46BE" stroke-width="10.4144" stroke-linecap="round" stroke-linejoin="round" stroke-dasharray="27.77 27.77"/>
<path d="M521.167 376.845C521.167 385.541 517.583 393.88 511.203 400.029C504.823 406.177 496.169 409.631 487.147 409.631H214.985C205.962 409.631 197.309 406.177 190.929 400.029C184.549 393.88 180.965 385.541 180.965 376.845V147.344C180.965 138.649 184.549 130.309 190.929 124.161C197.309 118.012 205.962 114.558 214.985 114.558H300.036L334.056 163.737H487.147C496.169 163.737 504.823 167.191 511.203 173.34C517.583 179.488 521.167 187.828 521.167 196.523V376.845Z" fill="#D2C3FE" stroke="#6F46BE" stroke-width="13.8858" stroke-linecap="round" stroke-linejoin="round"/>
<path d="M383.274 376.845C429.82 376.845 467.553 339.112 467.553 292.566C467.553 246.02 429.82 208.287 383.274 208.287C336.728 208.287 298.994 246.02 298.994 292.566C298.994 339.112 336.728 376.845 383.274 376.845Z" fill="#EEE8FF" stroke="#6F46BE" stroke-width="17.743" stroke-linecap="round" stroke-linejoin="round"/>
<path d="M551.832 447.816L454.246 354.666" stroke="#6F46BE" stroke-width="17.743" stroke-linecap="round" stroke-linejoin="round"/>
<path d="M551.833 447.816L497.653 394.904" stroke="#6F46BE" stroke-width="32.1064" stroke-linecap="round" stroke-linejoin="round"/>
<path d="M381.94 241.974C392.03 241.974 400.018 244.391 405.904 249.226C411.895 254.06 414.89 260.577 414.89 268.775C414.89 273.82 414.049 278.182 412.368 281.86C410.686 285.434 408.111 288.797 404.643 291.95C401.279 294.998 396.497 298.624 390.296 302.828V316.544H369.17V296.837L373.742 293.842C378.367 290.794 381.73 288.429 383.832 286.747C386.039 285.066 387.721 283.226 388.877 281.229C390.138 279.233 390.769 276.868 390.769 274.135C390.769 270.141 389.245 267.146 386.197 265.149C383.254 263.152 378.997 262.153 373.427 262.153C364.914 262.153 356.295 263.993 347.572 267.671V248.753C357.662 244.233 369.118 241.974 381.94 241.974ZM379.733 326.634C383.517 326.634 386.512 327.737 388.719 329.945C390.927 332.047 392.03 334.832 392.03 338.3C392.03 341.769 390.874 344.606 388.562 346.814C386.355 348.916 383.412 349.967 379.733 349.967C376.055 349.967 373.112 348.916 370.905 346.814C368.697 344.606 367.594 341.769 367.594 338.3C367.594 334.937 368.697 332.152 370.905 329.945C373.217 327.737 376.16 326.634 379.733 326.634Z" fill="#6F46BE"/>
</svg>
