<svg width="198" height="192" viewBox="0 0 198 192" fill="none" xmlns="http://www.w3.org/2000/svg">
<g clip-path="url(#clip0_2173_1639)">
<path d="M197.701 0.299316H72.1482V91.6825H197.701V0.299316Z" fill="white"/>
<path d="M198 91.9817H71.8491V0H198V91.9817ZM72.4471 91.3831H197.402V0.598579H72.4471V91.3831Z" fill="#553597"/>
<path d="M191.121 15.0323H78.7302V84.703H191.121V15.0323Z" fill="white"/>
<path d="M191.42 85.0023H78.4312V14.733H191.42V85.0023ZM79.0292 84.4037H190.822V15.3316H79.0292V84.4037Z" fill="#553597"/>
<path d="M185.693 31.0024H84.1582V31.601H185.693V31.0024Z" fill="#553597"/>
<path d="M185.693 36.1283H84.1582V36.7269H185.693V36.1283Z" fill="#553597"/>
<path d="M185.693 41.2542H84.1582V41.8527H185.693V41.2542Z" fill="#553597"/>
<path d="M185.693 46.3779H84.1582V46.9765H185.693V46.3779Z" fill="#553597"/>
<path d="M185.693 51.5038H84.1582V52.1024H185.693V51.5038Z" fill="#553597"/>
<path d="M185.693 56.9369H84.1582V57.5355H185.693V56.9369Z" fill="#553597"/>
<path d="M185.693 61.9091H84.1582V62.5076H185.693V61.9091Z" fill="#553597"/>
<path d="M185.693 67.2344H84.1582V67.833H185.693V67.2344Z" fill="#553597"/>
<path d="M185.693 72.5618H84.1582V73.1603H185.693V72.5618Z" fill="#553597"/>
<path d="M100.442 4.48535H78.7302V7.0792H100.442V4.48535Z" fill="white"/>
<path d="M100.741 7.37846H78.4312V4.18604H100.741V7.37846ZM79.0292 6.77988H100.143V4.78461H79.0292V6.77988Z" fill="#553597"/>
<path d="M119.919 8.76318H78.7302V11.357H119.919V8.76318Z" fill="white"/>
<path d="M120.218 11.6563H78.4312V8.46387H120.218V11.6563ZM79.0292 11.0577H119.62V9.06245H79.0292V11.0577Z" fill="#553597"/>
<path d="M104.54 63.8765H97.8347V77.991H104.54V63.8765Z" fill="#A78ED7"/>
<path d="M121.438 51.8031H114.733V77.993H121.438V51.8031Z" fill="#A78ED7"/>
<path d="M138.278 42.7844H131.573V77.9929H138.278V42.7844Z" fill="#A78ED7"/>
<path d="M155.2 33.4087H148.494V77.9929H155.2V33.4087Z" fill="#A78ED7"/>
<path d="M172.016 28.1891H165.311V77.9929H172.016V28.1891Z" fill="#A78ED7"/>
<path d="M185.992 78.2922H83.8591V26.3973H185.992V78.2902V78.2922ZM84.4571 77.6936H185.394V26.9979H84.4571V77.6936Z" fill="#553597"/>
<path d="M104.843 59.1497H92.4067V57.9525H104.235L115.197 42.9302H125.527L136.596 28.2291H151.046L155.324 21.7245L156.322 22.3809L151.692 29.4262H137.192L126.123 44.1273H115.805L104.843 59.1497Z" fill="#A78ED7"/>
<path d="M155.84 24.7972L155.373 22.768L153.344 23.2289L153.079 22.0617L156.27 21.3374L157.006 24.5298L155.84 24.7972Z" fill="#A78ED7"/>
<path d="M133.211 98.6738H81.876V130.065H133.211V98.6738Z" fill="white"/>
<path d="M133.508 130.365H81.575V98.3745H133.508V130.365ZM82.175 129.766H132.912V98.9731H82.175V129.766Z" fill="#553597"/>
<path d="M96.6827 126.316C90.5471 126.316 85.5557 121.32 85.5557 115.177C85.5557 112.248 86.6819 109.48 88.7291 107.387C90.7723 105.296 93.5033 104.109 96.4196 104.041H96.4435C100.827 103.947 104.901 106.481 106.759 110.448C107.457 111.93 107.81 113.523 107.81 115.177C107.81 121.318 102.818 126.316 96.6827 126.316ZM96.6827 104.638C96.6069 104.638 96.5312 104.638 96.4554 104.642H96.4315C93.6727 104.706 91.0873 105.831 89.1537 107.808C87.2181 109.789 86.1517 112.407 86.1517 115.179C86.1517 120.991 90.876 125.72 96.6807 125.72C102.485 125.72 107.21 120.991 107.21 115.179C107.21 113.612 106.875 112.108 106.215 110.705C104.489 107.02 100.745 104.64 96.6787 104.64L96.6827 104.638Z" fill="#553597"/>
<path d="M106.488 110.576L96.6827 115.177L96.4255 104.34C96.5113 104.34 96.597 104.336 96.6827 104.336C101.02 104.336 104.762 106.888 106.488 110.574V110.576Z" fill="#A78ED7"/>
<path d="M96.3937 115.644L96.1187 104.049L96.4416 104.043C100.825 103.949 104.899 106.483 106.757 110.45L106.885 110.721L96.3937 115.644ZM96.7326 104.638L96.9718 114.712L106.088 110.434C104.315 106.918 100.679 104.656 96.7326 104.638Z" fill="#553597"/>
<path d="M122.328 109.612H111.823V111.202H122.328V109.612Z" fill="#A78ED7"/>
<path d="M128.672 114.682H111.523V112.493H128.672V114.682ZM112.121 114.083H128.074V113.092H112.121V114.083Z" fill="#553597"/>
<path d="M128.672 117.862H111.523V115.673H128.672V117.862ZM112.121 117.264H128.074V116.272H112.121V117.264Z" fill="#553597"/>
<path d="M128.672 121.043H111.523V118.854H128.672V121.043ZM112.121 120.444H128.074V119.452H112.121V120.444Z" fill="#553597"/>
<path d="M10.1621 157.199C10.1621 157.199 6.84313 165.264 3.85107 168.035L10.2119 177.024L18.6937 164.691L10.1621 157.201V157.199Z" fill="white"/>
<path d="M10.2139 177.545L3.45435 167.991L3.6477 167.814C6.55803 165.118 9.85308 157.165 9.88697 157.083L10.0464 156.696L19.0924 164.637L10.2159 177.543L10.2139 177.545ZM4.24173 168.071L10.2059 176.499L18.295 164.737L10.2757 157.696C9.58398 159.316 6.85106 165.481 4.24173 168.069V168.071Z" fill="#553597"/>
<path d="M15.8234 190.805H7.21797C7.21797 190.805 -0.265161 182.415 0.332852 171.778L5.62128 165.561C5.62128 165.561 5.73689 172.152 12.6519 173.987L12.2313 185.636C12.2313 185.636 16.3476 187.058 15.8234 190.803V190.805Z" fill="white"/>
<path d="M16.0825 191.105H7.08239L6.99269 191.005C6.91694 190.921 -0.56619 182.399 0.0318224 171.762L0.0378025 171.663L5.90231 164.769L5.91826 165.559C5.92424 165.819 6.11959 171.948 12.7256 173.702L12.9569 173.764L12.5363 185.44C13.3974 185.807 16.5988 187.413 16.1184 190.849L16.0825 191.107V191.105ZM7.35349 190.506H15.5542C15.8194 187.234 12.1695 185.933 12.1316 185.919L11.9223 185.847L12.3409 174.215C6.86711 172.644 5.65713 168.071 5.39201 166.289L0.621862 171.896C0.121524 181.621 6.52823 189.532 7.3515 190.506H7.35349Z" fill="#553597"/>
<path d="M64.8384 172.552L66.8597 186.783L57.3553 188.058L54.8118 173.825L64.8384 172.552Z" fill="white"/>
<path d="M57.1121 188.391L54.4629 173.568L65.0956 172.217L67.2006 187.04L57.1141 188.391H57.1121ZM55.1606 174.083L57.5985 187.722L66.5208 186.527L64.5833 172.886L55.1606 174.083Z" fill="#553597"/>
<path d="M81.0027 190.753H55.7087L56.1632 181.39C56.1632 181.39 63.2238 185.21 65.9387 180.304L78.8319 187.363C78.8319 187.363 81.3396 188.469 81.0027 190.753Z" fill="white"/>
<path d="M81.2618 191.053H55.3958L55.8881 180.901L56.3067 181.126C56.3745 181.162 63.14 184.748 65.6796 180.158L65.8231 179.897L78.9674 187.094C79.0671 187.14 79.6771 187.431 80.2531 187.984C81.0904 188.79 81.4532 189.762 81.2997 190.795L81.2618 191.051V191.053ZM56.0237 190.454H80.7336C80.7694 189.714 80.4724 189.033 79.8505 188.431C79.3103 187.908 78.7182 187.641 78.7123 187.639L78.6903 187.627L66.0523 180.707C63.5407 184.756 58.0071 182.581 56.4423 181.858L56.0257 190.454H56.0237Z" fill="#553597"/>
<path d="M56.3825 73.6572L62.4444 117.998L65.8112 173.051L50.9944 174.626L44.7093 119.345L33.9331 77.3245L56.3825 73.6572Z" fill="#553597"/>
<path d="M19.565 172.379L7.99146 160.318L24.2793 124.141L25.6269 77.8853H49.8723L43.8104 124.141L19.565 172.379Z" fill="#553597"/>
<path d="M49.1907 80.7875L44.5818 115.924L45.1747 116.002L49.7837 80.8654L49.1907 80.7875Z" fill="white"/>
<path d="M36.3909 44.5304L36.7677 32.467L33.0261 31.2938L33.4766 24.3024L39.5385 21.0062H49.7167C49.7167 21.0062 53.4582 37.9341 46.2003 36.8865L47.0974 43.9278L36.3929 44.5324L36.3909 44.5304Z" fill="white"/>
<path d="M36.0819 44.8476L36.4627 32.6845L32.7131 31.5093L33.1876 24.1188L39.4607 20.7069H49.9538L50.0057 20.9424C50.0116 20.9723 50.6495 23.8834 50.8867 27.1795C51.2097 31.6609 50.6715 34.6897 49.29 36.1782C48.5804 36.9444 47.6575 37.2935 46.5392 37.2217L47.4302 44.2071L36.0799 44.8476H36.0819ZM33.3391 31.0763L37.0746 32.2475L36.7019 44.2131L46.7585 43.6465L45.8515 36.5334L46.2402 36.5892C47.3405 36.7488 48.1957 36.4815 48.8535 35.7712C51.6562 32.7483 49.8063 22.9496 49.4714 21.3055H39.6122L33.7616 24.4859L33.3371 31.0783L33.3391 31.0763Z" fill="#553597"/>
<path d="M47.6317 32.6865C46.934 32.6865 46.0988 32.4291 45.6304 31.5153L46.1626 31.2419C46.7825 32.4531 48.2138 32.0121 48.2736 31.9922L48.459 32.5608C48.2457 32.6306 47.9527 32.6845 47.6317 32.6845V32.6865Z" fill="#553597"/>
<path d="M48.4311 31.1482L48.3035 30.5636L49.1427 30.38L47.6855 27.3512L48.2257 27.0918L50.0118 30.805L48.4311 31.1482Z" fill="#553597"/>
<path d="M45.7101 27.2554C45.7101 27.6205 45.5028 27.9158 45.2476 27.9158C44.9925 27.9158 44.7852 27.6205 44.7852 27.2554C44.7852 26.8903 44.9925 26.595 45.2476 26.595C45.5028 26.595 45.7101 26.8903 45.7101 27.2554Z" fill="#553597"/>
<path d="M50.201 27.0558C50.201 27.421 49.9937 27.7163 49.7386 27.7163C49.4834 27.7163 49.2761 27.421 49.2761 27.0558C49.2761 26.6907 49.4834 26.3954 49.7386 26.3954C49.9937 26.3954 50.201 26.6907 50.201 27.0558Z" fill="#553597"/>
<path d="M42.8275 25.717L42.363 25.3399C42.967 24.5956 44.5657 23.4982 46.298 24.6615L45.9651 25.1583C44.2547 24.011 42.8853 25.6471 42.8275 25.717Z" fill="#553597"/>
<path d="M48.3653 25.0007L47.8809 24.6495C47.9227 24.5917 48.9314 23.2209 50.249 23.4404L50.1513 24.031C49.1985 23.8714 48.3732 24.9907 48.3653 25.0027V25.0007Z" fill="#553597"/>
<path d="M37.6667 27.2554C37.6667 27.2554 35.9085 25.2422 34.5989 27.0559C33.2892 28.8696 35.0235 31.3058 37.0806 32.1298L36.8713 35.5756C36.8713 35.5756 31.7922 34.2647 31.4175 28.1971C31.4175 28.1971 28.9397 21.6447 33.7657 18.6099C33.7657 18.6099 35.6733 17.2751 38.1909 17.4107C38.1909 17.4107 40.6149 15.3836 43.5312 14.6353C47.2748 13.6736 52.9878 14.336 53.829 18.9471C55.013 25.4377 42.5943 22.5426 42.5943 22.5426C42.5943 22.5426 40.7704 24.7892 38.5617 24.8271L37.6647 27.2574L37.6667 27.2554Z" fill="#553597"/>
<path d="M69.6205 55.4883L72.465 58.0342L85.4858 39.2708L92.4446 31.7426L101.275 27.1735C101.275 27.1735 103.968 28.2968 97.458 33.1652L100.039 34.7754C100.039 34.7754 101.273 36.1242 99.8142 37.2476C99.8142 37.2476 100.263 38.7081 99.1404 39.2708C99.1404 39.2708 99.0288 41.0126 97.7371 41.0685C96.4453 41.1244 94.8188 40.6754 94.8188 40.6754C94.8188 40.6754 92.5742 43.2593 91.0592 43.7661L81.7681 70.6224C81.7681 70.6224 80.1714 76.688 74.9209 74.6668C70.8345 73.0945 60.2556 65.5085 60.2556 65.5085L69.6205 55.4883Z" fill="white"/>
<path d="M76.9542 75.3771C76.2785 75.3771 75.5628 75.2334 74.8133 74.9441C70.7389 73.3759 60.5149 66.0612 60.0803 65.75L59.8032 65.5504L69.6007 55.0673L72.4093 57.5833L85.2487 39.0812L85.2626 39.0653L92.2574 31.4992L101.257 26.8423L101.385 26.8962C101.411 26.9061 102.017 27.1675 102.111 27.9157C102.266 29.1668 100.877 30.9226 97.9823 33.1413L100.229 34.544L100.257 34.5739C100.283 34.6019 100.891 35.2763 100.817 36.1282C100.777 36.5872 100.552 37.0002 100.147 37.3593C100.271 37.9619 100.235 38.9456 99.4196 39.4564C99.3259 40.1766 98.8893 41.3199 97.7471 41.3678C96.6667 41.4157 95.387 41.1284 94.9185 41.0107C94.4341 41.5494 92.66 43.4529 91.2926 43.9976L82.0513 70.7082C81.9875 70.9416 81.1842 73.753 78.9436 74.9022C78.3257 75.2195 77.6599 75.3771 76.9522 75.3771H76.9542ZM60.7062 65.4626C62.4026 66.6658 71.3907 72.9868 75.0266 74.3875C76.3941 74.9142 77.62 74.9082 78.6685 74.3715C80.7197 73.322 81.4692 70.5725 81.4772 70.5446L81.4832 70.5226L90.8221 43.5287L90.9617 43.4828C92.383 43.0079 94.5697 40.5059 94.5916 40.4799L94.7152 40.3383L94.8966 40.3881C94.9125 40.3921 96.4953 40.8251 97.7232 40.7712C98.7338 40.7273 98.8395 39.2688 98.8415 39.2528L98.8535 39.0812L99.0069 39.0034C99.886 38.5625 99.5432 37.3853 99.5272 37.3354L99.4674 37.1379L99.6309 37.0102C99.9917 36.7308 100.191 36.4196 100.223 36.0804C100.269 35.5716 99.9339 35.1206 99.8402 35.0049L96.9259 33.1872L97.2767 32.9258C101.122 30.0507 101.586 28.6061 101.521 28.0035C101.493 27.7481 101.359 27.5945 101.261 27.5167L92.6261 31.9841L85.7171 39.4583L72.515 58.4832L69.6365 55.9053L60.7042 65.4606L60.7062 65.4626Z" fill="#553597"/>
<path d="M93.9776 33.5404L99.7026 33.1473C99.7026 33.1473 101.724 35.394 95.2135 36.5173C95.2135 36.5173 95.1019 39.3825 92.6321 40.1128L93.9796 33.5404H93.9776Z" fill="white"/>
<path d="M92.7158 40.4002L92.5464 39.8255C93.4733 39.5502 94.153 38.9177 94.5657 37.942C94.8826 37.1918 94.9145 36.5114 94.9145 36.5034L94.9245 36.262L95.1617 36.2201C98.6661 35.6155 99.4774 34.7097 99.6508 34.2228C99.7684 33.8896 99.6468 33.6043 99.5571 33.4526L93.9976 33.8337L93.9557 33.2372L99.8262 32.8341L99.9239 32.9419C99.9478 32.9678 100.5 33.5943 100.217 34.4104C99.8501 35.4699 98.2594 36.264 95.4866 36.7668C95.3889 37.511 94.9185 39.7417 92.7138 40.3942L92.7158 40.4002Z" fill="#553597"/>
<path d="M36.0561 39.2708C36.0561 39.2708 44.9705 46.9366 47.0197 39.2708L58.7447 42.5072C60.0504 42.8863 61.2066 43.6624 62.0518 44.7259L71.1894 56.2046L63.6684 68.258L59.0657 64.5508L59.9627 88.8192L23.4181 88.2566L25.5032 65.5046L13.6526 63.643L19.9437 45.9151C20.4739 44.4226 21.6939 43.2833 23.2168 42.8563L36.0541 39.2668L36.0561 39.2708Z" fill="#A78ED7"/>
<path d="M49.7146 52.7887L46.6448 75.5626H64.0828L67.3001 52.7887H49.7146Z" fill="white"/>
<path d="M64.342 75.862H46.304L49.4535 52.4915H67.645L64.342 75.862ZM46.9877 75.2634H63.8217L66.9553 53.09H49.9758L46.9877 75.2634Z" fill="#553597"/>
<path d="M50.4662 53.3733L47.3984 76.1472H64.8345L68.0518 53.3733H50.4662Z" fill="white"/>
<path d="M65.0937 76.4466H47.0557L50.2052 53.076H68.3967L65.0937 76.4466ZM47.7394 75.848H64.5735L67.707 53.6746H50.7275L47.7394 75.848Z" fill="#553597"/>
<path d="M40.2661 65.5066C40.2661 65.5066 43.296 64.044 44.4761 62.9766C45.6542 61.9091 48.7419 60.1672 48.7419 60.1672L48.4608 62.8369C48.4608 62.8369 58.956 59.3252 59.1254 60.5044C59.1254 60.5044 59.2929 61.4023 58.2842 61.937C58.2842 61.937 60.6424 61.6557 59.3228 63.3138C59.3228 63.3138 60.5567 63.9602 58.8184 65.2512L56.7692 66.8234C56.7692 66.8234 58.0609 66.8514 57.3593 67.7792C56.6576 68.707 52.1107 70.5885 52.1107 70.5885L40.2681 72.5838C40.2681 72.5838 23.0314 78.9487 17.0891 80.8561C14.3681 81.7301 9.12956 80.082 10.3535 75.002C11.8386 68.8466 14.2067 62.5276 14.2067 62.5276L26.5736 63.4275L25.9556 66.4603L40.2681 65.5066H40.2661Z" fill="white"/>
<path d="M15.5382 81.3769C14.111 81.3769 12.4744 80.912 11.3043 79.8226C10.4013 78.9826 9.45247 77.4522 10.0604 74.9322C11.5316 68.8287 13.9017 62.4877 13.9236 62.4239L14.0013 62.2144L26.9304 63.1541L26.3224 66.1371L40.1843 65.2133C40.587 65.0157 43.2202 63.7088 44.2708 62.7571C45.4608 61.6796 48.4628 59.9817 48.5904 59.9098L49.0947 59.6245L48.8017 62.4099C51.0841 61.6597 58.0868 59.439 59.1732 60.1074C59.3088 60.1912 59.3945 60.3189 59.4164 60.4645C59.4204 60.4885 59.5261 61.087 59.0915 61.6517C59.4264 61.7056 59.7653 61.8333 59.9247 62.1246C60.144 62.5176 59.9247 62.9686 59.7294 63.2599C59.8789 63.4115 60.0144 63.631 60.0364 63.9064C60.0762 64.4151 59.7234 64.9499 58.9879 65.4946L57.441 66.6818C57.5865 66.7556 57.7181 66.8633 57.7958 67.021C57.9254 67.2923 57.8576 67.6076 57.5885 67.9607C56.8589 68.9244 52.6888 70.6703 52.2164 70.8658L52.1526 70.8838L40.3378 72.8731C39.5704 73.1564 22.9456 79.2859 17.1728 81.1395C16.6964 81.2931 16.1343 81.3749 15.5343 81.3749L15.5382 81.3769ZM14.408 62.8429C13.9874 63.9882 11.9561 69.6288 10.6425 75.0719C10.2159 76.8437 10.5847 78.3361 11.711 79.3836C13.1542 80.7244 15.5303 81.0417 16.9954 80.5708C22.8639 78.6873 39.991 72.3663 40.1624 72.3024L40.2162 72.2885L52.025 70.2992C53.823 69.5529 56.6416 68.2281 57.1181 67.5996C57.2676 67.4021 57.2735 67.3023 57.2636 67.2823C57.2277 67.2085 56.9785 67.1307 56.7612 67.1247L55.918 67.1008L58.635 65.0137C59.3686 64.469 59.4583 64.1159 59.4463 63.9542C59.4304 63.7168 59.1832 63.5791 59.1812 63.5771L58.8702 63.4055L59.0895 63.1262C59.4005 62.7351 59.4583 62.4977 59.4104 62.4139C59.3108 62.2343 58.7088 62.1884 58.3201 62.2343L56.7214 62.4259L58.1447 61.6737C58.8344 61.3085 58.8463 60.7538 58.8364 60.5982C58.1367 60.267 53.0037 61.6337 48.5565 63.1202L48.116 63.2679L48.3831 60.7199C47.4641 61.2586 45.5346 62.4219 44.6774 63.198C43.4814 64.2815 40.5232 65.7141 40.3976 65.7739L40.3458 65.7999L40.288 65.8038L25.5849 66.7835L26.2128 63.6988L14.41 62.8409L14.408 62.8429ZM58.8304 60.5583C58.8304 60.5583 58.8304 60.5583 58.8304 60.5603C58.8304 60.5603 58.8304 60.5603 58.8304 60.5583Z" fill="#553597"/>
<path d="M99.5949 37.5509C98.4108 37.5509 97.2567 37.2895 97.2048 37.2776L97.3384 36.6949C97.3503 36.6969 98.6281 36.9863 99.8062 36.9503L99.8241 37.5489C99.7484 37.5509 99.6706 37.5529 99.5949 37.5529V37.5509Z" fill="#553597"/>
<path d="M99.0987 39.5662C98.0621 39.4125 96.6867 38.82 96.6289 38.796L96.8661 38.2473C96.8801 38.2533 98.2276 38.8319 99.1864 38.9756L99.0987 39.5682V39.5662Z" fill="#553597"/>
<path d="M62.7534 54.794H56.0098L56.245 52.7548L56.839 52.8247L56.6815 54.1954H62.2291L62.4205 52.7509L63.0125 52.8287L62.7534 54.794Z" fill="#553597"/>
<path d="M58.1816 61.6513L53.9729 63.1971L54.1789 63.7591L58.3876 62.2133L58.1816 61.6513Z" fill="#553597"/>
<path d="M59.1952 63.043L54.8445 65.0867L55.0985 65.6285L59.4493 63.5849L59.1952 63.043Z" fill="#553597"/>
<path d="M56.6367 66.5553L55.4382 67.1453L55.7022 67.6824L56.9006 67.0924L56.6367 66.5553Z" fill="#553597"/>
<path d="M27.9301 66.0311L20.4189 66.8253L20.4818 67.4206L27.9929 66.6264L27.9301 66.0311Z" fill="#553597"/>
<path d="M72.2027 57.8776L70.1079 61.473L70.6245 61.7746L72.7193 58.1792L72.2027 57.8776Z" fill="#553597"/>
<path d="M36.7717 28.4106C36.5205 27.7103 35.4501 27.818 35.4401 27.82L35.3723 27.2254C35.4361 27.2174 36.9212 27.0618 37.3338 28.2071L36.7717 28.4106Z" fill="#553597"/>
<path d="M27.6764 57.9535L26.282 63.3466L26.8609 63.4965L28.2554 58.1034L27.6764 57.9535Z" fill="#553597"/>
<path d="M38.3107 17.9215L37.9917 17.6322C36.7897 16.5428 33.688 17.3329 33.6561 17.3409L33.5046 16.7623C33.6362 16.7283 36.5246 15.9921 38.0814 16.9558C38.6695 15.8584 40.914 12.5143 46.4795 12.3208L46.4995 12.9194C40.2761 13.1349 38.5399 17.3409 38.4701 17.5205L38.3107 17.9215Z" fill="#553597"/>
</g>
<defs>
<clipPath id="clip0_2173_1639">
<rect width="198" height="191.104" fill="white"/>
</clipPath>
</defs>
</svg>
