<svg width="319" height="214" viewBox="0 0 319 214" fill="none" xmlns="http://www.w3.org/2000/svg">
<g clip-path="url(#clip0_2191_2389)">
<rect width="318.579" height="214" rx="7.17757" fill="#6F46BE"/>
<rect x="-0.689308" y="0.157651" width="466.597" height="149.371" rx="74.6857" transform="matrix(-0.84696 -0.531657 -0.531657 0.84696 119.793 87.0029)" stroke="#EDE3FF"/>
<rect x="-0.424102" y="0.565807" width="297.44" height="95.938" rx="47.969" transform="matrix(-0.989909 0.141705 0.141705 0.989909 505.184 -102.934)" stroke="#EDE3FF"/>
<rect x="-0.424102" y="0.565807" width="297.44" height="95.938" rx="47.969" transform="matrix(-0.989909 0.141705 0.141705 0.989909 541.504 100.066)" stroke="#EDE3FF"/>
<g clip-path="url(#clip1_2191_2389)">
<path d="M258.168 12.234H132.615V103.617H258.168V12.234Z" fill="white"/>
<path d="M258.467 103.916H132.316V11.9347H258.467V103.916ZM132.914 103.318H257.869V12.5333H132.914V103.318Z" fill="#553597"/>
<path d="M251.588 26.967H139.197V96.6377H251.588V26.967Z" fill="white"/>
<path d="M251.887 96.937H138.898V26.6677H251.887V96.937ZM139.496 96.3384H251.289V27.2663H139.496V96.3384Z" fill="#553597"/>
<path d="M246.16 42.9371H144.625V43.5357H246.16V42.9371Z" fill="#553597"/>
<path d="M246.16 48.063H144.625V48.6615H246.16V48.063Z" fill="#553597"/>
<path d="M246.16 53.1888H144.625V53.7874H246.16V53.1888Z" fill="#553597"/>
<path d="M246.16 58.3126H144.625V58.9112H246.16V58.3126Z" fill="#553597"/>
<path d="M246.16 63.4385H144.625V64.0371H246.16V63.4385Z" fill="#553597"/>
<path d="M246.16 68.8716H144.625V69.4702H246.16V68.8716Z" fill="#553597"/>
<path d="M246.16 73.8438H144.625V74.4424H246.16V73.8438Z" fill="#553597"/>
<path d="M246.16 79.1691H144.625V79.7677H246.16V79.1691Z" fill="#553597"/>
<path d="M246.16 84.4965H144.625V85.0951H246.16V84.4965Z" fill="#553597"/>
<path d="M160.909 16.42H139.197V19.0139H160.909V16.42Z" fill="white"/>
<path d="M161.208 19.3132H138.898V16.1208H161.208V19.3132ZM139.496 18.7146H160.61V16.7193H139.496V18.7146Z" fill="#553597"/>
<path d="M180.386 20.6979H139.197V23.2918H180.386V20.6979Z" fill="white"/>
<path d="M180.686 23.591H138.898V20.3986H180.686V23.591ZM139.496 22.9925H180.088V20.9972H139.496V22.9925Z" fill="#553597"/>
<path d="M165.008 75.8111H158.302V89.9256H165.008V75.8111Z" fill="#A78ED7"/>
<path d="M181.905 63.7378H175.2V89.9276H181.905V63.7378Z" fill="#A78ED7"/>
<path d="M198.746 54.7191H192.04V89.9276H198.746V54.7191Z" fill="#A78ED7"/>
<path d="M215.668 45.3434H208.962V89.9276H215.668V45.3434Z" fill="#A78ED7"/>
<path d="M232.484 40.1238H225.778V89.9276H232.484V40.1238Z" fill="#A78ED7"/>
<path d="M246.459 90.2269H144.327V38.332H246.459V90.2249V90.2269ZM144.925 89.6283H245.861V38.9326H144.925V89.6283Z" fill="#553597"/>
<path d="M165.311 71.0843H152.874V69.8872H164.703L175.664 54.8648H185.994L197.063 40.1637H211.513L215.791 33.6591L216.79 34.3156L212.159 41.3609H197.659L186.59 56.062H176.272L165.311 71.0843Z" fill="#A78ED7"/>
<path d="M216.307 36.7319L215.841 34.7027L213.812 35.1636L213.546 33.9963L216.738 33.2721L217.473 36.4645L216.307 36.7319Z" fill="#A78ED7"/>
<path d="M193.678 110.609H142.343V142H193.678V110.609Z" fill="white"/>
<path d="M193.975 142.299H142.042V110.309H193.975V142.299ZM142.642 141.701H193.379V110.908H142.642V141.701Z" fill="#553597"/>
<path d="M157.15 138.251C151.014 138.251 146.023 133.255 146.023 127.111C146.023 124.182 147.149 121.415 149.196 119.322C151.24 117.231 153.971 116.044 156.887 115.976H156.911C161.294 115.882 165.369 118.416 167.226 122.383C167.924 123.865 168.277 125.457 168.277 127.111C168.277 133.253 163.286 138.251 157.15 138.251ZM157.15 116.572C157.074 116.572 156.998 116.572 156.923 116.576H156.899C154.14 116.64 151.555 117.766 149.621 119.743C147.685 121.724 146.619 124.342 146.619 127.113C146.619 132.926 151.343 137.654 157.148 137.654C162.953 137.654 167.677 132.926 167.677 127.113C167.677 125.547 167.342 124.043 166.682 122.64C164.956 118.955 161.212 116.574 157.146 116.574L157.15 116.572Z" fill="#553597"/>
<path d="M166.955 122.51L157.15 127.111L156.893 116.275C156.978 116.275 157.064 116.271 157.15 116.271C161.487 116.271 165.229 118.823 166.955 122.508V122.51Z" fill="#A78ED7"/>
<path d="M156.861 127.578L156.585 115.984L156.908 115.978C161.292 115.884 165.366 118.418 167.224 122.385L167.352 122.656L156.861 127.578ZM157.199 116.572L157.439 126.646L166.554 122.369C164.782 118.853 161.146 116.59 157.199 116.572Z" fill="#553597"/>
<path d="M182.795 121.547H172.29V123.137H182.795V121.547Z" fill="#A78ED7"/>
<path d="M189.139 126.617H171.99V124.428H189.139V126.617ZM172.588 126.018H188.541V125.026H172.588V126.018Z" fill="#553597"/>
<path d="M189.139 129.797H171.99V127.608H189.139V129.797ZM172.588 129.198H188.541V128.207H172.588V129.198Z" fill="#553597"/>
<path d="M189.139 132.977H171.99V130.789H189.139V132.977ZM172.588 132.379H188.541V131.387H172.588V132.379Z" fill="#553597"/>
<path d="M70.6294 169.134C70.6294 169.134 67.3104 177.199 64.3184 179.97L70.6792 188.959L79.161 176.626L70.6294 169.136V169.134Z" fill="white"/>
<path d="M70.6814 189.479L63.9219 179.926L64.1152 179.748C67.0256 177.053 70.3206 169.1 70.3545 169.018L70.514 168.631L79.5599 176.572L70.6834 189.477L70.6814 189.479ZM64.7093 180.006L70.6734 188.434L78.7626 176.672L70.7432 169.63C70.0515 171.251 67.3186 177.416 64.7093 180.004V180.006Z" fill="#553597"/>
<path d="M76.2907 202.74H67.6853C67.6853 202.74 60.2021 194.35 60.8001 183.713L66.0886 177.496C66.0886 177.496 66.2042 184.086 73.1192 185.922L72.6986 197.57C72.6986 197.57 76.8149 198.993 76.2907 202.738V202.74Z" fill="white"/>
<path d="M76.55 203.039H67.5499L67.4602 202.939C67.3845 202.856 59.9013 194.334 60.4994 183.697L60.5053 183.597L66.3698 176.704L66.3858 177.494C66.3918 177.753 66.5871 183.883 73.1932 185.636L73.4244 185.698L73.0038 197.375C73.8649 197.742 77.0663 199.348 76.5859 202.784L76.55 203.041V203.039ZM67.821 202.441H76.0218C76.2869 199.168 72.637 197.867 72.5991 197.853L72.3898 197.782L72.8084 186.149C67.3346 184.579 66.1247 180.006 65.8595 178.224L61.0894 183.831C60.5891 193.556 66.9958 201.467 67.819 202.441H67.821Z" fill="#553597"/>
<path d="M125.306 184.487L127.327 198.717L117.823 199.992L115.279 185.76L125.306 184.487Z" fill="white"/>
<path d="M117.58 200.326L114.931 185.503L125.563 184.152L127.668 198.975L117.582 200.326H117.58ZM115.628 186.018L118.066 199.657L126.989 198.462L125.051 184.82L115.628 186.018Z" fill="#553597"/>
<path d="M141.47 202.688H116.176L116.631 193.324C116.631 193.324 123.691 197.145 126.406 192.239L139.299 199.298C139.299 199.298 141.807 200.403 141.47 202.688Z" fill="white"/>
<path d="M141.729 202.987H115.863L116.356 192.835L116.774 193.061C116.842 193.097 123.608 196.682 126.147 192.093L126.291 191.832L139.435 199.029C139.535 199.075 140.145 199.366 140.721 199.919C141.558 200.725 141.921 201.696 141.767 202.73L141.729 202.985V202.987ZM116.491 202.389H141.201C141.237 201.648 140.94 200.968 140.318 200.366C139.778 199.843 139.186 199.575 139.18 199.573L139.158 199.561L126.52 192.642C124.008 196.69 118.475 194.515 116.91 193.793L116.493 202.389H116.491Z" fill="#553597"/>
<path d="M116.85 85.5919L122.912 129.933L126.279 184.986L111.462 186.56L105.177 131.279L94.4009 89.2592L116.85 85.5919Z" fill="#553597"/>
<path d="M80.0325 184.314L68.459 172.252L84.7469 136.076L86.0944 89.8199H110.34L104.278 136.076L80.0325 184.314Z" fill="#553597"/>
<path d="M109.658 92.7221L105.049 127.858L105.642 127.936L110.251 92.8L109.658 92.7221Z" fill="white"/>
<path d="M96.8585 56.465L97.2352 44.4017L93.4937 43.2284L93.9442 36.237L100.006 32.9409H110.184C110.184 32.9409 113.926 49.8687 106.668 48.8212L107.565 55.8625L96.8605 56.467L96.8585 56.465Z" fill="white"/>
<path d="M96.5495 56.7823L96.9302 44.6191L93.1807 43.4439L93.6551 36.0535L99.9282 32.6416H110.421L110.473 32.877C110.479 32.9069 111.117 35.818 111.354 39.1142C111.677 43.5956 111.139 46.6244 109.758 48.1129C109.048 48.879 108.125 49.2282 107.007 49.1564L107.898 56.1418L96.5475 56.7823H96.5495ZM93.8066 43.011L97.5422 44.1822L97.1694 56.1478L107.226 55.5811L106.319 48.468L106.708 48.5239C107.808 48.6835 108.663 48.4161 109.321 47.7058C112.124 44.683 110.274 34.8842 109.939 33.2402H100.08L94.2292 36.4206L93.8046 43.013L93.8066 43.011Z" fill="#553597"/>
<path d="M108.099 44.6211C107.401 44.6211 106.566 44.3638 106.098 43.4499L106.63 43.1766C107.25 44.3877 108.681 43.9467 108.741 43.9268L108.926 44.4954C108.713 44.5653 108.42 44.6192 108.099 44.6192V44.6211Z" fill="#553597"/>
<path d="M108.898 43.0828L108.771 42.4982L109.61 42.3146L108.153 39.2858L108.693 39.0264L110.479 42.7396L108.898 43.0828Z" fill="#553597"/>
<path d="M106.177 39.19C106.177 39.5552 105.97 39.8505 105.715 39.8505C105.46 39.8505 105.252 39.5552 105.252 39.19C105.252 38.8249 105.46 38.5296 105.715 38.5296C105.97 38.5296 106.177 38.8249 106.177 39.19Z" fill="#553597"/>
<path d="M110.669 38.9905C110.669 39.3556 110.461 39.6509 110.206 39.6509C109.951 39.6509 109.744 39.3556 109.744 38.9905C109.744 38.6253 109.951 38.33 110.206 38.33C110.461 38.33 110.669 38.6253 110.669 38.9905Z" fill="#553597"/>
<path d="M103.295 37.6517L102.831 37.2746C103.435 36.5303 105.033 35.433 106.765 36.5962L106.433 37.093C104.722 35.9457 103.353 37.5819 103.295 37.6517Z" fill="#553597"/>
<path d="M108.833 36.9354L108.348 36.5842C108.39 36.5263 109.399 35.1556 110.716 35.3751L110.619 35.9657C109.666 35.806 108.841 36.9254 108.833 36.9374V36.9354Z" fill="#553597"/>
<path d="M98.1342 39.19C98.1342 39.19 96.3761 37.1768 95.0664 38.9905C93.7568 40.8042 95.491 43.2404 97.5482 44.0644L97.3389 47.5103C97.3389 47.5103 92.2597 46.1994 91.885 40.1318C91.885 40.1318 89.4072 33.5793 94.2332 30.5445C94.2332 30.5445 96.1408 29.2097 98.6585 29.3454C98.6585 29.3454 101.082 27.3182 103.999 26.57C107.742 25.6082 113.455 26.2707 114.297 30.8817C115.481 37.3723 103.062 34.4772 103.062 34.4772C103.062 34.4772 101.238 36.7239 99.0292 36.7618L98.1322 39.192L98.1342 39.19Z" fill="#553597"/>
<path d="M130.088 67.423L132.933 69.969L145.953 51.2055L152.912 43.6774L161.743 39.1082C161.743 39.1082 164.436 40.2315 157.926 45.1L160.507 46.7102C160.507 46.7102 161.741 48.059 160.282 49.1823C160.282 49.1823 160.73 50.6428 159.608 51.2055C159.608 51.2055 159.496 52.9474 158.205 53.0032C156.913 53.0591 155.286 52.6102 155.286 52.6102C155.286 52.6102 153.042 55.194 151.527 55.7008L142.236 82.5571C142.236 82.5571 140.639 88.6227 135.388 86.6015C131.302 85.0292 120.723 77.4432 120.723 77.4432L130.088 67.423Z" fill="white"/>
<path d="M137.422 87.3118C136.746 87.3118 136.03 87.1682 135.281 86.8789C131.206 85.3106 120.982 77.9959 120.548 77.6847L120.271 77.4851L130.068 67.002L132.877 69.5181L145.716 51.016L145.73 51L152.725 43.434L161.725 38.777L161.852 38.8309C161.878 38.8409 162.484 39.1022 162.578 39.8505C162.733 41.1015 161.344 42.8573 158.45 45.0761L160.696 46.4787L160.724 46.5087C160.75 46.5366 161.358 47.211 161.284 48.063C161.244 48.5219 161.019 48.9349 160.614 49.2941C160.738 49.8966 160.702 50.8803 159.887 51.3911C159.793 52.1114 159.357 53.2547 158.214 53.3025C157.134 53.3504 155.854 53.0631 155.386 52.9454C154.901 53.4841 153.127 55.3876 151.76 55.9323L142.519 82.6429C142.455 82.8764 141.651 85.6877 139.411 86.837C138.793 87.1542 138.127 87.3118 137.42 87.3118H137.422ZM121.174 77.3974C122.87 78.6005 131.858 84.9215 135.494 86.3222C136.861 86.8489 138.087 86.8429 139.136 86.3062C141.187 85.2567 141.937 82.5072 141.944 82.4793L141.95 82.4573L151.289 55.4634L151.429 55.4175C152.85 54.9426 155.037 52.4406 155.059 52.4146L155.182 52.273L155.364 52.3229C155.38 52.3269 156.963 52.7598 158.19 52.706C159.201 52.6621 159.307 51.2035 159.309 51.1876L159.321 51.016L159.474 50.9381C160.353 50.4972 160.01 49.32 159.994 49.2701L159.935 49.0726L160.098 48.9449C160.459 48.6655 160.658 48.3543 160.69 48.0151C160.736 47.5063 160.401 47.0554 160.307 46.9396L157.393 45.122L157.744 44.8606C161.589 41.9854 162.054 40.5408 161.988 39.9383C161.96 39.6829 161.826 39.5292 161.729 39.4514L153.093 43.9188L146.184 51.3931L132.982 70.4179L130.104 67.84L121.172 77.3954L121.174 77.3974Z" fill="#553597"/>
<path d="M154.445 45.4751L160.17 45.082C160.17 45.082 162.191 47.3287 155.681 48.452C155.681 48.452 155.569 51.3172 153.1 52.0475L154.447 45.4751H154.445Z" fill="white"/>
<path d="M153.183 52.3348L153.014 51.7602C153.941 51.4848 154.62 50.8523 155.033 49.8766C155.35 49.1264 155.382 48.446 155.382 48.4381L155.392 48.1966L155.629 48.1547C159.133 47.5502 159.945 46.6443 160.118 46.1575C160.236 45.8243 160.114 45.5389 160.024 45.3873L154.465 45.7684L154.423 45.1718L160.293 44.7688L160.391 44.8765C160.415 44.9025 160.967 45.529 160.684 46.345C160.317 47.4045 158.727 48.1986 155.954 48.7014C155.856 49.4457 155.386 51.6764 153.181 52.3288L153.183 52.3348Z" fill="#553597"/>
<path d="M96.5237 51.2055C96.5237 51.2055 105.438 58.8713 107.487 51.2055L119.212 54.4418C120.518 54.8209 121.674 55.5971 122.519 56.6606L131.657 68.1393L124.136 80.1927L119.533 76.4855L120.43 100.754L83.8857 100.191L85.9707 77.4392L74.1201 75.5777L80.4112 57.8497C80.9414 56.3573 82.1614 55.218 83.6843 54.791L96.5217 51.2015L96.5237 51.2055Z" fill="#A78ED7"/>
<path d="M110.182 64.7234L107.112 87.4974H124.55L127.768 64.7234H110.182Z" fill="white"/>
<path d="M124.81 87.7967H106.771L109.921 64.4261H128.113L124.81 87.7967ZM107.455 87.1981H124.289L127.423 65.0247H110.443L107.455 87.1981Z" fill="#553597"/>
<path d="M110.934 65.308L107.866 88.082H125.302L128.519 65.308H110.934Z" fill="white"/>
<path d="M125.561 88.3813H107.523L110.672 65.0107H128.864L125.561 88.3813ZM108.207 87.7827H125.041L128.174 65.6093H111.195L108.207 87.7827Z" fill="#553597"/>
<path d="M100.734 77.4413C100.734 77.4413 103.764 75.9787 104.944 74.9113C106.122 73.8438 109.209 72.1019 109.209 72.1019L108.928 74.7716C108.928 74.7716 119.423 71.2599 119.593 72.4391C119.593 72.4391 119.76 73.337 118.752 73.8717C118.752 73.8717 121.11 73.5904 119.79 75.2485C119.79 75.2485 121.024 75.8949 119.286 77.1859L117.237 78.7581C117.237 78.7581 118.528 78.7861 117.827 79.7139C117.125 80.6417 112.578 82.5232 112.578 82.5232L100.736 84.5185C100.736 84.5185 83.4989 90.8834 77.5566 92.7908C74.8357 93.6648 69.5971 92.0167 70.821 86.9367C72.3061 80.7813 74.6742 74.4623 74.6742 74.4623L87.0411 75.3622L86.4232 78.395L100.736 77.4413H100.734Z" fill="white"/>
<path d="M76.006 93.3116C74.5788 93.3116 72.9422 92.8467 71.7721 91.7573C70.8691 90.9173 69.9202 89.3869 70.5282 86.8669C71.9993 80.7634 74.3695 74.4224 74.3914 74.3586L74.4691 74.1491L87.3982 75.0888L86.7902 78.0718L100.652 77.1479C101.055 76.9504 103.688 75.6435 104.739 74.6918C105.929 73.6143 108.931 71.9164 109.058 71.8445L109.562 71.5592L109.269 74.3446C111.552 73.5944 118.555 71.3736 119.641 72.0421C119.777 72.1259 119.862 72.2536 119.884 72.3992C119.888 72.4232 119.994 73.0217 119.559 73.5864C119.894 73.6403 120.233 73.768 120.393 74.0593C120.612 74.4523 120.393 74.9033 120.197 75.1946C120.347 75.3462 120.482 75.5657 120.504 75.841C120.544 76.3498 120.191 76.8846 119.456 77.4293L117.909 78.6165C118.054 78.6903 118.186 78.798 118.264 78.9557C118.393 79.227 118.325 79.5423 118.056 79.8954C117.327 80.8591 113.157 82.605 112.684 82.8005L112.62 82.8185L100.806 84.8078C100.038 85.0911 83.4134 91.2205 77.6406 93.0741C77.1642 93.2278 76.602 93.3096 76.002 93.3096L76.006 93.3116ZM74.8758 74.7776C74.4552 75.9228 72.4239 81.5635 71.1103 87.0065C70.6837 88.7783 71.0525 90.2708 72.1787 91.3183C73.6219 92.6591 75.998 92.9764 77.4632 92.5055C83.3317 90.622 100.459 84.301 100.63 84.2371L100.684 84.2232L112.493 82.2339C114.291 81.4876 117.109 80.1628 117.586 79.5343C117.735 79.3367 117.741 79.237 117.731 79.217C117.695 79.1432 117.446 79.0654 117.229 79.0594L116.386 79.0355L119.103 76.9484C119.836 76.4037 119.926 76.0505 119.914 75.8889C119.898 75.6515 119.651 75.5138 119.649 75.5118L119.338 75.3402L119.557 75.0609C119.868 74.6698 119.926 74.4324 119.878 74.3486C119.779 74.169 119.177 74.1231 118.788 74.169L117.189 74.3606L118.612 73.6083C119.302 73.2432 119.314 72.6885 119.304 72.5329C118.604 72.2017 113.472 73.5684 109.024 75.0549L108.584 75.2026L108.851 72.6546C107.932 73.1933 106.002 74.3566 105.145 75.1327C103.949 76.2162 100.991 77.6488 100.865 77.7086L100.814 77.7346L100.756 77.7385L86.0526 78.7182L86.6805 75.6335L74.8778 74.7756L74.8758 74.7776ZM119.298 72.493C119.298 72.493 119.298 72.493 119.298 72.495C119.298 72.495 119.298 72.495 119.298 72.493Z" fill="#553597"/>
<path d="M160.062 49.4856C158.878 49.4856 157.724 49.2242 157.672 49.2122L157.806 48.6296C157.818 48.6316 159.096 48.9209 160.274 48.885L160.292 49.4836C160.216 49.4856 160.138 49.4876 160.062 49.4876V49.4856Z" fill="#553597"/>
<path d="M159.566 51.5008C158.529 51.3472 157.154 50.7546 157.096 50.7306L157.333 50.1819C157.347 50.1879 158.695 50.7666 159.654 50.9102L159.566 51.5028V51.5008Z" fill="#553597"/>
<path d="M123.221 66.7287H116.478L116.713 64.6895L117.307 64.7593L117.149 66.1301H122.697L122.888 64.6855L123.48 64.7633L123.221 66.7287Z" fill="#553597"/>
<path d="M118.649 73.586L114.44 75.1318L114.646 75.6938L118.855 74.148L118.649 73.586Z" fill="#553597"/>
<path d="M119.663 74.9777L115.312 77.0214L115.566 77.5633L119.917 75.5196L119.663 74.9777Z" fill="#553597"/>
<path d="M117.104 78.4899L115.906 79.0799L116.17 79.617L117.368 79.027L117.104 78.4899Z" fill="#553597"/>
<path d="M88.3978 77.9658L80.8867 78.76L80.9495 79.3553L88.4606 78.5611L88.3978 77.9658Z" fill="#553597"/>
<path d="M132.67 69.8123L130.576 73.4077L131.092 73.7093L133.187 70.1139L132.67 69.8123Z" fill="#553597"/>
<path d="M97.2392 40.3453C96.988 39.6449 95.9176 39.7527 95.9076 39.7547L95.8398 39.1601C95.9036 39.1521 97.3887 38.9965 97.8013 40.1418L97.2392 40.3453Z" fill="#553597"/>
<path d="M88.1439 69.8882L86.7495 75.2812L87.3285 75.4312L88.7229 70.0381L88.1439 69.8882Z" fill="#553597"/>
<path d="M98.7782 29.8562L98.4593 29.5669C97.2573 28.4774 94.1556 29.2676 94.1237 29.2755L93.9722 28.6969C94.1037 28.663 96.9921 27.9268 98.549 28.8905C99.137 27.7931 101.382 24.449 106.947 24.2555L106.967 24.854C100.744 25.0695 99.0074 29.2755 98.9377 29.4551L98.7782 29.8562Z" fill="#553597"/>
</g>
</g>
<defs>
<clipPath id="clip0_2191_2389">
<rect width="318.579" height="214" fill="white"/>
</clipPath>
<clipPath id="clip1_2191_2389">
<rect width="198" height="191.104" fill="white" transform="translate(60.4673 11.9347)"/>
</clipPath>
</defs>
</svg>
