<svg width="30" height="30" viewBox="0 0 30 30" fill="none" xmlns="http://www.w3.org/2000/svg">
<path d="M12.5808 16.3105C12.5808 17.3302 11.7533 18.1577 10.7336 18.1577C9.71389 18.1577 8.88632 17.3302 8.88632 16.3105C8.88632 15.2908 9.71389 14.4632 10.7336 14.4632C11.7533 14.4632 12.5808 15.2908 12.5808 16.3105ZM19.6004 14.4632C18.5807 14.4632 17.7531 15.2908 17.7531 16.3105C17.7531 17.3302 18.5807 18.1577 19.6004 18.1577C20.6201 18.1577 21.4476 17.3302 21.4476 16.3105C21.4476 15.2908 20.6201 14.4632 19.6004 14.4632ZM29.945 14.8327C29.945 22.9901 23.3244 29.6107 15.167 29.6107C7.00952 29.6107 0.388977 22.9901 0.388977 14.8327C0.388977 6.67523 7.00952 0.0546875 15.167 0.0546875C23.3244 0.0546875 29.945 6.67523 29.945 14.8327ZM13.1867 3.18762C15.2556 6.61612 19.0093 8.92148 23.2949 8.92148C23.9747 8.92148 24.6397 8.8476 25.2751 8.74415C23.2062 5.31565 19.4526 3.01029 15.167 3.01029C14.4872 3.01029 13.8222 3.08418 13.1867 3.18762ZM3.96525 11.0939C6.49229 9.66039 8.44298 7.32546 9.374 4.53242C6.84696 5.96589 4.89627 8.30081 3.96525 11.0939ZM26.9894 14.8327C26.9894 13.68 26.812 12.5716 26.5017 11.5224C25.4672 11.7441 24.4032 11.8771 23.2949 11.8771C18.6694 11.8771 14.5463 9.74905 11.8271 6.424C10.2755 10.2072 7.18685 13.1775 3.34458 14.6258C3.35935 14.6849 3.34458 14.7588 3.34458 14.8327C3.34458 21.3498 8.64988 26.6551 15.167 26.6551C21.6841 26.6551 26.9894 21.3498 26.9894 14.8327Z" fill="#6F46BE"/>
</svg>
