<svg viewBox="0 0 292 121" fill="none" xmlns="http://www.w3.org/2000/svg">
<rect width="292" height="121" rx="6.6644" fill="#F3F5F7"/>
<path d="M28.256 55.916V54.452H30.08C30.312 54.452 30.524 54.404 30.716 54.308C30.908 54.212 31.06 54.072 31.172 53.888C31.284 53.704 31.34 53.48 31.34 53.216C31.34 52.96 31.284 52.74 31.172 52.556C31.06 52.372 30.908 52.232 30.716 52.136C30.524 52.04 30.312 51.992 30.08 51.992H28.256V50.528H30.356C30.892 50.528 31.376 50.636 31.808 50.852C32.24 51.068 32.58 51.38 32.828 51.788C33.084 52.188 33.212 52.664 33.212 53.216C33.212 53.768 33.084 54.248 32.828 54.656C32.58 55.056 32.24 55.368 31.808 55.592C31.376 55.808 30.892 55.916 30.356 55.916H28.256ZM26.816 59V50.528H28.7V59H26.816ZM36.7451 59.132C36.1451 59.132 35.6011 59 35.1131 58.736C34.6331 58.464 34.2531 58.096 33.9731 57.632C33.6931 57.168 33.5531 56.648 33.5531 56.072C33.5531 55.496 33.6931 54.98 33.9731 54.524C34.2531 54.068 34.6331 53.708 35.1131 53.444C35.5931 53.172 36.1371 53.036 36.7451 53.036C37.3531 53.036 37.8971 53.168 38.3771 53.432C38.8571 53.696 39.2371 54.06 39.5171 54.524C39.7971 54.98 39.9371 55.496 39.9371 56.072C39.9371 56.648 39.7971 57.168 39.5171 57.632C39.2371 58.096 38.8571 58.464 38.3771 58.736C37.8971 59 37.3531 59.132 36.7451 59.132ZM36.7451 57.464C37.0091 57.464 37.2411 57.408 37.4411 57.296C37.6411 57.176 37.7931 57.012 37.8971 56.804C38.0091 56.588 38.0651 56.344 38.0651 56.072C38.0651 55.8 38.0091 55.564 37.8971 55.364C37.7851 55.156 37.6291 54.996 37.4291 54.884C37.2371 54.764 37.0091 54.704 36.7451 54.704C36.4891 54.704 36.2611 54.764 36.0611 54.884C35.8611 54.996 35.7051 55.156 35.5931 55.364C35.4811 55.572 35.4251 55.812 35.4251 56.084C35.4251 56.348 35.4811 56.588 35.5931 56.804C35.7051 57.012 35.8611 57.176 36.0611 57.296C36.2611 57.408 36.4891 57.464 36.7451 57.464ZM43.3351 59.12C42.7831 59.12 42.2911 58.988 41.8591 58.724C41.4351 58.46 41.0991 58.1 40.8511 57.644C40.6111 57.188 40.4911 56.668 40.4911 56.084C40.4911 55.5 40.6111 54.98 40.8511 54.524C41.0991 54.068 41.4351 53.708 41.8591 53.444C42.2911 53.18 42.7831 53.048 43.3351 53.048C43.7351 53.048 44.0951 53.124 44.4151 53.276C44.7431 53.428 45.0111 53.64 45.2191 53.912C45.4351 54.176 45.5551 54.48 45.5791 54.824V57.284C45.5551 57.628 45.4391 57.94 45.2311 58.22C45.0231 58.492 44.7551 58.712 44.4271 58.88C44.0991 59.04 43.7351 59.12 43.3351 59.12ZM43.6591 57.464C43.9231 57.464 44.1511 57.408 44.3431 57.296C44.5351 57.176 44.6871 57.012 44.7991 56.804C44.9111 56.596 44.9671 56.356 44.9671 56.084C44.9671 55.812 44.9111 55.576 44.7991 55.376C44.6951 55.168 44.5431 55.004 44.3431 54.884C44.1511 54.764 43.9271 54.704 43.6711 54.704C43.4151 54.704 43.1871 54.764 42.9871 54.884C42.7951 55.004 42.6391 55.168 42.5191 55.376C42.4071 55.584 42.3511 55.82 42.3511 56.084C42.3511 56.348 42.4071 56.584 42.5191 56.792C42.6311 57 42.7871 57.164 42.9871 57.284C43.1871 57.404 43.4111 57.464 43.6591 57.464ZM46.6951 59H44.8951V57.428L45.1711 56.012L44.8591 54.596V50.288H46.6951V59ZM50.8678 59.132C50.2358 59.132 49.6718 59.004 49.1758 58.748C48.6878 58.484 48.3038 58.12 48.0238 57.656C47.7438 57.192 47.6038 56.668 47.6038 56.084C47.6038 55.5 47.7398 54.98 48.0118 54.524C48.2918 54.06 48.6678 53.696 49.1398 53.432C49.6118 53.168 50.1438 53.036 50.7358 53.036C51.3118 53.036 51.8198 53.16 52.2598 53.408C52.6998 53.656 53.0438 54 53.2918 54.44C53.5478 54.88 53.6758 55.384 53.6758 55.952C53.6758 56.056 53.6678 56.168 53.6518 56.288C53.6438 56.4 53.6238 56.532 53.5918 56.684L48.5638 56.696V55.436L52.8118 55.424L52.0198 55.952C52.0118 55.616 51.9598 55.34 51.8638 55.124C51.7678 54.9 51.6238 54.732 51.4318 54.62C51.2478 54.5 51.0198 54.44 50.7478 54.44C50.4598 54.44 50.2078 54.508 49.9918 54.644C49.7838 54.772 49.6198 54.956 49.4998 55.196C49.3878 55.436 49.3318 55.728 49.3318 56.072C49.3318 56.416 49.3918 56.712 49.5118 56.96C49.6398 57.2 49.8158 57.388 50.0398 57.524C50.2718 57.652 50.5438 57.716 50.8558 57.716C51.1438 57.716 51.4038 57.668 51.6358 57.572C51.8678 57.468 52.0718 57.316 52.2478 57.116L53.2558 58.124C52.9678 58.46 52.6198 58.712 52.2118 58.88C51.8038 59.048 51.3558 59.132 50.8678 59.132ZM58.9712 59.144C58.6272 59.144 58.2872 59.1 57.9512 59.012C57.6232 58.924 57.3152 58.8 57.0272 58.64C56.7472 58.472 56.5072 58.28 56.3072 58.064L57.3512 57.008C57.5432 57.216 57.7712 57.38 58.0352 57.5C58.2992 57.612 58.5872 57.668 58.8992 57.668C59.1152 57.668 59.2792 57.636 59.3912 57.572C59.5112 57.508 59.5712 57.42 59.5712 57.308C59.5712 57.164 59.4992 57.056 59.3552 56.984C59.2192 56.904 59.0432 56.836 58.8272 56.78C58.6112 56.716 58.3832 56.648 58.1432 56.576C57.9032 56.504 57.6752 56.404 57.4592 56.276C57.2432 56.148 57.0672 55.972 56.9312 55.748C56.7952 55.516 56.7272 55.224 56.7272 54.872C56.7272 54.496 56.8232 54.172 57.0152 53.9C57.2072 53.62 57.4792 53.4 57.8312 53.24C58.1832 53.08 58.5952 53 59.0672 53C59.5632 53 60.0192 53.088 60.4352 53.264C60.8592 53.432 61.2032 53.684 61.4672 54.02L60.4232 55.076C60.2392 54.86 60.0312 54.708 59.7992 54.62C59.5752 54.532 59.3552 54.488 59.1392 54.488C58.9312 54.488 58.7752 54.52 58.6712 54.584C58.5672 54.64 58.5152 54.724 58.5152 54.836C58.5152 54.956 58.5832 55.052 58.7192 55.124C58.8552 55.196 59.0312 55.26 59.2472 55.316C59.4632 55.372 59.6912 55.44 59.9312 55.52C60.1712 55.6 60.3992 55.708 60.6152 55.844C60.8312 55.98 61.0072 56.164 61.1432 56.396C61.2792 56.62 61.3472 56.916 61.3472 57.284C61.3472 57.852 61.1312 58.304 60.6992 58.64C60.2752 58.976 59.6992 59.144 58.9712 59.144ZM65.2233 59.132C64.5913 59.132 64.0273 59.004 63.5313 58.748C63.0433 58.484 62.6593 58.12 62.3793 57.656C62.0993 57.192 61.9593 56.668 61.9593 56.084C61.9593 55.5 62.0953 54.98 62.3673 54.524C62.6473 54.06 63.0233 53.696 63.4953 53.432C63.9673 53.168 64.4993 53.036 65.0913 53.036C65.6673 53.036 66.1753 53.16 66.6153 53.408C67.0553 53.656 67.3993 54 67.6473 54.44C67.9033 54.88 68.0313 55.384 68.0313 55.952C68.0313 56.056 68.0233 56.168 68.0073 56.288C67.9993 56.4 67.9793 56.532 67.9473 56.684L62.9193 56.696V55.436L67.1673 55.424L66.3753 55.952C66.3673 55.616 66.3153 55.34 66.2193 55.124C66.1233 54.9 65.9793 54.732 65.7873 54.62C65.6033 54.5 65.3753 54.44 65.1033 54.44C64.8153 54.44 64.5633 54.508 64.3473 54.644C64.1393 54.772 63.9753 54.956 63.8553 55.196C63.7433 55.436 63.6873 55.728 63.6873 56.072C63.6873 56.416 63.7473 56.712 63.8673 56.96C63.9953 57.2 64.1713 57.388 64.3953 57.524C64.6273 57.652 64.8993 57.716 65.2113 57.716C65.4993 57.716 65.7593 57.668 65.9913 57.572C66.2233 57.468 66.4273 57.316 66.6033 57.116L67.6113 58.124C67.3233 58.46 66.9753 58.712 66.5673 58.88C66.1593 59.048 65.7113 59.132 65.2233 59.132ZM68.9175 59V53.168H70.7535V59H68.9175ZM70.7535 55.796L69.9855 55.196C70.1375 54.516 70.3935 53.988 70.7535 53.612C71.1135 53.236 71.6135 53.048 72.2535 53.048C72.5335 53.048 72.7775 53.092 72.9855 53.18C73.2015 53.26 73.3895 53.388 73.5495 53.564L72.4575 54.944C72.3775 54.856 72.2775 54.788 72.1575 54.74C72.0375 54.692 71.9015 54.668 71.7495 54.668C71.4455 54.668 71.2015 54.764 71.0175 54.956C70.8415 55.14 70.7535 55.42 70.7535 55.796ZM78.9707 59.12C78.4347 59.12 77.9547 58.988 77.5307 58.724C77.1147 58.46 76.7827 58.1 76.5347 57.644C76.2947 57.188 76.1747 56.668 76.1747 56.084C76.1747 55.5 76.2947 54.98 76.5347 54.524C76.7827 54.068 77.1147 53.708 77.5307 53.444C77.9547 53.18 78.4347 53.048 78.9707 53.048C79.3627 53.048 79.7147 53.124 80.0267 53.276C80.3467 53.428 80.6067 53.64 80.8067 53.912C81.0067 54.176 81.1187 54.48 81.1427 54.824V57.344C81.1187 57.688 81.0067 57.996 80.8067 58.268C80.6147 58.532 80.3587 58.74 80.0387 58.892C79.7187 59.044 79.3627 59.12 78.9707 59.12ZM79.3427 57.464C79.7347 57.464 80.0507 57.336 80.2907 57.08C80.5307 56.816 80.6507 56.484 80.6507 56.084C80.6507 55.812 80.5947 55.572 80.4827 55.364C80.3787 55.156 80.2267 54.996 80.0267 54.884C79.8347 54.764 79.6107 54.704 79.3547 54.704C79.0987 54.704 78.8707 54.764 78.6707 54.884C78.4787 54.996 78.3227 55.156 78.2027 55.364C78.0907 55.572 78.0347 55.812 78.0347 56.084C78.0347 56.348 78.0907 56.584 78.2027 56.792C78.3147 57 78.4707 57.164 78.6707 57.284C78.8707 57.404 79.0947 57.464 79.3427 57.464ZM80.5787 59V57.428L80.8547 56.012L80.5787 54.596V53.168H82.3787V59H80.5787ZM89.3166 59.12C88.9246 59.12 88.5646 59.044 88.2366 58.892C87.9086 58.74 87.6406 58.532 87.4326 58.268C87.2246 57.996 87.1046 57.688 87.0726 57.344V54.884C87.1046 54.54 87.2246 54.228 87.4326 53.948C87.6406 53.668 87.9086 53.448 88.2366 53.288C88.5646 53.128 88.9246 53.048 89.3166 53.048C89.8686 53.048 90.3566 53.18 90.7806 53.444C91.2126 53.708 91.5486 54.068 91.7886 54.524C92.0366 54.98 92.1606 55.5 92.1606 56.084C92.1606 56.668 92.0366 57.188 91.7886 57.644C91.5486 58.1 91.2126 58.46 90.7806 58.724C90.3566 58.988 89.8686 59.12 89.3166 59.12ZM88.9806 57.464C89.2446 57.464 89.4726 57.404 89.6646 57.284C89.8646 57.164 90.0206 57 90.1326 56.792C90.2446 56.584 90.3006 56.348 90.3006 56.084C90.3006 55.812 90.2446 55.572 90.1326 55.364C90.0206 55.156 89.8646 54.996 89.6646 54.884C89.4726 54.764 89.2486 54.704 88.9926 54.704C88.7366 54.704 88.5086 54.764 88.3086 54.884C88.1166 54.996 87.9646 55.156 87.8526 55.364C87.7406 55.572 87.6846 55.812 87.6846 56.084C87.6846 56.348 87.7366 56.584 87.8406 56.792C87.9526 57 88.1086 57.164 88.3086 57.284C88.5086 57.404 88.7326 57.464 88.9806 57.464ZM85.9566 61.46V53.168H87.7926V54.668L87.4926 56.084L87.7686 57.5V61.46H85.9566ZM95.9733 59.132C95.3413 59.132 94.7773 59.004 94.2813 58.748C93.7933 58.484 93.4093 58.12 93.1293 57.656C92.8493 57.192 92.7093 56.668 92.7093 56.084C92.7093 55.5 92.8453 54.98 93.1173 54.524C93.3973 54.06 93.7733 53.696 94.2453 53.432C94.7173 53.168 95.2493 53.036 95.8413 53.036C96.4173 53.036 96.9253 53.16 97.3653 53.408C97.8053 53.656 98.1493 54 98.3973 54.44C98.6533 54.88 98.7813 55.384 98.7813 55.952C98.7813 56.056 98.7733 56.168 98.7573 56.288C98.7493 56.4 98.7293 56.532 98.6973 56.684L93.6693 56.696V55.436L97.9173 55.424L97.1253 55.952C97.1173 55.616 97.0653 55.34 96.9693 55.124C96.8733 54.9 96.7293 54.732 96.5373 54.62C96.3533 54.5 96.1253 54.44 95.8533 54.44C95.5653 54.44 95.3133 54.508 95.0973 54.644C94.8893 54.772 94.7253 54.956 94.6053 55.196C94.4933 55.436 94.4373 55.728 94.4373 56.072C94.4373 56.416 94.4973 56.712 94.6173 56.96C94.7453 57.2 94.9213 57.388 95.1453 57.524C95.3773 57.652 95.6493 57.716 95.9613 57.716C96.2493 57.716 96.5093 57.668 96.7413 57.572C96.9733 57.468 97.1773 57.316 97.3533 57.116L98.3613 58.124C98.0733 58.46 97.7253 58.712 97.3173 58.88C96.9093 59.048 96.4613 59.132 95.9733 59.132ZM102.152 59.12C101.6 59.12 101.108 58.988 100.676 58.724C100.252 58.46 99.9155 58.1 99.6675 57.644C99.4275 57.188 99.3075 56.668 99.3075 56.084C99.3075 55.5 99.4275 54.98 99.6675 54.524C99.9155 54.068 100.252 53.708 100.676 53.444C101.108 53.18 101.6 53.048 102.152 53.048C102.552 53.048 102.912 53.124 103.232 53.276C103.56 53.428 103.828 53.64 104.036 53.912C104.252 54.176 104.372 54.48 104.396 54.824V57.284C104.372 57.628 104.256 57.94 104.048 58.22C103.84 58.492 103.572 58.712 103.244 58.88C102.916 59.04 102.552 59.12 102.152 59.12ZM102.476 57.464C102.74 57.464 102.968 57.408 103.16 57.296C103.352 57.176 103.504 57.012 103.616 56.804C103.728 56.596 103.784 56.356 103.784 56.084C103.784 55.812 103.728 55.576 103.616 55.376C103.512 55.168 103.36 55.004 103.16 54.884C102.968 54.764 102.744 54.704 102.488 54.704C102.232 54.704 102.004 54.764 101.804 54.884C101.612 55.004 101.456 55.168 101.336 55.376C101.224 55.584 101.168 55.82 101.168 56.084C101.168 56.348 101.224 56.584 101.336 56.792C101.448 57 101.604 57.164 101.804 57.284C102.004 57.404 102.228 57.464 102.476 57.464ZM105.512 59H103.712V57.428L103.988 56.012L103.676 54.596V50.288H105.512V59ZM106.804 59V53.168H108.64V59H106.804ZM107.728 52.364C107.44 52.364 107.2 52.268 107.008 52.076C106.824 51.876 106.732 51.636 106.732 51.356C106.732 51.068 106.824 50.828 107.008 50.636C107.2 50.444 107.44 50.348 107.728 50.348C108.016 50.348 108.252 50.444 108.436 50.636C108.62 50.828 108.712 51.068 108.712 51.356C108.712 51.636 108.62 51.876 108.436 52.076C108.252 52.268 108.016 52.364 107.728 52.364ZM112.369 59.12C111.833 59.12 111.353 58.988 110.929 58.724C110.513 58.46 110.181 58.1 109.933 57.644C109.693 57.188 109.573 56.668 109.573 56.084C109.573 55.5 109.693 54.98 109.933 54.524C110.181 54.068 110.513 53.708 110.929 53.444C111.353 53.18 111.833 53.048 112.369 53.048C112.761 53.048 113.113 53.124 113.425 53.276C113.745 53.428 114.005 53.64 114.205 53.912C114.405 54.176 114.517 54.48 114.541 54.824V57.344C114.517 57.688 114.405 57.996 114.205 58.268C114.013 58.532 113.757 58.74 113.437 58.892C113.117 59.044 112.761 59.12 112.369 59.12ZM112.741 57.464C113.133 57.464 113.449 57.336 113.689 57.08C113.929 56.816 114.049 56.484 114.049 56.084C114.049 55.812 113.993 55.572 113.881 55.364C113.777 55.156 113.625 54.996 113.425 54.884C113.233 54.764 113.009 54.704 112.753 54.704C112.497 54.704 112.269 54.764 112.069 54.884C111.877 54.996 111.721 55.156 111.601 55.364C111.489 55.572 111.433 55.812 111.433 56.084C111.433 56.348 111.489 56.584 111.601 56.792C111.713 57 111.869 57.164 112.069 57.284C112.269 57.404 112.493 57.464 112.741 57.464ZM113.977 59V57.428L114.253 56.012L113.977 54.596V53.168H115.777V59H113.977ZM117.898 59V50.756H119.734V59H117.898ZM116.578 54.728V53.168H121.054V54.728H116.578ZM121.863 59V53.168H123.699V59H121.863ZM123.699 55.796L122.931 55.196C123.083 54.516 123.339 53.988 123.699 53.612C124.059 53.236 124.559 53.048 125.199 53.048C125.479 53.048 125.723 53.092 125.931 53.18C126.147 53.26 126.335 53.388 126.495 53.564L125.403 54.944C125.323 54.856 125.223 54.788 125.103 54.74C124.983 54.692 124.847 54.668 124.695 54.668C124.391 54.668 124.147 54.764 123.963 54.956C123.787 55.14 123.699 55.42 123.699 55.796ZM129.256 59.12C128.72 59.12 128.24 58.988 127.816 58.724C127.4 58.46 127.068 58.1 126.82 57.644C126.58 57.188 126.46 56.668 126.46 56.084C126.46 55.5 126.58 54.98 126.82 54.524C127.068 54.068 127.4 53.708 127.816 53.444C128.24 53.18 128.72 53.048 129.256 53.048C129.648 53.048 130 53.124 130.312 53.276C130.632 53.428 130.892 53.64 131.092 53.912C131.292 54.176 131.404 54.48 131.428 54.824V57.344C131.404 57.688 131.292 57.996 131.092 58.268C130.9 58.532 130.644 58.74 130.324 58.892C130.004 59.044 129.648 59.12 129.256 59.12ZM129.628 57.464C130.02 57.464 130.336 57.336 130.576 57.08C130.816 56.816 130.936 56.484 130.936 56.084C130.936 55.812 130.88 55.572 130.768 55.364C130.664 55.156 130.512 54.996 130.312 54.884C130.12 54.764 129.896 54.704 129.64 54.704C129.384 54.704 129.156 54.764 128.956 54.884C128.764 54.996 128.608 55.156 128.488 55.364C128.376 55.572 128.32 55.812 128.32 56.084C128.32 56.348 128.376 56.584 128.488 56.792C128.6 57 128.756 57.164 128.956 57.284C129.156 57.404 129.38 57.464 129.628 57.464ZM130.864 59V57.428L131.14 56.012L130.864 54.596V53.168H132.664V59H130.864ZM133.957 60.44L134.833 58.808L135.373 58.652C135.317 58.772 135.249 58.872 135.169 58.952C135.089 59.024 134.997 59.06 134.893 59.06C134.661 59.06 134.449 58.964 134.257 58.772C134.065 58.58 133.969 58.34 133.969 58.052C133.969 57.74 134.073 57.472 134.281 57.248C134.497 57.024 134.761 56.912 135.073 56.912C135.369 56.912 135.625 57.024 135.841 57.248C136.065 57.464 136.177 57.732 136.177 58.052C136.177 58.18 136.153 58.328 136.105 58.496C136.057 58.664 135.961 58.884 135.817 59.156L134.845 60.932L133.957 60.44ZM29.456 73.132C28.856 73.132 28.312 73 27.824 72.736C27.344 72.464 26.964 72.096 26.684 71.632C26.404 71.168 26.264 70.648 26.264 70.072C26.264 69.496 26.404 68.98 26.684 68.524C26.964 68.068 27.344 67.708 27.824 67.444C28.304 67.172 28.848 67.036 29.456 67.036C30.064 67.036 30.608 67.168 31.088 67.432C31.568 67.696 31.948 68.06 32.228 68.524C32.508 68.98 32.648 69.496 32.648 70.072C32.648 70.648 32.508 71.168 32.228 71.632C31.948 72.096 31.568 72.464 31.088 72.736C30.608 73 30.064 73.132 29.456 73.132ZM29.456 71.464C29.72 71.464 29.952 71.408 30.152 71.296C30.352 71.176 30.504 71.012 30.608 70.804C30.72 70.588 30.776 70.344 30.776 70.072C30.776 69.8 30.72 69.564 30.608 69.364C30.496 69.156 30.34 68.996 30.14 68.884C29.948 68.764 29.72 68.704 29.456 68.704C29.2 68.704 28.972 68.764 28.772 68.884C28.572 68.996 28.416 69.156 28.304 69.364C28.192 69.572 28.136 69.812 28.136 70.084C28.136 70.348 28.192 70.588 28.304 70.804C28.416 71.012 28.572 71.176 28.772 71.296C28.972 71.408 29.2 71.464 29.456 71.464ZM39.2072 73.12C38.8152 73.12 38.4552 73.044 38.1272 72.892C37.7992 72.74 37.5312 72.532 37.3232 72.268C37.1152 71.996 36.9952 71.688 36.9632 71.344V68.884C36.9952 68.54 37.1152 68.228 37.3232 67.948C37.5312 67.668 37.7992 67.448 38.1272 67.288C38.4552 67.128 38.8152 67.048 39.2072 67.048C39.7592 67.048 40.2472 67.18 40.6712 67.444C41.1032 67.708 41.4392 68.068 41.6792 68.524C41.9272 68.98 42.0512 69.5 42.0512 70.084C42.0512 70.668 41.9272 71.188 41.6792 71.644C41.4392 72.1 41.1032 72.46 40.6712 72.724C40.2472 72.988 39.7592 73.12 39.2072 73.12ZM38.8712 71.464C39.1352 71.464 39.3632 71.404 39.5552 71.284C39.7552 71.164 39.9112 71 40.0232 70.792C40.1352 70.584 40.1912 70.348 40.1912 70.084C40.1912 69.812 40.1352 69.572 40.0232 69.364C39.9112 69.156 39.7552 68.996 39.5552 68.884C39.3632 68.764 39.1392 68.704 38.8832 68.704C38.6272 68.704 38.3992 68.764 38.1992 68.884C38.0072 68.996 37.8552 69.156 37.7432 69.364C37.6312 69.572 37.5752 69.812 37.5752 70.084C37.5752 70.348 37.6272 70.584 37.7312 70.792C37.8432 71 37.9992 71.164 38.1992 71.284C38.3992 71.404 38.6232 71.464 38.8712 71.464ZM35.8472 75.46V67.168H37.6832V68.668L37.3832 70.084L37.6592 71.5V75.46H35.8472ZM45.1079 73.144C44.7639 73.144 44.4239 73.1 44.0879 73.012C43.7599 72.924 43.4519 72.8 43.1639 72.64C42.8839 72.472 42.6439 72.28 42.4439 72.064L43.4879 71.008C43.6799 71.216 43.9079 71.38 44.1719 71.5C44.4359 71.612 44.7239 71.668 45.0359 71.668C45.2519 71.668 45.4159 71.636 45.5279 71.572C45.6479 71.508 45.7079 71.42 45.7079 71.308C45.7079 71.164 45.6359 71.056 45.4919 70.984C45.3559 70.904 45.1799 70.836 44.9639 70.78C44.7479 70.716 44.5199 70.648 44.2799 70.576C44.0399 70.504 43.8119 70.404 43.5959 70.276C43.3799 70.148 43.2039 69.972 43.0679 69.748C42.9319 69.516 42.8639 69.224 42.8639 68.872C42.8639 68.496 42.9599 68.172 43.1519 67.9C43.3439 67.62 43.6159 67.4 43.9679 67.24C44.3199 67.08 44.7319 67 45.2039 67C45.6999 67 46.1559 67.088 46.5719 67.264C46.9959 67.432 47.3399 67.684 47.6039 68.02L46.5599 69.076C46.3759 68.86 46.1679 68.708 45.9359 68.62C45.7119 68.532 45.4919 68.488 45.2759 68.488C45.0679 68.488 44.9119 68.52 44.8079 68.584C44.7039 68.64 44.6519 68.724 44.6519 68.836C44.6519 68.956 44.7199 69.052 44.8559 69.124C44.9919 69.196 45.1679 69.26 45.3839 69.316C45.5999 69.372 45.8279 69.44 46.0679 69.52C46.3079 69.6 46.5359 69.708 46.7519 69.844C46.9679 69.98 47.1439 70.164 47.2799 70.396C47.4159 70.62 47.4839 70.916 47.4839 71.284C47.4839 71.852 47.2679 72.304 46.8359 72.64C46.4119 72.976 45.8359 73.144 45.1079 73.144ZM48.48 73V67.168H50.316V73H48.48ZM49.404 66.364C49.116 66.364 48.876 66.268 48.684 66.076C48.5 65.876 48.408 65.636 48.408 65.356C48.408 65.068 48.5 64.828 48.684 64.636C48.876 64.444 49.116 64.348 49.404 64.348C49.692 64.348 49.928 64.444 50.112 64.636C50.296 64.828 50.388 65.068 50.388 65.356C50.388 65.636 50.296 65.876 50.112 66.076C49.928 66.268 49.692 66.364 49.404 66.364ZM54.4289 73.132C53.8289 73.132 53.2849 73 52.7969 72.736C52.3089 72.472 51.9249 72.108 51.6449 71.644C51.3649 71.18 51.2249 70.66 51.2249 70.084C51.2249 69.5 51.3649 68.98 51.6449 68.524C51.9329 68.06 52.3209 67.696 52.8089 67.432C53.2969 67.168 53.8449 67.036 54.4529 67.036C54.9089 67.036 55.3249 67.116 55.7009 67.276C56.0849 67.428 56.4249 67.66 56.7209 67.972L55.5449 69.148C55.4089 68.996 55.2489 68.884 55.0649 68.812C54.8889 68.74 54.6849 68.704 54.4529 68.704C54.1889 68.704 53.9529 68.764 53.7449 68.884C53.5449 68.996 53.3849 69.156 53.2649 69.364C53.1529 69.564 53.0969 69.8 53.0969 70.072C53.0969 70.344 53.1529 70.584 53.2649 70.792C53.3849 71 53.5489 71.164 53.7569 71.284C53.9649 71.404 54.1969 71.464 54.4529 71.464C54.6929 71.464 54.9049 71.424 55.0889 71.344C55.2809 71.256 55.4449 71.136 55.5809 70.984L56.7449 72.16C56.4409 72.48 56.0969 72.724 55.7129 72.892C55.3289 73.052 54.9009 73.132 54.4289 73.132ZM60.2294 73.132C59.6294 73.132 59.0854 73 58.5974 72.736C58.1174 72.464 57.7374 72.096 57.4574 71.632C57.1774 71.168 57.0374 70.648 57.0374 70.072C57.0374 69.496 57.1774 68.98 57.4574 68.524C57.7374 68.068 58.1174 67.708 58.5974 67.444C59.0774 67.172 59.6214 67.036 60.2294 67.036C60.8374 67.036 61.3814 67.168 61.8614 67.432C62.3414 67.696 62.7214 68.06 63.0014 68.524C63.2814 68.98 63.4214 69.496 63.4214 70.072C63.4214 70.648 63.2814 71.168 63.0014 71.632C62.7214 72.096 62.3414 72.464 61.8614 72.736C61.3814 73 60.8374 73.132 60.2294 73.132ZM60.2294 71.464C60.4934 71.464 60.7254 71.408 60.9254 71.296C61.1254 71.176 61.2774 71.012 61.3814 70.804C61.4934 70.588 61.5494 70.344 61.5494 70.072C61.5494 69.8 61.4934 69.564 61.3814 69.364C61.2694 69.156 61.1134 68.996 60.9134 68.884C60.7214 68.764 60.4934 68.704 60.2294 68.704C59.9734 68.704 59.7454 68.764 59.5454 68.884C59.3454 68.996 59.1894 69.156 59.0774 69.364C58.9654 69.572 58.9094 69.812 58.9094 70.084C58.9094 70.348 58.9654 70.588 59.0774 70.804C59.1894 71.012 59.3454 71.176 59.5454 71.296C59.7454 71.408 59.9734 71.464 60.2294 71.464ZM59.3654 66.508L58.7654 65.632L60.6734 63.844L61.6814 65.26L59.3654 66.508ZM64.3355 73V64.288H66.1715V73H64.3355ZM70.2724 73.132C69.6724 73.132 69.1284 73 68.6404 72.736C68.1604 72.464 67.7804 72.096 67.5004 71.632C67.2204 71.168 67.0804 70.648 67.0804 70.072C67.0804 69.496 67.2204 68.98 67.5004 68.524C67.7804 68.068 68.1604 67.708 68.6404 67.444C69.1204 67.172 69.6644 67.036 70.2724 67.036C70.8804 67.036 71.4244 67.168 71.9044 67.432C72.3844 67.696 72.7644 68.06 73.0444 68.524C73.3244 68.98 73.4644 69.496 73.4644 70.072C73.4644 70.648 73.3244 71.168 73.0444 71.632C72.7644 72.096 72.3844 72.464 71.9044 72.736C71.4244 73 70.8804 73.132 70.2724 73.132ZM70.2724 71.464C70.5364 71.464 70.7684 71.408 70.9684 71.296C71.1684 71.176 71.3204 71.012 71.4244 70.804C71.5364 70.588 71.5924 70.344 71.5924 70.072C71.5924 69.8 71.5364 69.564 71.4244 69.364C71.3124 69.156 71.1564 68.996 70.9564 68.884C70.7644 68.764 70.5364 68.704 70.2724 68.704C70.0164 68.704 69.7884 68.764 69.5884 68.884C69.3884 68.996 69.2324 69.156 69.1204 69.364C69.0084 69.572 68.9524 69.812 68.9524 70.084C68.9524 70.348 69.0084 70.588 69.1204 70.804C69.2324 71.012 69.3884 71.176 69.5884 71.296C69.7884 71.408 70.0164 71.464 70.2724 71.464ZM76.8505 75.616C76.2105 75.616 75.6465 75.504 75.1585 75.28C74.6785 75.064 74.2985 74.756 74.0185 74.356L75.1465 73.228C75.3545 73.476 75.5865 73.664 75.8425 73.792C76.1065 73.92 76.4225 73.984 76.7905 73.984C77.2465 73.984 77.6025 73.872 77.8585 73.648C78.1225 73.424 78.2545 73.108 78.2545 72.7V71.212L78.5665 69.94L78.2905 68.668V67.168H80.0905V72.652C80.0905 73.252 79.9505 73.772 79.6705 74.212C79.3905 74.652 79.0065 74.996 78.5185 75.244C78.0305 75.492 77.4745 75.616 76.8505 75.616ZM76.7665 72.82C76.2305 72.82 75.7545 72.692 75.3385 72.436C74.9225 72.18 74.5945 71.832 74.3545 71.392C74.1145 70.952 73.9945 70.464 73.9945 69.928C73.9945 69.384 74.1145 68.896 74.3545 68.464C74.5945 68.024 74.9225 67.68 75.3385 67.432C75.7545 67.176 76.2305 67.048 76.7665 67.048C77.1665 67.048 77.5225 67.124 77.8345 67.276C78.1545 67.42 78.4105 67.628 78.6025 67.9C78.8025 68.164 78.9145 68.472 78.9385 68.824V71.044C78.9145 71.388 78.8025 71.696 78.6025 71.968C78.4105 72.232 78.1545 72.44 77.8345 72.592C77.5145 72.744 77.1585 72.82 76.7665 72.82ZM77.1145 71.188C77.3705 71.188 77.5905 71.132 77.7745 71.02C77.9665 70.908 78.1105 70.76 78.2065 70.576C78.3105 70.384 78.3625 70.168 78.3625 69.928C78.3625 69.688 78.3105 69.472 78.2065 69.28C78.1105 69.088 77.9665 68.936 77.7745 68.824C77.5905 68.712 77.3705 68.656 77.1145 68.656C76.8665 68.656 76.6465 68.712 76.4545 68.824C76.2625 68.936 76.1145 69.088 76.0105 69.28C75.9065 69.472 75.8545 69.688 75.8545 69.928C75.8545 70.152 75.9065 70.364 76.0105 70.564C76.1145 70.756 76.2585 70.908 76.4425 71.02C76.6345 71.132 76.8585 71.188 77.1145 71.188ZM84.1943 73.132C83.5943 73.132 83.0503 73 82.5623 72.736C82.0823 72.464 81.7023 72.096 81.4223 71.632C81.1423 71.168 81.0023 70.648 81.0023 70.072C81.0023 69.496 81.1423 68.98 81.4223 68.524C81.7023 68.068 82.0823 67.708 82.5623 67.444C83.0423 67.172 83.5863 67.036 84.1943 67.036C84.8023 67.036 85.3463 67.168 85.8263 67.432C86.3063 67.696 86.6863 68.06 86.9663 68.524C87.2463 68.98 87.3863 69.496 87.3863 70.072C87.3863 70.648 87.2463 71.168 86.9663 71.632C86.6863 72.096 86.3063 72.464 85.8263 72.736C85.3463 73 84.8023 73.132 84.1943 73.132ZM84.1943 71.464C84.4583 71.464 84.6903 71.408 84.8903 71.296C85.0903 71.176 85.2423 71.012 85.3463 70.804C85.4583 70.588 85.5143 70.344 85.5143 70.072C85.5143 69.8 85.4583 69.564 85.3463 69.364C85.2343 69.156 85.0783 68.996 84.8783 68.884C84.6863 68.764 84.4583 68.704 84.1943 68.704C83.9383 68.704 83.7103 68.764 83.5103 68.884C83.3103 68.996 83.1543 69.156 83.0423 69.364C82.9303 69.572 82.8743 69.812 82.8743 70.084C82.8743 70.348 82.9303 70.588 83.0423 70.804C83.1543 71.012 83.3103 71.176 83.5103 71.296C83.7103 71.408 83.9383 71.464 84.1943 71.464ZM89.3 73.132C88.988 73.132 88.728 73.024 88.52 72.808C88.312 72.592 88.208 72.332 88.208 72.028C88.208 71.708 88.312 71.444 88.52 71.236C88.728 71.02 88.988 70.912 89.3 70.912C89.62 70.912 89.88 71.02 90.08 71.236C90.288 71.444 90.392 71.708 90.392 72.028C90.392 72.332 90.288 72.592 90.08 72.808C89.88 73.024 89.62 73.132 89.3 73.132ZM92.8977 73.132C92.5857 73.132 92.3257 73.024 92.1177 72.808C91.9097 72.592 91.8057 72.332 91.8057 72.028C91.8057 71.708 91.9097 71.444 92.1177 71.236C92.3257 71.02 92.5857 70.912 92.8977 70.912C93.2177 70.912 93.4777 71.02 93.6777 71.236C93.8857 71.444 93.9897 71.708 93.9897 72.028C93.9897 72.332 93.8857 72.592 93.6777 72.808C93.4777 73.024 93.2177 73.132 92.8977 73.132ZM96.4953 73.132C96.1833 73.132 95.9233 73.024 95.7153 72.808C95.5073 72.592 95.4033 72.332 95.4033 72.028C95.4033 71.708 95.5073 71.444 95.7153 71.236C95.9233 71.02 96.1833 70.912 96.4953 70.912C96.8153 70.912 97.0753 71.02 97.2753 71.236C97.4833 71.444 97.5873 71.708 97.5873 72.028C97.5873 72.332 97.4833 72.592 97.2753 72.808C97.0753 73.024 96.8153 73.132 96.4953 73.132Z" fill="#64748B"/>
<rect x="149" y="57.801" width="48.7304" height="100.12" rx="24.3652" transform="rotate(-61.4406 149 57.801)" fill="#D2D8E0"/>
<g clip-path="url(#clip0_448_1632)">
<path d="M213 101.414C208.586 101.902 204.062 101.185 199.997 99.443C198.223 98.7361 196.679 97.5213 195.025 96.5754C194.387 96.207 193.67 95.9581 193.052 95.5897C192.314 95.1516 191.727 94.3948 191.129 93.7875C190.83 93.4888 190.511 93.1602 190.421 92.742C190.371 92.513 190.381 92.274 190.401 92.045C190.66 88.5501 190.72 85.0752 191.039 81.5803C191.198 79.9075 191.448 78.2746 191.727 76.6217C191.966 75.2078 191.866 73.7441 192.045 72.3203C192.245 70.6675 192.843 68.5466 193.939 67.2622C195.065 65.9479 196.768 65.4102 198.323 64.7929C199.04 64.5041 199.728 63.9664 200.455 63.7374C201.511 63.4088 202.588 63.5881 203.624 63.0902C206.035 61.9253 205.836 59.665 205.298 57.4745C205.258 57.3152 205.218 57.136 205.099 57.0165C205.009 56.9169 204.889 56.8671 204.78 56.8074C204.062 56.4689 203.405 56.0606 202.707 55.7022C200.784 54.6965 199 52.8744 198.462 50.7337C198.223 49.8077 197.875 48.8418 197.695 47.9158C197.516 47.0396 197.705 46.1136 197.715 45.2275C197.735 43.1962 197.795 41.175 197.894 39.1438C197.944 38.0087 197.845 37.0229 198.781 36.2164C199.499 35.6091 200.485 35.4697 201.392 35.4497C204.032 35.38 206.673 35.4796 209.294 35.7485C211.506 35.9775 213.758 36.3359 215.681 37.4611C217.594 38.5862 219.118 40.6174 219.049 42.8378C219.029 43.5049 218.909 44.401 218.56 44.9885C218.291 45.4465 217.843 45.5959 217.863 46.2232C217.873 46.5517 217.973 46.8803 217.992 47.2089C218.032 47.7366 217.873 48.2842 217.544 48.7024C217.126 49.2501 216.617 49.6882 216.179 50.2159C216.039 50.3852 215.89 50.5644 215.84 50.7735C215.81 50.9029 215.81 51.0324 215.81 51.1718C215.81 52.0878 215.76 52.9242 215.641 53.8402C215.422 55.4732 215.611 57.0961 215.472 58.7092C215.362 59.894 215.432 61.2681 216.229 62.2439C216.817 62.9707 217.883 63.1898 218.76 63.3192C220.025 63.5084 221.301 63.6876 222.566 63.8768C222.985 63.9366 223.433 63.9764 223.822 64.1556C224.659 64.534 225.496 64.9323 226.223 65.5098C227.289 66.3561 227.827 67.531 228.176 68.8055C229.451 73.5351 230.717 78.2546 231.992 82.9842C232.411 84.5474 232.829 86.1704 232.52 87.7536C232.271 88.9882 231.594 90.0934 230.846 91.1091C226.622 96.8044 220.005 100.638 213 101.414Z" fill="white"/>
<path d="M220.135 78.2945C220.713 77.1495 221.131 75.9347 221.39 74.6801C221.51 74.0628 221.629 73.4256 221.619 72.7983C221.619 72.1809 221.41 71.6034 220.992 71.1554C220.205 70.319 218.929 69.9705 217.833 70.3588C216.807 70.7272 216.149 71.6333 215.721 72.5991C215.242 73.6844 215.023 74.8594 214.654 75.9845C214.565 76.2533 214.993 76.3629 215.073 76.104C215.382 75.168 215.581 74.2022 215.92 73.2662C216.239 72.4 216.707 71.4541 217.534 70.9761C218.451 70.4385 219.617 70.5679 220.434 71.235C220.842 71.5736 221.121 72.0117 221.171 72.5394C221.231 73.1169 221.121 73.7143 221.022 74.2819C220.792 75.5962 220.364 76.8806 219.756 78.0755C219.637 78.3244 220.005 78.5534 220.135 78.2945Z" fill="#8996A9"/>
<path d="M216.089 61.9951C216.677 61.9055 217.315 62.0947 217.823 62.3735C218.092 62.5228 218.341 62.6921 218.56 62.9211C218.79 63.1601 218.959 63.4588 219.109 63.7475C219.796 65.022 220.075 66.4857 220.005 67.9294C219.965 68.7459 219.816 69.5524 219.567 70.3291C219.487 70.5979 219.906 70.7174 219.985 70.4486C220.454 68.965 220.583 67.3719 220.304 65.8385C220.165 65.0818 219.916 64.335 219.557 63.648C219.388 63.3194 219.198 62.9808 218.959 62.7021C218.75 62.4531 218.471 62.244 218.192 62.0748C217.534 61.6864 216.737 61.4574 215.98 61.5769C215.86 61.5968 215.8 61.7462 215.83 61.8458C215.86 61.9652 215.97 62.0051 216.089 61.9951Z" fill="#8996A9"/>
<path d="M207.072 67.7304C206.972 69.4629 207.022 72.9279 206.992 73.4158C206.823 75.5963 206.274 77.9362 206.494 80.1168C206.683 82.0584 206.215 84.1593 206.175 86.1407C206.105 89.4464 205.886 92.792 205.906 96.0877C205.906 96.6553 205.856 97.7605 206.454 98.0791C206.922 98.328 208.008 97.9995 208.497 97.9497C210.34 97.7406 212.173 97.4319 213.977 97.0038C214.166 96.9639 214.356 96.9142 214.495 96.7748C214.674 96.5955 214.704 96.3167 214.724 96.0579C215.003 91.8859 214.505 87.8036 214.106 83.6515C213.748 79.8081 213.678 75.9548 213.499 72.1114C213.449 71.1456 213.399 70.1897 213.329 69.2239C213.279 68.497 213.309 67.7602 213.24 67.0334C213.23 66.9836 213.23 66.9238 213.18 66.894C213.14 66.8641 213.08 66.8741 213.03 66.884C212.114 67.0433 211.247 67.113 210.31 67.0234C209.284 66.9338 208.257 66.8442 207.241 66.7546C207.161 66.7446 207.112 67.1429 207.072 67.7304Z" fill="#A6B0BF"/>
<path d="M203.415 77.4584C203.116 78.1056 202.319 78.3446 201.671 78.1753C201.342 78.0857 201.073 77.9065 200.914 77.6078C200.764 77.319 200.754 76.851 200.804 76.5623C200.814 76.4826 200.834 76.403 200.854 76.3333C200.864 76.3034 200.874 76.2735 200.884 76.2337C200.894 76.2138 200.894 76.1939 200.904 76.1839C200.884 76.2337 200.914 76.1541 200.924 76.1541C200.954 76.0943 200.983 76.0346 201.023 75.9848C201.053 75.935 201.013 75.9947 201.053 75.945C201.073 75.9151 201.103 75.8952 201.123 75.8653C201.143 75.8454 201.163 75.8255 201.193 75.8056C201.233 75.7657 201.153 75.8354 201.203 75.7956C201.213 75.7857 201.223 75.7857 201.233 75.7757C201.282 75.7359 201.342 75.706 201.402 75.6761C201.412 75.6761 201.462 75.6562 201.412 75.6761C201.422 75.6662 201.442 75.6662 201.462 75.6562C201.492 75.6463 201.512 75.6363 201.541 75.6363C201.571 75.6263 201.601 75.6164 201.631 75.6164C201.651 75.6164 201.751 75.5965 201.681 75.6064C201.81 75.5865 201.94 75.5965 202.07 75.6064C202.129 75.6164 202.05 75.5965 202.109 75.6164C202.139 75.6263 202.169 75.6263 202.199 75.6363C202.269 75.6463 202.329 75.6662 202.388 75.6861C202.418 75.696 202.458 75.706 202.488 75.716C202.498 75.716 202.588 75.7558 202.538 75.7359C202.608 75.7657 202.667 75.7956 202.727 75.8255C202.787 75.8554 202.837 75.8952 202.897 75.925C202.917 75.945 202.946 75.9549 202.966 75.9748C203.016 76.0147 202.936 75.945 202.976 75.9848C202.996 75.9947 203.016 76.0147 203.026 76.0246C203.086 76.0744 203.136 76.1242 203.186 76.174C203.215 76.2038 203.235 76.2337 203.255 76.2636C203.295 76.3034 203.225 76.2238 203.265 76.2735C203.275 76.2835 203.285 76.3034 203.295 76.3134C203.335 76.3731 203.375 76.4329 203.405 76.5026C203.415 76.5225 203.415 76.5324 203.425 76.5523C203.445 76.6021 203.405 76.5125 203.425 76.5623C203.435 76.6021 203.455 76.632 203.465 76.6718C203.475 76.7017 203.485 76.7415 203.494 76.7714C203.494 76.7913 203.514 76.8909 203.504 76.8311C203.514 76.9108 203.514 76.9805 203.514 77.0601C203.514 77.0801 203.514 77.1 203.514 77.1099C203.514 77.1597 203.524 77.0801 203.514 77.1199C203.504 77.1597 203.494 77.2095 203.485 77.2493C203.475 77.2891 203.465 77.329 203.455 77.3588C203.445 77.3788 203.445 77.3987 203.435 77.4186C203.425 77.4385 203.425 77.4485 203.435 77.4186C203.435 77.4285 203.425 77.4385 203.415 77.4584C203.365 77.5679 203.385 77.6974 203.494 77.7571C203.584 77.8069 203.744 77.787 203.793 77.6775C203.943 77.3588 204.003 77.0104 203.923 76.6619C203.863 76.3532 203.694 76.0744 203.485 75.8454C203.066 75.3973 202.428 75.1185 201.82 75.1385C201.143 75.1584 200.605 75.5865 200.425 76.2337C200.316 76.642 200.306 77.1498 200.435 77.558C200.565 77.9662 200.864 78.3048 201.262 78.474C202.05 78.8225 203.086 78.6433 203.624 77.9364C203.694 77.8467 203.744 77.7571 203.793 77.6576C203.843 77.548 203.823 77.4186 203.714 77.3588C203.624 77.319 203.475 77.3489 203.415 77.4584Z" fill="#8996A9"/>
<path d="M201.362 75.5166C201.093 73.2663 200.954 71.0061 200.934 68.7359C200.924 67.7203 200.884 66.6649 201.113 65.6592C201.312 64.7432 201.8 63.9666 202.478 63.3293C203.195 62.6622 204.142 62.1345 205.149 62.1743C205.428 62.1843 205.428 61.7462 205.149 61.7362C204.192 61.6964 203.275 62.1245 202.538 62.702C201.791 63.2895 201.173 64.0661 200.864 64.9623C200.515 65.958 200.505 67.0433 200.505 68.0887C200.505 69.2537 200.535 70.4187 200.595 71.5836C200.665 72.8979 200.774 74.2023 200.934 75.5067C200.944 75.6261 201.023 75.7257 201.153 75.7257C201.252 75.7357 201.382 75.6361 201.362 75.5166Z" fill="#8996A9"/>
<path d="M220.932 37.043C220.743 34.7628 219.906 32.2139 217.793 31.3177C216.269 30.6606 214.694 31.3177 213.18 30.7502C211.815 30.2324 210.689 29.2766 209.363 28.6891C207.341 27.793 205.079 27.3648 202.877 27.6934C201.422 27.9125 199.977 28.2709 198.502 28.2311C197.885 28.2112 197.247 28.1315 196.679 28.3506C195.603 28.7688 195.035 30.1229 195.025 31.1983C195.025 32.4528 194.985 33.8568 195.164 35.1113C195.344 36.3659 195.842 37.6105 196.778 38.4569C197.287 38.9149 197.914 39.2435 198.552 39.4924C200.794 40.3885 202.767 39.821 205.029 39.5621C207.909 39.2335 210.818 36.8239 211.874 41.0457C212.064 41.8024 212.442 42.4496 212.711 43.1665C213.01 43.9631 212.971 44.9388 212.911 45.7852C212.881 46.2731 213.06 46.8107 213.668 46.6016C213.967 46.5021 214.156 46.2034 214.296 45.9146C214.734 45.0185 215.681 44.1522 216.777 44.4709C217.913 44.7994 218.202 46.6713 217.833 47.6272C217.723 47.9259 217.395 48.2744 217.415 48.5831C217.793 48.4039 218.142 48.0554 218.411 47.7367C219.029 47.0198 219.467 46.1237 219.796 45.2276C220.773 42.6189 221.161 39.811 220.932 37.043Z" fill="#8996A9"/>
<path d="M203.594 86.4594C204.581 85.9715 204.82 84.5875 204.83 83.0342C204.84 81.8892 204.78 80.7839 204.8 79.6389C204.8 79.4995 204.8 79.3501 204.75 79.2307C204.7 79.1112 204.6 79.0315 204.511 78.9817C204.272 78.8523 204.013 78.8523 203.753 78.8523C202.358 78.8523 200.973 78.912 199.578 79.0415C199.379 79.0614 199.16 79.0813 198.991 79.2207C198.303 79.7882 198.921 83.4823 198.941 84.4182C198.951 84.8663 198.971 85.3243 199.11 85.7226C199.768 87.5945 201.541 86.6486 202.757 86.6386C203.086 86.6386 203.365 86.5689 203.594 86.4594Z" fill="#A6B0BF"/>
<path d="M188.877 45.7156H182.709V39.5623H179.092V45.7156H172.924V49.34H179.092V55.5033H182.709V49.34H188.877V45.7156Z" fill="#A6B0BF"/>
<path d="M232.58 54.9754H229.691V52.0879H227.997V54.9754H225.107V56.6681H227.997V59.5556H229.691V56.6681H232.58V54.9754Z" fill="#A6B0BF"/>
<path d="M229.711 32.9708H228.156V31.4175H227.239V32.9708H225.675V33.8868H227.239V35.4401H228.156V33.8868H229.711V32.9708Z" fill="#A6B0BF"/>
</g>
<defs>
<clipPath id="clip0_448_1632">
<rect width="59.6564" height="74" fill="white" transform="translate(172.924 27.574)"/>
</clipPath>
</defs>
</svg>
