<svg width="398" height="453" viewBox="0 0 398 453" fill="none" xmlns="http://www.w3.org/2000/svg">
<mask id="mask0_36_13104" style="mask-type:luminance" maskUnits="userSpaceOnUse" x="0" y="0" width="398" height="406">
<path d="M397.769 -6.10352e-05H0.25293V405.606H397.769V-6.10352e-05Z" fill="white"/>
</mask>
<g mask="url(#mask0_36_13104)">
<path d="M10.4204 217.772C7.16416 98.6492 56.6006 106.914 66.1108 61.0313C78.5443 1.05772 165.683 18.8543 199.77 18.8543C304.345 18.8543 391.698 42.3177 391.691 205.804C391.683 369.995 298.8 402.56 194.299 405.862C67.1387 409.878 13.4181 327.604 10.4184 217.772H10.4204Z" fill="#F3F5F7"/>
</g>
<mask id="mask1_36_13104" style="mask-type:luminance" maskUnits="userSpaceOnUse" x="85" y="148" width="294" height="305">
<path d="M378.818 148.457H85.104V453H378.818V148.457Z" fill="white"/>
</mask>
<g mask="url(#mask1_36_13104)">
<mask id="mask2_36_13104" style="mask-type:luminance" maskUnits="userSpaceOnUse" x="52" y="148" width="328" height="306">
<path d="M379.497 148.457H52.7339V453.339H379.497V148.457Z" fill="white"/>
</mask>
<g mask="url(#mask2_36_13104)">
<path d="M122.767 308.822C122.767 308.822 115.845 301.652 114.65 303.099C113.455 304.545 118.677 309.702 118.677 309.702C118.677 309.702 113.832 307.752 113.14 308.759C112.511 309.765 125.536 319.827 125.536 319.827L122.767 308.822Z" fill="#EDE3FF"/>
<path d="M126.982 321.902L113.076 310.582C112.698 310.268 112.447 309.765 112.447 309.324C112.447 308.883 112.699 308.507 113.076 308.256C113.957 307.752 115.53 308.193 117.102 308.885C113.642 304.105 113.767 303.476 113.83 303.162C113.892 302.911 114.018 302.784 114.208 302.658C116.347 301.59 119.997 305.237 122.011 307.501L126.982 321.902ZM122.262 309.639C119.807 306.558 116.599 303.54 115.152 303.54C115.781 304.986 119.241 309.829 122.955 314.608C122.767 313.224 122.514 311.464 122.263 309.639C122.263 309.681 122.263 309.681 122.263 309.639H122.262ZM113.83 309.639L123.646 317.626C123.646 317.563 123.583 317.563 123.583 317.501C123.583 317.438 123.521 317.312 123.521 317.25L123.458 317.187C123.458 317.124 121.004 314.043 118.613 310.835C114.396 308.697 113.704 309.263 113.704 309.263V309.326C113.642 309.451 113.704 309.577 113.83 309.639Z" fill="#553597"/>
<path d="M53.4874 159.211C56.633 158.331 60.2836 157.576 64.3732 157.072H64.436L68.212 156.318L70.0374 155.94C76.5184 153.488 85.2027 150.971 95.7106 149.776C105.149 148.708 113.518 149.021 120.062 149.713C133.214 151.726 153.914 156.504 176.315 169.334C176.944 169.712 177.574 170.088 178.203 170.467C191.794 179.711 203.373 189.207 213.189 198.201C215.959 200.716 218.601 203.232 221.055 205.684C220.426 213.859 221.243 220.211 222.377 220.211C225.209 220.211 228.229 213.733 228.229 213.733C228.229 213.733 228.795 218.953 230.871 223.796C227.285 225.683 217.028 231.216 204.885 240.398L204.822 240.461C201.486 242.411 197.146 246.184 192.741 250.397C187.455 255.115 182.108 260.459 177.072 266.371C177.072 266.308 177.01 266.308 177.01 266.245C177.01 266.245 177.01 266.308 177.072 266.308C177.072 266.308 182.609 259.201 188.713 253.541C192.111 250.397 194.816 248.069 196.578 246.56C191.041 250.836 176.82 260.395 173.171 247.755C173.171 247.755 173.234 249.202 173.424 251.34C172.795 247.189 172.291 242.787 171.913 238.385C171.913 238.385 171.976 238.322 171.976 238.26C172.795 236.813 171.851 232.286 172.479 229.518C176.256 209.772 193.182 197.382 185.694 192.288C180.535 188.829 175.815 199.961 169.522 208.765C167.256 200.087 162.978 194.552 162.978 194.552C156.372 187.257 141.018 172.73 116.477 168.138C109.24 166.755 102.634 166.629 96.9715 167.006C94.6429 169.773 91.0566 173.42 85.9603 176.69C79.164 180.966 72.6203 182.601 68.5934 183.23C68.7815 183.293 68.9713 183.355 69.1594 183.418C69.1594 183.418 69.2221 183.418 69.2221 183.481C70.6695 183.984 72.2423 184.298 73.5016 185.178C73.627 185.241 73.7541 185.366 73.8168 185.492C74.2575 185.806 74.5083 186.058 74.3829 186.246C73.7541 187.442 60.9175 186.813 59.9735 184.108C59.8481 183.795 59.7853 183.542 59.7853 183.228C59.7226 183.103 59.7226 182.977 59.7226 182.85C59.6599 181.782 60.4141 180.837 61.17 180.02C61.4853 179.642 61.8615 179.14 61.6107 178.762C61.6107 178.699 61.548 178.699 61.4853 178.636C60.8565 178.385 60.4785 178.07 60.2904 177.693C60.2277 177.568 60.2277 177.443 60.165 177.253C60.165 177.19 60.165 177.127 60.1023 177.064V176.686C60.0396 175.618 60.6684 174.736 61.2344 174.234C61.2971 174.172 61.3598 174.109 61.4225 174.046C61.4853 173.921 61.6107 173.795 61.6751 173.668C61.7378 173.48 61.6751 173.29 61.487 173.102C60.2277 172.661 59.2854 171.843 58.9074 170.587C58.5922 169.581 58.782 168.637 59.16 167.82C59.16 167.778 59.1809 167.736 59.2227 167.694V167.631C59.6006 166.877 60.2921 166.31 60.9853 165.744C61.992 164.927 63.0614 164.172 64.258 163.731C64.5732 163.606 64.8868 163.543 65.202 163.48C63.0631 163.543 60.2311 163.543 58.0922 163.229C54.1907 162.663 53.4992 159.394 53.4365 159.204H53.4992L53.4874 159.211ZM198.653 244.864C198.465 245.053 197.709 245.619 196.639 246.562C197.646 245.682 198.402 245.053 198.653 244.864Z" fill="#EDE3FF"/>
<path d="M221.431 204.553C222.312 193.107 226.024 178.077 235.59 172.166C240.057 177.322 247.042 173.046 247.042 173.046C248.364 181.473 256.355 180.719 256.355 180.719C256.355 180.719 257.299 190.34 261.641 191.41C263.97 191.976 265.039 191.284 265.542 190.467C265.92 189.838 266.046 189.083 265.795 188.391C263.656 180.781 266.173 176.066 269.193 176.82C272.339 177.637 273.976 182.102 273.535 186.82C273.157 191.6 268.879 192.668 268.879 192.668L279.074 216.628H279.137L291.533 245.619C291.533 245.619 291.533 245.682 291.47 245.87C291.282 245.682 291.155 245.619 291.155 245.619C291.029 245.619 291.092 246.185 290.966 247.191C290.022 249.454 287.631 253.605 282.597 256.687L282.85 257.19C281.465 257.882 280.648 258.825 279.452 259.266C273.159 261.655 268.629 261.278 261.959 260.524C261.393 260.461 259.317 259.769 258.814 259.644C258.814 259.644 257.807 259.077 257.744 259.077C250.319 256.185 253.718 249.266 253.718 249.266L254.346 226.437L254.031 242.034C256.8 231.155 265.608 220.338 265.861 220.023L265.798 220.085L254.787 226.249H254.724C250.572 228.262 245.789 230.714 241.888 231.155H241.384C237.673 231.909 234.966 229.646 233.205 227.507C232.514 227.948 232.576 227.256 232.576 227.256C231.632 225.998 231.192 224.364 230.563 222.854C228.487 218.012 228.424 213.86 228.424 213.86C228.424 213.86 225.216 219.583 222.384 219.583C221.251 219.709 220.811 212.728 221.44 204.553H221.431ZM251.069 218.829C254.277 214.993 250.753 209.647 250.753 209.647C250.438 209.772 242.888 221.093 242.888 221.093C242.888 221.093 247.859 222.664 251.067 218.829H251.069ZM228.227 203.169C228.605 203.547 229.171 203.736 229.8 203.736H230.115C230.304 203.736 230.556 203.673 230.744 203.61C230.807 203.61 230.87 203.547 230.997 203.547C231.249 203.485 231.5 203.359 231.815 203.296C231.878 203.234 232.003 203.234 232.068 203.171C232.131 203.108 232.256 203.108 232.32 203.045C232.383 202.983 232.508 202.983 232.573 202.92C232.698 202.857 232.761 202.857 232.888 202.795C232.951 202.732 233.076 202.669 233.141 202.606C233.203 202.544 233.329 202.481 233.393 202.418C233.581 202.293 233.771 202.167 233.959 202.04C234.715 201.536 235.469 200.844 236.161 200.09C239.118 197.009 240.313 193.361 238.866 191.978C237.418 190.594 233.832 191.978 230.875 195.059C230.246 195.751 229.68 196.38 229.239 197.072C229.176 197.197 229.114 197.26 229.051 197.385C228.988 197.511 228.926 197.574 228.863 197.699C228.8 197.824 228.737 197.95 228.675 198.077C228.487 198.455 228.297 198.832 228.109 199.21C227.983 199.524 227.856 199.776 227.793 200.09C227.793 200.153 227.731 200.278 227.731 200.341C227.731 200.466 227.668 200.529 227.668 200.592C227.668 200.717 227.605 200.78 227.605 200.906C227.605 201.031 227.543 201.094 227.543 201.219C227.543 201.974 227.731 202.728 228.234 203.169H228.227Z" fill="#EDE3FF"/>
<path d="M198.715 244.488C198.715 244.488 177.635 263.229 173.104 247.444C173.104 247.444 173.733 261.404 177.069 265.996C177.069 265.996 182.606 258.889 188.709 253.229C194.749 247.569 198.713 244.488 198.713 244.488H198.715Z" fill="#553597"/>
<path d="M334.442 370.263L301.156 385.607C301.156 385.607 293.73 407.995 274.035 422.963C254.339 437.931 224.514 436.547 211.867 433.339C199.218 430.132 190.221 426.232 174.238 411.894C158.256 397.555 149.384 371.833 149.384 371.833C149.384 371.833 138.31 343.344 137.554 332.214C137.554 332.214 126.102 320.893 124.214 317.499C122.326 314.104 121.76 299.324 121.76 299.324C121.76 299.324 124.277 299.954 126.668 307.123C129.059 314.292 129.122 315.235 129.437 315.36C129.753 315.486 140.889 322.216 143.847 319.888C146.804 317.499 149.07 314.479 152.719 305.361C156.431 296.179 159.892 298.821 159.892 298.821C159.892 298.821 154.795 313.159 154.355 320.58C153.977 328 154.417 333.597 159.704 341.459C164.99 349.32 170.274 362.4 179.272 369.632L180.028 364.16C180.028 364.16 182.733 334.917 187.2 323.974C191.668 313.032 192.234 308.756 192.234 308.756L188.522 303.913C188.522 303.913 173.672 282.593 171.596 272.784C171.596 272.784 193.619 246.623 204.82 240.018C216.021 233.414 230.871 223.857 230.871 223.857C230.871 223.857 234.647 232.472 241.569 231.151L253.336 246.558L253.148 251.276C253.148 251.276 253.211 259.578 261.391 260.458C269.571 261.338 273.662 261.967 282.848 257.377C292.036 252.787 290.398 246.623 290.776 246.623C291.154 246.623 301.284 257.126 310.975 270.583C320.666 284.04 326.895 297.814 331.866 316.303C336.837 334.793 338.096 356.552 334.445 370.261L334.442 370.263Z" fill="white"/>
<path d="M322.674 331.525C323.996 334.481 323.493 338.003 322.296 341.021C321.164 343.914 319.401 346.681 319.654 349.762C320.032 354.668 325.316 357.937 326.513 362.717C326.954 364.604 326.766 366.615 327.079 368.503C327.393 370.39 328.401 372.15 330.352 372.465C319.718 377.622 312.104 380.956 301.47 385.483C304.175 380.327 305.497 374.98 307.007 369.322C309.524 360.014 311.537 350.581 312.985 341.085C313.426 338.192 314.62 328.319 314.62 328.319C317.012 325.677 321.542 329.01 322.674 331.525Z" fill="#553597"/>
<path d="M301.469 386.175C301.532 386.175 301.657 386.175 301.722 386.112C312.796 381.395 320.284 378.063 330.603 373.032C330.856 372.906 330.981 372.654 330.981 372.403C330.919 372.152 330.729 371.899 330.478 371.899C328.59 371.586 327.961 369.573 327.773 368.44C327.648 367.623 327.585 366.805 327.52 365.925C327.458 364.857 327.395 363.724 327.142 362.654C326.576 360.328 325.066 358.315 323.682 356.428C322.046 354.29 320.536 352.214 320.346 349.762C320.158 347.561 321.102 345.486 322.109 343.285C322.424 342.656 322.738 341.964 322.99 341.272C324.06 338.63 324.941 334.794 323.368 331.273C322.55 329.385 320.033 327.122 317.579 326.808C316.257 326.62 315.062 326.996 314.243 328.003C314.18 328.129 314.118 328.192 314.118 328.317C314.118 328.442 312.923 338.191 312.482 341.021C311.035 350.517 309.021 359.95 306.505 369.195C306.316 369.824 306.189 370.453 306.001 371.082C304.679 376.05 303.422 380.703 301.03 385.232C300.905 385.483 300.968 385.736 301.093 385.924C301.156 386.112 301.281 386.175 301.471 386.175H301.469ZM328.778 372.591C319.59 376.993 312.543 380.137 302.854 384.288C304.805 380.137 305.937 375.923 307.196 371.458C307.384 370.829 307.511 370.2 307.699 369.571C310.216 360.326 312.23 350.768 313.677 341.272C314.055 338.63 315.124 330.142 315.25 328.695C315.816 328.129 316.509 327.941 317.326 328.066C319.214 328.38 321.416 330.267 322.109 331.839C323.494 334.983 322.675 338.442 321.731 340.833C321.478 341.462 321.165 342.154 320.912 342.783C319.906 345.047 318.836 347.31 319.087 349.889C319.34 352.719 321.038 354.983 322.673 357.184C324.058 359.009 325.443 360.832 325.946 362.907C326.198 363.913 326.261 364.92 326.261 365.925C326.324 366.805 326.324 367.75 326.514 368.63C326.766 370.517 327.583 371.837 328.78 372.593L328.778 372.591Z" fill="#553597"/>
<path d="M316.823 281.152C310.279 285.115 307.51 302.031 301.722 298.76C295.429 295.175 305.623 288.257 307.322 272.346C307.637 270.082 306.503 267.315 307.006 266.057C307.825 264.232 316.823 281.15 316.823 281.15V281.152Z" fill="#553597"/>
<path d="M211.489 278.698C211.489 278.698 194.122 301.149 182.167 294.295C182.167 294.295 190.851 307.25 192.297 308.822C192.234 308.822 205.384 282.724 211.489 278.698Z" fill="#553597"/>
<path d="M229.925 356.554C229.925 356.554 247.041 366.238 262.205 369.509C277.368 372.78 292.786 375.106 305.433 374.226C305.433 374.226 293.981 407.934 277.368 420.448C260.756 432.962 231.433 442.899 199.091 429.127C166.749 415.355 153.156 381.017 153.156 381.017C153.156 381.017 138.055 342.403 137.487 332.278C137.487 332.278 125.91 320.707 124.147 317.563L121.693 299.389C121.693 299.389 125.783 301.59 129.369 315.425C129.369 315.425 140.13 322.469 143.779 319.952C147.428 317.436 151.77 307.123 151.77 307.123C151.77 307.123 156.237 294.86 159.824 298.885C159.824 298.885 154.097 315.362 154.287 320.644C154.476 325.926 152.776 333.033 162.971 347.246C173.165 361.522 178.575 373.534 194.747 382.15C210.919 390.766 220.546 383.847 222.937 381.962C225.517 380.012 230.74 369.761 229.922 356.555L229.925 356.554Z" fill="#EDE3FF"/>
<path d="M169.267 208.83C175.623 200.026 180.468 188.517 185.69 192.039C193.241 197.133 176.252 209.521 172.476 229.269C171.847 232.037 172.791 236.564 171.972 238.01C171.281 239.269 170.903 229.708 170.713 220.338C170.65 214.49 169.266 208.83 169.266 208.83H169.267Z" fill="#553597"/>
<path d="M277.433 420.448C272.965 423.782 267.617 426.988 261.576 429.567C274.35 414.852 274.35 394.791 282.782 397.684C288.256 399.571 283.285 408.879 279.887 418.437C279.006 419.129 278.252 419.821 277.433 420.45V420.448Z" fill="#553597"/>
<path d="M291.149 247.191C291.212 247.191 291.338 247.191 291.402 247.128C291.717 247.003 291.843 246.625 291.717 246.311L269.064 193.358C268.939 193.045 268.561 192.917 268.246 193.045C267.93 193.172 267.805 193.548 267.93 193.862L290.583 246.814C290.709 247.065 290.899 247.193 291.149 247.193V247.191Z" fill="#553597"/>
<path d="M334.442 370.892C334.757 370.892 335.008 370.704 335.071 370.389C341.993 333.85 329.785 302.029 318.333 281.717C305.937 259.768 291.716 246.248 291.59 246.058C291.338 245.807 290.961 245.807 290.709 246.058C290.456 246.309 290.456 246.687 290.709 246.938C290.834 247.064 304.993 260.522 317.263 282.281C328.59 302.406 340.671 333.913 333.812 370.073C333.749 370.387 334 370.765 334.315 370.828C334.378 370.89 334.441 370.891 334.441 370.891L334.442 370.892Z" fill="#553597"/>
<path d="M267.428 262.033C268.12 262.033 268.813 262.033 269.567 261.97C287.815 260.965 291.717 246.877 291.78 246.752C291.842 246.438 291.654 246.06 291.339 245.997C291.024 245.934 290.647 246.123 290.583 246.438C290.458 247.004 286.807 259.771 269.503 260.714C263.21 261.092 258.68 259.834 256.163 257.067C253.458 254.111 253.961 250.338 253.961 250.338V250.275L254.59 227.446C254.59 227.068 254.337 226.817 253.961 226.817C253.646 226.817 253.332 227.068 253.332 227.446L252.704 250.275C252.641 250.779 252.2 254.74 255.22 258.011C257.675 260.653 261.827 262.037 267.428 262.037V262.033Z" fill="#553597"/>
<path d="M240.056 232.035C249.682 232.035 265.163 221.847 265.854 221.406C266.17 221.218 266.232 220.84 266.042 220.526C265.853 220.213 265.476 220.148 265.161 220.338C264.973 220.464 249.304 230.778 240.117 230.778H239.864C230.992 230.59 228.978 213.547 228.916 213.359C228.853 213.108 228.663 212.855 228.412 212.792C228.16 212.73 227.846 212.918 227.721 213.17C226.651 215.497 224.26 219.144 222.562 219.27C221.743 218.327 220.926 210.905 222.121 201.472C223.19 192.919 226.589 177.763 237.034 172.732C237.349 172.606 237.474 172.228 237.349 171.915C237.224 171.601 236.846 171.474 236.53 171.601C220.17 179.525 219.226 211.032 220.862 218.264C221.114 219.333 221.491 220.528 222.435 220.528C224.636 220.528 226.777 217.447 227.972 215.434C228.79 220.152 231.683 231.911 239.801 232.037C239.864 232.037 239.927 232.037 240.052 232.037L240.056 232.035Z" fill="#553597"/>
<path d="M268.498 193.611C268.498 193.611 272.777 192.478 273.154 187.762C273.531 182.982 271.959 178.58 268.811 177.763C265.728 176.946 263.274 181.661 265.413 189.272C265.601 189.963 265.539 190.718 265.161 191.347C264.657 192.164 263.588 192.856 261.259 192.29C256.917 191.157 255.973 181.599 255.973 181.599C255.973 181.599 247.982 182.29 246.66 173.926C246.66 173.926 239.55 178.265 235.145 172.92C230.678 167.575 235.461 155.375 246.85 152.796C259.246 150.029 271.516 152.167 279.948 158.77C288.317 165.31 289.639 172.605 283.094 177.069C283.094 177.069 294.734 184.427 297.378 193.86C299.957 203.168 288.631 201.909 288.631 201.909C288.631 201.909 296.622 207.066 293.098 212.223C289.575 217.379 282.778 213.732 282.778 213.732C282.778 213.732 282.653 217.567 278.752 217.567L268.494 193.607L268.498 193.611Z" fill="#553597"/>
<path d="M278.69 218.2C281.648 218.2 282.907 216.187 283.221 214.678C285.234 215.495 290.458 217.067 293.54 212.602C294.422 211.282 294.735 209.898 294.422 208.389C293.918 205.937 291.968 203.861 290.458 202.666C292.408 202.603 295.303 202.162 297.001 200.214C298.323 198.642 298.637 196.504 297.82 193.736C295.491 185.499 286.746 178.957 284.039 177.134C286.368 175.309 287.626 173.046 287.751 170.468C287.876 166.57 285.234 162.231 280.201 158.331C271.831 151.602 259.31 149.337 246.724 152.167C239.362 153.801 235.084 159.148 233.572 163.55C232.313 167.26 232.691 170.907 234.642 173.234C238.481 177.824 244.143 175.749 246.219 174.806C247.729 181.472 253.519 182.163 255.407 182.163C255.659 184.364 256.98 191.785 261.069 192.855C263.774 193.546 265.096 192.604 265.662 191.659C266.103 190.905 266.291 189.962 266.04 189.08C264.53 183.671 265.474 180.213 266.732 178.892C267.298 178.326 267.927 178.138 268.682 178.326C271.325 179.018 272.962 182.916 272.584 187.696C272.206 191.91 268.557 192.978 268.367 192.978C268.179 193.041 268.052 193.167 267.989 193.292C267.927 193.48 267.927 193.67 267.989 193.796L278.184 217.756C278.246 218.007 278.434 218.196 278.687 218.196L278.69 218.2ZM282.78 213.106C282.655 213.106 282.592 213.106 282.465 213.169C282.277 213.294 282.15 213.482 282.15 213.672C282.15 213.986 281.961 216.628 279.129 216.879L269.313 193.925C270.635 193.358 273.403 191.661 273.78 187.761C274.221 182.352 272.27 177.95 268.935 177.07C267.803 176.756 266.669 177.132 265.789 178.012C264.217 179.647 263.147 183.422 264.783 189.395C264.908 189.962 264.845 190.528 264.595 190.967C264.091 191.785 262.959 192.036 261.386 191.659C258.178 190.842 256.856 184.049 256.603 181.472C256.541 181.158 256.288 180.905 255.912 180.905C255.597 180.905 248.487 181.472 247.292 173.736C247.229 173.548 247.104 173.358 246.914 173.232C246.726 173.169 246.473 173.169 246.348 173.295C246.095 173.483 239.679 177.258 235.65 172.415C234.015 170.402 233.7 167.258 234.832 163.925C236.216 159.774 240.181 154.868 247.04 153.296C259.247 150.592 271.391 152.73 279.572 159.145C284.227 162.792 286.744 166.755 286.619 170.212C286.556 172.601 285.171 174.74 282.717 176.376C282.529 176.502 282.465 176.69 282.465 176.88C282.465 177.07 282.59 177.258 282.78 177.383C282.905 177.446 294.232 184.741 296.749 193.797C297.378 196.124 297.189 197.886 296.183 199.079C293.981 201.659 288.82 201.092 288.758 201.092C288.442 201.029 288.192 201.218 288.066 201.533C287.941 201.784 288.066 202.099 288.319 202.288C288.381 202.288 292.661 205.118 293.29 208.451C293.542 209.647 293.29 210.715 292.598 211.722C289.453 216.375 283.348 213.169 283.097 213.043C282.972 213.106 282.846 213.106 282.782 213.106H282.78Z" fill="#553597"/>
<path d="M271.14 184.932C271.203 184.932 271.328 184.932 271.393 184.87C271.708 184.744 271.833 184.366 271.708 184.052C270.261 180.846 267.618 180.468 266.422 180.781C266.106 180.844 265.856 181.222 265.918 181.536C265.981 181.85 266.359 182.102 266.674 182.04C266.8 182.04 269.191 181.536 270.576 184.619C270.638 184.807 270.891 184.932 271.142 184.932H271.14Z" fill="#553597"/>
<path d="M268.435 188.013C268.75 188.013 269.064 187.762 269.064 187.384L269.252 181.661C269.252 181.283 268.999 181.032 268.623 181.032C268.247 181.032 267.994 181.283 267.994 181.661L267.806 187.384C267.806 187.698 268.059 187.951 268.435 188.013Z" fill="#553597"/>
<path d="M235.848 200.836C238.796 197.742 240.003 194.107 238.544 192.716C237.086 191.326 233.515 192.707 230.568 195.801C227.621 198.896 226.414 202.531 227.872 203.921C229.33 205.312 232.901 203.93 235.848 200.836Z" fill="white"/>
<path d="M229.422 205.119C230.051 205.119 230.744 204.994 231.561 204.678C233.134 204.049 234.833 202.854 236.343 201.282C237.854 199.71 238.923 197.948 239.489 196.314C240.055 194.554 239.93 193.107 238.986 192.225C237.223 190.591 233.323 191.912 230.113 195.369C228.603 196.941 227.534 198.703 226.968 200.337C226.402 202.098 226.527 203.544 227.471 204.426C227.912 204.867 228.603 205.118 229.422 205.118V205.119ZM236.972 192.793C237.476 192.793 237.854 192.919 238.104 193.172C238.608 193.675 238.67 194.681 238.23 195.939C237.726 197.385 236.72 198.957 235.335 200.404C233.95 201.85 232.44 202.918 230.993 203.485C229.734 203.988 228.727 203.988 228.224 203.485C227.72 202.981 227.658 201.975 228.098 200.717C228.602 199.271 229.608 197.699 230.93 196.253C233.196 193.989 235.523 192.793 236.971 192.793H236.972Z" fill="#553597"/>
<path d="M250.375 210.402C250.06 210.527 242.51 221.847 242.51 221.847C242.51 221.847 247.481 223.482 250.689 219.646C253.962 215.748 250.374 210.402 250.374 210.402H250.375Z" fill="white"/>
<path d="M245.027 222.79C246.852 222.79 249.306 222.286 251.192 220.023C254.716 215.872 251.067 210.339 250.94 210.086C250.813 209.833 250.499 209.772 250.184 209.835C249.931 209.898 249.681 210.023 241.94 221.532C241.815 221.72 241.815 221.91 241.878 222.098C241.94 222.286 242.066 222.412 242.256 222.476C242.381 222.414 243.515 222.79 245.025 222.79H245.027ZM250.313 211.47C251.069 212.979 252.452 216.501 250.25 219.143C248.048 221.722 245.027 221.595 243.581 221.344C245.847 217.947 249.055 213.232 250.314 211.47H250.313Z" fill="#553597"/>
<path d="M234.015 202.164L233.637 202.793C231.308 204.49 228.981 204.994 227.847 203.988C226.715 202.92 227.218 200.404 228.917 197.889C229.42 197.889 233.259 198.267 234.013 202.165L234.015 202.164Z" fill="#553597"/>
<path d="M179.775 370.829C180.091 370.829 180.404 370.578 180.404 370.2C182.23 317.877 201.988 288.194 218.221 272.534C235.84 255.554 253.27 250.838 253.458 250.838C253.773 250.775 254.024 250.397 253.899 250.084C253.836 249.77 253.458 249.517 253.143 249.643C252.955 249.705 235.273 254.423 217.402 271.592C206.957 281.654 198.463 294.042 192.17 308.255C184.304 326.053 179.962 346.869 179.145 370.2C179.145 370.514 179.46 370.829 179.774 370.829H179.775Z" fill="#553597"/>
<path d="M230.554 436.422C242.132 436.422 253.899 433.907 265.163 428.749C291.968 416.423 308.832 382.652 315.313 328.443C315.375 328.129 315.125 327.813 314.747 327.751C314.431 327.688 314.118 327.939 314.055 328.317C307.637 382.087 291.026 415.48 264.659 427.618C229.988 443.591 190.095 433.654 167.505 403.468C144.601 372.84 138.308 332.592 138.246 332.153C138.246 332.027 138.183 331.902 138.058 331.775C133.087 326.932 125.536 319.071 124.843 317.31C124.151 315.423 123.08 305.676 122.514 300.079C124.465 301.588 127.422 310.204 128.87 315.55C128.933 315.676 128.995 315.801 129.122 315.928C129.5 316.179 138.876 322.28 143.532 320.834C147.118 319.766 150.894 311.589 154.102 304.043C154.606 302.785 155.109 301.717 155.424 301.088C156.494 298.824 158.256 298.95 159.136 299.138C157.689 302.911 150.579 322.218 155.046 333.475C157.626 339.827 164.988 353.662 174.805 365.549C183.425 375.925 196.765 388.125 211.174 386.994C231.246 385.36 230.87 366.87 230.492 343.475C230.366 335.11 230.176 326.432 230.87 317.565C233.575 284.297 258.87 266.374 259.122 266.186C259.438 265.998 259.5 265.619 259.311 265.306C259.121 264.992 258.744 264.928 258.429 265.118C258.177 265.306 232.378 283.544 229.61 317.441C228.919 326.37 229.044 335.049 229.232 343.476C229.673 366.243 229.988 384.166 211.11 385.675C184.052 387.876 159.89 342.093 156.24 332.975C151.52 321.216 160.456 299.204 160.519 299.016C160.644 298.702 160.519 298.324 160.204 298.198C158.819 297.569 155.862 297.193 154.226 300.525C153.911 301.217 153.47 302.222 152.904 303.543C150.638 308.825 146.486 318.574 143.15 319.579C139.815 320.585 132.705 316.686 129.999 314.926C129.37 312.6 125.782 300.274 122.826 298.765C122.26 298.514 121.819 298.577 121.567 298.702C121.314 298.828 121.126 299.08 121.189 299.331C121.252 299.96 122.699 315.054 123.643 317.695C124.587 320.21 135.158 330.713 136.983 332.475C137.486 335.681 144.22 374.358 166.495 404.105C182.037 425.11 205.822 436.43 230.551 436.43L230.554 436.422Z" fill="#553597"/>
<path d="M302.603 359.825C306.883 359.825 309.337 359.574 309.4 359.574C309.715 359.511 309.966 359.26 309.966 358.882C309.903 358.568 309.65 358.315 309.274 358.315C308.896 358.378 272.402 361.837 230.053 341.021C229.738 340.896 229.361 341.021 229.234 341.335C229.107 341.649 229.234 342.027 229.55 342.152C261.389 357.812 290.019 359.825 302.603 359.825Z" fill="#553597"/>
<path d="M301.344 374.918C303.735 374.918 305.12 374.855 305.182 374.855C305.56 374.855 305.811 374.541 305.748 374.163C305.748 373.785 305.433 373.534 305.057 373.597C304.616 373.597 262.079 375.61 230.24 356.052C229.925 355.864 229.549 355.989 229.359 356.24C229.171 356.554 229.296 356.932 229.547 357.12C256.165 373.409 290.08 374.918 301.344 374.918Z" fill="#553597"/>
<path d="M253.333 247.191C253.458 247.191 253.585 247.128 253.711 247.066C253.963 246.877 254.026 246.436 253.836 246.185L242.131 230.841C241.943 230.59 241.503 230.528 241.25 230.716C240.998 230.904 240.935 231.345 241.125 231.596L252.829 246.94C252.955 247.128 253.144 247.191 253.333 247.191Z" fill="#553597"/>
<path d="M192.234 309.451C192.36 309.451 192.487 309.388 192.612 309.325C192.865 309.137 192.927 308.696 192.675 308.445C179.776 292.598 173.169 275.492 172.288 272.977C196.765 240.715 230.744 224.679 231.122 224.491C231.437 224.365 231.563 223.987 231.437 223.673C231.312 223.36 230.934 223.233 230.619 223.36C230.303 223.548 195.822 239.774 171.093 272.475C170.968 272.663 170.905 272.853 171.03 273.041C171.093 273.23 177.699 291.97 191.795 309.202C191.858 309.39 192.048 309.453 192.236 309.453L192.234 309.451Z" fill="#553597"/>
<path d="M177.068 266.623C177.194 266.623 177.257 266.623 177.384 266.561C177.699 266.372 177.824 265.994 177.636 265.68C172.603 256.751 171.909 233.105 171.47 219.017V218.074C171.408 214.931 170.904 211.785 170.086 208.704C167.82 200.026 163.605 194.491 163.417 194.24C163.229 193.989 162.788 193.926 162.535 194.114C162.283 194.303 162.22 194.744 162.41 194.994C162.473 195.057 166.627 200.592 168.828 209.019C169.647 212.038 170.087 215.119 170.15 218.139V219.082C170.591 233.295 171.282 257.129 176.443 266.374C176.631 266.499 176.884 266.625 177.072 266.625L177.068 266.623Z" fill="#553597"/>
<path d="M220.738 207.383C220.864 207.383 221.053 207.32 221.116 207.258C221.369 207.007 221.431 206.628 221.179 206.378C218.662 203.359 216.208 200.529 213.566 197.825C203.183 186.945 191.353 177.575 178.454 169.965C177.825 169.586 177.195 169.21 176.566 168.896C159.074 158.897 140.069 152.231 120.06 149.213C111.881 148.333 103.637 148.333 95.4565 149.276C86.6468 150.281 78.0269 152.357 69.7206 155.502L68.0224 155.816H67.9597L53.1723 158.709C52.8571 158.771 52.6689 159.022 52.6689 159.338V159.463C52.7944 160.092 53.7384 163.362 57.828 163.991C60.094 164.304 62.9871 164.304 65.0649 164.242C65.8208 164.242 66.5123 164.179 67.0157 164.179H67.0784C67.897 164.116 68.4003 164.116 68.4003 164.116C68.7783 164.116 69.0291 163.802 68.9664 163.424C68.9037 163.046 68.6512 162.795 68.2749 162.858C68.2749 162.858 67.7715 162.921 66.9529 162.921C66.3869 162.921 65.6937 162.983 64.9395 162.983C62.926 163.046 60.094 163.046 57.9551 162.732C55.3756 162.354 54.3689 160.72 53.9909 159.777L68.0224 157.072H68.0851L69.9104 156.694H70.0358C78.2151 153.613 86.8367 151.538 95.5193 150.53C103.573 149.588 111.754 149.588 119.808 150.468C139.566 153.486 158.443 160.089 175.81 170.026C176.439 170.404 177.069 170.78 177.698 171.094C190.535 178.64 202.237 187.947 212.557 198.764C215.199 201.531 217.654 204.299 220.17 207.254C220.421 207.317 220.611 207.38 220.736 207.38L220.738 207.383Z" fill="#553597"/>
<path d="M223.066 381.899C223.822 381.269 224.828 379.886 225.898 377.81L241.189 385.356C244.649 387.053 246.034 391.267 244.334 394.726C242.636 398.186 238.419 399.569 234.958 397.87L211.426 386.236C217.781 385.858 221.683 383.03 223.066 381.897V381.899Z" fill="#553597"/>
<path d="M222.438 391.645C222.438 391.645 212.559 387.118 204.189 386.614C204.189 386.614 215.138 386.74 217.655 385.105C220.172 383.533 222.438 391.645 222.438 391.645Z" fill="#553597"/>
<path d="M177.888 287.502C178.076 287.502 178.266 287.377 178.391 287.251C178.706 286.81 208.973 241.846 243.957 235.243C244.272 235.18 244.523 234.865 244.461 234.488C244.398 234.175 244.083 233.922 243.705 233.985C208.279 240.713 177.635 286.12 177.383 286.559C177.195 286.873 177.257 287.251 177.571 287.439C177.634 287.439 177.759 287.502 177.886 287.502H177.888Z" fill="#553597"/>
<path d="M265.478 220.905C265.478 220.905 256.48 231.91 253.648 242.916L253.963 227.319L265.478 220.905Z" fill="#553597"/>
<path d="M253.648 243.543C253.963 243.543 254.214 243.355 254.277 243.04C257.046 232.223 265.917 221.344 265.981 221.218C266.169 220.967 266.169 220.652 265.981 220.401C265.793 220.15 265.478 220.087 265.163 220.275L253.648 226.753C253.46 226.878 253.333 227.067 253.333 227.319L253.018 242.916C253.018 243.23 253.27 243.482 253.584 243.545H253.646L253.648 243.543ZM263.149 222.916C260.821 226.122 256.794 232.16 254.34 238.638L254.528 227.696L263.148 222.916H263.149Z" fill="#553597"/>
<path d="M283.662 171.16C283.977 171.16 284.228 170.909 284.291 170.594C284.919 163.803 276.425 159.463 276.047 159.273C275.732 159.148 275.355 159.273 275.228 159.524C275.103 159.838 275.228 160.216 275.481 160.342C275.544 160.404 283.597 164.493 283.031 170.404C283.031 170.845 283.284 171.158 283.66 171.158L283.662 171.16Z" fill="#EDE3FF"/>
<path d="M292.346 199.081C292.471 199.081 292.599 199.018 292.724 198.956C294.171 198.013 294.926 196.755 295.115 195.308C295.493 192.037 292.536 188.894 292.41 188.768C292.158 188.517 291.782 188.517 291.529 188.705C291.277 188.956 291.277 189.334 291.466 189.585C291.466 189.585 294.109 192.478 293.795 195.183C293.67 196.316 293.039 197.196 291.97 197.95C291.655 198.138 291.592 198.517 291.782 198.83C291.97 198.956 292.16 199.081 292.348 199.081H292.346Z" fill="#EDE3FF"/>
<path d="M326.261 375.106C326.386 375.106 326.449 375.106 326.576 375.043L334.755 370.892C335.07 370.704 335.196 370.326 335.008 370.075C334.82 369.761 334.442 369.634 334.189 369.824L326.01 373.975C325.695 374.163 325.569 374.541 325.757 374.792C325.82 374.981 326.01 375.106 326.261 375.106Z" fill="#553597"/>
<path d="M162.912 195.245C163.038 195.245 163.227 195.183 163.353 195.057C163.605 194.806 163.605 194.428 163.416 194.177C156.243 186.128 140.637 171.977 116.601 167.512C110.183 166.317 103.576 165.941 96.9681 166.38C96.78 166.38 96.6529 166.443 96.5275 166.631C93.4446 170.404 89.7312 173.612 85.6416 176.189C80.4181 179.46 74.693 181.661 68.5255 182.667C68.2103 182.729 67.9595 182.98 67.9595 183.296C67.9595 183.674 68.212 183.925 68.5883 183.925H68.7137C75.0066 182.919 80.9215 180.654 86.2687 177.259C90.421 174.68 94.1344 171.411 97.28 167.701C103.698 167.26 110.117 167.638 116.345 168.833C140.005 173.235 155.421 187.198 162.468 195.121C162.594 195.184 162.721 195.247 162.909 195.247L162.912 195.245Z" fill="#553597"/>
</g>
</g>
<mask id="mask3_36_13104" style="mask-type:luminance" maskUnits="userSpaceOnUse" x="77" y="62" width="125" height="236">
<path d="M201.878 62.3163H77.647V297.167H201.878V62.3163Z" fill="white"/>
</mask>
<g mask="url(#mask3_36_13104)">
<path d="M78.2683 280.97C78.2683 289.571 85.2205 296.543 93.7963 296.543H185.727C194.303 296.543 201.255 289.571 201.255 280.97V266.331H78.2666V280.97H78.2683Z" fill="white"/>
<path d="M185.728 297.167H93.7975C84.8929 297.167 77.6475 289.901 77.6475 280.97V265.707H201.878V280.97C201.878 289.901 194.633 297.167 185.728 297.167ZM78.8898 266.954V280.97C78.8898 289.215 85.5776 295.921 93.7975 295.921H185.728C193.948 295.921 200.636 289.215 200.636 280.97V266.954H78.8898Z" fill="#553597"/>
<path d="M201.257 91.5956H78.2686V266.332H201.257V91.5956Z" fill="#EDE3FF"/>
<path d="M201.878 266.954H77.6475V90.9715H201.878V266.954ZM78.8898 265.708H200.636V92.2178H78.8898V265.709V265.708Z" fill="#553597"/>
<path d="M185.728 62.9384H93.7975C85.2217 62.9384 78.2695 69.9111 78.2695 78.5115V91.5937H201.258V78.5115C201.258 69.9111 194.306 62.9384 185.73 62.9384H185.728Z" fill="white"/>
<path d="M201.878 92.2179H77.647V78.5134C77.647 69.5823 84.8924 62.3163 93.797 62.3163H185.728C194.632 62.3163 201.878 69.5823 201.878 78.5134V92.2179ZM78.8893 90.9715H200.635V78.5134C200.635 70.269 193.948 63.5626 185.728 63.5626H93.797C85.5771 63.5626 78.8893 70.269 78.8893 78.5134V90.9715Z" fill="#553597"/>
</g>
<path d="M100.945 181.367C97.0945 181.367 94.8823 179.243 94.8823 175.658C94.8823 172.029 97.1829 169.595 101.299 169.595C102.197 169.595 103.02 169.679 103.792 169.834L105.707 165.432C103.902 164.646 102.234 164.329 100.148 164.329C93.289 164.327 88.5542 169.153 88.5542 175.834C88.5542 182.339 92.4481 186.677 99.0434 186.677C101.788 186.677 103.821 186.306 105.766 185.416L103.462 181.147C102.66 181.288 101.819 181.367 100.945 181.367ZM125.311 167.608C127.326 169.546 128.438 172.296 128.44 175.616C128.438 178.764 127.266 181.534 125.207 183.528C123.146 185.522 120.193 186.748 116.578 186.75C112.865 186.748 109.926 185.583 107.904 183.63C105.886 181.675 104.763 178.911 104.761 175.616C104.763 172.447 105.957 169.691 108.02 167.713C110.085 165.734 113.03 164.53 116.576 164.528C120.342 164.528 123.293 165.671 125.311 167.608ZM121.757 175.614C121.757 173.815 121.33 172.373 120.431 171.375C119.983 170.878 119.421 170.5 118.772 170.257C118.124 170.011 117.389 169.893 116.582 169.893C115.053 169.889 113.729 170.459 112.816 171.477C111.9 172.494 111.403 173.929 111.405 175.614C111.405 177.375 111.845 178.813 112.747 179.821C113.197 180.322 113.757 180.707 114.403 180.96C115.049 181.214 115.78 181.337 116.58 181.337C118.124 181.341 119.452 180.785 120.364 179.77C121.275 178.756 121.757 177.318 121.757 175.614ZM143.531 164.526C146.248 164.526 149.159 165.123 151.666 165.899V185.976H145.299V182.931L144.446 183.809C143.68 184.597 142.772 185.33 141.666 185.866C140.56 186.402 139.256 186.746 137.67 186.748C135.156 186.744 133.122 185.687 131.676 183.931C130.234 182.172 129.397 179.695 129.397 176.885C129.401 172.931 130.753 169.882 133.167 167.781C135.586 165.685 139.118 164.526 143.531 164.526ZM144.615 169.895C144.022 169.85 143.374 169.803 142.714 169.803C140.627 169.801 138.953 170.375 137.806 171.467C136.657 172.557 136.081 174.133 136.083 175.98C136.083 177.599 136.462 178.933 137.226 179.882C137.989 180.834 139.144 181.345 140.488 181.339C141.313 181.339 142.087 181.149 142.814 180.803C143.543 180.457 144.226 179.962 144.908 179.349L145.073 179.202V178.98V169.931L144.615 169.895ZM181.464 164.526C184.181 164.526 187.093 165.123 189.6 165.899V185.976H183.232V182.931L182.38 183.809C181.613 184.597 180.706 185.33 179.6 185.866C178.494 186.402 177.189 186.746 175.604 186.748C173.089 186.744 171.055 185.687 169.609 183.931C168.167 182.172 167.33 179.695 167.33 176.885C167.334 172.931 168.686 169.882 171.101 167.781C173.517 165.685 177.05 164.526 181.464 164.526ZM182.547 169.895C181.953 169.85 181.305 169.803 180.645 169.803C178.558 169.801 176.885 170.375 175.735 171.467C174.586 172.557 174.01 174.133 174.014 175.98C174.014 177.599 174.393 178.933 175.158 179.882C175.92 180.834 177.073 181.345 178.419 181.339C179.244 181.339 180.018 181.149 180.745 180.803C181.474 180.457 182.158 179.962 182.839 179.349L183.004 179.202V178.98V169.931L182.547 169.895ZM162.696 180.832C162.171 180.532 161.782 180.096 161.515 179.608C160.981 178.626 160.875 177.443 160.871 176.351V159.306H154.187V175.106C154.185 178.196 154.46 180.534 155.061 182.249C155.668 183.966 156.562 185.054 157.886 185.781C158.772 186.265 159.865 186.581 161.203 186.754C161.655 186.813 162.077 186.838 162.472 186.838C164.185 186.834 165.397 186.343 166.366 185.693V181.074C165.725 181.223 165.154 181.296 164.637 181.296C163.869 181.298 163.22 181.135 162.696 180.832Z" fill="#6F46BE"/>
<path d="M335.495 74.9318C336.6 74.9318 337.495 75.8272 337.495 76.9318V133.44C337.495 134.544 336.6 135.44 335.495 135.44H288.275C288.167 135.44 288.063 135.499 287.984 135.607L281.99 143.757C280.846 145.313 278.379 144.504 278.379 142.572V136.085C278.379 135.729 278.186 135.44 277.948 135.44H273.042C271.937 135.44 271.042 134.544 271.042 133.44V76.9318C271.042 75.8272 271.937 74.9318 273.042 74.9318H335.495Z" fill="#6F46BE"/>
<path d="M321.11 101.531C321.11 100.427 320.214 99.5312 319.11 99.5312H311.255C310.15 99.5312 309.255 98.6358 309.255 97.5312V89.6762C309.255 88.5716 308.359 87.6762 307.255 87.6762H301.283C300.178 87.6762 299.283 88.5716 299.283 89.6762V97.5312C299.283 98.6358 298.387 99.5312 297.283 99.5312H289.428C288.323 99.5312 287.428 100.427 287.428 101.531V107.503C287.428 108.608 288.323 109.503 289.428 109.503H297.283C298.387 109.503 299.283 110.398 299.283 111.503V119.358C299.283 120.463 300.178 121.358 301.283 121.358H307.255C308.359 121.358 309.255 120.463 309.255 119.358V111.503C309.255 110.398 310.15 109.503 311.255 109.503H319.11C320.214 109.503 321.11 108.608 321.11 107.503V101.531Z" fill="white"/>
<path d="M389.469 180.427L384.411 185.519L385.527 186.642L390.585 181.55L389.469 180.427Z" fill="#553597"/>
<path d="M396.885 172.962L391.827 178.054L392.942 179.177L398 174.085L396.885 172.962Z" fill="#553597"/>
<path d="M385.523 172.961L384.408 174.084L389.466 179.175L390.581 178.052L385.523 172.961Z" fill="#553597"/>
<path d="M392.939 180.426L391.824 181.549L396.882 186.64L397.997 185.517L392.939 180.426Z" fill="#553597"/>
<path d="M40.8161 142.194L35.7583 147.285L36.874 148.408L41.9318 143.317L40.8161 142.194Z" fill="#553597"/>
<path d="M48.2317 134.729L43.1738 139.82L44.2895 140.943L49.3474 135.852L48.2317 134.729Z" fill="#553597"/>
<path d="M36.8711 134.727L35.7554 135.85L40.8132 140.942L41.9289 139.819L36.8711 134.727Z" fill="#553597"/>
<path d="M44.2871 142.192L43.1714 143.315L48.2292 148.407L49.3449 147.284L44.2871 142.192Z" fill="#553597"/>
<path d="M356.864 286.44L349.816 277.492L356.864 268.544L363.911 277.492L356.864 286.44ZM351.815 277.492L356.864 283.898L361.913 277.492L356.864 271.086L351.815 277.492Z" fill="#A78ED7"/>
<path d="M108.346 405.691L101.298 396.744L108.346 387.796L115.394 396.744L108.346 405.691ZM103.297 396.744L108.346 403.15L113.395 396.744L108.346 390.337L103.297 396.744Z" fill="#A78ED7"/>
<path d="M192.096 49.7565L185.048 40.8088L192.096 31.8611L199.143 40.8088L192.096 49.7565ZM187.046 40.8088L192.096 47.2152L197.145 40.8088L192.096 34.4025L187.046 40.8088Z" fill="#A78ED7"/>
<path d="M40.9462 327.254C37.5802 327.254 34.8452 324.501 34.8452 321.112C34.8452 317.724 37.5802 314.971 40.9462 314.971C44.3123 314.971 47.0473 317.724 47.0473 321.112C47.0473 324.501 44.3123 327.254 40.9462 327.254ZM40.9462 316.559C38.4743 316.559 36.4231 318.571 36.4231 321.112C36.4231 323.601 38.4217 325.666 40.9462 325.666C43.4708 325.666 45.4694 323.654 45.4694 321.112C45.4694 318.624 43.4708 316.559 40.9462 316.559Z" fill="#553597"/>
</svg>
