<svg width="480" height="370" viewBox="0 0 480 370" fill="none" xmlns="http://www.w3.org/2000/svg">
<path d="M398.853 320.514C445.227 275.821 435.427 213.434 429.715 190.433C427.716 182.398 422.973 175.247 416.133 170.584C377.836 144.453 339.611 234.807 318.812 273.946C296.013 316.838 341.001 376.267 398.856 320.51L398.853 320.514Z" fill="#F3F5F7"/>
<path d="M319.433 23.2132C233.305 11.1059 303.204 122.337 243.101 154.383C182.997 186.425 154.063 96.6436 82.9175 136.187C27.011 167.262 55.0157 265.761 69.5778 306.529C75.5687 323.3 87.8708 337.177 104.02 344.692C180.722 380.382 229.885 225.691 311.231 212.352C401.889 197.485 405.561 35.3206 319.433 23.2132Z" fill="#F3F5F7"/>
<g clip-path="url(#clip0_36_17052)">
<path fill-rule="evenodd" clip-rule="evenodd" d="M293.93 120.338C293.93 120.338 299.214 121.049 299.886 121.924C299.886 121.924 300.216 126.108 299.555 130.052C298.894 133.982 299.825 135.909 300.186 139.333C300.547 142.756 302.377 159.899 292.604 161.166L291.177 134.92L291.876 124.334L293.928 120.34L293.93 120.338Z" fill="#F3F5F7"/>
<path fill-rule="evenodd" clip-rule="evenodd" d="M294.037 119.552C293.703 119.501 293.377 119.678 293.223 119.97L291.171 123.976C291.122 124.064 291.093 124.179 291.086 124.28L290.385 134.867C290.385 134.893 290.385 134.931 290.385 134.955L291.812 161.201C291.823 161.417 291.927 161.62 292.097 161.772C292.268 161.912 292.487 161.974 292.707 161.95C296.953 161.392 299.24 158.146 300.363 154.126C301.944 148.485 301.198 141.346 300.977 139.241C300.623 135.894 299.694 134.018 300.338 130.176C301.015 126.144 300.678 121.858 300.678 121.858C300.666 121.706 300.61 121.566 300.515 121.44C300.405 121.3 300.236 121.148 300.005 121.009C299.662 120.807 299.135 120.617 298.522 120.439C296.692 119.906 294.038 119.552 294.038 119.552H294.037ZM299.117 122.341C299.177 123.406 299.304 126.741 298.772 129.91C298.096 133.942 299.027 135.908 299.397 139.419C299.607 141.423 300.352 148.282 298.833 153.71C297.968 156.803 296.365 159.441 293.347 160.214L291.972 134.919L292.66 124.547L294.378 121.199C295.219 121.326 296.849 121.606 298.084 121.96C298.426 122.062 298.736 122.163 298.982 122.264C299.025 122.29 299.074 122.315 299.117 122.341Z" fill="#553597"/>
<path fill-rule="evenodd" clip-rule="evenodd" d="M188.698 139.814C188.698 139.814 183.422 144.276 174.065 139.814L180.806 125.575L189.966 128.682C189.966 128.682 190.944 133.209 188.698 139.815V139.814Z" fill="#A78ED7"/>
<path fill-rule="evenodd" clip-rule="evenodd" d="M153.931 112.527L137.117 137.848L136.558 153.621L150.559 164.398L164.359 159.541L182.82 128.719L173.758 109.205L153.933 112.527H153.931Z" fill="white"/>
<path fill-rule="evenodd" clip-rule="evenodd" d="M153.801 111.754C153.584 111.78 153.392 111.906 153.27 112.096L136.456 137.417C136.377 137.531 136.331 137.671 136.325 137.823L135.764 153.597C135.755 153.851 135.869 154.104 136.073 154.256L150.075 165.02C150.289 165.185 150.57 165.236 150.823 165.147L164.624 160.29C164.799 160.24 164.947 160.112 165.042 159.96L183.505 129.123C183.639 128.895 183.654 128.629 183.543 128.388L174.48 108.875C174.329 108.545 173.982 108.368 173.629 108.431L153.804 111.752L153.801 111.754ZM154.404 113.249C154.404 113.249 170.021 110.637 173.292 110.092L181.925 128.667C179.977 131.926 165.448 156.18 163.826 158.895L150.703 163.51L137.367 153.251L137.905 138.1L154.404 113.249Z" fill="#553597"/>
<path fill-rule="evenodd" clip-rule="evenodd" d="M257.515 130.456L273.49 132.815L280.408 128.961L281.048 119.908L279.388 117.816L259.623 114.278L256.892 124.332L257.515 130.456Z" fill="#F3F5F7"/>
<path fill-rule="evenodd" clip-rule="evenodd" d="M256.726 130.532C256.762 130.887 257.04 131.179 257.401 131.229L273.376 133.588C273.548 133.613 273.725 133.588 273.877 133.499L280.794 129.657C281.029 129.531 281.181 129.289 281.201 129.023L281.842 119.97C281.856 119.768 281.795 119.577 281.672 119.425L280.01 117.333C279.891 117.181 279.719 117.079 279.528 117.041L259.764 113.504C259.359 113.428 258.967 113.682 258.859 114.074L256.127 124.116C256.101 124.218 256.094 124.306 256.104 124.408L256.726 130.532ZM258.242 129.759L257.698 124.396L260.2 115.191L278.952 118.55L280.237 120.16L279.647 128.478L273.341 131.99L258.242 129.758V129.759Z" fill="#553597"/>
<path fill-rule="evenodd" clip-rule="evenodd" d="M250.71 86.3705C250.71 86.3705 245.673 81.1715 246.226 75.3137L247.978 68.5429L253.59 63.8521L258.467 62.673C258.467 62.673 262.88 60.6189 267.552 65.3615L265.815 67.6939C265.815 67.6939 261.439 64.9811 257.767 66.883C254.097 68.7849 248.705 73.4635 250.454 77.6735C252.203 81.8957 253.689 83.8356 253.689 83.8356L250.711 86.372L250.71 86.3705Z" fill="#F3F5F7"/>
<path fill-rule="evenodd" clip-rule="evenodd" d="M250.14 86.9152C250.431 87.2195 250.905 87.2454 251.225 86.9654L254.202 84.4428C254.523 84.1643 254.574 83.682 254.319 83.3518C254.319 83.3518 252.884 81.4621 251.187 77.3799C250.586 75.9223 251.014 74.4251 251.889 73.0177C253.343 70.6974 256.038 68.6693 258.133 67.5783C259.432 66.9058 260.834 66.9058 262.044 67.1219C263.939 67.4642 265.396 68.365 265.396 68.365C265.745 68.581 266.203 68.4913 266.45 68.1626L268.187 65.8301C268.42 65.5137 268.391 65.0815 268.115 64.8031C263.38 59.9982 258.863 61.646 258.209 61.9244L253.403 63.0777C253.285 63.1036 253.172 63.166 253.079 63.242L247.469 67.9329C247.343 68.047 247.251 68.187 247.21 68.3513L245.458 75.122C245.447 75.16 245.44 75.1981 245.437 75.2483C244.853 81.4104 250.14 86.9137 250.14 86.9137V86.9152ZM250.786 85.2537C249.582 83.8342 246.625 79.8524 247.01 75.4522L248.682 68.9857L253.955 64.5734L258.651 63.4444C258.703 63.4322 258.753 63.4185 258.802 63.3942C258.802 63.3942 262.461 61.7586 266.497 65.4482L265.588 66.6654C264.899 66.3231 263.714 65.8164 262.324 65.5623C260.798 65.2839 259.038 65.3219 257.398 66.1709C255.092 67.376 252.14 69.6324 250.541 72.1809C249.38 74.0448 248.921 76.0608 249.719 77.9748C250.944 80.9296 252.046 82.8056 252.626 83.6927L250.784 85.2522L250.786 85.2537Z" fill="#553597"/>
<path fill-rule="evenodd" clip-rule="evenodd" d="M274.017 64.0043C272.828 63.0959 271.315 62.6897 269.833 62.8905C268.341 63.0853 266.988 63.8643 266.076 65.0556C261.637 70.8419 253.966 80.8413 249.528 86.6261C248.614 87.8174 248.213 89.3237 248.412 90.8133C248.603 92.2952 249.391 93.6478 250.578 94.5577C254.446 97.517 260.006 101.771 263.874 104.731C265.071 105.646 266.575 106.045 268.067 105.852C269.558 105.657 270.911 104.878 271.824 103.687C276.262 97.9005 283.934 87.9011 288.372 82.1163C289.286 80.925 289.687 79.4187 289.487 77.9291C289.288 76.4411 288.511 75.0945 287.311 74.1786C283.443 71.2193 277.883 66.9651 274.015 64.0058L274.017 64.0043Z" fill="#EDE3FF"/>
<path fill-rule="evenodd" clip-rule="evenodd" d="M274.5 63.3759C273.141 62.3367 271.425 61.8787 269.728 62.1039C268.022 62.323 266.49 63.2176 265.448 64.5763C261.01 70.3627 253.339 80.362 248.9 86.1468C247.858 87.5055 247.392 89.2142 247.624 90.9167C247.848 92.6102 248.736 94.1469 250.095 95.1861C253.963 98.1454 259.523 102.4 263.391 105.359C264.75 106.398 266.477 106.862 268.172 106.637C269.87 106.41 271.41 105.523 272.452 104.165C276.89 98.3782 284.562 88.3789 289 82.5941C290.042 81.2354 290.499 79.5191 290.277 77.8241C290.054 76.1292 289.155 74.5864 287.796 73.5472C283.928 70.5878 278.368 66.3337 274.5 63.3744V63.3759ZM273.535 64.6326C277.404 67.592 282.963 71.8461 286.832 74.8055C287.859 75.5906 288.534 76.7545 288.701 78.0311C288.867 79.3076 288.523 80.6039 287.737 81.6279C283.299 87.4142 275.627 97.4136 271.189 103.198C270.403 104.222 269.24 104.893 267.964 105.064C266.685 105.236 265.384 104.886 264.359 104.101C260.49 101.141 254.931 96.8871 251.062 93.9278C250.036 93.1427 249.37 91.9864 249.193 90.7022C249.025 89.4257 249.371 88.1309 250.157 87.1069C254.596 81.3206 262.267 71.3212 266.705 65.5364C267.491 64.5124 268.654 63.8415 269.932 63.6695C271.22 63.5052 272.512 63.8475 273.537 64.6326H273.535Z" fill="#553597"/>
<path fill-rule="evenodd" clip-rule="evenodd" d="M208.672 98.2246C208.672 98.2246 216.683 119.171 229.246 125.548C241.808 131.938 259.462 131.228 259.462 131.228L262.138 106.085C262.138 106.085 257.975 108.012 253.718 106.655C249.462 105.286 245.988 103.384 242.892 102.966C239.798 102.559 229.019 84.8094 226.022 79.4203L212.254 88.3089L208.671 98.2246H208.672Z" fill="#6F46BE"/>
<path fill-rule="evenodd" clip-rule="evenodd" d="M196.745 72.829C196.745 72.829 178.474 80.3605 170.605 86.4846C162.735 92.5965 152.142 113.618 152.142 113.618C152.142 113.618 167.647 115.089 173.108 121.644C178.568 128.198 179.152 130.176 182.62 131.66C186.087 133.143 190.035 134.919 188.699 139.812C188.699 139.812 197.796 128.489 199.225 122.581C200.654 116.673 199.538 114.149 202.285 110.915C205.033 107.682 205.925 106.301 208.672 103.98C211.419 101.66 217.589 95.0537 222.442 90.8833C227.295 86.725 229.661 75.7184 226.022 66.7171L208.672 62.6729L196.745 72.829Z" fill="#6F46BE"/>
<path fill-rule="evenodd" clip-rule="evenodd" d="M247.026 142.281C247.079 142.35 247.133 142.418 247.197 142.488C252.973 149.708 248.987 161.994 238.182 170.617C228.207 178.586 215.948 180.162 209.585 174.655C209.343 174.443 209.111 174.221 208.88 173.991L204.833 170.18L206.006 168.914C203.99 161.577 208.328 151.572 217.24 144.454C223.876 139.159 231.516 136.685 237.756 137.238L241.736 136.538C241.736 136.538 246.423 141.568 247.028 142.28L247.026 142.281Z" fill="#6F46BE"/>
<path fill-rule="evenodd" clip-rule="evenodd" d="M209.067 175.254C211.748 177.574 215.411 178.722 219.523 178.7C225.542 178.67 232.535 176.141 238.679 171.236C245.336 165.921 249.451 159.236 250.414 153.15C251.074 148.965 250.263 145.052 247.807 141.995C247.754 141.921 247.69 141.846 247.626 141.775C247.032 141.058 242.322 136.002 242.322 136.002C242.132 135.806 241.862 135.715 241.597 135.762L237.72 136.443C231.327 135.914 223.523 138.43 216.746 143.839C207.714 151.047 203.327 161.165 205.124 168.696L204.249 169.646C203.951 169.965 203.975 170.461 204.292 170.758L208.319 174.559C208.561 174.802 208.805 175.035 209.067 175.256V175.254ZM246.477 142.86C246.456 142.838 246.435 142.815 246.413 142.79C246.467 142.852 246.52 142.917 246.573 142.983C248.743 145.7 249.428 149.183 248.848 152.902C247.937 158.665 243.995 164.966 237.689 169.997C231.855 174.656 225.229 177.087 219.517 177.116C215.816 177.135 212.506 176.143 210.098 174.057V174.049C209.867 173.854 209.656 173.65 209.445 173.437C209.434 173.43 209.434 173.421 209.423 173.415L205.945 170.139L206.582 169.45C206.771 169.249 206.835 168.967 206.766 168.704C204.819 161.603 209.105 151.961 217.736 145.072C224.192 139.92 231.608 137.49 237.683 138.027C237.755 138.033 237.817 138.03 237.887 138.018L241.448 137.393C242.484 138.502 245.903 142.189 246.412 142.788L247.015 143.073L246.476 142.858L246.477 142.86ZM209.624 174.343C209.535 174.781 209.583 175.434 209.585 175.447C209.553 175.415 208.477 174.006 209.478 173.869C209.57 173.857 209.617 174.069 209.624 174.343ZM246.477 142.86L247.017 143.074C246.822 143.074 246.625 142.997 246.477 142.86ZM247.017 143.074L246.366 141.837C246.494 141.645 247.017 143.059 247.017 143.074Z" fill="#553597"/>
<path d="M233.472 166.172C244.28 157.543 248.353 144.692 242.569 137.468C236.786 130.243 223.336 131.381 212.528 140.01C201.72 148.638 197.647 161.489 203.431 168.714C209.214 175.938 222.664 174.8 233.472 166.172Z" fill="#EDE3FF"/>
<path fill-rule="evenodd" clip-rule="evenodd" d="M243.191 136.971C240.744 133.916 237.004 132.256 232.658 131.972C226.335 131.555 218.69 134.076 212.033 139.391C205.377 144.705 201.23 151.596 200.245 157.848C199.567 162.145 200.364 166.154 202.81 169.209C205.256 172.264 208.997 173.924 213.342 174.209C219.665 174.626 227.311 172.105 233.967 166.79C240.624 161.475 244.771 154.584 245.755 148.332C246.433 144.036 245.636 140.027 243.191 136.971ZM241.948 137.963C244.125 140.684 244.795 144.256 244.186 148.086C243.257 154.008 239.286 160.514 232.975 165.551C226.665 170.589 219.437 173.024 213.446 172.625C209.571 172.375 206.229 170.936 204.051 168.216C201.874 165.495 201.204 161.923 201.813 158.093C202.743 152.171 206.713 145.665 213.024 140.628C219.335 135.59 226.562 133.155 232.553 133.554C236.428 133.804 239.771 135.243 241.948 137.963Z" fill="#553597"/>
<path fill-rule="evenodd" clip-rule="evenodd" d="M232.252 149.524L220.915 149.694L217.466 143.121C217.26 142.733 216.783 142.584 216.399 142.787C216.005 142.99 215.855 143.47 216.061 143.858L219.739 150.861C219.879 151.126 220.152 151.29 220.449 151.286L232.277 151.106C232.717 151.1 233.066 150.739 233.054 150.301C233.051 149.865 232.693 149.515 232.252 149.521V149.524Z" fill="#553597"/>
<path fill-rule="evenodd" clip-rule="evenodd" d="M222.712 150.28C222.679 149.095 221.687 148.159 220.498 148.193C219.31 148.226 218.375 149.217 218.408 150.403C218.442 151.589 219.433 152.524 220.622 152.491C221.81 152.457 222.746 151.467 222.712 150.28ZM221.125 150.326C221.134 150.636 220.885 150.898 220.578 150.907C220.261 150.916 219.997 150.67 219.988 150.359C219.979 150.047 220.227 149.787 220.546 149.778C220.853 149.769 221.117 150.014 221.126 150.327L221.125 150.326Z" fill="#553597"/>
<path fill-rule="evenodd" clip-rule="evenodd" d="M240.071 137.903L238.229 139.454C237.888 139.736 237.852 140.237 238.129 140.571C238.415 140.906 238.909 140.949 239.249 140.667L241.091 139.115C241.431 138.834 241.469 138.333 241.191 138C240.905 137.665 240.411 137.623 240.071 137.903Z" fill="#553597"/>
<path fill-rule="evenodd" clip-rule="evenodd" d="M241.183 153.448L238.047 152.836C237.614 152.752 237.202 153.034 237.122 153.463C237.032 153.892 237.311 154.309 237.744 154.393L240.88 155.003C241.312 155.086 241.725 154.806 241.815 154.377C241.894 153.948 241.617 153.531 241.183 153.448Z" fill="#553597"/>
<path fill-rule="evenodd" clip-rule="evenodd" d="M231.338 164.08L229.483 161.982C229.197 161.655 228.694 161.623 228.364 161.913C228.033 162.203 228.007 162.705 228.293 163.032L230.158 165.13C230.445 165.457 230.948 165.489 231.278 165.2C231.598 164.911 231.635 164.409 231.338 164.082V164.08Z" fill="#553597"/>
<path fill-rule="evenodd" clip-rule="evenodd" d="M204.005 156.795L205.94 157.055C206.372 157.113 206.773 156.809 206.832 156.375C206.892 155.943 206.582 155.543 206.15 155.484L204.215 155.223C203.773 155.166 203.381 155.47 203.322 155.904C203.263 156.337 203.561 156.736 204.003 156.794L204.005 156.795Z" fill="#553597"/>
<path fill-rule="evenodd" clip-rule="evenodd" d="M212.256 142.753L213.824 144.866C214.08 145.218 214.575 145.292 214.925 145.032C215.286 144.772 215.355 144.276 215.099 143.923L213.531 141.81C213.264 141.458 212.771 141.385 212.419 141.645C212.067 141.906 211.989 142.403 212.256 142.755V142.753Z" fill="#553597"/>
<path fill-rule="evenodd" clip-rule="evenodd" d="M224.468 136.259L224.689 138.93C224.732 139.365 225.111 139.689 225.552 139.651C225.992 139.614 226.309 139.229 226.275 138.794L226.045 136.125C226.012 135.689 225.623 135.365 225.194 135.403C224.753 135.439 224.426 135.824 224.47 136.261L224.468 136.259Z" fill="#553597"/>
<path fill-rule="evenodd" clip-rule="evenodd" d="M300.118 7.50451C300.205 7.4406 300.291 7.37822 300.381 7.30215C309.537 0.417313 324.629 5.78064 334.936 19.4484C344.462 32.0647 345.983 47.2798 338.928 54.9498C338.657 55.2419 338.375 55.5203 338.08 55.7988L333.21 60.6676L331.682 59.172C322.515 61.404 310.263 55.6847 301.756 44.4133C295.427 36.0191 292.631 26.4853 293.537 18.788L292.811 13.8431C292.811 13.8431 299.214 8.2257 300.118 7.50299V7.50451Z" fill="#6F46BE"/>
<path fill-rule="evenodd" clip-rule="evenodd" d="M299.624 6.88375C298.717 7.60646 292.286 13.2482 292.286 13.2482C292.084 13.4262 291.985 13.6925 292.024 13.9588L292.736 18.8017C291.847 26.6497 294.681 36.3493 301.12 44.8835C309.716 56.2826 322.079 62.0507 331.435 60.0484L332.652 61.2275C332.963 61.5318 333.461 61.5318 333.768 61.2275L338.625 56.3709C338.933 56.0924 339.225 55.7881 339.507 55.4838L339.484 55.5097L338.924 55.7379L339.507 55.4838C342.451 52.2887 343.983 47.8382 344.102 42.7914C344.278 35.3862 341.402 26.7014 335.566 18.9676C329.246 10.5871 321.149 5.28616 313.673 3.89246C308.566 2.92934 303.736 3.79051 299.9 6.66921C299.805 6.74529 299.712 6.82136 299.621 6.88527L299.624 6.88375ZM338.342 54.4188C338.288 54.469 338.247 54.5329 338.214 54.609C338.125 54.7991 338.176 54.9893 338.282 55.1674C338.488 55.4975 338.907 55.7379 338.927 55.7379V55.7501C338.613 55.7501 338.328 55.5599 338.2 55.2678C338.105 55.0517 338.113 54.8113 338.214 54.609C338.24 54.5451 338.279 54.4827 338.334 54.4188C338.083 54.6972 337.817 54.9635 337.542 55.2176C337.534 55.2176 337.525 55.2297 337.517 55.2434L333.201 59.5539L332.235 58.6151C332.04 58.4249 331.76 58.3367 331.493 58.4127C322.562 60.5687 310.675 54.9133 302.388 43.9325C296.197 35.7285 293.438 26.4093 294.323 18.8778C294.332 18.8139 294.331 18.7515 294.32 18.6755L293.658 14.149C294.966 13.0078 299.831 8.7476 300.608 8.12682C300.689 8.06292 300.771 8.00053 300.855 7.93663C304.342 5.31203 308.738 4.57714 313.382 5.452C320.535 6.78333 328.251 11.9063 334.299 19.9185C339.896 27.3359 342.685 35.654 342.518 42.7533C342.408 47.3818 341.04 51.4762 338.34 54.4188H338.342ZM339.487 55.5097L338.927 55.7501C339.137 55.7501 339.34 55.6618 339.487 55.5097ZM338.925 55.7379L338.342 54.4188L338.364 54.3929C338.532 54.2286 338.902 55.6603 338.925 55.7364V55.7379ZM299.654 8.15116C299.473 8.40526 300.11 8.30331 300.118 8.30331C299.947 8.30331 299.787 8.2531 299.654 8.15116ZM299.668 7.01003L300.118 8.30331C300.115 8.29114 299.856 7.28847 299.668 7.01003ZM299.531 6.97199C299.47 7.0359 299.427 7.11197 299.398 7.17435C299.432 7.09828 299.476 7.03437 299.531 6.97199Z" fill="#553597"/>
<path fill-rule="evenodd" clip-rule="evenodd" d="M37.0225 326.585C43.3972 235.921 122.774 164.188 219.621 164.188C316.469 164.188 395.843 235.921 402.218 326.585H381.893C370.593 253.697 304.527 197.693 224.824 197.693C145.122 197.693 79.0585 253.697 67.7565 326.585H37.0225Z" fill="#6F46BE"/>
<path fill-rule="evenodd" clip-rule="evenodd" d="M67.7578 326.58C79.0599 253.706 145.125 197.701 224.827 197.701C304.529 197.701 370.594 253.706 381.895 326.58H67.7578Z" fill="#EDE3FF"/>
<path fill-rule="evenodd" clip-rule="evenodd" d="M66.9731 326.466C66.9381 326.696 67.0036 326.924 67.1544 327.096C67.3053 327.268 67.5247 327.369 67.7562 327.369H381.892C382.123 327.369 382.344 327.268 382.495 327.096C382.646 326.924 382.711 326.696 382.676 326.466C371.319 253.219 304.932 196.899 224.825 196.899C144.719 196.899 78.3315 253.219 66.9716 326.466H66.9731ZM68.6856 325.794C80.3381 253.737 145.862 198.489 224.825 198.489C303.789 198.489 369.311 253.735 380.964 325.794H68.6856Z" fill="#553597"/>
<path fill-rule="evenodd" clip-rule="evenodd" d="M179.622 54.7611L173.043 64.7012L162.936 49.6641C162.936 49.6641 162.552 44.3646 161.956 43.1855C161.357 42.0063 156.671 40.7252 155.767 41.0812C154.865 41.4357 154.687 42.4886 154.687 42.4886C154.687 42.4886 153.393 41.664 152.107 42.3623C150.825 43.0592 150.623 45.0889 150.972 45.3932C150.972 45.3932 148.568 46.6484 149.345 48.8288C149.345 48.8288 147.75 51.035 149.155 52.8106C150.559 54.5983 153.788 56.9567 156.501 56.0179C156.501 56.0179 165.363 73.8196 169.722 76.9387C174.081 80.0578 178.24 77.103 180.739 73.8698C183.236 70.6487 188.591 62.851 188.591 62.851L187.466 58.0202L179.622 54.7611Z" fill="white"/>
<path fill-rule="evenodd" clip-rule="evenodd" d="M179.927 54.0247C179.575 53.8847 179.17 54.0125 178.961 54.329L173.039 63.2679L163.711 49.3963C163.658 48.7238 163.481 46.6317 163.213 44.9717C163.059 44.0329 162.863 43.222 162.662 42.8157C162.52 42.5373 162.24 42.233 161.834 41.9667C161.382 41.6503 160.751 41.346 160.058 41.0919C158.889 40.6476 157.545 40.3311 156.645 40.2429C156.121 40.2048 155.71 40.255 155.475 40.3448C154.87 40.5852 154.488 41.0417 154.251 41.4479C153.602 41.2577 152.665 41.1558 151.733 41.664C150.569 42.2984 150.055 43.7439 150.03 44.7191C150.027 44.8333 150.033 44.9474 150.045 45.0615C149.807 45.2395 149.527 45.4799 149.268 45.772C148.669 46.4689 148.188 47.4579 148.485 48.7009C148.325 48.9794 148.11 49.4115 147.962 49.9303C147.679 50.9193 147.642 52.1745 148.532 53.3035C149.445 54.4568 151.07 55.8399 152.857 56.5489C153.912 56.9673 155.018 57.1453 156.081 56.9551C157.12 58.997 160.786 66.1101 164.28 71.4734C166.104 74.276 167.903 76.6085 169.26 77.5716C174.035 80.995 178.629 77.9018 181.367 74.3643C183.873 71.1189 189.249 63.2953 189.249 63.2953C189.373 63.1173 189.418 62.889 189.366 62.6745L188.24 57.8315C188.182 57.5911 188.008 57.3872 187.772 57.2868L179.929 54.0277L179.927 54.0247ZM156.043 41.8268C156.092 41.8268 156.517 41.8146 156.849 41.8648C157.616 41.9789 158.615 42.233 159.499 42.5753C160.058 42.7777 160.573 43.0196 160.939 43.2722C161.079 43.3604 161.198 43.4365 161.246 43.5385C161.403 43.8428 161.527 44.4894 161.647 45.2243C161.959 47.1642 162.145 49.7127 162.145 49.7127C162.156 49.8527 162.202 49.9912 162.278 50.1053L172.385 65.1424C172.533 65.3584 172.783 65.4969 173.047 65.4969C173.31 65.4969 173.56 65.3569 173.706 65.1424L179.923 55.7471L186.786 58.5877L187.74 62.6836C186.753 64.1169 182.315 70.5453 180.11 73.3844C177.85 76.3011 174.127 79.1022 170.184 76.2874C168.927 75.3867 167.298 73.2064 165.61 70.6076C161.531 64.3436 157.212 55.671 157.212 55.671C157.034 55.3165 156.621 55.1384 156.243 55.2647C155.333 55.5812 154.358 55.4291 153.438 55.0745C151.925 54.4781 150.551 53.2989 149.778 52.3237C149.263 51.6648 149.323 50.9284 149.486 50.3716C149.667 49.7371 149.988 49.2806 149.988 49.2806C150.141 49.0646 150.18 48.7983 150.092 48.5579C149.822 47.7972 150.119 47.2144 150.468 46.8082C150.868 46.3517 151.34 46.0976 151.34 46.0976C151.571 45.9713 151.73 45.7431 151.762 45.489C151.785 45.2988 151.736 45.0965 151.629 44.9443C151.626 44.8561 151.622 44.5639 151.669 44.3357C151.771 43.8671 152.004 43.3209 152.487 43.0546C153.374 42.5723 154.265 43.1566 154.265 43.1566C154.489 43.2965 154.77 43.3087 155.012 43.2068C155.254 43.0927 155.426 42.8766 155.472 42.6103C155.472 42.6103 155.554 42.0276 156.046 41.8237L156.043 41.8268Z" fill="#553597"/>
<path fill-rule="evenodd" clip-rule="evenodd" d="M218.643 37.4783C218.643 37.4783 233.677 40.3311 237.243 42.0687C240.812 43.8184 251.745 58.0187 251.745 58.0187C251.745 58.0187 255.776 58.5892 258.121 61.4162C260.466 64.231 260.723 65.4862 260.629 66.6395C260.535 67.8065 258.45 69.112 258.45 69.112C258.45 69.112 257.781 71.4962 255.722 71.8507C255.722 71.8507 254.503 75.198 251.871 73.7785L248.759 70.3292C248.759 70.3292 246.696 73.7024 246.327 74.9957C246.327 74.9957 244.998 71.4323 245.523 68.5034C245.523 68.5034 238.083 58.9559 234.839 55.9631C231.597 52.9703 222.155 48.8379 216.236 48.774C216.236 48.774 215.247 45.5529 215.089 44.818C214.933 44.0953 217.202 39.9112 217.202 39.9112L218.64 37.4768L218.643 37.4783Z" fill="white"/>
<path fill-rule="evenodd" clip-rule="evenodd" d="M218.791 36.7053C218.463 36.6414 218.131 36.7936 217.961 37.0857L216.522 39.508C216.518 39.5201 216.512 39.5201 216.507 39.5338C216.507 39.5338 215.017 42.2984 214.502 43.7819C214.312 44.3266 214.27 44.7709 214.318 44.9991C214.478 45.734 215.48 49.0052 215.48 49.0052C215.581 49.3354 215.884 49.5636 216.23 49.5636C221.98 49.6275 231.153 53.6458 234.303 56.5504C237.198 59.213 243.464 67.1629 244.688 68.7225C244.29 71.7655 245.583 75.2771 245.583 75.2771C245.702 75.5936 246.016 75.8097 246.359 75.7975C246.702 75.7853 246.997 75.5434 247.09 75.2148C247.323 74.3901 248.271 72.7164 248.888 71.6651L251.282 74.3155C251.341 74.3795 251.413 74.4297 251.492 74.4799C252.327 74.9242 253.058 75.0002 253.683 74.8724C254.597 74.6822 255.299 74.0615 255.766 73.4148C256 73.0983 256.174 72.7803 256.29 72.5399C258.005 72.0196 258.834 70.3216 259.107 69.6232C259.479 69.3691 260.212 68.8244 260.73 68.2036C261.118 67.7213 261.38 67.2025 261.42 66.7202C261.523 65.4391 261.318 64.0195 258.732 60.9126C256.62 58.3762 253.247 57.515 252.187 57.299C251.199 56.0316 246.501 50.0216 242.53 45.7477C240.542 43.6176 238.711 41.918 237.592 41.3612C233.986 39.5992 218.789 36.7084 218.789 36.7084L218.791 36.7053ZM215.884 44.7313C215.911 44.6294 216.056 44.1227 216.213 43.7423C216.783 42.373 217.796 40.4832 217.894 40.3068L219.041 38.3668C221.754 38.8872 233.769 41.2577 236.893 42.7914C237.915 43.2859 239.552 44.8713 241.366 46.8234C245.783 51.5781 251.116 58.501 251.116 58.501C251.242 58.6653 251.426 58.7794 251.632 58.8053C251.632 58.8053 255.35 59.3256 257.51 61.9244C259.616 64.447 259.922 65.538 259.837 66.5771C259.812 66.8936 259.529 67.1858 259.256 67.452C258.7 68.0226 258.027 68.441 258.027 68.441C257.859 68.5429 257.737 68.7073 257.684 68.8975C257.684 68.8975 257.544 69.3919 257.193 69.9123C256.87 70.4068 256.367 70.9393 255.584 71.0793C255.304 71.1295 255.069 71.3197 254.972 71.586C254.972 71.586 254.809 72.0302 254.48 72.473C254.224 72.8275 253.866 73.2079 253.364 73.3098C253.073 73.3737 252.741 73.322 252.36 73.1318L249.345 69.7967C249.178 69.6186 248.931 69.5182 248.682 69.5426C248.434 69.5684 248.21 69.7069 248.079 69.9229C248.079 69.9229 247.223 71.3303 246.499 72.6997C246.248 71.5205 246.057 70.0112 246.303 68.6418C246.342 68.4136 246.286 68.1976 246.147 68.0211C246.147 68.0211 238.645 58.3975 235.377 55.3804C232.147 52.4012 222.937 48.3053 216.829 48.001C216.556 47.0881 216.023 45.3262 215.881 44.7298L215.884 44.7313Z" fill="#553597"/>
<path fill-rule="evenodd" clip-rule="evenodd" d="M195.508 30.3028C195.508 30.3028 200.444 27.3618 200.368 25.0795C200.293 22.7972 197.98 24.1666 197.98 24.1666C197.98 24.1666 201.526 20.1346 197.037 21.1236C197.037 21.1236 202.02 14.467 194.814 16.4327C194.814 16.4327 194.906 13.1235 189.555 15.2536C184.206 17.3959 173.416 27.0194 182.358 27.9841L195.508 30.3044V30.3028Z" fill="#553597"/>
<path fill-rule="evenodd" clip-rule="evenodd" d="M199.73 23.0118C199.797 22.8718 199.858 22.7455 199.91 22.6192C200.158 21.9847 200.157 21.3761 199.904 20.9455C199.729 20.6412 199.436 20.3871 198.95 20.2609C198.839 20.235 198.713 20.2107 198.569 20.197C198.886 19.6264 199.206 18.9676 199.372 18.3331C199.604 17.4582 199.535 16.6473 199.096 16.0889C198.824 15.7465 198.408 15.4681 197.769 15.3403C197.219 15.2384 196.455 15.252 195.417 15.4666C195.289 15.1242 195.073 14.756 194.712 14.4396C193.953 13.7807 192.402 13.2604 189.26 14.5156C185.917 15.8591 180.547 20.0189 178.787 23.3282C178.075 24.6717 177.941 25.9148 178.462 26.8779C178.956 27.7786 180.105 28.5257 182.247 28.7676L195.368 31.0879C195.556 31.126 195.751 31.0879 195.914 30.986C195.914 30.986 198.454 29.4645 199.951 27.7269C200.71 26.852 201.188 25.9011 201.159 25.0521C201.124 23.9612 200.675 23.4286 200.193 23.1761C200.049 23.1 199.892 23.0361 199.73 23.0118ZM198.499 21.7945C198.493 21.8448 198.482 21.8965 198.472 21.9208C198.42 22.0852 198.338 22.2632 198.246 22.4275C197.893 23.062 197.384 23.6447 197.384 23.6447C197.126 23.9368 197.122 24.3674 197.37 24.6717C197.62 24.976 198.051 25.0399 198.386 24.8497C198.386 24.8497 198.691 24.6595 199.048 24.5835C199.18 24.5454 199.325 24.5074 199.444 24.5713C199.477 24.5835 199.49 24.6352 199.509 24.6732C199.55 24.7874 199.57 24.9273 199.576 25.1038C199.587 25.4203 199.435 25.7383 199.223 26.0669C198.947 26.4975 198.562 26.9296 198.141 27.3344C197.108 28.3112 195.866 29.148 195.348 29.4766L182.497 27.1944H182.444C181.024 27.0422 180.184 26.7121 179.856 26.1172C179.555 25.5588 179.776 24.8497 180.189 24.0753C181.808 21.0201 186.774 17.2163 189.851 15.9854C191.058 15.5031 191.954 15.3129 192.624 15.3266C193.121 15.3388 193.456 15.4529 193.672 15.6309C194.03 15.9474 194.023 16.4038 194.023 16.4038C194.015 16.6579 194.128 16.8983 194.325 17.0505C194.523 17.2026 194.782 17.2528 195.024 17.1905C195.988 16.9242 196.709 16.8222 197.236 16.8603C197.532 16.8862 197.74 16.9242 197.849 17.0626C197.935 17.1768 197.931 17.3289 197.92 17.4811C197.897 17.7854 197.797 18.1155 197.666 18.4442C197.216 19.5594 196.403 20.6504 196.403 20.6504C196.205 20.9166 196.192 21.2711 196.372 21.5511C196.552 21.8295 196.887 21.9695 197.212 21.8934C197.751 21.7793 198.301 21.7915 198.502 21.7915L198.499 21.7945Z" fill="#553597"/>
<path d="M331.336 62.3359C340.498 55.441 339.564 38.7702 329.249 25.1006C318.934 11.431 303.145 5.93896 293.982 12.8338C284.82 19.7286 285.754 36.3994 296.069 50.069C306.384 63.7387 322.174 69.2307 331.336 62.3359Z" fill="#EDE3FF"/>
<path fill-rule="evenodd" clip-rule="evenodd" d="M293.51 12.209C289.676 15.0938 287.51 19.6096 287.008 24.9167C286.271 32.684 289.12 42.1797 295.441 50.5572C301.761 58.9346 310.117 64.2873 317.797 65.722C323.045 66.7049 327.987 65.8696 331.822 62.9849C335.655 60.1001 337.822 55.5858 338.323 50.2772C339.061 42.5099 336.21 33.0141 329.89 24.6382C323.57 16.2608 315.215 10.9066 307.536 9.47334C302.289 8.49044 297.346 9.32575 293.511 12.2105L293.51 12.209ZM294.469 13.4825C297.96 10.8564 302.462 10.1352 307.243 11.0329C314.598 12.4099 322.566 17.5678 328.619 25.5922C334.674 33.6167 337.442 42.6864 336.739 50.1266C336.285 54.9634 334.35 59.0867 330.858 61.7129C327.367 64.339 322.865 65.0602 318.084 64.1625C310.729 62.7855 302.761 57.6276 296.708 49.6032C290.653 41.5787 287.884 32.509 288.588 25.0688C289.042 20.2319 290.977 16.1086 294.469 13.4825Z" fill="#553597"/>
<path fill-rule="evenodd" clip-rule="evenodd" d="M335.77 118.132C332.674 120.212 328.757 120.617 325.269 119.375C324.857 119.223 324.402 119.439 324.255 119.857C324.107 120.264 324.322 120.72 324.735 120.872C328.746 122.306 333.262 121.797 336.798 119.351C337.068 119.161 337.333 118.958 337.586 118.73C339.744 119.186 342.002 118.882 344.106 118.057C344.514 117.905 344.717 117.437 344.558 117.03C344.4 116.624 343.938 116.422 343.531 116.586C342.006 117.169 340.383 117.473 338.802 117.309C339.553 116.168 339.926 114.798 339.5 113.403C339.079 112.034 337.569 111.311 336.012 111.361C334.472 111.425 332.997 112.236 332.61 113.567C332.385 114.354 332.546 115.115 332.947 115.8C333.454 116.674 334.358 117.397 335.107 117.803C335.325 117.93 335.545 118.032 335.768 118.134L335.77 118.132ZM337.117 116.953C337.862 116.09 338.331 115.001 337.981 113.872C337.761 113.149 336.887 112.921 336.067 112.947C335.231 112.985 334.344 113.289 334.135 114.012C334.003 114.468 334.216 114.899 334.505 115.279C334.882 115.774 335.418 116.166 335.871 116.42C336.279 116.636 336.693 116.813 337.117 116.953Z" fill="#553597"/>
<path fill-rule="evenodd" clip-rule="evenodd" d="M136.624 75.5642C138.479 75.9705 140.286 76.5532 142.136 76.9716C142.564 77.0599 142.989 76.7936 143.085 76.363C143.181 75.9446 142.915 75.514 142.488 75.4242C140.632 75.0058 138.821 74.4231 136.963 74.0168C136.535 73.9286 136.112 74.1948 136.019 74.6254C135.924 75.056 136.197 75.4744 136.624 75.5642Z" fill="#553597"/>
<path fill-rule="evenodd" clip-rule="evenodd" d="M96.505 99.6076C96.9499 100.114 97.4039 100.597 97.8549 101.091C98.1505 101.421 98.6518 101.446 98.9763 101.141C99.2993 100.849 99.3237 100.355 99.0281 100.026C98.5817 99.5437 98.1322 99.0492 97.6934 98.5547C97.4024 98.2383 96.9011 98.2002 96.5736 98.4908C96.246 98.783 96.2155 99.2774 96.5065 99.6061L96.505 99.6076Z" fill="#553597"/>
<path fill-rule="evenodd" clip-rule="evenodd" d="M78.425 194.004C80.3158 193.319 82.1137 192.418 83.945 191.595C84.3442 191.417 84.5225 190.948 84.3427 190.542C84.1629 190.15 83.6936 189.972 83.2929 190.15C81.4981 190.948 79.7369 191.836 77.8857 192.508C77.4743 192.66 77.2595 193.117 77.4088 193.523C77.5581 193.929 78.0122 194.144 78.425 194.005V194.004Z" fill="#553597"/>
<path fill-rule="evenodd" clip-rule="evenodd" d="M182.357 27.132C182.357 27.132 184.129 35.2341 186.78 35.8305C189.43 36.4391 190.524 36.8073 191.691 39.3041L196.577 38.379L197.749 36.2611L194.958 28.8437C194.958 28.8437 197.539 28.2093 196.929 25.8768C196.42 23.9369 193.489 24.0129 192.459 25.7368C191.459 25.7748 190.635 24.6717 190.643 23.5565L188.281 24.2792C186.613 21.7687 184.431 25.0521 182.357 27.132Z" fill="white"/>
<path fill-rule="evenodd" clip-rule="evenodd" d="M181.797 26.5614C181.605 26.7516 181.524 27.0301 181.582 27.2963C181.582 27.2963 182.484 31.3922 183.96 34.067C184.704 35.4242 185.639 36.3873 186.604 36.6034C188.03 36.9336 188.967 37.1481 189.703 37.7704C190.18 38.1888 190.563 38.7716 190.97 39.6464C191.124 39.9766 191.482 40.1531 191.839 40.0907L196.726 39.1519C196.958 39.1139 197.158 38.9617 197.272 38.7594L198.442 36.6414C198.555 36.4391 198.573 36.1972 198.492 35.9826L195.972 29.288C196.905 28.8057 198.238 27.7284 197.698 25.6866C197.412 24.5835 196.591 23.9368 195.605 23.7208C194.418 23.4667 192.989 23.8729 192.118 24.8619C191.996 24.798 191.886 24.6976 191.793 24.5835C191.572 24.305 191.435 23.9368 191.438 23.5686C191.438 23.3145 191.321 23.0741 191.118 22.922C190.915 22.7698 190.653 22.7318 190.413 22.8079L188.572 23.3663C188.203 22.96 187.813 22.7455 187.425 22.6435C186.878 22.5036 186.302 22.5933 185.715 22.8976C184.471 23.5321 183.104 25.2682 181.8 26.5614H181.797ZM183.229 27.3724C184.14 26.4093 185.063 25.2925 185.952 24.6078C186.334 24.3294 186.677 24.0875 187.026 24.1772C187.242 24.2411 187.423 24.4176 187.618 24.7219C187.812 25.0141 188.178 25.1403 188.513 25.0384L190.018 24.582C190.189 25.0886 190.481 25.5451 190.85 25.8874C191.31 26.3058 191.883 26.5462 192.491 26.5219C192.76 26.5219 193.006 26.3697 193.143 26.1415C193.512 25.5329 194.226 25.2164 194.886 25.2286C195.454 25.2286 196.009 25.4827 196.166 26.0776C196.582 27.6752 194.769 28.0814 194.769 28.0814C194.549 28.1316 194.363 28.2838 194.258 28.474C194.153 28.6763 194.139 28.9183 194.217 29.1206L196.879 36.1956L196.065 37.6669L192.136 38.4155C191.699 37.5909 191.251 37.0081 190.74 36.5775C189.834 35.7909 188.709 35.4623 186.957 35.056C186.695 35.0058 186.462 34.8156 186.229 34.5615C185.915 34.2314 185.624 33.8008 185.354 33.3063C184.245 31.3025 183.488 28.4253 183.232 27.3724H183.229Z" fill="#553597"/>
<path fill-rule="evenodd" clip-rule="evenodd" d="M184.882 28.6155C184.882 28.6155 182.327 30.7076 181.053 31.7468C180.645 32.0769 180.528 32.6475 180.773 33.1161C180.785 33.142 180.799 33.1663 180.811 33.1922C180.971 33.4965 181.265 33.7126 181.608 33.775C181.948 33.8252 182.296 33.7247 182.552 33.4965C183.86 32.2915 185.904 30.4155 185.904 30.4155L184.884 28.6155H184.882Z" fill="#F3F5F7"/>
<path fill-rule="evenodd" clip-rule="evenodd" d="M184.379 27.9947C184.379 27.9947 181.824 30.0868 180.55 31.126C179.85 31.7087 179.648 32.6855 180.069 33.4843L180.105 33.5604C180.381 34.0807 180.886 34.4474 181.468 34.5494C182.051 34.6513 182.65 34.4733 183.087 34.0807L186.439 30.9997C186.761 30.7076 186.782 30.2009 186.486 29.8844C186.189 29.5542 185.686 29.5421 185.363 29.8342L182.013 32.9153C181.94 32.9792 181.839 33.0035 181.742 32.9913C181.643 32.9792 181.559 32.9153 181.512 32.827L181.475 32.7509C181.404 32.6247 181.439 32.4588 181.556 32.3584C182.828 31.3192 185.385 29.2271 185.385 29.2271C185.723 28.9487 185.773 28.4542 185.496 28.1119C185.219 27.7817 184.719 27.7315 184.379 27.9977V27.9947Z" fill="#553597"/>
<path fill-rule="evenodd" clip-rule="evenodd" d="M187.679 33.422C187.679 33.422 190.272 32.2687 189.969 29.6441C189.92 29.2135 189.524 28.8955 189.09 28.9472C188.654 28.9974 188.341 29.3915 188.392 29.8221C188.565 31.3314 187.04 31.978 187.04 31.978C186.64 32.1561 186.457 32.6247 186.632 33.0172C186.809 33.4235 187.276 33.6 187.679 33.4235V33.422Z" fill="#553597"/>
<path fill-rule="evenodd" clip-rule="evenodd" d="M178.549 54.9255C178.549 54.9255 183.749 45.6184 185.902 43.6024C188.054 41.5864 196.086 35.5886 202.272 34.7776C208.456 33.9667 220.294 36.8317 220.294 36.8317L217.697 49.5621L214.352 49.6641L220.348 59.0853C220.348 59.0853 226.869 60.9993 225.93 66.1725C225.93 66.1725 204.559 65.7038 196.63 72.6009L191.421 61.1515L188.281 64.2325L178.548 54.9255H178.549Z" fill="#6F46BE"/>
<path fill-rule="evenodd" clip-rule="evenodd" d="M177.856 54.5329C177.681 54.8494 177.739 55.2434 178.001 55.496L187.732 64.8031C188.041 65.0952 188.531 65.0952 188.837 64.7909L191.168 62.5208L195.909 72.931C196.013 73.1471 196.219 73.3236 196.464 73.3753C196.708 73.4255 196.964 73.3631 197.153 73.1973C200.232 70.5224 205.412 69.0131 210.504 68.1382C218.294 66.8069 225.914 66.9712 225.914 66.9712C226.304 66.9712 226.64 66.6928 226.71 66.3124C227.245 63.3714 225.688 61.3417 223.965 60.0484C222.735 59.1355 221.433 58.6151 220.866 58.4128L215.771 50.4127L217.72 50.3624C218.088 50.3503 218.401 50.084 218.474 49.728L221.072 36.9975C221.158 36.5791 220.896 36.1728 220.482 36.0724C220.482 36.0724 208.45 33.1694 202.167 33.9925C195.821 34.8293 187.566 40.9534 185.357 43.0196C183.166 45.0737 177.855 54.5329 177.855 54.5329H177.856ZM179.543 54.7733C180.666 52.7953 184.641 45.8725 186.445 44.1729C188.541 42.2072 196.353 36.3493 202.375 35.5642C207.537 34.8917 216.7 36.8317 219.364 37.4281L217.045 48.7892L214.33 48.8653C214.043 48.8774 213.786 49.0433 213.652 49.2959C213.518 49.55 213.53 49.8543 213.682 50.0825L219.677 59.5037C219.78 59.668 219.94 59.7821 220.122 59.8338C220.122 59.8338 221.623 60.2903 223.017 61.3295C224.187 62.1922 225.303 63.5098 225.225 65.3737C223.118 65.3737 216.735 65.4619 210.236 66.5787C205.269 67.4277 200.245 68.899 196.932 71.3456L192.143 60.835C192.035 60.5946 191.82 60.4288 191.566 60.3785C191.311 60.3283 191.051 60.4166 190.865 60.5946L188.275 63.131L179.541 54.7748L179.543 54.7733Z" fill="#553597"/>
<path fill-rule="evenodd" clip-rule="evenodd" d="M188.398 42.0306L192.504 43.9066C192.712 43.9949 192.948 43.9949 193.155 43.9066C193.362 43.8184 193.521 43.6404 193.589 43.4243L194.84 39.5186L198.271 41.1801C198.489 41.2942 198.745 41.2942 198.964 41.1801C199.182 41.0781 199.342 40.8758 199.394 40.6476L200.43 35.905C200.525 35.4744 200.252 35.056 199.825 34.9662C199.397 34.8643 198.974 35.1442 198.881 35.5627L198.059 39.3162L194.712 37.6928C194.503 37.5908 194.264 37.5787 194.052 37.6669C193.841 37.7689 193.679 37.9454 193.607 38.1614L192.35 42.0915L189.056 40.5958C188.657 40.4056 188.186 40.5837 188.005 40.9884C187.825 41.3809 188.001 41.8511 188.398 42.0276V42.0306Z" fill="#553597"/>
<path fill-rule="evenodd" clip-rule="evenodd" d="M153.988 42.1067C153.988 42.1067 153.272 43.438 152.987 44.7054C152.839 45.3521 152.816 45.9866 152.972 46.4674C153.164 47.0638 153.607 47.5066 154.198 47.7485C154.928 48.0269 155.938 47.9767 156.851 47.4061C157.029 48.281 157.395 49.3461 158.138 50.1829C158.426 50.5131 158.929 50.5511 159.258 50.259C159.587 49.9668 159.619 49.4723 159.33 49.1437C158.134 47.7743 158.269 45.6823 158.269 45.6823C158.289 45.3141 158.061 44.9854 157.713 44.8835C157.366 44.7694 156.988 44.9093 156.799 45.2258C156.532 45.6564 156.203 45.9607 155.857 46.1387C155.518 46.3167 155.166 46.3669 154.875 46.303C154.695 46.2528 154.538 46.1509 154.483 45.9866C154.364 45.6184 154.501 45.0995 154.654 44.605C154.934 43.6921 155.385 42.8553 155.385 42.8553C155.592 42.4749 155.449 41.9926 155.062 41.7902C154.677 41.5742 154.195 41.7263 153.986 42.1067H153.988Z" fill="#553597"/>
<path fill-rule="evenodd" clip-rule="evenodd" d="M152.713 56.2689C152.713 56.2689 153.798 55.9524 154.631 55.2419C155.19 54.7733 155.626 54.151 155.702 53.378C155.998 53.1118 156.436 52.6553 156.743 52.0969C157.022 51.5903 157.194 50.9938 157.124 50.3731C157.334 50.2468 157.567 50.0946 157.783 49.9044C158.25 49.486 158.626 48.9033 158.655 48.1669C158.67 47.7226 158.329 47.3559 157.89 47.3422C157.453 47.3163 157.084 47.6587 157.069 48.103C157.058 48.3692 156.895 48.5716 156.724 48.7237C156.376 49.0402 155.949 49.1802 155.949 49.1802C155.737 49.2441 155.563 49.3963 155.472 49.5986C155.381 49.801 155.378 50.0429 155.466 50.2453C155.638 50.6378 155.524 51.0182 155.352 51.3362C155.018 51.9448 154.448 52.351 154.448 52.351C154.224 52.5153 154.102 52.7816 154.124 53.0616C154.157 53.48 153.892 53.7965 153.607 54.0384C153.022 54.5329 152.259 54.7489 152.259 54.7489C151.84 54.8752 151.601 55.3195 151.726 55.7379C151.85 56.1563 152.294 56.3967 152.713 56.2704V56.2689Z" fill="#553597"/>
<path fill-rule="evenodd" clip-rule="evenodd" d="M149.07 49.4358L154.212 53.6078C154.552 53.8863 155.053 53.836 155.329 53.4937C155.605 53.1514 155.553 52.6569 155.213 52.3784L150.071 48.2065C149.731 47.928 149.232 47.9782 148.956 48.3206C148.678 48.6507 148.73 49.1574 149.07 49.4358Z" fill="#553597"/>
<path fill-rule="evenodd" clip-rule="evenodd" d="M150.374 46.405L155.516 50.577C155.856 50.8554 156.357 50.8052 156.633 50.4629C156.909 50.1205 156.857 49.626 156.517 49.3476L151.375 45.1756C151.035 44.8972 150.535 44.9474 150.258 45.2897C149.981 45.6199 150.034 46.1266 150.372 46.405H150.374Z" fill="#553597"/>
<path fill-rule="evenodd" clip-rule="evenodd" d="M193.334 42.4871L195.928 44.8454L198.081 43.7423L198.38 40.611L194.882 38.7594L193.332 42.4871H193.334Z" fill="#F3F5F7"/>
<path fill-rule="evenodd" clip-rule="evenodd" d="M192.599 42.1828C192.471 42.4871 192.55 42.8416 192.798 43.0698L195.393 45.4282C195.637 45.6442 195.993 45.6945 196.287 45.5423L198.44 44.4514C198.682 44.3251 198.845 44.0969 198.871 43.8169L199.17 40.6719C199.2 40.3555 199.036 40.0512 198.752 39.899L195.253 38.0473C195.056 37.9454 194.823 37.9332 194.613 38.0093C194.402 38.0854 194.235 38.2497 194.148 38.4536L192.599 42.1813V42.1828ZM194.279 42.2711L195.28 39.8625L197.54 41.0538L197.332 43.2342L196.056 43.8808L194.279 42.2711Z" fill="#553597"/>
<path fill-rule="evenodd" clip-rule="evenodd" d="M195.857 44.8454C195.857 44.8454 197.188 49.6762 201.176 51.4518C205.165 53.2274 206.9 53.4419 209.833 57.2974C212.766 61.1514 219.036 56.6386 219.036 56.6386L221.489 53.8999L217.745 50.9071C217.745 50.9071 214.724 52.7588 211.403 50.2985C208.081 47.8382 207.787 47.6739 204.514 47.8763C201.242 48.0786 198.668 45.1254 198.082 43.7423L195.857 44.8454Z" fill="#F3F5F7"/>
<path fill-rule="evenodd" clip-rule="evenodd" d="M195.506 44.1349C195.165 44.2992 194.991 44.6796 195.092 45.0478C195.092 45.0478 196.545 50.259 200.854 52.173C204.692 53.8847 206.379 54.0749 209.2 57.7767C210.582 59.5904 212.575 59.8688 214.489 59.5006C217.09 59.0061 219.5 57.2686 219.5 57.2686C219.546 57.2427 219.588 57.2047 219.626 57.1544L222.079 54.4279C222.224 54.2636 222.297 54.0475 222.279 53.8315C222.261 53.6154 222.154 53.4131 221.985 53.2731L218.241 50.2803C217.979 50.0779 217.615 50.052 217.332 50.2301C217.332 50.2301 214.734 51.7637 211.874 49.6595C209.74 48.0741 208.755 47.4153 207.566 47.149C206.77 46.9847 205.873 46.9968 204.465 47.0851C201.584 47.2631 199.329 44.6385 198.811 43.4335C198.726 43.2311 198.563 43.079 198.357 43.0029C198.153 42.9268 197.927 42.939 197.731 43.0287L195.505 44.1318L195.506 44.1349ZM196.829 45.2501L197.754 44.7937C198.832 46.4552 201.412 48.8637 204.566 48.6614C205.775 48.5853 206.545 48.5594 207.229 48.6994C208.26 48.9276 209.08 49.5621 210.931 50.9315C213.837 53.0875 216.544 52.313 217.643 51.8444L220.338 54.0004L218.505 56.0422C218.13 56.2963 216.229 57.5637 214.19 57.9441C212.852 58.2104 211.431 58.0841 210.465 56.8152C207.422 52.8212 205.638 52.5671 201.5 50.7291C198.671 49.4739 197.306 46.5328 196.829 45.2517V45.2501Z" fill="#553597"/>
<path fill-rule="evenodd" clip-rule="evenodd" d="M253.436 96.7791L277.809 66.9317C278.087 66.6015 278.035 66.0949 277.697 65.8286C277.357 65.5502 276.857 65.6004 276.581 65.9305L252.207 95.778C251.929 96.1203 251.981 96.6148 252.321 96.8933C252.661 97.1717 253.161 97.1215 253.438 96.7791H253.436Z" fill="#553597"/>
<path fill-rule="evenodd" clip-rule="evenodd" d="M308.761 26.0289L308.569 40.1668L300.192 44.249C299.799 44.4514 299.634 44.9215 299.826 45.3141C300.02 45.7066 300.494 45.8724 300.888 45.6823L309.704 41.384C309.973 41.244 310.144 40.9777 310.15 40.6734L310.348 26.0548C310.354 25.6105 310.002 25.256 309.565 25.256C309.126 25.2438 308.768 25.5983 308.761 26.0289Z" fill="#553597"/>
<path fill-rule="evenodd" clip-rule="evenodd" d="M309.169 38.0489C307.802 38.0489 306.691 39.1641 306.691 40.5213C306.691 41.8785 307.801 42.9938 309.169 42.9938C310.537 42.9938 311.646 41.8907 311.646 40.5213C311.646 39.152 310.537 38.0489 309.169 38.0489ZM309.169 39.6343C309.659 39.6343 310.059 40.0405 310.059 40.5213C310.059 41.0021 309.659 41.4084 309.169 41.4084C308.678 41.4084 308.279 41.0158 308.279 40.5213C308.279 40.0268 308.678 39.6343 309.169 39.6343Z" fill="#553597"/>
<path fill-rule="evenodd" clip-rule="evenodd" d="M294.589 15.8348L296.448 18.1672C296.721 18.5096 297.221 18.5735 297.563 18.2935C297.908 18.0273 297.964 17.5206 297.691 17.1783L295.833 14.8458C295.561 14.5034 295.062 14.4395 294.717 14.7195C294.375 14.9858 294.318 15.4924 294.589 15.8348Z" fill="#553597"/>
<path fill-rule="evenodd" clip-rule="evenodd" d="M313.938 15.1638L313.069 19.0178C312.973 19.4484 313.241 19.8668 313.668 19.9687C314.096 20.057 314.52 19.7907 314.617 19.3723L315.487 15.5046C315.582 15.0862 315.315 14.6556 314.887 14.5659C314.46 14.4639 314.035 14.7302 313.939 15.1623L313.938 15.1638Z" fill="#553597"/>
<path fill-rule="evenodd" clip-rule="evenodd" d="M326.71 27.8167L324.043 30.035C323.706 30.3135 323.66 30.8217 323.94 31.1503C324.221 31.4926 324.722 31.5307 325.059 31.2522L327.727 29.0339C328.063 28.7554 328.108 28.2473 327.827 27.9186C327.547 27.5763 327.047 27.5382 326.71 27.8167Z" fill="#553597"/>
<path fill-rule="evenodd" clip-rule="evenodd" d="M332.894 44.7572L329.186 44.1866C328.753 44.1105 328.346 44.4148 328.279 44.8454C328.211 45.276 328.508 45.6822 328.941 45.7461L332.649 46.3289C333.082 46.3928 333.489 46.1007 333.556 45.6701C333.623 45.2395 333.327 44.8332 332.894 44.7572Z" fill="#553597"/>
<path fill-rule="evenodd" clip-rule="evenodd" d="M329.539 60.4287L326.361 58.0324C326.011 57.7783 325.513 57.8422 325.251 58.1967C324.987 58.539 325.057 59.0335 325.406 59.2998L328.584 61.6962C328.935 61.9624 329.433 61.8863 329.695 61.5318C329.958 61.1895 329.888 60.695 329.538 60.4287H329.539Z" fill="#553597"/>
<path fill-rule="evenodd" clip-rule="evenodd" d="M316.398 61.1895L316.79 58.7931C316.861 58.3625 316.567 57.9563 316.135 57.8924C315.703 57.8163 315.294 58.1084 315.224 58.539L314.832 60.9354C314.76 61.366 315.056 61.7722 315.487 61.8483C315.92 61.9122 316.328 61.6201 316.398 61.1895Z" fill="#553597"/>
<path fill-rule="evenodd" clip-rule="evenodd" d="M299.359 50.3609L302.036 48.4971C302.396 48.243 302.482 47.7485 302.233 47.394C301.983 47.0394 301.488 46.9497 301.128 47.2038L298.451 49.0676C298.091 49.308 298.003 49.8025 298.255 50.1707C298.504 50.5252 299 50.615 299.359 50.3609Z" fill="#553597"/>
<path fill-rule="evenodd" clip-rule="evenodd" d="M291.837 34.9937L295.156 34.8156C295.594 34.7898 295.928 34.4094 295.904 33.9788C295.879 33.5345 295.504 33.2059 295.067 33.2302L291.75 33.4082C291.313 33.4341 290.978 33.8145 291.002 34.2451C291.028 34.6894 291.403 35.018 291.839 34.9937H291.837Z" fill="#553597"/>
<path fill-rule="evenodd" clip-rule="evenodd" d="M36.6082 327.378H402.636C403.075 327.378 403.43 327.023 403.43 326.579C403.43 326.135 403.075 325.792 402.636 325.792H36.6082C36.171 325.792 35.8145 326.147 35.8145 326.579C35.8145 327.011 36.1695 327.378 36.6082 327.378Z" fill="#553597"/>
<path fill-rule="evenodd" clip-rule="evenodd" d="M277.832 117.548C277.832 117.548 280.32 124.09 275.397 128.857C270.474 133.612 274.609 135.514 274.609 135.514C274.609 135.514 279.762 138.012 283.748 150.767C287.734 163.535 292.243 161.924 294.696 159.452C295.979 158.171 298.364 152.807 297.338 145.492C296.313 138.163 295.371 135.995 295.953 128.527C296.316 123.86 296.871 120.945 292.839 119.981C288.805 119.004 280.839 117.216 277.833 117.546L277.832 117.548Z" fill="#F3F5F7"/>
<path fill-rule="evenodd" clip-rule="evenodd" d="M277.745 116.749C277.502 116.787 277.284 116.913 277.154 117.129C277.026 117.332 277.002 117.598 277.09 117.826C277.09 117.826 279.397 123.874 274.845 128.287C272.612 130.443 272.107 132.128 272.201 133.32C272.366 135.348 274.276 136.236 274.276 136.236C274.263 136.236 279.144 138.697 282.99 151.007C284.478 155.774 286.061 158.589 287.565 160.149C288.696 161.316 289.815 161.822 290.85 161.924C292.567 162.102 294.117 161.163 295.259 160.022C296.605 158.665 299.201 153.061 298.125 145.378C297.11 138.125 296.17 135.982 296.745 128.591C296.894 126.677 297.069 125.041 296.967 123.722C296.879 122.569 296.585 121.63 295.977 120.869C295.373 120.121 294.45 119.55 293.024 119.208C288.92 118.219 280.808 116.419 277.747 116.747L277.745 116.749ZM278.874 118.296C282.309 118.334 289.064 119.882 292.652 120.743C293.647 120.983 294.318 121.339 294.741 121.872C295.159 122.392 295.323 123.051 295.384 123.838C295.482 125.105 295.305 126.652 295.163 128.466C294.577 136.01 295.518 138.204 296.554 145.595C297.529 152.568 295.354 157.679 294.135 158.896C293.317 159.721 292.244 160.482 291.014 160.354C290.071 160.252 289.081 159.631 288.04 158.262C286.858 156.702 285.665 154.242 284.507 150.54C280.383 137.329 274.956 134.805 274.956 134.805H274.942C274.942 134.805 273.877 134.31 273.786 133.195C273.712 132.282 274.246 131.077 275.952 129.417C280.014 125.499 279.388 120.44 278.877 118.298L278.874 118.296Z" fill="#553597"/>
<path fill-rule="evenodd" clip-rule="evenodd" d="M281.525 144.466L283.744 142.793C284.094 142.539 284.166 142.032 283.9 141.69C283.637 141.335 283.14 141.271 282.79 141.525L280.571 143.199C280.221 143.465 280.151 143.96 280.415 144.302C280.678 144.657 281.175 144.72 281.525 144.466Z" fill="#553597"/>
<path fill-rule="evenodd" clip-rule="evenodd" d="M282.712 147.445L285.28 146.05C285.663 145.848 285.807 145.366 285.595 144.973C285.385 144.593 284.903 144.453 284.518 144.657L281.952 146.064C281.568 146.266 281.425 146.749 281.635 147.141C281.845 147.522 282.328 147.662 282.712 147.445Z" fill="#553597"/>
<path fill-rule="evenodd" clip-rule="evenodd" d="M275.635 144.796C275.394 145.113 275.186 145.469 275.021 145.836C274.707 146.533 274.471 147.459 274.543 148.27C274.63 149.271 275.123 150.122 276.307 150.45C276.613 150.539 276.936 150.552 277.252 150.539C277.668 150.526 278.09 150.425 278.478 150.272C279.924 149.714 280.975 148.32 281.407 146.875C281.74 145.746 281.865 144.542 281.923 143.363C281.944 142.933 281.606 142.564 281.169 142.539C280.732 142.513 280.358 142.855 280.337 143.287C280.285 144.34 280.182 145.417 279.884 146.418C279.587 147.42 278.896 148.409 277.896 148.803C277.672 148.891 277.428 148.955 277.188 148.955C277.035 148.967 276.878 148.967 276.732 148.929C276.31 148.803 276.153 148.485 276.123 148.13C276.074 147.585 276.257 146.963 276.469 146.482C276.697 145.976 277.045 145.519 277.439 145.125C278.012 144.542 278.692 144.034 279.43 143.692L279.598 143.616C279.638 143.604 279.738 143.552 279.753 143.54C280.332 143.223 280.139 142.639 280.122 142.589C280.119 142.577 280.052 142.411 279.912 142.272C280.131 142.246 280.342 142.146 280.482 141.956C280.741 141.601 280.663 141.107 280.31 140.841C279.395 140.182 278.417 139.497 277.331 139.141C275.852 138.659 274.238 138.761 272.783 139.293C272.239 139.483 271.505 139.89 271 140.422C270.578 140.866 270.315 141.399 270.309 141.969C270.3 142.882 271.093 143.681 271.796 144.125C272.951 144.836 274.317 144.962 275.638 144.798L275.635 144.796ZM279.28 142.058C278.524 141.513 277.724 140.942 276.831 140.65C275.69 140.27 274.442 140.372 273.319 140.777C273.019 140.891 272.628 141.093 272.312 141.359C272.102 141.537 271.896 141.728 271.893 141.98C271.893 142.106 271.98 142.221 272.065 142.31C272.23 142.501 272.442 142.653 272.628 142.767C273.792 143.489 275.245 143.337 276.517 143.007C277.105 142.855 277.686 142.665 278.254 142.449C278.431 142.385 278.609 142.309 278.783 142.246C278.874 142.196 278.967 142.158 279.06 142.12C279.138 142.082 279.211 142.07 279.28 142.056V142.058Z" fill="#553597"/>
<path fill-rule="evenodd" clip-rule="evenodd" d="M136.837 137.683C136.837 137.683 142.061 160.848 164.623 159.213C164.623 159.213 168.046 161.419 166.121 167.251C164.196 173.071 150.513 194.068 148.535 196.476C146.558 198.885 99.3763 155.307 99.3763 155.307L79.9307 132.294C79.9307 132.294 79.888 125.307 90.2393 128.25C100.592 131.179 121.476 142.222 136.834 137.683H136.837Z" fill="#F3F5F7"/>
<path fill-rule="evenodd" clip-rule="evenodd" d="M137.612 137.518C137.564 137.301 137.429 137.111 137.241 137.011C137.05 136.897 136.825 136.871 136.613 136.935C130.595 138.71 123.711 138.026 116.968 136.402C106.653 133.918 96.6626 129.239 90.4585 127.476C85.9913 126.22 83.3204 126.741 81.7222 127.73C79.1138 129.353 79.1397 132.306 79.1397 132.306C79.1397 132.484 79.2067 132.675 79.3271 132.813L98.7712 155.814C98.7925 155.84 98.8154 155.864 98.8383 155.878C98.8383 155.878 121.977 177.255 136.54 189.263C141.621 193.447 145.692 196.49 147.42 197.174C147.816 197.327 148.136 197.377 148.366 197.365C148.724 197.339 148.977 197.187 149.149 196.984C151.143 194.55 164.933 173.375 166.873 167.493C167.712 164.956 167.598 163.042 167.184 161.673C166.518 159.467 165.051 158.554 165.051 158.554C164.906 158.452 164.735 158.414 164.565 158.428C142.668 159.999 137.611 137.519 137.611 137.519L137.612 137.518ZM136.278 138.671C137.465 142.791 143.952 161.303 164.37 160.022C164.97 160.567 166.803 162.647 165.366 166.995C163.512 172.613 150.648 192.405 148.116 195.726C147.976 195.676 147.772 195.6 147.599 195.51C146.591 195.003 145.057 193.938 143.143 192.493C130.333 182.781 101.118 155.824 99.952 154.747L80.744 132.026C80.811 131.43 81.1203 129.972 82.5586 129.072C83.9238 128.223 86.2092 127.918 90.0242 129.008C96.2436 130.77 106.258 135.448 116.596 137.934C123.329 139.558 130.197 140.243 136.276 138.669L136.278 138.671Z" fill="#553597"/>
<path fill-rule="evenodd" clip-rule="evenodd" d="M125.108 128.554C124.945 127.934 124.697 127.337 124.345 126.767C123.659 125.651 122.524 124.624 121.138 124.586C119.128 124.536 117.513 126.438 116.98 128.188C115.951 131.573 117.917 135.301 119.869 137.937C120.129 138.292 120.626 138.368 120.978 138.102C121.33 137.848 121.406 137.353 121.145 136.999C119.465 134.716 117.612 131.571 118.499 128.656C118.685 128.036 119.044 127.389 119.533 126.894C119.958 126.476 120.486 126.159 121.092 126.172C121.942 126.198 122.575 126.92 122.995 127.605C123.711 128.758 123.871 130.09 123.763 131.409C122.98 133.387 122.328 135.529 122.239 137.621C122.223 138.001 122.408 138.154 122.442 138.192C122.591 138.356 122.763 138.432 122.934 138.458C123.088 138.47 123.524 138.496 123.754 138.001C123.767 137.963 123.824 137.761 123.845 137.671C123.873 137.569 123.902 137.455 123.929 137.355C124.005 137.063 124.089 136.772 124.176 136.492C124.438 135.617 124.729 134.768 124.944 133.893C125.11 133.209 125.241 132.512 125.311 131.801C125.424 131.523 125.538 131.257 125.654 130.977C126.646 128.668 128.419 126.082 131.029 125.473C131.48 125.359 131.952 125.333 132.415 125.359C132.717 125.371 133.046 125.409 133.323 125.549C134.317 126.006 134.651 126.855 134.597 127.756C134.536 128.795 134.006 129.898 133.331 130.684C132.219 131.99 130.848 133.055 129.499 134.108C128.117 135.173 126.572 136.631 124.909 137.265C124.499 137.417 124.295 137.874 124.45 138.28C124.607 138.698 125.066 138.901 125.474 138.736C127.275 138.052 128.974 136.518 130.47 135.351C131.904 134.248 133.354 133.107 134.536 131.711C136.404 129.531 137.2 125.613 133.995 124.104C133.54 123.902 133.004 123.8 132.507 123.774C131.891 123.736 131.265 123.786 130.663 123.926C128.244 124.496 126.37 126.424 125.105 128.554H125.108Z" fill="#553597"/>
<path fill-rule="evenodd" clip-rule="evenodd" d="M117.812 137.239L118.424 141.563C118.485 141.994 118.887 142.286 119.321 142.236C119.756 142.172 120.057 141.767 119.996 141.335L119.384 137.025C119.323 136.594 118.921 136.29 118.486 136.352C118.052 136.416 117.751 136.809 117.812 137.239Z" fill="#553597"/>
<path fill-rule="evenodd" clip-rule="evenodd" d="M112.378 136.364L112.518 139.686C112.536 140.13 112.906 140.472 113.344 140.446C113.781 140.434 114.121 140.066 114.102 139.622L113.962 136.3C113.944 135.856 113.574 135.527 113.137 135.54C112.699 135.552 112.358 135.932 112.378 136.364Z" fill="#553597"/>
<path fill-rule="evenodd" clip-rule="evenodd" d="M78.2646 135.68C78.2646 135.68 127.468 212.199 148.341 196.578C148.341 196.578 147.687 188.678 142.681 184.089C137.673 179.499 126.88 173.997 120.663 168.57C114.446 163.143 105.904 145.481 99.9195 141.449C93.9348 137.417 85.4591 126.716 78.2646 135.68Z" fill="#F3F5F7"/>
<path fill-rule="evenodd" clip-rule="evenodd" d="M77.6443 135.185C77.431 135.439 77.4112 135.82 77.5956 136.098C77.5956 136.098 101.801 173.73 123.505 190.936C128.229 194.676 132.844 197.453 137.069 198.722C141.48 200.027 145.484 199.699 148.816 197.213C149.034 197.048 149.154 196.782 149.132 196.516C149.132 196.516 148.435 188.287 143.217 183.507C138.207 178.916 127.407 173.401 121.186 167.975C117.491 164.754 112.984 157.147 108.675 150.732C105.706 146.307 102.814 142.44 100.363 140.792C97.3536 138.764 93.7137 135.06 89.9261 132.994C87.4715 131.651 84.95 130.99 82.4863 131.689C80.8424 132.157 79.2106 133.236 77.6443 135.188V135.185ZM79.2472 135.73C80.4447 134.36 81.6697 133.562 82.9206 133.207C84.9911 132.624 87.0983 133.257 89.1627 134.386C92.9077 136.428 96.4989 140.092 99.4744 142.108C101.812 143.68 104.525 147.395 107.356 151.617C111.747 158.16 116.374 165.882 120.141 169.165C126.354 174.592 137.139 180.082 142.143 184.672C146.247 188.438 147.286 194.524 147.501 196.198C144.643 198.15 141.244 198.302 137.525 197.199C133.46 195.982 129.035 193.293 124.492 189.693C104.391 173.755 82.145 140.168 79.2487 135.73H79.2472Z" fill="#553597"/>
<path fill-rule="evenodd" clip-rule="evenodd" d="M90.9273 152.899C91.7287 150.058 92.4326 147.205 93.1578 144.352C93.266 143.934 93.0085 143.49 92.5834 143.389C92.1583 143.275 91.7272 143.541 91.619 143.96C90.8968 146.8 90.1975 149.639 89.3991 152.468C89.2803 152.886 89.5256 153.317 89.9461 153.445C90.3681 153.559 90.8069 153.319 90.9258 152.9L90.9273 152.899Z" fill="#553597"/>
<path fill-rule="evenodd" clip-rule="evenodd" d="M97.8768 146.66C96.5589 151.009 96.3669 155.573 95.404 159.999C95.311 160.43 95.5823 160.848 96.0104 160.938C96.4385 161.026 96.8605 160.76 96.9535 160.33C97.9073 155.955 98.0886 151.429 99.3943 147.118C99.5207 146.7 99.2846 146.256 98.8641 146.129C98.4451 146.003 98.0017 146.243 97.8753 146.662L97.8768 146.66Z" fill="#553597"/>
<path fill-rule="evenodd" clip-rule="evenodd" d="M103.94 153.583C103.482 157.653 103.043 161.749 102.447 165.793C102.383 166.224 102.683 166.63 103.116 166.694C103.549 166.758 103.952 166.454 104.016 166.022C104.615 161.964 105.057 157.843 105.517 153.761C105.566 153.331 105.252 152.937 104.818 152.886C104.382 152.836 103.989 153.153 103.94 153.583Z" fill="#553597"/>
<path fill-rule="evenodd" clip-rule="evenodd" d="M110.794 162.56C110.489 166.224 110.096 169.939 109.389 173.553C109.305 173.984 109.585 174.402 110.015 174.478C110.445 174.566 110.862 174.288 110.946 173.857C111.664 170.18 112.064 166.414 112.375 162.686C112.412 162.256 112.087 161.875 111.65 161.837C111.214 161.799 110.83 162.13 110.794 162.56Z" fill="#553597"/>
<path fill-rule="evenodd" clip-rule="evenodd" d="M119.888 171.777C119.507 176.216 119.223 180.69 118.565 185.091C118.501 185.521 118.8 185.927 119.233 185.991C119.665 186.055 120.069 185.763 120.135 185.333C120.797 180.882 121.085 176.381 121.468 171.917C121.504 171.473 121.181 171.093 120.746 171.055C120.31 171.017 119.924 171.333 119.888 171.777Z" fill="#553597"/>
<path fill-rule="evenodd" clip-rule="evenodd" d="M128.185 179.651C128.104 183.405 127.97 187.133 127.617 190.86C127.576 191.305 127.896 191.685 128.331 191.723C128.767 191.773 129.154 191.444 129.197 191.012C129.553 187.234 129.69 183.469 129.773 179.689C129.782 179.245 129.434 178.878 128.997 178.878C128.56 178.866 128.196 179.209 128.187 179.651H128.185Z" fill="#553597"/>
<path fill-rule="evenodd" clip-rule="evenodd" d="M135.873 186.13C135.687 188.576 135.54 191.025 135.408 193.483C135.384 193.928 135.721 194.294 136.158 194.32C136.597 194.346 136.969 194.004 136.993 193.572C137.124 191.125 137.27 188.691 137.455 186.242C137.488 185.812 137.161 185.431 136.723 185.393C136.286 185.355 135.905 185.686 135.873 186.128V186.13Z" fill="#553597"/>
<path fill-rule="evenodd" clip-rule="evenodd" d="M221.088 197.731C222.327 197.705 223.576 197.693 224.826 197.693C228.755 197.693 232.651 197.833 236.5 198.1V214.05C236.5 216.091 235.689 218.044 234.242 219.489C232.797 220.934 230.838 221.733 228.793 221.733C226.749 221.733 224.791 220.934 223.345 219.489C221.901 218.044 221.087 216.091 221.087 214.05V197.731H221.088Z" fill="white"/>
<path fill-rule="evenodd" clip-rule="evenodd" d="M221.07 196.946C220.641 196.946 220.295 197.301 220.295 197.733V214.051C220.295 216.295 221.191 218.451 222.784 220.049C224.378 221.634 226.54 222.533 228.794 222.533C231.047 222.533 233.209 221.633 234.803 220.049C236.398 218.451 237.292 216.295 237.292 214.051V198.101C237.292 197.683 236.969 197.34 236.555 197.314C232.688 197.036 228.774 196.896 224.826 196.896C223.569 196.896 222.315 196.922 221.07 196.946ZM221.883 198.506C222.861 198.494 223.843 198.48 224.828 198.48C228.487 198.48 232.118 198.606 235.708 198.834V214.05C235.708 215.875 234.979 217.625 233.683 218.931C232.388 220.224 230.629 220.947 228.797 220.947C226.964 220.947 225.205 220.224 223.909 218.931C222.612 217.625 221.884 215.875 221.884 214.05V198.504L221.883 198.506Z" fill="#553597"/>
<path fill-rule="evenodd" clip-rule="evenodd" d="M131.479 226.584L140.241 236.073C141.626 237.574 142.356 239.559 142.274 241.601C142.193 243.641 141.294 245.555 139.792 246.939C138.29 248.322 136.306 249.061 134.263 248.977C132.22 248.892 130.297 248.007 128.91 246.506L119.219 236.011C123.134 232.682 127.233 229.546 131.478 226.585L131.479 226.584Z" fill="white"/>
<path fill-rule="evenodd" clip-rule="evenodd" d="M132.064 226.047C131.797 225.758 131.358 225.713 131.026 225.933C126.754 228.901 122.645 232.063 118.711 235.41C118.543 235.547 118.441 235.745 118.429 235.962C118.417 236.18 118.491 236.388 118.638 236.547L128.329 247.042C129.853 248.691 131.974 249.671 134.23 249.765C136.478 249.852 138.678 249.05 140.335 247.524C141.991 245.998 142.971 243.873 143.066 241.63C143.154 239.377 142.348 237.186 140.826 235.535L132.064 226.045V226.047ZM131.37 227.634L139.659 236.611C140.898 237.952 141.55 239.733 141.484 241.571C141.409 243.398 140.608 245.12 139.26 246.36C137.911 247.602 136.129 248.259 134.299 248.186C132.46 248.104 130.735 247.311 129.496 245.968L120.366 236.078C123.9 233.117 127.566 230.293 131.372 227.634H131.37Z" fill="#553597"/>
<path fill-rule="evenodd" clip-rule="evenodd" d="M74.1209 301.145L88.0984 301.768C90.14 301.859 92.0582 302.755 93.4401 304.261C94.8221 305.768 95.5336 307.758 95.4422 309.797C95.3507 311.835 94.4655 313.756 92.9541 315.133C91.4442 316.51 89.4544 317.234 87.4128 317.143L69.7314 316.356C70.9153 311.181 72.3871 306.105 74.1209 301.145Z" fill="white"/>
<path fill-rule="evenodd" clip-rule="evenodd" d="M74.1574 300.353C73.8146 300.337 73.5007 300.554 73.3834 300.884C71.6358 305.87 70.1503 310.973 68.9512 316.176C68.9025 316.405 68.9558 316.647 69.099 316.834C69.2438 317.021 69.454 317.135 69.6947 317.146L87.3761 317.932C89.6219 318.033 91.8174 317.235 93.4857 315.715C95.1419 314.197 96.1398 312.079 96.2389 309.83C96.3394 307.581 95.535 305.384 94.0205 303.724C92.4939 302.063 90.3776 301.074 88.1318 300.973L74.1543 300.351L74.1574 300.353ZM74.683 301.962L88.0648 302.557C89.8916 302.638 91.6086 303.443 92.858 304.796C94.0936 306.145 94.7381 307.931 94.6574 309.76C94.5751 311.589 93.7752 313.31 92.4222 314.545C91.0586 315.781 89.276 316.429 87.4492 316.348L70.7186 315.604C71.8156 310.971 73.1487 306.419 74.683 301.962Z" fill="#553597"/>
<path fill-rule="evenodd" clip-rule="evenodd" d="M320.866 228.498C324.323 230.998 327.666 233.634 330.89 236.388L323.493 244.401C322.348 245.639 320.761 246.371 319.074 246.441C317.387 246.511 315.75 245.899 314.509 244.758C313.269 243.616 312.527 242.036 312.46 240.35C312.393 238.665 312.995 237.026 314.139 235.787L320.869 228.498H320.866Z" fill="white"/>
<path fill-rule="evenodd" clip-rule="evenodd" d="M321.337 227.85C321.008 227.618 320.558 227.661 320.282 227.961L313.553 235.25C312.267 236.644 311.592 238.485 311.668 240.379C311.744 242.274 312.571 244.06 313.967 245.344C315.363 246.628 317.212 247.307 319.109 247.231C321.006 247.155 322.789 246.333 324.075 244.939L331.472 236.927C331.613 236.773 331.691 236.559 331.677 236.347C331.662 236.134 331.566 235.93 331.4 235.793C328.167 233.017 324.803 230.374 321.337 227.851V227.85ZM320.973 229.551C323.985 231.754 326.908 234.062 329.744 236.458L322.908 243.862C321.913 244.939 320.514 245.589 319.044 245.644C317.566 245.706 316.126 245.178 315.04 244.179C313.953 243.179 313.31 241.788 313.254 240.312C313.19 238.844 313.725 237.399 314.72 236.321L320.974 229.548L320.973 229.551Z" fill="#553597"/>
<path fill-rule="evenodd" clip-rule="evenodd" d="M375.67 301.541C377.08 305.606 378.308 309.748 379.354 313.955L367.561 315.081C365.88 315.241 364.209 314.728 362.906 313.655C361.604 312.583 360.792 311.037 360.632 309.36C360.472 307.682 360.974 306.011 362.05 304.712C363.126 303.411 364.669 302.592 366.35 302.431L375.67 301.541Z" fill="white"/>
<path fill-rule="evenodd" clip-rule="evenodd" d="M376.423 301.282C376.295 300.937 375.959 300.718 375.593 300.753L366.273 301.643C364.384 301.824 362.65 302.744 361.442 304.207C360.234 305.669 359.656 307.551 359.836 309.436C360.017 311.323 360.941 313.06 362.405 314.267C363.869 315.473 365.746 316.05 367.634 315.869L379.426 314.743C379.656 314.722 379.865 314.6 379.995 314.413C380.124 314.226 380.174 313.988 380.123 313.765C379.074 309.533 377.834 305.371 376.42 301.282H376.423ZM375.118 302.39C376.344 305.955 377.417 309.579 378.358 313.254L367.484 314.293C366.023 314.433 364.548 313.984 363.416 313.045C362.274 312.106 361.555 310.755 361.413 309.285C361.273 307.817 361.722 306.353 362.665 305.215C363.599 304.079 364.963 303.359 366.424 303.221L375.118 302.39Z" fill="#553597"/>
<path fill-rule="evenodd" clip-rule="evenodd" d="M216.938 326.579C216.888 326.186 216.863 325.792 216.863 325.4C216.863 320.151 221.122 315.902 226.367 315.902H226.436L267.556 254.852C268.343 253.685 269.558 252.874 270.937 252.608C272.318 252.341 273.748 252.62 274.917 253.406C276.084 254.193 276.892 255.41 277.161 256.78C277.431 258.161 277.143 259.594 276.357 260.761L235.195 321.876C235.631 322.967 235.87 324.158 235.87 325.401C235.87 325.794 235.844 326.188 235.794 326.58H216.938V326.579Z" fill="white"/>
<path fill-rule="evenodd" clip-rule="evenodd" d="M226.008 315.116C220.491 315.306 216.069 319.833 216.069 325.398C216.069 325.829 216.097 326.261 216.152 326.679C216.203 327.072 216.54 327.364 216.938 327.364H235.794C236.193 327.364 236.53 327.072 236.582 326.679C236.638 326.261 236.664 325.83 236.664 325.398C236.664 324.193 236.458 323.052 236.082 321.975L277.016 261.203C277.92 259.859 278.252 258.21 277.941 256.626C277.63 255.041 276.702 253.647 275.362 252.746C274.021 251.845 272.375 251.517 270.788 251.821C269.202 252.137 267.803 253.064 266.901 254.408L226.011 315.116H226.008ZM217.663 325.779C217.658 325.652 217.655 325.524 217.655 325.398C217.655 320.593 221.559 316.7 226.366 316.7H226.428C226.695 316.7 226.945 316.56 227.094 316.345L268.214 255.282C268.882 254.293 269.916 253.609 271.089 253.381C272.264 253.152 273.48 253.393 274.473 254.065C275.465 254.738 276.152 255.765 276.381 256.93C276.611 258.109 276.364 259.327 275.698 260.316L234.535 321.43C234.389 321.646 234.36 321.925 234.458 322.165C234.857 323.166 235.076 324.257 235.076 325.398C235.076 325.524 235.073 325.652 235.067 325.779H217.665H217.663Z" fill="#553597"/>
<path fill-rule="evenodd" clip-rule="evenodd" d="M187.19 26.4656C187.602 26.4656 187.935 26.7988 187.935 27.2096C187.935 27.6204 187.602 27.9536 187.19 27.9536C186.779 27.9536 186.445 27.6204 186.445 27.2096C186.445 26.7988 186.779 26.4656 187.19 26.4656Z" fill="#553597"/>
<path fill-rule="evenodd" clip-rule="evenodd" d="M78.2645 135.68C78.2645 135.68 77.3519 131.838 81.5143 129.936C85.6753 128.022 101.409 137.391 110.472 150.008C118.213 160.772 119.792 165.793 128.357 170.586C136.923 175.379 152.157 186.029 148.342 196.578C148.342 196.578 145.1 187.271 137.804 182.732C130.507 178.194 120.038 173.653 113.172 162.979C106.306 152.302 89.4462 128.859 78.2645 135.68Z" fill="#F3F5F7"/>
<path fill-rule="evenodd" clip-rule="evenodd" d="M77.4923 135.858C77.5502 136.098 77.7239 136.314 77.9585 136.402C78.1931 136.504 78.4598 136.478 78.6776 136.352C82.8934 133.778 87.9274 135.934 92.9096 139.89C100.773 146.14 108.418 157.057 112.503 163.409C119.445 174.2 130.006 178.827 137.382 183.417C144.456 187.817 147.591 196.832 147.591 196.832C147.703 197.149 148 197.365 148.337 197.365C148.673 197.365 148.972 197.162 149.086 196.844C150.703 192.368 149.15 187.867 146.054 183.772C141.602 177.876 133.958 172.817 128.743 169.888C120.286 165.159 118.759 160.176 111.114 149.538C104.679 140.587 94.9253 133.257 88.2062 130.316C86.4129 129.53 84.8238 129.061 83.5592 128.935C82.5887 128.833 81.7858 128.935 81.1809 129.213C76.3862 131.407 77.4908 135.858 77.4908 135.858H77.4923ZM78.993 134.412C79.0875 133.321 79.6253 131.661 81.8437 130.646C82.2383 130.468 82.7655 130.444 83.3977 130.507C84.5359 130.621 85.9589 131.065 87.5709 131.774C94.101 134.627 103.572 141.766 109.825 150.463C117.662 161.367 119.294 166.426 127.966 171.269C133.029 174.11 140.466 179.003 144.787 184.722C147.006 187.664 148.405 190.821 148.11 194.004C146.627 190.872 143.42 185.305 138.22 182.06C131.004 177.571 120.627 173.109 113.836 162.546C109.683 156.092 101.893 144.999 93.8953 138.647C88.7471 134.551 83.4831 132.459 78.99 134.412H78.993Z" fill="#553597"/>
<path fill-rule="evenodd" clip-rule="evenodd" d="M211.011 102.865C211.011 102.865 220.217 93.7361 221.513 92.7213C222.881 91.6562 227.301 87.3199 228.094 81.7786C228.156 81.348 227.854 80.9539 227.42 80.8915C226.988 80.8276 226.585 81.1319 226.523 81.564C225.804 86.5728 221.775 90.5029 220.534 91.4797C219.22 92.5067 209.891 101.75 209.891 101.75C209.58 102.054 209.579 102.549 209.888 102.865C210.196 103.169 210.699 103.182 211.011 102.865Z" fill="#553597"/>
</g>
<defs>
<clipPath id="clip0_36_17052">
<rect width="367.615" height="323.864" fill="white" transform="translate(35.8145 3.51364)"/>
</clipPath>
</defs>
</svg>
