<svg width="56" height="52" viewBox="0 0 56 52" fill="none" xmlns="http://www.w3.org/2000/svg">
<path d="M34.2151 29.6269C35.1544 32.2101 38.8209 32.161 40.706 31.7886C40.826 31.7649 40.9512 31.7706 41.0679 31.807C45.2448 33.1121 47.9861 32.8536 49.7251 31.7503M17.228 6.26961C16.0146 5.05625 18.6317 3.1092 19.0482 2.93314C26.4021 -0.175505 28.4814 5.41463 28.7289 6.18428C28.7476 6.24271 28.7644 6.32579 28.8165 6.29344C29.3384 5.96967 33.1172 0.584824 37.4698 4.67096C37.7017 4.88865 38.0475 4.94558 38.3282 4.79598C41.4465 3.13399 47.0284 1.31962 49.6163 11.8804C49.6829 12.1521 49.9066 12.3644 50.1732 12.4491C52.5705 13.2113 55.9878 16.9252 52.0916 21.1428C51.9224 21.326 51.8515 21.5844 51.9126 21.8261C52.7387 25.0933 52.8378 29.7754 49.7251 31.7503M17.228 6.26961C18.4413 7.48298 17.8346 6.77518 17.228 6.26961ZM17.228 6.26961C15.3068 4.24734 6.30781 4.75572 7.52117 12.9459M5.09439 20.2233C3.47661 19.92 0.726372 20.8907 2.66771 27.2002C4.04351 30.4431 8.41828 36.2648 15.1237 34.3618C15.4608 34.2662 15.823 34.4162 16.0007 34.7183C17.4555 37.1915 21.1708 40.4227 26.6789 37.0671C26.8412 36.9683 27.0395 36.9332 27.2238 36.9793L31.1884 37.9705C31.53 38.0559 31.7498 38.3839 31.7312 38.7354C31.6088 41.0524 32.4269 44.631 36.642 44.1873C39.1036 44.0926 43.6042 45.0263 43.1711 49.3292C43.1244 49.7925 43.484 50.2216 43.9485 50.1896L51.234 49.6871C51.5669 49.6642 51.8376 49.407 51.8549 49.0738C51.9941 46.3895 51.2519 41.6321 47.4409 39.2915C46.9819 39.0096 46.9054 38.3184 47.3117 37.9649C49.1062 36.4036 51.18 33.791 49.7251 31.7503" stroke="#6F46BE" stroke-width="3" stroke-linecap="round"/>
<path d="M33.9119 29.629C36.4397 32.258 42.1021 33.5724 41.4954 25.6855M24.5083 32.9657C26.3284 36.9092 30.8785 38.7292 37.2487 36.3025M32.3952 37.5159C36.642 41.156 42.7088 41.7627 47.8656 37.5159" stroke="#6F46BE" stroke-width="3" stroke-linecap="round"/>
<path d="M9.74406 26.1844C10.3026 29.7885 14.4981 31.7536 16.6215 27.5065" stroke="#6F46BE" stroke-width="3" stroke-linecap="round"/>
<path d="M7.6801 13.0863C4.03369 13.0149 1.3743 16.8085 5.19156 19.6327" stroke="#6F46BE" stroke-width="3" stroke-linecap="round"/>
<path d="M14.4414 30.1582C14.9999 33.7623 15.4079 33.2698 15.7112 34.4832" stroke="#6F46BE" stroke-width="3" stroke-linecap="round"/>
</svg>
