<svg width="270" height="177" viewBox="0 0 270 177" fill="none" xmlns="http://www.w3.org/2000/svg">
<g clip-path="url(#clip0_2173_1862)">
<path d="M266.829 68.1126C270.27 77.9723 268.811 88.3587 263.729 96.6051C263.408 96.6646 263.079 96.7778 262.746 96.9301C263.044 94.9004 262.826 93.1638 261.712 92.1163C260.669 91.1341 259.28 91.4344 257.901 92.2527C257.816 91.3938 257.535 90.6524 257.005 90.075C255.735 88.6866 253.928 89.1886 252.139 90.3797C249.453 84.9841 243.07 82.3132 237.177 84.3704C231.336 86.4088 228.007 92.3891 229.179 98.2416V98.246C224.972 100.44 220.113 102.571 214.951 105.499C210.001 101.684 206.066 96.4325 203.851 90.091C197.782 72.7015 206.96 53.6843 224.349 47.6141C241.739 41.541 260.76 50.7189 266.829 68.1126ZM246.327 73.4284C247.635 72.9714 247.923 70.3875 246.973 67.6556C246.018 64.9238 244.182 63.0783 242.873 63.5353C241.566 63.9923 241.277 66.5762 242.227 69.3081C243.182 72.04 245.016 73.8854 246.327 73.4284ZM223.206 81.4993C224.517 81.0423 224.806 78.454 223.851 75.7236C222.897 72.9917 221.063 71.1506 219.756 71.6076C218.444 72.0646 218.156 74.6485 219.11 77.3804C220.065 80.1123 221.899 81.9577 223.206 81.5007V81.4993Z" fill="#553597"/>
<path d="M248.164 93.7703L248.289 93.8109C249.392 92.627 250.76 91.2995 252.139 90.3812C253.928 89.19 255.733 88.6881 257.005 90.0765C257.535 90.6539 257.816 91.3967 257.901 92.2542C259.28 91.4359 260.669 91.1356 261.712 92.1178C262.827 93.1653 263.044 94.9019 262.746 96.9316C263.078 96.7792 263.408 96.6675 263.728 96.6066C264.51 96.4455 265.249 96.579 265.863 97.1564C270.367 101.393 265.974 117.162 242.937 133.395C228.075 143.868 226.923 156.071 226.759 165.128C226.702 168.258 223.048 170.556 217.758 171.751C202.912 175.104 191.339 163.965 192.053 148.144C192.1 147.057 192.209 145.946 192.378 144.818C192.434 144.434 194.062 132.916 198.483 122.836C200.705 117.754 203.642 113.036 207.436 110.292C209.983 108.451 212.502 106.883 214.949 105.499C220.111 102.571 224.97 100.44 229.177 98.246V98.2417C231.853 96.846 234.26 95.4213 236.318 93.7456C243.202 88.1338 245.934 86.1433 247.948 88.0816C248.982 89.0769 248.987 91.2139 248.164 93.7703Z" fill="white"/>
<path d="M252.139 90.3811C250.76 91.2995 249.392 92.627 248.289 93.8108L248.164 93.7702C248.987 91.2154 248.982 89.0769 247.948 88.0816C245.934 86.1448 243.202 88.1338 236.318 93.7456C234.261 95.4227 231.854 96.846 229.177 98.2416C228.007 92.3891 231.336 86.4074 237.176 84.3704C243.069 82.3132 249.451 84.9841 252.138 90.3797L252.139 90.3811Z" fill="#553597"/>
<path d="M246.973 67.6556C247.923 70.3875 247.635 72.9714 246.327 73.4284C245.016 73.8854 243.182 72.04 242.227 69.3081C241.277 66.5762 241.566 63.9923 242.873 63.5353C244.18 63.0783 246.018 64.9237 246.973 67.6556Z" fill="#EDE3FF"/>
<path d="M223.851 75.7236C224.806 78.4555 224.517 81.0423 223.206 81.4993C221.899 81.9563 220.065 80.1109 219.11 77.379C218.156 74.6471 218.444 72.0632 219.756 71.6062C221.063 71.1492 222.897 72.9903 223.851 75.7222V75.7236Z" fill="#EDE3FF"/>
<path d="M198.483 122.836C197.046 126.109 195.906 129.531 195.018 132.678C194.222 135.504 193.628 138.103 193.206 140.164C192.652 142.88 192.399 144.669 192.376 144.819C192.208 145.946 192.101 147.057 192.053 148.144C186.923 149.46 181.916 150.587 177.043 151.54C176.554 144.543 176.368 138.286 176.368 132.835C176.368 122.679 177.006 115.335 177.473 111.313C184.745 114.211 192.325 116.93 198.483 122.837V122.836Z" fill="#A78ED7"/>
<path d="M96.4138 66.3325C94.5248 69.446 90.9906 76.5651 92.8752 83.6291H83.8773C82.4134 77.9767 83.0387 67.7195 92.4574 58.7549C101.876 49.7904 97.7529 42.8453 94.7598 21.0527C89.7255 -15.6151 138.637 6.52719 152.551 13.5114C156.161 15.3249 159.515 17.6186 162.443 20.4027C179.351 36.4966 166.595 52.1682 177.217 61.6522C188.938 72.1183 186.01 83.6305 186.01 83.6305H152.211C147.81 63.3845 153.815 57.3114 134.432 41.7355C133.85 41.2698 133.241 40.7881 132.611 40.3035C131.596 39.5215 130.63 38.7468 129.711 37.9924C121.368 31.1126 116.851 25.3326 114.5 21.5982L114.227 21.7709C111.079 24.8234 105.771 31.751 104.933 44.315C103.858 60.4567 104.383 72.1096 117.42 80.417C118.824 81.3121 120.072 82.3988 121.131 83.6305H102.085C97.7209 76.7305 96.5052 70.7053 96.4123 66.334L96.4138 66.3325ZM157.587 56.4438C160.78 56.0782 162.91 51.7707 162.344 46.8206C161.783 41.866 158.738 38.1433 155.544 38.5089C152.356 38.8701 150.226 43.1819 150.787 48.1321C151.353 53.0866 154.394 56.8094 157.587 56.4438Z" fill="#553597"/>
<path d="M177.472 111.312C177.006 115.335 176.369 122.676 176.369 132.833C176.369 138.286 176.554 144.543 177.044 151.539C175.167 151.907 173.314 152.248 171.48 152.566C169.812 129.705 171.344 114.555 172.086 109.046C173.843 109.848 175.648 110.587 177.473 111.312H177.472Z" fill="#6F46BE"/>
<path d="M171.479 152.566C169.149 152.968 166.851 153.33 164.589 153.658C162.104 154.018 159.656 154.333 157.255 154.604C143.152 156.212 130.503 156.412 119.605 155.871C116.465 155.713 113.474 155.495 110.632 155.232C108.292 155.015 106.056 154.765 103.926 154.497C102.043 136.433 103.054 123.309 103.949 116.539C107.125 114.939 110.151 113.442 112.783 111.969C114.514 111 116.033 109.979 117.359 108.907C122.34 112.76 136.395 119.096 168.484 107.254C169.654 107.893 170.856 108.486 172.085 109.043C171.342 114.552 169.81 129.703 171.479 152.566Z" fill="#A78ED7"/>
<path d="M162.344 46.8206C162.91 51.7708 160.78 56.0782 157.587 56.4438C154.394 56.8094 151.353 53.0867 150.787 48.1321C150.226 43.182 152.355 38.8702 155.544 38.5089C158.738 38.1433 161.781 41.8661 162.344 46.8206Z" fill="white"/>
<path d="M153.151 87.5318C155.946 98.1416 161.671 103.533 168.483 107.256C136.395 119.097 122.34 112.759 117.358 108.908C122.131 105.045 124.401 100.573 124.971 95.9915C125.533 91.4504 124.044 87.0023 121.133 83.6291C120.074 82.3974 118.826 81.3107 117.421 80.4156C104.384 72.1082 103.859 60.4553 104.934 44.3136C105.773 31.7496 111.08 24.822 114.228 21.7694L114.501 21.5968C116.851 25.3312 121.369 31.1112 129.713 37.991C127.803 37.8024 126.299 38.1796 126.122 38.9819C125.901 39.9641 127.758 41.2161 130.27 41.7703C131.967 42.1475 133.527 42.1113 134.425 41.7428L134.434 41.7341C153.816 57.31 147.812 63.3831 152.212 83.6291C152.485 84.8725 152.794 86.1724 153.151 87.5318ZM131.554 47.2747C131.554 45.9109 130.976 44.804 130.263 44.804C129.549 44.804 128.974 45.9109 128.974 47.2747C128.974 48.6385 129.552 49.7454 130.263 49.7454C130.973 49.7454 131.554 48.6385 131.554 47.2747ZM110.574 41.7703C113.081 41.2161 114.938 39.9699 114.717 38.9819C114.501 37.9997 112.29 37.6544 109.783 38.2071C107.272 38.7642 105.415 40.0119 105.635 40.9956C105.851 41.9821 108.062 42.3274 110.574 41.7703ZM111.469 47.2747C111.469 45.9109 110.891 44.804 110.178 44.804C109.464 44.804 108.886 45.9109 108.886 47.2747C108.886 48.6385 109.464 49.7454 110.178 49.7454C110.891 49.7454 111.469 48.6385 111.469 47.2747Z" fill="white"/>
<path d="M134.433 41.734L134.425 41.7427C133.527 42.1112 131.966 42.1475 130.27 41.7703C127.758 41.2161 125.901 39.9655 126.122 38.9818C126.299 38.1795 127.803 37.8023 129.713 37.9909C130.631 38.7454 131.599 39.5186 132.613 40.3021C133.242 40.7881 133.852 41.2683 134.433 41.734Z" fill="#553597"/>
<path d="M130.262 44.804C130.976 44.804 131.554 45.9109 131.554 47.2747C131.554 48.6384 130.976 49.7454 130.262 49.7454C129.549 49.7454 128.974 48.6384 128.974 47.2747C128.974 45.9109 129.552 44.804 130.262 44.804Z" fill="#553597"/>
<path d="M114.718 38.9832C114.939 39.9698 113.082 41.2175 110.575 41.7717C108.064 42.3288 105.854 41.985 105.636 40.997C105.416 40.0148 107.273 38.7671 109.784 38.2085C112.291 37.6543 114.502 37.9996 114.718 38.9832Z" fill="#553597"/>
<path d="M110.177 49.7454C110.891 49.7454 111.469 48.6392 111.469 47.2747C111.469 45.9101 110.891 44.804 110.177 44.804C109.464 44.804 108.886 45.9101 108.886 47.2747C108.886 48.6392 109.464 49.7454 110.177 49.7454Z" fill="#553597"/>
<path d="M103.948 116.539C103.053 123.31 102.043 136.436 103.927 154.498C101.922 154.242 100.012 153.969 98.1996 153.68C96.7154 138.638 97.1768 127.088 97.9109 119.656C99.9406 118.565 101.97 117.533 103.948 116.539Z" fill="#6F46BE"/>
<path d="M98.1997 153.681C91.2677 152.586 85.7721 151.306 81.8984 150.259C81.7199 148.946 81.4515 147.611 81.0845 146.256C81.0235 146.03 80.9583 145.799 80.8901 145.569C80.8538 145.452 80.5274 144.308 79.918 142.506C79.4001 140.964 78.6703 138.938 77.7534 136.663C81.7228 129.317 89.7705 124.031 97.911 119.653C97.1754 127.087 96.7155 138.637 98.1997 153.68V153.681Z" fill="#A78ED7"/>
<path d="M18.5848 102.716C17.9915 101.493 17.6259 100.341 17.5258 99.3631C17.4213 98.4041 17.5736 97.6105 18.0118 97.0519C19.7411 94.854 22.7211 96.4499 30.3147 101.055C36.4966 104.805 45.0244 106.35 54.7158 110.401C56.8297 111.283 58.9957 112.283 61.2068 113.453C68.8525 117.505 74.5165 128.64 77.7533 136.663C79.7467 141.598 80.8261 145.357 80.8899 145.569C81.3585 147.157 81.6922 148.725 81.9011 150.258C83.9395 165.156 74.1669 176.977 59.473 175.745C54.0659 175.296 50.1313 173.523 49.6409 170.434C48.2293 161.484 45.4002 149.555 29.2352 141.235C4.17684 128.34 -2.35471 113.33 1.52476 108.512C2.27048 107.585 3.37745 107.501 4.58162 107.858C4.0042 105.892 3.97953 104.139 4.93852 102.948C5.83657 101.832 7.25256 101.937 8.73384 102.559C8.69757 101.697 8.87457 100.923 9.31997 100.277C11.2089 97.538 15.5817 100.425 18.4702 102.772L18.5863 102.716H18.5848Z" fill="white"/>
<path d="M51.4792 46.4085C69.4097 50.6289 80.5215 68.5871 76.2982 86.5148C73.5779 98.0676 65.1589 106.788 54.7174 110.402C45.026 106.35 36.4981 104.807 30.3162 101.056C22.7226 96.4514 19.7427 94.854 18.0133 97.0534C17.5766 97.6106 17.4243 98.4056 17.5273 99.3646C11.5427 91.6753 8.9675 81.4456 11.3744 71.229C15.5948 53.2984 33.5529 42.1867 51.4806 46.41L51.4792 46.4085ZM59.7938 75.4625C60.4597 72.6465 59.9026 70.1075 58.5504 69.7869C57.2026 69.4706 55.5704 71.496 54.9045 74.312C54.243 77.128 54.8001 79.6713 56.1479 79.9876C57.5 80.3038 59.1322 78.2785 59.7938 75.4625ZM35.9584 69.8507C36.6243 67.0347 36.0672 64.4914 34.715 64.1752C33.3672 63.8589 31.7351 65.8842 31.0721 68.7002C30.4061 71.5163 30.9632 74.0552 32.3154 74.3758C33.6632 74.6921 35.2954 72.6668 35.9584 69.8507Z" fill="#A78ED7"/>
<path d="M58.5505 69.7855C59.9026 70.1061 60.4597 72.645 59.7938 75.461C59.1322 78.2771 57.4986 80.3024 56.1479 79.9861C54.8001 79.6698 54.243 77.1266 54.9046 74.3105C55.5705 71.4945 57.2027 69.4692 58.5505 69.7855Z" fill="#553597"/>
<path d="M34.715 64.1738C36.0672 64.49 36.6243 67.0333 35.9584 69.8493C35.2968 72.6654 33.6632 74.6907 32.3154 74.3744C30.9632 74.0538 30.4061 71.5149 31.072 68.6988C31.7336 65.8828 33.3672 63.8575 34.715 64.1738Z" fill="#553597"/>
<path d="M114.933 117.233L107.646 129.855H122.221L114.933 117.233Z" fill="white"/>
<path d="M161.195 117.233L153.906 129.855H168.483L161.195 117.233Z" fill="white"/>
<path d="M119.605 155.872C116.465 155.714 113.474 155.496 110.632 155.234L114.935 147.78L119.605 155.872Z" fill="white"/>
<path d="M164.589 153.658C162.103 154.018 159.656 154.333 157.255 154.604L161.195 147.78L164.589 153.658Z" fill="white"/>
<path d="M92.3282 146.256H81.0859C81.025 146.03 80.9597 145.799 80.8915 145.569C80.8552 145.453 80.5288 144.308 79.9194 142.506L85.0394 133.633L92.3282 146.255V146.256Z" fill="white"/>
<path d="M195.018 132.678C194.221 135.504 193.628 138.103 193.206 140.164H184.764L192.053 127.542L195.018 132.678Z" fill="white"/>
<path d="M137.557 149.952L144.845 137.329H130.27L137.557 149.952Z" fill="white"/>
<path d="M157.149 56.9559C155.604 56.9559 154.085 56.1304 152.827 54.5911C151.485 52.9503 150.59 50.6768 150.306 48.1887C150.024 45.702 150.385 43.2864 151.325 41.3858C152.3 39.4142 153.78 38.2216 155.492 38.0272C157.206 37.8313 158.918 38.6612 160.309 40.363C161.651 42.0039 162.546 44.2788 162.829 46.7669C163.424 51.9753 161.098 56.5338 157.644 56.9284C157.478 56.9472 157.314 56.9559 157.149 56.9559ZM155.98 38.9702C155.853 38.9702 155.727 38.9775 155.601 38.992C154.229 39.1472 153.02 40.1497 152.196 41.8153C151.339 43.5504 151.009 45.7745 151.27 48.077C151.533 50.3823 152.353 52.4758 153.579 53.9745C154.754 55.4123 156.158 56.1188 157.532 55.9607C160.454 55.627 162.397 51.5517 161.861 46.8757C161.6 44.5718 160.78 42.4768 159.556 40.9782C158.488 39.6724 157.23 38.9702 155.98 38.9702Z" fill="#553597"/>
<path d="M165.192 70.2236C165.108 70.2236 165.024 70.2018 164.946 70.1569C157.787 65.9466 154.178 60.184 152.411 56.0912C150.493 51.6518 150.274 48.2482 150.266 48.1045C150.25 47.8361 150.455 47.6069 150.723 47.5909C150.99 47.5764 151.221 47.7795 151.237 48.0479C151.238 48.0813 151.46 51.453 153.32 55.743C155.031 59.6907 158.523 65.2502 165.439 69.3183C165.671 69.4547 165.748 69.7521 165.611 69.9842C165.522 70.138 165.359 70.2236 165.192 70.2236Z" fill="#553597"/>
<path d="M154.394 50.1067H154.392C154.124 50.1067 153.908 49.8876 153.908 49.6207C153.908 49.5394 153.922 47.6041 154.825 45.7949C155.514 44.421 156.518 43.4954 157.81 43.0427C158.063 42.9528 158.341 43.0862 158.43 43.3401C158.518 43.594 158.385 43.8711 158.132 43.9596C157.086 44.3267 156.265 45.0913 155.694 46.2301C154.896 47.8289 154.878 49.6062 154.878 49.6236C154.878 49.8905 154.659 50.1082 154.392 50.1082L154.394 50.1067Z" fill="#553597"/>
<path d="M159.185 49.0882C158.984 49.0882 158.796 48.9634 158.726 48.7632C158.684 48.6457 157.727 46.0299 155.354 46.4884C155.09 46.5406 154.836 46.3665 154.786 46.1039C154.735 45.8398 154.908 45.586 155.17 45.5352C157.732 45.0404 159.218 47.221 159.644 48.4441C159.733 48.6979 159.599 48.975 159.346 49.0635C159.292 49.0824 159.238 49.0911 159.186 49.0911L159.185 49.0882Z" fill="#553597"/>
<path d="M198.484 123.323C198.364 123.323 198.242 123.278 198.148 123.188C192.513 117.781 185.595 115.048 178.905 112.403C178.367 112.19 177.829 111.978 177.292 111.765C175.659 111.115 173.738 110.336 171.882 109.488C170.604 108.908 169.381 108.3 168.249 107.684C159.933 103.14 155.132 96.9621 152.681 87.6566C152.341 86.3639 152.032 85.0814 151.738 83.7336C150.545 78.2481 150.116 73.8289 149.737 69.9291C148.733 59.5979 148.128 53.3623 134.129 42.1127C133.476 41.5904 132.883 41.1247 132.316 40.6866C131.367 39.9554 130.415 39.1966 129.404 38.3667C120.947 31.3941 116.409 25.5401 114.089 21.8551C113.497 20.912 112.978 19.9995 112.545 19.1391C112.425 18.8997 112.522 18.6067 112.762 18.4863C113.001 18.3659 113.294 18.4631 113.414 18.7024C113.834 19.5352 114.337 20.4217 114.912 21.3386C117.192 24.9612 121.665 30.7268 130.02 37.6167C131.023 38.4393 131.967 39.1922 132.907 39.9176C133.479 40.3587 134.078 40.8288 134.736 41.3554C149.054 52.8618 149.675 59.2512 150.703 69.8363C151.079 73.7085 151.505 78.0972 152.686 83.5261C152.979 84.8594 153.284 86.1289 153.621 87.4085C156.669 98.9758 163.289 103.864 168.715 106.829C169.826 107.434 171.028 108.03 172.285 108.602C174.122 109.441 176.028 110.214 177.652 110.859C178.187 111.073 178.724 111.284 179.262 111.498C186.039 114.176 193.048 116.946 198.821 122.485C199.014 122.67 199.021 122.978 198.835 123.172C198.739 123.273 198.612 123.322 198.484 123.322V123.323Z" fill="#553597"/>
<path d="M130.611 156.644C121.532 156.644 112.603 156.09 103.865 154.98C101.861 154.723 99.929 154.448 98.1213 154.159C92.2847 153.238 86.7846 152.083 81.7721 150.726C81.5124 150.657 81.3601 150.39 81.4297 150.13C81.4993 149.87 81.7677 149.716 82.026 149.788C87.0037 151.134 92.4704 152.281 98.2736 153.198C100.073 153.486 101.995 153.76 103.988 154.015C125.494 156.747 148.173 156.097 171.396 152.084C173.26 151.762 175.127 151.417 176.948 151.06C181.868 150.101 186.908 148.961 191.932 147.672C192.192 147.606 192.457 147.762 192.524 148.022C192.591 148.282 192.434 148.547 192.174 148.614C187.133 149.906 182.074 151.051 177.137 152.013C175.309 152.373 173.434 152.718 171.563 153.042C157.677 155.44 143.981 156.643 130.612 156.643L130.611 156.644Z" fill="#553597"/>
<path d="M77.7534 137.149C77.675 137.149 77.5967 137.131 77.5227 137.091C77.2862 136.964 77.1992 136.669 77.3268 136.433C81.5574 128.61 90.4262 123.129 97.6817 119.228C99.7259 118.129 101.798 117.078 103.73 116.104C104.192 115.872 104.649 115.643 105.103 115.413C107.779 114.069 110.308 112.798 112.548 111.544C114.222 110.608 115.737 109.594 117.053 108.529C121.384 105.024 123.886 100.786 124.49 95.9305C125.018 91.6666 123.66 87.2982 120.766 83.9453C119.724 82.7339 118.512 81.685 117.162 80.8246C110.929 76.8538 107.198 71.9616 105.417 65.4286C103.827 59.5935 103.868 53.0097 104.45 44.2802C105.301 31.5275 110.73 24.4839 113.89 21.4197C114.083 21.2326 114.391 21.2369 114.578 21.4299C114.765 21.6229 114.759 21.9304 114.568 22.1176C111.508 25.0845 106.249 31.9178 105.42 44.3455C104.379 59.9852 104.649 71.699 117.684 80.0049C119.115 80.916 120.399 82.0288 121.503 83.3113C124.575 86.8716 126.016 91.5142 125.456 96.0509C124.821 101.165 122.199 105.618 117.665 109.285C116.307 110.385 114.745 111.43 113.024 112.391C110.765 113.655 108.228 114.93 105.541 116.281C105.087 116.509 104.63 116.739 104.168 116.972C102.24 117.941 100.177 118.99 98.1431 120.082C91.008 123.918 82.2901 129.298 78.1828 136.894C78.0943 137.057 77.9275 137.149 77.7548 137.149H77.7534Z" fill="#553597"/>
<path d="M119.68 59.241C119.625 59.241 119.567 59.2308 119.512 59.2105C118.378 58.7927 117.68 58.2297 117.378 57.4869C116.904 56.319 117.513 55.0423 118.157 53.6887L118.173 53.6539C119.136 51.6373 119.07 49.506 119.068 49.4857C119.058 49.2173 119.267 48.9924 119.535 48.9823C119.801 48.9707 120.029 49.181 120.04 49.448C120.045 49.5437 120.121 51.8317 119.051 54.0732L119.035 54.108C118.485 55.2614 117.966 56.3509 118.277 57.1199C118.47 57.5943 118.984 57.9787 119.847 58.2979C120.1 58.3908 120.229 58.6693 120.136 58.9218C120.063 59.1176 119.878 59.2395 119.68 59.2395V59.241Z" fill="#553597"/>
<path d="M121.662 65.1864C118.938 65.1864 117.594 64.3725 117.513 64.3203C117.285 64.1781 117.217 63.8778 117.359 63.65C117.501 63.4237 117.8 63.354 118.026 63.4948C118.067 63.5194 120.806 65.1182 126.535 63.4411C126.792 63.3656 127.064 63.5136 127.139 63.7704C127.214 64.0287 127.066 64.2985 126.81 64.374C124.738 64.9804 123.027 65.185 121.664 65.185L121.662 65.1864Z" fill="#553597"/>
<path d="M121.952 67.9415C120.507 67.9415 119.783 67.5004 119.738 67.4729C119.511 67.3292 119.442 67.0304 119.586 66.8026C119.728 66.5777 120.026 66.5081 120.252 66.6474C120.285 66.6662 121.59 67.3945 124.31 66.5951C124.567 66.5197 124.838 66.6662 124.913 66.9245C124.989 67.1827 124.841 67.4526 124.584 67.528C123.534 67.837 122.657 67.9415 121.954 67.9415H121.952Z" fill="#553597"/>
<path d="M132.556 42.5247C131.819 42.5247 131.002 42.4318 130.165 42.2461C128.163 41.8051 126.48 40.9085 125.88 39.964C125.59 39.5084 125.594 39.1211 125.649 38.8773C125.884 37.8066 127.461 37.2814 129.761 37.5092C130.028 37.5353 130.223 37.7733 130.197 38.0402C130.171 38.3072 129.935 38.503 129.666 38.4754C127.793 38.2912 126.681 38.7119 126.599 39.0877C126.573 39.2067 126.64 39.3459 126.701 39.4417C127.072 40.0264 128.382 40.8562 130.376 41.2958C131.921 41.6397 133.402 41.6382 134.242 41.2929C134.49 41.1914 134.775 41.3089 134.876 41.5584C134.978 41.8065 134.86 42.0909 134.611 42.1924C134.072 42.4129 133.362 42.5247 132.556 42.5247Z" fill="#553597"/>
<path d="M108.28 42.5261C107.253 42.5261 106.388 42.3448 105.829 41.9879C105.375 41.6977 105.214 41.3452 105.16 41.1014C105.105 40.8577 105.102 40.4718 105.39 40.0177C105.989 39.0746 107.67 38.178 109.677 37.7326C110.948 37.4512 112.194 37.383 113.183 37.5382C114.327 37.7167 115.04 38.1926 115.191 38.8773C115.247 39.1211 115.249 39.5084 114.959 39.9654C114.35 40.923 112.709 41.7964 110.678 42.2447C109.831 42.4333 109.012 42.5261 108.278 42.5261H108.28ZM112.061 38.429C111.392 38.429 110.649 38.5146 109.889 38.6829C107.891 39.1269 106.582 39.9567 106.212 40.54C106.151 40.6357 106.085 40.7735 106.111 40.8896C106.111 40.8896 106.111 40.8896 106.111 40.8925C106.137 41.01 106.257 41.1072 106.353 41.1696C106.936 41.541 108.471 41.7398 110.469 41.2958C112.462 40.8562 113.77 40.0278 114.141 39.4432C114.202 39.3459 114.27 39.2067 114.244 39.0877C114.202 38.8962 113.86 38.6278 113.035 38.4987C112.737 38.4522 112.409 38.429 112.062 38.429H112.061Z" fill="#553597"/>
<path d="M121.133 84.1151H102.086C101.818 84.1151 101.6 83.8975 101.6 83.6291C101.6 83.3607 101.818 83.1431 102.086 83.1431H121.133C121.401 83.1431 121.619 83.3607 121.619 83.6291C121.619 83.8975 121.401 84.1151 121.133 84.1151Z" fill="#553597"/>
<path d="M186.011 84.1151H152.212C151.944 84.1151 151.726 83.8974 151.726 83.629C151.726 83.3606 151.944 83.143 152.212 83.143H185.615C185.775 82.2508 186.093 79.8047 185.524 76.5984C184.862 72.8684 182.827 67.3089 176.896 62.0134C172.04 57.6784 171.91 51.9781 171.77 45.9442C171.593 38.2781 171.395 29.5892 162.111 20.7538C159.299 18.0814 156.01 15.7906 152.335 13.9451C147.217 11.3757 137.086 6.62144 126.746 3.64293C114.206 0.0304064 105.227 0.0739307 100.06 3.7706C95.7217 6.87388 94.1011 12.667 95.2444 20.9859C95.8726 25.5618 96.5487 29.4645 97.1435 32.9087C99.3937 45.9138 100.421 51.849 92.7954 59.1074C84.2269 67.2624 82.7602 76.7943 84.2603 83.1445H92.8767C93.1451 83.1445 93.3627 83.3621 93.3627 83.6305C93.3627 83.8989 93.1451 84.1165 92.8767 84.1165H83.8787C83.6568 84.1165 83.4638 83.9671 83.4087 83.7524C82.8907 81.7546 82.2292 77.6096 83.6176 72.3127C84.9639 67.1754 87.8264 62.4951 92.1237 58.4038C99.3734 51.5037 98.3738 45.728 96.1845 33.0741C95.5868 29.6226 94.9107 25.7112 94.2796 21.1179C93.0841 12.4131 94.8382 6.30952 99.4924 2.9799C104.915 -0.899563 114.175 -0.990965 127.014 2.7086C137.43 5.71033 147.623 10.4922 152.77 13.0761C156.531 14.9651 159.898 17.311 162.78 20.0501C172.355 29.1641 172.56 38.0678 172.741 45.9225C172.88 51.9926 173.002 57.2344 177.542 61.288C183.7 66.7866 185.807 72.5855 186.489 76.4809C187.232 80.7216 186.513 83.6276 186.482 83.7494C186.426 83.9642 186.232 84.1151 186.01 84.1151H186.011Z" fill="#553597"/>
<path d="M92.8752 84.1151C92.6604 84.1151 92.4631 83.9715 92.4065 83.7539C90.4392 76.3838 94.2636 68.9382 95.9988 66.0787C96.138 65.8494 96.4369 65.7769 96.6661 65.9147C96.8954 66.054 96.9693 66.3529 96.8301 66.5821C95.1587 69.3343 91.4751 76.4926 93.3467 83.5014C93.4163 83.7611 93.2611 84.0266 93.0028 84.0963C92.9608 84.1079 92.9187 84.1122 92.8766 84.1122L92.8752 84.1151Z" fill="#553597"/>
<path d="M102.086 84.1151C101.925 84.1151 101.767 84.0353 101.674 83.8887C97.9835 78.0536 96.0496 72.1502 95.9277 66.3426C95.8305 61.6478 96.9839 58.8376 97.0318 58.7201C97.1348 58.472 97.4191 58.3559 97.6672 58.4589C97.9153 58.5619 98.0314 58.8463 97.9284 59.0944C97.9167 59.122 96.8054 61.8509 96.8983 66.318C97.0172 71.95 98.9004 77.6865 102.496 83.3694C102.639 83.5957 102.571 83.896 102.345 84.0396C102.263 84.0904 102.173 84.1151 102.085 84.1151H102.086Z" fill="#553597"/>
<path d="M136.312 114.578C135.084 114.578 133.887 114.536 132.72 114.453C124.532 113.864 119.683 111.324 117.06 109.294C116.848 109.13 116.809 108.824 116.973 108.612C117.137 108.4 117.443 108.361 117.655 108.525C120.174 110.472 124.844 112.912 132.791 113.482C142.464 114.177 154.416 111.93 168.314 106.8C168.565 106.707 168.845 106.836 168.938 107.087C169.031 107.34 168.902 107.618 168.651 107.711C156.287 112.274 145.432 114.576 136.312 114.576V114.578Z" fill="#553597"/>
<path d="M98.1982 154.166C97.9516 154.166 97.7398 153.979 97.7151 153.728C96.2034 138.412 96.7242 126.72 97.4264 119.608C97.4525 119.341 97.6904 119.145 97.9574 119.173C98.2243 119.199 98.4202 119.437 98.3941 119.704C97.6963 126.772 97.1798 138.396 98.6828 153.632C98.7089 153.899 98.5145 154.137 98.2461 154.163C98.2301 154.165 98.2142 154.166 98.1982 154.166Z" fill="#553597"/>
<path d="M103.927 154.984C103.682 154.984 103.47 154.799 103.444 154.549C101.521 136.122 102.632 122.785 103.466 116.475C103.501 116.21 103.746 116.021 104.012 116.058C104.277 116.092 104.464 116.338 104.429 116.603C103.601 122.871 102.498 136.121 104.411 154.449C104.438 154.716 104.245 154.955 103.978 154.983C103.961 154.984 103.943 154.986 103.927 154.986V154.984Z" fill="#553597"/>
<path d="M177.042 152.023C176.79 152.023 176.575 151.827 176.558 151.571C176.11 145.168 175.883 138.863 175.883 132.832C175.883 122.904 176.485 115.62 176.99 111.255C177.021 110.989 177.262 110.796 177.529 110.829C177.795 110.859 177.987 111.1 177.955 111.367C177.453 115.705 176.855 122.952 176.855 132.832C176.855 138.841 177.082 145.123 177.529 151.502C177.547 151.771 177.346 152.003 177.077 152.022C177.066 152.022 177.054 152.022 177.042 152.022V152.023Z" fill="#553597"/>
<path d="M171.479 153.05C171.226 153.05 171.013 152.856 170.994 152.599C169.323 129.708 170.864 114.469 171.603 108.979C171.64 108.714 171.883 108.525 172.15 108.563C172.416 108.599 172.603 108.843 172.567 109.11C171.831 114.569 170.299 129.729 171.965 152.528C171.984 152.796 171.783 153.029 171.515 153.049C171.503 153.049 171.49 153.049 171.479 153.049V153.05Z" fill="#553597"/>
<path d="M54.7159 110.887C54.5143 110.887 54.3257 110.761 54.256 110.559C54.169 110.305 54.3025 110.028 54.5563 109.941C65.2764 106.23 73.2268 97.4307 75.8238 86.4016C77.8375 77.8578 76.4012 69.0412 71.7818 61.5753C67.1624 54.1095 59.9127 48.8909 51.366 46.8801C42.8222 44.8663 34.0056 46.3027 26.5397 50.922C19.0739 55.5414 13.8553 62.7911 11.8445 71.3378C9.55365 81.0626 11.7632 91.169 17.9089 99.0643C17.9292 99.0904 17.948 99.1194 17.9625 99.1499C18.0554 99.3327 18.0264 99.5619 17.8726 99.7143C17.6825 99.9043 17.375 99.9043 17.1849 99.7143C17.1617 99.691 17.1399 99.6649 17.1225 99.6374C10.81 91.5128 8.54243 81.1192 10.8985 71.1159C12.9689 62.3182 18.3427 54.8523 26.0291 50.0965C33.7154 45.3408 42.7917 43.8624 51.5894 45.9356C60.3872 48.0059 67.853 53.3797 72.6088 61.0661C77.3645 68.7525 78.8429 77.8288 76.7697 86.6265C74.0959 97.982 65.9118 107.042 54.8741 110.862C54.8218 110.881 54.7682 110.89 54.7145 110.89L54.7159 110.887Z" fill="#553597"/>
<path d="M42.6001 96.933C41.6309 96.933 40.6458 96.8228 39.6622 96.5907C36.3529 95.8116 33.5427 93.8022 31.7495 90.931C29.9548 88.0584 29.3934 84.6679 30.1666 81.3847C30.2276 81.1236 30.4902 80.9596 30.7513 81.0234C31.0125 81.0844 31.1749 81.347 31.1126 81.6081C30.3988 84.6374 30.9182 87.7654 32.5735 90.4174C34.2304 93.0695 36.8259 94.9266 39.8842 95.6462C46.1937 97.1304 52.5251 93.2509 53.9977 86.9979C54.0586 86.7367 54.3197 86.5742 54.5823 86.6366C54.8435 86.6976 55.006 86.9602 54.9436 87.2213C53.5784 93.0188 48.3584 96.9345 42.6001 96.9345V96.933Z" fill="#553597"/>
<path d="M214.949 105.986C214.846 105.986 214.742 105.953 214.653 105.885C209.459 101.882 205.564 96.476 203.392 90.252C200.414 81.7198 200.937 72.5376 204.865 64.3971C208.793 56.2581 215.656 50.1342 224.188 47.1557C232.72 44.1757 241.904 44.698 250.044 48.6254C258.185 52.5542 264.309 59.4179 267.287 67.9516C270.657 77.6082 269.511 88.1454 264.142 96.859C264.001 97.0868 263.702 97.1593 263.473 97.0172C263.244 96.8764 263.173 96.5776 263.315 96.3483C268.531 87.8843 269.645 77.6503 266.37 68.2708C263.477 59.9809 257.531 53.3144 249.622 49.4987C241.715 45.6831 232.796 45.1768 224.509 48.0711C216.22 50.9641 209.555 56.9109 205.74 64.8164C201.924 72.7219 201.416 81.64 204.309 89.9285C206.42 95.974 210.202 101.223 215.247 105.111C215.46 105.275 215.499 105.58 215.335 105.793C215.239 105.918 215.096 105.982 214.949 105.982V105.986Z" fill="#553597"/>
<path d="M229.177 98.7292C228.951 98.7292 228.748 98.5696 228.702 98.3389C227.473 92.1976 231.047 85.9969 237.016 83.9135C243.049 81.8069 249.724 84.4822 252.559 90.136C252.602 90.21 252.628 90.2956 252.628 90.3856C252.628 90.654 252.411 90.8716 252.142 90.8716C252.004 90.8716 251.88 90.8136 251.791 90.7207C251.756 90.6844 251.727 90.6438 251.704 90.5974C249.096 85.3614 242.919 82.8805 237.337 84.8304C231.822 86.7542 228.52 92.4791 229.655 98.1474C229.707 98.41 229.537 98.6668 229.273 98.719C229.241 98.7248 229.209 98.7292 229.177 98.7292Z" fill="#EDE3FF"/>
<path d="M19.0419 118.922C18.9186 118.922 18.7953 118.875 18.701 118.781C18.2831 118.369 8.4771 108.616 8.24787 102.577C8.2058 101.574 8.43212 100.707 8.9196 100C9.42448 99.2674 10.1151 98.8336 10.971 98.7117C12.8179 98.4477 15.4439 99.6852 18.7764 102.394C18.9853 102.564 19.0158 102.87 18.8475 103.077C18.6778 103.285 18.3716 103.317 18.1642 103.148C14.2847 99.9971 12.1868 99.5198 11.1089 99.6736C10.5242 99.7578 10.0701 100.045 9.72044 100.551C9.35484 101.081 9.18654 101.748 9.21991 102.538C9.43463 108.199 19.2856 117.99 19.3843 118.089C19.5758 118.277 19.5773 118.585 19.3886 118.776C19.2929 118.872 19.1681 118.922 19.0434 118.922H19.0419Z" fill="#553597"/>
<path d="M13.275 122.267C13.14 122.267 13.0051 122.211 12.9079 122.1C12.6221 121.772 5.89469 114.009 4.11599 107.996C3.42976 105.663 3.58064 103.861 4.55994 102.643C5.2099 101.837 6.49242 101.09 8.92108 102.111C9.16917 102.216 9.28523 102.5 9.18077 102.748C9.07631 102.995 8.79196 103.112 8.54387 103.008C6.2806 102.056 5.5552 102.957 5.31581 103.254C4.54688 104.21 4.45693 105.713 5.04596 107.723C6.76517 113.535 13.5695 121.385 13.6391 121.463C13.8161 121.667 13.7944 121.973 13.5927 122.15C13.5013 122.229 13.3867 122.27 13.2735 122.27L13.275 122.267Z" fill="#553597"/>
<path d="M61.5434 176.32C60.8485 176.32 60.1448 176.291 59.4325 176.231C53.4015 175.731 49.6569 173.646 49.1607 170.512C48.0523 163.485 45.9878 150.407 29.0119 141.67C10.0454 131.908 1.71632 121.015 0.245197 114.076C-0.275644 111.615 0.0348297 109.586 1.14615 108.207C1.70181 107.517 2.77396 106.814 4.7195 107.392C4.97629 107.469 5.12428 107.739 5.04738 107.997C4.97049 108.254 4.70064 108.402 4.44239 108.325C3.27884 107.979 2.44753 108.141 1.90202 108.818C0.993816 109.945 0.742825 111.741 1.19548 113.876C1.97311 117.549 4.69919 121.939 8.86882 126.239C13.9713 131.5 20.8975 136.401 29.4573 140.806C36.7752 144.572 41.9879 149.333 45.3944 155.362C48.2728 160.457 49.3682 165.581 50.1212 170.36C50.5419 173.015 53.9644 174.801 59.5137 175.262C66.0322 175.808 71.8848 173.727 75.9906 169.401C80.4562 164.696 82.4351 157.744 81.4195 150.324C81.2106 148.788 80.8755 147.236 80.4243 145.706L80.4069 145.647C80.0398 144.402 79.0039 141.055 77.3036 136.845C73.9522 128.54 68.3999 117.815 60.9791 113.883C58.9378 112.802 56.8283 111.81 54.5287 110.849C50.5042 109.166 46.7553 107.943 43.1297 106.759C38.0765 105.11 33.714 103.685 30.0623 101.47C22.5848 96.9359 19.8399 95.5127 18.3934 97.3509C18.0452 97.7948 17.9161 98.4535 18.0089 99.308C18.1032 100.226 18.4529 101.329 19.0216 102.501C20.4042 105.362 22.8445 108.323 25.72 110.626C25.9289 110.794 25.9637 111.1 25.7954 111.309C25.6271 111.518 25.3225 111.553 25.1121 111.385C22.1278 108.995 19.5889 105.912 18.1468 102.925C17.5287 101.653 17.1471 100.437 17.0412 99.4096C16.9194 98.2968 17.1167 97.4002 17.6274 96.7502C19.6498 94.1779 23.0548 96.0843 30.5642 100.638C34.1187 102.796 38.4334 104.204 43.4286 105.835C46.9018 106.97 50.8393 108.255 54.9002 109.953C57.2273 110.925 59.3628 111.929 61.4303 113.024C69.1094 117.093 74.7893 128.027 78.2002 136.481C79.9165 140.73 80.964 144.113 81.3354 145.371L81.3513 145.426C81.817 147.005 82.1623 148.607 82.3785 150.191C83.4332 157.902 81.36 165.147 76.6913 170.067C72.8278 174.138 67.5063 176.317 61.5391 176.317L61.5434 176.32Z" fill="#553597"/>
<path d="M249.88 109.889C249.777 109.889 249.673 109.857 249.586 109.789C249.373 109.626 249.332 109.32 249.495 109.107C249.58 108.995 257.983 97.9355 257.416 92.302C257.339 91.5142 257.079 90.8758 256.647 90.4029C256.303 90.0286 255.259 88.8868 252.409 90.7844C251.298 91.5244 250.031 92.6531 248.644 94.1416C248.462 94.3375 248.154 94.3491 247.957 94.1663C247.761 93.9835 247.749 93.6759 247.932 93.4786C249.37 91.9364 250.694 90.7569 251.87 89.9749C254.797 88.025 256.473 88.7751 257.364 89.7457C257.943 90.3768 258.285 91.2037 258.384 92.2048C258.99 98.2184 250.623 109.23 250.268 109.696C250.172 109.821 250.027 109.886 249.882 109.886L249.88 109.889Z" fill="#553597"/>
<path d="M256.058 112.407C255.966 112.407 255.875 112.381 255.792 112.329C255.567 112.183 255.504 111.881 255.652 111.656C255.708 111.569 261.365 102.848 262.264 96.859C262.568 94.7858 262.269 93.3089 261.378 92.4718C261.101 92.2106 260.261 91.4185 258.148 92.672C257.918 92.8098 257.619 92.7329 257.483 92.5023C257.346 92.2716 257.422 91.9727 257.652 91.8363C259.918 90.4914 261.292 91.0558 262.044 91.7638C263.18 92.8301 263.579 94.5929 263.226 97.0012C262.295 103.202 256.703 111.823 256.466 112.187C256.373 112.329 256.216 112.407 256.058 112.407Z" fill="#553597"/>
<path d="M212.538 172.835C207.682 172.835 203.191 171.257 199.545 168.204C194.104 163.652 191.197 156.331 191.568 148.121C191.617 147.018 191.728 145.882 191.897 144.745L191.9 144.727C192.079 143.491 193.77 132.373 198.039 122.639C200.649 116.668 203.716 112.381 207.153 109.896C209.497 108.202 211.969 106.625 214.711 105.074C217.977 103.221 221.063 101.715 224.047 100.258C225.755 99.4256 227.368 98.6378 228.903 97.8384C228.919 97.8268 228.937 97.8166 228.954 97.8079C232.041 96.1975 234.218 94.8265 236.012 93.3655C242.818 87.8162 245.927 85.4586 248.285 87.7277C249.434 88.8332 249.556 91.0297 248.627 93.9154C247.606 97.0767 245.518 100.48 242.898 103.254C242.713 103.449 242.406 103.459 242.21 103.273C242.014 103.089 242.006 102.781 242.19 102.585C244.714 99.9131 246.722 96.6444 247.7 93.6165C248.485 91.1777 248.451 89.238 247.609 88.4284C245.921 86.8064 243.401 88.5938 236.623 94.1185C234.786 95.6158 232.572 97.0114 229.452 98.6421C229.436 98.6537 229.418 98.6639 229.401 98.6726C227.838 99.4865 226.203 100.286 224.471 101.13C221.5 102.58 218.427 104.08 215.187 105.917C212.476 107.45 210.033 109.008 207.718 110.681C204.424 113.063 201.465 117.215 198.925 123.026C194.708 132.643 193.035 143.642 192.858 144.864L192.855 144.884C192.69 145.989 192.582 147.091 192.534 148.161C192.177 156.067 194.959 163.099 200.164 167.456C204.876 171.399 211.086 172.755 217.646 171.273C223.078 170.045 226.221 167.801 226.269 165.115C226.357 160.278 226.733 155.051 228.88 149.609C231.42 143.169 235.925 137.733 242.653 132.992C250.52 127.447 256.704 121.636 261.03 115.723C264.566 110.888 266.658 106.165 266.922 102.419C267.076 100.242 266.579 98.4971 265.525 97.5047C265.069 97.0753 264.512 96.936 263.821 97.0767C263.544 97.129 263.253 97.2262 262.944 97.3669C262.7 97.4786 262.411 97.3712 262.299 97.1275C262.188 96.8838 262.295 96.5951 262.539 96.4833C262.919 96.3092 263.287 96.1874 263.634 96.1221C264.621 95.919 265.507 96.1526 266.191 96.7953C267.48 98.0081 268.068 99.9754 267.891 102.485C267.392 109.561 260.647 121.5 243.211 133.785C227.609 144.781 227.368 158.018 227.239 165.13C227.183 168.3 223.763 170.884 217.858 172.219C216.05 172.626 214.267 172.829 212.531 172.829L212.538 172.835Z" fill="#553597"/>
</g>
<defs>
<clipPath id="clip0_2173_1862">
<rect width="269.191" height="176.32" fill="white"/>
</clipPath>
</defs>
</svg>
