<svg width="319" height="214" viewBox="0 0 319 214" fill="none" xmlns="http://www.w3.org/2000/svg">
<g clip-path="url(#clip0_2191_2321)">
<rect width="318.579" height="214" rx="7.17757" fill="#6F46BE"/>
<rect x="101.121" y="185.251" width="205.244" height="103.619" rx="51.8095" transform="rotate(13.9884 101.121 185.251)" stroke="white"/>
<rect x="-90.8318" y="75.2808" width="128.319" height="64.598" rx="32.299" transform="rotate(-37.3984 -90.8318 75.2808)" stroke="white"/>
<rect x="260.174" y="124.918" width="129.273" height="65.0822" rx="32.5411" transform="rotate(-47.0141 260.174 124.918)" stroke="white"/>
<path d="M205.467 56.9895C205.467 58.2837 204.374 59.3341 203.028 59.3341C201.682 59.3341 200.589 58.2837 200.589 56.9895C200.589 55.6953 201.682 54.6449 203.028 54.6449C204.374 54.6449 205.467 55.6953 205.467 56.9895ZM185.906 54.6449C184.56 54.6449 183.467 55.6953 183.467 56.9895C183.467 58.2837 184.56 59.3341 185.906 59.3341C187.253 59.3341 188.346 58.2837 188.346 56.9895C188.346 55.6953 187.253 54.6449 185.906 54.6449ZM194.603 58.9115H194.33C191.6 58.9115 189.387 61.0386 189.387 63.662V69.9295C189.387 72.6266 191.662 74.8116 194.466 74.8116C197.272 74.8116 199.545 72.6248 199.545 69.9295V63.6638C199.547 61.0386 197.334 58.9115 194.603 58.9115Z" fill="#6F46BE"/>
<g clip-path="url(#clip1_2191_2321)">
<path d="M289.296 95.7576C292.737 105.617 291.278 116.004 286.196 124.25C285.875 124.31 285.546 124.423 285.213 124.575C285.511 122.545 285.293 120.809 284.179 119.761C283.136 118.779 281.747 119.079 280.368 119.898C280.283 119.039 280.002 118.297 279.472 117.72C278.202 116.332 276.395 116.834 274.606 118.025C271.92 112.629 265.537 109.958 259.644 112.015C253.803 114.054 250.474 120.034 251.646 125.887V125.891C247.439 128.085 242.58 130.216 237.418 133.144C232.468 129.329 228.533 124.077 226.318 117.736C220.249 100.346 229.427 81.3293 246.816 75.2591C264.206 69.186 283.227 78.3638 289.296 95.7576ZM268.795 101.073C270.102 100.616 270.39 98.0324 269.44 95.3006C268.485 92.5687 266.649 90.7233 265.34 91.1803C264.033 91.6373 263.744 94.2212 264.695 96.953C265.649 99.6849 267.483 101.53 268.795 101.073ZM245.673 109.144C246.984 108.687 247.273 106.099 246.319 103.369C245.364 100.637 243.53 98.7956 242.223 99.2526C240.911 99.7096 240.623 102.293 241.577 105.025C242.532 107.757 244.366 109.603 245.673 109.146V109.144Z" fill="#553597"/>
<path d="M270.631 121.415L270.756 121.456C271.859 120.272 273.227 118.944 274.606 118.026C276.395 116.835 278.2 116.333 279.472 117.721C280.002 118.299 280.283 119.042 280.368 119.899C281.747 119.081 283.136 118.78 284.179 119.763C285.295 120.81 285.511 122.547 285.213 124.576C285.546 124.424 285.875 124.312 286.195 124.251C286.977 124.09 287.716 124.224 288.33 124.801C292.834 129.038 288.441 144.807 265.404 161.04C250.542 171.513 249.39 183.716 249.226 192.773C249.169 195.903 245.515 198.201 240.225 199.396C225.379 202.749 213.806 191.61 214.52 175.789C214.567 174.702 214.676 173.591 214.845 172.463C214.901 172.079 216.529 160.561 220.95 150.481C223.172 145.399 226.109 140.68 229.903 137.937C232.45 136.096 234.969 134.528 237.416 133.144C242.578 130.216 247.437 128.085 251.644 125.891V125.887C254.32 124.491 256.727 123.066 258.785 121.39C265.669 115.779 268.401 113.788 270.415 115.727C271.449 116.722 271.454 118.859 270.631 121.415Z" fill="white"/>
<path d="M274.607 118.026C273.227 118.944 271.859 120.272 270.756 121.456L270.631 121.415C271.454 118.86 271.45 116.722 270.415 115.727C268.402 113.79 265.67 115.779 258.786 121.39C256.728 123.068 254.321 124.491 251.645 125.887C250.474 120.034 253.803 114.052 259.643 112.015C265.536 109.958 271.918 112.629 274.605 118.025L274.607 118.026Z" fill="#553597"/>
<path d="M269.44 95.3006C270.39 98.0324 270.102 100.616 268.795 101.073C267.483 101.53 265.649 99.6849 264.695 96.953C263.744 94.2212 264.033 91.6373 265.34 91.1803C266.647 90.7233 268.485 92.5687 269.44 95.3006Z" fill="#EDE3FF"/>
<path d="M246.319 103.369C247.273 106.1 246.985 108.687 245.673 109.144C244.366 109.601 242.532 107.756 241.578 105.024C240.623 102.292 240.912 99.7081 242.223 99.2511C243.53 98.7941 245.364 100.635 246.319 103.367V103.369Z" fill="#EDE3FF"/>
<path d="M220.95 150.481C219.513 153.754 218.373 157.176 217.485 160.323C216.689 163.149 216.095 165.748 215.673 167.809C215.119 170.525 214.866 172.314 214.843 172.463C214.675 173.591 214.568 174.702 214.52 175.789C209.39 177.105 204.383 178.232 199.51 179.185C199.021 172.188 198.835 165.93 198.835 160.48C198.835 150.324 199.473 142.98 199.94 138.958C207.212 141.856 214.792 144.574 220.95 150.482V150.481Z" fill="#A78ED7"/>
<path d="M118.881 93.9774C116.992 97.0909 113.458 104.21 115.343 111.274H106.345C104.881 105.622 105.506 95.3644 114.925 86.3998C124.343 77.4353 120.22 70.4902 117.227 48.6976C112.193 12.0298 161.104 34.1721 175.019 41.1563C178.628 42.9698 181.983 45.2635 184.91 48.0476C201.818 64.1415 189.063 79.8132 199.684 89.2971C211.405 99.7633 208.477 111.275 208.477 111.275H174.678C170.277 91.0294 176.282 84.9563 156.9 69.3804C156.318 68.9147 155.708 68.433 155.079 67.9484C154.063 67.1664 153.097 66.3917 152.179 65.6373C143.835 58.7575 139.319 52.9775 136.967 49.2431L136.694 49.4158C133.546 52.4683 128.239 59.3959 127.4 71.9599C126.325 88.1016 126.85 99.7545 139.887 108.062C141.292 108.957 142.539 110.044 143.599 111.275H124.552C120.188 104.375 118.972 98.3502 118.88 93.9789L118.881 93.9774ZM180.054 84.0887C183.248 83.7231 185.378 79.4156 184.812 74.4655C184.25 69.5109 181.205 65.7882 178.012 66.1538C174.823 66.515 172.693 70.8268 173.255 75.777C173.82 80.7315 176.861 84.4543 180.054 84.0887Z" fill="#553597"/>
<path d="M199.939 138.957C199.473 142.98 198.837 150.321 198.837 160.478C198.837 165.93 199.021 172.188 199.511 179.184C197.634 179.552 195.781 179.893 193.947 180.211C192.279 157.35 193.811 142.199 194.554 136.691C196.311 137.493 198.116 138.232 199.941 138.957H199.939Z" fill="#6F46BE"/>
<path d="M193.946 180.211C191.616 180.613 189.318 180.975 187.056 181.303C184.571 181.663 182.123 181.978 179.722 182.249C165.619 183.857 152.971 184.057 142.072 183.516C138.933 183.358 135.941 183.14 133.099 182.877C130.759 182.66 128.523 182.41 126.393 182.142C124.51 164.078 125.521 150.954 126.417 144.184C129.592 142.584 132.619 141.087 135.251 139.614C136.981 138.645 138.5 137.624 139.826 136.551C144.807 140.405 158.863 146.741 190.952 134.899C192.121 135.537 193.324 136.131 194.552 136.688C193.81 142.197 192.278 157.347 193.946 180.211Z" fill="#A78ED7"/>
<path d="M184.812 74.4655C185.377 79.4156 183.248 83.7231 180.054 84.0887C176.861 84.4543 173.82 80.7315 173.254 75.777C172.693 70.8268 174.823 66.515 178.012 66.1538C181.205 65.7882 184.249 69.5109 184.812 74.4655Z" fill="white"/>
<path d="M175.618 115.177C178.413 125.786 184.138 131.178 190.95 134.9C158.862 146.742 144.807 140.403 139.825 136.553C144.598 132.689 146.868 128.218 147.439 123.636C148 119.095 146.511 114.647 143.6 111.274C142.541 110.042 141.293 108.956 139.888 108.06C126.851 99.7531 126.326 88.1002 127.401 71.9585C128.24 59.3944 133.547 52.4668 136.695 49.4143L136.968 49.2417C139.318 52.9761 143.836 58.7561 152.18 65.6358C150.27 65.4472 148.766 65.8244 148.589 66.6267C148.368 67.6089 150.226 68.861 152.737 69.4152C154.434 69.7924 155.994 69.7561 156.892 69.3876L156.901 69.3789C176.284 84.9548 170.279 91.0279 174.679 111.274C174.952 112.517 175.261 113.817 175.618 115.177ZM154.021 74.9196C154.021 73.5558 153.443 72.4488 152.73 72.4488C152.016 72.4488 151.441 73.5558 151.441 74.9196C151.441 76.2833 152.019 77.3903 152.73 77.3903C153.441 77.3903 154.021 76.2833 154.021 74.9196ZM133.041 69.4152C135.548 68.861 137.405 67.6147 137.184 66.6267C136.968 65.6445 134.757 65.2992 132.25 65.852C129.739 66.4091 127.882 67.6568 128.102 68.6405C128.318 69.627 130.529 69.9723 133.041 69.4152ZM133.936 74.9196C133.936 73.5558 133.358 72.4488 132.645 72.4488C131.931 72.4488 131.353 73.5558 131.353 74.9196C131.353 76.2833 131.931 77.3903 132.645 77.3903C133.358 77.3903 133.936 76.2833 133.936 74.9196Z" fill="white"/>
<path d="M156.901 69.3789L156.892 69.3876C155.994 69.7561 154.433 69.7924 152.737 69.4152C150.226 68.861 148.369 67.6104 148.589 66.6267C148.766 65.8244 150.271 65.4472 152.18 65.6358C153.098 66.3903 154.066 67.1635 155.08 67.947C155.71 68.433 156.319 68.9132 156.901 69.3789Z" fill="#553597"/>
<path d="M152.73 72.4489C153.444 72.4489 154.021 73.5558 154.021 74.9196C154.021 76.2833 153.444 77.3903 152.73 77.3903C152.016 77.3903 151.441 76.2833 151.441 74.9196C151.441 73.5558 152.019 72.4489 152.73 72.4489Z" fill="#553597"/>
<path d="M137.186 66.6282C137.406 67.6147 135.549 68.8624 133.042 69.4167C130.531 69.9738 128.321 69.6299 128.104 68.6419C127.883 67.6597 129.74 66.412 132.252 65.8535C134.759 65.2993 136.97 65.6445 137.186 66.6282Z" fill="#553597"/>
<path d="M132.645 77.3903C133.358 77.3903 133.936 76.2841 133.936 74.9196C133.936 73.555 133.358 72.4489 132.645 72.4489C131.932 72.4489 131.354 73.555 131.354 74.9196C131.354 76.2841 131.932 77.3903 132.645 77.3903Z" fill="#553597"/>
<path d="M126.415 144.184C125.52 150.955 124.51 164.081 126.395 182.143C124.39 181.886 122.479 181.614 120.667 181.325C119.183 166.283 119.644 154.733 120.378 147.301C122.408 146.21 124.438 145.178 126.415 144.184Z" fill="#6F46BE"/>
<path d="M120.667 181.326C113.735 180.231 108.239 178.951 104.366 177.904C104.187 176.591 103.919 175.256 103.552 173.901C103.491 173.675 103.426 173.444 103.357 173.213C103.321 173.097 102.995 171.953 102.385 170.151C101.867 168.609 101.138 166.583 100.221 164.308C104.19 156.961 112.238 151.676 120.378 147.298C119.643 154.732 119.183 166.281 120.667 181.325V181.326Z" fill="#A78ED7"/>
<path d="M41.0524 130.361C40.459 129.138 40.0934 127.986 39.9933 127.008C39.8888 126.049 40.0412 125.255 40.4793 124.697C42.2087 122.499 45.1886 124.095 52.7822 128.7C58.9641 132.45 67.492 133.995 77.1834 138.046C79.2972 138.928 81.4633 139.928 83.6743 141.098C91.3201 145.15 96.984 156.285 100.221 164.308C102.214 169.243 103.294 173.002 103.357 173.213C103.826 174.802 104.16 176.37 104.369 177.902C106.407 192.801 96.6344 204.622 81.9406 203.39C76.5334 202.941 72.5988 201.168 72.1084 198.079C70.6968 189.129 67.8677 177.2 51.7028 168.88C26.6444 155.985 20.1128 140.975 23.9923 136.157C24.738 135.23 25.845 135.146 27.0491 135.503C26.4717 133.537 26.4471 131.784 27.406 130.593C28.3041 129.477 29.7201 129.582 31.2014 130.204C31.1651 129.342 31.3421 128.568 31.7875 127.922C33.6765 125.183 38.0492 128.07 40.9378 130.417L41.0538 130.361H41.0524Z" fill="white"/>
<path d="M73.9462 74.0534C91.8768 78.2738 102.989 96.232 98.7652 114.16C96.045 125.712 87.6259 134.433 77.1844 138.047C67.493 133.995 58.9651 132.451 52.7832 128.701C45.1897 124.096 42.2097 122.499 40.4803 124.698C40.0437 125.255 39.8913 126.051 39.9943 127.009C34.0097 119.32 31.4345 109.091 33.8414 98.8739C38.0618 80.9433 56.02 69.8316 73.9477 74.0549L73.9462 74.0534ZM82.2608 103.107C82.9267 100.291 82.3696 97.7524 81.0175 97.4318C79.6697 97.1155 78.0375 99.1409 77.3716 101.957C76.71 104.773 77.2671 107.316 78.6149 107.632C79.9671 107.949 81.5992 105.923 82.2608 103.107ZM58.4254 97.4956C59.0913 94.6796 58.5342 92.1363 57.1821 91.8201C55.8343 91.5038 54.2021 93.5291 53.5391 96.3451C52.8732 99.1612 53.4303 101.7 54.7824 102.021C56.1302 102.337 57.7624 100.312 58.4254 97.4956Z" fill="#A78ED7"/>
<path d="M81.0177 97.4304C82.3699 97.751 82.927 100.29 82.2611 103.106C81.5995 105.922 79.9659 107.947 78.6152 107.631C77.2674 107.315 76.7103 104.771 77.3719 101.955C78.0378 99.1394 79.6699 97.1141 81.0177 97.4304Z" fill="#553597"/>
<path d="M57.1821 91.8186C58.5342 92.1349 59.0913 94.6782 58.4254 97.4942C57.7638 100.31 56.1302 102.336 54.7824 102.019C53.4303 101.699 52.8731 99.1597 53.5391 96.3437C54.2006 93.5277 55.8343 91.5023 57.1821 91.8186Z" fill="#553597"/>
<path d="M137.401 144.878L130.113 157.5H144.688L137.401 144.878Z" fill="white"/>
<path d="M183.662 144.878L176.374 157.5H190.95L183.662 144.878Z" fill="white"/>
<path d="M142.072 183.517C138.932 183.359 135.941 183.141 133.099 182.879L137.402 175.424L142.072 183.517Z" fill="white"/>
<path d="M187.056 181.303C184.571 181.663 182.123 181.978 179.722 182.249L183.663 175.424L187.056 181.303Z" fill="white"/>
<path d="M114.796 173.901H103.553C103.492 173.675 103.427 173.444 103.359 173.213C103.322 173.097 102.996 171.953 102.387 170.151L107.507 161.278L114.796 173.9V173.901Z" fill="white"/>
<path d="M217.485 160.323C216.689 163.149 216.095 165.748 215.673 167.809H207.231L214.52 155.187L217.485 160.323Z" fill="white"/>
<path d="M160.024 177.596L167.312 164.974H152.737L160.024 177.596Z" fill="white"/>
<path d="M179.616 84.6008C178.071 84.6008 176.552 83.7753 175.294 82.236C173.952 80.5951 173.057 78.3217 172.773 75.8336C172.491 73.3469 172.853 70.9313 173.793 69.0307C174.768 67.0591 176.248 65.8665 177.959 65.6721C179.673 65.4762 181.385 66.3061 182.776 68.0079C184.118 69.6488 185.013 71.9237 185.296 74.4118C185.891 79.6202 183.565 84.1787 180.111 84.5733C179.946 84.5921 179.782 84.6008 179.616 84.6008ZM178.447 66.6151C178.321 66.6151 178.194 66.6224 178.068 66.6369C176.696 66.7921 175.487 67.7946 174.663 69.4602C173.806 71.1953 173.476 73.4194 173.738 75.7219C174 78.0272 174.82 80.1207 176.046 81.6194C177.221 83.0572 178.625 83.7637 179.999 83.6056C182.921 83.2719 184.864 79.1966 184.329 74.5206C184.067 72.2167 183.248 70.1217 182.023 68.6231C180.955 67.3173 179.698 66.6151 178.447 66.6151Z" fill="#553597"/>
<path d="M187.66 97.8685C187.576 97.8685 187.491 97.8467 187.413 97.8018C180.255 93.5915 176.645 87.8289 174.878 83.7361C172.96 79.2967 172.741 75.8931 172.734 75.7494C172.718 75.481 172.922 75.2518 173.191 75.2358C173.458 75.2213 173.688 75.4244 173.704 75.6928C173.706 75.7262 173.928 79.0979 175.788 83.3879C177.498 87.3356 180.99 92.8951 187.906 96.9632C188.138 97.0996 188.215 97.397 188.079 97.6291C187.989 97.7829 187.827 97.8685 187.66 97.8685Z" fill="#553597"/>
<path d="M176.861 77.7516H176.86C176.591 77.7516 176.375 77.5325 176.375 77.2655C176.375 77.1843 176.39 75.2489 177.292 73.4397C177.981 72.0658 178.985 71.1402 180.278 70.6876C180.53 70.5976 180.809 70.7311 180.897 70.985C180.986 71.2389 180.852 71.516 180.6 71.6045C179.554 71.9715 178.733 72.7361 178.161 73.875C177.363 75.4738 177.346 77.251 177.346 77.2684C177.346 77.5354 177.127 77.753 176.86 77.753L176.861 77.7516Z" fill="#553597"/>
<path d="M181.652 76.7331C181.452 76.7331 181.263 76.6083 181.193 76.4081C181.151 76.2906 180.194 73.6748 177.822 74.1332C177.558 74.1855 177.304 74.0114 177.253 73.7488C177.202 73.4847 177.375 73.2308 177.637 73.18C180.2 72.6853 181.685 74.8659 182.112 76.0889C182.2 76.3428 182.067 76.6199 181.813 76.7084C181.759 76.7273 181.706 76.736 181.653 76.736L181.652 76.7331Z" fill="#553597"/>
<path d="M220.951 150.968C220.831 150.968 220.709 150.923 220.615 150.833C214.98 145.426 208.062 142.693 201.373 140.048C200.834 139.835 200.296 139.623 199.759 139.41C198.126 138.76 196.205 137.981 194.349 137.133C193.071 136.553 191.848 135.945 190.717 135.328C182.4 130.784 177.6 124.607 175.148 115.301C174.808 114.009 174.499 112.726 174.205 111.378C173.012 105.893 172.583 101.474 172.204 97.574C171.2 87.2428 170.595 81.0072 156.596 69.7576C155.943 69.2353 155.35 68.7696 154.783 68.3314C153.834 67.6002 152.882 66.8415 151.871 66.0116C143.414 59.039 138.876 53.185 136.556 49.4999C135.964 48.5569 135.445 47.6443 135.013 46.784C134.892 46.5446 134.989 46.2515 135.229 46.1311C135.468 46.0107 135.761 46.1079 135.882 46.3473C136.301 47.1801 136.804 48.0665 137.379 48.9834C139.66 52.6061 144.132 58.3716 152.488 65.2615C153.49 66.0841 154.435 66.8371 155.375 67.5625C155.946 68.0036 156.546 68.4736 157.203 69.0003C171.521 80.5066 172.142 86.896 173.17 97.4811C173.546 101.353 173.973 105.742 175.154 111.171C175.447 112.504 175.751 113.774 176.088 115.053C179.136 126.621 185.756 131.508 191.182 134.474C192.294 135.079 193.495 135.675 194.753 136.247C196.589 137.085 198.496 137.859 200.119 138.504C200.655 138.718 201.191 138.929 201.73 139.143C208.506 141.821 215.515 144.59 221.288 150.13C221.481 150.315 221.488 150.623 221.303 150.817C221.207 150.917 221.079 150.967 220.951 150.967V150.968Z" fill="#553597"/>
<path d="M153.078 184.289C143.999 184.289 135.07 183.735 126.332 182.625C124.329 182.368 122.396 182.092 120.588 181.804C114.752 180.882 109.252 179.728 104.239 178.371C103.979 178.301 103.827 178.034 103.897 177.775C103.966 177.515 104.235 177.361 104.493 177.432C109.471 178.779 114.937 179.926 120.741 180.843C122.54 181.131 124.462 181.405 126.455 181.66C147.961 184.392 170.64 183.742 193.863 179.729C195.727 179.407 197.594 179.062 199.415 178.705C204.335 177.746 209.375 176.605 214.399 175.317C214.659 175.25 214.924 175.407 214.991 175.667C215.058 175.926 214.901 176.192 214.641 176.259C209.6 177.551 204.541 178.696 199.604 179.658C197.776 180.018 195.901 180.363 194.03 180.687C180.144 183.085 166.448 184.287 153.079 184.287L153.078 184.289Z" fill="#553597"/>
<path d="M100.221 164.794C100.142 164.794 100.064 164.776 99.99 164.736C99.7535 164.609 99.6665 164.314 99.7941 164.078C104.025 156.255 112.893 150.774 120.149 146.873C122.193 145.774 124.265 144.722 126.197 143.749C126.659 143.517 127.116 143.288 127.57 143.058C130.247 141.713 132.775 140.443 135.015 139.189C136.69 138.253 138.204 137.239 139.52 136.174C143.851 132.669 146.354 128.431 146.957 123.575C147.485 119.311 146.127 114.943 143.233 111.59C142.191 110.379 140.98 109.33 139.629 108.47C133.396 104.499 129.665 99.6066 127.885 93.0736C126.295 87.2384 126.335 80.6546 126.917 71.9251C127.769 59.1725 133.198 52.1288 136.357 49.0647C136.55 48.8775 136.858 48.8819 137.045 49.0748C137.232 49.2678 137.226 49.5754 137.035 49.7625C133.975 52.7294 128.716 59.5627 127.888 71.9904C126.846 87.6301 127.116 99.344 140.151 107.65C141.582 108.561 142.866 109.674 143.97 110.956C147.043 114.517 148.483 119.159 147.923 123.696C147.288 128.81 144.666 133.262 140.132 136.93C138.775 138.03 137.212 139.074 135.491 140.036C133.232 141.3 130.695 142.575 128.008 143.926C127.554 144.154 127.097 144.384 126.636 144.617C124.707 145.586 122.644 146.635 120.61 147.727C113.475 151.563 104.757 156.943 100.65 164.539C100.562 164.702 100.395 164.794 100.222 164.794H100.221Z" fill="#553597"/>
<path d="M142.148 86.8859C142.093 86.8859 142.035 86.8757 141.979 86.8554C140.845 86.4376 140.147 85.8746 139.845 85.1318C139.371 83.9639 139.98 82.6872 140.624 81.3336L140.64 81.2988C141.604 79.2822 141.537 77.1509 141.535 77.1306C141.525 76.8622 141.734 76.6373 142.003 76.6272C142.268 76.6156 142.496 76.8259 142.508 77.0929C142.512 77.1886 142.589 79.4766 141.518 81.7181L141.502 81.7529C140.952 82.9063 140.433 83.9958 140.745 84.7648C140.938 85.2392 141.451 85.6237 142.315 85.9428C142.567 86.0357 142.696 86.3142 142.603 86.5667C142.531 86.7625 142.345 86.8844 142.148 86.8844V86.8859Z" fill="#553597"/>
<path d="M144.129 92.8313C141.405 92.8313 140.061 92.0174 139.98 91.9652C139.752 91.823 139.684 91.5227 139.826 91.2949C139.968 91.0686 140.267 90.9989 140.493 91.1396C140.534 91.1643 143.273 92.7631 149.002 91.086C149.259 91.0105 149.531 91.1585 149.606 91.4153C149.681 91.6735 149.533 91.9434 149.277 92.0188C147.205 92.6253 145.494 92.8298 144.131 92.8298L144.129 92.8313Z" fill="#553597"/>
<path d="M144.42 95.5864C142.975 95.5864 142.251 95.1453 142.206 95.1178C141.978 94.9741 141.91 94.6753 142.053 94.4475C142.195 94.2226 142.493 94.153 142.719 94.2922C142.753 94.3111 144.057 95.0394 146.777 94.24C147.034 94.1646 147.305 94.3111 147.381 94.5694C147.456 94.8276 147.308 95.0974 147.051 95.1729C146.001 95.4819 145.125 95.5864 144.421 95.5864H144.42Z" fill="#553597"/>
<path d="M155.024 70.1696C154.287 70.1696 153.47 70.0768 152.633 69.8911C150.631 69.45 148.948 68.5534 148.347 67.6089C148.057 67.1534 148.061 66.766 148.116 66.5223C148.351 65.4516 149.928 64.9264 152.228 65.1542C152.495 65.1803 152.691 65.4182 152.665 65.6852C152.638 65.9521 152.402 66.148 152.134 66.1204C150.261 65.9362 149.148 66.3569 149.067 66.7326C149.04 66.8516 149.107 66.9909 149.168 67.0866C149.54 67.6713 150.85 68.5012 152.843 68.9408C154.388 69.2846 155.869 69.2832 156.709 68.9379C156.958 68.8363 157.242 68.9538 157.343 69.2034C157.445 69.4515 157.327 69.7358 157.078 69.8374C156.54 70.0579 155.829 70.1696 155.024 70.1696Z" fill="#553597"/>
<path d="M130.747 70.1711C129.72 70.1711 128.855 69.9897 128.297 69.6328C127.842 69.3427 127.681 68.9901 127.628 68.7464C127.573 68.5026 127.57 68.1167 127.857 67.6626C128.456 66.7196 130.138 65.823 132.144 65.3776C133.415 65.0961 134.661 65.0279 135.651 65.1832C136.794 65.3616 137.508 65.8375 137.659 66.5223C137.714 66.766 137.717 67.1534 137.427 67.6104C136.817 68.5679 135.176 69.4413 133.145 69.8896C132.298 70.0782 131.48 70.1711 130.746 70.1711H130.747ZM134.528 66.074C133.859 66.074 133.116 66.1596 132.356 66.3279C130.358 66.7718 129.05 67.6017 128.68 68.1849C128.619 68.2807 128.552 68.4185 128.578 68.5346C128.578 68.5346 128.578 68.5346 128.578 68.5375C128.604 68.655 128.725 68.7522 128.82 68.8146C129.404 69.186 130.939 69.3847 132.936 68.9408C134.93 68.5012 136.237 67.6728 136.608 67.0881C136.669 66.9909 136.737 66.8516 136.711 66.7326C136.669 66.5411 136.327 66.2727 135.503 66.1436C135.204 66.0972 134.876 66.074 134.529 66.074H134.528Z" fill="#553597"/>
<path d="M143.6 111.76H124.553C124.285 111.76 124.067 111.542 124.067 111.274C124.067 111.006 124.285 110.788 124.553 110.788H143.6C143.868 110.788 144.086 111.006 144.086 111.274C144.086 111.542 143.868 111.76 143.6 111.76Z" fill="#553597"/>
<path d="M208.479 111.76H174.679C174.411 111.76 174.193 111.542 174.193 111.274C174.193 111.006 174.411 110.788 174.679 110.788H208.083C208.242 109.896 208.56 107.45 207.991 104.243C207.33 100.513 205.294 94.9538 199.363 89.6584C194.507 85.3233 194.377 79.6231 194.238 73.5892C194.061 65.9231 193.862 57.2342 184.578 48.3987C181.766 45.7264 178.477 43.4355 174.803 41.5901C169.684 39.0207 159.553 34.2664 149.213 31.2879C136.674 27.6754 127.695 27.7189 122.527 31.4156C118.189 34.5188 116.568 40.3119 117.712 48.6309C118.34 53.2067 119.016 57.1094 119.611 60.5536C121.861 73.5587 122.888 79.494 115.263 86.7524C106.694 94.9074 105.227 104.439 106.728 110.789H115.344C115.612 110.789 115.83 111.007 115.83 111.275C115.83 111.544 115.612 111.761 115.344 111.761H106.346C106.124 111.761 105.931 111.612 105.876 111.397C105.358 109.4 104.696 105.255 106.085 99.9577C107.431 94.8203 110.294 90.14 114.591 86.0487C121.841 79.1487 120.841 73.373 118.652 60.719C118.054 57.2676 117.378 53.3562 116.747 48.7629C115.551 40.058 117.305 33.9545 121.96 30.6249C127.383 26.7454 136.642 26.654 149.482 30.3536C159.897 33.3553 170.09 38.1372 175.238 40.7211C178.998 42.61 182.366 44.956 185.247 47.6951C194.822 56.8091 195.027 65.7127 195.208 73.5674C195.347 79.6376 195.469 84.8794 200.009 88.933C206.168 94.4315 208.274 100.23 208.956 104.126C209.699 108.367 208.981 111.273 208.949 111.394C208.894 111.609 208.699 111.76 208.477 111.76H208.479Z" fill="#553597"/>
<path d="M115.342 111.76C115.128 111.76 114.93 111.616 114.874 111.399C112.907 104.029 116.731 96.5831 118.466 93.7235C118.605 93.4943 118.904 93.4218 119.133 93.5596C119.363 93.6989 119.437 93.9977 119.297 94.227C117.626 96.9791 113.942 104.137 115.814 111.146C115.884 111.406 115.728 111.672 115.47 111.741C115.428 111.753 115.386 111.757 115.344 111.757L115.342 111.76Z" fill="#553597"/>
<path d="M124.554 111.76C124.393 111.76 124.234 111.68 124.142 111.534C120.451 105.699 118.517 99.7952 118.395 93.9876C118.298 89.2927 119.451 86.4825 119.499 86.365C119.602 86.1169 119.886 86.0009 120.134 86.1039C120.383 86.2069 120.499 86.4912 120.396 86.7393C120.384 86.7669 119.273 89.4959 119.366 93.9629C119.485 99.5949 121.368 105.331 124.963 111.014C125.106 111.241 125.038 111.541 124.812 111.685C124.731 111.735 124.641 111.76 124.552 111.76H124.554Z" fill="#553597"/>
<path d="M158.78 142.223C157.551 142.223 156.354 142.181 155.187 142.098C146.999 141.509 142.15 138.969 139.527 136.939C139.315 136.775 139.276 136.469 139.44 136.257C139.604 136.045 139.91 136.006 140.122 136.17C142.641 138.117 147.311 140.557 155.258 141.127C164.931 141.822 176.883 139.575 190.782 134.445C191.033 134.352 191.313 134.481 191.405 134.732C191.498 134.985 191.369 135.263 191.118 135.356C178.754 139.919 167.899 142.221 158.78 142.221V142.223Z" fill="#553597"/>
<path d="M120.666 181.811C120.419 181.811 120.207 181.624 120.182 181.373C118.671 166.057 119.191 154.365 119.894 147.253C119.92 146.986 120.158 146.79 120.425 146.817C120.692 146.844 120.887 147.081 120.861 147.348C120.164 154.417 119.647 166.041 121.15 181.277C121.176 181.544 120.982 181.782 120.713 181.808C120.697 181.81 120.681 181.811 120.666 181.811Z" fill="#553597"/>
<path d="M126.395 182.629C126.15 182.629 125.938 182.444 125.912 182.194C123.988 163.767 125.099 150.43 125.933 144.12C125.968 143.855 126.213 143.666 126.479 143.703C126.744 143.737 126.932 143.983 126.897 144.248C126.068 150.516 124.966 163.766 126.878 182.094C126.905 182.361 126.712 182.6 126.446 182.628C126.428 182.629 126.411 182.631 126.395 182.631V182.629Z" fill="#553597"/>
<path d="M199.51 179.668C199.257 179.668 199.043 179.472 199.025 179.215C198.577 172.813 198.351 166.508 198.351 160.477C198.351 150.549 198.953 143.264 199.458 138.9C199.488 138.633 199.729 138.44 199.996 138.474C200.263 138.504 200.454 138.745 200.422 139.012C199.92 143.35 199.323 150.597 199.323 160.477C199.323 166.486 199.549 172.768 199.996 179.147C200.015 179.416 199.813 179.648 199.545 179.667C199.533 179.667 199.521 179.667 199.51 179.667V179.668Z" fill="#553597"/>
<path d="M193.946 180.695C193.694 180.695 193.48 180.501 193.461 180.244C191.79 157.353 193.331 142.114 194.071 136.624C194.107 136.359 194.351 136.17 194.618 136.208C194.883 136.244 195.07 136.488 195.034 136.755C194.299 142.214 192.766 157.374 194.432 180.173C194.451 180.441 194.251 180.674 193.982 180.694C193.971 180.694 193.958 180.694 193.946 180.694V180.695Z" fill="#553597"/>
<path d="M77.1832 138.532C76.9816 138.532 76.793 138.406 76.7233 138.204C76.6363 137.95 76.7697 137.673 77.0236 137.586C87.7437 133.875 95.6941 125.076 98.2911 114.046C100.305 105.503 98.8685 96.6861 94.2491 89.2202C89.6297 81.7543 82.38 76.5358 73.8333 74.5249C65.2895 72.5112 56.4729 73.9475 49.007 78.5669C41.5411 83.1863 36.3226 90.436 34.3118 98.9827C32.0209 108.708 34.2305 118.814 40.3762 126.709C40.3965 126.735 40.4153 126.764 40.4298 126.795C40.5227 126.978 40.4937 127.207 40.3399 127.359C40.1498 127.549 39.8423 127.549 39.6522 127.359C39.629 127.336 39.6072 127.31 39.5898 127.282C33.2773 119.158 31.0097 108.764 33.3658 98.7607C35.4361 89.963 40.8099 82.4972 48.4963 77.7414C56.1827 72.9856 65.259 71.5073 74.0567 73.5805C82.8544 75.6508 90.3203 81.0246 95.0761 88.711C99.8318 96.3974 101.31 105.474 99.237 114.271C96.5632 125.627 88.3791 134.687 77.3414 138.507C77.2891 138.526 77.2355 138.535 77.1818 138.535L77.1832 138.532Z" fill="#553597"/>
<path d="M65.0674 124.578C64.0982 124.578 63.1131 124.468 62.1295 124.236C58.8202 123.456 56.01 121.447 54.2168 118.576C52.4221 115.703 51.8606 112.313 52.6339 109.03C52.6949 108.768 52.9575 108.604 53.2186 108.668C53.4797 108.729 53.6422 108.992 53.5798 109.253C52.8661 112.282 53.3854 115.41 55.0408 118.062C56.6976 120.714 59.2931 122.571 62.3515 123.291C68.661 124.775 74.9924 120.896 76.4649 114.643C76.5259 114.382 76.787 114.219 77.0496 114.282C77.3108 114.342 77.4733 114.605 77.4109 114.866C76.0457 120.664 70.8256 124.579 65.0674 124.579V124.578Z" fill="#553597"/>
<path d="M237.417 133.631C237.314 133.631 237.209 133.598 237.121 133.529C231.927 129.527 228.031 124.121 225.86 117.897C222.881 109.365 223.405 100.183 227.332 92.042C231.261 83.903 238.123 77.7791 246.656 74.8006C255.188 71.8206 264.371 72.3429 272.512 76.2703C280.652 80.1991 286.776 87.0629 289.755 95.5965C293.125 105.253 291.979 115.79 286.609 124.504C286.469 124.732 286.17 124.804 285.941 124.662C285.711 124.521 285.64 124.222 285.782 123.993C290.998 115.529 292.112 105.295 288.838 95.9157C285.945 87.6258 279.998 80.9593 272.09 77.1437C264.183 73.328 255.263 72.8217 246.976 75.7161C238.688 78.609 232.023 84.5559 228.207 92.4613C224.391 100.367 223.884 109.285 226.777 117.573C228.887 123.619 232.67 128.868 237.714 132.756C237.927 132.92 237.967 133.225 237.803 133.438C237.707 133.563 237.563 133.627 237.417 133.627V133.631Z" fill="#553597"/>
<path d="M251.645 126.374C251.418 126.374 251.215 126.214 251.169 125.984C249.94 119.842 253.515 113.642 259.483 111.558C265.516 109.452 272.191 112.127 275.026 117.781C275.069 117.855 275.096 117.94 275.096 118.03C275.096 118.299 274.878 118.516 274.61 118.516C274.472 118.516 274.347 118.458 274.258 118.366C274.224 118.329 274.195 118.289 274.171 118.242C271.563 113.006 265.387 110.525 259.804 112.475C254.289 114.399 250.987 120.124 252.122 125.792C252.174 126.055 252.004 126.312 251.74 126.364C251.709 126.37 251.677 126.374 251.645 126.374Z" fill="#EDE3FF"/>
<path d="M41.5089 146.566C41.3856 146.566 41.2623 146.52 41.168 146.426C40.7502 146.014 30.9441 136.261 30.7149 130.222C30.6728 129.219 30.8992 128.351 31.3866 127.645C31.8915 126.912 32.5821 126.478 33.4381 126.357C35.285 126.093 37.9109 127.33 41.2434 130.039C41.4524 130.209 41.4828 130.515 41.3145 130.722C41.1448 130.93 40.8387 130.961 40.6312 130.793C36.7517 127.642 34.6539 127.165 33.5759 127.319C32.9912 127.403 32.5371 127.69 32.1875 128.196C31.8219 128.726 31.6536 129.393 31.687 130.182C31.9017 135.843 41.7527 145.635 41.8513 145.734C42.0428 145.922 42.0443 146.23 41.8557 146.421C41.7599 146.517 41.6352 146.566 41.5104 146.566H41.5089Z" fill="#553597"/>
<path d="M35.7421 149.912C35.6072 149.912 35.4723 149.855 35.3751 149.745C35.0893 149.417 28.3618 141.654 26.5832 135.64C25.8969 133.307 26.0478 131.506 27.0271 130.288C27.6771 129.482 28.9596 128.735 31.3882 129.756C31.6363 129.86 31.7524 130.145 31.6479 130.393C31.5435 130.639 31.2591 130.757 31.011 130.652C28.7478 129.701 28.0224 130.602 27.783 130.899C27.014 131.855 26.9241 133.358 27.5131 135.368C29.2323 141.18 36.0366 149.03 36.1063 149.108C36.2833 149.311 36.2615 149.617 36.0599 149.794C35.9685 149.874 35.8538 149.915 35.7407 149.915L35.7421 149.912Z" fill="#553597"/>
<path d="M84.0107 203.965C83.3158 203.965 82.6121 203.936 81.8998 203.876C75.8687 203.376 72.1242 201.291 71.628 198.157C70.5196 191.13 68.4551 178.052 51.4792 169.315C32.5127 159.553 24.1836 148.66 22.7125 141.721C22.1916 139.26 22.5021 137.23 23.6134 135.852C24.1691 135.162 25.2412 134.459 27.1868 135.037C27.4436 135.114 27.5916 135.384 27.5147 135.642C27.4378 135.899 27.1679 136.047 26.9097 135.97C25.7461 135.624 24.9148 135.785 24.3693 136.463C23.4611 137.59 23.2101 139.386 23.6628 141.52C24.4404 145.194 27.1665 149.584 31.3361 153.884C36.4386 159.145 43.3648 164.046 51.9246 168.45C59.2425 172.217 64.4552 176.978 67.8617 183.006C70.7401 188.102 71.8355 193.226 72.5885 198.005C73.0092 200.66 76.4317 202.446 81.981 202.907C88.4995 203.453 94.3521 201.372 98.4579 197.046C102.923 192.341 104.902 185.389 103.887 177.969C103.678 176.433 103.343 174.88 102.892 173.351L102.874 173.292C102.507 172.047 101.471 168.7 99.7709 164.49C96.4195 156.185 90.8672 145.459 83.4463 141.528C81.405 140.447 79.2956 139.455 76.996 138.494C72.9715 136.811 69.2226 135.588 65.597 134.404C60.5438 132.755 56.1812 131.33 52.5296 129.115C45.0521 124.581 42.3071 123.158 40.8607 124.996C40.5125 125.44 40.3834 126.098 40.4762 126.953C40.5705 127.871 40.9202 128.974 41.4889 130.146C42.8715 133.007 45.3118 135.968 48.1873 138.271C48.3962 138.439 48.431 138.745 48.2627 138.954C48.0944 139.163 47.7898 139.198 47.5794 139.029C44.5951 136.64 42.0561 133.557 40.614 130.57C39.996 129.297 39.6144 128.082 39.5085 127.054C39.3867 125.942 39.584 125.045 40.0946 124.395C42.1171 121.823 45.5221 123.729 53.0315 128.283C56.586 130.441 60.9007 131.849 65.8959 133.48C69.3691 134.615 73.3066 135.9 77.3674 137.597C79.6945 138.57 81.8301 139.573 83.8975 140.669C91.5767 144.738 97.2566 155.672 100.667 164.126C102.384 168.375 103.431 171.758 103.803 173.016L103.819 173.071C104.284 174.65 104.63 176.251 104.846 177.836C105.901 185.547 103.827 192.792 99.1586 197.712C95.2951 201.783 89.9735 203.962 84.0064 203.962L84.0107 203.965Z" fill="#553597"/>
<path d="M272.347 137.534C272.244 137.534 272.14 137.502 272.053 137.434C271.84 137.271 271.799 136.965 271.962 136.752C272.047 136.64 280.45 125.58 279.883 119.947C279.806 119.159 279.546 118.521 279.114 118.048C278.77 117.674 277.726 116.532 274.876 118.429C273.765 119.169 272.498 120.298 271.111 121.787C270.929 121.982 270.621 121.994 270.424 121.811C270.228 121.628 270.216 121.321 270.399 121.124C271.837 119.581 273.161 118.402 274.337 117.62C277.264 115.67 278.94 116.42 279.831 117.391C280.41 118.022 280.752 118.849 280.851 119.85C281.457 125.863 273.09 136.875 272.735 137.341C272.639 137.465 272.494 137.531 272.349 137.531L272.347 137.534Z" fill="#553597"/>
<path d="M278.525 140.052C278.434 140.052 278.342 140.026 278.26 139.974C278.035 139.827 277.971 139.526 278.119 139.301C278.175 139.214 283.832 130.493 284.732 124.504C285.035 122.431 284.736 120.954 283.845 120.117C283.568 119.856 282.728 119.063 280.616 120.317C280.385 120.455 280.086 120.378 279.95 120.147C279.813 119.916 279.889 119.618 280.12 119.481C282.386 118.136 283.76 118.701 284.511 119.409C285.647 120.475 286.046 122.238 285.694 124.646C284.762 130.847 279.171 139.468 278.933 139.832C278.84 139.974 278.683 140.052 278.525 140.052Z" fill="#553597"/>
<path d="M235.005 200.48C230.149 200.48 225.658 198.902 222.012 195.849C216.571 191.296 213.664 183.976 214.035 175.765C214.084 174.663 214.195 173.527 214.364 172.389L214.367 172.372C214.546 171.136 216.237 160.018 220.506 150.283C223.116 144.313 226.183 140.026 229.62 137.541C231.964 135.846 234.436 134.269 237.178 132.718C240.444 130.866 243.53 129.36 246.514 127.903C248.222 127.07 249.835 126.283 251.37 125.483C251.386 125.472 251.404 125.461 251.421 125.453C254.508 123.842 256.685 122.471 258.479 121.01C265.285 115.461 268.394 113.103 270.752 115.373C271.901 116.478 272.023 118.675 271.094 121.56C270.073 124.722 267.985 128.125 265.365 130.899C265.181 131.094 264.873 131.104 264.677 130.918C264.481 130.734 264.473 130.426 264.657 130.23C267.181 127.558 269.189 124.289 270.167 121.261C270.952 118.823 270.918 116.883 270.076 116.073C268.388 114.451 265.868 116.239 259.09 121.763C257.253 123.261 255.039 124.656 251.919 126.287C251.903 126.299 251.885 126.309 251.868 126.317C250.305 127.131 248.67 127.931 246.938 128.775C243.967 130.224 240.894 131.725 237.654 133.561C234.943 135.095 232.5 136.653 230.186 138.326C226.891 140.708 223.933 144.86 221.392 150.671C217.175 160.288 215.502 171.287 215.325 172.508L215.322 172.529C215.157 173.634 215.049 174.735 215.001 175.806C214.644 183.712 217.426 190.744 222.631 195.1C227.343 199.044 233.553 200.4 240.113 198.917C245.545 197.69 248.688 195.446 248.736 192.76C248.824 187.923 249.2 182.696 251.347 177.254C253.887 170.814 258.392 165.378 265.12 160.636C272.987 155.091 279.171 149.281 283.497 143.367C287.033 138.533 289.125 133.809 289.389 130.063C289.543 127.887 289.046 126.142 287.992 125.15C287.536 124.72 286.979 124.581 286.288 124.722C286.011 124.774 285.72 124.871 285.411 125.012C285.167 125.123 284.878 125.016 284.766 124.772C284.655 124.529 284.762 124.24 285.006 124.128C285.386 123.954 285.754 123.832 286.101 123.767C287.088 123.564 287.974 123.797 288.658 124.44C289.947 125.653 290.535 127.62 290.358 130.13C289.859 137.206 283.114 149.145 265.678 161.43C250.076 172.426 249.835 185.663 249.706 192.775C249.65 195.945 246.23 198.529 240.325 199.863C238.518 200.271 236.734 200.474 234.998 200.474L235.005 200.48Z" fill="#553597"/>
</g>
</g>
<defs>
<clipPath id="clip0_2191_2321">
<rect width="318.579" height="214" fill="white"/>
</clipPath>
<clipPath id="clip1_2191_2321">
<rect width="269.191" height="176.32" fill="white" transform="translate(22.4673 27.6449)"/>
</clipPath>
</defs>
</svg>
