<svg viewBox="0 0 32 32" fill="none" xmlns="http://www.w3.org/2000/svg">
<rect />
<path d="M25 9.41292C25 10.5145 24.1059 11.4086 23.0043 11.4086C21.9027 11.4086 21.0086 10.5145 21.0086 9.41292C21.0086 8.31134 21.9027 7.41724 23.0043 7.41724C24.1059 7.41724 25 8.31134 25 9.41292ZM8.99569 7.41724C7.8941 7.41724 7 8.31134 7 9.41292C7 10.5145 7.8941 11.4086 8.99569 11.4086C10.0973 11.4086 10.9914 10.5145 10.9914 9.41292C10.9914 8.31134 10.0973 7.41724 8.99569 7.41724ZM16.1112 11.0489H15.8873C13.6543 11.0489 11.8437 12.8595 11.8437 15.0925V20.4273C11.8437 22.723 13.705 24.5828 15.9993 24.5828C18.295 24.5828 20.1548 22.7215 20.1548 20.4273V15.094C20.1563 12.8595 18.3457 11.0489 16.1112 11.0489Z" fill="white"/>
</svg>
