<svg width="61" height="44" viewBox="0 0 61 44" fill="none" xmlns="http://www.w3.org/2000/svg">
<path d="M54.3627 4.16208C54.353 4.07146 54.2948 3.98605 54.2415 3.94594C54.1833 3.86052 54.0282 3.7855 53.9313 3.79589C53.781 3.76618 53.6889 3.82188 53.5968 3.87758L4.12372 42.2235C4.08011 42.274 4.0365 42.3245 3.99289 42.375C3.94928 42.4255 3.95414 42.4709 3.91539 42.5667C3.92025 42.612 3.92996 42.7026 3.93482 42.7479C3.93968 42.7932 3.99786 42.8786 4.00272 42.9239C4.05604 42.964 4.10937 43.0041 4.1627 43.0442C4.21602 43.0844 4.26449 43.0792 4.36628 43.1141C4.46808 43.149 4.51169 43.0985 4.56015 43.0933C4.60862 43.0881 4.7007 43.0324 4.74431 42.9819L54.1641 4.59582C54.2077 4.54531 54.2998 4.48962 54.2901 4.399C54.3288 4.30319 54.3724 4.25269 54.3627 4.16208Z" fill="#553597"/>
<path d="M27.6743 31.8587L20.0724 23.1417L38.4529 8.9351L46.0548 17.6521L27.6743 31.8587Z" fill="white"/>
<path d="M46.5431 17.6476C46.5334 17.557 46.4752 17.4716 46.4219 17.4315L38.8151 8.66917C38.7569 8.58375 38.6018 8.50873 38.5049 8.51912C38.3546 8.4894 38.2626 8.5451 38.1705 8.6008L19.7367 22.7673C19.6931 22.8178 19.6495 22.8683 19.6059 22.9188C19.5622 22.9693 19.5671 23.0146 19.5284 23.1105C19.5332 23.1558 19.5429 23.2464 19.5478 23.2917C19.5526 23.337 19.6108 23.4224 19.6157 23.4677L27.2176 32.1847C27.3242 32.2649 27.4309 32.3451 27.5278 32.3347C27.6781 32.3645 27.7701 32.3088 27.9107 32.2479L46.3881 18.0308C46.4317 17.9803 46.4753 17.9298 46.5141 17.834C46.5528 17.7382 46.548 17.6929 46.5431 17.6476ZM38.3743 9.58715L45.3653 17.6364L27.702 31.2162L20.7158 23.2123L38.3743 9.58715Z" fill="#553597"/>
<path d="M45.7592 18.6048L37.4301 9.04923L41.6848 5.75175L50.0188 15.3526L45.7592 18.6048Z" fill="#EDE3FF"/>
<path d="M50.492 15.2534C50.4823 15.1628 50.4241 15.0774 50.3708 15.0373L41.9932 5.48691C41.9351 5.4015 41.7799 5.32647 41.683 5.33687C41.5327 5.30715 41.4407 5.36285 41.3001 5.42375L37.0454 8.72122C36.9534 8.77692 36.871 8.92324 36.8807 9.01385C36.8468 9.15497 36.905 9.24038 36.9632 9.3258L45.3941 18.9163C45.4523 19.0017 45.6074 19.0767 45.7043 19.0663C45.8546 19.096 45.9467 19.0403 46.0387 18.9846L50.2934 15.6872C50.3855 15.6315 50.4679 15.4851 50.4581 15.3945C50.5018 15.344 50.4969 15.2987 50.492 15.2534ZM41.6009 6.3997L49.3191 15.2875L45.8349 17.9983L38.0682 9.11566L41.6009 6.3997Z" fill="#553597"/>
<path d="M23.977 35.3739L15.6479 25.8184L19.9074 22.5662L28.2366 32.1218L23.977 35.3739Z" fill="#EDE3FF"/>
<path d="M28.7151 32.0203C28.7053 31.9297 28.6472 31.8443 28.5938 31.8042L20.2647 22.2486C20.2065 22.1632 20.0999 22.083 19.9545 22.0986C19.8042 22.0689 19.7122 22.1246 19.5716 22.1855L15.3169 25.4829C15.2248 25.5386 15.1425 25.685 15.1522 25.7756C15.1183 25.9167 15.1765 26.0021 15.2347 26.0875L23.5638 35.6431C23.6171 35.6832 23.6704 35.7233 23.7238 35.7634C23.7771 35.8035 23.8255 35.7983 23.9273 35.8332C23.9758 35.828 24.0727 35.8176 24.1212 35.8125C24.1697 35.8073 24.2617 35.7516 24.3102 35.7464L28.5649 32.4489C28.6085 32.3984 28.7006 32.3427 28.6909 32.2521C28.7345 32.2016 28.7248 32.1109 28.7151 32.0203ZM19.8287 23.2119L27.5421 32.0544L24.0579 34.7652L16.3397 25.8774L19.8287 23.2119Z" fill="#553597"/>
<path d="M27.083 24.5396C27.0733 24.449 27.0151 24.3636 26.9618 24.3234L23.6117 20.5124C23.5584 20.4723 23.5051 20.4321 23.4517 20.392C23.3984 20.3519 23.35 20.3571 23.2482 20.3222C23.1997 20.3274 23.1028 20.3378 23.0543 20.343C23.0058 20.3482 22.9138 20.4039 22.8653 20.4091C22.7732 20.4648 22.6908 20.6111 22.7006 20.7017C22.6667 20.8428 22.7249 20.9282 22.783 21.0137L26.1331 24.8247C26.1913 24.9102 26.2931 24.9451 26.3949 24.98C26.4967 25.0149 26.5936 25.0045 26.6857 24.9488C26.7777 24.8931 26.8698 24.8374 26.9086 24.7416C27.054 24.726 27.0927 24.6302 27.083 24.5396Z" fill="#553597"/>
<path d="M28.6746 20.6559C28.6649 20.5653 28.6067 20.4799 28.5534 20.4398L26.5462 18.1803C26.4881 18.0949 26.3329 18.0199 26.236 18.0303C26.0858 18.0006 25.9937 18.0563 25.9016 18.112C25.858 18.1625 25.8144 18.213 25.7708 18.2635C25.7272 18.314 25.732 18.3593 25.6933 18.4551C25.6545 18.5509 25.7078 18.591 25.7127 18.6363C25.7176 18.6816 25.7757 18.767 25.7806 18.8123L27.7877 21.0718C27.8459 21.1572 28.001 21.2322 28.098 21.2218C28.2482 21.2516 28.3403 21.1959 28.4324 21.1402C28.476 21.0897 28.5681 21.034 28.5583 20.9433C28.5486 20.8527 28.6843 20.7465 28.6746 20.6559Z" fill="#553597"/>
<path d="M33.0099 19.919C33.0002 19.8284 32.942 19.743 32.8887 19.7029L29.5386 15.8918C29.4853 15.8517 29.432 15.8116 29.3786 15.7714C29.3253 15.7313 29.2768 15.7365 29.175 15.7016C29.1266 15.7068 29.0296 15.7172 28.9812 15.7224C28.9327 15.7276 28.8406 15.7833 28.7922 15.7885C28.7486 15.839 28.705 15.8895 28.6613 15.94C28.6177 15.9905 28.6226 16.0358 28.5838 16.1316C28.5451 16.2274 28.5984 16.2675 28.6033 16.3129C28.6081 16.3582 28.6663 16.4436 28.7196 16.4837L32.0697 20.2948C32.1279 20.3802 32.283 20.4552 32.3799 20.4448C32.5302 20.4745 32.6223 20.4188 32.7143 20.3631C32.8985 20.2517 32.9421 20.2012 32.9809 20.1054C33.0196 20.0096 33.0147 19.9643 33.0099 19.919Z" fill="#553597"/>
<path d="M34.6516 16.0311C34.6419 15.9405 34.5837 15.8551 34.5304 15.815L32.5233 13.5555C32.5136 13.4649 32.4602 13.4248 32.4118 13.43C32.3633 13.4352 32.31 13.3951 32.2082 13.3602C32.1597 13.3654 32.0628 13.3758 32.0143 13.381C31.9659 13.3862 31.8738 13.4419 31.8253 13.4471C31.7817 13.4976 31.7381 13.5481 31.6945 13.5986C31.6509 13.6491 31.6557 13.6944 31.617 13.7902C31.6218 13.8355 31.6316 13.9261 31.6364 13.9714C31.6413 14.0167 31.6995 14.1021 31.7528 14.1422L33.7599 16.4017C33.8181 16.4871 33.9732 16.5622 34.0701 16.5518C34.2204 16.5815 34.3125 16.5258 34.4045 16.4701C34.4482 16.4196 34.5402 16.3639 34.5305 16.2733C34.6226 16.2176 34.6613 16.1218 34.6516 16.0311Z" fill="#553597"/>
<path d="M38.9843 15.2938C38.9746 15.2032 38.9164 15.1178 38.863 15.0777L35.513 11.2666C35.4548 11.1812 35.2997 11.1062 35.2028 11.1166C35.0525 11.0868 34.9604 11.1425 34.8683 11.1982C34.8247 11.2487 34.7811 11.2993 34.7375 11.3498C34.6939 11.4003 34.6988 11.4456 34.66 11.5414C34.6649 11.5867 34.6746 11.6773 34.6794 11.7226C34.6843 11.7679 34.7425 11.8533 34.7473 11.8986L38.0974 15.7097C38.1556 15.7951 38.2574 15.83 38.3592 15.865C38.461 15.8999 38.5579 15.8895 38.65 15.8338C38.742 15.7781 38.8341 15.7224 38.8729 15.6266C38.9552 15.4803 38.994 15.3844 38.9843 15.2938Z" fill="#553597"/>
<path d="M19.2387 33.723L16.3928 30.4994L18.3845 28.9569L21.2303 32.1805L19.2387 33.723Z" fill="#553597"/>
<path d="M21.7201 32.1776C21.7104 32.087 21.6522 32.0016 21.5989 31.9615L18.7531 28.7379C18.6997 28.6978 18.6464 28.6577 18.5931 28.6176C18.5398 28.5775 18.4913 28.5827 18.3895 28.5477C18.2393 28.518 18.1472 28.5737 18.0115 28.6799L16.0198 30.2225C15.9762 30.273 15.9326 30.3235 15.889 30.374C15.8454 30.4245 15.8503 30.4698 15.8115 30.5656C15.8164 30.6109 15.8261 30.7015 15.8309 30.7468C15.8358 30.7921 15.894 30.8775 15.8988 30.9228L18.7447 34.1464C18.8029 34.2318 18.958 34.3068 19.0549 34.2965C19.2052 34.3262 19.2972 34.2705 19.3893 34.2148L21.381 32.6722C21.4246 32.6217 21.4682 32.5712 21.5118 32.5207C21.5554 32.4702 21.5506 32.4249 21.5893 32.3291C21.725 32.2229 21.7201 32.1776 21.7201 32.1776ZM18.3074 29.6106L20.5424 32.1664L19.3212 33.1222L17.0862 30.5664L18.3074 29.6106Z" fill="#553597"/>
<path d="M55.2039 8.32849L49.7837 2.12722L51.2326 1.00949L56.6528 7.21077L55.2039 8.32849Z" fill="#553597"/>
<path d="M57.1371 7.16017C57.1274 7.06956 57.0692 6.98414 57.0159 6.94403L51.5957 0.742755C51.5424 0.702645 51.4891 0.662536 51.4357 0.622426C51.3824 0.582316 51.3339 0.587512 51.2321 0.552599C51.1352 0.562992 50.9898 0.578583 50.9026 0.679589L49.4537 1.79731C49.4101 1.84782 49.3665 1.89832 49.3228 1.94882C49.2792 1.99933 49.2841 2.04463 49.2453 2.14044C49.2502 2.18575 49.2599 2.27636 49.2648 2.32167C49.2696 2.36698 49.3278 2.45239 49.3327 2.4977L54.7529 8.69897C54.8111 8.78439 54.9662 8.85941 55.0631 8.84902C55.2134 8.87874 55.3055 8.82304 55.446 8.76214L56.8949 7.64442C56.9385 7.59391 56.9821 7.54341 57.0209 7.4476C57.1033 7.30129 57.1469 7.25078 57.1371 7.16017ZM51.1549 1.66074L55.9594 7.14897L55.281 7.67998L50.428 2.19695L51.1549 1.66074Z" fill="#553597"/>
</svg>
