<svg width="56" height="56" viewBox="0 0 56 56" fill="none" xmlns="http://www.w3.org/2000/svg">
<path d="M16.3334 51.3337H9.33341C8.09574 51.3337 6.90875 50.842 6.03358 49.9668C5.15841 49.0917 4.66675 47.9047 4.66675 46.667V30.3337C4.66675 29.096 5.15841 27.909 6.03358 27.0338C6.90875 26.1587 8.09574 25.667 9.33341 25.667H16.3334M32.6667 21.0003V11.667C32.6667 9.81048 31.9293 8.03 30.6165 6.71724C29.3037 5.40449 27.5233 4.66699 25.6667 4.66699L16.3334 25.667V51.3337H42.6534C43.7788 51.3464 44.871 50.9519 45.7285 50.223C46.5861 49.4941 47.1513 48.4798 47.3201 47.367L50.5401 26.367C50.6416 25.6982 50.5965 25.0152 50.4079 24.3656C50.2193 23.7159 49.8917 23.115 49.4477 22.6045C49.0038 22.094 48.4543 21.6862 47.8371 21.4092C47.2199 21.1322 46.5499 20.9927 45.8734 21.0003H32.6667Z" stroke="#6F46BE" stroke-width="5.16667" stroke-linecap="round" stroke-linejoin="round"/>
</svg>
