<svg width="186" height="186" viewBox="0 0 186 186" fill="none" xmlns="http://www.w3.org/2000/svg">
<g clip-path="url(#clip0_2173_2176)">
<path d="M183.335 118.55H38.9492C37.768 118.556 36.8057 117.597 36.7996 116.408C36.7996 116.404 36.7996 116.4 36.7996 116.396V2.67361C36.7996 1.48474 37.7557 0.520087 38.9369 0.519317C38.9408 0.519317 38.9454 0.519317 38.9492 0.519317H183.335C184.516 0.513153 185.478 1.47241 185.484 2.66128C185.484 2.66513 185.484 2.66975 185.484 2.67361V116.423C185.473 117.608 184.511 118.559 183.335 118.551V118.55Z" fill="white"/>
<path d="M185.407 7.89913V2.84087C185.411 1.65431 184.458 0.690429 183.279 0.688118C183.276 0.688118 183.272 0.688118 183.269 0.688118H38.9893C37.811 0.685036 36.8534 1.6443 36.8503 2.83085C36.8503 2.83393 36.8503 2.83778 36.8503 2.84087V7.89913H185.407H185.407Z" fill="#A78ED7"/>
<path d="M182.295 4.28013L183.568 2.99881C183.718 2.84702 183.718 2.60047 183.568 2.44868C183.417 2.29689 183.172 2.29689 183.021 2.44868L181.748 3.73L180.476 2.44868C180.325 2.29689 180.08 2.29689 179.929 2.44868C179.779 2.60047 179.779 2.84702 179.929 2.99881L181.202 4.28013L179.929 5.56146C179.779 5.71324 179.779 5.9598 179.929 6.11159C180.08 6.26337 180.325 6.26337 180.476 6.11159L181.748 4.83026L183.021 6.11159C183.172 6.26337 183.417 6.26337 183.568 6.11159C183.718 5.9598 183.718 5.71324 183.568 5.56146L182.295 4.28013Z" fill="#553597"/>
<path d="M183.442 3.1523e-05H38.8425C37.4391 -0.00690288 36.2947 1.13111 36.2839 2.54342V116.265C36.2939 117.678 37.4383 118.816 38.8425 118.809H183.442C184.838 118.823 185.982 117.698 186.001 116.292V2.54419C185.991 1.13111 184.846 -0.00690288 183.442 0.000802012L183.442 3.1523e-05ZM38.8425 0.778226H183.442C184.419 0.770521 185.218 1.56027 185.228 2.54342V7.78197H37.0571V2.54419C37.0671 1.56104 37.8656 0.771291 38.8425 0.778996V0.778226ZM185.227 8.56094V22.8281H37.0571V8.56094H185.227ZM183.442 118.031H38.8425C37.8656 118.039 37.0671 117.249 37.0571 116.266V23.6063H185.227V116.293C185.209 117.269 184.411 118.046 183.442 118.031Z" fill="#553597"/>
<path d="M176.594 6.22557H175.048C174.408 6.22557 173.889 5.7024 173.888 5.05827V3.50189C173.888 2.85776 174.408 2.33537 175.048 2.33459H176.594C177.235 2.33459 177.753 2.85776 177.754 3.50189V5.05827C177.754 5.7024 177.235 6.2248 176.594 6.22557ZM175.048 3.11279C174.834 3.11279 174.661 3.28692 174.661 3.50189V5.05827C174.661 5.27324 174.834 5.44737 175.048 5.44737H176.594C176.808 5.44737 176.981 5.27324 176.981 5.05827V3.50189C176.981 3.28692 176.808 3.11279 176.594 3.11279H175.048Z" fill="#553597"/>
<path d="M171.44 6.22558H168.349C168.135 6.22558 167.962 6.05145 167.962 5.83649C167.962 5.62152 168.135 5.44739 168.349 5.44739H171.44C171.654 5.44739 171.827 5.62152 171.827 5.83649C171.827 6.05145 171.654 6.22558 171.44 6.22558Z" fill="#553597"/>
<path d="M168.348 19.7153H74.0349C73.2525 19.7146 72.6184 19.0758 72.6177 18.2884V13.0999C72.6184 12.3125 73.2525 11.6745 74.0349 11.673H168.348C169.131 11.6737 169.765 12.3125 169.766 13.0999V18.2884C169.765 19.0758 169.131 19.7138 168.348 19.7153ZM74.0349 12.4519C73.6791 12.4519 73.3909 12.7424 73.3909 13.1007V18.2892C73.3909 18.6474 73.6791 18.9379 74.0349 18.9379H168.348C168.704 18.9379 168.992 18.6474 168.992 18.2892V13.1007C168.992 12.7424 168.704 12.4519 168.348 12.4519H74.0349Z" fill="#553597"/>
<path d="M51.101 19.196C50.8873 19.196 50.7144 19.0227 50.7136 18.8077C50.7136 18.6937 50.7628 18.5858 50.8489 18.5118L54.1145 15.6942L50.8489 12.8765C50.6867 12.7363 50.6683 12.4905 50.8074 12.3279C50.9465 12.1646 51.1909 12.1461 51.3523 12.2855L54.9599 15.3983C55.1221 15.5378 55.1406 15.7835 55.0022 15.9469C54.9891 15.9623 54.9753 15.9762 54.9599 15.9893L51.3523 19.102C51.2824 19.1629 51.1932 19.196 51.1002 19.196H51.101Z" fill="#553597"/>
<path d="M44.9165 19.196C44.8243 19.196 44.7352 19.1629 44.6652 19.102L41.0576 15.9892C40.8954 15.8498 40.877 15.604 41.0153 15.4406C41.0284 15.4252 41.0422 15.4113 41.0576 15.3983L44.6652 12.2855C44.8274 12.1452 45.0718 12.1645 45.2101 12.3279C45.3492 12.4912 45.3308 12.737 45.1686 12.8764L41.903 15.6941L45.1686 18.5118C45.3308 18.6513 45.3492 18.897 45.2109 19.0604C45.1371 19.1467 45.0303 19.196 44.9173 19.196H44.9165Z" fill="#553597"/>
<path d="M66.6906 15.305C66.4769 15.305 66.304 15.4791 66.304 15.6941C66.314 17.1364 65.1604 18.3145 63.7278 18.3245C62.2944 18.3345 61.1246 17.1734 61.1147 15.7311C61.1047 14.2887 62.2583 13.1106 63.6909 13.1006C64.0022 13.0983 64.3111 13.1522 64.6032 13.2609L63.8615 13.5097C63.6586 13.5775 63.5495 13.7979 63.6171 14.0021C63.6847 14.2063 63.9038 14.3157 64.1059 14.2479L65.6523 13.7293C65.8544 13.6615 65.9643 13.4412 65.8967 13.237C65.8905 13.2193 65.8836 13.2023 65.8759 13.1861L65.1027 11.6297C65.0074 11.4371 64.7753 11.3593 64.584 11.4556C64.3926 11.5519 64.3157 11.7854 64.411 11.978L64.6485 12.4572C62.8708 11.9456 61.0178 12.982 60.5098 14.7718C60.0018 16.5616 61.0317 18.427 62.8093 18.9378C64.587 19.4487 66.44 18.4131 66.9481 16.6233C67.0334 16.3213 67.0772 16.0092 67.0772 15.6948C67.0772 15.4799 66.9042 15.3057 66.6906 15.3057V15.305Z" fill="#553597"/>
<path d="M181.635 18.662L179.458 16.47C180.459 15.1586 180.214 13.2794 178.912 12.2716C177.609 11.2645 175.742 11.5103 174.741 12.8217C173.741 14.1331 173.985 16.0123 175.288 17.0201C176.356 17.8461 177.843 17.8461 178.912 17.0201L181.089 19.2121C181.24 19.3639 181.485 19.3639 181.635 19.2121C181.786 19.0604 181.786 18.8138 181.635 18.662ZM174.92 14.657C174.92 13.4389 175.9 12.4519 177.11 12.4519C178.32 12.4519 179.3 13.4389 179.3 14.657C179.3 15.8751 178.32 16.8621 177.11 16.8621C175.901 16.8606 174.921 15.8744 174.92 14.657Z" fill="#553597"/>
<path d="M115.546 36.0728C99.0558 36.0728 85.6729 49.4557 85.6729 65.9455C85.6729 82.4352 99.0558 95.8182 115.546 95.8182C132.035 95.8182 145.418 82.4352 145.418 65.9455C145.418 49.4557 132.035 36.0728 115.546 36.0728ZM115.546 89.8437C102.372 89.8437 91.6474 79.1194 91.6474 65.9455C91.6474 52.7716 102.372 42.0473 115.546 42.0473C128.719 42.0473 139.444 52.7716 139.444 65.9455C139.444 79.1194 128.719 89.8437 115.546 89.8437ZM129.257 52.7417L109.571 72.4279L101.834 64.7207L97.6219 68.9328L109.571 80.8818L133.469 56.9837L129.257 52.7417Z" fill="#6F46BE"/>
<path d="M57.1097 56.8999L58.4063 57.6303C58.4063 57.6303 58.2242 58.9687 57.1705 59.0095C56.0968 59.0904 57.1097 56.9007 57.1097 56.9007V56.8999Z" fill="#A78ED7"/>
<path d="M56.5424 55.2571C56.5424 55.2571 58.224 58.4816 57.211 60.7731C56.1781 63.0853 55.1651 63.6932 52.957 63.2471L52.552 60.5904L50.304 56.879L53.0385 55.7433L56.5432 55.2563L56.5424 55.2571Z" fill="#A78ED7"/>
<path d="M99.5867 63.4298L102.949 57.1225L105.623 51.8701L105.603 52.9858L103.821 57.7513L101.41 63.6124C100.803 63.7341 100.175 63.6732 99.5874 63.4298H99.5867Z" fill="#553597"/>
<path d="M92.9224 70.5283L95.9813 65.1742L97.5614 62.8419L100.114 60.2053C100.458 60.9357 100.458 61.7671 100.073 62.4767C99.4252 63.6733 99.5666 63.4298 99.5666 63.4298C99.5666 63.4298 100.519 63.7342 100.782 63.7134C100.985 63.6933 101.187 63.6525 101.369 63.6117L102.078 62.0298C102.078 62.0298 102.868 62.7194 102.604 63.5308C102.503 63.916 102.34 64.2812 102.117 64.6256C102.117 64.6256 102.401 65.6196 101.611 66.0857C101.611 66.0857 101.975 67.1197 101.145 67.6875C101.145 67.6875 100.842 68.7824 99.9909 68.9041C99.1401 69.0259 99.1808 69.5329 99.1808 69.5329L96.507 76.0628C96.507 76.0628 96.2434 73.7105 94.9268 72.2504C93.6103 70.7903 92.9216 70.5268 92.9216 70.5268L92.9224 70.5283Z" fill="#A78ED7"/>
<path d="M14.8556 174.076L14.3083 175.292C14.3083 175.292 15.0577 174.4 15.8678 174.866C16.6778 175.333 17.225 175.982 17.3057 176.935C17.3864 177.888 17.9744 180.727 17.9744 180.727L18.6023 184.195L19.1695 185.554L22.0055 185.615L22.897 185.229C22.897 185.229 23.3221 184.682 22.9578 184.135C22.9578 184.135 21.7826 184.642 20.9526 184.561C20.5068 184.52 20.061 184.398 19.656 184.175L19.1088 181.924L18.663 178.882L18.2173 176.327L17.1236 174.644L15.9085 173.954L14.8556 174.076Z" fill="white"/>
<path d="M18.7853 166.694L16.415 171.602C16.415 171.602 17.8131 171.318 18.6631 171.987C19.5139 172.657 19.5946 173.852 19.4332 174.563C19.2718 175.273 19.4332 176.428 19.6761 176.672C19.9189 176.854 20.2025 176.996 20.4861 177.077C20.4861 177.077 20.2832 176.226 20.8105 175.617C21.3377 175.008 24.943 170.811 24.943 170.811C24.943 170.811 23.0792 170.608 21.0941 169.046C19.1089 167.464 18.7845 166.694 18.7845 166.694H18.7853Z" fill="#A78ED7"/>
<path d="M54.1923 183.607C54.5166 183.809 54.8809 183.972 55.2452 184.094C55.7317 184.236 56.2374 184.296 56.7439 184.276C58.2226 184.236 59.7013 184.094 61.1393 183.83C63.0638 183.506 64.9883 183.141 66.912 182.715C66.932 182.674 66.8513 182.695 66.8713 182.735C66.8913 182.775 66.932 182.755 66.9927 182.755C67.1341 182.775 67.2156 182.896 67.1956 183.038V183.079C67.1549 183.221 67.0742 183.322 66.9527 183.403C65.8383 184.336 64.3396 184.62 62.9216 184.883C60.8557 185.269 58.7891 185.654 56.6824 185.695C55.9938 185.736 55.3251 185.675 54.6565 185.512C54.0693 185.35 53.4614 185.025 53.1978 184.478C53.0563 184.154 52.9949 183.647 53.1978 183.322C53.4007 182.978 53.9271 183.464 54.19 183.606L54.1923 183.607Z" fill="white"/>
<path d="M62.7003 168.336L61.5251 174.035L60.1271 178.983C60.1271 178.983 60.0057 181.781 58.3848 181.741C56.7639 181.701 56.4196 180.869 56.4196 180.869C56.4196 180.869 55.4066 179.328 54.0493 179.814C54.0493 179.814 54.9409 175.92 55.0016 175.292C55.0216 175.009 55.2852 171.663 55.2852 171.663C55.2852 171.663 56.1559 171.926 59.0934 170.75C62.0308 169.575 62.6987 168.337 62.6987 168.337L62.7003 168.336Z" fill="#A78ED7"/>
<path d="M92.8816 70.6293C92.8816 70.6293 90.2485 75.1313 87.5339 77.5853C84.8193 80.0393 82.8341 81.3168 77.8108 80.749C72.7875 80.1811 66.8726 73.8338 66.8726 73.8338C66.8726 73.8338 62.6793 69.1292 59.074 68.0744C56.8659 67.4457 54.5771 67.1413 52.2884 67.2022C52.2884 67.2022 50.6475 73.0633 49.0473 75.9426C47.4472 78.8227 39.6486 88.0293 39.6486 88.0293L35.2124 92.8156L26.4616 97.4801C26.4616 97.4801 27.6159 101.516 28.9125 104.598C30.2091 107.68 32.1943 110.966 33.8751 112.426L32.1328 118.612C32.1328 118.612 30.9984 122.384 30.8162 124.432C30.6341 126.48 31.3027 129.116 31.3027 129.116C31.3027 129.116 29.9047 131.692 28.8518 136.295C27.7989 140.898 28.8518 143.92 28.8518 143.92L24.5171 153.472L18.7644 166.674C18.7644 166.674 19.6152 168.499 22.5926 169.979C25.57 171.459 28.8518 170.588 28.8518 170.588C28.8518 170.588 33.4901 169.676 34.8881 170.405C36.2861 171.135 38.352 172.981 39.9114 172.677C41.4708 172.372 47.3457 170.932 47.3457 170.932C47.3457 170.932 49.1887 171.115 51.2754 171.541C53.362 171.967 57.9596 171.419 60.7349 169.736C63.5102 168.052 63.1858 165.578 63.1858 165.578L66.4269 145.38C66.4269 145.38 68.047 131.184 68.2699 126.986C68.4928 122.788 68.6142 111.999 68.6142 111.999L67.8041 102.853L69.1406 103.238C69.1406 103.238 73.0703 105.469 79.8967 105.307C86.7231 105.145 91.4428 102.589 91.4428 102.589C91.4428 102.589 95.5954 97.9047 96.4661 87.6025C97.3369 77.3002 96.5876 75.475 95.5954 73.2852C94.6031 71.0955 92.8808 70.6286 92.8808 70.6286L92.8816 70.6293Z" fill="#A78ED7"/>
<path d="M101.45 63.7549C101.551 63.7549 101.652 63.6941 101.692 63.5924L106.817 50.7753C106.898 50.5726 106.797 50.3292 106.574 50.2482C106.554 50.2482 106.514 50.2282 106.494 50.2282C106.312 50.2082 106.149 50.2891 106.069 50.4517L99.3637 63.3288C99.303 63.4506 99.3437 63.6124 99.4851 63.6733C99.6266 63.7341 99.7687 63.6933 99.8295 63.5515L105.481 52.7223L101.227 63.3897C101.166 63.5315 101.247 63.6733 101.368 63.7341C101.388 63.7542 101.429 63.7542 101.449 63.7542L101.45 63.7549Z" fill="#553597"/>
<path d="M100.802 63.9976C101.146 63.9976 101.49 63.9568 101.815 63.8959C101.956 63.8551 102.038 63.7133 101.997 63.5716C101.956 63.4498 101.835 63.3689 101.713 63.3689C100.254 63.6324 99.748 63.2472 99.748 63.2271C99.6466 63.1254 99.4844 63.1462 99.3837 63.2472C99.2823 63.3489 99.303 63.5307 99.4037 63.6124C99.4644 63.6733 99.8495 63.9976 100.802 63.9976Z" fill="#553597"/>
<path d="M100.092 62.761C100.194 62.761 100.295 62.7002 100.335 62.6193C101.065 61.0783 100.376 60.1044 100.335 60.0643C100.234 59.9626 100.072 59.9426 99.971 60.0443C99.8695 60.1252 99.8495 60.2677 99.9302 60.3887C99.9502 60.4295 100.457 61.1592 99.8695 62.3966C99.8088 62.5183 99.8695 62.6801 99.991 62.741C100.011 62.741 100.052 62.761 100.092 62.761Z" fill="#553597"/>
<path d="M0.615632 77.1591C1.32425 74.0764 2.5601 71.4806 4.09953 69.838C8.89997 64.7273 16.4757 64.9299 22.0263 65.0925C23.89 65.1534 25.4902 65.1942 26.6853 65.0316L26.7867 65.0116C31.5872 64.3629 38.8593 63.4098 41.6953 55.8451C42.8497 52.7832 44.6328 50.6736 47.023 49.5987C49.5547 48.443 52.0463 48.8282 52.9986 49.2135C54.7809 49.883 57.2726 52.0728 56.7868 55.2772C56.7669 55.3581 56.7261 55.419 56.6654 55.4799C56.6454 55.4999 56.0782 55.8243 55.8553 56.8383C55.7746 57.2435 55.7339 57.6496 55.7539 58.0549C55.7539 58.5418 55.7539 58.9671 55.3489 59.1906C55.1667 59.2923 54.9438 59.2923 54.7617 59.1906C54.5588 59.0889 54.2352 58.8053 54.1338 57.994C54.1138 57.6696 53.9309 57.3653 53.668 57.1827C53.4859 57.0609 53.263 57.0201 53.0401 57.0609C52.8779 57.1018 52.7565 57.2235 52.6758 57.3653C52.4936 57.7706 52.4729 58.2167 52.6151 58.6427C52.6958 58.9263 52.8579 59.1906 53.0608 59.4132C53.3444 59.7176 53.5266 60.1229 53.5266 60.5489C53.5673 63.0638 53.0001 72.2303 44.2493 84.2353C39.1045 91.313 33.3311 96.0377 27.1326 98.2891C24.5195 99.2421 21.7442 99.7491 18.9489 99.7491C18.5239 99.7491 18.0981 99.7491 17.6731 99.7083C14.3107 99.5056 11.0289 98.6335 7.99076 97.1934C2.9267 94.8812 1.04295 90.2575 0.374303 86.7903C-0.192897 83.6066 -0.112198 80.3212 0.617169 77.1576L0.615632 77.1591Z" fill="#553597"/>
<path d="M57.8589 113.764C57.4946 115.61 57.1295 117.435 56.7245 119.28C56.3395 121.105 55.9144 122.931 55.4687 124.756C55.0229 126.581 54.5771 128.386 54.1114 130.211L53.7471 131.569L53.3828 132.928C53.1192 133.84 52.8763 134.733 52.6127 135.625C52.3491 136.538 52.0862 137.431 51.8226 138.323C51.539 139.215 51.2754 140.107 50.9718 141C50.6882 141.892 50.3846 142.784 50.101 143.656C49.9596 144.102 49.7974 144.548 49.6353 144.974L49.4124 145.644L49.1695 146.293L48.683 147.611L48.1765 148.929C48.0144 149.376 47.8522 149.802 47.6701 150.228L47.4064 150.876L47.285 151.201L47.1636 151.525L46.6371 152.823C46.455 153.27 46.2728 153.675 46.0899 154.122L45.8263 154.77C45.7456 154.994 45.6234 155.197 45.5427 155.419L44.9755 156.697C44.9148 156.838 44.9755 156.98 45.0969 157.041C45.2183 157.102 45.3605 157.041 45.4212 156.919C45.867 156.088 46.3527 155.277 46.7785 154.425L47.1029 153.797C47.2043 153.594 47.3257 153.37 47.4272 153.168L48.0351 151.89L48.1765 151.566L48.298 151.262L48.5816 150.613C48.7845 150.187 48.9666 149.762 49.1688 149.315L49.716 148.016L50.2424 146.698C50.9511 144.954 51.579 143.169 52.1869 141.385C52.4905 140.493 52.7741 139.579 53.0577 138.687C53.3213 137.795 53.6249 136.882 53.8678 135.99C54.9215 132.36 55.8122 128.709 56.5823 124.998C56.9674 123.153 57.2909 121.307 57.6153 119.441C57.7567 118.508 57.8989 117.576 58.0403 116.643C58.1617 115.71 58.2832 114.777 58.3646 113.824C58.3846 113.682 58.2632 113.54 58.1218 113.54C58.0003 113.54 57.8789 113.642 57.8581 113.763L57.8589 113.764Z" fill="#553597"/>
<path d="M52.2476 66.9795L53.0377 63.4306C53.0377 63.4105 53.0377 63.3897 53.0577 63.3697C53.0577 63.3497 53.0777 63.3497 53.0777 63.3289L53.1184 63.288L53.1791 63.268H53.3205C53.7056 63.3489 54.1106 63.3289 54.4749 63.248C55.3665 63.0453 56.0951 62.4366 56.6423 61.4836C57.3309 60.2669 57.1895 58.7052 56.9459 57.5895C56.7837 56.839 56.5408 56.1294 56.2372 55.4198C56.1765 55.278 56.2372 55.1363 56.3587 55.0754C56.4801 55.0145 56.6423 55.0754 56.703 55.1971C56.9059 55.6633 57.088 56.1302 57.2095 56.6164C57.2295 56.6364 57.2702 56.6572 57.2702 56.6772C57.5131 56.9608 57.8174 57.1642 58.1617 57.2859C58.4653 57.4077 58.6075 57.7729 58.526 58.1982C58.4453 58.6643 58.101 59.0496 57.6345 59.1713C57.6752 60.0635 57.4931 60.9558 57.0673 61.7471C56.3787 62.9637 55.4871 63.4914 54.7378 63.7141L54.1706 67.0804C54.1506 67.2021 54.0491 67.3038 53.907 67.3038L52.4282 67.3447C52.3475 67.3447 52.2661 67.3038 52.2253 67.243C52.2453 67.1212 52.2253 67.0403 52.2453 66.9795H52.2476ZM57.6967 58.5834C57.8789 58.5025 58.0003 58.36 58.061 58.1782C58.1218 58.0364 58.1218 57.8738 58.061 57.732C57.8789 57.6712 57.6967 57.5695 57.5346 57.4685C57.5953 57.8337 57.656 58.199 57.6967 58.5842V58.5834Z" fill="#553597"/>
<path d="M13.8218 175.658C13.9632 175.212 14.1461 174.766 14.369 174.36L14.389 174.279C14.409 174.259 14.4297 174.218 14.4497 174.198C15.1383 172.92 16.1106 171.419 16.232 171.237L18.5415 166.593C18.663 166.329 24.5371 153.087 27.9403 145.421C28.1432 144.975 28.3653 144.488 28.5882 143.941C28.4667 143.596 28.1224 142.359 28.1632 140.25C28.1831 139.601 28.2239 138.932 28.3046 138.283V138.161C28.3046 138.141 28.3046 138.12 28.3246 138.1C28.6281 135.87 29.3575 132.848 31.0184 129.116C29.7625 125.75 31.0591 121.451 32.4364 116.908C32.8614 115.489 33.3072 114.008 33.6722 112.589C31.7477 110.763 29.9455 107.823 28.3246 103.828C27.5952 102.044 26.9673 100.218 26.4608 98.3523C26.4201 98.2105 26.5015 98.0687 26.6429 98.0279C26.7844 97.9871 26.9265 98.0687 26.9673 98.2105C26.9873 98.3122 29.4789 107.641 33.8136 111.981C33.9351 111.474 34.0365 110.987 34.1172 110.501C34.3201 109.324 34.5023 108.128 34.6437 106.972V106.931C34.6437 106.87 35.008 99.6505 34.0765 97.1357C33.8336 96.4869 33.4893 96.0608 33.0635 95.8782C32.7192 95.7565 32.3342 95.7765 31.9898 95.9391C31.8684 96 31.7062 95.9591 31.6455 95.8374C31.5848 95.7157 31.6048 95.5739 31.7262 95.493L35.2509 93.1807C35.2708 93.1807 35.2708 93.1607 35.2916 93.1607H35.3116C35.3316 93.1607 35.3523 93.1407 35.3723 93.1607H35.5137C35.5337 93.1607 35.5337 93.1807 35.5544 93.1807L35.5744 93.2008C35.5944 93.2008 35.5944 93.2208 35.5944 93.2416V93.2617C35.5944 93.2617 35.6144 93.2817 35.6144 93.3025V93.3225C35.6144 93.3425 35.6344 93.3634 35.6144 93.3834C35.6344 93.6877 36.1209 102.124 34.6014 110.601C34.2164 112.71 33.5477 114.92 32.8998 117.07C31.9076 120.335 30.9753 123.458 30.9961 126.155L31.0368 126.358C31.0776 126.48 31.1583 126.561 31.2797 126.601C31.5633 126.662 31.8469 126.561 32.0091 126.338C32.2927 125.953 32.5155 125.527 32.7177 125.101L33.1634 124.046C36.323 116.137 38.2682 109.262 38.3082 109.181C38.3489 109.039 38.4903 108.957 38.6325 108.998C38.7747 109.039 38.8554 109.181 38.8147 109.323C38.7947 109.403 36.8902 116.116 33.7914 123.924C33.7914 123.944 33.7914 123.965 33.7714 123.985C33.7514 124.026 33.63 124.37 33.4271 124.816C32.8399 126.276 32.212 127.756 31.5433 129.257C30.4896 131.59 29.2545 134.895 28.8287 138.282V138.424C28.8287 138.829 28.8895 139.722 29.5988 139.843C30.1053 139.924 30.5911 139.377 30.9154 138.829C34.0957 131.853 38.0454 123.376 38.0861 123.254C38.1468 123.113 38.309 123.072 38.4304 123.133C38.5518 123.194 38.6125 123.356 38.5518 123.477C38.4911 123.598 34.8858 131.386 31.7862 138.16C31.7862 138.2 31.7862 138.22 31.7662 138.261C31.7055 138.444 31.6248 138.606 31.5433 138.768L29.2138 143.858C28.9102 144.507 28.6466 145.116 28.4237 145.643C25.2027 152.943 19.7136 165.273 19.0857 166.693C19.5514 167.363 22.1845 170.81 26.8643 170.607C27.7351 170.566 28.7073 170.445 29.6396 170.324C30.6725 170.161 31.7055 170.06 32.7592 170.019C32.7999 169.999 32.8399 169.979 32.8806 169.979H32.9413C34.5007 169.979 35.2908 167.585 36.2023 164.807C36.3845 164.259 36.5666 163.691 36.7695 163.123C37.8632 160.001 41.7729 149.82 41.7929 149.718C41.8336 149.638 41.8943 149.577 41.9958 149.556C42.0972 149.536 42.1779 149.576 42.2386 149.637C42.4815 149.92 42.2794 150.712 39.9698 157.282C39.5648 158.418 39.1598 159.595 38.7947 160.669C38.6325 161.156 38.4704 161.623 38.3082 162.069C36.9309 166.084 36.1608 168.294 36.0602 169.532C35.9994 170.404 36.2631 170.83 36.3845 170.951C36.4045 170.971 36.4452 171.012 36.4652 171.032C38.2682 172.614 39.159 172.897 43.0487 171.863C44.2438 171.539 45.1961 171.275 46.0261 171.113C46.0668 171.093 46.1475 171.072 46.2897 171.032C46.8369 170.808 48.1935 169.977 49.0243 167.037C50.2194 162.9 51.5967 156.897 52.8325 151.584C53.4804 148.825 54.0684 146.23 54.5341 144.405C54.777 143.432 54.9799 142.722 55.1213 142.215C55.3442 141.505 55.4656 141.201 55.7692 141.262C55.8499 141.282 55.9314 141.322 55.9721 141.403C56.2557 141.829 55.7899 144.182 53.9869 152.01C53.5411 154.018 53.0554 156.086 52.6504 157.952C52.1846 160.082 51.6581 162.089 51.2124 163.874C50.2809 167.423 49.5922 170.019 50.0372 170.952C50.098 171.093 50.2194 171.195 50.3616 171.235C52.8125 172.047 57.9173 171.235 60.6519 169.593C61.8063 168.883 62.5156 168.092 62.6371 167.28C65.1288 153.713 68.1469 134.021 68.329 117.189C68.349 114.979 68.3291 113.032 68.2683 111.369C67.7619 111.45 67.2554 111.511 66.7489 111.511C65.6552 111.511 64.8044 111.247 64.1158 110.76C62.9007 109.848 62.5764 108.266 62.4549 106.826C62.232 104.514 62.0299 103.379 59.3561 101.087C56.2572 98.4301 55.4871 96.2604 55.1628 94.6786C54.9806 93.7864 55.1628 92.5898 56.2772 92.1637C57.108 91.8594 58.0395 92.2045 58.4446 92.975C58.7889 93.6238 59.2147 94.3334 59.2147 94.3542C59.2346 94.3742 59.2346 94.395 59.2554 94.4151C60.1062 95.936 61.1799 97.3352 62.4357 98.5518C65.3931 101.492 69.1407 103.521 73.2325 104.392C77.4657 105.284 81.8412 105.203 86.0344 104.21C87.8167 103.804 89.5591 103.216 91.2 102.425C92.1722 101.208 93.3473 99.2414 94.3595 96.1587C94.2181 96.2196 94.0559 96.2804 93.9137 96.3413C92.6779 96.8074 91.4221 97.2335 90.1662 97.6188C88.9104 98.004 87.6346 98.3492 86.338 98.6327C85.0415 98.9163 83.7449 99.1197 82.4084 99.2414C82.084 99.2615 81.7605 99.2823 81.4161 99.3023C81.0718 99.3223 80.7475 99.3223 80.4239 99.3223H79.9174L79.4309 99.3023L78.4587 99.2414C77.1621 99.1605 75.8863 99.0388 74.5898 98.8562C73.2932 98.6736 72.0374 98.4709 70.7815 98.1866C70.1536 98.0649 69.5257 97.9031 68.8978 97.7405C68.5735 97.6596 68.2699 97.5779 67.9663 97.477C67.642 97.3961 67.3384 97.2944 67.0348 97.1935H67.0148C66.8734 97.1526 66.8119 96.9908 66.8526 96.849C66.8934 96.7073 67.0555 96.6464 67.197 96.6865H67.2169C67.3584 96.7473 67.5005 96.8082 67.6627 96.849C67.8041 96.9099 67.9663 96.9507 68.1085 96.9908C68.4121 97.0717 68.7164 97.1734 69.02 97.2543C69.6279 97.4169 70.2558 97.5587 70.8838 97.6596C72.1396 97.883 73.3954 98.0449 74.672 98.1258C75.2999 98.1666 75.9478 98.1866 76.5757 98.2066C77.2036 98.2066 77.8515 98.2066 78.4795 98.1866C78.8038 98.1666 79.1074 98.1666 79.4317 98.1258C79.756 98.1057 80.0596 98.0849 80.3632 98.0448C80.9711 97.984 81.5991 97.8823 82.2062 97.7613C82.5098 97.7004 82.8142 97.6396 83.1177 97.5587C83.4213 97.4778 83.7257 97.3961 84.0093 97.2952C84.3129 97.2143 84.5965 97.1126 84.9008 97.0116C85.2052 96.9107 85.488 96.809 85.7716 96.6872C86.9467 96.2411 88.0811 95.7342 89.1948 95.1663C89.742 94.8828 90.2884 94.5784 90.8357 94.2741C91.3829 93.9697 91.9093 93.6454 92.4358 93.3009C92.9623 92.9565 93.4688 92.6114 93.9752 92.2669C94.2389 92.0843 94.4817 91.9017 94.7246 91.7191L95.0889 91.4356L95.271 91.2938L95.3517 91.2329L95.3925 91.1921C95.3925 91.1921 95.4124 91.1721 95.4332 91.1721C95.4939 91.0503 95.5746 90.9486 95.6761 90.8477C95.7975 90.1781 95.8989 89.4893 96.0004 88.7389C96.2233 87.137 96.3855 85.21 96.4869 83.243C95.9604 83.8917 95.3932 84.5004 94.826 85.1083C94.1981 85.7779 93.5295 86.4066 92.8608 87.0346L92.5972 87.278L92.3336 87.5015C92.1514 87.6432 91.9893 87.8058 91.8271 87.9476C91.4828 88.2519 91.1385 88.5355 90.7742 88.8198C90.4299 89.1033 90.0656 89.3876 89.7005 89.6511C89.5183 89.7929 89.3362 89.9146 89.1533 90.0564C88.9704 90.1982 88.789 90.3199 88.6061 90.4417C87.1273 91.4757 85.5679 92.4288 83.9678 93.2809C83.8463 93.3418 83.7042 93.3009 83.6235 93.2C83.5428 93.0783 83.5827 92.9165 83.7042 92.8348C85.1829 91.8617 86.6009 90.7868 87.9582 89.6303C88.1203 89.4886 88.2825 89.3468 88.4646 89.1842C88.6468 89.0216 88.789 88.9007 88.9511 88.7381C89.2755 88.4338 89.599 88.1294 89.9234 87.8258C90.2477 87.5223 90.5513 87.1971 90.8549 86.8928C90.9963 86.7302 91.1584 86.5684 91.3006 86.4058L91.5235 86.1624L91.7464 85.9189C92.3336 85.2701 92.9008 84.5805 93.428 83.891C93.9553 83.2014 94.481 82.4918 94.9675 81.7613C95.454 81.0517 95.9197 80.3012 96.3447 79.5508C96.4054 79.4491 96.4661 79.3482 96.5269 79.2264C96.4861 78.1716 96.4054 77.1376 96.2233 76.0828C95.5954 72.4122 93.7524 71.2565 92.8808 70.9113C90.1263 75.3932 86.946 79.7126 82.5505 80.8483C81.7197 81.0717 80.8689 81.1727 80.0189 81.1727C77.7301 81.1727 75.3399 80.4022 72.7675 78.8604C69.8101 77.076 67.2377 74.622 65.1718 72.6549C64.2403 71.7627 63.4502 71.0122 62.7816 70.4852C62.478 70.2417 62.1536 69.9983 61.8093 69.7756H61.1407C60.9378 69.7956 60.7356 69.8164 60.5128 69.8565C60.1077 69.9374 59.7027 70.0591 59.3176 70.2217C58.5475 70.5461 57.8589 71.033 57.3125 71.6409C56.7453 72.2697 56.2995 72.9593 55.9552 73.7297C55.773 74.115 55.6308 74.5002 55.5094 74.9063C55.388 75.3116 55.2666 75.7376 55.1451 76.1437C54.6794 77.8272 54.2743 79.5308 53.8086 81.2135C53.3628 82.9171 52.8771 84.6206 52.2692 86.3034C51.9656 87.1347 51.6412 87.9869 51.2769 88.7974C50.9126 89.6288 50.4669 90.4401 49.9804 91.2106C49.4739 92.0219 48.866 92.7516 48.1573 93.4011C47.7723 93.7255 47.3673 94.0298 46.9422 94.2733C46.4965 94.5168 45.99 94.7194 45.4835 94.8211C45.3621 94.8412 45.2199 94.882 45.0985 94.882C44.977 94.882 44.8556 94.9228 44.7134 94.9228C44.4705 94.9429 44.2069 94.9637 43.9433 94.9637C43.4168 94.9637 42.9104 94.8828 42.4039 94.7402C41.4117 94.4567 40.5201 93.9697 39.75 93.3002C39.0207 92.6715 38.3728 91.921 37.8463 91.1097C37.8663 91.1097 37.8663 91.0896 37.887 91.0688C38.0692 90.9671 39.2443 89.9532 39.4265 89.6088C39.4872 89.7305 39.5679 89.8522 39.6294 89.974C40.0144 90.6435 40.5209 91.2514 41.0881 91.7792C41.6146 92.2862 42.2632 92.6715 42.9519 92.8949C43.2962 92.9966 43.6605 93.0775 44.0056 93.0975H44.5528C44.6542 93.0975 44.7349 93.0775 44.8364 93.0775C44.9171 93.0775 45.0185 93.0575 45.1 93.0367C45.8086 92.8949 46.4773 92.5705 47.0445 92.0836C47.6524 91.5766 48.1988 90.9679 48.6446 90.2991C49.1104 89.6095 49.5361 88.8799 49.9204 88.1294C50.3055 87.3589 50.6498 86.5884 50.9534 85.7972C51.6013 84.1953 52.1285 82.5526 52.655 80.8891C53.1615 79.2264 53.6472 77.5429 54.1944 75.8601C54.3358 75.4341 54.458 75.0288 54.6194 74.6027C54.7816 74.1766 54.9438 73.7513 55.1459 73.3453C55.5509 72.5139 56.0774 71.7635 56.7261 71.1147C57.3747 70.4659 58.164 69.959 59.0356 69.6138C59.4606 69.4512 59.9064 69.3303 60.3721 69.2694C60.5343 69.2494 60.6964 69.2285 60.8586 69.2085C60.6964 69.1276 60.5343 69.0259 60.3721 68.945H60.2707C60.1492 68.965 60.007 68.9858 59.8656 69.0059C59.602 69.0667 59.3184 69.1276 59.0756 69.2293C58.5491 69.4119 58.0626 69.6554 57.5968 69.9597C56.6853 70.5684 55.8952 71.379 55.3081 72.292C55.2274 72.4137 55.1666 72.5155 55.0852 72.6364L54.9837 72.819L54.8823 73.0016C54.7409 73.2451 54.6187 73.4886 54.4972 73.7321C54.2743 74.239 54.0722 74.7661 53.8693 75.2938C53.4842 76.3687 53.1607 77.4635 52.7756 78.5792C52.3906 79.6949 52.0055 80.7897 51.5198 81.8846C51.2769 82.4324 50.9933 82.9795 50.689 83.5072C50.3647 84.0551 50.0004 84.5621 49.5953 85.0482C49.1703 85.5552 48.6638 86.0013 48.1166 86.3665C47.833 86.5692 47.5294 86.7318 47.2051 86.8535C47.0429 86.9144 46.8808 86.9752 46.7186 87.0361C46.3943 87.1378 46.0499 87.2187 45.6856 87.2796C45.5235 87.2996 45.3413 87.3204 45.1792 87.3204C44.8348 87.3404 44.4905 87.3204 44.1462 87.3004C43.4983 87.2195 42.8496 87.0977 42.2217 86.8951C42.2017 86.8951 42.181 86.8751 42.161 86.8751C42.0396 86.8142 41.9181 86.7533 41.8167 86.6516C41.8974 86.5707 43.0925 85.2724 43.2347 84.9072C43.6197 85.049 44.0048 85.1507 44.4098 85.2316C44.6527 85.2724 44.8756 85.2925 45.1184 85.2925H45.4628C45.5842 85.2925 45.6856 85.2724 45.8071 85.2516C45.9285 85.2316 46.03 85.2108 46.1314 85.1908C46.2329 85.1499 46.3543 85.1299 46.4557 85.0891C46.6786 85.0082 46.8808 84.9065 47.0837 84.8055C47.5087 84.5621 47.8937 84.2377 48.238 83.8933C48.9674 83.1027 49.5746 82.2097 50.0411 81.2366C50.5476 80.2227 51.0133 79.1887 51.4184 78.1339C51.8434 77.0791 52.2492 75.9842 52.7149 74.9094C52.9378 74.3615 53.1807 73.8345 53.4643 73.3075C53.6057 73.044 53.7679 72.7805 53.91 72.537L54.0315 72.3344L54.1529 72.1518L54.4165 71.7866C55.1459 70.8134 56.0574 69.9813 57.1103 69.3734C57.6368 69.0691 58.184 68.8256 58.7712 68.6638C58.9533 68.6029 59.1355 68.5621 59.3184 68.542C57.0904 67.6498 54.7001 67.2237 52.3099 67.2846C52.1685 67.2846 52.0463 67.1629 52.0463 67.0211C52.0463 66.8793 52.1477 66.7576 52.2891 66.7576C52.532 66.7376 58.4469 66.3924 62.9637 70.063C63.6324 70.6108 64.4424 71.3813 65.3739 72.2735C67.4198 74.2205 69.9515 76.6538 72.869 78.4182C76.2722 80.4869 79.3303 81.1157 82.2477 80.3444C87.3318 79.0261 90.8364 73.064 93.9353 67.8316C94.2796 67.2438 94.6439 66.6551 94.9682 66.0672C95.6161 65.0124 96.2848 63.9784 96.9734 62.9645L96.9934 62.9444L99.8694 60.0243C99.9708 59.9226 100.133 59.9226 100.234 60.0243C100.334 60.126 100.335 60.2878 100.234 60.3895L97.5191 63.2896C96.8504 64.2627 96.1826 65.2975 95.5539 66.3315C95.2096 66.8994 94.8452 67.508 94.5209 68.0759C94.0751 68.8464 93.5894 69.6577 93.1029 70.4482C94.0144 70.8335 95.6961 71.9283 96.4854 75.0311C96.7082 74.3415 97.2347 72.638 97.174 71.7457C97.174 71.5431 97.1333 71.2996 97.1133 71.0361C97.0118 70.1239 96.9104 69.0891 97.6805 68.7239C98.187 68.4804 99.2806 68.5413 99.4021 68.5413H99.4428C99.8071 68.5821 100.172 68.5004 100.496 68.3178C100.699 68.1553 100.799 67.9125 100.82 67.6691C100.82 67.5882 100.861 67.5065 100.941 67.4664C101.367 67.2029 101.549 66.6551 101.327 66.209C101.286 66.1481 101.286 66.0672 101.327 66.0064C101.347 65.9455 101.407 65.8846 101.468 65.8646C101.468 65.8646 102.137 65.6011 101.914 64.5663C101.894 64.4854 101.914 64.3837 101.974 64.3228C102.015 64.282 102.906 63.248 101.853 62.234C101.752 62.1323 101.752 61.9705 101.853 61.8688C101.954 61.7671 102.117 61.7671 102.217 61.8688C103.432 63.0246 102.724 64.2211 102.46 64.5863C102.622 65.4585 102.257 65.9856 101.913 66.229C102.095 66.8377 101.872 67.4865 101.366 67.8517C101.325 68.2369 101.123 68.5821 100.799 68.8048H100.779C100.414 69.0074 100.008 69.1091 99.5834 69.1091C99.3805 69.5961 98.7934 71.0561 98.1854 72.5162C97.8211 73.4084 97.4561 74.3007 97.1725 74.9702C97.031 75.2946 96.9088 75.5789 96.8281 75.7816C96.7874 75.8833 96.7474 75.9642 96.7267 76.005C96.7267 76.005 96.7267 76.025 96.7067 76.0458C97.2939 79.493 97.0103 85.0706 96.5038 88.8221C95.4301 96.6903 93.222 100.746 91.5819 102.795C91.5619 102.815 91.5412 102.836 91.5012 102.856C91.4205 102.897 89.4353 103.931 86.1735 104.701C83.8848 105.249 81.5353 105.532 79.165 105.532C77.1391 105.532 75.1139 105.33 73.1087 104.904C71.3664 104.539 69.6656 103.951 68.0647 103.18C68.5711 105.208 68.7733 110.765 68.7733 111.028C68.7733 111.069 68.7733 111.109 68.7533 111.15C68.814 112.874 68.834 114.862 68.814 117.153C68.6319 134.026 65.593 153.757 63.1021 167.365C63.0821 167.467 63.0613 167.548 63.0413 167.649C63.0613 167.689 63.0613 167.729 63.0413 167.77C62.5149 171.056 61.7655 174.28 60.7933 177.444C61.3405 176.673 62.0084 176.004 62.6571 175.903C63.0214 175.842 63.3864 175.984 63.6293 176.268C63.8929 176.532 63.9936 176.897 63.9129 177.241C63.7915 177.789 63.2043 178.316 62.4949 178.742C62.8999 178.681 63.305 178.742 63.67 178.945C63.9536 179.127 64.1158 179.432 64.1158 179.776V179.898H64.2372C66.121 180.06 66.931 180.77 67.2961 181.338C67.5597 181.723 67.6404 182.21 67.539 182.676C67.3976 183.488 66.8304 184.136 66.0403 184.36C63.9744 184.948 59.7404 185.962 57.0873 186.002H56.8444C54.4949 186.002 53.1376 185.374 52.834 184.745C52.5912 184.258 52.5912 183.67 52.834 182.961V182.92C52.8748 182.615 52.9355 182.291 53.0369 182.007C53.2398 181.277 53.5434 180.02 54.0092 177.871C54.4342 175.904 54.7385 173.916 54.88 171.909C53.0769 172.152 51.3353 172.111 50.1195 171.706C48.7622 171.26 47.6685 171.26 46.1091 171.564C46.0684 171.564 46.0484 171.584 46.0284 171.584C45.2184 171.747 44.2661 172.01 43.091 172.315C41.5515 172.72 40.4579 172.963 39.5256 172.963C38.229 172.963 37.2975 172.497 36.021 171.382C36.021 171.382 36.001 171.382 36.001 171.362C34.563 170.124 32.0106 170.469 29.5596 170.794C28.6074 170.915 27.6352 171.057 26.7444 171.098C26.1572 171.118 25.5493 171.098 24.9621 171.017L21.1946 175.377C21.0125 175.58 20.8703 175.823 20.7696 176.067C21.4782 175.519 22.0662 175.276 22.5119 175.336C22.8155 175.377 23.0791 175.56 23.2205 175.823C23.4234 176.128 23.4634 176.513 23.342 176.857C23.1798 177.284 22.734 177.628 22.1876 177.891C22.4912 177.891 22.7955 177.972 23.0584 178.135C23.322 178.318 23.4634 178.622 23.4634 178.946C23.5041 179.251 23.362 179.555 23.1191 179.758C22.8555 179.92 22.5519 180.001 22.2483 179.981C21.7218 179.961 21.1746 179.859 20.6681 179.697C20.7089 180.813 20.7696 181.928 20.8096 182.638C21.2146 182.597 21.6404 182.658 22.0247 182.8C22.4704 183.044 22.8147 183.429 22.9969 183.895C23.4019 184.422 23.3005 185.193 22.774 185.599C22.5711 185.761 22.3082 185.842 22.0446 185.842H17.507C16.6562 185.842 15.8662 185.437 15.3597 184.767C14.7118 183.875 14.286 182.841 14.0631 181.766C13.5159 178.643 13.4352 177.264 13.8202 175.662L13.8218 175.658ZM63.5102 177.098C63.5509 176.915 63.4902 176.713 63.348 176.591C63.2465 176.469 63.0844 176.388 62.923 176.388H62.8423C62.3765 176.449 61.7279 177.098 61.0192 178.173C60.7556 178.578 60.5327 178.964 60.3713 179.288C60.6957 179.147 61.1207 178.964 61.5665 178.741C62.6809 178.132 63.3895 177.564 63.5109 177.098H63.5102ZM63.5102 179.389C63.328 179.288 63.1051 179.247 62.9022 179.268C62.315 179.308 61.7271 179.409 61.1599 179.592L63.7123 179.855V179.795C63.7123 179.632 63.6516 179.47 63.5094 179.389H63.5102ZM53.3413 183.506C53.2398 183.85 53.2606 184.216 53.402 184.54C53.5642 184.864 54.6986 185.534 57.1903 185.493C59.8034 185.452 63.9559 184.459 66.0018 183.87C66.3869 183.749 66.7312 183.505 66.9333 183.161C66.7304 183.222 66.4468 183.303 66.1025 183.384C65.3324 183.567 64.2795 183.79 63.1044 183.993C61.0385 184.358 58.4453 184.703 57.1895 184.703H57.1488C55.2243 184.683 53.9277 183.993 53.3405 183.506H53.3413ZM54.6379 177.99C54.5164 178.538 54.415 179.024 54.3135 179.47C54.6986 179.429 55.3465 179.572 56.2787 180.403C56.4202 180.525 56.5623 180.667 56.6638 180.829C56.9881 181.215 57.251 181.519 58.0618 181.58C59.054 181.661 59.5405 179.694 59.5405 179.674V179.654C59.6012 179.532 61.1207 175.902 62.3965 168.905C61.9715 169.351 61.485 169.737 60.9378 170.061C59.4998 170.933 57.4739 171.562 55.4887 171.886C55.4887 172.413 55.3472 174.584 54.6379 177.99ZM20.9525 175.029L24.5179 170.912C23.0999 170.588 21.7833 169.959 20.6489 169.067C19.9603 168.54 19.3524 167.911 18.8259 167.222L16.78 171.338C17.4079 171.258 18.0558 171.358 18.6437 171.663C19.3931 172.048 19.8588 172.799 19.8389 173.65C19.8588 174.076 19.7981 174.481 19.6767 174.887C19.5752 175.232 19.5553 175.577 19.616 175.921C19.6567 176.287 19.8796 176.591 20.2239 176.733C20.2846 176.104 20.5275 175.516 20.9533 175.029H20.9525ZM23.0384 176.652C23.0991 176.469 23.0791 176.266 22.9577 176.104C22.897 175.962 22.7548 175.88 22.6134 175.86C22.3905 175.82 21.8433 175.921 20.7496 176.894V177.057C20.7496 177.321 20.7696 177.605 20.7696 177.929C22.0254 177.564 22.8355 177.118 23.0384 176.652ZM22.9777 179.328C23.0791 179.248 23.1398 179.105 23.1191 178.963C23.1391 178.801 23.0584 178.659 22.9369 178.578C22.6126 178.355 21.8433 178.395 20.8103 178.7C20.8103 178.841 20.8103 179.004 20.8303 179.146C22.329 179.612 22.8355 179.429 22.9777 179.328ZM15.1183 174.502C15.6448 174.421 16.192 174.644 16.7385 175.212C17.5286 176.023 17.8321 177.909 18.2172 180.708C18.3586 181.823 18.5615 182.918 18.8251 183.993C19.1495 185.149 19.4331 185.291 19.5138 185.291H22.2076C22.4712 185.291 22.7141 185.149 22.8355 184.906C22.9162 184.723 22.9162 184.521 22.8355 184.338C22.2483 184.602 21.5996 184.723 20.9717 184.743C20.5467 184.743 20.1209 184.663 19.7359 184.52C19.2294 184.317 19.0273 183.162 18.7029 180.971C18.6622 180.728 18.6222 180.464 18.5815 180.221C18.5408 179.957 18.5008 179.633 18.4601 179.308C18.2172 177.382 17.8929 174.725 15.9684 174.219C15.3205 174.056 14.9961 174.34 14.8947 174.462C14.8747 174.482 14.8747 174.523 14.854 174.543C14.9554 174.543 15.0361 174.523 15.1176 174.502H15.1183Z" fill="#553597"/>
<path d="M63.0037 180.808C63.8137 180.808 64.0973 180.443 64.1988 180.139C64.2395 179.997 64.1788 179.855 64.0366 179.815H64.0166C63.8752 179.774 63.733 179.855 63.6923 179.997C63.6316 180.18 63.4287 180.362 62.7201 180.281C61.6264 180.159 60.1677 179.51 60.1477 179.51C60.0063 179.449 59.8641 179.51 59.8034 179.632C59.7426 179.774 59.8034 179.915 59.9248 179.976C59.9855 179.996 61.4642 180.666 62.6394 180.808C62.7808 180.808 62.903 180.808 63.0037 180.808V180.808Z" fill="white"/>
</g>
<defs>
<clipPath id="clip0_2173_2176">
<rect width="186" height="186" fill="white"/>
</clipPath>
</defs>
</svg>
