<svg width="319" height="214" viewBox="0 0 319 214" fill="none" xmlns="http://www.w3.org/2000/svg">
<g clip-path="url(#clip0_2191_2646)">
<rect width="318.579" height="214" rx="7.17757" fill="#6F46BE"/>
<rect x="-0.689308" y="0.157651" width="466.597" height="149.371" rx="74.6857" transform="matrix(-0.84696 -0.531657 -0.531657 0.84696 119.793 87.0029)" stroke="#EDE3FF"/>
<rect x="-0.424102" y="0.565807" width="297.44" height="95.938" rx="47.969" transform="matrix(-0.989909 0.141705 0.141705 0.989909 505.184 -102.934)" stroke="#EDE3FF"/>
<rect x="-0.424102" y="0.565807" width="297.44" height="95.938" rx="47.969" transform="matrix(-0.989909 0.141705 0.141705 0.989909 541.504 100.066)" stroke="#EDE3FF"/>
<g clip-path="url(#clip1_2191_2646)">
<path d="M235.802 139.064H91.4163C90.235 139.07 89.2728 138.111 89.2666 136.922C89.2666 136.918 89.2666 136.914 89.2666 136.91V23.1876C89.2666 21.9987 90.2227 21.0341 91.404 21.0333C91.4078 21.0333 91.4124 21.0333 91.4163 21.0333H235.802C236.983 21.0271 237.945 21.9864 237.951 23.1753C237.951 23.1791 237.951 23.1837 237.951 23.1876V136.937C237.94 138.121 236.978 139.073 235.802 139.065V139.064Z" fill="white"/>
<path d="M237.875 28.413V23.3548C237.878 22.1682 236.925 21.2043 235.746 21.202C235.743 21.202 235.739 21.202 235.736 21.202H91.4563C90.2781 21.199 89.3205 22.1582 89.3174 23.3448C89.3174 23.3478 89.3174 23.3517 89.3174 23.3548V28.413H237.874H237.875Z" fill="#A78ED7"/>
<path d="M234.762 24.794L236.035 23.5127C236.185 23.3609 236.185 23.1144 236.035 22.9626C235.884 22.8108 235.639 22.8108 235.488 22.9626L234.215 24.2439L232.943 22.9626C232.792 22.8108 232.547 22.8108 232.396 22.9626C232.246 23.1144 232.246 23.3609 232.396 23.5127L233.669 24.794L232.396 26.0754C232.246 26.2272 232.246 26.4737 232.396 26.6255C232.547 26.7773 232.792 26.7773 232.943 26.6255L234.215 25.3442L235.488 26.6255C235.639 26.7773 235.884 26.7773 236.035 26.6255C236.185 26.4737 236.185 26.2272 236.035 26.0754L234.762 24.794Z" fill="#553597"/>
<path d="M235.909 20.514H91.3095C89.9061 20.5071 88.7617 21.6451 88.751 23.0574V136.779C88.761 138.192 89.9054 139.33 91.3095 139.323H235.909C237.305 139.337 238.449 138.212 238.468 136.806V23.0582C238.458 21.6451 237.314 20.5071 235.909 20.5148L235.909 20.514ZM91.3095 21.2922H235.909C236.886 21.2845 237.685 22.0742 237.695 23.0574V28.296H89.5242V23.0582C89.5341 22.075 90.3327 21.2853 91.3095 21.293V21.2922ZM237.694 29.0749V43.3421H89.5242V29.0749H237.694ZM235.909 138.545H91.3095C90.3327 138.553 89.5341 137.763 89.5242 136.78V44.1203H237.694V136.807C237.676 137.782 236.878 138.56 235.909 138.545Z" fill="#553597"/>
<path d="M229.062 26.7395H227.515C226.875 26.7395 226.356 26.2164 226.355 25.5723V24.0159C226.355 23.3717 226.875 22.8493 227.515 22.8486H229.062C229.702 22.8486 230.221 23.3717 230.221 24.0159V25.5723C230.221 26.2164 229.702 26.7388 229.062 26.7395ZM227.515 23.6268C227.302 23.6268 227.129 23.8009 227.129 24.0159V25.5723C227.129 25.7872 227.302 25.9613 227.515 25.9613H229.062C229.275 25.9613 229.448 25.7872 229.448 25.5723V24.0159C229.448 23.8009 229.275 23.6268 229.062 23.6268H227.515Z" fill="#553597"/>
<path d="M223.907 26.7396H220.815C220.602 26.7396 220.429 26.5654 220.429 26.3505C220.429 26.1355 220.602 25.9614 220.815 25.9614H223.907C224.121 25.9614 224.294 26.1355 224.294 26.3505C224.294 26.5654 224.121 26.7396 223.907 26.7396Z" fill="#553597"/>
<path d="M220.816 40.2293H126.502C125.72 40.2285 125.086 39.5898 125.085 38.8024V33.6139C125.086 32.8265 125.72 32.1885 126.502 32.187H220.816C221.598 32.1877 222.232 32.8265 222.233 33.6139V38.8024C222.232 39.5898 221.598 40.2278 220.816 40.2293ZM126.502 32.9659C126.146 32.9659 125.858 33.2564 125.858 33.6147V38.8031C125.858 39.1614 126.146 39.4519 126.502 39.4519H220.816C221.172 39.4519 221.46 39.1614 221.46 38.8031V33.6147C221.46 33.2564 221.172 32.9659 220.816 32.9659H126.502Z" fill="#553597"/>
<path d="M103.568 39.71C103.354 39.71 103.181 39.5366 103.181 39.3216C103.181 39.2076 103.23 39.0997 103.316 39.0258L106.582 36.2081L103.316 33.3904C103.154 33.2502 103.135 33.0044 103.274 32.8418C103.414 32.6785 103.658 32.66 103.819 32.7994L107.427 35.9122C107.589 36.0517 107.608 36.2975 107.469 36.4608C107.456 36.4762 107.442 36.4901 107.427 36.5032L103.819 39.616C103.749 39.6768 103.66 39.71 103.567 39.71H103.568Z" fill="#553597"/>
<path d="M97.3836 39.71C97.2914 39.71 97.2022 39.6768 97.1323 39.616L93.5246 36.5032C93.3625 36.3637 93.344 36.1179 93.4824 35.9546C93.4954 35.9392 93.5093 35.9253 93.5246 35.9122L97.1323 32.7995C97.2944 32.6592 97.5388 32.6785 97.6772 32.8418C97.8163 33.0052 97.7978 33.251 97.6357 33.3904L94.37 36.2081L97.6357 39.0258C97.7978 39.1652 97.8163 39.411 97.6779 39.5744C97.6042 39.6607 97.4973 39.71 97.3843 39.71H97.3836Z" fill="#553597"/>
<path d="M119.158 35.819C118.944 35.819 118.771 35.9931 118.771 36.2081C118.781 37.6505 117.627 38.8285 116.195 38.8386C114.761 38.8486 113.592 37.6875 113.582 36.2451C113.572 34.8027 114.725 33.6247 116.158 33.6146C116.469 33.6123 116.778 33.6663 117.07 33.7749L116.329 34.0238C116.126 34.0916 116.017 34.3119 116.084 34.5161C116.152 34.7203 116.371 34.8297 116.573 34.7619L118.119 34.2434C118.321 34.1756 118.431 33.9552 118.364 33.751C118.358 33.7333 118.351 33.7163 118.343 33.7002L117.57 32.1438C117.474 31.9512 117.242 31.8733 117.051 31.9696C116.86 32.066 116.783 32.2994 116.878 32.492L117.116 32.9713C115.338 32.4597 113.485 33.496 112.977 35.2858C112.469 37.0757 113.499 38.941 115.276 39.4519C117.054 39.9627 118.907 38.9272 119.415 37.1373C119.5 36.8353 119.544 36.5232 119.544 36.2089C119.544 35.9939 119.371 35.8198 119.158 35.8198V35.819Z" fill="#553597"/>
<path d="M234.103 39.176L231.925 36.984C232.926 35.6726 232.682 33.7934 231.379 32.7856C230.076 31.7786 228.209 32.0244 227.209 33.3357C226.208 34.6471 226.452 36.5263 227.755 37.5341C228.823 38.3601 230.311 38.3601 231.379 37.5341L233.556 39.7262C233.707 39.878 233.952 39.878 234.103 39.7262C234.253 39.5744 234.253 39.3278 234.103 39.176ZM227.387 35.171C227.387 33.9529 228.368 32.9659 229.577 32.9659C230.787 32.9659 231.768 33.9529 231.768 35.171C231.768 36.3892 230.787 37.3762 229.577 37.3762C228.368 37.3746 227.388 36.3884 227.387 35.171Z" fill="#553597"/>
<path d="M168.013 56.5868C151.523 56.5868 138.14 69.9698 138.14 86.4595C138.14 102.949 151.523 116.332 168.013 116.332C184.503 116.332 197.886 102.949 197.886 86.4595C197.886 69.9698 184.503 56.5868 168.013 56.5868ZM168.013 110.358C154.839 110.358 144.115 99.6334 144.115 86.4595C144.115 73.2856 154.839 62.5613 168.013 62.5613C181.187 62.5613 191.911 73.2856 191.911 86.4595C191.911 99.6334 181.187 110.358 168.013 110.358ZM181.724 73.2558L162.038 92.9419L154.301 85.2347L150.089 89.4468L162.038 101.396L185.937 77.4977L181.724 73.2558Z" fill="#6F46BE"/>
<path d="M109.577 77.4139L110.873 78.1444C110.873 78.1444 110.691 79.4827 109.638 79.5235C108.564 79.6044 109.577 77.4147 109.577 77.4147V77.4139Z" fill="#A78ED7"/>
<path d="M109.01 75.7713C109.01 75.7713 110.692 78.9958 109.679 81.2872C108.646 83.5995 107.633 84.2074 105.425 83.7613L105.02 81.1046L102.771 77.3932L105.506 76.2575L109.011 75.7705L109.01 75.7713Z" fill="#A78ED7"/>
<path d="M152.054 83.9438L155.416 77.6366L158.09 72.3842L158.07 73.4998L156.288 78.2653L153.878 84.1264C153.27 84.2481 152.642 84.1873 152.054 83.9438H152.054Z" fill="#553597"/>
<path d="M145.389 91.0424L148.448 85.6882L150.028 83.356L152.581 80.7194C152.925 81.4498 152.925 82.2811 152.54 82.9908C151.892 84.1873 152.034 83.9439 152.034 83.9439C152.034 83.9439 152.986 84.2482 153.249 84.2274C153.452 84.2074 153.654 84.1665 153.836 84.1257L154.545 82.5439C154.545 82.5439 155.335 83.2335 155.071 84.0448C154.97 84.43 154.807 84.7952 154.585 85.1397C154.585 85.1397 154.868 86.1336 154.078 86.5997C154.078 86.5997 154.442 87.6337 153.612 88.2016C153.612 88.2016 153.309 89.2964 152.458 89.4182C151.607 89.5399 151.648 90.0469 151.648 90.0469L148.974 96.5768C148.974 96.5768 148.71 94.2245 147.394 92.7644C146.077 91.3043 145.389 91.0408 145.389 91.0408L145.389 91.0424Z" fill="#A78ED7"/>
<path d="M67.3231 194.59L66.7759 195.807C66.7759 195.807 67.5252 194.914 68.3353 195.38C69.1454 195.847 69.6926 196.496 69.7733 197.449C69.854 198.402 70.4419 201.242 70.4419 201.242L71.0698 204.71L71.637 206.068L74.473 206.129L75.3646 205.744C75.3646 205.744 75.7896 205.196 75.4253 204.649C75.4253 204.649 74.2502 205.156 73.4201 205.075C72.9743 205.034 72.5286 204.912 72.1235 204.69L71.5763 202.438L71.1306 199.396L70.6848 196.841L69.5911 195.158L68.376 194.468L67.3231 194.59Z" fill="white"/>
<path d="M71.2526 187.208L68.8823 192.116C68.8823 192.116 70.2803 191.832 71.1304 192.501C71.9812 193.171 72.0619 194.367 71.9005 195.077C71.7391 195.787 71.9005 196.942 72.1433 197.186C72.3862 197.368 72.6698 197.51 72.9534 197.591C72.9534 197.591 72.7505 196.74 73.2777 196.131C73.805 195.522 77.4103 191.325 77.4103 191.325C77.4103 191.325 75.5465 191.122 73.5613 189.56C71.5761 187.978 71.2518 187.208 71.2518 187.208H71.2526Z" fill="#A78ED7"/>
<path d="M106.659 204.121C106.984 204.324 107.348 204.486 107.712 204.608C108.199 204.75 108.704 204.81 109.211 204.79C110.69 204.75 112.168 204.608 113.606 204.344C115.531 204.02 117.455 203.655 119.379 203.229C119.399 203.188 119.318 203.209 119.338 203.249C119.358 203.29 119.399 203.269 119.46 203.269C119.601 203.289 119.683 203.411 119.663 203.552V203.593C119.622 203.735 119.541 203.837 119.42 203.917C118.305 204.851 116.807 205.134 115.389 205.398C113.323 205.783 111.256 206.168 109.149 206.209C108.461 206.25 107.792 206.189 107.124 206.026C106.536 205.864 105.928 205.539 105.665 204.992C105.523 204.668 105.462 204.161 105.665 203.837C105.868 203.492 106.394 203.978 106.657 204.12L106.659 204.121Z" fill="white"/>
<path d="M115.168 188.851L113.992 194.549L112.594 199.497C112.594 199.497 112.473 202.296 110.852 202.256C109.231 202.215 108.887 201.383 108.887 201.383C108.887 201.383 107.874 199.842 106.517 200.329C106.517 200.329 107.408 196.435 107.469 195.807C107.489 195.523 107.752 192.177 107.752 192.177C107.752 192.177 108.623 192.44 111.561 191.265C114.498 190.089 115.166 188.851 115.166 188.851L115.168 188.851Z" fill="#A78ED7"/>
<path d="M145.349 91.1433C145.349 91.1433 142.716 95.6452 140.001 98.0992C137.287 100.553 135.302 101.831 130.278 101.263C125.255 100.695 119.34 94.3477 119.34 94.3477C119.34 94.3477 115.147 89.6431 111.542 88.5883C109.333 87.9596 107.045 87.6553 104.756 87.7161C104.756 87.7161 103.115 93.5772 101.515 96.4566C99.9147 99.3366 92.1161 108.543 92.1161 108.543L87.68 113.33L78.9291 117.994C78.9291 117.994 80.0835 122.03 81.38 125.112C82.6766 128.194 84.6618 131.48 86.3427 132.94L84.6003 139.125C84.6003 139.125 83.4659 142.898 83.2838 144.946C83.1016 146.994 83.7703 149.63 83.7703 149.63C83.7703 149.63 82.3723 152.206 81.3193 156.809C80.2664 161.412 81.3193 164.434 81.3193 164.434L76.9846 173.986L71.2319 187.188C71.2319 187.188 72.0827 189.013 75.0601 190.493C78.0376 191.973 81.3193 191.102 81.3193 191.102C81.3193 191.102 85.9576 190.19 87.3556 190.919C88.7536 191.649 90.8195 193.495 92.379 193.191C93.9384 192.886 99.8133 191.446 99.8133 191.446C99.8133 191.446 101.656 191.629 103.743 192.055C105.83 192.481 110.427 191.933 113.202 190.25C115.978 188.566 115.653 186.092 115.653 186.092L118.894 165.894C118.894 165.894 120.515 151.698 120.737 147.5C120.96 143.302 121.082 132.513 121.082 132.513L120.272 123.367L121.608 123.752C121.608 123.752 125.538 125.982 132.364 125.821C139.191 125.659 143.91 123.103 143.91 123.103C143.91 123.103 148.063 118.419 148.934 108.116C149.804 97.8142 149.055 95.9889 148.063 93.7991C147.071 91.6094 145.348 91.1425 145.348 91.1425L145.349 91.1433Z" fill="#A78ED7"/>
<path d="M153.917 84.269C154.018 84.269 154.12 84.2081 154.16 84.1064L159.285 71.2893C159.365 71.0867 159.265 70.8432 159.042 70.7623C159.022 70.7623 158.981 70.7423 158.961 70.7423C158.779 70.7222 158.617 70.8031 158.536 70.9657L151.831 83.8429C151.77 83.9646 151.811 84.1264 151.952 84.1873C152.094 84.2482 152.236 84.2073 152.297 84.0656L157.948 73.2363L153.694 83.9038C153.633 84.0455 153.714 84.1873 153.835 84.2482C153.855 84.2682 153.896 84.2682 153.916 84.2682L153.917 84.269Z" fill="#553597"/>
<path d="M153.269 84.5117C153.613 84.5117 153.957 84.4708 154.282 84.41C154.423 84.3691 154.505 84.2274 154.464 84.0856C154.423 83.9639 154.302 83.8829 154.18 83.8829C152.722 84.1465 152.215 83.7612 152.215 83.7412C152.114 83.6395 151.951 83.6603 151.851 83.7612C151.749 83.8629 151.77 84.0448 151.871 84.1264C151.931 84.1873 152.317 84.5117 153.269 84.5117Z" fill="#553597"/>
<path d="M152.56 83.2751C152.661 83.2751 152.763 83.2142 152.803 83.1333C153.532 81.5923 152.843 80.6184 152.803 80.5784C152.701 80.4767 152.539 80.4566 152.438 80.5583C152.337 80.6392 152.317 80.7818 152.398 80.9027C152.418 80.9436 152.924 81.6732 152.337 82.9106C152.276 83.0324 152.337 83.1942 152.458 83.255C152.478 83.255 152.519 83.2751 152.56 83.2751Z" fill="#553597"/>
<path d="M53.0829 97.6732C53.7915 94.5905 55.0274 91.9947 56.5668 90.352C61.3673 85.2413 68.943 85.444 74.4936 85.6065C76.3573 85.6674 77.9575 85.7083 79.1526 85.5457L79.254 85.5256C84.0545 84.8769 91.3266 83.9238 94.1626 76.3591C95.317 73.2972 97.1001 71.1876 99.4903 70.1128C102.022 68.957 104.514 69.3423 105.466 69.7275C107.248 70.3971 109.74 72.5868 109.254 75.7913C109.234 75.8722 109.193 75.9331 109.133 75.9939C109.113 76.014 108.546 76.3383 108.323 77.3523C108.242 77.7576 108.201 78.1636 108.221 78.5689C108.221 79.0558 108.221 79.4812 107.816 79.7046C107.634 79.8063 107.411 79.8063 107.229 79.7046C107.026 79.6029 106.702 79.3194 106.601 78.508C106.581 78.1837 106.398 77.8793 106.135 77.6967C105.953 77.575 105.73 77.5341 105.507 77.575C105.345 77.6158 105.224 77.7375 105.143 77.8793C104.961 78.2846 104.94 78.7307 105.082 79.1568C105.163 79.4403 105.325 79.7046 105.528 79.9273C105.812 80.2316 105.994 80.6369 105.994 81.063C106.035 83.5778 105.467 92.7444 96.7166 104.749C91.5718 111.827 85.7983 116.552 79.5999 118.803C76.9868 119.756 74.2115 120.263 71.4162 120.263C70.9912 120.263 70.5654 120.263 70.1404 120.222C66.7779 120.02 63.4962 119.147 60.458 117.707C55.394 115.395 53.5102 110.772 52.8416 107.304C52.2744 104.121 52.3551 100.835 53.0845 97.6716L53.0829 97.6732Z" fill="#553597"/>
<path d="M110.326 134.278C109.962 136.124 109.597 137.949 109.192 139.794C108.807 141.62 108.382 143.445 107.936 145.27C107.49 147.095 107.044 148.9 106.579 150.725L106.214 152.084L105.85 153.442C105.586 154.354 105.344 155.247 105.08 156.139C104.816 157.052 104.554 157.945 104.29 158.837C104.006 159.729 103.743 160.621 103.439 161.514C103.155 162.406 102.852 163.298 102.568 164.17C102.427 164.616 102.265 165.062 102.103 165.489L101.88 166.158L101.637 166.807L101.15 168.125L100.644 169.443C100.482 169.89 100.319 170.316 100.137 170.742L99.8737 171.391L99.7523 171.715L99.6309 172.039L99.1044 173.338C98.9222 173.784 98.7401 174.189 98.5572 174.636L98.2936 175.285C98.2129 175.508 98.0907 175.711 98.01 175.933L97.4428 177.211C97.382 177.353 97.4428 177.494 97.5642 177.555C97.6856 177.616 97.8278 177.555 97.8885 177.433C98.3343 176.602 98.82 175.791 99.2458 174.939L99.5701 174.311C99.6716 174.108 99.793 173.885 99.8945 173.682L100.502 172.404L100.644 172.08L100.765 171.776L101.049 171.127C101.252 170.701 101.434 170.276 101.636 169.829L102.183 168.53L102.71 167.212C103.418 165.468 104.046 163.683 104.654 161.899C104.958 161.007 105.241 160.094 105.525 159.201C105.789 158.309 106.092 157.396 106.335 156.504C107.389 152.874 108.28 149.224 109.05 145.512C109.435 143.667 109.758 141.821 110.083 139.955C110.224 139.022 110.366 138.09 110.508 137.157C110.629 136.224 110.75 135.292 110.832 134.338C110.852 134.196 110.73 134.054 110.589 134.054C110.468 134.054 110.346 134.156 110.325 134.278L110.326 134.278Z" fill="#553597"/>
<path d="M104.715 87.4935L105.505 83.9446C105.505 83.9246 105.505 83.9038 105.525 83.8838C105.525 83.8637 105.545 83.8637 105.545 83.8429L105.586 83.8021L105.647 83.782H105.788C106.173 83.8629 106.578 83.8429 106.942 83.762C107.834 83.5594 108.563 82.9507 109.11 81.9976C109.798 80.781 109.657 79.2192 109.413 78.1035C109.251 77.3531 109.008 76.6435 108.705 75.9338C108.644 75.7921 108.705 75.6503 108.826 75.5894C108.948 75.5286 109.11 75.5894 109.171 75.7112C109.373 76.1773 109.556 76.6442 109.677 77.1304C109.697 77.1504 109.738 77.1712 109.738 77.1913C109.981 77.4748 110.285 77.6782 110.629 77.8C110.933 77.9217 111.075 78.2869 110.994 78.7122C110.913 79.1784 110.569 79.5636 110.102 79.6854C110.143 80.5776 109.961 81.4698 109.535 82.2611C108.846 83.4777 107.955 84.0055 107.205 84.2282L106.638 87.5944C106.618 87.7162 106.517 87.8179 106.374 87.8179L104.896 87.8587C104.815 87.8587 104.734 87.8179 104.693 87.757C104.713 87.6353 104.693 87.5544 104.713 87.4935H104.715ZM110.164 79.0975C110.346 79.0166 110.468 78.874 110.529 78.6922C110.589 78.5504 110.589 78.3878 110.529 78.2461C110.346 78.1852 110.164 78.0835 110.002 77.9826C110.063 78.3478 110.124 78.713 110.164 79.0982V79.0975Z" fill="#553597"/>
<path d="M66.2891 196.172C66.4305 195.726 66.6134 195.28 66.8363 194.873L66.8563 194.793C66.8762 194.773 66.897 194.732 66.917 194.712C67.6056 193.434 68.5778 191.933 68.6993 191.751L71.0088 187.107C71.1302 186.843 77.0044 173.601 80.4076 165.935C80.6105 165.489 80.8326 165.002 81.0555 164.455C80.934 164.11 80.5897 162.873 80.6305 160.764C80.6504 160.115 80.6912 159.446 80.7719 158.797V158.675C80.7719 158.655 80.7719 158.634 80.7918 158.614C81.0954 156.384 81.8248 153.362 83.4857 149.63C82.2298 146.264 83.5264 141.965 84.9037 137.422C85.3287 136.003 85.7744 134.522 86.1395 133.103C84.215 131.277 82.4127 128.337 80.7918 124.342C80.0625 122.558 79.4346 120.732 78.9281 118.866C78.8873 118.724 78.9688 118.583 79.1102 118.542C79.2516 118.501 79.3938 118.583 79.4346 118.724C79.4545 118.826 81.9462 128.155 86.2809 132.495C86.4024 131.988 86.5038 131.501 86.5845 131.015C86.7874 129.838 86.9696 128.642 87.111 127.486V127.445C87.111 127.384 87.4753 120.165 86.5438 117.65C86.3009 117.001 85.9566 116.575 85.5308 116.392C85.1865 116.27 84.8014 116.291 84.4571 116.453C84.3357 116.514 84.1735 116.473 84.1128 116.351C84.0521 116.23 84.0721 116.088 84.1935 116.007L87.7181 113.695C87.7381 113.695 87.7381 113.675 87.7589 113.675H87.7789C87.7988 113.675 87.8196 113.655 87.8396 113.675H87.981C88.001 113.675 88.001 113.695 88.0217 113.695L88.0417 113.715C88.0617 113.715 88.0617 113.735 88.0617 113.756V113.776C88.0617 113.776 88.0817 113.796 88.0817 113.816V113.836C88.0817 113.857 88.1017 113.877 88.0817 113.897C88.1017 114.202 88.5882 122.638 87.0687 131.115C86.6837 133.224 86.015 135.434 85.3671 137.584C84.3749 140.849 83.4426 143.972 83.4634 146.669L83.5041 146.872C83.5448 146.994 83.6255 147.075 83.747 147.115C84.0306 147.176 84.3142 147.075 84.4763 146.852C84.7599 146.467 84.9828 146.041 85.185 145.615L85.6307 144.56C88.7903 136.651 90.7355 129.776 90.7755 129.695C90.8162 129.553 90.9576 129.471 91.0998 129.512C91.242 129.553 91.3227 129.695 91.282 129.836C91.262 129.917 89.3575 136.63 86.2586 144.438C86.2586 144.458 86.2586 144.479 86.2387 144.499C86.2187 144.54 86.0972 144.884 85.8943 145.33C85.3072 146.79 84.6792 148.27 84.0106 149.771C82.9569 152.104 81.7218 155.409 81.296 158.796V158.938C81.296 159.343 81.3567 160.236 82.0661 160.357C82.5726 160.438 83.0583 159.891 83.3827 159.343C86.563 152.367 90.5126 143.89 90.5534 143.768C90.6141 143.627 90.7763 143.586 90.8977 143.647C91.0191 143.708 91.0798 143.87 91.0191 143.991C90.9584 144.112 87.3531 151.9 84.2535 158.674C84.2535 158.714 84.2535 158.734 84.2335 158.775C84.1728 158.958 84.0921 159.12 84.0106 159.282L81.6811 164.372C81.3775 165.021 81.1139 165.63 80.891 166.157C77.6699 173.457 72.1809 185.787 71.553 187.207C72.0187 187.877 74.6518 191.324 79.3316 191.121C80.2024 191.08 81.1746 190.959 82.1069 190.838C83.1398 190.675 84.1728 190.574 85.2265 190.533C85.2672 190.513 85.3072 190.493 85.3479 190.493H85.4086C86.968 190.493 87.7581 188.099 88.6696 185.321C88.8518 184.773 89.0339 184.205 89.2368 183.637C90.3305 180.515 94.2402 170.334 94.2602 170.232C94.3009 170.152 94.3616 170.091 94.4631 170.07C94.5645 170.05 94.6452 170.09 94.7059 170.151C94.9488 170.434 94.7467 171.226 92.4371 177.796C92.0321 178.932 91.6271 180.109 91.262 181.183C91.0998 181.67 90.9377 182.137 90.7755 182.583C89.3982 186.598 88.6281 188.808 88.5274 190.046C88.4667 190.918 88.7303 191.344 88.8518 191.465C88.8718 191.485 88.9125 191.526 88.9325 191.546C90.7355 193.128 91.6263 193.411 95.516 192.377C96.7111 192.053 97.6633 191.789 98.4934 191.627C98.5341 191.607 98.6148 191.586 98.757 191.546C99.3042 191.322 100.661 190.491 101.492 187.551C102.687 183.414 104.064 177.411 105.3 172.098C105.948 169.339 106.536 166.744 107.001 164.919C107.244 163.946 107.447 163.236 107.589 162.729C107.811 162.019 107.933 161.715 108.236 161.776C108.317 161.796 108.399 161.836 108.439 161.917C108.723 162.343 108.257 164.696 106.454 172.524C106.008 174.532 105.523 176.6 105.118 178.466C104.652 180.596 104.125 182.603 103.68 184.388C102.748 187.937 102.06 190.533 102.505 191.466C102.565 191.607 102.687 191.709 102.829 191.749C105.28 192.56 110.385 191.749 113.119 190.106C114.274 189.397 114.983 188.606 115.104 187.794C117.596 174.227 120.614 154.535 120.796 137.703C120.816 135.493 120.796 133.546 120.736 131.883C120.229 131.964 119.723 132.025 119.216 132.025C118.123 132.025 117.272 131.761 116.583 131.274C115.368 130.362 115.044 128.78 114.922 127.34C114.699 125.028 114.497 123.893 111.823 121.601C108.725 118.944 107.954 116.774 107.63 115.193C107.448 114.3 107.63 113.104 108.744 112.678C109.575 112.373 110.507 112.719 110.912 113.489C111.256 114.138 111.682 114.847 111.682 114.868C111.702 114.888 111.702 114.909 111.723 114.929C112.573 116.45 113.647 117.849 114.903 119.066C117.86 122.006 121.608 124.035 125.7 124.906C129.933 125.798 134.308 125.717 138.502 124.724C140.284 124.318 142.026 123.73 143.667 122.939C144.639 121.722 145.815 119.755 146.827 116.673C146.685 116.734 146.523 116.794 146.381 116.855C145.145 117.321 143.889 117.747 142.634 118.133C141.378 118.518 140.102 118.863 138.805 119.147C137.509 119.43 136.212 119.634 134.876 119.755C134.551 119.775 134.228 119.796 133.883 119.816C133.539 119.836 133.215 119.836 132.891 119.836H132.385L131.898 119.816L130.926 119.755C129.629 119.674 128.354 119.553 127.057 119.37C125.76 119.188 124.505 118.985 123.249 118.701C122.621 118.579 121.993 118.417 121.365 118.254C121.041 118.174 120.737 118.092 120.434 117.991C120.109 117.91 119.806 117.808 119.502 117.707H119.482C119.341 117.667 119.279 117.505 119.32 117.363C119.361 117.221 119.523 117.16 119.664 117.2H119.684C119.826 117.261 119.968 117.322 120.13 117.363C120.271 117.424 120.434 117.465 120.576 117.505C120.879 117.586 121.184 117.687 121.487 117.768C122.095 117.931 122.723 118.073 123.351 118.174C124.607 118.397 125.863 118.559 127.139 118.64C127.767 118.681 128.415 118.701 129.043 118.721C129.671 118.721 130.319 118.721 130.947 118.701C131.271 118.681 131.575 118.681 131.899 118.64C132.223 118.62 132.527 118.599 132.83 118.559C133.438 118.498 134.066 118.396 134.674 118.275C134.977 118.214 135.281 118.154 135.585 118.073C135.889 117.992 136.193 117.91 136.477 117.809C136.78 117.728 137.064 117.627 137.368 117.526C137.672 117.425 137.955 117.323 138.239 117.201C139.414 116.755 140.548 116.248 141.662 115.68C142.209 115.397 142.756 115.092 143.303 114.788C143.85 114.484 144.377 114.159 144.903 113.815C145.43 113.471 145.936 113.125 146.443 112.781C146.706 112.598 146.949 112.416 147.192 112.233L147.556 111.95L147.738 111.808L147.819 111.747L147.86 111.706C147.86 111.706 147.88 111.686 147.9 111.686C147.961 111.564 148.042 111.463 148.143 111.362C148.265 110.692 148.366 110.003 148.468 109.253C148.691 107.651 148.853 105.724 148.954 103.757C148.428 104.406 147.861 105.014 147.293 105.622C146.665 106.292 145.997 106.921 145.328 107.549L145.064 107.792L144.801 108.015C144.619 108.157 144.457 108.32 144.294 108.462C143.95 108.766 143.606 109.049 143.241 109.334C142.897 109.617 142.533 109.902 142.168 110.165C141.986 110.307 141.803 110.429 141.621 110.57C141.438 110.712 141.256 110.834 141.073 110.956C139.595 111.99 138.035 112.943 136.435 113.795C136.314 113.856 136.171 113.815 136.091 113.714C136.01 113.592 136.05 113.43 136.171 113.349C137.65 112.376 139.068 111.301 140.425 110.144C140.588 110.003 140.75 109.861 140.932 109.698C141.114 109.536 141.256 109.415 141.418 109.252C141.743 108.948 142.066 108.643 142.391 108.34C142.715 108.036 143.019 107.711 143.322 107.407C143.464 107.244 143.626 107.082 143.768 106.92L143.991 106.676L144.214 106.433C144.801 105.784 145.368 105.095 145.895 104.405C146.423 103.715 146.948 103.006 147.435 102.275C147.921 101.566 148.387 100.815 148.812 100.065C148.873 99.9631 148.933 99.8621 148.994 99.7404C148.953 98.6856 148.873 97.6516 148.691 96.5968C148.063 92.9262 146.22 91.7705 145.348 91.4253C142.594 95.9072 139.413 100.227 135.018 101.362C134.187 101.586 133.336 101.687 132.486 101.687C130.197 101.687 127.807 100.916 125.235 99.3744C122.277 97.59 119.705 95.1359 117.639 93.1689C116.708 92.2767 115.917 91.5262 115.249 90.9992C114.945 90.7557 114.621 90.5122 114.277 90.2896H113.608C113.405 90.3096 113.203 90.3304 112.98 90.3705C112.575 90.4514 112.17 90.5731 111.785 90.7357C111.015 91.0601 110.326 91.547 109.78 92.1549C109.213 92.7836 108.767 93.4732 108.422 94.2437C108.24 94.629 108.098 95.0142 107.977 95.4203C107.855 95.8255 107.734 96.2516 107.612 96.6577C107.147 98.3412 106.742 100.045 106.276 101.727C105.83 103.431 105.344 105.135 104.736 106.817C104.433 107.649 104.109 108.501 103.744 109.311C103.38 110.143 102.934 110.954 102.448 111.725C101.941 112.536 101.333 113.266 100.625 113.915C100.24 114.239 99.8345 114.544 99.4095 114.787C98.9638 115.031 98.4573 115.233 97.9508 115.335C97.8294 115.355 97.6872 115.396 97.5657 115.396C97.4443 115.396 97.3229 115.437 97.1807 115.437C96.9378 115.457 96.6742 115.478 96.4106 115.478C95.8841 115.478 95.3776 115.397 94.8712 115.254C93.8789 114.971 92.9874 114.484 92.2173 113.814C91.4879 113.185 90.84 112.435 90.3136 111.624C90.3336 111.624 90.3336 111.604 90.3543 111.583C90.5365 111.481 91.7116 110.467 91.8937 110.123C91.9545 110.244 92.0352 110.366 92.0966 110.488C92.4817 111.158 92.9882 111.765 93.5554 112.293C94.0818 112.8 94.7305 113.185 95.4191 113.409C95.7635 113.511 96.1278 113.591 96.4728 113.612H97.0201C97.1215 113.612 97.2022 113.591 97.3037 113.591C97.3844 113.591 97.4858 113.571 97.5673 113.551C98.2759 113.409 98.9445 113.084 99.5117 112.598C100.12 112.091 100.666 111.482 101.112 110.813C101.578 110.124 102.003 109.394 102.388 108.643C102.773 107.873 103.117 107.102 103.421 106.311C104.069 104.709 104.596 103.067 105.122 101.403C105.629 99.7404 106.114 98.0569 106.662 96.3741C106.803 95.948 106.925 95.5428 107.087 95.1167C107.249 94.6906 107.411 94.2653 107.613 93.8592C108.018 93.0279 108.545 92.2774 109.193 91.6287C109.842 90.9799 110.631 90.4729 111.503 90.1278C111.928 89.9652 112.374 89.8442 112.839 89.7834C113.002 89.7633 113.164 89.7425 113.326 89.7225C113.164 89.6416 113.002 89.5399 112.839 89.459H112.738C112.617 89.479 112.474 89.4998 112.333 89.5198C112.069 89.5807 111.786 89.6416 111.543 89.7433C111.016 89.9259 110.53 90.1694 110.064 90.4737C109.153 91.0824 108.363 91.893 107.775 92.806C107.695 92.9277 107.634 93.0294 107.552 93.1504L107.451 93.333L107.35 93.5156C107.208 93.7591 107.086 94.0026 106.965 94.246C106.742 94.753 106.539 95.28 106.337 95.8078C105.952 96.8826 105.628 97.9775 105.243 99.0932C104.858 100.209 104.473 101.304 103.987 102.399C103.744 102.946 103.461 103.493 103.156 104.021C102.832 104.569 102.468 105.076 102.063 105.562C101.638 106.069 101.131 106.515 100.584 106.881C100.3 107.083 99.9967 107.246 99.6724 107.367C99.5102 107.428 99.348 107.489 99.1859 107.55C98.8615 107.652 98.5172 107.733 98.1529 107.794C97.9908 107.814 97.8086 107.834 97.6464 107.834C97.3021 107.854 96.9578 107.834 96.6135 107.814C95.9656 107.733 95.3169 107.612 94.689 107.409C94.669 107.409 94.6483 107.389 94.6283 107.389C94.5069 107.328 94.3854 107.267 94.284 107.166C94.3647 107.085 95.5598 105.786 95.702 105.421C96.087 105.563 96.4721 105.665 96.8771 105.746C97.12 105.786 97.3429 105.806 97.5857 105.806H97.93C98.0515 105.806 98.1529 105.786 98.2744 105.766C98.3958 105.746 98.4972 105.725 98.5987 105.705C98.7001 105.664 98.8216 105.644 98.923 105.603C99.1459 105.522 99.348 105.42 99.5509 105.32C99.976 105.076 100.361 104.752 100.705 104.407C101.435 103.617 102.042 102.724 102.508 101.751C103.015 100.737 103.481 99.7026 103.886 98.6478C104.311 97.593 104.716 96.4982 105.182 95.4233C105.405 94.8755 105.648 94.3485 105.932 93.8215C106.073 93.558 106.235 93.2945 106.377 93.051L106.499 92.8484L106.62 92.6658L106.884 92.3005C107.613 91.3274 108.525 90.4953 109.578 89.8874C110.104 89.583 110.651 89.3396 111.238 89.1778C111.421 89.1169 111.603 89.0761 111.786 89.056C109.558 88.1638 107.167 87.7377 104.777 87.7986C104.636 87.7986 104.514 87.6768 104.514 87.5351C104.514 87.3933 104.615 87.2716 104.756 87.2716C104.999 87.2515 110.914 86.9064 115.431 90.577C116.1 91.1248 116.91 91.8953 117.841 92.7875C119.887 94.7345 122.419 97.1677 125.336 98.9322C128.739 101.001 131.798 101.63 134.715 100.858C139.799 99.5401 143.304 93.578 146.403 88.3456C146.747 87.7577 147.111 87.1691 147.436 86.5812C148.083 85.5264 148.752 84.4924 149.441 83.4784L149.461 83.4584L152.337 80.5383C152.438 80.4365 152.6 80.4365 152.701 80.5383C152.802 80.64 152.802 80.8018 152.701 80.9035L149.986 83.8036C149.318 84.7767 148.65 85.8115 148.021 86.8455C147.677 87.4133 147.313 88.022 146.988 88.5899C146.542 89.3604 146.057 90.1717 145.57 90.9622C146.482 91.3475 148.163 92.4423 148.953 95.5451C149.176 94.8555 149.702 93.1519 149.641 92.2597C149.641 92.0571 149.601 91.8136 149.581 91.5501C149.479 90.6378 149.378 89.6031 150.148 89.2379C150.654 88.9944 151.748 89.0552 151.869 89.0552H151.91C152.274 89.0961 152.639 89.0144 152.963 88.8318C153.166 88.6692 153.267 88.4265 153.287 88.1831C153.287 88.1022 153.328 88.0205 153.409 87.9804C153.834 87.7169 154.017 87.1691 153.794 86.723C153.753 86.6621 153.753 86.5812 153.794 86.5203C153.814 86.4595 153.875 86.3986 153.935 86.3786C153.935 86.3786 154.604 86.1151 154.381 85.0803C154.361 84.9994 154.381 84.8977 154.442 84.8368C154.482 84.796 155.373 83.762 154.32 82.748C154.219 82.6463 154.219 82.4845 154.32 82.3828C154.422 82.2811 154.584 82.2811 154.685 82.3828C155.9 83.5385 155.191 84.7351 154.927 85.1003C155.09 85.9725 154.725 86.4995 154.38 86.743C154.562 87.3517 154.34 88.0004 153.833 88.3657C153.792 88.7509 153.59 89.0961 153.266 89.3188H153.246C152.882 89.5214 152.476 89.6231 152.051 89.6231C151.848 90.11 151.261 91.5701 150.653 93.0302C150.288 93.9224 149.923 94.8147 149.64 95.4842C149.498 95.8086 149.376 96.0929 149.295 96.2955C149.255 96.3972 149.215 96.4781 149.194 96.519C149.194 96.519 149.194 96.539 149.174 96.5598C149.761 100.007 149.478 105.585 148.971 109.336C147.897 117.204 145.689 121.26 144.049 123.309C144.029 123.329 144.008 123.35 143.969 123.37C143.888 123.411 141.903 124.445 138.641 125.215C136.352 125.763 134.003 126.046 131.632 126.046C129.606 126.046 127.581 125.844 125.576 125.418C123.834 125.053 122.133 124.465 120.532 123.694C121.038 125.722 121.241 131.279 121.241 131.542C121.241 131.583 121.241 131.623 121.221 131.664C121.281 133.388 121.301 135.376 121.281 137.667C121.099 154.54 118.06 174.271 115.569 187.879C115.549 187.981 115.529 188.062 115.509 188.163C115.529 188.203 115.529 188.243 115.509 188.284C114.982 191.57 114.233 194.794 113.261 197.958C113.808 197.187 114.476 196.518 115.124 196.417C115.489 196.356 115.854 196.498 116.097 196.782C116.36 197.046 116.461 197.411 116.38 197.755C116.259 198.303 115.672 198.83 114.962 199.256C115.367 199.195 115.772 199.256 116.137 199.459C116.421 199.641 116.583 199.946 116.583 200.29V200.412H116.705C118.588 200.574 119.398 201.284 119.763 201.852C120.027 202.237 120.108 202.724 120.006 203.19C119.865 204.001 119.298 204.65 118.508 204.874C116.442 205.462 112.208 206.476 109.555 206.516H109.312C106.962 206.516 105.605 205.888 105.301 205.259C105.058 204.772 105.058 204.184 105.301 203.474V203.434C105.342 203.129 105.403 202.805 105.504 202.521C105.707 201.791 106.011 200.534 106.476 198.385C106.901 196.418 107.206 194.43 107.347 192.423C105.544 192.666 103.803 192.625 102.587 192.22C101.229 191.774 100.136 191.774 98.5764 192.078C98.5357 192.078 98.5157 192.098 98.4957 192.098C97.6856 192.261 96.7334 192.524 95.5583 192.829C94.0188 193.234 92.9252 193.477 91.9929 193.477C90.6963 193.477 89.7648 193.011 88.4882 191.896C88.4882 191.896 88.4683 191.896 88.4683 191.876C87.0303 190.638 84.4779 190.983 82.0269 191.308C81.0747 191.429 80.1024 191.571 79.2117 191.612C78.6245 191.632 78.0166 191.612 77.4294 191.531L73.6619 195.891C73.4797 196.094 73.3376 196.337 73.2369 196.581C73.9455 196.033 74.5334 195.79 74.9792 195.85C75.2828 195.891 75.5464 196.074 75.6878 196.337C75.8907 196.642 75.9307 197.027 75.8093 197.371C75.6471 197.797 75.2013 198.142 74.6549 198.405C74.9585 198.405 75.2628 198.486 75.5257 198.649C75.7893 198.831 75.9307 199.136 75.9307 199.46C75.9714 199.765 75.8292 200.069 75.5864 200.272C75.3228 200.434 75.0192 200.515 74.7156 200.495C74.1891 200.475 73.6419 200.373 73.1354 200.211C73.1762 201.327 73.2369 202.442 73.2768 203.152C73.6819 203.111 74.1077 203.172 74.4919 203.314C74.9377 203.558 75.282 203.943 75.4642 204.409C75.8692 204.936 75.7678 205.707 75.2413 206.113C75.0384 206.275 74.7755 206.356 74.5119 206.356H69.9743C69.1235 206.356 68.3334 205.951 67.827 205.281C67.1791 204.389 66.7533 203.355 66.5304 202.28C65.9832 199.157 65.9025 197.778 66.2875 196.176L66.2891 196.172ZM115.977 197.612C116.018 197.429 115.957 197.227 115.815 197.105C115.714 196.983 115.552 196.902 115.39 196.902H115.31C114.844 196.963 114.195 197.612 113.487 198.687C113.223 199.092 113 199.478 112.839 199.802C113.163 199.661 113.588 199.478 114.034 199.255C115.148 198.646 115.857 198.078 115.978 197.612H115.977ZM115.977 199.903C115.795 199.802 115.572 199.761 115.37 199.782C114.782 199.822 114.194 199.923 113.627 200.106L116.18 200.369V200.309C116.18 200.146 116.119 199.984 115.977 199.903H115.977ZM105.809 204.02C105.707 204.364 105.728 204.73 105.869 205.054C106.031 205.378 107.166 206.048 109.658 206.007C112.271 205.966 116.423 204.973 118.469 204.384C118.854 204.263 119.198 204.019 119.401 203.675C119.198 203.736 118.914 203.817 118.57 203.898C117.8 204.081 116.747 204.304 115.572 204.507C113.506 204.872 110.913 205.217 109.657 205.217H109.616C107.692 205.197 106.395 204.507 105.808 204.02H105.809ZM107.105 198.504C106.984 199.052 106.882 199.538 106.781 199.984C107.166 199.943 107.814 200.086 108.746 200.917C108.887 201.039 109.03 201.181 109.131 201.343C109.455 201.729 109.718 202.033 110.529 202.094C111.521 202.175 112.008 200.208 112.008 200.188V200.168C112.069 200.046 113.588 196.416 114.864 189.419C114.439 189.865 113.952 190.251 113.405 190.575C111.967 191.447 109.941 192.076 107.956 192.4C107.956 192.927 107.815 195.098 107.105 198.504ZM73.4198 195.543L76.9852 191.426C75.5672 191.102 74.2506 190.473 73.1162 189.581C72.4276 189.054 71.8196 188.425 71.2932 187.736L69.2473 191.852C69.8752 191.772 70.5231 191.872 71.111 192.177C71.8604 192.562 72.3261 193.312 72.3061 194.164C72.3261 194.59 72.2654 194.995 72.144 195.401C72.0425 195.746 72.0225 196.091 72.0833 196.435C72.124 196.8 72.3469 197.105 72.6912 197.247C72.7519 196.618 72.9948 196.03 73.4206 195.543H73.4198ZM75.5057 197.166C75.5664 196.983 75.5464 196.78 75.425 196.618C75.3643 196.476 75.2221 196.394 75.0807 196.374C74.8578 196.334 74.3106 196.435 73.2169 197.408V197.571C73.2169 197.834 73.2369 198.119 73.2369 198.443C74.4927 198.078 75.3028 197.632 75.5057 197.166ZM75.445 199.842C75.5464 199.761 75.6071 199.619 75.5864 199.477C75.6064 199.315 75.5257 199.173 75.4042 199.092C75.0799 198.868 74.3106 198.909 73.2776 199.214C73.2776 199.355 73.2776 199.518 73.2976 199.66C74.7963 200.126 75.3028 199.943 75.445 199.842ZM67.5856 195.016C68.1121 194.935 68.6593 195.158 69.2058 195.726C69.9958 196.537 70.2994 198.423 70.6845 201.222C70.8259 202.337 71.0288 203.432 71.2924 204.507C71.6167 205.663 71.9003 205.805 71.981 205.805H74.6749C74.9385 205.805 75.1813 205.663 75.3028 205.42C75.3835 205.237 75.3835 205.035 75.3028 204.852C74.7156 205.116 74.0669 205.237 73.439 205.257C73.014 205.257 72.5882 205.176 72.2032 205.034C71.6967 204.831 71.4945 203.676 71.1702 201.485C71.1295 201.242 71.0895 200.978 71.0488 200.735C71.008 200.471 70.9681 200.147 70.9273 199.822C70.6845 197.896 70.3601 195.239 68.4357 194.732C67.7878 194.57 67.4634 194.854 67.362 194.976C67.342 194.996 67.342 195.037 67.3212 195.057C67.4227 195.057 67.5034 195.037 67.5849 195.016H67.5856Z" fill="#553597"/>
<path d="M115.471 201.323C116.281 201.323 116.565 200.957 116.666 200.653C116.707 200.511 116.646 200.369 116.504 200.329H116.484C116.343 200.288 116.201 200.369 116.16 200.511C116.099 200.694 115.896 200.876 115.188 200.795C114.094 200.673 112.635 200.024 112.615 200.024C112.474 199.963 112.332 200.024 112.271 200.146C112.21 200.288 112.271 200.43 112.392 200.49C112.453 200.51 113.932 201.18 115.107 201.322C115.248 201.322 115.371 201.322 115.471 201.322V201.323Z" fill="white"/>
</g>
</g>
<defs>
<clipPath id="clip0_2191_2646">
<rect width="318.579" height="214" fill="white"/>
</clipPath>
<clipPath id="clip1_2191_2646">
<rect width="186" height="186" fill="white" transform="translate(52.4673 20.514)"/>
</clipPath>
</defs>
</svg>
