<svg width="164" height="142" viewBox="0 0 164 142" fill="none" xmlns="http://www.w3.org/2000/svg">
<path d="M83.2105 4.2832H16.7747V134.258H83.2105V4.2832Z" fill="#EDE3FF"/>
<path d="M81.7007 0H17.5297C15.0132 0 13 2.01512 13 4.53401V136.776C13 139.295 15.0132 141.31 17.5297 141.31H81.449C83.9655 141.31 85.9787 139.295 85.9787 136.776V4.53401C86.2304 2.01512 84.2172 0 81.7007 0ZM81.9523 127.708C81.9523 129.975 80.1907 131.738 77.9259 131.738H21.3045C19.0396 131.738 17.2781 129.975 17.2781 127.708V10.8312C17.2781 8.56424 19.0396 6.80102 21.3045 6.80102H77.9259C80.1907 6.80102 81.9523 8.56424 81.9523 10.8312V127.708Z" fill="#6F46BE"/>
<path d="M55.7805 6.80114C55.7805 10.3276 53.0124 13.0984 49.4893 13.0984C45.9662 13.0984 43.198 10.3276 43.198 6.80114C43.198 3.27469 45.9662 0.503906 49.4893 0.503906C53.0124 0.503906 55.7805 3.27469 55.7805 6.80114Z" fill="#6F46BE"/>
<path d="M51.5026 6.80042C51.5026 7.80798 50.7477 8.56365 49.741 8.56365C48.7344 8.56365 47.9795 7.80798 47.9795 6.80042C47.9795 5.79286 48.7344 5.03719 49.741 5.03719C50.496 4.78531 51.5026 5.79286 51.5026 6.80042Z" fill="#F5F5F5"/>
<path d="M45.4629 56.1713C45.2112 56.1713 40.9331 56.1713 40.4298 54.66C39.9265 52.6449 39.6749 32.4937 40.4298 29.4711C41.1848 26.4484 53.264 23.1738 53.264 23.1738C53.264 23.1738 53.7673 54.4081 53.5157 54.4081L45.4629 56.1713Z" fill="#6F46BE"/>
<path d="M38.4166 48.6155C39.6749 49.3712 40.6815 49.3712 41.4364 49.1193C41.4364 49.3712 41.4364 49.623 41.4364 49.8749C41.1848 52.3938 41.4364 57.1797 44.2046 59.6986C44.7079 60.2024 45.9662 60.9581 47.2244 61.4618L46.9728 65.744L40.6815 71.2855C40.6815 71.2855 51.2508 79.5979 52.7607 79.5979C54.2706 79.5979 64.085 71.5374 64.085 71.5374L54.5223 67.0034C54.5223 67.0034 54.7739 64.9883 54.7739 63.477C56.5355 63.7289 57.7937 63.7289 59.052 63.477C63.3301 62.7213 66.3499 57.6835 67.1048 54.1571C67.8598 50.6306 71.1312 35.0135 71.1312 35.0135V31.7389L65.0916 26.4492C65.0916 26.4492 44.9596 28.4643 44.4563 28.7162C44.2046 28.9681 43.4497 35.0135 42.6947 40.8069C41.1848 39.5475 38.4166 39.5475 37.1584 41.0588C34.8935 43.5777 36.1518 47.356 38.4166 48.6155Z" fill="#CEC4FA"/>
<path d="M62.0722 30.9831C60.8139 30.9831 56.5358 27.2048 52.7611 27.7085C48.9863 28.2123 44.9599 31.9907 43.9533 38.5398C43.7017 39.7992 43.7017 40.303 43.7017 41.0587C43.7017 41.8143 42.6951 40.303 41.1851 40.0511C39.6752 39.5473 39.9269 31.9906 40.4302 28.7161C41.1851 23.6783 46.7215 18.8924 52.0061 19.1443C57.2908 19.3962 63.8337 19.6481 68.3634 23.6783C72.3898 27.2048 72.3898 30.2274 72.1382 34.0058C71.8865 37.5322 70.125 40.8068 70.125 40.8068C70.125 40.8068 70.6283 33.502 68.8667 31.7388C67.3568 29.9755 63.5821 30.7312 62.0722 30.9831Z" fill="#6F46BE"/>
<path d="M70.3764 131.739H41.1849L35.1453 71.5376L38.1651 70.0263L46.9728 65.7441C46.9728 65.7441 46.9728 67.2555 47.9795 69.5225C49.741 73.0489 54.5224 72.797 55.2773 70.7819C56.0323 68.7668 54.542 66.7094 54.542 66.7094L60.8136 68.7668C60.8136 68.7668 61.0653 68.7668 61.3169 69.0187L66.35 70.53L70.3764 131.739Z" fill="#6F46BE"/>
<path d="M56.5356 131.738H21.3045C19.0396 131.738 17.2781 129.975 17.2781 127.708V108.06C18.5363 98.4886 19.7946 88.1612 20.5495 84.1309C21.3045 80.1007 23.3177 77.3299 27.0925 74.5591C29.3573 73.0478 33.3837 71.2846 36.6552 70.5289C37.1585 70.277 37.6618 70.277 37.9134 70.0251C39.1717 69.5214 39.9266 69.0176 39.9266 69.0176C40.4299 69.5214 46.4696 78.8413 49.2377 87.9093C51.2509 95.2141 55.529 106.297 56.5356 126.952C56.5356 128.715 56.5356 130.227 56.5356 131.738Z" fill="white"/>
<path d="M37.8873 82.2075L44.6818 86.7415L41.4104 93.5425C41.4104 93.5425 46.9467 101.855 49.9665 106.893C52.9863 111.93 56.6105 127.385 56.6105 127.385C55.6039 106.478 51.9797 95.3058 49.7149 88.001C47.1984 78.9329 40.9071 69.613 40.4038 69.1092C40.4038 69.1092 40.4038 68.6055 39.9005 68.6055C39.6488 68.6055 37.384 69.613 37.1323 69.8649C37.1323 69.8649 37.1323 70.1168 37.1323 70.3687C37.384 72.8876 37.8873 82.2075 37.8873 82.2075Z" fill="#E7E7E7"/>
<path d="M81.9523 121.916V127.71C81.9523 129.977 80.1908 131.74 77.9259 131.74H63.8335C63.8335 130.229 63.8335 128.213 63.8335 125.695C63.5818 111.841 63.5818 94.964 63.3302 90.1781C62.8269 82.1177 60.562 68.5156 60.562 68.5156C60.562 68.5156 60.8137 68.5156 61.0653 68.7675C61.5686 69.0194 62.5752 69.2713 63.8335 69.5232C66.6016 70.2789 70.3764 71.5383 72.3896 72.5459C75.6611 74.0572 78.6809 76.828 79.6875 81.8658C80.9457 87.4073 81.449 101.765 81.449 101.765L81.9523 121.916Z" fill="white"/>
<path d="M60.5619 68.5155C60.5619 68.5155 62.8268 82.1175 63.3301 90.178C63.5817 94.712 63.8334 111.84 63.8334 125.694C64.085 124.435 66.0983 113.1 66.8532 108.566C67.6082 103.78 70.628 90.9337 70.628 90.9337L66.3499 84.6364L70.1247 79.3467C70.1247 79.3467 65.3433 71.7901 64.085 69.5231C63.8334 69.2712 63.8334 69.0193 63.5817 69.0193C63.3301 68.7674 61.0652 68.0117 60.8136 68.0117C60.3103 68.2636 60.5619 68.5155 60.5619 68.5155Z" fill="#E7E7E7"/>
<path d="M25.495 57.4822C30.1885 52.7911 30.1885 45.1854 25.495 40.4944C20.8015 35.8033 13.1918 35.8033 8.49833 40.4944C3.80483 45.1854 3.80483 52.7911 8.49833 57.4822C13.1918 62.1733 20.8015 62.1733 25.495 57.4822Z" fill="#C0AFE9"/>
<path d="M23.8644 45.7204H19.8989V42.324C19.8989 41.5292 19.2486 40.8828 18.4491 40.8828H15.5443C14.7448 40.8828 14.0945 41.5292 14.0945 42.324V45.7204H10.129C9.32946 45.7204 8.6792 46.3669 8.6792 47.1617V50.5157C8.6792 51.3105 9.32946 51.9569 10.129 51.9569H14.0945V55.3533C14.0945 56.1481 14.7448 56.7946 15.5443 56.7946H18.4491C19.2486 56.7946 19.8989 56.1481 19.8989 55.3533V51.9569H23.8644C24.6639 51.9569 25.3142 51.3105 25.3142 50.5157V47.1617C25.3142 46.3616 24.6639 45.7204 23.8644 45.7204Z" fill="white"/>
<path d="M143.136 115.211H101.6C99.9462 115.211 98.6597 113.923 98.6597 112.267V26.9101C98.6597 25.2545 99.9462 23.9668 101.6 23.9668H142.952C144.606 23.9668 145.892 25.2545 145.892 26.9101V112.267C146.076 113.923 144.606 115.211 143.136 115.211Z" fill="#EDE3FF"/>
<path d="M145.709 19H99.0274C97.1895 19 95.7192 20.4717 95.7192 22.3113V118.89C95.7192 120.729 97.1895 122.201 99.0274 122.201H145.709C147.547 122.201 149.017 120.729 149.017 118.89V22.3113C149.201 20.4717 147.547 19 145.709 19ZM146.076 112.267C146.076 113.923 144.79 115.211 143.136 115.211H101.6C99.9463 115.211 98.6598 113.923 98.6598 112.267V26.9102C98.6598 25.2546 99.9463 23.9669 101.6 23.9669H142.952C144.606 23.9669 145.892 25.2546 145.892 26.9102V112.267H146.076Z" fill="#6F46BE"/>
<path d="M122.368 28.5651C124.906 28.5651 126.963 26.5061 126.963 23.9662C126.963 21.4262 124.906 19.3672 122.368 19.3672C119.831 19.3672 117.773 21.4262 117.773 23.9662C117.773 26.5061 119.831 28.5651 122.368 28.5651Z" fill="#6F46BE"/>
<path d="M123.655 23.9667C123.655 24.7025 123.103 25.2544 122.368 25.2544C121.633 25.2544 121.082 24.7025 121.082 23.9667C121.082 23.2309 121.633 22.679 122.368 22.679C123.103 22.495 123.655 23.2309 123.655 23.9667Z" fill="white"/>
<path d="M136.152 47.5129C136.703 49.5364 132.292 54.8712 131.925 58.5504C131.741 62.2296 133.395 64.805 131.741 67.3805C130.087 69.7719 125.492 72.1634 123.103 71.4276C120.898 70.6917 111.892 49.3525 111.892 49.3525C111.892 49.3525 111.892 49.3525 111.708 49.1685C111.341 48.6166 110.238 47.145 109.687 45.6733C109.687 45.4893 109.503 45.4893 109.503 45.3054C109.319 44.5695 109.136 43.8337 109.319 43.2818C110.054 41.0743 112.627 41.2583 112.627 41.2583C112.444 41.0743 112.26 40.5224 112.26 39.7866C112.26 39.4187 112.076 38.8668 112.26 38.4989C112.26 38.4989 112.26 38.4989 112.26 38.3149C112.26 37.763 112.444 37.2112 112.811 36.6593C113.914 34.8197 122.184 32.6122 125.125 34.4518C128.065 36.2914 128.249 39.6026 128.249 39.6026C128.249 39.6026 130.087 39.0508 132.109 40.1545C132.844 40.5224 133.211 41.2583 133.211 42.1781C133.395 43.6497 133.028 45.4893 133.028 45.4893C133.028 45.4893 135.601 45.6733 136.152 47.5129Z" fill="#6F46BE"/>
<path d="M116.671 43.4659C117.222 46.0414 115.017 48.6168 111.892 49.3526C111.525 48.8007 110.422 47.3291 109.871 45.8574C109.871 45.6734 109.687 45.6734 109.687 45.4895C109.503 44.7536 109.319 44.0178 109.503 43.4659C110.238 41.2584 112.811 41.4424 112.811 41.4424C112.627 41.2584 112.444 40.7065 112.444 39.9707C114.649 40.1547 116.303 41.4424 116.671 43.4659Z" fill="#6F46BE"/>
<path d="M133.579 60.759C133.579 61.1269 133.395 61.3109 133.211 61.4948C131.925 63.5184 129.536 63.3344 129.536 63.3344C129.536 63.3344 129.536 66.0938 128.433 67.5655C126.779 69.589 124.573 70.3249 124.573 70.3249L124.022 75.2918L129.352 78.0511L126.963 86.5133L105.644 81.1784L118.325 75.2918L118.692 71.0607C118.508 71.0607 118.325 71.0607 117.957 70.8767C117.038 70.6928 115.752 70.3249 113.914 69.2211C113.363 68.8532 112.811 68.4853 112.444 67.7494C109.871 63.7023 109.687 54.3204 110.238 50.2733C110.79 45.4904 114.833 43.4668 118.141 43.0989C121.817 42.731 123.471 43.0989 126.044 45.3064C128.8 47.5139 128.984 56.16 128.984 56.16C128.984 56.16 130.455 55.7921 131.557 56.344C132.66 56.8958 134.13 58.9194 133.579 60.759Z" fill="#CEC4FA"/>
<path d="M137.071 101.229C137.071 101.781 137.255 104.172 137.071 115.21H106.93C106.746 113.37 106.746 110.979 106.562 108.403C106.379 103.253 106.195 99.7573 106.195 99.7573L102.152 97.5498L100.865 96.63C100.865 96.63 100.314 90.5594 102.152 84.4887C103.254 80.8095 115.568 76.3945 115.568 76.3945C115.568 76.3945 117.038 81.5454 120.53 81.7293C125.309 81.9133 127.698 77.1304 127.698 77.1304C127.698 77.1304 138.725 80.9935 140.011 83.7529C142.584 89.8235 141.114 95.5263 141.114 95.5263L142.768 95.7102L143.136 99.5734L137.071 101.229Z" fill="#C0AFE9"/>
<path d="M133.395 41.9945C133.028 43.0982 132.292 43.8341 131.557 43.8341C130.638 44.018 128.801 43.6501 127.698 42.1784C126.963 41.0747 126.779 41.0747 125.86 41.4426C124.757 42.1784 121.633 43.8341 118.141 43.8341C115.752 44.018 115.017 42.5464 114.282 41.9945C114.282 41.9945 114.098 42.3624 113.73 43.0982C113.179 44.3859 111.157 45.6737 109.871 45.4897C109.871 45.3057 109.687 45.3057 109.687 45.1218C109.503 44.3859 109.319 43.6501 109.503 43.0982C110.238 40.8907 112.811 41.0747 112.811 41.0747C112.627 40.7068 112.26 39.419 112.26 38.1313V38.3153V38.1313C112.26 37.5795 112.444 37.0276 112.811 36.4757C113.914 34.6361 122.184 32.4286 125.125 34.2682C128.065 36.1078 128.065 38.6832 128.065 38.6832C128.065 38.6832 129.903 37.9474 131.925 39.0511C132.844 39.603 133.211 41.0747 133.395 41.9945Z" fill="#6F46BE"/>
<path d="M106.746 111.899C106.746 111.899 103.438 108.036 101.6 105.644C99.7624 103.437 93.6975 91.2953 92.2272 90.1915C91.6759 90.5594 90.9407 90.9273 90.2056 91.2953C88.0002 92.7669 83.038 93.5028 81.0164 93.8707C80.465 94.0547 79.3623 93.5028 79.5461 92.9509C79.7299 92.583 80.465 92.0311 79.3623 92.399C78.8109 92.583 78.2596 91.6632 78.8109 91.1113C79.3623 90.5594 78.9947 90.5594 78.4434 90.7434C77.7082 90.9273 77.1569 89.8236 78.0758 89.0878C78.4434 88.7198 78.9947 88.3519 78.0758 88.5359C77.1569 88.9038 76.6055 87.984 77.3407 87.0642C78.0758 86.1444 78.6272 85.7765 79.5461 85.4086C81.3839 84.4888 85.2434 83.9369 85.2434 83.9369C85.2434 83.9369 84.1407 82.8331 83.4056 82.2813C82.4866 81.5454 82.8542 79.8898 83.9569 80.2577C84.8758 80.4417 86.7137 81.1775 88.9191 82.2813C90.3894 83.0171 92.411 84.3048 93.6975 85.0407C93.8813 85.2246 94.0651 85.4086 94.2489 85.4086C94.4326 85.4086 94.4327 85.5925 94.6164 85.5925C98.2921 88.7198 106.379 99.3895 106.379 99.3895L106.746 111.899Z" fill="#CEC4FA"/>
<path d="M161.698 80.6258C161.147 80.6258 160.779 80.6258 161.514 80.9937C162.249 81.5456 161.882 82.4654 161.33 82.4654C160.044 82.2814 160.963 82.6494 161.33 83.0173C161.882 83.5691 160.779 84.305 160.228 84.305C158.206 84.4889 153.244 85.0408 150.671 84.305C149.384 83.9371 149.384 83.7531 148.465 83.7531C148.465 83.7531 148.465 83.7531 148.465 83.9371C147.914 84.8569 145.157 94.0548 144.238 101.597C143.32 109.139 134.498 106.564 134.865 106.196C135.233 105.828 138.909 95.5265 140.563 90.7436L140.93 89.8238C140.93 89.8238 144.606 80.6258 144.974 79.89C145.341 79.1541 147.547 76.5787 149.384 75.107C151.222 73.6354 152.876 72.3476 153.611 71.9797C154.53 71.4278 155.266 73.0835 154.53 73.8193C153.795 74.7391 153.06 76.0268 153.06 76.0268C153.06 76.0268 157.103 75.4749 158.941 75.8429C159.86 76.0268 160.595 76.2108 161.514 76.9466C162.617 77.6825 162.249 78.6023 161.33 78.6023C160.412 78.6023 160.963 78.9702 161.514 79.1541C162.617 79.3381 162.249 80.6258 161.698 80.6258Z" fill="#CEC4FA"/>
<path d="M141.996 9C142.766 7.66667 144.691 7.66667 145.46 9L158.884 32.25C159.654 33.5833 158.691 35.25 157.152 35.25H130.305C128.765 35.25 127.803 33.5833 128.573 32.25L141.996 9Z" fill="#C0AFE9"/>
<path d="M143.515 15C144.364 15 145.001 15.1841 145.425 15.5522C145.876 15.9056 146.062 16.3106 145.982 16.7671L144.391 26H142.6L141.008 16.7671C140.955 16.3253 141.154 15.9203 141.605 15.5522C142.056 15.1841 142.693 15 143.515 15Z" fill="white"/>
<circle cx="143.5" cy="29.5" r="2.5" fill="white"/>
</svg>
