<?xml version="1.0" encoding="utf-8"?>
<!-- Generator: Adobe Illustrator 25.0.0, SVG Export Plug-In . SVG Version: 6.00 Build 0)  -->
<svg version="1.1" id="Layer_1" xmlns="http://www.w3.org/2000/svg" xmlns:xlink="http://www.w3.org/1999/xlink" x="0px" y="0px"
	 viewBox="0 0 183 191" style="enable-background:new 0 0 183 191;" xml:space="preserve">
<style type="text/css">
	.st0{fill:#EEE8FF;}
	.st1{fill:#6F46BE;}
	.st2{fill:#C0AFE9;}
	.st3{clip-path:url(#SVGID_2_);}
	.st4{fill:#C0AFE9;stroke:#6F46BE;stroke-linecap:round;stroke-linejoin:round;stroke-miterlimit:10;}
</style>
<path class="st0" d="M21.1,99.2l56.8,65.9c18.9,21.9,51.9,24.4,73.8,5.5l0,0c21.9-18.9,24.4-51.9,5.5-73.8l-56.8-65.9
	C81.6,9,48.5,6.6,26.6,25.4l0,0C4.8,44.3,2.3,77.3,21.1,99.2z"/>
<circle class="st1" cx="102" cy="86.2" r="55"/>
<path class="st2" d="M124,95c0,4.3-1.4,7.8-4.1,10.5c-2.7,2.7-6.6,4.5-11.5,5.4V121H95.9v-9.7c-3-0.3-5.9-0.8-8.8-1.5
	c-2.8-0.7-5.2-1.6-7.2-2.6V96.1c2.5,1.2,5.5,2.1,9,2.9c3.6,0.7,7.2,1.1,10.7,1.1c3.5,0,6.1-0.3,7.8-0.9c1.8-0.7,2.7-1.8,2.7-3.4
	c0-1.1-0.3-2-0.9-2.7c-0.6-0.7-1.5-1.2-3-1.6c-1.4-0.4-3.5-0.7-6.2-1c-6.9-0.6-11.8-2.1-14.8-4.7c-3-2.7-4.5-6.4-4.5-11.3
	c0-4.1,1.4-7.5,4.2-10.1c2.8-2.7,6.5-4.5,11-5.4v-9.2h12.4v8.8c5,0.6,9.3,1.8,12.7,3.5v11c-2-0.9-4.7-1.7-8-2.3
	c-3.3-0.6-6.2-0.9-8.8-0.9c-3,0-5.4,0.3-7.1,0.9c-1.7,0.6-2.5,1.7-2.5,3.2c0,1.1,0.3,2,0.9,2.7c0.7,0.6,1.7,1.1,3.1,1.4
	c1.4,0.3,3.4,0.7,6.1,1c6.8,0.8,11.7,2.4,14.7,4.9C122.5,86.4,124,90.1,124,95z"/>
<g>
	<defs>
		<rect id="SVGID_1_" x="125" y="31.2" width="37" height="35"/>
	</defs>
	<clipPath id="SVGID_2_">
		<use xlink:href="#SVGID_1_"  style="overflow:visible;"/>
	</clipPath>
	<g class="st3">
		<path class="st4" d="M141.8,65.6c8.8,0,16-7.2,16-16s-7.2-16-16-16c-8.8,0-16,7.2-16,16S133,65.6,141.8,65.6z"/>
		<path class="st1" d="M141.7,56.5c-0.7,0-1.3-0.3-1.8-0.8l-7.8-10.2c-0.7-1-0.5-2.3,0.5-3.1c0.8-0.7,2.3-0.5,3,0.5l6.3,8.1
			L158.2,32c0.8-1,2.1-1,3.1-0.2c1,0.8,1,2.1,0.2,3.1l-18.2,20.6C143,56.1,142.3,56.5,141.7,56.5z"/>
	</g>
</g>
</svg>
