<svg id="eF9HiPtmcRl1" xmlns="http://www.w3.org/2000/svg" xmlns:xlink="http://www.w3.org/1999/xlink" viewBox="0 0 2251 2262" shape-rendering="geometricPrecision" text-rendering="geometricPrecision">
<style>
#eF9HiPtmcRl1 path, #eF9HiPtmcRl1 g {animation-iteration-count: infinite;}
#eF9HiPtmcRl11_ts {animation: eF9HiPtmcRl11_ts__ts 9000ms linear 1 normal forwards}@keyframes eF9HiPtmcRl11_ts__ts { 0% {transform: translate(941.30554px,1221.734032px) scale(0.196114,0.759544)} 6.666667% {transform: translate(941.30554px,1221.734032px) scale(0.196114,0.759544)} 25.555556% {transform: translate(941.30554px,1221.734032px) scale(0.759544,0.759544)} 100% {transform: translate(941.30554px,1221.734032px) scale(0.759544,0.759544)}} #eF9HiPtmcRl11 {animation: eF9HiPtmcRl11_c_o 9000ms linear 1 normal forwards}@keyframes eF9HiPtmcRl11_c_o { 0% {opacity: 0} 6.666667% {opacity: 0} 25.555556% {opacity: 0.6} 100% {opacity: 0.6}} #eF9HiPtmcRl13_ts {animation: eF9HiPtmcRl13_ts__ts 9000ms linear 1 normal forwards}@keyframes eF9HiPtmcRl13_ts__ts { 0% {transform: translate(941.809688px,1304.80086px) scale(0.196114,0.759544)} 25.555556% {transform: translate(941.809688px,1304.80086px) scale(0.196114,0.759544)} 44.444444% {transform: translate(941.809688px,1304.80086px) scale(0.759544,0.759544)} 100% {transform: translate(941.809688px,1304.80086px) scale(0.759544,0.759544)}} #eF9HiPtmcRl13 {animation: eF9HiPtmcRl13_c_o 9000ms linear 1 normal forwards}@keyframes eF9HiPtmcRl13_c_o { 0% {opacity: 0} 25.555556% {opacity: 0} 44.444444% {opacity: 0.6} 100% {opacity: 0.6}} #eF9HiPtmcRl15_ts {animation: eF9HiPtmcRl15_ts__ts 9000ms linear 1 normal forwards}@keyframes eF9HiPtmcRl15_ts__ts { 0% {transform: translate(941.810614px,1383.044108px) scale(0.196114,0.759544)} 44.444444% {transform: translate(941.810614px,1383.044108px) scale(0.196114,0.759544)} 63.333333% {transform: translate(941.810614px,1383.044108px) scale(0.759544,0.759544)} 100% {transform: translate(941.810614px,1383.044108px) scale(0.759544,0.759544)}} #eF9HiPtmcRl15 {animation: eF9HiPtmcRl15_c_o 9000ms linear 1 normal forwards}@keyframes eF9HiPtmcRl15_c_o { 0% {opacity: 0} 44.444444% {opacity: 0} 63.333333% {opacity: 0.6} 100% {opacity: 0.6}} #eF9HiPtmcRl17_ts {animation: eF9HiPtmcRl17_ts__ts 9000ms linear 1 normal forwards}@keyframes eF9HiPtmcRl17_ts__ts { 0% {transform: translate(941.811541px,1471.067774px) scale(0.196114,0.759544)} 63.333333% {transform: translate(941.811541px,1471.067774px) scale(0.196114,0.759544)} 82.222222% {transform: translate(941.811541px,1471.067774px) scale(0.759544,0.759544)} 100% {transform: translate(941.811541px,1471.067774px) scale(0.759544,0.759544)}} #eF9HiPtmcRl17 {animation: eF9HiPtmcRl17_c_o 9000ms linear 1 normal forwards}@keyframes eF9HiPtmcRl17_c_o { 0% {opacity: 0} 63.333333% {opacity: 0} 82.222222% {opacity: 0.6} 100% {opacity: 0.6}} #eF9HiPtmcRl21_ts {animation: eF9HiPtmcRl21_ts__ts 9000ms linear 1 normal forwards}@keyframes eF9HiPtmcRl21_ts__ts { 0% {transform: translate(885.50824px,1209.228577px) scale(0.027618,0.027618)} 7.777778% {transform: translate(885.50824px,1209.228577px) scale(1,1)} 100% {transform: translate(885.50824px,1209.228577px) scale(1,1)}} #eF9HiPtmcRl26_to {animation: eF9HiPtmcRl26_to__to 9000ms linear 1 normal forwards}@keyframes eF9HiPtmcRl26_to__to { 0% {offset-distance: 0%} 25% {offset-distance: 25%} 50% {offset-distance: 50%} 75% {offset-distance: 75%} 100% {offset-distance: 100%}} #eF9HiPtmcRl29_to {animation: eF9HiPtmcRl29_to__to 9000ms linear 1 normal forwards}@keyframes eF9HiPtmcRl29_to__to { 0% {offset-distance: 0%} 25% {offset-distance: 25%} 50% {offset-distance: 50%} 75% {offset-distance: 75%} 100% {offset-distance: 100%}} #eF9HiPtmcRl36_to {animation: eF9HiPtmcRl36_to__to 9000ms linear 1 normal forwards}@keyframes eF9HiPtmcRl36_to__to { 0% {offset-distance: 0%} 25% {offset-distance: 25%} 50% {offset-distance: 50%} 75% {offset-distance: 75%} 100% {offset-distance: 100%}} #eF9HiPtmcRl54_to {animation: eF9HiPtmcRl54_to__to 9000ms linear 1 normal forwards}@keyframes eF9HiPtmcRl54_to__to { 0% {offset-distance: 0%} 25% {offset-distance: 25%} 50% {offset-distance: 50%} 75% {offset-distance: 75%} 100% {offset-distance: 100%}} #eF9HiPtmcRl57_ts {animation: eF9HiPtmcRl57_ts__ts 9000ms linear 1 normal forwards}@keyframes eF9HiPtmcRl57_ts__ts { 0% {transform: translate(871.526245px,1286.047836px) scale(0.027618,0.027618)} 18.888889% {transform: translate(871.526245px,1286.047836px) scale(0.027618,0.027618)} 26.666667% {transform: translate(871.526245px,1286.047836px) scale(1,1)} 100% {transform: translate(871.526245px,1286.047836px) scale(1,1)}} #eF9HiPtmcRl58_ts {animation: eF9HiPtmcRl58_ts__ts 9000ms linear 1 normal forwards}@keyframes eF9HiPtmcRl58_ts__ts { 0% {transform: translate(871.526245px,1380.286432px) scale(0.027618,0.027618)} 36.666667% {transform: translate(871.526245px,1380.286432px) scale(0.027618,0.027618)} 44.444444% {transform: translate(871.526245px,1380.286432px) scale(1,1)} 100% {transform: translate(871.526245px,1380.286432px) scale(1,1)}} #eF9HiPtmcRl59_ts {animation: eF9HiPtmcRl59_ts__ts 9000ms linear 1 normal forwards}@keyframes eF9HiPtmcRl59_ts__ts { 0% {transform: translate(871.526245px,1485.694563px) scale(0.027618,0.027618)} 55.555556% {transform: translate(871.526245px,1485.694563px) scale(0.027618,0.027618)} 63.333333% {transform: translate(871.526245px,1485.694563px) scale(1,1)} 100% {transform: translate(871.526245px,1485.694563px) scale(1,1)}}
</style>
<circle r="755.367" transform="translate(1101.48 1173.32)" fill="none" stroke="#4477fe" stroke-width="15.1909" stroke-linecap="round" stroke-dasharray="100,100"/><g transform="matrix(1.068727 0 0 1.068727-71.9901-97.810028)"><path d="M753.23383,815.04801c0-36.38673,29.51817-65.88971,65.92389-65.88971h560.73048c30.9287,0,56.4342,24.23174,58.0064,55.11177l41.4104,812.54833c1.2152,24.1535-17.7885,44.5321-41.9952,45.003l-642.67169,11.6818c-22.74911.3569-41.40428-17.9405-41.40428-40.6736Z" fill="#4477fe" stroke-width="0.759544"/><path d="M806.40193,806.4606c-.079-11.21087,9.8004-19.86512,20.89886-18.37034c73.71681,9.99181,328.87891,16.49427,538.41431.44509c9.5627-.74739,17.8341,6.49031,18.343,16.04918l41.7598,785.44467c.5848,10.778-7.679,19.9837-18.419,20.6141-88.1223,5.1953-451.00065,25.3688-580.44826,11.8033-7.87116-.8279-13.85333-7.4359-13.89282-15.3808Z" fill="#f1f1f1" stroke-width="0.759544"/><path d="M1341.235,893.48918c.9874,0,1.7698-.82638,1.7318-1.80923l-.2735-7.6714c-.038-.98285-.8658-1.80924-1.8532-1.84873l-248.8191-3.77646c-.9799,0-1.4888.70866-1.1014,1.65277l4.8839,11.80104c.3949.90462,1.4963,1.65201,2.4761,1.65201Z" fill="#4477fe" stroke-width="0.759544"/><path d="M1092.021,909.77457c-.9799,0-1.4888.70789-1.1014,1.65201l4.8839,11.80104c.3949.90537,1.4963,1.65277,2.4761,1.65277h242.9554c.9874,0,1.7698-.82639,1.7318-1.81l-.2735-7.67064c-.038-.98361-.8658-1.80923-1.8532-1.84873Z" fill="#4477fe" stroke-width="0.759544"/><path d="M1092.021,941.63745c-.9799,0-1.4888.70866-1.1014,1.65277l4.8839,11.80104c.3949.90462,1.4963,1.65201,2.4761,1.65201h242.9554c.9874,0,1.7698-.82639,1.7318-1.80924l-.2735-7.67139c-.038-.98285-.8658-1.80924-1.8532-1.84874Z" fill="#4477fe" stroke-width="0.759544"/><path d="M1342.1845,1062.3207c.9798,0,1.7697-.8279,1.6861-1.8077l-.5089-7.7094c-.076-.9874-.9418-1.8077-1.9292-1.8077l-483.31092-3.8205c-.98361,0-1.29882.6304-.66916,1.4203l9.8004,12.3122c.62966.7824,1.92848,1.4128,2.91209,1.4128Z" fill="#4477fe" stroke-width="0.759544"/><path d="M858.12158,1078.5673c-.98361,0-1.29882.6305-.66916,1.4204l9.8004,12.3122c.62966.7823,1.92848,1.4127,2.91209,1.4127h472.01959c.9798,0,1.7697-.8279,1.6861-1.8077l-.5089-7.7093c-.076-.9875-.9418-1.8154-1.9292-1.8154Z" fill="#4477fe" stroke-width="0.759544"/><g id="eF9HiPtmcRl11_ts" transform="translate(941.30554,1221.734032) scale(0.196114,0.759544)"><g id="eF9HiPtmcRl11" transform="translate(-865.612184,-1321.240152)" opacity="0"><path d="M865.169,1324.58c1.503,5.8,6.788,9.79,12.747,9.74L1365,1330.18c5.49-.06,9.9-4.61,9.79-10.1-.1-5.34-4.45-9.64-9.84-9.69l-487.138-2.23c-8.55-.05-14.871,8.08-12.643,16.42Z" fill="#64748b"/></g></g><g id="eF9HiPtmcRl13_ts" transform="translate(941.809688,1304.80086) scale(0.196114,0.759544)"><g id="eF9HiPtmcRl13" transform="translate(-865.612184,-1321.240152)" opacity="0"><path d="M865.169,1324.58c1.503,5.8,6.788,9.79,12.747,9.74L1365,1330.18c5.49-.06,9.9-4.61,9.79-10.1-.1-5.34-4.45-9.64-9.84-9.69l-487.138-2.23c-8.55-.05-14.871,8.08-12.643,16.42Z" fill="#64748b"/></g></g><g id="eF9HiPtmcRl15_ts" transform="translate(941.810614,1383.044108) scale(0.196114,0.759544)"><g id="eF9HiPtmcRl15" transform="translate(-865.612184,-1321.240152)" opacity="0"><path d="M865.169,1324.58c1.503,5.8,6.788,9.79,12.747,9.74L1365,1330.18c5.49-.06,9.9-4.61,9.79-10.1-.1-5.34-4.45-9.64-9.84-9.69l-487.138-2.23c-8.55-.05-14.871,8.08-12.643,16.42Z" fill="#64748b"/></g></g><g id="eF9HiPtmcRl17_ts" transform="translate(941.811541,1471.067774) scale(0.196114,0.759544)"><g id="eF9HiPtmcRl17" transform="translate(-865.612184,-1321.240152)" opacity="0"><path d="M865.169,1324.58c1.503,5.8,6.788,9.79,12.747,9.74L1365,1330.18c5.49-.06,9.9-4.61,9.79-10.1-.1-5.34-4.45-9.64-9.84-9.69l-487.138-2.23c-8.55-.05-14.871,8.08-12.643,16.42Z" fill="#64748b"/></g></g><g transform="matrix(.196114 0 0 0.759544 771.547427 291.325749)" opacity="0"><path d="M865.169,1324.58c1.503,5.8,6.788,9.79,12.747,9.74L1365,1330.18c5.49-.06,9.9-4.61,9.79-10.1-.1-5.34-4.45-9.64-9.84-9.69l-487.138-2.23c-8.55-.05-14.871,8.08-12.643,16.42Z" transform="translate(-.001222 13.080112)" fill="#64748b"/></g><g id="eF9HiPtmcRl21_ts" transform="translate(885.50824,1209.228577) scale(0.027618,0.027618)"><path d="M865.32434,1206.7708c2.95234-1.7318,6.76981-.714,8.46208,2.3166l7.87192,14.1199c.78688,1.4204,2.87259,1.3368,3.50225-.1519l19.56131-43.5522c.98361-2.1571,4.21091-1.4508,4.17141.9494-.19672,13.292-3.73847,38.6304-25.03154,59.7913c0,0-11.72812-4.5648-21.17381-25.2928-1.33832-2.9926-.23622-6.5321,2.63638-8.1803Z" transform="translate(-885.50824,-1209.228577)" fill="#4477fe" stroke-width="0.759544"/></g><path d="M1134.3352,638.34535c-20.2723-14.08271-37.9013-13.80699-50.2971-10.14903-11.302,3.34427-18.662,14.2407-17.5606,26.00224l5.3548,58.3368l63.6422,5.62518c0,0,38.5696-52.20044-1.1393-79.81519Zm-27.9816,47.04769c-8.7804,0-15.8669-7.08047-15.8669-15.85321c0-8.77197,7.0865-15.85244,15.8669-15.85244c8.7727,0,15.8592,7.08047,15.8592,15.85244c0,8.77274-7.1245,15.85321-15.8592,15.85321Z" fill="#4477fe" stroke-width="0.759544"/><path d="M985.01104,750.2209v-29.34575c0-10.10953,8.38309-18.21311,18.49796-17.89866l202.2993,6.92325c8.9702.31521,16.2542,7.39568,16.7631,16.36438l1.6938,28.16542Z" fill="#4477fe" stroke-width="0.759544"/><path d="M932.86605,992.92872c41.73848,0,75.57465-33.83618,75.57465-75.57466s-33.83617-75.57465-75.57465-75.57465-75.57465,33.83618-75.57465,75.57465s33.83617,75.57466,75.57465,75.57466Z" fill="#4477fe" stroke-width="0.759544"/><path d="M978.05893,977.69074c-13.12948,9.5262-28.13428,15.23798-46.89046,15.23798-16.88011,0-33.76098-5.71178-45.01439-15.23798c7.50278-15.23722,22.50757-26.66532,37.51237-30.4752v-11.4281c-13.12948-3.80911-22.50757-15.23722-22.50757-32.38013c0-19.04633,13.12948-34.28431,30.00959-34.28431c16.88087,0,30.01035,15.23798,30.01035,34.28431c0,15.23798-9.37809,28.57102-22.50757,32.38013v11.4281c18.75618,3.80988,31.88491,15.23798,39.38768,30.4752Z" fill="#fff" stroke-width="0.759544"/></g><g id="eF9HiPtmcRl26_to" style="offset-path:path('M509.300616,704.380789C250.314228,1031.433175,305.492622,1506.511468,632.545008,1765.497856C959.597395,2024.484243,1434.675687,1969.305849,1693.662075,1642.253463C1952.648463,1315.201077,1897.470068,840.122783,1570.417682,581.136396C1243.365296,322.150009,768.287004,377.328403,509.300616,704.380789');offset-rotate:0deg"><g transform="translate(-505.357513,-700.883972)"><path d="M616.11862,811.58752c61.17142-61.14027,61.17142-160.26687,0-221.40715-61.17217-61.14027-160.35042-61.14027-221.52184,0-61.17195,61.14028-61.17195,160.26688,0,221.40715c61.17142,61.14028,160.34967,61.14028,221.52184,0Z" fill="#fef592" stroke-width="0.759544"/><path d="M595.02304,657.6674h-52.07359v-44.84122c0-10.4931-8.5388-19.0281-19.03798-19.0281h-38.14507c-10.49918,0-19.03798,8.535-19.03798,19.0281v44.84122h-52.07359c-10.49842,0-19.03798,8.53424-19.03798,19.0281v44.28143c0,10.49311,8.53956,19.0281,19.03798,19.0281h52.07359v44.84122c0,10.4931,8.5388,19.0281,19.03798,19.0281h38.14507c10.49918,0,19.03798-8.535,19.03798-19.0281v-44.84122h52.07359c10.49842,0,19.03798-8.53499,19.03798-19.0281v-44.28143c0-10.56374-8.53956-19.0281-19.03798-19.0281Z" fill="#faf9f6" stroke-width="0.759544"/></g></g><g id="eF9HiPtmcRl29_to" style="offset-path:path('M1844.609267,1037.848766C1769.790502,627.435115,1376.43191,355.381707,966.018259,430.200471C555.604608,505.019236,283.551199,898.377828,358.369964,1308.791479C433.188728,1719.20513,826.547319,1991.258538,1236.960971,1916.439774C1647.374623,1841.62101,1919.428031,1448.262418,1844.609267,1037.848766');offset-rotate:0deg"><g transform="translate(-1804.902465,-1093.43457)"><path d="M1697.279,1093.8949l197.717,24.0168c34.7871,4.2079,66.4373-20.5684,70.6528-55.3556l1.7013-13.7857c4.2155-34.7871-20.5684-66.43733-55.3479-70.6528l-197.717-24.00995c-34.7871-4.2094-66.4374,20.5715-70.6528,55.35635l-1.7014,13.7857c-4.2155,34.7871,20.5685,66.4374,55.348,70.6452Z" fill="#4477fe" stroke-width="0.759544"/><path d="M1796.1641,1105.8957l103.1764,12.5477c32.4022,3.9344,61.8877-19.1633,65.8297-51.5655l2.7344-22.3989c3.9344-32.4022-19.1633-61.88768-51.5655-65.82972l-103.1688-12.54463Z" fill="#aec4ff" stroke-width="0.759544"/><path d="M1706.6138,953.19468l106.5033,12.92972-16.953,139.7713-106.4957-12.9274c-30.5717-3.699-51.7402-36.3974-47.3045-73.0606l.8355-7.1017c4.451-36.61384,32.8503-63.30347,63.4144-59.61132Z" fill="#4477fe" stroke-width="0.759544"/><path d="M1881.6204,1212.1408c29.1665-29.1741,29.1665-76.4633,0-105.6298-29.1741-29.1741-76.4633-29.1741-105.6298,0-29.1741,29.1665-29.1741,76.4557,0,105.6298c29.1665,29.1665,76.4557,29.1665,105.6298,0Z" fill="#4477fe" stroke-width="0.759544"/><path d="M1871.3817,1201.9021c23.6598-23.6674,23.6598-62.032,0-85.6994-23.6674-23.6674-62.0396-23.6674-85.6994,0-23.6674,23.6674-23.6674,62.032,0,85.6994c23.6598,23.6674,62.032,23.6674,85.6994,0Z" fill="#aec4ff" stroke-width="0.759544"/><path d="M1856.4947,1105.5843l-39.9445,112.6025c-2.7647-.5545-5.5371-1.0634-8.2562-2.0128-2.742-.9798-5.2029-2.3242-7.6942-3.6383l39.914-112.6328c2.7724.5545,5.5447,1.0634,8.2563,2.0128c2.7419.9798,5.2029,2.3546,7.7246,3.6686Z" fill="#4477fe" stroke-width="0.759544"/></g></g><g id="eF9HiPtmcRl36_to" style="offset-path:path('M864.999251,1890.719369C1261.205275,2021.325642,1688.271022,1806.014503,1818.877295,1409.808478C1949.483569,1013.602453,1734.172428,586.536707,1337.966404,455.930433C941.76038,325.32416,514.694633,540.635301,384.08836,936.841325C253.482086,1333.047349,468.793226,1760.113096,864.999251,1890.719369');offset-rotate:0deg"><g transform="translate(-530.870789,-1580.25238)"><path d="M644.51722,1544.8971c1.0816-11.3096-2.6227-22.6344-10.34575-31.0425l-31.55754-34.2783-37.77973-3.7445-41.47948-4.094-37.77973-3.7369-37.62174,27.5031c-9.21252,6.7219-15.1324,17.1125-16.21475,28.4145l-18.26477,186.696c0,0,0,0,.0874-.038-.0357.4254-.19368.7899-.22938,1.2077-2.09178,21.2672,43.85609,43.2029,102.6562,48.9298c58.71278,5.765,108.08239-6.8055,110.17494-28.0727.0357-.4178-.0167-.8051.019-1.2305l.0873-.03Z" fill="#6f46be" stroke-width="0.759544"/><path d="M645.14917,1416.9747l-189.25109-18.5633c-2.01583-.2127-3.75367,1.2912-3.96634,3.3116l-7.85597,80.4813c-.21267,2.0204,1.29351,3.7522,3.30934,3.9649L636.63619,1504.74c2.01659.2127,3.75367-1.2912,3.96634-3.3116l7.85597-80.4889c.21267-2.0128-1.2935-3.7521-3.30933-3.9648Z" fill="#6f46be" stroke-width="0.759544"/><path d="M459.42312,1408.8096l-8.08155-.7899-6.64069,67.8424l8.08155.79Z" fill="#baa0ec" stroke-width="0.759544"/><path d="M476.56528,1410.4882l-8.08155-.79-6.6407,67.8425l8.08155.7976Z" fill="#baa0ec" stroke-width="0.759544"/><path d="M493.69376,1412.1364l-8.08155-.7899-6.6407,67.85l8.08156.79Z" fill="#baa0ec" stroke-width="0.759544"/><path d="M510.83592,1413.815l-8.08156-.79-6.64145,67.8501l8.08155.79Z" fill="#baa0ec" stroke-width="0.759544"/><path d="M528.07225,1415.5088l-8.08155-.79-6.64145,67.8425l8.08155.79Z" fill="#baa0ec" stroke-width="0.759544"/><path d="M545.21365,1417.1874l-8.08155-.79-6.6407,67.8425l8.08155.7975Z" fill="#baa0ec" stroke-width="0.759544"/><path d="M561.92286,1418.8583l-8.08155-.7899-6.64069,67.8501l8.08155.7899Z" fill="#baa0ec" stroke-width="0.759544"/><path d="M579.1592,1420.5445l-8.08155-.7899-6.64146,67.8501l8.08156.7899Z" fill="#baa0ec" stroke-width="0.759544"/><path d="M596.30135,1422.2231l-8.08155-.7899-6.64069,67.8501l8.08155.7899Z" fill="#baa0ec" stroke-width="0.759544"/><path d="M613.53769,1423.9169l-8.08155-.7899-6.64069,67.8425l8.08155.7899Z" fill="#baa0ec" stroke-width="0.759544"/><path d="M630.67985,1425.5955l-8.08155-.7899-6.64146,67.8425l8.08155.7975Z" fill="#baa0ec" stroke-width="0.759544"/><path d="M647.91619,1427.2817l-8.08156-.7899-6.64069,67.8501l8.08155.7899Z" fill="#baa0ec" stroke-width="0.759544"/><g transform="matrix(.759544 0 0 0.759544 283.835 218.194)" opacity="0.1"><path d="M231.045,1670.89l230.2,34.95-12.519-13.61Z" fill="#6f46be"/></g><path d="M430.43816,1537.6435l-14.42299,147.344l212.75214,20.8267l14.42223-147.3516Z" fill="#baa0ec" stroke-width="0.759544"/></g></g><g id="eF9HiPtmcRl54_to" style="offset-path:path('M1139.288175,418.895242C722.633247,398.017422,367.942875,718.858158,347.065055,1135.513087C326.187234,1552.168016,647.027972,1906.858388,1063.6829,1927.736208C1480.337828,1948.614028,1835.028201,1627.77329,1855.906021,1211.118362C1876.783841,794.463434,1555.943103,439.773062,1139.288175,418.895242');offset-rotate:0deg"><g transform="translate(-1120.222168,-418.098953)"><path d="M1065.8243,272.59183c-80.37044,30.05015-121.14202,119.51915-91.09217,199.88804s119.52187,121.14124,199.88927,91.09139s121.1397-119.51885,91.0921-199.88775c-30.2298-80.30243-119.7041-121.07447-199.8892-91.09168Zm119.9168,196.03488c5.765,15.42786-1.0178,32.27835-15.1681,39.8191l.1291.35851-33.7237,12.60995c-9.8665,3.68911-20.7128-1.25249-24.3966-11.11973l-10.8007-28.88243c-3.6914-9.86648,1.2532-20.71125,11.1197-24.40036l29.7742-11.13491-27.4955-73.55199-29.7818,11.13492c-9.8665,3.6891-20.7127-1.25325-24.4041-11.11973l-10.8615-29.06244c-3.6914-9.86648,1.2532-20.71126,11.1197-24.40036l33.7238-12.61072.1367.35927c15.6238-3.59416,31.8021,4.67044,37.5747,20.09906Z" fill="#f4679d" stroke-width="0.759544"/><path d="M1094.93,306.69263l-.1291-.35851-33.5491,12.54312c-9.8665,3.6891-14.8111,14.53388-11.1197,24.40036l10.8007,28.88319c3.6838,9.86648,14.5301,14.80883,24.3966,11.11972l29.7817-11.13491l27.5031,73.55198-29.7817,11.13492c-9.8665,3.68911-14.8111,14.53388-11.1198,24.40036l10.8008,28.88243c3.6837,9.86724,14.53,14.80884,24.3965,11.11973l33.7314-12.60995-.1367-.35851c14.1503-7.54075,20.9406-24.39124,15.1681-39.81911l-52.9858-141.7226c-5.7726-15.42786-22.1256-23.62562-37.757-20.03222Z" fill="#ffc7dc" stroke-width="0.759544"/></g></g><g id="eF9HiPtmcRl57_ts" transform="translate(871.526245,1286.047836) scale(0.027618,0.027618)"><path d="M865.32434,1206.7708c2.95234-1.7318,6.76981-.714,8.46208,2.3166l7.87192,14.1199c.78688,1.4204,2.87259,1.3368,3.50225-.1519l19.56131-43.5522c.98361-2.1571,4.21091-1.4508,4.17141.9494-.19672,13.292-3.73847,38.6304-25.03154,59.7913c0,0-11.72812-4.5648-21.17381-25.2928-1.33832-2.9926-.23622-6.5321,2.63638-8.1803Z" transform="translate(-885.50824,-1209.228577)" fill="#4477fe" stroke-width="0.759544"/></g><g id="eF9HiPtmcRl58_ts" transform="translate(871.526245,1380.286432) scale(0.027618,0.027618)"><path d="M865.32434,1206.7708c2.95234-1.7318,6.76981-.714,8.46208,2.3166l7.87192,14.1199c.78688,1.4204,2.87259,1.3368,3.50225-.1519l19.56131-43.5522c.98361-2.1571,4.21091-1.4508,4.17141.9494-.19672,13.292-3.73847,38.6304-25.03154,59.7913c0,0-11.72812-4.5648-21.17381-25.2928-1.33832-2.9926-.23622-6.5321,2.63638-8.1803Z" transform="translate(-885.50824,-1209.228577)" fill="#4477fe" stroke-width="0.759544"/></g><g id="eF9HiPtmcRl59_ts" transform="translate(871.526245,1485.694563) scale(0.027618,0.027618)"><path d="M865.32434,1206.7708c2.95234-1.7318,6.76981-.714,8.46208,2.3166l7.87192,14.1199c.78688,1.4204,2.87259,1.3368,3.50225-.1519l19.56131-43.5522c.98361-2.1571,4.21091-1.4508,4.17141.9494-.19672,13.292-3.73847,38.6304-25.03154,59.7913c0,0-11.72812-4.5648-21.17381-25.2928-1.33832-2.9926-.23622-6.5321,2.63638-8.1803Z" transform="translate(-885.50824,-1209.228577)" fill="#4477fe" stroke-width="0.759544"/></g></svg>
