<svg width="76" height="80" viewBox="0 0 76 80" fill="none" xmlns="http://www.w3.org/2000/svg">
<g filter="url(#filter0_dd_2_6857)">
<path d="M38 68C54.5685 68 68 54.5685 68 38C68 21.4315 54.5685 8 38 8C21.4315 8 8 21.4315 8 38C8 54.5685 21.4315 68 38 68Z" fill="#52CC5D"/>
<path fill-rule="evenodd" clip-rule="evenodd" d="M46.5298 41.0783C46.1094 40.8455 44.04 39.7331 43.652 39.5779C43.264 39.4227 42.9794 39.3387 42.682 39.759C42.3845 40.1729 41.5244 41.1106 41.2657 41.3887C41.007 41.6668 40.7548 41.6926 40.3345 41.4598C39.9141 41.227 38.5496 40.7226 36.9717 39.2029C35.743 38.0194 34.9346 36.5838 34.7018 36.144C34.469 35.7043 34.7018 35.4844 34.9217 35.2774C35.1221 35.0899 35.3679 34.7924 35.5942 34.5532C35.8141 34.3139 35.8917 34.1328 36.0469 33.8547C36.2021 33.5766 36.1374 33.3244 36.0404 33.1046C35.9434 32.8847 35.1609 30.7441 34.8376 29.8776C34.5142 29.0045 34.1521 29.1339 33.8999 29.1274C33.6477 29.1209 33.3631 29.0692 33.0786 29.0627C32.794 29.0498 32.322 29.1403 31.9145 29.5542C31.5071 29.9681 30.356 30.964 30.2784 33.0722C30.2008 35.1804 31.6559 37.2757 31.8628 37.5667C32.0633 37.8642 34.6501 42.4298 38.9376 44.3117C43.2316 46.1936 43.251 45.618 44.04 45.5792C44.829 45.5404 46.6138 44.6351 47.0083 43.6521C47.4028 42.6627 47.4351 41.809 47.3317 41.628C47.2282 41.4469 46.9501 41.324 46.5298 41.0977V41.0783ZM38.6595 51.2378C35.8206 51.2378 33.1821 50.3842 30.9704 48.9291L25.6028 50.6493L27.3489 45.4628C25.674 43.1606 24.691 40.3281 24.691 37.2693C24.691 29.5607 30.9574 23.2943 38.6595 23.2943C46.3616 23.2943 52.6345 29.5607 52.6345 37.2693C52.6345 44.9778 46.3681 51.2442 38.6595 51.2442V51.2378ZM38.6595 20.4812C29.3925 20.4812 21.8779 27.9957 21.8779 37.2628C21.8779 40.4316 22.7574 43.3999 24.2901 45.9284L21.2571 54.9304L30.55 51.9556C32.9557 53.2878 35.7171 54.0444 38.6595 54.0444C47.9331 54.0444 55.4476 46.5299 55.4476 37.2563C55.4476 27.9828 47.9331 20.4747 38.6595 20.4747V20.4812Z" fill="white"/>
</g>
<defs>
<filter id="filter0_dd_2_6857" x="0" y="0" width="76" height="80" filterUnits="userSpaceOnUse" color-interpolation-filters="sRGB">
<feFlood flood-opacity="0" result="BackgroundImageFix"/>
<feColorMatrix in="SourceAlpha" type="matrix" values="0 0 0 0 0 0 0 0 0 0 0 0 0 0 0 0 0 0 127 0" result="hardAlpha"/>
<feOffset/>
<feGaussianBlur stdDeviation="4"/>
<feComposite in2="hardAlpha" operator="out"/>
<feColorMatrix type="matrix" values="0 0 0 0 0 0 0 0 0 0 0 0 0 0 0 0 0 0 0.08 0"/>
<feBlend mode="normal" in2="BackgroundImageFix" result="effect1_dropShadow_2_6857"/>
<feColorMatrix in="SourceAlpha" type="matrix" values="0 0 0 0 0 0 0 0 0 0 0 0 0 0 0 0 0 0 127 0" result="hardAlpha"/>
<feOffset dy="4"/>
<feGaussianBlur stdDeviation="4"/>
<feComposite in2="hardAlpha" operator="out"/>
<feColorMatrix type="matrix" values="0 0 0 0 0 0 0 0 0 0 0 0 0 0 0 0 0 0 0.08 0"/>
<feBlend mode="normal" in2="effect1_dropShadow_2_6857" result="effect2_dropShadow_2_6857"/>
<feBlend mode="normal" in="SourceGraphic" in2="effect2_dropShadow_2_6857" result="shape"/>
</filter>
</defs>
</svg>
