<svg width="27" height="27" viewBox="0 0 27 27" fill="none" xmlns="http://www.w3.org/2000/svg">
<path d="M22.95 8.77586C23.5575 8.77586 24.03 8.57336 24.3675 8.16836C24.7725 7.76336 24.975 7.29086 24.975 6.75086C24.975 6.21086 24.7725 5.67086 24.3675 5.33336C23.9625 4.99586 23.5575 4.72586 22.95 4.72586C22.41 4.72586 21.87 4.92836 21.5325 5.33336C21.1275 5.67086 20.925 6.21086 20.925 6.75086C20.925 7.35836 21.1275 7.83086 21.5325 8.16836C21.87 8.57336 22.41 8.77586 22.95 8.77586ZM22.95 10.8009C21.8025 10.8009 20.8575 10.3959 20.0475 9.65336C19.2375 8.91086 18.9 7.89836 18.9 6.75086C18.9 5.60336 19.305 4.65836 20.0475 3.91586C20.79 3.17336 21.8025 2.70086 22.95 2.70086C24.0975 2.70086 25.0425 3.10586 25.785 3.91586C26.595 4.65836 27 5.60336 27 6.75086C27 7.89836 26.595 8.84336 25.785 9.65336C25.0425 10.3959 24.0975 10.8009 22.95 10.8009ZM13.5 7.42586C14.2425 7.42586 14.85 7.15586 15.39 6.68336C15.93 6.21086 16.2 5.46836 16.2 4.72586C16.2 3.98336 15.93 3.37586 15.39 2.83586C14.9175 2.29586 14.2425 2.02586 13.5 2.02586C12.7575 2.02586 12.0825 2.29586 11.5425 2.83586C11.07 3.30836 10.8 3.98336 10.8 4.72586C10.8 5.46836 11.07 6.14336 11.5425 6.68336C12.0825 7.15586 12.7575 7.42586 13.5 7.42586ZM13.5 9.45086C12.15 9.45086 11.07 8.97836 10.125 8.10086C9.18 7.22336 8.775 6.07586 8.775 4.72586C8.775 3.44336 9.2475 2.29586 10.125 1.41836C11.0025 0.540859 12.15 0.0683594 13.5 0.0683594C14.7825 0.0683594 15.93 0.540859 16.875 1.41836C17.82 2.36336 18.225 3.44336 18.225 4.72586C18.225 6.07586 17.7525 7.15586 16.875 8.10086C15.93 8.97836 14.7825 9.45086 13.5 9.45086ZM7.425 15.3909C7.425 16.2009 7.83 17.0784 8.64 18.0909C9.45 19.1034 11.07 20.7234 13.5 22.9509C15.8625 20.7909 17.4825 19.1709 18.2925 18.1584C19.1025 17.1459 19.575 16.2009 19.575 15.3909C19.575 14.6484 19.3725 14.0409 18.9 13.5684C18.4275 13.0959 17.8875 12.8259 17.145 12.8259C16.74 12.8259 16.4025 12.8934 15.9975 13.1634C15.66 13.3659 15.3225 13.5684 14.985 13.8384L13.5 15.2559L11.9475 13.8384C11.61 13.5684 11.2725 13.2984 10.935 13.1634C10.5975 12.9609 10.1925 12.8259 9.855 12.8259C9.18 12.8259 8.5725 13.0959 8.1 13.5684C7.6275 14.0409 7.425 14.6484 7.425 15.3909ZM5.4 15.3909C5.4 14.1759 5.8725 13.1634 6.75 12.2184C7.6275 11.2734 8.7075 10.8009 9.855 10.8009C10.53 10.8009 11.205 10.9359 11.8125 11.2734C12.4875 11.6109 13.0275 12.0159 13.5 12.5559C13.9725 12.0159 14.5125 11.6109 15.12 11.2734C15.7275 10.9359 16.4025 10.8009 17.145 10.8009C18.2925 10.8009 19.305 11.2734 20.25 12.2184C21.195 13.1634 21.6 14.1759 21.6 15.3909C21.6 16.6059 21.195 17.7534 20.3175 18.9009C19.44 20.0484 17.685 21.8709 14.985 24.3009L13.5 25.6509L12.015 24.3009C9.315 21.8034 7.4925 19.9809 6.6825 18.9009C5.805 17.6859 5.4 16.5384 5.4 15.3909ZM4.05 8.77586C4.59 8.77586 5.13 8.57336 5.4675 8.16836C5.8725 7.83086 6.075 7.35836 6.075 6.75086C6.075 6.21086 5.8725 5.67086 5.4675 5.33336C5.13 4.92836 4.59 4.72586 4.05 4.72586C3.51 4.72586 2.97 4.92836 2.6325 5.33336C2.295 5.73836 2.025 6.21086 2.025 6.75086C2.025 7.35836 2.2275 7.83086 2.6325 8.16836C2.97 8.57336 3.51 8.77586 4.05 8.77586ZM13.5675 27.0009V24.9759H24.975V14.1759H20.1825V12.1509H24.975C25.515 12.1509 25.9875 12.3534 26.3925 12.7584C26.7975 13.1634 27 13.6359 27 14.1759V25.9884C27 26.2584 26.9325 26.5284 26.73 26.7309C26.5275 26.9334 26.325 27.0009 25.9875 27.0009H13.5675ZM2.025 24.9759H13.5675V27.0009H1.0125C0.7425 27.0009 0.4725 26.9334 0.27 26.7309C0.0675 26.5284 0 26.2584 0 25.9884V14.1759C0 13.6359 0.2025 13.1634 0.6075 12.7584C1.0125 12.3534 1.485 12.1509 2.025 12.1509H6.8175V14.1759H2.025V24.9759ZM4.05 10.8009C2.9025 10.8009 1.9575 10.3959 1.1475 9.65336C0.3375 8.91086 0 7.89836 0 6.75086C0 5.60336 0.405 4.65836 1.1475 3.91586C1.89 3.17336 2.9025 2.70086 4.05 2.70086C5.1975 2.70086 6.1425 3.10586 6.885 3.91586C7.6275 4.72586 8.1 5.60336 8.1 6.75086C8.1 7.89836 7.695 8.84336 6.885 9.65336C6.075 10.4634 5.1975 10.8009 4.05 10.8009Z" fill="#6F46BE"/>
</svg>
