<svg width="16" height="21" viewBox="0 0 16 21" fill="none" xmlns="http://www.w3.org/2000/svg">
<path d="M8 14.5501C9.48333 13.2001 10.4375 12.2543 10.8625 11.7126C11.2875 11.1709 11.5 10.6251 11.5 10.0751C11.5 9.54176 11.3125 9.0876 10.9375 8.7126C10.5625 8.3376 10.1083 8.1501 9.575 8.1501C9.25833 8.1501 8.9625 8.2126 8.6875 8.3376C8.4125 8.4626 8.18333 8.63343 8 8.8501C7.81667 8.63343 7.5875 8.4626 7.3125 8.3376C7.0375 8.2126 6.74167 8.1501 6.425 8.1501C5.89167 8.1501 5.4375 8.3376 5.0625 8.7126C4.6875 9.0876 4.5 9.54176 4.5 10.0751C4.5 10.3418 4.5375 10.5959 4.6125 10.8376C4.6875 11.0793 4.85 11.3584 5.1 11.6751C5.35 11.9918 5.70417 12.3751 6.1625 12.8251C6.62083 13.2751 7.23333 13.8501 8 14.5501ZM8 20.9751C5.66667 20.3918 3.75 19.0376 2.25 16.9126C0.75 14.7876 0 12.4584 0 9.9251V3.9751L8 0.975098L16 3.9751V9.9251C16 12.4584 15.25 14.7876 13.75 16.9126C12.25 19.0376 10.3333 20.3918 8 20.9751ZM8 19.4251C9.91667 18.7918 11.4792 17.5959 12.6875 15.8376C13.8958 14.0793 14.5 12.1084 14.5 9.9251V5.0251L8 2.5751L1.5 5.0251V9.9251C1.5 12.1084 2.10417 14.0793 3.3125 15.8376C4.52083 17.5959 6.08333 18.7918 8 19.4251Z" fill="#2B323B"/>
</svg>
