<svg width="300" height="90" viewBox="0 0 300 90" fill="none" xmlns="http://www.w3.org/2000/svg">
<rect width="300" height="90" rx="6.6644" fill="#F3F5F7"/>
<path d="M28.256 40.916V39.452H30.08C30.312 39.452 30.524 39.404 30.716 39.308C30.908 39.212 31.06 39.072 31.172 38.888C31.284 38.704 31.34 38.48 31.34 38.216C31.34 37.96 31.284 37.74 31.172 37.556C31.06 37.372 30.908 37.232 30.716 37.136C30.524 37.04 30.312 36.992 30.08 36.992H28.256V35.528H30.356C30.892 35.528 31.376 35.636 31.808 35.852C32.24 36.068 32.58 36.38 32.828 36.788C33.084 37.188 33.212 37.664 33.212 38.216C33.212 38.768 33.084 39.248 32.828 39.656C32.58 40.056 32.24 40.368 31.808 40.592C31.376 40.808 30.892 40.916 30.356 40.916H28.256ZM26.816 44V35.528H28.7V44H26.816ZM36.7451 44.132C36.1451 44.132 35.6011 44 35.1131 43.736C34.6331 43.464 34.2531 43.096 33.9731 42.632C33.6931 42.168 33.5531 41.648 33.5531 41.072C33.5531 40.496 33.6931 39.98 33.9731 39.524C34.2531 39.068 34.6331 38.708 35.1131 38.444C35.5931 38.172 36.1371 38.036 36.7451 38.036C37.3531 38.036 37.8971 38.168 38.3771 38.432C38.8571 38.696 39.2371 39.06 39.5171 39.524C39.7971 39.98 39.9371 40.496 39.9371 41.072C39.9371 41.648 39.7971 42.168 39.5171 42.632C39.2371 43.096 38.8571 43.464 38.3771 43.736C37.8971 44 37.3531 44.132 36.7451 44.132ZM36.7451 42.464C37.0091 42.464 37.2411 42.408 37.4411 42.296C37.6411 42.176 37.7931 42.012 37.8971 41.804C38.0091 41.588 38.0651 41.344 38.0651 41.072C38.0651 40.8 38.0091 40.564 37.8971 40.364C37.7851 40.156 37.6291 39.996 37.4291 39.884C37.2371 39.764 37.0091 39.704 36.7451 39.704C36.4891 39.704 36.2611 39.764 36.0611 39.884C35.8611 39.996 35.7051 40.156 35.5931 40.364C35.4811 40.572 35.4251 40.812 35.4251 41.084C35.4251 41.348 35.4811 41.588 35.5931 41.804C35.7051 42.012 35.8611 42.176 36.0611 42.296C36.2611 42.408 36.4891 42.464 36.7451 42.464ZM43.3351 44.12C42.7831 44.12 42.2911 43.988 41.8591 43.724C41.4351 43.46 41.0991 43.1 40.8511 42.644C40.6111 42.188 40.4911 41.668 40.4911 41.084C40.4911 40.5 40.6111 39.98 40.8511 39.524C41.0991 39.068 41.4351 38.708 41.8591 38.444C42.2911 38.18 42.7831 38.048 43.3351 38.048C43.7351 38.048 44.0951 38.124 44.4151 38.276C44.7431 38.428 45.0111 38.64 45.2191 38.912C45.4351 39.176 45.5551 39.48 45.5791 39.824V42.284C45.5551 42.628 45.4391 42.94 45.2311 43.22C45.0231 43.492 44.7551 43.712 44.4271 43.88C44.0991 44.04 43.7351 44.12 43.3351 44.12ZM43.6591 42.464C43.9231 42.464 44.1511 42.408 44.3431 42.296C44.5351 42.176 44.6871 42.012 44.7991 41.804C44.9111 41.596 44.9671 41.356 44.9671 41.084C44.9671 40.812 44.9111 40.576 44.7991 40.376C44.6951 40.168 44.5431 40.004 44.3431 39.884C44.1511 39.764 43.9271 39.704 43.6711 39.704C43.4151 39.704 43.1871 39.764 42.9871 39.884C42.7951 40.004 42.6391 40.168 42.5191 40.376C42.4071 40.584 42.3511 40.82 42.3511 41.084C42.3511 41.348 42.4071 41.584 42.5191 41.792C42.6311 42 42.7871 42.164 42.9871 42.284C43.1871 42.404 43.4111 42.464 43.6591 42.464ZM46.6951 44H44.8951V42.428L45.1711 41.012L44.8591 39.596V35.288H46.6951V44ZM50.8678 44.132C50.2358 44.132 49.6718 44.004 49.1758 43.748C48.6878 43.484 48.3038 43.12 48.0238 42.656C47.7438 42.192 47.6038 41.668 47.6038 41.084C47.6038 40.5 47.7398 39.98 48.0118 39.524C48.2918 39.06 48.6678 38.696 49.1398 38.432C49.6118 38.168 50.1438 38.036 50.7358 38.036C51.3118 38.036 51.8198 38.16 52.2598 38.408C52.6998 38.656 53.0438 39 53.2918 39.44C53.5478 39.88 53.6758 40.384 53.6758 40.952C53.6758 41.056 53.6678 41.168 53.6518 41.288C53.6438 41.4 53.6238 41.532 53.5918 41.684L48.5638 41.696V40.436L52.8118 40.424L52.0198 40.952C52.0118 40.616 51.9598 40.34 51.8638 40.124C51.7678 39.9 51.6238 39.732 51.4318 39.62C51.2478 39.5 51.0198 39.44 50.7478 39.44C50.4598 39.44 50.2078 39.508 49.9918 39.644C49.7838 39.772 49.6198 39.956 49.4998 40.196C49.3878 40.436 49.3318 40.728 49.3318 41.072C49.3318 41.416 49.3918 41.712 49.5118 41.96C49.6398 42.2 49.8158 42.388 50.0398 42.524C50.2718 42.652 50.5438 42.716 50.8558 42.716C51.1438 42.716 51.4038 42.668 51.6358 42.572C51.8678 42.468 52.0718 42.316 52.2478 42.116L53.2558 43.124C52.9678 43.46 52.6198 43.712 52.2118 43.88C51.8038 44.048 51.3558 44.132 50.8678 44.132ZM58.9712 44.144C58.6272 44.144 58.2872 44.1 57.9512 44.012C57.6232 43.924 57.3152 43.8 57.0272 43.64C56.7472 43.472 56.5072 43.28 56.3072 43.064L57.3512 42.008C57.5432 42.216 57.7712 42.38 58.0352 42.5C58.2992 42.612 58.5872 42.668 58.8992 42.668C59.1152 42.668 59.2792 42.636 59.3912 42.572C59.5112 42.508 59.5712 42.42 59.5712 42.308C59.5712 42.164 59.4992 42.056 59.3552 41.984C59.2192 41.904 59.0432 41.836 58.8272 41.78C58.6112 41.716 58.3832 41.648 58.1432 41.576C57.9032 41.504 57.6752 41.404 57.4592 41.276C57.2432 41.148 57.0672 40.972 56.9312 40.748C56.7952 40.516 56.7272 40.224 56.7272 39.872C56.7272 39.496 56.8232 39.172 57.0152 38.9C57.2072 38.62 57.4792 38.4 57.8312 38.24C58.1832 38.08 58.5952 38 59.0672 38C59.5632 38 60.0192 38.088 60.4352 38.264C60.8592 38.432 61.2032 38.684 61.4672 39.02L60.4232 40.076C60.2392 39.86 60.0312 39.708 59.7992 39.62C59.5752 39.532 59.3552 39.488 59.1392 39.488C58.9312 39.488 58.7752 39.52 58.6712 39.584C58.5672 39.64 58.5152 39.724 58.5152 39.836C58.5152 39.956 58.5832 40.052 58.7192 40.124C58.8552 40.196 59.0312 40.26 59.2472 40.316C59.4632 40.372 59.6912 40.44 59.9312 40.52C60.1712 40.6 60.3992 40.708 60.6152 40.844C60.8312 40.98 61.0072 41.164 61.1432 41.396C61.2792 41.62 61.3472 41.916 61.3472 42.284C61.3472 42.852 61.1312 43.304 60.6992 43.64C60.2752 43.976 59.6992 44.144 58.9712 44.144ZM65.2233 44.132C64.5913 44.132 64.0273 44.004 63.5313 43.748C63.0433 43.484 62.6593 43.12 62.3793 42.656C62.0993 42.192 61.9593 41.668 61.9593 41.084C61.9593 40.5 62.0953 39.98 62.3673 39.524C62.6473 39.06 63.0233 38.696 63.4953 38.432C63.9673 38.168 64.4993 38.036 65.0913 38.036C65.6673 38.036 66.1753 38.16 66.6153 38.408C67.0553 38.656 67.3993 39 67.6473 39.44C67.9033 39.88 68.0313 40.384 68.0313 40.952C68.0313 41.056 68.0233 41.168 68.0073 41.288C67.9993 41.4 67.9793 41.532 67.9473 41.684L62.9193 41.696V40.436L67.1673 40.424L66.3753 40.952C66.3673 40.616 66.3153 40.34 66.2193 40.124C66.1233 39.9 65.9793 39.732 65.7873 39.62C65.6033 39.5 65.3753 39.44 65.1033 39.44C64.8153 39.44 64.5633 39.508 64.3473 39.644C64.1393 39.772 63.9753 39.956 63.8553 40.196C63.7433 40.436 63.6873 40.728 63.6873 41.072C63.6873 41.416 63.7473 41.712 63.8673 41.96C63.9953 42.2 64.1713 42.388 64.3953 42.524C64.6273 42.652 64.8993 42.716 65.2113 42.716C65.4993 42.716 65.7593 42.668 65.9913 42.572C66.2233 42.468 66.4273 42.316 66.6033 42.116L67.6113 43.124C67.3233 43.46 66.9753 43.712 66.5673 43.88C66.1593 44.048 65.7113 44.132 65.2233 44.132ZM68.9175 44V38.168H70.7535V44H68.9175ZM70.7535 40.796L69.9855 40.196C70.1375 39.516 70.3935 38.988 70.7535 38.612C71.1135 38.236 71.6135 38.048 72.2535 38.048C72.5335 38.048 72.7775 38.092 72.9855 38.18C73.2015 38.26 73.3895 38.388 73.5495 38.564L72.4575 39.944C72.3775 39.856 72.2775 39.788 72.1575 39.74C72.0375 39.692 71.9015 39.668 71.7495 39.668C71.4455 39.668 71.2015 39.764 71.0175 39.956C70.8415 40.14 70.7535 40.42 70.7535 40.796ZM78.9707 44.12C78.4347 44.12 77.9547 43.988 77.5307 43.724C77.1147 43.46 76.7827 43.1 76.5347 42.644C76.2947 42.188 76.1747 41.668 76.1747 41.084C76.1747 40.5 76.2947 39.98 76.5347 39.524C76.7827 39.068 77.1147 38.708 77.5307 38.444C77.9547 38.18 78.4347 38.048 78.9707 38.048C79.3627 38.048 79.7147 38.124 80.0267 38.276C80.3467 38.428 80.6067 38.64 80.8067 38.912C81.0067 39.176 81.1187 39.48 81.1427 39.824V42.344C81.1187 42.688 81.0067 42.996 80.8067 43.268C80.6147 43.532 80.3587 43.74 80.0387 43.892C79.7187 44.044 79.3627 44.12 78.9707 44.12ZM79.3427 42.464C79.7347 42.464 80.0507 42.336 80.2907 42.08C80.5307 41.816 80.6507 41.484 80.6507 41.084C80.6507 40.812 80.5947 40.572 80.4827 40.364C80.3787 40.156 80.2267 39.996 80.0267 39.884C79.8347 39.764 79.6107 39.704 79.3547 39.704C79.0987 39.704 78.8707 39.764 78.6707 39.884C78.4787 39.996 78.3227 40.156 78.2027 40.364C78.0907 40.572 78.0347 40.812 78.0347 41.084C78.0347 41.348 78.0907 41.584 78.2027 41.792C78.3147 42 78.4707 42.164 78.6707 42.284C78.8707 42.404 79.0947 42.464 79.3427 42.464ZM80.5787 44V42.428L80.8547 41.012L80.5787 39.596V38.168H82.3787V44H80.5787ZM89.3166 44.12C88.9246 44.12 88.5646 44.044 88.2366 43.892C87.9086 43.74 87.6406 43.532 87.4326 43.268C87.2246 42.996 87.1046 42.688 87.0726 42.344V39.884C87.1046 39.54 87.2246 39.228 87.4326 38.948C87.6406 38.668 87.9086 38.448 88.2366 38.288C88.5646 38.128 88.9246 38.048 89.3166 38.048C89.8686 38.048 90.3566 38.18 90.7806 38.444C91.2126 38.708 91.5486 39.068 91.7886 39.524C92.0366 39.98 92.1606 40.5 92.1606 41.084C92.1606 41.668 92.0366 42.188 91.7886 42.644C91.5486 43.1 91.2126 43.46 90.7806 43.724C90.3566 43.988 89.8686 44.12 89.3166 44.12ZM88.9806 42.464C89.2446 42.464 89.4726 42.404 89.6646 42.284C89.8646 42.164 90.0206 42 90.1326 41.792C90.2446 41.584 90.3006 41.348 90.3006 41.084C90.3006 40.812 90.2446 40.572 90.1326 40.364C90.0206 40.156 89.8646 39.996 89.6646 39.884C89.4726 39.764 89.2486 39.704 88.9926 39.704C88.7366 39.704 88.5086 39.764 88.3086 39.884C88.1166 39.996 87.9646 40.156 87.8526 40.364C87.7406 40.572 87.6846 40.812 87.6846 41.084C87.6846 41.348 87.7366 41.584 87.8406 41.792C87.9526 42 88.1086 42.164 88.3086 42.284C88.5086 42.404 88.7326 42.464 88.9806 42.464ZM85.9566 46.46V38.168H87.7926V39.668L87.4926 41.084L87.7686 42.5V46.46H85.9566ZM95.9733 44.132C95.3413 44.132 94.7773 44.004 94.2813 43.748C93.7933 43.484 93.4093 43.12 93.1293 42.656C92.8493 42.192 92.7093 41.668 92.7093 41.084C92.7093 40.5 92.8453 39.98 93.1173 39.524C93.3973 39.06 93.7733 38.696 94.2453 38.432C94.7173 38.168 95.2493 38.036 95.8413 38.036C96.4173 38.036 96.9253 38.16 97.3653 38.408C97.8053 38.656 98.1493 39 98.3973 39.44C98.6533 39.88 98.7813 40.384 98.7813 40.952C98.7813 41.056 98.7733 41.168 98.7573 41.288C98.7493 41.4 98.7293 41.532 98.6973 41.684L93.6693 41.696V40.436L97.9173 40.424L97.1253 40.952C97.1173 40.616 97.0653 40.34 96.9693 40.124C96.8733 39.9 96.7293 39.732 96.5373 39.62C96.3533 39.5 96.1253 39.44 95.8533 39.44C95.5653 39.44 95.3133 39.508 95.0973 39.644C94.8893 39.772 94.7253 39.956 94.6053 40.196C94.4933 40.436 94.4373 40.728 94.4373 41.072C94.4373 41.416 94.4973 41.712 94.6173 41.96C94.7453 42.2 94.9213 42.388 95.1453 42.524C95.3773 42.652 95.6493 42.716 95.9613 42.716C96.2493 42.716 96.5093 42.668 96.7413 42.572C96.9733 42.468 97.1773 42.316 97.3533 42.116L98.3613 43.124C98.0733 43.46 97.7253 43.712 97.3173 43.88C96.9093 44.048 96.4613 44.132 95.9733 44.132ZM102.152 44.12C101.6 44.12 101.108 43.988 100.676 43.724C100.252 43.46 99.9155 43.1 99.6675 42.644C99.4275 42.188 99.3075 41.668 99.3075 41.084C99.3075 40.5 99.4275 39.98 99.6675 39.524C99.9155 39.068 100.252 38.708 100.676 38.444C101.108 38.18 101.6 38.048 102.152 38.048C102.552 38.048 102.912 38.124 103.232 38.276C103.56 38.428 103.828 38.64 104.036 38.912C104.252 39.176 104.372 39.48 104.396 39.824V42.284C104.372 42.628 104.256 42.94 104.048 43.22C103.84 43.492 103.572 43.712 103.244 43.88C102.916 44.04 102.552 44.12 102.152 44.12ZM102.476 42.464C102.74 42.464 102.968 42.408 103.16 42.296C103.352 42.176 103.504 42.012 103.616 41.804C103.728 41.596 103.784 41.356 103.784 41.084C103.784 40.812 103.728 40.576 103.616 40.376C103.512 40.168 103.36 40.004 103.16 39.884C102.968 39.764 102.744 39.704 102.488 39.704C102.232 39.704 102.004 39.764 101.804 39.884C101.612 40.004 101.456 40.168 101.336 40.376C101.224 40.584 101.168 40.82 101.168 41.084C101.168 41.348 101.224 41.584 101.336 41.792C101.448 42 101.604 42.164 101.804 42.284C102.004 42.404 102.228 42.464 102.476 42.464ZM105.512 44H103.712V42.428L103.988 41.012L103.676 39.596V35.288H105.512V44ZM106.804 44V38.168H108.64V44H106.804ZM107.728 37.364C107.44 37.364 107.2 37.268 107.008 37.076C106.824 36.876 106.732 36.636 106.732 36.356C106.732 36.068 106.824 35.828 107.008 35.636C107.2 35.444 107.44 35.348 107.728 35.348C108.016 35.348 108.252 35.444 108.436 35.636C108.62 35.828 108.712 36.068 108.712 36.356C108.712 36.636 108.62 36.876 108.436 37.076C108.252 37.268 108.016 37.364 107.728 37.364ZM112.369 44.12C111.833 44.12 111.353 43.988 110.929 43.724C110.513 43.46 110.181 43.1 109.933 42.644C109.693 42.188 109.573 41.668 109.573 41.084C109.573 40.5 109.693 39.98 109.933 39.524C110.181 39.068 110.513 38.708 110.929 38.444C111.353 38.18 111.833 38.048 112.369 38.048C112.761 38.048 113.113 38.124 113.425 38.276C113.745 38.428 114.005 38.64 114.205 38.912C114.405 39.176 114.517 39.48 114.541 39.824V42.344C114.517 42.688 114.405 42.996 114.205 43.268C114.013 43.532 113.757 43.74 113.437 43.892C113.117 44.044 112.761 44.12 112.369 44.12ZM112.741 42.464C113.133 42.464 113.449 42.336 113.689 42.08C113.929 41.816 114.049 41.484 114.049 41.084C114.049 40.812 113.993 40.572 113.881 40.364C113.777 40.156 113.625 39.996 113.425 39.884C113.233 39.764 113.009 39.704 112.753 39.704C112.497 39.704 112.269 39.764 112.069 39.884C111.877 39.996 111.721 40.156 111.601 40.364C111.489 40.572 111.433 40.812 111.433 41.084C111.433 41.348 111.489 41.584 111.601 41.792C111.713 42 111.869 42.164 112.069 42.284C112.269 42.404 112.493 42.464 112.741 42.464ZM113.977 44V42.428L114.253 41.012L113.977 39.596V38.168H115.777V44H113.977ZM117.898 44V35.756H119.734V44H117.898ZM116.578 39.728V38.168H121.054V39.728H116.578ZM121.863 44V38.168H123.699V44H121.863ZM123.699 40.796L122.931 40.196C123.083 39.516 123.339 38.988 123.699 38.612C124.059 38.236 124.559 38.048 125.199 38.048C125.479 38.048 125.723 38.092 125.931 38.18C126.147 38.26 126.335 38.388 126.495 38.564L125.403 39.944C125.323 39.856 125.223 39.788 125.103 39.74C124.983 39.692 124.847 39.668 124.695 39.668C124.391 39.668 124.147 39.764 123.963 39.956C123.787 40.14 123.699 40.42 123.699 40.796ZM129.256 44.12C128.72 44.12 128.24 43.988 127.816 43.724C127.4 43.46 127.068 43.1 126.82 42.644C126.58 42.188 126.46 41.668 126.46 41.084C126.46 40.5 126.58 39.98 126.82 39.524C127.068 39.068 127.4 38.708 127.816 38.444C128.24 38.18 128.72 38.048 129.256 38.048C129.648 38.048 130 38.124 130.312 38.276C130.632 38.428 130.892 38.64 131.092 38.912C131.292 39.176 131.404 39.48 131.428 39.824V42.344C131.404 42.688 131.292 42.996 131.092 43.268C130.9 43.532 130.644 43.74 130.324 43.892C130.004 44.044 129.648 44.12 129.256 44.12ZM129.628 42.464C130.02 42.464 130.336 42.336 130.576 42.08C130.816 41.816 130.936 41.484 130.936 41.084C130.936 40.812 130.88 40.572 130.768 40.364C130.664 40.156 130.512 39.996 130.312 39.884C130.12 39.764 129.896 39.704 129.64 39.704C129.384 39.704 129.156 39.764 128.956 39.884C128.764 39.996 128.608 40.156 128.488 40.364C128.376 40.572 128.32 40.812 128.32 41.084C128.32 41.348 128.376 41.584 128.488 41.792C128.6 42 128.756 42.164 128.956 42.284C129.156 42.404 129.38 42.464 129.628 42.464ZM130.864 44V42.428L131.14 41.012L130.864 39.596V38.168H132.664V44H130.864ZM133.957 45.44L134.833 43.808L135.373 43.652C135.317 43.772 135.249 43.872 135.169 43.952C135.089 44.024 134.997 44.06 134.893 44.06C134.661 44.06 134.449 43.964 134.257 43.772C134.065 43.58 133.969 43.34 133.969 43.052C133.969 42.74 134.073 42.472 134.281 42.248C134.497 42.024 134.761 41.912 135.073 41.912C135.369 41.912 135.625 42.024 135.841 42.248C136.065 42.464 136.177 42.732 136.177 43.052C136.177 43.18 136.153 43.328 136.105 43.496C136.057 43.664 135.961 43.884 135.817 44.156L134.845 45.932L133.957 45.44ZM29.456 58.132C28.856 58.132 28.312 58 27.824 57.736C27.344 57.464 26.964 57.096 26.684 56.632C26.404 56.168 26.264 55.648 26.264 55.072C26.264 54.496 26.404 53.98 26.684 53.524C26.964 53.068 27.344 52.708 27.824 52.444C28.304 52.172 28.848 52.036 29.456 52.036C30.064 52.036 30.608 52.168 31.088 52.432C31.568 52.696 31.948 53.06 32.228 53.524C32.508 53.98 32.648 54.496 32.648 55.072C32.648 55.648 32.508 56.168 32.228 56.632C31.948 57.096 31.568 57.464 31.088 57.736C30.608 58 30.064 58.132 29.456 58.132ZM29.456 56.464C29.72 56.464 29.952 56.408 30.152 56.296C30.352 56.176 30.504 56.012 30.608 55.804C30.72 55.588 30.776 55.344 30.776 55.072C30.776 54.8 30.72 54.564 30.608 54.364C30.496 54.156 30.34 53.996 30.14 53.884C29.948 53.764 29.72 53.704 29.456 53.704C29.2 53.704 28.972 53.764 28.772 53.884C28.572 53.996 28.416 54.156 28.304 54.364C28.192 54.572 28.136 54.812 28.136 55.084C28.136 55.348 28.192 55.588 28.304 55.804C28.416 56.012 28.572 56.176 28.772 56.296C28.972 56.408 29.2 56.464 29.456 56.464ZM36.1541 58.132C35.6181 58.132 35.1421 58.024 34.7261 57.808C34.3181 57.584 33.9981 57.28 33.7661 56.896C33.5341 56.504 33.4181 56.056 33.4181 55.552V52.168H35.2541V55.528C35.2541 55.728 35.2861 55.9 35.3501 56.044C35.4221 56.188 35.5261 56.3 35.6621 56.38C35.7981 56.46 35.9621 56.5 36.1541 56.5C36.4261 56.5 36.6421 56.416 36.8021 56.248C36.9621 56.072 37.0421 55.832 37.0421 55.528V52.168H38.8781V55.54C38.8781 56.052 38.7621 56.504 38.5301 56.896C38.2981 57.28 37.9781 57.584 37.5701 57.808C37.1621 58.024 36.6901 58.132 36.1541 58.132ZM45.676 58.12C45.284 58.12 44.924 58.044 44.596 57.892C44.268 57.74 44 57.532 43.792 57.268C43.584 56.996 43.464 56.688 43.432 56.344V53.884C43.464 53.54 43.584 53.228 43.792 52.948C44 52.668 44.268 52.448 44.596 52.288C44.924 52.128 45.284 52.048 45.676 52.048C46.228 52.048 46.716 52.18 47.14 52.444C47.572 52.708 47.908 53.068 48.148 53.524C48.396 53.98 48.52 54.5 48.52 55.084C48.52 55.668 48.396 56.188 48.148 56.644C47.908 57.1 47.572 57.46 47.14 57.724C46.716 57.988 46.228 58.12 45.676 58.12ZM45.34 56.464C45.604 56.464 45.832 56.404 46.024 56.284C46.224 56.164 46.38 56 46.492 55.792C46.604 55.584 46.66 55.348 46.66 55.084C46.66 54.812 46.604 54.572 46.492 54.364C46.38 54.156 46.224 53.996 46.024 53.884C45.832 53.764 45.608 53.704 45.352 53.704C45.096 53.704 44.868 53.764 44.668 53.884C44.476 53.996 44.324 54.156 44.212 54.364C44.1 54.572 44.044 54.812 44.044 55.084C44.044 55.348 44.096 55.584 44.2 55.792C44.312 56 44.468 56.164 44.668 56.284C44.868 56.404 45.092 56.464 45.34 56.464ZM42.316 60.46V52.168H44.152V53.668L43.852 55.084L44.128 56.5V60.46H42.316ZM51.5767 58.144C51.2327 58.144 50.8927 58.1 50.5567 58.012C50.2287 57.924 49.9207 57.8 49.6327 57.64C49.3527 57.472 49.1127 57.28 48.9127 57.064L49.9567 56.008C50.1487 56.216 50.3767 56.38 50.6407 56.5C50.9047 56.612 51.1927 56.668 51.5047 56.668C51.7207 56.668 51.8847 56.636 51.9967 56.572C52.1167 56.508 52.1767 56.42 52.1767 56.308C52.1767 56.164 52.1047 56.056 51.9607 55.984C51.8247 55.904 51.6487 55.836 51.4327 55.78C51.2167 55.716 50.9887 55.648 50.7487 55.576C50.5087 55.504 50.2807 55.404 50.0647 55.276C49.8487 55.148 49.6727 54.972 49.5367 54.748C49.4007 54.516 49.3327 54.224 49.3327 53.872C49.3327 53.496 49.4287 53.172 49.6207 52.9C49.8127 52.62 50.0847 52.4 50.4367 52.24C50.7887 52.08 51.2007 52 51.6727 52C52.1687 52 52.6247 52.088 53.0407 52.264C53.4647 52.432 53.8087 52.684 54.0727 53.02L53.0287 54.076C52.8447 53.86 52.6367 53.708 52.4047 53.62C52.1807 53.532 51.9607 53.488 51.7447 53.488C51.5367 53.488 51.3807 53.52 51.2767 53.584C51.1727 53.64 51.1207 53.724 51.1207 53.836C51.1207 53.956 51.1887 54.052 51.3247 54.124C51.4607 54.196 51.6367 54.26 51.8527 54.316C52.0687 54.372 52.2967 54.44 52.5367 54.52C52.7767 54.6 53.0047 54.708 53.2207 54.844C53.4367 54.98 53.6127 55.164 53.7487 55.396C53.8847 55.62 53.9527 55.916 53.9527 56.284C53.9527 56.852 53.7367 57.304 53.3047 57.64C52.8807 57.976 52.3047 58.144 51.5767 58.144ZM54.9488 58V52.168H56.7848V58H54.9488ZM55.8728 51.364C55.5848 51.364 55.3448 51.268 55.1528 51.076C54.9688 50.876 54.8768 50.636 54.8768 50.356C54.8768 50.068 54.9688 49.828 55.1528 49.636C55.3448 49.444 55.5848 49.348 55.8728 49.348C56.1608 49.348 56.3968 49.444 56.5808 49.636C56.7648 49.828 56.8568 50.068 56.8568 50.356C56.8568 50.636 56.7648 50.876 56.5808 51.076C56.3968 51.268 56.1608 51.364 55.8728 51.364ZM60.8977 58.132C60.2977 58.132 59.7537 58 59.2657 57.736C58.7777 57.472 58.3937 57.108 58.1137 56.644C57.8337 56.18 57.6937 55.66 57.6937 55.084C57.6937 54.5 57.8337 53.98 58.1137 53.524C58.4017 53.06 58.7897 52.696 59.2777 52.432C59.7657 52.168 60.3137 52.036 60.9217 52.036C61.3777 52.036 61.7937 52.116 62.1697 52.276C62.5537 52.428 62.8937 52.66 63.1897 52.972L62.0137 54.148C61.8777 53.996 61.7177 53.884 61.5337 53.812C61.3577 53.74 61.1537 53.704 60.9217 53.704C60.6577 53.704 60.4217 53.764 60.2137 53.884C60.0137 53.996 59.8537 54.156 59.7337 54.364C59.6217 54.564 59.5657 54.8 59.5657 55.072C59.5657 55.344 59.6217 55.584 59.7337 55.792C59.8537 56 60.0177 56.164 60.2257 56.284C60.4337 56.404 60.6657 56.464 60.9217 56.464C61.1617 56.464 61.3737 56.424 61.5577 56.344C61.7497 56.256 61.9137 56.136 62.0497 55.984L63.2137 57.16C62.9097 57.48 62.5657 57.724 62.1817 57.892C61.7977 58.052 61.3697 58.132 60.8977 58.132ZM66.6982 58.132C66.0982 58.132 65.5542 58 65.0662 57.736C64.5862 57.464 64.2062 57.096 63.9262 56.632C63.6462 56.168 63.5062 55.648 63.5062 55.072C63.5062 54.496 63.6462 53.98 63.9262 53.524C64.2062 53.068 64.5862 52.708 65.0662 52.444C65.5462 52.172 66.0902 52.036 66.6982 52.036C67.3062 52.036 67.8502 52.168 68.3302 52.432C68.8102 52.696 69.1902 53.06 69.4702 53.524C69.7502 53.98 69.8902 54.496 69.8902 55.072C69.8902 55.648 69.7502 56.168 69.4702 56.632C69.1902 57.096 68.8102 57.464 68.3302 57.736C67.8502 58 67.3062 58.132 66.6982 58.132ZM66.6982 56.464C66.9622 56.464 67.1942 56.408 67.3942 56.296C67.5942 56.176 67.7462 56.012 67.8502 55.804C67.9622 55.588 68.0182 55.344 68.0182 55.072C68.0182 54.8 67.9622 54.564 67.8502 54.364C67.7382 54.156 67.5822 53.996 67.3822 53.884C67.1902 53.764 66.9622 53.704 66.6982 53.704C66.4422 53.704 66.2142 53.764 66.0142 53.884C65.8142 53.996 65.6582 54.156 65.5462 54.364C65.4342 54.572 65.3782 54.812 65.3782 55.084C65.3782 55.348 65.4342 55.588 65.5462 55.804C65.6582 56.012 65.8142 56.176 66.0142 56.296C66.2142 56.408 66.4422 56.464 66.6982 56.464ZM65.8342 51.508L65.2342 50.632L67.1422 48.844L68.1502 50.26L65.8342 51.508ZM70.8043 58V49.288H72.6403V58H70.8043ZM76.7412 58.132C76.1412 58.132 75.5972 58 75.1092 57.736C74.6292 57.464 74.2492 57.096 73.9692 56.632C73.6892 56.168 73.5492 55.648 73.5492 55.072C73.5492 54.496 73.6892 53.98 73.9692 53.524C74.2492 53.068 74.6292 52.708 75.1092 52.444C75.5892 52.172 76.1332 52.036 76.7412 52.036C77.3492 52.036 77.8932 52.168 78.3732 52.432C78.8532 52.696 79.2332 53.06 79.5132 53.524C79.7932 53.98 79.9332 54.496 79.9332 55.072C79.9332 55.648 79.7932 56.168 79.5132 56.632C79.2332 57.096 78.8532 57.464 78.3732 57.736C77.8932 58 77.3492 58.132 76.7412 58.132ZM76.7412 56.464C77.0052 56.464 77.2372 56.408 77.4372 56.296C77.6372 56.176 77.7892 56.012 77.8932 55.804C78.0052 55.588 78.0612 55.344 78.0612 55.072C78.0612 54.8 78.0052 54.564 77.8932 54.364C77.7812 54.156 77.6252 53.996 77.4252 53.884C77.2332 53.764 77.0052 53.704 76.7412 53.704C76.4852 53.704 76.2572 53.764 76.0572 53.884C75.8572 53.996 75.7012 54.156 75.5892 54.364C75.4772 54.572 75.4212 54.812 75.4212 55.084C75.4212 55.348 75.4772 55.588 75.5892 55.804C75.7012 56.012 75.8572 56.176 76.0572 56.296C76.2572 56.408 76.4852 56.464 76.7412 56.464ZM83.3192 60.616C82.6792 60.616 82.1152 60.504 81.6272 60.28C81.1472 60.064 80.7672 59.756 80.4872 59.356L81.6152 58.228C81.8232 58.476 82.0552 58.664 82.3112 58.792C82.5752 58.92 82.8912 58.984 83.2592 58.984C83.7152 58.984 84.0712 58.872 84.3272 58.648C84.5912 58.424 84.7232 58.108 84.7232 57.7V56.212L85.0352 54.94L84.7592 53.668V52.168H86.5592V57.652C86.5592 58.252 86.4192 58.772 86.1392 59.212C85.8592 59.652 85.4752 59.996 84.9872 60.244C84.4992 60.492 83.9432 60.616 83.3192 60.616ZM83.2352 57.82C82.6992 57.82 82.2232 57.692 81.8072 57.436C81.3912 57.18 81.0632 56.832 80.8232 56.392C80.5832 55.952 80.4632 55.464 80.4632 54.928C80.4632 54.384 80.5832 53.896 80.8232 53.464C81.0632 53.024 81.3912 52.68 81.8072 52.432C82.2232 52.176 82.6992 52.048 83.2352 52.048C83.6352 52.048 83.9912 52.124 84.3032 52.276C84.6232 52.42 84.8792 52.628 85.0712 52.9C85.2712 53.164 85.3832 53.472 85.4072 53.824V56.044C85.3832 56.388 85.2712 56.696 85.0712 56.968C84.8792 57.232 84.6232 57.44 84.3032 57.592C83.9832 57.744 83.6272 57.82 83.2352 57.82ZM83.5832 56.188C83.8392 56.188 84.0592 56.132 84.2432 56.02C84.4352 55.908 84.5792 55.76 84.6752 55.576C84.7792 55.384 84.8312 55.168 84.8312 54.928C84.8312 54.688 84.7792 54.472 84.6752 54.28C84.5792 54.088 84.4352 53.936 84.2432 53.824C84.0592 53.712 83.8392 53.656 83.5832 53.656C83.3352 53.656 83.1152 53.712 82.9232 53.824C82.7312 53.936 82.5832 54.088 82.4792 54.28C82.3752 54.472 82.3232 54.688 82.3232 54.928C82.3232 55.152 82.3752 55.364 82.4792 55.564C82.5832 55.756 82.7272 55.908 82.9112 56.02C83.1032 56.132 83.3272 56.188 83.5832 56.188ZM90.663 58.132C90.063 58.132 89.519 58 89.031 57.736C88.551 57.464 88.171 57.096 87.891 56.632C87.611 56.168 87.471 55.648 87.471 55.072C87.471 54.496 87.611 53.98 87.891 53.524C88.171 53.068 88.551 52.708 89.031 52.444C89.511 52.172 90.055 52.036 90.663 52.036C91.271 52.036 91.815 52.168 92.295 52.432C92.775 52.696 93.155 53.06 93.435 53.524C93.715 53.98 93.855 54.496 93.855 55.072C93.855 55.648 93.715 56.168 93.435 56.632C93.155 57.096 92.775 57.464 92.295 57.736C91.815 58 91.271 58.132 90.663 58.132ZM90.663 56.464C90.927 56.464 91.159 56.408 91.359 56.296C91.559 56.176 91.711 56.012 91.815 55.804C91.927 55.588 91.983 55.344 91.983 55.072C91.983 54.8 91.927 54.564 91.815 54.364C91.703 54.156 91.547 53.996 91.347 53.884C91.155 53.764 90.927 53.704 90.663 53.704C90.407 53.704 90.179 53.764 89.979 53.884C89.779 53.996 89.623 54.156 89.511 54.364C89.399 54.572 89.343 54.812 89.343 55.084C89.343 55.348 89.399 55.588 89.511 55.804C89.623 56.012 89.779 56.176 89.979 56.296C90.179 56.408 90.407 56.464 90.663 56.464ZM95.7688 58.132C95.4568 58.132 95.1968 58.024 94.9888 57.808C94.7808 57.592 94.6768 57.332 94.6768 57.028C94.6768 56.708 94.7808 56.444 94.9888 56.236C95.1968 56.02 95.4568 55.912 95.7688 55.912C96.0888 55.912 96.3488 56.02 96.5488 56.236C96.7568 56.444 96.8608 56.708 96.8608 57.028C96.8608 57.332 96.7568 57.592 96.5488 57.808C96.3488 58.024 96.0888 58.132 95.7688 58.132ZM99.3664 58.132C99.0544 58.132 98.7944 58.024 98.5864 57.808C98.3784 57.592 98.2744 57.332 98.2744 57.028C98.2744 56.708 98.3784 56.444 98.5864 56.236C98.7944 56.02 99.0544 55.912 99.3664 55.912C99.6864 55.912 99.9464 56.02 100.146 56.236C100.354 56.444 100.458 56.708 100.458 57.028C100.458 57.332 100.354 57.592 100.146 57.808C99.9464 58.024 99.6864 58.132 99.3664 58.132ZM102.964 58.132C102.652 58.132 102.392 58.024 102.184 57.808C101.976 57.592 101.872 57.332 101.872 57.028C101.872 56.708 101.976 56.444 102.184 56.236C102.392 56.02 102.652 55.912 102.964 55.912C103.284 55.912 103.544 56.02 103.744 56.236C103.952 56.444 104.056 56.708 104.056 57.028C104.056 57.332 103.952 57.592 103.744 57.808C103.544 58.024 103.284 58.132 102.964 58.132Z" fill="#64748B"/>
<rect width="43.2701" height="90.2155" rx="21.635" transform="matrix(0.488079 -0.8728 0.883652 0.468144 168 42.7656)" fill="#D2D8E0"/>
<g clip-path="url(#clip0_1645_3061)">
<path d="M226.019 81.2493C222.017 81.6798 217.916 81.0473 214.231 79.5098C212.623 78.886 211.223 77.8141 209.723 76.9795C209.145 76.6544 208.495 76.4348 207.935 76.1097C207.266 75.7231 206.733 75.0554 206.191 74.5195C205.92 74.2559 205.631 73.966 205.55 73.597C205.505 73.395 205.514 73.1841 205.532 72.982C205.767 69.8983 205.821 66.8321 206.11 63.7483C206.255 62.2723 206.48 60.8315 206.733 59.3731C206.95 58.1255 206.86 56.834 207.022 55.5777C207.203 54.1192 207.745 52.2479 208.739 51.1145C209.759 49.9548 211.304 49.4804 212.713 48.9357C213.364 48.6809 213.987 48.2065 214.646 48.0044C215.604 47.7145 216.579 47.8726 217.519 47.4334C219.705 46.4054 219.524 44.4111 219.036 42.4782C219 42.3377 218.964 42.1795 218.856 42.0741C218.774 41.9863 218.666 41.9423 218.567 41.8896C217.916 41.5909 217.32 41.2307 216.688 40.9144C214.944 40.027 213.327 38.4193 212.84 36.5304C212.623 35.7133 212.307 34.8611 212.144 34.044C211.981 33.2709 212.153 32.4538 212.162 31.6719C212.18 29.8796 212.234 28.0961 212.325 26.3039C212.37 25.3023 212.28 24.4325 213.129 23.7209C213.779 23.185 214.673 23.062 215.495 23.0444C217.889 22.9829 220.283 23.0707 222.659 23.308C224.664 23.51 226.705 23.8263 228.449 24.8191C230.183 25.8119 231.565 27.6041 231.502 29.5633C231.484 30.152 231.375 30.9427 231.059 31.461C230.815 31.8652 230.409 31.997 230.427 32.5505C230.436 32.8404 230.526 33.1303 230.544 33.4202C230.581 33.8859 230.436 34.3691 230.138 34.7381C229.759 35.2213 229.298 35.6079 228.9 36.0735C228.774 36.2229 228.638 36.381 228.593 36.5655C228.566 36.6797 228.566 36.7939 228.566 36.9169C228.566 37.7252 228.521 38.4632 228.413 39.2715C228.214 40.7123 228.385 42.1444 228.259 43.5677C228.16 44.6132 228.223 45.8256 228.946 46.6866C229.478 47.3279 230.445 47.5212 231.24 47.6354C232.387 47.8024 233.543 47.9605 234.691 48.1274C235.07 48.1801 235.476 48.2153 235.829 48.3734C236.587 48.7073 237.346 49.0587 238.006 49.5683C238.972 50.315 239.46 51.3518 239.776 52.4763C240.932 56.6495 242.08 60.8139 243.236 64.9871C243.615 66.3664 243.995 67.7985 243.715 69.1954C243.489 70.2848 242.874 71.26 242.197 72.1562C238.367 77.1816 232.369 80.564 226.019 81.2493Z" fill="white"/>
<path d="M232.486 60.8489C233.01 59.8386 233.39 58.7667 233.625 57.6598C233.733 57.115 233.841 56.5528 233.832 55.9993C233.832 55.4546 233.643 54.945 233.263 54.5496C232.55 53.8116 231.393 53.5041 230.4 53.8468C229.469 54.1719 228.873 54.9713 228.485 55.8236C228.051 56.7812 227.852 57.8179 227.518 58.8107C227.437 59.0479 227.825 59.1445 227.898 58.9161C228.178 58.0902 228.358 57.238 228.665 56.4122C228.955 55.6478 229.379 54.8132 230.129 54.3915C230.96 53.9171 232.017 54.0313 232.757 54.6199C233.128 54.9186 233.381 55.3052 233.426 55.7708C233.48 56.2804 233.381 56.8075 233.29 57.3083C233.083 58.468 232.694 59.6014 232.143 60.6557C232.035 60.8753 232.369 61.0774 232.486 60.8489Z" fill="#8996A9"/>
<path d="M228.819 46.4664C229.352 46.3873 229.93 46.5542 230.391 46.8002C230.635 46.932 230.861 47.0813 231.059 47.2834C231.267 47.4943 231.421 47.7578 231.556 48.0126C232.179 49.1372 232.432 50.4287 232.369 51.7026C232.333 52.423 232.197 53.1347 231.972 53.8199C231.899 54.0572 232.279 54.1626 232.351 53.9254C232.776 52.6163 232.893 51.2106 232.64 49.8576C232.514 49.1899 232.288 48.531 231.963 47.9248C231.809 47.6348 231.637 47.3361 231.421 47.0901C231.231 46.8705 230.978 46.686 230.725 46.5366C230.129 46.194 229.406 45.9919 228.72 46.0974C228.611 46.1149 228.557 46.2467 228.584 46.3346C228.611 46.44 228.711 46.4751 228.819 46.4664Z" fill="#8996A9"/>
<path d="M220.644 51.5272C220.554 53.0559 220.599 56.1133 220.572 56.5438C220.418 58.4678 219.921 60.5325 220.12 62.4565C220.292 64.1697 219.867 66.0235 219.831 67.7718C219.768 70.6887 219.569 73.6407 219.587 76.5487C219.587 77.0495 219.542 78.0247 220.084 78.3058C220.509 78.5255 221.493 78.2356 221.936 78.1916C223.607 78.0071 225.269 77.7348 226.904 77.357C227.076 77.3218 227.247 77.2779 227.374 77.1549C227.536 76.9968 227.563 76.7508 227.582 76.5223C227.834 72.8412 227.383 69.239 227.021 65.5754C226.696 62.1842 226.633 58.7841 226.47 55.3929C226.425 54.5406 226.38 53.6972 226.317 52.845C226.272 52.2037 226.299 51.5535 226.236 50.9122C226.227 50.8682 226.227 50.8155 226.181 50.7892C226.145 50.7628 226.091 50.7716 226.046 50.7804C225.215 50.921 224.429 50.9825 223.58 50.9034C222.649 50.8243 221.719 50.7452 220.798 50.6662C220.725 50.6574 220.68 51.0088 220.644 51.5272Z" fill="#A6B0BF"/>
<path d="M217.329 60.1114C217.058 60.6825 216.335 60.8933 215.748 60.744C215.45 60.6649 215.206 60.5068 215.062 60.2432C214.926 59.9884 214.917 59.5755 214.962 59.3207C214.971 59.2504 214.989 59.1801 215.008 59.1186C215.017 59.0923 215.026 59.0659 215.035 59.0308C215.044 59.0132 215.044 58.9956 215.053 58.9869C215.035 59.0308 215.062 58.9605 215.071 58.9605C215.098 58.9078 215.125 58.8551 215.161 58.8111C215.188 58.7672 215.152 58.8199 215.188 58.776C215.206 58.7496 215.233 58.7321 215.251 58.7057C215.27 58.6881 215.288 58.6706 215.315 58.653C215.351 58.6179 215.279 58.6794 215.324 58.6442C215.333 58.6354 215.342 58.6354 215.351 58.6266C215.396 58.5915 215.45 58.5651 215.504 58.5388C215.513 58.5388 215.559 58.5212 215.513 58.5388C215.522 58.53 215.541 58.53 215.559 58.5212C215.586 58.5124 215.604 58.5036 215.631 58.5036C215.658 58.4949 215.685 58.4861 215.712 58.4861C215.73 58.4861 215.821 58.4685 215.757 58.4773C215.875 58.4597 215.992 58.4685 216.11 58.4773C216.164 58.4861 216.092 58.4685 216.146 58.4861C216.173 58.4949 216.2 58.4949 216.227 58.5036C216.29 58.5124 216.344 58.53 216.399 58.5476C216.426 58.5564 216.462 58.5651 216.489 58.5739C216.498 58.5739 216.579 58.6091 216.534 58.5915C216.597 58.6179 216.652 58.6442 216.706 58.6706C216.76 58.6969 216.805 58.7321 216.859 58.7584C216.877 58.776 216.904 58.7848 216.923 58.8024C216.968 58.8375 216.895 58.776 216.932 58.8111C216.95 58.8199 216.968 58.8375 216.977 58.8463C217.031 58.8902 217.076 58.9341 217.121 58.9781C217.148 59.0044 217.166 59.0308 217.185 59.0571C217.221 59.0923 217.157 59.022 217.194 59.0659C217.203 59.0747 217.212 59.0923 217.221 59.1011C217.257 59.1538 217.293 59.2065 217.32 59.268C217.329 59.2856 217.329 59.2943 217.338 59.3119C217.356 59.3558 217.32 59.2768 217.338 59.3207C217.347 59.3558 217.365 59.3822 217.374 59.4173C217.383 59.4437 217.392 59.4788 217.401 59.5052C217.401 59.5228 217.419 59.6106 217.41 59.5579C217.419 59.6282 217.419 59.6897 217.419 59.76C217.419 59.7776 217.419 59.7951 217.419 59.8039C217.419 59.8478 217.428 59.7776 217.419 59.8127C217.41 59.8478 217.401 59.8918 217.392 59.9269C217.383 59.9621 217.374 59.9972 217.365 60.0236C217.356 60.0411 217.356 60.0587 217.347 60.0763C217.338 60.1026 217.338 60.0938 217.347 60.0763C217.347 60.0851 217.338 60.0938 217.329 60.1114C217.284 60.2081 217.302 60.3223 217.401 60.375C217.483 60.4189 217.627 60.4013 217.672 60.3047C217.808 60.0236 217.862 59.7161 217.79 59.4086C217.736 59.1362 217.582 58.8902 217.392 58.6881C217.013 58.2928 216.435 58.0468 215.884 58.0644C215.27 58.0819 214.782 58.4597 214.619 59.0308C214.52 59.391 214.511 59.8391 214.628 60.1993C214.746 60.5595 215.017 60.8582 215.378 61.0076C216.092 61.3151 217.031 61.1569 217.519 60.5331C217.582 60.4541 217.627 60.375 217.672 60.2871C217.717 60.1905 217.699 60.0763 217.6 60.0236C217.519 59.9884 217.383 60.0148 217.329 60.1114Z" fill="#8996A9"/>
<path d="M215.468 58.3979C215.224 56.4124 215.098 54.418 215.08 52.4149C215.071 51.5188 215.035 50.5875 215.242 49.7001C215.423 48.8919 215.866 48.2066 216.48 47.6443C217.13 47.0557 217.988 46.59 218.901 46.6252C219.154 46.6339 219.154 46.2474 218.901 46.2386C218.034 46.2035 217.203 46.5812 216.534 47.0908C215.857 47.6092 215.297 48.2944 215.017 49.0851C214.7 49.9637 214.691 50.9213 214.691 51.8438C214.691 52.8718 214.719 53.8997 214.773 54.9276C214.836 56.0873 214.935 57.2382 215.08 58.3891C215.089 58.4946 215.161 58.5824 215.279 58.5824C215.369 58.5912 215.486 58.5034 215.468 58.3979Z" fill="#8996A9"/>
<path d="M233.209 24.4495C233.037 22.4376 232.279 20.1884 230.364 19.3977C228.982 18.8179 227.554 19.3977 226.181 18.8969C224.944 18.4401 223.923 17.5967 222.722 17.0783C220.888 16.2876 218.838 15.9098 216.841 16.1997C215.522 16.393 214.213 16.7093 212.876 16.6742C212.316 16.6566 211.738 16.5863 211.223 16.7796C210.247 17.1486 209.732 18.3434 209.723 19.2923C209.723 20.3993 209.687 21.6381 209.85 22.7451C210.012 23.852 210.464 24.9502 211.313 25.697C211.774 26.1012 212.343 26.3911 212.921 26.6107C214.953 27.4014 216.742 26.9007 218.792 26.6722C221.403 26.3823 224.041 24.2562 224.998 27.9813C225.17 28.649 225.513 29.2201 225.757 29.8526C226.028 30.5555 225.992 31.4165 225.938 32.1633C225.91 32.5938 226.073 33.0682 226.624 32.8837C226.895 32.7958 227.067 32.5323 227.193 32.2775C227.591 31.4868 228.449 30.7224 229.442 31.0036C230.472 31.2935 230.734 32.9452 230.4 33.7886C230.3 34.0522 230.002 34.3597 230.02 34.632C230.364 34.4739 230.68 34.1664 230.924 33.8853C231.484 33.2527 231.881 32.462 232.179 31.6713C233.065 29.3694 233.417 26.8919 233.209 24.4495Z" fill="#8996A9"/>
<path d="M217.492 68.0531C218.386 67.6226 218.603 66.4014 218.612 65.0308C218.621 64.0204 218.567 63.0452 218.585 62.0349C218.585 61.9119 218.585 61.7801 218.539 61.6747C218.494 61.5692 218.404 61.499 218.323 61.455C218.106 61.3408 217.871 61.3408 217.636 61.3408C216.372 61.3408 215.116 61.3935 213.851 61.5077C213.671 61.5253 213.472 61.5429 213.318 61.6659C212.695 62.1667 213.255 65.4262 213.273 66.252C213.282 66.6474 213.3 67.0515 213.427 67.4029C214.023 69.0546 215.631 68.22 216.733 68.2112C217.031 68.2112 217.284 68.1497 217.492 68.0531Z" fill="#A6B0BF"/>
<path d="M204.15 32.1024H198.558V26.6729H195.279V32.1024H189.688V35.3004H195.279V40.7387H198.558V35.3004H204.15V32.1024Z" fill="#A6B0BF"/>
<path d="M243.769 40.2724H241.149V37.7246H239.614V40.2724H236.994V41.766H239.614V44.3138H241.149V41.766H243.769V40.2724Z" fill="#A6B0BF"/>
<path d="M241.167 20.8569H239.758V19.4863H238.927V20.8569H237.509V21.6652H238.927V23.0357H239.758V21.6652H241.167V20.8569Z" fill="#A6B0BF"/>
</g>
<defs>
<clipPath id="clip0_1645_3061">
<rect width="54.0808" height="65.295" fill="white" transform="translate(189.688 16.0947)"/>
</clipPath>
</defs>
</svg>
