<svg width="300" height="90" viewBox="0 0 300 90" fill="none" xmlns="http://www.w3.org/2000/svg">
<rect width="300" height="90" rx="8" fill="#F3F5F7"/>
<path d="M30.86 42.144C30.228 42.144 29.64 42.032 29.096 41.808C28.552 41.584 28.076 41.272 27.668 40.872C27.268 40.472 26.952 40.008 26.72 39.48C26.496 38.944 26.384 38.368 26.384 37.752C26.384 37.128 26.496 36.552 26.72 36.024C26.944 35.496 27.256 35.036 27.656 34.644C28.064 34.244 28.536 33.936 29.072 33.72C29.616 33.496 30.204 33.384 30.836 33.384C31.476 33.384 32.064 33.496 32.6 33.72C33.144 33.936 33.616 34.244 34.016 34.644C34.424 35.036 34.74 35.5 34.964 36.036C35.188 36.564 35.3 37.14 35.3 37.764C35.3 38.38 35.188 38.956 34.964 39.492C34.74 40.02 34.424 40.484 34.016 40.884C33.616 41.276 33.148 41.584 32.612 41.808C32.076 42.032 31.492 42.144 30.86 42.144ZM30.836 40.428C31.348 40.428 31.792 40.316 32.168 40.092C32.544 39.868 32.836 39.556 33.044 39.156C33.26 38.748 33.368 38.28 33.368 37.752C33.368 37.352 33.308 36.992 33.188 36.672C33.068 36.344 32.896 36.064 32.672 35.832C32.448 35.592 32.18 35.412 31.868 35.292C31.564 35.164 31.22 35.1 30.836 35.1C30.332 35.1 29.892 35.212 29.516 35.436C29.14 35.652 28.844 35.96 28.628 36.36C28.42 36.752 28.316 37.216 28.316 37.752C28.316 38.152 28.376 38.516 28.496 38.844C28.616 39.172 28.788 39.456 29.012 39.696C29.236 39.928 29.5 40.108 29.804 40.236C30.116 40.364 30.46 40.428 30.836 40.428ZM34.64 42.672L30.68 38.712L31.772 37.62L35.732 41.58L34.64 42.672ZM39.072 42.132C38.536 42.132 38.06 42.024 37.644 41.808C37.236 41.584 36.916 41.28 36.684 40.896C36.452 40.504 36.336 40.056 36.336 39.552V36.168H38.172V39.528C38.172 39.728 38.204 39.9 38.268 40.044C38.34 40.188 38.444 40.3 38.58 40.38C38.716 40.46 38.88 40.5 39.072 40.5C39.344 40.5 39.56 40.416 39.72 40.248C39.88 40.072 39.96 39.832 39.96 39.528V36.168H41.796V39.54C41.796 40.052 41.68 40.504 41.448 40.896C41.216 41.28 40.896 41.584 40.488 41.808C40.08 42.024 39.608 42.132 39.072 42.132ZM45.3848 42.12C44.8488 42.12 44.3688 41.988 43.9448 41.724C43.5288 41.46 43.1968 41.1 42.9488 40.644C42.7088 40.188 42.5888 39.668 42.5888 39.084C42.5888 38.5 42.7088 37.98 42.9488 37.524C43.1968 37.068 43.5288 36.708 43.9448 36.444C44.3688 36.18 44.8488 36.048 45.3848 36.048C45.7768 36.048 46.1288 36.124 46.4408 36.276C46.7608 36.428 47.0208 36.64 47.2208 36.912C47.4208 37.176 47.5328 37.48 47.5568 37.824V40.344C47.5328 40.688 47.4208 40.996 47.2208 41.268C47.0288 41.532 46.7728 41.74 46.4528 41.892C46.1328 42.044 45.7768 42.12 45.3848 42.12ZM45.7568 40.464C46.1488 40.464 46.4648 40.336 46.7048 40.08C46.9448 39.816 47.0648 39.484 47.0648 39.084C47.0648 38.812 47.0088 38.572 46.8968 38.364C46.7928 38.156 46.6408 37.996 46.4408 37.884C46.2488 37.764 46.0248 37.704 45.7688 37.704C45.5128 37.704 45.2848 37.764 45.0848 37.884C44.8928 37.996 44.7368 38.156 44.6168 38.364C44.5048 38.572 44.4488 38.812 44.4488 39.084C44.4488 39.348 44.5048 39.584 44.6168 39.792C44.7288 40 44.8848 40.164 45.0848 40.284C45.2848 40.404 45.5088 40.464 45.7568 40.464ZM46.9928 42V40.428L47.2688 39.012L46.9928 37.596V36.168H48.7928V42H46.9928ZM50.0855 42V33.288H51.9215V42H50.0855ZM58.3076 42.132C57.7076 42.132 57.1636 42 56.6756 41.736C56.1956 41.464 55.8156 41.096 55.5356 40.632C55.2556 40.168 55.1156 39.648 55.1156 39.072C55.1156 38.496 55.2556 37.98 55.5356 37.524C55.8156 37.068 56.1956 36.708 56.6756 36.444C57.1556 36.172 57.6996 36.036 58.3076 36.036C58.9156 36.036 59.4596 36.168 59.9396 36.432C60.4196 36.696 60.7996 37.06 61.0796 37.524C61.3596 37.98 61.4996 38.496 61.4996 39.072C61.4996 39.648 61.3596 40.168 61.0796 40.632C60.7996 41.096 60.4196 41.464 59.9396 41.736C59.4596 42 58.9156 42.132 58.3076 42.132ZM58.3076 40.464C58.5716 40.464 58.8036 40.408 59.0036 40.296C59.2036 40.176 59.3556 40.012 59.4596 39.804C59.5716 39.588 59.6276 39.344 59.6276 39.072C59.6276 38.8 59.5716 38.564 59.4596 38.364C59.3476 38.156 59.1916 37.996 58.9916 37.884C58.7996 37.764 58.5716 37.704 58.3076 37.704C58.0516 37.704 57.8236 37.764 57.6236 37.884C57.4236 37.996 57.2676 38.156 57.1556 38.364C57.0436 38.572 56.9876 38.812 56.9876 39.084C56.9876 39.348 57.0436 39.588 57.1556 39.804C57.2676 40.012 57.4236 40.176 57.6236 40.296C57.8236 40.408 58.0516 40.464 58.3076 40.464ZM66.8228 42.144C66.4788 42.144 66.1388 42.1 65.8028 42.012C65.4748 41.924 65.1668 41.8 64.8788 41.64C64.5988 41.472 64.3588 41.28 64.1588 41.064L65.2028 40.008C65.3948 40.216 65.6228 40.38 65.8868 40.5C66.1508 40.612 66.4388 40.668 66.7508 40.668C66.9668 40.668 67.1308 40.636 67.2428 40.572C67.3628 40.508 67.4228 40.42 67.4228 40.308C67.4228 40.164 67.3508 40.056 67.2068 39.984C67.0708 39.904 66.8948 39.836 66.6788 39.78C66.4628 39.716 66.2348 39.648 65.9948 39.576C65.7548 39.504 65.5268 39.404 65.3108 39.276C65.0948 39.148 64.9188 38.972 64.7828 38.748C64.6468 38.516 64.5788 38.224 64.5788 37.872C64.5788 37.496 64.6748 37.172 64.8668 36.9C65.0588 36.62 65.3308 36.4 65.6828 36.24C66.0348 36.08 66.4468 36 66.9188 36C67.4148 36 67.8708 36.088 68.2868 36.264C68.7108 36.432 69.0548 36.684 69.3188 37.02L68.2748 38.076C68.0908 37.86 67.8828 37.708 67.6508 37.62C67.4268 37.532 67.2068 37.488 66.9908 37.488C66.7828 37.488 66.6268 37.52 66.5228 37.584C66.4188 37.64 66.3668 37.724 66.3668 37.836C66.3668 37.956 66.4348 38.052 66.5708 38.124C66.7068 38.196 66.8828 38.26 67.0988 38.316C67.3148 38.372 67.5428 38.44 67.7828 38.52C68.0228 38.6 68.2508 38.708 68.4668 38.844C68.6828 38.98 68.8588 39.164 68.9948 39.396C69.1308 39.62 69.1988 39.916 69.1988 40.284C69.1988 40.852 68.9828 41.304 68.5508 41.64C68.1268 41.976 67.5508 42.144 66.8228 42.144ZM73.0749 42.132C72.4429 42.132 71.8789 42.004 71.3829 41.748C70.8949 41.484 70.5109 41.12 70.2309 40.656C69.9509 40.192 69.8109 39.668 69.8109 39.084C69.8109 38.5 69.9469 37.98 70.2189 37.524C70.4989 37.06 70.8749 36.696 71.3469 36.432C71.8189 36.168 72.3509 36.036 72.9429 36.036C73.5189 36.036 74.0269 36.16 74.4669 36.408C74.9069 36.656 75.2509 37 75.4989 37.44C75.7549 37.88 75.8829 38.384 75.8829 38.952C75.8829 39.056 75.8749 39.168 75.8589 39.288C75.8509 39.4 75.8309 39.532 75.7989 39.684L70.7709 39.696V38.436L75.0189 38.424L74.2269 38.952C74.2189 38.616 74.1669 38.34 74.0709 38.124C73.9749 37.9 73.8309 37.732 73.6389 37.62C73.4549 37.5 73.2269 37.44 72.9549 37.44C72.6669 37.44 72.4149 37.508 72.1989 37.644C71.9909 37.772 71.8269 37.956 71.7069 38.196C71.5949 38.436 71.5389 38.728 71.5389 39.072C71.5389 39.416 71.5989 39.712 71.7189 39.96C71.8469 40.2 72.0229 40.388 72.2469 40.524C72.4789 40.652 72.7509 40.716 73.0629 40.716C73.3509 40.716 73.6109 40.668 73.8429 40.572C74.0749 40.468 74.2789 40.316 74.4549 40.116L75.4629 41.124C75.1749 41.46 74.8269 41.712 74.4189 41.88C74.0109 42.048 73.5629 42.132 73.0749 42.132ZM79.3611 42.132C78.8251 42.132 78.3491 42.024 77.9331 41.808C77.5251 41.584 77.2051 41.28 76.9731 40.896C76.7411 40.504 76.6251 40.056 76.6251 39.552V36.168H78.4611V39.528C78.4611 39.728 78.4931 39.9 78.5571 40.044C78.6291 40.188 78.7331 40.3 78.8691 40.38C79.0051 40.46 79.1691 40.5 79.3611 40.5C79.6331 40.5 79.8491 40.416 80.0091 40.248C80.1691 40.072 80.2491 39.832 80.2491 39.528V36.168H82.0851V39.54C82.0851 40.052 81.9691 40.504 81.7371 40.896C81.5051 41.28 81.1851 41.584 80.7771 41.808C80.3691 42.024 79.8971 42.132 79.3611 42.132ZM88.883 42.12C88.491 42.12 88.131 42.044 87.803 41.892C87.475 41.74 87.207 41.532 86.999 41.268C86.791 40.996 86.671 40.688 86.639 40.344V37.884C86.671 37.54 86.791 37.228 86.999 36.948C87.207 36.668 87.475 36.448 87.803 36.288C88.131 36.128 88.491 36.048 88.883 36.048C89.435 36.048 89.923 36.18 90.347 36.444C90.779 36.708 91.115 37.068 91.355 37.524C91.603 37.98 91.727 38.5 91.727 39.084C91.727 39.668 91.603 40.188 91.355 40.644C91.115 41.1 90.779 41.46 90.347 41.724C89.923 41.988 89.435 42.12 88.883 42.12ZM88.547 40.464C88.811 40.464 89.039 40.404 89.231 40.284C89.431 40.164 89.587 40 89.699 39.792C89.811 39.584 89.867 39.348 89.867 39.084C89.867 38.812 89.811 38.572 89.699 38.364C89.587 38.156 89.431 37.996 89.231 37.884C89.039 37.764 88.815 37.704 88.559 37.704C88.303 37.704 88.075 37.764 87.875 37.884C87.683 37.996 87.531 38.156 87.419 38.364C87.307 38.572 87.251 38.812 87.251 39.084C87.251 39.348 87.303 39.584 87.407 39.792C87.519 40 87.675 40.164 87.875 40.284C88.075 40.404 88.299 40.464 88.547 40.464ZM85.523 44.46V36.168H87.359V37.668L87.059 39.084L87.335 40.5V44.46H85.523ZM92.6597 42V33.288H94.4957V42H92.6597ZM98.2246 42.12C97.6886 42.12 97.2086 41.988 96.7846 41.724C96.3686 41.46 96.0366 41.1 95.7886 40.644C95.5486 40.188 95.4286 39.668 95.4286 39.084C95.4286 38.5 95.5486 37.98 95.7886 37.524C96.0366 37.068 96.3686 36.708 96.7846 36.444C97.2086 36.18 97.6886 36.048 98.2246 36.048C98.6166 36.048 98.9686 36.124 99.2806 36.276C99.6006 36.428 99.8606 36.64 100.061 36.912C100.261 37.176 100.373 37.48 100.397 37.824V40.344C100.373 40.688 100.261 40.996 100.061 41.268C99.8686 41.532 99.6126 41.74 99.2926 41.892C98.9726 42.044 98.6166 42.12 98.2246 42.12ZM98.5966 40.464C98.9886 40.464 99.3046 40.336 99.5446 40.08C99.7846 39.816 99.9046 39.484 99.9046 39.084C99.9046 38.812 99.8486 38.572 99.7366 38.364C99.6326 38.156 99.4806 37.996 99.2806 37.884C99.0886 37.764 98.8646 37.704 98.6086 37.704C98.3526 37.704 98.1246 37.764 97.9246 37.884C97.7326 37.996 97.5766 38.156 97.4566 38.364C97.3446 38.572 97.2886 38.812 97.2886 39.084C97.2886 39.348 97.3446 39.584 97.4566 39.792C97.5686 40 97.7246 40.164 97.9246 40.284C98.1246 40.404 98.3486 40.464 98.5966 40.464ZM99.8326 42V40.428L100.109 39.012L99.8326 37.596V36.168H101.633V42H99.8326ZM106.777 42V38.676C106.777 38.372 106.681 38.128 106.489 37.944C106.305 37.752 106.069 37.656 105.781 37.656C105.581 37.656 105.405 37.7 105.253 37.788C105.101 37.868 104.981 37.988 104.893 38.148C104.805 38.3 104.761 38.476 104.761 38.676L104.053 38.328C104.053 37.872 104.153 37.472 104.353 37.128C104.553 36.784 104.829 36.52 105.181 36.336C105.541 36.144 105.945 36.048 106.393 36.048C106.825 36.048 107.205 36.152 107.533 36.36C107.869 36.56 108.133 36.828 108.325 37.164C108.517 37.5 108.613 37.868 108.613 38.268V42H106.777ZM102.925 42V36.168H104.761V42H102.925ZM112.601 42.132C112.001 42.132 111.457 42 110.969 41.736C110.489 41.464 110.109 41.096 109.829 40.632C109.549 40.168 109.409 39.648 109.409 39.072C109.409 38.496 109.549 37.98 109.829 37.524C110.109 37.068 110.489 36.708 110.969 36.444C111.449 36.172 111.993 36.036 112.601 36.036C113.209 36.036 113.753 36.168 114.233 36.432C114.713 36.696 115.093 37.06 115.373 37.524C115.653 37.98 115.793 38.496 115.793 39.072C115.793 39.648 115.653 40.168 115.373 40.632C115.093 41.096 114.713 41.464 114.233 41.736C113.753 42 113.209 42.132 112.601 42.132ZM112.601 40.464C112.865 40.464 113.097 40.408 113.297 40.296C113.497 40.176 113.649 40.012 113.753 39.804C113.865 39.588 113.921 39.344 113.921 39.072C113.921 38.8 113.865 38.564 113.753 38.364C113.641 38.156 113.485 37.996 113.285 37.884C113.093 37.764 112.865 37.704 112.601 37.704C112.345 37.704 112.117 37.764 111.917 37.884C111.717 37.996 111.561 38.156 111.449 38.364C111.337 38.572 111.281 38.812 111.281 39.084C111.281 39.348 111.337 39.588 111.449 39.804C111.561 40.012 111.717 40.176 111.917 40.296C112.117 40.408 112.345 40.464 112.601 40.464ZM29.132 56.12C28.58 56.12 28.088 55.988 27.656 55.724C27.232 55.46 26.896 55.1 26.648 54.644C26.408 54.188 26.288 53.668 26.288 53.084C26.288 52.5 26.408 51.98 26.648 51.524C26.896 51.068 27.232 50.708 27.656 50.444C28.088 50.18 28.58 50.048 29.132 50.048C29.532 50.048 29.892 50.124 30.212 50.276C30.54 50.428 30.808 50.64 31.016 50.912C31.232 51.176 31.352 51.48 31.376 51.824V54.284C31.352 54.628 31.236 54.94 31.028 55.22C30.82 55.492 30.552 55.712 30.224 55.88C29.896 56.04 29.532 56.12 29.132 56.12ZM29.456 54.464C29.72 54.464 29.948 54.408 30.14 54.296C30.332 54.176 30.484 54.012 30.596 53.804C30.708 53.596 30.764 53.356 30.764 53.084C30.764 52.812 30.708 52.576 30.596 52.376C30.492 52.168 30.34 52.004 30.14 51.884C29.948 51.764 29.724 51.704 29.468 51.704C29.212 51.704 28.984 51.764 28.784 51.884C28.592 52.004 28.436 52.168 28.316 52.376C28.204 52.584 28.148 52.82 28.148 53.084C28.148 53.348 28.204 53.584 28.316 53.792C28.428 54 28.584 54.164 28.784 54.284C28.984 54.404 29.208 54.464 29.456 54.464ZM32.492 56H30.692V54.428L30.968 53.012L30.656 51.596V47.288H32.492V56ZM36.6647 56.132C36.0327 56.132 35.4687 56.004 34.9727 55.748C34.4847 55.484 34.1007 55.12 33.8207 54.656C33.5407 54.192 33.4007 53.668 33.4007 53.084C33.4007 52.5 33.5367 51.98 33.8087 51.524C34.0887 51.06 34.4647 50.696 34.9367 50.432C35.4087 50.168 35.9407 50.036 36.5327 50.036C37.1087 50.036 37.6167 50.16 38.0567 50.408C38.4967 50.656 38.8407 51 39.0887 51.44C39.3447 51.88 39.4727 52.384 39.4727 52.952C39.4727 53.056 39.4647 53.168 39.4487 53.288C39.4407 53.4 39.4207 53.532 39.3887 53.684L34.3607 53.696V52.436L38.6087 52.424L37.8167 52.952C37.8087 52.616 37.7567 52.34 37.6607 52.124C37.5647 51.9 37.4207 51.732 37.2287 51.62C37.0447 51.5 36.8167 51.44 36.5447 51.44C36.2567 51.44 36.0047 51.508 35.7887 51.644C35.5807 51.772 35.4167 51.956 35.2967 52.196C35.1847 52.436 35.1287 52.728 35.1287 53.072C35.1287 53.416 35.1887 53.712 35.3087 53.96C35.4367 54.2 35.6127 54.388 35.8367 54.524C36.0687 54.652 36.3407 54.716 36.6527 54.716C36.9407 54.716 37.2007 54.668 37.4327 54.572C37.6647 54.468 37.8687 54.316 38.0447 54.116L39.0527 55.124C38.7647 55.46 38.4167 55.712 38.0087 55.88C37.6007 56.048 37.1527 56.132 36.6647 56.132ZM44.7681 56.144C44.4241 56.144 44.0841 56.1 43.7481 56.012C43.4201 55.924 43.1121 55.8 42.8241 55.64C42.5441 55.472 42.3041 55.28 42.1041 55.064L43.1481 54.008C43.3401 54.216 43.5681 54.38 43.8321 54.5C44.0961 54.612 44.3841 54.668 44.6961 54.668C44.9121 54.668 45.0761 54.636 45.1881 54.572C45.3081 54.508 45.3681 54.42 45.3681 54.308C45.3681 54.164 45.2961 54.056 45.1521 53.984C45.0161 53.904 44.8401 53.836 44.6241 53.78C44.4081 53.716 44.1801 53.648 43.9401 53.576C43.7001 53.504 43.4721 53.404 43.2561 53.276C43.0401 53.148 42.8641 52.972 42.7281 52.748C42.5921 52.516 42.5241 52.224 42.5241 51.872C42.5241 51.496 42.6201 51.172 42.8121 50.9C43.0041 50.62 43.2761 50.4 43.6281 50.24C43.9801 50.08 44.3921 50 44.8641 50C45.3601 50 45.8161 50.088 46.2321 50.264C46.6561 50.432 47.0001 50.684 47.2641 51.02L46.2201 52.076C46.0361 51.86 45.8281 51.708 45.5961 51.62C45.3721 51.532 45.1521 51.488 44.9361 51.488C44.7281 51.488 44.5721 51.52 44.4681 51.584C44.3641 51.64 44.3121 51.724 44.3121 51.836C44.3121 51.956 44.3801 52.052 44.5161 52.124C44.6521 52.196 44.8281 52.26 45.0441 52.316C45.2601 52.372 45.4881 52.44 45.7281 52.52C45.9681 52.6 46.1961 52.708 46.4121 52.844C46.6281 52.98 46.8041 53.164 46.9401 53.396C47.0761 53.62 47.1441 53.916 47.1441 54.284C47.1441 54.852 46.9281 55.304 46.4961 55.64C46.0721 55.976 45.4961 56.144 44.7681 56.144ZM50.5762 56.12C50.0402 56.12 49.5602 55.988 49.1362 55.724C48.7202 55.46 48.3882 55.1 48.1402 54.644C47.9002 54.188 47.7802 53.668 47.7802 53.084C47.7802 52.5 47.9002 51.98 48.1402 51.524C48.3882 51.068 48.7202 50.708 49.1362 50.444C49.5602 50.18 50.0402 50.048 50.5762 50.048C50.9682 50.048 51.3202 50.124 51.6322 50.276C51.9522 50.428 52.2122 50.64 52.4122 50.912C52.6122 51.176 52.7242 51.48 52.7482 51.824V54.344C52.7242 54.688 52.6122 54.996 52.4122 55.268C52.2202 55.532 51.9642 55.74 51.6442 55.892C51.3242 56.044 50.9682 56.12 50.5762 56.12ZM50.9482 54.464C51.3402 54.464 51.6562 54.336 51.8962 54.08C52.1362 53.816 52.2562 53.484 52.2562 53.084C52.2562 52.812 52.2002 52.572 52.0882 52.364C51.9842 52.156 51.8322 51.996 51.6322 51.884C51.4402 51.764 51.2162 51.704 50.9602 51.704C50.7042 51.704 50.4762 51.764 50.2762 51.884C50.0842 51.996 49.9282 52.156 49.8082 52.364C49.6962 52.572 49.6402 52.812 49.6402 53.084C49.6402 53.348 49.6962 53.584 49.8082 53.792C49.9202 54 50.0762 54.164 50.2762 54.284C50.4762 54.404 50.7002 54.464 50.9482 54.464ZM52.1842 56V54.428L52.4602 53.012L52.1842 51.596V50.168H53.9842V56H52.1842ZM57.8689 56.132C57.3329 56.132 56.8569 56.024 56.4409 55.808C56.0329 55.584 55.7129 55.28 55.4809 54.896C55.2489 54.504 55.1329 54.056 55.1329 53.552V50.168H56.9689V53.528C56.9689 53.728 57.0009 53.9 57.0649 54.044C57.1369 54.188 57.2409 54.3 57.3769 54.38C57.5129 54.46 57.6769 54.5 57.8689 54.5C58.1409 54.5 58.3569 54.416 58.5169 54.248C58.6769 54.072 58.7569 53.832 58.7569 53.528V50.168H60.5929V53.54C60.5929 54.052 60.4769 54.504 60.2449 54.896C60.0129 55.28 59.6929 55.584 59.2849 55.808C58.8769 56.024 58.4049 56.132 57.8689 56.132ZM57.0049 49.508L56.4049 48.632L58.3129 46.844L59.3209 48.26L57.0049 49.508ZM64.2297 56.12C63.6777 56.12 63.1857 55.988 62.7537 55.724C62.3297 55.46 61.9937 55.1 61.7457 54.644C61.5057 54.188 61.3857 53.668 61.3857 53.084C61.3857 52.5 61.5057 51.98 61.7457 51.524C61.9937 51.068 62.3297 50.708 62.7537 50.444C63.1857 50.18 63.6777 50.048 64.2297 50.048C64.6297 50.048 64.9897 50.124 65.3097 50.276C65.6377 50.428 65.9057 50.64 66.1137 50.912C66.3297 51.176 66.4497 51.48 66.4737 51.824V54.284C66.4497 54.628 66.3337 54.94 66.1257 55.22C65.9177 55.492 65.6497 55.712 65.3217 55.88C64.9937 56.04 64.6297 56.12 64.2297 56.12ZM64.5537 54.464C64.8177 54.464 65.0457 54.408 65.2377 54.296C65.4297 54.176 65.5817 54.012 65.6937 53.804C65.8057 53.596 65.8617 53.356 65.8617 53.084C65.8617 52.812 65.8057 52.576 65.6937 52.376C65.5897 52.168 65.4377 52.004 65.2377 51.884C65.0457 51.764 64.8217 51.704 64.5657 51.704C64.3097 51.704 64.0817 51.764 63.8817 51.884C63.6897 52.004 63.5337 52.168 63.4137 52.376C63.3017 52.584 63.2457 52.82 63.2457 53.084C63.2457 53.348 63.3017 53.584 63.4137 53.792C63.5257 54 63.6817 54.164 63.8817 54.284C64.0817 54.404 64.3057 54.464 64.5537 54.464ZM67.5897 56H65.7897V54.428L66.0657 53.012L65.7537 51.596V47.288H67.5897V56ZM71.7624 56.132C71.1304 56.132 70.5664 56.004 70.0704 55.748C69.5824 55.484 69.1984 55.12 68.9184 54.656C68.6384 54.192 68.4984 53.668 68.4984 53.084C68.4984 52.5 68.6344 51.98 68.9064 51.524C69.1864 51.06 69.5624 50.696 70.0344 50.432C70.5064 50.168 71.0384 50.036 71.6304 50.036C72.2064 50.036 72.7144 50.16 73.1544 50.408C73.5944 50.656 73.9384 51 74.1864 51.44C74.4424 51.88 74.5704 52.384 74.5704 52.952C74.5704 53.056 74.5624 53.168 74.5464 53.288C74.5384 53.4 74.5184 53.532 74.4864 53.684L69.4584 53.696V52.436L73.7064 52.424L72.9144 52.952C72.9064 52.616 72.8544 52.34 72.7584 52.124C72.6624 51.9 72.5184 51.732 72.3264 51.62C72.1424 51.5 71.9144 51.44 71.6424 51.44C71.3544 51.44 71.1024 51.508 70.8864 51.644C70.6784 51.772 70.5144 51.956 70.3944 52.196C70.2824 52.436 70.2264 52.728 70.2264 53.072C70.2264 53.416 70.2864 53.712 70.4064 53.96C70.5344 54.2 70.7104 54.388 70.9344 54.524C71.1664 54.652 71.4384 54.716 71.7504 54.716C72.0384 54.716 72.2984 54.668 72.5304 54.572C72.7624 54.468 72.9664 54.316 73.1424 54.116L74.1504 55.124C73.8624 55.46 73.5144 55.712 73.1064 55.88C72.6984 56.048 72.2504 56.132 71.7624 56.132ZM77.2086 52.94L77.1126 50.636H77.6286C77.8286 50.636 78.0006 50.6 78.1446 50.528C78.2966 50.456 78.4126 50.356 78.4926 50.228C78.5806 50.092 78.6246 49.932 78.6246 49.748C78.6246 49.572 78.5846 49.42 78.5046 49.292C78.4246 49.156 78.3126 49.056 78.1686 48.992C78.0246 48.92 77.8566 48.884 77.6646 48.884C77.3686 48.884 77.0966 48.972 76.8486 49.148C76.6086 49.316 76.4126 49.548 76.2606 49.844L75.0846 48.74C75.3246 48.268 75.6726 47.888 76.1286 47.6C76.5846 47.304 77.1246 47.156 77.7486 47.156C78.2686 47.156 78.7286 47.264 79.1286 47.48C79.5286 47.696 79.8406 47.992 80.0646 48.368C80.2886 48.736 80.4006 49.152 80.4006 49.616C80.4006 50.088 80.3046 50.492 80.1126 50.828C79.9206 51.164 79.6606 51.44 79.3326 51.656C79.0046 51.864 78.6326 52.012 78.2166 52.1L78.7566 51.392L78.6486 52.94H77.2086ZM77.9286 56.132C77.6086 56.132 77.3446 56.024 77.1366 55.808C76.9366 55.592 76.8366 55.332 76.8366 55.028C76.8366 54.708 76.9366 54.444 77.1366 54.236C77.3446 54.02 77.6086 53.912 77.9286 53.912C78.2406 53.912 78.4966 54.02 78.6966 54.236C78.9046 54.444 79.0086 54.708 79.0086 55.028C79.0086 55.332 78.9046 55.592 78.6966 55.808C78.4966 56.024 78.2406 56.132 77.9286 56.132Z" fill="#64748B"/>
<rect x="163" y="42.7666" width="42.998" height="88.3426" rx="21.499" transform="rotate(-61.4406 163 42.7666)" fill="#D2D8E0"/>
<path d="M189.87 32.9048C189.87 32.9048 210.71 29.228 225.801 32.9474C225.801 32.9474 229.875 66.2746 207.865 75.483C207.865 75.4783 186.247 67.5995 189.87 32.9048Z" fill="#A6B0BF"/>
<path d="M192.269 35.0298C192.269 35.0298 211.382 32.6117 223.052 35.0298C223.052 35.0298 226.948 62.0966 208.08 72.1047C208.08 72.1047 190.796 67.2734 192.269 35.0298Z" fill="#8996A9"/>
<path d="M215.988 46.7092H210.264V41.2012H205.019V46.7092H199.573V51.8812H205.019V57.3892H210.264V51.8812H215.988V46.7092Z" fill="white"/>
</svg>
