<svg width="300" height="90" viewBox="0 0 300 90" fill="none" xmlns="http://www.w3.org/2000/svg">
<rect width="300" height="90" rx="6.6644" fill="#F3F5F7"/>
<path d="M30.86 40.4975C30.22 40.4975 29.628 40.3855 29.084 40.1615C28.548 39.9375 28.076 39.6255 27.668 39.2255C27.26 38.8255 26.944 38.3615 26.72 37.8335C26.496 37.2975 26.384 36.7215 26.384 36.1055C26.384 35.4815 26.496 34.9055 26.72 34.3775C26.944 33.8495 27.256 33.3895 27.656 32.9975C28.056 32.5975 28.524 32.2895 29.06 32.0735C29.604 31.8495 30.196 31.7375 30.836 31.7375C31.468 31.7375 32.052 31.8495 32.588 32.0735C33.132 32.2895 33.604 32.5975 34.004 32.9975C34.412 33.3895 34.728 33.8535 34.952 34.3895C35.176 34.9175 35.288 35.4935 35.288 36.1175C35.288 36.7335 35.176 37.3095 34.952 37.8455C34.728 38.3735 34.416 38.8375 34.016 39.2375C33.616 39.6295 33.144 39.9375 32.6 40.1615C32.064 40.3855 31.484 40.4975 30.86 40.4975ZM30.836 38.7815C31.34 38.7815 31.78 38.6695 32.156 38.4455C32.54 38.2215 32.836 37.9095 33.044 37.5095C33.252 37.1015 33.356 36.6335 33.356 36.1055C33.356 35.7055 33.296 35.3455 33.176 35.0255C33.056 34.6975 32.884 34.4175 32.66 34.1855C32.436 33.9455 32.168 33.7655 31.856 33.6455C31.552 33.5175 31.212 33.4535 30.836 33.4535C30.332 33.4535 29.888 33.5655 29.504 33.7895C29.128 34.0055 28.836 34.3135 28.628 34.7135C28.42 35.1055 28.316 35.5695 28.316 36.1055C28.316 36.5055 28.376 36.8695 28.496 37.1975C28.616 37.5255 28.784 37.8095 29 38.0495C29.224 38.2815 29.492 38.4615 29.804 38.5895C30.116 38.7175 30.46 38.7815 30.836 38.7815ZM40.168 40.3535V37.0295C40.168 36.7255 40.072 36.4815 39.88 36.2975C39.696 36.1055 39.46 36.0095 39.172 36.0095C38.972 36.0095 38.796 36.0535 38.644 36.1415C38.492 36.2215 38.372 36.3415 38.284 36.5015C38.196 36.6535 38.152 36.8295 38.152 37.0295L37.444 36.6815C37.444 36.2255 37.544 35.8255 37.744 35.4815C37.944 35.1375 38.22 34.8735 38.572 34.6895C38.932 34.4975 39.336 34.4015 39.784 34.4015C40.216 34.4015 40.596 34.5055 40.924 34.7135C41.26 34.9135 41.524 35.1815 41.716 35.5175C41.908 35.8535 42.004 36.2215 42.004 36.6215V40.3535H40.168ZM36.316 40.3535V34.5215H38.152V40.3535H36.316ZM45.6672 40.4735C45.1152 40.4735 44.6232 40.3415 44.1912 40.0775C43.7672 39.8135 43.4312 39.4535 43.1832 38.9975C42.9432 38.5415 42.8232 38.0215 42.8232 37.4375C42.8232 36.8535 42.9432 36.3335 43.1832 35.8775C43.4312 35.4215 43.7672 35.0615 44.1912 34.7975C44.6232 34.5335 45.1152 34.4015 45.6672 34.4015C46.0672 34.4015 46.4272 34.4775 46.7472 34.6295C47.0752 34.7815 47.3432 34.9935 47.5512 35.2655C47.7672 35.5295 47.8872 35.8335 47.9112 36.1775V38.6375C47.8872 38.9815 47.7712 39.2935 47.5632 39.5735C47.3552 39.8455 47.0872 40.0655 46.7592 40.2335C46.4312 40.3935 46.0672 40.4735 45.6672 40.4735ZM45.9912 38.8175C46.2552 38.8175 46.4832 38.7615 46.6752 38.6495C46.8672 38.5295 47.0192 38.3655 47.1312 38.1575C47.2432 37.9495 47.2992 37.7095 47.2992 37.4375C47.2992 37.1655 47.2432 36.9295 47.1312 36.7295C47.0272 36.5215 46.8752 36.3575 46.6752 36.2375C46.4832 36.1175 46.2592 36.0575 46.0032 36.0575C45.7472 36.0575 45.5192 36.1175 45.3192 36.2375C45.1272 36.3575 44.9712 36.5215 44.8512 36.7295C44.7392 36.9375 44.6832 37.1735 44.6832 37.4375C44.6832 37.7015 44.7392 37.9375 44.8512 38.1455C44.9632 38.3535 45.1192 38.5175 45.3192 38.6375C45.5192 38.7575 45.7432 38.8175 45.9912 38.8175ZM49.0272 40.3535H47.2272V38.7815L47.5032 37.3655L47.1912 35.9495V31.6415H49.0272V40.3535ZM53.1999 40.4855C52.5679 40.4855 52.0039 40.3575 51.5079 40.1015C51.0199 39.8375 50.6359 39.4735 50.3559 39.0095C50.0759 38.5455 49.9359 38.0215 49.9359 37.4375C49.9359 36.8535 50.0719 36.3335 50.3439 35.8775C50.6239 35.4135 50.9999 35.0495 51.4719 34.7855C51.9439 34.5215 52.4759 34.3895 53.0679 34.3895C53.6439 34.3895 54.1519 34.5135 54.5919 34.7615C55.0319 35.0095 55.3759 35.3535 55.6239 35.7935C55.8799 36.2335 56.0079 36.7375 56.0079 37.3055C56.0079 37.4095 55.9999 37.5215 55.9839 37.6415C55.9759 37.7535 55.9559 37.8855 55.9239 38.0375L50.8959 38.0495V36.7895L55.1439 36.7775L54.3519 37.3055C54.3439 36.9695 54.2919 36.6935 54.1959 36.4775C54.0999 36.2535 53.9559 36.0855 53.7639 35.9735C53.5799 35.8535 53.3519 35.7935 53.0799 35.7935C52.7919 35.7935 52.5399 35.8615 52.3239 35.9975C52.1159 36.1255 51.9519 36.3095 51.8319 36.5495C51.7199 36.7895 51.6639 37.0815 51.6639 37.4255C51.6639 37.7695 51.7239 38.0655 51.8439 38.3135C51.9719 38.5535 52.1479 38.7415 52.3719 38.8775C52.6039 39.0055 52.8759 39.0695 53.1879 39.0695C53.4759 39.0695 53.7359 39.0215 53.9679 38.9255C54.1999 38.8215 54.4039 38.6695 54.5799 38.4695L55.5879 39.4775C55.2999 39.8135 54.9519 40.0655 54.5439 40.2335C54.1359 40.4015 53.6879 40.4855 53.1999 40.4855ZM61.0153 40.3535L58.5433 34.5215H60.5233L62.2033 39.3815H61.3393L63.0193 34.5215H64.9633L62.4913 40.3415L61.0153 40.3535ZM68.2685 40.4855C67.6685 40.4855 67.1245 40.3535 66.6365 40.0895C66.1565 39.8175 65.7765 39.4495 65.4965 38.9855C65.2165 38.5215 65.0765 38.0015 65.0765 37.4255C65.0765 36.8495 65.2165 36.3335 65.4965 35.8775C65.7765 35.4215 66.1565 35.0615 66.6365 34.7975C67.1165 34.5255 67.6605 34.3895 68.2685 34.3895C68.8765 34.3895 69.4205 34.5215 69.9005 34.7855C70.3805 35.0495 70.7605 35.4135 71.0405 35.8775C71.3205 36.3335 71.4605 36.8495 71.4605 37.4255C71.4605 38.0015 71.3205 38.5215 71.0405 38.9855C70.7605 39.4495 70.3805 39.8175 69.9005 40.0895C69.4205 40.3535 68.8765 40.4855 68.2685 40.4855ZM68.2685 38.8175C68.5325 38.8175 68.7645 38.7615 68.9645 38.6495C69.1645 38.5295 69.3165 38.3655 69.4205 38.1575C69.5325 37.9415 69.5885 37.6975 69.5885 37.4255C69.5885 37.1535 69.5325 36.9175 69.4205 36.7175C69.3085 36.5095 69.1525 36.3495 68.9525 36.2375C68.7605 36.1175 68.5325 36.0575 68.2685 36.0575C68.0125 36.0575 67.7845 36.1175 67.5845 36.2375C67.3845 36.3495 67.2285 36.5095 67.1165 36.7175C67.0045 36.9255 66.9485 37.1655 66.9485 37.4375C66.9485 37.7015 67.0045 37.9415 67.1165 38.1575C67.2285 38.3655 67.3845 38.5295 67.5845 38.6495C67.7845 38.7615 68.0125 38.8175 68.2685 38.8175ZM75.1946 40.4855C74.5946 40.4855 74.0506 40.3535 73.5626 40.0895C73.0746 39.8255 72.6906 39.4615 72.4106 38.9975C72.1306 38.5335 71.9906 38.0135 71.9906 37.4375C71.9906 36.8535 72.1306 36.3335 72.4106 35.8775C72.6986 35.4135 73.0866 35.0495 73.5746 34.7855C74.0626 34.5215 74.6106 34.3895 75.2186 34.3895C75.6746 34.3895 76.0906 34.4695 76.4666 34.6295C76.8506 34.7815 77.1906 35.0135 77.4866 35.3255L76.3106 36.5015C76.1746 36.3495 76.0146 36.2375 75.8306 36.1655C75.6546 36.0935 75.4506 36.0575 75.2186 36.0575C74.9546 36.0575 74.7186 36.1175 74.5106 36.2375C74.3106 36.3495 74.1506 36.5095 74.0306 36.7175C73.9186 36.9175 73.8626 37.1535 73.8626 37.4255C73.8626 37.6975 73.9186 37.9375 74.0306 38.1455C74.1506 38.3535 74.3146 38.5175 74.5226 38.6375C74.7306 38.7575 74.9626 38.8175 75.2186 38.8175C75.4586 38.8175 75.6706 38.7775 75.8546 38.6975C76.0466 38.6095 76.2106 38.4895 76.3466 38.3375L77.5106 39.5135C77.2066 39.8335 76.8626 40.0775 76.4786 40.2455C76.0946 40.4055 75.6666 40.4855 75.1946 40.4855ZM81.0671 40.4855C80.4351 40.4855 79.8711 40.3575 79.3751 40.1015C78.8871 39.8375 78.5031 39.4735 78.2231 39.0095C77.9431 38.5455 77.8031 38.0215 77.8031 37.4375C77.8031 36.8535 77.9391 36.3335 78.2111 35.8775C78.4911 35.4135 78.8671 35.0495 79.3391 34.7855C79.8111 34.5215 80.3431 34.3895 80.9351 34.3895C81.5111 34.3895 82.0191 34.5135 82.4591 34.7615C82.8991 35.0095 83.2431 35.3535 83.4911 35.7935C83.7471 36.2335 83.8751 36.7375 83.8751 37.3055C83.8751 37.4095 83.8671 37.5215 83.8511 37.6415C83.8431 37.7535 83.8231 37.8855 83.7911 38.0375L78.7631 38.0495V36.7895L83.0111 36.7775L82.2191 37.3055C82.2111 36.9695 82.1591 36.6935 82.0631 36.4775C81.9671 36.2535 81.8231 36.0855 81.6311 35.9735C81.4471 35.8535 81.2191 35.7935 80.9471 35.7935C80.6591 35.7935 80.4071 35.8615 80.1911 35.9975C79.9831 36.1255 79.8191 36.3095 79.6991 36.5495C79.5871 36.7895 79.5311 37.0815 79.5311 37.4255C79.5311 37.7695 79.5911 38.0655 79.7111 38.3135C79.8391 38.5535 80.0151 38.7415 80.2391 38.8775C80.4711 39.0055 80.7431 39.0695 81.0551 39.0695C81.3431 39.0695 81.6031 39.0215 81.8351 38.9255C82.0671 38.8215 82.2711 38.6695 82.4471 38.4695L83.4551 39.4775C83.1671 39.8135 82.8191 40.0655 82.4111 40.2335C82.0031 40.4015 81.5551 40.4855 81.0671 40.4855ZM79.2551 33.9095L78.6551 33.1175L80.4071 31.3775H81.4631L83.2151 33.1175L82.6151 33.9095L80.2511 32.4455H81.6431L79.2551 33.9095ZM26.648 54.3535V48.5215H28.484V54.3535H26.648ZM30.38 54.3535V50.9455C30.38 50.6495 30.288 50.4215 30.104 50.2615C29.928 50.0935 29.708 50.0095 29.444 50.0095C29.26 50.0095 29.096 50.0495 28.952 50.1295C28.808 50.2015 28.692 50.3055 28.604 50.4415C28.524 50.5775 28.484 50.7455 28.484 50.9455L27.776 50.6335C27.776 50.1695 27.876 49.7735 28.076 49.4455C28.276 49.1095 28.548 48.8535 28.892 48.6775C29.236 48.4935 29.624 48.4015 30.056 48.4015C30.464 48.4015 30.828 48.4935 31.148 48.6775C31.476 48.8615 31.736 49.1175 31.928 49.4455C32.12 49.7735 32.216 50.1655 32.216 50.6215V54.3535H30.38ZM34.112 54.3535V50.9455C34.112 50.6495 34.02 50.4215 33.836 50.2615C33.66 50.0935 33.44 50.0095 33.176 50.0095C32.992 50.0095 32.828 50.0495 32.684 50.1295C32.54 50.2015 32.424 50.3055 32.336 50.4415C32.256 50.5775 32.216 50.7455 32.216 50.9455L31.16 50.8015C31.176 50.3055 31.292 49.8815 31.508 49.5295C31.732 49.1695 32.024 48.8935 32.384 48.7015C32.752 48.5015 33.164 48.4015 33.62 48.4015C34.068 48.4015 34.464 48.4975 34.808 48.6895C35.16 48.8735 35.436 49.1415 35.636 49.4935C35.844 49.8375 35.948 50.2535 35.948 50.7415V54.3535H34.112ZM39.9326 54.4855C39.3326 54.4855 38.7886 54.3535 38.3006 54.0895C37.8206 53.8175 37.4406 53.4495 37.1606 52.9855C36.8806 52.5215 36.7406 52.0015 36.7406 51.4255C36.7406 50.8495 36.8806 50.3335 37.1606 49.8775C37.4406 49.4215 37.8206 49.0615 38.3006 48.7975C38.7806 48.5255 39.3246 48.3895 39.9326 48.3895C40.5406 48.3895 41.0846 48.5215 41.5646 48.7855C42.0446 49.0495 42.4246 49.4135 42.7046 49.8775C42.9846 50.3335 43.1246 50.8495 43.1246 51.4255C43.1246 52.0015 42.9846 52.5215 42.7046 52.9855C42.4246 53.4495 42.0446 53.8175 41.5646 54.0895C41.0846 54.3535 40.5406 54.4855 39.9326 54.4855ZM39.9326 52.8175C40.1966 52.8175 40.4286 52.7615 40.6286 52.6495C40.8286 52.5295 40.9806 52.3655 41.0846 52.1575C41.1966 51.9415 41.2526 51.6975 41.2526 51.4255C41.2526 51.1535 41.1966 50.9175 41.0846 50.7175C40.9726 50.5095 40.8166 50.3495 40.6166 50.2375C40.4246 50.1175 40.1966 50.0575 39.9326 50.0575C39.6766 50.0575 39.4486 50.1175 39.2486 50.2375C39.0486 50.3495 38.8926 50.5095 38.7806 50.7175C38.6686 50.9255 38.6126 51.1655 38.6126 51.4375C38.6126 51.7015 38.6686 51.9415 38.7806 52.1575C38.8926 52.3655 39.0486 52.5295 39.2486 52.6495C39.4486 52.7615 39.6766 52.8175 39.9326 52.8175ZM44.0386 54.3535V48.5215H45.8746V54.3535H44.0386ZM45.8746 51.1495L45.1066 50.5495C45.2586 49.8695 45.5146 49.3415 45.8746 48.9655C46.2346 48.5895 46.7346 48.4015 47.3746 48.4015C47.6546 48.4015 47.8986 48.4455 48.1066 48.5335C48.3226 48.6135 48.5106 48.7415 48.6706 48.9175L47.5786 50.2975C47.4986 50.2095 47.3986 50.1415 47.2786 50.0935C47.1586 50.0455 47.0226 50.0215 46.8706 50.0215C46.5666 50.0215 46.3226 50.1175 46.1386 50.3095C45.9626 50.4935 45.8746 50.7735 45.8746 51.1495ZM51.4317 54.4735C50.8957 54.4735 50.4157 54.3415 49.9917 54.0775C49.5757 53.8135 49.2437 53.4535 48.9957 52.9975C48.7557 52.5415 48.6357 52.0215 48.6357 51.4375C48.6357 50.8535 48.7557 50.3335 48.9957 49.8775C49.2437 49.4215 49.5757 49.0615 49.9917 48.7975C50.4157 48.5335 50.8957 48.4015 51.4317 48.4015C51.8237 48.4015 52.1757 48.4775 52.4877 48.6295C52.8077 48.7815 53.0677 48.9935 53.2677 49.2655C53.4677 49.5295 53.5797 49.8335 53.6037 50.1775V52.6975C53.5797 53.0415 53.4677 53.3495 53.2677 53.6215C53.0757 53.8855 52.8197 54.0935 52.4997 54.2455C52.1797 54.3975 51.8237 54.4735 51.4317 54.4735ZM51.8037 52.8175C52.1957 52.8175 52.5117 52.6895 52.7517 52.4335C52.9917 52.1695 53.1117 51.8375 53.1117 51.4375C53.1117 51.1655 53.0557 50.9255 52.9437 50.7175C52.8397 50.5095 52.6877 50.3495 52.4877 50.2375C52.2957 50.1175 52.0717 50.0575 51.8157 50.0575C51.5597 50.0575 51.3317 50.1175 51.1317 50.2375C50.9397 50.3495 50.7837 50.5095 50.6637 50.7175C50.5517 50.9255 50.4957 51.1655 50.4957 51.4375C50.4957 51.7015 50.5517 51.9375 50.6637 52.1455C50.7757 52.3535 50.9317 52.5175 51.1317 52.6375C51.3317 52.7575 51.5557 52.8175 51.8037 52.8175ZM53.0397 54.3535V52.7815L53.3157 51.3655L53.0397 49.9495V48.5215H54.8397V54.3535H53.0397ZM57.8844 51.2935L57.7884 48.9895H58.3044C58.5044 48.9895 58.6764 48.9535 58.8204 48.8815C58.9724 48.8095 59.0884 48.7095 59.1684 48.5815C59.2564 48.4455 59.3004 48.2855 59.3004 48.1015C59.3004 47.9255 59.2604 47.7735 59.1804 47.6455C59.1004 47.5095 58.9884 47.4095 58.8444 47.3455C58.7004 47.2735 58.5324 47.2375 58.3404 47.2375C58.0444 47.2375 57.7724 47.3255 57.5244 47.5015C57.2844 47.6695 57.0884 47.9015 56.9364 48.1975L55.7604 47.0935C56.0004 46.6215 56.3484 46.2415 56.8044 45.9535C57.2604 45.6575 57.8004 45.5095 58.4244 45.5095C58.9444 45.5095 59.4044 45.6175 59.8044 45.8335C60.2044 46.0495 60.5164 46.3455 60.7404 46.7215C60.9644 47.0895 61.0764 47.5055 61.0764 47.9695C61.0764 48.4415 60.9804 48.8455 60.7884 49.1815C60.5964 49.5175 60.3364 49.7935 60.0084 50.0095C59.6804 50.2175 59.3084 50.3655 58.8924 50.4535L59.4324 49.7455L59.3244 51.2935H57.8844ZM58.6044 54.4855C58.2844 54.4855 58.0204 54.3775 57.8124 54.1615C57.6124 53.9455 57.5124 53.6855 57.5124 53.3815C57.5124 53.0615 57.6124 52.7975 57.8124 52.5895C58.0204 52.3735 58.2844 52.2655 58.6044 52.2655C58.9164 52.2655 59.1724 52.3735 59.3724 52.5895C59.5804 52.7975 59.6844 53.0615 59.6844 53.3815C59.6844 53.6855 59.5804 53.9455 59.3724 54.1615C59.1724 54.3775 58.9164 54.4855 58.6044 54.4855Z" fill="#64748B"/>
<rect width="42.7097" height="86.3269" rx="21.3548" transform="matrix(0.467011 -0.884251 0.872154 0.489232 165.343 42.7656)" fill="#D2D8E0"/>
<g clip-path="url(#clip0_1427_3180)">
<path d="M208.491 37.892H185L198.686 23.6095C199.012 23.2688 199.464 23.0762 199.936 23.0762H222.689L208.491 37.892Z" fill="white"/>
<path d="M222.689 23.0762L208.401 37.7992V68.2659H233.02C233.976 68.2659 234.751 67.4911 234.751 66.5352V39.2867C234.751 38.9038 234.624 38.5318 234.39 38.2288L222.689 23.0762Z" fill="#8996A9"/>
<path d="M185 37.8916V66.5348C185 67.4907 185.774 68.2656 186.73 68.2656H208.401V37.7988L185 37.8916Z" fill="#A6B0BF"/>
<path d="M196.67 54.8418C193.061 54.8418 190.143 57.8421 190.143 61.5538V68.2657H203.197V61.5538C203.197 57.8421 200.28 54.8418 196.67 54.8418Z" fill="#8996A9"/>
<path d="M217.71 47.6348H215.245C214.29 47.6348 213.515 48.4097 213.515 49.3655V59.8228C213.515 60.7787 214.29 61.5536 215.245 61.5536H217.71C218.665 61.5536 219.44 60.7787 219.44 59.8228V49.3655C219.44 48.4097 218.665 47.6348 217.71 47.6348Z" fill="#F6F7F7"/>
<path d="M228.027 47.6348H225.563C224.607 47.6348 223.832 48.4097 223.832 49.3655V59.8228C223.832 60.7787 224.607 61.5536 225.563 61.5536H228.027C228.983 61.5536 229.758 60.7787 229.758 59.8228V49.3655C229.758 48.4097 228.983 47.6348 228.027 47.6348Z" fill="#F6F7F7"/>
<path d="M200.125 47.9565C200.578 45.9952 199.399 44.0279 197.491 43.5625C195.584 43.097 193.671 44.3097 193.218 46.271C192.766 48.2323 193.945 50.1996 195.852 50.665C197.76 51.1304 199.673 49.9178 200.125 47.9565Z" fill="#8996A9"/>
<path d="M194.053 68.1732C194.084 68.1732 194.084 68.1423 194.084 68.1423L194.114 68.1113C194.114 68.1113 194.114 68.1113 194.084 68.1113C194.084 68.1113 194.053 68.1113 194.053 68.1423C194.053 68.1113 194.053 68.1423 194.053 68.1732Z" fill="#3A82E2"/>
<path d="M193.994 67.8327H194.024V67.8018C193.994 67.8018 193.994 67.8018 193.963 67.8018C193.994 67.8327 193.994 67.8327 193.994 67.8327Z" fill="#3A82E2"/>
<path d="M194.655 66.9672C194.565 66.9362 194.565 66.9362 194.595 66.8434C194.565 66.8434 194.535 66.8125 194.535 66.8125H194.505C194.444 66.8125 194.414 66.8434 194.414 66.9053H194.384C194.444 66.9362 194.444 66.9981 194.475 67.0599C194.475 67.0909 194.475 67.1527 194.505 67.1837C194.535 67.1837 194.565 67.1837 194.595 67.1527C194.625 67.1527 194.685 67.1218 194.685 67.0909C194.655 67.0599 194.655 67.029 194.655 66.9672Z" fill="#3A82E2"/>
<path d="M194.805 65.7918C194.835 65.7918 194.805 65.7299 194.775 65.7299C194.745 65.7299 194.745 65.7299 194.715 65.7299C194.655 65.699 194.625 65.7299 194.595 65.7918C194.595 65.7918 194.595 65.7918 194.595 65.8227C194.625 65.8227 194.625 65.7918 194.655 65.7918C194.685 65.7918 194.715 65.7918 194.685 65.8227C194.685 65.8846 194.715 65.8846 194.745 65.8846C194.775 65.8536 194.745 65.7918 194.805 65.7918Z" fill="#3A82E2"/>
<path d="M193.933 66.9053C193.903 66.9981 193.903 67.0599 193.933 67.1527C193.993 67.1218 194.023 67.0909 194.083 67.0599C194.023 66.9981 193.993 66.9671 193.933 66.9053Z" fill="#3A82E2"/>
<path d="M194.204 67.2761C194.234 67.2451 194.234 67.2142 194.264 67.1833C194.264 67.1833 194.264 67.1833 194.234 67.1523C194.204 67.1523 194.174 67.1523 194.144 67.1523C194.114 67.1833 194.144 67.2451 194.083 67.2451V67.2761C194.144 67.2761 194.174 67.2761 194.204 67.2761Z" fill="#3A82E2"/>
<path d="M194.715 66.1621C194.745 66.1621 194.745 66.1003 194.745 66.0693C194.715 66.0693 194.685 66.0693 194.655 66.0693C194.655 66.0693 194.655 66.0693 194.655 66.1003C194.655 66.1003 194.655 66.1621 194.715 66.1621Z" fill="#3A82E2"/>
<path d="M194.114 67.4922C194.084 67.5231 194.084 67.5231 194.053 67.554C194.053 67.554 194.053 67.585 194.084 67.585C194.114 67.554 194.114 67.5231 194.114 67.4922Z" fill="#3A82E2"/>
<path d="M194.776 65.6367C194.806 65.6058 194.806 65.6058 194.806 65.5749V65.5439H194.776L194.745 65.5749C194.776 65.5749 194.776 65.6058 194.776 65.6367Z" fill="#3A82E2"/>
<path d="M194.625 65.2969V65.3278H194.655V65.2969C194.655 65.2969 194.655 65.2969 194.625 65.2969Z" fill="#3A82E2"/>
<path d="M194.746 66.8125C194.716 66.8125 194.685 66.8125 194.685 66.8125L194.716 66.8434C194.716 66.8434 194.746 66.8434 194.746 66.8125Z" fill="#3A82E2"/>
<path d="M194.505 67.2451C194.535 67.276 194.535 67.276 194.566 67.276V67.2451C194.535 67.2451 194.505 67.2451 194.505 67.2451Z" fill="#3A82E2"/>
<path d="M193.152 68.0186C193.121 68.0495 193.121 68.0804 193.091 68.0804C193.152 68.0804 193.152 68.0804 193.152 68.0186Z" fill="#3A82E2"/>
<path d="M193.963 66.2559L193.994 66.2868C193.994 66.2868 193.994 66.2868 193.994 66.2559C193.994 66.2559 193.994 66.2559 193.963 66.2559Z" fill="#3A82E2"/>
<path d="M194.354 67.6785L194.385 67.7094C194.385 67.6785 194.385 67.6785 194.354 67.6785C194.354 67.6475 194.354 67.6475 194.354 67.6785Z" fill="#3A82E2"/>
<path d="M193.993 67.431C193.993 67.4001 193.993 67.4001 194.024 67.3691C194.024 67.3691 194.024 67.3691 193.993 67.3691C193.993 67.4001 193.993 67.431 193.993 67.431Z" fill="#3A82E2"/>
<path d="M194.716 66.6882C194.716 66.6573 194.685 66.6573 194.716 66.6882C194.685 66.6882 194.685 66.6573 194.716 66.6882Z" fill="#3A82E2"/>
<path d="M194.716 65.9775C194.685 66.0085 194.685 66.0085 194.716 65.9775C194.716 66.0085 194.716 66.0085 194.716 65.9775Z" fill="#3A82E2"/>
<path d="M194.114 67.9874C194.053 67.8946 193.963 67.8327 193.963 67.74C193.963 67.709 193.933 67.709 193.933 67.6781C193.903 67.6472 193.843 67.6162 193.813 67.5853C193.783 67.5544 193.753 67.5234 193.723 67.5234C193.723 67.5853 193.723 67.5853 193.783 67.6162C193.783 67.6162 193.783 67.6162 193.813 67.6472C193.813 67.6472 193.813 67.6472 193.843 67.6472C193.873 67.6781 193.873 67.6781 193.873 67.709C193.843 67.8018 193.873 67.8327 193.963 67.8637C194.023 67.8946 194.053 67.9255 194.114 67.9565C194.114 67.9565 194.114 67.9874 194.114 68.0183C194.144 68.0183 194.174 68.0183 194.204 68.0183C194.114 68.0183 194.114 68.0183 194.114 67.9874Z" fill="#3A82E2"/>
<path d="M193.512 67.1521C193.482 67.1212 193.452 67.1212 193.422 67.1521C193.512 67.2449 193.632 67.3377 193.723 67.4305C193.723 67.4305 193.723 67.3996 193.692 67.3996C193.692 67.3996 193.692 67.3995 193.692 67.3686C193.753 67.4614 193.843 67.5233 193.963 67.5233C193.933 67.4923 193.933 67.4614 193.903 67.4305C193.843 67.3995 193.783 67.3686 193.723 67.3377L193.692 67.3068H193.723H193.753C193.783 67.2758 193.783 67.2758 193.813 67.2449C193.813 67.2449 193.783 67.214 193.783 67.183C193.783 67.183 193.783 67.183 193.753 67.1521C193.723 67.1212 193.692 67.1521 193.662 67.1521C193.632 67.183 193.632 67.214 193.632 67.2449C193.602 67.214 193.602 67.214 193.572 67.214C193.602 67.214 193.572 67.183 193.512 67.1521Z" fill="#3A82E2"/>
<path d="M193.843 67.5853C193.813 67.4925 193.572 67.3379 193.512 67.3379C193.542 67.4307 193.783 67.5853 193.843 67.5853Z" fill="#3A82E2"/>
<path d="M192.79 67.5234C192.821 67.5234 192.821 67.5544 192.851 67.5544C192.851 67.5544 192.851 67.5544 192.851 67.5234C192.851 67.5234 192.821 67.5234 192.79 67.5234Z" fill="#3A82E2"/>
<path d="M194.715 65.5749C194.775 65.4821 194.775 65.3894 194.805 65.3275C194.805 65.3275 194.775 65.2966 194.775 65.2656C194.745 65.3275 194.745 65.3893 194.715 65.4203C194.655 65.4821 194.655 65.4821 194.715 65.5749Z" fill="#3A82E2"/>
<path d="M195.016 65.7608C195.046 65.7299 195.046 65.6371 195.016 65.5752C194.986 65.6371 194.956 65.668 194.926 65.7298C194.926 65.7298 194.926 65.7608 194.956 65.7917C194.986 65.7608 195.016 65.7608 195.016 65.7608Z" fill="#3A82E2"/>
<path d="M194.505 66.0394C194.565 66.0085 194.595 65.9776 194.565 65.8848C194.535 65.9466 194.535 65.9776 194.505 66.0394Z" fill="#3A82E2"/>
<path d="M193.301 68.2354H193.271H193.362C193.332 68.2646 193.301 68.2354 193.301 68.2354Z" fill="#3A82E2"/>
<path d="M193.873 66.8122C193.903 66.8122 193.903 66.8122 193.903 66.7813C193.873 66.7813 193.873 66.7812 193.873 66.8122Z" fill="#3A82E2"/>
<path d="M194.776 66.75C194.745 66.7792 194.745 66.75 194.776 66.75Z" fill="#3A82E2"/>
<path d="M194.956 65.4824H194.926C194.866 65.6061 194.835 65.7299 194.835 65.8845C194.896 65.8845 194.926 65.8536 194.926 65.8227C194.926 65.7608 194.956 65.7299 194.956 65.668C194.956 65.6061 194.956 65.5443 194.956 65.4824Z" fill="#3A82E2"/>
<path d="M193.933 65.0805C193.933 65.1423 193.963 65.1423 193.993 65.1114C193.993 65.1114 193.993 65.1423 193.993 65.1732C194.083 65.1114 194.114 65.0186 194.053 64.9567C194.053 64.9567 194.023 64.9877 193.993 64.9877C193.993 64.9258 194.023 64.8949 194.023 64.833C193.993 64.8949 193.963 64.9567 193.963 64.9877C193.933 65.0186 193.933 65.0495 193.933 65.0805Z" fill="#3A82E2"/>
<path d="M194.896 66.2244C194.956 66.1625 194.956 66.1006 194.896 66.0079C194.926 65.946 194.926 65.8841 194.956 65.8223C194.926 65.8841 194.896 65.9769 194.866 66.0697C194.775 66.1625 194.866 66.1934 194.896 66.2244Z" fill="#3A82E2"/>
<path d="M194.083 65.6983C194.114 65.6673 194.114 65.6364 194.144 65.6055C194.114 65.6364 194.083 65.6673 194.083 65.6983Z" fill="#3A82E2"/>
<path d="M194.926 66.2861L194.896 66.3171C194.926 66.3171 194.926 66.3171 194.926 66.2861Z" fill="#3A82E2"/>
<path d="M194.414 66.3484C194.445 66.3484 194.445 66.3484 194.414 66.3484C194.445 66.3484 194.445 66.3175 194.414 66.3484C194.445 66.3175 194.414 66.3175 194.414 66.3484Z" fill="#3A82E2"/>
<path d="M194.866 65.1423C194.896 65.1423 194.896 65.1423 194.866 65.1423C194.927 65.1113 194.927 65.0495 194.927 65.0186C194.896 65.0495 194.896 65.0804 194.866 65.1423Z" fill="#3A82E2"/>
<path d="M195.828 64.431C195.768 64.4001 195.738 64.4001 195.678 64.3692C195.678 64.3382 195.678 64.3073 195.708 64.2764C195.708 64.3073 195.678 64.3382 195.678 64.3692C195.648 64.3692 195.618 64.3382 195.618 64.3382C195.648 64.3692 195.648 64.3692 195.678 64.4001C195.678 64.431 195.648 64.4929 195.648 64.5238C195.618 64.5857 195.708 64.6166 195.738 64.6475C195.798 64.5857 195.768 64.4929 195.738 64.431V64.4001C195.768 64.431 195.798 64.462 195.858 64.4929C195.798 64.5238 195.798 64.4929 195.828 64.431Z" fill="#3A82E2"/>
<path d="M195.317 64.3379C195.317 64.3998 195.287 64.4616 195.287 64.4925C195.348 64.4616 195.348 64.4307 195.317 64.3379Z" fill="#3A82E2"/>
<path d="M193.783 65.4818C193.844 65.389 193.844 65.389 193.813 65.3271C193.783 65.3581 193.783 65.4199 193.783 65.4818Z" fill="#3A82E2"/>
<path d="M194.114 65.1726C194.114 65.1416 194.114 65.1107 194.144 65.0488C194.114 65.0798 194.083 65.1107 194.114 65.1726Z" fill="#3A82E2"/>
<path d="M193.122 67.2145C193.091 67.2145 193.091 67.1836 193.061 67.1836V67.2145C193.091 67.2455 193.091 67.2455 193.122 67.2145Z" fill="#3A82E2"/>
<path d="M193.331 66.2861V66.3171H193.362C193.362 66.3171 193.362 66.3171 193.331 66.2861Z" fill="#3A82E2"/>
<path d="M193.211 67.1211C193.211 67.152 193.211 67.152 193.211 67.1211C193.211 67.152 193.242 67.152 193.242 67.152C193.242 67.152 193.242 67.1211 193.211 67.1211Z" fill="#3A82E2"/>
<path d="M194.234 65.0489C194.204 65.0489 194.204 65.0798 194.204 65.0798C194.234 65.0489 194.234 65.0489 194.234 65.0489Z" fill="#3A82E2"/>
<path d="M193.843 66.9053C193.813 66.8744 193.813 66.9053 193.813 66.9053C193.843 66.9053 193.843 66.9363 193.843 66.9053C193.874 66.9053 193.843 66.9363 193.843 66.9053Z" fill="#3A82E2"/>
<path d="M194.716 65.2969C194.716 65.2969 194.716 65.3278 194.685 65.3278C194.716 65.3278 194.746 65.3278 194.716 65.2969C194.746 65.2969 194.746 65.2969 194.716 65.2969Z" fill="#3A82E2"/>
<path d="M195.587 65.2351C195.617 65.2042 195.587 65.2042 195.587 65.2351C195.587 65.2042 195.587 65.2042 195.587 65.2351Z" fill="#3A82E2"/>
<path d="M194.474 64.833C194.566 64.8021 194.535 64.7093 194.535 64.6475C194.535 64.6475 194.535 64.6475 194.505 64.6475C194.505 64.7093 194.474 64.7712 194.474 64.833Z" fill="#3A82E2"/>
<path d="M195.738 64.7708C195.738 64.7399 195.738 64.7399 195.738 64.709C195.708 64.7399 195.708 64.7708 195.738 64.7708C195.708 64.7708 195.708 64.7708 195.738 64.7708Z" fill="#3A82E2"/>
<path d="M195.227 64.8328C195.256 64.8328 195.227 64.8018 195.227 64.8328C195.227 64.8018 195.227 64.8018 195.227 64.8328Z" fill="#3A82E2"/>
<path d="M196.761 62.2344C196.761 62.2344 196.791 62.1725 196.791 62.1416C196.761 62.1416 196.73 62.1416 196.7 62.1416C196.7 62.1416 196.7 62.1416 196.7 62.1725C196.7 62.1725 196.7 62.2344 196.761 62.2344Z" fill="#3A82E2"/>
<path d="M196.159 63.626C196.189 63.626 196.22 63.5951 196.22 63.5641C196.22 63.5641 196.22 63.5641 196.22 63.5332C196.189 63.5951 196.159 63.5951 196.159 63.626Z" fill="#3A82E2"/>
<path d="M196.821 62.8838C196.791 62.8838 196.76 62.8838 196.76 62.9147L196.791 62.9456C196.791 62.9147 196.821 62.8838 196.821 62.8838Z" fill="#3A82E2"/>
<path d="M196.58 63.3175C196.611 63.3484 196.611 63.3484 196.641 63.3484V63.3175C196.611 63.2865 196.58 63.3175 196.58 63.3175Z" fill="#3A82E2"/>
<path d="M195.378 64.4922C195.347 64.5231 195.347 64.5231 195.317 64.5541C195.347 64.5541 195.378 64.5231 195.378 64.4922Z" fill="#3A82E2"/>
<path d="M196.46 63.7501L196.49 63.781C196.49 63.7501 196.49 63.7501 196.46 63.7501Z" fill="#3A82E2"/>
<path d="M196.069 63.5335C196.069 63.5026 196.069 63.5026 196.099 63.4717C196.099 63.4717 196.099 63.4717 196.069 63.4717C196.069 63.5026 196.069 63.5026 196.069 63.5335Z" fill="#3A82E2"/>
<path d="M196.791 62.7295C196.76 62.7295 196.76 62.7295 196.791 62.7295C196.76 62.7604 196.76 62.7295 196.791 62.7295C196.76 62.7604 196.76 62.7604 196.791 62.7295Z" fill="#3A82E2"/>
<path d="M196.761 62.0795C196.7 62.0176 196.67 61.9557 196.61 61.9248C196.58 62.0176 196.58 62.0795 196.61 62.1723C196.67 62.1104 196.7 62.1104 196.761 62.0795Z" fill="#3A82E2"/>
<path d="M196.731 62.791C196.7 62.8219 196.7 62.791 196.731 62.791C196.731 62.8219 196.7 62.8219 196.731 62.791Z" fill="#3A82E2"/>
<path d="M194.234 65.3584C194.265 65.3876 194.265 65.3584 194.234 65.3584Z" fill="#3A82E2"/>
<path d="M195.979 63.4714C195.979 63.4714 195.948 63.4714 195.948 63.4404C195.979 63.4404 195.979 63.4714 195.979 63.4714Z" fill="#3A82E2"/>
<path d="M197.332 62.1417C197.362 62.1107 197.332 62.0489 197.332 62.0179C197.242 61.987 197.242 61.987 197.272 61.8942C197.242 61.8942 197.212 61.8633 197.212 61.8633H197.182C197.121 61.8633 197.091 61.8942 197.091 61.9561H197.061C197.121 61.987 197.121 62.0489 197.152 62.1107C197.152 62.1417 197.152 62.2035 197.152 62.2344C197.182 62.2344 197.212 62.2344 197.242 62.2344C197.272 62.1726 197.302 62.1726 197.332 62.1417Z" fill="#3A82E2"/>
<path d="M196.881 62.2966C196.911 62.2966 196.941 62.2347 196.941 62.2038C196.941 62.2038 196.941 62.2038 196.911 62.1729C196.881 62.1729 196.851 62.1729 196.821 62.1729C196.791 62.1729 196.821 62.2656 196.76 62.2656V62.2966C196.821 62.2966 196.851 62.2966 196.881 62.2966Z" fill="#3A82E2"/>
<path d="M196.58 61.43C196.61 61.3991 196.64 61.3682 196.67 61.3373C196.64 61.3063 196.64 61.3063 196.61 61.2754C196.61 61.3373 196.58 61.3682 196.58 61.43Z" fill="#3A82E2"/>
<path d="M196.73 62.5742C196.761 62.5742 196.791 62.5433 196.791 62.5124C196.791 62.5124 196.791 62.5124 196.791 62.4814C196.761 62.5124 196.73 62.5124 196.73 62.5742Z" fill="#3A82E2"/>
<path d="M197.423 60.3786H197.453V60.3477C197.423 60.3477 197.423 60.3477 197.392 60.3477C197.392 60.3477 197.392 60.3786 197.423 60.3786Z" fill="#3A82E2"/>
<path d="M197.453 61.8634C197.423 61.8634 197.392 61.8634 197.392 61.8634L197.423 61.8943L197.453 61.8634Z" fill="#3A82E2"/>
<path d="M197.182 62.2966C197.212 62.2966 197.212 62.2966 197.243 62.2966V62.2656C197.212 62.2656 197.182 62.2656 197.182 62.2966Z" fill="#3A82E2"/>
<path d="M195.799 63.0078C195.768 63.0387 195.738 63.0387 195.738 63.0697C195.799 63.0697 195.799 63.0697 195.799 63.0078Z" fill="#3A82E2"/>
<path d="M197.031 62.698L197.062 62.7289C197.062 62.698 197.062 62.698 197.031 62.698C197.031 62.6671 197.031 62.6671 197.031 62.698Z" fill="#3A82E2"/>
<path d="M196.701 62.3887C196.67 62.3887 196.67 62.4196 196.67 62.4196C196.67 62.4196 196.67 62.4196 196.701 62.4196C196.67 62.4196 196.701 62.4196 196.701 62.3887Z" fill="#3A82E2"/>
<path d="M197.392 61.709C197.423 61.7382 197.423 61.709 197.423 61.709C197.423 61.709 197.392 61.709 197.392 61.709Z" fill="#3A82E2"/>
<path d="M195.979 63.3789C195.948 63.3789 195.948 63.3789 195.979 63.3789C195.979 63.4098 195.948 63.4098 195.979 63.3789Z" fill="#3A82E2"/>
<path d="M195.889 60.1003C195.858 60.0694 195.858 60.0694 195.889 60.1003C195.858 60.1003 195.858 60.1003 195.889 60.1003Z" fill="#3A82E2"/>
<path d="M195.347 62.3894C195.377 62.3894 195.377 62.3894 195.408 62.3894C195.377 62.3585 195.377 62.3585 195.347 62.3894Z" fill="#3A82E2"/>
<path d="M196.55 62.3584L196.58 62.3893C196.58 62.3584 196.58 62.3584 196.55 62.3584Z" fill="#3A82E2"/>
<path d="M197.783 59.9144C197.753 59.8835 197.753 59.8525 197.723 59.8525C197.663 59.9144 197.663 59.9763 197.723 60.0691C197.723 60.0072 197.753 59.9763 197.783 59.9144Z" fill="#3A82E2"/>
<path d="M197.753 60.1309C197.693 60.1618 197.693 60.2236 197.663 60.2546C197.663 60.2546 197.663 60.2855 197.663 60.3164C197.693 60.3164 197.723 60.3164 197.723 60.2855C197.753 60.2237 197.783 60.1927 197.753 60.1309Z" fill="#3A82E2"/>
<path d="M197.634 60.2236C197.603 60.2546 197.573 60.2855 197.573 60.3474C197.634 60.3164 197.634 60.2546 197.634 60.2236Z" fill="#3A82E2"/>
<path d="M195.889 63.1315H195.919C195.919 63.1006 195.919 63.1006 195.889 63.1006H195.858C195.889 63.1006 195.889 63.1006 195.889 63.1315Z" fill="#3A82E2"/>
<path d="M197.754 60.4095C197.754 60.3786 197.754 60.3786 197.754 60.3477C197.754 60.3477 197.754 60.3477 197.723 60.3477C197.754 60.3786 197.754 60.4095 197.754 60.4095Z" fill="#3A82E2"/>
<path d="M197.663 60.1621C197.663 60.193 197.633 60.193 197.633 60.224C197.663 60.193 197.694 60.193 197.663 60.1621Z" fill="#3A82E2"/>
<path d="M195.948 61.6162C195.918 61.6781 195.888 61.7399 195.918 61.8018C195.978 61.709 196.009 61.6781 195.948 61.6162Z" fill="#3A82E2"/>
<path d="M197.482 59.3582C197.422 59.3273 197.392 59.3273 197.362 59.3891C197.362 59.3891 197.362 59.3891 197.392 59.3891C197.392 59.451 197.422 59.5129 197.452 59.5438C197.482 59.451 197.452 59.3891 197.422 59.3582C197.422 59.3891 197.452 59.3891 197.482 59.3582Z" fill="#3A82E2"/>
<path d="M197.513 61.5231C197.513 61.5231 197.513 61.4922 197.543 61.4922C197.513 61.4922 197.482 61.5231 197.513 61.5231C197.482 61.5231 197.482 61.5231 197.513 61.5231Z" fill="#3A82E2"/>
<path d="M197.723 61.0278C197.663 61.0587 197.693 61.0896 197.723 61.1206C197.753 61.1206 197.783 61.0587 197.843 61.0896C197.873 61.0896 197.873 61.0587 197.843 61.0278L197.813 60.9968C197.783 60.935 197.753 60.9041 197.693 60.935C197.693 60.935 197.693 60.935 197.693 60.9659C197.723 60.9659 197.723 60.9659 197.753 60.9968C197.753 60.9968 197.783 60.9968 197.723 61.0278Z" fill="#3A82E2"/>
<path d="M197.512 61.1514C197.512 61.1205 197.543 61.0895 197.543 61.0586C197.512 61.1205 197.452 61.2132 197.422 61.2751C197.392 61.337 197.452 61.3679 197.482 61.4298C197.543 61.3679 197.543 61.306 197.512 61.2442C197.543 61.2442 197.543 61.2442 197.573 61.2132C197.543 61.1823 197.543 61.1514 197.512 61.1514Z" fill="#3A82E2"/>
<path d="M195.738 60.069C195.769 60.0072 195.769 59.9762 195.708 59.9453C195.678 60.0072 195.678 60.0381 195.738 60.069Z" fill="#3A82E2"/>
<path d="M197.934 60.9665C197.964 60.9665 197.964 60.9665 197.994 60.9665H198.024V60.9355H197.994C197.964 60.9355 197.934 60.9665 197.934 60.9665Z" fill="#3A82E2"/>
<path d="M198.054 60.6882C198.084 60.7192 198.084 60.6882 198.115 60.6882C198.084 60.6573 198.084 60.6573 198.054 60.6882Z" fill="#3A82E2"/>
<path d="M197.844 59.3275C197.844 59.2966 197.844 59.2656 197.844 59.2656C197.844 59.2656 197.844 59.2656 197.813 59.2656C197.813 59.2656 197.813 59.2966 197.844 59.3275Z" fill="#3A82E2"/>
<path d="M197.032 59.6058C197.032 59.5749 197.032 59.5749 197.032 59.5439H197.001C197.001 59.5749 197.001 59.5749 197.032 59.6058C197.001 59.6058 197.001 59.6058 197.032 59.6058Z" fill="#3A82E2"/>
<path d="M195.648 59.9144C195.648 59.8835 195.648 59.8835 195.648 59.8525C195.648 59.8525 195.648 59.8525 195.618 59.8525C195.618 59.8835 195.618 59.9144 195.648 59.9144Z" fill="#3A82E2"/>
<path d="M195.828 60.2546C195.828 60.2237 195.798 60.2237 195.828 60.2546C195.798 60.2237 195.798 60.2546 195.798 60.2546C195.798 60.2546 195.798 60.2546 195.828 60.2546C195.798 60.2546 195.798 60.2546 195.828 60.2546Z" fill="#3A82E2"/>
<path d="M195.648 60.0075L195.618 59.9766C195.618 59.9766 195.618 60.0075 195.648 60.0075Z" fill="#3A82E2"/>
<path d="M197.573 61.1517C197.603 61.1517 197.603 61.1517 197.573 61.1517C197.603 61.1517 197.603 61.1224 197.573 61.1517Z" fill="#3A82E2"/>
<path d="M197.904 60.6263C197.904 60.5954 197.904 60.5954 197.904 60.5645C197.873 60.5954 197.873 60.5954 197.904 60.6263Z" fill="#3A82E2"/>
<path d="M197.904 59.3581L197.934 59.3271C197.904 59.3271 197.904 59.3581 197.904 59.3581Z" fill="#3A82E2"/>
<path d="M197.603 59.5439C197.603 59.5749 197.603 59.5749 197.603 59.5439C197.632 59.5439 197.603 59.5749 197.603 59.5439Z" fill="#3A82E2"/>
<path d="M197.272 59.4814C197.272 59.5742 197.272 59.6361 197.272 59.7289C197.363 59.6361 197.363 59.5433 197.272 59.4814Z" fill="#3A82E2"/>
<path d="M197.242 59.8838C197.272 59.8838 197.272 59.8838 197.242 59.8838C197.272 59.822 197.272 59.7601 197.272 59.6982C197.211 59.7601 197.242 59.822 197.242 59.8838Z" fill="#3A82E2"/>
<path d="M197.814 59.0791C197.814 59.11 197.783 59.11 197.783 59.141C197.783 59.141 197.783 59.141 197.814 59.141C197.814 59.141 197.844 59.11 197.814 59.0791Z" fill="#3A82E2"/>
<path d="M196.791 60.6882C196.76 60.6572 196.76 60.6572 196.76 60.6572C196.76 60.6882 196.76 60.6882 196.791 60.6882Z" fill="#3A82E2"/>
<path d="M197.874 59.2344C197.904 59.2035 197.874 59.2035 197.874 59.2344C197.874 59.1726 197.874 59.1107 197.874 59.0488H197.843C197.874 59.1107 197.874 59.1726 197.874 59.2344C197.874 59.2035 197.874 59.2035 197.874 59.2344C197.843 59.2344 197.843 59.2344 197.843 59.2653C197.843 59.2344 197.874 59.2653 197.874 59.2344Z" fill="#3A82E2"/>
<path d="M197.031 59.389C197.091 59.3581 197.121 59.2962 197.152 59.2344C197.061 59.2653 197.061 59.3272 197.031 59.389Z" fill="#3A82E2"/>
<path d="M200.009 57.1622C200.039 57.1312 200.009 57.0694 200.039 57.0384C199.949 57.0075 199.949 57.0075 199.979 56.9147C199.949 56.9147 199.919 56.8838 199.919 56.8838H199.889C199.829 56.8838 199.799 56.8838 199.799 56.9766H199.768C199.829 57.0075 199.829 57.0694 199.829 57.1312C199.829 57.1622 199.829 57.224 199.829 57.255C199.859 57.255 199.889 57.255 199.919 57.255C199.949 57.1931 200.009 57.1931 200.009 57.1622Z" fill="#3A82E2"/>
<path d="M200.19 56.1413C200.16 56.1413 200.129 56.1413 200.099 56.1104C200.099 56.1104 200.099 56.1104 200.069 56.1413C200.099 56.1722 200.069 56.2341 200.129 56.2341C200.19 56.2341 200.19 56.1722 200.19 56.1413Z" fill="#3A82E2"/>
<path d="M199.408 57.5635C199.438 57.5635 199.468 57.5326 199.468 57.5016C199.468 57.5016 199.468 57.5016 199.468 57.4707C199.438 57.5016 199.408 57.5326 199.408 57.5635Z" fill="#3A82E2"/>
<path d="M200.13 56.9144L200.16 56.8835C200.16 56.8835 200.16 56.8525 200.13 56.8525C200.13 56.8835 200.099 56.8835 200.13 56.9144Z" fill="#3A82E2"/>
<path d="M199.859 57.3161C199.889 57.3161 199.889 57.3161 199.92 57.3161V57.2852C199.889 57.2852 199.889 57.2852 199.859 57.3161Z" fill="#3A82E2"/>
<path d="M199.408 56.2646L199.438 56.2956C199.438 56.2956 199.438 56.2956 199.468 56.2646C199.468 56.2646 199.438 56.2646 199.408 56.2646Z" fill="#3A82E2"/>
<path d="M199.708 57.6875L199.739 57.7184C199.739 57.7184 199.739 57.6875 199.708 57.6875Z" fill="#3A82E2"/>
<path d="M200.13 56.7285H200.099V56.7594C200.099 56.7594 200.13 56.7594 200.13 56.7285Z" fill="#3A82E2"/>
<path d="M200.069 56.791C200.069 56.8219 200.04 56.8219 200.069 56.791Z" fill="#3A82E2"/>
<path d="M199.919 56.8213C199.95 56.8522 199.95 56.8522 199.919 56.8213Z" fill="#3A82E2"/>
<path d="M197.332 59.0488C197.332 59.0798 197.332 59.0798 197.332 59.0488C197.361 59.0798 197.332 59.0798 197.332 59.0488Z" fill="#3A82E2"/>
<path d="M199.258 57.3787C199.258 57.3477 199.258 57.3477 199.258 57.3787C199.227 57.3477 199.227 57.3477 199.258 57.3787Z" fill="#3A82E2"/>
<path d="M200.46 56.4192C200.49 56.3883 200.49 56.3264 200.49 56.2955C200.4 56.2646 200.4 56.2646 200.46 56.1408C200.43 56.1099 200.43 56.1099 200.4 56.1099C200.4 56.1099 200.37 56.1099 200.37 56.079C200.31 56.0481 200.28 56.079 200.28 56.1718H200.25C200.31 56.2336 200.31 56.2646 200.31 56.3264C200.31 56.3574 200.31 56.4192 200.31 56.4502C200.34 56.4502 200.37 56.4502 200.4 56.4502C200.37 56.4502 200.43 56.4502 200.46 56.4192Z" fill="#3A82E2"/>
<path d="M200.611 56.2024C200.581 56.1732 200.581 56.2024 200.581 56.2024C200.581 56.2024 200.581 56.2024 200.611 56.2024Z" fill="#3A82E2"/>
<path d="M200.341 56.5739V56.543C200.31 56.543 200.31 56.543 200.28 56.543V56.5739C200.28 56.543 200.31 56.5739 200.341 56.5739Z" fill="#3A82E2"/>
<path d="M200.1 56.945L200.07 56.9141C200.07 56.9141 200.07 56.9141 200.039 56.9141C200.07 56.9141 200.07 56.945 200.1 56.945Z" fill="#3A82E2"/>
<path d="M198.686 57.2236C198.716 57.2546 198.716 57.2546 198.716 57.2546C198.716 57.2236 198.716 57.2236 198.686 57.2236Z" fill="#3A82E2"/>
<path d="M190.535 59.3582C190.535 59.3272 190.535 59.3272 190.535 59.3582C190.504 59.3272 190.504 59.3272 190.535 59.3582Z" fill="#3A82E2"/>
<path d="M199.558 56.0176C199.528 56.0176 199.528 56.0485 199.498 56.0485C199.498 56.0485 199.498 56.0485 199.498 56.0794C199.528 56.0794 199.558 56.0485 199.558 56.0176C199.588 56.0176 199.588 56.0176 199.558 56.0176Z" fill="#3A82E2"/>
</g>
<defs>
<clipPath id="clip0_1427_3180">
<rect width="49.7512" height="45.1898" fill="white" transform="translate(185 23.0762)"/>
</clipPath>
</defs>
</svg>
