<svg width="300" height="90" viewBox="0 0 300 90" fill="none" xmlns="http://www.w3.org/2000/svg">
<rect width="300" height="90" rx="8" fill="#F3F5F7"/>
<path d="M29.456 35L26.192 26.528H28.208L30.692 33.38H29.864L32.384 26.528H34.376L31.076 35H29.456ZM36.7568 35.132C36.1568 35.132 35.6128 35 35.1248 34.736C34.6448 34.464 34.2648 34.096 33.9848 33.632C33.7048 33.168 33.5648 32.648 33.5648 32.072C33.5648 31.496 33.7048 30.98 33.9848 30.524C34.2648 30.068 34.6448 29.708 35.1248 29.444C35.6048 29.172 36.1488 29.036 36.7568 29.036C37.3648 29.036 37.9088 29.168 38.3888 29.432C38.8688 29.696 39.2488 30.06 39.5288 30.524C39.8088 30.98 39.9488 31.496 39.9488 32.072C39.9488 32.648 39.8088 33.168 39.5288 33.632C39.2488 34.096 38.8688 34.464 38.3888 34.736C37.9088 35 37.3648 35.132 36.7568 35.132ZM36.7568 33.464C37.0208 33.464 37.2528 33.408 37.4528 33.296C37.6528 33.176 37.8048 33.012 37.9088 32.804C38.0208 32.588 38.0768 32.344 38.0768 32.072C38.0768 31.8 38.0208 31.564 37.9088 31.364C37.7968 31.156 37.6408 30.996 37.4408 30.884C37.2488 30.764 37.0208 30.704 36.7568 30.704C36.5008 30.704 36.2728 30.764 36.0728 30.884C35.8728 30.996 35.7168 31.156 35.6048 31.364C35.4928 31.572 35.4368 31.812 35.4368 32.084C35.4368 32.348 35.4928 32.588 35.6048 32.804C35.7168 33.012 35.8728 33.176 36.0728 33.296C36.2728 33.408 36.5008 33.464 36.7568 33.464ZM43.6828 35.132C43.0828 35.132 42.5388 35 42.0508 34.736C41.5628 34.472 41.1788 34.108 40.8988 33.644C40.6188 33.18 40.4788 32.66 40.4788 32.084C40.4788 31.5 40.6188 30.98 40.8988 30.524C41.1868 30.06 41.5748 29.696 42.0628 29.432C42.5508 29.168 43.0988 29.036 43.7068 29.036C44.1628 29.036 44.5788 29.116 44.9548 29.276C45.3388 29.428 45.6788 29.66 45.9748 29.972L44.7988 31.148C44.6628 30.996 44.5028 30.884 44.3188 30.812C44.1428 30.74 43.9388 30.704 43.7068 30.704C43.4428 30.704 43.2068 30.764 42.9988 30.884C42.7988 30.996 42.6388 31.156 42.5188 31.364C42.4068 31.564 42.3508 31.8 42.3508 32.072C42.3508 32.344 42.4068 32.584 42.5188 32.792C42.6388 33 42.8028 33.164 43.0108 33.284C43.2188 33.404 43.4508 33.464 43.7068 33.464C43.9468 33.464 44.1588 33.424 44.3428 33.344C44.5348 33.256 44.6988 33.136 44.8348 32.984L45.9988 34.16C45.6948 34.48 45.3508 34.724 44.9668 34.892C44.5828 35.052 44.1548 35.132 43.6828 35.132ZM49.5553 35.132C48.9233 35.132 48.3593 35.004 47.8633 34.748C47.3753 34.484 46.9913 34.12 46.7113 33.656C46.4313 33.192 46.2913 32.668 46.2913 32.084C46.2913 31.5 46.4273 30.98 46.6993 30.524C46.9793 30.06 47.3553 29.696 47.8273 29.432C48.2993 29.168 48.8313 29.036 49.4233 29.036C49.9993 29.036 50.5073 29.16 50.9473 29.408C51.3873 29.656 51.7313 30 51.9793 30.44C52.2353 30.88 52.3633 31.384 52.3633 31.952C52.3633 32.056 52.3553 32.168 52.3393 32.288C52.3313 32.4 52.3113 32.532 52.2793 32.684L47.2513 32.696V31.436L51.4993 31.424L50.7073 31.952C50.6993 31.616 50.6473 31.34 50.5513 31.124C50.4553 30.9 50.3113 30.732 50.1193 30.62C49.9353 30.5 49.7073 30.44 49.4353 30.44C49.1473 30.44 48.8953 30.508 48.6793 30.644C48.4713 30.772 48.3073 30.956 48.1873 31.196C48.0753 31.436 48.0193 31.728 48.0193 32.072C48.0193 32.416 48.0793 32.712 48.1993 32.96C48.3273 33.2 48.5033 33.388 48.7273 33.524C48.9593 33.652 49.2313 33.716 49.5433 33.716C49.8313 33.716 50.0913 33.668 50.3233 33.572C50.5553 33.468 50.7593 33.316 50.9353 33.116L51.9433 34.124C51.6553 34.46 51.3073 34.712 50.8993 34.88C50.4913 35.048 50.0433 35.132 49.5553 35.132ZM47.7433 28.556L47.1433 27.764L48.8953 26.024H49.9513L51.7033 27.764L51.1033 28.556L48.7393 27.092H50.1313L47.7433 28.556ZM59.3867 35V31.676C59.3867 31.372 59.2907 31.128 59.0987 30.944C58.9147 30.752 58.6787 30.656 58.3907 30.656C58.1907 30.656 58.0147 30.7 57.8627 30.788C57.7107 30.868 57.5907 30.988 57.5027 31.148C57.4147 31.3 57.3707 31.476 57.3707 31.676L56.6627 31.328C56.6627 30.872 56.7627 30.472 56.9627 30.128C57.1627 29.784 57.4387 29.52 57.7907 29.336C58.1507 29.144 58.5547 29.048 59.0027 29.048C59.4347 29.048 59.8147 29.152 60.1427 29.36C60.4787 29.56 60.7427 29.828 60.9347 30.164C61.1267 30.5 61.2227 30.868 61.2227 31.268V35H59.3867ZM55.5347 35V29.168H57.3707V35H55.5347ZM64.8379 35.12C64.3019 35.12 63.8219 34.988 63.3979 34.724C62.9819 34.46 62.6499 34.1 62.4019 33.644C62.1619 33.188 62.0419 32.668 62.0419 32.084C62.0419 31.5 62.1619 30.98 62.4019 30.524C62.6499 30.068 62.9819 29.708 63.3979 29.444C63.8219 29.18 64.3019 29.048 64.8379 29.048C65.2299 29.048 65.5819 29.124 65.8939 29.276C66.2139 29.428 66.4739 29.64 66.6739 29.912C66.8739 30.176 66.9859 30.48 67.0099 30.824V33.344C66.9859 33.688 66.8739 33.996 66.6739 34.268C66.4819 34.532 66.2259 34.74 65.9059 34.892C65.5859 35.044 65.2299 35.12 64.8379 35.12ZM65.2099 33.464C65.6019 33.464 65.9179 33.336 66.1579 33.08C66.3979 32.816 66.5179 32.484 66.5179 32.084C66.5179 31.812 66.4619 31.572 66.3499 31.364C66.2459 31.156 66.0939 30.996 65.8939 30.884C65.7019 30.764 65.4779 30.704 65.2219 30.704C64.9659 30.704 64.7379 30.764 64.5379 30.884C64.3459 30.996 64.1899 31.156 64.0699 31.364C63.9579 31.572 63.9019 31.812 63.9019 32.084C63.9019 32.348 63.9579 32.584 64.0699 32.792C64.1819 33 64.3379 33.164 64.5379 33.284C64.7379 33.404 64.9619 33.464 65.2099 33.464ZM66.4459 35V33.428L66.7219 32.012L66.4459 30.596V29.168H68.2459V35H66.4459ZM66.0859 28.496C65.8299 28.496 65.6059 28.452 65.4139 28.364C65.2299 28.276 65.0579 28.188 64.8979 28.1C64.7459 28.012 64.5779 27.968 64.3939 27.968C64.2099 27.968 64.0539 28.008 63.9259 28.088C63.7979 28.16 63.6779 28.272 63.5659 28.424L62.6899 27.56C62.9219 27.216 63.1659 26.96 63.4219 26.792C63.6859 26.624 63.9899 26.54 64.3339 26.54C64.5899 26.54 64.8099 26.584 64.9939 26.672C65.1859 26.76 65.3619 26.852 65.5219 26.948C65.6819 27.036 65.8499 27.08 66.0259 27.08C66.2179 27.08 66.3779 27.044 66.5059 26.972C66.6339 26.892 66.7499 26.772 66.8539 26.612L67.7299 27.488C67.4979 27.824 67.2499 28.076 66.9859 28.244C66.7299 28.412 66.4299 28.496 66.0859 28.496ZM72.3466 35.132C71.7466 35.132 71.2026 35 70.7146 34.736C70.2346 34.464 69.8546 34.096 69.5746 33.632C69.2946 33.168 69.1546 32.648 69.1546 32.072C69.1546 31.496 69.2946 30.98 69.5746 30.524C69.8546 30.068 70.2346 29.708 70.7146 29.444C71.1946 29.172 71.7386 29.036 72.3466 29.036C72.9546 29.036 73.4986 29.168 73.9786 29.432C74.4586 29.696 74.8386 30.06 75.1186 30.524C75.3986 30.98 75.5386 31.496 75.5386 32.072C75.5386 32.648 75.3986 33.168 75.1186 33.632C74.8386 34.096 74.4586 34.464 73.9786 34.736C73.4986 35 72.9546 35.132 72.3466 35.132ZM72.3466 33.464C72.6106 33.464 72.8426 33.408 73.0426 33.296C73.2426 33.176 73.3946 33.012 73.4986 32.804C73.6106 32.588 73.6666 32.344 73.6666 32.072C73.6666 31.8 73.6106 31.564 73.4986 31.364C73.3866 31.156 73.2306 30.996 73.0306 30.884C72.8386 30.764 72.6106 30.704 72.3466 30.704C72.0906 30.704 71.8626 30.764 71.6626 30.884C71.4626 30.996 71.3066 31.156 71.1946 31.364C71.0826 31.572 71.0266 31.812 71.0266 32.084C71.0266 32.348 71.0826 32.588 71.1946 32.804C71.3066 33.012 71.4626 33.176 71.6626 33.296C71.8626 33.408 72.0906 33.464 72.3466 33.464ZM79.5658 35V26.756H81.4018V35H79.5658ZM78.2458 30.728V29.168H82.7218V30.728H78.2458ZM86.2936 35.132C85.6616 35.132 85.0976 35.004 84.6016 34.748C84.1136 34.484 83.7296 34.12 83.4496 33.656C83.1696 33.192 83.0296 32.668 83.0296 32.084C83.0296 31.5 83.1656 30.98 83.4376 30.524C83.7176 30.06 84.0936 29.696 84.5656 29.432C85.0376 29.168 85.5696 29.036 86.1616 29.036C86.7376 29.036 87.2456 29.16 87.6856 29.408C88.1256 29.656 88.4696 30 88.7176 30.44C88.9736 30.88 89.1016 31.384 89.1016 31.952C89.1016 32.056 89.0936 32.168 89.0776 32.288C89.0696 32.4 89.0496 32.532 89.0176 32.684L83.9896 32.696V31.436L88.2376 31.424L87.4456 31.952C87.4376 31.616 87.3856 31.34 87.2896 31.124C87.1936 30.9 87.0496 30.732 86.8576 30.62C86.6736 30.5 86.4456 30.44 86.1736 30.44C85.8856 30.44 85.6336 30.508 85.4176 30.644C85.2096 30.772 85.0456 30.956 84.9256 31.196C84.8136 31.436 84.7576 31.728 84.7576 32.072C84.7576 32.416 84.8176 32.712 84.9376 32.96C85.0656 33.2 85.2416 33.388 85.4656 33.524C85.6976 33.652 85.9696 33.716 86.2816 33.716C86.5696 33.716 86.8296 33.668 87.0616 33.572C87.2936 33.468 87.4976 33.316 87.6736 33.116L88.6816 34.124C88.3936 34.46 88.0456 34.712 87.6376 34.88C87.2296 35.048 86.7816 35.132 86.2936 35.132ZM89.9878 35V29.168H91.8238V35H89.9878ZM93.7198 35V31.592C93.7198 31.296 93.6278 31.068 93.4438 30.908C93.2678 30.74 93.0478 30.656 92.7838 30.656C92.5998 30.656 92.4358 30.696 92.2918 30.776C92.1478 30.848 92.0318 30.952 91.9438 31.088C91.8638 31.224 91.8238 31.392 91.8238 31.592L91.1158 31.28C91.1158 30.816 91.2158 30.42 91.4158 30.092C91.6158 29.756 91.8878 29.5 92.2318 29.324C92.5758 29.14 92.9638 29.048 93.3958 29.048C93.8038 29.048 94.1678 29.14 94.4878 29.324C94.8158 29.508 95.0758 29.764 95.2678 30.092C95.4598 30.42 95.5558 30.812 95.5558 31.268V35H93.7198ZM97.4518 35V31.592C97.4518 31.296 97.3598 31.068 97.1758 30.908C96.9998 30.74 96.7798 30.656 96.5158 30.656C96.3318 30.656 96.1678 30.696 96.0238 30.776C95.8798 30.848 95.7638 30.952 95.6758 31.088C95.5958 31.224 95.5558 31.392 95.5558 31.592L94.4998 31.448C94.5158 30.952 94.6318 30.528 94.8478 30.176C95.0718 29.816 95.3638 29.54 95.7238 29.348C96.0918 29.148 96.5038 29.048 96.9598 29.048C97.4078 29.048 97.8038 29.144 98.1478 29.336C98.4998 29.52 98.7758 29.788 98.9758 30.14C99.1838 30.484 99.2878 30.9 99.2878 31.388V35H97.4518ZM29.132 49.12C28.58 49.12 28.088 48.988 27.656 48.724C27.232 48.46 26.896 48.1 26.648 47.644C26.408 47.188 26.288 46.668 26.288 46.084C26.288 45.5 26.408 44.98 26.648 44.524C26.896 44.068 27.232 43.708 27.656 43.444C28.088 43.18 28.58 43.048 29.132 43.048C29.532 43.048 29.892 43.124 30.212 43.276C30.54 43.428 30.808 43.64 31.016 43.912C31.232 44.176 31.352 44.48 31.376 44.824V47.284C31.352 47.628 31.236 47.94 31.028 48.22C30.82 48.492 30.552 48.712 30.224 48.88C29.896 49.04 29.532 49.12 29.132 49.12ZM29.456 47.464C29.72 47.464 29.948 47.408 30.14 47.296C30.332 47.176 30.484 47.012 30.596 46.804C30.708 46.596 30.764 46.356 30.764 46.084C30.764 45.812 30.708 45.576 30.596 45.376C30.492 45.168 30.34 45.004 30.14 44.884C29.948 44.764 29.724 44.704 29.468 44.704C29.212 44.704 28.984 44.764 28.784 44.884C28.592 45.004 28.436 45.168 28.316 45.376C28.204 45.584 28.148 45.82 28.148 46.084C28.148 46.348 28.204 46.584 28.316 46.792C28.428 47 28.584 47.164 28.784 47.284C28.984 47.404 29.208 47.464 29.456 47.464ZM32.492 49H30.692V47.428L30.968 46.012L30.656 44.596V40.288H32.492V49ZM36.6647 49.132C36.0327 49.132 35.4687 49.004 34.9727 48.748C34.4847 48.484 34.1007 48.12 33.8207 47.656C33.5407 47.192 33.4007 46.668 33.4007 46.084C33.4007 45.5 33.5367 44.98 33.8087 44.524C34.0887 44.06 34.4647 43.696 34.9367 43.432C35.4087 43.168 35.9407 43.036 36.5327 43.036C37.1087 43.036 37.6167 43.16 38.0567 43.408C38.4967 43.656 38.8407 44 39.0887 44.44C39.3447 44.88 39.4727 45.384 39.4727 45.952C39.4727 46.056 39.4647 46.168 39.4487 46.288C39.4407 46.4 39.4207 46.532 39.3887 46.684L34.3607 46.696V45.436L38.6087 45.424L37.8167 45.952C37.8087 45.616 37.7567 45.34 37.6607 45.124C37.5647 44.9 37.4207 44.732 37.2287 44.62C37.0447 44.5 36.8167 44.44 36.5447 44.44C36.2567 44.44 36.0047 44.508 35.7887 44.644C35.5807 44.772 35.4167 44.956 35.2967 45.196C35.1847 45.436 35.1287 45.728 35.1287 46.072C35.1287 46.416 35.1887 46.712 35.3087 46.96C35.4367 47.2 35.6127 47.388 35.8367 47.524C36.0687 47.652 36.3407 47.716 36.6527 47.716C36.9407 47.716 37.2007 47.668 37.4327 47.572C37.6647 47.468 37.8687 47.316 38.0447 47.116L39.0527 48.124C38.7647 48.46 38.4167 48.712 38.0087 48.88C37.6007 49.048 37.1527 49.132 36.6647 49.132ZM43.7189 49.12C43.3269 49.12 42.9669 49.044 42.6389 48.892C42.3109 48.74 42.0429 48.532 41.8349 48.268C41.6269 47.996 41.5069 47.688 41.4749 47.344V44.884C41.5069 44.54 41.6269 44.228 41.8349 43.948C42.0429 43.668 42.3109 43.448 42.6389 43.288C42.9669 43.128 43.3269 43.048 43.7189 43.048C44.2709 43.048 44.7589 43.18 45.1829 43.444C45.6149 43.708 45.9509 44.068 46.1909 44.524C46.4389 44.98 46.5629 45.5 46.5629 46.084C46.5629 46.668 46.4389 47.188 46.1909 47.644C45.9509 48.1 45.6149 48.46 45.1829 48.724C44.7589 48.988 44.2709 49.12 43.7189 49.12ZM43.3829 47.464C43.6469 47.464 43.8749 47.404 44.0669 47.284C44.2669 47.164 44.4229 47 44.5349 46.792C44.6469 46.584 44.7029 46.348 44.7029 46.084C44.7029 45.812 44.6469 45.572 44.5349 45.364C44.4229 45.156 44.2669 44.996 44.0669 44.884C43.8749 44.764 43.6509 44.704 43.3949 44.704C43.1389 44.704 42.9109 44.764 42.7109 44.884C42.5189 44.996 42.3669 45.156 42.2549 45.364C42.1429 45.572 42.0869 45.812 42.0869 46.084C42.0869 46.348 42.1389 46.584 42.2429 46.792C42.3549 47 42.5109 47.164 42.7109 47.284C42.9109 47.404 43.1349 47.464 43.3829 47.464ZM40.3589 51.46V43.168H42.1949V44.668L41.8949 46.084L42.1709 47.5V51.46H40.3589ZM50.3757 49.132C49.7437 49.132 49.1797 49.004 48.6837 48.748C48.1957 48.484 47.8117 48.12 47.5317 47.656C47.2517 47.192 47.1117 46.668 47.1117 46.084C47.1117 45.5 47.2477 44.98 47.5197 44.524C47.7997 44.06 48.1757 43.696 48.6477 43.432C49.1197 43.168 49.6517 43.036 50.2437 43.036C50.8197 43.036 51.3277 43.16 51.7677 43.408C52.2077 43.656 52.5517 44 52.7997 44.44C53.0557 44.88 53.1837 45.384 53.1837 45.952C53.1837 46.056 53.1757 46.168 53.1597 46.288C53.1517 46.4 53.1317 46.532 53.0997 46.684L48.0717 46.696V45.436L52.3197 45.424L51.5277 45.952C51.5197 45.616 51.4677 45.34 51.3717 45.124C51.2757 44.9 51.1317 44.732 50.9397 44.62C50.7557 44.5 50.5277 44.44 50.2557 44.44C49.9677 44.44 49.7157 44.508 49.4997 44.644C49.2917 44.772 49.1277 44.956 49.0077 45.196C48.8957 45.436 48.8397 45.728 48.8397 46.072C48.8397 46.416 48.8997 46.712 49.0197 46.96C49.1477 47.2 49.3237 47.388 49.5477 47.524C49.7797 47.652 50.0517 47.716 50.3637 47.716C50.6517 47.716 50.9117 47.668 51.1437 47.572C51.3757 47.468 51.5797 47.316 51.7557 47.116L52.7637 48.124C52.4757 48.46 52.1277 48.712 51.7197 48.88C51.3117 49.048 50.8637 49.132 50.3757 49.132ZM57.9219 49V45.676C57.9219 45.372 57.8259 45.128 57.6339 44.944C57.4499 44.752 57.2139 44.656 56.9259 44.656C56.7259 44.656 56.5499 44.7 56.3979 44.788C56.2459 44.868 56.1259 44.988 56.0379 45.148C55.9499 45.3 55.9059 45.476 55.9059 45.676L55.1979 45.328C55.1979 44.872 55.2979 44.472 55.4979 44.128C55.6979 43.784 55.9739 43.52 56.3259 43.336C56.6859 43.144 57.0899 43.048 57.5379 43.048C57.9699 43.048 58.3499 43.152 58.6779 43.36C59.0139 43.56 59.2779 43.828 59.4699 44.164C59.6619 44.5 59.7579 44.868 59.7579 45.268V49H57.9219ZM54.0699 49V43.168H55.9059V49H54.0699ZM63.4211 49.12C62.8691 49.12 62.3771 48.988 61.9451 48.724C61.5211 48.46 61.1851 48.1 60.9371 47.644C60.6971 47.188 60.5771 46.668 60.5771 46.084C60.5771 45.5 60.6971 44.98 60.9371 44.524C61.1851 44.068 61.5211 43.708 61.9451 43.444C62.3771 43.18 62.8691 43.048 63.4211 43.048C63.8211 43.048 64.1811 43.124 64.5011 43.276C64.8291 43.428 65.0971 43.64 65.3051 43.912C65.5211 44.176 65.6411 44.48 65.6651 44.824V47.284C65.6411 47.628 65.5251 47.94 65.3171 48.22C65.1091 48.492 64.8411 48.712 64.5131 48.88C64.1851 49.04 63.8211 49.12 63.4211 49.12ZM63.7451 47.464C64.0091 47.464 64.2371 47.408 64.4291 47.296C64.6211 47.176 64.7731 47.012 64.8851 46.804C64.9971 46.596 65.0531 46.356 65.0531 46.084C65.0531 45.812 64.9971 45.576 64.8851 45.376C64.7811 45.168 64.6291 45.004 64.4291 44.884C64.2371 44.764 64.0131 44.704 63.7571 44.704C63.5011 44.704 63.2731 44.764 63.0731 44.884C62.8811 45.004 62.7251 45.168 62.6051 45.376C62.4931 45.584 62.4371 45.82 62.4371 46.084C62.4371 46.348 62.4931 46.584 62.6051 46.792C62.7171 47 62.8731 47.164 63.0731 47.284C63.2731 47.404 63.4971 47.464 63.7451 47.464ZM66.7811 49H64.9811V47.428L65.2571 46.012L64.9451 44.596V40.288H66.7811V49ZM70.9538 49.132C70.3218 49.132 69.7578 49.004 69.2618 48.748C68.7738 48.484 68.3898 48.12 68.1098 47.656C67.8298 47.192 67.6898 46.668 67.6898 46.084C67.6898 45.5 67.8258 44.98 68.0978 44.524C68.3778 44.06 68.7538 43.696 69.2258 43.432C69.6978 43.168 70.2298 43.036 70.8218 43.036C71.3978 43.036 71.9058 43.16 72.3458 43.408C72.7858 43.656 73.1298 44 73.3778 44.44C73.6338 44.88 73.7618 45.384 73.7618 45.952C73.7618 46.056 73.7538 46.168 73.7378 46.288C73.7298 46.4 73.7098 46.532 73.6778 46.684L68.6498 46.696V45.436L72.8978 45.424L72.1058 45.952C72.0978 45.616 72.0458 45.34 71.9498 45.124C71.8538 44.9 71.7098 44.732 71.5178 44.62C71.3338 44.5 71.1058 44.44 70.8338 44.44C70.5458 44.44 70.2938 44.508 70.0778 44.644C69.8698 44.772 69.7058 44.956 69.5858 45.196C69.4738 45.436 69.4178 45.728 69.4178 46.072C69.4178 46.416 69.4778 46.712 69.5978 46.96C69.7258 47.2 69.9018 47.388 70.1258 47.524C70.3578 47.652 70.6298 47.716 70.9418 47.716C71.2298 47.716 71.4898 47.668 71.7218 47.572C71.9538 47.468 72.1578 47.316 72.3338 47.116L73.3418 48.124C73.0538 48.46 72.7058 48.712 72.2978 48.88C71.8898 49.048 71.4418 49.132 70.9538 49.132ZM78.5 49V45.676C78.5 45.372 78.404 45.128 78.212 44.944C78.028 44.752 77.792 44.656 77.504 44.656C77.304 44.656 77.128 44.7 76.976 44.788C76.824 44.868 76.704 44.988 76.616 45.148C76.528 45.3 76.484 45.476 76.484 45.676L75.776 45.328C75.776 44.872 75.876 44.472 76.076 44.128C76.276 43.784 76.552 43.52 76.904 43.336C77.264 43.144 77.668 43.048 78.116 43.048C78.548 43.048 78.928 43.152 79.256 43.36C79.592 43.56 79.856 43.828 80.048 44.164C80.24 44.5 80.336 44.868 80.336 45.268V49H78.5ZM74.648 49V43.168H76.484V49H74.648ZM82.2729 49V40.756H84.1089V49H82.2729ZM80.9529 44.728V43.168H85.4289V44.728H80.9529ZM89.0007 49.132C88.3687 49.132 87.8047 49.004 87.3087 48.748C86.8207 48.484 86.4367 48.12 86.1567 47.656C85.8767 47.192 85.7367 46.668 85.7367 46.084C85.7367 45.5 85.8727 44.98 86.1447 44.524C86.4247 44.06 86.8007 43.696 87.2727 43.432C87.7447 43.168 88.2767 43.036 88.8687 43.036C89.4447 43.036 89.9527 43.16 90.3927 43.408C90.8327 43.656 91.1767 44 91.4247 44.44C91.6807 44.88 91.8087 45.384 91.8087 45.952C91.8087 46.056 91.8007 46.168 91.7847 46.288C91.7767 46.4 91.7567 46.532 91.7247 46.684L86.6967 46.696V45.436L90.9447 45.424L90.1527 45.952C90.1447 45.616 90.0927 45.34 89.9967 45.124C89.9007 44.9 89.7567 44.732 89.5647 44.62C89.3807 44.5 89.1527 44.44 88.8807 44.44C88.5927 44.44 88.3407 44.508 88.1247 44.644C87.9167 44.772 87.7527 44.956 87.6327 45.196C87.5207 45.436 87.4647 45.728 87.4647 46.072C87.4647 46.416 87.5247 46.712 87.6447 46.96C87.7727 47.2 87.9487 47.388 88.1727 47.524C88.4047 47.652 88.6767 47.716 88.9887 47.716C89.2767 47.716 89.5367 47.668 89.7687 47.572C90.0007 47.468 90.2047 47.316 90.3807 47.116L91.3887 48.124C91.1007 48.46 90.7527 48.712 90.3447 48.88C89.9367 49.048 89.4887 49.132 89.0007 49.132ZM94.8189 49.144C94.4749 49.144 94.1349 49.1 93.7989 49.012C93.4709 48.924 93.1629 48.8 92.8749 48.64C92.5949 48.472 92.3549 48.28 92.1549 48.064L93.1989 47.008C93.3909 47.216 93.6189 47.38 93.8829 47.5C94.1469 47.612 94.4349 47.668 94.7469 47.668C94.9629 47.668 95.1269 47.636 95.2389 47.572C95.3589 47.508 95.4189 47.42 95.4189 47.308C95.4189 47.164 95.3469 47.056 95.2029 46.984C95.0669 46.904 94.8909 46.836 94.6749 46.78C94.4589 46.716 94.2309 46.648 93.9909 46.576C93.7509 46.504 93.5229 46.404 93.3069 46.276C93.0909 46.148 92.9149 45.972 92.7789 45.748C92.6429 45.516 92.5749 45.224 92.5749 44.872C92.5749 44.496 92.6709 44.172 92.8629 43.9C93.0549 43.62 93.3269 43.4 93.6789 43.24C94.0309 43.08 94.4429 43 94.9149 43C95.4109 43 95.8669 43.088 96.2829 43.264C96.7069 43.432 97.0509 43.684 97.3149 44.02L96.2709 45.076C96.0869 44.86 95.8789 44.708 95.6469 44.62C95.4229 44.532 95.2029 44.488 94.9869 44.488C94.7789 44.488 94.6229 44.52 94.5189 44.584C94.4149 44.64 94.3629 44.724 94.3629 44.836C94.3629 44.956 94.4309 45.052 94.5669 45.124C94.7029 45.196 94.8789 45.26 95.0949 45.316C95.3109 45.372 95.5389 45.44 95.7789 45.52C96.0189 45.6 96.2469 45.708 96.4629 45.844C96.6789 45.98 96.8549 46.164 96.9909 46.396C97.1269 46.62 97.1949 46.916 97.1949 47.284C97.1949 47.852 96.9789 48.304 96.5469 48.64C96.1229 48.976 95.5469 49.144 94.8189 49.144ZM29.468 63.132C28.868 63.132 28.324 63 27.836 62.736C27.348 62.472 26.964 62.108 26.684 61.644C26.404 61.18 26.264 60.66 26.264 60.084C26.264 59.5 26.404 58.98 26.684 58.524C26.972 58.06 27.36 57.696 27.848 57.432C28.336 57.168 28.884 57.036 29.492 57.036C29.948 57.036 30.364 57.116 30.74 57.276C31.124 57.428 31.464 57.66 31.76 57.972L30.584 59.148C30.448 58.996 30.288 58.884 30.104 58.812C29.928 58.74 29.724 58.704 29.492 58.704C29.228 58.704 28.992 58.764 28.784 58.884C28.584 58.996 28.424 59.156 28.304 59.364C28.192 59.564 28.136 59.8 28.136 60.072C28.136 60.344 28.192 60.584 28.304 60.792C28.424 61 28.588 61.164 28.796 61.284C29.004 61.404 29.236 61.464 29.492 61.464C29.732 61.464 29.944 61.424 30.128 61.344C30.32 61.256 30.484 61.136 30.62 60.984L31.784 62.16C31.48 62.48 31.136 62.724 30.752 62.892C30.368 63.052 29.94 63.132 29.468 63.132ZM34.8965 63.12C34.3605 63.12 33.8805 62.988 33.4565 62.724C33.0405 62.46 32.7085 62.1 32.4605 61.644C32.2205 61.188 32.1005 60.668 32.1005 60.084C32.1005 59.5 32.2205 58.98 32.4605 58.524C32.7085 58.068 33.0405 57.708 33.4565 57.444C33.8805 57.18 34.3605 57.048 34.8965 57.048C35.2885 57.048 35.6405 57.124 35.9525 57.276C36.2725 57.428 36.5325 57.64 36.7325 57.912C36.9325 58.176 37.0445 58.48 37.0685 58.824V61.344C37.0445 61.688 36.9325 61.996 36.7325 62.268C36.5405 62.532 36.2845 62.74 35.9645 62.892C35.6445 63.044 35.2885 63.12 34.8965 63.12ZM35.2685 61.464C35.6605 61.464 35.9765 61.336 36.2165 61.08C36.4565 60.816 36.5765 60.484 36.5765 60.084C36.5765 59.812 36.5205 59.572 36.4085 59.364C36.3045 59.156 36.1525 58.996 35.9525 58.884C35.7605 58.764 35.5365 58.704 35.2805 58.704C35.0245 58.704 34.7965 58.764 34.5965 58.884C34.4045 58.996 34.2485 59.156 34.1285 59.364C34.0165 59.572 33.9605 59.812 33.9605 60.084C33.9605 60.348 34.0165 60.584 34.1285 60.792C34.2405 61 34.3965 61.164 34.5965 61.284C34.7965 61.404 35.0205 61.464 35.2685 61.464ZM36.5045 63V61.428L36.7805 60.012L36.5045 58.596V57.168H38.3045V63H36.5045ZM42.0812 63.12C41.5292 63.12 41.0372 62.988 40.6052 62.724C40.1812 62.46 39.8452 62.1 39.5972 61.644C39.3572 61.188 39.2372 60.668 39.2372 60.084C39.2372 59.5 39.3572 58.98 39.5972 58.524C39.8452 58.068 40.1812 57.708 40.6052 57.444C41.0372 57.18 41.5292 57.048 42.0812 57.048C42.4812 57.048 42.8412 57.124 43.1612 57.276C43.4892 57.428 43.7572 57.64 43.9652 57.912C44.1812 58.176 44.3012 58.48 44.3252 58.824V61.284C44.3012 61.628 44.1852 61.94 43.9772 62.22C43.7692 62.492 43.5012 62.712 43.1732 62.88C42.8452 63.04 42.4812 63.12 42.0812 63.12ZM42.4052 61.464C42.6692 61.464 42.8972 61.408 43.0892 61.296C43.2812 61.176 43.4332 61.012 43.5452 60.804C43.6572 60.596 43.7132 60.356 43.7132 60.084C43.7132 59.812 43.6572 59.576 43.5452 59.376C43.4412 59.168 43.2892 59.004 43.0892 58.884C42.8972 58.764 42.6732 58.704 42.4172 58.704C42.1612 58.704 41.9332 58.764 41.7332 58.884C41.5412 59.004 41.3852 59.168 41.2652 59.376C41.1532 59.584 41.0972 59.82 41.0972 60.084C41.0972 60.348 41.1532 60.584 41.2652 60.792C41.3772 61 41.5332 61.164 41.7332 61.284C41.9332 61.404 42.1572 61.464 42.4052 61.464ZM45.4412 63H43.6412V61.428L43.9172 60.012L43.6052 58.596V54.288H45.4412V63ZM49.1699 63.12C48.6339 63.12 48.1539 62.988 47.7299 62.724C47.3139 62.46 46.9819 62.1 46.7339 61.644C46.4939 61.188 46.3739 60.668 46.3739 60.084C46.3739 59.5 46.4939 58.98 46.7339 58.524C46.9819 58.068 47.3139 57.708 47.7299 57.444C48.1539 57.18 48.6339 57.048 49.1699 57.048C49.5619 57.048 49.9139 57.124 50.2259 57.276C50.5459 57.428 50.8059 57.64 51.0059 57.912C51.2059 58.176 51.3179 58.48 51.3419 58.824V61.344C51.3179 61.688 51.2059 61.996 51.0059 62.268C50.8139 62.532 50.5579 62.74 50.2379 62.892C49.9179 63.044 49.5619 63.12 49.1699 63.12ZM49.5419 61.464C49.9339 61.464 50.2499 61.336 50.4899 61.08C50.7299 60.816 50.8499 60.484 50.8499 60.084C50.8499 59.812 50.7939 59.572 50.6819 59.364C50.5779 59.156 50.4259 58.996 50.2259 58.884C50.0339 58.764 49.8099 58.704 49.5539 58.704C49.2979 58.704 49.0699 58.764 48.8699 58.884C48.6779 58.996 48.5219 59.156 48.4019 59.364C48.2899 59.572 48.2339 59.812 48.2339 60.084C48.2339 60.348 48.2899 60.584 48.4019 60.792C48.5139 61 48.6699 61.164 48.8699 61.284C49.0699 61.404 49.2939 61.464 49.5419 61.464ZM50.7779 63V61.428L51.0539 60.012L50.7779 58.596V57.168H52.5779V63H50.7779ZM55.9947 63.144C55.6507 63.144 55.3107 63.1 54.9747 63.012C54.6467 62.924 54.3387 62.8 54.0507 62.64C53.7707 62.472 53.5307 62.28 53.3307 62.064L54.3747 61.008C54.5667 61.216 54.7947 61.38 55.0587 61.5C55.3227 61.612 55.6107 61.668 55.9227 61.668C56.1387 61.668 56.3027 61.636 56.4147 61.572C56.5347 61.508 56.5947 61.42 56.5947 61.308C56.5947 61.164 56.5227 61.056 56.3787 60.984C56.2427 60.904 56.0667 60.836 55.8507 60.78C55.6347 60.716 55.4067 60.648 55.1667 60.576C54.9267 60.504 54.6987 60.404 54.4827 60.276C54.2667 60.148 54.0907 59.972 53.9547 59.748C53.8187 59.516 53.7507 59.224 53.7507 58.872C53.7507 58.496 53.8467 58.172 54.0387 57.9C54.2307 57.62 54.5027 57.4 54.8547 57.24C55.2067 57.08 55.6187 57 56.0907 57C56.5867 57 57.0427 57.088 57.4587 57.264C57.8827 57.432 58.2267 57.684 58.4907 58.02L57.4467 59.076C57.2627 58.86 57.0547 58.708 56.8227 58.62C56.5987 58.532 56.3787 58.488 56.1627 58.488C55.9547 58.488 55.7987 58.52 55.6947 58.584C55.5907 58.64 55.5387 58.724 55.5387 58.836C55.5387 58.956 55.6067 59.052 55.7427 59.124C55.8787 59.196 56.0547 59.26 56.2707 59.316C56.4867 59.372 56.7147 59.44 56.9547 59.52C57.1947 59.6 57.4227 59.708 57.6387 59.844C57.8547 59.98 58.0307 60.164 58.1667 60.396C58.3027 60.62 58.3707 60.916 58.3707 61.284C58.3707 61.852 58.1547 62.304 57.7227 62.64C57.2987 62.976 56.7227 63.144 55.9947 63.144ZM60.1948 63V54.756H62.0308V63H60.1948ZM58.8748 58.728V57.168H63.3508V58.728H58.8748ZM64.1597 63V57.168H65.9957V63H64.1597ZM65.9957 59.796L65.2277 59.196C65.3797 58.516 65.6357 57.988 65.9957 57.612C66.3557 57.236 66.8557 57.048 67.4957 57.048C67.7757 57.048 68.0197 57.092 68.2277 57.18C68.4437 57.26 68.6317 57.388 68.7917 57.564L67.6997 58.944C67.6197 58.856 67.5197 58.788 67.3997 58.74C67.2797 58.692 67.1437 58.668 66.9917 58.668C66.6877 58.668 66.4437 58.764 66.2597 58.956C66.0837 59.14 65.9957 59.42 65.9957 59.796ZM71.5527 63.12C71.0168 63.12 70.5368 62.988 70.1128 62.724C69.6968 62.46 69.3648 62.1 69.1168 61.644C68.8768 61.188 68.7568 60.668 68.7568 60.084C68.7568 59.5 68.8768 58.98 69.1168 58.524C69.3648 58.068 69.6968 57.708 70.1128 57.444C70.5368 57.18 71.0168 57.048 71.5527 57.048C71.9448 57.048 72.2968 57.124 72.6088 57.276C72.9288 57.428 73.1888 57.64 73.3888 57.912C73.5888 58.176 73.7008 58.48 73.7248 58.824V61.344C73.7008 61.688 73.5888 61.996 73.3888 62.268C73.1968 62.532 72.9408 62.74 72.6208 62.892C72.3008 63.044 71.9448 63.12 71.5527 63.12ZM71.9248 61.464C72.3168 61.464 72.6328 61.336 72.8728 61.08C73.1128 60.816 73.2328 60.484 73.2328 60.084C73.2328 59.812 73.1768 59.572 73.0648 59.364C72.9608 59.156 72.8088 58.996 72.6088 58.884C72.4168 58.764 72.1928 58.704 71.9368 58.704C71.6808 58.704 71.4528 58.764 71.2528 58.884C71.0608 58.996 70.9048 59.156 70.7848 59.364C70.6728 59.572 70.6168 59.812 70.6168 60.084C70.6168 60.348 70.6728 60.584 70.7848 60.792C70.8968 61 71.0528 61.164 71.2528 61.284C71.4528 61.404 71.6768 61.464 71.9248 61.464ZM73.1608 63V61.428L73.4368 60.012L73.1608 58.596V57.168H74.9608V63H73.1608ZM78.7375 63.12C78.1855 63.12 77.6935 62.988 77.2615 62.724C76.8375 62.46 76.5015 62.1 76.2535 61.644C76.0135 61.188 75.8935 60.668 75.8935 60.084C75.8935 59.5 76.0135 58.98 76.2535 58.524C76.5015 58.068 76.8375 57.708 77.2615 57.444C77.6935 57.18 78.1855 57.048 78.7375 57.048C79.1375 57.048 79.4975 57.124 79.8175 57.276C80.1455 57.428 80.4135 57.64 80.6215 57.912C80.8375 58.176 80.9575 58.48 80.9815 58.824V61.284C80.9575 61.628 80.8415 61.94 80.6335 62.22C80.4255 62.492 80.1575 62.712 79.8295 62.88C79.5015 63.04 79.1375 63.12 78.7375 63.12ZM79.0615 61.464C79.3255 61.464 79.5535 61.408 79.7455 61.296C79.9375 61.176 80.0895 61.012 80.2015 60.804C80.3135 60.596 80.3695 60.356 80.3695 60.084C80.3695 59.812 80.3135 59.576 80.2015 59.376C80.0975 59.168 79.9455 59.004 79.7455 58.884C79.5535 58.764 79.3295 58.704 79.0735 58.704C78.8175 58.704 78.5895 58.764 78.3895 58.884C78.1975 59.004 78.0415 59.168 77.9215 59.376C77.8095 59.584 77.7535 59.82 77.7535 60.084C77.7535 60.348 77.8095 60.584 77.9215 60.792C78.0335 61 78.1895 61.164 78.3895 61.284C78.5895 61.404 78.8135 61.464 79.0615 61.464ZM82.0975 63H80.2975V61.428L80.5735 60.012L80.2615 58.596V54.288H82.0975V63ZM86.1982 63.132C85.5982 63.132 85.0542 63 84.5662 62.736C84.0862 62.464 83.7062 62.096 83.4262 61.632C83.1462 61.168 83.0062 60.648 83.0062 60.072C83.0062 59.496 83.1462 58.98 83.4262 58.524C83.7062 58.068 84.0862 57.708 84.5662 57.444C85.0462 57.172 85.5902 57.036 86.1982 57.036C86.8062 57.036 87.3502 57.168 87.8302 57.432C88.3102 57.696 88.6902 58.06 88.9702 58.524C89.2502 58.98 89.3902 59.496 89.3902 60.072C89.3902 60.648 89.2502 61.168 88.9702 61.632C88.6902 62.096 88.3102 62.464 87.8302 62.736C87.3502 63 86.8062 63.132 86.1982 63.132ZM86.1982 61.464C86.4622 61.464 86.6942 61.408 86.8942 61.296C87.0942 61.176 87.2462 61.012 87.3502 60.804C87.4622 60.588 87.5182 60.344 87.5182 60.072C87.5182 59.8 87.4622 59.564 87.3502 59.364C87.2382 59.156 87.0822 58.996 86.8822 58.884C86.6902 58.764 86.4622 58.704 86.1982 58.704C85.9422 58.704 85.7142 58.764 85.5142 58.884C85.3142 58.996 85.1582 59.156 85.0462 59.364C84.9342 59.572 84.8782 59.812 84.8782 60.084C84.8782 60.348 84.9342 60.588 85.0462 60.804C85.1582 61.012 85.3142 61.176 85.5142 61.296C85.7142 61.408 85.9422 61.464 86.1982 61.464ZM92.4283 63.144C92.0843 63.144 91.7443 63.1 91.4083 63.012C91.0803 62.924 90.7723 62.8 90.4843 62.64C90.2043 62.472 89.9643 62.28 89.7643 62.064L90.8083 61.008C91.0003 61.216 91.2283 61.38 91.4923 61.5C91.7563 61.612 92.0443 61.668 92.3563 61.668C92.5723 61.668 92.7363 61.636 92.8483 61.572C92.9683 61.508 93.0283 61.42 93.0283 61.308C93.0283 61.164 92.9563 61.056 92.8123 60.984C92.6763 60.904 92.5003 60.836 92.2843 60.78C92.0683 60.716 91.8403 60.648 91.6003 60.576C91.3602 60.504 91.1323 60.404 90.9163 60.276C90.7003 60.148 90.5243 59.972 90.3883 59.748C90.2523 59.516 90.1843 59.224 90.1843 58.872C90.1843 58.496 90.2803 58.172 90.4723 57.9C90.6643 57.62 90.9363 57.4 91.2883 57.24C91.6403 57.08 92.0523 57 92.5243 57C93.0203 57 93.4763 57.088 93.8923 57.264C94.3163 57.432 94.6603 57.684 94.9243 58.02L93.8803 59.076C93.6963 58.86 93.4883 58.708 93.2563 58.62C93.0323 58.532 92.8123 58.488 92.5963 58.488C92.3883 58.488 92.2323 58.52 92.1283 58.584C92.0243 58.64 91.9723 58.724 91.9723 58.836C91.9723 58.956 92.0403 59.052 92.1763 59.124C92.3123 59.196 92.4883 59.26 92.7043 59.316C92.9203 59.372 93.1483 59.44 93.3883 59.52C93.6283 59.6 93.8563 59.708 94.0723 59.844C94.2883 59.98 94.4643 60.164 94.6003 60.396C94.7363 60.62 94.8043 60.916 94.8043 61.284C94.8043 61.852 94.5883 62.304 94.1563 62.64C93.7323 62.976 93.1563 63.144 92.4283 63.144Z" fill="#64748B"/>
<rect x="162" y="43.0156" width="39.866" height="81.9077" rx="19.933" transform="rotate(-61.4406 162 43.0156)" fill="#D2D8E0"/>
<g clip-path="url(#clip0_1645_3062)">
<path d="M230.48 67.8533C230.48 76.1759 181 76.1759 181 67.8533C181 59.5308 200.543 56.2598 205.719 56.2598C210.895 56.2598 230.48 59.4894 230.48 67.8533Z" fill="#E1E5E9"/>
<path d="M205.76 60.565C203.359 60.565 201.371 58.6189 201.371 56.176V46.1973H210.149V56.176C210.108 58.5775 208.162 60.565 205.76 60.565Z" fill="#A6B0BF"/>
<path d="M210.108 53.6091V49.7998H201.372V53.6091C202.697 54.1474 204.187 54.4372 205.761 54.4372C207.293 54.4372 208.783 54.1474 210.108 53.6091Z" fill="#A6B0BF"/>
<path d="M205.719 51.6218C199.26 51.6218 194.043 46.4047 194.043 39.9454V30.6705C194.043 24.2112 199.301 18.9941 205.719 18.9941C212.179 18.9941 217.437 24.2112 217.437 30.6705V39.9454C217.437 46.4047 212.179 51.6218 205.719 51.6218Z" fill="#A6B0BF"/>
<path d="M192.883 41.8081C194.644 41.8081 196.072 40.3807 196.072 38.6199C196.072 36.8591 194.644 35.4316 192.883 35.4316C191.123 35.4316 189.695 36.8591 189.695 38.6199C189.695 40.3807 191.123 41.8081 192.883 41.8081Z" fill="#A6B0BF"/>
<path d="M218.596 41.8081C220.357 41.8081 221.785 40.3807 221.785 38.6199C221.785 36.8591 220.357 35.4316 218.596 35.4316C216.836 35.4316 215.408 36.8591 215.408 38.6199C215.408 40.3807 216.836 41.8081 218.596 41.8081Z" fill="#A6B0BF"/>
<path d="M193.96 27.2761C190.026 34.9362 202.903 31.6651 203.318 26.6965C204.063 30.1745 208.99 30.9612 209.694 26.9035C210.439 32.4104 218.389 35.3088 218.224 27.7316C218.389 21.7278 212.427 20.527 210.853 20.113C207.127 16.4279 191.476 16.8419 193.96 27.2761Z" fill="#64748B"/>
</g>
<defs>
<clipPath id="clip0_1645_3062">
<rect width="49.4797" height="56.1046" fill="white" transform="translate(181 18)"/>
</clipPath>
</defs>
</svg>
