<svg width="300" height="90" viewBox="0 0 300 90" fill="none" xmlns="http://www.w3.org/2000/svg">
<rect width="300" height="90" rx="6.6644" fill="#F3F5F7"/>
<path d="M29.456 35L26.192 26.528H28.208L30.692 33.38H29.864L32.384 26.528H34.376L31.076 35H29.456ZM36.7568 35.132C36.1568 35.132 35.6128 35 35.1248 34.736C34.6448 34.464 34.2648 34.096 33.9848 33.632C33.7048 33.168 33.5648 32.648 33.5648 32.072C33.5648 31.496 33.7048 30.98 33.9848 30.524C34.2648 30.068 34.6448 29.708 35.1248 29.444C35.6048 29.172 36.1488 29.036 36.7568 29.036C37.3648 29.036 37.9088 29.168 38.3888 29.432C38.8688 29.696 39.2488 30.06 39.5288 30.524C39.8088 30.98 39.9488 31.496 39.9488 32.072C39.9488 32.648 39.8088 33.168 39.5288 33.632C39.2488 34.096 38.8688 34.464 38.3888 34.736C37.9088 35 37.3648 35.132 36.7568 35.132ZM36.7568 33.464C37.0208 33.464 37.2528 33.408 37.4528 33.296C37.6528 33.176 37.8048 33.012 37.9088 32.804C38.0208 32.588 38.0768 32.344 38.0768 32.072C38.0768 31.8 38.0208 31.564 37.9088 31.364C37.7968 31.156 37.6408 30.996 37.4408 30.884C37.2488 30.764 37.0208 30.704 36.7568 30.704C36.5008 30.704 36.2728 30.764 36.0728 30.884C35.8728 30.996 35.7168 31.156 35.6048 31.364C35.4928 31.572 35.4368 31.812 35.4368 32.084C35.4368 32.348 35.4928 32.588 35.6048 32.804C35.7168 33.012 35.8728 33.176 36.0728 33.296C36.2728 33.408 36.5008 33.464 36.7568 33.464ZM43.6828 35.132C43.0828 35.132 42.5388 35 42.0508 34.736C41.5628 34.472 41.1788 34.108 40.8988 33.644C40.6188 33.18 40.4788 32.66 40.4788 32.084C40.4788 31.5 40.6188 30.98 40.8988 30.524C41.1868 30.06 41.5748 29.696 42.0628 29.432C42.5508 29.168 43.0988 29.036 43.7068 29.036C44.1628 29.036 44.5788 29.116 44.9548 29.276C45.3388 29.428 45.6788 29.66 45.9748 29.972L44.7988 31.148C44.6628 30.996 44.5028 30.884 44.3188 30.812C44.1428 30.74 43.9388 30.704 43.7068 30.704C43.4428 30.704 43.2068 30.764 42.9988 30.884C42.7988 30.996 42.6388 31.156 42.5188 31.364C42.4068 31.564 42.3508 31.8 42.3508 32.072C42.3508 32.344 42.4068 32.584 42.5188 32.792C42.6388 33 42.8028 33.164 43.0108 33.284C43.2188 33.404 43.4508 33.464 43.7068 33.464C43.9468 33.464 44.1588 33.424 44.3428 33.344C44.5348 33.256 44.6988 33.136 44.8348 32.984L45.9988 34.16C45.6948 34.48 45.3508 34.724 44.9668 34.892C44.5828 35.052 44.1548 35.132 43.6828 35.132ZM49.5553 35.132C48.9233 35.132 48.3593 35.004 47.8633 34.748C47.3753 34.484 46.9913 34.12 46.7113 33.656C46.4313 33.192 46.2913 32.668 46.2913 32.084C46.2913 31.5 46.4273 30.98 46.6993 30.524C46.9793 30.06 47.3553 29.696 47.8273 29.432C48.2993 29.168 48.8313 29.036 49.4233 29.036C49.9993 29.036 50.5073 29.16 50.9473 29.408C51.3873 29.656 51.7313 30 51.9793 30.44C52.2353 30.88 52.3633 31.384 52.3633 31.952C52.3633 32.056 52.3553 32.168 52.3393 32.288C52.3313 32.4 52.3113 32.532 52.2793 32.684L47.2513 32.696V31.436L51.4993 31.424L50.7073 31.952C50.6993 31.616 50.6473 31.34 50.5513 31.124C50.4553 30.9 50.3113 30.732 50.1193 30.62C49.9353 30.5 49.7073 30.44 49.4353 30.44C49.1473 30.44 48.8953 30.508 48.6793 30.644C48.4713 30.772 48.3073 30.956 48.1873 31.196C48.0753 31.436 48.0193 31.728 48.0193 32.072C48.0193 32.416 48.0793 32.712 48.1993 32.96C48.3273 33.2 48.5033 33.388 48.7273 33.524C48.9593 33.652 49.2313 33.716 49.5433 33.716C49.8313 33.716 50.0913 33.668 50.3233 33.572C50.5553 33.468 50.7593 33.316 50.9353 33.116L51.9433 34.124C51.6553 34.46 51.3073 34.712 50.8993 34.88C50.4913 35.048 50.0433 35.132 49.5553 35.132ZM47.7433 28.556L47.1433 27.764L48.8953 26.024H49.9513L51.7033 27.764L51.1033 28.556L48.7393 27.092H50.1313L47.7433 28.556ZM59.3867 35V31.676C59.3867 31.372 59.2907 31.128 59.0987 30.944C58.9147 30.752 58.6787 30.656 58.3907 30.656C58.1907 30.656 58.0147 30.7 57.8627 30.788C57.7107 30.868 57.5907 30.988 57.5027 31.148C57.4147 31.3 57.3707 31.476 57.3707 31.676L56.6627 31.328C56.6627 30.872 56.7627 30.472 56.9627 30.128C57.1627 29.784 57.4387 29.52 57.7907 29.336C58.1507 29.144 58.5547 29.048 59.0027 29.048C59.4347 29.048 59.8147 29.152 60.1427 29.36C60.4787 29.56 60.7427 29.828 60.9347 30.164C61.1267 30.5 61.2227 30.868 61.2227 31.268V35H59.3867ZM55.5347 35V29.168H57.3707V35H55.5347ZM64.8379 35.12C64.3019 35.12 63.8219 34.988 63.3979 34.724C62.9819 34.46 62.6499 34.1 62.4019 33.644C62.1619 33.188 62.0419 32.668 62.0419 32.084C62.0419 31.5 62.1619 30.98 62.4019 30.524C62.6499 30.068 62.9819 29.708 63.3979 29.444C63.8219 29.18 64.3019 29.048 64.8379 29.048C65.2299 29.048 65.5819 29.124 65.8939 29.276C66.2139 29.428 66.4739 29.64 66.6739 29.912C66.8739 30.176 66.9859 30.48 67.0099 30.824V33.344C66.9859 33.688 66.8739 33.996 66.6739 34.268C66.4819 34.532 66.2259 34.74 65.9059 34.892C65.5859 35.044 65.2299 35.12 64.8379 35.12ZM65.2099 33.464C65.6019 33.464 65.9179 33.336 66.1579 33.08C66.3979 32.816 66.5179 32.484 66.5179 32.084C66.5179 31.812 66.4619 31.572 66.3499 31.364C66.2459 31.156 66.0939 30.996 65.8939 30.884C65.7019 30.764 65.4779 30.704 65.2219 30.704C64.9659 30.704 64.7379 30.764 64.5379 30.884C64.3459 30.996 64.1899 31.156 64.0699 31.364C63.9579 31.572 63.9019 31.812 63.9019 32.084C63.9019 32.348 63.9579 32.584 64.0699 32.792C64.1819 33 64.3379 33.164 64.5379 33.284C64.7379 33.404 64.9619 33.464 65.2099 33.464ZM66.4459 35V33.428L66.7219 32.012L66.4459 30.596V29.168H68.2459V35H66.4459ZM66.0859 28.496C65.8299 28.496 65.6059 28.452 65.4139 28.364C65.2299 28.276 65.0579 28.188 64.8979 28.1C64.7459 28.012 64.5779 27.968 64.3939 27.968C64.2099 27.968 64.0539 28.008 63.9259 28.088C63.7979 28.16 63.6779 28.272 63.5659 28.424L62.6899 27.56C62.9219 27.216 63.1659 26.96 63.4219 26.792C63.6859 26.624 63.9899 26.54 64.3339 26.54C64.5899 26.54 64.8099 26.584 64.9939 26.672C65.1859 26.76 65.3619 26.852 65.5219 26.948C65.6819 27.036 65.8499 27.08 66.0259 27.08C66.2179 27.08 66.3779 27.044 66.5059 26.972C66.6339 26.892 66.7499 26.772 66.8539 26.612L67.7299 27.488C67.4979 27.824 67.2499 28.076 66.9859 28.244C66.7299 28.412 66.4299 28.496 66.0859 28.496ZM72.3466 35.132C71.7466 35.132 71.2026 35 70.7146 34.736C70.2346 34.464 69.8546 34.096 69.5746 33.632C69.2946 33.168 69.1546 32.648 69.1546 32.072C69.1546 31.496 69.2946 30.98 69.5746 30.524C69.8546 30.068 70.2346 29.708 70.7146 29.444C71.1946 29.172 71.7386 29.036 72.3466 29.036C72.9546 29.036 73.4986 29.168 73.9786 29.432C74.4586 29.696 74.8386 30.06 75.1186 30.524C75.3986 30.98 75.5386 31.496 75.5386 32.072C75.5386 32.648 75.3986 33.168 75.1186 33.632C74.8386 34.096 74.4586 34.464 73.9786 34.736C73.4986 35 72.9546 35.132 72.3466 35.132ZM72.3466 33.464C72.6106 33.464 72.8426 33.408 73.0426 33.296C73.2426 33.176 73.3946 33.012 73.4986 32.804C73.6106 32.588 73.6666 32.344 73.6666 32.072C73.6666 31.8 73.6106 31.564 73.4986 31.364C73.3866 31.156 73.2306 30.996 73.0306 30.884C72.8386 30.764 72.6106 30.704 72.3466 30.704C72.0906 30.704 71.8626 30.764 71.6626 30.884C71.4626 30.996 71.3066 31.156 71.1946 31.364C71.0826 31.572 71.0266 31.812 71.0266 32.084C71.0266 32.348 71.0826 32.588 71.1946 32.804C71.3066 33.012 71.4626 33.176 71.6626 33.296C71.8626 33.408 72.0906 33.464 72.3466 33.464ZM79.5658 35V26.756H81.4018V35H79.5658ZM78.2458 30.728V29.168H82.7218V30.728H78.2458ZM86.2936 35.132C85.6616 35.132 85.0976 35.004 84.6016 34.748C84.1136 34.484 83.7296 34.12 83.4496 33.656C83.1696 33.192 83.0296 32.668 83.0296 32.084C83.0296 31.5 83.1656 30.98 83.4376 30.524C83.7176 30.06 84.0936 29.696 84.5656 29.432C85.0376 29.168 85.5696 29.036 86.1616 29.036C86.7376 29.036 87.2456 29.16 87.6856 29.408C88.1256 29.656 88.4696 30 88.7176 30.44C88.9736 30.88 89.1016 31.384 89.1016 31.952C89.1016 32.056 89.0936 32.168 89.0776 32.288C89.0696 32.4 89.0496 32.532 89.0176 32.684L83.9896 32.696V31.436L88.2376 31.424L87.4456 31.952C87.4376 31.616 87.3856 31.34 87.2896 31.124C87.1936 30.9 87.0496 30.732 86.8576 30.62C86.6736 30.5 86.4456 30.44 86.1736 30.44C85.8856 30.44 85.6336 30.508 85.4176 30.644C85.2096 30.772 85.0456 30.956 84.9256 31.196C84.8136 31.436 84.7576 31.728 84.7576 32.072C84.7576 32.416 84.8176 32.712 84.9376 32.96C85.0656 33.2 85.2416 33.388 85.4656 33.524C85.6976 33.652 85.9696 33.716 86.2816 33.716C86.5696 33.716 86.8296 33.668 87.0616 33.572C87.2936 33.468 87.4976 33.316 87.6736 33.116L88.6816 34.124C88.3936 34.46 88.0456 34.712 87.6376 34.88C87.2296 35.048 86.7816 35.132 86.2936 35.132ZM89.9878 35V29.168H91.8238V35H89.9878ZM93.7198 35V31.592C93.7198 31.296 93.6278 31.068 93.4438 30.908C93.2678 30.74 93.0478 30.656 92.7838 30.656C92.5998 30.656 92.4358 30.696 92.2918 30.776C92.1478 30.848 92.0318 30.952 91.9438 31.088C91.8638 31.224 91.8238 31.392 91.8238 31.592L91.1158 31.28C91.1158 30.816 91.2158 30.42 91.4158 30.092C91.6158 29.756 91.8878 29.5 92.2318 29.324C92.5758 29.14 92.9638 29.048 93.3958 29.048C93.8038 29.048 94.1678 29.14 94.4878 29.324C94.8158 29.508 95.0758 29.764 95.2678 30.092C95.4598 30.42 95.5558 30.812 95.5558 31.268V35H93.7198ZM97.4518 35V31.592C97.4518 31.296 97.3598 31.068 97.1758 30.908C96.9998 30.74 96.7798 30.656 96.5158 30.656C96.3318 30.656 96.1678 30.696 96.0238 30.776C95.8798 30.848 95.7638 30.952 95.6758 31.088C95.5958 31.224 95.5558 31.392 95.5558 31.592L94.4998 31.448C94.5158 30.952 94.6318 30.528 94.8478 30.176C95.0718 29.816 95.3638 29.54 95.7238 29.348C96.0918 29.148 96.5038 29.048 96.9598 29.048C97.4078 29.048 97.8038 29.144 98.1478 29.336C98.4998 29.52 98.7758 29.788 98.9758 30.14C99.1838 30.484 99.2878 30.9 99.2878 31.388V35H97.4518ZM26.648 49V43.168H28.484V49H26.648ZM28.484 45.796L27.716 45.196C27.868 44.516 28.124 43.988 28.484 43.612C28.844 43.236 29.344 43.048 29.984 43.048C30.264 43.048 30.508 43.092 30.716 43.18C30.932 43.26 31.12 43.388 31.28 43.564L30.188 44.944C30.108 44.856 30.008 44.788 29.888 44.74C29.768 44.692 29.632 44.668 29.48 44.668C29.176 44.668 28.932 44.764 28.748 44.956C28.572 45.14 28.484 45.42 28.484 45.796ZM34.485 49.132C33.853 49.132 33.289 49.004 32.793 48.748C32.305 48.484 31.921 48.12 31.641 47.656C31.361 47.192 31.221 46.668 31.221 46.084C31.221 45.5 31.357 44.98 31.629 44.524C31.909 44.06 32.285 43.696 32.757 43.432C33.229 43.168 33.761 43.036 34.353 43.036C34.929 43.036 35.437 43.16 35.877 43.408C36.317 43.656 36.661 44 36.909 44.44C37.165 44.88 37.293 45.384 37.293 45.952C37.293 46.056 37.285 46.168 37.269 46.288C37.261 46.4 37.241 46.532 37.209 46.684L32.181 46.696V45.436L36.429 45.424L35.637 45.952C35.629 45.616 35.577 45.34 35.481 45.124C35.385 44.9 35.241 44.732 35.049 44.62C34.865 44.5 34.637 44.44 34.365 44.44C34.077 44.44 33.825 44.508 33.609 44.644C33.401 44.772 33.237 44.956 33.117 45.196C33.005 45.436 32.949 45.728 32.949 46.072C32.949 46.416 33.009 46.712 33.129 46.96C33.257 47.2 33.433 47.388 33.657 47.524C33.889 47.652 34.161 47.716 34.473 47.716C34.761 47.716 35.021 47.668 35.253 47.572C35.485 47.468 35.689 47.316 35.865 47.116L36.873 48.124C36.585 48.46 36.237 48.712 35.829 48.88C35.421 49.048 34.973 49.132 34.485 49.132ZM40.3033 49.144C39.9593 49.144 39.6193 49.1 39.2833 49.012C38.9553 48.924 38.6473 48.8 38.3593 48.64C38.0793 48.472 37.8393 48.28 37.6393 48.064L38.6833 47.008C38.8753 47.216 39.1033 47.38 39.3673 47.5C39.6313 47.612 39.9193 47.668 40.2313 47.668C40.4473 47.668 40.6113 47.636 40.7233 47.572C40.8433 47.508 40.9033 47.42 40.9033 47.308C40.9033 47.164 40.8313 47.056 40.6873 46.984C40.5513 46.904 40.3753 46.836 40.1593 46.78C39.9433 46.716 39.7153 46.648 39.4753 46.576C39.2352 46.504 39.0073 46.404 38.7913 46.276C38.5753 46.148 38.3993 45.972 38.2633 45.748C38.1273 45.516 38.0593 45.224 38.0593 44.872C38.0593 44.496 38.1553 44.172 38.3473 43.9C38.5393 43.62 38.8113 43.4 39.1633 43.24C39.5153 43.08 39.9273 43 40.3993 43C40.8953 43 41.3513 43.088 41.7673 43.264C42.1913 43.432 42.5353 43.684 42.7993 44.02L41.7553 45.076C41.5713 44.86 41.3633 44.708 41.1313 44.62C40.9073 44.532 40.6873 44.488 40.4713 44.488C40.2633 44.488 40.1073 44.52 40.0033 44.584C39.8993 44.64 39.8473 44.724 39.8473 44.836C39.8473 44.956 39.9153 45.052 40.0513 45.124C40.1873 45.196 40.3633 45.26 40.5793 45.316C40.7953 45.372 41.0233 45.44 41.2633 45.52C41.5033 45.6 41.7313 45.708 41.9473 45.844C42.1633 45.98 42.3393 46.164 42.4753 46.396C42.6113 46.62 42.6793 46.916 42.6793 47.284C42.6793 47.852 42.4633 48.304 42.0313 48.64C41.6073 48.976 41.0313 49.144 40.3033 49.144ZM47.0353 49.12C46.6433 49.12 46.2833 49.044 45.9553 48.892C45.6273 48.74 45.3593 48.532 45.1513 48.268C44.9433 47.996 44.8233 47.688 44.7913 47.344V44.884C44.8233 44.54 44.9433 44.228 45.1513 43.948C45.3593 43.668 45.6273 43.448 45.9553 43.288C46.2833 43.128 46.6433 43.048 47.0353 43.048C47.5873 43.048 48.0753 43.18 48.4993 43.444C48.9313 43.708 49.2673 44.068 49.5073 44.524C49.7553 44.98 49.8793 45.5 49.8793 46.084C49.8793 46.668 49.7553 47.188 49.5073 47.644C49.2673 48.1 48.9313 48.46 48.4993 48.724C48.0753 48.988 47.5873 49.12 47.0353 49.12ZM46.6993 47.464C46.9633 47.464 47.1913 47.404 47.3833 47.284C47.5833 47.164 47.7393 47 47.8513 46.792C47.9633 46.584 48.0193 46.348 48.0193 46.084C48.0193 45.812 47.9633 45.572 47.8513 45.364C47.7393 45.156 47.5833 44.996 47.3833 44.884C47.1913 44.764 46.9673 44.704 46.7113 44.704C46.4553 44.704 46.2273 44.764 46.0273 44.884C45.8353 44.996 45.6833 45.156 45.5713 45.364C45.4593 45.572 45.4033 45.812 45.4033 46.084C45.4033 46.348 45.4553 46.584 45.5593 46.792C45.6713 47 45.8273 47.164 46.0273 47.284C46.2273 47.404 46.4513 47.464 46.6993 47.464ZM43.6753 51.46V43.168H45.5113V44.668L45.2113 46.084L45.4873 47.5V51.46H43.6753ZM53.6201 49.132C53.0201 49.132 52.4761 49 51.9881 48.736C51.5081 48.464 51.1281 48.096 50.8481 47.632C50.5681 47.168 50.4281 46.648 50.4281 46.072C50.4281 45.496 50.5681 44.98 50.8481 44.524C51.1281 44.068 51.5081 43.708 51.9881 43.444C52.4681 43.172 53.0121 43.036 53.6201 43.036C54.2281 43.036 54.7721 43.168 55.2521 43.432C55.7321 43.696 56.1121 44.06 56.3921 44.524C56.6721 44.98 56.8121 45.496 56.8121 46.072C56.8121 46.648 56.6721 47.168 56.3921 47.632C56.1121 48.096 55.7321 48.464 55.2521 48.736C54.7721 49 54.2281 49.132 53.6201 49.132ZM53.6201 47.464C53.8841 47.464 54.1161 47.408 54.3161 47.296C54.5161 47.176 54.6681 47.012 54.7721 46.804C54.8841 46.588 54.9401 46.344 54.9401 46.072C54.9401 45.8 54.8841 45.564 54.7721 45.364C54.6601 45.156 54.5041 44.996 54.3041 44.884C54.1121 44.764 53.8841 44.704 53.6201 44.704C53.3641 44.704 53.1361 44.764 52.9361 44.884C52.7361 44.996 52.5801 45.156 52.4681 45.364C52.3561 45.572 52.3001 45.812 52.3001 46.084C52.3001 46.348 52.3561 46.588 52.4681 46.804C52.5801 47.012 52.7361 47.176 52.9361 47.296C53.1361 47.408 53.3641 47.464 53.6201 47.464ZM61.5781 49V45.676C61.5781 45.372 61.4821 45.128 61.2901 44.944C61.1061 44.752 60.8701 44.656 60.5821 44.656C60.3821 44.656 60.2061 44.7 60.0541 44.788C59.9021 44.868 59.7821 44.988 59.6941 45.148C59.6061 45.3 59.5621 45.476 59.5621 45.676L58.8541 45.328C58.8541 44.872 58.9541 44.472 59.1541 44.128C59.3541 43.784 59.6301 43.52 59.9821 43.336C60.3421 43.144 60.7461 43.048 61.1941 43.048C61.6261 43.048 62.0061 43.152 62.3341 43.36C62.6701 43.56 62.9341 43.828 63.1261 44.164C63.3181 44.5 63.4141 44.868 63.4141 45.268V49H61.5781ZM57.7261 49V43.168H59.5621V49H57.7261ZM66.7173 49.144C66.3733 49.144 66.0333 49.1 65.6973 49.012C65.3693 48.924 65.0613 48.8 64.7733 48.64C64.4933 48.472 64.2533 48.28 64.0533 48.064L65.0973 47.008C65.2893 47.216 65.5173 47.38 65.7813 47.5C66.0453 47.612 66.3333 47.668 66.6453 47.668C66.8613 47.668 67.0253 47.636 67.1373 47.572C67.2573 47.508 67.3173 47.42 67.3173 47.308C67.3173 47.164 67.2453 47.056 67.1013 46.984C66.9653 46.904 66.7893 46.836 66.5733 46.78C66.3573 46.716 66.1293 46.648 65.8893 46.576C65.6493 46.504 65.4213 46.404 65.2053 46.276C64.9893 46.148 64.8133 45.972 64.6773 45.748C64.5413 45.516 64.4733 45.224 64.4733 44.872C64.4733 44.496 64.5693 44.172 64.7613 43.9C64.9533 43.62 65.2253 43.4 65.5773 43.24C65.9293 43.08 66.3413 43 66.8133 43C67.3093 43 67.7653 43.088 68.1813 43.264C68.6053 43.432 68.9493 43.684 69.2133 44.02L68.1693 45.076C67.9853 44.86 67.7773 44.708 67.5453 44.62C67.3213 44.532 67.1013 44.488 66.8853 44.488C66.6773 44.488 66.5213 44.52 66.4173 44.584C66.3133 44.64 66.2613 44.724 66.2613 44.836C66.2613 44.956 66.3293 45.052 66.4653 45.124C66.6013 45.196 66.7773 45.26 66.9933 45.316C67.2093 45.372 67.4373 45.44 67.6773 45.52C67.9173 45.6 68.1453 45.708 68.3613 45.844C68.5773 45.98 68.7533 46.164 68.8893 46.396C69.0253 46.62 69.0933 46.916 69.0933 47.284C69.0933 47.852 68.8773 48.304 68.4453 48.64C68.0213 48.976 67.4453 49.144 66.7173 49.144ZM72.5254 49.12C71.9894 49.12 71.5094 48.988 71.0854 48.724C70.6694 48.46 70.3374 48.1 70.0894 47.644C69.8494 47.188 69.7294 46.668 69.7294 46.084C69.7294 45.5 69.8494 44.98 70.0894 44.524C70.3374 44.068 70.6694 43.708 71.0854 43.444C71.5094 43.18 71.9894 43.048 72.5254 43.048C72.9174 43.048 73.2694 43.124 73.5814 43.276C73.9014 43.428 74.1614 43.64 74.3614 43.912C74.5614 44.176 74.6734 44.48 74.6974 44.824V47.344C74.6734 47.688 74.5614 47.996 74.3614 48.268C74.1694 48.532 73.9134 48.74 73.5934 48.892C73.2734 49.044 72.9174 49.12 72.5254 49.12ZM72.8974 47.464C73.2894 47.464 73.6054 47.336 73.8454 47.08C74.0854 46.816 74.2054 46.484 74.2054 46.084C74.2054 45.812 74.1494 45.572 74.0374 45.364C73.9334 45.156 73.7814 44.996 73.5814 44.884C73.3894 44.764 73.1654 44.704 72.9094 44.704C72.6534 44.704 72.4254 44.764 72.2254 44.884C72.0334 44.996 71.8774 45.156 71.7574 45.364C71.6454 45.572 71.5894 45.812 71.5894 46.084C71.5894 46.348 71.6454 46.584 71.7574 46.792C71.8694 47 72.0254 47.164 72.2254 47.284C72.4254 47.404 72.6494 47.464 72.8974 47.464ZM74.1334 49V47.428L74.4094 46.012L74.1334 44.596V43.168H75.9334V49H74.1334ZM72.0334 42.508L71.4334 41.632L73.3414 39.844L74.3494 41.26L72.0334 42.508ZM79.0621 49L76.5901 43.168H78.5701L80.2501 48.028H79.3861L81.0661 43.168H83.0101L80.5381 48.988L79.0621 49ZM86.3874 49.132C85.7554 49.132 85.1914 49.004 84.6954 48.748C84.2074 48.484 83.8234 48.12 83.5434 47.656C83.2634 47.192 83.1234 46.668 83.1234 46.084C83.1234 45.5 83.2594 44.98 83.5314 44.524C83.8114 44.06 84.1874 43.696 84.6594 43.432C85.1314 43.168 85.6634 43.036 86.2554 43.036C86.8314 43.036 87.3394 43.16 87.7794 43.408C88.2194 43.656 88.5634 44 88.8114 44.44C89.0674 44.88 89.1954 45.384 89.1954 45.952C89.1954 46.056 89.1874 46.168 89.1714 46.288C89.1634 46.4 89.1434 46.532 89.1114 46.684L84.0834 46.696V45.436L88.3314 45.424L87.5394 45.952C87.5314 45.616 87.4794 45.34 87.3834 45.124C87.2874 44.9 87.1434 44.732 86.9514 44.62C86.7674 44.5 86.5394 44.44 86.2674 44.44C85.9794 44.44 85.7274 44.508 85.5114 44.644C85.3034 44.772 85.1394 44.956 85.0194 45.196C84.9074 45.436 84.8514 45.728 84.8514 46.072C84.8514 46.416 84.9114 46.712 85.0314 46.96C85.1594 47.2 85.3354 47.388 85.5594 47.524C85.7914 47.652 86.0634 47.716 86.3754 47.716C86.6634 47.716 86.9234 47.668 87.1554 47.572C87.3874 47.468 87.5914 47.316 87.7674 47.116L88.7754 48.124C88.4874 48.46 88.1394 48.712 87.7314 48.88C87.3234 49.048 86.8754 49.132 86.3874 49.132ZM90.0816 49V43.168H91.9176V49H90.0816ZM91.0056 42.364C90.7176 42.364 90.4776 42.268 90.2856 42.076C90.1016 41.876 90.0096 41.636 90.0096 41.356C90.0096 41.068 90.1016 40.828 90.2856 40.636C90.4776 40.444 90.7176 40.348 91.0056 40.348C91.2936 40.348 91.5296 40.444 91.7136 40.636C91.8976 40.828 91.9896 41.068 91.9896 41.356C91.9896 41.636 91.8976 41.876 91.7136 42.076C91.5296 42.268 91.2936 42.364 91.0056 42.364ZM95.3345 49.144C94.9905 49.144 94.6505 49.1 94.3145 49.012C93.9865 48.924 93.6785 48.8 93.3905 48.64C93.1105 48.472 92.8705 48.28 92.6705 48.064L93.7145 47.008C93.9065 47.216 94.1345 47.38 94.3985 47.5C94.6625 47.612 94.9505 47.668 95.2625 47.668C95.4785 47.668 95.6425 47.636 95.7545 47.572C95.8745 47.508 95.9345 47.42 95.9345 47.308C95.9345 47.164 95.8625 47.056 95.7185 46.984C95.5825 46.904 95.4065 46.836 95.1905 46.78C94.9745 46.716 94.7465 46.648 94.5065 46.576C94.2665 46.504 94.0385 46.404 93.8225 46.276C93.6065 46.148 93.4305 45.972 93.2945 45.748C93.1585 45.516 93.0905 45.224 93.0905 44.872C93.0905 44.496 93.1865 44.172 93.3785 43.9C93.5705 43.62 93.8425 43.4 94.1945 43.24C94.5465 43.08 94.9585 43 95.4305 43C95.9265 43 96.3825 43.088 96.7985 43.264C97.2225 43.432 97.5665 43.684 97.8305 44.02L96.7865 45.076C96.6025 44.86 96.3945 44.708 96.1625 44.62C95.9385 44.532 95.7185 44.488 95.5025 44.488C95.2945 44.488 95.1385 44.52 95.0345 44.584C94.9305 44.64 94.8785 44.724 94.8785 44.836C94.8785 44.956 94.9465 45.052 95.0825 45.124C95.2185 45.196 95.3945 45.26 95.6105 45.316C95.8265 45.372 96.0545 45.44 96.2945 45.52C96.5345 45.6 96.7625 45.708 96.9785 45.844C97.1945 45.98 97.3705 46.164 97.5065 46.396C97.6425 46.62 97.7105 46.916 97.7105 47.284C97.7105 47.852 97.4945 48.304 97.0625 48.64C96.6385 48.976 96.0625 49.144 95.3345 49.144ZM29.468 63.132C28.868 63.132 28.324 63 27.836 62.736C27.348 62.472 26.964 62.108 26.684 61.644C26.404 61.18 26.264 60.66 26.264 60.084C26.264 59.5 26.404 58.98 26.684 58.524C26.972 58.06 27.36 57.696 27.848 57.432C28.336 57.168 28.884 57.036 29.492 57.036C29.948 57.036 30.364 57.116 30.74 57.276C31.124 57.428 31.464 57.66 31.76 57.972L30.584 59.148C30.448 58.996 30.288 58.884 30.104 58.812C29.928 58.74 29.724 58.704 29.492 58.704C29.228 58.704 28.992 58.764 28.784 58.884C28.584 58.996 28.424 59.156 28.304 59.364C28.192 59.564 28.136 59.8 28.136 60.072C28.136 60.344 28.192 60.584 28.304 60.792C28.424 61 28.588 61.164 28.796 61.284C29.004 61.404 29.236 61.464 29.492 61.464C29.732 61.464 29.944 61.424 30.128 61.344C30.32 61.256 30.484 61.136 30.62 60.984L31.784 62.16C31.48 62.48 31.136 62.724 30.752 62.892C30.368 63.052 29.94 63.132 29.468 63.132ZM34.8965 63.12C34.3605 63.12 33.8805 62.988 33.4565 62.724C33.0405 62.46 32.7085 62.1 32.4605 61.644C32.2205 61.188 32.1005 60.668 32.1005 60.084C32.1005 59.5 32.2205 58.98 32.4605 58.524C32.7085 58.068 33.0405 57.708 33.4565 57.444C33.8805 57.18 34.3605 57.048 34.8965 57.048C35.2885 57.048 35.6405 57.124 35.9525 57.276C36.2725 57.428 36.5325 57.64 36.7325 57.912C36.9325 58.176 37.0445 58.48 37.0685 58.824V61.344C37.0445 61.688 36.9325 61.996 36.7325 62.268C36.5405 62.532 36.2845 62.74 35.9645 62.892C35.6445 63.044 35.2885 63.12 34.8965 63.12ZM35.2685 61.464C35.6605 61.464 35.9765 61.336 36.2165 61.08C36.4565 60.816 36.5765 60.484 36.5765 60.084C36.5765 59.812 36.5205 59.572 36.4085 59.364C36.3045 59.156 36.1525 58.996 35.9525 58.884C35.7605 58.764 35.5365 58.704 35.2805 58.704C35.0245 58.704 34.7965 58.764 34.5965 58.884C34.4045 58.996 34.2485 59.156 34.1285 59.364C34.0165 59.572 33.9605 59.812 33.9605 60.084C33.9605 60.348 34.0165 60.584 34.1285 60.792C34.2405 61 34.3965 61.164 34.5965 61.284C34.7965 61.404 35.0205 61.464 35.2685 61.464ZM36.5045 63V61.428L36.7805 60.012L36.5045 58.596V57.168H38.3045V63H36.5045ZM42.0812 63.12C41.5292 63.12 41.0372 62.988 40.6052 62.724C40.1812 62.46 39.8452 62.1 39.5972 61.644C39.3572 61.188 39.2372 60.668 39.2372 60.084C39.2372 59.5 39.3572 58.98 39.5972 58.524C39.8452 58.068 40.1812 57.708 40.6052 57.444C41.0372 57.18 41.5292 57.048 42.0812 57.048C42.4812 57.048 42.8412 57.124 43.1612 57.276C43.4892 57.428 43.7572 57.64 43.9652 57.912C44.1812 58.176 44.3012 58.48 44.3252 58.824V61.284C44.3012 61.628 44.1852 61.94 43.9772 62.22C43.7692 62.492 43.5012 62.712 43.1732 62.88C42.8452 63.04 42.4812 63.12 42.0812 63.12ZM42.4052 61.464C42.6692 61.464 42.8972 61.408 43.0892 61.296C43.2812 61.176 43.4332 61.012 43.5452 60.804C43.6572 60.596 43.7132 60.356 43.7132 60.084C43.7132 59.812 43.6572 59.576 43.5452 59.376C43.4412 59.168 43.2892 59.004 43.0892 58.884C42.8972 58.764 42.6732 58.704 42.4172 58.704C42.1612 58.704 41.9332 58.764 41.7332 58.884C41.5412 59.004 41.3852 59.168 41.2652 59.376C41.1532 59.584 41.0972 59.82 41.0972 60.084C41.0972 60.348 41.1532 60.584 41.2652 60.792C41.3772 61 41.5332 61.164 41.7332 61.284C41.9332 61.404 42.1572 61.464 42.4052 61.464ZM45.4412 63H43.6412V61.428L43.9172 60.012L43.6052 58.596V54.288H45.4412V63ZM49.1699 63.12C48.6339 63.12 48.1539 62.988 47.7299 62.724C47.3139 62.46 46.9819 62.1 46.7339 61.644C46.4939 61.188 46.3739 60.668 46.3739 60.084C46.3739 59.5 46.4939 58.98 46.7339 58.524C46.9819 58.068 47.3139 57.708 47.7299 57.444C48.1539 57.18 48.6339 57.048 49.1699 57.048C49.5619 57.048 49.9139 57.124 50.2259 57.276C50.5459 57.428 50.8059 57.64 51.0059 57.912C51.2059 58.176 51.3179 58.48 51.3419 58.824V61.344C51.3179 61.688 51.2059 61.996 51.0059 62.268C50.8139 62.532 50.5579 62.74 50.2379 62.892C49.9179 63.044 49.5619 63.12 49.1699 63.12ZM49.5419 61.464C49.9339 61.464 50.2499 61.336 50.4899 61.08C50.7299 60.816 50.8499 60.484 50.8499 60.084C50.8499 59.812 50.7939 59.572 50.6819 59.364C50.5779 59.156 50.4259 58.996 50.2259 58.884C50.0339 58.764 49.8099 58.704 49.5539 58.704C49.2979 58.704 49.0699 58.764 48.8699 58.884C48.6779 58.996 48.5219 59.156 48.4019 59.364C48.2899 59.572 48.2339 59.812 48.2339 60.084C48.2339 60.348 48.2899 60.584 48.4019 60.792C48.5139 61 48.6699 61.164 48.8699 61.284C49.0699 61.404 49.2939 61.464 49.5419 61.464ZM50.7779 63V61.428L51.0539 60.012L50.7779 58.596V57.168H52.5779V63H50.7779ZM55.9947 63.144C55.6507 63.144 55.3107 63.1 54.9747 63.012C54.6467 62.924 54.3387 62.8 54.0507 62.64C53.7707 62.472 53.5307 62.28 53.3307 62.064L54.3747 61.008C54.5667 61.216 54.7947 61.38 55.0587 61.5C55.3227 61.612 55.6107 61.668 55.9227 61.668C56.1387 61.668 56.3027 61.636 56.4147 61.572C56.5347 61.508 56.5947 61.42 56.5947 61.308C56.5947 61.164 56.5227 61.056 56.3787 60.984C56.2427 60.904 56.0667 60.836 55.8507 60.78C55.6347 60.716 55.4067 60.648 55.1667 60.576C54.9267 60.504 54.6987 60.404 54.4827 60.276C54.2667 60.148 54.0907 59.972 53.9547 59.748C53.8187 59.516 53.7507 59.224 53.7507 58.872C53.7507 58.496 53.8467 58.172 54.0387 57.9C54.2307 57.62 54.5027 57.4 54.8547 57.24C55.2067 57.08 55.6187 57 56.0907 57C56.5867 57 57.0427 57.088 57.4587 57.264C57.8827 57.432 58.2267 57.684 58.4907 58.02L57.4467 59.076C57.2627 58.86 57.0547 58.708 56.8227 58.62C56.5987 58.532 56.3787 58.488 56.1627 58.488C55.9547 58.488 55.7987 58.52 55.6947 58.584C55.5907 58.64 55.5387 58.724 55.5387 58.836C55.5387 58.956 55.6067 59.052 55.7427 59.124C55.8787 59.196 56.0547 59.26 56.2707 59.316C56.4867 59.372 56.7147 59.44 56.9547 59.52C57.1947 59.6 57.4227 59.708 57.6387 59.844C57.8547 59.98 58.0307 60.164 58.1667 60.396C58.3027 60.62 58.3707 60.916 58.3707 61.284C58.3707 61.852 58.1547 62.304 57.7227 62.64C57.2987 62.976 56.7227 63.144 55.9947 63.144ZM60.1948 63V54.756H62.0308V63H60.1948ZM58.8748 58.728V57.168H63.3508V58.728H58.8748ZM64.1597 63V57.168H65.9957V63H64.1597ZM65.9957 59.796L65.2277 59.196C65.3797 58.516 65.6357 57.988 65.9957 57.612C66.3557 57.236 66.8557 57.048 67.4957 57.048C67.7757 57.048 68.0197 57.092 68.2277 57.18C68.4437 57.26 68.6317 57.388 68.7917 57.564L67.6997 58.944C67.6197 58.856 67.5197 58.788 67.3997 58.74C67.2797 58.692 67.1437 58.668 66.9917 58.668C66.6877 58.668 66.4437 58.764 66.2597 58.956C66.0837 59.14 65.9957 59.42 65.9957 59.796ZM71.5527 63.12C71.0168 63.12 70.5368 62.988 70.1128 62.724C69.6968 62.46 69.3648 62.1 69.1168 61.644C68.8768 61.188 68.7568 60.668 68.7568 60.084C68.7568 59.5 68.8768 58.98 69.1168 58.524C69.3648 58.068 69.6968 57.708 70.1128 57.444C70.5368 57.18 71.0168 57.048 71.5527 57.048C71.9448 57.048 72.2968 57.124 72.6088 57.276C72.9288 57.428 73.1888 57.64 73.3888 57.912C73.5888 58.176 73.7008 58.48 73.7248 58.824V61.344C73.7008 61.688 73.5888 61.996 73.3888 62.268C73.1968 62.532 72.9408 62.74 72.6208 62.892C72.3008 63.044 71.9448 63.12 71.5527 63.12ZM71.9248 61.464C72.3168 61.464 72.6328 61.336 72.8728 61.08C73.1128 60.816 73.2328 60.484 73.2328 60.084C73.2328 59.812 73.1768 59.572 73.0648 59.364C72.9608 59.156 72.8088 58.996 72.6088 58.884C72.4168 58.764 72.1928 58.704 71.9368 58.704C71.6808 58.704 71.4528 58.764 71.2528 58.884C71.0608 58.996 70.9048 59.156 70.7848 59.364C70.6728 59.572 70.6168 59.812 70.6168 60.084C70.6168 60.348 70.6728 60.584 70.7848 60.792C70.8968 61 71.0528 61.164 71.2528 61.284C71.4528 61.404 71.6768 61.464 71.9248 61.464ZM73.1608 63V61.428L73.4368 60.012L73.1608 58.596V57.168H74.9608V63H73.1608ZM78.7375 63.12C78.1855 63.12 77.6935 62.988 77.2615 62.724C76.8375 62.46 76.5015 62.1 76.2535 61.644C76.0135 61.188 75.8935 60.668 75.8935 60.084C75.8935 59.5 76.0135 58.98 76.2535 58.524C76.5015 58.068 76.8375 57.708 77.2615 57.444C77.6935 57.18 78.1855 57.048 78.7375 57.048C79.1375 57.048 79.4975 57.124 79.8175 57.276C80.1455 57.428 80.4135 57.64 80.6215 57.912C80.8375 58.176 80.9575 58.48 80.9815 58.824V61.284C80.9575 61.628 80.8415 61.94 80.6335 62.22C80.4255 62.492 80.1575 62.712 79.8295 62.88C79.5015 63.04 79.1375 63.12 78.7375 63.12ZM79.0615 61.464C79.3255 61.464 79.5535 61.408 79.7455 61.296C79.9375 61.176 80.0895 61.012 80.2015 60.804C80.3135 60.596 80.3695 60.356 80.3695 60.084C80.3695 59.812 80.3135 59.576 80.2015 59.376C80.0975 59.168 79.9455 59.004 79.7455 58.884C79.5535 58.764 79.3295 58.704 79.0735 58.704C78.8175 58.704 78.5895 58.764 78.3895 58.884C78.1975 59.004 78.0415 59.168 77.9215 59.376C77.8095 59.584 77.7535 59.82 77.7535 60.084C77.7535 60.348 77.8095 60.584 77.9215 60.792C78.0335 61 78.1895 61.164 78.3895 61.284C78.5895 61.404 78.8135 61.464 79.0615 61.464ZM82.0975 63H80.2975V61.428L80.5735 60.012L80.2615 58.596V54.288H82.0975V63ZM86.1982 63.132C85.5982 63.132 85.0542 63 84.5662 62.736C84.0862 62.464 83.7062 62.096 83.4262 61.632C83.1462 61.168 83.0062 60.648 83.0062 60.072C83.0062 59.496 83.1462 58.98 83.4262 58.524C83.7062 58.068 84.0862 57.708 84.5662 57.444C85.0462 57.172 85.5902 57.036 86.1982 57.036C86.8062 57.036 87.3502 57.168 87.8302 57.432C88.3102 57.696 88.6902 58.06 88.9702 58.524C89.2502 58.98 89.3902 59.496 89.3902 60.072C89.3902 60.648 89.2502 61.168 88.9702 61.632C88.6902 62.096 88.3102 62.464 87.8302 62.736C87.3502 63 86.8062 63.132 86.1982 63.132ZM86.1982 61.464C86.4622 61.464 86.6942 61.408 86.8942 61.296C87.0942 61.176 87.2462 61.012 87.3502 60.804C87.4622 60.588 87.5182 60.344 87.5182 60.072C87.5182 59.8 87.4622 59.564 87.3502 59.364C87.2382 59.156 87.0822 58.996 86.8822 58.884C86.6902 58.764 86.4622 58.704 86.1982 58.704C85.9422 58.704 85.7142 58.764 85.5142 58.884C85.3142 58.996 85.1582 59.156 85.0462 59.364C84.9342 59.572 84.8782 59.812 84.8782 60.084C84.8782 60.348 84.9342 60.588 85.0462 60.804C85.1582 61.012 85.3142 61.176 85.5142 61.296C85.7142 61.408 85.9422 61.464 86.1982 61.464ZM92.4283 63.144C92.0843 63.144 91.7443 63.1 91.4083 63.012C91.0803 62.924 90.7723 62.8 90.4843 62.64C90.2043 62.472 89.9643 62.28 89.7643 62.064L90.8083 61.008C91.0003 61.216 91.2283 61.38 91.4923 61.5C91.7563 61.612 92.0443 61.668 92.3563 61.668C92.5723 61.668 92.7363 61.636 92.8483 61.572C92.9683 61.508 93.0283 61.42 93.0283 61.308C93.0283 61.164 92.9563 61.056 92.8123 60.984C92.6763 60.904 92.5003 60.836 92.2843 60.78C92.0683 60.716 91.8403 60.648 91.6003 60.576C91.3602 60.504 91.1323 60.404 90.9163 60.276C90.7003 60.148 90.5243 59.972 90.3883 59.748C90.2523 59.516 90.1843 59.224 90.1843 58.872C90.1843 58.496 90.2803 58.172 90.4723 57.9C90.6643 57.62 90.9363 57.4 91.2883 57.24C91.6403 57.08 92.0523 57 92.5243 57C93.0203 57 93.4763 57.088 93.8923 57.264C94.3163 57.432 94.6603 57.684 94.9243 58.02L93.8803 59.076C93.6963 58.86 93.4883 58.708 93.2563 58.62C93.0323 58.532 92.8123 58.488 92.5963 58.488C92.3883 58.488 92.2323 58.52 92.1283 58.584C92.0243 58.64 91.9723 58.724 91.9723 58.836C91.9723 58.956 92.0403 59.052 92.1763 59.124C92.3123 59.196 92.4883 59.26 92.7043 59.316C92.9203 59.372 93.1483 59.44 93.3883 59.52C93.6283 59.6 93.8563 59.708 94.0723 59.844C94.2883 59.98 94.4643 60.164 94.6003 60.396C94.7363 60.62 94.8043 60.916 94.8043 61.284C94.8043 61.852 94.5883 62.304 94.1563 62.64C93.7323 62.976 93.1563 63.144 92.4283 63.144Z" fill="#64748B"/>
<rect width="43.2701" height="90.2155" rx="21.635" transform="matrix(0.488079 -0.8728 0.883652 0.468144 168 42.7656)" fill="#D2D8E0"/>
<g clip-path="url(#clip0_1645_3945)">
<path d="M226.019 81.2493C222.017 81.6798 217.916 81.0473 214.231 79.5098C212.623 78.886 211.223 77.8141 209.723 76.9795C209.145 76.6544 208.495 76.4348 207.935 76.1097C207.266 75.7231 206.733 75.0554 206.191 74.5195C205.92 74.256 205.631 73.966 205.55 73.597C205.505 73.395 205.514 73.1841 205.532 72.982C205.767 69.8983 205.821 66.8321 206.11 63.7483C206.255 62.2723 206.48 60.8315 206.733 59.3731C206.95 58.1255 206.86 56.834 207.022 55.5777C207.203 54.1192 207.745 52.2479 208.739 51.1145C209.759 49.9548 211.304 49.4804 212.713 48.9357C213.364 48.6809 213.987 48.2065 214.646 48.0044C215.604 47.7145 216.579 47.8726 217.519 47.4334C219.705 46.4054 219.524 44.4111 219.036 42.4782C219 42.3377 218.964 42.1795 218.856 42.0741C218.774 41.9863 218.666 41.9423 218.567 41.8896C217.916 41.5909 217.32 41.2307 216.688 40.9144C214.944 40.027 213.327 38.4193 212.84 36.5304C212.623 35.7133 212.307 34.8611 212.144 34.044C211.981 33.2709 212.153 32.4538 212.162 31.6719C212.18 29.8796 212.234 28.0961 212.325 26.3039C212.37 25.3023 212.28 24.4325 213.129 23.7209C213.779 23.185 214.673 23.062 215.495 23.0444C217.889 22.9829 220.283 23.0707 222.659 23.308C224.664 23.51 226.705 23.8263 228.449 24.8191C230.183 25.8119 231.565 27.6041 231.502 29.5633C231.484 30.152 231.375 30.9427 231.059 31.461C230.815 31.8652 230.409 31.997 230.427 32.5505C230.436 32.8404 230.526 33.1303 230.544 33.4202C230.581 33.8859 230.436 34.3691 230.138 34.7381C229.759 35.2213 229.298 35.6079 228.9 36.0735C228.774 36.2229 228.638 36.381 228.593 36.5655C228.566 36.6797 228.566 36.7939 228.566 36.9169C228.566 37.7252 228.521 38.4632 228.413 39.2715C228.214 40.7123 228.385 42.1444 228.259 43.5677C228.16 44.6132 228.223 45.8256 228.946 46.6866C229.478 47.3279 230.445 47.5212 231.24 47.6354C232.387 47.8024 233.543 47.9605 234.691 48.1274C235.07 48.1801 235.476 48.2153 235.829 48.3734C236.587 48.7073 237.346 49.0587 238.006 49.5683C238.972 50.315 239.46 51.3518 239.776 52.4763C240.932 56.6495 242.08 60.8139 243.236 64.9871C243.615 66.3664 243.995 67.7985 243.715 69.1954C243.489 70.2848 242.874 71.26 242.197 72.1562C238.367 77.1816 232.369 80.564 226.019 81.2493Z" fill="white"/>
<path d="M220.644 51.5272C220.554 53.0559 220.599 56.1133 220.572 56.5438C220.418 58.4678 219.921 60.5325 220.12 62.4565C220.292 64.1697 219.867 66.0235 219.831 67.7718C219.768 70.6887 219.569 73.6407 219.587 76.5487C219.587 77.0495 219.542 78.0247 220.084 78.3058C220.509 78.5255 221.493 78.2356 221.936 78.1916C223.607 78.0071 225.269 77.7348 226.904 77.357C227.076 77.3218 227.247 77.2779 227.374 77.1549C227.536 76.9968 227.563 76.7508 227.582 76.5223C227.834 72.8412 227.383 69.239 227.021 65.5754C226.696 62.1842 226.633 58.7841 226.47 55.3929C226.425 54.5406 226.38 53.6972 226.317 52.845C226.272 52.2037 226.299 51.5535 226.236 50.9122C226.227 50.8682 226.227 50.8155 226.181 50.7892C226.145 50.7628 226.091 50.7716 226.046 50.7804C225.215 50.921 224.429 50.9825 223.58 50.9034C222.649 50.8243 221.719 50.7452 220.798 50.6662C220.725 50.6574 220.68 51.0088 220.644 51.5272Z" fill="#A6B0BF"/>
<path d="M233.209 24.4495C233.037 22.4376 232.279 20.1884 230.364 19.3977C228.982 18.8179 227.554 19.3977 226.181 18.8969C224.944 18.4401 223.923 17.5967 222.722 17.0783C220.888 16.2876 218.838 15.9098 216.841 16.1997C215.522 16.393 214.213 16.7093 212.876 16.6742C212.316 16.6566 211.738 16.5863 211.223 16.7796C210.247 17.1486 209.732 18.3434 209.723 19.2923C209.723 20.3993 209.687 21.6381 209.85 22.7451C210.012 23.852 210.464 24.9502 211.313 25.697C211.774 26.1012 212.343 26.3911 212.921 26.6107C214.953 27.4014 216.742 26.9007 218.792 26.6722C221.403 26.3823 224.041 24.2562 224.998 27.9813C225.17 28.649 225.513 29.2201 225.757 29.8526C226.028 30.5555 225.992 31.4165 225.938 32.1633C225.91 32.5938 226.073 33.0682 226.624 32.8837C226.895 32.7958 227.067 32.5323 227.193 32.2775C227.591 31.4868 228.449 30.7224 229.442 31.0036C230.472 31.2935 230.734 32.9452 230.4 33.7886C230.3 34.0522 230.002 34.3597 230.02 34.632C230.364 34.4739 230.68 34.1664 230.924 33.8853C231.484 33.2527 231.881 32.462 232.179 31.6713C233.065 29.3694 233.417 26.8919 233.209 24.4495Z" fill="#8996A9"/>
</g>
<defs>
<clipPath id="clip0_1645_3945">
<rect width="54.0808" height="65.295" fill="white" transform="translate(189.688 16.0947)"/>
</clipPath>
</defs>
</svg>
