<svg width="41" height="41" viewBox="0 0 41 41" fill="none" xmlns="http://www.w3.org/2000/svg">
<path d="M14.25 35.7705H5.5V39.5205H14.25V35.7705Z" fill="#A78ED7"/>
<path d="M35.5 35.7705H26.75V39.5205H35.5V35.7705Z" fill="#A78ED7"/>
<path d="M1.75 27.0205V30.7705C1.75 32.1455 2.875 33.2705 4.25 33.2705H36.75C38.125 33.2705 39.25 32.1455 39.25 30.7705V27.0205H1.75ZM21.125 31.3955H7.375C6.6875 31.3955 6.125 30.833 6.125 30.1455C6.125 29.458 6.6875 28.8955 7.375 28.8955H21.125C21.8125 28.8955 22.375 29.458 22.375 30.1455C22.375 30.833 21.8125 31.3955 21.125 31.3955ZM28.625 31.3955H27.375C26.6875 31.3955 26.125 30.833 26.125 30.1455C26.125 29.458 26.6875 28.8955 27.375 28.8955H28.625C29.3125 28.8955 29.875 29.458 29.875 30.1455C29.875 30.833 29.3125 31.3955 28.625 31.3955ZM33.625 31.3955H32.375C31.6875 31.3955 31.125 30.833 31.125 30.1455C31.125 29.458 31.6875 28.8955 32.375 28.8955H33.625C34.3125 28.8955 34.875 29.458 34.875 30.1455C34.875 30.833 34.3125 31.3955 33.625 31.3955Z" fill="#A78ED7"/>
<path d="M35.5 2.02051H5.5C3.4375 2.02051 1.75 3.70801 1.75 5.77051V23.2705C1.75 23.958 2.3125 24.5205 3 24.5205C3.6875 24.5205 4.25 23.958 4.25 23.2705V5.77051C4.25 5.08301 4.8125 4.52051 5.5 4.52051H35.5C36.1875 4.52051 36.75 5.08301 36.75 5.77051V23.2705C36.75 23.958 37.3125 24.5205 38 24.5205C38.6875 24.5205 39.25 23.958 39.25 23.2705V5.77051C39.25 3.70801 37.5625 2.02051 35.5 2.02051Z" fill="#553597"/>
<path d="M33.625 6.39551H32.375C31.6875 6.39551 31.125 6.95801 31.125 7.64551C31.125 8.33301 31.6875 8.89551 32.375 8.89551H33.625C34.3125 8.89551 34.875 8.33301 34.875 7.64551C34.875 6.95801 34.3125 6.39551 33.625 6.39551Z" fill="#553597"/>
<path d="M28.625 8.89551C29.3125 8.89551 29.875 8.33301 29.875 7.64551C29.875 6.95801 29.3125 6.39551 28.625 6.39551H27.375C26.6875 6.39551 26.125 6.95801 26.125 7.64551C26.125 8.33301 26.6875 8.89551 27.375 8.89551H28.625Z" fill="#553597"/>
<path d="M33.6248 14.5206H25.4998C24.9998 14.5206 24.5498 14.8206 24.3498 15.2706L23.4373 17.3831L21.7123 9.85805C21.5873 9.30805 21.1123 8.90805 20.5373 8.88305C19.9998 8.85805 19.4623 9.22055 19.2998 9.75805L17.2373 16.3331L16.5873 15.1456C16.3623 14.7456 15.9498 14.4956 15.4873 14.4956H7.3623C6.6748 14.4956 6.1123 15.0581 6.1123 15.7456C6.1123 16.4331 6.6748 16.9956 7.3623 16.9956H14.7498L16.4623 20.0956C16.6998 20.5331 17.1873 20.7956 17.6873 20.7331C18.1873 20.6831 18.5998 20.3456 18.7498 19.8581L20.3123 14.8831L21.8623 21.6331C21.9873 22.1581 22.4248 22.5456 22.9623 22.5956C22.9998 22.5956 23.0373 22.5956 23.0748 22.5956C23.5748 22.5956 24.0248 22.2956 24.2248 21.8456L26.3248 16.9706H33.6248C34.3123 16.9706 34.8748 16.4081 34.8748 15.7206C34.8748 15.0331 34.3123 14.4706 33.6248 14.4706V14.5206Z" fill="#553597"/>
</svg>
