<svg width="40" height="41" viewBox="0 0 40 41" fill="none" xmlns="http://www.w3.org/2000/svg">
<path d="M28.8875 10.508C25.6125 10.133 22.8 9.37051 20.5625 8.24551C20.2125 8.07051 19.7875 8.07051 19.4375 8.24551C17.2 9.38301 14.3875 10.1455 11.1125 10.508C10.475 10.583 10 11.1205 10 11.7455V19.908C10 25.2205 12.9 30.108 17.575 32.658L19.4125 33.658C19.6 33.758 19.8 33.808 20.0125 33.808C20.225 33.808 20.425 33.758 20.6125 33.658L22.4375 32.658C27.1125 30.108 30.0125 25.2205 30.0125 19.908V11.7455C30.0125 11.108 29.5375 10.5705 28.9 10.508H28.8875ZM24.375 20.9705H21.25V24.0955C21.25 24.783 20.6875 25.3455 20 25.3455C19.3125 25.3455 18.75 24.783 18.75 24.0955V20.9705H15.625C14.9375 20.9705 14.375 20.408 14.375 19.7205C14.375 19.033 14.9375 18.4705 15.625 18.4705H18.75V15.3455C18.75 14.658 19.3125 14.0955 20 14.0955C20.6875 14.0955 21.25 14.658 21.25 15.3455V18.4705H24.375C25.0625 18.4705 25.625 19.033 25.625 19.7205C25.625 20.408 25.0625 20.9705 24.375 20.9705Z" fill="#A78ED7"/>
<path d="M20 39.5205C19.7875 39.5205 19.5875 39.4705 19.4 39.3705L15.175 37.0705C8.9 33.6455 5 27.0705 5 19.9205V7.00801C5 6.32051 5.5625 5.75801 6.25 5.75801C16.1625 5.75801 19 2.50801 19.025 2.47051C19.2625 2.18301 19.6375 2.02051 20.0125 2.02051C20.3875 2.02051 20.7375 2.18301 20.975 2.48301C21.05 2.57051 23.925 5.77051 33.75 5.77051C34.4375 5.77051 35 6.33301 35 7.02051V19.9205C35 27.0705 31.1 33.6455 24.825 37.0705L20.6 39.3705C20.4125 39.4705 20.2125 39.5205 20 39.5205ZM7.5 8.24551V19.9205C7.5 26.158 10.9 31.883 16.375 34.8705L20 36.8455L23.625 34.8705C29.1 31.883 32.5 26.158 32.5 19.9205V8.24551C25.175 8.04551 21.5625 6.14551 20 4.95801C18.4375 6.15801 14.825 8.05801 7.5 8.24551Z" fill="#553597"/>
</svg>
