<svg width="40" height="41" viewBox="0 0 40 41" fill="none" xmlns="http://www.w3.org/2000/svg">
<path d="M20 2.02051C16.2125 2.02051 13.125 5.10801 13.125 8.89551C13.125 12.683 16.2125 15.7705 20 15.7705C23.7875 15.7705 26.875 12.683 26.875 8.89551C26.875 5.10801 23.7875 2.02051 20 2.02051ZM23.05 10.1455H21.25V11.9455C21.25 12.633 20.6875 13.1955 20 13.1955C19.3125 13.1955 18.75 12.633 18.75 11.9455V10.1455H16.95C16.2625 10.1455 15.7 9.58301 15.7 8.89551C15.7 8.20801 16.2625 7.64551 16.95 7.64551H18.75V5.84551C18.75 5.15801 19.3125 4.59551 20 4.59551C20.6875 4.59551 21.25 5.15801 21.25 5.84551V7.64551H23.05C23.7375 7.64551 24.3 8.20801 24.3 8.89551C24.3 9.58301 23.7375 10.1455 23.05 10.1455Z" fill="#A78ED7"/>
<path d="M35.625 12.808H33.125V11.3955C33.125 9.67051 31.725 8.27051 30 8.27051C29.3125 8.27051 28.75 8.83301 28.75 9.52051C28.75 10.208 29.3125 10.7705 30 10.7705C30.35 10.7705 30.625 11.0455 30.625 11.3955V37.0205H27.5V30.7705C27.5 30.083 26.9375 29.5205 26.25 29.5205H13.75C13.0625 29.5205 12.5 30.083 12.5 30.7705V37.0205H9.375V11.3955C9.375 11.0455 9.65 10.7705 10 10.7705C10.6875 10.7705 11.25 10.208 11.25 9.52051C11.25 8.83301 10.6875 8.27051 10 8.27051C8.275 8.27051 6.875 9.67051 6.875 11.3955V12.808H4.375C2.65 12.808 1.25 14.208 1.25 15.933V38.2705C1.25 38.958 1.8125 39.5205 2.5 39.5205H37.5C38.1875 39.5205 38.75 38.958 38.75 38.2705V15.933C38.75 14.208 37.35 12.808 35.625 12.808ZM3.75 15.933C3.75 15.583 4.025 15.308 4.375 15.308H6.875V37.0205H3.75V15.933ZM25 37.0205H21.25V32.0205H25V37.0205ZM15 32.0205H18.75V37.0205H15V32.0205ZM36.25 37.0205H33.125V15.308H35.625C35.975 15.308 36.25 15.583 36.25 15.933V37.0205Z" fill="#553597"/>
<path d="M13.75 26.383H17.5C18.1875 26.383 18.75 25.8205 18.75 25.133C18.75 24.4455 18.1875 23.883 17.5 23.883H13.75C13.0625 23.883 12.5 24.4455 12.5 25.133C12.5 25.8205 13.0625 26.383 13.75 26.383Z" fill="#553597"/>
<path d="M22.5 26.383H26.25C26.9375 26.383 27.5 25.8205 27.5 25.133C27.5 24.4455 26.9375 23.883 26.25 23.883H22.5C21.8125 23.883 21.25 24.4455 21.25 25.133C21.25 25.8205 21.8125 26.383 22.5 26.383Z" fill="#553597"/>
<path d="M22.5 21.383H26.25C26.9375 21.383 27.5 20.8205 27.5 20.133C27.5 19.4455 26.9375 18.883 26.25 18.883H22.5C21.8125 18.883 21.25 19.4455 21.25 20.133C21.25 20.8205 21.8125 21.383 22.5 21.383Z" fill="#553597"/>
<path d="M13.75 21.383H17.5C18.1875 21.383 18.75 20.8205 18.75 20.133C18.75 19.4455 18.1875 18.883 17.5 18.883H13.75C13.0625 18.883 12.5 19.4455 12.5 20.133C12.5 20.8205 13.0625 21.383 13.75 21.383Z" fill="#553597"/>
</svg>
