<svg width="64" height="65" viewBox="0 0 64 65" fill="none" xmlns="http://www.w3.org/2000/svg">
<rect y="0.770508" width="64" height="64" rx="8" fill="#F3F5F7"/>
<path d="M44.5 14.0205H38.25C34.1125 14.0205 30.75 17.383 30.75 21.5205V22.333C29.7 21.5455 28.4125 21.0455 27 21.0455H22C21.3125 21.0455 20.75 21.608 20.75 22.2955V23.5455C20.75 26.9955 23.55 29.7955 27 29.7955H30.75V32.4455H33.25V24.3205H38.25C42.3875 24.3205 45.75 20.958 45.75 16.8205V15.258C45.75 14.5705 45.1875 14.008 44.5 14.008V14.0205Z" fill="#A78ED7"/>
<path d="M47.525 42.9205C47 39.9955 44.45 37.7705 41.375 37.7705C40.7125 37.7705 40.0375 37.883 39.4 38.108C37.8125 35.5955 35.025 34.0205 32 34.0205C28.975 34.0205 26.1875 35.583 24.6 38.108C23.9625 37.883 23.2875 37.7705 22.625 37.7705C19.55 37.7705 16.9875 39.9955 16.475 42.9205C14.625 43.433 13.25 45.133 13.25 47.1455C13.25 49.558 15.2125 51.5205 17.625 51.5205H46.375C48.7875 51.5205 50.75 49.558 50.75 47.1455C50.75 45.133 49.3875 43.433 47.525 42.9205ZM46.375 49.0205H17.625C16.5875 49.0205 15.75 48.183 15.75 47.1455C15.75 46.108 16.5875 45.2705 17.625 45.2705C18.3125 45.2705 18.875 44.708 18.875 44.0205C18.875 41.958 20.5625 40.2705 22.625 40.2705C23.275 40.2705 23.9125 40.4455 24.5125 40.808C24.825 40.9955 25.1875 41.033 25.525 40.9205C25.8625 40.808 26.1375 40.558 26.2875 40.233C27.2875 37.983 29.5375 36.5205 32 36.5205C34.4625 36.5205 36.7 37.983 37.7125 40.233C37.8625 40.558 38.1375 40.808 38.475 40.9205C38.8125 41.033 39.1875 40.983 39.4875 40.808C40.0875 40.458 40.725 40.2705 41.375 40.2705C43 40.2705 44.375 41.3205 44.9 42.7705H28.875C28.1875 42.7705 27.625 43.333 27.625 44.0205C27.625 44.708 28.1875 45.2705 28.875 45.2705H46.375C47.4125 45.2705 48.25 46.108 48.25 47.1455C48.25 48.183 47.4125 49.0205 46.375 49.0205Z" fill="#553597"/>
<path d="M25.75 42.7705H24.5C23.8125 42.7705 23.25 43.333 23.25 44.0205C23.25 44.708 23.8125 45.2705 24.5 45.2705H25.75C26.4375 45.2705 27 44.708 27 44.0205C27 43.333 26.4375 42.7705 25.75 42.7705Z" fill="#553597"/>
</svg>
