<svg width="40" height="41" viewBox="0 0 40 41" fill="none" xmlns="http://www.w3.org/2000/svg">
<path d="M27.5 7.02051H26.25V5.14551C26.25 3.42051 24.85 2.02051 23.125 2.02051H21.875C20.15 2.02051 18.75 3.42051 18.75 5.14551V7.02051H11.25V5.14551C11.25 3.42051 9.85 2.02051 8.125 2.02051H6.875C5.15 2.02051 3.75 3.42051 3.75 5.14551V7.02051H2.5C1.8125 7.02051 1.25 7.58301 1.25 8.27051V38.2705C1.25 38.958 1.8125 39.5205 2.5 39.5205H27.5C28.1875 39.5205 28.75 38.958 28.75 38.2705V8.27051C28.75 7.58301 28.1875 7.02051 27.5 7.02051ZM21.25 5.14551C21.25 4.79551 21.525 4.52051 21.875 4.52051H23.125C23.475 4.52051 23.75 4.79551 23.75 5.14551V7.02051H21.25V5.14551ZM6.25 5.14551C6.25 4.79551 6.525 4.52051 6.875 4.52051H8.125C8.475 4.52051 8.75 4.79551 8.75 5.14551V7.02051H6.25V5.14551ZM26.25 37.0205H3.75V9.52051H26.25V37.0205Z" fill="#553597"/>
<path d="M6.875 35.1455H23.125C23.8125 35.1455 24.375 34.583 24.375 33.8955C24.375 33.208 23.8125 32.6455 23.125 32.6455H6.875C6.1875 32.6455 5.625 33.208 5.625 33.8955C5.625 34.583 6.1875 35.1455 6.875 35.1455Z" fill="#553597"/>
<path d="M6.875 30.1455H23.125C23.8125 30.1455 24.375 29.583 24.375 28.8955C24.375 28.208 23.8125 27.6455 23.125 27.6455H6.875C6.1875 27.6455 5.625 28.208 5.625 28.8955C5.625 29.583 6.1875 30.1455 6.875 30.1455Z" fill="#553597"/>
<path d="M6.875 18.483H23.125C23.8125 18.483 24.375 17.9205 24.375 17.233C24.375 16.5455 23.8125 15.983 23.125 15.983H6.875C6.1875 15.983 5.625 16.5455 5.625 17.233C5.625 17.9205 6.1875 18.483 6.875 18.483Z" fill="#553597"/>
<path d="M11.875 13.8955H23.125C23.8125 13.8955 24.375 13.333 24.375 12.6455C24.375 11.958 23.8125 11.3955 23.125 11.3955H11.875C11.1875 11.3955 10.625 11.958 10.625 12.6455C10.625 13.333 11.1875 13.8955 11.875 13.8955Z" fill="#553597"/>
<path d="M6.875 13.8955H7.5C8.1875 13.8955 8.75 13.333 8.75 12.6455C8.75 11.958 8.1875 11.3955 7.5 11.3955H6.875C6.1875 11.3955 5.625 11.958 5.625 12.6455C5.625 13.333 6.1875 13.8955 6.875 13.8955Z" fill="#553597"/>
<path d="M23.125 23.058H11.875C11.1875 23.058 10.625 23.6205 10.625 24.308C10.625 24.9955 11.1875 25.558 11.875 25.558H23.125C23.8125 25.558 24.375 24.9955 24.375 24.308C24.375 23.6205 23.8125 23.058 23.125 23.058Z" fill="#553597"/>
<path d="M6.875 25.558H7.5C8.1875 25.558 8.75 24.9955 8.75 24.308C8.75 23.6205 8.1875 23.058 7.5 23.058H6.875C6.1875 23.058 5.625 23.6205 5.625 24.308C5.625 24.9955 6.1875 25.558 6.875 25.558Z" fill="#553597"/>
<path d="M37.5 7.02051H33.125C32.4375 7.02051 31.875 7.58301 31.875 8.27051V12.0205H38.75V8.27051C38.75 7.58301 38.1875 7.02051 37.5 7.02051Z" fill="#A78ED7"/>
<path d="M31.875 33.108C31.875 34.3205 32.3125 35.483 33.1125 36.3955L34.0625 37.483V38.258C34.0625 38.9455 34.625 39.508 35.3125 39.508C36 39.508 36.5625 38.9455 36.5625 38.258V37.483L37.5125 36.3955C38.3125 35.483 38.75 34.3205 38.75 33.108V14.5205H31.875V33.108Z" fill="#A78ED7"/>
</svg>
