<svg width="41" height="41" viewBox="0 0 41 41" fill="none" xmlns="http://www.w3.org/2000/svg">
<path d="M35.95 8.24553C33.9875 8.24553 32.4 9.84553 32.4 11.7955V18.6705H30.7125C29.4875 18.6955 28.3249 19.3455 27.6874 20.408L24.6875 25.408C24.575 25.608 24.5125 25.8205 24.5125 26.0455V38.258C24.5125 38.9455 25.075 39.508 25.7625 39.508H34.8125C35.5 39.508 36.0625 38.9455 36.0625 38.258V34.1705L38.475 31.758C39.15 31.083 39.5125 30.1955 39.5125 29.2455V11.783C39.5125 9.82053 37.9125 8.23303 35.9625 8.23303L35.95 8.24553ZM37 29.258C37 29.533 36.8875 29.808 36.6875 30.008L34.275 32.4205H31.5C30.8125 32.4205 30.25 32.983 30.25 33.6705C30.25 34.358 30.8125 34.9205 31.5 34.9205H33.5375V37.0205H26.9875V26.408L29.8125 21.708C30 21.3955 30.3375 21.1955 30.7125 21.1955H32.3875V22.0455C32.3875 22.7955 32.1624 23.508 31.7499 24.133L30.3 26.258C29.9125 26.833 30.0625 27.608 30.625 27.9955C30.8375 28.1455 31.0874 28.208 31.3249 28.208C31.7249 28.208 32.1125 28.0205 32.3625 27.658L33.8125 25.533C34.5125 24.4955 34.8875 23.2955 34.8875 22.033V11.7955C34.8875 11.208 35.3625 10.7455 35.9375 10.7455C36.5125 10.7455 36.9875 11.2205 36.9875 11.7955V29.258H37Z" fill="#553597"/>
<path d="M13.825 20.4206C13.1875 19.3706 12.0375 18.7081 10.8 18.6956H9.11245V11.8081C9.11245 9.84556 7.51245 8.25806 5.56245 8.25806C3.61245 8.25806 2.01245 9.85806 2.01245 11.8081V29.2706C2.01245 30.2206 2.37495 31.1081 3.04995 31.7831L5.46245 34.1956V38.2831C5.46245 38.9706 6.02495 39.5331 6.71245 39.5331H15.7625C16.45 39.5331 17.0125 38.9706 17.0125 38.2831V26.0706C17.0125 25.8456 16.95 25.6206 16.8375 25.4331L13.8375 20.4331L13.825 20.4206ZM14.5 37.0206H7.94995V34.9206H9.98745C10.675 34.9206 11.2375 34.3581 11.2375 33.6706C11.2375 32.9831 10.675 32.4206 9.98745 32.4206H7.21245L4.79995 30.0081C4.59995 29.8081 4.48745 29.5331 4.48745 29.2581V11.7956C4.48745 11.2081 4.96245 10.7456 5.53745 10.7456C6.11245 10.7456 6.58745 11.2206 6.58745 11.7956V22.0331C6.58745 23.2831 6.96245 24.4956 7.66245 25.5206L9.11245 27.6456C9.34995 27.9956 9.74995 28.1956 10.15 28.1956C10.3875 28.1956 10.6375 28.1206 10.85 27.9831C11.425 27.5956 11.5625 26.8206 11.175 26.2456L9.72495 24.1206C9.29995 23.5081 9.08745 22.7831 9.08745 22.0331V21.1706H10.7625C11.125 21.1831 11.4749 21.3831 11.6625 21.6956L14.4875 26.3956V37.0081L14.5 37.0206Z" fill="#553597"/>
<path d="M18.6231 16.2413C19.2288 16.7566 19.9962 17.0205 20.7635 17.0205C21.5308 17.0205 22.2981 16.7566 22.9038 16.2413L27.1173 12.6844C28.6385 11.4024 29.5 9.56735 29.5 7.65693C29.5 6.24926 28.7596 4.90442 27.5346 4.08746C26.7269 3.54702 25.7846 3.27051 24.8019 3.27051H24.5731C23.0519 3.27051 21.6385 3.94921 20.75 5.10552C19.875 3.94921 18.4481 3.27051 16.9269 3.27051H16.6981C15.7154 3.27051 14.7731 3.54702 13.9654 4.08746C12.7269 4.90442 12 6.23669 12 7.65693C12 9.56735 12.875 11.4024 14.3827 12.6844L18.5962 16.2413H18.6231Z" fill="#A78ED7"/>
</svg>
