<svg width="41" height="41" viewBox="0 0 41 41" fill="none" xmlns="http://www.w3.org/2000/svg">
<path d="M31.125 15.1455C26.65 15.1455 23 18.7955 23 23.2705C23 27.7455 26.65 31.3955 31.125 31.3955C35.6 31.3955 39.25 27.7455 39.25 23.2705C39.25 18.7955 35.6 15.1455 31.125 15.1455ZM34.25 24.5205H32.375V26.3955C32.375 27.083 31.8125 27.6455 31.125 27.6455C30.4375 27.6455 29.875 27.083 29.875 26.3955V24.5205H28C27.3125 24.5205 26.75 23.958 26.75 23.2705C26.75 22.583 27.3125 22.0205 28 22.0205H29.875V20.1455C29.875 19.458 30.4375 18.8955 31.125 18.8955C31.8125 18.8955 32.375 19.458 32.375 20.1455V22.0205H34.25C34.9375 22.0205 35.5 22.583 35.5 23.2705C35.5 23.958 34.9375 24.5205 34.25 24.5205Z" fill="#A78ED7"/>
<path d="M31.125 32.0205C30.4375 32.0205 29.875 32.583 29.875 33.2705C29.875 35.333 28.1875 37.0205 26.125 37.0205H18.625C16.5625 37.0205 14.875 35.333 14.875 33.2705V29.9705C16.1375 29.5705 17.0625 28.3955 17.0625 27.008V23.608C19.05 22.9455 20.5 21.0955 20.5 18.883V14.5205H21.75C23.8125 14.5205 25.5 12.833 25.5 10.7705V5.77051C25.5 3.70801 23.8125 2.02051 21.75 2.02051C19.6875 2.02051 18 3.70801 18 5.77051V18.883C18 20.258 16.875 21.383 15.5 21.383H11.75C10.375 21.383 9.25 20.258 9.25 18.883V5.77051C9.25 3.70801 7.5625 2.02051 5.5 2.02051C3.4375 2.02051 1.75 3.70801 1.75 5.77051V10.7705C1.75 12.833 3.4375 14.5205 5.5 14.5205H6.75V18.883C6.75 21.0955 8.2 22.9455 10.1875 23.608V27.008C10.1875 28.408 11.1125 29.5705 12.375 29.9705V33.2705C12.375 36.7205 15.175 39.5205 18.625 39.5205H26.125C29.575 39.5205 32.375 36.7205 32.375 33.2705C32.375 32.583 31.8125 32.0205 31.125 32.0205ZM20.5 5.77051C20.5 5.08301 21.0625 4.52051 21.75 4.52051C22.4375 4.52051 23 5.08301 23 5.77051V10.7705C23 11.458 22.4375 12.0205 21.75 12.0205H20.5V5.77051ZM4.25 10.7705V5.77051C4.25 5.08301 4.8125 4.52051 5.5 4.52051C6.1875 4.52051 6.75 5.08301 6.75 5.77051V12.0205H5.5C4.8125 12.0205 4.25 11.458 4.25 10.7705ZM13.3125 27.633C12.9625 27.633 12.6875 27.358 12.6875 27.008V23.883H14.5625V27.008C14.5625 27.358 14.2875 27.633 13.9375 27.633H13.3125Z" fill="#553597"/>
</svg>
