<svg width="37" height="34" viewBox="0 0 37 34" fill="none" xmlns="http://www.w3.org/2000/svg">
<path d="M29.2825 33.3169H3.55281C1.64793 33.3169 0.291225 31.7725 0.526519 29.8651L3.68547 4.13541C3.91826 2.23053 5.65292 0.683594 7.56031 0.683594H33.29C35.1949 0.683594 36.5515 2.22803 36.3163 4.13541L33.1573 29.8651C32.9245 31.77 31.1899 33.3169 29.2825 33.3169Z" fill="#EDE3FF"/>
<path d="M25.2497 10.9188C24.644 10.2379 23.5977 10.1779 22.9168 10.7836L18.5639 14.661L15.1096 10.721C14.5088 10.0352 13.465 9.9676 12.7791 10.5684C12.0933 11.1691 12.0257 12.2129 12.6265 12.8988L16.0983 16.8562L11.2648 21.1616C10.5839 21.7674 10.5238 22.8137 11.1296 23.4945C11.455 23.86 11.9081 24.0477 12.3636 24.0477C12.7541 24.0477 13.1471 23.91 13.4625 23.6297L18.2785 19.3418L21.7328 23.2818C22.0607 23.6547 22.5163 23.845 22.9744 23.845C23.3599 23.845 23.7504 23.7098 24.0633 23.4344C24.7491 22.8337 24.8167 21.7899 24.2159 21.104L20.7441 17.1466L25.1171 13.2517C25.7979 12.646 25.858 11.5996 25.2522 10.9188H25.2497Z" fill="#553597"/>
</svg>
