<svg width="241" height="240" viewBox="0 0 241 240" fill="none" xmlns="http://www.w3.org/2000/svg">
<rect width="225.185" height="114.227" rx="57.1134" transform="matrix(-0.707107 -0.707107 -0.707107 0.707107 240.5 159.229)" fill="#F3F5F7"/>
<path fill-rule="evenodd" clip-rule="evenodd" d="M56.3884 204.447C56.4467 209.064 54.664 211.814 51.0378 212.697C45.6004 214.022 37.4351 212.899 35.0181 220.921C32.601 228.944 41.94 231.627 50.607 231.278C55.8787 231.066 63.6715 230.869 73.9841 230.688C75.6252 230.66 76.9314 229.305 76.9029 227.665C76.9029 227.641 76.9029 227.617 76.9006 227.593L75.9623 205.169L56.3861 204.447H56.3884Z" fill="white"/>
<path d="M49.076 231.709C49.5845 231.709 50.0999 231.699 50.6245 231.677C55.8654 231.466 63.7278 231.268 73.9925 231.087C74.893 231.071 75.733 230.706 76.3581 230.059C76.9832 229.412 77.3192 228.558 77.3032 227.657C77.3032 227.63 77.302 227.602 77.3009 227.575L76.3478 204.781L55.9819 204.031L55.9876 204.452C56.0436 208.898 54.3934 211.468 50.9433 212.308C49.7639 212.595 48.46 212.764 47.0784 212.943C42.1643 213.581 36.5932 214.305 34.6355 220.805C33.8767 223.323 34.183 225.491 35.5441 227.249C37.7371 230.079 42.7323 231.708 49.0748 231.708L49.076 231.709ZM75.581 205.554L76.5032 227.609C76.5032 227.63 76.5043 227.651 76.5055 227.672C76.5181 228.359 76.2609 229.009 75.7844 229.503C75.3078 229.997 74.6667 230.276 73.9799 230.288C63.7084 230.469 55.8402 230.667 50.5936 230.878C47.4841 231.004 44.5402 230.732 42.0832 230.094C39.3633 229.388 37.3211 228.234 36.1795 226.76C34.9852 225.219 34.7247 223.293 35.4046 221.037C37.2125 215.033 42.282 214.374 47.1846 213.738C48.588 213.556 49.9136 213.383 51.1353 213.086C54.8368 212.184 56.7373 209.419 56.791 204.862L75.5832 205.554H75.581Z" fill="#553597"/>
<path fill-rule="evenodd" clip-rule="evenodd" d="M56.3875 204.448C56.4457 208.44 54.663 210.819 51.0369 211.582C45.5994 212.728 37.4341 211.756 35.0171 218.695C32.6001 225.633 41.939 227.954 50.606 227.652C55.8732 227.469 63.6568 227.299 73.9569 227.142C75.598 227.117 76.9076 225.766 76.8825 224.125C76.8825 224.091 76.8813 224.059 76.879 224.026L75.9625 205.071L56.3863 204.448H56.3875Z" fill="white"/>
<path d="M49.1183 228.077C49.6143 228.077 50.1148 228.068 50.6211 228.05C55.8631 227.868 63.7164 227.696 73.9639 227.541C74.8645 227.527 75.7056 227.164 76.333 226.517C76.9604 225.87 77.2975 225.018 77.2838 224.117C77.2838 224.08 77.2815 224.043 77.2803 224.005L76.3455 204.682L55.982 204.034L55.9877 204.453C56.0437 208.262 54.3969 210.465 50.9548 211.19C49.7731 211.439 48.4669 211.586 47.0841 211.741C42.1724 212.293 36.6058 212.917 34.6401 218.562C33.9408 220.57 34.135 222.33 35.215 223.795C36.3738 225.367 38.5005 226.535 41.5381 227.269C43.7449 227.801 46.3413 228.077 49.1194 228.077H49.1183ZM75.5821 205.459L76.4804 224.045C76.4815 224.074 76.4827 224.103 76.4827 224.13C76.493 224.817 76.2358 225.467 75.757 225.96C75.2793 226.453 74.6371 226.73 73.9502 226.741C63.6982 226.896 55.8391 227.068 50.5914 227.25C45.0122 227.444 38.2103 226.514 35.8561 223.321C34.9418 222.081 34.7864 220.568 35.3933 218.825C37.1932 213.657 42.2661 213.086 47.171 212.535C48.5732 212.378 49.8977 212.229 51.1171 211.972C54.8106 211.193 56.7156 208.801 56.7842 204.859L75.5799 205.458L75.5821 205.459Z" fill="#553597"/>
<path fill-rule="evenodd" clip-rule="evenodd" d="M55.5944 208.423C54.7498 210.067 53.2299 211.12 51.0369 211.582C45.5994 212.727 37.4341 211.756 35.0171 218.695C32.6001 225.633 41.939 227.953 50.606 227.652C55.8732 227.469 63.6568 227.298 73.9569 227.142C75.598 227.117 76.9076 225.766 76.8825 224.124C76.8825 224.092 76.8813 224.059 76.879 224.027L76.2048 210.086C66.6064 212.582 61.9746 213.326 62.3072 212.318C64.5071 205.657 55.8115 207.999 55.5932 208.424L55.5944 208.423Z" fill="#EDE3FF"/>
<path d="M49.1183 228.077C49.6143 228.077 50.1148 228.068 50.6211 228.05C55.8631 227.867 63.7164 227.696 73.9639 227.541C74.8645 227.527 75.7056 227.163 76.333 226.516C76.9604 225.87 77.2975 225.018 77.2838 224.117C77.2838 224.081 77.2815 224.043 77.2803 224.006L76.5821 209.574L76.1056 209.697C71.924 210.785 68.6476 211.548 66.3689 211.965C63.8136 212.432 62.9885 212.375 62.7302 212.311C63.6639 209.349 62.4731 208.139 61.2994 207.648C60.1178 207.152 58.6321 207.242 57.5945 207.405C57.3796 207.439 55.4906 207.748 55.2391 208.239C54.4449 209.784 53.0438 210.75 50.9548 211.189C49.7731 211.438 48.4669 211.584 47.0841 211.74C42.1724 212.292 36.6058 212.916 34.6401 218.561C33.9408 220.568 34.135 222.328 35.215 223.794C36.3738 225.365 38.5005 226.534 41.5381 227.267C43.7449 227.8 46.3413 228.076 49.1194 228.076L49.1183 228.077ZM75.8301 210.597L76.4804 224.046C76.4815 224.075 76.4827 224.102 76.4827 224.131C76.493 224.818 76.2358 225.467 75.757 225.961C75.2793 226.454 74.6371 226.731 73.9502 226.742C63.6982 226.897 55.8391 227.069 50.5914 227.251C45.0122 227.445 38.2103 226.515 35.8561 223.322C34.9418 222.082 34.7864 220.569 35.3933 218.826C37.1932 213.658 42.2661 213.087 47.171 212.536C48.5732 212.379 49.8977 212.23 51.1171 211.973C53.3924 211.494 55.0037 210.385 55.91 208.678C56.4322 208.393 59.9098 207.5 61.488 208.667C62.3428 209.299 62.4902 210.485 61.9257 212.192C61.848 212.429 61.8948 212.663 62.056 212.835C62.3542 213.152 63.0742 213.367 66.3072 212.79C68.5299 212.393 71.7309 211.655 75.8267 210.597H75.8301Z" fill="#553597"/>
<path fill-rule="evenodd" clip-rule="evenodd" d="M128.169 42.2359L66.6029 148.935L67.7937 159.387C68.188 162.85 70.2051 165.92 73.2266 167.658L122.505 195.992C127.977 199.137 134.963 197.251 138.108 191.779C138.113 191.771 138.117 191.763 138.122 191.755L195.725 90.977C196.938 88.8545 197.439 86.3982 197.153 83.9704L195.637 71.0671L139.518 39.1521C135.531 36.8844 130.462 38.2617 128.169 42.2348V42.2359Z" fill="#EDE3FF"/>
<path d="M128.18 197.91C132.28 197.91 136.269 195.781 138.454 191.978L138.468 191.953L196.072 91.1756C197.319 88.9947 197.843 86.4184 197.551 83.9232L196.011 70.8187L139.716 38.8043C135.552 36.436 130.217 37.8853 127.823 42.0344L66.1915 148.848L67.3971 159.431C67.804 163.005 69.909 166.21 73.0277 168.004L122.306 196.338C124.159 197.403 126.184 197.909 128.182 197.909L128.18 197.91ZM195.263 71.3147L196.755 84.0169C197.029 86.3429 196.539 88.7444 195.377 90.7789L137.762 191.579C134.731 196.853 127.976 198.676 122.704 195.645L73.4254 167.311C70.5261 165.645 68.5696 162.665 68.1914 159.342L67.0154 149.021L128.515 42.4356C130.69 38.666 135.538 37.3492 139.32 39.5004L195.263 71.3147Z" fill="#553597"/>
<path fill-rule="evenodd" clip-rule="evenodd" d="M192.204 66.9885L140.192 36.9412C136.204 34.6335 131.101 36.0005 128.797 39.9908C128.797 39.9908 128.797 39.9931 128.797 39.9953L67.7498 145.796C65.4504 149.788 66.8172 154.89 70.8033 157.197L122.814 187.244C126.803 189.552 131.905 188.185 134.209 184.194C134.209 184.194 134.209 184.192 134.208 184.19L195.258 78.3888C197.557 74.3975 196.19 69.2951 192.204 66.9885Z" fill="#EDE3FF"/>
<path d="M126.977 188.768C127.734 188.768 128.498 188.668 129.25 188.467C131.506 187.864 133.391 186.416 134.559 184.395L134.703 184.145L134.701 184.143L195.604 78.5889C198.01 74.4147 196.573 69.0551 192.404 66.6423L140.392 36.595C138.371 35.4257 136.015 35.1136 133.759 35.7183C131.506 36.3218 129.622 37.7654 128.453 39.7851L128.299 40.0331L128.308 40.0434L67.4037 145.598C64.9981 149.772 66.4346 155.131 70.6035 157.544L122.615 187.592C123.962 188.371 125.458 188.77 126.974 188.77L126.977 188.768ZM133.75 184.188C132.684 185.922 131.02 187.164 129.042 187.693C126.993 188.242 124.852 187.958 123.017 186.897L71.0058 156.849C67.2174 154.657 65.9135 149.788 68.0985 145.995L129.257 40C130.324 38.2615 131.989 37.019 133.966 36.4898C136.015 35.9412 138.156 36.2246 139.991 37.2865L192.004 67.3349C195.793 69.5272 197.098 74.3964 194.913 78.1889L133.751 184.188H133.75Z" fill="#553597"/>
<path fill-rule="evenodd" clip-rule="evenodd" d="M186.842 67.1792L141.713 41.1072C137.724 38.7995 132.622 40.1666 130.318 44.1568C130.318 44.1568 130.318 44.1591 130.318 44.1614L72.8292 143.796C70.5299 147.787 71.8967 152.89 75.8828 155.196L121.012 181.267C125 183.575 130.103 182.208 132.407 178.217C132.407 178.217 132.407 178.215 132.406 178.213L189.895 78.5784C192.195 74.587 190.828 69.4846 186.842 67.178V67.1792Z" fill="white"/>
<path d="M125.172 182.792C125.93 182.792 126.693 182.692 127.445 182.491C129.701 181.888 131.587 180.441 132.755 178.419L132.898 178.169L132.896 178.167L190.242 78.7784C192.648 74.6042 191.211 69.2446 187.042 66.8318L141.913 40.761C139.891 39.5917 137.536 39.2796 135.28 39.8843C133.026 40.4878 131.143 41.9314 129.974 43.9511L129.82 44.1991L129.829 44.2094L72.4832 143.596C70.0776 147.77 71.5141 153.13 75.683 155.543L120.812 181.615C122.16 182.394 123.656 182.793 125.172 182.793V182.792ZM131.945 178.214C130.879 179.947 129.215 181.189 127.239 181.717C125.19 182.266 123.05 181.983 121.215 180.921L76.0853 154.849C72.2969 152.657 70.993 147.787 73.178 143.995L130.776 44.1671C131.844 42.4286 133.509 41.1862 135.486 40.657C137.535 40.1083 139.675 40.3918 141.511 41.4536L186.642 67.5256C190.431 69.7178 191.734 74.587 189.549 78.3795L131.945 178.214Z" fill="#553597"/>
<path fill-rule="evenodd" clip-rule="evenodd" d="M173.643 66.4443L156.471 56.5242C155.2 55.7904 153.574 56.2247 152.84 57.4969C152.107 58.769 152.542 60.3955 153.814 61.1305L170.986 71.0506C172.256 71.7844 173.883 71.3501 174.616 70.0779C175.35 68.8058 174.915 67.1793 173.643 66.4443Z" fill="#EDE3FF"/>
<path d="M172.309 71.8096C172.574 71.8096 172.842 71.7742 173.104 71.7044C173.893 71.493 174.552 70.9878 174.961 70.2802L174.968 70.2677C175.801 68.8035 175.297 66.9392 173.843 66.0991L156.671 56.179C155.212 55.3355 153.337 55.8372 152.494 57.298C151.651 58.7599 152.152 60.6356 153.613 61.4791L170.784 71.3992C171.255 71.6713 171.779 71.8107 172.309 71.8107V71.8096ZM174.265 69.8848C173.964 70.4048 173.478 70.7763 172.897 70.9318C172.315 71.0872 171.707 71.0072 171.184 70.7054L154.013 60.7853C152.934 60.1624 152.562 58.7771 153.185 57.6981C153.808 56.6191 155.192 56.2487 156.27 56.8717L173.441 66.7918C174.52 67.4147 174.892 68.8001 174.269 69.8791L174.265 69.8848Z" fill="#553597"/>
<path fill-rule="evenodd" clip-rule="evenodd" d="M148.529 51.8728C147.259 51.139 145.633 51.5734 144.899 52.8455C144.165 54.1188 144.6 55.7442 145.872 56.4791C147.143 57.2129 148.768 56.7786 149.503 55.5064C150.237 54.2331 149.801 52.6078 148.529 51.8728Z" fill="#EDE3FF"/>
<path d="M147.195 57.236C148.253 57.236 149.282 56.6873 149.848 55.7078C150.692 54.2447 150.19 52.3702 148.729 51.5267C147.27 50.6831 145.396 51.1849 144.552 52.6457L144.536 52.6731C143.716 54.1384 144.222 55.9889 145.67 56.8256C146.15 57.1034 146.675 57.2348 147.194 57.2348L147.195 57.236ZM148.33 52.2193C149.409 52.8423 149.779 54.2264 149.157 55.3054C148.533 56.3856 147.15 56.7559 146.072 56.133C144.993 55.51 144.623 54.1259 145.245 53.0469L145.252 53.0343C145.882 51.9633 147.257 51.5998 148.329 52.2193H148.33Z" fill="#553597"/>
<path fill-rule="evenodd" clip-rule="evenodd" d="M114.857 106.149L92.6322 142.13L80.7608 205.819H49.4892L68.126 139.291C68.4494 138.135 68.9545 137.036 69.6196 136.037L89.5307 106.149H114.857Z" fill="white"/>
<path d="M48.9615 206.219H81.0925L81.153 205.892L93.0107 142.276L115.574 105.749H89.3161L69.2862 135.816C68.5959 136.851 68.076 137.985 67.74 139.184L48.9615 206.219ZM80.4285 205.419H50.0163L68.5102 139.4C68.8234 138.282 69.3079 137.226 69.9524 136.26L89.7446 106.55H114.14L92.2519 141.983L92.2382 142.057L80.4285 205.419Z" fill="#553597"/>
<path fill-rule="evenodd" clip-rule="evenodd" d="M132.85 115.747L137.048 128.32L151.54 143.228L137.048 169.699L113.153 139.432L106.057 110.466L123.037 109.212C127.418 108.889 131.459 111.579 132.85 115.746V115.747Z" fill="white"/>
<path d="M137.109 170.423L152.033 143.162L137.398 128.108L133.23 115.621C131.779 111.277 127.575 108.479 123.008 108.816L105.555 110.105L112.786 139.615L137.109 170.424V170.423ZM151.048 143.296L136.988 168.978L113.522 139.254L106.559 110.832L123.068 109.613C127.27 109.302 131.136 111.877 132.471 115.874L136.698 128.534L151.048 143.296Z" fill="#553597"/>
<path fill-rule="evenodd" clip-rule="evenodd" d="M85.5631 64.453C82.1999 66.9436 78.5429 75.2441 74.5934 89.3556L45.7239 77.6261L38.8923 104.134L80.592 111.612C86.8042 112.727 92.7434 108.592 93.8576 102.379C93.8633 102.346 93.869 102.313 93.8747 102.278L98.3477 75.9859C93.1879 65.8075 88.9264 61.9636 85.5631 64.4542V64.453Z" fill="#6F46BE"/>
<path d="M110.538 42.6059C109.575 37.142 113.223 31.9316 118.686 30.9682C124.149 30.0048 129.358 33.6531 130.321 39.117C131.285 44.5809 127.637 49.7913 122.174 50.7547C116.711 51.7181 111.502 48.0698 110.538 42.6059Z" fill="white"/>
<path d="M120.408 51.3112C121.017 51.3112 121.63 51.2575 122.243 51.1501C124.99 50.6654 127.384 49.1395 128.984 46.8547C130.584 44.5687 131.199 41.7969 130.715 39.0491C130.23 36.3013 128.704 33.9067 126.42 32.3065C124.135 30.7063 121.364 30.0914 118.616 30.576C115.868 31.0606 113.474 32.5865 111.874 34.8714C110.274 37.1574 109.66 39.9292 110.144 42.677C110.629 45.4248 112.154 47.8194 114.439 49.4196C116.215 50.6631 118.284 51.3112 120.406 51.3112H120.408ZM120.45 31.2138C122.411 31.2138 124.322 31.8127 125.961 32.9603C128.07 34.4382 129.479 36.6499 129.926 39.1874C130.373 41.7249 129.806 44.284 128.328 46.3952C126.851 48.5063 124.641 49.9145 122.104 50.3614C119.567 50.8083 117.008 50.2414 114.897 48.7635C112.787 47.2856 111.378 45.0739 110.932 42.5364C110.485 39.9989 111.052 37.4397 112.529 35.3286C114.007 33.2186 116.217 31.8093 118.754 31.3624C119.32 31.2629 119.887 31.2138 120.449 31.2138H120.45Z" fill="#553597"/>
<path d="M100.354 54.1937C99.0181 50.5218 100.911 46.4617 104.582 45.1253C108.253 43.7888 112.313 45.6821 113.649 49.3539C114.985 53.0258 113.092 57.0858 109.421 58.4223C105.75 59.7588 101.69 57.8655 100.354 54.1937Z" fill="white"/>
<path d="M106.997 59.2529C107.859 59.2529 108.724 59.102 109.557 58.798C113.429 57.3886 115.433 53.0909 114.023 49.2173C112.614 45.3448 108.317 43.34 104.444 44.7493C100.572 46.1586 98.5679 50.4563 99.9781 54.33C100.66 56.2056 102.033 57.7041 103.842 58.5476C104.846 59.0163 105.92 59.2517 106.996 59.2517L106.997 59.2529ZM106.995 45.0991C109.722 45.0991 112.287 46.7839 113.272 49.4916C114.531 52.9504 112.742 56.7874 109.284 58.0459C107.609 58.6551 105.797 58.5762 104.181 57.823C102.565 57.0697 101.34 55.7324 100.731 54.0568C99.473 50.5981 101.261 46.761 104.72 45.5014C105.47 45.2282 106.24 45.0991 106.995 45.0991Z" fill="#553597"/>
<path d="M108.658 53.2713C109.505 53.2713 110.366 53.1261 111.207 52.8198C112.387 52.3901 113.447 51.6665 114.27 50.7258L113.667 50.1989C112.932 51.0379 111.987 51.6837 110.933 52.0677C107.476 53.3262 103.638 51.5362 102.38 48.0786C102.277 47.7952 102.192 47.5026 102.128 47.21L101.347 47.3803C101.418 47.7072 101.512 48.0341 101.628 48.3518C102.731 51.3842 105.605 53.2702 108.658 53.2702V53.2713Z" fill="#553597"/>
<path d="M104.061 55.6686C104.19 55.6686 104.317 55.6057 104.393 55.4914C104.71 55.0182 105.055 54.7485 105.42 54.689C105.823 54.6227 106.303 54.8022 106.845 55.2205C107.02 55.3554 107.271 55.3234 107.406 55.1485C107.541 54.9736 107.509 54.7222 107.334 54.5873C106.609 54.0284 105.923 53.7963 105.291 53.8992C104.699 53.9964 104.173 54.3816 103.728 55.0456C103.606 55.2297 103.655 55.4777 103.838 55.6C103.907 55.6457 103.983 55.6674 104.06 55.6674L104.061 55.6686Z" fill="#553597"/>
<path fill-rule="evenodd" clip-rule="evenodd" d="M98.4791 60.9514C104.286 62.419 110.12 62.0018 115.981 59.7009C123.138 56.8903 130.502 61.3217 138.07 72.9952L126.903 97.0017C131.324 104.063 132.768 108.855 131.231 111.377C128.926 115.161 90.6029 113.539 88.4533 111.377C87.0202 109.936 87.9916 103.211 91.3675 91.201C86.6465 84.9659 86.3174 79.5972 90.3801 75.0938L85.5414 64.4215L90.4144 61.8898C92.8977 60.5993 95.7672 60.2656 98.4802 60.9514H98.4791Z" fill="#6F46BE"/>
<path d="M87.8987 109.08C87.8987 109.08 87.9033 109.08 87.9067 109.08C88.1273 109.075 88.3033 108.893 88.2987 108.673C88.2141 104.126 89.0404 99.2911 90.7534 94.3031C90.8254 94.0939 90.7146 93.8664 90.5054 93.7944C90.2963 93.7224 90.0689 93.8333 89.9969 94.0425C88.253 99.1197 87.4119 104.047 87.4987 108.688C87.5033 108.906 87.6816 109.08 87.8987 109.08Z" fill="#553597"/>
<path d="M128.664 90.9128C128.836 90.9128 128.995 90.8008 129.047 90.627L131.791 81.4784C131.854 81.267 131.733 81.0441 131.522 80.9801C131.311 80.9172 131.088 81.0372 131.024 81.2487L128.28 90.3973C128.216 90.6087 128.337 90.8316 128.548 90.8956C128.587 90.9071 128.625 90.9128 128.664 90.9128Z" fill="#553597"/>
<path d="M88.8056 87.1226C88.8559 87.1226 88.9062 87.1134 88.9553 87.0929C89.1599 87.0094 89.2593 86.7763 89.1759 86.5717C87.512 82.458 88.1748 78.7444 91.2032 75.2193C91.3472 75.0513 91.3278 74.7987 91.161 74.6547C90.993 74.5107 90.7404 74.5301 90.5964 74.697C87.3988 78.4186 86.672 82.514 88.4342 86.8711C88.4971 87.0266 88.6468 87.1214 88.8056 87.1214V87.1226Z" fill="#553597"/>
<path d="M89.6252 63.2102L98.2871 82.6686C98.6722 83.5336 98.2833 84.5471 97.4184 84.9322L97.1386 85.0568C96.2737 85.4419 95.2604 85.0529 94.8754 84.1879L86.2134 64.7295C85.8284 63.8644 86.2173 62.851 87.0822 62.4658L87.362 62.3413C88.2269 61.9561 89.2402 62.3451 89.6252 63.2102Z" fill="white"/>
<path d="M96.4419 85.6071C96.7345 85.6071 97.0259 85.5454 97.3013 85.4231L97.5801 85.2985C98.0956 85.0688 98.4921 84.6516 98.6944 84.1247C98.8967 83.5977 98.8818 83.0228 98.6521 82.5073L89.9908 63.0488C89.5165 61.9835 88.264 61.5035 87.1989 61.9767L86.9201 62.1013C85.855 62.5756 85.375 63.8283 85.8482 64.8925L94.5094 84.351C94.7391 84.8665 95.1563 85.2631 95.6831 85.4654C95.9288 85.5603 96.1859 85.6071 96.4419 85.6071ZM88.0572 62.5939C88.5612 62.5939 89.0423 62.8842 89.2594 63.3734L97.9207 82.8319C98.0636 83.1531 98.0727 83.5097 97.947 83.8378C97.8213 84.1658 97.5756 84.4241 97.2545 84.567L96.9756 84.6916C96.6545 84.8345 96.2979 84.8436 95.9699 84.7179C95.642 84.5922 95.3837 84.3464 95.2408 84.0252L86.5795 64.5667C86.2847 63.9049 86.5841 63.1265 87.2458 62.8316L87.5246 62.7071C87.6972 62.6305 87.8789 62.5939 88.0572 62.5939Z" fill="#553597"/>
<path d="M75.2036 64.092C72.5279 58.0812 75.2302 51.0392 81.2394 48.3633C87.2485 45.6873 94.289 48.3908 96.9648 54.4016C99.6405 60.4124 96.9382 67.4544 90.929 70.1304C84.9198 72.8063 77.8793 70.1028 75.2036 64.092Z" fill="white"/>
<path d="M86.089 71.568C87.7917 71.568 89.4899 71.2102 91.091 70.497C94.0954 69.1597 96.3982 66.7319 97.5764 63.6607C98.7546 60.5906 98.6666 57.2439 97.3295 54.2401C94.5685 48.037 87.2775 45.2378 81.0755 47.9993C74.8746 50.7608 72.0759 58.0531 74.8369 64.2562C76.174 67.2612 78.6013 69.5643 81.672 70.7439C83.1051 71.2937 84.5987 71.568 86.089 71.568ZM86.0672 47.7341C90.4773 47.7341 94.6931 50.2818 96.6004 54.5647C97.8507 57.3742 97.9329 60.5026 96.8313 63.3738C95.7296 66.245 93.5754 68.515 90.7676 69.7655C87.9586 71.0159 84.8307 71.0982 81.96 69.9964C79.0893 68.8945 76.8197 66.74 75.5695 63.9304C72.9879 58.1308 75.6049 51.3117 81.4035 48.7296C82.92 48.0541 84.5062 47.7352 86.0684 47.7352L86.0672 47.7341Z" fill="#553597"/>
<path d="M77.5868 62.9597C75.5041 58.281 77.6079 52.7996 82.2857 50.7165C86.9636 48.6334 92.4441 50.7375 94.5268 55.4162C96.6095 60.0949 94.5057 65.5764 89.8279 67.6594C85.15 69.7425 79.6695 67.6384 77.5868 62.9597Z" fill="white"/>
<path d="M86.0592 68.866C87.3963 68.866 88.7311 68.5848 89.9893 68.0248C92.3492 66.9744 94.1582 65.0667 95.0839 62.6549C96.0096 60.2432 95.941 57.6143 94.8896 55.254C92.7206 50.3814 86.9929 48.1822 82.1211 50.3517C77.2494 52.5211 75.0506 58.2498 77.2196 63.1224C78.2699 65.4827 80.1772 67.2933 82.5885 68.2191C83.7142 68.6511 84.8878 68.8672 86.0581 68.8672L86.0592 68.866ZM86.0421 50.3151C89.4408 50.3151 92.6897 52.2788 94.1594 55.5786C95.1228 57.7435 95.1868 60.1552 94.3377 62.3681C93.4886 64.5809 91.8292 66.3297 89.6636 67.2944C87.4991 68.258 85.0878 68.322 82.8765 67.4716C80.6641 66.6223 78.9156 64.9615 77.951 62.7967C75.9614 58.3275 77.9785 53.072 82.4468 51.082C83.6159 50.562 84.8387 50.3151 86.0421 50.3151Z" fill="#553597"/>
<path d="M80.1766 62.2076C80.2315 62.2076 80.2863 62.1962 80.3389 62.1733C80.5412 62.083 80.6314 61.8476 80.5412 61.6452C79.1869 58.6026 80.5594 55.0261 83.6016 53.6716C83.8039 53.5813 83.8941 53.3459 83.8039 53.1436C83.7136 52.9413 83.4782 52.851 83.2759 52.9413C79.8315 54.4752 78.2761 58.526 79.8098 61.971C79.8761 62.1196 80.0223 62.2087 80.1755 62.2087L80.1766 62.2076Z" fill="#553597"/>
<path d="M80.7995 63.9977C80.6693 63.7053 80.8008 63.3627 81.0931 63.2326C81.3854 63.1024 81.7279 63.2339 81.8581 63.5263C81.9882 63.8186 81.8568 64.1612 81.5644 64.2914C81.2721 64.4215 80.9296 64.2901 80.7995 63.9977Z" fill="#553597"/>
<path fill-rule="evenodd" clip-rule="evenodd" d="M137.48 71.7759L150.355 92.318C153.304 97.0248 151.881 103.232 147.175 106.183C144.962 107.57 142.294 108.042 139.739 107.498L99.0645 98.8354L108.478 75.0403L131.604 83.8494L137.48 71.7759Z" fill="#6F46BE"/>
<path d="M136.581 107.29C136.765 107.29 136.931 107.162 136.972 106.976C137.019 106.76 136.883 106.547 136.667 106.499L103.473 99.2412C103.257 99.1943 103.045 99.3303 102.997 99.5464C102.95 99.7624 103.086 99.975 103.302 100.023L136.496 107.281C136.524 107.287 136.553 107.29 136.581 107.29Z" fill="#553597"/>
<path d="M130.708 83.989C130.869 83.989 131.02 83.8919 131.082 83.733C131.161 83.5272 131.058 83.2952 130.852 83.2163L108.622 74.6667C108.417 74.5878 108.185 74.6907 108.106 74.8964C108.027 75.1022 108.13 75.3342 108.336 75.4131L130.565 83.9627C130.612 83.981 130.661 83.989 130.709 83.989H130.708Z" fill="#553597"/>
<path d="M99.3128 99.9389C95.9972 98.9879 94.9621 92.4523 97.0008 85.3411C99.0395 78.2299 103.38 73.236 106.696 74.1869C110.011 75.1378 111.046 81.6735 109.008 88.7847C106.969 95.8959 102.628 100.89 99.3128 99.9389Z" fill="white"/>
<path d="M100.154 100.456C101.677 100.456 103.343 99.4878 104.942 97.6476C106.811 95.4976 108.391 92.3898 109.394 88.8956C110.396 85.4014 110.702 81.9279 110.256 79.1138C109.794 76.1945 108.57 74.3086 106.807 73.8034C105.046 73.2982 103.008 74.248 101.069 76.4792C99.201 78.6291 97.6205 81.737 96.6183 85.2311C95.616 88.7253 95.3098 92.1989 95.7555 95.013C96.2183 97.9322 97.4422 99.8182 99.2044 100.323C99.513 100.413 99.8307 100.456 100.155 100.456H100.154ZM105.852 74.4709C106.104 74.4709 106.348 74.504 106.586 74.5726C108.031 74.9875 109.054 76.6449 109.464 79.2395C109.892 81.9404 109.594 85.2917 108.623 88.675C107.653 92.0594 106.131 95.0598 104.338 97.1229C102.615 99.1049 100.869 99.969 99.4238 99.5541C97.9782 99.1392 96.9554 97.4819 96.5451 94.8872C96.1177 92.1863 96.416 88.835 97.3862 85.4517C98.3565 82.0673 99.8787 79.0669 101.672 77.0038C103.113 75.3464 104.569 74.4709 105.852 74.4709Z" fill="#553597"/>
<path fill-rule="evenodd" clip-rule="evenodd" d="M109.411 81.2821L106.929 80.1071C106.074 78.1777 104.857 76.8461 103.278 76.1146C100.909 75.0173 101.03 70.3561 98.0972 70.5607C96.1419 70.6979 95.7682 73.0845 96.9773 77.7228C93.6723 77.6096 90.781 76.965 88.3034 75.7877C84.587 74.0229 84.0716 78.3606 85.8853 79.4316C84.2225 80.2911 84.0933 81.5519 85.4967 83.2161C84.0019 84.3099 84.0065 85.6564 85.5116 87.2554C84.3653 88.4385 84.5413 89.6672 86.0372 90.9416C87.5332 92.2161 93.8769 93.6574 105.277 94.7193L109.412 81.2821H109.411Z" fill="white"/>
<path d="M105.277 95.1184C105.482 95.1184 105.656 94.963 105.675 94.755C105.696 94.5355 105.533 94.34 105.314 94.3195C90.0048 92.893 86.8873 91.1385 86.2953 90.6356C85.5731 90.0195 85.1925 89.4297 85.1662 88.8811C85.1445 88.4341 85.3514 87.9929 85.7971 87.5323L86.0633 87.258L85.8016 86.9802C85.0714 86.2041 84.7285 85.5081 84.7834 84.9125C84.828 84.4279 85.1468 83.9661 85.7308 83.5387L86.077 83.2849L85.8005 82.9569C85.1319 82.1648 84.8462 81.4927 84.9525 80.9589C85.0405 80.5177 85.4154 80.1234 86.0668 79.7862L86.7101 79.4536L86.0873 79.0855C85.3239 78.6352 85.0268 77.3424 85.4874 76.4749C85.9193 75.6599 86.8587 75.5445 88.1306 76.148C90.646 77.3424 93.6172 78.0065 96.9622 78.1208L97.4982 78.1391L97.3633 77.6202C96.3394 73.6905 96.6651 72.112 97.1176 71.4811C97.3473 71.1611 97.6765 70.9896 98.1233 70.9588C99.5015 70.8616 100.09 72.0858 100.771 73.5019C101.346 74.6975 101.941 75.9354 103.108 76.476C104.589 77.163 105.752 78.4386 106.562 80.2674L106.622 80.4034L109.239 81.6413C109.439 81.7361 109.677 81.6504 109.772 81.4504C109.867 81.2504 109.781 81.0126 109.581 80.9178L107.231 79.8056C106.342 77.8659 105.068 76.5012 103.444 75.7491C102.537 75.3285 102.005 74.2232 101.491 73.1545C100.786 71.688 99.9861 70.0272 98.0673 70.1598C97.3782 70.2078 96.8399 70.4958 96.4674 71.0136C95.6926 72.0915 95.6891 74.15 96.456 77.2979C93.439 77.1378 90.7557 76.5092 88.4723 75.4245C86.0016 74.2506 85.0211 75.6439 84.78 76.0988C84.2211 77.1527 84.4348 78.5586 85.1925 79.3781C84.62 79.7782 84.276 80.2548 84.1674 80.8012C84.028 81.4995 84.2863 82.2894 84.9331 83.1512C84.3605 83.6564 84.0429 84.2222 83.9857 84.8371C83.916 85.5915 84.2486 86.403 84.9731 87.2546C84.5423 87.7895 84.3377 88.3484 84.3651 88.9188C84.4028 89.6972 84.876 90.479 85.7742 91.2436C87.4975 92.7124 94.592 94.124 105.237 95.115C105.25 95.1161 105.262 95.1173 105.275 95.1173L105.277 95.1184Z" fill="#553597"/>
<path d="M94.4813 82.6291C94.6745 82.6291 94.8436 82.4897 94.8756 82.2931C94.911 82.0748 94.7636 81.869 94.5453 81.8336C91.4289 81.3272 88.6268 80.4528 86.2166 79.2344C86.0189 79.1349 85.7789 79.2138 85.6795 79.4116C85.5801 79.6093 85.6589 79.8493 85.8566 79.9488C88.3399 81.2038 91.2209 82.1033 94.4185 82.6234C94.4402 82.6268 94.4619 82.6291 94.4836 82.6291H94.4813Z" fill="#553597"/>
<path d="M94.0419 86.7209C94.235 86.7209 94.4042 86.5815 94.4362 86.3849C94.4716 86.1665 94.3242 85.9608 94.1059 85.9254C90.9895 85.419 88.1873 84.5446 85.7772 83.3262C85.5794 83.2267 85.3395 83.3056 85.24 83.5033C85.1406 83.7011 85.2195 83.9411 85.4172 84.0406C87.9005 85.2956 90.7815 86.1951 93.979 86.7152C94.0007 86.7186 94.0225 86.7209 94.0442 86.7209H94.0419Z" fill="#553597"/>
<path d="M90.7573 89.6709C90.9344 89.6709 91.0955 89.5532 91.1435 89.3738C91.2007 89.16 91.0738 88.9406 90.8601 88.8846C89.5722 88.5417 87.7631 87.8513 85.4832 86.8329C85.2821 86.7426 85.0455 86.8329 84.9553 87.0352C84.865 87.2375 84.9553 87.4729 85.1575 87.5632C87.4763 88.5988 89.3265 89.3029 90.6544 89.6572C90.6887 89.6664 90.723 89.6709 90.7573 89.6709Z" fill="#553597"/>
<path d="M39.5524 104.397C36.199 103.622 34.8714 96.9687 36.5872 89.5354C38.303 82.1021 42.4124 76.704 45.7659 77.4783C49.1194 78.2526 50.447 84.9062 48.7311 92.3395C47.0153 99.7728 42.9059 105.171 39.5524 104.397Z" fill="white"/>
<path d="M40.2103 104.871C41.7931 104.871 43.4924 103.767 45.0752 101.688C46.842 99.3663 48.2796 96.0778 49.1219 92.4294C49.9641 88.7798 50.1138 85.1953 49.5424 82.3332C48.9493 79.3625 47.6408 77.5006 45.8569 77.088C44.073 76.6765 42.0799 77.7761 40.2446 80.1855C38.4778 82.507 37.0402 85.7954 36.1979 89.4438C35.3557 93.0935 35.206 96.6779 35.7774 99.54C36.3705 102.511 37.679 104.373 39.4629 104.785C39.7086 104.842 39.9577 104.87 40.2103 104.87V104.871ZM45.6775 77.8686C47.1368 78.2058 48.2316 79.8472 48.7584 82.4909C49.3081 85.2433 49.1596 88.7089 48.3425 92.2499C47.5254 95.7909 46.1392 98.9708 44.4387 101.204C42.8056 103.348 41.1017 104.344 39.6435 104.007C38.1841 103.67 37.0893 102.028 36.5625 99.3845C36.0128 96.6322 36.1614 93.1666 36.9785 89.6256C37.7956 86.0846 39.1818 82.9047 40.8823 80.6713C42.5153 78.527 44.2181 77.5315 45.6775 77.8686Z" fill="#553597"/>
<path fill-rule="evenodd" clip-rule="evenodd" d="M48.5703 83.5266L45.5785 82.6499L37.1274 75.8867C36.1538 75.1084 35.0201 74.554 33.8076 74.2648C27.5371 72.7675 23.6995 71.8828 22.2927 71.6108C19.9843 71.1639 18.6152 73.9448 21.1739 76.0913C22.8801 77.5224 25.6046 78.8917 29.3461 80.1993L28.5279 88.4998C28.1747 92.0797 30.2204 95.4653 33.5539 96.8174L43.5603 100.876L48.5703 83.53V83.5266Z" fill="white"/>
<path d="M43.5609 101.273C43.7186 101.273 43.8683 101.178 43.9312 101.022C44.0146 100.818 43.9152 100.585 43.7106 100.501L33.7042 96.4424C30.5581 95.1657 28.5936 91.915 28.9262 88.5351L29.7444 80.2346C29.7627 80.0506 29.653 79.8792 29.4782 79.8174C25.7995 78.5316 23.0922 77.1737 21.4306 75.7803C20.1232 74.6842 20.0341 73.5081 20.3552 72.8348C20.6763 72.1593 21.3894 71.8393 22.2157 72.0004C23.6087 72.2702 27.4771 73.1629 33.7134 74.6511C34.8608 74.9254 35.9544 75.4592 36.8755 76.1964L45.3277 82.9596C45.3688 82.9916 45.4145 83.0167 45.4648 83.0316L48.4567 83.9094C48.6681 83.9711 48.8909 83.85 48.9527 83.6385C49.0144 83.427 48.8932 83.2042 48.6818 83.1424L45.7665 82.2875L37.3761 75.5735C36.3635 74.7631 35.1613 74.1756 33.8997 73.8738C27.652 72.3822 23.7722 71.4872 22.3688 71.2152C21.186 70.9854 20.1118 71.4872 19.6329 72.4919C19.1895 73.4235 19.2592 75.0042 20.9174 76.3953C22.6065 77.8126 25.2978 79.1819 28.9182 80.4701L28.1308 88.4585C27.9491 90.3022 28.3594 92.1139 29.317 93.6992C30.2747 95.2846 31.6883 96.4904 33.4037 97.1865L43.4101 101.245C43.4592 101.265 43.5106 101.275 43.5598 101.275L43.5609 101.273Z" fill="#553597"/>
<path fill-rule="evenodd" clip-rule="evenodd" d="M41.7627 81.6862L37.0875 79.7396C36.075 79.3179 34.9116 79.7968 34.4899 80.8095C34.4351 80.9398 34.395 81.0758 34.3699 81.2153C34.1036 82.6692 34.7779 84.1333 36.0544 84.8774L39.5479 86.912L40.1399 93.9015L41.7627 81.6873V81.6862Z" fill="white"/>
<path d="M40.1393 94.2991C40.1508 94.2991 40.1622 94.2991 40.1736 94.2979C40.3942 94.2796 40.5576 94.0853 40.5382 93.8659L39.9291 86.6695L36.2561 84.531C35.1282 83.8737 34.5282 82.5707 34.7636 81.2871C34.7842 81.1762 34.8162 81.0665 34.8596 80.9636C35.1956 80.1555 36.127 79.7726 36.9338 80.1087L41.609 82.0552C41.8124 82.1398 42.0467 82.0438 42.1324 81.8392C42.217 81.6357 42.121 81.4014 41.9164 81.3157L37.2412 79.3692C36.0264 78.8628 34.6265 79.44 34.1214 80.655C34.0562 80.8116 34.0082 80.9751 33.9774 81.142C33.6814 82.757 34.4356 84.3961 35.8538 85.2225L39.168 87.1519L39.7416 93.9333C39.7588 94.1425 39.9336 94.2991 40.1393 94.2991Z" fill="#553597"/>
<path fill-rule="evenodd" clip-rule="evenodd" d="M29.3104 80.5334C24.3803 80.1939 22.3941 81.8467 23.3518 85.4906C21.7862 86.5147 21.6685 88.084 22.9975 90.1963C21.8856 91.2502 22.1324 92.5635 23.7381 94.134C24.57 94.9478 24.3963 94.9432 27.835 95.0529C27.939 95.0564 29.1195 79.4772 29.3115 80.5322L29.3104 80.5334Z" fill="white"/>
<path d="M27.8427 95.4531C28.2072 95.4531 28.2415 95.1399 28.2884 94.709C28.3146 94.4701 28.3489 94.1226 28.3924 93.646C28.4746 92.7533 28.5832 91.4983 28.6986 90.1701C28.9912 86.7994 29.4243 81.8125 29.6083 80.7998C29.6906 80.7083 29.726 80.5826 29.7031 80.4615C29.646 80.1483 29.4026 80.0751 29.2689 80.082C29.2026 80.0854 29.1455 80.0968 29.0975 80.1185C26.2713 79.9574 24.4223 80.45 23.452 81.6239C22.7229 82.5051 22.5367 83.7476 22.8978 85.3192C21.8224 86.133 21.0122 87.5984 22.4967 90.1404C22.115 90.5839 21.9195 91.0742 21.915 91.6012C21.9081 92.4744 22.4132 93.3957 23.4589 94.4187L23.5709 94.5295C24.3937 95.3422 24.5217 95.3468 27.8221 95.4519C27.829 95.4519 27.8358 95.4519 27.8427 95.4519V95.4531ZM28.7821 80.9038C28.7638 81.033 28.7455 81.1815 28.7249 81.3496C28.6586 81.8914 28.5775 82.656 28.4769 83.687C28.2941 85.573 28.0861 87.9778 27.9009 90.1004C27.7387 91.9726 27.5718 93.8975 27.4907 94.6416C24.7308 94.5524 24.708 94.5295 24.132 93.9615L24.0166 93.8483C23.1469 92.9979 22.7092 92.2447 22.7138 91.6092C22.7172 91.2068 22.8989 90.8388 23.2715 90.4867C23.4098 90.3553 23.436 90.145 23.3355 89.9838C21.7367 87.4406 22.7035 86.3925 23.5709 85.8256C23.7149 85.7318 23.7823 85.5558 23.7389 85.3889C23.3606 83.9522 23.4726 82.8572 24.0691 82.136C24.828 81.2193 26.413 80.8066 28.7821 80.9049V80.9038Z" fill="#553597"/>
<path fill-rule="evenodd" clip-rule="evenodd" d="M22.2761 92.1629C22.2006 93.2465 23.2783 94.2146 25.5102 95.0696C28.8575 96.352 32.167 95.9154 32.5098 94.0146C32.7384 92.747 31.2893 91.4577 28.1638 90.1455L22.2772 92.1629H22.2761Z" fill="white"/>
<path d="M29.1832 96.1997C30.182 96.1997 31.0654 96.0157 31.7248 95.6442C32.3785 95.2761 32.7853 94.7366 32.903 94.0851C33.1716 92.5935 31.6722 91.1842 28.3181 89.776C28.1136 89.6903 27.8804 89.7863 27.7947 89.9898C27.709 90.1932 27.805 90.4275 28.0084 90.5132C30.8826 91.7203 32.3031 92.9067 32.1156 93.9434C32.0414 94.3583 31.7774 94.6955 31.3328 94.947C30.1169 95.6328 27.8347 95.5322 25.6531 94.6955C24.252 94.1594 22.5984 93.2885 22.675 92.19C22.6898 91.9694 22.5241 91.7786 22.3036 91.7626C22.083 91.7488 21.8921 91.9134 21.8761 92.134C21.7859 93.4256 22.9275 94.508 25.3663 95.4419C26.6782 95.9448 28.0096 96.1985 29.1832 96.1985V96.1997Z" fill="#553597"/>
<path fill-rule="evenodd" clip-rule="evenodd" d="M22.07 88.0955C21.9946 89.1791 23.0722 90.1472 25.3041 91.0022C28.6514 92.2846 31.961 91.848 32.3038 89.9472C32.5324 88.6796 31.0833 87.3903 27.9577 86.0781L22.0711 88.0955H22.07Z" fill="white"/>
<path d="M28.9772 92.1323C29.976 92.1323 30.8593 91.9483 31.5187 91.5768C32.1724 91.2088 32.5793 90.6693 32.697 90.0177C32.9655 88.5261 31.4662 87.1168 28.1121 85.7086C27.9086 85.6229 27.6744 85.7189 27.5886 85.9224C27.5029 86.1258 27.5989 86.3601 27.8024 86.4459C30.6765 87.6529 32.097 88.8393 31.9096 89.876C31.8353 90.2909 31.5713 90.6281 31.1268 90.8796C29.9108 91.5654 27.6286 91.4648 25.447 90.6281C24.046 90.092 22.3923 89.2211 22.4689 88.1227C22.4838 87.9021 22.3181 87.7112 22.0975 87.6952C21.8804 87.6815 21.6861 87.846 21.6712 88.0666C21.5809 89.3582 22.7226 90.4407 25.1613 91.3745C26.4733 91.8774 27.8046 92.1312 28.9783 92.1312L28.9772 92.1323Z" fill="#553597"/>
<path fill-rule="evenodd" clip-rule="evenodd" d="M23.1227 83.8821C23.0473 84.9657 24.125 85.9338 26.3569 86.7888C29.7041 88.0713 33.0137 87.6346 33.3565 85.7338C33.5851 84.4662 32.136 83.1769 29.0105 81.8647L23.1239 83.8821H23.1227Z" fill="white"/>
<path d="M30.0289 87.9189C31.0277 87.9189 31.9111 87.7349 32.5705 87.3634C33.2242 86.9954 33.631 86.4559 33.7487 85.8044C34.0173 84.3128 32.5179 82.9034 29.1638 81.4952C28.9604 81.4095 28.7261 81.5055 28.6404 81.709C28.5547 81.9124 28.6507 82.1468 28.8541 82.2325C31.7283 83.4395 33.1488 84.6259 32.9613 85.6626C32.8871 86.0775 32.6231 86.4147 32.1785 86.6662C30.9626 87.352 28.6804 87.2514 26.4988 86.4147C25.0977 85.8787 23.4441 85.0077 23.5207 83.9093C23.5355 83.6887 23.3698 83.4978 23.1493 83.4818C22.931 83.4669 22.7379 83.6327 22.723 83.8533C22.6327 85.1449 23.7744 86.2273 26.2131 87.1611C27.525 87.664 28.8564 87.9178 30.0301 87.9178L30.0289 87.9189Z" fill="#553597"/>
</svg>
