<svg width="342" height="272" viewBox="0 0 342 272" fill="none" xmlns="http://www.w3.org/2000/svg">
<rect width="327.105" height="137.354" rx="68.6771" transform="matrix(-0.707107 -0.707107 -0.707107 0.707107 336.86 203.006)" fill="#F3F5F7"/>
<path d="M152.93 183.32H151.37V180.2H152.93V183.32ZM152.93 177.08H151.37V173.96H152.93V177.08ZM152.93 170.84H151.37V167.72H152.93V170.84ZM152.93 164.6H151.37V161.48H152.93V164.6ZM213.25 159.4H211.69V156.28H213.25V159.4ZM152.93 158.36H151.37V155.24H152.93V158.36ZM213.25 153.16H211.69V150.04H213.25V153.16ZM152.93 152.12H151.37V149H152.93V152.12ZM213.25 146.92H211.69V143.8H213.25V146.92ZM152.93 145.88H151.37V142.76H152.93V145.88ZM213.25 140.68H211.69V137.56H213.25V140.68ZM152.93 139.64H151.37V136.52H152.93V139.64ZM213.25 134.44H211.69V131.32H213.25V134.44ZM152.93 133.4H151.37V130.28H152.93V133.4ZM213.25 128.2H211.69V125.08H213.25V128.2ZM152.93 127.16H151.37V124.04H152.93V127.16ZM213.25 121.96H211.69V118.84H213.25V121.96ZM152.93 120.92H151.37V117.8H152.93V120.92ZM213.25 115.72H211.69V112.6H213.25V115.72ZM152.93 114.68H151.37V111.56H152.93V114.68ZM233.01 110.78H231.71V110H231.45V107.4H233.01V110.78ZM228.59 110.78H225.47V109.22H228.59V110.78ZM222.35 110.78H219.23V109.22H222.35V110.78ZM216.11 110.78H212.99V109.22H216.11V110.78ZM152.93 108.44H151.37V105.32H152.93V108.44ZM233.01 104.28H231.45V101.16H233.01V104.28ZM152.93 102.2H151.37V99.0801H152.93V102.2ZM233.01 98.0401H231.45V94.9201H233.01V98.0401ZM152.93 95.9601H151.37V92.8401H152.93V95.9601ZM233.01 91.8001H231.45V88.6801H233.01V91.8001ZM152.93 89.7201H151.37V86.6001H152.93V89.7201ZM233.01 85.5601H231.45V82.4401H233.01V85.5601ZM152.93 83.4801H151.37V80.3601H152.93V83.4801ZM233.01 79.3201H231.45V76.2001H233.01V79.3201ZM152.93 77.2401H151.37V74.1201H152.93V77.2401ZM233.01 73.0801H231.45V69.9601H233.01V73.0801ZM152.93 71.0001H151.37V67.8801H152.93V71.0001ZM233.01 66.8401H231.45V63.7201H233.01V66.8401ZM152.93 64.7601H151.37V61.6401H152.93V64.7601ZM233.01 60.6001H231.45V57.4801H233.01V60.6001ZM152.93 58.5201H151.37V55.4001H152.93V58.5201ZM233.01 54.3601H231.45V51.2401H233.01V54.3601ZM152.93 52.2801H151.37V49.1601H152.93V52.2801ZM233.01 48.1201H231.45V45.0001H233.01V48.1201ZM152.93 46.0401H151.37V42.9201H152.93V46.0401ZM232.23 42.6601H229.11V41.1001H232.23V42.6601ZM225.99 42.6601H222.87V41.1001H225.99V42.6601ZM219.75 42.6601H216.63V41.1001H219.75V42.6601ZM213.51 42.6601H210.39V41.1001H213.51V42.6601ZM207.27 42.6601H204.15V41.1001H207.27V42.6601ZM201.03 42.6601H197.91V41.1001H201.03V42.6601ZM194.79 42.6601H191.67V41.1001H194.79V42.6601ZM188.55 42.6601H185.43V41.1001H188.55V42.6601ZM182.31 42.6601H179.19V41.1001H182.31V42.6601ZM176.07 42.6601H172.95V41.1001H176.07V42.6601ZM169.83 42.6601H166.71V41.1001H169.83V42.6601ZM163.59 42.6601H160.47V41.1001H163.59V42.6601ZM157.35 42.6601H154.23V41.1001H157.35V42.6601Z" fill="#553597"/>
<path d="M235.35 154.979H175.238V199.959H235.35V154.979Z" fill="white"/>
<path d="M236.13 200.74H174.458V154.2H236.13V200.74ZM176.018 199.18H234.57V155.76H176.018V199.18Z" fill="#553597"/>
<path d="M199.133 165.068C197.495 161.87 194.219 159.66 190.423 159.53C190.319 159.53 190.215 159.53 190.085 159.53C184.495 159.53 179.945 164.08 179.945 169.67C179.945 171.048 180.205 172.348 180.699 173.518C180.751 173.648 180.803 173.752 180.855 173.882C181.843 176.04 183.559 177.782 185.691 178.796C187.017 179.446 188.499 179.81 190.085 179.81C195.675 179.81 200.225 175.26 200.225 169.67C200.251 168.032 199.861 166.472 199.133 165.068ZM190.111 177.106C188.915 177.106 187.797 176.82 186.783 176.326C185.249 175.546 184.027 174.272 183.351 172.712C183.299 172.608 183.247 172.504 183.221 172.4C182.883 171.568 182.727 170.658 182.727 169.722C182.727 165.64 186.055 162.312 190.137 162.312C190.241 162.312 190.345 162.312 190.475 162.312C193.335 162.442 195.805 164.21 196.897 166.706C197.313 167.616 197.547 168.656 197.547 169.722C197.495 173.778 194.193 177.106 190.111 177.106Z" fill="#553597"/>
<path d="M190.422 159.556V162.312C190.318 162.312 190.214 162.312 190.084 162.312C186.002 162.312 182.674 165.64 182.674 169.722C182.674 170.788 182.908 171.802 183.298 172.712L180.854 173.933C180.256 172.633 179.918 171.204 179.918 169.696C179.918 164.106 184.468 159.556 190.058 159.556C190.214 159.53 190.318 159.556 190.422 159.556Z" fill="#A78ED7"/>
<path d="M199.133 165.068L196.871 166.654C195.701 164.08 193.127 162.26 190.111 162.26V159.53C194.037 159.53 197.443 161.792 199.133 165.068Z" fill="#6F46BE"/>
<path d="M210.832 165.328C211.679 165.328 212.366 164.641 212.366 163.794C212.366 162.947 211.679 162.26 210.832 162.26C209.985 162.26 209.298 162.947 209.298 163.794C209.298 164.641 209.985 165.328 210.832 165.328Z" fill="#A78ED7"/>
<path d="M228.85 163.092H215.564V164.522H228.85V163.092Z" fill="#6F46BE"/>
<path d="M210.832 170.372C211.679 170.372 212.366 169.685 212.366 168.838C212.366 167.991 211.679 167.304 210.832 167.304C209.985 167.304 209.298 167.991 209.298 168.838C209.298 169.685 209.985 170.372 210.832 170.372Z" fill="#6F46BE"/>
<path d="M228.85 168.136H215.564V169.566H228.85V168.136Z" fill="#6F46BE"/>
<path d="M210.832 175.416C211.679 175.416 212.366 174.729 212.366 173.882C212.366 173.034 211.679 172.348 210.832 172.348C209.985 172.348 209.298 173.034 209.298 173.882C209.298 174.729 209.985 175.416 210.832 175.416Z" fill="#553597"/>
<path d="M228.85 173.18H215.564V174.61H228.85V173.18Z" fill="#553597"/>
<path d="M183.741 195.514C183.741 195.514 193.881 184.646 202.097 192.55L219.101 188.052C219.101 188.052 224.301 186.726 227.707 191.874C228.253 192.706 229.293 194.396 231.815 195.514H183.741Z" fill="#6F46BE"/>
<path d="M178.514 195.514H232.282C232.282 195.514 225.6 194.448 219.62 187.558C218.424 186.18 216.006 183.684 212.054 183.268C208.57 182.904 204.384 184.594 199.99 190.288C198.456 192.264 195.492 195.878 190.11 192.056C184.728 188.234 178.514 195.514 178.514 195.514Z" fill="#A78ED7"/>
<path d="M189.851 23.5503H116.011V132.516H189.851V23.5503Z" fill="white"/>
<path d="M190.631 133.296H115.231V22.77H190.631V133.296ZM116.791 131.736H189.071V24.33H116.791V131.736Z" fill="#553597"/>
<path d="M156.051 33.6123C147.575 32.4423 139.489 35.7703 134.237 41.7763C131.169 45.2863 129.037 49.6803 128.361 54.6463C127.711 59.4043 128.465 64.0063 130.311 68.0883C130.675 68.9203 131.091 69.7263 131.559 70.5063C135.251 76.7463 141.647 81.2963 149.369 82.3363C149.473 82.3623 149.603 82.3623 149.707 82.3883C149.915 82.4143 150.123 82.4403 150.305 82.4663C155.011 82.9343 159.587 82.0243 163.565 80.0223C170.637 76.5123 175.889 69.7003 177.033 61.3283C178.905 47.8603 169.467 35.4583 156.051 33.6123ZM164.657 59.6123C164.033 64.0843 161.043 67.6723 157.091 69.2063C155.505 69.8303 153.789 70.1163 152.021 70.0123C151.865 70.0123 151.735 69.9863 151.579 69.9863C151.397 69.9603 151.241 69.9603 151.059 69.9343C147.367 69.4143 144.273 67.2823 142.453 64.3183C141.959 63.5123 141.543 62.6283 141.231 61.7183C140.685 60.0283 140.477 58.1823 140.737 56.3103C141.023 54.1523 141.881 52.1763 143.155 50.5643C145.703 47.2623 149.915 45.3903 154.335 45.9883C160.939 46.8983 165.567 53.0083 164.657 59.6123Z" fill="white"/>
<path d="M152.723 83.1943C151.917 83.1943 151.085 83.1423 150.279 83.0643C150.071 83.0383 149.863 83.0122 149.655 82.9862C149.525 82.9603 149.421 82.9603 149.291 82.9343C141.647 81.8943 134.965 77.4482 131.013 70.7923C130.545 70.0123 130.103 69.1803 129.713 68.3223C127.763 64.0063 127.061 59.2483 127.711 54.5163C128.387 49.6023 130.467 45.0263 133.743 41.3083C139.359 34.9123 147.731 31.7923 156.129 32.9363C169.909 34.8083 179.581 47.5743 177.709 61.3543C176.565 69.6483 171.417 76.8242 163.877 80.5423C160.393 82.3102 156.571 83.1943 152.723 83.1943ZM152.697 34.0283C145.859 34.0283 139.307 36.9663 134.705 42.1923C131.611 45.7283 129.635 50.0443 128.985 54.7243C128.387 59.1963 129.037 63.7203 130.883 67.8022C131.247 68.6082 131.663 69.4142 132.105 70.1423C135.849 76.4863 142.167 80.6723 149.447 81.6603C149.551 81.6863 149.681 81.6863 149.785 81.7122C149.993 81.7383 150.175 81.7643 150.383 81.7903C154.829 82.2323 159.301 81.4003 163.305 79.4243C170.455 75.8883 175.343 69.0763 176.435 61.2243C178.229 48.1463 169.051 36.0563 155.973 34.2623C154.855 34.1063 153.789 34.0283 152.697 34.0283ZM152.723 70.6883C152.463 70.6883 152.229 70.6883 151.969 70.6623C151.813 70.6623 151.657 70.6362 151.501 70.6362C151.319 70.6102 151.137 70.6103 150.955 70.5843C147.185 70.0643 143.883 67.9062 141.881 64.6823C141.335 63.8243 140.919 62.9143 140.607 61.9523C140.009 60.1063 139.827 58.1823 140.087 56.2583C140.399 54.0483 141.257 51.9683 142.635 50.2003C145.417 46.6123 149.941 44.7663 154.413 45.3643C157.767 45.8323 160.757 47.5743 162.811 50.2783C164.865 52.9823 165.749 56.3363 165.281 59.6903C164.657 64.2403 161.615 68.1143 157.325 69.8043C155.869 70.4023 154.309 70.6883 152.723 70.6883ZM152.723 46.5343C149.213 46.5343 145.859 48.1463 143.675 50.9803C142.453 52.5663 141.673 54.4383 141.387 56.4143C141.153 58.1563 141.309 59.8722 141.855 61.5362C142.141 62.3942 142.531 63.2003 142.999 63.9803C144.793 66.8923 147.783 68.8163 151.163 69.2843C151.319 69.3103 151.501 69.3363 151.657 69.3363C151.787 69.3363 151.943 69.3623 152.073 69.3623C153.737 69.4663 155.349 69.2063 156.883 68.5823C160.731 67.0743 163.487 63.5903 164.033 59.5083C164.449 56.4923 163.669 53.5023 161.797 51.0583C159.925 48.6143 157.273 47.0543 154.257 46.6383C153.737 46.5863 153.243 46.5343 152.723 46.5343Z" fill="#553597"/>
<path d="M163.591 79.9961C159.613 81.9721 155.037 82.8821 150.331 82.4401C150.123 82.4141 149.915 82.3881 149.733 82.3621L151.605 69.9861C151.761 70.0121 151.891 70.0121 152.047 70.0121C153.815 70.1161 155.557 69.8301 157.117 69.2061L163.591 79.9961Z" fill="#553597"/>
<path d="M152.723 83.1941C151.917 83.1941 151.085 83.1421 150.279 83.0641C150.071 83.0381 149.863 83.0121 149.655 82.9861L149.005 82.9081L151.059 69.2581L151.683 69.3101C151.813 69.3361 151.969 69.3361 152.099 69.3361C153.763 69.4401 155.375 69.1801 156.909 68.5561L157.429 68.3481L164.553 80.2301L163.929 80.5421C160.393 82.3101 156.571 83.1941 152.723 83.1941ZM150.461 81.7901C154.647 82.1801 158.859 81.4781 162.655 79.7101L156.831 69.9861C155.323 70.5061 153.737 70.7401 152.151 70.6621L150.461 81.7901Z" fill="#553597"/>
<path d="M130.311 68.0623L141.231 61.7183C141.543 62.6283 141.933 63.5123 142.453 64.3183C144.273 67.2823 147.367 69.4143 151.059 69.9343C151.371 69.9863 151.683 70.0123 152.021 70.0383L150.331 82.4663C150.019 82.4403 149.707 82.3883 149.369 82.3623C141.647 81.2963 135.251 76.7463 131.559 70.5323C131.091 69.7003 130.675 68.8943 130.311 68.0623Z" fill="#6F46BE"/>
<path d="M150.876 83.1422L150.252 83.0902C149.94 83.0642 149.602 83.0122 149.29 82.9862C141.62 81.9462 134.964 77.5002 131.012 70.8442C130.544 70.0382 130.102 69.2062 129.738 68.3742L129.504 67.8282L141.646 60.7822L141.906 61.5362C142.192 62.3942 142.582 63.2262 143.05 63.9802C144.844 66.8922 147.834 68.8162 151.214 69.2842C151.5 69.3362 151.812 69.3622 152.124 69.3622L152.826 69.4142L150.876 83.1422ZM131.142 68.3482C131.428 68.9722 131.766 69.5702 132.104 70.1682C135.848 76.5122 142.192 80.6982 149.446 81.6862C149.55 81.7122 149.654 81.7122 149.758 81.7382L151.266 70.6362C151.162 70.6362 151.058 70.6102 150.954 70.6102C147.184 70.0902 143.882 67.9322 141.88 64.7082C141.49 64.0842 141.152 63.4082 140.866 62.7322L131.142 68.3482Z" fill="#553597"/>
<path d="M128.36 54.62C129.036 49.68 131.142 45.26 134.236 41.75L143.18 50.564C141.932 52.176 141.074 54.126 140.762 56.31C140.372 59.196 141.048 62.004 142.478 64.292L131.584 70.454C128.828 65.878 127.58 60.34 128.36 54.62Z" fill="#A78ED7"/>
<path d="M131.324 71.364L131.012 70.818C128.074 65.878 126.93 60.262 127.71 54.542C128.386 49.628 130.466 45.052 133.742 41.334L134.184 40.814L144.012 50.512L143.648 50.98C142.426 52.566 141.646 54.438 141.36 56.414C140.996 59.04 141.568 61.718 142.972 63.98L143.336 64.552L131.324 71.364ZM129.01 54.724C128.308 59.924 129.27 65.046 131.818 69.596L141.568 64.084C140.268 61.692 139.748 58.936 140.112 56.258C140.398 54.256 141.152 52.332 142.296 50.668L134.262 42.738C131.428 46.144 129.608 50.278 129.01 54.724Z" fill="#553597"/>
<path d="M181.531 91.3579H124.409V123.78H181.531V91.3579Z" fill="white"/>
<path d="M182.311 124.56H123.629V90.5781H182.311V124.56ZM125.189 123H180.751V92.1381H125.189V123Z" fill="#553597"/>
<path d="M136.551 97.52H129.791V104.28H136.551V97.52Z" fill="white"/>
<path d="M137.201 104.93H129.141V96.8701H137.201V104.93ZM130.441 103.63H135.901V98.1701H130.441V103.63Z" fill="#553597"/>
<path d="M150.072 97.52H143.312V104.28H150.072V97.52Z" fill="#6F46BE"/>
<path d="M150.722 104.93H142.662V96.8701H150.722V104.93ZM143.962 103.63H149.422V98.1701H143.962V103.63Z" fill="#553597"/>
<path d="M164.371 97.52H157.611V104.28H164.371V97.52Z" fill="#6F46BE"/>
<path d="M165.02 104.93H156.96V96.8701H165.02V104.93ZM158.26 103.63H163.72V98.1701H158.26V103.63Z" fill="#553597"/>
<path d="M176.851 97.52H170.091V104.28H176.851V97.52Z" fill="#553597"/>
<path d="M177.501 104.93H169.441V96.8701H177.501V104.93ZM170.741 103.63H176.201V98.1701H170.741V103.63Z" fill="#553597"/>
<path d="M154.231 108.31H129.791V109.61H154.231V108.31Z" fill="#553597"/>
<path d="M176.851 112.99H129.791V114.29H176.851V112.99Z" fill="#553597"/>
<path d="M176.851 117.67H129.791V118.97H176.851V117.67Z" fill="#553597"/>
<path d="M102.438 45.8574H65.7781V71.5974H102.438V45.8574Z" fill="white"/>
<path d="M103.218 72.3776H64.998V45.0776H103.218V72.3776ZM66.558 70.8176H101.658V46.6376H66.558V70.8176Z" fill="#553597"/>
<path d="M83.5884 53.1377H71.1084V54.4377H83.5884V53.1377Z" fill="#553597"/>
<path d="M97.1086 58.0776H71.1086V59.3776H97.1086V58.0776Z" fill="#553597"/>
<path d="M97.1086 63.0176H71.1086V64.3176H97.1086V63.0176Z" fill="#553597"/>
<path d="M260.779 63.46H199.679V135.22H260.779V63.46Z" fill="white"/>
<path d="M261.559 136H198.899V62.6802H261.559V136ZM200.459 134.44H259.999V64.2402H200.459V134.44Z" fill="#553597"/>
<path d="M251.809 83.4803H208.649V73.3403H251.809V83.4803ZM209.949 82.1803H250.509V74.6403H209.949V82.1803Z" fill="#553597"/>
<path d="M250.38 93.0479H210.08V94.3479H250.38V93.0479Z" fill="#553597"/>
<path d="M227.551 97.0002C229.418 97.0002 230.931 95.487 230.931 93.6202C230.931 91.7535 229.418 90.2402 227.551 90.2402C225.684 90.2402 224.171 91.7535 224.171 93.6202C224.171 95.487 225.684 97.0002 227.551 97.0002Z" fill="white"/>
<path d="M227.551 97.6503C225.341 97.6503 223.521 95.8303 223.521 93.6203C223.521 91.4103 225.341 89.5903 227.551 89.5903C229.761 89.5903 231.581 91.4103 231.581 93.6203C231.581 95.8303 229.787 97.6503 227.551 97.6503ZM227.551 90.8903C226.043 90.8903 224.821 92.1123 224.821 93.6203C224.821 95.1283 226.043 96.3503 227.551 96.3503C229.059 96.3503 230.281 95.1283 230.281 93.6203C230.281 92.1123 229.059 90.8903 227.551 90.8903Z" fill="#553597"/>
<path d="M250.38 103.188H210.08V104.488H250.38V103.188Z" fill="#553597"/>
<path d="M240.551 107.14C242.418 107.14 243.931 105.627 243.931 103.76C243.931 101.893 242.418 100.38 240.551 100.38C238.684 100.38 237.171 101.893 237.171 103.76C237.171 105.627 238.684 107.14 240.551 107.14Z" fill="#A78ED7"/>
<path d="M240.551 107.79C238.341 107.79 236.521 105.97 236.521 103.76C236.521 101.55 238.341 99.73 240.551 99.73C242.761 99.73 244.581 101.55 244.581 103.76C244.581 105.97 242.787 107.79 240.551 107.79ZM240.551 101.03C239.043 101.03 237.821 102.252 237.821 103.76C237.821 105.268 239.043 106.49 240.551 106.49C242.059 106.49 243.281 105.268 243.281 103.76C243.281 102.252 242.059 101.03 240.551 101.03Z" fill="#553597"/>
<path d="M250.38 113.328H210.08V114.628H250.38V113.328Z" fill="#553597"/>
<path d="M221.571 117.28C223.437 117.28 224.951 115.767 224.951 113.9C224.951 112.033 223.437 110.52 221.571 110.52C219.704 110.52 218.191 112.033 218.191 113.9C218.191 115.767 219.704 117.28 221.571 117.28Z" fill="#6F46BE"/>
<path d="M221.57 117.93C219.36 117.93 217.54 116.11 217.54 113.9C217.54 111.69 219.36 109.87 221.57 109.87C223.78 109.87 225.6 111.69 225.6 113.9C225.6 116.11 223.806 117.93 221.57 117.93ZM221.57 111.17C220.062 111.17 218.84 112.392 218.84 113.9C218.84 115.408 220.062 116.63 221.57 116.63C223.078 116.63 224.3 115.408 224.3 113.9C224.3 112.392 223.078 111.17 221.57 111.17Z" fill="#553597"/>
<path d="M250.38 123.728H210.08V125.028H250.38V123.728Z" fill="#553597"/>
<path d="M231.451 127.68C233.318 127.68 234.831 126.167 234.831 124.3C234.831 122.433 233.318 120.92 231.451 120.92C229.585 120.92 228.071 122.433 228.071 124.3C228.071 126.167 229.585 127.68 231.451 127.68Z" fill="#553597"/>
<path d="M231.451 128.33C229.241 128.33 227.421 126.51 227.421 124.3C227.421 122.09 229.241 120.27 231.451 120.27C233.661 120.27 235.481 122.09 235.481 124.3C235.481 126.51 233.687 128.33 231.451 128.33ZM231.451 121.57C229.943 121.57 228.721 122.792 228.721 124.3C228.721 125.808 229.943 127.03 231.451 127.03C232.959 127.03 234.181 125.808 234.181 124.3C234.181 122.792 232.959 121.57 231.451 121.57Z" fill="#553597"/>
<path d="M260.987 135.818L276.275 152.406L268.891 161.376L242.553 135.818H260.987Z" fill="#553597"/>
<path d="M330.251 202.196C330.251 202.196 328.223 212.648 297.075 213.532C290.887 213.714 280.747 211.946 274.949 202.482L277.575 193.538L325.233 184.854L330.251 202.196Z" fill="#553597"/>
<path d="M321.827 189.82C321.827 189.82 323.647 189.898 326.767 206.694L330.121 231.966H301.391L287.351 189.82H321.827Z" fill="#A78ED7"/>
<path d="M280.227 192.966C280.227 192.966 275.495 215.872 273.623 231.94H311.687L307.865 191.068L280.227 192.966Z" fill="#A78ED7"/>
<path d="M293.21 206.682L291.984 207.113L300.778 232.132L302.004 231.701L293.21 206.682Z" fill="#553597"/>
<path d="M305.343 137.43L303.809 119.75L301.963 104.618L286.909 105.216C286.909 105.216 277.965 127.134 291.537 125.522L291.251 138.288L305.343 137.43Z" fill="white"/>
<path d="M291.225 138.964C291.069 138.964 290.887 138.912 290.783 138.782C290.653 138.652 290.575 138.47 290.575 138.288L290.861 126.25C288.183 126.406 286.207 125.652 284.933 123.988C280.825 118.606 286.077 105.528 286.311 104.982C286.415 104.748 286.623 104.592 286.883 104.566L301.937 103.968C302.275 103.942 302.561 104.202 302.613 104.54L304.459 119.672L305.993 137.378C306.019 137.56 305.941 137.716 305.837 137.846C305.733 137.976 305.551 138.054 305.395 138.08L291.277 138.938C291.251 138.964 291.251 138.964 291.225 138.964ZM291.511 124.872C291.667 124.872 291.823 124.924 291.953 125.028C292.083 125.158 292.161 125.34 292.161 125.522L291.875 137.586L304.615 136.806L303.133 119.776L301.365 105.268L287.325 105.814C286.493 107.998 282.645 118.84 285.947 123.156C287.039 124.612 288.833 125.158 291.433 124.846C291.459 124.872 291.485 124.872 291.511 124.872Z" fill="#553597"/>
<path d="M280.955 104.488C280.513 101.55 285.427 101.42 285.427 101.42C283.997 101.004 283.581 100.172 283.711 99.5218C284.413 95.8038 291.329 98.7678 291.329 98.7678C290.523 97.0778 292.135 96.9998 292.135 96.9998C294.787 96.8958 299.363 99.0278 302.535 100.718C303.627 100.822 317.459 102.564 304.771 122.168C304.771 122.168 300.455 123.312 300.429 115.72C300.429 115.72 302.821 112.08 299.493 111.248C298.843 111.092 298.193 111.326 297.777 111.846C297.231 112.548 296.893 113.172 296.737 113.588C296.607 113.9 296.295 114.108 295.931 114.082C295.463 114.056 295.125 113.666 295.125 113.224L295.255 110.234C289.171 109.584 281.501 108.076 280.955 104.488Z" fill="#553597"/>
<path d="M239.667 146.348C239.667 146.348 238.523 142.656 243.827 134.908C243.827 134.908 247.571 131.346 249.677 131.086L253.369 135.818L244.945 149.52L239.667 146.348Z" fill="#553597"/>
<path d="M251.783 136.91L246.011 148.766L241.409 138.782L240.551 136.91L232.023 132.334L228.981 127.758C231.113 126.848 234.753 129.578 234.753 129.578L237.197 128.98L236.495 126.848L234.935 122.116L231.113 120.504C229.059 120.374 227.967 119.62 227.395 118.814C226.823 118.008 227.473 116.916 228.435 116.994L237.093 117.774C237.873 117.852 238.575 118.294 238.991 118.97L244.399 128.148L251.783 136.91Z" fill="white"/>
<path d="M245.985 149.442C245.725 149.442 245.491 149.286 245.387 149.052L240.005 137.378L231.685 132.906C231.581 132.854 231.503 132.776 231.451 132.698L228.409 128.122C228.305 127.966 228.279 127.758 228.331 127.576C228.383 127.394 228.513 127.238 228.695 127.16C230.827 126.25 233.921 128.2 234.857 128.876L236.313 128.512L234.363 122.584L230.905 121.128C229.007 120.972 227.629 120.322 226.823 119.178C226.407 118.606 226.381 117.852 226.719 117.254C227.083 116.63 227.733 116.292 228.461 116.344L237.119 117.124C238.107 117.202 239.017 117.774 239.511 118.632L244.893 127.784L252.225 136.468C252.381 136.676 252.433 136.936 252.303 137.17L246.531 149.026C246.479 149.286 246.245 149.442 245.985 149.442ZM232.439 131.866L240.811 136.364C240.941 136.442 241.045 136.546 241.097 136.676L245.985 147.284L250.977 137.04L243.879 128.642C243.853 128.616 243.827 128.59 243.827 128.564L238.419 119.386C238.133 118.892 237.613 118.554 237.041 118.502L228.383 117.722C228.071 117.696 227.941 117.904 227.889 117.982C227.837 118.06 227.759 118.268 227.915 118.502C228.513 119.334 229.605 119.802 231.139 119.906C231.217 119.906 231.295 119.932 231.347 119.958L235.169 121.57C235.351 121.648 235.481 121.778 235.533 121.96L237.795 128.824C237.847 129.006 237.821 129.188 237.743 129.344C237.665 129.5 237.509 129.604 237.327 129.656L234.883 130.254C234.701 130.306 234.493 130.254 234.337 130.15C233.557 129.578 231.529 128.304 230.047 128.278L232.439 131.866Z" fill="#553597"/>
<path d="M249.677 131.086C249.677 131.086 250.743 136.078 247.311 141.096C244.425 145.308 239.667 146.374 239.667 146.374L264.705 173.622C267.383 176.534 271.829 176.95 275.001 174.558L279.187 171.386L274.975 202.456C274.975 202.456 283.373 195.93 298.947 194.812C324.765 192.966 330.277 202.196 330.277 202.196C330.277 202.196 325.285 166.732 316.575 141.876C314.729 136.598 310.777 131.866 308.073 129.604C306.851 128.59 305.421 127.862 303.861 128.226L291.537 131.216C288.599 131.97 285.921 133.478 283.763 135.61L269.411 151.054L249.677 131.086Z" fill="#6F46BE"/>
<path d="M241.045 136.91L231.997 132.334L228.955 127.758C231.087 126.848 234.727 129.578 234.727 129.578L237.431 128.174L241.045 136.91Z" fill="#553597"/>
<path d="M291.911 159.305L278.828 170.289L279.664 171.284L292.747 160.301L291.911 159.305Z" fill="#553597"/>
<path d="M120.691 154.2C120.691 154.2 127.191 160.7 122.771 170.06H118.091L116.531 154.98L120.691 154.2Z" fill="#553597"/>
<path d="M82.2105 205.94C82.2105 205.94 92.8705 204.9 92.6105 192.42L86.8905 188.52L78.3105 201.26L82.2105 205.94Z" fill="#553597"/>
<path d="M82.7565 185.738L91.7005 194.552L96.5105 197.932L108.912 207.942C109.796 208.67 109.25 210.1 108.106 210.022C105.792 209.866 102.23 209.398 98.7725 206.85C98.7725 206.85 94.0665 213.168 90.4525 210.152C90.4525 210.152 87.0725 207.032 86.2665 203.444L76.8545 193.226L82.7565 185.738Z" fill="white"/>
<path d="M92.6107 211.634C91.6487 211.634 90.7907 211.296 90.0107 210.646L89.9847 210.62C89.8547 210.49 86.5527 207.422 85.6427 203.756L75.9707 193.278L82.6787 184.75L92.0907 194.058L96.9007 197.438L109.303 207.448C109.927 207.968 110.161 208.774 109.849 209.528C109.563 210.282 108.835 210.75 108.029 210.698C105.715 210.542 102.283 210.074 98.8507 207.76C97.9407 208.852 95.6267 211.322 93.1047 211.608C92.9487 211.608 92.7927 211.634 92.6107 211.634ZM90.8687 209.658C91.4927 210.178 92.1947 210.386 92.9747 210.308C95.6007 209.996 98.2267 206.512 98.2527 206.486L98.6427 205.966L99.1627 206.356C102.465 208.8 105.871 209.268 108.159 209.424C108.523 209.45 108.653 209.164 108.679 209.086C108.705 209.008 108.809 208.722 108.523 208.488L96.1467 198.478L91.2587 195.046L82.8347 186.726L77.7127 193.226L86.8647 203.158L86.8907 203.34C87.6187 206.564 90.6607 209.476 90.8687 209.658Z" fill="#553597"/>
<path d="M53.5064 188.91L59.9544 231.68H38.2184L25.9204 185.556L53.5064 188.91Z" fill="#A78ED7"/>
<path d="M13.6487 179.446C13.6487 179.446 9.12472 194.292 13.5707 224.946L13.7787 231.706H38.2967L42.8987 186.414L13.6487 179.446Z" fill="#A78ED7"/>
<path d="M67.4421 146.998L71.2641 132.438C71.2641 132.438 83.2761 136.884 79.5581 113.432L60.8901 114.394L60.0321 127.68L53.9741 142.63L67.4421 146.998Z" fill="white"/>
<path d="M67.4422 147.648C67.3642 147.648 67.3122 147.648 67.2342 147.622L53.7662 143.254C53.5842 143.202 53.4542 143.072 53.3762 142.916C53.2982 142.76 53.2982 142.552 53.3502 142.396L59.3562 127.55L60.1882 114.394C60.2142 114.056 60.4742 113.796 60.8122 113.796L79.4802 112.834C79.7922 112.808 80.1042 113.042 80.1562 113.38C81.6902 123.052 80.7802 129.318 77.4782 132.048C75.3462 133.79 72.8762 133.53 71.7062 133.27L68.0662 147.18C68.0142 147.362 67.9102 147.492 67.7542 147.596C67.6502 147.622 67.5462 147.648 67.4422 147.648ZM54.8322 142.214L66.9742 146.166L70.6142 132.282C70.6662 132.1 70.7702 131.944 70.9522 131.866C71.1082 131.788 71.3162 131.762 71.4722 131.84C71.6022 131.892 74.4102 132.88 76.6722 131.008C78.6482 129.37 80.6502 125.106 78.9862 114.134L61.4622 115.044L60.6562 127.732C60.6562 127.81 60.6302 127.862 60.6042 127.94L54.8322 142.214Z" fill="#553597"/>
<path d="M68.6906 119.23C68.6906 119.23 67.8846 115.59 65.2846 117.176C64.1926 117.852 63.4646 120.322 66.3246 122.22C66.3246 122.22 65.3626 127.966 59.5646 127.03C59.5646 127.03 54.3126 118.034 58.8626 110.572C58.8626 110.572 48.4626 110.468 49.1906 101.186C49.3986 98.4041 52.4406 93.7761 58.4206 94.8421C61.3846 95.3621 66.2986 98.1701 64.5826 105.164C64.5826 105.164 78.5966 101.446 80.7806 115.59C80.8326 115.59 74.8266 120.582 68.6906 119.23Z" fill="#553597"/>
<path d="M114.451 156.8L121.861 155.006L126.489 151.548L133.743 149.338C134.601 149.078 135.381 149.936 135.043 150.768C134.549 151.964 133.665 153.368 132.079 153.914C132.079 153.914 138.813 153.004 142.037 153.836C142.869 154.044 143.311 154.954 142.973 155.734C142.349 157.242 140.555 159.608 135.277 160.518L126.879 162.208L118.351 164.86L114.451 156.8Z" fill="white"/>
<path d="M118.351 165.51C118.117 165.51 117.883 165.38 117.753 165.146L113.853 157.086C113.775 156.904 113.775 156.696 113.853 156.514C113.931 156.332 114.087 156.202 114.295 156.15L121.575 154.382L126.099 151.002C126.151 150.95 126.229 150.924 126.307 150.898L133.561 148.688C134.211 148.506 134.887 148.688 135.329 149.182C135.771 149.676 135.901 150.378 135.641 151.002C135.329 151.782 134.939 152.432 134.471 152.978C136.759 152.796 140.113 152.64 142.193 153.186C142.765 153.342 143.233 153.732 143.519 154.252C143.779 154.772 143.805 155.396 143.597 155.968C142.973 157.476 141.101 160.154 135.407 161.142L127.061 162.832L118.533 165.458C118.481 165.51 118.429 165.51 118.351 165.51ZM115.387 157.242L118.689 164.08L126.697 161.61C126.723 161.61 126.749 161.61 126.749 161.584L135.147 159.894C140.243 159.01 141.855 156.774 142.375 155.5C142.453 155.292 142.453 155.058 142.349 154.876C142.245 154.694 142.089 154.538 141.881 154.486C138.813 153.68 132.235 154.564 132.183 154.564C131.845 154.616 131.533 154.382 131.455 154.07C131.377 153.732 131.559 153.42 131.871 153.316C133.249 152.848 134.029 151.548 134.445 150.56C134.549 150.326 134.419 150.17 134.367 150.092C134.315 150.04 134.159 149.91 133.925 149.962L126.775 152.12L122.225 155.5C122.147 155.552 122.069 155.578 121.991 155.604L115.387 157.242Z" fill="#553597"/>
<path d="M72.2526 165.9L83.6666 172.348C85.4086 173.336 87.4366 173.752 89.4386 173.544L122.719 170.19C122.719 170.19 118.975 167.408 118.351 162.26C117.831 158.1 120.691 154.2 120.691 154.2L91.3106 154.616L71.3426 135.376C71.3426 135.376 65.8566 145.074 57.4066 130.358L45.6026 133.348C42.2226 134.206 39.2846 136.26 37.3346 139.146L8.63062 181.396C8.63062 181.396 17.9126 192.394 40.0906 198.946C51.5306 202.326 57.7706 202.326 57.7706 202.326C57.7706 202.326 61.5406 188.026 61.6706 188.026L82.2106 205.966C82.2106 205.966 81.9506 201.026 84.5506 197.386C88.3206 192.108 92.6106 192.446 92.6106 192.446L70.2506 170.086L72.2526 165.9Z" fill="#6F46BE"/>
<path d="M41.0095 202.226L37.9314 232.097L39.2245 232.23L42.3026 202.359L41.0095 202.226Z" fill="#553597"/>
<path d="M61.7752 189.04L51.3232 180.33C49.9192 179.16 48.8012 177.626 48.0992 175.936L39.4932 154.98L40.6892 154.486L49.2952 175.442C49.9192 176.95 50.9072 178.302 52.1552 179.342L62.6072 188.052L61.7752 189.04Z" fill="#553597"/>
<path d="M70.0426 170.788L64.8426 165.38C64.2446 164.756 63.8026 164.028 63.5686 163.222L60.2666 152.588L61.5146 152.198L64.8166 162.806C64.9986 163.43 65.3366 164.002 65.8046 164.47L71.0046 169.878L70.0426 170.788Z" fill="#553597"/>
<path d="M118.61 209.658H84.6021V212.986H118.61V209.658Z" fill="#6F46BE"/>
<path d="M119.26 213.61H83.9517V209.008H119.26V213.61ZM85.2517 212.31H117.96V210.308H85.2517V212.31Z" fill="#553597"/>
<path d="M113.697 212.857H152.645C153.347 212.857 153.971 212.363 154.127 211.687L161.225 181.163C161.459 180.201 160.731 179.291 159.743 179.291H120.795C120.093 179.291 119.469 179.785 119.313 180.461L112.215 210.985C111.981 211.947 112.709 212.857 113.697 212.857Z" fill="#6F46BE"/>
<path d="M152.645 213.506H113.697C113.021 213.506 112.397 213.194 111.981 212.674C111.565 212.154 111.409 211.478 111.565 210.828L118.663 180.304C118.897 179.316 119.755 178.614 120.795 178.614H159.743C160.419 178.614 161.043 178.926 161.459 179.446C161.875 179.966 162.031 180.642 161.875 181.292L154.751 211.816C154.517 212.804 153.659 213.506 152.645 213.506ZM120.795 179.94C120.379 179.94 120.041 180.226 119.937 180.616L112.839 211.14C112.787 211.4 112.839 211.66 112.995 211.894C113.151 212.128 113.411 212.232 113.671 212.232H152.619C153.035 212.232 153.373 211.946 153.477 211.556L160.575 181.032C160.627 180.772 160.575 180.486 160.419 180.278C160.263 180.07 160.003 179.94 159.743 179.94H120.795Z" fill="#553597"/>
<path d="M116.479 212.856H155.427C156.129 212.856 156.753 212.362 156.909 211.686L164.007 181.162C164.241 180.2 163.513 179.29 162.525 179.29H123.577C122.875 179.29 122.251 179.784 122.095 180.46L114.997 210.984C114.763 211.946 115.491 212.856 116.479 212.856Z" fill="#A78ED7"/>
<path d="M155.427 213.506H116.479C115.803 213.506 115.179 213.194 114.763 212.674C114.347 212.154 114.191 211.478 114.347 210.828L121.445 180.304C121.679 179.316 122.537 178.614 123.577 178.614H162.525C163.201 178.614 163.825 178.926 164.241 179.446C164.657 179.966 164.813 180.642 164.657 181.292L157.559 211.816C157.325 212.804 156.441 213.506 155.427 213.506ZM123.577 179.94C123.161 179.94 122.823 180.226 122.719 180.616L115.621 211.14C115.569 211.4 115.621 211.66 115.777 211.894C115.933 212.128 116.193 212.232 116.453 212.232H155.401C155.817 212.232 156.155 211.946 156.259 211.556L163.357 181.032C163.409 180.772 163.357 180.486 163.201 180.278C163.045 180.07 162.785 179.94 162.525 179.94H123.577Z" fill="#553597"/>
<path d="M143.058 196.824C143.475 195.181 142.844 193.604 141.647 193.299C140.45 192.995 139.141 194.08 138.724 195.722C138.306 197.364 138.938 198.942 140.135 199.246C141.332 199.551 142.64 198.466 143.058 196.824Z" fill="white"/>
<path d="M140.555 199.96C140.373 199.96 140.165 199.934 139.983 199.882C138.449 199.492 137.591 197.568 138.111 195.566C138.345 194.63 138.839 193.824 139.489 193.278C140.191 192.68 141.049 192.472 141.803 192.654C142.583 192.862 143.207 193.46 143.545 194.292C143.857 195.072 143.909 196.034 143.675 196.944C143.233 198.764 141.933 199.96 140.555 199.96ZM141.231 193.902C140.841 193.902 140.503 194.136 140.295 194.292C139.853 194.656 139.515 195.228 139.333 195.904C139.021 197.178 139.437 198.426 140.269 198.634C141.101 198.842 142.063 197.958 142.401 196.684C142.557 196.034 142.531 195.358 142.323 194.812C142.219 194.552 141.959 194.058 141.465 193.954C141.413 193.928 141.309 193.902 141.231 193.902Z" fill="#553597"/>
<path d="M57.1475 216.548H49.0615V231.082H57.1475V216.548Z" fill="white"/>
<path d="M57.7976 231.758H48.4116V215.924H57.7976V231.758ZM49.7116 230.458H56.4976V217.224H49.7116V230.458Z" fill="#553597"/>
<path d="M108.549 216.626H100.463V231.16H108.549V216.626Z" fill="#553597"/>
<path d="M109.199 231.81H99.8132V215.976H109.199V231.81ZM101.113 230.51H107.899V217.276H101.113V230.51Z" fill="#553597"/>
<path d="M205.789 216.548H197.703V231.082H205.789V216.548Z" fill="white"/>
<path d="M206.439 231.758H197.053V215.924H206.439V231.758ZM198.353 230.458H205.139V217.224H198.353V230.458Z" fill="#553597"/>
<path d="M257.218 216.626H249.132V231.16H257.218V216.626Z" fill="#553597"/>
<path d="M257.841 231.81H248.455V215.976H257.841V231.81ZM249.781 230.51H256.567V217.276H249.781V230.51Z" fill="#553597"/>
<path d="M262.131 213.74H43.7571V220.422H262.131V213.74Z" fill="white"/>
<path d="M262.781 221.072H43.1069V213.09H262.781V221.072ZM44.4069 219.772H261.481V214.39H44.4069V219.772Z" fill="#553597"/>
<path d="M341.17 230.77H0.830078V232.07H341.17V230.77Z" fill="#553597"/>
</svg>
