<svg width="297" height="212" viewBox="0 0 297 212" fill="none" xmlns="http://www.w3.org/2000/svg">
<path d="M8.22789 154.159C34.8203 211.942 104.159 213.191 136.638 181.309C158.839 159.521 173.297 164.844 213.896 147.994C254.013 131.347 274.391 75.4686 235.06 42.4232C195.73 9.37782 147.532 -1.8515 95.012 10.3856C28.2712 25.9383 -18.3692 96.3768 8.22789 154.159Z" fill="#EDE3FF"/>
<mask id="mask0_47_14276" style="mask-type:luminance" maskUnits="userSpaceOnUse" x="17" y="0" width="174" height="138">
<path d="M17.4879 0.972046H190.462V137.334H17.4879V0.972046Z" fill="white"/>
</mask>
<g mask="url(#mask0_47_14276)">
<path d="M20.5675 137.036H187.383C187.709 137.038 188.031 136.975 188.333 136.852C188.635 136.729 188.908 136.547 189.139 136.317C189.37 136.087 189.553 135.814 189.678 135.514C189.803 135.213 189.867 134.891 189.867 134.565V4.04026C189.867 3.7143 189.803 3.39207 189.679 3.09132C189.555 2.79058 189.371 2.51692 189.14 2.28716C188.909 2.0574 188.635 1.87528 188.334 1.75199C188.032 1.6287 187.71 1.56612 187.384 1.56706H20.5684C20.2425 1.56519 19.9202 1.62777 19.6186 1.75199C19.3169 1.87528 19.0432 2.0574 18.8125 2.28716C18.5818 2.51692 18.3988 2.79058 18.2736 3.09132C18.1485 3.39207 18.085 3.7143 18.085 4.04026V134.595C18.0915 135.248 18.3567 135.871 18.8219 136.329C19.287 136.787 19.9156 137.041 20.5684 137.036H20.5675Z" fill="white"/>
<path d="M18.1726 10.0374V4.23172C18.1726 3.90669 18.2352 3.5854 18.3594 3.28465C18.4837 2.98391 18.6658 2.71212 18.8946 2.48236C19.1244 2.2526 19.3971 2.07047 19.6969 1.94718C19.9977 1.82296 20.3189 1.75945 20.644 1.76039H187.336C187.661 1.76039 187.983 1.82296 188.282 1.94718C188.582 2.0714 188.855 2.25353 189.085 2.48236C189.314 2.71212 189.497 2.98484 189.62 3.28465C189.743 3.58446 189.808 3.90669 189.807 4.23172V10.0374H18.1726Z" fill="#EDE3FF"/>
<path d="M21.7684 5.88396L20.2974 4.41387C20.2133 4.32981 20.1666 4.2168 20.1666 4.09818C20.1666 3.97957 20.2133 3.86562 20.2974 3.78249C20.3815 3.69843 20.4945 3.65173 20.6131 3.65173C20.7317 3.65173 20.8456 3.69843 20.9288 3.78249L22.3989 5.25352L23.869 3.78249C23.953 3.69843 24.066 3.65173 24.1847 3.65173C24.3033 3.65173 24.4172 3.69843 24.5003 3.78249C24.5844 3.86655 24.6311 3.97957 24.6311 4.09818C24.6311 4.2168 24.5844 4.33074 24.5003 4.41387L23.0293 5.88396L24.5003 7.35406C24.5844 7.43811 24.6311 7.55113 24.6311 7.66974C24.6311 7.78836 24.5844 7.90231 24.5003 7.98543C24.4163 8.06856 24.3033 8.11619 24.1847 8.11619C24.066 8.11619 23.9521 8.06949 23.869 7.98543L22.3989 6.5144L20.9288 7.98543C20.8447 8.06949 20.7317 8.11619 20.6131 8.11619C20.4945 8.11619 20.3805 8.06949 20.2974 7.98543C20.2143 7.90137 20.1666 7.78836 20.1666 7.66974C20.1666 7.55113 20.2133 7.43718 20.2974 7.35406L21.7684 5.88396Z" fill="#553597"/>
<path d="M20.444 0.97191H187.506C188.285 0.968174 189.033 1.27266 189.588 1.82091C190.142 2.36822 190.457 3.11261 190.462 3.89155V134.414C190.457 135.193 190.142 135.939 189.588 136.485C189.034 137.032 188.285 137.338 187.506 137.334H20.443C19.6688 137.342 18.9225 137.043 18.3687 136.501C17.8148 135.959 17.4982 135.22 17.4879 134.446V3.89062C17.4935 3.11167 17.8083 2.36729 18.3621 1.81997C18.9169 1.27266 19.665 0.967245 20.444 0.970981V0.97191ZM187.507 1.8648H20.444C19.9023 1.86013 19.3802 2.07121 18.9935 2.45135C18.6068 2.83148 18.3864 3.34891 18.3808 3.89062V9.90269H189.569V3.89062C189.564 3.34891 189.343 2.83055 188.957 2.45135C188.57 2.07121 188.049 1.86013 187.506 1.8648H187.507ZM18.3817 10.7965V27.1721H189.569V10.7965H18.3817ZM20.444 136.44H187.506C188.048 136.444 188.57 136.234 188.957 135.854C189.343 135.473 189.564 134.956 189.569 134.413V28.065H18.3817V134.445C18.392 134.983 18.6143 135.495 19.001 135.868C19.3876 136.242 19.9069 136.448 20.444 136.439V136.44Z" fill="#553597"/>
<path d="M28.3549 8.11715H30.1416C30.4966 8.11715 30.8374 7.97519 31.0887 7.72395C31.3399 7.47271 31.481 7.1318 31.481 6.77689V4.99017C31.481 4.63526 31.339 4.29435 31.0887 4.04311C30.8374 3.79186 30.4966 3.65084 30.1416 3.6499H28.3549C28 3.6499 27.6591 3.79186 27.4079 4.04311C27.1566 4.29435 27.0156 4.63526 27.0156 4.99017V6.77689C27.0156 7.1318 27.1575 7.47271 27.4079 7.72395C27.6591 7.97519 28 8.11622 28.3549 8.11715ZM30.1416 4.54466C30.2603 4.54466 30.3733 4.59136 30.4573 4.67542C30.5414 4.75948 30.5881 4.87249 30.5881 4.99111V6.77782C30.5881 6.89644 30.5414 7.00945 30.4573 7.09351C30.3733 7.17757 30.2603 7.22426 30.1416 7.22426H28.3549C28.2363 7.22426 28.1233 7.17757 28.0392 7.09351C27.9552 7.00945 27.9085 6.89644 27.9085 6.77782V4.99111C27.9085 4.87249 27.9552 4.75948 28.0392 4.67542C28.1233 4.59136 28.2363 4.54466 28.3549 4.54466H30.1416Z" fill="#553597"/>
<path d="M34.3092 8.11701H37.8817C38.0003 8.11701 38.1133 8.07032 38.1974 7.98626C38.2814 7.9022 38.3281 7.78919 38.3281 7.67057C38.3281 7.55195 38.2814 7.43894 38.1974 7.35488C38.1133 7.27082 38.0003 7.22412 37.8817 7.22412H34.3092C34.1906 7.22412 34.0776 7.27082 33.9935 7.35488C33.9094 7.43894 33.8627 7.55195 33.8627 7.67057C33.8627 7.78919 33.9094 7.9022 33.9935 7.98626C34.0776 8.07032 34.1906 8.11701 34.3092 8.11701Z" fill="#553597"/>
<path d="M37.8817 23.5998H146.846C147.28 23.5998 147.696 23.427 148.003 23.1197C148.311 22.8124 148.483 22.3968 148.483 21.9625V16.0074C148.483 15.5731 148.31 15.1575 148.003 14.8502C147.696 14.5429 147.28 14.3701 146.846 14.3701H37.8817C37.4474 14.3701 37.0318 14.5429 36.7245 14.8502C36.4172 15.1575 36.2444 15.5731 36.2444 16.0074V21.9625C36.2444 22.3968 36.4181 22.8124 36.7245 23.1197C37.0318 23.427 37.4474 23.5998 37.8817 23.5998ZM146.846 15.263C147.043 15.263 147.233 15.3415 147.373 15.4806C147.512 15.6198 147.591 15.8094 147.591 16.0074V21.9625C147.591 22.1596 147.512 22.3492 147.373 22.4893C147.234 22.6284 147.044 22.7069 146.846 22.7069H37.8817C37.6846 22.7069 37.495 22.6284 37.3549 22.4893C37.2158 22.3501 37.1373 22.1605 37.1373 21.9625V16.0074C37.1373 15.8103 37.2158 15.6207 37.3549 15.4806C37.4941 15.3415 37.6837 15.263 37.8817 15.263H146.846Z" fill="#553597"/>
<path d="M173.343 23.0039C173.435 23.0039 173.524 22.9759 173.598 22.9245C173.673 22.8722 173.731 22.7984 173.763 22.7134C173.795 22.6275 173.799 22.5341 173.776 22.4463C173.753 22.3576 173.704 22.2791 173.634 22.2194L169.861 18.9859L173.633 15.7524C173.723 15.6749 173.779 15.5656 173.788 15.447C173.797 15.3284 173.759 15.2117 173.682 15.122C173.604 15.0323 173.495 14.9763 173.376 14.967C173.258 14.9576 173.141 14.9959 173.051 15.0734L168.883 18.6459C168.834 18.688 168.795 18.7403 168.768 18.7982C168.741 18.857 168.727 18.9205 168.727 18.985C168.727 19.0494 168.741 19.1129 168.768 19.1718C168.795 19.2306 168.834 19.282 168.883 19.324L173.051 22.8965C173.132 22.9656 173.235 23.0039 173.342 23.0039H173.343Z" fill="#553597"/>
<path d="M180.488 23.0039C180.595 23.0039 180.698 22.9656 180.779 22.8965L184.947 19.324C184.996 19.2819 185.035 19.2296 185.062 19.1717C185.089 19.1129 185.103 19.0494 185.103 18.9849C185.103 18.9205 185.089 18.857 185.062 18.7981C185.035 18.7393 184.996 18.6879 184.947 18.6459L180.779 15.0734C180.734 15.0351 180.682 15.0061 180.626 14.9875C180.57 14.9688 180.512 14.9622 180.454 14.9669C180.395 14.9716 180.338 14.9875 180.286 15.0136C180.233 15.0398 180.187 15.0771 180.148 15.121C180.11 15.1649 180.081 15.2172 180.062 15.2732C180.044 15.3293 180.037 15.3881 180.042 15.446C180.046 15.5049 180.062 15.5619 180.088 15.6142C180.115 15.6665 180.152 15.7132 180.196 15.7515L183.969 18.9849L180.197 22.2184C180.128 22.2782 180.078 22.3566 180.055 22.4453C180.031 22.5341 180.036 22.6265 180.068 22.7125C180.1 22.7984 180.157 22.8722 180.231 22.9245C180.306 22.9768 180.396 23.0048 180.486 23.0048L180.488 23.0039Z" fill="#553597"/>
<path d="M155.331 18.5375C155.45 18.5375 155.563 18.5842 155.647 18.6683C155.731 18.7523 155.778 18.8654 155.778 18.984C155.773 19.6228 155.973 20.2467 156.348 20.7641C156.722 21.2816 157.253 21.6654 157.861 21.8606C158.47 22.0558 159.124 22.0512 159.73 21.8476C160.335 21.644 160.86 21.2526 161.228 20.7305C161.596 20.2084 161.786 19.5817 161.773 18.9429C161.76 18.304 161.542 17.6867 161.154 17.1795C160.764 16.6724 160.224 16.3034 159.611 16.126C158.998 15.9485 158.343 15.9709 157.743 16.1913L158.6 16.4771C158.712 16.5145 158.806 16.5948 158.858 16.7013C158.911 16.8068 158.92 16.9301 158.882 17.0422C158.845 17.1543 158.764 17.2477 158.658 17.3C158.553 17.3523 158.429 17.3616 158.317 17.3243L156.531 16.7284C156.47 16.7078 156.414 16.6752 156.367 16.6313C156.32 16.5874 156.283 16.5341 156.259 16.4753C156.235 16.4164 156.222 16.3529 156.225 16.2885C156.228 16.225 156.244 16.1615 156.272 16.1045L157.165 14.3178C157.218 14.2122 157.311 14.131 157.423 14.0936C157.535 14.0563 157.658 14.0647 157.764 14.1179C157.869 14.1711 157.95 14.2636 157.988 14.3766C158.025 14.4896 158.017 14.612 157.963 14.7175L157.689 15.2667C158.469 15.0435 159.299 15.0715 160.062 15.347C160.825 15.6216 161.483 16.1297 161.941 16.7984C162.4 17.4672 162.637 18.2639 162.618 19.0746C162.6 19.8853 162.327 20.6698 161.838 21.3171C161.35 21.9643 160.67 22.4416 159.896 22.6816C159.121 22.9217 158.29 22.9114 157.522 22.6536C156.753 22.3958 156.084 21.9027 155.611 21.2442C155.137 20.5858 154.883 19.7947 154.884 18.984C154.884 18.8654 154.931 18.7523 155.015 18.6683C155.099 18.5842 155.212 18.5375 155.33 18.5375H155.331Z" fill="#553597"/>
<path d="M22.5307 22.3903L25.0468 19.8751C24.5154 19.183 24.2669 18.3144 24.3519 17.4467C24.4369 16.5781 24.8498 15.7749 25.5054 15.1995C26.1611 14.6242 27.0119 14.3197 27.8833 14.3477C28.7548 14.3757 29.5841 14.7353 30.2015 15.3527C30.8179 15.9701 31.1775 16.7985 31.2065 17.6708C31.2345 18.5432 30.9309 19.3931 30.3547 20.0488C29.7793 20.7044 28.9752 21.1173 28.1075 21.2022C27.2398 21.2872 26.3712 21.0388 25.6791 20.5074L23.1639 23.0235C23.0798 23.1076 22.9668 23.1543 22.8482 23.1543C22.7296 23.1543 22.6157 23.1076 22.5325 23.0235C22.4494 22.9395 22.4018 22.8265 22.4018 22.7078C22.4018 22.5892 22.4485 22.4753 22.5325 22.3921L22.5307 22.3903ZM30.2893 17.7932C30.2893 17.2926 30.1408 16.8032 29.8634 16.3876C29.5851 15.971 29.19 15.6469 28.7277 15.4554C28.2653 15.264 27.7563 15.2135 27.266 15.3116C26.7756 15.4097 26.3236 15.6506 25.9705 16.0046C25.6166 16.3586 25.3756 16.8097 25.2775 17.3001C25.1795 17.7913 25.2299 18.2994 25.4214 18.7627C25.6128 19.2259 25.9369 19.6201 26.3535 19.8984C26.77 20.1767 27.2585 20.3252 27.7591 20.3252C28.4297 20.3252 29.0732 20.0572 29.5477 19.5827C30.0222 19.1082 30.2884 18.4647 30.2893 17.7941V17.7932Z" fill="#553597"/>
</g>
<path d="M36.4348 116.385H83.9084C87.4454 116.385 90.3127 113.51 90.3127 109.964V46.0874C90.3127 42.5411 87.4454 39.6663 83.9084 39.6663H36.4348C32.8978 39.6663 30.0305 42.5411 30.0305 46.0874V109.964C30.0305 113.51 32.8978 116.385 36.4348 116.385Z" fill="white"/>
<path d="M36.4348 116.786H83.9084C87.6602 116.786 90.7134 113.726 90.7134 109.965V46.0883C90.7134 42.3262 87.6611 39.2665 83.9084 39.2665H36.4348C32.6829 39.2665 29.6297 42.3272 29.6297 46.0883V109.965C29.6297 113.727 32.682 116.786 36.4348 116.786ZM83.9084 40.0678C87.2193 40.0678 89.9129 42.768 89.9129 46.0874V109.964C89.9129 113.283 87.2193 115.983 83.9084 115.983H36.4348C33.1238 115.983 30.4302 113.283 30.4302 109.964V46.0874C30.4302 42.768 33.1238 40.0678 36.4348 40.0678H83.9084Z" fill="#553597"/>
<path d="M60.1713 78.0606C51.8257 78.0606 45.0603 71.278 45.0603 62.9113C45.0603 54.5446 51.8257 47.7621 60.1713 47.7621C68.5168 47.7621 75.2822 54.5446 75.2822 62.9113C75.2822 71.278 68.5168 78.0606 60.1713 78.0606Z" fill="#EDE3FF"/>
<path d="M60.1712 78.4622C68.7237 78.4622 75.6819 71.4863 75.6819 62.9113C75.6819 54.3364 68.7237 47.3605 60.1712 47.3605C51.6187 47.3605 44.6605 54.3364 44.6605 62.9113C44.6605 71.4863 51.6187 78.4622 60.1712 78.4622ZM60.1712 48.1637C68.2828 48.1637 74.8815 54.7801 74.8815 62.9113C74.8815 71.0426 68.2828 77.659 60.1712 77.659C52.0595 77.659 45.4609 71.0426 45.4609 62.9113C45.4609 54.7801 52.0595 48.1637 60.1712 48.1637Z" fill="#553597"/>
<path d="M60.1908 62.4219C58.1811 62.4219 56.552 60.7886 56.552 58.7738C56.552 56.7589 58.1811 55.1256 60.1908 55.1256C62.2004 55.1256 63.8296 56.7589 63.8296 58.7738C63.8296 60.7886 62.2004 62.4219 60.1908 62.4219Z" fill="white"/>
<path d="M60.1907 62.8226C62.4173 62.8226 64.2292 61.006 64.2292 58.7738C64.2292 56.5416 62.4173 54.725 60.1907 54.725C57.9641 54.725 56.1521 56.5416 56.1521 58.7738C56.1521 61.006 57.9641 62.8226 60.1907 62.8226ZM60.1907 55.5273C61.9765 55.5273 63.4288 56.9834 63.4288 58.7738C63.4288 60.5643 61.9765 62.0203 60.1907 62.0203C58.4049 62.0203 56.9525 60.5643 56.9525 58.7738C56.9525 56.9834 58.4049 55.5273 60.1907 55.5273Z" fill="#553597"/>
<path d="M60.1907 62.421C63.5801 62.421 66.3289 65.1763 66.3289 68.5741V69.6529H54.0535V68.5741C54.0535 65.1753 56.8013 62.421 60.1916 62.421H60.1907Z" fill="white"/>
<path d="M54.0534 70.0542H66.3288C66.5502 70.0542 66.7295 69.8749 66.7295 69.6526V68.5739C66.7295 64.9593 63.7968 62.0192 60.1916 62.0192C56.5864 62.0192 53.6537 64.9593 53.6537 68.5739V69.6526C53.6537 69.874 53.833 70.0542 54.0543 70.0542H54.0534ZM65.9291 69.2519H54.4541V68.5748C54.4541 65.403 57.0282 62.8224 60.1916 62.8224C63.355 62.8224 65.9291 65.403 65.9291 68.5748V69.2519Z" fill="#553597"/>
<path d="M38.2562 85.946H82.1264C82.3478 85.946 82.5271 85.7667 82.5271 85.5444C82.5271 85.3222 82.3478 85.1428 82.1264 85.1428H38.2562C38.0348 85.1428 37.8555 85.3222 37.8555 85.5444C37.8555 85.7667 38.0348 85.946 38.2562 85.946Z" fill="#553597"/>
<path d="M38.2562 93.6515H82.1264C82.3478 93.6515 82.5271 93.4722 82.5271 93.2499C82.5271 93.0276 82.3478 92.8483 82.1264 92.8483H38.2562C38.0348 92.8483 37.8555 93.0276 37.8555 93.2499C37.8555 93.4722 38.0348 93.6515 38.2562 93.6515Z" fill="#553597"/>
<path d="M38.2562 101.356H82.1264C82.3478 101.356 82.5271 101.177 82.5271 100.954C82.5271 100.732 82.3478 100.553 82.1264 100.553H38.2562C38.0348 100.553 37.8555 100.732 37.8555 100.954C37.8555 101.177 38.0348 101.356 38.2562 101.356Z" fill="#553597"/>
<path d="M38.2562 109.061H82.1264C82.3478 109.061 82.5271 108.882 82.5271 108.66C82.5271 108.437 82.3478 108.258 82.1264 108.258H38.2562C38.0348 108.258 37.8555 108.437 37.8555 108.66C37.8555 108.882 38.0348 109.061 38.2562 109.061Z" fill="#553597"/>
<mask id="mask1_47_14276" style="mask-type:luminance" maskUnits="userSpaceOnUse" x="24" y="33" width="19" height="19">
<path d="M24.8312 33.8484H42.8926V51.9098H24.8312V33.8484Z" fill="white"/>
</mask>
<g mask="url(#mask1_47_14276)">
<path d="M33.8617 51.7352C28.9704 51.7352 25.0056 47.7704 25.0056 42.8791C25.0056 37.9878 28.9704 34.0231 33.8617 34.0231C38.753 34.0231 42.7178 37.9878 42.7178 42.8791C42.7178 47.7704 38.753 51.7352 33.8617 51.7352Z" fill="#EDE3FF" stroke="#EDE3FF" stroke-width="0.454613" stroke-miterlimit="12.44"/>
</g>
<path d="M34.2812 37.5842H33.1978V48.4185H34.2812V37.5842Z" fill="white"/>
<path d="M39.1565 42.4597H28.3223V43.5431H39.1565V42.4597Z" fill="white"/>
<path d="M135.125 81.1637C141.837 74.4658 141.837 63.6065 135.125 56.9086C128.414 50.2108 117.532 50.2108 110.82 56.9086C104.108 63.6065 104.108 74.4658 110.82 81.1637C117.532 87.8615 128.414 87.8615 135.125 81.1637Z" fill="#6F46BE"/>
<path d="M128.673 69.0903L119.588 74.3248C119.545 74.3501 119.492 74.319 119.492 74.2704V63.7993C119.492 63.7507 119.545 63.7196 119.588 63.7448L128.673 68.9794C128.716 69.0047 128.716 69.065 128.673 69.0903Z" fill="#FFFFFC"/>
<path d="M121.204 166.846C121.204 166.846 111.385 162.699 101.796 149.355C92.2074 136.012 88.2117 110.53 88.2117 110.53L86.0983 97.313L83.135 92.7569C83.135 92.7569 82.6984 89.9925 84.436 92.3634C86.1735 94.7343 86.8212 96.1292 87.7729 95.8982C88.7245 95.6672 85.9977 88.8817 85.9977 88.8817C85.9977 88.8817 85.4683 86.3726 87.0677 87.5365C87.858 87.0657 87.9763 85.8421 88.8793 87.3298C89.7823 88.8176 93.0209 95.7888 93.0209 95.7888C93.0209 95.7888 94.2146 90.1473 95.5841 90.3584C95.5841 90.3584 95.9953 93.9816 95.2437 99.2064C96.4893 103.714 101.155 117.863 105.071 122.188C108.987 126.513 111.887 127.283 116.555 126.384C121.223 125.484 123.501 124.002 123.501 124.002C123.501 124.002 126.969 131.926 126.871 135.363C126.773 138.801 127.173 148.787 125.562 153.987C123.952 159.186 121.206 166.846 121.206 166.846H121.204Z" fill="white"/>
<path d="M202.527 188.767C201.004 191.397 188.955 197.411 179.668 197.491C171.01 196.643 164.836 196.123 154.914 188.446C144.991 180.768 137.387 161.203 137.387 161.203L133.824 153.535L130.38 144.752C130.38 144.752 123.409 121.077 120.72 118.937L114.962 118.86C114.962 118.86 112.573 118.276 114.825 117.652C117.078 117.027 120.259 117.033 120.259 117.033L112.578 115.094C112.578 115.094 109.634 112.86 113.487 113.4C113.673 112.889 112.073 111.725 114.836 111.288C118.086 111.896 123.121 113.158 123.121 113.158L119.323 107.718C119.323 107.718 118.19 105.278 120.624 107.325C123.057 109.372 125.654 111.767 125.654 111.767C125.654 111.767 125.336 107.889 127.24 107.427C127.819 108.217 128.393 112.189 127.901 114.325C129.221 116.255 138.697 127.531 139.761 129.367C140.825 131.203 147.68 140.943 151.528 144.664C155.376 148.386 158.831 150.806 161.731 151.576C164.632 152.346 169.628 154.441 175.344 148.725C180.167 150.208 189.515 153.914 194.54 161.538C199.565 169.163 203.695 183.985 202.526 188.767H202.527Z" fill="white"/>
<path d="M159.934 103.454C162.692 106.199 165.681 109.895 173.665 110.208C181.65 110.52 189.671 103.611 189.671 103.611C189.671 103.611 181.178 100.746 178.996 101.157L179.652 84.3212C179.652 84.3212 184.133 83.9321 182.956 80.0293C181.778 76.1264 178.617 78.4443 177.547 79.7894C176.477 81.1346 174.161 77.9734 172.846 72.8625C171.532 67.7515 172.445 62.876 172.445 62.876C172.445 62.876 166.496 66.4903 163.889 70.4584C161.798 71.4311 162.24 71.0133 160.709 70.454C159.178 69.8947 158.826 71.808 159.359 72.5651C159.893 73.3223 161.749 73.1487 161.749 73.1487C161.749 73.1487 158.838 78.7416 159.971 81.181C161.104 83.6204 162.007 85.1082 166.021 85.9968C170.036 86.8855 165.799 93.7296 165.799 93.7296L164.998 100.672L159.932 103.452L159.934 103.454Z" fill="white"/>
<path d="M101.513 116.575C101.513 116.575 99.7167 113.653 98.1438 113.945C97.7194 114.021 97.2817 113.934 96.9203 113.699C96.5577 113.466 96.298 113.102 96.193 112.685L94.5571 105.928C94.4886 105.65 94.493 105.36 94.5682 105.084C94.6433 104.808 94.787 104.556 94.9871 104.352C95.3861 103.952 95.8205 103.203 95.8934 101.87C95.8978 101.858 100.329 115.076 101.514 116.576L101.513 116.575Z" fill="white"/>
<path d="M147.4 145.007L140.555 135.44C139.599 133.971 138.207 133.768 137.505 134.232C136.645 134.797 136.547 135.868 137.504 137.045L140.336 140.892C140.554 141.189 140.649 141.558 140.604 141.923C140.56 142.289 140.379 142.624 140.097 142.861C139.921 143.007 139.783 143.193 139.694 143.403C139.604 143.613 139.565 143.842 139.581 144.07C139.596 144.298 139.666 144.519 139.783 144.715C139.9 144.912 140.063 145.077 140.256 145.198L143.512 147.228C144.068 147.575 144.719 147.736 145.374 147.691C146.028 147.644 146.65 147.392 147.152 146.971C147.434 146.736 147.615 146.403 147.662 146.04C147.708 145.676 147.616 145.308 147.403 145.009L147.4 145.007Z" fill="white"/>
<path d="M99.0591 118.332C98.8535 118.319 98.6534 118.262 98.4733 118.165C98.2931 118.066 98.1362 117.929 98.0146 117.764C97.2884 116.872 97.3591 116.057 98.0201 115.632C98.5451 115.291 99.6095 115.44 100.335 116.558C100.454 116.737 100.523 116.946 100.53 117.16C100.538 117.376 100.485 117.589 100.378 117.776C100.271 117.962 100.114 118.116 99.9245 118.218C99.7355 118.319 99.52 118.367 99.3056 118.354L99.0602 118.331L99.0591 118.332Z" fill="white"/>
<path d="M137.317 142.95C137.148 142.942 136.983 142.896 136.835 142.814C136.687 142.732 136.56 142.617 136.464 142.478L136.391 142.385C135.665 141.493 135.735 140.679 136.396 140.254C136.92 139.913 137.986 140.062 138.71 141.179C138.83 141.358 138.898 141.567 138.906 141.782C138.913 141.996 138.86 142.211 138.753 142.397C138.646 142.584 138.489 142.738 138.299 142.84C138.109 142.942 137.895 142.989 137.68 142.976L137.316 142.949L137.317 142.95Z" fill="white"/>
<path d="M126.907 133.986C126.907 133.986 127.627 143.942 125.515 153.116C123.398 162.301 121.204 166.846 121.204 166.846C121.204 166.846 129.198 170.9 133.049 170.974C133.049 170.974 132.392 158.948 133.853 153.563L131.283 147.758L126.907 133.987V133.986Z" fill="white"/>
<path d="M160.131 103.089C160.297 103.617 160.581 104.099 160.962 104.5C163.084 106.529 165.862 108.663 168.704 109.569C172.592 110.815 176.252 110.1 180.129 108.971C182.186 108.375 184.063 107.687 185.866 106.547C187.057 105.815 188.11 104.877 188.971 103.775C192.23 104.846 196.118 106.279 200.395 108.176C212.556 113.553 226.011 131.801 223.694 154.553C221.377 177.304 204.425 187.776 204.425 187.776C205.176 182.986 204.219 173.568 197.735 163.6C191.25 153.631 175.344 148.725 175.344 148.725C169.569 155.121 163.157 152.245 157.127 149.642C151.096 147.039 140.321 130.169 140.321 130.169L131.695 118.952C135.103 116.078 153.647 106.428 160.131 103.092V103.089Z" fill="white"/>
<path d="M186.38 149.344L186.521 149.396C187.208 149.634 188.898 150.078 189.719 148.924C190.466 147.864 189.75 146.469 188.703 145.54C188.533 145.384 188.347 145.236 188.162 145.089C188.342 145.142 188.527 145.183 188.712 145.224C189.164 145.335 190.525 145.659 191.279 144.801C191.917 144.075 191.676 142.947 191.119 142.211C190.253 141.081 188.85 140.543 187.726 140.117L180.197 137.272C180.103 137.238 180 137.242 179.909 137.284C179.819 137.326 179.749 137.403 179.715 137.495C179.697 137.542 179.688 137.592 179.69 137.64C179.693 137.689 179.704 137.739 179.725 137.784C179.746 137.829 179.776 137.869 179.812 137.902C179.849 137.935 179.892 137.961 179.939 137.977L187.469 140.822C188.511 141.217 189.8 141.701 190.529 142.661C190.899 143.142 191.092 143.893 190.727 144.306C190.427 144.65 189.821 144.709 188.9 144.492C187.734 144.208 186.586 143.851 185.466 143.424C185.133 143.276 184.785 143.136 184.444 143.011C184.353 142.979 184.252 142.982 184.164 143.022C184.075 143.062 184.006 143.135 183.969 143.224C183.933 143.314 183.933 143.414 183.969 143.505C184.006 143.596 184.074 143.667 184.163 143.707C184.495 143.855 184.82 143.987 185.161 144.112C186.266 144.622 187.293 145.289 188.208 146.091C188.972 146.771 189.587 147.822 189.106 148.485C188.561 149.246 187.179 148.835 186.768 148.684C185.655 148.264 184.57 147.775 183.519 147.218C181.763 146.336 179.951 145.423 177.951 145.17C177.901 145.162 177.85 145.164 177.801 145.176C177.753 145.188 177.706 145.21 177.667 145.24C177.626 145.27 177.593 145.308 177.567 145.352C177.542 145.395 177.525 145.444 177.519 145.493C177.512 145.543 177.515 145.594 177.528 145.643C177.542 145.691 177.564 145.737 177.595 145.776C177.626 145.816 177.664 145.849 177.709 145.874C177.753 145.898 177.8 145.915 177.851 145.92C179.721 146.163 181.4 147.003 183.18 147.894C184.22 148.436 185.288 148.92 186.381 149.344H186.38Z" fill="white"/>
<path d="M159.915 151.567C159.977 151.59 160.044 151.597 160.109 151.585C160.917 151.409 161.679 151.067 162.349 150.583C163.019 150.098 163.582 149.48 164.002 148.767C164.762 147.525 165.194 145.978 165.294 144.175C165.371 142.723 165.055 141.728 164.34 141.133C163.462 140.399 162.251 140.503 161.374 140.715C159.909 141.084 158.572 141.851 157.513 142.93C157.529 141.607 157.446 140.284 157.267 138.974C157.192 138.414 157.076 137.785 156.649 137.309C156.12 136.715 154.939 136.297 153.352 137.104C153.138 137.212 152.93 137.332 152.729 137.463C152.693 137.19 152.595 136.931 152.443 136.702C152.292 136.473 152.089 136.282 151.852 136.144C151.477 135.911 151.049 135.777 150.609 135.753C150.168 135.73 149.728 135.818 149.33 136.009C148.132 136.624 147.518 137.867 146.942 139.188C146.903 139.279 146.9 139.382 146.936 139.475C146.971 139.568 147.043 139.643 147.134 139.684C147.225 139.721 147.328 139.723 147.42 139.687C147.512 139.652 147.588 139.581 147.63 139.492C148.147 138.295 148.686 137.185 149.67 136.677C149.954 136.549 150.266 136.492 150.577 136.511C150.888 136.529 151.19 136.623 151.456 136.785C151.617 136.871 151.75 136.999 151.843 137.155C151.936 137.312 151.985 137.49 151.985 137.672C151.98 137.825 151.944 137.975 151.878 138.113C151.277 138.642 150.769 139.267 150.375 139.964C150.207 140.192 150.081 140.449 150.005 140.722C149.978 140.814 149.986 140.912 150.029 140.998C150.073 141.083 150.147 141.148 150.237 141.18C150.329 141.213 150.43 141.208 150.518 141.168C150.606 141.129 150.677 141.058 150.715 140.968C150.803 140.764 150.903 140.564 151.013 140.37C151.199 140.117 151.406 139.881 151.631 139.663C151.965 139.347 152.254 138.985 152.49 138.59C152.856 138.285 153.253 138.019 153.673 137.795C154.487 137.386 155.546 137.226 156.071 137.833C156.337 138.205 156.486 138.649 156.498 139.108C156.719 140.727 156.786 142.363 156.698 143.995C156.694 144.075 156.717 144.155 156.762 144.222C156.807 144.289 156.872 144.339 156.949 144.366C157.025 144.393 157.107 144.395 157.183 144.373C157.259 144.351 157.329 144.305 157.38 144.243C158.41 142.872 159.877 141.892 161.539 141.469C162.11 141.331 163.167 141.171 163.844 141.724C164.366 142.155 164.581 142.953 164.53 144.148C164.501 145.637 164.097 147.094 163.355 148.385C162.99 149.008 162.502 149.55 161.919 149.978C161.337 150.404 160.674 150.707 159.969 150.867C159.872 150.886 159.786 150.943 159.73 151.023C159.673 151.104 159.649 151.205 159.664 151.303C159.683 151.363 159.715 151.418 159.759 151.463C159.803 151.508 159.856 151.544 159.915 151.566V151.567Z" fill="white"/>
<path d="M146.807 125.659C147.539 125.926 148.299 126.11 149.072 126.207C150.193 126.349 151.002 126.138 151.478 125.566C152.019 124.924 151.931 123.998 151.609 123.347C154.033 124.491 156.61 125.275 159.26 125.676C159.788 125.799 160.342 125.759 160.847 125.561C161.707 125.142 161.951 124.071 161.748 123.278C161.538 122.468 160.961 121.858 160.432 121.371C160.365 121.305 160.294 121.244 160.22 121.187C160.894 121.42 161.582 121.657 162.259 121.879C164.229 122.505 165.235 121.832 165.498 121.075C165.626 120.584 165.582 120.064 165.371 119.602C164.171 116.323 161.407 114.073 158.753 111.891C157.616 110.955 156.436 109.991 155.401 108.959C155.366 108.923 155.324 108.897 155.277 108.878C155.232 108.859 155.182 108.85 155.132 108.85C155.083 108.85 155.034 108.861 154.988 108.88C154.942 108.9 154.9 108.928 154.866 108.963C154.832 108.998 154.804 109.04 154.785 109.087C154.767 109.133 154.758 109.182 154.758 109.232C154.758 109.281 154.769 109.33 154.788 109.376C154.807 109.422 154.835 109.464 154.87 109.498C155.926 110.549 157.124 111.535 158.274 112.475C160.982 114.691 163.535 116.784 164.662 119.862C164.813 120.165 164.856 120.51 164.785 120.841C164.746 120.947 164.634 121.292 163.966 121.368C163.466 121.402 162.965 121.337 162.49 121.176C160.941 120.676 159.385 120.121 157.858 119.523C156.908 118.983 155.894 118.558 154.842 118.261C154.75 118.234 154.652 118.243 154.567 118.286C154.481 118.329 154.415 118.403 154.383 118.493C154.351 118.582 154.353 118.682 154.391 118.769C154.428 118.858 154.498 118.927 154.585 118.966C155.559 119.402 156.541 119.814 157.532 120.203C158.393 120.69 159.194 121.278 159.917 121.954C160.365 122.37 160.857 122.883 161.017 123.502C161.153 124.005 160.999 124.683 160.53 124.91C160.162 125.031 159.769 125.049 159.392 124.961C156.136 124.462 152.998 123.374 150.131 121.751C150.049 121.705 149.953 121.692 149.861 121.713C149.769 121.734 149.689 121.789 149.636 121.866C149.583 121.944 149.559 122.039 149.573 122.132C149.586 122.224 149.632 122.31 149.705 122.37C150.202 122.724 150.622 123.173 150.942 123.69C151.163 124.105 151.245 124.72 150.912 125.119C150.608 125.475 150.027 125.609 149.175 125.497C147.437 125.273 145.793 124.584 144.413 123.504C144.374 123.473 144.33 123.45 144.283 123.436C144.235 123.422 144.185 123.417 144.136 123.423C144.086 123.428 144.038 123.444 143.995 123.468C143.952 123.492 143.914 123.524 143.883 123.563C143.852 123.602 143.828 123.646 143.815 123.695C143.802 123.742 143.797 123.792 143.803 123.842C143.809 123.891 143.824 123.939 143.848 123.982C143.873 124.025 143.905 124.064 143.944 124.094C144.819 124.751 145.784 125.28 146.809 125.66L146.807 125.659Z" fill="white"/>
<path d="M223.578 159.177C223.662 159.207 223.754 159.207 223.838 159.177C223.922 159.147 223.992 159.089 224.038 159.013C224.087 158.926 224.102 158.825 224.078 158.728C224.053 158.632 223.992 158.549 223.907 158.498L216.54 154.26C215.727 153.789 214.798 153.264 214.304 152.429C213.872 151.712 213.882 150.595 214.58 150.144C215.12 149.794 215.897 149.93 216.648 150.099C217.064 150.198 217.485 150.285 217.91 150.4C219.332 151.19 220.804 151.892 222.312 152.501C222.392 152.535 222.481 152.54 222.563 152.513C222.646 152.488 222.717 152.433 222.763 152.36C222.81 152.287 222.83 152.199 222.82 152.113C222.81 152.027 222.771 151.947 222.709 151.887C221.452 150.694 219.762 150.104 218.191 149.703C217.35 149.235 216.532 148.737 215.727 148.203C214.953 147.693 214.088 147.071 213.658 146.206C213.291 145.459 213.331 144.367 214.041 143.88C214.554 143.534 215.274 143.57 215.905 143.668C219.615 144.204 222.98 146.139 225.309 149.077C225.371 149.154 225.461 149.204 225.56 149.215C225.658 149.226 225.757 149.197 225.834 149.136C225.911 149.074 225.961 148.984 225.972 148.886C225.983 148.787 225.954 148.688 225.892 148.611C223.439 145.527 219.904 143.492 216.005 142.918C215.273 142.81 214.343 142.765 213.616 143.259C212.566 143.981 212.466 145.491 212.979 146.533C213.484 147.556 214.443 148.253 215.301 148.821L215.885 149.194C215.29 149.089 214.677 149.201 214.157 149.509C213.081 150.196 213.023 151.775 213.636 152.799C214.228 153.801 215.288 154.402 216.134 154.898L223.499 159.135C223.523 159.154 223.549 159.167 223.577 159.177H223.578Z" fill="white"/>
<path d="M183.781 125.49C184.922 125.906 186.157 125.771 186.995 125.118C187.399 124.771 187.721 124.34 187.937 123.855C188.154 123.37 188.26 122.841 188.248 122.31C188.256 121.839 188.198 121.369 188.078 120.915C189.279 121.963 190.563 122.913 191.916 123.758C192.582 124.161 193.353 124.602 194.245 124.715C195.268 124.835 196.226 124.438 196.693 123.703C197.191 122.925 197.131 121.85 196.517 120.613C196.006 119.601 195.336 118.675 194.533 117.875C194.788 117.941 195.06 118.001 195.324 118.044C195.648 118.123 195.986 118.123 196.31 118.044C196.689 117.906 197.011 117.644 197.222 117.299C197.432 116.954 197.52 116.549 197.469 116.149C197.4 115.389 196.939 114.755 196.565 114.284C194.607 111.876 191.727 110.423 189.185 109.134C189.141 109.111 189.093 109.096 189.044 109.091C188.994 109.087 188.944 109.091 188.897 109.107C188.849 109.122 188.805 109.146 188.767 109.177C188.73 109.209 188.699 109.249 188.676 109.294C188.653 109.338 188.64 109.386 188.636 109.436C188.631 109.486 188.639 109.536 188.655 109.582C188.671 109.63 188.697 109.673 188.73 109.709C188.763 109.747 188.804 109.777 188.848 109.798C191.323 111.049 194.132 112.476 195.992 114.755C196.373 115.165 196.63 115.674 196.733 116.226C196.776 116.655 196.563 117.203 196.132 117.326C195.914 117.37 195.688 117.366 195.472 117.311C194.362 117.119 193.294 116.742 192.309 116.196L192.273 116.183C192.23 116.16 192.183 116.144 192.134 116.139C192.085 116.133 192.036 116.139 191.989 116.152C191.942 116.165 191.898 116.188 191.86 116.219C191.821 116.25 191.789 116.288 191.766 116.331C191.743 116.374 191.727 116.422 191.722 116.47C191.716 116.519 191.722 116.569 191.735 116.615C191.748 116.663 191.771 116.706 191.802 116.744C191.833 116.783 191.871 116.814 191.914 116.838C191.921 116.839 191.927 116.843 191.932 116.847C191.937 116.852 191.942 116.857 191.944 116.863C193.627 117.807 194.99 119.234 195.857 120.959C196.205 121.646 196.518 122.614 196.074 123.318C195.721 123.884 194.953 124.055 194.352 123.982C193.626 123.844 192.938 123.552 192.334 123.124C190.433 121.948 188.681 120.548 187.116 118.952C186.93 118.72 186.722 118.505 186.497 118.312C186.462 118.28 186.42 118.254 186.375 118.238C186.33 118.221 186.283 118.214 186.235 118.217C186.187 118.219 186.14 118.231 186.097 118.251C186.054 118.271 186.015 118.301 185.983 118.336C185.917 118.407 185.88 118.499 185.879 118.595C185.879 118.691 185.914 118.784 185.98 118.856L186.557 119.466C187.199 120.274 187.543 121.281 187.529 122.313C187.541 122.733 187.461 123.151 187.295 123.537C187.128 123.922 186.879 124.267 186.567 124.547C185.822 125.128 184.612 125.152 183.626 124.605C182.816 124.162 182.098 123.394 181.368 122.18C179.835 119.597 179.043 116.642 179.08 113.638C179.079 113.541 179.039 113.448 178.971 113.379C178.902 113.31 178.808 113.272 178.711 113.27C178.614 113.27 178.52 113.307 178.45 113.375C178.38 113.443 178.34 113.536 178.336 113.633C178.294 116.778 179.125 119.872 180.733 122.575C181.239 123.413 182.045 124.601 183.277 125.277C183.413 125.34 183.597 125.421 183.785 125.49H183.781Z" fill="white"/>
<path d="M167.291 73.2847C165.923 72.5762 165.067 71.5085 165.382 70.9006C165.697 70.2927 167.062 70.3745 168.431 71.083C169.799 71.7926 170.653 72.8603 170.338 73.4682C170.023 74.0762 168.658 73.9944 167.29 73.2859L167.291 73.2847Z" fill="white"/>
<path d="M167.574 78.0508L163.081 80.2083C163.081 80.2083 164.621 81.9039 166.443 81.0373C168.266 80.1708 167.574 78.0508 167.574 78.0508Z" fill="white"/>
<path d="M164.318 81.4606C164.686 81.6043 165.079 81.6717 165.474 81.6573C165.869 81.643 166.257 81.549 166.614 81.3788C168.292 80.5785 168.205 78.7736 167.94 77.9302C167.926 77.8783 167.899 77.8318 167.862 77.7921C167.825 77.7534 167.779 77.7235 167.729 77.7058C167.68 77.6837 167.627 77.6727 167.573 77.6738C167.52 77.6738 167.467 77.6882 167.419 77.7125L162.926 79.87C162.871 79.8943 162.824 79.9319 162.787 79.9795C162.751 80.027 162.727 80.0834 162.72 80.1419C162.71 80.2005 162.714 80.2602 162.73 80.3166C162.745 80.373 162.774 80.4249 162.812 80.4702C163.233 80.909 163.746 81.2472 164.317 81.4595L164.318 81.4606ZM167.311 78.5945C167.39 79.1836 167.341 80.1917 166.289 80.7012C165.971 80.8504 165.623 80.9212 165.273 80.909C164.923 80.8969 164.581 80.8018 164.275 80.6305C164.092 80.5376 163.918 80.4293 163.753 80.3066L167.31 78.5945H167.311Z" fill="#6F46BE"/>
<path d="M130.261 129.439C128.495 128.793 127.593 126.822 128.245 125.036C128.897 123.25 130.859 122.325 132.624 122.97C134.389 123.616 135.292 125.587 134.64 127.373C133.988 129.159 132.026 130.084 130.261 129.439Z" fill="white"/>
<path d="M131.155 126.993C130.721 126.834 130.496 126.352 130.655 125.917C130.815 125.483 131.297 125.259 131.731 125.417C132.165 125.575 132.39 126.058 132.231 126.492C132.071 126.927 131.591 127.151 131.155 126.993Z" fill="#6F46BE"/>
<path d="M131.026 127.345C131.251 127.428 131.497 127.442 131.73 127.385C131.963 127.329 132.174 127.204 132.338 127.027C132.5 126.85 132.606 126.629 132.644 126.392C132.68 126.154 132.646 125.911 132.546 125.693C132.445 125.475 132.281 125.292 132.076 125.167C131.87 125.042 131.633 124.981 131.393 124.991C131.153 125.001 130.922 125.083 130.727 125.224C130.533 125.366 130.386 125.563 130.304 125.788C130.196 126.091 130.211 126.424 130.346 126.715C130.481 127.007 130.726 127.234 131.027 127.345H131.026ZM131.606 125.757C131.72 125.8 131.813 125.886 131.865 125.998C131.917 126.109 131.922 126.236 131.882 126.351C131.861 126.408 131.829 126.46 131.789 126.505C131.748 126.55 131.698 126.586 131.643 126.612C131.587 126.637 131.528 126.651 131.467 126.654C131.406 126.656 131.345 126.647 131.289 126.626C131.174 126.584 131.08 126.498 131.028 126.386C130.976 126.274 130.971 126.147 131.013 126.032C131.055 125.917 131.141 125.822 131.252 125.772C131.364 125.72 131.491 125.714 131.606 125.756V125.758V125.757Z" fill="#6F46BE"/>
<path d="M131.576 125.693C131.672 125.725 131.776 125.717 131.867 125.674C131.957 125.63 132.027 125.553 132.062 125.458L132.476 124.182C132.492 124.134 132.499 124.086 132.496 124.036C132.492 123.986 132.479 123.939 132.457 123.894C132.435 123.848 132.403 123.81 132.365 123.777C132.328 123.745 132.284 123.721 132.236 123.707C132.141 123.678 132.039 123.687 131.951 123.732C131.862 123.776 131.795 123.854 131.762 123.948L131.348 125.223C131.32 125.316 131.327 125.416 131.369 125.503C131.411 125.59 131.486 125.658 131.576 125.693Z" fill="#6F46BE"/>
<path d="M144.413 200.739C144.489 200.767 144.572 200.769 144.651 200.746C150.699 198.748 156.634 196.422 162.429 193.777C162.475 193.758 162.516 193.73 162.551 193.695C162.587 193.659 162.614 193.617 162.633 193.572C162.652 193.526 162.661 193.477 162.661 193.427C162.661 193.378 162.65 193.329 162.63 193.284C162.61 193.238 162.581 193.197 162.546 193.163C162.51 193.129 162.467 193.102 162.421 193.085C162.374 193.067 162.325 193.059 162.276 193.06C162.226 193.063 162.178 193.074 162.132 193.095C156.361 195.728 150.452 198.045 144.43 200.038C144.336 200.069 144.257 200.137 144.213 200.225C144.169 200.313 144.16 200.416 144.19 200.51C144.206 200.563 144.235 200.611 144.275 200.651C144.315 200.69 144.361 200.72 144.413 200.738V200.739Z" fill="#6F46BE"/>
<path d="M222.956 159.016C243.263 145.344 257.974 133.094 254.898 128.53C248.95 119.718 222.017 135.768 222.017 135.768C222.017 135.768 224.114 144.801 224.183 147.345C224.274 150.271 222.958 159.016 222.958 159.016H222.956Z" fill="#6F46BE"/>
<path d="M222.828 159.37C222.882 159.391 222.942 159.398 223 159.393C223.057 159.386 223.113 159.365 223.162 159.332C232.615 152.973 240.161 147.385 245.577 142.737C251.691 137.491 255.067 133.432 255.596 130.706C255.696 130.302 255.711 129.883 255.644 129.473C255.576 129.063 255.426 128.672 255.202 128.321C253.766 126.197 251.081 125.27 247.215 125.563C244.21 125.798 240.463 126.788 236.086 128.483C228.662 131.37 221.885 135.4 221.821 135.43C221.754 135.471 221.701 135.531 221.67 135.603C221.639 135.675 221.631 135.756 221.648 135.833C221.669 135.92 223.732 144.861 223.812 147.343C223.896 150.213 222.602 158.86 222.584 158.946C222.57 159.018 222.578 159.092 222.609 159.158C222.64 159.225 222.691 159.28 222.755 159.315C222.773 159.341 222.798 159.36 222.829 159.368L222.828 159.37ZM252.002 126.793C253.051 127.146 253.956 127.833 254.579 128.747C254.745 129.017 254.856 129.316 254.903 129.63C254.952 129.943 254.936 130.262 254.859 130.57C254.191 133.965 248.193 141.52 223.443 158.233C223.77 155.953 224.632 149.762 224.56 147.336C224.493 145.005 222.795 137.505 222.444 135.95C226.922 133.37 231.578 131.11 236.375 129.188C241.625 127.148 248.064 125.354 252.002 126.793Z" fill="#6F46BE"/>
<path d="M172.664 207.234C172.69 207.246 172.72 207.253 172.75 207.253C180.495 208.082 188.328 207.279 195.746 204.896C202.089 202.857 208.106 199.915 213.611 196.159C223.435 189.549 229.26 182.399 229.313 182.325C229.344 182.286 229.366 182.242 229.381 182.194C229.394 182.147 229.398 182.097 229.393 182.048C229.387 181.999 229.372 181.951 229.348 181.908C229.324 181.865 229.292 181.826 229.253 181.796C229.215 181.765 229.171 181.743 229.123 181.729C229.075 181.716 229.026 181.711 228.977 181.717C228.927 181.722 228.881 181.738 228.837 181.761C228.794 181.785 228.755 181.817 228.725 181.856C228.671 181.93 222.901 189.007 213.166 195.556C207.718 199.263 201.768 202.172 195.497 204.192C188.182 206.536 180.46 207.324 172.823 206.507C172.774 206.501 172.725 206.505 172.678 206.519C172.631 206.532 172.586 206.555 172.549 206.585C172.511 206.615 172.479 206.654 172.455 206.697C172.432 206.74 172.416 206.786 172.411 206.835C172.406 206.92 172.428 207.004 172.475 207.076C172.52 207.148 172.588 207.203 172.666 207.235L172.664 207.234Z" fill="#6F46BE"/>
<path d="M92.7442 150.968C92.7995 150.988 92.8581 150.996 92.9155 150.989C92.973 150.982 93.0294 150.962 93.078 150.93C93.1609 150.875 93.2184 150.79 93.2394 150.693C93.2604 150.596 93.2416 150.494 93.1885 150.411C88.0886 142.668 86.0007 133.212 85.1352 126.643C84.5682 122.492 84.3483 118.299 84.4787 114.111C84.4831 114.062 84.4765 114.012 84.4621 113.966C84.4478 113.919 84.4223 113.875 84.3903 113.837C84.3571 113.8 84.3184 113.769 84.2731 113.747C84.2289 113.725 84.1803 113.712 84.1305 113.709C84.0808 113.706 84.0311 113.714 83.9846 113.729C83.9382 113.745 83.8951 113.771 83.8586 113.804C83.8222 113.837 83.7923 113.878 83.7713 113.924C83.7503 113.969 83.7381 114.018 83.737 114.066C83.6055 118.304 83.8255 122.545 84.3947 126.745C85.269 133.397 87.3934 142.973 92.5696 150.836C92.616 150.895 92.6768 150.94 92.7464 150.968H92.7442Z" fill="#6F46BE"/>
<path d="M169.192 74.243C168.746 74.2076 168.306 74.1103 167.886 73.9523C167.627 73.855 167.374 73.7412 167.131 73.6096C167.095 73.5964 167.053 73.5676 167.018 73.5555L166.97 73.5378C166.946 73.5312 166.923 73.5179 166.904 73.5002C166.788 73.4361 166.676 73.3642 166.57 73.2847C165.537 72.6137 164.934 71.7803 164.97 71.1006L164.974 71.0884C164.973 71.063 164.978 71.0376 164.989 71.0132C165.003 70.9304 165.024 70.8497 165.051 70.769C165.115 70.622 165.214 70.4927 165.341 70.3943C165.468 70.2959 165.618 70.2318 165.777 70.2075C166.344 70.0417 167.161 70.1401 168.046 70.4893C168.245 70.5678 168.439 70.6562 168.628 70.7557C169.279 71.0785 169.857 71.5305 170.328 72.0832C170.786 72.6502 170.917 73.2051 170.692 73.6428C170.467 74.0805 169.924 74.2817 169.193 74.2419L169.192 74.243ZM169.727 72.5585C169.334 72.1031 168.854 71.7284 168.318 71.4565C168.291 72.0456 168.083 72.6115 167.724 73.0791C168.203 73.3101 168.718 73.4538 169.247 73.5024C169.639 73.5256 169.934 73.446 170.014 73.3024C170.082 73.1542 169.975 72.8613 169.727 72.5574V72.5585Z" fill="#6F46BE"/>
<path d="M178.897 81.055L180.846 80.0602C180.751 79.8646 180.622 79.6866 180.465 79.5341C180.428 79.5009 180.397 79.4623 180.376 79.4169C180.353 79.3727 180.34 79.3241 180.338 79.2744C180.335 79.2246 180.342 79.1749 180.358 79.1284C180.374 79.082 180.4 79.0389 180.433 79.0013C180.5 78.9284 180.593 78.8842 180.693 78.8775C180.792 78.8709 180.89 78.9041 180.966 78.9693C181.53 79.4689 182.332 80.8815 181.278 82.6024C181.234 82.6765 181.166 82.734 181.084 82.7627C181.002 82.7914 180.914 82.7903 180.833 82.7605C180.812 82.7561 180.792 82.7439 180.779 82.7273C180.736 82.7019 180.698 82.6699 180.668 82.6301C180.639 82.5903 180.617 82.5461 180.604 82.4974C180.592 82.4499 180.59 82.4002 180.597 82.3504C180.604 82.3018 180.621 82.2543 180.646 82.2123C180.926 81.7945 181.064 81.2993 181.043 80.7975L179.243 81.7127C179.197 81.7381 179.146 81.7536 179.095 81.758C179.043 81.7624 178.99 81.7547 178.941 81.7359C178.855 81.7005 178.784 81.6375 178.74 81.5557C178.717 81.5126 178.701 81.4651 178.697 81.4164C178.692 81.3678 178.697 81.3181 178.711 81.2716C178.725 81.2252 178.75 81.181 178.782 81.1445C178.814 81.107 178.852 81.0771 178.896 81.055H178.897Z" fill="#6F46BE"/>
<path d="M274.815 115.45C274.859 115.466 274.906 115.473 274.953 115.473C281.538 115.252 285.759 112.889 288.147 110.948C290.746 108.831 291.76 106.789 291.805 106.699C291.827 106.654 291.839 106.606 291.843 106.557C291.846 106.507 291.838 106.457 291.823 106.411C291.807 106.364 291.781 106.321 291.747 106.284C291.714 106.247 291.674 106.216 291.63 106.195C291.586 106.173 291.537 106.159 291.488 106.157C291.438 106.153 291.388 106.16 291.341 106.176C291.293 106.193 291.25 106.218 291.214 106.252C291.177 106.285 291.147 106.326 291.126 106.371C291.117 106.394 290.126 108.379 287.64 110.403C285.35 112.259 281.285 114.52 274.931 114.732C274.844 114.732 274.759 114.763 274.693 114.82C274.626 114.877 274.582 114.955 274.568 115.041C274.553 115.127 274.571 115.216 274.616 115.291C274.662 115.366 274.732 115.421 274.815 115.449V115.45Z" fill="#6F46BE"/>
<path d="M292.401 64.7329C292.447 64.7516 292.496 64.7594 292.546 64.7561C292.595 64.7539 292.643 64.7395 292.687 64.7163C292.731 64.6953 292.772 64.6665 292.804 64.629C292.837 64.5925 292.862 64.5494 292.878 64.503C292.895 64.4565 292.9 64.4068 292.896 64.3582C292.893 64.3095 292.878 64.2609 292.855 64.2178C292.766 64.0255 290.574 59.5578 285.343 56.474C285.257 56.4242 285.156 56.4099 285.059 56.4353C284.963 56.4596 284.88 56.5215 284.828 56.6055C284.779 56.6917 284.765 56.7934 284.79 56.8896C284.814 56.9857 284.876 57.0686 284.96 57.1206C287.987 58.8968 290.478 61.46 292.164 64.5394C292.224 64.6245 292.306 64.6909 292.401 64.7329Z" fill="#6F46BE"/>
<path d="M174.048 63.2175C174.123 63.2463 174.206 63.2496 174.283 63.2275C174.361 63.2054 174.429 63.1589 174.479 63.0948C177.943 58.4271 186.522 60.9892 186.609 61.0069C186.656 61.0202 186.706 61.0257 186.754 61.0202C186.803 61.0146 186.851 60.9992 186.895 60.976C186.938 60.9527 186.977 60.9207 187.008 60.882C187.039 60.8433 187.062 60.7991 187.075 60.7516C187.089 60.704 187.093 60.6543 187.088 60.6057C187.083 60.557 187.067 60.5095 187.044 60.4653C186.997 60.378 186.915 60.3128 186.82 60.2851C185.192 59.8253 183.511 59.57 181.82 59.5247C178.187 59.4374 175.448 60.5161 173.863 62.6295C173.833 62.6682 173.81 62.7124 173.798 62.7599C173.785 62.8075 173.783 62.8572 173.789 62.9058C173.796 62.9545 173.813 63.0009 173.839 63.0429C173.864 63.0849 173.899 63.1214 173.938 63.149C173.968 63.1811 174.006 63.2043 174.047 63.2164L174.048 63.2175Z" fill="white"/>
<path d="M283.693 102.096C283.767 102.123 283.849 102.127 283.924 102.103C283.999 102.08 284.067 102.033 284.112 101.969C286.939 98.3884 288.94 94.627 290.069 90.7739C290.961 87.7421 291.305 84.5765 291.087 81.4252C290.696 76.1098 288.801 72.764 288.722 72.6159C288.698 72.5739 288.665 72.5363 288.625 72.5065C288.586 72.4766 288.541 72.4556 288.493 72.4424C288.446 72.4302 288.396 72.4269 288.348 72.4335C288.299 72.4402 288.253 72.4567 288.209 72.4811C288.167 72.5054 288.13 72.5385 288.1 72.5783C288.07 72.617 288.049 72.6623 288.036 72.7099C288.023 72.7574 288.02 72.8071 288.027 72.8558C288.034 72.9044 288.05 72.9508 288.075 72.9939C288.468 73.7356 288.801 74.5082 289.069 75.304C289.768 77.3091 290.197 79.3981 290.344 81.5159C290.557 84.572 290.221 87.6415 289.351 90.5794C288.249 94.3231 286.294 97.9949 283.537 101.494C283.506 101.533 283.483 101.577 283.47 101.625C283.455 101.672 283.452 101.722 283.458 101.772C283.463 101.82 283.479 101.869 283.503 101.911C283.527 101.954 283.559 101.992 283.598 102.023C283.609 102.067 283.656 102.083 283.691 102.097L283.693 102.096Z" fill="white"/>
<path d="M188.643 91.2161L188.737 91.2504C194.762 93.398 200.632 92.2507 206.311 91.152C214.673 89.5283 223.315 87.8328 233.19 96.1469C233.226 96.1801 233.269 96.2055 233.317 96.221C233.363 96.2364 233.413 96.242 233.463 96.2375C233.511 96.2331 233.56 96.2188 233.603 96.1944C233.646 96.1701 233.684 96.1381 233.715 96.0983C233.747 96.0607 233.771 96.0176 233.785 95.9712C233.8 95.9247 233.805 95.875 233.801 95.8264C233.796 95.7777 233.782 95.7302 233.759 95.6871C233.736 95.644 233.705 95.6053 233.666 95.5744C223.524 87.0425 214.7 88.7645 206.166 90.4192C200.328 91.5521 194.816 92.632 188.992 90.5562L188.91 90.5264C184.089 88.7656 183.028 84.6307 183.013 84.5986C183.002 84.5489 182.981 84.5025 182.952 84.4605C182.922 84.4196 182.886 84.3842 182.843 84.3577C182.8 84.3311 182.752 84.3135 182.701 84.3057C182.651 84.298 182.6 84.3002 182.551 84.3135C182.502 84.3267 182.456 84.3477 182.415 84.3787C182.374 84.4096 182.341 84.4472 182.315 84.4914C182.29 84.5356 182.273 84.5843 182.268 84.634C182.261 84.6848 182.266 84.7357 182.28 84.7843C182.325 84.9479 183.436 89.3128 188.644 91.2161H188.643Z" fill="white"/>
<path d="M88.0004 97.6114L90.9251 97.9198C90.9582 97.5451 91.0644 97.1814 91.2368 96.8476C91.26 96.8034 91.2909 96.7647 91.3296 96.7327C91.3683 96.7006 91.4125 96.6774 91.4601 96.6619C91.5076 96.6464 91.5573 96.6431 91.6071 96.6476C91.6568 96.6531 91.7043 96.6675 91.7485 96.6918C91.7916 96.7161 91.8303 96.7481 91.8613 96.7868C91.8922 96.8255 91.9154 96.8708 91.9287 96.9183C91.942 96.9659 91.9453 97.0167 91.9398 97.0654C91.9331 97.1151 91.9177 97.1626 91.8922 97.2057C91.6413 97.7252 91.5905 98.3188 91.7496 98.8736C91.9597 99.5368 92.5145 100.099 93.3921 100.54C93.4772 100.585 93.5425 100.66 93.5734 100.75C93.6055 100.841 93.601 100.939 93.5624 101.028C93.5237 101.115 93.4529 101.185 93.3645 101.222C93.2761 101.26 93.1777 101.262 93.0871 101.229L93.0517 101.216C91.9818 100.679 91.2976 99.9613 91.0301 99.0903C90.9881 98.9543 90.9582 98.814 90.9428 98.6714L87.9142 98.3519C87.8844 98.3519 87.8545 98.3453 87.828 98.3332C87.7506 98.3022 87.6843 98.248 87.6412 98.1762C87.5981 98.1043 87.5782 98.0215 87.5871 97.9375C87.5926 97.8888 87.6081 97.8413 87.6313 97.7982C87.6556 97.7551 87.6876 97.7175 87.7252 97.6865C87.7639 97.6556 87.8081 97.6335 87.8556 97.6202C87.9032 97.607 87.9529 97.6025 88.0016 97.6081L88.0004 97.6114Z" fill="#6F46BE"/>
<path d="M82.8586 91.3333C82.9271 91.2637 83.0101 91.2095 83.1007 91.1742C83.1913 91.1388 83.2886 91.1222 83.3869 91.1267C83.9883 91.1598 84.6371 92.0098 85.6506 93.3936C86.1502 94.0679 87.1439 95.4329 87.5518 95.5545C87.6247 95.1013 87.0599 93.5086 86.6907 92.4398C85.78 89.8268 85.2273 88.0517 85.7711 87.2238C85.8429 87.0878 85.9513 86.974 86.0839 86.8955C86.2154 86.817 86.3669 86.7761 86.5216 86.7772C86.7393 86.7927 86.9472 86.8778 87.113 87.0204C87.1218 86.9364 87.1428 86.8546 87.176 86.7762C87.2434 86.6004 87.3771 86.4578 87.5473 86.3793C88.6659 85.9074 89.3578 87.3343 90.6168 89.9407C90.8743 90.4745 91.1584 91.0846 91.4845 91.7246C91.826 92.3955 92.5168 93.8225 92.9656 94.7454C93.4364 92.2507 94.1317 90.679 94.9861 90.1639C95.1165 90.0755 95.2646 90.018 95.4205 89.9959C95.5763 89.9738 95.7355 89.9882 95.8847 90.039C96.3556 90.2103 96.3633 90.7354 95.9742 94.6448C95.8018 96.3946 95.6139 98.2194 95.6603 99.223C95.6979 100.25 97.2575 105.646 99.6825 111.373C101.399 115.427 104.826 122.572 108.396 124.835C110.344 126.068 112.683 126.562 115.333 126.277C117.616 126.044 120.194 125.227 122.997 123.864C121.249 119.639 120.535 119.258 120.391 119.218C119.859 119.104 118.878 119.199 117.93 119.279C116 119.454 113.992 119.626 113.597 118.482C113.554 118.367 113.542 118.242 113.561 118.121C113.58 117.999 113.629 117.884 113.704 117.787C114.167 117.142 115.999 116.906 117.676 116.838C115.92 116.356 113.838 115.783 113.343 115.641C113.099 115.578 112.883 115.513 112.683 115.44C111.907 115.157 111.426 114.795 111.285 114.343C111.226 114.201 111.203 114.046 111.214 113.894C111.225 113.741 111.274 113.593 111.354 113.462C111.395 113.409 111.447 113.363 111.507 113.331C111.998 113.121 112.527 113.015 113.06 113.018C112.953 112.867 112.88 112.695 112.845 112.513C112.831 112.315 112.868 112.119 112.953 111.94C113.037 111.761 113.165 111.606 113.325 111.49C114.568 110.423 119.661 111.725 122.12 112.437C121.677 111.862 121.093 111.089 120.542 110.3C118.304 107.162 118.372 106.682 118.706 106.39C118.803 106.306 118.917 106.243 119.041 106.209C119.165 106.173 119.294 106.165 119.421 106.185C120.431 106.301 122.392 107.937 125.273 111.03C125.419 108.444 126.055 107.103 127.174 107.031C127.256 107.024 127.339 107.034 127.415 107.063C127.491 107.092 127.562 107.136 127.62 107.195C127.898 107.456 128.249 108.172 128.418 111.394C128.488 112.845 128.499 114.236 128.498 114.676C129.023 115.282 129.551 115.914 130.118 116.589C130.647 117.222 131.183 117.871 131.695 118.511C133.494 117.235 136.106 115.629 139.04 113.942C139.069 113.902 139.108 113.869 139.154 113.851C139.255 113.794 139.669 113.572 140.305 113.218C143.904 111.174 147.833 109.064 151.219 107.274C157.672 103.873 163.429 100.99 164.682 100.368C164.699 100.36 164.719 100.342 164.734 100.334L166.05 88.601L166.261 86.638C165.734 86.5352 165.216 86.3915 164.712 86.2058C163.134 85.6377 161.745 84.6407 160.702 83.3276C158.856 80.9744 159.084 77.6165 161.322 73.6086C160.955 73.655 160.582 73.6152 160.232 73.4903C160.113 73.4483 159.999 73.3931 159.893 73.3267C159.605 73.1587 159.356 72.931 159.164 72.658C158.971 72.385 158.84 72.0744 158.778 71.7461C158.752 71.4753 158.8 71.2023 158.916 70.957C159.032 70.7105 159.211 70.5005 159.436 70.3468C159.738 70.1379 160.392 69.8826 161.333 70.4408C161.697 70.6718 162.13 70.7679 162.558 70.7127C162.985 70.6574 163.379 70.4518 163.671 70.1346C163.68 70.1114 163.7 70.0915 163.713 70.0561C166.067 67.0762 169.117 64.3107 171.898 62.6075C172.109 62.0316 172.374 61.4767 172.69 60.9506C174.091 58.6493 177.079 56.2342 183.373 57.8281C197.55 61.4082 205.696 55.4528 211.072 51.4969C211.469 51.215 211.848 50.9409 212.212 50.6734C217.536 46.8601 226.439 40.4736 244.8 48.5413C252.414 51.8837 257.201 51.4726 261.845 51.0901C264.953 50.8259 267.899 50.5684 271.431 51.5135C275.376 52.569 279.502 54.9543 284.416 59.045C289.237 63.0363 292.896 68.2512 295.012 74.1425C296.943 79.5132 297.479 85.2873 296.569 90.9233C295.882 95.3025 294.179 99.4607 291.599 103.066C289.045 106.608 285.517 109.33 281.445 110.902C274.778 113.465 267.822 113.684 260.197 111.577C253.49 109.727 247.155 106.385 241.024 103.145C238.154 101.629 235.45 100.201 232.742 98.9324C224.371 95.035 218.371 95.9215 212.005 96.861C207.329 97.5518 202.481 98.2736 196.255 97.3319C194.349 97.0533 192.475 96.5825 190.664 95.9292C186.267 94.3221 183.543 91.928 181.937 89.9407C180.999 88.8066 180.221 87.5488 179.626 86.2014L179.213 100.716C183.881 101.488 188.457 102.74 192.867 104.452C197.053 106.046 201.049 108.101 204.781 110.579C209.174 113.545 212.79 116.999 215.526 120.852C221.63 129.455 224.802 140.867 224.21 152.156C223.926 158.008 222.579 163.76 220.234 169.128C217.733 174.823 214.081 179.939 209.508 184.154C204.904 188.405 200.092 191.725 195.203 194.019C190.868 196.082 186.195 197.344 181.411 197.738C176.403 198.129 171.371 197.436 166.655 195.707C165.103 195.138 163.589 194.465 162.127 193.692L150.915 198.448C150.85 198.48 150.775 198.49 150.704 198.478C150.578 198.448 150.453 198.411 150.331 198.368C149.344 198.008 146.702 196.483 146.16 190.564C145.789 186.509 144.336 185.816 142.672 185.009C141.552 184.467 140.294 183.86 139.276 182.234C137.86 179.984 139.004 178.054 139.931 176.501C140.834 174.979 141.341 173.99 140.432 172.977C138.08 170.371 134.522 166.431 136.325 160.33C135.436 158.459 134.613 156.625 133.868 154.873C133.847 154.932 133.841 154.984 133.819 155.042C133.729 155.796 133.652 156.554 133.576 157.314C133.428 158.887 133.328 160.436 133.283 161.98C133.257 163.437 133.254 164.903 133.268 166.215C133.378 171.898 134.277 177.54 135.938 182.976C137.841 189.152 140.85 194.932 144.817 200.033C144.858 200.073 144.885 200.125 144.895 200.181C144.927 200.225 144.948 200.277 144.956 200.33C144.964 200.383 144.959 200.44 144.942 200.492C144.922 200.55 144.889 200.604 144.845 200.648C144.802 200.693 144.748 200.726 144.689 200.746C134.149 204.135 126.439 204.957 121.655 203.208C119.927 202.629 118.435 201.504 117.403 200.002C116.659 198.863 116.481 197.492 116.882 195.919C118.148 190.995 125.266 184.316 134.223 179.603C133.588 176.967 133.128 174.291 132.846 171.594C130.902 171.146 128.986 170.575 127.114 169.887C123.453 168.537 119.957 166.776 116.692 164.639C109.852 160.127 104.03 153.959 99.4239 146.289C90.6897 131.752 87.3362 108.036 86.2254 100.243C86.0441 98.9898 85.9015 97.9917 85.8441 97.8237C85.7103 97.3882 85.1665 96.5769 84.5862 95.7247C83.0498 93.4721 82.18 92.0617 82.8575 91.3356L82.8586 91.3333ZM127.137 107.793C126.467 107.947 126.041 109.445 126 111.817C126.553 112.419 127.136 113.085 127.745 113.788C127.704 110.506 127.418 108.228 127.137 107.793ZM129.544 117.073C124.299 110.783 120.576 107.076 119.333 106.943L119.321 106.938C119.587 107.742 121.569 110.559 123.419 112.902C123.45 112.94 123.474 112.984 123.488 113.032C123.502 113.079 123.506 113.129 123.501 113.178C123.495 113.226 123.48 113.274 123.456 113.317C123.431 113.36 123.399 113.398 123.36 113.427C123.321 113.459 123.275 113.484 123.227 113.498C123.178 113.512 123.127 113.517 123.076 113.511C123.047 113.511 123.017 113.506 122.99 113.493C122.967 113.484 120.945 112.852 118.778 112.366C114.957 111.517 114.024 111.882 113.796 112.066C113.682 112.157 113.552 112.297 113.572 112.424C113.677 112.658 113.865 112.845 114.099 112.95C114.152 112.983 114.2 113.023 114.242 113.069C117.46 113.379 121.697 115.06 121.927 115.157C121.973 115.175 122.015 115.201 122.052 115.237C122.088 115.272 122.116 115.312 122.136 115.358C122.156 115.404 122.166 115.453 122.166 115.503C122.166 115.553 122.156 115.602 122.136 115.648C122.097 115.739 122.024 115.812 121.934 115.85C121.843 115.889 121.74 115.891 121.647 115.856C119.623 115.05 114.023 113.163 111.96 113.956C111.956 113.999 111.963 114.043 111.98 114.083C112.035 114.223 112.299 114.599 113.54 114.92C114.421 115.135 120.247 116.77 120.49 116.833C120.586 116.86 120.666 116.926 120.714 117.013C120.762 117.1 120.773 117.203 120.745 117.299C120.715 117.377 120.667 117.446 120.605 117.502C120.536 117.555 120.451 117.581 120.365 117.574C120.342 117.566 118.877 117.523 117.366 117.612C114.713 117.762 114.337 118.171 114.304 118.226C114.5 118.818 116.525 118.638 117.863 118.513C118.906 118.428 119.899 118.337 120.545 118.466C121.187 118.608 122.204 119.58 124.548 125.675C125.69 125.608 126.817 125.368 127.887 124.962L127.908 124.904C128.195 124.105 128.742 123.425 129.461 122.973C130.179 122.521 131.028 122.321 131.872 122.406C132.263 122.04 132.619 121.639 132.937 121.208C131.833 119.856 130.703 118.457 129.542 117.074L129.544 117.073ZM128.599 125.167C128.322 125.922 128.358 126.755 128.697 127.485C129.036 128.214 129.65 128.778 130.405 129.054C131.16 129.331 131.993 129.294 132.721 128.956C133.45 128.618 134.015 128.002 134.291 127.247C134.386 126.988 134.445 126.719 134.464 126.444C134.442 126.362 134.446 126.274 134.475 126.195C134.483 125.477 134.236 124.782 133.778 124.231C133.319 123.679 132.68 123.309 131.975 123.186C131.27 123.063 130.543 123.195 129.925 123.558C129.307 123.92 128.837 124.492 128.602 125.169L128.599 125.167ZM148.795 112.602C148.762 112.492 148.706 112.392 148.633 112.305C148.559 112.219 148.469 112.149 148.366 112.098C147.162 111.525 142.397 113.223 139.597 114.467C136.598 116.185 133.97 117.798 132.16 119.069C135.502 123.196 138.49 127.128 140.208 129.502C142.329 124.913 144.906 120.548 147.899 116.474C148.314 115.665 149.147 113.636 148.795 112.601V112.602ZM179.183 101.465L179.155 102.561C179.155 102.611 179.143 102.659 179.123 102.705C179.103 102.75 179.075 102.791 179.038 102.825C179.002 102.86 178.96 102.886 178.913 102.904C178.867 102.921 178.817 102.929 178.769 102.927C178.73 102.935 178.69 102.929 178.655 102.911C178.581 102.884 178.519 102.833 178.476 102.767C178.433 102.7 178.412 102.623 178.416 102.544L178.933 84.1345C178.933 84.0847 178.945 84.0361 178.965 83.9908C178.985 83.9454 179.014 83.9046 179.05 83.8703C179.086 83.836 179.129 83.8095 179.175 83.7929C179.222 83.7752 179.271 83.7675 179.32 83.7686C179.354 83.7697 179.388 83.7774 179.418 83.7918C180.439 83.9908 181.273 83.7498 181.823 83.0833C182.503 82.2786 182.685 80.9058 182.257 79.816C182.091 79.396 181.692 78.6632 180.864 78.5604C179.376 78.3647 178.473 79.3396 177.99 80.1896C177.888 80.3687 177.744 80.5212 177.57 80.6339C177.397 80.7467 177.199 80.8163 176.993 80.8384C176.79 80.8616 176.583 80.8351 176.392 80.7611C176.201 80.6859 176.031 80.5665 175.897 80.4118C173.75 77.9746 172.132 74.4497 171.47 70.7547C171.006 68.1583 171.048 65.7476 171.565 63.7105C168.852 65.5962 166.428 67.8676 164.371 70.454C164.362 70.4773 164.342 70.4971 164.329 70.5325C163.929 71.0166 163.366 71.3405 162.745 71.4422C162.124 71.5439 161.488 71.4179 160.954 71.0863C160.507 70.8155 160.135 70.7735 159.853 70.9636C159.747 71.0376 159.661 71.1382 159.605 71.2554C159.548 71.3726 159.522 71.5019 159.53 71.6312C159.575 71.8478 159.665 72.0534 159.794 72.2336C159.923 72.4138 160.089 72.5652 160.279 72.6779C160.727 72.9476 161.273 72.9476 161.921 72.7045C161.967 72.6857 162.016 72.6768 162.065 72.6779C162.115 72.6779 162.163 72.6901 162.208 72.71C162.252 72.7299 162.293 72.7586 162.327 72.7951C162.36 72.8316 162.386 72.8736 162.402 72.92C162.429 72.9808 162.436 73.0493 162.424 73.1145C162.425 73.1919 162.407 73.267 162.37 73.3345C159.302 78.4134 160.099 81.3027 161.305 82.8512C164.869 87.3929 171.047 85.8377 171.108 85.8201C171.155 85.8057 171.206 85.8002 171.255 85.8057C171.304 85.8112 171.352 85.8267 171.396 85.851C171.44 85.8753 171.478 85.9085 171.508 85.9483C171.538 85.9881 171.56 86.0334 171.572 86.082C171.595 86.1627 171.592 86.2489 171.561 86.3263C171.53 86.4037 171.473 86.4689 171.402 86.512C168.815 88.632 166.97 91.5212 166.136 94.7609L166.132 94.7731L165.481 100.601L165.476 100.614C165.467 100.637 165.475 100.653 165.466 100.677L165.457 100.7C165.451 100.725 165.437 100.747 165.42 100.766L165.415 100.778C165.378 100.832 165.329 100.879 165.273 100.913L165.16 100.965C163.69 101.866 162.281 102.861 160.939 103.944C164.159 107.64 167.958 109.681 172.222 109.973C179.94 110.514 187.03 105.225 188.774 103.808C185.64 102.787 182.434 102.003 179.183 101.465ZM189.609 104.074C187.995 105.429 186.248 106.619 184.395 107.623C181.461 109.232 176.949 111.076 172.155 110.738C170.684 110.639 169.235 110.334 167.849 109.831C165.098 108.826 162.583 107.027 160.342 104.408C159.698 104.932 159.003 105.519 158.272 106.171C159.447 107.713 160.876 109.043 162.498 110.102C165.168 111.877 169.688 113.875 176.112 113.289C182.147 112.748 186.327 110.462 188.779 108.638C190.157 107.63 191.39 106.438 192.445 105.098C191.462 104.725 190.521 104.382 189.607 104.074H189.609ZM208.994 183.592C213.491 179.45 217.081 174.419 219.537 168.819C221.842 163.529 223.167 157.864 223.446 152.101C223.96 142.343 221.62 132.515 216.988 124.517C213.628 126.929 212.556 135.883 209.381 134.283C205.895 132.517 211.22 128.557 211.763 119.929C211.85 118.961 211.439 117.824 211.398 117.062C209.27 114.865 206.914 112.9 204.371 111.201C200.855 108.861 197.097 106.907 193.162 105.372C192.046 106.836 190.724 108.132 189.237 109.219C186.719 111.113 182.391 113.477 176.161 114.041C172.803 114.38 169.412 113.97 166.232 112.839C164.75 112.309 163.343 111.588 162.044 110.696C160.376 109.618 158.906 108.261 157.7 106.683C157.318 107.035 156.919 107.397 156.529 107.775C153.624 110.565 150.964 113.598 148.578 116.842C148.55 116.879 148.526 116.92 148.507 116.962C148.482 117.004 148.451 117.043 148.413 117.075C145.408 121.183 142.829 125.589 140.717 130.221C140.843 130.387 140.957 130.549 141.052 130.691C141.429 131.228 141.861 131.867 142.322 132.541C144.548 135.822 147.923 140.774 152.059 144.846C155.236 147.966 158.41 150.113 161.537 151.256C163.138 151.857 164.828 152.186 166.538 152.229C171.462 152.321 175.149 149.709 177.476 144.467C178.572 141.9 179.26 139.179 179.518 136.4C179.525 136.302 179.57 136.211 179.644 136.146C179.718 136.081 179.814 136.048 179.911 136.054C180.01 136.06 180.102 136.104 180.167 136.178C180.232 136.251 180.266 136.347 180.262 136.445C180.01 139.306 179.301 142.108 178.163 144.744C177.585 146.078 176.84 147.334 175.944 148.48C179.142 149.491 182.236 150.806 185.185 152.403C189.95 154.97 196.336 159.41 199.777 166.041C204.625 175.386 204.862 184.657 204.83 187.153C206.231 186.051 207.624 184.867 208.994 183.594V183.592ZM142.215 170.071C143.007 171.441 143.865 172.888 144.78 174.355C148.559 180.389 152.311 185.146 155.862 188.483C156.657 189.202 157.492 189.873 158.367 190.492C165.241 195.35 173.198 197.604 181.354 196.984C186.047 196.593 190.631 195.354 194.883 193.329C197.207 192.235 199.441 190.962 201.566 189.518C201.769 187.591 201.773 185.651 201.578 183.723C201.28 180.268 200.36 174.691 197.612 167.808C194.886 160.972 188.986 156.256 184.531 153.495C181.658 151.713 178.603 150.244 175.418 149.111C174.428 150.241 173.225 151.165 171.879 151.831C173.536 155.61 181.789 158.119 180.016 161.218C178.024 164.303 174.32 160.762 167.552 155.397C165.78 154.011 163.809 152.9 161.707 152.101C161.553 152.045 161.409 152.005 161.256 151.95C158.035 150.772 154.763 148.564 151.534 145.371C147.34 141.239 143.951 136.254 141.706 132.953C141.247 132.278 140.821 131.656 140.444 131.119C139.6 129.93 138.079 127.855 136.174 125.372C135.957 125.64 135.64 126.031 135.224 126.479C135.193 126.828 135.117 127.173 134.996 127.502C134.67 128.395 134.023 129.134 133.181 129.576C132.34 130.017 131.364 130.13 130.444 129.891C129.116 130.443 127.66 130.613 126.241 130.381C127.908 135.23 129.43 140.292 130.293 143.18C131.951 148.788 136.414 159.805 142.217 170.071H142.215ZM127.519 164.048C130.489 163.067 132.258 157.861 132.983 155.22C133.016 155.019 133.053 154.846 133.083 154.657C133.138 154.25 133.181 153.84 133.232 153.445C131.83 150.165 130.599 146.813 129.545 143.404C128.989 141.534 128.165 138.754 127.188 135.704C127.35 137.83 127.393 139.966 127.317 142.097C127.029 149.129 125.66 156.076 123.257 162.691C124.783 164.021 126.215 164.477 127.518 164.046L127.519 164.048ZM83.7661 93.0123C84.2038 93.8103 84.6868 94.5841 85.2118 95.3268C85.8419 96.2641 86.3857 97.0754 86.5636 97.6071C86.6399 97.8348 86.7394 98.5112 86.977 100.158C88.0768 107.906 91.4182 131.512 100.082 145.917C104.643 153.49 110.373 159.583 117.12 164.022C118.387 164.859 119.692 165.627 121.005 166.335L122.165 163.492C124.777 156.648 126.269 149.426 126.58 142.108C126.805 135.95 125.992 132.12 125.981 132.077C125.971 132.041 125.968 132.003 125.969 131.966C125.458 130.446 124.931 128.934 124.407 127.488C123.992 126.363 123.628 125.39 123.28 124.556C121.291 125.55 119.185 126.291 117.012 126.759C119.586 128.939 123.475 130.693 122.303 132.773C120.559 135.468 117.321 132.366 111.397 127.681C110.525 126.992 109.591 126.383 108.608 125.862C108.66 125.88 108.712 125.894 108.765 125.906C108.497 125.768 108.242 125.622 107.993 125.464C104.431 123.216 101.128 116.717 98.9928 111.657C96.612 106.027 94.954 100.462 94.9065 99.244C94.87 98.1774 95.0491 96.336 95.2348 94.5509C95.3785 93.0985 95.5608 91.3234 95.5067 90.7431C95.4624 90.7586 95.4194 90.7785 95.3785 90.8028C95.0159 91.0305 94.0687 92.0175 93.4751 96.2674C93.4596 96.3658 93.4077 96.4531 93.3281 96.5128C93.2485 96.5725 93.1491 96.5979 93.0507 96.5847C92.9523 96.5714 92.8639 96.5206 92.8031 96.4421C92.7423 96.3636 92.7147 96.2652 92.7257 96.1669C92.7357 96.1039 92.7412 96.0519 92.7467 96.0011C92.7202 95.9767 92.6992 95.9458 92.6859 95.9115C92.6826 95.8839 91.322 93.0797 90.8124 92.0673C90.4864 91.4273 90.1912 90.8138 89.9326 90.2789C89.0649 88.496 88.3211 86.9574 87.8546 87.0668C87.8248 87.1497 87.7574 87.5521 88.2116 88.9702C88.8328 90.805 89.549 92.6067 90.357 94.3674C90.378 94.4127 90.3902 94.4614 90.3913 94.51C90.3924 94.5597 90.3847 94.6095 90.367 94.6559C90.3493 94.7023 90.3228 94.7443 90.2885 94.7808C90.2542 94.8162 90.2134 94.8449 90.168 94.8648C90.1227 94.8847 90.0741 94.8946 90.0243 94.8958C89.9746 94.8958 89.9249 94.8869 89.8795 94.8681C89.8331 94.8493 89.7922 94.8217 89.7569 94.7863C89.7215 94.7521 89.6939 94.7101 89.6751 94.6636C88.604 92.2331 87.6236 89.8478 87.26 88.2882C87.2102 88.2551 87.1671 88.2119 87.1328 88.1622C86.9704 87.8759 86.6565 87.5344 86.5095 87.5344C86.4973 87.53 86.4608 87.5565 86.4078 87.6306C86.0187 88.2219 86.8532 90.606 87.4048 92.1944C88.1221 94.2425 88.5034 95.423 88.2072 95.9812C88.1685 96.0585 88.1122 96.126 88.0447 96.179C87.9773 96.2321 87.8988 96.2708 87.8148 96.2907C87.0411 96.4741 86.2696 95.486 85.0615 93.8313C84.5741 93.1615 83.755 92.0474 83.4102 91.8948C83.3892 91.9932 83.3881 92.2861 83.7639 93.0101L83.7661 93.0123Z" fill="#6F46BE"/>
<path d="M135.911 182.979C134.255 177.542 133.357 171.902 133.242 166.218C133.23 164.907 133.231 163.44 133.256 161.984C133.313 160.444 133.401 158.89 133.549 157.317C133.627 156.559 133.704 155.801 133.792 155.046C133.813 154.987 133.823 154.924 133.841 154.876C134.587 156.629 135.414 158.451 136.298 160.333C134.495 166.435 138.053 170.374 140.406 172.98C141.315 173.993 140.808 174.98 139.905 176.504C138.978 178.058 137.832 179.987 139.249 182.237C140.267 183.863 141.525 184.469 142.646 185.013C144.31 185.821 145.763 186.512 146.133 190.567C146.6 195.71 148.666 197.531 149.835 198.159C148.061 198.818 146.339 199.415 144.703 199.951C140.784 194.864 137.806 189.117 135.912 182.979H135.911Z" fill="white"/>
<path d="M169.952 187.846C171.799 188.539 173.754 188.906 175.727 188.929C176.02 188.929 176.289 188.921 176.547 188.909C176.889 188.889 177.222 188.79 177.518 188.617C177.815 188.445 178.067 188.206 178.253 187.917C178.44 187.63 178.556 187.303 178.594 186.961C178.63 186.621 178.586 186.276 178.466 185.955C178.302 185.519 178.002 185.145 177.612 184.89C177.222 184.635 176.76 184.511 176.295 184.535C176.06 184.556 175.795 184.553 175.514 184.556C173.52 184.508 171.435 183.905 169.325 182.787C168.812 182.518 168.214 182.463 167.66 182.633C167.107 182.803 166.643 183.186 166.37 183.696C166.097 184.207 166.037 184.805 166.203 185.36C166.369 185.915 166.748 186.381 167.257 186.657C168.13 187.108 169.031 187.504 169.954 187.844L169.952 187.846Z" fill="#6F46BE"/>
<path d="M256.912 146.252C254.646 145.424 253.481 142.915 254.309 140.648C255.137 138.381 257.646 137.213 259.912 138.042C262.178 138.871 263.343 141.379 262.515 143.646C261.687 145.913 259.178 147.081 256.912 146.252Z" fill="#6F46BE"/>
<path d="M256.723 146.769C257.635 147.102 258.624 147.157 259.567 146.927C260.51 146.697 261.364 146.193 262.021 145.478C262.677 144.763 263.107 143.869 263.256 142.909C263.405 141.95 263.266 140.968 262.857 140.087C262.448 139.208 261.787 138.468 260.958 137.963C260.129 137.459 259.17 137.211 258.199 137.252C257.229 137.293 256.294 137.621 255.51 138.195C254.727 138.768 254.131 139.561 253.798 140.473C253.354 141.696 253.411 143.045 253.959 144.226C254.508 145.406 255.501 146.32 256.722 146.768L256.723 146.769ZM259.723 138.559C260.432 138.817 261.048 139.282 261.494 139.892C261.941 140.502 262.195 141.23 262.227 141.984C262.259 142.739 262.067 143.486 261.673 144.132C261.281 144.777 260.705 145.291 260.021 145.61C259.336 145.928 258.572 146.036 257.826 145.92C257.08 145.804 256.385 145.47 255.829 144.96C255.273 144.449 254.88 143.784 254.702 143.051C254.524 142.317 254.567 141.546 254.826 140.837C255.175 139.886 255.887 139.114 256.805 138.686C257.722 138.259 258.772 138.214 259.723 138.559Z" fill="#6F46BE"/>
<path d="M233.526 126.881C232.545 126.523 232.041 125.438 232.399 124.456C232.758 123.475 233.843 122.971 234.823 123.329C235.804 123.687 236.308 124.772 235.95 125.754C235.592 126.735 234.506 127.239 233.526 126.881Z" fill="#6F46BE"/>
<path d="M233.445 127.104C233.84 127.249 234.269 127.272 234.678 127.173C235.087 127.073 235.458 126.855 235.743 126.545C236.027 126.234 236.214 125.848 236.279 125.431C236.344 125.014 236.283 124.589 236.107 124.207C235.93 123.826 235.642 123.505 235.283 123.287C234.924 123.068 234.507 122.961 234.087 122.978C233.667 122.996 233.26 123.138 232.921 123.387C232.582 123.636 232.323 123.98 232.178 124.375C232.082 124.637 232.039 124.917 232.05 125.197C232.062 125.476 232.129 125.75 232.247 126.003C232.364 126.257 232.531 126.484 232.736 126.673C232.942 126.862 233.183 127.009 233.446 127.104H233.445ZM234.743 123.552C235.05 123.664 235.316 123.865 235.51 124.129C235.703 124.393 235.813 124.708 235.827 125.034C235.841 125.361 235.757 125.684 235.588 125.964C235.418 126.243 235.169 126.465 234.873 126.604C234.577 126.742 234.246 126.788 233.922 126.738C233.6 126.689 233.299 126.544 233.058 126.323C232.817 126.102 232.648 125.814 232.571 125.496C232.493 125.179 232.512 124.845 232.624 124.538C232.698 124.333 232.812 124.147 232.959 123.986C233.106 123.826 233.282 123.697 233.479 123.605C233.676 123.513 233.889 123.461 234.106 123.452C234.323 123.444 234.539 123.477 234.743 123.552Z" fill="#6F46BE"/>
<path d="M183.588 210.306C186.318 211.223 189.968 211.264 194.437 210.444C196.434 210.082 198.402 209.58 200.329 208.944C200.375 208.927 200.417 208.902 200.454 208.87C200.49 208.837 200.52 208.798 200.541 208.753C200.562 208.707 200.574 208.661 200.577 208.611C200.58 208.562 200.573 208.513 200.556 208.466C200.54 208.42 200.514 208.378 200.482 208.341C200.449 208.305 200.409 208.275 200.365 208.254C200.321 208.233 200.274 208.221 200.224 208.219C200.174 208.216 200.125 208.223 200.08 208.24C199.976 208.268 190.049 211.694 183.829 209.608C183.782 209.593 183.735 209.586 183.686 209.588C183.637 209.591 183.59 209.604 183.547 209.625C183.503 209.646 183.464 209.675 183.432 209.712C183.4 209.748 183.374 209.79 183.359 209.837C183.343 209.883 183.337 209.931 183.339 209.979C183.342 210.028 183.355 210.076 183.376 210.119C183.397 210.163 183.426 210.202 183.463 210.234C183.499 210.266 183.541 210.291 183.588 210.307V210.306Z" fill="#6F46BE"/>
</svg>
