<svg width="275" height="240" viewBox="0 0 275 240" fill="none" xmlns="http://www.w3.org/2000/svg">
<g clip-path="url(#clip0_47_5524)">
<mask id="mask0_47_5524" style="mask-type:luminance" maskUnits="userSpaceOnUse" x="6" y="0" width="269" height="240">
<path d="M274.978 0H6.18298V240H274.978V0Z" fill="white"/>
</mask>
<g mask="url(#mask0_47_5524)">
<path d="M85.9327 233.796C5.27108 220.624 -17.2534 136.964 32.4181 86.6509C77.6532 40.8269 54.1755 5.08937 128.437 0.399393C194.175 -3.75448 260.519 75.9538 273.09 143.635C290.283 236.038 187.111 250.324 85.9327 233.794V233.796Z" fill="#EDE3FF"/>
</g>
<mask id="mask1_47_5524" style="mask-type:luminance" maskUnits="userSpaceOnUse" x="-1" y="21" width="276" height="191">
<path d="M274.979 21.2966H-0.00012207V211.771H274.979V21.2966Z" fill="white"/>
</mask>
<g mask="url(#mask1_47_5524)">
<path d="M136.374 90.6433C149.659 90.6433 160.428 83.8203 160.428 75.4036C160.428 66.9869 149.659 60.1638 136.374 60.1638C123.09 60.1638 112.321 66.9869 112.321 75.4036C112.321 83.8203 123.09 90.6433 136.374 90.6433Z" fill="#6F46BE"/>
<path d="M136.374 91.0321C122.896 91.0321 111.931 84.029 111.931 75.4035C111.931 66.778 122.916 59.775 136.374 59.775C149.833 59.775 160.821 66.778 160.821 75.4035C160.821 84.029 149.856 91.0321 136.374 91.0321ZM136.374 60.5508C123.323 60.5508 112.709 67.2165 112.709 75.4018C112.709 83.587 123.323 90.2528 136.374 90.2528C149.425 90.2528 160.043 83.5924 160.043 75.4018C160.043 67.2112 149.425 60.5508 136.374 60.5508Z" fill="#6F46BE"/>
<path d="M138.548 211.383C191.864 211.383 235.085 203.596 235.085 193.991C235.085 184.386 191.864 176.6 138.548 176.6C85.2324 176.6 42.0115 184.386 42.0115 193.991C42.0115 203.596 85.2324 211.383 138.548 211.383Z" fill="#6F46BE"/>
<path d="M138.548 211.771C112.739 211.771 88.4706 209.959 70.2161 206.671C59.5394 204.745 41.6179 200.54 41.6179 193.991C41.6179 187.443 59.5341 183.234 70.2107 181.308C88.4653 178.02 112.733 176.208 138.543 176.208C164.352 176.208 188.615 178.02 206.874 181.308C217.551 183.234 235.467 187.439 235.467 193.991C235.467 200.544 217.551 204.745 206.874 206.671C188.62 209.959 164.356 211.771 138.546 211.771H138.548ZM138.548 176.984C112.783 176.984 88.5645 178.793 70.3525 182.073C52.5887 185.275 42.3975 189.617 42.3975 193.991C42.3975 198.365 52.5852 202.702 70.3489 205.905C88.561 209.185 112.779 210.994 138.544 210.994C164.309 210.994 188.524 209.185 206.736 205.905C224.5 202.702 234.691 198.36 234.691 193.991C234.691 189.623 224.5 185.275 206.736 182.073C188.528 178.793 164.311 176.984 138.548 176.984Z" fill="#6F46BE"/>
<path d="M272.026 81.9397C266.95 52.6265 258.236 78.3752 258.236 78.3752C255.783 99.5032 224.956 131.797 186.848 104.09C158.197 83.2463 134.951 90.2315 134.951 90.2315C134.951 90.2315 112.854 87.283 84.1866 105.425C64.5979 117.821 38.8364 131.019 31.5083 76.2486C29.1076 62.8532 19.7721 83.1238 19.7721 83.1238C19.7721 83.1238 11.8984 183.262 89.1812 156.205C83.9527 172.388 81.2614 193.892 79.9698 207.816C96.2134 210.053 116.534 211.384 138.55 211.384C162.667 211.384 184.694 209.794 201.611 207.16C199.632 193.235 195.578 171.873 187.716 153.007C229.823 166.068 266.216 125.895 272.026 81.9415V81.9397Z" fill="white"/>
<path d="M92.7317 145.348C92.7317 145.348 100.643 145.457 97.9159 157.686C95.1892 169.915 91.1478 168.491 89.7481 177.443C88.3484 186.396 97.3879 203.208 94.1155 209.32C89.6382 209.212 79.5994 207.573 79.5994 207.573C79.5994 207.573 85.1858 163.031 90.494 150.472C91.8157 147.36 92.73 145.347 92.73 145.347L92.7317 145.348Z" fill="#EDE3FF"/>
<path d="M148.716 105.027C148.716 105.027 142.17 100.934 140.205 102.981C138.24 105.027 138.077 111.514 139.384 117.486C139.843 119.571 141.679 127.041 140.205 134.55C138.731 142.059 139.974 166.501 141.021 177.209C142.659 193.94 144.133 196.32 144.786 211.335C141.351 211.505 137.751 211.335 137.751 211.335L136.603 95.1309C136.603 95.1309 140.205 97.1653 148.716 105.026V105.027Z" fill="#EDE3FF"/>
<path d="M138.548 211.771C117.154 211.771 96.8778 210.534 79.9131 208.2C79.7058 208.171 79.557 207.983 79.5783 207.776C80.9283 193.216 83.5807 172.661 88.5718 156.825C68.7333 163.606 52.7856 162.493 41.1167 153.514C27.8373 143.27 22.6637 124.473 20.6651 110.513C19.3558 101.214 18.9642 91.8114 19.4975 82.4368C19.5011 82.3871 19.5135 82.3409 19.5365 82.2965C20.0928 81.1604 25.0786 71.2231 28.872 71.745C30.3656 71.9544 31.3684 73.616 31.9442 76.8308C34.7985 98.1647 40.5019 110.552 49.4475 114.72C59.7079 119.513 72.6542 112.265 83.9846 105.093C111.559 87.6469 133.385 89.6652 134.941 89.8339C135.696 89.6191 141.332 88.1421 150.215 88.9551C158.835 89.7327 172.231 92.9581 187.102 103.776C206.247 117.706 222.032 115.467 231.904 111.141C247.074 104.491 256.605 89.2747 257.877 78.329C257.88 78.3006 257.886 78.274 257.896 78.2474C258.052 77.7965 261.785 67.2361 266.089 67.6053C268.92 67.8396 271.091 72.5385 272.724 81.9663C272.731 82.0107 272.731 82.0551 272.724 82.0995C267.466 111.42 252.625 136.077 232.994 148.006C219.38 156.298 203.965 158.231 188.383 153.617C195.971 172.137 199.967 192.88 201.997 207.105C202.027 207.316 201.882 207.513 201.671 207.545C184.139 210.271 161.723 211.773 138.548 211.773V211.771ZM80.388 207.492C97.2428 209.79 117.34 210.994 138.548 210.994C161.517 210.994 183.735 209.515 201.173 206.831C199.111 192.47 195.055 171.628 187.36 153.138C187.304 152.999 187.33 152.841 187.431 152.73C187.529 152.621 187.679 152.579 187.821 152.616C203.45 157.467 218.939 155.636 232.585 147.324C252.01 135.5 266.706 111.084 271.911 82.016C269.994 70.9816 267.632 68.5 265.986 68.3633C262.928 68.1112 259.642 75.5154 258.596 78.448C257.887 84.4516 255.026 91.0534 250.529 97.0428C245.593 103.618 239.248 108.734 232.17 111.828C222.138 116.259 206.067 118.567 186.625 104.404C158.452 83.9119 135.281 90.5333 135.067 90.5989C135.013 90.6131 134.957 90.6131 134.904 90.5989C134.682 90.567 112.595 87.8759 84.3957 105.734C75.5067 111.359 65.6309 117.017 56.7047 117.017C54.086 117.045 51.4939 116.493 49.1162 115.398C39.9367 111.118 34.0668 98.5268 31.1806 76.9249C30.6863 74.2018 29.85 72.645 28.7657 72.4888C26.0425 72.1 21.7636 79.5539 20.27 82.5468C19.7491 91.8451 20.1407 101.172 21.4376 110.394C23.4167 124.206 28.5247 142.789 41.6057 152.873C53.1771 161.792 69.1372 162.779 89.0608 155.811C89.2645 155.74 89.486 155.849 89.5551 156.051C89.5834 156.131 89.5835 156.218 89.5586 156.298C84.4754 172.052 81.7717 192.747 80.395 207.477V207.49L80.388 207.492Z" fill="#6F46BE"/>
<path d="M89.4984 156.608C91.3535 151.16 93.3148 148.686 94.695 145.799C91.3499 144.594 88.2458 143.808 84.2504 148.608C80.2551 153.408 77.3193 155.004 66.9261 153.938C60.1774 153.246 58.1505 157.272 57.5587 160.164C66.0349 161.63 76.4316 160.647 89.1777 156.184C89.1423 156.308 89.5321 156.495 89.4966 156.608H89.4984Z" fill="#6F46BE"/>
<path d="M219.381 118.602C224.181 121.801 234.84 122.065 239.371 115.668C243.901 109.27 247.629 107.14 255.357 102.606C261.289 99.1286 260.313 90.0007 257.127 84.8599C252.338 99.2174 236.878 115.423 216.157 115.208C217.009 116.531 218.104 117.683 219.381 118.6V118.602Z" fill="#EDE3FF"/>
<path d="M265.359 95.2427C264.92 100.822 265.021 109.016 260.212 112.362C255.403 115.709 248.003 118.086 246.247 126.759C245.552 129.924 245.698 133.215 246.667 136.308C259.273 122.88 267.375 105.904 270.924 88.3303C269.232 88.3658 265.669 91.2557 265.357 95.2445L265.359 95.2427Z" fill="#6F46BE"/>
<path d="M59.8353 120.844C68.6304 122.175 72.36 113.646 78.5063 112.845C84.6525 112.045 97.955 106.185 104.089 101.119C106.61 98.9883 108.804 96.4978 110.597 93.7267C102.934 95.9563 93.871 99.6948 84.0342 105.92C73.4886 112.593 61.4742 119.612 51.4885 116.119C52.9892 118.1 55.5618 120.196 59.8353 120.846V120.844Z" fill="#EDE3FF"/>
<path d="M196.91 148.407C192.312 143.209 181.216 139.373 179.986 144.859C182.862 149.147 185.978 153.269 189.322 157.205H189.396C188.859 155.797 188.301 154.396 187.723 153.007C197.885 156.163 208.744 156.298 218.981 153.395C217.877 152.808 216.71 152.344 215.503 152.014C207.902 149.808 201.488 153.605 196.91 148.407Z" fill="#6F46BE"/>
<path d="M137.747 211.558C137.533 211.558 137.357 211.384 137.357 211.17L136.215 94.7404C136.215 94.5256 136.388 94.3516 136.604 94.3516C136.819 94.3516 136.994 94.5256 136.994 94.7404L138.137 211.17C138.137 211.384 137.963 211.558 137.747 211.558Z" fill="#6F46BE"/>
<path d="M271.711 63.0573C273.656 64.4224 273.656 63.7532 274.88 66.6414C274.88 66.6414 273.406 74.8125 272.547 81.6521C267.907 84.2705 262.682 83.4965 258.031 80.8746C258.249 78.3113 254.698 71.6491 248.139 67.0426C244.163 64.2449 247.237 60.8171 251.787 64.2343C254.436 66.2189 255.191 67.3461 255.191 67.3461C256.59 66.755 257.586 68.3455 258.741 68.4467C261.413 64.9443 263.553 59.1591 258.881 50.3152C257.99 48.4211 257.675 44.8105 262.269 49.3069C264.723 52.5289 266.197 56.3099 266.828 60.5366C268.142 56.7271 268.243 52.5377 267.606 48.1087C267.283 45.256 269.356 42.6856 271.016 47.5087C272.279 53.0383 272.692 58.2786 271.709 63.0556L271.711 63.0573Z" fill="#EDE3FF"/>
<path d="M261.589 76.158C261.589 76.158 263.024 67.0887 255.829 67.5982C253.853 68.1982 253.779 69.5438 256.327 69.2083C258.874 68.8728 261.149 72.2154 261.589 76.158Z" fill="white"/>
<path d="M269.17 62.3224C269.17 62.3224 264.289 61.7615 263.724 68.3757C263.451 72.329 265.517 70.1349 265.587 68.4378C265.658 66.7408 265.178 65.0562 269.17 62.3206V62.3224Z" fill="white"/>
<path d="M271.135 64.0177C271.135 64.0177 266.996 64.3017 267.386 70.2929C267.558 72.4142 268.81 71.3083 269.007 69.9858C269.204 68.6633 268.004 66.7603 271.135 64.0177Z" fill="white"/>
<path d="M265.382 71.255H265.196C264.278 71.1574 263.337 70.3213 263.429 68.7254C263.521 67.1295 263.819 62.3171 268.366 61.9514C271.424 61.7029 272.602 63.6396 272.644 63.7248C272.733 63.92 272.644 64.1508 272.449 64.2396C272.281 64.3159 272.083 64.2627 271.975 64.1135C271.932 64.0443 270.963 62.5177 268.419 62.72C264.941 63.0005 264.345 66.3041 264.198 68.7662C264.133 69.8562 264.709 70.4154 265.268 70.4739C265.913 70.5432 266.645 70.0266 266.852 68.7148C266.886 68.5 267.086 68.3526 267.302 68.3863C267.517 68.4201 267.664 68.6207 267.632 68.8355C267.368 70.5201 266.317 71.2515 265.384 71.2515L265.382 71.255Z" fill="#6F46BE"/>
<path d="M258.949 68.2834C258.846 68.2834 258.747 68.2426 258.672 68.1698C258.52 68.0189 258.518 67.7722 258.67 67.6195C258.67 67.6195 258.67 67.6195 258.672 67.6177C258.883 67.4082 263.784 62.365 259.61 53.404C257.836 49.5945 257.508 47.4696 258.61 46.898C259.99 46.1862 262.625 48.7105 263.761 50.6987C265.811 54.2863 267.262 59.3082 266.838 61.4526C266.798 61.6674 266.59 61.8094 266.376 61.7686C266.162 61.7277 266.02 61.52 266.061 61.3052C266.399 59.5425 265.192 54.7957 263.073 51.0839C261.798 48.8472 259.572 47.2708 258.958 47.5815C258.919 47.5815 258.013 48.1424 260.304 53.0632C264.719 62.5408 259.266 68.1059 259.211 68.1591C259.142 68.2319 259.05 68.2745 258.95 68.2799L258.949 68.2834Z" fill="#6F46BE"/>
<path d="M266.56 83.5498C263.415 83.5001 260.334 82.6462 257.615 81.0681C257.476 80.99 257.4 80.8356 257.42 80.6794C257.673 78.8385 254.347 71.9047 247.905 67.3799C246.536 66.4195 245.813 65.2639 245.917 64.213C245.983 63.5153 246.435 62.9153 247.085 62.6562C248.361 62.0952 250.196 62.5709 252.021 63.9289C253.29 64.8485 254.477 65.8727 255.572 66.9911C256.961 66.5118 258.968 67.213 260.476 68.7379C262.634 70.916 263.079 73.8858 261.667 76.6782C261.569 76.8699 261.335 76.948 261.144 76.8521C260.951 76.7563 260.875 76.5219 260.97 76.3284C262.227 73.8468 261.833 71.216 259.923 69.2864C258.563 67.9089 256.718 67.2716 255.644 67.8041C255.483 67.884 255.288 67.8414 255.173 67.7029C254.076 66.5349 252.866 65.4787 251.559 64.552C249.688 63.155 248.187 63.0236 247.4 63.384C247.018 63.5313 246.748 63.8792 246.704 64.2858C246.63 65.0402 247.253 65.958 248.364 66.7444C254.674 71.1752 258.233 78.0273 258.221 80.5107C262.887 83.0634 268.171 83.4646 272.076 81.5687C273.943 73.7207 274.177 69.0254 274.181 68.9775C274.34 66.8065 273.936 65.3313 273.013 64.6976C272.005 64.0017 270.68 64.4988 270.162 64.7437C267.758 65.8763 267.723 67.9497 267.696 69.3201V69.8385C267.607 70.4633 268.043 71.042 268.669 71.1308C268.676 71.1308 268.683 71.1325 268.688 71.1325C269.202 71.1876 269.856 70.8947 270.019 69.8882C270.409 67.4296 271.851 67.1988 271.913 67.1917C272.127 67.1597 272.327 67.3089 272.358 67.5236C272.389 67.7384 272.241 67.9373 272.024 67.9692C271.973 67.9692 271.071 68.1787 270.784 70.016C270.559 71.4556 269.496 72.0113 268.607 71.9154C267.558 71.7947 266.805 70.8485 266.922 69.7994V69.3166C266.948 67.9426 266.993 65.3864 269.835 64.0479C271.192 63.4106 272.515 63.4141 273.46 64.0479C274.627 64.8609 275.139 66.5296 274.957 69.0166C274.957 69.0556 274.716 73.8841 272.79 81.9184C272.763 82.0303 272.689 82.1243 272.588 82.1758C270.713 83.1042 268.646 83.5747 266.555 83.5498H266.56Z" fill="#6F46BE"/>
<path d="M271.714 63.4816H271.668C271.456 63.4549 271.303 63.2614 271.33 63.0484C272.033 57.4087 271.991 54.2028 271.147 49.3158C270.695 46.6974 269.468 45.1601 268.814 45.2578C268.394 45.3163 267.717 46.3672 268.137 49.8909C268.706 54.414 268.086 59.0064 266.337 63.2171C266.241 63.4106 266.009 63.4887 265.816 63.3946C265.628 63.3023 265.547 63.0786 265.633 62.8869C267.297 58.804 267.894 54.3626 267.368 49.985C266.824 45.4477 267.97 44.5921 268.702 44.4873C270.017 44.2921 271.425 46.3548 271.927 49.1844C272.786 54.1566 272.834 57.4212 272.113 63.1443C272.086 63.3431 271.916 63.4887 271.716 63.4833L271.714 63.4816Z" fill="#6F46BE"/>
<path d="M22.2136 67.5982C23.0765 65.578 23.2288 66.2207 23.2288 66.2207C23.2288 66.2207 20.6155 63.0076 20.3621 59.1591C20.1088 55.3105 23.3369 52.6922 24.4195 58.4153C25.502 64.1384 26.8114 62.1822 29.2653 67.0763C30.7394 70.0053 31.7776 77.1184 31.7776 77.1184C31.1168 80.4379 23.6877 82.7723 19.7579 83.0013C19.7579 81.7444 17.1871 77.8657 11.9781 81.1178C11.9781 81.1178 6.8754 83.4947 2.27766 80.2586C-1.35978 77.6953 1.0516 76.2308 2.79856 77.0829C4.54553 77.9349 7.3963 79.071 10.3481 76.2237C8.36901 74.8391 7.66384 71.7805 8.1812 68.894C4.68018 66.3449 3.22201 62.7822 3.98742 57.6111C4.55616 55.6034 6.97462 54.5454 7.18015 57.6537C6.84174 60.494 8.09084 62.6686 10.0894 64.5289L12.1163 62.894C11.3686 60.4567 11.3084 57.8614 11.9444 55.3922C11.8364 53.6845 15.5429 52.6069 15.3675 55.9762C15.2966 61.6727 17.134 65.8905 22.2101 67.5982H22.2136Z" fill="#EDE3FF"/>
<path d="M4.3135 57.1247C4.3135 57.1247 2.39645 63.5756 7.86413 68.4076C6.46798 66.4621 4.659 61.1543 5.91873 57.8525C7.17846 54.5507 4.73164 55.891 4.31173 57.1247H4.3135Z" fill="white"/>
<path d="M13.197 62.5124C13.197 62.5124 5.36226 65.4467 8.85264 74.5036C8.79772 72.629 8.37072 67.1118 13.1315 64.7526C17.8922 62.3934 13.6134 62.2159 13.197 62.5124Z" fill="white"/>
<path d="M21.3934 55.4827C19.7953 58.9851 20.4048 63.0999 22.949 65.9881C21.8169 68.8603 19.184 72.9911 25.0379 76.1048C26.2055 77.0456 27.9862 76.0586 25.4933 74.4237C22.7701 72.6308 22.3821 69.2491 25.162 65.7396C23.3725 63.3165 22.0507 61.7668 22.2722 57.4514C22.3537 55.5378 21.3934 55.4827 21.3934 55.4827Z" fill="white"/>
<path d="M19.7987 83.5107C19.7048 83.5107 19.6127 83.4752 19.5418 83.4131C19.4603 83.3403 19.4125 83.2374 19.4089 83.1291C19.4443 82.2238 18.9801 81.3717 18.1988 80.9119C16.6432 79.9853 13.8455 80.4184 10.7768 82.08C10.5979 82.1652 6.79036 83.9119 2.05973 80.5817C-0.390625 78.8385 -0.0787931 77.6474 0.172798 77.216C0.63523 76.4385 1.91622 76.2202 2.97397 76.7367C4.94595 77.7024 7.28468 78.3787 9.75453 76.2468C8.14399 74.8533 7.36619 72.2971 7.71168 69.4373C8.02706 66.8225 9.44979 63.6005 12.4884 62.4343C14.6428 61.5982 15.4525 62.3135 15.7449 62.823C16.2782 63.7372 15.8264 65.2461 14.7616 66.1266C13.6294 67.1118 12.9207 68.4964 12.7825 69.9893C12.7169 70.6746 12.9366 71.358 13.3884 71.8763C13.539 72.0308 13.5355 72.2757 13.3831 72.4266C13.2307 72.5775 12.9827 72.574 12.8321 72.4213C12.2155 71.7467 11.9143 70.8414 12.0029 69.9308C12.1588 68.2195 12.9703 66.6361 14.2672 65.5106C15.0149 64.8929 15.4065 63.7709 15.0769 63.1993C14.7934 62.713 13.9536 62.697 12.7701 63.1532C10.0469 64.2076 8.77474 67.1367 8.49126 69.526C8.1688 72.2651 8.97318 74.7787 10.5802 75.9024C10.6741 75.9699 10.7343 76.0746 10.7432 76.19C10.752 76.3054 10.7095 76.4207 10.6262 76.5006C7.29354 79.7101 4.014 78.116 2.63202 77.4308C1.88433 77.0651 1.0764 77.2249 0.842527 77.6101C0.608654 77.9953 0.924029 78.8208 2.50799 79.9444C6.86832 83.019 10.3888 81.4036 10.4243 81.3841C13.7694 79.5823 16.753 79.1616 18.5921 80.248C19.4762 80.7663 20.0556 81.6788 20.1477 82.6995C24.4655 82.2007 30.5144 79.8397 31.1823 76.8628C31.1168 76.19 30.4736 69.9254 29.1253 67.2361C28.5087 65.9011 27.637 64.7011 26.558 63.7035C25.5162 62.6916 24.687 61.8911 24.0368 58.4703C23.5938 56.136 22.8302 55.3957 22.2703 55.4667C21.4659 55.5679 20.6243 57.1869 20.7501 59.1165C20.9876 62.7893 23.5035 65.926 23.5318 65.9562C23.6541 66.1017 23.6541 66.313 23.5318 66.4585C22.9347 67.2733 22.4493 68.1645 22.0896 69.1089C21.5652 70.1988 21.5155 71.4556 21.9496 72.5829C22.8373 74.7734 25.4506 75.8864 25.4772 75.8971C25.6757 75.9805 25.7696 76.2077 25.6881 76.4065C25.6048 76.6054 25.378 76.6994 25.1778 76.616C25.0573 76.5663 22.2455 75.3716 21.2303 72.8811C20.7129 71.5586 20.7643 70.0816 21.3738 68.8C21.7406 67.8875 22.203 67.0177 22.7505 66.2011C22.1286 65.365 20.2027 62.5248 19.9847 59.1662C19.8377 56.9295 20.837 54.8792 22.1711 54.7105C22.7345 54.636 24.1165 54.8472 24.7969 58.3372C25.4028 61.52 26.1151 62.2053 27.0948 63.1585C28.2359 64.2165 29.1607 65.4875 29.8181 66.897C31.3046 69.858 31.9335 76.577 31.9566 76.861C31.9619 76.8983 31.9619 76.9373 31.9566 76.9746C31.2443 80.5356 24.3327 83.0989 19.8359 83.5072H19.7969L19.7987 83.5107Z" fill="#6F46BE"/>
<path d="M8.19172 69.2669C8.11376 69.2669 8.03757 69.2438 7.97379 69.2012C4.797 66.7923 3.08193 62.9171 3.43451 58.9443C3.65598 56.1502 4.86256 55.2395 5.81046 55.2946C6.82568 55.3638 7.84799 56.5638 7.75586 58.6532C7.58931 61.8165 10.2877 64.1384 10.3161 64.1633C10.4773 64.3017 10.4986 64.5449 10.3621 64.7082C10.2257 64.8733 9.97943 64.8964 9.81466 64.7597C9.69063 64.655 6.79202 62.1715 6.97983 58.6123C7.06133 57.0786 6.43589 56.1182 5.78211 56.0756C5.12833 56.033 4.39658 56.9348 4.22649 59.01C3.92707 62.697 5.50748 66.2881 8.42736 68.5586C8.60454 68.6793 8.6506 68.9225 8.52835 69.1C8.45394 69.2101 8.32814 69.2757 8.19349 69.2704L8.19172 69.2669Z" fill="#6F46BE"/>
<path d="M22.2792 68.0846C22.2296 68.0846 22.18 68.0721 22.1357 68.0526C15.605 65.4218 14.6252 60.2703 14.9476 56.4146C15.0646 55.0407 14.7953 54.162 14.2159 53.9951C13.6365 53.8282 12.7613 54.3413 12.3874 55.046C12.2793 55.4898 11.3881 59.459 12.5008 62.8283C12.5681 63.0307 12.4583 63.2508 12.2563 63.3182C12.0526 63.3875 11.8329 63.2792 11.7638 63.0751C11.7638 63.0751 11.7638 63.0751 11.7638 63.0733C10.5147 59.3064 11.6008 54.9998 11.6468 54.8206C11.6521 54.7939 11.661 54.7673 11.6734 54.7424C12.1553 53.7856 13.3814 52.9602 14.4267 53.2566C14.999 53.4164 15.9274 54.0342 15.7219 56.4892C15.4225 60.0768 16.3367 64.8733 22.428 67.3337C22.6265 67.4153 22.7222 67.6408 22.6424 67.8396C22.584 67.9869 22.4404 68.0846 22.281 68.0846H22.2792Z" fill="#6F46BE"/>
<path d="M12.5432 74.5657C12.3288 74.5657 12.1552 74.3917 12.1552 74.1769C12.1552 74.1254 12.1658 74.074 12.1853 74.026C13.3139 71.3029 16.7015 68.2798 16.8521 68.1503C17.0204 68.0153 17.2649 68.042 17.3996 68.2106C17.5236 68.365 17.5112 68.5905 17.3695 68.7307C17.334 68.7627 13.9694 71.7805 12.9082 74.326C12.8479 74.4734 12.7026 74.5692 12.5432 74.5675V74.5657Z" fill="#6F46BE"/>
<path d="M21.4819 87.6043C20.9043 87.6078 20.3285 87.5812 19.7544 87.5226C19.54 87.4978 19.3859 87.3043 19.4107 87.0895C19.4355 86.8747 19.6304 86.7202 19.8448 86.7451C19.9263 86.7451 28.2625 87.6362 32.0115 82.5628C32.1391 82.3924 32.3801 82.3551 32.5519 82.4812C32.7256 82.6072 32.7645 82.8504 32.6387 83.0244C29.671 87.0522 24.2565 87.6043 21.4837 87.6043H21.4819Z" fill="#6F46BE"/>
<path d="M267.949 87.2705C264.053 87.2741 260.207 86.4025 256.692 84.7178C256.493 84.6362 256.397 84.4089 256.479 84.2101C256.56 84.0113 256.787 83.9155 256.986 83.9971C257.009 84.006 257.032 84.0184 257.053 84.0326C261.486 86.1149 266.42 86.8906 271.279 86.2729C271.493 86.2427 271.691 86.3918 271.721 86.6066C271.752 86.8214 271.601 87.0202 271.387 87.0504C270.247 87.2048 269.097 87.2776 267.948 87.2687L267.949 87.2705Z" fill="#6F46BE"/>
<path d="M195.048 175.642C190.381 166.716 188.498 167.946 186.125 164.261C182.55 158.712 185.635 157.137 183.014 154.192C180.394 151.247 177.74 144.076 181.953 143.465C186.166 142.854 195.05 175.642 195.05 175.642H195.048Z" fill="#6F46BE"/>
<path d="M127.012 76.8894C125.285 80.9474 109.987 87.1143 105.097 75.4106C100.818 65.1822 109.652 59.8709 113.58 60.3058C113.58 60.3058 109.985 49.0229 122.691 46.6885C119.599 53.8052 122.944 62.9011 122.944 62.9011C122.944 62.9011 120.602 71.2976 127.012 76.8894Z" fill="#6F46BE"/>
<path d="M115.311 82.5734H115.265C111.796 82.5734 107.151 81.3362 104.736 75.5704C102.445 70.0852 103.922 66.3147 105.568 64.1153C107.664 61.3141 110.855 59.9171 113.068 59.9011C112.742 58.5236 112.127 54.7531 114.122 51.4265C115.71 48.785 118.568 47.0684 122.625 46.33C122.836 46.2927 123.038 46.4347 123.075 46.646C123.088 46.7205 123.079 46.7968 123.049 46.8661C120.058 53.7537 123.274 62.697 123.309 62.7875C123.334 62.8656 123.334 62.9508 123.309 63.0289C123.286 63.1106 121.116 71.2461 127.262 76.6C127.389 76.7119 127.43 76.8929 127.363 77.0474C126.302 79.5539 120.692 82.5717 115.313 82.5717L115.311 82.5734ZM113.098 60.6715C111.068 60.6715 108.081 62.049 106.19 64.5627C104.67 66.597 103.304 70.1029 105.455 75.2509C107.703 80.6314 112.032 81.7711 115.269 81.7835H115.315C120.434 81.7835 125.379 79.0018 126.528 76.971C120.694 71.6633 122.281 63.9946 122.538 62.926C122.149 61.836 119.548 53.9152 122.06 47.2193C118.61 47.9773 116.167 49.5182 114.79 51.8064C112.53 55.5768 113.938 60.1443 113.97 60.2064C114.011 60.3325 113.984 60.4709 113.899 60.5721C113.816 60.6733 113.687 60.7265 113.557 60.7123C113.405 60.691 113.253 60.6768 113.098 60.6733V60.6715Z" fill="#6F46BE"/>
<path d="M145.306 76.8894C147.033 80.9474 162.331 87.1143 167.221 75.4106C171.5 65.1822 162.665 59.8709 158.737 60.3058C158.737 60.3058 162.332 49.0229 149.627 46.6885C152.719 53.8211 149.367 62.9295 149.367 62.9295C149.367 62.9295 151.7 71.2994 145.306 76.8894Z" fill="#6F46BE"/>
<path d="M157.005 82.5735C151.625 82.5735 146.016 79.5539 144.946 77.0403C144.88 76.8841 144.923 76.703 145.05 76.5929C151.193 71.239 149.023 63.1035 148.998 63.0218C148.973 62.9437 148.973 62.8585 148.998 62.7804C149.033 62.6917 152.249 53.7466 149.258 46.859C149.173 46.6619 149.264 46.4329 149.46 46.3477C149.531 46.3176 149.609 46.3087 149.685 46.3229C153.739 47.0614 156.597 48.7779 158.185 51.4194C160.18 54.7425 159.565 58.5165 159.239 59.894C161.452 59.894 164.641 61.307 166.739 64.1082C168.385 66.3059 169.85 70.0763 167.571 75.5633C165.156 81.3379 160.511 82.5663 157.042 82.5663L157.003 82.5735H157.005ZM145.786 76.9817C146.953 79.0125 151.881 81.7942 156.999 81.7942H157.045C160.282 81.7942 164.611 80.6261 166.859 75.2616C169.01 70.1136 167.637 66.6077 166.124 64.5733C164.093 61.8502 160.791 60.4691 158.776 60.6822C158.562 60.7052 158.371 60.5508 158.348 60.3378C158.342 60.2828 158.348 60.2295 158.364 60.1762C158.364 60.1301 159.783 55.5626 157.524 51.8028C156.147 49.5146 153.704 47.9738 150.254 47.2158C152.766 53.9117 150.16 61.8342 149.779 62.9224C150.033 64.0035 151.608 71.6722 145.784 76.9799L145.786 76.9817Z" fill="#6F46BE"/>
<path d="M122.017 61.0141C122.017 63.0964 120.66 64.481 119.415 64.3958C117.498 64.2555 116.493 61.8626 116.493 59.7821C116.493 57.7016 117.73 56.9064 118.979 56.9064C120.228 56.9064 122.017 58.9372 122.017 61.0159V61.0141Z" fill="#EDE3FF"/>
<path d="M119.528 64.7881H119.388C117.253 64.6372 116.105 62.0987 116.105 59.7892C116.105 57.4798 117.661 56.5247 118.979 56.5247C120.441 56.5247 122.405 58.7508 122.405 61.023C122.439 62.1662 121.998 63.2739 121.188 64.0816C120.745 64.52 120.15 64.7721 119.528 64.7899V64.7881ZM118.979 57.2951C118.488 57.2951 116.883 57.4744 116.883 59.7821C116.883 61.7703 117.84 63.8916 119.443 64.007C119.9 64.0159 120.341 63.8348 120.66 63.5046C121.312 62.8425 121.661 61.9425 121.629 61.0141C121.629 59.0951 119.976 57.2951 118.981 57.2951H118.979Z" fill="#6F46BE"/>
<path d="M149.494 61.0141C149.494 63.0964 150.851 64.481 152.097 64.3958C154.014 64.2555 155.018 61.8626 155.018 59.7821C155.018 57.7016 153.778 56.9064 152.529 56.9064C151.28 56.9064 149.496 58.9372 149.496 61.0159L149.494 61.0141Z" fill="#EDE3FF"/>
<path d="M151.98 64.7881C151.356 64.7686 150.763 64.513 150.32 64.0727C149.512 63.2633 149.072 62.1573 149.106 61.0141C149.106 58.7419 151.051 56.5159 152.529 56.5159C153.86 56.5159 155.408 57.3715 155.408 59.7804C155.408 62.1893 154.241 64.6284 152.125 64.7792L151.982 64.7863L151.98 64.7881ZM152.529 57.2952C151.533 57.2952 149.884 59.097 149.884 61.0141C149.852 61.9408 150.201 62.8408 150.848 63.5047C151.168 63.8331 151.61 64.0142 152.068 64.0071C153.672 63.8899 154.629 61.7703 154.629 59.7822C154.629 57.4833 153.022 57.2952 152.527 57.2952H152.529Z" fill="#6F46BE"/>
<path d="M119.824 90.4108C118.715 93.7995 121.493 102.228 124.725 104.234C128.405 99.1055 136.783 94.4208 136.783 94.4208L126.082 84.0521C126.082 84.0521 121.605 84.9468 119.824 90.409V90.4108Z" fill="white"/>
<path d="M152.478 90.4108C153.536 93.7995 150.883 102.228 147.811 104.234C144.31 99.1055 136.321 94.4208 136.321 94.4208L146.535 84.0521C146.535 84.0521 150.763 84.9468 152.48 90.409L152.478 90.4108Z" fill="white"/>
<path d="M147.811 84.803C147.811 84.803 153.743 88.2735 152.191 91.8344C150.639 95.3954 137.767 94.2114 137.767 94.2114C137.767 94.2114 147.535 90.7409 147.35 84.6202C147.988 84.803 147.809 84.803 147.809 84.803H147.811Z" fill="#EDE3FF"/>
<path d="M124.725 104.623C124.654 104.623 124.583 104.601 124.523 104.564C121.022 102.397 118.334 93.7197 119.466 90.2883C121.298 84.6735 125.811 83.7096 126 83.674C126.126 83.6492 126.255 83.69 126.346 83.7788L137.047 94.1475C137.134 94.2327 137.175 94.3534 137.161 94.4741C137.147 94.5966 137.074 94.7049 136.966 94.7653C136.884 94.8114 128.638 99.4659 125.056 104.461C124.98 104.566 124.856 104.626 124.725 104.621V104.623ZM125.951 84.4835C125.095 84.7214 121.691 85.9356 120.194 90.5297C119.198 93.5724 121.583 101.424 124.636 103.7C127.946 99.3061 134.361 95.3777 136.122 94.3623L125.951 84.4835Z" fill="#6F46BE"/>
<path d="M147.786 104.623C147.657 104.623 147.536 104.559 147.464 104.452C144.041 99.457 136.183 94.8078 136.098 94.7599C135.993 94.6995 135.922 94.593 135.906 94.4723C135.89 94.3534 135.931 94.2344 136.014 94.1492L146.229 83.7805C146.323 83.6864 146.457 83.6474 146.587 83.6758C146.769 83.7113 151.083 84.6787 152.834 90.29C153.904 93.7214 151.328 102.391 147.995 104.557C147.933 104.6 147.86 104.623 147.784 104.623H147.786ZM136.918 94.3427C138.603 95.3741 144.698 99.299 147.88 103.68C150.786 101.369 153.046 93.5634 152.097 90.5172C150.678 85.9533 147.472 84.7284 146.631 84.4782L136.918 94.3409V94.3427Z" fill="#6F46BE"/>
<path d="M126.369 73.2663C126.424 73.4296 125.777 80.0474 125.318 84.7125C125.263 85.2575 125.21 85.7741 125.162 86.2693C124.973 88.2131 125.914 90.0948 127.583 91.1102C129.62 92.3439 132.561 93.8031 135.552 94.1724C138.663 94.5611 142.308 93.0398 144.845 91.6783C146.758 90.6558 147.813 88.5291 147.467 86.3865L145.251 72.597L126.369 73.2663Z" fill="#EDE3FF"/>
<path d="M136.58 94.6197C136.225 94.6197 135.871 94.6001 135.518 94.5575C132.407 94.1688 129.392 92.6546 127.393 91.4457C125.591 90.3504 124.576 88.3196 124.78 86.2196L124.932 84.6823C125.885 75.0911 125.986 73.5308 125.986 73.3213C125.974 73.2254 125.997 73.1278 126.052 73.0497C126.123 72.9485 126.236 72.8864 126.358 72.8828L145.251 72.2136C145.444 72.2118 145.609 72.3503 145.64 72.5402L147.857 86.3297C148.225 88.6374 147.091 90.9256 145.033 92.0297C142.752 93.251 139.537 94.6214 136.58 94.6214V94.6197ZM126.743 73.6444C126.691 74.5195 126.466 77.0598 125.704 84.7533L125.552 86.2906C125.377 88.0924 126.25 89.8356 127.797 90.7764C129.742 91.9445 132.655 93.4214 135.612 93.7871C138.635 94.1759 142.224 92.6581 144.675 91.3356C146.441 90.3895 147.414 88.4279 147.099 86.4486L144.932 72.9982L126.743 73.6444Z" fill="#6F46BE"/>
<path d="M148.947 44.1093C155.828 68.026 148.628 74.784 148.628 74.784C146.411 79.7651 133.956 86.3936 123.97 75.0326C114.681 64.4615 123.111 44.0649 123.111 44.0649C128.841 40.9246 137.235 41.766 148.947 44.1075V44.1093Z" fill="#EDE3FF"/>
<path d="M136.452 81.6823C132.781 81.6823 128.125 80.3474 123.678 75.2899C114.342 64.6603 122.402 44.7625 122.751 43.9175C122.785 43.8359 122.845 43.7684 122.923 43.7276C128.731 40.5412 137.214 41.3666 149.019 43.7276C149.163 43.756 149.28 43.8625 149.319 44.0045C155.931 67.007 149.684 74.2604 148.948 75.0112C147.754 77.603 143.81 80.7379 138.784 81.5048C138.011 81.6237 137.232 81.6823 136.45 81.6841L136.452 81.6823ZM123.421 44.3311C122.74 46.0619 115.618 64.9283 124.261 74.7645C129.484 80.706 134.976 81.2847 138.653 80.7219C143.449 79.9906 147.178 77.0296 148.256 74.6136C148.275 74.5657 148.307 74.5231 148.344 74.4893C148.41 74.4237 155.22 67.584 148.617 44.4323C137.205 42.1672 128.982 41.3666 123.419 44.3436V44.3311H123.421Z" fill="#6F46BE"/>
<path d="M122.379 46.3158C122.379 46.3158 116.812 61.2449 121.286 70.4669C122.017 69.3272 123.111 67.9106 123.111 67.9106C123.111 67.9106 119.734 61.6851 124.891 45.8116L122.379 46.3176V46.3158Z" fill="white"/>
<path d="M136.452 81.6823C132.781 81.6823 128.125 80.3474 123.678 75.2899C114.342 64.6603 122.402 44.7625 122.751 43.9175C122.785 43.8359 122.845 43.7684 122.923 43.7276C128.731 40.5412 137.214 41.3666 149.019 43.7276C149.163 43.756 149.28 43.8625 149.319 44.0045C155.931 67.007 149.684 74.2604 148.948 75.0112C147.754 77.603 143.81 80.7379 138.784 81.5048C138.011 81.6237 137.232 81.6823 136.45 81.6841L136.452 81.6823ZM123.421 44.3311C122.74 46.0619 115.618 64.9283 124.261 74.7645C129.484 80.706 134.976 81.2847 138.653 80.7219C143.449 79.9906 147.178 77.0296 148.256 74.6136C148.275 74.5657 148.307 74.5231 148.344 74.4893C148.41 74.4237 155.22 67.584 148.617 44.4323C137.205 42.1672 128.982 41.3666 123.419 44.3436V44.3311H123.421Z" fill="#6F46BE"/>
<path d="M118.614 47.8211C118.614 47.8211 131.948 40.9069 152.641 47.8211C154.033 44.0276 147.809 32.2104 148.502 30.8719C149.195 29.5334 152.866 25.9654 149.191 23.5139C145.516 21.0624 128.502 20.615 122.063 25.0707C115.625 29.5263 121.83 33.7672 121.142 36.4441C120.455 39.1211 118.384 45.5915 118.614 47.8211Z" fill="white"/>
<path d="M135.844 60.7585C135.844 60.7585 128.208 62.2833 121.02 69.9556C123.19 76.8379 127.707 81.4249 136.319 81.4249C144.932 81.4249 149.933 75.5154 151.532 69.4248C148.353 65.8958 140.029 61.5271 135.844 60.7567V60.7585Z" fill="white"/>
<path d="M136.319 81.8154C128.268 81.8154 123.144 77.9758 120.648 70.0727C120.604 69.936 120.639 69.7869 120.736 69.684C127.928 62.0082 135.451 60.4354 135.77 60.3697C135.818 60.3626 135.866 60.3626 135.913 60.3697C140.095 61.1472 148.559 65.5372 151.819 69.1585C151.907 69.2562 151.941 69.3929 151.907 69.5207C150.943 73.2201 147.492 81.8154 136.317 81.8154H136.319ZM121.461 70.0568C123.865 77.4485 128.727 81.0361 136.319 81.0361C146.751 81.0361 150.109 73.1526 151.101 69.5349C147.853 66.0644 139.882 61.9283 135.853 61.1543C135.075 61.3336 128.066 63.0964 121.461 70.0568Z" fill="#6F46BE"/>
<path d="M150.097 59.8159H147.942C147.728 59.8159 147.552 59.6419 147.552 59.4271C147.552 59.2123 147.726 59.0383 147.942 59.0383H149.887L151.771 55.6691C151.879 55.4827 152.116 55.417 152.304 55.5253C152.492 55.6336 152.556 55.8715 152.448 56.0579L150.456 59.6259C150.382 59.752 150.244 59.8247 150.098 59.8159H150.097Z" fill="#6F46BE"/>
<path d="M123.499 59.8159H121.27C121.132 59.8159 121.004 59.7413 120.935 59.6206L118.869 56.0525C118.761 55.8662 118.826 55.6265 119.012 55.52C119.199 55.4135 119.438 55.4774 119.546 55.6638L121.491 59.0366H123.495C123.709 59.0366 123.885 59.2106 123.885 59.4254C123.885 59.6402 123.711 59.8141 123.495 59.8141H123.499V59.8159Z" fill="#6F46BE"/>
<path d="M129.193 54.3981C131.077 54.3981 132.604 53.7392 132.604 52.9264C132.604 52.1137 131.077 51.4548 129.193 51.4548C127.309 51.4548 125.782 52.1137 125.782 52.9264C125.782 53.7392 127.309 54.3981 129.193 54.3981Z" fill="white"/>
<path d="M129.193 54.7851C127.026 54.7851 125.393 53.9827 125.393 52.9247C125.393 51.8667 127.026 51.0643 129.193 51.0643C131.36 51.0643 132.993 51.8419 132.993 52.9247C132.993 54.0076 131.36 54.7851 129.193 54.7851ZM129.193 51.8436C127.345 51.8436 126.17 52.4809 126.17 52.9247C126.17 53.3685 127.338 54.0058 129.193 54.0058C131.048 54.0058 132.216 53.3632 132.216 52.9247C132.216 52.4862 131.037 51.8436 129.193 51.8436Z" fill="#6F46BE"/>
<path d="M129.221 54.2845C130.048 54.2845 130.719 53.6256 130.719 52.8129C130.719 52.0001 130.048 51.3412 129.221 51.3412C128.395 51.3412 127.724 52.0001 127.724 52.8129C127.724 53.6256 128.395 54.2845 129.221 54.2845Z" fill="#6F46BE"/>
<path d="M141.314 54.3981C143.197 54.3981 144.724 53.7392 144.724 52.9264C144.724 52.1137 143.197 51.4548 141.314 51.4548C139.43 51.4548 137.903 52.1137 137.903 52.9264C137.903 53.7392 139.43 54.3981 141.314 54.3981Z" fill="white"/>
<path d="M141.314 54.7851C139.143 54.7851 137.51 53.9827 137.51 52.9247C137.51 51.8667 139.143 51.0643 141.314 51.0643C143.484 51.0643 145.114 51.8419 145.114 52.9247C145.114 54.0076 143.481 54.7851 141.314 54.7851ZM141.314 51.8436C139.466 51.8436 138.288 52.4809 138.288 52.9247C138.288 53.3685 139.455 54.0058 141.314 54.0058C143.172 54.0058 144.337 53.3632 144.337 52.9247C144.337 52.4862 143.142 51.8436 141.314 51.8436Z" fill="#6F46BE"/>
<path d="M141.342 54.2845C142.169 54.2845 142.839 53.6256 142.839 52.8129C142.839 52.0001 142.169 51.3412 141.342 51.3412C140.515 51.3412 139.845 52.0001 139.845 52.8129C139.845 53.6256 140.515 54.2845 141.342 54.2845Z" fill="#6F46BE"/>
<path d="M125.529 49.701C125.421 49.701 125.318 49.6548 125.246 49.5767C125.1 49.4205 125.109 49.1738 125.265 49.0282C127.271 47.3382 130.052 46.9086 132.473 47.9187C132.676 47.9879 132.785 48.2098 132.714 48.4122C132.645 48.6146 132.423 48.7229 132.219 48.6536C132.209 48.6501 132.198 48.6465 132.187 48.6412C130.047 47.743 127.584 48.1051 125.793 49.582C125.724 49.653 125.628 49.6957 125.529 49.6992V49.701Z" fill="#6F46BE"/>
<path d="M144.974 49.701C144.877 49.701 144.785 49.6619 144.714 49.5963C142.923 48.1158 140.46 47.7483 138.316 48.643C138.112 48.7122 137.891 48.6039 137.822 48.4016C137.756 48.2099 137.848 48.0022 138.032 47.9187C140.453 46.9087 143.234 47.3365 145.24 49.0282C145.398 49.1738 145.408 49.4187 145.263 49.5767C145.189 49.6566 145.084 49.7028 144.976 49.701H144.974Z" fill="#6F46BE"/>
<path d="M150.291 27.9109L148.502 30.8719L152.621 44.9649C152.621 44.9649 150.773 40.1045 148.17 38.5956C145.568 37.0867 143.993 36.4743 144.884 34.7044C145.775 32.9346 141.87 34.0192 142.967 31.6228C144.063 29.2263 150.291 27.9109 150.291 27.9109Z" fill="#6F46BE"/>
<path d="M119.757 31.5411C119.757 31.5411 120.99 33.3926 125.439 34.0778C129.888 34.763 127.423 36.8009 125.781 36.8009C124.138 36.8009 120.919 38.237 120.028 40.4311C121.397 36.8009 121.261 35.7038 121.261 35.7038L119.755 31.5411H119.757Z" fill="#6F46BE"/>
<path d="M134.375 54.5205C134.365 55.7419 133.996 56.9312 133.314 57.9448C133.413 58.4224 133.624 58.8679 133.929 59.2478L135.162 58.7295C135.162 58.7295 136.135 57.6981 135.439 54.4176C135.198 53.285 134.411 53.6276 134.377 54.5188L134.375 54.5205Z" fill="white"/>
<path d="M128.614 63.1283C131.452 63.1283 133.752 61.6024 133.752 59.72C133.752 57.8377 131.452 56.3117 128.614 56.3117C125.776 56.3117 123.476 57.8377 123.476 59.72C123.476 61.6024 125.776 63.1283 128.614 63.1283Z" fill="#EDE3FF"/>
<path d="M128.614 63.5171C125.568 63.5171 123.086 61.8165 123.086 59.72C123.086 57.6236 125.568 55.9265 128.614 55.9265C131.659 55.9265 134.142 57.6271 134.142 59.72C134.142 61.813 131.665 63.5171 128.614 63.5171ZM128.614 56.704C125.995 56.704 123.864 58.0585 123.864 59.72C123.864 61.3816 125.995 62.7396 128.614 62.7396C131.232 62.7396 133.364 61.3851 133.364 59.72C133.364 58.0549 131.236 56.704 128.614 56.704Z" fill="#6F46BE"/>
<path d="M142.804 63.1283C145.642 63.1283 147.942 61.6024 147.942 59.72C147.942 57.8377 145.642 56.3117 142.804 56.3117C139.966 56.3117 137.666 57.8377 137.666 59.72C137.666 61.6024 139.966 63.1283 142.804 63.1283Z" fill="#EDE3FF"/>
<path d="M142.804 63.5171C139.755 63.5171 137.276 61.8165 137.276 59.72C137.276 57.6236 139.753 55.9265 142.804 55.9265C145.855 55.9265 148.332 57.6271 148.332 59.72C148.332 61.813 145.865 63.5171 142.804 63.5171ZM142.804 56.704C140.185 56.704 138.054 58.0585 138.054 59.72C138.054 61.3816 140.185 62.7396 142.804 62.7396C145.422 62.7396 147.554 61.3851 147.554 59.72C147.554 58.0549 145.422 56.704 142.804 56.704Z" fill="#6F46BE"/>
<path d="M133.752 59.4626C133.752 59.4626 135.763 57.5525 137.666 59.5123L133.752 59.4626Z" fill="#EDE3FF"/>
<path d="M137.666 59.9028C137.561 59.9028 137.46 59.862 137.386 59.7857C135.782 58.1277 134.09 59.6809 134.021 59.7466C133.855 59.8833 133.61 59.8584 133.474 59.6916C133.351 59.5425 133.357 59.3241 133.488 59.1821C134.266 58.4277 136.231 57.4744 137.946 59.2442C138.096 59.3951 138.096 59.6419 137.946 59.7928C137.871 59.8655 137.77 59.9046 137.666 59.9011V59.9028Z" fill="#6F46BE"/>
<path d="M125.577 68.294C128.447 66.3431 131.831 65.2887 135.302 65.2585C141.238 65.1538 146.532 68.3703 146.532 68.3703C142.873 67.5751 139.14 67.1757 135.396 67.1792C132.093 67.1916 128.8 67.5644 125.579 68.2922L125.577 68.294Z" fill="#EDE3FF"/>
<path d="M145.293 74.99C142.901 77.0349 139.881 78.1994 136.736 78.29C131.5 78.4071 126.828 74.9172 126.828 74.9172C126.828 74.9172 131.621 76.932 136.736 76.8628C139.687 76.8468 142.604 76.2095 145.293 74.9917V74.99Z" fill="#EDE3FF"/>
<path d="M146.526 71.2355C146.526 71.2355 142.738 72.7923 136.801 72.9237C132.987 72.9503 129.191 72.3503 125.572 71.145C125.572 71.145 131.018 71.3278 136.801 71.2337C142.584 71.1396 146.526 71.2337 146.526 71.2337V71.2355Z" fill="#EDE3FF"/>
<path d="M129.638 80.1468C129.638 80.1468 137.308 86.8161 146.71 81.9948C146.574 80.7876 146.33 79.5947 145.979 78.4302C145.979 78.4302 137.946 83.5267 129.638 80.1468Z" fill="#6F46BE"/>
<path d="M152.641 48.2099C152.6 48.2152 152.557 48.2152 152.517 48.2099C132.239 41.4323 118.924 48.1158 118.793 48.1868C118.679 48.2471 118.545 48.2471 118.431 48.1868C118.318 48.1247 118.242 48.011 118.229 47.8832C118.038 46.0655 119.264 41.7359 120.175 38.5761C120.419 37.7045 120.634 36.9536 120.781 36.3731C120.972 35.6417 120.504 34.6885 119.968 33.5825C118.8 31.2162 117.244 27.9801 121.858 24.7777C128.538 20.1481 145.78 20.7854 149.425 23.2209C150.304 23.7339 150.929 24.5878 151.156 25.5783C151.478 27.3091 150.245 29.0807 149.429 30.2204C149.223 30.4955 149.035 30.7831 148.865 31.0796C148.693 31.5198 149.643 34.0672 150.401 36.1139C151.957 40.3193 153.902 45.5525 153.023 47.9809C152.956 48.1282 152.804 48.2187 152.643 48.2063L152.641 48.2099ZM134.689 44.3808C140.703 44.4181 146.673 45.4104 152.377 47.3223C152.855 44.9879 151.016 40.0228 149.654 36.3536C148.404 32.9914 147.822 31.3458 148.156 30.6926C148.344 30.3642 148.551 30.0482 148.775 29.7429C149.517 28.692 150.639 27.1014 150.373 25.6919C150.185 24.9056 149.68 24.2328 148.977 23.8369C145.55 21.5523 128.61 21.0126 122.285 25.3937C118.212 28.2145 119.507 30.8754 120.651 33.2222C121.231 34.4133 121.78 35.5565 121.52 36.5453C121.367 37.1329 121.155 37.8909 120.905 38.7678C120.157 41.4057 119.069 45.2702 118.988 47.2229C120.703 46.4791 126.296 44.3826 134.691 44.3826L134.689 44.3808Z" fill="#6F46BE"/>
<path d="M106.646 71.1307C106.431 71.1307 106.256 70.9568 106.256 70.742C106.341 64.9727 112.113 63.0413 112.172 63.0218C112.377 62.9543 112.597 63.068 112.664 63.2721C112.732 63.478 112.618 63.6981 112.413 63.7638C112.195 63.8331 107.106 65.5461 107.034 70.7668C107.019 70.971 106.849 71.129 106.644 71.129L106.646 71.1307Z" fill="#EDE3FF"/>
<path d="M33.3067 88.0356C33.3067 88.0356 29.0473 110.307 43.4554 121.29C53.3596 128.834 58.7581 118.675 51.4726 116.126C43.2924 113.25 37.38 105.407 33.3067 88.0338V88.0356Z" fill="#6F46BE"/>
<path d="M129.744 122.357C131.374 121.979 132.432 120.531 132.107 119.122C131.781 117.713 130.196 116.877 128.566 117.255C126.935 117.633 125.878 119.082 126.203 120.491C126.529 121.9 128.114 122.735 129.744 122.357Z" fill="#EDE3FF"/>
<path d="M128.956 122.848C128.383 122.855 127.818 122.722 127.31 122.46C125.937 121.79 125.366 120.134 126.036 118.76C126.119 118.59 126.218 118.43 126.333 118.281C126.856 117.578 127.614 117.086 128.468 116.896C130.304 116.465 132.102 117.429 132.483 119.044C132.664 119.859 132.48 120.713 131.978 121.378C131.452 122.08 130.694 122.571 129.84 122.763C129.549 122.823 129.253 122.854 128.957 122.848H128.956ZM129.345 117.56C129.108 117.56 128.872 117.588 128.642 117.642C127.969 117.791 127.372 118.176 126.957 118.728C126.275 119.589 126.418 120.839 127.28 121.522C127.4 121.618 127.531 121.698 127.669 121.764C128.943 122.387 130.479 122.028 131.346 120.904C131.718 120.427 131.86 119.809 131.736 119.216C131.495 118.208 130.499 117.551 129.351 117.551L129.347 117.564L129.345 117.56Z" fill="#6F46BE"/>
<path d="M128.595 154.616C130.226 154.238 131.283 152.789 130.958 151.381C130.633 149.972 129.047 149.136 127.417 149.514C125.787 149.892 124.729 151.341 125.055 152.749C125.38 154.158 126.965 154.994 128.595 154.616Z" fill="#EDE3FF"/>
<path d="M127.816 155.094C126.319 155.094 125.001 154.196 124.682 152.841C124.494 152.027 124.682 151.171 125.187 150.507C125.708 149.802 126.466 149.311 127.322 149.122C129.158 148.691 130.96 149.655 131.337 151.27C131.523 152.085 131.337 152.941 130.832 153.605C130.309 154.308 129.551 154.799 128.697 154.989C128.408 155.057 128.114 155.092 127.818 155.094H127.816ZM128.206 149.806C127.969 149.806 127.733 149.834 127.503 149.888C126.83 150.035 126.233 150.42 125.818 150.974C125.444 151.451 125.302 152.069 125.428 152.662C125.708 153.86 127.088 154.565 128.506 154.219C129.179 154.072 129.776 153.686 130.191 153.133C130.564 152.655 130.706 152.037 130.58 151.444C130.347 150.472 129.351 149.806 128.208 149.806H128.206Z" fill="#6F46BE"/>
<path d="M128.93 192.441C130.56 192.063 131.618 190.615 131.292 189.206C130.967 187.797 129.381 186.961 127.751 187.339C126.121 187.717 125.063 189.166 125.389 190.575C125.714 191.984 127.299 192.819 128.93 192.441Z" fill="#EDE3FF"/>
<path d="M128.135 192.921C127.565 192.926 127.001 192.793 126.495 192.532C125.751 192.163 125.207 191.483 125.008 190.677C124.618 189.062 125.818 187.397 127.65 186.969C129.482 186.541 131.287 187.501 131.665 189.117C131.851 189.932 131.665 190.787 131.16 191.451C130.637 192.154 129.879 192.646 129.025 192.836C128.732 192.896 128.437 192.926 128.137 192.921H128.135ZM128.525 187.633C128.288 187.633 128.052 187.661 127.822 187.714C126.406 188.048 125.488 189.271 125.759 190.489C125.906 191.077 126.305 191.568 126.849 191.835C128.121 192.458 129.657 192.099 130.52 190.975C130.894 190.498 131.036 189.88 130.91 189.287C130.672 188.291 129.677 187.633 128.534 187.633H128.527H128.525Z" fill="#6F46BE"/>
<path d="M173.518 136.24C173.464 136.24 173.411 136.228 173.362 136.205C165.846 132.846 150.135 134.177 149.98 134.193C149.765 134.213 149.576 134.055 149.556 133.842C149.556 133.837 149.556 133.833 149.556 133.828L149.257 128.999C149.242 128.793 149.393 128.61 149.599 128.587C150.21 128.518 164.641 126.871 173.58 130.357C173.721 130.414 173.817 130.547 173.824 130.7C173.824 130.726 173.987 133.664 173.906 135.867C173.906 136.082 173.732 136.256 173.516 136.256V136.24H173.518ZM157.378 133.128C162.38 133.128 168.81 133.517 173.144 135.273C173.179 133.588 173.092 131.669 173.062 130.993C165.064 127.986 152.368 129.086 150.058 129.321L150.307 133.382C151.31 133.308 154.033 133.13 157.378 133.13V133.128Z" fill="#6F46BE"/>
</g>
<mask id="mask2_47_5524" style="mask-type:luminance" maskUnits="userSpaceOnUse" x="196" y="39" width="43" height="42">
<path d="M238.055 39.1406H196.418V80.8568H238.055V39.1406Z" fill="white"/>
</mask>
<g mask="url(#mask2_47_5524)">
<path d="M217.237 80.4539C228.512 80.4539 237.653 71.2958 237.653 59.9987C237.653 48.7016 228.512 39.5435 217.237 39.5435C205.961 39.5435 196.82 48.7016 196.82 59.9987C196.82 71.2958 205.961 80.4539 217.237 80.4539Z" fill="white" stroke="#6F46BE" stroke-width="0.881064" stroke-miterlimit="15.11"/>
</g>
<mask id="mask3_47_5524" style="mask-type:luminance" maskUnits="userSpaceOnUse" x="202" y="44" width="31" height="31">
<path d="M232.031 44.4661H202.089V74.4663H232.031V44.4661Z" fill="white"/>
</mask>
<g mask="url(#mask3_47_5524)">
<path d="M231.73 53.8957H222.62V44.7678H211.5V53.8957H202.39V65.0366H211.5V74.1627H222.62V65.0366H231.73V53.8957Z" fill="#EDE3FF" stroke="#6F46BE" stroke-width="0.661284" stroke-miterlimit="11.34"/>
</g>
<mask id="mask4_47_5524" style="mask-type:luminance" maskUnits="userSpaceOnUse" x="33" y="15" width="28" height="28">
<path d="M60.4822 15.1936H33.5725V42.1548H60.4822V15.1936Z" fill="white"/>
</mask>
<g mask="url(#mask4_47_5524)">
<path d="M47.027 41.8956C54.315 41.8956 60.2231 35.9761 60.2231 28.6742C60.2231 21.3722 54.315 15.4528 47.027 15.4528C39.7389 15.4528 33.8308 21.3722 33.8308 28.6742C33.8308 35.9761 39.7389 41.8956 47.027 41.8956Z" fill="white" stroke="#6F46BE" stroke-width="0.881064" stroke-miterlimit="15.11"/>
</g>
<mask id="mask5_47_5524" style="mask-type:luminance" maskUnits="userSpaceOnUse" x="37" y="18" width="20" height="21">
<path d="M56.587 18.6356H37.2357V38.0239H56.587V18.6356Z" fill="white"/>
</mask>
<g mask="url(#mask5_47_5524)">
<path d="M56.3938 24.7297H50.5062V18.8309H43.3181V24.7297H37.4305V31.9316H43.3181V37.8304H50.5062V31.9316H56.3938V24.7297Z" fill="#EDE3FF" stroke="#6F46BE" stroke-width="0.661284" stroke-miterlimit="11.34"/>
</g>
<circle cx="141" cy="184" r="40" fill="#6F46BE"/>
<path d="M136.81 186.519H130.444V178.963H136.81V172.667H144.449V178.963H150.815V186.519H144.449V192.815H136.81V186.519ZM140.63 158.815L120.259 166.37V181.708C120.259 194.427 128.942 206.289 140.63 209.185C152.317 206.289 161 194.427 161 181.708V166.37L140.63 158.815Z" fill="#EDE3FF"/>
</g>
<defs>
<clipPath id="clip0_47_5524">
<rect width="275" height="240" fill="white"/>
</clipPath>
</defs>
</svg>
