<svg width="205" height="153" viewBox="0 0 205 153" fill="none" xmlns="http://www.w3.org/2000/svg">
<path d="M42.0701 47.2035C42.0701 58.6 32.8242 67.846 21.4276 67.846C10.0311 67.846 0.785156 58.6 0.785156 47.2035C0.785156 35.807 10.0311 26.561 21.4276 26.561C32.8242 26.561 42.0701 35.807 42.0701 47.2035Z" fill="#F4679D"/>
<path d="M21.4274 68.6311C9.60699 68.6311 0 59.0241 0 47.2037C0 35.3834 9.60699 25.7764 21.4274 25.7764C33.2477 25.7764 42.8547 35.3834 42.8547 47.2037C42.8547 59.0241 33.2477 68.6311 21.4274 68.6311ZM21.4274 27.3461C10.4704 27.3461 1.56977 36.2624 1.56977 47.2037C1.56977 58.145 10.4861 67.0613 21.4274 67.0613C32.3687 67.0613 41.285 58.145 41.285 47.2037C41.285 36.2624 32.3844 27.3461 21.4274 27.3461Z" fill="#553597"/>
<path d="M19.2147 43.703C19.2147 45.0844 18.1001 46.2147 16.703 46.2147C15.3059 46.2147 14.1914 45.1001 14.1914 43.703C14.1914 42.3059 15.3216 41.1914 16.703 41.1914C18.0844 41.1914 19.2147 42.3059 19.2147 43.703Z" fill="#553597"/>
<path d="M26.1523 46.2147C27.5394 46.2147 28.6639 45.0902 28.6639 43.703C28.6639 42.3159 27.5394 41.1914 26.1523 41.1914C24.7651 41.1914 23.6406 42.3159 23.6406 43.703C23.6406 45.0902 24.7651 46.2147 26.1523 46.2147Z" fill="#553597"/>
<path d="M26.1528 55.9792C25.9644 55.9792 25.7917 55.9164 25.6347 55.7908C22.7621 53.2949 20.0935 53.2949 17.2208 55.7908C16.8911 56.0733 16.4045 56.0419 16.1062 55.7123C15.8237 55.3826 15.8551 54.896 16.1847 54.5978C19.6068 51.6152 23.233 51.6152 26.6551 54.5978C26.9848 54.8803 27.0161 55.3826 26.7336 55.7123C26.5766 55.885 26.3568 55.9792 26.1371 55.9792H26.1528Z" fill="#553597"/>
<path d="M61.8801 119.406C60.7341 114.399 47.7835 98.9364 49.0864 86.3469C49.9341 78.2625 47.7364 75.2329 46.0568 70.7433C45.2091 68.4672 46.5277 64.0718 44.5184 63.648C41.8655 63.0986 40.7039 69.3306 41.3161 73.8829C41.3161 73.8829 36.9835 72.9567 33.53 73.4747C33.53 73.4747 30.0137 72.0306 23.2009 72.1875C23.2009 72.1875 15.9643 69.5817 14.6771 71.3085C13.3741 73.0352 17.0003 73.8829 17.0003 73.8829C17.0003 73.8829 14.7712 73.9457 15.1794 75.3742C15.5247 76.5672 17.848 78.0271 20.9247 78.6707C20.9247 78.6707 18.7114 79.9422 21.7096 81.4649C23.248 82.2498 34.1265 85.8602 35.6335 86.3312C37.5172 86.912 36.9678 88.8742 37.1091 91.3701C40.2643 148.086 53.9841 144.978 61.7231 143.063C68.7085 141.336 81.3452 123.236 83.433 121.667L68.7243 108.496L61.8801 119.375V119.406Z" fill="white"/>
<path d="M62.0055 118.527C61.409 116.926 60.0904 114.65 58.4893 111.903C54.3137 104.745 48.584 94.9336 49.4788 86.3784C50.1852 79.6598 48.8195 76.379 47.3596 72.9255C47.0456 72.172 46.7317 71.4185 46.4334 70.6179C46.1195 69.7859 46.1195 68.5929 46.1195 67.4313C46.1195 65.5475 46.1195 63.601 44.6125 63.2871C43.8747 63.1458 43.1997 63.397 42.6189 64.0563C41.0805 65.8144 40.5625 70.0842 40.9078 73.4278C39.9974 73.2708 37.9881 72.9569 35.8689 72.9569C35.0526 72.9569 34.2834 73.004 33.6084 73.0981C32.9962 72.8627 29.527 71.6853 23.295 71.8266C22.7456 71.6383 19.0409 70.3667 16.5764 70.3667C15.4932 70.3667 14.7869 70.6022 14.4101 71.1045C13.9706 71.6853 14.0177 72.172 14.1275 72.4859C14.3473 73.0981 15.038 73.5377 15.6659 73.8202C15.4148 73.9458 15.1793 74.1028 15.0066 74.3383C14.8496 74.558 14.677 74.9505 14.8496 75.4999C15.2264 76.8028 17.4084 78.1842 20.1712 78.8906C19.9671 79.1418 19.7944 79.4714 19.7944 79.8639C19.7944 80.5702 20.4066 81.2296 21.5683 81.8261C23.1851 82.658 34.2049 86.2999 35.5549 86.7237C36.7165 87.0848 36.7636 87.9953 36.7479 89.8476C36.7479 90.3499 36.7479 90.8679 36.7793 91.4331C39.4165 138.793 49.3532 144.272 56.5898 144.272C58.552 144.272 60.373 143.816 61.8329 143.455C67.0131 142.168 75.0974 132.247 79.9323 126.329C81.7219 124.131 83.1347 122.405 83.6684 121.996L84.0294 121.73L68.6614 107.978L62.0055 118.559V118.527ZM82.8992 121.683C82.1928 122.373 80.9684 123.88 79.3672 125.842C74.5951 131.698 66.605 141.509 61.6602 142.717C60.2317 143.078 58.4579 143.502 56.5898 143.502C45.6956 143.502 39.4636 126.439 37.5171 91.3546C37.4857 90.8052 37.4857 90.2871 37.4857 89.8162C37.4857 88.0424 37.4857 86.5197 35.7747 85.986C34.095 85.4679 23.4049 81.9046 21.9136 81.1354C21.0345 80.6801 20.5479 80.2249 20.5322 79.8168C20.5322 79.3615 21.1287 78.9848 21.1287 78.9848L21.9607 78.4981L21.0188 78.3098C17.9578 77.6662 15.8386 76.2534 15.556 75.2644C15.4775 74.9819 15.556 74.8249 15.6031 74.7464C15.8857 74.354 16.7491 74.2441 17.0316 74.2441L19.8258 74.1499L17.0944 73.5063C16.3252 73.3336 15.038 72.8156 14.8182 72.2034C14.7869 72.1249 14.7084 71.8894 14.9909 71.5127C15.2107 71.2144 15.7601 71.0731 16.5764 71.0731C19.0566 71.0731 23.0752 72.5016 23.1066 72.5173L23.1694 72.5487H23.2322C29.8723 72.3917 33.3886 73.7888 33.42 73.8045L33.5142 73.8359H33.6084C34.2834 73.7261 35.0369 73.679 35.8689 73.679C38.6003 73.679 41.2375 74.2284 41.2532 74.2441L41.7555 74.354L41.6927 73.8359C41.2061 70.2098 41.8654 66.0342 43.1683 64.5429C43.5607 64.0877 43.9846 63.915 44.4555 64.0092C45.3817 64.1975 45.3817 65.7673 45.366 67.4313C45.366 68.6557 45.366 69.9115 45.727 70.8691C46.0253 71.6854 46.3549 72.4545 46.6689 73.208C48.0817 76.583 49.416 79.7697 48.7253 86.2999C47.8148 95.0906 53.6073 105.012 57.8456 112.264C59.7137 115.451 61.1736 117.978 61.5346 119.485L61.7387 120.348L68.834 109.077L82.9149 121.683H82.8992Z" fill="#553597"/>
<path d="M27.2037 79.4401C23.4206 76.8971 20.8618 78.2942 20.752 78.357L21.113 79.0006C21.2072 78.9535 23.452 77.7605 26.8898 80.1151L26.9839 80.1779H27.1095C27.1095 80.1779 29.6525 80.0837 31.8345 80.9471L32.1014 80.2721C30.0293 79.4558 27.7531 79.4401 27.2037 79.4558V79.4401Z" fill="#553597"/>
<path d="M23.0595 74.6207C19.5589 73.1765 17.0473 73.5062 16.9531 73.5219L17.063 74.244C17.063 74.244 19.5275 73.93 22.8712 75.3271L22.9496 75.3585H23.0438C23.0438 75.3585 26.4031 75.1073 30.4845 77.2108L30.8142 76.5515C26.8741 74.5265 23.656 74.5736 23.0752 74.605L23.0595 74.6207Z" fill="#553597"/>
<path d="M23.2012 72.5488C23.2012 72.5488 27.8948 72.9099 32.6198 74.9977L32.918 74.3227C28.0675 72.1721 23.4523 71.8267 23.2483 71.811L23.2012 72.5488Z" fill="#553597"/>
<path d="M179.99 48.8135C173.57 46.8042 168.468 48.2484 168.468 48.2484C165.266 47.2124 162.487 47.5734 162.487 47.5734C164.952 42.6443 163.947 35.2507 161.059 37.3228C159.457 38.4687 159.646 41.7967 158.468 43.8374C156.161 47.856 152.974 52.6752 152.284 58.3577C150.557 72.6269 151.279 82.7991 150.557 99.8468L137.386 98.9206L134.074 122.656C136.696 122.718 158.013 122.232 164.449 118.998C179.456 111.494 163.711 77.352 163.711 64.9037C163.711 62.4862 163.225 60.4455 165.909 60.3356C167.432 60.2729 178.342 58.4048 179.927 57.8868C183.035 56.8979 181.12 55.3438 181.12 55.3438C184.15 55.2182 186.583 54.1978 187.117 53.1147C187.745 51.8118 185.625 51.4037 185.625 51.4037C185.625 51.4037 189.205 51.1682 188.231 49.3159C187.274 47.4635 179.974 48.7978 179.974 48.7978L179.99 48.8135Z" fill="white"/>
<path d="M184.825 47.9814C182.753 47.9814 180.492 48.3582 180.021 48.4367C177.745 47.7303 175.391 47.3849 173.02 47.3849C170.65 47.3849 168.907 47.7617 168.468 47.8715C166.176 47.1494 164.104 47.118 163.084 47.1651C164.59 43.6959 164.543 39.332 163.445 37.5424C162.974 36.7733 162.393 36.6006 162 36.6006C161.608 36.6006 161.231 36.7419 160.839 37.0244C159.787 37.7779 159.457 39.2378 159.096 40.7762C158.861 41.7965 158.61 42.8483 158.154 43.6489C157.888 44.1355 157.589 44.6221 157.291 45.1244C155.062 48.9233 152.535 53.2245 151.922 58.3105C150.808 67.478 150.698 74.9501 150.588 83.6152C150.525 88.4658 150.447 93.4891 150.211 99.4385L137.072 98.528L133.666 123.001H134.074C134.215 123.001 134.388 123.001 134.624 123.001C139.396 123.001 158.5 122.373 164.638 119.312C175.406 113.927 170.791 95.4356 167.086 80.5698C165.485 74.1338 164.104 68.5925 164.104 64.8878C164.104 64.5425 164.104 64.2128 164.088 63.8989C164.025 61.7326 164.088 60.7593 165.956 60.6809C167.416 60.6181 178.389 58.7657 180.068 58.2163C181.277 57.8396 181.952 57.2902 182.078 56.6152C182.141 56.2384 182.031 55.9088 181.889 55.6419C184.621 55.3907 186.913 54.4332 187.478 53.2401C187.713 52.7378 187.619 52.3454 187.509 52.0942C187.384 51.8587 187.195 51.6704 186.975 51.5134C187.619 51.3407 188.325 51.0268 188.639 50.4774C188.796 50.1948 188.922 49.7239 188.592 49.1117C188.184 48.3268 186.96 47.9343 184.841 47.9343L184.825 47.9814ZM187.996 50.1791C187.682 50.7285 186.379 50.9954 185.625 51.0582L182.831 51.2465L185.578 51.796C185.845 51.8431 186.646 52.0942 186.85 52.5024C186.897 52.5965 186.944 52.7378 186.818 52.989C186.395 53.8838 184.15 54.8884 181.152 55.014L180.178 55.0611L180.932 55.6733C180.932 55.6733 181.45 56.1128 181.371 56.5524C181.293 56.9291 180.759 57.3059 179.864 57.5884C178.2 58.1221 167.369 59.9588 165.94 60.0059C163.256 60.1157 163.303 61.9838 163.366 63.9774C163.366 64.2913 163.382 64.621 163.382 64.9506C163.382 68.7338 164.779 74.3222 166.396 80.8053C170.038 95.4199 174.574 113.598 164.324 118.715C158.374 121.682 139.097 122.326 134.639 122.326H134.529L137.732 99.3443L150.933 100.27V99.8937C151.2 93.7716 151.279 88.6385 151.342 83.6623C151.467 75.0129 151.561 67.5565 152.676 58.4361C153.272 53.507 155.753 49.2686 157.95 45.5326C158.249 45.0303 158.531 44.5279 158.814 44.057C159.332 43.1622 159.583 42.0477 159.834 40.9802C160.164 39.5832 160.478 38.2488 161.294 37.668C161.938 37.2128 162.424 37.2913 162.848 37.9663C163.9 39.6616 163.837 44.1669 162.189 47.4477L161.875 48.0599L162.55 47.9814C162.55 47.9814 165.313 47.6675 168.374 48.6407L168.484 48.6721L168.593 48.6407C168.593 48.6407 170.367 48.1541 173.052 48.1541C175.375 48.1541 177.682 48.5151 179.911 49.2058L180.006 49.2372H180.1C180.1 49.2372 182.643 48.7663 184.872 48.7663C187.211 48.7663 187.823 49.2529 187.964 49.5512C188.153 49.9122 188.09 50.1006 188.027 50.2262L187.996 50.1791Z" fill="#553597"/>
<path d="M175.156 55.061C174.685 54.8255 173.225 54.3389 169.756 54.8098L169.85 55.5319C173.743 54.9982 174.889 55.7517 174.889 55.7517L175.046 55.8616L175.234 55.7988C179.598 54.4174 180.886 55.5947 180.901 55.6104L181.168 55.3435L181.435 55.0924C181.278 54.9354 179.849 53.6168 175.172 55.061H175.156Z" fill="#553597"/>
<path d="M179.786 51.1524C179.629 51.1524 175.767 50.9012 172.109 51.7646L172.282 52.471C175.83 51.639 179.691 51.8744 179.817 51.8744C182.831 51.4035 185.562 51.7646 185.594 51.7646L185.688 51.0425C185.578 51.0268 182.815 50.6657 179.77 51.1524H179.786Z" fill="#553597"/>
<path d="M170.43 49.3155L170.618 50.0219C175.437 48.7818 179.927 49.1742 179.974 49.1742L180.037 48.4364C179.848 48.4207 175.39 48.0283 170.43 49.2998V49.3155Z" fill="#553597"/>
<path d="M63.0742 116.44C63.0742 116.44 69.1492 133.644 82.8847 134.617C82.8847 134.617 80.4359 101.338 80.1062 94.4941C80.1062 94.4941 71.4882 96.2052 63.0742 116.44Z" fill="#6F46BE"/>
<path d="M80.3258 94.1958C80.2473 94.133 80.1374 94.1016 80.0276 94.1173C79.6665 94.1958 71.127 96.0952 62.713 116.282C62.6816 116.361 62.6816 116.455 62.713 116.549C62.7758 116.722 69.0235 134.005 82.8532 134.963H82.8689C82.9787 134.963 83.0729 134.931 83.1357 134.853C83.2142 134.774 83.2456 134.68 83.2456 134.57C83.2142 134.241 80.7968 101.213 80.4671 94.4626C80.4671 94.3527 80.4043 94.2586 80.3258 94.1958ZM63.4665 116.439C70.6403 99.2975 77.9712 95.64 79.7764 94.9807C80.1531 102.186 82.2252 130.379 82.4921 134.209C70.0595 133.016 64.063 118.009 63.4665 116.439Z" fill="#553597"/>
<path d="M105.536 88.3721C93.0718 88.3721 79.0067 94.4942 79.0067 94.4942C79.0067 94.4942 69.2584 117.617 72.8846 126.91C74.9724 132.247 76.9817 143.659 78.316 152.403H136.649C134.592 148.07 132.85 144.115 132.85 142.058C132.85 137.066 134.702 131.713 135.66 125.686L147.088 126.8C149.458 113.944 147.323 97.7436 147.323 97.7436C147.323 97.7436 118 88.3721 105.536 88.3721Z" fill="#6F46BE"/>
<path d="M147.432 97.3823C147.133 97.2882 117.92 87.9951 105.535 87.9951C93.1491 87.9951 79.0055 94.0858 78.8642 94.1486C78.77 94.18 78.7072 94.2585 78.6758 94.337C78.2834 95.2945 68.9119 117.711 72.5537 127.035C74.6258 132.357 76.6351 143.785 77.9537 152.45C77.9851 152.623 78.1421 152.764 78.3148 152.764H136.647C136.773 152.764 136.899 152.701 136.961 152.591C137.024 152.481 137.04 152.356 136.977 152.246C135.156 148.4 133.225 144.13 133.225 142.058C133.225 138.966 133.947 135.7 134.732 132.231C135.172 130.253 135.627 128.213 135.972 126.093L147.071 127.177C147.243 127.177 147.432 127.067 147.463 126.878C149.818 114.116 147.714 97.869 147.699 97.712C147.683 97.5707 147.589 97.4451 147.447 97.4137L147.432 97.3823ZM146.788 126.392L135.69 125.309C135.486 125.293 135.313 125.418 135.297 125.623C134.952 127.852 134.465 129.986 134.01 132.059C133.225 135.559 132.488 138.871 132.488 142.042C132.488 143.973 133.916 147.427 136.067 152.01H78.6287C77.3101 143.361 75.3008 132.074 73.2287 126.753C69.838 118.072 78.5032 96.6759 79.288 94.7451C80.7636 94.1172 93.9183 88.7172 105.535 88.7172C117.151 88.7172 144.245 97.1312 146.992 97.9946C147.243 100.004 148.876 114.603 146.804 126.376L146.788 126.392Z" fill="#553597"/>
<path d="M128.485 88.8898C119.035 84.73 116.492 68.9224 116.492 68.9224L112.254 71.4026C112.254 71.4026 111.39 89.2666 114.703 89.2666C123.054 89.2666 121.971 110.05 126.444 110.05C130.918 110.05 130.824 104.148 130.824 104.148C135.8 104.148 137.935 93.0654 128.485 88.9055V88.8898Z" fill="#553597"/>
<path d="M128.626 88.5605C119.459 84.5262 116.884 69.0169 116.853 68.8599L116.774 68.3262L111.908 71.1675V71.3715C111.861 71.9837 111.202 86.5355 113.698 89.1413C113.996 89.4553 114.341 89.6123 114.718 89.6123C119.239 89.6123 120.856 96.2524 122.269 102.108C123.383 106.738 124.278 110.38 126.46 110.38C127.669 110.38 128.689 109.972 129.474 109.172C130.918 107.712 131.153 105.357 131.201 104.462C133.147 104.274 134.717 102.547 135.266 99.9727C136.082 96.0954 134.356 91.0564 128.657 88.5291L128.626 88.5605ZM134.528 99.8472C134.026 102.233 132.566 103.772 130.824 103.772H130.447V104.148C130.447 104.148 130.478 107.115 128.94 108.685C128.296 109.329 127.464 109.658 126.46 109.658C124.859 109.658 123.948 105.906 122.991 101.935C121.578 96.1111 119.835 88.8745 114.718 88.8745C114.545 88.8745 114.388 88.796 114.231 88.6233C112.363 86.6768 112.442 75.8611 112.63 71.5913L116.241 69.4878C116.774 72.3291 119.694 85.3896 128.344 89.2198C133.665 91.5745 135.298 96.2367 134.528 99.8315V99.8472Z" fill="#553597"/>
<path d="M115.815 48.154C111.954 40.9958 94.9532 42.2831 91.2172 47.8557C87.4654 53.4284 93.0695 63.6319 93.0695 63.6319C90.0869 64.9819 89.412 67.5721 90.7306 70.5546C92.7556 75.2011 97.2137 74.3849 97.2137 74.3849C97.2137 84.8395 95.5184 89.8314 95.5184 89.8314C95.5184 89.8314 94.1056 97.1465 103.995 97.1465C110.29 97.1465 114.057 88.968 114.057 88.968C113.853 81.6372 112.786 77.7285 112.786 77.7285C123.335 75.311 123.209 60.3197 118.861 55.9401C116.867 53.9464 117.15 50.6185 115.815 48.1383V48.154Z" fill="white"/>
<path d="M117.277 51.4191C116.994 50.2575 116.712 49.0487 116.147 47.9813C114.42 44.7633 109.915 42.8481 104.075 42.8481C98.2354 42.8481 92.804 44.8261 90.9046 47.6359C87.4197 52.8162 91.611 61.5912 92.5686 63.4592C89.7901 64.8877 88.9895 67.5092 90.3866 70.6959C92.0035 74.4005 95.143 74.793 96.4145 74.793C96.5715 74.793 96.7128 74.793 96.8383 74.793C96.7913 84.7767 95.1744 89.6744 95.143 89.7686C95.1273 89.8785 94.625 92.6099 96.4459 94.8232C97.9215 96.6128 100.465 97.5232 103.981 97.5232C110.448 97.5232 114.231 89.4703 114.388 89.1407L114.42 89.0622V88.9837C114.247 82.8616 113.494 79.1569 113.227 78.0267C117.183 76.9906 120.055 74.0238 121.327 69.6441C122.802 64.5581 121.829 58.436 119.113 55.7046C118.015 54.6057 117.654 53.0516 117.261 51.4191H117.277ZM120.636 69.4401C119.412 73.6784 116.602 76.504 112.724 77.3988L112.348 77.4773L112.442 77.8383C112.442 77.8383 113.478 81.7627 113.698 88.9052C113.305 89.7215 109.679 96.8011 103.996 96.8011C100.716 96.8011 98.361 95.9849 97.0267 94.368C95.4256 92.4372 95.8651 89.957 95.8651 89.957C95.9279 89.7529 97.5761 84.7767 97.5761 74.3848V73.9453L97.1366 74.0238C97.1366 74.0238 96.854 74.0709 96.4145 74.0709C95.0174 74.0709 92.443 73.5999 91.0616 70.4133C89.7744 67.4621 90.5436 65.1703 93.2122 63.9616L93.5732 63.8046L93.3849 63.4592C93.3221 63.365 87.9221 53.397 91.5011 48.0598C93.275 45.4226 98.4395 43.5859 104.059 43.5859C109.679 43.5859 113.886 45.3598 115.487 48.3266C116.021 49.2999 116.288 50.4615 116.555 51.5918C116.947 53.2557 117.355 54.9668 118.595 56.2226C121.091 58.7342 122.002 64.6679 120.62 69.4401H120.636Z" fill="#553597"/>
<path d="M106.65 76.5195L106.32 77.1788C108 78.0422 109.617 78.2934 110.967 78.2934C113.039 78.2934 114.483 77.6812 114.577 77.6341L114.279 76.9591C114.279 76.9591 110.574 78.5288 106.65 76.5195Z" fill="#553597"/>
<path d="M93.3216 89.4395C92.8978 89.4395 92.5211 89.5807 92.1914 89.8319C93.1333 89.5807 93.6042 89.4395 93.3216 89.4395Z" fill="#553597"/>
<path d="M95.2847 37.4173C82.0044 41.4516 82.5538 50.8075 82.5538 50.8075C73.9358 54.7005 77.5463 65.2651 78.2527 72.4546C79.0846 81.0255 77.2166 84.3849 66.8247 87.854C56.4328 91.3232 61.409 96.8488 61.409 96.8488C56.2131 104.007 65.8829 110.066 65.8829 110.066C65.8829 110.066 71.3143 100.224 76.9183 95.8599C80.7329 92.8773 89.0684 90.6953 92.1765 89.832C92.5062 89.5808 92.8829 89.4395 93.3068 89.4395C93.5893 89.4395 93.1184 89.5808 92.1765 89.832C88.1422 92.8773 91.219 112.986 98.1102 112.986C103.495 112.986 103.997 107.398 103.997 107.398C103.997 107.398 112.285 104.101 104.876 95.7657C95.63 85.3738 100.308 72.9883 97.1998 74.4011C95.7713 75.0447 93.8876 74.1029 91.7998 72.2662C88.566 69.4249 89.7748 63.5854 93.7306 63.5854C102.207 63.5854 94.1544 48.704 94.1544 48.704C107.654 41.8755 114.389 52.6598 120.417 51.7807C120.417 38.5947 107.309 33.7755 95.2847 37.4173Z" fill="#553597"/>
<path d="M103.086 35.8628C100.465 35.8628 97.796 36.2709 95.1902 37.0558C83.0088 40.7448 82.2396 49.0018 82.2082 50.5558C75.0814 53.9465 76.3372 61.9681 77.3576 68.4355C77.5774 69.864 77.7971 71.214 77.9227 72.4698C78.7233 80.664 77.2163 83.9919 66.7459 87.4768C62.8529 88.7797 60.5924 90.5222 60.0273 92.6728C59.5093 94.6193 60.5454 96.2519 60.9849 96.8327C59.7448 98.6536 59.2895 100.569 59.682 102.515C60.561 107.052 65.5215 110.223 65.7413 110.348L66.0709 110.552L66.2593 110.207C66.3064 110.113 71.7221 100.38 77.2006 96.1106C80.5599 93.4891 87.5611 91.4641 91.1716 90.4751C89.4134 93.5205 89.8844 100.883 91.721 106.204C93.3065 110.804 95.5983 113.331 98.157 113.331C103.18 113.331 104.216 108.7 104.389 107.633C105.127 107.287 107.607 105.969 108.235 103.316C108.784 101.008 107.764 98.3867 105.205 95.5141C99.5227 89.1251 99.1774 82.0297 98.9733 77.7914C98.8634 75.3739 98.785 73.914 97.6704 73.914C97.4977 73.914 97.3094 73.9611 97.0896 74.0553C95.9123 74.589 94.2326 73.8669 92.082 71.9832C90.2297 70.3506 90.057 67.8547 90.6692 66.2378C91.2187 64.778 92.3489 63.946 93.7617 63.946C95.4727 63.946 96.6972 63.3652 97.3879 62.2192C99.5227 58.6402 95.614 50.6343 94.6879 48.8605C97.5448 47.4634 100.229 46.7884 102.913 46.7884C107.136 46.7884 110.495 48.4994 113.462 50.0064C116.068 51.3407 118.313 52.471 120.511 52.1413L120.825 52.0942V51.7803C120.825 40.7919 111.924 35.8785 103.118 35.8785L103.086 35.8628ZM113.776 49.3471C110.747 47.8087 107.309 46.0506 102.898 46.0506C99.9937 46.0506 97.0896 46.8041 94.0128 48.3739L93.6832 48.5465L93.8559 48.8762C93.903 48.9704 98.8791 58.2477 96.7443 61.8425C96.1948 62.7687 95.2216 63.2239 93.746 63.2239C92.0349 63.2239 90.6221 64.2599 89.9628 65.9867C89.0995 68.2629 89.7745 70.9472 91.5797 72.5483C94.0129 74.6832 95.9123 75.4053 97.3722 74.746C97.5134 74.6832 97.6076 74.6675 97.6547 74.6675C98.0629 74.6675 98.1413 76.2844 98.2198 77.8541C98.4239 82.1867 98.785 89.439 104.625 96.0164C107.011 98.7007 107.968 101.102 107.481 103.159C106.854 105.843 103.902 107.052 103.871 107.068L103.667 107.146V107.366C103.62 107.586 103.118 112.625 98.11 112.625C95.9123 112.625 93.8245 110.207 92.3646 106C90.214 99.7524 90.1983 91.9821 92.3175 90.1925C93.6989 89.8158 93.8088 89.7844 93.7617 89.4234L93.6361 89.0937H93.3222C92.8355 89.0937 92.3803 89.235 91.9879 89.5332L91.6582 89.6274C88.2989 90.5536 80.4186 92.7042 76.714 95.5926C71.6436 99.5484 66.8244 107.743 65.7884 109.564C64.6895 108.794 61.0791 106.016 60.3884 102.421C60.0273 100.584 60.4826 98.7949 61.7384 97.0838L61.9111 96.8484L61.707 96.6286C61.707 96.6286 60.2 94.9175 60.7337 92.9082C61.2361 91.0088 63.3395 89.439 66.9814 88.2146C77.8442 84.5885 79.4925 80.9309 78.6605 72.4384C78.5349 71.1669 78.3308 69.8012 78.0954 68.357C77.0593 61.7483 75.8977 54.2605 82.7419 51.1524L82.9774 51.0425V50.7913C82.9617 50.6971 82.5692 41.6709 95.4256 37.7779C97.9687 37.0087 100.559 36.6163 103.118 36.6163C110.872 36.6163 119.914 40.5093 120.087 51.4663C118.187 51.6076 116.162 50.5715 113.808 49.3628L113.776 49.3471Z" fill="#553597"/>
<path d="M182.81 42.8547C170.99 42.8547 161.383 33.2477 161.383 21.4274C161.383 9.60699 170.99 0 182.81 0C194.631 0 204.238 9.60699 204.238 21.4274C204.238 33.2477 194.631 42.8547 182.81 42.8547ZM182.81 1.56977C171.853 1.56977 162.953 10.4861 162.953 21.4274C162.953 32.3687 171.853 41.285 182.81 41.285C193.767 41.285 202.668 32.3687 202.668 21.4274C202.668 10.4861 193.751 1.56977 182.81 1.56977Z" fill="#553597"/>
<path d="M182.81 42.0696C194.211 42.0696 203.453 32.8277 203.453 21.4271C203.453 10.0266 194.211 0.784668 182.81 0.784668C171.41 0.784668 162.168 10.0266 162.168 21.4271C162.168 32.8277 171.41 42.0696 182.81 42.0696Z" fill="#A78ED7"/>
<path d="M180.582 17.9264C180.582 19.3078 179.467 20.4381 178.07 20.4381C176.673 20.4381 175.559 19.3078 175.559 17.9264C175.559 16.545 176.673 15.4148 178.07 15.4148C179.467 15.4148 180.582 16.545 180.582 17.9264Z" fill="#553597"/>
<path d="M190.031 17.9267C190.031 19.3081 188.917 20.4383 187.519 20.4383C186.122 20.4383 185.008 19.3081 185.008 17.9267C185.008 16.5453 186.122 15.415 187.519 15.415C188.917 15.415 190.031 16.5453 190.031 17.9267Z" fill="#553597"/>
<path d="M182.811 30.2027C181.052 30.2027 179.279 29.4492 177.568 27.958C177.238 27.6754 177.207 27.1731 177.489 26.8434C177.772 26.5138 178.274 26.4824 178.588 26.7649C181.461 29.2609 184.129 29.2609 187.002 26.7649C187.332 26.4824 187.818 26.5138 188.116 26.8434C188.399 27.1731 188.368 27.6597 188.038 27.958C186.327 29.4492 184.569 30.2027 182.795 30.2027H182.811Z" fill="#553597"/>
</svg>
