
<svg width="125" height="181" viewBox="0 0 125 181" fill="none" xmlns="http://www.w3.org/2000/svg">
<mask id="mask0_2057_17810" style="mask-type:alpha" maskUnits="userSpaceOnUse" x="0" y="0" width="125" height="181">
<path d="M0 0L118.208 0C121.688 0 124.508 2.82061 124.508 6.3L124.508 174.7C124.508 178.179 121.688 181 118.208 181H0L0 0Z" fill="#6F46BE"/>
</mask>
<g mask="url(#mask0_2057_17810)">
<path d="M176.91 50.837V78.6372C166.196 80.6375 155.464 82.4072 144.708 83.9553C144.633 83.9643 144.574 84.0212 144.565 84.096L140.939 109.947C128.985 110.866 117.04 111.453 105.107 111.717C105.021 111.72 104.949 111.714 104.889 111.696C104.746 111.66 104.66 111.519 104.699 111.381C106.811 103.266 108.977 95.361 111.203 87.6624C111.266 87.4528 111.406 87.339 111.632 87.324C122.424 86.5874 133.251 85.4735 144.121 83.9912C144.41 83.9523 144.577 83.7906 144.621 83.5091L148.545 56.7989C148.575 56.5953 148.697 56.4725 148.903 56.4365C158.25 54.7956 167.587 52.9271 176.91 50.834V50.837Z" fill="#EDE3FF"/>
<path d="M176.91 161.507V181.992H150.33C148.083 175.449 146.168 168.838 144.582 162.154C144.535 161.938 144.332 161.783 144.1 161.78C132.083 161.696 120.428 161.477 109.129 161.109C108.828 161.1 108.563 160.911 108.459 160.636C105.616 152.835 103.552 144.679 102.264 136.156C102.241 135.998 102.145 135.92 101.984 135.917C90.969 135.644 80.0431 135.168 69.2126 134.477C69.1649 134.474 69.0904 134.456 68.9951 134.429C68.9087 134.402 68.8372 134.396 68.7716 134.42C68.3813 126.604 70.1422 119.546 72.6688 111.994C72.8237 111.533 73.1098 111.309 73.521 111.327C83.7735 111.764 94.0618 111.899 104.38 111.728C104.499 111.725 104.582 111.827 104.559 111.938C103.936 114.698 103.298 117.561 102.655 120.526C101.484 125.916 101.365 130.569 102.187 135.71C102.211 135.863 102.3 135.938 102.461 135.944C115.195 136.147 127.626 136.085 139.756 135.749C139.899 135.746 139.979 135.815 139.997 135.953C141.061 144.589 142.538 153.102 144.428 161.489C144.463 161.66 144.618 161.78 144.8 161.777L176.916 161.501L176.91 161.507Z" fill="#EDE3FF"/>
<path d="M118.208 60.6934C120.714 50.4285 122.451 40.005 123.425 29.4077C123.437 29.27 123.514 29.1951 123.657 29.1831C133.314 28.2788 142.702 27.2517 151.823 26.0869C152.025 26.0599 152.207 26.2246 152.189 26.4253C151.385 35.9475 150.279 45.4458 148.867 54.9232C148.799 55.3993 148.709 55.8604 148.605 56.3006C148.575 56.4294 148.495 56.5102 148.361 56.5282C138.311 58.229 128.261 59.6154 118.202 60.6934H118.208Z" fill="#EDE3FF"/>
<path d="M94.2911 1.00342H123.642C123.723 3.24025 123.806 5.4711 123.884 7.70793C124.134 14.5652 124.009 21.5751 123.511 28.7408C123.487 29.0911 123.291 29.2797 122.927 29.3097L96.5645 31.2591C96.3798 31.271 96.2219 31.1243 96.2308 30.9476C96.5705 20.9073 95.9239 10.9299 94.2941 1.00641L94.2911 1.00342Z" fill="#EDE3FF"/>
<path d="M118.524 181.992H87.5456C82.7099 175.156 78.5773 167.861 75.1389 160.112C75.0048 159.809 74.7009 159.603 74.3642 159.579L43.3296 157.525C43.0733 157.51 42.9005 157.387 42.8112 157.153C39.7631 149.335 38.3776 141.271 38.6488 132.967C38.6577 132.68 38.6845 132.404 38.7292 132.132C38.762 131.919 38.9646 131.773 39.1851 131.797C49.086 132.877 58.9482 133.752 68.7687 134.423C69.4659 143.02 71.6499 151.266 74.7992 159.342C74.8559 159.489 74.9661 159.564 75.127 159.57C86.1303 160.196 97.1575 160.702 108.203 161.079C108.465 161.088 108.691 161.25 108.781 161.48C111.519 168.541 114.766 175.38 118.524 181.989V181.992Z" fill="#EDE3FF"/>
<path d="M118.208 60.6939C118.151 60.8556 118.172 61.0083 118.13 61.182C116.179 69.1891 114.013 77.5226 111.635 86.1824C111.59 86.3351 111.558 86.4909 111.528 86.6466C111.441 87.1287 111.066 87.3832 110.41 87.4191C98.7695 87.9911 89.2886 88.2696 81.965 88.2576C85.3706 79.8462 88.3322 71.405 90.8499 62.9307C90.9274 62.6672 91.1061 62.5325 91.3892 62.5205C100.319 62.1821 109.257 61.5713 118.205 60.6909L118.208 60.6939Z" fill="#EDE3FF"/>
<path d="M41.5062 60.3559C41.6373 60.4457 41.8012 60.4936 41.9949 60.4966C42.272 60.4996 42.418 60.5056 42.4388 60.5086C50.12 61.347 57.8727 62.0238 65.685 62.5358C65.7833 62.5448 65.8757 62.4819 65.9025 62.3861C68.7122 52.5165 70.0887 42.563 70.0262 32.5287C70.0262 32.4089 69.9338 32.3161 69.8087 32.3131L43.5353 30.9716C43.4578 30.9686 43.4161 30.9327 43.4101 30.8578C42.5014 23.3747 40.8776 16.0234 38.5416 8.80389C37.7044 6.20473 36.8433 3.60557 35.9584 1.00342H65.1457C68.0299 11.2054 69.6627 21.5422 70.05 32.0107C70.053 32.1454 70.1275 32.2143 70.2616 32.2233C70.6936 32.2562 71.1316 32.2622 71.5755 32.2472C81.1904 31.9118 89.3156 31.5735 95.945 31.2261C96.091 31.2171 96.1655 31.286 96.1655 31.4238C96.1625 32.2352 96.1297 33.0288 96.0671 33.8013C95.3044 43.3056 93.6269 52.8279 91.0407 62.3741C91.0169 62.4639 90.9334 62.5268 90.8381 62.5328C82.7279 62.7694 74.5938 62.7814 66.4299 62.5687C65.837 62.5538 65.6761 63.0419 65.5331 63.482C63.0035 71.1897 59.729 79.0231 55.7007 86.9763C55.644 87.0901 55.5487 87.15 55.4146 87.1619C55.0928 87.1889 54.6608 87.1769 54.1126 87.123C46.5088 86.3355 39.1435 85.4192 32.0165 84.3831C31.9033 84.3681 31.8377 84.2454 31.8913 84.1466C35.9554 76.6994 39.4921 68.6265 41.5062 60.3589V60.3559Z" fill="#EDE3FF"/>
<path d="M81.965 88.26L73.0801 110.964C72.9937 111.188 72.7673 111.329 72.517 111.32C63.2775 110.856 54.1244 110.215 45.0726 109.404C44.9386 109.392 44.8849 109.32 44.9147 109.191C45.025 108.703 45.1889 108.23 45.4034 107.769C48.6332 100.944 51.9643 94.2488 55.3907 87.6761C55.5307 87.4125 55.8198 87.2538 56.1237 87.2748C64.7851 87.8767 73.3989 88.2061 81.965 88.266V88.26Z" fill="#EDE3FF"/>
<path d="M57.0471 181.993H28.0118C27.0941 180.696 25.789 178.57 24.0997 175.612C20.7596 169.766 18.0423 163.751 15.9477 157.555C15.757 156.98 15.5753 156.399 15.4144 155.812C15.3816 155.687 15.4293 155.627 15.5663 155.639L42.3909 157.441C42.7306 157.462 42.957 157.627 43.0851 157.935C44.6464 161.828 46.5741 165.73 48.8535 169.644C51.3533 173.935 54.0825 178.049 57.0501 181.993H57.0471Z" fill="#EDE3FF"/>
<path d="M12.59 128.317C13.1889 123.948 14.3062 119.603 15.939 115.276C17.0951 112.213 18.4269 109.168 19.9345 106.14C20.0031 106.006 20.1103 105.952 20.2623 105.976C28.2355 107.206 36.313 108.317 44.4917 109.309C44.6794 109.332 44.736 109.428 44.6675 109.596C44.2057 110.713 43.7498 111.848 43.2999 112.998C40.9461 119.037 39.4236 125.209 38.7353 131.515C38.7204 131.686 38.5595 131.803 38.3837 131.785L12.9297 128.745C12.7122 128.718 12.5632 128.53 12.59 128.32V128.317Z" fill="#EDE3FF"/>
<path d="M41.506 60.3558L17.7831 57.5171C17.6252 57.4962 17.5298 57.559 17.4971 57.7148C17.1902 59.1191 16.922 60.5295 16.5257 61.9608C14.8244 68.0455 12.2829 74.1961 8.90116 80.4155C8.81476 80.5772 8.62704 80.667 8.44529 80.6371L-14.2676 76.906C-14.3868 76.885 -14.503 76.9419 -14.5625 77.0438L-26.0843 98.0736C-26.2274 98.3341 -26.5223 98.4748 -26.8173 98.4329C-34.4717 97.292 -42.1618 96.3548 -49.8847 95.6212C-50.0069 95.6092 -50.0963 95.6601 -50.1529 95.7679C-54.1782 103.526 -57.5659 111.632 -60.313 120.08C-60.3547 120.205 -60.2475 120.304 -60.0002 120.379L-60.4114 120.406C-60.4858 120.334 -60.5574 120.298 -60.6348 120.298C-68.757 120.104 -76.9179 120.101 -85.1145 120.289C-85.3261 120.292 -85.478 120.101 -85.4214 119.906C-82.8322 111.369 -79.9093 103.032 -76.6497 94.8995C-76.5693 94.6959 -76.3637 94.5611 -76.1402 94.5641C-67.6009 94.648 -58.9901 94.9773 -50.2959 95.5583C-50.2155 95.5613 -50.138 95.5223 -50.1052 95.4505C-46.2527 88.0962 -42.6564 80.8287 -39.3074 73.6481C-39.2657 73.5612 -39.1734 73.5133 -39.078 73.5223C-31.2985 74.4386 -23.2151 75.5495 -14.8367 76.8551C-14.6817 76.8821 -14.5268 76.8042 -14.4583 76.6665C-10.9782 69.5367 -8.22511 62.2124 -7.11375 54.4718C-7.0899 54.3131 -6.94093 54.2023 -6.78004 54.2263L17.2587 57.4213C17.4047 57.4423 17.5388 57.3434 17.5656 57.1997C18.966 48.0727 18.7663 38.8499 16.9727 29.5312C16.9369 29.3486 17.0859 29.1869 17.2796 29.1989L43.2848 30.9446C43.3652 30.9476 43.4099 30.9925 43.4189 31.0734C44.3127 40.8142 43.7138 50.4653 41.6103 60.0324C41.5954 60.1073 41.5626 60.1732 41.512 60.2331C41.4435 60.3169 41.4375 60.3558 41.5001 60.3528L41.506 60.3558Z" fill="#EDE3FF"/>
<path d="M-3.2314 101.933L8.62113 81.0258C8.72243 80.8491 8.93099 80.7533 9.13658 80.7862L31.5098 84.3376C31.62 84.3586 31.6975 84.4484 31.6945 84.5502C31.6945 84.6131 31.6796 84.673 31.6468 84.7269C27.7437 91.5991 23.8703 98.6509 20.0327 105.87C20.0029 105.921 19.9582 105.945 19.8986 105.936L-3.1152 102.178C-3.22246 102.163 -3.32674 102.214 -3.37739 102.304C-7.20012 109.509 -10.3346 116.803 -11.9197 124.72C-11.9971 125.122 -12.2474 125.295 -12.6675 125.244L-35.7499 122.391C-35.9227 122.37 -36.0359 122.208 -35.9912 122.046C-33.8072 114.054 -30.6012 106.269 -26.3703 98.6929C-26.278 98.5222 -26.1349 98.4563 -25.9383 98.4892L-3.51147 102.065C-3.39824 102.08 -3.28205 102.029 -3.22544 101.93L-3.2314 101.933Z" fill="#EDE3FF"/>
<path d="M-22.2555 1.00299H6.94079C7.44135 2.32353 7.98958 3.6291 8.57953 4.91371C9.72962 7.42603 10.3166 8.71363 10.3434 8.77651C13.0905 15.2145 15.2596 21.8352 16.8626 28.6385C16.8983 28.7912 16.9043 28.914 16.8745 29.0038C16.8507 29.0907 16.7643 29.1506 16.6719 29.1416L-9.63426 27.2371C-9.7892 27.2251 -9.89049 27.1503 -9.93519 27.0036C-12.0089 20.5236 -14.7084 14.2982 -18.0425 8.31837C-19.4101 5.86594 -20.8134 3.42548 -22.2525 1L-22.2555 1.00299Z" fill="#EDE3FF"/>
<path d="M-1.16948 181.991H-30.3449C-34.1349 172.211 -36.6764 162.222 -37.9665 152.017C-37.9755 151.954 -38.0112 151.921 -38.0768 151.918C-46.9736 151.349 -55.7542 150.909 -64.4246 150.589C-64.5349 150.586 -64.6243 150.499 -64.6243 150.391C-64.6272 140.222 -63.2239 130.227 -60.4142 120.405L-60.003 120.378C-60.003 120.378 -59.9732 120.354 -59.9613 120.342C-59.9315 120.321 -59.9047 120.309 -59.8689 120.315C-51.9107 120.863 -44.0507 121.552 -36.2891 122.378C-36.149 122.393 -36.0984 122.468 -36.1252 122.6C-38.2317 132.197 -38.8514 141.845 -37.9814 151.541C-37.9606 151.765 -37.8354 151.888 -37.5971 151.903L-11.7229 153.643C-11.5591 153.655 -11.4935 153.583 -11.5233 153.427C-13.3051 144.142 -13.5017 134.856 -12.1192 125.561C-12.1043 125.438 -11.9851 125.358 -11.863 125.373C-5.24844 126.292 1.70277 127.217 8.99961 128.16C10.1706 128.31 11.2759 128.493 12.3158 128.705C12.4588 128.732 12.5244 128.819 12.5125 128.957C11.7646 137.755 12.6704 146.519 15.2328 155.251C15.2864 155.428 15.1404 155.598 14.9527 155.586L-11.2522 153.703C-11.3863 153.691 -11.4399 153.751 -11.4101 153.876C-10.6473 157.452 -9.66708 161.009 -8.48123 164.54C-6.46111 170.537 -4.02684 176.356 -1.17545 182L-1.16948 181.991Z" fill="#EDE3FF"/>
</g>
</svg>
