<svg width="222" height="142" viewBox="0 0 222 142" fill="none" xmlns="http://www.w3.org/2000/svg">
<path d="M221.623 0.0346928V16.8543L202.422 19.5665C202.298 19.5853 202.188 19.4821 202.197 19.3626C202.699 12.8832 202.846 7.72599 202.898 0.0323486H221.623V0.0346928Z" fill="#EDE3FF"/>
<path d="M221.623 39.047V60.8105C213.194 62.3764 204.75 63.7619 196.287 64.9738C196.229 64.9808 196.182 65.0254 196.175 65.084L193.322 85.3214C183.917 86.0411 174.519 86.5005 165.131 86.7068C165.063 86.7092 165.007 86.7045 164.96 86.6904C164.847 86.6623 164.779 86.5521 164.81 86.4443C166.472 80.0915 168.176 73.9028 169.927 67.8759C169.976 67.7118 170.086 67.6227 170.265 67.611C178.755 67.0343 187.274 66.1623 195.826 65.0019C196.053 64.9715 196.184 64.8449 196.219 64.6245L199.307 43.7143C199.33 43.5549 199.426 43.4588 199.588 43.4307C206.942 42.146 214.288 40.6833 221.623 39.0447V39.047Z" fill="#EDE3FF"/>
<path d="M221.624 82.3956V104.044C212.835 104.665 203.606 105.139 193.939 105.47C193.477 105.486 193.071 105.462 192.722 105.411C192.612 105.395 192.551 105.334 192.539 105.228C191.733 98.5799 192.551 91.9084 193.322 85.3212C202.762 84.564 212.195 83.5888 221.624 82.3956Z" fill="#EDE3FF"/>
<path d="M221.623 125.686V141.723H200.711C198.943 136.601 197.436 131.425 196.189 126.192C196.151 126.024 195.992 125.902 195.809 125.899C186.355 125.834 177.184 125.663 168.295 125.374C168.059 125.367 167.85 125.22 167.768 125.004C165.531 118.897 163.907 112.512 162.894 105.84C162.876 105.716 162.8 105.655 162.674 105.653C154.007 105.439 145.411 105.066 136.89 104.525C136.853 104.523 136.794 104.509 136.719 104.487C136.651 104.466 136.595 104.462 136.543 104.48C136.236 98.3621 137.622 92.8368 139.609 86.9248C139.731 86.5638 139.956 86.388 140.28 86.402C148.346 86.7443 156.441 86.8498 164.559 86.7161C164.652 86.7138 164.718 86.7935 164.699 86.8802C164.209 89.0416 163.708 91.2826 163.201 93.6034C162.28 97.8229 162.186 101.466 162.833 105.491C162.852 105.61 162.922 105.669 163.049 105.674C173.068 105.833 182.848 105.784 192.391 105.521C192.504 105.519 192.567 105.573 192.581 105.681C193.418 112.441 194.581 119.106 196.067 125.672C196.095 125.806 196.217 125.899 196.36 125.897L221.628 125.681L221.623 125.686Z" fill="#EDE3FF"/>
<path d="M175.438 46.7642C177.41 38.7283 178.776 30.5681 179.543 22.272C179.552 22.1642 179.613 22.1056 179.726 22.0962C187.323 21.3883 194.71 20.5842 201.885 19.6723C202.045 19.6512 202.188 19.7801 202.174 19.9372C201.541 27.3917 200.671 34.8275 199.56 42.2469C199.506 42.6196 199.436 42.9806 199.354 43.3252C199.33 43.426 199.267 43.4893 199.161 43.5034C191.255 44.8349 183.348 45.9203 175.434 46.7642H175.438Z" fill="#EDE3FF"/>
<path d="M156.622 0.0351562H179.714C179.778 1.78627 179.843 3.53269 179.904 5.28381C180.101 10.652 180.003 16.1398 179.611 21.7494C179.592 22.0237 179.438 22.1714 179.152 22.1948L158.41 23.7209C158.265 23.7303 158.141 23.6154 158.148 23.4771C158.415 15.617 157.906 7.80616 156.624 0.0375004L156.622 0.0351562Z" fill="#EDE3FF"/>
<path d="M175.687 141.723H151.314C147.51 136.371 144.258 130.66 141.553 124.594C141.448 124.357 141.208 124.195 140.944 124.176L116.526 122.568C116.325 122.557 116.189 122.46 116.119 122.278C113.72 116.157 112.63 109.844 112.844 103.344C112.851 103.118 112.872 102.903 112.907 102.689C112.933 102.523 113.092 102.408 113.266 102.427C121.055 103.273 128.815 103.958 136.541 104.483C137.09 111.213 138.808 117.669 141.286 123.991C141.33 124.106 141.417 124.165 141.544 124.169C150.201 124.659 158.877 125.055 167.567 125.351C167.773 125.358 167.951 125.484 168.021 125.665C170.176 131.193 172.731 136.547 175.687 141.72V141.723Z" fill="#EDE3FF"/>
<path d="M175.438 46.7642C175.394 46.8908 175.41 47.0103 175.377 47.1463C173.842 53.4147 172.138 59.9386 170.267 66.718C170.232 66.8375 170.206 66.9594 170.183 67.0813C170.115 67.4587 169.819 67.658 169.304 67.6861C160.145 68.1339 152.686 68.3519 146.924 68.3425C149.603 61.7577 151.933 55.1494 153.914 48.5153C153.975 48.309 154.116 48.2035 154.338 48.1941C161.364 47.9292 168.396 47.451 175.436 46.7618L175.438 46.7642Z" fill="#EDE3FF"/>
<path d="M115.091 46.4994C115.195 46.5698 115.323 46.6073 115.476 46.6096C115.694 46.6119 115.809 46.6166 115.825 46.619C121.868 47.2754 127.968 47.8051 134.115 48.206C134.192 48.213 134.265 48.1638 134.286 48.0888C136.496 40.3623 137.579 32.5702 137.53 24.7148C137.53 24.6211 137.457 24.5484 137.359 24.546L116.688 23.4959C116.627 23.4935 116.594 23.4654 116.589 23.4068C115.874 17.5486 114.597 11.7936 112.759 6.14178C112.1 4.10702 111.423 2.07226 110.727 0.0351562H133.69C135.959 8.02183 137.244 16.114 137.549 24.3093C137.551 24.4148 137.61 24.4687 137.715 24.4757C138.055 24.5015 138.4 24.5062 138.749 24.4945C146.314 24.2319 152.706 23.967 157.922 23.6951C158.037 23.6881 158.096 23.742 158.096 23.8498C158.093 24.4851 158.068 25.1063 158.018 25.7111C157.418 33.1516 156.098 40.6061 154.064 48.0794C154.045 48.1497 153.979 48.199 153.904 48.2037C147.523 48.3888 141.124 48.3982 134.701 48.2318C134.234 48.2201 134.107 48.6022 133.995 48.9468C132.005 54.9807 129.428 61.1131 126.259 67.3393C126.215 67.4284 126.14 67.4753 126.034 67.4847C125.781 67.5058 125.441 67.4964 125.01 67.4542C119.027 66.8377 113.232 66.1203 107.625 65.3092C107.536 65.2975 107.484 65.2014 107.527 65.124C110.724 59.294 113.507 52.9741 115.091 46.5018V46.4994Z" fill="#EDE3FF"/>
<path d="M146.923 68.345L139.933 86.1186C139.865 86.2945 139.687 86.4046 139.49 86.3976C132.221 86.0342 125.019 85.5326 117.898 84.8973C117.792 84.8879 117.75 84.8317 117.773 84.7309C117.86 84.3488 117.989 83.9784 118.158 83.6174C120.699 78.275 123.32 73.0333 126.016 67.8878C126.126 67.6816 126.353 67.5573 126.592 67.5737C133.407 68.0449 140.184 68.3028 146.923 68.3496V68.345Z" fill="#EDE3FF"/>
<path d="M127.319 141.722H104.475C103.753 140.707 102.726 139.043 101.397 136.727C98.769 132.151 96.6311 127.442 94.9831 122.591C94.8331 122.141 94.6901 121.687 94.5635 121.227C94.5377 121.129 94.5752 121.082 94.683 121.091L115.788 122.502C116.055 122.519 116.233 122.648 116.334 122.889C117.562 125.937 119.079 128.991 120.872 132.055C122.839 135.414 124.986 138.635 127.321 141.722H127.319Z" fill="#EDE3FF"/>
<path d="M92.3413 99.7024C92.8125 96.2822 93.6916 92.8808 94.9762 89.4934C95.8857 87.0953 96.9336 84.7112 98.1198 82.3413C98.1737 82.2358 98.2581 82.1936 98.3776 82.2123C104.651 83.1758 111.006 84.0455 117.441 84.8214C117.588 84.8402 117.633 84.9152 117.579 85.0465C117.216 85.9208 116.857 86.8093 116.503 87.7095C114.651 92.4377 113.453 97.2691 112.912 102.206C112.9 102.34 112.773 102.431 112.635 102.417L92.6085 100.038C92.4374 100.016 92.3202 99.8688 92.3413 99.7047V99.7024Z" fill="#EDE3FF"/>
<path d="M115.092 46.4993L96.4271 44.277C96.3028 44.2605 96.2278 44.3098 96.202 44.4317C95.9606 45.5311 95.7496 46.6352 95.4378 47.7557C94.0993 52.5191 92.0997 57.3341 89.439 62.203C89.371 62.3296 89.2233 62.3999 89.0803 62.3765L71.2106 59.4556C71.1168 59.4392 71.0254 59.4837 70.9785 59.5634L61.9135 76.0267C61.801 76.2307 61.5689 76.3408 61.3368 76.308C55.3146 75.4149 49.2642 74.6812 43.1881 74.1068C43.092 74.0975 43.0216 74.1373 42.9771 74.2217C39.8101 80.2955 37.1447 86.6412 34.9834 93.2542C34.9506 93.3527 35.035 93.43 35.2295 93.4886L34.906 93.5097C34.8474 93.4535 34.7912 93.4253 34.7302 93.4253C28.3399 93.273 21.9192 93.2706 15.4703 93.4183C15.3039 93.4206 15.1843 93.2706 15.2289 93.1182C17.266 86.4349 19.5656 79.9087 22.1302 73.5419C22.1935 73.3825 22.3552 73.277 22.531 73.2793C29.2495 73.345 36.0242 73.6028 42.8646 74.0576C42.9279 74.0599 42.9888 74.0295 43.0146 73.9732C46.0456 68.2159 48.8751 62.5265 51.5099 56.9051C51.5428 56.8372 51.6154 56.7996 51.6905 56.8067C57.8111 57.524 64.1709 58.3937 70.7628 59.4158C70.8847 59.4369 71.0066 59.3759 71.0605 59.2681C73.7985 53.6866 75.9646 47.9527 76.839 41.8929C76.8577 41.7687 76.9749 41.6819 77.1015 41.7007L96.0145 44.2019C96.1293 44.2184 96.2348 44.141 96.2559 44.0285C97.3577 36.8834 97.2006 29.6632 95.7894 22.3681C95.7613 22.2251 95.8785 22.0985 96.0309 22.1079L116.491 23.4746C116.554 23.4769 116.589 23.5121 116.596 23.5754C117.3 31.201 116.829 38.7564 115.174 46.2461C115.162 46.3047 115.136 46.3563 115.096 46.4031C115.042 46.4688 115.038 46.4993 115.087 46.4969L115.092 46.4993Z" fill="#EDE3FF"/>
<path d="M79.8936 79.0481L89.2189 62.681C89.2986 62.5427 89.4626 62.4676 89.6244 62.4934L107.227 65.2736C107.314 65.2901 107.375 65.3604 107.372 65.4401C107.372 65.4893 107.361 65.5362 107.335 65.5784C104.264 70.9583 101.216 76.4789 98.1971 82.1307C98.1737 82.1706 98.1385 82.1893 98.0916 82.1823L79.9851 79.2404C79.9007 79.2286 79.8186 79.2685 79.7788 79.3388C76.7712 84.9789 74.3051 90.6894 73.058 96.8874C72.997 97.2016 72.8001 97.3375 72.4696 97.2977L54.3091 95.0637C54.1732 95.0473 54.0841 94.9207 54.1192 94.7941C55.8375 88.5374 58.3599 82.4425 61.6886 76.5117C61.7613 76.3781 61.8738 76.3265 62.0285 76.3523L79.6733 79.1513C79.7624 79.163 79.8538 79.1231 79.8983 79.0458L79.8936 79.0481Z" fill="#EDE3FF"/>
<path d="M64.9259 0.0346928H87.8967C88.2905 1.06848 88.7218 2.09055 89.186 3.09621C90.0908 5.06299 90.5526 6.07099 90.5737 6.12022C92.7351 11.1602 94.4416 16.3433 95.7028 21.6693C95.7309 21.7888 95.7356 21.8849 95.7122 21.9553C95.6935 22.0232 95.6255 22.0701 95.5528 22.0631L74.8559 20.5722C74.734 20.5628 74.6543 20.5042 74.6191 20.3893C72.9876 15.3165 70.8637 10.4429 68.2406 5.76156C67.1646 3.84166 66.0605 1.93115 64.9282 0.0323486L64.9259 0.0346928Z" fill="#EDE3FF"/>
<path d="M81.5156 141.722H58.5613C55.5794 134.066 53.5798 126.246 52.5648 118.257C52.5578 118.207 52.5297 118.182 52.4781 118.179C45.4783 117.734 38.57 117.389 31.7484 117.139C31.6616 117.136 31.5913 117.068 31.5913 116.984C31.589 109.023 32.6931 101.198 34.9037 93.509L35.2272 93.4879C35.2272 93.4879 35.2506 93.4692 35.26 93.4598C35.2834 93.4434 35.3045 93.434 35.3327 93.4387C41.594 93.8677 47.778 94.4069 53.8846 95.0539C53.9948 95.0656 54.0346 95.1242 54.0135 95.2273C52.3562 102.74 51.8686 110.293 52.5531 117.884C52.5695 118.06 52.668 118.156 52.8555 118.168L73.2125 119.53C73.3414 119.539 73.393 119.483 73.3695 119.361C71.9677 112.091 71.813 104.822 72.9007 97.5457C72.9124 97.4496 73.0062 97.3863 73.1023 97.398C78.3064 98.1177 83.7754 98.8421 89.5163 99.5805C90.4376 99.6977 91.3073 99.8407 92.1254 100.007C92.2379 100.028 92.2895 100.096 92.2801 100.204C91.6918 107.091 92.4044 113.953 94.4204 120.788C94.4626 120.927 94.3477 121.06 94.2 121.051L73.5829 119.576C73.4774 119.567 73.4352 119.614 73.4586 119.712C74.0587 122.511 74.83 125.296 75.763 128.06C77.3523 132.756 79.2675 137.31 81.5109 141.729L81.5156 141.722Z" fill="#EDE3FF"/>
<path d="M18.0398 0.0346928H42.5952L42.4241 0.10033C42.2412 0.168312 42.1779 0.383978 42.2928 0.53635C45.441 4.69964 48.1791 9.06218 50.5092 13.6146C51.4047 15.3657 52.1806 17.1004 52.837 18.8187C52.9073 19.0039 53.0456 19.1024 53.2519 19.1188L74.3637 20.53C74.5395 20.5417 74.6872 20.6566 74.7364 20.8207C76.7548 27.6282 77.4745 34.5037 76.8931 41.4589C76.8837 41.6019 76.804 41.6629 76.6563 41.6441C69.8418 40.758 63.1397 39.961 56.5455 39.2601C56.4002 39.2484 56.2923 39.1241 56.2993 38.9811C56.6135 32.4361 55.5281 25.8841 53.0456 19.3251C52.9964 19.2008 52.8815 19.1141 52.7432 19.1024C44.8175 18.5116 36.6363 17.9725 28.1901 17.4778C27.9463 17.4614 27.7307 17.3184 27.6345 17.1004C24.9856 11.1954 21.7858 5.50604 18.0398 0.0323486V0.0346928Z" fill="#EDE3FF"/>
<path d="M6.24379 35.9691C6.27192 35.8801 6.2766 35.7582 6.25316 35.6105C5.26157 29.1124 3.61829 22.7385 1.33035 16.4842C1.26706 16.3084 1.33036 16.2217 1.52258 16.231L27.3626 17.3914C27.6088 17.4008 27.8244 17.5485 27.9159 17.7712C30.4617 24.0091 32.0346 30.4064 32.6371 36.9537C32.6464 37.0709 32.7144 37.1319 32.834 37.1412C40.5065 37.7085 48.3947 38.3626 56.1095 39.1994C56.229 39.2112 56.283 39.2745 56.2689 39.387C55.6102 45.4373 53.9106 51.047 51.6086 56.6449C51.5711 56.7411 51.4985 56.7809 51.393 56.7715C43.9431 56.0636 36.6761 55.5549 29.599 55.2455C29.4841 55.2431 29.4068 55.1306 29.4419 55.0274C30.2085 52.8075 30.886 50.5477 31.4767 48.2527C32.3722 44.7669 32.7824 41.1428 32.7027 37.378C32.7004 37.2256 32.6183 37.1459 32.4613 37.1366C23.7854 36.5529 15.0439 36.1637 6.24613 35.9668L6.24379 35.9691Z" fill="#EDE3FF"/>
<path d="M35.497 141.723H12.5637C11.2931 134.036 10.7798 126.211 11.0189 118.244C11.0212 118.075 11.1595 117.934 11.3377 117.925C17.8405 117.592 24.4113 117.32 31.0524 117.114C31.2071 117.111 31.3595 117.121 31.5142 117.146C31.5681 117.156 31.6103 117.203 31.6126 117.257C31.8658 124.662 32.9605 131.992 34.8968 139.245C35.1172 140.066 35.3165 140.891 35.497 141.721V141.723Z" fill="#EDE3FF"/>
<path d="M29.2987 55.4637C27.1514 61.2937 24.7697 67.0416 22.4326 72.8365C22.3294 73.092 22.0763 73.2584 21.7903 73.2584C14.0826 73.2795 6.61395 73.5187 -0.617886 73.9781C-0.732752 73.9851 -0.819486 73.882 -0.789012 73.7742C0.95038 67.8504 2.6593 61.6734 4.33305 55.241C4.38697 55.0394 4.56982 54.9011 4.78548 54.8987C12.8448 54.8026 20.9534 54.9081 29.1159 55.2082C29.2518 55.2152 29.3409 55.3441 29.2964 55.4637H29.2987Z" fill="#EDE3FF"/>
<path d="M-10.4913 141.722H-33.7527C-33.7363 135.168 -33.5019 128.604 -33.0494 122.019L-10.5475 119.506C-10.442 119.495 -10.3834 119.436 -10.3741 119.333C-9.61922 111.199 -8.27366 103.118 -6.34673 95.0939C-6.31157 94.9556 -6.22249 94.8782 -6.07715 94.8618C0.885109 94.1539 7.8919 93.6827 14.9385 93.4483C15.0581 93.4459 15.1472 93.5538 15.1144 93.6639C12.9155 101.43 11.5606 109.452 11.0472 117.729C11.0402 117.854 10.937 117.954 10.8104 117.962C3.69111 118.391 -3.30397 118.897 -10.1701 119.481C-10.3155 119.492 -10.3952 119.57 -10.4069 119.713C-10.9718 127.052 -11 134.39 -10.4913 141.722Z" fill="#EDE3FF"/>
<path d="M-21.9335 76.0832C-21.4928 78.7438 -20.7403 81.4303 -19.0572 83.5377C-18.2039 84.6066 -16.6919 85.4154 -15.344 84.6957C-14.4743 84.2292 -13.771 83.5424 -13.2319 82.6305C-11.952 80.4644 -11.4339 78.35 -10.883 75.6753C-10.6814 75.83 -10.59 75.6471 -10.6134 75.1314C-10.6228 74.9345 -10.4681 74.7681 -10.2641 74.7493L-1.00925 73.9734C-0.877983 73.964 -0.828754 74.0203 -0.863918 74.1398C-2.74865 80.8887 -4.53024 87.6752 -6.20868 94.5038C-6.2626 94.7218 -6.45482 94.8906 -6.68924 94.9141C-14.4602 95.7322 -22.1844 96.8011 -29.8546 98.1186C-30.014 98.1467 -30.157 98.0178 -30.1335 97.8631L-27.0415 76.9083C-27.0251 76.7911 -27.1283 76.6926 -27.2502 76.7114L-40.3003 78.6922V57.8148L-24.4442 56.3216C-24.2801 56.3052 -24.1488 56.1833 -24.13 56.0286C-23.258 49.4508 -22.7048 43.0417 -23.3565 36.5343C-23.3846 36.2483 -23.5534 36.1076 -23.8511 36.1217L-40.3003 36.8437V15.7389L-27.365 15.7319C-27.0884 15.7319 -26.9829 15.6029 -27.0439 15.3451C-28.2933 10.2183 -29.7678 5.11268 -31.4721 0.0351562H-5.55231L-5.94379 0.0914169C-6.21571 0.131268 -6.28838 0.267231 -6.15476 0.501651C-3.46597 5.29553 -1.18507 10.0425 0.68325 14.7497C0.856724 15.1904 1.01378 15.6381 1.15443 16.0952C1.18022 16.1796 1.11224 16.2593 1.02316 16.2546C-8.36299 15.9686 -17.564 15.7881 -26.5844 15.7202C-26.8259 15.7178 -26.922 15.8303 -26.8657 16.0577C-25.3467 22.6848 -24.1957 29.3376 -23.4127 36.0115C-23.4057 36.0631 -23.3588 36.1076 -23.3002 36.1053C-13.3913 35.824 -3.54333 35.7771 6.24603 35.9693C6.27884 36.0443 6.2976 36.1053 6.30698 36.1545C6.86958 39.3567 6.92584 42.3596 6.48044 45.1656C6.12413 47.4043 5.45369 50.5947 4.46678 54.7346C4.43865 54.8541 4.35661 54.9174 4.23002 54.9198C-5.12097 55.1143 -14.5188 55.5691 -23.9683 56.2817C-24.0714 56.2888 -24.1277 56.3403 -24.1441 56.4412L-26.9712 76.4442C-26.9876 76.5543 -26.8868 76.6504 -26.7719 76.6387L-21.9288 76.0832H-21.9335Z" fill="#EDE3FF"/>
</svg>
