<svg width="136" height="120" viewBox="0 0 136 120" fill="none" xmlns="http://www.w3.org/2000/svg">
<path d="M65.3256 119.148C101.088 119.148 130.08 115.945 130.08 111.994C130.08 108.043 101.088 104.84 65.3256 104.84C29.5629 104.84 0.571533 108.043 0.571533 111.994C0.571533 115.945 29.5629 119.148 65.3256 119.148Z" fill="#D8CAF3"/>
<g clip-path="url(#clip0_2057_17733)">
<path d="M23.1566 50.3863C23.1566 50.3863 14.5801 63.6535 16.2851 71.1144C16.2851 71.1144 13.8822 75.6384 15.3374 77.5263C16.8561 79.4974 20.6745 79.5687 20.6745 79.5687C20.6745 79.5687 22.8236 78.8523 21.0987 77.1226C19.8061 75.8244 20.6586 74.1977 21.1662 73.4654C21.3525 73.1923 21.4516 72.8717 21.4437 72.5393C21.3803 70.5009 21.3367 63.1152 23.7673 57.8273L23.1566 50.3823V50.3863Z" fill="#6F46BE"/>
<path d="M17.1455 79.0854C16.3842 78.7727 15.6586 78.3215 15.155 77.6724C13.7157 75.8042 15.7181 71.7156 16.0392 71.0863C14.4056 63.6017 22.6689 51.0152 22.9386 50.3067L23.2121 49.5903L24.0091 57.8586L23.9774 57.9299C21.5785 63.1465 21.6063 70.4293 21.6737 72.5389C21.6856 72.9188 21.5745 73.2869 21.3565 73.6036C20.8291 74.3635 20.1154 75.8161 21.2613 76.9679C21.8521 77.5616 22.09 78.1236 21.9671 78.6382C21.7768 79.4377 20.7895 79.7781 20.7458 79.7939L20.6665 79.8058C20.5555 79.8058 18.7672 79.7583 17.1415 79.0894L17.1455 79.0854ZM23.1011 51.2012C21.8838 54.5655 15.0361 64.6229 16.5071 71.0665L16.5269 71.1496L16.4873 71.2248C16.4635 71.2683 14.1717 75.638 15.5198 77.3914C16.8679 79.1408 20.2185 79.3269 20.6348 79.3427C20.7895 79.2833 21.404 79.0142 21.5151 78.5313C21.5983 78.179 21.4001 77.7634 20.9322 77.2924C19.4968 75.8517 20.4841 74.0508 20.9718 73.3423C21.1344 73.1088 21.2177 72.8357 21.2058 72.5547C21.1384 70.4292 21.1106 63.1148 23.5175 57.8111L23.0932 51.2052L23.1011 51.2012Z" fill="#553597"/>
<path d="M20.3534 79.6981C19.2036 79.2231 18.466 78.1822 18.2083 76.6663C18.0061 75.4709 18.1687 74.4141 18.1766 74.3706L18.6326 74.4419C18.6246 74.4814 18.0259 78.4632 20.746 79.3498L20.6032 79.7891C20.52 79.7614 20.4367 79.7298 20.3534 79.6981Z" fill="#553597"/>
<path d="M17.5857 79.2558C15.4644 78.1911 16.5191 74.3083 16.5627 74.1421L17.0068 74.2648C16.9949 74.3004 16.0076 77.9457 17.7919 78.8402L17.5857 79.2519V79.2558Z" fill="#553597"/>
<path d="M36.4396 65.4502C35.5633 66.5189 34.8813 87.4765 56.5547 93.461C56.5547 93.461 49.6117 100.538 55.7418 105.098C61.8719 109.653 68.006 106.388 69.9132 100.811C71.8204 95.2342 72.9108 82.3074 65.6864 83.8035L63.791 85.4065C63.791 85.4065 55.7537 80.6292 53.3588 69.903L36.4356 65.4542L36.4396 65.4502Z" fill="#6F46BE"/>
<path d="M61.6697 107.546C59.6276 107.546 57.5222 106.794 55.5634 105.338C53.9536 104.139 53.0693 102.662 52.9345 100.945C52.6847 97.7385 55.1034 94.6553 56.0115 93.6222C43.9614 90.1273 39.0843 82.0846 37.1176 75.9141C35.4404 70.6499 35.6624 65.936 36.2096 65.267L36.3325 65.1206L53.6165 69.6644L53.6562 69.8425C55.7973 79.4328 62.5856 84.2615 63.7712 85.0452L65.5555 83.5333L65.6308 83.5174C67.3596 83.1572 68.7554 83.561 69.7744 84.7167C72.546 87.8475 71.7847 96.282 70.1987 100.913C69.1479 103.98 66.86 106.327 64.0805 107.19C63.2954 107.432 62.4905 107.554 61.6737 107.554L61.6697 107.546ZM36.5982 65.8014C36.2929 66.7988 36.0946 71.3584 37.9939 76.6582C40.0598 82.4171 44.9686 89.9571 56.63 93.1789L57.1138 93.3135L56.7609 93.6737C56.7252 93.7093 53.2398 97.315 53.5214 100.901C53.6403 102.441 54.4452 103.775 55.9123 104.863C59.2311 107.329 62.086 107.178 63.8941 106.62C66.4952 105.817 68.6364 103.608 69.6237 100.719C70.4128 98.4114 70.9481 95.2411 71.0195 92.4507C71.0789 90.0481 70.8331 86.8224 69.3184 85.1085C68.4659 84.1428 67.2883 83.7984 65.8172 84.0834L63.8188 85.7735L63.6364 85.6666C63.5571 85.6191 55.5515 80.7547 53.109 70.1473L36.5982 65.8053V65.8014Z" fill="#553597"/>
<path d="M55.9282 94.2126L55.5198 93.7812C55.5555 93.7495 58.9813 90.6068 62.8592 93.1321L62.5341 93.6308C59.0448 91.3549 55.9599 94.1849 55.9282 94.2126Z" fill="#553597"/>
<path d="M44.1359 68.8654C44.1359 68.8654 38.2913 83.9375 32.7005 90.4682C32.7005 90.4682 24.9289 86.3875 22.748 90.1951C20.5672 94.0066 24.9288 105.299 37.1969 108.699C37.1969 108.699 44.5562 110.741 43.0574 102.983C43.0574 102.983 60.2343 77.2682 59.822 68.5566L44.132 68.8574L44.1359 68.8654Z" fill="#6F46BE"/>
<path d="M39.1598 109.245C38.0693 109.245 37.1891 109.008 37.1217 108.988C30.5475 107.164 25.2342 102.711 22.9067 97.0707C21.7449 94.2526 21.5903 91.6284 22.4943 90.0491C24.6077 86.3563 31.3128 89.4475 32.6292 90.0966C38.0773 83.5857 43.8029 68.9055 43.8624 68.7551L43.9338 68.569L60.1154 68.2563L60.1273 68.5453C60.5278 77.0629 44.7189 101.033 43.3786 103.047C43.8148 105.426 43.4698 107.156 42.3517 108.189C41.4476 109.024 40.2065 109.242 39.1637 109.242L39.1598 109.245ZM26.0986 88.8697C24.7981 88.8697 23.6363 89.2496 23.0098 90.346C22.2088 91.7432 22.3793 94.2367 23.4579 96.845C24.3024 98.8953 27.7957 105.786 37.2803 108.418C37.312 108.426 40.3374 109.242 41.9472 107.757C42.9227 106.855 43.2002 105.272 42.772 103.047L42.7482 102.929L42.8156 102.826C42.9861 102.572 59.5603 77.6527 59.5405 68.8659L44.3422 69.1588C43.6483 70.9122 38.1526 84.5594 32.9305 90.6626L32.7759 90.8447L32.5657 90.7339C32.5142 90.7062 28.9654 88.8697 26.1026 88.8697H26.0986Z" fill="#553597"/>
<path d="M38.9695 102.833C37.9861 94.5011 31.0352 93.0327 30.9639 93.0169L31.0789 92.4351C31.1542 92.4509 38.5254 94.0064 39.5603 102.762L38.9695 102.833Z" fill="#553597"/>
<path d="M35.94 93.9484C34.6831 91.4271 29.3143 89.2819 29.2588 89.2621L29.4769 88.7119C29.7068 88.8029 35.1153 90.964 36.4714 93.6871L35.94 93.9523V93.9484Z" fill="#553597"/>
<path d="M65.5516 81.3207C54.4136 88.1325 41.2454 88.1325 30.1073 81.3207C26.8044 79.2942 24.8694 75.1304 25.1509 70.737L27.415 37.4146H68.1448L70.4089 70.737C70.7856 75.1265 68.8506 79.2942 65.5476 81.3207H65.5516Z" fill="#A78ED7" stroke="#553597" stroke-width="0.853769" stroke-miterlimit="10"/>
<path d="M34.5722 87.9904C30.8093 89.063 26.7689 88.7543 22.542 87.5115L23.5214 62.4217L22.2129 69.3126L16.2613 66.5895L13.906 65.6237L14.3898 64.9785L26.6182 41.6025L32.6492 41.2859L35.6825 40.7437C35.8094 41.1117 35.8609 41.555 35.7182 41.8163L34.2986 42.0142C33.9775 42.0458 33.8625 42.1606 33.8783 42.3941L34.5683 87.9865L34.5722 87.9904Z" fill="white" stroke="#553597" stroke-width="0.853769" stroke-miterlimit="10"/>
<path d="M28.1489 47.1517C28.1528 47.7335 32.225 52.9858 32.2805 53.5716C32.3281 54.0861 29.8261 56.8013 29.1957 57.5414C29.493 58.1391 30.3931 61.923 30.9205 63.0708C32.7008 66.9298 33.018 71.4538 34.3781 75.3683L33.8785 42.3941C33.8666 42.1606 33.9776 42.0458 34.2988 42.0142L35.7183 41.8163C35.8571 41.555 35.8095 41.1117 35.6826 40.7437L32.7444 41.2661C31.4875 42.691 28.1449 46.8548 28.1449 47.1477L28.1489 47.1517Z" fill="#E3E5EA" stroke="#553597" stroke-width="0.569179" stroke-miterlimit="10"/>
<path d="M63.2876 86.7758C66.9553 87.5832 72.8752 87.0884 76.9554 86.0831C77.221 86.0158 77.3836 85.7467 77.3241 85.4815L72.3994 63.1741C72.2805 62.6279 73.0061 62.3153 73.3193 62.7783L74.4216 64.4051C74.4534 64.4486 74.4732 64.4961 74.489 64.5476L76.3764 71.0545C76.4478 71.2999 76.6857 71.4543 76.9395 71.4147L85.6271 70.16C85.9562 70.1125 86.1544 69.7682 86.0236 69.4595L82.3003 60.6252C82.2885 60.5975 82.2766 60.5737 82.2607 60.55L73.7277 47.255C73.6762 47.1719 73.6009 47.1086 73.5136 47.069L70.5517 45.6956C70.5239 45.6837 70.4922 45.6718 70.4644 45.6639L64.83 44.2272C64.83 44.2272 64.8022 44.2192 64.7864 44.2192L62.2447 43.8076C61.9553 43.7601 61.6738 43.9659 61.6579 44.2549C61.6579 44.2549 61.6579 44.2628 61.6579 44.2667C61.646 44.5121 61.8284 44.7259 62.0703 44.7734L63.1369 44.9792C63.1845 44.999 63.2281 45.0148 63.2638 45.0306C63.4541 45.1098 63.577 45.2998 63.573 45.5056L62.895 86.2731C62.8911 86.5106 63.0536 86.7243 63.2876 86.7758Z" fill="white" stroke="#553597" stroke-width="0.853769" stroke-miterlimit="10"/>
<path d="M69.3147 49.5586C69.3108 50.0889 65.2386 54.8623 65.1831 55.3966C65.1355 55.8637 67.6375 58.3335 68.2679 59.0063C67.9706 59.5525 67.0705 62.992 66.5431 64.033C64.7628 67.5398 64.4456 71.6561 63.0855 75.2144L63.5851 45.2364C63.597 45.0227 63.486 44.9198 63.1648 44.8921L61.7453 44.714C61.6065 44.4765 61.6541 44.0728 61.781 43.7363L64.7192 44.2113C65.9761 45.5056 69.3187 49.2894 69.3187 49.5586H69.3147Z" fill="#E3E5EA" stroke="#553597" stroke-width="0.569179" stroke-miterlimit="10"/>
<path d="M66.1901 70.5757H73.4542V70.2076H66.1901V70.5757Z" fill="#A78ED7" stroke="#553597" stroke-width="0.28459" stroke-miterlimit="10"/>
<path d="M94.2354 8.92679C91.44 6.02557 86.658 5.75642 82.9388 6.31054C79.275 6.85675 75.8253 8.37662 72.5501 10.1261C72.3677 10.2211 72.1893 10.32 72.0069 10.4229C70.3971 7.69189 68.585 5.50311 66.6857 4.24446C58.7118 -0.991981 40.0757 -0.825745 33.0654 4.79067C31.8045 5.79996 30.6149 7.19714 29.5245 8.87138C24.5483 4.39091 14.5443 -2.30208 6.41975 6.85675C2.87493 10.8504 11.6339 14.9746 11.6339 14.9746C11.6339 14.9746 7.01452 14.7965 6.38803 19.7124C5.76551 24.6282 15.7893 25.8829 15.7893 25.8829C15.7893 25.8829 12.7521 28.4952 14.0368 30.3317C14.9725 31.6695 17.1573 32.9598 22.8988 30.9769C22.6411 35.7304 23.1764 40.1238 24.7505 43.2111C29.1558 51.9662 70.6667 51.3408 76.543 43.2111C78.1647 40.955 78.7635 37.2701 78.589 33.0231C80.4843 33.1023 82.34 32.8094 83.2044 31.4558C83.6485 30.7631 83.6842 29.8686 83.4859 29.0691C83.3035 28.3171 82.8594 27.6561 82.6414 26.9476C85.4487 27.3671 87.9269 28.6812 90.7382 27.1455C93.0141 25.9027 94.0451 22.8669 92.3678 20.6583C91.7453 19.839 90.8531 19.2809 89.9531 18.7941C89.3979 18.4933 88.819 18.2439 88.2441 18.0104C89.8024 17.3178 91.3686 16.7399 92.8238 15.8058C93.9737 15.0696 95.1117 14.1157 95.4566 12.7858C95.8095 11.4203 95.2068 9.944 94.2314 8.9347L94.2354 8.92679Z" fill="#6F46BE" stroke="#553597" stroke-width="0.853769" stroke-miterlimit="10"/>
<path d="M20.9281 23.4065C20.7501 23.2993 20.4985 23.14 20.2054 22.9319C19.6155 22.5132 18.8635 21.9017 18.2043 21.1266C17.5447 20.351 16.9875 19.4226 16.7684 18.3692C16.5507 17.3223 16.6625 16.1321 17.3722 14.8148C18.089 13.4843 18.9155 12.7611 19.7337 12.4029C20.5539 12.0438 21.3971 12.0379 22.1694 12.1982C22.9434 12.359 23.6354 12.6849 24.1373 12.9744C24.3873 13.1185 24.5879 13.2523 24.7251 13.3495C24.7406 13.3604 24.7552 13.3709 24.769 13.3808L20.9281 23.4065Z" fill="#A78ED7" stroke="#553597" stroke-width="0.569179"/>
<path d="M77.3884 24.1771L73.6529 14.0979C73.6666 14.0882 73.6812 14.0781 73.6965 14.0675C73.8347 13.9722 74.0365 13.8411 74.2878 13.7003C74.7924 13.4177 75.4873 13.101 76.2627 12.9507C77.0363 12.8006 77.8792 12.8178 78.6958 13.1879C79.5106 13.5572 80.3299 14.2917 81.0333 15.6319C81.7289 16.9589 81.828 18.1508 81.5993 19.1948C81.3692 20.2454 80.8024 21.1663 80.135 21.9332C79.4679 22.6996 78.7099 23.3011 78.1158 23.712C77.8206 23.9162 77.5675 24.0723 77.3884 24.1771Z" fill="#A78ED7" stroke="#553597" stroke-width="0.569179"/>
<path d="M46.3927 35.1809L46.3927 35.1805C46.1545 33.4242 46.5031 31.5788 47.3691 30.2312L47.3695 30.2306C47.7828 29.5839 48.3126 29.0421 48.8506 28.8343C49.1119 28.7333 49.3694 28.7129 49.6229 28.7896C49.8785 28.8669 50.1578 29.0514 50.4448 29.4086L50.4451 29.409C50.7866 29.8324 50.9998 30.3675 51.1669 30.9336C51.6369 32.5312 51.7884 34.0124 51.4814 35.6288L51.4814 35.6289C51.3742 36.1948 51.0862 36.7894 50.6746 37.2642C50.2628 37.7392 49.7442 38.0755 49.1832 38.1634C48.6654 38.2439 48.1473 38.0753 47.6979 37.7384C47.2477 37.4009 46.8827 36.9051 46.6828 36.3706C46.5478 36.0035 46.4496 35.6046 46.3927 35.1809Z" fill="#A78ED7" stroke="#553597" stroke-width="0.569179"/>
<path d="M82.8991 72.1909C82.0228 73.2596 81.3408 94.2172 103.014 100.202C103.014 100.202 96.0712 107.279 102.201 111.838C108.331 116.394 114.465 113.129 116.373 107.552C118.28 101.975 119.37 89.0481 112.146 90.5442L110.251 92.1472C110.251 92.1472 102.213 87.3699 99.8183 76.6437L82.8951 72.1949L82.8991 72.1909Z" fill="#F8A0C2"/>
<path d="M108.129 114.284C106.087 114.284 103.982 113.532 102.023 112.076C100.413 110.876 99.5288 109.4 99.394 107.682C99.1442 104.476 101.563 101.393 102.471 100.36C90.4209 96.865 85.5438 88.8224 83.5771 82.6558C81.8999 77.3916 82.1219 72.6737 82.6691 72.0087L82.792 71.8623L100.076 76.4061L100.116 76.5842C102.257 86.1745 109.045 91.0032 110.231 91.7869L112.015 90.275L112.09 90.2591C113.819 89.9029 115.215 90.3027 116.234 91.4584C119.006 94.5892 118.244 103.024 116.658 107.655C115.607 110.722 113.32 113.069 110.54 113.932C109.755 114.173 108.95 114.296 108.133 114.296L108.129 114.284ZM83.0577 72.5391C82.7524 73.5365 82.5541 78.0962 84.4574 83.3959C86.5232 89.1548 91.432 96.6948 103.093 99.9127L103.577 100.047L103.224 100.407C103.189 100.443 99.7033 104.049 99.9848 107.635C100.104 109.174 100.909 110.508 102.376 111.597C105.695 114.063 108.545 113.912 110.358 113.354C112.959 112.551 115.1 110.342 116.087 107.453C116.876 105.145 117.412 101.975 117.483 99.1844C117.542 96.7819 117.297 93.5561 115.782 91.8423C114.929 90.8766 113.752 90.5322 112.281 90.8172L110.282 92.5073L110.1 92.4004C110.021 92.3529 102.015 87.4885 99.5724 76.8811L83.0616 72.5391H83.0577Z" fill="#553597"/>
<path d="M102.388 100.95L101.979 100.518C102.015 100.487 105.441 97.3441 109.319 99.8694L108.994 100.368C105.504 98.0962 102.419 100.922 102.388 100.95Z" fill="#553597"/>
<path d="M90.5954 75.6071C90.5954 75.6071 84.7508 90.6792 79.16 97.2099C79.16 97.2099 71.3883 93.1292 69.2075 96.9368C67.0267 100.748 71.3883 112.041 83.6564 115.44C83.6564 115.44 91.0157 117.483 89.5169 109.725C89.5169 109.725 106.694 84.0099 106.281 75.2983L90.5914 75.5991L90.5954 75.6071Z" fill="#F8A0C2"/>
<path d="M85.6192 115.986C84.5288 115.986 83.6486 115.749 83.5812 115.729C77.007 113.904 71.6937 109.452 69.3662 103.811C68.2044 100.993 68.0498 98.3691 68.9538 96.7899C71.0672 93.097 77.7722 96.1883 79.0887 96.8374C84.5367 90.3264 90.2624 75.6462 90.3219 75.4958L90.3932 75.3098L106.575 74.9971L106.587 75.286C106.987 83.8036 91.1783 107.773 89.8381 109.788C90.2743 112.167 89.9293 113.896 88.8112 114.929C87.9071 115.765 86.666 115.982 85.6232 115.982L85.6192 115.986ZM72.5581 95.6064C71.2575 95.6064 70.0958 95.9864 69.4693 97.0828C68.6683 98.4799 68.8388 100.973 69.9173 103.582C70.7619 105.632 74.2552 112.523 83.7398 115.155C83.7675 115.163 86.8008 115.978 88.4067 114.494C89.3821 113.592 89.6597 112.008 89.2315 109.784L89.2077 109.665L89.2751 109.562C89.4456 109.309 106.02 84.3894 106 75.6026L90.8017 75.8955C90.1078 77.6489 84.6121 91.2962 79.39 97.3994L79.2354 97.5815L79.0252 97.4706C78.9737 97.4429 75.4249 95.6064 72.5621 95.6064H72.5581Z" fill="#553597"/>
<path d="M85.4289 109.571C84.4456 101.239 77.4947 99.7705 77.4233 99.7547L77.5383 99.1729C77.6137 99.1887 84.9848 100.744 86.0197 109.499L85.4289 109.571Z" fill="#553597"/>
<path d="M82.3995 100.685C81.1426 98.1595 75.7738 96.0182 75.7183 95.9984L75.9363 95.4482C76.1663 95.5393 81.5748 97.7004 82.9308 100.423L82.3995 100.689V100.685Z" fill="#553597"/>
<path d="M129.315 53.3074C129.315 53.3074 135.921 53.9209 135.151 62.5058C134.382 71.0908 125.322 70.4773 125.322 70.4773C125.322 70.4773 126.242 76.3035 120.869 77.9896C115.492 79.6757 110.885 74.9221 110.885 74.9221C110.885 74.9221 107.507 81.2074 101.825 81.0531C96.1425 80.8987 94.2987 78.14 94.2987 78.14C94.2987 78.14 91.6897 80.8987 87.5421 80.5939C83.3946 80.2892 81.0909 76.4539 81.0909 76.4539C81.0909 76.4539 75.7142 79.8261 71.2613 77.8352C66.8085 75.8404 66.0393 70.4773 66.0393 70.4773C66.0393 70.4773 59.7426 72.1634 57.2843 67.4098C54.8259 62.6562 58.0535 58.2114 60.6626 56.8301C60.6626 56.8301 58.0535 54.3761 58.9734 50.6991C59.8933 47.0221 62.9663 46.7134 62.9663 46.7134C62.9663 46.7134 60.048 43.0324 62.8117 37.0558C65.5753 31.0753 70.6428 32.9158 70.6428 32.9158C70.6428 32.9158 70.1828 27.0896 73.8664 24.9443C77.55 22.7991 79.8577 24.79 79.8577 24.79C79.8577 24.79 82.0068 18.5046 87.6889 17.5824C93.3709 16.6602 95.6746 20.6499 95.6746 20.6499C95.6746 20.6499 100.591 14.8237 107.348 17.5824C114.105 20.3412 113.954 24.79 113.954 24.79C113.954 24.79 120.71 21.8769 124.243 27.0896C127.776 32.3023 123.629 36.9015 123.629 36.9015C123.629 36.9015 131.309 36.9015 132.384 42.4189C133.458 47.9364 129.311 53.3035 129.311 53.3035L129.315 53.3074Z" fill="#F8A0C2"/>
<path d="M102.031 81.3534C101.96 81.3534 101.888 81.3534 101.813 81.3534C97.0467 81.2267 94.9095 79.3111 94.2672 78.5828C93.5138 79.2636 91.0792 81.1594 87.5146 80.8943C83.8389 80.6212 81.5946 77.7397 80.9919 76.861C79.8539 77.5141 75.1791 79.9206 71.1346 78.1118C67.1616 76.3346 66.0394 72.0481 65.7976 70.837C64.4613 71.1021 59.2313 71.8344 57.0188 67.5518C54.5128 62.7072 57.7047 58.3059 60.1869 56.7662C59.5168 55.9984 57.903 53.7502 58.6841 50.6313C59.4256 47.6707 61.5351 46.7723 62.4748 46.519C62.2131 46.0875 61.8166 45.2999 61.5628 44.1956C61.202 42.6282 61.0791 40.0991 62.5422 36.9327C64.9213 31.7872 69.0173 32.2305 70.3297 32.5234C70.298 31.1183 70.4566 26.5864 73.7199 24.6866C76.777 22.9055 78.9301 23.8396 79.7231 24.3304C80.298 22.953 82.6612 18.1005 87.6454 17.293C92.4829 16.5093 94.9928 19.2206 95.7144 20.1784C96.8366 19.0266 101.468 14.8628 107.467 17.3089C111.04 18.7654 112.693 20.7088 113.45 22.0783C113.994 23.0598 114.172 23.895 114.228 24.3699C115.75 23.8435 121.361 22.2999 124.493 26.9229C127.459 31.3004 125.167 35.302 124.216 36.6319C126.067 36.7704 131.75 37.5857 132.677 42.363C133.609 47.1522 130.774 51.7396 129.834 53.0932C130.465 53.2317 131.603 53.584 132.705 54.4508C134.18 55.6145 135.857 57.9616 135.449 62.5291C134.751 70.3224 127.36 70.7776 125.651 70.7776C125.746 72.0996 125.734 76.77 120.956 78.2701C116.234 79.7504 112.059 76.39 110.952 75.3966C110.159 76.7106 107.003 81.3534 102.031 81.3534ZM94.3385 77.6685L94.5447 77.9772C94.5606 78.001 96.3964 80.6132 101.833 80.7597C107.277 80.9061 110.592 74.8464 110.623 74.7831L110.818 74.4269L111.099 74.7198C111.143 74.7673 115.647 79.319 120.778 77.7081C122.895 77.0431 124.255 75.642 124.818 73.5442C125.243 71.9531 125.033 70.5361 125.029 70.5243L124.973 70.1562L125.346 70.1799C125.37 70.1799 127.59 70.3185 129.862 69.4279C132.872 68.2484 134.553 65.9132 134.858 62.4776C135.167 59.0223 134.319 56.4813 132.34 54.9179C130.869 53.7582 129.307 53.6038 129.291 53.5998L128.752 53.5484L129.081 53.1209C129.121 53.0695 133.133 47.7934 132.094 42.4739C131.079 37.2612 123.704 37.1939 123.633 37.1939H122.967L123.411 36.6991C123.573 36.5171 127.356 32.2068 124.002 27.2514C122.602 25.1853 120.52 24.18 117.808 24.2749C115.754 24.3462 114.093 25.0507 114.077 25.0547L113.645 25.2407L113.661 24.7737C113.661 24.7737 113.68 23.6971 112.911 22.3237C112.194 21.0492 110.631 19.2364 107.241 17.8551C100.766 15.2111 95.9563 20.78 95.9087 20.8394L95.6351 21.16L95.421 20.7959C95.421 20.7959 94.85 19.8301 93.6248 18.9989C91.9872 17.8867 90.0086 17.5068 87.7406 17.8748C82.3044 18.7535 80.1632 24.8212 80.1394 24.8845L79.9967 25.3001L79.6636 25.0111C79.5764 24.9359 77.463 23.1905 74.0173 25.1972C70.5359 27.2237 70.9324 32.8322 70.9403 32.8915L70.976 33.3507L70.5438 33.1963C70.3456 33.1251 65.6945 31.53 63.0815 37.182C61.6976 40.1782 61.8007 42.5609 62.1338 44.0294C62.4946 45.6244 63.1925 46.5229 63.2004 46.5308L63.5335 46.9543L62.9942 47.0097C62.8792 47.0216 60.1155 47.3501 59.2591 50.7738C58.3947 54.2331 60.8412 56.596 60.865 56.6198L61.1663 56.9048L60.8015 57.0987C58.47 58.3297 55.1195 62.5845 57.5461 67.2787C59.8618 71.7592 65.9007 70.2116 65.9601 70.1958L66.2853 70.1087L66.3329 70.4412C66.3408 70.4926 67.1338 75.6697 71.3805 77.5695C75.639 79.4773 80.8769 76.2436 80.9285 76.208L81.1862 76.0457L81.3409 76.3069C81.3647 76.3425 83.6208 80.0116 87.5582 80.3045C91.5193 80.5974 94.0531 77.9693 94.0768 77.9455L94.3346 77.6764L94.3385 77.6685Z" fill="#553597"/>
<path d="M81.8762 34.4793C81.8762 34.4793 81.3171 31.1229 84.9571 31.59L81.8762 34.4793Z" fill="#F8A0C2"/>
<path d="M81.5825 34.5269C81.5706 34.4635 81.3327 32.9516 82.2605 31.9898C82.8553 31.3723 83.7752 31.1388 84.9965 31.2932L84.9211 31.8829C83.9021 31.7523 83.1487 31.9265 82.6927 32.4014C81.9711 33.1455 82.1693 34.42 82.1733 34.4319L81.5865 34.5269H81.5825Z" fill="#553597"/>
<path d="M85.2424 32.7294C85.2424 32.5909 83.8744 29.9034 85.6548 28.5815C87.4351 27.2595 88.7119 28.0353 88.7119 28.0353" fill="#F8A0C2"/>
<path d="M84.953 32.789C84.9451 32.7653 84.9292 32.7178 84.9054 32.6584C84.1402 30.6478 84.3305 29.1952 85.4764 28.3442C87.3955 26.9193 88.8071 27.7465 88.8666 27.7822L88.5573 28.2888C88.5137 28.265 87.4114 27.6476 85.8293 28.8192C84.4613 29.8324 85.2108 31.7995 85.4566 32.4447C85.5161 32.603 85.5359 32.6545 85.5359 32.7257H84.9411H85.2385L84.9491 32.7851L84.953 32.789Z" fill="#553597"/>
<path d="M88.8944 29.4448C88.8944 29.4448 87.7049 26.4684 89.8976 24.6121C91.6779 23.1081 94.4614 25.0237 94.4614 25.0237C94.4614 25.0237 94.2315 19.8744 98.9341 18.2793" fill="#F8A0C2"/>
<path d="M88.6208 29.5549C88.6089 29.5233 87.3797 26.3569 89.7112 24.3858C91.21 23.1192 93.2798 24.0058 94.1879 24.5045C94.283 23.1073 94.9055 19.3354 98.8508 17.9976L99.0412 18.5596C94.6121 20.0636 94.7588 24.8093 94.7668 25.0111L94.7906 25.6049L94.2989 25.2684C94.2711 25.2486 91.6779 23.5031 90.0919 24.841C88.0935 26.531 89.1284 29.2225 89.172 29.3373L88.6208 29.5549Z" fill="#553597"/>
<path d="M88.2638 69.8638C88.2638 69.8638 87.1893 73.1529 89.949 74.9142C92.7087 76.6755 94.8539 74.2255 94.8539 74.2255" fill="#F8A0C2"/>
<path d="M91.9674 75.8484C91.3052 75.8484 90.5677 75.6664 89.7866 75.1677C86.8683 73.3074 87.9666 69.8125 87.9785 69.7769L88.5455 69.9589C88.5059 70.0856 87.582 73.0541 90.1078 74.669C92.6137 76.264 94.5487 74.1267 94.632 74.0357L95.08 74.4275C95.08 74.4275 93.8033 75.8524 91.9714 75.8524L91.9674 75.8484Z" fill="#553597"/>
<path d="M92.9387 75.2983C92.9387 75.2983 92.8634 78.5874 96.773 79.9648L92.9387 75.2983Z" fill="#F8A0C2"/>
<path d="M96.674 80.2455C92.6098 78.8127 92.6415 75.3257 92.6415 75.29L93.2363 75.3059C93.2363 75.4325 93.2244 78.401 96.8723 79.6874L96.674 80.2455Z" fill="#553597"/>
<path d="M81.6658 50.4339C78.8823 50.4339 77.8593 48.2095 77.8157 48.1145L78.3589 47.873C78.3946 47.9522 79.2748 49.8402 81.6658 49.8402C84.0568 49.8402 84.5921 47.9324 84.6 47.9166L85.1749 48.0749C85.167 48.0987 84.485 50.4339 81.6698 50.4339H81.6658Z" fill="#553597"/>
<path d="M95.2504 50.4339C92.4669 50.4339 91.4439 48.2095 91.4003 48.1145L91.9435 47.873C91.9792 47.9522 92.8594 49.8402 95.2504 49.8402C97.6414 49.8402 98.1767 47.9324 98.1846 47.9166L98.7595 48.0749C98.7516 48.0987 98.0696 50.4339 95.2544 50.4339H95.2504Z" fill="#553597"/>
<path d="M95.2584 42.0825C91.3805 42.0825 88.2401 45.2212 88.2401 49.0882C88.2401 52.9552 91.3845 56.0939 95.2584 56.0939C99.1323 56.0939 102.277 52.9552 102.277 49.0882C102.277 45.2212 99.1323 42.0825 95.2584 42.0825ZM95.2584 54.7838C92.1101 54.7838 89.5565 52.2348 89.5565 49.0922C89.5565 45.9495 92.1101 43.4005 95.2584 43.4005C98.4067 43.4005 100.96 45.9495 100.96 49.0922C100.96 52.2348 98.4067 54.7838 95.2584 54.7838Z" fill="white"/>
<path d="M95.2583 56.3936C91.2257 56.3936 87.9426 53.1164 87.9426 49.0911C87.9426 45.0658 91.2257 41.7886 95.2583 41.7886C99.2908 41.7886 102.574 45.0658 102.574 49.0911C102.574 53.1164 99.2908 56.3936 95.2583 56.3936ZM95.2583 42.3783C91.5509 42.3783 88.5374 45.3864 88.5374 49.0871C88.5374 52.7879 91.5509 55.796 95.2583 55.796C98.9657 55.796 101.979 52.7879 101.979 49.0871C101.979 45.3864 98.9657 42.3783 95.2583 42.3783ZM95.2583 55.0796C91.9514 55.0796 89.2591 52.3921 89.2591 49.0911C89.2591 45.7901 91.9514 43.1026 95.2583 43.1026C98.5652 43.1026 101.258 45.7901 101.258 49.0911C101.258 52.3921 98.5652 55.0796 95.2583 55.0796ZM95.2583 43.6924C92.2765 43.6924 89.8538 46.1147 89.8538 49.0871C89.8538 52.0596 92.2805 54.4819 95.2583 54.4819C98.2361 54.4819 100.663 52.0596 100.663 49.0871C100.663 46.1147 98.2361 43.6924 95.2583 43.6924Z" fill="#553597"/>
<path d="M81.0117 42.0825C77.1338 42.0825 73.9934 45.2212 73.9934 49.0882C73.9934 52.9552 77.1378 56.0939 81.0117 56.0939C84.8856 56.0939 88.03 52.9552 88.03 49.0882C88.03 45.2212 84.8856 42.0825 81.0117 42.0825ZM81.0117 54.7838C77.8634 54.7838 75.3098 52.2348 75.3098 49.0922C75.3098 45.9495 77.8634 43.4005 81.0117 43.4005C84.16 43.4005 86.7135 45.9495 86.7135 49.0922C86.7135 52.2348 84.16 54.7838 81.0117 54.7838Z" fill="white"/>
<path d="M81.0117 56.3936C76.9792 56.3936 73.696 53.1164 73.696 49.0911C73.696 45.0658 76.9792 41.7886 81.0117 41.7886C85.0442 41.7886 88.3274 45.0658 88.3274 49.0911C88.3274 53.1164 85.0442 56.3936 81.0117 56.3936ZM81.0117 42.3783C77.3043 42.3783 74.2908 45.3864 74.2908 49.0871C74.2908 52.7879 77.3043 55.796 81.0117 55.796C84.7191 55.796 87.7326 52.7879 87.7326 49.0871C87.7326 45.3864 84.7191 42.3783 81.0117 42.3783ZM81.0117 55.0796C77.7048 55.0796 75.0125 52.3921 75.0125 49.0911C75.0125 45.7901 77.7048 43.1026 81.0117 43.1026C84.3186 43.1026 87.0109 45.7901 87.0109 49.0911C87.0109 52.3921 84.3186 55.0796 81.0117 55.0796ZM81.0117 43.6924C78.0299 43.6924 75.6072 46.1147 75.6072 49.0871C75.6072 52.0596 78.0339 54.4819 81.0117 54.4819C83.9895 54.4819 86.4162 52.0596 86.4162 49.0871C86.4162 46.1147 83.9895 43.6924 81.0117 43.6924Z" fill="#553597"/>
<path d="M87.3519 62.933C82.3598 62.933 79.9451 58.88 79.8459 58.7058L80.3614 58.409C80.3852 58.4486 82.7127 62.3393 87.3559 62.3393C91.9991 62.3393 94.1838 57.9459 94.2076 57.9023L94.7429 58.1636C94.7191 58.2111 92.3638 62.9369 87.3559 62.9369L87.3519 62.933Z" fill="#553597"/>
<path d="M94.5924 58.5798C94.4536 58.5798 94.3148 58.556 94.18 58.5045C93.2799 58.1562 93.1332 57.4398 93.1769 57.1113L93.7677 57.1865C93.7637 57.238 93.7359 57.6932 94.3942 57.9504C94.8065 58.1127 95.4687 57.6575 95.667 57.4873L96.0555 57.9346C95.9683 58.0098 95.2903 58.5758 94.5924 58.5758V58.5798Z" fill="#553597"/>
<path d="M79.7191 59.0898C78.9499 59.0898 78.4543 58.4921 78.4265 58.4605L78.8904 58.0884C78.9103 58.1122 79.3861 58.6703 80.0482 58.4407C80.6589 58.227 80.6906 57.4947 80.6906 57.4868L81.2854 57.5106C81.2854 57.5581 81.2299 58.6584 80.2425 59.0027C80.0562 59.0661 79.8817 59.0938 79.7191 59.0938V59.0898Z" fill="#553597"/>
<path d="M132.225 42.3081C132.225 42.3081 135.175 43.0957 135.631 45.4626C135.98 47.2675 134.901 48.4114 134.901 48.4114C134.901 48.4114 135.215 48.6884 135.282 49.6938C135.349 50.6991 134.588 51.5303 134.588 51.5303C134.588 51.5303 135.282 51.843 135.421 53.0581C135.56 54.2732 133.133 56.6915 131.043 56.3551C128.68 55.9751 127.947 54.1109 129.2 52.4248C129.2 52.4248 127.744 50.703 129.445 49.385C129.445 49.385 127.463 48.3084 128.299 46.1592C129.136 44.0101 132.086 44.5285 132.086 44.5285L132.225 42.3081Z" fill="#6F46BE" stroke="#553597" stroke-width="0.28459" stroke-miterlimit="10"/>
<path d="M131.452 56.6867C131.297 56.6867 131.147 56.6748 131 56.651C129.755 56.4492 128.831 55.8238 128.47 54.9372C128.157 54.1654 128.292 53.263 128.839 52.4318C128.629 52.1191 128.26 51.4502 128.339 50.6863C128.391 50.2114 128.601 49.7839 128.97 49.4118C128.391 48.9527 127.336 47.8286 128.026 46.0515C128.688 44.3416 130.635 44.0804 131.813 44.1912L131.956 41.9272L132.305 42.0222C132.431 42.0579 135.441 42.8851 135.925 45.4103C136.218 46.9262 135.584 48.0067 135.274 48.4263C135.393 48.644 135.536 49.0279 135.58 49.677C135.635 50.4528 135.259 51.1257 135.013 51.4779C135.274 51.7154 135.623 52.1824 135.718 53.0295C135.79 53.6509 135.338 54.5098 134.537 55.2737C133.585 56.18 132.463 56.6867 131.448 56.6867H131.452ZM131.333 44.7731C130.473 44.7731 129.073 44.9828 128.577 46.2652C127.852 48.1413 129.517 49.0833 129.588 49.1229L129.985 49.3406L129.628 49.6177C129.208 49.9422 128.97 50.3222 128.926 50.7417C128.843 51.5215 129.422 52.226 129.43 52.2339L129.58 52.412L129.442 52.602C128.906 53.3184 128.76 54.0704 129.021 54.7116C129.307 55.4122 130.044 55.8951 131.095 56.0653C132.201 56.2434 133.387 55.5507 134.128 54.8422C134.775 54.2248 135.179 53.5242 135.128 53.0967C135.013 52.0875 134.485 51.8183 134.462 51.8064L134.109 51.6323L134.37 51.3394C134.37 51.3394 135.048 50.5834 134.989 49.7206C134.933 48.8894 134.699 48.6321 134.695 48.6282L134.505 48.4263L134.688 48.2126C134.727 48.169 135.655 47.1479 135.342 45.5251C135.017 43.835 133.26 43.0038 132.503 42.7188L132.368 44.8839L132.039 44.8285C132.039 44.8285 131.745 44.781 131.337 44.781L131.333 44.7731Z" fill="#553597"/>
<path d="M129.132 52.4361C129.132 52.4361 132.574 54.3083 134.588 51.5337L129.132 52.4361Z" fill="#6F46BE"/>
<path d="M129.132 52.4361C129.132 52.4361 132.574 54.3083 134.588 51.5337" stroke="#553597" stroke-width="0.28459" stroke-miterlimit="10"/>
<path d="M131.626 53.3433C130.207 53.3433 129.009 52.71 128.989 52.6982L129.275 52.1757C129.406 52.247 132.514 53.8895 134.346 51.3604L134.826 51.7087C133.902 52.9792 132.697 53.3433 131.622 53.3433H131.626Z" fill="#553597"/>
<path d="M129.445 49.3852C129.445 49.3852 132.296 51.0159 134.901 48.4155L129.445 49.3852Z" fill="#6F46BE"/>
<path d="M129.445 49.3852C129.445 49.3852 132.296 51.0159 134.901 48.4155" stroke="#553597" stroke-width="0.28459" stroke-miterlimit="10"/>
<path d="M131.567 50.1771C130.262 50.1771 129.315 49.6507 129.299 49.6428L129.592 49.1283C129.703 49.1916 132.284 50.6086 134.691 48.2061L135.112 48.6256C133.894 49.8407 132.614 50.1811 131.567 50.1811V50.1771Z" fill="#553597"/>
<path d="M132.086 44.5283C132.086 44.5283 132.99 44.8766 133.165 45.4664L132.086 44.5283Z" fill="#6F46BE"/>
<path d="M132.879 45.5497C132.772 45.1816 132.181 44.8808 131.979 44.8056L132.193 44.2515C132.3 44.291 133.24 44.671 133.45 45.3795L132.879 45.5457V45.5497Z" fill="#553597"/>
</g>
<defs>
<clipPath id="clip0_2057_17733">
<rect width="133.208" height="116.187" fill="white" transform="translate(2.79163)"/>
</clipPath>
</defs>
</svg>
