<svg width="363" height="224" viewBox="0 0 363 224" fill="none" xmlns="http://www.w3.org/2000/svg">
<path d="M141.369 242.18C141.369 242.18 141.355 242.18 141.351 242.18C140.861 242.172 129.151 241.878 112.841 234.331C103.291 229.91 94.1538 223.899 85.6814 216.465C75.1108 207.186 65.5567 195.654 57.2803 182.183C50.4014 170.988 47.2397 159.96 47.8822 149.411C48.4231 140.485 51.7845 131.922 57.5997 124.651C62.7507 118.208 69.7203 112.908 77.2199 109.728C84.3637 106.701 91.2934 105.931 96.2266 107.612C100.996 109.238 103.672 113.064 103.762 118.378C103.781 119.475 103.77 120.509 103.733 121.486C112.355 122.92 120.675 125.319 122.312 125.802C122.889 125.972 123.219 126.579 123.049 127.156C122.878 127.733 122.272 128.063 121.695 127.893C117.771 126.735 110.612 124.894 103.599 123.711C102.888 132.067 100.093 135.559 97.6568 137.004C95.1339 138.496 91.9686 138.372 88.9666 136.666C85.0135 134.412 82.2511 129.991 82.2511 125.911C82.2511 124.419 82.8899 123.152 84.1024 122.244C87.2423 119.899 94.3208 120.103 101.563 121.155C101.592 120.277 101.599 119.366 101.581 118.422C101.508 114.03 99.4101 111.009 95.5223 109.681C86.7341 106.683 70.0797 112.53 59.2986 126.016C52.1257 134.989 42.5643 154.072 59.1352 181.05C77.5647 211.052 98.9454 225.485 113.64 232.306C129.557 239.697 141.271 240.005 141.391 240.009C141.994 240.02 142.469 240.517 142.458 241.12C142.447 241.715 141.961 242.187 141.369 242.187V242.18ZM92.3062 122.564C89.2352 122.564 86.7632 122.97 85.4055 123.983C84.7376 124.48 84.4291 125.094 84.4291 125.903C84.4291 129.185 86.7922 132.913 90.0447 134.768C91.3987 135.537 94.0413 136.608 96.546 135.124C99.2576 133.519 100.942 129.414 101.439 123.362C98.1686 122.872 95.0069 122.56 92.3098 122.56L92.3062 122.564Z" fill="#F4679D"/>
<path d="M254.287 247.153C253.848 247.153 253.434 246.888 253.271 246.452C253.056 245.889 253.336 245.261 253.899 245.047C254.008 245.007 264.785 240.844 277.232 232.578C288.67 224.981 303.905 212.261 311.521 194.804C318.248 179.395 318.081 162.69 311.024 145.161C303.535 126.553 295.52 112.69 287.204 103.956C286.79 103.525 286.387 103.111 285.988 102.719C281.138 104.178 276.245 104.004 272.15 102.21C268.317 100.533 267.224 98.0722 267.486 96.3298C267.751 94.5511 269.322 93.2806 271.584 93.012C273.613 92.7724 278.891 93.081 286.55 100.243C290.489 98.7946 293.894 96.2464 295.782 93.2516C298.947 88.2313 297.633 82.8226 292.079 78.0274C291.854 77.835 291.632 77.6462 291.407 77.4647C286.402 81.6501 276.59 81.3198 272.147 80.9169C267.867 80.5285 266.611 78.8877 266.31 77.5845C265.903 75.8058 267.123 73.8601 269.58 72.3827C274.564 69.3807 283.153 68.9851 291.161 74.5607C291.288 74.3829 291.404 74.1977 291.509 74.009C293.204 70.9452 291.745 66.2335 287.295 60.3892C274.484 43.575 246.86 49.9747 246.584 50.0437C246 50.1853 245.412 49.8223 245.27 49.2378C245.129 48.6534 245.488 48.0654 246.072 47.9238C246.37 47.8512 253.434 46.1814 262.277 46.6714C274.096 47.3285 283.345 51.6155 289.026 59.0679C294.115 65.7471 295.593 71.1267 293.415 75.0617C293.259 75.3448 293.084 75.6171 292.899 75.8748C293.099 76.0381 293.302 76.2087 293.502 76.3794C299.876 81.8824 301.379 88.4564 297.626 94.4132C295.629 97.5822 292.271 100.254 288.257 101.913C288.431 102.091 288.605 102.272 288.783 102.457C297.292 111.391 305.456 125.486 313.049 144.351C320.331 162.447 320.491 179.722 313.518 195.69C305.677 213.648 290.09 226.669 278.394 234.43C265.754 242.818 254.792 247.047 254.679 247.087C254.552 247.135 254.421 247.16 254.291 247.16L254.287 247.153ZM272.491 95.1392C272.223 95.1392 272.005 95.1537 271.838 95.1755C270.593 95.3243 269.751 95.887 269.638 96.6493C269.493 97.6221 270.484 99.1032 273.021 100.214C276.528 101.749 280.459 101.847 284.118 100.976C278.318 95.8579 274.288 95.1392 272.491 95.1392ZM278.194 72.4081C274.92 72.4081 272.259 73.3084 270.702 74.2449C268.938 75.3085 268.288 76.4665 268.429 77.0945C268.575 77.7333 269.682 78.5065 272.339 78.7461C278.593 79.316 285.806 78.8223 289.578 76.1071C285.494 73.341 281.527 72.4081 278.194 72.4081Z" fill="#F4679D"/>
<path d="M170.952 77.3559L169.5 81.1674V82.9823L170.952 84.0713C171.557 84.9788 172.767 86.9027 172.767 87.3383C172.767 87.8828 172.404 89.8793 172.223 90.2423C172.078 90.5327 171.678 92.1783 171.497 92.9648L170.226 96.9578L171.497 100.043L172.767 104.399L173.675 109.3L172.767 112.022C172.162 112.99 170.916 114.963 170.771 115.108C170.626 115.253 169.137 126.179 168.411 131.624C168.109 133.621 167.431 137.795 167.141 138.521C166.778 139.429 167.141 143.785 167.141 144.148C167.141 144.511 168.411 153.041 168.411 153.404C168.411 153.695 170.952 163.447 172.223 168.287C172.465 168.953 173.021 170.429 173.312 171.01C173.675 171.736 175.49 174.64 176.034 175.003C176.579 175.366 178.394 178.088 179.483 178.633C180.572 179.177 183.657 180.811 185.291 181.355C186.924 181.9 187.832 182.807 190.01 182.807C192.188 182.807 195.273 182.989 197.996 182.807C200.718 182.626 205.074 182.263 206.708 182.081C208.341 181.9 211.608 180.811 213.605 179.722C215.601 178.633 216.327 178.27 217.961 176.818C219.268 175.656 220.804 173.188 221.409 172.099C223.527 163.568 227.871 146.108 228.306 144.511C228.488 143.785 229.032 139.61 229.032 138.884V134.347C228.246 134.105 226.346 133.439 225.039 132.713C223.406 131.806 222.135 132.532 221.591 132.713C221.155 132.859 221.409 127.329 221.591 124.546V121.46V117.104L223.406 114.926L228.851 106.577C228.79 106.093 228.597 104.871 228.306 103.855C227.943 102.584 227.217 100.769 227.036 100.406C226.854 100.043 226.128 98.5913 225.584 97.6838C225.039 96.7763 223.95 95.1428 223.406 94.2353C222.861 93.3278 222.861 91.5128 222.861 91.1498C222.861 90.7868 222.68 86.6123 222.861 86.0678C223.007 85.6322 224.011 84.9183 224.495 84.6158L226.128 82.9823L225.584 80.8043L224.495 77.3559C224.192 76.6298 223.551 75.1415 223.406 74.9963C223.224 74.8148 222.68 74.6333 221.772 74.0889C220.865 73.5444 217.598 70.8218 216.872 70.2774C216.146 69.7329 215.42 68.8253 214.512 68.0993C213.786 67.5185 211.427 65.4373 210.338 64.4693C208.644 62.7148 205.22 59.1333 205.074 58.8429C204.893 58.4799 202.896 59.9319 202.533 60.1134C202.17 60.2949 199.629 63.0174 198.722 63.3804C197.814 63.7434 195.818 66.1029 195.455 66.2844C195.164 66.4296 193.277 69.0069 192.369 70.2774C192.067 70.5799 191.389 71.2212 191.099 71.3664C190.736 71.5479 188.558 72.6369 187.65 72.8184C186.743 72.9999 183.113 73.9074 181.298 74.0889C179.483 74.2704 175.49 75.7224 174.945 75.7224C174.51 75.7224 172.102 76.8114 170.952 77.3559Z" fill="white"/>
<path d="M166.224 105.06L158.896 136.329C158.896 136.329 178.625 131.947 179.456 130.463C180.287 128.978 181.205 114.436 181.205 114.436C181.205 114.436 175.056 108.254 173.223 103.637C171.39 99.0196 171.568 94.9431 170.715 96.1047C169.862 97.2663 166.224 105.06 166.224 105.06Z" fill="#CE497F"/>
<path d="M228.119 103.637C228.119 103.637 232.559 115.137 234.537 117.482C236.515 119.827 237.456 120.172 237.942 121.206C238.428 122.241 240.664 138.242 240.011 138.18C239.358 138.118 220.514 133.298 220.326 132.434C220.137 131.57 217.556 115.358 219.277 113.997C220.997 112.636 228.119 103.633 228.119 103.633V103.637Z" fill="#CE497F"/>
<path d="M146.503 245.439C146.713 243.134 136.451 215.488 137.707 207.738C137.871 206.736 138.313 205.528 138.971 204.17C143.374 195.033 157.208 179.301 157.393 176.745C157.589 174.019 156.155 142.126 155.955 137.679C155.937 137.342 155.93 137.164 155.93 137.164L158.896 136.329H158.903L169.542 133.323C169.542 133.323 166.333 178.912 197.261 178.978H197.326C228.254 178.912 225.049 133.323 225.049 133.323L238.661 137.164C238.661 137.164 238.643 137.578 238.61 138.322C238.327 144.569 237.006 174.124 237.195 176.745C237.383 179.355 251.813 195.708 255.886 204.743C256.394 205.869 256.742 206.882 256.88 207.738C258.136 215.488 247.874 243.134 248.085 245.439C248.295 247.741 249.341 251.509 256.88 270.149C264.42 288.789 272.587 328.998 272.587 328.998H122.004C122.004 328.998 130.168 288.789 137.707 270.149C145.25 251.509 146.296 247.741 146.503 245.439Z" fill="#F4679D"/>
<path d="M242.759 71.5401C241.166 71.1589 240.189 72.1063 240.189 72.1063C240.189 72.1063 232.334 60.5157 229.753 59.8333C227.172 59.1509 227.056 65.2892 227.056 65.2892C227.056 65.2892 223.891 62.4469 221.898 64.4906C220.685 65.7357 222.584 72.2951 224.257 77.2428C214.881 72.9848 203.156 60.759 203.156 60.759C203.156 60.759 197.37 69.9102 184.073 73.9359C178.457 75.6347 173.993 76.7382 170.715 77.4461C172.406 72.4802 174.374 65.7538 173.143 64.4906C171.15 62.4469 167.985 65.2892 167.985 65.2892C167.985 65.2892 167.869 59.1509 165.288 59.8333C164.696 59.9894 163.821 60.7263 162.827 61.7645C163.458 51.9889 166.039 40.3547 172.57 34.4088C185.456 22.6657 202.739 31.6718 202.739 31.6718C202.739 31.6718 212.325 21.3952 227.956 34.0167C241.456 44.9176 243.598 63.4306 242.759 71.5401Z" fill="#CE497F"/>
<path d="M198.1 121.217C184.077 121.217 174.243 112.897 169.659 97.1389C169.492 96.5617 169.822 95.9555 170.399 95.7885C170.976 95.6215 171.582 95.9518 171.749 96.529C176.124 111.554 185.079 119.126 198.328 119.035C211.861 118.941 221.56 113.586 227.158 103.121C227.441 102.591 228.102 102.391 228.632 102.675C229.162 102.958 229.361 103.618 229.078 104.148C223.078 115.372 212.736 121.115 198.343 121.213C198.259 121.213 198.179 121.213 198.096 121.213L198.1 121.217Z" fill="#CE497F"/>
<path d="M231.281 136.673C231.194 136.673 231.103 136.663 231.013 136.641L219.001 133.602L217.807 115.514C217.767 114.915 218.22 114.396 218.823 114.356C219.426 114.316 219.941 114.77 219.981 115.373L221.07 131.882L231.546 134.532C232.131 134.681 232.483 135.272 232.334 135.853C232.21 136.347 231.768 136.677 231.278 136.677L231.281 136.673Z" fill="#CE497F"/>
<path d="M179.377 132.252C179.333 132.252 179.293 132.252 179.25 132.244C178.651 132.175 178.226 131.634 178.295 131.035L180.124 115.318C180.193 114.719 180.734 114.29 181.333 114.363C181.932 114.432 182.357 114.973 182.288 115.572L180.458 131.29C180.393 131.845 179.925 132.252 179.377 132.252Z" fill="#CE497F"/>
<path d="M170.715 78.5352C170.189 78.5352 169.724 78.1505 169.641 77.6132C169.55 77.0179 169.956 76.4625 170.548 76.3681C170.711 76.3427 187.054 73.7473 193.399 68.4511C193.86 68.0663 194.546 68.128 194.934 68.589C195.319 69.05 195.258 69.7361 194.797 70.1245C187.987 75.8127 171.579 78.4154 170.882 78.5243C170.824 78.5316 170.77 78.5389 170.715 78.5389V78.5352Z" fill="#CE497F"/>
<path d="M223.026 50.0688C222.623 50.0688 222.231 49.8437 222.046 49.4553C217.828 40.7288 202.666 36.6232 202.513 36.5833C201.932 36.4308 201.584 35.8319 201.74 35.2511C201.892 34.6703 202.491 34.3218 203.072 34.4779C203.736 34.6521 219.36 38.892 224.01 48.5079C224.271 49.0487 224.046 49.7021 223.502 49.9635C223.349 50.0361 223.186 50.0724 223.03 50.0724L223.026 50.0688Z" fill="#CE497F"/>
<path d="M209.731 63.2128C209.371 63.2128 209.019 63.0349 208.812 62.7082C205.502 57.5064 203.647 49.5603 203.567 49.2264C203.433 48.6419 203.796 48.0575 204.384 47.9196C204.968 47.7853 205.556 48.1483 205.691 48.7363C205.709 48.8162 207.545 56.657 210.653 61.5393C210.976 62.0475 210.827 62.7191 210.319 63.0422C210.137 63.1583 209.934 63.2128 209.734 63.2128H209.731Z" fill="#CE497F"/>
<path d="M213.981 86.0052C214.069 83.9923 213.237 82.3207 212.121 82.2716C211.005 82.2226 210.029 83.8145 209.941 85.8274C209.852 87.8402 210.685 89.5118 211.8 89.5609C212.916 89.61 213.892 88.018 213.981 86.0052Z" fill="#CE497F"/>
<path d="M186.451 84.7923C186.539 82.7794 185.707 81.1078 184.591 81.0587C183.476 81.0096 182.499 82.6016 182.411 84.6145C182.322 86.6273 183.155 88.2989 184.27 88.348C185.386 88.3971 186.362 86.8051 186.451 84.7923Z" fill="#CE497F"/>
<path d="M199.121 100.54C199.121 100.54 199.095 100.54 199.085 100.54C194.689 100.395 191.436 98.7937 189.89 97.8499C189.265 97.4724 188.881 96.8626 188.833 96.1801C188.786 95.5159 189.066 94.8806 189.607 94.4377C192.79 91.8169 196.507 86.0053 192.932 81.5803C189.313 77.1009 182.869 79.758 182.597 79.8706C182.045 80.1065 181.406 79.8451 181.171 79.2934C180.935 78.7416 181.192 78.1027 181.744 77.8668C182.078 77.7252 189.966 74.4437 194.627 80.2118C198.667 85.2103 195.836 92.0637 191.099 96.0313C192.492 96.8662 195.331 98.2311 199.161 98.3618C199.763 98.3836 200.232 98.8845 200.214 99.4871C200.195 100.075 199.709 100.54 199.125 100.54H199.121Z" fill="#CE497F"/>
<path d="M218.32 82.0737C218.052 82.0737 217.783 81.9757 217.573 81.776C217.348 81.5619 212.149 76.7557 206.585 79.6343C206.051 79.9102 205.394 79.7033 205.118 79.1661C204.842 78.6325 205.049 77.9754 205.586 77.6995C212.541 74.1022 218.811 79.9465 219.076 80.197C219.511 80.6108 219.529 81.3005 219.115 81.7361C218.901 81.9612 218.614 82.0737 218.328 82.0737H218.32Z" fill="#CE497F"/>
<path d="M216.7 101.211C219.315 101.211 221.434 99.427 221.434 97.2257C221.434 95.0245 219.315 93.24 216.7 93.24C214.086 93.24 211.967 95.0245 211.967 97.2257C211.967 99.427 214.086 101.211 216.7 101.211Z" fill="#F4679D"/>
<path d="M178.353 101.211C180.967 101.211 183.086 99.427 183.086 97.2257C183.086 95.0245 180.967 93.24 178.353 93.24C175.738 93.24 173.619 95.0245 173.619 97.2257C173.619 99.427 175.738 101.211 178.353 101.211Z" fill="#F4679D"/>
<path d="M205.763 109.684C205.266 109.684 204.816 109.339 204.703 108.835C204.674 108.718 203.857 105.713 198.892 105.713C193.926 105.713 192.637 108.824 192.59 108.954C192.387 109.513 191.766 109.815 191.203 109.615C190.641 109.415 190.339 108.809 190.532 108.243C190.597 108.05 192.209 103.535 198.892 103.535C205.574 103.535 206.783 108.156 206.827 108.355C206.957 108.943 206.591 109.524 206.003 109.659C205.923 109.677 205.843 109.684 205.763 109.684Z" fill="#CE497F"/>
<path d="M163.437 136.488C162.954 136.488 162.515 136.165 162.384 135.678C162.228 135.097 162.577 134.502 163.158 134.346L179.093 130.106C179.674 129.954 180.269 130.299 180.426 130.879C180.582 131.46 180.233 132.055 179.652 132.212L163.717 136.451C163.622 136.477 163.528 136.488 163.437 136.488Z" fill="#CE497F"/>
<path d="M195.795 140.234H179.377C178.774 140.234 178.288 139.748 178.288 139.145C178.288 138.542 178.774 138.056 179.377 138.056H195.795C196.398 138.056 196.884 138.542 196.884 139.145C196.884 139.748 196.398 140.234 195.795 140.234Z" fill="#CE497F"/>
<path d="M157.722 175.852L156.452 141.004L155.726 138.1L155.544 134.833L156.27 128.48C156.21 126 156.452 120.785 157.904 119.768C159.356 118.752 162.139 114.142 163.349 111.964L169.338 99.4405L169.883 97.9885C170.246 97.202 170.972 95.5201 170.972 95.0845C170.972 94.54 171.879 92.725 171.879 92.362C171.879 91.999 172.605 89.821 172.605 89.458C172.605 89.095 171.879 86.917 171.879 86.3725C171.879 85.828 171.335 85.102 170.972 84.739C170.682 84.4486 170.125 84.013 169.883 83.8315L168.794 83.1055L171.335 76.2085C171.516 75.6035 171.879 74.2846 171.879 73.849C171.879 73.4134 172.363 72.0945 172.605 71.4895L174.602 65.5C174.057 64.774 172.896 63.322 172.605 63.322C172.242 63.322 170.609 63.685 170.246 63.685C169.956 63.685 168.794 63.443 168.249 63.322V61.507C168.249 61.2166 167.281 60.055 166.797 59.5105H165.164L160.989 63.322L158.993 66.0445L156.27 70.4005L154.092 71.4895H152.64L151.007 72.5785L149.192 74.3935L146.832 78.3865L143.565 84.1945C142.96 85.4045 141.714 87.8608 141.569 88.006C141.424 88.1512 140.782 90.7285 140.48 91.999L138.846 99.622L137.576 106.337V110.694L136.85 113.416L129.953 125.758L113.255 156.068L103.454 179.482C102.304 182.81 101.24 191.352 106.176 198.902C111.113 206.453 120.091 207.736 123.963 207.433L138.846 203.803L139.754 202.533L155.544 180.39L157.722 175.852Z" fill="white"/>
<path d="M122.166 209.128C117.69 209.128 111.559 206.878 106.993 201.999C101.435 196.057 99.7908 187.907 102.361 179.05C108.129 159.194 133.902 116.204 136.232 112.334C136.407 110.338 137.539 97.927 139.416 91.6108C141.365 85.0477 147.594 72.9526 150.397 71.1884C152.048 70.1466 153.518 70.2555 154.524 70.6548C155.885 68.6946 159.348 63.8231 162.034 61.0135C163.319 59.674 164.234 58.9843 165.004 58.781C165.762 58.5814 166.488 58.7193 167.098 59.1767C168.216 60.0189 168.699 61.8774 168.91 63.3476C170.434 62.5671 172.416 62.1932 173.919 63.7287C174.547 64.3749 175.857 65.718 171.741 77.795C171.073 79.7661 170.452 81.4504 170.079 82.4378C171.454 83.2799 173.879 85.2111 173.879 88.3547C173.879 91.9883 168.314 103.299 167.2 105.532L166.96 106.011C166.666 106.643 165.933 108.247 164.129 112.324C161.628 117.975 159.294 120.157 158.205 120.923C158.092 122.68 157.675 128.332 156.542 136.194L156.963 135.995L157.04 137.73C157.649 151.295 158.644 174.411 158.47 176.821C158.372 178.179 156.52 180.767 151.649 187.272C147.478 192.844 142.284 199.778 139.942 204.642L139.721 205.103L124.46 208.896C123.763 209.049 122.99 209.125 122.159 209.125L122.166 209.128ZM153.047 72.5351C152.655 72.5351 152.154 72.6549 151.562 73.0288C149.627 74.2485 143.496 85.5487 141.51 92.2315C139.572 98.751 138.4 112.632 138.385 112.77L138.363 113.024L138.233 113.242C137.953 113.703 110.292 159.572 104.455 179.653C101.443 190.02 105.04 196.717 108.586 200.507C113.273 205.517 120.09 207.629 123.974 206.776L138.218 203.237C140.745 198.22 145.816 191.447 149.918 185.969C152.84 182.067 156.15 177.645 156.31 176.654C156.426 175.054 155.914 161.151 154.941 139.371L153.787 139.919L154.096 137.893C155.7 127.384 156.067 120.317 156.07 120.244L156.103 119.576L156.717 119.304C156.717 119.304 159.258 117.983 162.147 111.449C163.374 108.679 164.256 106.701 164.779 105.568C164.975 105.143 165.124 104.82 165.262 104.581H165.254C167.49 100.105 171.708 90.9755 171.708 88.3619C171.708 85.4688 168.325 83.9587 168.293 83.9442L167.331 83.5231L167.73 82.5104C167.89 82.1038 168.739 79.8931 169.686 77.1017C173.048 67.2317 172.427 65.4094 172.344 65.2352C171.109 64.0228 168.739 66.0846 168.714 66.1064L166.942 67.6963L166.899 65.315C166.87 63.7977 166.467 61.4273 165.795 60.9191C165.748 60.8828 165.708 60.8538 165.57 60.8901C165.516 60.9046 165.007 61.0716 163.617 62.5236C160.397 65.8886 155.802 72.6549 155.758 72.7239L155.032 73.7984L154.099 72.8945C154.012 72.8146 153.653 72.5387 153.054 72.5387L153.047 72.5351ZM166.26 106.149H166.22C166.22 106.149 166.245 106.149 166.26 106.149Z" fill="#CE497F"/>
<path d="M160.949 99.8287C160.789 99.8287 160.622 99.7924 160.47 99.7162C159.929 99.4512 159.707 98.7978 159.972 98.2569L168.299 81.3412C168.564 80.8003 169.218 80.5788 169.759 80.8438C170.3 81.1088 170.521 81.7622 170.256 82.3031L161.929 99.2189C161.74 99.6037 161.352 99.8287 160.952 99.8287H160.949Z" fill="#CE497F"/>
<path d="M155.63 93.7667C155.482 93.7667 155.329 93.734 155.184 93.6686C154.636 93.4218 154.393 92.7757 154.639 92.2275L166.992 64.8392C167.239 64.2911 167.885 64.0478 168.433 64.2947C168.982 64.5415 169.225 65.1877 168.978 65.7358L156.625 93.1241C156.444 93.5271 156.048 93.7667 155.63 93.7667Z" fill="#CE497F"/>
<path d="M148.712 87.0621C148.563 87.0621 148.414 87.033 148.273 86.9677C147.721 86.7245 147.474 86.082 147.717 85.5302L153.855 71.6636C154.099 71.1119 154.741 70.865 155.293 71.1082C155.845 71.3514 156.092 71.9939 155.848 72.5457L149.71 86.4123C149.528 86.8189 149.133 87.0621 148.715 87.0621H148.712Z" fill="#CE497F"/>
<path d="M237.401 175.308L238.671 140.46V137.375L239.579 133.382L238.25 128.118C238.31 125.638 239.034 120.786 237.582 119.769C236.13 118.753 232.44 114.324 231.23 112.146L226.815 99.4412L226.271 97.9892C225.908 97.2027 224.696 95.5208 224.696 95.0852C224.696 94.5407 223.607 92.7257 223.607 92.3627C223.607 91.9997 223.295 89.9181 223.062 89.6402C222.757 89.2772 223.244 87.6437 223.244 87.0992C223.244 86.5547 224.819 85.1027 225.182 84.7397C225.472 84.4493 226.029 84.0137 226.271 83.8322L226.874 82.9247L224.333 76.3907C224.151 75.7857 223.607 74.2853 223.607 73.8497C223.607 73.4141 222.941 72.0952 222.699 71.4902L221.552 65.5007C222.096 64.7747 223.258 63.3227 223.548 63.3227C223.911 63.3227 225.545 63.6857 225.908 63.6857C226.198 63.6857 227.36 63.4437 227.904 63.3227V61.5077C227.904 61.2173 228.872 60.0557 229.356 59.5112H230.99L235.164 63.3227L237.161 66.0452L239.883 70.4012L242.061 71.4902H243.513L245.147 72.5792L246.962 74.3942L249.321 78.3872L252.588 84.1952C253.193 85.4052 253.59 87.68 253.736 87.8252C253.881 87.9704 255.371 90.7292 255.674 91.9997L257.307 99.6227L257.91 106.338L258.578 110.694L258.455 112.146L259.304 113.417L266.201 125.759L282.899 156.069L292.7 179.483C293.85 182.81 294.914 191.353 289.978 198.903C285.041 206.454 278.843 208.644 274.971 208.341L256.821 204.893L255.188 202.715L239.76 180.39L237.401 175.308Z" fill="white"/>
<path d="M274.651 209.833C273.766 209.833 272.702 209.702 272.444 209.669L272.343 209.651L255.115 205.687L254.893 205.194C252.693 200.311 247.277 193.08 242.925 187.269C238.057 180.767 236.206 178.183 236.108 176.825C235.919 174.193 237.143 146.653 237.524 138.275L237.596 136.67L238.627 137.138C237.393 128.786 236.947 122.756 236.83 120.93C235.741 120.161 233.407 117.983 230.906 112.331C229.109 108.269 228.376 106.661 228.078 106.026L227.842 105.55C226.724 103.31 221.16 91.9993 221.16 88.362C221.16 85.2148 223.584 83.2873 224.96 82.4415C224.575 81.4214 223.918 79.6391 223.225 77.5954C219.203 65.6999 220.495 64.3713 221.116 63.7325C222.615 62.1933 224.597 62.5672 226.125 63.3477C226.336 61.8812 226.819 60.019 227.937 59.1768C228.547 58.7158 229.269 58.5779 230.031 58.7811C232.558 59.4491 238.134 67.1955 240.515 70.6549C241.168 70.3935 242.029 70.2483 243.012 70.4842C243.553 70.6149 244.101 70.8509 244.638 71.1885C247.441 72.9527 253.67 85.0514 255.619 91.6145C257.496 97.9307 258.632 110.342 258.806 112.338C261.137 116.208 286.91 159.198 292.674 179.054C295.811 189.85 293.023 197.099 290.133 201.277C286.844 206.032 281.632 209.237 276.532 209.64C276.187 209.666 275.835 209.724 275.464 209.782L275.406 209.793C275.192 209.825 274.931 209.84 274.651 209.84V209.833ZM272.778 207.513C273.497 207.604 274.651 207.698 275.069 207.633L275.127 207.622C275.523 207.56 275.933 207.495 276.361 207.462C280.826 207.11 285.418 204.264 288.344 200.032C290.965 196.242 293.48 189.628 290.583 179.653C284.754 159.568 257.089 113.703 256.81 113.242L256.679 113.024L256.657 112.77C256.647 112.632 255.467 98.7511 253.528 92.2316C251.543 85.5524 245.412 74.2486 243.477 73.0289C243.143 72.8183 242.816 72.6731 242.504 72.6005C241.56 72.3755 240.99 72.851 240.929 72.9055L239.996 73.8093L239.284 72.7203C235.614 67.308 230.823 61.2459 229.472 60.8902C229.334 60.8539 229.294 60.8829 229.247 60.9192C228.576 61.4274 228.173 63.7978 228.144 65.3151L228.097 67.6928L226.329 66.1065C226.307 66.0883 223.926 64.0337 222.702 65.2353C222.619 65.4095 222.013 67.2064 225.291 76.9021C226.347 80.0239 227.323 82.5286 227.334 82.554L227.715 83.5305L226.757 83.9515C226.724 83.9661 223.341 85.5016 223.341 88.3693C223.341 90.9865 227.559 100.112 229.788 104.574H229.781C229.922 104.817 230.071 105.143 230.271 105.575C230.79 106.708 231.676 108.686 232.903 111.456C235.796 117.99 238.33 119.311 238.355 119.322L238.965 119.595L238.976 120.252C238.979 120.324 239.368 127.798 241.088 138.815L241.404 140.848L239.629 140.006C238.907 156.083 238.144 174.745 238.286 176.676C238.446 177.653 241.753 182.074 244.675 185.973C248.951 191.679 254.236 198.739 256.654 203.811L272.785 207.524L272.778 207.513Z" fill="#CE497F"/>
<path d="M234.093 99.8294C233.69 99.8294 233.306 99.6044 233.117 99.2196L224.79 82.3038C224.525 81.7629 224.746 81.1131 225.287 80.8445C225.824 80.5795 226.478 80.801 226.746 81.3418L235.073 98.2576C235.338 98.7985 235.117 99.4483 234.576 99.7169C234.42 99.7931 234.257 99.8294 234.097 99.8294H234.093Z" fill="#CE497F"/>
<path d="M239.408 93.7668C238.994 93.7668 238.595 93.5272 238.414 93.1243L226.061 65.7359C225.814 65.1878 226.061 64.5416 226.605 64.2948C227.153 64.048 227.799 64.2948 228.046 64.8393L240.399 92.2277C240.646 92.7758 240.399 93.4219 239.855 93.6688C239.71 93.7341 239.557 93.7668 239.408 93.7668Z" fill="#CE497F"/>
<path d="M246.326 87.0628C245.908 87.0628 245.509 86.8196 245.331 86.413L239.193 72.5464C238.949 71.9947 239.196 71.3522 239.748 71.109C240.3 70.8657 240.942 71.1126 241.186 71.6643L247.324 85.5309C247.567 86.0827 247.32 86.7252 246.769 86.9684C246.623 87.0301 246.474 87.0628 246.329 87.0628H246.326Z" fill="#CE497F"/>
<path d="M197.37 187.472C183.137 187.472 175.961 181.188 172.443 175.878C168.581 170.048 168.203 164.243 168.192 164C168.156 163.401 168.617 162.886 169.216 162.85C169.815 162.817 170.331 163.274 170.367 163.873C170.37 163.939 170.744 169.416 174.313 174.752C179.072 181.871 187.025 185.414 197.911 185.29C198.51 185.294 199.008 185.766 199.011 186.368C199.015 186.971 198.536 187.465 197.933 187.468C197.744 187.468 197.555 187.468 197.37 187.468V187.472Z" fill="#CE497F"/>
<path d="M135.355 190.833C135.036 190.833 134.72 190.691 134.506 190.423C134.132 189.955 134.205 189.268 134.677 188.891C151.701 175.271 154.064 138.358 154.086 137.984C154.123 137.385 154.642 136.927 155.237 136.96C155.836 136.996 156.297 137.512 156.261 138.111C156.253 138.205 155.673 147.741 152.925 158.871C149.211 173.921 143.53 184.593 136.034 190.59C135.835 190.749 135.595 190.829 135.355 190.829V190.833Z" fill="#CE497F"/>
<path d="M249.54 180.793C249.144 180.793 248.763 180.575 248.571 180.201C240.403 164.24 238.98 140.057 238.922 139.033C238.889 138.434 239.35 137.919 239.949 137.886C240.548 137.85 241.064 138.314 241.096 138.913C241.111 139.16 242.552 163.663 250.509 179.21C250.781 179.744 250.571 180.401 250.037 180.677C249.877 180.756 249.71 180.796 249.543 180.796L249.54 180.793Z" fill="#CE497F"/>
<path d="M138.891 100.541C138.419 100.541 137.984 100.232 137.846 99.7567L131.581 78.2199C131.559 78.1436 130.597 74.9601 129.003 70.7094C127.504 72.0053 125.881 73.0979 124.219 73.9074C123.159 74.7786 121.892 75.4683 120.469 75.9076C115.645 77.3995 108.948 75.8749 104.631 67.1157C103.909 65.6528 103.361 64.1573 102.969 62.6653C101.691 61.943 100.631 60.6906 99.8035 58.9264C97.4586 53.9134 98.1483 49.6155 101.695 47.1289C102.693 46.4283 103.851 45.9201 105.103 45.5934C105.245 45.372 105.394 45.1615 105.543 44.9546C107.147 42.7766 109.049 41.7384 110.904 42.0324C111.891 42.1885 113.151 42.7802 114.284 44.5081C115.467 44.0688 116.701 43.7712 117.932 43.6223C117.983 43.6151 118.033 43.6115 118.084 43.6042C117.837 42.3773 117.968 40.9398 118.621 39.23C120.215 35.0628 122.676 34.3985 124.005 34.3731C126.568 34.3295 129.13 36.4241 130.531 39.7201C130.88 40.5405 131.156 41.4552 131.326 42.4281C132.02 41.9562 132.702 41.5351 133.367 41.1757C137.465 38.9651 141.309 39.662 143.65 43.0415C147.208 48.1744 146.017 58.0334 138.579 64.5275C136.154 66.6438 133.773 67.8962 131.464 68.2809C131.225 68.5532 130.978 68.8182 130.728 69.0795C132.484 73.686 133.566 77.2616 133.671 77.61L139.94 99.1541C140.107 99.7312 139.777 100.337 139.2 100.504C139.098 100.533 138.997 100.548 138.895 100.548L138.891 100.541ZM112.672 65.1664C112.247 66.4187 112.389 67.907 113.1 69.5551C114.276 72.2776 116.342 73.5009 119.242 73.1851C119.38 73.1705 119.514 73.1524 119.652 73.1306C117.837 72.4409 115.779 70.6767 113.667 66.9669C113.3 66.3244 112.97 65.7254 112.672 65.1664ZM105.459 63.3913C105.764 64.3206 106.138 65.2463 106.584 66.1538C108.378 69.7946 110.606 71.9944 112.875 73.1597C112.164 72.4191 111.568 71.5044 111.1 70.419C109.851 67.5223 109.993 64.8361 111.485 62.767C111.336 62.4294 111.202 62.1099 111.089 61.8086C109.1 62.894 107.216 63.5002 105.463 63.395L105.459 63.3913ZM114.08 63.1481C114.465 63.9177 114.952 64.8215 115.558 65.8888C117.242 68.8472 119.848 72.1541 122.709 71.1123C123.54 70.811 124.324 70.1831 125.032 69.3119C125.308 68.6512 125.475 67.9506 125.522 67.2355C123.478 66.1211 121.54 64.2008 119.714 61.4892C117.612 61.3585 115.478 61.9684 114.08 63.1445V63.1481ZM128.161 68.535L128.15 68.5568C128.15 68.5568 128.161 68.5459 128.165 68.5423V68.535H128.161ZM129.591 66.2118C129.845 66.2227 130.107 66.2227 130.365 66.2046C132.317 63.8269 133.766 61.1081 134.274 58.4727C134.837 55.5433 133.399 53.8807 130.619 52.3815C131.381 56.959 130.833 61.8486 129.406 65.7653C129.468 65.9142 129.53 66.063 129.591 66.2118ZM130.317 49.7825C134.093 51.5503 137.36 53.9533 136.412 58.8829C136.002 61.0246 135.065 63.188 133.769 65.2172C134.866 64.6655 135.991 63.8886 137.138 62.8831C144.296 56.6359 144.474 48.0655 141.853 44.2794C140.158 41.8328 137.508 41.4117 134.394 43.0887C133.483 43.5824 132.51 44.2213 131.497 44.9727C131.446 46.5409 131.087 48.178 130.317 49.7825ZM123.188 62.5238C123.732 63.1481 124.284 63.6962 124.847 64.1609C124.404 63.424 123.801 62.8976 123.188 62.5238ZM126.27 58.9046C126.887 60.1098 127.471 61.3476 128.03 62.5782C128.782 59.4201 129 55.8409 128.448 52.6102C128.226 52.868 127.987 53.1221 127.736 53.3762C126.709 54.4034 125.656 55.2093 124.607 55.8409C124.821 56.2112 125.036 56.5887 125.246 56.9699C125.58 56.8464 125.878 56.7303 126.139 56.625C126.695 56.3963 127.33 56.6649 127.559 57.2203C127.787 57.7757 127.519 58.4146 126.963 58.6397C126.901 58.6651 126.658 58.7631 126.273 58.9083L126.27 58.9046ZM104.842 61.1008C104.915 61.1189 104.987 61.1371 105.06 61.1516C106.327 61.4021 107.833 61.0028 109.485 60.1679C109.419 60.1316 109.358 60.0917 109.296 60.0517C107.521 58.9337 106.544 57.155 106.403 54.7628C106.221 51.7535 107.514 49.2343 109.55 47.3504C108.487 47.2959 107.448 47.3612 106.479 47.5355C104.646 50.8751 103.767 55.9498 104.846 61.1008H104.842ZM122.97 59.9936C123.685 60.2732 124.331 60.6289 124.898 61.0536C124.665 60.5744 124.426 60.0989 124.186 59.627C123.809 59.7468 123.402 59.8702 122.97 59.9936ZM116.178 58.2839C115.805 58.5852 115.431 58.8792 115.06 59.1624C116.048 59.1406 117.082 59.0317 118.117 58.8683C117.983 58.6251 117.848 58.3747 117.714 58.1206C117.173 58.1895 116.661 58.2404 116.178 58.2839ZM103.633 48.4938C103.39 48.6245 103.161 48.7661 102.943 48.9185C100.272 50.7916 99.8689 53.9352 101.775 58.0117C101.942 58.3674 102.116 58.6941 102.301 58.9918C101.909 55.144 102.468 51.4668 103.633 48.4974V48.4938ZM119.946 57.7176C120.077 57.9608 120.211 58.1968 120.342 58.4255C121.333 58.1968 122.28 57.9354 123.144 57.6741C122.985 57.3909 122.825 57.1114 122.665 56.8355C121.736 57.2312 120.825 57.5144 119.946 57.7213V57.7176ZM112.509 47.7968C110.091 49.3505 108.403 51.7027 108.581 54.6321C108.683 56.3056 109.296 57.4744 110.461 58.2077C110.523 58.2476 110.585 58.2839 110.65 58.3202C110.694 58.1823 110.752 58.0552 110.817 57.9282C111.554 56.5234 113.209 56.3528 115.307 56.1713C115.656 55.8881 116.001 55.5977 116.349 55.3037C115.387 53.1692 114.465 50.7771 113.583 48.1308C113.583 48.1235 113.579 48.1163 113.576 48.1127C113.224 47.9929 112.868 47.8876 112.509 47.7968ZM120.966 54.1493C120.411 54.6503 119.863 55.144 119.315 55.6268C120.03 55.4634 120.763 55.2456 121.507 54.9516C121.329 54.6793 121.148 54.4107 120.966 54.1493ZM122.589 52.6719C122.887 53.093 123.181 53.5286 123.471 53.9787C124.386 53.427 125.304 52.7264 126.201 51.8298C126.546 51.4849 126.862 51.1292 127.141 50.7698C126.985 50.7045 126.825 50.6391 126.662 50.5702C126.263 50.4068 125.856 50.2362 125.446 50.062C124.731 50.7081 124.012 51.3651 123.297 52.0185C123.061 52.2363 122.825 52.4505 122.585 52.6683L122.589 52.6719ZM116.32 49.394C116.886 50.9804 117.467 52.4578 118.062 53.8226C118.592 53.3544 119.122 52.8788 119.652 52.4033C119.257 51.9205 118.857 51.474 118.451 51.0711C117.805 50.425 117.086 49.8696 116.32 49.394ZM115.293 46.4574C117.061 47.1906 118.683 48.2216 119.99 49.532C120.418 49.9603 120.843 50.4322 121.26 50.9368C121.449 50.7626 121.638 50.5919 121.827 50.4213C122.317 49.9712 122.803 49.5284 123.29 49.0855C121.555 48.2107 119.961 47.1543 118.981 45.7169C118.716 45.7314 118.454 45.7568 118.193 45.7895C117.217 45.9092 116.237 46.1343 115.293 46.461V46.4574ZM128.546 47.3395C128.637 47.4556 128.727 47.5754 128.814 47.6988C128.902 47.4411 128.974 47.1834 129.04 46.9256C128.876 47.0636 128.713 47.2015 128.546 47.3395ZM122.237 45.9492C122.996 46.5009 123.943 47.0019 125.036 47.5064C125.126 47.4266 125.217 47.3431 125.308 47.2632C124.39 46.6171 123.337 46.1924 122.233 45.9492H122.237ZM120.32 43.528C122.665 43.6223 125.079 44.2939 126.996 45.7931C127.78 45.1252 128.55 44.4899 129.305 43.9019C129.228 42.6858 128.942 41.5496 128.524 40.5731C127.515 38.1991 125.696 36.5511 124.088 36.5511C124.074 36.5511 124.059 36.5511 124.045 36.5511C122.702 36.5765 121.496 37.8035 120.654 40.0069C120.11 41.4298 120.026 42.5696 120.32 43.528ZM108.741 45.1433C109.866 45.1433 111.009 45.2595 112.135 45.4918C112.178 45.4664 112.222 45.4446 112.265 45.4192C111.739 44.7005 111.162 44.2794 110.559 44.1814C109.855 44.0688 109.049 44.4137 108.258 45.1469C108.418 45.1433 108.577 45.1397 108.741 45.1397V45.1433Z" fill="#CE497F"/>
<path d="M159.957 48.7581C159.355 48.7581 158.868 48.2717 158.868 47.6691V10.0006C158.868 9.39798 159.355 8.91156 159.957 8.91156C160.56 8.91156 161.046 9.39798 161.046 10.0006V47.6691C161.046 48.2717 160.56 48.7581 159.957 48.7581Z" fill="#CE497F"/>
<path d="M171.612 40.9899C171.01 40.9899 170.523 40.5035 170.523 39.9009V17.7651C170.523 17.1626 171.01 16.6761 171.612 16.6761C172.215 16.6761 172.701 17.1626 172.701 17.7651V39.9009C172.701 40.5035 172.215 40.9899 171.612 40.9899Z" fill="#F4679D"/>
<path d="M183.27 48.758C182.668 48.758 182.181 48.2716 182.181 47.669V10.0005C182.181 9.39792 182.668 8.9115 183.27 8.9115C183.873 8.9115 184.359 9.39792 184.359 10.0005V47.669C184.359 48.2716 183.873 48.758 183.27 48.758Z" fill="#CE497F"/>
<path d="M194.921 48.7581C194.318 48.7581 193.832 48.2717 193.832 47.6691V25.341C193.832 24.7384 194.318 24.252 194.921 24.252C195.524 24.252 196.01 24.7384 196.01 25.341V47.6691C196.01 48.2717 195.524 48.7581 194.921 48.7581Z" fill="#F4679D"/>
<path d="M206.577 48.758C205.975 48.758 205.488 48.2716 205.488 47.669V10.0005C205.488 9.39792 205.975 8.9115 206.577 8.9115C207.18 8.9115 207.666 9.39792 207.666 10.0005V47.669C207.666 48.2716 207.18 48.758 206.577 48.758Z" fill="#CE497F"/>
<path d="M218.234 55.3539C217.631 55.3539 217.145 54.8675 217.145 54.2649V25.3375C217.145 24.7349 217.631 24.2485 218.234 24.2485C218.837 24.2485 219.323 24.7349 219.323 25.3375V54.2649C219.323 54.8675 218.837 55.3539 218.234 55.3539Z" fill="#CE497F"/>
<path d="M229.889 48.758C229.287 48.758 228.8 48.2716 228.8 47.669V10.0005C228.8 9.39792 229.287 8.9115 229.889 8.9115C230.492 8.9115 230.978 9.39792 230.978 10.0005V47.669C230.978 48.2716 230.492 48.758 229.889 48.758Z" fill="#F4679D"/>
<path d="M241.545 31.4756C240.942 31.4756 240.456 30.9892 240.456 30.3866V10.0005C240.456 9.39792 240.942 8.9115 241.545 8.9115C242.147 8.9115 242.634 9.39792 242.634 10.0005V30.3866C242.634 30.9892 242.147 31.4756 241.545 31.4756Z" fill="#CE497F"/>
<path d="M111.444 247.153C111.306 247.153 111.168 247.128 111.034 247.073C79.1843 234.045 62.7731 217.075 54.6128 205.136C45.7157 192.111 44.4271 182.285 44.3762 181.875C44.3036 181.28 44.7284 180.735 45.3237 180.662C45.919 180.59 46.4635 181.015 46.5361 181.61C46.547 181.708 47.8465 191.429 56.4968 204.036C64.4937 215.692 80.5891 232.27 111.854 245.059C112.41 245.287 112.678 245.923 112.45 246.478C112.275 246.899 111.869 247.157 111.44 247.157L111.444 247.153Z" fill="#CE497F"/>
</svg>
