<svg width="90" height="26" viewBox="0 0 90 26" fill="none" xmlns="http://www.w3.org/2000/svg">
<path d="M11.0318 20.4662C7.60349 20.4662 5.63396 18.5754 5.63396 15.3833C5.63396 12.1526 7.6822 9.98542 11.3466 9.98542C12.146 9.98542 12.8789 10.0606 13.5663 10.1988L15.2717 6.279C13.6642 5.57935 12.1792 5.29773 10.3216 5.29773C4.21542 5.29599 0 9.59186 0 15.5407C0 21.3321 3.46679 25.1942 9.33863 25.1942C11.7822 25.1942 13.5925 24.8636 15.3242 24.0712L13.2724 20.2703C12.5588 20.3963 11.8102 20.4662 11.0318 20.4662ZM32.7246 8.21704C34.5192 9.94169 35.5092 12.3905 35.5109 15.3465C35.5092 18.1486 34.465 20.6149 32.6319 22.3903C30.797 24.1657 28.1681 25.2571 24.9497 25.2589C21.6438 25.2571 19.0271 24.2199 17.2272 22.4812C15.4309 20.7409 14.4304 18.2798 14.4286 15.3465C14.4304 12.5252 15.4938 10.0711 17.3304 8.30975C19.1688 6.54837 21.7907 5.47615 24.9479 5.4744C28.301 5.4744 30.9282 6.49239 32.7246 8.21704ZM29.5604 15.3448C29.5604 13.7426 29.1808 12.4587 28.3797 11.5701C27.9809 11.1276 27.4807 10.7918 26.9034 10.5749C26.3262 10.3562 25.6721 10.2513 24.9532 10.2513C23.5923 10.2478 22.4134 10.755 21.6001 11.6611C20.785 12.5671 20.3424 13.844 20.3442 15.3448C20.3442 16.912 20.736 18.1924 21.5388 19.0897C21.9394 19.5357 22.4379 19.8785 23.0134 20.1042C23.5888 20.3298 24.2395 20.44 24.9514 20.44C26.3262 20.4435 27.5086 19.9485 28.3202 19.0442C29.1318 18.1416 29.5604 16.8613 29.5604 15.3448ZM48.946 5.47265C51.3651 5.47265 53.9573 6.00439 56.1892 6.69529V24.5697H50.5203V21.8586L49.7611 22.6404C49.079 23.3418 48.2709 23.9942 47.2861 24.4718C46.3014 24.9493 45.1399 25.2554 43.7284 25.2571C41.4895 25.2536 39.6791 24.3126 38.3918 22.7489C37.1079 21.1834 36.3628 18.9777 36.3628 16.4765C36.3663 12.9555 37.5697 10.2408 39.7194 8.37097C41.8725 6.50464 45.0175 5.47265 48.946 5.47265ZM49.9116 10.253C49.3833 10.2128 48.8061 10.1708 48.2184 10.1708C46.3608 10.1691 44.8706 10.6798 43.8491 11.6523C42.8258 12.6231 42.3133 14.0259 42.3151 15.6701C42.3151 17.1114 42.6527 18.2991 43.3331 19.1439C44.0117 19.9922 45.0402 20.447 46.2366 20.4418C46.9713 20.4418 47.6604 20.2721 48.3076 19.9642C48.9565 19.6564 49.5652 19.2156 50.1722 18.6699L50.3191 18.5387V18.341V10.2845L49.9116 10.253ZM82.7183 5.47265C85.1374 5.47265 87.7296 6.00439 89.9615 6.69529V24.5697H84.2926V21.8586L83.5334 22.6404C82.8513 23.3418 82.0432 23.9942 81.0584 24.4718C80.0737 24.9493 78.9122 25.2554 77.5007 25.2571C75.2618 25.2536 73.4514 24.3126 72.1641 22.7489C70.8802 21.1834 70.1351 18.9777 70.1351 16.4765C70.1386 12.9555 71.342 10.2408 73.4917 8.37097C75.6431 6.50464 78.788 5.47265 82.7183 5.47265ZM83.6821 10.253C83.1539 10.2128 82.5767 10.1708 81.989 10.1708C80.1314 10.1691 78.6411 10.6798 77.6179 11.6523C76.5946 12.6231 76.0821 14.0259 76.0856 15.6701C76.0856 17.1114 76.4232 18.2991 77.1036 19.1439C77.7823 19.9922 78.809 20.447 80.0072 20.4418C80.7418 20.4418 81.431 20.2721 82.0782 19.9642C82.7271 19.6564 83.3358 19.2156 83.9427 18.6699L84.0897 18.5387V18.341V10.2845L83.6821 10.253ZM66.0089 19.9905C65.5418 19.7229 65.1955 19.3345 64.9576 18.9008C64.4819 18.0262 64.3874 16.9732 64.3839 16.0007V0.825195H58.4334V14.8917C58.4316 17.6431 58.6765 19.7246 59.2117 21.2516C59.7522 22.7803 60.5481 23.7494 61.727 24.3965C62.5158 24.8268 63.4884 25.1084 64.6795 25.2624C65.0818 25.3148 65.4579 25.3376 65.8095 25.3376C67.3347 25.3341 68.4139 24.8968 69.2762 24.3178V20.2056C68.706 20.3386 68.197 20.4033 67.737 20.4033C67.0531 20.405 66.4759 20.2598 66.0089 19.9905Z" fill="white"/>
</svg>
