<svg width="222" height="142" viewBox="0 0 222 142" fill="none" xmlns="http://www.w3.org/2000/svg">
<path d="M221.623 0.0346928V16.8543L202.422 19.5665C202.298 19.5853 202.188 19.4821 202.197 19.3626C202.699 12.8832 202.846 7.72599 202.898 0.0323486H221.623V0.0346928Z" fill="#FDE7F0"/>
<path d="M221.623 39.047V60.8105C213.194 62.3764 204.75 63.7619 196.287 64.9738C196.229 64.9808 196.182 65.0254 196.175 65.084L193.322 85.3214C183.917 86.0411 174.519 86.5005 165.131 86.7068C165.063 86.7092 165.006 86.7045 164.959 86.6904C164.847 86.6623 164.779 86.5521 164.809 86.4443C166.471 80.0915 168.176 73.9028 169.927 67.8759C169.976 67.7118 170.086 67.6227 170.264 67.611C178.755 67.0343 187.274 66.1623 195.825 65.0019C196.053 64.9715 196.184 64.8449 196.219 64.6245L199.307 43.7143C199.33 43.5549 199.426 43.4588 199.588 43.4307C206.942 42.146 214.288 40.6833 221.623 39.0447V39.047Z" fill="#FDE7F0"/>
<path d="M221.623 82.3956V104.044C212.835 104.665 203.606 105.139 193.938 105.47C193.477 105.486 193.071 105.462 192.722 105.411C192.612 105.395 192.551 105.334 192.539 105.228C191.733 98.5799 192.551 91.9084 193.322 85.3212C202.762 84.564 212.195 83.5888 221.623 82.3956Z" fill="#FDE7F0"/>
<path d="M221.623 125.686V141.723H200.711C198.943 136.601 197.436 131.425 196.189 126.192C196.151 126.024 195.992 125.902 195.809 125.899C186.355 125.834 177.184 125.663 168.295 125.374C168.058 125.367 167.85 125.22 167.768 125.004C165.531 118.897 163.907 112.512 162.894 105.84C162.875 105.716 162.8 105.655 162.674 105.653C154.007 105.439 145.411 105.066 136.89 104.525C136.852 104.523 136.794 104.509 136.719 104.487C136.651 104.466 136.595 104.462 136.543 104.48C136.236 98.3621 137.621 92.8368 139.609 86.9248C139.731 86.5638 139.956 86.388 140.28 86.402C148.346 86.7443 156.44 86.8498 164.558 86.7161C164.652 86.7138 164.718 86.7935 164.699 86.8802C164.209 89.0416 163.707 91.2826 163.201 93.6034C162.28 97.8229 162.186 101.466 162.833 105.491C162.852 105.61 162.922 105.669 163.049 105.674C173.068 105.833 182.848 105.784 192.391 105.521C192.504 105.519 192.567 105.573 192.581 105.681C193.418 112.441 194.58 119.106 196.067 125.672C196.095 125.806 196.217 125.899 196.36 125.897L221.628 125.681L221.623 125.686Z" fill="#FDE7F0"/>
<path d="M175.438 46.7642C177.409 38.7283 178.776 30.5681 179.543 22.272C179.552 22.1642 179.613 22.1056 179.726 22.0962C187.323 21.3883 194.71 20.5842 201.885 19.6723C202.045 19.6512 202.188 19.7801 202.174 19.9372C201.541 27.3917 200.671 34.8275 199.56 42.2469C199.506 42.6196 199.435 42.9806 199.353 43.3252C199.33 43.426 199.267 43.4893 199.161 43.5034C191.254 44.8349 183.347 45.9203 175.433 46.7642H175.438Z" fill="#FDE7F0"/>
<path d="M156.621 0.0351562H179.714C179.777 1.78627 179.843 3.53269 179.904 5.28381C180.101 10.652 180.002 16.1398 179.611 21.7494C179.592 22.0237 179.437 22.1714 179.151 22.1948L158.41 23.7209C158.264 23.7303 158.14 23.6154 158.147 23.4771C158.414 15.617 157.906 7.80616 156.623 0.0375004L156.621 0.0351562Z" fill="#FDE7F0"/>
<path d="M175.687 141.723H151.314C147.509 136.371 144.258 130.66 141.553 124.594C141.447 124.357 141.208 124.195 140.943 124.176L116.526 122.568C116.325 122.557 116.189 122.46 116.118 122.278C113.72 116.157 112.63 109.844 112.843 103.344C112.85 103.118 112.872 102.903 112.907 102.689C112.933 102.523 113.092 102.408 113.265 102.427C121.055 103.273 128.814 103.958 136.541 104.483C137.089 111.213 138.808 117.669 141.286 123.991C141.33 124.106 141.417 124.165 141.543 124.169C150.201 124.659 158.876 125.055 167.566 125.351C167.773 125.358 167.951 125.484 168.021 125.665C170.175 131.193 172.731 136.547 175.687 141.72V141.723Z" fill="#FDE7F0"/>
<path d="M175.438 46.7642C175.394 46.8908 175.41 47.0103 175.377 47.1463C173.842 53.4147 172.138 59.9386 170.267 66.718C170.232 66.8375 170.206 66.9594 170.183 67.0813C170.115 67.4587 169.819 67.658 169.303 67.6861C160.145 68.1339 152.685 68.3519 146.923 68.3425C149.603 61.7577 151.933 55.1494 153.914 48.5153C153.975 48.309 154.115 48.2035 154.338 48.1941C161.364 47.9292 168.396 47.451 175.436 46.7618L175.438 46.7642Z" fill="#FDE7F0"/>
<path d="M115.091 46.4994C115.195 46.5698 115.323 46.6073 115.476 46.6096C115.694 46.6119 115.809 46.6166 115.825 46.619C121.868 47.2754 127.968 47.8051 134.115 48.206C134.192 48.213 134.265 48.1638 134.286 48.0888C136.496 40.3623 137.579 32.5702 137.53 24.7148C137.53 24.6211 137.457 24.5484 137.359 24.546L116.688 23.4959C116.627 23.4935 116.594 23.4654 116.589 23.4068C115.874 17.5486 114.597 11.7936 112.759 6.14178C112.1 4.10702 111.423 2.07226 110.727 0.0351562H133.69C135.959 8.02183 137.244 16.114 137.549 24.3093C137.551 24.4148 137.61 24.4687 137.715 24.4757C138.055 24.5015 138.4 24.5062 138.749 24.4945C146.314 24.2319 152.706 23.967 157.922 23.6951C158.037 23.6881 158.096 23.742 158.096 23.8498C158.093 24.4851 158.068 25.1063 158.018 25.7111C157.418 33.1516 156.098 40.6061 154.064 48.0794C154.045 48.1497 153.979 48.199 153.904 48.2037C147.523 48.3888 141.124 48.3982 134.701 48.2318C134.234 48.2201 134.107 48.6022 133.995 48.9468C132.005 54.9807 129.428 61.1131 126.259 67.3393C126.215 67.4284 126.14 67.4753 126.034 67.4847C125.781 67.5058 125.441 67.4964 125.01 67.4542C119.027 66.8377 113.232 66.1203 107.625 65.3092C107.536 65.2975 107.484 65.2014 107.527 65.124C110.724 59.294 113.507 52.9741 115.091 46.5018V46.4994Z" fill="#FDE7F0"/>
<path d="M146.923 68.345L139.933 86.1186C139.865 86.2945 139.686 86.4046 139.49 86.3976C132.22 86.0342 125.019 85.5326 117.897 84.8973C117.792 84.8879 117.749 84.8317 117.773 84.7309C117.86 84.3488 117.989 83.9784 118.157 83.6174C120.698 78.275 123.319 73.0333 126.015 67.8878C126.125 67.6816 126.353 67.5573 126.592 67.5737C133.406 68.0449 140.183 68.3028 146.923 68.3496V68.345Z" fill="#FDE7F0"/>
<path d="M127.319 141.722H104.474C103.752 140.707 102.726 139.043 101.397 136.727C98.7687 132.151 96.6308 127.441 94.9828 122.591C94.8328 122.141 94.6898 121.686 94.5632 121.227C94.5375 121.129 94.575 121.082 94.6828 121.091L115.788 122.502C116.055 122.519 116.233 122.648 116.334 122.889C117.562 125.936 119.079 128.991 120.872 132.055C122.839 135.414 124.986 138.635 127.321 141.722H127.319Z" fill="#FDE7F0"/>
<path d="M92.3413 99.7024C92.8125 96.2822 93.6916 92.8808 94.9762 89.4934C95.8857 87.0953 96.9336 84.7112 98.1198 82.3413C98.1737 82.2358 98.2581 82.1936 98.3776 82.2123C104.651 83.1758 111.006 84.0455 117.441 84.8214C117.588 84.8402 117.633 84.9152 117.579 85.0465C117.216 85.9208 116.857 86.8093 116.503 87.7095C114.651 92.4377 113.453 97.2691 112.912 102.206C112.9 102.34 112.773 102.431 112.635 102.417L92.6085 100.038C92.4374 100.016 92.3202 99.8688 92.3413 99.7047V99.7024Z" fill="#FDE7F0"/>
<path d="M115.091 46.4993L96.4268 44.277C96.3026 44.2605 96.2275 44.3098 96.2018 44.4317C95.9603 45.5311 95.7493 46.6352 95.4376 47.7557C94.099 52.5191 92.0994 57.3341 89.4388 62.203C89.3708 62.3296 89.2231 62.3999 89.0801 62.3765L71.2103 59.4556C71.1165 59.4392 71.0251 59.4837 70.9782 59.5634L61.9132 76.0267C61.8007 76.2307 61.5686 76.3408 61.3366 76.308C55.3143 75.4149 49.264 74.6812 43.1878 74.1068C43.0917 74.0975 43.0214 74.1373 42.9768 74.2217C39.8098 80.2955 37.1445 86.6412 34.9831 93.2542C34.9503 93.3527 35.0347 93.43 35.2293 93.4886L34.9058 93.5097C34.8472 93.4535 34.7909 93.4253 34.73 93.4253C28.3397 93.273 21.919 93.2706 15.4701 93.4183C15.3036 93.4206 15.1841 93.2706 15.2286 93.1182C17.2657 86.4349 19.5654 79.9087 22.1299 73.5419C22.1932 73.3825 22.355 73.277 22.5308 73.2793C29.2492 73.345 36.024 73.6028 42.8643 74.0576C42.9276 74.0599 42.9886 74.0295 43.0144 73.9732C46.0454 68.2159 48.8748 62.5265 51.5097 56.9051C51.5425 56.8372 51.6152 56.7996 51.6902 56.8067C57.8109 57.524 64.1707 58.3937 70.7626 59.4158C70.8845 59.4369 71.0064 59.3759 71.0603 59.2681C73.7983 53.6866 75.9643 47.9527 76.8387 41.8929C76.8575 41.7687 76.9747 41.6819 77.1013 41.7007L96.0142 44.2019C96.1291 44.2184 96.2346 44.141 96.2557 44.0285C97.3575 36.8834 97.2004 29.6632 95.7892 22.3681C95.761 22.2251 95.8783 22.0985 96.0306 22.1079L116.491 23.4746C116.554 23.4769 116.589 23.5121 116.596 23.5754C117.3 31.201 116.828 38.7564 115.173 46.2461C115.162 46.3047 115.136 46.3563 115.096 46.4031C115.042 46.4688 115.037 46.4993 115.087 46.4969L115.091 46.4993Z" fill="#FDE7F0"/>
<path d="M79.8934 79.0481L89.2186 62.681C89.2983 62.5427 89.4624 62.4676 89.6242 62.4934L107.227 65.2736C107.313 65.2901 107.374 65.3604 107.372 65.4401C107.372 65.4893 107.36 65.5362 107.335 65.5784C104.264 70.9583 101.216 76.4789 98.1969 82.1307C98.1734 82.1706 98.1383 82.1893 98.0914 82.1823L79.9848 79.2404C79.9004 79.2286 79.8184 79.2685 79.7785 79.3388C76.7709 84.9789 74.3049 90.6894 73.0577 96.8874C72.9968 97.2016 72.7999 97.3375 72.4693 97.2977L54.3089 95.0637C54.1729 95.0473 54.0838 94.9207 54.119 94.7941C55.8373 88.5374 58.3596 82.4425 61.6884 76.5117C61.7611 76.3781 61.8736 76.3265 62.0283 76.3523L79.6731 79.1513C79.7621 79.163 79.8536 79.1231 79.8981 79.0458L79.8934 79.0481Z" fill="#FDE7F0"/>
<path d="M64.9257 0.0346928H87.8964C88.2902 1.06848 88.7216 2.09055 89.1857 3.09621C90.0906 5.06299 90.5524 6.07099 90.5735 6.12022C92.7348 11.1602 94.4414 16.3433 95.7026 21.6693C95.7307 21.7888 95.7354 21.8849 95.712 21.9553C95.6932 22.0232 95.6252 22.0701 95.5526 22.0631L74.8557 20.5722C74.7338 20.5628 74.6541 20.5042 74.6189 20.3893C72.9873 15.3165 70.8635 10.4429 68.2403 5.76156C67.1644 3.84166 66.0603 1.93115 64.928 0.0323486L64.9257 0.0346928Z" fill="#FDE7F0"/>
<path d="M81.5151 141.722H58.5608C55.579 134.066 53.5794 126.246 52.5643 118.257C52.5573 118.207 52.5292 118.182 52.4776 118.179C45.4778 117.734 38.5695 117.389 31.7479 117.139C31.6612 117.136 31.5908 117.068 31.5908 116.984C31.5885 109.023 32.6926 101.198 34.9032 93.509L35.2267 93.4879C35.2267 93.4879 35.2501 93.4692 35.2595 93.4598C35.2829 93.4434 35.304 93.434 35.3322 93.4387C41.5935 93.8677 47.7775 94.4069 53.8841 95.0539C53.9943 95.0656 54.0341 95.1242 54.013 95.2273C52.3557 102.74 51.8681 110.293 52.5526 117.884C52.569 118.06 52.6675 118.156 52.855 118.168L73.212 119.53C73.3409 119.539 73.3925 119.483 73.369 119.361C71.9672 112.091 71.8125 104.822 72.9002 97.5457C72.9119 97.4496 73.0057 97.3863 73.1018 97.398C78.3059 98.1177 83.7749 98.8421 89.5159 99.5805C90.4371 99.6977 91.3068 99.8407 92.1249 100.007C92.2375 100.028 92.289 100.096 92.2797 100.204C91.6913 107.091 92.4039 113.953 94.4199 120.788C94.4621 120.927 94.3472 121.06 94.1996 121.051L73.5824 119.576C73.4769 119.567 73.4347 119.614 73.4581 119.712C74.0582 122.511 74.8295 125.296 75.7625 128.06C77.3518 132.756 79.267 137.31 81.5104 141.729L81.5151 141.722Z" fill="#FDE7F0"/>
<path d="M18.0395 0.0346928H42.5949L42.4238 0.10033C42.241 0.168312 42.1777 0.383978 42.2925 0.53635C45.4408 4.69964 48.1788 9.06218 50.5089 13.6146C51.4044 15.3657 52.1804 17.1004 52.8367 18.8187C52.9071 19.0039 53.0454 19.1024 53.2517 19.1188L74.3635 20.53C74.5393 20.5417 74.687 20.6566 74.7362 20.8207C76.7545 27.6282 77.4742 34.5037 76.8928 41.4589C76.8835 41.6019 76.8038 41.6629 76.6561 41.6441C69.8415 40.758 63.1395 39.961 56.5452 39.2601C56.3999 39.2484 56.2921 39.1241 56.2991 38.9811C56.6132 32.4361 55.5279 25.8841 53.0454 19.3251C52.9961 19.2008 52.8813 19.1141 52.743 19.1024C44.8172 18.5116 36.636 17.9725 28.1899 17.4778C27.9461 17.4614 27.7304 17.3184 27.6343 17.1004C24.9854 11.1954 21.7855 5.50604 18.0395 0.0323486V0.0346928Z" fill="#FDE7F0"/>
<path d="M6.24354 35.9691C6.27167 35.8801 6.27636 35.7582 6.25292 35.6105C5.26132 29.1124 3.61804 22.7385 1.33011 16.4842C1.26682 16.3084 1.33011 16.2217 1.52234 16.231L27.3624 17.3914C27.6085 17.4008 27.8242 17.5485 27.9156 17.7712C30.4614 24.0091 32.0344 30.4064 32.6368 36.9537C32.6462 37.0709 32.7142 37.1319 32.8337 37.1412C40.5063 37.7085 48.3945 38.3626 56.1092 39.1994C56.2288 39.2112 56.2827 39.2745 56.2687 39.387C55.6099 45.4373 53.9104 51.047 51.6084 56.6449C51.5709 56.7411 51.4982 56.7809 51.3927 56.7715C43.9429 56.0636 36.6759 55.5549 29.5987 55.2455C29.4839 55.2431 29.4065 55.1306 29.4417 55.0274C30.2082 52.8075 30.8857 50.5477 31.4764 48.2527C32.3719 44.7669 32.7822 41.1428 32.7025 37.378C32.7001 37.2256 32.6181 37.1459 32.461 37.1366C23.7852 36.5529 15.0436 36.1637 6.24589 35.9668L6.24354 35.9691Z" fill="#FDE7F0"/>
<path d="M35.497 141.723H12.5637C11.2931 134.036 10.7798 126.211 11.0189 118.244C11.0212 118.075 11.1595 117.934 11.3377 117.925C17.8405 117.592 24.4113 117.32 31.0524 117.114C31.2071 117.111 31.3595 117.121 31.5142 117.146C31.5681 117.156 31.6103 117.203 31.6126 117.257C31.8658 124.662 32.9605 131.992 34.8968 139.245C35.1172 140.066 35.3165 140.891 35.497 141.721V141.723Z" fill="#FDE7F0"/>
<path d="M29.2985 55.4637C27.1512 61.2937 24.7695 67.0416 22.4323 72.8365C22.3292 73.092 22.076 73.2584 21.79 73.2584C14.0823 73.2795 6.61371 73.5187 -0.618131 73.9781C-0.732996 73.9851 -0.81973 73.882 -0.789256 73.7742C0.950136 67.8504 2.65905 61.6734 4.33281 55.241C4.38672 55.0394 4.56957 54.9011 4.78524 54.8987C12.8446 54.8026 20.9531 54.9081 29.1156 55.2082C29.2516 55.2152 29.3407 55.3441 29.2961 55.4637H29.2985Z" fill="#FDE7F0"/>
<path d="M-10.4915 141.722H-33.7529C-33.7365 135.168 -33.5021 128.604 -33.0497 122.019L-10.5478 119.506C-10.4423 119.495 -10.3837 119.436 -10.3743 119.333C-9.61947 111.199 -8.2739 103.118 -6.34698 95.0939C-6.31181 94.9556 -6.22273 94.8782 -6.07739 94.8618C0.884865 94.1539 7.89166 93.6827 14.9383 93.4483C15.0579 93.4459 15.1469 93.5538 15.1141 93.6639C12.9153 101.43 11.5603 109.452 11.0469 117.729C11.0399 117.854 10.9368 117.954 10.8102 117.962C3.69086 118.391 -3.30421 118.897 -10.1704 119.481C-10.3157 119.492 -10.3954 119.57 -10.4071 119.713C-10.9721 127.052 -11.0002 134.39 -10.4915 141.722Z" fill="#FDE7F0"/>
<path d="M-21.934 76.0832C-21.4933 78.7438 -20.7408 81.4303 -19.0577 83.5377C-18.2044 84.6066 -16.6924 85.4154 -15.3445 84.6957C-14.4748 84.2292 -13.7715 83.5424 -13.2324 82.6305C-11.9524 80.4644 -11.4344 78.35 -10.8835 75.6753C-10.6819 75.83 -10.5905 75.6471 -10.6139 75.1314C-10.6233 74.9345 -10.4686 74.7681 -10.2646 74.7493L-1.00974 73.9734C-0.878471 73.964 -0.829243 74.0203 -0.864407 74.1398C-2.74914 80.8887 -4.53073 87.6752 -6.20917 94.5038C-6.26308 94.7218 -6.45531 94.8906 -6.68972 94.9141C-14.4607 95.7322 -22.1848 96.8011 -29.8551 98.1186C-30.0145 98.1467 -30.1575 98.0178 -30.134 97.8631L-27.042 76.9083C-27.0256 76.7911 -27.1288 76.6926 -27.2507 76.7114L-40.3008 78.6922V57.8148L-24.4447 56.3216C-24.2806 56.3052 -24.1493 56.1833 -24.1305 56.0286C-23.2585 49.4508 -22.7053 43.0417 -23.3569 36.5343C-23.3851 36.2483 -23.5539 36.1076 -23.8516 36.1217L-40.3008 36.8437V15.7389L-27.3655 15.7319C-27.0889 15.7319 -26.9834 15.6029 -27.0444 15.3451C-28.2938 10.2183 -29.7683 5.11268 -31.4725 0.0351562H-5.5528L-5.94427 0.0914169C-6.2162 0.131268 -6.28887 0.267231 -6.15525 0.501651C-3.46646 5.29553 -1.18556 10.0425 0.682762 14.7497C0.856236 15.1904 1.01329 15.6381 1.15395 16.0952C1.17973 16.1796 1.11175 16.2593 1.02267 16.2546C-8.36348 15.9686 -17.5644 15.7881 -26.5849 15.7202C-26.8264 15.7178 -26.9225 15.8303 -26.8662 16.0577C-25.3472 22.6848 -24.1962 29.3376 -23.4132 36.0115C-23.4062 36.0631 -23.3593 36.1076 -23.3007 36.1053C-13.3918 35.824 -3.54382 35.7771 6.24554 35.9693C6.27835 36.0443 6.29711 36.1053 6.30649 36.1545C6.86909 39.3567 6.92535 42.3596 6.47995 45.1656C6.12364 47.4043 5.4532 50.5947 4.46629 54.7346C4.43816 54.8541 4.35612 54.9174 4.22953 54.9198C-5.12146 55.1143 -14.5193 55.5691 -23.9688 56.2817C-24.0719 56.2888 -24.1282 56.3403 -24.1446 56.4412L-26.9717 76.4442C-26.9881 76.5543 -26.8873 76.6504 -26.7724 76.6387L-21.9293 76.0832H-21.934Z" fill="#FDE7F0"/>
</svg>
