<svg width="141" height="149" viewBox="0 0 141 149" fill="none" xmlns="http://www.w3.org/2000/svg">
<path d="M101.779 63.2725C100.088 68.5855 98.5318 76.329 97.1772 84.6037C95.9776 85.3 94.8259 86.158 93.7749 87.2074C86.3499 94.6324 84.3369 109.799 82.2595 112.631C80.1822 115.46 75.2751 116.218 76.1248 118.483C76.9729 120.749 82.8238 123.862 82.8238 123.862C82.8238 123.862 79.5205 138.399 82.7314 142.27C85.939 146.14 94.8111 143.024 94.8111 143.024L94.2468 151.897H72.6846C72.6846 151.897 73.4881 131.792 74.2141 115.937C74.2933 114.163 74.3742 112.446 74.4517 110.814C75.1117 96.9771 82.4311 67.5774 84.5778 59.1937C84.5778 59.1937 87.6303 63.322 92.6232 63.8896C97.6144 64.4572 101.777 63.2742 101.777 63.2742L101.779 63.2725Z" fill="#6F46BE"/>
<path d="M84.8615 57.2002C84.8615 57.2002 84.8483 57.2118 84.84 57.22C84.8367 57.22 84.8351 57.2233 84.8334 57.2266C84.7971 57.2613 84.7559 57.2976 84.713 57.3372C84.6849 57.3619 84.6569 57.3883 84.6272 57.4164C84.6206 57.423 84.6107 57.4312 84.6041 57.4378C84.5463 57.4923 84.482 57.55 84.4176 57.6127C84.3005 57.7216 84.1701 57.8421 84.0299 57.9741C83.9969 58.0054 83.9655 58.0368 83.9309 58.0681C83.7131 58.2727 83.4722 58.4988 83.2115 58.7463C83.162 58.7925 83.1125 58.8403 83.0613 58.8865C82.2413 59.662 81.2463 60.6141 80.2019 61.6354C80.1326 61.7031 80.0633 61.7724 79.9923 61.8417C79.8042 62.0265 79.6161 62.2113 79.428 62.3994C79.268 62.5561 79.1079 62.7145 78.9479 62.8746C78.8456 62.9769 78.7449 63.0775 78.6443 63.1798C78.57 63.2524 78.4958 63.3267 78.4232 63.4009C78.41 63.4141 78.3968 63.4273 78.3836 63.4422C78.3093 63.5148 78.2351 63.5907 78.1608 63.6649C77.976 63.853 77.7896 64.0428 77.6048 64.2309C77.5305 64.3068 77.4563 64.3827 77.3837 64.4569C77.2995 64.5444 77.2137 64.6318 77.1296 64.7193C77.0768 64.7737 77.0223 64.8298 76.9712 64.8859C76.9299 64.9288 76.887 64.9717 76.8474 65.0146C76.8045 65.0575 76.7633 65.1021 76.7237 65.145C76.6824 65.1879 76.6412 65.2308 76.5999 65.2737C76.5587 65.3166 76.5174 65.3595 76.4762 65.4024C75.9894 65.9155 75.5225 66.4188 75.0935 66.8973C74.9268 67.0821 74.7684 67.2636 74.615 67.4401C74.5358 67.5309 74.4599 67.6216 74.384 67.7091C74.3246 67.7784 74.2668 67.846 74.2107 67.9137C74.2074 67.9186 74.2041 67.9236 74.1975 67.9302C74.1101 68.0341 74.0259 68.1364 73.9434 68.2371C73.9401 68.242 73.9368 68.2453 73.9335 68.2503C73.8791 68.3163 73.8263 68.3806 73.7768 68.445C73.7735 68.4499 73.7702 68.4532 73.7685 68.4565C73.7174 68.5209 73.6662 68.5836 73.6184 68.6463C73.5903 68.6826 73.5623 68.7189 73.5359 68.7552C73.488 68.8162 73.4418 68.8773 73.3989 68.9367C73.3956 68.94 73.394 68.9433 73.3923 68.9449C73.3247 69.0357 73.2603 69.1248 73.1993 69.2089C73.0145 69.4762 72.8643 69.7155 72.7571 69.9234C72.7257 69.9828 72.6977 70.0405 72.6762 70.0933C72.6449 70.1643 72.6201 70.2303 72.6003 70.2913C72.5904 70.3276 72.5805 70.3623 72.5756 70.3953C72.1334 72.7135 75.2271 76.0267 75.2271 76.0267C75.2271 76.0267 69.3713 78.5661 68.9307 80.1121C68.6205 81.1962 68.2575 94.1289 70.5873 105.298C71.414 109.273 72.5822 113.023 74.2157 115.939C73.4897 131.793 72.6861 151.899 72.6861 151.899H48.0582L55.8924 101.442L56.564 97.1203C56.564 97.1203 39.4601 105.243 34.6008 96.8497C29.7432 88.4562 19.4571 66.3082 20.6699 64.0989C21.8843 61.8912 30.3504 57.8932 31.7843 58.776C33.0366 59.5482 40.1976 74.5252 44.0603 76.954C44.6279 77.3104 45.1245 77.3979 45.5189 77.1289C48.6093 75.0318 65.177 61.1157 68.3796 59.9029C71.2506 58.8139 82.4525 57.2827 84.7526 56.9758C84.8813 56.9577 84.9555 57.1144 84.8615 57.2035V57.2002Z" fill="#A78ED7"/>
<path d="M74.6331 117.691L73.785 116.178C72.267 113.469 71.0279 109.84 70.1039 105.395C67.7477 94.0894 68.1371 81.0907 68.4572 79.972C68.873 78.5151 72.7274 76.6143 74.4186 75.8421C73.5375 74.7745 71.7159 72.2781 72.0921 70.2981C72.1004 70.2535 72.1136 70.2007 72.1284 70.1479C72.1565 70.0605 72.1878 69.978 72.2258 69.8905C72.2538 69.8262 72.2852 69.7602 72.3215 69.6876C72.437 69.4681 72.597 69.2091 72.7967 68.922C72.8577 68.8378 72.9171 68.7537 72.9798 68.6712L72.993 68.6464L73.0244 68.6101L73.3907 68.1349C73.4385 68.0755 73.488 68.0145 73.5375 67.9534L73.5623 67.9237C73.6448 67.8214 73.7306 67.7175 73.8197 67.6119L73.8362 67.5921L74.0094 67.3875C74.087 67.2967 74.1645 67.2043 74.2437 67.1136C74.4005 66.9354 74.5605 66.7539 74.7255 66.5674C75.1298 66.1153 75.5852 65.6236 76.1181 65.061C76.1561 65.0197 76.2006 64.9735 76.2435 64.929C76.2782 64.891 76.3227 64.8448 76.3673 64.8003C76.4069 64.759 76.4465 64.7194 76.4861 64.6765C76.5158 64.6452 76.5455 64.6138 76.5768 64.5825L77.2533 63.8845C77.4365 63.6964 77.6246 63.5067 77.8094 63.3186L78.0272 63.1008C78.042 63.0843 78.0569 63.0694 78.0717 63.0546L78.141 62.9853C78.1938 62.9325 78.245 62.8797 78.2978 62.8285C78.3935 62.7312 78.4958 62.6289 78.5981 62.5266L79.0799 62.0497C79.2515 61.8798 79.4231 61.7098 79.5947 61.5415L79.857 61.2841C80.7695 60.3915 81.7331 59.4642 82.7214 58.5286L82.8716 58.3867C83.1306 58.1409 83.3732 57.9132 83.591 57.7086C83.6289 57.6739 83.6586 57.6459 83.6883 57.6178C83.8335 57.4809 83.9655 57.3588 84.0827 57.2515C84.1437 57.1938 84.2048 57.136 84.2625 57.0832L84.284 57.0634C84.3203 57.0288 84.3516 56.9991 84.383 56.971L84.5414 56.8209L84.5826 56.7994C84.7889 56.6641 85.0545 56.6608 85.2657 56.7961C85.4951 56.943 85.6023 57.2185 85.533 57.4825C85.434 57.8637 85.2723 58.4874 85.0595 59.3157C82.8534 67.932 75.605 97.1172 74.9499 110.837C74.8724 112.469 74.7932 114.185 74.7123 115.959L74.6348 117.691H74.6331ZM73.8131 69.2074L73.79 69.2388C73.724 69.3262 73.6629 69.4104 73.6052 69.4929C73.4319 69.742 73.295 69.9631 73.1976 70.1479C73.1712 70.1958 73.1514 70.242 73.1316 70.2865C73.1069 70.3426 73.0871 70.3938 73.0739 70.4383C73.0706 70.4466 73.0673 70.4647 73.064 70.4812C72.7406 72.184 74.7783 74.8158 75.5901 75.6853L76.0686 76.1985L75.4251 76.4773C73.0821 77.4937 69.6683 79.3335 69.4076 80.2443C69.1337 81.2046 68.7674 94.1406 71.0724 105.194C71.7968 108.68 72.7158 111.642 73.8081 114.031C73.8593 112.921 73.9104 111.837 73.9599 110.789C74.6199 96.9753 81.8882 67.7092 84.1008 59.0682C84.1586 58.8421 84.213 58.6309 84.2642 58.4346C84.0513 58.6342 83.8121 58.8603 83.553 59.1045L83.4029 59.2464C82.4195 60.177 81.4592 61.0993 80.5517 61.9887L80.291 62.2428C80.1194 62.4111 79.9494 62.5794 79.7795 62.7493L79.2993 63.2245C79.1987 63.3252 79.0997 63.4242 78.999 63.5248C78.9429 63.5793 78.8934 63.6288 78.8439 63.6783L78.5139 64.0099C78.3324 64.1947 78.146 64.3845 77.9628 64.5726L77.2863 65.2705C77.2616 65.2969 77.2352 65.3217 77.2121 65.3481C77.1692 65.3943 77.1246 65.4388 77.0817 65.485C77.0421 65.5263 77.0025 65.5659 76.9646 65.6071C76.9184 65.655 76.8788 65.6946 76.8408 65.7358C76.3095 66.2952 75.8607 66.7803 75.4647 67.2241C75.303 67.4073 75.143 67.5871 74.9895 67.762C74.9136 67.8495 74.8377 67.9386 74.7618 68.026L74.5985 68.2191C74.5902 68.2306 74.5803 68.2422 74.5688 68.2537C74.4912 68.3461 74.417 68.4369 74.3427 68.526L74.3048 68.5722C74.2619 68.625 74.219 68.6761 74.1794 68.7273L74.1414 68.7768L73.8114 69.2041L73.8131 69.2074ZM74.3229 68.5557L74.3196 68.559C74.3196 68.559 74.3213 68.5557 74.3229 68.5557ZM73.5606 67.9237C73.5606 67.9237 73.559 67.9254 73.5573 67.927L73.5606 67.9237Z" fill="#553597"/>
<path d="M55.8922 101.935C55.8608 101.935 55.8278 101.932 55.7965 101.925C55.5275 101.873 55.3543 101.612 55.4054 101.345L58.7269 84.4321C58.7797 84.1631 59.0387 83.9882 59.3077 84.041C59.5766 84.0938 59.7499 84.3545 59.6987 84.6218L56.3773 101.534C56.3311 101.77 56.1232 101.934 55.8922 101.934V101.935Z" fill="#553597"/>
<path d="M49.1639 85.0211C49.0055 85.0211 48.8488 84.9452 48.7531 84.8033L43.4978 77.0004C43.3444 76.7744 43.4054 76.4658 43.6315 76.314C43.8575 76.1622 44.1661 76.2216 44.3179 76.4477L49.5731 84.2505C49.7266 84.4766 49.6655 84.7851 49.4395 84.9369C49.3553 84.9947 49.258 85.0211 49.1639 85.0211Z" fill="#553597"/>
<path d="M137.1 129.612C134.5 130.065 132.132 128.994 132.132 128.994L130.711 128.924C134.787 123.568 139.075 115.792 138.516 107.248C137.478 91.3902 119.821 82.3185 113.597 82.0462C113.597 82.0462 109.642 81.3235 104.861 82.0347L102.645 78.936C102.509 78.7479 102.589 78.4806 102.806 78.3981C104.125 77.8981 107.999 76.2877 108.093 74.5998C108.202 72.6214 103.716 59.7036 103.466 58.9858C103.463 58.9776 103.46 58.966 103.455 58.9578C103.455 58.9578 103.455 58.9578 103.455 58.9545C103.455 58.9545 120.141 62.9112 121.61 64.1553C123.08 65.3977 144.108 96.0349 145.916 110.505C147.726 124.976 139.699 129.159 137.098 129.611L137.1 129.612Z" fill="#A78ED7"/>
<path d="M96.5196 85.554L96.6879 84.5228C98.224 75.1491 99.7685 67.9749 101.283 63.1965L101.306 63.1223C101.821 61.5069 102.341 60.1407 102.852 59.0616C102.96 58.8372 103.186 58.6953 103.431 58.6953H103.443C103.672 58.7003 103.88 58.8257 103.989 59.0237L104.012 59.0583L104.044 59.1491C104.05 59.1672 104.057 59.187 104.063 59.2068C104.131 59.3999 104.219 59.6573 104.324 59.9658L104.349 60.0384C104.367 60.0912 104.382 60.1391 104.402 60.1902C104.468 60.3833 104.535 60.5813 104.606 60.7925L104.798 61.3584C104.913 61.7 105.035 62.063 105.162 62.4441C105.179 62.492 105.197 62.5431 105.213 62.5959C105.319 62.9094 105.43 63.246 105.545 63.5925L105.659 63.9341C105.666 63.9539 105.674 63.9753 105.68 63.9984L105.697 64.0479C105.713 64.0958 105.728 64.1436 105.743 64.1931C105.997 64.962 106.271 65.8118 106.555 66.7061L106.659 67.0328C106.695 67.1532 106.73 67.2654 106.766 67.376L107.025 68.2142C107.05 68.2967 107.073 68.3726 107.096 68.4468C107.266 68.9996 107.41 69.4847 107.54 69.9351C107.553 69.9764 107.568 70.0292 107.583 70.082C107.659 70.3377 107.733 70.5968 107.801 70.8459L107.824 70.9268C107.834 70.9631 107.844 70.9994 107.855 71.034C107.979 71.4812 108.079 71.8607 108.167 72.2072L108.198 72.3326C108.253 72.5537 108.302 72.7616 108.347 72.9596C108.355 72.9959 108.365 73.0388 108.375 73.0817L108.451 73.448C108.457 73.4777 108.464 73.5123 108.469 73.547C108.476 73.58 108.48 73.6047 108.484 73.6295C108.49 73.6625 108.495 73.6955 108.502 73.7285L108.513 73.8011C108.518 73.8291 108.523 73.8621 108.527 73.8918L108.543 74.0007C108.546 74.0238 108.55 74.0469 108.553 74.0684C108.583 74.2994 108.593 74.4759 108.584 74.6228C108.482 76.4493 105.213 77.997 103.149 78.794L105.235 81.7112L105.903 82.3794L104.93 82.523C104.702 82.556 104.471 82.5939 104.238 82.6352C104.083 82.6616 103.928 82.6896 103.775 82.721L103.067 82.8695C102.92 82.9041 102.768 82.9388 102.615 82.9767C102.603 82.98 102.585 82.985 102.564 82.9883C102.448 83.018 102.331 83.0477 102.214 83.079C102.182 83.0873 102.144 83.0988 102.105 83.1087L101.971 83.145C101.948 83.1516 101.923 83.1582 101.9 83.1648C101.847 83.1797 101.783 83.1978 101.719 83.2176C101.654 83.2358 101.605 83.249 101.555 83.2655C101.471 83.2902 101.395 83.3133 101.318 83.3381C101.151 83.3892 100.988 83.442 100.823 83.4981C100.712 83.5361 100.602 83.574 100.491 83.6136C100.382 83.6532 100.268 83.6961 100.153 83.739L99.9961 83.7984C99.8971 83.838 99.7866 83.8809 99.6744 83.9271C99.549 83.9766 99.4302 84.0261 99.3131 84.0789C99.2207 84.1185 99.1299 84.1581 99.0391 84.201L98.8543 84.2852C98.7685 84.3264 98.6811 84.366 98.5936 84.4089L98.5458 84.432C98.4435 84.4815 98.3412 84.5327 98.2389 84.5871L98.224 84.5954C98.1844 84.6135 98.1465 84.635 98.1069 84.6548C98.0046 84.7076 97.9056 84.7604 97.8066 84.8148L97.7785 84.8313C97.6597 84.8957 97.5409 84.9633 97.4205 85.0326L96.5146 85.5557L96.5196 85.554ZM98.5573 84.4271L98.5524 84.4304C98.5524 84.4304 98.5557 84.4287 98.5573 84.4271ZM102.272 63.3566L102.25 63.4226C100.796 67.9865 99.3114 74.7993 97.8297 83.6846C97.9188 83.6384 98.0079 83.5938 98.0986 83.5493L98.1399 83.5295C98.2389 83.48 98.3395 83.4338 98.4385 83.3876L98.5458 83.3381C98.5771 83.3232 98.6085 83.31 98.6398 83.2968C98.7306 83.2556 98.8279 83.2127 98.9236 83.1714C99.049 83.117 99.1777 83.0625 99.3048 83.013C99.4153 82.9668 99.5292 82.9223 99.6447 82.8761L99.8097 82.8134C99.9252 82.7705 100.042 82.7276 100.156 82.6847C100.275 82.6434 100.389 82.6038 100.503 82.5642C100.676 82.5048 100.849 82.4487 101.022 82.3959C101.102 82.3712 101.184 82.3464 101.267 82.3217C101.321 82.3035 101.384 82.2854 101.445 82.2689C101.501 82.2507 101.57 82.2309 101.641 82.2111L101.702 82.1946C101.725 82.188 101.748 82.1814 101.772 82.1748L101.847 82.1534C101.882 82.1451 101.915 82.1352 101.948 82.1253C102.085 82.089 102.214 82.0544 102.341 82.023L102.379 82.0148C102.544 81.9735 102.696 81.9389 102.847 81.9042L103.58 81.7508C103.719 81.7227 103.855 81.698 103.991 81.6732L102.238 79.2213C102.083 79.0068 102.039 78.7362 102.115 78.4821C102.192 78.228 102.379 78.0267 102.628 77.9327C105.547 76.8255 107.543 75.4758 107.594 74.57C107.598 74.5106 107.594 74.3984 107.571 74.2053C107.568 74.1773 107.566 74.1641 107.563 74.1492L107.556 74.103C107.555 74.0915 107.553 74.0799 107.55 74.0667L107.542 74.0139C107.54 73.9974 107.537 73.9809 107.533 73.9644L107.52 73.8836C107.517 73.8588 107.514 73.8423 107.51 73.8258L107.504 73.7928C107.5 73.7763 107.497 73.7598 107.494 73.7433L107.487 73.707C107.484 73.6872 107.481 73.6674 107.476 73.6476L107.428 73.41C107.424 73.3935 107.419 73.377 107.416 73.3622L107.4 73.2896C107.391 73.2533 107.385 73.217 107.375 73.1807C107.33 72.9827 107.283 72.7814 107.23 72.5702L107.198 72.4431C107.114 72.1098 107.015 71.7353 106.896 71.3063C106.887 71.2749 106.875 71.232 106.863 71.1908L106.842 71.1116C106.773 70.8624 106.702 70.61 106.626 70.3526C106.613 70.3031 106.599 70.2602 106.586 70.2173C106.454 69.7619 106.311 69.2817 106.146 68.7389C106.121 68.663 106.096 68.5821 106.071 68.498L105.816 67.6697C105.781 67.5608 105.745 67.4436 105.707 67.3265L105.605 67.0031C105.321 66.1088 105.047 65.2623 104.791 64.4819C104.776 64.4291 104.763 64.3944 104.751 64.3581L104.6 63.8961C104.486 63.5513 104.375 63.2163 104.268 62.8946C104.251 62.8418 104.237 62.7989 104.222 62.7543C104.093 62.3699 103.973 62.0085 103.859 61.6703L103.666 61.1027C103.595 60.8931 103.529 60.6968 103.466 60.5153C103.448 60.4658 103.428 60.4064 103.408 60.3486L103.385 60.281C103.016 61.1538 102.639 62.1834 102.267 63.3533L102.272 63.3566ZM98.1415 83.5295C98.1415 83.5295 98.1382 83.5311 98.1349 83.5328L98.1415 83.5295ZM102.372 82.0181C102.372 82.0181 102.367 82.0181 102.364 82.0197C102.367 82.0197 102.369 82.0197 102.372 82.0181Z" fill="#A78ED7"/>
<path d="M117.024 83.2359C116.75 83.2359 116.529 83.0148 116.529 82.7409V75.0519C116.529 74.778 116.75 74.5569 117.024 74.5569C117.298 74.5569 117.519 74.778 117.519 75.0519V82.7409C117.519 83.0148 117.298 83.2359 117.024 83.2359Z" fill="#A78ED7"/>
<path d="M22.1826 62.9473C21.9681 62.9473 21.7685 62.8252 21.6728 62.6239C21.6398 62.5546 21.5837 62.4506 21.5045 62.3038C21.2933 61.9094 20.9402 61.2511 20.46 60.2248C19.9353 59.1028 19.0542 58.2052 18.4718 57.6095C18.2342 57.367 18.0477 57.1772 17.919 57.0106C17.3118 56.2252 15.9522 54.2567 16.4456 52.9648C16.7921 52.0556 17.5659 51.6382 18.0362 51.4633C18.0906 51.0392 18.2375 50.4007 18.6351 49.9502C19.0394 49.4932 19.7109 49.3001 20.1762 49.2193C20.2604 48.8051 20.4963 48.1748 21.1464 47.6831C21.5738 47.3597 22.1183 47.297 22.7139 47.4818C22.3905 46.477 21.9516 45.0431 21.7586 44.0894L21.7272 43.936C21.4236 42.4378 21.2553 41.6111 22.6265 40.9115C22.7486 40.8488 22.9499 40.7911 23.2089 40.8785C23.5092 40.9792 24.2138 41.2151 26.6244 45.5744C27.6689 47.4653 28.6193 49.3793 28.9097 49.9717C29.37 50.1284 30.4392 50.5492 31.1339 51.2801C32.1536 52.3526 31.9028 53.5621 31.586 55.0933C31.3632 56.1691 31.2395 57.3224 31.1652 58.0121C31.1355 58.2943 31.1141 58.4972 31.0926 58.6309C31.0629 58.8289 30.9276 58.9972 30.7428 59.0698L22.379 62.9143L22.3443 62.9242C22.2899 62.9407 22.2354 62.9473 22.1826 62.9473ZM22.0853 48.3662C21.9615 48.3662 21.8427 48.3959 21.7454 48.4702C21.1943 48.886 21.1283 49.4536 21.1217 49.6169C21.1085 49.8991 20.889 50.1301 20.6102 50.1565C20.1564 50.1994 19.6004 50.3545 19.3809 50.6036C19.1334 50.8841 19.0212 51.4286 19.0014 51.8114C18.9882 52.0589 18.8166 52.2668 18.5774 52.3295C18.4223 52.3691 17.6484 52.5985 17.3745 53.3162C17.1468 53.9152 17.8712 55.3226 18.7077 56.4034C18.8001 56.5222 18.9783 56.7037 19.1829 56.9149C19.8132 57.5567 20.7636 58.5286 21.3609 59.8024C21.8279 60.799 22.1711 61.4408 22.3773 61.8269L30.1472 58.2547C30.1587 58.1557 30.1703 58.0385 30.1851 57.9049C30.261 57.197 30.3881 56.014 30.6207 54.8903C30.9573 53.27 31.0266 52.5968 30.4211 51.9599C29.7627 51.2686 28.5813 50.899 28.4493 50.8594C28.2975 50.8148 28.1721 50.7059 28.1028 50.564C25.91 46.0562 23.6973 42.3107 22.968 41.8504C22.4136 42.149 22.4153 42.314 22.704 43.7363L22.7354 43.8898C22.9977 45.19 23.7551 47.4703 23.9811 48.1385C24.0603 48.3728 23.9811 48.6269 23.7831 48.7738C23.5868 48.9206 23.3195 48.9239 23.1182 48.782C22.9532 48.6665 22.4862 48.3629 22.0902 48.3629L22.0853 48.3662ZM28.9889 50.1317C28.9889 50.1317 28.9889 50.1334 28.9889 50.135C28.9889 50.135 28.9889 50.1334 28.9889 50.1317Z" fill="#553597"/>
<path d="M26.1952 59.5072C26.1457 59.5072 26.0962 59.5006 26.0467 59.4841C25.786 59.4033 25.6408 59.1244 25.7217 58.8637C26.2662 57.1213 27.0796 55.5241 27.5994 54.5919C27.2611 54.61 26.8288 54.6199 26.2909 54.61C25.0815 54.5853 24.0354 54.5655 23.4843 53.9599C23.2269 53.6778 23.113 53.3032 23.1477 52.8478C23.184 52.3726 23.5321 51.7011 25.9395 50.7292C27.1638 50.2342 28.3584 49.8894 28.4079 49.8745C28.6719 49.7986 28.9458 49.9504 29.02 50.2128C29.0959 50.4751 28.9441 50.749 28.6818 50.8249C26.3767 51.4899 24.2515 52.4733 24.1327 52.9287C24.1146 53.1811 24.1872 53.262 24.2152 53.2933C24.4792 53.5837 25.494 53.6035 26.3091 53.62C27.2149 53.6382 27.7875 53.5953 28.1076 53.5573C28.36 53.5276 28.6059 53.6398 28.7461 53.8543C28.8864 54.0688 28.8913 54.3394 28.761 54.5589C28.3452 55.2585 27.3073 57.1081 26.6671 59.1574C26.6011 59.3686 26.4064 59.5056 26.1952 59.5056V59.5072Z" fill="#553597"/>
<path d="M25.1611 52.1103C24.9796 52.1103 24.8047 52.0097 24.7173 51.8364L23.064 48.5216C22.9419 48.2774 23.0409 47.9804 23.2867 47.8583C23.5326 47.7362 23.8279 47.8352 23.95 48.081L25.6033 51.3959C25.7254 51.6401 25.6264 51.9371 25.3806 52.0592C25.3096 52.0938 25.2337 52.112 25.1595 52.112L25.1611 52.1103Z" fill="#553597"/>
<path d="M22.6331 55.6775C22.374 55.6775 22.0737 55.6214 21.7355 55.4663C20.0228 54.6825 18.2903 52.2389 18.216 52.1349C18.0593 51.9122 18.1121 51.602 18.3365 51.4452C18.5592 51.2868 18.8678 51.3413 19.0262 51.564C19.0427 51.5871 20.6795 53.8938 22.148 54.5654C22.4532 54.7056 22.7073 54.7254 22.9235 54.6264C23.3228 54.4433 23.562 53.8806 23.6198 53.6793C23.6957 53.417 23.9696 53.2652 24.2319 53.3394C24.4943 53.4137 24.6461 53.6859 24.5735 53.9483C24.5405 54.0671 24.2253 55.1148 23.3442 55.5224C23.166 55.6049 22.9284 55.6758 22.6364 55.6758L22.6331 55.6775Z" fill="#553597"/>
<path d="M23.7007 53.1531C23.5736 53.1531 23.4482 53.1052 23.3509 53.0095L20.2753 49.9488C20.0822 49.7557 20.0806 49.4422 20.2753 49.2492C20.4683 49.0561 20.7818 49.0545 20.9749 49.2492L24.0505 52.3099C24.2435 52.503 24.2452 52.8165 24.0505 53.0095C23.9531 53.1069 23.8261 53.1547 23.699 53.1547L23.7007 53.1531Z" fill="#553597"/>
<path d="M20.7836 57.1379C20.6252 57.1379 20.4486 57.1132 20.2539 57.0554C18.6089 56.5588 17.868 54.8411 17.8367 54.7685C17.7311 54.5161 17.8482 54.2257 18.1007 54.1201C18.3531 54.0128 18.6435 54.1316 18.7491 54.3841C18.7541 54.3956 19.3464 55.747 20.5394 56.1083C20.8133 56.1908 20.9436 56.1314 21.0162 56.0803C21.305 55.879 21.4304 55.2586 21.4452 54.9913C21.4601 54.719 21.696 54.5111 21.9666 54.5243C22.2389 54.5392 22.4484 54.7702 22.4336 55.0424C22.427 55.1761 22.3445 56.3558 21.5871 56.8888C21.4073 57.0142 21.14 57.1379 20.7819 57.1379H20.7836Z" fill="#553597"/>
<path d="M103.628 60.9294C103.493 60.9294 103.358 60.8733 103.26 60.7644C101.483 58.7828 101.845 55.8425 101.998 54.9894C102.01 54.9218 102.023 54.8492 102.036 54.7782L102.053 54.6924C102.902 50.2853 104.239 46.9688 104.295 46.8302L104.46 46.4226L104.884 46.5398C104.985 46.5662 107.379 47.1882 108.271 45.3155C108.732 44.3486 108.653 43.215 108.064 42.357C107.597 41.6789 106.899 41.3027 106.192 41.3588C105.598 41.405 105.326 41.7053 104.952 42.1194C104.3 42.8405 103.49 43.7397 100.922 43.1523C97.2148 42.3026 93.6756 39.4266 92.3176 36.1563C91.4613 34.0971 90.9547 32.0165 90.727 30.9506C89.6661 31.5743 87.2307 32.6006 83.038 32.2986C82.8516 33.0675 82.4077 34.9617 81.9606 37.2866C81.1455 41.5386 80.7429 45.0597 80.794 47.4687C80.9128 53.148 83.632 54.3806 86.1714 55.0901L86.7076 55.2402L85.5807 57.9974C85.4767 58.2515 85.188 58.3719 84.9355 58.268C84.6831 58.164 84.561 57.8753 84.6649 57.6228L85.3744 55.887C82.4902 54.9779 79.9245 53.1975 79.8057 47.4902C79.7512 44.9772 80.1505 41.4809 80.9887 37.1001C81.5217 34.3331 82.0497 32.165 82.1503 31.7591C82.2246 31.4604 82.5117 31.2575 82.8202 31.2888C87.6762 31.7046 90.0076 30.2922 90.6049 29.8484C90.7831 29.7197 91.0059 29.69 91.2055 29.7692C91.4052 29.8484 91.5504 30.0216 91.5916 30.2328C91.7236 30.9258 92.2318 33.3711 93.2317 35.7768C94.456 38.7221 97.7824 41.4182 101.143 42.1871C103.142 42.6441 103.64 42.093 104.216 41.4545C104.643 40.9826 105.127 40.4463 106.115 40.3688C107.178 40.2879 108.21 40.8192 108.879 41.7927C109.667 42.9411 109.776 44.4525 109.164 45.7379C108.28 47.5941 106.295 47.7822 105.062 47.5858C104.688 48.5841 103.689 51.4188 103.023 54.8756L103.006 54.963C102.995 55.0257 102.982 55.0917 102.972 55.1561C102.696 56.6922 102.822 58.7943 103.996 60.1028C104.179 60.3057 104.161 60.6192 103.958 60.8024C103.864 60.8865 103.746 60.9294 103.628 60.9294ZM82.7295 32.2739C82.7295 32.2739 82.7361 32.2739 82.7377 32.2739C82.7344 32.2739 82.7311 32.2739 82.7295 32.2739Z" fill="#553597"/>
<path d="M81.4742 37.1927C81.9923 34.4999 82.5088 32.3714 82.6309 31.878C82.6458 31.817 82.7068 31.7741 82.7712 31.7807C87.8136 32.213 90.2704 30.7115 90.8991 30.2462C90.9783 30.1884 91.0872 30.233 91.1053 30.327C91.2439 31.0563 91.7604 33.528 92.7751 35.9667C93.9813 38.8707 97.2796 41.811 101.033 42.6707C104.785 43.5287 104.134 41.0223 106.153 40.8656C108.176 40.7105 109.803 43.2465 108.717 45.5285C107.63 47.8088 104.752 47.0168 104.752 47.0168C104.752 47.0168 103.388 50.3778 102.538 54.7833C102.52 54.879 102.5 54.9764 102.484 55.077C106.084 49.9059 109.919 50.4405 112.798 44.814C114.126 42.2186 114.573 38.7882 114.156 35.3513C114.548 35.4569 114.948 35.5493 115.352 35.6268C119.002 36.3314 122.219 35.7918 123.45 33.9653C126.283 29.7561 123.688 27.7926 122.396 27.1293C122.163 27.0105 122.158 26.6789 122.389 26.5518C123.511 25.9248 125.717 24.288 125.217 21.2817C124.675 17.9999 121.309 17.7854 120.121 17.8118C119.913 17.8184 119.754 17.627 119.796 17.424C120.074 16.0017 120.774 11.2629 118.174 9.19714C114.633 6.38224 106.977 5.88559 103.343 12.3684C102.827 13.2941 102.444 14.3418 102.173 15.4572C101.715 17.3514 101.609 19.244 101.809 21.0705C97.4232 20.493 93.9087 22.1958 93.9087 22.1958C89.8794 20.2323 84.2232 20.0574 81.867 24.5933C79.5405 29.0763 81.4314 37.0046 81.4759 37.1943L81.4742 37.1927Z" fill="#553597"/>
<path d="M90.0426 56.5883C88.7705 56.5883 87.3911 56.4316 85.9143 56.0471C85.6503 55.9778 85.4919 55.7072 85.5596 55.4432C85.6289 55.1792 85.8978 55.0208 86.1635 55.0885C94.623 57.2945 99.8865 51.6119 99.9377 51.5542C100.121 51.3512 100.434 51.3364 100.637 51.5179C100.84 51.701 100.857 52.0129 100.674 52.2158C100.616 52.2802 99.2315 53.7998 96.7169 55.0373C95.1213 55.8227 92.846 56.5883 90.041 56.5883H90.0426Z" fill="#553597"/>
<path d="M93.417 42.8666C93.552 42.3076 93.4101 41.7938 93.1001 41.7189C92.7901 41.644 92.4293 42.0364 92.2943 42.5954C92.1593 43.1543 92.3011 43.6681 92.6112 43.743C92.9212 43.8179 93.282 43.4255 93.417 42.8666Z" fill="#553597"/>
<path d="M85.7734 41.0198C85.9084 40.4608 85.7666 39.947 85.4565 39.8721C85.1465 39.7972 84.7857 40.1896 84.6507 40.7486C84.5157 41.3075 84.6576 41.8213 84.9676 41.8962C85.2776 41.9711 85.6384 41.5787 85.7734 41.0198Z" fill="#553597"/>
<path d="M87.8509 50.9389C87.1893 50.9389 86.4369 50.797 85.6003 50.4274C85.3495 50.3168 85.2373 50.0248 85.3462 49.774C85.4568 49.5232 85.7488 49.411 85.9996 49.5199C88.8772 50.7887 90.4051 48.8418 90.4695 48.7576C90.6345 48.5415 90.9447 48.4969 91.1625 48.6619C91.3803 48.8253 91.4248 49.1338 91.2615 49.3516C91.2466 49.3714 90.0454 50.9356 87.8509 50.9356V50.9389Z" fill="#553597"/>
<path d="M87.907 47.6965C87.8707 47.6965 87.8327 47.6932 87.7964 47.6833C86.3824 47.3599 85.4551 46.5464 85.0294 46.0894C84.8479 45.8947 84.7621 45.6323 84.7918 45.3683C84.8231 45.1043 84.9683 44.8667 85.1911 44.7182C86.3741 43.9328 87.9614 41.9974 87.1859 40.156C86.4533 38.4136 84.3941 38.9812 84.3067 39.0076C84.0443 39.0818 83.7704 38.9317 83.6945 38.6693C83.6186 38.407 83.7688 38.1331 84.0295 38.0572C85.0591 37.7552 87.2371 37.7239 88.0984 39.7732C88.9811 41.8736 87.5951 44.2645 85.8214 45.4888C86.1959 45.8716 86.9302 46.4738 88.0159 46.7213C88.2832 46.7824 88.4498 47.048 88.3888 47.3137C88.336 47.543 88.133 47.6981 87.907 47.6981V47.6965Z" fill="#553597"/>
<path d="M94.9082 42.1937C94.7531 42.1937 94.6013 42.1211 94.5056 41.9858C94.4577 41.9182 93.3341 40.3886 91.7468 40.8539C91.4844 40.9315 91.2089 40.7797 91.133 40.5173C91.0571 40.255 91.2072 39.9794 91.4696 39.9035C93.7383 39.2402 95.2497 41.3225 95.3124 41.4116C95.4708 41.6344 95.418 41.9429 95.1953 42.1013C95.1078 42.1624 95.0088 42.1921 94.9098 42.1921L94.9082 42.1937Z" fill="#553597"/>
<path d="M53.1615 71.6512C53.0229 71.6512 52.8843 71.5934 52.7869 71.4796C52.6087 71.2733 52.6318 70.9598 52.8381 70.7816C53.3413 70.346 65.2164 60.1177 68.5873 59.3042C71.8593 58.5155 84.9586 56.2517 85.513 56.1544C85.782 56.1065 86.0394 56.288 86.0856 56.5586C86.1318 56.8276 85.9519 57.085 85.6813 57.1312C85.546 57.1543 72.0589 59.4857 68.8183 60.2678C66.213 60.8965 56.8657 68.6119 53.4832 71.5324C53.3892 71.6132 53.2737 71.6528 53.1598 71.6528L53.1615 71.6512Z" fill="#553597"/>
<path d="M130.929 79.3915C130.761 79.3915 130.596 79.3057 130.503 79.1506C130.436 79.0367 123.738 67.7969 121.968 65.35C120.727 63.6356 110.155 60.8752 103.352 59.4397C103.085 59.3836 102.914 59.1212 102.97 58.8523C103.026 58.585 103.288 58.4134 103.557 58.4695C105.327 58.844 120.907 62.1968 122.77 64.7692C124.566 67.2508 131.077 78.1787 131.355 78.6424C131.495 78.8767 131.417 79.1803 131.183 79.3205C131.104 79.3684 131.016 79.3898 130.931 79.3898L130.929 79.3915Z" fill="#553597"/>
<path d="M72.686 147.074C72.6778 147.074 72.6695 147.074 72.6613 147.074C72.3874 147.061 72.1778 146.829 72.191 146.555L73.7206 115.911C73.7338 115.637 73.9664 115.424 74.2403 115.441C74.5142 115.454 74.7238 115.686 74.7106 115.96L73.181 146.604C73.1678 146.868 72.9484 147.074 72.6877 147.074H72.686Z" fill="#553597"/>
<path d="M72.6858 152.391C72.6858 152.391 72.6726 152.391 72.666 152.391C72.3921 152.379 72.1809 152.15 72.1908 151.876L72.2964 149.256C72.3079 148.982 72.5406 148.772 72.8112 148.78C73.0851 148.792 73.2963 149.021 73.2864 149.295L73.1808 151.915C73.1692 152.181 72.9514 152.391 72.6858 152.391Z" fill="#553597"/>
<path d="M94.8259 68.6334C86.9802 68.6334 85.2015 63.7065 85.1305 63.497C85.0414 63.2379 85.18 62.9574 85.4391 62.8683C85.6981 62.7809 85.9786 62.9178 86.0677 63.1752C86.1337 63.3617 87.726 67.6451 94.8276 67.6451C95.1015 67.6451 95.3226 67.8662 95.3226 68.1401C95.3226 68.414 95.1015 68.6351 94.8276 68.6351L94.8259 68.6334Z" fill="#553597"/>
<path d="M126.039 152.391H93.72L94.2727 143.715C92.0469 144.382 85.2291 146.055 82.3531 142.585C79.2792 138.881 81.7575 126.473 82.2624 124.12C80.9127 123.374 76.461 120.787 75.6624 118.657C75.0337 116.983 76.6755 116.023 78.4146 115.007C79.6372 114.292 81.0232 113.482 81.8631 112.337C82.4917 111.479 83.1897 109.151 83.9965 106.453C85.7274 100.675 88.341 91.9414 93.4263 86.8561C94.4559 85.8282 95.6356 84.9256 96.9309 84.1749C97.0563 84.1023 97.18 84.0313 97.3071 83.9637L97.3318 83.9505C97.4407 83.8911 97.5496 83.8317 97.6602 83.7756C97.7031 83.7541 97.7476 83.731 97.7905 83.7096C97.8928 83.6551 97.9968 83.6023 98.1007 83.5528L98.1469 83.5297C98.2641 83.4736 98.3796 83.4175 98.4967 83.3631L98.5479 83.34C98.5792 83.3251 98.6106 83.3119 98.6419 83.2987C98.7294 83.2575 98.8284 83.2146 98.9257 83.1733C99.0511 83.1189 99.1798 83.0644 99.3069 83.0149C99.4174 82.9687 99.5313 82.9242 99.6468 82.878L99.8118 82.8153C99.9273 82.7724 100.044 82.7295 100.158 82.6866C100.282 82.642 100.398 82.6024 100.511 82.5645C100.68 82.5067 100.853 82.4506 101.025 82.3978L101.041 82.3929C101.12 82.3681 101.198 82.3434 101.277 82.3219C101.322 82.3071 101.381 82.2906 101.439 82.2741C101.505 82.2543 101.571 82.2345 101.638 82.2163C101.683 82.2015 101.729 82.1899 101.775 82.1767L101.851 82.1553C101.886 82.147 101.919 82.1371 101.952 82.1272C102.089 82.0909 102.217 82.0563 102.345 82.0249L102.382 82.0167C102.547 81.9754 102.699 81.9408 102.851 81.9061L103.584 81.7527C103.75 81.7197 103.912 81.69 104.074 81.6619C104.313 81.619 104.554 81.5794 104.788 81.5448H104.805C104.902 81.5283 105.001 81.5134 105.097 81.5019L105.678 81.4276C105.864 81.4062 106.044 81.388 106.222 81.3699L106.405 81.3517H106.408C106.456 81.3484 106.504 81.3451 106.552 81.3402L106.831 81.3187C107.017 81.3039 107.204 81.2907 107.389 81.2808C107.474 81.2758 107.565 81.2709 107.654 81.2659C107.928 81.2544 108.194 81.2428 108.454 81.2379H108.544C108.601 81.2346 108.661 81.2329 108.718 81.2329C108.796 81.2329 108.882 81.2296 108.966 81.2296C111.558 81.2082 113.376 81.5068 113.654 81.5563C114.624 81.6025 115.84 81.85 117.173 82.2708C121.775 83.7195 126.814 86.7885 130.655 90.4779C135.722 95.3487 138.613 101.137 139.011 107.217C139.59 116.058 135.033 124.065 131.106 129.225C128.106 133.165 125.182 135.841 124.405 136.526L126.039 152.391ZM94.7743 151.401H124.941L123.367 136.112L123.567 135.944C123.6 135.916 126.903 133.109 130.317 128.626C134.14 123.6 138.58 115.819 138.021 107.281C137.168 94.2399 124.907 85.7424 116.874 83.2129C115.606 82.812 114.465 82.581 113.576 82.5414L113.508 82.5331C113.49 82.5298 111.626 82.1949 108.968 82.2163C108.885 82.2163 108.806 82.2163 108.725 82.2196C108.666 82.2196 108.616 82.2196 108.565 82.2213H108.471C108.222 82.2295 107.963 82.2394 107.699 82.251C107.616 82.2543 107.532 82.2592 107.448 82.2642C107.266 82.2741 107.088 82.2856 106.908 82.3005L106.63 82.3219C106.547 82.3285 106.465 82.3368 106.382 82.345L106.234 82.3731L106.212 82.3615C106.074 82.3764 105.935 82.3912 105.795 82.4061L105.224 82.4787C105.128 82.4902 105.039 82.5034 104.95 82.5166H104.933C104.709 82.5513 104.478 82.5892 104.245 82.6321C104.087 82.6585 103.933 82.6882 103.778 82.7179L103.071 82.8664C102.924 82.9011 102.772 82.9357 102.618 82.9737C102.607 82.977 102.589 82.9819 102.567 82.9852C102.452 83.0149 102.335 83.0446 102.217 83.076C102.186 83.0842 102.148 83.0958 102.109 83.1057L102.031 83.1271C101.995 83.137 101.967 83.1436 101.94 83.1519L101.906 83.1618C101.845 83.1783 101.784 83.1948 101.724 83.2129L101.706 83.2179C101.658 83.2311 101.607 83.2459 101.557 83.2608C101.473 83.2839 101.407 83.3053 101.34 83.3268L101.32 83.3334C101.153 83.3845 100.99 83.4373 100.825 83.4934C100.713 83.5297 100.605 83.5677 100.5 83.6056C100.384 83.6469 100.27 83.6898 100.155 83.7327L99.9982 83.7921C99.8992 83.8317 99.7887 83.8746 99.6765 83.9208C99.5511 83.9703 99.4323 84.0198 99.3151 84.0726C99.2244 84.1122 99.132 84.1518 99.0429 84.193L98.9043 84.2557C98.802 84.3019 98.698 84.3531 98.5941 84.4026L98.5479 84.4257C98.4456 84.4752 98.3433 84.5263 98.241 84.5808L98.2261 84.5874C98.1865 84.6055 98.1486 84.627 98.109 84.6468C98.0067 84.6996 97.9077 84.7524 97.8087 84.8068L97.7773 84.825C97.6569 84.8893 97.5414 84.957 97.4226 85.0246C96.2016 85.7325 95.0911 86.5822 94.1226 87.5508C89.2138 92.4595 86.6431 101.048 84.9403 106.732C84.0378 109.745 83.386 111.921 82.6567 112.918C81.6964 114.228 80.2164 115.093 78.9096 115.857C77.0599 116.937 76.2811 117.497 76.5847 118.303C77.2266 120.019 81.472 122.579 83.0527 123.42L83.386 123.598L83.3019 123.968C83.2689 124.111 80.0893 138.31 83.1088 141.948C86.059 145.509 94.5582 142.582 94.644 142.55L95.3023 142.319V143.034V143.05L94.771 151.396L94.7743 151.401ZM98.5578 84.429L98.5528 84.4323C98.5528 84.4323 98.5561 84.4306 98.5578 84.429ZM98.142 83.5297C98.142 83.5297 98.1387 83.5314 98.1354 83.533L98.142 83.5297ZM102.373 82.0183C102.373 82.0183 102.368 82.0183 102.364 82.02C102.368 82.02 102.369 82.02 102.373 82.0183Z" fill="#553597"/>
<path d="M94.8123 143.519C94.5912 143.519 94.3882 143.368 94.3321 143.144C94.2661 142.878 94.4278 142.609 94.6918 142.543C94.8552 142.502 111.149 138.382 118.079 132.261C118.284 132.079 118.597 132.099 118.777 132.304C118.957 132.508 118.939 132.822 118.734 133.001C111.622 139.285 95.6092 143.334 94.9311 143.504C94.8915 143.514 94.8502 143.519 94.8106 143.519H94.8123Z" fill="#553597"/>
<path d="M113.46 115.381C110.581 115.381 108.799 113.005 108.06 111.75C106.547 113.195 104.448 114.154 102.735 112.809C100.635 111.162 102.027 108.167 102.765 106.899C101.881 106.623 100.344 106.004 99.4485 104.843C98.8297 104.049 98.6103 103.133 98.7967 102.123C99.036 100.835 99.9105 99.8069 101.329 99.1518C102.684 98.5265 104.441 98.3103 105.92 98.5083C104.948 97.2494 103.922 95.2661 104.702 93.0914C105.222 91.6394 106.456 90.7385 108.177 90.5553C110.142 90.3474 112.281 91.1427 113.044 92.3703C113.693 93.4148 113.754 94.649 113.66 95.6027C114.602 94.847 116.003 93.9675 117.412 94.0088C118.361 94.0335 119.174 94.4559 119.833 95.2628C120.526 96.1109 120.785 97.02 120.603 97.9622C120.339 99.33 119.178 100.442 118.308 101.105C119.263 101.389 120.575 101.96 121.382 103.062C122.032 103.953 122.242 105.026 122.004 106.253C121.816 107.234 121.374 108.007 120.691 108.554C119.273 109.687 117.183 109.522 115.981 109.298C116.386 110.524 116.917 112.725 116.099 114.119C115.673 114.845 114.963 115.261 113.988 115.358C113.81 115.376 113.635 115.385 113.464 115.385L113.46 115.381ZM108.301 110.001L108.626 110.708C108.626 110.708 108.692 110.85 108.816 111.075C109.418 112.154 111.122 114.64 113.889 114.37C114.539 114.305 114.982 114.06 115.242 113.616C115.993 112.335 115.132 109.702 114.737 108.796L114.302 107.796L115.341 108.128C115.371 108.138 118.437 109.085 120.07 107.78C120.57 107.379 120.885 106.818 121.03 106.065C121.215 105.107 121.07 104.318 120.583 103.65C119.488 102.145 117.034 101.833 117.009 101.83L115.488 101.645L116.83 100.904C116.854 100.891 119.295 99.5214 119.631 97.7724C119.757 97.124 119.572 96.5085 119.065 95.8898C118.59 95.3073 118.042 95.0169 117.387 94.9988C117.366 94.9988 117.344 94.9988 117.323 94.9988C115.384 94.9988 113.262 97.3104 113.241 97.3335L111.625 99.1122L112.406 96.8402C112.414 96.8171 113.19 94.484 112.203 92.8934C111.705 92.0915 110.008 91.3556 108.283 91.5404C107.347 91.6394 106.129 92.0486 105.636 93.4263C104.575 96.3831 107.832 99.1122 107.865 99.1386L107.302 99.9488C106.179 99.302 103.621 99.1848 101.745 100.051C100.968 100.409 99.9946 101.092 99.7702 102.303C99.6349 103.033 99.7851 103.665 100.231 104.235C101.29 105.608 103.618 106.105 103.641 106.11L104.379 106.263L103.946 106.88C103.922 106.917 101.427 110.525 103.347 112.032C105.004 113.334 107.075 111.372 107.67 110.74C107.75 110.656 107.794 110.603 107.797 110.598L108.301 110.002V110.001Z" fill="#553597"/>
<path d="M110.712 107.251C112.891 107.251 114.657 105.485 114.657 103.306C114.657 101.127 112.891 99.3611 110.712 99.3611C108.533 99.3611 106.767 101.127 106.767 103.306C106.767 105.485 108.533 107.251 110.712 107.251Z" fill="#F8A0C2"/>
<path d="M102.341 95.1687C102.275 95.5152 102.12 95.7528 101.92 95.9112C101.23 96.464 99.9995 96.0713 99.9995 96.0713C99.9995 96.0713 100.95 98.2509 99.5358 98.3912C98.3874 98.5034 97.6977 97.4705 97.4783 97.0778C97.4271 96.987 97.4024 96.9309 97.4024 96.9309C97.4024 96.9309 97.3842 96.954 97.3479 96.9903C97.1235 97.2279 96.2424 98.0694 95.5016 97.487C94.6436 96.8138 95.6864 95.3304 95.6864 95.3304C95.6864 95.3304 94.7558 95.139 94.3169 94.5698C94.142 94.3454 94.0446 94.0616 94.1106 93.7085C94.3433 92.4561 96.4058 92.2697 97.1714 92.7119C97.1714 92.7119 95.8497 91.6212 96.2903 90.3936C96.7308 89.1644 98.6316 89.4894 99.0507 90.161C99.4682 90.8342 99.1431 91.778 99.1431 91.778C99.1431 91.778 100.65 90.1131 101.577 91.25C102.504 92.3852 100.696 93.3834 100.696 93.3834C100.696 93.3834 102.644 93.6144 102.342 95.1687H102.341Z" fill="#553597"/>
<path d="M98.3392 95.573C99.1456 95.573 99.7994 94.9192 99.7994 94.1127C99.7994 93.3062 99.1456 92.6525 98.3392 92.6525C97.5327 92.6525 96.8789 93.3062 96.8789 94.1127C96.8789 94.9192 97.5327 95.573 98.3392 95.573Z" fill="#F8A0C2"/>
<path d="M129.854 101.18C129.788 101.526 129.632 101.764 129.433 101.922C128.743 102.475 127.512 102.082 127.512 102.082C127.512 102.082 128.463 104.262 127.049 104.402C125.9 104.514 125.21 103.481 124.991 103.089C124.94 102.998 124.915 102.942 124.915 102.942C124.915 102.942 124.897 102.965 124.861 103.001C124.636 103.239 123.755 104.08 123.014 103.498C122.156 102.825 123.199 101.341 123.199 101.341C123.199 101.341 122.268 101.15 121.83 100.581C121.655 100.356 121.557 100.072 121.623 99.7193C121.856 98.467 123.918 98.2805 124.684 98.7227C124.684 98.7227 123.362 97.6321 123.803 96.4045C124.244 95.1752 126.144 95.5003 126.563 96.1718C126.981 96.845 126.656 97.7888 126.656 97.7888C126.656 97.7888 128.162 96.124 129.09 97.2608C130.017 98.396 128.208 99.3943 128.208 99.3943C128.208 99.3943 130.157 99.6253 129.855 101.18H129.854Z" fill="#6F46BE"/>
<path d="M125.852 101.584C126.658 101.584 127.312 100.93 127.312 100.123C127.312 99.317 126.658 98.6632 125.852 98.6632C125.045 98.6632 124.392 99.317 124.392 100.123C124.392 100.93 125.045 101.584 125.852 101.584Z" fill="#F8A0C2"/>
<path d="M127.281 115.335C127.215 115.681 127.06 115.919 126.86 116.077C126.171 116.63 124.94 116.238 124.94 116.238C124.94 116.238 125.89 118.417 124.476 118.557C123.328 118.67 122.638 117.637 122.419 117.244C122.368 117.153 122.343 117.097 122.343 117.097C122.343 117.097 122.325 117.12 122.288 117.157C122.064 117.394 121.183 118.236 120.442 117.653C119.584 116.98 120.627 115.497 120.627 115.497C120.627 115.497 119.696 115.305 119.257 114.736C119.082 114.512 118.985 114.228 119.051 113.875C119.284 112.622 121.346 112.436 122.112 112.878C122.112 112.878 120.79 111.787 121.231 110.56C121.671 109.331 123.572 109.656 123.991 110.327C124.409 111 124.084 111.944 124.084 111.944C124.084 111.944 125.59 110.279 126.517 111.416C127.445 112.551 125.636 113.55 125.636 113.55C125.636 113.55 127.585 113.781 127.283 115.335H127.281Z" fill="#6F46BE"/>
<path d="M123.282 115.739C124.088 115.739 124.742 115.085 124.742 114.279C124.742 113.472 124.088 112.819 123.282 112.819C122.475 112.819 121.821 113.472 121.821 114.279C121.821 115.085 122.475 115.739 123.282 115.739Z" fill="#F8A0C2"/>
<path d="M33.7109 23.9578V30.3202H27.2743V36.7569H20.9119V30.3202H14.4785V23.9578H20.9119V17.5261H27.2743V23.9578H33.7109Z" fill="#6F46BE"/>
<path d="M32.2095 137.184C30.2295 137.184 28.3485 136.318 26.5995 134.6C25.4016 133.422 24.4644 132.226 23.8028 131.04C22.4069 129.784 20.9631 127.713 19.6563 124.372C17.8875 119.849 17.711 116.01 19.1151 112.634C20.0111 110.476 21.4383 108.771 22.8986 107.285C22.4036 106.938 21.9366 106.557 21.4944 106.143C17.8116 102.686 18.2159 99.7787 18.7835 98.3531C19.6002 96.3071 21.7287 94.8848 23.9661 94.8848H23.9958C26.1606 94.8963 27.903 96.1949 28.7726 98.4455C30.0563 101.769 27.6588 104.065 25.1195 106.496C24.9083 106.697 24.6954 106.902 24.4809 107.111C28.3452 109.279 33.0164 109.118 36.5325 108.494C41.207 107.666 44.931 105.866 44.9673 105.847C45.2132 105.727 45.5102 105.829 45.629 106.075C45.7494 106.321 45.6471 106.616 45.4013 106.737C45.2462 106.813 41.5337 108.609 36.7272 109.464C31.5462 110.385 27.1209 109.819 23.75 107.831C20.4335 111.179 17.2886 115.597 20.5787 124.011C21.2337 125.685 21.9647 127.111 22.7517 128.269C22.5422 127.193 22.5818 126.149 22.8804 125.161C23.5767 122.852 25.6854 121.039 28.2528 120.544C30.4869 120.112 32.5643 120.786 33.8117 122.346C35.0921 123.946 35.1482 126.387 33.9569 128.715C32.6204 131.327 30.185 132.935 27.7562 132.813C27.2018 132.785 26.588 132.668 25.9362 132.406C26.3388 132.901 26.7926 133.397 27.2958 133.892C29.1801 135.744 31.2113 136.481 33.3332 136.087C40.6476 134.724 47.0579 120.749 47.1222 120.608C47.2344 120.359 47.5281 120.249 47.7773 120.362C48.0264 120.475 48.137 120.768 48.0231 121.017C47.7542 121.613 41.3307 135.603 33.513 137.06C33.0741 137.141 32.6402 137.183 32.2112 137.183L32.2095 137.184ZM24.5634 130.373C25.593 131.274 26.6837 131.771 27.8024 131.827C29.8451 131.926 31.9125 130.531 33.0725 128.266C34.0839 126.289 34.0707 124.26 33.0362 122.966C32.0231 121.699 30.3038 121.158 28.4393 121.517C26.2283 121.945 24.4182 123.488 23.8275 125.448C23.3738 126.951 23.6361 128.632 24.5651 130.373H24.5634ZM23.9661 95.8748C22.1231 95.8748 20.3724 97.0413 19.7042 98.721C18.8841 100.777 19.7603 103.158 22.1726 105.422C22.6329 105.854 23.1131 106.237 23.6114 106.575C23.8886 106.304 24.1641 106.04 24.4347 105.781C26.9262 103.395 28.8947 101.51 27.8486 98.8019C27.1341 96.9506 25.7267 95.8847 23.9909 95.8748H23.9678H23.9661Z" fill="#553597"/>
<path d="M53.7252 61.7347C50.1117 61.7347 45.4933 61.116 42.2148 58.476C39.6457 56.4085 38.301 53.4039 38.2135 49.5445C38.065 42.9726 40.4889 40.2022 42.5481 39.034C43.2015 38.6644 43.8813 38.4202 44.5644 38.2783C44.6782 37.7487 44.8416 37.186 45.0594 36.5854C47.0724 31.0744 51.8277 28.6869 55.6425 28.7727C55.8669 28.7776 56.0896 28.7908 56.3058 28.8106C56.908 28.4922 57.568 28.2579 58.2775 28.1176C62.0643 27.3702 66.2058 29.5432 68.1214 33.2838C69.7434 36.4501 69.6922 40.4728 68.8012 43.7613C69.4051 45.3948 69.7335 47.218 69.7384 49.0759C69.7467 52.2406 68.8359 55.0027 67.2387 56.656C65.9484 57.9909 63.0691 59.7234 58.2759 56.326C58.1736 56.2534 58.0729 56.1808 57.9739 56.1082C57.4426 56.2584 56.9146 56.3326 56.3949 56.3194C55.2448 56.2864 53.6971 55.7782 52.8573 53.5408C52.7616 53.2851 52.8903 52.9996 53.146 52.9039C53.4018 52.8082 53.6872 52.9369 53.7829 53.1927C54.301 54.5754 55.1887 55.2948 56.4213 55.3294C56.5962 55.3344 56.776 55.3245 56.9608 55.3014C54.174 52.8907 53.7928 50.7474 54.0189 49.3053C54.1624 48.3879 54.603 47.52 55.2646 46.7791C55.2795 46.0828 55.3735 45.3783 55.5468 44.6754C55.8075 43.621 56.2431 42.6079 56.8107 41.7037C55.9659 41.7631 55.1541 41.6245 54.466 41.2681C53.5041 40.7698 51.9349 39.3954 52.2418 35.7753C52.458 33.2161 53.41 31.1421 54.9247 29.7759C51.5967 29.9871 47.7126 32.2047 45.99 36.9237C45.8382 37.3378 45.7144 37.7437 45.6154 38.1414C47.3083 38.0457 48.9369 38.5275 50.1051 39.2634C51.6115 40.2121 52.42 41.5437 52.326 42.9181C52.2319 44.2794 51.5158 45.3106 50.3592 45.7462C48.9649 46.2726 47.2093 45.8155 45.9883 44.6094C45.3201 43.9494 44.0727 42.2895 44.3911 39.3343C43.9308 39.4597 43.4754 39.6445 43.0348 39.8937C41.2099 40.9282 39.0649 43.4379 39.2019 49.5198C39.2811 53.0722 40.5037 55.8261 42.8335 57.7021C48.5227 62.2809 59.0118 60.2992 59.1174 60.2794C59.3847 60.2266 59.6454 60.4015 59.6982 60.6705C59.751 60.9394 59.5761 61.1985 59.3071 61.2513C59.1025 61.2909 56.7711 61.7314 53.7252 61.7314V61.7347ZM59.0943 55.6924C62.1369 57.7632 64.7043 57.8605 66.5292 55.9729C68.7105 53.7157 69.2764 49.269 68.2699 45.3964C68.1891 45.6043 68.1066 45.8056 68.0191 46.0036C68.9464 49.0347 67.2667 52.4139 64.7241 54.0127C63.5295 54.7635 62.0511 55.1694 60.5595 54.8361C60.0876 55.1694 59.5942 55.4598 59.0943 55.6941V55.6924ZM55.3669 48.3532C55.1838 48.708 55.0584 49.0792 54.999 49.462C54.7201 51.2539 55.8058 53.1564 58.1472 54.9994C58.5498 54.846 58.9606 54.6447 59.3682 54.4038C58.431 53.9253 57.5185 53.1069 56.7001 51.8512C56.0038 50.782 55.555 49.5957 55.3669 48.3532ZM61.6452 53.9665C62.4768 53.9649 63.343 53.7108 64.1977 53.1729C66.0837 51.9882 67.4301 49.6864 67.2816 47.4276C66.7932 48.2262 66.2503 48.8664 65.6844 49.2888C65.3032 49.5726 64.9155 49.764 64.5294 49.8646C64.4667 50.0461 64.3957 50.2293 64.3132 50.4141C63.7737 51.64 62.8117 52.9155 61.6452 53.9665ZM56.2695 47.1636C56.2975 48.5793 56.6836 50.0131 57.5284 51.3117C58.3369 52.5541 59.3038 53.3709 60.3483 53.7405C61.6402 52.7538 62.7903 51.4123 63.4057 50.0181C63.4222 49.9818 63.4371 49.9455 63.4536 49.9075C62.9107 49.8052 62.3811 49.5165 61.8861 49.0413C60.8053 48.0051 60.2427 46.7428 60.2757 45.507C59.746 45.5218 59.1916 45.6159 58.6306 45.7941C57.7017 46.0894 56.8915 46.5696 56.2711 47.1636H56.2695ZM61.2607 45.5779C61.2459 46.5234 61.698 47.4903 62.5708 48.3268C62.9619 48.7014 63.3562 48.9076 63.7588 48.9472C63.9288 48.1338 63.8661 47.251 63.1929 46.558C62.6995 46.0482 62.028 45.7165 61.2591 45.5796L61.2607 45.5779ZM61.4472 44.6077C62.4141 44.7826 63.2671 45.21 63.9057 45.8683C64.6218 46.6092 64.9237 47.5794 64.8016 48.6898C64.8973 48.6337 64.9947 48.5694 65.0937 48.4968C65.7768 47.9886 66.4236 47.0976 66.9615 45.969C66.8592 45.705 66.7321 45.4443 66.5787 45.1918C65.658 43.6738 64.5228 42.9049 63.3793 43.0303C62.5296 43.1227 61.7805 43.7382 61.4488 44.6094L61.4472 44.6077ZM58.2099 41.4364C57.2463 42.6475 56.5714 44.1936 56.3487 45.8254C56.9311 45.4146 57.5994 45.0813 58.3303 44.8503C59.0382 44.6259 59.7411 44.517 60.4126 44.517H60.4324C60.4456 44.4724 60.4605 44.4279 60.4753 44.385C60.9126 43.1013 62.0082 42.1839 63.2704 42.0453C64.795 41.8786 66.3081 42.8389 67.4235 44.6787C67.4383 44.7018 67.4515 44.7265 67.4664 44.7496C67.5736 44.4543 67.6726 44.149 67.7634 43.8339C67.3839 42.8686 66.8971 41.9694 66.2998 41.1873C64.9551 39.4234 63.2589 38.7189 61.533 39.1347C61.2541 39.4861 60.9324 39.8178 60.5694 40.1247C59.8516 40.7302 59.0365 41.1724 58.2082 41.4348L58.2099 41.4364ZM45.4174 39.1512C45.1369 41.1328 45.5676 42.8059 46.6846 43.9114C47.635 44.8503 48.9699 45.2182 50.0094 44.8255C50.7997 44.5269 51.27 43.8273 51.3376 42.8554C51.4069 41.8555 50.7651 40.854 49.5771 40.1065C48.5013 39.4284 46.9767 38.9977 45.4174 39.1512ZM62.5378 38.0308C64.0608 38.0308 65.6745 38.7321 67.0885 40.5883C67.4779 41.0998 67.8294 41.6592 68.1396 42.2565C68.6659 39.4531 68.5372 36.2686 67.242 33.7392C65.5227 30.3847 61.8349 28.4311 58.4689 29.0928C58.3386 29.1192 58.2115 29.1472 58.0845 29.1802C60.2262 29.8848 61.8201 31.4737 62.5279 33.7045C63.0015 35.1978 62.881 36.7092 62.226 38.0391C62.3283 38.0325 62.4322 38.0292 62.5362 38.0292L62.5378 38.0308ZM56.5005 29.8336C54.6294 30.9408 53.4678 33.0429 53.2285 35.8627C53.0355 38.1529 53.6212 39.7188 54.9214 40.392C55.687 40.788 56.6589 40.8358 57.639 40.5768C58.101 40.0339 58.6158 39.5554 59.1685 39.166C59.6998 38.7915 60.2955 38.4829 60.9307 38.2833C61.8135 37.0243 62.061 35.5014 61.5858 34.0032C60.8482 31.68 58.9804 30.1653 56.5005 29.832V29.8336Z" fill="#553597"/>
<path d="M150.521 88.7204C150.437 88.7204 150.349 88.6989 150.272 88.6527C149.815 88.3854 139.019 82.0065 134.909 73.7879C133.372 70.7139 133.796 68.6745 134.61 67.4024C133.554 66.386 133.288 65.2772 133.28 64.4307C133.277 64.0463 133.328 63.6519 133.429 63.2543C132.376 62.5992 131.632 61.6109 131.254 60.3305C131.102 59.814 131.015 59.2712 130.99 58.7085C129.838 58.6409 128.875 58.2498 128.107 57.5387C124.537 54.2255 126.738 45.1158 126.833 44.7297C126.899 44.4641 127.168 44.3024 127.432 44.3684C127.698 44.4344 127.86 44.7017 127.794 44.9673C127.772 45.0564 125.636 53.8971 128.782 56.8143C129.363 57.3522 130.105 57.6525 131.006 57.7152C131.254 54.4218 133.389 50.7291 136.6 48.4488C139.07 46.6932 140.591 47.1057 141.278 47.5067C142.195 48.0446 142.659 49.155 142.518 50.4767C142.263 52.8741 139.961 56.3325 134.315 58.1855C133.476 58.461 132.696 58.6293 131.977 58.692C132.003 59.1623 132.077 59.6177 132.206 60.05C132.49 61.0119 133.018 61.7643 133.767 62.2907C134.633 60.3437 136.618 58.3571 139.367 56.7731C141.385 55.6115 142.49 56.1329 142.969 56.5487C143.824 57.2895 143.989 58.7382 143.391 60.2397C142.591 62.2494 140.406 64.3383 136.694 64.1733C135.819 64.1337 135.031 63.9753 134.338 63.7047C134.291 63.9473 134.268 64.1865 134.27 64.4208C134.277 65.2541 134.598 65.99 135.23 66.6236C135.389 66.4619 135.547 66.3233 135.699 66.2028C138.233 64.1915 142.85 64.2789 145.384 66.386C146.845 67.6004 146.728 68.4749 146.373 68.9946C145.228 70.6694 139.489 70.3311 135.965 68.3808C135.755 68.2653 135.562 68.1465 135.384 68.0244C134.579 69.3692 134.712 71.1792 135.795 73.344C139.773 81.302 150.663 87.732 150.772 87.7964C151.008 87.935 151.087 88.2369 150.95 88.4729C150.857 88.6313 150.692 88.7187 150.523 88.7187L150.521 88.7204ZM136.004 67.2522C136.143 67.343 136.29 67.4321 136.443 67.5179C139.963 69.4665 144.911 69.3807 145.554 68.4402C145.724 68.1927 145.424 67.7109 144.751 67.1516C142.579 65.3465 138.481 65.2656 136.314 66.9833C136.205 67.0707 136.102 67.1598 136.004 67.2539V67.2522ZM134.63 62.7609C135.237 63.0084 135.941 63.152 136.737 63.1866C139.936 63.3318 141.796 61.5696 142.471 59.8751C142.896 58.8042 142.835 57.7449 142.32 57.2994C141.844 56.8869 140.946 57.0074 139.86 57.6327C137.24 59.1408 135.377 60.9971 134.631 62.7609H134.63ZM139.908 48.1469C139.149 48.1469 138.2 48.5264 137.172 49.2573C134.214 51.3594 132.236 54.7205 131.99 57.6971C132.604 57.636 133.275 57.4859 134.003 57.2466C139.2 55.5405 141.307 52.4781 141.532 50.3744C141.632 49.4372 141.357 48.7046 140.776 48.3647C140.528 48.2195 140.236 48.1485 139.908 48.1485V48.1469Z" fill="#553597"/>
</svg>
