<svg width="247" height="221" viewBox="0 0 247 221" fill="none" xmlns="http://www.w3.org/2000/svg">
<path d="M152.359 94.7167C149.827 102.67 147.498 114.262 145.47 126.649C143.675 127.691 141.951 128.976 140.377 130.547C129.262 141.662 126.249 164.366 123.139 168.604C120.029 172.84 112.684 173.974 113.956 177.365C115.225 180.757 123.984 185.418 123.984 185.418C123.984 185.418 119.039 207.178 123.845 212.973C128.647 218.767 141.928 214.102 141.928 214.102L141.084 227.385H108.806C108.806 227.385 110.009 197.288 111.095 173.554C111.214 170.899 111.335 168.328 111.451 165.885C112.439 145.171 123.396 101.161 126.609 88.6108C126.609 88.6108 131.179 94.7908 138.653 95.6405C146.125 96.4901 152.357 94.7192 152.357 94.7192L152.359 94.7167Z" fill="#6F46BE"/>
<path d="M127.034 85.6267C127.034 85.6267 127.015 85.644 127.002 85.6563C126.997 85.6563 126.995 85.6612 126.992 85.6662C126.938 85.718 126.876 85.7724 126.812 85.8317C126.77 85.8687 126.728 85.9082 126.684 85.9502C126.674 85.9601 126.659 85.9725 126.649 85.9823C126.563 86.0638 126.466 86.1503 126.37 86.2442C126.195 86.4072 125.999 86.5875 125.789 86.7851C125.74 86.832 125.693 86.879 125.641 86.9259C125.315 87.2322 124.955 87.5706 124.564 87.9411C124.49 88.0102 124.416 88.0818 124.34 88.151C123.112 89.3119 121.623 90.7371 120.059 92.266C119.955 92.3673 119.852 92.471 119.745 92.5748C119.464 92.8514 119.182 93.1281 118.901 93.4096C118.661 93.6443 118.421 93.8814 118.182 94.121C118.029 94.2741 117.878 94.4248 117.727 94.5779C117.616 94.6866 117.505 94.7978 117.396 94.9089C117.377 94.9287 117.357 94.9484 117.337 94.9707C117.226 95.0794 117.115 95.193 117.004 95.3041C116.727 95.5857 116.448 95.8698 116.171 96.1513C116.06 96.265 115.949 96.3786 115.84 96.4897C115.714 96.6206 115.586 96.7515 115.46 96.8825C115.381 96.964 115.299 97.0479 115.223 97.1319C115.161 97.1961 115.097 97.2604 115.038 97.3246C114.973 97.3888 114.912 97.4555 114.852 97.5197C114.791 97.5839 114.729 97.6482 114.667 97.7124C114.605 97.7766 114.544 97.8408 114.482 97.905C113.753 98.6732 113.054 99.4266 112.412 100.143C112.163 100.419 111.925 100.691 111.696 100.955C111.577 101.091 111.464 101.227 111.35 101.358C111.261 101.462 111.175 101.563 111.091 101.664C111.086 101.672 111.081 101.679 111.071 101.689C110.94 101.845 110.814 101.998 110.69 102.148C110.685 102.156 110.681 102.161 110.676 102.168C110.594 102.267 110.515 102.363 110.441 102.46C110.436 102.467 110.431 102.472 110.429 102.477C110.352 102.573 110.275 102.667 110.204 102.761C110.162 102.815 110.12 102.87 110.08 102.924C110.009 103.015 109.94 103.107 109.875 103.196C109.87 103.201 109.868 103.206 109.865 103.208C109.764 103.344 109.668 103.477 109.576 103.603C109.3 104.003 109.075 104.362 108.914 104.673C108.868 104.762 108.826 104.848 108.793 104.927C108.746 105.033 108.709 105.132 108.68 105.224C108.665 105.278 108.65 105.33 108.643 105.379C107.981 108.85 112.612 113.809 112.612 113.809C112.612 113.809 103.846 117.611 103.187 119.925C102.722 121.548 102.179 140.908 105.666 157.627C106.904 163.577 108.653 169.192 111.098 173.556C110.011 197.29 108.808 227.387 108.808 227.387H71.941L83.6686 151.855L84.6739 145.386C84.6739 145.386 59.0699 157.546 51.7957 144.981C44.524 132.416 29.126 99.2611 30.9415 95.9537C32.7594 92.6489 45.433 86.6641 47.5794 87.9855C49.4541 89.1415 60.174 111.562 65.9562 115.198C66.8059 115.731 67.5494 115.862 68.1397 115.459C72.766 112.32 97.5673 91.488 102.362 89.6725C106.659 88.0423 123.428 85.7502 126.871 85.2907C127.064 85.2636 127.175 85.4982 127.034 85.6316V85.6267Z" fill="#A78ED7"/>
<path d="M111.723 176.179L110.453 173.914C108.181 169.859 106.326 164.427 104.943 157.773C101.415 140.849 101.998 121.39 102.477 119.715C103.1 117.534 108.87 114.689 111.402 113.533C110.083 111.935 107.356 108.198 107.919 105.234C107.931 105.167 107.951 105.088 107.973 105.009C108.015 104.878 108.062 104.754 108.119 104.624C108.161 104.527 108.208 104.428 108.262 104.32C108.435 103.991 108.675 103.603 108.974 103.174C109.065 103.048 109.154 102.922 109.248 102.798L109.268 102.761L109.314 102.707L109.863 101.995C109.934 101.907 110.009 101.815 110.083 101.724L110.12 101.679C110.243 101.526 110.372 101.371 110.505 101.212L110.53 101.183L110.789 100.877C110.905 100.741 111.021 100.602 111.14 100.467C111.374 100.2 111.614 99.9281 111.861 99.649C112.466 98.9722 113.148 98.2362 113.946 97.3939C114.003 97.3321 114.069 97.263 114.133 97.1963C114.185 97.1395 114.252 97.0703 114.319 97.0036C114.378 96.9419 114.437 96.8826 114.497 96.8184C114.541 96.7714 114.585 96.7245 114.632 96.6776L115.645 95.6328C115.919 95.3512 116.201 95.0671 116.477 94.7856L116.803 94.4595C116.826 94.4348 116.848 94.4126 116.87 94.3904L116.974 94.2866C117.053 94.2076 117.13 94.1285 117.209 94.052C117.352 93.9062 117.505 93.7531 117.658 93.6L118.379 92.8861C118.636 92.6317 118.893 92.3773 119.15 92.1254L119.543 91.7401C120.909 90.4038 122.351 89.0156 123.831 87.6152L124.055 87.4027C124.443 87.0347 124.806 86.6938 125.132 86.3876C125.189 86.3357 125.234 86.2937 125.278 86.2517C125.495 86.0467 125.693 85.8639 125.868 85.7034C125.96 85.6169 126.051 85.5305 126.138 85.4514L126.17 85.4218C126.224 85.3699 126.271 85.3255 126.318 85.2835L126.555 85.0587L126.617 85.0266C126.926 84.824 127.323 84.8191 127.639 85.0217C127.983 85.2415 128.143 85.654 128.04 86.0492C127.891 86.6197 127.649 87.5534 127.331 88.7933C124.028 101.692 113.178 145.381 112.197 165.919C112.081 168.362 111.962 170.931 111.841 173.586L111.725 176.179H111.723ZM110.495 103.601L110.461 103.648C110.362 103.779 110.27 103.905 110.184 104.028C109.925 104.401 109.72 104.732 109.574 105.009C109.534 105.081 109.505 105.15 109.475 105.216C109.438 105.3 109.408 105.377 109.389 105.444C109.384 105.456 109.379 105.483 109.374 105.508C108.89 108.057 111.94 111.997 113.155 113.298L113.872 114.066L112.908 114.484C109.401 116.005 104.29 118.759 103.9 120.123C103.49 121.56 102.942 140.925 106.392 157.472C107.477 162.691 108.853 167.124 110.488 170.701C110.564 169.039 110.641 167.416 110.715 165.847C111.703 145.169 122.583 101.358 125.896 88.4228C125.982 88.0844 126.064 87.7683 126.14 87.4744C125.821 87.7732 125.463 88.1116 125.076 88.4772L124.851 88.6896C123.379 90.0827 121.941 91.4634 120.583 92.7947L120.192 93.1751C119.935 93.4271 119.681 93.679 119.427 93.9334L118.708 94.6448C118.557 94.7954 118.409 94.9436 118.258 95.0943C118.174 95.1758 118.1 95.2499 118.026 95.324L117.532 95.8205C117.26 96.0971 116.981 96.3812 116.707 96.6628L115.694 97.7076C115.657 97.7471 115.618 97.7841 115.583 97.8237C115.519 97.8928 115.452 97.9595 115.388 98.0287C115.329 98.0904 115.27 98.1497 115.213 98.2115C115.144 98.2831 115.084 98.3424 115.028 98.4041C114.232 99.2414 113.56 99.9676 112.968 100.632C112.726 100.906 112.486 101.175 112.256 101.437C112.143 101.568 112.029 101.702 111.915 101.832L111.671 102.121C111.658 102.139 111.644 102.156 111.626 102.173C111.51 102.312 111.399 102.448 111.288 102.581L111.231 102.65C111.167 102.729 111.103 102.806 111.043 102.882L110.987 102.956L110.493 103.596L110.495 103.601ZM111.258 102.625L111.253 102.63C111.253 102.63 111.256 102.625 111.258 102.625ZM110.117 101.679C110.117 101.679 110.115 101.682 110.112 101.684L110.117 101.679Z" fill="#553597"/>
<path d="M83.6688 152.594C83.6219 152.594 83.5725 152.589 83.5255 152.579C83.1229 152.5 82.8636 152.109 82.9401 151.709L87.9123 126.392C87.9913 125.989 88.3791 125.727 88.7817 125.806C89.1843 125.885 89.4437 126.276 89.3671 126.676L84.395 151.993C84.3258 152.347 84.0146 152.591 83.6688 152.591V152.594Z" fill="#553597"/>
<path d="M73.5962 127.274C73.359 127.274 73.1244 127.16 72.9811 126.947L65.1142 115.267C64.8845 114.928 64.9759 114.467 65.3142 114.239C65.6526 114.012 66.1145 114.101 66.3418 114.439L74.2087 126.12C74.4384 126.458 74.347 126.92 74.0086 127.148C73.8827 127.234 73.7369 127.274 73.5962 127.274Z" fill="#553597"/>
<path d="M205.234 194.026C201.341 194.703 197.797 193.099 197.797 193.099L195.67 192.996C201.771 184.978 208.191 173.337 207.353 160.547C205.8 136.808 179.368 123.228 170.051 122.821C170.051 122.821 164.131 121.739 156.973 122.803L153.655 118.165C153.453 117.883 153.571 117.483 153.897 117.359C155.871 116.611 161.671 114.2 161.811 111.673C161.974 108.712 155.258 89.3743 154.885 88.2999C154.88 88.2875 154.876 88.2702 154.868 88.2579C154.868 88.2579 154.868 88.2579 154.868 88.2529C154.868 88.2529 179.847 94.176 182.046 96.0384C184.246 97.8983 215.724 143.761 218.431 165.423C221.141 187.085 209.124 193.346 205.231 194.023L205.234 194.026Z" fill="#A78ED7"/>
<path d="M144.487 128.072L144.739 126.528C147.038 112.496 149.35 101.756 151.618 94.6031L151.652 94.492C152.423 92.0739 153.201 90.0287 153.967 88.4133C154.127 88.0774 154.466 87.865 154.834 87.865H154.851C155.194 87.8724 155.506 88.0601 155.669 88.3565L155.703 88.4084L155.75 88.5442C155.76 88.5714 155.77 88.601 155.78 88.6307C155.881 88.9197 156.012 89.305 156.17 89.7669L156.207 89.8756C156.234 89.9546 156.256 90.0262 156.286 90.1028C156.385 90.3918 156.486 90.6882 156.592 91.0044L156.879 91.8516C157.052 92.3629 157.235 92.9063 157.425 93.4768C157.449 93.5485 157.477 93.625 157.501 93.7041C157.659 94.1734 157.825 94.6772 157.998 95.1959L158.168 95.7072C158.178 95.7369 158.19 95.769 158.2 95.8036L158.225 95.8777C158.25 95.9493 158.272 96.0209 158.294 96.095C158.675 97.246 159.085 98.5181 159.509 99.8568L159.665 100.346C159.719 100.526 159.771 100.694 159.826 100.86L160.213 102.114C160.25 102.238 160.285 102.352 160.32 102.463C160.574 103.29 160.789 104.016 160.984 104.691C161.004 104.752 161.026 104.831 161.048 104.91C161.162 105.293 161.273 105.681 161.374 106.054L161.409 106.175C161.424 106.229 161.439 106.284 161.456 106.336C161.641 107.005 161.792 107.573 161.923 108.092L161.97 108.28C162.051 108.611 162.125 108.922 162.192 109.218C162.204 109.272 162.219 109.337 162.234 109.401L162.347 109.949C162.357 109.994 162.367 110.046 162.375 110.097C162.385 110.147 162.392 110.184 162.397 110.221C162.407 110.27 162.414 110.32 162.424 110.369L162.441 110.478C162.449 110.52 162.456 110.569 162.461 110.614L162.486 110.777C162.491 110.811 162.496 110.846 162.501 110.878C162.545 111.224 162.56 111.488 162.548 111.708C162.394 114.442 157.501 116.759 154.411 117.952L157.533 122.319L158.534 123.319L157.076 123.534C156.736 123.584 156.39 123.64 156.042 123.702C155.809 123.742 155.577 123.784 155.347 123.831L154.288 124.053C154.068 124.105 153.841 124.157 153.611 124.214C153.594 124.218 153.567 124.226 153.535 124.231C153.362 124.275 153.186 124.32 153.011 124.367C152.964 124.379 152.907 124.396 152.848 124.411L152.648 124.465C152.613 124.475 152.576 124.485 152.542 124.495C152.463 124.517 152.366 124.544 152.27 124.574C152.174 124.601 152.099 124.621 152.025 124.646C151.899 124.683 151.786 124.717 151.67 124.754C151.42 124.831 151.176 124.91 150.929 124.994C150.763 125.051 150.598 125.108 150.432 125.167C150.269 125.226 150.099 125.29 149.926 125.355L149.691 125.444C149.543 125.503 149.378 125.567 149.21 125.636C149.022 125.71 148.844 125.784 148.669 125.863C148.53 125.923 148.394 125.982 148.259 126.046L147.982 126.172C147.854 126.234 147.723 126.293 147.592 126.357L147.52 126.392C147.367 126.466 147.214 126.543 147.061 126.624L147.038 126.637C146.979 126.664 146.922 126.696 146.863 126.725C146.71 126.805 146.562 126.884 146.414 126.965L146.372 126.99C146.194 127.086 146.016 127.187 145.836 127.291L144.479 128.074L144.487 128.072ZM147.537 126.385L147.53 126.39C147.53 126.39 147.535 126.387 147.537 126.385ZM153.097 94.8427L153.065 94.9415C150.889 101.774 148.666 111.972 146.448 125.273C146.581 125.204 146.715 125.137 146.851 125.071L146.912 125.041C147.061 124.967 147.211 124.898 147.36 124.829L147.52 124.754C147.567 124.732 147.614 124.712 147.661 124.693C147.797 124.631 147.942 124.567 148.086 124.505C148.273 124.423 148.466 124.342 148.656 124.268C148.822 124.199 148.992 124.132 149.165 124.063L149.412 123.969C149.585 123.905 149.76 123.841 149.931 123.776C150.109 123.715 150.279 123.655 150.449 123.596C150.709 123.507 150.968 123.423 151.228 123.344C151.346 123.307 151.47 123.27 151.593 123.233C151.675 123.206 151.768 123.179 151.86 123.154C151.944 123.127 152.048 123.097 152.154 123.067L152.245 123.043C152.28 123.033 152.314 123.023 152.349 123.013L152.463 122.981C152.514 122.969 152.564 122.954 152.613 122.939C152.818 122.885 153.011 122.833 153.201 122.786L153.258 122.773C153.505 122.712 153.732 122.66 153.959 122.608L155.056 122.378C155.264 122.336 155.469 122.299 155.671 122.262L153.048 118.592C152.816 118.271 152.749 117.866 152.863 117.485C152.979 117.105 153.258 116.804 153.631 116.663C158 115.005 160.989 112.985 161.066 111.629C161.07 111.54 161.066 111.372 161.031 111.083C161.026 111.041 161.024 111.021 161.019 110.999L161.009 110.93C161.006 110.913 161.004 110.895 160.999 110.876L160.987 110.796C160.984 110.772 160.979 110.747 160.974 110.722L160.954 110.601C160.949 110.564 160.945 110.54 160.94 110.515L160.93 110.465C160.925 110.441 160.92 110.416 160.915 110.391L160.905 110.337C160.9 110.307 160.895 110.278 160.888 110.248L160.816 109.892C160.811 109.868 160.804 109.843 160.799 109.821L160.774 109.712C160.762 109.658 160.752 109.603 160.737 109.549C160.67 109.253 160.599 108.951 160.52 108.635L160.473 108.445C160.347 107.946 160.199 107.385 160.021 106.743C160.006 106.696 159.989 106.632 159.971 106.57L159.939 106.452C159.835 106.079 159.729 105.701 159.616 105.316C159.596 105.241 159.576 105.177 159.556 105.113C159.359 104.431 159.144 103.713 158.897 102.9C158.86 102.786 158.823 102.665 158.786 102.539L158.403 101.299C158.351 101.136 158.297 100.961 158.24 100.786L158.087 100.301C157.662 98.9627 157.252 97.6956 156.869 96.5273C156.847 96.4482 156.827 96.3964 156.81 96.342L156.582 95.6504C156.412 95.1342 156.247 94.6328 156.086 94.1511C156.061 94.0721 156.039 94.0079 156.017 93.9412C155.824 93.3657 155.644 92.8247 155.473 92.3184L155.184 91.4687C155.078 91.155 154.979 90.8611 154.886 90.5894C154.858 90.5153 154.829 90.4264 154.799 90.3399L154.765 90.2387C154.211 91.5453 153.648 93.0866 153.09 94.8378L153.097 94.8427ZM146.915 125.041C146.915 125.041 146.91 125.043 146.905 125.046L146.915 125.041ZM153.248 122.778C153.248 122.778 153.241 122.778 153.236 122.781C153.241 122.781 153.243 122.781 153.248 122.778Z" fill="#A78ED7"/>
<path d="M175.181 124.602C174.771 124.602 174.44 124.271 174.44 123.861V112.35C174.44 111.94 174.771 111.609 175.181 111.609C175.591 111.609 175.922 111.94 175.922 112.35V123.861C175.922 124.271 175.591 124.602 175.181 124.602Z" fill="#A78ED7"/>
<path d="M33.2064 94.2301C32.8853 94.2301 32.5865 94.0474 32.4432 93.746C32.3938 93.6423 32.3098 93.4867 32.1913 93.2668C31.8751 92.6765 31.3465 91.691 30.6278 90.1546C29.8423 88.475 28.5233 87.1313 27.6514 86.2397C27.2957 85.8766 27.0166 85.5925 26.824 85.3431C25.915 84.1673 23.8797 81.2206 24.6182 79.2866C25.1369 77.9257 26.2954 77.3007 26.9993 77.0389C27.0808 76.4041 27.3007 75.4483 27.8959 74.7739C28.5011 74.0898 29.5064 73.8008 30.2029 73.6797C30.3289 73.0598 30.6821 72.1162 31.6553 71.3802C32.295 70.896 33.1101 70.8022 34.0018 71.0788C33.5177 69.5746 32.8606 67.4282 32.5716 66.0005L32.5247 65.7708C32.0702 63.528 31.8183 62.2906 33.8709 61.2433C34.0536 61.1494 34.355 61.063 34.7428 61.1939C35.1923 61.3446 36.247 61.6978 39.8557 68.2235C41.4192 71.0541 42.8419 73.9193 43.2766 74.806C43.9658 75.0407 45.5663 75.6706 46.6062 76.7648C48.1326 78.3703 47.7572 80.1808 47.283 82.4729C46.9495 84.0834 46.7643 85.8099 46.6531 86.8424C46.6087 87.2647 46.5765 87.5685 46.5444 87.7686C46.5 88.065 46.2974 88.3169 46.0208 88.4256L33.5004 94.1807L33.4485 94.1955C33.367 94.2202 33.2855 94.2301 33.2064 94.2301ZM33.0607 72.4027C32.8755 72.4027 32.6976 72.4472 32.5519 72.5584C31.7269 73.1808 31.6281 74.0305 31.6182 74.275C31.5985 74.6974 31.27 75.0432 30.8525 75.0827C30.1733 75.1469 29.3409 75.3791 29.0124 75.7521C28.6419 76.172 28.4739 76.9871 28.4443 77.5601C28.4245 77.9306 28.1676 78.2418 27.8095 78.3357C27.5773 78.395 26.4189 78.7383 26.0089 79.8127C25.668 80.7094 26.7523 82.8163 28.0046 84.4341C28.1429 84.6119 28.4097 84.8837 28.716 85.1998C29.6595 86.1606 31.0822 87.6155 31.9764 89.5223C32.6754 91.0142 33.1891 91.975 33.4979 92.553L45.1291 87.2055C45.1464 87.0572 45.1637 86.8819 45.1859 86.6818C45.2996 85.6222 45.4897 83.8512 45.838 82.1691C46.3419 79.7436 46.4456 78.7358 45.5391 77.7824C44.5536 76.7475 42.7851 76.1942 42.5875 76.1349C42.3603 76.0682 42.1725 75.9052 42.0688 75.6928C38.7862 68.9447 35.4739 63.3378 34.3822 62.6487C33.5522 63.0958 33.5547 63.3428 33.987 65.4719L34.0339 65.7016C34.4266 67.648 35.5603 71.0615 35.8987 72.0619C36.0173 72.4126 35.8987 72.793 35.6023 73.0128C35.3084 73.2327 34.9083 73.2376 34.6069 73.0252C34.3599 72.8523 33.6609 72.3978 33.0681 72.3978L33.0607 72.4027ZM43.3952 75.0456C43.3952 75.0456 43.3952 75.0481 43.3952 75.0506C43.3952 75.0506 43.3952 75.0481 43.3952 75.0456Z" fill="#553597"/>
<path d="M39.2138 89.08C39.1397 89.08 39.0656 89.0701 38.9915 89.0454C38.6012 88.9244 38.3838 88.507 38.5049 88.1167C39.32 85.5084 40.5377 83.1174 41.3157 81.7219C40.8094 81.749 40.1622 81.7639 39.357 81.749C37.5465 81.712 35.9805 81.6823 35.1555 80.7759C34.7702 80.3535 34.5998 79.7928 34.6517 79.1111C34.706 78.3997 35.2272 77.3944 38.8309 75.9396C40.6637 75.1986 42.4519 74.6824 42.526 74.6601C42.9212 74.5465 43.3313 74.7738 43.4424 75.1665C43.556 75.5592 43.3288 75.9692 42.936 76.0829C39.4855 77.0783 36.3041 78.5504 36.1263 79.2321C36.0991 79.61 36.2078 79.731 36.2498 79.778C36.645 80.2127 38.164 80.2423 39.3842 80.267C40.7402 80.2942 41.5973 80.23 42.0765 80.1732C42.4544 80.1287 42.8224 80.2967 43.0324 80.6178C43.2423 80.9389 43.2497 81.344 43.0546 81.6725C42.4322 82.7197 40.8785 85.4886 39.9202 88.5564C39.8214 88.8725 39.5299 89.0775 39.2138 89.0775V89.08Z" fill="#553597"/>
<path d="M37.6649 78.007C37.3932 78.007 37.1313 77.8563 37.0004 77.597L34.5255 72.6348C34.3427 72.2692 34.4909 71.8246 34.8589 71.6418C35.227 71.459 35.6691 71.6072 35.8519 71.9753L38.3268 76.9375C38.5096 77.3031 38.3614 77.7477 37.9934 77.9304C37.8872 77.9823 37.7735 78.0095 37.6624 78.0095L37.6649 78.007Z" fill="#553597"/>
<path d="M33.8808 83.3472C33.493 83.3472 33.0434 83.2632 32.5371 83.031C29.9732 81.8577 27.3797 78.1997 27.2686 78.0441C27.0339 77.7106 27.113 77.2463 27.4489 77.0116C27.7823 76.7745 28.2442 76.856 28.4813 77.1895C28.506 77.224 30.9563 80.6771 33.1546 81.6824C33.6115 81.8923 33.9919 81.922 34.3155 81.7738C34.9132 81.4996 35.2714 80.6573 35.3578 80.356C35.4714 79.9633 35.8815 79.736 36.2742 79.8472C36.6669 79.9583 36.8942 80.3659 36.7855 80.7586C36.7361 80.9364 36.2643 82.5049 34.9453 83.115C34.6786 83.2385 34.3229 83.3447 33.8857 83.3447L33.8808 83.3472Z" fill="#553597"/>
<path d="M35.4792 79.568C35.289 79.568 35.1013 79.4964 34.9555 79.3531L30.3515 74.7713C30.0625 74.4823 30.06 74.013 30.3515 73.724C30.6404 73.435 31.1098 73.4326 31.3987 73.724L36.0028 78.3059C36.2918 78.5949 36.2943 79.0642 36.0028 79.3531C35.8571 79.4989 35.6669 79.5705 35.4767 79.5705L35.4792 79.568Z" fill="#553597"/>
<path d="M31.1121 85.5333C30.875 85.5333 30.6107 85.4963 30.3192 85.4098C27.8566 84.6663 26.7476 82.0951 26.7007 81.9864C26.5426 81.6085 26.718 81.1737 27.0959 81.0157C27.4738 80.8551 27.9085 81.033 28.0666 81.4109C28.074 81.4282 28.9607 83.4511 30.7465 83.992C31.1565 84.1155 31.3517 84.0266 31.4604 83.95C31.8926 83.6487 32.0803 82.72 32.1026 82.3198C32.1248 81.9123 32.478 81.6011 32.8831 81.6208C33.2906 81.6431 33.6043 81.9888 33.5821 82.3964C33.5722 82.5965 33.4487 84.3625 32.315 85.1603C32.0457 85.348 31.6456 85.5333 31.1096 85.5333H31.1121Z" fill="#553597"/>
<path d="M155.128 91.2093C154.926 91.2093 154.723 91.1253 154.577 90.9623C151.917 87.9958 152.458 83.5943 152.688 82.3173C152.705 82.216 152.725 82.1073 152.745 82.0011L152.769 81.8727C154.041 75.2753 156.042 70.3106 156.126 70.1031L156.373 69.493L157.008 69.6684C157.159 69.7079 160.742 70.6391 162.079 67.8357C162.768 66.3882 162.649 64.6914 161.768 63.407C161.069 62.3918 160.024 61.8286 158.967 61.9126C158.077 61.9818 157.67 62.4313 157.109 63.0513C156.133 64.1307 154.921 65.4768 151.077 64.5975C145.527 63.3254 140.229 59.0202 138.196 54.1247C136.914 51.0421 136.156 47.9275 135.815 46.3318C134.227 47.2655 130.581 48.8018 124.305 48.3498C124.026 49.5009 123.362 52.3364 122.692 55.8166C121.472 62.1818 120.869 67.4528 120.946 71.059C121.124 79.5608 125.194 81.4058 128.996 82.4679L129.798 82.6927L128.111 86.8201C127.956 87.2005 127.523 87.3808 127.146 87.2252C126.768 87.0696 126.585 86.6373 126.74 86.2594L127.803 83.661C123.485 82.3 119.644 79.6349 119.466 71.0911C119.385 67.3293 119.983 62.0954 121.237 55.5375C122.035 51.3953 122.826 48.1498 122.976 47.5421C123.087 47.0951 123.517 46.7913 123.979 46.8382C131.248 47.4606 134.738 45.3463 135.632 44.6819C135.899 44.4892 136.233 44.4448 136.532 44.5633C136.83 44.6819 137.048 44.9412 137.11 45.2574C137.307 46.2948 138.068 49.9553 139.565 53.5566C141.397 57.9655 146.377 62.0015 151.408 63.1525C154.4 63.8367 155.145 63.0118 156.007 62.0559C156.647 61.3494 157.371 60.5467 158.85 60.4306C160.441 60.3096 161.987 61.1049 162.988 62.5622C164.168 64.2813 164.331 66.5439 163.415 68.468C162.091 71.2467 159.12 71.5283 157.275 71.2344C156.714 72.7287 155.22 76.9722 154.222 82.1468L154.197 82.2778C154.18 82.3716 154.16 82.4704 154.145 82.5667C153.733 84.8663 153.92 88.0131 155.679 89.9718C155.953 90.2756 155.926 90.7449 155.622 91.0191C155.481 91.1451 155.304 91.2093 155.128 91.2093ZM123.843 48.3128C123.843 48.3128 123.853 48.3128 123.856 48.3128C123.851 48.3128 123.846 48.3128 123.843 48.3128Z" fill="#553597"/>
<path d="M121.964 55.6759C122.74 51.6448 123.513 48.4585 123.695 47.72C123.718 47.6286 123.809 47.5644 123.905 47.5743C131.454 48.2214 135.132 45.9737 136.073 45.2772C136.191 45.1907 136.354 45.2574 136.381 45.3982C136.589 46.49 137.362 50.19 138.881 53.8407C140.687 58.1879 145.624 62.5894 151.243 63.8763C156.86 65.1607 155.884 61.4087 158.908 61.1741C161.936 60.9419 164.371 64.7383 162.746 68.1543C161.118 71.5679 156.811 70.3823 156.811 70.3823C156.811 70.3823 154.768 75.4136 153.496 82.0085C153.469 82.1518 153.439 82.2975 153.414 82.4482C158.804 74.7072 164.544 75.5075 168.854 67.0848C170.843 63.1995 171.512 58.0644 170.887 52.9194C171.475 53.0774 172.073 53.2158 172.678 53.3318C178.142 54.3865 182.958 53.5789 184.801 50.8446C189.042 44.5436 185.156 41.6043 183.222 40.6113C182.874 40.4335 182.867 39.937 183.213 39.7468C184.892 38.8082 188.195 36.358 187.446 31.8577C186.633 26.9448 181.595 26.6237 179.816 26.6633C179.505 26.6731 179.268 26.3866 179.33 26.0828C179.747 23.9537 180.794 16.8598 176.902 13.7674C171.601 9.55357 160.14 8.8101 154.701 18.5147C153.928 19.9004 153.355 21.4688 152.95 23.1386C152.263 25.9741 152.105 28.8072 152.404 31.5415C145.839 30.677 140.578 33.226 140.578 33.226C134.546 30.2867 126.079 30.0249 122.552 36.815C119.069 43.5259 121.9 55.3943 121.966 55.6783L121.964 55.6759Z" fill="#553597"/>
<path d="M134.79 84.7104C132.886 84.7104 130.821 84.4758 128.61 83.9003C128.215 83.7965 127.978 83.3915 128.079 82.9963C128.183 82.6011 128.585 82.3639 128.983 82.4652C141.647 85.7676 149.526 77.2609 149.603 77.1745C149.877 76.8707 150.346 76.8484 150.65 77.1201C150.954 77.3943 150.978 77.8611 150.704 78.1649C150.618 78.2613 148.545 80.5361 144.781 82.3886C142.393 83.5644 138.987 84.7104 134.788 84.7104H134.79Z" fill="#553597"/>
<path d="M139.842 64.1697C140.044 63.333 139.831 62.5638 139.367 62.4517C138.903 62.3396 138.363 62.927 138.161 63.7637C137.959 64.6004 138.171 65.3696 138.635 65.4817C139.099 65.5938 139.639 65.0064 139.842 64.1697Z" fill="#553597"/>
<path d="M128.4 61.405C128.602 60.5683 128.39 59.7991 127.926 59.687C127.462 59.5749 126.922 60.1623 126.719 60.999C126.517 61.8358 126.73 62.6049 127.194 62.717C127.658 62.8291 128.198 62.2417 128.4 61.405Z" fill="#553597"/>
<path d="M131.51 76.2534C130.519 76.2534 129.393 76.041 128.141 75.4877C127.765 75.3223 127.597 74.8851 127.76 74.5096C127.926 74.1342 128.363 73.9662 128.739 74.1292C133.046 76.0287 135.333 73.1141 135.43 72.9881C135.677 72.6645 136.141 72.5978 136.467 72.8448C136.793 73.0894 136.86 73.5513 136.615 73.8773C136.593 73.9069 134.795 76.2485 131.51 76.2485V76.2534Z" fill="#553597"/>
<path d="M131.594 71.3999C131.54 71.3999 131.483 71.395 131.429 71.3801C129.312 70.896 127.924 69.6783 127.287 68.9941C127.015 68.7027 126.886 68.3099 126.931 67.9147C126.978 67.5195 127.195 67.1638 127.529 66.9415C129.3 65.7658 131.676 62.8685 130.515 60.112C129.418 57.5037 126.336 58.3534 126.205 58.3929C125.812 58.504 125.402 58.2793 125.288 57.8865C125.175 57.4938 125.399 57.0838 125.79 56.9702C127.331 56.5181 130.591 56.4712 131.881 59.539C133.202 62.6833 131.127 66.2623 128.472 68.095C129.033 68.6681 130.132 69.5696 131.757 69.9401C132.157 70.0315 132.407 70.4292 132.315 70.8269C132.236 71.1702 131.933 71.4024 131.594 71.4024V71.3999Z" fill="#553597"/>
<path d="M142.074 63.1623C141.842 63.1623 141.615 63.0537 141.472 62.8511C141.4 62.7498 139.718 60.4602 137.342 61.1567C136.949 61.2728 136.537 61.0455 136.423 60.6528C136.309 60.2601 136.534 59.8476 136.927 59.734C140.323 58.741 142.586 61.8582 142.68 61.9916C142.917 62.325 142.838 62.7869 142.504 63.024C142.373 63.1154 142.225 63.1599 142.077 63.1599L142.074 63.1623Z" fill="#553597"/>
<path d="M79.581 107.26C79.3736 107.26 79.1661 107.173 79.0204 107.003C78.7536 106.694 78.7882 106.225 79.0969 105.958C79.8503 105.306 97.6269 89.9942 102.673 88.7765C107.571 87.5958 127.18 84.207 128.01 84.0613C128.413 83.9896 128.798 84.2613 128.867 84.6664C128.937 85.069 128.667 85.4543 128.262 85.5235C128.06 85.5581 107.87 89.0482 103.019 90.219C99.1187 91.16 85.1262 102.71 80.0627 107.082C79.9219 107.203 79.749 107.262 79.5786 107.262L79.581 107.26Z" fill="#553597"/>
<path d="M195.997 118.846C195.745 118.846 195.498 118.718 195.36 118.486C195.258 118.315 185.233 101.49 182.582 97.8267C180.725 95.2603 164.9 91.128 154.716 88.9791C154.316 88.8952 154.059 88.5024 154.143 88.0998C154.227 87.6997 154.62 87.4428 155.022 87.5268C157.672 88.0875 180.994 93.1065 183.783 96.9572C186.473 100.672 196.219 117.031 196.634 117.725C196.844 118.076 196.728 118.53 196.377 118.74C196.259 118.812 196.128 118.844 195.999 118.844L195.997 118.846Z" fill="#553597"/>
<path d="M108.808 220.166C108.796 220.166 108.784 220.166 108.771 220.166C108.361 220.146 108.048 219.798 108.067 219.388L110.357 173.515C110.377 173.105 110.725 172.786 111.135 172.811C111.545 172.831 111.859 173.179 111.839 173.589L109.549 219.462C109.53 219.857 109.201 220.166 108.811 220.166H108.808Z" fill="#553597"/>
<path d="M141.951 102.742C130.206 102.742 127.543 95.3664 127.437 95.0527C127.304 94.6649 127.511 94.245 127.899 94.1116C128.287 93.9807 128.707 94.1857 128.84 94.5711C128.939 94.8502 131.322 101.262 141.953 101.262C142.363 101.262 142.694 101.593 142.694 102.003C142.694 102.413 142.363 102.744 141.953 102.744L141.951 102.742Z" fill="#553597"/>
<path d="M188.675 228.124H140.295L141.123 215.137C137.791 216.135 127.585 218.639 123.279 213.445C118.678 207.9 122.388 189.325 123.144 185.803C121.123 184.687 114.459 180.814 113.264 177.625C112.323 175.12 114.78 173.683 117.384 172.161C119.214 171.092 121.289 169.879 122.546 168.165C123.487 166.88 124.532 163.395 125.74 159.357C128.331 150.707 132.243 137.633 139.856 130.021C141.397 128.482 143.163 127.131 145.102 126.007C145.29 125.898 145.475 125.792 145.665 125.691L145.702 125.671C145.865 125.582 146.028 125.493 146.194 125.409C146.258 125.377 146.325 125.342 146.389 125.31C146.542 125.229 146.698 125.15 146.853 125.076L146.922 125.041C147.098 124.957 147.271 124.873 147.446 124.792L147.523 124.757C147.569 124.735 147.616 124.715 147.663 124.695C147.794 124.633 147.942 124.569 148.088 124.507C148.276 124.426 148.469 124.344 148.659 124.27C148.824 124.201 148.995 124.135 149.168 124.065L149.415 123.972C149.587 123.907 149.763 123.843 149.933 123.779C150.119 123.712 150.291 123.653 150.462 123.596C150.714 123.51 150.973 123.426 151.23 123.347L151.255 123.339C151.373 123.302 151.489 123.265 151.608 123.233C151.675 123.211 151.764 123.186 151.85 123.161C151.949 123.132 152.048 123.102 152.149 123.075C152.216 123.053 152.285 123.035 152.354 123.016L152.467 122.984C152.519 122.971 152.569 122.956 152.618 122.942C152.823 122.887 153.016 122.835 153.206 122.788L153.263 122.776C153.51 122.714 153.737 122.662 153.964 122.611L155.061 122.381C155.31 122.331 155.553 122.287 155.795 122.245C156.153 122.181 156.513 122.121 156.864 122.07H156.889C157.035 122.045 157.183 122.023 157.326 122.005L158.195 121.894C158.475 121.862 158.744 121.835 159.011 121.808L159.285 121.781H159.29C159.361 121.776 159.433 121.771 159.505 121.763L159.922 121.731C160.201 121.709 160.48 121.689 160.757 121.674C160.885 121.667 161.021 121.66 161.154 121.652C161.565 121.635 161.962 121.618 162.352 121.61H162.486C162.572 121.605 162.661 121.603 162.748 121.603C162.864 121.603 162.992 121.598 163.118 121.598C166.999 121.566 169.72 122.013 170.135 122.087C171.588 122.156 173.408 122.527 175.404 123.156C182.293 125.325 189.836 129.919 195.586 135.442C203.172 142.734 207.499 151.398 208.094 160.5C208.961 173.735 202.139 185.722 196.261 193.445C191.77 199.344 187.393 203.35 186.23 204.375L188.675 228.124ZM141.874 226.642H187.033L184.676 203.755L184.975 203.503C185.025 203.461 189.969 199.26 195.08 192.549C200.803 185.025 207.45 173.376 206.612 160.597C205.335 141.074 186.981 128.353 174.957 124.567C173.057 123.967 171.351 123.621 170.019 123.561L169.918 123.549C169.891 123.544 167.1 123.043 163.121 123.075C162.997 123.075 162.879 123.075 162.758 123.08C162.669 123.08 162.594 123.08 162.518 123.082H162.377C162.004 123.095 161.616 123.109 161.221 123.127C161.098 123.132 160.972 123.139 160.846 123.147C160.574 123.161 160.307 123.179 160.038 123.201L159.621 123.233C159.497 123.243 159.374 123.255 159.25 123.268L159.028 123.31L158.996 123.292C158.788 123.314 158.581 123.337 158.371 123.359L157.516 123.468C157.373 123.485 157.24 123.505 157.106 123.524H157.081C156.746 123.576 156.4 123.633 156.051 123.697C155.814 123.737 155.585 123.781 155.352 123.826L154.293 124.048C154.073 124.1 153.846 124.152 153.616 124.209C153.599 124.214 153.572 124.221 153.539 124.226C153.367 124.27 153.191 124.315 153.016 124.362C152.969 124.374 152.912 124.391 152.853 124.406L152.737 124.438C152.682 124.453 152.64 124.463 152.601 124.475L152.549 124.49C152.458 124.515 152.366 124.54 152.277 124.567L152.25 124.574C152.179 124.594 152.102 124.616 152.028 124.638C151.902 124.673 151.803 124.705 151.702 124.737L151.672 124.747C151.423 124.824 151.178 124.903 150.931 124.987C150.763 125.041 150.603 125.098 150.445 125.155C150.272 125.216 150.101 125.281 149.928 125.345L149.694 125.434C149.545 125.493 149.38 125.557 149.212 125.626C149.024 125.701 148.846 125.775 148.671 125.854C148.535 125.913 148.397 125.972 148.264 126.034L148.056 126.128C147.903 126.197 147.747 126.274 147.592 126.348L147.523 126.382C147.369 126.456 147.216 126.533 147.063 126.614L147.041 126.624C146.982 126.651 146.925 126.684 146.866 126.713C146.712 126.792 146.564 126.871 146.416 126.953L146.369 126.98C146.189 127.076 146.016 127.178 145.838 127.279C144.01 128.338 142.348 129.611 140.898 131.06C133.55 138.409 129.701 151.265 127.152 159.774C125.801 164.284 124.826 167.542 123.734 169.034C122.296 170.995 120.081 172.29 118.125 173.433C115.356 175.051 114.19 175.888 114.644 177.096C115.605 179.665 121.961 183.496 124.327 184.756L124.826 185.023L124.7 185.576C124.65 185.791 119.891 207.045 124.411 212.491C128.827 217.822 141.55 213.44 141.679 213.393L142.664 213.047V214.117V214.141L141.869 226.635L141.874 226.642ZM147.537 126.387L147.53 126.392C147.53 126.392 147.535 126.39 147.537 126.387ZM146.915 125.041C146.915 125.041 146.91 125.043 146.905 125.046L146.915 125.041ZM153.248 122.778C153.248 122.778 153.241 122.779 153.236 122.781C153.241 122.781 153.243 122.781 153.248 122.778Z" fill="#553597"/>
<path d="M141.93 214.843C141.599 214.843 141.296 214.618 141.212 214.282C141.113 213.884 141.355 213.482 141.75 213.383C141.995 213.321 166.386 207.153 176.76 197.99C177.066 197.718 177.535 197.748 177.805 198.054C178.074 198.36 178.047 198.83 177.74 199.099C167.095 208.505 143.123 214.566 142.108 214.82C142.049 214.835 141.987 214.843 141.928 214.843H141.93Z" fill="#553597"/>
<path d="M169.846 172.722C165.536 172.722 162.868 169.165 161.762 167.285C159.497 169.449 156.355 170.884 153.791 168.871C150.647 166.406 152.731 161.923 153.835 160.024C152.512 159.611 150.212 158.685 148.871 156.946C147.944 155.758 147.616 154.387 147.895 152.875C148.253 150.946 149.562 149.407 151.687 148.427C153.714 147.491 156.345 147.167 158.558 147.464C157.103 145.579 155.567 142.61 156.735 139.355C157.513 137.181 159.361 135.832 161.937 135.558C164.879 135.247 168.08 136.437 169.224 138.275C170.194 139.839 170.286 141.686 170.145 143.114C171.555 141.983 173.652 140.666 175.762 140.728C177.182 140.765 178.4 141.397 179.385 142.605C180.423 143.875 180.81 145.236 180.539 146.646C180.143 148.694 178.405 150.358 177.103 151.351C178.533 151.776 180.497 152.631 181.704 154.281C182.678 155.615 182.991 157.22 182.636 159.058C182.354 160.525 181.692 161.683 180.67 162.501C178.548 164.198 175.418 163.951 173.62 163.615C174.225 165.45 175.021 168.745 173.796 170.832C173.158 171.919 172.096 172.541 170.636 172.687C170.37 172.714 170.108 172.727 169.851 172.727L169.846 172.722ZM162.122 164.667L162.609 165.727C162.609 165.727 162.708 165.939 162.893 166.275C163.794 167.89 166.346 171.613 170.488 171.208C171.461 171.111 172.123 170.743 172.514 170.079C173.637 168.162 172.348 164.22 171.758 162.864L171.106 161.367L172.662 161.864C172.706 161.878 177.296 163.296 179.741 161.342C180.489 160.742 180.961 159.902 181.178 158.776C181.455 157.341 181.238 156.16 180.509 155.16C178.869 152.907 175.196 152.441 175.159 152.436L172.882 152.159L174.89 151.05C174.927 151.03 178.58 148.98 179.084 146.362C179.272 145.391 178.995 144.47 178.237 143.544C177.525 142.672 176.705 142.237 175.725 142.21C175.692 142.21 175.66 142.21 175.628 142.21C172.726 142.21 169.55 145.67 169.517 145.705L167.099 148.368L168.268 144.966C168.28 144.932 169.441 141.439 167.964 139.058C167.218 137.858 164.679 136.756 162.095 137.033C160.695 137.181 158.872 137.793 158.133 139.856C156.545 144.282 161.421 148.368 161.47 148.407L160.628 149.62C158.946 148.652 155.117 148.476 152.309 149.773C151.146 150.309 149.688 151.332 149.352 153.145C149.15 154.236 149.375 155.182 150.042 156.037C151.627 158.092 155.112 158.835 155.147 158.843L156.251 159.073L155.604 159.996C155.567 160.051 151.832 165.453 154.707 167.708C157.187 169.657 160.287 166.72 161.179 165.774C161.297 165.648 161.364 165.569 161.369 165.561L162.122 164.67V164.667Z" fill="#553597"/>
<path d="M165.731 160.552C168.993 160.552 171.637 157.908 171.637 154.646C171.637 151.384 168.993 148.74 165.731 148.74C162.469 148.74 159.825 151.384 159.825 154.646C159.825 157.908 162.469 160.552 165.731 160.552Z" fill="#F8A0C2"/>
<path d="M153.201 142.464C153.102 142.983 152.87 143.339 152.571 143.576C151.539 144.403 149.696 143.815 149.696 143.815C149.696 143.815 151.119 147.078 149.002 147.288C147.283 147.456 146.25 145.91 145.922 145.322C145.845 145.186 145.808 145.102 145.808 145.102C145.808 145.102 145.781 145.137 145.727 145.191C145.391 145.547 144.072 146.807 142.963 145.935C141.679 144.927 143.24 142.706 143.24 142.706C143.24 142.706 141.846 142.42 141.189 141.568C140.928 141.232 140.782 140.807 140.881 140.278C141.229 138.404 144.316 138.125 145.463 138.786C145.463 138.786 143.484 137.154 144.144 135.316C144.803 133.476 147.649 133.963 148.276 134.968C148.901 135.976 148.414 137.388 148.414 137.388C148.414 137.388 150.669 134.896 152.057 136.598C153.446 138.297 150.738 139.792 150.738 139.792C150.738 139.792 153.656 140.138 153.204 142.464H153.201Z" fill="#553597"/>
<path d="M147.211 143.069C148.419 143.069 149.397 142.091 149.397 140.883C149.397 139.676 148.419 138.698 147.211 138.698C146.004 138.698 145.025 139.676 145.025 140.883C145.025 142.091 146.004 143.069 147.211 143.069Z" fill="#F8A0C2"/>
<path d="M194.386 151.462C194.287 151.981 194.055 152.337 193.756 152.574C192.723 153.401 190.881 152.814 190.881 152.814C190.881 152.814 192.303 156.076 190.187 156.286C188.468 156.454 187.435 154.908 187.107 154.32C187.03 154.184 186.993 154.1 186.993 154.1C186.993 154.1 186.966 154.135 186.911 154.189C186.575 154.545 185.257 155.805 184.147 154.933C182.863 153.925 184.424 151.705 184.424 151.705C184.424 151.705 183.031 151.418 182.374 150.566C182.112 150.23 181.966 149.805 182.065 149.277C182.414 147.402 185.501 147.123 186.647 147.785C186.647 147.785 184.669 146.152 185.328 144.314C185.988 142.474 188.833 142.961 189.46 143.966C190.085 144.974 189.599 146.387 189.599 146.387C189.599 146.387 191.854 143.894 193.242 145.596C194.63 147.296 191.923 148.79 191.923 148.79C191.923 148.79 194.84 149.136 194.388 151.462H194.386Z" fill="#6F46BE"/>
<path d="M188.396 152.067C189.603 152.067 190.582 151.089 190.582 149.882C190.582 148.674 189.603 147.696 188.396 147.696C187.189 147.696 186.21 148.674 186.21 149.882C186.21 151.089 187.189 152.067 188.396 152.067Z" fill="#F8A0C2"/>
<path d="M190.535 172.653C190.436 173.171 190.204 173.527 189.905 173.764C188.873 174.592 187.03 174.004 187.03 174.004C187.03 174.004 188.453 177.267 186.336 177.477C184.617 177.645 183.584 176.098 183.256 175.51C183.179 175.375 183.142 175.291 183.142 175.291C183.142 175.291 183.115 175.325 183.061 175.38C182.725 175.735 181.406 176.995 180.297 176.123C179.012 175.115 180.574 172.895 180.574 172.895C180.574 172.895 179.18 172.608 178.523 171.756C178.262 171.42 178.116 170.995 178.215 170.467C178.563 168.592 181.65 168.313 182.797 168.975C182.797 168.975 180.818 167.342 181.478 165.504C182.137 163.664 184.982 164.151 185.61 165.156C186.235 166.164 185.748 167.577 185.748 167.577C185.748 167.577 188.003 165.085 189.391 166.786C190.78 168.486 188.072 169.98 188.072 169.98C188.072 169.98 190.99 170.326 190.538 172.653H190.535Z" fill="#6F46BE"/>
<path d="M184.547 173.258C185.755 173.258 186.733 172.279 186.733 171.072C186.733 169.865 185.755 168.886 184.547 168.886C183.34 168.886 182.361 169.865 182.361 171.072C182.361 172.279 183.34 173.258 184.547 173.258Z" fill="#F8A0C2"/>
<path d="M50.4641 35.8641V45.3885H40.8287V55.0239H31.3044V45.3885H21.6738V35.8641H31.3044V26.2361H40.8287V35.8641H50.4641Z" fill="#6F46BE"/>
<path d="M48.2166 205.36C45.2526 205.36 42.4368 204.063 39.8186 201.492C38.0254 199.729 36.6224 197.938 35.632 196.162C33.5424 194.282 31.3811 191.182 29.4249 186.181C26.777 179.41 26.5127 173.663 28.6147 168.609C29.9559 165.378 32.0925 162.827 34.2784 160.601C33.5374 160.083 32.8384 159.512 32.1765 158.892C26.6634 153.717 27.2686 149.365 28.1182 147.231C29.3409 144.168 32.5272 142.039 35.8765 142.039H35.921C39.1616 142.057 41.7699 144 43.0716 147.37C44.9933 152.344 41.4044 155.782 37.603 159.421C37.2869 159.722 36.9682 160.028 36.6471 160.342C42.4319 163.588 49.4245 163.346 54.688 162.412C61.6855 161.172 67.2603 158.477 67.3147 158.45C67.6827 158.27 68.1273 158.423 68.3051 158.791C68.4855 159.159 68.3323 159.601 67.9643 159.781C67.7321 159.895 62.1746 162.585 54.9795 163.864C47.2237 165.242 40.5991 164.395 35.5529 161.419C30.5882 166.431 25.8804 173.045 30.8056 185.64C31.7862 188.147 32.8804 190.281 34.0586 192.015C33.7449 190.404 33.8042 188.841 34.2512 187.361C35.2936 183.906 38.4502 181.191 42.2936 180.45C45.6379 179.803 48.7477 180.813 50.615 183.148C52.5317 185.543 52.6157 189.197 50.8324 192.682C48.8317 196.592 45.1859 199 41.5501 198.817C40.7202 198.775 39.8013 198.6 38.8257 198.207C39.4284 198.948 40.1076 199.692 40.861 200.433C43.6817 203.204 46.7223 204.308 49.8987 203.718C60.8482 201.677 70.4442 180.757 70.5405 180.547C70.7085 180.174 71.1481 180.008 71.5211 180.179C71.8941 180.347 72.0595 180.786 71.8891 181.159C71.4865 182.051 61.8708 202.994 50.1679 205.175C49.5109 205.296 48.8613 205.358 48.2191 205.358L48.2166 205.36ZM36.7706 195.164C38.3119 196.513 39.9446 197.256 41.6193 197.34C44.6771 197.488 47.772 195.401 49.5084 192.01C51.0226 189.051 51.0028 186.013 49.4541 184.076C47.9375 182.179 45.3638 181.369 42.5727 181.908C39.2629 182.547 36.5533 184.857 35.669 187.791C34.9898 190.041 35.3825 192.558 36.7731 195.164H36.7706ZM35.8765 143.521C33.1175 143.521 30.4968 145.268 29.4965 147.782C28.2689 150.86 29.5805 154.424 33.1916 157.813C33.8808 158.46 34.5995 159.033 35.3455 159.539C35.7604 159.134 36.1729 158.739 36.578 158.351C40.3077 154.78 43.2544 151.956 41.6884 147.903C40.6189 145.132 38.512 143.536 35.9136 143.521H35.879H35.8765Z" fill="#553597"/>
<path d="M80.4255 92.4146C75.0162 92.4146 68.1027 91.4883 63.1948 87.5363C59.349 84.4414 57.336 79.9436 57.205 74.1662C56.9827 64.3282 60.6112 60.1811 63.6937 58.4323C64.6719 57.879 65.6895 57.5135 66.7121 57.3011C66.8825 56.5082 67.127 55.6659 67.4531 54.7668C70.4665 46.517 77.585 42.943 83.2957 43.0714C83.6316 43.0788 83.965 43.0986 84.2886 43.1282C85.1901 42.6515 86.1781 42.3008 87.2402 42.0908C92.9089 40.9719 99.1086 44.2249 101.976 49.8244C104.404 54.5643 104.328 60.5862 102.994 65.5089C103.898 67.9542 104.389 70.6835 104.397 73.4647C104.409 78.2022 103.046 82.337 100.655 84.8119C98.7233 86.8102 94.4131 89.4037 87.2378 84.3179C87.0846 84.2092 86.934 84.1006 86.7858 83.9919C85.9904 84.2166 85.2 84.3278 84.422 84.308C82.7004 84.2586 80.3835 83.4979 79.1263 80.1486C78.983 79.7657 79.1757 79.3384 79.5585 79.1951C79.9414 79.0519 80.3687 79.2445 80.512 79.6274C81.2875 81.6973 82.6164 82.7742 84.4615 82.826C84.7233 82.8335 84.9925 82.8186 85.2692 82.7841C81.0974 79.1754 80.5268 75.9669 80.8652 73.8081C81.0801 72.4348 81.7396 71.1355 82.73 70.0265C82.7523 68.9842 82.893 67.9295 83.1524 66.8773C83.5427 65.2989 84.1947 63.7823 85.0444 62.4288C83.7798 62.5177 82.5645 62.3102 81.5345 61.7767C80.0945 61.0308 77.7456 58.9733 78.205 53.5541C78.5286 49.7231 79.9537 46.6183 82.2212 44.5732C77.2392 44.8893 71.4248 48.209 68.8462 55.2732C68.6189 55.8932 68.4337 56.5008 68.2855 57.0961C70.8197 56.9528 73.2576 57.674 75.0063 58.7757C77.2614 60.1959 78.4717 62.1892 78.331 64.2467C78.1902 66.2844 77.1182 67.8282 75.3867 68.4803C73.2996 69.2682 70.6715 68.584 68.8437 66.7784C67.8433 65.7904 65.976 63.3056 66.4527 58.8819C65.7636 59.0696 65.0819 59.3462 64.4224 59.7192C61.6906 61.2679 58.4796 65.0247 58.6846 74.1292C58.8031 79.4471 60.6334 83.5695 64.121 86.3779C72.6376 93.2322 88.3394 90.2657 88.4975 90.236C88.8976 90.157 89.2879 90.4188 89.3669 90.8214C89.446 91.224 89.1841 91.6118 88.7815 91.6909C88.4752 91.7502 84.9851 92.4096 80.4255 92.4096V92.4146ZM88.4629 83.3694C93.0176 86.4693 96.8609 86.615 99.5927 83.7893C102.858 80.4104 103.705 73.7537 102.199 67.9566C102.078 68.2679 101.954 68.5692 101.823 68.8656C103.211 73.403 100.697 78.4616 96.8905 80.855C95.1023 81.9788 92.8891 82.5865 90.6563 82.0875C89.9498 82.5865 89.2113 83.0212 88.4629 83.3719V83.3694ZM82.8832 72.3829C82.609 72.9139 82.4213 73.4697 82.3323 74.0427C81.9149 76.7251 83.5402 79.573 87.0451 82.332C87.6478 82.1023 88.2628 81.801 88.8729 81.4404C87.47 80.7241 86.104 79.499 84.8789 77.6193C83.8366 76.0187 83.1647 74.2428 82.8832 72.3829ZM92.2815 80.7858C93.5264 80.7834 94.8231 80.403 96.1026 79.5978C98.9258 77.8243 100.941 74.3786 100.719 70.9972C99.9879 72.1927 99.1753 73.1511 98.3281 73.7834C97.7575 74.2082 97.1771 74.4947 96.5991 74.6454C96.5052 74.9171 96.399 75.1913 96.2755 75.4679C95.4678 77.3031 94.0278 79.2124 92.2815 80.7858ZM84.2343 70.602C84.2762 72.7213 84.8542 74.8677 86.1189 76.8116C87.3292 78.6715 88.7766 79.8942 90.3401 80.4474C92.2741 78.9704 93.9957 76.9623 94.917 74.8751C94.9417 74.8208 94.9639 74.7664 94.9886 74.7096C94.176 74.5565 93.3831 74.1242 92.6421 73.4129C91.0243 71.8617 90.182 69.9722 90.2314 68.1221C89.4385 68.1444 88.6086 68.2852 87.7688 68.5519C86.3782 68.994 85.1654 69.7128 84.2367 70.602H84.2343ZM91.706 68.2283C91.6838 69.6437 92.3606 71.0911 93.6672 72.3434C94.2526 72.9041 94.8429 73.2128 95.4456 73.2721C95.7 72.0544 95.6061 70.7329 94.5984 69.6955C93.8598 68.9323 92.8546 68.4358 91.7035 68.2308L91.706 68.2283ZM91.9851 66.776C93.4325 67.0378 94.7095 67.6775 95.6654 68.6631C96.7374 69.7721 97.1894 71.2245 97.0066 72.8868C97.1499 72.8028 97.2956 72.7065 97.4438 72.5978C98.4664 71.837 99.4346 70.5032 100.24 68.8137C100.087 68.4185 99.8965 68.0283 99.6668 67.6504C98.2886 65.378 96.5892 64.2269 94.8775 64.4147C93.6054 64.553 92.4841 65.4743 91.9876 66.7784L91.9851 66.776ZM87.139 62.0286C85.6965 63.8416 84.6863 66.156 84.3528 68.5988C85.2247 67.9838 86.2251 67.4849 87.3193 67.1391C88.3789 66.8032 89.4311 66.6401 90.4364 66.6401H90.4661C90.4858 66.5734 90.5081 66.5068 90.5303 66.4425C91.1848 64.5209 92.8249 63.1476 94.7145 62.9401C96.9967 62.6906 99.2617 64.1281 100.931 66.8822C100.954 66.9168 100.973 66.9538 100.996 66.9884C101.156 66.5463 101.304 66.0893 101.44 65.6176C100.872 64.1726 100.144 62.8265 99.2494 61.6557C97.2363 59.0152 94.6972 57.9605 92.1136 58.583C91.6961 59.1091 91.2145 59.6056 90.6711 60.065C89.5966 60.9715 88.3764 61.6334 87.1365 62.0262L87.139 62.0286ZM67.9891 58.6077C67.5692 61.5742 68.2138 64.0787 69.886 65.7336C71.3087 67.1391 73.307 67.6899 74.8631 67.102C76.0462 66.655 76.7502 65.6077 76.8514 64.1528C76.9552 62.656 75.9943 61.1567 74.2159 60.0378C72.6055 59.0227 70.3232 58.378 67.9891 58.6077ZM93.6178 56.9306C95.8976 56.9306 98.3133 57.9803 100.43 60.7591C101.013 61.5248 101.539 62.3621 102.003 63.2562C102.791 59.0597 102.599 54.2926 100.66 50.5061C98.086 45.4846 92.5656 42.5601 87.5268 43.5506C87.3316 43.5901 87.1414 43.6321 86.9513 43.6815C90.1573 44.7362 92.5433 47.1148 93.603 50.4542C94.3119 52.6896 94.1315 54.9521 93.151 56.9429C93.3041 56.933 93.4597 56.9281 93.6153 56.9281L93.6178 56.9306ZM84.5801 44.6596C81.7791 46.317 80.0402 49.4638 79.682 53.685C79.3931 57.1133 80.2699 59.4574 82.2163 60.4651C83.3623 61.0579 84.8172 61.1296 86.2843 60.7418C86.976 59.9291 87.7466 59.2128 88.574 58.6299C89.3694 58.0692 90.2611 57.6073 91.212 57.3085C92.5335 55.4239 92.904 53.1441 92.1926 50.9013C91.0885 47.4235 88.2925 45.1561 84.5801 44.6571V44.6596Z" fill="#553597"/>
<path d="M225.326 132.812C225.2 132.812 225.069 132.779 224.953 132.71C224.269 132.31 208.108 122.761 201.955 110.458C199.655 105.856 200.29 102.804 201.508 100.899C199.927 99.3776 199.529 97.7178 199.517 96.4507C199.512 95.8752 199.588 95.2848 199.739 94.6896C198.163 93.709 197.049 92.2295 196.484 90.3127C196.256 89.5396 196.126 88.727 196.089 87.8847C194.364 87.7835 192.922 87.1981 191.773 86.1335C186.428 81.1737 189.723 67.5369 189.867 66.9589C189.965 66.5612 190.368 66.3192 190.763 66.418C191.161 66.5168 191.403 66.9169 191.304 67.3146C191.272 67.4479 188.073 80.6822 192.784 85.0492C193.653 85.8544 194.765 86.3039 196.113 86.3978C196.484 81.4677 199.68 75.9398 204.487 72.5263C208.184 69.8982 210.461 70.5157 211.489 71.1159C212.862 71.9211 213.556 73.5834 213.346 75.5619C212.964 79.1508 209.518 84.3279 201.066 87.1017C199.811 87.5142 198.642 87.7662 197.566 87.86C197.605 88.564 197.716 89.2457 197.909 89.8928C198.334 91.3328 199.124 92.4592 200.246 93.2471C201.542 90.3325 204.514 87.3586 208.629 84.9874C211.65 83.2485 213.304 84.0291 214.021 84.6515C215.3 85.7605 215.547 87.9292 214.653 90.1769C213.455 93.1853 210.185 96.3124 204.627 96.0654C203.318 96.0061 202.138 95.769 201.1 95.3639C201.031 95.727 200.996 96.0851 200.999 96.4359C201.009 97.6832 201.49 98.7848 202.436 99.7333C202.674 99.4913 202.911 99.2838 203.138 99.1035C206.932 96.0925 213.843 96.2234 217.637 99.3776C219.823 101.196 219.647 102.505 219.116 103.283C217.402 105.79 208.811 105.283 203.536 102.364C203.222 102.191 202.933 102.013 202.666 101.83C201.461 103.843 201.661 106.553 203.281 109.794C209.236 121.706 225.538 131.332 225.701 131.428C226.055 131.636 226.173 132.088 225.968 132.441C225.83 132.678 225.583 132.809 225.328 132.809L225.326 132.812ZM203.595 100.674C203.802 100.81 204.022 100.944 204.252 101.072C209.52 103.989 216.928 103.861 217.891 102.453C218.146 102.082 217.696 101.361 216.688 100.524C213.438 97.8215 207.302 97.7005 204.059 100.272C203.896 100.403 203.741 100.536 203.595 100.677V100.674ZM201.537 93.951C202.446 94.3215 203.501 94.5364 204.692 94.5883C209.481 94.8057 212.265 92.1677 213.275 89.631C213.912 88.028 213.821 86.4422 213.05 85.7753C212.336 85.1578 210.992 85.3382 209.367 86.2743C205.445 88.5319 202.656 91.3106 201.54 93.951H201.537ZM209.439 72.0743C208.303 72.0743 206.882 72.6424 205.344 73.7366C200.915 76.8833 197.953 81.9147 197.585 86.3706C198.504 86.2792 199.509 86.0545 200.599 85.6963C208.379 83.1423 211.533 78.558 211.869 75.4088C212.02 74.0058 211.608 72.9091 210.738 72.4003C210.368 72.1829 209.93 72.0767 209.439 72.0767V72.0743Z" fill="#553597"/>
</svg>
