<svg width="241" height="212" viewBox="0 0 241 212" fill="none" xmlns="http://www.w3.org/2000/svg">
<path d="M134.5 86V78.5C139.7 74.5 142.333 67.5 143 64.5C143.167 63 143.5 59.8 143.5 59C143.5 58.2 144.167 57 144.5 56.5L143.5 53H141.5C139 52 133.9 49.9 133.5 49.5C133 49 129 47.5 128.5 46.5C128.1 45.7 126.667 44.5 126 44L122.5 40.5L118 45L115 47.5L108 50.5L99.5 52.5L98.5 56.5L99.5 61L100.5 66.5L108 79L106.5 83.5L108 88L109.5 91L112 94L117.5 97.5H124L129 95L133 90L134.5 86Z" fill="white"/>
<path d="M129 143.5L143.5 135L160.5 142V141L157 131L176.5 120L179.5 161.5L180 165.5L179 169.5L176.5 174L171.5 178L167 180L162.5 180.5H159.5L153.5 178.5L146.5 174.5L139 169L122.5 154L119.5 150.5L122.5 147L124.5 145.5L129 143.5Z" fill="white"/>
<path d="M61.5 160L65 119.5L85.5 131L85 133L82.5 139L81.5 142L84 140.5L91 137L95 135L92 132.5L91 130.5L92 128.5L91 127.5L89 124.5L87 122.5L86.5 121L87 120L89 118.5L87.5 117L87 115.5L87.5 113.5H90L92 114V112.5L93 111.5H94.5L102.5 116L105 117L103.5 114V112L105 112.5L107.5 114L119.5 126L132 113.5L134.5 112.5L135.5 113L134 117.5L141.5 113L144.5 111.5L146 112.5L146.5 113.5H147.5L150 113L151 114V115.5L150 117.5V119L152 121L150 124L146.5 127.5V128.5L147.5 130.5L146.5 132.5L142.5 135L138 138L127.5 144L125 145L124 145.5L112.5 157.5L105.5 164L91.5 175L87.5 177.5L82.5 179.5L78.5 180L71.5 178.5L66 175L63 171.5L62 168.5L61.5 165V160Z" fill="white"/>
<path d="M157.85 131.448H146.331L146.41 130.653C146.538 129.369 145.458 128.019 145.446 128.007L144.988 127.443L145.554 126.988C147.384 125.522 150.461 122.719 150.922 121.44C151.382 120.167 149.114 119.092 149.09 119.08L148.119 118.639L148.888 117.902C149.425 117.384 150.849 115.658 150.338 114.586C149.914 113.699 147.663 114.2 146.704 114.564L145.687 114.95L145.726 113.863C145.726 113.848 145.738 112.236 144.935 112.079H144.925C143.986 112.135 139.151 114.962 133.377 118.832L130.803 120.548L132.331 117.866C133.806 115.323 134.543 113.335 134.403 112.882C134.403 112.875 134.399 112.87 134.399 112.863C133.953 113.082 132.979 113.925 132.034 114.742L131.591 115.126C130.559 116.017 127.583 118.885 122.98 123.416C122.202 124.182 121.435 124.939 120.705 125.662L119.555 126.797L119.047 126.301C118.117 125.392 117.112 124.414 116.087 123.421C111.405 118.875 108.24 115.873 107.178 114.969L106.729 114.588C105.732 113.737 104.703 112.86 104.254 112.665C104.25 112.679 104.242 112.699 104.237 112.718C104.09 113.185 104.859 115.263 106.358 117.803L107.937 120.476L105.317 118.762C104.481 118.213 100.145 115.379 96.8074 113.523C94.1878 112.065 93.5154 111.952 93.3852 111.947C92.508 112.118 92.5224 113.781 92.5249 113.798L92.5514 114.865L91.5512 114.496C91.5512 114.496 90.8885 114.256 90.0908 114.116C89.3581 113.99 88.0808 113.877 87.7506 114.557C87.2108 115.658 88.6737 117.408 89.228 117.933L90.0112 118.675L89.0279 119.116C89.0038 119.126 86.63 120.247 87.0999 121.551C87.218 121.874 87.647 122.645 89.2111 124.177C90.7776 125.72 92.5972 127.156 92.6164 127.171L93.1997 127.631L92.7225 128.202C92.7225 128.202 91.6862 129.47 91.6958 130.723L91.7006 131.451H84.5188L84.3501 131.352L62.2842 118.425L62.436 117.887C62.4987 117.668 64.0121 112.426 68.4514 105.984C72.5435 100.046 80.0001 91.963 92.2839 87.1671C94.5637 86.2754 96.9593 85.5162 99.4006 84.9137C101.813 84.3161 104.339 83.8485 106.908 83.528L107.592 83.4412L107.71 84.1209C107.715 84.1522 108.306 87.4226 110.287 90.6327C112.887 94.8454 116.555 96.9806 121.192 96.9806C125.829 96.9806 129.422 94.761 131.907 90.3869C133.803 87.0466 134.305 83.6413 134.309 83.6075L134.411 82.9038L135.117 82.993C140.404 83.6557 145.417 84.9258 150.015 86.7646C150.039 86.7719 150.066 86.7839 150.093 86.796C162.273 91.6858 169.734 99.863 173.853 105.864C178.321 112.373 179.883 117.661 179.948 117.883L180.104 118.422L176.776 120.374L157.867 131.451L157.85 131.448ZM147.842 130.002H157.46L178.374 117.75C177.863 116.256 176.169 111.795 172.616 106.63C168.613 100.808 161.357 92.8716 149.526 88.1263L149.466 88.1022C145.179 86.3863 140.518 85.1789 135.604 84.5113C135.353 85.738 134.685 88.3841 133.174 91.0592C130.453 95.8768 126.306 98.4242 121.18 98.4242C116.054 98.4242 111.86 95.9781 109.019 91.3485C107.438 88.7746 106.7 86.2272 106.419 85.0439C104.134 85.3524 101.89 85.7789 99.738 86.314C97.3569 86.902 95.0216 87.6395 92.7996 88.5095C80.858 93.1704 73.6088 101.029 69.6323 106.801C66.1233 111.891 64.4821 116.275 63.9856 117.748L84.902 130.002H90.3052C90.4595 129.14 90.862 128.373 91.1777 127.874C90.5029 127.32 89.3003 126.303 88.1893 125.209C86.8228 123.871 86.0179 122.835 85.7311 122.042C85.1334 120.387 86.3625 119.042 87.5699 118.263C86.7818 117.295 85.6612 115.514 86.442 113.918C86.8324 113.118 87.8254 112.255 90.3269 112.687C90.6234 112.737 90.9029 112.8 91.1439 112.863C91.3295 111.85 91.8766 110.727 93.1539 110.513C93.6407 110.431 94.5035 110.585 97.5015 112.255C99.5669 113.405 102.001 114.916 103.775 116.046C103.1 114.612 102.584 113.118 102.852 112.277C103.032 111.703 103.348 111.349 103.789 111.224C104.7 110.963 105.63 111.752 107.662 113.484L108.11 113.865C109.503 115.051 113.762 119.15 117.09 122.38C117.931 123.194 118.76 124.002 119.546 124.768L119.686 124.631C120.416 123.908 121.185 123.151 121.963 122.384C125.188 119.21 129.309 115.183 130.641 114.031L131.082 113.648C133.061 111.932 133.967 111.151 134.861 111.409C135.298 111.535 135.606 111.886 135.782 112.455C136.028 113.251 135.572 114.646 134.895 116.097C135.902 115.444 137.11 114.67 138.334 113.918C143.971 110.45 144.738 110.578 145.15 110.648C145.174 110.653 145.207 110.657 145.246 110.667C146.41 110.913 146.919 111.964 147.094 112.925C148.434 112.569 150.813 112.226 151.645 113.961C152.399 115.542 151.317 117.278 150.538 118.234C151.702 118.998 152.871 120.309 152.283 121.934C151.652 123.681 148.331 126.571 146.981 127.691C147.311 128.226 147.733 129.067 147.842 130.007V130.002Z" fill="#553597"/>
<path d="M95.657 135.37C91.0876 136.994 86.3616 138.925 81.9609 141.051C82.0477 140.764 82.1369 140.479 82.2285 140.197C82.2887 140.007 82.3514 139.819 82.414 139.629C82.4188 139.619 82.4213 139.609 82.4237 139.597C82.5032 139.368 82.5827 139.137 82.6622 138.91C82.7442 138.677 82.8261 138.445 82.9129 138.214C82.9852 138.014 83.0599 137.814 83.1346 137.616C83.2021 137.436 83.272 137.255 83.3419 137.076C83.4118 136.898 83.4816 136.72 83.5515 136.544C83.6214 136.365 83.6937 136.19 83.7636 136.016C83.9203 135.633 84.0769 135.254 84.236 134.883C84.3661 134.577 84.4987 134.276 84.6288 133.98C84.9903 133.158 85.3518 132.367 85.7037 131.613C85.8434 131.312 85.9832 131.015 86.1182 130.726C87.1979 128.437 88.1257 126.54 88.5619 125.185C88.6053 125.051 88.6487 124.887 88.6969 124.694C90.3116 126.282 92.1601 127.738 92.1601 127.738C92.1601 127.738 90.9551 129.181 90.9647 130.726C90.9671 131.085 91.0346 131.449 91.1985 131.803C91.5045 132.461 93.2928 133.808 95.657 135.37Z" fill="#6F46BE"/>
<path d="M99.5853 85.3599L99.5636 85.6129L97.1536 112.887C95.3268 111.87 93.7917 111.14 93.2783 111.226C91.7239 111.489 91.7962 113.815 91.7962 113.815C91.7962 113.815 91.0877 113.552 90.208 113.4C91.2756 103.305 92.3409 90.2401 92.5361 87.8373C92.5578 87.5843 92.5674 87.4493 92.5674 87.4493L99.5853 85.3599Z" fill="#6F46BE"/>
<path d="M95.5582 136.173L95.2569 135.975C91.5238 133.509 90.7767 132.613 90.5405 132.109C90.3429 131.683 90.2417 131.22 90.2393 130.731C90.2321 129.581 90.7719 128.511 91.1768 127.875C90.502 127.321 89.2994 126.304 88.1884 125.209C86.8219 123.872 86.017 122.836 85.7302 122.043C85.1325 120.387 86.3616 119.042 87.569 118.264C86.7809 117.295 85.6603 115.514 86.4411 113.919C86.8315 113.118 87.8245 112.256 90.326 112.687C90.6225 112.738 90.902 112.8 91.143 112.863C91.3286 111.851 91.8757 110.728 93.153 110.513C93.6398 110.431 94.5026 110.586 97.5006 112.256C99.566 113.405 102 114.916 103.774 116.047C103.099 114.613 102.583 113.118 102.851 112.277C103.032 111.704 103.347 111.35 103.788 111.224C104.699 110.964 105.63 111.752 107.661 113.485L108.109 113.866C109.502 115.051 113.761 119.151 117.089 122.38C118.113 123.373 119.121 124.354 120.053 125.265L120.579 125.778L120.056 126.296C117.453 128.87 115.465 130.854 115.465 130.854L115.284 131.034L115.029 131.061C114.255 131.14 113.375 131.268 112.411 131.439C107.96 132.225 101.94 133.907 95.8956 136.052L95.5558 136.173H95.5582ZM89.0825 114.017C88.5089 114.017 87.9474 114.135 87.7449 114.552C87.2027 115.661 88.6656 117.406 89.2199 117.929L90.0055 118.671L89.0198 119.115C88.9957 119.124 86.6219 120.245 87.0918 121.549C87.2099 121.872 87.6389 122.643 89.203 124.176C90.7695 125.718 92.589 127.154 92.6083 127.169L93.1915 127.629L92.7144 128.2C92.7144 128.2 91.6781 129.468 91.6877 130.721C91.6877 131.005 91.7431 131.261 91.854 131.5C91.907 131.613 92.3456 132.295 95.7558 134.567C101.839 132.425 107.652 130.81 112.163 130.013C113.057 129.854 113.884 129.731 114.626 129.649C115.125 129.15 116.622 127.663 118.518 125.783C117.74 125.024 116.918 124.224 116.084 123.416C111.401 118.871 108.237 115.868 107.174 114.965L106.726 114.584C105.728 113.733 104.699 112.856 104.251 112.661C104.246 112.675 104.239 112.694 104.234 112.714C104.087 113.181 104.856 115.259 106.355 117.799L107.934 120.471L105.314 118.758C104.478 118.208 100.142 115.374 96.8041 113.519C94.1845 112.06 93.5121 111.947 93.3819 111.942C92.5071 112.114 92.5191 113.776 92.5191 113.793L92.5529 114.868L91.5455 114.495C91.5455 114.495 90.8828 114.254 90.085 114.114C89.8031 114.066 89.4416 114.02 89.0825 114.02V114.017Z" fill="#553597"/>
<path d="M122.471 122.898C121.461 123.893 120.468 124.874 119.55 125.78C118.62 124.872 117.612 123.891 116.588 122.898H122.471Z" fill="#6F46BE"/>
<path d="M145.072 111.366L142.775 85.3599L149.733 87.4325L149.793 87.4493V87.4566C149.834 87.9699 151.979 114.834 153.367 123.158C153.519 124.084 153.664 124.78 153.796 125.185C154.233 126.54 155.16 128.436 156.24 130.726C156.308 130.87 156.377 131.017 156.445 131.164C156.515 131.311 156.585 131.461 156.655 131.613C156.867 132.063 157.081 132.528 157.296 133.008C157.368 133.167 157.44 133.326 157.513 133.49C157.585 133.651 157.657 133.815 157.729 133.979C157.874 134.309 158.019 134.644 158.163 134.982C158.38 135.493 158.595 136.011 158.807 136.543C158.877 136.719 158.946 136.898 159.016 137.076C159.173 137.479 159.327 137.888 159.479 138.303C159.571 138.556 159.665 138.814 159.754 139.074C159.845 139.332 159.932 139.592 160.019 139.855C160.086 140.057 160.151 140.262 160.217 140.467C160.26 140.602 160.301 140.734 160.342 140.869C160.371 140.959 160.397 141.048 160.421 141.137C160.465 141.277 160.508 141.416 160.547 141.559C160.609 141.766 160.667 141.976 160.725 142.185C160.73 142.207 160.737 142.231 160.742 142.255C155.117 139.431 148.791 136.905 142.804 134.907C144.988 133.425 146.622 132.16 146.911 131.533C147.762 129.689 146.007 127.549 146.007 127.549C146.007 127.549 150.9 123.631 151.603 121.683C152.309 119.736 149.391 118.42 149.391 118.42C149.391 118.42 151.849 116.066 150.993 114.27C150.136 112.477 146.448 113.885 146.448 113.885C146.448 113.885 146.528 111.648 145.072 111.366Z" fill="#6F46BE"/>
<path d="M170.239 240.338H70.3594C70.3594 240.338 79.3463 190.72 80.1608 183.678C80.2862 182.584 80.3585 181.215 80.3922 179.644C92.0132 177.793 110.317 160.031 119.241 150.702C128.915 160.721 150.42 181.403 162.286 180.504C162.335 181.912 162.412 183.141 162.525 184.131C163.34 191.173 170.239 240.338 170.239 240.338Z" fill="#6F46BE"/>
<path d="M124.293 216.199C124.185 216.199 124.074 216.175 123.97 216.122C111.725 209.999 102.078 199.98 96.1421 192.651C89.7171 184.72 86.1238 178.134 86.0876 178.068C85.8972 177.717 86.0273 177.278 86.3792 177.088C86.7311 176.897 87.1697 177.027 87.3601 177.379C87.3962 177.444 90.9389 183.934 97.2869 191.767C103.131 198.975 112.614 208.827 124.619 214.828C124.975 215.007 125.12 215.44 124.942 215.799C124.814 216.052 124.561 216.199 124.293 216.199Z" fill="#553597"/>
<path d="M92.265 198.579C91.9854 198.579 91.7203 198.418 91.6022 198.145L87.9896 189.836C87.8306 189.469 87.9993 189.043 88.3632 188.884C88.7295 188.725 89.1561 188.893 89.3151 189.257L92.9277 197.567C93.0868 197.933 92.9181 198.36 92.5542 198.519C92.4602 198.56 92.3614 198.579 92.2674 198.579H92.265Z" fill="#553597"/>
<path d="M126.4 191.354C126.024 191.354 125.709 191.065 125.68 190.684C125.651 190.287 125.95 189.94 126.347 189.911C141.111 188.817 152.71 179.338 152.823 179.242C153.132 178.986 153.587 179.03 153.841 179.338C154.096 179.647 154.053 180.102 153.747 180.355C153.628 180.454 141.689 190.224 126.453 191.352C126.434 191.352 126.417 191.352 126.398 191.352L126.4 191.354Z" fill="#553597"/>
<path d="M119.358 165.948H109.605C109.205 165.948 108.882 165.625 108.882 165.225C108.882 164.825 109.205 164.502 109.605 164.502H119.358C119.758 164.502 120.081 164.825 120.081 165.225C120.081 165.625 119.758 165.948 119.358 165.948Z" fill="#553597"/>
<path d="M161.393 143.4C161.079 143.4 160.79 143.193 160.699 142.877C158.884 136.56 157.269 133.719 155.845 131.215C155.319 130.292 154.823 129.42 154.37 128.453C153.02 125.58 154.093 119.38 154.669 116.049C154.811 115.222 154.946 114.439 154.946 114.232C154.946 113.832 155.269 113.509 155.669 113.509C156.069 113.509 156.392 113.832 156.392 114.232C156.392 114.55 156.296 115.126 156.093 116.297C155.582 119.245 154.522 125.38 155.679 127.841C156.108 128.754 156.592 129.605 157.1 130.502C158.491 132.95 160.224 135.997 162.087 142.479C162.198 142.863 161.976 143.263 161.593 143.374C161.525 143.393 161.458 143.402 161.393 143.402V143.4Z" fill="#553597"/>
<path d="M161.532 181.254C149.554 181.254 129.667 162.54 118.723 151.204L118.241 150.705L118.721 150.204C121.914 146.866 123.926 144.583 123.948 144.562L124.141 144.342L124.433 144.318C124.433 144.318 125.775 144.147 129.375 142.202C131.689 140.952 138.09 137.233 142.399 134.31L142.695 134.11L143.035 134.223C148.923 136.187 154.611 138.477 159.592 140.884C159.573 140.819 159.551 140.754 159.532 140.691C159.467 140.486 159.404 140.286 159.337 140.086C159.25 139.826 159.165 139.573 159.076 139.32C158.994 139.079 158.91 138.85 158.828 138.624L158.804 138.554C158.655 138.146 158.503 137.741 158.346 137.344C158.276 137.168 158.209 136.992 158.139 136.816C157.941 136.32 157.731 135.813 157.503 135.269C157.36 134.936 157.216 134.601 157.071 134.274C157.001 134.112 156.929 133.951 156.857 133.789C156.787 133.632 156.719 133.483 156.652 133.336L156.642 133.312C156.428 132.832 156.216 132.372 156.006 131.926C155.934 131.772 155.866 131.625 155.796 131.48C155.748 131.377 155.705 131.283 155.661 131.189L155.109 130.008H157.464L177.04 118.541L179.978 160.504C181.007 165.411 180.149 170.089 177.544 173.704C174.503 177.926 169.338 180.521 162.609 181.208L162.354 181.23C162.086 181.249 161.814 181.259 161.537 181.259L161.532 181.254ZM120.244 150.7C129.407 160.138 150.745 180.649 162.231 179.784L162.46 179.765C168.762 179.121 173.572 176.733 176.363 172.855C178.773 169.51 179.53 165.134 178.498 160.533L178.301 159.651H178.462L175.753 120.963L157.85 131.451H157.375C157.565 131.859 157.76 132.28 157.953 132.714L157.963 132.734C158.033 132.888 158.103 133.042 158.173 133.199C158.245 133.358 158.317 133.524 158.389 133.688C158.536 134.02 158.681 134.358 158.826 134.698C159.062 135.254 159.274 135.77 159.476 136.276C159.546 136.455 159.616 136.633 159.688 136.814C159.847 137.221 160.004 137.635 160.156 138.055L160.182 138.127C160.267 138.361 160.354 138.599 160.435 138.84C160.527 139.096 160.614 139.361 160.703 139.629C160.77 139.833 160.838 140.041 160.903 140.248C160.946 140.385 160.99 140.52 161.031 140.66C161.057 140.744 161.086 140.838 161.113 140.935C161.158 141.079 161.202 141.224 161.24 141.369C161.298 141.554 161.356 141.764 161.412 141.971L161.428 142.034L161.713 142.966L160.568 142.976L160.411 142.899C155.244 140.306 149.2 137.821 142.908 135.705C138.521 138.657 132.414 142.198 130.055 143.472C127.035 145.104 125.476 145.572 124.854 145.704C124.336 146.285 122.664 148.145 120.237 150.695L120.244 150.7Z" fill="#553597"/>
<path d="M111.253 123.729C111.084 123.729 110.913 123.669 110.775 123.551L105.261 118.721C104.96 118.459 104.931 118.001 105.194 117.702C105.457 117.401 105.915 117.372 106.213 117.634L111.727 122.464C112.029 122.727 112.058 123.185 111.795 123.483C111.653 123.647 111.453 123.729 111.25 123.729H111.253Z" fill="#553597"/>
<path d="M106.428 126.359C106.272 126.359 106.112 126.308 105.98 126.205L91.4332 114.733C91.1199 114.485 91.0668 114.032 91.3127 113.718C91.5609 113.405 92.014 113.35 92.3273 113.598L106.874 125.069C107.187 125.318 107.24 125.771 106.995 126.084C106.852 126.265 106.64 126.359 106.426 126.359H106.428Z" fill="#553597"/>
<path d="M103.09 130.815C102.931 130.815 102.769 130.762 102.634 130.653L88.2684 119.018C87.9576 118.767 87.9093 118.312 88.1624 118.001C88.413 117.69 88.8685 117.642 89.1794 117.895L103.545 129.53C103.856 129.781 103.905 130.236 103.651 130.547C103.509 130.723 103.3 130.815 103.09 130.815Z" fill="#553597"/>
<path d="M97.6703 132.907C97.5112 132.907 97.3498 132.854 97.2172 132.745L91.0042 127.728C90.6933 127.477 90.6451 127.022 90.8958 126.711C91.1464 126.4 91.6019 126.352 91.9128 126.602L98.1258 131.62C98.4367 131.871 98.4849 132.326 98.2342 132.637C98.092 132.813 97.8824 132.907 97.6703 132.907Z" fill="#553597"/>
<path d="M78.5077 180.522C78.1752 180.522 77.8498 180.507 77.5365 180.476C71.1259 179.856 66.1854 177.403 63.2452 173.378C60.6448 169.819 59.7917 165.155 60.8376 160.244L63.8188 117.65L84.9015 130.001H87.2609L86.7692 131.035C86.6439 131.3 86.5186 131.57 86.3908 131.844L86.3571 131.914C85.9595 132.77 85.61 133.539 85.2871 134.266C85.1545 134.563 85.0268 134.859 84.8991 135.163C84.74 135.532 84.5858 135.908 84.4315 136.286C84.3592 136.46 84.2917 136.631 84.2243 136.804C84.1495 136.985 84.0821 137.156 84.017 137.33C83.9447 137.513 83.8772 137.689 83.8097 137.867C83.735 138.065 83.6627 138.26 83.5904 138.457C83.5061 138.686 83.4217 138.918 83.3422 139.147C83.2771 139.327 83.2169 139.501 83.1566 139.677C86.962 137.91 91.1651 136.197 95.4115 134.686C101.617 132.483 107.565 130.823 112.159 130.01L112.214 130.001C112.322 129.982 112.428 129.962 112.535 129.945C112.694 129.916 112.865 129.89 113.031 129.863C113.18 129.839 113.337 129.815 113.491 129.794C113.523 129.789 113.554 129.784 113.585 129.779L113.633 129.772C113.752 129.755 113.867 129.738 113.981 129.724C114.197 129.695 114.412 129.668 114.622 129.644C115.166 129.102 116.894 127.384 119.037 125.263L119.683 124.626C120.415 123.903 121.182 123.147 121.96 122.38C125.185 119.206 129.306 115.179 130.638 114.027L131.079 113.644C133.058 111.931 133.962 111.145 134.858 111.405C135.295 111.531 135.603 111.882 135.779 112.451C136.025 113.246 135.569 114.642 134.892 116.093C135.899 115.44 137.107 114.666 138.331 113.914C143.968 110.446 144.735 110.574 145.147 110.644C145.171 110.648 145.204 110.653 145.243 110.663C146.407 110.909 146.916 111.96 147.092 112.921C148.431 112.564 150.81 112.222 151.642 113.957C152.396 115.538 151.314 117.274 150.535 118.23C151.697 118.994 152.868 120.305 152.28 121.927C151.649 123.675 148.328 126.564 146.978 127.685C147.4 128.367 147.971 129.55 147.846 130.796C147.81 131.158 147.716 131.507 147.564 131.835C147.342 132.317 146.646 133.17 143.207 135.503C138.804 138.491 132.47 142.169 130.058 143.473C127.038 145.104 125.479 145.572 124.857 145.707C124.307 146.324 122.447 148.394 119.76 151.202C110.108 161.292 92.17 178.5 80.5008 180.358C79.8067 180.466 79.1392 180.522 78.5029 180.522H78.5077ZM65.0985 120.076L62.2716 160.449L62.2619 160.499C61.2859 165.023 62.0498 169.293 64.4116 172.528C67.1012 176.208 71.6874 178.459 77.6739 179.037C78.4644 179.114 79.3416 179.078 80.2767 178.929C91.9459 177.07 111.045 158.219 118.716 150.201C121.909 146.864 123.922 144.581 123.943 144.56L124.136 144.34L124.428 144.316C124.428 144.316 125.77 144.145 129.371 142.2C131.684 140.949 138.085 137.231 142.394 134.307C145.771 132.016 146.2 131.341 146.25 131.23C146.335 131.049 146.388 130.854 146.407 130.654C146.535 129.377 145.455 128.02 145.445 128.008L144.983 127.441L145.554 126.983C147.383 125.518 150.461 122.715 150.921 121.436C151.386 120.154 149.114 119.088 149.092 119.076L148.116 118.635L148.889 117.895C149.427 117.377 150.851 115.652 150.34 114.579C149.916 113.692 147.665 114.194 146.706 114.558L145.689 114.943L145.727 113.856C145.727 113.842 145.74 112.229 144.937 112.073H144.927C143.987 112.128 139.153 114.955 133.379 118.826L130.805 120.542L132.333 117.859C133.808 115.317 134.545 113.328 134.405 112.875C134.405 112.868 134.4 112.863 134.4 112.856C133.955 113.075 132.981 113.919 132.036 114.736L131.593 115.119C130.561 116.011 127.585 118.879 122.982 123.409C122.203 124.176 121.437 124.933 120.707 125.656L120.063 126.292C117.463 128.866 115.472 130.849 115.472 130.849L115.292 131.03L115.036 131.056C114.761 131.085 114.475 131.119 114.183 131.16C114.072 131.174 113.961 131.191 113.85 131.206L113.766 131.218L113.723 131.225C113.573 131.247 113.421 131.268 113.267 131.295C113.101 131.319 112.944 131.346 112.785 131.372C112.674 131.389 112.575 131.408 112.477 131.425L112.421 131.435C107.97 132.22 101.95 133.903 95.9055 136.047C91.1361 137.744 86.4246 139.696 82.2818 141.697L80.7972 142.412L81.2744 140.834C81.3636 140.542 81.4528 140.253 81.5467 139.966C81.6046 139.783 81.6672 139.595 81.7275 139.412L81.7444 139.356L81.795 139.205C81.8576 139.021 81.9203 138.838 81.9854 138.658C82.0673 138.426 82.1517 138.19 82.2384 137.956C82.3107 137.756 82.3854 137.554 82.4625 137.354C82.53 137.173 82.6023 136.987 82.6722 136.807C82.7397 136.628 82.812 136.445 82.8867 136.262C82.9542 136.091 83.0265 135.91 83.1012 135.732C83.2578 135.349 83.4169 134.968 83.576 134.592C83.7061 134.283 83.8387 133.977 83.9736 133.678C84.2797 132.984 84.6123 132.249 84.9882 131.442H84.5159L84.3472 131.343L65.1057 120.069L65.0985 120.076Z" fill="#553597"/>
<path d="M127.57 123.754C127.37 123.754 127.172 123.672 127.03 123.513C126.765 123.214 126.792 122.758 127.091 122.491L132.453 117.714C132.752 117.449 133.207 117.476 133.475 117.775C133.74 118.073 133.713 118.529 133.414 118.796L128.052 123.573C127.915 123.696 127.744 123.756 127.573 123.756L127.57 123.754Z" fill="#553597"/>
<path d="M132.22 126.301C132.007 126.301 131.798 126.209 131.656 126.031C131.405 125.72 131.456 125.265 131.766 125.014L145.908 113.665C146.219 113.415 146.675 113.465 146.925 113.776C147.176 114.087 147.125 114.543 146.814 114.793L132.673 126.142C132.54 126.248 132.379 126.301 132.22 126.301Z" fill="#553597"/>
<path d="M135.42 130.654C135.21 130.654 135.005 130.564 134.861 130.391C134.608 130.082 134.651 129.627 134.96 129.374L148.93 117.864C149.239 117.611 149.694 117.654 149.947 117.963C150.2 118.271 150.157 118.727 149.849 118.98L135.878 130.49C135.743 130.601 135.581 130.654 135.418 130.654H135.42Z" fill="#553597"/>
<path d="M140.649 132.673C140.44 132.673 140.233 132.584 140.09 132.408C139.837 132.099 139.881 131.644 140.189 131.391L146.229 126.429C146.537 126.176 146.993 126.219 147.246 126.528C147.499 126.836 147.455 127.291 147.147 127.545L141.107 132.507C140.972 132.618 140.811 132.671 140.649 132.671V132.673Z" fill="#553597"/>
<path d="M174.006 159.871C173.722 159.871 173.455 159.704 173.339 159.425C168.866 148.691 160.402 142.841 160.318 142.784C159.987 142.56 159.903 142.109 160.127 141.779C160.351 141.449 160.8 141.362 161.132 141.588C161.494 141.834 170.03 147.724 174.674 158.87C174.828 159.239 174.652 159.663 174.284 159.815C174.192 159.854 174.098 159.871 174.006 159.871Z" fill="#553597"/>
<path d="M68.9711 160.793C68.9084 160.793 68.8457 160.786 68.7807 160.767C68.3951 160.663 68.1685 160.265 68.2722 159.88C71.5642 147.753 79.8908 141.59 81.3585 140.58C81.7923 139.366 83.807 133.779 85.0554 131.287C85.9495 129.502 84.4192 123.877 83.2455 120.753C83.1057 120.38 83.2937 119.963 83.6673 119.823C84.0408 119.683 84.4577 119.871 84.5975 120.245C84.9301 121.132 87.8149 129 86.3472 131.936C85.012 134.601 82.6623 141.224 82.6406 141.291L82.5587 141.525L82.3514 141.658C82.2598 141.718 73.056 147.777 69.6676 160.258C69.5808 160.581 69.2892 160.791 68.9711 160.791V160.793Z" fill="#553597"/>
<path d="M97.2892 53C97.2892 53 90.8771 61.4917 93.1061 69.1995C95.335 76.9098 86.675 78.7026 86.1658 83.49C85.6565 88.2774 86.4832 91 86.4832 91C86.4832 91 90.0955 87.9436 96.1831 86.4797C102.271 85.0182 106.601 85.4164 106.918 84.4198C107.235 83.4232 108.356 79.2442 107.887 78.8213C107.418 78.3985 102.332 73.6531 100.932 66.8751C99.5324 60.097 99.0018 53.1731 99.0018 53.1731L97.2869 53H97.2892Z" fill="#553597"/>
<path d="M145.85 53.4438C145.85 53.4438 143.737 62.4596 151.078 67.5544C158.419 72.6491 149.697 81.5444 159.368 84.7401C169.039 87.9357 165.024 96.8913 165.024 96.8913C165.024 96.8913 157.835 90.5891 149.793 87.4489C141.751 84.3087 134.651 83.0145 134.651 83.0145C134.651 83.0145 134.063 78.0065 134.263 77.8547C134.463 77.7029 138.642 74.8952 141.059 69.627C143.477 64.3587 143.703 58.6566 143.79 56.7985C143.877 54.9404 143.896 53.4414 143.896 53.4414H145.848L145.85 53.4438Z" fill="#553597"/>
<path d="M147.116 51.1474C145.952 54.5937 144.152 55.1697 138.009 53.8345C131.866 52.5018 122.214 41.7918 122.214 41.7918C122.214 41.7918 118.519 48.0071 110.031 50.7401C104.821 52.4174 101.169 53.2417 99.1257 53.6297C98.0219 53.8369 96.9712 52.938 96.7495 51.5956C96.2434 48.5494 96.1156 42.5051 97.1471 36.6078C97.1616 36.5331 97.1712 36.4584 97.1857 36.3885C97.9352 34.7521 108.578 33.4556 121.594 33.4556C134.611 33.4556 145.015 34.7256 145.976 36.3331C146 36.4126 146.027 36.4898 146.048 36.5669V36.5717C147.986 43.0209 147.793 49.135 147.116 51.145V51.1474Z" fill="#553597"/>
<path d="M119.747 82.8364C114.123 82.8364 109.505 80.9036 106.018 77.0886C96.7802 66.9762 98.5756 47.301 98.6576 46.4695C98.6961 46.0719 99.048 45.7803 99.4481 45.8212C99.8457 45.8598 100.137 46.2141 100.099 46.6117C100.079 46.8093 98.284 66.4846 107.09 76.1173C110.291 79.6191 114.549 81.3928 119.75 81.3928C119.803 81.3928 119.856 81.3928 119.909 81.3928C127.264 81.3422 132.983 78.99 136.907 74.4038C145.245 64.6578 142.852 47.8818 142.826 47.7131C142.765 47.3178 143.038 46.9491 143.433 46.8913C143.826 46.8334 144.197 47.1033 144.255 47.4986C144.361 48.2119 146.776 65.0843 138.008 75.3389C133.8 80.2601 127.713 82.7834 119.919 82.8364C119.861 82.8364 119.805 82.8364 119.747 82.8364Z" fill="#553597"/>
<path d="M134.649 85.5307C134.292 85.5307 133.981 85.2656 133.933 84.9017L133.157 79.0261C133.104 78.6309 133.383 78.267 133.779 78.214C134.176 78.161 134.538 78.4405 134.591 78.8358L135.367 84.7113C135.42 85.1066 135.14 85.4705 134.745 85.5235C134.714 85.5283 134.68 85.5307 134.649 85.5307Z" fill="#553597"/>
<path d="M107.594 85.5306C107.565 85.5306 107.539 85.5306 107.51 85.5258C107.112 85.48 106.83 85.1209 106.876 84.7232L107.56 78.8477C107.606 78.45 107.965 78.1656 108.363 78.2138C108.761 78.2596 109.043 78.6187 108.997 79.0163L108.312 84.8919C108.269 85.2607 107.958 85.5306 107.594 85.5306Z" fill="#553597"/>
<path d="M120.444 68.7939C120.444 68.7939 120.427 68.7939 120.42 68.7939C117.437 68.6951 115.231 67.6082 114.183 66.9696C113.764 66.7141 113.506 66.3068 113.472 65.8489C113.441 65.4031 113.629 64.9765 113.99 64.6801C116.157 62.8943 118.687 58.9395 116.251 55.9245C113.773 52.859 109.259 54.7388 109.214 54.7581C108.847 54.9148 108.421 54.7436 108.264 54.3773C108.108 54.011 108.279 53.5844 108.645 53.4278C108.871 53.3314 114.217 51.1094 117.374 55.0136C120.117 58.4068 118.184 63.063 114.964 65.7501C115.904 66.3165 117.844 67.2588 120.468 67.3455C120.868 67.3576 121.179 67.6926 121.167 68.0926C121.155 68.4831 120.832 68.7915 120.444 68.7915V68.7939Z" fill="#553597"/>
<path d="M133.485 56.2516C133.307 56.2516 133.129 56.1866 132.989 56.054C132.839 55.9142 129.299 52.6342 125.506 54.596C125.152 54.7791 124.715 54.6418 124.532 54.2851C124.349 53.9308 124.486 53.4946 124.843 53.3114C129.557 50.8725 133.806 54.837 133.987 55.0057C134.276 55.2804 134.288 55.7383 134.013 56.0275C133.871 56.1769 133.681 56.2516 133.49 56.2516H133.485Z" fill="#553597"/>
<path d="M132.383 69.9883C130.212 69.9883 128.445 68.4507 128.445 66.5588C128.445 64.667 130.212 63.1294 132.383 63.1294C134.555 63.1294 136.321 64.667 136.321 66.5588C136.321 68.4507 134.555 69.9883 132.383 69.9883ZM132.383 64.5754C131.01 64.5754 129.891 65.4647 129.891 66.5588C129.891 67.653 131.01 68.5423 132.383 68.5423C133.757 68.5423 134.875 67.653 134.875 66.5588C134.875 65.4647 133.757 64.5754 132.383 64.5754Z" fill="#553597"/>
<path d="M106.339 69.9883C104.168 69.9883 102.401 68.4507 102.401 66.5588C102.401 64.667 104.168 63.1294 106.339 63.1294C108.511 63.1294 110.277 64.667 110.277 66.5588C110.277 68.4507 108.511 69.9883 106.339 69.9883ZM106.339 64.5754C104.966 64.5754 103.847 65.4647 103.847 66.5588C103.847 67.653 104.966 68.5423 106.339 68.5423C107.713 68.5423 108.831 67.653 108.831 66.5588C108.831 65.4647 107.713 64.5754 106.339 64.5754Z" fill="#553597"/>
<path d="M119.98 75.0038C115.393 75.0038 114.637 71.8756 114.605 71.7431C114.519 71.3527 114.762 70.9671 115.152 70.8779C115.541 70.7911 115.929 71.0345 116.018 71.425C116.037 71.5045 116.594 73.5578 119.98 73.5578C123.366 73.5578 124.243 71.4346 124.274 71.3454C124.409 70.9743 124.821 70.7767 125.195 70.9068C125.569 71.0394 125.769 71.4418 125.641 71.8178C125.597 71.9479 124.506 75.0038 119.98 75.0038Z" fill="#553597"/>
<path d="M129.065 60.7604C125.817 60.7604 125.27 58.495 125.248 58.3986C125.161 58.0082 125.405 57.6226 125.795 57.5334C126.183 57.4466 126.571 57.6901 126.66 58.0805C126.692 58.1937 127.051 59.3144 129.068 59.3144C131.085 59.3144 131.685 58.0491 131.704 57.9961C131.832 57.6178 132.242 57.4225 132.62 57.5503C132.999 57.678 133.199 58.0949 133.071 58.4733C133.04 58.5673 132.256 60.7604 129.068 60.7604H129.065Z" fill="#553597"/>
<path d="M110.147 60.7604C106.898 60.7604 106.351 58.495 106.329 58.3986C106.242 58.0082 106.486 57.6226 106.876 57.5334C107.264 57.4466 107.652 57.6901 107.741 58.0805C107.773 58.1937 108.132 59.3144 110.149 59.3144C112.166 59.3144 112.766 58.0491 112.785 57.9961C112.913 57.6178 113.323 57.4225 113.701 57.5503C114.08 57.678 114.28 58.0949 114.152 58.4733C114.121 58.5673 113.337 60.7604 110.149 60.7604H110.147Z" fill="#553597"/>
<path d="M146.051 36.5688V36.5736C146.051 36.911 145.634 37.2339 144.86 37.5376C141.679 38.7884 132.463 39.6921 121.594 39.6921C111.383 39.6921 102.639 38.8944 98.9785 37.7593C97.8314 37.4026 97.1831 37.0146 97.1493 36.6073C97.1445 36.5953 97.1445 36.5832 97.1445 36.5712C97.1445 36.5085 97.1566 36.4459 97.1879 36.3856C97.2554 36.2362 97.4024 36.094 97.6265 35.9518C99.8751 34.5275 109.751 33.4526 121.596 33.4526C132.617 33.4526 141.934 34.3829 144.99 35.6602C145.506 35.8723 145.841 36.0988 145.978 36.3302C146.027 36.4073 146.051 36.4868 146.051 36.5639V36.5688Z" fill="#553597"/>
<path d="M144.99 35.6632C144.986 36.2826 144.935 36.9261 144.86 37.5382C141.677 38.789 132.463 39.6927 121.594 39.6927C111.385 39.6927 102.64 38.895 98.9787 37.7623C98.4895 37.1719 98.0244 36.5622 97.6267 35.9548C96.7808 34.6751 96.2265 33.4195 96.3663 32.4387C96.8145 29.2575 100.201 30.1564 100.201 30.1564C100.201 30.1564 100.793 27.0957 102.746 26.3341C103.353 27.9705 105.898 28.4911 105.898 28.4911C105.898 28.4911 103.753 31.5445 105.517 32.9255C107.281 34.3088 109.426 31.7831 109.426 31.7831C109.426 31.7831 110.903 35.0728 113.812 34.786C116.721 34.4992 114.767 30.019 114.767 30.019C114.767 30.019 117.022 30.7348 118.471 29.8575C118.562 30.3347 118.586 30.6456 118.586 30.6456C118.586 30.6456 121.36 26.3269 124.334 24.958C125.238 26.1293 127.152 26.5221 127.152 26.5221C127.152 26.5221 125.007 29.5732 126.771 30.9565C128.296 32.1543 130.109 30.4239 130.569 29.9347C130.612 30.2239 130.624 30.3998 130.624 30.3998C130.624 30.3998 130.697 30.2937 130.837 30.1154C131.287 30.9228 132.704 33.0484 135.066 32.817C137.975 32.5302 136.02 28.0476 136.02 28.0476C136.02 28.0476 138.551 28.8526 139.97 27.7175C141.792 30.0431 140.298 32.7254 140.238 32.8315C140.339 32.7664 142.744 31.2264 144.287 32.8339C144.824 33.3906 144.998 34.4751 144.99 35.6632Z" fill="#6F46BE"/>
<path d="M134.699 33.5588C132.591 33.5588 131.215 32.0285 130.518 30.9801C129.289 32.0164 127.686 32.5948 126.325 31.5272C124.833 30.3583 125.312 28.3653 126.052 26.9458C125.334 26.6759 124.373 26.1939 123.763 25.401C123.237 24.7262 123.04 23.914 123.201 23.056C123.404 21.9595 124.139 21.0895 125.325 20.5424C126.192 20.1424 127.265 19.9544 128.274 19.9737C127.653 18.9663 127.18 17.6046 127.713 16.1249C128.149 14.9054 129.219 14.1198 130.646 13.9679C132.263 13.7944 134.037 14.474 134.683 15.5103C135.066 16.1273 135.203 16.8214 135.225 17.4504C135.931 16.9804 136.815 16.5683 137.722 16.5948C138.536 16.6165 139.264 16.9901 139.825 17.6769C140.414 18.3951 140.64 19.2049 140.483 20.017C140.307 20.9256 139.691 21.6799 139.09 22.2222C139.76 22.4945 140.508 22.9331 141.016 23.6296C141.57 24.3888 141.749 25.2973 141.549 26.3288C141.39 27.1579 141.011 27.8158 140.426 28.2833C139.445 29.0666 138.102 29.1124 137.117 29.0015C137.394 30.0161 137.596 31.4308 137.013 32.4261C136.75 32.8744 136.21 33.4335 135.143 33.5395C134.993 33.554 134.846 33.5612 134.704 33.5612L134.699 33.5588ZM130.865 28.481L131.337 29.51C131.337 29.51 131.388 29.6161 131.47 29.7655C131.894 30.527 133.092 32.2791 134.996 32.096C135.497 32.0453 135.673 31.8405 135.76 31.6911C136.201 30.9416 135.748 29.2329 135.357 28.3339L134.726 26.8759L136.239 27.3579C136.842 27.5459 138.608 27.8785 139.519 27.153C139.833 26.9024 140.033 26.5409 140.127 26.0541C140.25 25.4251 140.158 24.9117 139.847 24.4852C139.105 23.4633 137.379 23.2392 137.362 23.2368L135.15 22.9621L137.1 21.8848C137.582 21.6173 138.874 20.7087 139.059 19.7375C139.134 19.3519 139.016 18.9759 138.7 18.5903C138.404 18.2264 138.078 18.0505 137.683 18.0384C136.589 18.0023 135.222 19.229 134.791 19.7013L132.436 22.2873L133.572 18.9807C133.576 18.9663 134.114 17.3395 133.451 16.2695C133.135 15.761 131.933 15.2814 130.798 15.4019C130.185 15.467 129.388 15.7296 129.072 16.6093C128.351 18.6192 130.641 20.5569 130.665 20.5762L129.843 21.7595C129.062 21.3112 127.224 21.2534 125.929 21.851C125.178 22.1981 124.736 22.6897 124.621 23.3139C124.536 23.7718 124.626 24.1526 124.905 24.5093C125.51 25.2925 126.838 25.7143 127.298 25.8107L128.373 26.0348L127.744 26.9337C127.727 26.9578 126.035 29.4546 127.219 30.3824C128.277 31.2139 129.759 29.739 130.043 29.4329C130.094 29.3775 130.125 29.3437 130.13 29.3365L130.865 28.4737V28.481Z" fill="#553597"/>
<path d="M113.125 40.2254C112.773 40.2254 112.465 39.9676 112.412 39.6109L111.624 34.3667C111.563 33.9715 111.836 33.6027 112.231 33.5449C112.626 33.4871 112.995 33.757 113.053 34.1522L113.841 39.3964C113.901 39.7916 113.629 40.1604 113.233 40.2182C113.197 40.223 113.161 40.2254 113.125 40.2254Z" fill="#553597"/>
<path d="M128.482 40.4156C128.424 40.4156 128.366 40.4084 128.309 40.3939C127.921 40.2975 127.684 39.9071 127.778 39.5191L130.135 29.9417C130.232 29.5537 130.622 29.3151 131.01 29.4115C131.398 29.5079 131.634 29.8984 131.54 30.2864L129.183 39.8637C129.102 40.1939 128.807 40.4132 128.482 40.4132V40.4156Z" fill="#553597"/>
<path d="M113.444 35.5284C111.323 35.5284 109.944 33.9764 109.262 32.9546C108.185 33.8535 106.517 34.6319 105.069 33.4968C103.577 32.3304 104.057 30.3349 104.797 28.9154C103.871 28.5684 102.538 27.8646 102.066 26.5873C101.885 26.1005 101.842 25.5751 101.943 25.0257C102.146 23.9291 102.881 23.0591 104.069 22.512C104.936 22.112 106.011 21.924 107.019 21.9433C106.397 20.9359 105.927 19.5742 106.457 18.0969C106.893 16.8774 107.963 16.0894 109.39 15.9375C111.01 15.7664 112.781 16.4436 113.424 17.4824C113.808 18.0993 113.945 18.791 113.967 19.4224C114.673 18.9525 115.557 18.5428 116.463 18.5669C117.278 18.5885 118.006 18.9621 118.567 19.6489C119.155 20.3671 119.382 21.1769 119.225 21.9891C119.049 22.8976 118.432 23.652 117.832 24.1942C118.505 24.4665 119.249 24.9052 119.758 25.6041C120.312 26.3632 120.49 27.2694 120.29 28.3008C120.102 29.2697 119.601 30.0216 118.844 30.4795C117.909 31.0458 116.741 31.0723 115.858 30.9735C116.136 31.9881 116.338 33.4004 115.755 34.3957C115.492 34.844 114.952 35.4031 113.882 35.5092C113.733 35.5236 113.586 35.5308 113.444 35.5308V35.5284ZM109.617 30.4506L110.084 31.4893C110.096 31.5158 111.393 34.3017 113.74 34.068C114.244 34.0174 114.417 33.8125 114.506 33.6631C114.964 32.8798 114.432 31.0651 114.104 30.3108L113.468 28.8503L114.986 29.3323C115.528 29.501 117.145 29.8167 118.097 29.2407C118.507 28.9925 118.76 28.5949 118.873 28.0237C118.996 27.3971 118.905 26.8838 118.594 26.4572C117.852 25.4354 116.126 25.2088 116.109 25.2088L113.899 24.9341L115.849 23.8592C116.331 23.5917 117.623 22.6831 117.808 21.7119C117.883 21.3263 117.765 20.9503 117.449 20.5647C117.153 20.2008 116.827 20.0249 116.432 20.0129C115.333 19.9719 113.971 21.2034 113.54 21.6758L111.185 24.2617L112.321 20.9552C112.325 20.9407 112.863 19.314 112.2 18.2463C111.884 17.7378 110.684 17.2582 109.547 17.3787C108.932 17.4438 108.137 17.7065 107.821 18.5861C107.101 20.5961 109.388 22.5337 109.412 22.553L108.59 23.7363C107.811 23.288 105.973 23.2326 104.678 23.8279C103.927 24.1749 103.486 24.669 103.37 25.2908C103.317 25.5824 103.334 25.8426 103.425 26.0836C103.808 27.1127 105.486 27.6718 106.045 27.7851L107.127 28.0068L106.493 28.9106C106.476 28.9347 104.782 31.4338 105.965 32.3593C107.161 33.2968 108.862 31.3374 108.879 31.3182L109.621 30.453L109.617 30.4506Z" fill="#553597"/>
<path d="M111.356 28.9925C113.015 28.9925 114.359 27.6481 114.359 25.9897C114.359 24.3312 113.015 22.9868 111.356 22.9868C109.698 22.9868 108.354 24.3312 108.354 25.9897C108.354 27.6481 109.698 28.9925 111.356 28.9925Z" fill="#6F46BE"/>
<path d="M132.61 27.0233C134.269 27.0233 135.613 25.6789 135.613 24.0204C135.613 22.362 134.269 21.0176 132.61 21.0176C130.952 21.0176 129.607 22.362 129.607 24.0204C129.607 25.6789 130.952 27.0233 132.61 27.0233Z" fill="#6F46BE"/>
<path d="M72.1335 85.6298H38.1959C35.0003 85.6298 32.3975 83.0294 32.3975 79.8313V45.8937C32.3975 42.698 34.9979 40.0952 38.1959 40.0952H72.1335C75.3292 40.0952 77.932 42.6956 77.932 45.8937V79.8313C77.932 83.027 75.3316 85.6298 72.1335 85.6298ZM38.1959 41.5436C35.7956 41.5436 33.8435 43.4957 33.8435 45.8961V79.8337C33.8435 82.2341 35.7956 84.1862 38.1959 84.1862H72.1335C74.5339 84.1862 76.486 82.2341 76.486 79.8337V45.8961C76.486 43.4957 74.5339 41.5436 72.1335 41.5436H38.1959Z" fill="#553597"/>
<path d="M40.8348 62.8645C40.8348 62.8645 39.8925 59.5266 42.0254 58.0493C44.1582 56.572 45.9223 57.0636 45.9223 57.0636C45.9223 57.0636 46.5995 52.3255 50.229 51.5881C53.8585 50.8506 54.9044 52.2653 54.9044 52.2653C54.9044 52.2653 58.5965 49.0648 62.2886 51.1567C65.9808 53.2486 65.5494 55.2633 65.5494 55.2633C65.5494 55.2633 69.856 55.2802 69.979 58.1095C70.1019 60.9389 68.5016 61.8619 68.5016 61.8619C68.5016 61.8619 69.979 64.4454 68.3787 66.1686C66.7785 67.8917 64.3179 68.2605 64.3179 68.2605L61.0571 72.1984C61.0571 72.1984 63.2767 76.5051 63.1201 76.8136C62.9634 77.122 61.7946 77.6739 61.2403 77.551C60.686 77.4281 57.7337 72.9359 57.7337 72.9359C57.7337 72.9359 52.9354 74.659 50.7182 73.5504C48.5034 72.4418 48.195 71.5959 48.195 71.5959C48.195 71.5959 44.0715 72.2586 42.6568 71.2754C41.2421 70.2897 41.4879 67.8917 41.4879 67.8917C41.4879 67.8917 38.514 65.5203 40.8324 62.8596L40.8348 62.8645Z" fill="#F8A0C2"/>
<path d="M45.2423 62.2789C44.9001 62.2789 44.5964 62.0354 44.5338 61.6884C44.2133 59.9653 44.5964 56.4683 48.3344 55.5622C48.7224 55.4706 49.1128 55.7068 49.2068 56.0948C49.3008 56.4828 49.0622 56.8732 48.6742 56.9672C45.3411 57.7746 45.9268 61.2787 45.9533 61.4257C46.0232 61.8185 45.7629 62.1945 45.3725 62.2644C45.3291 62.2716 45.2857 62.2764 45.2423 62.2764V62.2789Z" fill="#553597"/>
<path d="M49.9881 71.9024C48.6289 71.9024 47.5661 71.5554 46.8238 70.8637C45.8429 69.9551 45.8164 68.82 45.8164 68.6947C45.8164 68.2946 46.1393 67.9717 46.5394 67.9717C46.9395 67.9717 47.2576 68.2922 47.2624 68.6875C47.2624 68.7284 47.2937 69.3406 47.8263 69.8226C48.3758 70.3166 49.3157 70.5311 50.5472 70.4371C50.9449 70.4082 51.2919 70.7046 51.3233 71.1023C51.3546 71.4999 51.0557 71.847 50.6581 71.8783C50.4291 71.8952 50.2074 71.9048 49.9929 71.9048L49.9881 71.9024Z" fill="#553597"/>
<path d="M55.4571 67.2797C55.1654 67.2797 54.8931 67.1038 54.7847 66.8146C54.3822 65.7446 54.3436 63.4044 57.0766 62.2019C57.4429 62.0404 57.8695 62.2067 58.0285 62.573C58.1876 62.9393 58.0237 63.3659 57.6574 63.5249C55.5462 64.4528 56.0716 66.1229 56.1367 66.3109C56.2692 66.6845 56.0788 67.099 55.7053 67.2363C55.6233 67.2677 55.539 67.2821 55.4546 67.2821L55.4571 67.2797Z" fill="#553597"/>
<path d="M56.0613 64.4723C55.7938 64.4723 55.5359 64.3229 55.4106 64.065C54.7141 62.6287 54.5912 61.2718 55.0467 60.0283C55.7962 57.9846 57.8495 57.0567 57.9363 57.0182C58.3026 56.8567 58.7291 57.0206 58.8906 57.3869C59.0521 57.7508 58.8882 58.1774 58.5243 58.3389C58.5074 58.3461 56.9313 59.0715 56.4011 60.5344C56.0902 61.3923 56.1962 62.366 56.712 63.4312C56.8855 63.7903 56.7361 64.2241 56.377 64.3976C56.2758 64.4482 56.1673 64.4699 56.0613 64.4699V64.4723Z" fill="#553597"/>
<path d="M53.5525 54.3386C53.403 54.3386 53.2512 54.2928 53.1211 54.194C52.803 53.9554 52.7355 53.5096 52.9692 53.189C53.7163 52.172 55.9552 50.7091 59.0738 52.4492C59.4232 52.6444 59.5461 53.083 59.3533 53.4325C59.1581 53.7819 58.7195 53.9048 58.3701 53.712C55.6588 52.1985 54.2803 53.8566 54.1333 54.0494C53.9911 54.2374 53.7742 54.3362 53.5549 54.3362L53.5525 54.3386Z" fill="#553597"/>
<path d="M66.3494 64.6793C66.1686 64.6793 65.9854 64.6118 65.8457 64.4745C65.5589 64.1973 65.5516 63.7394 65.8312 63.4526C67.4459 61.7873 66.0602 59.546 66.0457 59.5243C65.8312 59.1869 65.9324 58.7411 66.2698 58.5266C66.6072 58.3145 67.0531 58.4133 67.2676 58.7507C67.9689 59.8593 68.7883 62.4814 66.8675 64.4576C66.7253 64.6046 66.5373 64.6769 66.3494 64.6769V64.6793Z" fill="#553597"/>
<path d="M50.1062 66.711C49.805 66.711 49.523 66.5206 49.4218 66.217C49.3784 66.0868 48.3686 62.9972 50.0171 61.1102C51.0991 59.8738 52.9886 59.5003 55.6372 60.0064C56.03 60.0811 56.2879 60.4595 56.2132 60.8523C56.1385 61.2451 55.7601 61.503 55.3673 61.4283C53.9189 61.1511 52.0053 61.0379 51.1088 62.0621C50.005 63.3201 50.7858 65.7398 50.7931 65.7639C50.9184 66.1422 50.7135 66.5519 50.3352 66.6773C50.2605 66.7014 50.1833 66.7134 50.1062 66.7134V66.711Z" fill="#553597"/>
<path d="M65.203 26.6838V31.299H60.5348V35.9671H55.9197V31.299H51.2539V26.6838H55.9197V22.0181H60.5348V26.6838H65.203Z" fill="#6F46BE"/>
<path d="M55.4803 93.1394V97.7545H50.8122V102.423H46.197V97.7545H41.5312V93.1394H46.197V88.4736H50.8122V93.1394H55.4803Z" fill="#6F46BE"/>
<path d="M84.1835 50.0559V54.671H79.5153V59.3392H74.9001V54.671H70.2344V50.0559H74.9001V45.3901H79.5153V50.0559H84.1835Z" fill="#6F46BE"/>
<path d="M181.311 73.8257C181.311 73.8257 166.62 55.6302 166.526 42.7488C166.429 29.8673 182.745 28.8431 186.466 40.2906C186.466 40.2906 198.726 30.8699 205.881 40.7436C213.036 50.6174 181.311 73.8233 181.311 73.8233V73.8257Z" fill="#6F46BE"/>
<path d="M193.875 81.0635C193.875 81.0635 194.54 70.4957 198.449 66.1673C202.358 61.8389 208.118 66.4878 205.855 71.4476C205.855 71.4476 212.83 72.0549 212.196 77.5401C211.562 83.0252 193.875 81.0611 193.875 81.0611V81.0635Z" fill="#F8A0C2"/>
<path d="M184.456 106.361L184.164 105.737C183.976 105.337 179.602 95.8437 181.007 89.9946C181.672 87.228 183.774 85.5771 186.357 85.7916C188.485 85.9675 190.736 87.5485 191.329 90.279C192.57 89.891 194.903 89.3897 196.942 90.2212C198.297 90.7731 199.289 91.8118 199.894 93.306C202.167 98.9309 186.847 105.385 185.092 106.103L184.453 106.363L184.456 106.361ZM185.943 87.2183C184.547 87.2183 182.969 88.0257 182.415 90.332C181.32 94.8821 184.253 102.29 185.196 104.491C191.286 101.902 199.817 96.9716 198.554 93.8434C198.096 92.7107 197.39 91.9636 196.397 91.5563C194.079 90.6092 191.062 91.9058 191.03 91.9178L190.093 92.3275L190.021 91.3057C189.835 88.7029 187.931 87.3677 186.239 87.2279C186.14 87.2207 186.042 87.2159 185.943 87.2159V87.2183Z" fill="#553597"/>
<path d="M102.91 216.105C87.7655 216.105 75.2455 213.68 65.6827 208.894C57.2067 204.652 52.7627 199.418 50.437 195.227C46.4509 195.728 40.0065 194.292 32.5403 184.105C28.5542 178.665 27.207 172.696 28.5373 166.362C30.2966 157.976 36.6012 149.107 47.2751 139.999C55.1823 133.254 62.687 128.884 62.7617 128.841C63.1064 128.641 63.5498 128.759 63.7498 129.104C63.9499 129.448 63.8318 129.892 63.4872 130.092C63.1931 130.263 33.9984 147.372 29.952 166.661C28.7109 172.575 29.9761 178.157 33.7068 183.249C40.4235 192.417 46.0966 194.094 49.7236 193.844C49.6248 193.634 49.5284 193.429 49.4393 193.227C46.9015 187.486 47.1016 181.348 49.9237 178.297C51.4251 176.675 53.4254 176.193 55.5558 176.945C58.6479 178.034 60.3927 180.625 60.3397 184.049C60.2794 188.048 57.4501 193.178 52.324 194.812C52.1963 194.853 52.0662 194.892 51.9288 194.93C54.2038 198.849 58.443 203.655 66.3285 207.602C75.9348 212.41 88.6427 214.782 104.086 214.656C104.491 214.652 104.811 214.974 104.814 215.374C104.816 215.775 104.496 216.1 104.096 216.102C103.698 216.105 103.3 216.107 102.908 216.107L102.91 216.105ZM53.6471 178.048C52.6446 178.048 51.7432 178.463 50.9865 179.28C48.9886 181.439 48.0656 186.541 50.7624 192.643C50.9021 192.959 51.054 193.284 51.2227 193.619C51.4588 193.564 51.6806 193.501 51.8878 193.436C56.3704 192.007 58.8431 187.522 58.8961 184.028C58.9202 182.403 58.4575 179.499 55.0763 178.309C54.5822 178.135 54.105 178.048 53.6495 178.048H53.6471Z" fill="#553597"/>
<path d="M177.489 203.99C177.103 203.99 176.783 203.684 176.766 203.293C176.751 202.893 177.062 202.558 177.46 202.544C177.508 202.544 182.29 202.322 187.772 199.546C195.096 195.837 200.136 189.566 202.748 180.905C202.808 180.709 202.864 180.514 202.919 180.321C202.536 180.48 202.148 180.62 201.75 180.743C196.624 182.312 191.922 180.386 190.57 176.166C189.602 173.144 190.749 169.982 193.564 167.915C196.439 165.806 200.114 165.512 202.502 167.201C204.038 168.288 206.156 170.995 205.062 177.451C209.573 174.031 212.157 167.074 209.207 156.949C206.45 147.485 200.307 141.103 190.951 137.98C183.919 135.633 177.607 136.11 177.544 136.112C177.147 136.146 176.797 135.847 176.766 135.449C176.735 135.052 177.029 134.702 177.429 134.671C177.696 134.649 184.056 134.165 191.361 136.592C198.14 138.843 206.98 144.133 210.595 156.544C212.456 162.933 212.338 168.674 210.248 173.147C208.997 175.827 207.028 178.017 204.645 179.449C204.5 180.047 204.329 180.668 204.132 181.321C200.719 192.629 193.675 198.189 188.365 200.864C182.61 203.763 177.718 203.978 177.513 203.987C177.503 203.987 177.494 203.987 177.484 203.987L177.489 203.99ZM198.837 167.548C197.384 167.548 195.803 168.071 194.422 169.083C192.089 170.795 191.163 173.279 191.949 175.728C193.197 179.618 197.612 180.502 201.331 179.365C202.037 179.148 202.722 178.868 203.382 178.523C204.498 173.53 203.912 169.973 201.671 168.387C200.878 167.825 199.89 167.551 198.837 167.551V167.548Z" fill="#553597"/>
</svg>
