<svg width="302" height="293" viewBox="0 0 302 293" fill="none" xmlns="http://www.w3.org/2000/svg">
<path opacity="0.5" d="M299.856 193.145C292.714 175.853 269.216 168.2 249.666 172.519C239.633 174.764 230.377 179.635 222.844 186.632C217.82 177.903 204.43 174.648 193.833 177.79C181.839 181.342 175.114 190.593 172.188 200.665C160.851 188.671 139.284 186.798 125.527 196.975C123.597 189.596 117.434 183.212 109.02 180.583C100.424 177.903 90.6187 179.283 83.3255 183.857C74.184 177.45 59.5318 172.057 48.9641 179.132C42.4629 183.484 41.1994 190.344 43.9728 195.935C28.7965 192.828 11.3299 197.974 4.04824 210.589C-0.492968 218.45 -0.672053 228.265 3.45348 236.283C7.7121 244.561 16.2688 250.237 26.4093 252.276C33.9177 253.784 41.7712 253.301 48.7999 250.906C44.1633 261.334 48.1427 274.488 59.6797 280.465C72.1582 286.93 89.7332 283.601 98.4246 273.788C104.996 283.864 115.314 292.046 129.359 292.942C141.507 293.715 154.485 286.757 155.927 276.175C167.593 283.458 180.418 289.976 195.323 289.194C208.194 288.514 221.387 280.54 221.806 268.832C241.211 272.243 263.374 274.055 278.97 261.483C290.023 252.577 291.488 236.333 279.851 227.924C295.952 223.593 305.638 207.142 299.856 193.145Z" fill="#F8A0C2"/>
<path d="M120.59 167.119L113.175 181.768L159.606 208.972L192.809 189.38L200.709 179.584L195.021 161.572L120.59 167.119Z" fill="#CE497F"/>
<path d="M115.449 170.935C75.2618 156.744 43.8857 156.059 34.7014 170.113C30.479 176.569 32.1219 184.338 32.4177 185.738C40.2564 222.807 148.95 230.989 166.168 232.172L173.977 202.128L115.449 170.935Z" fill="#CE497F"/>
<path d="M146.543 213.257C130.146 217.043 113.059 216.626 96.8671 212.043C96.1218 211.832 95.3387 211.789 94.5747 211.917C93.8108 212.046 93.0851 212.344 92.4504 212.788C91.8157 213.232 91.288 213.812 90.9055 214.486C90.523 215.16 90.2954 215.91 90.2393 216.683C90.0301 219.447 90.1482 222.226 90.5909 224.962C91.5652 230.848 93.9867 236.399 97.6376 241.117C98.1863 241.836 98.8832 242.428 99.6809 242.853C100.479 243.278 101.359 243.527 102.261 243.582C109.569 244.016 130.205 244.403 148.573 236.846L146.543 213.257Z" fill="white"/>
<path d="M166.339 213.257C182.735 217.043 199.822 216.625 216.013 212.043C216.758 211.831 217.542 211.789 218.306 211.917C219.07 212.046 219.795 212.343 220.43 212.788C221.065 213.232 221.593 213.812 221.976 214.486C222.358 215.16 222.586 215.91 222.642 216.683C222.851 219.447 222.733 222.226 222.291 224.962C221.09 232.382 217.759 237.845 215.242 241.117C214.694 241.836 213.998 242.428 213.2 242.853C212.403 243.278 211.523 243.527 210.621 243.582C203.313 244.016 182.675 244.403 164.307 236.846C164.986 228.98 165.663 221.117 166.339 213.257Z" fill="white"/>
<path d="M160.994 67.6469C160.753 67.9542 158.771 70.3973 155.357 70.4203C151.881 70.4449 149.852 67.9427 149.618 67.6469L151.838 53.0868H158.775L160.994 67.6469Z" fill="white"/>
<path d="M156.044 59.3309C157.263 59.2573 158.463 58.9917 159.6 58.544L158.873 53.7793H151.726L151.007 58.4979C152.604 59.1442 154.324 59.4287 156.044 59.3309Z" fill="#FF59CF"/>
<path d="M155.306 53.6146C159.859 53.6146 163.549 49.9242 163.549 45.3718C163.549 40.8194 159.859 37.1289 155.306 37.1289C150.754 37.1289 147.063 40.8194 147.063 45.3718C147.063 49.9242 150.754 53.6146 155.306 53.6146Z" fill="white"/>
<path d="M155.306 45.3643H147.073C147.073 45.3643 147.566 51.9526 149.635 54.6997C150.571 55.9484 151.828 56.7436 152.921 57.2381C153.669 57.5763 154.481 57.7513 155.303 57.7513C156.124 57.7513 156.937 57.5763 157.685 57.2381C158.778 56.7452 160.033 55.9484 160.971 54.6997C163.033 51.9526 163.531 45.3643 163.531 45.3643H155.306Z" fill="white"/>
<path d="M195.561 170.935C195.561 170.935 271.127 142.818 276.309 170.113C281.491 197.408 240.373 228.275 147.461 242.248C144.723 230.685 141.984 219.122 139.246 207.558L195.561 170.935Z" fill="#CE497F"/>
<path d="M127.169 85.0794C126.267 100.519 124.141 115.862 120.812 130.965C117.968 143.869 114.253 156.566 109.694 168.969C118.425 174.224 127.995 177.936 137.986 179.942C169.556 186.215 195.256 173.004 203.774 168.113L184.862 103.175L160.994 67.6473H149.618L127.169 85.0794Z" fill="#F8A0C2"/>
<path d="M151.013 67.6465C147.197 67.5315 141.155 67.8765 134.748 70.8322C128.695 73.6253 124.998 77.5323 123.125 79.5663C95.6972 109.36 81.9832 124.256 84.2604 137.728C87.1028 154.527 107.162 168.156 131.728 173.517L139.778 161.944L119.356 137.243C129.904 114.044 140.456 90.8454 151.013 67.6465Z" fill="white"/>
<path d="M153.466 67.6462C153.466 67.6462 131.892 62.346 116.967 80.6751C102.043 99.0042 93.2673 112.592 93.2673 112.592C93.2673 112.592 113.491 133.369 127.713 133.923L149.618 80.197L153.466 67.6462Z" fill="#F8A0C2"/>
<path d="M98.451 105.006C98.451 105.006 115.006 123.736 130.287 127.605L127.713 133.922C127.713 133.922 114.835 135.028 93.2673 112.593L98.451 105.006Z" fill="#CE497F"/>
<path d="M137.166 162.116C137.166 162.116 142.488 161.102 145.782 162.116C147.042 162.503 147.295 162.585 148.662 162.792C151.324 163.197 154.059 162.242 155.362 163.547C155.608 163.807 155.793 164.119 155.902 164.461C156.012 164.802 156.043 165.163 155.995 165.518C155.725 167.325 153.006 168.158 152.597 168.283C149.051 169.364 146.179 167.396 145.726 168.163C145.384 168.742 146.605 170.554 148.411 171.601C151.669 173.492 155.804 172.289 157.018 173.939C157.108 174.044 157.158 174.178 157.161 174.316C157.127 175.598 151.695 176.304 151.695 176.304C151.695 176.304 158.076 175.72 157.631 177.491C157.186 179.262 151.611 179.091 151.611 179.091C151.611 179.091 156.469 178.838 156.933 180.359C157.396 181.881 153.09 182.193 148.389 182.048C148.389 182.048 154.227 182.64 153.635 184.245C153.044 185.85 143.837 186.187 137.163 182.048C130.489 177.91 128.631 168.954 128.631 168.954L137.166 162.116Z" fill="white"/>
<path d="M148.393 182.052C148.393 182.052 146.198 182.31 142.807 181.163" stroke="#CE497F" stroke-width="0.164298" stroke-linecap="round" stroke-linejoin="round"/>
<path d="M152.809 179.085C152.809 179.085 149.398 180.057 144.54 178.399" stroke="#CE497F" stroke-width="0.164298" stroke-linecap="round" stroke-linejoin="round"/>
<path d="M151.772 176.311C149.545 176.718 147.247 176.456 145.168 175.559" stroke="#CE497F" stroke-width="0.164298" stroke-linecap="round" stroke-linejoin="round"/>
<path d="M161.867 67.6465C165.683 67.5315 171.725 67.8765 178.132 70.8322C184.185 73.6253 187.88 77.5323 189.755 79.5663C217.181 109.36 230.895 124.256 228.62 137.728C225.78 154.529 205.723 168.158 181.165 173.514L173.115 161.941L193.53 137.245C182.975 114.045 172.42 90.8454 161.867 67.6465Z" fill="white"/>
<path d="M175.715 162.116C175.715 162.116 170.392 161.102 167.098 162.116C167.059 162.127 166.523 162.28 165.812 162.485C164.454 162.881 163.521 163.174 163.363 163.221C160.513 164.086 156.463 162.109 155.362 163.55C154.746 164.353 155.282 165.924 155.995 166.788C156.629 167.557 157.498 167.881 158.568 168.103C162.826 169.006 165.724 167.408 166.186 168.206C166.58 168.89 165.089 171.147 162.867 172.149C160.125 173.395 156.953 172.43 155.863 173.934C155.773 174.039 155.722 174.173 155.719 174.311C155.755 175.593 161.185 176.299 161.185 176.299C161.185 176.299 154.805 175.715 155.249 177.486C155.692 179.257 161.269 179.086 161.269 179.086C161.269 179.086 156.412 178.833 155.947 180.354C155.482 181.876 159.79 182.188 164.491 182.043C164.491 182.043 158.651 182.635 159.243 184.24C159.834 185.845 169.043 186.182 175.717 182.043C182.391 177.905 184.249 168.949 184.249 168.949L175.715 162.116Z" fill="white"/>
<path d="M164.489 182.052C164.489 182.052 166.682 182.31 170.075 181.163" stroke="#CE497F" stroke-width="0.164298" stroke-linecap="round" stroke-linejoin="round"/>
<path d="M160.073 179.085C160.073 179.085 163.484 180.057 168.342 178.399" stroke="#CE497F" stroke-width="0.164298" stroke-linecap="round" stroke-linejoin="round"/>
<path d="M161.106 176.311C163.334 176.718 165.631 176.456 167.71 175.559" stroke="#CE497F" stroke-width="0.164298" stroke-linecap="round" stroke-linejoin="round"/>
<path d="M158.523 67.6462C158.523 67.6462 180.089 62.346 195.02 80.6751C209.952 99.0042 218.722 112.592 218.722 112.592C218.722 112.592 198.497 133.369 184.277 133.923L162.371 80.197L158.523 67.6462Z" fill="#F8A0C2"/>
<path d="M147.946 66.9867C147.652 66.9571 147.334 66.9357 146.998 66.9275C146.573 66.9185 146.148 66.9311 145.724 66.9653C146.051 68.8512 146.853 70.6227 148.054 72.1128C148.383 72.512 151.756 76.5061 156.982 76.1709C157.876 76.1134 160.281 75.9261 162.438 74.086C165.644 71.3537 165.593 66.9653 165.593 66.9653L163.539 66.9834L158.837 71.5706C158.837 71.5706 158.076 71.3833 157.299 71.1976C156.397 70.9824 155.733 70.8542 155.656 70.8378C154.838 70.6669 152.868 69.8208 147.946 66.9867Z" fill="#CE497F"/>
<path d="M147.755 66.9658C147.755 66.9658 149.964 73.2223 156.179 73.5115C162.394 73.8006 163.814 66.9839 163.814 66.9839L147.755 66.9658Z" fill="white"/>
<path d="M184.277 133.922L181.591 127.334C181.591 127.334 198.952 122.865 213.537 105.006L218.722 112.588C218.722 112.588 206.793 131.709 184.277 133.922Z" fill="#CE497F"/>
<path d="M119.356 137.244C119.356 137.244 110.069 127.386 99.6406 126.441" stroke="#CE497F" stroke-width="0.164298" stroke-linecap="round" stroke-linejoin="round"/>
<path d="M193.523 137.244C193.523 137.244 203.817 129.285 214.35 127.812" stroke="#CE497F" stroke-width="0.164298" stroke-linecap="round" stroke-linejoin="round"/>
<path d="M130.287 127.608C130.287 127.608 136.877 89.3645 127.001 78.9365" stroke="#CE497F" stroke-width="0.164298" stroke-linecap="round" stroke-linejoin="round"/>
<path d="M181.591 127.332C181.591 127.332 172.821 99.556 181.591 78.9365" stroke="#CE497F" stroke-width="0.164298" stroke-linecap="round" stroke-linejoin="round"/>
<path d="M168.477 18.4199C168.477 18.4199 167.213 21.2639 161.367 23.5559C155.522 25.8479 155.111 31.7544 155.111 31.7544C159.365 27.43 163.5 28.5719 166.265 26.5576C169.03 24.5433 168.477 18.4199 168.477 18.4199Z" fill="#F8A0C2"/>
<path d="M150.458 26.0057C144.573 25.3338 143.952 19.9267 143.952 19.9267C143.952 19.9267 140.702 23.4033 143.189 27.2741C145.677 31.145 153.353 28.5885 155.104 31.7595C155.111 31.7545 156.35 26.6761 150.458 26.0057Z" fill="#F8A0C2"/>
<path d="M153.466 11.7842C153.466 11.7842 143.566 12.8916 150.517 20.7384C157.469 28.5853 156.838 31.3768 152.413 34.1156" stroke="#CE497F" stroke-width="0.164298" stroke-linecap="round" stroke-linejoin="round"/>
<path d="M159.125 10.1197C160.932 8.8891 162.595 7.00788 162.092 4.67977C161.877 3.68084 161.241 2.73941 160.273 2.34509C159.139 1.88341 157.845 2.21365 156.885 2.91356C156.064 3.51818 155.49 4.36596 155.024 5.2696C155.116 3.36703 154.833 1.38887 153.003 0.378439C152.137 -0.101312 151.064 -0.155531 150.21 0.393225C149.388 0.927195 148.93 1.89984 148.835 2.8577C148.789 3.38049 148.833 3.90714 148.964 4.41525C148.71 4.12427 148.421 3.865 148.105 3.64305C147.119 2.96778 145.747 2.68519 144.645 3.2438C143.605 3.76956 143.097 5.06916 143.263 6.13053C143.506 7.68315 145.282 8.99096 147.456 8.74616C145.591 8.08896 143.649 8.96303 143.032 10.4844C142.539 11.7101 142.966 13.1789 143.901 14.0399C144.48 14.5564 145.222 14.8535 145.997 14.8794C147.446 14.932 148.853 14.007 149.668 12.5382C148.969 14.9041 149.855 16.9857 151.184 17.4671C151.621 17.6063 152.086 17.633 152.536 17.5445C152.986 17.456 153.407 17.2554 153.759 16.9611C154.237 16.5613 154.554 16.0014 154.651 15.3855C155.821 16.7689 157.789 17.4835 159.53 16.7639C161.502 15.9424 162.614 13.6209 161.438 11.7068C161.185 11.295 160.848 10.9409 160.45 10.6675C160.051 10.3941 159.6 10.2075 159.125 10.1197Z" fill="#F4679D"/>
<path d="M152.906 10.9021C154.124 10.9021 155.111 9.91498 155.111 8.69726C155.111 7.47953 154.124 6.49237 152.906 6.49237C151.688 6.49237 150.701 7.47953 150.701 8.69726C150.701 9.91498 151.688 10.9021 152.906 10.9021Z" fill="#FDE7F0"/>
<path d="M140.337 214.527L138.707 207.646C138.707 207.646 185.744 177.772 233.1 166.966" stroke="#F4679D" stroke-width="0.164298" stroke-linecap="round" stroke-linejoin="round"/>
<path d="M156.943 197.361C156.943 197.361 142.636 193.171 109.498 178.399C76.3609 163.627 55.8219 163.468 55.8219 163.468" stroke="#F4679D" stroke-width="0.164298" stroke-linecap="round" stroke-linejoin="round"/>
<path d="M147.782 48.3009C147.782 48.3009 149.162 48.9581 148.924 44.0571C148.837 42.2498 149.021 41.0356 149.909 40.3669C150.598 39.8461 151.533 39.9578 151.777 39.9956C152.909 40.1731 152.995 40.9453 154.303 41.3708C154.631 41.4776 155.709 41.8276 156.674 41.3708C157.495 40.9814 157.447 40.385 158.174 39.948C158.995 39.4551 160.375 39.4419 161.161 40.0367C162.884 41.3429 161.402 45.3518 162.879 48.3108C163.29 49.1323 163.732 49.4806 164.177 49.6054C164.805 49.7812 165.398 49.5069 165.679 49.3491C167.18 42.8561 165.8 36.708 161.887 33.8657C160.193 32.6351 158.363 32.2687 157.615 32.1274C157.03 32.0157 150.292 30.8491 146.318 35.6828C143.382 39.2497 143.142 44.642 145.843 48.9548L147.782 48.3009Z" fill="#CE497F"/>
<path d="M149.101 51.8768C150.504 51.0665 150.788 48.9304 149.734 47.1057C148.681 45.281 146.689 44.4587 145.286 45.269C143.882 46.0793 143.598 48.2154 144.652 50.0401C145.705 51.8648 147.697 52.6871 149.101 51.8768Z" fill="white"/>
<path d="M166.655 49.335C167.709 47.502 167.42 45.3591 166.01 44.5488C164.6 43.7385 162.603 44.5676 161.55 46.4007C160.496 48.2337 160.785 50.3766 162.195 51.1869C163.605 51.9972 165.602 51.1681 166.655 49.335Z" fill="white"/>
<path d="M145.458 47.8943C145.458 47.8943 145.174 46.5421 146.009 46.455C146.843 46.3679 147.781 48.3017 147.781 48.3017C147.781 48.3017 146.692 47.9041 146.541 48.5991C146.39 49.2941 147.772 50.6216 148.232 49.5192" stroke="#CE497F" stroke-width="0.164298" stroke-linecap="round" stroke-linejoin="round"/>
<path d="M165.196 47.907C165.196 47.907 165.481 46.5548 164.647 46.4677C163.812 46.3806 162.872 48.3111 162.872 48.3111C162.872 48.3111 163.963 47.9152 164.113 48.6102C164.262 49.3051 162.879 50.631 162.421 49.5286" stroke="#CE497F" stroke-width="0.164298" stroke-linecap="round" stroke-linejoin="round"/>
<path d="M146.237 44.5701C147.19 44.8028 148.039 45.3448 148.651 46.1112C149.225 46.8051 149.545 47.6749 149.556 48.5757C149.513 49.3559 149.269 50.1117 148.846 50.769C148.353 51.5232 147.831 51.5905 147.696 53.084C147.482 55.3973 149.221 56.0677 149.221 56.0677C149.065 56.2796 147.959 57.8191 148.47 59.2419C149.055 60.8685 151.615 61.9578 154.355 60.8849C154.355 60.8849 156.619 63.443 159.971 61.3137C163.322 59.1844 161.794 56.9335 161.794 56.9335C161.794 56.9335 163.526 56.1958 163.477 53.3452C163.428 50.4947 161.277 46.2689 163.477 44.5306C162.851 44.5766 161.998 44.7442 161.474 45.3751C160.176 46.9212 162.151 49.6042 160.805 51.2061C160.258 51.8633 159.23 52.251 158.449 52.0358C157.347 51.7318 157.35 50.4158 156.065 50.0642C155.191 49.8227 154.322 50.2499 154.248 50.2876C153.854 50.4881 153.87 50.6162 153.392 50.9333C153.238 51.0352 151.979 51.8748 151.366 51.4985C150.961 51.2488 151.018 50.562 150.939 49.665C150.897 49.1721 150.589 46.0947 148.915 44.9693C148.565 44.7245 147.75 44.3072 146.237 44.5701Z" fill="#CE497F"/>
<path d="M154.117 53.9736C154.117 53.9736 156.185 54.9775 157.452 53.2803" stroke="#F8A0C2" stroke-width="0.164298" stroke-linecap="round" stroke-linejoin="round"/>
</svg>
