<svg width="246" height="246" viewBox="0 0 246 246" fill="none" xmlns="http://www.w3.org/2000/svg">
<g clip-path="url(#clip0_3733_94376)">
<mask id="mask0_3733_94376" style="mask-type:luminance" maskUnits="userSpaceOnUse" x="-89" y="38" width="437" height="271">
<path d="M347.3 38.8193H-88.7793V308.557H347.3V38.8193Z" fill="white"/>
</mask>
<g mask="url(#mask0_3733_94376)">
<path d="M129.26 245.504C193.455 245.504 245.494 213.351 245.494 173.688C245.494 134.024 193.455 101.871 129.26 101.871C65.0661 101.871 13.0264 134.024 13.0264 173.688C13.0264 213.351 65.0661 245.504 129.26 245.504Z" fill="#EDE3FF"/>
</g>
<mask id="mask1_3733_94376" style="mask-type:luminance" maskUnits="userSpaceOnUse" x="-4" y="139" width="34" height="47">
<path d="M-3.20726 185.715L-3.17969 139.598L29.2728 139.58L29.2452 185.697L-3.20726 185.715Z" fill="white"/>
</mask>
<g mask="url(#mask1_3733_94376)">
<path d="M11.1306 154.888C9.82774 155.114 8.68346 155.988 8.16288 157.237C7.61799 158.432 7.67826 159.813 7.91671 161.081C8.0209 161.754 8.24311 162.473 8.54978 163.088C8.97448 163.749 9.52297 164.321 10.1559 164.789C11.5341 165.905 13.0997 167.001 14.8897 166.917C16.5315 166.866 17.9778 165.79 19.2609 164.787C20.1576 164.089 21.0936 163.406 21.6964 162.415C21.9555 161.971 22.1904 161.472 22.3708 160.998C22.6658 160.342 22.7491 159.649 22.6056 158.961C22.5049 158.515 22.241 158.142 21.9078 157.834C21.2077 157.068 20.0448 156.216 18.9259 156.195C18.1668 156.176 17.7445 156.694 17.0827 156.893C15.8678 157.243 15.3158 156.444 14.4526 155.751C13.5107 155.029 12.2853 154.696 11.1306 154.888Z" fill="#EDE3FF"/>
<path d="M6.56478 165.458C5.72232 166.132 5.00718 166.945 4.47373 167.872C3.94029 168.8 3.90335 169.963 4.43462 170.936C5.18694 172.038 6.72384 172.264 7.98759 172.023C8.3232 171.97 8.6345 171.863 8.96085 171.716C10.257 171.035 10.6619 169.379 11.6154 168.296C12.0471 167.872 12.4393 167.434 12.7923 166.98C13.4646 165.925 13.3106 164.553 12.4286 163.673C10.2678 161.533 8.1166 164.105 6.56478 165.458Z" fill="#FDFFFF"/>
<path d="M16.5772 166.616C16.6629 167.102 16.6941 167.612 16.6467 168.092C16.6144 168.532 16.6213 168.987 16.589 169.428C16.5914 170.605 16.4213 171.763 16.0545 172.845C15.6727 173.966 14.8094 174.813 13.688 175.153C13.2436 175.255 12.7112 175.232 12.2934 175.027C11.6152 174.677 11.1753 174.056 10.9531 173.338C10.2226 171.112 11.1761 168.489 11.7765 166.319L11.7916 166.28C13.2869 166.852 14.9627 166.949 16.5772 166.616Z" fill="#FDFFFF"/>
<path d="M7.36906 153.042C7.91059 151.619 9.48796 150.91 10.9045 151.452C12.1244 151.919 12.8165 153.179 12.6407 154.47C13.8721 154.67 14.923 155.343 15.6117 156.376C17.1948 155.533 19.0002 155.409 20.683 155.962C21.1552 156.143 21.5429 156.427 21.9156 156.751L21.9306 156.711C22.7731 156.037 23.464 155.17 23.8794 154.197C23.9696 153.96 24.1629 153.808 24.3897 153.804C24.6166 153.8 24.8226 153.969 24.8654 154.212C24.8747 154.306 25.1502 155.951 23.1599 158.811C23.3405 159.876 23.1461 160.979 22.5976 161.946C21.459 164.226 19.5299 165.978 17.1424 166.921C17.4527 169.303 17.0571 172.592 15.6662 174.233C14.6825 175.396 13.3135 175.913 12.1573 175.516L12.1179 175.501C10.9374 175.049 10.221 173.734 10.2081 171.873C10.2289 171.7 10.1954 171.552 10.2162 171.378C9.12027 172.363 7.70608 172.999 6.48395 172.893C6.21776 172.882 5.92727 172.816 5.65183 172.711C4.84052 172.355 4.20395 171.659 3.94813 170.791C2.70954 167.058 6.91735 164.413 8.32228 163.683C7.59076 162.407 7.21569 160.905 7.23989 159.421C7.2618 158.297 7.60429 157.161 8.23149 156.224C7.26507 155.447 6.93284 154.188 7.36906 153.042ZM17.8471 165.425C16.9408 164.49 14.7337 161.88 14.7959 158.282C14.2798 158.809 13.906 159.436 13.6109 160.092C13.5959 160.132 13.5809 160.171 13.5265 160.196C13.3309 160.71 12.2421 163.688 13.5419 166.313C15.0152 166.469 16.5359 166.146 17.8471 165.425ZM21.3164 161.048C21.1625 161.216 20.975 161.234 20.7783 161.159C20.7389 161.144 20.6602 161.114 20.6359 161.059C20.5723 160.99 19.1302 159.804 18.8731 158.348C18.7909 158.09 18.99 157.804 19.2319 157.761C19.2319 157.761 19.2712 157.776 19.2862 157.737C19.8637 157.641 20.432 157.451 20.9759 157.206C20.7548 157.076 20.5338 156.946 20.3127 156.816L20.234 156.786C19.4713 156.54 18.6334 156.491 17.8141 156.63C17.2113 159.161 18.3236 161.805 20.5585 163.157C20.9959 162.601 21.394 162.029 21.7134 161.426C21.9182 161.007 22.0987 160.533 22.1855 160.068C21.8626 160.442 21.6092 160.753 21.3164 161.048ZM11.2485 171.864C11.2544 173.269 11.707 174.212 12.494 174.513L12.5333 174.528C13.281 174.814 14.1906 174.438 14.8815 173.57C15.8801 172.368 16.425 169.634 16.1298 167.212C15.0928 167.45 14.0524 167.459 13.0085 167.241C11.8223 168.462 11.1905 170.122 11.2485 171.864ZM4.92141 170.485C5.12862 171.243 5.77097 171.806 6.55447 171.879C8.00344 171.981 9.81571 170.773 10.6442 169.188C10.9208 168.343 11.3397 167.598 11.916 166.913C10.7112 166.407 9.7054 165.615 8.86859 164.616C7.78075 165.105 3.90507 167.47 4.92141 170.485ZM8.22592 159.436C8.2075 160.787 8.549 162.14 9.2319 163.306C9.53503 162.155 10.8448 157.767 14.6963 156.886C14.3838 156.404 13.1315 154.839 10.4141 155.701C9.1689 156.13 8.3068 157.565 8.22592 159.436Z" fill="#553597"/>
</g>
<mask id="mask2_3733_94376" style="mask-type:luminance" maskUnits="userSpaceOnUse" x="29" y="-28" width="201" height="247">
<path d="M229.062 -27.3008H29.5781V218.877H229.062V-27.3008Z" fill="white"/>
</mask>
<g mask="url(#mask2_3733_94376)">
<path d="M102.07 27.6138C104.991 25.3013 108.116 23.223 111.387 21.4666C114.6 19.8567 118.076 18.8322 121.639 18.4809C121.639 18.4809 123.421 21.3203 126.838 20.6178C130.313 19.8859 132.037 18.1882 132.037 18.1882C132.037 18.1882 136.388 19.3883 142.96 15.5244C145.589 16.0806 147.867 17.8076 149.094 20.2079C150.437 22.6961 151.342 25.3891 151.722 28.1992C151.722 28.1992 144.946 31.8875 144.946 35.7221C144.946 39.5568 147.838 48.5433 147.838 48.5433L107.62 50.4167L110.599 39.7031L107.62 41.1082C107.62 41.1082 109.284 38.181 107.123 33.2633C105.488 29.5457 102.07 27.6138 102.07 27.6138Z" fill="white"/>
<path d="M111.387 21.4672C108.116 23.2235 105.02 25.2726 102.1 27.5851C102.479 27.8485 102.859 28.0534 103.239 28.3169C105.02 29.3706 104.056 30.3659 107.941 27.5851C110.949 25.4482 113.14 22.1112 116.703 20.8232C118.28 20.267 119.974 20.1792 121.61 19.9743C121.756 20.0036 121.931 19.9158 122.048 19.7987C122.106 19.7109 122.136 19.5938 122.077 19.506C122.019 19.0376 121.668 18.6571 121.23 18.4814C119.887 18.6571 115.564 19.2718 111.387 21.4672Z" fill="#EDE3FF"/>
<path d="M133.496 20.2958C135.483 20.6763 137.556 20.2958 139.425 19.5347C141.295 18.7736 142.989 17.6613 144.683 16.5489C144.8 16.4611 144.916 16.344 144.975 16.1977C144.332 15.8757 143.66 15.6415 142.989 15.5244C136.417 19.4176 132.065 18.1882 132.065 18.1882C131.978 18.276 131.89 18.3345 131.802 18.3931C131.773 18.4809 131.773 18.6565 131.686 18.6858C130.05 19.7396 132.533 20.0616 133.496 20.2958Z" fill="#EDE3FF"/>
<path d="M171.378 131.061C171.378 131.061 176.665 129.158 177.804 121.518C178.943 113.878 173.218 100.911 168.808 91.8658C164.398 82.8208 154.497 65.3161 154.497 65.3161L147.808 48.4261C147.808 48.4261 139.251 42.3961 127.393 43.245C115.535 44.0939 107.561 50.3874 107.561 50.3874C107.561 50.3874 101.428 67.2773 97.397 75.4442C93.3664 83.6111 86.4736 93.066 82.6475 102.843C78.8214 112.62 80.603 120.904 82.2094 124.826C83.8157 128.749 88.5765 130.563 88.5765 130.563C88.5765 130.563 94.0966 128.661 98.6529 130.066C103.209 131.471 106.918 135.92 106.918 135.92C106.918 135.92 115.593 136.272 119.623 127.841C123.654 119.411 121.668 110.219 121.814 104.482C121.96 98.7448 122.749 86.0114 125.202 79.0154C127.655 72.0194 129.087 68.0677 129.525 64.1452C129.525 64.1452 133.117 77.2298 134.11 83.1721C135.103 89.1143 136.242 97.2812 136.856 109.839C137.469 122.397 138.9 137.238 153.153 136.067C167.406 134.896 171.378 131.061 171.378 131.061Z" fill="#EDE3FF"/>
<path d="M106.977 135.862L105.283 141.043C105.283 141.043 99.0038 144.79 94.9149 140.545C94.9149 140.545 95.7327 136.477 93.3961 135.159C91.7313 134.252 89.9789 133.52 88.1973 132.964L88.6938 130.534C88.6938 130.534 93.4837 128.28 98.3029 129.598C103.122 130.915 106.977 135.862 106.977 135.862Z" fill="#EDE3FF"/>
<path d="M105.283 141.043L107.736 154.888C107.736 154.888 97.4556 160.04 93.2498 164.899C89.044 169.759 86.5907 178.687 77.7117 180.823C68.8036 182.96 66.3502 181.965 66.3502 181.965C66.3502 181.965 63.0791 176.96 59.0193 177.603C54.9011 178.247 54.0249 180.033 54.0249 180.033C54.0249 180.033 53.2655 176.286 56.6535 170.695C60.0415 165.075 71.7827 154.127 71.7827 154.127C71.7827 154.127 70.4976 158.46 71.6951 160.421C72.8926 162.382 77.7409 162.236 79.435 161.621C81.129 161.006 84.7214 158.021 84.7214 158.021L90.3583 150.38C90.3583 150.38 93.7464 145.17 94.8854 140.574C94.8854 140.545 98.069 144.965 105.283 141.043Z" fill="#EDE3FF"/>
<path d="M100.756 158.372C100.639 146.809 105.429 144.409 105.575 144.321L106.042 145.258C106.013 145.287 101.691 147.541 101.749 158.372H100.756Z" fill="white"/>
<path d="M80.7786 133.491C83.2028 131.588 89.2486 133.286 89.2486 133.286C89.2486 133.286 94.5643 134.545 94.8563 137.179C95.1484 139.814 93.7173 145.346 89.9788 151.318C86.2403 157.348 81.4211 160.86 79.4643 161.592C77.4782 162.324 71.2863 162.529 71.1987 159.163C71.1111 155.855 75.0832 143.122 75.0832 143.122C75.0832 143.122 77.3029 136.243 80.7786 133.491Z" fill="white"/>
<path d="M84.5172 157.991C84.4295 157.962 84.3419 157.903 84.2543 157.816C81.6257 156.323 80.5158 153.103 80.0485 150.117C79.6104 147.16 79.698 144.145 80.3114 141.189C80.8079 138.906 81.0707 136.827 83.2029 132.583C82.3266 132.612 81.4796 132.905 80.7787 133.432C77.303 136.183 75.0541 143.062 75.0541 143.062C75.0541 143.062 71.1112 155.796 71.1696 159.103C71.2572 162.411 77.4491 162.206 79.4352 161.533C80.545 161.211 82.3851 159.982 84.5172 157.991Z" fill="#EDE3FF"/>
<path d="M107.912 154.859C107.912 154.859 101.632 158.255 97.6604 160.919C93.6882 163.582 91.1764 167.212 88.1389 172.891C86.2988 176.287 83.2905 178.892 79.6689 180.238C79.6689 180.238 70.2642 182.287 68.1029 182.287C65.9124 182.287 65.2114 179.858 62.9041 178.453C60.5967 177.048 57.6176 177.487 55.7776 178.57C53.9667 179.711 51.1045 183.546 53.3242 186.327C55.5147 189.166 62.3491 190.923 71.6662 190.161C80.9832 189.4 85.3642 185.829 88.6938 181.321C91.9942 176.784 99.588 170.696 99.588 170.696C99.588 170.696 106.919 167.856 109.256 165.397C111.504 162.997 107.912 154.859 107.912 154.859Z" fill="white"/>
<path d="M132.153 2.96713C132.153 2.96713 136.972 3.34767 139.951 3.05495C142.931 2.76223 148.013 1.94261 154.029 3.31839C160.046 4.69418 161.448 8.49955 161.711 11.0169C161.973 13.5343 161.535 17.5153 158.965 21.7305C156.395 25.9457 151.751 28.1996 151.751 28.1996C151.751 28.1996 150.904 21.7305 148.246 18.774C145.588 15.8176 142.989 15.4956 142.989 15.4956L148.83 12.2756C148.83 12.2756 144.975 11.2218 142.989 10.4022C141.003 9.58261 134.256 7.85556 132.445 8.35319L131.16 4.69418L132.153 2.96713Z" fill="#EDE3FF"/>
<path d="M154 3.34699C147.984 1.94194 142.902 2.84937 139.923 3.08355C136.944 3.31772 132.124 2.99573 132.124 2.99573L131.307 4.4886C131.57 4.60569 131.862 4.69351 132.124 4.83987C136.272 6.24493 141.646 5.0155 145.969 4.92768C150.466 4.83987 155.11 5.10332 159.228 6.97673C159.608 7.15236 160.046 7.35726 160.455 7.5329C159.433 5.71803 157.476 4.10807 154 3.34699Z" fill="white"/>
<path d="M129.758 15.1436C129.758 15.1436 129.554 17.1926 132.037 18.1878C132.037 18.1878 128.911 21.0858 125.932 20.8223C122.953 20.5589 121.697 18.7733 121.697 18.7733C121.697 18.7733 124.209 17.9244 124.326 15.3777C124.355 15.4363 126.75 16.4901 129.758 15.1436Z" fill="#EDE3FF"/>
<path d="M122.019 7.1523C122.019 7.1523 123.128 3.49329 126.312 3.31766C129.496 3.14203 131.19 4.66418 131.569 5.65943C131.949 6.6254 132.621 10.5479 131.949 12.4505C131.19 14.441 129.32 15.8168 127.217 15.9339C124.968 16.1095 123.45 14.7338 122.778 12.9482C122.106 11.1626 122.019 7.1523 122.019 7.1523Z" fill="#EDE3FF"/>
<path d="M120.588 8.61667C120.413 8.88012 120.354 9.20211 120.413 9.49484C120.471 9.81683 120.559 10.1095 120.705 10.373C120.763 10.5194 120.851 10.6657 120.967 10.8121C121.113 10.9584 121.289 11.0755 121.464 11.1926C121.581 11.2804 121.668 11.3975 121.844 11.4561C122.077 11.4853 122.282 11.339 122.34 11.1048C122.399 10.8706 122.399 10.6657 122.369 10.4315C122.282 9.93392 122.369 8.93867 122.019 8.52886C121.814 8.32395 121.581 8.20687 121.289 8.17759C121.113 8.14832 120.588 8.35323 120.588 8.61667Z" fill="#EDE3FF"/>
<path d="M133.789 8.3826C134.169 8.73387 134.169 9.31931 134.081 9.78766C133.906 10.578 133.439 11.2513 132.767 11.6903C132.533 11.8367 132.271 11.9245 132.008 11.866C131.745 11.7489 131.57 11.5147 131.54 11.222C131.336 10.4902 131.511 9.69984 131.716 8.96804C131.774 8.55823 132.124 8.26551 132.533 8.23624C132.942 8.14843 133.41 8.00206 133.789 8.3826Z" fill="#EDE3FF"/>
<path d="M102.07 27.6143C102.07 27.6143 111.066 33.5565 107.649 41.1087L96.5503 45.9093L87.3209 51.2075L77.9162 56.1838L73.4476 59.9013L71.0234 60.194C71.0234 60.194 70.9942 57.6181 70.3516 57.2961C69.3294 56.7985 66.2334 59.2573 66.2334 59.2573L65.2988 58.1157L66.029 54.3689L67.3141 52.876L70.2932 51.7344L73.7688 51.3246L81.3919 44.9433L89.6574 36.7471L102.07 27.6143Z" fill="#EDE3FF"/>
<path d="M102.303 31.6245C103.413 30.8634 104.085 30.1316 104.26 29.4584C103.559 28.7851 102.8 28.1411 102.011 27.585L89.5983 36.7178L81.3327 44.914L73.7097 51.2953L70.2341 51.7051L67.255 52.8467L65.9699 54.3396L65.3857 57.5303C66.2035 55.9496 67.3426 54.5445 68.949 53.842C70.5262 53.1687 72.3078 53.2565 73.9434 52.876C75.6374 52.4369 77.1269 51.5295 78.5581 50.505C80.8362 48.8657 82.9391 46.9631 84.7792 44.8555C86.0935 43.3626 87.3202 41.8112 88.7221 40.4354C92.6942 36.63 97.8639 34.6395 102.303 31.6245Z" fill="white"/>
<path d="M124.988 8.8954C125.813 8.74509 126.421 8.28798 126.346 7.87442C126.271 7.46086 125.541 7.24745 124.716 7.39776C123.891 7.54807 123.282 8.00518 123.357 8.41874C123.432 8.8323 124.162 9.04571 124.988 8.8954Z" fill="white"/>
<path d="M130.599 8.12148C130.632 7.7025 129.982 7.30814 129.146 7.24065C128.309 7.17317 127.604 7.45812 127.571 7.8771C127.537 8.29609 128.188 8.69045 129.024 8.75793C129.86 8.82541 130.565 8.54047 130.599 8.12148Z" fill="white"/>
<path d="M123.829 7.44576C123.654 7.44576 123.479 7.35794 123.42 7.18231C123.274 6.94813 123.333 6.62614 123.566 6.47978C123.566 6.47978 123.596 6.47978 123.596 6.45051C124.209 6.09924 124.91 5.95288 125.582 6.06997C125.874 6.12851 126.049 6.39196 125.991 6.65541C125.932 6.94813 125.669 7.12376 125.407 7.06522C124.968 7.00668 124.53 7.06522 124.121 7.27012C124.034 7.41648 123.946 7.44576 123.829 7.44576Z" fill="#553597"/>
<path d="M129.846 7.24016C129.758 7.24016 129.7 7.24016 129.642 7.21089C129.233 7.03526 128.765 7.00598 128.327 7.12307C128.064 7.21089 127.772 7.06453 127.685 6.80108C127.597 6.53763 127.743 6.24491 128.006 6.15709C128.678 5.92292 129.408 5.95219 130.05 6.24491C130.313 6.362 130.43 6.65472 130.313 6.91817C130.255 7.12307 130.08 7.26943 129.846 7.24016Z" fill="#553597"/>
<path d="M150.437 22.9893C149.24 22.8723 148.364 25.3604 147.867 26.1215C147.137 27.2338 146.29 28.4047 145.034 28.8438C143.807 29.2828 142.405 28.9608 141.208 29.4877C140.974 29.5756 140.77 29.7512 140.624 29.9561C140.507 30.161 140.448 30.3952 140.448 30.6294C140.419 31.8295 140.945 32.9711 141.471 34.0835C142.668 36.4545 143.924 38.7963 144.742 41.3429C145.384 43.392 145.706 45.5874 147.108 47.1681C146.494 45.0897 145.998 42.9822 145.676 40.8453C145.618 40.6111 145.618 40.3769 145.647 40.1135C145.297 38.6792 145.063 37.1863 145.005 35.6934C145.005 31.8588 151.781 28.1705 151.781 28.1705C151.547 26.4142 151.08 24.6579 150.437 22.9893Z" fill="#EDE3FF"/>
<path d="M109.168 165.456C110.482 164.051 109.898 160.831 109.139 158.284C107.854 160.187 106.861 162.529 104.816 163.846C102.158 165.573 98.9746 166.275 96.2292 167.827C88.5185 172.188 85.5102 182.639 77.4199 186.327C74.6744 187.615 71.5785 187.937 68.5118 188.112C66.7302 188.2 64.9193 188.229 63.2253 187.644C61.3561 187 59.8665 185.595 58.3478 184.366C56.829 183.136 55.135 181.936 53.1781 181.79H53.0029C52.3311 183.283 52.1267 184.922 53.2657 186.385C55.4563 189.225 62.2907 190.981 71.6077 190.22C80.9247 189.459 85.3058 185.888 88.6354 181.38C91.9358 176.843 99.5296 170.783 99.5296 170.783C99.5296 170.783 106.861 167.973 109.168 165.456Z" fill="#EDE3FF"/>
<path d="M72.4832 167.622C70.5848 167.242 68.5987 167.154 66.7586 166.51C65.0646 165.924 63.4583 164.783 62.7865 163.114C60.2747 165.837 57.9089 168.588 56.6822 170.637C56.5362 170.871 56.3902 171.135 56.2441 171.398H56.2733C59.2817 171.867 61.9979 173.359 64.8018 174.589C67.5472 175.818 70.614 176.843 73.6223 176.287C75.7544 175.848 77.9449 174.238 77.9157 172.072C77.7405 169.583 74.9366 168.091 72.4832 167.622Z" fill="white"/>
<path d="M111.124 162.412L111.095 162.148C110.978 161.3 110.336 159.514 109.693 157.904C109.109 156.294 108.554 155.006 108.408 154.713L105.896 141.043L107.415 135.891C107.503 135.628 107.357 135.335 107.094 135.247C106.831 135.16 106.539 135.306 106.451 135.569C106.451 135.569 106.451 135.569 106.451 135.599L104.962 140.663C99.0326 144.351 95.5862 140.37 95.4694 140.194C95.7615 138.526 95.6738 137.15 95.1773 136.126C94.4179 134.516 91.6141 133.315 88.8102 132.73L89.3943 130.681C89.4528 130.418 89.3067 130.125 89.0439 130.037C88.781 129.949 88.4889 130.096 88.4013 130.388L87.8172 132.525C87.7003 132.525 87.6127 132.496 87.4667 132.496C83.8742 131.94 80.9535 132.467 79.7268 133.784C78.2081 135.452 76.6893 138.409 75.3166 141.804C74.7617 142.126 74.2651 142.536 73.827 143.005C73.535 143.356 73.5642 143.883 73.9147 144.205C74.0315 144.293 74.1483 144.351 74.2943 144.38C74.0023 145.229 73.7102 146.107 73.4181 147.015C72.8924 147.249 72.3667 147.571 71.8994 147.893C71.5489 148.156 71.4613 148.683 71.7533 149.035L71.7825 149.064C72.0162 149.357 72.3667 149.474 72.7172 149.357C72.4251 150.41 72.133 151.493 71.8702 152.459C70.994 152.898 70.2346 153.542 69.6796 154.362C69.5044 154.655 69.5336 155.035 69.7673 155.299C66.3208 158.431 58.2013 166.305 54.9886 173.096C53.1777 176.96 53.3822 180.004 53.4114 180.268C52.652 181.38 51.0748 184.132 52.9149 186.796C54.7549 189.459 61.5601 191.069 68.3069 191.069C71.8118 191.069 75.3458 190.63 78.0912 189.664C85.8895 186.913 87.6127 185.42 92.2858 179.595C97.0174 173.682 101.515 171.369 106.48 169.115C111.884 166.598 111.475 164.198 111.124 162.412ZM80.3986 134.457C81.0704 133.696 82.6475 133.257 84.6336 133.257C85.5098 133.257 86.3568 133.345 87.2038 133.462C90.5918 133.959 93.5125 135.247 94.0967 136.506C94.9729 138.38 94.2719 141.717 92.023 146.312C90.2121 144.058 87.8172 142.361 85.0717 141.424C81.2164 140.019 78.4125 140.37 76.5433 141.043C77.8284 138.292 79.1427 135.833 80.3986 134.457ZM75.6671 143.502C76.8061 142.653 79.6392 141.307 84.6044 143.063C87.2914 143.971 89.5988 145.727 91.2636 148.039C91.0007 148.478 90.7963 148.917 90.5042 149.386C90.0077 150.264 89.3943 151.201 88.7226 152.196C87.4083 150.235 85.3638 147.952 82.3555 146.751C79.9021 145.698 77.1274 145.61 74.6156 146.459C74.9953 145.434 75.3166 144.439 75.6671 143.502ZM73.9731 148.537C76.3972 147.308 79.2595 147.22 81.7713 148.274C84.6044 149.415 86.5029 151.698 87.6711 153.572C86.7365 154.801 85.7143 155.972 84.6336 157.055C83.3193 154.918 81.304 153.279 78.909 152.459C76.3388 151.523 74.4112 151.523 72.98 151.903C73.2429 150.849 73.5934 149.708 73.9731 148.537ZM72.4543 153.952C73.5642 153.396 75.4334 153.016 78.3541 154.069C80.4862 154.83 82.2678 156.323 83.4069 158.285C81.5961 159.982 79.8145 161.182 78.5001 161.387C75.9883 161.826 73.681 161.475 72.5127 160.568C71.987 160.217 71.6657 159.631 71.6365 158.987C71.4613 158.372 71.8118 156.47 72.4543 153.952ZM55.8356 173.477C59.1359 166.422 68.2485 157.933 71.0524 155.387C70.6727 157.201 70.4682 158.607 70.4974 159.163C70.5851 160.07 71.0524 160.919 71.8118 161.446C72.834 162.207 74.4404 162.646 76.3096 162.646C77.069 162.646 77.8284 162.588 78.5878 162.47C80.2526 162.207 82.151 160.802 83.7866 159.338C84.0787 160.012 84.2831 160.714 84.4292 161.417C84.1371 161.914 84.0787 162.529 84.3415 163.085C84.7212 163.934 85.6266 164.402 86.3276 164.11C87.0578 163.817 87.3499 162.822 86.9702 161.973C86.7949 161.563 86.4736 161.212 86.094 161.036C85.8895 160.041 85.5682 159.075 85.1301 158.138L85.4222 157.845C86.4152 156.821 87.3499 155.767 88.2261 154.655C88.4889 155.094 88.6934 155.562 88.8978 156.06C88.7226 156.557 88.7518 157.084 88.9854 157.553C89.3943 158.402 90.2998 158.782 91.0299 158.431C91.7601 158.08 91.9646 157.114 91.5849 156.265C91.3512 155.796 90.9715 155.445 90.475 155.299C90.1537 154.538 89.8032 153.835 89.3651 153.133C90.1245 152.108 90.8255 151.025 91.4972 149.913C91.6725 149.62 91.8477 149.327 91.9646 149.064C92.315 149.679 92.6071 150.352 92.8408 151.025C92.6655 151.581 92.7823 152.167 93.1036 152.635C93.6586 153.396 94.5932 153.66 95.2357 153.191C95.8783 152.723 95.9659 151.757 95.411 150.996C95.1481 150.645 94.7684 150.381 94.3595 150.235C93.9798 149.21 93.4541 148.244 92.8408 147.337C93.8338 145.463 94.6224 143.473 95.1773 141.424C96.5793 142.624 98.3317 143.268 100.172 143.297C101.574 143.297 103.18 142.917 104.991 141.863L107.327 154.596C105.429 155.533 96.5793 160.129 92.6655 164.929C91.4388 166.451 90.4166 168.237 89.3943 169.935C86.941 174.179 84.4 178.599 78.2373 180.18C72.4251 181.673 69.0371 181.849 67.5475 181.849C66.9926 181.849 66.4377 181.556 66.1456 181.087C64.8021 178.921 62.5532 177.487 60.0414 177.224C57.5003 176.96 55.339 178.365 54.3168 179.214C54.4628 177.194 54.9885 175.292 55.8356 173.477ZM108.554 164.519C107.824 165.456 105.633 166.188 103.034 167.037C99.0034 168.354 94.0382 169.964 91.3804 173.447C90.4458 174.677 89.6864 176.258 88.8686 177.955C87.1454 181.614 85.1301 185.712 80.5738 187.498C80.5446 187.498 80.4862 187.527 80.457 187.586C79.61 187.937 78.6754 188.259 77.6239 188.64C70.2638 191.216 56.0984 189.781 53.645 186.122C51.7758 183.4 54.3168 180.531 54.4628 180.385C54.492 180.356 56.7118 178.102 59.4572 178.102C59.6325 178.102 59.8077 178.102 59.9537 178.131C62.1443 178.365 64.1303 179.624 65.2986 181.497C65.7951 182.258 66.6421 182.727 67.5475 182.785C69.446 182.815 72.834 182.522 78.4709 181.117C85.0425 179.448 87.7003 174.823 90.2998 170.374C91.2344 168.676 92.315 167.037 93.4833 165.485C97.0758 161.036 105.517 156.616 107.649 155.562C108.496 157.875 109.985 162.705 108.554 164.519Z" fill="#553597"/>
<path d="M121.347 19.0955C121.055 19.0955 120.821 18.8906 120.821 18.5979C120.821 18.3052 121.026 18.071 121.318 18.071H121.347C121.435 18.071 123.596 17.9832 124.063 15.2609C124.122 14.9681 124.385 14.7925 124.677 14.8511C124.939 14.9096 125.144 15.1731 125.086 15.4365C124.56 18.2759 122.398 19.037 121.347 19.0955Z" fill="#553597"/>
<path d="M132.183 18.8031H132.066C130.401 18.5103 129.233 16.9297 129.437 15.2319C129.466 14.9392 129.729 14.7343 130.021 14.7635C130.313 14.7928 130.518 15.0562 130.489 15.349C130.46 15.5539 130.313 17.3102 132.358 17.7785C132.621 17.8371 132.796 18.1005 132.738 18.364C132.738 18.3933 132.738 18.3933 132.738 18.4225C132.65 18.6274 132.416 18.8031 132.183 18.8031Z" fill="#553597"/>
<path d="M108.233 40.9914C108.116 40.7279 107.824 40.6108 107.561 40.6987C107.006 40.9036 105.75 41.5183 103.998 42.3672C101.486 43.3039 99.2078 42.0744 97.3385 41.0792C96.141 40.4352 95.2648 39.9669 94.447 40.1425C92.4902 40.5816 91.6432 43.0404 90.5041 46.436C89.6279 48.9826 86.1523 51.2659 84.3122 52.3489C81.2747 53.9589 78.9382 55.1883 78.3248 55.6274C77.361 56.2714 76.514 56.9739 75.6962 57.6179C74.8784 58.3204 74.0022 58.9644 73.126 59.5206C72.3082 59.9889 71.8117 59.9597 71.5196 59.8133C71.7824 59.1986 71.7824 58.5253 71.5488 57.9106C71.3151 57.3544 70.8186 56.9446 70.2345 56.7983C68.8325 56.3592 67.1093 58.1448 66.4668 58.9351C66.2623 58.8473 66.0579 58.6717 65.9703 58.4668C65.503 57.1788 66.7004 54.0174 67.0801 53.6369C67.6643 52.9929 70.0008 52.4075 73.0968 52.1148C74.5863 51.9391 78.7337 48.2216 88.1091 39.2351C94.4762 33.1172 102.187 28.0239 102.275 27.9653C102.508 27.819 102.596 27.497 102.421 27.2335C102.275 26.9993 101.953 26.9115 101.72 27.0579C101.632 27.0872 93.8337 32.239 87.4082 38.4447C81.596 44.0064 74.4111 50.8853 73.0383 51.061C70.9939 51.2659 67.4598 51.7928 66.35 52.9344C65.7658 53.5784 64.3931 57.1495 65.0356 58.8473C65.2985 59.5206 65.9411 59.9597 66.642 60.0475H66.8173C66.8465 60.0475 66.9049 60.0475 66.9049 60.0182C66.9341 60.0182 66.9341 59.9889 66.9925 59.9889C67.0217 59.9889 67.0217 59.9597 67.0801 59.9011C67.1093 59.9011 67.1093 59.8718 67.1093 59.8718C67.8687 58.9351 69.2999 57.6179 70.0008 57.8228C70.2929 57.8813 70.5265 58.0863 70.6726 58.3204C70.877 58.8181 70.6434 59.5499 70.4973 59.8133C70.4097 60.0182 70.4389 60.2524 70.585 60.3987C70.9939 60.7793 71.5196 60.9549 72.0745 60.9549C72.6879 60.9549 73.272 60.75 73.7685 60.3987C74.6447 59.8426 75.5501 59.1108 76.4848 58.4082C77.3026 57.7643 78.1496 57.091 79.0258 56.447C79.4931 56.0958 81.2163 55.159 83.6405 53.9003C83.6697 53.9003 83.7281 53.9003 83.7281 53.8711C83.7573 53.8418 84.0202 53.754 84.3999 53.5198L88.8977 51.178C90.3289 50.4462 91.8184 49.6852 93.308 48.9241L105.078 43.0697C105.108 43.0697 105.108 43.0404 105.166 43.0404C106.568 42.3672 107.59 41.8988 108.057 41.7232C108.233 41.5183 108.32 41.2548 108.233 40.9914Z" fill="#553597"/>
<path d="M161.798 9.02661C159.812 3.96255 154.905 2.79167 150.32 2.26477C147.896 2.00132 145.355 2.2355 142.697 2.4404C138.871 2.73312 134.898 3.08439 130.663 2.17695C130.401 2.11841 130.108 2.29404 130.021 2.55749C129.962 2.82094 130.138 3.11366 130.401 3.20148C134.752 4.13818 138.987 3.78692 142.726 3.4942C145.355 3.28929 147.866 3.08439 150.174 3.31856C154.672 3.78691 159.023 4.89925 160.805 9.37788C161.36 10.9 161.564 12.5685 161.36 14.1785C161.36 14.2078 161.331 14.2078 161.331 14.2663C161.302 14.2956 159.082 18.9498 155.781 20.8818C153.328 22.3161 151.955 22.3747 151.254 22.199C150.962 22.1112 150.729 21.9649 150.524 21.7307V21.7014C149.297 18.8913 147.72 16.9593 145.851 15.9641C147.896 14.4419 150.437 14.5298 152.16 14.6176H152.539C153.941 14.6468 154.613 13.8858 154.73 13.2711C154.905 12.5978 154.584 11.9245 153.971 11.6026C152.948 11.1342 150.787 11.6026 150.583 11.6904C148.217 12.188 145.705 11.1927 143.076 10.0804C142.609 9.8755 142.142 9.69987 141.674 9.49496C137.089 7.6801 133.876 7.82646 133.701 7.82646C133.409 7.82646 133.175 8.08991 133.204 8.38263C133.204 8.67535 133.467 8.90952 133.759 8.88025C133.789 8.88025 136.885 8.76316 141.266 10.4902C141.733 10.6658 142.2 10.8707 142.667 11.0464C144.274 11.7196 145.793 12.3636 147.341 12.6563L142.638 15.2908C142.551 15.3201 136.271 18.7742 132.27 17.8082C132.095 17.7497 131.89 17.8375 131.773 17.9839C131.773 18.0131 129.787 20.2378 126.896 20.4134C125.114 20.5013 123.332 19.7695 121.609 18.2473C121.522 18.1595 121.434 18.1302 121.317 18.1302C121.025 18.1009 114.074 17.6619 101.603 27.146C101.369 27.3216 101.31 27.6436 101.486 27.8778C101.515 27.9071 101.544 27.9656 101.603 27.9949C101.69 28.0242 110.131 34.0542 107.181 41.1088C107.093 41.3137 107.152 41.5479 107.298 41.6942C107.473 41.8406 107.707 41.8698 107.882 41.782L109.78 40.9039L106.772 50.9442C106.714 51.2076 106.86 51.5003 107.123 51.5882C107.152 51.5882 107.21 51.6174 107.298 51.6174C107.532 51.6174 107.736 51.4711 107.794 51.2369L108.174 49.9489C108.291 49.8904 108.379 49.7733 108.437 49.6562L108.846 48.1633C109.78 45.8801 111.767 43.6554 113.285 42.0162C114.95 40.2013 115.943 39.089 115.184 38.3279C113.957 37.0985 111.036 39.0012 110.394 39.4403L108.583 40.3184C109.342 37.4205 108.583 34.3177 106.392 31.3026C105.341 29.9269 104.144 28.6682 102.8 27.5558C113.49 19.5645 119.974 19.184 121.084 19.184C122.953 20.8525 124.939 21.6136 126.983 21.4672C129.729 21.2916 131.686 19.5645 132.328 18.9206C136.388 19.7402 142.083 16.8422 143.018 16.3446C148.889 16.5788 150.816 26.0044 151.196 27.9656C150.057 28.5511 146.494 30.6001 144.829 33.5566C142.755 37.4498 147.399 48.9244 147.633 49.3928C147.749 49.6562 148.042 49.8026 148.304 49.6855C148.567 49.5684 148.684 49.2757 148.596 49.0122C147.282 45.8216 144.245 36.9521 145.763 34.0542C147.545 30.9221 151.984 28.756 152.043 28.6974C152.218 28.5803 156.658 26.0629 159.345 22.0819C163.667 15.7006 162.47 10.8415 161.798 9.02661Z" fill="#553597"/>
<path d="M177.307 111.069C175.029 102.229 169.714 92.1297 164.865 83.4359C163.054 80.216 161.36 77.0253 159.812 73.9518C159.812 73.9225 159.812 73.864 159.783 73.864L158.381 71.0538C152.277 58.6132 148.714 49.0705 148.685 48.9242C148.685 48.8656 148.655 48.8071 148.597 48.7485C148.568 48.7193 147.312 47.2557 144.187 45.8213C141.354 44.5041 136.301 42.9234 128.415 42.777C113.198 42.5136 107.181 50.3 106.948 50.622C106.919 50.6512 106.919 50.7098 106.86 50.7976C103.209 61.8917 99.4124 70.9368 94.4765 80.1282C93.2498 82.3821 91.8478 84.7239 90.3583 87.1827C85.3931 95.3496 79.7562 104.6 79.8438 115.196C79.9606 129.042 88.3722 130.915 88.7519 131.003C88.8395 131.003 88.9564 131.003 89.044 130.974C99.7921 126.759 106.247 135.657 106.51 136.038C106.597 136.184 106.773 136.243 106.919 136.243H107.298C111.124 136.301 114.805 134.721 117.433 131.91C122.048 127.022 123.245 119.675 122.866 114.874C122.515 110.893 121.201 90.2563 126.516 76.879C128.006 73.22 129.057 69.3853 129.7 65.4922C130.635 69.0926 132.796 77.523 134.14 84.6068C135.629 92.5102 136.009 99.5063 136.33 106.297C136.622 112.21 136.914 117.772 137.936 123.07C138.988 128.369 141.616 132.584 145.297 134.867C146.991 135.921 148.947 136.535 150.933 136.565C151.751 136.565 152.598 136.448 153.387 136.243C153.562 136.213 153.679 136.067 153.737 135.891C166.355 134.779 170.59 131.676 171.32 131.149V131.179C171.437 131.413 171.758 131.501 171.992 131.384C172.021 131.384 172.021 131.354 172.05 131.354C178.154 127.754 179.878 121.08 177.307 111.069ZM98.507 74.5372C99.4709 72.4882 100.464 70.4684 101.34 68.3901C109.869 71.3173 117.784 74.5958 125.027 77.9035C124.297 80.0111 123.683 82.1479 123.245 84.3141C115.155 80.6551 106.919 77.3766 98.507 74.5372ZM129.934 63.1797C130.197 60.9843 130.226 58.7889 130.051 56.5934C133.263 56.6227 136.476 57.0325 139.63 57.7351C139.922 57.8229 140.185 57.6472 140.273 57.3545C140.361 57.0618 140.185 56.7984 139.893 56.7105H139.864C127.714 53.959 118.777 56.8862 118.397 57.0033C118.134 57.0911 117.988 57.3838 118.046 57.6472C118.134 57.8521 118.339 57.9985 118.543 57.9985C118.601 57.9985 118.66 57.9985 118.718 57.9692C118.747 57.9692 122.836 56.6227 128.999 56.5642C128.999 56.5934 129.554 61.3648 127.948 68.5364C117.9 63.1797 109.985 59.9012 105.371 58.2034C106.188 55.9495 106.977 53.6662 107.795 51.2367C108.379 50.5049 114.396 43.5967 128.386 43.8601C142.201 44.1236 147.166 48.8364 147.692 49.4218C147.721 49.5974 147.896 49.9194 148.13 50.4756V50.5927C148.977 52.9637 149.911 57.1203 148.685 58.2034C148.013 58.7889 146.991 59.023 146.027 59.2279C144.596 59.5207 142.814 59.9012 143.106 61.9795C143.281 63.0333 144.683 63.7066 146.845 64.7018C150.233 66.2825 155.315 68.6828 158.761 74.2152C160.338 77.3473 162.061 80.6258 163.931 83.9335C166.267 88.0902 168.721 92.5981 170.823 97.106C158.644 87.2413 145.676 78.4011 132.007 70.7318C130.956 66.5167 130.138 63.5017 130.138 63.4138C130.109 63.2967 130.051 63.2089 129.934 63.1797ZM134.753 82.6163C154.876 92.9493 168.808 103.429 175.672 109.02C175.935 109.781 176.139 110.542 176.314 111.274C176.928 113.557 177.307 115.899 177.424 118.27C164.281 106.649 149.59 97.4572 136.067 90.4612C135.804 88.4707 135.512 86.4802 135.103 84.4019C134.987 83.8457 134.84 83.2017 134.753 82.6163Z" fill="#553597"/>
<path d="M134.169 7.97239C133.731 7.62112 133.176 7.53331 132.65 7.70894C132.591 7.59185 132.562 7.44549 132.562 7.3284H132.591C132.737 7.26986 132.854 7.18204 132.942 7.06495C133.526 5.92334 133.614 4.78173 133.292 3.8743C133.03 3.23031 132.475 2.73269 131.803 2.52779C131.54 2.43997 131.277 2.4107 130.985 2.4107C130.839 1.64962 130.343 1.00564 129.642 0.71292C128.736 0.390927 127.772 0.44947 126.925 0.917823L126.896 0.947095C126.808 1.00564 126.692 1.06418 126.604 1.06418C126.546 1.06418 126.487 1.03491 126.429 0.976366L126.341 0.947095C125.553 0.59583 124.647 0.654374 123.917 1.12273C123.362 1.50326 122.953 2.11798 122.807 2.79123C122.34 2.82051 121.902 2.99614 121.522 3.28886C120.646 4.04993 121.142 6.50878 121.434 7.65039C121.084 7.65039 120.733 7.79675 120.5 8.08947C120.178 8.47001 120.003 8.96764 120.032 9.49453C120.062 10.7825 120.879 11.9241 122.077 12.3925H122.106C122.982 15.8466 125.231 16.6369 127.013 16.6369H127.13C129.291 16.6076 131.803 15.788 132.65 12.3925C133.847 11.9241 134.665 10.7825 134.694 9.49453C134.694 8.93836 134.519 8.41147 134.169 7.97239ZM120.996 9.3189C120.967 9.08472 121.025 8.87982 121.172 8.67492C121.259 8.5871 121.434 8.55783 121.434 8.5871C121.464 8.61637 121.464 8.61637 121.522 8.61637C121.522 9.37744 121.61 10.1092 121.726 10.8703C121.259 10.4898 121.025 9.93361 120.996 9.3189ZM131.803 10.3434C131.628 13.7097 130.08 15.3489 127.071 15.4368C124.881 15.466 123.479 14.1488 122.924 11.485C122.603 9.96288 122.515 8.38219 122.632 6.8015C123.099 5.57208 124.121 4.66465 125.377 4.28411C127.188 3.75721 129.116 4.16702 130.576 5.3379C131.482 6.86005 131.92 8.61637 131.803 10.3434ZM132.825 10.9289C132.825 10.7532 132.854 10.5776 132.854 10.4312C132.913 9.87507 132.884 9.28963 132.825 8.73346C133 8.64564 133.234 8.64564 133.409 8.70419C133.555 8.87982 133.614 9.114 133.584 9.34817C133.555 9.93361 133.292 10.5191 132.825 10.9289Z" fill="#553597"/>
<path d="M127.13 10.4609C124.677 10.4609 124.034 12.1294 124.677 12.8027C125.319 13.5345 126.195 12.3051 127.188 12.3051C128.298 12.3051 129.058 13.5052 129.817 12.5978C130.606 11.6611 128.912 10.4609 127.13 10.4609Z" fill="#553597"/>
<path d="M127.977 13.5344C127.422 13.2124 126.75 13.271 126.283 13.7101C126.166 13.8271 126.166 14.0613 126.283 14.1784C126.4 14.2955 126.575 14.2955 126.721 14.1784C126.984 13.9735 127.364 13.9442 127.656 14.1491C127.802 14.2369 127.977 14.2077 128.065 14.0613C128.065 14.0613 128.065 14.032 128.094 14.032C128.211 13.915 128.181 13.7101 128.065 13.593C128.035 13.5637 128.006 13.5344 127.977 13.5344Z" fill="#553597"/>
<path d="M126.254 9.7869C126.137 9.7869 126.02 9.72836 125.962 9.61127C125.903 9.46491 125.933 9.26 126.079 9.17219C126.108 9.17219 127.013 8.70383 127.889 9.14291C128.035 9.23073 128.094 9.40636 128.006 9.582C127.919 9.72836 127.743 9.7869 127.568 9.69908C127.159 9.52345 126.692 9.52345 126.283 9.72836C126.371 9.75763 126.283 9.7869 126.254 9.7869Z" fill="#553597"/>
<path d="M118.543 25.8867L137.82 38.825C131.336 30.219 118.543 25.8867 118.543 25.8867Z" fill="#EDE3FF"/>
<path d="M120.441 35.1077L132.212 39.8497C126.166 34.8149 120.441 35.1077 120.441 35.1077Z" fill="#EDE3FF"/>
<path d="M125.027 8.90934C125.085 8.90934 125.114 8.90934 125.143 8.88007C125.056 8.35317 124.618 7.94336 124.092 7.94336C123.829 7.94336 123.595 8.03118 123.42 8.20681C123.42 8.29462 123.391 8.3239 123.42 8.41171C123.449 8.82152 124.18 9.02642 125.027 8.90934Z" fill="#553597"/>
<path d="M129.261 8.76278C129.232 8.17734 128.736 7.70898 128.152 7.70898C127.947 7.70898 127.772 7.76753 127.597 7.88462V7.91389C127.567 8.35297 128.239 8.73351 129.028 8.79205C129.115 8.79205 129.174 8.76278 129.261 8.76278Z" fill="#553597"/>
<path d="M169.334 126.407L171.963 132.437L166.793 134.808C166.793 134.808 163.318 136.213 163.872 139.257L163.843 139.989C163.843 139.989 160.806 141.892 158.294 141.687C155.841 141.482 153.708 139.638 153.708 139.638L152.891 130.036C154.409 127.782 156.717 126.173 159.316 125.499C163.61 124.475 167.553 124.914 169.334 126.407Z" fill="#EDE3FF"/>
<path d="M187.676 154.713C187.676 154.713 190.713 157.933 193.78 160.567C196.847 163.202 201.023 167.622 202.922 171.427C204.82 175.262 204.879 177.721 204.879 177.721C204.879 177.721 198.365 174.237 195.883 176.023C193.429 177.808 190.801 181.702 189.954 181.702C189.107 181.702 186.945 182.346 184.375 181.526C181.805 180.706 175.438 177.486 169.918 169.964C164.398 162.441 161.827 159.689 159.17 158.108C156.512 156.528 151.284 152.547 151.284 152.547C151.284 152.547 150.262 142.36 153.737 139.667C153.737 139.667 155.782 143.911 163.872 140.018L180.52 146.634L187.676 154.713Z" fill="#EDE3FF"/>
<path d="M157.943 156.586H156.92C157.125 144.995 152.043 144.409 152.014 144.351L152.101 143.326C152.306 143.355 158.147 143.882 157.943 156.586Z" fill="white"/>
<path d="M170.941 132.847C172.635 132.379 176.285 131.559 178.067 132.584C179.849 133.608 182.653 142.097 182.653 142.097L186.479 154.333C186.479 154.333 188.26 159.397 185.369 161.183C182.477 162.968 177.833 160.422 177.833 160.422C177.833 160.422 172.693 156.441 170.619 153.631C168.546 150.82 164.72 141.951 164.72 141.951C164.72 141.951 162.763 137.355 164.632 136.009C166.501 134.662 170.941 132.847 170.941 132.847Z" fill="white"/>
<path d="M182.593 142.068C182.593 142.068 179.79 133.579 178.008 132.555C177.365 132.174 176.489 132.057 175.496 132.086C175.671 132.32 175.847 132.555 175.993 132.818C176.577 133.755 177.044 134.75 177.482 135.804C178.592 138.555 178.884 141.541 179.176 144.498C179.673 149.562 180.111 154.977 177.511 159.368L177.132 160.012C177.307 160.129 177.482 160.275 177.628 160.451C177.628 160.451 182.243 162.998 185.164 161.212C188.084 159.426 186.273 154.362 186.273 154.362L182.593 142.068Z" fill="#EDE3FF"/>
<path d="M151.255 152.518L149.298 160.245C149.298 160.245 150.495 163.641 152.89 164.665C155.285 165.69 161.623 169.115 161.623 169.115L164.661 174.12C164.661 174.12 171.349 184.746 175.672 186.854C179.994 188.991 182.623 189.02 182.623 189.02L191.443 189.488C191.443 189.488 199.154 189.4 203.506 185.917C207.858 182.434 204.996 178.306 204.996 178.306C204.996 178.306 200.118 174.237 196.438 175.789C192.758 177.37 191.268 181.321 189.545 181.731C187.822 182.141 185.339 182.375 181.338 180.297C177.307 178.218 174.182 175.701 170.356 170.286C166.559 164.87 160.309 157.172 151.255 152.518Z" fill="white"/>
<path d="M203.535 185.975C205.404 184.482 205.959 182.872 205.959 181.526C203.535 180.297 200.614 179.653 198.336 181.028C196.438 182.17 195.445 184.424 193.751 185.829C191.181 187.966 187.442 187.732 184.083 187.439C182.185 187.263 180.228 187.088 178.563 186.209C176.898 185.361 171.028 181.233 166.88 172.071C163.229 163.904 157.271 161.328 150.875 157.289C150.67 157.172 150.408 156.996 150.145 156.85L149.269 160.333C149.269 160.333 150.466 163.729 152.861 164.753C155.256 165.778 161.594 169.202 161.594 169.202L164.631 174.208C164.631 174.208 171.32 184.834 175.642 186.941C179.965 189.078 182.594 189.107 182.594 189.107L191.414 189.576C191.443 189.546 199.212 189.4 203.535 185.975Z" fill="#EDE3FF"/>
<path d="M184.988 165.368C186.887 164.988 188.873 164.9 190.713 164.256C192.407 163.67 194.013 162.529 194.685 160.86C197.197 163.583 199.563 166.334 200.789 168.383C200.935 168.617 201.081 168.881 201.227 169.144H201.169C198.161 169.613 195.444 171.106 192.641 172.335C189.895 173.564 186.828 174.589 183.82 174.033C181.688 173.594 179.497 171.984 179.527 169.818C179.731 167.3 182.506 165.837 184.988 165.368Z" fill="white"/>
<path d="M205.697 178.277C205.609 177.341 204.85 171.486 199.417 165.339C197.11 162.763 194.598 160.363 191.911 158.197C190.48 156.967 189.195 155.913 188.26 154.83C188.523 154.538 188.552 154.099 188.348 153.777C187.822 153.103 187.18 152.547 186.449 152.108C186.333 151.728 186.187 151.347 186.07 150.966C185.982 150.791 185.924 150.615 185.895 150.41C186.011 150.41 186.099 150.381 186.187 150.322C186.596 150.147 186.8 149.678 186.625 149.269C186.625 149.239 186.596 149.239 186.596 149.21C186.128 148.303 185.486 147.512 184.639 146.927C184.434 146.254 184.201 145.58 183.996 144.966C184.025 144.966 184.025 144.936 184.084 144.936C184.463 144.673 184.551 144.146 184.288 143.766L184.259 143.736C183.967 143.385 183.646 143.063 183.295 142.8C183.12 142.214 182.915 141.658 182.74 141.131C180.929 135.54 180.228 133.403 178.797 132.467C177.074 131.325 174.27 131.442 172.226 131.91L169.772 126.261C169.743 126.202 169.685 126.144 169.655 126.085C169.539 125.968 166.18 123.158 160.28 124.797C153.037 126.846 152.219 130.359 152.19 130.476V130.652L153.124 139.258C152.277 139.989 150.613 142.624 150.7 152.606C150.204 153.806 147.225 160.773 148.072 163.261C148.364 164.958 151.518 166.246 155.11 167.681C156.6 168.266 158.09 168.881 159.345 169.496C160.309 170.081 161.156 170.842 161.857 171.75C162.529 172.803 163.142 173.886 163.668 175.028C164.719 177.106 166.034 179.624 167.903 181.995C168.283 182.492 168.662 183.019 169.101 183.517C170.298 184.805 171.7 185.888 173.248 186.708C175.409 187.966 177.804 188.815 180.287 189.225H180.316C180.637 189.313 180.959 189.371 181.28 189.401H181.397C184.142 189.84 186.917 190.045 189.691 190.074C201.082 190.074 204.85 185.742 205.609 184.688C207.508 182.112 205.989 178.892 205.697 178.277ZM185.106 151.318C185.135 151.406 185.135 151.435 185.194 151.523C183.675 151.025 181.367 150.762 178.418 151.962C176.139 152.84 174.65 154.596 173.686 156.382C172.489 155.152 171.379 153.777 170.415 152.342C171.379 150.644 173.16 148.771 176.519 147.747C180.813 146.429 183.12 147.717 184.23 148.771C184.522 149.591 184.755 150.44 185.106 151.318ZM179.002 153.542C182.448 152.196 184.668 152.986 185.865 153.747C186.596 156.265 186.829 158.08 186.216 159.338C185.836 160.07 185.164 160.626 184.142 160.948C182.623 161.446 180.404 161.036 178.213 159.836C177.016 159.221 175.935 158.46 174.942 157.553C175.731 155.943 177.016 154.303 179.002 153.542ZM175.993 146.107C172.635 147.132 170.619 148.947 169.393 150.791C168.662 149.561 167.991 148.303 167.407 147.015C168.604 145.785 170.415 144.556 173.131 143.648C179.527 141.57 182.331 144.088 182.886 144.673C183.061 145.141 183.237 145.639 183.383 146.166C181.66 145.434 179.294 145.083 175.993 146.107ZM178.33 133.374C179.469 134.135 180.199 136.301 181.835 141.541C181.864 141.716 181.952 141.892 182.01 142.097C180.199 141.219 177.132 140.604 172.605 142.097C170.415 142.77 168.4 143.883 166.676 145.405C165.8 143.268 165.012 141.073 164.34 138.877C164.165 138.35 164.223 137.765 164.515 137.267C165.07 136.243 166.881 134.691 172.138 133.14C174.183 132.525 176.84 132.379 178.33 133.374ZM160.601 125.851C165.508 124.505 168.4 126.436 168.954 126.817L171.32 132.203C167.173 133.491 164.573 134.955 163.639 136.623C163.23 137.355 163.113 138.233 163.376 139.053L163.493 139.433C160.689 141.043 158.236 141.599 156.425 141.043C155.49 140.78 154.702 140.194 154.176 139.375L153.241 130.681C153.416 130.271 154.585 127.549 160.601 125.851ZM153.592 140.37C154.205 141.19 155.11 141.775 156.103 142.068C156.688 142.243 157.301 142.331 157.914 142.331C159.608 142.331 161.594 141.687 163.814 140.458C164.427 142.39 165.128 144.263 165.946 146.107C165.012 147.103 164.281 148.303 163.814 149.591C163.522 149.737 163.288 149.942 163.084 150.176C162.529 150.937 162.617 151.903 163.259 152.372C163.902 152.84 164.866 152.576 165.391 151.815C165.829 151.259 165.859 150.469 165.479 149.854C165.771 149.093 166.18 148.391 166.706 147.776C167.319 149.122 168.049 150.41 168.838 151.669C168.312 152.694 167.932 153.777 167.728 154.889C167.494 155.035 167.29 155.211 167.144 155.445C166.589 156.206 166.676 157.172 167.319 157.64C167.961 158.109 168.925 157.845 169.451 157.084C169.948 156.47 169.918 155.591 169.422 155.006C169.539 154.421 169.714 153.864 169.918 153.308C170.882 154.713 171.963 156.06 173.19 157.26C172.722 158.226 172.401 159.25 172.167 160.304C171.904 160.451 171.7 160.656 171.525 160.89C170.97 161.651 171.057 162.617 171.7 163.085C172.343 163.553 173.306 163.29 173.832 162.529C174.299 161.856 174.299 161.007 173.832 160.48C174.007 159.807 174.212 159.133 174.475 158.489C175.468 159.338 176.548 160.07 177.687 160.743C179.235 161.621 180.959 162.09 182.74 162.148C183.324 162.148 183.908 162.061 184.463 161.885C185.748 161.446 186.654 160.743 187.121 159.748C187.705 158.548 187.705 157.114 187.326 155.299C188.348 156.499 189.691 157.64 191.21 158.958C193.255 160.685 195.825 162.851 198.57 166.012C202.689 170.696 204.003 175.233 204.412 177.311C202.805 176.287 199.593 174.589 196.73 175.262C193.985 175.906 191.765 178.746 190.684 180.414C190.305 181 189.691 181.38 188.99 181.468C179.761 182.434 172.08 172.159 167.961 166.598C167.319 165.749 166.764 164.988 166.297 164.402C161.098 157.904 153.241 153.279 151.693 152.43C151.722 143.883 152.978 141.19 153.592 140.37ZM204.85 184.073C201.17 189.284 190.071 189.635 181.28 188.376C173.014 186.21 168.575 178.131 165.304 172.277C163.989 169.905 162.85 167.856 161.74 166.744C159.491 164.49 157.213 163.934 155.227 163.436C153.796 163.085 152.569 162.792 151.547 161.943C150.262 160.919 150.817 156.499 151.547 153.542C153.621 154.743 160.747 159.075 165.537 165.105C166.005 165.69 166.56 166.422 167.202 167.271C171.233 172.716 178.564 182.61 187.793 182.61C188.26 182.61 188.669 182.58 189.137 182.522C190.13 182.405 191.035 181.848 191.59 181C192.554 179.477 194.598 176.843 197.022 176.316C200.206 175.584 204.149 178.365 204.762 178.833C205.025 179.302 206.281 182.024 204.85 184.073Z" fill="#553597"/>
<path d="M85.3934 117.83C86.6201 118.972 88.6061 118.884 90.1249 118.181C90.6506 117.947 91.1472 117.596 91.5268 117.157C93.2208 115.254 92.0818 112.912 90.8551 111.215C89.8913 109.897 89.9205 109.487 90.3586 107.848C90.4754 107.38 91.0011 106.355 90.5338 105.858C88.8398 104.131 85.1597 107.146 84.2543 110.395C83.8454 112.268 83.6994 116.249 85.3934 117.83Z" fill="#EDE3FF"/>
<path d="M93.6296 110.131C93.9217 110.249 94.243 110.307 94.5643 110.336C94.9439 110.366 95.3528 110.278 95.7033 110.131C96.1414 109.956 96.4919 109.575 96.6379 109.107C96.6672 108.902 96.6964 108.697 96.6672 108.463C96.6964 108.053 96.6379 107.643 96.5503 107.234C95.2652 104.189 90.0372 108.551 93.6296 110.131Z" fill="#EDE3FF"/>
<path d="M148.275 121.138C146.698 117.567 150.992 113.44 148.275 110.191C147.078 108.639 144.858 108.376 143.339 109.576C143.252 109.664 143.164 109.722 143.077 109.81C139.689 112.854 140.156 120.172 142.609 123.568C143.661 125.061 145.647 126.583 147.604 126.085C150.641 125.295 149.093 122.953 148.275 121.138Z" fill="#EDE3FF"/>
<path d="M152.189 115.137C151.605 115.986 151.05 116.864 150.846 117.86C150.758 118.299 150.729 118.738 150.758 119.177C150.787 119.762 150.992 120.318 151.342 120.787C151.985 121.606 153.124 122.016 154.058 121.606C155.957 120.728 156.483 117.742 156.044 115.869C155.519 113.615 153.62 113.147 152.189 115.137Z" fill="#EDE3FF"/>
</g>
<mask id="mask3_3733_94376" style="mask-type:luminance" maskUnits="userSpaceOnUse" x="54" y="94" width="14" height="18">
<path d="M67.8192 94.2588H54.8652V111.345H67.8192V94.2588Z" fill="white"/>
</mask>
<g mask="url(#mask3_3733_94376)">
<path d="M58.8291 96.8349C59.5545 95.3628 61.3163 95.2051 61.8344 97.4395C62.3526 99.6739 61.1608 101.014 61.1608 101.014L59.7359 102.618C58.6477 101.409 58.0778 98.3069 58.8291 96.8349Z" fill="white"/>
<path d="M59.7359 102.618C58.7255 104.695 58.8809 106.824 59.7359 107.481C60.6686 108.191 62.8189 107.297 64.2957 105.667C65.7984 104.038 65.2543 101.935 64.0366 101.094C62.8189 100.252 60.6945 100.62 59.7359 102.618Z" fill="#EDE3FF"/>
<path d="M66.9127 98.4125C66.7832 97.9131 66.4204 97.4925 65.9541 97.3085C65.4618 97.1507 64.9437 97.2296 64.5292 97.545C64.0628 97.8605 63.726 98.3336 63.5706 98.8857C63.3892 99.3851 63.3633 99.9371 63.4928 100.463C62.9747 100.331 62.4306 100.305 61.9124 100.437C62.3529 99.4903 62.4306 98.4125 62.1715 97.3873C61.9124 96.257 61.2907 95.5472 60.5134 95.4421C59.7621 95.3632 59.0108 95.8364 58.5962 96.7039C58.3371 97.3347 58.2076 97.9919 58.2335 98.6754C57.7931 98.2548 57.1972 97.9393 56.6013 98.2548C56.1609 98.5439 55.85 99.0171 55.7723 99.5428C55.565 100.699 55.85 101.882 56.5495 102.802C57.1195 103.591 57.9226 104.196 58.8553 104.485C58.7258 105.116 58.7258 105.773 58.8553 106.404C58.2335 107.455 58.0003 108.691 58.2335 109.9C58.2594 110.058 58.389 110.163 58.5444 110.163C58.6999 110.163 58.8035 110.058 58.8553 109.926C58.9589 109.479 59.3994 108.217 59.9693 107.981C60.1766 108.06 60.4098 108.086 60.643 108.086C61.8606 108.086 63.4928 107.14 64.6069 105.931C65.3323 105.168 65.695 104.143 65.5914 103.092C65.5396 102.618 65.3841 102.145 65.125 101.751C65.41 101.725 65.695 101.619 65.9282 101.435C66.3945 101.12 66.7313 100.647 66.8868 100.095C67.0163 99.5691 67.0422 98.9908 66.9127 98.4125ZM63.8815 101.357C64.4514 101.777 64.8141 102.408 64.8919 103.118C64.9178 103.433 64.9178 103.749 64.8401 104.038C63.2078 103.039 62.4565 101.882 62.1197 101.041C62.7156 100.91 63.3374 101.015 63.8815 101.357ZM59.1144 96.9667C59.4253 96.3621 59.9175 95.9941 60.4098 96.073C60.9279 96.1256 61.3425 96.6513 61.5238 97.5188C61.9902 99.5428 60.9798 100.752 60.9279 100.805C60.902 100.831 60.902 100.831 60.902 100.857C60.4098 101.146 60.0212 101.567 59.7103 102.04C59.6585 101.988 59.6325 101.935 59.6066 101.856C59.4771 101.567 59.3216 101.225 59.1921 100.857C58.7517 99.5166 58.6739 97.8605 59.1144 96.9667ZM60.0471 107.297L59.9693 107.219C59.8657 107.14 59.7621 107.061 59.6844 106.956C59.3216 106.404 59.218 105.379 59.503 104.222C60.1507 105.326 61.0834 106.272 62.1715 106.929C61.2907 107.376 60.4875 107.508 60.0471 107.297ZM63.3633 106.115C61.1352 104.905 60.4098 103.328 60.1507 102.487C60.358 102.145 60.617 101.83 60.9279 101.593C61.3684 102.645 62.3011 104.064 64.2701 105.221C64.2183 105.3 64.1405 105.379 64.0887 105.457C63.8555 105.694 63.5965 105.904 63.3633 106.115Z" fill="#553597"/>
</g>
<mask id="mask4_3733_94376" style="mask-type:luminance" maskUnits="userSpaceOnUse" x="170" y="50" width="14" height="18">
<path d="M170.454 50.1602H183.408V67.7763H170.454V50.1602Z" fill="white"/>
</mask>
<g mask="url(#mask4_3733_94376)">
<path d="M179.471 52.9093C178.745 51.4146 176.984 51.2545 176.465 53.5232C175.947 55.792 177.139 57.1532 177.139 57.1532L178.564 58.7814C179.652 57.5536 180.222 54.404 179.471 52.9093Z" fill="white"/>
<path d="M178.564 58.7819C179.574 60.8905 179.419 63.0525 178.564 63.7198C177.631 64.4404 175.481 63.5329 174.004 61.8781C172.501 60.2232 173.046 58.0879 174.263 57.2338C175.481 56.3797 177.605 56.7534 178.564 58.7819Z" fill="#EDE3FF"/>
<path d="M171.387 54.5111C171.517 54.0039 171.879 53.5769 172.346 53.39C172.838 53.2299 173.356 53.31 173.771 53.6303C174.237 53.9506 174.574 54.431 174.729 54.9915C174.911 55.4986 174.937 56.0592 174.807 56.593C175.325 56.4595 175.869 56.4328 176.387 56.5663C175.947 55.6054 175.869 54.5111 176.128 53.4701C176.387 52.3224 177.009 51.6017 177.786 51.495C178.538 51.4149 179.289 51.8953 179.704 52.7761C179.963 53.4167 180.092 54.084 180.066 54.778C180.507 54.3509 181.103 54.0306 181.698 54.3509C182.139 54.6445 182.45 55.125 182.528 55.6588C182.735 56.8332 182.45 58.0343 181.75 58.9685C181.18 59.7692 180.377 60.3831 179.444 60.6767C179.574 61.3173 179.574 61.9846 179.444 62.6252C180.066 63.6928 180.299 64.9473 180.066 66.1751C180.04 66.3353 179.911 66.442 179.755 66.442C179.6 66.442 179.496 66.3353 179.444 66.2018C179.341 65.7481 178.9 64.4669 178.33 64.2267C178.123 64.3067 177.89 64.3334 177.657 64.3334C176.439 64.3334 174.807 63.3725 173.693 62.1447C172.968 61.3707 172.605 60.3297 172.708 59.2621C172.76 58.7817 172.916 58.3012 173.175 57.9009C172.89 57.8742 172.605 57.7674 172.372 57.5806C171.905 57.2603 171.568 56.7798 171.413 56.2193C171.258 55.6588 171.232 55.0716 171.387 54.5111ZM174.418 57.5005C173.848 57.9275 173.486 58.5681 173.408 59.2888C173.382 59.6091 173.382 59.9294 173.46 60.223C175.092 59.2087 175.843 58.0343 176.18 57.1802C175.558 57.0467 174.937 57.1535 174.418 57.5005ZM179.185 53.0431C178.875 52.4292 178.382 52.0555 177.89 52.1356C177.372 52.1889 176.957 52.7228 176.776 53.6036C176.31 55.6588 177.32 56.8866 177.372 56.94C177.398 56.9667 177.398 56.9667 177.398 56.9934C177.89 57.287 178.279 57.714 178.59 58.1945C178.641 58.1411 178.667 58.0877 178.693 58.0076C178.823 57.714 178.978 57.367 179.108 56.9934C179.548 55.6321 179.626 53.9506 179.185 53.0431ZM178.253 63.5327L178.33 63.4526C178.434 63.3725 178.538 63.2925 178.615 63.1857C178.978 62.6252 179.082 61.5842 178.797 60.4098C178.149 61.5309 177.216 62.4917 176.128 63.159C177.009 63.6128 177.812 63.7462 178.253 63.5327ZM174.937 62.3316C177.165 61.1038 177.89 59.5023 178.149 58.6482C177.942 58.3012 177.683 57.9809 177.372 57.7407C176.931 58.8084 175.999 60.2497 174.03 61.4241C174.082 61.5042 174.159 61.5842 174.211 61.6643C174.444 61.9045 174.703 62.1181 174.937 62.3316Z" fill="#553597"/>
</g>
<mask id="mask5_3733_94376" style="mask-type:luminance" maskUnits="userSpaceOnUse" x="77" y="183" width="33" height="37">
<path d="M98.3753 183.646L77.3506 191.95L88.1235 219.812L109.148 211.508L98.3753 183.646Z" fill="white"/>
</mask>
<g mask="url(#mask5_3733_94376)">
<path d="M88.4945 194.597C89.0775 192.505 91.3267 191.868 92.5446 194.644C93.7624 197.421 92.5418 199.456 92.5418 199.456L91.0825 201.891C89.3746 200.586 87.8779 196.695 88.4945 194.597Z" fill="white"/>
<path d="M91.0855 201.894C90.2802 204.841 91.0012 207.57 92.2712 208.214C93.6549 208.907 96.2284 207.217 97.7479 204.737C99.3011 202.25 98.0822 199.651 96.2965 198.857C94.5107 198.063 91.8428 199.063 91.0855 201.894Z" fill="#EDE3FF"/>
<path d="M99.3761 194.664C99.0861 194.047 98.5127 193.589 97.8624 193.465C97.185 193.381 96.5315 193.61 96.0703 194.122C95.5418 194.647 95.22 195.344 95.1528 196.1C95.0391 196.793 95.1401 197.517 95.4364 198.169C94.7317 198.125 94.019 198.225 93.3784 198.523C93.7194 197.185 93.5575 195.765 92.9712 194.496C92.3593 193.091 91.3791 192.322 90.3444 192.376C89.3498 192.458 88.4898 193.257 88.1632 194.487C87.9807 195.37 87.9728 196.256 88.1731 197.138C87.4988 196.699 86.6483 196.436 85.9516 196.992C85.4504 197.476 85.1622 198.167 85.1895 198.87C85.2024 200.424 85.8608 201.891 86.9932 202.915C87.9254 203.8 89.1155 204.388 90.3968 204.535C90.3824 205.386 90.5427 206.24 90.8647 207.028C90.3139 208.548 90.3124 210.21 90.9099 211.724C90.982 211.923 91.1758 212.028 91.3776 211.99C91.5794 211.952 91.6883 211.789 91.7235 211.606C91.7491 211 92.0132 209.252 92.6955 208.804C92.9838 208.856 93.2929 208.833 93.5956 208.775C95.1763 208.476 97.0645 206.845 98.2158 205C98.9717 203.831 99.1926 202.41 98.8017 201.069C98.619 200.467 98.3019 199.89 97.8694 199.441C98.2329 199.337 98.5773 199.131 98.8351 198.834C99.3636 198.31 99.6854 197.612 99.7526 196.856C99.8198 196.101 99.7125 195.343 99.3761 194.664ZM96.1589 199.235C97.0013 199.641 97.626 200.372 97.9 201.275C98.0105 201.679 98.0874 202.089 98.0571 202.483C95.6946 201.586 94.4372 200.268 93.7949 199.257C94.5636 198.9 95.4029 198.918 96.1589 199.235ZM88.9 194.701C89.1562 193.839 89.7055 193.24 90.3637 193.221C91.0492 193.162 91.7155 193.744 92.1625 194.826C93.2614 197.342 92.2445 199.162 92.1901 199.243C92.1629 199.283 92.1629 199.283 92.1693 199.318C91.6008 199.814 91.1988 200.456 90.9106 201.148C90.8305 201.092 90.784 201.03 90.7312 200.934C90.4925 200.59 90.2074 200.184 89.9495 199.738C89.0508 198.104 88.5462 195.971 88.9 194.701ZM92.6297 207.897L92.5096 207.814C92.3558 207.737 92.2021 207.66 92.0755 207.542C91.4701 206.914 91.0856 205.607 91.1735 204.034C92.2835 205.309 93.7251 206.31 95.2979 206.897C94.2633 207.694 93.2527 208.062 92.6297 207.897ZM96.6463 205.545C93.459 204.521 92.1327 202.65 91.5913 201.62C91.777 201.125 92.0365 200.651 92.3824 200.268C93.2105 201.526 94.7674 203.141 97.6056 204.161C97.5575 204.276 97.4758 204.398 97.4278 204.513C97.1828 204.877 96.8977 205.214 96.6463 205.545Z" fill="#553597"/>
</g>
<mask id="mask6_3733_94376" style="mask-type:luminance" maskUnits="userSpaceOnUse" x="171" y="211" width="23" height="30">
<path d="M171.314 211.014H193.885V240.924H171.314V211.014Z" fill="white"/>
</mask>
<g mask="url(#mask6_3733_94376)">
<path d="M185.916 218.075C184.958 216.127 182.633 215.918 181.949 218.875C181.265 221.831 182.838 223.605 182.838 223.605L184.719 225.726C186.155 224.126 186.908 220.022 185.916 218.075Z" fill="white"/>
<path d="M184.72 225.726C186.053 228.473 185.848 231.29 184.72 232.16C183.488 233.099 180.65 231.917 178.701 229.76C176.717 227.604 177.435 224.822 179.043 223.709C180.65 222.596 183.454 223.083 184.72 225.726Z" fill="#EDE3FF"/>
<path d="M175.246 220.161C175.417 219.5 175.896 218.944 176.512 218.7C177.161 218.492 177.845 218.596 178.393 219.013C179.008 219.431 179.453 220.057 179.658 220.787C179.897 221.448 179.932 222.178 179.761 222.874C180.444 222.7 181.163 222.665 181.847 222.839C181.265 221.587 181.163 220.161 181.505 218.805C181.847 217.309 182.667 216.37 183.693 216.231C184.685 216.127 185.677 216.753 186.224 217.9C186.566 218.735 186.737 219.605 186.703 220.509C187.284 219.952 188.071 219.535 188.857 219.952C189.439 220.335 189.849 220.961 189.952 221.657C190.225 223.187 189.849 224.752 188.926 225.969C188.173 227.013 187.113 227.813 185.882 228.195C186.053 229.03 186.053 229.899 185.882 230.734C186.703 232.125 187.011 233.76 186.703 235.36C186.669 235.568 186.498 235.707 186.292 235.707C186.087 235.707 185.95 235.568 185.882 235.394C185.745 234.803 185.164 233.134 184.412 232.821C184.138 232.925 183.83 232.96 183.522 232.96C181.915 232.96 179.761 231.708 178.29 230.108C177.332 229.099 176.854 227.743 176.99 226.352C177.059 225.726 177.264 225.1 177.606 224.578C177.23 224.543 176.854 224.404 176.546 224.161C175.93 223.743 175.486 223.117 175.281 222.387C175.075 221.657 175.075 220.891 175.246 220.161ZM179.248 224.056C178.495 224.613 178.016 225.448 177.914 226.387C177.88 226.804 177.88 227.221 177.982 227.604C180.137 226.282 181.128 224.752 181.573 223.639C180.786 223.465 179.932 223.604 179.248 224.056ZM185.54 218.248C185.13 217.448 184.48 216.961 183.83 217.066C183.146 217.135 182.599 217.831 182.36 218.979C181.744 221.657 183.078 223.256 183.146 223.326C183.18 223.361 183.18 223.361 183.18 223.396C183.83 223.778 184.343 224.335 184.754 224.961C184.822 224.891 184.856 224.822 184.89 224.717C185.061 224.335 185.266 223.882 185.437 223.396C186.019 221.622 186.121 219.431 185.54 218.248ZM184.309 231.917L184.412 231.812C184.548 231.708 184.685 231.603 184.788 231.464C185.266 230.734 185.403 229.378 185.027 227.847C184.172 229.308 182.941 230.56 181.505 231.43C182.667 232.021 183.728 232.195 184.309 231.917ZM179.932 230.351C182.873 228.752 183.83 226.665 184.172 225.552C183.899 225.1 183.557 224.682 183.146 224.369C182.565 225.761 181.334 227.639 178.735 229.169C178.803 229.273 178.906 229.378 178.974 229.482C179.282 229.795 179.624 230.073 179.932 230.351Z" fill="#553597"/>
</g>
<mask id="mask7_3733_94376" style="mask-type:luminance" maskUnits="userSpaceOnUse" x="13" y="48" width="67" height="74">
<path d="M79.0149 48.3301H13.1055V121.479H79.0149V48.3301Z" fill="white"/>
</mask>
<g mask="url(#mask7_3733_94376)">
<path d="M71.1056 57.1722C70.8419 56.8784 70.4611 56.7021 70.051 56.7021C68.4399 56.7021 66.448 58.8467 66.2136 59.0817V59.1111C65.95 59.4636 47.5539 82.1721 34.1377 97.3894L26.4336 99.6809C26.9902 99.0346 27.4296 98.3589 27.7811 97.5951C28.6599 95.7149 28.8942 93.9229 28.2205 93.6292C27.576 93.3354 26.3164 94.5986 25.4084 96.4787L25.2912 96.7431C25.2619 96.655 25.2326 96.5375 25.2033 96.4494C24.6467 94.4517 23.6215 92.9535 22.9184 93.1591C22.1861 93.3648 22.0982 95.1568 22.6548 97.1544C23.0942 98.6526 23.7679 99.8865 24.3538 100.298L20.9851 101.326C20.7215 101.414 20.575 101.649 20.6043 101.914C20.6629 102.207 20.9265 102.384 21.1901 102.354L31.5013 100.298C27.2245 105.116 23.6508 108.817 21.7174 110.257C21.5124 110.433 21.4538 110.756 21.6295 110.991C21.7174 111.079 23.2407 113.077 27.4589 113.077C28.2205 113.077 28.9821 113.018 29.7437 112.901C29.8902 112.871 30.0367 112.783 30.1245 112.636C30.2124 112.46 36.569 102.237 43.2186 92.8066L43.1014 103.588C43.1014 103.852 43.3064 104.087 43.5701 104.087C43.8337 104.146 44.0681 103.97 44.1266 103.706C44.1266 103.676 44.1266 103.647 44.1266 103.617L45.6499 89.3695C48.5792 85.4036 51.3913 81.8196 53.6469 79.6457C61.6439 71.8607 71.1056 60.3743 71.1935 60.2568C71.2521 60.198 71.2813 60.1099 71.2813 60.0511C71.4571 59.728 71.7793 58.0241 71.1056 57.1722Z" fill="#553597"/>
</g>
<mask id="mask8_3733_94376" style="mask-type:luminance" maskUnits="userSpaceOnUse" x="209" y="109" width="33" height="48">
<path d="M209.026 156.005H241.436V109.887H209.026V156.005Z" fill="white"/>
</mask>
<g mask="url(#mask8_3733_94376)">
<path d="M229.776 126.388C230.912 127.065 231.67 128.292 231.712 129.646C231.796 130.958 231.249 132.227 230.576 133.327C230.239 133.919 229.776 134.512 229.271 134.977C228.64 135.442 227.924 135.781 227.166 135.992C225.483 136.542 223.631 137.008 221.989 136.289C220.474 135.654 219.506 134.131 218.664 132.735C218.075 131.761 217.443 130.788 217.233 129.646C217.149 129.138 217.107 128.588 217.107 128.08C217.065 127.361 217.233 126.684 217.612 126.092C217.864 125.711 218.243 125.457 218.664 125.288C219.59 124.823 220.979 124.442 222.031 124.823C222.747 125.076 222.957 125.711 223.504 126.134C224.515 126.896 225.314 126.346 226.367 126.007C227.503 125.669 228.724 125.796 229.776 126.388Z" fill="#EDE3FF"/>
<path d="M230.282 137.896C230.829 138.827 231.208 139.842 231.376 140.9C231.544 141.958 231.165 143.058 230.324 143.777C229.229 144.539 227.714 144.2 226.62 143.523C226.325 143.354 226.072 143.143 225.82 142.889C224.852 141.789 225.062 140.096 224.557 138.742C224.305 138.192 224.094 137.642 223.926 137.092C223.673 135.865 224.305 134.638 225.441 134.131C228.219 132.904 229.313 136.077 230.282 137.896Z" fill="#FDFFFF"/>
<path d="M220.517 135.4C220.264 135.824 220.054 136.289 219.927 136.754C219.801 137.177 219.633 137.601 219.506 138.024C219.086 139.124 218.833 140.266 218.791 141.409C218.749 142.593 219.254 143.693 220.18 144.413C220.559 144.666 221.064 144.836 221.527 144.793C222.284 144.709 222.916 144.286 223.379 143.693C224.852 141.874 224.894 139.081 225.104 136.839V136.797C223.463 136.797 221.864 136.289 220.517 135.4Z" fill="#FDFFFF"/>
<path d="M233.943 126.007C233.943 124.484 232.723 123.257 231.207 123.257C229.903 123.257 228.808 124.188 228.514 125.457C227.293 125.203 226.072 125.457 225.062 126.177C223.884 124.823 222.242 124.061 220.474 123.976C219.969 123.976 219.506 124.103 219.043 124.273V124.23C218.496 123.299 218.159 122.242 218.117 121.184C218.117 120.93 217.991 120.719 217.781 120.634C217.57 120.549 217.318 120.634 217.191 120.846C217.149 120.93 216.307 122.369 217.149 125.753C216.602 126.684 216.392 127.784 216.56 128.884C216.812 131.423 217.991 133.75 219.885 135.485C218.749 137.6 217.949 140.816 218.664 142.847C219.17 144.285 220.264 145.258 221.485 145.301H221.527C222.789 145.301 223.926 144.328 224.599 142.593C224.641 142.424 224.726 142.297 224.768 142.128C225.441 143.439 226.535 144.539 227.714 144.878C227.966 144.962 228.261 145.005 228.556 145.005C229.44 144.962 230.281 144.539 230.829 143.82C233.312 140.774 230.324 136.796 229.271 135.612C230.408 134.681 231.292 133.412 231.797 132.015C232.176 130.958 232.26 129.773 232.007 128.673C233.144 128.292 233.943 127.234 233.943 126.007ZM219.759 133.835C220.937 133.285 223.926 131.635 225.146 128.25C225.441 128.927 225.567 129.646 225.609 130.365C225.609 130.408 225.609 130.45 225.652 130.492C225.652 131.042 225.609 134.216 223.463 136.204C222.032 135.823 220.727 134.977 219.759 133.835ZM218.075 128.504C218.159 128.715 218.328 128.8 218.538 128.8C218.58 128.8 218.664 128.8 218.707 128.758C218.791 128.715 220.559 128.123 221.316 126.854C221.485 126.642 221.4 126.304 221.19 126.177C221.19 126.177 221.148 126.177 221.148 126.134C220.643 125.838 220.18 125.457 219.759 125.034C220.011 124.992 220.264 124.95 220.516 124.907H220.601C221.4 124.95 222.2 125.203 222.916 125.627C222.579 128.207 220.601 130.281 218.033 130.746C217.823 130.069 217.654 129.392 217.57 128.715C217.528 128.25 217.528 127.742 217.612 127.277C217.781 127.742 217.907 128.123 218.075 128.504ZM223.631 142.212C223.126 143.524 222.368 144.243 221.527 144.243H221.485C220.685 144.243 219.969 143.566 219.633 142.508C219.127 141.027 219.59 138.277 220.727 136.119C221.611 136.712 222.579 137.093 223.631 137.262C224.305 138.827 224.305 140.647 223.631 142.212ZM230.029 143.185C229.566 143.82 228.766 144.116 228.009 143.905C226.62 143.481 225.357 141.704 225.146 139.927C225.189 139.039 225.062 138.193 224.768 137.346C226.072 137.304 227.293 136.923 228.429 136.289C229.271 137.135 232.049 140.731 230.029 143.185ZM230.871 131.677C230.408 132.946 229.608 134.089 228.556 134.935C228.682 133.75 229.019 129.181 225.736 126.98C226.199 126.642 227.924 125.627 230.155 127.404C231.165 128.25 231.46 129.9 230.871 131.677Z" fill="#553597"/>
</g>
<mask id="mask9_3733_94376" style="mask-type:luminance" maskUnits="userSpaceOnUse" x="98" y="36" width="2" height="2">
<path d="M99.0323 36.9832L98.9863 36.9561L98.9697 36.9844L99.0156 37.0116L99.0323 36.9832Z" fill="white"/>
</mask>
<g mask="url(#mask9_3733_94376)">
<path d="M98.1292 36.7435C97.9159 37.5281 98.134 38.2711 98.6165 38.403C99.099 38.535 99.663 38.0059 99.8764 37.2214C100.09 36.4368 99.8716 35.6938 99.3891 35.5619C98.9067 35.4299 98.3426 35.959 98.1292 36.7435Z" fill="white"/>
</g>
<mask id="mask10_3733_94376" style="mask-type:luminance" maskUnits="userSpaceOnUse" x="158" y="9" width="1" height="1">
<path d="M158.307 9.34571L158.297 9.31445L158.246 9.33129L158.257 9.36255L158.307 9.34571Z" fill="white"/>
</mask>
<g mask="url(#mask10_3733_94376)">
<path d="M158.041 7.88256C157.548 7.96237 157.253 8.67902 157.383 9.48324C157.512 10.2875 158.016 10.8747 158.509 10.7949C159.002 10.7151 159.297 9.99844 159.167 9.19422C159.038 8.38999 158.533 7.80274 158.041 7.88256Z" fill="white"/>
</g>
<mask id="mask11_3733_94376" style="mask-type:luminance" maskUnits="userSpaceOnUse" x="153" y="-1" width="23" height="15">
<path d="M174.944 0.136979L175.048 13.9229L153.344 13.7692L153.24 -0.0167137L174.944 0.136979Z" fill="white"/>
</mask>
<g mask="url(#mask11_3733_94376)">
<path d="M161.733 4.63322C162.088 4.25325 162.694 4.02771 163.267 4.09262C163.84 4.15753 164.341 4.4664 164.745 4.84827C164.991 5.0442 165.193 5.23513 165.342 5.50406C165.49 5.77299 165.541 6.11492 165.597 6.41535C165.694 7.14069 165.743 7.90254 165.316 8.52647C164.942 9.07241 164.195 9.36595 163.545 9.5865C163.081 9.74403 162.617 9.90156 162.123 9.92962C161.898 9.94615 161.682 9.87969 161.462 9.85473C161.158 9.77828 160.854 9.70184 160.652 9.5109C160.533 9.37145 160.42 9.1905 160.394 9.01953C160.26 8.62613 160.236 8.03525 160.459 7.6403C160.624 7.36483 160.893 7.35329 161.141 7.12931C161.536 6.79582 161.357 6.39742 161.315 5.97251C161.234 5.50111 161.378 5.01319 161.733 4.63322Z" fill="#EDE3FF"/>
<path d="M166.65 5.35652C167.109 5.24052 167.569 5.12452 168.014 5.13296C168.46 5.14139 168.965 5.40869 169.149 5.76547C169.406 6.25668 169.116 6.8539 168.761 7.23375C168.659 7.3482 168.562 7.42118 168.42 7.48916C167.894 7.80756 167.202 7.60326 166.571 7.65782C166.346 7.67434 166.068 7.76883 165.843 7.78535C165.304 7.80841 164.813 7.41668 164.687 6.94045C164.372 5.77061 165.78 5.55204 166.65 5.35652Z" fill="#FDFFFF"/>
<path d="M164.851 9.06071C165.014 9.20511 165.181 9.30804 165.392 9.41596C165.559 9.51889 165.73 9.58034 165.897 9.68326C166.32 9.8991 166.781 10.1614 167.266 10.2163C167.746 10.3127 168.294 10.2067 168.644 9.8683C168.795 9.71736 168.902 9.56142 168.925 9.35402C168.957 9.06365 168.814 8.75332 168.616 8.52096C167.985 7.77741 166.805 7.55968 165.853 7.28394C165.642 7.97413 165.308 8.56639 164.851 9.06071Z" fill="#FDFFFF"/>
<path d="M158.344 8.99554C158.397 8.91757 158.49 8.88608 158.578 8.89606C158.578 8.89606 159.014 8.98746 159.654 8.84994C159.594 8.59107 159.578 8.3372 159.601 8.1298C159.661 7.59056 160.098 6.88385 160.824 6.378C160.689 5.98471 160.657 5.47696 160.898 4.9162C160.569 4.66887 160.346 4.2656 160.441 3.81431C160.555 3.19709 161.179 2.8057 161.835 2.92206C162.227 3.00846 162.557 3.2558 162.696 3.6076C163.19 3.57955 163.803 3.69091 164.348 4.00469C164.809 4.267 165.301 4.65874 165.647 5.15995C166.496 4.75203 168.259 4.15359 169.373 5.37184C169.807 5.88303 169.918 6.48372 169.633 7.03949C169.414 7.39284 169.064 7.73122 168.64 7.93518C169.461 8.57426 169.435 9.20145 169.359 9.48682C169.245 10.104 168.612 10.5784 167.844 10.6595C167.663 10.681 167.438 10.6975 167.217 10.6725C166.38 10.5777 165.487 10.1825 164.784 9.68284C163.965 10.2202 162.86 10.5152 161.71 10.4269C161.666 10.4219 161.622 10.4169 161.578 10.4119C160.916 10.337 160.367 10.0647 160.012 9.6465C159.835 9.62653 159.654 9.64805 159.478 9.62808C158.685 9.53823 158.355 9.2909 158.316 9.24442C158.32 9.20294 158.334 9.0785 158.344 8.99554ZM163.893 4.87732C163.642 4.72293 163.383 4.6515 163.162 4.62654C162.854 4.5916 162.58 4.64461 162.385 4.79057C161.845 5.23342 161.798 5.64822 161.854 5.94857C162.264 5.86905 162.67 5.83102 163.199 5.89091C163.243 5.89591 163.288 5.9009 163.327 5.94737C164.199 6.13016 164.826 6.91519 165.201 7.54583C165.206 7.50435 165.206 7.50435 165.211 7.46287C165.399 6.18198 164.61 5.25254 163.893 4.87732ZM168.628 6.04361C167.992 5.34154 166.777 5.83396 166.167 6.10091C166.262 6.44773 166.313 6.78956 166.315 7.16787C166.54 7.15135 166.804 7.1813 167.108 7.25772C167.814 7.33759 168.526 6.95618 168.7 6.59783C168.763 6.4369 168.825 6.27597 168.628 6.04361ZM167.735 9.63897C168.053 9.59095 168.292 9.44998 168.359 9.24758C168.382 9.04017 168.189 8.76633 167.811 8.55549C167.099 8.13879 166.473 8.15187 166.111 8.19489C165.99 8.47527 165.83 8.70918 165.626 8.93809C166.329 9.43775 167.192 9.70351 167.735 9.63897ZM162.677 9.36028C162.489 8.24685 161.747 7.70072 161.197 7.42843C160.891 7.7718 160.717 8.13015 160.703 8.25459C160.8 8.18161 160.903 8.06716 160.951 8.03067C161.049 7.95769 161.186 7.93118 161.264 8.02413C161.756 8.41587 161.849 9.18248 161.888 9.22895C161.884 9.27043 161.875 9.35339 161.826 9.38988C162.134 9.42482 162.404 9.41329 162.677 9.36028Z" fill="#553597"/>
</g>
</g>
<defs>
<clipPath id="clip0_3733_94376">
<rect width="245" height="245" fill="white" transform="translate(0.5 0.5)"/>
</clipPath>
</defs>
</svg>
