<svg width="216" height="241" viewBox="0 0 216 241" fill="none" xmlns="http://www.w3.org/2000/svg">
<g clip-path="url(#clip0_3741_156483)">
<mask id="mask0_3741_156483" style="mask-type:luminance" maskUnits="userSpaceOnUse" x="17" y="1" width="183" height="224">
<path d="M199.455 1.00781H17.7383V224.255H199.455V1.00781Z" fill="white"/>
</mask>
<g mask="url(#mask0_3741_156483)">
<path d="M17.8106 116.401C16.2592 48.1441 39.8116 52.8797 44.3424 26.5894C50.2659 -7.77499 91.7801 2.42232 108.02 2.42232C157.841 2.42232 199.458 15.8666 199.454 109.543C199.45 203.623 155.199 222.282 105.414 224.174C44.8321 226.476 19.2387 179.334 17.8096 116.401H17.8106Z" fill="#EDE3FF"/>
</g>
<mask id="mask1_3741_156483" style="mask-type:luminance" maskUnits="userSpaceOnUse" x="53" y="72" width="163" height="169">
<path d="M215.127 72.873H53.4658V240.495H215.127V72.873Z" fill="white"/>
</mask>
<g mask="url(#mask1_3741_156483)">
<mask id="mask2_3741_156483" style="mask-type:luminance" maskUnits="userSpaceOnUse" x="35" y="72" width="181" height="169">
<path d="M215.501 72.873H35.6494V240.682H215.501V72.873Z" fill="white"/>
</mask>
<g mask="url(#mask2_3741_156483)">
<path d="M74.1964 161.139C74.1964 161.139 70.3867 157.193 69.729 157.989C69.0714 158.785 71.9455 161.623 71.9455 161.623C71.9455 161.623 69.2785 160.55 68.8979 161.104C68.5518 161.658 75.7207 167.196 75.7207 167.196L74.1964 161.139Z" fill="#EDE3FF"/>
<path d="M76.5166 168.339L68.8627 162.108C68.6547 161.936 68.5166 161.658 68.5166 161.416C68.5166 161.173 68.6556 160.966 68.8627 160.828C69.3478 160.551 70.2134 160.793 71.0791 161.174C69.1743 158.543 69.2433 158.197 69.2778 158.024C69.3123 157.886 69.3813 157.816 69.4858 157.747C70.6631 157.159 72.6724 159.167 73.7806 160.413L76.5166 168.339ZM73.9187 161.589C72.5679 159.894 70.8021 158.232 70.0054 158.232C70.3515 159.028 72.2564 161.694 74.3002 164.324C74.1967 163.562 74.0577 162.594 73.9196 161.589C73.9196 161.612 73.9196 161.612 73.9196 161.589H73.9187ZM69.2778 161.589L74.6808 165.985C74.6808 165.951 74.6463 165.951 74.6463 165.916C74.6463 165.882 74.6118 165.813 74.6118 165.778L74.5773 165.744C74.5773 165.709 73.2265 164.013 71.9103 162.247C69.5894 161.071 69.2088 161.382 69.2088 161.382V161.417C69.1743 161.486 69.2088 161.555 69.2778 161.589Z" fill="#553597"/>
<path d="M144.408 214.355C185.967 200.046 217.586 182.422 215.03 174.992C212.474 167.562 176.712 173.138 135.153 187.447C93.5936 201.756 61.9752 219.379 64.5309 226.809C67.0867 234.24 102.849 228.664 144.408 214.355Z" fill="#553597"/>
<path d="M75.2704 230.471C89.3666 230.471 115.237 224.795 144.503 214.722C186.894 200.115 217.995 182.635 215.329 174.915C212.662 167.197 177.371 172.562 135.014 187.134C114.892 194.057 96.4673 201.984 83.0988 209.425C75.2714 213.787 62.4224 221.851 64.1892 226.94C65.0204 229.328 68.9691 230.47 75.2723 230.47L75.2704 230.471ZM204.487 172.077C210.41 172.077 214.012 173.116 214.704 175.123C215.881 178.481 209.093 184.573 196.106 191.807C182.772 199.215 164.382 207.141 144.329 214.029C124.275 220.917 104.881 226.04 89.8153 228.394C75.1305 230.679 66.0568 230.055 64.8795 226.698C63.7023 223.341 70.4906 217.248 83.4776 210.014C96.8116 202.607 115.202 194.68 135.255 187.792C155.343 180.87 174.703 175.781 189.768 173.428C195.586 172.528 200.539 172.078 204.487 172.078V172.077Z" fill="#553597"/>
<path d="M36.0651 78.7931C37.7964 78.3087 39.8058 77.8934 42.0567 77.6162H42.0912L44.1696 77.2009L45.1743 76.9927C48.7415 75.6432 53.5213 74.2581 59.3049 73.6002C64.4999 73.0122 69.1063 73.1848 72.708 73.5656C79.9468 74.6735 91.3405 77.3035 103.67 84.3649C104.016 84.573 104.363 84.7802 104.709 84.9884C112.189 90.0768 118.563 95.3033 123.966 100.254C125.49 101.638 126.944 103.023 128.295 104.372C127.949 108.872 128.399 112.368 129.023 112.368C130.581 112.368 132.244 108.803 132.244 108.803C132.244 108.803 132.555 111.675 133.698 114.341C131.724 115.38 126.079 118.425 119.395 123.479L119.36 123.513C117.524 124.587 115.135 126.663 112.711 128.983C109.801 131.579 106.858 134.521 104.087 137.774C104.087 137.74 104.052 137.74 104.052 137.705C104.052 137.705 104.052 137.74 104.087 137.74C104.087 137.74 107.134 133.828 110.494 130.713C112.364 128.983 113.853 127.701 114.823 126.871C111.775 129.224 103.948 134.485 101.939 127.529C101.939 127.529 101.974 128.325 102.078 129.502C101.732 127.217 101.455 124.794 101.247 122.371C101.247 122.371 101.282 122.337 101.282 122.302C101.732 121.506 101.213 119.014 101.559 117.491C103.637 106.622 112.953 99.8028 108.832 96.9991C105.993 95.0952 103.395 101.222 99.931 106.068C98.6838 101.291 96.3293 98.2451 96.3293 98.2451C92.6931 94.23 84.2425 86.2343 70.735 83.7069C66.7518 82.9454 63.1156 82.8763 59.999 83.0835C58.7172 84.6066 56.7434 86.6142 53.9383 88.4136C50.1976 90.7674 46.5959 91.6671 44.3795 92.0134C44.483 92.0479 44.5875 92.0824 44.6911 92.117C44.6911 92.117 44.7256 92.117 44.7256 92.1515C45.5222 92.4287 46.3879 92.6014 47.081 93.0857C47.15 93.1203 47.22 93.1893 47.2545 93.2584C47.497 93.4311 47.6351 93.5701 47.5661 93.6737C47.22 94.3317 40.1547 93.9855 39.6351 92.4968C39.566 92.3242 39.5315 92.1851 39.5315 92.0124C39.497 91.9434 39.497 91.8743 39.497 91.8043C39.4625 91.2163 39.8776 90.6965 40.2937 90.2466C40.4672 90.0385 40.6743 89.7622 40.5362 89.5541C40.5362 89.5196 40.5017 89.5196 40.4672 89.485C40.1211 89.3469 39.9131 89.1733 39.8095 88.9661C39.775 88.8971 39.775 88.828 39.7405 88.7235C39.7405 88.6889 39.7405 88.6544 39.706 88.6199V88.4117C39.6715 87.8238 40.0175 87.3384 40.3291 87.0622C40.3636 87.0276 40.3981 86.9931 40.4327 86.9586C40.4672 86.8895 40.5362 86.8204 40.5716 86.7505C40.6062 86.6469 40.5716 86.5423 40.4681 86.4387C39.775 86.1961 39.2563 85.7462 39.0483 85.0546C38.8748 84.5012 38.9793 83.9813 39.1873 83.5315C39.1873 83.5085 39.1988 83.4854 39.2218 83.4624V83.4279C39.4298 83.0126 39.8104 82.7008 40.192 82.3891C40.7461 81.9393 41.3347 81.5239 41.9933 81.2813C42.1668 81.2122 42.3394 81.1777 42.5129 81.1431C41.3356 81.1777 39.7769 81.1777 38.5996 81.005C36.4522 80.6933 36.0716 78.8939 36.0371 78.7893H36.0716L36.0651 78.7931ZM115.965 125.937C115.861 126.041 115.445 126.353 114.856 126.871C115.411 126.387 115.827 126.041 115.965 125.937Z" fill="#EDE3FF"/>
<path d="M128.501 103.749C128.986 97.4492 131.029 89.1764 136.294 85.9229C138.753 88.761 142.597 86.4072 142.597 86.4072C143.325 91.0458 147.723 90.6305 147.723 90.6305C147.723 90.6305 148.243 95.926 150.633 96.515C151.915 96.8267 152.503 96.4459 152.78 95.996C152.988 95.6498 153.057 95.2345 152.919 94.8537C151.742 90.665 153.127 88.0695 154.79 88.4848C156.521 88.9346 157.422 91.392 157.18 93.9885C156.972 96.6195 154.617 97.2075 154.617 97.2075L160.228 110.395H160.263L167.085 126.352C167.085 126.352 167.085 126.386 167.051 126.49C166.947 126.386 166.877 126.352 166.877 126.352C166.808 126.352 166.843 126.664 166.774 127.217C166.254 128.463 164.938 130.748 162.168 132.444L162.307 132.721C161.544 133.102 161.095 133.62 160.436 133.863C156.973 135.178 154.479 134.971 150.808 134.556C150.497 134.521 149.354 134.14 149.077 134.071C149.077 134.071 148.523 133.76 148.488 133.76C144.402 132.167 146.272 128.359 146.272 128.359L146.618 115.794L146.445 124.379C147.969 118.391 152.817 112.437 152.956 112.264L152.921 112.298L146.861 115.691H146.826C144.541 116.799 141.908 118.148 139.761 118.391H139.484C137.441 118.806 135.951 117.56 134.982 116.383C134.601 116.626 134.636 116.245 134.636 116.245C134.116 115.553 133.874 114.653 133.527 113.822C132.385 111.157 132.35 108.872 132.35 108.872C132.35 108.872 130.584 112.022 129.026 112.022C128.402 112.091 128.16 108.248 128.506 103.749H128.501ZM144.814 111.607C146.58 109.495 144.64 106.553 144.64 106.553C144.467 106.622 140.311 112.852 140.311 112.852C140.311 112.852 143.047 113.718 144.813 111.607H144.814ZM132.242 102.987C132.45 103.196 132.762 103.299 133.108 103.299H133.281C133.385 103.299 133.524 103.265 133.627 103.23C133.662 103.23 133.696 103.196 133.766 103.196C133.905 103.161 134.043 103.092 134.217 103.057C134.251 103.023 134.32 103.023 134.356 102.988C134.39 102.954 134.459 102.954 134.495 102.919C134.529 102.885 134.598 102.885 134.634 102.85C134.703 102.816 134.737 102.816 134.807 102.781C134.842 102.747 134.911 102.712 134.946 102.678C134.981 102.643 135.05 102.609 135.085 102.574C135.189 102.505 135.293 102.436 135.397 102.366C135.813 102.089 136.228 101.708 136.609 101.293C138.236 99.5967 138.894 97.5892 138.097 96.8276C137.301 96.066 135.327 96.8276 133.699 98.5234C133.353 98.9042 133.041 99.2505 132.799 99.6313C132.764 99.7003 132.73 99.7349 132.695 99.8039C132.661 99.873 132.626 99.9075 132.592 99.9766C132.557 100.046 132.523 100.115 132.488 100.185C132.385 100.393 132.28 100.6 132.177 100.808C132.108 100.981 132.038 101.12 132.003 101.293C132.003 101.327 131.969 101.396 131.969 101.431C131.969 101.5 131.934 101.534 131.934 101.569C131.934 101.638 131.9 101.672 131.9 101.741C131.9 101.811 131.865 101.845 131.865 101.914C131.865 102.329 131.969 102.745 132.246 102.987H132.242Z" fill="#EDE3FF"/>
<path d="M115.998 125.729C115.998 125.729 104.396 136.044 101.902 127.356C101.902 127.356 102.248 135.04 104.084 137.568C104.084 137.568 107.132 133.656 110.491 130.541C113.816 127.425 115.998 125.729 115.998 125.729H115.998Z" fill="#553597"/>
<path d="M190.704 194.957L172.383 203.402C172.383 203.402 168.296 215.725 157.455 223.963C146.615 232.201 130.199 231.44 123.238 229.674C116.276 227.909 111.324 225.762 102.527 217.87C93.7303 209.978 88.8469 195.821 88.8469 195.821C88.8469 195.821 82.7518 180.14 82.3357 174.014C82.3357 174.014 76.0325 167.783 74.9933 165.915C73.9541 164.047 73.6426 155.912 73.6426 155.912C73.6426 155.912 75.0278 156.258 76.3441 160.204C77.6603 164.15 77.6948 164.669 77.8683 164.738C78.0418 164.807 84.1715 168.511 85.7993 167.23C87.4272 165.915 88.6744 164.253 90.6828 159.234C92.7257 154.181 94.6305 155.635 94.6305 155.635C94.6305 155.635 91.8255 163.527 91.583 167.611C91.3749 171.695 91.6175 174.776 94.527 179.103C97.4365 183.429 100.345 190.629 105.298 194.61L105.714 191.598C105.714 191.598 107.202 175.502 109.661 169.479C112.12 163.457 112.432 161.103 112.432 161.103L110.389 158.437C110.389 158.437 102.215 146.703 101.073 141.304C101.073 141.304 113.194 126.905 119.359 123.269C125.524 119.634 133.698 114.374 133.698 114.374C133.698 114.374 135.776 119.116 139.586 118.389L146.063 126.869L145.959 129.466C145.959 129.466 145.994 134.035 150.496 134.519C154.998 135.004 157.25 135.35 162.306 132.824C167.363 130.297 166.462 126.905 166.67 126.905C166.878 126.905 172.454 132.686 177.788 140.092C183.122 147.499 186.55 155.08 189.286 165.257C192.022 175.434 192.715 187.41 190.706 194.956L190.704 194.957Z" fill="white"/>
<path d="M184.226 173.635C184.954 175.261 184.677 177.2 184.018 178.861C183.395 180.453 182.425 181.977 182.564 183.672C182.772 186.373 185.681 188.172 186.339 190.803C186.582 191.842 186.478 192.949 186.651 193.987C186.823 195.026 187.378 195.995 188.452 196.169C182.6 199.007 178.408 200.842 172.556 203.334C174.044 200.495 174.772 197.553 175.603 194.438C176.989 189.315 178.097 184.123 178.893 178.897C179.136 177.304 179.794 171.87 179.794 171.87C181.11 170.416 183.603 172.251 184.226 173.635Z" fill="#553597"/>
<path d="M172.555 203.714C172.589 203.714 172.658 203.714 172.694 203.68C178.789 201.083 182.91 199.249 188.59 196.48C188.729 196.411 188.798 196.272 188.798 196.134C188.764 195.996 188.659 195.857 188.521 195.857C187.482 195.684 187.136 194.576 187.032 193.953C186.963 193.503 186.929 193.053 186.893 192.569C186.859 191.981 186.824 191.357 186.685 190.769C186.374 189.488 185.543 188.38 184.78 187.341C183.88 186.165 183.049 185.022 182.945 183.673C182.841 182.461 183.361 181.319 183.915 180.107C184.088 179.761 184.261 179.38 184.4 179C184.988 177.545 185.474 175.434 184.608 173.496C184.157 172.457 182.772 171.211 181.421 171.038C180.694 170.935 180.036 171.142 179.585 171.696C179.551 171.765 179.516 171.8 179.516 171.869C179.516 171.938 178.859 177.304 178.616 178.861C177.82 184.088 176.711 189.28 175.326 194.368C175.223 194.715 175.153 195.061 175.049 195.407C174.321 198.142 173.629 200.703 172.313 203.196C172.244 203.334 172.279 203.473 172.348 203.576C172.382 203.68 172.451 203.714 172.556 203.714H172.555ZM187.585 196.238C182.529 198.661 178.65 200.391 173.317 202.676C174.39 200.391 175.014 198.072 175.707 195.614C175.81 195.268 175.88 194.922 175.984 194.576C177.369 189.487 178.477 184.226 179.274 179C179.482 177.545 180.071 172.873 180.14 172.077C180.451 171.765 180.833 171.662 181.282 171.731C182.321 171.904 183.533 172.942 183.915 173.808C184.677 175.538 184.226 177.442 183.707 178.758C183.568 179.104 183.395 179.485 183.256 179.831C182.702 181.077 182.113 182.323 182.251 183.743C182.39 185.3 183.325 186.546 184.225 187.758C184.988 188.762 185.75 189.765 186.027 190.908C186.166 191.461 186.2 192.015 186.2 192.569C186.235 193.053 186.235 193.573 186.339 194.058C186.478 195.096 186.928 195.822 187.586 196.239L187.585 196.238Z" fill="#553597"/>
<path d="M181.006 145.909C177.404 148.091 175.88 157.401 172.694 155.601C169.231 153.628 174.842 149.82 175.776 141.063C175.95 139.817 175.326 138.294 175.603 137.601C176.053 136.597 181.006 145.909 181.006 145.909V145.909Z" fill="#553597"/>
<path d="M123.03 144.559C123.03 144.559 113.471 156.916 106.891 153.143C106.891 153.143 111.67 160.274 112.466 161.139C112.432 161.139 119.67 146.774 123.03 144.559Z" fill="#553597"/>
<path d="M133.177 187.411C133.177 187.411 142.597 192.741 150.943 194.542C159.29 196.342 167.776 197.622 174.737 197.138C174.737 197.138 168.433 215.691 159.29 222.579C150.146 229.467 134.007 234.936 116.205 227.356C98.4041 219.775 90.9227 200.876 90.9227 200.876C90.9227 200.876 82.6111 179.623 82.2986 174.05C82.2986 174.05 75.9264 167.681 74.9562 165.951L73.6055 155.947C73.6055 155.947 75.8564 157.159 77.8303 164.774C77.8303 164.774 83.7529 168.651 85.7613 167.266C87.7697 165.881 90.1596 160.204 90.1596 160.204C90.1596 160.204 92.6186 153.455 94.5925 155.67C94.5925 155.67 91.4404 164.739 91.5449 167.646C91.6494 170.554 90.7138 174.465 96.3248 182.288C101.936 190.146 104.913 196.757 113.815 201.499C122.716 206.241 128.014 202.434 129.331 201.396C130.75 200.322 133.625 194.681 133.175 187.412L133.177 187.411Z" fill="#EDE3FF"/>
<path d="M99.791 106.103C103.289 101.257 105.956 94.9227 108.83 96.8612C112.986 99.6648 103.635 106.484 101.557 117.353C101.211 118.876 101.73 121.368 101.28 122.164C100.899 122.857 100.691 117.595 100.587 112.437C100.552 109.218 99.79 106.103 99.79 106.103H99.791Z" fill="#553597"/>
<path d="M159.325 222.579C156.866 224.414 153.922 226.179 150.598 227.598C157.628 219.499 157.628 208.457 162.269 210.049C165.282 211.088 162.546 216.211 160.676 221.472C160.191 221.853 159.776 222.233 159.325 222.58V222.579Z" fill="#553597"/>
<path d="M166.875 127.217C166.909 127.217 166.978 127.217 167.014 127.182C167.187 127.113 167.256 126.905 167.187 126.733L154.719 97.5872C154.65 97.4146 154.442 97.3446 154.268 97.4146C154.095 97.4846 154.026 97.6918 154.095 97.8644L166.563 127.01C166.632 127.148 166.737 127.218 166.875 127.218V127.217Z" fill="#553597"/>
<path d="M190.704 195.303C190.877 195.303 191.015 195.199 191.05 195.026C194.859 174.915 188.14 157.4 181.837 146.22C175.014 134.14 167.187 126.698 167.118 126.594C166.979 126.456 166.772 126.456 166.633 126.594C166.494 126.732 166.494 126.94 166.633 127.078C166.702 127.147 174.495 134.555 181.248 146.531C187.482 157.608 194.132 174.949 190.357 194.852C190.322 195.025 190.46 195.233 190.634 195.268C190.668 195.302 190.703 195.302 190.703 195.302L190.704 195.303Z" fill="#553597"/>
<path d="M153.819 135.387C154.2 135.387 154.581 135.387 154.996 135.352C165.04 134.799 167.188 127.045 167.222 126.976C167.257 126.803 167.153 126.595 166.98 126.561C166.806 126.526 166.599 126.63 166.564 126.803C166.495 127.115 164.485 134.142 154.961 134.661C151.497 134.869 149.004 134.176 147.619 132.653C146.13 131.026 146.407 128.95 146.407 128.95V128.915L146.753 116.35C146.753 116.142 146.614 116.004 146.407 116.004C146.233 116.004 146.061 116.142 146.061 116.35L145.715 128.915C145.68 129.192 145.438 131.373 147.1 133.173C148.451 134.627 150.736 135.389 153.819 135.389V135.387Z" fill="#553597"/>
<path d="M138.752 118.875C144.051 118.875 152.571 113.268 152.952 113.025C153.125 112.921 153.16 112.713 153.056 112.541C152.951 112.368 152.744 112.332 152.57 112.437C152.467 112.506 143.843 118.183 138.786 118.183H138.647C133.763 118.08 132.655 108.699 132.621 108.595C132.586 108.457 132.482 108.318 132.344 108.284C132.205 108.249 132.032 108.353 131.963 108.492C131.374 109.772 130.058 111.78 129.124 111.849C128.673 111.33 128.223 107.245 128.881 102.053C129.47 97.3454 131.34 89.0035 137.089 86.2343C137.263 86.1653 137.332 85.9572 137.263 85.7845C137.194 85.6118 136.985 85.5418 136.812 85.6118C127.807 89.9732 127.288 107.315 128.188 111.296C128.327 111.883 128.534 112.541 129.054 112.541C130.265 112.541 131.443 110.846 132.101 109.738C132.552 112.334 134.144 118.807 138.612 118.876C138.647 118.876 138.681 118.876 138.75 118.876L138.752 118.875Z" fill="#553597"/>
<path d="M154.407 97.726C154.407 97.726 156.763 97.1026 156.97 94.507C157.178 91.876 156.312 89.4532 154.58 89.0033C152.883 88.5535 151.532 91.149 152.71 95.3377C152.813 95.7185 152.779 96.1338 152.571 96.48C152.294 96.9299 151.705 97.3107 150.423 96.999C148.033 96.3755 147.514 91.1145 147.514 91.1145C147.514 91.1145 143.115 91.4953 142.388 86.8913C142.388 86.8913 138.474 89.2796 136.05 86.3378C133.591 83.396 136.224 76.6809 142.492 75.2613C149.315 73.7382 156.069 74.9151 160.71 78.5494C165.316 82.1491 166.044 86.1642 162.441 88.6216C162.441 88.6216 168.848 92.6712 170.303 97.8632C171.723 102.986 165.489 102.294 165.489 102.294C165.489 102.294 169.887 105.132 167.948 107.97C166.008 110.808 162.267 108.801 162.267 108.801C162.267 108.801 162.198 110.912 160.051 110.912L154.406 97.7242L154.407 97.726Z" fill="#553597"/>
<path d="M160.017 111.26C161.645 111.26 162.338 110.152 162.511 109.322C163.619 109.772 166.494 110.637 168.191 108.179C168.676 107.452 168.848 106.691 168.676 105.86C168.399 104.51 167.325 103.368 166.494 102.71C167.568 102.676 169.161 102.433 170.096 101.361C170.823 100.495 170.996 99.3185 170.546 97.7953C169.264 93.2613 164.451 89.6606 162.961 88.6573C164.243 87.6531 164.935 86.4071 165.004 84.9885C165.073 82.8428 163.619 80.4545 160.848 78.3079C156.242 74.6045 149.35 73.3576 142.423 74.9153C138.371 75.815 136.016 78.7577 135.184 81.1806C134.491 83.2227 134.699 85.2302 135.773 86.5107C137.886 89.0372 141.002 87.8948 142.145 87.3759C142.976 91.0447 146.163 91.4255 147.202 91.4255C147.341 92.637 148.068 96.7211 150.318 97.31C151.807 97.6908 152.535 97.1719 152.846 96.652C153.089 96.2367 153.193 95.7178 153.055 95.2325C152.223 92.2552 152.743 90.3522 153.435 89.6252C153.747 89.3134 154.093 89.2098 154.509 89.3134C155.963 89.6942 156.864 91.8399 156.656 94.4709C156.448 96.7902 154.44 97.3782 154.335 97.3782C154.232 97.4127 154.162 97.4818 154.127 97.5508C154.093 97.6544 154.093 97.7589 154.127 97.828L159.738 111.016C159.773 111.154 159.876 111.258 160.015 111.258L160.017 111.26ZM162.268 108.457C162.199 108.457 162.165 108.457 162.095 108.491C161.991 108.56 161.921 108.664 161.921 108.768C161.921 108.941 161.818 110.395 160.259 110.533L154.856 97.8989C155.583 97.5872 157.107 96.653 157.315 94.5064C157.557 91.5291 156.484 89.1062 154.648 88.6219C154.025 88.4492 153.401 88.6564 152.916 89.1408C152.051 90.0405 151.462 92.118 152.362 95.4061C152.431 95.7178 152.397 96.0295 152.259 96.2712C151.982 96.7211 151.359 96.8592 150.493 96.652C148.727 96.2022 147.999 92.4634 147.86 91.0447C147.826 90.8721 147.687 90.733 147.48 90.733C147.306 90.733 143.393 91.0447 142.735 86.787C142.701 86.6834 142.632 86.5788 142.527 86.5098C142.424 86.4753 142.285 86.4753 142.216 86.5443C142.077 86.6479 138.545 88.7255 136.328 86.0599C135.428 84.9521 135.254 83.2217 135.877 81.3869C136.639 79.1021 138.821 76.4021 142.596 75.5369C149.316 74.0483 155.999 75.2252 160.502 78.7559C163.065 80.7634 164.45 82.9446 164.381 84.8476C164.347 86.1626 163.584 87.3395 162.234 88.2401C162.13 88.3092 162.095 88.4128 162.095 88.5173C162.095 88.6219 162.164 88.7255 162.268 88.7945C162.337 88.8291 168.571 92.8441 169.957 97.8289C170.303 99.1094 170.199 100.079 169.645 100.736C168.433 102.156 165.593 101.844 165.558 101.844C165.385 101.809 165.247 101.913 165.178 102.087C165.109 102.225 165.178 102.398 165.317 102.502C165.351 102.502 167.707 104.06 168.053 105.895C168.192 106.553 168.053 107.141 167.672 107.695C165.941 110.256 162.581 108.491 162.443 108.422C162.374 108.457 162.305 108.457 162.269 108.457H162.268Z" fill="#553597"/>
<path d="M155.862 92.9503C155.896 92.9503 155.965 92.9503 156.001 92.9158C156.174 92.8467 156.243 92.6386 156.174 92.4659C155.378 90.701 153.923 90.4929 153.265 90.6656C153.091 90.7001 152.953 90.9082 152.988 91.0809C153.022 91.2536 153.23 91.3926 153.404 91.3581C153.473 91.3581 154.789 91.0809 155.551 92.7777C155.586 92.8813 155.725 92.9503 155.863 92.9503H155.862Z" fill="#553597"/>
<path d="M154.372 94.6461C154.546 94.6461 154.719 94.508 154.719 94.2999L154.822 91.15C154.822 90.9418 154.683 90.8037 154.476 90.8037C154.269 90.8037 154.13 90.9418 154.13 91.15L154.026 94.2999C154.026 94.4725 154.165 94.6116 154.372 94.6461Z" fill="#553597"/>
<path d="M136.437 101.703C138.06 100 138.724 97.9991 137.921 97.2339C137.119 96.4686 135.153 97.2289 133.531 98.932C131.909 100.635 131.244 102.636 132.047 103.401C132.85 104.166 134.815 103.406 136.437 101.703Z" fill="white"/>
<path d="M132.9 104.061C133.246 104.061 133.627 103.992 134.077 103.819C134.943 103.472 135.878 102.814 136.71 101.949C137.541 101.084 138.129 100.114 138.441 99.2146C138.752 98.2458 138.683 97.4497 138.164 96.9644C137.194 96.0647 135.047 96.7917 133.28 98.6947C132.449 99.5599 131.861 100.53 131.549 101.429C131.237 102.398 131.307 103.194 131.826 103.68C132.069 103.922 132.449 104.06 132.9 104.06V104.061ZM137.056 97.277C137.333 97.277 137.541 97.3461 137.679 97.4852C137.956 97.7624 137.99 98.3158 137.748 99.0083C137.471 99.8044 136.917 100.67 136.154 101.466C135.392 102.262 134.561 102.85 133.765 103.162C133.071 103.439 132.517 103.439 132.24 103.162C131.963 102.884 131.929 102.331 132.171 101.638C132.448 100.842 133.002 99.9771 133.73 99.181C134.977 97.935 136.258 97.277 137.055 97.277H137.056Z" fill="#553597"/>
<path d="M144.433 106.968C144.259 107.037 140.104 113.268 140.104 113.268C140.104 113.268 142.84 114.167 144.605 112.056C146.407 109.91 144.432 106.968 144.432 106.968H144.433Z" fill="white"/>
<path d="M141.488 113.787C142.493 113.787 143.844 113.509 144.882 112.263C146.821 109.979 144.813 106.933 144.743 106.794C144.673 106.655 144.5 106.622 144.327 106.656C144.188 106.691 144.05 106.76 139.79 113.094C139.721 113.198 139.721 113.302 139.755 113.406C139.79 113.509 139.859 113.578 139.963 113.614C140.032 113.579 140.656 113.787 141.487 113.787H141.488ZM144.398 107.556C144.814 108.386 145.575 110.325 144.363 111.779C143.152 113.199 141.488 113.129 140.693 112.99C141.94 111.121 143.706 108.526 144.399 107.556H144.398Z" fill="#553597"/>
<path d="M135.428 102.434L135.22 102.78C133.938 103.714 132.658 103.992 132.034 103.438C131.41 102.85 131.687 101.465 132.622 100.081C132.899 100.081 135.012 100.289 135.427 102.435L135.428 102.434Z" fill="#553597"/>
<path d="M105.575 195.269C105.748 195.269 105.921 195.13 105.921 194.922C106.925 166.123 117.8 149.786 126.735 141.167C136.433 131.82 146.026 129.225 146.13 129.225C146.303 129.19 146.441 128.982 146.372 128.81C146.338 128.637 146.13 128.498 145.956 128.567C145.853 128.601 136.12 131.198 126.285 140.648C120.535 146.186 115.86 153.005 112.396 160.828C108.067 170.624 105.677 182.081 105.228 194.922C105.228 195.095 105.401 195.269 105.574 195.269H105.575Z" fill="#553597"/>
<path d="M133.523 231.371C139.895 231.371 146.372 229.986 152.572 227.147C167.326 220.363 176.607 201.775 180.175 171.938C180.209 171.766 180.071 171.592 179.863 171.558C179.689 171.523 179.517 171.661 179.482 171.869C175.95 201.465 166.807 219.844 152.295 226.525C133.212 235.317 111.254 229.847 98.8206 213.233C86.2142 196.375 82.7506 174.222 82.7161 173.981C82.7161 173.911 82.6816 173.842 82.6125 173.772C79.8765 171.107 75.7207 166.78 75.3392 165.811C74.9586 164.773 74.369 159.408 74.0575 156.327C75.1312 157.158 76.759 161.9 77.5556 164.843C77.5901 164.912 77.6246 164.981 77.6946 165.051C77.9026 165.189 83.0631 168.547 85.6256 167.751C87.5995 167.163 89.6779 162.662 91.4437 158.509C91.7208 157.817 91.9978 157.229 92.1713 156.882C92.76 155.636 93.7301 155.705 94.2143 155.809C93.4176 157.886 89.5043 168.512 91.9633 174.708C93.3831 178.205 97.4354 185.82 102.838 192.362C107.583 198.073 114.925 204.788 122.856 204.166C133.904 203.266 133.697 193.089 133.489 180.212C133.42 175.608 133.315 170.832 133.697 165.951C135.186 147.641 149.108 137.776 149.247 137.672C149.421 137.568 149.455 137.36 149.351 137.188C149.246 137.015 149.039 136.98 148.866 137.084C148.727 137.188 134.527 147.226 133.004 165.883C132.623 170.798 132.692 175.575 132.796 180.213C133.038 192.744 133.212 202.609 122.821 203.439C107.928 204.651 94.6294 179.452 92.62 174.433C90.0221 167.961 94.9409 155.845 94.9755 155.742C95.0445 155.569 94.9755 155.361 94.802 155.292C94.0398 154.946 92.412 154.739 91.5118 156.572C91.3383 156.953 91.0958 157.507 90.7842 158.234C89.537 161.141 87.2515 166.507 85.4157 167.06C83.5799 167.613 79.6666 165.468 78.1769 164.499C77.8308 163.219 75.856 156.434 74.2291 155.604C73.9175 155.466 73.675 155.5 73.536 155.569C73.397 155.638 73.2935 155.777 73.328 155.915C73.3625 156.262 74.1591 164.569 74.6787 166.023C75.1983 167.407 81.0164 173.188 82.0211 174.158C82.2982 175.923 86.0043 197.211 98.2647 213.584C106.819 225.144 119.91 231.375 133.521 231.375L133.523 231.371Z" fill="#553597"/>
<path d="M173.179 189.211C175.534 189.211 176.885 189.073 176.92 189.073C177.093 189.038 177.231 188.9 177.231 188.692C177.197 188.519 177.058 188.38 176.851 188.38C176.643 188.415 156.556 190.319 133.247 178.861C133.073 178.792 132.866 178.861 132.796 179.034C132.726 179.207 132.796 179.415 132.97 179.484C150.494 188.103 166.253 189.211 173.179 189.211Z" fill="#553597"/>
<path d="M172.486 197.519C173.802 197.519 174.564 197.484 174.599 197.484C174.807 197.484 174.945 197.312 174.91 197.104C174.91 196.895 174.737 196.757 174.53 196.792C174.287 196.792 150.875 197.9 133.35 187.135C133.177 187.031 132.97 187.1 132.865 187.238C132.762 187.411 132.831 187.619 132.969 187.723C147.619 196.688 166.286 197.519 172.486 197.519Z" fill="#553597"/>
<path d="M146.06 127.217C146.129 127.217 146.199 127.183 146.268 127.148C146.407 127.044 146.442 126.802 146.337 126.664L139.895 118.218C139.792 118.08 139.549 118.046 139.41 118.149C139.271 118.253 139.237 118.495 139.341 118.633L145.783 127.079C145.852 127.183 145.957 127.217 146.06 127.217Z" fill="#553597"/>
<path d="M112.432 161.485C112.501 161.485 112.571 161.451 112.64 161.416C112.779 161.312 112.814 161.07 112.675 160.932C105.575 152.209 101.938 142.794 101.453 141.41C114.925 123.653 133.628 114.826 133.836 114.723C134.01 114.654 134.079 114.445 134.01 114.273C133.941 114.1 133.732 114.03 133.559 114.1C133.385 114.204 114.407 123.135 100.796 141.133C100.727 141.237 100.692 141.341 100.761 141.445C100.796 141.549 104.432 151.864 112.19 161.348C112.225 161.451 112.329 161.486 112.433 161.486L112.432 161.485Z" fill="#553597"/>
<path d="M104.084 137.913C104.153 137.913 104.188 137.913 104.258 137.878C104.431 137.775 104.5 137.567 104.397 137.394C101.626 132.479 101.245 119.464 101.003 111.71V111.191C100.968 109.461 100.691 107.73 100.241 106.034C98.9936 101.257 96.6736 98.2108 96.5701 98.0727C96.4665 97.9345 96.224 97.9 96.085 98.0036C95.946 98.1072 95.9115 98.3498 96.016 98.488C96.0505 98.5225 98.3369 101.569 99.5486 106.207C99.9992 107.869 100.242 109.564 100.276 111.227V111.746C100.519 119.569 100.899 132.687 103.74 137.776C103.843 137.845 103.982 137.914 104.086 137.914L104.084 137.913Z" fill="#553597"/>
<path d="M128.12 105.307C128.189 105.307 128.294 105.272 128.328 105.238C128.467 105.1 128.502 104.892 128.363 104.753C126.978 103.092 125.627 101.534 124.172 100.046C118.458 94.0577 111.947 88.9002 104.847 84.7116C104.501 84.5034 104.154 84.2962 103.808 84.1236C94.1798 78.6199 83.7199 74.951 72.7068 73.2897C68.2049 72.8054 63.6676 72.8054 59.1647 73.3243C54.3158 73.8777 49.5714 75.0201 44.9996 76.7514L44.0649 76.924H44.0303L35.8913 78.5163C35.7178 78.5508 35.6143 78.6889 35.6143 78.8625V78.9316C35.6833 79.2778 36.2029 81.0773 38.4538 81.4235C39.701 81.5962 41.2934 81.5962 42.437 81.5617C42.8531 81.5617 43.2337 81.5271 43.5107 81.5271H43.5453C43.9958 81.4926 44.2729 81.4926 44.2729 81.4926C44.4809 81.4926 44.619 81.3199 44.5844 81.1118C44.5499 80.9037 44.4109 80.7655 44.2038 80.8001C44.2038 80.8001 43.9268 80.8346 43.4762 80.8346C43.1647 80.8346 42.7831 80.8691 42.368 80.8691C41.2598 80.9037 39.701 80.9037 38.5238 80.731C37.104 80.5229 36.5499 79.6232 36.3419 79.1043L44.0649 77.6156H44.0994L45.104 77.4075H45.1731C49.675 75.7117 54.4203 74.5693 59.1992 74.0149C63.6321 73.496 68.1349 73.496 72.5678 73.9804C83.4428 75.6417 93.8328 79.276 103.392 84.7452C103.738 84.9533 104.085 85.1605 104.431 85.3331C111.496 89.4864 117.937 94.6093 123.617 100.563C125.072 102.086 126.422 103.609 127.808 105.236C127.946 105.27 128.05 105.305 128.119 105.305L128.12 105.307Z" fill="#553597"/>
<path d="M129.402 201.361C129.818 201.014 130.372 200.253 130.961 199.11L139.377 203.264C141.282 204.198 142.044 206.517 141.108 208.421C140.173 210.325 137.852 211.087 135.948 210.151L122.995 203.748C126.493 203.54 128.641 201.983 129.402 201.36V201.361Z" fill="#553597"/>
<path d="M129.056 206.726C129.056 206.726 123.618 204.234 119.012 203.957C119.012 203.957 125.038 204.026 126.423 203.126C127.808 202.261 129.056 206.726 129.056 206.726Z" fill="#553597"/>
<path d="M104.535 149.405C104.639 149.405 104.743 149.336 104.812 149.267C104.986 149.024 121.645 124.275 140.9 120.641C141.074 120.607 141.212 120.433 141.177 120.226C141.143 120.053 140.969 119.914 140.761 119.949C121.263 123.652 104.396 148.644 104.257 148.886C104.154 149.059 104.188 149.267 104.361 149.37C104.396 149.37 104.465 149.405 104.535 149.405H104.535Z" fill="#553597"/>
<path d="M152.745 112.749C152.745 112.749 147.792 118.806 146.233 124.864L146.407 116.28L152.745 112.749Z" fill="#553597"/>
<path d="M146.234 125.21C146.407 125.21 146.545 125.106 146.58 124.933C148.104 118.979 152.987 112.991 153.022 112.922C153.126 112.784 153.126 112.61 153.022 112.472C152.918 112.334 152.745 112.299 152.571 112.403L146.234 115.968C146.13 116.037 146.06 116.141 146.06 116.28L145.887 124.865C145.887 125.037 146.026 125.176 146.198 125.211H146.233L146.234 125.21ZM151.463 113.856C150.182 115.621 147.965 118.945 146.614 122.51L146.718 116.487L151.462 113.856H151.463Z" fill="#553597"/>
<path d="M162.754 85.3694C162.927 85.3694 163.065 85.2313 163.1 85.0577C163.446 81.3198 158.771 78.9314 158.563 78.8269C158.389 78.7578 158.182 78.8269 158.112 78.965C158.043 79.1377 158.112 79.3458 158.251 79.4149C158.286 79.4494 162.718 81.6996 162.407 84.9531C162.407 85.1958 162.546 85.3685 162.753 85.3685L162.754 85.3694Z" fill="#EDE3FF"/>
<path d="M167.533 100.738C167.602 100.738 167.672 100.703 167.741 100.669C168.538 100.15 168.953 99.4574 169.058 98.6613C169.266 96.8609 167.638 95.1306 167.569 95.0615C167.43 94.9234 167.223 94.9234 167.084 95.027C166.945 95.1651 166.945 95.3732 167.049 95.5114C167.049 95.5114 168.503 97.1036 168.331 98.5922C168.262 99.2157 167.915 99.7 167.326 100.115C167.153 100.219 167.118 100.427 167.223 100.6C167.326 100.669 167.431 100.738 167.534 100.738H167.533Z" fill="#EDE3FF"/>
<path d="M186.201 197.622C186.27 197.622 186.304 197.622 186.374 197.588L190.876 195.303C191.05 195.199 191.119 194.991 191.015 194.853C190.912 194.681 190.703 194.611 190.564 194.715L186.063 197C185.889 197.103 185.82 197.312 185.924 197.45C185.958 197.553 186.063 197.622 186.201 197.622Z" fill="#553597"/>
<path d="M96.2926 98.6259C96.3617 98.6259 96.4661 98.5914 96.5352 98.5223C96.6742 98.3842 96.6742 98.176 96.5697 98.0379C92.6219 93.6075 84.0323 85.8191 70.8028 83.3617C67.2701 82.7037 63.6339 82.4965 59.9968 82.7382C59.8932 82.7382 59.8233 82.7727 59.7542 82.8763C58.0574 84.9529 56.0135 86.7188 53.7626 88.1374C50.8876 89.9377 47.7364 91.1492 44.3418 91.7026C44.1683 91.7372 44.0303 91.8753 44.0303 92.0489C44.0303 92.257 44.1693 92.3951 44.3764 92.3951H44.4454C47.909 91.8417 51.1646 90.5948 54.1077 88.7263C56.3932 87.3067 58.4371 85.5073 60.1684 83.4653C63.7011 83.2226 67.2337 83.4307 70.6619 84.0887C83.6844 86.5116 92.1695 94.1964 96.0482 98.5578C96.1173 98.5923 96.1872 98.6268 96.2908 98.6268L96.2926 98.6259Z" fill="#553597"/>
</g>
</g>
<mask id="mask3_3741_156483" style="mask-type:luminance" maskUnits="userSpaceOnUse" x="49" y="25" width="69" height="130">
<path d="M117.739 25.4609H49.3613V154.724H117.739V25.4609Z" fill="white"/>
</mask>
<g mask="url(#mask3_3741_156483)">
<path d="M49.7031 145.809C49.7031 150.543 53.5296 154.381 58.2498 154.381H108.849C113.569 154.381 117.396 150.543 117.396 145.809V137.752H49.7021V145.809H49.7031Z" fill="#EDE3FF"/>
<path d="M108.849 154.724H58.2504C53.3492 154.724 49.3613 150.725 49.3613 145.809V137.408H117.739V145.809C117.739 150.725 113.751 154.724 108.849 154.724ZM50.0451 138.094V145.809C50.0451 150.347 53.7261 154.038 58.2504 154.038H108.849C113.374 154.038 117.055 150.347 117.055 145.809V138.094H50.0451Z" fill="#553597"/>
<path d="M117.397 41.5762H49.7031V137.752H117.397V41.5762Z" fill="white"/>
<path d="M117.739 138.094H49.3613V41.2324H117.739V138.094ZM50.0451 137.408H117.055V41.9184H50.0451V137.409V137.408Z" fill="#553597"/>
<path d="M108.85 25.8037H58.2508C53.5306 25.8037 49.7041 29.6415 49.7041 34.3752V41.5757H117.397V34.3752C117.397 29.6415 113.571 25.8037 108.851 25.8037H108.85Z" fill="#EDE3FF"/>
<path d="M117.739 41.9189H49.3613V34.3759C49.3613 29.4602 53.3492 25.4609 58.2504 25.4609H108.849C113.751 25.4609 117.739 29.4602 117.739 34.3759V41.9189ZM50.0451 41.2329H117.055V34.3759C117.055 29.8381 113.374 26.1469 108.849 26.1469H58.2504C53.7261 26.1469 50.0451 29.8381 50.0451 34.3759V41.2329Z" fill="#553597"/>
</g>
<mask id="mask4_3741_156483" style="mask-type:luminance" maskUnits="userSpaceOnUse" x="44" y="44" width="13" height="34">
<path d="M56.1708 44.7803H44.2305V77.2594H56.1708V44.7803Z" fill="white"/>
</mask>
<g mask="url(#mask4_3741_156483)">
<path d="M46.1581 59.3361C45.5471 60.1892 45.4995 61.4221 45.9697 62.3703C46.0639 62.5598 46.1581 62.7026 46.1581 62.892C46.1581 63.1291 45.9697 63.3185 45.8288 63.5556C45.1702 64.4562 45.5937 65.9262 46.5807 66.4479C45.5937 66.7802 45.0294 68.0598 45.4529 69.008C45.7822 69.7668 46.534 70.1933 47.1926 70.6198C49.2141 71.8051 51.3298 72.9904 53.6329 73.038C53.7272 73.038 53.868 73.038 53.9147 72.9428C54.0089 72.8476 53.9613 72.7058 53.9147 72.6106C53.5854 71.5671 52.9744 70.6189 52.2225 69.8601C52.9744 70.002 53.7272 70.0972 54.479 70.0496C54.9025 70.0496 55.466 69.9077 55.6068 69.4802C55.701 69.148 55.466 68.7691 55.2309 68.4844C54.0555 67.062 52.7393 65.7339 51.2355 64.5962C52.035 64.6438 52.8335 64.5962 53.6329 64.501C54.1973 64.4534 54.9025 64.2164 55.0434 63.6947C55.2318 63.0311 54.5266 62.4618 53.9156 62.1304C52.5527 61.3717 49.7318 60.3758 49.1208 59.0487C48.8391 58.3851 48.9324 58.0052 48.0396 58.0528C47.381 58.1004 46.535 58.7164 46.159 59.3333L46.1581 59.3361Z" fill="#EDE3FF"/>
<path d="M49.3065 57.0126L44.6992 45.6327C44.6992 45.6327 46.2039 44.7321 47.4725 45.8222C48.7421 46.9599 49.2589 48.288 49.2589 48.288L49.3056 57.0126H49.3065Z" fill="#EDE3FF"/>
<path d="M54.619 72.8029C54.619 73.0875 54.5724 73.277 54.4306 73.4665C54.1955 73.8454 53.7254 74.4147 47.9903 71.6643C45.2636 70.2895 44.3709 69.1042 44.841 67.5866C45.2169 66.4013 46.2515 66.0224 46.2981 66.0224C46.5798 65.8805 46.8149 66.0224 46.9091 66.2595C47.0033 66.4965 46.8625 66.7812 46.6274 66.8755C46.5808 66.8755 45.9688 67.1601 45.7347 67.8713C45.5462 68.393 45.2645 69.2461 48.4138 70.8112C52.3159 72.7077 53.4437 72.8505 53.7254 72.8505C53.7254 72.4716 53.3494 71.0016 50.8578 69.5316C50.6227 69.3898 50.5761 69.1051 50.6694 68.8681C50.8102 68.631 51.0929 68.5834 51.328 68.6786C53.9604 70.1962 54.4772 71.808 54.619 72.424V72.8029Z" fill="#553597"/>
<path d="M56.1711 69.5304V69.7198C56.0769 70.0521 55.8894 70.2892 55.6068 70.431C54.3847 71.047 51.423 69.7198 50.201 69.1038C48.1795 68.108 45.6879 66.638 45.1711 65.2633C44.7009 63.9361 45.5946 62.8927 46.158 62.5604C46.3931 62.4186 46.6748 62.4652 46.8166 62.7023C46.9584 62.9394 46.9108 63.224 46.6758 63.3659C46.6291 63.4135 45.7355 64.0295 46.0648 64.9777C46.3465 65.8307 48.0862 67.0636 50.6245 68.2965C52.6926 69.2924 54.6674 69.8608 55.1842 69.6237C55.2153 69.592 55.2308 69.5602 55.2308 69.5285C55.3251 68.9592 53.1152 66.778 50.5769 64.8349C50.3885 64.693 50.3418 64.3608 50.4827 64.1713C50.6235 63.9819 50.9528 63.9343 51.1413 64.0761C52.6926 65.2614 56.1711 68.0585 56.1711 69.5285V69.5304Z" fill="#553597"/>
<path d="M55.8419 63.604C55.8419 63.7459 55.7952 63.8886 55.7476 63.9829C54.9482 65.8794 48.6963 64.3618 47.756 64.0305C46.5806 63.6516 45.8754 63.1299 45.5461 62.3711C45.2168 61.6123 45.2644 60.7117 45.7345 59.574C46.5806 57.488 49.0256 57.4404 49.1665 57.4404C49.4015 57.4404 49.6366 57.6299 49.6366 57.8669L49.7308 59.4788L49.9659 59.7158C53.1627 61.0906 55.8419 62.3235 55.8419 63.604ZM46.2523 61.4229C46.2523 61.6599 46.2989 61.897 46.3931 62.0864C46.6282 62.5606 47.145 62.9395 48.0387 63.2241C50.5769 64.0305 54.6198 64.3142 54.8549 63.6983C54.9491 63.4136 54.4314 62.7024 49.59 60.6165L49.0256 60.3794C48.8372 60.3318 48.7439 60.1424 48.7439 59.9529L48.6497 58.5305C48.0853 58.6257 47.0517 58.9571 46.5816 60.0005C46.3931 60.5698 46.2523 61.0439 46.2523 61.4229Z" fill="#553597"/>
<path d="M49.7772 57.0128C49.7772 57.2499 49.6364 57.4394 49.4013 57.487C49.1662 57.5346 48.9778 57.3918 48.8845 57.2023L44.2772 45.8225C44.183 45.5854 44.2772 45.3484 44.4656 45.2532C45.0766 44.8266 46.5813 44.4001 47.8033 45.4902C49.1196 46.6755 49.6839 48.0979 49.7306 48.1455C49.7306 48.1931 49.7772 48.2407 49.7772 48.3349V57.0119V57.0128ZM45.3117 45.8701L48.7903 54.547L48.7436 48.3835C48.6028 48.0988 48.1326 47.0563 47.1457 46.1547C46.4871 45.5854 45.7352 45.7282 45.3126 45.8701H45.3117Z" fill="#553597"/>
<path d="M49.2599 71.7591C49.2599 71.7591 52.5034 76.1213 51.6573 76.6907C50.8112 77.26 47.9437 74.7942 46.8625 73.3718C45.6405 71.76 46.5808 70.4795 46.5808 70.4795L49.2599 71.76V71.7591Z" fill="#EDE3FF"/>
<path d="M52.2684 76.3589V76.5007C52.2218 76.7854 52.08 76.9749 51.9391 77.0701C50.5287 78.0183 47.2385 74.6043 46.4857 73.656C45.0753 71.7595 46.1098 70.242 46.1564 70.1944C46.2973 70.0049 46.5324 69.9573 46.7208 70.0525L49.4475 71.333C49.4941 71.3806 49.5884 71.4282 49.6359 71.4749C50.2945 72.2813 52.2684 75.0784 52.2684 76.3589ZM51.3281 76.3113C51.3281 75.742 50.2469 73.8931 48.9307 72.0918L46.7684 71.096C46.6275 71.5225 46.58 72.2337 47.2385 73.0876C48.4606 74.6995 50.7647 76.4065 51.3281 76.3122V76.3113Z" fill="#553597"/>
</g>
<mask id="mask5_3741_156483" style="mask-type:luminance" maskUnits="userSpaceOnUse" x="136" y="100" width="18" height="15">
<path d="M153.186 100.499H136.861V114.125H153.186V100.499Z" fill="white"/>
</mask>
<g mask="url(#mask5_3741_156483)">
<path d="M148.463 101.874C146.711 99.9845 143.341 100.211 141.659 101.526C139.83 102.957 140.955 104.386 137.709 108.719C136.145 110.808 136.519 113.868 140.759 114.018C145.178 114.172 152.641 114.867 153.157 109.145C153.509 105.24 150.614 104.194 148.463 101.873V101.874Z" fill="#EDE3FF"/>
</g>
<mask id="mask6_3741_156483" style="mask-type:luminance" maskUnits="userSpaceOnUse" x="60" y="66" width="47" height="48">
<path d="M106.982 66.6465H60.1152V113.537H106.982V66.6465Z" fill="white"/>
</mask>
<g mask="url(#mask6_3741_156483)">
<path d="M83.5488 113.086C96.2411 113.086 106.53 102.791 106.53 90.0926C106.53 77.3939 96.2411 67.0996 83.5488 67.0996C70.8565 67.0996 60.5674 77.3939 60.5674 90.0926C60.5674 102.791 70.8565 113.086 83.5488 113.086Z" fill="white" stroke="#553597" stroke-miterlimit="15.11"/>
</g>
<mask id="mask7_3741_156483" style="mask-type:luminance" maskUnits="userSpaceOnUse" x="66" y="72" width="35" height="35">
<path d="M100.202 72.6328H66.4971V106.354H100.202V72.6328Z" fill="white"/>
</mask>
<g mask="url(#mask7_3741_156483)">
<path d="M99.8632 83.2325H89.6085V72.9727H77.0916V83.2325H66.8369V95.7556H77.0916V106.015H89.6085V95.7556H99.8632V83.2325Z" fill="#EDE3FF" stroke="#553597" stroke-width="0.302044" stroke-miterlimit="11.34"/>
</g>
<path d="M193.098 26.1691C191.553 25.4924 189.857 24.7467 188.94 24.3361C188.865 23.6716 188.752 23.0117 188.6 22.3584C189.363 21.9281 189.14 20.7736 188.272 20.6588L188.103 20.6364C187.949 20.1903 187.776 19.7507 187.583 19.3167L191.41 15.2802C192.05 14.6054 191.388 13.5172 190.495 13.7757L185.11 15.3362C184.865 15.0422 184.608 14.7547 184.34 14.4748C184.444 14.3292 184.575 14.1462 184.723 13.9372C185.306 13.1187 184.332 12.0958 183.487 12.6399L182.823 13.0673L182.659 12.9339L184.731 5.7502C184.999 4.82062 183.827 4.16731 183.178 4.88502L178.223 10.3626C177.41 10.0434 176.578 9.79048 175.735 9.60289C175.385 8.16559 174.439 4.47716 173.721 1.69497C173.486 0.781266 172.189 0.783133 171.955 1.69777L170.005 9.31076C169.72 9.34436 169.433 9.38543 169.15 9.43396C168.712 8.80118 167.933 7.70267 167.216 6.69564C166.704 5.97606 165.57 6.33444 165.562 7.21735L165.53 10.4671C165.185 10.6081 164.845 10.7621 164.508 10.9263C163.655 10.1069 161.704 8.26266 160.044 6.69657C159.346 6.03859 158.237 6.7647 158.56 7.66814L160.653 13.5256C160.209 13.9232 159.781 14.3488 159.372 14.8014C159.309 14.8705 159.248 14.9395 159.187 15.0095L158.215 14.7258C157.399 14.4878 156.729 15.3978 157.199 16.1062L157.737 16.9182C157.48 17.3111 157.24 17.7124 157.019 18.1212C156.903 18.3349 156.793 18.5496 156.688 18.7661L151.936 18.1408C151.017 18.0195 150.525 19.188 151.252 19.7619L155.286 22.9454C155.184 23.4644 155.107 23.987 155.053 24.5115L152.348 25.4952C151.544 25.7874 151.549 26.9269 152.355 27.2125L155.077 28.1794C155.176 29.0446 155.34 29.9033 155.57 30.747L150.818 34.5978C150.053 35.2184 150.678 36.4448 151.63 36.1881L157.197 34.6855C157.73 35.6216 158.359 36.5148 159.08 37.3538L158.169 39.1057C157.746 39.9204 158.655 40.78 159.444 40.3106C160.084 39.9307 160.692 39.5667 161.084 39.3287C161.848 39.9671 162.652 40.528 163.487 41.0105L163.361 45.8759C163.337 46.798 164.54 47.1694 165.04 46.3939L167.437 42.669C168.92 43.0806 170.446 43.2869 171.971 43.2897L174.814 49.3879C175.212 50.2428 176.487 50.0048 176.551 49.0631L176.989 42.5468C178.133 42.1977 179.246 41.7273 180.307 41.1347L181.837 42.1884C182.461 42.6186 183.307 42.1426 183.265 41.3857L183.14 39.1477C183.664 38.695 184.165 38.206 184.64 37.6796C184.878 37.4164 185.107 37.1476 185.326 36.8741L189.312 38.4281C190.177 38.765 190.934 37.7458 190.361 37.0151C189.247 35.5936 187.996 34.0005 187.492 33.364C187.645 33.0317 187.786 32.6966 187.916 32.3579C187.966 32.23 188.013 32.1003 188.059 31.9715L188.874 31.9976C189.722 32.0256 190.145 30.9794 189.515 30.4091L188.7 29.6709C188.798 29.1939 188.875 28.7133 188.93 28.2317L192.805 27.9162C193.75 27.8397 193.966 26.5517 193.097 26.171L193.098 26.1691Z" fill="white" stroke="#553597" stroke-width="0.621855" stroke-miterlimit="10"/>
<path d="M176.033 18.4359C176.033 20.1308 174.66 21.5046 172.966 21.5046C171.272 21.5046 169.898 20.1308 169.898 18.4359C169.898 16.741 171.272 15.3672 172.966 15.3672C174.66 15.3672 176.033 16.741 176.033 18.4359Z" fill="#A78ED7"/>
<path d="M168.929 38.4438C171.782 38.4438 174.095 36.1297 174.095 33.2751C174.095 30.4205 171.782 28.1064 168.929 28.1064C166.076 28.1064 163.763 30.4205 163.763 33.2751C163.763 36.1297 166.076 38.4438 168.929 38.4438Z" fill="#A78ED7"/>
<path d="M47.1931 197.694C46.3815 197.339 45.4906 196.948 45.0093 196.731C44.9701 196.382 44.9113 196.036 44.8311 195.692C45.2313 195.466 45.1147 194.86 44.6585 194.8L44.5699 194.788C44.4888 194.554 44.3983 194.323 44.2975 194.095L46.3069 191.976C46.6427 191.621 46.2947 191.05 45.8264 191.185L42.999 192.005C42.8703 191.851 42.736 191.7 42.5951 191.552C42.6501 191.476 42.7182 191.379 42.7966 191.269C43.1026 190.839 42.5914 190.302 42.1473 190.588L41.7984 190.813L41.7126 190.743L42.8003 186.971C42.9412 186.482 42.3255 186.139 41.985 186.516L39.3833 189.392C38.9561 189.225 38.5195 189.092 38.0764 188.993C37.8926 188.238 37.3954 186.301 37.0195 184.84C36.8954 184.36 36.2145 184.361 36.0923 184.841L35.068 188.838C34.9178 188.856 34.7676 188.877 34.6193 188.902C34.3898 188.57 33.9803 187.993 33.6034 187.464C33.3339 187.086 32.7396 187.275 32.735 187.739L32.7182 189.446C32.5372 189.52 32.3581 189.601 32.1809 189.687C31.7331 189.257 30.7088 188.288 29.8366 187.466C29.47 187.121 28.8879 187.503 29.0577 187.977L30.1566 191.053C29.9234 191.262 29.6986 191.485 29.4831 191.723C29.4504 191.759 29.4178 191.796 29.3861 191.832L28.8758 191.683C28.4476 191.558 28.096 192.036 28.3422 192.408L28.6249 192.835C28.4896 193.041 28.3637 193.252 28.248 193.466C28.1874 193.578 28.1295 193.691 28.0736 193.805L25.5782 193.477C25.0959 193.413 24.8366 194.026 25.2191 194.328L27.3366 195.999C27.2835 196.272 27.2424 196.546 27.2144 196.822L25.7937 197.339C25.3711 197.493 25.3739 198.09 25.7974 198.24L27.2266 198.748C27.2788 199.202 27.3646 199.653 27.4859 200.096L24.9905 202.118C24.5885 202.444 24.9168 203.088 25.4168 202.953L28.3404 202.164C28.6202 202.655 28.9504 203.124 29.3292 203.565L28.8516 204.485C28.6295 204.912 29.1072 205.364 29.5213 205.118C29.8572 204.918 30.1771 204.728 30.3824 204.602C30.7835 204.937 31.206 205.232 31.6445 205.485L31.5783 208.039C31.5661 208.523 32.1977 208.718 32.4598 208.311L33.7182 206.354C34.4971 206.571 35.2984 206.679 36.0988 206.68L37.5923 209.882C37.8012 210.331 38.471 210.206 38.5046 209.711L38.735 206.289C39.3357 206.106 39.9197 205.859 40.4775 205.548L41.2807 206.101C41.6091 206.327 42.0531 206.077 42.0307 205.68L41.9645 204.505C42.2397 204.268 42.5027 204.01 42.7527 203.734C42.8777 203.596 42.9981 203.455 43.1128 203.311L45.2061 204.127C45.6604 204.304 46.0578 203.768 45.7574 203.385C45.1716 202.638 44.5149 201.802 44.2509 201.468C44.3311 201.293 44.4057 201.118 44.4738 200.939C44.4999 200.872 44.5251 200.804 44.5494 200.737L44.9766 200.751C45.4225 200.766 45.6445 200.216 45.3134 199.916L44.8852 199.529C44.9365 199.279 44.9766 199.026 45.0065 198.773L47.041 198.607C47.5373 198.567 47.6511 197.89 47.1949 197.691L47.1931 197.694Z" fill="white" stroke="#553597" stroke-width="0.621855" stroke-miterlimit="10"/>
<path d="M38.2318 193.633C38.2318 194.524 37.5107 195.245 36.6208 195.245C35.7308 195.245 35.0098 194.524 35.0098 193.633C35.0098 192.743 35.7308 192.021 36.6208 192.021C37.5107 192.021 38.2318 192.743 38.2318 193.633Z" fill="#A78ED7"/>
<path d="M34.5008 204.14C35.999 204.14 37.2135 202.925 37.2135 201.426C37.2135 199.927 35.999 198.712 34.5008 198.712C33.0026 198.712 31.7881 199.927 31.7881 201.426C31.7881 202.925 33.0026 204.14 34.5008 204.14Z" fill="#A78ED7"/>
<path d="M183.958 79.1392L189.116 76.6846L194.032 86.4031C194.032 86.4031 194.521 91.2236 190.416 90.1503C190.416 90.1503 189.572 92.2577 188.362 89.1937C187.152 86.1296 183.958 79.1382 183.958 79.1382V79.1392Z" fill="#EDE3FF"/>
<path d="M193.245 88.0714C193.119 88.0014 193.013 87.8913 192.949 87.7504L183.931 68.0156C183.77 67.6637 183.925 67.2475 184.277 67.087C184.629 66.9264 185.045 67.0804 185.205 67.4332L194.223 87.168C194.384 87.5199 194.23 87.9361 193.877 88.0966C193.667 88.1928 193.434 88.176 193.245 88.0724V88.0714Z" fill="white"/>
<path d="M189.195 90.4737C188.531 90.105 188.003 89.5366 187.681 88.832C187.608 88.6715 179.109 69.9727 178.747 69.1765L178.59 68.8293L185.028 65.8848L185.188 66.231C185.277 66.4252 194.126 85.6895 194.2 85.8501C195.022 87.6486 194.228 89.7793 192.43 90.6015C191.56 91.0001 190.586 91.0346 189.69 90.7005C189.518 90.6361 189.353 90.5605 189.195 90.4727V90.4737ZM179.601 69.2073C180.793 71.8299 188.308 88.3653 188.376 88.5137C188.69 89.1988 189.25 89.7214 189.956 89.9846C190.663 90.2478 191.428 90.2198 192.113 89.9072C193.527 89.2604 194.151 87.5832 193.505 86.1693C193.438 86.0218 185.856 69.5153 184.652 66.8983L179.602 69.2083L179.601 69.2073Z" fill="#553597"/>
<path d="M176.849 69.6747C176.553 69.5104 176.319 69.2585 176.177 68.9467C175.811 68.1469 176.164 67.1996 176.963 66.8337L184.596 63.3422C185.396 62.9773 186.343 63.3301 186.708 64.129C187.074 64.9279 186.72 65.8762 185.922 66.242L178.288 69.7335C177.902 69.9099 177.47 69.9248 177.07 69.7764C176.994 69.7475 176.919 69.7139 176.849 69.6747ZM185.662 64.0683C185.439 63.9451 185.163 63.9246 184.914 64.0385L177.28 67.53C177.08 67.6214 176.927 67.7866 176.849 67.9957C176.772 68.2048 176.779 68.4297 176.871 68.6294C176.962 68.8301 177.128 68.9831 177.336 69.0606C177.544 69.1381 177.77 69.1306 177.969 69.0391L185.603 65.5476C186.019 65.3572 186.203 64.8644 186.012 64.4482C185.936 64.2811 185.811 64.1514 185.662 64.0683Z" fill="#553597"/>
<path d="M190.382 78.6608L187.313 80.0645L187.631 80.7596L190.7 79.356L190.382 78.6608Z" fill="#553597"/>
<path d="M187.936 73.3092L184.867 74.7129L185.185 75.4081L188.253 74.0044L187.936 73.3092Z" fill="#553597"/>
<path d="M191.713 81.5739L188.645 82.9775L188.962 83.6727L192.031 82.269L191.713 81.5739Z" fill="#553597"/>
<path d="M193.076 84.5573L190.008 85.9609L190.325 86.6561L193.394 85.2524L193.076 84.5573Z" fill="#553597"/>
<path d="M189.238 75.9485L183.493 78.5762L183.811 79.2713L189.555 76.6437L189.238 75.9485Z" fill="#553597"/>
<path d="M185.681 65.501L183.893 66.3185C183.53 66.4847 183.097 66.3232 182.931 65.9601L182.851 65.7847C182.684 65.4216 182.846 64.9886 183.209 64.8224L184.997 64.0049C185.36 63.8387 185.793 64.0002 185.959 64.3633L186.039 64.5387C186.205 64.9018 186.044 65.3348 185.681 65.501Z" fill="white"/>
<path d="M197.641 96.9111L202.563 99.81L193.162 116.077C193.162 116.077 189.445 119.184 188.034 115.181C188.034 115.181 186.81 114.029 188.669 111.31C190.527 108.591 197.641 96.9111 197.641 96.9111Z" fill="#EDE3FF"/>
<path d="M191.699 116.912C191.691 116.908 191.682 116.903 191.674 116.897C191.344 116.696 191.239 116.264 191.44 115.934L206.835 90.6564C207.037 90.326 207.471 90.2196 207.798 90.4221C208.128 90.6237 208.233 91.0549 208.032 91.3853L192.637 116.663C192.441 116.985 192.026 117.093 191.699 116.911V116.912Z" fill="white"/>
<path d="M188.918 117.177C188.874 117.152 188.831 117.127 188.788 117.101C187.971 116.603 187.397 115.816 187.171 114.885C186.945 113.955 187.095 112.992 187.593 112.174C187.685 112.023 202.817 87.2605 202.97 87.0113L203.169 86.6855L209.215 90.3712L209.017 90.6978C208.865 90.9489 193.806 115.755 193.714 115.906C193.216 116.724 192.429 117.299 191.499 117.525C190.618 117.739 189.707 117.615 188.919 117.178L188.918 117.177ZM203.423 87.7355C201.626 90.6764 188.332 112.431 188.246 112.572C187.855 113.216 187.736 113.973 187.914 114.705C188.092 115.438 188.544 116.057 189.187 116.449C189.828 116.839 190.587 116.959 191.318 116.781C192.05 116.604 192.669 116.151 193.061 115.508C193.147 115.367 206.376 93.5724 208.164 90.6269L203.422 87.7355H203.423Z" fill="#553597"/>
<path d="M209.474 91.3457C209.455 91.3354 209.436 91.3242 209.417 91.3121L202.25 86.9423C201.5 86.485 201.262 85.5022 201.719 84.7509C201.94 84.3888 202.29 84.1331 202.704 84.0323C203.118 83.9315 203.547 83.9977 203.908 84.2189L211.075 88.5887C211.825 89.046 212.064 90.0288 211.607 90.7792C211.386 91.1413 211.036 91.397 210.622 91.4978C210.229 91.593 209.824 91.5389 209.474 91.3447V91.3457ZM203.481 84.8555C203.299 84.7547 203.089 84.7267 202.884 84.7761C202.667 84.8284 202.486 84.9609 202.371 85.1494C202.133 85.5405 202.257 86.051 202.647 86.2899L209.814 90.6597C210.203 90.8921 210.716 90.7736 210.954 90.3825C211.192 89.9924 211.068 89.4809 210.677 89.242L203.51 84.8723C203.5 84.8667 203.49 84.8601 203.48 84.8555H203.481Z" fill="#553597"/>
<path d="M198.724 100.191L198.326 100.844L201.208 102.601L201.606 101.948L198.724 100.191Z" fill="#553597"/>
<path d="M201.785 95.1636L201.388 95.8164L204.27 97.5732L204.667 96.9204L201.785 95.1636Z" fill="#553597"/>
<path d="M197.059 102.926L196.661 103.579L199.543 105.336L199.941 104.683L197.059 102.926Z" fill="#553597"/>
<path d="M195.353 105.726L194.955 106.379L197.837 108.136L198.235 107.483L195.353 105.726Z" fill="#553597"/>
<path d="M193.688 108.461L193.29 109.113L196.172 110.87L196.57 110.217L193.688 108.461Z" fill="#553597"/>
<path d="M197.832 96.2282L197.435 96.8809L202.828 100.17L203.226 99.5169L197.832 96.2282Z" fill="#553597"/>
<path d="M209.896 90.6972L208.217 89.6734C207.877 89.4653 207.768 89.0163 207.976 88.6757L208.076 88.5114C208.284 88.1708 208.732 88.0616 209.073 88.2697L210.752 89.2935C211.092 89.5017 211.201 89.9506 210.993 90.2912L210.894 90.4555C210.686 90.7962 210.237 90.9054 209.896 90.6972Z" fill="white"/>
<path d="M28.9794 131.242L27.916 119.652L10.6454 112.766L1.85432 120.433C0.269423 122.139 0.890694 124.905 3.05395 125.768L24.4421 134.296C26.6072 135.159 28.9626 133.575 28.9804 131.243L28.9794 131.242Z" fill="#EDE3FF"/>
<path d="M22.9381 133.979C22.537 133.756 22.3663 133.259 22.5585 132.833C22.7609 132.384 23.2889 132.183 23.7376 132.386C24.8691 132.895 25.7507 133.03 26.2208 132.765C26.6975 132.495 26.8393 131.737 26.9046 131.19C27.302 127.86 25.8048 117.842 25.7898 117.741C25.7161 117.254 26.052 116.8 26.5389 116.727C27.0258 116.654 27.4801 116.989 27.5529 117.476C27.6163 117.897 29.1005 127.836 28.6751 131.402C28.6042 131.996 28.4167 133.573 27.0977 134.319C26.0781 134.895 24.7385 134.796 23.0044 134.013C22.981 134.003 22.9587 133.992 22.9372 133.98L22.9381 133.979Z" fill="white"/>
<path d="M29.2761 131.224V131.205L27.3665 110.396C27.2779 109.427 27.415 108.436 27.763 107.528L32.1016 96.2301L32.7966 96.5073C33.1884 96.6641 33.6194 96.6576 34.0093 96.4896C34.3992 96.3216 34.7005 96.0136 34.8563 95.6216L34.8628 95.6058C35.0196 95.2138 35.013 94.7826 34.8451 94.3925C34.6772 94.0023 34.3694 93.7018 33.9766 93.545L24.0755 89.5971C23.263 89.2733 22.3395 89.6709 22.0148 90.4856L22.0102 90.4987C21.7117 91.2472 22.026 92.0919 22.7126 92.4726C22.7704 92.5053 22.832 92.5342 22.8954 92.5594L23.512 92.8058L19.1165 103.84C18.7434 104.776 18.1445 105.622 17.3851 106.285L1.51754 120.122L1.48862 120.15C0.658395 121.043 0.322572 122.287 0.590297 123.478C0.823507 124.514 1.48676 125.391 2.40187 125.899C2.53807 125.975 2.67986 126.042 2.82725 126.101L24.2154 134.629C25.3497 135.082 26.6315 134.945 27.6445 134.263C28.6576 133.582 29.2677 132.446 29.277 131.224L29.2761 131.224ZM23.1781 91.8483C22.7564 91.6784 22.5512 91.2015 22.7201 90.7787L22.7247 90.7656C22.8926 90.3447 23.3712 90.1384 23.7919 90.3064L33.6931 94.2543C33.7257 94.2674 33.7574 94.2823 33.7873 94.2991C33.9449 94.3869 34.069 94.524 34.1418 94.693C34.2285 94.8955 34.2322 95.1186 34.152 95.3211L34.1455 95.337C34.0653 95.5395 33.9085 95.6991 33.7061 95.7859C33.5037 95.8727 33.2807 95.8764 33.0783 95.7961L23.1772 91.8483H23.1781ZM17.887 106.861C18.7378 106.119 19.4085 105.172 19.8264 104.123L24.1641 93.2333L31.3348 96.0929L27.0494 107.253C26.6585 108.271 26.5055 109.381 26.6044 110.466L26.7145 111.669L23.5531 110.597L23.3077 111.322L26.79 112.502L27.096 115.837L23.9169 114.76L23.6716 115.484L27.1725 116.671L27.3992 119.137L11.2312 112.665L17.8852 106.861L17.887 106.861ZM27.2173 133.628C26.402 134.177 25.4104 134.282 24.4981 133.918L3.1099 125.389C2.19851 125.025 1.55206 124.268 1.33657 123.31C1.12295 122.358 1.37761 121.402 2.0362 120.685L10.5866 113.228L27.4803 119.99L27.6622 121.969L24.3945 120.862L24.1492 121.586L27.7378 122.802L28.083 126.559L24.8171 125.452L24.5717 126.176L28.1585 127.391L28.5111 131.235C28.4981 132.211 28.027 133.082 27.2163 133.627L27.2173 133.628Z" fill="#553597"/>
</g>
<defs>
<clipPath id="clip0_3741_156483">
<rect width="215" height="240" fill="white" transform="translate(0.5 0.681641)"/>
</clipPath>
</defs>
</svg>
