<svg width="322" height="245" viewBox="0 0 322 245" fill="none" xmlns="http://www.w3.org/2000/svg">
<g clip-path="url(#clip0_3762_110060)">
<mask id="mask0_3762_110060" style="mask-type:luminance" maskUnits="userSpaceOnUse" x="48" y="0" width="247" height="245">
<path d="M294.938 0.681641H48.9385V244.682H294.938V0.681641Z" fill="white"/>
</mask>
<g mask="url(#mask0_3762_110060)">
<path d="M206.301 29.5679C191.371 6.22384 136.183 -7.85801 114.071 6.76125C91.9598 21.3805 102.172 54.5204 88.1488 63.117C74.1257 71.7267 41.885 100.386 50.3268 134.531C62.2263 182.715 49.7468 204.984 67.7509 220.889C93.6735 243.794 122.57 224.989 157.856 234.886C193.128 244.784 246.602 253.054 268.785 228.311C285.359 209.817 278.786 185.145 289.608 160.772C302.781 131.081 291.309 101.829 257.736 96.2436C224.163 90.6584 220.326 51.509 206.301 29.566V29.5679Z" fill="#EDE3FF"/>
</g>
<mask id="mask1_3762_110060" style="mask-type:luminance" maskUnits="userSpaceOnUse" x="55" y="5" width="229" height="220">
<path d="M283.791 5.39648H55.3623V224.883H283.791V5.39648Z" fill="white"/>
</mask>
<g mask="url(#mask1_3762_110060)">
<path d="M213.541 186.42C213.541 186.42 225.605 185.826 240.998 175.37C256.391 164.914 270.554 139.387 270.554 139.387L277.943 126.163L282.869 122.472C282.869 122.472 284.409 119.704 281.637 121.55C278.865 123.396 277.635 124.626 276.711 124.011C275.787 123.396 281.329 117.245 281.329 117.245C281.329 117.245 282.869 114.785 280.713 115.399C280.055 114.592 280.405 113.246 278.865 114.477C277.325 115.709 271.168 121.858 271.168 121.858C271.168 121.858 272.092 115.399 270.552 115.092C270.552 115.092 268.704 118.782 267.474 124.626C264.396 128.931 253.927 142.156 248.079 145.232C242.232 148.307 238.844 148 234.226 145.232C229.608 142.464 227.761 140.003 227.761 140.003C227.761 140.003 220.987 147.076 219.755 150.766C218.523 154.456 214.214 164.914 213.906 171.065C213.598 177.216 213.541 186.422 213.541 186.422V186.42Z" fill="#EDE3FF"/>
<path d="M118.467 178.138C119.066 181.524 129.55 192.593 139.401 196.283C148.945 198.744 155.718 200.588 169.265 196.283C182.812 191.978 198.513 174.14 198.513 174.14L205.287 167.375L212.368 159.378C212.368 159.378 228.993 136.928 232.687 135.696L238.844 137.85C238.844 137.85 241.614 138.157 239.46 136.62C237.306 135.083 233.919 133.852 233.919 133.852L242.846 134.774C242.846 134.774 246.848 133.545 242.538 132.621C242.538 132.006 244.694 131.391 241.922 129.853C238.228 129.238 232.379 128.623 232.379 128.623L238.536 124.318C238.536 124.318 240.692 122.165 237.304 123.396C233.917 124.628 230.223 126.164 230.223 126.164C230.223 126.164 232.071 122.167 230.223 120.936C229.299 121.55 227.145 125.548 226.837 128.009C224.681 129.545 210.212 137.85 208.364 139.388C206.517 140.927 195.433 148.615 189.892 151.075C184.35 153.536 179.732 154.766 176.345 154.458C172.957 154.151 166.828 154.436 162.966 146.144C157.258 145.848 145.867 146.156 137.553 152.307C129.24 158.458 119.081 172.605 118.465 178.14L118.467 178.138Z" fill="#EDE3FF"/>
<path d="M196.973 104.019C192.972 105.865 188.354 108.631 179.733 105.865C171.111 103.099 165.264 92.6411 165.264 92.6411C165.264 92.6411 175.415 92.8938 177.579 94.1779L183.428 76.0325C183.428 76.0325 178.811 73.8791 181.581 70.1889C184.35 66.4988 186.814 70.1889 187.43 72.035C188.046 73.881 191.74 71.4202 195.128 66.4988C198.515 61.5773 199.437 56.043 199.437 56.043C199.437 56.043 204.363 62.1939 205.595 67.4227C207.443 69.2688 207.135 68.6521 208.981 68.6521C210.827 68.6521 210.458 70.8206 209.597 71.4203C208.735 72.0199 206.827 71.1129 206.827 71.1129C206.827 71.1129 207.751 78.1859 205.595 80.3393C203.439 82.4926 201.901 83.7221 197.283 83.1074C192.666 82.4926 194.513 91.4117 194.513 91.4117L192.666 99.0993L196.975 104.021L196.973 104.019Z" fill="#EDE3FF"/>
<path d="M220.249 149.287C220.249 149.287 215.61 159.586 214.291 170.155C212.972 180.737 213.539 186.419 213.539 186.419C213.539 186.419 203.456 187.624 199.329 186.206C199.329 186.206 204.704 173.681 205.243 167.391L210.235 162.221L220.247 149.285L220.249 149.287Z" fill="white"/>
<path d="M196.905 103.556C196.523 104.052 196.034 104.454 195.473 104.733C192.425 106.064 188.639 107.254 185.262 107.113C180.639 106.928 177.023 104.746 173.335 102.04C171.377 100.609 169.646 99.1495 168.173 97.2375C167.188 95.9967 166.434 94.5919 165.947 93.0853C162.06 92.9571 157.367 92.9722 152.077 93.3267C137.043 94.3185 115.628 108.485 109.246 133.562C102.864 158.639 116.834 176.347 116.834 176.347C117.898 170.965 122.578 161.33 133.357 153.254C144.136 145.178 162.969 146.141 162.969 146.141C166.629 155.179 174.57 154.613 182.001 154.187C189.432 153.761 207.459 140.02 207.459 140.02L221.002 131.448C218.493 127.072 202.509 109.617 196.907 103.554L196.905 103.556Z" fill="white"/>
<path d="M200.875 69.0995C202.608 68.8774 203.932 68.0744 203.833 67.3059C203.734 66.5374 202.25 66.0945 200.517 66.3166C198.784 66.5387 197.46 67.3417 197.559 68.1102C197.658 68.8787 199.143 69.3216 200.875 69.0995Z" fill="white"/>
<path d="M198.721 74.0586L202.664 78.0957C202.664 78.0957 200.366 79.3006 198.764 77.6715C197.162 76.0423 198.722 74.0586 198.722 74.0586H198.721Z" fill="white"/>
<path d="M200.862 78.9458C199.957 78.9665 199.086 78.612 198.451 77.9691C196.975 76.4681 197.771 74.5825 198.381 73.7905C198.453 73.6906 198.57 73.6321 198.693 73.634C198.815 73.6246 198.936 73.6717 199.019 73.7622L202.963 77.7993C203.063 77.8936 203.106 78.0332 203.076 78.1689C203.05 78.3009 202.966 78.4159 202.849 78.4801C202.231 78.7836 201.553 78.9439 200.864 78.9458H200.862ZM198.791 74.7371C198.479 75.3329 198.139 76.4228 199.061 77.3732C199.628 77.9445 200.437 78.2066 201.23 78.0803C201.461 78.052 201.689 78.0049 201.91 77.9389L198.791 74.7371Z" fill="#553597"/>
<path d="M218.448 143.153C220.579 143.153 222.306 141.409 222.306 139.257C222.306 137.106 220.579 135.361 218.448 135.361C216.317 135.361 214.59 137.106 214.59 139.257C214.59 141.409 216.317 143.153 218.448 143.153Z" fill="white"/>
<path d="M218.448 140.206C218.973 140.206 219.399 139.781 219.399 139.257C219.399 138.733 218.973 138.309 218.448 138.309C217.924 138.309 217.498 138.733 217.498 139.257C217.498 139.781 217.924 140.206 218.448 140.206Z" fill="#553597"/>
<path d="M218.448 140.63C217.688 140.63 217.072 140.015 217.072 139.255C217.072 138.496 217.688 137.881 218.448 137.881C219.207 137.881 219.823 138.496 219.823 139.255C219.818 140.014 219.205 140.624 218.448 140.63ZM218.448 138.718C218.161 138.722 217.928 138.954 217.922 139.24C217.922 139.529 218.157 139.763 218.446 139.763C218.735 139.763 218.971 139.529 218.971 139.239C218.971 138.948 218.737 138.714 218.446 138.714L218.448 138.718Z" fill="#553597"/>
<path d="M218.505 138.661C218.267 138.654 218.078 138.46 218.08 138.222L218.137 136.706C218.141 136.476 218.329 136.291 218.56 136.295C218.566 136.295 218.571 136.295 218.575 136.295C218.808 136.308 218.989 136.502 218.987 136.734L218.93 138.25C218.919 138.479 218.732 138.658 218.505 138.661Z" fill="#553597"/>
<path d="M175.659 213.423C175.566 213.423 175.477 213.393 175.404 213.339C169.743 208.868 164.332 204.091 159.193 199.03C159.021 198.874 159.007 198.608 159.164 198.437C159.321 198.265 159.588 198.252 159.759 198.408C159.763 198.412 159.769 198.418 159.773 198.421C164.891 203.46 170.278 208.217 175.912 212.673C176.095 212.818 176.127 213.084 175.984 213.269C175.906 213.369 175.785 213.427 175.657 213.425L175.659 213.423Z" fill="#553597"/>
<path d="M108.294 138.591C91.9997 116.178 81.1073 97.4484 86.1558 93.7941C95.9127 86.7381 118.336 114.251 118.336 114.251C118.336 114.251 112.592 123.034 111.529 125.712C110.295 128.788 108.296 138.591 108.296 138.591H108.294Z" fill="#553597"/>
<path d="M108.295 139.016C108.16 139.02 108.032 138.955 107.954 138.846C100.367 128.419 94.5095 119.55 90.5531 112.51C86.0865 104.562 84.0724 98.9368 84.5674 95.8349C84.6714 94.8902 85.1588 94.0304 85.9146 93.4553C88.2688 91.7544 91.4864 91.811 95.4882 93.625C98.5944 95.0411 102.196 97.549 106.195 101.049C112.975 107 118.618 113.912 118.675 113.969C118.79 114.11 118.801 114.31 118.703 114.465C118.647 114.55 112.975 123.248 111.924 125.856C110.719 128.873 108.733 138.563 108.72 138.663C108.693 138.831 108.561 138.963 108.393 138.989C108.364 139.01 108.329 139.02 108.295 139.018V139.016ZM89.9144 93.0706C88.6599 93.0385 87.4318 93.4176 86.4115 94.1473C85.8428 94.5961 85.48 95.256 85.4044 95.9745C84.7942 99.8419 88.2404 110.198 108.081 137.569C108.62 135.02 110.108 128.106 111.129 125.556C112.107 123.105 116.831 115.794 117.81 114.278C114.046 109.798 109.97 105.589 105.613 101.684C100.82 97.4773 94.6644 93.0706 89.9126 93.0706H89.9144Z" fill="#553597"/>
<path d="M198.479 69.3834C198.968 69.5192 199.475 69.5871 199.983 69.5814C200.296 69.5795 200.608 69.555 200.92 69.5097C200.962 69.5097 201.018 69.4947 201.062 69.4947H201.118C201.147 69.4965 201.177 69.4928 201.203 69.4796C201.353 69.457 201.498 69.423 201.644 69.3796C203.006 69.0685 203.969 68.4161 204.196 67.6807V67.6656C204.207 67.6392 204.213 67.609 204.209 67.5808C204.226 67.4865 204.236 67.3922 204.238 67.2979C204.217 66.9302 204.007 66.5983 203.684 66.4192C203.146 66.0232 202.237 65.8102 201.16 65.8384C200.918 65.8441 200.676 65.8629 200.436 65.895C199.618 65.9855 198.826 66.2401 198.11 66.6455C197.402 67.0697 197.047 67.609 197.118 68.1615C197.19 68.714 197.687 69.1383 198.481 69.3796L198.479 69.3834ZM198.564 67.3865C199.161 67.0547 199.815 66.8435 200.493 66.7624C200.293 67.3978 200.293 68.0804 200.493 68.7178C199.894 68.7762 199.289 68.7291 198.707 68.5764C198.282 68.4481 197.999 68.2502 197.969 68.0654C197.954 67.8806 198.182 67.6128 198.564 67.3846V67.3865Z" fill="#553597"/>
<path d="M185.503 72.8547L183.816 71.0408C183.993 70.8692 184.199 70.7315 184.426 70.6297C184.645 70.5467 184.753 70.3016 184.67 70.0847C184.67 70.0829 184.668 70.0791 184.666 70.0772C184.575 69.8603 184.332 69.7548 184.112 69.8358C183.319 70.147 181.915 71.3368 182.368 73.575C182.404 73.773 182.578 73.9182 182.78 73.9144C182.805 73.9182 182.829 73.9144 182.85 73.8994C183.079 73.8598 183.232 73.6429 183.192 73.4129C183.192 73.4091 183.192 73.4053 183.19 73.4034C183.056 72.851 183.1 72.2702 183.319 71.746L184.879 73.4185C184.957 73.5109 185.072 73.5618 185.191 73.5599C185.297 73.5562 185.397 73.5166 185.475 73.4468C185.647 73.2978 185.665 73.0376 185.516 72.8679C185.512 72.8642 185.509 72.8585 185.505 72.8547H185.503Z" fill="#553597"/>
<path d="M197.599 55.7824C197.412 55.7843 197.244 55.6636 197.187 55.4845C195.315 49.1789 185.189 48.5699 185.089 48.5567C184.855 48.5416 184.677 48.3379 184.692 48.1041C184.707 47.8703 184.911 47.6912 185.146 47.7081C187.058 47.8515 188.943 48.2323 190.761 48.8414C194.661 50.1595 197.157 52.3694 198.022 55.2299C198.092 55.4449 197.975 55.6768 197.759 55.7466C197.752 55.7485 197.746 55.7503 197.739 55.7522C197.695 55.7749 197.646 55.7843 197.597 55.7824H197.599Z" fill="#EDE3FF"/>
<path d="M65.7897 54.5207C65.6045 54.5207 65.4421 54.4 65.3929 54.2227C63.7756 49.3201 63.1086 44.5457 63.4072 40.0145C63.6377 36.4469 64.5011 32.9491 65.9598 29.6851C68.4424 24.1885 71.7602 21.3695 71.9019 21.2412C72.0814 21.0923 72.3497 21.1187 72.4971 21.2978C72.6463 21.4769 72.6199 21.7447 72.4404 21.8937C71.7338 22.5291 71.0781 23.2212 70.483 23.9622C68.9601 25.8214 67.6923 27.8749 66.7117 30.0679C65.2966 33.2319 64.4596 36.6242 64.2442 40.0843C63.9608 44.491 64.6145 49.1504 66.1884 53.9399C66.2639 54.1605 66.1449 54.4019 65.9239 54.4773C65.9239 54.4773 65.9201 54.4773 65.9182 54.4773C65.8898 54.5207 65.8332 54.5207 65.7916 54.5207H65.7897Z" fill="#EDE3FF"/>
<path d="M171.177 79.8681H171.064C163.816 79.8115 158.016 76.3118 152.4 72.9403C144.132 67.9679 135.594 62.8107 121.852 67.8114C121.645 67.8943 121.408 67.7944 121.325 67.587C121.321 67.5776 121.318 67.5663 121.314 67.5549C121.233 67.34 121.342 67.1005 121.558 67.0213C121.561 67.0213 121.565 67.0194 121.569 67.0175C135.681 61.8886 144.402 67.1458 152.84 72.2181C158.613 75.6895 164.058 78.9762 171.064 79.0327H171.162C176.978 79.0327 179.713 75.0522 179.742 75.0239C179.868 74.824 180.133 74.7656 180.333 74.8919C180.533 75.0182 180.592 75.2822 180.465 75.4821C180.46 75.4896 180.456 75.4972 180.45 75.5047C180.339 75.6612 177.459 79.8681 171.175 79.8681H171.177Z" fill="#EDE3FF"/>
<path d="M275.801 125.741L272.568 124.934C272.68 124.523 272.708 124.095 272.653 123.672C272.623 123.44 272.412 123.278 272.179 123.308C271.947 123.338 271.784 123.552 271.814 123.782C271.814 123.787 271.814 123.793 271.816 123.8C271.881 124.449 271.705 125.1 271.319 125.628C270.838 126.252 270.029 126.633 268.922 126.761C268.688 126.791 268.523 127.006 268.553 127.24C268.582 127.453 268.763 127.611 268.979 127.611H269.022C270.369 127.455 271.376 126.959 272 126.139C272.098 126.01 272.183 125.873 272.255 125.728L275.603 126.563C275.635 126.574 275.669 126.58 275.703 126.578C275.897 126.574 276.066 126.44 276.115 126.252C276.17 126.025 276.03 125.797 275.803 125.743C275.803 125.743 275.803 125.743 275.801 125.743V125.741Z" fill="#553597"/>
<path d="M283.714 121.067C283.621 120.863 283.445 120.709 283.232 120.643C282.58 120.445 281.558 121.095 279.941 122.172C279.147 122.694 277.558 123.758 277.078 123.73C277.176 123.221 278.397 121.746 279.206 120.754C281.191 118.331 282.469 116.66 282.212 115.569C282.163 115.218 281.923 114.922 281.588 114.803C281.35 114.735 281.097 114.745 280.864 114.831C280.887 114.739 280.897 114.643 280.893 114.549C280.889 114.335 280.804 114.132 280.651 113.983C279.644 113.048 278.353 114.294 275.999 116.576C275.517 117.043 274.979 117.581 274.382 118.133C273.758 118.714 272.468 119.96 271.631 120.767C272.1 117.933 271.971 115.993 271.261 115.114C271.051 114.82 270.715 114.643 270.354 114.633C269.787 114.633 269.573 115.188 268.468 119.493C267.971 121.42 267.461 123.432 267.021 124.48C266.581 125.557 262.823 130.686 258.016 135.828C254.611 139.469 248.187 145.731 243.507 146.751C240.955 147.306 238.274 146.921 235.564 145.59C233.225 144.456 230.799 142.586 228.345 140.05C231.848 136.239 232.755 136.111 232.925 136.126C233.535 136.211 234.542 136.693 235.521 137.146C237.507 138.081 239.577 139.045 240.443 137.981C240.626 137.766 240.684 137.47 240.599 137.202C240.358 136.339 238.5 135.375 236.741 134.653C238.797 134.823 241.236 135.023 241.818 135.064C242.102 135.092 242.357 135.107 242.598 135.107C243.534 135.107 244.187 134.91 244.512 134.483C244.75 134.223 244.851 133.865 244.783 133.52C244.758 133.446 244.72 133.378 244.669 133.322C244.229 132.909 243.708 132.59 243.137 132.387C243.309 132.268 243.454 132.113 243.562 131.932C243.747 131.515 243.704 131.035 243.449 130.657C242.542 129.041 236.615 128.447 233.72 128.249C234.415 127.81 235.337 127.214 236.229 126.592C239.83 124.127 239.946 123.588 239.704 123.149C239.562 122.891 239.313 122.71 239.024 122.653C237.903 122.383 235.181 123.36 230.913 125.529C231.763 122.723 231.608 121.052 230.444 120.541C230.274 120.462 230.075 120.462 229.905 120.541C229.509 120.711 228.857 121.335 227.423 124.693C226.784 126.209 226.232 127.682 226.061 128.15C225.267 128.589 224.458 129.057 223.593 129.552C222.784 130.02 221.961 130.501 221.167 130.984C219.748 128.93 217.592 126.209 215.125 123.277C215.11 123.222 215.081 123.173 215.04 123.136C214.955 123.036 214.599 122.64 214.061 122.016C211.027 118.446 207.665 114.677 204.758 111.462C199.212 105.341 194.205 100.042 193.113 98.8959C193.1 98.8809 193.085 98.8526 193.072 98.8394L196.234 85.8606L196.773 83.6921C197.374 83.7883 197.98 83.8354 198.589 83.8336C200.489 83.843 202.354 83.3226 203.977 82.3326C206.857 80.5488 207.92 76.8926 207.097 71.7637C207.469 71.956 207.883 72.0578 208.302 72.0616C208.446 72.0635 208.587 72.0503 208.727 72.0182C209.481 71.8844 210.139 71.428 210.528 70.7718C210.796 70.2061 210.737 69.5386 210.371 69.0295C210.129 68.6901 209.534 68.1659 208.315 68.3922C207.331 68.609 206.333 68.0886 205.946 67.159C205.946 67.1307 205.933 67.1024 205.933 67.059C204.586 62.9785 202.417 58.8566 200.117 55.9659C200.117 55.272 200.049 54.58 199.919 53.8974C199.324 50.9086 197.083 47.1827 189.765 46.4303C173.286 44.7295 166.932 35.2391 162.749 28.9487C162.437 28.4961 162.138 28.0568 161.855 27.6306C157.672 21.5099 150.679 11.2671 128.002 12.7115C118.599 13.3074 113.664 11.0107 108.87 8.80074C105.666 7.31298 102.63 5.89687 98.5033 5.52729C93.895 5.11623 88.5764 6.04961 81.7556 8.48772C75.0728 10.858 69.1514 14.978 64.6074 20.4162C60.464 25.3735 57.6469 31.3019 56.4244 37.6433C55.4533 42.5648 55.6479 47.6446 56.9912 52.4756C58.3308 57.2293 61.027 61.4927 64.7491 64.7435C70.8481 70.0572 78.1658 72.9893 87.1007 73.7115C94.9587 74.3489 102.998 73.259 110.784 72.1955C114.429 71.6996 117.862 71.2319 121.237 70.934C131.66 70.0421 137.703 73.3137 144.112 76.7851C148.82 79.3345 153.698 81.9838 160.691 83.4018C162.828 83.8449 165.005 84.073 167.187 84.0825C172.49 84.0825 176.32 82.5947 178.803 81.1069C180.243 80.266 181.559 79.2308 182.718 78.0315L177.512 93.6162C172.245 92.6244 166.888 92.1775 161.528 92.2849C156.453 92.3528 151.401 92.9845 146.466 94.1687C140.637 95.615 135.447 97.8796 131.035 100.912C121.193 107.683 113.379 118.578 109.621 130.804C107.646 137.133 106.845 143.768 107.251 150.385C107.699 157.407 109.596 164.261 112.823 170.516C116.071 176.821 119.901 182.218 124.21 186.553C128.021 190.43 132.505 193.583 137.442 195.86C142.619 198.219 148.246 199.438 153.936 199.43C155.811 199.43 157.683 199.302 159.54 199.047L169.624 208.455C169.681 208.513 169.756 208.553 169.838 208.568C169.983 208.587 170.13 208.596 170.278 208.596C171.468 208.596 174.873 208.002 177.752 201.923C179.723 197.757 181.539 197.586 183.625 197.375C185.028 197.233 186.602 197.077 188.32 195.745C190.702 193.903 190.234 191.409 189.852 189.398C189.482 187.43 189.329 186.182 190.689 185.459C194.205 183.604 199.526 180.798 199.979 173.616C201.653 171.971 203.242 170.342 204.716 168.77C204.716 168.841 204.703 168.898 204.703 168.968C204.504 169.803 204.291 170.64 204.079 171.476C203.626 173.205 203.129 174.889 202.575 176.548C202.037 178.105 201.468 179.665 200.943 181.053C198.615 187.051 195.465 192.695 191.583 197.827C187.154 203.652 181.705 208.624 175.5 212.505C175.442 212.531 175.391 212.577 175.358 212.633C175.255 212.703 175.192 212.82 175.188 212.944C175.185 213.088 175.247 213.223 175.358 213.314C185.257 221.007 193.143 224.875 198.915 224.875C200.979 224.931 203.006 224.315 204.688 223.117C205.921 222.197 206.645 220.807 206.828 218.98C207.395 213.257 202.418 203.395 194.717 194.91C196.42 192.355 197.95 189.691 199.297 186.934C201.542 187.213 203.801 187.351 206.063 187.345C210.484 187.332 214.89 186.819 219.196 185.816C228.23 183.676 236.824 179.384 244.711 173.022C259.66 160.967 272.451 137.065 276.664 129.217C277.345 127.955 277.885 126.95 278.011 126.794C278.323 126.383 279.217 125.73 280.167 125.051C282.678 123.254 284.152 122.093 283.714 121.06V121.067ZM230.189 121.365C230.841 121.789 230.714 123.547 229.834 126.083C229.012 126.507 228.131 126.99 227.209 127.499C228.528 124.028 229.72 121.72 230.187 121.365H230.189ZM224.02 130.292C232.046 125.645 237.45 123.151 238.825 123.492H238.839C238.243 124.243 235.037 126.468 232.158 128.238C231.959 128.355 231.893 128.612 232.01 128.81C232.012 128.813 232.014 128.817 232.016 128.819C232.074 128.919 232.173 128.991 232.286 129.017C232.318 129.03 232.352 129.034 232.386 129.032C232.415 129.032 234.812 129.145 237.308 129.471C241.705 130.052 242.555 130.803 242.727 131.085C242.812 131.227 242.897 131.425 242.825 131.553C242.623 131.761 242.349 131.887 242.06 131.908C241.99 131.923 241.924 131.947 241.862 131.979C238.315 131.059 233.153 131.2 232.87 131.214C232.639 131.217 232.454 131.406 232.458 131.636C232.458 131.642 232.458 131.647 232.458 131.651C232.471 131.883 232.664 132.064 232.898 132.062C235.366 131.991 242.06 132.162 243.946 133.805C243.932 133.852 243.91 133.897 243.876 133.933C243.762 134.061 243.337 134.357 241.89 134.216C240.87 134.102 234.032 133.578 233.748 133.55C233.514 133.535 233.31 133.712 233.295 133.946C233.295 134.04 233.321 134.133 233.365 134.216C233.416 134.299 233.497 134.359 233.592 134.385C233.62 134.385 235.194 134.908 236.768 135.59C239.534 136.78 239.774 137.361 239.789 137.432C239.349 137.987 237.265 137.008 235.889 136.356C234.812 135.86 233.79 135.379 233.053 135.264C232.314 135.164 230.854 135.803 225.991 141.37C224.8 140.855 223.695 140.163 222.714 139.316V139.245C222.724 137.268 221.384 135.539 219.467 135.051C219.193 134.51 218.97 133.946 218.8 133.365C220.5 132.358 222.246 131.31 224.02 130.292ZM221.879 139.26C221.879 141.153 220.343 142.69 218.446 142.69C216.549 142.69 215.013 141.155 215.013 139.26C215.013 138.949 215.057 138.637 215.14 138.339C215.195 138.26 215.225 138.166 215.225 138.07C215.856 136.29 217.811 135.356 219.593 135.984C220.978 136.473 221.896 137.791 221.875 139.26H221.879ZM205.271 118.065C205.428 117.858 205.664 117.724 205.923 117.696C207.427 117.554 211.837 121.209 214.333 123.618C216.857 126.607 219.028 129.341 220.46 131.397C215.298 134.485 210.59 137.502 207.837 139.358C207.365 133.657 206.318 128.019 204.718 122.527C204.591 121.506 204.493 119.027 205.271 118.063V118.065ZM177.261 94.4327L176.864 95.6093C176.789 95.8299 176.906 96.0694 177.127 96.1448C177.129 96.1448 177.131 96.1448 177.133 96.1467C177.17 96.1693 177.216 96.1788 177.259 96.175C177.442 96.1731 177.603 96.0524 177.656 95.8771L184.265 76.1138C184.341 75.8932 184.222 75.6518 184.001 75.5764C184.001 75.5764 183.997 75.5764 183.995 75.5764C183.959 75.5651 183.919 75.5594 183.882 75.5613C182.72 75.3765 181.924 74.7958 181.599 73.8756C181.187 72.7555 181.527 71.2263 182.408 70.2344C182.748 69.8516 183.456 69.2294 184.378 69.4406C186.037 69.8102 186.619 71.198 186.804 72.2879C186.884 72.7555 187.186 73.1572 187.613 73.3646C188.034 73.5758 188.533 73.5644 188.947 73.3363C192.18 71.5789 195.273 68.4619 197.413 64.7925C198.917 62.2149 199.811 59.6353 200.051 57.2689C202.205 60.3255 203.902 63.6819 205.086 67.2287C205.086 67.257 205.1 67.2853 205.1 67.3287C205.593 68.7146 207.032 69.5254 208.476 69.2275C209.058 69.1144 209.468 69.2124 209.696 69.5254C209.868 69.7706 209.9 70.0873 209.781 70.3608C209.513 70.7926 209.075 71.0905 208.576 71.1829C207.994 71.296 207.414 71.083 206.817 70.5738C206.649 70.4211 206.386 70.4324 206.233 70.6021C206.229 70.6078 206.226 70.6116 206.22 70.6172C206.167 70.6719 206.133 70.7417 206.122 70.8152C206.091 70.8963 206.08 70.9849 206.093 71.0698C207.384 77.6581 205.413 80.4187 203.526 81.5953C197.967 85.0385 191.995 80.9863 191.938 80.9429C191.755 80.8053 191.494 80.8411 191.356 81.0221C191.35 81.0278 191.347 81.0353 191.343 81.041C191.228 81.1975 191.233 81.4143 191.356 81.5633C193.285 84.8197 194.124 88.6061 193.754 92.3736V92.3886L192.18 98.8356V98.8507C192.18 98.879 192.167 98.8941 192.167 98.9223V98.9506C192.165 98.9789 192.168 99.0091 192.18 99.0355V99.0506C192.199 99.1222 192.233 99.1901 192.28 99.2486L192.378 99.3485C193.591 100.876 194.706 102.481 195.713 104.153C190.848 106.831 186.013 107.525 181.361 106.178C172.936 103.755 167.448 95.383 166.144 93.1995C169.875 93.3315 173.592 93.7444 177.263 94.4346L177.261 94.4327ZM165.15 93.158C166.34 95.2246 167.738 97.1668 169.32 98.9544C171.816 101.802 175.901 105.514 181.134 107.015C182.738 107.481 184.399 107.719 186.069 107.723C189.387 107.723 192.764 106.787 196.168 104.875C196.65 105.682 197.16 106.576 197.686 107.553C195.836 108.735 193.797 109.593 191.658 110.089C188.127 110.939 182.538 111.307 175.929 108.19C169.717 105.271 166.157 101.219 164.256 98.3303C163.183 96.7237 162.333 94.9795 161.732 93.1448C162.922 93.1297 164.058 93.1297 165.15 93.1599V93.158ZM113.598 170.129C110.423 163.98 108.559 157.241 108.124 150.338C107.727 143.821 108.521 137.287 110.463 131.055C113.711 120.486 120.022 110.953 128.063 104.251C130.701 108.119 128.361 118.05 132.359 117.582C136.756 117.06 132.63 110.783 135.407 101.404C135.69 100.34 136.571 99.2919 136.911 98.5C140.03 96.9915 143.301 95.8186 146.668 95.0002C151.32 93.8802 156.079 93.2617 160.865 93.158C161.485 95.1473 162.388 97.0386 163.546 98.7696C165.488 101.758 169.176 105.952 175.587 108.969C179.028 110.634 182.797 111.515 186.621 111.547C188.405 111.558 190.183 111.339 191.911 110.894C194.105 110.396 196.199 109.525 198.095 108.317C198.366 108.839 198.649 109.38 198.917 109.933C200.924 114.024 202.575 118.28 203.852 122.655C203.868 122.706 203.877 122.759 203.881 122.811C203.89 122.866 203.911 122.919 203.938 122.968C205.538 128.5 206.569 134.184 207.015 139.925C206.817 140.053 206.632 140.18 206.477 140.295C205.867 140.719 205.158 141.23 204.406 141.768C200.761 144.389 195.244 148.341 189.259 151.062C184.664 153.144 180.452 154.192 176.679 154.192C174.741 154.209 172.815 153.902 170.977 153.285C165.702 151.471 162.794 147.264 162.354 140.789C162.186 137.636 162.512 134.478 163.317 131.425C163.382 131.2 163.251 130.969 163.028 130.904C162.807 130.842 162.577 130.965 162.509 131.184C161.664 134.321 161.33 137.574 161.517 140.817C161.613 142.46 161.917 144.083 162.424 145.648C158.628 145.482 154.823 145.676 151.063 146.229C144.992 147.108 136.469 149.346 130.228 155.056C121.435 163.103 117.577 172.861 116.642 175.528C115.578 173.812 114.558 172.013 113.592 170.129H113.598ZM189.926 181.69C188.55 182.838 187.075 184.041 185.529 185.246C179.162 190.19 173.318 193.79 168.241 195.957C167.117 196.411 165.966 196.8 164.795 197.118C155.59 199.611 146.245 198.917 137.807 195.093C132.964 192.855 128.567 189.759 124.83 185.955C122.782 183.891 120.9 181.669 119.2 179.31C119.733 177.185 120.483 175.119 121.441 173.148C123.099 169.592 126.249 164.024 131.851 157.776C137.41 151.571 145.523 148.852 151.338 147.647C155.089 146.87 158.911 146.495 162.741 146.527C163.355 148.113 164.277 149.561 165.45 150.792C162.218 154.164 152.459 153.626 153.141 157.607C154.063 161.659 159.382 159.336 168.67 156.26C171.094 155.476 173.624 155.061 176.173 155.027C176.358 155.027 176.528 155.042 176.711 155.042C180.598 155.042 184.938 153.966 189.618 151.825C195.688 149.063 201.234 145.082 204.907 142.444C205.659 141.907 206.354 141.411 206.962 140.985C208.325 140.05 210.749 138.436 213.742 136.537C213.868 136.906 214.053 137.444 214.324 138.081C214.22 138.464 214.169 138.86 214.169 139.258C214.169 141.487 215.863 143.35 218.083 143.563C219.283 144.666 220.766 145.411 222.367 145.716C218.707 150.221 215.119 155.01 213.077 157.744C209.131 163.06 200.098 173.033 189.929 181.69H189.926ZM207.909 180.996C205.13 178.799 205.271 172.581 205.527 169.494C205.568 169.268 205.598 169.07 205.64 168.856C205.738 168.404 205.853 167.949 205.952 167.51C208.72 164.569 211.333 161.486 213.781 158.272C215.1 156.502 217.058 153.866 219.283 151.005C218.284 153.202 217.407 155.453 216.659 157.748C214.231 165.332 212.988 173.246 212.971 181.209C210.83 182.029 209.128 181.96 207.909 180.994V180.996ZM282.096 122.5C281.32 123.179 280.505 123.813 279.657 124.399C278.622 125.15 277.728 125.802 277.331 126.298C277.161 126.511 276.793 127.19 275.899 128.847C271.716 136.654 258.98 160.441 244.157 172.383C236.358 178.66 227.891 182.908 218.985 185.005C217.311 185.401 215.623 185.712 213.949 185.953L213.821 182.482C213.702 174.195 214.923 165.941 217.437 158.044C219.593 151.414 221.947 147.66 221.976 147.619C222 147.585 222.019 147.545 222.032 147.505C223.168 146.089 224.317 144.686 225.437 143.353C226.316 142.318 227.083 141.426 227.776 140.676C229.505 142.505 231.459 144.109 233.592 145.45C230.004 146.768 225.182 147.123 225.622 149.787C226.431 153.328 231.083 151.288 239.209 148.61C240.405 148.216 241.637 147.932 242.884 147.76C242.821 147.76 242.761 147.754 242.699 147.745C243.037 147.702 243.366 147.645 243.691 147.575C248.357 146.57 254.398 140.945 258.639 136.397C263.363 131.34 267.291 126.07 267.816 124.795C268.27 123.675 268.795 121.65 269.292 119.681C269.704 118.082 270.199 116.125 270.482 115.529C270.524 115.563 270.562 115.601 270.596 115.642C270.894 116.025 271.518 117.441 270.495 122.187C270.448 122.419 270.599 122.645 270.832 122.691C271.057 122.736 271.278 122.594 271.332 122.372C271.346 122.3 271.361 122.244 271.376 122.187C271.414 122.172 271.448 122.148 271.474 122.116C271.487 122.087 274.027 119.636 274.962 118.757C275.557 118.203 276.111 117.665 276.594 117.198C278.212 115.64 279.6 114.294 280.054 114.592C280.054 114.692 279.969 115.146 278.934 116.476C277.56 118.184 276.096 119.821 274.55 121.378C274.386 121.542 274.386 121.81 274.55 121.974C274.714 122.138 274.981 122.138 275.145 121.974C275.149 121.97 275.155 121.965 275.159 121.961C277.243 119.792 279.215 117.639 280.207 116.123C280.273 116.106 280.335 116.078 280.392 116.038C280.676 115.797 281.144 115.557 281.299 115.614C281.312 115.614 281.341 115.657 281.369 115.755C281.554 116.534 279.737 118.744 278.533 120.219C276.972 122.117 276.107 123.222 276.207 123.931C276.232 124.127 276.339 124.303 276.506 124.412C277.258 124.908 278.463 124.158 280.392 122.868C281.172 122.346 282.476 121.48 282.901 121.452C282.886 121.565 282.773 121.876 282.091 122.5H282.096Z" fill="#553597"/>
<path d="M191.615 197.854C195.492 192.72 198.641 187.076 200.975 181.08C201.498 179.692 202.067 178.133 202.607 176.575C203.146 174.918 203.656 173.232 204.111 171.503C204.325 170.667 204.536 169.83 204.735 168.995C204.735 168.923 204.748 168.853 204.748 168.797C203.272 170.369 201.685 171.985 200.011 173.643C199.558 180.825 194.239 183.631 190.721 185.487C189.359 186.209 189.515 187.455 189.884 189.426C190.267 191.438 190.734 193.93 188.352 195.773C186.636 197.104 185.062 197.26 183.656 197.402C181.572 197.615 179.757 197.785 177.784 201.95C175.288 207.235 172.38 208.369 170.892 208.58C172.524 209.968 174.124 211.272 175.657 212.476C181.807 208.593 187.21 203.641 191.613 197.854H191.615Z" fill="white"/>
</g>
<path d="M97.5772 198.58L94.9404 201.238L95.5221 201.825L98.1589 199.167L97.5772 198.58Z" fill="#553597"/>
<path d="M101.442 194.682L98.8057 197.34L99.3873 197.926L102.024 195.268L101.442 194.682Z" fill="#553597"/>
<path d="M95.5201 194.681L94.9385 195.268L97.5753 197.926L98.1569 197.339L95.5201 194.681Z" fill="#553597"/>
<path d="M99.3863 198.578L98.8047 199.164L101.441 201.822L102.023 201.236L99.3863 198.578Z" fill="#553597"/>
<path d="M225.613 15.0241L221.938 10.3529L225.613 5.68164L229.287 10.3529L225.613 15.0241ZM222.98 10.3529L225.613 13.6974L228.245 10.3529L225.613 7.00839L222.98 10.3529Z" fill="#A78ED7"/>
<path d="M144.119 221.094C142.364 221.094 140.938 219.657 140.938 217.888C140.938 216.119 142.364 214.682 144.119 214.682C145.874 214.682 147.3 216.119 147.3 217.888C147.3 219.657 145.874 221.094 144.119 221.094ZM144.119 215.511C142.83 215.511 141.761 216.561 141.761 217.888C141.761 219.187 142.803 220.265 144.119 220.265C145.435 220.265 146.477 219.215 146.477 217.888C146.477 216.589 145.435 215.511 144.119 215.511Z" fill="#553597"/>
<path d="M277.672 207.072C277.597 207.135 277.508 207.176 277.412 207.192C277.316 207.207 277.218 207.196 277.129 207.159C275.024 206.307 274.342 207.142 273.199 208.524C272.173 209.774 270.895 211.324 268.176 211.683L268.115 211.693C265.263 211.738 263.824 210.509 263.077 209.335C261.595 209.779 260.011 209.7 258.591 209.111C257.195 208.538 255.968 207.625 255.021 206.455C252.909 207.218 250.608 207.245 248.494 206.532C247.436 206.112 246.5 205.438 245.771 204.568C245.139 204.962 244.436 205.227 243.704 205.346C242.971 205.465 242.223 205.437 241.505 205.263C240.232 205.08 239.044 204.529 238.089 203.677C236.234 205.021 233.8 204.954 231.37 203.477C231.346 203.456 231.325 203.432 231.309 203.405C229.215 201.514 228.196 199.622 228.181 197.632C228.18 197.563 228.193 197.494 228.219 197.429C228.245 197.365 228.284 197.306 228.332 197.256C228.381 197.206 228.439 197.166 228.503 197.138C228.567 197.11 228.635 197.095 228.705 197.094C228.774 197.093 228.843 197.105 228.907 197.13C228.972 197.156 229.03 197.193 229.08 197.242C229.129 197.29 229.169 197.347 229.196 197.411C229.223 197.474 229.237 197.542 229.238 197.612C229.256 199.277 230.145 200.915 231.985 202.588C233.977 203.783 235.861 203.896 237.337 202.918C236.149 201.615 235.4 199.996 235.436 198.649C235.426 198.347 235.477 198.046 235.587 197.763C235.696 197.48 235.862 197.222 236.074 197.003C236.286 196.785 236.539 196.611 236.819 196.493C237.098 196.374 237.399 196.313 237.701 196.313C238.26 196.284 238.812 196.437 239.273 196.749C239.733 197.061 240.078 197.515 240.255 198.043C240.772 199.535 240.163 201.551 238.888 202.949C239.664 203.63 240.625 204.069 241.652 204.213L241.718 204.225C242.289 204.371 242.885 204.4 243.47 204.312C244.055 204.224 244.618 204.02 245.125 203.712C243.99 201.988 243.539 199.891 243.966 198.351C244.393 196.811 245.614 196.097 247.26 196.356C247.665 196.418 248.044 196.592 248.353 196.86C248.661 197.127 248.888 197.476 249.006 197.867C249.505 199.388 248.763 201.688 247.208 203.363C247.022 203.563 246.825 203.752 246.618 203.929C247.212 204.624 247.967 205.164 248.819 205.503C250.618 206.109 252.571 206.12 254.389 205.533C253.932 204.787 253.645 203.948 253.547 203.075C253.449 202.203 253.543 201.317 253.823 200.481C254.501 198.654 256.105 197.761 257.815 198.261C259.394 198.761 260.03 200.255 259.45 202.075C258.845 203.767 257.621 205.174 256.026 206.012C256.85 206.949 257.88 207.683 259.036 208.159C260.167 208.624 261.423 208.705 262.612 208.389C261.813 206.257 262.35 203.582 263.835 202.302C264.292 201.909 264.861 201.671 265.459 201.624C266.058 201.576 266.654 201.721 267.16 202.036C268.521 202.755 268.912 204.065 268.188 205.54C267.532 206.875 265.987 208.232 264.129 208.996C264.946 210.105 266.316 210.686 268.089 210.659C270.37 210.348 271.4 209.095 272.399 207.888C273.543 206.499 274.724 205.064 277.547 206.209C277.677 206.261 277.78 206.363 277.833 206.491C277.887 206.62 277.887 206.765 277.834 206.894C277.792 206.964 277.737 207.024 277.672 207.072ZM263.608 208.05C265.269 207.397 266.664 206.207 267.228 205.06C267.699 204.106 267.498 203.391 266.637 202.937C266.321 202.718 265.938 202.612 265.552 202.637C265.166 202.662 264.797 202.816 264.507 203.073C263.49 203.931 262.908 206.109 263.574 207.976C263.591 207.998 263.602 208.023 263.608 208.05ZM255.403 205.166C256.821 204.484 257.925 203.28 258.479 201.81C258.626 201.343 259.002 199.784 257.532 199.323C256.132 198.912 255.235 199.887 254.856 200.893C254.622 201.604 254.549 202.356 254.644 203.096C254.739 203.835 254.998 204.542 255.403 205.166ZM245.528 197.713C245.26 197.955 245.07 198.273 244.986 198.623C244.694 199.789 245.031 201.562 246.021 203.081C246.191 202.937 246.353 202.801 246.46 202.649C247.716 201.302 248.405 199.341 248.033 198.201C247.975 197.99 247.855 197.801 247.69 197.657C247.525 197.514 247.321 197.422 247.103 197.394C246.834 197.326 246.554 197.319 246.281 197.374C246.008 197.429 245.751 197.545 245.528 197.713ZM236.882 197.676C236.747 197.808 236.642 197.967 236.574 198.142C236.506 198.318 236.478 198.505 236.491 198.692C236.468 199.7 237.128 201.092 238.154 202.25C239.268 201.057 239.622 199.414 239.282 198.418C239.18 198.095 238.97 197.818 238.687 197.632C238.405 197.446 238.066 197.363 237.727 197.396C237.424 197.398 237.128 197.497 236.882 197.676Z" fill="#553597"/>
<path d="M252.438 23.6816C239.466 23.6816 228.938 34.2096 228.938 47.1816C228.938 60.1536 239.466 70.6816 252.438 70.6816C265.41 70.6816 275.938 60.1536 275.938 47.1816C275.938 34.2096 265.41 23.6816 252.438 23.6816ZM252.438 65.9816C242.075 65.9816 233.638 57.5451 233.638 47.1816C233.638 36.8181 242.075 28.3816 252.438 28.3816C262.802 28.3816 271.238 36.8181 271.238 47.1816C271.238 57.5451 262.802 65.9816 252.438 65.9816ZM263.225 36.7946L247.738 52.2811L241.652 46.2181L238.338 49.5316L247.738 58.9316L266.538 40.1316L263.225 36.7946Z" fill="#6F46BE"/>
</g>
<path d="M31.5772 92.6058L28.9404 95.3145L29.5221 95.9119L32.1589 93.2033L31.5772 92.6058Z" fill="#553597"/>
<path d="M35.4425 88.6332L32.8057 91.3418L33.3873 91.9393L36.0241 89.2307L35.4425 88.6332Z" fill="#553597"/>
<path d="M29.5201 88.633L28.9385 89.2305L31.5753 91.9391L32.1569 91.3416L29.5201 88.633Z" fill="#553597"/>
<path d="M33.3863 92.6037L32.8047 93.2012L35.4415 95.9098L36.0231 95.3123L33.3863 92.6037Z" fill="#553597"/>
<path d="M310.577 192.469L307.94 195.178L308.522 195.775L311.159 193.067L310.577 192.469Z" fill="#553597"/>
<path d="M314.442 188.496L311.806 191.205L312.387 191.803L315.024 189.094L314.442 188.496Z" fill="#553597"/>
<path d="M308.52 188.496L307.938 189.094L310.575 191.802L311.157 191.205L308.52 188.496Z" fill="#553597"/>
<path d="M312.386 192.467L311.805 193.064L314.441 195.773L315.023 195.176L312.386 192.467Z" fill="#553597"/>
<path d="M307.71 109.121L306.554 114.124C306.334 115.075 306.928 116.051 307.866 116.281L312.803 117.493L307.71 109.121Z" fill="white"/>
<path d="M307.632 95.9435L285.202 90.3826C283.481 89.9621 281.724 91.0594 281.318 92.8083L270.625 138.166C270.219 139.915 271.305 141.707 273.026 142.128L304.51 149.901C306.231 150.321 307.988 149.224 308.394 147.475L316.875 111.3L307.632 95.9435Z" fill="white"/>
<path d="M304.438 150.649L272.86 142.794C271.809 142.535 270.921 141.915 270.345 140.971C269.77 140.028 269.622 138.949 269.867 137.886L280.383 92.5994C280.628 91.537 281.231 90.6429 282.156 90.0688C283.082 89.4947 284.145 89.3555 285.195 89.6142L307.693 95.2341C307.918 95.2895 308.051 95.4024 308.166 95.5911L317.623 110.992C317.738 111.18 317.778 111.351 317.726 111.578L309.25 147.664C309.005 148.727 308.403 149.621 307.477 150.195C306.552 150.769 305.489 150.908 304.438 150.649ZM284.846 91.132C284.17 90.9657 283.517 91.0455 282.962 91.3899C282.407 91.7344 282.042 92.286 281.884 92.969L271.368 138.256C271.21 138.939 271.296 139.602 271.641 140.168C271.986 140.734 272.534 141.109 273.21 141.276L304.788 149.132C305.464 149.298 306.116 149.218 306.672 148.874C307.227 148.529 307.592 147.978 307.749 147.295L316.08 111.494L307.118 96.6964L284.846 91.132Z" fill="#553597"/>
<path d="M307.556 118.315L284.873 112.702C284.425 112.593 284.214 112.146 284.301 111.772C284.405 111.323 284.773 111.096 285.221 111.206L307.904 116.819C308.352 116.928 308.564 117.375 308.477 117.749C308.39 118.123 307.929 118.406 307.556 118.315Z" fill="#553597"/>
<path d="M305.99 125.016L283.307 119.403C282.859 119.294 282.647 118.847 282.734 118.473C282.839 118.024 283.207 117.797 283.655 117.907L306.338 123.52C306.786 123.629 306.997 124.076 306.91 124.45C306.749 124.806 306.363 125.108 305.99 125.016Z" fill="#553597"/>
<path d="M304.369 131.622L281.686 126.009C281.238 125.899 281.026 125.452 281.113 125.078C281.217 124.629 281.586 124.403 282.034 124.512L304.717 130.125C305.165 130.235 305.376 130.682 305.289 131.056C305.185 131.505 304.817 131.731 304.369 131.622Z" fill="#553597"/>
<path d="M296.009 136.675L280.102 132.79C279.654 132.68 279.442 132.233 279.529 131.858C279.634 131.409 280.002 131.182 280.45 131.292L296.357 135.177C296.805 135.286 297.016 135.734 296.929 136.108C296.842 136.483 296.382 136.766 296.009 136.675Z" fill="#553597"/>
<path d="M316.755 112.095L307.706 109.884C306.659 109.628 305.775 109.011 305.204 108.068C304.632 107.125 304.488 106.045 304.735 104.981L306.871 95.7846C306.941 95.4806 307.161 95.2131 307.478 95.2102C307.813 95.1313 308.094 95.2804 308.266 95.5633L317.579 110.931C317.75 111.214 317.754 111.536 317.534 111.804C317.332 111.995 317.054 112.168 316.755 112.095ZM307.886 97.88L306.173 105.253C306.015 105.937 306.098 106.6 306.441 107.165C306.783 107.731 307.329 108.105 308.002 108.27L315.256 110.042L307.886 97.88Z" fill="#553597"/>
<path d="M290.223 109.065C293.06 109.805 295.949 108.062 296.676 105.171C297.403 102.28 295.693 99.3361 292.856 98.5953C290.019 97.8545 287.129 99.5975 286.402 102.489C285.675 105.38 287.386 108.324 290.223 109.065Z" fill="white" stroke="#553597" stroke-width="1.47311" stroke-miterlimit="15.11"/>
<mask id="mask2_3762_110060" style="mask-type:luminance" maskUnits="userSpaceOnUse" x="286" y="98" width="11" height="11">
<path d="M296.262 100.866L288.689 98.8594L286.797 106.497L294.369 108.504L296.262 100.866Z" fill="white"/>
</mask>
<g mask="url(#mask2_3762_110060)">
<path d="M294.55 103.364L292.836 102.908L293.261 101.183L291.168 100.626L290.743 102.351L289.029 101.895L288.509 104L290.223 104.456L289.798 106.18L291.891 106.737L292.316 105.013L294.031 105.469L294.55 103.364Z" fill="#553597" stroke="#553597" stroke-width="0.18897" stroke-miterlimit="11.34"/>
</g>
<mask id="mask3_3762_110060" style="mask-type:luminance" maskUnits="userSpaceOnUse" x="0" y="131" width="98" height="96">
<path d="M61.4066 131.432L0.938477 183.402L36.8177 226.774L97.2858 174.804L61.4066 131.432Z" fill="white"/>
</mask>
<g mask="url(#mask3_3762_110060)">
<path d="M82.1741 170.215C82.0997 170.279 82.0096 170.321 81.9138 170.337C81.8179 170.353 81.72 170.342 81.6307 170.305C79.5264 169.439 78.8432 170.292 77.698 171.702C76.6698 172.977 75.3893 174.559 72.6684 174.929L72.6076 174.939C69.7545 174.99 68.3176 173.739 67.5718 172.544C66.089 172.999 64.5041 172.921 63.085 172.323C61.6901 171.741 60.4642 170.813 59.518 169.623C57.4048 170.404 55.1029 170.435 52.9895 169.711C51.9318 169.286 50.9972 168.6 50.2686 167.715C49.6365 168.117 48.9331 168.388 48.2 168.511C47.467 168.634 46.7191 168.606 46.0006 168.43C44.7278 168.246 43.5408 167.686 42.586 166.82C40.7293 168.192 38.2946 168.127 35.8659 166.626C35.8419 166.605 35.8214 166.581 35.8051 166.553C33.7139 164.629 32.6972 162.704 32.6853 160.675C32.6848 160.605 32.698 160.535 32.7241 160.469C32.7502 160.403 32.7887 160.343 32.8374 160.292C32.8862 160.241 32.9442 160.2 33.0081 160.172C33.0721 160.143 33.1407 160.128 33.2102 160.126C33.2796 160.125 33.3485 160.137 33.4128 160.163C33.4772 160.189 33.5358 160.227 33.5852 160.276C33.6347 160.325 33.6741 160.383 33.7011 160.448C33.7282 160.513 33.7424 160.582 33.7429 160.653C33.7584 162.35 34.6449 164.018 36.4829 165.719C38.4733 166.934 40.3572 167.046 41.8359 166.047C40.6491 164.722 39.9031 163.073 39.9407 161.7C39.9311 161.392 39.9829 161.085 40.093 160.797C40.2032 160.508 40.3693 160.245 40.5814 160.022C40.7935 159.799 41.0472 159.622 41.3272 159.501C41.6072 159.379 41.9076 159.317 42.2105 159.316C42.7696 159.285 43.321 159.44 43.7814 159.757C44.2418 160.075 44.586 160.537 44.762 161.075C45.2763 162.595 44.6644 164.649 43.3867 166.076C44.1623 166.768 45.1221 167.214 46.1495 167.359L46.2157 167.372C46.7868 167.519 47.3826 167.548 47.9681 167.458C48.5535 167.367 49.1167 167.158 49.6246 166.844C48.4915 165.088 48.0439 162.953 48.4737 161.382C48.9034 159.812 50.1258 159.083 51.7717 159.344C52.1769 159.407 52.5552 159.584 52.8635 159.856C53.1719 160.128 53.3979 160.483 53.5158 160.882C54.0126 162.43 53.2659 164.775 51.7083 166.484C51.5222 166.688 51.3248 166.881 51.1172 167.062C51.7104 167.77 52.4647 168.319 53.3161 168.663C55.115 169.278 57.0683 169.285 58.8876 168.684C58.4318 167.924 58.1457 167.07 58.0493 166.181C57.953 165.292 58.0486 164.39 58.3297 163.537C59.0104 161.674 60.6161 160.762 62.326 161.268C63.9048 161.775 64.5387 163.297 63.956 165.152C63.3475 166.878 62.1213 168.313 60.5246 169.169C61.3476 170.123 62.3761 170.869 63.5319 171.353C64.6622 171.825 65.9185 171.905 67.1084 171.581C66.3122 169.41 66.8537 166.683 68.3414 165.376C68.7989 164.975 69.3686 164.732 69.9672 164.682C70.5658 164.633 71.1618 164.779 71.6677 165.1C73.0281 165.83 73.4168 167.164 72.6898 168.669C72.0319 170.03 70.4846 171.416 68.625 172.197C69.4403 173.326 70.8096 173.915 72.5828 173.885C74.865 173.564 75.8973 172.286 76.8991 171.055C78.045 169.637 79.2288 168.173 82.0511 169.336C82.1804 169.389 82.283 169.492 82.3365 169.622C82.39 169.753 82.3899 169.901 82.3364 170.033C82.295 170.104 82.2397 170.166 82.1741 170.215ZM68.1054 171.234C69.7677 170.566 71.1648 169.351 71.7307 168.181C72.2038 167.209 72.0038 166.48 71.1432 166.019C70.8269 165.796 70.4447 165.689 70.0582 165.715C69.6716 165.741 69.3031 165.898 69.0118 166.161C67.9934 167.037 67.4077 169.257 68.071 171.159C68.0878 171.181 68.0995 171.206 68.1054 171.234ZM59.9022 168.308C61.3225 167.611 62.4278 166.383 62.9845 164.884C63.1322 164.408 63.5113 162.819 62.0412 162.351C60.6414 161.934 59.7432 162.929 59.3626 163.955C59.127 164.68 59.0533 165.447 59.1466 166.2C59.24 166.953 59.4982 167.674 59.9022 168.308ZM50.0372 160.73C49.768 160.977 49.5783 161.301 49.4931 161.658C49.1989 162.847 49.5339 164.653 50.5212 166.199C50.6916 166.053 50.8539 165.913 50.9615 165.758C52.2195 164.383 52.9125 162.384 52.5418 161.223C52.4837 161.008 52.3648 160.816 52.1997 160.67C52.0346 160.524 51.8306 160.431 51.6127 160.402C51.3443 160.333 51.0633 160.327 50.7905 160.383C50.5178 160.44 50.2603 160.559 50.0372 160.73ZM41.389 160.707C41.2533 160.841 41.1478 161.003 41.0799 161.182C41.0121 161.361 40.9835 161.552 40.9962 161.742C40.971 162.769 41.6293 164.186 42.6535 165.365C43.7702 164.147 44.127 162.472 43.7879 161.458C43.6863 161.13 43.477 160.847 43.1946 160.659C42.9121 160.47 42.5734 160.385 42.2346 160.42C41.9312 160.422 41.6351 160.523 41.389 160.707Z" fill="#553597"/>
<path d="M40.4713 154.023C41.2777 153.33 41.5176 152.268 41.007 151.651C40.4964 151.033 39.4287 151.095 38.6223 151.788C37.8158 152.481 37.576 153.543 38.0866 154.161C38.5972 154.778 39.6649 154.716 40.4713 154.023Z" fill="#553597"/>
<path d="M17.1294 180.193C17.8296 179.39 17.9596 178.345 17.4197 177.859C16.8797 177.374 15.8744 177.632 15.1741 178.435C14.4739 179.239 14.3439 180.284 14.8839 180.77C15.4238 181.255 16.4292 180.997 17.1294 180.193Z" fill="#553597"/>
<path d="M4.7014 184.255C5.66904 183.423 6.00332 182.205 5.44804 181.534C4.89276 180.863 3.65818 180.993 2.69054 181.824C1.7229 182.656 1.38862 183.874 1.94391 184.545C2.49919 185.217 3.73376 185.087 4.7014 184.255Z" fill="#553597"/>
<path d="M91.3303 177.815C90.9868 176.781 89.6194 176.329 88.2761 176.806C86.9329 177.282 86.1224 178.506 86.4659 179.54C86.8094 180.574 88.1768 181.026 89.52 180.55C90.8633 180.073 91.6737 178.849 91.3303 177.815Z" fill="#EDE3FF"/>
<path d="M69.6057 142.388C69.3615 141.653 68.3906 141.332 67.4371 141.67C66.4835 142.008 65.9085 142.878 66.1526 143.613C66.3968 144.348 67.3677 144.669 68.3213 144.331C69.2748 143.993 69.8499 143.123 69.6057 142.388Z" fill="#EDE3FF"/>
<path d="M69.3858 144.32C69.1223 144.547 68.8196 144.722 68.4936 144.836C67.9502 145.04 67.3584 145.058 66.8087 144.888C66.5437 144.81 66.3012 144.67 66.1007 144.479C65.9002 144.287 65.7473 144.05 65.6544 143.786C65.3154 142.772 66.0426 141.596 67.2719 141.161C67.8152 140.956 68.4071 140.938 68.9568 141.108C69.2222 141.185 69.4651 141.325 69.6657 141.517C69.8663 141.708 70.0189 141.946 70.1111 142.21C70.2134 142.592 70.1989 142.999 70.0694 143.375C69.9399 143.752 69.7015 144.081 69.3858 144.32ZM67.039 142.498C66.8913 142.599 66.776 142.742 66.7076 142.909C66.6393 143.076 66.621 143.259 66.6552 143.435C66.6981 143.54 66.7642 143.633 66.8483 143.707C66.9325 143.781 67.0324 143.834 67.1406 143.863C67.4736 143.96 67.8298 143.947 68.158 143.826C68.823 143.589 69.2606 143.011 69.1103 142.561C69.0665 142.456 68.9998 142.362 68.9152 142.287C68.8306 142.213 68.7302 142.159 68.6215 142.129C68.2892 142.033 67.9341 142.048 67.6075 142.17C67.4 142.243 67.2072 142.354 67.039 142.498Z" fill="#553597"/>
<path d="M61.5697 152.371C61.6924 151.469 60.3139 150.548 58.4907 150.314C56.6675 150.08 55.09 150.622 54.9673 151.525C54.8446 152.427 56.2231 153.348 58.0463 153.582C59.8696 153.815 61.447 153.273 61.5697 152.371Z" fill="#EDE3FF"/>
<path d="M61.5344 153.398C60.8204 154.012 59.5032 154.3 57.9628 154.116C55.7832 153.839 54.2659 152.693 54.4366 151.464C54.6072 150.235 56.372 149.507 58.5549 149.788C59.4406 149.884 60.2922 150.177 61.0488 150.647C61.8079 151.153 62.1668 151.78 62.0886 152.44C62.0283 152.818 61.8303 153.16 61.5344 153.398ZM55.6543 151.325C55.5634 151.392 55.4988 151.49 55.4723 151.6C55.4138 152.041 56.4442 152.859 58.0826 153.077C59.7209 153.296 60.9511 152.769 61.013 152.332C61.0395 152.12 60.8053 151.812 60.4305 151.569C59.8068 151.19 59.1077 150.955 58.3817 150.88C57.0974 150.678 56.0681 150.969 55.6664 151.315L55.6543 151.325Z" fill="#553597"/>
<path d="M74.8897 181.148C74.5021 180.471 73.065 180.596 71.6797 181.428C70.2945 182.26 69.4858 183.482 69.8734 184.159C70.261 184.836 71.6981 184.711 73.0834 183.879C74.4686 183.047 75.2773 181.824 74.8897 181.148Z" fill="#EDE3FF"/>
</g>
<defs>
<clipPath id="clip0_3762_110060">
<rect width="246" height="244" fill="white" transform="translate(48.9385 0.681641)"/>
</clipPath>
</defs>
</svg>
