<svg width="260" height="245" viewBox="0 0 260 245" fill="none" xmlns="http://www.w3.org/2000/svg">
<g clip-path="url(#clip0_3733_86715)">
<mask id="mask0_3733_86715" style="mask-type:luminance" maskUnits="userSpaceOnUse" x="-377" y="-340" width="1014" height="924">
<path d="M636.787 -339.082H-376.759V583.846H636.787V-339.082Z" fill="white"/>
</mask>
<g mask="url(#mask0_3733_86715)">
<path d="M77.1255 234.455C-0.666614 221.689 -20.0856 152.137 22.7834 98.7381C50.6521 64.0208 47.6288 21.0912 118.212 8.01382C241.818 -14.8716 245.578 81.2626 257.671 146.922C274.222 236.517 174.685 250.412 77.1255 234.455Z" fill="#EDE3FF"/>
</g>
<mask id="mask1_3733_86715" style="mask-type:luminance" maskUnits="userSpaceOnUse" x="-339" y="-782" width="941" height="1809">
<path d="M601.73 -781.966H-338.226V1026.93H601.73V-781.966Z" fill="white"/>
</mask>
<g mask="url(#mask1_3733_86715)">
<path d="M98.481 0.713379H164.952C181.332 0.713379 194.641 14.0637 194.641 30.4948V214.465C194.641 230.896 181.332 244.246 164.952 244.246H98.481C82.1008 244.246 68.792 230.896 68.792 214.465V30.4948C68.792 14.0637 82.1008 0.713379 98.481 0.713379Z" fill="#553597"/>
<path d="M164.951 244.98H98.4803C81.6614 244.98 68.0601 231.336 68.0601 214.465V30.495C68.0601 13.6237 81.6614 -0.0200195 98.4803 -0.0200195H164.951C181.77 -0.0200195 195.372 13.6237 195.372 30.495V214.465C195.372 231.336 181.697 244.98 164.951 244.98ZM98.4803 1.44705C82.4658 1.44705 69.5226 14.4306 69.5226 30.495V214.465C69.5226 230.456 82.4658 243.513 98.4803 243.513H164.951C180.966 243.513 193.909 230.529 193.909 214.465V30.495C193.836 14.4306 180.893 1.44705 164.951 1.44705H98.4803Z" fill="#553597"/>
<path d="M186.962 22.7197H76.3965V208.744H186.962V22.7197Z" fill="#EDE3FF"/>
<path d="M76.3965 208.744H88.0234L173.142 22.7197H145.208L76.3965 172.947V208.744Z" fill="white"/>
<path d="M128.828 22.7197H119.467L76.3965 116.832V137.224L128.828 22.7197Z" fill="white"/>
<path d="M117.42 10.8364H146.012C147.109 10.8364 147.987 11.7167 147.987 12.817C147.987 13.9173 147.109 14.7975 146.012 14.7975H117.42C116.323 14.7975 115.446 13.9173 115.446 12.817C115.446 11.7167 116.323 10.8364 117.42 10.8364Z" fill="#EDE3FF"/>
<path d="M146.012 15.4574H117.42C115.957 15.4574 114.714 14.2838 114.714 12.7434C114.714 11.203 115.884 10.0293 117.42 10.0293H146.012C147.474 10.0293 148.717 11.203 148.717 12.7434C148.717 14.2838 147.474 15.4574 146.012 15.4574ZM117.42 11.5697C116.761 11.5697 116.176 12.1565 116.176 12.8167C116.176 13.4769 116.761 14.0637 117.42 14.0637H146.012C146.67 14.0637 147.255 13.4769 147.255 12.8167C147.255 12.1565 146.67 11.5697 146.012 11.5697H117.42Z" fill="#553597"/>
<path d="M101.844 63.2106H97.3832C92.4107 63.2106 88.4619 59.1762 88.4619 54.2615V49.787C88.4619 44.799 92.4838 40.8379 97.3832 40.8379H101.844C106.743 40.8379 110.765 44.8723 110.765 49.787V54.2615C110.765 59.1762 106.816 63.1373 101.844 63.2106ZM97.3832 42.2316C93.2882 42.2316 89.9244 45.6059 89.9244 49.7136V54.1882C89.9244 58.296 93.2882 61.6702 97.3832 61.6702H101.844C105.939 61.6702 109.303 58.296 109.303 54.1882V49.7136C109.303 45.6059 105.939 42.2316 101.844 42.2316H97.3832Z" fill="#553597"/>
<path d="M134.824 63.2106H130.363C125.391 63.2106 121.442 59.1762 121.442 54.2615V49.787C121.442 44.799 125.464 40.8379 130.363 40.8379H134.824C139.723 40.8379 143.745 44.8723 143.745 49.787V54.2615C143.745 59.1762 139.723 63.1373 134.824 63.2106ZM130.29 42.2316C126.122 42.2316 122.831 45.6059 122.831 49.7136V54.1882C122.831 58.3693 126.195 61.6702 130.29 61.6702H134.751C138.846 61.6702 142.21 58.296 142.21 54.1882V49.7136C142.21 45.6059 138.846 42.2316 134.751 42.2316H130.29Z" fill="#553597"/>
<path d="M167.729 63.2106H163.268C158.369 63.2106 154.347 59.1762 154.347 54.2615V49.787C154.347 44.8723 158.369 40.8379 163.268 40.8379H167.729C172.702 40.8379 176.65 44.8723 176.65 49.787V54.2615C176.65 59.1762 172.629 63.2106 167.729 63.2106ZM163.268 42.2316C159.173 42.2316 155.81 45.6059 155.81 49.7136V54.1882C155.81 58.296 159.173 61.6702 163.268 61.6702H167.729C171.897 61.6702 175.188 58.296 175.188 54.1882V49.7136C175.188 45.5325 171.824 42.2316 167.729 42.2316H163.268Z" fill="#553597"/>
<path d="M101.844 94.3854H97.3832C92.4107 94.3854 88.4619 90.351 88.4619 85.4363V80.9618C88.4619 75.9738 92.4838 72.0127 97.3832 72.0127H101.844C106.816 72.0127 110.765 76.0471 110.765 80.9618V85.4363C110.838 90.351 106.816 94.3854 101.844 94.3854ZM97.3832 73.4064C93.2882 73.4064 89.9244 76.7807 89.9244 80.8884V85.363C89.9244 89.4708 93.2882 92.845 97.3832 92.845H101.844C105.939 92.845 109.303 89.4708 109.303 85.363V80.8884C109.303 76.7807 105.939 73.4064 101.844 73.4064H97.3832Z" fill="#553597"/>
<path d="M134.824 94.3854H130.363C125.391 94.3854 121.442 90.351 121.442 85.4363V80.9618C121.442 75.9738 125.464 72.0127 130.363 72.0127H134.824C139.796 72.0127 143.745 76.0471 143.745 80.9618V85.4363C143.745 90.351 139.723 94.3854 134.824 94.3854ZM130.29 73.4064C126.122 73.4064 122.831 76.7807 122.831 80.8884V85.363C122.831 89.5441 126.195 92.845 130.29 92.845H134.751C138.846 92.845 142.21 89.4708 142.21 85.363V80.8884C142.21 76.7807 138.846 73.4064 134.751 73.4064H130.29Z" fill="#553597"/>
<path d="M167.729 94.3854H163.268C158.296 94.3854 154.347 90.351 154.347 85.4363V80.9618C154.347 75.9738 158.369 72.0127 163.268 72.0127H167.729C172.702 72.0127 176.65 76.0471 176.65 80.9618V85.4363C176.65 90.351 172.629 94.3854 167.729 94.3854ZM163.268 73.4064C159.173 73.4064 155.81 76.7807 155.81 80.8884V85.363C155.81 89.4708 159.173 92.845 163.268 92.845H167.729C171.897 92.845 175.188 89.4708 175.188 85.363V80.8884C175.188 76.7073 171.824 73.4064 167.729 73.4064H163.268Z" fill="#553597"/>
<path d="M101.844 125.561H97.3832C92.4838 125.561 88.4619 121.526 88.4619 116.612V112.137C88.4619 107.149 92.4838 103.188 97.3832 103.188H101.844C106.816 103.188 110.765 107.222 110.765 112.137V116.612C110.765 121.526 106.816 125.561 101.844 125.561ZM97.3832 104.582C93.2151 104.582 89.9244 107.956 89.9244 112.064V116.538C89.9244 120.646 93.2882 124.02 97.3832 124.02H101.844C105.939 124.02 109.303 120.646 109.303 116.538V112.064C109.303 107.883 105.939 104.582 101.844 104.582H97.3832Z" fill="#553597"/>
<path d="M134.824 125.561H130.363C125.464 125.561 121.442 121.526 121.442 116.612V112.137C121.442 107.149 125.464 103.188 130.363 103.188H134.824C139.796 103.188 143.745 107.222 143.745 112.137V116.612C143.745 121.526 139.723 125.561 134.824 125.561ZM130.29 104.582C126.122 104.582 122.831 107.956 122.831 112.064V116.538C122.831 120.719 126.195 124.02 130.29 124.02H134.751C138.846 124.02 142.21 120.646 142.21 116.538V112.064C142.21 107.883 138.846 104.582 134.751 104.582H130.29Z" fill="#553597"/>
<path d="M167.729 125.561H163.268C158.369 125.561 154.347 121.526 154.347 116.612V112.137C154.347 107.149 158.369 103.188 163.268 103.188H167.729C172.702 103.188 176.65 107.222 176.65 112.137V116.612C176.65 121.526 172.629 125.561 167.729 125.561ZM163.268 104.582C159.1 104.582 155.81 107.956 155.81 112.064V116.538C155.81 120.646 159.173 124.02 163.268 124.02H167.729C171.897 124.02 175.188 120.646 175.188 116.538V112.064C175.188 107.883 171.824 104.582 167.729 104.582H163.268Z" fill="#553597"/>
<path d="M101.844 155.635H97.3832C92.4107 155.635 88.4619 151.601 88.4619 146.686V142.212C88.4619 137.224 92.4838 133.263 97.3832 133.263H101.844C106.743 133.263 110.765 137.297 110.765 142.212V146.686C110.838 151.674 106.816 155.635 101.844 155.635ZM97.3832 134.73C93.2882 134.73 89.9244 138.104 89.9244 142.212V146.686C89.9244 150.867 93.2882 154.168 97.3832 154.168H101.844C106.012 154.168 109.303 150.794 109.303 146.686V142.212C109.303 138.104 105.939 134.73 101.844 134.73H97.3832Z" fill="#553597"/>
<path d="M134.824 155.635H130.363C125.391 155.635 121.442 151.601 121.442 146.686V142.212C121.442 137.224 125.464 133.263 130.363 133.263H134.824C139.723 133.263 143.745 137.297 143.745 142.212V146.686C143.745 151.674 139.723 155.635 134.824 155.635ZM130.29 134.73C126.122 134.73 122.831 138.104 122.831 142.212V146.686C122.831 150.867 126.195 154.168 130.29 154.168H134.751C138.919 154.168 142.21 150.794 142.21 146.686V142.212C142.21 138.104 138.846 134.73 134.751 134.73H130.29Z" fill="#553597"/>
<path d="M167.729 155.635H163.268C158.296 155.635 154.347 151.601 154.347 146.686V142.212C154.347 137.297 158.369 133.263 163.268 133.263H167.729C172.702 133.263 176.65 137.297 176.65 142.212V146.686C176.65 151.674 172.629 155.635 167.729 155.635ZM163.268 134.73C159.173 134.73 155.81 138.104 155.81 142.212V146.686C155.81 150.867 159.173 154.168 163.268 154.168H167.729C171.897 154.168 175.188 150.794 175.188 146.686V142.212C175.188 138.031 171.824 134.73 167.729 134.73H163.268Z" fill="#553597"/>
<path d="M131.679 233.537C127.072 233.537 123.416 229.796 123.416 225.175C123.416 220.553 127.145 216.886 131.752 216.886C136.359 216.886 140.015 220.627 140.015 225.248C140.015 229.869 136.286 233.537 131.679 233.537ZM131.679 218.353C127.876 218.353 124.805 221.434 124.805 225.248C124.805 229.062 127.876 232.143 131.679 232.143C135.481 232.143 138.553 229.062 138.553 225.248C138.553 221.434 135.481 218.353 131.679 218.353Z" fill="#EDE3FF"/>
<path d="M186.962 209.477H76.3963C75.9575 209.477 75.665 209.183 75.665 208.743V22.7194C75.665 22.2793 75.9575 21.9858 76.3963 21.9858H186.962C187.401 21.9858 187.693 22.2793 187.693 22.7194V208.743C187.693 209.11 187.401 209.477 186.962 209.477ZM77.1276 208.01H186.231V23.4529H77.1276V208.01Z" fill="#553597"/>
</g>
<mask id="mask2_3733_86715" style="mask-type:luminance" maskUnits="userSpaceOnUse" x="-911" y="-490" width="2086" height="1204">
<path d="M1174.03 713.391L1174.03 -489.03L-910.55 -489.03L-910.55 713.391L1174.03 713.391Z" fill="white"/>
</mask>
<g mask="url(#mask2_3733_86715)">
<path d="M186.542 208.08L186.542 16.2798L76.9403 16.2798L76.9403 208.08L186.542 208.08Z" fill="#EDE3FF"/>
</g>
<mask id="mask3_3733_86715" style="mask-type:luminance" maskUnits="userSpaceOnUse" x="-248" y="-109" width="760" height="529">
<path d="M511.42 -108.238H-247.776V419.454H511.42V-108.238Z" fill="white"/>
</mask>
<g mask="url(#mask3_3733_86715)">
<path d="M130.91 133.83C142.064 133.83 151.065 128.103 151.065 121.002C151.065 113.9 142.031 108.173 130.91 108.173C119.755 108.173 110.754 113.9 110.754 121.002C110.754 128.103 119.755 133.83 130.91 133.83Z" fill="#553597"/>
<path d="M130.91 134.157C119.592 134.157 110.428 128.267 110.428 121.002C110.428 113.737 119.625 107.846 130.91 107.846C142.194 107.846 151.424 113.737 151.424 121.002C151.424 128.267 142.194 134.157 130.91 134.157ZM130.91 108.533C119.951 108.533 111.08 114.129 111.08 121.034C111.08 127.939 119.984 133.535 130.91 133.535C141.835 133.535 150.772 127.939 150.772 121.034C150.772 114.129 141.835 108.533 130.91 108.533Z" fill="#553597"/>
<path d="M132.703 235.375C177.417 235.375 213.652 228.83 213.652 220.747C213.652 212.664 177.417 206.119 132.703 206.119C87.989 206.119 51.7871 212.664 51.7871 220.747C51.7871 228.83 88.0216 235.375 132.703 235.375Z" fill="#553597"/>
<path d="M132.703 235.703C111.047 235.703 90.7281 234.165 75.3994 231.416C66.463 229.812 51.4604 226.278 51.4604 220.747C51.4604 215.217 66.4956 211.715 75.432 210.079C90.7281 207.297 111.079 205.792 132.735 205.792C154.391 205.792 174.71 207.33 190.039 210.079C199.008 211.715 214.01 215.25 214.01 220.747C214.01 226.245 198.975 229.779 190.039 231.416C174.71 234.197 154.359 235.703 132.703 235.703ZM132.703 206.446C111.112 206.446 90.7933 207.952 75.5298 210.733C60.6577 213.417 52.1127 217.082 52.1127 220.747C52.1127 224.413 60.6577 228.078 75.5624 230.761C90.8259 233.51 111.145 235.048 132.735 235.048C154.326 235.048 174.645 233.543 189.908 230.761C204.813 228.078 213.358 224.413 213.358 220.747C213.358 217.082 204.813 213.417 189.908 210.733C174.612 207.985 154.326 206.446 132.703 206.446Z" fill="#553597"/>
<path d="M244.636 126.499C240.396 101.858 233.058 123.489 233.058 123.489C231.003 141.258 205.14 168.42 173.21 145.12C149.174 127.579 129.703 133.47 129.703 133.47C129.703 133.47 111.178 130.983 87.1413 146.233C70.7037 156.705 49.113 167.799 42.9815 121.722C40.9594 110.464 33.132 127.514 33.132 127.514C33.132 127.514 26.5113 211.748 91.3159 188.972C86.9456 202.585 84.6626 220.682 83.5863 232.365C97.2191 234.263 114.244 235.376 132.703 235.376C152.924 235.376 171.384 234.034 185.571 231.809C183.908 220.093 180.516 202.127 173.928 186.255C209.249 197.284 239.776 163.479 244.636 126.499Z" fill="white"/>
<path d="M94.3161 179.841C94.3161 179.841 100.937 179.939 98.6538 190.215C96.3708 200.491 92.9789 199.313 91.8048 206.839C90.6307 214.366 98.1972 228.503 95.4576 233.641C91.707 233.543 83.2925 232.169 83.2925 232.169C83.2925 232.169 87.9889 194.698 92.4245 184.128C93.5334 181.543 94.3161 179.841 94.3161 179.841Z" fill="#EDE3FF"/>
<path d="M141.248 145.938C141.248 145.938 135.769 142.502 134.105 144.203C132.442 145.938 132.312 151.37 133.42 156.41C133.812 158.177 135.345 164.46 134.105 170.776C132.866 177.092 133.91 197.643 134.79 206.643C136.16 220.714 137.399 222.711 137.954 235.343C135.084 235.473 132.051 235.343 132.051 235.343L131.072 137.593C131.072 137.625 134.105 139.327 141.248 145.938Z" fill="#EDE3FF"/>
<path d="M132.704 235.703C114.766 235.703 97.7737 234.656 83.5539 232.692C83.456 232.692 83.3908 232.627 83.3582 232.561C83.293 232.496 83.293 232.398 83.293 232.332C84.4345 220.093 86.6523 202.814 90.8269 189.495C74.1936 195.189 60.8217 194.273 51.0374 186.714C39.8833 178.107 35.5456 162.301 33.8823 150.552C32.7734 142.731 32.4473 134.812 32.9039 126.925C32.9039 126.892 32.9039 126.859 32.9365 126.794C33.3931 125.845 37.6003 117.467 40.7639 117.925C42.0033 118.089 42.8512 119.496 43.3404 122.212C45.7213 140.146 50.5156 150.585 58.0169 154.087C66.6271 158.112 77.4876 152.025 86.9784 146.004C110.102 131.343 128.399 133.044 129.703 133.175C130.323 133.012 135.052 131.768 142.521 132.423C149.761 133.077 160.98 135.793 173.439 144.891C189.485 156.606 202.727 154.741 211.011 151.076C223.73 145.48 231.721 132.684 232.797 123.489C232.797 123.456 232.797 123.456 232.797 123.423C232.927 123.031 236.058 114.162 239.679 114.489C242.059 114.686 243.886 118.645 245.256 126.565C245.256 126.598 245.256 126.63 245.256 126.663C240.853 151.338 228.394 172.053 211.956 182.099C200.541 189.07 187.626 190.706 174.548 186.812C180.908 202.389 184.267 219.831 185.963 231.809C185.963 231.907 185.963 231.972 185.898 232.038C185.832 232.103 185.767 232.169 185.669 232.169C170.96 234.459 152.142 235.703 132.704 235.703ZM83.9453 232.103C98.0673 234.034 114.929 235.048 132.704 235.048C151.946 235.048 170.602 233.805 185.213 231.547C183.484 219.471 180.092 201.931 173.635 186.386C173.602 186.321 173.602 186.255 173.602 186.19C173.602 186.124 173.635 186.059 173.667 186.026C173.7 185.994 173.765 185.961 173.83 185.928C173.896 185.895 173.961 185.895 173.993 185.928C187.104 190.019 200.085 188.481 211.532 181.478C227.807 171.529 240.135 151.01 244.506 126.565C242.907 117.271 240.918 115.209 239.548 115.078C236.972 114.849 234.232 121.1 233.351 123.554C232.764 128.594 230.351 134.157 226.6 139.197C222.458 144.727 217.142 149.014 211.206 151.632C202.792 155.363 189.322 157.294 173.015 145.382C149.402 128.136 129.964 133.699 129.768 133.764C129.736 133.764 129.671 133.764 129.638 133.764C129.442 133.732 110.917 131.474 87.2719 146.494C79.8032 151.24 71.5518 155.985 64.0505 155.985C61.8654 156.017 59.6802 155.559 57.6907 154.61C49.9938 151.01 45.069 140.408 42.6555 122.245C42.2316 119.954 41.5467 118.645 40.6335 118.514C38.3505 118.187 34.7629 124.47 33.5235 126.99C33.0996 134.812 33.4257 142.666 34.502 150.421C36.1653 162.039 40.4378 177.681 51.3962 186.157C61.1152 193.651 74.4871 194.502 91.1856 188.612C91.2509 188.579 91.3161 188.579 91.3487 188.612C91.4139 188.612 91.4466 188.644 91.5118 188.71C91.5444 188.742 91.577 188.808 91.6096 188.873C91.6096 188.939 91.6096 189.004 91.6096 189.037C87.3698 202.291 85.1194 219.7 83.9453 232.103Z" fill="#553597"/>
<path d="M91.5766 189.331C93.1421 184.75 94.7728 182.656 95.947 180.234C93.1421 179.219 90.533 178.565 87.1737 182.59C83.8144 186.615 81.3684 187.957 72.6603 187.073C66.9855 186.484 65.2895 189.888 64.8003 192.309C71.9102 193.553 80.6182 192.702 91.3157 188.971C91.2831 189.07 91.6093 189.233 91.5766 189.331Z" fill="#553597"/>
<path d="M200.509 157.359C204.52 160.042 213.457 160.271 217.273 154.905C221.088 149.538 224.187 147.738 230.677 143.909C235.634 140.996 234.819 133.306 232.145 128.986C228.133 141.062 215.153 154.676 197.802 154.512C198.519 155.592 199.432 156.574 200.509 157.359Z" fill="#EDE3FF"/>
<path d="M239.059 137.691C238.7 142.371 238.765 149.276 234.754 152.09C230.742 154.905 224.513 156.901 223.045 164.199C222.458 166.849 222.589 169.631 223.404 172.216C233.971 160.926 240.755 146.658 243.755 131.866C242.288 131.899 239.32 134.353 239.059 137.691Z" fill="#553597"/>
<path d="M66.7245 159.224C74.0953 160.337 77.2263 153.17 82.3794 152.483C87.5324 151.796 98.6865 146.887 103.84 142.633C105.96 140.833 107.786 138.739 109.286 136.415C102.861 138.28 95.262 141.422 87.0106 146.658C78.1721 152.254 68.0943 158.177 59.7124 155.232C60.9844 156.934 63.1369 158.701 66.7245 159.224Z" fill="#EDE3FF"/>
<path d="M181.658 182.427C177.809 178.041 168.482 174.834 167.471 179.449C169.884 183.048 172.493 186.517 175.298 189.822H175.363C174.907 188.644 174.45 187.466 173.961 186.288C182.473 188.939 191.573 189.07 200.183 186.615C199.27 186.125 198.291 185.732 197.28 185.47C190.855 183.605 185.506 186.779 181.658 182.427Z" fill="#553597"/>
<path d="M132.051 235.539C131.953 235.539 131.888 235.506 131.823 235.441C131.758 235.375 131.725 235.31 131.725 235.212L130.747 137.266C130.747 137.168 130.779 137.102 130.844 137.037C130.91 136.971 130.975 136.938 131.073 136.938C131.171 136.938 131.236 136.971 131.301 137.037C131.366 137.102 131.399 137.168 131.399 137.266L132.345 235.179C132.345 235.277 132.312 235.343 132.247 235.408C132.214 235.506 132.116 235.539 132.051 235.539Z" fill="#553597"/>
<path d="M244.374 110.628C246.005 111.773 246.005 111.217 247.048 113.638C247.048 113.638 245.809 120.511 245.092 126.27C241.211 128.463 236.808 127.808 232.926 125.616C233.122 123.456 230.122 117.86 224.642 113.998C221.316 111.642 223.892 108.762 227.708 111.642C229.926 113.311 230.578 114.26 230.578 114.26C231.752 113.769 232.6 115.111 233.546 115.176C235.797 112.231 237.59 107.355 233.677 99.9265C232.926 98.323 232.666 95.2796 236.514 99.0757C238.569 101.792 239.808 104.966 240.33 108.533C241.439 105.326 241.504 101.792 240.982 98.0939C240.721 95.705 242.45 93.5451 243.852 97.6031C244.863 102.217 245.189 106.602 244.374 110.628Z" fill="#EDE3FF"/>
<path d="M235.894 121.656C235.894 121.656 237.101 114.031 231.067 114.457C229.404 114.947 229.339 116.093 231.491 115.798C233.644 115.504 235.503 118.351 235.894 121.656Z" fill="white"/>
<path d="M242.255 110.006C242.255 110.006 238.178 109.548 237.689 115.111C237.46 118.449 239.189 116.583 239.254 115.176C239.319 113.769 238.895 112.329 242.255 110.006Z" fill="white"/>
<path d="M243.885 111.446C243.885 111.446 240.428 111.675 240.754 116.715C240.885 118.482 241.961 117.565 242.124 116.453C242.254 115.34 241.276 113.737 243.885 111.446Z" fill="white"/>
<path d="M239.059 117.533H238.896C238.113 117.467 237.33 116.747 237.428 115.406C237.526 114.064 237.754 110.006 241.57 109.711C244.147 109.515 245.125 111.119 245.158 111.217C245.19 111.282 245.19 111.38 245.158 111.446C245.125 111.511 245.093 111.577 245.027 111.642C244.962 111.675 244.864 111.708 244.799 111.675C244.734 111.642 244.636 111.61 244.603 111.544C244.571 111.479 243.755 110.202 241.635 110.366C238.733 110.595 238.211 113.377 238.113 115.438C238.048 116.355 238.537 116.813 239.026 116.878C239.581 116.944 240.168 116.486 240.364 115.406C240.364 115.307 240.429 115.242 240.494 115.177C240.559 115.111 240.657 115.111 240.755 115.111C240.853 115.111 240.918 115.177 240.983 115.242C241.048 115.307 241.048 115.406 241.048 115.504C240.722 116.911 239.842 117.533 239.059 117.533Z" fill="#553597"/>
<path d="M233.677 115.013C233.644 115.013 233.579 115.013 233.546 114.98C233.514 114.98 233.481 114.947 233.449 114.914C233.416 114.882 233.383 114.849 233.383 114.816C233.383 114.784 233.351 114.718 233.351 114.685C233.351 114.653 233.351 114.587 233.383 114.554C233.416 114.522 233.416 114.489 233.449 114.456C233.612 114.293 237.721 110.038 234.231 102.512C232.731 99.3046 232.47 97.5375 233.383 97.0466C234.525 96.4575 236.743 98.5847 237.689 100.254C239.417 103.264 240.624 107.486 240.265 109.286C240.232 109.384 240.2 109.449 240.135 109.515C240.069 109.58 239.972 109.58 239.874 109.58C239.776 109.548 239.711 109.515 239.645 109.449C239.58 109.384 239.58 109.286 239.58 109.188C239.874 107.715 238.863 103.722 237.069 100.581C235.993 98.7156 234.134 97.3738 233.612 97.6356C233.579 97.6356 232.829 98.0938 234.753 102.25C238.439 110.235 233.873 114.914 233.84 114.947C233.84 114.98 233.742 115.013 233.677 115.013Z" fill="#553597"/>
<path d="M240.036 127.874C237.395 127.841 234.818 127.121 232.535 125.779C232.47 125.746 232.437 125.714 232.405 125.648C232.372 125.583 232.372 125.517 232.372 125.452C232.6 123.914 229.795 118.056 224.381 114.26C223.24 113.442 222.62 112.493 222.718 111.609C222.751 111.315 222.849 111.053 223.012 110.824C223.175 110.595 223.403 110.398 223.697 110.3C224.773 109.842 226.306 110.235 227.839 111.38C228.915 112.166 229.893 113.016 230.806 113.965C231.981 113.573 233.644 114.162 234.916 115.438C236.71 117.271 237.101 119.758 235.927 122.114C235.894 122.179 235.829 122.245 235.731 122.278C235.633 122.31 235.568 122.31 235.47 122.245C235.405 122.212 235.34 122.147 235.307 122.049C235.275 121.95 235.275 121.885 235.34 121.787C236.383 119.692 236.057 117.5 234.459 115.864C233.318 114.718 231.785 114.162 230.872 114.62C230.806 114.653 230.741 114.653 230.643 114.653C230.578 114.653 230.513 114.587 230.448 114.555C229.534 113.573 228.523 112.689 227.415 111.904C225.849 110.726 224.577 110.628 223.925 110.922C223.762 110.987 223.631 111.086 223.533 111.217C223.436 111.347 223.37 111.511 223.338 111.675C223.273 112.296 223.794 113.082 224.74 113.736C230.024 117.467 233.024 123.227 232.992 125.321C236.905 127.481 241.341 127.808 244.602 126.205C246.168 119.594 246.363 115.667 246.363 115.602C246.494 113.769 246.168 112.526 245.385 112.002C244.537 111.413 243.428 111.838 243.004 112.035C240.982 112.984 240.949 114.718 240.949 115.896V116.322C240.917 116.453 240.949 116.583 240.982 116.714C241.015 116.845 241.08 116.943 241.145 117.042C241.21 117.14 241.308 117.238 241.439 117.303C241.569 117.369 241.667 117.402 241.797 117.434C242.221 117.467 242.776 117.238 242.906 116.387C243.232 114.325 244.439 114.129 244.504 114.129C244.602 114.129 244.668 114.129 244.765 114.195C244.831 114.26 244.896 114.325 244.896 114.424C244.896 114.522 244.896 114.587 244.831 114.653C244.765 114.718 244.7 114.784 244.602 114.784C244.57 114.784 243.787 114.947 243.559 116.518C243.363 117.729 242.482 118.187 241.732 118.122C241.308 118.089 240.917 117.86 240.656 117.533C240.395 117.205 240.265 116.78 240.33 116.354C240.33 116.224 240.33 116.093 240.33 115.962C240.362 114.816 240.395 112.656 242.776 111.544C243.917 111.02 245.026 111.02 245.809 111.544C246.787 112.231 247.211 113.638 247.048 115.733C247.048 115.765 246.853 119.823 245.222 126.597C245.222 126.63 245.189 126.696 245.157 126.728C245.124 126.761 245.091 126.794 245.059 126.826C243.526 127.481 241.797 127.874 240.036 127.874Z" fill="#553597"/>
<path d="M244.374 110.987H244.342C244.309 110.987 244.244 110.955 244.211 110.955C244.179 110.922 244.146 110.889 244.113 110.856C244.081 110.824 244.081 110.791 244.048 110.758C244.048 110.726 244.048 110.66 244.048 110.627C244.635 105.882 244.603 103.199 243.885 99.0754C243.494 96.8829 242.483 95.5739 241.928 95.672C241.57 95.7375 241.015 96.5883 241.374 99.5663C241.863 103.362 241.341 107.224 239.874 110.758C239.841 110.824 239.776 110.889 239.678 110.922C239.613 110.955 239.515 110.955 239.417 110.922C239.352 110.889 239.287 110.824 239.254 110.726C239.221 110.66 239.221 110.562 239.254 110.464C240.656 107.028 241.146 103.297 240.722 99.599C240.265 95.7702 241.211 95.0503 241.83 94.9848C242.939 94.8212 244.113 96.5556 244.537 98.9445C245.255 103.133 245.288 105.882 244.701 110.693C244.701 110.758 244.635 110.856 244.603 110.889C244.537 110.955 244.44 110.987 244.374 110.987Z" fill="#553597"/>
<path d="M35.1868 114.456C35.9043 112.754 36.0347 113.311 36.0347 113.311C36.0347 113.311 33.8496 110.595 33.6213 107.355C33.4256 104.115 36.1326 101.923 37.0132 106.733C37.9264 111.544 39.0027 109.907 41.09 114.031C42.3293 116.485 43.2099 122.474 43.2099 122.474C42.6555 125.255 36.4261 127.219 33.1321 127.415C33.1321 126.368 30.9795 123.096 26.6092 125.845C26.6092 125.845 22.3367 127.841 18.4882 125.125C15.4225 122.965 17.4446 121.721 18.9122 122.441C20.3799 123.161 22.7607 124.11 25.2394 121.721C23.5761 120.543 22.989 117.991 23.413 115.569C20.4777 113.409 19.271 110.431 19.8907 106.079C20.3799 104.377 22.402 103.493 22.565 106.111C22.2715 108.5 23.3152 110.333 25.0111 111.904L26.7071 110.529C26.0874 108.468 26.0222 106.308 26.5766 104.213C26.4788 102.773 29.5771 101.857 29.4467 104.704C29.3814 109.482 30.9143 113.016 35.1868 114.456Z" fill="#EDE3FF"/>
<path d="M20.1523 105.653C20.1523 105.653 18.5542 111.086 23.1202 115.144C21.9461 113.507 20.4458 109.057 21.4895 106.275C22.5658 103.461 20.5111 104.606 20.1523 105.653Z" fill="white"/>
<path d="M27.6199 110.17C27.6199 110.17 21.0644 112.624 23.9671 120.249C23.9345 118.678 23.5757 114.031 27.5547 112.035C31.5336 110.039 27.9787 109.94 27.6199 110.17Z" fill="white"/>
<path d="M34.5016 104.246C33.8493 105.686 33.621 107.29 33.8493 108.86C34.0776 110.431 34.7625 111.904 35.8062 113.082C34.8604 115.504 32.6426 118.972 37.5673 121.59C38.5458 122.376 40.046 121.558 37.9587 120.183C35.6757 118.678 35.3496 115.831 37.6978 112.886C36.1975 110.857 35.0887 109.548 35.2843 105.915C35.2843 104.312 34.5016 104.246 34.5016 104.246Z" fill="white"/>
<path d="M33.1651 127.841C33.0999 127.841 33.0021 127.808 32.9368 127.775C32.9042 127.742 32.8716 127.71 32.8716 127.677C32.839 127.644 32.839 127.579 32.839 127.546C32.839 127.186 32.7738 126.793 32.5781 126.466C32.415 126.139 32.1215 125.877 31.8279 125.681C30.5234 124.895 28.1751 125.255 25.5986 126.662C25.4355 126.728 22.2719 128.201 18.293 125.386C16.2383 123.914 16.4992 122.932 16.7275 122.572C17.1189 121.917 18.1952 121.721 19.0757 122.179C20.7391 122.997 22.6959 123.554 24.7506 121.754C23.4134 120.576 22.7612 118.448 23.0547 116.027C23.3156 113.834 24.5223 111.118 27.0663 110.136C28.86 109.449 29.5449 110.038 29.8059 110.464C30.2625 111.216 29.8711 112.493 28.9905 113.245C28.0447 114.063 27.4576 115.241 27.3272 116.485C27.2946 116.78 27.3272 117.074 27.425 117.336C27.5229 117.598 27.6533 117.859 27.849 118.089C27.8816 118.121 27.9142 118.154 27.9142 118.187C27.9142 118.219 27.9468 118.285 27.9468 118.318C27.9468 118.35 27.9468 118.416 27.9142 118.448C27.8816 118.481 27.8816 118.514 27.849 118.547C27.8164 118.579 27.7838 118.612 27.7512 118.612C27.7185 118.612 27.6533 118.645 27.6207 118.645C27.5881 118.645 27.5229 118.645 27.4902 118.612C27.4576 118.579 27.425 118.579 27.3924 118.547C27.1315 118.252 26.9358 117.925 26.838 117.565C26.7075 117.205 26.6749 116.812 26.7075 116.452C26.838 115.012 27.5229 113.671 28.5991 112.722C29.2188 112.198 29.5449 111.249 29.284 110.791C29.0557 110.398 28.3382 110.365 27.3598 110.758C25.0768 111.642 24.0005 114.096 23.7722 116.125C23.5113 118.416 24.1636 120.543 25.5334 121.492C25.566 121.525 25.5986 121.557 25.6312 121.59C25.6638 121.623 25.6638 121.688 25.6638 121.721C25.6638 121.754 25.6638 121.819 25.6312 121.852C25.5986 121.885 25.5986 121.95 25.566 121.983C22.7612 124.666 20.0216 123.325 18.8474 122.768C18.2278 122.474 17.5429 122.605 17.3472 122.932C17.1515 123.259 17.4124 123.946 18.7496 124.895C22.4024 127.481 25.3703 126.139 25.4029 126.106C28.2078 124.601 30.7191 124.241 32.2519 125.157C32.6107 125.386 32.9368 125.681 33.1651 126.041C33.3934 126.401 33.5239 126.793 33.5565 127.219C37.1767 126.793 42.2645 124.797 42.819 122.31C42.7537 121.754 42.2319 116.485 41.0904 114.227C40.5686 113.114 39.8511 112.1 38.9379 111.249C38.0573 110.398 37.3724 109.711 36.8179 106.864C36.4592 104.9 35.8069 104.279 35.3503 104.344C34.6654 104.442 33.9805 105.784 34.0783 107.42C34.274 110.496 36.3939 113.147 36.4266 113.18C36.4918 113.245 36.4918 113.311 36.4918 113.376C36.4918 113.442 36.4592 113.54 36.4266 113.572C35.9373 114.26 35.5134 115.012 35.2198 115.798C34.9915 116.256 34.8937 116.747 34.8611 117.238C34.8285 117.729 34.9263 118.252 35.0894 118.71C35.8395 120.543 38.0247 121.492 38.0573 121.492C38.1225 121.525 38.1877 121.59 38.2203 121.656C38.253 121.721 38.253 121.819 38.2203 121.917C38.1877 121.983 38.1225 122.048 38.0573 122.081C37.992 122.114 37.8942 122.114 37.7964 122.081C37.6985 122.048 35.3503 121.034 34.4697 118.939C34.2414 118.383 34.1436 117.794 34.1762 117.205C34.2088 116.616 34.3392 116.027 34.6002 115.503C34.7632 114.685 35.1546 113.965 35.6112 113.278C35.0894 112.558 33.4587 110.202 33.2956 107.355C33.1977 105.489 34.0131 103.755 35.1546 103.624C35.6112 103.559 36.7853 103.722 37.3398 106.667C37.8616 109.351 38.4486 109.907 39.264 110.725C40.2098 111.609 40.9926 112.689 41.547 113.867C42.7864 116.354 43.3082 122.016 43.3408 122.245C43.3408 122.277 43.3408 122.31 43.3408 122.343C42.7537 125.321 36.9484 127.481 33.1651 127.841Z" fill="#553597"/>
<path d="M23.4128 115.864C23.3476 115.864 23.2824 115.831 23.2172 115.798C21.9126 114.816 20.8689 113.475 20.2166 111.969C19.5644 110.464 19.2708 108.795 19.4339 107.159C19.6296 104.803 20.6406 104.05 21.4234 104.083C22.2713 104.148 23.1193 105.162 23.0541 106.897C22.9236 109.548 25.174 111.511 25.2066 111.544C25.2719 111.609 25.3045 111.675 25.3045 111.773C25.3045 111.871 25.2719 111.937 25.2393 112.002C25.2066 112.035 25.174 112.067 25.1414 112.067C25.1088 112.1 25.0762 112.1 25.0109 112.1C24.9783 112.1 24.9131 112.1 24.8805 112.1C24.8479 112.1 24.8153 112.067 24.7826 112.035C24.6848 111.937 22.2387 109.842 22.4018 106.864C22.467 105.588 21.9452 104.77 21.3908 104.737C20.8363 104.704 20.2166 105.457 20.0862 107.191C19.9557 108.73 20.2166 110.268 20.8363 111.642C21.456 113.049 22.4018 114.26 23.6085 115.209C23.6738 115.275 23.739 115.34 23.739 115.405C23.739 115.504 23.739 115.569 23.6738 115.635C23.6411 115.667 23.6085 115.733 23.5433 115.733C23.5107 115.831 23.4781 115.864 23.4128 115.864Z" fill="#553597"/>
<path d="M35.2196 114.849C35.187 114.849 35.1218 114.849 35.0892 114.816C29.61 112.591 28.7946 108.271 29.0555 105.031C29.1534 103.886 28.9251 103.133 28.4358 103.003C27.9466 102.872 27.2291 103.297 26.903 103.886C26.8051 104.246 26.055 107.584 27.0008 110.431C27.0334 110.529 27.0334 110.595 26.9682 110.693C26.9356 110.758 26.8704 110.824 26.7725 110.857C26.7399 110.857 26.6747 110.889 26.6421 110.889C26.6094 110.889 26.5442 110.889 26.5116 110.857C26.479 110.824 26.4464 110.824 26.4138 110.791C26.3811 110.758 26.3485 110.726 26.3485 110.693C25.3701 107.486 26.2833 103.853 26.3159 103.69C26.3159 103.657 26.3159 103.657 26.3485 103.624C26.7399 102.806 27.7836 102.119 28.6641 102.381C29.1534 102.512 29.9361 103.035 29.7404 105.097C29.4795 108.108 30.2622 112.133 35.3501 114.227C35.4153 114.26 35.4805 114.325 35.5132 114.391C35.5458 114.456 35.5458 114.554 35.5132 114.653C35.4805 114.718 35.4479 114.751 35.3827 114.816C35.3175 114.882 35.2849 114.849 35.2196 114.849Z" fill="#553597"/>
<path d="M27.0658 120.314C27.0006 120.314 26.9679 120.314 26.9027 120.281C26.8375 120.249 26.8049 120.216 26.7723 120.183C26.7396 120.151 26.7396 120.085 26.707 120.02C26.707 119.954 26.707 119.922 26.7396 119.856C27.6855 117.565 30.5229 115.013 30.6534 114.915C30.7186 114.849 30.8164 114.849 30.8817 114.849C30.9795 114.849 31.0447 114.882 31.11 114.947C31.1752 115.013 31.2078 115.078 31.2078 115.176C31.2078 115.275 31.1752 115.34 31.11 115.405C31.0773 115.438 28.2725 117.958 27.3593 120.118C27.3267 120.183 27.2941 120.216 27.2289 120.281C27.1962 120.281 27.131 120.314 27.0658 120.314Z" fill="#553597"/>
<path d="M34.5674 131.277C34.0782 131.277 33.589 131.244 33.1324 131.211C33.0998 131.211 33.0346 131.179 33.0019 131.179C32.9693 131.179 32.9367 131.146 32.9041 131.08C32.8715 131.048 32.8389 131.015 32.8389 130.982C32.8389 130.95 32.8389 130.884 32.8389 130.851C32.8389 130.819 32.8715 130.753 32.8715 130.72C32.9041 130.688 32.9367 130.655 32.9693 130.622C33.0019 130.59 33.0346 130.59 33.0672 130.557C33.0998 130.557 33.165 130.557 33.1976 130.557C33.2629 130.557 40.2423 131.309 43.4059 127.022C43.4711 126.957 43.5364 126.892 43.6342 126.892C43.732 126.892 43.7973 126.892 43.8625 126.957C43.8951 126.99 43.9277 127.023 43.9603 127.055C43.993 127.088 43.993 127.121 43.993 127.186C43.993 127.219 43.993 127.284 43.993 127.317C43.993 127.35 43.9603 127.382 43.9277 127.448C41.4164 130.819 36.883 131.277 34.5674 131.277Z" fill="#553597"/>
<path d="M241.213 130.982C237.951 130.982 234.722 130.262 231.787 128.822C231.754 128.79 231.722 128.79 231.689 128.757C231.657 128.724 231.624 128.692 231.624 128.626C231.624 128.593 231.591 128.528 231.591 128.495C231.591 128.462 231.591 128.397 231.624 128.364C231.657 128.332 231.689 128.299 231.722 128.266C231.754 128.233 231.787 128.233 231.852 128.201C231.885 128.201 231.95 128.201 231.983 128.201C232.015 128.201 232.081 128.233 232.113 128.266C235.831 130.033 239.973 130.655 244.05 130.164C244.083 130.164 244.148 130.164 244.18 130.164C244.213 130.164 244.246 130.197 244.311 130.23C244.344 130.262 244.376 130.295 244.409 130.328C244.441 130.361 244.441 130.393 244.441 130.459C244.441 130.491 244.441 130.557 244.441 130.59C244.441 130.622 244.409 130.655 244.376 130.721C244.344 130.753 244.311 130.786 244.278 130.819C244.246 130.851 244.213 130.851 244.148 130.851C243.137 130.95 242.191 131.015 241.213 130.982Z" fill="#553597"/>
<path d="M180.092 205.334C176.179 197.84 174.613 198.854 172.624 195.778C169.623 191.098 172.2 189.789 170.014 187.302C167.829 184.815 165.579 178.794 169.134 178.27C172.689 177.746 180.092 205.334 180.092 205.334Z" fill="#553597"/>
<path d="M123.049 122.277C121.614 125.681 108.764 130.884 104.687 121.034C101.1 112.427 108.503 107.977 111.797 108.337C111.797 108.337 108.797 98.8463 119.429 96.8828C116.852 102.871 119.625 110.529 119.625 110.529C119.625 110.529 117.668 117.565 123.049 122.277Z" fill="#553597"/>
<path d="M113.233 127.055H113.2C110.298 127.055 106.384 126.008 104.362 121.165C102.438 116.551 103.677 113.376 105.047 111.544C106.808 109.188 109.482 108.009 111.341 108.009C111.08 106.864 110.559 103.69 112.222 100.875C113.559 98.6501 115.94 97.2102 119.364 96.5884C119.43 96.5884 119.495 96.5884 119.528 96.6211C119.593 96.6538 119.625 96.6866 119.658 96.7193C119.691 96.752 119.723 96.8175 119.723 96.8829C119.723 96.9484 119.723 97.0138 119.691 97.0465C117.179 102.839 119.886 110.366 119.919 110.431C119.951 110.497 119.951 110.562 119.919 110.627C119.886 110.693 118.092 117.532 123.246 122.048C123.311 122.081 123.343 122.147 123.343 122.212C123.343 122.278 123.343 122.343 123.311 122.408C122.463 124.503 117.734 127.055 113.233 127.055ZM111.374 108.631C109.678 108.631 107.167 109.777 105.569 111.904C104.297 113.605 103.155 116.551 104.949 120.903C106.841 125.419 110.461 126.401 113.168 126.401H113.2C117.505 126.401 121.647 124.077 122.593 122.343C117.701 117.892 119.038 111.446 119.234 110.529C118.908 109.613 116.723 102.937 118.843 97.3083C115.94 97.9301 113.918 99.2391 112.744 101.17C110.852 104.344 112.026 108.173 112.059 108.238C112.091 108.304 112.091 108.337 112.059 108.402C112.059 108.468 112.026 108.5 111.994 108.533C111.961 108.566 111.928 108.598 111.863 108.631C111.798 108.664 111.765 108.664 111.7 108.664C111.635 108.631 111.504 108.631 111.374 108.631Z" fill="#553597"/>
<path d="M138.379 122.277C139.814 125.681 152.664 130.884 156.741 121.034C160.329 112.427 152.925 107.977 149.631 108.337C149.631 108.337 152.632 98.8463 142 96.8828C144.609 102.871 141.771 110.529 141.771 110.529C141.771 110.529 143.761 117.565 138.379 122.277Z" fill="#553597"/>
<path d="M148.196 127.055C143.696 127.055 138.999 124.503 138.086 122.408C138.053 122.343 138.053 122.277 138.053 122.212C138.053 122.147 138.118 122.081 138.151 122.048C143.304 117.532 141.478 110.693 141.445 110.627C141.412 110.562 141.412 110.496 141.445 110.431C141.478 110.366 144.185 102.839 141.673 97.0464C141.641 96.981 141.641 96.9482 141.641 96.8828C141.641 96.8173 141.673 96.7846 141.706 96.7192C141.739 96.6864 141.804 96.621 141.836 96.621C141.869 96.621 141.967 96.5883 142 96.621C145.391 97.2428 147.805 98.6827 149.142 100.908C150.805 103.69 150.284 106.864 150.023 108.042C151.882 108.042 154.556 109.22 156.317 111.576C157.687 113.442 158.926 116.583 157.002 121.198C154.98 126.041 151.099 127.088 148.164 127.088L148.196 127.055ZM138.803 122.343C139.782 124.045 143.924 126.401 148.196 126.401H148.229C150.936 126.401 154.589 125.419 156.448 120.903C158.241 116.583 157.1 113.638 155.828 111.904C154.132 109.613 151.36 108.435 149.664 108.631C149.599 108.631 149.566 108.631 149.501 108.598C149.436 108.566 149.403 108.533 149.37 108.5C149.338 108.467 149.305 108.402 149.305 108.369C149.305 108.337 149.305 108.271 149.305 108.206C149.305 108.173 150.479 104.311 148.588 101.17C147.446 99.239 145.391 97.9627 142.489 97.3082C144.609 102.937 142.424 109.613 142.097 110.529C142.358 111.413 143.663 117.892 138.803 122.343Z" fill="#553597"/>
<path d="M118.842 108.926C118.842 110.66 117.7 111.838 116.657 111.773C115.058 111.642 114.21 109.646 114.21 107.879C114.21 106.144 115.254 105.457 116.298 105.457C117.341 105.457 118.842 107.159 118.842 108.926Z" fill="#EDE3FF"/>
<path d="M116.754 112.1H116.624C114.83 111.969 113.884 109.842 113.884 107.912C113.884 105.883 115.189 105.163 116.298 105.163C117.537 105.163 119.168 107.028 119.168 108.959C119.168 109.45 119.103 109.908 118.907 110.366C118.744 110.824 118.483 111.217 118.124 111.544C117.798 111.871 117.276 112.068 116.754 112.1ZM116.298 105.784C115.874 105.784 114.537 105.948 114.537 107.879C114.537 109.548 115.352 111.348 116.689 111.446C116.885 111.446 117.08 111.413 117.244 111.348C117.407 111.282 117.57 111.151 117.7 111.02C117.961 110.759 118.189 110.431 118.32 110.071C118.45 109.711 118.516 109.319 118.516 108.926C118.516 107.29 117.146 105.784 116.298 105.784Z" fill="#553597"/>
<path d="M141.901 108.926C141.901 110.66 143.043 111.838 144.087 111.773C145.685 111.642 146.533 109.646 146.533 107.879C146.533 106.144 145.489 105.457 144.445 105.457C143.402 105.457 141.901 107.159 141.901 108.926Z" fill="#EDE3FF"/>
<path d="M143.988 112.1C143.466 112.068 142.977 111.871 142.586 111.511C142.26 111.184 141.999 110.759 141.803 110.333C141.64 109.875 141.542 109.417 141.575 108.926C141.575 107.028 143.205 105.13 144.445 105.13C145.554 105.13 146.858 105.85 146.858 107.879C146.858 109.81 145.88 111.969 144.119 112.1H143.988ZM144.445 105.784C143.597 105.784 142.227 107.29 142.227 108.926C142.227 109.319 142.292 109.711 142.423 110.071C142.553 110.431 142.781 110.759 143.042 111.02C143.173 111.151 143.336 111.249 143.499 111.348C143.662 111.413 143.858 111.446 144.053 111.446C145.39 111.348 146.206 109.58 146.206 107.879C146.206 105.948 144.869 105.784 144.445 105.784Z" fill="#553597"/>
<path d="M117.016 133.634C116.07 136.481 118.418 143.582 121.125 145.251C124.224 140.931 131.236 137.004 131.236 137.004L122.267 128.299C122.267 128.299 118.516 129.052 117.016 133.634Z" fill="white"/>
<path d="M144.412 133.634C145.292 136.481 143.075 143.582 140.498 145.251C137.563 140.931 130.877 137.004 130.877 137.004L139.455 128.299C139.422 128.299 142.944 129.052 144.412 133.634Z" fill="white"/>
<path d="M140.498 128.921C140.498 128.921 145.456 131.833 144.184 134.844C142.912 137.855 132.084 136.84 132.084 136.84C132.084 136.84 140.27 133.928 140.107 128.79C140.629 128.921 140.498 128.921 140.498 128.921Z" fill="#EDE3FF"/>
<path d="M121.125 145.578C121.06 145.578 120.995 145.545 120.962 145.545C118.027 143.712 115.776 136.415 116.722 133.535C118.255 128.823 122.038 128.004 122.201 127.972C122.267 127.972 122.299 127.972 122.365 127.972C122.43 127.972 122.462 128.004 122.495 128.037L131.464 136.742C131.497 136.775 131.529 136.807 131.529 136.873C131.562 136.906 131.562 136.971 131.529 137.037C131.529 137.102 131.497 137.135 131.464 137.167C131.431 137.2 131.399 137.233 131.366 137.266C131.301 137.298 124.387 141.225 121.386 145.414C121.353 145.447 121.321 145.48 121.256 145.512C121.223 145.578 121.19 145.578 121.125 145.578ZM122.169 128.659C121.451 128.855 118.581 129.87 117.342 133.731C116.494 136.284 118.516 142.894 121.06 144.792C123.832 141.094 129.214 137.789 130.681 136.938L122.169 128.659Z" fill="#553597"/>
<path d="M140.465 145.578C140.4 145.578 140.367 145.578 140.302 145.545C140.27 145.513 140.204 145.48 140.172 145.447C137.302 141.258 130.714 137.331 130.648 137.299C130.616 137.266 130.583 137.233 130.551 137.201C130.518 137.168 130.518 137.102 130.485 137.07C130.485 137.004 130.485 136.971 130.485 136.939C130.485 136.906 130.518 136.841 130.551 136.808L139.128 128.103C139.161 128.07 139.226 128.038 139.259 128.005C139.324 128.005 139.356 127.972 139.422 128.005C139.585 128.038 143.205 128.856 144.673 133.568C145.586 136.448 143.401 143.746 140.628 145.578C140.596 145.578 140.531 145.578 140.465 145.578ZM131.366 136.939C132.768 137.79 137.889 141.095 140.563 144.793C143.009 142.862 144.901 136.284 144.086 133.732C142.911 129.903 140.204 128.856 139.52 128.659L131.366 136.939Z" fill="#553597"/>
<path d="M122.495 119.234C122.528 119.365 122.006 124.928 121.614 128.855C121.582 129.313 121.517 129.739 121.484 130.164C121.419 130.95 121.549 131.768 121.908 132.488C122.267 133.208 122.821 133.797 123.506 134.222C125.202 135.269 127.681 136.48 130.192 136.807C132.801 137.135 135.867 135.858 137.987 134.713C138.77 134.288 139.389 133.633 139.781 132.848C140.172 132.062 140.302 131.146 140.172 130.262L138.313 118.678L122.495 119.234Z" fill="#EDE3FF"/>
<path d="M131.072 137.167C130.778 137.167 130.485 137.135 130.191 137.102C127.582 136.775 125.038 135.499 123.375 134.484C122.625 134.026 122.038 133.371 121.646 132.619C121.255 131.833 121.092 130.982 121.19 130.099L121.32 128.823C122.136 120.772 122.201 119.431 122.201 119.267C122.201 119.201 122.201 119.103 122.266 119.038C122.299 119.005 122.331 118.972 122.364 118.94C122.397 118.907 122.462 118.907 122.494 118.907L138.345 118.351C138.41 118.351 138.508 118.383 138.573 118.416C138.639 118.481 138.671 118.547 138.671 118.612L140.53 130.197C140.693 131.146 140.53 132.128 140.106 132.979C139.682 133.83 138.997 134.549 138.149 135.008C136.258 136.022 133.551 137.167 131.072 137.167ZM122.821 119.529C122.788 120.249 122.592 122.408 121.94 128.888L121.81 130.164C121.744 130.917 121.875 131.67 122.201 132.324C122.527 132.979 123.049 133.535 123.669 133.928C125.299 134.909 127.745 136.153 130.224 136.448C132.768 136.775 135.768 135.499 137.823 134.386C138.541 133.993 139.128 133.404 139.486 132.651C139.845 131.899 139.976 131.081 139.845 130.263L138.019 118.94L122.821 119.529Z" fill="#553597"/>
<path d="M141.443 94.6905C147.216 114.816 141.182 120.478 141.182 120.478C139.323 124.667 128.887 130.23 120.505 120.674C112.71 111.773 119.787 94.625 119.787 94.625C124.582 92.007 131.626 92.727 141.443 94.6905Z" fill="#EDE3FF"/>
<path d="M130.974 126.303C127.908 126.303 123.995 125.19 120.277 120.936C112.449 112.002 119.2 95.2469 119.494 94.5597C119.526 94.4943 119.559 94.4288 119.624 94.3961C124.484 91.7126 131.594 92.3999 141.508 94.3961C141.574 94.3961 141.639 94.4288 141.672 94.4615C141.704 94.4943 141.737 94.5597 141.769 94.6252C147.314 113.966 142.063 120.085 141.443 120.707C140.432 122.9 137.138 125.518 132.931 126.172C132.279 126.238 131.626 126.303 130.974 126.303ZM120.048 94.887C119.461 96.3596 113.493 112.199 120.766 120.478C125.103 125.485 129.735 125.976 132.8 125.485C136.812 124.863 139.943 122.376 140.856 120.347C140.889 120.314 140.889 120.282 140.921 120.249C140.987 120.183 146.694 114.457 141.15 94.9851C131.594 93.0544 124.712 92.3999 120.048 94.887Z" fill="#553597"/>
<path d="M119.168 96.5558C119.168 96.5558 114.504 109.122 118.255 116.878C118.875 115.929 119.788 114.718 119.788 114.718C119.788 114.718 116.951 109.482 121.288 96.1304L119.168 96.5558Z" fill="white"/>
<path d="M130.974 126.303C127.908 126.303 123.995 125.19 120.277 120.936C112.449 112.002 119.2 95.2469 119.494 94.5597C119.526 94.4943 119.559 94.4288 119.624 94.3961C124.484 91.7126 131.594 92.3999 141.508 94.3961C141.574 94.3961 141.639 94.4288 141.672 94.4615C141.704 94.4943 141.737 94.5597 141.769 94.6252C147.314 113.966 142.063 120.085 141.443 120.707C140.432 122.9 137.138 125.518 132.931 126.172C132.279 126.238 131.626 126.303 130.974 126.303ZM120.048 94.887C119.461 96.3596 113.493 112.199 120.766 120.478C125.103 125.485 129.735 125.976 132.8 125.485C136.812 124.863 139.943 122.376 140.856 120.347C140.889 120.314 140.889 120.282 140.921 120.249C140.987 120.183 146.694 114.457 141.15 94.9851C131.594 93.0544 124.712 92.3999 120.048 94.887Z" fill="#553597"/>
<path d="M116.005 97.7995C116.005 97.7995 127.192 91.9744 144.543 97.7995C145.717 94.5924 140.498 84.6767 141.086 83.5313C141.673 82.3859 144.738 79.4407 141.64 77.379C138.542 75.3173 124.289 74.9246 118.908 78.688C113.526 82.4187 118.712 85.9857 118.125 88.2437C117.538 90.5018 115.809 95.9341 116.005 97.7995Z" fill="white"/>
<path d="M130.453 108.697C130.453 108.697 124.061 109.973 118.027 116.42C119.853 122.212 123.637 126.074 130.844 126.074C138.411 126.074 142.259 121.1 143.596 115.994C140.955 113.016 133.975 109.351 130.453 108.697Z" fill="white"/>
<path d="M130.844 126.401C124.093 126.401 119.788 123.161 117.701 116.518C117.668 116.453 117.668 116.387 117.701 116.355C117.701 116.289 117.733 116.256 117.799 116.191C123.832 109.744 130.127 108.402 130.42 108.37C130.453 108.37 130.486 108.37 130.551 108.37C134.073 109.024 141.15 112.722 143.89 115.765C143.923 115.798 143.955 115.864 143.955 115.896C143.955 115.962 143.955 115.995 143.955 116.06C143.107 119.169 140.205 126.401 130.844 126.401ZM118.386 116.518C120.408 122.736 124.485 125.747 130.844 125.747C139.585 125.747 142.422 119.103 143.238 116.06C140.498 113.147 133.845 109.646 130.453 109.024C129.801 109.188 123.93 110.66 118.386 116.518Z" fill="#553597"/>
<path d="M142.39 107.911H140.596C140.498 107.911 140.433 107.879 140.368 107.813C140.303 107.748 140.27 107.682 140.27 107.584C140.27 107.486 140.303 107.42 140.368 107.355C140.433 107.29 140.498 107.257 140.596 107.257H142.227L143.792 104.41C143.825 104.377 143.858 104.344 143.89 104.312C143.923 104.279 143.955 104.279 144.021 104.246C144.053 104.246 144.119 104.246 144.151 104.246C144.184 104.246 144.249 104.279 144.282 104.279C144.314 104.312 144.347 104.344 144.379 104.377C144.412 104.41 144.412 104.442 144.445 104.508C144.445 104.541 144.445 104.606 144.445 104.639C144.445 104.672 144.412 104.737 144.412 104.77L142.749 107.78C142.716 107.846 142.683 107.879 142.618 107.911C142.52 107.911 142.455 107.911 142.39 107.911Z" fill="#553597"/>
<path d="M120.114 107.911H118.255C118.19 107.911 118.157 107.911 118.092 107.878C118.026 107.846 117.994 107.813 117.961 107.748L116.233 104.737C116.2 104.671 116.167 104.573 116.2 104.475C116.233 104.377 116.265 104.311 116.363 104.279C116.428 104.246 116.526 104.213 116.624 104.246C116.722 104.279 116.787 104.311 116.82 104.41L118.45 107.257H120.114C120.212 107.257 120.277 107.289 120.342 107.355C120.407 107.42 120.44 107.486 120.44 107.584C120.44 107.682 120.407 107.748 120.342 107.813C120.277 107.878 120.179 107.911 120.114 107.911Z" fill="#553597"/>
<path d="M124.876 103.33C126.442 103.33 127.746 102.774 127.746 102.086C127.746 101.399 126.475 100.843 124.876 100.843C123.311 100.843 122.006 101.399 122.006 102.086C122.006 102.806 123.278 103.33 124.876 103.33Z" fill="white"/>
<path d="M124.875 103.657C123.049 103.657 121.679 102.97 121.679 102.086C121.679 101.203 123.049 100.516 124.875 100.516C126.702 100.516 128.072 101.17 128.072 102.086C128.072 103.003 126.702 103.657 124.875 103.657ZM124.875 101.203C123.31 101.203 122.331 101.726 122.331 102.119C122.331 102.512 123.31 103.035 124.875 103.035C126.441 103.035 127.419 102.479 127.419 102.119C127.419 101.759 126.408 101.203 124.875 101.203Z" fill="#553597"/>
<path d="M124.908 103.264C125.593 103.264 126.18 102.708 126.18 102.021C126.18 101.334 125.626 100.777 124.908 100.777C124.223 100.777 123.636 101.334 123.636 102.021C123.636 102.708 124.191 103.264 124.908 103.264Z" fill="#553597"/>
<path d="M135.052 103.33C136.617 103.33 137.922 102.774 137.922 102.086C137.922 101.399 136.65 100.843 135.052 100.843C133.486 100.843 132.182 101.399 132.182 102.086C132.182 102.806 133.454 103.33 135.052 103.33Z" fill="white"/>
<path d="M135.051 103.657C133.225 103.657 131.855 102.97 131.855 102.086C131.855 101.203 133.225 100.516 135.051 100.516C136.878 100.516 138.247 101.17 138.247 102.086C138.247 103.003 136.845 103.657 135.051 103.657ZM135.051 101.203C133.486 101.203 132.507 101.726 132.507 102.119C132.507 102.512 133.486 103.035 135.051 103.035C136.617 103.035 137.595 102.479 137.595 102.119C137.595 101.759 136.584 101.203 135.051 101.203Z" fill="#553597"/>
<path d="M135.051 103.264C135.736 103.264 136.323 102.708 136.323 102.021C136.323 101.334 135.769 100.777 135.051 100.777C134.334 100.777 133.779 101.334 133.779 102.021C133.779 102.708 134.366 103.264 135.051 103.264Z" fill="#553597"/>
<path d="M121.81 99.4027C121.777 99.4027 121.712 99.4027 121.679 99.37C121.646 99.3373 121.614 99.3373 121.581 99.3046C121.516 99.2391 121.483 99.1409 121.483 99.0755C121.483 98.9773 121.516 98.9119 121.581 98.8464C122.397 98.1592 123.408 97.701 124.484 97.5374C125.56 97.3738 126.636 97.5047 127.648 97.9301C127.68 97.9301 127.713 97.9628 127.745 97.9956C127.778 98.0283 127.811 98.061 127.811 98.0937C127.843 98.1265 127.843 98.1919 127.843 98.2246C127.843 98.2574 127.843 98.3228 127.811 98.3555C127.811 98.3883 127.778 98.421 127.745 98.4537C127.713 98.4864 127.68 98.5192 127.648 98.5192C127.615 98.5519 127.55 98.5519 127.517 98.5519C127.484 98.5519 127.419 98.5519 127.387 98.5192C126.506 98.1592 125.528 98.0283 124.582 98.1592C123.636 98.2901 122.755 98.6828 122.005 99.3046C121.973 99.37 121.875 99.4027 121.81 99.4027Z" fill="#553597"/>
<path d="M138.117 99.4027C138.052 99.4027 137.954 99.37 137.889 99.3046C137.139 98.6828 136.258 98.2901 135.312 98.1592C134.367 98.0283 133.388 98.1265 132.508 98.5192C132.442 98.5519 132.345 98.5519 132.279 98.5192C132.214 98.4864 132.149 98.421 132.116 98.3555C132.084 98.2901 132.084 98.1919 132.116 98.1265C132.149 98.061 132.214 97.9956 132.279 97.9628C133.29 97.5374 134.367 97.4065 135.443 97.5701C136.519 97.7338 137.498 98.1919 138.346 98.8791C138.411 98.9446 138.443 99.01 138.443 99.1082C138.443 99.2064 138.411 99.2718 138.346 99.3373C138.313 99.37 138.28 99.4027 138.248 99.4027C138.183 99.4027 138.15 99.4027 138.117 99.4027Z" fill="#553597"/>
<path d="M142.553 81.0767L141.053 83.5638L144.51 95.4102C144.51 95.4102 142.944 91.3196 140.792 90.0433C138.639 88.767 137.302 88.2434 138.02 86.7708C138.737 85.2982 135.476 86.1818 136.422 84.1855C137.367 82.1893 142.553 81.0767 142.553 81.0767Z" fill="#553597"/>
<path d="M116.951 84.1201C116.951 84.1201 117.995 85.6909 121.713 86.2472C125.431 86.8363 123.376 88.538 122.006 88.538C120.637 88.538 117.93 89.7488 117.179 91.5814C118.321 88.538 118.223 87.589 118.223 87.589L116.951 84.1201Z" fill="#553597"/>
<path d="M129.214 103.461C129.214 104.475 128.887 105.49 128.333 106.341C128.431 106.733 128.594 107.126 128.855 107.42L129.898 106.995C129.898 106.995 130.714 106.111 130.127 103.363C129.898 102.414 129.246 102.708 129.214 103.461Z" fill="white"/>
<path d="M124.387 110.693C126.767 110.693 128.692 109.417 128.692 107.813C128.692 106.243 126.767 104.934 124.387 104.934C122.006 104.934 120.082 106.21 120.082 107.813C120.082 109.417 122.006 110.693 124.387 110.693Z" fill="#EDE3FF"/>
<path d="M124.387 111.021C121.843 111.021 119.756 109.581 119.756 107.813C119.756 106.046 121.843 104.639 124.387 104.639C126.931 104.639 129.018 106.079 129.018 107.813C129.018 109.548 126.931 111.021 124.387 111.021ZM124.387 105.294C122.202 105.294 120.408 106.439 120.408 107.813C120.408 109.188 122.202 110.366 124.387 110.366C126.572 110.366 128.366 109.221 128.366 107.813C128.366 106.406 126.572 105.294 124.387 105.294Z" fill="#553597"/>
<path d="M136.29 110.693C138.671 110.693 140.596 109.417 140.596 107.813C140.596 106.243 138.671 104.934 136.29 104.934C133.91 104.934 131.985 106.21 131.985 107.813C131.985 109.417 133.91 110.693 136.29 110.693Z" fill="#EDE3FF"/>
<path d="M136.29 111.021C133.746 111.021 131.659 109.581 131.659 107.813C131.659 106.046 133.746 104.639 136.29 104.639C138.834 104.639 140.922 106.079 140.922 107.813C140.922 109.548 138.867 111.021 136.29 111.021ZM136.29 105.294C134.105 105.294 132.311 106.439 132.311 107.813C132.311 109.188 134.105 110.366 136.29 110.366C138.476 110.366 140.269 109.221 140.269 107.813C140.269 106.406 138.476 105.294 136.29 105.294Z" fill="#553597"/>
<path d="M128.691 107.617C128.691 107.617 130.387 106.013 131.985 107.649L128.691 107.617Z" fill="#EDE3FF"/>
<path d="M131.986 107.977C131.953 107.977 131.888 107.977 131.855 107.944C131.822 107.912 131.79 107.912 131.757 107.879C130.42 106.472 128.985 107.781 128.952 107.846C128.887 107.912 128.822 107.912 128.724 107.912C128.626 107.912 128.561 107.879 128.496 107.813C128.431 107.748 128.398 107.683 128.398 107.584C128.398 107.486 128.431 107.421 128.496 107.355C129.148 106.734 130.779 105.915 132.246 107.421C132.312 107.486 132.344 107.552 132.344 107.65C132.344 107.748 132.312 107.813 132.246 107.879C132.214 107.912 132.181 107.944 132.149 107.944C132.051 107.977 132.018 107.977 131.986 107.977Z" fill="#553597"/>
<path d="M121.843 115.045C124.257 113.409 127.094 112.526 129.997 112.493C134.987 112.395 139.422 115.111 139.422 115.111C136.357 114.456 133.226 114.096 130.095 114.096C127.29 114.096 124.55 114.424 121.843 115.045Z" fill="#EDE3FF"/>
<path d="M138.378 120.674C136.389 122.409 133.845 123.358 131.203 123.456C126.8 123.554 122.886 120.609 122.886 120.609C122.886 120.609 126.898 122.311 131.203 122.245C133.682 122.212 136.128 121.689 138.378 120.674Z" fill="#EDE3FF"/>
<path d="M139.422 117.5C139.422 117.5 136.259 118.809 131.269 118.907C128.073 118.94 124.876 118.416 121.843 117.402C121.843 117.402 126.409 117.565 131.269 117.467C136.096 117.435 139.422 117.5 139.422 117.5Z" fill="#EDE3FF"/>
<path d="M125.235 124.994C125.235 124.994 131.66 130.59 139.553 126.565C139.455 125.55 139.226 124.536 138.933 123.554C138.933 123.554 132.214 127.841 125.235 124.994Z" fill="#553597"/>
<path d="M144.542 98.1593C144.51 98.1593 144.477 98.1593 144.444 98.1593C127.452 92.4652 116.266 98.0939 116.168 98.1266C116.135 98.1593 116.07 98.1593 116.005 98.1593C115.939 98.1593 115.907 98.1593 115.842 98.1266C115.809 98.0939 115.744 98.0612 115.711 98.0284C115.679 97.9957 115.679 97.9303 115.646 97.8648C115.483 96.3267 116.527 92.6943 117.277 90.0435C117.472 89.3236 117.668 88.6691 117.798 88.1782C117.962 87.5564 117.57 86.771 117.114 85.822C116.135 83.8258 114.831 81.1096 118.712 78.4261C124.321 74.5318 138.769 75.0554 141.835 77.1171C142.194 77.3462 142.52 77.608 142.781 77.968C143.042 78.2952 143.205 78.6879 143.303 79.1134C143.564 80.586 142.553 82.0586 141.868 83.0076C141.705 83.2367 141.542 83.4658 141.379 83.7276C141.248 84.0876 142.031 86.2474 142.683 87.9491C143.988 91.4834 145.618 95.9013 144.868 97.9303C144.836 97.9957 144.803 98.0284 144.738 98.0612C144.673 98.1266 144.607 98.1593 144.542 98.1593ZM129.474 94.9196C134.53 94.9523 139.52 95.7704 144.314 97.4067C144.705 95.4432 143.172 91.2543 142.031 88.1782C140.987 85.3638 140.498 83.9567 140.759 83.4331C140.922 83.1713 141.085 82.8767 141.281 82.6477C141.9 81.7641 142.846 80.4224 142.618 79.2442C142.553 78.917 142.39 78.6225 142.194 78.3279C141.998 78.0661 141.737 77.8371 141.444 77.6734C138.574 75.7427 124.354 75.2845 119.07 78.9824C115.646 81.3387 116.755 83.5967 117.701 85.5602C118.19 86.5747 118.646 87.5237 118.418 88.3418C118.288 88.8327 118.125 89.4872 117.896 90.2071C117.277 92.4324 116.363 95.6722 116.298 97.3085C117.766 96.6867 122.43 94.9196 129.474 94.9196Z" fill="#553597"/>
<path d="M105.959 117.434C105.862 117.434 105.796 117.402 105.731 117.336C105.666 117.271 105.633 117.205 105.633 117.107C105.699 112.264 110.558 110.627 110.591 110.627C110.689 110.595 110.754 110.595 110.852 110.66C110.949 110.726 110.982 110.758 111.015 110.857C111.047 110.955 111.047 111.02 110.982 111.118C110.949 111.184 110.884 111.249 110.786 111.282C110.591 111.347 106.351 112.787 106.286 117.172C106.286 117.271 106.253 117.336 106.188 117.402C106.123 117.402 106.057 117.434 105.959 117.434Z" fill="#EDE3FF"/>
<path d="M44.4813 131.637C44.4813 131.637 40.9264 150.356 52.9937 159.617C61.3103 165.966 65.8111 157.425 59.7122 155.265C52.8632 152.843 47.9058 146.265 44.4813 131.637Z" fill="#553597"/>
<path d="M125.333 160.5C126.702 160.173 127.583 158.962 127.322 157.784C127.061 156.606 125.724 155.886 124.354 156.213C122.984 156.541 122.104 157.751 122.365 158.93C122.626 160.14 123.963 160.828 125.333 160.5Z" fill="#EDE3FF"/>
<path d="M124.68 160.926C124.191 160.926 123.734 160.828 123.31 160.599C123.017 160.435 122.723 160.239 122.527 159.944C122.299 159.682 122.169 159.355 122.071 159.028C122.006 158.701 122.006 158.341 122.071 158.013C122.136 157.686 122.299 157.359 122.495 157.097C122.919 156.508 123.571 156.083 124.289 155.919C125.822 155.559 127.322 156.377 127.648 157.719C127.713 158.046 127.713 158.406 127.648 158.733C127.583 159.061 127.42 159.388 127.224 159.682C126.767 160.271 126.148 160.697 125.43 160.86C125.169 160.893 124.908 160.926 124.68 160.926ZM125.006 156.475C124.81 156.475 124.615 156.508 124.419 156.541C123.865 156.672 123.343 156.999 123.017 157.457C122.854 157.653 122.756 157.882 122.691 158.144C122.625 158.406 122.625 158.635 122.691 158.897C122.756 159.159 122.854 159.388 123.017 159.584C123.18 159.781 123.375 159.944 123.604 160.042C124.126 160.304 124.713 160.37 125.267 160.239C125.822 160.108 126.343 159.781 126.67 159.322C126.833 159.126 126.93 158.897 126.996 158.635C127.061 158.373 127.061 158.144 126.996 157.882C126.8 157.032 125.952 156.475 125.006 156.475Z" fill="#553597"/>
<path d="M124.387 187.63C125.757 187.303 126.638 186.092 126.377 184.914C126.116 183.735 124.779 183.016 123.409 183.343C122.039 183.67 121.158 184.881 121.419 186.059C121.68 187.237 123.017 187.957 124.387 187.63Z" fill="#EDE3FF"/>
<path d="M123.735 188.055C122.463 188.055 121.386 187.303 121.093 186.157C121.028 185.83 121.028 185.47 121.093 185.143C121.158 184.816 121.321 184.488 121.517 184.194C121.941 183.605 122.593 183.179 123.311 183.016C124.844 182.656 126.376 183.474 126.67 184.816C126.735 185.143 126.735 185.503 126.67 185.83C126.605 186.157 126.442 186.485 126.246 186.779C125.822 187.368 125.17 187.794 124.452 187.957C124.224 188.023 123.963 188.055 123.735 188.055ZM124.061 183.605C123.865 183.605 123.669 183.637 123.474 183.67C122.919 183.801 122.397 184.128 122.071 184.586C121.908 184.783 121.81 185.012 121.745 185.274C121.68 185.503 121.68 185.765 121.745 186.026C121.973 187.041 123.148 187.63 124.322 187.335C124.876 187.204 125.398 186.877 125.724 186.419C125.887 186.223 125.985 185.994 126.05 185.732C126.115 185.47 126.115 185.241 126.05 184.979C125.855 184.161 125.007 183.605 124.061 183.605Z" fill="#553597"/>
<path d="M124.648 219.471C126.018 219.144 126.898 217.933 126.637 216.755C126.376 215.577 125.039 214.857 123.67 215.184C122.3 215.511 121.419 216.722 121.68 217.9C121.941 219.078 123.278 219.766 124.648 219.471Z" fill="#EDE3FF"/>
<path d="M123.996 219.864C123.506 219.864 123.05 219.766 122.626 219.537C122.332 219.373 122.039 219.177 121.843 218.882C121.647 218.588 121.484 218.293 121.386 217.966C121.06 216.624 122.071 215.217 123.604 214.857C125.137 214.497 126.67 215.315 126.963 216.657C127.029 216.984 127.029 217.344 126.963 217.671C126.898 217.999 126.735 218.326 126.539 218.62C126.116 219.209 125.463 219.635 124.746 219.798C124.485 219.831 124.224 219.864 123.996 219.864ZM124.322 215.413C124.126 215.413 123.93 215.446 123.735 215.479C122.561 215.773 121.778 216.788 122.006 217.802C122.071 218.031 122.169 218.26 122.332 218.457C122.495 218.653 122.691 218.817 122.919 218.915C123.441 219.177 124.028 219.242 124.583 219.111C125.137 218.98 125.626 218.653 125.985 218.195C126.148 217.999 126.246 217.769 126.311 217.508C126.376 217.246 126.376 217.017 126.311 216.755C126.116 215.97 125.268 215.413 124.322 215.413Z" fill="#553597"/>
<path d="M162.024 172.184C161.992 172.184 161.926 172.184 161.894 172.151C155.599 169.336 142.423 170.449 142.293 170.449C142.26 170.449 142.195 170.449 142.162 170.449C142.13 170.449 142.097 170.416 142.064 170.384C142.032 170.351 141.999 170.318 141.999 170.285C141.966 170.253 141.966 170.187 141.966 170.155L141.706 166.097C141.706 165.998 141.738 165.933 141.771 165.868C141.836 165.802 141.901 165.769 141.999 165.737C142.521 165.671 154.621 164.297 162.09 167.209C162.155 167.242 162.187 167.275 162.22 167.307C162.253 167.373 162.285 167.406 162.285 167.471C162.285 167.504 162.416 169.958 162.35 171.824C162.35 171.922 162.318 171.987 162.253 172.053C162.22 172.151 162.122 172.184 162.024 172.184ZM148.522 169.566C152.729 169.566 158.111 169.893 161.731 171.365C161.763 169.958 161.698 168.322 161.666 167.766C154.947 165.246 144.315 166.162 142.39 166.358L142.586 169.762C143.434 169.729 145.717 169.566 148.522 169.566Z" fill="#553597"/>
</g>
<mask id="mask4_3733_86715" style="mask-type:luminance" maskUnits="userSpaceOnUse" x="179" y="20" width="109" height="156">
<path d="M287.274 20.541H179.071V175.111H287.274V20.541Z" fill="white"/>
</mask>
<g mask="url(#mask4_3733_86715)">
<path d="M221.506 117.143C221.433 117.143 221.361 117.107 221.325 117.07C221.252 117.034 221.18 116.925 221.18 116.852C221.143 116.743 221.18 116.671 221.216 116.598L247.343 76.8741C247.379 76.8378 247.415 76.8014 247.451 76.7651C247.488 76.7287 247.524 76.7287 247.596 76.6924C247.633 76.6924 247.705 76.6924 247.741 76.6924C247.778 76.6924 247.85 76.7287 247.886 76.7287C247.922 76.7651 247.959 76.8014 247.995 76.8378C248.031 76.8741 248.031 76.9104 248.067 76.9831C248.104 77.0558 248.067 77.0922 248.067 77.1285C248.067 77.1649 248.031 77.2375 247.995 77.2739L221.832 116.961C221.796 116.998 221.759 117.07 221.687 117.07C221.614 117.107 221.578 117.143 221.506 117.143Z" fill="#553597"/>
<path d="M241.146 95.1552L233.609 90.2124L223.934 104.968L231.471 109.911L241.146 95.1552Z" fill="white"/>
<path d="M231.507 110.274C231.435 110.274 231.362 110.238 231.326 110.201L223.753 105.259C223.68 105.222 223.608 105.113 223.608 105.041C223.572 104.932 223.608 104.859 223.644 104.786L233.283 89.9942C233.319 89.9579 233.356 89.9215 233.392 89.8852C233.428 89.8488 233.464 89.8488 233.537 89.8125C233.573 89.8125 233.645 89.8125 233.682 89.8125C233.718 89.8125 233.79 89.8488 233.827 89.8488L241.364 94.7916C241.436 94.8643 241.509 94.937 241.509 95.0097C241.545 95.1187 241.509 95.1914 241.473 95.3004L231.797 110.129C231.761 110.165 231.725 110.201 231.652 110.238C231.58 110.274 231.544 110.274 231.507 110.274ZM224.441 104.859L231.399 109.402L240.639 95.2277L233.718 90.6848L224.441 104.859Z" fill="#553597"/>
<path d="M232.195 109.62L223.933 104.205L221.687 107.621L229.985 113.036L232.195 109.62Z" fill="#EDE3FF"/>
<path d="M229.949 113.4C229.876 113.4 229.804 113.364 229.768 113.327L221.506 107.876C221.433 107.839 221.361 107.73 221.361 107.658C221.324 107.549 221.361 107.476 221.397 107.367L223.644 103.95C223.68 103.878 223.789 103.805 223.861 103.805C223.97 103.769 224.042 103.805 224.115 103.841L232.413 109.329C232.485 109.366 232.558 109.475 232.558 109.547C232.594 109.656 232.558 109.729 232.522 109.802L230.275 113.218C230.239 113.291 230.13 113.364 230.058 113.364C230.021 113.4 229.985 113.4 229.949 113.4ZM222.194 107.512L229.876 112.528L231.724 109.729L224.042 104.677L222.194 107.512Z" fill="#553597"/>
<path d="M243.609 92.1384L235.347 86.7231L233.137 90.1395L241.399 95.5547L243.609 92.1384Z" fill="#EDE3FF"/>
<path d="M241.364 95.9182C241.291 95.9182 241.219 95.8819 241.183 95.8455L232.921 90.4303C232.848 90.3939 232.776 90.3213 232.776 90.2122C232.74 90.1032 232.776 90.0305 232.812 89.9215L235.059 86.5052C235.095 86.4325 235.204 86.3598 235.276 86.3598C235.385 86.3234 235.457 86.3598 235.53 86.3961L243.792 91.8114C243.828 91.8477 243.864 91.884 243.901 91.9204C243.937 91.9567 243.937 91.9931 243.973 92.0658C243.973 92.1021 243.973 92.1748 243.973 92.2111C243.973 92.2475 243.937 92.3202 243.937 92.3565L241.69 95.7728C241.654 95.8092 241.618 95.8819 241.545 95.8819C241.509 95.9182 241.436 95.9182 241.364 95.9182ZM233.645 90.0305L241.291 95.046L243.14 92.2475L235.457 87.232L233.645 90.0305Z" fill="#553597"/>
<path d="M235.312 95.3002C235.24 95.3002 235.167 95.2639 235.131 95.2275L231.834 93.0469C231.797 93.0106 231.761 92.9742 231.725 92.9379C231.689 92.9015 231.689 92.8652 231.652 92.7925C231.652 92.7561 231.652 92.6835 231.652 92.6471C231.652 92.6108 231.689 92.5381 231.689 92.5017C231.725 92.4291 231.834 92.3564 231.906 92.3564C232.015 92.32 232.087 92.3564 232.16 92.3927L235.457 94.5733C235.53 94.6097 235.566 94.6824 235.602 94.7551C235.638 94.8277 235.638 94.9004 235.602 94.9731C235.566 95.0458 235.53 95.1185 235.457 95.1548C235.457 95.2639 235.385 95.3002 235.312 95.3002Z" fill="#553597"/>
<path d="M232.377 96.7907C232.304 96.7907 232.232 96.7543 232.195 96.718L230.239 95.4096C230.166 95.3733 230.094 95.2642 230.094 95.1915C230.057 95.0825 230.094 95.0098 230.13 94.9371C230.166 94.9008 230.202 94.8644 230.239 94.8281C230.275 94.7918 230.311 94.7918 230.384 94.7554C230.456 94.7191 230.492 94.7554 230.528 94.7554C230.565 94.7554 230.637 94.7918 230.673 94.7918L232.63 96.1001C232.703 96.1365 232.775 96.2455 232.775 96.3182C232.811 96.4272 232.775 96.4999 232.739 96.5726C232.703 96.6089 232.666 96.6816 232.594 96.6816C232.522 96.6816 232.449 96.7907 232.377 96.7907Z" fill="#553597"/>
<path d="M232.16 100.061C232.087 100.061 232.015 100.025 231.979 99.9886L228.681 97.808C228.645 97.7716 228.609 97.7353 228.572 97.6989C228.536 97.6626 228.536 97.6263 228.5 97.5536C228.5 97.5172 228.5 97.4445 228.5 97.4082C228.5 97.3718 228.536 97.2992 228.536 97.2628C228.572 97.2265 228.609 97.1901 228.645 97.1538C228.681 97.1174 228.717 97.1174 228.79 97.0811C228.862 97.0448 228.899 97.0811 228.935 97.0811C228.971 97.0811 229.044 97.1174 229.08 97.1538L232.377 99.3344C232.45 99.3708 232.522 99.4798 232.522 99.5525C232.559 99.6615 232.522 99.7342 232.486 99.8069C232.414 99.9523 232.377 99.9886 232.305 100.025C232.232 100.061 232.196 100.061 232.16 100.061Z" fill="#553597"/>
<path d="M229.224 101.588C229.151 101.588 229.079 101.551 229.043 101.515L227.086 100.207C227.013 100.207 226.977 100.17 226.977 100.134C226.977 100.098 226.941 100.061 226.905 99.9886C226.905 99.9522 226.905 99.8796 226.905 99.8432C226.905 99.8069 226.941 99.7342 226.941 99.6978C226.977 99.6615 227.013 99.6251 227.05 99.5888C227.086 99.5525 227.122 99.5525 227.195 99.5161C227.231 99.5161 227.303 99.5161 227.34 99.5161C227.376 99.5161 227.448 99.5525 227.485 99.5888L229.441 100.897C229.514 100.934 229.586 101.043 229.586 101.115C229.623 101.224 229.586 101.297 229.55 101.37C229.514 101.406 229.478 101.479 229.405 101.479C229.369 101.551 229.296 101.588 229.224 101.588Z" fill="#553597"/>
<path d="M229.007 104.859C228.934 104.859 228.862 104.822 228.826 104.786L225.528 102.605C225.456 102.569 225.383 102.46 225.383 102.387C225.347 102.278 225.383 102.206 225.419 102.133C225.456 102.097 225.492 102.06 225.528 102.024C225.564 101.988 225.601 101.988 225.673 101.951C225.709 101.951 225.782 101.951 225.818 101.951C225.854 101.951 225.927 101.988 225.963 101.988L229.261 104.168C229.333 104.204 229.369 104.277 229.405 104.35C229.442 104.423 229.442 104.495 229.405 104.568C229.369 104.641 229.333 104.713 229.261 104.75C229.152 104.822 229.079 104.859 229.007 104.859Z" fill="#553597"/>
<path d="M241.908 88.7583L239.117 86.9048L238.066 88.5039L240.857 90.3575L241.908 88.7583Z" fill="#553597"/>
<path d="M240.893 90.721C240.82 90.721 240.748 90.6846 240.712 90.6483L237.921 88.7948C237.885 88.7584 237.849 88.7221 237.813 88.6857C237.777 88.6494 237.777 88.613 237.74 88.5403C237.704 88.4313 237.74 88.3586 237.813 88.2496L238.864 86.6505C238.9 86.6141 238.936 86.5778 238.972 86.5414C239.009 86.5051 239.045 86.5051 239.117 86.4688C239.154 86.4688 239.226 86.4688 239.262 86.4688C239.298 86.4688 239.371 86.5051 239.407 86.5051L242.197 88.3586C242.27 88.395 242.342 88.504 242.342 88.5767C242.379 88.6857 242.342 88.7584 242.306 88.8311L241.255 90.4302C241.219 90.4666 241.183 90.5029 241.147 90.5393C241.11 90.5756 241.074 90.5756 241.002 90.6119C240.929 90.721 240.893 90.721 240.893 90.721ZM238.574 88.395L240.784 89.8487L241.436 88.8674L239.226 87.4137L238.574 88.395Z" fill="#553597"/>
<path d="M224.876 117.434L219.512 113.908L218.751 115.071L224.115 118.597L224.876 117.434Z" fill="#553597"/>
<path d="M224.115 118.96C224.043 118.96 223.97 118.924 223.934 118.888L218.571 115.362C218.535 115.326 218.498 115.29 218.462 115.253C218.426 115.217 218.426 115.181 218.39 115.108C218.39 115.035 218.39 114.926 218.462 114.854L219.223 113.691C219.259 113.654 219.296 113.618 219.332 113.581C219.368 113.545 219.404 113.545 219.477 113.509C219.513 113.509 219.585 113.509 219.622 113.509C219.658 113.509 219.73 113.545 219.767 113.545L225.13 117.07C225.202 117.107 225.275 117.216 225.275 117.289C225.311 117.398 225.275 117.47 225.238 117.579L224.477 118.742C224.441 118.779 224.405 118.815 224.333 118.851C224.224 118.924 224.188 118.96 224.115 118.96ZM219.259 114.963L224.006 118.088L224.369 117.543L219.622 114.381L219.259 114.963Z" fill="#553597"/>
</g>
<mask id="mask5_3733_86715" style="mask-type:luminance" maskUnits="userSpaceOnUse" x="-42" y="6" width="136" height="193">
<path d="M6.98735 198.741L93.4263 173.893L44.654 6.80645L-41.7849 31.6549L6.98735 198.741Z" fill="white"/>
</mask>
<g mask="url(#mask5_3733_86715)">
<path d="M34.7883 121.546C35.4332 121.199 36.0181 120.734 36.4638 120.205C36.9095 119.675 37.2952 119.027 37.4992 118.32C37.7091 117.655 37.7798 116.925 37.723 116.213C37.6662 115.502 37.4394 114.814 37.0909 114.186L25.9376 93.4648C25.415 92.5233 24.6123 91.7488 23.6689 91.2062C22.6888 90.7112 21.5738 90.4896 20.5055 90.6002L17.4119 84.9447C17.286 84.6663 17.1234 84.4354 16.9184 84.2107C16.7134 83.9859 16.435 83.8564 16.1566 83.7268C15.8841 83.6387 15.575 83.5983 15.2716 83.5993C14.9683 83.6004 14.6767 83.6845 14.3967 83.8516C14.1109 83.9772 13.8793 84.1797 13.696 84.4176C13.5127 84.6556 13.3778 84.929 13.2853 85.1963C13.1987 85.5052 13.1971 85.8018 13.238 86.0924C13.2789 86.383 13.4048 86.6614 13.5674 86.8922L16.6668 92.5892C15.9587 93.4105 15.5405 94.4443 15.3891 95.5247C15.2802 96.599 15.4745 97.6722 16.0031 98.6553L27.2355 119.323C27.5839 119.951 28.054 120.519 28.5916 120.95C29.1775 121.417 29.7884 121.753 30.5093 121.946C31.2301 122.139 31.9818 122.244 32.7043 122.14C33.4326 122.078 34.1375 121.85 34.7883 121.546Z" fill="white"/>
<path d="M25.842 97.1183C25.9269 97.1061 26.06 97.1293 26.1141 97.2061C26.2107 97.2769 26.2648 97.3537 26.2765 97.4366C26.2881 97.5195 26.3056 97.6438 26.2748 97.7328C26.244 97.8218 26.1708 97.9168 26.0859 97.929L19.669 101.258C19.59 101.311 19.4626 101.329 19.3236 101.265C19.1846 101.2 19.1363 101.165 19.0764 101.046C19.0223 100.97 19.0048 100.845 19.0298 100.715C19.0605 100.626 19.1338 100.531 19.2128 100.477L25.6297 97.1486C25.7571 97.1304 25.7995 97.1243 25.842 97.1183Z" fill="#553597"/>
<path d="M27.4231 100.029C27.4655 100.023 27.5504 100.011 27.5929 100.005C27.6353 99.9987 27.7261 100.028 27.7743 100.063C27.8709 100.134 27.9675 100.205 27.9849 100.329C27.9908 100.371 28.0024 100.454 28.0083 100.495C28.0141 100.536 27.9833 100.625 27.9467 100.673C27.8735 100.768 27.8002 100.863 27.6729 100.881L21.256 104.21C21.2135 104.216 21.1345 104.269 21.092 104.276C21.0496 104.282 20.9647 104.294 20.9164 104.258C20.8681 104.223 20.8257 104.229 20.7774 104.194C20.7291 104.158 20.6808 104.123 20.675 104.082C20.6692 104.04 20.6151 103.963 20.6093 103.922C20.6034 103.88 20.5918 103.797 20.6284 103.75C20.665 103.702 20.6592 103.661 20.6958 103.613C20.7324 103.566 20.769 103.518 20.8115 103.512L27.2284 100.184C27.344 100.083 27.3865 100.077 27.4231 100.029Z" fill="#553597"/>
<path d="M29.0152 103.022C29.1001 103.01 29.2333 103.033 29.2816 103.069C29.3781 103.139 29.4322 103.216 29.4439 103.299C29.4556 103.382 29.473 103.506 29.4423 103.595C29.4115 103.684 29.3382 103.779 29.2533 103.791L22.8365 107.12C22.715 107.18 22.6301 107.192 22.4969 107.168C22.4062 107.139 22.3096 107.068 22.2497 106.95C22.1898 106.832 22.1781 106.749 22.203 106.619C22.2338 106.53 22.3071 106.435 22.4286 106.375L28.8454 103.046C28.9303 103.034 28.9728 103.028 29.0152 103.022Z" fill="#553597"/>
<path d="M30.5953 105.933C30.6802 105.92 30.8134 105.944 30.8617 105.979C30.9582 106.05 31.0123 106.127 31.024 106.21C31.0356 106.292 31.0531 106.417 31.0223 106.506C30.9916 106.595 30.9183 106.69 30.8334 106.702L24.4166 110.03C24.3741 110.036 24.2951 110.09 24.2526 110.096C24.2102 110.102 24.1253 110.114 24.077 110.079C24.0287 110.044 23.9863 110.05 23.938 110.014C23.8897 109.979 23.8414 109.944 23.8356 109.902C23.8298 109.861 23.7757 109.784 23.7698 109.742C23.764 109.701 23.7523 109.618 23.789 109.571C23.8256 109.523 23.8197 109.482 23.8564 109.434C23.893 109.387 23.9296 109.339 23.972 109.333L30.3889 106.004C30.5162 105.986 30.5587 105.98 30.5953 105.933Z" fill="#553597"/>
<path d="M32.1808 108.885C32.2657 108.873 32.3989 108.896 32.4896 108.925C32.5862 108.996 32.6403 109.073 32.6944 109.149C32.7061 109.232 32.7235 109.357 32.6928 109.446C32.662 109.535 32.5887 109.63 32.5038 109.642L26.087 112.97C26.0445 112.976 25.9655 113.03 25.923 113.036C25.8806 113.042 25.7957 113.054 25.7474 113.019C25.6991 112.984 25.6567 112.99 25.6084 112.954C25.5601 112.919 25.5118 112.884 25.506 112.842C25.5002 112.801 25.4461 112.724 25.4402 112.682C25.4344 112.641 25.4227 112.558 25.4594 112.511C25.496 112.463 25.4902 112.422 25.5268 112.374C25.5634 112.327 25.6 112.279 25.6425 112.273L32.0593 108.944C32.1018 108.938 32.1384 108.891 32.1808 108.885Z" fill="#553597"/>
<path d="M33.7677 111.836C33.8526 111.824 33.9857 111.848 34.034 111.883C34.1306 111.954 34.1847 112.03 34.1963 112.113C34.208 112.196 34.2255 112.321 34.1947 112.41C34.1639 112.499 34.0907 112.594 34.0058 112.606L27.5889 115.934C27.5465 115.94 27.4674 115.994 27.425 116C27.3825 116.006 27.2976 116.018 27.2494 115.983C27.2011 115.947 27.1586 115.954 27.1103 115.918C27.0621 115.883 27.0138 115.847 27.008 115.806C27.0021 115.765 26.948 115.688 26.9422 115.646C26.9364 115.605 26.9247 115.522 26.9613 115.474C26.9979 115.427 26.9921 115.385 27.0287 115.338C27.0653 115.29 27.102 115.243 27.1444 115.237L33.6403 111.855C33.6828 111.849 33.7252 111.843 33.7677 111.836Z" fill="#553597"/>
<path d="M24.316 94.2852C24.4009 94.273 24.5341 94.2963 24.5824 94.3316C24.6789 94.4024 24.733 94.4792 24.7447 94.5621C24.7563 94.645 24.7738 94.7693 24.743 94.8583C24.7123 94.9472 24.639 95.0423 24.5541 95.0544L18.1373 98.3829C18.0948 98.389 18.0158 98.4426 17.9733 98.4487C17.9309 98.4548 17.846 98.4669 17.7977 98.4316C17.7494 98.3962 17.707 98.4023 17.6587 98.3669C17.6104 98.3315 17.5621 98.2961 17.5563 98.2547C17.5505 98.2133 17.4964 98.1364 17.4905 98.095C17.4847 98.0535 17.473 97.9706 17.5097 97.9231C17.5463 97.8756 17.5404 97.8342 17.5771 97.7866C17.6137 97.7391 17.6503 97.6916 17.6927 97.6855L24.1096 94.357C24.1887 94.3034 24.2736 94.2913 24.316 94.2852Z" fill="#553597"/>
<path d="M32.2269 117.803L32.9144 117.45C33.5595 117.104 33.8368 116.302 33.4883 115.674L16.7102 84.5753C16.3617 83.9476 15.544 83.6834 14.899 84.0298L14.254 84.3762C13.609 84.7226 13.3316 85.5246 13.6801 86.1523L30.4157 117.257C30.7642 117.885 31.576 118.108 32.2269 117.803Z" fill="#EDE3FF"/>
<path d="M15.2488 83.4295C15.5888 83.3809 15.9888 83.4507 16.3156 83.6157C16.6423 83.7807 16.8957 84.0409 17.07 84.3547L33.8474 115.453C33.9616 115.648 33.9966 115.898 34.0259 116.105C34.0551 116.313 34.0051 116.574 33.9493 116.794C33.8935 117.013 33.7469 117.204 33.6002 117.394C33.4536 117.585 33.2528 117.698 33.0519 117.811L32.4069 118.158C32.0053 118.385 31.4894 118.416 31.0352 118.269C30.5809 118.123 30.1941 117.839 30.0082 117.442L13.2308 86.3439C13.0024 85.9531 12.9748 85.4488 13.0864 85.0094C13.2404 84.5638 13.5337 84.1831 13.9412 83.9977L14.5862 83.6513C14.8721 83.5257 15.0362 83.4599 15.2488 83.4295ZM31.7492 117.49C31.8342 117.477 31.9617 117.459 32.0409 117.405L32.6859 117.059C32.8076 116.999 32.8867 116.946 32.9601 116.85C33.0334 116.755 33.1067 116.66 33.1317 116.529C33.1567 116.399 33.1875 116.31 33.1699 116.185C33.1524 116.061 33.1349 115.936 33.0807 115.859L16.34 84.7133C16.2799 84.5948 16.2258 84.5179 16.1291 84.447C16.0324 84.3761 15.9357 84.3053 15.8023 84.282C15.669 84.2587 15.5781 84.2294 15.4506 84.2476C15.3231 84.2659 15.1956 84.2841 15.1164 84.3378L14.4714 84.6842C14.3498 84.7439 14.2706 84.7976 14.1973 84.8928C14.124 84.988 14.0506 85.0832 14.0257 85.2138C14.0007 85.3444 13.9699 85.4335 13.9874 85.5581C14.0049 85.6826 14.0225 85.8071 14.0766 85.8841L30.8174 117.03C30.9316 117.225 31.1308 117.409 31.355 117.461C31.4517 117.532 31.5792 117.514 31.7492 117.49Z" fill="#553597"/>
<path d="M24.168 98.45L17.0632 85.2379C16.5289 84.2133 15.3788 83.7427 14.5757 84.1964C13.7725 84.6501 13.4994 85.7902 14.0337 86.8148L21.1385 100.027L24.168 98.45Z" fill="#553597"/>
<path d="M15.1628 83.4455C15.6728 83.3726 16.2061 83.4657 16.672 83.6954C17.1378 83.9252 17.5362 84.2917 17.7763 84.7655L20.7132 90.2316C21.8298 90.1565 22.9931 90.4136 23.9849 90.9916C24.9708 91.5281 25.7792 92.344 26.3077 93.3271L37.4857 113.918C37.84 114.587 38.0785 115.358 38.1411 116.111C38.2038 116.864 38.139 117.636 37.8983 118.39C37.6576 119.144 37.2778 119.834 36.7954 120.411C36.2706 120.994 35.649 121.507 34.9616 121.859C34.2742 122.212 33.4843 122.452 32.7135 122.52C31.9427 122.588 31.1119 122.537 30.3852 122.302C29.6161 122.074 28.9143 121.708 28.3284 121.242C27.7367 120.733 27.2183 120.13 26.864 119.461L15.7227 98.8223C15.1941 97.8393 14.9514 96.7306 15.0545 95.6148C15.1576 94.499 15.5699 93.4237 16.2663 92.5194L13.3295 87.0533C13.0294 86.4611 12.9359 85.7969 13.1458 85.1316C13.3615 84.5079 13.7588 83.9429 14.3671 83.6441C14.5737 83.5722 14.8653 83.4881 15.1628 83.4455ZM32.9 121.688C33.495 121.603 34.0724 121.394 34.6015 121.149C35.2097 120.85 35.7096 120.397 36.1612 119.909C36.6069 119.379 36.9193 118.827 37.1291 118.161C37.3448 117.538 37.3788 116.855 37.3279 116.185C37.2769 115.515 37.0559 114.869 36.7617 114.318L25.5779 93.6856C25.1094 92.821 24.3551 92.082 23.4658 91.6164C22.5766 91.1507 21.5525 90.9585 20.5267 91.0629C20.4417 91.0751 20.3509 91.0457 20.3025 91.0103C20.2117 90.9809 20.1575 90.904 20.1458 90.821L17.0464 85.124C16.9689 84.881 16.8122 84.6917 16.6613 84.5439C16.5046 84.3546 16.2746 84.2605 16.0446 84.1663C15.8146 84.0722 15.5963 84.0611 15.3354 84.0561C15.0746 84.051 14.868 84.1229 14.6247 84.2425C14.4239 84.3559 14.2289 84.5108 14.0823 84.7012C13.9357 84.8916 13.8374 85.1174 13.7816 85.3371C13.7258 85.5568 13.7184 85.8119 13.7534 86.061C13.7885 86.3101 13.9027 86.5055 14.0169 86.7009L17.1163 92.3978C17.1704 92.4748 17.1821 92.5578 17.1513 92.6469C17.163 92.7299 17.1322 92.819 17.053 92.8727C16.3816 93.6463 15.9943 94.5911 15.8736 95.5823C15.753 96.5736 15.9782 97.5577 16.4525 98.4638L27.6364 119.096C28.1107 120.002 28.9075 120.735 29.845 121.236C30.7768 121.696 31.8434 121.882 32.9 121.688Z" fill="#553597"/>
</g>
<mask id="mask6_3733_86715" style="mask-type:luminance" maskUnits="userSpaceOnUse" x="132" y="-11" width="137" height="150">
<path d="M192.572 -10.8412L132.592 95.0156L208.094 138.278L268.075 32.4209L192.572 -10.8412Z" fill="white"/>
</mask>
<g mask="url(#mask6_3733_86715)">
<path d="M205.44 86.3178L184.746 80.8043C184.108 80.6343 183.542 80.3047 183.04 79.8431C182.566 79.389 182.212 78.8178 182.026 78.1721C181.832 77.5543 181.807 76.8621 181.948 76.2142C182.089 75.5663 182.396 74.9627 182.82 74.4797L191.458 64.5622L207.602 68.8636L210.227 81.7817C210.35 82.4404 210.327 83.09 210.131 83.7232C209.934 84.3563 209.579 84.9172 209.099 85.3855C208.627 85.8259 208.031 86.1737 207.395 86.3322C206.76 86.4907 206.078 86.4878 205.44 86.3178Z" fill="#EDE3FF"/>
<path d="M203.596 46.3026L200.498 57.9487C200.263 58.8408 199.806 59.6737 199.211 60.3507L186.157 75.3717C185.725 75.8831 185.424 76.4595 185.283 77.1081C185.142 77.7567 185.175 78.4219 185.361 79.0682C185.555 79.6867 185.902 80.2864 186.377 80.7411C186.852 81.1957 187.447 81.5332 188.086 81.7034L184.752 80.8155C184.113 80.6453 183.546 80.3153 183.044 79.8532C182.569 79.3986 182.214 78.8267 182.028 78.1803C181.834 77.5619 181.808 76.8688 181.949 76.2202C182.09 75.5716 182.398 74.9674 182.823 74.4838L195.877 59.4629C196.479 58.758 196.929 57.9529 197.164 57.0608L200.262 45.4147L203.596 46.3026Z" fill="white"/>
<path d="M205.345 86.7349L184.639 81.2176C183.945 81.0327 183.267 80.6732 182.752 80.1483C182.229 79.6511 181.834 79.009 181.635 78.2998C181.435 77.5906 181.389 76.8626 181.552 76.1306C181.708 75.4266 182.038 74.739 182.512 74.1794L195.555 59.1648C196.114 58.5085 196.521 57.7521 196.741 56.9161L199.946 44.857L209.938 47.5195L206.789 59.5934C206.569 60.4294 206.55 61.2893 206.713 62.1379L210.656 81.6788C210.793 82.4011 210.776 83.1421 210.53 83.8519C210.318 84.5412 209.913 85.1787 209.391 85.6956C208.868 86.2125 208.216 86.5458 207.51 86.7453C206.804 86.9449 206.066 86.9272 205.345 86.7349ZM200.551 45.9427L197.566 57.1658C197.317 58.1133 196.845 59.0017 196.201 59.7546L183.158 74.7692C182.777 75.2043 182.511 75.7599 182.392 76.3246C182.273 76.8894 182.293 77.4911 182.474 78.0462C182.654 78.6013 182.961 79.1303 183.394 79.5142C183.82 79.926 184.339 80.2132 184.894 80.3611L205.6 85.8784C206.155 86.0263 206.747 86.0349 207.32 85.8894C207.893 85.7438 208.412 85.4646 208.842 85.0722C209.272 84.6798 209.585 84.1669 209.76 83.6169C209.934 83.067 209.977 82.4522 209.86 81.884L205.916 62.3431C205.727 61.3683 205.755 60.3617 206.004 59.4142L208.934 48.1763L200.551 45.9427Z" fill="#553597"/>
<path d="M200.07 42.2182C199.709 42.1221 199.312 42.1653 198.989 42.3772C198.673 42.5614 198.411 42.8791 198.316 43.2411C198.221 43.6032 198.264 44.0022 198.475 44.3267C198.659 44.6439 198.976 44.9071 199.336 45.0031L202.388 45.8162L203.121 43.0312L200.07 42.2182Z" fill="white"/>
<path d="M210.696 48.6192L199.05 45.5183C198.579 45.3928 198.159 45.0726 197.914 44.6502C197.669 44.2278 197.6 43.7033 197.724 43.2304C197.849 42.7575 198.168 42.3363 198.588 42.0911C199.009 41.846 199.532 41.7768 200.003 41.9023L211.649 45.0032C212.121 45.1287 212.541 45.4489 212.785 45.8713C213.03 46.2937 213.1 46.8182 212.975 47.2911C212.851 47.764 212.532 48.1851 212.111 48.4303C211.69 48.6755 211.168 48.7447 210.696 48.6192ZM199.783 42.7367C199.534 42.6703 199.255 42.7151 199.017 42.8303C198.771 42.9734 198.629 43.1737 198.556 43.4519C198.483 43.73 198.535 43.9821 198.65 44.2211C198.793 44.4675 198.993 44.61 199.27 44.6839L210.916 47.7847C211.166 47.8512 211.445 47.8064 211.683 47.6912C211.928 47.5481 212.07 47.3478 212.143 47.0696C212.209 46.8193 212.164 46.5394 212.049 46.3004C211.906 46.054 211.707 45.9115 211.429 45.8376L199.783 42.7367Z" fill="#553597"/>
<path d="M207.761 54.109L203.88 53.0757C203.769 53.0462 203.672 52.9611 203.604 52.8833C203.535 52.8056 203.544 52.6592 203.574 52.5479C203.603 52.4367 203.688 52.3403 203.765 52.2716C203.843 52.2029 203.989 52.212 204.099 52.2416L207.981 53.2748C208.092 53.3043 208.188 53.3895 208.257 53.4672C208.325 53.545 208.317 53.6914 208.287 53.8026C208.258 53.9138 208.173 54.0103 208.096 54.079C208.018 54.1476 207.872 54.1385 207.761 54.109Z" fill="#553597"/>
<path d="M206.509 58.8502L202.628 57.8169C202.517 57.7874 202.42 57.7023 202.352 57.6245C202.283 57.5468 202.292 57.4004 202.322 57.2892C202.351 57.1779 202.436 57.0815 202.513 57.0128C202.618 56.9515 202.737 56.9533 202.848 56.9828L206.729 58.016C206.84 58.0456 206.936 58.1307 207.005 58.2084C207.074 58.2862 207.065 58.4326 207.035 58.5438C207.006 58.655 206.921 58.7515 206.844 58.8202C206.766 58.8888 206.62 58.8797 206.509 58.8502Z" fill="#553597"/>
<path d="M206.366 63.8865L201.375 62.5584C201.264 62.5289 201.168 62.4438 201.1 62.3661C201.031 62.2883 201.04 62.1419 201.069 62.0308C201.099 61.9196 201.183 61.8231 201.261 61.7545C201.338 61.6858 201.484 61.6949 201.595 61.7244L206.586 63.0526C206.697 63.0821 206.793 63.1672 206.861 63.2449C206.923 63.3505 206.921 63.469 206.892 63.5802C206.862 63.6914 206.805 63.7953 206.707 63.8287C206.602 63.89 206.477 63.9161 206.366 63.8865Z" fill="#553597"/>
<path d="M207.331 69.2172L191.529 65.0155C191.418 64.986 191.322 64.901 191.253 64.8233C191.185 64.7457 191.194 64.5994 191.223 64.4884C191.252 64.3773 191.337 64.2809 191.415 64.2123C191.492 64.1438 191.638 64.1529 191.749 64.1823L207.551 68.384C207.662 68.4135 207.758 68.4985 207.826 68.5762C207.895 68.6538 207.886 68.8001 207.857 68.9112C207.827 69.0222 207.743 69.1186 207.665 69.1872C207.588 69.2557 207.442 69.2466 207.331 69.2172Z" fill="#553597"/>
<path d="M208.573 74.6217L202.751 73.0724C202.64 73.0429 202.544 72.9578 202.476 72.8801C202.414 72.7746 202.416 72.656 202.445 72.5448C202.475 72.4337 202.559 72.3372 202.637 72.2686C202.714 72.2 202.86 72.2091 202.971 72.2386L208.793 73.7878C208.904 73.8174 209 73.9025 209.069 73.9802C209.138 74.0579 209.129 74.2042 209.099 74.3154C209.07 74.4266 209.013 74.5304 208.915 74.5639C208.81 74.6251 208.684 74.6512 208.573 74.6217Z" fill="#553597"/>
<path d="M209.539 79.9522L203.717 78.403C203.606 78.3735 203.51 78.2884 203.441 78.2107C203.38 78.1051 203.382 77.9866 203.411 77.8754C203.44 77.7642 203.525 77.6678 203.603 77.5992C203.708 77.5379 203.826 77.5396 203.937 77.5692L209.759 79.1184C209.87 79.1479 209.966 79.233 210.035 79.3107C210.096 79.4163 210.094 79.5348 210.065 79.646C210.036 79.7572 209.951 79.8536 209.874 79.9222C209.776 79.9557 209.65 79.9818 209.539 79.9522Z" fill="#553597"/>
</g>
<path d="M122.493 33.4387C120.744 32.8321 119.786 30.9256 120.335 29.1762L121.647 25.0802L122.959 20.9843C123.525 19.2364 125.399 18.3106 127.149 18.9005C128.897 19.5071 129.855 21.4136 129.306 23.1631L126.674 31.3624C126.116 33.1028 124.25 34.0377 122.493 33.4387Z" fill="white"/>
<path d="M120.726 32.6299C120.536 32.4024 120.372 32.1525 120.243 31.8892C119.795 31.0101 119.708 29.9827 120.012 29.0607L122.635 20.8688C123.257 18.9344 125.33 17.9029 127.265 18.5696C128.196 18.8869 128.975 19.5649 129.414 20.4515C129.861 21.3306 129.949 22.358 129.645 23.28L127.013 31.4794C126.391 33.4138 124.318 34.4452 122.383 33.7786C121.744 33.5569 121.168 33.1578 120.726 32.6299ZM128.398 20.1593C127.5 19.0854 126.004 18.7626 124.777 19.3765C124.069 19.7242 123.539 20.34 123.298 21.1012L120.666 29.3006C120.172 30.8635 121.046 32.5779 122.609 33.1078C124.172 33.6376 125.83 32.8158 126.341 31.2545L128.982 23.0476C129.231 22.2955 129.161 21.4704 128.792 20.7576C128.675 20.5457 128.55 20.3413 128.398 20.1593Z" fill="#222433"/>
<path d="M127.966 27.1893L126.633 31.35C126.067 33.0979 124.192 34.0237 122.443 33.4338C120.695 32.8272 119.736 30.9206 120.286 29.1711L121.597 25.0751L127.966 27.1893Z" fill="#EDE3FF"/>
<path d="M120.684 32.7428C119.855 31.7508 119.585 30.3965 119.97 29.1736L122.602 20.9742C123.224 19.0398 125.297 18.0083 127.24 18.6841C129.174 19.3508 130.234 21.451 129.62 23.3945L126.988 31.5939C126.366 33.5283 124.292 34.5597 122.358 33.8931C121.702 33.6697 121.126 33.2706 120.684 32.7428ZM128.363 20.2812C127.281 19.0055 125.401 18.8202 124.156 19.8832C123.739 20.2345 123.438 20.6892 123.273 21.2157L120.641 29.4151C120.138 30.9855 121.004 32.6908 122.575 33.2297C124.138 33.7596 125.821 32.9319 126.324 31.3615L128.956 23.1621C129.256 22.1812 129.041 21.0911 128.363 20.2812Z" fill="#222433"/>
<path d="M127.767 27.1863L121.8 25.1367L127.767 27.1863Z" fill="white"/>
<path d="M121.533 25.3612C121.404 25.2064 121.42 24.9909 121.571 24.8639C121.66 24.7891 121.787 24.7599 121.909 24.7969L127.876 26.8465C128.062 26.9067 128.163 27.117 128.099 27.2944C128.043 27.481 127.836 27.5775 127.659 27.5099L121.692 25.4603C121.635 25.4463 121.571 25.4067 121.533 25.3612Z" fill="#222433"/>
<path d="M175.104 42.5353C175.682 44.6219 174.48 46.7947 172.425 47.4062L167.602 48.8011L162.775 50.2093C160.711 50.8038 158.57 49.5967 157.975 47.5196C157.398 45.433 158.6 43.2602 160.655 42.6487L170.322 39.836C172.382 39.2548 174.527 40.4486 175.104 42.5353Z" fill="#553597"/>
<path d="M175.513 44.7748C175.42 45.1075 175.287 45.429 175.119 45.7261C174.568 46.7334 173.635 47.4891 172.542 47.7981L162.876 50.6108C160.594 51.2732 158.219 49.9424 157.575 47.6362C157.262 46.5285 157.398 45.3324 157.962 44.3288C158.513 43.3215 159.446 42.5658 160.538 42.2567L170.205 39.4441C172.487 38.7816 174.862 40.1124 175.506 42.4187C175.717 43.1818 175.715 43.9994 175.513 44.7748ZM158.356 45.5023C157.917 47.0723 158.601 48.7295 160.01 49.5148C160.816 49.9722 161.763 50.0815 162.658 49.8174L172.325 47.0047C174.163 46.461 175.237 44.4959 174.708 42.6385C174.179 40.7811 172.283 39.7145 170.436 40.2412L160.769 43.0539C159.877 43.3046 159.127 43.9111 158.684 44.7337C158.548 44.9679 158.43 45.2362 158.356 45.5023Z" fill="#222433"/>
<path d="M165.432 41.3102L170.336 39.8805C172.4 39.2859 174.541 40.4931 175.136 42.5704C175.713 44.6572 174.511 46.8301 172.456 47.4417L167.628 48.85L165.432 41.3102Z" fill="#EDE3FF"/>
<path d="M175.635 44.7378C175.23 46.188 174.102 47.3339 172.665 47.7611L163.015 50.5641C160.734 51.2266 158.358 49.8958 157.718 47.5762C157.074 45.2699 158.397 42.8725 160.682 42.1968L170.349 39.3841C172.63 38.7217 175.005 40.0525 175.649 42.3587C175.853 43.1484 175.851 43.9661 175.635 44.7378ZM158.495 45.4557C157.984 47.3354 159.056 49.2745 160.911 49.7836C161.528 49.9577 162.167 49.9515 162.785 49.767L172.452 46.9543C174.302 46.4144 175.372 44.4626 174.861 42.5955C174.332 40.7381 172.413 39.6508 170.562 40.1908L160.895 43.0035C159.736 43.3509 158.827 44.2715 158.495 45.4557Z" fill="#222433"/>
<path d="M165.559 41.5196L167.552 48.6298L165.559 41.5196Z" fill="#553597"/>
<path d="M167.945 48.7409C167.882 48.9672 167.663 49.092 167.44 49.029C167.308 48.9919 167.196 48.8883 167.15 48.7463L165.158 41.6363C165.092 41.4167 165.228 41.1823 165.442 41.1277C165.659 41.0599 165.89 41.1968 165.943 41.4128L167.935 48.5228C167.96 48.5871 167.964 48.6744 167.945 48.7409Z" fill="#222433"/>
<path d="M143.49 47.6348L145.889 50.6061C148.145 53.4014 153.568 52.0211 158.454 48.0521C163.341 44.0831 165.814 39.0491 163.558 36.2538L161.159 33.2825" fill="#EDE3FF"/>
<path d="M158.721 48.3822C153.42 52.6879 147.872 53.7332 145.562 50.8719L143.163 47.9005C143.092 47.8124 143.064 47.6889 143.055 47.5875C143.067 47.4683 143.136 47.3754 143.224 47.3045C143.311 47.2337 143.434 47.2068 143.535 47.1977C143.653 47.2105 143.746 47.2809 143.817 47.3689L146.216 50.3403C148.224 52.8274 153.258 51.7264 158.188 47.7219C163.118 43.7174 165.238 39.0066 163.23 36.5195L160.832 33.5481C160.761 33.46 160.733 33.3365 160.724 33.2351C160.736 33.1159 160.805 33.023 160.892 32.9521C160.98 32.8812 161.102 32.8544 161.203 32.8453C161.322 32.8581 161.415 32.9285 161.486 33.0165L163.885 35.9879C166.195 38.8492 164.043 44.0587 158.721 48.3822Z" fill="#553597"/>
<path d="M155.433 44.3088C160.32 40.3397 162.917 35.4599 161.247 33.3909C159.577 31.322 154.279 32.8563 149.392 36.8253C144.506 40.7944 141.908 45.6742 143.579 47.7432C145.249 49.8121 150.569 48.2601 155.433 44.3088Z" fill="#EDE3FF"/>
<path d="M155.7 44.6388C150.312 49.0154 145.188 50.408 143.251 48.0089C141.314 45.6098 143.738 40.8716 149.125 36.495C154.513 32.1185 159.637 30.7258 161.574 33.125C163.511 35.5241 161.109 40.2445 155.7 44.6388ZM149.658 37.1553C144.816 41.089 142.342 45.5404 143.905 47.4773C145.469 49.4142 150.324 47.9121 155.167 43.9785C160.009 40.0449 162.483 35.5934 160.92 33.6565C159.356 31.7196 154.523 33.204 149.658 37.1553Z" fill="#553597"/>
<path d="M113.288 52.8467C111.445 53.4423 109.435 52.4621 108.783 50.6637L107.278 46.4379L105.774 42.2121C105.137 40.4047 106.113 38.4574 107.948 37.8471C109.791 37.2515 111.801 38.2317 112.453 40.0301L115.46 48.4935C116.099 50.2891 115.135 52.2392 113.288 52.8467Z" fill="white"/>
<path d="M111.301 53.2856C110.998 53.2164 110.703 53.1117 110.428 52.9745C109.496 52.526 108.772 51.7278 108.44 50.7714L105.433 42.308C104.724 40.3105 105.8 38.1503 107.837 37.4873C108.816 37.1651 109.896 37.2384 110.825 37.6987C111.756 38.1472 112.481 38.9453 112.813 39.9017L115.82 48.3652C116.528 50.3626 115.453 52.5228 113.415 53.1858C112.726 53.4129 112.004 53.4464 111.301 53.2856ZM109.789 38.1068C108.358 37.7798 106.905 38.4524 106.271 39.7337C105.9 40.4676 105.85 41.3118 106.131 42.0955L109.138 50.5589C109.718 52.1673 111.535 53.0414 113.175 52.4985C114.816 51.9556 115.678 50.2304 115.113 48.613L112.106 40.1496C111.837 39.3686 111.255 38.7272 110.495 38.3674C110.266 38.253 110.031 38.1622 109.789 38.1068Z" fill="#553597"/>
<path d="M113.887 44.2164L115.415 48.5092C116.051 50.3165 115.075 52.2636 113.241 52.8738C111.397 53.4694 109.388 52.4893 108.736 50.691L107.232 46.4655L113.887 44.2164Z" fill="#553597"/>
<path d="M111.338 53.4059C110.017 53.1039 108.932 52.1491 108.477 50.8917L105.47 42.4283C104.762 40.4308 105.837 38.2706 107.887 37.6103C109.924 36.9473 112.142 38.0246 112.862 40.0248L115.869 48.4882C116.577 50.4857 115.502 52.6459 113.464 53.3089C112.775 53.5359 112.041 53.5667 111.338 53.4059ZM109.838 38.2299C108.126 37.851 106.439 38.8794 106.075 40.5449C105.949 41.0991 105.987 41.6658 106.183 42.2068L109.19 50.6702C109.767 52.2904 111.572 53.1617 113.225 52.6216C114.865 52.0787 115.745 50.3326 115.168 48.7125L112.161 40.249C111.789 39.2462 110.917 38.4765 109.838 38.2299Z" fill="#553597"/>
<path d="M113.708 44.3364L107.43 46.3858L113.708 44.3364Z" fill="white"/>
<path d="M107.362 46.7421C107.156 46.695 107.033 46.5058 107.079 46.3054C107.106 46.1875 107.193 46.0834 107.318 46.0376L113.596 43.9881C113.789 43.9208 114.006 44.0324 114.066 44.2196C114.126 44.4068 114.026 44.6197 113.835 44.6752L107.558 46.7247C107.489 46.7463 107.423 46.756 107.362 46.7421Z" fill="#553597"/>
<mask id="mask7_3733_86715" style="mask-type:luminance" maskUnits="userSpaceOnUse" x="-43" y="-56" width="231" height="238">
<path d="M79.1002 -55.0642L-42.7646 89.3335L65.3129 181.226L187.178 36.8284L79.1002 -55.0642Z" fill="white"/>
</mask>
<g mask="url(#mask7_3733_86715)">
<path d="M82.6387 48.1348L80.4943 54.011C80.0867 55.128 80.671 56.39 81.7859 56.8007L87.6511 58.9612L82.6387 48.1348Z" fill="white"/>
<path d="M84.4292 32.1881L57.7805 22.2795C55.7349 21.5267 53.426 22.5996 52.6767 24.6511L33.0487 77.8365C32.2993 79.8881 33.3701 82.2047 35.4157 82.9575L72.8259 96.8266C74.8715 97.5794 77.1803 96.5065 77.9296 94.455L93.5266 52.0297L84.4292 32.1881Z" fill="white"/>
<path d="M72.5165 97.7165L35.0901 83.8331C33.8444 83.3744 32.8505 82.5026 32.2862 81.2832C31.7219 80.0639 31.7002 78.7408 32.1559 77.4924L51.6776 24.2898C52.1333 23.0414 53.0013 22.046 54.2166 21.4819C55.4319 20.9179 56.7513 20.898 57.997 21.3567L84.6573 31.2754C84.9242 31.3737 85.0696 31.5284 85.1825 31.7723L94.4688 51.6808C94.5817 51.9246 94.6056 52.1358 94.5079 52.4033L78.8359 94.7834C78.3802 96.0318 77.5121 97.0272 76.2969 97.5912C75.0816 98.1553 73.7622 98.1752 72.5165 97.7165ZM57.346 23.1401C56.5452 22.8452 55.7357 22.8506 55.0066 23.1891C54.2774 23.5275 53.7501 24.1426 53.4571 24.9451L33.9355 78.1477C33.6425 78.9502 33.649 79.7619 33.9876 80.4935C34.3261 81.2252 34.9403 81.7548 35.7411 82.0497L73.1675 95.933C73.9683 96.2279 74.7778 96.2225 75.5069 95.8841C76.2361 95.5457 76.7634 94.9306 77.0564 94.128L92.5092 52.0719L83.7394 32.9606L57.346 23.1401Z" fill="#553597"/>
<path d="M81.1166 59.1932L54.1243 49.1619C53.5909 48.9657 53.3979 48.3898 53.5605 47.9448C53.7557 47.4107 54.2413 47.1855 54.7747 47.3817L81.767 57.4131C82.3004 57.6093 82.4934 58.1852 82.3308 58.6302C82.1682 59.0752 81.5611 59.3567 81.1166 59.1932Z" fill="#553597"/>
<path d="M78.2455 67.0453L51.2532 57.0139C50.7198 56.8177 50.5268 56.2418 50.6894 55.7968C50.8846 55.2628 51.3702 55.0376 51.9036 55.2338L78.8959 65.2651C79.4293 65.4614 79.6223 66.0372 79.4597 66.4822C79.2082 66.8946 78.69 67.2088 78.2455 67.0453Z" fill="#553597"/>
<path d="M75.3207 74.7752L48.3284 64.7439C47.795 64.5477 47.602 63.9718 47.7646 63.5268C47.9598 62.9927 48.4454 62.7675 48.9788 62.9638L75.9711 72.9951C76.5045 73.1913 76.6975 73.7672 76.5349 74.2122C76.3397 74.7463 75.8541 74.9715 75.3207 74.7752Z" fill="#553597"/>
<path d="M64.3606 79.6525L45.4251 72.6856C44.8917 72.4893 44.6987 71.9134 44.8613 71.4683C45.0564 70.9342 45.5421 70.709 46.0755 70.9052L65.0111 77.8722C65.5445 78.0684 65.7375 78.6444 65.5748 79.0894C65.4122 79.5345 64.8051 79.8161 64.3606 79.6525Z" fill="#553597"/>
<path d="M93.2568 53.0279L82.4964 49.0677C81.2514 48.6095 80.2582 47.7381 79.6947 46.5189C79.1312 45.2998 79.11 43.9767 79.5661 42.728L83.5079 31.936C83.6382 31.5793 83.9463 31.288 84.3346 31.3297C84.7555 31.2822 85.0786 31.5023 85.2477 31.8681L94.4331 51.7408C94.6022 52.1065 94.5608 52.496 94.2527 52.7873C93.9771 52.9894 93.6125 53.1588 93.2568 53.0279ZM84.4483 34.6092L81.2883 43.2606C80.9951 44.0634 81.0013 44.8751 81.3394 45.6066C81.6775 46.3381 82.2912 46.8675 83.0916 47.162L91.7177 50.3367L84.4483 34.6092Z" fill="#553597"/>
</g>
<path d="M146.307 66.5688C144.257 67.4895 141.829 66.599 140.867 64.5893L138.638 59.8497L136.407 55.1241C135.461 53.1021 136.353 50.7177 138.39 49.7814C140.44 48.8607 142.867 49.7512 143.83 51.7609L148.29 61.2261C149.236 63.2482 148.344 65.6325 146.307 66.5688Z" fill="white"/>
<path d="M144.06 67.3232C143.703 67.2802 143.351 67.1951 143.019 67.0696C141.894 66.6636 140.966 65.8256 140.471 64.755L136.011 55.2899C134.96 53.0559 135.941 50.4117 138.206 49.3888C139.293 48.8933 140.544 48.8447 141.666 49.2647C142.791 49.6707 143.719 50.5087 144.214 51.5793L148.674 61.0445C149.725 63.2785 148.744 65.9226 146.479 66.9455C145.728 67.2964 144.888 67.423 144.06 67.3232ZM140.537 49.8691C138.853 49.6662 137.262 50.6278 136.684 52.1957C136.345 53.0946 136.387 54.0821 136.803 54.9582L141.264 64.4233C142.121 66.221 144.314 67.0121 146.136 66.178C147.959 65.3439 148.746 63.2317 147.905 61.4217L143.445 51.9565C143.042 51.0822 142.297 50.4086 141.38 50.0846C141.105 49.966 140.823 49.9035 140.537 49.8691Z" fill="#222433"/>
<path d="M145.976 56.4485L148.241 61.2492C149.187 63.2711 148.295 65.6553 146.258 66.5916C144.208 67.5122 141.781 66.6217 140.819 64.6121L138.588 59.8868L145.976 56.4485Z" fill="#EDE3FF"/>
<path d="M144.116 67.4582C142.56 67.2708 141.2 66.2952 140.527 64.89L136.067 55.4248C135.016 53.1908 135.997 50.5467 138.276 49.5255C140.541 48.5027 143.218 49.4803 144.284 51.716L148.744 61.1812C149.795 63.4152 148.814 66.0593 146.549 67.0822C145.784 67.4314 144.944 67.5579 144.116 67.4582ZM140.607 50.0058C138.593 49.7774 136.775 51.1816 136.554 53.1626C136.475 53.8223 136.585 54.4764 136.875 55.0808L141.336 64.546C142.191 66.3577 144.37 67.1471 146.205 66.3287C148.027 65.4946 148.832 63.3561 147.977 61.5444L143.517 52.0792C142.973 50.9316 141.865 50.1431 140.607 50.0058Z" fill="#222433"/>
<path d="M145.783 56.6243L138.806 59.7839L145.783 56.6243Z" fill="white"/>
<path d="M138.757 60.1909C138.515 60.1616 138.351 59.9568 138.379 59.7183C138.396 59.5779 138.484 59.4462 138.623 59.3774L145.6 56.2177C145.815 56.1155 146.078 56.2183 146.168 56.4286C146.273 56.6405 146.17 56.8986 145.957 56.9868L138.98 60.1465C138.916 60.1957 138.843 60.2012 138.757 60.1909Z" fill="#222433"/>
</g>
<defs>
<clipPath id="clip0_3733_86715">
<rect width="259" height="245" fill="white" transform="translate(0.5)"/>
</clipPath>
</defs>
</svg>
