<svg width="252" height="219" viewBox="0 0 252 219" fill="none" xmlns="http://www.w3.org/2000/svg">
<g clip-path="url(#clip0_3741_167152)">
<path d="M219.576 134.701C218.043 129.81 216.019 125.007 213.561 120.583C207.951 110.365 200.202 102.186 191.931 99.7988C169.318 93.3074 161.366 87.4273 162.609 74.1825C163.853 60.9378 178.022 45.5098 159.544 19.1367C145.635 -0.686757 109.951 3.94163 93.729 14.6539C92.1096 15.7309 90.1722 17.8559 88.0613 20.8251V157.028C88.0613 161.889 84.1285 165.848 79.2994 165.848H34.3623C37.6588 182.557 47.2593 201.07 73.0533 201.099C84.302 201.099 93.8158 202.875 99.7727 206.688C99.7727 206.688 157.925 198.887 158.359 198.596C158.503 198.479 161.366 198.217 166.369 196.937C172.181 195.452 180.943 192.57 191.816 186.894C191.845 186.894 191.873 186.865 191.873 186.865C198.698 183.313 206.332 178.656 214.602 172.601C217.378 170.564 219.374 167.74 220.646 164.363C221.86 161.132 222.468 157.406 222.526 153.418C222.641 147.509 221.542 141.047 219.576 134.701Z" fill="#EDE3FF"/>
<mask id="mask0_3741_167152" style="mask-type:luminance" maskUnits="userSpaceOnUse" x="-267" y="-533" width="640" height="1235">
<path d="M372.371 -532.811H-266.819V701.482H372.371V-532.811Z" fill="white"/>
</mask>
<g mask="url(#mask0_3741_167152)">
<path d="M30.1459 1.26855H75.4058C86.5073 1.26855 95.6874 10.2952 95.6874 21.6861V147.2C95.6874 158.376 86.7208 167.618 75.4058 167.618H30.1459C19.0443 167.618 9.86426 158.591 9.86426 147.2V21.4712C10.0777 10.2952 19.0443 1.26855 30.1459 1.26855Z" fill="#553597"/>
<path d="M75.4061 167.833H30.1461C18.6176 167.833 9.4375 158.591 9.4375 146.985V21.4714C9.4375 9.86564 18.6176 0.624023 30.1461 0.624023H75.4061C86.9345 0.624023 96.1146 9.86564 96.1146 21.4714V146.985C96.1146 158.591 86.7211 167.833 75.4061 167.833ZM30.1461 1.69863C19.2581 1.69863 10.505 10.5104 10.505 21.4714V146.985C10.505 157.946 19.2581 166.758 30.1461 166.758H75.4061C86.2941 166.758 95.0472 157.946 95.0472 146.985V21.4714C95.0472 10.5104 86.2941 1.69863 75.4061 1.69863H30.1461Z" fill="#553597"/>
<path d="M90.3508 16.0986H15.2021V143.117H90.3508V16.0986Z" fill="#EDE3FF"/>
<path d="M43.169 8.14648H62.5966C63.2371 8.14648 63.8776 8.79125 63.8776 9.43601C63.8776 10.0808 63.2371 10.7255 62.5966 10.7255H43.169C42.5285 10.7255 41.8881 10.0808 41.8881 9.43601C41.6746 8.79125 42.315 8.14648 43.169 8.14648Z" fill="#EDE3FF"/>
<path d="M62.5971 11.1547H43.1695C42.102 11.1547 41.248 10.295 41.248 9.22042C41.248 8.14582 42.102 7.28613 43.1695 7.28613H62.5971C63.6645 7.28613 64.5185 8.14582 64.5185 9.22042C64.5185 10.295 63.4511 11.1547 62.5971 11.1547ZM43.1695 8.57566C42.7425 8.57566 42.3155 9.0055 42.3155 9.43534C42.3155 9.86519 42.7425 10.295 43.1695 10.295H62.5971C63.0241 10.295 63.4511 9.86519 63.4511 9.43534C63.4511 9.0055 63.0241 8.57566 62.5971 8.57566H43.1695Z" fill="#553597"/>
<path d="M52.7763 160.096C49.574 160.096 47.2256 157.517 47.2256 154.293C47.2256 151.069 49.7875 148.705 52.9898 148.705C56.1922 148.705 58.5406 151.284 58.5406 154.508C58.5406 157.732 55.9787 160.096 52.7763 160.096ZM52.7763 149.78C50.2144 149.78 48.0796 151.929 48.0796 154.508C48.0796 157.087 50.2144 159.236 52.7763 159.236C55.3382 159.236 57.4731 157.087 57.4731 154.508C57.4731 151.714 55.3382 149.78 52.7763 149.78Z" fill="#EDE3FF"/>
<path d="M90.35 143.547H15.2014C14.9879 143.547 14.7744 143.332 14.7744 143.117V16.0988C14.7744 15.8839 14.9879 15.6689 15.2014 15.6689H90.35C90.5635 15.6689 90.777 15.8839 90.777 16.0988V143.117C90.9905 143.332 90.777 143.547 90.35 143.547ZM15.6284 142.687H89.7096V16.7436H15.6284V142.687Z" fill="#553597"/>
</g>
<path d="M133.287 30.1992H132.42V34.1581H133.287V30.1992Z" fill="#553597"/>
<path d="M133.287 24.377H132.42V28.3358H133.287V24.377Z" fill="#553597"/>
<path d="M131.929 28.8311H127.996V29.7043H131.929V28.8311Z" fill="#553597"/>
<path d="M137.712 28.8311H133.779V29.7043H137.712V28.8311Z" fill="#553597"/>
<path d="M235.48 103.612L231.605 98.6929L235.48 93.7734L239.355 98.6929L235.48 103.612ZM232.704 98.6929L235.48 102.215L238.256 98.6929L235.48 95.1707L232.704 98.6929Z" fill="#A78ED7"/>
<path d="M246.805 125.666L244.024 128.465L244.638 129.082L247.419 126.283L246.805 125.666Z" fill="#553597"/>
<path d="M250.882 121.562L248.102 124.361L248.715 124.979L251.496 122.179L250.882 121.562Z" fill="#553597"/>
<path d="M244.636 121.56L244.022 122.178L246.803 124.977L247.417 124.36L244.636 121.56Z" fill="#553597"/>
<path d="M248.713 125.665L248.1 126.282L250.88 129.082L251.494 128.464L248.713 125.665Z" fill="#553597"/>
<path d="M12.3563 180.956C10.5056 180.956 9.00195 179.442 9.00195 177.579C9.00195 175.716 10.5056 174.202 12.3563 174.202C14.207 174.202 15.7107 175.716 15.7107 177.579C15.7107 179.442 14.207 180.956 12.3563 180.956ZM12.3563 175.075C10.9972 175.075 9.86947 176.182 9.86947 177.579C9.86947 178.947 10.9683 180.082 12.3563 180.082C13.7443 180.082 14.8432 178.976 14.8432 177.579C14.8432 176.211 13.7443 175.075 12.3563 175.075Z" fill="#553597"/>
<path d="M61.5728 141.978C61.4861 141.716 59.3462 129.84 59.0859 127.162C59.0859 127.162 61.486 124.309 74.7879 120.554L78.1712 139.737L61.5728 141.978Z" fill="#553597"/>
<path d="M191.902 186.894C191.873 186.894 191.844 186.894 191.815 186.894C180.943 192.541 172.21 195.423 166.368 196.937L161.857 155.834L162.985 155.427L180.249 149.256L187.565 146.636C187.565 146.636 187.998 150.682 188.577 156.213C189.762 167.362 191.613 184.594 191.873 186.894C191.902 186.865 191.902 186.894 191.902 186.894Z" fill="white"/>
<path d="M164.894 157.552C164.894 157.552 169.955 199.964 170.678 204.767C152.084 215.596 112.005 216.702 99.6864 209.279C99.802 208.871 100.698 158.017 100.698 158.017L81.5554 147.771C81.2373 144.685 80.7457 141.047 80.1963 138.456C80.283 138.194 80.3698 137.961 80.4565 137.699C84.9965 124.28 98.0959 99.0126 132.71 96.1017C161.222 93.6856 187.623 118.749 189.763 148.993L164.894 157.552Z" fill="#553597"/>
<path d="M146.59 77.0349C146.011 80.1787 141.934 80.2079 141.934 80.2079C140.777 86.7283 140.806 98.3721 140.806 98.3721C139.592 103.99 125.625 103.175 123.659 98.3721C123.601 98.2557 123.601 97.2077 123.601 96.1016C123.601 94.7916 123.659 93.3653 123.659 93.3653C123.659 93.3653 113.191 92.6084 112.497 85.9424C112.092 82.1582 113.075 69.1172 113.624 63.1207C118.367 64.1395 124.006 61.8398 124.006 61.8398C122.184 65.9152 131.669 69.2918 135.833 63.3826C135.833 63.3826 130.425 73.9493 137.944 77.6462C139.187 73.0178 141.992 71.8535 144.103 72.5812C145.78 73.1634 146.995 74.9099 146.59 77.0349Z" fill="white"/>
<path d="M144.131 72.5816C142.049 71.8539 139.244 72.9892 137.972 77.6467C130.453 73.9498 135.861 63.3831 135.861 63.3831C131.726 69.3214 122.212 65.9447 124.034 61.8403C124.034 61.8403 118.395 64.1108 113.653 63.1211C111.166 62.5971 108.91 61.1708 107.84 58.0561C104.891 49.5561 113.306 47.7805 116.226 52.2342C117.036 53.4568 118.713 55.5818 118.713 55.5818C118.713 55.5818 118.077 52.3215 120.969 52.6999C123.311 52.991 121.663 55.7855 127.591 56.8044C129.586 57.1537 133.952 55.8437 138.435 56.6588C140.17 56.979 141.297 59.3078 140.892 61.229C146.647 61.2581 144.478 71.097 144.131 72.5816Z" fill="#553597"/>
<path d="M100.727 158.018C100.727 158.018 100.38 160.754 99.8885 164.48C99.1945 169.895 98.2113 177.376 97.633 181.48C96.4185 190.184 84.1576 199.79 76.0608 192.483C69.9883 187.011 66.5761 178.133 63.2217 160.842C65.7085 160.58 69.6702 159.939 73.0246 158.513C78.2586 156.301 81.9021 154.35 82.0467 153.768C82.1045 153.535 81.931 150.944 81.584 147.771L100.727 158.018Z" fill="white"/>
<path d="M81.5839 147.771C81.2659 144.685 80.7743 141.047 80.2248 138.456C79.82 136.535 79.6176 135.079 78.8657 135.079C77.391 135.079 68.6869 138.427 68.1664 138.631C68.1375 138.631 68.1375 138.631 68.1375 138.631C68.4556 138.136 75.3668 132.139 77.7091 129.869C80.0803 127.598 78.8368 123.436 78.8368 123.436C64.2915 130.829 59.7227 140.406 59.7227 140.406C59.954 141.978 60.1853 143.492 60.4167 144.947C61.3709 150.915 62.2674 156.154 63.1638 160.812C65.6507 160.55 69.6123 159.91 72.9667 158.483C78.2007 156.271 81.8442 154.321 81.9888 153.738C82.1044 153.564 81.9309 150.944 81.5839 147.771Z" fill="white"/>
<path d="M71.3763 144.336L71.1738 143.783C71.4919 143.666 78.6923 140.901 80.6875 140.668L80.7454 141.25C78.8079 141.454 71.4341 144.307 71.3763 144.336Z" fill="#553597"/>
<path d="M70.1618 159.794L69.9883 159.241C73.0246 158.193 81.1213 154.35 81.7575 153.652C81.7864 153.273 81.6129 150.886 81.2948 147.772L81.2659 147.422C78.6923 147.51 72.7932 150.275 72.7354 150.304L72.5041 149.78C72.7643 149.664 78.9815 146.782 81.5551 146.869H81.8154L81.9021 147.713C82.1913 150.391 82.4226 153.477 82.3359 153.826C82.1045 154.7 72.4462 159.008 70.1618 159.794Z" fill="#553597"/>
<path d="M87.5983 172.31C85.8922 170.331 79.7329 156.096 79.4727 155.485L79.9932 155.252C80.051 155.397 86.3838 170.01 88.0321 171.932L87.5983 172.31Z" fill="#553597"/>
<path d="M218.16 199.702H217.292V203.661H218.16V199.702Z" fill="#553597"/>
<path d="M218.16 193.909H217.292V197.868H218.16V193.909Z" fill="#553597"/>
<path d="M216.829 198.363H212.896V199.237H216.829V198.363Z" fill="#553597"/>
<path d="M222.584 198.363H218.651V199.237H222.584V198.363Z" fill="#553597"/>
<path d="M55.8187 218.682L53.7656 210.997L61.3997 213.064L55.8187 218.682ZM55.0091 212.249L56.2814 216.994L59.7515 213.5L55.0091 212.249Z" fill="#A78ED7"/>
<path d="M68.0613 138.375L64.1602 139.922L64.3722 140.464L68.2733 138.916L68.0613 138.375Z" fill="#553597"/>
<path d="M128.16 77.8814C131.259 77.8598 133.763 76.7475 133.753 75.397C133.744 74.0466 131.225 72.9694 128.127 72.9911C125.028 73.0127 122.524 74.125 122.533 75.4755C122.543 76.8259 125.062 77.9031 128.16 77.8814Z" fill="white"/>
<path d="M122.271 75.4638C122.271 73.9501 124.815 72.7566 128.112 72.7275C129.644 72.7275 131.09 72.9604 132.189 73.4262C133.346 73.921 133.982 74.6196 133.982 75.3765C133.982 76.1333 133.346 76.832 132.218 77.3268C131.119 77.8217 129.702 78.0837 128.17 78.0837C126.868 78.1128 125.596 77.909 124.353 77.4724C123.08 77.0357 122.271 76.308 122.271 75.4638ZM131.755 73.7755C130.599 73.3679 129.355 73.1642 128.112 73.1933C125.191 73.2224 122.733 74.2412 122.762 75.4347C122.791 76.6282 125.249 77.6179 128.141 77.6179C129.615 77.6179 130.975 77.3559 132.016 76.8902C132.97 76.4826 133.519 75.9005 133.519 75.3765C133.519 74.8234 132.97 74.2994 132.016 73.8628C131.929 73.8628 131.842 73.8337 131.755 73.7755Z" fill="#553597"/>
<path d="M128.467 76.4227C128.598 75.5972 127.529 74.738 126.078 74.5036C124.627 74.2692 123.345 74.7483 123.213 75.5738C123.081 76.3992 124.151 77.2584 125.601 77.4928C127.052 77.7273 128.335 77.2481 128.467 76.4227Z" fill="#553597"/>
<path d="M124.612 77.4723C123.514 77.0647 122.849 76.3079 122.964 75.551C123.109 74.5904 124.497 74.0373 126.116 74.2993C127.735 74.5613 128.863 75.5219 128.69 76.4825C128.545 77.4431 127.157 77.9962 125.538 77.7342C125.22 77.676 124.902 77.5887 124.612 77.4723ZM128.227 76.3952C128.343 75.7257 127.331 74.9689 126.029 74.7651C124.728 74.5613 123.543 74.9397 123.427 75.6093C123.311 76.2788 124.323 77.0356 125.625 77.2394C126.926 77.4431 128.111 77.0647 128.227 76.3952Z" fill="#553597"/>
<path d="M114.887 77.0953C117.985 77.0736 120.489 75.9613 120.48 74.6109C120.471 73.2605 117.951 72.1833 114.853 72.2049C111.755 72.2266 109.251 73.3389 109.26 74.6893C109.269 76.0398 111.789 77.117 114.887 77.0953Z" fill="white"/>
<path d="M109.026 74.707C109.026 73.1933 111.571 71.9998 114.868 71.9707C116.4 71.9707 117.846 72.2036 118.945 72.6693C120.102 73.1642 120.738 73.8628 120.738 74.6197C120.738 75.3765 120.102 76.0751 118.974 76.57C117.875 77.0648 116.458 77.3268 114.925 77.3268C113.624 77.3559 112.352 77.1522 111.108 76.7155C109.807 76.2789 109.026 75.5512 109.026 74.707ZM118.511 73.0186C117.354 72.6111 116.111 72.4073 114.868 72.4365C111.947 72.4656 109.489 73.4844 109.518 74.6779C109.518 75.8714 112.005 76.8611 114.897 76.8611C116.371 76.8611 117.73 76.5991 118.771 76.1333C119.726 75.7258 120.275 75.1436 120.275 74.6197C120.275 74.0957 119.726 73.5426 118.771 73.106C118.656 73.106 118.569 73.0478 118.511 73.0186Z" fill="#553597"/>
<path d="M115.208 75.6795C115.339 74.8541 114.27 73.9949 112.819 73.7604C111.369 73.526 110.086 74.0051 109.954 74.8306C109.823 75.656 110.892 76.5152 112.343 76.7497C113.793 76.9841 115.076 76.505 115.208 75.6795Z" fill="#553597"/>
<path d="M111.34 76.7154C110.241 76.3079 109.576 75.551 109.692 74.7942C109.836 73.8336 111.224 73.2805 112.844 73.5425C114.463 73.8045 115.591 74.7651 115.417 75.7257C115.273 76.6863 113.885 77.2394 112.265 76.9774C111.976 76.9192 111.658 76.8319 111.34 76.7154ZM114.955 75.6384C115.07 74.9689 114.058 74.212 112.757 74.0082C111.456 73.8045 110.27 74.1829 110.154 74.8524C110.039 75.5219 111.051 76.2788 112.352 76.4825C113.653 76.6863 114.839 76.3079 114.955 75.6384Z" fill="#553597"/>
<path d="M45.4498 46.3772C43.8907 45.832 43.0508 44.1345 43.5332 42.5918L44.6871 38.938L45.8411 35.2841C46.3494 33.7195 48.013 32.905 49.5499 33.4235C51.109 33.9687 51.9489 35.6663 51.4665 37.2089L49.1105 44.5119C48.6763 46.0593 47.009 46.9224 45.4498 46.3772Z" fill="white"/>
<path d="M43.8797 45.6594C43.702 45.4462 43.5725 45.2377 43.4467 44.9806C43.0471 44.1828 42.9698 43.2944 43.2517 42.4659L45.6078 35.163C46.1532 33.4308 47.9946 32.5115 49.7204 33.0976C50.5463 33.3992 51.2534 33.9827 51.653 34.7805C52.0526 35.5784 52.1299 36.4667 51.848 37.2952L49.4919 44.5982C48.9465 46.3303 47.1051 47.2497 45.3793 46.6636C44.7867 46.4828 44.2572 46.1126 43.8797 45.6594ZM50.7271 34.518C49.9276 33.5584 48.5906 33.2797 47.505 33.8332C46.8751 34.1381 46.397 34.6781 46.1744 35.3657L43.8183 42.6686C43.3953 44.0703 44.1501 45.6127 45.5463 46.0684C46.9165 46.5461 48.406 45.7877 48.8512 44.4127L51.2073 37.1097C51.4299 36.4222 51.3636 35.7062 51.0491 35.0635C50.9677 34.8598 50.8604 34.6779 50.7271 34.518Z" fill="#553597"/>
<path d="M50.3434 40.7913L49.1597 44.5158C48.6514 46.0805 46.9877 46.8951 45.4508 46.3765C43.8916 45.8313 43.0516 44.1337 43.534 42.5909L44.688 38.9369L50.3434 40.7913Z" fill="#EDE3FF"/>
<path d="M43.8496 45.7297C43.1167 44.8501 42.8692 43.6514 43.2217 42.5362L45.5777 35.2333C46.1231 33.5011 47.9646 32.5818 49.7126 33.1945C51.4384 33.7806 52.3856 35.66 51.8402 37.3922L49.4841 44.6952C48.9387 46.4273 47.0972 47.3466 45.3714 46.7605C44.7307 46.575 44.2494 46.2095 43.8496 45.7297ZM50.6712 34.6102C49.7161 33.464 48.0309 33.2978 46.9376 34.2665C46.5745 34.5732 46.3001 34.9865 46.1443 35.436L43.7883 42.7389C43.3652 44.1406 44.0978 45.6563 45.5162 46.1387C46.9124 46.5945 48.3981 45.8847 48.8471 44.4611L51.2032 37.1581C51.4629 36.303 51.2708 35.3299 50.6712 34.6102Z" fill="#553597"/>
<path d="M50.1503 40.7732L44.8571 38.9299L50.1503 40.7732Z" fill="white"/>
<path d="M44.5971 39.1491C44.486 39.0158 44.501 38.8215 44.6307 38.7119C44.7085 38.6462 44.8308 38.6338 44.9271 38.6433L50.2202 40.4866C50.3869 40.5276 50.4683 40.7313 50.4311 40.899C50.394 41.0666 50.1939 41.1447 50.0272 41.1038L44.7341 39.2605C44.6897 39.2072 44.6415 39.2024 44.5971 39.1491Z" fill="#553597"/>
<path d="M41.8758 98.0044C45.5948 99.522 47.442 103.747 46.0334 107.469L42.6938 116.196L39.3541 124.922C37.9071 128.633 33.7591 130.443 30.0292 128.964C26.3102 127.447 24.4629 123.221 25.8715 119.499L32.5892 102.058C33.9978 98.3353 38.1459 96.5258 41.8758 98.0044Z" fill="#553597"/>
<path d="M45.6013 99.9449C45.9918 100.476 46.2947 101.025 46.5483 101.601C47.4085 103.57 47.4585 105.771 46.7025 107.744L39.9852 125.185C38.4189 129.325 33.8114 131.298 29.6704 129.661C27.7013 128.85 26.1027 127.303 25.2425 125.335C24.3823 123.366 24.3323 121.165 25.0883 119.192L31.8056 101.751C33.4102 97.6221 38.0178 95.6486 42.1204 97.2751C43.5355 97.8447 44.7269 98.7715 45.6013 99.9449ZM27.4744 126.094C29.2891 128.501 32.4856 129.366 35.2216 128.165C36.7811 127.472 37.9993 126.22 38.6577 124.598L45.375 107.157C46.6367 103.814 44.9605 100.015 41.6422 98.6956C38.3239 97.3757 34.6468 98.9823 33.3467 102.315L26.6294 119.756C26.0202 121.349 26.0528 123.167 26.7694 124.758C26.8804 125.252 27.1282 125.701 27.4744 126.094Z" fill="#553597"/>
<path d="M29.2574 110.942L32.6656 102.114C34.1116 98.4038 38.2567 96.5951 41.984 98.0731C45.7004 99.59 47.5464 103.813 46.1388 107.534L42.8014 116.256L29.2574 110.942Z" fill="#EDE3FF"/>
<path d="M45.7044 99.7215C47.3981 101.968 47.8227 104.907 46.8055 107.52L40.0882 124.961C38.4836 129.091 33.876 131.064 29.7734 129.438C25.6817 127.772 23.6251 123.109 25.1914 118.969L31.9086 101.528C33.5133 97.3988 38.1208 95.4253 42.2234 97.0517C43.611 97.5715 44.8408 98.5092 45.7044 99.7215ZM27.5391 125.86C29.7168 128.749 33.7726 129.352 36.6154 127.173C37.5558 126.472 38.2818 125.5 38.7115 124.403L45.4288 106.961C46.6905 103.618 45.0527 99.8311 41.7344 98.5112C38.4161 97.1914 34.6622 98.7761 33.4005 102.119L26.6832 119.56C25.8563 121.639 26.1808 124.044 27.5391 125.86Z" fill="#553597"/>
<path d="M29.7111 110.962L42.3471 116.05L29.7111 110.962Z" fill="#553597"/>
<path d="M42.9708 115.599C43.2123 115.919 43.159 116.407 42.8424 116.653C42.635 116.804 42.3727 116.855 42.1153 116.741L29.4776 111.649C29.067 111.49 28.8962 111.064 29.0537 110.648C29.2111 110.231 29.6318 110.056 30.0424 110.215L42.6801 115.307C42.735 115.406 42.8775 115.488 42.9708 115.599Z" fill="#553597"/>
<path d="M1.44336 77.4932L3.98376 80.6516C6.42048 83.6811 12.1798 82.1875 17.4028 77.9293C22.6258 73.6712 25.2744 68.3101 22.8377 65.2807L20.2973 62.1223" fill="#EDE3FF"/>
<path d="M17.7138 78.3161C12.0449 82.9378 6.09 84.0571 3.65326 81.0276L1.11283 77.8692C1.06099 77.8047 1.02099 77.6239 1.03284 77.5075C1.04469 77.3911 1.05653 77.2747 1.18392 77.1709C1.24762 77.1189 1.42688 77.0795 1.54242 77.0921C1.65796 77.1046 1.77349 77.1171 1.87718 77.246L4.4176 80.4045C6.54327 83.0472 11.9204 81.8652 17.2072 77.5551C22.494 73.2449 24.7604 68.1954 22.6347 65.5527L20.0943 62.3942C20.0425 62.3298 20.0025 62.1489 20.0143 62.0325C20.0262 61.9162 20.038 61.7998 20.1654 61.6959C20.2928 61.592 20.4083 61.6046 20.5239 61.6171C20.6394 61.6296 20.755 61.6422 20.8587 61.7711L23.3991 64.9295C25.7603 68.1274 23.3828 73.6943 17.7138 78.3161Z" fill="#553597"/>
<path d="M14.1857 73.9293C19.4088 69.6712 22.161 64.4391 20.3983 62.2476C18.6356 60.056 12.98 61.6785 7.757 65.9366C2.53398 70.1948 -0.218261 75.4269 1.54446 77.6184C3.35903 79.8744 8.96273 78.1874 14.1857 73.9293Z" fill="#EDE3FF"/>
<path d="M14.4969 74.316C8.76426 78.9897 3.23604 80.5083 1.16222 77.93C-0.911598 75.3517 1.64957 70.2753 7.44593 65.5498C13.1786 60.8761 18.7068 59.3575 20.7806 61.9358C22.8545 64.5141 20.2933 69.5905 14.4969 74.316ZM8.06808 66.3233C2.90869 70.5295 0.203812 75.2962 1.91471 77.4233C3.57377 79.4859 8.75538 77.9297 13.9785 73.6715C19.1379 69.4652 21.8427 64.6986 20.1318 62.5715C18.4209 60.4444 13.2275 62.117 8.06808 66.3233Z" fill="#553597"/>
<path d="M73.3952 25.7807L72.3208 27.7243C71.3101 29.616 73.2692 32.1828 76.4789 33.9435C79.6887 35.7042 82.937 35.9388 83.9477 34.0471L85.022 32.1035" fill="#EDE3FF"/>
<path d="M76.392 34.2287C72.9111 32.2621 71.1432 29.5394 72.1538 27.6477L73.2282 25.7041C73.2919 25.6522 73.3557 25.6002 73.3557 25.6002C73.4194 25.5483 73.4712 25.6127 73.5868 25.6253C73.6387 25.6897 73.6906 25.7542 73.6906 25.7542C73.7424 25.8187 73.6787 25.8707 73.6668 25.9871L72.5925 27.9307C71.7211 29.602 73.3971 32.0793 76.6069 33.84C79.8166 35.6007 82.8456 35.6937 83.7689 34.0869L84.8432 32.1433C84.9069 32.0913 84.9707 32.0394 84.9707 32.0394C84.9707 32.0394 85.0862 32.0519 85.2018 32.0644C85.2537 32.1289 85.3056 32.1934 85.3056 32.1934C85.3574 32.2579 85.2937 32.3099 85.2819 32.4263L84.2075 34.3699C83.145 36.1971 79.8211 36.1309 76.392 34.2287Z" fill="#553597"/>
<path d="M77.831 31.5611C81.0409 33.3219 84.2775 33.6729 84.9977 32.3383C85.718 31.0037 83.7588 28.4367 80.5489 26.6759C77.339 24.9152 74.1024 24.5642 73.3822 25.8988C72.6619 27.2334 74.6211 29.8004 77.831 31.5611Z" fill="#EDE3FF"/>
<path d="M77.6913 31.781C74.1465 29.8662 72.2393 27.3638 73.1625 25.757C74.0221 24.202 77.0911 24.476 80.6359 26.3908C84.1807 28.3055 86.0879 30.808 85.1647 32.4148C84.3052 33.9698 81.2361 33.6958 77.6913 31.781ZM80.421 26.7795C77.2112 25.0187 74.2696 24.6409 73.6131 25.9235C72.9566 27.2062 74.7719 29.4632 77.9818 31.2239C81.1916 32.9847 84.1332 33.3625 84.7897 32.0799C85.4462 30.7972 83.5672 28.5922 80.421 26.7795Z" fill="#553597"/>
<path d="M69.6796 95.4662L67.3662 98.0998C65.1802 100.629 67.2091 105.382 71.6047 109.273C75.9485 113.099 80.8762 114.634 83.1141 112.169L85.4275 109.535" fill="#EDE3FF"/>
<path d="M71.2863 109.533C66.5157 105.307 64.7937 100.411 67.0433 97.8296L69.3567 95.1961C69.4205 95.1442 69.5479 95.0403 69.6635 95.0528C69.7791 95.0653 69.8947 95.0779 69.9466 95.1424C69.9985 95.2069 70.1022 95.3358 70.0903 95.4523C70.0785 95.5687 70.0666 95.6852 70.0029 95.7371L67.6895 98.3706C65.7066 100.628 67.4761 105.058 71.8717 108.949C76.2673 112.84 80.8718 114.104 82.8547 111.847L85.1682 109.213C85.2319 109.161 85.3593 109.057 85.4749 109.07C85.5905 109.082 85.7061 109.095 85.758 109.159C85.8099 109.224 85.9136 109.353 85.9017 109.469C85.8899 109.586 85.878 109.702 85.8143 109.754L83.5009 112.388C81.1356 114.957 76.0568 113.759 71.2863 109.533Z" fill="#553597"/>
<path d="M74.5125 105.941C78.8565 109.768 83.7088 111.471 85.3613 109.59C87.0138 107.709 84.7937 103.112 80.3979 99.2213C76.0021 95.3303 71.2016 93.6913 69.5491 95.5725C67.9603 97.4017 70.1804 101.999 74.5125 105.941Z" fill="#EDE3FF"/>
<path d="M74.2582 106.149C69.4356 101.858 67.4348 97.4031 69.2904 95.2497C71.1459 93.0962 75.8425 94.6062 80.6651 98.8966C85.4877 103.187 87.4884 107.642 85.6329 109.796C83.7774 111.949 79.0808 110.439 74.2582 106.149ZM80.1953 99.4932C75.8514 95.6668 71.4616 94.0135 69.9365 95.7907C68.4115 97.5679 70.4997 101.738 74.8436 105.565C79.1875 109.391 83.5773 111.044 85.1023 109.267C86.5636 107.542 84.4755 103.372 80.1953 99.4932Z" fill="#553597"/>
<path d="M76.4768 71.7875C74.3505 72.4611 72.066 71.355 71.3089 69.256L69.5727 64.3897L67.8364 59.5233C67.1148 57.4325 68.2102 55.2145 70.3442 54.5064C72.4705 53.8328 74.7551 54.9389 75.5121 57.0378L78.9492 66.7624C79.7062 68.8613 78.5676 71.1057 76.4768 71.7875Z" fill="white"/>
<path d="M74.2048 72.2822C73.8505 72.2008 73.504 72.0848 73.2007 71.9425C72.1216 71.4403 71.2851 70.5217 70.9006 69.4163L67.4636 59.6919C66.6391 57.3959 67.8675 54.9179 70.202 54.1469C71.326 53.7878 72.5771 53.8573 73.6485 54.3941C74.7277 54.8964 75.5641 55.815 75.9487 56.9203L79.3857 66.6447C80.2101 68.9407 78.9817 71.4187 76.6473 72.1897C75.8455 72.4413 75.0195 72.4694 74.2048 72.2822ZM72.4657 54.8487C70.8362 54.4742 69.1705 55.2536 68.431 56.7181C68.0163 57.5671 67.9482 58.5321 68.2653 59.4403L71.7023 69.1647C72.3643 71.0239 74.4518 72.0121 76.3422 71.3932C78.2326 70.7744 79.2027 68.7818 78.5761 66.9308L75.1392 57.2064C74.822 56.2982 74.167 55.5665 73.2926 55.1477C72.9893 55.0053 72.7137 54.9057 72.4657 54.8487Z" fill="#553597"/>
<path d="M77.1447 61.8473L78.9005 66.7901C79.622 68.8806 78.5268 71.0983 76.3931 71.8063C74.2672 72.4798 71.9831 71.3738 71.2261 69.2752L69.4902 64.4096L77.1447 61.8473Z" fill="#553597"/>
<path d="M74.2441 72.4361C72.7208 72.0861 71.4748 71.0007 70.9831 69.5439L67.5461 59.8194C66.7216 57.5234 67.9855 55.0536 70.3199 54.2825C72.6544 53.5115 75.2068 54.7518 76.0313 57.0478L79.4682 66.7723C80.2927 69.0683 79.0643 71.5463 76.7298 72.3173C75.8849 72.5953 75.0235 72.6152 74.2441 72.4361ZM72.5128 54.9681C70.5645 54.5203 68.6206 55.708 68.1853 57.6419C68.0454 58.2635 68.0826 58.9258 68.3125 59.5597L71.7494 69.2842C72.4114 71.1433 74.4912 72.166 76.3816 71.5472C78.272 70.9283 79.2853 68.9094 78.6233 67.0502L75.1863 57.3258C74.7464 56.1351 73.7527 55.253 72.5128 54.9681Z" fill="#553597"/>
<path d="M76.9595 62.0206L69.7675 64.3605L76.9595 62.0206Z" fill="white"/>
<path d="M69.6747 64.7752C69.4269 64.7182 69.2887 64.505 69.3431 64.2634C69.3742 64.1254 69.4761 64.0036 69.6332 63.9671L76.8255 61.6271C77.0613 61.5724 77.3014 61.6638 77.361 61.8953C77.4206 62.1268 77.3308 62.3602 77.095 62.415L69.9027 64.755C69.8241 64.7732 69.7455 64.7915 69.6747 64.7752Z" fill="#553597"/>
<path d="M50.2583 74.1222C48.8735 74.7467 47.2129 74.1283 46.5718 72.7577L45.0513 69.5288L43.5308 66.2998C42.8897 64.9292 43.5063 63.294 44.8912 62.6695C46.276 62.045 47.9366 62.6634 48.5777 64.034L51.6187 70.4918C52.2181 71.8574 51.6432 73.4977 50.2583 74.1222Z" fill="white"/>
<path d="M48.7167 74.6437C48.4666 74.6134 48.2213 74.542 48.0178 74.4756C47.2452 74.2151 46.6366 73.6408 46.3025 72.8913L43.2616 66.4335C42.5517 64.9295 43.1926 63.0887 44.7539 62.4022C45.5113 62.0769 46.3597 62.0547 47.1323 62.3152C47.9049 62.5757 48.5135 63.1499 48.8476 63.8994L51.8885 70.3572C52.5984 71.8613 51.9158 73.697 50.3961 74.3886C49.8618 74.6157 49.2587 74.7094 48.7167 74.6437ZM46.3235 62.7176C45.1979 62.5811 44.1049 63.241 43.7232 64.3208C43.4834 64.9173 43.5306 65.5903 43.7959 66.2064L46.8368 72.6642C47.4092 73.9013 48.9127 74.4173 50.1628 73.8598C51.4128 73.3024 51.9216 71.8627 51.3493 70.6255L48.3084 64.1677C48.0382 63.5928 47.5449 63.1159 46.8974 62.8706C46.6938 62.8042 46.4902 62.7378 46.3235 62.7176Z" fill="#553597"/>
<path d="M50.0172 67.2115L51.5743 70.4863C52.2153 71.8568 51.5988 73.4918 50.2141 74.1163C48.8294 74.7407 47.1691 74.1224 46.5281 72.7519L45.0078 69.5233L50.0172 67.2115Z" fill="#EDE3FF"/>
<path d="M48.7487 74.7311C47.6648 74.5997 46.7693 73.9489 46.2928 72.9736L43.2519 66.5158C42.5469 64.9706 43.2246 63.176 44.7443 62.4844C46.2639 61.7929 48.128 62.4776 48.8379 63.9817L51.8788 70.4395C52.5887 71.9436 51.9061 73.7793 50.3864 74.4709C49.8938 74.7031 49.3324 74.8018 48.7487 74.7311ZM46.3555 62.8049C44.9798 62.6381 43.7644 63.6168 43.6037 64.9736C43.5501 65.4259 43.6216 65.8933 43.8279 66.2937L46.8688 72.7515C47.4412 73.9887 48.9398 74.5457 50.1948 73.9472C51.4448 73.3897 52.0002 71.9139 51.3862 70.6717L48.3452 64.2139C47.9695 63.4594 47.2309 62.911 46.3555 62.8049Z" fill="#553597"/>
<path d="M49.8792 67.3197L45.1455 69.4554L49.8792 67.3197Z" fill="white"/>
<path d="M45.1071 69.7847C44.9404 69.7645 44.83 69.6261 44.8495 69.4617C44.8592 69.3795 44.9155 69.2613 45.0037 69.2303L49.7375 67.0944C49.8723 67.0274 50.0758 67.0937 50.1445 67.2271C50.2133 67.3605 50.1473 67.561 50.0125 67.628L45.2787 69.7639C45.237 69.7588 45.1488 69.7898 45.1071 69.7847Z" fill="#553597"/>
<path d="M23.83 28.4492C23.3438 27.5563 23.6518 26.3844 24.5167 25.8638L26.6044 24.6575L28.6921 23.4512C29.5987 22.9356 30.6997 23.2776 31.2275 24.1756C31.7137 25.0685 31.4058 26.2404 30.5408 26.761L26.3654 29.1736C25.4637 29.648 24.3161 29.3421 23.83 28.4492Z" fill="white"/>
<path d="M23.4007 27.4384C23.4201 27.2739 23.4396 27.1095 23.4591 26.9451C23.6058 26.4208 23.9559 25.9628 24.4117 25.6845L28.5871 23.2719C29.5869 22.6842 30.8129 23.0414 31.3678 24.0677C31.6477 24.5603 31.7094 25.1099 31.5579 25.6753C31.4112 26.1996 31.0611 26.6575 30.6053 26.9358L26.4299 29.3485C25.4302 29.9362 24.2041 29.579 23.6492 28.5527C23.4797 28.1985 23.3985 27.8134 23.4007 27.4384ZM31.2829 25.1416C31.292 24.3504 30.8232 23.6681 30.0876 23.4538C29.6805 23.321 29.2074 23.3888 28.8448 23.595L24.6694 26.0077C23.8975 26.4561 23.6042 27.5048 24.0584 28.3104C24.5126 29.116 25.4935 29.4017 26.307 28.9583L30.4824 26.5456C30.8451 26.3394 31.1438 25.9587 31.2808 25.5166C31.2537 25.3882 31.2683 25.2649 31.2829 25.1416Z" fill="#553597"/>
<path d="M28.4638 27.8863L26.3343 29.0876C25.4276 29.6032 24.3266 29.2612 23.7987 28.3632C23.3125 27.4702 23.6205 26.2982 24.4855 25.7775L26.5733 24.5711L28.4638 27.8863Z" fill="#EDE3FF"/>
<path d="M23.3538 27.474C23.3998 26.729 23.7743 26.0655 24.4065 25.7252L28.5819 23.3126C29.5817 22.7249 30.8077 23.082 31.3626 24.1084C31.9175 25.1347 31.5582 26.3838 30.6001 26.9765L26.4247 29.3891C25.425 29.9768 24.1989 29.6197 23.644 28.5933C23.4329 28.2341 23.31 27.844 23.3538 27.474ZM31.1943 25.1721C31.223 24.2165 30.5089 23.4628 29.5822 23.4338C29.2856 23.4396 28.9841 23.4864 28.7097 23.6616L24.5343 26.0743C23.7207 26.5177 23.4691 27.5714 23.9233 28.377C24.3775 29.1826 25.4 29.4734 26.1719 29.0249L30.3473 26.6123C30.8496 26.2979 31.1678 25.7527 31.1943 25.1721Z" fill="#553597"/>
<path d="M28.3846 27.8339L26.6777 24.749L28.3846 27.8339Z" fill="white"/>
<path d="M26.4698 24.7241C26.4844 24.6008 26.5775 24.5287 26.6609 24.5388C26.7443 24.5489 26.7811 24.595 26.8179 24.6412L28.5248 27.726C28.5984 27.8184 28.5421 27.9367 28.449 28.0088C28.3558 28.0809 28.2356 28.0246 28.162 27.9323L26.4552 24.8475C26.4649 24.7653 26.4698 24.7241 26.4698 24.7241Z" fill="#553597"/>
</g>
<defs>
<clipPath id="clip0_3741_167152">
<rect width="251" height="218" fill="white" transform="translate(0.5 0.681641)"/>
</clipPath>
</defs>
</svg>
