<svg width="265" height="218" viewBox="0 0 265 218" fill="none" xmlns="http://www.w3.org/2000/svg">
<path d="M71.0781 211.718C-0.706938 199.968 -18.6264 135.954 20.9323 86.8064C46.649 54.8531 43.8591 15.3415 108.991 3.3053C223.053 -17.758 226.523 70.7223 237.682 131.154C252.955 213.616 161.104 226.405 71.0781 211.718Z" fill="#EDE3FF"/>
<path d="M120.71 124.105C131.002 124.105 139.309 118.834 139.309 112.298C139.309 105.762 130.972 100.491 120.71 100.491C110.417 100.491 102.11 105.762 102.11 112.298C102.11 118.834 110.417 124.105 120.71 124.105Z" fill="#553597"/>
<path d="M120.71 124.406C110.267 124.406 101.81 118.984 101.81 112.298C101.81 105.611 110.297 100.189 120.71 100.189C131.123 100.189 139.64 105.611 139.64 112.298C139.64 118.984 131.123 124.406 120.71 124.406ZM120.71 100.822C110.598 100.822 102.411 105.972 102.411 112.328C102.411 118.683 110.628 123.833 120.71 123.833C130.792 123.833 139.038 118.683 139.038 112.328C139.038 105.972 130.792 100.822 120.71 100.822Z" fill="#553597"/>
<path d="M122.365 217.566C163.626 217.566 197.063 211.542 197.063 204.102C197.063 196.663 163.626 190.639 122.365 190.639C81.1036 190.639 47.6973 196.663 47.6973 204.102C47.6973 211.542 81.1337 217.566 122.365 217.566Z" fill="#553597"/>
<path d="M122.364 217.867C102.381 217.867 83.6309 216.452 69.4859 213.922C61.2396 212.446 47.3955 209.193 47.3955 204.103C47.3955 199.012 61.2697 195.79 69.5159 194.284C83.6309 191.723 102.411 190.338 122.394 190.338C142.378 190.338 161.128 191.754 175.273 194.284C183.549 195.79 197.393 199.042 197.393 204.103C197.393 209.163 183.519 212.416 175.273 213.922C161.128 216.482 142.348 217.867 122.364 217.867ZM122.364 190.94C102.441 190.94 83.6911 192.326 69.6062 194.886C55.8825 197.356 47.9974 200.729 47.9974 204.103C47.9974 207.476 55.8825 210.849 69.6363 213.319C83.7212 215.849 102.471 217.265 122.394 217.265C142.318 217.265 161.067 215.879 175.152 213.319C188.906 210.849 196.791 207.476 196.791 204.103C196.791 200.729 188.906 197.356 175.152 194.886C161.037 192.356 142.318 190.94 122.364 190.94Z" fill="#553597"/>
<path d="M225.654 117.358C221.742 94.678 214.97 114.587 214.97 114.587C213.074 130.942 189.208 155.941 159.744 134.496C137.563 118.352 119.596 123.774 119.596 123.774C119.596 123.774 102.502 121.484 80.3212 135.52C65.1529 145.158 45.2295 155.369 39.5714 112.961C37.7055 102.599 30.4825 118.292 30.4825 118.292C30.4825 118.292 24.373 195.82 84.1735 174.856C80.1406 187.386 78.0339 204.042 77.0408 214.795C89.6208 216.542 105.331 217.566 122.365 217.566C141.025 217.566 158.059 216.331 171.15 214.283C169.616 203.5 166.486 186.964 160.406 172.356C193 182.507 221.17 151.393 225.654 117.358Z" fill="white"/>
<path d="M86.9419 166.453C86.9419 166.453 93.0514 166.543 90.9447 176.001C88.838 185.459 85.708 184.374 84.6245 191.302C83.5411 198.229 90.5233 211.241 87.9953 215.97C84.5343 215.879 76.7695 214.614 76.7695 214.614C76.7695 214.614 81.1033 180.127 85.1964 170.399C86.2196 168.019 86.9419 166.453 86.9419 166.453Z" fill="#EDE3FF"/>
<path d="M130.249 135.249C130.249 135.249 125.193 132.086 123.658 133.653C122.123 135.249 122.003 140.249 123.026 144.887C123.387 146.514 124.802 152.297 123.658 158.11C122.515 163.923 123.478 182.838 124.29 191.121C125.554 204.072 126.698 205.909 127.21 217.536C124.561 217.656 121.762 217.536 121.762 217.536L120.859 127.568C120.859 127.598 123.658 129.165 130.249 135.249Z" fill="#EDE3FF"/>
<path d="M122.365 217.867C105.813 217.867 90.1328 216.903 77.0111 215.096C76.9208 215.096 76.8606 215.036 76.8305 214.976C76.7703 214.915 76.7703 214.825 76.7703 214.765C77.8236 203.5 79.8702 187.597 83.7224 175.338C68.3736 180.579 56.0343 179.736 47.0055 172.778C36.7127 164.857 32.71 150.309 31.1751 139.496C30.1518 132.297 29.8509 125.008 30.2722 117.749C30.2722 117.719 30.2722 117.689 30.3023 117.629C30.7237 116.756 34.606 109.045 37.5253 109.467C38.669 109.617 39.4515 110.912 39.9029 113.412C42.0999 129.918 46.524 139.526 53.446 142.749C61.3913 146.453 71.4132 140.851 80.1711 135.309C101.509 121.816 118.393 123.382 119.597 123.502C120.168 123.352 124.532 122.207 131.424 122.81C138.106 123.412 148.459 125.912 159.955 134.285C174.762 145.068 186.981 143.351 194.626 139.978C206.363 134.827 213.736 123.051 214.73 114.587C214.73 114.557 214.73 114.557 214.73 114.527C214.85 114.165 217.739 106.003 221.08 106.304C223.277 106.485 224.962 110.129 226.226 117.418C226.226 117.448 226.226 117.478 226.226 117.509C222.163 140.219 210.667 159.284 195.498 168.531C184.965 174.947 173.047 176.453 160.978 172.868C166.847 187.205 169.947 203.259 171.512 214.283C171.512 214.373 171.512 214.433 171.452 214.494C171.392 214.554 171.331 214.614 171.241 214.614C157.668 216.722 140.303 217.867 122.365 217.867ZM77.3722 214.554C90.4037 216.331 105.963 217.265 122.365 217.265C140.122 217.265 157.337 216.12 170.82 214.042C169.225 202.928 166.095 186.784 160.136 172.477C160.106 172.417 160.106 172.356 160.106 172.296C160.106 172.236 160.136 172.176 160.166 172.145C160.196 172.115 160.256 172.085 160.316 172.055C160.377 172.025 160.437 172.025 160.467 172.055C172.565 175.82 184.543 174.404 195.107 167.959C210.125 158.802 221.501 139.917 225.534 117.418C224.059 108.864 222.223 106.967 220.959 106.846C218.582 106.635 216.054 112.388 215.241 114.647C214.7 119.286 212.472 124.406 209.011 129.044C205.189 134.135 200.284 138.08 194.806 140.49C187.041 143.923 174.612 145.7 159.564 134.737C137.775 118.864 119.837 123.984 119.657 124.044C119.627 124.044 119.567 124.044 119.536 124.044C119.356 124.014 102.261 121.936 80.442 135.761C73.55 140.128 65.9358 144.496 59.0137 144.496C56.9973 144.526 54.9809 144.104 53.1451 143.231C46.0424 139.917 41.498 130.159 39.2709 113.442C38.8796 111.334 38.2476 110.129 37.4049 110.009C35.2982 109.708 31.9877 115.491 30.844 117.81C30.4528 125.008 30.7538 132.237 31.7469 139.375C33.2818 150.068 37.2244 164.465 47.3366 172.266C56.3051 179.163 68.6444 179.946 84.0535 174.525C84.1137 174.495 84.1739 174.495 84.204 174.525C84.2642 174.525 84.2943 174.555 84.3544 174.615C84.3845 174.645 84.4146 174.706 84.4447 174.766C84.4447 174.826 84.4447 174.886 84.4447 174.916C80.5323 187.115 78.4557 203.139 77.3722 214.554Z" fill="#553597"/>
<path d="M84.4138 175.188C85.8584 170.971 87.3631 169.044 88.4466 166.815C85.8584 165.881 83.4507 165.279 80.3508 168.983C77.2509 172.688 74.9938 173.923 66.9582 173.11C61.7215 172.568 60.1565 175.7 59.7051 177.929C66.266 179.073 74.3016 178.29 84.173 174.857C84.1429 174.947 84.4439 175.098 84.4138 175.188Z" fill="#553597"/>
<path d="M184.934 145.761C188.636 148.231 196.883 148.442 200.404 143.502C203.925 138.563 206.784 136.906 212.773 133.382C217.348 130.701 216.595 123.623 214.127 119.647C210.426 130.762 198.448 143.291 182.437 143.141C183.099 144.135 183.941 145.038 184.934 145.761Z" fill="#EDE3FF"/>
<path d="M220.507 127.659C220.176 131.966 220.236 138.321 216.534 140.912C212.833 143.502 207.084 145.339 205.73 152.056C205.188 154.496 205.309 157.056 206.061 159.435C215.812 149.044 222.072 135.912 224.841 122.298C223.487 122.328 220.748 124.587 220.507 127.659Z" fill="#553597"/>
<path d="M61.4813 147.478C68.283 148.502 71.1722 141.906 75.9273 141.273C80.6825 140.641 90.9753 136.123 95.7304 132.207C97.6866 130.551 99.372 128.623 100.756 126.484C94.8275 128.201 87.8152 131.093 80.201 135.912C72.045 141.062 62.7454 146.514 55.0107 143.803C56.1845 145.369 58.1708 146.996 61.4813 147.478Z" fill="#EDE3FF"/>
<path d="M167.539 168.833C163.988 164.797 155.38 161.845 154.447 166.092C156.674 169.405 159.082 172.598 161.67 175.64H161.73C161.309 174.555 160.888 173.471 160.436 172.387C168.291 174.826 176.688 174.947 184.633 172.688C183.791 172.236 182.888 171.875 181.955 171.634C176.026 169.917 171.09 172.839 167.539 168.833Z" fill="#553597"/>
<path d="M121.762 217.716C121.672 217.716 121.612 217.686 121.552 217.626C121.492 217.566 121.461 217.505 121.461 217.415L120.559 127.267C120.559 127.177 120.589 127.116 120.649 127.056C120.709 126.996 120.769 126.966 120.86 126.966C120.95 126.966 121.01 126.996 121.07 127.056C121.13 127.116 121.161 127.177 121.161 127.267L122.033 217.385C122.033 217.475 122.003 217.535 121.943 217.596C121.913 217.686 121.823 217.716 121.762 217.716Z" fill="#553597"/>
<path d="M225.413 102.75C226.917 103.805 226.918 103.293 227.881 105.521C227.881 105.521 226.737 111.846 226.075 117.148C222.493 119.166 218.43 118.563 214.849 116.545C215.03 114.557 212.261 109.407 207.205 105.853C204.135 103.684 206.513 101.034 210.034 103.684C212.08 105.22 212.682 106.094 212.682 106.094C213.766 105.642 214.548 106.877 215.421 106.937C217.497 104.226 219.153 99.7384 215.541 92.9013C214.849 91.4254 214.608 88.6243 218.16 92.1182C220.056 94.6181 221.199 97.5397 221.681 100.823C222.704 97.871 222.764 94.6181 222.283 91.2146C222.042 89.0158 223.637 87.0279 224.931 90.7628C225.864 95.0096 226.165 99.0457 225.413 102.75Z" fill="#EDE3FF"/>
<path d="M217.588 112.9C217.588 112.9 218.701 105.882 213.134 106.274C211.599 106.725 211.539 107.78 213.525 107.509C215.511 107.237 217.227 109.858 217.588 112.9Z" fill="white"/>
<path d="M223.457 102.177C223.457 102.177 219.695 101.756 219.244 106.876C219.033 109.948 220.628 108.231 220.688 106.936C220.749 105.641 220.357 104.316 223.457 102.177Z" fill="white"/>
<path d="M224.961 103.503C224.961 103.503 221.771 103.714 222.072 108.352C222.192 109.979 223.185 109.135 223.336 108.111C223.456 107.087 222.553 105.611 224.961 103.503Z" fill="white"/>
<path d="M220.508 109.106H220.357C219.635 109.045 218.912 108.383 219.003 107.148C219.093 105.913 219.304 102.178 222.825 101.907C225.203 101.726 226.105 103.202 226.136 103.292C226.166 103.353 226.166 103.443 226.136 103.503C226.105 103.563 226.075 103.624 226.015 103.684C225.955 103.714 225.865 103.744 225.804 103.714C225.744 103.684 225.654 103.654 225.624 103.594C225.594 103.533 224.841 102.359 222.885 102.509C220.207 102.72 219.725 105.28 219.635 107.178C219.575 108.021 220.026 108.443 220.477 108.503C220.989 108.563 221.531 108.142 221.711 107.148C221.711 107.057 221.772 106.997 221.832 106.937C221.892 106.877 221.982 106.877 222.073 106.877C222.163 106.877 222.223 106.937 222.283 106.997C222.343 107.057 222.343 107.148 222.343 107.238C222.042 108.533 221.23 109.106 220.508 109.106Z" fill="#553597"/>
<path d="M215.541 106.786C215.511 106.786 215.451 106.786 215.421 106.756C215.391 106.756 215.361 106.726 215.33 106.696C215.3 106.666 215.27 106.636 215.27 106.605C215.27 106.575 215.24 106.515 215.24 106.485C215.24 106.455 215.24 106.395 215.27 106.364C215.3 106.334 215.3 106.304 215.33 106.274C215.481 106.124 219.273 102.208 216.053 95.2805C214.668 92.3288 214.428 90.7023 215.27 90.2505C216.324 89.7084 218.37 91.6661 219.243 93.2022C220.838 95.9732 221.952 99.8587 221.621 101.515C221.59 101.606 221.56 101.666 221.5 101.726C221.44 101.786 221.35 101.786 221.259 101.786C221.169 101.756 221.109 101.726 221.049 101.666C220.989 101.606 220.989 101.515 220.989 101.425C221.259 100.07 220.326 96.3949 218.671 93.5034C217.678 91.7866 215.963 90.5517 215.481 90.7927C215.451 90.7927 214.759 91.2143 216.534 95.0395C219.935 102.389 215.722 106.696 215.692 106.726C215.692 106.756 215.601 106.786 215.541 106.786Z" fill="#553597"/>
<path d="M221.41 118.623C218.972 118.593 216.595 117.93 214.488 116.695C214.428 116.665 214.398 116.635 214.368 116.575C214.338 116.514 214.338 116.454 214.338 116.394C214.548 114.978 211.96 109.587 206.964 106.093C205.911 105.34 205.339 104.466 205.429 103.653C205.459 103.382 205.55 103.141 205.7 102.93C205.851 102.72 206.061 102.539 206.332 102.448C207.325 102.027 208.74 102.388 210.154 103.442C211.147 104.165 212.05 104.948 212.893 105.822C213.976 105.46 215.511 106.003 216.685 107.177C218.34 108.864 218.701 111.153 217.618 113.322C217.588 113.382 217.528 113.442 217.437 113.472C217.347 113.502 217.287 113.502 217.197 113.442C217.137 113.412 217.076 113.352 217.046 113.261C217.016 113.171 217.016 113.111 217.076 113.02C218.039 111.093 217.738 109.075 216.264 107.569C215.21 106.515 213.796 106.003 212.953 106.424C212.893 106.454 212.833 106.454 212.743 106.454C212.682 106.454 212.622 106.394 212.562 106.364C211.719 105.46 210.786 104.647 209.763 103.924C208.318 102.84 207.145 102.75 206.543 103.021C206.392 103.081 206.272 103.171 206.182 103.292C206.091 103.412 206.031 103.563 206.001 103.713C205.941 104.286 206.422 105.009 207.295 105.611C212.171 109.045 214.939 114.346 214.909 116.273C218.521 118.261 222.614 118.562 225.624 117.087C227.068 111.002 227.249 107.388 227.249 107.328C227.369 105.641 227.068 104.497 226.346 104.015C225.563 103.473 224.54 103.864 224.149 104.045C222.283 104.918 222.253 106.515 222.253 107.599V107.99C222.223 108.111 222.253 108.231 222.283 108.352C222.313 108.472 222.373 108.563 222.433 108.653C222.494 108.743 222.584 108.834 222.704 108.894C222.825 108.954 222.915 108.984 223.035 109.015C223.427 109.045 223.938 108.834 224.059 108.051C224.359 106.153 225.473 105.972 225.533 105.972C225.624 105.972 225.684 105.972 225.774 106.033C225.834 106.093 225.894 106.153 225.894 106.244C225.894 106.334 225.894 106.394 225.834 106.454C225.774 106.515 225.714 106.575 225.624 106.575C225.593 106.575 224.871 106.725 224.66 108.171C224.48 109.286 223.667 109.707 222.975 109.647C222.584 109.617 222.223 109.406 221.982 109.105C221.741 108.804 221.621 108.412 221.681 108.021C221.681 107.9 221.681 107.78 221.681 107.659C221.711 106.605 221.741 104.617 223.938 103.593C224.992 103.111 226.015 103.111 226.737 103.593C227.64 104.226 228.031 105.521 227.881 107.448C227.881 107.478 227.7 111.213 226.195 117.448C226.195 117.478 226.165 117.538 226.135 117.569C226.105 117.599 226.075 117.629 226.045 117.659C224.63 118.261 223.035 118.623 221.41 118.623Z" fill="#553597"/>
<path d="M225.413 103.081H225.383C225.352 103.081 225.292 103.051 225.262 103.051C225.232 103.021 225.202 102.991 225.172 102.961C225.142 102.93 225.142 102.9 225.112 102.87C225.112 102.84 225.112 102.78 225.112 102.75C225.653 98.3824 225.623 95.9126 224.961 92.1176C224.6 90.0995 223.667 88.8948 223.155 88.9851C222.824 89.0454 222.313 89.8285 222.644 92.5693C223.095 96.0632 222.614 99.6173 221.259 102.87C221.229 102.93 221.169 102.991 221.079 103.021C221.019 103.051 220.928 103.051 220.838 103.021C220.778 102.991 220.718 102.93 220.688 102.84C220.658 102.78 220.658 102.69 220.688 102.599C221.982 99.4366 222.433 96.003 222.042 92.5995C221.621 89.0755 222.493 88.4128 223.065 88.3526C224.088 88.202 225.172 89.7983 225.563 91.9971C226.225 95.8524 226.255 98.3824 225.714 102.81C225.714 102.87 225.653 102.961 225.623 102.991C225.563 103.051 225.473 103.081 225.413 103.081Z" fill="#553597"/>
<path d="M32.3782 106.274C33.0403 104.707 33.1607 105.219 33.1607 105.219C33.1607 105.219 31.1443 102.72 30.9336 99.7377C30.753 96.7558 33.251 94.7378 34.0636 99.1654C34.9063 103.593 35.8994 102.087 37.8256 105.882C38.9692 108.141 39.7818 113.653 39.7818 113.653C39.2702 116.213 33.5219 118.02 30.4822 118.201C30.4822 117.237 28.4958 114.225 24.463 116.755C24.463 116.755 20.5205 118.593 16.9691 116.093C14.1401 114.105 16.0061 112.96 17.3604 113.623C18.7147 114.285 20.9117 115.159 23.199 112.96C21.6641 111.876 21.1224 109.527 21.5136 107.298C18.805 105.31 17.6914 102.569 18.2633 98.563C18.7147 96.9968 20.5806 96.1836 20.7311 98.5931C20.4603 100.792 21.4233 102.479 22.9883 103.924L24.5533 102.659C23.9815 100.762 23.9213 98.7738 24.4329 96.8462C24.3426 95.5209 27.2017 94.6776 27.0813 97.298C27.0212 101.695 28.4357 104.948 32.3782 106.274Z" fill="#EDE3FF"/>
<path d="M18.5049 98.1718C18.5049 98.1718 17.0302 103.172 21.2436 106.906C20.1602 105.4 18.7758 101.304 19.7388 98.7441C20.732 96.1538 18.836 97.208 18.5049 98.1718Z" fill="white"/>
<path d="M25.3958 102.328C25.3958 102.328 19.3466 104.587 22.0251 111.605C21.995 110.159 21.6639 105.882 25.3356 104.045C29.0073 102.208 25.7269 102.117 25.3958 102.328Z" fill="white"/>
<path d="M31.7458 96.877C31.1439 98.2022 30.9333 99.6781 31.1439 101.124C31.3546 102.57 31.9866 103.925 32.9497 105.009C32.0769 107.238 30.0304 110.431 34.5749 112.84C35.4777 113.563 36.8621 112.81 34.936 111.545C32.8293 110.16 32.5283 107.539 34.6952 104.829C33.3108 102.961 32.2876 101.756 32.4681 98.4131C32.4681 96.9372 31.7458 96.877 31.7458 96.877Z" fill="white"/>
<path d="M30.513 118.593C30.4528 118.593 30.3625 118.563 30.3023 118.533C30.2722 118.503 30.2421 118.472 30.2421 118.442C30.212 118.412 30.212 118.352 30.212 118.322C30.212 117.99 30.1518 117.629 29.9712 117.328C29.8208 117.027 29.5499 116.786 29.279 116.605C28.0752 115.882 25.9083 116.213 23.5307 117.509C23.3802 117.569 20.461 118.924 16.7893 116.334C14.8932 114.979 15.134 114.075 15.3447 113.744C15.7058 113.141 16.699 112.961 17.5116 113.382C19.0464 114.135 20.8522 114.647 22.7482 112.991C21.5143 111.906 20.9124 109.949 21.1833 107.72C21.424 105.702 22.5376 103.202 24.885 102.298C26.5403 101.666 27.1723 102.208 27.4131 102.599C27.8344 103.292 27.4733 104.467 26.6607 105.16C25.7879 105.913 25.2462 106.997 25.1258 108.141C25.0957 108.412 25.1258 108.684 25.2161 108.924C25.3064 109.165 25.4268 109.406 25.6073 109.617C25.6374 109.647 25.6675 109.677 25.6675 109.708C25.6675 109.738 25.6976 109.798 25.6976 109.828C25.6976 109.858 25.6976 109.918 25.6675 109.949C25.6374 109.979 25.6374 110.009 25.6073 110.039C25.5772 110.069 25.5471 110.099 25.5171 110.099C25.487 110.099 25.4268 110.129 25.3967 110.129C25.3666 110.129 25.3064 110.129 25.2763 110.099C25.2462 110.069 25.2161 110.069 25.186 110.039C24.9452 109.768 24.7647 109.467 24.6744 109.135C24.554 108.804 24.5239 108.443 24.554 108.111C24.6744 106.786 25.3064 105.551 26.2995 104.678C26.8714 104.196 27.1723 103.322 26.9316 102.901C26.7209 102.539 26.0588 102.509 25.1559 102.87C23.0492 103.684 22.056 105.943 21.8454 107.81C21.6046 109.918 22.2065 111.876 23.4705 112.75C23.5006 112.78 23.5307 112.81 23.5608 112.84C23.5909 112.87 23.5909 112.93 23.5909 112.961C23.5909 112.991 23.5909 113.051 23.5608 113.081C23.5307 113.111 23.5307 113.171 23.5006 113.201C20.9124 115.671 18.3843 114.436 17.3009 113.924C16.7291 113.653 16.0971 113.774 15.9165 114.075C15.7359 114.376 15.9767 115.009 17.2106 115.882C20.5813 118.262 23.3201 117.027 23.3502 116.997C25.9384 115.611 28.2558 115.28 29.6703 116.123C30.0013 116.334 30.3023 116.605 30.513 116.936C30.7236 117.268 30.844 117.629 30.8741 118.021C34.2147 117.629 38.9097 115.792 39.4213 113.503C39.3611 112.991 38.8796 108.141 37.8262 106.063C37.3447 105.039 36.6826 104.105 35.8399 103.322C35.0273 102.539 34.3953 101.907 33.8837 99.2862C33.5526 97.479 32.9507 96.9068 32.5294 96.967C31.8974 97.0574 31.2654 98.2923 31.3556 99.7982C31.5362 102.629 33.4924 105.069 33.5225 105.099C33.5827 105.16 33.5827 105.22 33.5827 105.28C33.5827 105.34 33.5526 105.431 33.5225 105.461C33.0711 106.093 32.6799 106.786 32.409 107.509C32.1983 107.931 32.108 108.382 32.0779 108.834C32.0478 109.286 32.1381 109.768 32.2886 110.19C32.9808 111.876 34.9972 112.75 35.0273 112.75C35.0875 112.78 35.1477 112.84 35.1778 112.9C35.2079 112.961 35.2079 113.051 35.1778 113.141C35.1477 113.201 35.0875 113.262 35.0273 113.292C34.9671 113.322 34.8769 113.322 34.7866 113.292C34.6963 113.262 32.5294 112.328 31.7168 110.4C31.5061 109.888 31.4158 109.346 31.4459 108.804C31.476 108.262 31.5964 107.72 31.8372 107.238C31.9877 106.485 32.3488 105.822 32.7701 105.19C32.2886 104.527 30.7838 102.358 30.6333 99.738C30.5431 98.0212 31.2955 96.4248 32.3488 96.3044C32.7701 96.2441 33.8536 96.3947 34.3652 99.1055C34.8468 101.575 35.3885 102.087 36.1409 102.84C37.0137 103.654 37.736 104.647 38.2476 105.732C39.3912 108.021 39.8728 113.232 39.9029 113.442C39.9029 113.473 39.9029 113.503 39.9029 113.533C39.3611 116.274 34.0041 118.262 30.513 118.593Z" fill="#553597"/>
<path d="M21.5143 107.57C21.4541 107.57 21.3939 107.539 21.3337 107.509C20.1299 106.606 19.1668 105.371 18.5649 103.985C17.963 102.6 17.6921 101.064 17.8426 99.5578C18.0232 97.3892 18.9561 96.6964 19.6784 96.7265C20.4609 96.7868 21.2434 97.7205 21.1832 99.3168C21.0628 101.756 23.1395 103.564 23.1696 103.594C23.2297 103.654 23.2598 103.714 23.2598 103.805C23.2598 103.895 23.2297 103.955 23.1997 104.015C23.1696 104.046 23.1395 104.076 23.1094 104.076C23.0793 104.106 23.0492 104.106 22.989 104.106C22.9589 104.106 22.8987 104.106 22.8686 104.106C22.8385 104.106 22.8084 104.076 22.7783 104.046C22.688 103.955 20.4308 102.028 20.5813 99.2867C20.6415 98.112 20.16 97.359 19.6483 97.3289C19.1367 97.2988 18.5649 97.9915 18.4445 99.5879C18.3241 101.004 18.5649 102.419 19.1367 103.684C19.7085 104.979 20.5813 106.094 21.6949 106.967C21.7551 107.027 21.8152 107.088 21.8152 107.148C21.8152 107.238 21.8152 107.298 21.7551 107.359C21.725 107.389 21.6949 107.449 21.6347 107.449C21.6046 107.539 21.5745 107.57 21.5143 107.57Z" fill="#553597"/>
<path d="M32.4089 106.636C32.3788 106.636 32.3187 106.636 32.2886 106.606C27.2325 104.558 26.4801 100.582 26.7208 97.6001C26.8111 96.5459 26.6004 95.8532 26.149 95.7327C25.6976 95.6122 25.0355 96.0038 24.7345 96.5459C24.6442 96.8772 23.952 99.9494 24.8248 102.57C24.8549 102.66 24.8549 102.72 24.7947 102.811C24.7646 102.871 24.7044 102.931 24.6141 102.961C24.584 102.961 24.5238 102.992 24.4937 102.992C24.4636 102.992 24.4035 102.992 24.3734 102.961C24.3433 102.931 24.3132 102.931 24.2831 102.901C24.253 102.871 24.2229 102.841 24.2229 102.811C23.32 99.8591 24.1627 96.5158 24.1928 96.3652C24.1928 96.3351 24.1928 96.3351 24.2229 96.305C24.584 95.552 25.5471 94.9195 26.3597 95.1604C26.8111 95.2809 27.5334 95.7628 27.3528 97.6604C27.1121 100.431 27.8344 104.136 32.5293 106.064C32.5895 106.094 32.6497 106.154 32.6798 106.214C32.7099 106.275 32.7099 106.365 32.6798 106.455C32.6497 106.516 32.6196 106.546 32.5594 106.606C32.4992 106.666 32.4691 106.636 32.4089 106.636Z" fill="#553597"/>
<path d="M24.8848 111.666C24.8246 111.666 24.7945 111.666 24.7343 111.636C24.6741 111.605 24.644 111.575 24.6139 111.545C24.5838 111.515 24.5838 111.455 24.5537 111.395C24.5537 111.334 24.5537 111.304 24.5838 111.244C25.4566 109.136 28.0749 106.786 28.1953 106.696C28.2555 106.636 28.3458 106.636 28.406 106.636C28.4963 106.636 28.5565 106.666 28.6166 106.726C28.6768 106.786 28.7069 106.847 28.7069 106.937C28.7069 107.027 28.6768 107.088 28.6166 107.148C28.5866 107.178 25.9983 109.497 25.1556 111.485C25.1255 111.545 25.0954 111.575 25.0352 111.636C25.0051 111.636 24.945 111.666 24.8848 111.666Z" fill="#553597"/>
<path d="M31.807 121.756C31.3556 121.756 30.9041 121.726 30.4828 121.696C30.4527 121.696 30.3925 121.665 30.3624 121.665C30.3323 121.665 30.3022 121.635 30.2721 121.575C30.242 121.545 30.2119 121.515 30.2119 121.485C30.2119 121.455 30.2119 121.394 30.2119 121.364C30.2119 121.334 30.242 121.274 30.242 121.244C30.2721 121.214 30.3022 121.183 30.3323 121.153C30.3624 121.123 30.3925 121.123 30.4226 121.093C30.4527 121.093 30.5129 121.093 30.543 121.093C30.6032 121.093 37.0437 121.786 39.963 117.84C40.0232 117.78 40.0833 117.72 40.1736 117.72C40.2639 117.72 40.3241 117.72 40.3843 117.78C40.4144 117.81 40.4445 117.84 40.4746 117.87C40.5047 117.9 40.5047 117.931 40.5047 117.991C40.5047 118.021 40.5047 118.081 40.5047 118.111C40.5047 118.141 40.4746 118.172 40.4445 118.232C38.1271 121.334 33.9438 121.756 31.807 121.756Z" fill="#553597"/>
<path d="M222.494 121.485C219.485 121.485 216.505 120.822 213.797 119.497C213.767 119.467 213.737 119.467 213.706 119.437C213.676 119.407 213.646 119.377 213.646 119.316C213.646 119.286 213.616 119.226 213.616 119.196C213.616 119.166 213.616 119.106 213.646 119.075C213.676 119.045 213.707 119.015 213.737 118.985C213.767 118.955 213.797 118.955 213.857 118.925C213.887 118.925 213.947 118.925 213.977 118.925C214.007 118.925 214.068 118.955 214.098 118.985C217.529 120.612 221.351 121.184 225.113 120.732C225.143 120.732 225.203 120.732 225.233 120.732C225.263 120.732 225.293 120.762 225.354 120.792C225.384 120.822 225.414 120.852 225.444 120.883C225.474 120.913 225.474 120.943 225.474 121.003C225.474 121.033 225.474 121.093 225.474 121.124C225.474 121.154 225.444 121.184 225.414 121.244C225.384 121.274 225.354 121.304 225.323 121.334C225.293 121.364 225.263 121.364 225.203 121.364C224.27 121.455 223.397 121.515 222.494 121.485Z" fill="#553597"/>
<path d="M166.094 189.917C162.483 183.019 161.038 183.953 159.202 181.122C156.433 176.815 158.811 175.61 156.795 173.321C154.778 171.032 152.701 165.49 155.982 165.008C159.262 164.526 166.094 189.917 166.094 189.917Z" fill="#553597"/>
<path d="M113.456 113.473C112.132 116.606 100.274 121.395 96.5123 112.329C93.2017 104.407 100.033 100.311 103.073 100.642C103.073 100.642 100.304 91.9078 110.116 90.1006C107.738 95.6125 110.296 102.66 110.296 102.66C110.296 102.66 108.49 109.136 113.456 113.473Z" fill="#553597"/>
<path d="M104.398 117.87H104.368C101.689 117.87 98.0776 116.907 96.2116 112.449C94.436 108.202 95.5796 105.28 96.8437 103.594C98.4688 101.425 100.937 100.341 102.652 100.341C102.411 99.2867 101.93 96.3651 103.465 93.7748C104.699 91.7266 106.896 90.4014 110.056 89.8291C110.116 89.8291 110.176 89.8291 110.206 89.8592C110.266 89.8893 110.297 89.9195 110.327 89.9496C110.357 89.9797 110.387 90.0399 110.387 90.1002C110.387 90.1604 110.387 90.2207 110.357 90.2508C108.039 95.5819 110.537 102.509 110.567 102.57C110.597 102.63 110.597 102.69 110.567 102.75C110.537 102.811 108.882 109.106 113.637 113.262C113.697 113.292 113.727 113.353 113.727 113.413C113.727 113.473 113.727 113.533 113.697 113.593C112.915 115.521 108.551 117.87 104.398 117.87ZM102.682 100.913C101.117 100.913 98.7999 101.967 97.3252 103.925C96.1515 105.491 95.0981 108.202 96.7534 112.208C98.4989 116.364 101.84 117.268 104.338 117.268H104.368C108.34 117.268 112.162 115.13 113.035 113.533C108.521 109.437 109.755 103.503 109.935 102.66C109.634 101.817 107.618 95.6723 109.574 90.4917C106.896 91.064 105.03 92.2688 103.946 94.0458C102.201 96.9674 103.284 100.491 103.314 100.552C103.344 100.612 103.344 100.642 103.314 100.702C103.314 100.763 103.284 100.793 103.254 100.823C103.224 100.853 103.194 100.883 103.134 100.913C103.073 100.943 103.043 100.943 102.983 100.943C102.923 100.913 102.803 100.913 102.682 100.913Z" fill="#553597"/>
<path d="M127.603 113.473C128.927 116.606 140.785 121.395 144.546 112.329C147.857 104.407 141.025 100.311 137.986 100.642C137.986 100.642 140.754 91.9078 130.943 90.1006C133.351 95.6125 130.733 102.66 130.733 102.66C130.733 102.66 132.568 109.136 127.603 113.473Z" fill="#553597"/>
<path d="M136.662 117.87C132.508 117.87 128.175 115.521 127.332 113.593C127.302 113.533 127.302 113.473 127.302 113.413C127.302 113.352 127.362 113.292 127.392 113.262C132.147 109.106 130.462 102.811 130.432 102.75C130.402 102.69 130.402 102.63 130.432 102.57C130.462 102.509 132.96 95.5818 130.642 90.2506C130.612 90.1904 130.612 90.1603 130.612 90.1C130.612 90.0398 130.642 90.0097 130.672 89.9494C130.703 89.9193 130.763 89.8591 130.793 89.8591C130.823 89.8591 130.913 89.829 130.943 89.8591C134.073 90.4314 136.3 91.7566 137.534 93.8048C139.069 96.3649 138.588 99.2865 138.347 100.371C140.062 100.371 142.53 101.455 144.155 103.624C145.419 105.341 146.563 108.232 144.787 112.479C142.921 116.937 139.34 117.9 136.631 117.9L136.662 117.87ZM127.994 113.533C128.897 115.099 132.719 117.268 136.662 117.268H136.692C139.19 117.268 142.56 116.364 144.276 112.208C145.931 108.232 144.878 105.521 143.704 103.925C142.139 101.817 139.581 100.732 138.016 100.913C137.956 100.913 137.926 100.913 137.865 100.883C137.805 100.853 137.775 100.823 137.745 100.793C137.715 100.762 137.685 100.702 137.685 100.672C137.685 100.642 137.685 100.582 137.685 100.521C137.685 100.491 138.768 96.9372 137.023 94.0457C135.969 92.2687 134.073 91.094 131.395 90.4916C133.351 95.6722 131.335 101.817 131.034 102.66C131.274 103.473 132.478 109.437 127.994 113.533Z" fill="#553597"/>
<path d="M109.573 101.184C109.573 102.78 108.52 103.865 107.557 103.804C106.082 103.684 105.3 101.847 105.3 100.22C105.3 98.6237 106.263 97.9912 107.226 97.9912C108.189 97.9912 109.573 99.5574 109.573 101.184Z" fill="#EDE3FF"/>
<path d="M107.647 104.105H107.527C105.872 103.985 104.999 102.027 104.999 100.25C104.999 98.3824 106.203 97.7197 107.226 97.7197C108.37 97.7197 109.875 99.4365 109.875 101.214C109.875 101.665 109.814 102.087 109.634 102.509C109.483 102.93 109.243 103.292 108.911 103.593C108.611 103.894 108.129 104.075 107.647 104.105ZM107.226 98.292C106.835 98.292 105.601 98.4426 105.601 100.22C105.601 101.756 106.353 103.412 107.587 103.503C107.768 103.503 107.948 103.473 108.099 103.412C108.249 103.352 108.4 103.232 108.52 103.111C108.761 102.87 108.972 102.569 109.092 102.238C109.212 101.906 109.273 101.545 109.273 101.183C109.273 99.6775 108.009 98.292 107.226 98.292Z" fill="#553597"/>
<path d="M130.853 101.184C130.853 102.78 131.906 103.865 132.869 103.804C134.344 103.684 135.126 101.847 135.126 100.22C135.126 98.6237 134.163 97.9912 133.2 97.9912C132.237 97.9912 130.853 99.5574 130.853 101.184Z" fill="#EDE3FF"/>
<path d="M132.778 104.106C132.296 104.076 131.845 103.895 131.484 103.564C131.183 103.263 130.942 102.871 130.761 102.479C130.611 102.058 130.521 101.636 130.551 101.184C130.551 99.4374 132.055 97.6904 133.199 97.6904C134.222 97.6904 135.426 98.3531 135.426 100.22C135.426 101.998 134.523 103.985 132.898 104.106H132.778ZM133.199 98.2928C132.417 98.2928 131.153 99.6783 131.153 101.184C131.153 101.546 131.213 101.907 131.333 102.238C131.454 102.57 131.664 102.871 131.905 103.112C132.025 103.232 132.176 103.323 132.326 103.413C132.477 103.473 132.657 103.504 132.838 103.504C134.072 103.413 134.824 101.787 134.824 100.22C134.824 98.4434 133.59 98.2928 133.199 98.2928Z" fill="#553597"/>
<path d="M107.889 123.924C107.016 126.545 109.183 133.08 111.681 134.617C114.54 130.641 121.011 127.026 121.011 127.026L112.735 119.015C112.735 119.015 109.274 119.707 107.889 123.924Z" fill="white"/>
<path d="M133.169 123.924C133.982 126.545 131.936 133.08 129.558 134.617C126.849 130.641 120.68 127.026 120.68 127.026L128.595 119.015C128.565 119.015 131.815 119.707 133.169 123.924Z" fill="white"/>
<path d="M129.558 119.587C129.558 119.587 134.132 122.268 132.959 125.039C131.785 127.81 121.793 126.876 121.793 126.876C121.793 126.876 129.347 124.196 129.197 119.467C129.678 119.587 129.558 119.587 129.558 119.587Z" fill="#EDE3FF"/>
<path d="M111.681 134.918C111.621 134.918 111.561 134.888 111.53 134.888C108.822 133.201 106.745 126.485 107.618 123.834C109.032 119.497 112.524 118.744 112.674 118.714C112.734 118.714 112.764 118.714 112.825 118.714C112.885 118.714 112.915 118.744 112.945 118.774L121.221 126.786C121.251 126.816 121.281 126.846 121.281 126.906C121.312 126.937 121.312 126.997 121.281 127.057C121.281 127.117 121.251 127.147 121.221 127.177C121.191 127.208 121.161 127.238 121.131 127.268C121.071 127.298 114.69 130.912 111.922 134.768C111.892 134.798 111.861 134.828 111.801 134.858C111.771 134.918 111.741 134.918 111.681 134.918ZM112.644 119.346C111.982 119.527 109.333 120.461 108.19 124.015C107.407 126.364 109.273 132.448 111.621 134.195C114.179 130.792 119.145 127.75 120.499 126.967L112.644 119.346Z" fill="#553597"/>
<path d="M129.528 134.918C129.467 134.918 129.437 134.918 129.377 134.888C129.347 134.858 129.287 134.828 129.257 134.798C126.608 130.942 120.529 127.328 120.469 127.298C120.439 127.268 120.409 127.238 120.379 127.207C120.348 127.177 120.348 127.117 120.318 127.087C120.318 127.027 120.318 126.997 120.318 126.967C120.318 126.936 120.348 126.876 120.379 126.846L128.294 118.834C128.324 118.804 128.384 118.774 128.414 118.744C128.474 118.744 128.504 118.714 128.565 118.744C128.715 118.774 132.056 119.527 133.41 123.864C134.253 126.515 132.236 133.231 129.678 134.918C129.648 134.918 129.588 134.918 129.528 134.918ZM121.131 126.967C122.425 127.75 127.15 130.792 129.618 134.195C131.875 132.418 133.621 126.364 132.868 124.015C131.785 120.491 129.287 119.527 128.655 119.346L121.131 126.967Z" fill="#553597"/>
<path d="M112.945 110.671C112.975 110.792 112.494 115.912 112.132 119.526C112.102 119.948 112.042 120.34 112.012 120.731C111.952 121.454 112.072 122.207 112.403 122.87C112.734 123.532 113.246 124.074 113.878 124.466C115.443 125.43 117.73 126.544 120.048 126.845C122.455 127.147 125.284 125.972 127.24 124.918C127.963 124.526 128.535 123.924 128.896 123.201C129.257 122.478 129.377 121.635 129.257 120.822L127.541 110.159L112.945 110.671Z" fill="#EDE3FF"/>
<path d="M120.859 127.177C120.589 127.177 120.318 127.147 120.047 127.117C117.639 126.816 115.292 125.641 113.757 124.707C113.065 124.286 112.523 123.683 112.162 122.991C111.801 122.268 111.65 121.485 111.74 120.671L111.861 119.497C112.613 112.087 112.673 110.852 112.673 110.702C112.673 110.642 112.673 110.551 112.734 110.491C112.764 110.461 112.794 110.431 112.824 110.401C112.854 110.37 112.914 110.37 112.944 110.37L127.571 109.858C127.631 109.858 127.721 109.889 127.782 109.919C127.842 109.979 127.872 110.039 127.872 110.099L129.587 120.762C129.738 121.635 129.587 122.539 129.196 123.322C128.805 124.105 128.173 124.768 127.39 125.189C125.645 126.123 123.147 127.177 120.859 127.177ZM113.245 110.943C113.215 111.605 113.035 113.593 112.433 119.557L112.312 120.732C112.252 121.424 112.372 122.117 112.673 122.719C112.974 123.322 113.456 123.834 114.028 124.195C115.533 125.099 117.79 126.243 120.077 126.515C122.424 126.816 125.193 125.641 127.089 124.617C127.751 124.256 128.293 123.713 128.624 123.021C128.955 122.328 129.076 121.575 128.955 120.822L127.27 110.401L113.245 110.943Z" fill="#553597"/>
<path d="M130.43 88.0819C135.757 106.605 130.189 111.816 130.189 111.816C128.474 115.671 118.843 120.792 111.108 111.997C103.916 103.804 110.446 88.0216 110.446 88.0216C114.87 85.612 121.371 86.2747 130.43 88.0819Z" fill="#EDE3FF"/>
<path d="M120.769 117.177C117.94 117.177 114.328 116.153 110.897 112.237C103.674 104.015 109.904 88.5934 110.175 87.9609C110.205 87.9007 110.235 87.8404 110.295 87.8103C114.78 85.3405 121.341 85.973 130.49 87.8103C130.55 87.8103 130.61 87.8404 130.64 87.8705C130.67 87.9007 130.7 87.9609 130.73 88.0211C135.847 105.822 131.001 111.454 130.429 112.026C129.497 114.044 126.457 116.454 122.574 117.056C121.973 117.117 121.371 117.177 120.769 117.177ZM110.687 88.2621C110.145 89.6175 104.637 104.195 111.349 111.816C115.351 116.424 119.625 116.876 122.454 116.424C126.156 115.852 129.045 113.563 129.888 111.695C129.918 111.665 129.918 111.635 129.948 111.605C130.008 111.545 135.275 106.274 130.159 88.3525C121.341 86.5754 114.99 85.973 110.687 88.2621Z" fill="#553597"/>
<path d="M109.875 89.7988C109.875 89.7988 105.571 101.365 109.032 108.503C109.604 107.63 110.447 106.515 110.447 106.515C110.447 106.515 107.828 101.696 111.831 89.4072L109.875 89.7988Z" fill="white"/>
<path d="M120.769 117.177C117.94 117.177 114.328 116.153 110.897 112.237C103.674 104.015 109.904 88.5934 110.175 87.9609C110.205 87.9007 110.235 87.8404 110.295 87.8103C114.78 85.3405 121.341 85.973 130.49 87.8103C130.55 87.8103 130.61 87.8404 130.64 87.8705C130.67 87.9007 130.7 87.9609 130.73 88.0211C135.847 105.822 131.001 111.454 130.429 112.026C129.497 114.044 126.457 116.454 122.574 117.056C121.973 117.117 121.371 117.177 120.769 117.177ZM110.687 88.2621C110.145 89.6175 104.637 104.195 111.349 111.816C115.351 116.424 119.625 116.876 122.454 116.424C126.156 115.852 129.045 113.563 129.888 111.695C129.918 111.665 129.918 111.635 129.948 111.605C130.008 111.545 135.275 106.274 130.159 88.3525C121.341 86.5754 114.99 85.973 110.687 88.2621Z" fill="#553597"/>
<path d="M106.957 90.9428C106.957 90.9428 117.279 85.5815 133.29 90.9428C134.374 87.9911 129.559 78.8649 130.1 77.8107C130.642 76.7565 133.471 74.0457 130.612 72.1482C127.753 70.2507 114.601 69.8892 109.635 73.353C104.669 76.7866 109.455 80.0697 108.913 82.1479C108.371 84.2262 106.776 89.226 106.957 90.9428Z" fill="white"/>
<path d="M120.288 100.973C120.288 100.973 114.389 102.147 108.821 108.081C110.507 113.412 113.998 116.966 120.649 116.966C127.631 116.966 131.182 112.388 132.416 107.689C129.979 104.948 123.538 101.575 120.288 100.973Z" fill="white"/>
<path d="M120.649 117.268C114.419 117.268 110.447 114.286 108.521 108.172C108.491 108.111 108.491 108.051 108.521 108.021C108.521 107.961 108.551 107.931 108.611 107.87C114.179 101.937 119.987 100.702 120.258 100.672C120.288 100.672 120.318 100.672 120.378 100.672C123.629 101.274 130.16 104.678 132.688 107.479C132.718 107.509 132.748 107.569 132.748 107.599C132.748 107.66 132.748 107.69 132.748 107.75C131.965 110.611 129.287 117.268 120.649 117.268ZM109.153 108.172C111.019 113.894 114.781 116.665 120.649 116.665C128.715 116.665 131.333 110.551 132.086 107.75C129.558 105.069 123.418 101.847 120.288 101.274C119.686 101.425 114.269 102.78 109.153 108.172Z" fill="#553597"/>
<path d="M131.304 100.25H129.649C129.558 100.25 129.498 100.22 129.438 100.16C129.378 100.1 129.348 100.04 129.348 99.9492C129.348 99.8588 129.378 99.7986 129.438 99.7383C129.498 99.6781 129.558 99.648 129.649 99.648H131.153L132.598 97.0276C132.628 96.9974 132.658 96.9673 132.688 96.9372C132.718 96.9071 132.748 96.9071 132.809 96.877C132.839 96.877 132.899 96.877 132.929 96.877C132.959 96.877 133.019 96.9071 133.049 96.9071C133.08 96.9372 133.11 96.9673 133.14 96.9974C133.17 97.0276 133.17 97.0577 133.2 97.1179C133.2 97.148 133.2 97.2083 133.2 97.2384C133.2 97.2685 133.17 97.3287 133.17 97.3589L131.635 100.13C131.605 100.19 131.575 100.22 131.515 100.25C131.424 100.25 131.364 100.25 131.304 100.25Z" fill="#553597"/>
<path d="M110.747 100.25H109.032C108.971 100.25 108.941 100.25 108.881 100.22C108.821 100.19 108.791 100.16 108.761 100.1L107.166 97.3285C107.136 97.2683 107.105 97.1779 107.136 97.0876C107.166 96.9972 107.196 96.937 107.286 96.9069C107.346 96.8767 107.436 96.8466 107.527 96.8767C107.617 96.9069 107.677 96.937 107.707 97.0273L109.212 99.6477H110.747C110.837 99.6477 110.897 99.6779 110.958 99.7381C111.018 99.7983 111.048 99.8586 111.048 99.9489C111.048 100.039 111.018 100.1 110.958 100.16C110.897 100.22 110.807 100.25 110.747 100.25Z" fill="#553597"/>
<path d="M115.143 96.0332C116.587 96.0332 117.791 95.5212 117.791 94.8887C117.791 94.2562 116.617 93.7441 115.143 93.7441C113.698 93.7441 112.494 94.2562 112.494 94.8887C112.494 95.5513 113.668 96.0332 115.143 96.0332Z" fill="white"/>
<path d="M115.141 96.3348C113.455 96.3348 112.191 95.7023 112.191 94.8891C112.191 94.0759 113.455 93.4434 115.141 93.4434C116.826 93.4434 118.09 94.0458 118.09 94.8891C118.09 95.7324 116.826 96.3348 115.141 96.3348ZM115.141 94.0759C113.696 94.0759 112.793 94.5578 112.793 94.9192C112.793 95.2807 113.696 95.7626 115.141 95.7626C116.585 95.7626 117.488 95.2505 117.488 94.9192C117.488 94.5879 116.555 94.0759 115.141 94.0759Z" fill="#553597"/>
<path d="M115.172 95.9727C115.804 95.9727 116.346 95.4606 116.346 94.8281C116.346 94.1956 115.834 93.6836 115.172 93.6836C114.54 93.6836 113.998 94.1956 113.998 94.8281C113.998 95.4606 114.51 95.9727 115.172 95.9727Z" fill="#553597"/>
<path d="M124.532 96.0332C125.977 96.0332 127.181 95.5212 127.181 94.8887C127.181 94.2562 126.007 93.7441 124.532 93.7441C123.088 93.7441 121.884 94.2562 121.884 94.8887C121.884 95.5513 123.058 96.0332 124.532 96.0332Z" fill="white"/>
<path d="M124.531 96.3348C122.846 96.3348 121.582 95.7023 121.582 94.8891C121.582 94.0759 122.846 93.4434 124.531 93.4434C126.217 93.4434 127.481 94.0458 127.481 94.8891C127.481 95.7324 126.187 96.3348 124.531 96.3348ZM124.531 94.0759C123.087 94.0759 122.184 94.5578 122.184 94.9192C122.184 95.2807 123.087 95.7626 124.531 95.7626C125.976 95.7626 126.879 95.2505 126.879 94.9192C126.879 94.5879 125.946 94.0759 124.531 94.0759Z" fill="#553597"/>
<path d="M124.531 95.9727C125.163 95.9727 125.705 95.4606 125.705 94.8281C125.705 94.1956 125.193 93.6836 124.531 93.6836C123.869 93.6836 123.357 94.1956 123.357 94.8281C123.357 95.4606 123.899 95.9727 124.531 95.9727Z" fill="#553597"/>
<path d="M112.313 92.4192C112.283 92.4192 112.222 92.4192 112.192 92.3891C112.162 92.359 112.132 92.359 112.102 92.3289C112.042 92.2686 112.012 92.1783 112.012 92.118C112.012 92.0277 112.042 91.9674 112.102 91.9072C112.854 91.2747 113.787 90.853 114.781 90.7024C115.774 90.5518 116.767 90.6723 117.7 91.0638C117.73 91.0638 117.76 91.094 117.79 91.1241C117.82 91.1542 117.85 91.1843 117.85 91.2144C117.88 91.2446 117.88 91.3048 117.88 91.3349C117.88 91.365 117.88 91.4253 117.85 91.4554C117.85 91.4855 117.82 91.5156 117.79 91.5457C117.76 91.5759 117.73 91.606 117.7 91.606C117.67 91.6361 117.61 91.6361 117.579 91.6361C117.549 91.6361 117.489 91.6361 117.459 91.606C116.646 91.2747 115.744 91.1542 114.871 91.2747C113.998 91.3951 113.185 91.7566 112.493 92.3289C112.463 92.3891 112.373 92.4192 112.313 92.4192Z" fill="#553597"/>
<path d="M127.361 92.4194C127.301 92.4194 127.211 92.3892 127.15 92.329C126.458 91.7567 125.646 91.3953 124.773 91.2748C123.9 91.1543 122.997 91.2447 122.185 91.6061C122.124 91.6363 122.034 91.6363 121.974 91.6061C121.914 91.576 121.853 91.5158 121.823 91.4555C121.793 91.3953 121.793 91.3049 121.823 91.2447C121.853 91.1845 121.914 91.1242 121.974 91.0941C122.907 90.7026 123.9 90.5821 124.893 90.7327C125.886 90.8833 126.789 91.3049 127.572 91.9375C127.632 91.9977 127.662 92.0579 127.662 92.1483C127.662 92.2387 127.632 92.2989 127.572 92.3591C127.542 92.3892 127.511 92.4194 127.481 92.4194C127.421 92.4194 127.391 92.4194 127.361 92.4194Z" fill="#553597"/>
<path d="M131.454 75.5518L130.07 77.8408L133.26 88.7441C133.26 88.7441 131.815 84.9792 129.829 83.8045C127.842 82.6299 126.608 82.1479 127.271 80.7926C127.933 79.4372 124.923 80.2504 125.796 78.4131C126.669 76.5758 131.454 75.5518 131.454 75.5518Z" fill="#553597"/>
<path d="M107.829 78.3535C107.829 78.3535 108.792 79.7993 112.223 80.3113C115.654 80.8534 113.758 82.4197 112.494 82.4197C111.23 82.4197 108.732 83.5341 108.04 85.2208C109.093 82.4197 109.003 81.5462 109.003 81.5462L107.829 78.3535Z" fill="#553597"/>
<path d="M119.145 96.1539C119.145 97.0876 118.844 98.0213 118.332 98.8044C118.422 99.1658 118.573 99.5273 118.814 99.7983L119.777 99.4068C119.777 99.4068 120.529 98.5936 119.987 96.0635C119.777 95.19 119.175 95.4611 119.145 96.1539Z" fill="white"/>
<path d="M114.69 102.811C116.887 102.811 118.663 101.636 118.663 100.16C118.663 98.7145 116.887 97.5098 114.69 97.5098C112.493 97.5098 110.718 98.6844 110.718 100.16C110.718 101.636 112.493 102.811 114.69 102.811Z" fill="#EDE3FF"/>
<path d="M114.691 103.112C112.343 103.112 110.417 101.786 110.417 100.16C110.417 98.5334 112.343 97.2383 114.691 97.2383C117.038 97.2383 118.964 98.5635 118.964 100.16C118.964 101.756 117.038 103.112 114.691 103.112ZM114.691 97.8407C112.674 97.8407 111.019 98.8949 111.019 100.16C111.019 101.425 112.674 102.509 114.691 102.509C116.707 102.509 118.362 101.455 118.362 100.16C118.362 98.8647 116.707 97.8407 114.691 97.8407Z" fill="#553597"/>
<path d="M125.675 102.811C127.872 102.811 129.647 101.636 129.647 100.16C129.647 98.7145 127.872 97.5098 125.675 97.5098C123.478 97.5098 121.702 98.6844 121.702 100.16C121.702 101.636 123.478 102.811 125.675 102.811Z" fill="#EDE3FF"/>
<path d="M125.675 103.112C123.328 103.112 121.401 101.786 121.401 100.16C121.401 98.5334 123.328 97.2383 125.675 97.2383C128.022 97.2383 129.949 98.5635 129.949 100.16C129.949 101.756 128.053 103.112 125.675 103.112ZM125.675 97.8407C123.659 97.8407 122.003 98.8949 122.003 100.16C122.003 101.425 123.659 102.509 125.675 102.509C127.691 102.509 129.347 101.455 129.347 100.16C129.347 98.8647 127.691 97.8407 125.675 97.8407Z" fill="#553597"/>
<path d="M118.663 99.9791C118.663 99.9791 120.228 98.5033 121.703 100.009L118.663 99.9791Z" fill="#EDE3FF"/>
<path d="M121.702 100.311C121.672 100.311 121.612 100.311 121.582 100.28C121.552 100.25 121.522 100.25 121.491 100.22C120.258 98.9251 118.933 100.13 118.903 100.19C118.843 100.25 118.783 100.25 118.693 100.25C118.602 100.25 118.542 100.22 118.482 100.16C118.422 100.1 118.392 100.04 118.392 99.9492C118.392 99.8588 118.422 99.7986 118.482 99.7383C119.084 99.1661 120.589 98.4131 121.943 99.7986C122.003 99.8588 122.033 99.919 122.033 100.009C122.033 100.1 122.003 100.16 121.943 100.22C121.913 100.25 121.883 100.28 121.853 100.28C121.762 100.311 121.732 100.311 121.702 100.311Z" fill="#553597"/>
<path d="M112.344 106.817C114.571 105.311 117.189 104.497 119.868 104.467C124.472 104.377 128.565 106.877 128.565 106.877C125.736 106.274 122.847 105.943 119.958 105.943C117.37 105.943 114.842 106.244 112.344 106.817Z" fill="#EDE3FF"/>
<path d="M127.601 111.997C125.765 113.593 123.418 114.467 120.98 114.557C116.917 114.647 113.306 111.937 113.306 111.937C113.306 111.937 117.007 113.503 120.98 113.443C123.267 113.412 125.525 112.93 127.601 111.997Z" fill="#EDE3FF"/>
<path d="M128.565 109.075C128.565 109.075 125.646 110.28 121.041 110.37C118.092 110.4 115.143 109.918 112.344 108.984C112.344 108.984 116.557 109.135 121.041 109.045C125.496 109.014 128.565 109.075 128.565 109.075Z" fill="#EDE3FF"/>
<path d="M115.473 115.973C115.473 115.973 121.402 121.123 128.685 117.418C128.594 116.485 128.384 115.551 128.113 114.647C128.113 114.647 121.913 118.593 115.473 115.973Z" fill="#553597"/>
<path d="M133.29 91.2745C133.26 91.2745 133.23 91.2745 133.2 91.2745C117.52 86.0337 107.197 91.2143 107.107 91.2444C107.077 91.2745 107.016 91.2745 106.956 91.2745C106.896 91.2745 106.866 91.2745 106.806 91.2444C106.776 91.2143 106.715 91.1842 106.685 91.154C106.655 91.1239 106.655 91.0637 106.625 91.0034C106.475 89.5878 107.438 86.2445 108.13 83.8049C108.31 83.1422 108.491 82.5398 108.611 82.088C108.762 81.5158 108.401 80.7929 107.979 79.9194C107.077 78.0821 105.873 75.5822 109.454 73.1124C114.631 69.5282 127.963 70.0101 130.792 71.9076C131.123 72.1185 131.424 72.3594 131.665 72.6907C131.906 72.9919 132.056 73.3534 132.146 73.7449C132.387 75.1003 131.454 76.4557 130.822 77.3291C130.672 77.54 130.521 77.7508 130.371 77.9918C130.25 78.3231 130.973 80.311 131.575 81.8772C132.778 85.1301 134.283 89.1963 133.591 91.0637C133.561 91.1239 133.531 91.154 133.471 91.1842C133.41 91.2444 133.35 91.2745 133.29 91.2745ZM119.386 88.2927C124.051 88.3228 128.655 89.0758 133.079 90.5818C133.44 88.7746 132.026 84.9193 130.973 82.088C130.01 79.4978 129.558 78.2026 129.799 77.7207C129.949 77.4797 130.1 77.2087 130.28 76.9978C130.852 76.1846 131.725 74.9497 131.514 73.8654C131.454 73.5642 131.304 73.2931 131.123 73.022C130.943 72.7811 130.702 72.5702 130.431 72.4197C127.782 70.6426 114.661 70.2209 109.785 73.6244C106.625 75.793 107.648 77.8713 108.521 79.6785C108.973 80.6122 109.394 81.4856 109.183 82.2386C109.063 82.6904 108.912 83.2928 108.702 83.9555C108.13 86.0036 107.287 88.9854 107.227 90.4914C108.581 89.9191 112.885 88.2927 119.386 88.2927Z" fill="#553597"/>
<path d="M97.6857 109.015C97.5954 109.015 97.5352 108.985 97.475 108.925C97.4149 108.865 97.3848 108.804 97.3848 108.714C97.445 104.256 101.929 102.75 101.959 102.75C102.05 102.72 102.11 102.72 102.2 102.78C102.29 102.841 102.32 102.871 102.351 102.961C102.381 103.051 102.381 103.112 102.32 103.202C102.29 103.262 102.23 103.323 102.14 103.353C101.959 103.413 98.0469 104.738 97.9867 108.774C97.9867 108.865 97.9566 108.925 97.8964 108.985C97.8362 108.985 97.776 109.015 97.6857 109.015Z" fill="#EDE3FF"/>
<path d="M40.9548 122.087C40.9548 122.087 37.6744 139.315 48.8098 147.839C56.4843 153.682 60.6375 145.821 55.0096 143.833C48.6894 141.604 44.1149 135.55 40.9548 122.087Z" fill="#553597"/>
<path d="M115.563 148.652C116.827 148.351 117.64 147.237 117.399 146.152C117.158 145.068 115.924 144.405 114.66 144.707C113.396 145.008 112.584 146.122 112.824 147.207C113.065 148.321 114.299 148.953 115.563 148.652Z" fill="#EDE3FF"/>
<path d="M114.961 149.044C114.509 149.044 114.088 148.954 113.697 148.743C113.426 148.592 113.155 148.411 112.974 148.14C112.764 147.899 112.643 147.598 112.553 147.297C112.493 146.996 112.493 146.664 112.553 146.363C112.613 146.062 112.764 145.761 112.944 145.52C113.335 144.978 113.937 144.586 114.599 144.436C116.014 144.104 117.398 144.857 117.699 146.092C117.76 146.393 117.76 146.725 117.699 147.026C117.639 147.327 117.489 147.628 117.308 147.899C116.887 148.442 116.315 148.833 115.653 148.984C115.412 149.014 115.171 149.044 114.961 149.044ZM115.262 144.948C115.081 144.948 114.9 144.978 114.72 145.008C114.208 145.128 113.727 145.43 113.426 145.851C113.275 146.032 113.185 146.243 113.125 146.484C113.065 146.725 113.065 146.936 113.125 147.177C113.185 147.417 113.275 147.628 113.426 147.809C113.576 147.99 113.757 148.14 113.967 148.231C114.449 148.472 114.991 148.532 115.502 148.411C116.014 148.291 116.496 147.99 116.796 147.568C116.947 147.387 117.037 147.177 117.097 146.936C117.158 146.695 117.158 146.484 117.097 146.243C116.917 145.46 116.134 144.948 115.262 144.948Z" fill="#553597"/>
<path d="M114.691 173.621C115.955 173.32 116.768 172.205 116.527 171.121C116.286 170.037 115.052 169.374 113.788 169.675C112.524 169.977 111.712 171.091 111.952 172.175C112.193 173.26 113.427 173.922 114.691 173.621Z" fill="#EDE3FF"/>
<path d="M114.088 174.014C112.915 174.014 111.921 173.321 111.651 172.267C111.59 171.965 111.59 171.634 111.651 171.333C111.711 171.032 111.861 170.73 112.042 170.459C112.433 169.917 113.035 169.526 113.697 169.375C115.112 169.044 116.526 169.797 116.797 171.032C116.857 171.333 116.857 171.664 116.797 171.965C116.737 172.267 116.586 172.568 116.406 172.839C116.015 173.381 115.413 173.773 114.75 173.923C114.54 173.983 114.299 174.014 114.088 174.014ZM114.389 169.917C114.209 169.917 114.028 169.947 113.848 169.977C113.336 170.098 112.854 170.399 112.553 170.821C112.403 171.002 112.313 171.212 112.253 171.453C112.192 171.664 112.192 171.905 112.253 172.146C112.463 173.08 113.547 173.622 114.63 173.351C115.142 173.23 115.623 172.929 115.924 172.508C116.075 172.327 116.165 172.116 116.225 171.875C116.285 171.634 116.285 171.423 116.225 171.182C116.045 170.429 115.262 169.917 114.389 169.917Z" fill="#553597"/>
<path d="M114.931 202.928C116.195 202.626 117.008 201.512 116.767 200.428C116.526 199.343 115.292 198.681 114.028 198.982C112.764 199.283 111.952 200.398 112.193 201.482C112.433 202.566 113.667 203.199 114.931 202.928Z" fill="#EDE3FF"/>
<path d="M114.329 203.289C113.878 203.289 113.457 203.199 113.065 202.988C112.795 202.837 112.524 202.657 112.343 202.385C112.162 202.114 112.012 201.843 111.922 201.542C111.621 200.307 112.554 199.012 113.968 198.681C115.383 198.349 116.797 199.102 117.068 200.337C117.128 200.639 117.128 200.97 117.068 201.271C117.008 201.572 116.857 201.873 116.677 202.145C116.286 202.687 115.684 203.078 115.022 203.229C114.781 203.259 114.54 203.289 114.329 203.289ZM114.63 199.193C114.45 199.193 114.269 199.223 114.089 199.253C113.005 199.524 112.283 200.458 112.494 201.392C112.554 201.602 112.644 201.813 112.795 201.994C112.945 202.175 113.126 202.325 113.336 202.416C113.818 202.657 114.36 202.717 114.871 202.596C115.383 202.476 115.834 202.175 116.165 201.753C116.316 201.572 116.406 201.361 116.466 201.12C116.526 200.879 116.526 200.669 116.466 200.428C116.286 199.705 115.503 199.193 114.63 199.193Z" fill="#553597"/>
<path d="M149.422 159.405C149.391 159.405 149.331 159.405 149.301 159.375C143.493 156.785 131.334 157.809 131.214 157.809C131.184 157.809 131.123 157.809 131.093 157.809C131.063 157.809 131.033 157.779 131.003 157.748C130.973 157.718 130.943 157.688 130.943 157.658C130.913 157.628 130.913 157.568 130.913 157.538L130.672 153.803C130.672 153.712 130.702 153.652 130.732 153.592C130.792 153.532 130.852 153.502 130.943 153.472C131.424 153.411 142.59 152.146 149.482 154.827C149.542 154.857 149.572 154.887 149.602 154.917C149.632 154.977 149.662 155.008 149.662 155.068C149.662 155.098 149.783 157.357 149.723 159.074C149.723 159.164 149.692 159.224 149.632 159.285C149.602 159.375 149.512 159.405 149.422 159.405ZM136.962 156.996C140.844 156.996 145.81 157.297 149.151 158.652C149.181 157.357 149.121 155.851 149.091 155.339C142.891 153.02 133.08 153.863 131.304 154.044L131.484 157.176C132.267 157.146 134.374 156.996 136.962 156.996Z" fill="#553597"/>
<mask id="mask0_3744_89044" style="mask-type:luminance" maskUnits="userSpaceOnUse" x="165" y="19" width="100" height="144">
<path d="M265 19.8359H165.151V162.1H265V19.8359Z" fill="white"/>
</mask>
<g mask="url(#mask0_3744_89044)">
<path d="M204.309 108.747C204.242 108.747 204.175 108.713 204.142 108.68C204.075 108.646 204.008 108.546 204.008 108.479C203.975 108.379 204.008 108.312 204.041 108.245L228.151 71.6839C228.184 71.6504 228.218 71.617 228.251 71.5835C228.285 71.5501 228.318 71.5501 228.385 71.5166C228.418 71.5166 228.485 71.5166 228.519 71.5166C228.552 71.5166 228.619 71.5501 228.652 71.5501C228.686 71.5835 228.719 71.617 228.753 71.6504C228.786 71.6839 228.786 71.7173 228.82 71.7842C228.853 71.8511 228.82 71.8846 228.82 71.918C228.82 71.9515 228.786 72.0184 228.753 72.0518L204.61 108.579C204.576 108.613 204.543 108.68 204.476 108.68C204.409 108.713 204.376 108.747 204.309 108.747Z" fill="#553597"/>
<path d="M222.432 88.5092L215.477 83.96L206.549 97.5408L213.504 102.09L222.432 88.5092Z" fill="white"/>
<path d="M213.539 102.424C213.472 102.424 213.405 102.391 213.372 102.357L206.383 97.8082C206.316 97.7747 206.249 97.6744 206.249 97.6075C206.216 97.5071 206.249 97.4402 206.283 97.3733L215.177 83.759C215.211 83.7256 215.244 83.6921 215.278 83.6587C215.311 83.6252 215.345 83.6252 215.411 83.5918C215.445 83.5918 215.512 83.5918 215.545 83.5918C215.579 83.5918 215.645 83.6252 215.679 83.6252L222.634 88.1745C222.701 88.2414 222.768 88.3083 222.768 88.3752C222.801 88.4755 222.768 88.5424 222.735 88.6428L213.806 102.29C213.773 102.324 213.739 102.357 213.673 102.391C213.606 102.424 213.572 102.424 213.539 102.424ZM207.018 97.4402L213.439 101.621L221.965 88.5759L215.579 84.3946L207.018 97.4402Z" fill="#553597"/>
<path d="M214.173 101.823L206.549 96.8389L204.476 99.9832L212.133 104.967L214.173 101.823Z" fill="#EDE3FF"/>
<path d="M212.1 105.302C212.033 105.302 211.966 105.268 211.933 105.235L204.309 100.217C204.242 100.184 204.175 100.084 204.175 100.017C204.142 99.9163 204.175 99.8494 204.208 99.749L206.282 96.6047C206.315 96.5378 206.415 96.4709 206.482 96.4709C206.583 96.4374 206.649 96.4709 206.716 96.5043L214.374 101.555C214.441 101.589 214.508 101.689 214.508 101.756C214.541 101.856 214.508 101.923 214.474 101.99L212.401 105.135C212.367 105.201 212.267 105.268 212.2 105.268C212.167 105.302 212.133 105.302 212.1 105.302ZM204.944 99.8828L212.033 104.499L213.738 101.923L206.649 97.2737L204.944 99.8828Z" fill="#553597"/>
<path d="M224.706 85.7331L217.082 80.749L215.042 83.8933L222.666 88.8774L224.706 85.7331Z" fill="#EDE3FF"/>
<path d="M222.633 89.2117C222.566 89.2117 222.499 89.1782 222.466 89.1448L214.842 84.1607C214.775 84.1272 214.708 84.0603 214.708 83.96C214.675 83.8596 214.708 83.7927 214.742 83.6924L216.815 80.548C216.848 80.4811 216.949 80.4142 217.015 80.4142C217.116 80.3808 217.183 80.4142 217.25 80.4477L224.874 85.4318C224.907 85.4652 224.94 85.4987 224.974 85.5321C225.007 85.5656 225.007 85.599 225.041 85.6659C225.041 85.6994 225.041 85.7663 225.041 85.7997C225.041 85.8332 225.007 85.9001 225.007 85.9335L222.934 89.0779C222.901 89.1113 222.867 89.1782 222.8 89.1782C222.767 89.2117 222.7 89.2117 222.633 89.2117ZM215.511 83.7927L222.566 88.4089L224.272 85.8332L217.183 81.2171L215.511 83.7927Z" fill="#553597"/>
<path d="M217.049 88.6432C216.982 88.6432 216.915 88.6098 216.882 88.5763L213.839 86.5693C213.806 86.5359 213.772 86.5024 213.739 86.469C213.705 86.4355 213.705 86.4021 213.672 86.3352C213.672 86.3017 213.672 86.2348 213.672 86.2014C213.672 86.1679 213.705 86.101 213.705 86.0676C213.739 86.0007 213.839 85.9338 213.906 85.9338C214.006 85.9003 214.073 85.9338 214.14 85.9672L217.183 87.9742C217.25 88.0077 217.283 88.0746 217.317 88.1415C217.35 88.2084 217.35 88.2753 217.317 88.3422C217.283 88.4091 217.25 88.476 217.183 88.5094C217.183 88.6098 217.116 88.6432 217.049 88.6432Z" fill="#553597"/>
<path d="M214.34 90.0141C214.273 90.0141 214.206 89.9806 214.173 89.9472L212.367 88.7429C212.3 88.7095 212.234 88.6091 212.234 88.5422C212.2 88.4419 212.234 88.375 212.267 88.3081C212.3 88.2746 212.334 88.2412 212.367 88.2077C212.401 88.1743 212.434 88.1743 212.501 88.1408C212.568 88.1074 212.601 88.1408 212.635 88.1408C212.668 88.1408 212.735 88.1743 212.769 88.1743L214.574 89.3785C214.641 89.412 214.708 89.5123 214.708 89.5792C214.741 89.6796 214.708 89.7465 214.675 89.8134C214.641 89.8468 214.608 89.9137 214.541 89.9137C214.474 89.9137 214.407 90.0141 214.34 90.0141Z" fill="#553597"/>
<path d="M214.141 93.0254C214.074 93.0254 214.007 92.9919 213.974 92.9585L210.931 90.9515C210.897 90.918 210.864 90.8845 210.831 90.8511C210.797 90.8176 210.797 90.7842 210.764 90.7173C210.764 90.6838 210.764 90.6169 210.764 90.5835C210.764 90.55 210.797 90.4831 210.797 90.4497C210.831 90.4162 210.864 90.3828 210.897 90.3493C210.931 90.3159 210.964 90.3159 211.031 90.2824C211.098 90.249 211.131 90.2824 211.165 90.2824C211.198 90.2824 211.265 90.3159 211.299 90.3493L214.342 92.3564C214.408 92.3898 214.475 92.4902 214.475 92.5571C214.509 92.6574 214.475 92.7243 214.442 92.7912C214.375 92.925 214.342 92.9585 214.275 92.9919C214.208 93.0254 214.174 93.0254 214.141 93.0254Z" fill="#553597"/>
<path d="M211.431 94.4301C211.364 94.4301 211.297 94.3967 211.264 94.3632L209.458 93.159C209.391 93.159 209.358 93.1255 209.358 93.0921C209.358 93.0586 209.324 93.0252 209.291 92.9583C209.291 92.9248 209.291 92.8579 209.291 92.8245C209.291 92.791 209.324 92.7241 209.324 92.6907C209.358 92.6572 209.391 92.6238 209.425 92.5903C209.458 92.5569 209.492 92.5569 209.559 92.5234C209.592 92.5234 209.659 92.5234 209.692 92.5234C209.726 92.5234 209.793 92.5569 209.826 92.5903L211.632 93.7945C211.699 93.828 211.765 93.9283 211.765 93.9952C211.799 94.0956 211.765 94.1625 211.732 94.2294C211.699 94.2629 211.665 94.3298 211.598 94.3298C211.565 94.3967 211.498 94.4301 211.431 94.4301Z" fill="#553597"/>
<path d="M211.231 97.4407C211.164 97.4407 211.097 97.4072 211.064 97.3738L208.021 95.3668C207.954 95.3333 207.887 95.233 207.887 95.1661C207.853 95.0657 207.887 94.9988 207.92 94.9319C207.954 94.8984 207.987 94.865 208.021 94.8315C208.054 94.7981 208.088 94.7981 208.154 94.7646C208.188 94.7646 208.255 94.7646 208.288 94.7646C208.322 94.7646 208.388 94.7981 208.422 94.7981L211.465 96.8051C211.532 96.8386 211.565 96.9055 211.599 96.9724C211.632 97.0393 211.632 97.1062 211.599 97.1731C211.565 97.24 211.532 97.3069 211.465 97.3403C211.365 97.4072 211.298 97.4407 211.231 97.4407Z" fill="#553597"/>
<path d="M223.135 82.622L220.561 80.916L219.591 82.3878L222.166 84.0938L223.135 82.622Z" fill="#553597"/>
<path d="M222.199 84.4283C222.132 84.4283 222.065 84.3949 222.031 84.3614L219.457 82.6555C219.423 82.622 219.39 82.5886 219.356 82.5551C219.323 82.5217 219.323 82.4882 219.289 82.4213C219.256 82.321 219.289 82.2541 219.356 82.1537L220.326 80.6819C220.36 80.6484 220.393 80.615 220.426 80.5815C220.46 80.5481 220.493 80.5481 220.56 80.5146C220.594 80.5146 220.66 80.5146 220.694 80.5146C220.727 80.5146 220.794 80.5481 220.828 80.5481L223.402 82.2541C223.469 82.2875 223.536 82.3879 223.536 82.4548C223.57 82.5551 223.536 82.622 223.503 82.6889L222.533 84.1607C222.5 84.1942 222.466 84.2276 222.433 84.2611C222.399 84.2945 222.366 84.2945 222.299 84.328C222.232 84.4283 222.199 84.4283 222.199 84.4283ZM220.059 82.2875L222.098 83.6255L222.7 82.7224L220.66 81.3844L220.059 82.2875Z" fill="#553597"/>
<path d="M207.419 109.014L202.47 105.77L201.768 106.84L206.717 110.085L207.419 109.014Z" fill="#553597"/>
<path d="M206.717 110.419C206.65 110.419 206.583 110.385 206.55 110.352L201.601 107.107C201.567 107.074 201.534 107.04 201.5 107.007C201.467 106.974 201.467 106.94 201.434 106.873C201.434 106.806 201.434 106.706 201.5 106.639L202.203 105.569C202.236 105.535 202.27 105.502 202.303 105.468C202.336 105.435 202.37 105.435 202.437 105.401C202.47 105.401 202.537 105.401 202.571 105.401C202.604 105.401 202.671 105.435 202.704 105.435L207.653 108.679C207.72 108.713 207.787 108.813 207.787 108.88C207.82 108.981 207.787 109.047 207.754 109.148L207.051 110.218C207.018 110.252 206.984 110.285 206.918 110.319C206.817 110.385 206.784 110.419 206.717 110.419ZM202.236 106.739L206.617 109.616L206.951 109.114L202.571 106.204L202.236 106.739Z" fill="#553597"/>
</g>
<path d="M67.4258 25.7285L68.7674 31.3349C69.0224 32.4006 70.1128 33.0708 71.1778 32.8164L76.7808 31.4784L67.4258 25.7285Z" fill="white"/>
<path d="M60.6789 12.5807L35.1589 18.5854C33.2039 19.0522 31.9756 21.0539 32.4437 23.0101L44.4239 73.826C44.892 75.7822 46.8937 77.0124 48.8487 76.5456L84.6535 68.0847C86.6085 67.6178 87.8368 65.6162 87.3687 63.66L77.7661 23.1555L60.6789 12.5807Z" fill="white"/>
<path d="M84.8555 68.9357L49.0502 77.3965C47.8602 77.6807 46.6534 77.5193 45.5999 76.8718C44.5464 76.2243 43.8568 75.2202 43.5719 74.0295L31.5066 23.2343C31.2217 22.0436 31.3821 20.8365 32.0286 19.783C32.675 18.7295 33.6783 18.0404 34.8683 17.7562L60.3886 11.7516C60.6436 11.6907 60.8339 11.7351 61.0446 11.8646L78.302 22.3988C78.5127 22.5283 78.6384 22.6781 78.6995 22.9332L88.2171 63.4576C88.5021 64.6483 88.3417 65.8554 87.6952 66.9089C87.0487 67.9624 86.0455 68.6515 84.8555 68.9357ZM35.2753 19.4572C34.5103 19.6399 33.8914 20.0574 33.5035 20.6895C33.1156 21.3216 33.0234 22.0629 33.2066 22.8284L45.2719 73.6235C45.4551 74.3889 45.8729 75.0084 46.505 75.3969C47.1371 75.7854 47.8782 75.8782 48.6432 75.6955L84.4484 67.2347C85.2134 67.052 85.8324 66.6345 86.2203 66.0024C86.6081 65.3703 86.7003 64.629 86.5171 63.8636L76.9959 23.6997L60.5406 13.5135L35.2753 19.4572Z" fill="#553597"/>
<path d="M71.8792 34.9894L46.0242 41.0756C45.5143 41.1974 45.0727 40.8535 44.971 40.4284C44.8489 39.9182 45.1075 39.4969 45.6174 39.3751L71.4724 33.2889C71.9823 33.1671 72.4239 33.511 72.5256 33.9362C72.6273 34.3613 72.3041 34.8879 71.8792 34.9894Z" fill="#553597"/>
<path d="M73.6692 42.4757L47.8142 48.5619C47.3044 48.6837 46.8627 48.3398 46.761 47.9147C46.639 47.4045 46.8975 46.9833 47.4074 46.8615L73.2624 40.7753C73.7723 40.6535 74.2139 40.9974 74.3156 41.4225C74.3324 41.8679 74.0941 42.3742 73.6692 42.4757Z" fill="#553597"/>
<path d="M75.3557 49.8956L49.5008 55.9818C48.9909 56.1036 48.5492 55.7597 48.4475 55.3346C48.3255 54.8245 48.5841 54.4032 49.094 54.2814L74.9489 48.1952C75.4588 48.0734 75.9004 48.4173 76.0022 48.8424C76.1242 49.3526 75.8656 49.7738 75.3557 49.8956Z" fill="#553597"/>
<path d="M69.4127 59.2293L51.3113 63.5532C50.8014 63.675 50.3598 63.331 50.2581 62.9059C50.1361 62.3958 50.3946 61.9745 50.9045 61.8527L69.0059 57.5288C69.5158 57.407 69.9574 57.751 70.0591 58.1761C70.1608 58.6012 69.8376 59.1278 69.4127 59.2293Z" fill="#553597"/>
<path d="M78.0721 24.0674L67.7875 26.5235C66.5976 26.8077 65.3909 26.6463 64.3374 25.9988C63.2839 25.3513 62.5944 24.3472 62.3095 23.1565L59.8469 12.8656C59.7655 12.5255 59.8541 12.1447 60.1737 11.9784C60.473 11.7271 60.8333 11.731 61.1494 11.9252L78.3211 22.4795C78.6371 22.6737 78.8035 22.9936 78.7149 23.3744C78.606 23.6702 78.4121 23.9862 78.0721 24.0674ZM61.9299 14.4361L63.904 22.6858C64.0872 23.4512 64.505 24.0707 65.1371 24.4592C65.7692 24.8477 66.5102 24.9405 67.2752 24.7578L75.5198 22.7888L61.9299 14.4361Z" fill="#553597"/>
</svg>
